mtllib 122328291.mtl
o Mesh

v 0.2208620011806488 -0.6213430166244507 0.1877650022506714
v 0.22001199424266815 -0.41896796226501465 0.1803019940853119
v 0.07767900079488754 -0.4114840030670166 0.30505600571632385
v 0.07947199791669846 -0.6185580492019653 0.33698299527168274
v -0.4129529893398285 -0.6326990127563477 -0.1702750027179718
v -0.37515100836753845 -0.47578203678131104 -0.13453200459480286
v -0.2691270112991333 -0.4572230577468872 -0.2757830023765564
v -0.27067801356315613 -0.63720703125 -0.3197709918022156
v -0.19305700063705444 -0.44827401638031006 -0.306522011756897
v -0.19614599645137787 -0.6210230588912964 -0.35889899730682373
v 0.1775590032339096 1.2023500204086304 0.15671700239181519
v 0.09993799775838852 1.276859998703003 0.10716100037097931
v 0.014700000174343586 1.276859998703003 0.20199300348758698
v 0.05951499938964844 1.2023500204086304 0.28804799914360046
v -0.18201099336147308 1.2023500204086304 0.3121890127658844
v -0.15970200300216675 1.276859998703003 0.2194249927997589
v -0.21817399561405182 1.276859998703003 0.20199300348758698
v -0.26298800110816956 1.2023500204086304 0.28804799914360046
v -0.3182629942893982 1.276859998703003 0.10716100037097931
v -0.3958829939365387 1.2023500204086304 0.15671700239181519
v -0.34946200251579285 1.276859998703003 -0.05054600164294243
v -0.4390900135040283 1.2023500204086304 -0.05084700137376785
v -0.3182629942893982 1.276859998703003 -0.18008799850940704
v -0.3958829939365387 1.2023500204086304 -0.23025000095367432
v -0.21817399561405182 1.276859998703003 -0.2749220132827759
v -0.26298800110816956 1.2023500204086304 -0.4271230101585388
v -0.16657499969005585 1.276859998703003 -0.35584700107574463
v -0.19152900576591492 1.2023500204086304 -0.46203500032424927
v -0.023454999551177025 1.2023500204086304 -0.46765899658203125
v -0.10173700004816055 1.2023500204086304 -0.5053139925003052
v -0.10173700004816055 1.276859998703003 -0.37517499923706055
v -0.04521099850535393 1.276859998703003 -0.3583250045776367
v 0.014700000174343586 1.276859998703003 -0.2749220132827759
v 0.09993799775838852 1.276859998703003 -0.18008799850940704
v 0.1775590032339096 1.2023489475250244 -0.23025000095367432
v 0.05951499938964844 1.2023500204086304 -0.4271230101585388
v 0.11769600212574005 1.276859998703003 -0.10635299980640411
v 0.20215199887752533 1.2023489475250244 -0.12813499569892883
v 0.1311360001564026 1.276859998703003 -0.05054600164294243
v 0.11804299801588058 1.276859998703003 0.015641000121831894
v 0.20263299345970154 1.2023500204086304 0.03626300022006035
v 0.22076499462127686 1.2023489475250244 -0.05084700137376785
v 0.17950700223445892 0.3276600241661072 -0.24084700644016266
v 0.2291489988565445 0.31783998012542725 -0.10361400246620178
v 0.20880599319934845 0.1754699945449829 -0.09931199997663498
v 0.15823200345039368 0.1726599931716919 -0.2474139928817749
v 0.06467799842357635 0.3385400176048279 -0.34646400809288025
v 0.06282100081443787 0.1639299988746643 -0.35585901141166687
v -0.017330000177025795 0.16109997034072876 -0.39160099625587463
v -0.09295299649238586 0.1584399938583374 -0.42466500401496887
v -0.09536399692296982 0.33980000019073486 -0.4148400127887726
v -0.01766899973154068 0.3391900062561035 -0.38198399543762207
v -0.25273600220680237 0.1639299988746643 -0.35289499163627625
v -0.25536999106407166 0.3385400176048279 -0.34646400809288025
v -0.18446199595928192 0.3391000032424927 -0.3770569860935211
v -0.18192699551582336 0.16149002313613892 -0.38499200344085693
v -0.3714909851551056 0.16755998134613037 -0.19706100225448608
v -0.37143298983573914 0.3248400092124939 -0.1909330040216446
v -0.4119270145893097 0.3125399947166443 -0.0375249981880188
v -0.41339799761772156 0.17778998613357544 -0.025113999843597412
v -0.3682210147380829 0.300790011882782 0.14490599930286407
v -0.4119270145893097 0.3125399947166443 -0.0375249981880188
v -0.41339799761772156 0.17778998613357544 -0.025113999843597412
v -0.374114990234375 0.1976199746131897 0.16259600222110748
v -0.252344012260437 0.2922000288963318 0.25960999727249146
v -0.24668699502944946 0.2283400297164917 0.28733399510383606
v -0.17340399324893951 0.29062002897262573 0.28069400787353516
v -0.16950899362564087 0.23442000150680542 0.3091059923171997
v 0.18725800514221191 0.19971001148223877 0.16247400641441345
v 0.20305299758911133 0.300790011882782 0.14490599930286407
v 0.06203500181436539 0.2922000288963318 0.25960999727249146
v 0.06068100035190582 0.2283400297164917 0.28733399510383606
v 0.2268660068511963 0.1798800230026245 -0.02523599937558174
v 0.24665899574756622 0.3125399947166443 -0.0375249981880188
v 0.22835800051689148 0.3076099753379822 0.039037998765707016
v 0.21024300158023834 0.1881999969482422 0.05354199931025505
v 0.08375199884176254 1.0750199556350708 -0.44304901361465454
v 0.22313499450683594 1.0693989992141724 -0.23541100323200226
v -0.011881999671459198 1.0760799646377563 -0.4858120083808899
v -0.10211200267076492 1.0770800113677979 -0.5255020260810852
v -0.2041500061750412 1.0759299993515015 -0.4798800051212311
v -0.28535598516464233 1.0750199556350708 -0.44304901361465454
v -0.42906200885772705 1.0693999528884888 -0.23541100323200226
v -0.4781630039215088 1.0628199577331543 -0.04417499899864197
v -0.42906200885772705 1.0540399551391602 0.1729629933834076
v -0.28535598516464233 1.0484099388122559 0.31375399231910706
v -0.19333399832248688 1.0473790168762207 0.3396329879760742
v 0.08375199884176254 1.0484089851379395 0.31375399231910706
v 0.22313499450683594 1.0540390014648438 0.1729629933834076
v 0.2516289949417114 1.059128999710083 0.04695399850606918
v 0.2722350060939789 1.062819004058838 -0.04417499899864197
v 0.25108200311660767 1.065659999847412 -0.1265610009431839
v -0.09294000267982483 0.009580016136169434 -0.37786799669265747
v -0.015488999895751476 0.012470006942749023 -0.3427799940109253
v -0.18155699968338013 0.012899994850158691 -0.3375239968299866
v -0.2520819902420044 0.015540003776550293 -0.30489400029182434
v -0.3669869899749756 0.03184002637863159 -0.17511899769306183
v -0.4122610092163086 0.05410999059677124 0.0021589999087154865
v -0.4122610092163086 0.05410999059677124 0.0021589999087154865
v -0.37248000502586365 0.07295000553131104 0.16437000036239624
v -0.25626298785209656 0.08597999811172485 0.24805200099945068
v -0.17441099882125854 0.08897000551223755 0.2891870141029358
v 0.07017099857330322 0.08597999811172485 0.25757500529289246
v 0.18686699867248535 0.07295000553131104 0.16437000036239624
v 0.22633300721645355 0.054090023040771484 -0.01228800043463707
v 0.20876100659370422 0.06189000606536865 0.07469400018453598
v 0.19043299555778503 0.04514998197555542 -0.12482400238513947
v 0.15332399308681488 0.03416001796722412 -0.2516320049762726
v 0.06659799814224243 0.015540003776550293 -0.30489400029182434
v -0.09985099732875824 0.5934799909591675 -0.45155200362205505
v -0.013491000048816204 0.5920100212097168 -0.41677001118659973
v -0.27463498711586 0.5904499888420105 -0.37920698523521423
v -0.19717800617218018 0.591789960861206 -0.41155898571014404
v -0.40204301476478577 0.5770800113677979 -0.20525899529457092
v -0.44766899943351746 0.563289999961853 -0.03859100118279457
v -0.40041399002075195 0.5471999645233154 0.15187500417232513
v -0.44766899943351746 0.563289999961853 -0.03859100118279457
v -0.27309900522232056 0.5363500118255615 0.2760080099105835
v -0.18604299426078796 0.5343599915504456 0.2988249957561493
v 0.22294500470161438 0.5471999645233154 0.15187500417232513
v 0.07669799774885178 0.5363500118255615 0.2760080099105835
v 0.27014899253845215 0.563289999961853 -0.03859100118279457
v 0.25033798813819885 0.5565400123596191 0.04134399816393852
v 0.20717699825763702 0.5785199999809265 -0.23808999359607697
v 0.25046101212501526 0.5692299604415894 -0.11039300262928009
v 0.07803899794816971 0.5904499888420105 -0.37920698523521423
v 0.1863510012626648 -0.3104979991912842 -0.1228640004992485
v 0.17364899814128876 -0.31459200382232666 -0.21484999358654022
v 0.07445699721574783 -0.3160250186920166 -0.2574549913406372
v -0.09706100076436996 -0.3184089660644531 -0.33232200145721436
v -0.015468999743461609 -0.31722402572631836 -0.2929849922657013
v -0.18967300653457642 -0.3170369863510132 -0.2877419888973236
v -0.26337701082229614 -0.31594598293304443 -0.25624901056289673
v -0.387035995721817 -0.3101780414581299 -0.13366100192070007
v -0.4341230094432831 -0.30292296409606934 0.035082001239061356
v -0.39041900634765625 -0.2946280241012573 0.18193799257278442
v -0.4341230094432831 -0.30292296409606934 0.035082001239061356
v -0.2672030031681061 -0.2875269651412964 0.2841379940509796
v -0.18178200721740723 -0.286221981048584 0.3355790078639984
v 0.07290299981832504 -0.2875269651412964 0.2888590097427368
v 0.19957299530506134 -0.2946840524673462 0.18109099566936493
v 0.22732600569725037 -0.2996840476989746 0.09945400059223175
v 0.2484789937734604 -0.3030879497528076 0.01844700053334236
v -0.10173700004816055 1.3261289596557617 -0.05019700154662132
v -0.047986000776290894 1.276859998703003 0.22068099677562714
v -0.02056499943137169 1.2023500204086304 0.3139280080795288
v -0.008379999548196793 1.0473099946975708 0.3414979875087738
v -0.014054999686777592 0.5342199802398682 0.3004690110683441
v -0.02258799970149994 0.29050999879837036 0.2822130024433136
v -0.022057000547647476 0.23486000299453735 0.3106740117073059
v -0.017821000888943672 0.08919000625610352 0.2909049987792969
v -0.018623000010848045 -0.28612804412841797 0.3372980058193207
v -0.017037000507116318 -0.40925395488739014 0.3529370129108429
v -0.017402000725269318 -0.6161249876022339 0.38416099548339844
v -0.18358199298381805 -0.4425499439239502 0.3521769940853119
v -0.19089800119400024 -0.613927960395813 0.3910439908504486
v 0.07488600164651871 -0.7280299663543701 0.3752540051937103
v -0.10183600336313248 -0.7446039915084839 -0.010528000071644783
v 0.22328400611877441 -0.7316230535507202 0.19686999917030334
v -0.019151000306010246 -0.7261689901351929 0.42172500491142273
v -0.4001089930534363 -0.7312630414962769 0.20233699679374695
v -0.273824006319046 -0.7275630235671997 0.3696169853210449
v -0.44155099987983704 -0.732848048210144 0.02631700038909912
v -0.3941250145435333 -0.7353780269622803 -0.18960300087928772
v -0.2671540081501007 -0.720352053642273 -0.3517790138721466
v -0.1930689960718155 -0.7117669582366943 -0.38606199622154236
v -0.013415000401437283 -0.7097330093383789 -0.3929139971733093
v -0.09992700070142746 -0.6879990100860596 -0.4359450042247772
v 0.23031499981880188 -0.7359600067138672 -0.19844700396060944
v 0.083965003490448 -0.7206120491027832 -0.3557260036468506
v 0.27890801429748535 -0.7334400415420532 0.017316000536084175
v 0.27549898624420166 -0.7338000535964966 -0.06327000260353088
v 0.25874999165534973 -0.7337239980697632 0.09150800108909607
v -0.1863269954919815 -0.7261810302734375 0.41964200139045715
v 0.08794700354337692 -0.4243379831314087 -0.27496200799942017
v -0.009483999572694302 -0.42339396476745605 -0.3094710111618042
v -0.09818100184202194 -0.42056000232696533 -0.34721699357032776
v 0.25182899832725525 -0.42256104946136475 0.09674400091171265
v 0.2740660011768341 -0.4229559898376465 0.027855999767780304
v 0.22525599598884583 -0.4156299829483032 -0.08181200176477432
v 0.20059099793434143 -0.40796399116516113 -0.18750299513339996
v -0.10376100242137909 0.842989981174469 -0.4876610040664673
v -0.012796999886631966 0.8406699895858765 -0.4509829878807068
v -0.20476600527763367 0.8403300046920776 -0.44549301266670227
v -0.2851490080356598 0.8382099866867065 -0.41141098737716675
v -0.4179359972476959 0.8251699805259705 -0.21935099363327026
v -0.4665389955043793 0.8099200129508972 -0.039639998227357864
v -0.4179359972476959 0.7895500063896179 0.15873000025749207
v -0.4665389955043793 0.8099200129508972 -0.039639998227357864
v -0.2851490080356598 0.7764999866485596 0.292136013507843
v -0.19405899941921234 0.7741000056266785 0.31665799021720886
v -0.009050999768078327 0.773930013179779 0.3184249997138977
v 0.08361300081014633 0.7764999866485596 0.292136013507843
v 0.22836700081825256 0.7895500063896179 0.15873000025749207
v 0.27696898579597473 0.8099200129508972 -0.039639998227357864
v 0.25657200813293457 0.8013700246810913 0.04361199960112572
v 0.22205999493598938 0.8254200220108032 -0.2321929931640625
v 0.25603100657463074 0.8164899945259094 -0.11706099659204483
v 0.08361300081014633 0.8382099866867065 -0.41141098737716675
v -0.42906200885772705 1.0693999528884888 -0.23541100323200226
v -0.28535598516464233 1.0750199556350708 -0.44304901361465454
v -0.2041500061750412 1.0759299993515015 -0.4798800051212311
v -0.10211200267076492 1.0770800113677979 -0.5255020260810852
v -0.011881999671459198 1.0760799646377563 -0.4858120083808899
v 0.08375199884176254 1.0750199556350708 -0.44304901361465454
v 0.22313499450683594 1.0693989992141724 -0.23541100323200226
v 0.25108200311660767 1.065659999847412 -0.1265610009431839
v 0.2722350060939789 1.062819004058838 -0.04417499899864197
v 0.2516289949417114 1.059128999710083 0.04695399850606918
v 0.22313499450683594 1.0540390014648438 0.1729629933834076
v 0.08375199884176254 1.0484089851379395 0.31375399231910706
v -0.008379999548196793 1.0473099946975708 0.3414979875087738
v -0.19333399832248688 1.0473790168762207 0.3396329879760742
v -0.28535598516464233 1.0484099388122559 0.31375399231910706
v -0.42906200885772705 1.0540399551391602 0.1729629933834076
v -0.4781630039215088 1.0628199577331543 -0.04417499899864197
v -0.4781630039215088 1.0628199577331543 -0.04417499899864197
v 0.2484789937734604 -0.3030879497528076 0.01844700053334236
v 0.2740660011768341 -0.4229559898376465 0.027855999767780304
v 0.22633300721645355 0.054090023040771484 -0.01228800043463707
v 0.2268660068511963 0.1798800230026245 -0.02523599937558174
v 0.24665899574756622 0.3125399947166443 -0.0375249981880188
v 0.27014899253845215 0.563289999961853 -0.03859100118279457
v 0.27696898579597473 0.8099200129508972 -0.039639998227357864
v 0.2722350060939789 1.062819004058838 -0.04417499899864197
v -0.3864920139312744 -0.4731559753417969 0.1762789934873581
v -0.41082900762557983 -0.6336339712142944 0.1945990025997162
v -0.2884249985218048 -0.6159960031509399 0.34021899104118347
v -0.26412299275398254 -0.4609290361404419 0.29355499148368835
v -0.4239349961280823 -0.4789290428161621 0.04055900126695633
v -0.46331098675727844 -0.631263017654419 0.030038999393582344
v -0.46331098675727844 -0.631263017654419 0.030038999393582344
v -0.4239349961280823 -0.4789290428161621 0.04055900126695633
v -0.09847299754619598 -0.602295994758606 -0.4001469910144806
v -0.0074789999052882195 -0.6169500350952148 -0.3597069978713989
v -0.013415000401437283 -0.7097330093383789 -0.3929139971733093
v -0.09992700070142746 -0.6879990100860596 -0.4359450042247772
v 0.08813799917697906 -0.629241943359375 -0.3245910108089447
v 0.083965003490448 -0.7206120491027832 -0.3557260036468506
v 0.23008300364017487 -0.6519750356674194 -0.1772419959306717
v 0.23031499981880188 -0.7359600067138672 -0.19844700396060944
v 0.27549898624420166 -0.7338000535964966 -0.06327000260353088
v 0.2712239921092987 -0.652292013168335 -0.05924199894070625
v 0.27871501445770264 -0.6530330181121826 0.01958400011062622
v 0.27890801429748535 -0.7334400415420532 0.017316000536084175
v 0.25874999165534973 -0.7337239980697632 0.09150800108909607
v 0.27890801429748535 -0.7334400415420532 0.017316000536084175
v 0.27871501445770264 -0.6530330181121826 0.01958400011062622
v 0.2581210136413574 -0.6395289897918701 0.09228000044822693
v 0.22328400611877441 -0.7316230535507202 0.19686999917030334
v 0.07488600164651871 -0.7280299663543701 0.3752540051937103
v -0.019151000306010246 -0.7261689901351929 0.42172500491142273
v -0.1863269954919815 -0.7261810302734375 0.41964200139045715
v -0.273824006319046 -0.7275630235671997 0.3696169853210449
v -0.4001089930534363 -0.7312630414962769 0.20233699679374695
v -0.44155099987983704 -0.732848048210144 0.02631700038909912
v -0.44155099987983704 -0.732848048210144 0.02631700038909912
v -0.3941250145435333 -0.7353780269622803 -0.18960300087928772
v -0.2671540081501007 -0.720352053642273 -0.3517790138721466
v -0.1930689960718155 -0.7117669582366943 -0.38606199622154236
v 0.06339199841022491 -0.9522860050201416 0.42888298630714417
v 0.18586799502372742 -0.9522860050201416 0.2817640006542206
v 0.1737689971923828 -0.8234800100326538 0.27320098876953125
v 0.056400999426841736 -0.7748479843139648 0.39135199785232544
v -0.09713099896907806 -0.9522860050201416 0.46145400404930115
v -0.09828799962997437 -0.7586820125579834 0.41282299160957336
v -0.25450700521469116 -0.9522860050201416 0.41606900095939636
v -0.09713099896907806 -0.9522860050201416 0.46145400404930115
v -0.09828799962997437 -0.7586820125579834 0.41282299160957336
v -0.2507449984550476 -0.7748479843139648 0.37897101044654846
v -0.3582240045070648 -0.8234800100326538 0.25175800919532776
v -0.36474698781967163 -0.9522860050201416 0.25957000255584717
v -0.39280200004577637 -0.854794979095459 0.0870710015296936
v -0.40048301219940186 -0.9522860050201416 0.08783499896526337
v -0.38285401463508606 -0.9494609832763672 0.02518800087273121
v -0.3757359981536865 -0.8577539920806885 0.02572700008749962
v -0.20219500362873077 -0.8882479667663574 -0.7769790291786194
v -0.20617499947547913 -0.9536919593811035 -0.7830250263214111
v -0.28439000248908997 -0.955670952796936 -0.68756502866745
v -0.2761929929256439 -0.8989629745483398 -0.6737480163574219
v -0.12816399335861206 -0.9532740116119385 -0.8117409944534302
v -0.12711599469184875 -0.8825949430465698 -0.8070939779281616
v 0.025679999962449074 -0.8875759840011597 -0.7864189743995667
v 0.03083699941635132 -0.9536420106887817 -0.7908449769020081
v -0.045611001551151276 -0.952826976776123 -0.8167279958724976
v -0.04770300164818764 -0.88053297996521 -0.8135809898376465
v 0.16850599646568298 -0.9172790050506592 -0.623196005821228
v 0.18172599375247955 -0.9570239782333374 -0.6363980174064636
v 0.1104239970445633 -0.9545019865036011 -0.7379779815673828
v 0.1020359992980957 -0.8992160558700562 -0.732204020023346
v 0.23819899559020996 -0.9523639678955078 0.04738299921154976
v 0.24337999522686005 -0.9537479877471924 -0.07169199734926224
v 0.2225389927625656 -0.8604609966278076 -0.06142299994826317
v 0.22190800309181213 -0.8615529537200928 0.046820998191833496
v 0.23531000316143036 -0.9522860050201416 0.11346200108528137
v 0.22148999571800232 -0.854794979095459 0.11183200031518936
v 0.06403899937868118 -1.0 0.42885100841522217
v -0.07881700247526169 -0.9999929666519165 0.03206799924373627
v 0.1862660050392151 -1.0 0.28143298625946045
v -0.09610400348901749 -1.0 0.4609459936618805
v -0.2531430125236511 -1.0 0.4160659909248352
v -0.3631080090999603 -1.0 0.2592889964580536
v -0.39873701333999634 -1.0 0.08723700046539307
v -0.2680000066757202 -1.0 -0.13183799386024475
v -0.17238999903202057 -1.0 -0.15905900299549103
v -0.07097700238227844 -1.0 -0.1624460071325302
v -0.07858400046825409 -0.9581019878387451 0.02628999948501587
v 0.23822399973869324 -0.9999949932098389 0.044929999858140945
v 0.2356259971857071 -1.0 0.11280699819326401
v -0.0743819996714592 -0.6451050043106079 -0.23845599591732025
v -0.13606299459934235 -0.6447639465332031 -0.23605599999427795
v -0.07485400140285492 -0.6455190181732178 -0.22592900693416595
v -0.24303899705410004 -0.6600300073623657 -0.14554600417613983
v -0.2921159863471985 -0.6720750331878662 -0.08925099670886993
v -0.08553300052881241 -0.6763880252838135 0.05454700067639351
v -0.19465400278568268 -0.6490139961242676 -0.208296000957489
v -0.33192598819732666 -0.6804770231246948 0.08599299937486649
v -0.3180229961872101 -0.6789989471435547 0.028761999681591988
v -0.3056879937648773 -0.6729429960250854 0.24746599793434143
v -0.22015699744224548 -0.6643040180206299 0.34505200386047363
v -0.09929200261831284 -0.661512017250061 0.37836000323295593
v 0.02386399917304516 -0.6643040180206299 0.354887992143631
v 0.11696899682283401 -0.6729429960250854 0.26450198888778687
v 0.1561170071363449 -0.6804770231246948 0.10566499829292297
v 0.1552560031414032 -0.679751992225647 0.04504700005054474
v 0.15434600412845612 -0.6742960214614868 -0.07125499844551086
v 0.10058999806642532 -0.6623669862747192 -0.12919700145721436
v 0.043074000626802444 -0.6505190134048462 -0.1987140029668808
v -0.016679000109434128 -0.6453419923782349 -0.23236200213432312
v -0.3857640027999878 -1.0 -0.26893898844718933
v -0.2896580100059509 -1.0 -0.37038499116897583
v -0.3484629988670349 -1.0 -0.10404899716377258
v -0.35544198751449585 -0.8014930486679077 -0.26368701457977295
v -0.2921159863471985 -0.6720750331878662 -0.08925099670886993
v -0.24303899705410004 -0.6600300073623657 -0.14554600417613983
v -0.305184006690979 -0.7851320505142212 -0.33462101221084595
v -0.36664798855781555 -0.8434449434280396 -0.26406100392341614
v -0.38799598813056946 -0.9543299674987793 -0.26047199964523315
v -0.3504300117492676 -0.952394962310791 -0.09562599658966064
v -0.34467899799346924 -0.8421449661254883 -0.08428599685430527
v -0.17849600315093994 -1.0 -0.4089120030403137
v -0.2367130070924759 -0.7746750116348267 -0.41286998987197876
v -0.19465400278568268 -0.6490139961242676 -0.208296000957489
v -0.13606299459934235 -0.6447639465332031 -0.23605599999427795
v -0.15040899813175201 -0.7624739408493042 -0.44251900911331177
v -0.06041799858212471 -1.0 -0.4244140088558197
v 0.04918200150132179 -1.0 -0.4016680121421814
v 0.023910000920295715 -1.0 -0.15232500433921814
v -0.0670740008354187 -0.749021053314209 -0.40925899147987366
v -0.0743819996714592 -0.6451050043106079 -0.23845599591732025
v -0.016679000109434128 -0.6453419923782349 -0.23236200213432312
v 0.01933399960398674 -0.7773959636688232 -0.43283599615097046
v 0.25136101245880127 -1.0 -0.24325799942016602
v 0.2430340051651001 -1.0 -0.08020699769258499
v 0.12294500321149826 -1.0 -0.11608000099658966
v 0.16373099386692047 -1.0 -0.35210999846458435
v 0.2505680024623871 -0.9571059942245483 -0.2347330003976822
v 0.2360610067844391 -0.9037829637527466 -0.23976799845695496
v 0.043074000626802444 -0.6505190134048462 -0.1987140029668808
v 0.10058999806642532 -0.6623669862747192 -0.12919700145721436
v 0.17502500116825104 -0.822674036026001 -0.31859999895095825
v 0.10755600035190582 -0.8015509843826294 -0.38575199246406555
v 0.16252699494361877 -0.850417971611023 -0.5153279900550842
v 0.10106600075960159 -0.8295400142669678 -0.5801820158958435
v 0.10755600035190582 -0.8015509843826294 -0.38575199246406555
v 0.17502500116825104 -0.822674036026001 -0.31859999895095825
v 0.23316699266433716 -0.9570549726486206 -0.4792900085449219
v 0.21945999562740326 -0.9177039861679077 -0.4729959964752197
v 0.23367899656295776 -1.0 -0.4818339943885803
v 0.1309940069913864 -1.0 -0.5911679863929749
v -0.05059399828314781 -1.0 -0.6681489944458008
v 0.038290999829769135 -1.0 -0.6431270241737366
v -0.34697601199150085 -1.0 -0.5539759993553162
v -0.2369139939546585 -1.0 -0.6276800036430359
v -0.3356960117816925 -0.8834689855575562 -0.5424799919128418
v -0.3488759994506836 -0.9551630020141602 -0.5497030019760132
v -0.305184006690979 -0.7851320505142212 -0.33462101221084595
v -0.27824100852012634 -0.8243130445480347 -0.5754889845848083
v -0.33058100938796997 -0.8445990085601807 -0.529030978679657
v -0.35544198751449585 -0.8014930486679077 -0.26368701457977295
v 0.01933399960398674 -0.7773959636688232 -0.43283599615097046
v 0.02106500044465065 -0.8068670034408569 -0.6358749866485596
v -0.05577300116419792 -0.7934199571609497 -0.6644390225410461
v -0.0670740008354187 -0.749021053314209 -0.40925899147987366
v -0.2201250046491623 -0.8104939460754395 -0.6270740032196045
v -0.2367130070924759 -0.7746750116348267 -0.41286998987197876
v -0.15040899813175201 -0.7624739408493042 -0.44251900911331177
v -0.14028699696063995 -0.7959059476852417 -0.6575570106506348
v -0.14646999537944794 -1.0 -0.6596620082855225
v 0.2135390043258667 -0.8790069818496704 -0.46149998903274536
v 0.23010499775409698 -0.843284010887146 -0.24008500576019287
v 0.09776300191879272 -0.8376929759979248 -0.7150020003318787
v 0.16260699927806854 -0.8635499477386475 -0.6044960021972656
v -0.04985300078988075 -0.803333044052124 -0.7959660291671753
v 0.02249700017273426 -0.8159229755401611 -0.7690050005912781
v -0.2022860050201416 -0.8234219551086426 -0.7573950290679932
v -0.12820099294185638 -0.807379961013794 -0.7884600162506104
v -0.27479198575019836 -0.8366529941558838 -0.6523259878158569
v -0.33192598819732666 -0.6804770231246948 0.08599299937486649
v -0.3180229961872101 -0.6789989471435547 0.028761999681591988
v -0.3056879937648773 -0.6729429960250854 0.24746599793434143
v -0.22015699744224548 -0.6643040180206299 0.34505200386047363
v -0.09929200261831284 -0.661512017250061 0.37836000323295593
v 0.02386399917304516 -0.6643040180206299 0.354887992143631
v -0.09929200261831284 -0.661512017250061 0.37836000323295593
v 0.11696899682283401 -0.6729429960250854 0.26450198888778687
v 0.1561170071363449 -0.6804770231246948 0.10566499829292297
v 0.15434600412845612 -0.6742960214614868 -0.07125499844551086
v 0.1552560031414032 -0.679751992225647 0.04504700005054474
v 0.2225389927625656 -0.8604609966278076 -0.06142299994826317
v 0.23010499775409698 -0.843284010887146 -0.24008500576019287
v 0.15434600412845612 -0.6742960214614868 -0.07125499844551086
v -0.04460199922323227 -1.0 -0.8167920112609863
v 0.03164900094270706 -1.0 -0.7903820276260376
v 0.18206599354743958 -1.0 -0.6352959871292114
v 0.11102999746799469 -1.0 -0.7369589805603027
v 0.25136101245880127 -1.0 -0.24325799942016602
v 0.23367899656295776 -1.0 -0.4818339943885803
v 0.2430340051651001 -1.0 -0.08020699769258499
v 0.23839400708675385 -0.9581010341644287 0.039066001772880554
v 0.23822399973869324 -0.9999949932098389 0.044929999858140945
v 0.1862660050392151 -1.0 0.28143298625946045
v 0.2356259971857071 -1.0 0.11280699819326401
v 0.06403899937868118 -1.0 0.42885100841522217
v -0.09610400348901749 -1.0 0.4609459936618805
v -0.2531430125236511 -1.0 0.4160659909248352
v -0.09610400348901749 -1.0 0.4609459936618805
v -0.3631080090999603 -1.0 0.2592889964580536
v -0.39873701333999634 -1.0 0.08723700046539307
v -0.380948007106781 -1.000006914138794 0.01979600079357624
v -0.3857640027999878 -1.0 -0.26893898844718933
v -0.3484629988670349 -1.0 -0.10404899716377258
v -0.34697601199150085 -1.0 -0.5539759993553162
v -0.2047480046749115 -1.0 -0.7845919728279114
v -0.282694011926651 -1.0 -0.6892799735069275
v -0.12693899869918823 -1.0 -0.8125820159912109
v -0.34467899799346924 -0.8421449661254883 -0.08428599685430527
v -0.375232994556427 -0.9581149816513062 0.01433200016617775
v 0.23839400708675385 -0.9581010341644287 0.039066001772880554
v -0.2921159863471985 -0.6720750331878662 -0.08925099670886993
v -0.380948007106781 -1.000006914138794 0.01979600079357624
v -0.375232994556427 -0.9581149816513062 0.01433200016617775
v -0.07858400046825409 -0.9581019878387451 0.02628999948501587
v -0.07881700247526169 -0.9999929666519165 0.03206799924373627
v -0.380948007106781 -1.000006914138794 0.01979600079357624
v 0.23839400708675385 -0.9581010341644287 0.039066001772880554
v 0.23822399973869324 -0.9999949932098389 0.044929999858140945
v -0.375232994556427 -0.9581149816513062 0.01433200016617775
v 0.18206599354743958 -1.0 -0.6352959871292114
v 0.11102999746799469 -1.0 -0.7369589805603027
v 0.03164900094270706 -1.0 -0.7903820276260376
v -0.04460199922323227 -1.0 -0.8167920112609863
v -0.12693899869918823 -1.0 -0.8125820159912109
v -0.2047480046749115 -1.0 -0.7845919728279114
v -0.282694011926651 -1.0 -0.6892799735069275

vn 0.8405219912528992 0.05412200093269348 0.5390669703483582
vn 0.8274329900741577 0.08301199972629547 0.5553939938545227
vn 0.5695549845695496 0.11326300352811813 0.8141120076179504
vn 0.6042360067367554 0.1720139980316162 0.778016984462738
vn -0.8903080224990845 0.08570600301027298 -0.44721999764442444
vn -0.8866959810256958 0.14495499432086945 -0.43904298543930054
vn -0.6104469895362854 0.19372700154781342 -0.7680000066757202
vn -0.6320070028305054 0.20516499876976013 -0.747310996055603
vn -0.40900900959968567 0.20615600049495697 -0.8889380097389221
vn -0.4542739987373352 0.26432299613952637 -0.8507459759712219
vn 0.7412940263748169 0.5401470065116882 0.39840298891067505
vn 0.40938600897789 0.8898100256919861 0.2015949934720993
vn 0.22718699276447296 0.9033629894256592 0.36375999450683594
vn 0.45972099900245667 0.5117549896240234 0.7257850170135498
vn -0.1286119967699051 0.5048729777336121 0.8535590171813965
vn -0.05043499916791916 0.9360740184783936 0.3481689989566803
vn -0.20981499552726746 0.9044100046157837 0.3715110123157501
vn -0.43190398812294006 0.5108320116996765 0.7433090209960938
vn -0.40029799938201904 0.8898540139198303 0.21891100704669952
vn -0.747061014175415 0.5152119994163513 0.4200670123100281
vn -0.4570620059967041 0.8893790245056152 -0.009972999803721905
vn -0.8516309857368469 0.5238029956817627 -0.018837999552488327
vn -0.3973270058631897 0.8893579840660095 -0.22621600329875946
vn -0.7640039920806885 0.5328320264816284 -0.36385199427604675
vn -0.2738330066204071 0.9342749714851379 -0.22835299372673035
vn -0.5519350171089172 0.5403879880905151 -0.6350970268249512
vn -0.19047600030899048 0.9437239766120911 -0.2703770101070404
vn -0.35968300700187683 0.5432569980621338 -0.7586179971694946
vn 0.3598330020904541 0.5447649955749512 -0.7574639916419983
vn -0.00019099999917671084 0.5251359939575195 -0.851019024848938
vn -0.0015150000108405948 0.9333500266075134 -0.3589639961719513
vn 0.17638100683689117 0.9464889764785767 -0.2702760100364685
vn 0.2894420027732849 0.9298670291900635 -0.2270909994840622
vn 0.4065600037574768 0.889286994934082 -0.20947100222110748
vn 0.7531909942626953 0.5620980262756348 -0.34168699383735657
vn 0.5638790130615234 0.5420250296592712 -0.6230970025062561
vn 0.4321509897708893 0.8957759737968445 -0.10407599806785583
vn 0.8035690188407898 0.5627359747886658 -0.19392099976539612
vn 0.4624679982662201 0.886588990688324 -0.009170999750494957
vn 0.43585801124572754 0.8958759903907776 0.08622200042009354
vn 0.8085229992866516 0.5642780065536499 0.16697299480438232
vn 0.8299970030784607 0.5575979948043823 -0.013771000318229198
vn 0.8301960229873657 -0.08995600044727325 -0.5501660108566284
vn 0.9453089833259583 -0.11658599972724915 -0.304627001285553
vn 0.9525290131568909 -0.1005920022726059 -0.28734999895095825
vn 0.8583340048789978 -0.04557500034570694 -0.5110629796981812
vn 0.5623390078544617 -0.0530490018427372 -0.825203001499176
vn 0.5611140131950378 -0.08603200316429138 -0.8232560157775879
vn 0.4048289954662323 -0.1152850016951561 -0.9070960283279419
vn -0.0017509999452158809 -0.12291000038385391 -0.9924160242080688
vn -0.000750000006519258 -0.0515890009701252 -0.9986680150032043
vn 0.39184901118278503 -0.043368998914957047 -0.9190070033073425
vn -0.6081240177154541 -0.11133699864149094 -0.7859950065612793
vn -0.6194390058517456 -0.06313399970531464 -0.7825019955635071
vn -0.39337700605392456 -0.05586099997162819 -0.9176790118217468
vn -0.40980300307273865 -0.12124399840831757 -0.9040799736976624
vn -0.89307701587677 -0.05573299899697304 -0.4464389979839325
vn -0.8975480198860168 -0.05963600054383278 -0.4368650019168854
vn -0.9978049993515015 -0.06339599937200546 -0.01913600042462349
vn -0.999767005443573 0.0002969999914057553 -0.021564999595284462
vn -0.8785009980201721 -0.005140000022947788 0.4777129888534546
vn -0.9978049993515015 -0.06339599937200546 -0.01913600042462349
vn -0.999767005443573 0.0002969999914057553 -0.021564999595284462
vn -0.8588700294494629 0.04885200038552284 0.5098580121994019
vn -0.518343985080719 0.09947799891233444 0.8493670225143433
vn -0.4869920015335083 0.09161800146102905 0.8685879707336426
vn -0.142658993601799 0.18353700637817383 0.9726060032844543
vn -0.13878199458122253 0.1643889993429184 0.9765840172767639
vn 0.8490080237388611 -0.01567400060594082 0.5281479954719543
vn 0.8589059710502625 -0.07262100279331207 0.5069590210914612
vn 0.48916301131248474 0.10696200281381607 0.8656089901924133
vn 0.4866040050983429 0.11822099983692169 0.86558598279953
vn 0.9970390200614929 -0.0762379989027977 -0.010034999810159206
vn 0.9928619861602783 -0.11708100140094757 -0.02274000085890293
vn 0.9688590168952942 -0.10395699739456177 0.22473199665546417
vn 0.97536301612854 -0.05187400057911873 0.21442100405693054
vn 0.6461979746818542 0.059192001819610596 -0.7608709931373596
vn 0.9030399918556213 0.14440800249576569 -0.404556006193161
vn 0.4092620015144348 0.013093000277876854 -0.912322998046875
vn -0.002440999960526824 0.0007539999787695706 -0.9999970197677612
vn -0.41366899013519287 0.015905000269412994 -0.9102879762649536
vn -0.6382910013198853 0.049222998321056366 -0.7682200074195862
vn -0.9081000089645386 0.08495999872684479 -0.41004300117492676
vn -0.9943469762802124 0.10519099980592728 -0.014460000209510326
vn -0.8669509887695312 0.08906300365924835 0.4903720021247864
vn -0.5009179711341858 0.06989599764347076 0.862667977809906
vn -0.14319999516010284 0.0518449991941452 0.9883350133895874
vn 0.5177739858627319 0.07977300137281418 0.8517900109291077
vn 0.8622260093688965 0.14232699573040009 0.4861159920692444
vn 0.9596430063247681 0.17605899274349213 0.21929000318050385
vn 0.983618974685669 0.18012599647045135 -0.006951000075787306
vn 0.9557330012321472 0.16721199452877045 -0.24210500717163086
vn 0.000299000006634742 -0.22490200400352478 -0.9743810296058655
vn 0.4130159914493561 -0.20887799561023712 -0.886447012424469
vn -0.4150390028953552 -0.20226100087165833 -0.8870360255241394
vn -0.6074349880218506 -0.16466300189495087 -0.7771160006523132
vn -0.882673978805542 -0.060148000717163086 -0.46612200140953064
vn -0.9998930096626282 0.014600999653339386 -0.0004769999941345304
vn -0.9998930096626282 0.014600999653339386 -0.0004769999941345304
vn -0.832381010055542 0.03782299906015396 0.5529119968414307
vn -0.5430120229721069 -0.025947999209165573 0.8393239974975586
vn -0.22706599533557892 -0.026934999972581863 0.9735069870948792
vn 0.5177080035209656 -0.01829100027680397 0.8553619980812073
vn 0.8476189970970154 0.036077000200748444 0.5293769836425781
vn 0.9988030195236206 0.015646999701857567 -0.04634299874305725
vn 0.9752439856529236 0.0402350015938282 0.21744200587272644
vn 0.9524270296096802 -0.02760699950158596 -0.3035149872303009
vn 0.8163949847221375 -0.06536400318145752 -0.5737820267677307
vn 0.47270798683166504 -0.18490000069141388 -0.8616030216217041
vn -0.003628999926149845 -0.1429460048675537 -0.9897239804267883
vn 0.37242698669433594 -0.1288830041885376 -0.9190689921379089
vn -0.6144840121269226 -0.13311399519443512 -0.7776179909706116
vn -0.3783529996871948 -0.1398019939661026 -0.9150429964065552
vn -0.892412006855011 -0.10773999989032745 -0.4381699860095978
vn -0.9939770102500916 -0.10776600241661072 -0.019891999661922455
vn -0.868582010269165 -0.1043429970741272 0.4844360053539276
vn -0.9939770102500916 -0.10776600241661072 -0.019891999661922455
vn -0.4962579905986786 -0.09296999871730804 0.8631830215454102
vn -0.1339689940214157 -0.07953199744224548 0.9877889752388
vn 0.8545699715614319 -0.06443099677562714 0.5153250098228455
vn 0.4665830135345459 -0.07846900075674057 0.8809900283813477
vn 0.9980649948120117 -0.05990799888968468 -0.01668200083076954
vn 0.9702640175819397 -0.05806399881839752 0.23498199880123138
vn 0.854610025882721 -0.06867799907922745 -0.5147089958190918
vn 0.9526619911193848 -0.060690999031066895 -0.2979130148887634
vn 0.5769580006599426 -0.11360800266265869 -0.8088340163230896
vn 0.954367995262146 0.11712399870157242 -0.27470698952674866
vn 0.7988399863243103 0.05538899824023247 -0.5989890098571777
vn 0.37698599696159363 0.03183799982070923 -0.9256719946861267
vn -0.005129000172019005 0.008143999613821507 -0.9999539852142334
vn 0.4024380147457123 0.016465000808238983 -0.9152989983558655
vn -0.41319000720977783 0.008132999762892723 -0.9106090068817139
vn -0.5888649821281433 0.0020210000220686197 -0.8082290291786194
vn -0.8700820207595825 -0.03146500140428543 -0.4919019937515259
vn -0.9999269843101501 0.0045739999040961266 0.01119299978017807
vn -0.8402699828147888 0.029485000297427177 0.5413659811019897
vn -0.9999269843101501 0.0045739999040961266 0.01119299978017807
vn -0.5804190039634705 0.07298199832439423 0.811040997505188
vn -0.2742469906806946 0.11598499864339828 0.9546390175819397
vn 0.5551310181617737 0.10549599677324295 0.8250460028648376
vn 0.8236290216445923 0.09976399689912796 0.5582849979400635
vn 0.9512100219726562 0.12399999797344208 0.2825309932231903
vn 0.9901599884033203 0.11972499638795853 -0.0724560022354126
vn 0.005330999847501516 0.9999859929084778 -0.0001340000017080456
vn 0.04447200149297714 0.9362589716911316 0.34848299622535706
vn 0.12889200448989868 0.5050960183143616 0.8533840179443359
vn 0.14378300309181213 0.05182899907231331 0.9882509708404541
vn 0.12739300727844238 -0.07751300185918808 0.9888190031051636
vn 0.13050499558448792 0.1924159973859787 0.9725970029830933
vn 0.13149400055408478 0.17128999531269073 0.9764059782028198
vn 0.17544099688529968 -0.022582000121474266 0.9842309951782227
vn 0.2318429946899414 0.124440997838974 0.9647610187530518
vn 0.21933500468730927 0.13353200256824493 0.9664689898490906
vn 0.22896499931812286 0.232356995344162 0.9452959895133972
vn -0.31510600447654724 0.14223900437355042 0.9383370280265808
vn -0.23895199596881866 0.2402929961681366 0.9408299922943115
vn 0.007977999746799469 -0.9991970062255859 0.03927300125360489
vn -0.0018560000462457538 -0.9998639822006226 -0.01640399917960167
vn 0.019138000905513763 -0.9994770288467407 0.026076000183820724
vn 0.0003349999897181988 -0.9990940093994141 0.042546000331640244
vn -0.02485400065779686 -0.9993039965629578 0.027804000303149223
vn -0.0121069997549057 -0.9991539716720581 0.03931200131773949
vn -0.03339900076389313 -0.9993820190429688 0.01093200035393238
vn -0.0064929998479783535 -0.9991430044174194 -0.04087899997830391
vn 0.046355001628398895 -0.9945729970932007 -0.09313900023698807
vn 0.1319659948348999 -0.9841910004615784 -0.1181190013885498
vn -0.13191400468349457 -0.983942985534668 -0.1202320009469986
vn -0.0033420000690966845 -0.9912559986114502 -0.13190899789333344
vn 0.005690000019967556 -0.9993109703063965 -0.0366859994828701
vn -0.046567998826503754 -0.9944649934768677 -0.09418199956417084
vn 0.024228999391198158 -0.99965500831604 0.01011900044977665
vn 0.039400000125169754 -0.9992200136184692 0.0027970001101493835
vn -0.34224599599838257 -0.9346349835395813 -0.09656599909067154
vn -0.003932999912649393 -0.9991090297698975 0.042017001658678055
vn 0.44725099205970764 0.17447000741958618 -0.8772270083427429
vn 0.36872899532318115 0.19640900194644928 -0.9085500240325928
vn -0.02258099988102913 0.20622700452804565 -0.9782440066337585
vn 0.9408529996871948 0.10571800172328949 0.3218989968299866
vn 0.9904980063438416 0.1359490007162094 -0.020773999392986298
vn 0.9313809871673584 0.16717100143432617 -0.32339298725128174
vn 0.8650540113449097 0.13393299281597137 -0.48346999287605286
vn -0.008400999940931797 -0.14641700685024261 -0.9891870021820068
vn 0.37290000915527344 -0.12956500053405762 -0.9187809824943542
vn -0.3825890123844147 -0.13276800513267517 -0.9143289923667908
vn -0.6270220279693604 -0.11441099643707275 -0.7705540060997009
vn -0.9020429849624634 -0.07673700153827667 -0.4247699975967407
vn -0.997825026512146 -0.06328999996185303 -0.018439000472426414
vn -0.8731269836425781 -0.06765200197696686 0.4827759861946106
vn -0.997825026512146 -0.06328999996185303 -0.018439000472426414
vn -0.5055950284004211 -0.07487600296735764 0.8595160245895386
vn -0.1375720053911209 -0.07988499850034714 0.9872649908065796
vn 0.13449500501155853 -0.0781790018081665 0.9878259897232056
vn 0.4919390082359314 -0.06092200055718422 0.8684960007667542
vn 0.8636879920959473 -0.021793000400066376 0.5035549998283386
vn 0.9999030232429504 -0.0060720001347362995 -0.01256600022315979
vn 0.9717119932174683 -0.007180000189691782 0.2360610067844391
vn 0.8878849744796753 -0.031932998448610306 -0.4589560031890869
vn 0.9612299799919128 -0.013156999833881855 -0.2754330039024353
vn 0.609965980052948 -0.1001330018043518 -0.786076009273529
vn -0.9081000089645386 0.08495999872684479 -0.41004300117492676
vn -0.6382910013198853 0.049222998321056366 -0.7682200074195862
vn -0.41366899013519287 0.015905000269412994 -0.9102879762649536
vn -0.002440999960526824 0.0007539999787695706 -0.9999970197677612
vn 0.4092620015144348 0.013093000277876854 -0.912322998046875
vn 0.6461979746818542 0.059192001819610596 -0.7608709931373596
vn 0.9030399918556213 0.14440800249576569 -0.404556006193161
vn 0.9557330012321472 0.16721199452877045 -0.24210500717163086
vn 0.983618974685669 0.18012599647045135 -0.006951000075787306
vn 0.9596430063247681 0.17605899274349213 0.21929000318050385
vn 0.8622260093688965 0.14232699573040009 0.4861159920692444
vn 0.5177739858627319 0.07977300137281418 0.8517900109291077
vn 0.14378300309181213 0.05182899907231331 0.9882509708404541
vn -0.14319999516010284 0.0518449991941452 0.9883350133895874
vn -0.5009179711341858 0.06989599764347076 0.862667977809906
vn -0.8669509887695312 0.08906300365924835 0.4903720021247864
vn -0.9943469762802124 0.10519099980592728 -0.014460000209510326
vn -0.9943469762802124 0.10519099980592728 -0.014460000209510326
vn 0.9901599884033203 0.11972499638795853 -0.0724560022354126
vn 0.9904980063438416 0.1359490007162094 -0.020773999392986298
vn 0.9988030195236206 0.015646999701857567 -0.04634299874305725
vn 0.9970390200614929 -0.0762379989027977 -0.010034999810159206
vn 0.9928619861602783 -0.11708100140094757 -0.02274000085890293
vn 0.9980649948120117 -0.05990799888968468 -0.01668200083076954
vn 0.9999030232429504 -0.0060720001347362995 -0.01256600022315979
vn 0.983618974685669 0.18012599647045135 -0.006951000075787306
vn -0.8667700290679932 0.09100999683141708 0.4903329908847809
vn -0.8878999948501587 0.05048700049519539 0.4572570025920868
vn -0.6284899711608887 0.19276699423789978 0.7535520195960999
vn -0.6284340023994446 0.1508769989013672 0.7630910277366638
vn -0.9954439997673035 0.09423600137233734 0.014500999823212624
vn -0.9994230270385742 0.023019999265670776 0.024984000250697136
vn -0.9994230270385742 0.023019999265670776 0.024984000250697136
vn -0.9954439997673035 0.09423600137233734 0.014500999823212624
vn 0.012152999639511108 0.32621699571609497 -0.9452170133590698
vn 0.39183399081230164 0.2638550102710724 -0.8813890218734741
vn 0.4139289855957031 0.29863598942756653 -0.8599299788475037
vn 0.01119299978017807 0.3573249876499176 -0.933912992477417
vn 0.5484340190887451 0.20697300136089325 -0.8101739883422852
vn 0.5446010231971741 0.25017499923706055 -0.8005130290985107
vn 0.8651720285415649 0.11467800289392471 -0.4881860017776489
vn 0.8401250243186951 0.13825899362564087 -0.5244759917259216
vn 0.9797589778900146 0.06417600065469742 -0.18961699306964874
vn 0.9719060063362122 0.0739779993891716 -0.2234410047531128
vn 0.9960539937019348 0.009523999877274036 0.08823800086975098
vn 0.9953510165214539 0.013086999766528606 0.09541700035333633
vn 0.95620197057724 0.0015180000336840749 0.2927030026912689
vn 0.9953510165214539 0.013086999766528606 0.09541700035333633
vn 0.9960539937019348 0.009523999877274036 0.08823800086975098
vn 0.9502429962158203 0.0159939993172884 0.3111000061035156
vn 0.8525410294532776 0.07101999968290329 0.5178130269050598
vn 0.5811759829521179 0.24788899719715118 0.775102972984314
vn 0.20279300212860107 0.31345099210739136 0.927698016166687
vn -0.22601400315761566 0.2478179931640625 0.9420740008354187
vn -0.6251929998397827 0.13221099972724915 0.7691900134086609
vn -0.8893420100212097 -0.04451800137758255 0.45507100224494934
vn -0.9834449887275696 -0.1805420070886612 0.015500999987125397
vn -0.9834449887275696 -0.1805420070886612 0.015500999987125397
vn -0.8719099760055542 -0.034706998616456985 -0.48843398690223694
vn -0.6162430047988892 0.2411009967327118 -0.7497429847717285
vn -0.4678800106048584 0.23883800208568573 -0.8509089946746826
vn 0.49856600165367126 0.09607300162315369 0.8615120053291321
vn 0.8815190196037292 0.06134000048041344 0.4681459963321686
vn 0.869704008102417 0.23172299563884735 0.4357970058917999
vn 0.4807089865207672 0.29263201355934143 0.8266100287437439
vn -0.04386100172996521 0.11082000285387039 0.9928719997406006
vn -0.0417959988117218 0.29138100147247314 0.9556940197944641
vn -0.5644040107727051 0.08078800141811371 0.8215360045433044
vn -0.04386100172996521 0.11082000285387039 0.9928719997406006
vn -0.0417959988117218 0.29138100147247314 0.9556940197944641
vn -0.5422999858856201 0.27107399702072144 0.7952539920806885
vn -0.9068400263786316 0.19993700087070465 0.3710330128669739
vn -0.9171900153160095 0.019442999735474586 0.39797499775886536
vn -0.9796419739723206 0.1945430040359497 -0.04954199865460396
vn -0.9992730021476746 0.02017899975180626 -0.032336000353097916
vn -0.9503520131111145 -0.010631999932229519 -0.3109950125217438
vn -0.9485390186309814 0.18733300268650055 -0.2553049921989441
vn -0.5924720168113708 0.17437300086021423 -0.7864930033683777
vn -0.5822589993476868 0.05923999845981598 -0.810841977596283
vn -0.8477339744567871 0.10287799686193466 -0.5203499794006348
vn -0.8475409746170044 0.2107349932193756 -0.4870989918708801
vn -0.2125989943742752 0.042295001447200775 -0.9762240052223206
vn -0.23861700296401978 0.15198099613189697 -0.9591469764709473
vn 0.47127699851989746 0.16000300645828247 -0.8673499822616577
vn 0.44865700602531433 0.05392200127243996 -0.8920760154724121
vn 0.13880400359630585 0.03148600086569786 -0.9898189902305603
vn 0.1426820009946823 0.14282900094985962 -0.9794089794158936
vn 0.8652070164680481 0.30472299456596375 -0.3981980085372925
vn 0.8729739785194397 0.20281299948692322 -0.4436019957065582
vn 0.7087050080299377 0.1001259982585907 -0.6983630061149597
vn 0.7209129929542542 0.19661499559879303 -0.6645500063896179
vn 0.9952679872512817 0.09082700312137604 0.034536998718976974
vn 0.9939389824867249 0.10307600349187851 0.03822699934244156
vn 0.9625470042228699 0.2690880000591278 0.03309300169348717
vn 0.9675930142402649 0.2525160014629364 -1.2999999853491317e-05
vn 0.9842309951782227 0.07820100337266922 0.15865999460220337
vn 0.9643790125846863 0.23868300020694733 0.11403200030326843
vn -9.000000318337698e-06 -1.0 -1.4999999621068127e-05
vn 3.000000106112566e-06 -1.0 -6.000000212225132e-06
vn -1.8000000636675395e-05 -1.0 -9.999999747378752e-06
vn 0.0 -1.0 -1.5999999959603883e-05
vn 9.000000318337698e-06 -1.0 -1.4000000192027073e-05
vn 1.8000000636675395e-05 -1.0 -7.999999979801942e-06
vn 2.9000000722589903e-05 -1.0 4.70000013592653e-05
vn 0.014789000153541565 -0.9913769960403442 0.1302029937505722
vn -0.0 -1.0 0.0
vn -0.003848999971523881 -0.9954230189323425 0.095489002764225
vn -0.009610000066459179 -0.9710559844970703 0.23865899443626404
vn -3.999999989900971e-06 -1.0 -7.400000322377309e-05
vn -1.2999999853491317e-05 -1.0 -3.7999998312443495e-05
vn 0.013310999609529972 0.9639739990234375 -0.2656649947166443
vn -0.09319999814033508 0.9667930006980896 -0.23795999586582184
vn 0.002633000025525689 0.9972019791603088 0.07470099627971649
vn -0.343735009431839 0.9340959787368774 -0.09649199992418289
vn -0.5855410099029541 0.8084020018577576 -0.06023399904370308
vn 0.0003389999910723418 0.9995869994163513 0.028730999678373337
vn -0.2891559898853302 0.9413440227508545 -0.17395499348640442
vn -0.638418972492218 0.7686600089073181 -0.03979799896478653
vn -0.5869060158729553 0.8027009963989258 -0.10588700324296951
vn -0.5982630252838135 0.7668579816818237 0.23240099847316742
vn -0.33853399753570557 0.7925090193748474 0.5072720050811768
vn -0.02682800032198429 0.793582022190094 0.6078720092773438
vn 0.2899169921875 0.7980179786682129 0.5283139944076538
vn 0.5683680176734924 0.7758340239524841 0.2739329934120178
vn 0.6075019836425781 0.7924230098724365 0.05484199896454811
vn 0.5799400210380554 0.814490020275116 0.01658800058066845
vn 0.5954959988594055 0.8016690015792847 -0.05207600072026253
vn 0.3591260015964508 0.9240279793739319 -0.13114899396896362
vn 0.3092989921569824 0.9298290014266968 -0.1993820071220398
vn 0.14637799561023712 0.9565770030021667 -0.2520599961280823
vn -0.0 -1.0 0.0
vn -0.0 -1.0 0.0
vn 0.07363899797201157 -0.9742249846458435 0.21322199702262878
vn -0.8619279861450195 0.49686700105667114 -0.10101599991321564
vn -0.5855410099029541 0.8084020018577576 -0.06023399904370308
vn -0.343735009431839 0.9340959787368774 -0.09649199992418289
vn -0.5344240069389343 0.8055099844932556 -0.2560180127620697
vn -0.97781902551651 0.20935499668121338 0.006372000090777874
vn -0.9963939785957336 0.06478700041770935 0.05479099974036217
vn -0.9992979764938354 0.018780000507831573 -0.03242700174450874
vn -0.9799879789352417 0.1882379949092865 -0.06472799926996231
vn -0.0 -1.0 0.0
vn -0.34228700399398804 0.8939650058746338 -0.28925201296806335
vn -0.2891559898853302 0.9413440227508545 -0.17395499348640442
vn -0.09319999814033508 0.9667930006980896 -0.23795999586582184
vn -0.1403370052576065 0.943897008895874 -0.2989389896392822
vn -0.0 -1.0 0.0
vn -0.0 -1.0 0.0
vn -0.0 -1.0 0.0
vn 0.08936700224876404 0.9169319868087769 -0.3889079988002777
vn 0.013310999609529972 0.9639739990234375 -0.2656649947166443
vn 0.14637799561023712 0.9565770030021667 -0.2520599961280823
vn 0.3129270076751709 0.9074770212173462 -0.28029000759124756
vn -0.0 -1.0 0.0
vn -0.05699799954891205 -0.9799709916114807 0.19080699980258942
vn -0.020309999585151672 -0.9910399913787842 0.13201600313186646
vn -0.0 -1.0 0.0
vn 0.9899910092353821 0.14070899784564972 -0.010905999690294266
vn 0.9828420281410217 0.182778000831604 -0.02476399950683117
vn 0.3092989921569824 0.9298290014266968 -0.1993820071220398
vn 0.3591260015964508 0.9240279793739319 -0.13114899396896362
vn 0.581932008266449 0.773281991481781 -0.25177499651908875
vn 0.4571569859981537 0.8459039926528931 -0.2746889889240265
vn 0.514132022857666 0.8471279740333557 -0.13432100415229797
vn 0.39586201310157776 0.9116050004959106 -0.11077400296926498
vn 0.4571569859981537 0.8459039926528931 -0.2746889889240265
vn 0.581932008266449 0.773281991481781 -0.25177499651908875
vn 0.9630550146102905 0.18854199349880219 -0.19229499995708466
vn 0.9401500225067139 0.2785690128803253 -0.19625699520111084
vn -0.0 -1.0 0.0
vn -0.0 -1.0 0.0
vn -0.0 -1.0 0.0
vn -0.0 -1.0 0.0
vn -0.0 -1.0 0.0
vn -0.0 -1.0 0.0
vn -0.9367740154266357 0.2050890028476715 -0.28353598713874817
vn -0.9552990198135376 0.09432999789714813 -0.28018999099731445
vn -0.5344240069389343 0.8055099844932556 -0.2560180127620697
vn -0.42672300338745117 0.8875430226325989 -0.17371100187301636
vn -0.8105660080909729 0.5373330116271973 -0.23292900621891022
vn -0.8619279861450195 0.49686700105667114 -0.10101599991321564
vn 0.3129270076751709 0.9074770212173462 -0.28029000759124756
vn 0.2701300084590912 0.9578729867935181 -0.09751100093126297
vn 0.0825439989566803 0.9905520081520081 -0.10950999706983566
vn 0.08936700224876404 0.9169319868087769 -0.3889079988002777
vn -0.30129799246788025 0.9407359957695007 -0.15567399561405182
vn -0.34228700399398804 0.8939650058746338 -0.28925201296806335
vn -0.1403370052576065 0.943897008895874 -0.2989389896392822
vn -0.13958700001239777 0.9814460277557373 -0.1314540058374405
vn -0.0 -1.0 0.0
vn 0.851622998714447 0.4942609965801239 -0.17448000609874725
vn 0.908053994178772 0.4023370146751404 -0.116457998752594
vn 0.6391410231590271 0.63789302110672 -0.429639995098114
vn 0.7630239725112915 0.5879719853401184 -0.2684819996356964
vn 0.12349399924278259 0.7355530261993408 -0.6661170125007629
vn 0.43815699219703674 0.7001050114631653 -0.5638009905815125
vn -0.5484510064125061 0.63406902551651 -0.5451220273971558
vn -0.23956899344921112 0.7269060015678406 -0.6435949802398682
vn -0.7121109962463379 0.6033279895782471 -0.359017014503479
vn -0.638418972492218 0.7686600089073181 -0.03979799896478653
vn -0.5869060158729553 0.8027009963989258 -0.10588700324296951
vn -0.5982630252838135 0.7668579816818237 0.23240099847316742
vn -0.33853399753570557 0.7925090193748474 0.5072720050811768
vn -0.02682800032198429 0.793582022190094 0.6078720092773438
vn 0.2899169921875 0.7980179786682129 0.5283139944076538
vn -0.02682800032198429 0.793582022190094 0.6078720092773438
vn 0.5683680176734924 0.7758340239524841 0.2739329934120178
vn 0.6075019836425781 0.7924230098724365 0.05484199896454811
vn 0.5954959988594055 0.8016690015792847 -0.05207600072026253
vn 0.5799400210380554 0.814490020275116 0.01658800058066845
vn 0.9625470042228699 0.2690880000591278 0.03309300169348717
vn 0.908053994178772 0.4023370146751404 -0.116457998752594
vn 0.5954959988594055 0.8016690015792847 -0.05207600072026253
vn 0.14091600477695465 0.0023109999019652605 -0.9900190234184265
vn 0.44606301188468933 -0.0029430000577121973 -0.8949970006942749
vn 0.8939189910888672 -0.004422000143676996 -0.44820699095726013
vn 0.7023440003395081 -0.007271999958902597 -0.7118009924888611
vn 0.9996209740638733 0.021045999601483345 -0.017764000222086906
vn 0.9798250198364258 0.020901000127196312 -0.1987600028514862
vn 0.9988980293273926 -0.013327999971807003 0.04499899968504906
vn 0.9992290139198303 -0.016530999913811684 0.03560600057244301
vn 0.9993270039558411 -0.0013640000252053142 0.03665100038051605
vn 0.8834459781646729 0.0038109999150037766 0.4685179889202118
vn 0.9868990182876587 0.0028009999077767134 0.161312997341156
vn 0.5140119791030884 0.00573199987411499 0.8577640056610107
vn -0.036107998341321945 -0.010649999603629112 0.9992910027503967
vn -0.5766950249671936 -0.017328999936580658 0.8167750239372253
vn -0.036107998341321945 -0.010649999603629112 0.9992910027503967
vn -0.9166719913482666 -0.03319400176405907 0.3982590138912201
vn -0.9989569783210754 -0.03083599917590618 -0.033663999289274216
vn -0.9493560194969177 -0.002280999906361103 -0.31419500708580017
vn -0.9983000159263611 -0.053408000618219376 0.02335900068283081
vn -0.997098982334137 -0.051972001791000366 0.0556039996445179
vn -0.9561640024185181 -0.01457700040191412 -0.29246801137924194
vn -0.5731269717216492 0.007763999979943037 -0.8194299936294556
vn -0.8423870205879211 -0.01107100024819374 -0.5387589931488037
vn -0.19735099375247955 0.009701999835669994 -0.9802849888801575
vn -0.9799879789352417 0.1882379949092865 -0.06472799926996231
vn -0.8878870010375977 -0.24097399413585663 -0.39190199971199036
vn -0.04745600000023842 -0.9548760056495667 0.29318898916244507
vn -0.5855410099029541 0.8084020018577576 -0.06023399904370308
vn 4.099999932805076e-05 -1.0 0.00011500000255182385
vn 0.04019499942660332 -0.1348010003566742 -0.9900569915771484
vn 0.039900001138448715 -0.13674500584602356 -0.9898030161857605
vn 0.03992500156164169 -0.13673099875450134 -0.9898030161857605
vn 0.04022099822759628 -0.13462400436401367 -0.9900799989700317
vn 0.04012199863791466 -0.13850699365139008 -0.9895480275154114
vn 0.040143001824617386 -0.1386689990758896 -0.9895250201225281
vn 0.02814299985766411 -0.9552739858627319 0.2943800091743469
vn -0.0 -1.0 0.0
vn -0.0 -1.0 0.0
vn -0.0 -1.0 0.0
vn -0.0 -1.0 0.0
vn -0.0 -1.0 0.0
vn -0.0 -1.0 0.0
vn -0.0 -1.0 0.0

vt 0.17479099333286285 0.4421190023422241
vt 0.1727530062198639 0.4749529957771301
vt 0.14209899306297302 0.4749150276184082
vt 0.14129500091075897 0.4405149817466736
vt 0.2617340087890625 0.4465489983558655
vt 0.2632099986076355 0.47273099422454834
vt 0.2941569983959198 0.4747679829597473
vt 0.29530400037765503 0.44439697265625
vt 0.30821600556373596 0.47617000341415405
vt 0.30910301208496094 0.44680899381637573
vt 0.5201280117034912 0.41185498237609863
vt 0.512474000453949 0.4058290123939514
vt 0.5047860145568848 0.4126899838447571
vt 0.5095340013504028 0.4210219979286194
vt 0.4879220128059387 0.4234769940376282
vt 0.4906480014324188 0.4138929843902588
vt 0.48577699065208435 0.41277098655700684
vt 0.4811689853668213 0.4217529892921448
vt 0.47779300808906555 0.404803991317749
vt 0.46994298696517944 0.41062498092651367
vt 0.47488799691200256 0.39279502630233765
vt 0.4657000005245209 0.39273297786712646
vt 0.4769099950790405 0.3823850154876709
vt 0.46802499890327454 0.37708598375320435
vt 0.4854919910430908 0.37494897842407227
vt 0.48042500019073486 0.3620679974555969
vt 0.4899030029773712 0.3689669966697693
vt 0.4877009987831116 0.3591359853744507
vt 0.5028830170631409 0.3584650158882141
vt 0.4959540069103241 0.35621100664138794
vt 0.4955019950866699 0.3677099943161011
vt 0.5006420016288757 0.3683689832687378
vt 0.5061560273170471 0.3750389814376831
vt 0.5131360292434692 0.3828999996185303
vt 0.5209109783172607 0.37792402505874634
vt 0.5104039907455444 0.36155200004577637
vt 0.5145220160484314 0.3884729743003845
vt 0.523222029209137 0.3871549963951111
vt 0.5153909921646118 0.39282000064849854
vt 0.5143259763717651 0.3983820080757141
vt 0.5230550169944763 0.4015420079231262
vt 0.5240569710731506 0.3937370181083679
vt 0.37968799471855164 0.6061629951000214
vt 0.4029789865016937 0.6031180024147034
vt 0.4006580114364624 0.5796659886837006
vt 0.375560998916626 0.5802009999752045
vt 0.35444900393486023 0.6093569993972778
vt 0.35282599925994873 0.5798240005970001
vt 0.33904701471328735 0.5797860026359558
vt 0.3265730142593384 0.5800740122795105
vt 0.3257020115852356 0.6105029881000519
vt 0.33980798721313477 0.6100560128688812
vt 0.2996320128440857 0.5800620019435883
vt 0.29712700843811035 0.6091139912605286
vt 0.30983099341392517 0.6098060011863708
vt 0.3116089999675751 0.5797249972820282
vt 0.2692379951477051 0.5785099864006042
vt 0.2657040059566498 0.6042799949645996
vt 0.239889994263649 0.6001420021057129
vt 0.24033799767494202 0.5783930122852325
vt 0.05865500122308731 0.5961199998855591
vt 0.027240000665187836 0.5983969867229462
vt 0.028727000579237938 0.5773450136184692
vt 0.060173001140356064 0.5790179967880249
vt 0.0859059989452362 0.5940169990062714
vt 0.0885540023446083 0.582736998796463
vt 0.09936700016260147 0.593396008014679
vt 0.1011589989066124 0.5830639898777008
vt 0.16822199523448944 0.5766670107841492
vt 0.17231999337673187 0.5931999981403351
vt 0.1422560065984726 0.5920610129833221
vt 0.13984200358390808 0.5809049904346466
vt 0.1995909959077835 0.5731169879436493
vt 0.2032269984483719 0.5940879881381989
vt 0.1901410073041916 0.5937890112400055
vt 0.18627199530601501 0.5745129883289337
vt 0.5164059996604919 0.3560659885406494
vt 0.5305669903755188 0.3758140206336975
vt 0.5063980221748352 0.349839985370636
vt 0.4954969882965088 0.34807801246643066
vt 0.48315098881721497 0.35074299573898315
vt 0.4740769863128662 0.35548698902130127
vt 0.4590359926223755 0.375232994556427
vt 0.45529600977897644 0.3944219946861267
vt 0.461560994386673 0.41605502367019653
vt 0.47600099444389343 0.4303010106086731
vt 0.4847550094127655 0.43446701765060425
vt 0.5144810080528259 0.43054598569869995
vt 0.5280249714851379 0.416858971118927
vt 0.5333189964294434 0.4045400023460388
vt 0.5343289971351624 0.3955569863319397
vt 0.5336319804191589 0.387332022190094
vt 0.3266499936580658 0.5532230138778687
vt 0.3406270146369934 0.552933007478714
vt 0.3102799952030182 0.5528649985790253
vt 0.2973560094833374 0.5534250140190125
vt 0.26876300573349 0.5555689930915833
vt 0.23795999586582184 0.5584439933300018
vt 0.03197599947452545 0.5576289892196655
vt 0.059714000672101974 0.55868199467659
vt 0.08365199714899063 0.5593979954719543
vt 0.09873499721288681 0.5589169859886169
vt 0.1428930014371872 0.5574940145015717
vt 0.16762100160121918 0.555662989616394
vt 0.1975329965353012 0.5532299876213074
vt 0.1826930046081543 0.5541119873523712
vt 0.3946940004825592 0.5583339929580688
vt 0.37391600012779236 0.5567879974842072
vt 0.3557739853858948 0.5535680055618286
vt 0.3247300088405609 0.652758002281189
vt 0.3395659923553467 0.6518810093402863
vt 0.29444000124931335 0.650860995054245
vt 0.30792298913002014 0.6515919864177704
vt 0.26025500893592834 0.6453840136528015
vt 0.23363399505615234 0.6398319900035858
vt 0.055984001606702805 0.6371619999408722
vt 0.0261400006711483 0.6390379965305328
vt 0.08472099900245667 0.6349819898605347
vt 0.09915299713611603 0.6342709958553314
vt 0.1755010038614273 0.6336750090122223
vt 0.14449499547481537 0.6332429945468903
vt 0.2065490037202835 0.6344999969005585
vt 0.19414199888706207 0.6341510117053986
vt 0.38571301102638245 0.6470749974250793
vt 0.40717700123786926 0.6439529955387115
vt 0.3554399907588959 0.651187002658844
vt 0.39469000697135925 0.5002979934215546
vt 0.3763140141963959 0.49874502420425415
vt 0.357899010181427 0.4981309771537781
vt 0.3258729875087738 0.4966369867324829
vt 0.34150901436805725 0.4974200129508972
vt 0.3080439865589142 0.49674201011657715
vt 0.2943260073661804 0.49703502655029297
vt 0.2642349898815155 0.49862998723983765
vt 0.23399299383163452 0.5012769997119904
vt 0.05408899858593941 0.49859100580215454
vt 0.028643999248743057 0.5000349879264832
vt 0.08026400208473206 0.49749499559402466
vt 0.09634699672460556 0.49618399143218994
vt 0.1421699970960617 0.4954969882965088
vt 0.1694130003452301 0.49522900581359863
vt 0.18349799513816833 0.49531298875808716
vt 0.19740800559520721 0.4956589937210083
vt 0.49568700790405273 0.3925060033798218
vt 0.4998700022697449 0.4139930009841919
vt 0.5022839903831482 0.4231640100479126
vt 0.5045610070228577 0.4342399835586548
vt 0.1291929930448532 0.6333729922771454
vt 0.12773600220680237 0.5925129950046539
vt 0.12632200121879578 0.582302987575531
vt 0.1272840052843094 0.5579900145530701
vt 0.12528100609779358 0.4953309893608093
vt 0.12482699751853943 0.4748299717903137
vt 0.12366999685764313 0.44036298990249634
vt 0.09512799978256226 0.4699850082397461
vt 0.09426899999380112 0.4409340023994446
vt 0.4676949977874756 0.2995390295982361
vt 0.5000100135803223 0.3151000142097473
vt 0.48298001289367676 0.28731900453567505
vt 0.4636160135269165 0.3073890209197998
vt 0.481471985578537 0.3399159908294678
vt 0.4675860106945038 0.3289629817008972
vt 0.4962410032749176 0.34373098611831665
vt 0.5145480036735535 0.34014397859573364
vt 0.5285459756851196 0.3297730088233948
vt 0.5316420197486877 0.3235819935798645
vt 0.5325490236282349 0.30818402767181396
vt 0.5362399816513062 0.31568199396133423
vt 0.5163580179214478 0.287322998046875
vt 0.5294749736785889 0.29989200830459595
vt 0.4982230067253113 0.28290098905563354
vt 0.505020022392273 0.28331100940704346
vt 0.4919300079345703 0.28449100255966187
vt 0.46351000666618347 0.3215010166168213
vt 0.3594200015068054 0.48087000846862793
vt 0.34188199043273926 0.4807969927787781
vt 0.3257409930229187 0.4800580143928528
vt 0.18731200695037842 0.4753209948539734
vt 0.19912700355052948 0.4760349988937378
vt 0.40132200717926025 0.4843459725379944
vt 0.383419007062912 0.48409801721572876
vt 0.3236309885978699 0.6944339871406555
vt 0.33924299478530884 0.693325012922287
vt 0.30622801184654236 0.692885011434555
vt 0.2923319935798645 0.6917429864406586
vt 0.255389004945755 0.685359001159668
vt 0.2333430051803589 0.6787160038948059
vt 0.05347299948334694 0.6765199899673462
vt 0.02615799941122532 0.6786510050296783
vt 0.08389600366353989 0.6744210124015808
vt 0.09906099736690521 0.6735920011997223
vt 0.13111400604248047 0.6727359890937805
vt 0.14672400057315826 0.6726759970188141
vt 0.1786399930715561 0.6730450093746185
vt 0.20670099556446075 0.674248993396759
vt 0.19795000553131104 0.6737340092658997
vt 0.39170101284980774 0.6870589852333069
vt 0.41075700521469116 0.6838819980621338
vt 0.3558419942855835 0.6922740042209625
vt 0.2513520121574402 0.724694013595581
vt 0.2913390100002289 0.7305159866809845
vt 0.3055190145969391 0.7316119968891144
vt 0.3233020007610321 0.7330859899520874
vt 0.3389649987220764 0.7320820093154907
vt 0.355664998292923 0.7311519980430603
vt 0.3953140079975128 0.72639599442482
vt 0.41319501399993896 0.724058985710144
vt 0.20685699582099915 0.7148660123348236
vt 0.20125499367713928 0.7153559923171997
vt 0.18035799264907837 0.716158002614975
vt 0.148389995098114 0.7175169885158539
vt 0.13277600705623627 0.7180449962615967
vt 0.10032399743795395 0.7188870012760162
vt 0.08483999967575073 0.719305008649826
vt 0.052241001278162 0.7197540104389191
vt 0.02606399916112423 0.7194330096244812
vt 0.23317000269889832 0.7186520099639893
vt 0.4213080108165741 0.5019760131835938
vt 0.42132699489593506 0.4831809997558594
vt 0.42128700017929077 0.5596120059490204
vt 0.4212850034236908 0.5799210071563721
vt 0.42128899693489075 0.601610004901886
vt 0.4213150143623352 0.642084002494812
vt 0.4213370084762573 0.6816659867763519
vt 0.4213539958000183 0.7222320139408112
vt 0.04933600127696991 0.46937400102615356
vt 0.045802999287843704 0.44260597229003906
vt 0.07693299651145935 0.4419569969177246
vt 0.07845000177621841 0.4686959981918335
vt 0.02559800073504448 0.47109198570251465
vt 0.025186000391840935 0.44624102115631104
vt 0.23321999609470367 0.44760602712631226
vt 0.23354500532150269 0.4733240008354187
vt 0.3261060118675232 0.4482960104942322
vt 0.3421179950237274 0.44787299633026123
vt 0.341156005859375 0.43102800846099854
vt 0.32600298523902893 0.4321799874305725
vt 0.3586679995059967 0.4461129903793335
vt 0.35730400681495667 0.42975497245788574
vt 0.39232999086380005 0.4441710114479065
vt 0.39142200350761414 0.4296860098838806
vt 0.4138999879360199 0.43177199363708496
vt 0.4124529957771301 0.44509899616241455
vt 0.4213469922542572 0.44560497999191284
vt 0.4213539958000183 0.4327309727668762
vt 0.19333800673484802 0.4246789813041687
vt 0.20558999478816986 0.42536401748657227
vt 0.20422199368476868 0.43817102909088135
vt 0.19176200032234192 0.4399489760398865
vt 0.1755560040473938 0.42410600185394287
vt 0.1388459950685501 0.4218059778213501
vt 0.12244399636983871 0.4213100075721741
vt 0.09441400319337845 0.4220219850540161
vt 0.07868599891662598 0.42320001125335693
vt 0.04530299827456474 0.4266200065612793
vt 0.025066999718546867 0.4295549988746643
vt 0.23316800594329834 0.4307839870452881
vt 0.26363900303840637 0.4290900230407715
vt 0.29692700505256653 0.4289979934692383
vt 0.3098289966583252 0.43023401498794556
vt 0.6765360236167908 0.5670129954814911
vt 0.7045120000839233 0.5635020136833191
vt 0.6962969899177551 0.5404050052165985
vt 0.6712909936904907 0.5403760075569153
vt 0.6521639823913574 0.5666820108890533
vt 0.6469680070877075 0.540246993303299
vt 0.6245520114898682 0.42310798168182373
vt 0.601170003414154 0.43181997537612915
vt 0.6149539947509766 0.45948100090026855
vt 0.6351240277290344 0.44751399755477905
vt 0.6565719842910767 0.434345006942749
vt 0.6518800258636475 0.41591399908065796
vt 0.6796579957008362 0.4254080057144165
vt 0.6775959730148315 0.41120100021362305
vt 0.6877580285072327 0.4105769991874695
vt 0.6889839768409729 0.4241219758987427
vt 0.7983719706535339 0.42924797534942627
vt 0.8037670254707336 0.4233739972114563
vt 0.7899680137634277 0.41451597213745117
vt 0.785984992980957 0.42118799686431885
vt 0.8108699917793274 0.43185198307037354
vt 0.80376797914505 0.4364889860153198
vt 0.8092920184135437 0.45266997814178467
vt 0.8175299763679504 0.4526280164718628
vt 0.8156290054321289 0.44189298152923584
vt 0.807138979434967 0.44435399770736694
vt 0.8050730228424072 0.47959697246551514
vt 0.8108000159263611 0.4816439747810364
vt 0.8165469765663147 0.46550697088241577
vt 0.8094469904899597 0.4636880159378052
vt 0.7393890023231506 0.5433509945869446
vt 0.7539269924163818 0.5352790057659149
vt 0.7460200190544128 0.5221399962902069
vt 0.72987300157547 0.5302200019359589
vt 0.7281590104103088 0.5528550148010254
vt 0.7183930277824402 0.5354300141334534
vt 0.9700499773025513 0.22610598802566528
vt 0.950838029384613 0.27271199226379395
vt 0.9838299751281738 0.2443540096282959
vt 0.9511209726333618 0.22140198945999146
vt 0.932138979434967 0.22589099407196045
vt 0.9181510210037231 0.2439810037612915
vt 0.9129310250282288 0.2643060088157654
vt 0.9272739887237549 0.29632502794265747
vt 0.9385820031166077 0.3000339865684509
vt 0.9507139921188354 0.3009660243988037
vt 0.9508119821548462 0.27777099609375
vt 0.9887670278549194 0.2728469967842102
vt 0.9888160228729248 0.2647320032119751
vt 0.9531689882278442 0.20984500646591187
vt 0.9638959765434265 0.2082890272140503
vt 0.9530209898948669 0.20764702558517456
vt 0.982554018497467 0.19182699918746948
vt 0.9884830117225647 0.17938899993896484
vt 0.949662983417511 0.15810799598693848
vt 0.9736130237579346 0.20231002569198608
vt 0.9921659827232361 0.14800399541854858
vt 0.9908040165901184 0.1582610011100769
vt 0.9845579862594604 0.12026697397232056
vt 0.9677870273590088 0.10476899147033691
vt 0.9460629820823669 0.10117900371551514
vt 0.9249929785728455 0.10756802558898926
vt 0.9103829860687256 0.12511897087097168
vt 0.906453013420105 0.15361100435256958
vt 0.9077169895172119 0.16418302059173584
vt 0.9100130200386047 0.1845020055770874
vt 0.9196159839630127 0.19619697332382202
vt 0.9319130182266235 0.20501399040222168
vt 0.9429799914360046 0.20984500646591187
vt 0.9125450253486633 0.31210798025131226
vt 0.9234840273857117 0.32470202445983887
vt 0.9177970290184021 0.2926409840583801
vt 0.9433370232582092 0.018918991088867188
vt 0.9273959994316101 0.04262202978134155
vt 0.9365590214729309 0.045318007469177246
vt 0.95421302318573 0.021459996700286865
vt 0.730301022529602 0.41854798793792725
vt 0.7315800189971924 0.40302199125289917
vt 0.7054529786109924 0.4087650179862976
vt 0.7055619955062866 0.4248080253601074
vt 0.9365469813346863 0.32988399267196655
vt 0.966992974281311 0.024735987186431885
vt 0.9463980197906494 0.04760199785232544
vt 0.9533339738845825 0.05198097229003906
vt 0.9759359955787659 0.03216201066970825
vt 0.9505630135536194 0.33236998319625854
vt 0.9637809991836548 0.3302540183067322
vt 0.9621390104293823 0.3002780079841614
vt 0.9788479804992676 0.043241024017333984
vt 0.9583250284194946 0.057965993881225586
vt 0.9622859954833984 0.06413000822067261
vt 0.9890769720077515 0.049246013164520264
vt 0.9888160228729248 0.3124759793281555
vt 0.9887539744377136 0.2929779887199402
vt 0.9742069840431213 0.29653000831604004
vt 0.9777380228042603 0.32497501373291016
vt 0.7737190127372742 0.5275680124759674
vt 0.7682240009307861 0.5213130116462708
vt 0.9646070003509521 0.07249599695205688
vt 0.9649199843406677 0.0839809775352478
vt 0.9958829879760742 0.0734410285949707
vt 0.9939630031585693 0.061281025409698486
vt 0.7881119847297668 0.48434698581695557
vt 0.7897390127182007 0.4723929762840271
vt 0.7675439715385437 0.4869670271873474
vt 0.7655400037765503 0.501103013753891
vt 0.797760009765625 0.5011059939861298
vt 0.792756974697113 0.4977419972419739
vt 0.9853609800338745 0.34085702896118164
vt 0.9724900126457214 0.3533310294151306
vt 0.950402021408081 0.36150801181793213
vt 0.9611409902572632 0.35901302099227905
vt 0.9156799912452698 0.346297025680542
vt 0.9284060001373291 0.3556699752807617
vt 0.7680259943008423 0.41764897108078003
vt 0.7706549763679504 0.4083139896392822
vt 0.7399899959564209 0.4311929941177368
vt 0.7720320224761963 0.4288330078125
vt 0.7656360268592834 0.4224169850349426
vt 0.7296730279922485 0.42448902130126953
vt 0.7664300203323364 0.47228002548217773
vt 0.789726972579956 0.4605339765548706
vt 0.7883710265159607 0.4513639807701111
vt 0.7579699754714966 0.4622200131416321
vt 0.779109001159668 0.434935986995697
vt 0.7519810199737549 0.4393020272254944
vt 0.7587360143661499 0.44980698823928833
vt 0.7844129800796509 0.44297200441360474
vt 0.9390159845352173 0.3599720001220703
vt 0.7875379920005798 0.49528300762176514
vt 0.7616239786148071 0.5149460136890411
vt 0.8022279739379883 0.46290701627731323
vt 0.7977049946784973 0.4775189757347107
vt 0.7997220158576965 0.4466310143470764
vt 0.8016769886016846 0.4533489942550659
vt 0.793067991733551 0.43408799171447754
vt 0.7971839904785156 0.4403030276298523
vt 0.7812340259552002 0.42760199308395386
vt 0.6838740110397339 0.4524120092391968
vt 0.6927919983863831 0.4518679976463318
vt 0.6592860221862793 0.4579309821128845
vt 0.6402900218963623 0.4646120071411133
vt 0.6230120062828064 0.4731050133705139
vt 0.663703978061676 0.5164459943771362
vt 0.6450719833374023 0.5178279876708984
vt 0.6809549927711487 0.5118800103664398
vt 0.7019870281219482 0.5034579932689667
vt 0.7318029999732971 0.4876130223274231
vt 0.7124459743499756 0.49786001443862915
vt 0.9873809814453125 0.10667699575424194
vt 0.9962909817695618 0.0858200192451477
vt 0.9657390117645264 0.09403997659683228
vt 0.8224689960479736 0.4399089813232422
vt 0.824193000793457 0.45251399278640747
vt 0.8163629770278931 0.4846090078353882
vt 0.822966992855072 0.46703797578811646
vt 0.779259979724884 0.5309450030326843
vt 0.8029959797859192 0.5047189891338348
vt 0.7579879760742188 0.5405470132827759
vt 0.7479239702224731 0.5446729958057404
vt 0.7482450008392334 0.5536249876022339
vt 0.7083950042724609 0.5730040073394775
vt 0.7339649796485901 0.5628699958324432
vt 0.6793069839477539 0.5764909982681274
vt 0.6546220183372498 0.5763059854507446
vt 0.6222450137138367 0.41625601053237915
vt 0.5984690189361572 0.4248329997062683
vt 0.6502519845962524 0.40890198945999146
vt 0.6765080094337463 0.403889000415802
vt 0.6874110102653503 0.4019240140914917
vt 0.733456015586853 0.39687198400497437
vt 0.7062709927558899 0.40202099084854126
vt 0.7727159857749939 0.40242302417755127
vt 0.8082969784736633 0.4185749888420105
vt 0.7928839921951294 0.4091339707374573
vt 0.8167160153388977 0.42821502685546875
vt 0.9201970100402832 0.021322011947631836
vt 0.689848005771637 0.40854698419570923
vt 0.9887409806251526 0.27789801359176636
vt 0.7106950283050537 0.4510120153427124
vt 0.914671003818512 0.2724599838256836
vt 0.9152920246124268 0.27751898765563965
vt 0.9508119821548462 0.27777099609375
vt 0.950838029384613 0.27271199226379395
vt 0.914671003818512 0.2724599838256836
vt 0.9887409806251526 0.27789801359176636
vt 0.9887670278549194 0.2728469967842102
vt 0.9152920246124268 0.27751898765563965
vt 0.9786360263824463 0.35849398374557495
vt 0.9692929983139038 0.37060898542404175
vt 0.9595310091972351 0.37653499841690063
vt 0.950298011302948 0.3792610168457031
vt 0.940509021282196 0.37830597162246704
vt 0.9313899874687195 0.37454599142074585
vt 0.9226170182228088 0.3627660274505615

usemtl Material

f 1/1/1 2/2/2 3/3/3
f 3/3/3 4/4/4 1/1/1
f 5/5/5 6/6/6 7/7/7
f 7/7/7 8/8/8 5/5/5
f 7/7/7 9/9/9 10/10/10
f 10/10/10 8/8/8 7/7/7
f 11/11/11 12/12/12 13/13/13
f 13/13/13 14/14/14 11/11/11
f 15/15/15 16/16/16 17/17/17
f 17/17/17 18/18/18 15/15/15
f 17/17/17 19/19/19 20/20/20
f 20/20/20 18/18/18 17/17/17
f 19/19/19 21/21/21 22/22/22
f 22/22/22 20/20/20 19/19/19
f 22/22/22 21/21/21 23/23/23
f 23/23/23 24/24/24 22/22/22
f 24/24/24 23/23/23 25/25/25
f 25/25/25 26/26/26 24/24/24
f 26/26/26 25/25/25 27/27/27
f 27/27/27 28/28/28 26/26/26
f 29/29/29 30/30/30 31/31/31
f 31/31/31 32/32/32 29/29/29
f 33/33/33 34/34/34 35/35/35
f 35/35/35 36/36/36 33/33/33
f 34/34/34 37/37/37 38/38/38
f 38/38/38 35/35/35 34/34/34
f 39/39/39 40/40/40 41/41/41
f 41/41/41 42/42/42 39/39/39
f 43/43/43 44/44/44 45/45/45
f 45/45/45 46/46/46 43/43/43
f 47/47/47 43/43/43 46/46/46
f 46/46/46 48/48/48 47/47/47
f 49/49/49 50/50/50 51/51/51
f 51/51/51 52/52/52 49/49/49
f 53/53/53 54/54/54 55/55/55
f 55/55/55 56/56/56 53/53/53
f 57/57/57 58/58/58 54/54/54
f 54/54/54 53/53/53 57/57/57
f 59/59/59 58/58/58 57/57/57
f 57/57/57 60/60/60 59/59/59
f 61/61/61 62/62/62 63/63/63
f 63/63/63 64/64/64 61/61/61
f 65/65/65 61/61/61 64/64/64
f 64/64/64 66/66/66 65/65/65
f 67/67/67 65/65/65 66/66/66
f 66/66/66 68/68/68 67/67/67
f 69/69/69 70/70/70 71/71/71
f 71/71/71 72/72/72 69/69/69
f 73/73/73 74/74/74 75/75/75
f 75/75/75 76/76/76 73/73/73
f 77/77/77 36/36/36 35/35/35
f 35/35/35 78/78/78 77/77/77
f 79/79/79 80/80/80 30/30/30
f 30/30/30 29/29/29 79/79/79
f 81/81/81 82/82/82 26/26/26
f 26/26/26 28/28/28 81/81/81
f 24/24/24 26/26/26 82/82/82
f 82/82/82 83/83/83 24/24/24
f 22/22/22 24/24/24 83/83/83
f 83/83/83 84/84/84 22/22/22
f 20/20/20 22/22/22 84/84/84
f 84/84/84 85/85/85 20/20/20
f 86/86/86 18/18/18 20/20/20
f 20/20/20 85/85/85 86/86/86
f 87/87/87 15/15/15 18/18/18
f 18/18/18 86/86/86 87/87/87
f 11/11/11 14/14/14 88/88/88
f 88/88/88 89/89/89 11/11/11
f 42/42/42 41/41/41 90/90/90
f 90/90/90 91/91/91 42/42/42
f 78/78/78 35/35/35 38/38/38
f 38/38/38 92/92/92 78/78/78
f 93/93/93 50/50/50 49/49/49
f 49/49/49 94/94/94 93/93/93
f 95/95/95 96/96/96 53/53/53
f 53/53/53 56/56/56 95/95/95
f 57/57/57 53/53/53 96/96/96
f 96/96/96 97/97/97 57/57/57
f 60/60/60 57/57/57 97/97/97
f 97/97/97 98/98/98 60/60/60
f 64/64/64 63/63/63 99/99/99
f 99/99/99 100/100/100 64/64/64
f 101/101/101 66/66/66 64/64/64
f 64/64/64 100/100/100 101/101/101
f 102/102/102 68/68/68 66/66/66
f 66/66/66 101/101/101 102/102/102
f 69/69/69 72/72/72 103/103/103
f 103/103/103 104/104/104 69/69/69
f 105/105/105 73/73/73 76/76/76
f 76/76/76 106/106/106 105/105/105
f 46/46/46 45/45/45 107/107/107
f 107/107/107 108/108/108 46/46/46
f 48/48/48 46/46/46 108/108/108
f 108/108/108 109/109/109 48/48/48
f 51/51/51 110/110/110 111/111/111
f 111/111/111 52/52/52 51/51/51
f 54/54/54 112/112/112 113/113/113
f 113/113/113 55/55/55 54/54/54
f 114/114/114 112/112/112 54/54/54
f 54/54/54 58/58/58 114/114/114
f 115/115/115 114/114/114 58/58/58
f 58/58/58 59/59/59 115/115/115
f 116/116/116 117/117/117 62/62/62
f 62/62/62 61/61/61 116/116/116
f 118/118/118 116/116/116 61/61/61
f 61/61/61 65/65/65 118/118/118
f 119/119/119 118/118/118 65/65/65
f 65/65/65 67/67/67 119/119/119
f 70/70/70 120/120/120 121/121/121
f 121/121/121 71/71/71 70/70/70
f 74/74/74 122/122/122 123/123/123
f 123/123/123 75/75/75 74/74/74
f 43/43/43 124/124/124 125/125/125
f 125/125/125 44/44/44 43/43/43
f 47/47/47 126/126/126 124/124/124
f 124/124/124 43/43/43 47/47/47
f 108/108/108 107/107/107 127/127/127
f 127/127/127 128/128/128 108/108/108
f 109/109/109 108/108/108 128/128/128
f 128/128/128 129/129/129 109/109/109
f 130/130/130 93/93/93 94/94/94
f 94/94/94 131/131/131 130/130/130
f 132/132/132 133/133/133 96/96/96
f 96/96/96 95/95/95 132/132/132
f 97/97/97 96/96/96 133/133/133
f 133/133/133 134/134/134 97/97/97
f 98/98/98 97/97/97 134/134/134
f 134/134/134 135/135/135 98/98/98
f 136/136/136 100/100/100 99/99/99
f 99/99/99 137/137/137 136/136/136
f 138/138/138 101/101/101 100/100/100
f 100/100/100 136/136/136 138/138/138
f 102/102/102 101/101/101 138/138/138
f 138/138/138 139/139/139 102/102/102
f 104/104/104 103/103/103 140/140/140
f 140/140/140 141/141/141 104/104/104
f 105/105/105 106/106/106 142/142/142
f 142/142/142 143/143/143 105/105/105
f 12/12/12 144/144/144 13/13/13
f 13/13/13 144/144/144 17/17/17
f 145/145/145 13/13/13 17/17/17
f 16/16/16 145/145/145 17/17/17
f 17/17/17 144/144/144 19/19/19
f 19/19/19 144/144/144 21/21/21
f 21/21/21 144/144/144 23/23/23
f 23/23/23 144/144/144 25/25/25
f 25/25/25 144/144/144 31/31/31
f 31/31/31 27/27/27 25/25/25
f 31/31/31 144/144/144 33/33/33
f 33/33/33 32/32/32 31/31/31
f 33/33/33 144/144/144 34/34/34
f 37/37/37 34/34/34 144/144/144
f 144/144/144 39/39/39 37/37/37
f 40/40/40 39/39/39 144/144/144
f 144/144/144 12/12/12 40/40/40
f 131/131/131 94/94/94 109/109/109
f 109/109/109 129/129/129 131/131/131
f 94/94/94 49/49/49 48/48/48
f 48/48/48 109/109/109 94/94/94
f 48/48/48 49/49/49 52/52/52
f 52/52/52 47/47/47 48/48/48
f 52/52/52 111/111/111 126/126/126
f 126/126/126 47/47/47 52/52/52
f 79/79/79 29/29/29 36/36/36
f 36/36/36 77/77/77 79/79/79
f 36/36/36 29/29/29 32/32/32
f 32/32/32 33/33/33 36/36/36
f 130/130/130 132/132/132 95/95/95
f 95/95/95 93/93/93 130/130/130
f 93/93/93 95/95/95 56/56/56
f 56/56/56 50/50/50 93/93/93
f 56/56/56 55/55/55 51/51/51
f 51/51/51 50/50/50 56/56/56
f 51/51/51 55/55/55 113/113/113
f 113/113/113 110/110/110 51/51/51
f 81/81/81 28/28/28 30/30/30
f 30/30/30 80/80/80 81/81/81
f 28/28/28 27/27/27 31/31/31
f 31/31/31 30/30/30 28/28/28
f 13/13/13 145/145/145 146/146/146
f 146/146/146 14/14/14 13/13/13
f 14/14/14 146/146/146 147/147/147
f 147/147/147 88/88/88 14/14/14
f 71/71/71 121/121/121 148/148/148
f 148/148/148 149/149/149 71/71/71
f 72/72/72 71/71/71 149/149/149
f 149/149/149 150/150/150 72/72/72
f 72/72/72 150/150/150 151/151/151
f 151/151/151 103/103/103 72/72/72
f 140/140/140 103/103/103 151/151/151
f 151/151/151 152/152/152 140/140/140
f 4/4/4 3/3/3 153/153/153
f 153/153/153 154/154/154 4/4/4
f 15/15/15 146/146/146 145/145/145
f 145/145/145 16/16/16 15/15/15
f 147/147/147 146/146/146 15/15/15
f 15/15/15 87/87/87 147/147/147
f 67/67/67 149/149/149 148/148/148
f 148/148/148 119/119/119 67/67/67
f 68/68/68 150/150/150 149/149/149
f 149/149/149 67/67/67 68/68/68
f 151/151/151 150/150/150 68/68/68
f 68/68/68 102/102/102 151/151/151
f 152/152/152 151/151/151 102/102/102
f 102/102/102 139/139/139 152/152/152
f 154/154/154 153/153/153 155/155/155
f 155/155/155 156/156/156 154/154/154
f 157/157/157 158/158/158 159/159/159
f 160/160/160 158/158/158 157/157/157
f 161/161/161 158/158/158 162/162/162
f 163/163/163 158/158/158 161/161/161
f 164/164/164 158/158/158 163/163/163
f 165/165/165 158/158/158 164/164/164
f 166/166/166 158/158/158 165/165/165
f 167/167/167 158/158/158 168/168/168
f 169/169/169 158/158/158 170/170/170
f 171/171/171 158/158/158 169/169/169
f 169/169/169 172/172/172 171/171/171
f 159/159/159 158/158/158 171/171/171
f 171/171/171 173/173/173 159/159/159
f 170/170/170 158/158/158 167/167/167
f 168/168/168 158/158/158 166/166/166
f 160/160/160 174/174/174 158/158/158
f 162/162/162 158/158/158 174/174/174
f 129/129/129 175/175/175 176/176/176
f 176/176/176 131/131/131 129/129/129
f 130/130/130 131/131/131 176/176/176
f 176/176/176 177/177/177 130/130/130
f 152/152/152 153/153/153 3/3/3
f 3/3/3 140/140/140 152/152/152
f 141/141/141 140/140/140 3/3/3
f 3/3/3 2/2/2 141/141/141
f 143/143/143 142/142/142 178/178/178
f 178/178/178 179/179/179 143/143/143
f 127/127/127 180/180/180 181/181/181
f 181/181/181 128/128/128 127/127/127
f 128/128/128 181/181/181 175/175/175
f 175/175/175 129/129/129 128/128/128
f 110/110/110 182/182/182 183/183/183
f 183/183/183 111/111/111 110/110/110
f 184/184/184 182/182/182 110/110/110
f 110/110/110 113/113/113 184/184/184
f 185/185/185 184/184/184 113/113/113
f 113/113/113 112/112/112 185/185/185
f 186/186/186 185/185/185 112/112/112
f 112/112/112 114/114/114 186/186/186
f 187/187/187 186/186/186 114/114/114
f 114/114/114 115/115/115 187/187/187
f 188/188/188 189/189/189 117/117/117
f 117/117/117 116/116/116 188/188/188
f 190/190/190 188/188/188 116/116/116
f 116/116/116 118/118/118 190/190/190
f 191/191/191 190/190/190 118/118/118
f 118/118/118 119/119/119 191/191/191
f 192/192/192 191/191/191 119/119/119
f 119/119/119 148/148/148 192/192/192
f 121/121/121 193/193/193 192/192/192
f 192/192/192 148/148/148 121/121/121
f 120/120/120 194/194/194 193/193/193
f 193/193/193 121/121/121 120/120/120
f 122/122/122 195/195/195 196/196/196
f 196/196/196 123/123/123 122/122/122
f 124/124/124 197/197/197 198/198/198
f 198/198/198 125/125/125 124/124/124
f 126/126/126 199/199/199 197/197/197
f 197/197/197 124/124/124 126/126/126
f 111/111/111 183/183/183 199/199/199
f 199/199/199 126/126/126 111/111/111
f 200/200/200 201/201/201 185/185/185
f 185/185/185 186/186/186 200/200/200
f 184/184/184 185/185/185 201/201/201
f 201/201/201 202/202/202 184/184/184
f 182/182/182 184/184/184 202/202/202
f 202/202/202 203/203/203 182/182/182
f 182/182/182 203/203/203 204/204/204
f 204/204/204 183/183/183 182/182/182
f 183/183/183 204/204/204 205/205/205
f 205/205/205 199/199/199 183/183/183
f 199/199/199 205/205/205 206/206/206
f 206/206/206 197/197/197 199/199/199
f 197/197/197 206/206/206 207/207/207
f 207/207/207 198/198/198 197/197/197
f 195/195/195 208/208/208 209/209/209
f 209/209/209 196/196/196 195/195/195
f 210/210/210 211/211/211 193/193/193
f 193/193/193 194/194/194 210/210/210
f 211/211/211 212/212/212 192/192/192
f 192/192/192 193/193/193 211/211/211
f 191/191/191 192/192/192 212/212/212
f 212/212/212 213/213/213 191/191/191
f 213/213/213 214/214/214 190/190/190
f 190/190/190 191/191/191 213/213/213
f 214/214/214 215/215/215 188/188/188
f 188/188/188 190/190/190 214/214/214
f 215/215/215 216/216/216 189/189/189
f 189/189/189 188/188/188 215/215/215
f 217/217/217 200/200/200 186/186/186
f 186/186/186 187/187/187 217/217/217
f 218/218/218 219/219/219 180/180/180
f 180/180/180 127/127/127 218/218/218
f 107/107/107 220/220/220 218/218/218
f 218/218/218 127/127/127 107/107/107
f 45/45/45 221/221/221 220/220/220
f 220/220/220 107/107/107 45/45/45
f 222/222/222 221/221/221 45/45/45
f 45/45/45 44/44/44 222/222/222
f 223/223/223 222/222/222 44/44/44
f 44/44/44 125/125/125 223/223/223
f 224/224/224 223/223/223 125/125/125
f 125/125/125 198/198/198 224/224/224
f 225/225/225 224/224/224 198/198/198
f 198/198/198 207/207/207 225/225/225
f 42/42/42 91/91/91 92/92/92
f 92/92/92 38/38/38 42/42/42
f 39/39/39 42/42/42 38/38/38
f 38/38/38 37/37/37 39/39/39
f 142/142/142 141/141/141 2/2/2
f 2/2/2 178/178/178 142/142/142
f 106/106/106 104/104/104 141/141/141
f 141/141/141 142/142/142 106/106/106
f 76/76/76 69/69/69 104/104/104
f 104/104/104 106/106/106 76/76/76
f 70/70/70 69/69/69 76/76/76
f 76/76/76 75/75/75 70/70/70
f 120/120/120 70/70/70 75/75/75
f 75/75/75 123/123/123 120/120/120
f 194/194/194 120/120/120 123/123/123
f 123/123/123 196/196/196 194/194/194
f 210/210/210 194/194/194 196/196/196
f 196/196/196 209/209/209 210/210/210
f 11/11/11 89/89/89 90/90/90
f 90/90/90 41/41/41 11/11/11
f 12/12/12 11/11/11 41/41/41
f 41/41/41 40/40/40 12/12/12
f 226/226/226 227/227/227 228/228/228
f 228/228/228 229/229/229 226/226/226
f 230/230/230 231/231/231 227/227/227
f 227/227/227 226/226/226 230/230/230
f 6/6/6 5/5/5 232/232/232
f 232/232/232 233/233/233 6/6/6
f 234/234/234 235/235/235 236/236/236
f 236/236/236 237/237/237 234/234/234
f 235/235/235 238/238/238 239/239/239
f 239/239/239 236/236/236 235/235/235
f 238/238/238 240/240/240 241/241/241
f 241/241/241 239/239/239 238/238/238
f 242/242/242 241/241/241 240/240/240
f 240/240/240 243/243/243 242/242/242
f 243/243/243 244/244/244 245/245/245
f 245/245/245 242/242/242 243/243/243
f 246/246/246 247/247/247 248/248/248
f 248/248/248 249/249/249 246/246/246
f 249/249/249 1/1/1 250/250/250
f 250/250/250 246/246/246 249/249/249
f 250/250/250 1/1/1 4/4/4
f 4/4/4 251/251/251 250/250/250
f 251/251/251 4/4/4 154/154/154
f 154/154/154 252/252/252 251/251/251
f 154/154/154 156/156/156 253/253/253
f 253/253/253 252/252/252 154/154/154
f 156/156/156 228/228/228 254/254/254
f 254/254/254 253/253/253 156/156/156
f 228/228/228 227/227/227 255/255/255
f 255/255/255 254/254/254 228/228/228
f 227/227/227 231/231/231 256/256/256
f 256/256/256 255/255/255 227/227/227
f 257/257/257 232/232/232 5/5/5
f 5/5/5 258/258/258 257/257/257
f 258/258/258 5/5/5 8/8/8
f 8/8/8 259/259/259 258/258/258
f 259/259/259 8/8/8 10/10/10
f 10/10/10 260/260/260 259/259/259
f 10/10/10 234/234/234 237/237/237
f 237/237/237 260/260/260 10/10/10
f 177/177/177 176/176/176 235/235/235
f 235/235/235 234/234/234 177/177/177
f 176/176/176 175/175/175 238/238/238
f 238/238/238 235/235/235 176/176/176
f 238/238/238 175/175/175 181/181/181
f 181/181/181 240/240/240 238/238/238
f 240/240/240 181/181/181 180/180/180
f 180/180/180 243/243/243 240/240/240
f 243/243/243 180/180/180 219/219/219
f 219/219/219 244/244/244 243/243/243
f 179/179/179 178/178/178 249/249/249
f 249/249/249 248/248/248 179/179/179
f 178/178/178 2/2/2 1/1/1
f 1/1/1 249/249/249 178/178/178
f 132/132/132 130/130/130 177/177/177
f 177/177/177 9/9/9 132/132/132
f 156/156/156 155/155/155 229/229/229
f 229/229/229 228/228/228 156/156/156
f 133/133/133 132/132/132 9/9/9
f 9/9/9 7/7/7 133/133/133
f 6/6/6 134/134/134 133/133/133
f 133/133/133 7/7/7 6/6/6
f 233/233/233 135/135/135 134/134/134
f 134/134/134 6/6/6 233/233/233
f 226/226/226 136/136/136 137/137/137
f 137/137/137 230/230/230 226/226/226
f 229/229/229 138/138/138 136/136/136
f 136/136/136 226/226/226 229/229/229
f 155/155/155 139/139/139 138/138/138
f 138/138/138 229/229/229 155/155/155
f 139/139/139 155/155/155 153/153/153
f 153/153/153 152/152/152 139/139/139
f 234/234/234 10/10/10 9/9/9
f 9/9/9 177/177/177 234/234/234
f 261/261/261 262/262/262 263/263/263
f 263/263/263 264/264/264 261/261/261
f 265/265/265 261/261/261 264/264/264
f 264/264/264 266/266/266 265/265/265
f 267/267/267 268/268/268 269/269/269
f 269/269/269 270/270/270 267/267/267
f 271/271/271 272/272/272 267/267/267
f 267/267/267 270/270/270 271/271/271
f 273/273/273 274/274/274 272/272/272
f 272/272/272 271/271/271 273/273/273
f 275/275/275 274/274/274 273/273/273
f 273/273/273 276/276/276 275/275/275
f 277/277/277 278/278/278 279/279/279
f 279/279/279 280/280/280 277/277/277
f 281/281/281 278/278/278 277/277/277
f 277/277/277 282/282/282 281/281/281
f 283/283/283 284/284/284 285/285/285
f 285/285/285 286/286/286 283/283/283
f 287/287/287 288/288/288 289/289/289
f 289/289/289 290/290/290 287/287/287
f 291/291/291 292/292/292 293/293/293
f 293/293/293 294/294/294 291/291/291
f 262/262/262 295/295/295 296/296/296
f 296/296/296 263/263/263 262/262/262
f 297/297/297 298/298/298 299/299/299
f 300/300/300 298/298/298 297/297/297
f 301/301/301 298/298/298 300/300/300
f 302/302/302 298/298/298 301/301/301
f 303/303/303 298/298/298 302/302/302
f 304/304/304 305/305/305 306/306/306
f 306/306/306 307/307/307 304/304/304
f 308/308/308 309/309/309 298/298/298
f 299/299/299 298/298/298 309/309/309
f 310/310/310 311/311/311 312/312/312
f 313/313/313 314/314/314 315/315/315
f 315/315/315 316/316/316 313/313/313
f 317/317/317 315/315/315 318/318/318
f 319/319/319 315/315/315 317/317/317
f 320/320/320 315/315/315 319/319/319
f 321/321/321 315/315/315 320/320/320
f 322/322/322 315/315/315 321/321/321
f 323/323/323 315/315/315 322/322/322
f 324/324/324 315/315/315 323/323/323
f 325/325/325 326/326/326 315/315/315
f 327/327/327 328/328/328 315/315/315
f 315/315/315 326/326/326 327/327/327
f 328/328/328 329/329/329 315/315/315
f 315/315/315 329/329/329 312/312/312
f 329/329/329 310/310/310 312/312/312
f 330/330/330 331/331/331 304/304/304
f 304/304/304 332/332/332 330/330/330
f 333/333/333 334/334/334 335/335/335
f 335/335/335 336/336/336 333/333/333
f 337/337/337 338/338/338 339/339/339
f 339/339/339 340/340/340 337/337/337
f 305/305/305 304/304/304 331/331/331
f 331/331/331 341/341/341 305/305/305
f 342/342/342 343/343/343 344/344/344
f 344/344/344 345/345/345 342/342/342
f 306/306/306 346/346/346 347/347/347
f 347/347/347 348/348/348 306/306/306
f 349/349/349 350/350/350 351/351/351
f 351/351/351 352/352/352 349/349/349
f 353/353/353 354/354/354 355/355/355
f 355/355/355 356/356/356 353/353/353
f 292/292/292 357/357/357 358/358/358
f 358/358/358 293/293/293 292/292/292
f 359/359/359 360/360/360 361/361/361
f 361/361/361 362/362/362 359/359/359
f 363/363/363 364/364/364 365/365/365
f 365/365/365 366/366/366 363/363/363
f 357/357/357 367/367/367 368/368/368
f 368/368/368 358/358/358 357/357/357
f 369/369/369 353/353/353 356/356/356
f 356/356/356 370/370/370 369/369/369
f 346/346/346 371/371/371 372/372/372
f 372/372/372 347/347/347 346/346/346
f 373/373/373 374/374/374 331/331/331
f 331/331/331 330/330/330 373/373/373
f 375/375/375 376/376/376 338/338/338
f 338/338/338 337/337/337 375/375/375
f 377/377/377 378/378/378 379/379/379
f 379/379/379 380/380/380 377/377/377
f 381/381/381 382/382/382 383/383/383
f 383/383/383 384/384/384 381/381/381
f 385/385/385 386/386/386 387/387/387
f 387/387/387 388/388/388 385/385/385
f 374/374/374 389/389/389 341/341/341
f 341/341/341 331/331/331 374/374/374
f 358/358/358 368/368/368 390/390/390
f 390/390/390 391/391/391 358/358/358
f 392/392/392 393/393/393 287/287/287
f 287/287/287 290/290/290 392/392/392
f 286/286/286 394/394/394 395/395/395
f 395/395/395 283/283/283 286/286/286
f 396/396/396 397/397/397 282/282/282
f 282/282/282 277/277/277 396/396/396
f 396/396/396 277/277/277 280/280/280
f 280/280/280 398/398/398 396/396/396
f 379/379/379 375/375/375 337/337/337
f 337/337/337 380/380/380 379/379/379
f 380/380/380 337/337/337 340/340/340
f 399/399/399 400/400/400 276/276/276
f 276/276/276 273/273/273 399/399/399
f 271/271/271 401/401/401 399/399/399
f 399/399/399 273/273/273 271/271/271
f 270/270/270 402/402/402 401/401/401
f 401/401/401 271/271/271 270/270/270
f 269/269/269 403/403/403 402/402/402
f 402/402/402 270/270/270 269/269/269
f 404/404/404 405/405/405 266/266/266
f 266/266/266 264/264/264 404/404/404
f 406/406/406 404/404/404 264/264/264
f 264/264/264 263/263/263 406/406/406
f 407/407/407 406/406/406 263/263/263
f 263/263/263 296/296/296 407/407/407
f 293/293/293 408/408/408 409/409/409
f 409/409/409 294/294/294 293/293/293
f 410/410/410 411/411/411 412/412/412
f 413/413/413 285/285/285 284/284/284
f 284/284/284 414/414/414 413/413/413
f 288/288/288 415/415/415 416/416/416
f 416/416/416 289/289/289 288/288/288
f 417/417/417 418/418/418 367/367/367
f 367/367/367 357/357/357 417/417/417
f 419/419/419 417/417/417 357/357/357
f 357/357/357 292/292/292 419/419/419
f 420/420/420 291/291/291 421/421/421
f 295/295/295 262/262/262 422/422/422
f 422/422/422 423/423/423 295/295/295
f 262/262/262 261/261/261 424/424/424
f 424/424/424 422/422/422 262/262/262
f 261/261/261 265/265/265 425/425/425
f 425/425/425 424/424/424 261/261/261
f 268/268/268 267/267/267 426/426/426
f 426/426/426 427/427/427 268/268/268
f 267/267/267 272/272/272 428/428/428
f 428/428/428 426/426/426 267/267/267
f 272/272/272 274/274/274 429/429/429
f 429/429/429 428/428/428 272/272/272
f 429/429/429 274/274/274 275/275/275
f 275/275/275 430/430/430 429/429/429
f 338/338/338 431/431/431 432/432/432
f 432/432/432 339/339/339 338/338/338
f 376/376/376 433/433/433 431/431/431
f 431/431/431 338/338/338 376/376/376
f 278/278/278 434/434/434 435/435/435
f 435/435/435 279/279/279 278/278/278
f 434/434/434 278/278/278 281/281/281
f 281/281/281 436/436/436 434/434/434
f 358/358/358 391/391/391 293/293/293
f 333/333/333 437/437/437 334/334/334
f 292/292/292 291/291/291 420/420/420
f 420/420/420 419/419/419 292/292/292
f 438/438/438 275/275/275 339/339/339
f 339/339/339 432/432/432 438/438/438
f 276/276/276 340/340/340 339/339/339
f 339/339/339 275/275/275 276/276/276
f 291/291/291 295/295/295 423/423/423
f 423/423/423 421/421/421 291/291/291
f 294/294/294 296/296/296 295/295/295
f 295/295/295 291/291/291 294/294/294
f 409/409/409 407/407/407 296/296/296
f 296/296/296 294/294/294 409/409/409
f 315/315/315 324/324/324 325/325/325
f 355/355/355 354/354/354 439/439/439
f 439/439/439 307/307/307 355/355/355
f 275/275/275 438/438/438 430/430/430
f 400/400/400 440/440/440 340/340/340
f 340/340/340 276/276/276 400/400/400
f 315/315/315 314/314/314 318/318/318
f 441/441/441 298/298/298 303/303/303
f 442/442/442 443/443/443 444/444/444
f 444/444/444 445/445/445 442/442/442
f 446/446/446 447/447/447 444/444/444
f 444/444/444 443/443/443 446/446/446
f 304/304/304 307/307/307 448/448/448
f 448/448/448 332/332/332 304/304/304
f 306/306/306 348/348/348 355/355/355
f 355/355/355 307/307/307 306/306/306
f 348/348/348 347/347/347 356/356/356
f 356/356/356 355/355/355 348/348/348
f 370/370/370 356/356/356 347/347/347
f 347/347/347 372/372/372 370/370/370
f 289/289/289 416/416/416 414/414/414
f 414/414/414 284/284/284 289/289/289
f 290/290/290 289/289/289 284/284/284
f 284/284/284 283/283/283 290/290/290
f 392/392/392 290/290/290 283/283/283
f 283/283/283 395/395/395 392/392/392
f 364/364/364 382/382/382 381/381/381
f 381/381/381 365/365/365 364/364/364
f 351/351/351 359/359/359 362/362/362
f 362/362/362 352/352/352 351/351/351
f 306/306/306 305/305/305 341/341/341
f 341/341/341 346/346/346 306/306/306
f 389/389/389 371/371/371 346/346/346
f 346/346/346 341/341/341 389/389/389
f 436/436/436 281/281/281 285/285/285
f 285/285/285 413/413/413 436/436/436
f 286/286/286 285/285/285 281/281/281
f 281/281/281 282/282/282 286/286/286
f 394/394/394 286/286/286 282/282/282
f 282/282/282 397/397/397 394/394/394
f 387/387/387 384/384/384 383/383/383
f 383/383/383 388/388/388 387/387/387
f 349/349/349 345/345/345 344/344/344
f 344/344/344 350/350/350 349/349/349
f 395/395/395 394/394/394 383/383/383
f 383/383/383 382/382/382 395/395/395
f 392/392/392 395/395/395 382/382/382
f 382/382/382 364/364/364 392/392/392
f 363/363/363 390/390/390 393/393/393
f 368/368/368 287/287/287 393/393/393
f 393/393/393 390/390/390 368/368/368
f 367/367/367 288/288/288 287/287/287
f 287/287/287 368/368/368 367/367/367
f 418/418/418 415/415/415 288/288/288
f 288/288/288 367/367/367 418/418/418
f 449/449/449 369/369/369 370/370/370
f 370/370/370 450/450/450 449/449/449
f 450/450/450 370/370/370 372/372/372
f 372/372/372 451/451/451 450/450/450
f 371/371/371 452/452/452 451/451/451
f 451/451/451 372/372/372 371/371/371
f 453/453/453 452/452/452 371/371/371
f 371/371/371 389/389/389 453/453/453
f 454/454/454 453/453/453 389/389/389
f 389/389/389 374/374/374 454/454/454
f 455/455/455 454/454/454 374/374/374
f 374/374/374 373/373/373 455/455/455
f 279/279/279 435/435/435 433/433/433
f 433/433/433 376/376/376 279/279/279
f 280/280/280 279/279/279 376/376/376
f 376/376/376 375/375/375 280/280/280
f 398/398/398 280/280/280 375/375/375
f 375/375/375 379/379/379 398/398/398
f 385/385/385 396/396/396 398/398/398
f 398/398/398 378/378/378 385/385/385
f 396/396/396 385/385/385 388/388/388
f 388/388/388 397/397/397 396/396/396
f 397/397/397 388/388/388 383/383/383
f 383/383/383 394/394/394 397/397/397
f 390/390/390 363/363/363 366/366/366
f 366/366/366 391/391/391 390/390/390
f 360/360/360 412/412/412 411/411/411
f 411/411/411 361/361/361 360/360/360
f 386/386/386 385/385/385 378/378/378
f 378/378/378 377/377/377 386/386/386
f 336/336/336 335/335/335 343/343/343
f 343/343/343 342/342/342 336/336/336
f 393/393/393 392/392/392 364/364/364
f 364/364/364 363/363/363 393/393/393
f 378/378/378 398/398/398 379/379/379
f 316/316/316 315/315/315 311/311/311
f 311/311/311 315/315/315 312/312/312