o Mesh
v 0.48927175998687744 -0.3047981858253479 0.45719727873802185
v 0.4427966773509979 -0.4137689471244812 0.4137689471244812
v 0.48927175998687744 -0.45719727873802185 0.3047981858253479
v 0.5543224215507507 -0.3453223705291748 0.3453223705291748
v 0.5253276228904724 -0.16362982988357544 0.4908894896507263
v 0.6085032820701599 -0.18953752517700195 0.3790750503540039
v 0.5392412543296814 0 0.5038910508155823
v 0.6304283142089844 0 0.39273351430892944
v 0.5253276228904724 0.16362982988357544 0.4908894896507263
v 0.6085032820701599 0.18953752517700195 0.3790750503540039
v 0.48927175998687744 0.3047981858253479 0.45719727873802185
v 0.5543224215507507 0.3453223705291748 0.3453223705291748
v 0.4427966773509979 0.4137689471244812 0.4137689471244812
v 0.48927175998687744 0.45719727873802185 0.3047981858253479
v 0.5253276228904724 -0.4908894896507263 0.16362982988357544
v 0.6085032820701599 -0.3790750503540039 0.18953752517700195
v 0.6824800372123718 -0.21257992088794708 0.21257992088794708
v 0.7138561606407166 0 0.2223530113697052
v 0.6824800372123718 0.21257992088794708 0.21257992088794708
v 0.6085032820701599 0.3790750503540039 0.18953752517700195
v 0.5253276228904724 0.4908894896507263 0.16362982988357544
v 0.5392412543296814 -0.5038910508155823 0
v 0.6304283142089844 -0.39273351430892944 0
v 0.7138561606407166 -0.2223530113697052 0
v 0.75 0 0
v 0.7138561606407166 0.2223530113697052 0
v 0.6304283142089844 0.39273351430892944 0
v 0.5392412543296814 0.5038910508155823 0
v 0.5253276228904724 -0.4908894896507263 -0.16362982988357544
v 0.6085032820701599 -0.3790750503540039 -0.18953752517700195
v 0.6824800372123718 -0.21257992088794708 -0.21257992088794708
v 0.7138561606407166 0 -0.2223530113697052
v 0.6824800372123718 0.21257992088794708 -0.21257992088794708
v 0.6085032820701599 0.3790750503540039 -0.18953752517700195
v 0.5253276228904724 0.4908894896507263 -0.16362982988357544
v 0.48927175998687744 -0.45719727873802185 -0.3047981858253479
v 0.5543224215507507 -0.3453223705291748 -0.3453223705291748
v 0.6085032820701599 -0.18953752517700195 -0.3790750503540039
v 0.6304283142089844 0 -0.39273351430892944
v 0.6085032820701599 0.18953752517700195 -0.3790750503540039
v 0.5543224215507507 0.3453223705291748 -0.3453223705291748
v 0.48927175998687744 0.45719727873802185 -0.3047981858253479
v 0.4427966773509979 -0.4137689471244812 -0.4137689471244812
v 0.48927175998687744 -0.3047981858253479 -0.45719727873802185
v 0.5253276228904724 -0.16362982988357544 -0.4908894896507263
v 0.5392412543296814 0 -0.5038910508155823
v 0.5253276228904724 0.16362982988357544 -0.4908894896507263
v 0.48927175998687744 0.3047981858253479 -0.45719727873802185
v 0.4427966773509979 0.4137689471244812 -0.4137689471244812
v 0.3287387490272522 0.46078217029571533 -0.46078217029571533
v 0.3732801079750061 0.5232143402099609 -0.3488095700740814
v 0.41062086820602417 0.5755535960197449 -0.1918511986732483
v 0.5392412543296814 0.5038910508155823 0
v 0.425799697637558 0.5968292951583862 0
v 0.41062086820602417 0.5755535960197449 0.1918511986732483
v 0.3732801079750061 0.5232143402099609 0.3488095700740814
v 0.3287387490272522 0.46078217029571533 0.46078217029571533
v 0.1776672601699829 0.49806055426597595 -0.49806055426597595
v 0.20684027671813965 0.5798422694206238 -0.3865615129470825
v 0.23318879306316376 0.6537059545516968 -0.21790198981761932
v 0.2444930076599121 0.6853954195976257 0
v 0.23318879306316376 0.6537059545516968 0.21790198981761932
v 0.20684027671813965 0.5798422694206238 0.3865615129470825
v 0.1776672601699829 0.49806055426597595 0.49806055426597595
v 0 0.5126523971557617 -0.5126523971557617
v 0 0.6032364368438721 -0.40215766429901123
v 0 0.6877954602241516 -0.22926513850688934
v 0 0.7249999642372131 0
v 0 0.6877954602241516 0.22926513850688934
v 0 0.6032364368438721 0.40215766429901123
v 0 0.5126523971557617 0.5126523971557617
v -0.1776672601699829 0.49806055426597595 -0.49806055426597595
v -0.20684027671813965 0.5798422694206238 -0.3865615129470825
v -0.23318879306316376 0.6537059545516968 -0.21790198981761932
v -0.2444930076599121 0.6853954195976257 0
v -0.23318879306316376 0.6537059545516968 0.21790198981761932
v -0.20684027671813965 0.5798422694206238 0.3865615129470825
v -0.1776672601699829 0.49806055426597595 0.49806055426597595
v -0.3287387490272522 0.46078217029571533 -0.46078217029571533
v -0.3732801079750061 0.5232143402099609 -0.3488095700740814
v -0.41062086820602417 0.5755535960197449 -0.1918511986732483
v -0.425799697637558 0.5968292951583862 0
v -0.41062086820602417 0.5755535960197449 0.1918511986732483
v -0.3732801079750061 0.5232143402099609 0.3488095700740814
v -0.3287387490272522 0.46078217029571533 0.46078217029571533
v -0.4427966773509979 0.4137689471244812 -0.4137689471244812
v -0.48927175998687744 0.45719727873802185 -0.3047981858253479
v -0.5253276228904724 0.4908894896507263 -0.16362982988357544
v -0.5392412543296814 0.5038910508155823 0
v -0.5253276228904724 0.4908894896507263 0.16362982988357544
v -0.48927175998687744 0.45719727873802185 0.3047981858253479
v -0.4427966773509979 0.4137689471244812 0.4137689471244812
v -0.48927175998687744 -0.3047981858253479 0.45719727873802185
v -0.4427966773509979 -0.4137689471244812 0.4137689471244812
v -0.3287387490272522 -0.46078217029571533 0.46078217029571533
v -0.3732801079750061 -0.3488095700740814 0.5232143402099609
v -0.5253276228904724 -0.16362982988357544 0.4908894896507263
v -0.41062086820602417 -0.1918511986732483 0.5755535960197449
v -0.5392412543296814 0 0.5038910508155823
v -0.425799697637558 0 0.5968292951583862
v -0.5253276228904724 0.16362982988357544 0.4908894896507263
v -0.41062086820602417 0.1918511986732483 0.5755535960197449
v -0.48927175998687744 0.3047981858253479 0.45719727873802185
v -0.3732801079750061 0.3488095700740814 0.5232143402099609
v -0.1776672601699829 -0.49806055426597595 0.49806055426597595
v -0.20684027671813965 -0.3865615129470825 0.5798422694206238
v -0.23318879306316376 -0.21790198981761932 0.6537059545516968
v -0.2444930076599121 0 0.6853954195976257
v -0.23318879306316376 0.21790198981761932 0.6537059545516968
v -0.20684027671813965 0.3865615129470825 0.5798422694206238
v 0 -0.5126523971557617 0.5126523971557617
v 0 -0.40215766429901123 0.6032364368438721
v 0 -0.22926513850688934 0.6877954602241516
v 0 0 0.7249999642372131
v 0 0.22926513850688934 0.6877954602241516
v 0 0.40215766429901123 0.6032364368438721
v 0 0.5126523971557617 0.5126523971557617
v 0.1776672601699829 -0.49806055426597595 0.49806055426597595
v 0.20684027671813965 -0.3865615129470825 0.5798422694206238
v 0.23318879306316376 -0.21790198981761932 0.6537059545516968
v 0.2444930076599121 0 0.6853954195976257
v 0.23318879306316376 0.21790198981761932 0.6537059545516968
v 0.20684027671813965 0.3865615129470825 0.5798422694206238
v 0.3287387490272522 -0.46078217029571533 0.46078217029571533
v 0.3732801079750061 -0.3488095700740814 0.5232143402099609
v 0.41062086820602417 -0.1918511986732483 0.5755535960197449
v 0.425799697637558 0 0.5968292951583862
v 0.41062086820602417 0.1918511986732483 0.5755535960197449
v 0.3732801079750061 0.3488095700740814 0.5232143402099609
v -0.48927175998687744 -0.3047981858253479 -0.45719727873802185
v -0.4427966773509979 -0.4137689471244812 -0.4137689471244812
v -0.48927175998687744 -0.45719727873802185 -0.3047981858253479
v -0.5543224215507507 -0.3453223705291748 -0.3453223705291748
v -0.5253276228904724 -0.16362982988357544 -0.4908894896507263
v -0.6085032820701599 -0.18953752517700195 -0.3790750503540039
v -0.5392412543296814 0 -0.5038910508155823
v -0.6304283142089844 0 -0.39273351430892944
v -0.5253276228904724 0.16362982988357544 -0.4908894896507263
v -0.6085032820701599 0.18953752517700195 -0.3790750503540039
v -0.48927175998687744 0.3047981858253479 -0.45719727873802185
v -0.5543224215507507 0.3453223705291748 -0.3453223705291748
v -0.5253276228904724 -0.4908894896507263 -0.16362982988357544
v -0.6085032820701599 -0.3790750503540039 -0.18953752517700195
v -0.6824800372123718 -0.21257992088794708 -0.21257992088794708
v -0.7138561606407166 0 -0.2223530113697052
v -0.6824800372123718 0.21257992088794708 -0.21257992088794708
v -0.6085032820701599 0.3790750503540039 -0.18953752517700195
v -0.5392412543296814 -0.5038910508155823 0
v -0.6304283142089844 -0.39273351430892944 0
v -0.7138561606407166 -0.2223530113697052 0
v -0.75 0 0
v -0.7138561606407166 0.2223530113697052 0
v -0.6304283142089844 0.39273351430892944 0
v -0.5253276228904724 -0.4908894896507263 0.16362982988357544
v -0.6085032820701599 -0.3790750503540039 0.18953752517700195
v -0.6824800372123718 -0.21257992088794708 0.21257992088794708
v -0.7138561606407166 0 0.2223530113697052
v -0.6824800372123718 0.21257992088794708 0.21257992088794708
v -0.6085032820701599 0.3790750503540039 0.18953752517700195
v -0.48927175998687744 -0.45719727873802185 0.3047981858253479
v -0.5543224215507507 -0.3453223705291748 0.3453223705291748
v -0.6085032820701599 -0.18953752517700195 0.3790750503540039
v -0.6304283142089844 0 0.39273351430892944
v -0.6085032820701599 0.18953752517700195 0.3790750503540039
v -0.5543224215507507 0.3453223705291748 0.3453223705291748
v -0.3287387490272522 -0.46078217029571533 -0.46078217029571533
v -0.3732801079750061 -0.5232143402099609 -0.3488095700740814
v -0.41062086820602417 -0.5755535960197449 -0.1918511986732483
v -0.425799697637558 -0.5968292951583862 0
v -0.41062086820602417 -0.5755535960197449 0.1918511986732483
v -0.3732801079750061 -0.5232143402099609 0.3488095700740814
v -0.1776672601699829 -0.49806055426597595 -0.49806055426597595
v -0.20684027671813965 -0.5798422694206238 -0.3865615129470825
v -0.23318879306316376 -0.6537059545516968 -0.21790198981761932
v -0.2444930076599121 -0.6853954195976257 0
v -0.23318879306316376 -0.6537059545516968 0.21790198981761932
v -0.20684027671813965 -0.5798422694206238 0.3865615129470825
v 0 -0.5126523971557617 -0.5126523971557617
v 0 -0.6032364368438721 -0.40215766429901123
v 0 -0.6877954602241516 -0.22926513850688934
v 0 -0.7249999642372131 0
v 0 -0.6877954602241516 0.22926513850688934
v 0 -0.6032364368438721 0.40215766429901123
v 0.1776672601699829 -0.49806055426597595 -0.49806055426597595
v 0.20684027671813965 -0.5798422694206238 -0.3865615129470825
v 0.23318879306316376 -0.6537059545516968 -0.21790198981761932
v 0.2444930076599121 -0.6853954195976257 0
v 0.23318879306316376 -0.6537059545516968 0.21790198981761932
v 0.20684027671813965 -0.5798422694206238 0.3865615129470825
v 0.3287387490272522 -0.46078217029571533 -0.46078217029571533
v 0.3732801079750061 -0.5232143402099609 -0.3488095700740814
v 0.41062086820602417 -0.5755535960197449 -0.1918511986732483
v 0.425799697637558 -0.5968292951583862 0
v 0.41062086820602417 -0.5755535960197449 0.1918511986732483
v 0.3732801079750061 -0.5232143402099609 0.3488095700740814
v 0.5392412543296814 -0.5038910508155823 0
v 0.48927175998687744 -0.3047981858253479 -0.45719727873802185
v 0.4427966773509979 -0.4137689471244812 -0.4137689471244812
v 0.3287387490272522 -0.46078217029571533 -0.46078217029571533
v 0.3732801079750061 -0.3488095700740814 -0.5232143402099609
v 0.5253276228904724 -0.16362982988357544 -0.4908894896507263
v 0.41062086820602417 -0.1918511986732483 -0.5755535960197449
v 0.5392412543296814 0 -0.5038910508155823
v 0.425799697637558 0 -0.5968292951583862
v 0.5253276228904724 0.16362982988357544 -0.4908894896507263
v 0.41062086820602417 0.1918511986732483 -0.5755535960197449
v 0.48927175998687744 0.3047981858253479 -0.45719727873802185
v 0.3732801079750061 0.3488095700740814 -0.5232143402099609
v 0.4427966773509979 0.4137689471244812 -0.4137689471244812
v 0.3287387490272522 0.46078217029571533 -0.46078217029571533
v 0.1776672601699829 -0.49806055426597595 -0.49806055426597595
v 0.20684027671813965 -0.3865615129470825 -0.5798422694206238
v 0.23318879306316376 -0.21790198981761932 -0.6537059545516968
v 0.2444930076599121 0 -0.6853954195976257
v 0.23318879306316376 0.21790198981761932 -0.6537059545516968
v 0.20684027671813965 0.3865615129470825 -0.5798422694206238
v 0.1776672601699829 0.49806055426597595 -0.49806055426597595
v 0 -0.5126523971557617 -0.5126523971557617
v 0 -0.40215766429901123 -0.6032364368438721
v 0 -0.22926513850688934 -0.6877954602241516
v 0 0 -0.7249999642372131
v 0 0.22926513850688934 -0.6877954602241516
v 0 0.40215766429901123 -0.6032364368438721
v 0 0.5126523971557617 -0.5126523971557617
v -0.1776672601699829 -0.49806055426597595 -0.49806055426597595
v -0.20684027671813965 -0.3865615129470825 -0.5798422694206238
v -0.23318879306316376 -0.21790198981761932 -0.6537059545516968
v -0.2444930076599121 0 -0.6853954195976257
v -0.23318879306316376 0.21790198981761932 -0.6537059545516968
v -0.20684027671813965 0.3865615129470825 -0.5798422694206238
v -0.1776672601699829 0.49806055426597595 -0.49806055426597595
v -0.3287387490272522 -0.46078217029571533 -0.46078217029571533
v -0.3732801079750061 -0.3488095700740814 -0.5232143402099609
v -0.41062086820602417 -0.1918511986732483 -0.5755535960197449
v -0.425799697637558 0 -0.5968292951583862
v -0.41062086820602417 0.1918511986732483 -0.5755535960197449
v -0.3732801079750061 0.3488095700740814 -0.5232143402099609
v -0.3287387490272522 0.46078217029571533 -0.46078217029571533
v -0.4427966773509979 -0.4137689471244812 -0.4137689471244812
v -0.48927175998687744 -0.3047981858253479 -0.45719727873802185
v -0.5253276228904724 -0.16362982988357544 -0.4908894896507263
v -0.5392412543296814 0 -0.5038910508155823
v -0.5253276228904724 0.16362982988357544 -0.4908894896507263
v -0.48927175998687744 0.3047981858253479 -0.45719727873802185
v -0.4427966773509979 0.4137689471244812 -0.4137689471244812

vn 0.6523623466491699 -0.42041128873825073 0.6306169033050537
vn 0.5903955698013306 -0.5707157850265503 0.5707157850265503
vn 0.6523623466491699 -0.6306169033050537 0.42041128873825073
vn 0.7390965819358826 -0.4763067066669464 0.4763067066669464
vn 0.7004368305206299 -0.22569631040096283 0.6770889163017273
vn 0.8113377094268799 -0.2614310681819916 0.5228621363639832
vn 0.7189883589744568 0 0.6950221061706543
vn 0.8405710458755493 0 0.5417013764381409
vn 0.7004368305206299 0.22569631040096283 0.6770889163017273
vn 0.8113377094268799 0.2614310681819916 0.5228621363639832
vn 0.6523623466491699 0.42041128873825073 0.6306169033050537
vn 0.7390965819358826 0.4763067066669464 0.4763067066669464
vn 0.5903955698013306 0.5707157850265503 0.5707157850265503
vn 0.6523623466491699 0.6306169033050537 0.42041128873825073
vn 0.7004368305206299 -0.6770889163017273 0.22569631040096283
vn 0.8113377094268799 -0.5228621363639832 0.2614310681819916
vn 0.9099733829498291 -0.2932136654853821 0.2932136654853821
vn 0.9518082141876221 0 0.30669379234313965
vn 0.9099733829498291 0.2932136654853821 0.2932136654853821
vn 0.8113377094268799 0.5228621363639832 0.2614310681819916
vn 0.7004368305206299 0.6770889163017273 0.22569631040096283
vn 0.7189883589744568 -0.6950221061706543 0
vn 0.8405710458755493 -0.5417013764381409 0
vn 0.9518082141876221 -0.30669379234313965 0
vn 1 0 0
vn 0.9518082141876221 0.30669379234313965 0
vn 0.8405710458755493 0.5417013764381409 0
vn 0.7189883589744568 0.6950221061706543 0
vn 0.7004368305206299 -0.6770889163017273 -0.22569631040096283
vn 0.8113377094268799 -0.5228621363639832 -0.2614310681819916
vn 0.9099733829498291 -0.2932136654853821 -0.2932136654853821
vn 0.9518082141876221 0 -0.30669379234313965
vn 0.9099733829498291 0.2932136654853821 -0.2932136654853821
vn 0.8113377094268799 0.5228621363639832 -0.2614310681819916
vn 0.7004368305206299 0.6770889163017273 -0.22569631040096283
vn 0.6523623466491699 -0.6306169033050537 -0.42041128873825073
vn 0.7390965819358826 -0.4763067066669464 -0.4763067066669464
vn 0.8113377094268799 -0.2614310681819916 -0.5228621363639832
vn 0.8405710458755493 0 -0.5417013764381409
vn 0.8113377094268799 0.2614310681819916 -0.5228621363639832
vn 0.7390965819358826 0.4763067066669464 -0.4763067066669464
vn 0.6523623466491699 0.6306169033050537 -0.42041128873825073
vn 0.5903955698013306 -0.5707157850265503 -0.5707157850265503
vn 0.6523623466491699 -0.42041128873825073 -0.6306169033050537
vn 0.7004368305206299 -0.22569631040096283 -0.6770889163017273
vn 0.7189883589744568 0 -0.6950221061706543
vn 0.7004368305206299 0.22569631040096283 -0.6770889163017273
vn 0.6523623466491699 0.42041128873825073 -0.6306169033050537
vn 0.5903955698013306 0.5707157850265503 -0.5707157850265503
vn 0.43831831216812134 0.6355615854263306 -0.6355615854263306
vn 0.4977068305015564 0.721674919128418 -0.4811166226863861
vn 0.5474944710731506 0.7938669919967651 -0.2646223306655884
vn 0.7189883589744568 0.6950221061706543 0
vn 0.5677329301834106 0.8232128024101257 0
vn 0.5474944710731506 0.7938669919967651 0.2646223306655884
vn 0.4977068305015564 0.721674919128418 0.4811166226863861
vn 0.43831831216812134 0.6355615854263306 0.6355615854263306
vn 0.23688967525959015 0.6869800686836243 -0.6869800686836243
vn 0.27578702569007874 0.799782395362854 -0.5331882834434509
vn 0.310918390750885 0.9016633629798889 -0.30055445432662964
vn 0.3259906768798828 0.945372998714447 0
vn 0.310918390750885 0.9016633629798889 0.30055445432662964
vn 0.27578702569007874 0.799782395362854 0.5331882834434509
vn 0.23688967525959015 0.6869800686836243 0.6869800686836243
vn 0 0.7071067690849304 -0.7071067690849304
vn 0 0.8320502638816833 -0.5547001957893372
vn 0 0.9486833214759827 -0.3162277638912201
vn 0 0.9999999403953552 0
vn 0 0.9486833214759827 0.3162277638912201
vn 0 0.8320502638816833 0.5547001957893372
vn 0 0.7071067690849304 0.7071067690849304
vn -0.23688967525959015 0.6869800686836243 -0.6869800686836243
vn -0.27578702569007874 0.799782395362854 -0.5331882834434509
vn -0.310918390750885 0.9016633629798889 -0.30055445432662964
vn -0.3259906768798828 0.945372998714447 0
vn -0.310918390750885 0.9016633629798889 0.30055445432662964
vn -0.27578702569007874 0.799782395362854 0.5331882834434509
vn -0.23688967525959015 0.6869800686836243 0.6869800686836243
vn -0.43831831216812134 0.6355615854263306 -0.6355615854263306
vn -0.4977068305015564 0.721674919128418 -0.4811166226863861
vn -0.5474944710731506 0.7938669919967651 -0.2646223306655884
vn -0.5677329301834106 0.8232128024101257 0
vn -0.5474944710731506 0.7938669919967651 0.2646223306655884
vn -0.4977068305015564 0.721674919128418 0.4811166226863861
vn -0.43831831216812134 0.6355615854263306 0.6355615854263306
vn -0.5903955698013306 0.5707157850265503 -0.5707157850265503
vn -0.6523623466491699 0.6306169033050537 -0.42041128873825073
vn -0.7004368305206299 0.6770889163017273 -0.22569631040096283
vn -0.7189883589744568 0.6950221061706543 0
vn -0.7004368305206299 0.6770889163017273 0.22569631040096283
vn -0.6523623466491699 0.6306169033050537 0.42041128873825073
vn -0.5903955698013306 0.5707157850265503 0.5707157850265503
vn -0.6523623466491699 -0.42041128873825073 0.6306169033050537
vn -0.5903955698013306 -0.5707157850265503 0.5707157850265503
vn -0.43831831216812134 -0.6355615854263306 0.6355615854263306
vn -0.4977068305015564 -0.4811166226863861 0.721674919128418
vn -0.7004368305206299 -0.22569631040096283 0.6770889163017273
vn -0.5474944710731506 -0.2646223306655884 0.7938669919967651
vn -0.7189883589744568 0 0.6950221061706543
vn -0.5677329301834106 0 0.8232128024101257
vn -0.7004368305206299 0.22569631040096283 0.6770889163017273
vn -0.5474944710731506 0.2646223306655884 0.7938669919967651
vn -0.6523623466491699 0.42041128873825073 0.6306169033050537
vn -0.4977068305015564 0.4811166226863861 0.721674919128418
vn -0.23688967525959015 -0.6869800686836243 0.6869800686836243
vn -0.27578702569007874 -0.5331882834434509 0.799782395362854
vn -0.310918390750885 -0.30055445432662964 0.9016633629798889
vn -0.3259906768798828 0 0.945372998714447
vn -0.310918390750885 0.30055445432662964 0.9016633629798889
vn -0.27578702569007874 0.5331882834434509 0.799782395362854
vn 0 -0.7071067690849304 0.7071067690849304
vn 0 -0.5547001957893372 0.8320502638816833
vn 0 -0.3162277638912201 0.9486833214759827
vn 0 0 0.9999999403953552
vn 0 0.3162277638912201 0.9486833214759827
vn 0 0.5547001957893372 0.8320502638816833
vn 0 0.7071067690849304 0.7071067690849304
vn 0.23688967525959015 -0.6869800686836243 0.6869800686836243
vn 0.27578702569007874 -0.5331882834434509 0.799782395362854
vn 0.310918390750885 -0.30055445432662964 0.9016633629798889
vn 0.3259906768798828 0 0.945372998714447
vn 0.310918390750885 0.30055445432662964 0.9016633629798889
vn 0.27578702569007874 0.5331882834434509 0.799782395362854
vn 0.43831831216812134 -0.6355615854263306 0.6355615854263306
vn 0.4977068305015564 -0.4811166226863861 0.721674919128418
vn 0.5474944710731506 -0.2646223306655884 0.7938669919967651
vn 0.5677329301834106 0 0.8232128024101257
vn 0.5474944710731506 0.2646223306655884 0.7938669919967651
vn 0.4977068305015564 0.4811166226863861 0.721674919128418
vn -0.6523623466491699 -0.42041128873825073 -0.6306169033050537
vn -0.5903955698013306 -0.5707157850265503 -0.5707157850265503
vn -0.6523623466491699 -0.6306169033050537 -0.42041128873825073
vn -0.7390965819358826 -0.4763067066669464 -0.4763067066669464
vn -0.7004368305206299 -0.22569631040096283 -0.6770889163017273
vn -0.8113377094268799 -0.2614310681819916 -0.5228621363639832
vn -0.7189883589744568 0 -0.6950221061706543
vn -0.8405710458755493 0 -0.5417013764381409
vn -0.7004368305206299 0.22569631040096283 -0.6770889163017273
vn -0.8113377094268799 0.2614310681819916 -0.5228621363639832
vn -0.6523623466491699 0.42041128873825073 -0.6306169033050537
vn -0.7390965819358826 0.4763067066669464 -0.4763067066669464
vn -0.7004368305206299 -0.6770889163017273 -0.22569631040096283
vn -0.8113377094268799 -0.5228621363639832 -0.2614310681819916
vn -0.9099733829498291 -0.2932136654853821 -0.2932136654853821
vn -0.9518082141876221 0 -0.30669379234313965
vn -0.9099733829498291 0.2932136654853821 -0.2932136654853821
vn -0.8113377094268799 0.5228621363639832 -0.2614310681819916
vn -0.7189883589744568 -0.6950221061706543 0
vn -0.8405710458755493 -0.5417013764381409 0
vn -0.9518082141876221 -0.30669379234313965 0
vn -1 0 0
vn -0.9518082141876221 0.30669379234313965 0
vn -0.8405710458755493 0.5417013764381409 0
vn -0.7004368305206299 -0.6770889163017273 0.22569631040096283
vn -0.8113377094268799 -0.5228621363639832 0.2614310681819916
vn -0.9099733829498291 -0.2932136654853821 0.2932136654853821
vn -0.9518082141876221 0 0.30669379234313965
vn -0.9099733829498291 0.2932136654853821 0.2932136654853821
vn -0.8113377094268799 0.5228621363639832 0.2614310681819916
vn -0.6523623466491699 -0.6306169033050537 0.42041128873825073
vn -0.7390965819358826 -0.4763067066669464 0.4763067066669464
vn -0.8113377094268799 -0.2614310681819916 0.5228621363639832
vn -0.8405710458755493 0 0.5417013764381409
vn -0.8113377094268799 0.2614310681819916 0.5228621363639832
vn -0.7390965819358826 0.4763067066669464 0.4763067066669464
vn -0.43831831216812134 -0.6355615854263306 -0.6355615854263306
vn -0.4977068305015564 -0.721674919128418 -0.4811166226863861
vn -0.5474944710731506 -0.7938669919967651 -0.2646223306655884
vn -0.5677329301834106 -0.8232128024101257 0
vn -0.5474944710731506 -0.7938669919967651 0.2646223306655884
vn -0.4977068305015564 -0.721674919128418 0.4811166226863861
vn -0.23688967525959015 -0.6869800686836243 -0.6869800686836243
vn -0.27578702569007874 -0.799782395362854 -0.5331882834434509
vn -0.310918390750885 -0.9016633629798889 -0.30055445432662964
vn -0.3259906768798828 -0.945372998714447 0
vn -0.310918390750885 -0.9016633629798889 0.30055445432662964
vn -0.27578702569007874 -0.799782395362854 0.5331882834434509
vn 0 -0.7071067690849304 -0.7071067690849304
vn 0 -0.8320502638816833 -0.5547001957893372
vn 0 -0.9486833214759827 -0.3162277638912201
vn 0 -0.9999999403953552 0
vn 0 -0.9486833214759827 0.3162277638912201
vn 0 -0.8320502638816833 0.5547001957893372
vn 0.23688967525959015 -0.6869800686836243 -0.6869800686836243
vn 0.27578702569007874 -0.799782395362854 -0.5331882834434509
vn 0.310918390750885 -0.9016633629798889 -0.30055445432662964
vn 0.3259906768798828 -0.945372998714447 0
vn 0.310918390750885 -0.9016633629798889 0.30055445432662964
vn 0.27578702569007874 -0.799782395362854 0.5331882834434509
vn 0.43831831216812134 -0.6355615854263306 -0.6355615854263306
vn 0.4977068305015564 -0.721674919128418 -0.4811166226863861
vn 0.5474944710731506 -0.7938669919967651 -0.2646223306655884
vn 0.5677329301834106 -0.8232128024101257 0
vn 0.5474944710731506 -0.7938669919967651 0.2646223306655884
vn 0.4977068305015564 -0.721674919128418 0.4811166226863861
vn 0.7189883589744568 -0.6950221061706543 0
vn 0.6523623466491699 -0.42041128873825073 -0.6306169033050537
vn 0.5903955698013306 -0.5707157850265503 -0.5707157850265503
vn 0.43831831216812134 -0.6355615854263306 -0.6355615854263306
vn 0.4977068305015564 -0.4811166226863861 -0.721674919128418
vn 0.7004368305206299 -0.22569631040096283 -0.6770889163017273
vn 0.5474944710731506 -0.2646223306655884 -0.7938669919967651
vn 0.7189883589744568 0 -0.6950221061706543
vn 0.5677329301834106 0 -0.8232128024101257
vn 0.7004368305206299 0.22569631040096283 -0.6770889163017273
vn 0.5474944710731506 0.2646223306655884 -0.7938669919967651
vn 0.6523623466491699 0.42041128873825073 -0.6306169033050537
vn 0.4977068305015564 0.4811166226863861 -0.721674919128418
vn 0.5903955698013306 0.5707157850265503 -0.5707157850265503
vn 0.43831831216812134 0.6355615854263306 -0.6355615854263306
vn 0.23688967525959015 -0.6869800686836243 -0.6869800686836243
vn 0.27578702569007874 -0.5331882834434509 -0.799782395362854
vn 0.310918390750885 -0.30055445432662964 -0.9016633629798889
vn 0.3259906768798828 0 -0.945372998714447
vn 0.310918390750885 0.30055445432662964 -0.9016633629798889
vn 0.27578702569007874 0.5331882834434509 -0.799782395362854
vn 0.23688967525959015 0.6869800686836243 -0.6869800686836243
vn 0 -0.7071067690849304 -0.7071067690849304
vn 0 -0.5547001957893372 -0.8320502638816833
vn 0 -0.3162277638912201 -0.9486833214759827
vn 0 0 -0.9999999403953552
vn 0 0.3162277638912201 -0.9486833214759827
vn 0 0.5547001957893372 -0.8320502638816833
vn 0 0.7071067690849304 -0.7071067690849304
vn -0.23688967525959015 -0.6869800686836243 -0.6869800686836243
vn -0.27578702569007874 -0.5331882834434509 -0.799782395362854
vn -0.310918390750885 -0.30055445432662964 -0.9016633629798889
vn -0.3259906768798828 0 -0.945372998714447
vn -0.310918390750885 0.30055445432662964 -0.9016633629798889
vn -0.27578702569007874 0.5331882834434509 -0.799782395362854
vn -0.23688967525959015 0.6869800686836243 -0.6869800686836243
vn -0.43831831216812134 -0.6355615854263306 -0.6355615854263306
vn -0.4977068305015564 -0.4811166226863861 -0.721674919128418
vn -0.5474944710731506 -0.2646223306655884 -0.7938669919967651
vn -0.5677329301834106 0 -0.8232128024101257
vn -0.5474944710731506 0.2646223306655884 -0.7938669919967651
vn -0.4977068305015564 0.4811166226863861 -0.721674919128418
vn -0.43831831216812134 0.6355615854263306 -0.6355615854263306
vn -0.5903955698013306 -0.5707157850265503 -0.5707157850265503
vn -0.6523623466491699 -0.42041128873825073 -0.6306169033050537
vn -0.7004368305206299 -0.22569631040096283 -0.6770889163017273
vn -0.7189883589744568 0 -0.6950221061706543
vn -0.7004368305206299 0.22569631040096283 -0.6770889163017273
vn -0.6523623466491699 0.42041128873825073 -0.6306169033050537
vn -0.5903955698013306 0.5707157850265503 -0.5707157850265503

vt 0 1
vt 0 1
vt 0 1
vt 0 1
vt 0 1
vt 0 1
vt 0 1
vt 0 1
vt 0 1
vt 0 1
vt 0 1
vt 0 1
vt 0 1
vt 0 1
vt 0 1
vt 0 1
vt 0 1
vt 0 1
vt 0 1
vt 0 1
vt 0 1
vt 0 1
vt 0 1
vt 0 1
vt 0 1
vt 0 1
vt 0 1
vt 0 1
vt 0 1
vt 0 1
vt 0 1
vt 0 1
vt 0 1
vt 0 1
vt 0 1
vt 0 1
vt 0 1
vt 0 1
vt 0 1
vt 0 1
vt 0 1
vt 0 1
vt 0 1
vt 0 1
vt 0 1
vt 0 1
vt 0 1
vt 0 1
vt 0 1
vt 0 1
vt 0 1
vt 0 1
vt 0 1
vt 0 1
vt 0 1
vt 0 1
vt 0 1
vt 0 1
vt 0 1
vt 0 1
vt 0 1
vt 0 1
vt 0 1
vt 0 1
vt 0 1
vt 0 1
vt 0 1
vt 0 1
vt 0 1
vt 0 1
vt 0 1
vt 0 1
vt 0 1
vt 0 1
vt 0 1
vt 0 1
vt 0 1
vt 0 1
vt 0 1
vt 0 1
vt 0 1
vt 0 1
vt 0 1
vt 0 1
vt 0 1
vt 0 1
vt 0 1
vt 0 1
vt 0 1
vt 0 1
vt 0 1
vt 0 1
vt 0 1
vt 0 1
vt 0 1
vt 0 1
vt 0 1
vt 0 1
vt 0 1
vt 0 1
vt 0 1
vt 0 1
vt 0 1
vt 0 1
vt 0 1
vt 0 1
vt 0 1
vt 0 1
vt 0 1
vt 0 1
vt 0 1
vt 0 1
vt 0 1
vt 0 1
vt 0 1
vt 0 1
vt 0 1
vt 0 1
vt 0 1
vt 0 1
vt 0 1
vt 0 1
vt 0 1
vt 0 1
vt 0 1
vt 0 1
vt 0 1
vt 0 1
vt 0 1
vt 0 1
vt 0 1
vt 0 1
vt 0 1
vt 0 1
vt 0 1
vt 0 1
vt 0 1
vt 0 1
vt 0 1
vt 0 1
vt 0 1
vt 0 1
vt 0 1
vt 0 1
vt 0 1
vt 0 1
vt 0 1
vt 0 1
vt 0 1
vt 0 1
vt 0 1
vt 0 1
vt 0 1
vt 0 1
vt 0 1
vt 0 1
vt 0 1
vt 0 1
vt 0 1
vt 0 1
vt 0 1
vt 0 1
vt 0 1
vt 0 1
vt 0 1
vt 0 1
vt 0 1
vt 0 1
vt 0 1
vt 0 1
vt 0 1
vt 0 1
vt 0 1
vt 0 1
vt 0 1
vt 0 1
vt 0 1
vt 0 1
vt 0 1
vt 0 1
vt 0 1
vt 0 1
vt 0 1
vt 0 1
vt 0 1
vt 0 1
vt 0 1
vt 0 1
vt 0 1
vt 0 1
vt 0 1
vt 0 1
vt 0 1
vt 0 1
vt 0 1
vt 0 1
vt 0 0.1666666865348816
vt 0 0
vt 0.1666666716337204 0
vt 0.1666666716337204 0.1666666865348816
vt 0 0.3333333730697632
vt 0.1666666716337204 0.3333333730697632
vt 0 0.5000000596046448
vt 0.1666666716337204 0.5000000596046448
vt 0 0.6666667461395264
vt 0.1666666716337204 0.6666667461395264
vt 0 0.833333432674408
vt 0.1666666716337204 0.833333432674408
vt 0 1.0000001192092896
vt 0.1666666716337204 1.0000001192092896
vt 0.3333333432674408 0
vt 0.3333333432674408 0.1666666865348816
vt 0.3333333432674408 0.3333333730697632
vt 0.3333333432674408 0.5000000596046448
vt 0.3333333432674408 0.6666667461395264
vt 0.3333333432674408 0.833333432674408
vt 0.3333333432674408 1.0000001192092896
vt 0.5 0
vt 0.5 0.1666666865348816
vt 0.5 0.3333333730697632
vt 0.5 0.5000000596046448
vt 0.5 0.6666667461395264
vt 0.5 0.833333432674408
vt 0.5 1.0000001192092896
vt 0.6666666865348816 0
vt 0.6666666865348816 0.1666666865348816
vt 0.6666666865348816 0.3333333730697632
vt 0.6666666865348816 0.5000000596046448
vt 0.6666666865348816 0.6666667461395264
vt 0.6666666865348816 0.833333432674408
vt 0.6666666865348816 1.0000001192092896
vt 0.8333333730697632 0
vt 0.8333333730697632 0.1666666865348816
vt 0.8333333730697632 0.3333333730697632
vt 0.8333333730697632 0.5000000596046448
vt 0.8333333730697632 0.6666667461395264
vt 0.8333333730697632 0.833333432674408
vt 0.8333333730697632 1.0000001192092896
vt 1 0
vt 1 0.1666666865348816
vt 1 0.3333333730697632
vt 1 0.5000000596046448
vt 1 0.6666667461395264
vt 1 0.833333432674408
vt 1 1.0000001192092896

f 1/1/1 2/2/2 3/3/3
f 3/3/3 4/4/4 1/1/1
f 5/5/5 1/1/1 4/4/4
f 4/4/4 6/6/6 5/5/5
f 7/7/7 5/5/5 6/6/6
f 6/6/6 8/8/8 7/7/7
f 9/9/9 7/7/7 8/8/8
f 8/8/8 10/10/10 9/9/9
f 11/11/11 9/9/9 10/10/10
f 10/10/10 12/12/12 11/11/11
f 13/13/13 11/11/11 12/12/12
f 12/12/12 14/14/14 13/13/13
f 4/4/4 3/3/3 15/15/15
f 15/15/15 16/16/16 4/4/4
f 6/6/6 4/4/4 16/16/16
f 16/16/16 17/17/17 6/6/6
f 8/8/8 6/6/6 17/17/17
f 17/17/17 18/18/18 8/8/8
f 10/10/10 8/8/8 18/18/18
f 18/18/18 19/19/19 10/10/10
f 12/12/12 10/10/10 19/19/19
f 19/19/19 20/20/20 12/12/12
f 14/14/14 12/12/12 20/20/20
f 20/20/20 21/21/21 14/14/14
f 16/16/16 15/15/15 22/22/22
f 22/22/22 23/23/23 16/16/16
f 17/17/17 16/16/16 23/23/23
f 23/23/23 24/24/24 17/17/17
f 18/18/18 17/17/17 24/24/24
f 24/24/24 25/25/25 18/18/18
f 19/19/19 18/18/18 25/25/25
f 25/25/25 26/26/26 19/19/19
f 20/20/20 19/19/19 26/26/26
f 26/26/26 27/27/27 20/20/20
f 21/21/21 20/20/20 27/27/27
f 27/27/27 28/28/28 21/21/21
f 23/23/23 22/22/22 29/29/29
f 29/29/29 30/30/30 23/23/23
f 24/24/24 23/23/23 30/30/30
f 30/30/30 31/31/31 24/24/24
f 25/25/25 24/24/24 31/31/31
f 31/31/31 32/32/32 25/25/25
f 26/26/26 25/25/25 32/32/32
f 32/32/32 33/33/33 26/26/26
f 27/27/27 26/26/26 33/33/33
f 33/33/33 34/34/34 27/27/27
f 28/28/28 27/27/27 34/34/34
f 34/34/34 35/35/35 28/28/28
f 30/30/30 29/29/29 36/36/36
f 36/36/36 37/37/37 30/30/30
f 31/31/31 30/30/30 37/37/37
f 37/37/37 38/38/38 31/31/31
f 32/32/32 31/31/31 38/38/38
f 38/38/38 39/39/39 32/32/32
f 33/33/33 32/32/32 39/39/39
f 39/39/39 40/40/40 33/33/33
f 34/34/34 33/33/33 40/40/40
f 40/40/40 41/41/41 34/34/34
f 35/35/35 34/34/34 41/41/41
f 41/41/41 42/42/42 35/35/35
f 37/37/37 36/36/36 43/43/43
f 43/43/43 44/44/44 37/37/37
f 38/38/38 37/37/37 44/44/44
f 44/44/44 45/45/45 38/38/38
f 39/39/39 38/38/38 45/45/45
f 45/45/45 46/46/46 39/39/39
f 40/40/40 39/39/39 46/46/46
f 46/46/46 47/47/47 40/40/40
f 41/41/41 40/40/40 47/47/47
f 47/47/47 48/48/48 41/41/41
f 42/42/42 41/41/41 48/48/48
f 48/48/48 49/49/49 42/42/42
f 42/42/42 49/49/49 50/50/50
f 50/50/50 51/51/51 42/42/42
f 35/35/35 42/42/42 51/51/51
f 51/51/51 52/52/52 35/35/35
f 53/53/53 35/35/35 52/52/52
f 52/52/52 54/54/54 53/53/53
f 21/21/21 53/53/53 54/54/54
f 54/54/54 55/55/55 21/21/21
f 14/14/14 21/21/21 55/55/55
f 55/55/55 56/56/56 14/14/14
f 13/13/13 14/14/14 56/56/56
f 56/56/56 57/57/57 13/13/13
f 51/51/51 50/50/50 58/58/58
f 58/58/58 59/59/59 51/51/51
f 52/52/52 51/51/51 59/59/59
f 59/59/59 60/60/60 52/52/52
f 54/54/54 52/52/52 60/60/60
f 60/60/60 61/61/61 54/54/54
f 55/55/55 54/54/54 61/61/61
f 61/61/61 62/62/62 55/55/55
f 56/56/56 55/55/55 62/62/62
f 62/62/62 63/63/63 56/56/56
f 57/57/57 56/56/56 63/63/63
f 63/63/63 64/64/64 57/57/57
f 59/59/59 58/58/58 65/65/65
f 65/65/65 66/66/66 59/59/59
f 60/60/60 59/59/59 66/66/66
f 66/66/66 67/67/67 60/60/60
f 61/61/61 60/60/60 67/67/67
f 67/67/67 68/68/68 61/61/61
f 62/62/62 61/61/61 68/68/68
f 68/68/68 69/69/69 62/62/62
f 63/63/63 62/62/62 69/69/69
f 69/69/69 70/70/70 63/63/63
f 64/64/64 63/63/63 70/70/70
f 70/70/70 71/71/71 64/64/64
f 66/66/66 65/65/65 72/72/72
f 72/72/72 73/73/73 66/66/66
f 67/67/67 66/66/66 73/73/73
f 73/73/73 74/74/74 67/67/67
f 68/68/68 67/67/67 74/74/74
f 74/74/74 75/75/75 68/68/68
f 69/69/69 68/68/68 75/75/75
f 75/75/75 76/76/76 69/69/69
f 70/70/70 69/69/69 76/76/76
f 76/76/76 77/77/77 70/70/70
f 71/71/71 70/70/70 77/77/77
f 77/77/77 78/78/78 71/71/71
f 73/73/73 72/72/72 79/79/79
f 79/79/79 80/80/80 73/73/73
f 74/74/74 73/73/73 80/80/80
f 80/80/80 81/81/81 74/74/74
f 75/75/75 74/74/74 81/81/81
f 81/81/81 82/82/82 75/75/75
f 76/76/76 75/75/75 82/82/82
f 82/82/82 83/83/83 76/76/76
f 77/77/77 76/76/76 83/83/83
f 83/83/83 84/84/84 77/77/77
f 78/78/78 77/77/77 84/84/84
f 84/84/84 85/85/85 78/78/78
f 80/80/80 79/79/79 86/86/86
f 86/86/86 87/87/87 80/80/80
f 81/81/81 80/80/80 87/87/87
f 87/87/87 88/88/88 81/81/81
f 82/82/82 81/81/81 88/88/88
f 88/88/88 89/89/89 82/82/82
f 83/83/83 82/82/82 89/89/89
f 89/89/89 90/90/90 83/83/83
f 84/84/84 83/83/83 90/90/90
f 90/90/90 91/91/91 84/84/84
f 85/85/85 84/84/84 91/91/91
f 91/91/91 92/92/92 85/85/85
f 93/93/93 94/94/94 95/95/95
f 95/95/95 96/96/96 93/93/93
f 97/97/97 93/93/93 96/96/96
f 96/96/96 98/98/98 97/97/97
f 99/99/99 97/97/97 98/98/98
f 98/98/98 100/100/100 99/99/99
f 101/101/101 99/99/99 100/100/100
f 100/100/100 102/102/102 101/101/101
f 103/103/103 101/101/101 102/102/102
f 102/102/102 104/104/104 103/103/103
f 92/92/92 103/103/103 104/104/104
f 104/104/104 85/85/85 92/92/92
f 96/96/96 95/95/95 105/105/105
f 105/105/105 106/106/106 96/96/96
f 98/98/98 96/96/96 106/106/106
f 106/106/106 107/107/107 98/98/98
f 100/100/100 98/98/98 107/107/107
f 107/107/107 108/108/108 100/100/100
f 102/102/102 100/100/100 108/108/108
f 108/108/108 109/109/109 102/102/102
f 104/104/104 102/102/102 109/109/109
f 109/109/109 110/110/110 104/104/104
f 85/85/85 104/104/104 110/110/110
f 110/110/110 78/78/78 85/85/85
f 106/106/106 105/105/105 111/111/111
f 111/111/111 112/112/112 106/106/106
f 107/107/107 106/106/106 112/112/112
f 112/112/112 113/113/113 107/107/107
f 108/108/108 107/107/107 113/113/113
f 113/113/113 114/114/114 108/108/108
f 109/109/109 108/108/108 114/114/114
f 114/114/114 115/115/115 109/109/109
f 110/110/110 109/109/109 115/115/115
f 115/115/115 116/116/116 110/110/110
f 78/78/78 110/110/110 116/116/116
f 116/116/116 117/117/117 78/78/78
f 112/112/112 111/111/111 118/118/118
f 118/118/118 119/119/119 112/112/112
f 113/113/113 112/112/112 119/119/119
f 119/119/119 120/120/120 113/113/113
f 114/114/114 113/113/113 120/120/120
f 120/120/120 121/121/121 114/114/114
f 115/115/115 114/114/114 121/121/121
f 121/121/121 122/122/122 115/115/115
f 116/116/116 115/115/115 122/122/122
f 122/122/122 123/123/123 116/116/116
f 117/117/117 116/116/116 123/123/123
f 123/123/123 64/64/64 117/117/117
f 119/119/119 118/118/118 124/124/124
f 124/124/124 125/125/125 119/119/119
f 120/120/120 119/119/119 125/125/125
f 125/125/125 126/126/126 120/120/120
f 121/121/121 120/120/120 126/126/126
f 126/126/126 127/127/127 121/121/121
f 122/122/122 121/121/121 127/127/127
f 127/127/127 128/128/128 122/122/122
f 123/123/123 122/122/122 128/128/128
f 128/128/128 129/129/129 123/123/123
f 64/64/64 123/123/123 129/129/129
f 129/129/129 57/57/57 64/64/64
f 125/125/125 124/124/124 2/2/2
f 2/2/2 1/1/1 125/125/125
f 126/126/126 125/125/125 1/1/1
f 1/1/1 5/5/5 126/126/126
f 127/127/127 126/126/126 5/5/5
f 5/5/5 7/7/7 127/127/127
f 128/128/128 127/127/127 7/7/7
f 7/7/7 9/9/9 128/128/128
f 129/129/129 128/128/128 9/9/9
f 9/9/9 11/11/11 129/129/129
f 57/57/57 129/129/129 11/11/11
f 11/11/11 13/13/13 57/57/57
f 130/130/130 131/131/131 132/132/132
f 132/132/132 133/133/133 130/130/130
f 134/134/134 130/130/130 133/133/133
f 133/133/133 135/135/135 134/134/134
f 136/136/136 134/134/134 135/135/135
f 135/135/135 137/137/137 136/136/136
f 138/138/138 136/136/136 137/137/137
f 137/137/137 139/139/139 138/138/138
f 140/140/140 138/138/138 139/139/139
f 139/139/139 141/141/141 140/140/140
f 86/86/86 140/140/140 141/141/141
f 141/141/141 87/87/87 86/86/86
f 133/133/133 132/132/132 142/142/142
f 142/142/142 143/143/143 133/133/133
f 135/135/135 133/133/133 143/143/143
f 143/143/143 144/144/144 135/135/135
f 137/137/137 135/135/135 144/144/144
f 144/144/144 145/145/145 137/137/137
f 139/139/139 137/137/137 145/145/145
f 145/145/145 146/146/146 139/139/139
f 141/141/141 139/139/139 146/146/146
f 146/146/146 147/147/147 141/141/141
f 87/87/87 141/141/141 147/147/147
f 147/147/147 88/88/88 87/87/87
f 143/143/143 142/142/142 148/148/148
f 148/148/148 149/149/149 143/143/143
f 144/144/144 143/143/143 149/149/149
f 149/149/149 150/150/150 144/144/144
f 145/145/145 144/144/144 150/150/150
f 150/150/150 151/151/151 145/145/145
f 146/146/146 145/145/145 151/151/151
f 151/151/151 152/152/152 146/146/146
f 147/147/147 146/146/146 152/152/152
f 152/152/152 153/153/153 147/147/147
f 88/88/88 147/147/147 153/153/153
f 153/153/153 89/89/89 88/88/88
f 149/149/149 148/148/148 154/154/154
f 154/154/154 155/155/155 149/149/149
f 150/150/150 149/149/149 155/155/155
f 155/155/155 156/156/156 150/150/150
f 151/151/151 150/150/150 156/156/156
f 156/156/156 157/157/157 151/151/151
f 152/152/152 151/151/151 157/157/157
f 157/157/157 158/158/158 152/152/152
f 153/153/153 152/152/152 158/158/158
f 158/158/158 159/159/159 153/153/153
f 89/89/89 153/153/153 159/159/159
f 159/159/159 90/90/90 89/89/89
f 155/155/155 154/154/154 160/160/160
f 160/160/160 161/161/161 155/155/155
f 156/156/156 155/155/155 161/161/161
f 161/161/161 162/162/162 156/156/156
f 157/157/157 156/156/156 162/162/162
f 162/162/162 163/163/163 157/157/157
f 158/158/158 157/157/157 163/163/163
f 163/163/163 164/164/164 158/158/158
f 159/159/159 158/158/158 164/164/164
f 164/164/164 165/165/165 159/159/159
f 90/90/90 159/159/159 165/165/165
f 165/165/165 91/91/91 90/90/90
f 161/161/161 160/160/160 94/94/94
f 94/94/94 93/93/93 161/161/161
f 162/162/162 161/161/161 93/93/93
f 93/93/93 97/97/97 162/162/162
f 163/163/163 162/162/162 97/97/97
f 97/97/97 99/99/99 163/163/163
f 164/164/164 163/163/163 99/99/99
f 99/99/99 101/101/101 164/164/164
f 165/165/165 164/164/164 101/101/101
f 101/101/101 103/103/103 165/165/165
f 91/91/91 165/165/165 103/103/103
f 103/103/103 92/92/92 91/91/91
f 132/132/132 131/131/131 166/166/166
f 166/166/166 167/167/167 132/132/132
f 142/142/142 132/132/132 167/167/167
f 167/167/167 168/168/168 142/142/142
f 148/148/148 142/142/142 168/168/168
f 168/168/168 169/169/169 148/148/148
f 154/154/154 148/148/148 169/169/169
f 169/169/169 170/170/170 154/154/154
f 160/160/160 154/154/154 170/170/170
f 170/170/170 171/171/171 160/160/160
f 94/94/94 160/160/160 171/171/171
f 171/171/171 95/95/95 94/94/94
f 167/167/167 166/166/166 172/172/172
f 172/172/172 173/173/173 167/167/167
f 168/168/168 167/167/167 173/173/173
f 173/173/173 174/174/174 168/168/168
f 169/169/169 168/168/168 174/174/174
f 174/174/174 175/175/175 169/169/169
f 170/170/170 169/169/169 175/175/175
f 175/175/175 176/176/176 170/170/170
f 171/171/171 170/170/170 176/176/176
f 176/176/176 177/177/177 171/171/171
f 95/95/95 171/171/171 177/177/177
f 177/177/177 105/105/105 95/95/95
f 173/173/173 172/172/172 178/178/178
f 178/178/178 179/179/179 173/173/173
f 174/174/174 173/173/173 179/179/179
f 179/179/179 180/180/180 174/174/174
f 175/175/175 174/174/174 180/180/180
f 180/180/180 181/181/181 175/175/175
f 176/176/176 175/175/175 181/181/181
f 181/181/181 182/182/182 176/176/176
f 177/177/177 176/176/176 182/182/182
f 182/182/182 183/183/183 177/177/177
f 105/105/105 177/177/177 183/183/183
f 183/183/183 111/111/111 105/105/105
f 179/179/179 178/178/178 184/184/184
f 184/184/184 185/185/185 179/179/179
f 180/180/180 179/179/179 185/185/185
f 185/185/185 186/186/186 180/180/180
f 181/181/181 180/180/180 186/186/186
f 186/186/186 187/187/187 181/181/181
f 182/182/182 181/181/181 187/187/187
f 187/187/187 188/188/188 182/182/182
f 183/183/183 182/182/182 188/188/188
f 188/188/188 189/189/189 183/183/183
f 111/111/111 183/183/183 189/189/189
f 189/189/189 118/118/118 111/111/111
f 185/185/185 184/184/184 190/190/190
f 190/190/190 191/191/191 185/185/185
f 186/186/186 185/185/185 191/191/191
f 191/191/191 192/192/192 186/186/186
f 187/187/187 186/186/186 192/192/192
f 192/192/192 193/193/193 187/187/187
f 188/188/188 187/187/187 193/193/193
f 193/193/193 194/194/194 188/188/188
f 189/189/189 188/188/188 194/194/194
f 194/194/194 195/195/195 189/189/189
f 118/118/118 189/189/189 195/195/195
f 195/195/195 124/124/124 118/118/118
f 191/191/191 190/190/190 43/43/43
f 43/43/43 36/36/36 191/191/191
f 192/192/192 191/191/191 36/36/36
f 36/36/36 29/29/29 192/192/192
f 193/193/193 192/192/192 29/29/29
f 29/29/29 196/196/196 193/193/193
f 194/194/194 193/193/193 196/196/196
f 196/196/196 15/15/15 194/194/194
f 195/195/195 194/194/194 15/15/15
f 15/15/15 3/3/3 195/195/195
f 124/124/124 195/195/195 3/3/3
f 3/3/3 2/2/2 124/124/124
f 197/197/197 198/198/198 199/199/199
f 199/199/199 200/200/200 197/197/197
f 201/201/201 197/197/197 200/200/200
f 200/200/200 202/202/202 201/201/201
f 203/203/203 201/201/201 202/202/202
f 202/202/202 204/204/204 203/203/203
f 205/205/205 203/203/203 204/204/204
f 204/204/204 206/206/206 205/205/205
f 207/207/207 205/205/205 206/206/206
f 206/206/206 208/208/208 207/207/207
f 209/209/209 207/207/207 208/208/208
f 208/208/208 210/210/210 209/209/209
f 200/200/200 199/199/199 211/211/211
f 211/211/211 212/212/212 200/200/200
f 202/202/202 200/200/200 212/212/212
f 212/212/212 213/213/213 202/202/202
f 204/204/204 202/202/202 213/213/213
f 213/213/213 214/214/214 204/204/204
f 206/206/206 204/204/204 214/214/214
f 214/214/214 215/215/215 206/206/206
f 208/208/208 206/206/206 215/215/215
f 215/215/215 216/216/216 208/208/208
f 210/210/210 208/208/208 216/216/216
f 216/216/216 217/217/217 210/210/210
f 212/212/212 211/211/211 218/218/218
f 218/218/218 219/219/219 212/212/212
f 213/213/213 212/212/212 219/219/219
f 219/219/219 220/220/220 213/213/213
f 214/214/214 213/213/213 220/220/220
f 220/220/220 221/221/221 214/214/214
f 215/215/215 214/214/214 221/221/221
f 221/221/221 222/222/222 215/215/215
f 216/216/216 215/215/215 222/222/222
f 222/222/222 223/223/223 216/216/216
f 217/217/217 216/216/216 223/223/223
f 223/223/223 224/224/224 217/217/217
f 219/219/219 218/218/218 225/225/225
f 225/225/225 226/226/226 219/219/219
f 220/220/220 219/219/219 226/226/226
f 226/226/226 227/227/227 220/220/220
f 221/221/221 220/220/220 227/227/227
f 227/227/227 228/228/228 221/221/221
f 222/222/222 221/221/221 228/228/228
f 228/228/228 229/229/229 222/222/222
f 223/223/223 222/222/222 229/229/229
f 229/229/229 230/230/230 223/223/223
f 224/224/224 223/223/223 230/230/230
f 230/230/230 231/231/231 224/224/224
f 226/226/226 225/225/225 232/232/232
f 232/232/232 233/233/233 226/226/226
f 227/227/227 226/226/226 233/233/233
f 233/233/233 234/234/234 227/227/227
f 228/228/228 227/227/227 234/234/234
f 234/234/234 235/235/235 228/228/228
f 229/229/229 228/228/228 235/235/235
f 235/235/235 236/236/236 229/229/229
f 230/230/230 229/229/229 236/236/236
f 236/236/236 237/237/237 230/230/230
f 231/231/231 230/230/230 237/237/237
f 237/237/237 238/238/238 231/231/231
f 233/233/233 232/232/232 239/239/239
f 239/239/239 240/240/240 233/233/233
f 234/234/234 233/233/233 240/240/240
f 240/240/240 241/241/241 234/234/234
f 235/235/235 234/234/234 241/241/241
f 241/241/241 242/242/242 235/235/235
f 236/236/236 235/235/235 242/242/242
f 242/242/242 243/243/243 236/236/236
f 237/237/237 236/236/236 243/243/243
f 243/243/243 244/244/244 237/237/237
f 238/238/238 237/237/237 244/244/244
f 244/244/244 245/245/245 238/238/238