mtllib 55052607.mtl
o Mesh

v -0.14119799435138702 -1.0 0.36087799072265625
v -0.13801799714565277 -0.9003839492797852 0.35901299118995667
v -0.2286600023508072 -0.9003839492797852 0.2550309896469116
v -0.2331860065460205 -1.0 0.25733500719070435
v -0.015541000291705132 -1.0 0.3864020109176636
v -0.014198999851942062 -0.9003839492797852 0.38619598746299744
v 0.11011599749326706 -1.0 0.36087799072265625
v 0.10961899906396866 -0.9003839492797852 0.35901299118995667
v -0.014198999851942062 -0.9003839492797852 0.38619598746299744
v -0.015541000291705132 -1.0 0.3864020109176636
v 0.20210300385951996 -1.0 0.25733500719070435
v 0.20026099681854248 -0.9003839492797852 0.2550309896469116
v 0.2357729971408844 -1.0 0.11013299971818924
v 0.23343800008296967 -0.9003839492797852 0.10893099755048752
v 0.20210300385951996 -1.0 -0.014813000336289406
v 0.20026099681854248 -0.9014149904251099 -0.017640000209212303
v 0.08953099697828293 -1.0 -0.4823879897594452
v 0.08911900222301483 -0.9493499994277954 -0.5117599964141846
v 0.16441799700260162 -0.9679700136184692 -0.43565499782562256
v 0.16594800353050232 -1.0 -0.4108150005340576
v -0.014856000430881977 -1.0 -0.49835801124572754
v -0.01374099962413311 -0.9412150382995605 -0.5293880105018616
v 0.08911900222301483 -0.9493499994277954 -0.5117599964141846
v 0.08953099697828293 -1.0 -0.4823879897594452
v -0.11924300342798233 -1.0 -0.44893598556518555
v -0.11660200357437134 -0.9569669961929321 -0.47830700874328613
v -0.2031950056552887 -1.0 -0.3517110049724579
v -0.1994359940290451 -0.980692982673645 -0.3765510022640228
v -0.26685500144958496 -1.0 0.11013299971818924
v -0.2618370056152344 -0.9003839492797852 0.10893099755048752
v -0.2549479901790619 -0.9141379594802856 -0.017640000209212303
v -0.26656100153923035 -1.0 -0.014813000336289406
v -0.14119799435138702 -1.0 0.36087799072265625
v -0.2331860065460205 -1.0 0.25733500719070435
v -0.015541000291705132 -1.0 0.09252999722957611
v -0.015541000291705132 -1.0 0.3864020109176636
v 0.11011599749326706 -1.0 0.36087799072265625
v 0.20210300385951996 -1.0 0.25733500719070435
v 0.2357729971408844 -1.0 0.11013299971818924
v 0.20210300385951996 -1.0 -0.014813000336289406
v 0.11011599749326706 -1.0 -0.035360001027584076
v -0.015541000291705132 -1.0 -0.060885000973939896
v -0.14119799435138702 -1.0 -0.035360001027584076
v -0.26656100153923035 -1.0 -0.014813000336289406
v -0.26685500144958496 -1.0 0.11013299971818924
v -0.07840000092983246 1.0371860265731812 0.1992969959974289
v -0.029702000319957733 1.1071029901504517 0.12578099966049194
v -0.09968899935483932 1.1071029901504517 0.06412900239229202
v -0.18490499258041382 1.0371860265731812 0.10280399769544601
v 0.06708899885416031 1.0371860265731812 0.2346149981021881
v 0.06590200215578079 1.1071029901504517 0.14834800362586975
v 0.2125770002603531 1.0371860265731812 0.1992969959974289
v 0.16150599718093872 1.1071029901504517 0.12578099966049194
v 0.31908199191093445 1.0371860265731812 0.10280399769544601
v 0.2314929962158203 1.1071029901504517 0.06412900239229202
v 0.3580470085144043 1.0371860265731812 -0.029006000608205795
v 0.25710999965667725 1.1071029901504517 -0.020089000463485718
v 0.31908199191093445 1.0371860265731812 -0.1608159989118576
v 0.2314929962158203 1.1071029901504517 -0.10430700331926346
v 0.2125770002603531 1.0371860265731812 -0.2573089897632599
v 0.16150599718093872 1.1071029901504517 -0.16595999896526337
v 0.06708899885416031 1.0371860265731812 -0.2926279902458191
v 0.06590200215578079 1.1071029901504517 -0.18852800130844116
v -0.07840000092983246 1.0371860265731812 -0.2573089897632599
v -0.029702000319957733 1.1071029901504517 -0.16596099734306335
v -0.18490499258041382 1.0371860265731812 -0.1608169972896576
v -0.09968899935483932 1.1071029901504517 -0.10430800169706345
v -0.22388799488544464 1.0371860265731812 -0.029006000608205795
v -0.12530599534511566 1.1071029901504517 -0.020090000703930855
v 0.11998900026082993 -0.680590033531189 -0.16720399260520935
v -0.012570000253617764 -0.6778179407119751 -0.20350199937820435
v -0.008496999740600586 -0.5461809635162354 -0.16035400331020355
v 0.09862600266933441 -0.5442359447479248 -0.12258599698543549
v 0.17704500257968903 -0.538923978805542 -0.019404999911785126
v 0.21409499645233154 -0.7562509775161743 -0.020135000348091125
v 0.21409499645233154 -0.7562509775161743 -0.020135000348091125
v 0.17704500257968903 -0.538923978805542 -0.019404999911785126
v 0.20574800670146942 -0.531667947769165 0.10246799886226654
v 0.24583700299263 -0.7735409736633301 0.12191200256347656
v 0.17704500257968903 -0.524412989616394 0.21422399580478668
v 0.2130039930343628 -0.7605290412902832 0.27744200825691223
v 0.09862600266933441 -0.5191010236740112 0.3174059987068176
v 0.11910799890756607 -0.7496249675750732 0.38489800691604614
v -0.008496999740600586 -0.5171569585800171 0.3551740050315857
v -0.012210000306367874 -0.7491240501403809 0.4201950132846832
v -0.1434909999370575 -0.7487659454345703 0.38482698798179626
v -0.012210000306367874 -0.7491240501403809 0.4201950132846832
v -0.008496999740600586 -0.5171569585800171 0.3551740050315857
v -0.11561799794435501 -0.5191010236740112 0.3174059987068176
v -0.23762300610542297 -0.7590839862823486 0.2773660123348236
v -0.19403700530529022 -0.524412989616394 0.21422399580478668
v -0.2714279890060425 -0.771075963973999 0.12273299694061279
v -0.2227409929037094 -0.531667947769165 0.10246799886226654
v -0.19403700530529022 -0.538923978805542 -0.019404999911785126
v -0.252144992351532 -0.7845809459686279 -0.019665999338030815
v -0.14442400634288788 -0.7106039524078369 -0.16747599840164185
v -0.252144992351532 -0.7845809459686279 -0.019665999338030815
v -0.19403700530529022 -0.538923978805542 -0.019404999911785126
v -0.11561799794435501 -0.5442359447479248 -0.12258599698543549
v -0.3758229911327362 0.1288679838180542 -0.22967800498008728
v -0.43613699078559875 0.13714301586151123 0.0025770000647753477
v -0.3791010081768036 0.5236650109291077 -0.011738999746739864
v -0.32491999864578247 0.5203779935836792 -0.22343699634075165
v -0.21104300022125244 0.12267100811004639 -0.40227898955345154
v -0.3758229911327362 0.1288679838180542 -0.22967800498008728
v -0.32491999864578247 0.5203779935836792 -0.22343699634075165
v -0.17689600586891174 0.5177839994430542 -0.3816930055618286
v 0.014049000106751919 0.12040197849273682 -0.46545499563217163
v 0.025307999923825264 0.5168330073356628 -0.4396190047264099
v 0.23914100229740143 0.12267100811004639 -0.40227898955345154
v 0.22751200199127197 0.5177839994430542 -0.3816930055618286
v 0.4039199948310852 0.1288679838180542 -0.22967800498008728
v 0.23914100229740143 0.12267100811004639 -0.40227898955345154
v 0.22751200199127197 0.5177839994430542 -0.3816930055618286
v 0.3755359947681427 0.5203779935836792 -0.22343699634075165
v 0.41565001010894775 0.5236650109291077 -0.011738999746739864
v 0.4583730101585388 0.13714301586151123 0.0025770000647753477
v 0.3755359947681427 0.5272070169448853 0.2044440060853958
v 0.4039199948310852 0.14675599336624146 0.2513059973716736
v 0.4039199948310852 0.14675599336624146 0.2513059973716736
v 0.3755359947681427 0.5272070169448853 0.2044440060853958
v 0.22751200199127197 0.5298019647598267 0.3627009987831116
v 0.23914100229740143 0.15295201539993286 0.42390701174736023
v 0.025307999923825264 0.5307530164718628 0.4206260144710541
v 0.014049000106751919 0.15522199869155884 0.48708298802375793
v -0.17689600586891174 0.5298019647598267 0.3627009987831116
v -0.21104399859905243 0.15295201539993286 0.42390701174736023
v -0.3758229911327362 0.14675599336624146 0.2513059973716736
v -0.21104399859905243 0.15295201539993286 0.42390701174736023
v -0.17689600586891174 0.5298019647598267 0.3627009987831116
v -0.32491999864578247 0.5272070169448853 0.2044440060853958
v -0.09441100060939789 0.9568809866905212 -0.27473199367523193
v -0.2014019936323166 0.9568809866905212 -0.17043399810791016
v -0.18490499258041382 1.0371860265731812 -0.1608169972896576
v -0.07840000092983246 1.0371860265731812 -0.2573089897632599
v 0.051739998161792755 0.9568809866905212 -0.31290799379348755
v 0.06708899885416031 1.0371860265731812 -0.2926279902458191
v 0.1978919953107834 0.9568809866905212 -0.27473199367523193
v 0.2125770002603531 1.0371860265731812 -0.2573089897632599
v 0.3048819899559021 0.9568809866905212 -0.17043399810791016
v 0.1978919953107834 0.9568809866905212 -0.27473199367523193
v 0.2125770002603531 1.0371860265731812 -0.2573089897632599
v 0.31908199191093445 1.0371860265731812 -0.1608159989118576
v 0.33992999792099 0.9568809866905212 -0.02796100080013275
v 0.3580470085144043 1.0371860265731812 -0.029006000608205795
v 0.31908199191093445 1.0371860265731812 0.10280399769544601
v 0.3048819899559021 0.9568809866905212 0.11451199650764465
v 0.3048819899559021 0.9568809866905212 0.11451199650764465
v 0.31908199191093445 1.0371860265731812 0.10280399769544601
v 0.2125770002603531 1.0371860265731812 0.1992969959974289
v 0.1978919953107834 0.9568809866905212 0.21881000697612762
v 0.06708899885416031 1.0371860265731812 0.2346149981021881
v 0.051739998161792755 0.9568809866905212 0.25698500871658325
v -0.07840000092983246 1.0371860265731812 0.1992969959974289
v -0.09441100060939789 0.9568809866905212 0.21881000697612762
v -0.09441100060939789 0.9568809866905212 0.21881000697612762
v -0.07840000092983246 1.0371860265731812 0.1992969959974289
v -0.18490499258041382 1.0371860265731812 0.10280399769544601
v -0.2014019936323166 0.9568809866905212 0.11451199650764465
v -0.24056300520896912 0.9568809866905212 -0.02796100080013275
v -0.22388799488544464 1.0371860265731812 -0.029006000608205795
v -0.18490499258041382 1.0371860265731812 -0.1608169972896576
v -0.2014019936323166 0.9568809866905212 -0.17043399810791016
v -0.15031200647354126 -0.33080101013183594 -0.20603300631046295
v -0.159510999917984 -0.2604789733886719 -0.22356800734996796
v 0.0003589999978430569 -0.27131903171539307 -0.267441987991333
v -2.9999999242136255e-05 -0.33625102043151855 -0.2488439977169037
v 0.15025299787521362 -0.33080101013183594 -0.20603300631046295
v 0.16047100722789764 -0.271854043006897 -0.22356800734996796
v 0.2602680027484894 -0.3159090280532837 -0.08906800299882889
v 0.15025299787521362 -0.33080101013183594 -0.20603300631046295
v 0.16047100722789764 -0.271854043006897 -0.22356800734996796
v 0.2779259979724884 -0.26194000244140625 -0.10370100289583206
v 0.32124999165534973 -0.24423396587371826 0.06003899872303009
v 0.30053699016571045 -0.29556798934936523 0.07070799916982651
v 0.27892300486564636 -0.22067701816558838 0.24915699660778046
v 0.2602680027484894 -0.2735079526901245 0.2460169941186905
v 0.2602680027484894 -0.2735079526901245 0.2460169941186905
v 0.27892300486564636 -0.22067701816558838 0.24915699660778046
v 0.16213299334049225 -0.20243501663208008 0.36902400851249695
v 0.15025299787521362 -0.2586170434951782 0.36298099160194397
v 0.0022640000097453594 -0.1915949583053589 0.4128980040550232
v -2.9999999242136255e-05 -0.25316596031188965 0.4057930111885071
v -0.1578499972820282 -0.19105899333953857 0.36902400851249695
v -0.15031200647354126 -0.2586170434951782 0.36298099160194397
v -0.15031200647354126 -0.2586170434951782 0.36298099160194397
v -0.1578499972820282 -0.19105899333953857 0.36902400851249695
v -0.27530398964881897 -0.2009739875793457 0.24915699660778046
v -0.260327011346817 -0.2735079526901245 0.2460169941186905
v -0.31871700286865234 -0.2214829921722412 0.06003899872303009
v -0.3005959987640381 -0.29556798934936523 0.07070799916982651
v -0.27630099654197693 -0.24223697185516357 -0.10370100289583206
v -0.260327011346817 -0.3159090280532837 -0.08906800299882889
v -0.260327011346817 -0.3159090280532837 -0.08906800299882889
v -0.27630099654197693 -0.24223697185516357 -0.10370100289583206
v -0.13665400445461273 0.7850199937820435 -0.3319459855556488
v 0.03853200003504753 0.7850199937820435 -0.3817720115184784
v 0.21371899545192719 0.7850199937820435 -0.3319459855556488
v 0.21371899545192719 0.7850199937820435 -0.3319459855556488
v 0.341964989900589 0.7850199937820435 -0.1958180069923401
v 0.3777979910373688 0.7850199937820435 -0.009863000363111496
v 0.341964989900589 0.7850199937820435 0.1760919988155365
v 0.341964989900589 0.7850199937820435 0.1760919988155365
v 0.21371899545192719 0.7850199937820435 0.3122200071811676
v 0.03853200003504753 0.7850199937820435 0.3620449900627136
v -0.13665400445461273 0.7850199937820435 0.3122200071811676
v -0.13665400445461273 0.7850199937820435 0.3122200071811676
v -0.2649010121822357 0.7850199937820435 0.1760919988155365
v -0.31184300780296326 0.7850199937820435 -0.009863000363111496
v -0.2649010121822357 0.7850199937820435 -0.1958180069923401
v -0.2649010121822357 0.7850199937820435 -0.1958180069923401
v 0.06590200215578079 1.1464300155639648 -0.019891999661922455
v -0.19022899866104126 -0.3560349941253662 -0.037064000964164734
v -0.22012899816036224 -0.34113597869873047 0.08992499858140945
v -0.19022899866104126 -0.3262380361557007 0.21691599488258362
v -0.10853999853134155 -0.31533002853393555 0.30987900495529175
v 0.003046999918296933 -0.311337947845459 0.3439059853553772
v 0.003046999918296933 -0.311337947845459 0.3439059853553772
v 0.11463599652051926 -0.31533002853393555 0.30987900495529175
v 0.19632400572299957 -0.3262380361557007 0.21691599488258362
v 0.22622400522232056 -0.34113597869873047 0.08992499858140945
v 0.19632400572299957 -0.3560349941253662 -0.037064000964164734
v 0.11463599652051926 -0.36694204807281494 -0.13002899289131165
v 0.19632400572299957 -0.3560349941253662 -0.037064000964164734
v 0.003046999918296933 -0.37093400955200195 -0.1640550047159195
v -0.10853999853134155 -0.36694204807281494 -0.13002899289131165
v -0.19022899866104126 -0.3560349941253662 -0.037064000964164734
v 0.11385399848222733 -1.0 -0.23325000703334808
v 0.20254799723625183 -1.0000650882720947 -0.16908299922943115
v 0.09632200002670288 -0.6942780017852783 -0.13481199741363525
v 0.17823800444602966 -0.7565300464630127 -0.004567000083625317
v 0.18478700518608093 -0.8372859954833984 -0.1873359978199005
v 0.09328100085258484 -0.8104029893875122 -0.25165799260139465
v 0.20254799723625183 -1.0000650882720947 -0.16908299922943115
v 0.2006639987230301 -0.9554140567779541 -0.17647400498390198
v -0.015022000297904015 -1.0 -0.2587740123271942
v -0.011610999703407288 -0.798272967338562 -0.2770240008831024
v -0.01221499964594841 -0.684406042098999 -0.1660420000553131
v -0.14389799535274506 -1.0 -0.23325000703334808
v -0.12826299667358398 -0.8418229818344116 -0.23079299926757812
v -0.12217199802398682 -0.7158269882202148 -0.13740600645542145
v -0.2382429987192154 -1.0 -0.15280799567699432
v -0.23359699547290802 -0.9814740419387817 -0.15066799521446228
v -0.2382429987192154 -1.0 -0.15280799567699432
v -0.21365900337696075 -0.9017410278320312 -0.14085499942302704
v -0.216498002409935 -0.7879509925842285 -0.004567999858409166
v -0.1127220019698143 -0.8512049913406372 -0.35057899355888367
v -0.1065789982676506 -0.8412200212478638 -0.4783790111541748
v -0.1832820028066635 -0.8998130559921265 -0.36996400356292725
v -0.21717900037765503 -0.9104399681091309 -0.2552500069141388
v -0.23554499447345734 -0.981071949005127 -0.25193700194358826
v -0.23959800601005554 -1.0 -0.23556099832057953
v -0.12733100354671478 -1.0 -0.30726900696754456
v -0.23959800601005554 -1.0 -0.23556099832057953
v -0.2031950056552887 -1.0 -0.3517110049724579
v -0.11924300342798233 -1.0 -0.44893598556518555
v -0.014856000430881977 -1.0 -0.3396880030632019
v -0.014856000430881977 -1.0 -0.49835801124572754
v 0.08953099697828293 -1.0 -0.4823879897594452
v 0.09606199711561203 -1.0 -0.34105101227760315
v 0.16594800353050232 -1.0 -0.4108150005340576
v 0.21661099791526794 -1.0 -0.2957330048084259
v 0.21498699486255646 -0.9630270004272461 -0.31373900175094604
v 0.21661099791526794 -1.0 -0.2957330048084259
v 0.08944100141525269 -0.8273969888687134 -0.3819670081138611
v 0.20228900015354156 -0.8658750057220459 -0.315421998500824
v 0.15156300365924835 -0.8683919906616211 -0.429067999124527
v 0.08239399641752243 -0.8224060535430908 -0.5118299722671509
v -0.01091499999165535 -0.8224530220031738 -0.38709399104118347
v -0.01209300011396408 -0.8147209882736206 -0.5318959951400757
v 0.08239399641752243 -0.8224060535430908 -0.5118299722671509
v -0.30895400047302246 -0.16516101360321045 -0.14419899880886078
v -0.35663700103759766 -0.14864695072174072 0.03778199851512909
v -0.42375001311302185 -0.0782320499420166 0.012586000375449657
v -0.36647799611091614 -0.09082496166229248 -0.2075899988412857
v -0.3076860010623932 -0.13397598266601562 0.2465820014476776
v -0.36566299200057983 -0.06784796714782715 0.2550860047340393
v -0.1754080057144165 -0.1297379732131958 0.38058900833129883
v -0.2078929990530014 -0.06561899185180664 0.4181160032749176
v -0.1754080057144165 -0.1297379732131958 0.38058900833129883
v 0.004861999768763781 -0.13440895080566406 0.42963799834251404
v 0.007346999831497669 -0.07038795948028564 0.4777880012989044
v -0.2078929990530014 -0.06561899185180664 0.4181160032749176
v 0.1848209947347641 -0.14673805236816406 0.38058900833129883
v 0.2223840057849884 -0.08087801933288574 0.4181160032749176
v 0.3162490129470825 -0.16342103481292725 0.2465820014476776
v 0.37959998846054077 -0.09427797794342041 0.2550860047340393
v 0.36382201313972473 -0.1826469898223877 0.03778199851512909
v 0.43680500984191895 -0.10875105857849121 0.012586000375449657
v 0.37959998846054077 -0.09427797794342041 0.2550860047340393
v 0.3162490129470825 -0.16342103481292725 0.2465820014476776
v 0.31498199701309204 -0.19460594654083252 -0.14419899880886078
v 0.37878501415252686 -0.11725497245788574 -0.2075899988412857
v 0.18270300328731537 -0.19884395599365234 -0.278205007314682
v 0.22101500630378723 -0.11948394775390625 -0.370618999004364
v 0.0024339999072253704 -0.19417297840118408 -0.3272550106048584
v 0.0057749999687075615 -0.11471498012542725 -0.430292010307312
v 0.22101500630378723 -0.11948394775390625 -0.370618999004364
v 0.18270300328731537 -0.19884395599365234 -0.278205007314682
v -0.17752499878406525 -0.18184399604797363 -0.278205007314682
v -0.20926199853420258 -0.1042250394821167 -0.370618999004364
v -0.30895400047302246 -0.16516101360321045 -0.14419899880886078
v -0.36647799611091614 -0.09082496166229248 -0.2075899988412857
v 0.003046999918296933 -0.37093400955200195 -0.1640550047159195
v -2.9999999242136255e-05 -0.33625102043151855 -0.2488439977169037
v 0.15025299787521362 -0.33080101013183594 -0.20603300631046295
v 0.11463599652051926 -0.36694204807281494 -0.13002899289131165
v -0.10853999853134155 -0.36694204807281494 -0.13002899289131165
v -0.15031200647354126 -0.33080101013183594 -0.20603300631046295
v -0.260327011346817 -0.3159090280532837 -0.08906800299882889
v -0.19022899866104126 -0.3560349941253662 -0.037064000964164734
v -0.3005959987640381 -0.29556798934936523 0.07070799916982651
v -0.22012899816036224 -0.34113597869873047 0.08992499858140945
v -0.260327011346817 -0.2735079526901245 0.2460169941186905
v -0.19022899866104126 -0.3262380361557007 0.21691599488258362
v -0.15031200647354126 -0.2586170434951782 0.36298099160194397
v -0.10853999853134155 -0.31533002853393555 0.30987900495529175
v -2.9999999242136255e-05 -0.25316596031188965 0.4057930111885071
v -0.15031200647354126 -0.2586170434951782 0.36298099160194397
v -0.10853999853134155 -0.31533002853393555 0.30987900495529175
v 0.003046999918296933 -0.311337947845459 0.3439059853553772
v 0.15025299787521362 -0.2586170434951782 0.36298099160194397
v -2.9999999242136255e-05 -0.25316596031188965 0.4057930111885071
v 0.003046999918296933 -0.311337947845459 0.3439059853553772
v 0.11463599652051926 -0.31533002853393555 0.30987900495529175
v 0.2602680027484894 -0.2735079526901245 0.2460169941186905
v 0.15025299787521362 -0.2586170434951782 0.36298099160194397
v 0.11463599652051926 -0.31533002853393555 0.30987900495529175
v 0.19632400572299957 -0.3262380361557007 0.21691599488258362
v 0.22622400522232056 -0.34113597869873047 0.08992499858140945
v 0.30053699016571045 -0.29556798934936523 0.07070799916982651
v 0.2602680027484894 -0.2735079526901245 0.2460169941186905
v 0.19632400572299957 -0.3262380361557007 0.21691599488258362
v 0.19632400572299957 -0.3560349941253662 -0.037064000964164734
v 0.2602680027484894 -0.3159090280532837 -0.08906800299882889
v 0.30053699016571045 -0.29556798934936523 0.07070799916982651
v 0.22622400522232056 -0.34113597869873047 0.08992499858140945
v 0.11463599652051926 -0.36694204807281494 -0.13002899289131165
v 0.15025299787521362 -0.33080101013183594 -0.20603300631046295
v 0.2602680027484894 -0.3159090280532837 -0.08906800299882889
v 0.19632400572299957 -0.3560349941253662 -0.037064000964164734
v -0.1832820028066635 -0.8998130559921265 -0.36996400356292725
v -0.1065789982676506 -0.8412200212478638 -0.4783790111541748
v -0.01209300011396408 -0.8147209882736206 -0.5318959951400757
v 0.08239399641752243 -0.8224060535430908 -0.5118299722671509
v 0.08911900222301483 -0.9493499994277954 -0.5117599964141846
v 0.08239399641752243 -0.8224060535430908 -0.5118299722671509
v 0.15156300365924835 -0.8683919906616211 -0.429067999124527
v 0.20228900015354156 -0.8658750057220459 -0.315421998500824
v 0.18478700518608093 -0.8372859954833984 -0.1873359978199005
v 0.17823800444602966 -0.7565300464630127 -0.004567000083625317
v 0.20717500150203705 -0.7739160060882568 0.12192200124263763
v 0.17810800671577454 -0.76317298412323 0.260699987411499
v 0.09774299710988998 -0.7539839744567871 0.3538169860839844
v -0.01221499964594841 -0.7539839744567871 0.38245299458503723
v -0.01221499964594841 -0.7539839744567871 0.38245299458503723
v -0.12217199802398682 -0.7539839744567871 0.3538169860839844
v -0.20279699563980103 -0.76317298412323 0.260699987411499
v -0.23265500366687775 -0.7739160060882568 0.12192200124263763
v -0.216498002409935 -0.7879509925842285 -0.004567999858409166
v -0.21365900337696075 -0.9017410278320312 -0.14085499942302704
v -0.21717900037765503 -0.9104399681091309 -0.2552500069141388
v 0.09328100085258484 -0.8104029893875122 -0.25165799260139465
v 0.18478700518608093 -0.8372859954833984 -0.1873359978199005
v 0.2006639987230301 -0.9554140567779541 -0.17647400498390198
v 0.18478700518608093 -0.8372859954833984 -0.1873359978199005
v 0.20254799723625183 -1.0000650882720947 -0.16908299922943115
v -0.23359699547290802 -0.9814740419387817 -0.15066799521446228
v -0.2382429987192154 -1.0 -0.15280799567699432
v -0.21365900337696075 -0.9017410278320312 -0.14085499942302704
v -0.12826299667358398 -0.8418229818344116 -0.23079299926757812
v -0.21365900337696075 -0.9017410278320312 -0.14085499942302704
v -0.011610999703407288 -0.798272967338562 -0.2770240008831024
v -0.15332700312137604 -0.21239399909973145 -0.21225999295711517
v 0.0006459999713115394 -0.22608494758605957 -0.2534399926662445
v 0.15500900149345398 -0.23068296909332275 -0.21225999295711517
v 0.15500900149345398 -0.23068296909332275 -0.21225999295711517
v 0.2684040069580078 -0.22495603561401367 -0.09975399821996689
v 0.3104430139064789 -0.21043896675109863 0.05393100157380104
v 0.27000701427459717 -0.1876920461654663 0.23776599764823914
v 0.27000701427459717 -0.1876920461654663 0.23776599764823914
v 0.15768100321292877 -0.16857600212097168 0.350271999835968
v 0.0037090000696480274 -0.15488505363464355 0.39145100116729736
v -0.15065500140190125 -0.15028703212738037 0.350271999835968
v -0.15065500140190125 -0.15028703212738037 0.350271999835968
v -0.2640489935874939 -0.15601301193237305 0.23776599764823914
v -0.3062320053577423 -0.17385900020599365 0.05393100157380104
v -0.26565200090408325 -0.19327795505523682 -0.09975399821996689
v -0.26565200090408325 -0.19327795505523682 -0.09975399821996689
v 0.09632200002670288 -0.6942780017852783 -0.13481199741363525
v -0.01221499964594841 -0.684406042098999 -0.1660420000553131
v -0.012570000253617764 -0.6778179407119751 -0.20350199937820435
v 0.11998900026082993 -0.680590033531189 -0.16720399260520935
v 0.21409499645233154 -0.7562509775161743 -0.020135000348091125
v 0.17823800444602966 -0.7565300464630127 -0.004567000083625317
v 0.20717500150203705 -0.7739160060882568 0.12192200124263763
v 0.17823800444602966 -0.7565300464630127 -0.004567000083625317
v 0.21409499645233154 -0.7562509775161743 -0.020135000348091125
v 0.24583700299263 -0.7735409736633301 0.12191200256347656
v 0.17810800671577454 -0.76317298412323 0.260699987411499
v 0.2130039930343628 -0.7605290412902832 0.27744200825691223
v 0.11910799890756607 -0.7496249675750732 0.38489800691604614
v 0.09774299710988998 -0.7539839744567871 0.3538169860839844
v -0.012210000306367874 -0.7491240501403809 0.4201950132846832
v -0.01221499964594841 -0.7539839744567871 0.38245299458503723
v -0.12217199802398682 -0.7539839744567871 0.3538169860839844
v -0.01221499964594841 -0.7539839744567871 0.38245299458503723
v -0.012210000306367874 -0.7491240501403809 0.4201950132846832
v -0.1434909999370575 -0.7487659454345703 0.38482698798179626
v -0.23762300610542297 -0.7590839862823486 0.2773660123348236
v -0.20279699563980103 -0.76317298412323 0.260699987411499
v -0.2714279890060425 -0.771075963973999 0.12273299694061279
v -0.23265500366687775 -0.7739160060882568 0.12192200124263763
v -0.216498002409935 -0.7879509925842285 -0.004567999858409166
v -0.252144992351532 -0.7845809459686279 -0.019665999338030815
v -0.12217199802398682 -0.7158269882202148 -0.13740600645542145
v -0.216498002409935 -0.7879509925842285 -0.004567999858409166
v -0.252144992351532 -0.7845809459686279 -0.019665999338030815
v -0.14442400634288788 -0.7106039524078369 -0.16747599840164185
v 0.009681999683380127 -0.004027962684631348 -0.45504701137542725
v -0.21396100521087646 0.0027379989624023438 -0.39264699816703796
v -0.3775689899921417 0.012948989868164062 -0.2221670001745224
v -0.3775689899921417 0.012948989868164062 -0.2221670001745224
v -0.4373059868812561 0.023712992668151855 0.007668999955058098
v -0.3771269917488098 0.033914029598236084 0.25744301080703735
v -0.21321800351142883 0.03807002305984497 0.4279240071773529
v 0.010533999651670456 0.036563992500305176 0.490323007106781
v -0.21321800351142883 0.03807002305984497 0.4279240071773529
v 0.23417699337005615 0.02979797124862671 0.4279240071773529
v 0.3977850079536438 0.01958698034286499 0.25744301080703735
v 0.45469799637794495 0.007169008255004883 0.007668999955058098
v 0.3977850079536438 0.01958698034286499 0.25744301080703735
v 0.3973439931869507 -0.0013780593872070312 -0.2221670001745224
v 0.2334350049495697 -0.005534052848815918 -0.39264699816703796
v 0.2334350049495697 -0.005534052848815918 -0.39264699816703796

vn -0.5042740106582642 0.035016000270843506 0.8628339767456055
vn -0.512615978717804 0.05832299962639809 0.8566349744796753
vn -0.8914769887924194 0.10239599645137787 0.4413430094718933
vn -0.8878759741783142 0.050916001200675964 0.4572579860687256
vn -0.006268000230193138 0.006513999775052071 0.9999589920043945
vn -0.002357000019401312 0.02488500066101551 0.9996880292892456
vn 0.5019620060920715 0.014217999763786793 0.8647729754447937
vn 0.513824999332428 0.04808000102639198 0.8565469980239868
vn -0.002357000019401312 0.02488500066101551 0.9996880292892456
vn -0.006268000230193138 0.006513999775052071 0.9999589920043945
vn 0.8891760110855103 0.024315999820828438 0.45691901445388794
vn 0.894228994846344 0.08048900216817856 0.44031500816345215
vn 0.9995830059051514 0.022758999839425087 -0.01775199919939041
vn 0.9932669997215271 0.11297599971294403 -0.025642000138759613
vn 0.9909390211105347 0.018658999353647232 -0.13301199674606323
vn 0.9867079854011536 0.09906800091266632 -0.1288139969110489
vn 0.41060999035835266 -0.4640749990940094 -0.7848780155181885
vn 0.44234499335289 -0.19799000024795532 -0.8747180104255676
vn 0.8019930124282837 -0.14461399614810944 -0.5795639753341675
vn 0.82184898853302 -0.3165610134601593 -0.4736599922180176
vn -0.13178099691867828 -0.4772129952907562 -0.8688510060310364
vn -0.1373949944972992 -0.21096299588680267 -0.9677900075912476
vn 0.44234499335289 -0.19799000024795532 -0.8747180104255676
vn 0.41060999035835266 -0.4640749990940094 -0.7848780155181885
vn -0.557889997959137 -0.45525500178337097 -0.6939039826393127
vn -0.6030470132827759 -0.18772199749946594 -0.7753030061721802
vn -0.89444500207901 -0.2732299864292145 -0.35399600863456726
vn -0.8527219891548157 -0.1539909988641739 -0.49915099143981934
vn -0.9933940172195435 0.06686100363731384 0.0932679995894432
vn -0.9871270060539246 0.14853399991989136 0.059317998588085175
vn -0.9636750221252441 0.21437500417232513 -0.15928900241851807
vn -0.9849799871444702 0.13579300045967102 -0.10665500164031982
vn -0.0 -1.0 -0.0
vn -0.0 -1.0 -0.0
vn -0.0 -1.0 -0.0
vn -0.0 -1.0 -0.0
vn -0.0 -1.0 -0.0
vn -0.0 -1.0 -0.0
vn -0.0 -1.0 -0.0
vn -3.7999998312443495e-05 -1.0 0.00016700000560376793
vn -8.499999967170879e-05 -1.0 7.79999973019585e-05
vn -0.0 -1.0 -0.0
vn -0.0 -1.0 -0.0
vn -0.0 -1.0 -0.0
vn -0.0 -1.0 -0.0
vn -0.39309200644493103 0.544094979763031 0.741241991519928
vn -0.20816099643707275 0.8877040147781372 0.41067200899124146
vn -0.37117499113082886 0.8954160213470459 0.24588699638843536
vn -0.7269600033760071 0.5295159816741943 0.4371969997882843
vn 0.02011300064623356 0.5226699709892273 0.8522980213165283
vn -0.0006830000202171504 0.8849819898605347 0.4656260013580322
vn 0.4483630061149597 0.45670199394226074 0.7683709859848022
vn 0.2058349996805191 0.8891469836235046 0.40871700644493103
vn 0.803072988986969 0.3778879940509796 0.46073201298713684
vn 0.3665870130062103 0.897907018661499 0.24367499351501465
vn 0.9427549839019775 0.3334450125694275 -0.005262000020593405
vn 0.42383500933647156 0.9057270288467407 0.004858999978750944
vn 0.7947930097579956 0.39096900820732117 -0.46416300535202026
vn 0.3522759974002838 0.9091110229492188 -0.22230300307273865
vn 0.44021299481391907 0.4775420129299164 -0.7603729963302612
vn 0.19204500317573547 0.9085549712181091 -0.3710080087184906
vn 0.020276999101042747 0.546176016330719 -0.8374249935150146
vn -0.0012469999492168427 0.9069640040397644 -0.4212070107460022
vn -0.38345101475715637 0.564795970916748 -0.7307329773902893
vn -0.19549499452114105 0.9067130088806152 -0.3737030029296875
vn -0.7163869738578796 0.5418949723243713 -0.43947601318359375
vn -0.35664400458335876 0.9064739942550659 -0.22607700526714325
vn -0.8543750047683716 0.5196340084075928 -0.004854999948292971
vn -0.4295879900455475 0.9030110239982605 0.005028999876230955
vn 0.48779499530792236 -0.33553698658943176 -0.8058980107307434
vn 0.023691000416874886 -0.4060490131378174 -0.9135439991950989
vn -0.00776899978518486 0.15828000009059906 -0.9873639941215515
vn 0.5780889987945557 0.13955900073051453 -0.8039510250091553
vn 0.909017026424408 0.039666999131441116 -0.41486600041389465
vn 0.6502259969711304 -0.6250249743461609 -0.43191400170326233
vn 0.6502259969711304 -0.6250249743461609 -0.43191400170326233
vn 0.909017026424408 0.039666999131441116 -0.41486600041389465
vn 0.9993739724159241 0.033528998494148254 0.011282999999821186
vn 0.7847660183906555 -0.6197779774665833 -0.004315000027418137
vn 0.9027969837188721 0.07892700284719467 0.422762006521225
vn 0.7332260012626648 -0.5357109904289246 0.4187999963760376
vn 0.5802329778671265 0.1455879956483841 0.8013319969177246
vn 0.4473789930343628 -0.4882200062274933 0.7493289709091187
vn -0.0005699999746866524 0.1779399961233139 0.9840409755706787
vn -0.001892999978736043 -0.5007129907608032 0.8656119704246521
vn -0.4567059874534607 -0.4725950062274933 0.7537059783935547
vn -0.001892999978736043 -0.5007129907608032 0.8656119704246521
vn -0.0005699999746866524 0.1779399961233139 0.9840409755706787
vn -0.5807499885559082 0.17579400539398193 0.7948750257492065
vn -0.7476310133934021 -0.5116099715232849 0.423442006111145
vn -0.9016979932785034 0.14055299758911133 0.4088839888572693
vn -0.8313900232315063 -0.550125002861023 0.07844000309705734
vn -0.9940720200538635 0.10871200263500214 0.0018789999885484576
vn -0.9067230224609375 0.10416600108146667 -0.4086590111255646
vn -0.7058060169219971 -0.6031649708747864 -0.37152299284935
vn -0.40499401092529297 -0.4342440068721771 -0.8046190142631531
vn -0.7058060169219971 -0.6031649708747864 -0.37152299284935
vn -0.9067230224609375 0.10416600108146667 -0.4086590111255646
vn -0.5800939798355103 0.1477459967136383 -0.8010380268096924
vn -0.8711720108985901 0.050519999116659164 -0.48837199807167053
vn -0.9968940019607544 0.07802899926900864 -0.010689999908208847
vn -0.9808070063591003 0.1947849988937378 -0.00877199973911047
vn -0.8599209785461426 0.17834000289440155 -0.47825801372528076
vn -0.5142769813537598 0.0167820006608963 -0.8574600219726562
vn -0.8711720108985901 0.050519999116659164 -0.48837199807167053
vn -0.8599209785461426 0.17834000289440155 -0.47825801372528076
vn -0.512112021446228 0.15757599472999573 -0.844340980052948
vn -0.00034100000630132854 -0.008516999892890453 -0.9999639987945557
vn -0.001623000018298626 0.13698400557041168 -0.9905719757080078
vn 0.5148389935493469 -0.013782000169157982 -0.8571760058403015
vn 0.5128300189971924 0.12152999639511108 -0.8498449921607971
vn 0.8811320066452026 0.0027749999426305294 -0.47286298871040344
vn 0.5148389935493469 -0.013782000169157982 -0.8571760058403015
vn 0.5128300189971924 0.12152999639511108 -0.8498449921607971
vn 0.8830299973487854 0.11453299969434738 -0.4551270008087158
vn 0.9924129843711853 0.12256599962711334 -0.009669999592006207
vn 0.9992949962615967 0.03500799834728241 -0.013561000116169453
vn 0.8841109871864319 0.14568600058555603 0.4439859986305237
vn 0.8817480206489563 0.05173699930310249 0.468874990940094
vn 0.8817480206489563 0.05173699930310249 0.468874990940094
vn 0.8841109871864319 0.14568600058555603 0.4439859986305237
vn 0.5147820115089417 0.17365600168704987 0.8395500183105469
vn 0.5142980217933655 0.07978600263595581 0.8538920283317566
vn -0.0014059999957680702 0.19892799854278564 0.9800130128860474
vn -0.00037900000461377203 0.10085000097751617 0.9949020147323608
vn -0.5123770236968994 0.21191999316215515 0.8322020173072815
vn -0.5129150152206421 0.11019399762153625 0.8513380289077759
vn -0.8745620250701904 0.1026260033249855 0.4739289879798889
vn -0.5129150152206421 0.11019399762153625 0.8513380289077759
vn -0.5123770236968994 0.21191999316215515 0.8322020173072815
vn -0.8627279996871948 0.20833399891853333 0.46075698733329773
vn -0.46260198950767517 0.32881399989128113 -0.8233349919319153
vn -0.819769024848938 0.3082810044288635 -0.4826410114765167
vn -0.7163869738578796 0.5418949723243713 -0.43947601318359375
vn -0.38345101475715637 0.564795970916748 -0.7307329773902893
vn -0.0008459999808110297 0.3081420063972473 -0.9513400197029114
vn 0.020276999101042747 0.546176016330719 -0.8374249935150146
vn 0.4714919924736023 0.21537500619888306 -0.8551660180091858
vn 0.44021299481391907 0.4775420129299164 -0.7603729963302612
vn 0.8530420064926147 0.09392999857664108 -0.5133190155029297
vn 0.4714919924736023 0.21537500619888306 -0.8551660180091858
vn 0.44021299481391907 0.4775420129299164 -0.7603729963302612
vn 0.7947930097579956 0.39096900820732117 -0.46416300535202026
vn 0.9998220205307007 0.018857000395655632 0.00041700000292621553
vn 0.9427549839019775 0.3334450125694275 -0.005262000020593405
vn 0.803072988986969 0.3778879940509796 0.46073201298713684
vn 0.859669029712677 0.13854500651359558 0.4917060136795044
vn 0.859669029712677 0.13854500651359558 0.4917060136795044
vn 0.803072988986969 0.3778879940509796 0.46073201298713684
vn 0.4483630061149597 0.45670199394226074 0.7683709859848022
vn 0.4658850133419037 0.3038319945335388 0.8310459852218628
vn 0.02011300064623356 0.5226699709892273 0.8522980213165283
vn -0.0014090000186115503 0.40341898798942566 0.9150140285491943
vn -0.39309200644493103 0.544094979763031 0.741241991519928
vn -0.4585550129413605 0.40543800592422485 0.790789008140564
vn -0.4585550129413605 0.40543800592422485 0.790789008140564
vn -0.39309200644493103 0.544094979763031 0.741241991519928
vn -0.7269600033760071 0.5295159816741943 0.4371969997882843
vn -0.8124769926071167 0.34959301352500916 0.4665459990501404
vn -0.9518259763717651 0.30660301446914673 -0.004738999996334314
vn -0.8543750047683716 0.5196340084075928 -0.004854999948292971
vn -0.7163869738578796 0.5418949723243713 -0.43947601318359375
vn -0.819769024848938 0.3082810044288635 -0.4826410114765167
vn -0.4333040118217468 -0.6311910152435303 -0.6433089971542358
vn -0.5075939893722534 -0.009101999923586845 -0.8615480065345764
vn 0.0034439999144524336 0.0018710000440478325 -0.9999920129776001
vn -0.0026130001060664654 -0.6377660036087036 -0.7702249884605408
vn 0.42193499207496643 -0.6454799771308899 -0.6366530060768127
vn 0.5109609961509705 -0.027236999943852425 -0.859171986579895
vn 0.6918429732322693 -0.6491739749908447 -0.3161109983921051
vn 0.42193499207496643 -0.6454799771308899 -0.6366530060768127
vn 0.5109609961509705 -0.027236999943852425 -0.859171986579895
vn 0.8673340082168579 -0.06337899714708328 -0.49367499351501465
vn 0.9992489814758301 -0.03654399886727333 -0.012876000255346298
vn 0.7878760099411011 -0.6119480133056641 0.06906799972057343
vn 0.8772720098495483 0.02899100072681904 0.4791170060634613
vn 0.7027879953384399 -0.5523040294647217 0.44838500022888184
vn 0.7027879953384399 -0.5523040294647217 0.44838500022888184
vn 0.8772720098495483 0.02899100072681904 0.4791170060634613
vn 0.5162910223007202 0.14028799533843994 0.8448449969291687
vn 0.4257960021495819 -0.4662649929523468 0.7754319906234741
vn 0.00948300026357174 0.1988449990749359 0.9799849987030029
vn -0.005495999939739704 -0.42294400930404663 0.9061390161514282
vn -0.5003089904785156 0.16063599288463593 0.850816011428833
vn -0.43954598903656006 -0.4544369876384735 0.7747820019721985
vn -0.43954598903656006 -0.4544369876384735 0.7747820019721985
vn -0.5003089904785156 0.16063599288463593 0.850816011428833
vn -0.8754749894142151 0.0705609992146492 0.4780850112438202
vn -0.7308629751205444 -0.515201985836029 0.4476679861545563
vn -0.9998570084571838 0.008092000149190426 -0.014832000248134136
vn -0.8225290179252625 -0.5657129883766174 0.05843900144100189
vn -0.8704019784927368 -0.025116000324487686 -0.49170100688934326
vn -0.7205129861831665 -0.6119880080223083 -0.32608601450920105
vn -0.7205129861831665 -0.6119880080223083 -0.32608601450920105
vn -0.8704019784927368 -0.025116000324487686 -0.49170100688934326
vn -0.4921019971370697 0.2988249957561493 -0.8176429867744446
vn 0.0016120000509545207 0.28605398535728455 -0.9582120180130005
vn 0.49994200468063354 0.2495349943637848 -0.8293309807777405
vn 0.49994200468063354 0.2495349943637848 -0.8293309807777405
vn 0.8680030107498169 0.20273299515247345 -0.4532879889011383
vn 0.982545018196106 0.18566900491714478 0.011471999809145927
vn 0.8544420003890991 0.2538830041885376 0.45329099893569946
vn 0.8544420003890991 0.2538830041885376 0.45329099893569946
vn 0.484932005405426 0.3241580128669739 0.8122569918632507
vn 0.002781999995931983 0.3662160038948059 0.9305260181427002
vn -0.4765700101852417 0.37254199385643005 0.7962999939918518
vn -0.4765700101852417 0.37254199385643005 0.7962999939918518
vn -0.8160600066184998 0.3493039906024933 0.4604699909687042
vn -0.9483299851417542 0.31718799471855164 0.007865999825298786
vn -0.8357030153274536 0.3009189963340759 -0.4593999981880188
vn -0.8357030153274536 0.3009189963340759 -0.4593999981880188
vn 0.0 1.0 0.00027099999715574086
vn -0.8959190249443054 -0.008772999979555607 -0.444130003452301
vn -0.9998999834060669 0.009897000156342983 0.010068999603390694
vn -0.8869810104370117 0.02679000049829483 0.46102800965309143
vn -0.5391420125961304 0.05836600065231323 0.8401899933815002
vn 0.01709599979221821 0.045030999928712845 0.9988390207290649
vn 0.01709599979221821 0.045030999928712845 0.9988390207290649
vn 0.5540440082550049 -0.028676999732851982 0.8319929838180542
vn 0.8755249977111816 -0.09161800146102905 0.47440600395202637
vn 0.993835985660553 -0.10853999853134155 0.022552000358700752
vn 0.8907579779624939 -0.13426199555397034 -0.43419399857521057
vn 0.5724220275878906 -0.1018500030040741 -0.8136090040206909
vn 0.8907579779624939 -0.13426199555397034 -0.43419399857521057
vn 0.02064099907875061 -0.03193400055170059 -0.9992769956588745
vn -0.5496500134468079 -0.004093999974429607 -0.8353850245475769
vn -0.8959190249443054 -0.008772999979555607 -0.444130003452301
vn -0.0001740000006975606 -1.0 -0.0001049999991664663
vn -0.00048099999548867345 -1.0 -0.00010800000018207356
vn 0.4440320134162903 -0.40008699893951416 -0.8017269968986511
vn 0.7349669933319092 -0.5853989720344543 -0.34224599599838257
vn 0.8709750175476074 0.4626069962978363 -0.16552099585533142
vn 0.36038100719451904 0.8452320098876953 -0.39459800720214844
vn 0.9974129796028137 0.050544001162052155 0.05110900104045868
vn 0.9950720071792603 0.0884459987282753 0.04483100026845932
vn -0.0 -1.0 -0.0
vn -0.12890300154685974 0.8854399919509888 -0.44652000069618225
vn 0.06946499645709991 -0.4531159996986389 -0.8887410163879395
vn -0.0 -1.0 -0.0
vn -0.6135749816894531 0.7066450119018555 -0.35239100456237793
vn -0.36027899384498596 -0.4989359974861145 -0.7882009744644165
vn -0.0 -1.0 -0.0
vn -0.9645730257034302 0.24109399318695068 -0.10711000114679337
vn -0.9642239809036255 0.2514919936656952 -0.08380799740552902
vn -0.8881180286407471 0.396714985370636 -0.23208700120449066
vn -0.8030869960784912 -0.4913899898529053 -0.33702701330184937
vn -0.45173999667167664 0.8900009989738464 -0.06188099831342697
vn -0.6183879971504211 0.6172209978103638 -0.48645099997520447
vn -0.8104230165481567 0.5066670179367065 -0.29411399364471436
vn -0.8412579894065857 0.5277680158615112 -0.11724899709224701
vn -0.9771199822425842 0.12991400063037872 -0.16840200126171112
vn -0.9857869744300842 0.153547003865242 -0.06817299872636795
vn -0.0 -1.0 -0.0
vn -0.0 -1.0 -0.0
vn -0.0 -1.0 -0.0
vn -0.0 -1.0 -0.0
vn -0.0 -1.0 -0.0
vn -0.0 -1.0 -0.0
vn -0.0 -1.0 -0.0
vn -0.0 -1.0 -0.0
vn -0.0 -1.0 -0.0
vn -0.00011700000322889537 -1.0 -0.00019299999985378236
vn 0.9816229939460754 0.028660999611020088 -0.1886640042066574
vn 0.9965639710426331 -0.000910000002477318 -0.08282099664211273
vn 0.2763499915599823 0.9561020135879517 -0.09747199714183807
vn 0.8270639777183533 0.5346360206604004 -0.17358100414276123
vn 0.7745280265808105 0.4890480041503906 -0.4011709988117218
vn 0.4540170133113861 0.6518049836158752 -0.6074690222740173
vn -0.11570499837398529 0.9910820126533508 -0.06610099971294403
vn -0.14439299702644348 0.6774150133132935 -0.7212899923324585
vn 0.4540170133113861 0.6518049836158752 -0.6074690222740173
vn -0.5504369735717773 -0.8051270246505737 -0.22088299691677094
vn -0.6255059838294983 -0.7776280045509338 0.06354200094938278
vn -0.9125360250473022 -0.40896499156951904 0.0051299999468028545
vn -0.7895780205726624 -0.44836801290512085 -0.41896599531173706
vn -0.5533220171928406 -0.7520700097084045 0.3580850064754486
vn -0.8132489919662476 -0.3699049949645996 0.4492180049419403
vn -0.3320139944553375 -0.7411890029907227 0.5834429860115051
vn -0.48332101106643677 -0.3512600064277649 0.8018839955329895
vn -0.3320139944553375 -0.7411890029907227 0.5834429860115051
vn -0.03720000013709068 -0.7370949983596802 0.6747649908065796
vn -0.013830999843776226 -0.3527120053768158 0.9356300234794617
vn -0.48332101106643677 -0.3512600064277649 0.8018839955329895
vn 0.28604501485824585 -0.7344319820404053 0.6154569983482361
vn 0.4619320034980774 -0.36545899510383606 0.8081200122833252
vn 0.5412840247154236 -0.74931800365448 0.38148900866508484
vn 0.8000820279121399 -0.3953250050544739 0.4512059986591339
vn 0.61906498670578 -0.7833420038223267 0.0559689998626709
vn 0.9028499722480774 -0.4299519956111908 0.0014400000218302011
vn 0.8000820279121399 -0.3953250050544739 0.4512059986591339
vn 0.5412840247154236 -0.74931800365448 0.38148900866508484
vn 0.5195419788360596 -0.8167650103569031 -0.2509390115737915
vn 0.7689859867095947 -0.4763050079345703 -0.4263730049133301
vn 0.2718150019645691 -0.8450509905815125 -0.4604400098323822
vn 0.43382298946380615 -0.5079889893531799 -0.7441400289535522
vn -0.03579799830913544 -0.8523480296134949 -0.5217490196228027
vn -0.016540000215172768 -0.5134789943695068 -0.8579429984092712
vn 0.43382298946380615 -0.5079889893531799 -0.7441400289535522
vn 0.2718150019645691 -0.8450509905815125 -0.4604400098323822
vn -0.33562999963760376 -0.8358629941940308 -0.4343790113925934
vn -0.4664570093154907 -0.489778995513916 -0.7365689873695374
vn -0.5504369735717773 -0.8051270246505737 -0.22088299691677094
vn -0.7895780205726624 -0.44836801290512085 -0.41896599531173706
vn 0.0010499999625608325 -0.9262679815292358 -0.3768639862537384
vn -0.0026130001060664654 -0.6377660036087036 -0.7702249884605408
vn 0.42193499207496643 -0.6454799771308899 -0.6366530060768127
vn 0.2715519964694977 -0.9133840203285217 -0.3032979965209961
vn -0.2566879987716675 -0.9202979803085327 -0.29523301124572754
vn -0.4333040118217468 -0.6311910152435303 -0.6433089971542358
vn -0.7205129861831665 -0.6119880080223083 -0.32608601450920105
vn -0.43288999795913696 -0.8950269818305969 -0.10739099979400635
vn -0.8225290179252625 -0.5657129883766174 0.05843900144100189
vn -0.5111680030822754 -0.8517370223999023 0.11511100083589554
vn -0.7308629751205444 -0.515201985836029 0.4476679861545563
vn -0.47187700867652893 -0.808892011642456 0.35075101256370544
vn -0.43954598903656006 -0.4544369876384735 0.7747820019721985
vn -0.3033280074596405 -0.7581580281257629 0.5772250294685364
vn -0.005495999939739704 -0.42294400930404663 0.9061390161514282
vn -0.43954598903656006 -0.4544369876384735 0.7747820019721985
vn -0.3033280074596405 -0.7581580281257629 0.5772250294685364
vn -0.0006600000197067857 -0.731249988079071 0.682108998298645
vn 0.4257960021495819 -0.4662649929523468 0.7754319906234741
vn -0.005495999939739704 -0.42294400930404663 0.9061390161514282
vn -0.0006600000197067857 -0.731249988079071 0.682108998298645
vn 0.309935986995697 -0.7512530088424683 0.5827170014381409
vn 0.7027879953384399 -0.5523040294647217 0.44838500022888184
vn 0.4257960021495819 -0.4662649929523468 0.7754319906234741
vn 0.309935986995697 -0.7512530088424683 0.5827170014381409
vn 0.4974929988384247 -0.7949349880218506 0.3472450077533722
vn 0.5415289998054504 -0.8328729867935181 0.11432100087404251
vn 0.7878760099411011 -0.6119480133056641 0.06906799972057343
vn 0.7027879953384399 -0.5523040294647217 0.44838500022888184
vn 0.4974929988384247 -0.7949349880218506 0.3472450077533722
vn 0.45748698711395264 -0.881413996219635 -0.11753799766302109
vn 0.6918429732322693 -0.6491739749908447 -0.3161109983921051
vn 0.7878760099411011 -0.6119480133056641 0.06906799972057343
vn 0.5415289998054504 -0.8328729867935181 0.11432100087404251
vn 0.2715519964694977 -0.9133840203285217 -0.3032979965209961
vn 0.42193499207496643 -0.6454799771308899 -0.6366530060768127
vn 0.6918429732322693 -0.6491739749908447 -0.3161109983921051
vn 0.45748698711395264 -0.881413996219635 -0.11753799766302109
vn -0.8104230165481567 0.5066670179367065 -0.29411399364471436
vn -0.6183879971504211 0.6172209978103638 -0.48645099997520447
vn -0.14439299702644348 0.6774150133132935 -0.7212899923324585
vn 0.4540170133113861 0.6518049836158752 -0.6074690222740173
vn 0.44234499335289 -0.19799000024795532 -0.8747180104255676
vn 0.4540170133113861 0.6518049836158752 -0.6074690222740173
vn 0.7745280265808105 0.4890480041503906 -0.4011709988117218
vn 0.8270639777183533 0.5346360206604004 -0.17358100414276123
vn 0.8709750175476074 0.4626069962978363 -0.16552099585533142
vn 0.7349669933319092 -0.5853989720344543 -0.34224599599838257
vn 0.7481189966201782 -0.6633229851722717 -0.017893999814987183
vn 0.6031739711761475 -0.6973130106925964 0.3872149884700775
vn 0.32711198925971985 -0.721127986907959 0.6107149720191956
vn 0.0013340000296011567 -0.7090939879417419 0.7051129937171936
vn 0.0013340000296011567 -0.7090939879417419 0.7051129937171936
vn -0.3349039852619171 -0.7075830101966858 0.6222270131111145
vn -0.6252760291099548 -0.6722409725189209 0.3963859975337982
vn -0.7588149905204773 -0.6411929726600647 0.11432900279760361
vn -0.8030869960784912 -0.4913899898529053 -0.33702701330184937
vn -0.8881180286407471 0.396714985370636 -0.23208700120449066
vn -0.8412579894065857 0.5277680158615112 -0.11724899709224701
vn 0.36038100719451904 0.8452320098876953 -0.39459800720214844
vn 0.8709750175476074 0.4626069962978363 -0.16552099585533142
vn 0.9950720071792603 0.0884459987282753 0.04483100026845932
vn 0.8709750175476074 0.4626069962978363 -0.16552099585533142
vn 0.9974129796028137 0.050544001162052155 0.05110900104045868
vn -0.9645730257034302 0.24109399318695068 -0.10711000114679337
vn -0.9642239809036255 0.2514919936656952 -0.08380799740552902
vn -0.8881180286407471 0.396714985370636 -0.23208700120449066
vn -0.6135749816894531 0.7066450119018555 -0.35239100456237793
vn -0.8881180286407471 0.396714985370636 -0.23208700120449066
vn -0.12890300154685974 0.8854399919509888 -0.44652000069618225
vn -0.49660199880599976 -0.46927300095558167 -0.7301849722862244
vn -0.029092999175190926 -0.45770201086997986 -0.8886299729347229
vn 0.45470699667930603 -0.4505780041217804 -0.7682589888572693
vn 0.45470699667930603 -0.4505780041217804 -0.7682589888572693
vn 0.7926710247993469 -0.4426330029964447 -0.41922301054000854
vn 0.9121720194816589 -0.4093270003795624 0.019819000735878944
vn 0.7906919717788696 -0.3718250095844269 0.48636698722839355
vn 0.7906919717788696 -0.3718250095844269 0.48636698722839355
vn 0.44829800724983215 -0.32430601119995117 0.8329790234565735
vn -0.02826699987053871 -0.3237999975681305 0.9457030296325684
vn -0.4665850102901459 -0.3669689893722534 0.8047559857368469
vn -0.4665850102901459 -0.3669689893722534 0.8047559857368469
vn -0.7753549814224243 -0.42292600870132446 0.46899598836898804
vn -0.8931289911270142 -0.4482319951057434 0.03754299879074097
vn -0.7978990077972412 -0.4705199897289276 -0.376785010099411
vn -0.7978990077972412 -0.4705199897289276 -0.376785010099411
vn 0.4440320134162903 -0.40008699893951416 -0.8017269968986511
vn 0.06946499645709991 -0.4531159996986389 -0.8887410163879395
vn 0.023691000416874886 -0.4060490131378174 -0.9135439991950989
vn 0.48779499530792236 -0.33553698658943176 -0.8058980107307434
vn 0.6502259969711304 -0.6250249743461609 -0.43191400170326233
vn 0.7349669933319092 -0.5853989720344543 -0.34224599599838257
vn 0.7481189966201782 -0.6633229851722717 -0.017893999814987183
vn 0.7349669933319092 -0.5853989720344543 -0.34224599599838257
vn 0.6502259969711304 -0.6250249743461609 -0.43191400170326233
vn 0.7847660183906555 -0.6197779774665833 -0.004315000027418137
vn 0.6031739711761475 -0.6973130106925964 0.3872149884700775
vn 0.7332260012626648 -0.5357109904289246 0.4187999963760376
vn 0.4473789930343628 -0.4882200062274933 0.7493289709091187
vn 0.32711198925971985 -0.721127986907959 0.6107149720191956
vn -0.001892999978736043 -0.5007129907608032 0.8656119704246521
vn 0.0013340000296011567 -0.7090939879417419 0.7051129937171936
vn -0.3349039852619171 -0.7075830101966858 0.6222270131111145
vn 0.0013340000296011567 -0.7090939879417419 0.7051129937171936
vn -0.001892999978736043 -0.5007129907608032 0.8656119704246521
vn -0.4567059874534607 -0.4725950062274933 0.7537059783935547
vn -0.7476310133934021 -0.5116099715232849 0.423442006111145
vn -0.6252760291099548 -0.6722409725189209 0.3963859975337982
vn -0.8313900232315063 -0.550125002861023 0.07844000309705734
vn -0.7588149905204773 -0.6411929726600647 0.11432900279760361
vn -0.8030869960784912 -0.4913899898529053 -0.33702701330184937
vn -0.7058060169219971 -0.6031649708747864 -0.37152299284935
vn -0.36027899384498596 -0.4989359974861145 -0.7882009744644165
vn -0.8030869960784912 -0.4913899898529053 -0.33702701330184937
vn -0.7058060169219971 -0.6031649708747864 -0.37152299284935
vn -0.40499401092529297 -0.4342440068721771 -0.8046190142631531
vn -0.0029619999695569277 -0.14979100227355957 -0.9887130260467529
vn -0.5137150287628174 -0.124099001288414 -0.8489390015602112
vn -0.8713939785957336 -0.0880419984459877 -0.4826189875602722
vn -0.8713939785957336 -0.0880419984459877 -0.4826189875602722
vn -0.9981899857521057 -0.05982299894094467 -0.0061090001836419106
vn -0.8753790259361267 -0.035969000309705734 0.4820980131626129
vn -0.5126360058784485 -0.03216399997472763 0.8580030202865601
vn -0.0018530000234022737 -0.042702000588178635 0.9990860223770142
vn -0.5126360058784485 -0.03216399997472763 0.8580030202865601
vn 0.5094770193099976 -0.05965600162744522 0.8584139943122864
vn 0.8751260042190552 -0.08345299959182739 0.47664499282836914
vn 0.9954569935798645 -0.09484200179576874 -0.008438000455498695
vn 0.8751260042190552 -0.08345299959182739 0.47664499282836914
vn 0.8700129985809326 -0.1328269988298416 -0.4747990071773529
vn 0.5070390105247498 -0.15209899842739105 -0.8483970165252686
vn 0.5070390105247498 -0.15209899842739105 -0.8483970165252686

vt 0.9764609932899475 0.028854012489318848
vt 0.9695760011672974 0.029033005237579346
vt 0.969855010509491 0.04040801525115967
vt 0.9766700267791748 0.04046201705932617
vt 0.9757810235023499 0.018160998821258545
vt 0.969012975692749 0.01871800422668457
vt 0.977632999420166 0.20475399494171143
vt 0.9707970023155212 0.2044990062713623
vt 0.9702990055084229 0.2148839831352234
vt 0.977088987827301 0.2155190110206604
vt 0.977849006652832 0.1931840181350708
vt 0.9709659814834595 0.19319301843643188
vt 0.9777140021324158 0.18064701557159424
vt 0.970848023891449 0.18086200952529907
vt 0.9773359894752502 0.16995197534561157
vt 0.9706349968910217 0.1699489951133728
vt 0.8678709864616394 0.17142701148986816
vt 0.8608369827270508 0.1718900203704834
vt 0.8632429838180542 0.16246700286865234
vt 0.8679969906806946 0.16196900606155396
vt 0.8677240014076233 0.18102800846099854
vt 0.8611099720001221 0.18024998903274536
vt 0.8608369827270508 0.1718900203704834
vt 0.8678709864616394 0.17142701148986816
vt 0.8670799732208252 0.19216501712799072
vt 0.8616030216217041 0.19108301401138306
vt 0.8670769929885864 0.20231300592422485
vt 0.8632609844207764 0.2012609839439392
vt 0.9763659834861755 0.05315101146697998
vt 0.9695529937744141 0.052806973457336426
vt 0.9702550172805786 0.0635489821434021
vt 0.9760710000991821 0.06364202499389648
vt 0.8802700042724609 0.020437002182006836
vt 0.8882250189781189 0.0293310284614563
vt 0.8695200085639954 0.043591976165771484
vt 0.8694369792938232 0.018274009227752686
vt 0.8586180210113525 0.020509004592895508
vt 0.8507220149040222 0.02945500612258911
vt 0.8478630185127258 0.04214799404144287
vt 0.8507999777793884 0.0529019832611084
vt 0.8587309718132019 0.05464601516723633
vt 0.8695639967918396 0.05681002140045166
vt 0.8803830146789551 0.05457502603530884
vt 0.8911769986152649 0.0527690052986145
vt 0.8911679983139038 0.04200398921966553
vt 0.5775759816169739 0.359063982963562
vt 0.5728570222854614 0.3341689705848694
vt 0.5808629989624023 0.31857001781463623
vt 0.5933529734611511 0.359063982963562
vt 0.5621449947357178 0.359063982963562
vt 0.5622289776802063 0.33885401487350464
vt 0.546763002872467 0.359063982963562
vt 0.5514490008354187 0.3340020179748535
vt 0.5313349962234497 0.359063982963562
vt 0.5435940027236938 0.31779801845550537
vt 0.5313349962234497 0.29639101028442383
vt 0.5409680008888245 0.2969849705696106
vt 0.5313349962234497 0.2350199818611145
vt 0.5436549782752991 0.27592897415161133
vt 0.5469260215759277 0.2350199818611145
vt 0.5516610145568848 0.260466992855072
vt 0.5625929832458496 0.2350199818611145
vt 0.5625600218772888 0.25564998388290405
vt 0.5781580209732056 0.2350199818611145
vt 0.5731769800186157 0.26085299253463745
vt 0.5933529734611511 0.2350199818611145
vt 0.5809270143508911 0.2766519784927368
vt 0.5933529734611511 0.29757601022720337
vt 0.5835809707641602 0.2974969744682312
vt 0.9665060043334961 0.13068002462387085
vt 0.966933012008667 0.11866700649261475
vt 0.9601989984512329 0.11918497085571289
vt 0.9588000178337097 0.13082897663116455
vt 0.9538000226020813 0.14401298761367798
vt 0.9643700122833252 0.14959901571273804
vt 0.9607880115509033 0.16994398832321167
vt 0.9487990140914917 0.16950899362564087
vt 0.948294997215271 0.18066900968551636
vt 0.9607570171356201 0.18117797374725342
vt 0.9478139877319336 0.1911119818687439
vt 0.9608500003814697 0.19320499897003174
vt 0.9470720291137695 0.2027900218963623
vt 0.960752010345459 0.20412498712539673
vt 0.9466840028762817 0.2126060128211975
vt 0.9603210091590881 0.21394997835159302
vt 0.9594569802284241 0.02929598093032837
vt 0.9590669870376587 0.019536972045898438
vt 0.9451259970664978 0.0203629732131958
vt 0.945950984954834 0.030350029468536377
vt 0.9598389863967896 0.040328025817871094
vt 0.947055995464325 0.04216700792312622
vt 0.9595400094985962 0.052300989627838135
vt 0.9473450183868408 0.052662014961242676
vt 0.9475229978561401 0.06363201141357422
vt 0.9617059826850891 0.06341302394866943
vt 0.9673429727554321 0.10665500164031982
vt 0.9664599895477295 0.08585202693939209
vt 0.9539059996604919 0.09436500072479248
vt 0.9583579897880554 0.10741198062896729
vt 0.8599389791488647 0.7493369877338409
vt 0.8599389791488647 0.7136229872703552
vt 0.8925600051879883 0.7136229872703552
vt 0.8925600051879883 0.7493369877338409
vt 0.8599389791488647 0.7876809984445572
vt 0.8599389791488647 0.7493369877338409
vt 0.8925600051879883 0.7493369877338409
vt 0.8925600051879883 0.7876809984445572
vt 0.8599389791488647 0.8325809985399246
vt 0.8925600051879883 0.8325809985399246
vt 0.8599389791488647 0.8747940063476562
vt 0.8925600051879883 0.8747940063476562
vt 0.8599389791488647 0.4174950122833252
vt 0.8599389791488647 0.3748689889907837
vt 0.8925600051879883 0.3748689889907837
vt 0.8925600051879883 0.4174950122833252
vt 0.8925600051879883 0.4599840044975281
vt 0.8599389791488647 0.4599840044975281
vt 0.8925600051879883 0.4998199939727783
vt 0.8599389791488647 0.4998199939727783
vt 0.8599389791488647 0.4998199939727783
vt 0.8925600051879883 0.4998199939727783
vt 0.8925600051879883 0.5367240011692047
vt 0.8599389791488647 0.5367240011692047
vt 0.8925600051879883 0.5863870084285736
vt 0.8599389791488647 0.5863870084285736
vt 0.8925600051879883 0.6252219974994659
vt 0.8599389791488647 0.6252219974994659
vt 0.8599389791488647 0.6669360101222992
vt 0.8599389791488647 0.6252219974994659
vt 0.8925600051879883 0.6252219974994659
vt 0.8925600051879883 0.6669360101222992
vt 0.9275379776954651 0.7876809984445572
vt 0.9275379776954651 0.7493369877338409
vt 0.9373469948768616 0.7493369877338409
vt 0.9373469948768616 0.7876809984445572
vt 0.9275379776954651 0.8325809985399246
vt 0.9373469948768616 0.8325809985399246
vt 0.9275379776954651 0.8747940063476562
vt 0.9373469948768616 0.8747940063476562
vt 0.9275379776954651 0.4174950122833252
vt 0.9275379776954651 0.3748689889907837
vt 0.9373469948768616 0.3748689889907837
vt 0.9373469948768616 0.4174950122833252
vt 0.9275379776954651 0.4599840044975281
vt 0.9373469948768616 0.4599840044975281
vt 0.9373469948768616 0.4998199939727783
vt 0.9275379776954651 0.4998199939727783
vt 0.9275379776954651 0.4998199939727783
vt 0.9373469948768616 0.4998199939727783
vt 0.9373469948768616 0.5367240011692047
vt 0.9275379776954651 0.5367240011692047
vt 0.9373469948768616 0.5863870084285736
vt 0.9275379776954651 0.5863870084285736
vt 0.9373469948768616 0.6252219974994659
vt 0.9275379776954651 0.6252219974994659
vt 0.9275379776954651 0.6252219974994659
vt 0.9373469948768616 0.6252219974994659
vt 0.9373469948768616 0.6669360101222992
vt 0.9275379776954651 0.6669360101222992
vt 0.9275379776954651 0.7136229872703552
vt 0.9373469948768616 0.7136229872703552
vt 0.9373469948768616 0.7493369877338409
vt 0.9275379776954651 0.7493369877338409
vt 0.8228510022163391 0.7876809984445572
vt 0.8302130103111267 0.7876809984445572
vt 0.8302130103111267 0.8325809985399246
vt 0.8228510022163391 0.8325809985399246
vt 0.8228510022163391 0.8747940063476562
vt 0.8302130103111267 0.8747940063476562
vt 0.8228510022163391 0.4174950122833252
vt 0.8228510022163391 0.3748689889907837
vt 0.8302130103111267 0.3748689889907837
vt 0.8302130103111267 0.4174950122833252
vt 0.8302130103111267 0.4599840044975281
vt 0.8228510022163391 0.4599840044975281
vt 0.8302130103111267 0.4998199939727783
vt 0.8228510022163391 0.4998199939727783
vt 0.8228510022163391 0.4998199939727783
vt 0.8302130103111267 0.4998199939727783
vt 0.8302130103111267 0.5367240011692047
vt 0.8228510022163391 0.5367240011692047
vt 0.8302130103111267 0.5863870084285736
vt 0.8228510022163391 0.5863870084285736
vt 0.8302130103111267 0.6252219974994659
vt 0.8228510022163391 0.6252219974994659
vt 0.8228510022163391 0.6252219974994659
vt 0.8302130103111267 0.6252219974994659
vt 0.8302130103111267 0.6669360101222992
vt 0.8228510022163391 0.6669360101222992
vt 0.8302130103111267 0.7136229872703552
vt 0.8228510022163391 0.7136229872703552
vt 0.8302130103111267 0.7493369877338409
vt 0.8228510022163391 0.7493369877338409
vt 0.8228510022163391 0.7493369877338409
vt 0.8302130103111267 0.7493369877338409
vt 0.9111670255661011 0.7876809984445572
vt 0.9111670255661011 0.8325809985399246
vt 0.9111670255661011 0.8747940063476562
vt 0.9111670255661011 0.3748689889907837
vt 0.9111670255661011 0.4174950122833252
vt 0.9111670255661011 0.4599840044975281
vt 0.9111670255661011 0.4998199939727783
vt 0.9111670255661011 0.4998199939727783
vt 0.9111670255661011 0.5367240011692047
vt 0.9111670255661011 0.5863870084285736
vt 0.9111670255661011 0.6252219974994659
vt 0.9111670255661011 0.6252219974994659
vt 0.9111670255661011 0.6669360101222992
vt 0.9111670255661011 0.7136229872703552
vt 0.9111670255661011 0.7493369877338409
vt 0.9111670255661011 0.7493369877338409
vt 0.5623329877853394 0.2974169850349426
vt 0.9144060015678406 0.06657898426055908
vt 0.9137830138206482 0.053959012031555176
vt 0.9121760129928589 0.04231297969818115
vt 0.9105250239372253 0.030993998050689697
vt 0.9081760048866272 0.019930005073547363
vt 0.9099310040473938 0.21321499347686768
vt 0.9121530055999756 0.20231497287750244
vt 0.9139009714126587 0.19079899787902832
vt 0.9155949950218201 0.17778998613357544
vt 0.9163309931755066 0.16547298431396484
vt 0.9207119941711426 0.1308860182762146
vt 0.915913999080658 0.1428229808807373
vt 0.9224290251731873 0.11890500783920288
vt 0.9213060140609741 0.10671001672744751
vt 0.9174900054931641 0.0942389965057373
vt 0.8570740222930908 0.07668197154998779
vt 0.8478630185127258 0.07070499658584595
vt 0.9665060043334961 0.13068002462387085
vt 0.9643700122833252 0.14959901571273804
vt 0.9828019738197327 0.1413249969482422
vt 0.9866549968719482 0.12976497411727905
vt 0.977167010307312 0.15253502130508423
vt 0.9717350006103516 0.15205901861190796
vt 0.8696370124816895 0.0788390040397644
vt 0.9871079921722412 0.11794900894165039
vt 0.966933012008667 0.11866700649261475
vt 0.8821849822998047 0.07659900188446045
vt 0.987214982509613 0.10645401477813721
vt 0.9673429727554321 0.10665500164031982
vt 0.8913570046424866 0.0705609917640686
vt 0.9718009829521179 0.08145701885223389
vt 0.9755730032920837 0.08098798990249634
vt 0.9835759997367859 0.093563973903656
vt 0.9664599895477295 0.08585202693939209
vt 0.8828150033950806 0.10535800457000732
vt 0.8823130130767822 0.11032497882843018
vt 0.8903530240058899 0.10279697179794312
vt 0.8913210034370422 0.09688597917556763
vt 0.8629149794578552 0.20726299285888672
vt 0.8667169809341431 0.2083280086517334
vt 0.8813160061836243 0.08297902345657349
vt 0.889835000038147 0.07677298784255981
vt 0.8884009718894958 0.08262497186660767
vt 0.8804969787597656 0.0889899730682373
vt 0.8696590065956116 0.08547002077102661
vt 0.8696799874305725 0.09171801805496216
vt 0.8588539958000183 0.09194302558898926
vt 0.8581569790840149 0.08596599102020264
vt 0.8509200215339661 0.08942002058029175
vt 0.8497229814529419 0.08209002017974854
vt 0.8632529973983765 0.1550379991531372
vt 0.8683519959449768 0.15455001592636108
vt 0.8631709814071655 0.10981297492980957
vt 0.8537520170211792 0.10672199726104736
vt 0.8565959930419922 0.11361998319625854
vt 0.8651430010795593 0.1145859956741333
vt 0.8720089793205261 0.10863298177719116
vt 0.8722900152206421 0.11380499601364136
vt 0.8651430010795593 0.1145859956741333
vt 0.8410329818725586 0.7493369877338409
vt 0.8410329818725586 0.7136229872703552
vt 0.847815990447998 0.7136229872703552
vt 0.847815990447998 0.7493369877338409
vt 0.8410329818725586 0.6669360101222992
vt 0.847815990447998 0.6669360101222992
vt 0.8410329818725586 0.6252219974994659
vt 0.847815990447998 0.6252219974994659
vt 0.8410329818725586 0.6252219974994659
vt 0.8410329818725586 0.5863870084285736
vt 0.847815990447998 0.5863870084285736
vt 0.847815990447998 0.6252219974994659
vt 0.8410329818725586 0.5367240011692047
vt 0.847815990447998 0.5367240011692047
vt 0.8410329818725586 0.4998199939727783
vt 0.847815990447998 0.4998199939727783
vt 0.8410329818725586 0.4599840044975281
vt 0.847815990447998 0.4599840044975281
vt 0.847815990447998 0.4998199939727783
vt 0.8410329818725586 0.4998199939727783
vt 0.8410329818725586 0.4174950122833252
vt 0.847815990447998 0.4174950122833252
vt 0.8410329818725586 0.3748689889907837
vt 0.847815990447998 0.3748689889907837
vt 0.8410329818725586 0.8325809985399246
vt 0.847815990447998 0.8325809985399246
vt 0.847815990447998 0.8747940063476562
vt 0.8410329818725586 0.8747940063476562
vt 0.8410329818725586 0.7876809984445572
vt 0.847815990447998 0.7876809984445572
vt 0.8410329818725586 0.7493369877338409
vt 0.847815990447998 0.7493369877338409
vt 0.8128719925880432 0.8325809985399246
vt 0.8228510022163391 0.8325809985399246
vt 0.8228510022163391 0.8747940063476562
vt 0.8128719925880432 0.8747940063476562
vt 0.8128719925880432 0.7876809984445572
vt 0.8228510022163391 0.7876809984445572
vt 0.8228510022163391 0.7493369877338409
vt 0.8128719925880432 0.7493369877338409
vt 0.8228510022163391 0.7136229872703552
vt 0.8128719925880432 0.7136229872703552
vt 0.8228510022163391 0.6669360101222992
vt 0.8128719925880432 0.6669360101222992
vt 0.8228510022163391 0.6252219974994659
vt 0.8128719925880432 0.6252219974994659
vt 0.8228510022163391 0.5863870084285736
vt 0.8228510022163391 0.6252219974994659
vt 0.8128719925880432 0.6252219974994659
vt 0.8128719925880432 0.5863870084285736
vt 0.8228510022163391 0.5367240011692047
vt 0.8228510022163391 0.5863870084285736
vt 0.8128719925880432 0.5863870084285736
vt 0.8128719925880432 0.5367240011692047
vt 0.8228510022163391 0.4998199939727783
vt 0.8228510022163391 0.5367240011692047
vt 0.8128719925880432 0.5367240011692047
vt 0.8128719925880432 0.4998199939727783
vt 0.8128719925880432 0.4599840044975281
vt 0.8228510022163391 0.4599840044975281
vt 0.8228510022163391 0.4998199939727783
vt 0.8128719925880432 0.4998199939727783
vt 0.8128719925880432 0.4174950122833252
vt 0.8228510022163391 0.4174950122833252
vt 0.8228510022163391 0.4599840044975281
vt 0.8128719925880432 0.4599840044975281
vt 0.8128719925880432 0.3748689889907837
vt 0.8228510022163391 0.3748689889907837
vt 0.8228510022163391 0.4174950122833252
vt 0.8128719925880432 0.4174950122833252
vt 0.8576520085334778 0.1997159719467163
vt 0.8535529971122742 0.18949300050735474
vt 0.8513910174369812 0.1791059970855713
vt 0.8531550168991089 0.17176097631454468
vt 0.8608369827270508 0.1718900203704834
vt 0.8531550168991089 0.17176097631454468
vt 0.8562560081481934 0.16319900751113892
vt 0.8557590246200562 0.15575402975082397
vt 0.9637519717216492 0.15135997533798218
vt 0.9607880115509033 0.16994398832321167
vt 0.9607570171356201 0.18117797374725342
vt 0.9608500003814697 0.19320499897003174
vt 0.960752010345459 0.20412498712539673
vt 0.9603210091590881 0.21394997835159302
vt 0.9590669870376587 0.019536972045898438
vt 0.9594569802284241 0.02929598093032837
vt 0.9598389863967896 0.040328025817871094
vt 0.9595400094985962 0.052300989627838135
vt 0.9617059826850891 0.06341302394866943
vt 0.9662590026855469 0.08214700222015381
vt 0.8573279976844788 0.20569700002670288
vt 0.8601089715957642 0.10240000486373901
vt 0.8493340015411377 0.09600800275802612
vt 0.8632680177688599 0.1434980034828186
vt 0.8549870252609253 0.14419102668762207
vt 0.8689020276069641 0.14302700757980347
vt 0.8625479936599731 0.2136319875717163
vt 0.8663340210914612 0.2147129774093628
vt 0.8569830060005188 0.21204501390457153
vt 0.8833479881286621 0.10008597373962402
vt 0.8923490047454834 0.09061300754547119
vt 0.871711015701294 0.10314399003982544
vt 0.8349819779396057 0.7876809984445572
vt 0.8349819779396057 0.8325809985399246
vt 0.8349819779396057 0.8747940063476562
vt 0.8349819779396057 0.3748689889907837
vt 0.8349819779396057 0.4174950122833252
vt 0.8349819779396057 0.4599840044975281
vt 0.8349819779396057 0.4998199939727783
vt 0.8349819779396057 0.4998199939727783
vt 0.8349819779396057 0.5367240011692047
vt 0.8349819779396057 0.5863870084285736
vt 0.8349819779396057 0.6252219974994659
vt 0.8349819779396057 0.6252219974994659
vt 0.8349819779396057 0.6669360101222992
vt 0.8349819779396057 0.7136229872703552
vt 0.8349819779396057 0.7493369877338409
vt 0.8349819779396057 0.7493369877338409
vt 0.9665060043334961 0.13068002462387085
vt 0.966933012008667 0.11866700649261475
vt 0.966933012008667 0.11866700649261475
vt 0.9665060043334961 0.13068002462387085
vt 0.9643700122833252 0.14959901571273804
vt 0.9643700122833252 0.14959901571273804
vt 0.9607570171356201 0.18117797374725342
vt 0.9607880115509033 0.16994398832321167
vt 0.9607880115509033 0.16994398832321167
vt 0.9607570171356201 0.18117797374725342
vt 0.9608500003814697 0.19320499897003174
vt 0.9608500003814697 0.19320499897003174
vt 0.960752010345459 0.20412498712539673
vt 0.960752010345459 0.20412498712539673
vt 0.9603210091590881 0.21394997835159302
vt 0.9603210091590881 0.21394997835159302
vt 0.9594569802284241 0.02929598093032837
vt 0.9590669870376587 0.019536972045898438
vt 0.9590669870376587 0.019536972045898438
vt 0.9594569802284241 0.02929598093032837
vt 0.9598389863967896 0.040328025817871094
vt 0.9598389863967896 0.040328025817871094
vt 0.9595400094985962 0.052300989627838135
vt 0.9595400094985962 0.052300989627838135
vt 0.9617059826850891 0.06341302394866943
vt 0.9617059826850891 0.06341302394866943
vt 0.9673429727554321 0.10665500164031982
vt 0.9664599895477295 0.08585202693939209
vt 0.9664599895477295 0.08585202693939209
vt 0.9673429727554321 0.10665500164031982
vt 0.8535429835319519 0.8325809985399246
vt 0.8535429835319519 0.7876809984445572
vt 0.8535429835319519 0.7493369877338409
vt 0.8535429835319519 0.7493369877338409
vt 0.8535429835319519 0.7136229872703552
vt 0.8535429835319519 0.6669360101222992
vt 0.8535429835319519 0.6252219974994659
vt 0.8535429835319519 0.5863870084285736
vt 0.8535429835319519 0.6252219974994659
vt 0.8535429835319519 0.5367240011692047
vt 0.8535429835319519 0.4998199939727783
vt 0.8535429835319519 0.4599840044975281
vt 0.8535429835319519 0.4998199939727783
vt 0.8535429835319519 0.4174950122833252
vt 0.8535429835319519 0.3748689889907837
vt 0.8535429835319519 0.8747940063476562

usemtl Material

f 1/1/1 2/2/2 3/3/3
f 3/3/3 4/4/4 1/1/1
f 5/5/5 6/6/6 2/2/2
f 2/2/2 1/1/1 5/5/5
f 7/7/7 8/8/8 9/9/9
f 9/9/9 10/10/10 7/7/7
f 11/11/11 12/12/12 8/8/8
f 8/8/8 7/7/7 11/11/11
f 13/13/13 14/14/14 12/12/12
f 12/12/12 11/11/11 13/13/13
f 15/15/15 16/16/16 14/14/14
f 14/14/14 13/13/13 15/15/15
f 17/17/17 18/18/18 19/19/19
f 19/19/19 20/20/20 17/17/17
f 21/21/21 22/22/22 23/23/23
f 23/23/23 24/24/24 21/21/21
f 21/21/21 25/25/25 26/26/26
f 26/26/26 22/22/22 21/21/21
f 25/25/25 27/27/27 28/28/28
f 28/28/28 26/26/26 25/25/25
f 29/29/29 30/30/30 31/31/31
f 31/31/31 32/32/32 29/29/29
f 29/29/29 4/4/4 3/3/3
f 3/3/3 30/30/30 29/29/29
f 33/33/33 34/34/34 35/35/35
f 36/36/36 33/33/33 35/35/35
f 37/37/37 36/36/36 35/35/35
f 38/38/38 37/37/37 35/35/35
f 39/39/39 38/38/38 35/35/35
f 40/40/40 39/39/39 35/35/35
f 41/41/41 40/40/40 35/35/35
f 42/42/42 41/41/41 35/35/35
f 43/43/43 42/42/42 35/35/35
f 44/44/44 43/43/43 35/35/35
f 45/45/45 44/44/44 35/35/35
f 34/34/34 45/45/45 35/35/35
f 46/46/46 47/47/47 48/48/48
f 48/48/48 49/49/49 46/46/46
f 50/50/50 51/51/51 47/47/47
f 47/47/47 46/46/46 50/50/50
f 50/50/50 52/52/52 53/53/53
f 53/53/53 51/51/51 50/50/50
f 52/52/52 54/54/54 55/55/55
f 55/55/55 53/53/53 52/52/52
f 54/54/54 56/56/56 57/57/57
f 57/57/57 55/55/55 54/54/54
f 56/56/56 58/58/58 59/59/59
f 59/59/59 57/57/57 56/56/56
f 60/60/60 61/61/61 59/59/59
f 59/59/59 58/58/58 60/60/60
f 62/62/62 63/63/63 61/61/61
f 61/61/61 60/60/60 62/62/62
f 64/64/64 65/65/65 63/63/63
f 63/63/63 62/62/62 64/64/64
f 66/66/66 67/67/67 65/65/65
f 65/65/65 64/64/64 66/66/66
f 68/68/68 69/69/69 67/67/67
f 67/67/67 66/66/66 68/68/68
f 49/49/49 48/48/48 69/69/69
f 69/69/69 68/68/68 49/49/49
f 70/70/70 71/71/71 72/72/72
f 72/72/72 73/73/73 70/70/70
f 70/70/70 73/73/73 74/74/74
f 74/74/74 75/75/75 70/70/70
f 76/76/76 77/77/77 78/78/78
f 78/78/78 79/79/79 76/76/76
f 79/79/79 78/78/78 80/80/80
f 80/80/80 81/81/81 79/79/79
f 81/81/81 80/80/80 82/82/82
f 82/82/82 83/83/83 81/81/81
f 83/83/83 82/82/82 84/84/84
f 84/84/84 85/85/85 83/83/83
f 86/86/86 87/87/87 88/88/88
f 88/88/88 89/89/89 86/86/86
f 90/90/90 86/86/86 89/89/89
f 89/89/89 91/91/91 90/90/90
f 92/92/92 90/90/90 91/91/91
f 91/91/91 93/93/93 92/92/92
f 92/92/92 93/93/93 94/94/94
f 94/94/94 95/95/95 92/92/92
f 96/96/96 97/97/97 98/98/98
f 98/98/98 99/99/99 96/96/96
f 71/71/71 96/96/96 99/99/99
f 99/99/99 72/72/72 71/71/71
f 100/100/100 101/101/101 102/102/102
f 102/102/102 103/103/103 100/100/100
f 104/104/104 105/105/105 106/106/106
f 106/106/106 107/107/107 104/104/104
f 108/108/108 104/104/104 107/107/107
f 107/107/107 109/109/109 108/108/108
f 110/110/110 108/108/108 109/109/109
f 109/109/109 111/111/111 110/110/110
f 112/112/112 113/113/113 114/114/114
f 114/114/114 115/115/115 112/112/112
f 112/112/112 115/115/115 116/116/116
f 116/116/116 117/117/117 112/112/112
f 117/117/117 116/116/116 118/118/118
f 118/118/118 119/119/119 117/117/117
f 120/120/120 121/121/121 122/122/122
f 122/122/122 123/123/123 120/120/120
f 123/123/123 122/122/122 124/124/124
f 124/124/124 125/125/125 123/123/123
f 125/125/125 124/124/124 126/126/126
f 126/126/126 127/127/127 125/125/125
f 128/128/128 129/129/129 130/130/130
f 130/130/130 131/131/131 128/128/128
f 101/101/101 128/128/128 131/131/131
f 131/131/131 102/102/102 101/101/101
f 132/132/132 133/133/133 134/134/134
f 134/134/134 135/135/135 132/132/132
f 136/136/136 132/132/132 135/135/135
f 135/135/135 137/137/137 136/136/136
f 138/138/138 136/136/136 137/137/137
f 137/137/137 139/139/139 138/138/138
f 140/140/140 141/141/141 142/142/142
f 142/142/142 143/143/143 140/140/140
f 144/144/144 140/140/140 143/143/143
f 143/143/143 145/145/145 144/144/144
f 144/144/144 145/145/145 146/146/146
f 146/146/146 147/147/147 144/144/144
f 148/148/148 149/149/149 150/150/150
f 150/150/150 151/151/151 148/148/148
f 151/151/151 150/150/150 152/152/152
f 152/152/152 153/153/153 151/151/151
f 153/153/153 152/152/152 154/154/154
f 154/154/154 155/155/155 153/153/153
f 156/156/156 157/157/157 158/158/158
f 158/158/158 159/159/159 156/156/156
f 160/160/160 159/159/159 158/158/158
f 158/158/158 161/161/161 160/160/160
f 160/160/160 161/161/161 162/162/162
f 162/162/162 163/163/163 160/160/160
f 164/164/164 165/165/165 166/166/166
f 166/166/166 167/167/167 164/164/164
f 168/168/168 167/167/167 166/166/166
f 166/166/166 169/169/169 168/168/168
f 170/170/170 171/171/171 172/172/172
f 172/172/172 173/173/173 170/170/170
f 170/170/170 173/173/173 174/174/174
f 174/174/174 175/175/175 170/170/170
f 175/175/175 174/174/174 176/176/176
f 176/176/176 177/177/177 175/175/175
f 178/178/178 179/179/179 180/180/180
f 180/180/180 181/181/181 178/178/178
f 181/181/181 180/180/180 182/182/182
f 182/182/182 183/183/183 181/181/181
f 183/183/183 182/182/182 184/184/184
f 184/184/184 185/185/185 183/183/183
f 186/186/186 187/187/187 188/188/188
f 188/188/188 189/189/189 186/186/186
f 189/189/189 188/188/188 190/190/190
f 190/190/190 191/191/191 189/189/189
f 191/191/191 190/190/190 192/192/192
f 192/192/192 193/193/193 191/191/191
f 194/194/194 195/195/195 165/165/165
f 165/165/165 164/164/164 194/194/194
f 109/109/109 107/107/107 196/196/196
f 196/196/196 197/197/197 109/109/109
f 111/111/111 109/109/109 197/197/197
f 197/197/197 198/198/198 111/111/111
f 115/115/115 114/114/114 199/199/199
f 199/199/199 200/200/200 115/115/115
f 116/116/116 115/115/115 200/200/200
f 200/200/200 201/201/201 116/116/116
f 116/116/116 201/201/201 202/202/202
f 202/202/202 118/118/118 116/116/116
f 121/121/121 203/203/203 204/204/204
f 204/204/204 122/122/122 121/121/121
f 122/122/122 204/204/204 205/205/205
f 205/205/205 124/124/124 122/122/122
f 124/124/124 205/205/205 206/206/206
f 206/206/206 126/126/126 124/124/124
f 130/130/130 207/207/207 208/208/208
f 208/208/208 131/131/131 130/130/130
f 131/131/131 208/208/208 209/209/209
f 209/209/209 102/102/102 131/131/131
f 102/102/102 209/209/209 210/210/210
f 210/210/210 103/103/103 102/102/102
f 107/107/107 106/106/106 211/211/211
f 211/211/211 196/196/196 107/107/107
f 48/48/48 47/47/47 212/212/212
f 47/47/47 51/51/51 212/212/212
f 51/51/51 53/53/53 212/212/212
f 53/53/53 55/55/55 212/212/212
f 55/55/55 57/57/57 212/212/212
f 57/57/57 59/59/59 212/212/212
f 59/59/59 61/61/61 212/212/212
f 61/61/61 63/63/63 212/212/212
f 63/63/63 65/65/65 212/212/212
f 65/65/65 67/67/67 212/212/212
f 67/67/67 69/69/69 212/212/212
f 69/69/69 48/48/48 212/212/212
f 213/213/213 94/94/94 93/93/93
f 93/93/93 214/214/214 213/213/213
f 214/214/214 93/93/93 91/91/91
f 91/91/91 215/215/215 214/214/214
f 215/215/215 91/91/91 89/89/89
f 89/89/89 216/216/216 215/215/215
f 216/216/216 89/89/89 88/88/88
f 88/88/88 217/217/217 216/216/216
f 218/218/218 84/84/84 82/82/82
f 82/82/82 219/219/219 218/218/218
f 219/219/219 82/82/82 80/80/80
f 80/80/80 220/220/220 219/219/219
f 221/221/221 220/220/220 80/80/80
f 80/80/80 78/78/78 221/221/221
f 222/222/222 221/221/221 78/78/78
f 78/78/78 77/77/77 222/222/222
f 223/223/223 224/224/224 74/74/74
f 74/74/74 73/73/73 223/223/223
f 225/225/225 223/223/223 73/73/73
f 73/73/73 72/72/72 225/225/225
f 226/226/226 225/225/225 72/72/72
f 72/72/72 99/99/99 226/226/226
f 227/227/227 226/226/226 99/99/99
f 99/99/99 98/98/98 227/227/227
f 41/41/41 228/228/228 229/229/229
f 229/229/229 40/40/40 41/41/41
f 230/230/230 231/231/231 232/232/232
f 232/232/232 233/233/233 230/230/230
f 15/15/15 234/234/234 235/235/235
f 235/235/235 16/16/16 15/15/15
f 42/42/42 236/236/236 228/228/228
f 228/228/228 41/41/41 42/42/42
f 233/233/233 237/237/237 238/238/238
f 238/238/238 230/230/230 233/233/233
f 239/239/239 236/236/236 42/42/42
f 42/42/42 43/43/43 239/239/239
f 237/237/237 240/240/240 241/241/241
f 241/241/241 238/238/238 237/237/237
f 242/242/242 239/239/239 43/43/43
f 43/43/43 44/44/44 242/242/242
f 243/243/243 244/244/244 32/32/32
f 32/32/32 31/31/31 243/243/243
f 245/245/245 246/246/246 241/241/241
f 241/241/241 240/240/240 245/245/245
f 247/247/247 248/248/248 249/249/249
f 249/249/249 250/250/250 247/247/247
f 251/251/251 28/28/28 27/27/27
f 27/27/27 252/252/252 251/251/251
f 253/253/253 254/254/254 255/255/255
f 255/255/255 256/256/256 253/253/253
f 257/257/257 253/253/253 256/256/256
f 256/256/256 258/258/258 257/257/257
f 257/257/257 258/258/258 259/259/259
f 259/259/259 260/260/260 257/257/257
f 260/260/260 259/259/259 261/261/261
f 261/261/261 262/262/262 260/260/260
f 263/263/263 264/264/264 20/20/20
f 20/20/20 19/19/19 263/263/263
f 265/265/265 266/266/266 267/267/267
f 267/267/267 268/268/268 265/265/265
f 269/269/269 270/270/270 248/248/248
f 248/248/248 247/247/247 269/269/269
f 269/269/269 265/265/265 271/271/271
f 271/271/271 270/270/270 269/269/269
f 272/272/272 273/273/273 274/274/274
f 274/274/274 275/275/275 272/272/272
f 273/273/273 276/276/276 277/277/277
f 277/277/277 274/274/274 273/273/273
f 276/276/276 278/278/278 279/279/279
f 279/279/279 277/277/277 276/276/276
f 280/280/280 281/281/281 282/282/282
f 282/282/282 283/283/283 280/280/280
f 284/284/284 285/285/285 282/282/282
f 282/282/282 281/281/281 284/284/284
f 286/286/286 287/287/287 285/285/285
f 285/285/285 284/284/284 286/286/286
f 288/288/288 289/289/289 290/290/290
f 290/290/290 291/291/291 288/288/288
f 292/292/292 293/293/293 289/289/289
f 289/289/289 288/288/288 292/292/292
f 294/294/294 295/295/295 293/293/293
f 293/293/293 292/292/292 294/294/294
f 296/296/296 297/297/297 298/298/298
f 298/298/298 299/299/299 296/296/296
f 296/296/296 300/300/300 301/301/301
f 301/301/301 297/297/297 296/296/296
f 300/300/300 302/302/302 303/303/303
f 303/303/303 301/301/301 300/300/300
f 304/304/304 305/305/305 306/306/306
f 306/306/306 307/307/307 304/304/304
f 305/305/305 304/304/304 308/308/308
f 308/308/308 309/309/309 305/305/305
f 310/310/310 309/309/309 308/308/308
f 308/308/308 311/311/311 310/310/310
f 312/312/312 310/310/310 311/311/311
f 311/311/311 313/313/313 312/312/312
f 314/314/314 312/312/312 313/313/313
f 313/313/313 315/315/315 314/314/314
f 316/316/316 314/314/314 315/315/315
f 315/315/315 317/317/317 316/316/316
f 318/318/318 319/319/319 320/320/320
f 320/320/320 321/321/321 318/318/318
f 322/322/322 323/323/323 324/324/324
f 324/324/324 325/325/325 322/322/322
f 326/326/326 327/327/327 328/328/328
f 328/328/328 329/329/329 326/326/326
f 330/330/330 331/331/331 332/332/332
f 332/332/332 333/333/333 330/330/330
f 334/334/334 335/335/335 336/336/336
f 336/336/336 337/337/337 334/334/334
f 338/338/338 339/339/339 340/340/340
f 340/340/340 341/341/341 338/338/338
f 26/26/26 28/28/28 342/342/342
f 342/342/342 343/343/343 26/26/26
f 22/22/22 26/26/26 343/343/343
f 343/343/343 344/344/344 22/22/22
f 22/22/22 344/344/344 345/345/345
f 345/345/345 346/346/346 22/22/22
f 18/18/18 347/347/347 348/348/348
f 348/348/348 19/19/19 18/18/18
f 263/263/263 19/19/19 348/348/348
f 348/348/348 349/349/349 263/263/263
f 16/16/16 235/235/235 350/350/350
f 350/350/350 351/351/351 16/16/16
f 16/16/16 351/351/351 352/352/352
f 352/352/352 14/14/14 16/16/16
f 12/12/12 14/14/14 352/352/352
f 352/352/352 353/353/353 12/12/12
f 8/8/8 12/12/12 353/353/353
f 353/353/353 354/354/354 8/8/8
f 9/9/9 8/8/8 354/354/354
f 354/354/354 355/355/355 9/9/9
f 6/6/6 356/356/356 357/357/357
f 357/357/357 2/2/2 6/6/6
f 2/2/2 357/357/357 358/358/358
f 358/358/358 3/3/3 2/2/2
f 3/3/3 358/358/358 359/359/359
f 359/359/359 30/30/30 3/3/3
f 30/30/30 359/359/359 360/360/360
f 360/360/360 31/31/31 30/30/30
f 361/361/361 243/243/243 31/31/31
f 31/31/31 360/360/360 361/361/361
f 28/28/28 251/251/251 362/362/362
f 362/362/362 342/342/342 28/28/28
f 363/363/363 364/364/364 266/266/266
f 266/266/266 265/265/265 363/363/363
f 365/365/365 263/263/263 349/349/349
f 349/349/349 366/366/366 365/365/365
f 365/365/365 367/367/367 264/264/264
f 264/264/264 263/263/263 365/365/365
f 228/228/228 260/260/260 262/262/262
f 262/262/262 229/229/229 228/228/228
f 236/236/236 239/239/239 253/253/253
f 253/253/253 257/257/257 236/236/236
f 239/239/239 242/242/242 254/254/254
f 254/254/254 253/253/253 239/239/239
f 368/368/368 251/251/251 252/252/252
f 252/252/252 369/369/369 368/368/368
f 362/362/362 251/251/251 368/368/368
f 368/368/368 370/370/370 362/362/362
f 371/371/371 247/247/247 250/250/250
f 250/250/250 372/372/372 371/371/371
f 373/373/373 269/269/269 247/247/247
f 247/247/247 371/371/371 373/373/373
f 373/373/373 363/363/363 265/265/265
f 265/265/265 269/269/269 373/373/373
f 236/236/236 257/257/257 260/260/260
f 260/260/260 228/228/228 236/236/236
f 165/165/165 374/374/374 375/375/375
f 375/375/375 166/166/166 165/165/165
f 166/166/166 375/375/375 376/376/376
f 376/376/376 169/169/169 166/166/166
f 173/173/173 172/172/172 377/377/377
f 377/377/377 378/378/378 173/173/173
f 173/173/173 378/378/378 379/379/379
f 379/379/379 174/174/174 173/173/173
f 174/174/174 379/379/379 380/380/380
f 380/380/380 176/176/176 174/174/174
f 179/179/179 381/381/381 382/382/382
f 382/382/382 180/180/180 179/179/179
f 180/180/180 382/382/382 383/383/383
f 383/383/383 182/182/182 180/180/180
f 184/184/184 182/182/182 383/383/383
f 383/383/383 384/384/384 184/184/184
f 188/188/188 187/187/187 385/385/385
f 385/385/385 386/386/386 188/188/188
f 190/190/190 188/188/188 386/386/386
f 386/386/386 387/387/387 190/190/190
f 190/190/190 387/387/387 388/388/388
f 388/388/388 192/192/192 190/190/190
f 195/195/195 389/389/389 374/374/374
f 374/374/374 165/165/165 195/195/195
f 390/390/390 391/391/391 392/392/392
f 392/392/392 393/393/393 390/390/390
f 390/390/390 393/393/393 394/394/394
f 394/394/394 395/395/395 390/390/390
f 396/396/396 397/397/397 398/398/398
f 398/398/398 399/399/399 396/396/396
f 400/400/400 396/396/396 399/399/399
f 399/399/399 401/401/401 400/400/400
f 400/400/400 401/401/401 402/402/402
f 402/402/402 403/403/403 400/400/400
f 403/403/403 402/402/402 404/404/404
f 404/404/404 405/405/405 403/403/403
f 406/406/406 407/407/407 408/408/408
f 408/408/408 409/409/409 406/406/406
f 406/406/406 409/409/409 410/410/410
f 410/410/410 411/411/411 406/406/406
f 411/411/411 410/410/410 412/412/412
f 412/412/412 413/413/413 411/411/411
f 414/414/414 413/413/413 412/412/412
f 412/412/412 415/415/415 414/414/414
f 416/416/416 417/417/417 418/418/418
f 418/418/418 419/419/419 416/416/416
f 416/416/416 419/419/419 392/392/392
f 392/392/392 391/391/391 416/416/416
f 420/420/420 421/421/421 104/104/104
f 104/104/104 108/108/108 420/420/420
f 421/421/421 422/422/422 105/105/105
f 105/105/105 104/104/104 421/421/421
f 423/423/423 424/424/424 101/101/101
f 101/101/101 100/100/100 423/423/423
f 424/424/424 425/425/425 128/128/128
f 128/128/128 101/101/101 424/424/424
f 426/426/426 129/129/129 128/128/128
f 128/128/128 425/425/425 426/426/426
f 427/427/427 125/125/125 127/127/127
f 127/127/127 428/428/428 427/427/427
f 429/429/429 123/123/123 125/125/125
f 125/125/125 427/427/427 429/429/429
f 430/430/430 120/120/120 123/123/123
f 123/123/123 429/429/429 430/430/430
f 431/431/431 117/117/117 119/119/119
f 119/119/119 432/432/432 431/431/431
f 433/433/433 112/112/112 117/117/117
f 117/117/117 431/431/431 433/433/433
f 433/433/433 434/434/434 113/113/113
f 113/113/113 112/112/112 433/433/433
f 435/435/435 420/420/420 108/108/108
f 108/108/108 110/110/110 435/435/435
f 197/197/197 196/196/196 132/132/132
f 132/132/132 136/136/136 197/197/197
f 196/196/196 211/211/211 133/133/133
f 133/133/133 132/132/132 196/196/196
f 210/210/210 209/209/209 160/160/160
f 160/160/160 163/163/163 210/210/210
f 209/209/209 208/208/208 159/159/159
f 159/159/159 160/160/160 209/209/209
f 208/208/208 207/207/207 156/156/156
f 156/156/156 159/159/159 208/208/208
f 205/205/205 153/153/153 155/155/155
f 155/155/155 206/206/206 205/205/205
f 204/204/204 151/151/151 153/153/153
f 153/153/153 205/205/205 204/204/204
f 203/203/203 148/148/148 151/151/151
f 151/151/151 204/204/204 203/203/203
f 201/201/201 144/144/144 147/147/147
f 147/147/147 202/202/202 201/201/201
f 200/200/200 140/140/140 144/144/144
f 144/144/144 201/201/201 200/200/200
f 200/200/200 199/199/199 141/141/141
f 141/141/141 140/140/140 200/200/200
f 198/198/198 197/197/197 136/136/136
f 136/136/136 138/138/138 198/198/198
f 297/297/297 301/301/301 421/421/421
f 421/421/421 420/420/420 297/297/297
f 301/301/301 303/303/303 422/422/422
f 422/422/422 421/421/421 301/301/301
f 275/275/275 274/274/274 424/424/424
f 424/424/424 423/423/423 275/275/275
f 277/277/277 425/425/425 424/424/424
f 424/424/424 274/274/274 277/277/277
f 279/279/279 426/426/426 425/425/425
f 425/425/425 277/277/277 279/279/279
f 282/282/282 427/427/427 428/428/428
f 428/428/428 283/283/283 282/282/282
f 285/285/285 429/429/429 427/427/427
f 427/427/427 282/282/282 285/285/285
f 287/287/287 430/430/430 429/429/429
f 429/429/429 285/285/285 287/287/287
f 290/290/290 289/289/289 431/431/431
f 431/431/431 432/432/432 290/290/290
f 293/293/293 433/433/433 431/431/431
f 431/431/431 289/289/289 293/293/293
f 295/295/295 434/434/434 433/433/433
f 433/433/433 293/293/293 295/295/295
f 297/297/297 420/420/420 435/435/435
f 435/435/435 298/298/298 297/297/297
f 388/388/388 387/387/387 273/273/273
f 273/273/273 272/272/272 388/388/388
f 387/387/387 386/386/386 276/276/276
f 276/276/276 273/273/273 387/387/387
f 386/386/386 385/385/385 278/278/278
f 278/278/278 276/276/276 386/386/386
f 384/384/384 383/383/383 281/281/281
f 281/281/281 280/280/280 384/384/384
f 382/382/382 284/284/284 281/281/281
f 281/281/281 383/383/383 382/382/382
f 381/381/381 286/286/286 284/284/284
f 284/284/284 382/382/382 381/381/381
f 379/379/379 288/288/288 291/291/291
f 291/291/291 380/380/380 379/379/379
f 378/378/378 292/292/292 288/288/288
f 288/288/288 379/379/379 378/378/378
f 377/377/377 294/294/294 292/292/292
f 292/292/292 378/378/378 377/377/377
f 375/375/375 296/296/296 299/299/299
f 299/299/299 376/376/376 375/375/375
f 375/375/375 374/374/374 300/300/300
f 300/300/300 296/296/296 375/375/375
f 374/374/374 389/389/389 302/302/302
f 302/302/302 300/300/300 374/374/374