mtllib 55786332.mtl
o Mesh

v -0.5546990036964417 0.7164909839630127 -0.3152279853820801
v -0.5543090105056763 0.5624300241470337 -0.3710959851741791
v -0.5544310212135315 0.5068100094795227 -0.18644499778747559
v -0.554427981376648 0.8012099862098694 -0.1684119999408722
v -0.554440975189209 0.3786900043487549 -0.3302159905433655
v -0.5544189810752869 0.3193399906158447 -0.15124300122261047
v -0.5544310212135315 0.5068100094795227 0.0011119999689981341
v -0.5543789863586426 0.5182099938392639 0.19374999403953552
v -0.5544289946556091 0.8117899894714355 0.16446499526500702
v -0.5546990036964417 0.8504509925842285 -0.0015379999531432986
v -0.554423987865448 0.307779997587204 0.012990999966859818
v -0.5544019937515259 0.3262609839439392 0.1818699985742569
v -0.554377019405365 0.376010000705719 0.3441829979419708
v -0.5543299913406372 0.5531499981880188 0.3719240128993988
v -0.5544289946556091 0.7102310061454773 0.3152279853820801
v -0.5543090105056763 0.5624300241470337 -0.3710959851741791
v -0.5546990036964417 0.7164909839630127 -0.3152279853820801
v -0.3559499979019165 0.6047499775886536 -0.27225300669670105
v -0.4095900058746338 0.453561007976532 -0.3336150050163269
v -0.554427981376648 0.8012099862098694 -0.1684119999408722
v -0.3206700086593628 0.6933810114860535 -0.13460299372673035
v -0.5546990036964417 0.8504509925842285 -0.0015379999531432986
v -0.31487101316452026 0.7326200008392334 0.02802100032567978
v -0.5544289946556091 0.8117899894714355 0.16446499526500702
v -0.32103100419044495 0.6932510137557983 0.19918200373649597
v -0.5544289946556091 0.7102310061454773 0.3152279853820801
v -0.3573710024356842 0.6037610173225403 0.34786200523376465
v -0.5543299913406372 0.5531499981880188 0.3719240128993988
v -0.4095209836959839 0.4509109854698181 0.3990510106086731
v -0.554377019405365 0.376010000705719 0.3441829979419708
v -0.45629099011421204 0.3171110153198242 0.3626309931278229
v -0.4590510129928589 0.10387998819351196 0.2900570034980774
v -0.5075740218162537 0.17041000723838806 0.2978590130805969
v -0.5177339911460876 0.10159000754356384 0.1830819994211197
v -0.48104000091552734 0.06474000215530396 0.1962530016899109
v -0.5245050191879272 0.07326099276542664 0.04294100031256676
v -0.49421998858451843 0.048510998487472534 0.08490800112485886
v -0.5245050191879272 0.07326099276542664 0.04294100031256676
v -0.5180460214614868 0.09948998689651489 -0.09303399920463562
v -0.48172998428344727 0.06354999542236328 -0.02307100035250187
v -0.49421998858451843 0.048510998487472534 0.08490800112485886
v -0.5075920224189758 0.17271998524665833 -0.20997199416160583
v -0.45886000990867615 0.10520100593566895 -0.11895500123500824
v -0.45633000135421753 0.31960099935531616 -0.2985000014305115
v -0.32359999418258667 0.26135000586509705 -0.21505799889564514
v -0.3909800052642822 0.18696999549865723 -0.1858530044555664
v -0.0035200119018554688 -0.5545190572738647 0.40151700377464294
v 0.14183002710342407 -0.5414990186691284 0.36110401153564453
v 0.11433899402618408 -0.4727590084075928 0.3524729907512665
v -0.02309998869895935 -0.5024100542068481 0.38049501180648804
v -0.11956000328063965 -0.5638099908828735 0.37192800641059875
v -0.13455000519752502 -0.5251990556716919 0.3503809869289398
v -0.27810001373291016 -0.5769699811935425 0.09197700023651123
v -0.2511100172996521 -0.5742599964141846 0.20575100183486938
v -0.2621700167655945 -0.5531389713287354 0.1990250051021576
v -0.28864002227783203 -0.5593299865722656 0.0935560017824173
v -0.22249001264572144 -0.5447200536727905 -0.10917100310325623
v -0.2106899917125702 -0.5710190534591675 -0.1267230063676834
v -0.25242000818252563 -0.574368953704834 -0.018174000084400177
v -0.2634599804878235 -0.5534100532531738 -0.008549000136554241
v -0.13613998889923096 -0.5237100124359131 -0.1625860035419464
v -0.1287199854850769 -0.559209942817688 -0.18689100444316864
v -0.2106899917125702 -0.5710190534591675 -0.1267230063676834
v -0.22249001264572144 -0.5447200536727905 -0.10917100310325623
v 0.11852997541427612 -0.47044897079467773 -0.13551999628543854
v 0.16193997859954834 -0.540369987487793 -0.1634870022535324
v -0.0035200119018554688 -0.5545190572738647 -0.21735399961471558
v -0.02309998869895935 -0.5024100542068481 -0.1931840032339096
v 0.23785001039505005 -0.531978964805603 -0.04614900052547455
v 0.21872001886367798 -0.45141899585723877 -0.04094500094652176
v 0.21733999252319336 -0.4516890048980713 0.2347330003976822
v 0.23452001810073853 -0.5358589887619019 0.25485101342201233
v 0.255840003490448 -0.5272289514541626 0.09254799783229828
v 0.23496001958847046 -0.4484789967536926 0.08436000347137451
v -0.2106899917125702 -0.5710190534591675 0.3108859956264496
v -0.22249001264572144 -0.5447200536727905 0.29648199677467346
v 0.07020998001098633 -0.8649189472198486 0.412665992975235
v 0.2513999938964844 -0.9094690084457397 0.3786559998989105
v -0.2557799816131592 -0.697890043258667 0.2831850051879883
v -0.18290001153945923 -0.7487499713897705 0.3482699990272522
v -0.30041998624801636 -0.6496200561523438 0.09051000326871872
v -0.2918800115585327 -0.6768499612808228 0.19391599297523499
v -0.2650800049304962 -0.6417399644851685 -0.22421200573444366
v -0.29225999116897583 -0.6473599672317505 -0.06801600009202957
v -0.18694999814033508 -0.7070790529251099 -0.2918449938297272
v -0.2650800049304962 -0.6417399644851685 -0.22421200573444366
v 0.26840001344680786 -0.8998490571975708 -0.19594700634479523
v -0.034660011529922485 -0.8202400207519531 -0.2808710038661957
v 0.3232499957084656 -0.9099589586257935 -0.0598750002682209
v 0.32151997089385986 -0.9108589887619019 0.2472209930419922
v 0.3440200090408325 -0.9163990020751953 0.09315299987792969
v -0.21955999732017517 -0.785330057144165 0.1799740046262741
v -0.1374799907207489 -0.849308967590332 0.24111099541187286
v -0.2348099946975708 -0.8197100162506104 -0.1315069943666458
v -0.15059998631477356 -0.8563400506973267 -0.13990400731563568
v -0.11812001466751099 -0.8262499570846558 -0.05370499938726425
v -0.251039981842041 -0.7842099666595459 -0.043032001703977585
v 0.029309988021850586 -1.2972190380096436 -0.0928340032696724
v 0.022050023078918457 -1.263139009475708 -0.21596300601959229
v 0.06783998012542725 -1.2717889547348022 -0.2072570025920868
v 0.083840012550354 -1.307508945465088 -0.08901699632406235
v 0.036679983139038086 -1.3318389654159546 0.03223299980163574
v 0.10008001327514648 -1.3437989950180054 0.031083999201655388
v 0.07765001058578491 -1.3312890529632568 0.13119499385356903
v 0.014769971370697021 -1.3078190088272095 0.14211300015449524
v 0.11052000522613525 -1.0027090311050415 0.3966970145702362
v 0.25512999296188354 -1.0547089576721191 0.35275599360466003
v 0.03381001949310303 -1.0743989944458008 0.16598699986934662
v -0.030519992113113403 -0.9060499668121338 0.1544950008392334
v -0.01642000675201416 -0.9132699966430664 0.03784399852156639
v 0.04641002416610718 -1.0885089635849 0.04559899866580963
v 0.12159997224807739 -0.9675099849700928 -0.25735899806022644
v 0.27963000535964966 -1.0204989910125732 -0.20113900303840637
v 0.3243299722671509 -1.0542900562286377 -0.07760600000619888
v 0.3202400207519531 -1.0726189613342285 0.22761300206184387
v 0.3301500082015991 -1.0709589719772339 0.07494399696588516
v 0.04417997598648071 -1.0630090236663818 -0.08105000108480453
v -0.023360013961791992 -0.9050099849700928 -0.05740499868988991
v -0.05404001474380493 -0.9212299585342407 -0.15094800293445587
v 0.04198998212814331 -1.0379090309143066 -0.20573799312114716
v -0.06894001364707947 -0.9253089427947998 0.2626340091228485
v 0.022159993648529053 -1.0613490343093872 0.2773360013961792
v 0.19717997312545776 -1.2183090448379517 0.3090279996395111
v 0.11656999588012695 -1.1209290027618408 0.36111798882484436
v -0.005499988794326782 -1.2855989933013916 0.24374300241470337
v 0.0569000244140625 -1.3197189569473267 0.2237890064716339
v 0.04198998212814331 -1.0379090309143066 -0.20573799312114716
v -0.05404001474380493 -0.9212299585342407 -0.15094800293445587
v -0.10796999931335449 -0.8190100193023682 0.034070998430252075
v -0.1108500063419342 -0.8220299482345581 0.14150799810886383
v -0.24371999502182007 -0.7686100006103516 0.11601199954748154
v -0.2671799957752228 -0.7478090524673462 0.046831998974084854
v -0.2881399989128113 -0.8511199951171875 -0.21817100048065186
v -0.3241000175476074 -0.8225799798965454 -0.30297601222991943
v -0.2803400158882141 -0.8705999851226807 -0.3358120024204254
v -0.25130000710487366 -0.8934799432754517 -0.20507100224494934
v 0.2635200023651123 -1.23642897605896 0.05743499845266342
v 0.23820000886917114 -1.2315089702606201 0.1881909966468811
v 0.21727997064590454 -1.1832590103149414 -0.19999399781227112
v 0.24936002492904663 -1.2141289710998535 -0.07223200052976608
v 0.0012900233268737793 -1.1728390455245972 0.25193700194358826
v -0.3241000175476074 -0.8225799798965454 -0.30297601222991943
v -0.034660011529922485 -0.8202400207519531 -0.2808710038661957
v -0.173770010471344 -0.9175889492034912 -0.21780100464820862
v -0.2009199857711792 -0.9022500514984131 -0.3150469958782196
v -0.3241000175476074 -0.8225799798965454 -0.30297601222991943
v -0.2803400158882141 -0.8705999851226807 -0.3358120024204254
v -0.2009199857711792 -0.9022500514984131 -0.3150469958782196
v -0.2009199857711792 -0.9022500514984131 -0.3150469958782196
v 0.08468997478485107 -1.1399890184402466 -0.23833799362182617
v 0.015770018100738525 -1.1810590028762817 0.15042400360107422
v 0.031440019607543945 -1.189939022064209 0.04067099839448929
v 0.01912999153137207 -1.134058952331543 -0.1946209967136383
v 0.025240004062652588 -1.1617889404296875 -0.07789299637079239
v -0.019859999418258667 -1.2710490226745605 0.13520300388336182
v -0.007209986448287964 -1.296718955039978 0.0339060015976429
v -0.016849994659423828 -1.2271690368652344 -0.18452300131320953
v -0.012070000171661377 -1.2616690397262573 -0.07616099715232849
v 0.022050023078918457 -1.263139009475708 -0.21596300601959229
v 0.01912999153137207 -1.134058952331543 -0.1946209967136383
v -0.016849994659423828 -1.2271690368652344 -0.18452300131320953
v -0.016849994659423828 -1.2271690368652344 -0.18452300131320953
v -0.012070000171661377 -1.2616690397262573 -0.07616099715232849
v -0.007209986448287964 -1.296718955039978 0.0339060015976429
v -0.019859999418258667 -1.2710490226745605 0.13520300388336182
v -0.03156000375747681 -1.2472989559173584 0.22889499366283417
v -0.005499988794326782 -1.2855989933013916 0.24374300241470337
v -0.03156000375747681 -1.2472989559173584 0.22889499366283417
v -0.03156000375747681 -1.2472989559173584 0.22889499366283417
v 0.0012900233268737793 -1.1728390455245972 0.25193700194358826
v 0.022159993648529053 -1.0613490343093872 0.2773360013961792
v -0.06894001364707947 -0.9253089427947998 0.2626340091228485
v -0.1374799907207489 -0.849308967590332 0.24111099541187286
v -0.21955999732017517 -0.785330057144165 0.1799740046262741
v -0.2557799816131592 -0.697890043258667 0.2831850051879883
v -0.2106899917125702 -0.5710190534591675 0.3108859956264496
v -0.22249001264572144 -0.5447200536727905 0.29648199677467346
v -0.02309998869895935 -0.5024100542068481 -0.1931840032339096
v -0.13613998889923096 -0.5237100124359131 -0.1625860035419464
v -0.14858001470565796 -0.5251799821853638 -0.2145940065383911
v -0.023030012845993042 -0.5008399486541748 -0.2522760033607483
v 0.14566999673843384 -0.4627799987792969 -0.178957998752594
v 0.11852997541427612 -0.47044897079467773 -0.13551999628543854
v 0.2524399757385254 -0.44249898195266724 -0.06381600350141525
v 0.21872001886367798 -0.45141899585723877 -0.04094500094652176
v 0.27007997035980225 -0.43908900022506714 0.08453000336885452
v 0.23496001958847046 -0.4484789967536926 0.08436000347137451
v 0.2515699863433838 -0.44280898571014404 0.2600399851799011
v 0.21733999252319336 -0.4516890048980713 0.2347330003976822
v 0.14148002862930298 -0.46508902311325073 0.3995650112628937
v 0.11433899402618408 -0.4727590084075928 0.3524729907512665
v -0.023030012845993042 -0.5008399486541748 0.4411259889602661
v -0.02309998869895935 -0.5024100542068481 0.38049501180648804
v -0.14893999695777893 -0.5265500545501709 0.40393099188804626
v -0.13455000519752502 -0.5251990556716919 0.3503809869289398
v -0.24948999285697937 -0.5492490530014038 0.3395799994468689
v -0.22249001264572144 -0.5447200536727905 0.29648199677467346
v -0.2945600152015686 -0.5588799715042114 0.22178299725055695
v -0.2621700167655945 -0.5531389713287354 0.1990250051021576
v -0.3246300220489502 -0.5659890174865723 0.09430299699306488
v -0.28864002227783203 -0.5593299865722656 0.0935560017824173
v -0.3246300220489502 -0.5659890174865723 0.09430299699306488
v -0.2960299849510193 -0.5592000484466553 -0.02910899929702282
v -0.2634599804878235 -0.5534100532531738 -0.008549000136554241
v -0.28864002227783203 -0.5593299865722656 0.0935560017824173
v -0.24948999285697937 -0.5492500066757202 -0.1507290005683899
v -0.22249001264572144 -0.5447200536727905 -0.10917100310325623
v -0.14520001411437988 -0.48892998695373535 -0.19606000185012817
v -0.028919994831085205 -0.46549999713897705 -0.23263199627399445
v -0.2452400028705597 -0.5121899843215942 -0.13650499284267426
v -0.2896900177001953 -0.5217800140380859 -0.021376999095082283
v -0.3170199990272522 -0.5283689498901367 0.09544699639081955
v -0.3170199990272522 -0.5283689498901367 0.09544699639081955
v -0.2882999777793884 -0.5214799642562866 0.21612399816513062
v -0.2452400028705597 -0.5121899843215942 0.32763299345970154
v -0.14833998680114746 -0.48983001708984375 0.38752299547195435
v -0.028921008110046387 -0.46549999713897705 0.42375901341438293
v 0.1254500150680542 -0.4314489960670471 0.3876180052757263
v 0.23287999629974365 -0.40950900316238403 0.254381000995636
v 0.2510700225830078 -0.40584897994995117 0.08564499765634537
v 0.2339400053024292 -0.4092090129852295 -0.05608399957418442
v 0.12963998317718506 -0.42913997173309326 -0.16473400592803955
v -0.2408199906349182 0.3464210033416748 -0.1632010042667389
v -0.18740001320838928 0.39545100927352905 -0.055872999131679535
v -0.1765199899673462 0.4175800085067749 0.07368200272321701
v -0.1878809928894043 0.3953700065612793 0.21407200396060944
v -0.24279099702835083 0.3456200063228607 0.3332740068435669
v -0.3237909972667694 0.2598310112953186 0.37230798602104187
v -0.5544049739837646 0.11379000544548035 -0.11264500021934509
v -0.5544520020484924 0.18410000205039978 -0.23536799848079681
v -0.5544160008430481 0.08954998850822449 0.026016000658273697
v -0.554427981376648 0.11579000949859619 0.16884399950504303
v -0.5544160008430481 0.08954998850822449 0.026016000658273697
v -0.5544289946556091 0.1817910075187683 0.28892800211906433
v -0.554440975189209 0.3786900043487549 -0.3302159905433655
v -0.39186999201774597 0.18546101450920105 0.3423669934272766
v -0.5544289946556091 0.1817910075187683 0.28892800211906433
v -0.554427981376648 0.11579000949859619 0.16884399950504303
v -0.5544160008430481 0.08954998850822449 0.026016000658273697
v -0.5544049739837646 0.11379000544548035 -0.11264500021934509
v -0.5544520020484924 0.18410000205039978 -0.23536799848079681
v -0.07297998666763306 -0.3510800004005432 -0.2091600000858307
v 0.06286001205444336 -0.30817997455596924 -0.14547699689865112
v 0.15202999114990234 -0.2842400074005127 -0.03911200165748596
v 0.1670600175857544 -0.27775901556015015 0.09772200137376785
v 0.1511399745941162 -0.284479022026062 0.25809401273727417
v 0.05931001901626587 -0.3100990056991577 0.38625600934028625
v -0.07300999760627747 -0.35135000944137573 0.4222469925880432
v -0.17634999752044678 -0.38314002752304077 0.3878450095653534
v -0.2623400092124939 -0.41468000411987305 0.330469012260437
v -0.29914000630378723 -0.4287099838256836 0.22429999709129333
v -0.32343000173568726 -0.43685901165008545 0.10760100185871124
v -0.32343000173568726 -0.43685901165008545 0.10760100185871124
v -0.3003299832344055 -0.4291499853134155 -0.0054060001857578754
v -0.2623099982738495 -0.4144499897956848 -0.11484599858522415
v -0.17379999160766602 -0.38217997550964355 -0.1746249943971634
v -0.0395599901676178 0.163239985704422 -0.014109999872744083
v -0.02595001459121704 0.17876100540161133 0.12392500042915344
v -0.11419999599456787 0.12403100728988647 -0.1250769942998886
v -0.2286899983882904 0.05531001091003418 -0.18464499711990356
v -0.31692999601364136 -0.001538991928100586 -0.15174099802970886
v -0.39921998977661133 -0.06309002637863159 -0.08573199808597565
v -0.43108999729156494 -0.09355998039245605 0.02038400061428547
v -0.44968998432159424 -0.10576999187469482 0.13492800295352936
v -0.44968998432159424 -0.10576999187469482 0.13492800295352936
v -0.43011000752449036 -0.09267997741699219 0.2531239986419678
v -0.39934098720550537 -0.06392902135848999 0.35650500655174255
v -0.31870999932289124 -0.0028690099716186523 0.4132690131664276
v -0.22880101203918457 0.05433100461959839 0.4465160071849823
v -0.11708998680114746 0.12262099981307983 0.4074620008468628
v -0.04028001427650452 0.16306999325752258 0.2793619930744171
v 0.06660997867584229 0.0711199939250946 0.1152999997138977
v 0.05037999153137207 0.05810999870300293 -0.03412000089883804
v -0.041790008544921875 0.02180001139640808 -0.15264399349689484
v -0.18270999193191528 -0.04225897789001465 -0.21915699541568756
v -0.2894899845123291 -0.09325999021530151 -0.18269799649715424
v -0.3864400088787079 -0.14783000946044922 -0.11372599750757217
v -0.42576998472213745 -0.17426902055740356 0.003005000064149499
v -0.4491499960422516 -0.18568897247314453 0.12676000595092773
v -0.42454099655151367 -0.17350000143051147 0.2544980049133301
v -0.4491499960422516 -0.18568897247314453 0.12676000595092773
v -0.3865309953689575 -0.14847898483276367 0.36802399158477783
v -0.2918899953365326 -0.09454900026321411 0.42995399236679077
v -0.18281099200248718 -0.043020009994506836 0.4665769934654236
v -0.045399993658065796 0.020020008087158203 0.42549699544906616
v 0.04948002099990845 0.05788999795913696 0.286314994096756

vn -0.4615730047225952 0.5831109881401062 -0.6685289740562439
vn -0.5276529788970947 0.11834599822759628 -0.8411759734153748
vn -1.0 -0.00016900000628083944 -2.300000051036477e-05
vn -0.5049440264701843 0.7942950129508972 -0.33782801032066345
vn -0.6503769755363464 -0.23841899633407593 -0.7212250232696533
vn -1.0 -7.999999979801942e-06 8.70000003487803e-05
vn -1.0 -0.0001500000071246177 9.300000237999484e-05
vn -1.0 -4.3000000005122274e-05 0.00021800000104121864
vn -0.5155090093612671 0.7954819798469543 0.3185249865055084
vn -0.47673499584198 0.8784160017967224 -0.033323001116514206
vn -1.0 -1.8000000636675395e-05 2.099999983329326e-05
vn -1.0 0.00011999999696854502 0.00011200000153621659
vn -0.7940099835395813 -0.12164700031280518 0.5956090092658997
vn -0.6793969869613647 0.13513900339603424 0.721219003200531
vn -0.5528039932250977 0.5658339858055115 0.6117510199546814
vn -0.5276529788970947 0.11834599822759628 -0.8411759734153748
vn -0.4615730047225952 0.5831109881401062 -0.6685289740562439
vn 0.64512699842453 0.35304000973701477 -0.677623987197876
vn 0.4276750087738037 -0.08560100197792053 -0.899869978427887
vn -0.5049440264701843 0.7942950129508972 -0.33782801032066345
vn 0.7157099843025208 0.6114799976348877 -0.3374190032482147
vn -0.47673499584198 0.8784160017967224 -0.033323001116514206
vn 0.7036070227622986 0.7105889916419983 -0.0007830000249668956
vn -0.5155090093612671 0.7954819798469543 0.3185249865055084
vn 0.6580929756164551 0.6671800017356873 0.3489759862422943
vn -0.5528039932250977 0.5658339858055115 0.6117510199546814
vn 0.4574100077152252 0.46564799547195435 0.7575939893722534
vn -0.6793969869613647 0.13513900339603424 0.721219003200531
vn 0.07107900083065033 0.0396450012922287 0.9966819882392883
vn -0.7940099835395813 -0.12164700031280518 0.5956090092658997
vn -0.24904300272464752 -0.22751100361347198 0.9413909912109375
vn -0.7231850028038025 -0.27764400839805603 0.632390022277832
vn -0.38167399168014526 -0.49862098693847656 0.7782689929008484
vn -0.5993829965591431 -0.7323729991912842 0.3230629861354828
vn -0.8678200244903564 -0.4155319929122925 0.2724359929561615
vn -0.5216479897499084 -0.8526260256767273 -0.03019700013101101
vn -0.8570359945297241 -0.5147349834442139 0.02318600006401539
vn -0.5216479897499084 -0.8526260256767273 -0.03019700013101101
vn -0.2006859928369522 -0.9095020294189453 -0.3640489876270294
vn -0.6992980241775513 -0.6566889882087708 -0.28238800168037415
vn -0.8570359945297241 -0.5147349834442139 0.02318600006401539
vn 0.15536099672317505 -0.7264540195465088 -0.66942298412323
vn -0.3272149860858917 -0.6598979830741882 -0.6763619780540466
vn 0.20827800035476685 -0.4209060072898865 -0.8828700184822083
vn 0.35791999101638794 -0.22203099727630615 -0.9069700241088867
vn -0.0051009999588131905 -0.46762600541114807 -0.8839120268821716
vn -0.023310000076889992 0.17477700114250183 0.9843320250511169
vn 0.5015320181846619 0.2394070029258728 0.831354022026062
vn 0.5107660293579102 -0.6101779937744141 0.6056410074234009
vn 0.0999709963798523 -0.6033530235290527 0.7911829948425293
vn -0.3841570019721985 0.15549799799919128 0.9100790023803711
vn -0.2102389931678772 -0.643248975276947 0.7362269759178162
vn -0.9946839809417725 -0.10225799679756165 -0.012148999609053135
vn -0.9439679980278015 -0.025148000568151474 0.32907798886299133
vn -0.42787298560142517 -0.8846920132637024 0.1850540041923523
vn -0.339385986328125 -0.9406239986419678 0.00662099989131093
vn -0.4084770083427429 -0.8269590139389038 -0.38637399673461914
vn -0.7029550075531006 0.5225750207901001 -0.48246198892593384
vn -0.9573410153388977 0.11149299889802933 -0.2665869891643524
vn -0.4416849911212921 -0.8781319856643677 -0.18384400010108948
vn -0.2430810034275055 -0.5968120098114014 -0.7646750211715698
vn -0.3355410099029541 0.574662983417511 -0.7464410066604614
vn -0.7029550075531006 0.5225750207901001 -0.48246198892593384
vn -0.4084770083427429 -0.8269590139389038 -0.38637399673461914
vn 0.5886520147323608 -0.48478999733924866 -0.6468909978866577
vn 0.5357620120048523 0.3992820084095001 -0.7439979910850525
vn 0.10507199913263321 0.3696880042552948 -0.923196017742157
vn 0.18037199974060059 -0.5800099968910217 -0.794389009475708
vn 0.8868079781532288 0.28003498911857605 -0.3676309883594513
vn 0.7229539752006531 -0.6226720213890076 -0.299360990524292
vn 0.763297975063324 -0.591992974281311 0.2586910128593445
vn 0.8703740239143372 0.26163798570632935 0.41712701320648193
vn 0.9715160131454468 0.2369450032711029 0.003633999964222312
vn 0.8444830179214478 -0.5354740023612976 -0.010753000155091286
vn -0.7234089970588684 0.1128619983792305 0.6811320185661316
vn -0.3847210109233856 -0.8423219919204712 0.377469003200531
vn -0.16551999747753143 -0.14384299516677856 0.9756600260734558
vn 0.5979179739952087 0.027098000049591064 0.8010990023612976
vn -0.8522120118141174 -0.1989690065383911 0.4838869869709015
vn -0.5958080291748047 -0.33347201347351074 0.7306230068206787
vn -0.9999330043792725 0.005865999963134527 0.009996999986469746
vn -0.9679350256919861 -0.11585000157356262 0.2228900045156479
vn -0.7351779937744141 0.5091950297355652 -0.44747599959373474
vn -0.9761840105056763 0.17069999873638153 -0.13388800621032715
vn -0.04576599970459938 0.3742870092391968 -0.9261829853057861
vn -0.7351779937744141 0.5091950297355652 -0.44747599959373474
vn 0.6856210231781006 0.16725599765777588 -0.7084839940071106
vn 0.1730010062456131 -0.19809700548648834 -0.9647949934005737
vn 0.9671189785003662 0.11890900135040283 -0.2248159945011139
vn 0.9469529986381531 0.08238500356674194 0.31063300371170044
vn 0.9972779750823975 0.07372400164604187 -0.0007639999967068434
vn -0.6412500143051147 -0.7650110125541687 0.059647999703884125
vn -0.696008026599884 -0.717926025390625 -0.012469000183045864
vn -0.7092270255088806 -0.5587800145149231 0.42983898520469666
vn -0.3380590081214905 -0.7626050114631653 0.5514979958534241
vn -0.44975998997688293 -0.8558130264282227 0.2555379867553711
vn -0.719556987285614 -0.6835110187530518 0.12267900258302689
vn -0.4393729865550995 -0.8679419755935669 -0.2315790057182312
vn -0.4161199927330017 -0.5463269948959351 -0.7268909811973572
vn 0.17690399289131165 -0.7355859875679016 -0.6539250016212463
vn 0.17364099621772766 -0.9364920258522034 -0.3046819865703583
vn -0.40074899792671204 -0.9132570028305054 -0.073232002556324
vn 0.2133059948682785 -0.9746180176734924 -0.06797400116920471
vn 0.09848000109195709 -0.9825900197029114 0.1575389951467514
vn -0.5514960289001465 -0.8314110040664673 0.06788399815559387
vn -0.23551499843597412 -0.2471799999475479 0.9399120211601257
vn 0.6044340133666992 -0.24650299549102783 0.7575600147247314
vn -0.9847170114517212 -0.1168150007724762 -0.1291770040988922
vn -0.8113499879837036 -0.5421479940414429 -0.21860100328922272
vn -0.8480809926986694 -0.5288469791412354 -0.03285500034689903
vn -0.9969519972801208 -0.06406600028276443 -0.044523000717163086
vn 0.0015150000108405948 -0.061834000051021576 -0.9980850219726562
vn 0.7028509974479675 -0.08679500222206116 -0.7060220241546631
vn 0.9575620293617249 -0.19416700303554535 -0.2130119949579239
vn 0.9249839782714844 -0.26978600025177 0.2676190137863159
vn 0.968388020992279 -0.24931800365447998 -0.008117999881505966
vn -0.9901049733161926 -0.13290700316429138 0.04503900185227394
vn -0.7870720028877258 -0.5886679887771606 0.18435899913311005
vn -0.5951470136642456 -0.7997699975967407 -0.07853399962186813
vn -0.7884349822998047 -0.08763100206851959 -0.608843982219696
vn -0.7734869718551636 -0.6022480130195618 0.19752399623394012
vn -0.8740209937095642 -0.2516520023345947 0.41564199328422546
vn 0.4150579869747162 -0.6275579929351807 0.6587089896202087
vn -0.2476000040769577 -0.31011900305747986 0.9178889989852905
vn -0.5805349946022034 -0.5922859907150269 0.5587270259857178
vn -0.020573999732732773 -0.9121840000152588 0.4092639982700348
vn -0.7884349822998047 -0.08763100206851959 -0.608843982219696
vn -0.5951470136642456 -0.7997699975967407 -0.07853399962186813
vn -0.5379350185394287 -0.8419809937477112 0.041145000606775284
vn -0.5512269735336304 -0.8147810101509094 -0.17966899275779724
vn -0.6686879992485046 -0.7435100078582764 0.007052000146359205
vn -0.7973229885101318 -0.600479006767273 0.0608379989862442
vn -0.8877930045127869 -0.2705079913139343 0.37235701084136963
vn -0.9279239773750305 -0.005615000147372484 -0.37272799015045166
vn -0.4225339889526367 -0.4468420147895813 -0.7885410189628601
vn -0.49698498845100403 -0.7883880138397217 0.3625609874725342
vn 0.7705140113830566 -0.6374220252037048 -0.0014019999653100967
vn 0.6985549926757812 -0.6833890080451965 0.2121330052614212
vn 0.557790994644165 -0.4681119918823242 -0.685375988483429
vn 0.7352399826049805 -0.6282079815864563 -0.2545129954814911
vn -0.9190760254859924 0.15263700485229492 0.363319993019104
vn -0.9279239773750305 -0.005615000147372484 -0.37272799015045166
vn 0.1730010062456131 -0.19809700548648834 -0.9647949934005737
vn -0.010730000212788582 -0.9946200251579285 0.10303200036287308
vn 0.10011900216341019 -0.7090330123901367 -0.6980310082435608
vn -0.9279239773750305 -0.005615000147372484 -0.37272799015045166
vn -0.4225339889526367 -0.4468420147895813 -0.7885410189628601
vn 0.10011900216341019 -0.7090330123901367 -0.6980310082435608
vn 0.10011900216341019 -0.7090330123901367 -0.6980310082435608
vn -0.14766600728034973 -0.07689999788999557 -0.9860429763793945
vn -0.9429829716682434 0.2911989986896515 -0.161203995347023
vn -0.9647989869117737 0.2615709900856018 -0.027276000007987022
vn -0.875461995601654 0.21266299486160278 -0.4339820146560669
vn -0.9572790265083313 0.2674559950828552 0.10992900282144547
vn -0.9813500046730042 -0.1705310046672821 -0.0887259989976883
vn -0.9336299896240234 -0.35391300916671753 -0.055500999093055725
vn -0.9356870055198669 -0.07479699701070786 -0.3448120057582855
vn -0.975337028503418 -0.21860800683498383 -0.0304579995572567
vn -0.4161199927330017 -0.5463269948959351 -0.7268909811973572
vn -0.875461995601654 0.21266299486160278 -0.4339820146560669
vn -0.9356870055198669 -0.07479699701070786 -0.3448120057582855
vn -0.9356870055198669 -0.07479699701070786 -0.3448120057582855
vn -0.975337028503418 -0.21860800683498383 -0.0304579995572567
vn -0.9336299896240234 -0.35391300916671753 -0.055500999093055725
vn -0.9813500046730042 -0.1705310046672821 -0.0887259989976883
vn -0.9500340223312378 -0.024529000744223595 0.3111819922924042
vn -0.5805349946022034 -0.5922859907150269 0.5587270259857178
vn -0.9500340223312378 -0.024529000744223595 0.3111819922924042
vn -0.9500340223312378 -0.024529000744223595 0.3111819922924042
vn -0.9190760254859924 0.15263700485229492 0.363319993019104
vn -0.8740209937095642 -0.2516520023345947 0.41564199328422546
vn -0.7734869718551636 -0.6022480130195618 0.19752399623394012
vn -0.696008026599884 -0.717926025390625 -0.012469000183045864
vn -0.6412500143051147 -0.7650110125541687 0.059647999703884125
vn -0.8522120118141174 -0.1989690065383911 0.4838869869709015
vn -0.7234089970588684 0.1128619983792305 0.6811320185661316
vn -0.3847210109233856 -0.8423219919204712 0.377469003200531
vn 0.18037199974060059 -0.5800099968910217 -0.794389009475708
vn -0.2430810034275055 -0.5968120098114014 -0.7646750211715698
vn -0.26130300760269165 -0.5103920102119446 -0.8192809820175171
vn 0.12455499917268753 -0.4204770028591156 -0.8987129926681519
vn 0.5854229927062988 -0.36191698908805847 -0.725462019443512
vn 0.5886520147323608 -0.48478999733924866 -0.6468909978866577
vn 0.8647310137748718 -0.3197399973869324 -0.38730698823928833
vn 0.7229539752006531 -0.6226720213890076 -0.299360990524292
vn 0.9339839816093445 -0.35724499821662903 -0.007036000024527311
vn 0.8444830179214478 -0.5354740023612976 -0.010753000155091286
vn 0.8809800148010254 -0.33027300238609314 0.33881300687789917
vn 0.763297975063324 -0.591992974281311 0.2586910128593445
vn 0.5591220259666443 -0.3676469922065735 0.7431139945983887
vn 0.5107660293579102 -0.6101779937744141 0.6056410074234009
vn 0.07282199710607529 -0.46248799562454224 0.8836299777030945
vn 0.0999709963798523 -0.6033530235290527 0.7911829948425293
vn -0.24828900396823883 -0.5401139855384827 0.8041329979896545
vn -0.2102389931678772 -0.643248975276947 0.7362269759178162
vn -0.5649480223655701 -0.5936920046806335 0.5730289816856384
vn -0.3847210109233856 -0.8423219919204712 0.377469003200531
vn -0.6847310066223145 -0.6808429956436157 0.2599929869174957
vn -0.42787298560142517 -0.8846920132637024 0.1850540041923523
vn -0.7507590055465698 -0.6605719923973083 -0.0023419999051839113
vn -0.339385986328125 -0.9406239986419678 0.00662099989131093
vn -0.7507590055465698 -0.6605719923973083 -0.0023419999051839113
vn -0.6908910274505615 -0.6741750240325928 -0.26107099652290344
vn -0.4416849911212921 -0.8781319856643677 -0.18384400010108948
vn -0.339385986328125 -0.9406239986419678 0.00662099989131093
vn -0.5629299879074097 -0.5822839736938477 -0.586562991142273
vn -0.4084770083427429 -0.8269590139389038 -0.38637399673461914
vn -0.4353469908237457 0.25732699036598206 -0.8627030253410339
vn -0.007581000216305256 0.36201098561286926 -0.932142972946167
vn -0.7772390246391296 0.16443200409412384 -0.6073399782180786
vn -0.955473005771637 0.07547800242900848 -0.2852630019187927
vn -0.9977089762687683 0.06763599812984467 -0.0012750000460073352
vn -0.9977089762687683 0.06763599812984467 -0.0012750000460073352
vn -0.9572160243988037 0.03723200038075447 0.2869679927825928
vn -0.7859050035476685 0.07891400158405304 0.6132910251617432
vn -0.43303701281547546 0.13843199610710144 0.8906829953193665
vn -0.058285001665353775 0.23371300101280212 0.9705569744110107
vn 0.4543150067329407 0.3907409906387329 0.8005750179290771
vn 0.7885100245475769 0.5037559866905212 0.3528209924697876
vn 0.8523820042610168 0.5228610038757324 -0.00790099985897541
vn 0.7542039752006531 0.5267559885978699 -0.39205101132392883
vn 0.4545390009880066 0.4614410102367401 -0.7618839740753174
vn 0.7211859822273254 0.12771500647068024 -0.6808670163154602
vn 0.8656030297279358 0.3690809905529022 -0.33839499950408936
vn 0.8857750296592712 0.4640919864177704 -0.0045380000956356525
vn 0.8183140158653259 0.47540798783302307 0.3230319917201996
vn 0.5400519967079163 0.34923800826072693 0.7657529711723328
vn -0.05087300017476082 0.07565899938344955 0.99583500623703
vn -0.7109959721565247 -0.6379389762878418 -0.2958349883556366
vn -0.5806639790534973 -0.5497660040855408 -0.6004890203475952
vn -0.821349024772644 -0.5688830018043518 -0.041923001408576965
vn -0.8286399841308594 -0.5277270078659058 0.18670900166034698
vn -0.821349024772644 -0.5688830018043518 -0.041923001408576965
vn -0.7451729774475098 -0.40308600664138794 0.5312619805335999
vn -0.6503769755363464 -0.23841899633407593 -0.7212250232696533
vn -0.4117540121078491 -0.10083500295877457 0.9056990146636963
vn -0.7451729774475098 -0.40308600664138794 0.5312619805335999
vn -0.8286399841308594 -0.5277270078659058 0.18670900166034698
vn -0.821349024772644 -0.5688830018043518 -0.041923001408576965
vn -0.7109959721565247 -0.6379389762878418 -0.2958349883556366
vn -0.5806639790534973 -0.5497660040855408 -0.6004890203475952
vn 0.026972999796271324 0.10011599957942963 -0.9946100115776062
vn 0.5290510058403015 0.2790299952030182 -0.8014029860496521
vn 0.8189409971237183 0.40623900294303894 -0.40534698963165283
vn 0.907958984375 0.4190160036087036 -0.006020000204443932
vn 0.8507739901542664 0.3693920075893402 0.3738099932670593
vn 0.5230069756507874 0.16927699744701385 0.8353490233421326
vn -0.005406999960541725 -0.0679360032081604 0.9976750016212463
vn -0.3714829981327057 -0.1949169933795929 0.9077489972114563
vn -0.7121080160140991 -0.28380098938941956 0.6421520113945007
vn -0.9095669984817505 -0.30016499757766724 0.28738299012184143
vn -0.9632250070571899 -0.2684510052204132 0.01144300028681755
vn -0.9632250070571899 -0.2684510052204132 0.01144300028681755
vn -0.9291260242462158 -0.2383890002965927 -0.28265899419784546
vn -0.7595800161361694 -0.16050000488758087 -0.630299985408783
vn -0.4212920069694519 -0.05486699938774109 -0.9052640199661255
vn 0.7477970123291016 0.5504630208015442 -0.37119999527931213
vn 0.802137017250061 0.5971159934997559 0.005363999865949154
vn 0.5230770111083984 0.36880800127983093 -0.7683560252189636
vn 0.01458400022238493 0.09945599734783173 -0.9949349761009216
vn -0.4422380030155182 -0.09353899955749512 -0.8920069932937622
vn -0.7948610186576843 -0.15240800380706787 -0.5873399972915649
vn -0.95415198802948 -0.17393499612808228 -0.243600994348526
vn -0.9895359873771667 -0.14195199310779572 0.025839999318122864
vn -0.9895359873771667 -0.14195199310779572 0.025839999318122864
vn -0.9556319713592529 -0.14102600514888763 0.2586109936237335
vn -0.7860980033874512 -0.04540399834513664 0.6164320111274719
vn -0.4944869875907898 0.06920100003480911 0.8664259910583496
vn -0.14297500252723694 0.21176500618457794 0.9668059945106506
vn 0.38995298743247986 0.4542289972305298 0.8010069727897644
vn 0.7180389761924744 0.5915700197219849 0.36669299006462097
vn 0.8771899938583374 0.48006901144981384 -0.008538000285625458
vn 0.7957749962806702 0.457832008600235 -0.39639899134635925
vn 0.5045899748802185 0.34408798813819885 -0.791828989982605
vn -0.005034999921917915 0.14772899448871613 -0.9890149831771851
vn -0.4576210081577301 -0.014008999802172184 -0.889037013053894
vn -0.7689489722251892 -0.13696600496768951 -0.6244660019874573
vn -0.9348130226135254 -0.2253890037536621 -0.2744530141353607
vn -0.9699239730834961 -0.24335399270057678 0.005160000175237656
vn -0.9246960282325745 -0.26017799973487854 0.27792900800704956
vn -0.9699239730834961 -0.24335399270057678 0.005160000175237656
vn -0.7342489957809448 -0.2166929990053177 0.6433690190315247
vn -0.39309900999069214 -0.10842200368642807 0.9130820035934448
vn -0.023229999467730522 0.02383499965071678 0.9994459748268127
vn 0.510670006275177 0.2707740068435669 0.8160250186920166
vn 0.8230360150337219 0.4324049949645996 0.3682900071144104

vt 0.050067998468875885 0.9412840008735657
vt 0.054652001708745956 0.9307290017604828
vt 0.04195199906826019 0.9260310009121895
vt 0.0394119992852211 0.9465840011835098
vt 0.0525830015540123 0.9176750034093857
vt 0.0402970016002655 0.9127399995923042
vt 0.02880699932575226 0.9252180010080338
vt 0.0152580002322793 0.9251819998025894
vt 0.01603800058364868 0.9458840005099773
vt 0.027504000812768936 0.9493129998445511
vt 0.028838999569416046 0.9112180024385452
vt 0.016922999173402786 0.9117809981107712
vt 0.005332000087946653 0.9145649969577789
vt 0.0026199999265372753 0.9268589988350868
vt 0.005911999847739935 0.9381130002439022
vt 0.6118190288543701 0.9567329995334148
vt 0.6420609951019287 0.9813049994409084
vt 0.6471080183982849 0.9307530000805855
vt 0.6187430024147034 0.9145189970731735
vt 0.683184027671814 0.9940269999206066
vt 0.6810950040817261 0.9366339966654778
vt 0.7224100232124329 0.9960819999687374
vt 0.7155500054359436 0.93698800355196
vt 0.760217010974884 0.9842290002852678
vt 0.7523589730262756 0.9258380010724068
vt 0.7981119751930237 0.9603790007531643
vt 0.7885990142822266 0.9122579991817474
vt 0.8280400037765503 0.9281219989061356
vt 0.8112559914588928 0.889285996556282
vt 0.8501080274581909 0.8919799998402596
vt 0.8335859775543213 0.868940994143486
vt 0.8641790151596069 0.829708993434906
vt 0.8627369999885559 0.8464889973402023
vt 0.8913040161132812 0.8315840065479279
vt 0.8884789943695068 0.8208920061588287
vt 0.9236180186271667 0.8232010006904602
vt 0.9140059947967529 0.8165149986743927
vt 0.5291000008583069 0.8251200020313263
vt 0.5570629835128784 0.8400910049676895
vt 0.5467140078544617 0.8250750005245209
vt 0.5218799710273743 0.8158250004053116
vt 0.5770999789237976 0.8618769943714142
vt 0.5718169808387756 0.8343009948730469
vt 0.6003950238227844 0.8903890028595924
vt 0.6178280115127563 0.8568110018968582
vt 0.5952230095863342 0.8484880030155182
vt 0.5392979979515076 0.10373800992965698
vt 0.5407810211181641 0.1171029806137085
vt 0.5464199781417847 0.11665701866149902
vt 0.5439910292625427 0.10363501310348511
vt 0.5378580093383789 0.0936170220375061
vt 0.5414429903030396 0.0929269790649414
vt 0.5370230078697205 0.05917501449584961
vt 0.5365710258483887 0.06991499662399292
vt 0.5386189818382263 0.0692330002784729
vt 0.5388569831848145 0.05951201915740967
vt 0.5409709811210632 0.04178398847579956
vt 0.5388879776000977 0.03980898857116699
vt 0.5376290082931519 0.049479007720947266
vt 0.539463996887207 0.05068397521972656
vt 0.543067991733551 0.1935809850692749
vt 0.5391150116920471 0.19491398334503174
vt 0.542701005935669 0.20161300897598267
vt 0.5456820130348206 0.20136302709579468
vt 0.5449950098991394 0.17054498195648193
vt 0.5381050109863281 0.17036199569702148
vt 0.5372250080108643 0.1856290102005005
vt 0.5423120260238647 0.18420499563217163
vt 0.5406039953231812 0.1583539843559265
vt 0.5469620227813721 0.15814197063446045
vt 0.5480449795722961 0.1312289834022522
vt 0.5415760278701782 0.13007700443267822
vt 0.5420539975166321 0.14565002918243408
vt 0.5480449795722961 0.1463019847869873
vt 0.5364300012588501 0.08441901206970215
vt 0.5388829708099365 0.08353501558303833
vt 0.5102519989013672 0.10361599922180176
vt 0.5093770027160645 0.11839097738265991
vt 0.523464024066925 0.07792502641677856
vt 0.5196549892425537 0.08492499589920044
vt 0.5302640199661255 0.05855202674865723
vt 0.5276029706001282 0.06728297472000122
vt 0.5305039882659912 0.032424986362457275
vt 0.5298619866371155 0.045404016971588135
vt 0.5223889946937561 0.20406198501586914
vt 0.5319830179214478 0.20779097080230713
vt 0.5074819922447205 0.17131799459457397
vt 0.5098819732666016 0.19552302360534668
vt 0.50907301902771 0.15828001499176025
vt 0.5107449889183044 0.13178497552871704
vt 0.5099250078201294 0.14554601907730103
vt 0.5099290013313293 0.07508701086044312
vt 0.5047760009765625 0.08364301919937134
vt 0.5146589875221252 0.039170026779174805
vt 0.5062749981880188 0.04070699214935303
vt 0.5068259835243225 0.048406004905700684
vt 0.5182409882545471 0.04664498567581177
vt 0.46442198753356934 0.15712499618530273
vt 0.4669699966907501 0.16958802938461304
vt 0.47012901306152344 0.16953200101852417
vt 0.4681999981403351 0.1571120023727417
vt 0.46439099311828613 0.1444770097732544
vt 0.4690850079059601 0.14471399784088135
vt 0.46846699714660645 0.1338220238685608
vt 0.4635249972343445 0.13215398788452148
vt 0.4982219934463501 0.10575801134109497
vt 0.4984230101108551 0.12040001153945923
vt 0.4838860034942627 0.0705689787864685
vt 0.4986009895801544 0.06720602512359619
vt 0.4959760010242462 0.05749702453613281
vt 0.4809199869632721 0.06047302484512329
vt 0.4974740147590637 0.18433797359466553
vt 0.4978089928627014 0.17017102241516113
vt 0.49741899967193604 0.158253014087677
vt 0.49775099754333496 0.13214397430419922
vt 0.49755701422691345 0.14573001861572266
vt 0.4814479947090149 0.04943197965621948
vt 0.4958980083465576 0.04956400394439697
vt 0.495261013507843 0.04143500328063965
vt 0.48201799392700195 0.03882497549057007
vt 0.49802500009536743 0.08910900354385376
vt 0.4867999851703644 0.10023701190948486
vt 0.48464900255203247 0.12149101495742798
vt 0.48782598972320557 0.10967200994491577
vt 0.469543993473053 0.11662101745605469
vt 0.4690989851951599 0.12298297882080078
vt 0.48838600516319275 0.18720197677612305
vt 0.4955059885978699 0.19701999425888062
vt 0.5075039863586426 0.05558502674102783
vt 0.508243978023529 0.06483399868011475
vt 0.5195310115814209 0.06110900640487671
vt 0.5218539834022522 0.05460798740386963
vt 0.5136229991912842 0.02965402603149414
vt 0.5149279832839966 0.021197021007537842
vt 0.508679986000061 0.01969897747039795
vt 0.5094249844551086 0.031186997890472412
vt 0.483473002910614 0.1442130208015442
vt 0.48304998874664307 0.1312350034713745
vt 0.4831779897212982 0.16851097345352173
vt 0.48326098918914795 0.15586000680923462
vt 0.47641000151634216 0.10672801733016968
vt 0.5169339776039124 0.0220639705657959
vt 0.48700299859046936 0.030507981777191162
vt 0.5025020241737366 0.03247702121734619
vt 0.5014770030975342 0.023826003074645996
vt 0.5152890086174011 0.2149919867515564
vt 0.5093250274658203 0.21213901042938232
vt 0.5019590258598328 0.023747026920318604
vt 0.505092978477478 0.20677298307418823
vt 0.48104700446128845 0.17873799800872803
vt 0.47469499707221985 0.07091200351715088
vt 0.47251999378204346 0.06158798933029175
vt 0.4739289879798889 0.04112398624420166
vt 0.47310900688171387 0.05117899179458618
vt 0.46660301089286804 0.07113301753997803
vt 0.4631989896297455 0.06275498867034912
vt 0.4657129943370819 0.043344974517822266
vt 0.4643479883670807 0.05285602807998657
vt 0.4692569971084595 0.1723870038986206
vt 0.47884300351142883 0.1831030249595642
vt 0.4702869951725006 0.17716699838638306
vt 0.4624220132827759 0.1667029857635498
vt 0.46067699790000916 0.15587997436523438
vt 0.46065500378608704 0.14439797401428223
vt 0.4601669907569885 0.1326259970664978
vt 0.47034600377082825 0.11176598072052002
vt 0.4645490050315857 0.12115401029586792
vt 0.46055299043655396 0.12250298261642456
vt 0.47003498673439026 0.07874399423599243
vt 0.477185994386673 0.07925498485565186
vt 0.48707300424575806 0.07953000068664551
vt 0.5007339715957642 0.07662200927734375
vt 0.5093140006065369 0.07368898391723633
vt 0.5172070264816284 0.06700599193572998
vt 0.5251650214195251 0.07533597946166992
vt 0.5355510115623474 0.07953000068664551
vt 0.5379980206489563 0.07819300889968872
vt 0.6128550171852112 0.6515879929065704
vt 0.5883010029792786 0.6563299894332886
vt 0.590474009513855 0.6684589982032776
vt 0.6138299703598022 0.6653900146484375
vt 0.6484010219573975 0.6605199873447418
vt 0.6482340097427368 0.6492590010166168
vt 0.6782749891281128 0.6571260094642639
vt 0.6794189810752869 0.6479460000991821
vt 0.7084619998931885 0.6544809937477112
vt 0.7082880139350891 0.6468090116977692
vt 0.7455729842185974 0.655584990978241
vt 0.7439150214195251 0.6468090116977692
vt 0.7804780006408691 0.6594119966030121
vt 0.7813599705696106 0.6469210088253021
vt 0.8124989867210388 0.6629300117492676
vt 0.8147979974746704 0.6499019861221313
vt 0.8377929925918579 0.6661219894886017
vt 0.8410750031471252 0.6535969972610474
vt 0.859300971031189 0.6678270101547241
vt 0.8628060221672058 0.6584660112857819
vt 0.8828539848327637 0.6675559878349304
vt 0.88435298204422 0.6593489944934845
vt 0.9091449975967407 0.66737499833107
vt 0.9058420062065125 0.6595860123634338
vt 0.5206930041313171 0.6709490120410919
vt 0.5460169911384583 0.6705780029296875
vt 0.5449529886245728 0.662447988986969
vt 0.5234910249710083 0.6631779968738556
vt 0.5705919861793518 0.6706390082836151
vt 0.5678989887237549 0.6607910096645355
vt 0.5914999842643738 0.6771380007266998
vt 0.6158369779586792 0.6742619872093201
vt 0.5697789788246155 0.6792759895324707
vt 0.5445449948310852 0.678820013999939
vt 0.5202839970588684 0.6792530119419098
vt 0.9098299741744995 0.6757720112800598
vt 0.8837869763374329 0.6755790114402771
vt 0.8599269986152649 0.6756660044193268
vt 0.8367350101470947 0.6745199859142303
vt 0.8105970025062561 0.6718980073928833
vt 0.7786930203437805 0.6679199934005737
vt 0.7437829971313477 0.6645970046520233
vt 0.7085180282592773 0.6637209951877594
vt 0.6797909736633301 0.6658029854297638
vt 0.6499729752540588 0.6701050102710724
vt 0.6467909812927246 0.8609890043735504
vt 0.6781179904937744 0.8612300008535385
vt 0.7113810181617737 0.862197995185852
vt 0.7462729811668396 0.8577370047569275
vt 0.7827969789505005 0.8521050065755844
vt 0.813418984413147 0.8439870029687881
vt 0.5529990196228027 0.8511520028114319
vt 0.5719010233879089 0.8722900003194809
vt 0.5289890170097351 0.8327160030603409
vt 0.8957290053367615 0.8392650038003922
vt 0.9281700253486633 0.8296719938516617
vt 0.8708320260047913 0.8543059974908829
vt 0.5890190005302429 0.9189359992742538
vt 0.838254988193512 0.8377680033445358
vt 0.01004599966108799 0.9011930003762245
vt 0.01874700002372265 0.897087998688221
vt 0.028870999813079834 0.8958680033683777
vt 0.03848300129175186 0.8981679975986481
vt 0.046778999269008636 0.9036270007491112
vt 0.6157370209693909 0.7035270035266876
vt 0.6495879888534546 0.7035320103168488
vt 0.6793799996376038 0.70100998878479
vt 0.7086650133132935 0.7001140117645264
vt 0.7433120012283325 0.6990109980106354
vt 0.7789170145988464 0.6975640058517456
vt 0.8109430074691772 0.698388010263443
vt 0.8360990285873413 0.6984100043773651
vt 0.8599920272827148 0.6969189941883087
vt 0.8848900198936462 0.6960490047931671
vt 0.9102920293807983 0.6959429979324341
vt 0.5171480178833008 0.6991519927978516
vt 0.5423579812049866 0.7007550001144409
vt 0.5681290030479431 0.7030920088291168
vt 0.5928239822387695 0.7044009864330292
vt 0.6783999800682068 0.8106400072574615
vt 0.7115219831466675 0.8104169964790344
vt 0.6454759836196899 0.8117559999227524
vt 0.6112930178642273 0.8108599931001663
vt 0.5885429978370667 0.8065280020236969
vt 0.5635579824447632 0.7959129959344864
vt 0.5391319990158081 0.7861409932374954
vt 0.5105080008506775 0.7803709954023361
vt 0.9107289910316467 0.7799430042505264
vt 0.8853399753570557 0.7838069945573807
vt 0.86216801404953 0.7874580025672913
vt 0.8388969898223877 0.7942219972610474
vt 0.8140869736671448 0.7976730018854141
vt 0.7840359807014465 0.8027659952640533
vt 0.7477390170097351 0.8059040009975433
vt 0.7086390256881714 0.7774579972028732
vt 0.6779199838638306 0.777876004576683
vt 0.6461439728736877 0.7819249927997589
vt 0.6123049855232239 0.7825679928064346
vt 0.5896559953689575 0.7803560048341751
vt 0.5647929906845093 0.7740229964256287
vt 0.5386599898338318 0.768887996673584
vt 0.5108659863471985 0.7626820057630539
vt 0.8879640102386475 0.763933002948761
vt 0.9147220253944397 0.7608370035886765
vt 0.8637700080871582 0.7663979977369308
vt 0.838467001914978 0.7698280066251755
vt 0.8123630285263062 0.7712160050868988
vt 0.780788004398346 0.7730010002851486
vt 0.7443299889564514 0.7738790065050125

usemtl Material

f 1/1/1 2/2/2 3/3/3
f 3/3/3 4/4/4 1/1/1
f 3/3/3 2/2/2 5/5/5
f 5/5/5 6/6/6 3/3/3
f 7/7/7 8/8/8 9/9/9
f 9/9/9 10/10/10 7/7/7
f 7/7/7 11/11/11 12/12/12
f 12/12/12 8/8/8 7/7/7
f 7/7/7 3/3/3 6/6/6
f 6/6/6 11/11/11 7/7/7
f 4/4/4 3/3/3 7/7/7
f 7/7/7 10/10/10 4/4/4
f 13/13/13 14/14/14 8/8/8
f 8/8/8 12/12/12 13/13/13
f 8/8/8 14/14/14 15/15/15
f 15/15/15 9/9/9 8/8/8
f 16/16/16 17/17/17 18/18/18
f 18/18/18 19/19/19 16/16/16
f 17/17/17 20/20/20 21/21/21
f 21/21/21 18/18/18 17/17/17
f 21/21/21 20/20/20 22/22/22
f 22/22/22 23/23/23 21/21/21
f 23/23/23 22/22/22 24/24/24
f 24/24/24 25/25/25 23/23/23
f 25/25/25 24/24/24 26/26/26
f 26/26/26 27/27/27 25/25/25
f 27/27/27 26/26/26 28/28/28
f 28/28/28 29/29/29 27/27/27
f 29/29/29 28/28/28 30/30/30
f 30/30/30 31/31/31 29/29/29
f 32/32/32 33/33/33 34/34/34
f 34/34/34 35/35/35 32/32/32
f 34/34/34 36/36/36 37/37/37
f 37/37/37 35/35/35 34/34/34
f 38/38/38 39/39/39 40/40/40
f 40/40/40 41/41/41 38/38/38
f 39/39/39 42/42/42 43/43/43
f 43/43/43 40/40/40 39/39/39
f 44/44/44 19/19/19 45/45/45
f 45/45/45 46/46/46 44/44/44
f 47/47/47 48/48/48 49/49/49
f 49/49/49 50/50/50 47/47/47
f 51/51/51 47/47/47 50/50/50
f 50/50/50 52/52/52 51/51/51
f 53/53/53 54/54/54 55/55/55
f 55/55/55 56/56/56 53/53/53
f 57/57/57 58/58/58 59/59/59
f 59/59/59 60/60/60 57/57/57
f 61/61/61 62/62/62 63/63/63
f 63/63/63 64/64/64 61/61/61
f 65/65/65 66/66/66 67/67/67
f 67/67/67 68/68/68 65/65/65
f 69/69/69 66/66/66 65/65/65
f 65/65/65 70/70/70 69/69/69
f 71/71/71 72/72/72 73/73/73
f 73/73/73 74/74/74 71/71/71
f 68/68/68 67/67/67 62/62/62
f 62/62/62 61/61/61 68/68/68
f 75/75/75 51/51/51 52/52/52
f 52/52/52 76/76/76 75/75/75
f 77/77/77 78/78/78 48/48/48
f 48/48/48 47/47/47 77/77/77
f 75/75/75 79/79/79 80/80/80
f 80/80/80 51/51/51 75/75/75
f 53/53/53 81/81/81 82/82/82
f 82/82/82 54/54/54 53/53/53
f 58/58/58 83/83/83 84/84/84
f 84/84/84 59/59/59 58/58/58
f 62/62/62 85/85/85 86/86/86
f 86/86/86 63/63/63 62/62/62
f 66/66/66 87/87/87 88/88/88
f 88/88/88 67/67/67 66/66/66
f 69/69/69 89/89/89 87/87/87
f 87/87/87 66/66/66 69/69/69
f 90/90/90 91/91/91 73/73/73
f 73/73/73 72/72/72 90/90/90
f 92/92/92 93/93/93 80/80/80
f 80/80/80 79/79/79 92/92/92
f 94/94/94 95/95/95 96/96/96
f 96/96/96 97/97/97 94/94/94
f 98/98/98 99/99/99 100/100/100
f 100/100/100 101/101/101 98/98/98
f 102/102/102 103/103/103 104/104/104
f 104/104/104 105/105/105 102/102/102
f 78/78/78 77/77/77 106/106/106
f 106/106/106 107/107/107 78/78/78
f 108/108/108 109/109/109 110/110/110
f 110/110/110 111/111/111 108/108/108
f 112/112/112 88/88/88 87/87/87
f 87/87/87 113/113/113 112/112/112
f 113/113/113 87/87/87 89/89/89
f 89/89/89 114/114/114 113/113/113
f 91/91/91 90/90/90 115/115/115
f 115/115/115 116/116/116 91/91/91
f 117/117/117 118/118/118 119/119/119
f 119/119/119 120/120/120 117/117/117
f 121/121/121 122/122/122 106/106/106
f 106/106/106 77/77/77 121/121/121
f 123/123/123 124/124/124 125/125/125
f 125/125/125 126/126/126 123/123/123
f 112/112/112 127/127/127 128/128/128
f 128/128/128 88/88/88 112/112/112
f 129/129/129 130/130/130 131/131/131
f 131/131/131 132/132/132 129/129/129
f 94/94/94 97/97/97 84/84/84
f 84/84/84 83/83/83 94/94/94
f 131/131/131 82/82/82 81/81/81
f 81/81/81 132/132/132 131/131/131
f 133/133/133 134/134/134 135/135/135
f 135/135/135 136/136/136 133/133/133
f 137/137/137 138/138/138 104/104/104
f 104/104/104 103/103/103 137/137/137
f 101/101/101 100/100/100 139/139/139
f 139/139/139 140/140/140 101/101/101
f 122/122/122 141/141/141 124/124/124
f 124/124/124 106/106/106 122/122/122
f 94/94/94 83/83/83 142/142/142
f 142/142/142 133/133/133 94/94/94
f 136/136/136 95/95/95 94/94/94
f 94/94/94 133/133/133 136/136/136
f 143/143/143 119/119/119 144/144/144
f 144/144/144 145/145/145 143/143/143
f 146/146/146 86/86/86 85/85/85
f 85/85/85 147/147/147 146/146/146
f 80/80/80 77/77/77 47/47/47
f 47/47/47 51/51/51 80/80/80
f 80/80/80 93/93/93 121/121/121
f 121/121/121 77/77/77 80/80/80
f 110/110/110 109/109/109 130/130/130
f 130/130/130 129/129/129 110/110/110
f 96/96/96 95/95/95 119/119/119
f 119/119/119 118/118/118 96/96/96
f 95/95/95 136/136/136 144/144/144
f 144/144/144 119/119/119 95/95/95
f 136/136/136 135/135/135 148/148/148
f 148/148/148 144/144/144 136/136/136
f 85/85/85 88/88/88 149/149/149
f 149/149/149 147/147/147 85/85/85
f 85/85/85 62/62/62 67/67/67
f 67/67/67 88/88/88 85/85/85
f 113/113/113 139/139/139 150/150/150
f 150/150/150 112/112/112 113/113/113
f 139/139/139 113/113/113 114/114/114
f 114/114/114 140/140/140 139/139/139
f 116/116/116 115/115/115 138/138/138
f 138/138/138 137/137/137 116/116/116
f 107/107/107 106/106/106 124/124/124
f 124/124/124 123/123/123 107/107/107
f 151/151/151 108/108/108 111/111/111
f 111/111/111 152/152/152 151/151/151
f 117/117/117 120/120/120 153/153/153
f 153/153/153 154/154/154 117/117/117
f 155/155/155 151/151/151 152/152/152
f 152/152/152 156/156/156 155/155/155
f 154/154/154 153/153/153 157/157/157
f 157/157/157 158/158/158 154/154/154
f 150/150/150 139/139/139 100/100/100
f 100/100/100 159/159/159 150/150/150
f 127/127/127 112/112/112 150/150/150
f 150/150/150 160/160/160 127/127/127
f 160/160/160 150/150/150 159/159/159
f 159/159/159 161/161/161 160/160/160
f 162/162/162 99/99/99 98/98/98
f 98/98/98 163/163/163 162/162/162
f 164/164/164 102/102/102 105/105/105
f 105/105/105 165/165/165 164/164/164
f 125/125/125 124/124/124 141/141/141
f 141/141/141 166/166/166 125/125/125
f 74/74/74 73/73/73 69/69/69
f 69/69/69 70/70/70 74/74/74
f 73/73/73 91/91/91 89/89/89
f 89/89/89 69/69/69 73/73/73
f 89/89/89 91/91/91 116/116/116
f 116/116/116 114/114/114 89/89/89
f 140/140/140 114/114/114 116/116/116
f 116/116/116 137/137/137 140/140/140
f 103/103/103 101/101/101 140/140/140
f 140/140/140 137/137/137 103/103/103
f 102/102/102 98/98/98 101/101/101
f 101/101/101 103/103/103 102/102/102
f 98/98/98 102/102/102 164/164/164
f 164/164/164 163/163/163 98/98/98
f 152/152/152 154/154/154 158/158/158
f 158/158/158 156/156/156 152/152/152
f 111/111/111 117/117/117 154/154/154
f 154/154/154 152/152/152 111/111/111
f 117/117/117 111/111/111 110/110/110
f 110/110/110 118/118/118 117/117/117
f 129/129/129 96/96/96 118/118/118
f 118/118/118 110/110/110 129/129/129
f 129/129/129 132/132/132 97/97/97
f 97/97/97 96/96/96 129/129/129
f 132/132/132 81/81/81 84/84/84
f 84/84/84 97/97/97 132/132/132
f 59/59/59 84/84/84 81/81/81
f 81/81/81 53/53/53 59/59/59
f 60/60/60 59/59/59 53/53/53
f 53/53/53 56/56/56 60/60/60
f 49/49/49 48/48/48 72/72/72
f 72/72/72 71/71/71 49/49/49
f 78/78/78 90/90/90 72/72/72
f 72/72/72 48/48/48 78/78/78
f 90/90/90 78/78/78 107/107/107
f 107/107/107 115/115/115 90/90/90
f 115/115/115 107/107/107 123/123/123
f 123/123/123 138/138/138 115/115/115
f 138/138/138 123/123/123 126/126/126
f 126/126/126 104/104/104 138/138/138
f 105/105/105 104/104/104 126/126/126
f 126/126/126 167/167/167 105/105/105
f 165/165/165 105/105/105 167/167/167
f 167/167/167 168/168/168 165/165/165
f 169/169/169 170/170/170 151/151/151
f 151/151/151 155/155/155 169/169/169
f 170/170/170 171/171/171 108/108/108
f 108/108/108 151/151/151 170/170/170
f 172/172/172 109/109/109 108/108/108
f 108/108/108 171/171/171 172/172/172
f 109/109/109 172/172/172 173/173/173
f 173/173/173 130/130/130 109/109/109
f 130/130/130 173/173/173 174/174/174
f 174/174/174 131/131/131 130/130/130
f 174/174/174 175/175/175 82/82/82
f 82/82/82 131/131/131 174/174/174
f 54/54/54 82/82/82 175/175/175
f 175/175/175 176/176/176 54/54/54
f 54/54/54 176/176/176 177/177/177
f 177/177/177 55/55/55 54/54/54
f 178/178/178 179/179/179 180/180/180
f 180/180/180 181/181/181 178/178/178
f 182/182/182 183/183/183 178/178/178
f 178/178/178 181/181/181 182/182/182
f 184/184/184 185/185/185 183/183/183
f 183/183/183 182/182/182 184/184/184
f 186/186/186 187/187/187 185/185/185
f 185/185/185 184/184/184 186/186/186
f 186/186/186 188/188/188 189/189/189
f 189/189/189 187/187/187 186/186/186
f 188/188/188 190/190/190 191/191/191
f 191/191/191 189/189/189 188/188/188
f 192/192/192 193/193/193 191/191/191
f 191/191/191 190/190/190 192/192/192
f 194/194/194 195/195/195 193/193/193
f 193/193/193 192/192/192 194/194/194
f 196/196/196 197/197/197 195/195/195
f 195/195/195 194/194/194 196/196/196
f 198/198/198 199/199/199 197/197/197
f 197/197/197 196/196/196 198/198/198
f 200/200/200 201/201/201 199/199/199
f 199/199/199 198/198/198 200/200/200
f 202/202/202 203/203/203 204/204/204
f 204/204/204 205/205/205 202/202/202
f 203/203/203 206/206/206 207/207/207
f 207/207/207 204/204/204 203/203/203
f 206/206/206 180/180/180 179/179/179
f 179/179/179 207/207/207 206/206/206
f 181/181/181 180/180/180 208/208/208
f 208/208/208 209/209/209 181/181/181
f 210/210/210 208/208/208 180/180/180
f 180/180/180 206/206/206 210/210/210
f 210/210/210 206/206/206 203/203/203
f 203/203/203 211/211/211 210/210/210
f 211/211/211 203/203/203 202/202/202
f 202/202/202 212/212/212 211/211/211
f 213/213/213 200/200/200 198/198/198
f 198/198/198 214/214/214 213/213/213
f 215/215/215 214/214/214 198/198/198
f 198/198/198 196/196/196 215/215/215
f 215/215/215 196/196/196 194/194/194
f 194/194/194 216/216/216 215/215/215
f 216/216/216 194/194/194 192/192/192
f 192/192/192 217/217/217 216/216/216
f 217/217/217 192/192/192 190/190/190
f 190/190/190 218/218/218 217/217/217
f 218/218/218 190/190/190 188/188/188
f 188/188/188 219/219/219 218/218/218
f 219/219/219 188/188/188 186/186/186
f 186/186/186 220/220/220 219/219/219
f 221/221/221 220/220/220 186/186/186
f 186/186/186 184/184/184 221/221/221
f 222/222/222 221/221/221 184/184/184
f 184/184/184 182/182/182 222/222/222
f 209/209/209 222/222/222 182/182/182
f 182/182/182 181/181/181 209/209/209
f 19/19/19 18/18/18 223/223/223
f 223/223/223 45/45/45 19/19/19
f 18/18/18 21/21/21 224/224/224
f 224/224/224 223/223/223 18/18/18
f 224/224/224 21/21/21 23/23/23
f 23/23/23 225/225/225 224/224/224
f 225/225/225 23/23/23 25/25/25
f 25/25/25 226/226/226 225/225/225
f 226/226/226 25/25/25 27/27/27
f 27/27/27 227/227/227 226/226/226
f 227/227/227 27/27/27 29/29/29
f 29/29/29 228/228/228 227/227/227
f 229/229/229 230/230/230 42/42/42
f 42/42/42 39/39/39 229/229/229
f 231/231/231 229/229/229 39/39/39
f 39/39/39 38/38/38 231/231/231
f 232/232/232 233/233/233 36/36/36
f 36/36/36 34/34/34 232/232/232
f 234/234/234 232/232/232 34/34/34
f 34/34/34 33/33/33 234/234/234
f 235/235/235 16/16/16 19/19/19
f 19/19/19 44/44/44 235/235/235
f 31/31/31 236/236/236 228/228/228
f 228/228/228 29/29/29 31/31/31
f 31/31/31 30/30/30 234/234/234
f 234/234/234 33/33/33 31/31/31
f 237/237/237 13/13/13 12/12/12
f 12/12/12 238/238/238 237/237/237
f 11/11/11 239/239/239 238/238/238
f 238/238/238 12/12/12 11/11/11
f 11/11/11 6/6/6 240/240/240
f 240/240/240 239/239/239 11/11/11
f 6/6/6 5/5/5 241/241/241
f 241/241/241 240/240/240 6/6/6
f 230/230/230 235/235/235 44/44/44
f 44/44/44 42/42/42 230/230/230
f 236/236/236 31/31/31 33/33/33
f 33/33/33 32/32/32 236/236/236
f 42/42/42 44/44/44 46/46/46
f 46/46/46 43/43/43 42/42/42
f 209/209/209 242/242/242 243/243/243
f 243/243/243 222/222/222 209/209/209
f 222/222/222 243/243/243 244/244/244
f 244/244/244 221/221/221 222/222/222
f 244/244/244 245/245/245 220/220/220
f 220/220/220 221/221/221 244/244/244
f 245/245/245 246/246/246 219/219/219
f 219/219/219 220/220/220 245/245/245
f 246/246/246 247/247/247 218/218/218
f 218/218/218 219/219/219 246/246/246
f 247/247/247 248/248/248 217/217/217
f 217/217/217 218/218/218 247/247/247
f 248/248/248 249/249/249 216/216/216
f 216/216/216 217/217/217 248/248/248
f 216/216/216 249/249/249 250/250/250
f 250/250/250 215/215/215 216/216/216
f 215/215/215 250/250/250 251/251/251
f 251/251/251 214/214/214 215/215/215
f 214/214/214 251/251/251 252/252/252
f 252/252/252 213/213/213 214/214/214
f 212/212/212 253/253/253 254/254/254
f 254/254/254 211/211/211 212/212/212
f 211/211/211 254/254/254 255/255/255
f 255/255/255 210/210/210 211/211/211
f 256/256/256 208/208/208 210/210/210
f 210/210/210 255/255/255 256/256/256
f 208/208/208 256/256/256 242/242/242
f 242/242/242 209/209/209 208/208/208
f 257/257/257 224/224/224 225/225/225
f 225/225/225 258/258/258 257/257/257
f 259/259/259 223/223/223 224/224/224
f 224/224/224 257/257/257 259/259/259
f 45/45/45 223/223/223 259/259/259
f 259/259/259 260/260/260 45/45/45
f 46/46/46 45/45/45 260/260/260
f 260/260/260 261/261/261 46/46/46
f 261/261/261 262/262/262 43/43/43
f 43/43/43 46/46/46 261/261/261
f 40/40/40 43/43/43 262/262/262
f 262/262/262 263/263/263 40/40/40
f 41/41/41 40/40/40 263/263/263
f 263/263/263 264/264/264 41/41/41
f 35/35/35 37/37/37 265/265/265
f 265/265/265 266/266/266 35/35/35
f 32/32/32 35/35/35 266/266/266
f 266/266/266 267/267/267 32/32/32
f 268/268/268 236/236/236 32/32/32
f 32/32/32 267/267/267 268/268/268
f 236/236/236 268/268/268 269/269/269
f 269/269/269 228/228/228 236/236/236
f 270/270/270 227/227/227 228/228/228
f 228/228/228 269/269/269 270/270/270
f 271/271/271 226/226/226 227/227/227
f 227/227/227 270/270/270 271/271/271
f 258/258/258 225/225/225 226/226/226
f 226/226/226 271/271/271 258/258/258
f 257/257/257 258/258/258 272/272/272
f 272/272/272 273/273/273 257/257/257
f 274/274/274 259/259/259 257/257/257
f 257/257/257 273/273/273 274/274/274
f 260/260/260 259/259/259 274/274/274
f 274/274/274 275/275/275 260/260/260
f 261/261/261 260/260/260 275/275/275
f 275/275/275 276/276/276 261/261/261
f 276/276/276 277/277/277 262/262/262
f 262/262/262 261/261/261 276/276/276
f 278/278/278 263/263/263 262/262/262
f 262/262/262 277/277/277 278/278/278
f 279/279/279 264/264/264 263/263/263
f 263/263/263 278/278/278 279/279/279
f 280/280/280 266/266/266 265/265/265
f 265/265/265 281/281/281 280/280/280
f 282/282/282 267/267/267 266/266/266
f 266/266/266 280/280/280 282/282/282
f 283/283/283 268/268/268 267/267/267
f 267/267/267 282/282/282 283/283/283
f 268/268/268 283/283/283 284/284/284
f 284/284/284 269/269/269 268/268/268
f 270/270/270 269/269/269 284/284/284
f 284/284/284 285/285/285 270/270/270
f 271/271/271 270/270/270 285/285/285
f 285/285/285 286/286/286 271/271/271
f 258/258/258 271/271/271 286/286/286
f 286/286/286 272/272/272 258/258/258
f 273/273/273 272/272/272 245/245/245
f 245/245/245 244/244/244 273/273/273
f 274/274/274 273/273/273 244/244/244
f 244/244/244 243/243/243 274/274/274
f 275/275/275 274/274/274 243/243/243
f 243/243/243 242/242/242 275/275/275
f 276/276/276 275/275/275 242/242/242
f 242/242/242 256/256/256 276/276/276
f 256/256/256 255/255/255 277/277/277
f 277/277/277 276/276/276 256/256/256
f 278/278/278 277/277/277 255/255/255
f 255/255/255 254/254/254 278/278/278
f 253/253/253 279/279/279 278/278/278
f 278/278/278 254/254/254 253/253/253
f 251/251/251 280/280/280 281/281/281
f 281/281/281 252/252/252 251/251/251
f 250/250/250 282/282/282 280/280/280
f 280/280/280 251/251/251 250/250/250
f 249/249/249 283/283/283 282/282/282
f 282/282/282 250/250/250 249/249/249
f 283/283/283 249/249/249 248/248/248
f 248/248/248 284/284/284 283/283/283
f 247/247/247 285/285/285 284/284/284
f 284/284/284 248/248/248 247/247/247
f 286/286/286 285/285/285 247/247/247
f 247/247/247 246/246/246 286/286/286
f 272/272/272 286/286/286 246/246/246
f 246/246/246 245/245/245 272/272/272