mtllib 58241365.mtl
o Mesh

v -0.45819899439811707 0.19158801436424255 -0.21773399412631989
v -0.3496820032596588 0.4051089882850647 -0.3277580142021179
v -0.28322601318359375 0.29148200154304504 -0.29664599895477295
v -0.44652000069618225 0.10811999440193176 -0.18440300226211548
v -0.44652000069618225 0.10811999440193176 -0.18440300226211548
v -0.4787760078907013 0.0758650004863739 -0.049970999360084534
v -0.48889800906181335 0.14621898531913757 -0.07640600204467773
v -0.45819899439811707 0.19158801436424255 -0.21773399412631989
v -0.5115399956703186 0.04310101270675659 0.08657699823379517
v -0.47776201367378235 0.07640001177787781 0.22735199332237244
v -0.48714199662208557 0.14737200736999512 0.20267300307750702
v -0.5072659850120544 0.11704900860786438 0.06103299930691719
v -0.4594480097293854 0.19008299708366394 0.33918899297714233
v -0.44652000069618225 0.10719999670982361 0.3575569987297058
v -0.28322699666023254 0.29148200154304504 0.4697999954223633
v -0.35502898693084717 0.4143649935722351 0.42880699038505554
v -0.07935300469398499 0.5167980194091797 0.3590250015258789
v -0.23752498626708984 0.7021939754486084 0.32103198766708374
v -0.21232500672340393 0.7635359764099121 0.19110700488090515
v -0.03577101230621338 0.5565209984779358 0.22881999611854553
v -0.03777700662612915 0.5881209969520569 0.08794300258159637
v -0.2134850025177002 0.7999370098114014 0.049396999180316925
v -0.21116399765014648 0.7642819881439209 -0.09025999903678894
v -0.033764004707336426 0.5578110218048096 -0.048503000289201736
v -0.0793519914150238 0.5167980194091797 -0.18293499946594238
v -0.23752400279045105 0.702193021774292 -0.22091299295425415
v -0.0793519914150238 0.5167980194091797 -0.18293499946594238
v -0.23752400279045105 0.702193021774292 -0.22091299295425415
v -0.34083402156829834 -0.1179400086402893 -0.162321999669075
v -0.39560800790786743 -0.0757099986076355 -0.20106199383735657
v -0.13484299182891846 0.019448012113571167 -0.32206401228904724
v -0.09191998839378357 -0.06643301248550415 -0.26533299684524536
v -0.44770100712776184 -0.09211397171020508 -0.03734799847006798
v -0.39560800790786743 -0.0757099986076355 -0.20106199383735657
v -0.34083402156829834 -0.1179400086402893 -0.162321999669075
v -0.3894839882850647 -0.1232290267944336 -0.015585999935865402
v -0.45055198669433594 -0.08913999795913696 0.27087199687957764
v -0.4810659885406494 -0.10243600606918335 0.12869299948215485
v -0.4388999938964844 -0.12859898805618286 0.13345900177955627
v -0.3955010175704956 -0.11893200874328613 0.2461320012807846
v -0.13484299182891846 0.019448012113571167 0.5134249925613403
v -0.40424999594688416 -0.07097899913787842 0.40214499831199646
v -0.3553609848022461 -0.1099889874458313 0.35034599900245667
v -0.09192100167274475 -0.06643301248550415 0.4535990059375763
v 0.1154019832611084 0.1146099865436554 0.39242398738861084
v 0.13931000232696533 -0.014927029609680176 0.35058900713920593
v 0.21070897579193115 0.1478390097618103 0.09100600332021713
v 0.18375301361083984 0.13355201482772827 0.24762000143527985
v 0.20159101486206055 -0.004673004150390625 0.22363099455833435
v 0.23508799076080322 0.006411999464035034 0.08636800199747086
v 0.13931000232696533 -0.014927983283996582 -0.162321999669075
v 0.1154019832611084 0.1146090030670166 -0.20106199383735657
v 0.18664801120758057 0.13416600227355957 -0.056141000241041183
v 0.20420598983764648 -0.004341006278991699 -0.038947999477386475
v 0.1154019832611084 0.1146090030670166 -0.20106199383735657
v 0.13931000232696533 -0.014927983283996582 -0.162321999669075
v -0.18328198790550232 0.1138010025024414 -0.32305899262428284
v -0.4236240088939667 0.00903099775314331 -0.19991900026798248
v -0.4236240088939667 0.00903099775314331 -0.19991900026798248
v -0.46911299228668213 -0.019825994968414307 -0.042344000190496445
v -0.5026599764823914 -0.02122199535369873 0.11746100336313248
v -0.46761199831962585 -0.01896601915359497 0.27215200662612915
v -0.4188079833984375 0.012508004903793335 0.4183399975299835
v -0.18328198790550232 0.1138010025024414 0.5177950263023376
v 0.05740100145339966 0.25351399183273315 0.3946549892425537
v 0.121940016746521 0.27999401092529297 0.2518090009689331
v 0.1364319920539856 0.29585498571395874 0.09725400060415268
v 0.12470197677612305 0.2808530032634735 -0.05243600159883499
v 0.05740201473236084 0.25351399183273315 -0.19991900026798248
v 0.05740201473236084 0.25351399183273315 -0.19991900026798248
v -0.4996100068092346 0.6356790065765381 -0.18644499778747559
v -0.5 0.930079996585846 -0.1684119999408722
v -0.5 0.8391000032424927 -0.3152279853820801
v -0.4996100068092346 0.6850370168685913 -0.3710959851741791
v -0.4970400035381317 0.31296998262405396 -0.2636690139770508
v -0.5027729868888855 0.2426609992980957 -0.11264500021934509
v -0.5000010132789612 0.930079996585846 0.16446499526500702
v -0.5 0.9730600118637085 -0.0015379999531432986
v -0.4996100068092346 0.6356790065765381 0.0011119999689981341
v -0.5061969757080078 0.6470789909362793 0.19374999403953552
v -0.5 0.24465999007225037 0.16884399950504303
v -0.5014070272445679 0.21841999888420105 0.026016000658273697
v -0.07935300469398499 0.5167980194091797 0.3590250015258789
v 0.05740100145339966 0.25351399183273315 0.3946549892425537
v 0.1154019832611084 0.1146099865436554 0.39242398738861084
v 0.13931000232696533 -0.014927029609680176 0.35058900713920593
v -0.3553609848022461 -0.1099889874458313 0.35034599900245667
v -0.40424999594688416 -0.07097899913787842 0.40214499831199646
v -0.44652000069618225 0.10719999670982361 0.3575569987297058
v -0.4188079833984375 0.012508004903793335 0.4183399975299835
v -0.4594480097293854 0.19008299708366394 0.33918899297714233
v -0.5 0.3106600046157837 0.3137660026550293
v -0.5122889876365662 0.6820240020751953 0.3719240128993988
v -0.5000010132789612 0.8391000032424927 0.3152279853820801
v -0.23752498626708984 0.7021939754486084 0.32103198766708374
v -0.4996100068092346 0.6850370168685913 -0.3710959851741791
v -0.5 0.8391000032424927 -0.3152279853820801
v -0.5 0.930079996585846 -0.1684119999408722
v -0.5 0.8391000032424927 -0.3152279853820801
v -0.5 0.9730600118637085 -0.0015379999531432986
v -0.5000010132789612 0.930079996585846 0.16446499526500702
v -0.5000010132789612 0.8391000032424927 0.3152279853820801
v -0.5122889876365662 0.6820240020751953 0.3719240128993988
v -0.5000010132789612 0.8391000032424927 0.3152279853820801
v -0.5 0.3106600046157837 0.3137660026550293
v -0.5 0.24465999007225037 0.16884399950504303
v -0.5 0.3106600046157837 0.3137660026550293
v -0.5014070272445679 0.21841999888420105 0.026016000658273697
v -0.5027729868888855 0.2426609992980957 -0.11264500021934509
v -0.4970400035381317 0.31296998262405396 -0.2636690139770508
v -0.4970400035381317 0.31296998262405396 -0.2636690139770508
v 0.2839300036430359 -0.38265901803970337 0.42521899938583374
v 0.22774797677993774 -0.2661610245704651 0.3828510046005249
v -0.030440986156463623 -0.3209400177001953 0.49939998984336853
v -0.008760005235671997 -0.44280898571014404 0.561057984828949
v -0.1747550070285797 -0.35044002532958984 0.4576230049133301
v -0.17599999904632568 -0.47718000411987305 0.51670902967453
v -0.35969099402427673 -0.51494300365448 0.26764199137687683
v -0.3400149941444397 -0.38662397861480713 0.24765099585056305
v -0.3742859959602356 -0.39464497566223145 0.10133600234985352
v -0.3985010087490082 -0.5236140489578247 0.09711500257253647
v -0.3615819811820984 -0.5153330564498901 -0.06797999888658524
v -0.3416839838027954 -0.38697898387908936 -0.04031100124120712
v -0.2886289954185486 -0.3757230043411255 -0.17990100383758545
v -0.3014400005340576 -0.5029699802398682 -0.23067399859428406
v -0.176813006401062 -0.34851497411727905 -0.25400298833847046
v -0.19020000100135803 -0.4732699990272522 -0.3208549916744232
v -0.030440986156463623 -0.3209400177001953 -0.29645100235939026
v 0.22774797677993774 -0.2661610245704651 -0.17990100383758545
v 0.2839300036430359 -0.38265901803970337 -0.23067399859428406
v -0.008760005235671997 -0.4428099989891052 -0.3665139973163605
v 0.290585994720459 -0.25490498542785645 -0.04031100124120712
v 0.35517799854278564 -0.3703010082244873 -0.06798099726438522
v 0.3699979782104492 -0.3664199709892273 0.09797099977731705
v 0.30372297763824463 -0.25110799074172974 0.1020909994840622
v 0.29540199041366577 -0.2552589774131775 0.24764999747276306
v 0.3606489896774292 -0.3706899881362915 0.26764100790023804
v -0.3741769790649414 -0.12049198150634766 -0.2095479965209961
v -0.34083402156829834 -0.1179400086402893 -0.162321999669075
v -0.23089700937271118 -0.08890199661254883 -0.28324800729751587
v -0.4330590069293976 -0.13346898555755615 -0.057034000754356384
v -0.3894839882850647 -0.1232290267944336 -0.015585999935865402
v -0.43120700120925903 -0.13305997848510742 0.2575890123844147
v -0.3955010175704956 -0.11893200874328613 0.2461320012807846
v -0.4388999938964844 -0.12859898805618286 0.13345900177955627
v -0.46869799494743347 -0.14237499237060547 0.09772299975156784
v -0.08760800957679749 -0.05731201171875 0.5326489806175232
v -0.09192100167274475 -0.06643301248550415 0.4535990059375763
v -0.24105799198150635 -0.08890199661254883 0.4790610074996948
v 0.13931000232696533 -0.014927029609680176 0.35058900713920593
v 0.19894301891326904 0.00585898756980896 0.4053080081939697
v 0.28248101472854614 0.02335900068283081 0.098580002784729
v 0.23508799076080322 0.006411999464035034 0.08636800199747086
v 0.20159101486206055 -0.004673004150390625 0.22363099455833435
v 0.2744470238685608 0.018433988094329834 0.2575890123844147
v 0.13931000232696533 -0.014927983283996582 -0.162321999669075
v 0.20420598983764648 -0.004341006278991699 -0.038947999477386475
v 0.2689359784126282 0.01884201169013977 -0.057034000754356384
v 0.19894301891326904 0.005858004093170166 -0.2095479965209961
v -0.0876069962978363 -0.05731201171875 -0.33688899874687195
v -0.09191998839378357 -0.06643301248550415 -0.26533299684524536
v -0.4330590069293976 -0.13346898555755615 -0.057034000754356384
v -0.3741769790649414 -0.12049198150634766 -0.2095479965209961
v -0.3413199782371521 -0.17925399541854858 -0.1853960007429123
v -0.39695701003074646 -0.19151800870895386 -0.04265100136399269
v -0.43120700120925903 -0.13305997848510742 0.2575890123844147
v -0.46869799494743347 -0.14237499237060547 0.09772299975156784
v -0.4308930039405823 -0.1999809741973877 0.1021910011768341
v -0.3952080011367798 -0.1911330223083496 0.251816987991333
v -0.08760800957679749 -0.05731201171875 0.5326489806175232
v -0.24105799198150635 -0.08890199661254883 0.4790610074996948
v -0.21651899814605713 -0.14939498901367188 0.46016401052474976
v -0.07055100798606873 -0.11954599618911743 0.5092560052871704
v 0.19894301891326904 0.00585898756980896 0.4053080081939697
v 0.20020198822021484 -0.05984300374984741 0.3900719881057739
v 0.2795119881629944 -0.04320800304412842 0.10299299657344818
v 0.28248101472854614 0.02335900068283081 0.098580002784729
v 0.2744470238685608 0.018433988094329834 0.2575890123844147
v 0.27134597301483154 -0.04795801639556885 0.251816987991333
v 0.20020300149917603 -0.059844017028808594 -0.1853960007429123
v 0.19894301891326904 0.005858004093170166 -0.2095479965209961
v 0.2689359784126282 0.01884201169013977 -0.057034000754356384
v 0.26621800661087036 -0.047572970390319824 -0.04265100136399269
v -0.07055100798606873 -0.11954599618911743 -0.3045789897441864
v -0.0876069962978363 -0.05731201171875 -0.33688899874687195
v -0.23089700937271118 -0.08890199661254883 -0.28324800729751587
v -0.20594000816345215 -0.14939498901367188 -0.25543299317359924
v -0.2886289954185486 -0.3757219910621643 0.3828510046005249
v -0.3014400005340576 -0.5029699802398682 0.42521899938583374
v -0.3741769790649414 -0.12049102783203125 0.4053080081939697
v -0.3413209915161133 -0.1792529821395874 0.3900719881057739
v -0.3553609848022461 -0.1099889874458313 0.35034599900245667
v -0.3741769790649414 -0.12049102783203125 0.4053080081939697
v 0.2839300036430359 -0.38265901803970337 0.42521899938583374
v -0.008760005235671997 -0.44280898571014404 0.561057984828949
v 0.08066999912261963 -0.7827889919281006 0.5614629983901978
v 0.3535900115966797 -0.8865489959716797 0.41499200463294983
v -0.25169000029563904 -0.7027900218963623 0.4524199962615967
v -0.17599999904632568 -0.47718000411987305 0.51670902967453
v -0.3014400005340576 -0.5029699802398682 0.42521899938583374
v -0.3330000042915344 -0.6319390535354614 0.35039201378822327
v -0.3651689887046814 -0.6045889854431152 0.231672003865242
v -0.35969099402427673 -0.51494300365448 0.26764199137687683
v -0.3985010087490082 -0.5236140489578247 0.09711500257253647
v -0.37578099966049194 -0.5707449913024902 0.10315699875354767
v -0.3656439781188965 -0.5679299831390381 -0.09386300295591354
v -0.3615819811820984 -0.5153330564498901 -0.06797999888658524
v -0.3014400005340576 -0.5029699802398682 -0.23067399859428406
v -0.33187001943588257 -0.5609500408172607 -0.28798601031303406
v -0.33187001943588257 -0.5609500408172607 -0.28798601031303406
v -0.3014400005340576 -0.5029699802398682 -0.23067399859428406
v -0.19020000100135803 -0.4732699990272522 -0.3208549916744232
v -0.23475998640060425 -0.6421600580215454 -0.3720420002937317
v -0.045489996671676636 -0.782789945602417 -0.3584040105342865
v -0.008760005235671997 -0.4428099989891052 -0.3665139973163605
v 0.2839300036430359 -0.38265901803970337 -0.23067399859428406
v 0.36454999446868896 -0.8865489959716797 -0.21531400084495544
v 0.36454999446868896 -0.8865489959716797 -0.21531400084495544
v 0.2839300036430359 -0.38265901803970337 -0.23067399859428406
v 0.35517799854278564 -0.3703010082244873 -0.06798099726438522
v 0.4057149887084961 -0.8943619728088379 -0.055691998451948166
v 0.3699979782104492 -0.3664199709892273 0.09797099977731705
v 0.3606489896774292 -0.3706899881362915 0.26764100790023804
v 0.4064379930496216 -0.894116997718811 0.2667340040206909
v 0.42514002323150635 -0.9022990465164185 0.10644099861383438
v -0.27834999561309814 -0.7425299882888794 0.21437400579452515
v -0.17983001470565796 -0.8256089687347412 0.2903900146484375
v -0.20036399364471436 -0.8425040245056152 -0.07558099925518036
v -0.3147270083427429 -0.7383379936218262 -0.06280899792909622
v -0.29527997970581055 -0.7831900119781494 -0.1727599948644638
v -0.20208999514579773 -0.840440034866333 -0.18308499455451965
v 0.08190000057220459 -1.3439890146255493 -0.2669140100479126
v 0.10177397727966309 -1.3883899450302124 -0.11996299773454666
v 0.03400397300720215 -1.375596046447754 -0.12470600008964539
v 0.024980008602142334 -1.333238959312439 -0.27773401141166687
v 0.09408402442932129 -1.4179400205612183 0.15372100472450256
v 0.015937983989715576 -1.3887629508972168 0.16729000210762024
v 0.04316997528076172 -1.4186190366744995 0.03072899952530861
v 0.12195998430252075 -1.4334889650344849 0.029301000759005547
v 0.1309800148010254 -1.0141990184783936 0.5056279897689819
v 0.3425599932670593 -1.0834089517593384 0.39474600553512573
v -0.08482998609542847 -0.9617500305175781 0.03830299898982048
v 0.05526000261306763 -1.116199016571045 0.04733999818563461
v 0.03960198163986206 -1.0986659526824951 0.19696100056171417
v -0.0882590115070343 -0.9383879899978638 0.1831430047750473
v 0.36388999223709106 -1.0337990522384644 -0.23689599335193634
v 0.14871001243591309 -0.9658199548721313 -0.3291819989681244
v 0.40705597400665283 -1.0737440586090088 -0.0777290016412735
v 0.36388999223709106 -1.0337990522384644 -0.23689599335193634
v 0.4026859998703003 -1.0984359979629517 0.24540799856185913
v 0.4078940153121948 -1.0943959951400757 0.08381099998950958
v -0.07785001397132874 -0.9167599678039551 -0.19685199856758118
v 0.04976999759674072 -1.053320050239563 -0.2650260031223297
v 0.05249398946762085 -1.0845140218734741 -0.11006200313568115
v -0.08131301403045654 -0.9390790462493896 -0.08019199967384338
v -0.09143000841140747 -0.9167799949645996 0.31710800528526306
v 0.025120019912719727 -1.082448959350586 0.3353480100631714
v -0.009249985218048096 -1.3611489534378052 0.2935979962348938
v 0.06830000877380371 -1.4035589694976807 0.2687990069389343
v 0.24264001846313477 -1.2775189876556396 0.3747360110282898
v 0.13849997520446777 -1.1611289978027344 0.4614090025424957
v -0.07785001397132874 -0.9167599678039551 -0.19685199856758118
v 0.04976999759674072 -1.053320050239563 -0.2650260031223297
v -0.30531999468803406 -0.7186249494552612 0.13485099375247955
v -0.3344799876213074 -0.6927800178527832 0.04887299984693527
v -0.19861000776290894 -0.8445999622344971 0.03361399844288826
v -0.18885400891304016 -0.8347339630126953 0.16700999438762665
v -0.3508300185203552 -0.8453799486160278 -0.42668500542640686
v -0.31474000215530396 -0.8738199472427368 -0.2641969919204712
v -0.36052000522613525 -0.8211699724197388 -0.2804790139198303
v -0.40522000193595886 -0.7856999635696411 -0.38587599992752075
v 0.3250899910926819 -1.3000489473342896 0.062049999833106995
v 0.29361897706985474 -1.2939250469207764 0.22455699741840363
v 0.2676200270652771 -1.2339589595794678 -0.25788798928260803
v 0.3074929714202881 -1.272326946258545 -0.09910199791193008
v -0.0008200109004974365 -1.2210090160369873 0.30378198623657227
v -0.21838000416755676 -0.9037799835205078 -0.28001898527145386
v -0.25213000178337097 -0.884719967842102 -0.40087801218032837
v -0.045489996671676636 -0.782789945602417 -0.3584040105342865
v -0.3508300185203552 -0.8453799486160278 -0.42668500542640686
v -0.40522000193595886 -0.7856999635696411 -0.38587599992752075
v -0.25213000178337097 -0.884719967842102 -0.40087801218032837
v 0.2676200270652771 -1.2339589595794678 -0.25788798928260803
v 0.10284000635147095 -1.1801890134811401 -0.3055419921875
v 0.036650002002716064 -1.2422690391540527 0.04121600091457367
v 0.017184019088745117 -1.2312239408493042 0.17761999368667603
v 0.02135998010635376 -1.1728190183639526 -0.2512100040912628
v 0.02894502878189087 -1.207273006439209 -0.10613799840211868
v -0.011379987001419067 -1.374979019165039 0.03280799835920334
v -0.02709999680519104 -1.3430659770965576 0.1587029993534088
v -0.023360013961791992 -1.2885290384292603 -0.23865999281406403
v -0.01741701364517212 -1.3314169645309448 -0.10398600250482559
v 0.02135998010635376 -1.1728190183639526 -0.2512100040912628
v -0.041640013456344604 -1.3135490417480469 0.2751449942588806
v -0.3985010087490082 -0.5236140489578247 0.09711500257253647
v -0.3742859959602356 -0.39464497566223145 0.10133600234985352
v -0.46869799494743347 -0.14237499237060547 0.09772299975156784
v -0.4308930039405823 -0.1999809741973877 0.1021910011768341
v 0.2839300036430359 -0.38265901803970337 0.42521899938583374
v 0.3535900115966797 -0.8865489959716797 0.41499200463294983
v 0.3425599932670593 -1.0834089517593384 0.39474600553512573
v 0.24264001846313477 -1.2775189876556396 0.3747360110282898
v -0.0008200109004974365 -1.2210090160369873 0.30378198623657227
v 0.025120019912719727 -1.082448959350586 0.3353480100631714
v -0.09143000841140747 -0.9167799949645996 0.31710800528526306
v -0.17983001470565796 -0.8256089687347412 0.2903900146484375
v -0.27834999561309814 -0.7425299882888794 0.21437400579452515
v -0.3330000042915344 -0.6319390535354614 0.35039201378822327
v -0.3014400005340576 -0.5029699802398682 0.42521899938583374
v -0.1973380148410797 -0.34011298418045044 -0.29767701029777527
v -0.034767985343933105 -0.30860501527786255 -0.34647101163864136
v 0.2584729790687561 -0.24592798948287964 -0.21497799456119537
v 0.32983797788619995 -0.2330470085144043 -0.057493001222610474
v 0.3447750210762024 -0.2286350131034851 0.1031700000166893
v 0.33530497550964355 -0.23345297574996948 0.2673870027065277
v 0.2584729790687561 -0.24592798948287964 0.41992101073265076
v -0.034767985343933105 -0.30860501527786255 0.5514129996299744
v -0.19781199097633362 -0.3418880105018616 0.503250002861023
v -0.3280099928379059 -0.37128502130508423 0.41992101073265076
v -0.38637399673461914 -0.383758008480072 0.2673870027065277
v -0.4253059923648834 -0.39296799898147583 0.10231400281190872
v -0.4253059923648834 -0.39296799898147583 0.10231400281190872
v -0.38826799392700195 -0.3841620087623596 -0.057493001222610474
v -0.3280099928379059 -0.37128502130508423 -0.21497799456119537
v -0.042394012212753296 -0.2628300189971924 -0.3210340142250061
v -0.1929669976234436 -0.2931699752807617 -0.2736769914627075
v -0.3225080072879791 -0.3232960104942322 -0.19655999541282654
v -0.38006800413131714 -0.33571600914001465 -0.04747999832034111
v -0.415459007024765 -0.34425002336502075 0.10379499942064285
v -0.415459007024765 -0.34425002336502075 0.10379499942064285
v -0.37825798988342285 -0.3353250026702881 0.2600589990615845
v -0.3225080072879791 -0.323294997215271 0.40445199608802795
v -0.1970289945602417 -0.2943410277366638 0.48200300335884094
v -0.042394012212753296 -0.2628300189971924 0.5289250016212463
v 0.23771601915359497 -0.20236700773239136 0.40445199608802795
v 0.3111000061035156 -0.19033098220825195 0.2600589990615845
v 0.3201709985733032 -0.1855970025062561 0.10461299866437912
v 0.3058810234069824 -0.18994098901748657 -0.04747999832034111
v 0.23771601915359497 -0.20236802101135254 -0.19655999541282654

vn -0.6192960143089294 -0.39563998579978943 -0.6781889796257019
vn 0.12968699634075165 -0.12585699558258057 -0.9835349917411804
vn 0.0329740010201931 -0.060137998312711716 -0.9976450204849243
vn -0.7734060287475586 -0.1952349990606308 -0.6030970215797424
vn -0.7734060287475586 -0.1952349990606308 -0.6030970215797424
vn -0.9559280276298523 -0.1569949984550476 -0.24810099601745605
vn -0.9645249843597412 -0.18361499905586243 -0.1896740049123764
vn -0.6192960143089294 -0.39563998579978943 -0.6781889796257019
vn -0.9976279735565186 -0.0644650012254715 -0.024126000702381134
vn -0.9723910093307495 -0.02863599918782711 0.2315959930419922
vn -0.9789149761199951 -0.04468899965286255 0.19932100176811218
vn -0.9986079931259155 0.0014519999967887998 -0.05272199958562851
vn -0.8395190238952637 -0.06500300019979477 0.5394269824028015
vn -0.8317790031433105 0.03617199882864952 0.553928017616272
vn -0.2006320059299469 0.16083799302577972 0.9663739800453186
vn -0.24525299668312073 0.12528599798679352 0.961329996585846
vn 0.4999220073223114 0.4654879868030548 0.7303419709205627
vn 0.3963179886341095 0.572242021560669 0.7179629802703857
vn 0.5869070291519165 0.746999979019165 0.3122979998588562
vn 0.770796000957489 0.5763559937477112 0.27145400643348694
vn 0.8070070147514343 0.5903900265693665 0.013357000425457954
vn 0.6371979713439941 0.7706170082092285 0.011346999555826187
vn 0.6569960117340088 0.6923720240592957 -0.2982890009880066
vn 0.8014569878578186 0.5424289703369141 -0.25186699628829956
vn 0.6241919994354248 0.3717850148677826 -0.6871389746665955
vn 0.5858179926872253 0.4612649977207184 -0.6663730144500732
vn 0.6241919994354248 0.3717850148677826 -0.6871389746665955
vn 0.5858179926872253 0.4612649977207184 -0.6663730144500732
vn -0.6569370031356812 0.41037100553512573 -0.6324790120124817
vn -0.549032986164093 -0.5455610156059265 -0.6331869959831238
vn 0.09632200002670288 -0.24243299663066864 -0.9653750061988831
vn -0.05451099947094917 0.6940360069274902 -0.7178739905357361
vn -0.7376980185508728 -0.6344640254974365 -0.23077499866485596
vn -0.549032986164093 -0.5455610156059265 -0.6331869959831238
vn -0.6569370031356812 0.41037100553512573 -0.6324790120124817
vn -0.9583799839019775 0.12074500322341919 -0.2587060034275055
vn -0.7400640249252319 -0.6093490123748779 0.2846049964427948
vn -0.8077080249786377 -0.5895059704780579 0.009530999697744846
vn -0.9945089817047119 0.0975940003991127 0.037769000977277756
vn -0.9334509968757629 0.04907799884676933 0.35533300042152405
vn 0.11691000312566757 -0.26967400312423706 0.9558290243148804
vn -0.516202986240387 -0.5790259838104248 0.6310819983482361
vn -0.7215030193328857 0.2067819982767105 0.6608129739761353
vn -0.04201800003647804 0.6838899850845337 0.7283740043640137
vn 0.6900650262832642 0.08328399807214737 0.718940019607544
vn 0.3153350055217743 0.8400840163230896 0.44138699769973755
vn 0.9565320014953613 0.2913820147514343 0.011997000314295292
vn 0.9232980012893677 0.21360599994659424 0.31920701265335083
vn 0.47519299387931824 0.8508089780807495 0.22430899739265442
vn 0.43266600370407104 0.9015089869499207 0.009088000282645226
vn 0.29935601353645325 0.8425139784812927 -0.4478349983692169
vn 0.681181013584137 0.09862300008535385 -0.7254419922828674
vn 0.9134730100631714 0.23268499970436096 -0.33380401134490967
vn 0.45161598920822144 0.860090970993042 -0.23724600672721863
vn 0.681181013584137 0.09862300008535385 -0.7254419922828674
vn 0.29935601353645325 0.8425139784812927 -0.4478349983692169
vn -0.038015998899936676 0.0563340000808239 -0.9976879954338074
vn -0.7405499815940857 -0.14881399273872375 -0.6553170084953308
vn -0.7405499815940857 -0.14881399273872375 -0.6553170084953308
vn -0.9394850134849548 -0.21766600012779236 -0.2645550072193146
vn -0.9837170243263245 -0.1765819936990738 0.03347500041127205
vn -0.9529950022697449 -0.1285649985074997 0.27435800433158875
vn -0.6832550168037415 -0.032416000962257385 0.7294600009918213
vn -0.047116998583078384 0.09926100075244904 0.9939450025558472
vn 0.5932139754295349 0.33577901124954224 0.7316759824752808
vn 0.8516479730606079 0.4326229989528656 0.29586100578308105
vn 0.8788220286369324 0.4770529866218567 0.009673000313341618
vn 0.8543609976768494 0.43301498889923096 -0.2873440086841583
vn 0.6088749766349792 0.32068899273872375 -0.7255539894104004
vn 0.6088749766349792 0.32068899273872375 -0.7255539894104004
vn -0.9999949932098389 -0.0007900000200606883 -0.0030060000717639923
vn -0.4498249888420105 0.820572018623352 -0.35258999466896057
vn -0.4253610074520111 0.5891799926757812 -0.6869750022888184
vn -0.48883700370788574 0.13686999678611755 -0.8615710139274597
vn -0.7469120025634766 -0.27704301476478577 -0.6044579744338989
vn -0.9857739806175232 -0.13382700085639954 -0.10168199986219406
vn -0.4876349866390228 0.8150399923324585 0.3129250109195709
vn -0.4402480125427246 0.8977059721946716 -0.017480000853538513
vn -0.9999369978904724 0.0020959998946636915 -0.01107299979776144
vn -0.9996330142021179 0.0043020001612603664 -0.02675900049507618
vn -0.9958480000495911 -0.052515000104904175 0.07435599714517593
vn -0.9996950030326843 -0.0010049999691545963 -0.024685999378561974
vn 0.4999220073223114 0.4654879868030548 0.7303419709205627
vn 0.5932139754295349 0.33577901124954224 0.7316759824752808
vn 0.6900650262832642 0.08328399807214737 0.718940019607544
vn 0.3153350055217743 0.8400840163230896 0.44138699769973755
vn -0.7215030193328857 0.2067819982767105 0.6608129739761353
vn -0.516202986240387 -0.5790259838104248 0.6310819983482361
vn -0.8317790031433105 0.03617199882864952 0.553928017616272
vn -0.6832550168037415 -0.032416000962257385 0.7294600009918213
vn -0.8395190238952637 -0.06500300019979477 0.5394269824028015
vn -0.8994179964065552 -0.115386001765728 0.42158499360084534
vn -0.6681619882583618 0.193898007273674 0.7183060050010681
vn -0.49048298597335815 0.6117209792137146 0.6206640005111694
vn 0.3963179886341095 0.572242021560669 0.7179629802703857
vn -0.48883700370788574 0.13686999678611755 -0.8615710139274597
vn -0.4253610074520111 0.5891799926757812 -0.6869750022888184
vn -0.4498249888420105 0.820572018623352 -0.35258999466896057
vn -0.4253610074520111 0.5891799926757812 -0.6869750022888184
vn -0.4402480125427246 0.8977059721946716 -0.017480000853538513
vn -0.4876349866390228 0.8150399923324585 0.3129250109195709
vn -0.49048298597335815 0.6117209792137146 0.6206640005111694
vn -0.6681619882583618 0.193898007273674 0.7183060050010681
vn -0.49048298597335815 0.6117209792137146 0.6206640005111694
vn -0.8994179964065552 -0.115386001765728 0.42158499360084534
vn -0.9958480000495911 -0.052515000104904175 0.07435599714517593
vn -0.8994179964065552 -0.115386001765728 0.42158499360084534
vn -0.9996950030326843 -0.0010049999691545963 -0.024685999378561974
vn -0.9857739806175232 -0.13382700085639954 -0.10168199986219406
vn -0.7469120025634766 -0.27704301476478577 -0.6044579744338989
vn -0.7469120025634766 -0.27704301476478577 -0.6044579744338989
vn 0.6426969766616821 0.30778199434280396 0.7015770077705383
vn 0.6830919981002808 -0.3969469964504242 0.6130409836769104
vn 0.1845490038394928 -0.47011798620224 0.8630939722061157
vn 0.01418600045144558 0.21328499913215637 0.9768869876861572
vn -0.27617499232292175 -0.5094149708747864 0.814998984336853
vn -0.4158470034599304 0.10950200259685516 0.9028180241584778
vn -0.9578199982643127 0.0859069973230362 0.2742280066013336
vn -0.7311450242996216 -0.6291630268096924 0.26377999782562256
vn -0.743973970413208 -0.6682010293006897 0.00317199993878603
vn -0.9933480024337769 -0.10471899807453156 -0.04789099842309952
vn -0.9626460075378418 0.15456900000572205 -0.22231000661849976
vn -0.7377650141716003 -0.6226800084114075 -0.2607159912586212
vn -0.5880600214004517 -0.6104879975318909 -0.5305560231208801
vn -0.7779859900474548 0.4815320074558258 -0.4035640060901642
vn -0.27028900384902954 -0.4737809896469116 -0.8381379842758179
vn -0.4146040081977844 0.4301069974899292 -0.801941990852356
vn 0.17327499389648438 -0.4413999915122986 -0.8804219961166382
vn 0.7067570090293884 -0.3742539882659912 -0.6003569960594177
vn 0.635237991809845 0.3064480125904083 -0.7089170217514038
vn 0.10602399706840515 0.25767698884010315 -0.9603970050811768
vn 0.9289230108261108 -0.30167698860168457 -0.214695006608963
vn 0.9147400259971619 0.31905099749565125 -0.24790699779987335
vn 0.9526270031929016 0.3037410080432892 -0.015577999874949455
vn 0.9563810229301453 -0.29165899753570557 -0.016433000564575195
vn 0.9236779808998108 -0.31682199239730835 0.21550500392913818
vn 0.9179490208625793 0.3075760006904602 0.2505339980125427
vn -0.7270069718360901 0.343205988407135 -0.5947020053863525
vn -0.6569370031356812 0.41037100553512573 -0.6324790120124817
vn -0.43315398693084717 0.47969698905944824 -0.763064980506897
vn -0.8921350240707397 0.36266499757766724 -0.2693859934806824
vn -0.9583799839019775 0.12074500322341919 -0.2587060034275055
vn -0.9136970043182373 0.30336201190948486 0.2704240083694458
vn -0.9334509968757629 0.04907799884676933 0.35533300042152405
vn -0.9945089817047119 0.0975940003991127 0.037769000977277756
vn -0.965707004070282 0.25690698623657227 -0.03754299879074097
vn -0.08884099870920181 0.5268539786338806 0.845300018787384
vn -0.04201800003647804 0.6838899850845337 0.7283740043640137
vn -0.4205630123615265 0.5050849914550781 0.7536680102348328
vn 0.3153350055217743 0.8400840163230896 0.44138699769973755
vn 0.43334800004959106 0.6669750213623047 0.6060979962348938
vn 0.6119840145111084 0.7906309962272644 -0.019454000517725945
vn 0.43266600370407104 0.9015089869499207 0.009088000282645226
vn 0.47519299387931824 0.8508089780807495 0.22430899739265442
vn 0.6426290273666382 0.7352790236473083 0.21538999676704407
vn 0.29935601353645325 0.8425139784812927 -0.4478349983692169
vn 0.45161598920822144 0.860090970993042 -0.23724600672721863
vn 0.6304469704627991 0.7447680234909058 -0.21876400709152222
vn 0.4549809992313385 0.6330459713935852 -0.6262949705123901
vn -0.09377200156450272 0.4823850095272064 -0.870926022529602
vn -0.05451099947094917 0.6940360069274902 -0.7178739905357361
vn -0.8921350240707397 0.36266499757766724 -0.2693859934806824
vn -0.7270069718360901 0.343205988407135 -0.5947020053863525
vn -0.685920000076294 -0.3199940025806427 -0.6535429954528809
vn -0.8919529914855957 -0.33994999527931213 -0.29808300733566284
vn -0.9136970043182373 0.30336201190948486 0.2704240083694458
vn -0.965707004070282 0.25690698623657227 -0.03754299879074097
vn -0.940214991569519 -0.34053701162338257 0.005576000083237886
vn -0.8976640105247498 -0.3195370137691498 0.30347201228141785
vn -0.08884099870920181 0.5268539786338806 0.845300018787384
vn -0.4205630123615265 0.5050849914550781 0.7536680102348328
vn -0.3697879910469055 -0.16659000515937805 0.9140589833259583
vn 0.08134099841117859 -0.09152299910783768 0.9924749732017517
vn 0.43334800004959106 0.6669750213623047 0.6060979962348938
vn 0.6875720024108887 0.041854001581668854 0.7249090075492859
vn 0.9934509992599487 0.11289399862289429 -0.01758500002324581
vn 0.6119840145111084 0.7906309962272644 -0.019454000517725945
vn 0.6426290273666382 0.7352790236473083 0.21538999676704407
vn 0.9591320157051086 0.1050880029797554 0.2627210021018982
vn 0.716156005859375 -0.006587000098079443 -0.6979089975357056
vn 0.4549809992313385 0.6330459713935852 -0.6262949705123901
vn 0.6304469704627991 0.7447680234909058 -0.21876400709152222
vn 0.9631689786911011 0.08964499831199646 -0.25351598858833313
vn 0.0819220021367073 -0.17215099930763245 -0.9816579818725586
vn -0.09377200156450272 0.4823850095272064 -0.870926022529602
vn -0.43315398693084717 0.47969698905944824 -0.763064980506897
vn -0.34258800745010376 -0.22176100313663483 -0.9129379987716675
vn -0.5535010099411011 -0.6364079713821411 0.5372359752655029
vn -0.7841799855232239 0.11246000230312347 0.6102579832077026
vn -0.7485669851303101 0.29648900032043457 0.5930789709091187
vn -0.7034050226211548 -0.2737770080566406 0.6559479832649231
vn -0.7215030193328857 0.2067819982767105 0.6608129739761353
vn -0.7485669851303101 0.29648900032043457 0.5930789709091187
vn 0.6426969766616821 0.30778199434280396 0.7015770077705383
vn 0.01418600045144558 0.21328499913215637 0.9768869876861572
vn -0.015014000236988068 -0.19582200050354004 0.980525016784668
vn 0.7521960139274597 -0.025666000321507454 0.6584389805793762
vn -0.6320329904556274 -0.42616701126098633 0.6472370028495789
vn -0.4158470034599304 0.10950200259685516 0.9028180241584778
vn -0.7841799855232239 0.11246000230312347 0.6102579832077026
vn -0.897022008895874 -0.30267301201820374 0.32208800315856934
vn -0.9454259872436523 -0.2962230145931244 0.13572700321674347
vn -0.9578199982643127 0.0859069973230362 0.2742280066013336
vn -0.9933480024337769 -0.10471899807453156 -0.04789099842309952
vn -0.9195610284805298 -0.3888989984989166 -0.056265998631715775
vn -0.9877349734306335 -0.02418299950659275 -0.15425600111484528
vn -0.9626460075378418 0.15456900000572205 -0.22231000661849976
vn -0.7779859900474548 0.4815320074558258 -0.4035640060901642
vn -0.8111159801483154 0.39764299988746643 -0.4289180040359497
vn -0.8111159801483154 0.39764299988746643 -0.4289180040359497
vn -0.7779859900474548 0.4815320074558258 -0.4035640060901642
vn -0.4146040081977844 0.4301069974899292 -0.801941990852356
vn -0.13896499574184418 0.25455400347709656 -0.9570220112800598
vn 0.1656540036201477 -0.2706739902496338 -0.9483109712600708
vn 0.10602399706840515 0.25767698884010315 -0.9603970050811768
vn 0.635237991809845 0.3064480125904083 -0.7089170217514038
vn 0.7693679928779602 0.09666100144386292 -0.6314499974250793
vn 0.7693679928779602 0.09666100144386292 -0.6314499974250793
vn 0.635237991809845 0.3064480125904083 -0.7089170217514038
vn 0.9147400259971619 0.31905099749565125 -0.24790699779987335
vn 0.9851710200309753 0.04531500115990639 -0.16548100113868713
vn 0.9526270031929016 0.3037410080432892 -0.015577999874949455
vn 0.9179490208625793 0.3075760006904602 0.2505339980125427
vn 0.9727140069007874 0.018696999177336693 0.23125199973583221
vn 0.9998480081558228 0.015790000557899475 -0.007333000190556049
vn -0.7581300139427185 -0.6424070000648499 0.11203700304031372
vn -0.719569981098175 -0.6790140271186829 0.14545999467372894
vn -0.6314679980278015 -0.7751489877700806 0.019801000133156776
vn -0.8534629940986633 -0.5194900035858154 0.04160400107502937
vn -0.81038898229599 -0.4932650029659271 0.3161650002002716
vn -0.46589401364326477 -0.8321170210838318 0.3008730113506317
vn 0.1769219934940338 -0.7355729937553406 -0.6539340019226074
vn 0.1736000031232834 -0.9364979863166809 -0.3046869933605194
vn -0.43941500782966614 -0.8679190278053284 -0.23158499598503113
vn -0.4161570072174072 -0.5463200211524963 -0.7268760204315186
vn 0.09843000024557114 -0.9825940132141113 0.1575459986925125
vn -0.5515289902687073 -0.831387996673584 0.06789900362491608
vn -0.40074700117111206 -0.9132590293884277 -0.07321099936962128
vn 0.21326899528503418 -0.9746260046958923 -0.06796900182962418
vn -0.16171899437904358 -0.28618600964546204 0.944428026676178
vn 0.7164319753646851 -0.2473289966583252 0.6523450016975403
vn -0.7387019991874695 -0.6730300188064575 -0.03673100098967552
vn -0.9701809883117676 -0.23725999891757965 -0.049573998898267746
vn -0.9665499925613403 -0.2477550059556961 -0.06632000207901001
vn -0.7604730129241943 -0.6446520090103149 0.07813200354576111
vn 0.75934898853302 -0.08874399960041046 -0.6446030139923096
vn 0.045712001621723175 -0.01659099943935871 -0.9988170266151428
vn 0.9643629789352417 -0.20729200541973114 -0.16442100703716278
vn 0.75934898853302 -0.08874399960041046 -0.6446030139923096
vn 0.9370959997177124 -0.28158900141716003 0.20629799365997314
vn 0.9667609930038452 -0.2554279863834381 -0.011416000314056873
vn -0.5014500021934509 -0.7952229976654053 -0.3408359885215759
vn -0.7780439853668213 -0.10302799940109253 -0.619704008102417
vn -0.9662200212478638 -0.25565800070762634 -0.03252999857068062
vn -0.6890469789505005 -0.7138410210609436 -0.1250779926776886
vn -0.7136939764022827 -0.6096259951591492 0.3449600040912628
vn -0.8876180052757263 -0.2663789987564087 0.37573400139808655
vn -0.5850009918212891 -0.6003010272979736 0.5453550219535828
vn -0.020594000816345215 -0.9121800065040588 0.4092719852924347
vn 0.44488000869750977 -0.6351289749145508 0.6314219832420349
vn -0.19997799396514893 -0.33313700556755066 0.9214270114898682
vn -0.5014500021934509 -0.7952229976654053 -0.3408359885215759
vn -0.7780439853668213 -0.10302799940109253 -0.619704008102417
vn -0.8094419836997986 -0.581866979598999 0.07895799726247787
vn -0.8810439705848694 -0.4687129855155945 0.06379000097513199
vn -0.7020360231399536 -0.7108719944953918 0.042504001408815384
vn -0.7121189832687378 -0.6954960227012634 0.09577099978923798
vn -0.4225359857082367 -0.4468269944190979 -0.7885479927062988
vn -0.5124480128288269 -0.78746098279953 0.34249401092529297
vn -0.888047993183136 -0.27404001355171204 0.3691520094871521
vn -0.9275799989700317 -0.006072999909520149 -0.37357500195503235
vn 0.7705159783363342 -0.6374189853668213 -0.0013920000055804849
vn 0.6975579857826233 -0.6837180256843567 0.21434399485588074
vn 0.5631639957427979 -0.46917998790740967 -0.6802330017089844
vn 0.7357400059700012 -0.6265299916267395 -0.257189005613327
vn -0.9339119791984558 0.15732699632644653 0.3210259974002838
vn -0.02487199939787388 -0.9984170198440552 0.05043900012969971
vn 0.100101999938488 -0.7090470194816589 -0.6980199813842773
vn 0.1656540036201477 -0.2706739902496338 -0.9483109712600708
vn -0.4225359857082367 -0.4468269944190979 -0.7885479927062988
vn -0.9275799989700317 -0.006072999909520149 -0.37357500195503235
vn 0.100101999938488 -0.7090470194816589 -0.6980199813842773
vn 0.5631639957427979 -0.46917998790740967 -0.6802330017089844
vn -0.15783999860286713 -0.08309800177812576 -0.9839619994163513
vn -0.9648000001907349 0.26156699657440186 -0.02725999988615513
vn -0.9429849982261658 0.2911919951438904 -0.161204993724823
vn -0.8754439949989319 0.2126920074224472 -0.4340049922466278
vn -0.9572790265083313 0.2674640119075775 0.10990999639034271
vn -0.9336050152778625 -0.35398200154304504 -0.055486999452114105
vn -0.9813529849052429 -0.17052200436592102 -0.08870100229978561
vn -0.9356930255889893 -0.0747390016913414 -0.3448069989681244
vn -0.9753310084342957 -0.21863499283790588 -0.030472999438643456
vn -0.8754439949989319 0.2126920074224472 -0.4340049922466278
vn -0.9500349760055542 -0.02455499954521656 0.31117698550224304
vn -0.9933480024337769 -0.10471899807453156 -0.04789099842309952
vn -0.743973970413208 -0.6682010293006897 0.00317199993878603
vn -0.965707004070282 0.25690698623657227 -0.03754299879074097
vn -0.940214991569519 -0.34053701162338257 0.005576000083237886
vn 0.6426969766616821 0.30778199434280396 0.7015770077705383
vn 0.7521960139274597 -0.025666000321507454 0.6584389805793762
vn 0.7164319753646851 -0.2473289966583252 0.6523450016975403
vn 0.44488000869750977 -0.6351289749145508 0.6314219832420349
vn -0.9339119791984558 0.15732699632644653 0.3210259974002838
vn -0.8876180052757263 -0.2663789987564087 0.37573400139808655
vn -0.7136939764022827 -0.6096259951591492 0.3449600040912628
vn -0.719569981098175 -0.6790140271186829 0.14545999467372894
vn -0.7581300139427185 -0.6424070000648499 0.11203700304031372
vn -0.897022008895874 -0.30267301201820374 0.32208800315856934
vn -0.7841799855232239 0.11246000230312347 0.6102579832077026
vn -0.2979840040206909 -0.41690900921821594 -0.8587160110473633
vn 0.11146800220012665 -0.33161601424217224 -0.9368060231208801
vn 0.7015910148620605 -0.22805899381637573 -0.6751000285148621
vn 0.9380769729614258 -0.24254800379276276 -0.24734799563884735
vn 0.9677579998970032 -0.25125399231910706 -0.017805999144911766
vn 0.9360679984092712 -0.24943000078201294 0.24811699986457825
vn 0.6909499764442444 -0.25070199370384216 0.678039014339447
vn 0.12178300321102142 -0.3541739881038666 0.9272159934043884
vn -0.28687000274658203 -0.4531559944152832 0.8440110087394714
vn -0.6094040274620056 -0.5216379761695862 0.5970939993858337
vn -0.7517279982566833 -0.5994750261306763 0.2748349905014038
vn -0.8096380233764648 -0.5869280099868774 -0.0013920000055804849
vn -0.8096380233764648 -0.5869280099868774 -0.0013920000055804849
vn -0.7579489946365356 -0.591405987739563 -0.2752319872379303
vn -0.6114680171012878 -0.5067409873008728 -0.607716977596283
vn -0.011555000208318233 0.3232809901237488 -0.9462329745292664
vn -0.4303100109100342 0.2584550082683563 -0.8648899793624878
vn -0.7806829810142517 0.14460699260234833 -0.6079660058021545
vn -0.9555429816246033 0.059206001460552216 -0.2888459861278534
vn -0.99857097864151 0.05323899909853935 0.004670000169426203
vn -0.99857097864151 0.05323899909853935 0.004670000169426203
vn -0.9545459747314453 0.05493500083684921 0.29295799136161804
vn -0.7798740267753601 0.13164900243282318 0.611935019493103
vn -0.43770501017570496 0.22147800028324127 0.8714140057563782
vn 0.0024790000170469284 0.3029699921607971 0.9529970288276672
vn 0.5998479723930359 0.3806590139865875 0.7037619948387146
vn 0.8803489804267883 0.3978230059146881 0.25830599665641785
vn 0.921580970287323 0.3878929913043976 -0.015091000124812126
vn 0.8822759985923767 0.39764198660850525 -0.2519339919090271
vn 0.6135349869728088 0.3956640064716339 -0.6833919882774353

vt 0.32008999586105347 0.4999750256538391
vt 0.32008999586105347 0.5387000143527985
vt 0.2966479957103729 0.549113005399704
vt 0.2966479957103729 0.4999750256538391
vt 0.2966479957103729 0.4999750256538391
vt 0.2966479957103729 0.4697309732437134
vt 0.32008999586105347 0.4729750156402588
vt 0.32008999586105347 0.4999750256538391
vt 0.2966479957103729 0.43901097774505615
vt 0.2966479957103729 0.40560901165008545
vt 0.32008999586105347 0.4087510108947754
vt 0.32008999586105347 0.44555002450942993
vt 0.32008999586105347 0.8747750073671341
vt 0.2966479957103729 0.8747750073671341
vt 0.2966479957103729 0.8122570067644119
vt 0.32008999586105347 0.8185060024261475
vt 0.2966479957103729 0.7502840012311935
vt 0.32008999586105347 0.7502840012311935
vt 0.32008999586105347 0.7199870049953461
vt 0.2966479957103729 0.7215900123119354
vt 0.2966479957103729 0.6905660033226013
vt 0.32008999586105347 0.6872299909591675
vt 0.32008999586105347 0.6559660136699677
vt 0.2966479957103729 0.6576209962368011
vt 0.2966479957103729 0.6251859962940216
vt 0.32008999586105347 0.6251859962940216
vt 0.2966479957103729 0.6251859962940216
vt 0.32008999586105347 0.6251859962940216
vt 0.22675299644470215 0.4999750256538391
vt 0.24041999876499176 0.4999750256538391
vt 0.24041999876499176 0.556771993637085
vt 0.22675299644470215 0.5531879961490631
vt 0.24041999876499176 0.4676849842071533
vt 0.24041999876499176 0.4999750256538391
vt 0.22675299644470215 0.4999750256538391
vt 0.22675299644470215 0.4672049880027771
vt 0.24041999876499176 0.4036269783973694
vt 0.24041999876499176 0.43488597869873047
vt 0.22675299644470215 0.4339190125465393
vt 0.22675299644470215 0.40316200256347656
vt 0.24041999876499176 0.8126299977302551
vt 0.24041999876499176 0.8747750073671341
vt 0.22675299644470215 0.8747750073671341
vt 0.22675299644470215 0.8177569955587387
vt 0.24041999876499176 0.7502840012311935
vt 0.22675299644470215 0.7502840012311935
vt 0.24041999876499176 0.6820360124111176
vt 0.24041999876499176 0.7174910008907318
vt 0.22675299644470215 0.7155309915542603
vt 0.22675299644470215 0.6779569983482361
vt 0.22675299644470215 0.6251859962940216
vt 0.24041999876499176 0.6251859962940216
vt 0.24041999876499176 0.6533890068531036
vt 0.22675299644470215 0.6513650119304657
vt 0.24041999876499176 0.6251859962940216
vt 0.22675299644470215 0.6251859962940216
vt 0.2553200125694275 0.5606789886951447
vt 0.2553200125694275 0.4999750256538391
vt 0.2553200125694275 0.4999750256538391
vt 0.2553200125694275 0.4682080149650574
vt 0.2553200125694275 0.4359400272369385
vt 0.2553200125694275 0.40413397550582886
vt 0.2553200125694275 0.8747750073671341
vt 0.2553200125694275 0.8070410043001175
vt 0.2553200125694275 0.7502840012311935
vt 0.2553200125694275 0.7196280062198639
vt 0.2553200125694275 0.6864820122718811
vt 0.2553200125694275 0.6555950045585632
vt 0.2553200125694275 0.6251859962940216
vt 0.2553200125694275 0.6251859962940216
vt 0.9137169718742371 0.2651450037956238
vt 0.882390022277832 0.26514798402786255
vt 0.882390022277832 0.23409700393676758
vt 0.9137150049209595 0.23409700393676758
vt 0.9450479745864868 0.23409700393676758
vt 0.9450479745864868 0.26513999700546265
vt 0.882390022277832 0.3291980028152466
vt 0.882390022277832 0.296688973903656
vt 0.9137189984321594 0.2966820001602173
vt 0.9137219786643982 0.3291950225830078
vt 0.9450479745864868 0.3291900157928467
vt 0.9450479745864868 0.296671986579895
vt 0.2966479957103729 0.7502840012311935
vt 0.2553200125694275 0.7502840012311935
vt 0.24041999876499176 0.7502840012311935
vt 0.22675299644470215 0.7502840012311935
vt 0.22675299644470215 0.3747149705886841
vt 0.24041999876499176 0.3747149705886841
vt 0.2966479957103729 0.3747149705886841
vt 0.2553200125694275 0.3747149705886841
vt 0.32008999586105347 0.3747149705886841
vt 0.9450479745864868 0.359266996383667
vt 0.9137240052223206 0.359266996383667
vt 0.882390022277832 0.359266996383667
vt 0.32008999586105347 0.7502840012311935
vt 0.35222598910331726 0.5244260132312775
vt 0.35222598910331726 0.6251859962940216
vt 0.35222598910331726 0.6536979973316193
vt 0.35222598910331726 0.6251859962940216
vt 0.35222598910331726 0.6826590001583099
vt 0.35222598910331726 0.7177900075912476
vt 0.35222598910331726 0.7502840012311935
vt 0.35222598910331726 0.8270740061998367
vt 0.35222598910331726 0.7502840012311935
vt 0.35222598910331726 0.8747750073671341
vt 0.35222598910331726 0.4130589962005615
vt 0.35222598910331726 0.3747149705886841
vt 0.35222598910331726 0.4545149803161621
vt 0.35222598910331726 0.47742199897766113
vt 0.35222598910331726 0.4999750256538391
vt 0.35222598910331726 0.4999750256538391
vt 0.5506510138511658 0.1428319811820984
vt 0.5425189733505249 0.14227700233459473
vt 0.5415289998054504 0.16608202457427979
vt 0.5495799779891968 0.16678202152252197
vt 0.5403249859809875 0.17860597372055054
vt 0.5484079718589783 0.17948400974273682
vt 0.5451459884643555 0.20289701223373413
vt 0.5373319983482361 0.20179897546768188
vt 0.5354719758033752 0.2146340012550354
vt 0.5432130098342896 0.21602100133895874
vt 0.5451149940490723 0.030820012092590332
vt 0.5371800065040588 0.03167301416397095
vt 0.5389569997787476 0.044049978256225586
vt 0.547016978263855 0.043363988399505615
vt 0.5400729775428772 0.05550801753997803
vt 0.5480380058288574 0.054094016551971436
vt 0.5414050221443176 0.06838297843933105
vt 0.5422899723052979 0.09223401546478271
vt 0.5504990220069885 0.09163802862167358
vt 0.5496810078620911 0.06791400909423828
vt 0.5424559712409973 0.10465401411056519
vt 0.5506680011749268 0.10432398319244385
vt 0.5508400201797485 0.11720901727676392
vt 0.5426239967346191 0.11726897954940796
vt 0.5425689816474915 0.13026100397109985
vt 0.5507410168647766 0.13051998615264893
vt 0.4342400133609772 0.18809598684310913
vt 0.43174201250076294 0.19001799821853638
vt 0.43893301486968994 0.19228297472000122
vt 0.42796099185943604 0.18809598684310913
vt 0.42648300528526306 0.1903499960899353
vt 0.41678598523139954 0.19259101152420044
vt 0.41775500774383545 0.19385498762130737
vt 0.42114099860191345 0.19068700075149536
vt 0.42158401012420654 0.18809598684310913
vt 0.4119420051574707 0.20899397134780884
vt 0.4160059988498688 0.20474499464035034
vt 0.411641001701355 0.202659010887146
vt 0.42211300134658813 0.21083801984786987
vt 0.4206070005893707 0.21765202283859253
vt 0.4332669973373413 0.21765398979187012
vt 0.43104100227355957 0.21083402633666992
vt 0.4264029860496521 0.2108359932899475
vt 0.426690012216568 0.21765297651290894
vt 0.4375619888305664 0.2047330141067505
vt 0.43432700634002686 0.20775902271270752
vt 0.4379209876060486 0.21329200267791748
vt 0.44250398874282837 0.20899701118469238
vt 0.44290900230407715 0.19675397872924805
vt 0.43785199522972107 0.19610899686813354
vt 0.5161889791488647 0.034398019313812256
vt 0.5177599787712097 0.04632902145385742
vt 0.5232089757919312 0.04562997817993164
vt 0.5216140151023865 0.03358197212219238
vt 0.5163519978523254 0.19915902614593506
vt 0.5145919919013977 0.21153002977371216
vt 0.520084023475647 0.21219801902770996
vt 0.5218480229377747 0.1997780203819275
vt 0.5201889872550964 0.16453897953033447
vt 0.5189800262451172 0.17650997638702393
vt 0.5244879722595215 0.17699700593948364
vt 0.5257149934768677 0.16486501693725586
vt 0.5210570096969604 0.1413000226020813
vt 0.5265920162200928 0.14143598079681396
vt 0.5266460180282593 0.11719101667404175
vt 0.5211650133132935 0.11703997850418091
vt 0.5211089849472046 0.1296430230140686
vt 0.5266180038452148 0.12978702783584595
vt 0.5263270139694214 0.09291702508926392
vt 0.5208510160446167 0.09284597635269165
vt 0.5210070013999939 0.10484898090362549
vt 0.526485025882721 0.10495901107788086
vt 0.5252739787101746 0.06928902864456177
vt 0.5197179913520813 0.06959497928619385
vt 0.5189440250396729 0.05834197998046875
vt 0.5244190096855164 0.05782502889633179
vt 0.5390530228614807 0.18992799520492554
vt 0.5469350218772888 0.19075798988342285
vt 0.5179790258407593 0.18771600723266602
vt 0.5234789848327637 0.1882910132408142
vt 0.4146229922771454 0.19678401947021484
vt 0.4123469889163971 0.19674897193908691
vt 0.5195900201797485 0.151187002658844
vt 0.5085350275039673 0.14137297868728638
vt 0.49980899691581726 0.15349102020263672
vt 0.5039229989051819 0.16714900732040405
vt 0.49324899911880493 0.14000898599624634
vt 0.5027539730072021 0.1363930106163025
vt 0.4968949854373932 0.1322929859161377
vt 0.490543007850647 0.13474398851394653
vt 0.4688830077648163 0.130266010761261
vt 0.4709399938583374 0.12663400173187256
vt 0.4629639983177185 0.12650597095489502
vt 0.46316999197006226 0.12870800495147705
vt 0.45457199215888977 0.12948697805404663
vt 0.45542699098587036 0.12678098678588867
vt 0.4480069875717163 0.1270509958267212
vt 0.44610801339149475 0.13025301694869995
vt 0.4267829954624176 0.14376801252365112
vt 0.4232339859008789 0.1428840160369873
vt 0.42177799344062805 0.14920401573181152
vt 0.4295490086078644 0.1498510241508484
vt 0.4326370060443878 0.1598150134086609
vt 0.4182719886302948 0.15690797567367554
vt 0.41157200932502747 0.16971099376678467
vt 0.43138599395751953 0.17925101518630981
vt 0.45679599046707153 0.20068001747131348
vt 0.4566600024700165 0.2175390124320984
vt 0.4641680121421814 0.21766197681427002
vt 0.46382901072502136 0.2003750205039978
vt 0.4717940092086792 0.2177870273590088
vt 0.47959598898887634 0.21680200099945068
vt 0.4784570038318634 0.1996150016784668
vt 0.47097301483154297 0.2000659704208374
vt 0.4831880033016205 0.1381549835205078
vt 0.4854550063610077 0.14431798458099365
vt 0.45637500286102295 0.14400601387023926
vt 0.45590299367904663 0.13728302717208862
vt 0.45094600319862366 0.1398259997367859
vt 0.45173099637031555 0.14476299285888672
vt 0.4535120129585266 0.17486602067947388
vt 0.4602139890193939 0.1750500202178955
vt 0.4600589871406555 0.17222201824188232
vt 0.4535129964351654 0.1723719835281372
vt 0.47244900465011597 0.17337197065353394
vt 0.4723159968852997 0.1698700189590454
vt 0.4667069911956787 0.17206799983978271
vt 0.46702200174331665 0.1752369999885559
vt 0.4935320019721985 0.16167402267456055
vt 0.4968700110912323 0.17214900255203247
vt 0.4623500108718872 0.14985299110412598
vt 0.46455898880958557 0.15830200910568237
vt 0.47095900774002075 0.1564670205116272
vt 0.4687199890613556 0.14813297986984253
vt 0.43744298815727234 0.18116801977157593
vt 0.4376640021800995 0.17017698287963867
vt 0.46269598603248596 0.19334101676940918
vt 0.45565900206565857 0.19457900524139404
vt 0.4772369861602783 0.19148701429367065
vt 0.4698430001735687 0.19208401441574097
vt 0.4522410035133362 0.15091699361801147
vt 0.4506239891052246 0.15926700830459595
vt 0.4575369954109192 0.1587880253791809
vt 0.4572559893131256 0.15038901567459106
vt 0.4859839975833893 0.1501539945602417
vt 0.4848720133304596 0.15919500589370728
vt 0.47750499844551086 0.1678370237350464
vt 0.47746899724006653 0.17164701223373413
vt 0.48765599727630615 0.1737070083618164
vt 0.4890750050544739 0.16611802577972412
vt 0.44122299551963806 0.1587880253791809
vt 0.4431909918785095 0.1672220230102539
vt 0.46481800079345703 0.13584399223327637
vt 0.4609380066394806 0.13470101356506348
vt 0.461093008518219 0.14323800802230835
vt 0.4670270085334778 0.14238500595092773
vt 0.4396199882030487 0.14353901147842407
vt 0.4463070034980774 0.1432340145111084
vt 0.4453060030937195 0.140874981880188
vt 0.4406670033931732 0.13989001512527466
vt 0.4689840078353882 0.18396198749542236
vt 0.4761990010738373 0.1826450228691101
vt 0.4542039930820465 0.18487298488616943
vt 0.4615359902381897 0.18442100286483765
vt 0.4804590046405792 0.16311699151992798
vt 0.4469340145587921 0.14701199531555176
vt 0.4416489899158478 0.14736002683639526
vt 0.44455599784851074 0.15613502264022827
vt 0.43979600071907043 0.14769697189331055
vt 0.4378319978713989 0.1445080041885376
vt 0.4396049976348877 0.15235298871994019
vt 0.4465869963169098 0.18076497316360474
vt 0.44673800468444824 0.17253798246383667
vt 0.46560201048851013 0.16335302591323853
vt 0.47152599692344666 0.16210198402404785
vt 0.45221400260925293 0.16416698694229126
vt 0.4588559865951538 0.16376298666000366
vt 0.46639999747276306 0.16917097568511963
vt 0.47180598974227905 0.16724902391433716
vt 0.45382100343704224 0.16922599077224731
vt 0.4600610136985779 0.16919898986816406
vt 0.44838398694992065 0.16835302114486694
vt 0.47680699825286865 0.16547197103500366
vt 0.5431839823722839 0.0180780291557312
vt 0.5353760123252869 0.01910102367401123
vt 0.5145919919013977 0.022279977798461914
vt 0.5199940204620361 0.021345019340515137
vt 0.4868110120296478 0.2158910036087036
vt 0.48537901043891907 0.19919699430465698
vt 0.48407599329948425 0.19093602895736694
vt 0.48287200927734375 0.181427001953125
vt 0.4770059883594513 0.16094398498535156
vt 0.4768800139427185 0.15477001667022705
vt 0.4746110141277313 0.1465420126914978
vt 0.4725160002708435 0.1415960192680359
vt 0.4684079885482788 0.13690102100372314
vt 0.47416698932647705 0.13170701265335083
vt 0.478316992521286 0.12675100564956665
vt 0.5381860136985779 0.05584299564361572
vt 0.5394430160522461 0.06849402189254761
vt 0.5403450131416321 0.09237498044967651
vt 0.5405099987983704 0.1047319769859314
vt 0.540677011013031 0.11728298664093018
vt 0.5406330227851868 0.13019901514053345
vt 0.5405920147895813 0.14214599132537842
vt 0.5396209955215454 0.16591602563858032
vt 0.5384100079536438 0.17839699983596802
vt 0.53718501329422 0.18973100185394287
vt 0.5354800224304199 0.20153898000717163
vt 0.5336369872093201 0.21430498361587524
vt 0.5335249900817871 0.019343018531799316
vt 0.5353000164031982 0.031875014305114746
vt 0.5370470285415649 0.04421299695968628
vt 0.5365399718284607 0.06865799427032471
vt 0.5353909730911255 0.05633902549743652
vt 0.5342190265655518 0.04445302486419678
vt 0.5325160026550293 0.032173991203308105
vt 0.5307859778404236 0.019702017307281494
vt 0.5309209823608398 0.2138180136680603
vt 0.532738983631134 0.2011529803276062
vt 0.5344200134277344 0.18943899869918823
vt 0.5355740189552307 0.17808902263641357
vt 0.536795973777771 0.1656709909439087
vt 0.5377389788627625 0.14195102453231812
vt 0.5377659797668457 0.13010799884796143
vt 0.5377939939498901 0.11730402708053589
vt 0.5376279950141907 0.10484802722930908
vt 0.53746497631073 0.09258401393890381

usemtl Material

f 1/1/1 2/2/2 3/3/3
f 3/3/3 4/4/4 1/1/1
f 5/5/5 6/6/6 7/7/7
f 7/7/7 8/8/8 5/5/5
f 9/9/9 10/10/10 11/11/11
f 11/11/11 12/12/12 9/9/9
f 13/13/13 14/14/14 15/15/15
f 15/15/15 16/16/16 13/13/13
f 16/16/16 15/15/15 17/17/17
f 17/17/17 18/18/18 16/16/16
f 19/19/19 20/20/20 21/21/21
f 21/21/21 22/22/22 19/19/19
f 23/23/23 24/24/24 25/25/25
f 25/25/25 26/26/26 23/23/23
f 27/27/27 3/3/3 2/2/2
f 2/2/2 28/28/28 27/27/27
f 29/29/29 30/30/30 31/31/31
f 31/31/31 32/32/32 29/29/29
f 33/33/33 34/34/34 35/35/35
f 35/35/35 36/36/36 33/33/33
f 37/37/37 38/38/38 39/39/39
f 39/39/39 40/40/40 37/37/37
f 41/41/41 42/42/42 43/43/43
f 43/43/43 44/44/44 41/41/41
f 45/45/45 41/41/41 44/44/44
f 44/44/44 46/46/46 45/45/45
f 47/47/47 48/48/48 49/49/49
f 49/49/49 50/50/50 47/47/47
f 51/51/51 52/52/52 53/53/53
f 53/53/53 54/54/54 51/51/51
f 32/32/32 31/31/31 55/55/55
f 55/55/55 56/56/56 32/32/32
f 4/4/4 3/3/3 57/57/57
f 57/57/57 58/58/58 4/4/4
f 6/6/6 5/5/5 59/59/59
f 59/59/59 60/60/60 6/6/6
f 10/10/10 9/9/9 61/61/61
f 61/61/61 62/62/62 10/10/10
f 14/14/14 63/63/63 64/64/64
f 64/64/64 15/15/15 14/14/14
f 15/15/15 64/64/64 65/65/65
f 65/65/65 17/17/17 15/15/15
f 20/20/20 66/66/66 67/67/67
f 67/67/67 21/21/21 20/20/20
f 25/25/25 24/24/24 68/68/68
f 68/68/68 69/69/69 25/25/25
f 3/3/3 27/27/27 70/70/70
f 70/70/70 57/57/57 3/3/3
f 71/71/71 72/72/72 73/73/73
f 73/73/73 74/74/74 71/71/71
f 75/75/75 76/76/76 71/71/71
f 71/71/71 74/74/74 75/75/75
f 77/77/77 78/78/78 79/79/79
f 79/79/79 80/80/80 77/77/77
f 81/81/81 80/80/80 79/79/79
f 79/79/79 82/82/82 81/81/81
f 24/24/24 21/21/21 67/67/67
f 67/67/67 68/68/68 24/24/24
f 53/53/53 47/47/47 50/50/50
f 50/50/50 54/54/54 53/53/53
f 38/38/38 33/33/33 36/36/36
f 36/36/36 39/39/39 38/38/38
f 9/9/9 6/6/6 60/60/60
f 60/60/60 61/61/61 9/9/9
f 6/6/6 9/9/9 12/12/12
f 12/12/12 7/7/7 6/6/6
f 76/76/76 82/82/82 79/79/79
f 79/79/79 71/71/71 76/76/76
f 79/79/79 78/78/78 72/72/72
f 72/72/72 71/71/71 79/79/79
f 21/21/21 24/24/24 23/23/23
f 23/23/23 22/22/22 21/21/21
f 83/83/83 84/84/84 66/66/66
f 66/66/66 20/20/20 83/83/83
f 48/48/48 85/85/85 86/86/86
f 86/86/86 49/49/49 48/48/48
f 87/87/87 88/88/88 37/37/37
f 37/37/37 40/40/40 87/87/87
f 89/89/89 10/10/10 62/62/62
f 62/62/62 90/90/90 89/89/89
f 10/10/10 89/89/89 91/91/91
f 91/91/91 11/11/11 10/10/10
f 80/80/80 81/81/81 92/92/92
f 92/92/92 93/93/93 80/80/80
f 94/94/94 77/77/77 80/80/80
f 80/80/80 93/93/93 94/94/94
f 95/95/95 83/83/83 20/20/20
f 20/20/20 19/19/19 95/95/95
f 57/57/57 70/70/70 55/55/55
f 55/55/55 31/31/31 57/57/57
f 52/52/52 69/69/69 68/68/68
f 68/68/68 53/53/53 52/52/52
f 47/47/47 53/53/53 68/68/68
f 68/68/68 67/67/67 47/47/47
f 47/47/47 67/67/67 66/66/66
f 66/66/66 48/48/48 47/47/47
f 85/85/85 48/48/48 66/66/66
f 66/66/66 84/84/84 85/85/85
f 45/45/45 65/65/65 64/64/64
f 64/64/64 41/41/41 45/45/45
f 41/41/41 64/64/64 63/63/63
f 63/63/63 42/42/42 41/41/41
f 88/88/88 90/90/90 62/62/62
f 62/62/62 37/37/37 88/88/88
f 38/38/38 37/37/37 62/62/62
f 62/62/62 61/61/61 38/38/38
f 33/33/33 38/38/38 61/61/61
f 61/61/61 60/60/60 33/33/33
f 34/34/34 33/33/33 60/60/60
f 60/60/60 59/59/59 34/34/34
f 30/30/30 58/58/58 57/57/57
f 57/57/57 31/31/31 30/30/30
f 28/28/28 2/2/2 96/96/96
f 96/96/96 97/97/97 28/28/28
f 98/98/98 23/23/23 26/26/26
f 26/26/26 99/99/99 98/98/98
f 100/100/100 22/22/22 23/23/23
f 23/23/23 98/98/98 100/100/100
f 101/101/101 19/19/19 22/22/22
f 22/22/22 100/100/100 101/101/101
f 102/102/102 95/95/95 19/19/19
f 19/19/19 101/101/101 102/102/102
f 103/103/103 16/16/16 18/18/18
f 18/18/18 104/104/104 103/103/103
f 105/105/105 13/13/13 16/16/16
f 16/16/16 103/103/103 105/105/105
f 106/106/106 11/11/11 91/91/91
f 91/91/91 107/107/107 106/106/106
f 12/12/12 11/11/11 106/106/106
f 106/106/106 108/108/108 12/12/12
f 7/7/7 12/12/12 108/108/108
f 108/108/108 109/109/109 7/7/7
f 8/8/8 7/7/7 109/109/109
f 109/109/109 110/110/110 8/8/8
f 2/2/2 1/1/1 111/111/111
f 111/111/111 96/96/96 2/2/2
f 112/112/112 113/113/113 114/114/114
f 114/114/114 115/115/115 112/112/112
f 114/114/114 116/116/116 117/117/117
f 117/117/117 115/115/115 114/114/114
f 118/118/118 119/119/119 120/120/120
f 120/120/120 121/121/121 118/118/118
f 122/122/122 123/123/123 124/124/124
f 124/124/124 125/125/125 122/122/122
f 124/124/124 126/126/126 127/127/127
f 127/127/127 125/125/125 124/124/124
f 128/128/128 129/129/129 130/130/130
f 130/130/130 131/131/131 128/128/128
f 129/129/129 132/132/132 133/133/133
f 133/133/133 130/130/130 129/129/129
f 134/134/134 135/135/135 136/136/136
f 136/136/136 137/137/137 134/134/134
f 138/138/138 139/139/139 140/140/140
f 141/141/141 142/142/142 139/139/139
f 139/139/139 138/138/138 141/141/141
f 143/143/143 144/144/144 145/145/145
f 145/145/145 146/146/146 143/143/143
f 147/147/147 148/148/148 149/149/149
f 150/150/150 148/148/148 147/147/147
f 147/147/147 151/151/151 150/150/150
f 152/152/152 153/153/153 154/154/154
f 154/154/154 155/155/155 152/152/152
f 156/156/156 157/157/157 158/158/158
f 158/158/158 159/159/159 156/156/156
f 160/160/160 161/161/161 156/156/156
f 156/156/156 159/159/159 160/160/160
f 162/162/162 163/163/163 164/164/164
f 164/164/164 165/165/165 162/162/162
f 166/166/166 167/167/167 168/168/168
f 168/168/168 169/169/169 166/166/166
f 170/170/170 171/171/171 172/172/172
f 172/172/172 173/173/173 170/170/170
f 174/174/174 170/170/170 173/173/173
f 173/173/173 175/175/175 174/174/174
f 176/176/176 177/177/177 178/178/178
f 178/178/178 179/179/179 176/176/176
f 180/180/180 181/181/181 182/182/182
f 182/182/182 183/183/183 180/180/180
f 184/184/184 185/185/185 181/181/181
f 181/181/181 180/180/180 184/184/184
f 164/164/164 163/163/163 186/186/186
f 186/186/186 187/187/187 164/164/164
f 126/126/126 128/128/128 131/131/131
f 131/131/131 127/127/127 126/126/126
f 186/186/186 185/185/185 184/184/184
f 184/184/184 187/187/187 186/186/186
f 161/161/161 160/160/160 140/140/140
f 140/140/140 139/139/139 161/161/161
f 116/116/116 188/188/188 189/189/189
f 189/189/189 117/117/117 116/116/116
f 171/171/171 190/190/190 191/191/191
f 191/191/191 172/172/172 171/171/171
f 192/192/192 193/193/193 149/149/149
f 149/149/149 148/148/148 192/192/192
f 194/194/194 195/195/195 196/196/196
f 196/196/196 197/197/197 194/194/194
f 198/198/198 199/199/199 200/200/200
f 200/200/200 201/201/201 198/198/198
f 202/202/202 203/203/203 204/204/204
f 204/204/204 205/205/205 202/202/202
f 206/206/206 207/207/207 208/208/208
f 208/208/208 209/209/209 206/206/206
f 210/210/210 211/211/211 212/212/212
f 212/212/212 213/213/213 210/210/210
f 214/214/214 215/215/215 216/216/216
f 216/216/216 217/217/217 214/214/214
f 218/218/218 219/219/219 220/220/220
f 220/220/220 221/221/221 218/218/218
f 222/222/222 223/223/223 224/224/224
f 224/224/224 225/225/225 222/222/222
f 198/198/198 201/201/201 226/226/226
f 226/226/226 227/227/227 198/198/198
f 228/228/228 229/229/229 230/230/230
f 230/230/230 231/231/231 228/228/228
f 232/232/232 233/233/233 234/234/234
f 234/234/234 235/235/235 232/232/232
f 236/236/236 237/237/237 238/238/238
f 238/238/238 239/239/239 236/236/236
f 240/240/240 241/241/241 197/197/197
f 197/197/197 196/196/196 240/240/240
f 242/242/242 243/243/243 244/244/244
f 244/244/244 245/245/245 242/242/242
f 217/217/217 246/246/246 247/247/247
f 247/247/247 214/214/214 217/217/217
f 221/221/221 248/248/248 249/249/249
f 249/249/249 218/218/218 221/221/221
f 250/250/250 251/251/251 225/225/225
f 225/225/225 224/224/224 250/250/250
f 252/252/252 253/253/253 254/254/254
f 254/254/254 255/255/255 252/252/252
f 240/240/240 196/196/196 256/256/256
f 256/256/256 257/257/257 240/240/240
f 258/258/258 259/259/259 260/260/260
f 260/260/260 261/261/261 258/258/258
f 262/262/262 214/214/214 247/247/247
f 247/247/247 263/263/263 262/262/262
f 264/264/264 265/265/265 266/266/266
f 266/266/266 267/267/267 264/264/264
f 206/206/206 209/209/209 230/230/230
f 230/230/230 229/229/229 206/206/206
f 205/205/205 265/265/265 264/264/264
f 264/264/264 202/202/202 205/205/205
f 268/268/268 269/269/269 270/270/270
f 270/270/270 271/271/271 268/268/268
f 236/236/236 239/239/239 272/272/272
f 272/272/272 273/273/273 236/236/236
f 274/274/274 275/275/275 233/233/233
f 233/233/233 232/232/232 274/274/274
f 261/261/261 240/240/240 257/257/257
f 257/257/257 276/276/276 261/261/261
f 271/271/271 270/270/270 230/230/230
f 230/230/230 209/209/209 271/271/271
f 230/230/230 270/270/270 269/269/269
f 269/269/269 231/231/231 230/230/230
f 277/277/277 278/278/278 279/279/279
f 279/279/279 252/252/252 277/277/277
f 213/213/213 280/280/280 281/281/281
f 281/281/281 210/210/210 213/213/213
f 195/195/195 199/199/199 198/198/198
f 198/198/198 196/196/196 195/195/195
f 256/256/256 196/196/196 198/198/198
f 198/198/198 227/227/227 256/256/256
f 267/267/267 266/266/266 242/242/242
f 242/242/242 245/245/245 267/267/267
f 255/255/255 228/228/228 231/231/231
f 231/231/231 252/252/252 255/255/255
f 277/277/277 252/252/252 231/231/231
f 231/231/231 269/269/269 277/277/277
f 278/278/278 277/277/277 269/269/269
f 269/269/269 268/268/268 278/278/278
f 282/282/282 280/280/280 213/213/213
f 213/213/213 214/214/214 282/282/282
f 215/215/215 214/214/214 213/213/213
f 213/213/213 212/212/212 215/215/215
f 283/283/283 284/284/284 247/247/247
f 247/247/247 246/246/246 283/283/283
f 248/248/248 275/275/275 274/274/274
f 274/274/274 249/249/249 248/248/248
f 273/273/273 272/272/272 251/251/251
f 251/251/251 250/250/250 273/273/273
f 261/261/261 260/260/260 241/241/241
f 241/241/241 240/240/240 261/261/261
f 243/243/243 285/285/285 286/286/286
f 286/286/286 244/244/244 243/243/243
f 287/287/287 288/288/288 254/254/254
f 254/254/254 253/253/253 287/287/287
f 285/285/285 289/289/289 290/290/290
f 290/290/290 286/286/286 285/285/285
f 291/291/291 292/292/292 288/288/288
f 288/288/288 287/287/287 291/291/291
f 232/232/232 235/235/235 284/284/284
f 284/284/284 283/283/283 232/232/232
f 284/284/284 293/293/293 263/263/263
f 263/263/263 247/247/247 284/284/284
f 235/235/235 291/291/291 293/293/293
f 293/293/293 284/284/284 235/235/235
f 234/234/234 292/292/292 291/291/291
f 291/291/291 235/235/235 234/234/234
f 237/237/237 290/290/290 289/289/289
f 289/289/289 238/238/238 237/237/237
f 276/276/276 294/294/294 258/258/258
f 258/258/258 261/261/261 276/276/276
f 158/158/158 157/157/157 153/153/153
f 153/153/153 152/152/152 158/158/158
f 183/183/183 182/182/182 177/177/177
f 177/177/177 176/176/176 183/183/183
f 132/132/132 135/135/135 134/134/134
f 134/134/134 133/133/133 132/132/132
f 221/221/221 220/220/220 222/222/222
f 222/222/222 225/225/225 221/221/221
f 251/251/251 248/248/248 221/221/221
f 221/221/221 225/225/225 251/251/251
f 251/251/251 272/272/272 275/275/275
f 275/275/275 248/248/248 251/251/251
f 275/275/275 272/272/272 239/239/239
f 239/239/239 233/233/233 275/275/275
f 233/233/233 239/239/239 238/238/238
f 238/238/238 234/234/234 233/233/233
f 289/289/289 292/292/292 234/234/234
f 234/234/234 238/238/238 289/289/289
f 292/292/292 289/289/289 285/285/285
f 285/285/285 288/288/288 292/292/292
f 288/288/288 285/285/285 243/243/243
f 243/243/243 254/254/254 288/288/288
f 242/242/242 255/255/255 254/254/254
f 254/254/254 243/243/243 242/242/242
f 255/255/255 242/242/242 266/266/266
f 266/266/266 228/228/228 255/255/255
f 229/229/229 228/228/228 266/266/266
f 266/266/266 265/265/265 229/229/229
f 206/206/206 229/229/229 265/265/265
f 265/265/265 205/205/205 206/206/206
f 205/205/205 204/204/204 207/207/207
f 207/207/207 206/206/206 205/205/205
f 295/295/295 296/296/296 123/123/123
f 123/123/123 122/122/122 295/295/295
f 297/297/297 162/162/162 165/165/165
f 165/165/165 298/298/298 297/297/297
f 146/146/146 145/145/145 142/142/142
f 142/142/142 141/141/141 146/146/146
f 155/155/155 154/154/154 150/150/150
f 150/150/150 151/151/151 155/155/155
f 178/178/178 174/174/174 175/175/175
f 175/175/175 179/179/179 178/178/178
f 137/137/137 136/136/136 113/113/113
f 113/113/113 112/112/112 137/137/137
f 223/223/223 299/299/299 300/300/300
f 300/300/300 224/224/224 223/223/223
f 301/301/301 250/250/250 224/224/224
f 224/224/224 300/300/300 301/301/301
f 302/302/302 273/273/273 250/250/250
f 250/250/250 301/301/301 302/302/302
f 259/259/259 236/236/236 273/273/273
f 273/273/273 302/302/302 259/259/259
f 259/259/259 258/258/258 237/237/237
f 237/237/237 236/236/236 259/259/259
f 258/258/258 294/294/294 290/290/290
f 290/290/290 237/237/237 258/258/258
f 286/286/286 290/290/290 294/294/294
f 294/294/294 303/303/303 286/286/286
f 244/244/244 286/286/286 303/303/303
f 303/303/303 304/304/304 244/244/244
f 245/245/245 244/244/244 304/304/304
f 304/304/304 305/305/305 245/245/245
f 306/306/306 267/267/267 245/245/245
f 245/245/245 305/305/305 306/306/306
f 307/307/307 264/264/264 267/267/267
f 267/267/267 306/306/306 307/307/307
f 202/202/202 264/264/264 307/307/307
f 307/307/307 308/308/308 202/202/202
f 308/308/308 309/309/309 203/203/203
f 203/203/203 202/202/202 308/308/308
f 188/188/188 119/119/119 118/118/118
f 118/118/118 189/189/189 188/188/188
f 191/191/191 190/190/190 166/166/166
f 166/166/166 169/169/169 191/191/191
f 192/192/192 144/144/144 143/143/143
f 143/143/143 193/193/193 192/192/192
f 310/310/310 311/311/311 128/128/128
f 128/128/128 126/126/126 310/310/310
f 128/128/128 311/311/311 312/312/312
f 312/312/312 129/129/129 128/128/128
f 129/129/129 312/312/312 313/313/313
f 313/313/313 132/132/132 129/129/129
f 132/132/132 313/313/313 314/314/314
f 314/314/314 135/135/135 132/132/132
f 136/136/136 135/135/135 314/314/314
f 314/314/314 315/315/315 136/136/136
f 113/113/113 136/136/136 315/315/315
f 315/315/315 316/316/316 113/113/113
f 114/114/114 113/113/113 316/316/316
f 316/316/316 317/317/317 114/114/114
f 114/114/114 317/317/317 318/318/318
f 318/318/318 116/116/116 114/114/114
f 188/188/188 116/116/116 318/318/318
f 318/318/318 319/319/319 188/188/188
f 188/188/188 319/319/319 320/320/320
f 320/320/320 119/119/119 188/188/188
f 120/120/120 119/119/119 320/320/320
f 320/320/320 321/321/321 120/120/120
f 296/296/296 322/322/322 323/323/323
f 323/323/323 123/123/123 296/296/296
f 124/124/124 123/123/123 323/323/323
f 323/323/323 324/324/324 124/124/124
f 124/124/124 324/324/324 310/310/310
f 310/310/310 126/126/126 124/124/124
f 187/187/187 184/184/184 325/325/325
f 325/325/325 326/326/326 187/187/187
f 164/164/164 187/187/187 326/326/326
f 326/326/326 327/327/327 164/164/164
f 164/164/164 327/327/327 328/328/328
f 328/328/328 165/165/165 164/164/164
f 298/298/298 165/165/165 328/328/328
f 328/328/328 329/329/329 298/298/298
f 168/168/168 330/330/330 331/331/331
f 331/331/331 169/169/169 168/168/168
f 191/191/191 169/169/169 331/331/331
f 331/331/331 332/332/332 191/191/191
f 191/191/191 332/332/332 333/333/333
f 333/333/333 172/172/172 191/191/191
f 173/173/173 172/172/172 333/333/333
f 333/333/333 334/334/334 173/173/173
f 335/335/335 175/175/175 173/173/173
f 173/173/173 334/334/334 335/335/335
f 336/336/336 179/179/179 175/175/175
f 175/175/175 335/335/335 336/336/336
f 179/179/179 336/336/336 337/337/337
f 337/337/337 176/176/176 179/179/179
f 183/183/183 176/176/176 337/337/337
f 337/337/337 338/338/338 183/183/183
f 180/180/180 183/183/183 338/338/338
f 338/338/338 339/339/339 180/180/180
f 184/184/184 180/180/180 339/339/339
f 339/339/339 325/325/325 184/184/184
f 326/326/326 325/325/325 311/311/311
f 311/311/311 310/310/310 326/326/326
f 310/310/310 324/324/324 327/327/327
f 327/327/327 326/326/326 310/310/310
f 323/323/323 328/328/328 327/327/327
f 327/327/327 324/324/324 323/323/323
f 322/322/322 329/329/329 328/328/328
f 328/328/328 323/323/323 322/322/322
f 320/320/320 331/331/331 330/330/330
f 330/330/330 321/321/321 320/320/320
f 320/320/320 319/319/319 332/332/332
f 332/332/332 331/331/331 320/320/320
f 318/318/318 333/333/333 332/332/332
f 332/332/332 319/319/319 318/318/318
f 317/317/317 334/334/334 333/333/333
f 333/333/333 318/318/318 317/317/317
f 316/316/316 335/335/335 334/334/334
f 334/334/334 317/317/317 316/316/316
f 315/315/315 336/336/336 335/335/335
f 335/335/335 316/316/316 315/315/315
f 314/314/314 337/337/337 336/336/336
f 336/336/336 315/315/315 314/314/314
f 314/314/314 313/313/313 338/338/338
f 338/338/338 337/337/337 314/314/314
f 313/313/313 312/312/312 339/339/339
f 339/339/339 338/338/338 313/313/313
f 312/312/312 311/311/311 325/325/325
f 325/325/325 339/339/339 312/312/312