mtllib 133936505.mtl
o Mesh

v -0.019509000703692436 -0.36764395236968994 -0.2385540008544922
v 0.11529599875211716 -0.3672950267791748 -0.19985300302505493
v 0.13317599892616272 -0.47326600551605225 -0.2692149877548218
v -0.019471000880002975 -0.4733409881591797 -0.32806798815727234
v 0.24053500592708588 -0.3717449903488159 -0.05960400030016899
v 0.25371500849723816 -0.4732910394668579 -0.09320099651813507
v 0.15253299474716187 -0.05915498733520508 -0.23858599364757538
v 0.19540099799633026 -0.018568992614746094 -0.3273780047893524
v 0.344743013381958 0.0010120272636413574 -0.11830099672079086
v 0.344743013381958 0.0010120272636413574 -0.11830099672079086
v 0.2935650050640106 -0.04363095760345459 -0.0829479992389679
v 0.15253299474716187 -0.05915498733520508 -0.23858599364757538
v 0.15253299474716187 -0.05915498733520508 -0.23858599364757538
v -0.019509000703692436 -0.06196403503417969 -0.27415400743484497
v -0.019509000703692436 -0.0222170352935791 -0.3743019998073578
v -0.019509000703692436 -0.0222170352935791 -0.3743019998073578
v 0.19540099799633026 -0.018568992614746094 -0.3273780047893524
v 0.15253299474716187 -0.05915498733520508 -0.23858599364757538
v 0.13013100624084473 -0.21412503719329834 -0.21359999477863312
v 0.14101600646972656 -0.1192549467086792 -0.2438659965991974
v 0.2731040120124817 -0.14284205436706543 -0.08468399941921234
v 0.2794550061225891 -0.20148396492004395 -0.07628300040960312
v -0.019509000703692436 -0.21159696578979492 -0.24689500033855438
v -0.019509000703692436 -0.1190340518951416 -0.2779589891433716
v 0.2796570062637329 -0.371783971786499 0.08547300100326538
v 0.3023490011692047 -0.4732940196990967 0.08983799815177917
v 0.2229039967060089 -0.39087605476379395 0.24142299592494965
v 0.2603110074996948 -0.47329604625701904 0.2823050022125244
v 0.1259250044822693 -0.3908449411392212 0.39892399311065674
v 0.15154999494552612 -0.47328901290893555 0.47161200642585754
v -0.019509000703692436 -0.3908179998397827 0.4478130042552948
v -0.019471000880002975 -0.47328901290893555 0.5317710041999817
v -0.019509000703692436 -0.058753013610839844 0.45288199186325073
v 0.16037000715732574 -0.06280601024627686 0.402675986289978
v 0.18041899800300598 -0.012279033660888672 0.4625430107116699
v -0.019509000703692436 -0.0212860107421875 0.5166239738464355
v 0.291034996509552 -0.04676103591918945 0.2729560136795044
v 0.3456360101699829 0.0023850202560424805 0.2951200008392334
v 0.3388569951057434 -0.04208505153656006 0.0690390020608902
v 0.39809200167655945 0.006013989448547363 0.07849100232124329
v 0.3388569951057434 -0.04208505153656006 0.0690390020608902
v 0.2935650050640106 -0.04363095760345459 -0.0829479992389679
v 0.344743013381958 0.0010120272636413574 -0.11830099672079086
v 0.39809200167655945 0.006013989448547363 0.07849100232124329
v 0.13869300484657288 -0.2041100263595581 0.39817601442337036
v 0.1490830034017563 -0.11952400207519531 0.38253000378608704
v -0.019509000703692436 -0.11951494216918945 0.4321820139884949
v -0.019509000703692436 -0.20404398441314697 0.4467160105705261
v 0.2773039937019348 -0.20193099975585938 0.23193499445915222
v 0.2708599865436554 -0.14285695552825928 0.241908997297287
v 0.31947898864746094 -0.2014780044555664 0.06602799892425537
v 0.3152649998664856 -0.14286494255065918 0.06300099939107895
v 0.12889300286769867 -0.34401702880859375 0.40189799666404724
v -0.019509000703692436 -0.3439899682998657 0.4551129937171936
v 0.26236099004745483 -0.3527050018310547 0.23544000089168549
v 0.16234000027179718 0.21007400751113892 -0.3584209978580475
v -0.019589999690651894 0.391044020652771 0.021422000601887703
v 0.3427329957485199 0.248183012008667 -0.12233799695968628
v -0.019804000854492188 0.20077598094940186 -0.3934659957885742
v 0.15927499532699585 0.2910640239715576 0.40533000230789185
v -0.019589999690651894 0.29524898529052734 0.4570330083370209
v 0.3413029909133911 0.2789350152015686 0.2554830014705658
v 0.38928499817848206 0.2637590169906616 0.06798999756574631
v 0.1193000003695488 -0.5246100425720215 -0.24297800660133362
v -0.019509000703692436 -0.6466009616851807 0.060384999960660934
v -0.019509000703692436 -0.5245809555053711 -0.2994300127029419
v 0.22837699949741364 -0.5246100425720215 -0.07947500050067902
v 0.27340298891067505 -0.524603009223938 0.09170900285243988
v 0.23514899611473083 -0.524603009223938 0.270114004611969
v 0.13684900104999542 -0.524603009223938 0.4442099928855896
v -0.019509000703692436 -0.6466009616851807 0.060384999960660934
v 0.23514899611473083 -0.524603009223938 0.270114004611969
v -0.019509000703692436 -0.5246100425720215 0.49971699714660645
v -0.019509000703692436 -0.6466009616851807 0.060384999960660934
v 0.13684900104999542 -0.524603009223938 0.4442099928855896
v -0.17211900651454926 -0.47326600551605225 -0.2692149877548218
v -0.15431399643421173 -0.3672950267791748 -0.19985300302505493
v -0.29342299699783325 -0.4732910394668579 -0.09320099651813507
v -0.2776859998703003 -0.36741697788238525 -0.05960400030016899
v -0.19155099987983704 -0.05915498733520508 -0.23858700692653656
v -0.3325830101966858 -0.05460500717163086 -0.08294899761676788
v -0.37382999062538147 -0.009961962699890137 -0.11830200254917145
v -0.37382999062538147 -0.009961962699890137 -0.11830200254917145
v -0.23441900312900543 -0.018568992614746094 -0.3273789882659912
v -0.19155099987983704 -0.05915498733520508 -0.23858700692653656
v -0.19155099987983704 -0.05915498733520508 -0.23858700692653656
v -0.23441900312900543 -0.018568992614746094 -0.3273789882659912
v -0.019509000703692436 -0.0222170352935791 -0.3743019998073578
v -0.019509000703692436 -0.0222170352935791 -0.3743019998073578
v -0.019509000703692436 -0.06196403503417969 -0.27415400743484497
v -0.19155099987983704 -0.05915498733520508 -0.23858700692653656
v -0.1691489964723587 -0.20376205444335938 -0.21359999477863312
v -0.29810699820518494 -0.17707395553588867 -0.0762839987874031
v -0.3121219873428345 -0.11952102184295654 -0.08468499779701233
v -0.18003399670124054 -0.1192549467086792 -0.2438659965991974
v -0.3420569896697998 -0.4732940196990967 0.08991800248622894
v -0.31680798530578613 -0.36745595932006836 0.08546099811792374
v -0.3420569896697998 -0.4732940196990967 0.08991800248622894
v -0.3000189960002899 -0.47329604625701904 0.28223198652267456
v -0.2653389871120453 -0.39087605476379395 0.24118800461292267
v -0.31680798530578613 -0.36745595932006836 0.08546099811792374
v -0.19049300253391266 -0.47328901290893555 0.47161099314689636
v -0.16494299471378326 -0.3908449411392212 0.39892300963401794
v -0.21943700313568115 -0.012279033660888672 0.46254199743270874
v -0.19938799738883972 -0.06280601024627686 0.40267500281333923
v -0.3747220039367676 -0.011332988739013672 0.2951189875602722
v -0.3300530016422272 -0.06047797203063965 0.2729550004005432
v -0.3300530016422272 -0.06047797203063965 0.2729550004005432
v -0.3747220039367676 -0.011332988739013672 0.2951189875602722
v -0.4271790087223053 0.006013989448547363 0.0784899964928627
v -0.3778750002384186 -0.04208505153656006 0.06903800368309021
v -0.3778750002384186 -0.04208505153656006 0.06903800368309021
v -0.4271790087223053 0.006013989448547363 0.0784899964928627
v -0.37382999062538147 -0.009961962699890137 -0.11830200254917145
v -0.3325830101966858 -0.05460500717163086 -0.08294899761676788
v -0.17771099507808685 -0.2041100263595581 0.3981750011444092
v -0.18810200691223145 -0.11952400207519531 0.38252899050712585
v -0.2959569990634918 -0.1775209903717041 0.2306320071220398
v -0.30987799167633057 -0.11953699588775635 0.24207299947738647
v -0.35428398847579956 -0.11954498291015625 0.06300000101327896
v -0.33813199400901794 -0.17706799507141113 0.06602700054645538
v -0.33813199400901794 -0.17706799507141113 0.06602700054645538
v -0.35428398847579956 -0.11954498291015625 0.06300000101327896
v -0.16791099309921265 -0.34401702880859375 0.40189701318740845
v -0.2942270040512085 -0.34404897689819336 0.235834002494812
v -0.20109300315380096 0.21074700355529785 -0.35447201132774353
v -0.38543999195098877 0.248183012008667 -0.12233900278806686
v -0.19845500588417053 0.2910640239715576 0.40532898902893066
v -0.3840090036392212 0.2789350152015686 0.2554819881916046
v -0.43199101090431213 0.2637590169906616 0.06798899918794632
v -0.15831799805164337 -0.5246100425720215 -0.24297800660133362
v -0.2673949897289276 -0.5246100425720215 -0.07971800118684769
v -0.3124209940433502 -0.524603009223938 0.0917079970240593
v -0.274167001247406 -0.524603009223938 0.2701129913330078
v -0.1758670061826706 -0.524603009223938 0.4442099928855896
v -0.274167001247406 -0.524603009223938 0.2701129913330078
v -0.019509000703692436 -0.6466009616851807 0.060384999960660934
v -0.019509000703692436 -0.5246100425720215 0.49971699714660645
v -0.1758670061826706 -0.524603009223938 0.4442099928855896
v -0.019509000703692436 -0.6466009616851807 0.060384999960660934
v -0.019509000703692436 -0.06196403503417969 -0.27415400743484497
v 0.15253299474716187 -0.05915498733520508 -0.23858599364757538
v 0.2935650050640106 -0.04363095760345459 -0.0829479992389679
v -0.19155099987983704 -0.05915498733520508 -0.23858700692653656
v 0.12138299643993378 -0.2898470163345337 -0.2183219939470291
v -0.019509000703692436 -0.2898859977722168 -0.25436899065971375
v 0.23643499612808228 -0.297186017036438 -0.06509599834680557
v 0.24796199798583984 -0.230584979057312 -0.07030399888753891
v 0.286994993686676 -0.23068296909332275 0.07001399993896484
v 0.275518000125885 -0.2972170114517212 0.07644400000572205
v 0.24665099382400513 -0.23076295852661133 0.22905899584293365
v 0.23679399490356445 -0.29722094535827637 0.2342360019683838
v 0.13186100125312805 -0.29718899726867676 0.3827410042285919
v -0.019509000703692436 -0.2971609830856323 0.43183401226997375
v -0.17087900638580322 -0.29718899726867676 0.38273999094963074
v -0.277521014213562 -0.29722094535827637 0.234592005610466
v -0.3283739984035492 -0.2522280216217041 0.22727499902248383
v -0.3162449896335602 -0.2972170114517212 0.07705599814653397
v -0.363429993391037 -0.25216495990753174 0.06993900239467621
v -0.3162449896335602 -0.2972170114517212 0.07705599814653397
v -0.363429993391037 -0.25216495990753174 0.06993900239467621
v -0.3296779990196228 -0.2520630359649658 -0.07029899954795837
v -0.27716100215911865 -0.297186017036438 -0.06509699672460556
v -0.16040100157260895 -0.2898470163345337 -0.2183219939470291
v -0.20109300315380096 0.21074700355529785 -0.35447201132774353
v -0.019804000854492188 0.20077598094940186 -0.3934659957885742
v -0.019509000703692436 -0.0222170352935791 -0.3743019998073578
v -0.23441900312900543 -0.018568992614746094 -0.3273789882659912
v -0.38543999195098877 0.248183012008667 -0.12233900278806686
v -0.43199101090431213 0.2637590169906616 0.06798899918794632
v -0.3840090036392212 0.2789350152015686 0.2554819881916046
v -0.43199101090431213 0.2637590169906616 0.06798899918794632
v -0.19845500588417053 0.2910640239715576 0.40532898902893066
v -0.019589999690651894 0.29524898529052734 0.4570330083370209
v 0.15927499532699585 0.2910640239715576 0.40533000230789185
v 0.3413029909133911 0.2789350152015686 0.2554830014705658
v 0.38928499817848206 0.2637590169906616 0.06798999756574631
v 0.3427329957485199 0.248183012008667 -0.12233799695968628
v 0.344743013381958 0.0010120272636413574 -0.11830099672079086
v 0.16234000027179718 0.21007400751113892 -0.3584209978580475
v 0.19540099799633026 -0.018568992614746094 -0.3273780047893524
v 0.1193000003695488 -0.5246100425720215 -0.24297800660133362
v 0.22837699949741364 -0.5246100425720215 -0.07947500050067902
v 0.27340298891067505 -0.524603009223938 0.09170900285243988
v 0.23514899611473083 -0.524603009223938 0.270114004611969
v 0.13684900104999542 -0.524603009223938 0.4442099928855896
v -0.019509000703692436 -0.5246100425720215 0.49971699714660645
v -0.1758670061826706 -0.524603009223938 0.4442099928855896
v -0.274167001247406 -0.524603009223938 0.2701129913330078
v -0.3124209940433502 -0.524603009223938 0.0917079970240593
v -0.3124209940433502 -0.524603009223938 0.0917079970240593
v -0.2673949897289276 -0.5246100425720215 -0.07971800118684769
v -0.15831799805164337 -0.5246100425720215 -0.24297800660133362
v -0.019509000703692436 -0.5245809555053711 -0.2994300127029419
v 0.23588499426841736 -0.8500139713287354 0.37525999546051025
v 0.17558400332927704 -0.6854540109634399 0.3292180001735687
v 0.05902399867773056 -0.6821169853210449 0.4398069977760315
v 0.0683170035481453 -0.8646689653396606 0.5090190172195435
v -0.08966899663209915 -0.6821470260620117 0.45610499382019043
v -0.10192400217056274 -0.8673590421676636 0.5256069898605347
v 0.12676100432872772 -0.9231230020523071 -0.7713279724121094
v 0.12452299892902374 -0.8199280500411987 -0.7586349844932556
v 0.258650004863739 -0.8175790309906006 -0.6580169796943665
v 0.27747398614883423 -0.924312949180603 -0.6701210141181946
v 0.3551050126552582 -0.8073669672012329 -0.38982701301574707
v 0.3763920068740845 -0.9280639886856079 -0.3826740086078644
v 0.3366590142250061 -0.719836950302124 -0.12286499887704849
v 0.246628999710083 -0.694782018661499 0.20087699592113495
v 0.32123100757598877 -0.8086780309677124 0.16436700522899628
v 0.05796299874782562 -0.9914870262145996 0.49559199810028076
v -0.0318479984998703 -0.9914870262145996 0.12818999588489532
v 0.19381499290466309 -0.9914870262145996 0.35171499848365784
v -0.09904500097036362 -0.9914870262145996 0.5092809796333313
v -0.02099199965596199 -0.9915260076522827 0.06661800295114517
v 0.2744159996509552 -0.9914480447769165 0.11870399862527847
v 0.2595770061016083 -0.9914870262145996 0.20810900628566742
v 0.20998699963092804 -0.6389470100402832 -0.31651198863983154
v 0.28924301266670227 -0.7725809812545776 -0.14611700177192688
v 0.20344200730323792 -0.6833120584487915 -0.325886994600296
v 0.05717400088906288 -0.6676830053329468 -0.38446399569511414
v 0.06034199893474579 -0.5964239835739136 -0.40945398807525635
v -0.021038999781012535 -0.9565800428390503 0.06688400357961655
v 0.04502899944782257 -0.9914870262145996 -0.3078010082244873
v 0.25850600004196167 -0.9914870262145996 -0.27418699860572815
v 0.235835999250412 -0.7159479856491089 -0.36295101046562195
v 0.06731899827718735 -0.6926740407943726 -0.43573200702667236
v 0.2929460108280182 -0.9913109540939331 0.029292000457644463
v 0.27745598554611206 -0.9565310478210449 0.11950799822807312
v 0.3630180060863495 -0.92261803150177 -0.19950300455093384
v 0.33227500319480896 -0.8043010234832764 -0.22105400264263153
v 0.31317099928855896 -0.9133579730987549 -0.0498029999434948
v 0.28742000460624695 -0.9914870262145996 -0.6651470065116882
v 0.37613001465797424 -0.9914870262145996 -0.3827440142631531
v 0.3601340055465698 -0.9914870262145996 -0.1994599997997284
v 0.12670600414276123 -0.9914870262145996 -0.7710149884223938
v 0.1118910014629364 -0.7463469505310059 -0.6869969964027405
v 0.2595680058002472 -0.7520190477371216 -0.571802020072937
v 0.27745598554611206 -0.9565310478210449 0.11950799822807312
v 0.2595770061016083 -0.9914870262145996 0.20810900628566742
v 0.2744159996509552 -0.9914480447769165 0.11870399862527847
v 0.2681869864463806 -0.8691519498825073 0.1554879993200302
v 0.19138899445533752 -0.8985179662704468 0.3596929907798767
v 0.19381499290466309 -0.9914870262145996 0.35171499848365784
v 0.05689899995923042 -0.9231220483779907 0.4904170036315918
v 0.05796299874782562 -0.9914870262145996 0.49559199810028076
v -0.09822700172662735 -0.9265170097351074 0.5046420097351074
v -0.09904500097036362 -0.9914870262145996 0.5092809796333313
v 0.12670600414276123 -0.9914870262145996 -0.7710149884223938
v 0.28742000460624695 -0.9914870262145996 -0.6651470065116882
v 0.37613001465797424 -0.9914870262145996 -0.3827440142631531
v 0.3601340055465698 -0.9914870262145996 -0.1994599997997284
v 0.2929460108280182 -0.9913109540939331 0.029292000457644463
v 0.04713800176978111 -0.5680129528045654 -0.3120020031929016
v 0.17702600359916687 -0.5876859426498413 -0.2316419929265976
v 0.04196200147271156 -0.5135530233383179 0.4394330084323883
v -0.08957699686288834 -0.5136100053787231 0.45558199286460876
v 0.15669000148773193 -0.5133910179138184 0.2897599935531616
v 0.20958399772644043 -0.5131709575653076 0.1731639951467514
v 0.2652600109577179 -0.6363010406494141 -0.05983300134539604
v 0.2558720111846924 -0.7585779428482056 -0.44422098994255066
v 0.08090899884700775 -0.7249330282211304 -0.5115630030632019
v 0.09780299663543701 -0.7217240333557129 -0.607230007648468
v -0.3450230062007904 -0.84906005859375 0.2723569869995117
v -0.25622498989105225 -0.859063982963562 0.45179399847984314
v -0.22382000088691711 -0.6821169853210449 0.3899340033531189
v -0.2828570008277893 -0.6822710037231445 0.2530770003795624
v -0.10192400217056274 -0.8673590421676636 0.5256069898605347
v -0.08966899663209915 -0.6821470260620117 0.45610499382019043
v -0.04947799816727638 -0.924312949180603 -0.7277719974517822
v -0.035930000245571136 -0.8175790309906006 -0.7099589705467224
v -0.23943699896335602 -0.9309459924697876 -0.49126100540161133
v -0.21829399466514587 -0.7892659902572632 -0.49093198776245117
v -0.29576998949050903 -0.6810070276260376 0.10523699969053268
v -0.3506520092487335 -0.8151639699935913 0.06624499708414078
v -0.24190300703048706 -0.9914870262145996 0.4427169859409332
v -0.3203530013561249 -0.9914870262145996 0.2610529959201813
v -0.3330329954624176 -0.9914870262145996 0.10361599922180176
v -0.3163979947566986 -0.9914480447769165 0.014526999555528164
v -0.242139995098114 -0.7726900577545166 -0.21845899522304535
v -0.2750970125198364 -0.7436909675598145 -0.18277999758720398
v -0.10493399947881699 -0.6286760568618774 -0.3782060146331787
v -0.09972400218248367 -0.6738829612731934 -0.3840180039405823
v -0.16707099974155426 -0.9914870262145996 -0.34922799468040466
v -0.11235799640417099 -0.7141940593719482 -0.42434701323509216
v -0.31953099370002747 -0.9565310478210449 0.01424300018697977
v -0.30323100090026855 -0.9913109540939331 -0.07582999765872955
v -0.28807199001312256 -0.9036840200424194 -0.15731799602508545
v -0.25783899426460266 -0.7934410572052002 -0.30595898628234863
v -0.2961840033531189 -0.9244799613952637 -0.3157379925251007
v -0.2988460063934326 -0.9914870262145996 -0.315654993057251
v -0.24047300219535828 -0.9914870262145996 -0.49146801233291626
v -0.06052599847316742 -0.9914870262145996 -0.7264999747276306
v -0.06627999991178513 -0.7520190477371216 -0.6292579770088196
v -0.31953099370002747 -0.9565310478210449 0.01424300018697977
v -0.3163979947566986 -0.9914480447769165 0.014526999555528164
v -0.3330329954624176 -0.9914870262145996 0.10361599922180176
v -0.3208020031452179 -0.8985179662704468 0.26937898993492126
v -0.3225570023059845 -0.8551679849624634 0.058997999876737595
v -0.3203530013561249 -0.9914870262145996 0.2610529959201813
v -0.23913300037384033 -0.9175169467926025 0.43821901082992554
v -0.24190300703048706 -0.9914870262145996 0.4427169859409332
v -0.09822700172662735 -0.9265170097351074 0.5046420097351074
v -0.09904500097036362 -0.9914870262145996 0.5092809796333313
v -0.06052599847316742 -0.9914870262145996 -0.7264999747276306
v -0.24047300219535828 -0.9914870262145996 -0.49146801233291626
v -0.2988460063934326 -0.9914870262145996 -0.315654993057251
v -0.30323100090026855 -0.9913109540939331 -0.07582999765872955
v -0.10210400074720383 -0.583143949508667 -0.28357699513435364
v -0.08957699686288834 -0.5136100053787231 0.45558199286460876
v -0.2016330063343048 -0.5143229961395264 0.3898470103740692
v -0.26427799463272095 -0.5133910179138184 0.21553200483322144
v -0.27410298585891724 -0.5131709575653076 0.08787699788808823
v -0.24016700685024261 -0.5084290504455566 -0.0524739995598793
v -0.2377769947052002 -0.6475239992141724 -0.12172000110149384
v -0.10644099861383438 -0.7585779428482056 -0.508105993270874
v 0.1448660045862198 -0.4822460412979126 -0.1441659927368164
v 0.20394699275493622 -0.5084290504455566 0.021754000335931778
v -0.10475499927997589 -0.4822460412979126 -0.18818099796772003
v 0.03231799975037575 -0.482185959815979 -0.23571400344371796
v 0.2786180078983307 1.1140899658203125 0.21844300627708435
v 0.14442799985408783 1.1140899658203125 0.35819199681282043
v 0.15648500621318817 0.9548079967498779 0.35352298617362976
v 0.28974801301956177 0.9553430080413818 0.21575100719928741
v -0.038711000233888626 1.1140910387039185 0.40934500098228455
v -0.02741199918091297 0.9546170234680176 0.40394800901412964
v -0.2217240035533905 1.1140910387039185 0.35819199681282043
v -0.21052199602127075 0.9575629830360413 0.35703200101852417
v -0.3555769920349121 1.1140910387039185 0.21844300627708435
v -0.39966100454330444 0.9656909704208374 0.23086999356746674
v -0.40411901473999023 1.1140910387039185 0.027540000155568123
v -0.46055498719215393 0.9566410183906555 0.02725600078701973
v -0.3542889952659607 1.1140910387039185 -0.1633629947900772
v -0.40497899055480957 0.9610949754714966 -0.1718679964542389
v -0.20747800171375275 0.9609450101852417 -0.3133389949798584
v -0.2198459953069687 1.1140910387039185 -0.30311599373817444
v -0.03708900138735771 1.1140899658203125 -0.3542670011520386
v -0.024118000641465187 0.9576230049133301 -0.39288800954818726
v 0.14630599319934845 1.1140899658203125 -0.30311599373817444
v 0.159279003739357 0.957302987575531 -0.31012898683547974
v 0.2799080014228821 1.1140899658203125 -0.16336199641227722
v 0.2912999987602234 0.9567679762840271 -0.1599079966545105
v 0.32819798588752747 1.1140899658203125 0.02754100039601326
v 0.33907800912857056 0.9560679793357849 0.02753099985420704
v 0.30391600728034973 0.5819339752197266 -0.14542800188064575
v 0.2731640040874481 0.47480499744415283 -0.1368270069360733
v 0.1666959971189499 0.4822329878807068 -0.278344988822937
v 0.17010200023651123 0.5852439999580383 -0.3090299963951111
v -0.012593000195920467 0.4819149971008301 -0.3581399917602539
v -0.015328999608755112 0.587253987789154 -0.3912839889526367
v -0.20725299417972565 0.5153520107269287 -0.2883929908275604
v -0.34580498933792114 0.4999430179595947 -0.14087599515914917
v -0.3356269896030426 0.5819339752197266 -0.14542900025844574
v -0.1987919956445694 0.5852439999580383 -0.30903100967407227
v -0.34580498933792114 0.4999430179595947 -0.14087599515914917
v -0.393775999546051 0.49842602014541626 0.036970000714063644
v -0.3785730004310608 0.577564001083374 0.03555700182914734
v -0.3356269896030426 0.5819339752197266 -0.14542900025844574
v -0.3402700126171112 0.5019879937171936 0.20805899798870087
v -0.3234950006008148 0.5730440020561218 0.19973300397396088
v -0.2069139927625656 0.506322979927063 0.3035080134868622
v -0.2010660022497177 0.5697339773178101 0.2667500078678131
v -0.013763999566435814 0.4508510231971741 0.38701099157333374
v -0.0176170002669096 0.5685240030288696 0.31648901104927063
v 0.16307400166988373 0.45209401845932007 0.33990898728370667
v 0.16853399574756622 0.5697339773178101 0.2667509913444519
v 0.29043900966644287 0.4430220127105713 0.21453599631786346
v 0.30333301424980164 0.5730440020561218 0.19973400235176086
v 0.3128510117530823 0.4707639813423157 0.038290999829769135
v 0.35035601258277893 0.577564001083374 0.03555800020694733
v 0.2786180078983307 1.1140899658203125 0.21844300627708435
v -0.03483299911022186 1.1811209917068481 0.0279339998960495
v 0.14442799985408783 1.1140899658203125 0.35819199681282043
v -0.038711000233888626 1.1140910387039185 0.40934500098228455
v -0.2217240035533905 1.1140910387039185 0.35819199681282043
v -0.3555769920349121 1.1140910387039185 0.21844300627708435
v -0.40411901473999023 1.1140910387039185 0.027540000155568123
v -0.3542889952659607 1.1140910387039185 -0.1633629947900772
v -0.2198459953069687 1.1140910387039185 -0.30311599373817444
v -0.03708900138735771 1.1140899658203125 -0.3542670011520386
v 0.14630599319934845 1.1140899658203125 -0.30311599373817444
v 0.2799080014228821 1.1140899658203125 -0.16336199641227722
v 0.32819798588752747 1.1140899658203125 0.02754100039601326
v 0.2862739861011505 0.3087080121040344 -0.1214120015501976
v 0.26039600372314453 0.2839239835739136 -0.10709899663925171
v 0.15288500487804413 0.2866640090942383 -0.22864599525928497
v 0.15761500597000122 0.3520299792289734 -0.24371500313282013
v -0.010848999954760075 0.2865239977836609 -0.2917490005493164
v -0.011141999624669552 0.3529070019721985 -0.31058499217033386
v -0.31835800409317017 0.3254550099372864 -0.12126799672842026
v -0.18024300038814545 0.3520299792289734 -0.24371600151062012
v -0.17487700283527374 0.2866640090942383 -0.22864699363708496
v -0.29490000009536743 0.29925501346588135 -0.10691600292921066
v -0.3641299903392792 0.3246060013771057 0.04974599927663803
v -0.31835800409317017 0.3254550099372864 -0.12126799672842026
v -0.29490000009536743 0.29925501346588135 -0.10691600292921066
v -0.339356005191803 0.3000349998474121 0.05342499911785126
v -0.31536099314689636 0.3230310082435608 0.21186000108718872
v -0.2952210009098053 0.29995501041412354 0.2003840059041977
v -0.17596900463104248 0.2882239818572998 0.33894699811935425
v -0.18166300654411316 0.36739999055862427 0.35275501012802124
v -0.011903000064194202 0.28835397958755493 0.3816309869289398
v -0.012490999884903431 0.3669000267982483 0.3972780108451843
v 0.15686500072479248 0.36739999055862427 0.35275599360466003
v 0.15232400596141815 0.2882239818572998 0.33894801139831543
v 0.28880399465560913 0.30628401041030884 0.21171699464321136
v 0.26034000515937805 0.28462398052215576 0.20020100474357605
v 0.30430200695991516 0.2847040295600891 0.05324200168251991
v 0.33322998881340027 0.30785900354385376 0.049601998180150986
v 0.14028799533843994 0.15441399812698364 -0.18348099291324615
v -0.010498999617993832 0.15441399812698364 -0.27692899107933044
v 0.22322799265384674 0.15438401699066162 -0.09078200161457062
v 0.2594279944896698 0.15438401699066162 0.06053600087761879
v 0.2232470065355301 0.1543939709663391 0.1895740032196045
v 0.12415599822998047 0.1543939709663391 0.3006120026111603
v -0.01114100031554699 0.1543939709663391 0.3400050103664398
v -0.14632700383663177 0.1543939709663391 0.3006109893321991
v -0.24548600614070892 0.1543939709663391 0.1895730048418045
v -0.28192099928855896 0.15438401699066162 0.0605349987745285
v -0.24537800252437592 0.15438401699066162 -0.0907829999923706
v -0.24537800252437592 0.15438401699066162 -0.0907829999923706
v -0.16150300204753876 0.15441399812698364 -0.18348200619220734
v -0.20627500116825104 0.7489240169525146 0.3596619963645935
v -0.022161999717354774 0.7481240034103394 0.4102270007133484
v -0.019450999796390533 0.7605540156364441 -0.4056839942932129
v -0.2037300020456314 0.7592139840126038 -0.3223229944705963
v -0.3542889952659607 1.1140910387039185 -0.1633629947900772
v -0.40497899055480957 0.9610949754714966 -0.1718679964542389
v -0.39743098616600037 0.7570239901542664 -0.15297800302505493
v -0.39743098616600037 0.7570239901542664 -0.15297800302505493
v -0.44763100147247314 0.7541239857673645 0.032634999603033066
v -0.39868101477622986 0.751114010810852 0.22148199379444122
v 0.16955600678920746 0.7489240169525146 0.3596619963645935
v 0.3049260079860687 0.751114010810852 0.2214830070734024
v 0.354763001203537 0.7541239857673645 0.03263600170612335
v 0.30590298771858215 0.7570239901542664 -0.15297700464725494
v 0.17162899672985077 0.7592139840126038 -0.3223220109939575
v -0.18481899797916412 0.40602797269821167 -0.2837119996547699
v -0.2959119975566864 0.3718940019607544 -0.12036100029945374
v -0.3351280093193054 0.4171850085258484 -0.1273760050535202
v 0.16155700385570526 0.40650200843811035 -0.2799229919910431
v -0.011386999860405922 0.40822499990463257 -0.3538289964199066
v 0.29574498534202576 0.41353899240493774 -0.127128005027771
v 0.2685660123825073 0.37033402919769287 -0.12045200169086456
v 0.33310800790786743 0.41428202390670776 0.03949899971485138
v 0.31426700949668884 0.367933988571167 0.04556199908256531
v 0.27344998717308044 0.36500900983810425 0.20797300338745117
v -0.18743200600147247 0.45280301570892334 0.3345319926738739
v -0.32165101170539856 0.4202539920806885 0.21363699436187744
v -0.2898719906806946 0.36656898260116577 0.208064004778862
v -0.3740519881248474 0.4185900092124939 0.04064000025391579
v -0.3388040065765381 0.3694940209388733 0.045653000473976135
v -0.3351280093193054 0.4171850085258484 -0.1273760050535202
v -0.2959119975566864 0.3718940019607544 -0.12036100029945374
v -0.3073819875717163 0.4732949733734131 -0.1368280053138733
v -0.19168399274349213 0.48132598400115967 -0.2783460021018982
v -0.36010101437568665 0.4765080213546753 0.038169000297784805
v -0.3073819875717163 0.4732949733734131 -0.1368280053138733
v -0.30663999915122986 0.47591400146484375 0.21709699928760529

vn -3.199999991920777e-05 0.23827099800109863 -0.9711989760398865
vn 0.5802599787712097 0.16341200470924377 -0.7978690266609192
vn 0.5932530164718628 0.03387200087308884 -0.804302990436554
vn 9.40000027185306e-05 0.08570100367069244 -0.9963210225105286
vn 0.8825680017471313 0.13725799322128296 -0.44970399141311646
vn 0.8894810080528259 -0.09816599637269974 -0.4463050067424774
vn 0.4087510108947754 -0.8884490132331848 -0.20875999331474304
vn 0.4087510108947754 -0.8884490132331848 -0.20875999331474304
vn 0.4087510108947754 -0.8884490132331848 -0.20875999331474304
vn 0.47021299600601196 -0.8123000264167786 -0.3450619876384735
vn 0.47021299600601196 -0.8123000264167786 -0.3450619876384735
vn 0.47021299600601196 -0.8123000264167786 -0.3450619876384735
vn 0.09106100350618362 -0.9256110191345215 -0.3673590123653412
vn 0.09106100350618362 -0.9256110191345215 -0.3673590123653412
vn 0.09106100350618362 -0.9256110191345215 -0.3673590123653412
vn 0.09741300344467163 -0.9221130013465881 -0.37445899844169617
vn 0.09741300344467163 -0.922111988067627 -0.37445899844169617
vn 0.09741300344467163 -0.9221130013465881 -0.37445899844169617
vn 0.5226140022277832 -0.1843319982290268 -0.8324040174484253
vn 0.47779399156570435 -0.15693299472332 -0.8643400073051453
vn 0.8520609736442566 -0.09556099772453308 -0.5146459937095642
vn 0.8158619999885559 -0.3564929962158203 -0.45528098940849304
vn -0.00622300012037158 -0.12598800659179688 -0.9920120239257812
vn -0.003955000080168247 -0.12846599519252777 -0.9917060136795044
vn 0.995714008808136 0.09219200164079666 -0.0073460000567138195
vn 0.9932199716567993 -0.11593899875879288 0.008442999795079231
vn 0.8965389728546143 -0.05415999889373779 0.43964099884033203
vn 0.9265940189361572 0.02910899929702282 0.37493398785591125
vn 0.6134719848632812 0.3283750116825104 0.7182080149650574
vn 0.6123359799385071 0.08646000176668167 0.7858560085296631
vn -3.600000127335079e-05 0.34955498576164246 0.9369159936904907
vn 8.800000068731606e-05 0.10475700348615646 0.9944980144500732
vn -0.0 -0.6523259878158569 0.7579389810562134
vn 0.4332360029220581 -0.6016730070114136 0.6710410118103027
vn 0.4754970073699951 -0.3252060115337372 0.8174009919166565
vn 2.300000051036477e-05 -0.393669992685318 0.9192519783973694
vn 0.7081829905509949 -0.5925459861755371 0.383882999420166
vn 0.8165619969367981 -0.3422119915485382 0.4648840129375458
vn 0.8898900151252747 -0.45463699102401733 0.0374159999191761
vn 0.9649339914321899 -0.2584240138530731 0.04603999853134155
vn 0.6261720061302185 -0.7639070153236389 -0.15606099367141724
vn 0.5811190009117126 -0.7969030141830444 -0.16506700217723846
vn 0.5980340242385864 -0.7849709987640381 -0.16178999841213226
vn 0.6375349760055542 -0.7549459934234619 -0.15364199876785278
vn 0.5545520186424255 -0.05234900116920471 0.8305010199546814
vn 0.5434039831161499 -0.16919000446796417 0.8222450017929077
vn -0.0 -0.09326300024986267 0.9956420063972473
vn -0.0 0.005764999892562628 0.999983012676239
vn 0.8462449908256531 -0.35017499327659607 0.40155598521232605
vn 0.8745610117912292 -0.14725300669670105 0.4620180130004883
vn 0.9361429810523987 -0.35144099593162537 -0.011238000355660915
vn 0.9964759945869446 -0.07945399731397629 -0.026876000687479973
vn 0.5758540034294128 0.08693599700927734 0.8129169940948486
vn -0.0 0.14377599954605103 0.9896100163459778
vn 0.9082800149917603 -0.15820200741291046 0.38729700446128845
vn 0.12287300080060959 0.9175019860267639 -0.378275990486145
vn 0.0008590000215917826 0.9947029948234558 -0.10278300195932388
vn 0.2729080021381378 0.9320369958877563 -0.23838800191879272
vn -0.008886000141501427 0.46013399958610535 -0.8878049850463867
vn 0.3822230100631714 0.6558430194854736 0.6509810090065002
vn -2.9999999242136255e-05 0.6594210267066956 0.7517729997634888
vn 0.24839499592781067 0.9653990268707275 0.07940699905157089
vn 0.3039819896221161 0.9499059915542603 -0.07262100279331207
vn 0.43327999114990234 -0.7304829955101013 -0.5278850197792053
vn 2.8000000384054147e-05 -0.9903039932250977 -0.13892099261283875
vn -9.600000339560211e-05 -0.730929970741272 -0.6824520230293274
vn 0.6264320015907288 -0.7267400026321411 -0.28183698654174805
vn 0.384770005941391 -0.9230070114135742 -0.0031530000269412994
vn 0.3758769929409027 -0.9231579899787903 0.08059699833393097
vn 0.30612999200820923 -0.936165988445282 0.17285099625587463
vn 0.30612999200820923 -0.936165988445282 0.17285099625587463
vn 0.30612999200820923 -0.936165988445282 0.17285099625587463
vn 0.0945969969034195 -0.9592229723930359 0.26635101437568665
vn 0.0945969969034195 -0.9592229723930359 0.26635101437568665
vn 0.0945969969034195 -0.9592229723930359 0.26635101437568665
vn -0.5921419858932495 0.03410999849438667 -0.8051109910011292
vn -0.5790380239486694 0.16259600222110748 -0.7989220023155212
vn -0.89028400182724 -0.09828300029039383 -0.44467398524284363
vn -0.884207010269165 0.11988399922847748 -0.4514490067958832
vn -0.48155298829078674 -0.7725909948348999 -0.4137749969959259
vn -0.48155298829078674 -0.7725909948348999 -0.4137749969959259
vn -0.48155298829078674 -0.7725909948348999 -0.4137749969959259
vn -0.38777801394462585 -0.8946849703788757 -0.22173599898815155
vn -0.38777801394462585 -0.8946849703788757 -0.22173599898815155
vn -0.38777801394462585 -0.8946849703788757 -0.22173599898815155
vn -0.09741300344467163 -0.922111988067627 -0.37445899844169617
vn -0.09741300344467163 -0.922111988067627 -0.37445899844169617
vn -0.09741300344467163 -0.922111988067627 -0.37445899844169617
vn -0.09106100350618362 -0.9256110191345215 -0.3673590123653412
vn -0.09106100350618362 -0.9256110191345215 -0.3673590123653412
vn -0.09106100350618362 -0.9256110191345215 -0.3673590123653412
vn -0.5179889798164368 -0.19052700698375702 -0.8338990211486816
vn -0.8609449863433838 -0.00043700000969693065 -0.508696973323822
vn -0.8424929976463318 -0.25839000940322876 -0.472694993019104
vn -0.48265400528907776 -0.1778620034456253 -0.8575609922409058
vn -0.9930809736251831 -0.11735600233078003 0.004226000048220158
vn -0.9962130188941956 0.0868929997086525 -0.002997000003233552
vn -0.9930809736251831 -0.11735600233078003 0.004226000048220158
vn -0.9254050254821777 0.0170889999717474 0.3785940110683441
vn -0.9057009816169739 0.043271999806165695 0.4217030107975006
vn -0.9962130188941956 0.0868929997086525 -0.002997000003233552
vn -0.6112769842147827 0.08669599890708923 0.786653995513916
vn -0.6097270250320435 0.3262529969215393 0.7223510146141052
vn -0.48086801171302795 -0.31667301058769226 0.8176090121269226
vn -0.41673699021339417 -0.6041759848594666 0.6791920065879822
vn -0.8072779774665833 -0.18472200632095337 0.5605180263519287
vn -0.6919519901275635 -0.573947012424469 0.4379369914531708
vn -0.7084699869155884 -0.6961740255355835 0.11580900102853775
vn -0.7084699869155884 -0.6961740255355835 0.11580900102853775
vn -0.9327639937400818 -0.3604860007762909 -0.0012580000329762697
vn -0.8324949741363525 -0.5536620020866394 -0.020281000062823296
vn -0.8324949741363525 -0.5536620020866394 -0.020281000062823296
vn -0.9327639937400818 -0.3604860007762909 -0.0012580000329762697
vn -0.8933069705963135 -0.24726499617099762 -0.3753170073032379
vn -0.823065996170044 -0.45439600944519043 -0.3407140076160431
vn -0.5553579926490784 -0.03531000018119812 0.8308619856834412
vn -0.5544400215148926 -0.1920730024576187 0.8097559809684753
vn -0.890654981136322 0.038943998515605927 0.4530079960823059
vn -0.8354420065879822 -0.37593600153923035 0.40088599920272827
vn -0.958931028842926 -0.2826949954032898 -0.023125000298023224
vn -0.9992550015449524 0.037053998559713364 -0.010773000307381153
vn -0.9992550015449524 0.037053998559713364 -0.010773000307381153
vn -0.958931028842926 -0.2826949954032898 -0.023125000298023224
vn -0.5775759816169739 0.09090899676084518 0.8112589716911316
vn -0.9157789945602417 -0.07833699882030487 0.39396899938583374
vn -0.4221329987049103 0.47459301352500916 -0.7723760008811951
vn -0.7432349920272827 0.5231360197067261 -0.41705000400543213
vn -0.38576799631118774 0.6523640155792236 0.652383029460907
vn -0.7127519845962524 0.5773379802703857 0.3983289897441864
vn -0.8395509719848633 0.542231023311615 -0.03376299887895584
vn -0.432684987783432 -0.7305139899253845 -0.5283300280570984
vn -0.3589189946651459 -0.9186890125274658 -0.1648859977722168
vn -0.38476499915122986 -0.9230089783668518 -0.003097000066190958
vn -0.3758769929409027 -0.9231579899787903 0.08059599995613098
vn -0.3061310052871704 -0.936165988445282 0.17285099625587463
vn -0.3061310052871704 -0.936165988445282 0.17285099625587463
vn -0.3061310052871704 -0.936165988445282 0.17285099625587463
vn -0.09459800273180008 -0.9592229723930359 0.26635101437568665
vn -0.09459800273180008 -0.9592229723930359 0.26635101437568665
vn -0.09459800273180008 -0.9592229723930359 0.26635101437568665
vn 0.0 0.06250099837779999 -0.998045027256012
vn 0.5505470037460327 -0.04140400141477585 -0.8337770104408264
vn 0.872527003288269 -0.1749880015850067 -0.4561539888381958
vn -0.5506150126457214 -0.04672300070524216 -0.833450973033905
vn 0.5318470001220703 -0.10910499840974808 -0.8397830128669739
vn 0.0 -0.051552001386880875 -0.9986699819564819
vn 0.8773890137672424 -0.09312599897384644 -0.47065499424934387
vn 0.7587540149688721 -0.48393699526786804 -0.4360019862651825
vn 0.861070990562439 -0.5083609819412231 -0.011250000447034836
vn 0.9984539747238159 -0.04066300019621849 -0.03788600116968155
vn 0.8102380037307739 -0.43370500206947327 0.3942260146141052
vn 0.8914459943771362 0.15476000308990479 0.4258800148963928
vn 0.6120330095291138 0.06691200286149979 0.7879959940910339
vn -0.0 0.14563700556755066 0.9893379807472229
vn -0.6093270182609558 0.056028999388217926 0.7909370064735413
vn -0.8520380258560181 -0.15474599599838257 0.5000839829444885
vn -0.8819540143013 -0.2058349996805191 0.42401599884033203
vn -0.9120290279388428 -0.40891000628471375 -0.031550001353025436
vn -0.9745420217514038 -0.22400499880313873 -0.009425000287592411
vn -0.9120290279388428 -0.40891000628471375 -0.031550001353025436
vn -0.9745420217514038 -0.22400499880313873 -0.009425000287592411
vn -0.8398299813270569 -0.24523599445819855 -0.4842990040779114
vn -0.7744669914245605 -0.36820098757743835 -0.5144199728965759
vn -0.5303210020065308 -0.1084270030260086 -0.8408349752426147
vn -0.4221329987049103 0.47459301352500916 -0.7723760008811951
vn -0.008886000141501427 0.46013399958610535 -0.8878049850463867
vn -0.004588000010699034 -0.09075400233268738 -0.9958630204200745
vn -0.5942050218582153 -0.008666999638080597 -0.8042669892311096
vn -0.7432349920272827 0.5231360197067261 -0.41705000400543213
vn -0.8395509719848633 0.542231023311615 -0.03376299887895584
vn -0.7127519845962524 0.5773379802703857 0.3983289897441864
vn -0.8395509719848633 0.542231023311615 -0.03376299887895584
vn -0.38576799631118774 0.6523640155792236 0.652383029460907
vn -2.9999999242136255e-05 0.6594210267066956 0.7517729997634888
vn 0.3822230100631714 0.6558430194854736 0.6509810090065002
vn 0.8493949770927429 0.08581600338220596 0.5207340121269226
vn 0.999364972114563 0.03450800105929375 0.008853999897837639
vn 0.9044960141181946 0.006415000185370445 -0.4264329969882965
vn 0.8976870179176331 0.009046000428497791 -0.4405420124530792
vn 0.5209919810295105 -0.04317300021648407 -0.8524690270423889
vn 0.577468991279602 -0.027282999828457832 -0.8159559965133667
vn 0.43327999114990234 -0.7304829955101013 -0.5278850197792053
vn 0.6264320015907288 -0.7267400026321411 -0.28183698654174805
vn 0.8711119890213013 -0.4908379912376404 -0.015549999661743641
vn 0.8231430053710938 -0.47691699862480164 0.3081969916820526
vn 0.5695189833641052 -0.5098339915275574 0.6447610259056091
vn -0.0001340000017080456 -0.5310149788856506 0.8473629951477051
vn -0.5686410069465637 -0.5099999904632568 0.6454060077667236
vn -0.8187710046768188 -0.4850890040397644 0.3070870041847229
vn -0.8664529919624329 -0.4989840090274811 -0.01654599979519844
vn -0.8664529919624329 -0.4989840090274811 -0.01654599979519844
vn -0.7932609915733337 -0.49535098671913147 -0.35406801104545593
vn -0.432684987783432 -0.7305139899253845 -0.5283300280570984
vn -9.600000339560211e-05 -0.730929970741272 -0.6824520230293274
vn 0.814424991607666 -0.18277500569820404 0.5507310032844543
vn 0.7706159949302673 0.30204498767852783 0.5611780285835266
vn 0.41448700428009033 0.2196349948644638 0.8831539750099182
vn 0.39950400590896606 -0.023770999163389206 0.9164230227470398
vn -0.17437000572681427 0.2044530063867569 0.96322101354599
vn -0.17388899624347687 0.003106999909505248 0.9847599864006042
vn 0.17317399382591248 0.07393000274896622 -0.9821119904518127
vn 0.15902400016784668 0.40168601274490356 -0.9018639922142029
vn 0.7020000219345093 0.41332900524139404 -0.5799610018730164
vn 0.7744410037994385 0.1291709989309311 -0.6193180084228516
vn 0.8627640008926392 0.49709799885749817 -0.09237200021743774
vn 0.9901670217514038 0.09070800244808197 -0.10649300366640091
vn 0.9714429974555969 0.05657999962568283 -0.230430006980896
vn 0.8784499764442444 0.3662340044975281 0.3069179952144623
vn 0.9766240119934082 -0.13565300405025482 0.16674500703811646
vn 0.34375301003456116 -0.6071280241012573 0.7164000272750854
vn -3.9999998989515007e-05 -1.0 0.00022699999681208283
vn 0.6073030233383179 -0.6783390045166016 0.41356799006462097
vn -0.1354070007801056 -0.6260669827461243 0.7679229974746704
vn 0.12321300059556961 -0.7046509981155396 -0.698773980140686
vn 0.6389049887657166 -0.5981979966163635 -0.48369300365448
vn 0.710116982460022 -0.6650210022926331 0.23125800490379333
vn 0.6859149932861328 0.4363360106945038 -0.5823500156402588
vn 0.9940990209579468 0.016659000888466835 -0.1071930006146431
vn 0.6685029864311218 0.508338987827301 -0.5428590178489685
vn 0.18596599996089935 0.42917901277542114 -0.8838679790496826
vn 0.16403700411319733 0.46523499488830566 -0.8698549866676331
vn 0.11606000363826752 -0.7438399791717529 -0.6582040190696716
vn -0.008034000173211098 -0.9989290237426758 0.04556100070476532
vn -0.016272999346256256 -0.9997280240058899 0.016707999631762505
vn 0.5084270238876343 0.8304939866065979 -0.2275570034980774
vn 0.08628500252962112 0.9009349942207336 -0.42528900504112244
vn 0.5846400260925293 -0.7708719968795776 0.25288599729537964
vn 0.9578750133514404 -0.28677499294281006 0.015327000059187412
vn 0.9713039994239807 0.12782900035381317 0.20056800544261932
vn 0.8486809730529785 0.501013994216919 0.16948699951171875
vn 0.9608380198478699 0.147817000746727 0.23439300060272217
vn 0.6398440003395081 -0.6124550104141235 -0.46421700716018677
vn 0.7403669953346252 -0.6673160195350647 -0.08090600371360779
vn 0.7050700187683105 -0.6952090263366699 0.13986200094223022
vn 0.13515600562095642 -0.6278650164604187 -0.766497015953064
vn 0.09621799737215042 0.8324829936027527 -0.5456309914588928
vn 0.5465760231018066 0.8042070269584656 -0.2334669977426529
vn 0.9578750133514404 -0.28677499294281006 0.015327000059187412
vn 0.710116982460022 -0.6650210022926331 0.23125800490379333
vn 0.6389049887657166 -0.5981979966163635 -0.48369300365448
vn 0.9386360049247742 -0.30907300114631653 0.15309099853038788
vn 0.7710930109024048 -0.3706029951572418 0.5177540183067322
vn 0.6073030233383179 -0.6783390045166016 0.41356799006462097
vn 0.4314189851284027 -0.14834199845790863 0.8898720145225525
vn 0.34375301003456116 -0.6071280241012573 0.7164000272750854
vn -0.17492499947547913 -0.1350570023059845 0.9752749800682068
vn -0.1354070007801056 -0.6260669827461243 0.7679229974746704
vn 0.13515600562095642 -0.6278650164604187 -0.766497015953064
vn 0.6398440003395081 -0.6124550104141235 -0.46421700716018677
vn 0.7403669953346252 -0.6673160195350647 -0.08090600371360779
vn 0.7050700187683105 -0.6952090263366699 0.13986200094223022
vn 0.5846400260925293 -0.7708719968795776 0.25288599729537964
vn 0.11968500167131424 0.8542739748954773 -0.505856990814209
vn 0.6130560040473938 0.7040619850158691 -0.3584119975566864
vn 0.4411650002002716 0.08159399777650833 0.8937090039253235
vn -0.20216800272464752 0.0031500000040978193 0.979345977306366
vn 0.8330810070037842 0.22411000728607178 0.5057179927825928
vn 0.9593650102615356 0.22222499549388885 0.17388300597667694
vn 0.8300930261611938 0.5573800206184387 -0.016527000814676285
vn 0.3786340057849884 0.9155380129814148 -0.13574199378490448
vn 0.028026999905705452 0.9869830012321472 -0.15836699306964874
vn 0.02295299991965294 0.9912059903144836 -0.1303199976682663
vn -0.9744369983673096 -0.06725800037384033 0.21435800194740295
vn -0.7042329907417297 -0.003510999958962202 0.7099599838256836
vn -0.7121189832687378 0.24178099632263184 0.6591119766235352
vn -0.9369080066680908 0.2572309970855713 0.23671899735927582
vn -0.17388899624347687 0.003106999909505248 0.9847599864006042
vn -0.17437000572681427 0.2044530063867569 0.96322101354599
vn -0.515699028968811 0.12670999765396118 -0.8473479747772217
vn -0.4554089903831482 0.4137539863586426 -0.7882959842681885
vn -0.886506974697113 0.09392599761486053 -0.45308199524879456
vn -0.7561630010604858 0.5366790294647217 -0.37442299723625183
vn -0.963545024394989 0.2641980051994324 -0.04219000041484833
vn -0.9842950105667114 -0.09078200161457062 -0.1513970047235489
vn -0.5666710138320923 -0.6090440154075623 0.5549319982528687
vn -0.7121869921684265 -0.6782400012016296 0.18105100095272064
vn -0.7459679841995239 -0.6654319763183594 -0.027048999443650246
vn -0.43492498993873596 -0.5982040166854858 -0.6730470061302185
vn -0.9243839979171753 0.20030100643634796 -0.3246450126171112
vn -0.907725989818573 0.06606599688529968 -0.41433000564575195
vn -0.478210985660553 0.46984100341796875 -0.7419999837875366
vn -0.45558100938796997 0.45131799578666687 -0.7673060297966003
vn 0.00957299955189228 -0.9997280240058899 0.021268000826239586
vn -0.3762109875679016 0.806896984577179 -0.455392986536026
vn -0.9064159989356995 -0.26880401372909546 -0.3258129954338074
vn -0.6579660177230835 -0.7521209716796875 0.03735699877142906
vn -0.9793689846992493 0.18446199595928192 -0.0825280025601387
vn -0.8426939845085144 0.5272709727287292 -0.10886599868535995
vn -0.9768630266189575 0.15909899771213531 -0.14292000234127045
vn -0.7480729818344116 -0.6546930074691772 -0.10846000164747238
vn -0.659820020198822 -0.6654819846153259 -0.34895598888397217
vn -0.44422298669815063 -0.6118350028991699 -0.6544650197029114
vn -0.4109709858894348 0.8142150044441223 -0.41006898880004883
vn -0.9064159989356995 -0.26880401372909546 -0.3258129954338074
vn -0.43492498993873596 -0.5982040166854858 -0.6730470061302185
vn -0.7459679841995239 -0.6654319763183594 -0.027048999443650246
vn -0.9502429962158203 -0.22404199838638306 0.2164350003004074
vn -0.9576839804649353 -0.22773699462413788 -0.1760060042142868
vn -0.7121869921684265 -0.6782400012016296 0.18105100095272064
vn -0.7089020013809204 -0.1552010029554367 0.6880199909210205
vn -0.5666710138320923 -0.6090440154075623 0.5549319982528687
vn -0.17492499947547913 -0.1350570023059845 0.9752749800682068
vn -0.1354070007801056 -0.6260669827461243 0.7679229974746704
vn -0.44422298669815063 -0.6118350028991699 -0.6544650197029114
vn -0.659820020198822 -0.6654819846153259 -0.34895598888397217
vn -0.7480729818344116 -0.6546930074691772 -0.10846000164747238
vn -0.6579660177230835 -0.7521209716796875 0.03735699877142906
vn -0.5197669863700867 0.6899269819259644 -0.5038290023803711
vn -0.20216800272464752 0.0031500000040978193 0.979345977306366
vn -0.7329450249671936 0.09248899668455124 0.6739720106124878
vn -0.9690399765968323 0.15278799831867218 0.19394999742507935
vn -0.988847017288208 0.1182980015873909 -0.09047900140285492
vn -0.8904600143432617 0.19101600348949432 -0.4130289852619171
vn -0.852537989616394 0.3860040009021759 -0.3523919880390167
vn -0.23426200449466705 0.9415450096130371 -0.24210500717163086
vn 0.7080079913139343 0.5787659883499146 -0.4046649932861328
vn 0.9183300137519836 0.3942260146141052 -0.03544300049543381
vn -0.5720149874687195 0.5187659859657288 -0.635358989238739
vn 0.13444599509239197 0.6853139996528625 -0.7157300114631653
vn 0.6856430172920227 0.6141229867935181 0.390828013420105
vn 0.4020549952983856 0.5978919863700867 0.6934530138969421
vn 0.5115209817886353 0.03541399911046028 0.8585410118103027
vn 0.8705139756202698 0.06559699773788452 0.4877519905567169
vn -0.0044280001893639565 0.5819529891014099 0.8132100105285645
vn 0.010607000440359116 -0.0023499999660998583 0.9999409914016724
vn -0.4253999888896942 0.5765619874000549 0.6975749731063843
vn -0.4390290081501007 0.0026569999754428864 0.8984689712524414
vn -0.6102240085601807 0.6810899972915649 0.4046509861946106
vn -0.8041059970855713 0.13022799789905548 0.5800470113754272
vn -0.691992998123169 0.7219030261039734 0.0013620000099763274
vn -0.990556001663208 0.13710300624370575 0.000990999978967011
vn -0.6034640073776245 0.6893439888954163 -0.40079399943351746
vn -0.8268259763717651 0.1199600026011467 -0.5495160222053528
vn -0.49277999997138977 0.0669580027461052 -0.8675739765167236
vn -0.42059099674224854 0.5996739864349365 -0.6808040142059326
vn -0.0378200002014637 0.6716449856758118 -0.7399070262908936
vn -0.007720999885350466 0.1256590038537979 -0.9920430183410645
vn 0.4155200123786926 0.6414039731025696 -0.6449369788169861
vn 0.5882390141487122 0.07800299674272537 -0.8049160242080688
vn 0.6882690191268921 0.6189169883728027 -0.37845298647880554
vn 0.8860229849815369 0.058681000024080276 -0.4599129855632782
vn 0.7840870022773743 0.6206449866294861 0.0026310000102967024
vn 0.997393012046814 0.07216300070285797 0.000661000027321279
vn 0.8865709900856018 -0.15405799448490143 -0.4361859858036041
vn 0.8859969973564148 -0.03881800174713135 -0.4620620012283325
vn 0.6220740079879761 -0.14597800374031067 -0.7692300081253052
vn 0.5945990085601807 -0.15442100167274475 -0.7890539765357971
vn 0.006564999930560589 -0.1791439950466156 -0.983801007270813
vn -0.002561999950557947 -0.18718500435352325 -0.98232102394104
vn -0.5837839841842651 -0.2961159944534302 -0.7559840083122253
vn -0.8152430057525635 -0.3871229887008667 -0.43071499466896057
vn -0.8617119789123535 -0.10527200251817703 -0.4963569939136505
vn -0.578341007232666 -0.13169699907302856 -0.8050950169563293
vn -0.8152430057525635 -0.3871229887008667 -0.43071499466896057
vn -0.9328650236129761 -0.35931000113487244 0.025671999901533127
vn -0.9939640164375305 -0.10687699913978577 0.02477099932730198
vn -0.8617119789123535 -0.10527200251817703 -0.4963569939136505
vn -0.8083890080451965 -0.2193939983844757 0.546235978603363
vn -0.7637709975242615 -0.09600800275802612 0.6383079886436462
vn -0.4616050124168396 0.3628380000591278 0.809486985206604
vn -0.4114589989185333 0.010660000145435333 0.9113659858703613
vn -0.003601999953389168 0.3149229884147644 0.9491109848022461
vn -0.002630000002682209 0.03480299934744835 0.9993910193443298
vn 0.495932012796402 0.25960299372673035 0.8286479711532593
vn 0.4661419987678528 0.01830900087952614 0.8845199942588806
vn 0.8500949740409851 -0.04930400103330612 0.5243160128593445
vn 0.8052889704704285 -0.0762839987874031 0.5879549980163574
vn 0.9995840191841125 0.020896000787615776 -0.019860999658703804
vn 0.9844139814376831 -0.1756339967250824 0.009077999740839005
vn 0.6856430172920227 0.6141229867935181 0.390828013420105
vn 0.0015300000086426735 0.9999989867210388 0.00018899999849963933
vn 0.4020549952983856 0.5978919863700867 0.6934530138969421
vn -0.0044280001893639565 0.5819529891014099 0.8132100105285645
vn -0.4253999888896942 0.5765619874000549 0.6975749731063843
vn -0.6102240085601807 0.6810899972915649 0.4046509861946106
vn -0.691992998123169 0.7219030261039734 0.0013620000099763274
vn -0.6034640073776245 0.6893439888954163 -0.40079399943351746
vn -0.42059099674224854 0.5996739864349365 -0.6808040142059326
vn -0.0378200002014637 0.6716449856758118 -0.7399070262908936
vn 0.4155200123786926 0.6414039731025696 -0.6449369788169861
vn 0.6882690191268921 0.6189169883728027 -0.37845298647880554
vn 0.7840870022773743 0.6206449866294861 0.0026310000102967024
vn 0.8387219905853271 -0.2810479998588562 -0.46643099188804626
vn 0.7183970212936401 -0.5740579962730408 -0.392890989780426
vn 0.5394949913024902 -0.2660990059375763 -0.7988349795341492
vn 0.5324249863624573 -0.34998399019241333 -0.7707359790802002
vn 0.000598000013269484 -0.1939390003681183 -0.9810130000114441
vn 0.0050039999186992645 -0.46932899951934814 -0.8830090165138245
vn -0.8646559715270996 -0.17031200230121613 -0.47261399030685425
vn -0.5259069800376892 -0.371425986289978 -0.7651569843292236
vn -0.5350760221481323 -0.27062299847602844 -0.8002859950065613
vn -0.7279999852180481 -0.5679370164871216 -0.3840090036392212
vn -0.9922389984130859 -0.12361200153827667 0.013504000380635262
vn -0.8646559715270996 -0.17031200230121613 -0.47261399030685425
vn -0.7279999852180481 -0.5679370164871216 -0.3840090036392212
vn -0.8233640193939209 -0.5673289895057678 0.01449699979275465
vn -0.8814219832420349 -0.13050299882888794 0.45394301414489746
vn -0.7459740042686462 -0.5472859740257263 0.3794730007648468
vn -0.4971590042114258 -0.2708519995212555 0.82430100440979
vn -0.5197839736938477 -0.0025319999549537897 0.8542940020561218
vn 0.0001289999927394092 -0.2499919980764389 0.9682480096817017
vn 0.0004959999932907522 -0.03680700063705444 0.9993219971656799
vn 0.5083780288696289 -0.02411399967968464 0.8607959747314453
vn 0.5011289715766907 -0.2737730145454407 0.8209249973297119
vn 0.8400939702987671 -0.32033199071884155 0.4377549886703491
vn 0.7025070190429688 -0.6044110059738159 0.3757280111312866
vn 0.800242006778717 -0.5995640158653259 0.011651000007987022
vn 0.9633520245552063 -0.26822298765182495 -0.0031930000986903906
vn 0.621533989906311 -0.3053649961948395 -0.7214199900627136
vn 0.0010890000266954303 -0.2202170044183731 -0.9754499793052673
vn 0.8378229737281799 -0.3057059943675995 -0.45232298970222473
vn 0.9470210075378418 -0.3194830119609833 0.03288799896836281
vn 0.8383169770240784 -0.27708899974823 0.4695169925689697
vn 0.5109850168228149 -0.3119789958000183 0.8009759783744812
vn 0.0008900000248104334 -0.2967270016670227 0.9549620151519775
vn -0.4909670054912567 -0.3312990069389343 0.8057249784469604
vn -0.8273749947547913 -0.3276729881763458 0.45615801215171814
vn -0.9346179962158203 -0.3549320101737976 0.022626999765634537
vn -0.8280180096626282 -0.32831600308418274 -0.45452699065208435
vn -0.8280180096626282 -0.32831600308418274 -0.45452699065208435
vn -0.6177589893341064 -0.3093700110912323 -0.7229549884796143
vn -0.40351900458335876 -0.20699399709701538 0.8912500143051147
vn -0.002839999971911311 -0.214260995388031 0.9767720103263855
vn -0.004974000155925751 -0.007017999887466431 -0.9999629855155945
vn -0.5415880084037781 -0.05621299892663956 -0.8387619853019714
vn -0.6034640073776245 0.6893439888954163 -0.40079399943351746
vn -0.8268259763717651 0.1199600026011467 -0.5495160222053528
vn -0.8403599858283997 -0.19636699557304382 -0.5052090287208557
vn -0.8403599858283997 -0.19636699557304382 -0.5052090287208557
vn -0.9773560166358948 -0.21149499714374542 -0.006777999922633171
vn -0.8090540170669556 -0.19731199741363525 0.5536239743232727
vn 0.4860140085220337 -0.1771080046892166 0.8558170199394226
vn 0.847087025642395 -0.04050299897789955 0.5299090147018433
vn 0.9997010231018066 0.024071000516414642 0.0042500002309679985
vn 0.8946179747581482 0.009209999814629555 -0.44673699140548706
vn 0.6037949919700623 0.004449000116437674 -0.7971270084381104
vn -0.5453810095787048 -0.2816599905490875 -0.7894480228424072
vn -0.8433520197868347 -0.17230799794197083 -0.5089870095252991
vn -0.8780720233917236 -0.16356199979782104 -0.4497080147266388
vn 0.5611010193824768 -0.26567399501800537 -0.7839530110359192
vn 0.011323000304400921 -0.3294070065021515 -0.9441199898719788
vn 0.9004729986190796 -0.13464799523353577 -0.4135439991950989
vn 0.8653150200843811 -0.17288699746131897 -0.4704670011997223
vn 0.9991379976272583 -0.0372139997780323 -0.01839200034737587
vn 0.9990119934082031 -0.04370899870991707 -0.008031000383198261
vn 0.8762069940567017 0.03451300039887428 0.48069700598716736
vn -0.4975929856300354 0.20963799953460693 0.8416969776153564
vn -0.8442180156707764 -0.16013100743293762 0.5115209817886353
vn -0.8525220155715942 0.053856998682022095 0.5199099779129028
vn -0.9834010004997253 -0.1788730025291443 0.03045099973678589
vn -0.9975950121879578 -0.06276600062847137 0.029397999867796898
vn -0.8780720233917236 -0.16356199979782104 -0.4497080147266388
vn -0.8433520197868347 -0.17230799794197083 -0.5089870095252991
vn -0.7846090197563171 -0.3082740008831024 -0.537917971611023
vn -0.5805580019950867 -0.2432209998369217 -0.7770429849624634
vn -0.9168329834938049 -0.3985689878463745 0.02367600053548813
vn -0.7846090197563171 -0.3082740008831024 -0.537917971611023
vn -0.7640050053596497 -0.18692299723625183 0.6175410151481628

vt 0.9120150208473206 0.7540729939937592
vt 0.8906409740447998 0.7544679939746857
vt 0.8906409740447998 0.7331370115280151
vt 0.9120150208473206 0.7321150004863739
vt 0.858115017414093 0.7534579932689667
vt 0.858115017414093 0.7343469858169556
vt 0.8906409740447998 0.8060760051012039
vt 0.8906409740447998 0.8198740035295486
vt 0.858115017414093 0.8198740035295486
vt 0.858115017414093 0.8198740035295486
vt 0.858115017414093 0.8075219988822937
vt 0.8906409740447998 0.8060760051012039
vt 0.8906409740447998 0.8060760051012039
vt 0.9120150208473206 0.8048409968614578
vt 0.9120150208473206 0.8198740035295486
vt 0.9120150208473206 0.8198740035295486
vt 0.8906409740447998 0.8198740035295486
vt 0.8906409740447998 0.8060760051012039
vt 0.8906409740447998 0.7806520015001297
vt 0.8906409740447998 0.7967139929533005
vt 0.858115017414093 0.7925209999084473
vt 0.858115017414093 0.7836489975452423
vt 0.9120150208473206 0.780251994729042
vt 0.9120150208473206 0.7959289997816086
vt 0.8378790020942688 0.7531020045280457
vt 0.8378790020942688 0.7343420088291168
vt 0.8168290257453918 0.7496120035648346
vt 0.8168290257453918 0.7333770096302032
vt 0.7909250259399414 0.7491250038146973
vt 0.7909250259399414 0.7322689890861511
vt 0.7609350085258484 0.7487800121307373
vt 0.7609350085258484 0.7318060100078583
vt 0.7609350085258484 0.7999259978532791
vt 0.7909250259399414 0.8008289933204651
vt 0.7909250259399414 0.8198740035295486
vt 0.7609350085258484 0.8198740035295486
vt 0.8168290257453918 0.8048840016126633
vt 0.8168290257453918 0.8198740035295486
vt 0.8378790020942688 0.8070140033960342
vt 0.8378790020942688 0.8198740035295486
vt 0.8378790020942688 0.8070140033960342
vt 0.858115017414093 0.8075219988822937
vt 0.858115017414093 0.8198740035295486
vt 0.8378790020942688 0.8198740035295486
vt 0.7909250259399414 0.7789169996976852
vt 0.7909250259399414 0.7919310033321381
vt 0.7609350085258484 0.790680006146431
vt 0.7609350085258484 0.7778950035572052
vt 0.8168290257453918 0.7821449935436249
vt 0.8168290257453918 0.7906749993562698
vt 0.8378790020942688 0.7833330035209656
vt 0.8378790020942688 0.7920220047235489
vt 0.7909250259399414 0.7564589977264404
vt 0.7609350085258484 0.755742996931076
vt 0.8168290257453918 0.7569459974765778
vt 0.5856189727783203 0.4821310043334961
vt 0.6121960282325745 0.45896100997924805
vt 0.6086030006408691 0.4901750087738037
vt 0.5786349773406982 0.4681439995765686
vt 0.6478469967842102 0.46479201316833496
vt 0.6480429768562317 0.449118971824646
vt 0.639307975769043 0.481453001499176
vt 0.625141978263855 0.4896029829978943
vt 0.28823599219322205 0.7013989984989166
vt 0.2657870054244995 0.685699999332428
vt 0.29760000109672546 0.6823469996452332
vt 0.2775779962539673 0.7121669948101044
vt 0.26330000162124634 0.7166450023651123
vt 0.2475920021533966 0.7133139967918396
vt 0.2369139939546585 0.7037259936332703
vt 0.2657870054244995 0.685699999332428
vt 0.2475920021533966 0.7133139967918396
vt 0.23297999799251556 0.6899240016937256
vt 0.2657870054244995 0.685699999332428
vt 0.2369139939546585 0.7037259936332703
vt 0.9362599849700928 0.7328369915485382
vt 0.9362599849700928 0.753358006477356
vt 0.9693009853363037 0.7334910035133362
vt 0.9693009853363037 0.7513870000839233
vt 0.9362599849700928 0.8041689991950989
vt 0.9693009853363037 0.8013519942760468
vt 0.9693009853363037 0.8198740035295486
vt 0.9693009853363037 0.8198740035295486
vt 0.9362599849700928 0.8198740035295486
vt 0.9362599849700928 0.8041689991950989
vt 0.9362599849700928 0.8041689991950989
vt 0.9362599849700928 0.8198740035295486
vt 0.9120150208473206 0.8198740035295486
vt 0.9120150208473206 0.8198740035295486
vt 0.9120150208473206 0.8048409968614578
vt 0.9362599849700928 0.8041689991950989
vt 0.9362599849700928 0.7803560048341751
vt 0.9693009853363037 0.781806007027626
vt 0.9693009853363037 0.7910930067300797
vt 0.9362599849700928 0.7949009984731674
vt 0.9954710006713867 0.7342120110988617
vt 0.9954710006713867 0.7506729960441589
vt 0.6828370094299316 0.7374669909477234
vt 0.7071790099143982 0.7332989871501923
vt 0.7071790099143982 0.7488040030002594
vt 0.6828370094299316 0.7533130049705505
vt 0.7380269765853882 0.732140988111496
vt 0.7380260229110718 0.7486859858036041
vt 0.7380269765853882 0.8198740035295486
vt 0.7380269765853882 0.799576997756958
vt 0.7071790099143982 0.8198740035295486
vt 0.7071790099143982 0.8007400035858154
vt 0.7071790099143982 0.8007400035858154
vt 0.7071790099143982 0.8198740035295486
vt 0.6828370094299316 0.8198740035295486
vt 0.6828370094299316 0.8022000044584274
vt 0.9954710006713867 0.7974130064249039
vt 0.9954699873924255 0.8198740035295486
vt 0.9693009853363037 0.8198740035295486
vt 0.9693009853363037 0.8013519942760468
vt 0.7380269765853882 0.77776800096035
vt 0.7380269765853882 0.7906270027160645
vt 0.7071790099143982 0.7821709960699081
vt 0.7071790099143982 0.791032001376152
vt 0.6828370094299316 0.7902619987726212
vt 0.6828370094299316 0.7817630022764206
vt 0.9954710006713867 0.7758309990167618
vt 0.9954710006713867 0.784510999917984
vt 0.7380260229110718 0.7558159977197647
vt 0.7071790099143982 0.756194993853569
vt 0.5778549909591675 0.45253002643585205
vt 0.5936070084571838 0.4355180263519287
vt 0.639864981174469 0.43574798107147217
vt 0.6244680285453796 0.42735397815704346
vt 0.6081269979476929 0.42757898569107056
vt 0.29282599687576294 0.6688520014286041
vt 0.28303399682044983 0.6584100127220154
vt 0.2607620060443878 0.6573739945888519
vt 0.24640199542045593 0.6622079908847809
vt 0.23610800504684448 0.6730690002441406
vt 0.24640199542045593 0.6622079908847809
vt 0.2657870054244995 0.685699999332428
vt 0.23297999799251556 0.6899240016937256
vt 0.23610800504684448 0.6730690002441406
vt 0.2657870054244995 0.685699999332428
vt 0.9120150208473206 0.8048409968614578
vt 0.8906409740447998 0.8060760051012039
vt 0.858115017414093 0.8075219988822937
vt 0.9362599849700928 0.8041689991950989
vt 0.8906409740447998 0.7679750025272369
vt 0.9120150208473206 0.7672860026359558
vt 0.858115017414093 0.7660039961338043
vt 0.858115017414093 0.7772269994020462
vt 0.8378790020942688 0.7767239958047867
vt 0.8378790020942688 0.765612006187439
vt 0.8168290257453918 0.7760580033063889
vt 0.8168290257453918 0.7657530009746552
vt 0.7909250259399414 0.7642430067062378
vt 0.7609350085258484 0.7635650038719177
vt 0.7380269765853882 0.7633090019226074
vt 0.7071790099143982 0.7631060034036636
vt 0.7071790099143982 0.7711620032787323
vt 0.6828370094299316 0.7624669969081879
vt 0.6828370094299316 0.770799994468689
vt 0.9954710006713867 0.7584899961948395
vt 0.9954710006713867 0.7656320035457611
vt 0.9693009853363037 0.7702620029449463
vt 0.9693009853363037 0.761911004781723
vt 0.9362599849700928 0.7664459943771362
vt 0.9362599849700928 0.8529510051012039
vt 0.9120150208473206 0.8529510051012039
vt 0.9120150208473206 0.8198740035295486
vt 0.9362599849700928 0.8198740035295486
vt 0.9693009853363037 0.8529500067234039
vt 0.9954710006713867 0.8529500067234039
vt 0.7071790099143982 0.8529510051012039
vt 0.6828370094299316 0.8529510051012039
vt 0.7380269765853882 0.8529510051012039
vt 0.7609350085258484 0.8529510051012039
vt 0.7909250259399414 0.8529510051012039
vt 0.8168290257453918 0.8529510051012039
vt 0.8378790020942688 0.8529510051012039
vt 0.858115017414093 0.8529510051012039
vt 0.858115017414093 0.8198740035295486
vt 0.8906409740447998 0.8529510051012039
vt 0.8906409740447998 0.8198740035295486
vt 0.8906409740447998 0.7237749993801117
vt 0.858115017414093 0.7237749993801117
vt 0.8378790020942688 0.7237749993801117
vt 0.8168290257453918 0.7237749993801117
vt 0.7909250259399414 0.7237749993801117
vt 0.7609350085258484 0.7237749993801117
vt 0.7380260229110718 0.7237749993801117
vt 0.7071790099143982 0.7237749993801117
vt 0.6828370094299316 0.7237749993801117
vt 0.9954710006713867 0.7237749993801117
vt 0.9693009853363037 0.7237749993801117
vt 0.9362599849700928 0.7237749993801117
vt 0.9120150208473206 0.7237749993801117
vt 0.34970998764038086 0.7039240002632141
vt 0.3335629999637604 0.6919080018997192
vt 0.34369799494743347 0.6763400137424469
vt 0.36392301321029663 0.6863200068473816
vt 0.3521139919757843 0.6614809930324554
vt 0.3733629882335663 0.6699239909648895
vt 0.26077601313591003 0.8110879957675934
vt 0.2607690095901489 0.7999940067529678
vt 0.27744901180267334 0.7944000065326691
vt 0.28155699372291565 0.8057650029659271
vt 0.2966740131378174 0.7711019963026047
vt 0.30689799785614014 0.78056700527668
vt 0.3048099875450134 0.7378889918327332
vt 0.3242810070514679 0.7060509920120239
vt 0.3319390118122101 0.7204680144786835
vt 0.15362000465393066 0.20584100484848022
vt 0.12988199293613434 0.15151798725128174
vt 0.17062300443649292 0.18007802963256836
vt 0.12985199689865112 0.21215802431106567
vt 0.12988699972629547 0.14173197746276855
vt 0.17678900063037872 0.14209598302841187
vt 0.17690600454807281 0.15624898672103882
vt 0.280256986618042 0.7464999854564667
vt 0.30744799971580505 0.7459650039672852
vt 0.28126800060272217 0.751471996307373
vt 0.2617659866809845 0.7539519965648651
vt 0.2615180015563965 0.7459329962730408
vt 0.12988999485969543 0.13626301288604736
vt 0.12991799414157867 0.07637101411819458
vt 0.16367200016975403 0.0756949782371521
vt 0.2834939956665039 0.7578520029783249
vt 0.2617970108985901 0.7599799931049347
vt 0.17740300297737122 0.12136197090148926
vt 0.17732399702072144 0.13664501905441284
vt 0.3183009922504425 0.7630510032176971
vt 0.30589601397514343 0.755950003862381
vt 0.32771700620651245 0.7478539943695068
vt 0.1575540006160736 0.014699995517730713
vt 0.1788409948348999 0.05576401948928833
vt 0.18139000236988068 0.08437299728393555
vt 0.12995800375938416 0.002750992774963379
vt 0.26094698905944824 0.7890609949827194
vt 0.2787489891052246 0.7817530035972595
vt 0.344664990901947 0.7353000044822693
vt 0.35397401452064514 0.7287339866161346
vt 0.34817200899124146 0.7372199892997742
vt 0.339138001203537 0.726285994052887
vt 0.35657599568367004 0.7071700096130371
vt 0.3647199869155884 0.7135950028896332
vt 0.3700680136680603 0.6898179948329926
vt 0.3766759932041168 0.6938030123710632
vt 0.379040002822876 0.6743040084838867
vt 0.38539600372314453 0.6780680119991302
vt 0.26067399978637695 0.8185119926929474
vt 0.2854979932308197 0.8118820041418076
vt 0.3117780089378357 0.7855370044708252
vt 0.3245289921760559 0.7677900046110153
vt 0.34049999713897705 0.7458229959011078
vt 0.2617979943752289 0.7350600063800812
vt 0.2794719934463501 0.7341130077838898
vt 0.3280610144138336 0.6650530099868774
vt 0.3355099856853485 0.6520490050315857
vt 0.3158169984817505 0.682548999786377
vt 0.3068329989910126 0.6942929923534393
vt 0.30035701394081116 0.7245280146598816
vt 0.2832860052585602 0.7686190009117126
vt 0.26159200072288513 0.7690390050411224
vt 0.2612990140914917 0.779790997505188
vt 0.17412500083446503 0.7013719975948334
vt 0.16170300543308258 0.6837469935417175
vt 0.18171900510787964 0.6754420101642609
vt 0.1909009963274002 0.6901859939098358
vt 0.15222199261188507 0.6674000024795532
vt 0.17398099601268768 0.6600100100040436
vt 0.24023599922657013 0.80519899725914
vt 0.24401900172233582 0.7939310073852539
vt 0.21493400633335114 0.7795789986848831
vt 0.22738100588321686 0.7687090039253235
vt 0.20092999935150146 0.7042089998722076
vt 0.19042299687862396 0.7174699902534485
vt 0.10609100013971329 0.20581698417663574
vt 0.08911299705505371 0.1800379753112793
vt 0.0828540027141571 0.1562020182609558
vt 0.08298599720001221 0.14204901456832886
vt 0.21518999338150024 0.7419680058956146
vt 0.21458999812602997 0.7355909943580627
vt 0.24379999935626984 0.7459689974784851
vt 0.24253399670124054 0.7508279979228973
vt 0.0961650013923645 0.07565897703170776
vt 0.24041199684143066 0.7570360004901886
vt 0.08245500177145004 0.13659799098968506
vt 0.08239199966192245 0.12131398916244507
vt 0.1974489986896515 0.7446570098400116
vt 0.21712300181388855 0.751897007226944
vt 0.2045689970254898 0.761351004242897
vt 0.07673600316047668 0.08431601524353027
vt 0.08101800084114075 0.055712997913360596
vt 0.10234799981117249 0.014671027660369873
vt 0.24366700649261475 0.7812570035457611
vt 0.18013900518417358 0.7322219908237457
vt 0.17671899497509003 0.7342860102653503
vt 0.1708800047636032 0.7258610129356384
vt 0.16869699954986572 0.7045550048351288
vt 0.18671199679374695 0.7217560112476349
vt 0.1603650003671646 0.7108539938926697
vt 0.15550300478935242 0.6870790123939514
vt 0.14826700091362 0.691224992275238
vt 0.14640900492668152 0.6716189980506897
vt 0.13995300233364105 0.6752170026302338
vt 0.23605500161647797 0.8111380040645599
vt 0.2101210057735443 0.7841529995203018
vt 0.1982409954071045 0.7655970007181168
vt 0.1837719976902008 0.7427909970283508
vt 0.24390900135040283 0.7338959872722626
vt 0.1910409927368164 0.6513530015945435
vt 0.19766099750995636 0.6647369861602783
vt 0.20902399718761444 0.6825090050697327
vt 0.2174679934978485 0.6943170130252838
vt 0.22860099375247955 0.7073859870433807
vt 0.22068999707698822 0.7233110070228577
vt 0.2401130050420761 0.7678329944610596
vt 0.2775050103664398 0.7181380093097687
vt 0.2945910096168518 0.7069149911403656
vt 0.24540799856185913 0.7182599902153015
vt 0.261476993560791 0.7224499881267548
vt 0.8493469953536987 0.9937459998764098
vt 0.8249040246009827 0.9937459998764098
vt 0.8260160088539124 0.9730239994823933
vt 0.8495010137557983 0.9730239994823933
vt 0.8010420203208923 0.9937459998764098
vt 0.8027089834213257 0.9730239994823933
vt 0.7774209976196289 0.9937459998764098
vt 0.7796189785003662 0.9730239994823933
vt 0.7534040212631226 0.9937459998764098
vt 0.7528039813041687 0.9730239994823933
vt 0.7287790179252625 0.9937459998764098
vt 0.728767991065979 0.9730239994823933
vt 0.7018730044364929 0.9937459998764098
vt 0.7018730044364929 0.9730239994823933
vt 0.9685739874839783 0.9730239994823933
vt 0.9718080163002014 0.9937459998764098
vt 0.9484699964523315 0.9937459998764098
vt 0.9451760053634644 0.9730239994823933
vt 0.9242460131645203 0.9937459998764098
vt 0.9213809967041016 0.9730239994823933
vt 0.8995400071144104 0.9937459998764098
vt 0.8971049785614014 0.9730239994823933
vt 0.8743739724159241 0.9937459998764098
vt 0.8734009861946106 0.9730239994823933
vt 0.8921470046043396 0.9228809997439384
vt 0.8942019939422607 0.9082769975066185
vt 0.916612982749939 0.909120999276638
vt 0.9167069792747498 0.9228809997439384
vt 0.9419130086898804 0.9089749976992607
vt 0.9406780004501343 0.9228809997439384
vt 0.9693189859390259 0.912041999399662
vt 0.9955980181694031 0.9113579988479614
vt 0.9955980181694031 0.9228809997439384
vt 0.9659720063209534 0.9228809997439384
vt 0.7018740177154541 0.9119499996304512
vt 0.7300909757614136 0.9119269996881485
vt 0.731971025466919 0.9228809997439384
vt 0.7018730044364929 0.9228809997439384
vt 0.7548940181732178 0.9128889963030815
vt 0.7576950192451477 0.9228809997439384
vt 0.7772629857063293 0.9118349999189377
vt 0.778194010257721 0.9228809997439384
vt 0.80348801612854 0.9025010019540787
vt 0.805092990398407 0.9228809997439384
vt 0.826225996017456 0.903268001973629
vt 0.8310480117797852 0.9228809997439384
vt 0.8488240242004395 0.9043240025639534
vt 0.8503419756889343 0.9228809997439384
vt 0.8714349865913391 0.907990001142025
vt 0.8706600069999695 0.9228800013661385
vt 0.6738880276679993 0.5913360118865967
vt 0.6468830108642578 0.602277010679245
vt 0.665132999420166 0.5786919891834259
vt 0.651432991027832 0.5723670125007629
vt 0.6364459991455078 0.5740390121936798
vt 0.6241710186004639 0.5832709968090057
vt 0.6179289817810059 0.5976090133190155
vt 0.6194130182266235 0.6132029891014099
vt 0.628184974193573 0.6258510053157806
vt 0.641855001449585 0.6321710050106049
vt 0.6568729877471924 0.6305040121078491
vt 0.6691300272941589 0.6212680041790009
vt 0.67535400390625 0.6069270074367523
vt 0.893884003162384 0.8844090029597282
vt 0.8944290280342102 0.8791740015149117
vt 0.9175090193748474 0.8800980001688004
vt 0.9171289801597595 0.8900929987430573
vt 0.9437969923019409 0.8792290017008781
vt 0.9432179927825928 0.8896669968962669
vt 0.9955980181694031 0.8842549994587898
vt 0.9700689911842346 0.8865370005369186
vt 0.9701200127601624 0.8772030025720596
vt 0.9955980181694031 0.87950199842453
vt 0.7295029759407043 0.8850129991769791
vt 0.7018730044364929 0.8862060010433197
vt 0.7018740177154541 0.8814790025353432
vt 0.7299990057945251 0.8807270005345345
vt 0.7529929876327515 0.885393999516964
vt 0.7526490092277527 0.8810259997844696
vt 0.7784590125083923 0.8800589963793755
vt 0.779964029788971 0.8913339972496033
vt 0.8019030094146729 0.8798440024256706
vt 0.8026610016822815 0.8909849971532822
vt 0.8248639702796936 0.8915529996156693
vt 0.8252159953117371 0.8802890032529831
vt 0.8499929904937744 0.8844109997153282
vt 0.8496059775352478 0.879211999475956
vt 0.8709610104560852 0.8795239999890327
vt 0.8711850047111511 0.8845330029726028
vt 0.9171059727668762 0.8582150042057037
vt 0.9450049996376038 0.8582150042057037
vt 0.896888017654419 0.8582150042057037
vt 0.8708069920539856 0.8582150042057037
vt 0.8485350012779236 0.8582150042057037
vt 0.8238670229911804 0.8582150042057037
vt 0.8005470037460327 0.8582150042057037
vt 0.7775149941444397 0.8582150042057037
vt 0.7538430094718933 0.8582150042057037
vt 0.7331730127334595 0.8582150042057037
vt 0.7018730044364929 0.8582150042057037
vt 0.9955980181694031 0.8582150042057037
vt 0.9708700180053711 0.8582150042057037
vt 0.7812899947166443 0.9468649998307228
vt 0.8036400079727173 0.9468649998307228
vt 0.9429540038108826 0.9468649998307228
vt 0.9665340185165405 0.9468649998307228
vt 0.9955980181694031 0.9937459998764098
vt 0.9955980181694031 0.9730239994823933
vt 0.9955980181694031 0.9468649998307228
vt 0.7018730044364929 0.9468649998307228
vt 0.7297379970550537 0.9468649998307228
vt 0.7530670166015625 0.9468649998307228
vt 0.826324999332428 0.9468649998307228
vt 0.8487359881401062 0.9468649998307228
vt 0.8717129826545715 0.9468649998307228
vt 0.8940529823303223 0.9468649998307228
vt 0.9190700054168701 0.9468649998307228
vt 0.9675559997558594 0.8959859982132912
vt 0.9955980181694031 0.8903589993715286
vt 0.9955980181694031 0.8978540003299713
vt 0.9185270071029663 0.8989010006189346
vt 0.9425830245018005 0.8992599993944168
vt 0.8927099704742432 0.8998669981956482
vt 0.8942260146141052 0.8930319994688034
vt 0.8717349767684937 0.8998690024018288
vt 0.8713099956512451 0.8930760025978088
vt 0.8491290211677551 0.8928589969873428
vt 0.7798910140991211 0.9034280031919479
vt 0.7545679807662964 0.9004769995808601
vt 0.7549480199813843 0.8921229988336563
vt 0.7288839817047119 0.8990340009331703
vt 0.7291769981384277 0.8914339989423752
vt 0.7018740177154541 0.899227000772953
vt 0.7018740177154541 0.8923309966921806
vt 0.9955980181694031 0.9056330025196075
vt 0.968629002571106 0.90641800314188
vt 0.7294579744338989 0.9066879972815514
vt 0.7018740177154541 0.9063220024108887
vt 0.7575089931488037 0.908210001885891

usemtl Material

f 1/1/1 2/2/2 3/3/3
f 3/3/3 4/4/4 1/1/1
f 2/2/2 5/5/5 6/6/6
f 6/6/6 3/3/3 2/2/2
f 7/7/7 8/8/8 9/9/9
f 10/10/10 11/11/11 12/12/12
f 13/13/13 14/14/14 15/15/15
f 16/16/16 17/17/17 18/18/18
f 19/19/19 20/20/20 21/21/21
f 21/21/21 22/22/22 19/19/19
f 23/23/23 24/24/24 20/20/20
f 20/20/20 19/19/19 23/23/23
f 5/5/5 25/25/25 26/26/26
f 26/26/26 6/6/6 5/5/5
f 26/26/26 25/25/25 27/27/27
f 27/27/27 28/28/28 26/26/26
f 28/28/28 27/27/27 29/29/29
f 29/29/29 30/30/30 28/28/28
f 30/30/30 29/29/29 31/31/31
f 31/31/31 32/32/32 30/30/30
f 33/33/33 34/34/34 35/35/35
f 35/35/35 36/36/36 33/33/33
f 37/37/37 38/38/38 35/35/35
f 35/35/35 34/34/34 37/37/37
f 37/37/37 39/39/39 40/40/40
f 40/40/40 38/38/38 37/37/37
f 41/41/41 42/42/42 43/43/43
f 43/43/43 44/44/44 41/41/41
f 45/45/45 46/46/46 47/47/47
f 47/47/47 48/48/48 45/45/45
f 49/49/49 50/50/50 46/46/46
f 46/46/46 45/45/45 49/49/49
f 49/49/49 51/51/51 52/52/52
f 52/52/52 50/50/50 49/49/49
f 22/22/22 21/21/21 52/52/52
f 52/52/52 51/51/51 22/22/22
f 53/53/53 54/54/54 31/31/31
f 31/31/31 29/29/29 53/53/53
f 27/27/27 55/55/55 53/53/53
f 53/53/53 29/29/29 27/27/27
f 25/25/25 55/55/55 27/27/27
f 56/56/56 57/57/57 58/58/58
f 59/59/59 57/57/57 56/56/56
f 60/60/60 57/57/57 61/61/61
f 62/62/62 57/57/57 60/60/60
f 63/63/63 57/57/57 62/62/62
f 58/58/58 57/57/57 63/63/63
f 64/64/64 65/65/65 66/66/66
f 67/67/67 65/65/65 64/64/64
f 68/68/68 65/65/65 67/67/67
f 69/69/69 65/65/65 68/68/68
f 70/70/70 71/71/71 72/72/72
f 73/73/73 74/74/74 75/75/75
f 76/76/76 77/77/77 1/1/1
f 1/1/1 4/4/4 76/76/76
f 78/78/78 79/79/79 77/77/77
f 77/77/77 76/76/76 78/78/78
f 80/80/80 81/81/81 82/82/82
f 83/83/83 84/84/84 85/85/85
f 86/86/86 87/87/87 88/88/88
f 89/89/89 90/90/90 91/91/91
f 92/92/92 93/93/93 94/94/94
f 94/94/94 95/95/95 92/92/92
f 92/92/92 95/95/95 24/24/24
f 24/24/24 23/23/23 92/92/92
f 96/96/96 97/97/97 79/79/79
f 79/79/79 78/78/78 96/96/96
f 98/98/98 99/99/99 100/100/100
f 100/100/100 101/101/101 98/98/98
f 99/99/99 102/102/102 103/103/103
f 103/103/103 100/100/100 99/99/99
f 102/102/102 32/32/32 31/31/31
f 31/31/31 103/103/103 102/102/102
f 33/33/33 36/36/36 104/104/104
f 104/104/104 105/105/105 33/33/33
f 105/105/105 104/104/104 106/106/106
f 106/106/106 107/107/107 105/105/105
f 108/108/108 109/109/109 110/110/110
f 110/110/110 111/111/111 107/107/107
f 112/112/112 113/113/113 114/114/114
f 114/114/114 115/115/115 112/112/112
f 116/116/116 48/48/48 47/47/47
f 47/47/47 117/117/117 116/116/116
f 118/118/118 116/116/116 117/117/117
f 117/117/117 119/119/119 118/118/118
f 118/118/118 119/119/119 120/120/120
f 120/120/120 121/121/121 118/118/118
f 93/93/93 122/122/122 123/123/123
f 123/123/123 94/94/94 93/93/93
f 31/31/31 54/54/54 124/124/124
f 124/124/124 103/103/103 31/31/31
f 100/100/100 103/103/103 124/124/124
f 124/124/124 125/125/125 100/100/100
f 101/101/101 100/100/100 125/125/125
f 126/126/126 127/127/127 57/57/57
f 59/59/59 126/126/126 57/57/57
f 128/128/128 61/61/61 57/57/57
f 129/129/129 128/128/128 57/57/57
f 130/130/130 129/129/129 57/57/57
f 127/127/127 130/130/130 57/57/57
f 131/131/131 66/66/66 65/65/65
f 132/132/132 131/131/131 65/65/65
f 133/133/133 132/132/132 65/65/65
f 134/134/134 133/133/133 65/65/65
f 135/135/135 136/136/136 137/137/137
f 138/138/138 139/139/139 140/140/140
f 20/20/20 24/24/24 141/141/141
f 141/141/141 142/142/142 20/20/20
f 21/21/21 20/20/20 142/142/142
f 142/142/142 143/143/143 21/21/21
f 52/52/52 21/21/21 143/143/143
f 143/143/143 39/39/39 52/52/52
f 50/50/50 52/52/52 39/39/39
f 39/39/39 37/37/37 50/50/50
f 46/46/46 50/50/50 37/37/37
f 37/37/37 34/34/34 46/46/46
f 47/47/47 46/46/46 34/34/34
f 34/34/34 33/33/33 47/47/47
f 47/47/47 33/33/33 105/105/105
f 105/105/105 117/117/117 47/47/47
f 117/117/117 105/105/105 107/107/107
f 107/107/107 119/119/119 117/117/117
f 119/119/119 107/107/107 111/111/111
f 111/111/111 120/120/120 119/119/119
f 123/123/123 112/112/112 115/115/115
f 115/115/115 94/94/94 123/123/123
f 94/94/94 115/115/115 144/144/144
f 144/144/144 95/95/95 94/94/94
f 95/95/95 144/144/144 141/141/141
f 141/141/141 24/24/24 95/95/95
f 23/23/23 19/19/19 145/145/145
f 145/145/145 146/146/146 23/23/23
f 147/147/147 145/145/145 19/19/19
f 19/19/19 148/148/148 147/147/147
f 147/147/147 148/148/148 149/149/149
f 149/149/149 150/150/150 147/147/147
f 150/150/150 149/149/149 151/151/151
f 151/151/151 152/152/152 150/150/150
f 153/153/153 152/152/152 151/151/151
f 151/151/151 45/45/45 153/153/153
f 154/154/154 153/153/153 45/45/45
f 45/45/45 48/48/48 154/154/154
f 154/154/154 48/48/48 116/116/116
f 116/116/116 155/155/155 154/154/154
f 156/156/156 155/155/155 116/116/116
f 116/116/116 157/157/157 156/156/156
f 158/158/158 156/156/156 157/157/157
f 157/157/157 159/159/159 158/158/158
f 160/160/160 161/161/161 162/162/162
f 162/162/162 163/163/163 160/160/160
f 163/163/163 162/162/162 92/92/92
f 92/92/92 164/164/164 163/163/163
f 164/164/164 92/92/92 23/23/23
f 23/23/23 146/146/146 164/164/164
f 19/19/19 22/22/22 148/148/148
f 22/22/22 51/51/51 149/149/149
f 149/149/149 148/148/148 22/22/22
f 45/45/45 151/151/151 49/49/49
f 49/49/49 151/151/151 149/149/149
f 149/149/149 51/51/51 49/49/49
f 92/92/92 162/162/162 93/93/93
f 162/162/162 161/161/161 122/122/122
f 122/122/122 93/93/93 162/162/162
f 116/116/116 118/118/118 157/157/157
f 157/157/157 118/118/118 121/121/121
f 121/121/121 159/159/159 157/157/157
f 5/5/5 147/147/147 150/150/150
f 150/150/150 25/25/25 5/5/5
f 55/55/55 25/25/25 150/150/150
f 150/150/150 152/152/152 55/55/55
f 55/55/55 152/152/152 153/153/153
f 153/153/153 53/53/53 55/55/55
f 53/53/53 153/153/153 154/154/154
f 154/154/154 54/54/54 53/53/53
f 124/124/124 54/54/54 154/154/154
f 154/154/154 155/155/155 124/124/124
f 125/125/125 124/124/124 155/155/155
f 155/155/155 156/156/156 125/125/125
f 125/125/125 156/156/156 158/158/158
f 158/158/158 101/101/101 125/125/125
f 79/79/79 97/97/97 160/160/160
f 160/160/160 163/163/163 79/79/79
f 77/77/77 79/79/79 163/163/163
f 163/163/163 164/164/164 77/77/77
f 1/1/1 77/77/77 164/164/164
f 164/164/164 146/146/146 1/1/1
f 1/1/1 146/146/146 145/145/145
f 145/145/145 2/2/2 1/1/1
f 2/2/2 145/145/145 147/147/147
f 147/147/147 5/5/5 2/2/2
f 165/165/165 166/166/166 167/167/167
f 167/167/167 168/168/168 165/165/165
f 114/114/114 169/169/169 165/165/165
f 165/165/165 168/168/168 114/114/114
f 113/113/113 170/170/170 169/169/169
f 169/169/169 114/114/114 113/113/113
f 171/171/171 172/172/172 110/110/110
f 110/110/110 106/106/106 171/171/171
f 173/173/173 171/171/171 106/106/106
f 106/106/106 104/104/104 173/173/173
f 174/174/174 173/173/173 104/104/104
f 104/104/104 36/36/36 174/174/174
f 35/35/35 175/175/175 174/174/174
f 174/174/174 36/36/36 35/35/35
f 38/38/38 176/176/176 175/175/175
f 175/175/175 35/35/35 38/38/38
f 40/40/40 177/177/177 176/176/176
f 176/176/176 38/38/38 40/40/40
f 178/178/178 177/177/177 40/40/40
f 40/40/40 179/179/179 178/178/178
f 180/180/180 178/178/178 179/179/179
f 179/179/179 181/181/181 180/180/180
f 180/180/180 181/181/181 167/167/167
f 167/167/167 166/166/166 180/180/180
f 182/182/182 3/3/3 6/6/6
f 6/6/6 183/183/183 182/182/182
f 183/183/183 6/6/6 26/26/26
f 26/26/26 184/184/184 183/183/183
f 184/184/184 26/26/26 28/28/28
f 28/28/28 185/185/185 184/184/184
f 28/28/28 30/30/30 186/186/186
f 186/186/186 185/185/185 28/28/28
f 30/30/30 32/32/32 187/187/187
f 187/187/187 186/186/186 30/30/30
f 187/187/187 32/32/32 102/102/102
f 102/102/102 188/188/188 187/187/187
f 188/188/188 102/102/102 99/99/99
f 99/99/99 189/189/189 188/188/188
f 190/190/190 189/189/189 99/99/99
f 99/99/99 98/98/98 190/190/190
f 191/191/191 96/96/96 78/78/78
f 78/78/78 192/192/192 191/191/191
f 193/193/193 192/192/192 78/78/78
f 78/78/78 76/76/76 193/193/193
f 194/194/194 193/193/193 76/76/76
f 76/76/76 4/4/4 194/194/194
f 194/194/194 4/4/4 3/3/3
f 3/3/3 182/182/182 194/194/194
f 195/195/195 196/196/196 197/197/197
f 197/197/197 198/198/198 195/195/195
f 198/198/198 197/197/197 199/199/199
f 199/199/199 200/200/200 198/198/198
f 201/201/201 202/202/202 203/203/203
f 203/203/203 204/204/204 201/201/201
f 205/205/205 206/206/206 204/204/204
f 204/204/204 203/203/203 205/205/205
f 207/207/207 208/208/208 209/209/209
f 208/208/208 196/196/196 195/195/195
f 195/195/195 209/209/209 208/208/208
f 210/210/210 211/211/211 212/212/212
f 213/213/213 211/211/211 210/210/210
f 211/211/211 214/214/214 215/215/215
f 215/215/215 216/216/216 211/211/211
f 212/212/212 211/211/211 216/216/216
f 217/217/217 207/207/207 218/218/218
f 218/218/218 219/219/219 217/217/217
f 220/220/220 221/221/221 217/217/217
f 217/217/217 219/219/219 220/220/220
f 222/222/222 223/223/223 224/224/224
f 219/219/219 225/225/225 226/226/226
f 226/226/226 220/220/220 219/219/219
f 222/222/222 227/227/227 228/228/228
f 229/229/229 230/230/230 218/218/218
f 218/218/218 231/231/231 229/229/229
f 230/230/230 225/225/225 219/219/219
f 219/219/219 218/218/218 230/230/230
f 206/206/206 205/205/205 230/230/230
f 230/230/230 229/229/229 206/206/206
f 224/224/224 232/232/232 233/233/233
f 233/233/233 234/234/234 224/224/224
f 223/223/223 235/235/235 232/232/232
f 232/232/232 224/224/224 223/223/223
f 203/203/203 202/202/202 236/236/236
f 236/236/236 237/237/237 203/203/203
f 238/238/238 239/239/239 240/240/240
f 239/239/239 241/241/241 242/242/242
f 242/242/242 243/243/243 239/239/239
f 243/243/243 242/242/242 244/244/244
f 244/244/244 245/245/245 243/243/243
f 245/245/245 244/244/244 246/246/246
f 246/246/246 247/247/247 245/245/245
f 248/248/248 201/201/201 204/204/204
f 204/204/204 249/249/249 248/248/248
f 249/249/249 204/204/204 206/206/206
f 206/206/206 250/250/250 249/249/249
f 251/251/251 250/250/250 206/206/206
f 206/206/206 229/229/229 251/251/251
f 238/238/238 252/252/252 231/231/231
f 253/253/253 254/254/254 217/217/217
f 217/217/217 221/221/221 253/253/253
f 199/199/199 197/197/197 255/255/255
f 255/255/255 256/256/256 199/199/199
f 196/196/196 257/257/257 255/255/255
f 255/255/255 197/197/197 196/196/196
f 208/208/208 258/258/258 257/257/257
f 257/257/257 196/196/196 208/208/208
f 207/207/207 259/259/259 208/208/208
f 254/254/254 259/259/259 207/207/207
f 207/207/207 217/217/217 254/254/254
f 222/222/222 228/228/228 215/215/215
f 215/215/215 214/214/214 222/222/222
f 205/205/205 260/260/260 225/225/225
f 225/225/225 230/230/230 205/205/205
f 260/260/260 261/261/261 226/226/226
f 226/226/226 225/225/225 260/260/260
f 251/251/251 229/229/229 231/231/231
f 231/231/231 252/252/252 251/251/251
f 224/224/224 234/234/234 227/227/227
f 227/227/227 222/222/222 224/224/224
f 237/237/237 262/262/262 261/261/261
f 261/261/261 260/260/260 237/237/237
f 237/237/237 260/260/260 205/205/205
f 205/205/205 203/203/203 237/237/237
f 263/263/263 264/264/264 265/265/265
f 265/265/265 266/266/266 263/263/263
f 264/264/264 267/267/267 268/268/268
f 268/268/268 265/265/265 264/264/264
f 201/201/201 269/269/269 270/270/270
f 270/270/270 202/202/202 201/201/201
f 269/269/269 271/271/271 272/272/272
f 272/272/272 270/270/270 269/269/269
f 266/266/266 273/273/273 274/274/274
f 274/274/274 263/263/263 266/266/266
f 275/275/275 276/276/276 211/211/211
f 213/213/213 275/275/275 211/211/211
f 211/211/211 277/277/277 278/278/278
f 278/278/278 214/214/214 211/211/211
f 276/276/276 277/277/277 211/211/211
f 279/279/279 280/280/280 281/281/281
f 281/281/281 282/282/282 279/279/279
f 220/220/220 282/282/282 281/281/281
f 281/281/281 221/221/221 220/220/220
f 222/222/222 283/283/283 223/223/223
f 282/282/282 220/220/220 226/226/226
f 226/226/226 284/284/284 282/282/282
f 222/222/222 285/285/285 286/286/286
f 287/287/287 279/279/279 288/288/288
f 288/288/288 289/289/289 287/287/287
f 282/282/282 284/284/284 288/288/288
f 288/288/288 279/279/279 282/282/282
f 288/288/288 272/272/272 271/271/271
f 271/271/271 289/289/289 288/288/288
f 283/283/283 290/290/290 291/291/291
f 291/291/291 292/292/292 283/283/283
f 223/223/223 283/283/283 292/292/292
f 292/292/292 235/235/235 223/223/223
f 236/236/236 202/202/202 270/270/270
f 270/270/270 293/293/293 236/236/236
f 294/294/294 295/295/295 296/296/296
f 297/297/297 298/298/298 296/296/296
f 296/296/296 299/299/299 297/297/297
f 300/300/300 297/297/297 299/299/299
f 299/299/299 301/301/301 300/300/300
f 302/302/302 300/300/300 301/301/301
f 301/301/301 303/303/303 302/302/302
f 248/248/248 304/304/304 269/269/269
f 269/269/269 201/201/201 248/248/248
f 304/304/304 305/305/305 271/271/271
f 271/271/271 269/269/269 304/304/304
f 306/306/306 289/289/289 271/271/271
f 271/271/271 305/305/305 306/306/306
f 294/294/294 287/287/287 307/307/307
f 281/281/281 308/308/308 253/253/253
f 253/253/253 221/221/221 281/281/281
f 268/268/268 309/309/309 310/310/310
f 310/310/310 265/265/265 268/268/268
f 266/266/266 265/265/265 310/310/310
f 310/310/310 311/311/311 266/266/266
f 273/273/273 266/266/266 311/311/311
f 311/311/311 312/312/312 273/273/273
f 273/273/273 312/312/312 313/313/313
f 313/313/313 314/314/314 273/273/273
f 280/280/280 314/314/314 308/308/308
f 308/308/308 281/281/281 280/280/280
f 278/278/278 285/285/285 222/222/222
f 222/222/222 214/214/214 278/278/278
f 272/272/272 288/288/288 284/284/284
f 284/284/284 315/315/315 272/272/272
f 315/315/315 284/284/284 226/226/226
f 226/226/226 261/261/261 315/315/315
f 287/287/287 294/294/294 298/298/298
f 279/279/279 287/287/287 298/298/298
f 287/287/287 289/289/289 306/306/306
f 306/306/306 307/307/307 287/287/287
f 286/286/286 290/290/290 283/283/283
f 283/283/283 222/222/222 286/286/286
f 293/293/293 315/315/315 261/261/261
f 261/261/261 262/262/262 293/293/293
f 293/293/293 270/270/270 272/272/272
f 272/272/272 315/315/315 293/293/293
f 241/241/241 231/231/231 218/218/218
f 218/218/218 207/207/207 209/209/209
f 209/209/209 241/241/241 218/218/218
f 280/280/280 279/279/279 298/298/298
f 298/298/298 274/274/274 280/280/280
f 242/242/242 195/195/195 198/198/198
f 198/198/198 244/244/244 242/242/242
f 244/244/244 198/198/198 200/200/200
f 200/200/200 246/246/246 244/244/244
f 300/300/300 302/302/302 267/267/267
f 267/267/267 264/264/264 300/300/300
f 297/297/297 300/300/300 264/264/264
f 264/264/264 263/263/263 297/297/297
f 241/241/241 209/209/209 195/195/195
f 195/195/195 242/242/242 241/241/241
f 298/298/298 297/297/297 263/263/263
f 263/263/263 274/274/274 298/298/298
f 238/238/238 231/231/231 241/241/241
f 293/293/293 262/262/262 236/236/236
f 237/237/237 236/236/236 262/262/262
f 238/238/238 241/241/241 239/239/239
f 296/296/296 298/298/298 294/294/294
f 316/316/316 317/317/317 259/259/259
f 259/259/259 254/254/254 316/316/316
f 314/314/314 313/313/313 318/318/318
f 318/318/318 308/308/308 314/314/314
f 308/308/308 318/318/318 319/319/319
f 319/319/319 253/253/253 308/308/308
f 254/254/254 253/253/253 319/319/319
f 319/319/319 316/316/316 254/254/254
f 208/208/208 259/259/259 317/317/317
f 317/317/317 258/258/258 208/208/208
f 314/314/314 280/280/280 274/274/274
f 274/274/274 273/273/273 314/314/314
f 320/320/320 321/321/321 322/322/322
f 322/322/322 323/323/323 320/320/320
f 321/321/321 324/324/324 325/325/325
f 325/325/325 322/322/322 321/321/321
f 324/324/324 326/326/326 327/327/327
f 327/327/327 325/325/325 324/324/324
f 327/327/327 326/326/326 328/328/328
f 328/328/328 329/329/329 327/327/327
f 329/329/329 328/328/328 330/330/330
f 330/330/330 331/331/331 329/329/329
f 330/330/330 332/332/332 333/333/333
f 333/333/333 331/331/331 330/330/330
f 334/334/334 335/335/335 336/336/336
f 336/336/336 337/337/337 334/334/334
f 337/337/337 336/336/336 338/338/338
f 338/338/338 339/339/339 337/337/337
f 339/339/339 338/338/338 340/340/340
f 340/340/340 341/341/341 339/339/339
f 341/341/341 340/340/340 342/342/342
f 342/342/342 343/343/343 341/341/341
f 342/342/342 320/320/320 323/323/323
f 323/323/323 343/343/343 342/342/342
f 344/344/344 345/345/345 346/346/346
f 346/346/346 347/347/347 344/344/344
f 347/347/347 346/346/346 348/348/348
f 348/348/348 349/349/349 347/347/347
f 350/350/350 351/351/351 352/352/352
f 352/352/352 353/353/353 350/350/350
f 354/354/354 355/355/355 356/356/356
f 356/356/356 357/357/357 354/354/354
f 355/355/355 358/358/358 359/359/359
f 359/359/359 356/356/356 355/355/355
f 358/358/358 360/360/360 361/361/361
f 361/361/361 359/359/359 358/358/358
f 360/360/360 362/362/362 363/363/363
f 363/363/363 361/361/361 360/360/360
f 363/363/363 362/362/362 364/364/364
f 364/364/364 365/365/365 363/363/363
f 365/365/365 364/364/364 366/366/366
f 366/366/366 367/367/367 365/365/365
f 367/367/367 366/366/366 368/368/368
f 368/368/368 369/369/369 367/367/367
f 370/370/370 371/371/371 372/372/372
f 372/372/372 371/371/371 373/373/373
f 373/373/373 371/371/371 374/374/374
f 374/374/374 371/371/371 375/375/375
f 375/375/375 371/371/371 376/376/376
f 376/376/376 371/371/371 377/377/377
f 377/377/377 371/371/371 378/378/378
f 378/378/378 371/371/371 379/379/379
f 379/379/379 371/371/371 380/380/380
f 380/380/380 371/371/371 381/381/381
f 381/381/381 371/371/371 382/382/382
f 382/382/382 371/371/371 370/370/370
f 368/368/368 345/345/345 344/344/344
f 344/344/344 369/369/369 368/368/368
f 383/383/383 384/384/384 385/385/385
f 385/385/385 386/386/386 383/383/383
f 386/386/386 385/385/385 387/387/387
f 387/387/387 388/388/388 386/386/386
f 389/389/389 390/390/390 391/391/391
f 391/391/391 392/392/392 389/389/389
f 393/393/393 394/394/394 395/395/395
f 395/395/395 396/396/396 393/393/393
f 397/397/397 393/393/393 396/396/396
f 396/396/396 398/398/398 397/397/397
f 397/397/397 398/398/398 399/399/399
f 399/399/399 400/400/400 397/397/397
f 400/400/400 399/399/399 401/401/401
f 401/401/401 402/402/402 400/400/400
f 403/403/403 402/402/402 401/401/401
f 401/401/401 404/404/404 403/403/403
f 405/405/405 403/403/403 404/404/404
f 404/404/404 406/406/406 405/405/405
f 405/405/405 406/406/406 407/407/407
f 407/407/407 408/408/408 405/405/405
f 408/408/408 407/407/407 384/384/384
f 384/384/384 383/383/383 408/408/408
f 385/385/385 409/409/409 410/410/410
f 410/410/410 387/387/387 385/385/385
f 409/409/409 385/385/385 384/384/384
f 384/384/384 411/411/411 409/409/409
f 407/407/407 412/412/412 411/411/411
f 411/411/411 384/384/384 407/407/407
f 406/406/406 413/413/413 412/412/412
f 412/412/412 407/407/407 406/406/406
f 414/414/414 413/413/413 406/406/406
f 406/406/406 404/404/404 414/414/414
f 401/401/401 415/415/415 414/414/414
f 414/414/414 404/404/404 401/401/401
f 416/416/416 415/415/415 401/401/401
f 401/401/401 399/399/399 416/416/416
f 417/417/417 416/416/416 399/399/399
f 399/399/399 398/398/398 417/417/417
f 418/418/418 417/417/417 398/398/398
f 398/398/398 396/396/396 418/418/418
f 395/395/395 419/419/419 418/418/418
f 418/418/418 396/396/396 395/395/395
f 420/420/420 392/392/392 391/391/391
f 391/391/391 421/421/421 420/420/420
f 422/422/422 423/423/423 325/325/325
f 325/325/325 327/327/327 422/422/422
f 353/353/353 349/349/349 348/348/348
f 348/348/348 350/350/350 353/353/353
f 390/390/390 388/388/388 387/387/387
f 387/387/387 391/391/391 390/390/390
f 410/410/410 421/421/421 391/391/391
f 391/391/391 387/387/387 410/410/410
f 337/337/337 424/424/424 425/425/425
f 425/425/425 334/334/334 337/337/337
f 426/426/426 335/335/335 334/334/334
f 334/334/334 427/427/427 426/426/426
f 349/349/349 353/353/353 425/425/425
f 425/425/425 424/424/424 349/349/349
f 425/425/425 353/353/353 352/352/352
f 352/352/352 428/428/428 425/425/425
f 429/429/429 357/357/357 356/356/356
f 356/356/356 430/430/430 429/429/429
f 356/356/356 359/359/359 431/431/431
f 431/431/431 430/430/430 356/356/356
f 359/359/359 361/361/361 422/422/422
f 422/422/422 431/431/431 359/359/359
f 422/422/422 361/361/361 363/363/363
f 363/363/363 423/423/423 422/422/422
f 363/363/363 365/365/365 432/432/432
f 432/432/432 423/423/423 363/363/363
f 365/365/365 367/367/367 433/433/433
f 433/433/433 432/432/432 365/365/365
f 367/367/367 369/369/369 434/434/434
f 434/434/434 433/433/433 367/367/367
f 434/434/434 369/369/369 344/344/344
f 344/344/344 435/435/435 434/434/434
f 435/435/435 344/344/344 347/347/347
f 347/347/347 436/436/436 435/435/435
f 436/436/436 347/347/347 349/349/349
f 349/349/349 424/424/424 436/436/436
f 339/339/339 436/436/436 424/424/424
f 424/424/424 337/337/337 339/339/339
f 341/341/341 435/435/435 436/436/436
f 436/436/436 339/339/339 341/341/341
f 343/343/343 434/434/434 435/435/435
f 435/435/435 341/341/341 343/343/343
f 323/323/323 433/433/433 434/434/434
f 434/434/434 343/343/343 323/323/323
f 432/432/432 433/433/433 323/323/323
f 323/323/323 322/322/322 432/432/432
f 423/423/423 432/432/432 322/322/322
f 322/322/322 325/325/325 423/423/423
f 425/425/425 428/428/428 427/427/427
f 427/427/427 334/334/334 425/425/425
f 331/331/331 333/333/333 429/429/429
f 429/429/429 430/430/430 331/331/331
f 331/331/331 430/430/430 431/431/431
f 431/431/431 329/329/329 331/331/331
f 327/327/327 329/329/329 431/431/431
f 431/431/431 422/422/422 327/327/327
f 437/437/437 390/390/390 438/438/438
f 438/438/438 439/439/439 437/437/437
f 440/440/440 386/386/386 388/388/388
f 388/388/388 441/441/441 440/440/440
f 442/442/442 443/443/443 386/386/386
f 386/386/386 440/440/440 442/442/442
f 444/444/444 445/445/445 443/443/443
f 443/443/443 442/442/442 444/444/444
f 444/444/444 366/366/366 446/446/446
f 446/446/446 445/445/445 444/444/444
f 364/364/364 403/403/403 446/446/446
f 446/446/446 366/366/366 364/364/364
f 362/362/362 402/402/402 403/403/403
f 403/403/403 364/364/364 362/362/362
f 447/447/447 448/448/448 449/449/449
f 449/449/449 400/400/400 447/447/447
f 448/448/448 450/450/450 451/451/451
f 451/451/451 449/449/449 448/448/448
f 452/452/452 453/453/453 451/451/451
f 451/451/451 450/450/450 452/452/452
f 438/438/438 390/390/390 389/389/389
f 386/386/386 443/443/443 383/383/383
f 445/445/445 408/408/408 383/383/383
f 383/383/383 443/443/443 445/445/445
f 446/446/446 405/405/405 408/408/408
f 408/408/408 445/445/445 446/446/446
f 446/446/446 403/403/403 405/405/405
f 400/400/400 449/449/449 397/397/397
f 451/451/451 393/393/393 397/397/397
f 397/397/397 449/449/449 451/451/451
f 451/451/451 453/453/453 394/394/394
f 394/394/394 393/393/393 451/451/451
f 454/454/454 455/455/455 437/437/437
f 437/437/437 439/439/439 454/454/454
f 348/348/348 346/346/346 440/440/440
f 440/440/440 441/441/441 348/348/348
f 345/345/345 442/442/442 440/440/440
f 440/440/440 346/346/346 345/345/345
f 368/368/368 366/366/366 444/444/444
f 368/368/368 444/444/444 442/442/442
f 442/442/442 345/345/345 368/368/368
f 452/452/452 450/450/450 456/456/456
f 456/456/456 457/457/457 452/452/452
f 448/448/448 458/458/458 456/456/456
f 456/456/456 450/450/450 448/448/448
f 448/448/448 447/447/447 458/458/458
f 400/400/400 402/402/402 362/362/362
f 362/362/362 447/447/447 400/400/400
f 437/437/437 455/455/455 348/348/348
f 348/348/348 441/441/441 437/437/437
f 388/388/388 390/390/390 437/437/437
f 437/437/437 441/441/441 388/388/388
f 455/455/455 350/350/350 348/348/348
f 350/350/350 455/455/455 454/454/454
f 454/454/454 351/351/351 350/350/350
f 354/354/354 457/457/457 456/456/456
f 456/456/456 355/355/355 354/354/354
f 358/358/358 355/355/355 456/456/456
f 456/456/456 458/458/458 358/358/358
f 360/360/360 358/358/358 458/458/458
f 458/458/458 447/447/447 360/360/360
f 362/362/362 360/360/360 447/447/447