mtllib 33308564.mtl
o Mesh

v -0.23339200019836426 -0.8867939710617065 -0.47851499915122986
v -0.1554960012435913 -0.8161089420318604 -0.6488929986953735
v -0.16511499881744385 -0.9962090253829956 -0.6839320063591003
v -0.2464209944009781 -0.9962090253829956 -0.5027729868888855
v -0.12737900018692017 1.205894947052002 0.18907099962234497
v -0.12737900018692017 1.205894947052002 -0.2164289951324463
v -0.2698509991168976 1.0087250471115112 -0.22697700560092926
v -0.2698509991168976 1.0087250471115112 0.2125750035047531
v -0.29455700516700745 -0.9962090253829956 0.18969200551509857
v -0.16511599719524384 -0.9962090253829956 0.3582960069179535
v -0.14572300016880035 -0.8185369968414307 0.3204270005226135
v -0.2731870114803314 -0.8181949853897095 0.14772099256515503
v -0.16511599719524384 -0.9962090253829956 -0.2606630027294159
v -0.16511599719524384 -0.9962090253829956 0.3582960069179535
v -0.29455700516700745 -0.9962090253829956 0.18969200551509857
v -0.29455700516700745 -0.9962090253829956 -0.2606630027294159
v -0.2731870114803314 -0.8536770343780518 -0.25234898924827576
v -0.29455700516700745 -0.9962090253829956 -0.2606630027294159
v 0.40172699093818665 -0.8181949853897095 0.14772099256515503
v 0.4230949878692627 -0.9962090253829956 0.18969200551509857
v 0.4230949878692627 -0.9962090253829956 -0.2606630027294159
v 0.40172699093818665 -0.8536770343780518 -0.25234898924827576
v -0.1036050021648407 -0.06493699550628662 -0.33792799711227417
v -0.17576900124549866 0.007498025894165039 -0.46568500995635986
v -0.35421299934387207 -0.0656280517578125 -0.261584997177124
v -0.2284030020236969 -0.06493699550628662 -0.1936350017786026
v 0.3569430112838745 -0.06493699550628662 -0.1936350017786026
v 0.3569430112838745 -0.06493699550628662 0.1500059962272644
v 0.4827530086040497 -0.0656280517578125 0.16237199306488037
v 0.4827530086040497 -0.0656280517578125 -0.261584997177124
v -0.17576900124549866 0.0073999762535095215 0.3860909938812256
v -0.1036050021648407 -0.06493699550628662 0.3081679940223694
v -0.2284030020236969 -0.06493699550628662 0.1500059962272644
v -0.35421299934387207 -0.0656280517578125 0.16237199306488037
v -0.1267790049314499 1.0037449598312378 -0.3768100142478943
v 0.38599398732185364 0.7153249979019165 -0.2179120033979416
v 0.38599398732185364 0.7153249979019165 0.13341499865055084
v 0.33164098858833313 0.2900949716567993 0.09122099727392197
v 0.33164098858833313 0.2900949716567993 -0.18555200099945068
v -0.12681500613689423 1.0118650197982788 0.34175100922584534
v -0.2574549913406372 0.7153249979019165 -0.2179120033979416
v -0.2031019926071167 0.2900949716567993 -0.18555200099945068
v -0.2031019926071167 0.2900949716567993 0.09122099727392197
v -0.2574549913406372 0.7153249979019165 0.13341499865055084
v -0.08909299969673157 0.2900949716567993 -0.3233340084552765
v -0.13103799521923065 0.13060498237609863 -0.37653300166130066
v -0.23766100406646729 0.13060498237609863 -0.20687299966812134
v -0.2031019926071167 0.2900949716567993 -0.18555200099945068
v 0.3662000000476837 0.13060498237609863 0.09621699899435043
v 0.3662000000476837 0.13060498237609863 -0.20687299966812134
v -0.10891599953174591 0.13060498237609863 0.23297299444675446
v -0.08909299969673157 0.2900949716567993 0.24224700033664703
v -0.2031019926071167 0.2900949716567993 0.09122099727392197
v -0.23766100406646729 0.13060498237609863 0.09621699899435043
v -0.23766100406646729 0.13060498237609863 -0.20687299966812134
v -0.23766100406646729 0.13060498237609863 0.09621699899435043
v -0.26692700386047363 -0.9962090253829956 -0.38570600748062134
v -0.16511499881744385 -0.9962090253829956 -0.5077570080757141
v -0.25034499168395996 -0.8850619792938232 -0.38216400146484375
v -0.26692700386047363 -0.9962090253829956 -0.38570600748062134
v -0.25034499168395996 -0.8850619792938232 -0.38216400146484375
v -0.2731870114803314 -0.8536770343780518 -0.25234898924827576
v -0.14572200179100037 -0.7583709955215454 -0.40616899728775024
v -0.15133200585842133 -0.8209049701690674 -0.5454879999160767
v 0.3788850009441376 -0.8850619792938232 -0.38216400146484375
v 0.39546701312065125 -0.9962090253829956 -0.38570600748062134
v 0.22238099575042725 0.2900949716567993 -0.3233340084552765
v 0.33164098858833313 0.2900949716567993 -0.18555200099945068
v 0.3662000000476837 0.13060498237609863 -0.20687299966812134
v 0.26494100689888 0.13060498237609863 -0.37653300166130066
v 0.23734299838542938 -0.06493699550628662 -0.33792799711227417
v 0.3117409944534302 0.007498025894165039 -0.46568500995635986
v 0.3788850009441376 -0.8850619792938232 -0.38216400146484375
v 0.286547988653183 -0.8209049701690674 -0.5454879999160767
v 0.28076401352882385 -0.7583709955215454 -0.40616899728775024
v 0.40172699093818665 -0.8536770343780518 -0.25234898924827576
v 0.3619309961795807 -0.8867939710617065 -0.47851499915122986
v 0.3749600052833557 -0.9962090253829956 -0.5027729868888855
v 0.3007580041885376 -0.9962090253829956 -0.6839320063591003
v 0.2908410131931305 -0.8161089420318604 -0.6488929986953735
v 0.39546701312065125 -0.9962090253829956 -0.38570600748062134
v 0.4230949878692627 -0.9962090253829956 -0.2606630027294159
v 0.3007569909095764 -0.9962090253829956 -0.2606630027294159
v 0.3007580041885376 -0.9962090253829956 -0.5077570080757141
v 0.4230949878692627 -0.9962090253829956 0.18969200551509857
v 0.3007569909095764 -0.9962090253829956 0.3582960069179535
v 0.28076401352882385 -0.8185369968414307 0.3204270005226135
v 0.3007569909095764 -0.9962090253829956 0.3582960069179535
v 0.3117409944534302 0.0073999762535095215 0.3860909938812256
v 0.23734299838542938 -0.06493699550628662 0.3081679940223694
v 0.24281799793243408 0.13060498237609863 0.23297299444675446
v 0.3662000000476837 0.13060498237609863 0.09621699899435043
v 0.33164098858833313 0.2900949716567993 0.09122099727392197
v 0.22238099575042725 0.2900949716567993 0.24224700033664703
v 0.3983910083770752 1.0087250471115112 0.2125760018825531
v 0.26185300946235657 1.2058939933776855 0.18907099962234497
v 0.26121100783348083 0.9986050128936768 0.34063899517059326
v 0.3983910083770752 1.0087250471115112 -0.22697600722312927
v 0.26185300946235657 1.205894947052002 -0.2164289951324463
v 0.26124799251556396 1.0066750049591064 -0.3768729865550995
v 0.010831000283360481 0.2900949716567993 -0.34417399764060974
v -0.004005999770015478 0.13060498237609863 -0.41171398758888245
v 0.005772999953478575 -0.06493699550628662 -0.35975199937820435
v -0.0193719994276762 0.04891902208328247 -0.49752798676490784
v 0.00992400012910366 -0.7243419885635376 -0.4411199986934662
v 0.0091559998691082 -0.7885830402374268 -0.6345289945602417
v 0.008586999960243702 -0.7284530401229858 -0.7780809998512268
v 0.006192000117152929 -0.9962090253829956 -0.8131200075149536
v -0.003117999993264675 -0.9962090253829956 -0.5819090008735657
v -0.015660999342799187 -0.9962090253829956 -0.2606630027294159
v -0.015660999342799187 -0.9962090253829956 0.42377299070358276
v -0.16511599719524384 -0.9962090253829956 0.3582960069179535
v -0.015660999342799187 -0.9962090253829956 0.42377299070358276
v -0.008902999572455883 -0.8185369968414307 0.3859040141105652
v -0.14572300016880035 -0.8185369968414307 0.3204270005226135
v -0.0193719994276762 0.048776984214782715 0.43484100699424744
v 0.005772999953478575 -0.06493699550628662 0.3408310115337372
v 0.003922999836504459 0.13060498237609863 0.2507590055465698
v 0.010831000283360481 0.2900949716567993 0.25554099678993225
v -0.002334000077098608 1.007604956626892 0.3837049901485443
v -0.0025110000278800726 1.205894947052002 0.18907099962234497
v -0.0025110000278800726 1.205894947052002 -0.2555699944496155
v -0.0022980000358074903 1.0046850442886353 -0.4159710109233856
v -0.1036050021648407 -0.06493699550628662 -0.33792799711227417
v -0.2284030020236969 -0.06493699550628662 -0.1936350017786026
v -0.2284030020236969 -0.06493699550628662 -0.1936350017786026
v -0.2284030020236969 -0.06493699550628662 0.1500059962272644
v -0.2284030020236969 -0.06493699550628662 0.1500059962272644
v -0.1036050021648407 -0.06493699550628662 0.3081679940223694
v 0.005772999953478575 -0.06493699550628662 0.3408310115337372
v 0.3569430112838745 -0.06493699550628662 0.1500059962272644
v 0.23734299838542938 -0.06493699550628662 0.3081679940223694
v 0.3569430112838745 -0.06493699550628662 0.1500059962272644
v 0.3569430112838745 -0.06493699550628662 -0.1936350017786026
v 0.3569430112838745 -0.06493699550628662 -0.1936350017786026
v 0.23734299838542938 -0.06493699550628662 -0.33792799711227417
v 0.005772999953478575 -0.06493699550628662 -0.35975199937820435
v 0.38599398732185364 0.7153249979019165 -0.2179120033979416
v 0.25416499376296997 0.7141050100326538 -0.3705179989337921
v -0.11991400271654129 0.7123749852180481 -0.3704800009727478
v 9.300000237999484e-05 0.7129349708557129 -0.40331900119781494
v -0.2574549913406372 0.7153249979019165 -0.2179120033979416
v -0.11993499845266342 0.7171850204467773 0.27990201115608215
v -0.2574549913406372 0.7153249979019165 0.13341499865055084
v 7.100000220816582e-05 0.7146649956703186 0.3108940124511719
v 0.38599398732185364 0.7153249979019165 0.13341499865055084
v 0.25414299964904785 0.7093349695205688 0.27924400568008423
v 0.1128619983792305 -0.7885830402374268 -0.6345289945602417
v 0.1123109981417656 -0.7243419885635376 -0.4411199986934662
v 0.11546000093221664 -0.9962090253829956 -0.8131200075149536
v 0.11327199637889862 -0.7284530401229858 -0.7780809998512268
v 0.13731099665164948 -0.9962090253829956 -0.2606630027294159
v 0.12476900219917297 -0.9962090253829956 -0.5819090008735657
v 0.13731099665164948 -0.9962090253829956 0.42377299070358276
v 0.3007569909095764 -0.9962090253829956 0.3582960069179535
v 0.28076401352882385 -0.8185369968414307 0.3204270005226135
v 0.13113699853420258 -0.8185369968414307 0.3859040141105652
v 0.13731099665164948 -0.9962090253829956 0.42377299070358276
v 0.14070400595664978 0.048776984214782715 0.43484100699424744
v 0.11772499978542328 -0.06493699550628662 0.3408310115337372
v 0.1194159984588623 0.13060498237609863 0.2507590055465698
v 0.11772499978542328 -0.06493699550628662 0.3408310115337372
v 0.11310400068759918 0.2900949716567993 0.25554099678993225
v 0.12290199846029282 0.7120850086212158 0.31067800521850586
v 0.1252959966659546 1.205894947052002 0.18907099962234497
v 0.1250769942998886 1.003255009651184 0.3833400011062622
v 0.1252959966659546 1.205894947052002 -0.2555699944496155
v 0.12511299550533295 1.0056450366973877 -0.41599100828170776
v 0.11310400068759918 0.2900949716567993 -0.34417399764060974
v 0.12292400002479553 0.7135050296783447 -0.4033310115337372
v 0.12601600587368011 0.13060498237609863 -0.41171398758888245
v 0.11772499978542328 -0.06493699550628662 -0.35975199937820435
v 0.14070400595664978 0.04891902208328247 -0.49752798676490784
v 0.11772499978542328 -0.06493699550628662 -0.35975199937820435
v -0.2698509991168976 1.0087250471115112 -0.22697700560092926
v -0.1267790049314499 1.0037449598312378 -0.3768100142478943
v -0.0022980000358074903 1.0046850442886353 -0.4159710109233856
v 0.12511299550533295 1.0056450366973877 -0.41599100828170776
v 0.26124799251556396 1.0066750049591064 -0.3768729865550995
v 0.3983910083770752 1.0087250471115112 -0.22697600722312927
v 0.3983910083770752 1.0087250471115112 -0.22697600722312927
v 0.3983910083770752 1.0087250471115112 0.2125760018825531
v 0.3983910083770752 1.0087250471115112 0.2125760018825531
v 0.26121100783348083 0.9986050128936768 0.34063899517059326
v 0.1250769942998886 1.003255009651184 0.3833400011062622
v -0.002334000077098608 1.007604956626892 0.3837049901485443
v -0.12681500613689423 1.0118650197982788 0.34175100922584534
v -0.2698509991168976 1.0087250471115112 0.2125750035047531
v -0.2698509991168976 1.0087250471115112 -0.22697700560092926
v -0.2698509991168976 1.0087250471115112 0.2125750035047531
v -0.35421299934387207 -0.0656280517578125 -0.261584997177124
v -0.17576900124549866 0.007498025894165039 -0.46568500995635986
v -0.11687099933624268 -0.3278850317001343 -0.35460299253463745
v -0.2515310049057007 -0.3969459533691406 -0.21081799268722534
v -0.35421299934387207 -0.0656280517578125 0.16237199306488037
v -0.35421299934387207 -0.0656280517578125 -0.261584997177124
v -0.2515310049057007 -0.3969459533691406 -0.21081799268722534
v -0.2515310049057007 -0.3969459533691406 0.15298199653625488
v -0.11687099933624268 -0.3990260362625122 0.29783400893211365
v -0.17576900124549866 0.0073999762535095215 0.3860909938812256
v 0.001151000033132732 -0.3990260362625122 0.3440699875354767
v -0.0193719994276762 0.048776984214782715 0.43484100699424744
v -0.17576900124549866 0.0073999762535095215 0.3860909938812256
v -0.11687099933624268 -0.3990260362625122 0.29783400893211365
v 0.12195000052452087 -0.3990260362625122 0.3440699875354767
v 0.14070400595664978 0.048776984214782715 0.43484100699424744
v 0.25102001428604126 -0.3990260362625122 0.29783400893211365
v 0.3117409944534302 0.0073999762535095215 0.3860909938812256
v 0.25102001428604126 -0.3990260362625122 0.29783400893211365
v 0.3800710141658783 -0.3969459533691406 0.15298199653625488
v 0.4827530086040497 -0.0656280517578125 0.16237199306488037
v 0.3117409944534302 0.0073999762535095215 0.3860909938812256
v 0.3800710141658783 -0.3969459533691406 -0.21081799268722534
v 0.4827530086040497 -0.0656280517578125 -0.261584997177124
v 0.4827530086040497 -0.0656280517578125 -0.261584997177124
v 0.3800710141658783 -0.3969459533691406 -0.21081799268722534
v 0.25102001428604126 -0.3278850317001343 -0.35460299253463745
v 0.3117409944534302 0.007498025894165039 -0.46568500995635986
v 0.12195000052452087 -0.31310904026031494 -0.3815689980983734
v 0.14070400595664978 0.04891902208328247 -0.49752798676490784
v 0.001151000033132732 -0.31310904026031494 -0.3815689980983734
v -0.0193719994276762 0.04891902208328247 -0.49752798676490784
v -0.11844299733638763 -0.5726269483566284 -0.3302150070667267
v -0.2384919971227646 -0.6363129615783691 -0.1972929984331131
v -0.2384919971227646 -0.6363129615783691 -0.1972929984331131
v -0.2384919971227646 -0.6522840261459351 0.13099299371242523
v -0.11844299733638763 -0.6576449871063232 0.28959500789642334
v 0.00060299999313429 -0.6576449871063232 0.345223993062973
v -0.11844299733638763 -0.6576449871063232 0.28959500789642334
v 0.12245000153779984 -0.6576449871063232 0.345223993062973
v 0.2526409924030304 -0.6576449871063232 0.28959500789642334
v 0.2526409924030304 -0.6576449871063232 0.28959500789642334
v 0.367031991481781 -0.6522840261459351 0.13099299371242523
v 0.367031991481781 -0.6363129615783691 -0.1972929984331131
v 0.367031991481781 -0.6363129615783691 -0.1972929984331131
v 0.2526409924030304 -0.5726269483566284 -0.3302150070667267
v 0.11416900157928467 -0.5443060398101807 -0.3606700003147125
v 0.008883999660611153 -0.5443060398101807 -0.3606700003147125
v -0.23339200019836426 -0.8867939710617065 -0.47851499915122986
v -0.2464209944009781 -0.9962090253829956 -0.5027729868888855
v -0.2464209944009781 -0.9962090253829956 -0.5027729868888855
v -0.16511499881744385 -0.9962090253829956 -0.6839320063591003
v 0.006192000117152929 -0.9962090253829956 -0.8131200075149536
v 0.11546000093221664 -0.9962090253829956 -0.8131200075149536
v 0.3007580041885376 -0.9962090253829956 -0.6839320063591003
v 0.3749600052833557 -0.9962090253829956 -0.5027729868888855
v 0.3619309961795807 -0.8867939710617065 -0.47851499915122986
v 0.3749600052833557 -0.9962090253829956 -0.5027729868888855

vn -0.8762900233268738 0.43096500635147095 -0.21537399291992188
vn -0.6828950047492981 0.6479970216751099 -0.3372749984264374
vn -0.628259003162384 -0.5898060202598572 -0.5073649883270264
vn -0.7524449825286865 -0.612650990486145 -0.24183699488639832
vn -0.39118799567222595 0.8406530022621155 0.37453100085258484
vn -0.44554200768470764 0.8349729776382446 -0.32297301292419434
vn -0.9005560278892517 0.2588759958744049 -0.3492580056190491
vn -0.8883960247039795 0.2192540019750595 0.4033370018005371
vn -0.7701190114021301 -0.5696319937705994 0.28711599111557007
vn -0.507187008857727 -0.5695319771766663 0.6468340158462524
vn -0.6197609901428223 0.23983199894428253 0.7472460269927979
vn -0.9350159764289856 0.201431006193161 0.29183900356292725
vn -0.0 -1.0 -0.0
vn -0.507187008857727 -0.5695319771766663 0.6468340158462524
vn -0.7701190114021301 -0.5696319937705994 0.28711599111557007
vn -0.7734330296516418 -0.6275849938392639 -0.08909600228071213
vn -0.9514939785003662 0.24013100564479828 -0.19234499335289001
vn -0.7734330296516418 -0.6275849938392639 -0.08909600228071213
vn 0.9384819865226746 0.20046399533748627 0.2811880111694336
vn 0.7719470262527466 -0.5727310180664062 0.2758229970932007
vn 0.7734330296516418 -0.6275860071182251 -0.08909600228071213
vn 0.9538900256156921 0.2348940074443817 -0.18686799705028534
vn 0.05477200075984001 0.8892809748649597 0.45407000184059143
vn -0.0034340000711381435 0.8690680265426636 0.4946799874305725
vn 0.02882000058889389 0.9937779903411865 0.10758499801158905
vn -0.004681000020354986 0.9999880194664001 -0.0015020000282675028
vn 0.00471000000834465 0.9999880194664001 -0.001449999981559813
vn -0.0469140000641346 0.983456015586853 -0.17496700584888458
vn 0.017209000885486603 0.9926720261573792 -0.11960600316524506
vn -0.02983500063419342 0.9936280250549316 0.10868799686431885
vn 0.15809600055217743 0.8370699882507324 -0.5237560272216797
vn 0.27436700463294983 0.7837449908256531 -0.5571950078010559
vn 0.04498500004410744 0.9832280278205872 -0.1767439991235733
vn -0.01703299954533577 0.9928900003433228 -0.11781100183725357
vn -0.49483299255371094 0.26601800322532654 -0.8272690176963806
vn 0.9329519867897034 -0.09012000262737274 -0.34853899478912354
vn 0.9333919882774353 -0.13734400272369385 0.33153700828552246
vn 0.9442610144615173 0.024252999573946 0.3283019959926605
vn 0.9460930228233337 0.051336001604795456 -0.3197999894618988
vn -0.4512389898300171 0.22493000328540802 0.8635910153388977
vn -0.9282199740409851 -0.09340900182723999 -0.3601149916648865
vn -0.9414780139923096 0.05521399900317192 -0.332520991563797
vn -0.9432870149612427 0.014620999805629253 0.3316569924354553
vn -0.9325730204582214 -0.1291940063238144 0.33706900477409363
vn -0.5325509905815125 0.12715500593185425 -0.8367919921875
vn -0.5957790017127991 0.07656200230121613 -0.7994909882545471
vn -0.9442170262336731 0.08279100060462952 -0.31874600052833557
vn -0.9414780139923096 0.05521399900317192 -0.332520991563797
vn 0.9390389919281006 0.12144500017166138 0.3216480016708374
vn 0.9477699995040894 0.08296100050210953 -0.30797499418258667
vn -0.5162820219993591 0.16590100526809692 0.8401960134506226
vn -0.48683398962020874 -0.06744399666786194 0.8708869814872742
vn -0.9432870149612427 0.014620999805629253 0.3316569924354553
vn -0.9358749985694885 0.12240500003099442 0.3303860127925873
vn -0.9442170262336731 0.08279100060462952 -0.31874600052833557
vn -0.9358749985694885 0.12240500003099442 0.3303860127925873
vn -0.7397609949111938 -0.656607985496521 -0.14703699946403503
vn -0.0 -1.0 -0.0
vn -0.8982229828834534 0.3788110017776489 -0.22292999923229218
vn -0.7397609949111938 -0.656607985496521 -0.14703699946403503
vn -0.8982229828834534 0.3788110017776489 -0.22292999923229218
vn -0.9514939785003662 0.24013100564479828 -0.19234499335289001
vn -0.6202859878540039 0.585552990436554 -0.5218939781188965
vn -0.4926379919052124 0.8623009920120239 -0.11723999679088593
vn 0.9049000144004822 0.36419498920440674 -0.22026799619197845
vn 0.7397609949111938 -0.656607985496521 -0.147038996219635
vn 0.5312820076942444 0.1237419992685318 -0.8381100296974182
vn 0.9460930228233337 0.051336001604795456 -0.3197999894618988
vn 0.9477699995040894 0.08296100050210953 -0.30797499418258667
vn 0.5963820219039917 0.07695899903774261 -0.799003005027771
vn -0.05109500139951706 0.8908780217170715 0.45135900378227234
vn -0.003343000076711178 0.8707360029220581 0.4917390048503876
vn 0.9049000144004822 0.36419498920440674 -0.22026799619197845
vn 0.501492977142334 0.8574650287628174 -0.11514700204133987
vn 0.6258710026741028 0.5828139781951904 -0.5182790160179138
vn 0.9538900256156921 0.2348940074443817 -0.18686799705028534
vn 0.8878070116043091 0.4113349914550781 -0.20640400052070618
vn 0.7531179785728455 -0.6174439787864685 -0.22710299491882324
vn 0.6300640106201172 -0.5826200246810913 -0.513392984867096
vn 0.678318977355957 0.6481289863586426 -0.34613901376724243
vn 0.7397609949111938 -0.656607985496521 -0.147038996219635
vn 0.7734330296516418 -0.6275860071182251 -0.08909600228071213
vn -0.0 -1.0 -0.0
vn -0.0 -1.0 -0.0
vn 0.7719470262527466 -0.5727310180664062 0.2758229970932007
vn 0.5081390142440796 -0.5630919933319092 0.6517069935798645
vn 0.6167849898338318 0.24204200506210327 0.748993992805481
vn 0.5081390142440796 -0.5630919933319092 0.6517069935798645
vn -0.15899300575256348 0.8407580256462097 -0.5175399780273438
vn -0.26785099506378174 0.787759006023407 -0.5547000169754028
vn 0.5212759971618652 0.1665170043706894 0.8369849920272827
vn 0.9390389919281006 0.12144500017166138 0.3216480016708374
vn 0.9442610144615173 0.024252999573946 0.3283019959926605
vn 0.4966740012168884 -0.05761900171637535 0.866021990776062
vn 0.8898890018463135 0.2188040018081665 0.4002789855003357
vn 0.39670899510383606 0.8323889970779419 0.3869769871234894
vn 0.4534670114517212 0.19525399804115295 0.8696230053901672
vn 0.9062640070915222 0.25062501430511475 -0.3404009938240051
vn 0.44975700974464417 0.8325999975204468 -0.32325801253318787
vn 0.4909839928150177 0.27024000883102417 -0.8281940221786499
vn -0.09985999763011932 0.13490800559520721 -0.9858130216598511
vn -0.12524999678134918 0.07084400206804276 -0.9895930290222168
vn 0.0594559982419014 0.7747859954833984 0.6294209957122803
vn -0.010037999600172043 0.795291006565094 0.6061450242996216
vn -0.17083099484443665 0.7251179814338684 -0.6670989990234375
vn -0.1303199976682663 0.9893350005149841 0.06505800038576126
vn -0.3069790005683899 0.8069289922714233 -0.5046079754829407
vn -0.2646940052509308 -0.5885999798774719 -0.7638639807701111
vn -0.0 -1.0 -0.0
vn -0.0 -1.0 -0.0
vn -0.1660110056400299 -0.5823990106582642 0.7957710027694702
vn -0.507187008857727 -0.5695319771766663 0.6468340158462524
vn -0.1660110056400299 -0.5823990106582642 0.7957710027694702
vn -0.21111899614334106 0.23384100198745728 0.9490770101547241
vn -0.6197609901428223 0.23983199894428253 0.7472460269927979
vn 0.05463799834251404 0.6707670092582703 -0.7396529912948608
vn 0.10446300357580185 0.6473069787025452 -0.7550380229949951
vn -0.08708500117063522 0.18767699599266052 0.9783629775047302
vn -0.0646279975771904 -0.07921600341796875 0.9947599768638611
vn -0.14387600123882294 0.2485470026731491 0.9578750133514404
vn -0.01764499954879284 0.914434015750885 0.40435001254081726
vn -0.07673200219869614 0.8826760053634644 -0.46367600560188293
vn -0.14100000262260437 0.3000349998474121 -0.9434499740600586
vn -0.533964991569519 -0.21240800619125366 -0.8183910250663757
vn -0.938630998134613 -0.06734099984169006 -0.3382839858531952
vn -0.938630998134613 -0.06734099984169006 -0.3382839858531952
vn -0.9123139977455139 0.09356100112199783 0.39866000413894653
vn -0.9123139977455139 0.09356100112199783 0.39866000413894653
vn -0.48262301087379456 0.32906100153923035 0.8116610050201416
vn -0.1261879950761795 0.4140459895133972 0.9014670252799988
vn 0.917415976524353 0.08985699713230133 0.3876520097255707
vn 0.47948798537254333 0.3287990093231201 0.8136230111122131
vn 0.917415976524353 0.08985699713230133 0.3876520097255707
vn 0.942110002040863 -0.06684400141239166 -0.32857298851013184
vn 0.942110002040863 -0.06684400141239166 -0.32857298851013184
vn 0.5357699990272522 -0.21179500222206116 -0.8173699975013733
vn -0.09352300316095352 -0.26006001234054565 -0.9610530138015747
vn 0.9329519867897034 -0.09012000262737274 -0.34853899478912354
vn 0.5244219899177551 -0.08456800132989883 -0.8472480177879333
vn -0.5266690254211426 -0.08761599659919739 -0.8455430269241333
vn -0.1302739977836609 -0.08895599842071533 -0.9874789714813232
vn -0.9282199740409851 -0.09340900182723999 -0.3601149916648865
vn -0.5045329928398132 -0.16161200404167175 0.8481320142745972
vn -0.9325730204582214 -0.1291940063238144 0.33706900477409363
vn -0.1288280040025711 -0.17486900091171265 0.976127028465271
vn 0.9333919882774353 -0.13734400272369385 0.33153700828552246
vn 0.5112959742546082 -0.17106099426746368 0.8422080278396606
vn 0.12170100212097168 0.9905509948730469 0.0632219985127449
vn 0.1585800051689148 0.7265239953994751 -0.6685919761657715
vn 0.2501530051231384 -0.5918890237808228 -0.7662190198898315
vn 0.2928600013256073 0.8106529712677002 -0.5070250034332275
vn -0.0 -1.0 -0.0
vn -0.0 -1.0 -0.0
vn 0.15290600061416626 -0.5858010053634644 0.7958999872207642
vn 0.5081390142440796 -0.5630919933319092 0.6517069935798645
vn 0.6167849898338318 0.24204200506210327 0.748993992805481
vn 0.1950020045042038 0.233023002743721 0.9527199864387512
vn 0.15290600061416626 -0.5858010053634644 0.7958999872207642
vn -0.052723001688718796 0.6687319874763489 -0.7416319847106934
vn -0.09666900336742401 0.6457200050354004 -0.7574300169944763
vn 0.08014799654483795 0.18794800341129303 0.9789029955863953
vn 0.11631699651479721 0.4147059917449951 0.9024909734725952
vn 0.05921899899840355 -0.07940100133419037 0.9950820207595825
vn 0.11428000032901764 -0.1756259948015213 0.9778010249137878
vn 0.023295000195503235 0.9113540053367615 0.4109629988670349
vn 0.15039299428462982 0.243134006857872 0.9582629799842834
vn 0.06820099800825119 0.8851869702339172 -0.4602090120315552
vn 0.12566499412059784 0.3022559881210327 -0.944907009601593
vn 0.09184200316667557 0.1342490017414093 -0.9866819977760315
vn 0.1199600026011467 -0.08866900205612183 -0.9888110160827637
vn 0.11381600052118301 0.07070399820804596 -0.9909830093383789
vn 0.08603200316429138 -0.2592729926109314 -0.961965024471283
vn 0.006678000092506409 0.7947090268135071 0.6069549918174744
vn -0.054788000881671906 0.7741590142250061 0.6306160092353821
vn -0.9005560278892517 0.2588759958744049 -0.3492580056190491
vn -0.49483299255371094 0.26601800322532654 -0.8272690176963806
vn -0.14100000262260437 0.3000349998474121 -0.9434499740600586
vn 0.12566499412059784 0.3022559881210327 -0.944907009601593
vn 0.4909839928150177 0.27024000883102417 -0.8281940221786499
vn 0.9062640070915222 0.25062501430511475 -0.3404009938240051
vn 0.9062640070915222 0.25062501430511475 -0.3404009938240051
vn 0.8898890018463135 0.2188040018081665 0.4002789855003357
vn 0.8898890018463135 0.2188040018081665 0.4002789855003357
vn 0.4534670114517212 0.19525399804115295 0.8696230053901672
vn 0.15039299428462982 0.243134006857872 0.9582629799842834
vn -0.14387600123882294 0.2485470026731491 0.9578750133514404
vn -0.4512389898300171 0.22493000328540802 0.8635910153388977
vn -0.8883960247039795 0.2192540019750595 0.4033370018005371
vn -0.9005560278892517 0.2588759958744049 -0.3492580056190491
vn -0.8883960247039795 0.2192540019750595 0.4033370018005371
vn -0.8440060019493103 -0.33914801478385925 -0.4154900014400482
vn -0.35178399085998535 -0.33913400769233704 -0.8724889755249023
vn -0.4408639967441559 -0.22718900442123413 -0.8683459758758545
vn -0.9017350077629089 -0.19081099331378937 -0.3878979980945587
vn -0.8874490261077881 -0.2871539890766144 0.360522985458374
vn -0.8440060019493103 -0.33914801478385925 -0.4154900014400482
vn -0.9017350077629089 -0.19081099331378937 -0.3878979980945587
vn -0.9140689969062805 -0.17537300288677216 0.365680992603302
vn -0.5617349743843079 -0.13368099927902222 0.8164460062980652
vn -0.46874600648880005 -0.2339020073413849 0.8518030047416687
vn -0.17653000354766846 -0.11033699661493301 0.9780920147895813
vn -0.11269800364971161 -0.2023559957742691 0.9728059768676758
vn -0.46874600648880005 -0.2339020073413849 0.8518030047416687
vn -0.5617349743843079 -0.13368099927902222 0.8164460062980652
vn 0.16228799521923065 -0.10966599732637405 0.9806309938430786
vn 0.10434799641370773 -0.201774001121521 0.9738579988479614
vn 0.5575839877128601 -0.1354759931564331 0.8189910054206848
vn 0.4664750099182129 -0.23610100150108337 0.8524420261383057
vn 0.5575839877128601 -0.1354759931564331 0.8189910054206848
vn 0.9182149767875671 -0.17536500096321106 0.3551439940929413
vn 0.890736997127533 -0.2874079942703247 0.3521139919757843
vn 0.4664750099182129 -0.23610100150108337 0.8524420261383057
vn 0.9060680270195007 -0.18972399830818176 -0.3782149851322174
vn 0.8478320240974426 -0.33911800384521484 -0.40765100717544556
vn 0.8478320240974426 -0.33911800384521484 -0.40765100717544556
vn 0.9060680270195007 -0.18972399830818176 -0.3782149851322174
vn 0.4411369860172272 -0.22932299971580505 -0.8676459789276123
vn 0.3544760048389435 -0.3411799967288971 -0.8705989718437195
vn 0.0834830030798912 -0.21212099492549896 -0.973671019077301
vn 0.047596998512744904 -0.30692800879478455 -0.9505419731140137
vn -0.09115900099277496 -0.21316400170326233 -0.9727540016174316
vn -0.05154800042510033 -0.3072809875011444 -0.9502210021018982
vn -0.5478910207748413 0.15062400698661804 -0.8228780031204224
vn -0.947708010673523 0.10890299826860428 -0.2999820113182068
vn -0.947708010673523 0.10890299826860428 -0.2999820113182068
vn -0.9471200108528137 0.07893799990415573 0.3110170066356659
vn -0.6199550032615662 0.10465800017118454 0.7776259779930115
vn -0.21051500737667084 0.12565499544143677 0.9694820046424866
vn -0.6199550032615662 0.10465800017118454 0.7776259779930115
vn 0.19436700642108917 0.1250230073928833 0.9729290008544922
vn 0.6157400012016296 0.10604500025510788 0.780780017375946
vn 0.6157400012016296 0.10604500025510788 0.780780017375946
vn 0.9506350159645081 0.079025998711586 0.30008000135421753
vn 0.9513220191001892 0.10803200304508209 -0.2886430025100708
vn 0.9513220191001892 0.10803200304508209 -0.2886430025100708
vn 0.5497050285339355 0.15059199929237366 -0.8216729760169983
vn 0.12138699740171432 0.14700999855995178 -0.9816579818725586
vn -0.13145500421524048 0.1458750069141388 -0.9805309772491455
vn -0.8762900233268738 0.43096500635147095 -0.21537399291992188
vn -0.7524449825286865 -0.612650990486145 -0.24183699488639832
vn -0.7524449825286865 -0.612650990486145 -0.24183699488639832
vn -0.628259003162384 -0.5898060202598572 -0.5073649883270264
vn -0.2646940052509308 -0.5885999798774719 -0.7638639807701111
vn 0.2501530051231384 -0.5918890237808228 -0.7662190198898315
vn 0.6300640106201172 -0.5826200246810913 -0.513392984867096
vn 0.7531179785728455 -0.6174439787864685 -0.22710299491882324
vn 0.8878070116043091 0.4113349914550781 -0.20640400052070618
vn 0.7531179785728455 -0.6174439787864685 -0.22710299491882324

vt 0.9135149717330933 0.1160460114479065
vt 0.9113709926605225 0.1320350170135498
vt 0.9040169715881348 0.12708401679992676
vt 0.9093030095100403 0.1094139814376831
vt 0.5769270062446594 0.32495301961898804
vt 0.5771440267562866 0.2737950086593628
vt 0.592706024646759 0.26754897832870483
vt 0.592706024646759 0.3348810076713562
vt 0.8471400141716003 0.14477699995040894
vt 0.8479089736938477 0.12273401021957397
vt 0.8572450280189514 0.12634700536727905
vt 0.8566809892654419 0.1485229730606079
vt 0.7223960161209106 0.307886004447937
vt 0.7223389744758606 0.23462098836898804
vt 0.7336080074310303 0.23462098836898804
vt 0.7336080074310303 0.30786097049713135
vt 0.8548799753189087 0.18987202644348145
vt 0.8474159836769104 0.1912750005722046
vt 0.8567039966583252 0.08538699150085449
vt 0.847117006778717 0.08883702754974365
vt 0.8479200005531311 0.04234498739242554
vt 0.855368971824646 0.04397702217102051
vt 0.9779869914054871 0.029524028301239014
vt 0.9801139831542969 0.021983027458190918
vt 0.985372006893158 0.034030020236968994
vt 0.9816650152206421 0.038040995597839355
vt 0.9644160270690918 0.038040995597839355
vt 0.9644160270690918 0.05832397937774658
vt 0.9607089757919312 0.059054017066955566
vt 0.9607089757919312 0.03402900695800781
vt 0.9801139831542969 0.07226002216339111
vt 0.9779869914054871 0.06765997409820557
vt 0.9816640019416809 0.058326005935668945
vt 0.985372006893158 0.059055984020233154
vt 0.592706024646759 0.23432201147079468
vt 0.9021180272102356 0.3765159845352173
vt 0.9032170176506042 0.49804502725601196
vt 0.8552349805831909 0.49804502725601196
vt 0.8553540110588074 0.3765159845352173
vt 0.592706024646759 0.35909098386764526
vt 0.9026430249214172 0.7485949993133545
vt 0.8552060127258301 0.7485949993133545
vt 0.8538450002670288 0.6243720054626465
vt 0.9009929895401001 0.6243720054626465
vt 0.8567240238189697 0.7851880043745041
vt 0.8368790149688721 0.7827270030975342
vt 0.8369010090827942 0.7485949993133545
vt 0.8552060127258301 0.7485949993133545
vt 0.8369359970092773 0.49804502725601196
vt 0.8366270065307617 0.3765159845352173
vt 0.8376230001449585 0.5280170142650604
vt 0.8556029796600342 0.5329549908638
vt 0.8552349805831909 0.49804502725601196
vt 0.8369359970092773 0.49804502725601196
vt 0.8369010090827942 0.7485949993133545
vt 0.8364790081977844 0.6243720054626465
vt 0.7336080074310303 0.33681201934814453
vt 0.7224169969558716 0.3368229866027832
vt 0.8534749746322632 0.2039170265197754
vt 0.8476279973983765 0.20464402437210083
vt 0.9173550009727478 0.1108890175819397
vt 0.9225280284881592 0.10394001007080078
vt 0.9256939888000488 0.12954598665237427
vt 0.9174730181694031 0.13097500801086426
vt 0.8540949821472168 0.029922008514404297
vt 0.8482580184936523 0.02902698516845703
vt 0.8553540110588074 0.8375200033187866
vt 0.8553540110588074 0.875108003616333
vt 0.8366270065307617 0.875108003616333
vt 0.836870014667511 0.8404829949140549
vt 0.9679409861564636 0.029523015022277832
vt 0.9657480120658875 0.021982014179229736
vt 0.9172639846801758 0.19595301151275635
vt 0.9173020124435425 0.17645901441574097
vt 0.9254500269889832 0.1769229769706726
vt 0.9223039746284485 0.20245498418807983
vt 0.9135230183601379 0.1911270022392273
vt 0.9092069864273071 0.1974009871482849
vt 0.9049630165100098 0.1813889741897583
vt 0.9112539887428284 0.1761159896850586
vt 0.671409010887146 0.33687102794647217
vt 0.671409010887146 0.30799800157546997
vt 0.6820470094680786 0.30797499418258667
vt 0.6820669770240784 0.3368610143661499
vt 0.671409010887146 0.23462098836898804
vt 0.6819890141487122 0.23462098836898804
vt 0.8570020198822021 0.10713398456573486
vt 0.8476409912109375 0.11054998636245728
vt 0.9657480120658875 0.07226002216339111
vt 0.9679409861564636 0.06765997409820557
vt 0.8364430069923401 0.5919879972934723
vt 0.8364790081977844 0.6243720054626465
vt 0.8538450002670288 0.6243720054626465
vt 0.8547919988632202 0.5887430012226105
vt 0.5309420228004456 0.3345310091972351
vt 0.545740008354187 0.3250349760055542
vt 0.5309420228004456 0.35909098386764526
vt 0.5309420228004456 0.2647489905357361
vt 0.5466139912605286 0.2728850245475769
vt 0.5309420228004456 0.23432201147079468
vt 0.8570659756660461 0.801927000284195
vt 0.8375239968299866 0.8021290004253387
vt 0.9747639894485474 0.028235971927642822
vt 0.975504994392395 0.020102977752685547
vt 0.9268919825553894 0.14514201879501343
vt 0.9174079895019531 0.14565402269363403
vt 0.9103689789772034 0.14603298902511597
vt 0.9008859992027283 0.14440298080444336
vt 0.7094770073890686 0.33683502674102783
vt 0.7094519734382629 0.30791401863098145
vt 0.709388017654419 0.23462098836898804
vt 0.9044770002365112 0.09124398231506348
vt 0.903997004032135 0.07420998811721802
vt 0.913657009601593 0.07349902391433716
vt 0.9140040278434753 0.08919298648834229
vt 0.975504994392395 0.07513797283172607
vt 0.9747639894485474 0.06958901882171631
vt 0.837270975112915 0.548224002122879
vt 0.8552749752998352 0.5505970120429993
vt 0.5668100118637085 0.35909098386764526
vt 0.5674980282783508 0.3276429772377014
vt 0.56734699010849 0.26440000534057617
vt 0.5677019953727722 0.23432201147079468
vt 0.8127700090408325 0.78575199842453
vt 0.8127700090408325 0.7485949993133545
vt 0.8127700090408325 0.7485949993133545
vt 0.8127700090408325 0.6243720054626465
vt 0.8127700090408325 0.49804502725601196
vt 0.8127700090408325 0.5283159911632538
vt 0.8127700090408325 0.5488409996032715
vt 0.8127700090408325 0.6243720054626465
vt 0.8127700090408325 0.5911009907722473
vt 0.8127700090408325 0.49804502725601196
vt 0.8127700090408325 0.3765159845352173
vt 0.8127700090408325 0.875108003616333
vt 0.8127700090408325 0.8381599932909012
vt 0.8127700090408325 0.802950993180275
vt 0.9021180272102356 0.875108003616333
vt 0.9026939868927002 0.8414500057697296
vt 0.9025599956512451 0.783157005906105
vt 0.9025480151176453 0.8019219934940338
vt 0.9026430249214172 0.7485949993133545
vt 0.9031280279159546 0.5281180143356323
vt 0.9032170176506042 0.49804502725601196
vt 0.9029300212860107 0.5501869916915894
vt 0.9009929895401001 0.6243720054626465
vt 0.9017500281333923 0.5957750082015991
vt 0.9175930023193359 0.1597520112991333
vt 0.9272509813308716 0.15994501113891602
vt 0.9005879759788513 0.1609780192375183
vt 0.9104250073432922 0.15960901975631714
vt 0.6962029933929443 0.30794399976730347
vt 0.69622802734375 0.3368470072746277
vt 0.6961389780044556 0.23462098836898804
vt 0.9045810103416443 0.03996598720550537
vt 0.9140430092811584 0.04219001531600952
vt 0.9136559963226318 0.05915099382400513
vt 0.9040719866752625 0.05827200412750244
vt 0.9707880020141602 0.07513797283172607
vt 0.971464991569519 0.06958901882171631
vt 0.8370540142059326 0.5696179866790771
vt 0.8127700090408325 0.5691089928150177
vt 0.8551509976387024 0.5689449906349182
vt 0.9024360179901123 0.5719529986381531
vt 0.5572550296783447 0.3277680277824402
vt 0.5568919777870178 0.35909098386764526
vt 0.5571339726448059 0.26378297805786133
vt 0.5569800138473511 0.23432201147079468
vt 0.8571929931640625 0.819694995880127
vt 0.9025750160217285 0.8205399960279465
vt 0.8375710248947144 0.8207720071077347
vt 0.8127700090408325 0.8198329955339432
vt 0.9707880020141602 0.020102977752685547
vt 0.971464991569519 0.028235971927642822
vt 0.9373700022697449 0.7485949993133545
vt 0.9373700022697449 0.7817090004682541
vt 0.9373700022697449 0.8018720000982285
vt 0.9373700022697449 0.8215540051460266
vt 0.9373700022697449 0.8434309959411621
vt 0.9373700022697449 0.875108003616333
vt 0.9373700022697449 0.3765159845352173
vt 0.9373700022697449 0.49804502725601196
vt 0.9373700022697449 0.6243720054626465
vt 0.9373700022697449 0.5996559858322144
vt 0.9373700022697449 0.5735540091991425
vt 0.9373700022697449 0.550137996673584
vt 0.9373700022697449 0.5261240005493164
vt 0.9373700022697449 0.49804502725601196
vt 0.9373700022697449 0.7485949993133545
vt 0.9373700022697449 0.6243720054626465
vt 0.961201012134552 0.10284602642059326
vt 0.966946005821228 0.12883597612380981
vt 0.9470880031585693 0.13433098793029785
vt 0.9437879920005798 0.11409300565719604
vt 0.8975989818572998 0.15056699514389038
vt 0.8964459896087646 0.19453901052474976
vt 0.8785510063171387 0.18581199645996094
vt 0.8793789744377136 0.14819997549057007
vt 0.878974974155426 0.12769800424575806
vt 0.8969200253486633 0.12124001979827881
vt 0.9357190132141113 0.07265102863311768
vt 0.9542539715766907 0.0747479796409607
vt 0.9502459764480591 0.09167498350143433
vt 0.9357810020446777 0.08566302061080933
vt 0.9359509944915771 0.06017798185348511
vt 0.9542520046234131 0.05838900804519653
vt 0.9357479810714722 0.04616200923919678
vt 0.9503089785575867 0.03996598720550537
vt 0.8788340091705322 0.10690701007843018
vt 0.8792480230331421 0.08651798963546753
vt 0.8976089954376221 0.08549201488494873
vt 0.896619975566864 0.1142510175704956
vt 0.8789700269699097 0.049095988273620605
vt 0.8970620036125183 0.04154002666473389
vt 0.9617679715156555 0.20314598083496094
vt 0.944337010383606 0.19130200147628784
vt 0.9472299814224243 0.1712939739227295
vt 0.9671379923820496 0.17699801921844482
vt 0.9479280114173889 0.15842700004577637
vt 0.9685350060462952 0.15960097312927246
vt 0.9479569792747498 0.14625698328018188
vt 0.9685779809951782 0.14430397748947144
vt 0.9347649812698364 0.13291698694229126
vt 0.9332720041275024 0.1121479868888855
vt 0.8662539720535278 0.1835169792175293
vt 0.8656569719314575 0.14950799942016602
vt 0.8656560182571411 0.12882697582244873
vt 0.9222490191459656 0.07275897264480591
vt 0.9224740266799927 0.08636599779129028
vt 0.9223799705505371 0.06001698970794678
vt 0.9224939942359924 0.04519897699356079
vt 0.8655189871788025 0.10507100820541382
vt 0.8656659722328186 0.08480197191238403
vt 0.8666830062866211 0.05078202486038208
vt 0.9334440231323242 0.19295597076416016
vt 0.9352080225944519 0.17284399271011353
vt 0.9361460208892822 0.1588900089263916
vt 0.9359750151634216 0.146232008934021
vt 0.8524320125579834 0.21434098482131958
vt 0.8477849960327148 0.21456700563430786
vt 0.7336080074310303 0.35829997062683105
vt 0.7224329710006714 0.35829997062683105
vt 0.709496021270752 0.35829997062683105
vt 0.6962469816207886 0.35829997062683105
vt 0.682083010673523 0.35829997062683105
vt 0.671409010887146 0.35829997062683105
vt 0.8531489968299866 0.01949000358581543
vt 0.8485090136528015 0.019141018390655518

usemtl Material

f 1/1/1 2/2/2 3/3/3
f 3/3/3 4/4/4 1/1/1
f 5/5/5 6/6/6 7/7/7
f 7/7/7 8/8/8 5/5/5
f 9/9/9 10/10/10 11/11/11
f 11/11/11 12/12/12 9/9/9
f 13/13/13 14/14/14 15/15/15
f 15/15/15 16/16/16 13/13/13
f 12/12/12 17/17/17 18/18/18
f 18/18/18 9/9/9 12/12/12
f 19/19/19 20/20/20 21/21/21
f 21/21/21 22/22/22 19/19/19
f 23/23/23 24/24/24 25/25/25
f 25/25/25 26/26/26 23/23/23
f 27/27/27 28/28/28 29/29/29
f 29/29/29 30/30/30 27/27/27
f 31/31/31 32/32/32 33/33/33
f 33/33/33 34/34/34 31/31/31
f 26/26/26 25/25/25 34/34/34
f 34/34/34 33/33/33 26/26/26
f 6/6/6 35/35/35 7/7/7
f 36/36/36 37/37/37 38/38/38
f 38/38/38 39/39/39 36/36/36
f 5/5/5 8/8/8 40/40/40
f 41/41/41 42/42/42 43/43/43
f 43/43/43 44/44/44 41/41/41
f 45/45/45 46/46/46 47/47/47
f 47/47/47 48/48/48 45/45/45
f 39/39/39 38/38/38 49/49/49
f 49/49/49 50/50/50 39/39/39
f 51/51/51 52/52/52 53/53/53
f 53/53/53 54/54/54 51/51/51
f 42/42/42 55/55/55 56/56/56
f 56/56/56 43/43/43 42/42/42
f 57/57/57 58/58/58 13/13/13
f 13/13/13 16/16/16 57/57/57
f 59/59/59 60/60/60 18/18/18
f 18/18/18 17/17/17 59/59/59
f 61/61/61 62/62/62 63/63/63
f 63/63/63 64/64/64 61/61/61
f 65/65/65 22/22/22 21/21/21
f 21/21/21 66/66/66 65/65/65
f 67/67/67 68/68/68 69/69/69
f 69/69/69 70/70/70 67/67/67
f 71/71/71 27/27/27 30/30/30
f 30/30/30 72/72/72 71/71/71
f 73/73/73 74/74/74 75/75/75
f 75/75/75 76/76/76 73/73/73
f 77/77/77 78/78/78 79/79/79
f 79/79/79 80/80/80 77/77/77
f 81/81/81 82/82/82 83/83/83
f 83/83/83 84/84/84 81/81/81
f 83/83/83 82/82/82 85/85/85
f 85/85/85 86/86/86 83/83/83
f 20/20/20 19/19/19 87/87/87
f 87/87/87 88/88/88 20/20/20
f 89/89/89 29/29/29 28/28/28
f 28/28/28 90/90/90 89/89/89
f 91/91/91 92/92/92 93/93/93
f 93/93/93 94/94/94 91/91/91
f 95/95/95 96/96/96 97/97/97
f 96/96/96 95/95/95 98/98/98
f 98/98/98 99/99/99 96/96/96
f 98/98/98 100/100/100 99/99/99
f 45/45/45 101/101/101 102/102/102
f 102/102/102 46/46/46 45/45/45
f 23/23/23 103/103/103 104/104/104
f 104/104/104 24/24/24 23/23/23
f 105/105/105 106/106/106 64/64/64
f 64/64/64 63/63/63 105/105/105
f 2/2/2 107/107/107 108/108/108
f 108/108/108 3/3/3 2/2/2
f 58/58/58 109/109/109 110/110/110
f 110/110/110 13/13/13 58/58/58
f 110/110/110 111/111/111 14/14/14
f 14/14/14 13/13/13 110/110/110
f 112/112/112 113/113/113 114/114/114
f 114/114/114 115/115/115 112/112/112
f 116/116/116 117/117/117 32/32/32
f 32/32/32 31/31/31 116/116/116
f 118/118/118 119/119/119 52/52/52
f 52/52/52 51/51/51 118/118/118
f 40/40/40 120/120/120 121/121/121
f 121/121/121 5/5/5 40/40/40
f 121/121/121 122/122/122 6/6/6
f 6/6/6 5/5/5 121/121/121
f 35/35/35 6/6/6 122/122/122
f 122/122/122 123/123/123 35/35/35
f 47/47/47 46/46/46 124/124/124
f 124/124/124 125/125/125 47/47/47
f 56/56/56 55/55/55 126/126/126
f 126/126/126 127/127/127 56/56/56
f 128/128/128 129/129/129 51/51/51
f 51/51/51 54/54/54 128/128/128
f 129/129/129 130/130/130 118/118/118
f 118/118/118 51/51/51 129/129/129
f 131/131/131 92/92/92 91/91/91
f 91/91/91 132/132/132 131/131/131
f 49/49/49 133/133/133 134/134/134
f 134/134/134 50/50/50 49/49/49
f 69/69/69 135/135/135 136/136/136
f 136/136/136 70/70/70 69/69/69
f 102/102/102 137/137/137 124/124/124
f 124/124/124 46/46/46 102/102/102
f 138/138/138 68/68/68 67/67/67
f 67/67/67 139/139/139 138/138/138
f 45/45/45 140/140/140 141/141/141
f 141/141/141 101/101/101 45/45/45
f 48/48/48 142/142/142 140/140/140
f 140/140/140 45/45/45 48/48/48
f 52/52/52 143/143/143 144/144/144
f 144/144/144 53/53/53 52/52/52
f 52/52/52 119/119/119 145/145/145
f 145/145/145 143/143/143 52/52/52
f 93/93/93 146/146/146 147/147/147
f 147/147/147 94/94/94 93/93/93
f 74/74/74 148/148/148 149/149/149
f 149/149/149 75/75/75 74/74/74
f 80/80/80 79/79/79 150/150/150
f 150/150/150 151/151/151 80/80/80
f 84/84/84 83/83/83 152/152/152
f 152/152/152 153/153/153 84/84/84
f 152/152/152 83/83/83 86/86/86
f 86/86/86 154/154/154 152/152/152
f 155/155/155 156/156/156 157/157/157
f 157/157/157 158/158/158 155/155/155
f 159/159/159 89/89/89 90/90/90
f 90/90/90 160/160/160 159/159/159
f 132/132/132 91/91/91 161/161/161
f 161/161/161 162/162/162 132/132/132
f 161/161/161 91/91/91 94/94/94
f 94/94/94 163/163/163 161/161/161
f 94/94/94 147/147/147 164/164/164
f 164/164/164 163/163/163 94/94/94
f 97/97/97 96/96/96 165/165/165
f 165/165/165 166/166/166 97/97/97
f 165/165/165 96/96/96 99/99/99
f 99/99/99 167/167/167 165/165/165
f 167/167/167 99/99/99 100/100/100
f 100/100/100 168/168/168 167/167/167
f 67/67/67 169/169/169 170/170/170
f 170/170/170 139/139/139 67/67/67
f 67/67/67 70/70/70 171/171/171
f 171/171/171 169/169/169 67/67/67
f 171/171/171 70/70/70 136/136/136
f 136/136/136 172/172/172 171/171/171
f 71/71/71 72/72/72 173/173/173
f 173/173/173 174/174/174 71/71/71
f 148/148/148 106/106/106 105/105/105
f 105/105/105 149/149/149 148/148/148
f 151/151/151 150/150/150 108/108/108
f 108/108/108 107/107/107 151/151/151
f 153/153/153 152/152/152 110/110/110
f 110/110/110 109/109/109 153/153/153
f 152/152/152 154/154/154 111/111/111
f 111/111/111 110/110/110 152/152/152
f 158/158/158 157/157/157 114/114/114
f 114/114/114 113/113/113 158/158/158
f 159/159/159 160/160/160 117/117/117
f 117/117/117 116/116/116 159/159/159
f 162/162/162 161/161/161 118/118/118
f 118/118/118 130/130/130 162/162/162
f 161/161/161 163/163/163 119/119/119
f 119/119/119 118/118/118 161/161/161
f 119/119/119 163/163/163 164/164/164
f 164/164/164 145/145/145 119/119/119
f 120/120/120 166/166/166 165/165/165
f 165/165/165 121/121/121 120/120/120
f 165/165/165 167/167/167 122/122/122
f 122/122/122 121/121/121 165/165/165
f 122/122/122 167/167/167 168/168/168
f 168/168/168 123/123/123 122/122/122
f 169/169/169 101/101/101 141/141/141
f 141/141/141 170/170/170 169/169/169
f 101/101/101 169/169/169 171/171/171
f 171/171/171 102/102/102 101/101/101
f 171/171/171 172/172/172 137/137/137
f 137/137/137 102/102/102 171/171/171
f 103/103/103 174/174/174 173/173/173
f 173/173/173 104/104/104 103/103/103
f 142/142/142 175/175/175 176/176/176
f 176/176/176 140/140/140 142/142/142
f 140/140/140 176/176/176 177/177/177
f 177/177/177 141/141/141 140/140/140
f 178/178/178 170/170/170 141/141/141
f 141/141/141 177/177/177 178/178/178
f 178/178/178 179/179/179 139/139/139
f 139/139/139 170/170/170 178/178/178
f 179/179/179 180/180/180 138/138/138
f 138/138/138 139/139/139 179/179/179
f 181/181/181 182/182/182 37/37/37
f 37/37/37 36/36/36 181/181/181
f 147/147/147 146/146/146 183/183/183
f 183/183/183 184/184/184 147/147/147
f 164/164/164 147/147/147 184/184/184
f 184/184/184 185/185/185 164/164/164
f 145/145/145 164/164/164 185/185/185
f 185/185/185 186/186/186 145/145/145
f 145/145/145 186/186/186 187/187/187
f 187/187/187 143/143/143 145/145/145
f 143/143/143 187/187/187 188/188/188
f 188/188/188 144/144/144 143/143/143
f 189/189/189 41/41/41 44/44/44
f 44/44/44 190/190/190 189/189/189
f 191/191/191 192/192/192 193/193/193
f 193/193/193 194/194/194 191/191/191
f 195/195/195 196/196/196 197/197/197
f 197/197/197 198/198/198 195/195/195
f 199/199/199 200/200/200 195/195/195
f 195/195/195 198/198/198 199/199/199
f 201/201/201 202/202/202 203/203/203
f 203/203/203 204/204/204 201/201/201
f 205/205/205 206/206/206 202/202/202
f 202/202/202 201/201/201 205/205/205
f 205/205/205 207/207/207 208/208/208
f 208/208/208 206/206/206 205/205/205
f 209/209/209 210/210/210 211/211/211
f 211/211/211 212/212/212 209/209/209
f 211/211/211 210/210/210 213/213/213
f 213/213/213 214/214/214 211/211/211
f 215/215/215 216/216/216 217/217/217
f 217/217/217 218/218/218 215/215/215
f 218/218/218 217/217/217 219/219/219
f 219/219/219 220/220/220 218/218/218
f 221/221/221 222/222/222 220/220/220
f 220/220/220 219/219/219 221/221/221
f 221/221/221 193/193/193 192/192/192
f 192/192/192 222/222/222 221/221/221
f 194/194/194 193/193/193 223/223/223
f 223/223/223 224/224/224 194/194/194
f 198/198/198 197/197/197 225/225/225
f 225/225/225 226/226/226 198/198/198
f 227/227/227 199/199/199 198/198/198
f 198/198/198 226/226/226 227/227/227
f 228/228/228 201/201/201 204/204/204
f 204/204/204 229/229/229 228/228/228
f 230/230/230 205/205/205 201/201/201
f 201/201/201 228/228/228 230/230/230
f 230/230/230 231/231/231 207/207/207
f 207/207/207 205/205/205 230/230/230
f 232/232/232 233/233/233 210/210/210
f 210/210/210 209/209/209 232/232/232
f 210/210/210 233/233/233 234/234/234
f 234/234/234 213/213/213 210/210/210
f 216/216/216 235/235/235 236/236/236
f 236/236/236 217/217/217 216/216/216
f 217/217/217 236/236/236 237/237/237
f 237/237/237 219/219/219 217/217/217
f 238/238/238 221/221/221 219/219/219
f 219/219/219 237/237/237 238/238/238
f 238/238/238 223/223/223 193/193/193
f 193/193/193 221/221/221 238/238/238
f 105/105/105 63/63/63 223/223/223
f 223/223/223 238/238/238 105/105/105
f 224/224/224 223/223/223 63/63/63
f 63/63/63 62/62/62 224/224/224
f 225/225/225 17/17/17 12/12/12
f 12/12/12 226/226/226 225/225/225
f 12/12/12 11/11/11 227/227/227
f 227/227/227 226/226/226 12/12/12
f 114/114/114 228/228/228 229/229/229
f 229/229/229 115/115/115 114/114/114
f 157/157/157 230/230/230 228/228/228
f 228/228/228 114/114/114 157/157/157
f 157/157/157 156/156/156 231/231/231
f 231/231/231 230/230/230 157/157/157
f 19/19/19 233/233/233 232/232/232
f 232/232/232 87/87/87 19/19/19
f 234/234/234 233/233/233 19/19/19
f 19/19/19 22/22/22 234/234/234
f 235/235/235 76/76/76 75/75/75
f 75/75/75 236/236/236 235/235/235
f 236/236/236 75/75/75 149/149/149
f 149/149/149 237/237/237 236/236/236
f 105/105/105 238/238/238 237/237/237
f 237/237/237 149/149/149 105/105/105
f 239/239/239 240/240/240 60/60/60
f 60/60/60 59/59/59 239/239/239
f 241/241/241 242/242/242 58/58/58
f 58/58/58 57/57/57 241/241/241
f 242/242/242 243/243/243 109/109/109
f 109/109/109 58/58/58 242/242/242
f 244/244/244 153/153/153 109/109/109
f 109/109/109 243/243/243 244/244/244
f 245/245/245 84/84/84 153/153/153
f 153/153/153 244/244/244 245/245/245
f 246/246/246 81/81/81 84/84/84
f 84/84/84 245/245/245 246/246/246
f 247/247/247 65/65/65 66/66/66
f 66/66/66 248/248/248 247/247/247
f 77/77/77 80/80/80 74/74/74
f 74/74/74 73/73/73 77/77/77
f 80/80/80 151/151/151 148/148/148
f 148/148/148 74/74/74 80/80/80
f 151/151/151 107/107/107 106/106/106
f 106/106/106 148/148/148 151/151/151
f 106/106/106 107/107/107 2/2/2
f 2/2/2 64/64/64 106/106/106
f 1/1/1 61/61/61 64/64/64
f 64/64/64 2/2/2 1/1/1