mtllib 477803917.mtl
o Mesh

v -0.369125 -0.5263 0.3479
v -0.378925 -0.26255 0.35735
v -0.478575 -0.26505 0.1546
v -0.478575 -0.26505 0.1546
v -0.466175 -0.53015 0.15035
v -0.369125 -0.5263 0.3479
v 2.500415e-05 -0.26255 0.4518
v -0.378925 -0.26255 0.35735
v -0.369125 -0.5263 0.3479
v -0.369125 -0.5263 0.3479
v 2.500415e-05 -0.52635 0.43995
v 2.500415e-05 -0.26255 0.4518
v 0.369175 -0.52635 0.3479
v 0.378975 -0.26255 0.35735
v 2.500415e-05 -0.26255 0.4518
v 2.500415e-05 -0.26255 0.4518
v 2.500415e-05 -0.52635 0.43995
v 0.369175 -0.52635 0.3479
v 0.369175 -0.52635 0.3479
v 0.466275 -0.53015 0.1502
v 0.478675 -0.2651 0.15445
v 0.478675 -0.2651 0.15445
v 0.378975 -0.26255 0.35735
v 0.369175 -0.52635 0.3479
v 0.304391 -0.526345 -0.2291865
v 0.378975 -0.26255 -0.2467
v 0.478675 -0.2651 0.15445
v 0.478675 -0.2651 0.15445
v 0.466275 -0.53015 0.1502
v 0.304391 -0.526345 -0.2291865
v -0.3043405 -0.526305 -0.2291865
v -0.466175 -0.53015 0.15035
v -0.478575 -0.26505 0.1546
v -0.478575 -0.26505 0.1546
v -0.378925 -0.26255 -0.2467
v -0.3043405 -0.526305 -0.2291865
v -0.02602935 -0.52845 -0.3507185
v -0.3043405 -0.526305 -0.2291865
v -0.208075 -0.26195 -0.31425
v -0.208075 -0.26195 -0.31425
v -0.031975 -0.30835 -0.3821
v -0.02602935 -0.52845 -0.3507185
v 0.297875 -0.139 -0.2908
v 0.378975 -0.26255 -0.2467
v 0.208175 -0.26195 -0.31425
v -0.208175 -0.25875 -0.25645
v -0.208075 -0.26195 -0.31425
v -0.297825 -0.139 -0.2908
v -0.297825 -0.139 -0.2908
v -0.297875 -0.1376 -0.26525
v -0.208175 -0.25875 -0.25645
v -0.213025 -0.02000005 -0.3394
v 2.500415e-05 0.0253999 -0.4328
v 2.500415e-05 0.03369995 -0.27785
v 2.500415e-05 0.03369995 -0.27785
v -0.213075 -0.01645005 -0.27415
v -0.213025 -0.02000005 -0.3394
v 2.500415e-05 0.03369995 -0.27785
v 2.500415e-05 0.0253999 -0.4328
v 0.213075 -0.02000005 -0.3394
v 0.213075 -0.02000005 -0.3394
v 0.213125 -0.01645005 -0.27415
v 2.500415e-05 0.03369995 -0.27785
v 0.213125 -0.01645005 -0.27415
v 0.213075 -0.02000005 -0.3394
v 0.297875 -0.139 -0.2908
v 0.297875 -0.139 -0.2908
v 0.297925 -0.1376 -0.26525
v 0.213125 -0.01645005 -0.27415
v 0.208225 -0.25875 -0.25645
v 0.297925 -0.1376 -0.26525
v 0.297875 -0.139 -0.2908
v 0.297875 -0.139 -0.2908
v 0.208175 -0.26195 -0.31425
v 0.208225 -0.25875 -0.25645
v 0.034475 -0.3006 -0.25345
v 0.208225 -0.25875 -0.25645
v 0.208175 -0.26195 -0.31425
v 0.208175 -0.26195 -0.31425
v 0.032025 -0.30835 -0.3821
v 0.034475 -0.3006 -0.25345
v -0.297825 -0.139 -0.2908
v -0.213025 -0.02000005 -0.3394
v -0.213075 -0.01645005 -0.27415
v -0.213075 -0.01645005 -0.27415
v -0.297875 -0.1376 -0.26525
v -0.297825 -0.139 -0.2908
v -0.034425 -0.3006 -0.25345
v -0.031975 -0.30835 -0.3821
v -0.208075 -0.26195 -0.31425
v -0.208075 -0.26195 -0.31425
v -0.208175 -0.25875 -0.25645
v -0.034425 -0.3006 -0.25345
v 0.032025 -0.30835 -0.3821
v 0.02607935 -0.52845 -0.3507185
v 0.0278108 -0.5242 -0.2533445
v 0.0278108 -0.5242 -0.2533445
v 0.034475 -0.3006 -0.25345
v 0.032025 -0.30835 -0.3821
v 0.034475 -0.3006 -0.25345
v 0.0278108 -0.5242 -0.2533445
v -0.0277608 -0.5242 -0.2533445
v -0.0277608 -0.5242 -0.2533445
v -0.034425 -0.3006 -0.25345
v 0.034475 -0.3006 -0.25345
v -0.034425 -0.3006 -0.25345
v -0.0277608 -0.5242 -0.2533445
v -0.02602935 -0.52845 -0.3507185
v -0.02602935 -0.52845 -0.3507185
v -0.031975 -0.30835 -0.3821
v -0.034425 -0.3006 -0.25345
v -0.297875 -0.1376 -0.26525
v -0.213075 -0.01645005 -0.27415
v 2.500415e-05 -0.1346 -0.2594
v -0.213075 -0.01645005 -0.27415
v 2.500415e-05 0.03369995 -0.27785
v 2.500415e-05 -0.1346 -0.2594
v 2.500415e-05 0.03369995 -0.27785
v 0.213125 -0.01645005 -0.27415
v 2.500415e-05 -0.1346 -0.2594
v 0.213125 -0.01645005 -0.27415
v 0.297925 -0.1376 -0.26525
v 2.500415e-05 -0.1346 -0.2594
v 0.297925 -0.1376 -0.26525
v 0.208225 -0.25875 -0.25645
v 2.500415e-05 -0.1346 -0.2594
v 0.208225 -0.25875 -0.25645
v 0.034475 -0.3006 -0.25345
v 2.500415e-05 -0.1346 -0.2594
v 0.034475 -0.3006 -0.25345
v -0.034425 -0.3006 -0.25345
v 2.500415e-05 -0.1346 -0.2594
v -0.034425 -0.3006 -0.25345
v -0.208175 -0.25875 -0.25645
v 2.500415e-05 -0.1346 -0.2594
v -0.208175 -0.25875 -0.25645
v -0.297875 -0.1376 -0.26525
v 2.500415e-05 -0.1346 -0.2594
v -0.504875 0.2968 0.1636
v -0.490975 0.0 0.15885
v -0.388675 0.00125006 0.36685
v -0.388675 0.00125006 0.36685
v -0.399575 0.2955 0.3774
v -0.504875 0.2968 0.1636
v 2.500415e-05 0.29545 0.477
v -0.399575 0.2955 0.3774
v -0.388675 0.00125006 0.36685
v -0.388675 0.00125006 0.36685
v 2.500415e-05 0.001250075 0.4637
v 2.500415e-05 0.29545 0.477
v 2.500415e-05 0.29545 0.477
v 2.500415e-05 0.001250075 0.4637
v 0.388725 0.00125006 0.36685
v 0.388725 0.00125006 0.36685
v 0.399625 0.29545 0.3774
v 2.500415e-05 0.29545 0.477
v 0.399625 0.29545 0.3774
v 0.388725 0.00125006 0.36685
v 0.491075 0.0 0.1587
v 0.491075 0.0 0.1587
v 0.504925 0.2968 0.16345
v 0.399625 0.29545 0.3774
v 0.388725 0.001249955 -0.2757
v 0.399625 0.29545 -0.3094
v 0.504925 0.2968 0.16345
v 0.504925 0.2968 0.16345
v 0.491075 0.0 0.1587
v 0.388725 0.001249955 -0.2757
v -0.504875 0.2968 0.1636
v -0.399575 0.2955 -0.3094
v -0.388675 0.001249955 -0.2757
v -0.388675 0.001249955 -0.2757
v -0.490975 0.0 0.15885
v -0.504875 0.2968 0.1636
v -0.399575 0.2955 -0.3094
v 2.500415e-05 0.29545 -0.4716
v 2.500415e-05 0.2771 -0.46895
v 2.500415e-05 0.2771 -0.46895
v -0.388675 0.001249955 -0.2757
v -0.399575 0.2955 -0.3094
v 2.500415e-05 0.2771 -0.46895
v 2.500415e-05 0.29545 -0.4716
v 0.399625 0.29545 -0.3094
v 0.399625 0.29545 -0.3094
v 0.388725 0.001249955 -0.2757
v 2.500415e-05 0.2771 -0.46895
v -0.388675 0.001249955 -0.2757
v 2.500415e-05 0.2771 -0.46895
v -0.213025 -0.02000005 -0.3394
v 0.213075 -0.02000005 -0.3394
v 2.500415e-05 0.2771 -0.46895
v 0.388725 0.001249955 -0.2757
v -0.378925 -0.26255 0.35735
v -0.388675 0.00125006 0.36685
v -0.490975 0.0 0.15885
v -0.490975 0.0 0.15885
v -0.478575 -0.26505 0.1546
v -0.378925 -0.26255 0.35735
v 2.500415e-05 0.001250075 0.4637
v -0.388675 0.00125006 0.36685
v -0.378925 -0.26255 0.35735
v -0.378925 -0.26255 0.35735
v 2.500415e-05 -0.26255 0.4518
v 2.500415e-05 0.001250075 0.4637
v 2.500415e-05 0.001250075 0.4637
v 2.500415e-05 -0.26255 0.4518
v 0.378975 -0.26255 0.35735
v 0.378975 -0.26255 0.35735
v 0.388725 0.00125006 0.36685
v 2.500415e-05 0.001250075 0.4637
v 0.491075 0.0 0.1587
v 0.388725 0.00125006 0.36685
v 0.378975 -0.26255 0.35735
v 0.378975 -0.26255 0.35735
v 0.478675 -0.2651 0.15445
v 0.491075 0.0 0.1587
v 0.378975 -0.26255 -0.2467
v 0.388725 0.001249955 -0.2757
v 0.491075 0.0 0.1587
v 0.491075 0.0 0.1587
v 0.478675 -0.2651 0.15445
v 0.378975 -0.26255 -0.2467
v -0.490975 0.0 0.15885
v -0.388675 0.001249955 -0.2757
v -0.378925 -0.26255 -0.2467
v -0.378925 -0.26255 -0.2467
v -0.478575 -0.26505 0.1546
v -0.490975 0.0 0.15885
v -0.378925 -0.26255 -0.2467
v -0.388675 0.001249955 -0.2757
v -0.297825 -0.139 -0.2908
v -0.378925 -0.26255 -0.2467
v -0.297825 -0.139 -0.2908
v -0.208075 -0.26195 -0.31425
v 0.297875 -0.139 -0.2908
v 0.388725 0.001249955 -0.2757
v 0.378975 -0.26255 -0.2467
v 0.378975 -0.26255 -0.2467
v 0.304391 -0.526345 -0.2291865
v 0.208175 -0.26195 -0.31425
v -0.388675 0.001249955 -0.2757
v -0.213025 -0.02000005 -0.3394
v -0.297825 -0.139 -0.2908
v 0.297875 -0.139 -0.2908
v 0.213075 -0.02000005 -0.3394
v 0.388725 0.001249955 -0.2757
v -0.3043405 -0.526305 -0.2291865
v -0.378925 -0.26255 -0.2467
v -0.208075 -0.26195 -0.31425
v 0.02607935 -0.52845 -0.3507185
v 0.032025 -0.30835 -0.3821
v 0.208175 -0.26195 -0.31425
v 0.208175 -0.26195 -0.31425
v 0.304391 -0.526345 -0.2291865
v 0.02607935 -0.52845 -0.3507185
v 2.500415e-05 0.2771 -0.46895
v 2.500415e-05 0.0253999 -0.4328
v -0.213025 -0.02000005 -0.3394
v 0.213075 -0.02000005 -0.3394
v 2.500415e-05 0.0253999 -0.4328
v 2.500415e-05 0.2771 -0.46895
v -0.439575 0.355 0.1501
v -0.504875 0.2968 0.1636
v -0.399575 0.2955 0.3774
v -0.399575 0.2955 0.3774
v -0.347875 0.35385 0.3362
v -0.439575 0.355 0.1501
v -0.347875 0.35385 0.3362
v -0.399575 0.2955 0.3774
v 2.500415e-05 0.29545 0.477
v 2.500415e-05 0.29545 0.477
v 2.500415e-05 0.35385 0.42295
v -0.347875 0.35385 0.3362
v 0.347925 0.35385 0.3362
v 2.500415e-05 0.35385 0.42295
v 2.500415e-05 0.29545 0.477
v 2.500415e-05 0.29545 0.477
v 0.399625 0.29545 0.3774
v 0.347925 0.35385 0.3362
v 0.439625 0.355 0.14995
v 0.347925 0.35385 0.3362
v 0.399625 0.29545 0.3774
v 0.399625 0.29545 0.3774
v 0.504925 0.2968 0.16345
v 0.439625 0.355 0.14995
v 0.347925 0.35385 -0.26625
v 0.439625 0.355 0.14995
v 0.504925 0.2968 0.16345
v 0.504925 0.2968 0.16345
v 0.399625 0.29545 -0.3094
v 0.347925 0.35385 -0.26625
v -0.347875 0.35385 -0.26625
v -0.399575 0.2955 -0.3094
v -0.504875 0.2968 0.1636
v -0.504875 0.2968 0.1636
v -0.439575 0.355 0.1501
v -0.347875 0.35385 -0.26625
v -0.347875 0.35385 -0.26625
v 2.500415e-05 0.35385 -0.4082
v 2.500415e-05 0.29545 -0.4716
v 2.500415e-05 0.29545 -0.4716
v -0.399575 0.2955 -0.3094
v -0.347875 0.35385 -0.26625
v 2.500415e-05 0.29545 -0.4716
v 2.500415e-05 0.35385 -0.4082
v 0.347925 0.35385 -0.26625
v 0.347925 0.35385 -0.26625
v 0.399625 0.29545 -0.3094
v 2.500415e-05 0.29545 -0.4716
v -0.515825 0.53015 0.16735
v -0.510375 0.41345 0.1655
v -0.403875 0.41215 0.38155
v -0.403875 0.41215 0.38155
v -0.408225 0.5288 0.38575
v -0.515825 0.53015 0.16735
v -0.408225 0.5288 0.38575
v -0.403875 0.41215 0.38155
v 2.500415e-05 0.41215 0.48225
v 2.500415e-05 0.41215 0.48225
v 2.500415e-05 0.5288 0.4875
v -0.408225 0.5288 0.38575
v 2.500415e-05 0.5288 0.4875
v 2.500415e-05 0.41215 0.48225
v 0.403975 0.41215 0.38155
v 0.403975 0.41215 0.38155
v 0.408275 0.5288 0.38575
v 2.500415e-05 0.5288 0.4875
v 0.408275 0.5288 0.38575
v 0.403975 0.41215 0.38155
v 0.510375 0.41345 0.1653
v 0.510375 0.41345 0.1653
v 0.515825 0.5301 0.1672
v 0.408275 0.5288 0.38575
v 0.403975 0.41215 -0.3232
v 0.408275 0.5288 -0.33715
v 0.515825 0.5301 0.1672
v 0.515825 0.5301 0.1672
v 0.510375 0.41345 0.1653
v 0.403975 0.41215 -0.3232
v -0.515825 0.53015 0.16735
v -0.408225 0.5288 -0.33715
v -0.403875 0.41215 -0.3232
v -0.403875 0.41215 -0.3232
v -0.510375 0.41345 0.1655
v -0.515825 0.53015 0.16735
v -0.408225 0.5288 -0.33715
v 2.500415e-05 0.5288 -0.5063
v 2.500415e-05 0.41215 -0.4888
v 2.500415e-05 0.41215 -0.4888
v -0.403875 0.41215 -0.3232
v -0.408225 0.5288 -0.33715
v 2.500415e-05 0.41215 -0.4888
v 2.500415e-05 0.5288 -0.5063
v 0.408275 0.5288 -0.33715
v 0.408275 0.5288 -0.33715
v 0.403975 0.41215 -0.3232
v 2.500415e-05 0.41215 -0.4888
v -0.403875 0.41215 0.38155
v -0.510375 0.41345 0.1655
v -0.439575 0.355 0.1501
v -0.439575 0.355 0.1501
v -0.347875 0.35385 0.3362
v -0.403875 0.41215 0.38155
v 2.500415e-05 0.41215 0.48225
v -0.403875 0.41215 0.38155
v -0.347875 0.35385 0.3362
v -0.347875 0.35385 0.3362
v 2.500415e-05 0.35385 0.42295
v 2.500415e-05 0.41215 0.48225
v 2.500415e-05 0.41215 0.48225
v 2.500415e-05 0.35385 0.42295
v 0.347925 0.35385 0.3362
v 0.347925 0.35385 0.3362
v 0.403975 0.41215 0.38155
v 2.500415e-05 0.41215 0.48225
v 0.403975 0.41215 0.38155
v 0.347925 0.35385 0.3362
v 0.439625 0.355 0.14995
v 0.439625 0.355 0.14995
v 0.510375 0.41345 0.1653
v 0.403975 0.41215 0.38155
v 0.347925 0.35385 -0.26625
v 0.403975 0.41215 -0.3232
v 0.510375 0.41345 0.1653
v 0.510375 0.41345 0.1653
v 0.439625 0.355 0.14995
v 0.347925 0.35385 -0.26625
v -0.510375 0.41345 0.1655
v -0.403875 0.41215 -0.3232
v -0.347875 0.35385 -0.26625
v -0.347875 0.35385 -0.26625
v -0.439575 0.355 0.1501
v -0.510375 0.41345 0.1655
v 2.500415e-05 0.41215 -0.4888
v 2.500415e-05 0.35385 -0.4082
v -0.347875 0.35385 -0.26625
v -0.347875 0.35385 -0.26625
v -0.403875 0.41215 -0.3232
v 2.500415e-05 0.41215 -0.4888
v 2.500415e-05 0.41215 -0.4888
v 0.403975 0.41215 -0.3232
v 0.347925 0.35385 -0.26625
v 0.347925 0.35385 -0.26625
v 2.500415e-05 0.35385 -0.4082
v 2.500415e-05 0.41215 -0.4888
v -0.515825 0.53015 0.16735
v -0.408225 0.5288 0.38575
v 2.500415e-05 0.52915 0.0484999
v -0.408225 0.5288 0.38575
v 2.500415e-05 0.5288 0.4875
v 2.500415e-05 0.52915 0.0484999
v 2.500415e-05 0.5288 0.4875
v 0.408275 0.5288 0.38575
v 2.500415e-05 0.52915 0.0484999
v 0.408275 0.5288 0.38575
v 0.515825 0.5301 0.1672
v 2.500415e-05 0.52915 0.0484999
v 0.515825 0.5301 0.1672
v 0.408275 0.5288 -0.33715
v 2.500415e-05 0.52915 0.0484999
v 0.408275 0.5288 -0.33715
v 2.500415e-05 0.5288 -0.5063
v 2.500415e-05 0.52915 0.0484999
v 2.500415e-05 0.5288 -0.5063
v -0.408225 0.5288 -0.33715
v 2.500415e-05 0.52915 0.0484999
v -0.408225 0.5288 -0.33715
v -0.515825 0.53015 0.16735
v 2.500415e-05 0.52915 0.0484999
v 0.0278108 -0.5242 -0.2533445
v 0.02607935 -0.52845 -0.3507185
v 0.304391 -0.526345 -0.2291865
v -0.3043405 -0.526305 -0.2291865
v -0.02602935 -0.52845 -0.3507185
v -0.0277608 -0.5242 -0.2533445
v -0.369125 -0.5263 0.3479
v -0.466175 -0.53015 0.15035
v 2.500415e-05 -0.5267 0.09445
v -0.466175 -0.53015 0.15035
v -0.3043405 -0.526305 -0.2291865
v 2.500415e-05 -0.5267 0.09445
v -0.3043405 -0.526305 -0.2291865
v -0.0277608 -0.5242 -0.2533445
v 2.500415e-05 -0.5267 0.09445
v -0.0277608 -0.5242 -0.2533445
v 0.0278108 -0.5242 -0.2533445
v 2.500415e-05 -0.5267 0.09445
v 0.0278108 -0.5242 -0.2533445
v 0.304391 -0.526345 -0.2291865
v 2.500415e-05 -0.5267 0.09445
v 0.304391 -0.526345 -0.2291865
v 0.466275 -0.53015 0.1502
v 2.500415e-05 -0.5267 0.09445
v 0.466275 -0.53015 0.1502
v 0.369175 -0.52635 0.3479
v 2.500415e-05 -0.5267 0.09445
v 0.369175 -0.52635 0.3479
v 2.500415e-05 -0.52635 0.43995
v 2.500415e-05 -0.5267 0.09445
v 2.500415e-05 -0.52635 0.43995
v -0.369125 -0.5263 0.3479
v 2.500415e-05 -0.5267 0.09445
v 2.500415e-05 -0.14475 -0.34385
v 2.500415e-05 -0.2676 -0.2991
v -0.191325 -0.23225 -0.2994
v -0.191325 -0.23225 -0.2994
v -0.192775 -0.1477 -0.3305
v 2.500415e-05 -0.14475 -0.34385
v -0.191325 -0.23225 -0.2994
v -0.249525 -0.1457 -0.3076
v -0.192775 -0.1477 -0.3305
v 2.500415e-05 -0.14475 -0.34385
v -0.192775 -0.1477 -0.3305
v -0.194225 -0.06105 -0.33875
v -0.194225 -0.06105 -0.33875
v 2.500415e-05 -0.02700005 -0.36475
v 2.500415e-05 -0.14475 -0.34385
v -0.249525 -0.1457 -0.3076
v -0.194225 -0.06105 -0.33875
v -0.192775 -0.1477 -0.3305
v -0.249525 -0.1457 -0.3076
v -0.268975 -0.1344 -0.2475
v -0.209575 -0.04060005 -0.25835
v -0.209575 -0.04060005 -0.25835
v -0.194225 -0.06105 -0.33875
v -0.249525 -0.1457 -0.3076
v -0.194225 -0.06105 -0.33875
v -0.209575 -0.04060005 -0.25835
v 2.500415e-05 0.00434996 -0.2701
v 2.500415e-05 0.00434996 -0.2701
v 2.500415e-05 -0.02700005 -0.36475
v -0.194225 -0.06105 -0.33875
v -0.191325 -0.23225 -0.2994
v 2.500415e-05 -0.2676 -0.2991
v 2.500415e-05 -0.2642 -0.24465
v 2.500415e-05 -0.2642 -0.24465
v -0.206125 -0.2286 -0.24095
v -0.191325 -0.23225 -0.2994
v -0.249525 -0.1457 -0.3076
v -0.191325 -0.23225 -0.2994
v -0.206125 -0.2286 -0.24095
v -0.206125 -0.2286 -0.24095
v -0.268975 -0.1344 -0.2475
v -0.249525 -0.1457 -0.3076
v 2.500415e-05 -0.14475 -0.34385
v 0.192825 -0.1477 -0.3305
v 0.191375 -0.23225 -0.2994
v 0.191375 -0.23225 -0.2994
v 2.500415e-05 -0.2676 -0.2991
v 2.500415e-05 -0.14475 -0.34385
v 0.191375 -0.23225 -0.2994
v 0.192825 -0.1477 -0.3305
v 0.249625 -0.1457 -0.3076
v 2.500415e-05 -0.14475 -0.34385
v 2.500415e-05 -0.02700005 -0.36475
v 0.194325 -0.06105 -0.33875
v 0.194325 -0.06105 -0.33875
v 0.192825 -0.1477 -0.3305
v 2.500415e-05 -0.14475 -0.34385
v 0.249625 -0.1457 -0.3076
v 0.192825 -0.1477 -0.3305
v 0.194325 -0.06105 -0.33875
v 0.249625 -0.1457 -0.3076
v 0.194325 -0.06105 -0.33875
v 0.209675 -0.04060005 -0.25835
v 0.209675 -0.04060005 -0.25835
v 0.269025 -0.1344 -0.2475
v 0.249625 -0.1457 -0.3076
v 0.194325 -0.06105 -0.33875
v 2.500415e-05 -0.02700005 -0.36475
v 2.500415e-05 0.00434996 -0.2701
v 2.500415e-05 0.00434996 -0.2701
v 0.209675 -0.04060005 -0.25835
v 0.194325 -0.06105 -0.33875
v 0.191375 -0.23225 -0.2994
v 0.206175 -0.2286 -0.24095
v 2.500415e-05 -0.2642 -0.24465
v 2.500415e-05 -0.2642 -0.24465
v 2.500415e-05 -0.2676 -0.2991
v 0.191375 -0.23225 -0.2994
v 0.249625 -0.1457 -0.3076
v 0.269025 -0.1344 -0.2475
v 0.206175 -0.2286 -0.24095
v 0.206175 -0.2286 -0.24095
v 0.191375 -0.23225 -0.2994
v 0.249625 -0.1457 -0.3076
v -0.286775 0.48835 -0.3776
v -0.284925 0.4883 -0.4476
v -0.284925 0.02419995 -0.44035
v -0.284925 0.02419995 -0.44035
v -0.286775 0.02419995 -0.3703
v -0.286775 0.48835 -0.3776
v 0.003275005 0.0472499 -0.52915
v 0.003225005 -0.0374001 -0.5277
v -0.144325 -0.02950005 -0.47505
v -0.144325 -0.02950005 -0.47505
v -0.228625 0.0442499 -0.4773
v 0.003275005 0.0472499 -0.52915
v -0.228625 0.43995 -0.48455
v 0.003475005 0.43995 -0.5364
v 0.003275005 0.0472499 -0.52915
v 0.003275005 0.0472499 -0.52915
v -0.228625 0.0442499 -0.4773
v -0.228625 0.43995 -0.48455
v 0.147825 -0.02950005 -0.46745
v 0.003225005 -0.0374001 -0.5277
v 0.003275005 0.0472499 -0.52915
v 0.003275005 0.0472499 -0.52915
v 0.232175 0.0442499 -0.46525
v 0.147825 -0.02950005 -0.46745
v 0.003275005 0.0472499 -0.52915
v 0.003475005 0.43995 -0.5364
v 0.232525 0.43995 -0.4725
v 0.232525 0.43995 -0.4725
v 0.232175 0.0442499 -0.46525
v 0.003275005 0.0472499 -0.52915
v 0.000625005 0.48835 -0.42795
v 0.002475005 0.48835 -0.498
v -0.284925 0.4883 -0.4476
v -0.284925 0.4883 -0.4476
v -0.286775 0.48835 -0.3776
v 0.000625005 0.48835 -0.42795
v 0.000625005 0.48835 -0.42795
v 0.284975 0.48835 -0.36265
v 0.286825 0.48835 -0.4327
v 0.286825 0.48835 -0.4327
v 0.002475005 0.48835 -0.498
v 0.000625005 0.48835 -0.42795
v 0.000425004 -0.08575 -0.4193
v -0.170075 -0.07785 -0.3673
v -0.168275 -0.07785 -0.43735
v -0.168275 -0.07785 -0.43735
v 0.002225005 -0.0858 -0.48935
v 0.000425004 -0.08575 -0.4193
v 0.169775 -0.07785 -0.42845
v 0.167925 -0.07785 -0.3584
v 0.000425004 -0.08575 -0.4193
v 0.000425004 -0.08575 -0.4193
v 0.002225005 -0.0858 -0.48935
v 0.169775 -0.07785 -0.42845
v -0.170075 -0.07785 -0.3673
v -0.286775 0.02419995 -0.3703
v -0.284925 0.02419995 -0.44035
v -0.284925 0.02419995 -0.44035
v -0.168275 -0.07785 -0.43735
v -0.170075 -0.07785 -0.3673
v -0.144325 -0.02950005 -0.47505
v 0.003225005 -0.0374001 -0.5277
v 0.002225005 -0.0858 -0.48935
v 0.002225005 -0.0858 -0.48935
v -0.168275 -0.07785 -0.43735
v -0.144325 -0.02950005 -0.47505
v 0.147825 -0.02950005 -0.46745
v 0.169775 -0.07785 -0.42845
v 0.002225005 -0.0858 -0.48935
v 0.002225005 -0.0858 -0.48935
v 0.003225005 -0.0374001 -0.5277
v 0.147825 -0.02950005 -0.46745
v -0.228625 0.0442499 -0.4773
v -0.144325 -0.02950005 -0.47505
v -0.168275 -0.07785 -0.43735
v -0.168275 -0.07785 -0.43735
v -0.284925 0.02419995 -0.44035
v -0.228625 0.0442499 -0.4773
v -0.228625 0.43995 -0.48455
v -0.228625 0.0442499 -0.4773
v -0.284925 0.02419995 -0.44035
v -0.284925 0.02419995 -0.44035
v -0.284925 0.4883 -0.4476
v -0.228625 0.43995 -0.48455
v -0.228625 0.43995 -0.48455
v -0.284925 0.4883 -0.4476
v 0.002475005 0.48835 -0.498
v 0.002475005 0.48835 -0.498
v 0.003475005 0.43995 -0.5364
v -0.228625 0.43995 -0.48455
v 0.002475005 0.48835 -0.498
v 0.286825 0.48835 -0.4327
v 0.232525 0.43995 -0.4725
v 0.232525 0.43995 -0.4725
v 0.003475005 0.43995 -0.5364
v 0.002475005 0.48835 -0.498
v 0.284975 0.48835 -0.36265
v 0.284625 0.02419995 -0.3554
v 0.286425 0.02424995 -0.42545
v 0.286425 0.02424995 -0.42545
v 0.286825 0.48835 -0.4327
v 0.284975 0.48835 -0.36265
v 0.167925 -0.07785 -0.3584
v 0.169775 -0.07785 -0.42845
v 0.286425 0.02424995 -0.42545
v 0.286425 0.02424995 -0.42545
v 0.284625 0.02419995 -0.3554
v 0.167925 -0.07785 -0.3584
v 0.232175 0.0442499 -0.46525
v 0.286425 0.02424995 -0.42545
v 0.169775 -0.07785 -0.42845
v 0.169775 -0.07785 -0.42845
v 0.147825 -0.02950005 -0.46745
v 0.232175 0.0442499 -0.46525
v 0.232525 0.43995 -0.4725
v 0.286825 0.48835 -0.4327
v 0.286425 0.02424995 -0.42545
v 0.286425 0.02424995 -0.42545
v 0.232175 0.0442499 -0.46525
v 0.232525 0.43995 -0.4725
v 0.361875 -0.1511 0.42775
v 0.338825 -0.1511 0.36145
v 0.338825 0.27075 0.36145
v 0.338825 0.27075 0.36145
v 0.361875 0.27075 0.42775
v 0.361875 -0.1511 0.42775
v 0.203275 0.32625 0.49935
v 2.500415e-05 0.32625 0.5364
v 2.500415e-05 0.24695 0.5364
v 2.500415e-05 0.24695 0.5364
v 0.306625 0.25005 0.47805
v 0.203275 0.32625 0.49935
v 2.500415e-05 -0.138 0.5364
v 2.500415e-05 -0.2741 0.5364
v 0.306675 -0.2741 0.47805
v 0.306675 -0.2741 0.47805
v 0.306625 -0.13645 0.47805
v 2.500415e-05 -0.138 0.5364
v 2.500415e-05 0.24695 0.5364
v 2.500415e-05 0.32625 0.5364
v -0.203225 0.32625 0.49935
v -0.203225 0.32625 0.49935
v -0.306625 0.25005 0.47805
v 2.500415e-05 0.24695 0.5364
v 2.500415e-05 0.24695 0.5364
v -0.306625 0.25005 0.47805
v -0.306625 -0.13645 0.47805
v -0.306625 -0.13645 0.47805
v 2.500415e-05 -0.138 0.5364
v 2.500415e-05 0.24695 0.5364
v 0.218725 0.37625 0.4573
v 0.195775 0.37625 0.39105
v 2.500415e-05 0.37625 0.43385
v 2.500415e-05 0.37625 0.43385
v 2.500415e-05 0.37625 0.5001
v 0.218725 0.37625 0.4573
v 2.500415e-05 0.37625 0.43385
v -0.195675 0.37625 0.39105
v -0.218725 0.37625 0.4573
v -0.218725 0.37625 0.4573
v 2.500415e-05 0.37625 0.5001
v 2.500415e-05 0.37625 0.43385
v 0.338825 0.27075 0.36145
v 0.195775 0.37625 0.39105
v 0.218725 0.37625 0.4573
v 0.218725 0.37625 0.4573
v 0.361875 0.27075 0.42775
v 0.338825 0.27075 0.36145
v 0.203275 0.32625 0.49935
v 0.218725 0.37625 0.4573
v 2.500415e-05 0.37625 0.5001
v 2.500415e-05 0.37625 0.5001
v 2.500415e-05 0.32625 0.5364
v 0.203275 0.32625 0.49935
v 0.218725 0.37625 0.4573
v 0.203275 0.32625 0.49935
v 0.306625 0.25005 0.47805
v 0.306625 0.25005 0.47805
v 0.361875 0.27075 0.42775
v 0.218725 0.37625 0.4573
v 0.306625 0.25005 0.47805
v 0.306625 -0.13645 0.47805
v 0.361875 -0.1511 0.42775
v 0.361875 -0.1511 0.42775
v 0.361875 0.27075 0.42775
v 0.306625 0.25005 0.47805
v 2.500415e-05 -0.3241 0.5001
v 0.361875 -0.3241 0.42775
v 0.306675 -0.2741 0.47805
v 0.306675 -0.2741 0.47805
v 2.500415e-05 -0.2741 0.5364
v 2.500415e-05 -0.3241 0.5001
v -0.338775 -0.1511 0.36145
v -0.338775 -0.3241 0.36145
v -0.361775 -0.3241 0.42775
v -0.361775 -0.3241 0.42775
v -0.361775 -0.1511 0.42775
v -0.338775 -0.1511 0.36145
v -0.218725 0.37625 0.4573
v -0.195675 0.37625 0.39105
v -0.338775 0.27075 0.36145
v -0.338775 0.27075 0.36145
v -0.361775 0.27075 0.42775
v -0.218725 0.37625 0.4573
v -0.203225 0.32625 0.49935
v 2.500415e-05 0.32625 0.5364
v 2.500415e-05 0.37625 0.5001
v 2.500415e-05 0.37625 0.5001
v -0.218725 0.37625 0.4573
v -0.203225 0.32625 0.49935
v -0.218725 0.37625 0.4573
v -0.361775 0.27075 0.42775
v -0.306625 0.25005 0.47805
v -0.306625 0.25005 0.47805
v -0.203225 0.32625 0.49935
v -0.218725 0.37625 0.4573
v -0.361775 -0.1511 0.42775
v -0.306625 -0.13645 0.47805
v -0.306625 0.25005 0.47805
v -0.306625 0.25005 0.47805
v -0.361775 0.27075 0.42775
v -0.361775 -0.1511 0.42775
v -0.306625 -0.2741 0.47805
v -0.361775 -0.3241 0.42775
v 2.500415e-05 -0.3241 0.5001
v 2.500415e-05 -0.3241 0.5001
v 2.500415e-05 -0.2741 0.5364
v -0.306625 -0.2741 0.47805
v 0.338825 -0.3241 0.36145
v 0.338825 -0.1511 0.36145
v 0.361875 -0.1511 0.42775
v 0.361875 -0.1511 0.42775
v 0.361875 -0.3241 0.42775
v 0.338825 -0.3241 0.36145
v 0.306625 -0.13645 0.47805
v 0.306625 0.25005 0.47805
v 2.500415e-05 0.24695 0.5364
v 2.500415e-05 0.24695 0.5364
v 2.500415e-05 -0.138 0.5364
v 0.306625 -0.13645 0.47805
v 2.500415e-05 -0.2741 0.5364
v 2.500415e-05 -0.138 0.5364
v -0.306625 -0.13645 0.47805
v -0.306625 -0.13645 0.47805
v -0.306625 -0.2741 0.47805
v 2.500415e-05 -0.2741 0.5364
v 0.306675 -0.2741 0.47805
v 0.361875 -0.3241 0.42775
v 0.361875 -0.1511 0.42775
v 0.361875 -0.1511 0.42775
v 0.306625 -0.13645 0.47805
v 0.306675 -0.2741 0.47805
v -0.338775 0.27075 0.36145
v -0.338775 -0.1511 0.36145
v -0.361775 -0.1511 0.42775
v -0.361775 -0.1511 0.42775
v -0.361775 0.27075 0.42775
v -0.338775 0.27075 0.36145
v -0.361775 -0.1511 0.42775
v -0.361775 -0.3241 0.42775
v -0.306625 -0.2741 0.47805
v -0.306625 -0.2741 0.47805
v -0.306625 -0.13645 0.47805
v -0.361775 -0.1511 0.42775

vn -0.8961 -0.0489999 0.4411
vn -0.8961 -0.0489999 0.4411
vn -0.8961 -0.0489999 0.4411
vn -0.8961 -0.0489999 0.4411
vn -0.8961 -0.0489999 0.4411
vn -0.8961 -0.0489999 0.4411
vn 0.0 -0.0449999 0.999
vn -0.2416 -0.0436999 0.9694
vn -0.2416 -0.0436999 0.9694
vn -0.2416 -0.0436999 0.9694
vn 0.0 -0.0449999 0.999
vn 0.0 -0.0449999 0.999
vn 0.2416 -0.0436999 0.9694
vn 0.2416 -0.0436999 0.9694
vn 0.0 -0.0449999 0.999
vn 0.0 -0.0449999 0.999
vn 0.0 -0.0449999 0.999
vn 0.2416 -0.0436999 0.9694
vn 0.8962 -0.0489999 0.4409
vn 0.8962 -0.0489999 0.4409
vn 0.8962 -0.0489999 0.4409
vn 0.8962 -0.0489999 0.4409
vn 0.8962 -0.0489999 0.4409
vn 0.8962 -0.0489999 0.4409
vn 0.9678 -0.0541 -0.246
vn 0.9698 -0.0577 -0.2369
vn 0.9684 -0.0452 -0.2453
vn 0.9684 -0.0452 -0.2453
vn 0.9662 -0.0411 -0.2546
vn 0.9678 -0.0541 -0.246
vn -0.9678 -0.0541 -0.2458
vn -0.9662 -0.0412 -0.2544
vn -0.9684 -0.0452 -0.2451
vn -0.9684 -0.0452 -0.2451
vn -0.9699 -0.0577 -0.2368
vn -0.9678 -0.0541 -0.2458
vn -0.3894 -0.0788001 -0.9177
vn -0.3863 -0.0959001 -0.9174
vn -0.3779 -0.0899001 -0.9215
vn -0.3779 -0.0899001 -0.9215
vn -0.374 -0.0672001 -0.925
vn -0.3894 -0.0788001 -0.9177
vn 0.3479 -0.1117 -0.9308
vn 0.3591 -0.1058 -0.9273
vn 0.3779 -0.0899001 -0.9215
vn 0.5514 0.833 -0.0456001
vn 0.5 0.8647 -0.0473001
vn 1.0 -0.0022 0.0015
vn 1.0 -0.0022 0.0015
vn 0.9998 0.0202 0.000499998
vn 0.5514 0.833 -0.0456001
vn 0.4954 -0.8674 0.0475001
vn 0.0 -0.9985 0.0539001
vn 0.0 -0.9986 0.0538001
vn 0.0 -0.9986 0.0538001
vn 0.5642 -0.8244 0.0452001
vn 0.4954 -0.8674 0.0475001
vn 0.0 -0.9986 0.0538001
vn 0.0 -0.9985 0.0539001
vn -0.4954 -0.8674 0.0475001
vn -0.4954 -0.8674 0.0475001
vn -0.5641 -0.8244 0.0451001
vn 0.0 -0.9986 0.0538001
vn -0.5641 -0.8244 0.0451001
vn -0.4954 -0.8674 0.0475001
vn -1.0 -0.0021 0.0016
vn -1.0 -0.0021 0.0016
vn -0.9998 0.0203 0.000299998
vn -0.5641 -0.8244 0.0451001
vn -0.5513 0.833 -0.0455001
vn -0.9998 0.0203 0.000299998
vn -1.0 -0.0021 0.0016
vn -1.0 -0.0021 0.0016
vn -0.4998 0.8648 -0.0474001
vn -0.5513 0.833 -0.0455001
vn -0.2348 0.9705 -0.0539001
vn -0.5513 0.833 -0.0455001
vn -0.4998 0.8648 -0.0474001
vn -0.4998 0.8648 -0.0474001
vn -0.2348 0.9705 -0.0540001
vn -0.2348 0.9705 -0.0539001
vn 1.0 -0.0022 0.0015
vn 0.4954 -0.8674 0.0475001
vn 0.5642 -0.8244 0.0452001
vn 0.5642 -0.8244 0.0452001
vn 0.9998 0.0202 0.000499998
vn 1.0 -0.0022 0.0015
vn 0.2347 0.9706 -0.0540001
vn 0.2348 0.9706 -0.0539001
vn 0.5 0.8647 -0.0473001
vn 0.5 0.8647 -0.0473001
vn 0.5514 0.833 -0.0456001
vn 0.2347 0.9706 -0.0540001
vn -0.9998 0.0032 0.0189
vn -0.9998 0.0036 0.0181
vn -0.9998 0.0038 0.0176
vn -0.9998 0.0038 0.0176
vn -0.9998 0.0034 0.0185
vn -0.9998 0.0032 0.0189
vn -0.0028 -0.0322001 -0.9995
vn 0.0 -0.0239001 -0.9997
vn 0.0 -0.0239001 -0.9997
vn 0.0 -0.0239001 -0.9997
vn 0.0028 -0.0322001 -0.9995
vn -0.0028 -0.0322001 -0.9995
vn 0.9998 0.0038 0.0189
vn 0.9998 0.0033 0.0181
vn 0.9998 0.0031 0.0177
vn 0.9998 0.0031 0.0177
vn 0.9998 0.0036 0.0185
vn 0.9998 0.0038 0.0189
vn 0.0202 -0.0725001 -0.9972
vn 0.0166 -0.0941001 -0.9954
vn 0.0 -0.0732001 -0.9973
vn 0.0166 -0.0941001 -0.9954
vn 0.0 -0.109 -0.994
vn 0.0 -0.0732001 -0.9973
vn 0.0 -0.109 -0.994
vn -0.0166 -0.0941001 -0.9954
vn 0.0 -0.0732001 -0.9973
vn -0.0166 -0.0941001 -0.9954
vn -0.0202 -0.0725001 -0.9972
vn 0.0 -0.0732001 -0.9973
vn -0.0202 -0.0725001 -0.9972
vn -0.0163 -0.0511001 -0.9986
vn 0.0 -0.0732001 -0.9973
vn -0.0163 -0.0511001 -0.9986
vn -0.0028 -0.0322001 -0.9995
vn 0.0 -0.0732001 -0.9973
vn -0.0028 -0.0322001 -0.9995
vn 0.0028 -0.0322001 -0.9995
vn 0.0 -0.0732001 -0.9973
vn 0.0028 -0.0322001 -0.9995
vn 0.0163 -0.0511001 -0.9986
vn 0.0 -0.0732001 -0.9973
vn 0.0163 -0.0511001 -0.9986
vn 0.0202 -0.0725001 -0.9972
vn 0.0 -0.0732001 -0.9973
vn -0.8961 -0.0489999 0.4412
vn -0.8961 -0.0489999 0.4411
vn -0.8961 -0.0489999 0.4411
vn -0.8961 -0.0489999 0.4411
vn -0.8961 -0.0489999 0.4412
vn -0.8961 -0.0489999 0.4412
vn 0.0 -0.0449999 0.999
vn -0.2416 -0.0436999 0.9694
vn -0.2416 -0.0436999 0.9694
vn -0.2416 -0.0436999 0.9694
vn 0.0 -0.0449999 0.999
vn 0.0 -0.0449999 0.999
vn 0.0 -0.0449999 0.999
vn 0.0 -0.0449999 0.999
vn 0.2416 -0.0436999 0.9694
vn 0.2416 -0.0436999 0.9694
vn 0.2416 -0.0436999 0.9694
vn 0.0 -0.0449999 0.999
vn 0.8962 -0.0489999 0.4408
vn 0.8962 -0.0489999 0.4409
vn 0.8962 -0.0489999 0.4409
vn 0.8962 -0.0489999 0.4409
vn 0.8962 -0.0489999 0.4409
vn 0.8962 -0.0489999 0.4408
vn 0.9727 -0.0575 -0.2248
vn 0.9743 -0.0609 -0.2168
vn 0.9732 -0.0489 -0.2246
vn 0.9732 -0.0489 -0.2246
vn 0.9714 -0.0452 -0.2329
vn 0.9727 -0.0575 -0.2248
vn -0.9732 -0.049 -0.2245
vn -0.9743 -0.0609 -0.2168
vn -0.9727 -0.0575 -0.2247
vn -0.9727 -0.0575 -0.2247
vn -0.9715 -0.0452 -0.2328
vn -0.9732 -0.049 -0.2245
vn -0.3728 -0.1197 -0.9202
vn -0.3727 -0.1342 -0.9182
vn -0.3711 -0.1323 -0.9191
vn -0.3711 -0.1323 -0.9191
vn -0.3553 -0.1277 -0.926
vn -0.3728 -0.1197 -0.9202
vn 0.3711 -0.1323 -0.9191
vn 0.3727 -0.1342 -0.9182
vn 0.3728 -0.1197 -0.9202
vn 0.3728 -0.1197 -0.9202
vn 0.3553 -0.1277 -0.926
vn 0.3711 -0.1323 -0.9191
vn -0.3553 -0.1277 -0.926
vn -0.3711 -0.1323 -0.9191
vn -0.3565 -0.1408 -0.9236
vn 0.3565 -0.1408 -0.9236
vn 0.3711 -0.1323 -0.9191
vn 0.3553 -0.1277 -0.926
vn -0.8961 -0.0489999 0.4411
vn -0.8961 -0.0489999 0.4411
vn -0.8961 -0.0489999 0.4411
vn -0.8961 -0.0489999 0.4411
vn -0.8961 -0.0489999 0.4411
vn -0.8961 -0.0489999 0.4411
vn 0.0 -0.0449999 0.999
vn -0.2416 -0.0436999 0.9694
vn -0.2416 -0.0436999 0.9694
vn -0.2416 -0.0436999 0.9694
vn 0.0 -0.0449999 0.999
vn 0.0 -0.0449999 0.999
vn 0.0 -0.0449999 0.999
vn 0.0 -0.0449999 0.999
vn 0.2416 -0.0436999 0.9694
vn 0.2416 -0.0436999 0.9694
vn 0.2416 -0.0436999 0.9694
vn 0.0 -0.0449999 0.999
vn 0.8962 -0.0489999 0.4409
vn 0.8962 -0.0489999 0.4409
vn 0.8962 -0.0489999 0.4409
vn 0.8962 -0.0489999 0.4409
vn 0.8962 -0.0489999 0.4409
vn 0.8962 -0.0489999 0.4409
vn 0.9698 -0.0577 -0.2369
vn 0.9727 -0.0575 -0.2248
vn 0.9714 -0.0452 -0.2329
vn 0.9714 -0.0452 -0.2329
vn 0.9684 -0.0452 -0.2453
vn 0.9698 -0.0577 -0.2369
vn -0.9715 -0.0452 -0.2328
vn -0.9727 -0.0575 -0.2247
vn -0.9699 -0.0577 -0.2368
vn -0.9699 -0.0577 -0.2368
vn -0.9684 -0.0452 -0.2451
vn -0.9715 -0.0452 -0.2328
vn -0.3591 -0.1058 -0.9273
vn -0.3553 -0.1277 -0.926
vn -0.3479 -0.1117 -0.9308
vn -0.3591 -0.1058 -0.9273
vn -0.3479 -0.1117 -0.9308
vn -0.3779 -0.0899001 -0.9215
vn 0.3479 -0.1117 -0.9308
vn 0.3553 -0.1277 -0.926
vn 0.3591 -0.1058 -0.9273
vn 0.3591 -0.1058 -0.9273
vn 0.3863 -0.0959001 -0.9174
vn 0.3779 -0.0899001 -0.9215
vn -0.3553 -0.1277 -0.926
vn -0.3565 -0.1408 -0.9236
vn -0.3479 -0.1117 -0.9308
vn 0.3479 -0.1117 -0.9308
vn 0.3565 -0.1408 -0.9236
vn 0.3553 -0.1277 -0.926
vn -0.3863 -0.0959001 -0.9174
vn -0.3591 -0.1058 -0.9273
vn -0.3779 -0.0899001 -0.9215
vn 0.3894 -0.0788001 -0.9177
vn 0.374 -0.0672001 -0.925
vn 0.3779 -0.0899001 -0.9215
vn 0.3779 -0.0899001 -0.9215
vn 0.3863 -0.0959001 -0.9174
vn 0.3894 -0.0788001 -0.9177
vn -0.3711 -0.1323 -0.9191
vn -0.3745 -0.1317 -0.9178
vn -0.3565 -0.1408 -0.9236
vn 0.3565 -0.1408 -0.9236
vn 0.3745 -0.1317 -0.9178
vn 0.3711 -0.1323 -0.9191
vn -0.6562 0.7515 0.0678999
vn -0.6526 0.7527 0.0868999
vn -0.4353 0.7434 0.5078
vn -0.4353 0.7434 0.5078
vn -0.3903 0.7358 0.5534
vn -0.6562 0.7515 0.0678999
vn -0.3903 0.7358 0.5534
vn -0.4353 0.7434 0.5078
vn 0.0 0.6793 0.7338
vn 0.0 0.6793 0.7338
vn 0.0 0.6793 0.7338
vn -0.3903 0.7358 0.5534
vn 0.3904 0.7358 0.5533
vn 0.0 0.6793 0.7338
vn 0.0 0.6793 0.7338
vn 0.0 0.6793 0.7338
vn 0.4354 0.7435 0.5077
vn 0.3904 0.7358 0.5533
vn 0.6562 0.7515 0.0677999
vn 0.3904 0.7358 0.5533
vn 0.4354 0.7435 0.5077
vn 0.4354 0.7435 0.5077
vn 0.6527 0.7527 0.0866999
vn 0.6562 0.7515 0.0677999
vn 0.4995 0.7554 -0.4241
vn 0.6562 0.7515 0.0677999
vn 0.6527 0.7527 0.0866999
vn 0.6527 0.7527 0.0866999
vn 0.4997 0.756 -0.4228
vn 0.4995 0.7554 -0.4241
vn -0.4995 0.7554 -0.4241
vn -0.4997 0.756 -0.4228
vn -0.6526 0.7527 0.0868999
vn -0.6526 0.7527 0.0868999
vn -0.6562 0.7515 0.0678999
vn -0.4995 0.7554 -0.4241
vn -0.4995 0.7554 -0.4241
vn 0.0 0.7358 -0.6772
vn 0.0 0.7364 -0.6766
vn 0.0 0.7364 -0.6766
vn -0.4997 0.756 -0.4228
vn -0.4995 0.7554 -0.4241
vn 0.0 0.7364 -0.6766
vn 0.0 0.7358 -0.6772
vn 0.4995 0.7554 -0.4241
vn 0.4995 0.7554 -0.4241
vn 0.4997 0.756 -0.4228
vn 0.0 0.7364 -0.6766
vn -0.8961 -0.0489999 0.4412
vn -0.8961 -0.0489999 0.4412
vn -0.8961 -0.0489999 0.4412
vn -0.8961 -0.0489999 0.4412
vn -0.8961 -0.0489999 0.4412
vn -0.8961 -0.0489999 0.4412
vn -0.2416 -0.0436999 0.9694
vn -0.2416 -0.0436999 0.9694
vn 0.0 -0.0449999 0.999
vn 0.0 -0.0449999 0.999
vn 0.0 -0.0449999 0.999
vn -0.2416 -0.0436999 0.9694
vn 0.0 -0.0449999 0.999
vn 0.0 -0.0449999 0.999
vn 0.2416 -0.0436999 0.9694
vn 0.2416 -0.0436999 0.9694
vn 0.2416 -0.0436999 0.9694
vn 0.0 -0.0449999 0.999
vn 0.8963 -0.0489999 0.4408
vn 0.8963 -0.0489999 0.4408
vn 0.8963 -0.0489999 0.4408
vn 0.8963 -0.0489999 0.4408
vn 0.8963 -0.0489999 0.4408
vn 0.8963 -0.0489999 0.4408
vn 0.9762 -0.0585 -0.2087
vn 0.9762 -0.0611 -0.208
vn 0.9763 -0.045 -0.2119
vn 0.9763 -0.045 -0.2119
vn 0.9762 -0.0422 -0.2126
vn 0.9762 -0.0585 -0.2087
vn -0.9762 -0.0451 -0.2119
vn -0.9762 -0.0611 -0.208
vn -0.9762 -0.0586 -0.2087
vn -0.9762 -0.0586 -0.2087
vn -0.9762 -0.0423 -0.2126
vn -0.9762 -0.0451 -0.2119
vn -0.3769 -0.1262 -0.9176
vn -0.3791 -0.1369 -0.9152
vn -0.3787 -0.1349 -0.9157
vn -0.3787 -0.1349 -0.9157
vn -0.3765 -0.124 -0.9181
vn -0.3769 -0.1262 -0.9176
vn 0.3787 -0.1349 -0.9157
vn 0.3791 -0.1369 -0.9152
vn 0.3769 -0.1262 -0.9176
vn 0.3769 -0.1262 -0.9176
vn 0.3765 -0.124 -0.9181
vn 0.3787 -0.1349 -0.9157
vn -0.417 -0.7728 0.4784
vn -0.6236 -0.7774 0.0821001
vn -0.6275 -0.7761 0.0623001
vn -0.6275 -0.7761 0.0623001
vn -0.3726 -0.7658 0.5242
vn -0.417 -0.7728 0.4784
vn 0.0 -0.7132 0.701
vn -0.417 -0.7728 0.4784
vn -0.3726 -0.7658 0.5242
vn -0.3726 -0.7658 0.5242
vn 0.0 -0.7132 0.701
vn 0.0 -0.7132 0.701
vn 0.0 -0.7132 0.701
vn 0.0 -0.7132 0.701
vn 0.3727 -0.7658 0.5241
vn 0.3727 -0.7658 0.5241
vn 0.417 -0.7728 0.4783
vn 0.0 -0.7132 0.701
vn 0.417 -0.7728 0.4783
vn 0.3727 -0.7658 0.5241
vn 0.6276 -0.7761 0.0622001
vn 0.6276 -0.7761 0.0622001
vn 0.6237 -0.7774 0.0819001
vn 0.417 -0.7728 0.4783
vn 0.4677 -0.8051 -0.3647
vn 0.4464 -0.8071 -0.3864
vn 0.6237 -0.7774 0.0819001
vn 0.6237 -0.7774 0.0819001
vn 0.6276 -0.7761 0.0622001
vn 0.4677 -0.8051 -0.3647
vn -0.6236 -0.7774 0.0821001
vn -0.4464 -0.8071 -0.3864
vn -0.4678 -0.8051 -0.3647
vn -0.4678 -0.8051 -0.3647
vn -0.6275 -0.7761 0.0623001
vn -0.6236 -0.7774 0.0821001
vn 0.0 -0.8104 -0.5859
vn 0.0 -0.81 -0.5864
vn -0.4678 -0.8051 -0.3647
vn -0.4678 -0.8051 -0.3647
vn -0.4464 -0.8071 -0.3864
vn 0.0 -0.8104 -0.5859
vn 0.0 -0.8104 -0.5859
vn 0.4464 -0.8071 -0.3864
vn 0.4677 -0.8051 -0.3647
vn 0.4677 -0.8051 -0.3647
vn 0.0 -0.81 -0.5864
vn 0.0 -0.8104 -0.5859
vn 0.0023 1.0 0.00139988
vn 0.0017 1.0 0.00299988
vn 0.0 1.0 -1.19209e-07
vn 0.0017 1.0 0.00299988
vn 0.0 1.0 0.000699881
vn 0.0 1.0 -1.19209e-07
vn 0.0 1.0 0.000699881
vn -0.0017 1.0 0.00299988
vn 0.0 1.0 -1.19209e-07
vn -0.0017 1.0 0.00299988
vn -0.0022 1.0 0.00139988
vn 0.0 1.0 -1.19209e-07
vn -0.0022 1.0 0.00139988
vn -0.0005 1.0 -0.00140012
vn 0.0 1.0 -1.19209e-07
vn -0.0005 1.0 -0.00140012
vn 0.0 1.0 -0.000600119
vn 0.0 1.0 -1.19209e-07
vn 0.0 1.0 -0.000600119
vn 0.0005 1.0 -0.00140012
vn 0.0 1.0 -1.19209e-07
vn 0.0005 1.0 -0.00140012
vn 0.0023 1.0 0.00139988
vn 0.0 1.0 -1.19209e-07
vn -0.0115 -0.999 0.0439001
vn -0.0115 -0.999 0.0439001
vn -0.0115 -0.999 0.0439001
vn 0.0115 -0.999 0.0439001
vn 0.0115 -0.999 0.0439001
vn 0.0115 -0.999 0.0439001
vn 0.0092 -0.9998 0.0148001
vn 0.0092 -0.9998 0.0148001
vn 0.0092 -0.9998 0.0148001
vn 0.0064 -0.9999 -0.00859988
vn 0.0064 -0.9999 -0.00859988
vn 0.0064 -0.9999 -0.00859988
vn 0.0069 -0.9999 -0.00919988
vn 0.0069 -0.9999 -0.00919988
vn 0.0069 -0.9999 -0.00919988
vn 0.0 -1.0 -0.00859988
vn 0.0 -1.0 -0.00859988
vn 0.0 -1.0 -0.00859988
vn -0.0069 -0.9999 -0.00919988
vn -0.0069 -0.9999 -0.00919988
vn -0.0069 -0.9999 -0.00919988
vn -0.0064 -0.9999 -0.00869988
vn -0.0064 -0.9999 -0.00869988
vn -0.0064 -0.9999 -0.00869988
vn -0.0092 -0.9998 0.0148001
vn -0.0092 -0.9998 0.0148001
vn -0.0092 -0.9998 0.0148001
vn 0.0002 -1.0 0.00100012
vn 0.0002 -1.0 0.00100012
vn 0.0002 -1.0 0.00100012
vn -0.0003 -1.0 0.00100012
vn -0.0003 -1.0 0.00100012
vn -0.0003 -1.0 0.00100012
vn 0.0 -0.2479 -0.9688
vn 0.0 -0.3421 -0.9397
vn -0.1408 -0.3427 -0.9288
vn -0.1408 -0.3427 -0.9288
vn -0.218 -0.2194 -0.951
vn 0.0 -0.2479 -0.9688
vn -0.1408 -0.3427 -0.9288
vn -0.3718 -0.2161 -0.9028
vn -0.218 -0.2194 -0.951
vn 0.0 -0.2479 -0.9688
vn -0.218 -0.2194 -0.951
vn -0.1577 -0.1162 -0.9806
vn -0.1577 -0.1162 -0.9806
vn 0.0 -0.1748 -0.9846
vn 0.0 -0.2479 -0.9688
vn -0.3718 -0.2161 -0.9028
vn -0.1577 -0.1162 -0.9806
vn -0.218 -0.2194 -0.951
vn -0.8253 0.4643 -0.3214
vn -0.8092 0.4718 -0.3503
vn -0.5898 0.7428 -0.3168
vn -0.5898 0.7428 -0.3168
vn -0.5296 0.7906 -0.3075
vn -0.8253 0.4643 -0.3214
vn -0.5296 0.7906 -0.3075
vn -0.5898 0.7428 -0.3168
vn 0.0 0.9516 -0.3074
vn 0.0 0.9516 -0.3074
vn 0.0 0.9493 -0.3145
vn -0.5296 0.7906 -0.3075
vn -0.1716 -0.9848 0.0249001
vn 0.0 -0.9981 0.0621001
vn 0.0 -0.9985 0.0542001
vn 0.0 -0.9985 0.0542001
vn -0.1699 -0.9853 0.0185001
vn -0.1716 -0.9848 0.0249001
vn -0.8142 -0.5573 -0.1628
vn -0.8101 -0.5611 -0.1702
vn -0.8121 -0.5592 -0.1667
vn -0.8121 -0.5592 -0.1667
vn -0.816 -0.5556 -0.1596
vn -0.8142 -0.5573 -0.1628
vn 0.0 -0.2479 -0.9688
vn 0.218 -0.2194 -0.951
vn 0.1408 -0.3427 -0.9288
vn 0.1408 -0.3427 -0.9288
vn 0.0 -0.3421 -0.9397
vn 0.0 -0.2479 -0.9688
vn 0.1408 -0.3427 -0.9288
vn 0.218 -0.2194 -0.951
vn 0.3718 -0.2161 -0.9028
vn 0.0 -0.2479 -0.9688
vn 0.0 -0.1748 -0.9846
vn 0.1577 -0.1162 -0.9806
vn 0.1577 -0.1162 -0.9806
vn 0.218 -0.2194 -0.951
vn 0.0 -0.2479 -0.9688
vn 0.3718 -0.2161 -0.9028
vn 0.218 -0.2194 -0.951
vn 0.1577 -0.1162 -0.9806
vn 0.8253 0.4643 -0.3214
vn 0.5296 0.7906 -0.3075
vn 0.5898 0.7428 -0.3168
vn 0.5898 0.7428 -0.3168
vn 0.8092 0.4718 -0.3503
vn 0.8253 0.4643 -0.3214
vn 0.5296 0.7906 -0.3075
vn 0.0 0.9493 -0.3145
vn 0.0 0.9516 -0.3074
vn 0.0 0.9516 -0.3074
vn 0.5898 0.7428 -0.3168
vn 0.5296 0.7906 -0.3075
vn 0.1716 -0.9848 0.0249001
vn 0.1699 -0.9853 0.0185001
vn 0.0 -0.9985 0.0542001
vn 0.0 -0.9985 0.0542001
vn 0.0 -0.9981 0.0621001
vn 0.1716 -0.9848 0.0249001
vn 0.8142 -0.5573 -0.1628
vn 0.816 -0.5556 -0.1596
vn 0.8121 -0.5592 -0.1667
vn 0.8121 -0.5592 -0.1667
vn 0.8101 -0.5611 -0.1702
vn 0.8142 -0.5573 -0.1628
vn -0.9997 -0.000400003 -0.0261
vn -0.9997 -0.000400003 -0.0261
vn -0.9997 -0.000400003 -0.0261
vn -0.9997 -0.000400003 -0.0261
vn -0.9997 -0.000400003 -0.0261
vn -0.9997 -0.000400003 -0.0261
vn 0.0261 -0.0558001 -0.9981
vn 0.0261 -0.0170001 -0.9995
vn -0.2357 -0.2146 -0.9478
vn -0.2357 -0.2146 -0.9478
vn -0.216 -0.1001 -0.9713
vn 0.0261 -0.0558001 -0.9981
vn -0.218 -0.0179001 -0.9758
vn 0.026 -0.0184001 -0.9995
vn 0.0261 -0.0558001 -0.9981
vn 0.0261 -0.0558001 -0.9981
vn -0.216 -0.1001 -0.9713
vn -0.218 -0.0179001 -0.9758
vn 0.2849 -0.2149 -0.9342
vn 0.0261 -0.0170001 -0.9995
vn 0.0261 -0.0558001 -0.9981
vn 0.0261 -0.0558001 -0.9981
vn 0.2663 -0.1002 -0.9587
vn 0.2849 -0.2149 -0.9342
vn 0.0261 -0.0558001 -0.9981
vn 0.026 -0.0184001 -0.9995
vn 0.2686 -0.0179001 -0.9631
vn 0.2686 -0.0179001 -0.9631
vn 0.2663 -0.1002 -0.9587
vn 0.0261 -0.0558001 -0.9981
vn -0.0001 1.0 -1.19209e-07
vn -0.0001 1.0 9.98808e-05
vn -0.0001 1.0 -0.000600119
vn -0.0001 1.0 -0.000600119
vn -0.0001 1.0 -0.000700119
vn -0.0001 1.0 -1.19209e-07
vn -0.0001 1.0 -1.19209e-07
vn 0.0 1.0 9.98808e-05
vn 0.0 1.0 9.98808e-05
vn 0.0 1.0 9.98808e-05
vn -0.0001 1.0 9.98808e-05
vn -0.0001 1.0 -1.19209e-07
vn 0.0 -1.0 0.000500119
vn -0.4098 -0.9121 -0.0107999
vn -0.3429 -0.9393 -0.00889989
vn -0.3429 -0.9393 -0.00889989
vn 0.0 -1.0 0.000700119
vn 0.0 -1.0 0.000500119
vn 0.343 -0.9393 0.00890011
vn 0.4099 -0.9121 0.0106001
vn 0.0 -1.0 0.000500119
vn 0.0 -1.0 0.000500119
vn 0.0 -1.0 0.000700119
vn 0.343 -0.9393 0.00890011
vn -0.4098 -0.9121 -0.0107999
vn -0.658 -0.7528 -0.0171999
vn -0.658 -0.7528 -0.0171999
vn -0.658 -0.7528 -0.0171999
vn -0.3429 -0.9393 -0.00889989
vn -0.4098 -0.9121 -0.0107999
vn -0.2786 -0.5205 -0.8071
vn 0.0204 -0.6213 -0.7833
vn 0.0209 -0.6016 -0.7985
vn 0.0209 -0.6016 -0.7985
vn -0.2734 -0.504 -0.8193
vn -0.2786 -0.5205 -0.8071
vn 0.3205 -0.5209 -0.7912
vn 0.316 -0.5045 -0.8035
vn 0.0209 -0.6016 -0.7985
vn 0.0209 -0.6016 -0.7985
vn 0.0204 -0.6213 -0.7833
vn 0.3205 -0.5209 -0.7912
vn -0.469 -0.246 -0.8483
vn -0.372 -0.4496 -0.8121
vn -0.3722 -0.4497 -0.812
vn -0.3722 -0.4497 -0.812
vn -0.4769 -0.2281 -0.8488
vn -0.469 -0.246 -0.8483
vn -0.5552 -0.0132001 -0.8316
vn -0.469 -0.246 -0.8483
vn -0.4769 -0.2281 -0.8488
vn -0.4769 -0.2281 -0.8488
vn -0.556 -0.0131001 -0.8311
vn -0.5552 -0.0132001 -0.8316
vn -0.1539 0.4966 -0.8542
vn -0.1514 0.4824 -0.8628
vn 0.0208 0.604 -0.7967
vn 0.0208 0.604 -0.7967
vn 0.0204 0.6215 -0.7832
vn -0.1539 0.4966 -0.8542
vn 0.0208 0.604 -0.7967
vn 0.1961 0.4824 -0.8537
vn 0.1982 0.4966 -0.8451
vn 0.1982 0.4966 -0.8451
vn 0.0204 0.6215 -0.7832
vn 0.0208 0.604 -0.7967
vn 0.9997 -0.000399997 0.0261
vn 0.9997 -0.000399997 0.0261
vn 0.9997 -0.000399997 0.0261
vn 0.9997 -0.000399997 0.0261
vn 0.9997 -0.000399997 0.0261
vn 0.9997 -0.000399997 0.0261
vn 0.4099 -0.9121 0.0106001
vn 0.343 -0.9393 0.00890011
vn 0.6582 -0.7527 0.0171001
vn 0.6582 -0.7527 0.0171001
vn 0.6582 -0.7527 0.0171001
vn 0.4099 -0.9121 0.0106001
vn 0.5126 -0.2463 -0.8225
vn 0.5206 -0.2283 -0.8227
vn 0.4141 -0.4502 -0.7911
vn 0.4141 -0.4502 -0.7911
vn 0.414 -0.4501 -0.7912
vn 0.5126 -0.2463 -0.8225
vn 0.5983 -0.0132001 -0.8012
vn 0.5991 -0.0130001 -0.8006
vn 0.5206 -0.2283 -0.8227
vn 0.5206 -0.2283 -0.8227
vn 0.5126 -0.2463 -0.8225
vn 0.5983 -0.0132001 -0.8012
vn 0.9446 0.0 -0.3282
vn 0.9446 0.0 -0.3282
vn 0.9446 0.0 -0.3282
vn 0.9446 0.0 -0.3282
vn 0.9446 0.0 -0.3282
vn 0.9446 0.0 -0.3282
vn 0.186 -0.0179999 0.9824
vn 0.0 1.19209e-07 1.0
vn 0.0 -0.00239988 1.0
vn 0.0 -0.00239988 1.0
vn 0.1871 -0.00609988 0.9823
vn 0.186 -0.0179999 0.9824
vn 0.0 1.19209e-07 1.0
vn 0.0 1.19209e-07 1.0
vn 0.187 0.0 0.9824
vn 0.187 0.0 0.9824
vn 0.187 0.0 0.9824
vn 0.0 1.19209e-07 1.0
vn 0.0 -0.00239988 1.0
vn 0.0 1.19209e-07 1.0
vn -0.186 -0.0178999 0.9824
vn -0.186 -0.0178999 0.9824
vn -0.187 -0.00609988 0.9823
vn 0.0 -0.00239988 1.0
vn 0.0 -0.00239988 1.0
vn -0.187 -0.00609988 0.9823
vn -0.187 0.0 0.9824
vn -0.187 0.0 0.9824
vn 0.0 1.19209e-07 1.0
vn 0.0 -0.00239988 1.0
vn 0.0 1.0 -1.19209e-07
vn 0.0 1.0 -1.19209e-07
vn 0.0 1.0 -1.19209e-07
vn 0.0 1.0 -1.19209e-07
vn 0.0 1.0 -1.19209e-07
vn 0.0 1.0 -1.19209e-07
vn 0.0 1.0 -1.19209e-07
vn 0.0 1.0 -1.19209e-07
vn 0.0 1.0 -1.19209e-07
vn 0.0 1.0 -1.19209e-07
vn 0.0 1.0 -1.19209e-07
vn 0.0 1.0 -1.19209e-07
vn 0.556 0.8084 -0.1931
vn 0.5563 0.8084 -0.1927
vn 0.5562 0.8084 -0.1928
vn 0.5562 0.8084 -0.1928
vn 0.556 0.8085 -0.1932
vn 0.556 0.8084 -0.1931
vn 0.1515 0.604 0.7824
vn 0.1525 0.6082 0.779
vn 0.0 0.5924 0.8057
vn 0.0 0.5924 0.8057
vn 0.0 0.5872 0.8094
vn 0.1515 0.604 0.7824
vn 0.4944 0.4651 0.7343
vn 0.4944 0.465 0.7344
vn 0.4944 0.4649 0.7345
vn 0.4944 0.4649 0.7345
vn 0.4944 0.465 0.7344
vn 0.4944 0.4651 0.7343
vn 0.6732 0.0 0.7395
vn 0.6734 0.000100088 0.7393
vn 0.6734 0.000100088 0.7392
vn 0.6734 0.000100088 0.7392
vn 0.6732 0.0 0.7395
vn 0.6732 0.0 0.7395
vn 0.0 -0.5909 0.8067
vn 0.1554 -0.61 0.777
vn 0.1552 -0.6076 0.779
vn 0.1552 -0.6076 0.779
vn 0.0 -0.5872 0.8094
vn 0.0 -0.5909 0.8067
vn -0.9446 0.0 -0.3282
vn -0.9446 0.0 -0.3282
vn -0.9446 0.0 -0.3282
vn -0.9446 0.0 -0.3282
vn -0.9446 0.0 -0.3282
vn -0.9446 0.0 -0.3282
vn -0.5561 0.8083 -0.1932
vn -0.5561 0.8083 -0.1932
vn -0.5561 0.8083 -0.1932
vn -0.5561 0.8083 -0.1932
vn -0.5561 0.8083 -0.1932
vn -0.5561 0.8083 -0.1932
vn -0.1515 0.6039 0.7825
vn 0.0 0.5872 0.8094
vn 0.0 0.5924 0.8057
vn 0.0 0.5924 0.8057
vn -0.1525 0.6081 0.7791
vn -0.1515 0.6039 0.7825
vn -0.4944 0.4646 0.7346
vn -0.4944 0.4652 0.7343
vn -0.4944 0.4655 0.7341
vn -0.4944 0.4655 0.7341
vn -0.4944 0.4648 0.7345
vn -0.4944 0.4646 0.7346
vn -0.6736 0.0 0.7391
vn -0.6736 0.0 0.7391
vn -0.6736 0.0 0.7391
vn -0.6736 0.0 0.7391
vn -0.6736 0.0 0.7391
vn -0.6736 0.0 0.7391
vn -0.1552 -0.6076 0.779
vn -0.1554 -0.61 0.777
vn 0.0 -0.5909 0.8067
vn 0.0 -0.5909 0.8067
vn 0.0 -0.5872 0.8094
vn -0.1552 -0.6076 0.779
vn 0.9446 0.0 -0.3282
vn 0.9446 0.0 -0.3282
vn 0.9446 0.0 -0.3282
vn 0.9446 0.0 -0.3282
vn 0.9446 0.0 -0.3282
vn 0.9446 0.0 -0.3282
vn 0.187 0.0 0.9824
vn 0.1871 -0.00609988 0.9823
vn 0.0 -0.00239988 1.0
vn 0.0 -0.00239988 1.0
vn 0.0 1.19209e-07 1.0
vn 0.187 0.0 0.9824
vn 0.0 1.19209e-07 1.0
vn 0.0 1.19209e-07 1.0
vn -0.187 0.0 0.9824
vn -0.187 0.0 0.9824
vn -0.187 0.0 0.9824
vn 0.0 1.19209e-07 1.0
vn 0.6736 0.0 0.7391
vn 0.6736 0.0 0.7391
vn 0.6734 0.000100088 0.7392
vn 0.6734 0.000100088 0.7392
vn 0.6734 0.000100088 0.7393
vn 0.6736 0.0 0.7391
vn -0.9446 0.0 -0.3282
vn -0.9446 0.0 -0.3282
vn -0.9446 0.0 -0.3282
vn -0.9446 0.0 -0.3282
vn -0.9446 0.0 -0.3282
vn -0.9446 0.0 -0.3282
vn -0.6736 0.0 0.7391
vn -0.6736 0.0 0.7391
vn -0.6736 0.0 0.7391
vn -0.6736 0.0 0.7391
vn -0.6736 0.0 0.7391
vn -0.6736 0.0 0.7391

vt 0.226 0.014
vt 0.226 0.1695
vt 0.347 0.1695
vt 0.347 0.1695
vt 0.347 0.014
vt 0.226 0.014
vt 0.0184 0.1695
vt 0.226 0.1695
vt 0.226 0.014
vt 0.226 0.014
vt 0.0184 0.014
vt 0.0184 0.1695
vt 0.226 0.014
vt 0.226 0.1695
vt 0.0184 0.1695
vt 0.0184 0.1695
vt 0.0184 0.014
vt 0.226 0.014
vt 0.226 0.014
vt 0.347 0.014
vt 0.347 0.1695
vt 0.347 0.1695
vt 0.226 0.1695
vt 0.226 0.014
vt 0.5764 0.014
vt 0.5764 0.1695
vt 0.347 0.1695
vt 0.347 0.1695
vt 0.347 0.014
vt 0.5764 0.014
vt 0.5764 0.014
vt 0.347 0.014
vt 0.347 0.1695
vt 0.347 0.1695
vt 0.5764 0.1695
vt 0.5764 0.014
vt 0.7683 0.014
vt 0.5764 0.014
vt 0.682 0.1695
vt 0.682 0.1695
vt 0.7683 0.1409
vt 0.7683 0.014
vt 0.6501 0.2498
vt 0.5764 0.1695
vt 0.682 0.1695
vt 0.8273 0.8033
vt 0.8046 0.8033
vt 0.8046 0.7856
vt 0.8046 0.7856
vt 0.8273 0.7856
vt 0.8273 0.8033
vt 0.8046 0.752
vt 0.8046 0.7019
vt 0.8273 0.7019
vt 0.8273 0.7019
vt 0.8273 0.752
vt 0.8046 0.752
vt 0.8273 0.7019
vt 0.8046 0.7019
vt 0.8046 0.6624
vt 0.8046 0.6624
vt 0.8273 0.6624
vt 0.8273 0.7019
vt 0.8273 0.6624
vt 0.8046 0.6624
vt 0.8046 0.6389
vt 0.8046 0.6389
vt 0.8273 0.6389
vt 0.8273 0.6624
vt 0.8273 0.614
vt 0.8273 0.6389
vt 0.8046 0.6389
vt 0.8046 0.6389
vt 0.8046 0.614
vt 0.8273 0.614
vt 0.8273 0.5655
vt 0.8273 0.614
vt 0.8046 0.614
vt 0.8046 0.614
vt 0.8046 0.5655
vt 0.8273 0.5655
vt 0.8046 0.7856
vt 0.8046 0.752
vt 0.8273 0.752
vt 0.8273 0.752
vt 0.8273 0.7856
vt 0.8046 0.7856
vt 0.8273 0.8392
vt 0.8046 0.8392
vt 0.8046 0.8033
vt 0.8046 0.8033
vt 0.8273 0.8033
vt 0.8273 0.8392
vt 0.8785 0.677
vt 0.8742 0.5794
vt 0.8423 0.5817
vt 0.8423 0.5817
vt 0.8437 0.6804
vt 0.8785 0.677
vt 0.7149 0.9298
vt 0.7149 0.7507
vt 0.7516 0.7507
vt 0.7516 0.7507
vt 0.7516 0.9298
vt 0.7149 0.9298
vt 0.8437 0.6804
vt 0.8423 0.5817
vt 0.8742 0.5794
vt 0.8742 0.5794
vt 0.8785 0.677
vt 0.8437 0.6804
vt 0.9905 0.9118
vt 0.9659 0.9628
vt 0.8774 0.913
vt 0.9659 0.9628
vt 0.8774 0.984
vt 0.8774 0.913
vt 0.8774 0.984
vt 0.7889 0.9628
vt 0.8774 0.913
vt 0.7889 0.9628
vt 0.7643 0.9118
vt 0.8774 0.913
vt 0.7643 0.9118
vt 0.7859 0.8607
vt 0.8774 0.913
vt 0.7859 0.8607
vt 0.8593 0.8431
vt 0.8774 0.913
vt 0.8593 0.8431
vt 0.8955 0.8431
vt 0.8774 0.913
vt 0.8955 0.8431
vt 0.9689 0.8607
vt 0.8774 0.913
vt 0.9689 0.8607
vt 0.9905 0.9118
vt 0.8774 0.913
vt 0.347 0.5118
vt 0.347 0.3381
vt 0.226 0.3381
vt 0.226 0.3381
vt 0.226 0.5118
vt 0.347 0.5118
vt 0.0184 0.5118
vt 0.226 0.5118
vt 0.226 0.3381
vt 0.226 0.3381
vt 0.0184 0.3381
vt 0.0184 0.5118
vt 0.0184 0.5118
vt 0.0184 0.3381
vt 0.226 0.3381
vt 0.226 0.3381
vt 0.226 0.5118
vt 0.0184 0.5118
vt 0.226 0.5118
vt 0.226 0.3381
vt 0.347 0.3381
vt 0.347 0.3381
vt 0.347 0.5118
vt 0.226 0.5118
vt 0.5764 0.3381
vt 0.5764 0.5118
vt 0.347 0.5118
vt 0.347 0.5118
vt 0.347 0.3381
vt 0.5764 0.3381
vt 0.347 0.5118
vt 0.5764 0.5118
vt 0.5764 0.3381
vt 0.5764 0.3381
vt 0.347 0.3381
vt 0.347 0.5118
vt 0.5764 0.5118
vt 0.7839 0.5118
vt 0.7839 0.5118
vt 0.7839 0.5118
vt 0.5764 0.3381
vt 0.5764 0.5118
vt 0.7839 0.5118
vt 0.7839 0.5118
vt 0.5764 0.5118
vt 0.5764 0.5118
vt 0.5764 0.3381
vt 0.7839 0.5118
vt 0.5764 0.3381
vt 0.7839 0.5118
vt 0.6867 0.325
vt 0.6867 0.325
vt 0.7839 0.5118
vt 0.5764 0.3381
vt 0.226 0.1695
vt 0.226 0.3381
vt 0.347 0.3381
vt 0.347 0.3381
vt 0.347 0.1695
vt 0.226 0.1695
vt 0.0184 0.3381
vt 0.226 0.3381
vt 0.226 0.1695
vt 0.226 0.1695
vt 0.0184 0.1695
vt 0.0184 0.3381
vt 0.0184 0.3381
vt 0.0184 0.1695
vt 0.226 0.1695
vt 0.226 0.1695
vt 0.226 0.3381
vt 0.0184 0.3381
vt 0.347 0.3381
vt 0.226 0.3381
vt 0.226 0.1695
vt 0.226 0.1695
vt 0.347 0.1695
vt 0.347 0.3381
vt 0.5764 0.1695
vt 0.5764 0.3381
vt 0.347 0.3381
vt 0.347 0.3381
vt 0.347 0.1695
vt 0.5764 0.1695
vt 0.347 0.3381
vt 0.5764 0.3381
vt 0.5764 0.1695
vt 0.5764 0.1695
vt 0.347 0.1695
vt 0.347 0.3381
vt 0.5764 0.1695
vt 0.5764 0.3381
vt 0.6501 0.2498
vt 0.5764 0.1695
vt 0.6501 0.2498
vt 0.682 0.1695
vt 0.6501 0.2498
vt 0.5764 0.3381
vt 0.5764 0.1695
vt 0.5764 0.1695
vt 0.5764 0.014
vt 0.682 0.1695
vt 0.5764 0.3381
vt 0.6867 0.325
vt 0.6501 0.2498
vt 0.6501 0.2498
vt 0.6867 0.325
vt 0.5764 0.3381
vt 0.5764 0.014
vt 0.5764 0.1695
vt 0.682 0.1695
vt 0.7683 0.014
vt 0.7683 0.1409
vt 0.682 0.1695
vt 0.682 0.1695
vt 0.5764 0.014
vt 0.7683 0.014
vt 0.7839 0.5118
vt 0.7839 0.3544
vt 0.6867 0.325
vt 0.6867 0.325
vt 0.7839 0.3544
vt 0.7839 0.5118
vt 0.347 0.5776
vt 0.347 0.5118
vt 0.226 0.5118
vt 0.226 0.5118
vt 0.226 0.5776
vt 0.347 0.5776
vt 0.226 0.5776
vt 0.226 0.5118
vt 0.0184 0.5118
vt 0.0184 0.5118
vt 0.0184 0.5776
vt 0.226 0.5776
vt 0.226 0.5776
vt 0.0184 0.5776
vt 0.0184 0.5118
vt 0.0184 0.5118
vt 0.226 0.5118
vt 0.226 0.5776
vt 0.347 0.5776
vt 0.226 0.5776
vt 0.226 0.5118
vt 0.226 0.5118
vt 0.347 0.5118
vt 0.347 0.5776
vt 0.5764 0.5776
vt 0.347 0.5776
vt 0.347 0.5118
vt 0.347 0.5118
vt 0.5764 0.5118
vt 0.5764 0.5776
vt 0.5764 0.5776
vt 0.5764 0.5118
vt 0.347 0.5118
vt 0.347 0.5118
vt 0.347 0.5776
vt 0.5764 0.5776
vt 0.5764 0.5776
vt 0.7839 0.5776
vt 0.7839 0.5118
vt 0.7839 0.5118
vt 0.5764 0.5118
vt 0.5764 0.5776
vt 0.7839 0.5118
vt 0.7839 0.5776
vt 0.5764 0.5776
vt 0.5764 0.5776
vt 0.5764 0.5118
vt 0.7839 0.5118
vt 0.347 0.7026
vt 0.347 0.6341
vt 0.226 0.6341
vt 0.226 0.6341
vt 0.226 0.7026
vt 0.347 0.7026
vt 0.226 0.7026
vt 0.226 0.6341
vt 0.0184 0.6341
vt 0.0184 0.6341
vt 0.0184 0.7026
vt 0.226 0.7026
vt 0.0184 0.7026
vt 0.0184 0.6341
vt 0.226 0.6341
vt 0.226 0.6341
vt 0.226 0.7026
vt 0.0184 0.7026
vt 0.226 0.7026
vt 0.226 0.6341
vt 0.347 0.6341
vt 0.347 0.6341
vt 0.347 0.7026
vt 0.226 0.7026
vt 0.5764 0.6341
vt 0.5764 0.7026
vt 0.347 0.7026
vt 0.347 0.7026
vt 0.347 0.6341
vt 0.5764 0.6341
vt 0.347 0.7026
vt 0.5764 0.7026
vt 0.5764 0.6341
vt 0.5764 0.6341
vt 0.347 0.6341
vt 0.347 0.7026
vt 0.5764 0.7026
vt 0.7839 0.7026
vt 0.7839 0.6341
vt 0.7839 0.6341
vt 0.5764 0.6341
vt 0.5764 0.7026
vt 0.7839 0.6341
vt 0.7839 0.7026
vt 0.5764 0.7026
vt 0.5764 0.7026
vt 0.5764 0.6341
vt 0.7839 0.6341
vt 0.226 0.6341
vt 0.347 0.6341
vt 0.347 0.5776
vt 0.347 0.5776
vt 0.226 0.5776
vt 0.226 0.6341
vt 0.0184 0.6341
vt 0.226 0.6341
vt 0.226 0.5776
vt 0.226 0.5776
vt 0.0184 0.5776
vt 0.0184 0.6341
vt 0.0184 0.6341
vt 0.0184 0.5776
vt 0.226 0.5776
vt 0.226 0.5776
vt 0.226 0.6341
vt 0.0184 0.6341
vt 0.226 0.6341
vt 0.226 0.5776
vt 0.347 0.5776
vt 0.347 0.5776
vt 0.347 0.6341
vt 0.226 0.6341
vt 0.5764 0.5776
vt 0.5764 0.6341
vt 0.347 0.6341
vt 0.347 0.6341
vt 0.347 0.5776
vt 0.5764 0.5776
vt 0.347 0.6341
vt 0.5764 0.6341
vt 0.5764 0.5776
vt 0.5764 0.5776
vt 0.347 0.5776
vt 0.347 0.6341
vt 0.7839 0.6341
vt 0.7839 0.5776
vt 0.5764 0.5776
vt 0.5764 0.5776
vt 0.5764 0.6341
vt 0.7839 0.6341
vt 0.7839 0.6341
vt 0.5764 0.6341
vt 0.5764 0.5776
vt 0.5764 0.5776
vt 0.7839 0.5776
vt 0.7839 0.6341
vt 0.913 0.5656
vt 0.971 0.5364
vt 0.9043 0.4471
vt 0.971 0.5364
vt 0.9898 0.4471
vt 0.9043 0.4471
vt 0.9898 0.4471
vt 0.9734 0.3578
vt 0.9043 0.4471
vt 0.9734 0.3578
vt 0.9154 0.3287
vt 0.9043 0.4471
vt 0.9154 0.3287
vt 0.8269 0.3561
vt 0.9043 0.4471
vt 0.8269 0.3561
vt 0.7927 0.4471
vt 0.9043 0.4471
vt 0.7927 0.4471
vt 0.8245 0.5381
vt 0.9043 0.4471
vt 0.8245 0.5381
vt 0.913 0.5656
vt 0.9043 0.4471
vt 0.909 0.0332
vt 0.9094 0.0112
vt 0.855 0.0387
vt 0.9739 0.0387
vt 0.9195 0.0112
vt 0.9199 0.0332
vt 0.9739 0.1442
vt 0.9895 0.1075
vt 0.9145 0.097
vt 0.9895 0.1075
vt 0.9739 0.0387
vt 0.9145 0.097
vt 0.9739 0.0387
vt 0.9199 0.0332
vt 0.9145 0.097
vt 0.9199 0.0332
vt 0.909 0.0332
vt 0.9145 0.097
vt 0.909 0.0332
vt 0.855 0.0387
vt 0.9145 0.097
vt 0.855 0.0387
vt 0.8394 0.1074
vt 0.9145 0.097
vt 0.8394 0.1074
vt 0.855 0.1442
vt 0.9145 0.097
vt 0.855 0.1442
vt 0.9145 0.1614
vt 0.9145 0.097
vt 0.9145 0.1614
vt 0.9739 0.1442
vt 0.9145 0.097
vt 0.8353 0.2487
vt 0.8336 0.3034
vt 0.9324 0.2811
vt 0.9324 0.2811
vt 0.9378 0.2411
vt 0.8353 0.2487
vt 0.9324 0.2811
vt 0.9694 0.2428
vt 0.9378 0.2411
vt 0.8353 0.2487
vt 0.9378 0.2411
vt 0.9406 0.2086
vt 0.9406 0.2086
vt 0.8318 0.1883
vt 0.8353 0.2487
vt 0.9694 0.2428
vt 0.9406 0.2086
vt 0.9378 0.2411
vt 0.9694 0.2428
vt 0.9868 0.2255
vt 0.9471 0.1819
vt 0.9471 0.1819
vt 0.9406 0.2086
vt 0.9694 0.2428
vt 0.9406 0.2086
vt 0.9471 0.1819
vt 0.8315 0.1541
vt 0.8315 0.1541
vt 0.8318 0.1883
vt 0.9406 0.2086
vt 0.9324 0.2811
vt 0.8336 0.3034
vt 0.8349 0.3414
vt 0.8349 0.3414
vt 0.9473 0.3032
vt 0.9324 0.2811
vt 0.9694 0.2428
vt 0.9324 0.2811
vt 0.9473 0.3032
vt 0.9473 0.3032
vt 0.9908 0.2613
vt 0.9694 0.2428
vt 0.8353 0.2487
vt 0.7514 0.2463
vt 0.7387 0.2845
vt 0.7387 0.2845
vt 0.8336 0.3034
vt 0.8353 0.2487
vt 0.7387 0.2845
vt 0.7514 0.2463
vt 0.6956 0.2438
vt 0.8353 0.2487
vt 0.8318 0.1883
vt 0.7458 0.2057
vt 0.7458 0.2057
vt 0.7514 0.2463
vt 0.8353 0.2487
vt 0.6956 0.2438
vt 0.7514 0.2463
vt 0.7458 0.2057
vt 0.6956 0.2438
vt 0.7458 0.2057
vt 0.7183 0.1852
vt 0.7183 0.1852
vt 0.6751 0.227
vt 0.6956 0.2438
vt 0.7458 0.2057
vt 0.8318 0.1883
vt 0.8315 0.1541
vt 0.8315 0.1541
vt 0.7183 0.1852
vt 0.7458 0.2057
vt 0.7387 0.2845
vt 0.7181 0.3081
vt 0.8349 0.3414
vt 0.8349 0.3414
vt 0.8336 0.3034
vt 0.7387 0.2845
vt 0.6956 0.2438
vt 0.6752 0.2622
vt 0.7181 0.3081
vt 0.7181 0.3081
vt 0.7387 0.2845
vt 0.6956 0.2438
vt 0.6973 0.9567
vt 0.6699 0.9583
vt 0.67 0.7854
vt 0.67 0.7854
vt 0.6973 0.7858
vt 0.6973 0.9567
vt 0.5579 0.7952
vt 0.5581 0.7659
vt 0.6148 0.7643
vt 0.6148 0.7643
vt 0.645 0.7932
vt 0.5579 0.7952
vt 0.6445 0.9399
vt 0.558 0.9373
vt 0.5579 0.7952
vt 0.5579 0.7952
vt 0.645 0.7932
vt 0.6445 0.9399
vt 0.5012 0.7643
vt 0.5581 0.7659
vt 0.5579 0.7952
vt 0.5579 0.7952
vt 0.4709 0.7932
vt 0.5012 0.7643
vt 0.5579 0.7952
vt 0.558 0.9373
vt 0.4717 0.94
vt 0.4717 0.94
vt 0.4709 0.7932
vt 0.5579 0.7952
vt 0.56 0.9867
vt 0.559 0.9598
vt 0.6699 0.9583
vt 0.6699 0.9583
vt 0.6681 0.9867
vt 0.56 0.9867
vt 0.56 0.9867
vt 0.4519 0.9867
vt 0.4454 0.9605
vt 0.4454 0.9605
vt 0.559 0.9598
vt 0.56 0.9867
vt 0.5538 0.7138
vt 0.6234 0.7138
vt 0.6248 0.742
vt 0.6248 0.742
vt 0.5559 0.7429
vt 0.5538 0.7138
vt 0.489 0.7423
vt 0.4887 0.7138
vt 0.5538 0.7138
vt 0.5538 0.7138
vt 0.5559 0.7429
vt 0.489 0.7423
vt 0.6234 0.7138
vt 0.6839 0.7138
vt 0.6839 0.7412
vt 0.6839 0.7412
vt 0.6248 0.742
vt 0.6234 0.7138
vt 0.6148 0.7643
vt 0.5581 0.7659
vt 0.5559 0.7429
vt 0.5559 0.7429
vt 0.6248 0.742
vt 0.6148 0.7643
vt 0.5012 0.7643
vt 0.489 0.7423
vt 0.5559 0.7429
vt 0.5559 0.7429
vt 0.5581 0.7659
vt 0.5012 0.7643
vt 0.645 0.7932
vt 0.6148 0.7643
vt 0.6248 0.742
vt 0.6248 0.742
vt 0.67 0.7854
vt 0.645 0.7932
vt 0.6445 0.9399
vt 0.645 0.7932
vt 0.67 0.7854
vt 0.67 0.7854
vt 0.6699 0.9583
vt 0.6445 0.9399
vt 0.6445 0.9399
vt 0.6699 0.9583
vt 0.559 0.9598
vt 0.559 0.9598
vt 0.558 0.9373
vt 0.6445 0.9399
vt 0.559 0.9598
vt 0.4454 0.9605
vt 0.4717 0.94
vt 0.4717 0.94
vt 0.558 0.9373
vt 0.559 0.9598
vt 0.4143 0.9603
vt 0.4143 0.7887
vt 0.4433 0.7871
vt 0.4433 0.7871
vt 0.4454 0.9605
vt 0.4143 0.9603
vt 0.4887 0.7138
vt 0.489 0.7423
vt 0.4282 0.7412
vt 0.4282 0.7412
vt 0.4282 0.7138
vt 0.4887 0.7138
vt 0.4709 0.7932
vt 0.4433 0.7871
vt 0.489 0.7423
vt 0.489 0.7423
vt 0.5012 0.7643
vt 0.4709 0.7932
vt 0.4717 0.94
vt 0.4454 0.9605
vt 0.4433 0.7871
vt 0.4433 0.7871
vt 0.4709 0.7932
vt 0.4717 0.94
vt 0.0622 0.9008
vt 0.026 0.9036
vt 0.026 0.8169
vt 0.026 0.8169
vt 0.0605 0.8114
vt 0.0622 0.9008
vt 0.1333 0.7789
vt 0.2097 0.7799
vt 0.2096 0.8197
vt 0.2096 0.8197
vt 0.0933 0.8179
vt 0.1333 0.7789
vt 0.2096 0.8893
vt 0.2095 0.959
vt 0.0946 0.9607
vt 0.0946 0.9607
vt 0.0939 0.8893
vt 0.2096 0.8893
vt 0.2096 0.8197
vt 0.2097 0.7799
vt 0.286 0.7788
vt 0.286 0.7788
vt 0.3259 0.818
vt 0.2096 0.8197
vt 0.2096 0.8197
vt 0.3259 0.818
vt 0.3253 0.8894
vt 0.3253 0.8894
vt 0.2096 0.8893
vt 0.2096 0.8197
vt 0.123 0.7472
vt 0.1246 0.7105
vt 0.2112 0.7105
vt 0.2112 0.7105
vt 0.2103 0.7477
vt 0.123 0.7472
vt 0.2112 0.7105
vt 0.2964 0.7105
vt 0.2967 0.7469
vt 0.2967 0.7469
vt 0.2103 0.7477
vt 0.2112 0.7105
vt 0.0412 0.7105
vt 0.1246 0.7105
vt 0.123 0.7472
vt 0.123 0.7472
vt 0.0412 0.746
vt 0.0412 0.7105
vt 0.1333 0.7789
vt 0.123 0.7472
vt 0.2103 0.7477
vt 0.2103 0.7477
vt 0.2097 0.7799
vt 0.1333 0.7789
vt 0.123 0.7472
vt 0.1333 0.7789
vt 0.0933 0.8179
vt 0.0933 0.8179
vt 0.0605 0.8114
vt 0.123 0.7472
vt 0.0933 0.8179
vt 0.0939 0.8893
vt 0.0622 0.9008
vt 0.0622 0.9008
vt 0.0605 0.8114
vt 0.0933 0.8179
vt 0.2097 0.9903
vt 0.0638 0.9903
vt 0.0946 0.9607
vt 0.0946 0.9607
vt 0.2095 0.959
vt 0.2097 0.9903
vt 0.3907 0.8985
vt 0.3907 0.9903
vt 0.3555 0.9903
vt 0.3555 0.9903
vt 0.356 0.898
vt 0.3907 0.8985
vt 0.2967 0.7469
vt 0.2964 0.7105
vt 0.379 0.7105
vt 0.379 0.7105
vt 0.379 0.746
vt 0.2967 0.7469
vt 0.286 0.7788
vt 0.2097 0.7799
vt 0.2103 0.7477
vt 0.2103 0.7477
vt 0.2967 0.7469
vt 0.286 0.7788
vt 0.2967 0.7469
vt 0.3565 0.8057
vt 0.3259 0.818
vt 0.3259 0.818
vt 0.286 0.7788
vt 0.2967 0.7469
vt 0.356 0.898
vt 0.3253 0.8894
vt 0.3259 0.818
vt 0.3259 0.818
vt 0.3565 0.8057
vt 0.356 0.898
vt 0.3247 0.9608
vt 0.3555 0.9903
vt 0.2097 0.9903
vt 0.2097 0.9903
vt 0.2095 0.959
vt 0.3247 0.9608
vt 0.026 0.9903
vt 0.026 0.9036
vt 0.0622 0.9008
vt 0.0622 0.9008
vt 0.0638 0.9903
vt 0.026 0.9903
vt 0.0939 0.8893
vt 0.0933 0.8179
vt 0.2096 0.8197
vt 0.2096 0.8197
vt 0.2096 0.8893
vt 0.0939 0.8893
vt 0.2095 0.959
vt 0.2096 0.8893
vt 0.3253 0.8894
vt 0.3253 0.8894
vt 0.3247 0.9608
vt 0.2095 0.959
vt 0.0946 0.9607
vt 0.0638 0.9903
vt 0.0622 0.9008
vt 0.0622 0.9008
vt 0.0939 0.8893
vt 0.0946 0.9607
vt 0.3907 0.8067
vt 0.3907 0.8985
vt 0.356 0.898
vt 0.356 0.898
vt 0.3565 0.8057
vt 0.3907 0.8067
vt 0.356 0.898
vt 0.3555 0.9903
vt 0.3247 0.9608
vt 0.3247 0.9608
vt 0.3253 0.8894
vt 0.356 0.898

usemtl Material

f 1/1/1 2/2/2 3/3/3
f 4/4/4 5/5/5 6/6/6
f 7/7/7 8/8/8 9/9/9
f 10/10/10 11/11/11 12/12/12
f 13/13/13 14/14/14 15/15/15
f 16/16/16 17/17/17 18/18/18
f 19/19/19 20/20/20 21/21/21
f 22/22/22 23/23/23 24/24/24
f 25/25/25 26/26/26 27/27/27
f 28/28/28 29/29/29 30/30/30
f 31/31/31 32/32/32 33/33/33
f 34/34/34 35/35/35 36/36/36
f 37/37/37 38/38/38 39/39/39
f 40/40/40 41/41/41 42/42/42
f 43/43/43 44/44/44 45/45/45
f 46/46/46 47/47/47 48/48/48
f 49/49/49 50/50/50 51/51/51
f 52/52/52 53/53/53 54/54/54
f 55/55/55 56/56/56 57/57/57
f 58/58/58 59/59/59 60/60/60
f 61/61/61 62/62/62 63/63/63
f 64/64/64 65/65/65 66/66/66
f 67/67/67 68/68/68 69/69/69
f 70/70/70 71/71/71 72/72/72
f 73/73/73 74/74/74 75/75/75
f 76/76/76 77/77/77 78/78/78
f 79/79/79 80/80/80 81/81/81
f 82/82/82 83/83/83 84/84/84
f 85/85/85 86/86/86 87/87/87
f 88/88/88 89/89/89 90/90/90
f 91/91/91 92/92/92 93/93/93
f 94/94/94 95/95/95 96/96/96
f 97/97/97 98/98/98 99/99/99
f 100/100/100 101/101/101 102/102/102
f 103/103/103 104/104/104 105/105/105
f 106/106/106 107/107/107 108/108/108
f 109/109/109 110/110/110 111/111/111
f 112/112/112 113/113/113 114/114/114
f 115/115/115 116/116/116 117/117/117
f 118/118/118 119/119/119 120/120/120
f 121/121/121 122/122/122 123/123/123
f 124/124/124 125/125/125 126/126/126
f 127/127/127 128/128/128 129/129/129
f 130/130/130 131/131/131 132/132/132
f 133/133/133 134/134/134 135/135/135
f 136/136/136 137/137/137 138/138/138
f 139/139/139 140/140/140 141/141/141
f 142/142/142 143/143/143 144/144/144
f 145/145/145 146/146/146 147/147/147
f 148/148/148 149/149/149 150/150/150
f 151/151/151 152/152/152 153/153/153
f 154/154/154 155/155/155 156/156/156
f 157/157/157 158/158/158 159/159/159
f 160/160/160 161/161/161 162/162/162
f 163/163/163 164/164/164 165/165/165
f 166/166/166 167/167/167 168/168/168
f 169/169/169 170/170/170 171/171/171
f 172/172/172 173/173/173 174/174/174
f 175/175/175 176/176/176 177/177/177
f 178/178/178 179/179/179 180/180/180
f 181/181/181 182/182/182 183/183/183
f 184/184/184 185/185/185 186/186/186
f 187/187/187 188/188/188 189/189/189
f 190/190/190 191/191/191 192/192/192
f 193/193/193 194/194/194 195/195/195
f 196/196/196 197/197/197 198/198/198
f 199/199/199 200/200/200 201/201/201
f 202/202/202 203/203/203 204/204/204
f 205/205/205 206/206/206 207/207/207
f 208/208/208 209/209/209 210/210/210
f 211/211/211 212/212/212 213/213/213
f 214/214/214 215/215/215 216/216/216
f 217/217/217 218/218/218 219/219/219
f 220/220/220 221/221/221 222/222/222
f 223/223/223 224/224/224 225/225/225
f 226/226/226 227/227/227 228/228/228
f 229/229/229 230/230/230 231/231/231
f 232/232/232 233/233/233 234/234/234
f 235/235/235 236/236/236 237/237/237
f 238/238/238 239/239/239 240/240/240
f 241/241/241 242/242/242 243/243/243
f 244/244/244 245/245/245 246/246/246
f 247/247/247 248/248/248 249/249/249
f 250/250/250 251/251/251 252/252/252
f 253/253/253 254/254/254 255/255/255
f 256/256/256 257/257/257 258/258/258
f 259/259/259 260/260/260 261/261/261
f 262/262/262 263/263/263 264/264/264
f 265/265/265 266/266/266 267/267/267
f 268/268/268 269/269/269 270/270/270
f 271/271/271 272/272/272 273/273/273
f 274/274/274 275/275/275 276/276/276
f 277/277/277 278/278/278 279/279/279
f 280/280/280 281/281/281 282/282/282
f 283/283/283 284/284/284 285/285/285
f 286/286/286 287/287/287 288/288/288
f 289/289/289 290/290/290 291/291/291
f 292/292/292 293/293/293 294/294/294
f 295/295/295 296/296/296 297/297/297
f 298/298/298 299/299/299 300/300/300
f 301/301/301 302/302/302 303/303/303
f 304/304/304 305/305/305 306/306/306
f 307/307/307 308/308/308 309/309/309
f 310/310/310 311/311/311 312/312/312
f 313/313/313 314/314/314 315/315/315
f 316/316/316 317/317/317 318/318/318
f 319/319/319 320/320/320 321/321/321
f 322/322/322 323/323/323 324/324/324
f 325/325/325 326/326/326 327/327/327
f 328/328/328 329/329/329 330/330/330
f 331/331/331 332/332/332 333/333/333
f 334/334/334 335/335/335 336/336/336
f 337/337/337 338/338/338 339/339/339
f 340/340/340 341/341/341 342/342/342
f 343/343/343 344/344/344 345/345/345
f 346/346/346 347/347/347 348/348/348
f 349/349/349 350/350/350 351/351/351
f 352/352/352 353/353/353 354/354/354
f 355/355/355 356/356/356 357/357/357
f 358/358/358 359/359/359 360/360/360
f 361/361/361 362/362/362 363/363/363
f 364/364/364 365/365/365 366/366/366
f 367/367/367 368/368/368 369/369/369
f 370/370/370 371/371/371 372/372/372
f 373/373/373 374/374/374 375/375/375
f 376/376/376 377/377/377 378/378/378
f 379/379/379 380/380/380 381/381/381
f 382/382/382 383/383/383 384/384/384
f 385/385/385 386/386/386 387/387/387
f 388/388/388 389/389/389 390/390/390
f 391/391/391 392/392/392 393/393/393
f 394/394/394 395/395/395 396/396/396
f 397/397/397 398/398/398 399/399/399
f 400/400/400 401/401/401 402/402/402
f 403/403/403 404/404/404 405/405/405
f 406/406/406 407/407/407 408/408/408
f 409/409/409 410/410/410 411/411/411
f 412/412/412 413/413/413 414/414/414
f 415/415/415 416/416/416 417/417/417
f 418/418/418 419/419/419 420/420/420
f 421/421/421 422/422/422 423/423/423
f 424/424/424 425/425/425 426/426/426
f 427/427/427 428/428/428 429/429/429
f 430/430/430 431/431/431 432/432/432
f 433/433/433 434/434/434 435/435/435
f 436/436/436 437/437/437 438/438/438
f 439/439/439 440/440/440 441/441/441
f 442/442/442 443/443/443 444/444/444
f 445/445/445 446/446/446 447/447/447
f 448/448/448 449/449/449 450/450/450
f 451/451/451 452/452/452 453/453/453
f 454/454/454 455/455/455 456/456/456
f 457/457/457 458/458/458 459/459/459
f 460/460/460 461/461/461 462/462/462
f 463/463/463 464/464/464 465/465/465
f 466/466/466 467/467/467 468/468/468
f 469/469/469 470/470/470 471/471/471
f 472/472/472 473/473/473 474/474/474
f 475/475/475 476/476/476 477/477/477
f 478/478/478 479/479/479 480/480/480
f 481/481/481 482/482/482 483/483/483
f 484/484/484 485/485/485 486/486/486
f 487/487/487 488/488/488 489/489/489
f 490/490/490 491/491/491 492/492/492
f 493/493/493 494/494/494 495/495/495
f 496/496/496 497/497/497 498/498/498
f 499/499/499 500/500/500 501/501/501
f 502/502/502 503/503/503 504/504/504
f 505/505/505 506/506/506 507/507/507
f 508/508/508 509/509/509 510/510/510
f 511/511/511 512/512/512 513/513/513
f 514/514/514 515/515/515 516/516/516
f 517/517/517 518/518/518 519/519/519
f 520/520/520 521/521/521 522/522/522
f 523/523/523 524/524/524 525/525/525
f 526/526/526 527/527/527 528/528/528
f 529/529/529 530/530/530 531/531/531
f 532/532/532 533/533/533 534/534/534
f 535/535/535 536/536/536 537/537/537
f 538/538/538 539/539/539 540/540/540
f 541/541/541 542/542/542 543/543/543
f 544/544/544 545/545/545 546/546/546
f 547/547/547 548/548/548 549/549/549
f 550/550/550 551/551/551 552/552/552
f 553/553/553 554/554/554 555/555/555
f 556/556/556 557/557/557 558/558/558
f 559/559/559 560/560/560 561/561/561
f 562/562/562 563/563/563 564/564/564
f 565/565/565 566/566/566 567/567/567
f 568/568/568 569/569/569 570/570/570
f 571/571/571 572/572/572 573/573/573
f 574/574/574 575/575/575 576/576/576
f 577/577/577 578/578/578 579/579/579
f 580/580/580 581/581/581 582/582/582
f 583/583/583 584/584/584 585/585/585
f 586/586/586 587/587/587 588/588/588
f 589/589/589 590/590/590 591/591/591
f 592/592/592 593/593/593 594/594/594
f 595/595/595 596/596/596 597/597/597
f 598/598/598 599/599/599 600/600/600
f 601/601/601 602/602/602 603/603/603
f 604/604/604 605/605/605 606/606/606
f 607/607/607 608/608/608 609/609/609
f 610/610/610 611/611/611 612/612/612
f 613/613/613 614/614/614 615/615/615
f 616/616/616 617/617/617 618/618/618
f 619/619/619 620/620/620 621/621/621
f 622/622/622 623/623/623 624/624/624
f 625/625/625 626/626/626 627/627/627
f 628/628/628 629/629/629 630/630/630
f 631/631/631 632/632/632 633/633/633
f 634/634/634 635/635/635 636/636/636
f 637/637/637 638/638/638 639/639/639
f 640/640/640 641/641/641 642/642/642
f 643/643/643 644/644/644 645/645/645
f 646/646/646 647/647/647 648/648/648
f 649/649/649 650/650/650 651/651/651
f 652/652/652 653/653/653 654/654/654
f 655/655/655 656/656/656 657/657/657
f 658/658/658 659/659/659 660/660/660
f 661/661/661 662/662/662 663/663/663
f 664/664/664 665/665/665 666/666/666
f 667/667/667 668/668/668 669/669/669
f 670/670/670 671/671/671 672/672/672
f 673/673/673 674/674/674 675/675/675
f 676/676/676 677/677/677 678/678/678
f 679/679/679 680/680/680 681/681/681
f 682/682/682 683/683/683 684/684/684
f 685/685/685 686/686/686 687/687/687
f 688/688/688 689/689/689 690/690/690
f 691/691/691 692/692/692 693/693/693
f 694/694/694 695/695/695 696/696/696
f 697/697/697 698/698/698 699/699/699
f 700/700/700 701/701/701 702/702/702
f 703/703/703 704/704/704 705/705/705
f 706/706/706 707/707/707 708/708/708
f 709/709/709 710/710/710 711/711/711
f 712/712/712 713/713/713 714/714/714
f 715/715/715 716/716/716 717/717/717
f 718/718/718 719/719/719 720/720/720
f 721/721/721 722/722/722 723/723/723
f 724/724/724 725/725/725 726/726/726
f 727/727/727 728/728/728 729/729/729
f 730/730/730 731/731/731 732/732/732
f 733/733/733 734/734/734 735/735/735
f 736/736/736 737/737/737 738/738/738
f 739/739/739 740/740/740 741/741/741
f 742/742/742 743/743/743 744/744/744
f 745/745/745 746/746/746 747/747/747
f 748/748/748 749/749/749 750/750/750
f 751/751/751 752/752/752 753/753/753
f 754/754/754 755/755/755 756/756/756
f 757/757/757 758/758/758 759/759/759
f 760/760/760 761/761/761 762/762/762
f 763/763/763 764/764/764 765/765/765
f 766/766/766 767/767/767 768/768/768
f 769/769/769 770/770/770 771/771/771
f 772/772/772 773/773/773 774/774/774
f 775/775/775 776/776/776 777/777/777
f 778/778/778 779/779/779 780/780/780
f 781/781/781 782/782/782 783/783/783
f 784/784/784 785/785/785 786/786/786
f 787/787/787 788/788/788 789/789/789
f 790/790/790 791/791/791 792/792/792
f 793/793/793 794/794/794 795/795/795
f 796/796/796 797/797/797 798/798/798
f 799/799/799 800/800/800 801/801/801
f 802/802/802 803/803/803 804/804/804
f 805/805/805 806/806/806 807/807/807
f 808/808/808 809/809/809 810/810/810