version 1.00
426
[-0.4834,0.64015,0.61075][-0.5293,0.7203,0.4483][0.5628,0.787,0][-0.2774,0.69365,0.64435][-0.2102,0.8633,0.4588][0.6011,0.8271,0][-0.2548,0.74195,0.23325][-0.206,0.9784,-0.0162][0.4881,0.8907,0][-0.2548,0.74195,0.23325][-0.206,0.9784,-0.0162][0.4881,0.8907,0][-0.4661,0.67805,0.21125][-0.4924,0.8661,-0.0859][0.4572,0.8361,0][-0.4834,0.64015,0.61075][-0.5293,0.7203,0.4483][0.5628,0.787,0][-0.4834,0.64015,0.61075][-0.5293,0.7203,0.4483][0.5628,0.787,0][-0.3452,0.34565,0.88165][-0.4592,0.3115,0.8319][0.6576,0.7088,0][-0.2774,0.69365,0.64435][-0.2102,0.8633,0.4588][0.6011,0.8271,0][-0.3451,-0.32725,0.86675][-0.4353,-0.1844,0.8812][0.6445,0.5075,0][-0.5073,-0.60195,0.74655][-0.6109,-0.5933,0.5242][0.5731,0.4506,0][-0.2592,-0.61565,0.82785][-0.1602,-0.7635,0.6256][0.625,0.4134,0][-0.3078,0.41315,-0.65135][-0.2806,0.9267,-0.25][0.1879,0.8866,0][-0.3067,0.31825,-1.00895][-0.3222,0.5674,-0.7578][0.0747,0.8922,0][-0.4802,0.30485,-0.91535][-0.724,0.4451,-0.5269][0.0992,0.8412,0][-0.4802,0.30485,-0.91535][-0.724,0.4451,-0.5269][0.0992,0.8412,0][-0.5468,0.32455,-0.54955][-0.804,0.5649,-0.1855][0.2037,0.8013,0][-0.3078,0.41315,-0.65135][-0.2806,0.9267,-0.25][0.1879,0.8866,0][-0.4649,0.598549,-0.15225][-0.59,0.7073,-0.3894][0.3494,0.8434,0][-0.246,0.68595,-0.20225][-0.2803,0.8574,-0.4316][0.354,0.9142,0][-0.2527,0.538549,-0.34075][-0.3369,0.7884,-0.5147][0.292,0.9029,0][-0.2527,0.538549,-0.34075][-0.3369,0.7884,-0.5147][0.292,0.9029,0][-0.4974,0.40535,-0.30545][-0.4983,0.7911,-0.3546][0.282,0.8125,0][-0.4649,0.598549,-0.15225][-0.59,0.7073,-0.3894][0.3494,0.8434,0][-0.4649,0.598549,-0.15225][-0.59,0.7073,-0.3894][0.3494,0.8434,0][-0.4661,0.67805,0.21125][-0.4924,0.8661,-0.0859][0.4572,0.8361,0][-0.2548,0.74195,0.23325][-0.206,0.9784,-0.0162][0.4881,0.8907,0][-0.2548,0.74195,0.23325][-0.206,0.9784,-0.0162][0.4881,0.8907,0][-0.246,0.68595,-0.20225][-0.2803,0.8574,-0.4316][0.354,0.9142,0][-0.4649,0.598549,-0.15225][-0.59,0.7073,-0.3894][0.3494,0.8434,0][-0.2774,0.69365,0.64435][-0.2102,0.8633,0.4588][0.6011,0.8271,0][2.30451e-007,0.70725,0.67935][2.85795e-007,0.8771,0.4804][0.66,0.8816,0][2.51664e-007,0.77235,0.24415][3.25809e-007,0.9999,0.0137][0.5193,0.96,0][2.51664e-007,0.77235,0.24415][3.25809e-007,0.9999,0.0137][0.5193,0.96,0][-0.2548,0.74195,0.23325][-0.206,0.9784,-0.0162][0.4881,0.8907,0][-0.2774,0.69365,0.64435][-0.2102,0.8633,0.4588][0.6011,0.8271,0][-0.3452,0.34565,0.88165][-0.4592,0.3115,0.8319][0.6576,0.7088,0][0,0.362949,0.98925][1.25025e-007,0.3837,0.9235][0.7584,0.7394,0][2.30451e-007,0.70725,0.67935][2.85795e-007,0.8771,0.4804][0.66,0.8816,0][2.30451e-007,0.70725,0.67935][2.85795e-007,0.8771,0.4804][0.66,0.8816,0][-0.2774,0.69365,0.64435][-0.2102,0.8633,0.4588][0.6011,0.8271,0][-0.3452,0.34565,0.88165][-0.4592,0.3115,0.8319][0.6576,0.7088,0][-0.3457,-0.0355506,0.92135][-0.4778,-0.0335998,0.8778][0.665,0.5937,0][0,-0.0313506,1.04175][0,-0.0494,0.9988][0.7758,0.5883,0][0,0.362949,0.98925][1.25025e-007,0.3837,0.9235][0.7584,0.7394,0][0,0.362949,0.98925][1.25025e-007,0.3837,0.9235][0.7584,0.7394,0][-0.3452,0.34565,0.88165][-0.4592,0.3115,0.8319][0.6576,0.7088,0][-0.3457,-0.0355506,0.92135][-0.4778,-0.0335998,0.8778][0.665,0.5937,0][-0.3457,-0.0355506,0.92135][-0.4778,-0.0335998,0.8778][0.665,0.5937,0][-0.3451,-0.32725,0.86675][-0.4353,-0.1844,0.8812][0.6445,0.5075,0][0,-0.333651,0.97325][0,-0.2733,0.9619][0.7448,0.4685,0][0,-0.333651,0.97325][0,-0.2733,0.9619][0.7448,0.4685,0][0,-0.0313506,1.04175][0,-0.0494,0.9988][0.7758,0.5883,0][-0.3457,-0.0355506,0.92135][-0.4778,-0.0335998,0.8778][0.665,0.5937,0][-0.2592,-0.61565,0.82785][-0.1602,-0.7635,0.6256][0.625,0.4134,0][-2.01517e-007,-0.61845,0.86835][-2.54059e-007,-0.7797,0.6262][0.6772,0.3642,0][0,-0.333651,0.97325][0,-0.2733,0.9619][0.7448,0.4685,0][0,-0.333651,0.97325][0,-0.2733,0.9619][0.7448,0.4685,0][-0.3451,-0.32725,0.86675][-0.4353,-0.1844,0.8812][0.6445,0.5075,0][-0.2592,-0.61565,0.82785][-0.1602,-0.7635,0.6256][0.625,0.4134,0][1.38564e-007,0.42525,-0.75975][3.10299e-007,0.9523,-0.305][0.1604,0.9839,0][0,0.33165,-1.08285][1.89444e-007,0.5814,-0.8136][0.0553,0.9853,0][-0.3067,0.31825,-1.00895][-0.3222,0.5674,-0.7578][0.0747,0.8922,0][-0.3067,0.31825,-1.00895][-0.3222,0.5674,-0.7578][0.0747,0.8922,0][-0.3078,0.41315,-0.65135][-0.2806,0.9267,-0.25][0.1879,0.8866,0][1.38564e-007,0.42525,-0.75975][3.10299e-007,0.9523,-0.305][0.1604,0.9839,0][-0.2527,0.538549,-0.34075][-0.3369,0.7884,-0.5147][0.292,0.9029,0][-0.246,0.68595,-0.20225][-0.2803,0.8574,-0.4316][0.354,0.9142,0][2.32178e-007,0.71255,-0.23335][2.93909e-007,0.902,-0.4317][0.3574,0.9889,0][2.32178e-007,0.71255,-0.23335][2.93909e-007,0.902,-0.4317][0.3574,0.9889,0][1.81445e-007,0.556849,-0.42015][2.85404e-007,0.8759,-0.4825][0.275,0.984,0][-0.2527,0.538549,-0.34075][-0.3369,0.7884,-0.5147][0.292,0.9029,0][-0.246,0.68595,-0.20225][-0.2803,0.8574,-0.4316][0.354,0.9142,0][-0.2548,0.74195,0.23325][-0.206,0.9784,-0.0162][0.4881,0.8907,0][2.51664e-007,0.77235,0.24415][3.25809e-007,0.9999,0.0137][0.5193,0.96,0][2.51664e-007,0.77235,0.24415][3.25809e-007,0.9999,0.0137][0.5193,0.96,0][2.32178e-007,0.71255,-0.23335][2.93909e-007,0.902,-0.4317][0.3574,0.9889,0][-0.246,0.68595,-0.20225][-0.2803,0.8574,-0.4316][0.354,0.9142,0][-0.5672,0.37605,-0.29045][-0.7839,0.5742,-0.2362][0.282,0.7835,0][-0.5962,0.46825,-0.01885][-0.8538,0.4664,-0.2314][0.3686,0.7783,0][-0.4974,0.40535,-0.30545][-0.4983,0.7911,-0.3546][0.282,0.8125,0][-0.5073,-0.60195,0.74655][-0.6109,-0.5933,0.5242][0.5731,0.4506,0][-0.3451,-0.32725,0.86675][-0.4353,-0.1844,0.8812][0.6445,0.5075,0][-0.5993,-0.31775,0.68095][-0.7672,-0.2264,0.6001][0.55,0.5223,0][-0.5993,-0.31775,0.68095][-0.7672,-0.2264,0.6001][0.55,0.5223,0][-0.5924,-0.503251,0.58405][-0.8928,-0.3397,0.2957][0.5221,0.4729,0][-0.5073,-0.60195,0.74655][-0.6109,-0.5933,0.5242][0.5731,0.4506,0][-0.3451,-0.32725,0.86675][-0.4353,-0.1844,0.8812][0.6445,0.5075,0][-0.3457,-0.0355506,0.92135][-0.4778,-0.0335998,0.8778][0.665,0.5937,0][-0.5866,-0.0152502,0.71625][-0.6996,0.0146002,0.7144][0.5699,0.6048,0][-0.5866,-0.0152502,0.71625][-0.6996,0.0146002,0.7144][0.5699,0.6048,0][-0.5993,-0.31775,0.68095][-0.7672,-0.2264,0.6001][0.55,0.5223,0][-0.3451,-0.32725,0.86675][-0.4353,-0.1844,0.8812][0.6445,0.5075,0][-0.5866,-0.0152502,0.71625][-0.6996,0.0146002,0.7144][0.5699,0.6048,0][-0.3457,-0.0355506,0.92135][-0.4778,-0.0335998,0.8778][0.665,0.5937,0][-0.3452,0.34565,0.88165][-0.4592,0.3115,0.8319][0.6576,0.7088,0][-0.3452,0.34565,0.88165][-0.4592,0.3115,0.8319][0.6576,0.7088,0][-0.5839,0.28885,0.67365][-0.7803,0.2108,0.5889][0.5656,0.6898,0][-0.5866,-0.0152502,0.71625][-0.6996,0.0146002,0.7144][0.5699,0.6048,0][-0.5839,0.28885,0.67365][-0.7803,0.2108,0.5889][0.5656,0.6898,0][-0.3452,0.34565,0.88165][-0.4592,0.3115,0.8319][0.6576,0.7088,0][-0.4834,0.64015,0.61075][-0.5293,0.7203,0.4483][0.5628,0.787,0][-0.4834,0.64015,0.61075][-0.5293,0.7203,0.4483][0.5628,0.787,0][-0.6502,0.51425,0.46245][-0.8761,0.4325,0.213][0.5048,0.7506,0][-0.5839,0.28885,0.67365][-0.7803,0.2108,0.5889][0.5656,0.6898,0][-0.6502,0.51425,0.46245][-0.8761,0.4325,0.213][0.5048,0.7506,0][-0.4834,0.64015,0.61075][-0.5293,0.7203,0.4483][0.5628,0.787,0][-0.4661,0.67805,0.21125][-0.4924,0.8661,-0.0859][0.4572,0.8361,0][-0.4661,0.67805,0.21125][-0.4924,0.8661,-0.0859][0.4572,0.8361,0][-0.4649,0.598549,-0.15225][-0.59,0.7073,-0.3894][0.3494,0.8434,0][-0.5962,0.46825,-0.01885][-0.8538,0.4664,-0.2314][0.3686,0.7783,0][-0.5962,0.46825,-0.01885][-0.8538,0.4664,-0.2314][0.3686,0.7783,0][-0.613,0.53305,0.21935][-0.8266,0.5453,-0.1394][0.4414,0.7783,0][-0.4661,0.67805,0.21125][-0.4924,0.8661,-0.0859][0.4572,0.8361,0][-0.6502,0.51425,0.46245][-0.8761,0.4325,0.213][0.5048,0.7506,0][-0.4661,0.67805,0.21125][-0.4924,0.8661,-0.0859][0.4572,0.8361,0][-0.613,0.53305,0.21935][-0.8266,0.5453,-0.1394][0.4414,0.7783,0][-0.2553,-0.60265,0.20805][0.00379968,-0.997,0.0775][0.4427,0.3554,0][-0.2592,-0.61565,0.82785][-0.1602,-0.7635,0.6256][0.625,0.4134,0][-0.5073,-0.60195,0.74655][-0.6109,-0.5933,0.5242][0.5731,0.4506,0][-0.5073,-0.60195,0.74655][-0.6109,-0.5933,0.5242][0.5731,0.4506,0][-0.4213,-0.604751,0.19385][0.000599676,-0.9959,0.0906][0.421,0.4027,0][-0.2553,-0.60265,0.20805][0.00379968,-0.997,0.0775][0.4427,0.3554,0][-1.95847e-007,-0.60105,0.21865][-3.24962e-007,-0.9973,0.074][0.4689,0.2816,0][-2.01517e-007,-0.61845,0.86835][-2.54059e-007,-0.7797,0.6262][0.6772,0.3642,0][-0.2592,-0.61565,0.82785][-0.1602,-0.7635,0.6256][0.625,0.4134,0][-0.2592,-0.61565,0.82785][-0.1602,-0.7635,0.6256][0.625,0.4134,0][-0.2553,-0.60265,0.20805][0.00379968,-0.997,0.0775][0.4427,0.3554,0][-1.95847e-007,-0.60105,0.21865][-3.24962e-007,-0.9973,0.074][0.4689,0.2816,0][-0.4482,-0.72855,-0.48185][-0.6474,-0.7276,-0.2271][0.2214,0.3636,0][-0.2388,-0.76475,-0.67835][-0.3398,-0.8152,-0.469][0.1746,0.2997,0][-0.2553,-0.60265,0.20805][0.00379968,-0.997,0.0775][0.4427,0.3554,0][-0.2553,-0.60265,0.20805][0.00379968,-0.997,0.0775][0.4427,0.3554,0][-0.4213,-0.604751,0.19385][0.000599676,-0.9959,0.0906][0.421,0.4027,0][-0.4482,-0.72855,-0.48185][-0.6474,-0.7276,-0.2271][0.2214,0.3636,0][-0.2388,-0.76475,-0.67835][-0.3398,-0.8152,-0.469][0.1746,0.2997,0][-2.51664e-007,-0.77235,-0.73085][-2.76314e-007,-0.848,-0.53][0.1592,0.2323,0][-1.95847e-007,-0.60105,0.21865][-3.24962e-007,-0.9973,0.074][0.4689,0.2816,0][-1.95847e-007,-0.60105,0.21865][-3.24962e-007,-0.9973,0.074][0.4689,0.2816,0][-0.2553,-0.60265,0.20805][0.00379968,-0.997,0.0775][0.4427,0.3554,0][-0.2388,-0.76475,-0.67835][-0.3398,-0.8152,-0.469][0.1746,0.2997,0][-0.4213,-0.604751,0.19385][0.000599676,-0.9959,0.0906][0.421,0.4027,0][-0.5301,-0.67695,-0.18335][-0.7241,-0.6897,-0.0033][0.2981,0.4079,0][-0.4482,-0.72855,-0.48185][-0.6474,-0.7276,-0.2271][0.2214,0.3636,0][-0.5732,-0.60565,0.18795][-0.6271,-0.7789,0.0004][0.4029,0.4428,0][-0.5073,-0.60195,0.74655][-0.6109,-0.5933,0.5242][0.5731,0.4506,0][-0.5924,-0.503251,0.58405][-0.8928,-0.3397,0.2957][0.5221,0.4729,0][-0.4425,-0.56835,-0.54365][-0.8762,-0.0271997,-0.4812][0.1864,0.3958,0][-0.2367,-0.605751,-0.74355][-0.479,-0.2455,-0.8428][0.1321,0.3259,0][-0.2388,-0.76475,-0.67835][-0.3398,-0.8152,-0.469][0.1746,0.2997,0][-0.2388,-0.76475,-0.67835][-0.3398,-0.8152,-0.469][0.1746,0.2997,0][-0.4482,-0.72855,-0.48185][-0.6474,-0.7276,-0.2271][0.2214,0.3636,0][-0.4425,-0.56835,-0.54365][-0.8762,-0.0271997,-0.4812][0.1864,0.3958,0][-0.3962,-0.40125,-0.58355][-0.8714,0.1079,-0.4785][0.1479,0.4311,0][-0.2335,-0.34585,-0.79125][-0.4899,-0.127,-0.8625][0.0693,0.3759,0][-0.2367,-0.605751,-0.74355][-0.479,-0.2455,-0.8428][0.1321,0.3259,0][-0.2367,-0.605751,-0.74355][-0.479,-0.2455,-0.8428][0.1321,0.3259,0][-0.4425,-0.56835,-0.54365][-0.8762,-0.0271997,-0.4812][0.1864,0.3958,0][-0.3962,-0.40125,-0.58355][-0.8714,0.1079,-0.4785][0.1479,0.4311,0][-0.2367,-0.605751,-0.74355][-0.479,-0.2455,-0.8428][0.1321,0.3259,0][-1.95586e-007,-0.60025,-0.80445][0,-0.2955,-0.9553][0.0933,0.2616,0][-2.51664e-007,-0.77235,-0.73085][-2.76314e-007,-0.848,-0.53][0.1592,0.2323,0][-2.51664e-007,-0.77235,-0.73085][-2.76314e-007,-0.848,-0.53][0.1592,0.2323,0][-0.2388,-0.76475,-0.67835][-0.3398,-0.8152,-0.469][0.1746,0.2997,0][-0.2367,-0.605751,-0.74355][-0.479,-0.2455,-0.8428][0.1321,0.3259,0][-0.2335,-0.34585,-0.79125][-0.4899,-0.127,-0.8625][0.0693,0.3759,0][0,-0.33775,-0.86145][0,-0.1939,-0.981][0.0212,0.3122,0][-1.95586e-007,-0.60025,-0.80445][0,-0.2955,-0.9553][0.0933,0.2616,0][-1.95586e-007,-0.60025,-0.80445][0,-0.2955,-0.9553][0.0933,0.2616,0][-0.2367,-0.605751,-0.74355][-0.479,-0.2455,-0.8428][0.1321,0.3259,0][-0.2335,-0.34585,-0.79125][-0.4899,-0.127,-0.8625][0.0693,0.3759,0][-0.4482,-0.72855,-0.48185][-0.6474,-0.7276,-0.2271][0.2214,0.3636,0][-0.5301,-0.67695,-0.18335][-0.7241,-0.6897,-0.0033][0.2981,0.4079,0][-0.5124,-0.49895,-0.23255][-0.9603,-0.0317997,-0.2771][0.2667,0.4586,0][-0.5124,-0.49895,-0.23255][-0.9603,-0.0317997,-0.2771][0.2667,0.4586,0][-0.4425,-0.56835,-0.54365][-0.8762,-0.0271997,-0.4812][0.1864,0.3958,0][-0.4482,-0.72855,-0.48185][-0.6474,-0.7276,-0.2271][0.2214,0.3636,0][-0.3962,-0.40125,-0.58355][-0.8714,0.1079,-0.4785][0.1479,0.4311,0][-0.4425,-0.56835,-0.54365][-0.8762,-0.0271997,-0.4812][0.1864,0.3958,0][-0.5124,-0.49895,-0.23255][-0.9603,-0.0317997,-0.2771][0.2667,0.4586,0][-0.3962,-0.40125,-0.58355][-0.8714,0.1079,-0.4785][0.1479,0.4311,0][-0.5124,-0.49895,-0.23255][-0.9603,-0.0317997,-0.2771][0.2667,0.4586,0][-0.4925,-0.35625,-0.28265][-0.8883,-0.00969971,-0.4592][0.2384,0.5012,0][-0.4925,-0.35625,-0.28265][-0.8883,-0.00969971,-0.4592][0.2384,0.5012,0][-0.5124,-0.49895,-0.23255][-0.9603,-0.0317997,-0.2771][0.2667,0.4586,0][-0.6067,-0.245151,-0.11685][-0.9201,-0.0737997,-0.3846][0.3,0.5454,0][-0.5301,-0.67695,-0.18335][-0.7241,-0.6897,-0.0033][0.2981,0.4079,0][-0.5732,-0.60565,0.18795][-0.6271,-0.7789,0.0004][0.4029,0.4428,0][-0.6158,-0.39605,0.03725][-0.9501,-0.2387,-0.2009][0.3509,0.5018,0][-0.6158,-0.39605,0.03725][-0.9501,-0.2387,-0.2009][0.3509,0.5018,0][-0.5124,-0.49895,-0.23255][-0.9603,-0.0317997,-0.2771][0.2667,0.4586,0][-0.5301,-0.67695,-0.18335][-0.7241,-0.6897,-0.0033][0.2981,0.4079,0][-0.6158,-0.39605,0.03725][-0.9501,-0.2387,-0.2009][0.3509,0.5018,0][-0.6067,-0.245151,-0.11685][-0.9201,-0.0737997,-0.3846][0.3,0.5454,0][-0.5124,-0.49895,-0.23255][-0.9603,-0.0317997,-0.2771][0.2667,0.4586,0][-0.5924,-0.503251,0.58405][-0.8928,-0.3397,0.2957][0.5221,0.4729,0][-0.6595,-0.32355,0.49985][-0.9695,-0.1986,0.1436][0.4927,0.5237,0][-0.6319,-0.453051,0.23515][-0.9585,-0.2808,-0.0501][0.413,0.4869,0][-0.6319,-0.453051,0.23515][-0.9585,-0.2808,-0.0501][0.413,0.4869,0][-0.5732,-0.60565,0.18795][-0.6271,-0.7789,0.0004][0.4029,0.4428,0][-0.5924,-0.503251,0.58405][-0.8928,-0.3397,0.2957][0.5221,0.4729,0][-0.5993,-0.31775,0.68095][-0.7672,-0.2264,0.6001][0.55,0.5223,0][-0.6595,-0.32355,0.49985][-0.9695,-0.1986,0.1436][0.4927,0.5237,0][-0.5924,-0.503251,0.58405][-0.8928,-0.3397,0.2957][0.5221,0.4729,0][-0.5866,-0.0152502,0.71625][-0.6996,0.0146002,0.7144][0.5699,0.6048,0][-0.6921,0.05335,0.59615][-0.9295,0.0472003,0.3657][0.5258,0.6277,0][-0.6595,-0.32355,0.49985][-0.9695,-0.1986,0.1436][0.4927,0.5237,0][-0.6595,-0.32355,0.49985][-0.9695,-0.1986,0.1436][0.4927,0.5237,0][-0.5993,-0.31775,0.68095][-0.7672,-0.2264,0.6001][0.55,0.5223,0][-0.5866,-0.0152502,0.71625][-0.6996,0.0146002,0.7144][0.5699,0.6048,0][-0.5866,-0.0152502,0.71625][-0.6996,0.0146002,0.7144][0.5699,0.6048,0][-0.5839,0.28885,0.67365][-0.7803,0.2108,0.5889][0.5656,0.6898,0][-0.6921,0.05335,0.59615][-0.9295,0.0472003,0.3657][0.5258,0.6277,0][-0.5732,-0.60565,0.18795][-0.6271,-0.7789,0.0004][0.4029,0.4428,0][-0.6319,-0.453051,0.23515][-0.9585,-0.2808,-0.0501][0.413,0.4869,0][-0.6158,-0.39605,0.03725][-0.9501,-0.2387,-0.2009][0.3509,0.5018,0][-0.456,0.20445,-0.92255][-0.7515,-0.1344,-0.6458][0.0772,0.8241,0][-0.4802,0.30485,-0.91535][-0.724,0.4451,-0.5269][0.0992,0.8412,0][-0.3055,0.21425,-1.00755][-0.3691,-0.0222999,-0.9291][0.0449,0.8773,0][-0.3067,0.31825,-1.00895][-0.3222,0.5674,-0.7578][0.0747,0.8922,0][0,0.33165,-1.08285][1.89444e-007,0.5814,-0.8136][0.0553,0.9853,0][0,0.23425,-1.08545][0,0.0178,-0.9998][0.0254,0.9765,0][0,0.23425,-1.08545][0,0.0178,-0.9998][0.0254,0.9765,0][-0.3055,0.21425,-1.00755][-0.3691,-0.0222999,-0.9291][0.0449,0.8773,0][-0.3067,0.31825,-1.00895][-0.3222,0.5674,-0.7578][0.0747,0.8922,0][-0.456,0.20445,-0.92255][-0.7515,-0.1344,-0.6458][0.0772,0.8241,0][-0.5748,0.172649,-0.50375][-0.9797,0.1254,-0.1565][0.1974,0.7492,0][-0.4802,0.30485,-0.91535][-0.724,0.4451,-0.5269][0.0992,0.8412,0][-0.4802,0.30485,-0.91535][-0.724,0.4451,-0.5269][0.0992,0.8412,0][-0.3067,0.31825,-1.00895][-0.3222,0.5674,-0.7578][0.0747,0.8922,0][-0.3055,0.21425,-1.00755][-0.3691,-0.0222999,-0.9291][0.0449,0.8773,0][-0.6043,0.27505,-0.18705][-0.9646,0.1805,-0.1924][0.2996,0.7363,0][-0.5962,0.46825,-0.01885][-0.8538,0.4664,-0.2314][0.3686,0.7783,0][-0.5672,0.37605,-0.29045][-0.7839,0.5742,-0.2362][0.282,0.7835,0][-0.4802,0.30485,-0.91535][-0.724,0.4451,-0.5269][0.0992,0.8412,0][-0.5748,0.172649,-0.50375][-0.9797,0.1254,-0.1565][0.1974,0.7492,0][-0.5468,0.32455,-0.54955][-0.804,0.5649,-0.1855][0.2037,0.8013,0][-0.5748,0.172649,-0.50375][-0.9797,0.1254,-0.1565][0.1974,0.7492,0][-0.6043,0.27505,-0.18705][-0.9646,0.1805,-0.1924][0.2996,0.7363,0][-0.5672,0.37605,-0.29045][-0.7839,0.5742,-0.2362][0.282,0.7835,0][-0.456,0.20445,-0.92255][-0.0359003,-0.9906,-0.1319][0.0775,0.1419,0][-0.3055,0.21425,-1.00755][-0.00190032,-0.9885,-0.1515][0.0608,0.1019,0][-0.387,0.14835,-0.52035][-0.0786003,-0.962,-0.2616][0.1807,0.1371,0][-0.3055,0.21425,-1.00755][-0.00190032,-0.9885,-0.1515][0.0608,0.1019,0][0,0.23425,-1.08545][-3.21084e-007,-0.9854,-0.1704][0.0499,0.0235,0][0,0.14225,-0.55385][-3.15675e-007,-0.9688,-0.2478][0.1842,0.0395,0][0,0.14225,-0.55385][-3.15675e-007,-0.9688,-0.2478][0.1842,0.0395,0][-0.387,0.14835,-0.52035][-0.0786003,-0.962,-0.2616][0.1807,0.1371,0][-0.3055,0.21425,-1.00755][-0.00190032,-0.9885,-0.1515][0.0608,0.1019,0][-0.387,0.14835,-0.52035][-0.0786003,-0.962,-0.2616][0.1807,0.1371,0][-0.2432,0.0397496,-0.26685][-0.0287003,-0.9246,-0.3798][0.2527,0.1081,0][-0.5001,0.0408497,-0.24875][-0.4355,-0.8549,-0.2819][0.2514,0.1724,0][0,0.14225,-0.55385][-3.15675e-007,-0.9688,-0.2478][0.1842,0.0395,0][0,0.0491495,-0.30715][-3.03424e-007,-0.9312,-0.3645][0.2501,0.0466,0][-0.2432,0.0397496,-0.26685][-0.0287003,-0.9246,-0.3798][0.2527,0.1081,0][-0.2432,0.0397496,-0.26685][-0.0287003,-0.9246,-0.3798][0.2527,0.1081,0][-0.387,0.14835,-0.52035][-0.0786003,-0.962,-0.2616][0.1807,0.1371,0][0,0.14225,-0.55385][-3.15675e-007,-0.9688,-0.2478][0.1842,0.0395,0][-0.456,0.20445,-0.92255][-0.0359003,-0.9906,-0.1319][0.0775,0.1419,0][-0.387,0.14835,-0.52035][-0.0786003,-0.962,-0.2616][0.1807,0.1371,0][-0.5748,0.172649,-0.50375][-0.2751,-0.9269,-0.2553][0.1781,0.1848,0][-0.5748,0.172649,-0.50375][-0.2751,-0.9269,-0.2553][0.1781,0.1848,0][-0.387,0.14835,-0.52035][-0.0786003,-0.962,-0.2616][0.1807,0.1371,0][-0.5001,0.0408497,-0.24875][-0.4355,-0.8549,-0.2819][0.2514,0.1724,0][-0.5001,0.0408497,-0.24875][-0.7161,-0.00829977,-0.698][0.2484,0.6358,0][-0.4925,-0.35625,-0.28265][-0.8883,-0.00969971,-0.4592][0.2384,0.5012,0][-0.6067,-0.245151,-0.11685][-0.9201,-0.0737997,-0.3846][0.3,0.5454,0][-0.6067,-0.245151,-0.11685][-0.9201,-0.0737997,-0.3846][0.3,0.5454,0][-0.6011,-0.0039506,-0.15475][-0.8341,-0.0617997,-0.5481][0.2906,0.6243,0][-0.5001,0.0408497,-0.24875][-0.7161,-0.00829977,-0.698][0.2484,0.6358,0][-0.2335,-0.34585,-0.79125][-0.0446997,0.9915,0.1221][0.4713,0.0872,0][-0.3962,-0.40125,-0.58355][-0.1124,0.9934,-0.024][0.425,0.1366,0][-0.2382,-0.38145,-0.50385][-0.0766997,0.9943,-0.0745][0.3997,0.0996,0][-0.2335,-0.34585,-0.79125][-0.0446997,0.9915,0.1221][0.4713,0.0872,0][-0.2382,-0.38145,-0.50385][-0.0766997,0.9943,-0.0745][0.3997,0.0996,0][-1.21979e-007,-0.374351,-0.56005][3.25776e-007,0.9998,-0.0182][0.4046,0.0382,0][-1.21979e-007,-0.374351,-0.56005][3.25776e-007,0.9998,-0.0182][0.4046,0.0382,0][0,-0.33775,-0.86145][3.23398e-007,0.9925,0.1219][0.4798,0.0267,0][-0.2335,-0.34585,-0.79125][-0.0446997,0.9915,0.1221][0.4713,0.0872,0][-0.2442,-0.33515,-0.29115][-0.0797997,0.9746,-0.2094][0.3462,0.1083,0][-0.2382,-0.38145,-0.50385][-0.0766997,0.9943,-0.0745][0.3997,0.0996,0][-0.3962,-0.40125,-0.58355][-0.1124,0.9934,-0.024][0.425,0.1366,0][-0.3962,-0.40125,-0.58355][-0.1124,0.9934,-0.024][0.425,0.1366,0][-0.4925,-0.35625,-0.28265][-0.0690997,0.9792,-0.1908][0.3521,0.1703,0][-0.2442,-0.33515,-0.29115][-0.0797997,0.9746,-0.2094][0.3462,0.1083,0][0,-0.328351,-0.32805][3.1965e-007,0.981,-0.1943][0.3456,0.0464,0][-1.21979e-007,-0.374351,-0.56005][3.25776e-007,0.9998,-0.0182][0.4046,0.0382,0][-0.2382,-0.38145,-0.50385][-0.0766997,0.9943,-0.0745][0.3997,0.0996,0][-0.2382,-0.38145,-0.50385][-0.0766997,0.9943,-0.0745][0.3997,0.0996,0][-0.2442,-0.33515,-0.29115][-0.0797997,0.9746,-0.2094][0.3462,0.1083,0][0,-0.328351,-0.32805][3.1965e-007,0.981,-0.1943][0.3456,0.0464,0][-0.5001,0.0408497,-0.24875][-0.0593,0.072,-0.9956][0.2514,0.1724,0][-0.2432,0.0397496,-0.26685][-0.1155,0.0613,-0.9914][0.2527,0.1081,0][-0.2442,-0.33515,-0.29115][-0.0997,0.071,-0.9925][0.3462,0.1083,0][-0.2442,-0.33515,-0.29115][-0.0997,0.071,-0.9925][0.3462,0.1083,0][-0.4925,-0.35625,-0.28265][-0.0412,0.0843,-0.9956][0.3521,0.1703,0][-0.5001,0.0408497,-0.24875][-0.0593,0.072,-0.9956][0.2514,0.1724,0][-0.2432,0.0397496,-0.26685][-0.1155,0.0613,-0.9914][0.2527,0.1081,0][0,0.0491495,-0.30715][0,0.0552,-0.9985][0.2501,0.0466,0][0,-0.328351,-0.32805][0,0.0614,-0.9981][0.3456,0.0464,0][0,-0.328351,-0.32805][0,0.0614,-0.9981][0.3456,0.0464,0][-0.2442,-0.33515,-0.29115][-0.0997,0.071,-0.9925][0.3462,0.1083,0][-0.2432,0.0397496,-0.26685][-0.1155,0.0613,-0.9914][0.2527,0.1081,0][-0.6011,-0.0039506,-0.15475][-0.8341,-0.0617997,-0.5481][0.2906,0.6243,0][-0.6346,0.16905,-0.11345][-0.9628,0.0271003,-0.269][0.3096,0.6876,0][-0.5001,0.0408497,-0.24875][-0.7161,-0.00829977,-0.698][0.2484,0.6358,0][-0.6346,0.16905,-0.11345][-0.9628,0.0271003,-0.269][0.3096,0.6876,0][-0.6043,0.27505,-0.18705][-0.9646,0.1805,-0.1924][0.2996,0.7363,0][-0.5748,0.172649,-0.50375][-0.9797,0.1254,-0.1565][0.1974,0.7492,0][-0.5001,0.0408497,-0.24875][-0.4355,-0.8549,-0.2819][0.2514,0.1724,0][-0.6346,0.16905,-0.11345][-0.7456,-0.6554,-0.1202][0.2673,0.2277,0][-0.5748,0.172649,-0.50375][-0.2751,-0.9269,-0.2553][0.1781,0.1848,0][-0.5962,0.46825,-0.01885][-0.8538,0.4664,-0.2314][0.3686,0.7783,0][-0.6043,0.27505,-0.18705][-0.9646,0.1805,-0.1924][0.2996,0.7363,0][-0.6634,0.314549,0.03485][-0.9754,0.1365,-0.1734][0.3688,0.7235,0][-0.6346,0.16905,-0.11345][-0.9628,0.0271003,-0.269][0.3096,0.6876,0][-0.6634,0.314549,0.03485][-0.9754,0.1365,-0.1734][0.3688,0.7235,0][-0.6043,0.27505,-0.18705][-0.9646,0.1805,-0.1924][0.2996,0.7363,0][-0.613,0.53305,0.21935][-0.8266,0.5453,-0.1394][0.4414,0.7783,0][-0.6947,0.33395,0.33385][-0.9889,0.1467,0.0217][0.4575,0.7119,0][-0.6502,0.51425,0.46245][-0.8761,0.4325,0.213][0.5048,0.7506,0][-0.613,0.53305,0.21935][-0.8266,0.5453,-0.1394][0.4414,0.7783,0][-0.5962,0.46825,-0.01885][-0.8538,0.4664,-0.2314][0.3686,0.7783,0][-0.6634,0.314549,0.03485][-0.9754,0.1365,-0.1734][0.3688,0.7235,0][-0.6634,0.314549,0.03485][-0.9754,0.1365,-0.1734][0.3688,0.7235,0][-0.6947,0.33395,0.33385][-0.9889,0.1467,0.0217][0.4575,0.7119,0][-0.613,0.53305,0.21935][-0.8266,0.5453,-0.1394][0.4414,0.7783,0][-0.5839,0.28885,0.67365][-0.7803,0.2108,0.5889][0.5656,0.6898,0][-0.6502,0.51425,0.46245][-0.8761,0.4325,0.213][0.5048,0.7506,0][-0.6947,0.33395,0.33385][-0.9889,0.1467,0.0217][0.4575,0.7119,0][-0.5839,0.28885,0.67365][-0.7803,0.2108,0.5889][0.5656,0.6898,0][-0.6947,0.33395,0.33385][-0.9889,0.1467,0.0217][0.4575,0.7119,0][-0.6921,0.05335,0.59615][-0.9295,0.0472003,0.3657][0.5258,0.6277,0][-0.6802,-0.18835,0.22305][-0.9912,-0.0944997,-0.0928][0.4069,0.5654,0][-0.6011,-0.0039506,-0.15475][-0.8341,-0.0617997,-0.5481][0.2906,0.6243,0][-0.6067,-0.245151,-0.11685][-0.9201,-0.0737997,-0.3846][0.3,0.5454,0][-0.6158,-0.39605,0.03725][-0.9501,-0.2387,-0.2009][0.3509,0.5018,0][-0.6802,-0.18835,0.22305][-0.9912,-0.0944997,-0.0928][0.4069,0.5654,0][-0.6067,-0.245151,-0.11685][-0.9201,-0.0737997,-0.3846][0.3,0.5454,0][-0.6011,-0.0039506,-0.15475][-0.8341,-0.0617997,-0.5481][0.2906,0.6243,0][-0.6802,-0.18835,0.22305][-0.9912,-0.0944997,-0.0928][0.4069,0.5654,0][-0.6346,0.16905,-0.11345][-0.9628,0.0271003,-0.269][0.3096,0.6876,0][-0.6346,0.16905,-0.11345][-0.9628,0.0271003,-0.269][0.3096,0.6876,0][-0.6947,0.33395,0.33385][-0.9889,0.1467,0.0217][0.4575,0.7119,0][-0.6634,0.314549,0.03485][-0.9754,0.1365,-0.1734][0.3688,0.7235,0][-0.6595,-0.32355,0.49985][-0.9695,-0.1986,0.1436][0.4927,0.5237,0][-0.6802,-0.18835,0.22305][-0.9912,-0.0944997,-0.0928][0.4069,0.5654,0][-0.6319,-0.453051,0.23515][-0.9585,-0.2808,-0.0501][0.413,0.4869,0][-0.6947,0.33395,0.33385][-0.9889,0.1467,0.0217][0.4575,0.7119,0][-0.6802,-0.18835,0.22305][-0.9912,-0.0944997,-0.0928][0.4069,0.5654,0][-0.6921,0.05335,0.59615][-0.9295,0.0472003,0.3657][0.5258,0.6277,0][-0.6319,-0.453051,0.23515][-0.9585,-0.2808,-0.0501][0.413,0.4869,0][-0.6802,-0.18835,0.22305][-0.9912,-0.0944997,-0.0928][0.4069,0.5654,0][-0.6158,-0.39605,0.03725][-0.9501,-0.2387,-0.2009][0.3509,0.5018,0][-0.5468,0.32455,-0.54955][-0.804,0.5649,-0.1855][0.2037,0.8013,0][-0.4974,0.40535,-0.30545][-0.4983,0.7911,-0.3546][0.282,0.8125,0][-0.3078,0.41315,-0.65135][-0.2806,0.9267,-0.25][0.1879,0.8866,0][1.81445e-007,0.556849,-0.42015][2.85404e-007,0.8759,-0.4825][0.275,0.984,0][1.38564e-007,0.42525,-0.75975][3.10299e-007,0.9523,-0.305][0.1604,0.9839,0][-0.3078,0.41315,-0.65135][-0.2806,0.9267,-0.25][0.1879,0.8866,0][-0.3078,0.41315,-0.65135][-0.2806,0.9267,-0.25][0.1879,0.8866,0][-0.2527,0.538549,-0.34075][-0.3369,0.7884,-0.5147][0.292,0.9029,0][1.81445e-007,0.556849,-0.42015][2.85404e-007,0.8759,-0.4825][0.275,0.984,0][-0.5468,0.32455,-0.54955][-0.804,0.5649,-0.1855][0.2037,0.8013,0][-0.5672,0.37605,-0.29045][-0.7839,0.5742,-0.2362][0.282,0.7835,0][-0.4974,0.40535,-0.30545][-0.4983,0.7911,-0.3546][0.282,0.8125,0][-0.5748,0.172649,-0.50375][-0.9797,0.1254,-0.1565][0.1974,0.7492,0][-0.5672,0.37605,-0.29045][-0.7839,0.5742,-0.2362][0.282,0.7835,0][-0.5468,0.32455,-0.54955][-0.804,0.5649,-0.1855][0.2037,0.8013,0][-0.4213,-0.604751,0.19385][0.000599676,-0.9959,0.0906][0.421,0.4027,0][-0.5732,-0.60565,0.18795][-0.6271,-0.7789,0.0004][0.4029,0.4428,0][-0.5301,-0.67695,-0.18335][-0.7241,-0.6897,-0.0033][0.2981,0.4079,0][-0.6346,0.16905,-0.11345][-0.9628,0.0271003,-0.269][0.3096,0.6876,0][-0.6802,-0.18835,0.22305][-0.9912,-0.0944997,-0.0928][0.4069,0.5654,0][-0.6947,0.33395,0.33385][-0.9889,0.1467,0.0217][0.4575,0.7119,0][-0.6595,-0.32355,0.49985][-0.9695,-0.1986,0.1436][0.4927,0.5237,0][-0.6921,0.05335,0.59615][-0.9295,0.0472003,0.3657][0.5258,0.6277,0][-0.6802,-0.18835,0.22305][-0.9912,-0.0944997,-0.0928][0.4069,0.5654,0][-0.5732,-0.60565,0.18795][-0.6271,-0.7789,0.0004][0.4029,0.4428,0][-0.4213,-0.604751,0.19385][0.000599676,-0.9959,0.0906][0.421,0.4027,0][-0.5073,-0.60195,0.74655][-0.6109,-0.5933,0.5242][0.5731,0.4506,0][-0.5962,0.46825,-0.01885][-0.8538,0.4664,-0.2314][0.3686,0.7783,0][-0.4649,0.598549,-0.15225][-0.59,0.7073,-0.3894][0.3494,0.8434,0][-0.4974,0.40535,-0.30545][-0.4983,0.7911,-0.3546][0.282,0.8125,0][-0.4974,0.40535,-0.30545][-0.4983,0.7911,-0.3546][0.282,0.8125,0][-0.2527,0.538549,-0.34075][-0.3369,0.7884,-0.5147][0.292,0.9029,0][-0.3078,0.41315,-0.65135][-0.2806,0.9267,-0.25][0.1879,0.8866,0][0.2548,0.74195,0.23325][0.206,0.9784,-0.0162][0.4881,0.8907,0][0.2774,0.69365,0.64435][0.2102,0.8633,0.4588][0.6011,0.8271,0][0.4834,0.64015,0.61075][0.5293,0.7203,0.4483][0.5628,0.787,0][0.4834,0.64015,0.61075][0.5293,0.7203,0.4483][0.5628,0.787,0][0.4661,0.67805,0.21125][0.4924,0.8661,-0.0859][0.4572,0.8361,0][0.2548,0.74195,0.23325][0.206,0.9784,-0.0162][0.4881,0.8907,0][0.4834,0.64015,0.61075][0.5293,0.7203,0.4483][0.5628,0.787,0][0.2774,0.69365,0.64435][0.2102,0.8633,0.4588][0.6011,0.8271,0][0.3452,0.34565,0.88165][0.4592,0.3115,0.8319][0.6576,0.7088,0][0.3451,-0.32725,0.86675][0.4353,-0.1844,0.8812][0.6445,0.5075,0][0.2592,-0.61565,0.82785][0.1602,-0.7635,0.6256][0.625,0.4134,0][0.5073,-0.60195,0.74655][0.6109,-0.5933,0.5242][0.5731,0.4506,0][0.3078,0.41315,-0.65135][0.2806,0.9267,-0.25][0.1879,0.8866,0][0.5468,0.32455,-0.54955][0.804,0.5649,-0.1855][0.2037,0.8013,0][0.4802,0.30485,-0.91535][0.724,0.4451,-0.5269][0.0992,0.8412,0][0.4802,0.30485,-0.91535][0.724,0.4451,-0.5269][0.0992,0.8412,0][0.3067,0.31825,-1.00895][0.3222,0.5674,-0.7578][0.0747,0.8922,0][0.3078,0.41315,-0.65135][0.2806,0.9267,-0.25][0.1879,0.8866,0][0.2527,0.538549,-0.34075][0.3369,0.7884,-0.5147][0.292,0.9029,0][0.246,0.68595,-0.20225][0.2803,0.8574,-0.4316][0.354,0.9142,0][0.4649,0.598549,-0.15225][0.59,0.7073,-0.3894][0.3494,0.8434,0][0.4649,0.598549,-0.15225][0.59,0.7073,-0.3894][0.3494,0.8434,0][0.4974,0.40535,-0.30545][0.4983,0.7911,-0.3546][0.282,0.8125,0][0.2527,0.538549,-0.34075][0.3369,0.7884,-0.5147][0.292,0.9029,0][0.4649,0.598549,-0.15225][0.59,0.7073,-0.3894][0.3494,0.8434,0][0.246,0.68595,-0.20225][0.2803,0.8574,-0.4316][0.354,0.9142,0][0.2548,0.74195,0.23325][0.206,0.9784,-0.0162][0.4881,0.8907,0][0.2548,0.74195,0.23325][0.206,0.9784,-0.0162][0.4881,0.8907,0][0.4661,0.67805,0.21125][0.4924,0.8661,-0.0859][0.4572,0.8361,0][0.4649,0.598549,-0.15225][0.59,0.7073,-0.3894][0.3494,0.8434,0][2.51664e-007,0.77235,0.24415][3.25809e-007,0.9999,0.0137][0.5193,0.96,0][2.30451e-007,0.70725,0.67935][2.85795e-007,0.8771,0.4804][0.66,0.8816,0][0.2774,0.69365,0.64435][0.2102,0.8633,0.4588][0.6011,0.8271,0][0.2774,0.69365,0.64435][0.2102,0.8633,0.4588][0.6011,0.8271,0][0.2548,0.74195,0.23325][0.206,0.9784,-0.0162][0.4881,0.8907,0][2.51664e-007,0.77235,0.24415][3.25809e-007,0.9999,0.0137][0.5193,0.96,0][2.30451e-007,0.70725,0.67935][2.85795e-007,0.8771,0.4804][0.66,0.8816,0][0,0.362949,0.98925][1.25025e-007,0.3837,0.9235][0.7584,0.7394,0][0.3452,0.34565,0.88165][0.4592,0.3115,0.8319][0.6576,0.7088,0][0.3452,0.34565,0.88165][0.4592,0.3115,0.8319][0.6576,0.7088,0][0.2774,0.69365,0.64435][0.2102,0.8633,0.4588][0.6011,0.8271,0][2.30451e-007,0.70725,0.67935][2.85795e-007,0.8771,0.4804][0.66,0.8816,0][0,0.362949,0.98925][1.25025e-007,0.3837,0.9235][0.7584,0.7394,0][0,-0.0313506,1.04175][0,-0.0494,0.9988][0.7758,0.5883,0][0.3457,-0.0355506,0.92135][0.4778,-0.0336002,0.8778][0.665,0.5937,0][0.3457,-0.0355506,0.92135][0.4778,-0.0336002,0.8778][0.665,0.5937,0][0.3452,0.34565,0.88165][0.4592,0.3115,0.8319][0.6576,0.7088,0][0,0.362949,0.98925][1.25025e-007,0.3837,0.9235][0.7584,0.7394,0][0.3457,-0.0355506,0.92135][0.4778,-0.0336002,0.8778][0.665,0.5937,0][0,-0.0313506,1.04175][0,-0.0494,0.9988][0.7758,0.5883,0][0,-0.333651,0.97325][0,-0.2733,0.9619][0.7448,0.4685,0][0,-0.333651,0.97325][0,-0.2733,0.9619][0.7448,0.4685,0][0.3451,-0.32725,0.86675][0.4353,-0.1844,0.8812][0.6445,0.5075,0][0.3457,-0.0355506,0.92135][0.4778,-0.0336002,0.8778][0.665,0.5937,0][0,-0.333651,0.97325][0,-0.2733,0.9619][0.7448,0.4685,0][-2.01517e-007,-0.61845,0.86835][-2.54059e-007,-0.7797,0.6262][0.6772,0.3642,0][0.2592,-0.61565,0.82785][0.1602,-0.7635,0.6256][0.625,0.4134,0][0.2592,-0.61565,0.82785][0.1602,-0.7635,0.6256][0.625,0.4134,0][0.3451,-0.32725,0.86675][0.4353,-0.1844,0.8812][0.6445,0.5075,0][0,-0.333651,0.97325][0,-0.2733,0.9619][0.7448,0.4685,0][1.38564e-007,0.42525,-0.75975][3.10299e-007,0.9523,-0.305][0.1604,0.9839,0][0.3078,0.41315,-0.65135][0.2806,0.9267,-0.25][0.1879,0.8866,0][0.3067,0.31825,-1.00895][0.3222,0.5674,-0.7578][0.0747,0.8922,0][0.3067,0.31825,-1.00895][0.3222,0.5674,-0.7578][0.0747,0.8922,0][0,0.33165,-1.08285][1.89444e-007,0.5814,-0.8136][0.0553,0.9853,0][1.38564e-007,0.42525,-0.75975][3.10299e-007,0.9523,-0.305][0.1604,0.9839,0][0.2527,0.538549,-0.34075][0.3369,0.7884,-0.5147][0.292,0.9029,0][1.81445e-007,0.556849,-0.42015][2.85404e-007,0.8759,-0.4825][0.275,0.984,0][2.32178e-007,0.71255,-0.23335][2.93909e-007,0.902,-0.4317][0.3574,0.9889,0][2.32178e-007,0.71255,-0.23335][2.93909e-007,0.902,-0.4317][0.3574,0.9889,0][0.246,0.68595,-0.20225][0.2803,0.8574,-0.4316][0.354,0.9142,0][0.2527,0.538549,-0.34075][0.3369,0.7884,-0.5147][0.292,0.9029,0][0.246,0.68595,-0.20225][0.2803,0.8574,-0.4316][0.354,0.9142,0][2.32178e-007,0.71255,-0.23335][2.93909e-007,0.902,-0.4317][0.3574,0.9889,0][2.51664e-007,0.77235,0.24415][3.25809e-007,0.9999,0.0137][0.5193,0.96,0][2.51664e-007,0.77235,0.24415][3.25809e-007,0.9999,0.0137][0.5193,0.96,0][0.2548,0.74195,0.23325][0.206,0.9784,-0.0162][0.4881,0.8907,0][0.246,0.68595,-0.20225][0.2803,0.8574,-0.4316][0.354,0.9142,0][0.5672,0.37605,-0.29045][0.7839,0.5742,-0.2362][0.282,0.7835,0][0.4974,0.40535,-0.30545][0.4983,0.7911,-0.3546][0.282,0.8125,0][0.5962,0.46825,-0.01885][0.8538,0.4664,-0.2314][0.3686,0.7783,0][0.5993,-0.31775,0.68095][0.7672,-0.2264,0.6001][0.55,0.5223,0][0.3451,-0.32725,0.86675][0.4353,-0.1844,0.8812][0.6445,0.5075,0][0.5073,-0.60195,0.74655][0.6109,-0.5933,0.5242][0.5731,0.4506,0][0.5073,-0.60195,0.74655][0.6109,-0.5933,0.5242][0.5731,0.4506,0][0.5924,-0.503251,0.58405][0.8928,-0.3397,0.2957][0.5221,0.4729,0][0.5993,-0.31775,0.68095][0.7672,-0.2264,0.6001][0.55,0.5223,0][0.5866,-0.0152502,0.71625][0.6996,0.0145998,0.7144][0.5699,0.6048,0][0.3457,-0.0355506,0.92135][0.4778,-0.0336002,0.8778][0.665,0.5937,0][0.3451,-0.32725,0.86675][0.4353,-0.1844,0.8812][0.6445,0.5075,0][0.3451,-0.32725,0.86675][0.4353,-0.1844,0.8812][0.6445,0.5075,0][0.5993,-0.31775,0.68095][0.7672,-0.2264,0.6001][0.55,0.5223,0][0.5866,-0.0152502,0.71625][0.6996,0.0145998,0.7144][0.5699,0.6048,0][0.5866,-0.0152502,0.71625][0.6996,0.0145998,0.7144][0.5699,0.6048,0][0.5839,0.28885,0.67365][0.7803,0.2108,0.5889][0.5656,0.6898,0][0.3452,0.34565,0.88165][0.4592,0.3115,0.8319][0.6576,0.7088,0][0.3452,0.34565,0.88165][0.4592,0.3115,0.8319][0.6576,0.7088,0][0.3457,-0.0355506,0.92135][0.4778,-0.0336002,0.8778][0.665,0.5937,0][0.5866,-0.0152502,0.71625][0.6996,0.0145998,0.7144][0.5699,0.6048,0][0.5839,0.28885,0.67365][0.7803,0.2108,0.5889][0.5656,0.6898,0][0.6502,0.51425,0.46245][0.8761,0.4325,0.213][0.5048,0.7506,0][0.4834,0.64015,0.61075][0.5293,0.7203,0.4483][0.5628,0.787,0][0.4834,0.64015,0.61075][0.5293,0.7203,0.4483][0.5628,0.787,0][0.3452,0.34565,0.88165][0.4592,0.3115,0.8319][0.6576,0.7088,0][0.5839,0.28885,0.67365][0.7803,0.2108,0.5889][0.5656,0.6898,0][0.6502,0.51425,0.46245][0.8761,0.4325,0.213][0.5048,0.7506,0][0.4661,0.67805,0.21125][0.4924,0.8661,-0.0859][0.4572,0.8361,0][0.4834,0.64015,0.61075][0.5293,0.7203,0.4483][0.5628,0.787,0][0.4661,0.67805,0.21125][0.4924,0.8661,-0.0859][0.4572,0.8361,0][0.613,0.53305,0.21935][0.8266,0.5453,-0.1394][0.4414,0.7783,0][0.5962,0.46825,-0.01885][0.8538,0.4664,-0.2314][0.3686,0.7783,0][0.5962,0.46825,-0.01885][0.8538,0.4664,-0.2314][0.3686,0.7783,0][0.4649,0.598549,-0.15225][0.59,0.7073,-0.3894][0.3494,0.8434,0][0.4661,0.67805,0.21125][0.4924,0.8661,-0.0859][0.4572,0.8361,0][0.6502,0.51425,0.46245][0.8761,0.4325,0.213][0.5048,0.7506,0][0.613,0.53305,0.21935][0.8266,0.5453,-0.1394][0.4414,0.7783,0][0.4661,0.67805,0.21125][0.4924,0.8661,-0.0859][0.4572,0.8361,0][0.5073,-0.60195,0.74655][0.6109,-0.5933,0.5242][0.5731,0.4506,0][0.2592,-0.61565,0.82785][0.1602,-0.7635,0.6256][0.625,0.4134,0][0.2553,-0.60265,0.20805][-0.00380032,-0.997,0.0775][0.4427,0.3554,0][0.2553,-0.60265,0.20805][-0.00380032,-0.997,0.0775][0.4427,0.3554,0][0.4213,-0.604751,0.19385][-0.000600325,-0.9959,0.0906][0.421,0.4027,0][0.5073,-0.60195,0.74655][0.6109,-0.5933,0.5242][0.5731,0.4506,0][0.2592,-0.61565,0.82785][0.1602,-0.7635,0.6256][0.625,0.4134,0][-2.01517e-007,-0.61845,0.86835][-2.54059e-007,-0.7797,0.6262][0.6772,0.3642,0][-1.95847e-007,-0.60105,0.21865][-3.24962e-007,-0.9973,0.074][0.4689,0.2816,0][-1.95847e-007,-0.60105,0.21865][-3.24962e-007,-0.9973,0.074][0.4689,0.2816,0][0.2553,-0.60265,0.20805][-0.00380032,-0.997,0.0775][0.4427,0.3554,0][0.2592,-0.61565,0.82785][0.1602,-0.7635,0.6256][0.625,0.4134,0][0.4482,-0.72855,-0.48185][0.6474,-0.7276,-0.2271][0.2214,0.3636,0][0.4213,-0.604751,0.19385][-0.000600325,-0.9959,0.0906][0.421,0.4027,0][0.2553,-0.60265,0.20805][-0.00380032,-0.997,0.0775][0.4427,0.3554,0][0.2553,-0.60265,0.20805][-0.00380032,-0.997,0.0775][0.4427,0.3554,0][0.2388,-0.76475,-0.67835][0.3398,-0.8152,-0.469][0.1746,0.2997,0][0.4482,-0.72855,-0.48185][0.6474,-0.7276,-0.2271][0.2214,0.3636,0][0.2388,-0.76475,-0.67835][0.3398,-0.8152,-0.469][0.1746,0.2997,0][0.2553,-0.60265,0.20805][-0.00380032,-0.997,0.0775][0.4427,0.3554,0][-1.95847e-007,-0.60105,0.21865][-3.24962e-007,-0.9973,0.074][0.4689,0.2816,0][-1.95847e-007,-0.60105,0.21865][-3.24962e-007,-0.9973,0.074][0.4689,0.2816,0][-2.51664e-007,-0.77235,-0.73085][-2.76314e-007,-0.848,-0.53][0.1592,0.2323,0][0.2388,-0.76475,-0.67835][0.3398,-0.8152,-0.469][0.1746,0.2997,0][0.4213,-0.604751,0.19385][-0.000600325,-0.9959,0.0906][0.421,0.4027,0][0.4482,-0.72855,-0.48185][0.6474,-0.7276,-0.2271][0.2214,0.3636,0][0.5301,-0.67695,-0.18335][0.7241,-0.6897,-0.0033][0.2981,0.4079,0][0.5732,-0.60565,0.18795][0.6271,-0.7789,0.0004][0.4029,0.4428,0][0.5924,-0.503251,0.58405][0.8928,-0.3397,0.2957][0.5221,0.4729,0][0.5073,-0.60195,0.74655][0.6109,-0.5933,0.5242][0.5731,0.4506,0][0.2388,-0.76475,-0.67835][0.3398,-0.8152,-0.469][0.1746,0.2997,0][0.2367,-0.605751,-0.74355][0.479,-0.2455,-0.8428][0.1321,0.3259,0][0.4425,-0.56835,-0.54365][0.8762,-0.0272003,-0.4812][0.1864,0.3958,0][0.4425,-0.56835,-0.54365][0.8762,-0.0272003,-0.4812][0.1864,0.3958,0][0.4482,-0.72855,-0.48185][0.6474,-0.7276,-0.2271][0.2214,0.3636,0][0.2388,-0.76475,-0.67835][0.3398,-0.8152,-0.469][0.1746,0.2997,0][0.2367,-0.605751,-0.74355][0.479,-0.2455,-0.8428][0.1321,0.3259,0][0.2335,-0.34585,-0.79125][0.4899,-0.127,-0.8625][0.0693,0.3759,0][0.3962,-0.40125,-0.58355][0.8714,0.1079,-0.4785][0.1479,0.4311,0][0.3962,-0.40125,-0.58355][0.8714,0.1079,-0.4785][0.1479,0.4311,0][0.4425,-0.56835,-0.54365][0.8762,-0.0272003,-0.4812][0.1864,0.3958,0][0.2367,-0.605751,-0.74355][0.479,-0.2455,-0.8428][0.1321,0.3259,0][-2.51664e-007,-0.77235,-0.73085][-2.76314e-007,-0.848,-0.53][0.1592,0.2323,0][-1.95586e-007,-0.60025,-0.80445][0,-0.2955,-0.9553][0.0933,0.2616,0][0.2367,-0.605751,-0.74355][0.479,-0.2455,-0.8428][0.1321,0.3259,0][0.2367,-0.605751,-0.74355][0.479,-0.2455,-0.8428][0.1321,0.3259,0][0.2388,-0.76475,-0.67835][0.3398,-0.8152,-0.469][0.1746,0.2997,0][-2.51664e-007,-0.77235,-0.73085][-2.76314e-007,-0.848,-0.53][0.1592,0.2323,0][-1.95586e-007,-0.60025,-0.80445][0,-0.2955,-0.9553][0.0933,0.2616,0][0,-0.33775,-0.86145][0,-0.1939,-0.981][0.0212,0.3122,0][0.2335,-0.34585,-0.79125][0.4899,-0.127,-0.8625][0.0693,0.3759,0][0.2335,-0.34585,-0.79125][0.4899,-0.127,-0.8625][0.0693,0.3759,0][0.2367,-0.605751,-0.74355][0.479,-0.2455,-0.8428][0.1321,0.3259,0][-1.95586e-007,-0.60025,-0.80445][0,-0.2955,-0.9553][0.0933,0.2616,0][0.5124,-0.49895,-0.23255][0.9603,-0.0318003,-0.2771][0.2667,0.4586,0][0.5301,-0.67695,-0.18335][0.7241,-0.6897,-0.0033][0.2981,0.4079,0][0.4482,-0.72855,-0.48185][0.6474,-0.7276,-0.2271][0.2214,0.3636,0][0.4482,-0.72855,-0.48185][0.6474,-0.7276,-0.2271][0.2214,0.3636,0][0.4425,-0.56835,-0.54365][0.8762,-0.0272003,-0.4812][0.1864,0.3958,0][0.5124,-0.49895,-0.23255][0.9603,-0.0318003,-0.2771][0.2667,0.4586,0][0.3962,-0.40125,-0.58355][0.8714,0.1079,-0.4785][0.1479,0.4311,0][0.5124,-0.49895,-0.23255][0.9603,-0.0318003,-0.2771][0.2667,0.4586,0][0.4425,-0.56835,-0.54365][0.8762,-0.0272003,-0.4812][0.1864,0.3958,0][0.3962,-0.40125,-0.58355][0.8714,0.1079,-0.4785][0.1479,0.4311,0][0.4925,-0.35625,-0.28265][0.8883,-0.00970029,-0.4592][0.2384,0.5012,0][0.5124,-0.49895,-0.23255][0.9603,-0.0318003,-0.2771][0.2667,0.4586,0][0.4925,-0.35625,-0.28265][0.8883,-0.00970029,-0.4592][0.2384,0.5012,0][0.6067,-0.245151,-0.11685][0.9201,-0.0738003,-0.3846][0.3,0.5454,0][0.5124,-0.49895,-0.23255][0.9603,-0.0318003,-0.2771][0.2667,0.4586,0][0.6158,-0.39605,0.03725][0.9501,-0.2387,-0.2009][0.3509,0.5018,0][0.5732,-0.60565,0.18795][0.6271,-0.7789,0.0004][0.4029,0.4428,0][0.5301,-0.67695,-0.18335][0.7241,-0.6897,-0.0033][0.2981,0.4079,0][0.5301,-0.67695,-0.18335][0.7241,-0.6897,-0.0033][0.2981,0.4079,0][0.5124,-0.49895,-0.23255][0.9603,-0.0318003,-0.2771][0.2667,0.4586,0][0.6158,-0.39605,0.03725][0.9501,-0.2387,-0.2009][0.3509,0.5018,0][0.6158,-0.39605,0.03725][0.9501,-0.2387,-0.2009][0.3509,0.5018,0][0.5124,-0.49895,-0.23255][0.9603,-0.0318003,-0.2771][0.2667,0.4586,0][0.6067,-0.245151,-0.11685][0.9201,-0.0738003,-0.3846][0.3,0.5454,0][0.5924,-0.503251,0.58405][0.8928,-0.3397,0.2957][0.5221,0.4729,0][0.5732,-0.60565,0.18795][0.6271,-0.7789,0.0004][0.4029,0.4428,0][0.6319,-0.453051,0.23515][0.9585,-0.2808,-0.0501][0.413,0.4869,0][0.6319,-0.453051,0.23515][0.9585,-0.2808,-0.0501][0.413,0.4869,0][0.6595,-0.32355,0.49985][0.9695,-0.1986,0.1436][0.4927,0.5237,0][0.5924,-0.503251,0.58405][0.8928,-0.3397,0.2957][0.5221,0.4729,0][0.5993,-0.31775,0.68095][0.7672,-0.2264,0.6001][0.55,0.5223,0][0.5924,-0.503251,0.58405][0.8928,-0.3397,0.2957][0.5221,0.4729,0][0.6595,-0.32355,0.49985][0.9695,-0.1986,0.1436][0.4927,0.5237,0][0.6595,-0.32355,0.49985][0.9695,-0.1986,0.1436][0.4927,0.5237,0][0.6921,0.0533495,0.59615][0.9295,0.0471997,0.3657][0.5258,0.6277,0][0.5866,-0.0152502,0.71625][0.6996,0.0145998,0.7144][0.5699,0.6048,0][0.5866,-0.0152502,0.71625][0.6996,0.0145998,0.7144][0.5699,0.6048,0][0.5993,-0.31775,0.68095][0.7672,-0.2264,0.6001][0.55,0.5223,0][0.6595,-0.32355,0.49985][0.9695,-0.1986,0.1436][0.4927,0.5237,0][0.5866,-0.0152502,0.71625][0.6996,0.0145998,0.7144][0.5699,0.6048,0][0.6921,0.0533495,0.59615][0.9295,0.0471997,0.3657][0.5258,0.6277,0][0.5839,0.28885,0.67365][0.7803,0.2108,0.5889][0.5656,0.6898,0][0.5732,-0.60565,0.18795][0.6271,-0.7789,0.0004][0.4029,0.4428,0][0.6158,-0.39605,0.03725][0.9501,-0.2387,-0.2009][0.3509,0.5018,0][0.6319,-0.453051,0.23515][0.9585,-0.2808,-0.0501][0.413,0.4869,0][0.456,0.20445,-0.92255][0.7515,-0.1344,-0.6458][0.0772,0.8241,0][0.3055,0.21425,-1.00755][0.3691,-0.0223001,-0.9291][0.0449,0.8773,0][0.4802,0.30485,-0.91535][0.724,0.4451,-0.5269][0.0992,0.8412,0][0.3067,0.31825,-1.00895][0.3222,0.5674,-0.7578][0.0747,0.8922,0][0.3055,0.21425,-1.00755][0.3691,-0.0223001,-0.9291][0.0449,0.8773,0][0,0.23425,-1.08545][0,0.0178,-0.9998][0.0254,0.9765,0][0,0.23425,-1.08545][0,0.0178,-0.9998][0.0254,0.9765,0][0,0.33165,-1.08285][1.89444e-007,0.5814,-0.8136][0.0553,0.9853,0][0.3067,0.31825,-1.00895][0.3222,0.5674,-0.7578][0.0747,0.8922,0][0.456,0.20445,-0.92255][0.7515,-0.1344,-0.6458][0.0772,0.8241,0][0.4802,0.30485,-0.91535][0.724,0.4451,-0.5269][0.0992,0.8412,0][0.5748,0.172649,-0.50375][0.9797,0.1254,-0.1565][0.1974,0.7492,0][0.4802,0.30485,-0.91535][0.724,0.4451,-0.5269][0.0992,0.8412,0][0.3055,0.21425,-1.00755][0.3691,-0.0223001,-0.9291][0.0449,0.8773,0][0.3067,0.31825,-1.00895][0.3222,0.5674,-0.7578][0.0747,0.8922,0][0.6043,0.27505,-0.18705][0.9646,0.1805,-0.1924][0.2996,0.7363,0][0.5672,0.37605,-0.29045][0.7839,0.5742,-0.2362][0.282,0.7835,0][0.5962,0.46825,-0.01885][0.8538,0.4664,-0.2314][0.3686,0.7783,0][0.4802,0.30485,-0.91535][0.724,0.4451,-0.5269][0.0992,0.8412,0][0.5468,0.32455,-0.54955][0.804,0.5649,-0.1855][0.2037,0.8013,0][0.5748,0.172649,-0.50375][0.9797,0.1254,-0.1565][0.1974,0.7492,0][0.5748,0.172649,-0.50375][0.9797,0.1254,-0.1565][0.1974,0.7492,0][0.5672,0.37605,-0.29045][0.7839,0.5742,-0.2362][0.282,0.7835,0][0.6043,0.27505,-0.18705][0.9646,0.1805,-0.1924][0.2996,0.7363,0][0.456,0.20445,-0.92255][0.0358997,-0.9906,-0.1319][0.0775,0.1419,0][0.387,0.14835,-0.52035][0.0785997,-0.962,-0.2616][0.1807,0.1371,0][0.3055,0.21425,-1.00755][0.00189968,-0.9885,-0.1515][0.0608,0.1019,0][0.3055,0.21425,-1.00755][0.00189968,-0.9885,-0.1515][0.0608,0.1019,0][0.387,0.14835,-0.52035][0.0785997,-0.962,-0.2616][0.1807,0.1371,0][0,0.14225,-0.55385][-3.15675e-007,-0.9688,-0.2478][0.1842,0.0395,0][0,0.14225,-0.55385][-3.15675e-007,-0.9688,-0.2478][0.1842,0.0395,0][0,0.23425,-1.08545][-3.21084e-007,-0.9854,-0.1704][0.0499,0.0235,0][0.3055,0.21425,-1.00755][0.00189968,-0.9885,-0.1515][0.0608,0.1019,0][0.387,0.14835,-0.52035][0.0785997,-0.962,-0.2616][0.1807,0.1371,0][0.5001,0.0408497,-0.24875][0.4355,-0.8549,-0.2819][0.2514,0.1724,0][0.2432,0.0397496,-0.26685][0.0286997,-0.9246,-0.3798][0.2527,0.1081,0][0.2432,0.0397496,-0.26685][0.0286997,-0.9246,-0.3798][0.2527,0.1081,0][0,0.0491495,-0.30715][-3.03424e-007,-0.9312,-0.3645][0.2501,0.0466,0][0,0.14225,-0.55385][-3.15675e-007,-0.9688,-0.2478][0.1842,0.0395,0][0,0.14225,-0.55385][-3.15675e-007,-0.9688,-0.2478][0.1842,0.0395,0][0.387,0.14835,-0.52035][0.0785997,-0.962,-0.2616][0.1807,0.1371,0][0.2432,0.0397496,-0.26685][0.0286997,-0.9246,-0.3798][0.2527,0.1081,0][0.456,0.20445,-0.92255][0.0358997,-0.9906,-0.1319][0.0775,0.1419,0][0.5748,0.172649,-0.50375][0.2751,-0.9269,-0.2553][0.1781,0.1848,0][0.387,0.14835,-0.52035][0.0785997,-0.962,-0.2616][0.1807,0.1371,0][0.5748,0.172649,-0.50375][0.2751,-0.9269,-0.2553][0.1781,0.1848,0][0.5001,0.0408497,-0.24875][0.4355,-0.8549,-0.2819][0.2514,0.1724,0][0.387,0.14835,-0.52035][0.0785997,-0.962,-0.2616][0.1807,0.1371,0][0.5001,0.0408497,-0.24875][0.7161,-0.00830023,-0.698][0.2484,0.6358,0][0.6011,-0.0039506,-0.15475][0.8341,-0.0618003,-0.5481][0.2906,0.6243,0][0.6067,-0.245151,-0.11685][0.9201,-0.0738003,-0.3846][0.3,0.5454,0][0.6067,-0.245151,-0.11685][0.9201,-0.0738003,-0.3846][0.3,0.5454,0][0.4925,-0.35625,-0.28265][0.8883,-0.00970029,-0.4592][0.2384,0.5012,0][0.5001,0.0408497,-0.24875][0.7161,-0.00830023,-0.698][0.2484,0.6358,0][0.2335,-0.34585,-0.79125][0.0447003,0.9915,0.1221][0.4713,0.0872,0][0.2382,-0.38145,-0.50385][0.0767003,0.9943,-0.0745][0.3997,0.0996,0][0.3962,-0.40125,-0.58355][0.1124,0.9934,-0.024][0.425,0.1366,0][-1.21979e-007,-0.374351,-0.56005][3.25776e-007,0.9998,-0.0182][0.4046,0.0382,0][0.2382,-0.38145,-0.50385][0.0767003,0.9943,-0.0745][0.3997,0.0996,0][0.2335,-0.34585,-0.79125][0.0447003,0.9915,0.1221][0.4713,0.0872,0][0.2335,-0.34585,-0.79125][0.0447003,0.9915,0.1221][0.4713,0.0872,0][0,-0.33775,-0.86145][3.23398e-007,0.9925,0.1219][0.4798,0.0267,0][-1.21979e-007,-0.374351,-0.56005][3.25776e-007,0.9998,-0.0182][0.4046,0.0382,0][0.3962,-0.40125,-0.58355][0.1124,0.9934,-0.024][0.425,0.1366,0][0.2382,-0.38145,-0.50385][0.0767003,0.9943,-0.0745][0.3997,0.0996,0][0.2442,-0.33515,-0.29115][0.0798003,0.9746,-0.2094][0.3462,0.1083,0][0.2442,-0.33515,-0.29115][0.0798003,0.9746,-0.2094][0.3462,0.1083,0][0.4925,-0.35625,-0.28265][0.0691003,0.9792,-0.1908][0.3521,0.1703,0][0.3962,-0.40125,-0.58355][0.1124,0.9934,-0.024][0.425,0.1366,0][0.2382,-0.38145,-0.50385][0.0767003,0.9943,-0.0745][0.3997,0.0996,0][-1.21979e-007,-0.374351,-0.56005][3.25776e-007,0.9998,-0.0182][0.4046,0.0382,0][0,-0.328351,-0.32805][3.1965e-007,0.981,-0.1943][0.3456,0.0464,0][0,-0.328351,-0.32805][3.1965e-007,0.981,-0.1943][0.3456,0.0464,0][0.2442,-0.33515,-0.29115][0.0798003,0.9746,-0.2094][0.3462,0.1083,0][0.2382,-0.38145,-0.50385][0.0767003,0.9943,-0.0745][0.3997,0.0996,0][0.5001,0.0408497,-0.24875][0.0593,0.072,-0.9956][0.2514,0.1724,0][0.4925,-0.35625,-0.28265][0.0412,0.0843,-0.9956][0.3521,0.1703,0][0.2442,-0.33515,-0.29115][0.0997,0.071,-0.9925][0.3462,0.1083,0][0.2442,-0.33515,-0.29115][0.0997,0.071,-0.9925][0.3462,0.1083,0][0.2432,0.0397496,-0.26685][0.1155,0.0613,-0.9914][0.2527,0.1081,0][0.5001,0.0408497,-0.24875][0.0593,0.072,-0.9956][0.2514,0.1724,0][0.2432,0.0397496,-0.26685][0.1155,0.0613,-0.9914][0.2527,0.1081,0][0.2442,-0.33515,-0.29115][0.0997,0.071,-0.9925][0.3462,0.1083,0][0,-0.328351,-0.32805][0,0.0614,-0.9981][0.3456,0.0464,0][0,-0.328351,-0.32805][0,0.0614,-0.9981][0.3456,0.0464,0][0,0.0491495,-0.30715][0,0.0552,-0.9985][0.2501,0.0466,0][0.2432,0.0397496,-0.26685][0.1155,0.0613,-0.9914][0.2527,0.1081,0][0.6011,-0.0039506,-0.15475][0.8341,-0.0618003,-0.5481][0.2906,0.6243,0][0.5001,0.0408497,-0.24875][0.7161,-0.00830023,-0.698][0.2484,0.6358,0][0.6346,0.16905,-0.11345][0.9628,0.0270997,-0.269][0.3096,0.6876,0][0.6346,0.16905,-0.11345][0.9628,0.0270997,-0.269][0.3096,0.6876,0][0.5748,0.172649,-0.50375][0.9797,0.1254,-0.1565][0.1974,0.7492,0][0.6043,0.27505,-0.18705][0.9646,0.1805,-0.1924][0.2996,0.7363,0][0.5001,0.0408497,-0.24875][0.4355,-0.8549,-0.2819][0.2514,0.1724,0][0.5748,0.172649,-0.50375][0.2751,-0.9269,-0.2553][0.1781,0.1848,0][0.6346,0.16905,-0.11345][0.7456,-0.6554,-0.1202][0.2673,0.2277,0][0.5962,0.46825,-0.01885][0.8538,0.4664,-0.2314][0.3686,0.7783,0][0.6634,0.314549,0.03485][0.9754,0.1365,-0.1734][0.3688,0.7235,0][0.6043,0.27505,-0.18705][0.9646,0.1805,-0.1924][0.2996,0.7363,0][0.6346,0.16905,-0.11345][0.9628,0.0270997,-0.269][0.3096,0.6876,0][0.6043,0.27505,-0.18705][0.9646,0.1805,-0.1924][0.2996,0.7363,0][0.6634,0.314549,0.03485][0.9754,0.1365,-0.1734][0.3688,0.7235,0][0.613,0.53305,0.21935][0.8266,0.5453,-0.1394][0.4414,0.7783,0][0.6502,0.51425,0.46245][0.8761,0.4325,0.213][0.5048,0.7506,0][0.6947,0.33395,0.33385][0.9889,0.1467,0.0217][0.4575,0.7119,0][0.613,0.53305,0.21935][0.8266,0.5453,-0.1394][0.4414,0.7783,0][0.6947,0.33395,0.33385][0.9889,0.1467,0.0217][0.4575,0.7119,0][0.6634,0.314549,0.03485][0.9754,0.1365,-0.1734][0.3688,0.7235,0][0.6634,0.314549,0.03485][0.9754,0.1365,-0.1734][0.3688,0.7235,0][0.5962,0.46825,-0.01885][0.8538,0.4664,-0.2314][0.3686,0.7783,0][0.613,0.53305,0.21935][0.8266,0.5453,-0.1394][0.4414,0.7783,0][0.5839,0.28885,0.67365][0.7803,0.2108,0.5889][0.5656,0.6898,0][0.6947,0.33395,0.33385][0.9889,0.1467,0.0217][0.4575,0.7119,0][0.6502,0.51425,0.46245][0.8761,0.4325,0.213][0.5048,0.7506,0][0.5839,0.28885,0.67365][0.7803,0.2108,0.5889][0.5656,0.6898,0][0.6921,0.0533495,0.59615][0.9295,0.0471997,0.3657][0.5258,0.6277,0][0.6947,0.33395,0.33385][0.9889,0.1467,0.0217][0.4575,0.7119,0][0.6802,-0.18835,0.22305][0.9912,-0.0945003,-0.0928][0.4069,0.5654,0][0.6067,-0.245151,-0.11685][0.9201,-0.0738003,-0.3846][0.3,0.5454,0][0.6011,-0.0039506,-0.15475][0.8341,-0.0618003,-0.5481][0.2906,0.6243,0][0.6158,-0.39605,0.03725][0.9501,-0.2387,-0.2009][0.3509,0.5018,0][0.6067,-0.245151,-0.11685][0.9201,-0.0738003,-0.3846][0.3,0.5454,0][0.6802,-0.18835,0.22305][0.9912,-0.0945003,-0.0928][0.4069,0.5654,0][0.6011,-0.0039506,-0.15475][0.8341,-0.0618003,-0.5481][0.2906,0.6243,0][0.6346,0.16905,-0.11345][0.9628,0.0270997,-0.269][0.3096,0.6876,0][0.6802,-0.18835,0.22305][0.9912,-0.0945003,-0.0928][0.4069,0.5654,0][0.6346,0.16905,-0.11345][0.9628,0.0270997,-0.269][0.3096,0.6876,0][0.6634,0.314549,0.03485][0.9754,0.1365,-0.1734][0.3688,0.7235,0][0.6947,0.33395,0.33385][0.9889,0.1467,0.0217][0.4575,0.7119,0][0.6595,-0.32355,0.49985][0.9695,-0.1986,0.1436][0.4927,0.5237,0][0.6319,-0.453051,0.23515][0.9585,-0.2808,-0.0501][0.413,0.4869,0][0.6802,-0.18835,0.22305][0.9912,-0.0945003,-0.0928][0.4069,0.5654,0][0.6947,0.33395,0.33385][0.9889,0.1467,0.0217][0.4575,0.7119,0][0.6921,0.0533495,0.59615][0.9295,0.0471997,0.3657][0.5258,0.6277,0][0.6802,-0.18835,0.22305][0.9912,-0.0945003,-0.0928][0.4069,0.5654,0][0.6319,-0.453051,0.23515][0.9585,-0.2808,-0.0501][0.413,0.4869,0][0.6158,-0.39605,0.03725][0.9501,-0.2387,-0.2009][0.3509,0.5018,0][0.6802,-0.18835,0.22305][0.9912,-0.0945003,-0.0928][0.4069,0.5654,0][0.5468,0.32455,-0.54955][0.804,0.5649,-0.1855][0.2037,0.8013,0][0.3078,0.41315,-0.65135][0.2806,0.9267,-0.25][0.1879,0.8866,0][0.4974,0.40535,-0.30545][0.4983,0.7911,-0.3546][0.282,0.8125,0][1.81445e-007,0.556849,-0.42015][2.85404e-007,0.8759,-0.4825][0.275,0.984,0][0.2527,0.538549,-0.34075][0.3369,0.7884,-0.5147][0.292,0.9029,0][0.3078,0.41315,-0.65135][0.2806,0.9267,-0.25][0.1879,0.8866,0][0.3078,0.41315,-0.65135][0.2806,0.9267,-0.25][0.1879,0.8866,0][1.38564e-007,0.42525,-0.75975][3.10299e-007,0.9523,-0.305][0.1604,0.9839,0][1.81445e-007,0.556849,-0.42015][2.85404e-007,0.8759,-0.4825][0.275,0.984,0][0.5468,0.32455,-0.54955][0.804,0.5649,-0.1855][0.2037,0.8013,0][0.4974,0.40535,-0.30545][0.4983,0.7911,-0.3546][0.282,0.8125,0][0.5672,0.37605,-0.29045][0.7839,0.5742,-0.2362][0.282,0.7835,0][0.5748,0.172649,-0.50375][0.9797,0.1254,-0.1565][0.1974,0.7492,0][0.5468,0.32455,-0.54955][0.804,0.5649,-0.1855][0.2037,0.8013,0][0.5672,0.37605,-0.29045][0.7839,0.5742,-0.2362][0.282,0.7835,0][0.4213,-0.604751,0.19385][-0.000600325,-0.9959,0.0906][0.421,0.4027,0][0.5301,-0.67695,-0.18335][0.7241,-0.6897,-0.0033][0.2981,0.4079,0][0.5732,-0.60565,0.18795][0.6271,-0.7789,0.0004][0.4029,0.4428,0][0.6346,0.16905,-0.11345][0.9628,0.0270997,-0.269][0.3096,0.6876,0][0.6947,0.33395,0.33385][0.9889,0.1467,0.0217][0.4575,0.7119,0][0.6802,-0.18835,0.22305][0.9912,-0.0945003,-0.0928][0.4069,0.5654,0][0.6595,-0.32355,0.49985][0.9695,-0.1986,0.1436][0.4927,0.5237,0][0.6802,-0.18835,0.22305][0.9912,-0.0945003,-0.0928][0.4069,0.5654,0][0.6921,0.0533495,0.59615][0.9295,0.0471997,0.3657][0.5258,0.6277,0][0.5732,-0.60565,0.18795][0.6271,-0.7789,0.0004][0.4029,0.4428,0][0.5073,-0.60195,0.74655][0.6109,-0.5933,0.5242][0.5731,0.4506,0][0.4213,-0.604751,0.19385][-0.000600325,-0.9959,0.0906][0.421,0.4027,0][0.5962,0.46825,-0.01885][0.8538,0.4664,-0.2314][0.3686,0.7783,0][0.4974,0.40535,-0.30545][0.4983,0.7911,-0.3546][0.282,0.8125,0][0.4649,0.598549,-0.15225][0.59,0.7073,-0.3894][0.3494,0.8434,0][0.4974,0.40535,-0.30545][0.4983,0.7911,-0.3546][0.282,0.8125,0][0.3078,0.41315,-0.65135][0.2806,0.9267,-0.25][0.1879,0.8866,0][0.2527,0.538549,-0.34075][0.3369,0.7884,-0.5147][0.292,0.9029,0][-0.6039,-0.0681505,-0.43155][-0.9998,0.0204003,0][0.7282,0.2168,0][-0.5524,-0.297851,-0.44485][-0.9758,-0.2189,0][0.75,0.1263,0][-0.5524,-0.297851,-0.22805][-0.9758,-0.2189,0][0.6783,0.0875,0][-0.5524,-0.297851,-0.22805][-0.9758,-0.2189,0][0.6783,0.0875,0][-0.6039,-0.0681505,-0.21475][-0.9998,0.0189003,0][0.644,0.2233,0][-0.6039,-0.0681505,-0.43155][-0.9998,0.0204003,0][0.7282,0.2168,0][0,-0.0999503,-0.44735][0,0.0056,1][0.0896,0.5469,0][-0.5524,-0.297851,-0.22805][0.3658,0.00989988,0.9306][0.0329,0.6776,0][-0.2762,-0.37815,-0.34395][0.3828,-0.0372001,0.9231][0.0207,0.6081,0][-0.2762,-0.37815,-0.34395][0.3828,-0.0372001,0.9231][0.0207,0.6081,0][0,-0.301651,-0.45985][0,-0.0622,0.9981][0.0441,0.5418,0][0,-0.0999503,-0.44735][0,0.0056,1][0.0896,0.5469,0][-0.5524,-0.297851,-0.22805][0.3658,0.00989988,0.9306][0.0329,0.6776,0][0,-0.0999503,-0.44735][0,0.0056,1][0.0896,0.5469,0][-0.6039,-0.0681505,-0.21475][0.3712,0.00499988,0.9285][0.0838,0.6942,0][-0.2762,-0.37815,-0.56075][0.0626997,-0.998,0][0.8677,0.0872,0][0,-0.301651,-0.67665][-3.25841e-007,-1,0][0.9898,0.0987,0][0,-0.301651,-0.45985][-3.25841e-007,-1,0][0.9898,0.0194,0][0,-0.301651,-0.45985][-3.25841e-007,-1,0][0.9898,0.0194,0][-0.2762,-0.37815,-0.34395][-0.0757003,-0.9971,0][0.8258,0.0126,0][-0.2762,-0.37815,-0.56075][0.0626997,-0.998,0][0.8677,0.0872,0][0,0.16365,-0.45985][3.25841e-007,1,0][0.9898,0.3989,0][0,0.16365,-0.67665][3.25841e-007,1,0][0.9898,0.3306,0][-0.5524,0.12555,-0.44485][-0.0688997,0.9976,0][0.7534,0.2901,0][-0.5524,0.12555,-0.44485][-0.0688997,0.9976,0][0.7534,0.2901,0][-0.5524,0.12555,-0.22805][-0.0688997,0.9976,0][0.6933,0.3404,0][0,0.16365,-0.45985][3.25841e-007,1,0][0.9898,0.3989,0][0,-0.23345,-0.62905][0,-0.0916,-0.9958][0.9898,0.1499,0][-0.2571,-0.304451,-0.52645][-0.3884,-0.0423999,-0.9205][0.8714,0.123,0][0,-0.0357504,-0.64725][0,0.0114,-0.9999][0.9898,0.2327,0][-0.6039,-0.0681505,-0.43155][-0.9998,0.0204003,0][0.7282,0.2168,0][-0.6039,-0.0681505,-0.21475][-0.9998,0.0189003,0][0.644,0.2233,0][-0.5524,0.12555,-0.22805][-0.9664,0.2571,0][0.6933,0.3404,0][-0.5524,0.12555,-0.22805][-0.9664,0.2571,0][0.6933,0.3404,0][-0.5524,0.12555,-0.44485][-0.9664,0.2571,0][0.7534,0.2901,0][-0.6039,-0.0681505,-0.43155][-0.9998,0.0204003,0][0.7282,0.2168,0][0,-0.0999503,-0.44735][0,0.0056,1][0.0896,0.5469,0][0,0.16365,-0.45985][0,0.0308,0.9995][0.1494,0.5512,0][-0.5524,0.12555,-0.22805][0.389,-0.0401001,0.9204][0.1286,0.6861,0][-0.5524,0.12555,-0.22805][0.389,-0.0401001,0.9204][0.1286,0.6861,0][-0.6039,-0.0681505,-0.21475][0.3712,0.00499988,0.9285][0.0838,0.6942,0][0,-0.0999503,-0.44735][0,0.0056,1][0.0896,0.5469,0][0,-0.0357504,-0.64725][0,0.0114,-0.9999][0.9898,0.2327,0][-0.5109,-0.0721502,-0.42595][-0.3974,-0.00189987,-0.9176][0.7615,0.214,0][-0.4763,0.0586495,-0.43525][-0.3986,0.0461001,-0.916][0.7753,0.2645,0][-0.4763,0.0586495,-0.43525][-0.3986,0.0461001,-0.916][0.7753,0.2645,0][0,0.0915494,-0.63565][0,0.0909,-0.9959][0.9898,0.2862,0][0,-0.0357504,-0.64725][0,0.0114,-0.9999][0.9898,0.2327,0][-0.5524,-0.297851,-0.44485][-0.2794,-0.9602,0][0.75,0.1263,0][-0.2762,-0.37815,-0.56075][0.0626997,-0.998,0][0.8677,0.0872,0][-0.2762,-0.37815,-0.34395][-0.0757003,-0.9971,0][0.8258,0.0126,0][-0.2762,-0.37815,-0.34395][-0.0757003,-0.9971,0][0.8258,0.0126,0][-0.5524,-0.297851,-0.22805][-0.2794,-0.9602,0][0.6783,0.0875,0][-0.5524,-0.297851,-0.44485][-0.2794,-0.9602,0][0.75,0.1263,0][-0.4726,-0.24155,-0.43515][-0.3957,-0.0368999,-0.9176][0.7764,0.1477,0][-0.5109,-0.0721502,-0.42595][-0.3974,-0.00189987,-0.9176][0.7615,0.214,0][0,-0.0357504,-0.64725][0,0.0114,-0.9999][0.9898,0.2327,0][-0.2571,-0.304451,-0.52645][-0.3884,-0.0423999,-0.9205][0.8714,0.123,0][-0.4726,-0.24155,-0.43515][-0.3957,-0.0368999,-0.9176][0.7764,0.1477,0][0,-0.0357504,-0.64725][0,0.0114,-0.9999][0.9898,0.2327,0][-0.5092,-0.251851,-0.46535][-0.3986,-0.0432999,-0.9161][0.7642,0.1396,0][-0.277,-0.319551,-0.56365][-0.3986,-0.0432999,-0.9161][0.8684,0.1077,0][-0.2762,-0.37815,-0.56075][-0.3986,-0.0432999,-0.9161][0.8677,0.0872,0][-0.2762,-0.37815,-0.56075][-0.3986,-0.0432999,-0.9161][0.8677,0.0872,0][-0.5524,-0.297851,-0.44485][-0.3986,-0.0432999,-0.9161][0.75,0.1263,0][-0.5092,-0.251851,-0.46535][-0.3986,-0.0432999,-0.9161][0.7642,0.1396,0][-0.5092,-0.251851,-0.46535][-0.4019,-0.0387999,-0.9148][0.7642,0.1396,0][-0.5524,-0.297851,-0.44485][-0.4019,-0.0387999,-0.9148][0.75,0.1263,0][-0.6039,-0.0681505,-0.43155][-0.4019,-0.0387999,-0.9148][0.7282,0.2168,0][-0.6039,-0.0681505,-0.43155][-0.4019,-0.0387999,-0.9148][0.7282,0.2168,0][-0.5505,-0.0692506,-0.45535][-0.4019,-0.0387999,-0.9148][0.7463,0.2157,0][-0.5092,-0.251851,-0.46535][-0.4019,-0.0387999,-0.9148][0.7642,0.1396,0][-0.5131,0.0715494,-0.46545][-0.41,0.0452001,-0.911][0.7634,0.2739,0][-0.5505,-0.0692506,-0.45535][-0.41,0.0452001,-0.911][0.7463,0.2157,0][-0.6039,-0.0681505,-0.43155][-0.41,0.0452001,-0.911][0.7282,0.2168,0][-0.6039,-0.0681505,-0.43155][-0.41,0.0452001,-0.911][0.7282,0.2168,0][-0.5524,0.12555,-0.44485][-0.41,0.0452001,-0.911][0.7534,0.2901,0][-0.5131,0.0715494,-0.46545][-0.41,0.0452001,-0.911][0.7634,0.2739,0][-0.5131,0.0715494,-0.46545][-0.3906,0.0708001,-0.9179][0.7634,0.2739,0][-0.5524,0.12555,-0.44485][-0.3906,0.0708001,-0.9179][0.7534,0.2901,0][0,0.16365,-0.67665][-0.3906,0.0708001,-0.9179][0.9898,0.3306,0][0,0.16365,-0.67665][-0.3906,0.0708001,-0.9179][0.9898,0.3306,0][0,0.107049,-0.68135][-0.3906,0.0708001,-0.9179][0.9898,0.3068,0][-0.5131,0.0715494,-0.46545][-0.3906,0.0708001,-0.9179][0.7634,0.2739,0][-0.277,-0.319551,-0.56365][-0.3774,-0.00649988,-0.926][0.8684,0.1077,0][0,-0.243051,-0.67425][-0.3774,-0.00649988,-0.926][0.9898,0.1276,0][0,-0.301651,-0.67665][-0.3774,-0.00649988,-0.926][0.9898,0.0987,0][0,-0.301651,-0.67665][-0.3774,-0.00649988,-0.926][0.9898,0.0987,0][-0.2762,-0.37815,-0.56075][-0.3774,-0.00649988,-0.926][0.8677,0.0872,0][-0.277,-0.319551,-0.56365][-0.3774,-0.00649988,-0.926][0.8684,0.1077,0][-0.4726,-0.24155,-0.43515][0.0880003,0.9053,-0.4155][0.7764,0.1477,0][-0.2571,-0.304451,-0.52645][0.0880003,0.9053,-0.4155][0.8714,0.123,0][-0.277,-0.319551,-0.56365][0.0880003,0.9053,-0.4155][0.8684,0.1077,0][-0.277,-0.319551,-0.56365][0.0880003,0.9053,-0.4155][0.8684,0.1077,0][-0.5092,-0.251851,-0.46535][0.0880003,0.9053,-0.4155][0.7642,0.1396,0][-0.4726,-0.24155,-0.43515][0.0880003,0.9053,-0.4155][0.7764,0.1477,0][-0.5109,-0.0721502,-0.42595][0.5959,0.1773,-0.7832][0.7615,0.214,0][-0.4726,-0.24155,-0.43515][0.5959,0.1773,-0.7832][0.7764,0.1477,0][-0.5092,-0.251851,-0.46535][0.5959,0.1773,-0.7832][0.7642,0.1396,0][-0.5092,-0.251851,-0.46535][0.5959,0.1773,-0.7832][0.7642,0.1396,0][-0.5505,-0.0692506,-0.45535][0.5959,0.1773,-0.7832][0.7463,0.2157,0][-0.5109,-0.0721502,-0.42595][0.5959,0.1773,-0.7832][0.7615,0.214,0][-0.5109,-0.0721502,-0.42595][0.5744,-0.2086,-0.7915][0.7615,0.214,0][-0.5505,-0.0692506,-0.45535][0.5744,-0.2086,-0.7915][0.7463,0.2157,0][-0.5131,0.0715494,-0.46545][0.5744,-0.2086,-0.7915][0.7634,0.2739,0][-0.5131,0.0715494,-0.46545][0.5744,-0.2086,-0.7915][0.7634,0.2739,0][-0.4763,0.0586495,-0.43525][0.5744,-0.2086,-0.7915][0.7753,0.2645,0][-0.5109,-0.0721502,-0.42595][0.5744,-0.2086,-0.7915][0.7615,0.214,0][-0.4763,0.0586495,-0.43525][-0.0696003,-0.9447,-0.3206][0.7753,0.2645,0][-0.5131,0.0715494,-0.46545][-0.0696003,-0.9447,-0.3206][0.7634,0.2739,0][0,0.107049,-0.68135][-0.0696003,-0.9447,-0.3206][0.9898,0.3068,0][0,0.107049,-0.68135][-0.0696003,-0.9447,-0.3206][0.9898,0.3068,0][0,0.0915494,-0.63565][-0.0696003,-0.9447,-0.3206][0.9898,0.2862,0][-0.4763,0.0586495,-0.43525][-0.0696003,-0.9447,-0.3206][0.7753,0.2645,0][0,-0.23345,-0.62905][-0.3333,0.922,-0.197][0.9898,0.1499,0][0,-0.243051,-0.67425][-0.3333,0.922,-0.197][0.9898,0.1276,0][-0.277,-0.319551,-0.56365][-0.3333,0.922,-0.197][0.8684,0.1077,0][-0.277,-0.319551,-0.56365][-0.3333,0.922,-0.197][0.8684,0.1077,0][-0.2571,-0.304451,-0.52645][-0.3333,0.922,-0.197][0.8714,0.123,0][0,-0.23345,-0.62905][-0.3333,0.922,-0.197][0.9898,0.1499,0][-0.5584,-0.28335,-0.30365][-0.8879,-0.0572997,-0.4565][0.8841,0.9863,0][-0.6451,-0.28225,-0.13525][-0.9476,-0.0189997,-0.3189][0.877,0.9284,0][-0.6451,0.0575495,-0.13525][-0.9583,-0.00509969,-0.2857][0.9809,0.9149,0][-0.6451,0.0575495,-0.13525][-0.9583,-0.00509969,-0.2857][0.9809,0.9149,0][-0.5584,0.0586495,-0.34665][-0.9141,-0.0187997,-0.4051][0.9903,0.9847,0][-0.5584,-0.28335,-0.30365][-0.8879,-0.0572997,-0.4565][0.8841,0.9863,0][-0.5584,-0.149651,0.83775][-0.5647,0.1028,0.8189][0.8781,0.6079,0][-0.3019,-0.12775,1.01195][-0.4081,0.1138,0.9058][0.8775,0.5121,0][-0.3019,0.214149,0.96895][-0.4081,0.1138,0.9058][0.9837,0.5114,0][-0.3019,0.214149,0.96895][-0.4081,0.1138,0.9058][0.9837,0.5114,0][-0.5584,0.192349,0.79485][-0.5647,0.1028,0.8189][0.9843,0.6072,0][-0.5584,-0.149651,0.83775][-0.5647,0.1028,0.8189][0.8781,0.6079,0][0,0.13225,0.31665][3.22485e-007,0.9897,-0.143][0.151,0.6148,0][0,0.0575495,-0.13525][3.24831e-007,0.9969,-0.0793][0.1441,0.701,0][-0.6451,0.0575495,-0.13525][3.2431e-007,0.9953,-0.0964][0.0226,0.6914,0][-0.6451,0.0575495,-0.13525][3.2431e-007,0.9953,-0.0964][0.0226,0.6914,0][-0.7424,0.13225,0.31665][3.22811e-007,0.9907,-0.1362][0.0111,0.6037,0][0,0.13225,0.31665][3.22485e-007,0.9897,-0.143][0.151,0.6148,0][-0.6451,0.0575495,-0.13525][-0.9583,-0.00509969,-0.2857][0.9809,0.9149,0][-0.6451,-0.28225,-0.13525][-0.9476,-0.0189997,-0.3189][0.877,0.9284,0][-0.7424,-0.20965,0.35955][-0.9995,0.000900326,-0.0317][0.8792,0.7714,0][-0.7424,-0.20965,0.35955][-0.9995,0.000900326,-0.0317][0.8792,0.7714,0][-0.7424,0.13225,0.31665][-0.9995,-0.00409967,-0.0327][0.9854,0.7707,0][-0.6451,0.0575495,-0.13525][-0.9583,-0.00509969,-0.2857][0.9809,0.9149,0][-0.7424,0.13225,0.31665][3.22811e-007,0.9907,-0.1362][0.0111,0.6037,0][-0.7039,0.16225,0.58705][-0.000999677,0.9926,-0.1214][0.0225,0.553,0][0,0.13225,0.31665][3.22485e-007,0.9897,-0.143][0.151,0.6148,0][-0.7424,-0.20965,0.35955][-0.9995,0.000900326,-0.0317][0.8792,0.7714,0][-0.7039,-0.17965,0.63005][-0.9311,0.0455003,0.3619][0.8774,0.6867,0][-0.7039,0.16225,0.58705][-0.931,0.0455003,0.3621][0.9837,0.686,0][-0.7039,0.16225,0.58705][-0.931,0.0455003,0.3621][0.9837,0.686,0][-0.7424,0.13225,0.31665][-0.9995,-0.00409967,-0.0327][0.9854,0.7707,0][-0.7424,-0.20965,0.35955][-0.9995,0.000900326,-0.0317][0.8792,0.7714,0][-0.7039,0.16225,0.58705][-0.931,0.0455003,0.3621][0.9837,0.686,0][-0.7039,-0.17965,0.63005][-0.9311,0.0455003,0.3619][0.8774,0.6867,0][-0.5584,-0.149651,0.83775][-0.8219,0.0710003,0.5652][0.8781,0.6079,0][-0.5584,-0.149651,0.83775][-0.8219,0.0710003,0.5652][0.8781,0.6079,0][-0.5584,0.192349,0.79485][-0.8219,0.0710003,0.5652][0.9843,0.6072,0][-0.7039,0.16225,0.58705][-0.931,0.0455003,0.3621][0.9837,0.686,0][-0.3019,-0.12775,1.01195][-0.4081,0.1138,0.9058][0.8775,0.5121,0][0,-0.11855,1.08545][0,0.1246,0.9922][0.8768,0.4163,0][0,0.22345,1.04245][0,0.1246,0.9922][0.9831,0.4156,0][0,0.22345,1.04245][0,0.1246,0.9922][0.9831,0.4156,0][-0.3019,0.214149,0.96895][-0.4081,0.1138,0.9058][0.9837,0.5114,0][-0.3019,-0.12775,1.01195][-0.4081,0.1138,0.9058][0.8775,0.5121,0][-0.5584,-0.28335,-0.30365][-3.25841e-007,-1,0.0065][0.0403,0.4861,0][0,-0.28335,-0.30365][-3.25841e-007,-1,0.0065][0.1457,0.4817,0][0,-0.28225,-0.13525][-3.24896e-007,-0.9971,0.076][0.147,0.5135,0][0,-0.28225,-0.13525][-3.24896e-007,-0.9971,0.076][0.147,0.5135,0][-0.6451,-0.28225,-0.13525][-3.2444e-007,-0.9957,0.0922][0.0252,0.5185,0][-0.5584,-0.28335,-0.30365][-3.25841e-007,-1,0.0065][0.0403,0.4861,0][0,0.0575495,-0.13525][3.24831e-007,0.9969,-0.0793][0.1441,0.701,0][0,0.0586495,-0.34665][3.25841e-007,1,0.0052][0.141,0.7408,0][-0.5584,0.0586495,-0.34665][3.25841e-007,1,0.0052][0.0358,0.7325,0][-0.5584,0.0586495,-0.34665][3.25841e-007,1,0.0052][0.0358,0.7325,0][-0.6451,0.0575495,-0.13525][3.2431e-007,0.9953,-0.0964][0.0226,0.6914,0][0,0.0575495,-0.13525][3.24831e-007,0.9969,-0.0793][0.1441,0.701,0][-0.6451,-0.28225,-0.13525][-3.2444e-007,-0.9957,0.0922][0.0252,0.5185,0][0,-0.28225,-0.13525][-3.24896e-007,-0.9971,0.076][0.147,0.5135,0][0,-0.209651,0.35955][-3.22941e-007,-0.9911,0.1332][0.1509,0.608,0][0,-0.209651,0.35955][-3.22941e-007,-0.9911,0.1332][0.1509,0.608,0][-0.7424,-0.20965,0.35955][-3.2317e-007,-0.9918,0.1274][0.0107,0.6137,0][-0.6451,-0.28225,-0.13525][-3.2444e-007,-0.9957,0.0922][0.0252,0.5185,0][-0.3019,-0.12775,1.01195][-0.00460032,-0.9902,0.1394][0.0989,0.7344,0][-0.5584,-0.149651,0.83775][-0.0242003,-0.9869,0.1596][0.0492,0.7033,0][-0.7039,-0.17965,0.63005][-0.000100323,-0.9926,0.121][0.0201,0.6648,0][0,-0.11855,1.08545][-3.2317e-007,-0.9918,0.128][0.1565,0.7461,0][-0.3019,-0.12775,1.01195][-0.00460032,-0.9902,0.1394][0.0989,0.7344,0][-0.7039,-0.17965,0.63005][-0.000100323,-0.9926,0.121][0.0201,0.6648,0][-0.7039,0.16225,0.58705][-0.000999677,0.9926,-0.1214][0.0225,0.553,0][-0.3019,0.214149,0.96895][-0.00159968,0.9918,-0.1281][0.1039,0.4864,0][0,0.13225,0.31665][3.22485e-007,0.9897,-0.143][0.151,0.6148,0][-0.7039,-0.17965,0.63005][-0.000100323,-0.9926,0.121][0.0201,0.6648,0][-0.7424,-0.20965,0.35955][-3.2317e-007,-0.9918,0.1274][0.0107,0.6137,0][0,-0.209651,0.35955][-3.22941e-007,-0.9911,0.1332][0.1509,0.608,0][-0.7039,0.16225,0.58705][-0.000999677,0.9926,-0.1214][0.0225,0.553,0][-0.5584,0.192349,0.79485][0.0242003,0.9869,-0.1596][0.053,0.5156,0][-0.3019,0.214149,0.96895][-0.00159968,0.9918,-0.1281][0.1039,0.4864,0][-0.3019,0.214149,0.96895][-0.00159968,0.9918,-0.1281][0.1039,0.4864,0][0,0.22345,1.04245][3.233e-007,0.9922,-0.1246][0.1619,0.477,0][0,0.13225,0.31665][3.22485e-007,0.9897,-0.143][0.151,0.6148,0][0,-0.11855,1.08545][-3.2317e-007,-0.9918,0.128][0.1565,0.7461,0][-0.7039,-0.17965,0.63005][-0.000100323,-0.9926,0.121][0.0201,0.6648,0][0,-0.209651,0.35955][-3.22941e-007,-0.9911,0.1332][0.1509,0.608,0][0.6039,-0.0681505,-0.43155][0.9998,0.0203997,0][0.7282,0.2168,0][0.6039,-0.0681505,-0.21475][0.9998,0.0188997,0][0.644,0.2233,0][0.5524,-0.297851,-0.22805][0.9758,-0.2189,0][0.6783,0.0875,0][0.5524,-0.297851,-0.22805][0.9758,-0.2189,0][0.6783,0.0875,0][0.5524,-0.297851,-0.44485][0.9758,-0.2189,0][0.75,0.1263,0][0.6039,-0.0681505,-0.43155][0.9998,0.0203997,0][0.7282,0.2168,0][0.2762,-0.37815,-0.34395][-0.3828,-0.0371999,0.9231][0.0207,0.6081,0][0.5524,-0.297851,-0.22805][-0.3658,0.00990012,0.9306][0.0329,0.6776,0][0.6039,-0.0681505,-0.21475][-0.3712,0.00500012,0.9285][0.0838,0.6942,0][0.6039,-0.0681505,-0.21475][-0.3712,0.00500012,0.9285][0.0838,0.6942,0][0,-0.0999503,-0.44735][0,0.0056,1][0.0896,0.5469,0][0.2762,-0.37815,-0.34395][-0.3828,-0.0371999,0.9231][0.0207,0.6081,0][0,-0.0999503,-0.44735][0,0.0056,1][0.0896,0.5469,0][0,-0.301651,-0.45985][0,-0.0622,0.9981][0.0441,0.5418,0][0.2762,-0.37815,-0.34395][-0.3828,-0.0371999,0.9231][0.0207,0.6081,0][0.2762,-0.37815,-0.56075][-0.0627003,-0.998,0][0.8677,0.0872,0][0.2762,-0.37815,-0.34395][0.0756997,-0.9971,0][0.8258,0.0126,0][0,-0.301651,-0.45985][-3.25841e-007,-1,0][0.9898,0.0194,0][0,-0.301651,-0.45985][-3.25841e-007,-1,0][0.9898,0.0194,0][0,-0.301651,-0.67665][-3.25841e-007,-1,0][0.9898,0.0987,0][0.2762,-0.37815,-0.56075][-0.0627003,-0.998,0][0.8677,0.0872,0][0,0.16365,-0.45985][3.25841e-007,1,0][0.9898,0.3989,0][0.5524,0.12555,-0.22805][0.0689003,0.9976,0][0.6933,0.3404,0][0.5524,0.12555,-0.44485][0.0689003,0.9976,0][0.7534,0.2901,0][0.5524,0.12555,-0.44485][0.0689003,0.9976,0][0.7534,0.2901,0][0,0.16365,-0.67665][3.25841e-007,1,0][0.9898,0.3306,0][0,0.16365,-0.45985][3.25841e-007,1,0][0.9898,0.3989,0][0,-0.23345,-0.62905][0,-0.0916,-0.9958][0.9898,0.1499,0][0,-0.0357504,-0.64725][0,0.0114,-0.9999][0.9898,0.2327,0][0.2571,-0.304451,-0.52645][0.3884,-0.0424001,-0.9205][0.8714,0.123,0][0.6039,-0.0681505,-0.43155][0.9998,0.0203997,0][0.7282,0.2168,0][0.5524,0.12555,-0.44485][0.9664,0.2571,0][0.7534,0.2901,0][0.5524,0.12555,-0.22805][0.9664,0.2571,0][0.6933,0.3404,0][0.5524,0.12555,-0.22805][0.9664,0.2571,0][0.6933,0.3404,0][0.6039,-0.0681505,-0.21475][0.9998,0.0188997,0][0.644,0.2233,0][0.6039,-0.0681505,-0.43155][0.9998,0.0203997,0][0.7282,0.2168,0][0.5524,0.12555,-0.22805][-0.389,-0.0400999,0.9204][0.1286,0.6861,0][0,0.16365,-0.45985][0,0.0308,0.9995][0.1494,0.5512,0][0,-0.0999503,-0.44735][0,0.0056,1][0.0896,0.5469,0][0,-0.0999503,-0.44735][0,0.0056,1][0.0896,0.5469,0][0.6039,-0.0681505,-0.21475][-0.3712,0.00500012,0.9285][0.0838,0.6942,0][0.5524,0.12555,-0.22805][-0.389,-0.0400999,0.9204][0.1286,0.6861,0][0,-0.0357504,-0.64725][0,0.0114,-0.9999][0.9898,0.2327,0][0,0.0915494,-0.63565][0,0.0909,-0.9959][0.9898,0.2862,0][0.4763,0.0586495,-0.43525][0.3986,0.0460999,-0.916][0.7753,0.2645,0][0.4763,0.0586495,-0.43525][0.3986,0.0460999,-0.916][0.7753,0.2645,0][0.5109,-0.0721502,-0.42595][0.3974,-0.00190013,-0.9176][0.7615,0.214,0][0,-0.0357504,-0.64725][0,0.0114,-0.9999][0.9898,0.2327,0][0.5524,-0.297851,-0.44485][0.2794,-0.9602,0][0.75,0.1263,0][0.5524,-0.297851,-0.22805][0.2794,-0.9602,0][0.6783,0.0875,0][0.2762,-0.37815,-0.34395][0.0756997,-0.9971,0][0.8258,0.0126,0][0.2762,-0.37815,-0.34395][0.0756997,-0.9971,0][0.8258,0.0126,0][0.2762,-0.37815,-0.56075][-0.0627003,-0.998,0][0.8677,0.0872,0][0.5524,-0.297851,-0.44485][0.2794,-0.9602,0][0.75,0.1263,0][0.4726,-0.24155,-0.43515][0.3957,-0.0369001,-0.9176][0.7764,0.1477,0][0,-0.0357504,-0.64725][0,0.0114,-0.9999][0.9898,0.2327,0][0.5109,-0.0721502,-0.42595][0.3974,-0.00190013,-0.9176][0.7615,0.214,0][0.2571,-0.304451,-0.52645][0.3884,-0.0424001,-0.9205][0.8714,0.123,0][0,-0.0357504,-0.64725][0,0.0114,-0.9999][0.9898,0.2327,0][0.4726,-0.24155,-0.43515][0.3957,-0.0369001,-0.9176][0.7764,0.1477,0][0.5092,-0.251851,-0.46535][0.3986,-0.0433001,-0.9161][0.7642,0.1396,0][0.5524,-0.297851,-0.44485][0.3986,-0.0433001,-0.9161][0.75,0.1263,0][0.2762,-0.37815,-0.56075][0.3986,-0.0433001,-0.9161][0.8677,0.0872,0][0.2762,-0.37815,-0.56075][0.3986,-0.0433001,-0.9161][0.8677,0.0872,0][0.277,-0.319551,-0.56365][0.3986,-0.0433001,-0.9161][0.8684,0.1077,0][0.5092,-0.251851,-0.46535][0.3986,-0.0433001,-0.9161][0.7642,0.1396,0][0.6039,-0.0681505,-0.43155][0.4019,-0.0388001,-0.9148][0.7282,0.2168,0][0.5524,-0.297851,-0.44485][0.4019,-0.0388001,-0.9148][0.75,0.1263,0][0.5092,-0.251851,-0.46535][0.4019,-0.0388001,-0.9148][0.7642,0.1396,0][0.5092,-0.251851,-0.46535][0.4019,-0.0388001,-0.9148][0.7642,0.1396,0][0.5505,-0.0692506,-0.45535][0.4019,-0.0388001,-0.9148][0.7463,0.2157,0][0.6039,-0.0681505,-0.43155][0.4019,-0.0388001,-0.9148][0.7282,0.2168,0][0.5131,0.0715494,-0.46545][0.41,0.0451999,-0.911][0.7634,0.2739,0][0.5524,0.12555,-0.44485][0.41,0.0451999,-0.911][0.7534,0.2901,0][0.6039,-0.0681505,-0.43155][0.41,0.0451999,-0.911][0.7282,0.2168,0][0.6039,-0.0681505,-0.43155][0.41,0.0451999,-0.911][0.7282,0.2168,0][0.5505,-0.0692506,-0.45535][0.41,0.0451999,-0.911][0.7463,0.2157,0][0.5131,0.0715494,-0.46545][0.41,0.0451999,-0.911][0.7634,0.2739,0][0,0.16365,-0.67665][0.3906,0.0707999,-0.9179][0.9898,0.3306,0][0.5524,0.12555,-0.44485][0.3906,0.0707999,-0.9179][0.7534,0.2901,0][0.5131,0.0715494,-0.46545][0.3906,0.0707999,-0.9179][0.7634,0.2739,0][0.5131,0.0715494,-0.46545][0.3906,0.0707999,-0.9179][0.7634,0.2739,0][0,0.107049,-0.68135][0.3906,0.0707999,-0.9179][0.9898,0.3068,0][0,0.16365,-0.67665][0.3906,0.0707999,-0.9179][0.9898,0.3306,0][0.277,-0.319551,-0.56365][0.3774,-0.00650012,-0.926][0.8684,0.1077,0][0.2762,-0.37815,-0.56075][0.3774,-0.00650012,-0.926][0.8677,0.0872,0][0,-0.301651,-0.67665][0.3774,-0.00650012,-0.926][0.9898,0.0987,0][0,-0.301651,-0.67665][0.3774,-0.00650012,-0.926][0.9898,0.0987,0][0,-0.243051,-0.67425][0.3774,-0.00650012,-0.926][0.9898,0.1276,0][0.277,-0.319551,-0.56365][0.3774,-0.00650012,-0.926][0.8684,0.1077,0][0.4726,-0.24155,-0.43515][-0.0879997,0.9053,-0.4155][0.7764,0.1477,0][0.5092,-0.251851,-0.46535][-0.0879997,0.9053,-0.4155][0.7642,0.1396,0][0.277,-0.319551,-0.56365][-0.0879997,0.9053,-0.4155][0.8684,0.1077,0][0.277,-0.319551,-0.56365][-0.0879997,0.9053,-0.4155][0.8684,0.1077,0][0.2571,-0.304451,-0.52645][-0.0879997,0.9053,-0.4155][0.8714,0.123,0][0.4726,-0.24155,-0.43515][-0.0879997,0.9053,-0.4155][0.7764,0.1477,0][0.5109,-0.0721502,-0.42595][-0.5959,0.1773,-0.7832][0.7615,0.214,0][0.5505,-0.0692506,-0.45535][-0.5959,0.1773,-0.7832][0.7463,0.2157,0][0.5092,-0.251851,-0.46535][-0.5959,0.1773,-0.7832][0.7642,0.1396,0][0.5092,-0.251851,-0.46535][-0.5959,0.1773,-0.7832][0.7642,0.1396,0][0.4726,-0.24155,-0.43515][-0.5959,0.1773,-0.7832][0.7764,0.1477,0][0.5109,-0.0721502,-0.42595][-0.5959,0.1773,-0.7832][0.7615,0.214,0][0.5131,0.0715494,-0.46545][-0.5744,-0.2086,-0.7915][0.7634,0.2739,0][0.5505,-0.0692506,-0.45535][-0.5744,-0.2086,-0.7915][0.7463,0.2157,0][0.5109,-0.0721502,-0.42595][-0.5744,-0.2086,-0.7915][0.7615,0.214,0][0.5109,-0.0721502,-0.42595][-0.5744,-0.2086,-0.7915][0.7615,0.214,0][0.4763,0.0586495,-0.43525][-0.5744,-0.2086,-0.7915][0.7753,0.2645,0][0.5131,0.0715494,-0.46545][-0.5744,-0.2086,-0.7915][0.7634,0.2739,0][0,0.107049,-0.68135][0.0695997,-0.9447,-0.3206][0.9898,0.3068,0][0.5131,0.0715494,-0.46545][0.0695997,-0.9447,-0.3206][0.7634,0.2739,0][0.4763,0.0586495,-0.43525][0.0695997,-0.9447,-0.3206][0.7753,0.2645,0][0.4763,0.0586495,-0.43525][0.0695997,-0.9447,-0.3206][0.7753,0.2645,0][0,0.0915494,-0.63565][0.0695997,-0.9447,-0.3206][0.9898,0.2862,0][0,0.107049,-0.68135][0.0695997,-0.9447,-0.3206][0.9898,0.3068,0][0.277,-0.319551,-0.56365][0.3333,0.922,-0.197][0.8684,0.1077,0][0,-0.243051,-0.67425][0.3333,0.922,-0.197][0.9898,0.1276,0][0,-0.23345,-0.62905][0.3333,0.922,-0.197][0.9898,0.1499,0][0,-0.23345,-0.62905][0.3333,0.922,-0.197][0.9898,0.1499,0][0.2571,-0.304451,-0.52645][0.3333,0.922,-0.197][0.8714,0.123,0][0.277,-0.319551,-0.56365][0.3333,0.922,-0.197][0.8684,0.1077,0][0.6451,0.0575495,-0.13525][0.9583,-0.00510031,-0.2857][0.9809,0.9149,0][0.6451,-0.28225,-0.13525][0.9476,-0.0190003,-0.3189][0.877,0.9284,0][0.5584,-0.28335,-0.30365][0.8879,-0.0573003,-0.4565][0.8841,0.9863,0][0.5584,-0.28335,-0.30365][0.8879,-0.0573003,-0.4565][0.8841,0.9863,0][0.5584,0.0586495,-0.34665][0.9141,-0.0188003,-0.4051][0.9903,0.9847,0][0.6451,0.0575495,-0.13525][0.9583,-0.00510031,-0.2857][0.9809,0.9149,0][0.3019,0.214149,0.96895][0.4081,0.1138,0.9058][0.9837,0.5114,0][0.3019,-0.12775,1.01195][0.4081,0.1138,0.9058][0.8775,0.5121,0][0.5584,-0.149651,0.83775][0.5647,0.1028,0.8189][0.8781,0.6079,0][0.5584,-0.149651,0.83775][0.5647,0.1028,0.8189][0.8781,0.6079,0][0.5584,0.192349,0.79485][0.5647,0.1028,0.8189][0.9843,0.6072,0][0.3019,0.214149,0.96895][0.4081,0.1138,0.9058][0.9837,0.5114,0][0,0.13225,0.31665][3.22485e-007,0.9897,-0.143][0.151,0.6148,0][0.7424,0.13225,0.31665][3.22811e-007,0.9907,-0.1362][0.0111,0.6037,0][0.6451,0.0575495,-0.13525][3.2431e-007,0.9953,-0.0964][0.0226,0.6914,0][0.6451,0.0575495,-0.13525][3.2431e-007,0.9953,-0.0964][0.0226,0.6914,0][0,0.0575495,-0.13525][3.24831e-007,0.9969,-0.0793][0.1441,0.701,0][0,0.13225,0.31665][3.22485e-007,0.9897,-0.143][0.151,0.6148,0][0.6451,0.0575495,-0.13525][0.9583,-0.00510031,-0.2857][0.9809,0.9149,0][0.7424,0.13225,0.31665][0.9995,-0.00410033,-0.0327][0.9854,0.7707,0][0.7424,-0.209651,0.35955][0.9995,0.000899674,-0.0317][0.8792,0.7714,0][0.7424,-0.209651,0.35955][0.9995,0.000899674,-0.0317][0.8792,0.7714,0][0.6451,-0.28225,-0.13525][0.9476,-0.0190003,-0.3189][0.877,0.9284,0][0.6451,0.0575495,-0.13525][0.9583,-0.00510031,-0.2857][0.9809,0.9149,0][0.7424,0.13225,0.31665][3.22811e-007,0.9907,-0.1362][0.0111,0.6037,0][0,0.13225,0.31665][3.22485e-007,0.9897,-0.143][0.151,0.6148,0][0.7039,0.16225,0.58705][0.00100032,0.9926,-0.1214][0.0225,0.553,0][0.7039,0.16225,0.58705][0.931,0.0454997,0.3621][0.9837,0.686,0][0.7039,-0.17965,0.63005][0.9311,0.0454997,0.3619][0.8774,0.6867,0][0.7424,-0.209651,0.35955][0.9995,0.000899674,-0.0317][0.8792,0.7714,0][0.7424,-0.209651,0.35955][0.9995,0.000899674,-0.0317][0.8792,0.7714,0][0.7424,0.13225,0.31665][0.9995,-0.00410033,-0.0327][0.9854,0.7707,0][0.7039,0.16225,0.58705][0.931,0.0454997,0.3621][0.9837,0.686,0][0.7039,0.16225,0.58705][0.931,0.0454997,0.3621][0.9837,0.686,0][0.5584,0.192349,0.79485][0.8219,0.0709997,0.5652][0.9843,0.6072,0][0.5584,-0.149651,0.83775][0.8219,0.0709997,0.5652][0.8781,0.6079,0][0.5584,-0.149651,0.83775][0.8219,0.0709997,0.5652][0.8781,0.6079,0][0.7039,-0.17965,0.63005][0.9311,0.0454997,0.3619][0.8774,0.6867,0][0.7039,0.16225,0.58705][0.931,0.0454997,0.3621][0.9837,0.686,0][0,0.22345,1.04245][0,0.1246,0.9922][0.9831,0.4156,0][0,-0.11855,1.08545][0,0.1246,0.9922][0.8768,0.4163,0][0.3019,-0.12775,1.01195][0.4081,0.1138,0.9058][0.8775,0.5121,0][0.3019,-0.12775,1.01195][0.4081,0.1138,0.9058][0.8775,0.5121,0][0.3019,0.214149,0.96895][0.4081,0.1138,0.9058][0.9837,0.5114,0][0,0.22345,1.04245][0,0.1246,0.9922][0.9831,0.4156,0][0.5584,-0.28335,-0.30365][-3.25841e-007,-1,0.0065][0.0403,0.4861,0][0.6451,-0.28225,-0.13525][-3.2444e-007,-0.9957,0.0922][0.0252,0.5185,0][0,-0.28225,-0.13525][-3.24896e-007,-0.9971,0.076][0.147,0.5135,0][0,-0.28225,-0.13525][-3.24896e-007,-0.9971,0.076][0.147,0.5135,0][0,-0.28335,-0.30365][-3.25841e-007,-1,0.0065][0.1457,0.4817,0][0.5584,-0.28335,-0.30365][-3.25841e-007,-1,0.0065][0.0403,0.4861,0][0,0.0575495,-0.13525][3.24831e-007,0.9969,-0.0793][0.1441,0.701,0][0.6451,0.0575495,-0.13525][3.2431e-007,0.9953,-0.0964][0.0226,0.6914,0][0.5584,0.0586495,-0.34665][3.25841e-007,1,0.0052][0.0358,0.7325,0][0.5584,0.0586495,-0.34665][3.25841e-007,1,0.0052][0.0358,0.7325,0][0,0.0586495,-0.34665][3.25841e-007,1,0.0052][0.141,0.7408,0][0,0.0575495,-0.13525][3.24831e-007,0.9969,-0.0793][0.1441,0.701,0][0.6451,-0.28225,-0.13525][-3.2444e-007,-0.9957,0.0922][0.0252,0.5185,0][0.7424,-0.209651,0.35955][-3.2317e-007,-0.9918,0.1274][0.0107,0.6137,0][0,-0.209651,0.35955][-3.22941e-007,-0.9911,0.1332][0.1509,0.608,0][0,-0.209651,0.35955][-3.22941e-007,-0.9911,0.1332][0.1509,0.608,0][0,-0.28225,-0.13525][-3.24896e-007,-0.9971,0.076][0.147,0.5135,0][0.6451,-0.28225,-0.13525][-3.2444e-007,-0.9957,0.0922][0.0252,0.5185,0][0.3019,-0.12775,1.01195][0.00459968,-0.9902,0.1394][0.0989,0.7344,0][0.7039,-0.17965,0.63005][9.96766e-005,-0.9926,0.121][0.0201,0.6648,0][0.5584,-0.149651,0.83775][0.0241997,-0.9869,0.1596][0.0492,0.7033,0][0,-0.11855,1.08545][-3.2317e-007,-0.9918,0.128][0.1565,0.7461,0][0.7039,-0.17965,0.63005][9.96766e-005,-0.9926,0.121][0.0201,0.6648,0][0.3019,-0.12775,1.01195][0.00459968,-0.9902,0.1394][0.0989,0.7344,0][0.7039,0.16225,0.58705][0.00100032,0.9926,-0.1214][0.0225,0.553,0][0,0.13225,0.31665][3.22485e-007,0.9897,-0.143][0.151,0.6148,0][0.3019,0.214149,0.96895][0.00160032,0.9918,-0.1281][0.1039,0.4864,0][0.7039,-0.17965,0.63005][9.96766e-005,-0.9926,0.121][0.0201,0.6648,0][0,-0.209651,0.35955][-3.22941e-007,-0.9911,0.1332][0.1509,0.608,0][0.7424,-0.209651,0.35955][-3.2317e-007,-0.9918,0.1274][0.0107,0.6137,0][0.7039,0.16225,0.58705][0.00100032,0.9926,-0.1214][0.0225,0.553,0][0.3019,0.214149,0.96895][0.00160032,0.9918,-0.1281][0.1039,0.4864,0][0.5584,0.192349,0.79485][-0.0241997,0.9869,-0.1596][0.053,0.5156,0][0.3019,0.214149,0.96895][0.00160032,0.9918,-0.1281][0.1039,0.4864,0][0,0.13225,0.31665][3.22485e-007,0.9897,-0.143][0.151,0.6148,0][0,0.22345,1.04245][3.233e-007,0.9922,-0.1246][0.1619,0.477,0][0,-0.11855,1.08545][-3.2317e-007,-0.9918,0.128][0.1565,0.7461,0][0,-0.209651,0.35955][-3.22941e-007,-0.9911,0.1332][0.1509,0.608,0][0.7039,-0.17965,0.63005][9.96766e-005,-0.9926,0.121][0.0201,0.6648,0][-0.7049,0.21425,0.08215][-0.1542,-0.9878,-0.021][0.5263,0.1471,0][-0.6319,0.20265,0.09215][-0.1542,-0.9878,-0.021][0.5263,0.1127,0][-0.636,0.25315,0.18105][-0.1938,-0.4939,0.8476][0.5975,0.1476,0][-0.636,0.25315,0.18105][-0.1938,-0.4939,0.8476][0.5975,0.1476,0][-0.709,0.26475,0.17105][-0.1938,-0.4939,0.8476][0.5719,0.1651,0][-0.7049,0.21425,0.08215][-0.1542,-0.9878,-0.021][0.5263,0.1471,0][-0.709,0.26475,0.17105][-0.1938,-0.4939,0.8476][0.5719,0.1651,0][-0.636,0.25315,0.18105][-0.1938,-0.4939,0.8476][0.5975,0.1476,0][-0.6202,0.354249,0.18315][-0.0396998,0.4939,0.8686][0.5975,0.2271,0][-0.6202,0.354249,0.18315][-0.0396998,0.4939,0.8686][0.5975,0.2271,0][-0.6932,0.365849,0.17325][-0.0396998,0.4939,0.8686][0.5719,0.2096,0][-0.709,0.26475,0.17105][-0.1938,-0.4939,0.8476][0.5719,0.1651,0][-0.6932,0.365849,0.17325][-0.0396998,0.4939,0.8686][0.5719,0.2096,0][-0.6202,0.354249,0.18315][-0.0396998,0.4939,0.8686][0.5975,0.2271,0][-0.6004,0.404749,0.09645][0.1542,0.9878,0.021][0.5263,0.262,0][-0.6004,0.404749,0.09645][0.1542,0.9878,0.021][0.5263,0.262,0][-0.6733,0.416349,0.08645][0.1542,0.9878,0.021][0.5263,0.2277,0][-0.6932,0.365849,0.17325][-0.0396998,0.4939,0.8686][0.5719,0.2096,0][-0.6733,0.416349,0.08645][0.1542,0.9878,0.021][0.5263,0.2277,0][-0.6004,0.404749,0.09645][0.1542,0.9878,0.021][0.5263,0.262,0][-0.5963,0.354249,0.00755001][0.1938,0.4939,-0.8476][0.4552,0.2271,0][-0.5963,0.354249,0.00755001][0.1938,0.4939,-0.8476][0.4552,0.2271,0][-0.6693,0.365849,-0.00244999][0.1938,0.4939,-0.8476][0.4808,0.2096,0][-0.6733,0.416349,0.08645][0.1542,0.9878,0.021][0.5263,0.2277,0][-0.6693,0.365849,-0.00244999][0.1938,0.4939,-0.8476][0.4808,0.2096,0][-0.5963,0.354249,0.00755001][0.1938,0.4939,-0.8476][0.4552,0.2271,0][-0.6121,0.25315,0.00535002][0.0396998,-0.4939,-0.8686][0.4552,0.1476,0][-0.6121,0.25315,0.00535002][0.0396998,-0.4939,-0.8686][0.4552,0.1476,0][-0.6851,0.26475,-0.00454999][0.0396998,-0.4939,-0.8686][0.4808,0.1651,0][-0.6693,0.365849,-0.00244999][0.1938,0.4939,-0.8476][0.4808,0.2096,0][-0.6851,0.26475,-0.00454999][0.0396998,-0.4939,-0.8686][0.4808,0.1651,0][-0.6121,0.25315,0.00535002][0.0396998,-0.4939,-0.8686][0.4552,0.1476,0][-0.6319,0.20265,0.09215][-0.1542,-0.9878,-0.021][0.5263,0.1127,0][-0.6319,0.20265,0.09215][-0.1542,-0.9878,-0.021][0.5263,0.1127,0][-0.7049,0.21425,0.08215][-0.1542,-0.9878,-0.021][0.5263,0.1471,0][-0.6851,0.26475,-0.00454999][0.0396998,-0.4939,-0.8686][0.4808,0.1651,0][-0.6851,0.26475,-0.00454999][-0.9788,0.1556,-0.1332][0.4808,0.1651,0][-0.709,0.26475,0.17105][-0.9788,0.1556,-0.1332][0.5719,0.1651,0][-0.6932,0.365849,0.17325][-0.9788,0.1556,-0.1332][0.5719,0.2096,0][-0.6932,0.365849,0.17325][-0.9788,0.1556,-0.1332][0.5719,0.2096,0][-0.6693,0.365849,-0.00244999][-0.9788,0.1556,-0.1332][0.4808,0.2096,0][-0.6851,0.26475,-0.00454999][-0.9788,0.1556,-0.1332][0.4808,0.1651,0][-0.6932,0.365849,0.17325][-0.9788,0.1556,-0.1332][0.5719,0.2096,0][-0.6733,0.416349,0.08645][-0.9788,0.1556,-0.1332][0.5263,0.2277,0][-0.6693,0.365849,-0.00244999][-0.9788,0.1556,-0.1332][0.4808,0.2096,0][-0.6851,0.26475,-0.00454999][-0.9788,0.1556,-0.1332][0.4808,0.1651,0][-0.7049,0.21425,0.08215][-0.9788,0.1556,-0.1332][0.5263,0.1471,0][-0.709,0.26475,0.17105][-0.9788,0.1556,-0.1332][0.5719,0.1651,0][0.636,0.25315,0.18105][0.1938,-0.4939,0.8476][0.5975,0.1476,0][0.6319,0.20265,0.09215][0.1542,-0.9878,-0.021][0.5263,0.1127,0][0.7049,0.21425,0.08215][0.1542,-0.9878,-0.021][0.5263,0.1471,0][0.7049,0.21425,0.08215][0.1542,-0.9878,-0.021][0.5263,0.1471,0][0.709,0.26475,0.17105][0.1938,-0.4939,0.8476][0.5719,0.1651,0][0.636,0.25315,0.18105][0.1938,-0.4939,0.8476][0.5975,0.1476,0][0.6202,0.354249,0.18315][0.0397002,0.4939,0.8686][0.5975,0.2271,0][0.636,0.25315,0.18105][0.1938,-0.4939,0.8476][0.5975,0.1476,0][0.709,0.26475,0.17105][0.1938,-0.4939,0.8476][0.5719,0.1651,0][0.709,0.26475,0.17105][0.1938,-0.4939,0.8476][0.5719,0.1651,0][0.6932,0.365849,0.17325][0.0397002,0.4939,0.8686][0.5719,0.2096,0][0.6202,0.354249,0.18315][0.0397002,0.4939,0.8686][0.5975,0.2271,0][0.6004,0.404749,0.09645][-0.1542,0.9878,0.021][0.5263,0.262,0][0.6202,0.354249,0.18315][0.0397002,0.4939,0.8686][0.5975,0.2271,0][0.6932,0.365849,0.17325][0.0397002,0.4939,0.8686][0.5719,0.2096,0][0.6932,0.365849,0.17325][0.0397002,0.4939,0.8686][0.5719,0.2096,0][0.6733,0.416349,0.08645][-0.1542,0.9878,0.021][0.5263,0.2277,0][0.6004,0.404749,0.09645][-0.1542,0.9878,0.021][0.5263,0.262,0][0.5963,0.354249,0.00755001][-0.1938,0.4939,-0.8476][0.4552,0.2271,0][0.6004,0.404749,0.09645][-0.1542,0.9878,0.021][0.5263,0.262,0][0.6733,0.416349,0.08645][-0.1542,0.9878,0.021][0.5263,0.2277,0][0.6733,0.416349,0.08645][-0.1542,0.9878,0.021][0.5263,0.2277,0][0.6693,0.365849,-0.00244999][-0.1938,0.4939,-0.8476][0.4808,0.2096,0][0.5963,0.354249,0.00755001][-0.1938,0.4939,-0.8476][0.4552,0.2271,0][0.6121,0.25315,0.00535002][-0.0397002,-0.4939,-0.8686][0.4552,0.1476,0][0.5963,0.354249,0.00755001][-0.1938,0.4939,-0.8476][0.4552,0.2271,0][0.6693,0.365849,-0.00244999][-0.1938,0.4939,-0.8476][0.4808,0.2096,0][0.6693,0.365849,-0.00244999][-0.1938,0.4939,-0.8476][0.4808,0.2096,0][0.6851,0.26475,-0.00454999][-0.0397002,-0.4939,-0.8686][0.4808,0.1651,0][0.6121,0.25315,0.00535002][-0.0397002,-0.4939,-0.8686][0.4552,0.1476,0][0.6319,0.20265,0.09215][0.1542,-0.9878,-0.021][0.5263,0.1127,0][0.6121,0.25315,0.00535002][-0.0397002,-0.4939,-0.8686][0.4552,0.1476,0][0.6851,0.26475,-0.00454999][-0.0397002,-0.4939,-0.8686][0.4808,0.1651,0][0.6851,0.26475,-0.00454999][-0.0397002,-0.4939,-0.8686][0.4808,0.1651,0][0.7049,0.21425,0.08215][0.1542,-0.9878,-0.021][0.5263,0.1471,0][0.6319,0.20265,0.09215][0.1542,-0.9878,-0.021][0.5263,0.1127,0][0.6932,0.365849,0.17325][0.9788,0.1556,-0.1332][0.5719,0.2096,0][0.709,0.26475,0.17105][0.9788,0.1556,-0.1332][0.5719,0.1651,0][0.6851,0.26475,-0.00454999][0.9788,0.1556,-0.1332][0.4808,0.1651,0][0.6851,0.26475,-0.00454999][0.9788,0.1556,-0.1332][0.4808,0.1651,0][0.6693,0.365849,-0.00244999][0.9788,0.1556,-0.1332][0.4808,0.2096,0][0.6932,0.365849,0.17325][0.9788,0.1556,-0.1332][0.5719,0.2096,0][0.6932,0.365849,0.17325][0.9788,0.1556,-0.1332][0.5719,0.2096,0][0.6693,0.365849,-0.00244999][0.9788,0.1556,-0.1332][0.4808,0.2096,0][0.6733,0.416349,0.08645][0.9788,0.1556,-0.1332][0.5263,0.2277,0][0.6851,0.26475,-0.00454999][0.9788,0.1556,-0.1332][0.4808,0.1651,0][0.709,0.26475,0.17105][0.9788,0.1556,-0.1332][0.5719,0.1651,0][0.7049,0.21425,0.08215][0.9788,0.1556,-0.1332][0.5263,0.1471,0]