mtllib 57770059.mtl
o Mesh

v -0.125 0.875 -0.125
v -0.125 1.125 -0.125
v 0.125 1.125 -0.125
v 0.125 0.875 -0.125
v -0.125 1.125 -0.125
v -0.125 1.125 0.125
v 0.125 1.125 0.125
v 0.125 1.125 -0.125
v -0.125 1.125 0.125
v -0.125 0.875 0.125
v 0.125 0.875 0.125
v 0.125 1.125 0.125
v -0.125 0.875 0.125
v -0.125 0.875 -0.125
v 0.125 0.875 -0.125
v 0.125 0.875 0.125
v -0.125 0.875 0.125
v -0.125 1.125 0.125
v -0.125 1.125 -0.125
v -0.125 0.875 -0.125
v 0.125 0.875 -0.125
v 0.125 1.125 -0.125
v 0.125 1.125 0.125
v 0.125 0.875 0.125

vn 0.0 -0.0 -1.0
vn 0.0 -0.0 -1.0
vn 0.0 -0.0 -1.0
vn 0.0 -0.0 -1.0
vn -0.0 1.0 -0.0
vn -0.0 1.0 -0.0
vn -0.0 1.0 -0.0
vn -0.0 1.0 -0.0
vn -0.0 0.0 1.0
vn -0.0 0.0 1.0
vn -0.0 0.0 1.0
vn -0.0 0.0 1.0
vn 0.0 -1.0 0.0
vn 0.0 -1.0 0.0
vn 0.0 -1.0 0.0
vn 0.0 -1.0 0.0
vn -1.0 -0.0 -0.0
vn -1.0 -0.0 -0.0
vn -1.0 -0.0 -0.0
vn -1.0 -0.0 -0.0
vn 1.0 0.0 0.0
vn 1.0 0.0 0.0
vn 1.0 0.0 0.0
vn 1.0 0.0 0.0

vt 0.7910370230674744 0.041316986083984375
vt 0.7910370230674744 0.08180201053619385
vt 0.7505530118942261 0.08180201053619385
vt 0.7505530118942261 0.041316986083984375
vt 0.7910370230674744 0.08180201053619385
vt 0.7910370230674744 0.12228602170944214
vt 0.7505530118942261 0.12228602170944214
vt 0.7505530118942261 0.08180201053619385
vt 0.7910370230674744 0.12228602170944214
vt 0.7910370230674744 0.16276997327804565
vt 0.7505530118942261 0.16276997327804565
vt 0.7505530118942261 0.12228602170944214
vt 0.7910370230674744 0.16276997327804565
vt 0.7910370230674744 0.20325398445129395
vt 0.7505530118942261 0.20325398445129395
vt 0.7505530118942261 0.16276997327804565
vt 0.8315219879150391 0.041316986083984375
vt 0.8315219879150391 0.08180201053619385
vt 0.7910370230674744 0.08180201053619385
vt 0.7910370230674744 0.041316986083984375
vt 0.7505530118942261 0.041316986083984375
vt 0.7505530118942261 0.08180201053619385
vt 0.7100690007209778 0.08180201053619385
vt 0.7100690007209778 0.041316986083984375

usemtl Material

f 1/1/1 2/2/2 3/3/3
f 3/3/3 4/4/4 1/1/1
f 5/5/5 6/6/6 7/7/7
f 7/7/7 8/8/8 5/5/5
f 9/9/9 10/10/10 11/11/11
f 11/11/11 12/12/12 9/9/9
f 13/13/13 14/14/14 15/15/15
f 15/15/15 16/16/16 13/13/13
f 17/17/17 18/18/18 19/19/19
f 19/19/19 20/20/20 17/17/17
f 21/21/21 22/22/22 23/23/23
f 23/23/23 24/24/24 21/21/21