mtllib 33304703.mtl
o Mesh

v -0.08823001384735107 -0.8841910362243652 0.41889598965644836
v 0.2477399706840515 -1.0217310190200806 0.36308398842811584
v 0.2215999960899353 -0.8082300424575806 0.3401409983634949
v -0.05853000283241272 -0.7739700078964233 0.41259199380874634
v -0.2316800057888031 -0.745290994644165 0.29187801480293274
v -0.26419001817703247 -0.8165110349655151 0.26122599840164185
v -0.1995599865913391 -0.8431409597396851 0.3344059884548187
v -0.15678000450134277 -0.7725210189819336 0.37257400155067444
v -0.29141998291015625 -0.7072410583496094 0.10089600086212158
v -0.3181599974632263 -0.770630955696106 0.06208200007677078
v -0.22635000944137573 -0.6753710508346558 -0.1564439982175827
v -0.2942900061607361 -0.8350410461425781 -0.2465980052947998
v -0.15158000588417053 -0.6909409761428833 -0.22283899784088135
v -0.18500998616218567 -0.8247510194778442 -0.3210560083389282
v 0.21469998359680176 -0.7767009735107422 -0.16415800154209137
v 0.23294997215270996 -1.0217310190200806 -0.2752709984779358
v -0.03185999393463135 -0.8703700304031372 -0.34005799889564514
v -0.032770007848739624 -0.7206699848175049 -0.2208240032196045
v 0.23294997215270996 -1.0217310190200806 -0.2752709984779358
v 0.21469998359680176 -0.7767009735107422 -0.16415800154209137
v 0.2794100046157837 -1.0153310298919678 -0.20119500160217285
v 0.2215999960899353 -0.8082300424575806 0.3401409983634949
v 0.2477399706840515 -1.0217310190200806 0.36308398842811584
v 0.335349977016449 -1.0245909690856934 0.26175400614738464
v 0.2890999913215637 -0.8010610342025757 0.16092899441719055
v -0.26419001817703247 -0.8165110349655151 0.26122599840164185
v -0.2676600217819214 -0.8580410480499268 0.18363800644874573
v -0.1906599998474121 -0.8890310525894165 0.2960520088672638
v -0.1995599865913391 -0.8431409597396851 0.3344059884548187
v -0.2957500219345093 -0.9148709774017334 -0.1497649997472763
v -0.19868001341819763 -0.9825810194015503 -0.1433829963207245
v -0.1989699900150299 -0.9534410238265991 -0.06264899671077728
v -0.3026999831199646 -0.8628610372543335 0.020718999207019806
v -0.3181599974632263 -0.770630955696106 0.06208200007677078
v -0.2942900061607361 -0.8350410461425781 -0.2465980052947998
v -0.10651001334190369 -0.9313499927520752 0.37981298565864563
v -0.08823001384735107 -0.8841910362243652 0.41889598965644836
v -0.061069995164871216 -0.9039700031280518 0.019572999328374863
v -0.2026199996471405 -0.9351609945297241 0.06794500350952148
v -0.05120000243186951 -0.9051799774169922 -0.11679500341415405
v -0.02516999840736389 -0.9554610252380371 -0.29433000087738037
v 0.34887999296188354 -1.0273809432983398 0.13077999651432037
v 0.3574399948120117 -1.026481032371521 0.03353400155901909
v 0.29294002056121826 -0.7950010299682617 -0.005253000184893608
v 0.16719001531600952 -1.0356910228729248 0.3380270004272461
v 0.2477399706840515 -1.0217310190200806 0.36308398842811584
v -0.14074000716209412 -0.9404909610748291 0.23434600234031677
v -0.07591000199317932 -0.9580709934234619 0.28899601101875305
v 0.21386998891830444 -1.0295610427856445 -0.07976800203323364
v 0.16214001178741455 -1.012181043624878 0.04848799854516983
v 0.10446000099182129 -1.006430983543396 -0.1580599993467331
v 0.10355997085571289 -1.0017709732055664 -0.26746198534965515
v 0.24852997064590454 -1.0386509895324707 0.12667900323867798
v 0.11746001243591309 -1.0309009552001953 0.23686100542545319
v -0.03185999393463135 -0.8703700304031372 -0.34005799889564514
v 0.23294997215270996 -1.0217310190200806 -0.2752709984779358
v 0.10355997085571289 -1.0017709732055664 -0.26746198534965515
v -0.02516999840736389 -0.9554610252380371 -0.29433000087738037
v 0.117622971534729 -0.5042010545730591 -0.030952999368309975
v 0.18350601196289062 -0.5057330131530762 0.08855199813842773
v 0.117622971534729 -0.5042010545730591 -0.030952999368309975
v -0.03422200679779053 -0.5154110193252563 -0.14127199351787567
v -0.16081398725509644 -0.5224709510803223 -0.13888299465179443
v -0.24672499299049377 -0.5487910509109497 -0.06101299822330475
v -0.3204450011253357 -0.5923730134963989 0.16209499537944794
v -0.2307249903678894 -0.6163300275802612 0.3831689953804016
v -0.14624300599098206 -0.6118309497833252 0.4455609917640686
v -0.04144400358200073 -0.5975600481033325 0.44325798749923706
v 0.117622971534729 -0.554731011390686 0.3662180006504059
v 0.17239797115325928 -0.5292830467224121 0.22448299825191498
v 0.117622971534729 -0.554731011390686 0.3662180006504059
v 0.3475800156593323 -1.0343610048294067 -0.09243699908256531
v -0.28433001041412354 -1.0826410055160522 -0.2261209934949875
v -0.2698100209236145 -1.071429967880249 -0.20348699390888214
v -0.26937001943588257 -0.983320951461792 -0.22244299948215485
v -0.2864699959754944 -0.9768610000610352 -0.2577970027923584
v -0.1993499994277954 -1.1023709774017334 -0.2708300054073334
v -0.18608999252319336 -1.0001699924468994 -0.31060901284217834
v -0.16898998618125916 -1.0066299438476562 -0.2752549946308136
v -0.18483999371528625 -1.0911610126495361 -0.24819700419902802
v -0.1993499994277954 -1.1023709774017334 -0.2708300054073334
v -0.2487500011920929 -1.09614098072052 -0.25571200251579285
v -0.2444399893283844 -0.9857310056686401 -0.29584801197052
v -0.18608999252319336 -1.0001699924468994 -0.31060901284217834
v -0.20805001258850098 -1.0021799802780151 -0.21905699372291565
v -0.22382000088691711 -1.0768699645996094 -0.21681399643421173
v -0.18483999371528625 -1.0911610126495361 -0.24819700419902802
v -0.16898998618125916 -1.0066299438476562 -0.2752549946308136
v -0.27226001024246216 -1.2034000158309937 -0.1740500032901764
v -0.20638999342918396 -1.2186909914016724 -0.20870299637317657
v -0.1918799877166748 -1.2074799537658691 -0.18606999516487122
v -0.2577400207519531 -1.1921910047531128 -0.15141600370407104
v -0.3064500093460083 -1.1364799737930298 -0.1852719932794571
v -0.27226001024246216 -1.2034000158309937 -0.1740500032901764
v -0.2577400207519531 -1.1921910047531128 -0.15141600370407104
v -0.29193001985549927 -1.1252700090408325 -0.16263900697231293
v -0.3064500093460083 -1.1364799737930298 -0.1852719932794571
v -0.29193001985549927 -1.1252700090408325 -0.16263900697231293
v -0.17471998929977417 -1.167070984840393 -0.25457900762557983
v -0.1602100133895874 -1.1558599472045898 -0.23194600641727448
v -0.20638999342918396 -1.2186909914016724 -0.20870299637317657
v -0.17471998929977417 -1.167070984840393 -0.25457900762557983
v -0.1602100133895874 -1.1558599472045898 -0.23194600641727448
v -0.1918799877166748 -1.2074799537658691 -0.18606999516487122
v -0.27226001024246216 -1.2034000158309937 -0.1740500032901764
v -0.2457999885082245 -1.1557999849319458 -0.22805799543857574
v -0.20638999342918396 -1.2186909914016724 -0.20870299637317657
v -0.3064500093460083 -1.1364799737930298 -0.1852719932794571
v -0.28433001041412354 -1.0826410055160522 -0.2261209934949875
v -0.17471998929977417 -1.167070984840393 -0.25457900762557983
v -0.1918799877166748 -1.2074799537658691 -0.18606999516487122
v -0.22086000442504883 -1.1365410089492798 -0.18916000425815582
v -0.2577400207519531 -1.1921910047531128 -0.15141600370407104
v -0.29193001985549927 -1.1252700090408325 -0.16263900697231293
v -0.2698100209236145 -1.071429967880249 -0.20348699390888214
v -0.1602100133895874 -1.1558599472045898 -0.23194600641727448
v -0.26937001943588257 -0.983320951461792 -0.22244299948215485
v -0.2864699959754944 -0.9768610000610352 -0.2577970027923584
v -0.20805001258850098 -1.0021799802780151 -0.21905699372291565
v -0.16898998618125916 -1.0066299438476562 -0.2752549946308136
v -0.16898998618125916 -1.0066299438476562 -0.2752549946308136
v -0.18608999252319336 -1.0001699924468994 -0.31060901284217834
v 0.1222500205039978 -1.2957309484481812 -0.165569007396698
v 0.11076998710632324 -1.2700309753417969 -0.15807899832725525
v 0.16690999269485474 -1.2072410583496094 -0.19460199773311615
v 0.19229000806808472 -1.2319409847259521 -0.20948299765586853
v 0.2361299991607666 -1.235821008682251 -0.12892399728298187
v 0.21074998378753662 -1.2111209630966187 -0.11404299736022949
v 0.14705002307891846 -1.2732410430908203 -0.09140200167894363
v 0.1585400104522705 -1.2989410161972046 -0.0988909974694252
v 0.1585400104522705 -1.2989410161972046 -0.0988909974694252
v 0.1438000202178955 -1.3065110445022583 -0.13625699281692505
v 0.2200000286102295 -1.2414510250091553 -0.1748179942369461
v 0.2361299991607666 -1.235821008682251 -0.12892399728298187
v 0.17217999696731567 -1.1938810348510742 -0.1467760056257248
v 0.12405997514724731 -1.262341022491455 -0.1233849972486496
v 0.14705002307891846 -1.2732410430908203 -0.09140200167894363
v 0.21074998378753662 -1.2111209630966187 -0.11404299736022949
v 0.018930017948150635 -1.3574310541152954 -0.11231300234794617
v 0.05522000789642334 -1.3606510162353516 -0.045635998249053955
v 0.04373002052307129 -1.3349510431289673 -0.03814699873328209
v 0.007449984550476074 -1.3317309617996216 -0.104823999106884
v 0.05245000123977661 -1.3249809741973877 -0.1722790002822876
v 0.018930017948150635 -1.3574310541152954 -0.11231300234794617
v 0.007449984550476074 -1.3317309617996216 -0.104823999106884
v 0.04096001386642456 -1.2992810010910034 -0.16479000449180603
v 0.05245000123977661 -1.3249809741973877 -0.1722790002822876
v 0.04096001386642456 -1.2992810010910034 -0.16479000449180603
v 0.12502002716064453 -1.331400990486145 -0.03892499953508377
v 0.11353999376296997 -1.3057010173797607 -0.031436000019311905
v 0.05522000789642334 -1.3606510162353516 -0.045635998249053955
v 0.12502002716064453 -1.331400990486145 -0.03892499953508377
v 0.11353999376296997 -1.3057010173797607 -0.031436000019311905
v 0.04373002052307129 -1.3349510431289673 -0.03814699873328209
v 0.018930017948150635 -1.3574310541152954 -0.11231300234794617
v 0.09285998344421387 -1.33742094039917 -0.10829299688339233
v 0.05522000789642334 -1.3606510162353516 -0.045635998249053955
v 0.05245000123977661 -1.3249809741973877 -0.1722790002822876
v 0.1222500205039978 -1.2957309484481812 -0.165569007396698
v 0.12502002716064453 -1.331400990486145 -0.03892499953508377
v 0.04373002052307129 -1.3349510431289673 -0.03814699873328209
v 0.07311999797821045 -1.2932510375976562 -0.09542199969291687
v 0.007449984550476074 -1.3317309617996216 -0.104823999106884
v 0.04096001386642456 -1.2992810010910034 -0.16479000449180603
v 0.11076998710632324 -1.2700309753417969 -0.15807899832725525
v 0.11353999376296997 -1.3057010173797607 -0.031436000019311905
v 0.16690999269485474 -1.2072410583496094 -0.19460199773311615
v 0.19229000806808472 -1.2319409847259521 -0.20948299765586853
v 0.18756002187728882 -1.115960955619812 -0.22179800271987915
v 0.19850999116897583 -1.1134010553359985 -0.1585869938135147
v 0.10446000099182129 -1.006430983543396 -0.1580599993467331
v 0.10355997085571289 -1.0017709732055664 -0.26746198534965515
v 0.2479199767112732 -1.1213010549545288 -0.11088799685239792
v 0.21386998891830444 -1.0295610427856445 -0.07976800203323364
v 0.3475800156593323 -1.0343610048294067 -0.09243699908256531
v 0.21386998891830444 -1.0295610427856445 -0.07976800203323364
v 0.2479199767112732 -1.1213010549545288 -0.11088799685239792
v 0.2999200224876404 -1.115360975265503 -0.13797199726104736
v 0.2999200224876404 -1.115360975265503 -0.13797199726104736
v 0.2781500220298767 -1.1156009435653687 -0.2010290026664734
v 0.23956000804901123 -1.1100209951400757 -0.24888299405574799
v 0.23294997215270996 -1.0217310190200806 -0.2752709984779358
v 0.23956000804901123 -1.1100209951400757 -0.24888299405574799
v 0.18756002187728882 -1.115960955619812 -0.22179800271987915
v 0.10355997085571289 -1.0017709732055664 -0.26746198534965515
v 0.19850999116897583 -1.1134010553359985 -0.1585869938135147
v 0.18756002187728882 -1.115960955619812 -0.22179800271987915
v 0.2479199767112732 -1.1213010549545288 -0.11088799685239792
v 0.16686999797821045 -1.3210610151290894 0.0008420000085607171
v 0.1545199751853943 -1.2947410345077515 0.002604000037536025
v 0.2172200083732605 -1.2331210374832153 -0.010522999800741673
v 0.2511199712753296 -1.2612810134887695 -0.014325999654829502
v 0.1744999885559082 -1.3225409984588623 0.07642199844121933
v 0.26033997535705566 -1.2630709409713745 0.07699000090360641
v 0.22644001245498657 -1.2349109649658203 0.08079300075769424
v 0.16215002536773682 -1.2962110042572021 0.07818499952554703
v 0.1744999885559082 -1.3225409984588623 0.07642199844121933
v 0.17496997117996216 -1.3312309980392456 0.03648500144481659
v 0.26291000843048096 -1.2701410055160522 0.028603000566363335
v 0.26033997535705566 -1.2630709409713745 0.07699000090360641
v 0.15373998880386353 -1.2859909534454346 0.039514001458883286
v 0.16215002536773682 -1.2962110042572021 0.07818499952554703
v 0.22644001245498657 -1.2349109649658203 0.08079300075769424
v 0.2045300006866455 -1.2184009552001953 0.035197000950574875
v 0.0484200119972229 -1.3773709535598755 0.011699999682605267
v 0.056050002574920654 -1.378849983215332 0.08727999776601791
v 0.04369997978210449 -1.3525199890136719 0.08904299885034561
v 0.03606998920440674 -1.3510500192642212 0.013461999595165253
v 0.10382997989654541 -1.3484710454940796 -0.031518999487161636
v 0.0484200119972229 -1.3773709535598755 0.011699999682605267
v 0.03606998920440674 -1.3510500192642212 0.013461999595165253
v 0.09148001670837402 -1.3221509456634521 -0.029757000505924225
v 0.10382997989654541 -1.3484710454940796 -0.031518999487161636
v 0.09148001670837402 -1.3221509456634521 -0.029757000505924225
v 0.1190900206565857 -1.3514310121536255 0.1196419969201088
v 0.10673999786376953 -1.3251110315322876 0.1214039996266365
v 0.056050002574920654 -1.378849983215332 0.08727999776601791
v 0.1190900206565857 -1.3514310121536255 0.1196419969201088
v 0.10673999786376953 -1.3251110315322876 0.1214039996266365
v 0.04369997978210449 -1.3525199890136719 0.08904299885034561
v 0.0484200119972229 -1.3773709535598755 0.011699999682605267
v 0.11589998006820679 -1.3594110012054443 0.043428000062704086
v 0.056050002574920654 -1.378849983215332 0.08727999776601791
v 0.10382997989654541 -1.3484710454940796 -0.031518999487161636
v 0.16686999797821045 -1.3210610151290894 0.0008420000085607171
v 0.1190900206565857 -1.3514310121536255 0.1196419969201088
v 0.04369997978210449 -1.3525199890136719 0.08904299885034561
v 0.09466999769210815 -1.3141709566116333 0.04645700007677078
v 0.03606998920440674 -1.3510500192642212 0.013461999595165253
v 0.09148001670837402 -1.3221509456634521 -0.029757000505924225
v 0.1545199751853943 -1.2947410345077515 0.002604000037536025
v 0.10673999786376953 -1.3251110315322876 0.1214039996266365
v 0.2172200083732605 -1.2331210374832153 -0.010522999800741673
v 0.2511199712753296 -1.2612810134887695 -0.014325999654829502
v 0.21386998891830444 -1.0295610427856445 -0.07976800203323364
v 0.25182998180389404 -1.1464710235595703 -0.028550000861287117
v 0.2310500144958496 -1.1405010223388672 0.03497299924492836
v 0.16214001178741455 -1.012181043624878 0.04848799854516983
v 0.2310500144958496 -1.1405010223388672 0.03497299924492836
v 0.2645300030708313 -1.1489310264587402 0.09717000275850296
v 0.24852997064590454 -1.0386509895324707 0.12667900323867798
v 0.16214001178741455 -1.012181043624878 0.04848799854516983
v 0.32788997888565063 -1.1450409889221191 0.09000399708747864
v 0.34887999296188354 -1.0273809432983398 0.13077999651432037
v 0.24852997064590454 -1.0386509895324707 0.12667900323867798
v 0.2645300030708313 -1.1489310264587402 0.09717000275850296
v 0.32788997888565063 -1.1450409889221191 0.09000399708747864
v 0.332099974155426 -1.1472909450531006 0.023465000092983246
v 0.31519997119903564 -1.1425809860229492 -0.03571600094437599
v 0.31519997119903564 -1.1425809860229492 -0.03571600094437599
v 0.25182998180389404 -1.1464710235595703 -0.028550000861287117
v 0.21386998891830444 -1.0295610427856445 -0.07976800203323364
v 0.3475800156593323 -1.0343610048294067 -0.09243699908256531
v 0.25182998180389404 -1.1464710235595703 -0.028550000861287117
v 0.20482999086380005 -1.2829610109329224 0.17952199280261993
v 0.19273000955581665 -1.2565109729766846 0.17780999839305878
v 0.245930016040802 -1.2062009572982788 0.18546900153160095
v 0.2768099904060364 -1.2301909923553467 0.19229699671268463
v 0.18625998497009277 -1.2866909503936768 0.25310298800468445
v 0.25436002016067505 -1.2346910238265991 0.28123700618743896
v 0.2234799861907959 -1.2107110023498535 0.2744100093841553
v 0.17416000366210938 -1.2602410316467285 0.2513900101184845
v 0.18625998497009277 -1.2866909503936768 0.25310298800468445
v 0.2002599835395813 -1.2942509651184082 0.21545399725437164
v 0.2732200026512146 -1.2404309511184692 0.23638999462127686
v 0.25436002016067505 -1.2346910238265991 0.28123700618743896
v 0.20633000135421753 -1.1874710321426392 0.22158999741077423
v 0.17566001415252686 -1.2434810400009155 0.2117059975862503
v 0.08951997756958008 -1.3377710580825806 0.14764100313186646
v 0.0709499716758728 -1.341500997543335 0.22122099995613098
v 0.058849990367889404 -1.315060019493103 0.21950800716876984
v 0.07741999626159668 -1.311331033706665 0.14592799544334412
v 0.1564599871635437 -1.3085010051727295 0.12679199874401093
v 0.08951997756958008 -1.3377710580825806 0.14764100313186646
v 0.07741999626159668 -1.311331033706665 0.14592799544334412
v 0.1443600058555603 -1.282060980796814 0.12507900595664978
v 0.1564599871635437 -1.3085010051727295 0.12679199874401093
v 0.1443600058555603 -1.282060980796814 0.12507900595664978
v 0.11931997537612915 -1.3159610033035278 0.27395200729370117
v 0.10721999406814575 -1.2895209789276123 0.27223899960517883
v 0.0709499716758728 -1.341500997543335 0.22122099995613098
v 0.11931997537612915 -1.3159610033035278 0.27395200729370117
v 0.10721999406814575 -1.2895209789276123 0.27223899960517883
v 0.058849990367889404 -1.315060019493103 0.21950800716876984
v 0.08951997756958008 -1.3377710580825806 0.14764100313186646
v 0.1422399878501892 -1.3217309713363647 0.20098699629306793
v 0.0709499716758728 -1.341500997543335 0.22122099995613098
v 0.1564599871635437 -1.3085010051727295 0.12679199874401093
v 0.20482999086380005 -1.2829610109329224 0.17952199280261993
v 0.11931997537612915 -1.3159610033035278 0.27395200729370117
v 0.058849990367889404 -1.315060019493103 0.21950800716876984
v 0.12145000696182251 -1.276291012763977 0.19804300367832184
v 0.07741999626159668 -1.311331033706665 0.14592799544334412
v 0.2768099904060364 -1.2301909923553467 0.19229699671268463
v 0.24852997064590454 -1.0386509895324707 0.12667900323867798
v 0.24738001823425293 -1.1224310398101807 0.18001200258731842
v 0.1989700198173523 -1.1204309463500977 0.2258010059595108
v 0.11746001243591309 -1.0309009552001953 0.23686100542545319
v 0.21869999170303345 -1.128180980682373 0.2936530113220215
v 0.16719001531600952 -1.0356910228729248 0.3380270004272461
v 0.2477399706840515 -1.0217310190200806 0.36308398842811584
v 0.28609997034072876 -1.1534910202026367 0.30667299032211304
v 0.28609997034072876 -1.1534910202026367 0.30667299032211304
v 0.3115599751472473 -1.1541509628295898 0.25005000829696655
v 0.3147900104522705 -1.1477309465408325 0.19303199648857117
v 0.3147900104522705 -1.1477309465408325 0.19303199648857117
v 0.34887999296188354 -1.0273809432983398 0.13077999651432037
v -0.4162449836730957 0.1530900001525879 -0.2722170054912567
v -0.4742420017719269 0.0949690043926239 -0.14806200563907623
v -0.5059739947319031 0.18169400095939636 -0.15386000275611877
v -0.4930900037288666 0.23420900106430054 -0.2819800078868866
v -0.4742420017719269 0.0949690043926239 -0.14806200563907623
v -0.5152509808540344 0.04401400685310364 0.1126210018992424
v -0.4925000071525574 0.12300899624824524 9.999999747378752e-05
v -0.5059739947319031 0.18169400095939636 -0.15386000275611877
v -0.46681100130081177 0.10419300198554993 0.4037419855594635
v -0.506758987903595 0.17895200848579407 0.21591900289058685
v -0.4078879952430725 0.16711300611495972 0.4934859871864319
v -0.4930900037288666 0.23471000790596008 0.2823779881000519
v -0.4930900037288666 0.5049359798431396 0.48572999238967896
v -0.32652801275253296 0.344402015209198 0.5866150259971619
v -0.1930769979953766 0.5566319823265076 0.447953999042511
v -0.49592000246047974 0.7728300094604492 0.2828559875488281
v -0.49592000246047974 0.7728300094604492 0.2828559875488281
v -0.1930769979953766 0.5566319823265076 0.447953999042511
v -0.1462239921092987 0.6383329629898071 0.21239599585533142
v -0.4965200126171112 0.8840199708938599 0.0007750000222586095
v -0.49592000246047974 0.772318959236145 -0.2815040051937103
v -0.13750699162483215 0.5886020064353943 -0.10172499716281891
v -0.19268798828125 0.4976699948310852 -0.247297003865242
v -0.49514201283454895 0.654865026473999 -0.33184099197387695
v -0.19268798828125 0.4976699948310852 -0.247297003865242
v -0.32652801275253296 0.3440459966659546 -0.3610360026359558
v -0.4945099949836731 0.5031589865684509 -0.398624986410141
v -0.49514201283454895 0.654865026473999 -0.33184099197387695
v -0.27451997995376587 -0.11162102222442627 -0.0571650005877018
v -0.25186100602149963 -0.2391759753227234 -0.15649400651454926
v -0.33853501081466675 -0.27899599075317383 -0.0810920000076294
v -0.344870001077652 -0.15373098850250244 0.0025049999821931124
v -0.344870001077652 -0.15373098850250244 0.0025049999821931124
v -0.33853501081466675 -0.27899599075317383 -0.0810920000076294
v -0.4330669939517975 -0.32511401176452637 0.210099995136261
v -0.42162999510765076 -0.1947309970855713 0.23551400005817413
v -0.33853501081466675 -0.30171698331832886 0.4693419933319092
v -0.344870001077652 -0.1537410020828247 0.4852440059185028
v -0.2471190094947815 -0.26804202795028687 0.5439310073852539
v -0.273499995470047 -0.11007100343704224 0.5577809810638428
v -0.11031299829483032 -0.2224929928779602 0.5928980112075806
v 0.11791300773620605 -0.1338689923286438 0.47436100244522095
v 0.02577000856399536 0.04423001408576965 0.5022680163383484
v -0.1595500111579895 -0.05475097894668579 0.6029459834098816
v 0.11791300773620605 -0.1338689923286438 0.47436100244522095
v 0.1981930136680603 -0.09866398572921753 0.3336850106716156
v 0.09170997142791748 0.07813999056816101 0.35537898540496826
v 0.02577000856399536 0.04423001408576965 0.5022680163383484
v 0.21244502067565918 -0.08310699462890625 0.09833499789237976
v 0.11791300773620605 -0.11115598678588867 -0.07607399672269821
v 0.02577000856399536 0.04423001408576965 0.002503999974578619
v 0.10253000259399414 0.08522999286651611 0.1410059928894043
v 0.11791300773620605 -0.11115598678588867 -0.07607399672269821
v -0.11031299829483032 -0.19037199020385742 -0.19962899386882782
v -0.1595500111579895 -0.05475097894668579 -0.09401100128889084
v 0.02577000856399536 0.04423001408576965 0.002503999974578619
v -0.4078879952430725 0.16711300611495972 0.4934859871864319
v -0.4930900037288666 0.23471000790596008 0.2823779881000519
v -0.273499995470047 -0.11007100343704224 0.5577809810638428
v -0.2471190094947815 -0.26804202795028687 0.5439310073852539
v -0.5059739947319031 0.18169400095939636 -0.15386000275611877
v -0.4990600049495697 0.4756399989128113 0.03578300029039383
v -0.4930900037288666 0.23420900106430054 -0.2819800078868866
v -0.4925000071525574 0.12300899624824524 9.999999747378752e-05
v -0.506758987903595 0.17895200848579407 0.21591900289058685
v -0.4930900037288666 0.23471000790596008 0.2823779881000519
v -0.49592000246047974 0.7728300094604492 0.2828559875488281
v -0.4930900037288666 0.5049359798431396 0.48572999238967896
v -0.49592000246047974 0.772318959236145 -0.2815040051937103
v -0.4965200126171112 0.8840199708938599 0.0007750000222586095
v -0.49514201283454895 0.654865026473999 -0.33184099197387695
v -0.4945099949836731 0.5031589865684509 -0.398624986410141
v -0.03309500217437744 0.20221498608589172 0.4492740035057068
v 0.030328989028930664 0.2373560070991516 0.3220750093460083
v -0.21354499459266663 0.09757199883460999 0.557362973690033
v -0.03309500217437744 0.20221498608589172 0.4492740035057068
v -0.32393401861190796 0.040062010288238525 0.5108389854431152
v -0.32393401861190796 0.040062010288238525 0.5108389854431152
v -0.39399999380111694 -0.0070819854736328125 0.4348070025444031
v -0.4687420129776001 -0.050415992736816406 0.1883240044116974
v -0.4045239984989166 -0.021332979202270508 -0.05880500003695488
v -0.4045239984989166 -0.021332979202270508 -0.05880500003695488
v -0.3351749777793884 0.02153700590133667 -0.13966700434684753
v -0.21354499459266663 0.09757199883460999 -0.18071399629116058
v -0.03309500217437744 0.20221498608589172 -0.07262600213289261
v -0.03309500217437744 0.20221498608589172 -0.07262600213289261
v 0.0416489839553833 0.24556198716163635 0.08933600038290024
v 0.117622971534729 -0.5042010545730591 -0.030952999368309975
v -0.03422200679779053 -0.5154110193252563 -0.14127199351787567
v 0.18350601196289062 -0.5057330131530762 0.08855199813842773
v 0.117622971534729 -0.5042010545730591 -0.030952999368309975
v 0.17239797115325928 -0.5292830467224121 0.22448299825191498
v 0.117622971534729 -0.554731011390686 0.3662180006504059
v -0.04144400358200073 -0.5975600481033325 0.44325798749923706
v 0.117622971534729 -0.554731011390686 0.3662180006504059
v -0.14624300599098206 -0.6118309497833252 0.4455609917640686
v -0.2307249903678894 -0.6163300275802612 0.3831689953804016
v -0.14624300599098206 -0.6118309497833252 0.4455609917640686
v -0.3204450011253357 -0.5923730134963989 0.16209499537944794
v -0.24672499299049377 -0.5487910509109497 -0.06101299822330475
v -0.16081398725509644 -0.5224709510803223 -0.13888299465179443
v -0.24672499299049377 -0.5487910509109497 -0.06101299822330475

vn -0.24181300401687622 -0.21592000126838684 0.9459940195083618
vn 0.35414499044418335 -0.17349499464035034 0.9189559817314148
vn 0.6451659798622131 0.2128250002861023 0.7338029742240906
vn 0.015293999575078487 -0.07847300171852112 0.9967989921569824
vn -0.8629950284957886 -0.09980399906635284 0.4952560067176819
vn -0.8856059908866882 -0.1607470065355301 0.43573299050331116
vn -0.73163902759552 -0.24321700632572174 0.6368280053138733
vn -0.5832210183143616 -0.15727899968624115 0.7969419956207275
vn -0.9965829849243164 0.08046700060367584 0.018619000911712646
vn -0.9900310039520264 0.12838099896907806 0.05793600156903267
vn -0.764153003692627 0.4045589864253998 -0.5023970007896423
vn -0.8380079865455627 0.25434499979019165 -0.4827539920806885
vn -0.20083099603652954 0.5113809704780579 -0.8355579972267151
vn -0.26872000098228455 0.348581999540329 -0.8979309797286987
vn 0.6440690159797668 0.450313001871109 -0.6183789968490601
vn 0.7378619909286499 0.19517000019550323 -0.6461179852485657
vn 0.16883300244808197 0.43246200680732727 -0.885703980922699
vn 0.23817899823188782 0.5089420080184937 -0.827193021774292
vn 0.7378619909286499 0.19517000019550323 -0.6461179852485657
vn 0.6440690159797668 0.450313001871109 -0.6183789968490601
vn 0.852774977684021 0.13127900660037994 -0.5055099725723267
vn 0.6451659798622131 0.2128250002861023 0.7338029742240906
vn 0.35414499044418335 -0.17349499464035034 0.9189559817314148
vn 0.9304310083389282 0.043333999812603 0.3638960123062134
vn 0.9340130090713501 0.31144100427627563 0.17499800026416779
vn -0.8856059908866882 -0.1607470065355301 0.43573299050331116
vn -0.7994660139083862 -0.5591199994087219 0.21963399648666382
vn -0.6549010276794434 -0.6824120283126831 0.3246830105781555
vn -0.73163902759552 -0.24321700632572174 0.6368280053138733
vn -0.8887360095977783 -0.43667900562286377 0.13949699699878693
vn -0.054274000227451324 -0.9354860186576843 0.3491699993610382
vn -0.12979499995708466 -0.9667009711265564 0.220550999045372
vn -0.8606839776039124 -0.4942980110645294 0.12203700095415115
vn -0.9900310039520264 0.12838099896907806 0.05793600156903267
vn -0.8380079865455627 0.25434499979019165 -0.4827539920806885
vn -0.4635719954967499 -0.7101029753684998 0.5299569964408875
vn -0.24181300401687622 -0.21592000126838684 0.9459940195083618
vn -0.10886300355195999 -0.9932219982147217 -0.04072500020265579
vn -0.27214500308036804 -0.957735002040863 0.09317400306463242
vn -0.07987400144338608 -0.9867879748344421 0.14095599949359894
vn -0.06763800233602524 -0.9777430295944214 0.19860200583934784
vn 0.9923149943351746 -0.062203001230955124 -0.10696899890899658
vn 0.9998229742050171 0.01464799977838993 -0.011823000386357307
vn 0.9169380068778992 0.3515639901161194 -0.1887509971857071
vn -0.3408519923686981 -0.722836971282959 0.6011049747467041
vn 0.35414499044418335 -0.17349499464035034 0.9189559817314148
vn -0.3417460024356842 -0.9371399879455566 0.07055199891328812
vn -0.365217000246048 -0.930351972579956 0.03258100152015686
vn -0.5320219993591309 -0.7518709897994995 0.389411985874176
vn -0.36362800002098083 -0.9282169938087463 -0.07865999639034271
vn -0.551459014415741 -0.8154469728469849 0.17589600384235382
vn -0.545117974281311 -0.8377789855003357 -0.03120099939405918
vn -0.28745898604393005 -0.7133740186691284 -0.6391119956970215
vn -0.5163559913635254 -0.8342559933662415 -0.19337500631809235
vn 0.09153400361537933 -0.48274698853492737 -0.8709629774093628
vn -0.19553600251674652 -0.4426180124282837 -0.8751310110092163
vn -0.11687900125980377 -0.5408160090446472 -0.8329809904098511
vn 0.1171329990029335 -0.4984860122203827 -0.8589479923248291
vn 0.7179499864578247 0.20642399787902832 -0.6647840142250061
vn 0.9678379893302917 0.1743669956922531 -0.18134500086307526
vn 0.7179499864578247 0.20642399787902832 -0.6647840142250061
vn 0.3382740020751953 0.15330900251865387 -0.928475022315979
vn -0.3749200105667114 0.09710399806499481 -0.9219580292701721
vn -0.8598430156707764 -0.0793439969420433 -0.5043550133705139
vn -0.9518589973449707 -0.306535005569458 -7.200000254670158e-05
vn -0.7328330278396606 -0.36305001378059387 0.575456976890564
vn -0.25943100452423096 -0.31005099415779114 0.9146389961242676
vn 0.2752879858016968 -0.23575900495052338 0.9320060014724731
vn 0.7054380178451538 -0.04634999856352806 0.7072539925575256
vn 0.9633139967918396 0.12151599675416946 0.2392909973859787
vn 0.7054380178451538 -0.04634999856352806 0.7072539925575256
vn 0.9472280144691467 0.06554900109767914 -0.3137870132923126
vn -0.9592180252075195 -0.001986999996006489 -0.28266099095344543
vn -0.8620169758796692 0.315436989068985 0.3967689871788025
vn -0.7731130123138428 -0.47893500328063965 0.4158320128917694
vn -0.9312019944190979 -0.13861599564552307 -0.337117999792099
vn 0.8500670194625854 -0.059815000742673874 -0.5232679843902588
vn 0.840490996837616 -0.28774601221084595 -0.4591050148010254
vn 0.844202995300293 -0.2885819971561432 -0.45170900225639343
vn 0.8575260043144226 -0.08589199930429459 -0.5072199702262878
vn -0.3306249976158142 -0.3512060046195984 -0.8759809732437134
vn -0.5076730251312256 -0.330161988735199 -0.7957770228385925
vn -0.49253299832344055 -0.1319819986820221 -0.8602280020713806
vn -0.25329700112342834 -0.16441300511360168 -0.953315019607544
vn 0.4589720070362091 0.06513900309801102 0.8860589861869812
vn 0.4793640077114105 0.1569409966468811 0.8634700179100037
vn 0.6852750182151794 0.18815399706363678 0.7035599946975708
vn 0.8218560218811035 0.028033999726176262 0.569005012512207
vn 0.019155999645590782 -0.900780975818634 0.4338499903678894
vn 0.019159000366926193 -0.9007729887962341 0.4338679909706116
vn 0.019158000126481056 -0.9007750153541565 0.4338630139827728
vn 0.019154999405145645 -0.9007840156555176 0.43384501338005066
vn -0.7410640120506287 -0.2759630084037781 0.6121010184288025
vn -0.7410699725151062 -0.2759769856929779 0.6120880246162415
vn -0.7410690188407898 -0.27597299218177795 0.6120920181274414
vn -0.7410629987716675 -0.2759590148925781 0.6121050119400024
vn -0.9142820239067078 0.008475000038743019 -0.40498998761177063
vn -0.8092380166053772 0.5279629826545715 0.25766199827194214
vn 0.7949050068855286 0.15528300404548645 -0.5865259766578674
vn 0.7949050068855286 0.15528300404548645 -0.5865259766578674
vn 0.7603099942207336 -0.6246870160102844 -0.17802999913692474
vn 0.7603110074996948 -0.6246870160102844 -0.17802999913692474
vn 0.7603099942207336 -0.6246870160102844 -0.17802999913692474
vn 0.7603110074996948 -0.6246870160102844 -0.17802999913692474
vn -0.5503649711608887 -0.47395598888397217 -0.6873599886894226
vn -0.4968990087509155 -0.4171290099620819 -0.7609829902648926
vn -0.4320729970932007 -0.5014470219612122 -0.7495750188827515
vn -0.9142820239067078 0.008475000038743019 -0.40498998761177063
vn -0.9592180252075195 -0.001986999996006489 -0.28266099095344543
vn -0.3750709891319275 -0.4153450131416321 -0.8287400007247925
vn 0.5549269914627075 0.26110100746154785 0.7898629903793335
vn 0.49880000948905945 0.35204198956489563 0.7920010089874268
vn 0.43665799498558044 0.28854700922966003 0.8520979881286621
vn 0.3753969967365265 0.40204399824142456 0.8351269960403442
vn 0.2652769982814789 0.2794080078601837 0.9228000044822693
vn 0.6119239926338196 0.34712299704551697 0.7106720209121704
vn 0.010689999908208847 0.21026499569416046 0.9775859713554382
vn -0.9312019944190979 -0.13861599564552307 -0.337117999792099
vn 0.002230999991297722 -0.9681209921836853 0.2504729926586151
vn 0.32846200466156006 -0.9133780002593994 0.24052700400352478
vn 0.28345000743865967 -0.9097509980201721 -0.3033300042152405
vn 0.27793800830841064 -0.815542995929718 -0.5075820088386536
vn -0.2779960036277771 0.14776399731636047 -0.9491490125656128
vn -0.31841200590133667 0.13137300312519073 -0.9388049840927124
vn -0.5544819831848145 -0.0656379982829094 -0.8296030163764954
vn -0.5289909839630127 -0.06428399682044983 -0.846189022064209
vn 0.41007500886917114 -0.1415179967880249 0.9010059833526611
vn 0.3902899920940399 -0.14657899737358093 0.9089490175247192
vn 0.62431800365448 0.047954000532627106 0.7796970009803772
vn 0.6505910158157349 0.07052499800920486 0.756147027015686
vn 0.5602560043334961 -0.8227360248565674 -0.09600900113582611
vn 0.4502770006656647 -0.841277003288269 -0.29917100071907043
vn 0.6540049910545349 -0.6441029906272888 -0.39674898982048035
vn 0.7549840211868286 -0.6257879734039307 -0.19593200087547302
vn -0.7536069750785828 0.5091249942779541 0.41577500104904175
vn -0.5603119730949402 0.7605760097503662 0.3279860019683838
vn -0.36215001344680786 0.7734339833259583 0.5202379822731018
vn -0.4800559878349304 0.44305700063705444 0.7571300268173218
vn -0.785211980342865 -0.46873098611831665 0.40463900566101074
vn -0.7850930094718933 -0.46891701221466064 0.40465500950813293
vn -0.7851290106773376 -0.46886101365089417 0.4046500027179718
vn -0.7852489948272705 -0.46867498755455017 0.4046339988708496
vn -0.806177020072937 -0.19786599278450012 -0.5576090216636658
vn -0.8062250018119812 -0.1976429969072342 -0.5576189756393433
vn -0.8062099814414978 -0.1977110058069229 -0.5576159954071045
vn -0.8061630129814148 -0.19793300330638885 -0.5576059818267822
vn -0.02105800062417984 0.271014004945755 -0.9623450040817261
vn -0.02105800062417984 0.2710230052471161 -0.9623420238494873
vn 0.80622398853302 0.19772300124168396 0.5575910210609436
vn 0.8062610030174255 0.19767700135707855 0.5575550198554993
vn 0.021044999361038208 -0.2710210084915161 0.9623429775238037
vn 0.02104800008237362 -0.2710239887237549 0.9623420238494873
vn 0.021046999841928482 -0.2710230052471161 0.9623429775238037
vn 0.02104399912059307 -0.27101999521255493 0.9623439908027649
vn 0.26528200507164 -0.9265310168266296 -0.2667689919471741
vn 0.37355899810791016 -0.8943470120429993 -0.2461629956960678
vn 0.33049800992012024 -0.9322729706764221 -0.14709800481796265
vn 0.3255229890346527 -0.8682569861412048 -0.3743860125541687
vn 0.3407610058784485 -0.8029209971427917 -0.489080011844635
vn 0.4558649957180023 -0.879751980304718 -0.13499799370765686
vn -0.450886994600296 0.8156610131263733 0.3624880015850067
vn -0.41488000750541687 0.8695489764213562 0.26787900924682617
vn -0.5160790085792542 0.8214510083198547 0.2426539957523346
vn -0.4558680057525635 0.8797699809074402 0.1348699927330017
vn -0.6101430058479309 0.7893630266189575 0.06804999709129333
vn -0.3254910111427307 0.8682010173797607 0.3745419979095459
vn -0.8846409916877747 0.4662329852581024 -0.006064999848604202
vn 0.537775993347168 -0.6052749752998352 -0.5868899822235107
vn -0.7678229808807373 -0.6344280242919922 0.0891600027680397
vn -0.6889690160751343 -0.5682700276374817 0.449878990650177
vn -0.551459014415741 -0.8154469728469849 0.17589600384235382
vn -0.545117974281311 -0.8377789855003357 -0.03120099939405918
vn -0.6566540002822876 -0.44922399520874023 0.6058080196380615
vn -0.5320219993591309 -0.7518709897994995 0.389411985874176
vn 0.20765900611877441 -0.4250220060348511 0.8810420036315918
vn 0.07972200214862823 -0.29355499148368835 0.9526119828224182
vn 0.3478269875049591 -0.31855499744415283 0.8817819952964783
vn 0.4479619860649109 -0.47875499725341797 0.7550650238990784
vn 0.8833950161933899 -0.2545979917049408 -0.3934380114078522
vn 0.8443740010261536 -0.24389499425888062 -0.4770190119743347
vn 0.7664440274238586 -0.2274319976568222 -0.6006979942321777
vn -0.19553600251674652 -0.4426180124282837 -0.8751310110092163
vn -0.429843008518219 -0.22463899850845337 -0.8745129704475403
vn -0.37570199370384216 -0.2435459941625595 -0.8941659927368164
vn -0.11687900125980377 -0.5408160090446472 -0.8329809904098511
vn -0.8427730202674866 0.2882060110569 0.4546099901199341
vn -0.952750027179718 0.2615549862384796 0.15445299446582794
vn -0.6528180241584778 0.2449759989976883 0.7168089747428894
vn 0.11522199958562851 0.11393699795007706 -0.9867839813232422
vn 0.0665230005979538 0.09769000113010406 -0.9929909706115723
vn -0.18207800388336182 -0.08150999993085861 -0.9799000024795532
vn -0.15998399257659912 -0.0831340029835701 -0.9836130142211914
vn 0.3100380003452301 0.0769369974732399 0.9476060271263123
vn 0.033518001437187195 -0.128028005361557 0.991204023361206
vn 0.002669000066816807 -0.12639400362968445 0.9919760227203369
vn 0.2645510137081146 0.05964900180697441 0.9625250101089478
vn 0.517533004283905 -0.8423320055007935 0.15045499801635742
vn 0.4935919940471649 -0.8661159873008728 -0.07880599796772003
vn 0.7275980114936829 -0.6793339848518372 -0.09542500227689743
vn 0.7441030144691467 -0.6556220054626465 0.12833799421787262
vn -0.6143779754638672 0.7841100096702576 0.0878169983625412
vn -0.49673500657081604 0.8191059827804565 0.28691399097442627
vn -0.7625300288200378 0.42910900712013245 0.48416298627853394
vn -0.8753489851951599 0.4748629927635193 0.09093300253152847
vn -0.9000840187072754 -0.42782801389694214 0.08253099769353867
vn -0.9001349806785583 -0.42772799730300903 0.08249600231647491
vn -0.9001200199127197 -0.42775800824165344 0.08250600099563599
vn -0.900068998336792 -0.42785900831222534 0.08254200220108032
vn -0.5369979739189148 -0.19706100225448608 -0.8202440142631531
vn -0.5369979739189148 -0.19706100225448608 -0.8202440142631531
vn -0.5369979739189148 -0.19706100225448608 -0.8202440142631531
vn -0.5369979739189148 -0.19706100225448608 -0.8202440142631531
vn 0.36305999755859375 0.23079000413417816 -0.9027310013771057
vn 0.36305999755859375 0.23079000413417816 -0.9027310013771057
vn 0.5370140075683594 0.19704300165176392 0.8202379941940308
vn 0.536998987197876 0.1970600038766861 0.8202440142631531
vn -0.363072007894516 -0.2307550013065338 0.9027349948883057
vn -0.36304500699043274 -0.23078300058841705 0.9027389883995056
vn -0.36305299401283264 -0.23077400028705597 0.9027379751205444
vn -0.3630799949169159 -0.23074600100517273 0.9027339816093445
vn 0.30687299370765686 -0.94439697265625 -0.1180810034275055
vn 0.4001159965991974 -0.9146199822425842 -0.058111000806093216
vn 0.32058200240135193 -0.9470549821853638 0.017700999975204468
vn 0.4063510000705719 -0.8925079703330994 -0.19572199881076813
vn 0.4674359858036041 -0.8325639963150024 -0.29721999168395996
vn 0.43377000093460083 -0.8978250026702881 0.07585199922323227
vn -0.5195840001106262 0.8432790040969849 0.13752199709415436
vn -0.4476490020751953 0.8920009732246399 0.0628110021352768
vn -0.5333449840545654 0.8458960056304932 0.001740999985486269
vn -0.43376800417900085 0.8978260159492493 -0.07585100084543228
vn -0.5743250250816345 0.7958089709281921 -0.19193300604820251
vn -0.4063510000705719 0.8925089836120605 0.19572000205516815
vn -0.8087570071220398 0.4593470096588135 -0.3673039972782135
vn 0.6953110098838806 -0.6451259851455688 -0.316787987947464
vn -0.8642979860305786 -0.4200280010700226 -0.27670401334762573
vn -0.8827790021896362 -0.396807998418808 -0.25148600339889526
vn -0.8698880076408386 -0.41324201226234436 -0.2693060040473938
vn -0.8561850190162659 -0.42954498529434204 -0.2871209979057312
vn -0.9583590030670166 0.07040800154209137 0.2767519950866699
vn -0.8809540271759033 -0.007899999618530273 0.4731369912624359
vn -0.7429800033569336 -0.37292400002479553 0.5557940006256104
vn -0.6753659844398499 -0.42608100175857544 0.6019430160522461
vn 0.08774799853563309 -0.24240300059318542 0.9661989808082581
vn -0.0018759999657049775 -0.3271520137786865 0.9449700117111206
vn 0.03690800070762634 -0.30096200108528137 0.952921986579895
vn 0.10691700130701065 -0.20543299615383148 0.9728130102157593
vn 0.937699019908905 -0.3394080102443695 0.07431299984455109
vn 0.9290090203285217 -0.35253700613975525 -0.11251799762248993
vn 0.9093629717826843 -0.35321199893951416 -0.2197750061750412
vn -0.094821996986866 -0.32805898785591125 -0.9398859739303589
vn -0.10284300148487091 -0.26372700929641724 -0.9590989947319031
vn -0.09277600049972534 -0.4327070116996765 -0.8967480063438416
vn -0.10036800056695938 -0.4381600022315979 -0.8932759761810303
vn -0.900367021560669 0.29263100028038025 -0.32203400135040283
vn 0.6287170052528381 -0.5208960175514221 -0.5773919820785522
vn -0.054586999118328094 0.539139986038208 -0.8404459953308105
vn -0.12728999555110931 0.08555500209331512 -0.9881690144538879
vn 0.6570649743080139 -0.4462209939956665 -0.6075789928436279
vn 0.3002980053424835 -0.5911070108413696 0.7486079931259155
vn 0.3036629855632782 -0.5206120014190674 0.7979670166969299
vn -0.6010169982910156 -0.013906000182032585 0.799115002155304
vn -0.4572570025920868 0.47116100788116455 0.7542700171470642
vn 0.3002980053424835 -0.5911070108413696 0.7486079931259155
vn 0.4969339966773987 -0.8650180101394653 0.06928200274705887
vn 0.7475399971008301 -0.6477320194244385 0.14706000685691833
vn 0.3036629855632782 -0.5206120014190674 0.7979670166969299
vn -0.9380260109901428 0.2269279956817627 -0.2619360089302063
vn -0.7067009806632996 0.6887109875679016 -0.16202199459075928
vn -0.8761849999427795 -0.4166710078716278 -0.24225200712680817
vn -0.8761849999427795 -0.4166710078716278 -0.24225200712680817
vn -0.8761849999427795 -0.4166710078716278 -0.24225200712680817
vn -0.8761849999427795 -0.4166710078716278 -0.24225200712680817
vn -0.2264380007982254 -0.16581200063228607 -0.9598090052604675
vn -0.2264380007982254 -0.16581100225448608 -0.9598090052604675
vn -0.2264380007982254 -0.16581100225448608 -0.9598079919815063
vn -0.2264380007982254 -0.16581200063228607 -0.9598079919815063
vn 0.7064530253410339 -0.5347710251808167 -0.46362200379371643
vn 0.08211900293827057 0.8298500180244446 -0.5519109964370728
vn 0.41540101170539856 -0.5932440161705017 0.6895679831504822
vn -0.2088869959115982 0.7713950276374817 0.601095974445343
vn -0.6497690081596375 -0.2508710026741028 0.7175400257110596
vn -0.6497690081596375 -0.2508710026741028 0.7175400257110596
vn -0.6497690081596375 -0.2508710026741028 0.7175400257110596
vn -0.6497690081596375 -0.2508710026741028 0.7175400257110596
vn 0.3244839906692505 -0.9451879858970642 -0.03647900000214577
vn 0.3919160068035126 -0.9184989929199219 0.052542999386787415
vn 0.29113098978996277 -0.9518870115280151 0.09567700326442719
vn 0.7064530253410339 -0.5347710251808167 -0.46362200379371643
vn 0.6287170052528381 -0.5208960175514221 -0.5773919820785522
vn 0.41540101170539856 -0.5932440161705017 0.6895679831504822
vn -0.5315589904785156 0.8467659950256348 -0.020800000056624413
vn -0.45296400785446167 0.8888610005378723 -0.06891299784183502
vn -0.4982199966907501 0.8534619808197021 -0.15290400385856628
vn 0.6570649743080139 -0.4462209939956665 -0.6075789928436279
vn -0.28745898604393005 -0.7133740186691284 -0.6391119956970215
vn -0.3598879873752594 -0.32816898822784424 -0.8733760118484497
vn -0.8756700158119202 -0.3879840075969696 -0.28752601146698
vn -0.5163559913635254 -0.8342559933662415 -0.19337500631809235
vn -0.649046003818512 -0.4192509949207306 0.634797990322113
vn -0.3408519923686981 -0.722836971282959 0.6011049747467041
vn 0.35414499044418335 -0.17349499464035034 0.9189559817314148
vn 0.44646599888801575 -0.360181987285614 0.8191080093383789
vn 0.44646599888801575 -0.360181987285614 0.8191080093383789
vn 0.9251440167427063 -0.31625598669052124 0.20997700095176697
vn 0.7622950077056885 -0.38185998797416687 -0.5225800275802612
vn 0.7622950077056885 -0.38185998797416687 -0.5225800275802612
vn 0.9923149943351746 -0.062203001230955124 -0.10696899890899658
vn -0.2446260005235672 -0.5997570157051086 -0.7618730068206787
vn -0.7388970255851746 -0.5428379774093628 -0.3991970121860504
vn -0.9631739854812622 -0.20995399355888367 -0.16797399520874023
vn -0.762952983379364 -0.33461201190948486 -0.5531160235404968
vn -0.7388970255851746 -0.5428379774093628 -0.3991970121860504
vn -0.9619219899177551 -0.2612929940223694 -0.08020299673080444
vn -0.9977030158042908 0.011827000416815281 -0.06669999659061432
vn -0.9631739854812622 -0.20995399355888367 -0.16797399520874023
vn -0.8907359838485718 -0.13928699493408203 0.43265300989151
vn -0.9957029819488525 0.01179799996316433 0.09185100346803665
vn -0.6841909885406494 -0.1804710030555725 0.706620991230011
vn -0.9830710291862488 -0.00748400017619133 0.1830729991197586
vn -0.6981030106544495 0.2751219868659973 0.6610299944877625
vn -0.0735279992222786 0.11355900019407272 0.9908069968223572
vn 0.47523099184036255 0.5816190242767334 0.660207986831665
vn -0.5303019881248474 0.7238540053367615 0.44137799739837646
vn -0.5303019881248474 0.7238540053367615 0.44137799739837646
vn 0.47523099184036255 0.5816190242767334 0.660207986831665
vn 0.7042989730834961 0.690339982509613 0.16550999879837036
vn -0.40647000074386597 0.9125890135765076 -0.04429800063371658
vn -0.4052560031414032 0.6806420087814331 -0.6103219985961914
vn 0.7760940194129944 0.5407580137252808 -0.3244369924068451
vn 0.6758710145950317 0.24750299751758575 -0.6942200064659119
vn -0.5347139835357666 0.3335219919681549 -0.7764310240745544
vn 0.6758710145950317 0.24750299751758575 -0.6942200064659119
vn 0.3271920084953308 -0.17866399884223938 -0.927914023399353
vn -0.5053420066833496 0.12702099978923798 -0.8535190224647522
vn -0.5347139835357666 0.3335219919681549 -0.7764310240745544
vn -0.48768699169158936 -0.07669699937105179 -0.869642972946167
vn -0.5130969882011414 0.12407699972391129 -0.8493149876594543
vn -0.8211920261383057 -0.021880000829696655 -0.5702319741249084
vn -0.8506579995155334 -0.12049800157546997 -0.5117239952087402
vn -0.8506579995155334 -0.12049800157546997 -0.5117239952087402
vn -0.8211920261383057 -0.021880000829696655 -0.5702319741249084
vn -0.9868869781494141 -0.16125400364398956 0.007114000152796507
vn -0.9929800033569336 -0.10537400096654892 0.05373400077223778
vn -0.7738879919052124 -0.24354200065135956 0.5846239924430847
vn -0.8105570077896118 -0.11326000094413757 0.5746039748191833
vn -0.40600401163101196 -0.25854599475860596 0.8765349984169006
vn -0.5150359869003296 -0.047231998294591904 0.855866014957428
vn 0.13046300411224365 -0.17633700370788574 0.9756460189819336
vn 0.7101510167121887 0.049966000020504 0.7022740244865417
vn 0.5879819989204407 0.3291580080986023 0.7388719916343689
vn 0.00853199977427721 0.11236900091171265 0.9936299920082092
vn 0.7101510167121887 0.049966000020504 0.7022740244865417
vn 0.9359899759292603 0.19865399599075317 0.29061898589134216
vn 0.8533700108528137 0.4281339943408966 0.2974250018596649
vn 0.5879819989204407 0.3291580080986023 0.7388719916343689
vn 0.931318998336792 0.28274598717689514 -0.22956299781799316
vn 0.6195859909057617 0.29153499007225037 -0.7287799715995789
vn 0.640854001045227 0.30066999793052673 -0.7063310146331787
vn 0.8790169954299927 0.4323410093784332 -0.20102199912071228
vn 0.6195859909057617 0.29153499007225037 -0.7287799715995789
vn 0.04964299872517586 0.23556500673294067 -0.9705899953842163
vn 0.09579700231552124 0.1166049987077713 -0.9885479807853699
vn 0.640854001045227 0.30066999793052673 -0.7063310146331787
vn -0.6841909885406494 -0.1804710030555725 0.706620991230011
vn -0.9830710291862488 -0.00748400017619133 0.1830729991197586
vn -0.5150359869003296 -0.047231998294591904 0.855866014957428
vn -0.40600401163101196 -0.25854599475860596 0.8765349984169006
vn -0.9631739854812622 -0.20995399355888367 -0.16797399520874023
vn -0.9999930262565613 0.0034630000591278076 0.001433999976143241
vn -0.762952983379364 -0.33461201190948486 -0.5531160235404968
vn -0.9977030158042908 0.011827000416815281 -0.06669999659061432
vn -0.9957029819488525 0.01179799996316433 0.09185100346803665
vn -0.9830710291862488 -0.00748400017619133 0.1830729991197586
vn -0.5303019881248474 0.7238540053367615 0.44137799739837646
vn -0.6981030106544495 0.2751219868659973 0.6610299944877625
vn -0.4052560031414032 0.6806420087814331 -0.6103219985961914
vn -0.40647000074386597 0.9125890135765076 -0.04429800063371658
vn -0.5347139835357666 0.3335219919681549 -0.7764310240745544
vn -0.5053420066833496 0.12702099978923798 -0.8535190224647522
vn 0.6330810189247131 0.350724995136261 0.6900720000267029
vn 0.8750519752502441 0.40177300572395325 0.26993200182914734
vn -0.006316999904811382 0.12147700041532516 0.9925739765167236
vn 0.6330810189247131 0.350724995136261 0.6900720000267029
vn -0.5341950058937073 -0.07018899917602539 0.8424429893493652
vn -0.5341950058937073 -0.07018899917602539 0.8424429893493652
vn -0.8131279945373535 -0.23888899385929108 0.5308060050010681
vn -0.9200469851493835 -0.39161500334739685 0.012299000285565853
vn -0.605912983417511 -0.6272979974746704 -0.4892520010471344
vn -0.605912983417511 -0.6272979974746704 -0.4892520010471344
vn -0.15430699288845062 -0.6478149890899658 -0.7460060119628906
vn 0.3946189880371094 -0.3854590058326721 -0.8340849876403809
vn 0.7618089914321899 -0.0022360000293701887 -0.6477980017662048
vn 0.7618089914321899 -0.0022360000293701887 -0.6477980017662048
vn 0.929606020450592 0.3028630018234253 -0.21001499891281128
vn 0.7179499864578247 0.20642399787902832 -0.6647840142250061
vn 0.3382740020751953 0.15330900251865387 -0.928475022315979
vn 0.9678379893302917 0.1743669956922531 -0.18134500086307526
vn 0.7179499864578247 0.20642399787902832 -0.6647840142250061
vn 0.9633139967918396 0.12151599675416946 0.2392909973859787
vn 0.7054380178451538 -0.04634999856352806 0.7072539925575256
vn 0.2752879858016968 -0.23575900495052338 0.9320060014724731
vn 0.7054380178451538 -0.04634999856352806 0.7072539925575256
vn -0.25943100452423096 -0.31005099415779114 0.9146389961242676
vn -0.7328330278396606 -0.36305001378059387 0.575456976890564
vn -0.25943100452423096 -0.31005099415779114 0.9146389961242676
vn -0.9518589973449707 -0.306535005569458 -7.200000254670158e-05
vn -0.8598430156707764 -0.0793439969420433 -0.5043550133705139
vn -0.3749200105667114 0.09710399806499481 -0.9219580292701721
vn -0.8598430156707764 -0.0793439969420433 -0.5043550133705139

vt 0.44401100277900696 0.08906900882720947
vt 0.41690900921821594 0.10198301076889038
vt 0.41802701354026794 0.0844690203666687
vt 0.44200199842453003 0.08025902509689331
vt 0.4606879949569702 0.07889997959136963
vt 0.4632740020751953 0.0849909782409668
vt 0.45525500178337097 0.08589702844619751
vt 0.4510110020637512 0.08009099960327148
vt 0.4785290062427521 0.07875597476959229
vt 0.48080500960350037 0.08466798067092896
vt 0.5008209943771362 0.07998800277709961
vt 0.5026739835739136 0.09574198722839355
vt 0.5092530250549316 0.08026701211929321
vt 0.5128390192985535 0.09319198131561279
vt 0.5397250056266785 0.07267701625823975
vt 0.5505489706993103 0.09191197156906128
vt 0.5254489779472351 0.09296202659606934
vt 0.519195020198822 0.07817602157592773
vt 0.4755620062351227 0.15573501586914062
vt 0.46905601024627686 0.13527101278305054
vt 0.4685629904270172 0.1554570198059082
vt 0.42635101079940796 0.13051998615264893
vt 0.4204939901828766 0.1473100185394287
vt 0.4305639863014221 0.15053701400756836
vt 0.4415059983730316 0.1340630054473877
vt 0.5417860150337219 0.19014602899551392
vt 0.5387549996376038 0.1829100251197815
vt 0.5342659950256348 0.19256699085235596
vt 0.537900984287262 0.19669300317764282
vt 0.5355280041694641 0.15627402067184448
vt 0.5257920026779175 0.1548910140991211
vt 0.528223991394043 0.1613820195198059
vt 0.539313018321991 0.16950297355651855
vt 0.5466690063476562 0.17494797706604004
vt 0.5466690063476562 0.15155601501464844
vt 0.5284889936447144 0.19992899894714355
vt 0.5301349759101868 0.20557302236557007
vt 0.5213369727134705 0.16888302564620972
vt 0.5315420031547546 0.1717349886894226
vt 0.5164099931716919 0.15939897298812866
vt 0.5067189931869507 0.14974898099899292
vt 0.4407519996166229 0.15334397554397583
vt 0.44867101311683655 0.1545649766921997
vt 0.4549050033092499 0.1362689733505249
vt 0.5065609812736511 0.2042040228843689
vt 0.5019180178642273 0.20995301008224487
vt 0.5284609794616699 0.18741202354431152
vt 0.5244989991188049 0.1929519772529602
vt 0.49487099051475525 0.17254501581192017
vt 0.5021719932556152 0.1807519793510437
vt 0.5019710063934326 0.16216999292373657
vt 0.49713900685310364 0.15707802772521973
vt 0.496381014585495 0.18926697969436646
vt 0.5081890225410461 0.19459301233291626
vt 0.5013759732246399 0.1427670121192932
vt 0.48549899458885193 0.1639609932899475
vt 0.49713900685310364 0.15707802772521973
vt 0.5067189931869507 0.14974898099899292
vt 0.46263301372528076 0.11036801338195801
vt 0.4516560137271881 0.11054801940917969
vt 0.5244219899177551 0.05274701118469238
vt 0.5128380060195923 0.0625389814376831
vt 0.5034250020980835 0.06707000732421875
vt 0.49410098791122437 0.06954598426818848
vt 0.47475099563598633 0.06886798143386841
vt 0.4559139907360077 0.06726300716400146
vt 0.44787898659706116 0.06640499830245972
vt 0.43939098715782166 0.06597298383712769
vt 0.424685001373291 0.06425398588180542
vt 0.44040200114250183 0.11013400554656982
vt 0.4280700087547302 0.10863602161407471
vt 0.4583140015602112 0.15718698501586914
vt 0.5337510108947754 0.14133697748184204
vt 0.5316029787063599 0.14183801412582397
vt 0.5326219797134399 0.14862197637557983
vt 0.5361390113830566 0.14762699604034424
vt 0.5218600034713745 0.13813400268554688
vt 0.5174030065536499 0.1423090100288391
vt 0.520117998123169 0.1453229784965515
vt 0.5235440135002136 0.1393280029296875
vt 0.5155529975891113 0.11571300029754639
vt 0.511372983455658 0.1158210039138794
vt 0.511044979095459 0.10669302940368652
vt 0.5159729719161987 0.10697102546691895
vt 0.5257859826087952 0.14862900972366333
vt 0.5276870131492615 0.1414009928703308
vt 0.5235440135002136 0.1393280029296875
vt 0.520117998123169 0.1453229784965515
vt 0.5343719720840454 0.12696397304534912
vt 0.5303710103034973 0.12563002109527588
vt 0.5293859839439392 0.12823998928070068
vt 0.5334590077400208 0.12941902875900269
vt 0.5358039736747742 0.13409501314163208
vt 0.5352759957313538 0.12833797931671143
vt 0.5334590077400208 0.12941902875900269
vt 0.5340080261230469 0.1351969838142395
vt 0.535742998123169 0.1355000138282776
vt 0.5340080261230469 0.1351969838142395
vt 0.5235999822616577 0.1315630078315735
vt 0.525177001953125 0.1325259804725647
vt 0.5288410186767578 0.1260870099067688
vt 0.5246340036392212 0.13038599491119385
vt 0.525177001953125 0.1325259804725647
vt 0.5293859839439392 0.12823998928070068
vt 0.5086789727210999 0.12635797262191772
vt 0.5116299986839294 0.1209859848022461
vt 0.5147899985313416 0.12624698877334595
vt 0.505511999130249 0.12113797664642334
vt 0.507548987865448 0.11582601070404053
vt 0.5177749991416931 0.12093597650527954
vt 0.5293859839439392 0.12823998928070068
vt 0.5289760231971741 0.13535797595977783
vt 0.5334590077400208 0.12941902875900269
vt 0.5340080261230469 0.1351969838142395
vt 0.5316029787063599 0.14183801412582397
vt 0.525177001953125 0.1325259804725647
vt 0.5326219797134399 0.14862197637557983
vt 0.5065280199050903 0.1070290207862854
vt 0.5257859826087952 0.14862900972366333
vt 0.520117998123169 0.1453229784965515
vt 0.520117998123169 0.1453229784965515
vt 0.5174030065536499 0.1423090100288391
vt 0.43013298511505127 0.031642019748687744
vt 0.42800599336624146 0.03234797716140747
vt 0.4293079972267151 0.04134601354598999
vt 0.43233999609947205 0.04061400890350342
vt 0.4194070100784302 0.039614975452423096
vt 0.4222530126571655 0.04043799638748169
vt 0.4223729968070984 0.03220397233963013
vt 0.4203140139579773 0.03167402744293213
vt 0.46576398611068726 0.18300199508666992
vt 0.46911200881004333 0.18295300006866455
vt 0.4687710106372833 0.17459499835968018
vt 0.46490299701690674 0.17469900846481323
vt 0.4260860085487366 0.04118502140045166
vt 0.4254249930381775 0.03307098150253296
vt 0.4223729968070984 0.03220397233963013
vt 0.4222530126571655 0.04043799638748169
vt 0.4274980127811432 0.01792597770690918
vt 0.4221329987049103 0.017526984214782715
vt 0.4222699999809265 0.02008301019668579
vt 0.4274500012397766 0.020619988441467285
vt 0.43209901452064514 0.023132026195526123
vt 0.4291819930076599 0.018477976322174072
vt 0.4274500012397766 0.020619988441467285
vt 0.4302240014076233 0.02508598566055298
vt 0.43239501118659973 0.024854004383087158
vt 0.4302240014076233 0.02508598566055298
vt 0.41774100065231323 0.025004029273986816
vt 0.4200870096683502 0.024617016315460205
vt 0.42062801122665405 0.018227994441986084
vt 0.4179440140724182 0.02313297986984253
vt 0.4200870096683502 0.024617016315460205
vt 0.4222699999809265 0.02008301019668579
vt 0.4726890027523041 0.19327402114868164
vt 0.46926701068878174 0.1881210207939148
vt 0.46642300486564636 0.19353902339935303
vt 0.4755620062351227 0.18792402744293213
vt 0.47218599915504456 0.18273699283599854
vt 0.4629800021648407 0.18841201066970825
vt 0.4222699999809265 0.02008301019668579
vt 0.4250760078430176 0.026731014251708984
vt 0.4274500012397766 0.020619988441467285
vt 0.4302240014076233 0.02508598566055298
vt 0.42800599336624146 0.03234797716140747
vt 0.4200870096683502 0.024617016315460205
vt 0.4293079972267151 0.04134601354598999
vt 0.4723289906978607 0.17427200078964233
vt 0.43175598978996277 0.04872101545333862
vt 0.42706501483917236 0.047792017459869385
vt 0.42917001247406006 0.06120097637176514
vt 0.4361419975757599 0.06245297193527222
vt 0.42155200242996216 0.04786199331283569
vt 0.42108801007270813 0.056191980838775635
vt 0.411624014377594 0.05746901035308838
vt 0.42108801007270813 0.056191980838775635
vt 0.42155200242996216 0.04786199331283569
vt 0.4152970016002655 0.050300002098083496
vt 0.4632419943809509 0.16390198469161987
vt 0.4684309959411621 0.16366201639175415
vt 0.4732989966869354 0.1632000207901001
vt 0.44203799962997437 0.05536097288131714
vt 0.4371980130672455 0.04868602752685547
vt 0.43175598978996277 0.04872101545333862
vt 0.4361419975757599 0.06245297193527222
vt 0.42706501483917236 0.047792017459869385
vt 0.43175598978996277 0.04872101545333862
vt 0.42155200242996216 0.04786199331283569
vt 0.468421995639801 0.03068000078201294
vt 0.46632200479507446 0.03131598234176636
vt 0.4667789936065674 0.03994297981262207
vt 0.46994900703430176 0.03891301155090332
vt 0.45844700932502747 0.031041979789733887
vt 0.4561299979686737 0.03846299648284912
vt 0.45963001251220703 0.039469003677368164
vt 0.46044498682022095 0.031484007835388184
vt 0.44042399525642395 0.18300402164459229
vt 0.44380900263786316 0.1837170124053955
vt 0.4453069865703583 0.1755710244178772
vt 0.44133201241493225 0.17486900091171265
vt 0.4634479880332947 0.03215599060058594
vt 0.46044498682022095 0.031484007835388184
vt 0.45963001251220703 0.039469003677368164
vt 0.46319401264190674 0.0399399995803833
vt 0.4664520025253296 0.017090022563934326
vt 0.4611549973487854 0.01669102907180786
vt 0.46115899085998535 0.019614994525909424
vt 0.4663490056991577 0.019886016845703125
vt 0.47089800238609314 0.022880971431732178
vt 0.46815499663352966 0.01822298765182495
vt 0.4663490056991577 0.019886016845703125
vt 0.4687429964542389 0.024695992469787598
vt 0.47096601128578186 0.024645984172821045
vt 0.4687429964542389 0.024695992469787598
vt 0.456153005361557 0.024434983730316162
vt 0.45851999521255493 0.024492979049682617
vt 0.4594910144805908 0.01803898811340332
vt 0.4565410017967224 0.02272099256515503
vt 0.45851999521255493 0.024492979049682617
vt 0.46115899085998535 0.019614994525909424
vt 0.44496798515319824 0.1943889856338501
vt 0.4427559971809387 0.1886870265007019
vt 0.43867799639701843 0.19332700967788696
vt 0.4490549862384796 0.1898760199546814
vt 0.44694000482559204 0.18423497676849365
vt 0.43638598918914795 0.18756002187728882
vt 0.46115899085998535 0.019614994525909424
vt 0.4633060097694397 0.025963008403778076
vt 0.4663490056991577 0.019886016845703125
vt 0.4687429964542389 0.024695992469787598
vt 0.46632200479507446 0.03131598234176636
vt 0.45851999521255493 0.024492979049682617
vt 0.4667789936065674 0.03994297981262207
vt 0.4489290118217468 0.1759750247001648
vt 0.47178998589515686 0.05874300003051758
vt 0.4683220088481903 0.04750800132751465
vt 0.46327900886535645 0.04688000679016113
vt 0.46227800846099854 0.060581982135772705
vt 0.46327900886535645 0.04688000679016113
vt 0.4576689898967743 0.04714202880859375
vt 0.45511001348495483 0.05645298957824707
vt 0.46227800846099854 0.060581982135772705
vt 0.45188599824905396 0.047788023948669434
vt 0.4470619857311249 0.0570489764213562
vt 0.45511001348495483 0.05645298957824707
vt 0.4576689898967743 0.04714202880859375
vt 0.4420419931411743 0.1637910008430481
vt 0.4474720060825348 0.16464000940322876
vt 0.4522880017757416 0.16550898551940918
vt 0.4741840064525604 0.04810202121734619
vt 0.4683220088481903 0.04750800132751465
vt 0.47178998589515686 0.05874300003051758
vt 0.48156100511550903 0.056373000144958496
vt 0.4683220088481903 0.04750800132751465
vt 0.5051850080490112 0.0334169864654541
vt 0.5029069781303406 0.03406602144241333
vt 0.5041919946670532 0.04036599397659302
vt 0.5077810287475586 0.03961300849914551
vt 0.494922012090683 0.032836973667144775
vt 0.4932360053062439 0.03895300626754761
vt 0.49605000019073486 0.039565980434417725
vt 0.49684301018714905 0.03350698947906494
vt 0.42182400822639465 0.1737610101699829
vt 0.42503899335861206 0.1746150255203247
vt 0.42656201124191284 0.1679229736328125
vt 0.42288100719451904 0.16667300462722778
vt 0.5005059838294983 0.0406000018119812
vt 0.5001069903373718 0.03464198112487793
vt 0.5024480223655701 0.019658029079437256
vt 0.4971820116043091 0.019361019134521484
vt 0.4973770081996918 0.022226989269256592
vt 0.502236008644104 0.02255702018737793
vt 0.5069220066070557 0.024991989135742188
vt 0.5041369795799255 0.020326972007751465
vt 0.502236008644104 0.02255702018737793
vt 0.5049189925193787 0.026916980743408203
vt 0.5074920058250427 0.026480019092559814
vt 0.5049189925193787 0.026916980743408203
vt 0.49264198541641235 0.026533007621765137
vt 0.4953030049800873 0.026660025119781494
vt 0.4957050085067749 0.020298004150390625
vt 0.4929890036582947 0.02497798204421997
vt 0.4953030049800873 0.026660025119781494
vt 0.4973770081996918 0.022226989269256592
vt 0.42566099762916565 0.1855120062828064
vt 0.42378801107406616 0.17962098121643066
vt 0.41962599754333496 0.1840749979019165
vt 0.4298590123653412 0.1810929775238037
vt 0.4280259907245636 0.17527300119400024
vt 0.4176819920539856 0.17812097072601318
vt 0.4973770081996918 0.022226989269256592
vt 0.4997510015964508 0.028721988201141357
vt 0.502236008644104 0.02255702018737793
vt 0.4300140142440796 0.1687059998512268
vt 0.5106639862060547 0.055307984352111816
vt 0.5052679777145386 0.04659402370452881
vt 0.5006260275840759 0.04633301496505737
vt 0.49938899278640747 0.05855900049209595
vt 0.4956269860267639 0.046594977378845215
vt 0.49219900369644165 0.057412028312683105
vt 0.4862369894981384 0.05649799108505249
vt 0.49035200476646423 0.045108020305633545
vt 0.42329099774360657 0.15918898582458496
vt 0.42800599336624146 0.16059398651123047
vt 0.43253400921821594 0.16180700063705444
vt 0.510798990726471 0.0451740026473999
vt 0.5176339745521545 0.05404698848724365
vt 0.31140100955963135 0.5367929935455322
vt 0.3112730085849762 0.5007390081882477
vt 0.35216599702835083 0.5007390081882477
vt 0.35216599702835083 0.5367929935455322
vt 0.3112730085849762 0.5007390081882477
vt 0.3086419999599457 0.4574049711227417
vt 0.35216599702835083 0.4574049711227417
vt 0.35216599702835083 0.5007390081882477
vt 0.31032800674438477 0.405394971370697
vt 0.35216599702835083 0.405394971370697
vt 0.312296986579895 0.3757359981536865
vt 0.35216599702835083 0.3757359981536865
vt 0.35216599702835083 0.8152160048484802
vt 0.31231701374053955 0.8152160048484802
vt 0.3165160119533539 0.7507600039243698
vt 0.35216599702835083 0.7507600039243698
vt 0.35216599702835083 0.7507600039243698
vt 0.3165160119533539 0.7507600039243698
vt 0.3165070116519928 0.7143880128860474
vt 0.35216599702835083 0.7143880128860474
vt 0.35216599702835083 0.6636689901351929
vt 0.3164289891719818 0.6636689901351929
vt 0.3134549856185913 0.6268309950828552
vt 0.35216599702835083 0.6268309950828552
vt 0.3134549856185913 0.6268309950828552
vt 0.312034010887146 0.581730991601944
vt 0.35216599702835083 0.581730991601944
vt 0.35216599702835083 0.6268309950828552
vt 0.27055299282073975 0.5367929935455322
vt 0.25761300325393677 0.5367929935455322
vt 0.2568190097808838 0.5007390081882477
vt 0.26941999793052673 0.5007390081882477
vt 0.26941999793052673 0.5007390081882477
vt 0.2568190097808838 0.5007390081882477
vt 0.2516700029373169 0.4574049711227417
vt 0.26207399368286133 0.4574049711227417
vt 0.25329598784446716 0.405394971370697
vt 0.26439398527145386 0.405394971370697
vt 0.2556169927120209 0.3757359981536865
vt 0.2677049934864044 0.3757359981536865
vt 0.2585749924182892 0.8152160048484802
vt 0.26209700107574463 0.7507600039243698
vt 0.27695098519325256 0.7507600039243698
vt 0.27192598581314087 0.8152160048484802
vt 0.26209700107574463 0.7507600039243698
vt 0.2619679868221283 0.7143880128860474
vt 0.27676698565483093 0.7143880128860474
vt 0.27695098519325256 0.7507600039243698
vt 0.261694997549057 0.6636689901351929
vt 0.260888010263443 0.6268309950828552
vt 0.27522599697113037 0.6268309950828552
vt 0.27637800574302673 0.6636689901351929
vt 0.260888010263443 0.6268309950828552
vt 0.25842899084091187 0.581730991601944
vt 0.27171799540519714 0.581730991601944
vt 0.27522599697113037 0.6268309950828552
vt 0.31228500604629517 0.8749939948320389
vt 0.35216599702835083 0.8749939948320389
vt 0.2714950144290924 0.8749939948320389
vt 0.25827300548553467 0.8749939948320389
vt 0.944890022277832 0.23396897315979004
vt 0.9137889742851257 0.2967219948768616
vt 0.9330769777297974 0.23396897315979004
vt 0.944890022277832 0.3033180236816406
vt 0.944890022277832 0.359142005443573
vt 0.9294800162315369 0.359142005443573
vt 0.8824570178985596 0.359142005443573
vt 0.9172149896621704 0.359142005443573
vt 0.8824570178985596 0.23396897315979004
vt 0.8824570178985596 0.3022649884223938
vt 0.8982530236244202 0.23396897315979004
vt 0.9190250039100647 0.23396897315979004
vt 0.2925480008125305 0.7507600039243698
vt 0.2925339937210083 0.7143880128860474
vt 0.28552699089050293 0.8152160048484802
vt 0.2925480008125305 0.7507600039243698
vt 0.2854729890823364 0.8749939948320389
vt 0.28549298644065857 0.3757359981536865
vt 0.28220000863075256 0.405394971370697
vt 0.27938100695610046 0.4574049711227417
vt 0.2837800085544586 0.5007390081882477
vt 0.2837800085544586 0.5007390081882477
vt 0.28399500250816345 0.5367929935455322
vt 0.285053014755249 0.581730991601944
vt 0.2874299883842468 0.6268309950828552
vt 0.2874299883842468 0.6268309950828552
vt 0.2924030125141144 0.6636689901351929
vt 0.227292999625206 0.6268309950828552
vt 0.227292999625206 0.581730991601944
vt 0.227292999625206 0.6636689901351929
vt 0.227292999625206 0.6268309950828552
vt 0.227292999625206 0.7143880128860474
vt 0.227292999625206 0.7507600039243698
vt 0.227292999625206 0.8152160048484802
vt 0.227292999625206 0.7507600039243698
vt 0.227292999625206 0.8749939948320389
vt 0.227292999625206 0.405394971370697
vt 0.227292999625206 0.3757359981536865
vt 0.227292999625206 0.4574049711227417
vt 0.227292999625206 0.5007390081882477
vt 0.227292999625206 0.5367929935455322
vt 0.227292999625206 0.5007390081882477

usemtl Material

f 1/1/1 2/2/2 3/3/3
f 3/3/3 4/4/4 1/1/1
f 5/5/5 6/6/6 7/7/7
f 7/7/7 8/8/8 5/5/5
f 6/6/6 5/5/5 9/9/9
f 9/9/9 10/10/10 6/6/6
f 11/11/11 12/12/12 10/10/10
f 10/10/10 9/9/9 11/11/11
f 13/13/13 14/14/14 12/12/12
f 12/12/12 11/11/11 13/13/13
f 15/15/15 16/16/16 17/17/17
f 17/17/17 18/18/18 15/15/15
f 19/19/19 20/20/20 21/21/21
f 22/22/22 23/23/23 24/24/24
f 24/24/24 25/25/25 22/22/22
f 26/26/26 27/27/27 28/28/28
f 28/28/28 29/29/29 26/26/26
f 30/30/30 31/31/31 32/32/32
f 32/32/32 33/33/33 30/30/30
f 30/30/30 33/33/33 34/34/34
f 34/34/34 35/35/35 30/30/30
f 27/27/27 26/26/26 34/34/34
f 34/34/34 33/33/33 27/27/27
f 8/8/8 7/7/7 1/1/1
f 1/1/1 4/4/4 8/8/8
f 29/29/29 28/28/28 36/36/36
f 36/36/36 37/37/37 29/29/29
f 38/38/38 39/39/39 32/32/32
f 32/32/32 40/40/40 38/38/38
f 31/31/31 41/41/41 40/40/40
f 40/40/40 32/32/32 31/31/31
f 14/14/14 13/13/13 18/18/18
f 18/18/18 17/17/17 14/14/14
f 25/25/25 42/42/42 43/43/43
f 43/43/43 44/44/44 25/25/25
f 45/45/45 46/46/46 37/37/37
f 37/37/37 36/36/36 45/45/45
f 28/28/28 47/47/47 48/48/48
f 48/48/48 36/36/36 28/28/28
f 38/38/38 49/49/49 50/50/50
f 51/51/51 40/40/40 41/41/41
f 41/41/41 52/52/52 51/51/51
f 48/48/48 53/53/53 54/54/54
f 38/38/38 40/40/40 51/51/51
f 51/51/51 49/49/49 38/38/38
f 55/55/55 56/56/56 57/57/57
f 57/57/57 58/58/58 55/55/55
f 45/45/45 36/36/36 48/48/48
f 48/48/48 54/54/54 45/45/45
f 48/48/48 38/38/38 50/50/50
f 50/50/50 53/53/53 48/48/48
f 44/44/44 20/20/20 59/59/59
f 59/59/59 60/60/60 44/44/44
f 61/61/61 15/15/15 18/18/18
f 18/18/18 62/62/62 61/61/61
f 13/13/13 63/63/63 62/62/62
f 62/62/62 18/18/18 13/13/13
f 63/63/63 13/13/13 11/11/11
f 11/11/11 64/64/64 63/63/63
f 64/64/64 11/11/11 9/9/9
f 9/9/9 65/65/65 64/64/64
f 5/5/5 66/66/66 65/65/65
f 65/65/65 9/9/9 5/5/5
f 66/66/66 5/5/5 8/8/8
f 8/8/8 67/67/67 66/66/66
f 67/67/67 8/8/8 4/4/4
f 4/4/4 68/68/68 67/67/67
f 4/4/4 3/3/3 69/69/69
f 69/69/69 68/68/68 4/4/4
f 22/22/22 25/25/25 70/70/70
f 70/70/70 71/71/71 22/22/22
f 25/25/25 44/44/44 60/60/60
f 60/60/60 70/70/70 25/25/25
f 44/44/44 72/72/72 21/21/21
f 21/21/21 20/20/20 44/44/44
f 72/72/72 44/44/44 43/43/43
f 42/42/42 25/25/25 24/24/24
f 39/39/39 27/27/27 33/33/33
f 33/33/33 32/32/32 39/39/39
f 47/47/47 28/28/28 27/27/27
f 27/27/27 39/39/39 47/47/47
f 38/38/38 48/48/48 47/47/47
f 47/47/47 39/39/39 38/38/38
f 73/73/73 74/74/74 75/75/75
f 75/75/75 76/76/76 73/73/73
f 77/77/77 78/78/78 79/79/79
f 79/79/79 80/80/80 77/77/77
f 81/81/81 82/82/82 83/83/83
f 83/83/83 84/84/84 81/81/81
f 85/85/85 86/86/86 87/87/87
f 87/87/87 88/88/88 85/85/85
f 89/89/89 90/90/90 91/91/91
f 91/91/91 92/92/92 89/89/89
f 93/93/93 94/94/94 95/95/95
f 95/95/95 96/96/96 93/93/93
f 73/73/73 97/97/97 98/98/98
f 98/98/98 74/74/74 73/73/73
f 99/99/99 77/77/77 80/80/80
f 80/80/80 100/100/100 99/99/99
f 101/101/101 102/102/102 103/103/103
f 103/103/103 104/104/104 101/101/101
f 105/105/105 106/106/106 107/107/107
f 108/108/108 106/106/106 105/105/105
f 109/109/109 106/106/106 108/108/108
f 81/81/81 106/106/106 82/82/82
f 110/110/110 106/106/106 81/81/81
f 107/107/107 106/106/106 110/110/110
f 111/111/111 112/112/112 113/113/113
f 113/113/113 112/112/112 114/114/114
f 114/114/114 112/112/112 115/115/115
f 115/115/115 112/112/112 86/86/86
f 87/87/87 112/112/112 116/116/116
f 116/116/116 112/112/112 111/111/111
f 115/115/115 86/86/86 85/85/85
f 85/85/85 117/117/117 115/115/115
f 82/82/82 109/109/109 118/118/118
f 118/118/118 83/83/83 82/82/82
f 112/112/112 87/87/87 86/86/86
f 106/106/106 109/109/109 82/82/82
f 75/75/75 119/119/119 31/31/31
f 31/31/31 30/30/30 75/75/75
f 31/31/31 119/119/119 120/120/120
f 120/120/120 41/41/41 31/31/31
f 58/58/58 121/121/121 122/122/122
f 122/122/122 55/55/55 58/58/58
f 84/84/84 83/83/83 14/14/14
f 14/14/14 17/17/17 84/84/84
f 83/83/83 118/118/118 12/12/12
f 12/12/12 14/14/14 83/83/83
f 76/76/76 75/75/75 30/30/30
f 30/30/30 35/35/35 76/76/76
f 123/123/123 124/124/124 125/125/125
f 125/125/125 126/126/126 123/123/123
f 127/127/127 128/128/128 129/129/129
f 129/129/129 130/130/130 127/127/127
f 131/131/131 132/132/132 133/133/133
f 133/133/133 134/134/134 131/131/131
f 135/135/135 136/136/136 137/137/137
f 137/137/137 138/138/138 135/135/135
f 139/139/139 140/140/140 141/141/141
f 141/141/141 142/142/142 139/139/139
f 143/143/143 144/144/144 145/145/145
f 145/145/145 146/146/146 143/143/143
f 123/123/123 147/147/147 148/148/148
f 148/148/148 124/124/124 123/123/123
f 149/149/149 130/130/130 129/129/129
f 129/129/129 150/150/150 149/149/149
f 151/151/151 152/152/152 153/153/153
f 153/153/153 154/154/154 151/151/151
f 155/155/155 156/156/156 157/157/157
f 158/158/158 156/156/156 155/155/155
f 159/159/159 156/156/156 158/158/158
f 131/131/131 156/156/156 132/132/132
f 160/160/160 156/156/156 131/131/131
f 157/157/157 156/156/156 160/160/160
f 161/161/161 162/162/162 163/163/163
f 163/163/163 162/162/162 164/164/164
f 164/164/164 162/162/162 165/165/165
f 165/165/165 162/162/162 136/136/136
f 137/137/137 162/162/162 166/166/166
f 166/166/166 162/162/162 161/161/161
f 165/165/165 136/136/136 135/135/135
f 135/135/135 167/167/167 165/165/165
f 133/133/133 132/132/132 159/159/159
f 159/159/159 168/168/168 133/133/133
f 162/162/162 137/137/137 136/136/136
f 156/156/156 159/159/159 132/132/132
f 169/169/169 170/170/170 171/171/171
f 171/171/171 172/172/172 169/169/169
f 170/170/170 173/173/173 174/174/174
f 174/174/174 171/171/171 170/170/170
f 175/175/175 176/176/176 177/177/177
f 177/177/177 178/178/178 175/175/175
f 179/179/179 180/180/180 21/21/21
f 21/21/21 72/72/72 179/179/179
f 21/21/21 180/180/180 181/181/181
f 181/181/181 19/19/19 21/21/21
f 182/182/182 183/183/183 184/184/184
f 184/184/184 185/185/185 182/182/182
f 167/167/167 135/135/135 186/186/186
f 186/186/186 187/187/187 167/167/167
f 186/186/186 135/135/135 138/138/138
f 138/138/138 188/188/188 186/186/186
f 127/127/127 178/178/178 177/177/177
f 177/177/177 128/128/128 127/127/127
f 134/134/134 133/133/133 180/180/180
f 180/180/180 179/179/179 134/134/134
f 180/180/180 133/133/133 168/168/168
f 168/168/168 181/181/181 180/180/180
f 126/126/126 125/125/125 184/184/184
f 184/184/184 183/183/183 126/126/126
f 189/189/189 190/190/190 191/191/191
f 191/191/191 192/192/192 189/189/189
f 193/193/193 194/194/194 195/195/195
f 195/195/195 196/196/196 193/193/193
f 197/197/197 198/198/198 199/199/199
f 199/199/199 200/200/200 197/197/197
f 201/201/201 202/202/202 203/203/203
f 203/203/203 204/204/204 201/201/201
f 205/205/205 206/206/206 207/207/207
f 207/207/207 208/208/208 205/205/205
f 209/209/209 210/210/210 211/211/211
f 211/211/211 212/212/212 209/209/209
f 189/189/189 213/213/213 214/214/214
f 214/214/214 190/190/190 189/189/189
f 215/215/215 193/193/193 196/196/196
f 196/196/196 216/216/216 215/215/215
f 217/217/217 218/218/218 219/219/219
f 219/219/219 220/220/220 217/217/217
f 221/221/221 222/222/222 223/223/223
f 224/224/224 222/222/222 221/221/221
f 225/225/225 222/222/222 224/224/224
f 197/197/197 222/222/222 198/198/198
f 226/226/226 222/222/222 197/197/197
f 223/223/223 222/222/222 226/226/226
f 227/227/227 228/228/228 229/229/229
f 229/229/229 228/228/228 230/230/230
f 230/230/230 228/228/228 231/231/231
f 231/231/231 228/228/228 201/201/201
f 202/202/202 228/228/228 232/232/232
f 232/232/232 228/228/228 227/227/227
f 231/231/231 201/201/201 204/204/204
f 204/204/204 233/233/233 231/231/231
f 199/199/199 198/198/198 225/225/225
f 225/225/225 234/234/234 199/199/199
f 228/228/228 202/202/202 201/201/201
f 222/222/222 225/225/225 198/198/198
f 235/235/235 236/236/236 237/237/237
f 237/237/237 238/238/238 235/235/235
f 239/239/239 240/240/240 241/241/241
f 241/241/241 242/242/242 239/239/239
f 243/243/243 244/244/244 245/245/245
f 245/245/245 246/246/246 243/243/243
f 247/247/247 248/248/248 43/43/43
f 43/43/43 42/42/42 247/247/247
f 43/43/43 248/248/248 249/249/249
f 249/249/249 72/72/72 43/43/43
f 250/250/250 251/251/251 252/252/252
f 252/252/252 253/253/253 250/250/250
f 233/233/233 204/204/204 239/239/239
f 239/239/239 254/254/254 233/233/233
f 239/239/239 204/204/204 203/203/203
f 203/203/203 240/240/240 239/239/239
f 194/194/194 243/243/243 246/246/246
f 246/246/246 195/195/195 194/194/194
f 200/200/200 199/199/199 248/248/248
f 248/248/248 247/247/247 200/200/200
f 248/248/248 199/199/199 234/234/234
f 234/234/234 249/249/249 248/248/248
f 192/192/192 191/191/191 251/251/251
f 251/251/251 250/250/250 192/192/192
f 255/255/255 256/256/256 257/257/257
f 257/257/257 258/258/258 255/255/255
f 259/259/259 260/260/260 261/261/261
f 261/261/261 262/262/262 259/259/259
f 263/263/263 264/264/264 265/265/265
f 265/265/265 266/266/266 263/263/263
f 267/267/267 268/268/268 262/262/262
f 262/262/262 261/261/261 267/267/267
f 269/269/269 270/270/270 271/271/271
f 271/271/271 272/272/272 269/269/269
f 273/273/273 274/274/274 275/275/275
f 275/275/275 276/276/276 273/273/273
f 255/255/255 277/277/277 278/278/278
f 278/278/278 256/256/256 255/255/255
f 279/279/279 259/259/259 262/262/262
f 262/262/262 280/280/280 279/279/279
f 281/281/281 282/282/282 283/283/283
f 283/283/283 284/284/284 281/281/281
f 285/285/285 286/286/286 287/287/287
f 288/288/288 286/286/286 285/285/285
f 289/289/289 286/286/286 288/288/288
f 263/263/263 286/286/286 264/264/264
f 290/290/290 286/286/286 263/263/263
f 287/287/287 286/286/286 290/290/290
f 291/291/291 292/292/292 293/293/293
f 293/293/293 292/292/292 278/278/278
f 278/278/278 292/292/292 256/256/256
f 256/256/256 292/292/292 268/268/268
f 262/262/262 292/292/292 280/280/280
f 280/280/280 292/292/292 291/291/291
f 256/256/256 268/268/268 267/267/267
f 267/267/267 257/257/257 256/256/256
f 265/265/265 264/264/264 289/289/289
f 289/289/289 294/294/294 265/265/265
f 292/292/292 262/262/262 268/268/268
f 286/286/286 289/289/289 264/264/264
f 295/295/295 296/296/296 297/297/297
f 297/297/297 298/298/298 295/295/295
f 297/297/297 299/299/299 300/300/300
f 300/300/300 298/298/298 297/297/297
f 301/301/301 300/300/300 299/299/299
f 299/299/299 302/302/302 301/301/301
f 303/303/303 304/304/304 24/24/24
f 24/24/24 23/23/23 303/303/303
f 24/24/24 304/304/304 305/305/305
f 305/305/305 42/42/42 24/24/24
f 306/306/306 296/296/296 295/295/295
f 295/295/295 307/307/307 306/306/306
f 296/296/296 257/257/257 267/267/267
f 267/267/267 297/297/297 296/296/296
f 267/267/267 261/261/261 299/299/299
f 299/299/299 297/297/297 267/267/267
f 302/302/302 299/299/299 261/261/261
f 261/261/261 260/260/260 302/302/302
f 266/266/266 265/265/265 304/304/304
f 304/304/304 303/303/303 266/266/266
f 304/304/304 265/265/265 294/294/294
f 294/294/294 305/305/305 304/304/304
f 306/306/306 258/258/258 257/257/257
f 257/257/257 296/296/296 306/306/306
f 308/308/308 309/309/309 310/310/310
f 310/310/310 311/311/311 308/308/308
f 312/312/312 313/313/313 314/314/314
f 314/314/314 315/315/315 312/312/312
f 313/313/313 316/316/316 317/317/317
f 317/317/317 314/314/314 313/313/313
f 316/316/316 318/318/318 319/319/319
f 319/319/319 317/317/317 316/316/316
f 320/320/320 321/321/321 322/322/322
f 322/322/322 323/323/323 320/320/320
f 324/324/324 325/325/325 326/326/326
f 326/326/326 327/327/327 324/324/324
f 328/328/328 329/329/329 330/330/330
f 330/330/330 331/331/331 328/328/328
f 332/332/332 333/333/333 334/334/334
f 334/334/334 335/335/335 332/332/332
f 336/336/336 337/337/337 338/338/338
f 338/338/338 339/339/339 336/336/336
f 340/340/340 341/341/341 342/342/342
f 342/342/342 343/343/343 340/340/340
f 344/344/344 345/345/345 343/343/343
f 343/343/343 342/342/342 344/344/344
f 345/345/345 344/344/344 346/346/346
f 346/346/346 347/347/347 345/345/345
f 348/348/348 349/349/349 350/350/350
f 350/350/350 351/351/351 348/348/348
f 352/352/352 353/353/353 354/354/354
f 354/354/354 355/355/355 352/352/352
f 356/356/356 357/357/357 358/358/358
f 358/358/358 359/359/359 356/356/356
f 360/360/360 361/361/361 362/362/362
f 362/362/362 363/363/363 360/360/360
f 364/364/364 321/321/321 320/320/320
f 320/320/320 365/365/365 364/364/364
f 366/366/366 367/367/367 348/348/348
f 348/348/348 351/351/351 366/366/366
f 337/337/337 336/336/336 362/362/362
f 362/362/362 361/361/361 337/337/337
f 333/333/333 308/308/308 311/311/311
f 311/311/311 334/334/334 333/333/333
f 327/327/327 326/326/326 329/329/329
f 329/329/329 328/328/328 327/327/327
f 353/353/353 356/356/356 359/359/359
f 359/359/359 354/354/354 353/353/353
f 368/368/368 369/369/369 370/370/370
f 371/371/371 369/369/369 368/368/368
f 372/372/372 369/369/369 371/371/371
f 373/373/373 369/369/369 372/372/372
f 374/374/374 369/369/369 375/375/375
f 376/376/376 369/369/369 377/377/377
f 378/378/378 369/369/369 376/376/376
f 379/379/379 369/369/369 378/378/378
f 375/375/375 369/369/369 373/373/373
f 370/370/370 369/369/369 379/379/379
f 377/377/377 369/369/369 374/374/374
f 380/380/380 355/355/355 354/354/354
f 354/354/354 381/381/381 380/380/380
f 382/382/382 351/351/351 350/350/350
f 350/350/350 383/383/383 382/382/382
f 384/384/384 366/366/366 351/351/351
f 351/351/351 382/382/382 384/384/384
f 345/345/345 347/347/347 385/385/385
f 385/385/385 386/386/386 345/345/345
f 386/386/386 387/387/387 343/343/343
f 343/343/343 345/345/345 386/386/386
f 340/340/340 343/343/343 387/387/387
f 387/387/387 388/388/388 340/340/340
f 336/336/336 339/339/339 389/389/389
f 389/389/389 390/390/390 336/336/336
f 390/390/390 391/391/391 362/362/362
f 362/362/362 336/336/336 390/390/390
f 392/392/392 363/363/363 362/362/362
f 362/362/362 391/391/391 392/392/392
f 358/358/358 393/393/393 394/394/394
f 394/394/394 359/359/359 358/358/358
f 381/381/381 354/354/354 359/359/359
f 359/359/359 394/394/394 381/381/381
f 395/395/395 396/396/396 361/361/361
f 361/361/361 360/360/360 395/395/395
f 397/397/397 398/398/398 357/357/357
f 357/357/357 356/356/356 397/397/397
f 399/399/399 397/397/397 356/356/356
f 356/356/356 353/353/353 399/399/399
f 400/400/400 399/399/399 353/353/353
f 353/353/353 352/352/352 400/400/400
f 348/348/348 401/401/401 402/402/402
f 402/402/402 349/349/349 348/348/348
f 367/367/367 403/403/403 401/401/401
f 401/401/401 348/348/348 367/367/367
f 344/344/344 404/404/404 405/405/405
f 405/405/405 346/346/346 344/344/344
f 404/404/404 344/344/344 342/342/342
f 342/342/342 406/406/406 404/404/404
f 407/407/407 406/406/406 342/342/342
f 342/342/342 341/341/341 407/407/407
f 408/408/408 409/409/409 338/338/338
f 338/338/338 337/337/337 408/408/408
f 408/408/408 337/337/337 361/361/361
f 361/361/361 396/396/396 408/408/408
f 321/321/321 382/382/382 383/383/383
f 383/383/383 322/322/322 321/321/321
f 382/382/382 321/321/321 364/364/364
f 364/364/364 384/384/384 382/382/382
f 386/386/386 385/385/385 318/318/318
f 318/318/318 316/316/316 386/386/386
f 387/387/387 386/386/386 316/316/316
f 316/316/316 313/313/313 387/387/387
f 388/388/388 387/387/387 313/313/313
f 313/313/313 312/312/312 388/388/388
f 390/390/390 389/389/389 309/309/309
f 309/309/309 308/308/308 390/390/390
f 308/308/308 333/333/333 391/391/391
f 391/391/391 390/390/390 308/308/308
f 332/332/332 392/392/392 391/391/391
f 391/391/391 333/333/333 332/332/332
f 329/329/329 394/394/394 393/393/393
f 393/393/393 330/330/330 329/329/329
f 326/326/326 381/381/381 394/394/394
f 394/394/394 329/329/329 326/326/326
f 325/325/325 380/380/380 381/381/381
f 381/381/381 326/326/326 325/325/325