mtllib 58883817.mtl
o Mesh

v -0.3883900046348572 -0.8718980550765991 0.2460850030183792
v -0.22424300014972687 -0.8726650476455688 0.41022199392318726
v -0.2292719930410385 -0.7588820457458496 0.4170039892196655
v -0.4004270136356354 -0.7581150531768799 0.24921000003814697
v -1.4000000192027073e-05 -0.87294602394104 0.47029998898506165
v 0.004530999809503555 -0.7591630220413208 0.4784199893474579
v 0.22421599924564362 -0.8726650476455688 0.41022199392318726
v 0.23833300173282623 -0.7588820457458496 0.4170039892196655
v 0.3883630037307739 -0.8718980550765991 0.2460850030183792
v 0.4094879925251007 -0.7581150531768799 0.24921000003814697
v 0.4484589993953705 -0.864016056060791 0.043751999735832214
v 0.4721490144729614 -0.7508610486984253 0.05582699924707413
v 0.4484589993953705 -0.864016056060791 0.043751999735832214
v 0.38837701082229614 -0.8397419452667236 -0.16293099522590637
v 0.4095019996166229 -0.7259750366210938 -0.15581199526786804
v 0.4721490144729614 -0.7508610486984253 0.05582699924707413
v 0.22422899305820465 -0.8106679916381836 -0.3261060118675232
v 0.23834599554538727 -0.6964540481567383 -0.32261601090431213
v 0.0 -0.791793942451477 -0.4130629897117615
v 0.004544000141322613 -0.6773020029067993 -0.41181400418281555
v 0.10795299708843231 -0.6848399639129639 -0.37709999084472656
v 0.09917499870061874 -0.7992269992828369 -0.37918800115585327
v -0.10341300070285797 -0.7993719577789307 -0.37806200981140137
v -0.22423000633716583 -0.8106679916381836 -0.3261060118675232
v -0.22925899922847748 -0.6964540481567383 -0.32261601090431213
v -0.10328400135040283 -0.68498694896698 -0.3759489953517914
v -0.38837701082229614 -0.8397419452667236 -0.16293099522590637
v -0.40041399002075195 -0.7259750366210938 -0.15581199526786804
v -0.4484589993953705 -0.864016056060791 0.043751999735832214
v -0.46306100487709045 -0.7508610486984253 0.05582699924707413
v -0.4484589993953705 -0.864016056060791 0.043751999735832214
v -0.46306100487709045 -0.7508610486984253 0.05582699924707413
v -0.22424300014972687 -0.8726650476455688 0.41022199392318726
v -0.3883900046348572 -0.8718980550765991 0.2460850030183792
v 0.0 -0.8587520122528076 0.0026549999602138996
v -1.4000000192027073e-05 -0.87294602394104 0.47029998898506165
v 0.22421599924564362 -0.8726650476455688 0.41022199392318726
v 0.3883630037307739 -0.8718980550765991 0.2460850030183792
v 0.4484589993953705 -0.864016056060791 0.043751999735832214
v 0.38837701082229614 -0.8397419452667236 -0.16293099522590637
v 0.22422899305820465 -0.8106679916381836 -0.3261060118675232
v 0.0 -0.791793942451477 -0.4130629897117615
v 0.09917499870061874 -0.7992269992828369 -0.37918800115585327
v -0.22423000633716583 -0.8106679916381836 -0.3261060118675232
v -0.10341300070285797 -0.7993719577789307 -0.37806200981140137
v -0.38837701082229614 -0.8397419452667236 -0.16293099522590637
v -0.4484589993953705 -0.864016056060791 0.043751999735832214
v -0.09061799943447113 0.9763799905776978 0.2811410129070282
v -0.03930100053548813 1.059440016746521 0.20311599969863892
v -0.13690699636936188 1.059440016746521 0.11713399738073349
v -0.22579100728034973 0.9763799905776978 0.16206499934196472
v 0.09403099864721298 0.9763799905776978 0.3247250020503998
v 0.09403099864721298 1.059440016746521 0.23458799719810486
v 0.2786799967288971 0.9763799905776978 0.2811410129070282
v 0.2273630052804947 1.059440016746521 0.20311599969863892
v 0.4138520061969757 0.9763799905776978 0.16206499934196472
v 0.32496899366378784 1.059440016746521 0.11713399738073349
v 0.4633289873600006 0.9763799905776978 -0.0005939999828115106
v 0.3606950044631958 1.059440016746521 -0.00031999999191612005
v 0.4138520061969757 0.9763799905776978 -0.1632539927959442
v 0.32496899366378784 1.059440016746521 -0.11777400225400925
v 0.2786799967288971 0.9763799905776978 -0.2823289930820465
v 0.2273630052804947 1.059438943862915 -0.20375700294971466
v 0.17569999396800995 0.9763799905776978 -0.3267979919910431
v 0.09403099864721298 0.9763799905776978 -0.3537580072879791
v 0.09403099864721298 1.059440016746521 -0.2352290004491806
v 0.1530030071735382 1.059438943862915 -0.24146999418735504
v -0.09061799943447113 0.9763799905776978 -0.2823289930820465
v -0.03930100053548813 1.059440016746521 -0.20375700294971466
v 0.0325389988720417 1.059440016746521 -0.2408750057220459
v 0.008871999569237232 0.9763799905776978 -0.3259739875793457
v -0.22579100728034973 0.9763799905776978 -0.1632539927959442
v -0.13690699636936188 1.059440016746521 -0.11777400225400925
v -0.27526700496673584 0.9763799905776978 -0.0005939999828115106
v -0.17263300716876984 1.059440016746521 -0.00031999999191612005
v -0.27045100927352905 0.021889984607696533 -0.23664499819278717
v -0.317099004983902 0.04746997356414795 -0.06109999865293503
v -0.30813199281692505 0.1811000108718872 -0.07976999878883362
v -0.2620680034160614 0.20368999242782593 -0.23133400082588196
v -0.14300699532032013 0.012679994106292725 -0.35699498653411865
v -0.13621699810028076 0.22022998332977295 -0.3482860028743744
v -0.049205001443624496 0.00932997465133667 -0.40083199739456177
v -0.043588001281023026 0.22348999977111816 -0.391512006521225
v 0.10808400064706802 0.009270012378692627 -0.40166398882865906
v 0.031084999442100525 0.00718998908996582 -0.4288080036640167
v 0.035698000341653824 0.22627997398376465 -0.418938010931015
v 0.11173500120639801 0.22360998392105103 -0.39232099056243896
v 0.3326210081577301 0.021889984607696533 -0.23664499819278717
v 0.2051759958267212 0.012679994106292725 -0.35699498653411865
v 0.207613006234169 0.22022998332977295 -0.3482860028743744
v 0.33346399664878845 0.20368999242782593 -0.23133400082588196
v 0.3795279860496521 0.1811000108718872 -0.07976999878883362
v 0.37926799058914185 0.04746997356414795 -0.06109999865293503
v 0.37926799058914185 0.04746997356414795 -0.06109999865293503
v 0.3795279860496521 0.1811000108718872 -0.07976999878883362
v 0.33346399664878845 0.15850001573562622 0.0799890011548996
v 0.3326210081577301 0.06730002164840698 0.11897099763154984
v 0.207613006234169 0.1419600248336792 0.19694000482559204
v 0.2051759958267212 0.09755998849868774 0.25177499651908875
v 0.035698000341653824 0.13590997457504272 0.2397480010986328
v 0.031084999442100525 0.10966998338699341 0.2979719936847687
v -0.14300699532032013 0.09755998849868774 0.25177499651908875
v -0.13621699810028076 0.1419600248336792 0.19694000482559204
v -0.27045100927352905 0.06730002164840698 0.11897099763154984
v -0.2620680034160614 0.15850001573562622 0.0799890011548996
v -0.317099004983902 0.04746997356414795 -0.06109999865293503
v -0.30813199281692505 0.1811000108718872 -0.07976999878883362
v -0.24373899400234222 0.6377600431442261 -0.212800994515419
v -0.22579100728034973 0.9763799905776978 -0.1632539927959442
v -0.09061799943447113 0.9763799905776978 -0.2823289930820465
v -0.10978200286626816 0.6507999897003174 -0.32403698563575745
v -0.01118599995970726 0.6533800363540649 -0.36613601446151733
v 0.008871999569237232 0.9763799905776978 -0.3259739875793457
v 0.15414099395275116 0.6534700393676758 -0.36690500378608704
v 0.07320699840784073 0.6555800437927246 -0.3925960063934326
v 0.09403099864721298 0.9763799905776978 -0.3537580072879791
v 0.17569999396800995 0.9763799905776978 -0.3267979919910431
v 0.3901520073413849 0.6377600431442261 -0.212800994515419
v 0.2561950087547302 0.6507999897003174 -0.32403698563575745
v 0.2786799967288971 0.9763799905776978 -0.2823289930820465
v 0.4138520061969757 0.9763799905776978 -0.1632539927959442
v 0.4391840100288391 0.619949996471405 -0.06084999814629555
v 0.4633289873600006 0.9763799905776978 -0.0005939999828115106
v 0.3901520073413849 0.6021400094032288 0.09110099822282791
v 0.4391840100288391 0.619949996471405 -0.06084999814629555
v 0.4633289873600006 0.9763799905776978 -0.0005939999828115106
v 0.4138520061969757 0.9763799905776978 0.16206499934196472
v 0.2561950087547302 0.5890899896621704 0.20233699679374695
v 0.2786799967288971 0.9763799905776978 0.2811410129070282
v 0.09403099864721298 0.9763799905776978 0.3247250020503998
v 0.07320699840784073 0.5843200087547302 0.24305200576782227
v -0.09061799943447113 0.9763799905776978 0.2811410129070282
v -0.10978200286626816 0.5890899896621704 0.20233699679374695
v -0.22579100728034973 0.9763799905776978 0.16206499934196472
v -0.24373899400234222 0.6021400094032288 0.09110099822282791
v -0.27526700496673584 0.9763799905776978 -0.0005939999828115106
v -0.29276999831199646 0.619949996471405 -0.06084999814629555
v -0.29276999831199646 0.619949996471405 -0.06084999814629555
v -0.27526700496673584 0.9763799905776978 -0.0005939999828115106
v -0.06084100157022476 -0.118446946144104 -0.4067719876766205
v -0.16115599870681763 -0.11523199081420898 -0.35933899879455566
v 0.10736799985170364 -0.11855900287628174 -0.40772899985313416
v 0.025022000074386597 -0.12119805812835693 -0.43779900670051575
v 0.2112009972333908 -0.11523199081420898 -0.35933899879455566
v 0.3474929928779602 -0.0989309549331665 -0.22105400264263153
v 0.3973790109157562 -0.07666504383087158 -0.032152000814676285
v 0.3474929928779602 -0.05782604217529297 0.12074799835681915
v 0.3973790109157562 -0.07666504383087158 -0.032152000814676285
v 0.2112009972333908 -0.03466904163360596 0.23846100270748138
v 0.025022000074386597 -0.0287020206451416 0.2890770137310028
v -0.16115599870681763 -0.03466904163360596 0.23846100270748138
v -0.2974480092525482 -0.05782604217529297 0.12074799835681915
v -0.34733399748802185 -0.07666504383087158 -0.032152000814676285
v -0.2974480092525482 -0.0989309549331665 -0.22105400264263153
v -0.34733399748802185 -0.07666504383087158 -0.032152000814676285
v -0.36252498626708984 -0.493056058883667 -0.16607700288295746
v -0.42088600993156433 -0.47707295417785645 0.03372199833393097
v -0.36531201004981995 -0.16003501415252686 0.009649000130593777
v -0.31337401270866394 -0.18638396263122559 -0.18686899542808533
v -0.20332300662994385 -0.504330039024353 -0.309675008058548
v -0.17147600650787354 -0.2077169418334961 -0.3322789967060089
v -0.08614800125360489 -0.5082269906997681 -0.3610590100288391
v -0.0670349970459938 -0.2129230499267578 -0.38050898909568787
v 0.11033300310373306 -0.5083270072937012 -0.3621549904346466
v 0.014147000387310982 -0.5110739469528198 -0.3954800069332123
v 0.022360999137163162 -0.21688997745513916 -0.4122300148010254
v 0.10809300094842911 -0.21306896209716797 -0.3814939856529236
v 0.2316180020570755 -0.504330039024353 -0.309675008058548
v 0.21619799733161926 -0.2077169418334961 -0.3322789967060089
v 0.35809600353240967 -0.18638396263122559 -0.18686899542808533
v 0.39081400632858276 -0.493056058883667 -0.16607700288295746
v 0.4100340008735657 -0.16003501415252686 0.009649000130593777
v 0.44899600744247437 -0.47707295417785645 0.03372199833393097
v 0.3907249867916107 -0.45963799953460693 0.20726199448108673
v 0.44899600744247437 -0.47707295417785645 0.03372199833393097
v 0.4100340008735657 -0.16003501415252686 0.009649000130593777
v 0.35809600353240967 -0.1369420289993286 0.1809220016002655
v 0.23152600228786469 -0.44509100914001465 0.3657130002975464
v 0.21619799733161926 -0.1157599687576294 0.3233779966831207
v 0.022360999137163162 -0.10800600051879883 0.3755210041999817
v 0.014054999686777592 -0.4397670030593872 0.4237099885940552
v -0.17147600650787354 -0.1157599687576294 0.3233779966831207
v -0.20341500639915466 -0.44509100914001465 0.3657130002975464
v -0.31337401270866394 -0.1369420289993286 0.1809220016002655
v -0.3626149892807007 -0.45963799953460693 0.20726199448108673
v -0.36531201004981995 -0.16003501415252686 0.009649000130593777
v -0.42088600993156433 -0.47707295417785645 0.03372199833393097
v 0.09403099864721298 1.114359974861145 -3.999999989900971e-06
v -0.38711199164390564 -0.7063460350036621 -0.14636799693107605
v -0.447829008102417 -0.7302299737930298 0.05747599899768829
v -0.22123000025749207 -0.6775590181350708 -0.3074660003185272
v -0.09913600236177444 -0.6663219928741455 -0.3590030074119568
v 0.005369999911636114 -0.6587940454483032 -0.39364999532699585
v 0.1055930033326149 -0.6661800146102905 -0.3601149916648865
v 0.23196899890899658 -0.6775590181350708 -0.3074660003185272
v 0.39785200357437134 -0.7063460350036621 -0.14636799693107605
v 0.4585689902305603 -0.7302299737930298 0.05747599899768829
v 0.4585689902305603 -0.7302299737930298 0.05747599899768829
v 0.3978379964828491 -0.7373969554901123 0.24046100676059723
v 0.23195600509643555 -0.7381349802017212 0.4025009870529175
v 0.005355999805033207 -0.7384059429168701 0.46181198954582214
v -0.2212429940700531 -0.7381349802017212 0.4025009870529175
v -0.38712599873542786 -0.7373969554901123 0.24046100676059723
v -0.447829008102417 -0.7302299737930298 0.05747599899768829
v -0.2116899937391281 -0.9578429460525513 -0.6521790027618408
v -0.29450398683547974 -1.0000100135803223 -0.5015519857406616
v -0.28275400400161743 -0.9121910333633423 -0.47351598739624023
v -0.20341399312019348 -0.8457280397415161 -0.6216689944267273
v -0.3437710106372833 -0.9549150466918945 0.2234790027141571
v -0.34355199337005615 -1.0000050067901611 0.22501499950885773
v -0.24193799495697021 -0.9999949932098389 0.3949950039386749
v -0.23572100698947906 -0.9651449918746948 0.3952000141143799
v -0.34355199337005615 -1.0000050067901611 0.22501499950885773
v -0.3646309971809387 -1.0000050067901611 -0.02158300019800663
v -0.24193799495697021 -0.9999949932098389 -0.02158600091934204
v -0.24193799495697021 -0.9999949932098389 0.3949950039386749
v -0.3642289936542511 -0.93231201171875 0.0029589999467134476
v -0.3646309971809387 -1.0000050067901611 -0.02158300019800663
v 0.3148669898509979 -1.0000050067901611 0.22501499950885773
v 0.3359459936618805 -1.0000050067901611 -0.02158300019800663
v 0.33554399013519287 -0.93231201171875 0.0029589999467134476
v 0.3150860071182251 -0.9549150466918945 0.2234790027141571
v -0.33088400959968567 -0.8905060291290283 -0.2610990107059479
v -0.2883540093898773 -0.8005759716033936 -0.1908160001039505
v -0.18200600147247314 -0.7938250303268433 -0.3096800148487091
v -0.22269600629806519 -0.8425530195236206 -0.38855698704719543
v 0.29884201288223267 -0.8311389684677124 0.01144300028681755
v 0.29958099126815796 -0.8487969636917114 0.21547800302505493
v -0.31965500116348267 -0.8411320447921753 0.2226870059967041
v -0.3226889967918396 -0.8234460353851318 0.018678000196814537
v -0.24193799495697021 -0.9999890327453613 -0.2110780030488968
v -0.3509269952774048 -0.9999890327453613 -0.2110780030488968
v -0.3247169852256775 -0.9999890327453613 -0.33204299211502075
v -0.2289540022611618 -0.9999890327453613 -0.33185499906539917
v -0.3091920018196106 -0.910493016242981 -0.3544889986515045
v -0.3247169852256775 -0.9999890327453613 -0.33204299211502075
v -0.3509269952774048 -0.9999890327453613 -0.2110780030488968
v -0.21585099399089813 -0.8588119745254517 -0.4777730107307434
v 0.30219799280166626 -0.8905060291290283 -0.2610990107059479
v 0.32224199175834656 -0.9999890327453613 -0.2110780030488968
v 0.29603099822998047 -0.9999890327453613 -0.33204299211502075
v 0.28050699830055237 -0.910493016242981 -0.3544889986515045
v 0.2004619985818863 -0.8425530195236206 -0.38855698704719543
v 0.1522819995880127 -0.7976939678192139 -0.31331899762153625
v 0.2609100043773651 -0.8073740005493164 -0.19720999896526337
v 0.19340500235557556 -0.8588119745254517 -0.4777730107307434
v 0.1891150027513504 -0.9578429460525513 -0.6521790027618408
v 0.18058300018310547 -0.8457280397415161 -0.6216689944267273
v 0.254067987203598 -0.9121910333633423 -0.47351598739624023
v 0.26581698656082153 -1.0000100135803223 -0.5015519857406616
v 0.22030000388622284 -0.9999890327453613 -0.2110780030488968
v 0.2069139927625656 -0.9999890327453613 -0.33185499906539917
v 0.29603099822998047 -0.9999890327453613 -0.33204299211502075
v 0.32224199175834656 -0.9999890327453613 -0.2110780030488968
v 0.3148669898509979 -1.0000050067901611 0.22501499950885773
v 0.22030000388622284 -0.9999949932098389 0.3949950039386749
v 0.22030000388622284 -0.9999949932098389 -0.02158600091934204
v 0.3359459936618805 -1.0000050067901611 -0.02158300019800663
v 0.21348699927330017 -0.9651449918746948 0.3952000141143799
v 0.22030000388622284 -0.9999949932098389 0.3949950039386749
v -0.08694399893283844 -0.8198620080947876 -0.4670160114765167
v -0.08455900102853775 -0.826356053352356 -0.542356014251709
v -0.08310899883508682 -0.9078539609909058 -0.7615820169448853
v -0.08022599667310715 -0.7815500497817993 -0.7270849943161011
v -0.0936489999294281 -0.9999890327453613 -0.2110780030488968
v -0.08912499994039536 -0.9999890327453613 -0.3322319984436035
v -0.0936489999294281 -0.9999949932098389 -0.02158600091934204
v -0.0936489999294281 -0.9999949932098389 0.4616270065307617
v -0.0936489999294281 -0.9999949932098389 0.4616270065307617
v -0.08694399893283844 -0.9651449918746948 0.458842009305954
v 0.05200200155377388 -0.8198620080947876 -0.4670160114765167
v 0.04982199892401695 -0.826356053352356 -0.542356014251709
v 0.048496998846530914 -0.9078539609909058 -0.7615820169448853
v 0.045862000435590744 -0.7815500497817993 -0.7270849943161011
v 0.058129001408815384 -0.9999890327453613 -0.2110780030488968
v 0.05399499833583832 -0.9999890327453613 -0.3322319984436035
v 0.058129001408815384 -0.9999949932098389 0.4616270065307617
v 0.058129001408815384 -0.9999949932098389 -0.02158600091934204
v 0.05200200155377388 -0.9651449918746948 0.458842009305954
v 0.058129001408815384 -0.9999949932098389 0.4616270065307617
v -0.015561999753117561 -0.7879899740219116 -0.38396498560905457
v -0.08694399893283844 -0.9651449918746948 0.458842009305954
v -0.0936489999294281 -0.9999949932098389 0.4616270065307617
v -0.20604699850082397 -0.854112982749939 0.3874329924583435
v 0.19008900225162506 -0.8586980104446411 0.38312000036239624
v -0.007342000026255846 -0.8607410192489624 0.44835400581359863
v -0.007342000026255846 -0.8607410192489624 0.44835400581359863
v -0.3646309971809387 -0.9749929904937744 -0.021710999310016632
v -0.3646309971809387 -0.9749929904937744 -0.021710999310016632
v -0.24193799495697021 -0.9749929904937744 -0.021702999249100685
v -0.0936489999294281 -0.9749929904937744 -0.021694999188184738
v 0.058129001408815384 -0.9749929904937744 -0.021686000749468803
v 0.22030000388622284 -0.9749929904937744 -0.02167700044810772
v 0.3359459936618805 -0.9749929904937744 -0.021669000387191772
v 0.3359459936618805 -0.9749929904937744 -0.021669000387191772
v -0.29450398683547974 -1.0000100135803223 -0.5015519857406616
v -0.29450398683547974 -1.0000100135803223 -0.5015519857406616
v -0.2116899937391281 -1.0000100135803223 -0.5005699992179871
v -0.08310899883508682 -1.0000109672546387 -0.5025339722633362
v 0.048496998846530914 -1.0000109672546387 -0.5025339722633362
v 0.1891150027513504 -1.0000100135803223 -0.5005699992179871
v 0.26581698656082153 -1.0000100135803223 -0.5015519857406616
v 0.26581698656082153 -1.0000100135803223 -0.5015519857406616
v -0.2116899937391281 -0.9578429460525513 -0.6521790027618408
v -0.08310899883508682 -0.95763099193573 -0.6506329774856567
v 0.048496998846530914 -0.95763099193573 -0.6506329774856567
v 0.1891150027513504 -0.9578429460525513 -0.6521790027618408
v -0.08310899883508682 -0.9078539609909058 -0.7615820169448853
v 0.048496998846530914 -0.9078539609909058 -0.7615820169448853

vn -0.6124020218849182 -0.705049991607666 0.3575870096683502
vn -0.36224499344825745 -0.6898249983787537 0.626833975315094
vn -0.47611498832702637 0.2790910005569458 0.8339200019836426
vn -0.8237990140914917 0.25046199560165405 0.5085510015487671
vn -0.003590000094845891 -0.6895719766616821 0.7242079973220825
vn 0.002919000107795 0.28060001134872437 0.9598199725151062
vn 0.34727999567985535 -0.7030749917030334 0.6205499768257141
vn 0.4820150136947632 0.24910899996757507 0.840004026889801
vn 0.5899680256843567 -0.7281540036201477 0.3488990068435669
vn 0.8354640007019043 0.19976100325584412 0.5119519829750061
vn 0.6846960186958313 -0.726954996585846 -0.052223000675439835
vn 0.9857860207557678 0.1653449982404709 0.029782000929117203
vn 0.6846960186958313 -0.726954996585846 -0.052223000675439835
vn 0.5837770104408264 -0.6768389940261841 -0.4484330117702484
vn 0.8478630185127258 0.23927000164985657 -0.47315800189971924
vn 0.9857860207557678 0.1653449982404709 0.029782000929117203
vn 0.37191399931907654 -0.6335870027542114 -0.6784150004386902
vn 0.5510640144348145 0.31225600838661194 -0.7738379836082458
vn -0.0051910001784563065 -0.5678340196609497 -0.8231269717216492
vn 0.003145999973639846 0.371739000082016 -0.9283319711685181
vn 0.35511600971221924 0.34747299551963806 -0.8678449988365173
vn 0.22986699640750885 -0.6335499882698059 -0.7387670278549194
vn -0.23774699866771698 -0.6138210296630859 -0.7527940273284912
vn -0.3848879933357239 -0.6191200017929077 -0.6845080256462097
vn -0.5470939874649048 0.3478659987449646 -0.7613660097122192
vn -0.353424996137619 0.3703930079936981 -0.8590109944343567
vn -0.6072999835014343 -0.65413498878479 -0.4508819878101349
vn -0.8384829759597778 0.2925780117511749 -0.45972201228141785
vn -0.7121220231056213 -0.7002679705619812 -0.05006999894976616
vn -0.973734974861145 0.22527199983596802 0.03305799886584282
vn -0.7121220231056213 -0.7002679705619812 -0.05006999894976616
vn -0.973734974861145 0.22527199983596802 0.03305799886584282
vn -0.36224499344825745 -0.6898249983787537 0.626833975315094
vn -0.6124020218849182 -0.705049991607666 0.3575870096683502
vn 0.0 -0.9957519769668579 -0.09207399934530258
vn -0.003590000094845891 -0.6895719766616821 0.7242079973220825
vn 0.34727999567985535 -0.7030749917030334 0.6205499768257141
vn 0.5899680256843567 -0.7281540036201477 0.3488990068435669
vn 0.6846960186958313 -0.726954996585846 -0.052223000675439835
vn 0.5837770104408264 -0.6768389940261841 -0.4484330117702484
vn 0.37191399931907654 -0.6335870027542114 -0.6784150004386902
vn -0.0051910001784563065 -0.5678340196609497 -0.8231269717216492
vn 0.22986699640750885 -0.6335499882698059 -0.7387670278549194
vn -0.3848879933357239 -0.6191200017929077 -0.6845080256462097
vn -0.23774699866771698 -0.6138210296630859 -0.7527940273284912
vn -0.6072999835014343 -0.65413498878479 -0.4508819878101349
vn -0.7121220231056213 -0.7002679705619812 -0.05006999894976616
vn -0.42838001251220703 0.31248098611831665 0.8478479981422424
vn -0.22045299410820007 0.8724460005760193 0.43616199493408203
vn -0.39385899901390076 0.8816810250282288 0.2598339915275574
vn -0.7742469906806946 0.3640879988670349 0.5176699757575989
vn 0.0036510000936686993 0.2867780029773712 0.9579899907112122
vn -0.0 0.8680599927902222 0.4964599907398224
vn 0.439303994178772 0.292279988527298 0.849461019039154
vn 0.22045299410820007 0.8724460005760193 0.4361630082130432
vn 0.7904059886932373 0.323947012424469 0.5199189782142639
vn 0.39386001229286194 0.8816800117492676 0.25983500480651855
vn 0.9293000102043152 0.3688710033893585 0.01830100081861019
vn 0.4623650014400482 0.8866900205612183 0.00016900000628083944
vn 0.7779060006141663 0.4067629873752594 -0.4789629876613617
vn 0.3932870030403137 0.8821439743041992 -0.2591269910335541
vn 0.49154600501060486 0.4266189932823181 -0.7591959834098816
vn 0.25206100940704346 0.8858489990234375 -0.38953500986099243
vn 0.2985920011997223 0.455953985452652 -0.8384199738502502
vn 0.008825999684631824 0.48140600323677063 -0.8764539957046509
vn -0.0020520000252872705 0.9066439867019653 -0.421891987323761
vn 0.06360600143671036 0.9073950052261353 -0.41543900966644287
vn -0.48080500960350037 0.4568459987640381 -0.7484099864959717
vn -0.25289100408554077 0.8862130045890808 -0.38816601037979126
vn -0.06793499737977982 0.9077330231666565 -0.41401299834251404
vn -0.2947379946708679 0.4746139943599701 -0.8293799757957458
vn -0.7561900019645691 0.4534130096435547 -0.47179800271987915
vn -0.39328598976135254 0.8821449875831604 -0.25912800431251526
vn -0.9070150256156921 0.4206419885158539 0.019586000591516495
vn -0.4623650014400482 0.8866900205612183 0.00016799999866634607
vn -0.8422639966011047 0.0915450006723404 -0.5312359929084778
vn -0.9883589744567871 0.1516920030117035 -0.011652999557554722
vn -0.998458981513977 0.05446900054812431 -0.010654999874532223
vn -0.8489230275154114 0.05482200160622597 -0.5256659984588623
vn -0.5540329813957214 0.07412199676036835 -0.8291879892349243
vn -0.5582330226898193 0.06215599924325943 -0.827351987361908
vn -0.3744939863681793 0.06510800123214722 -0.9249410033226013
vn -0.37589898705482483 0.06454300135374069 -0.9244099855422974
vn 0.374796986579895 0.03732899948954582 -0.9263550043106079
vn 0.006159000098705292 0.05620500072836876 -0.9983999729156494
vn -0.004362000152468681 0.05227399989962578 -0.9986230134963989
vn 0.37291398644447327 0.02764200046658516 -0.9274539947509766
vn 0.849045991897583 0.027806999161839485 -0.5275869965553284
vn 0.5555620193481445 0.034922998398542404 -0.8307420015335083
vn 0.5515699982643127 0.007778999861329794 -0.8340920209884644
vn 0.8392189741134644 -0.034786999225616455 -0.542680025100708
vn 0.997776985168457 -0.062369998544454575 -0.023468000814318657
vn 0.9976660013198853 0.06818299740552902 -0.0037380000576376915
vn 0.9976660013198853 0.06818299740552902 -0.0037380000576376915
vn 0.997776985168457 -0.062369998544454575 -0.023468000814318657
vn 0.8674749732017517 0.02922699972987175 0.4966219961643219
vn 0.8347510099411011 0.166376993060112 0.5248900055885315
vn 0.5026770234107971 0.33401599526405334 0.7973390221595764
vn 0.456851989030838 0.3625349998474121 0.8123149871826172
vn 0.0008590000215917826 0.5603690147399902 0.8282430171966553
vn 0.00031400000443682075 0.49503201246261597 0.8688750267028809
vn -0.45513901114463806 0.39785099029541016 0.7965949773788452
vn -0.48840799927711487 0.4030579924583435 0.7739520072937012
vn -0.8250669836997986 0.24300900101661682 0.5101100206375122
vn -0.8568239808082581 0.14149299263954163 0.4958139955997467
vn -0.9883589744567871 0.1516920030117035 -0.011652999557554722
vn -0.998458981513977 0.05446900054812431 -0.010654999874532223
vn -0.8281159996986389 0.0940689966082573 -0.5526080131530762
vn -0.7561900019645691 0.4534130096435547 -0.47179800271987915
vn -0.48080500960350037 0.4568459987640381 -0.7484099864959717
vn -0.522121012210846 0.11114200204610825 -0.8455989956855774
vn -0.34741100668907166 0.11081700026988983 -0.9311419725418091
vn -0.2947379946708679 0.4746139943599701 -0.8293799757957458
vn 0.3476789891719818 0.054538000375032425 -0.9360259771347046
vn 0.004488999955356121 0.08935199677944183 -0.995989978313446
vn 0.008825999684631824 0.48140600323677063 -0.8764539957046509
vn 0.2985920011997223 0.455953985452652 -0.8384199738502502
vn 0.8242890238761902 -0.030758999288082123 -0.5653330087661743
vn 0.522400975227356 0.02666899934411049 -0.8522830009460449
vn 0.49154600501060486 0.4266189932823181 -0.7591959834098816
vn 0.7779060006141663 0.4067629873752594 -0.4789629876613617
vn 0.9948179721832275 -0.09940999746322632 -0.021330999210476875
vn 0.9293000102043152 0.3688710033893585 0.01830100081861019
vn 0.8365319967269897 -0.140406996011734 0.5296229720115662
vn 0.9948179721832275 -0.09940999746322632 -0.021330999210476875
vn 0.9293000102043152 0.3688710033893585 0.01830100081861019
vn 0.7904059886932373 0.323947012424469 0.5199189782142639
vn 0.4554699957370758 -0.13733699917793274 0.8795940279960632
vn 0.439303994178772 0.292279988527298 0.849461019039154
vn 0.0036510000936686993 0.2867780029773712 0.9579899907112122
vn 0.0032760000322014093 -0.10781999677419662 0.9941650032997131
vn -0.42838001251220703 0.31248098611831665 0.8478479981422424
vn -0.4528990089893341 -0.07033500075340271 0.8887829780578613
vn -0.7742469906806946 0.3640879988670349 0.5176699757575989
vn -0.8373289704322815 -0.021466000005602837 0.5462779998779297
vn -0.9070150256156921 0.4206419885158539 0.019586000591516495
vn -0.9990469813346863 0.04327800124883652 -0.005582999903708696
vn -0.9990469813346863 0.04327800124883652 -0.005582999903708696
vn -0.9070150256156921 0.4206419885158539 0.019586000591516495
vn -0.3829300105571747 -0.07525300234556198 -0.9207069873809814
vn -0.5683119893074036 -0.04709500074386597 -0.8214640021324158
vn 0.3809399902820587 -0.10155700147151947 -0.9190059900283813
vn 0.0004889999981969595 -0.09633199870586395 -0.9953489899635315
vn 0.5646380186080933 -0.08804299682378769 -0.8206300139427185
vn 0.8616340160369873 -0.02780500054359436 -0.506767988204956
vn 0.9903910160064697 0.13777799904346466 -0.011947999708354473
vn 0.8497070074081421 0.27690398693084717 0.4486890137195587
vn 0.9903910160064697 0.13777799904346466 -0.011947999708354473
vn 0.5180090069770813 0.3373199999332428 0.7860540151596069
vn -0.0020550000481307507 0.3890810012817383 0.9212009906768799
vn -0.5162190198898315 0.37448200583457947 0.7702469825744629
vn -0.8360490202903748 0.339913010597229 0.43067601323127747
vn -0.9773589968681335 0.2104170024394989 -0.022237999364733696
vn -0.8580060005187988 0.037372998893260956 -0.5122780203819275
vn -0.9773589968681335 0.2104170024394989 -0.022237999364733696
vn -0.845084011554718 0.08142700046300888 -0.5283970236778259
vn -0.9901279807090759 0.14002099633216858 0.006378999911248684
vn -0.9792749881744385 0.20072899758815765 0.027005000039935112
vn -0.8743079900741577 0.03808699920773506 -0.48387598991394043
vn -0.546862006187439 0.02660300023853779 -0.8367999792098999
vn -0.5832390189170837 -0.08541099727153778 -0.8077980279922485
vn -0.3638969957828522 -0.009487000294029713 -0.9313910007476807
vn -0.38044100999832153 -0.13136300444602966 -0.9154279828071594
vn 0.3654949963092804 -0.039739999920129776 -0.929964005947113
vn 0.003091000020503998 -0.032319001853466034 -0.999472975730896
vn 0.0010079999919980764 -0.15753300487995148 -0.98751300573349
vn 0.37957799434661865 -0.151638001203537 -0.9126480221748352
vn 0.5480189919471741 -0.01676500029861927 -0.8362979888916016
vn 0.5812299847602844 -0.11845599859952927 -0.8050709962844849
vn 0.8779159784317017 -0.011452999897301197 -0.47867798805236816
vn 0.8500459790229797 0.023187000304460526 -0.5261980295181274
vn 0.9883430004119873 0.14814500510692596 0.03508400171995163
vn 0.9967849850654602 0.07943099737167358 0.01052400004118681
vn 0.8527179956436157 0.10946299880743027 0.5107750296592712
vn 0.9967849850654602 0.07943099737167358 0.01052400004118681
vn 0.9883430004119873 0.14814500510692596 0.03508400171995163
vn 0.815837025642395 0.2980329990386963 0.4955669939517975
vn 0.5014690160751343 0.1232450008392334 0.8563529849052429
vn 0.4637570083141327 0.4138840138912201 0.7833449840545654
vn 0.0005719999899156392 0.4524179995059967 0.8918060064315796
vn -0.0007699999841861427 0.13643600046634674 0.9906489849090576
vn -0.4593310058116913 0.4312399923801422 0.7765610218048096
vn -0.5005530118942261 0.14806200563907623 0.8529509902000427
vn -0.8079649806022644 0.3354850113391876 0.4844000041484833
vn -0.84757399559021 0.1559939980506897 0.5072320103645325
vn -0.9792749881744385 0.20072899758815765 0.027005000039935112
vn -0.9901279807090759 0.14002099633216858 0.006378999911248684
vn -0.0 1.0 0.000311999989207834
vn -0.8210340142250061 0.3812510073184967 -0.4249129891395569
vn -0.9208409786224365 0.385684996843338 0.05743800103664398
vn -0.5469570159912109 0.38267600536346436 -0.744579017162323
vn -0.35669100284576416 0.3738749921321869 -0.8561480045318604
vn -0.002303000073879957 0.3875730037689209 -0.9218360185623169
vn 0.35871198773384094 0.3445180058479309 -0.8675439953804016
vn 0.5502579808235168 0.3420870006084442 -0.7617040276527405
vn 0.8368470072746277 0.32527801394462585 -0.4403199851512909
vn 0.9435470104217529 0.3263390064239502 0.05676800012588501
vn 0.9435470104217529 0.3263390064239502 0.05676800012588501
vn 0.789438009262085 0.3544769883155823 0.5011320114135742
vn 0.45502299070358276 0.3855069875717163 0.8027070164680481
vn -0.00020700000459328294 0.4077180027961731 0.9131079912185669
vn -0.4489929974079132 0.41390299797058105 0.791890025138855
vn -0.7700750231742859 0.4033679962158203 0.4942460060119629
vn -0.9208409786224365 0.385684996843338 0.05743800103664398
vn -0.5972499847412109 -0.5044270157814026 -0.6235740184783936
vn -0.7269859910011292 -0.6063339710235596 -0.32225900888442993
vn -0.8530579805374146 0.47228100895881653 -0.22190600633621216
vn -0.6893259882926941 0.661907970905304 -0.29446300864219666
vn -0.943352997303009 0.10283900052309036 0.3154500126838684
vn -0.714614987373352 -0.6582990288734436 0.2365739941596985
vn -0.5361289978027344 -0.6046839952468872 0.5890020132064819
vn -0.634863018989563 0.15874700248241425 0.7561399936676025
vn -0.714614987373352 -0.6582990288734436 0.2365739941596985
vn -0.5971760153770447 -0.579056978225708 -0.5550439953804016
vn 3.899999865097925e-05 -0.7087410092353821 -0.705469012260437
vn -0.5361289978027344 -0.6046839952468872 0.5890020132064819
vn -0.9830930233001709 0.18308599293231964 0.00267999991774559
vn -0.5971760153770447 -0.579056978225708 -0.5550439953804016
vn 0.7151719927787781 -0.6586160063743591 0.23399600386619568
vn 0.5971270203590393 -0.5786200165748596 -0.5555520057678223
vn 0.9847019910812378 0.17421700060367584 -0.003085999982431531
vn 0.9435840249061584 0.0879260003566742 0.31924599409103394
vn -0.8796129822731018 0.4135400056838989 -0.23508599400520325
vn -0.8021510243415833 0.545553982257843 -0.24274399876594543
vn -0.4474410116672516 0.8371139764785767 -0.31470000743865967
vn -0.5099729895591736 0.8249379992485046 -0.2437330037355423
vn 0.9372230172157288 0.3445209860801697 -0.054016001522541046
vn 0.9311839938163757 0.19008000195026398 0.3110730051994324
vn -0.916949987411499 0.23386000096797943 0.3232850134372711
vn -0.9322159886360168 0.3604240119457245 -0.032680999487638474
vn 0.0 -0.9978479743003845 0.06556999683380127
vn -0.7410169839859009 -0.6693750023841858 -0.053206998854875565
vn -0.7246500253677368 -0.6700639724731445 -0.1609240025281906
vn 0.0 -1.0 6.199999916134402e-05
vn -0.8698089718818665 0.42184698581695557 -0.25588399171829224
vn -0.7246500253677368 -0.6700639724731445 -0.1609240025281906
vn -0.7410169839859009 -0.6693750023841858 -0.053206998854875565
vn -0.4605860114097595 0.8839640021324158 -0.08042600005865097
vn 0.8796520233154297 0.41682198643684387 -0.22906599938869476
vn 0.7410209774971008 -0.6693699955940247 -0.05321799963712692
vn 0.7246490120887756 -0.6700659990310669 -0.1609240025281906
vn 0.8787090182304382 0.4036169946193695 -0.25488099455833435
vn 0.5087969899177551 0.8313360214233398 -0.2236199975013733
vn 0.4228920042514801 0.8594170212745667 -0.28734099864959717
vn 0.7934539914131165 0.5557699799537659 -0.24809500575065613
vn 0.47264400124549866 0.8773199915885925 -0.08316899836063385
vn 0.6019729971885681 -0.4935699999332428 -0.6277080178260803
vn 0.6808310151100159 0.6657590270042419 -0.3053419888019562
vn 0.8655149936676025 0.452455997467041 -0.21486599743366241
vn 0.7273740172386169 -0.6118180155754089 -0.3108159899711609
vn -9.999999974752427e-07 -0.9978489875793457 0.06556200236082077
vn 0.0 -1.0 6.199999916134402e-05
vn 0.7246490120887756 -0.6700659990310669 -0.1609240025281906
vn 0.7410209774971008 -0.6693699955940247 -0.05321799963712692
vn 0.7151719927787781 -0.6586160063743591 0.23399600386619568
vn 0.5538039803504944 -0.5906199812889099 0.5869150161743164
vn -9.000000318337698e-06 -0.7083740234375 -0.7058370113372803
vn 0.5971270203590393 -0.5786200165748596 -0.5555520057678223
vn 0.6383050084114075 0.166361004114151 0.7515919804573059
vn 0.5538039803504944 -0.5906199812889099 0.5869150161743164
vn -0.15404599905014038 0.9688119888305664 -0.19409500062465668
vn -0.13524599373340607 0.9883970022201538 0.06914100050926208
vn -0.2863210141658783 -0.3445020020008087 -0.8940579891204834
vn -0.3159349858760834 0.7989929914474487 -0.5116590261459351
vn -9.999999974752427e-07 -0.9978479743003845 0.0655680000782013
vn -0.0 -1.0 6.399999983841553e-05
vn 1.8999999156221747e-05 -0.7086399793624878 -0.7055699825286865
vn -0.17485100030899048 -0.6194120049476624 0.7653470039367676
vn -0.17485100030899048 -0.6194120049476624 0.7653470039367676
vn -0.19822899997234344 0.16166700422763824 0.9667310118675232
vn 0.14361099898815155 0.9710670113563538 -0.19080199301242828
vn 0.1247130036354065 0.9897199869155884 0.07001200318336487
vn 0.2681330144405365 -0.34764400124549866 -0.8984699845314026
vn 0.2998349964618683 0.8032969832420349 -0.5145999789237976
vn -9.999999974752427e-07 -0.9978479743003845 0.06556499749422073
vn 9.999999974752427e-07 -1.0 6.399999983841553e-05
vn 0.1603260040283203 -0.6247050166130066 0.7642250061035156
vn 1.8000000636675395e-05 -0.7085130214691162 -0.7056970000267029
vn 0.1894340068101883 0.15029199421405792 0.9703230261802673
vn 0.1603260040283203 -0.6247050166130066 0.7642250061035156
vn 0.004490000195801258 0.9586259722709656 -0.284633994102478
vn -0.19822899997234344 0.16166700422763824 0.9667310118675232
vn -0.17485100030899048 -0.6194120049476624 0.7653470039367676
vn -0.5741479992866516 0.2427860051393509 0.7819259762763977
vn 0.6043959856033325 0.22460900247097015 0.7643669843673706
vn 0.019805999472737312 0.2233089953660965 0.9745470285415649
vn 0.019805999472737312 0.2233089953660965 0.9745470285415649
vn -0.9211320281028748 -0.26181700825691223 -0.28804001212120056
vn -0.9211320281028748 -0.26181700825691223 -0.28804001212120056
vn 1.2000000424450263e-05 -0.7534980177879333 -0.6574500203132629
vn 2.099999983329326e-05 -0.7533890008926392 -0.6575750112533569
vn 1.8999999156221747e-05 -0.7532680034637451 -0.6577140092849731
vn 2.300000051036477e-05 -0.7531489729881287 -0.6578500270843506
vn 0.9213089942932129 -0.2613140046596527 -0.28793200850486755
vn 0.9213089942932129 -0.2613140046596527 -0.28793200850486755
vn -0.7269859910011292 -0.6063339710235596 -0.32225900888442993
vn -0.7269859910011292 -0.6063339710235596 -0.32225900888442993
vn 0.000742000003810972 -0.9908409714698792 -0.13502800464630127
vn -0.0010740000288933516 -0.9902210235595703 -0.13950300216674805
vn -1.5999999959603883e-05 -0.9903690218925476 -0.13845199346542358
vn 7.999999797903001e-05 -0.9909780025482178 -0.13402700424194336
vn 0.7273740172386169 -0.6118180155754089 -0.3108159899711609
vn 0.7273740172386169 -0.6118180155754089 -0.3108159899711609
vn -0.5972499847412109 -0.5044270157814026 -0.6235740184783936
vn 0.0018220000201836228 -0.9397410154342651 -0.34188199043273926
vn -0.0025919999461621046 -0.9393709897994995 -0.3428939878940582
vn 0.6019729971885681 -0.4935699999332428 -0.6277080178260803
vn -0.2863210141658783 -0.3445020020008087 -0.8940579891204834
vn 0.2681330144405365 -0.34764400124549866 -0.8984699845314026

vt 0.5868880152702332 0.009037017822265625
vt 0.6239280104637146 0.0036649703979492188
vt 0.6246389746665955 0.02026498317718506
vt 0.5894650220870972 0.026032984256744385
vt 0.6613389849662781 0.0016270279884338379
vt 0.6622120141983032 0.018323004245758057
vt 0.6975489854812622 0.004483997821807861
vt 0.6982619762420654 0.02201002836227417
vt 0.7360829710960388 0.011614024639129639
vt 0.7340919971466064 0.029195010662078857
vt 0.7696830034255981 0.020954012870788574
vt 0.7646329998970032 0.03879600763320923
vt 0.9988089799880981 0.005921006202697754
vt 0.9628069996833801 0.0058789849281311035
vt 0.9629409909248352 0.023555994033813477
vt 0.9984189867973328 0.02558600902557373
vt 0.9248369932174683 0.007776021957397461
vt 0.9252409934997559 0.02529197931289673
vt 0.8863440155982971 0.008768975734710693
vt 0.8864449858665466 0.025767982006072998
vt 0.9030770063400269 0.0262259840965271
vt 0.9031320214271545 0.00854802131652832
vt 0.8686379790306091 0.006765007972717285
vt 0.8474050164222717 0.004302978515625
vt 0.8475819826126099 0.02203601598739624
vt 0.8687459826469421 0.02472102642059326
vt 0.8096449971199036 0.00045102834701538086
vt 0.8098350167274475 0.017700016498565674
vt 0.7747989892959595 -0.00013494491577148438
vt 0.7747989892959595 0.018096983432769775
vt 0.554660975933075 0.017958998680114746
vt 0.5592870116233826 0.03482097387313843
vt 0.8032490015029907 0.23227602243423462
vt 0.8032690286636353 0.2467309832572937
vt 0.7754160165786743 0.24038702249526978
vt 0.7960129976272583 0.21976202726364136
vt 0.7834889888763428 0.21254199743270874
vt 0.7690320014953613 0.21254199743270874
vt 0.7574710249900818 0.21881699562072754
vt 0.7509599924087524 0.2306309938430786
vt 0.7509070038795471 0.24515998363494873
vt 0.7568809986114502 0.2589449882507324
vt 0.7540339827537537 0.25305402278900146
vt 0.7706739902496338 0.2649000287055969
vt 0.7630130052566528 0.2619209885597229
vt 0.7852020263671875 0.26482802629470825
vt 0.7970070242881775 0.2583000063896179
vt 0.37508198618888855 0.13066202402114868
vt 0.3646030128002167 0.11430799961090088
vt 0.3811199963092804 0.09877902269363403
vt 0.3992049992084503 0.10733401775360107
vt 0.34143900871276855 0.13979297876358032
vt 0.3403970003128052 0.12050497531890869
vt 0.30699899792671204 0.1322770118713379
vt 0.31834301352500916 0.11460000276565552
vt 0.2827419936656952 0.10963398218154907
vt 0.30122798681259155 0.10149598121643066
vt 0.2736780047416687 0.08015602827072144
vt 0.2944200038909912 0.07937198877334595
vt 0.28207600116729736 0.04977297782897949
vt 0.3004879951477051 0.05896198749542236
vt 0.3060019910335541 0.026915013790130615
vt 0.316881000995636 0.04382401704788208
vt 0.3245460093021393 0.018666982650756836
vt 0.34009599685668945 0.014311015605926514
vt 0.3414750099182129 0.03723800182342529
vt 0.3304010033607483 0.03673899173736572
vt 0.3745959997177124 0.025373995304107666
vt 0.36343199014663696 0.04333597421646118
vt 0.3517630100250244 0.03659999370574951
vt 0.3559119999408722 0.01878601312637329
vt 0.39898398518562317 0.048201024532318115
vt 0.3806540071964264 0.05671602487564087
vt 0.4075689911842346 0.07731300592422485
vt 0.38738900423049927 0.07816201448440552
vt 0.8297349810600281 0.13308501243591309
vt 0.8020089864730835 0.1390100121498108
vt 0.8051789999008179 0.15907299518585205
vt 0.829177975654602 0.16098099946975708
vt 0.856453001499176 0.13203102350234985
vt 0.8557189702987671 0.16373097896575928
vt 0.8722959756851196 0.1321200132369995
vt 0.8713859915733337 0.16472101211547852
vt 0.8975440263748169 0.13309001922607422
vt 0.8852810263633728 0.13200700283050537
vt 0.8842290043830872 0.1655849814414978
vt 0.8964959979057312 0.16597801446914673
vt 0.9403030276298523 0.1379770040512085
vt 0.9136899709701538 0.1347460150718689
vt 0.9126060009002686 0.16656500101089478
vt 0.9393540024757385 0.16612297296524048
vt 0.963657021522522 0.16444998979568481
vt 0.9676370024681091 0.1448950171470642
vt 0.7452189922332764 0.16154998540878296
vt 0.7450569868087769 0.1806979775428772
vt 0.7185840010643005 0.17643100023269653
vt 0.7158259749412537 0.1618499755859375
vt 0.690904974937439 0.17325997352600098
vt 0.687379002571106 0.16339999437332153
vt 0.6635140180587769 0.17176997661590576
vt 0.6629260182380676 0.16221201419830322
vt 0.6378970146179199 0.16066598892211914
vt 0.6353319883346558 0.17031002044677734
vt 0.6092159748077393 0.15801000595092773
vt 0.6073179841041565 0.17293000221252441
vt 0.5802099704742432 0.15892398357391357
vt 0.5812919735908508 0.177869975566864
vt 0.8290129899978638 0.22735202312469482
vt 0.8276079893112183 0.2797679901123047
vt 0.8553329706192017 0.2798269987106323
vt 0.8558689951896667 0.22947800159454346
vt 0.8720239996910095 0.23050397634506226
vt 0.8718469738960266 0.2803570032119751
vt 0.8981800079345703 0.23199397325515747
vt 0.8854169845581055 0.23131698369979858
vt 0.8855119943618774 0.28087300062179565
vt 0.8985049724578857 0.2819629907608032
vt 0.9415900111198425 0.23347002267837524
vt 0.9148799777030945 0.2329609990119934
vt 0.9155210256576538 0.28335899114608765
vt 0.9429360032081604 0.28584498167037964
vt 0.9658439755439758 0.23189198970794678
vt 0.9683660268783569 0.287198007106781
vt 0.7219700217247009 0.24316102266311646
vt 0.747294008731842 0.2455049753189087
vt 0.7473589777946472 0.3004940152168274
vt 0.7215089797973633 0.30226802825927734
vt 0.6948509812355042 0.23977798223495483
vt 0.6946150064468384 0.3034819960594177
vt 0.6663010120391846 0.30300402641296387
vt 0.6662729978561401 0.23833298683166504
vt 0.63850998878479 0.30139297246932983
vt 0.6371020078659058 0.23805397748947144
vt 0.6124569773674011 0.2992900013923645
vt 0.6099129915237427 0.24033498764038086
vt 0.5872269868850708 0.2970370054244995
vt 0.5840499997138977 0.2427690029144287
vt 0.8048340082168579 0.22558999061584473
vt 0.8019610047340393 0.2803099751472473
vt 0.8719840049743652 0.11188501119613647
vt 0.8552790284156799 0.11196601390838623
vt 0.8982049822807312 0.11293298006057739
vt 0.8853449821472168 0.11208701133728027
vt 0.9152799844741821 0.11495101451873779
vt 0.943871021270752 0.11929500102996826
vt 0.9733380079269409 0.12632399797439575
vt 0.7215949892997742 0.14149099588394165
vt 0.7473800182342529 0.14266598224639893
vt 0.6920999884605408 0.1438869833946228
vt 0.6617599725723267 0.14262902736663818
vt 0.6323699951171875 0.1419529914855957
vt 0.6033549904823303 0.13938498497009277
vt 0.5781769752502441 0.14043700695037842
vt 0.8264909982681274 0.11418402194976807
vt 0.7966359853744507 0.12005901336669922
vt 0.8161669969558716 0.05346101522445679
vt 0.7837120294570923 0.05855900049209595
vt 0.7899289727210999 0.10756301879882812
vt 0.8215039968490601 0.10060298442840576
vt 0.8497740030288696 0.05178302526473999
vt 0.8527830243110657 0.09722399711608887
vt 0.8700699806213379 0.05123698711395264
vt 0.870943009853363 0.09656602144241333
vt 0.9025400280952454 0.053323984146118164
vt 0.8864660263061523 0.051614999771118164
vt 0.885765016078949 0.09643000364303589
vt 0.9001619815826416 0.09777098894119263
vt 0.923039972782135 0.05490201711654663
vt 0.9185829758644104 0.10031002759933472
vt 0.9492049813270569 0.1059579849243164
vt 0.9564719796180725 0.05909597873687744
vt 0.9805139899253845 0.11454302072525024
vt 0.9885410070419312 0.06523001194000244
vt 0.7295519709587097 0.07537198066711426
vt 0.7568910121917725 0.08032900094985962
vt 0.7460330128669739 0.12902498245239258
vt 0.7190319895744324 0.12655800580978394
vt 0.6959649920463562 0.07057702541351318
vt 0.6896370053291321 0.12576401233673096
vt 0.6620339751243591 0.1233929991722107
vt 0.662322998046875 0.06918597221374512
vt 0.6347119808197021 0.12355399131774902
vt 0.6281660199165344 0.06984502077102661
vt 0.6059520244598389 0.12397199869155884
vt 0.5945919752120972 0.07241302728652954
vt 0.5796210169792175 0.1265779733657837
vt 0.567333996295929 0.07784700393676758
vt 0.3408930003643036 0.07904797792434692
vt 0.8099709749221802 0.021575987339019775
vt 0.7757329940795898 0.02206599712371826
vt 0.8473899960517883 0.02588200569152832
vt 0.8684980273246765 0.02856498956680298
vt 0.8864830136299133 0.02977198362350464
vt 0.90345299243927 0.030054986476898193
vt 0.9254289865493774 0.029027998447418213
vt 0.9627839922904968 0.027306020259857178
vt 0.9972509741783142 0.029255986213684082
vt 0.7628759741783142 0.0420910120010376
vt 0.7337300181388855 0.03280597925186157
vt 0.6982640027999878 0.025776028633117676
vt 0.662319004535675 0.022055983543395996
vt 0.6247749924659729 0.024161994457244873
vt 0.5900319814682007 0.029675006866455078
vt 0.5610550045967102 0.03823399543762207
vt 0.29259800910949707 0.2395399808883667
vt 0.2282940000295639 0.26659101247787476
vt 0.21365900337696075 0.25080400705337524
vt 0.27188000082969666 0.22476798295974731
vt 0.09754300117492676 0.3070089817047119
vt 0.10066600143909454 0.31561100482940674
vt 0.0627489984035492 0.32922297716140747
vt 0.05978899821639061 0.32266801595687866
vt 0.1436849981546402 0.1231430172920227
vt 0.14687100052833557 0.16012799739837646
vt 0.12846499681472778 0.1601409912109375
vt 0.12842699885368347 0.0976560115814209
vt 0.1365019977092743 0.2858020067214966
vt 0.1467449963092804 0.2965739965438843
vt 0.10941799730062485 0.04257601499557495
vt 0.154121994972229 0.06475597620010376
vt 0.14316299557685852 0.07475602626800537
vt 0.10564299672842026 0.05087500810623169
vt 0.1813499927520752 0.25691497325897217
vt 0.15884600579738617 0.2420700192451477
vt 0.17673799395561218 0.21745198965072632
vt 0.19536900520324707 0.22716999053955078
vt 0.13142399489879608 0.09350097179412842
vt 0.09670600295066833 0.07077997922897339
vt 0.08757500350475311 0.28553497791290283
vt 0.1235869973897934 0.26520800590515137
vt 0.12848800420761108 0.19254201650619507
vt 0.14483599364757538 0.19253098964691162
vt 0.1437319964170456 0.21067798137664795
vt 0.1285099983215332 0.22641301155090332
vt 0.19916099309921265 0.25354599952697754
vt 0.2049199938774109 0.27494001388549805
vt 0.1818300038576126 0.2812749743461609
vt 0.2214290052652359 0.22584599256515503
vt 0.18618400394916534 0.10605400800704956
vt 0.18830299377441406 0.08178800344467163
vt 0.21048499643802643 0.09012800455093384
vt 0.20411500334739685 0.11047500371932983
vt 0.19787099957466125 0.13578802347183228
vt 0.17960800230503082 0.1455320119857788
vt 0.16488899290561676 0.119392991065979
vt 0.22428500652313232 0.13891202211380005
vt 0.29480600357055664 0.13062000274658203
vt 0.2750230133533478 0.14145499467849731
vt 0.2187110036611557 0.11407297849655151
vt 0.23294499516487122 0.10041701793670654
vt 0.05915199965238571 0.19258898496627808
vt 0.059174999594688416 0.2264609932899475
vt 0.0449879989027977 0.2107430100440979
vt 0.04386100172996521 0.19259899854660034
vt 0.04492399841547012 0.1231989860534668
vt 0.05909299850463867 0.097694993019104
vt 0.059130001813173294 0.1601809859275818
vt 0.041781000792980194 0.160194993019104
vt 0.069582000374794 0.032396018505096436
vt 0.07311400026082993 0.02614802122116089
vt 0.20243500173091888 0.1964309811592102
vt 0.23276199400424957 0.19843602180480957
vt 0.32274600863456726 0.2027050256729126
vt 0.2983829975128174 0.20006799697875977
vt 0.10624399781227112 0.19256097078323364
vt 0.10627000033855438 0.2338690161705017
vt 0.106222003698349 0.16015702486038208
vt 0.10617899894714355 0.08767098188400269
vt 0.030834000557661057 0.33721697330474854
vt 0.028140999376773834 0.33047497272491455
vt 0.2036290019750595 0.16955000162124634
vt 0.2327830046415329 0.17027002573013306
vt 0.32438498735427856 0.17024797201156616
vt 0.2974480092525482 0.17085599899291992
vt 0.08347400277853012 0.1925789713859558
vt 0.08350300043821335 0.2338860034942627
vt 0.08341299742460251 0.08768397569656372
vt 0.08345399796962738 0.16017097234725952
vt 0.03626000136137009 0.021458029747009277
vt 0.03920000046491623 0.014981985092163086
vt 0.18605199456214905 0.18197500705718994
vt 0.008728000335395336 0.014550983905792236
vt 0.009103000164031982 0.007241010665893555
vt 0.049966998398303986 0.301688015460968
vt 0.05996600165963173 0.05222600698471069
vt 0.008728000335395336 0.31172502040863037
vt 0.019303999841213226 0.039380013942718506
vt 0.14459800720214844 0.2918509840965271
vt 0.14687100052833557 0.16388201713562012
vt 0.12846699357032776 0.1638910174369812
vt 0.10622400045394897 0.163906991481781
vt 0.08345700055360794 0.16391998529434204
vt 0.05913199856877327 0.16393202543258667
vt 0.04178300127387047 0.1639459729194641
vt 0.1517149955034256 0.06930702924728394
vt 0.22371399402618408 0.26978302001953125
vt 0.14283299446105957 0.22544801235198975
vt 0.1285180002450943 0.23756998777389526
vt 0.10627900063991547 0.2474750280380249
vt 0.08351200073957443 0.2474920153617859
vt 0.059181999415159225 0.23761802911758423
vt 0.04590599983930588 0.22551101446151733
vt 0.22853900492191315 0.09691500663757324
vt 0.12852700054645538 0.2516930103302002
vt 0.10628800094127655 0.2619069814682007
vt 0.0835219994187355 0.26192402839660645
vt 0.059192001819610596 0.2517409920692444
vt 0.1062920019030571 0.26749199628829956
vt 0.08352600038051605 0.26750797033309937

usemtl Material

f 1/1/1 2/2/2 3/3/3
f 3/3/3 4/4/4 1/1/1
f 5/5/5 6/6/6 3/3/3
f 3/3/3 2/2/2 5/5/5
f 7/7/7 8/8/8 6/6/6
f 6/6/6 5/5/5 7/7/7
f 9/9/9 10/10/10 8/8/8
f 8/8/8 7/7/7 9/9/9
f 11/11/11 12/12/12 10/10/10
f 10/10/10 9/9/9 11/11/11
f 13/13/13 14/14/14 15/15/15
f 15/15/15 16/16/16 13/13/13
f 14/14/14 17/17/17 18/18/18
f 18/18/18 15/15/15 14/14/14
f 19/19/19 20/20/20 21/21/21
f 21/21/21 22/22/22 19/19/19
f 23/23/23 24/24/24 25/25/25
f 25/25/25 26/26/26 23/23/23
f 24/24/24 27/27/27 28/28/28
f 28/28/28 25/25/25 24/24/24
f 29/29/29 30/30/30 28/28/28
f 28/28/28 27/27/27 29/29/29
f 31/31/31 1/1/1 4/4/4
f 4/4/4 32/32/32 31/31/31
f 33/33/33 34/34/34 35/35/35
f 36/36/36 33/33/33 35/35/35
f 37/37/37 36/36/36 35/35/35
f 38/38/38 37/37/37 35/35/35
f 39/39/39 38/38/38 35/35/35
f 40/40/40 39/39/39 35/35/35
f 41/41/41 40/40/40 35/35/35
f 42/42/42 43/43/43 41/41/41
f 41/41/41 35/35/35 42/42/42
f 44/44/44 45/45/45 42/42/42
f 42/42/42 35/35/35 44/44/44
f 46/46/46 44/44/44 35/35/35
f 47/47/47 46/46/46 35/35/35
f 34/34/34 47/47/47 35/35/35
f 48/48/48 49/49/49 50/50/50
f 50/50/50 51/51/51 48/48/48
f 52/52/52 53/53/53 49/49/49
f 49/49/49 48/48/48 52/52/52
f 52/52/52 54/54/54 55/55/55
f 55/55/55 53/53/53 52/52/52
f 54/54/54 56/56/56 57/57/57
f 57/57/57 55/55/55 54/54/54
f 56/56/56 58/58/58 59/59/59
f 59/59/59 57/57/57 56/56/56
f 60/60/60 61/61/61 59/59/59
f 59/59/59 58/58/58 60/60/60
f 62/62/62 63/63/63 61/61/61
f 61/61/61 60/60/60 62/62/62
f 64/64/64 65/65/65 66/66/66
f 66/66/66 67/67/67 64/64/64
f 68/68/68 69/69/69 70/70/70
f 70/70/70 71/71/71 68/68/68
f 68/68/68 72/72/72 73/73/73
f 73/73/73 69/69/69 68/68/68
f 72/72/72 74/74/74 75/75/75
f 75/75/75 73/73/73 72/72/72
f 51/51/51 50/50/50 75/75/75
f 75/75/75 74/74/74 51/51/51
f 76/76/76 77/77/77 78/78/78
f 78/78/78 79/79/79 76/76/76
f 80/80/80 76/76/76 79/79/79
f 79/79/79 81/81/81 80/80/80
f 82/82/82 80/80/80 81/81/81
f 81/81/81 83/83/83 82/82/82
f 84/84/84 85/85/85 86/86/86
f 86/86/86 87/87/87 84/84/84
f 88/88/88 89/89/89 90/90/90
f 90/90/90 91/91/91 88/88/88
f 88/88/88 91/91/91 92/92/92
f 92/92/92 93/93/93 88/88/88
f 94/94/94 95/95/95 96/96/96
f 96/96/96 97/97/97 94/94/94
f 97/97/97 96/96/96 98/98/98
f 98/98/98 99/99/99 97/97/97
f 99/99/99 98/98/98 100/100/100
f 100/100/100 101/101/101 99/99/99
f 102/102/102 101/101/101 100/100/100
f 100/100/100 103/103/103 102/102/102
f 104/104/104 102/102/102 103/103/103
f 103/103/103 105/105/105 104/104/104
f 106/106/106 104/104/104 105/105/105
f 105/105/105 107/107/107 106/106/106
f 108/108/108 109/109/109 110/110/110
f 110/110/110 111/111/111 108/108/108
f 112/112/112 111/111/111 110/110/110
f 110/110/110 113/113/113 112/112/112
f 114/114/114 115/115/115 116/116/116
f 116/116/116 117/117/117 114/114/114
f 118/118/118 119/119/119 120/120/120
f 120/120/120 121/121/121 118/118/118
f 122/122/122 118/118/118 121/121/121
f 121/121/121 123/123/123 122/122/122
f 124/124/124 125/125/125 126/126/126
f 126/126/126 127/127/127 124/124/124
f 128/128/128 124/124/124 127/127/127
f 127/127/127 129/129/129 128/128/128
f 128/128/128 129/129/129 130/130/130
f 130/130/130 131/131/131 128/128/128
f 131/131/131 130/130/130 132/132/132
f 132/132/132 133/133/133 131/131/131
f 133/133/133 132/132/132 134/134/134
f 134/134/134 135/135/135 133/133/133
f 135/135/135 134/134/134 136/136/136
f 136/136/136 137/137/137 135/135/135
f 138/138/138 139/139/139 109/109/109
f 109/109/109 108/108/108 138/138/138
f 140/140/140 141/141/141 80/80/80
f 80/80/80 82/82/82 140/140/140
f 142/142/142 143/143/143 85/85/85
f 85/85/85 84/84/84 142/142/142
f 144/144/144 89/89/89 88/88/88
f 88/88/88 145/145/145 144/144/144
f 145/145/145 88/88/88 93/93/93
f 93/93/93 146/146/146 145/145/145
f 147/147/147 148/148/148 94/94/94
f 94/94/94 97/97/97 147/147/147
f 149/149/149 147/147/147 97/97/97
f 97/97/97 99/99/99 149/149/149
f 150/150/150 149/149/149 99/99/99
f 99/99/99 101/101/101 150/150/150
f 150/150/150 101/101/101 102/102/102
f 102/102/102 151/151/151 150/150/150
f 151/151/151 102/102/102 104/104/104
f 104/104/104 152/152/152 151/151/151
f 152/152/152 104/104/104 106/106/106
f 106/106/106 153/153/153 152/152/152
f 154/154/154 155/155/155 77/77/77
f 77/77/77 76/76/76 154/154/154
f 141/141/141 154/154/154 76/76/76
f 76/76/76 80/80/80 141/141/141
f 83/83/83 81/81/81 111/111/111
f 111/111/111 112/112/112 83/83/83
f 87/87/87 86/86/86 115/115/115
f 115/115/115 114/114/114 87/87/87
f 91/91/91 90/90/90 119/119/119
f 119/119/119 118/118/118 91/91/91
f 91/91/91 118/118/118 122/122/122
f 122/122/122 92/92/92 91/91/91
f 95/95/95 125/125/125 124/124/124
f 124/124/124 96/96/96 95/95/95
f 96/96/96 124/124/124 128/128/128
f 128/128/128 98/98/98 96/96/96
f 98/98/98 128/128/128 131/131/131
f 131/131/131 100/100/100 98/98/98
f 100/100/100 131/131/131 133/133/133
f 133/133/133 103/103/103 100/100/100
f 105/105/105 103/103/103 133/133/133
f 133/133/133 135/135/135 105/105/105
f 107/107/107 105/105/105 135/135/135
f 135/135/135 137/137/137 107/107/107
f 79/79/79 78/78/78 138/138/138
f 138/138/138 108/108/108 79/79/79
f 81/81/81 79/79/79 108/108/108
f 108/108/108 111/111/111 81/81/81
f 156/156/156 157/157/157 158/158/158
f 158/158/158 159/159/159 156/156/156
f 160/160/160 156/156/156 159/159/159
f 159/159/159 161/161/161 160/160/160
f 162/162/162 160/160/160 161/161/161
f 161/161/161 163/163/163 162/162/162
f 164/164/164 165/165/165 166/166/166
f 166/166/166 167/167/167 164/164/164
f 168/168/168 169/169/169 170/170/170
f 170/170/170 171/171/171 168/168/168
f 171/171/171 170/170/170 172/172/172
f 172/172/172 173/173/173 171/171/171
f 174/174/174 175/175/175 176/176/176
f 176/176/176 177/177/177 174/174/174
f 178/178/178 174/174/174 177/177/177
f 177/177/177 179/179/179 178/178/178
f 178/178/178 179/179/179 180/180/180
f 180/180/180 181/181/181 178/178/178
f 181/181/181 180/180/180 182/182/182
f 182/182/182 183/183/183 181/181/181
f 183/183/183 182/182/182 184/184/184
f 184/184/184 185/185/185 183/183/183
f 185/185/185 184/184/184 186/186/186
f 186/186/186 187/187/187 185/185/185
f 50/50/50 49/49/49 188/188/188
f 49/49/49 53/53/53 188/188/188
f 53/53/53 55/55/55 188/188/188
f 55/55/55 57/57/57 188/188/188
f 57/57/57 59/59/59 188/188/188
f 59/59/59 61/61/61 188/188/188
f 61/61/61 63/63/63 188/188/188
f 63/63/63 67/67/67 66/66/66
f 66/66/66 188/188/188 63/63/63
f 66/66/66 70/70/70 69/69/69
f 69/69/69 188/188/188 66/66/66
f 69/69/69 73/73/73 188/188/188
f 73/73/73 75/75/75 188/188/188
f 75/75/75 50/50/50 188/188/188
f 71/71/71 70/70/70 66/66/66
f 66/66/66 65/65/65 71/71/71
f 115/115/115 112/112/112 113/113/113
f 113/113/113 116/116/116 115/115/115
f 86/86/86 83/83/83 112/112/112
f 112/112/112 115/115/115 86/86/86
f 85/85/85 82/82/82 83/83/83
f 83/83/83 86/86/86 85/85/85
f 143/143/143 140/140/140 82/82/82
f 82/82/82 85/85/85 143/143/143
f 165/165/165 162/162/162 163/163/163
f 163/163/163 166/166/166 165/165/165
f 19/19/19 23/23/23 26/26/26
f 26/26/26 20/20/20 19/19/19
f 62/62/62 64/64/64 67/67/67
f 67/67/67 63/63/63 62/62/62
f 119/119/119 114/114/114 117/117/117
f 117/117/117 120/120/120 119/119/119
f 90/90/90 87/87/87 114/114/114
f 114/114/114 119/119/119 90/90/90
f 89/89/89 84/84/84 87/87/87
f 87/87/87 90/90/90 89/89/89
f 144/144/144 142/142/142 84/84/84
f 84/84/84 89/89/89 144/144/144
f 164/164/164 167/167/167 169/169/169
f 169/169/169 168/168/168 164/164/164
f 17/17/17 22/22/22 21/21/21
f 21/21/21 18/18/18 17/17/17
f 159/159/159 158/158/158 155/155/155
f 155/155/155 154/154/154 159/159/159
f 161/161/161 159/159/159 154/154/154
f 154/154/154 141/141/141 161/161/161
f 163/163/163 161/161/161 141/141/141
f 141/141/141 140/140/140 163/163/163
f 166/166/166 163/163/163 140/140/140
f 140/140/140 143/143/143 166/166/166
f 166/166/166 143/143/143 142/142/142
f 142/142/142 167/167/167 166/166/166
f 167/167/167 142/142/142 144/144/144
f 144/144/144 169/169/169 167/167/167
f 169/169/169 144/144/144 145/145/145
f 145/145/145 170/170/170 169/169/169
f 170/170/170 145/145/145 146/146/146
f 146/146/146 172/172/172 170/170/170
f 176/176/176 148/148/148 147/147/147
f 147/147/147 177/177/177 176/176/176
f 177/177/177 147/147/147 149/149/149
f 149/149/149 179/179/179 177/177/177
f 179/179/179 149/149/149 150/150/150
f 150/150/150 180/180/180 179/179/179
f 182/182/182 180/180/180 150/150/150
f 150/150/150 151/151/151 182/182/182
f 184/184/184 182/182/182 151/151/151
f 151/151/151 152/152/152 184/184/184
f 186/186/186 184/184/184 152/152/152
f 152/152/152 153/153/153 186/186/186
f 189/189/189 190/190/190 157/157/157
f 157/157/157 156/156/156 189/189/189
f 191/191/191 189/189/189 156/156/156
f 156/156/156 160/160/160 191/191/191
f 192/192/192 191/191/191 160/160/160
f 160/160/160 162/162/162 192/192/192
f 193/193/193 192/192/192 162/162/162
f 162/162/162 165/165/165 193/193/193
f 194/194/194 193/193/193 165/165/165
f 165/165/165 164/164/164 194/194/194
f 194/194/194 164/164/164 168/168/168
f 168/168/168 195/195/195 194/194/194
f 195/195/195 168/168/168 171/171/171
f 171/171/171 196/196/196 195/195/195
f 196/196/196 171/171/171 173/173/173
f 173/173/173 197/197/197 196/196/196
f 198/198/198 175/175/175 174/174/174
f 174/174/174 199/199/199 198/198/198
f 199/199/199 174/174/174 178/178/178
f 178/178/178 200/200/200 199/199/199
f 200/200/200 178/178/178 181/181/181
f 181/181/181 201/201/201 200/200/200
f 201/201/201 181/181/181 183/183/183
f 183/183/183 202/202/202 201/201/201
f 202/202/202 183/183/183 185/185/185
f 185/185/185 203/203/203 202/202/202
f 204/204/204 203/203/203 185/185/185
f 185/185/185 187/187/187 204/204/204
f 28/28/28 30/30/30 190/190/190
f 190/190/190 189/189/189 28/28/28
f 25/25/25 28/28/28 189/189/189
f 189/189/189 191/191/191 25/25/25
f 26/26/26 25/25/25 191/191/191
f 191/191/191 192/192/192 26/26/26
f 193/193/193 20/20/20 26/26/26
f 26/26/26 192/192/192 193/193/193
f 21/21/21 20/20/20 193/193/193
f 193/193/193 194/194/194 21/21/21
f 18/18/18 21/21/21 194/194/194
f 194/194/194 195/195/195 18/18/18
f 18/18/18 195/195/195 196/196/196
f 196/196/196 15/15/15 18/18/18
f 15/15/15 196/196/196 197/197/197
f 197/197/197 16/16/16 15/15/15
f 12/12/12 198/198/198 199/199/199
f 199/199/199 10/10/10 12/12/12
f 10/10/10 199/199/199 200/200/200
f 200/200/200 8/8/8 10/10/10
f 8/8/8 200/200/200 201/201/201
f 201/201/201 6/6/6 8/8/8
f 6/6/6 201/201/201 202/202/202
f 202/202/202 3/3/3 6/6/6
f 3/3/3 202/202/202 203/203/203
f 203/203/203 4/4/4 3/3/3
f 4/4/4 203/203/203 204/204/204
f 204/204/204 32/32/32 4/4/4
f 205/205/205 206/206/206 207/207/207
f 207/207/207 208/208/208 205/205/205
f 209/209/209 210/210/210 211/211/211
f 211/211/211 212/212/212 209/209/209
f 213/213/213 214/214/214 215/215/215
f 215/215/215 216/216/216 213/213/213
f 210/210/210 209/209/209 217/217/217
f 217/217/217 218/218/218 210/210/210
f 219/219/219 220/220/220 221/221/221
f 221/221/221 222/222/222 219/219/219
f 223/223/223 224/224/224 225/225/225
f 225/225/225 226/226/226 223/223/223
f 221/221/221 227/227/227 228/228/228
f 228/228/228 222/222/222 221/221/221
f 217/217/217 209/209/209 229/229/229
f 229/229/229 230/230/230 217/217/217
f 231/231/231 232/232/232 233/233/233
f 233/233/233 234/234/234 231/231/231
f 223/223/223 235/235/235 236/236/236
f 236/236/236 237/237/237 223/223/223
f 226/226/226 238/238/238 235/235/235
f 235/235/235 223/223/223 226/226/226
f 239/239/239 240/240/240 241/241/241
f 241/241/241 242/242/242 239/239/239
f 239/239/239 243/243/243 244/244/244
f 244/244/244 245/245/245 239/239/239
f 243/243/243 239/239/239 242/242/242
f 242/242/242 246/246/246 243/243/243
f 247/247/247 248/248/248 249/249/249
f 249/249/249 250/250/250 247/247/247
f 251/251/251 252/252/252 253/253/253
f 253/253/253 254/254/254 251/251/251
f 255/255/255 256/256/256 257/257/257
f 257/257/257 258/258/258 255/255/255
f 259/259/259 260/260/260 219/219/219
f 219/219/219 222/222/222 259/259/259
f 238/238/238 226/226/226 261/261/261
f 261/261/261 262/262/262 238/238/238
f 263/263/263 205/205/205 208/208/208
f 208/208/208 264/264/264 263/263/263
f 265/265/265 231/231/231 234/234/234
f 234/234/234 266/266/266 265/265/265
f 216/216/216 215/215/215 267/267/267
f 267/267/267 268/268/268 216/216/216
f 212/212/212 211/211/211 269/269/269
f 269/269/269 270/270/270 212/212/212
f 271/271/271 243/243/243 246/246/246
f 246/246/246 272/272/272 271/271/271
f 273/273/273 274/274/274 248/248/248
f 248/248/248 247/247/247 273/273/273
f 275/275/275 276/276/276 252/252/252
f 252/252/252 251/251/251 275/275/275
f 256/256/256 277/277/277 278/278/278
f 278/278/278 257/257/257 256/256/256
f 259/259/259 279/279/279 280/280/280
f 280/280/280 260/260/260 259/259/259
f 271/271/271 281/281/281 244/244/244
f 244/244/244 243/243/243 271/271/271
f 261/261/261 271/271/271 272/272/272
f 272/272/272 262/262/262 261/261/261
f 263/263/263 264/264/264 274/274/274
f 274/274/274 273/273/273 263/263/263
f 265/265/265 266/266/266 276/276/276
f 276/276/276 275/275/275 265/265/265
f 268/268/268 267/267/267 278/278/278
f 278/278/278 277/277/277 268/268/268
f 282/282/282 283/283/283 280/280/280
f 280/280/280 279/279/279 282/282/282
f 229/229/229 209/209/209 212/212/212
f 212/212/212 284/284/284 229/229/229
f 285/285/285 259/259/259 222/222/222
f 222/222/222 228/228/228 285/285/285
f 225/225/225 281/281/281 261/261/261
f 261/261/261 226/226/226 225/225/225
f 284/284/284 212/212/212 270/270/270
f 270/270/270 286/286/286 284/284/284
f 285/285/285 287/287/287 279/279/279
f 279/279/279 259/259/259 285/285/285
f 287/287/287 282/282/282 279/279/279
f 281/281/281 271/271/271 261/261/261
f 217/217/217 230/230/230 224/224/224
f 224/224/224 223/223/223 217/217/217
f 288/288/288 218/218/218 217/217/217
f 214/214/214 289/289/289 290/290/290
f 290/290/290 215/215/215 214/214/214
f 215/215/215 290/290/290 291/291/291
f 291/291/291 267/267/267 215/215/215
f 267/267/267 291/291/291 292/292/292
f 292/292/292 278/278/278 267/267/267
f 278/278/278 292/292/292 293/293/293
f 293/293/293 257/257/257 278/278/278
f 257/257/257 293/293/293 294/294/294
f 294/294/294 258/258/258 257/257/257
f 221/221/221 220/220/220 295/295/295
f 221/221/221 239/239/239 245/245/245
f 245/245/245 227/227/227 221/221/221
f 237/237/237 288/288/288 217/217/217
f 217/217/217 223/223/223 237/237/237
f 290/290/290 289/289/289 232/232/232
f 232/232/232 231/231/231 290/290/290
f 290/290/290 231/231/231 265/265/265
f 265/265/265 291/291/291 290/290/290
f 291/291/291 265/265/265 275/275/275
f 275/275/275 292/292/292 291/291/291
f 292/292/292 275/275/275 251/251/251
f 251/251/251 293/293/293 292/292/292
f 293/293/293 251/251/251 254/254/254
f 254/254/254 294/294/294 293/293/293
f 221/221/221 295/295/295 240/240/240
f 240/240/240 239/239/239 221/221/221
f 236/236/236 235/235/235 207/207/207
f 207/207/207 296/296/296 236/236/236
f 234/234/234 233/233/233 297/297/297
f 297/297/297 298/298/298 234/234/234
f 266/266/266 234/234/234 298/298/298
f 298/298/298 299/299/299 266/266/266
f 266/266/266 299/299/299 300/300/300
f 300/300/300 276/276/276 266/266/266
f 276/276/276 300/300/300 301/301/301
f 301/301/301 252/252/252 276/276/276
f 252/252/252 301/301/301 302/302/302
f 302/302/302 253/253/253 252/252/252
f 241/241/241 303/303/303 249/249/249
f 249/249/249 242/242/242 241/241/241
f 246/246/246 242/242/242 249/249/249
f 249/249/249 248/248/248 246/246/246
f 272/272/272 246/246/246 248/248/248
f 248/248/248 274/274/274 272/272/272
f 272/272/272 274/274/274 264/264/264
f 264/264/264 262/262/262 272/272/272
f 262/262/262 264/264/264 208/208/208
f 208/208/208 238/238/238 262/262/262
f 238/238/238 208/208/208 207/207/207
f 207/207/207 235/235/235 238/238/238
f 298/298/298 304/304/304 305/305/305
f 305/305/305 299/299/299 298/298/298
f 299/299/299 305/305/305 306/306/306
f 306/306/306 300/300/300 299/299/299
f 300/300/300 306/306/306 307/307/307
f 307/307/307 301/301/301 300/300/300
f 298/298/298 297/297/297 304/304/304
f 302/302/302 301/301/301 307/307/307
f 305/305/305 304/304/304 308/308/308
f 305/305/305 308/308/308 309/309/309
f 309/309/309 306/306/306 305/305/305
f 307/307/307 306/306/306 309/309/309