mtllib 55913474.mtl
o Mesh

v 0.10458199679851532 -1.0049340724945068 -0.5609260201454163
v 0.10756400227546692 -0.8901610374450684 -0.5680220127105713
v 0.22536200284957886 -0.9080849885940552 -0.4513779878616333
v 0.2208240032196045 -1.0049340724945068 -0.44113001227378845
v 0.0945810005068779 1.1971700191497803 -0.0321739986538887
v 0.09458000212907791 1.1971700191497803 0.24769900739192963
v 0.2480739951133728 1.0 0.2359749972820282
v 0.294609010219574 1.0 -0.06147899851202965
v 0.0510840006172657 -1.0049340724945068 0.370074987411499
v 0.16454100608825684 -1.0049340724945068 0.22736400365829468
v 0.1456719934940338 -0.8935199975967407 0.21843600273132324
v 0.03803800046443939 -0.8920320272445679 0.35590600967407227
v 0.045049998909235 -1.0049340724945068 0.12887899577617645
v 0.17833299934864044 -1.0049340724945068 0.053282998502254486
v 0.16454100608825684 -1.0049340724945068 0.22736400365829468
v 0.0510840006172657 -1.0049340724945068 0.370074987411499
v 0.17833299934864044 -1.0049340724945068 0.053282998502254486
v 0.1588129997253418 -0.8935199975967407 0.05442800000309944
v -0.36921700835227966 -0.8935199975967407 0.21843600273132324
v -0.38611900806427 -0.8935199975967407 0.05442800000309944
v -0.4055100083351135 -1.0049340724945068 0.053282998502254486
v -0.3878970146179199 -1.0049340724945068 0.22736400365829468
v 0.14824700355529785 -0.3890039920806885 -0.06831999868154526
v 0.1260560005903244 -0.6459250450134277 -0.03317999839782715
v 0.02092899940907955 -0.5446009635925293 -0.1424189954996109
v 0.03033299930393696 -0.3518439531326294 -0.17611399292945862
v -0.3512499928474426 -0.6471070051193237 0.0633699968457222
v -0.33424699306488037 -0.6428359746932983 0.17506900429725647
v -0.3562229871749878 -0.3891409635543823 0.165243998169899
v -0.36932000517845154 -0.3873089551925659 0.03687100112438202
v 0.02092899940907955 -0.6160249710083008 0.32573598623275757
v 0.10905399918556213 -0.6428359746932983 0.17506900429725647
v 0.14020900428295135 -0.39410698413848877 0.165243998169899
v 0.03033299930393696 -0.35979795455932617 0.32377299666404724
v 0.1260560005903244 -0.6471070051193237 0.0633699968457222
v 0.1587039977312088 -0.39227402210235596 0.03687100112438202
v 0.08493100106716156 1.1971700191497803 -0.20963500440120697
v 0.2480739951133728 1.0 -0.2538430094718933
v 0.10370100289583206 0.9950199723243713 -0.36625799536705017
v -0.4166490137577057 0.7066699862480164 -0.10184899717569351
v -0.40999600291252136 0.42789000272750854 -0.07153400033712387
v -0.3940730094909668 0.42256999015808105 0.10561499744653702
v -0.38852301239967346 0.7092900276184082 0.1540060043334961
v 0.1037369966506958 1.0031399726867676 0.35920101404190063
v 0.24602599442005157 0.7092900276184082 0.1540060043334961
v 0.19798000156879425 0.42256999015808105 0.10561499744653702
v 0.22816400229930878 0.42789000272750854 -0.07153400033712387
v 0.28865399956703186 0.7066699862480164 -0.10184899717569351
v 0.19798000156879425 0.433929979801178 -0.2370939999818802
v 0.22265200316905975 0.23005998134613037 -0.23537200689315796
v 0.10467100143432617 0.2586600184440613 -0.41211798787117004
v 0.08881799876689911 0.46306002140045166 -0.3807699978351593
v -0.4574739933013916 0.21943998336791992 -0.04734300076961517
v -0.4455319941043854 0.210099995136261 0.14865200221538544
v 0.0740630030632019 0.42093998193740845 0.26738500595092773
v 0.08019299805164337 0.20680999755859375 0.33761999011039734
v 0.22265200316905975 0.210099995136261 0.14865200221538544
v 0.25078898668289185 0.21943998336791992 -0.04734300076961517
v 0.08524399995803833 -1.0049340724945068 -0.3271400034427643
v 0.21831299364566803 -1.0049340724945068 -0.280707985162735
v 0.1780640035867691 -1.0049340724945068 -0.11607000231742859
v 0.045049998909235 -1.0049340724945068 -0.08720800280570984
v 0.1780640035867691 -1.0049340724945068 -0.11607000231742859
v 0.21831299364566803 -1.0049340724945068 -0.280707985162735
v 0.20627999305725098 -0.8988080024719238 -0.27941200137138367
v 0.15237000584602356 -0.8779170513153076 -0.08448699861764908
v 0.19447000324726105 -0.832785964012146 -0.2527959942817688
v 0.07718399912118912 -0.7948989868164062 -0.37581199407577515
v 0.025234000757336617 -0.6710660457611084 -0.15362399816513062
v 0.12715399265289307 -0.7608530521392822 -0.06218099966645241
v -0.4324280023574829 -0.8988080024719238 -0.27941200137138367
v -0.4409259855747223 -1.0049340724945068 -0.280707985162735
v -0.40053999423980713 -1.0049340724945068 -0.11607000231742859
v -0.38135001063346863 -0.8779170513153076 -0.08448699861764908
v -0.396263986825943 0.433929979801178 -0.2370939999818802
v -0.2940239906311035 0.4632800221443176 -0.38811200857162476
v -0.33348700404167175 0.2586600184440613 -0.41982799768447876
v -0.4455319941043854 0.23005998134613037 -0.23537200689315796
v -0.25049999356269836 -0.5446009635925293 -0.1424189954996109
v -0.3512499928474426 -0.6459250450134277 -0.03317999839782715
v -0.3642599880695343 -0.38403797149658203 -0.06831999868154526
v -0.26055899262428284 -0.3485339879989624 -0.17611399292945862
v -0.4240869879722595 -0.832785964012146 -0.2527959942817688
v -0.36251699924468994 -0.7608530521392822 -0.06218099966645241
v -0.2532089948654175 -0.6710660457611084 -0.15362399816513062
v -0.30615800619125366 -0.7948989868164062 -0.37581199407577515
v -0.4479120075702667 -0.9080849885940552 -0.4513779878616333
v -0.3368909955024719 -0.8901610374450684 -0.5680220127105713
v -0.33400198817253113 -1.0049340724945068 -0.5609260201454163
v -0.443558007478714 -1.0049340724945068 -0.44113001227378845
v -0.40053999423980713 -1.0049340724945068 -0.11607000231742859
v -0.4409259855747223 -1.0049340724945068 -0.280707985162735
v -0.31452101469039917 -1.0049340724945068 -0.3271400034427643
v -0.2734009921550751 -1.0049340724945068 -0.08720800280570984
v -0.3878970146179199 -1.0049340724945068 0.22736400365829468
v -0.4055100083351135 -1.0049340724945068 0.053282998502254486
v -0.2734009921550751 -1.0049340724945068 0.12887899577617645
v -0.2794800102710724 -1.0049340724945068 0.370074987411499
v -0.2794800102710724 -1.0049340724945068 0.370074987411499
v -0.26622098684310913 -0.8920320272445679 0.35590600967407227
v -0.25049999356269836 -0.6160249710083008 0.32573598623275757
v -0.26055899262428284 -0.26906096935272217 0.32377299666404724
v -0.27483201026916504 0.419950008392334 0.2673099935054779
v -0.3090069890022278 0.20680999755859375 0.33761999011039734
v -0.4262450039386749 1.0 0.2359749972820282
v -0.28781700134277344 0.9898800253868103 0.3581399917602539
v -0.29715800285339355 1.1971700191497803 0.24769900739192963
v -0.29715800285339355 1.1971700191497803 -0.0321739986538887
v -0.45695000886917114 1.0 -0.06147899851202965
v -0.4262450039386749 1.0 -0.2538430094718933
v -0.28637200593948364 1.1971700191497803 -0.20963500440120697
v -0.28785499930381775 0.99795001745224 -0.3736560046672821
v -0.035891998559236526 0.2687699794769287 -0.4561609923839569
v -0.037689998745918274 0.486549973487854 -0.41568198800086975
v -0.07120899856090546 -0.5172209739685059 -0.1659650057554245
v -0.07280299812555313 -0.33792197704315186 -0.19839200377464294
v -0.04579399898648262 -0.7874900102615356 -0.4072380065917969
v -0.0640920028090477 -0.642003059387207 -0.18378299474716187
v -0.036118000745773315 -1.0049340724945068 -0.6571490168571472
v -0.03501899912953377 -0.8858959674835205 -0.6633390188217163
v -0.04300300031900406 -1.0049340724945068 -0.3445909917354584
v -0.057110998779535294 -1.0049340724945068 -0.08720800280570984
v -0.057110998779535294 -1.0049340724945068 0.15479899942874908
v -0.054962001740932465 -1.0049340724945068 0.42968401312828064
v -0.054962001740932465 -1.0049340724945068 0.42968401312828064
v 0.0510840006172657 -1.0049340724945068 0.370074987411499
v 0.03803800046443939 -0.8920320272445679 0.35590600967407227
v -0.05956999957561493 -0.8920320272445679 0.4139460027217865
v -0.07120899856090546 -0.6160249710083008 0.36776700615882874
v 0.02092899940907955 -0.6160249710083008 0.32573598623275757
v 0.03033299930393696 -0.35979795455932617 0.32377299666404724
v -0.07280299812555313 -0.2723720073699951 0.3606500029563904
v 0.08019299805164337 0.20680999755859375 0.33761999011039734
v 0.0740630030632019 0.42093998193740845 0.26738500595092773
v -0.03859600052237511 0.42062002420425415 0.2930229902267456
v -0.044665999710559845 0.20680999755859375 0.3696419894695282
v -0.031091000884771347 1.1971700191497803 0.24769900739192963
v -0.021877000108361244 0.9988800287246704 0.3992229998111725
v -0.031091000884771347 1.1971700191497803 -0.05238199979066849
v -0.03418499976396561 1.1971700191497803 -0.24697299301624298
v -0.021911999210715294 0.995959997177124 -0.4043219983577728
v 0.08355800062417984 0.1313999891281128 -0.37058401107788086
v 0.2029300034046173 0.12024998664855957 -0.22932399809360504
v 0.2029300034046173 0.10976999998092651 0.13992199301719666
v 0.22780700027942657 0.11466997861862183 -0.053300000727176666
v 0.07126200199127197 0.1080399751663208 0.3299010097980499
v -0.044137999415397644 0.1080399751663208 0.36521899700164795
v 0.07126200199127197 0.1080399751663208 0.3299010097980499
v -0.41464000940322876 0.10976999998092651 0.13992199301719666
v -0.2884570062160492 0.1080399751663208 0.3299010097980499
v -0.4258370101451874 0.11466997861862183 -0.053300000727176666
v -0.30075401067733765 0.1313999891281128 -0.377921998500824
v -0.41464000940322876 0.12024998664855957 -0.22932399809360504
v -0.03973099961876869 0.1313999891281128 -0.4071359932422638
v -0.38852301239967346 0.7066699862480164 -0.28325599431991577
v -0.2666639983654022 0.7054200172424316 -0.4099690020084381
v -0.013251000083982944 0.704200029373169 -0.4355570077896118
v 0.11888699978590012 0.7036199569702148 -0.4025940001010895
v 0.24602599442005157 0.7066699862480164 -0.28325599431991577
v 0.11890599876642227 0.7112300395965576 0.29788899421691895
v -0.013230999931693077 0.7086099982261658 0.32833001017570496
v 0.11890599876642227 0.7112300395965576 0.29788899421691895
v -0.2666440010070801 0.7030900120735168 0.29724299907684326
v -0.15552100539207458 -0.642003059387207 -0.18378299474716187
v -0.17166699469089508 -0.7874900102615356 -0.4072380065917969
v -0.18095900118350983 -0.8858959674835205 -0.6633390188217163
v -0.1801300048828125 -1.0049340724945068 -0.6571490168571472
v -0.17426800727844238 -1.0049340724945068 -0.3445909917354584
v -0.16167600452899933 -1.0049340724945068 -0.08720800280570984
v -0.16167600452899933 -1.0049340724945068 0.15479899942874908
v -0.16350600123405457 -1.0049340724945068 0.42968401312828064
v -0.26622098684310913 -0.8920320272445679 0.35590600967407227
v -0.2794800102710724 -1.0049340724945068 0.370074987411499
v -0.16350600123405457 -1.0049340724945068 0.42968401312828064
v -0.15947599709033966 -0.8920320272445679 0.4139460027217865
v -0.25049999356269836 -0.6160249710083008 0.32573598623275757
v -0.14973700046539307 -0.6160249710083008 0.36776700615882874
v -0.1723719984292984 -0.2723720073699951 0.3606500029563904
v -0.26055899262428284 -0.26906096935272217 0.32377299666404724
v -0.2884570062160492 0.1080399751663208 0.3299010097980499
v -0.1622530072927475 0.1080399751663208 0.36521899700164795
v -0.17246100306510925 0.20680999755859375 0.3696419894695282
v -0.3090069890022278 0.20680999755859375 0.33761999011039734
v -0.27483201026916504 0.419950008392334 0.2673099935054779
v -0.16069599986076355 0.4202899932861328 0.29299798607826233
v -0.2666440010070801 0.7030900120735168 0.29724299907684326
v -0.14532899856567383 0.7059400081634521 0.3281170129776001
v -0.15044599771499634 0.9945300221443176 0.3988740146160126
v -0.1597210019826889 1.1971700191497803 0.24769900739192963
v -0.1597210019826889 1.1971700191497803 -0.05238199979066849
v -0.15610499680042267 1.1971700191497803 -0.24697299301624298
v -0.15048199892044067 0.9969199895858765 -0.4033780097961426
v -0.16218100488185883 0.4866200089454651 -0.41471898555755615
v -0.14534899592399597 0.7047899961471558 -0.4346050024032593
v -0.1797640025615692 0.2687699794769287 -0.45514899492263794
v -0.16592200100421906 0.1313999891281128 -0.4061720073223114
v -0.16025599837303162 -0.5172209739685059 -0.1659650057554245
v -0.17734499275684357 -0.33792197704315186 -0.19839200377464294
v 0.10370100289583206 0.9950199723243713 -0.36625799536705017
v 0.2480739951133728 1.0 -0.2538430094718933
v -0.021911999210715294 0.995959997177124 -0.4043219983577728
v -0.15048199892044067 0.9969199895858765 -0.4033780097961426
v -0.28785499930381775 0.99795001745224 -0.3736560046672821
v -0.4262450039386749 1.0 -0.2538430094718933
v -0.4262450039386749 1.0 0.2359749972820282
v -0.45695000886917114 1.0 -0.06147899851202965
v -0.28781700134277344 0.9898800253868103 0.3581399917602539
v -0.28781700134277344 0.9898800253868103 0.3581399917602539
v -0.15044599771499634 0.9945300221443176 0.3988740146160126
v -0.021877000108361244 0.9988800287246704 0.3992229998111725
v 0.1037369966506958 1.0031399726867676 0.35920101404190063
v 0.2480739951133728 1.0 0.2359749972820282
v 0.1037369966506958 1.0031399726867676 0.35920101404190063
v 0.294609010219574 1.0 -0.06147899851202965
v 0.025234000757336617 -0.7888220548629761 0.3333120048046112
v 0.12715399265289307 -0.7917690277099609 0.20098499953746796
v -0.0640920028090477 -0.7888220548629761 0.38981199264526367
v 0.025234000757336617 -0.7888220548629761 0.3333120048046112
v -0.15552100539207458 -0.7888220548629761 0.38981199264526367
v -0.2532089948654175 -0.7888220548629761 0.3333120048046112
v -0.35088399052619934 -0.7917690277099609 0.20098499953746796
v -0.2532089948654175 -0.7888220548629761 0.3333120048046112
v -0.36708900332450867 -0.7917690277099609 0.04686199873685837
v 0.13965600728988647 -0.7917690277099609 0.04686199873685837
v 0.1260560005903244 -0.6459250450134277 -0.03317999839782715
v 0.14824700355529785 -0.3890039920806885 -0.06831999868154526
v 0.12715399265289307 -0.7608530521392822 -0.06218099966645241
v -0.3512499928474426 -0.6459250450134277 -0.03317999839782715
v -0.36251699924468994 -0.7608530521392822 -0.06218099966645241
v -0.3642599880695343 -0.38403797149658203 -0.06831999868154526
v -0.4455319941043854 0.23005998134613037 -0.23537200689315796
v -0.41464000940322876 0.12024998664855957 -0.22932399809360504
v -0.396263986825943 0.433929979801178 -0.2370939999818802
v -0.4262450039386749 1.0 -0.2538430094718933
v -0.38852301239967346 0.7066699862480164 -0.28325599431991577
v 0.2480739951133728 1.0 -0.2538430094718933
v 0.24602599442005157 0.7066699862480164 -0.28325599431991577
v 0.19798000156879425 0.433929979801178 -0.2370939999818802
v 0.22265200316905975 0.23005998134613037 -0.23537200689315796
v 0.2029300034046173 0.12024998664855957 -0.22932399809360504
v -0.4256500005722046 -0.07642602920532227 -0.16946199536323547
v -0.29832199215888977 -0.07493197917938232 -0.3291189968585968
v -0.31167900562286377 -0.14885199069976807 -0.33321401476860046
v -0.448386013507843 -0.14892005920410156 -0.15955400466918945
v -0.4351069927215576 -0.07715094089508057 -0.014022000133991241
v -0.4574989974498749 -0.14892005920410156 -0.0012390000047162175
v -0.42160800099372864 -0.07778704166412354 0.18419699370861053
v -0.44235700368881226 -0.1489180326461792 0.21070800721645355
v -0.29659798741340637 -0.07795703411102295 0.3860650062561035
v -0.31167900562286377 -0.1488349437713623 0.4284290075302124
v -0.1675270050764084 -0.07795703411102295 0.4282659888267517
v -0.1749510020017624 -0.1488349437713623 0.47498100996017456
v -0.1675270050764084 -0.07795703411102295 0.4282659888267517
v -0.1749510020017624 -0.1488349437713623 0.47498100996017456
v -0.034648001194000244 -0.1488349437713623 0.47498100996017456
v -0.03845600038766861 -0.07795703411102295 0.4282659888267517
v 0.10531800240278244 -0.1488349437713623 0.4284290075302124
v 0.08958400040864944 -0.07795703411102295 0.3860650062561035
v 0.24193799495697021 -0.1489180326461792 0.21070800721645355
v 0.2202029973268509 -0.07778704166412354 0.18419699370861053
v 0.2667999863624573 -0.14892005920410156 -0.0012390000047162175
v 0.24403400719165802 -0.07715094089508057 -0.014022000133991241
v 0.24796700477600098 -0.14892005920410156 -0.15955400466918945
v 0.22424499690532684 -0.07642602920532227 -0.16946199536323547
v 0.10531800240278244 -0.14885199069976807 -0.33321401476860046
v 0.09130699932575226 -0.07493197917938232 -0.3291189968585968
v -0.034648001194000244 -0.1488339900970459 -0.362419992685318
v -0.037838999181985855 -0.07492005825042725 -0.3577739894390106
v 0.2208240032196045 -1.0049340724945068 -0.44113001227378845
v 0.22536200284957886 -0.9080849885940552 -0.4513779878616333
v 0.10458199679851532 -1.0049340724945068 -0.5609260201454163
v 0.2208240032196045 -1.0049340724945068 -0.44113001227378845
v -0.036118000745773315 -1.0049340724945068 -0.6571490168571472
v -0.1801300048828125 -1.0049340724945068 -0.6571490168571472
v -0.33400198817253113 -1.0049340724945068 -0.5609260201454163
v -0.443558007478714 -1.0049340724945068 -0.44113001227378845
v -0.4479120075702667 -0.9080849885940552 -0.4513779878616333
v -0.443558007478714 -1.0049340724945068 -0.44113001227378845
v -0.4521850049495697 -0.8511680364608765 -0.4107469916343689
v -0.3397260010242462 -0.8156529664993286 -0.5242969989776611
v -0.18177300691604614 -0.8072030544281006 -0.61872398853302
v -0.03394100069999695 -0.8072030544281006 -0.61872398853302
v 0.11049100011587143 -0.8156529664993286 -0.5242969989776611
v 0.2298160046339035 -0.8511680364608765 -0.4107469916343689
v 0.17698900401592255 0.09114998579025269 0.1288740038871765
v 0.20405299961566925 0.08170998096466064 0.14009200036525726
v 0.22803400456905365 0.083840012550354 -0.04780200123786926
v 0.19909900426864624 0.09399998188018799 -0.04300900176167488
v 0.05764000117778778 0.09014999866485596 0.2993670105934143
v 0.07340399920940399 0.0809599757194519 0.32724499702453613
v -0.041103001683950424 0.0809599757194519 0.3640440106391907
v -0.04696299880743027 0.09014999866485596 0.33230599761009216
v -0.15830500423908234 0.0809599757194519 0.3640440106391907
v -0.15402700006961823 0.09014999866485596 0.33230599761009216
v -0.2684229910373688 0.09014999866485596 0.2993670105934143
v -0.2835310101509094 0.0809599757194519 0.32724499702453613
v -0.15830500423908234 0.0809599757194519 0.3640440106391907
v -0.15402700006961823 0.09014999866485596 0.33230599761009216
v -0.40873900055885315 0.08170998096466064 0.14009200036525726
v -0.38280099630355835 0.09114998579025269 0.1288740038871765
v -0.39301198720932007 0.09399998188018799 -0.04300900176167488
v -0.419948011636734 0.083840012550354 -0.04780200123786926
v -0.38280099630355835 0.09723001718521118 -0.1958010047674179
v -0.40873900055885315 0.08626997470855713 -0.21285399794578552
v -0.27555298805236816 0.10369002819061279 -0.3347789943218231
v -0.2893010079860687 0.09112000465393066 -0.35758501291275024
v -0.15615400671958923 0.10369002819061279 -0.36388900876045227
v -0.16002599895000458 0.09112000465393066 -0.3879620134830475
v -0.04440800100564957 0.10369002819061279 -0.36388900876045227
v -0.039034999907016754 0.09112000465393066 -0.3879620134830475
v 0.06476899981498718 0.10369002819061279 -0.3347789943218231
v 0.0791729986667633 0.09112000465393066 -0.35758501291275024
v 0.17698900401592255 0.09723001718521118 -0.1958010047674179
v 0.20405299961566925 0.08626997470855713 -0.21285399794578552
v -0.17868100106716156 -0.1488339900970459 -0.362419992685318
v -0.17054100334644318 -0.07492005825042725 -0.3577739894390106
v -0.4521850049495697 -0.8511680364608765 -0.4107469916343689
v -0.4240869879722595 -0.832785964012146 -0.2527959942817688
v 0.19447000324726105 -0.832785964012146 -0.2527959942817688
v 0.2298160046339035 -0.8511680364608765 -0.4107469916343689
v -0.4066540002822876 -0.14892005920410156 -0.11104799807071686
v -0.2861340045928955 -0.14885199069976807 -0.24744799733161926
v -0.41468700766563416 -0.14892005920410156 0.013299000449478626
v -0.4066540002822876 -0.14892005920410156 -0.11104799807071686
v -0.40133899450302124 -0.1489180326461792 0.17976999282836914
v -0.2861340045928955 -0.1488349437713623 0.3507770001888275
v -0.16559700667858124 -0.1488349437713623 0.3873409926891327
v -0.2861340045928955 -0.1488349437713623 0.3507770001888275
v -0.04190799966454506 -0.1488349437713623 0.3873409926891327
v 0.08148399740457535 -0.1488349437713623 0.3507770001888275
v 0.20192700624465942 -0.1489180326461792 0.17976999282836914
v 0.08148399740457535 -0.1488349437713623 0.3507770001888275
v 0.2238450050354004 -0.14892005920410156 0.013299000449478626
v 0.2072419971227646 -0.14892005920410156 -0.11104799807071686
v 0.2072419971227646 -0.14892005920410156 -0.11104799807071686
v 0.08148399740457535 -0.14885199069976807 -0.24744799733161926
v -0.04190799966454506 -0.1488339900970459 -0.2703869938850403
v -0.1688849925994873 -0.1488339900970459 -0.2703869938850403
v 0.06476899981498718 0.10369002819061279 -0.3347789943218231
v 0.17698900401592255 0.09723001718521118 -0.1958010047674179
v 0.17698900401592255 0.09723001718521118 -0.1958010047674179
v 0.19909900426864624 0.09399998188018799 -0.04300900176167488
v 0.17698900401592255 0.09114998579025269 0.1288740038871765
v 0.05764000117778778 0.09014999866485596 0.2993670105934143
v -0.04696299880743027 0.09014999866485596 0.33230599761009216
v 0.05764000117778778 0.09014999866485596 0.2993670105934143
v -0.15402700006961823 0.09014999866485596 0.33230599761009216
v -0.2684229910373688 0.09014999866485596 0.2993670105934143
v -0.38280099630355835 0.09114998579025269 0.1288740038871765
v -0.2684229910373688 0.09014999866485596 0.2993670105934143
v -0.39301198720932007 0.09399998188018799 -0.04300900176167488
v -0.38280099630355835 0.09723001718521118 -0.1958010047674179
v -0.27555298805236816 0.10369002819061279 -0.3347789943218231
v -0.38280099630355835 0.09723001718521118 -0.1958010047674179
v -0.15615400671958923 0.10369002819061279 -0.36388900876045227
v -0.04440800100564957 0.10369002819061279 -0.36388900876045227
v -0.448386013507843 -0.14892005920410156 -0.15955400466918945
v -0.31167900562286377 -0.14885199069976807 -0.33321401476860046
v -0.2861340045928955 -0.14885199069976807 -0.24744799733161926
v -0.4066540002822876 -0.14892005920410156 -0.11104799807071686
v -0.4574989974498749 -0.14892005920410156 -0.0012390000047162175
v -0.41468700766563416 -0.14892005920410156 0.013299000449478626
v -0.40133899450302124 -0.1489180326461792 0.17976999282836914
v -0.44235700368881226 -0.1489180326461792 0.21070800721645355
v -0.2861340045928955 -0.1488349437713623 0.3507770001888275
v -0.31167900562286377 -0.1488349437713623 0.4284290075302124
v -0.16559700667858124 -0.1488349437713623 0.3873409926891327
v -0.1749510020017624 -0.1488349437713623 0.47498100996017456
v -0.034648001194000244 -0.1488349437713623 0.47498100996017456
v -0.04190799966454506 -0.1488349437713623 0.3873409926891327
v 0.10531800240278244 -0.1488349437713623 0.4284290075302124
v 0.08148399740457535 -0.1488349437713623 0.3507770001888275
v 0.24193799495697021 -0.1489180326461792 0.21070800721645355
v 0.20192700624465942 -0.1489180326461792 0.17976999282836914
v 0.2667999863624573 -0.14892005920410156 -0.0012390000047162175
v 0.2238450050354004 -0.14892005920410156 0.013299000449478626
v 0.2072419971227646 -0.14892005920410156 -0.11104799807071686
v 0.24796700477600098 -0.14892005920410156 -0.15955400466918945
v 0.08148399740457535 -0.14885199069976807 -0.24744799733161926
v 0.10531800240278244 -0.14885199069976807 -0.33321401476860046
v -0.04190799966454506 -0.1488339900970459 -0.2703869938850403
v -0.034648001194000244 -0.1488339900970459 -0.362419992685318
v -0.17868100106716156 -0.1488339900970459 -0.362419992685318
v -0.1688849925994873 -0.1488339900970459 -0.2703869938850403
v 0.2450219988822937 0.031650006771087646 -0.03823399916291237
v 0.22022199630737305 0.0299299955368042 0.15985700488090515
v 0.22155199944972992 0.03359997272491455 -0.20609599351882935
v 0.0895019993185997 0.037519991397857666 -0.3609760105609894
v -0.036584001034498215 0.03753000497817993 -0.39188501238822937
v -0.16580699384212494 0.03753000497817993 -0.39188501238822937
v -0.2992680072784424 0.037519991397857666 -0.3609760105609894
v -0.4256249964237213 0.03359997272491455 -0.20609599351882935
v -0.4366630017757416 0.031650006771087646 -0.03823399916291237
v -0.42429500818252563 0.0299299955368042 0.15985700488090515
v -0.294622004032135 0.029340028762817383 0.35862499475479126
v -0.16359800100326538 0.029340028762817383 0.39853399991989136
v -0.16359800100326538 0.029340028762817383 0.39853399991989136
v -0.038249000906944275 0.029340028762817383 0.39853399991989136
v 0.08485499769449234 0.029340028762817383 0.35862499475479126

vn 0.4490160048007965 -0.7108309864997864 -0.5413900017738342
vn 0.6236330270767212 0.17375199496746063 -0.762162983417511
vn 0.9167730212211609 0.06834600120782852 -0.39351800084114075
vn 0.7207630276679993 -0.6498050093650818 -0.24135999381542206
vn 0.39985400438308716 0.9165440201759338 0.007941000163555145
vn 0.37707099318504333 0.8164870142936707 0.43722599744796753
vn 0.8606039881706238 0.2437870055437088 0.44713398814201355
vn 0.936939001083374 0.34897100925445557 -0.01910500042140484
vn 0.5202400088310242 -0.60139399766922 0.6063629984855652
vn 0.7596340179443359 -0.5763729810714722 0.3012480139732361
vn 0.9105719923973083 0.20157000422477722 0.3608730137348175
vn 0.6459940075874329 0.19649900496006012 0.7376180291175842
vn 0.0 -1.0 0.0
vn 0.775111973285675 -0.631335973739624 0.024807000532746315
vn 0.7596340179443359 -0.5763729810714722 0.3012480139732361
vn 0.5202400088310242 -0.60139399766922 0.6063629984855652
vn 0.775111973285675 -0.631335973739624 0.024807000532746315
vn 0.9833490252494812 0.17955699563026428 0.027991000562906265
vn -0.9107869863510132 0.200204998254776 0.3610900044441223
vn -0.9828090071678162 0.17896699905395508 0.04534899815917015
vn -0.7761099934577942 -0.6298530101776123 0.030643999576568604
vn -0.7566400170326233 -0.5809869766235352 0.29991599917411804
vn 0.8565940260887146 -0.21786999702453613 -0.467739999294281
vn 0.9341890215873718 0.006976000033318996 -0.3567110002040863
vn 0.49114298820495605 -0.04315900057554245 -0.8700090050697327
vn 0.41132599115371704 -0.27500900626182556 -0.8690119981765747
vn -0.9969289898872375 0.015329999849200249 0.07679799944162369
vn -0.9436269998550415 0.025561999529600143 0.33002200722694397
vn -0.9366970062255859 -0.10810299962759018 0.33303698897361755
vn -0.9919400215148926 -0.1242780014872551 0.0247150007635355
vn 0.6615800261497498 0.004015999846160412 0.7498639822006226
vn 0.9373739957809448 0.020385000854730606 0.3477270007133484
vn 0.9178199768066406 -0.16279099881649017 0.3620840013027191
vn 0.5800960063934326 -0.09985499829053879 0.8084040284156799
vn 0.9974920153617859 -0.006527999881654978 0.07047399878501892
vn 0.9825239777565002 -0.18479299545288086 0.02231599949300289
vn 0.37727999687194824 0.8611980080604553 -0.34058499336242676
vn 0.8011879920959473 0.3402960002422333 -0.4922359883785248
vn 0.4257960021495819 0.350383996963501 -0.8342229723930359
vn -0.9972149729728699 -0.0691479966044426 -0.027938000857830048
vn -0.9944249987602234 0.1049870029091835 0.009867999702692032
vn -0.9352030158042908 0.12266500294208527 0.3321869969367981
vn -0.9166820049285889 -0.12815000116825104 0.37851300835609436
vn 0.4353010058403015 0.18299500644207 0.8814910054206848
vn 0.901648998260498 -0.15612000226974487 0.4033069908618927
vn 0.9247840046882629 -0.01995299942791462 0.37996798753738403
vn 0.9988150000572205 -0.048583999276161194 -0.0030040000565350056
vn 0.9930959939956665 -0.10881199687719345 -0.04381300136446953
vn 0.9148550033569336 -0.050276998430490494 -0.40064099431037903
vn 0.9233580231666565 -0.058063000440597534 -0.37952399253845215
vn 0.5797250270843506 -0.0875450000166893 -0.8100950121879578
vn 0.5478280186653137 0.0004600000102072954 -0.8365910053253174
vn -0.999538004398346 -0.02996700070798397 0.005059999879449606
vn -0.9391549825668335 -0.01040599960833788 0.3433369994163513
vn 0.5421289801597595 0.048996999859809875 0.8388659954071045
vn 0.5483919978141785 0.07789900153875351 0.8325849771499634
vn 0.9189289808273315 -0.012927999719977379 0.3942109942436218
vn 0.9989410042762756 -0.04563000053167343 0.005834000185132027
vn 0.0 -1.0 0.0
vn 0.7608950138092041 -0.6416940093040466 0.09626899659633636
vn 0.7255979776382446 -0.679777979850769 0.10682100057601929
vn 0.0 -1.0 0.0
vn 0.7255979776382446 -0.679777979850769 0.10682100057601929
vn 0.7608950138092041 -0.6416940093040466 0.09626899659633636
vn 0.9804620146751404 0.07121100276708603 0.18336699903011322
vn 0.9786249995231628 0.1671140044927597 0.1198590025305748
vn 0.8648329973220825 0.49686598777770996 0.07203099876642227
vn 0.30375298857688904 0.9253150224685669 -0.22699299454689026
vn 0.6357460021972656 0.5084689855575562 -0.5807629823684692
vn 0.9476609826087952 0.29310300946235657 -0.12660400569438934
vn -0.9849410057067871 0.039907000958919525 0.16821999847888947
vn -0.7503659725189209 -0.6540520191192627 0.09573899954557419
vn -0.7091280221939087 -0.69889897108078 0.09314999729394913
vn -0.9843940138816833 0.12803299725055695 0.12073100358247757
vn -0.9433079957962036 0.10286399722099304 -0.3155770003795624
vn -0.556240975856781 0.09176599979400635 -0.8259389996528625
vn -0.5829939842224121 -0.07249999791383743 -0.8092349767684937
vn -0.9490349888801575 -0.043696001172065735 -0.3121280074119568
vn -0.5058330297470093 -0.04319100081920624 -0.8615490198135376
vn -0.9404280185699463 0.05204999819397926 -0.3359859883785248
vn -0.8923270106315613 -0.17286600172519684 -0.41697800159454346
vn -0.4655500054359436 -0.2571460008621216 -0.8468409776687622
vn -0.8792219758033752 0.4730739891529083 0.05629900097846985
vn -0.949222981929779 0.3012019991874695 -0.0908460021018982
vn -0.619147002696991 0.5174970030784607 -0.5906379818916321
vn -0.30168598890304565 0.9256960153579712 -0.228193998336792
vn -0.9200549721717834 0.06725999712944031 -0.3859739899635315
vn -0.6164129972457886 0.175477996468544 -0.7676219940185547
vn -0.4508669972419739 -0.7035139799118042 -0.5493509769439697
vn -0.7196239829063416 -0.6533430218696594 -0.23512700200080872
vn -0.7091280221939087 -0.69889897108078 0.09314999729394913
vn -0.7503659725189209 -0.6540520191192627 0.09573899954557419
vn 0.0 -1.0 0.0
vn 0.0 -1.0 0.0
vn -0.7566400170326233 -0.5809869766235352 0.29991599917411804
vn -0.7761099934577942 -0.6298530101776123 0.030643999576568604
vn 0.0 -1.0 0.0
vn -0.5187399983406067 -0.5951430201530457 0.6137700080871582
vn -0.5187399983406067 -0.5951430201530457 0.6137700080871582
vn -0.6391000151634216 0.19785599410533905 0.7432389855384827
vn -0.6616089940071106 0.00686699990183115 0.7498170137405396
vn -0.6115189790725708 -0.15108999609947205 0.776669979095459
vn -0.5493710041046143 0.1369509994983673 0.8242790102958679
vn -0.5667819976806641 0.07123599946498871 0.8207820057868958
vn -0.8900099992752075 0.16328899562358856 0.42569699883461
vn -0.4445759952068329 0.12264399975538254 0.8873050212860107
vn -0.40998199582099915 0.7939720153808594 0.44891199469566345
vn -0.4475170075893402 0.8942739963531494 0.0013989999424666166
vn -0.9672819972038269 0.25326699018478394 -0.014867999590933323
vn -0.8560600280761719 0.2601560056209564 -0.4466319978237152
vn -0.4111030101776123 0.8481600284576416 -0.3340950012207031
vn -0.42790400981903076 0.3227689862251282 -0.8442260026931763
vn 0.14172899723052979 -0.07420600205659866 -0.9871199727058411
vn 0.1285250037908554 0.03203300014138222 -0.9911890029907227
vn 0.11688400059938431 -0.03057599999010563 -0.9926750063896179
vn 0.07947000116109848 -0.27770599722862244 -0.9573739767074585
vn 0.07283700257539749 0.9473940134048462 -0.31167200207710266
vn 0.1952960044145584 0.5370740294456482 -0.8206160068511963
vn 0.21839700639247894 -0.6667969822883606 -0.7125200033187866
vn 0.27428099513053894 0.2120240032672882 -0.9379850029945374
vn 0.0 -1.0 0.0
vn 0.0 -1.0 0.0
vn 0.0 -1.0 0.0
vn 0.20813199877738953 -0.5974439978599548 0.774429976940155
vn 0.20813199877738953 -0.5974439978599548 0.774429976940155
vn 0.5202400088310242 -0.60139399766922 0.6063629984855652
vn 0.6459940075874329 0.19649900496006012 0.7376180291175842
vn 0.25879600644111633 0.18605400621891022 0.9478440284729004
vn 0.2186959981918335 0.058143001049757004 0.974058985710144
vn 0.6615800261497498 0.004015999846160412 0.7498639822006226
vn 0.5800960063934326 -0.09985499829053879 0.8084040284156799
vn 0.12499599903821945 -0.12052299827337265 0.9848099946975708
vn 0.5483919978141785 0.07789900153875351 0.8325849771499634
vn 0.5421289801597595 0.048996999859809875 0.8388659954071045
vn 0.11278600245714188 0.10283999890089035 0.9882829785346985
vn 0.127470001578331 0.13903099298477173 0.9820500016212463
vn 0.019067000597715378 0.8860589861869812 0.4631800055503845
vn 0.1375100016593933 0.2005070000886917 0.9699940085411072
vn -0.0 1.0 -0.0
vn 0.07306399941444397 0.8821629881858826 -0.46524301171302795
vn 0.1332930028438568 0.3684130012989044 -0.9200569987297058
vn 0.4533640146255493 -0.5723559856414795 -0.6832789778709412
vn 0.7502319812774658 -0.5437110066413879 -0.3762040138244629
vn 0.7858459949493408 -0.536512017250061 0.30757299065589905
vn 0.8419910073280334 -0.538798987865448 -0.027309000492095947
vn 0.4917590022087097 -0.5136899948120117 0.7030619978904724
vn 0.12671400606632233 -0.510129988193512 0.8507120013237
vn 0.4917590022087097 -0.5136899948120117 0.7030619978904724
vn -0.7564280033111572 -0.6021429896354675 0.25542399287223816
vn -0.46825700998306274 -0.5538719892501831 0.6884490251541138
vn -0.7986059784889221 -0.6014819741249084 -0.021159999072551727
vn -0.4129830002784729 -0.6195809841156006 -0.6675059795379639
vn -0.7352179884910583 -0.5974630117416382 -0.32014399766921997
vn 0.1084970012307167 -0.6078670024871826 -0.7865909934043884
vn -0.8860329985618591 -0.02567099966108799 -0.462911993265152
vn -0.4594910144805908 0.020989999175071716 -0.8879340291023254
vn 0.12661199271678925 0.00621700007468462 -0.9919329881668091
vn 0.48231300711631775 -0.003705000039190054 -0.8759909868240356
vn 0.8590580224990845 -0.0655599981546402 -0.5076619982719421
vn 0.5104320049285889 -0.17659899592399597 0.8415889739990234
vn 0.1238740012049675 -0.17501099407672882 0.9767429828643799
vn 0.5104320049285889 -0.17659899592399597 0.8415889739990234
vn -0.508018970489502 -0.1632789969444275 0.8457289934158325
vn -0.17678800225257874 0.5350720286369324 -0.8261020183563232
vn -0.06720999628305435 0.9471049904823303 -0.31380799412727356
vn -0.25643500685691833 0.21407799422740936 -0.9425560235977173
vn -0.20300999283790588 -0.6702569723129272 -0.7138220071792603
vn 0.0 -1.0 0.0
vn 0.0 -1.0 0.0
vn 0.0 -1.0 0.0
vn -0.19260099530220032 -0.6015679836273193 0.775255024433136
vn -0.6391000151634216 0.19785599410533905 0.7432389855384827
vn -0.5187399983406067 -0.5951430201530457 0.6137700080871582
vn -0.19260099530220032 -0.6015679836273193 0.775255024433136
vn -0.2408050000667572 0.18503600358963013 0.9527720212936401
vn -0.6616089940071106 0.00686699990183115 0.7498170137405396
vn -0.2032019942998886 0.0562870018184185 0.9775180220603943
vn -0.20760700106620789 -0.09514100104570389 0.9735749959945679
vn -0.6115189790725708 -0.15108999609947205 0.776669979095459
vn -0.46825700998306274 -0.5538719892501831 0.6884490251541138
vn -0.11371800303459167 -0.5220569968223572 0.8452960252761841
vn -0.12407500296831131 0.13573899865150452 0.9829450249671936
vn -0.5667819976806641 0.07123599946498871 0.8207820057868958
vn -0.5493710041046143 0.1369509994983673 0.8242790102958679
vn -0.11365199834108353 0.1201929971575737 0.9862239956855774
vn -0.508018970489502 -0.1632789969444275 0.8457289934158325
vn -0.11997199803590775 -0.17455799877643585 0.9773110151290894
vn -0.1410290002822876 0.18857300281524658 0.9718800187110901
vn -0.025181999430060387 0.881587028503418 0.47134900093078613
vn -0.0 1.0 -0.0
vn -0.06364399939775467 0.8844149708747864 -0.4623419940471649
vn -0.09755200147628784 0.36729100346565247 -0.9249759912490845
vn -0.10894100368022919 0.048847001045942307 -0.9928470253944397
vn -0.10007999837398529 0.010617000050842762 -0.9949229955673218
vn -0.11751800030469894 -0.0733409970998764 -0.9903590083122253
vn -0.08690100163221359 -0.6173120141029358 -0.7819039821624756
vn -0.12208499759435654 -0.03781000152230263 -0.991798996925354
vn -0.11135300248861313 -0.27682599425315857 -0.954446017742157
vn 0.4257960021495819 0.350383996963501 -0.8342229723930359
vn 0.8011879920959473 0.3402960002422333 -0.4922359883785248
vn 0.1332930028438568 0.3684130012989044 -0.9200569987297058
vn -0.09755200147628784 0.36729100346565247 -0.9249759912490845
vn -0.42790400981903076 0.3227689862251282 -0.8442260026931763
vn -0.8560600280761719 0.2601560056209564 -0.4466319978237152
vn -0.8900099992752075 0.16328899562358856 0.42569699883461
vn -0.9672819972038269 0.25326699018478394 -0.014867999590933323
vn -0.4445759952068329 0.12264399975538254 0.8873050212860107
vn -0.4445759952068329 0.12264399975538254 0.8873050212860107
vn -0.1410290002822876 0.18857300281524658 0.9718800187110901
vn 0.1375100016593933 0.2005070000886917 0.9699940085411072
vn 0.4353010058403015 0.18299500644207 0.8814910054206848
vn 0.8606039881706238 0.2437870055437088 0.44713398814201355
vn 0.4353010058403015 0.18299500644207 0.8814910054206848
vn 0.936939001083374 0.34897100925445557 -0.01910500042140484
vn 0.6695970296859741 0.17771700024604797 0.7211499810218811
vn 0.9134119749069214 0.19465099275112152 0.35747799277305603
vn 0.27195098996162415 0.18718299269676208 0.943930983543396
vn 0.6695970296859741 0.17771700024604797 0.7211499810218811
vn -0.25284600257873535 0.18547600507736206 0.9495620131492615
vn -0.6626060009002686 0.1758670061826706 0.7280279994010925
vn -0.9147160053253174 0.1954980045557022 0.3536590039730072
vn -0.6626060009002686 0.1758670061826706 0.7280279994010925
vn -0.987746000289917 0.14800900220870972 0.04950600117444992
vn 0.989986002445221 0.1404999941587448 0.013679999858140945
vn 0.9341890215873718 0.006976000033318996 -0.3567110002040863
vn 0.8565940260887146 -0.21786999702453613 -0.467739999294281
vn 0.9476609826087952 0.29310300946235657 -0.12660400569438934
vn -0.9404280185699463 0.05204999819397926 -0.3359859883785248
vn -0.949222981929779 0.3012019991874695 -0.0908460021018982
vn -0.8923270106315613 -0.17286600172519684 -0.41697800159454346
vn -0.9490349888801575 -0.043696001172065735 -0.3121280074119568
vn -0.7352179884910583 -0.5974630117416382 -0.32014399766921997
vn -0.9433079957962036 0.10286399722099304 -0.3155770003795624
vn -0.8560600280761719 0.2601560056209564 -0.4466319978237152
vn -0.8860329985618591 -0.02567099966108799 -0.462911993265152
vn 0.8011879920959473 0.3402960002422333 -0.4922359883785248
vn 0.8590580224990845 -0.0655599981546402 -0.5076619982719421
vn 0.9148550033569336 -0.050276998430490494 -0.40064099431037903
vn 0.9233580231666565 -0.058063000440597534 -0.37952399253845215
vn 0.7502319812774658 -0.5437110066413879 -0.3762040138244629
vn -0.9337189793586731 0.0662899985909462 -0.3518170118331909
vn -0.528527021408081 -0.05456399917602539 -0.8471609950065613
vn -0.4468579888343811 -0.5839149951934814 -0.677761971950531
vn -0.792261004447937 -0.549871027469635 -0.264506995677948
vn -0.9894260168075562 0.14497099816799164 0.004534000065177679
vn -0.8168889880180359 -0.5767019987106323 0.010328000411391258
vn -0.9284549951553345 0.21770299971103668 0.3009609878063202
vn -0.8102200031280518 -0.508305013179779 0.29183799028396606
vn -0.5792949795722961 0.37817099690437317 0.7220829725265503
vn -0.54271000623703 -0.42254599928855896 0.7258930206298828
vn -0.14424799382686615 0.4219900071620941 0.8950510025024414
vn -0.14659999310970306 -0.4372110068798065 0.8873299956321716
vn -0.14424799382686615 0.4219900071620941 0.8950510025024414
vn -0.14659999310970306 -0.4372110068798065 0.8873299956321716
vn 0.13989099860191345 -0.44021499156951904 0.8869280219078064
vn 0.14452500641345978 0.4179050028324127 0.8969209790229797
vn 0.5372490286827087 -0.4223569929599762 0.7300540208816528
vn 0.5728989839553833 0.38530001044273376 0.7234159708023071
vn 0.8039870262145996 -0.5038210153579712 0.3158639967441559
vn 0.9121119976043701 0.24114100635051727 0.3315170109272003
vn 0.8269550204277039 -0.5621650218963623 0.010761000216007233
vn 0.9882329702377319 0.15294800698757172 0.0014220000011846423
vn 0.7782139778137207 -0.5530520081520081 -0.29751700162887573
vn 0.9162999987602234 0.06903299689292908 -0.39449700713157654
vn 0.43727099895477295 -0.5836880207061768 -0.6841800212860107
vn 0.5180050134658813 -0.04887000098824501 -0.8539810180664062
vn 0.08223500102758408 -0.6586729884147644 -0.7479220032691956
vn 0.11074700206518173 -0.11174900084733963 -0.9875460267066956
vn 0.7207630276679993 -0.6498050093650818 -0.24135999381542206
vn 0.9167730212211609 0.06834600120782852 -0.39351800084114075
vn 0.4490160048007965 -0.7108309864997864 -0.5413900017738342
vn 0.7207630276679993 -0.6498050093650818 -0.24135999381542206
vn 0.21839700639247894 -0.6667969822883606 -0.7125200033187866
vn -0.20300999283790588 -0.6702569723129272 -0.7138220071792603
vn -0.4508669972419739 -0.7035139799118042 -0.5493509769439697
vn -0.7196239829063416 -0.6533430218696594 -0.23512700200080872
vn -0.9200549721717834 0.06725999712944031 -0.3859739899635315
vn -0.7196239829063416 -0.6533430218696594 -0.23512700200080872
vn -0.860450029373169 0.4910059869289398 -0.13615700602531433
vn -0.463019996881485 0.7669150233268738 -0.4443579912185669
vn -0.18811599910259247 0.7979099750518799 -0.5726699829101562
vn 0.20433799922466278 0.7938460111618042 -0.5727599859237671
vn 0.4602839946746826 0.7709069848060608 -0.4402740001678467
vn 0.8612769842147827 0.49135199189186096 -0.12952199578285217
vn 0.9223309755325317 0.1620520055294037 0.3507789969444275
vn 0.6667360067367554 0.7055299878120422 0.24018800258636475
vn 0.7343999743461609 0.6786969900131226 -0.005154000129550695
vn 0.9883049726486206 0.1519159972667694 0.013221999630331993
vn 0.6249449849128723 0.14422500133514404 0.7672309875488281
vn 0.40187498927116394 0.7595760226249695 0.5114099979400635
vn 0.09708999842405319 0.7919129729270935 0.602865993976593
vn 0.15132099390029907 0.12019799649715424 0.9811499714851379
vn -0.08781599998474121 0.7937679886817932 0.6018480062484741
vn -0.1332789957523346 0.11376599967479706 0.9845269918441772
vn -0.6072999835014343 0.11365599930286407 0.7863010168075562
vn -0.4049200117588043 0.7553070187568665 0.515317976474762
vn -0.08781599998474121 0.7937679886817932 0.6018480062484741
vn -0.1332789957523346 0.11376599967479706 0.9845269918441772
vn -0.6897010207176208 0.6919940114021301 0.2132059931755066
vn -0.944570004940033 0.11196999996900558 0.30862700939178467
vn -0.9949470162391663 0.10036099702119827 0.002678999910131097
vn -0.7344409823417664 0.6786640286445618 0.0034990001004189253
vn -0.953557014465332 0.10063999891281128 -0.28390300273895264
vn -0.7225940227508545 0.6197599768638611 -0.3061949908733368
vn -0.5227659940719604 0.030604999512434006 -0.8519260287284851
vn -0.4291189908981323 0.5558919906616211 -0.7119269967079163
vn -0.11552099883556366 0.050064001232385635 -0.9920430183410645
vn -0.09413699805736542 0.540507972240448 -0.8360559940338135
vn 0.12732499837875366 0.05081599950790405 -0.9905580282211304
vn 0.10644800215959549 0.537992000579834 -0.8362020254135132
vn 0.5319700241088867 0.08253499865531921 -0.8427309989929199
vn 0.4263319969177246 0.5604130029678345 -0.7100549936294556
vn 0.9318919777870178 0.13932299613952637 -0.3349120020866394
vn 0.7024270296096802 0.627360999584198 -0.3361760079860687
vn -0.08784399926662445 -0.6553919911384583 -0.7501639723777771
vn -0.10938899964094162 -0.10739299654960632 -0.9881809949874878
vn -0.860450029373169 0.4910059869289398 -0.13615700602531433
vn -0.8792219758033752 0.4730739891529083 0.05629900097846985
vn 0.8648329973220825 0.49686598777770996 0.07203099876642227
vn 0.8612769842147827 0.49135199189186096 -0.12952199578285217
vn -0.46838998794555664 -0.8566679954528809 -0.21617500483989716
vn -0.2348410040140152 -0.8770269751548767 -0.4191339910030365
vn -0.6204010248184204 -0.7842789888381958 0.0029070000164210796
vn -0.46838998794555664 -0.8566679954528809 -0.21617500483989716
vn -0.52183598279953 -0.8301180005073547 0.1964460015296936
vn -0.2983039915561676 -0.8673909902572632 0.3983060121536255
vn -0.09344000369310379 -0.8112149834632874 0.5772340297698975
vn -0.2983039915561676 -0.8673909902572632 0.3983060121536255
vn 0.09320499747991562 -0.8170390129089355 0.5689989924430847
vn 0.3012639880180359 -0.8581460118293762 0.4157229959964752
vn 0.5067600011825562 -0.8385329842567444 0.2001419961452484
vn 0.3012639880180359 -0.8581460118293762 0.4157229959964752
vn 0.5761780142784119 -0.8173189759254456 -0.003034000052139163
vn 0.4412109851837158 -0.8677939772605896 -0.22861699759960175
vn 0.4412109851837158 -0.8677939772605896 -0.22861699759960175
vn 0.22665199637413025 -0.8868489861488342 -0.40265101194381714
vn 0.05131400004029274 -0.8410159945487976 -0.5385710000991821
vn -0.050050999969244 -0.8384490013122559 -0.5426769852638245
vn 0.5319700241088867 0.08253499865531921 -0.8427309989929199
vn 0.9318919777870178 0.13932299613952637 -0.3349120020866394
vn 0.9318919777870178 0.13932299613952637 -0.3349120020866394
vn 0.9883049726486206 0.1519159972667694 0.013221999630331993
vn 0.9223309755325317 0.1620520055294037 0.3507789969444275
vn 0.6249449849128723 0.14422500133514404 0.7672309875488281
vn 0.15132099390029907 0.12019799649715424 0.9811499714851379
vn 0.6249449849128723 0.14422500133514404 0.7672309875488281
vn -0.1332789957523346 0.11376599967479706 0.9845269918441772
vn -0.6072999835014343 0.11365599930286407 0.7863010168075562
vn -0.944570004940033 0.11196999996900558 0.30862700939178467
vn -0.6072999835014343 0.11365599930286407 0.7863010168075562
vn -0.9949470162391663 0.10036099702119827 0.002678999910131097
vn -0.953557014465332 0.10063999891281128 -0.28390300273895264
vn -0.5227659940719604 0.030604999512434006 -0.8519260287284851
vn -0.953557014465332 0.10063999891281128 -0.28390300273895264
vn -0.11552099883556366 0.050064001232385635 -0.9920430183410645
vn 0.12732499837875366 0.05081599950790405 -0.9905580282211304
vn -0.792261004447937 -0.549871027469635 -0.264506995677948
vn -0.4468579888343811 -0.5839149951934814 -0.677761971950531
vn -0.2348410040140152 -0.8770269751548767 -0.4191339910030365
vn -0.46838998794555664 -0.8566679954528809 -0.21617500483989716
vn -0.8168889880180359 -0.5767019987106323 0.010328000411391258
vn -0.6204010248184204 -0.7842789888381958 0.0029070000164210796
vn -0.52183598279953 -0.8301180005073547 0.1964460015296936
vn -0.8102200031280518 -0.508305013179779 0.29183799028396606
vn -0.2983039915561676 -0.8673909902572632 0.3983060121536255
vn -0.54271000623703 -0.42254599928855896 0.7258930206298828
vn -0.09344000369310379 -0.8112149834632874 0.5772340297698975
vn -0.14659999310970306 -0.4372110068798065 0.8873299956321716
vn 0.13989099860191345 -0.44021499156951904 0.8869280219078064
vn 0.09320499747991562 -0.8170390129089355 0.5689989924430847
vn 0.5372490286827087 -0.4223569929599762 0.7300540208816528
vn 0.3012639880180359 -0.8581460118293762 0.4157229959964752
vn 0.8039870262145996 -0.5038210153579712 0.3158639967441559
vn 0.5067600011825562 -0.8385329842567444 0.2001419961452484
vn 0.8269550204277039 -0.5621650218963623 0.010761000216007233
vn 0.5761780142784119 -0.8173189759254456 -0.003034000052139163
vn 0.4412109851837158 -0.8677939772605896 -0.22861699759960175
vn 0.7782139778137207 -0.5530520081520081 -0.29751700162887573
vn 0.22665199637413025 -0.8868489861488342 -0.40265101194381714
vn 0.43727099895477295 -0.5836880207061768 -0.6841800212860107
vn 0.05131400004029274 -0.8410159945487976 -0.5385710000991821
vn 0.08223500102758408 -0.6586729884147644 -0.7479220032691956
vn -0.08784399926662445 -0.6553919911384583 -0.7501639723777771
vn -0.050050999969244 -0.8384490013122559 -0.5426769852638245
vn 0.9885029792785645 0.1511079967021942 -0.005417000036686659
vn 0.9095069766044617 0.23460699617862701 0.3431580066680908
vn 0.9084050059318542 0.06230099871754646 -0.41342398524284363
vn 0.5196279883384705 -0.03996700048446655 -0.853456974029541
vn 0.12190800160169601 -0.10441400110721588 -0.987034022808075
vn -0.11473199725151062 -0.09955199807882309 -0.9883959889411926
vn -0.5260729789733887 -0.04398199915885925 -0.8493009805679321
vn -0.9267969727516174 0.058720000088214874 -0.37094399333000183
vn -0.9892370104789734 0.1463180035352707 -0.0009379999828524888
vn -0.9268869757652283 0.21232299506664276 0.3095160126686096
vn -0.5676770210266113 0.3573249876499176 0.741661012172699
vn -0.13752199709415436 0.4119350016117096 0.9007760286331177
vn -0.13752199709415436 0.4119350016117096 0.9007760286331177
vn 0.1439650058746338 0.4085739850997925 0.9013000130653381
vn 0.5637009739875793 0.3660080134868622 0.7404590249061584

vt 0.7808169722557068 0.14739197492599487
vt 0.7729679942131042 0.14506202936172485
vt 0.7700700163841248 0.15437102317810059
vt 0.776203989982605 0.1569799780845642
vt 0.47957998514175415 0.2918109893798828
vt 0.4800499975681305 0.32693201303482056
vt 0.4614650011062622 0.32933300733566284
vt 0.4614650011062622 0.2877969741821289
vt 0.7858899831771851 0.15334898233413696
vt 0.798071026802063 0.15406197309494019
vt 0.7982990145683289 0.14632999897003174
vt 0.7866250276565552 0.14569801092147827
vt 0.7555450201034546 0.18770098686218262
vt 0.7505900263786316 0.19678199291229248
vt 0.7623260021209717 0.19565802812576294
vt 0.7718350291252136 0.1878420114517212
vt 0.8096889853477478 0.1534540057182312
vt 0.809240996837616 0.14575499296188354
vt 0.7986509799957275 0.20974701642990112
vt 0.7876750230789185 0.2097110152244568
vt 0.7875049710273743 0.21744602918624878
vt 0.7991909980773926 0.2174140214920044
vt 0.7178540229797363 0.15237897634506226
vt 0.7339550256729126 0.15349602699279785
vt 0.7291650176048279 0.14177000522613525
vt 0.7159299850463867 0.14203602075576782
vt 0.7883679866790771 0.19279402494430542
vt 0.7959039807319641 0.19239401817321777
vt 0.7942249774932861 0.17493999004364014
vt 0.78575199842453 0.1752769947052002
vt 0.788332998752594 0.1270890235900879
vt 0.8002150058746338 0.12879300117492676
vt 0.8011429905891418 0.11158901453018188
vt 0.7879210114479065 0.11007201671600342
vt 0.8076900243759155 0.1288430094718933
vt 0.8097370266914368 0.11142200231552124
vt 0.48051100969314575 0.26887500286102295
vt 0.4614650011062622 0.2602769732475281
vt 0.4614650011062622 0.23381799459457397
vt 0.7152060270309448 0.45918697118759155
vt 0.6938750147819519 0.45171797275543213
vt 0.6949059963226318 0.4233360290527344
vt 0.7171739935874939 0.4192829728126526
vt 0.4614650011062622 0.3588070273399353
vt 0.7162669897079468 0.7014409899711609
vt 0.6936910152435303 0.6990279853343964
vt 0.6927080154418945 0.6701479852199554
vt 0.7147060036659241 0.6617909967899323
vt 0.6913660168647766 0.6258600056171417
vt 0.6749399900436401 0.6258600056171417
vt 0.6812220215797424 0.5942389965057373
vt 0.697272002696991 0.5947070121765137
vt 0.6764870285987854 0.4476950168609619
vt 0.6768969893455505 0.4179829955101013
vt 0.6927139759063721 0.7495149970054626
vt 0.6747609972953796 0.7495149970054626
vt 0.6762080192565918 0.7052299976348877
vt 0.6760640144348145 0.6749149858951569
vt 0.724806010723114 0.19091898202896118
vt 0.7280880212783813 0.19985097646713257
vt 0.7391570210456848 0.1969519853591919
vt 0.7409589886665344 0.18794101476669312
vt 0.8210470080375671 0.15302497148513794
vt 0.8324379920959473 0.15316301584243774
vt 0.8322229981422424 0.14595800638198853
vt 0.8185150027275085 0.1443769931793213
vt 0.7537410259246826 0.1547589898109436
vt 0.7545409798622131 0.14431297779083252
vt 0.7373759746551514 0.1428220272064209
vt 0.7406839728355408 0.1553800106048584
vt 0.7647410035133362 0.21059399843215942
vt 0.7647449970245361 0.2177780270576477
vt 0.7761510014533997 0.2173590064048767
vt 0.7783600091934204 0.20869100093841553
vt 0.691897988319397 0.49966299533843994
vt 0.6964449882507324 0.5303899943828583
vt 0.6805409789085388 0.5294269919395447
vt 0.6735889911651611 0.49966299533843994
vt 0.7291479706764221 0.12318700551986694
vt 0.7329760193824768 0.11102801561355591
vt 0.7166479825973511 0.11300402879714966
vt 0.7153609991073608 0.12299597263336182
vt 0.7524700164794922 0.10846102237701416
vt 0.7401859760284424 0.10821497440338135
vt 0.7370079755783081 0.12163901329040527
vt 0.7540929913520813 0.1188809871673584
vt 0.7677320241928101 0.10825502872467041
vt 0.7720469832420349 0.11689502000808716
vt 0.779899001121521 0.1137620210647583
vt 0.7738659977912903 0.10514801740646362
vt 0.7385169863700867 0.15789198875427246
vt 0.7273579835891724 0.155348002910614
vt 0.7243639826774597 0.16393297910690308
vt 0.7406060099601746 0.16644299030303955
vt 0.7617149949073792 0.15836602449417114
vt 0.7499439716339111 0.1573699712753296
vt 0.7551929950714111 0.16620397567749023
vt 0.771468997001648 0.16552698612213135
vt 0.8112090229988098 0.2162889838218689
vt 0.8101480007171631 0.20862102508544922
vt 0.807466983795166 0.1901649832725525
vt 0.8070170283317566 0.16684001684188843
vt 0.6935570240020752 0.37532901763916016
vt 0.6755710244178772 0.37532901763916016
vt 0.5236089825630188 0.3271849751472473
vt 0.5236089825630188 0.3588070273399353
vt 0.5069550275802612 0.32602500915527344
vt 0.5076079964637756 0.2905070185661316
vt 0.5236089825630188 0.28469401597976685
vt 0.5236089825630188 0.25763797760009766
vt 0.5064820051193237 0.2669540047645569
vt 0.5236089825630188 0.23381799459457397
vt 0.6824169754981995 0.5733270049095154
vt 0.6992890238761902 0.5729700028896332
vt 0.7279899716377258 0.13518399000167847
vt 0.7155140042304993 0.13524097204208374
vt 0.7527260184288025 0.136214017868042
vt 0.736083984375 0.13572198152542114
vt 0.7845680117607117 0.1359800100326538
vt 0.7760469913482666 0.1355839967727661
vt 0.7234860062599182 0.1822810173034668
vt 0.7408450245857239 0.18104398250579834
vt 0.7571820020675659 0.18077600002288818
vt 0.7757409811019897 0.18061697483062744
vt 0.7784450054168701 0.08758902549743652
vt 0.7776970267295837 0.07947498559951782
vt 0.7700530290603638 0.08065998554229736
vt 0.770783007144928 0.08816397190093994
vt 0.7516019940376282 0.089385986328125
vt 0.7512639760971069 0.08257997035980225
vt 0.7340009808540344 0.08265799283981323
vt 0.7282869815826416 0.09006500244140625
vt 0.6755710244178772 0.8750329986214638
vt 0.6935570240020752 0.8750329986214638
vt 0.6936879754066467 0.8206450045108795
vt 0.6754410266876221 0.8201739937067032
vt 0.48829901218414307 0.3279799818992615
vt 0.4882819950580597 0.3588070273399353
vt 0.48831701278686523 0.2890160083770752
vt 0.48845499753952026 0.2631930112838745
vt 0.4876129925251007 0.23381799459457397
vt 0.669609010219574 0.5925759971141815
vt 0.6659839749336243 0.6258600056171417
vt 0.6679859757423401 0.7049089968204498
vt 0.6673039793968201 0.6760979890823364
vt 0.6665279865264893 0.7495149970054626
vt 0.6676440238952637 0.820579007267952
vt 0.6673640012741089 0.8750329986214638
vt 0.6684899926185608 0.41756701469421387
vt 0.6673089861869812 0.37532901763916016
vt 0.6674519777297974 0.4463850259780884
vt 0.668724000453949 0.533939003944397
vt 0.6645200252532959 0.49966299533843994
vt 0.6693170070648193 0.5734710097312927
vt 0.7141849994659424 0.49966299533843994
vt 0.7149909734725952 0.5343849956989288
vt 0.7157419919967651 0.5749030113220215
vt 0.7157480120658875 0.595988005399704
vt 0.7131050229072571 0.6258600056171417
vt 0.716509997844696 0.7495149970054626
vt 0.7165240049362183 0.8234349936246872
vt 0.716609001159668 0.8750329986214638
vt 0.716609001159668 0.37532901763916016
vt 0.7360140085220337 0.12946397066116333
vt 0.7524210214614868 0.12839102745056152
vt 0.7757400274276733 0.12673598527908325
vt 0.7838500142097473 0.12533897161483765
vt 0.7233409881591797 0.1734200119972229
vt 0.7407289743423462 0.17398500442504883
vt 0.7570670247077942 0.17371702194213867
vt 0.7756209969520569 0.17329001426696777
vt 0.7706180214881897 0.10279101133346558
vt 0.7783240079879761 0.1036139726638794
vt 0.7785859704017639 0.09487801790237427
vt 0.7708809971809387 0.09474998712539673
vt 0.7516880035400391 0.10195797681808472
vt 0.7517240047454834 0.09466499090194702
vt 0.7283729910850525 0.09683197736740112
vt 0.7284169793128967 0.10331600904464722
vt 0.6665279865264893 0.7495149970054626
vt 0.667385995388031 0.803288996219635
vt 0.6750580072402954 0.8006249964237213
vt 0.6747609972953796 0.7495149970054626
vt 0.6927139759063721 0.7495149970054626
vt 0.6933889985084534 0.8014550060033798
vt 0.716509997844696 0.7495149970054626
vt 0.7160469889640808 0.8031920045614243
vt 0.4969030022621155 0.3588070273399353
vt 0.497871994972229 0.32807302474975586
vt 0.4976310133934021 0.2885010242462158
vt 0.4969330132007599 0.26303601264953613
vt 0.4963800013065338 0.23381799459457397
vt 0.6991350054740906 0.552370011806488
vt 0.7154729962348938 0.5539819896221161
vt 0.6818370223045349 0.5518679916858673
vt 0.6687679886817932 0.5545080006122589
vt 0.727869987487793 0.1295030117034912
vt 0.7153850197792053 0.12874698638916016
vt 0.742268979549408 0.5931110084056854
vt 0.742268979549408 0.6258600056171417
vt 0.742268979549408 0.5723789930343628
vt 0.742268979549408 0.5521129965782166
vt 0.742268979549408 0.5301069915294647
vt 0.742268979549408 0.49966299533843994
vt 0.742268979549408 0.41262000799179077
vt 0.742268979549408 0.45806801319122314
vt 0.742268979549408 0.37532901763916016
vt 0.742268979549408 0.7495149970054626
vt 0.742268979549408 0.8015920072793961
vt 0.742268979549408 0.8212289959192276
vt 0.742268979549408 0.8750329986214638
vt 0.742268979549408 0.7106339931488037
vt 0.742268979549408 0.7495149970054626
vt 0.742268979549408 0.6640520095825195
vt 0.7878530025482178 0.13856297731399536
vt 0.7990229725837708 0.13914000988006592
vt 0.7635279893875122 0.08856099843978882
vt 0.7629140019416809 0.08150297403335571
vt 0.7636610269546509 0.09472900629043579
vt 0.7634519934654236 0.10227698087692261
vt 0.7976149916648865 0.20271199941635132
vt 0.8086450099945068 0.20158898830413818
vt 0.7872560024261475 0.20265400409698486
vt 0.8091890215873718 0.13868200778961182
vt 0.8141970038414001 0.12874799966812134
vt 0.8169190287590027 0.11141198873519897
vt 0.8165640234947205 0.13639801740646362
vt 0.7819210290908813 0.1929050087928772
vt 0.7799370288848877 0.20066899061203003
vt 0.7785930037498474 0.17549902200698853
vt 0.6735889911651611 0.49966299533843994
vt 0.6645200252532959 0.49966299533843994
vt 0.691897988319397 0.49966299533843994
vt 0.742268979549408 0.49966299533843994
vt 0.7141849994659424 0.49966299533843994
vt 0.742268979549408 0.6258600056171417
vt 0.7131050229072571 0.6258600056171417
vt 0.6913660168647766 0.6258600056171417
vt 0.6749399900436401 0.6258600056171417
vt 0.6659839749336243 0.6258600056171417
vt 0.7429460287094116 0.04329800605773926
vt 0.755952000617981 0.04073101282119751
vt 0.7549790143966675 0.036563992500305176
vt 0.7410460114479065 0.0393490195274353
vt 0.7335360050201416 0.04669201374053955
vt 0.7316009998321533 0.04283297061920166
vt 0.7222899794578552 0.05162698030471802
vt 0.7193390130996704 0.048271000385284424
vt 0.7098299860954285 0.06042200326919556
vt 0.7061079740524292 0.05727499723434448
vt 0.7050769925117493 0.0672140121459961
vt 0.7008489966392517 0.0644490122795105
vt 0.8385739922523499 0.06802600622177124
vt 0.8430140018463135 0.06568199396133423
vt 0.8388230204582214 0.0583609938621521
vt 0.8347989916801453 0.06127899885177612
vt 0.8326870203018188 0.05140399932861328
vt 0.8291829824447632 0.054709017276763916
vt 0.8186789751052856 0.043429017066955566
vt 0.8160430192947388 0.04706597328186035
vt 0.8060590028762817 0.039014995098114014
vt 0.8042629957199097 0.042976975440979004
vt 0.7959880232810974 0.03654700517654419
vt 0.794439971446991 0.0405849814414978
vt 0.7819899916648865 0.03514498472213745
vt 0.7811070084571838 0.039331018924713135
vt 0.7727900147438049 0.03517502546310425
vt 0.7726629972457886 0.03939300775527954
vt 0.841962993144989 0.15304499864578247
vt 0.8426539897918701 0.1465340256690979
vt 0.7090449929237366 0.19248300790786743
vt 0.717261016368866 0.2001979947090149
vt 0.7023940086364746 0.18309199810028076
vt 0.7022349834442139 0.17337000370025635
vt 0.7085599899291992 0.16287600994110107
vt 0.7165259718894958 0.155348002910614
vt 0.7531039714813232 0.21150702238082886
vt 0.7539499998092651 0.21799498796463013
vt 0.7631189823150635 0.10853499174118042
vt 0.7655019760131836 0.11783301830291748
vt 0.7686610221862793 0.12745201587677002
vt 0.7690550088882446 0.13563698530197144
vt 0.7664139866828918 0.14469999074935913
vt 0.764723002910614 0.15428197383880615
vt 0.8086730241775513 0.05729597806930542
vt 0.8095449805259705 0.05558502674102783
vt 0.7994340062141418 0.052416980266571045
vt 0.7987419962882996 0.05442899465560913
vt 0.8193830251693726 0.06334900856018066
vt 0.8211089968681335 0.06186598539352417
vt 0.8254939913749695 0.06728500127792358
vt 0.8237749934196472 0.06846898794174194
vt 0.8289830088615417 0.0732010006904602
vt 0.8270919919013977 0.07396799325942993
vt 0.7199440002441406 0.06799697875976562
vt 0.7182109951972961 0.06676101684570312
vt 0.7142720222473145 0.07308602333068848
vt 0.7161449790000916 0.07396799325942993
vt 0.7294459939002991 0.05943799018859863
vt 0.7305399775505066 0.06097298860549927
vt 0.7400569915771484 0.057395994663238525
vt 0.739404022693634 0.05560600757598877
vt 0.7485420107841492 0.05440199375152588
vt 0.7481070160865784 0.05233001708984375
vt 0.7588649988174438 0.05269700288772583
vt 0.758538007736206 0.05081397294998169
vt 0.7660160064697266 0.05238097906112671
vt 0.7659639716148376 0.050620973110198975
vt 0.7727339863777161 0.05207902193069458
vt 0.7727770209312439 0.05028700828552246
vt 0.779466986656189 0.05177801847457886
vt 0.7794060111045837 0.04986602067947388
vt 0.7903649806976318 0.052435994148254395
vt 0.7904459834098816 0.050315022468566895
vt 0.7637879848480225 0.03566497564315796
vt 0.7643560171127319 0.03981602191925049
vt 0.7557129859924316 0.20757800340652466
vt 0.7665200233459473 0.20609897375106812
vt 0.8302580118179321 0.1414870023727417
vt 0.8399389982223511 0.14267802238464355
vt 0.7003380060195923 0.10976999998092651
vt 0.6994100213050842 0.12154799699783325
vt 0.7827780246734619 0.15891700983047485
vt 0.7743790149688721 0.15955102443695068
vt 0.7939559817314148 0.1583009958267212
vt 0.8077830076217651 0.15840202569961548
vt 0.7197800278663635 0.09652197360992432
vt 0.7200499773025513 0.10504597425460815
vt 0.7194979786872864 0.08820599317550659
vt 0.7194330096244812 0.07947498559951782
vt 0.8010330200195312 0.09426897764205933
vt 0.7869489789009094 0.09540402889251709
vt 0.8122869729995728 0.09427797794342041
vt 0.8207250237464905 0.0948140025138855
vt 0.7008219957351685 0.1569799780845642
vt 0.6998460292816162 0.14521098136901855
vt 0.7003809809684753 0.13711899518966675
vt 0.7003610134124756 0.12908101081848145
vt 0.6657270193099976 0.5914629995822906
vt 0.6631399989128113 0.6258600056171417
vt 0.6631399989128113 0.6258600056171417
vt 0.6644759774208069 0.6783469915390015
vt 0.6653119921684265 0.7043859958648682
vt 0.6639800071716309 0.7495149970054626
vt 0.6646209955215454 0.8207940012216568
vt 0.6643030047416687 0.8750329986214638
vt 0.6643139719963074 0.8043749928474426
vt 0.6639800071716309 0.7495149970054626
vt 0.6654790043830872 0.4180060029029846
vt 0.6643999814987183 0.37532901763916016
vt 0.6643009781837463 0.44398802518844604
vt 0.6604959964752197 0.49966299533843994
vt 0.6643009781837463 0.5361970067024231
vt 0.6604959964752197 0.49966299533843994
vt 0.6648449897766113 0.556212991476059
vt 0.6654919981956482 0.5737929940223694
vt 0.6634960174560547 0.3590949773788452
vt 0.6510360240936279 0.3590949773788452
vt 0.6488720178604126 0.34346598386764526
vt 0.6591539978981018 0.31964099407196045
vt 0.6634960174560547 0.30427199602127075
vt 0.6598520278930664 0.3022260069847107
vt 0.658731997013092 0.27890902757644653
vt 0.6634960174560547 0.23411297798156738
vt 0.6489329934120178 0.2549409866333008
vt 0.6511229872703552 0.23411297798156738
vt 0.6386690139770508 0.24979698657989502
vt 0.6394749879837036 0.23411297798156738
vt 0.6275249719619751 0.23411297798156738
vt 0.6281329989433289 0.24977701902389526
vt 0.6155940294265747 0.23411297798156738
vt 0.6176180243492126 0.254876971244812
vt 0.6017910242080688 0.23411297798156738
vt 0.607338011264801 0.27880197763442993
vt 0.6017910242080688 0.30414098501205444
vt 0.6054520010948181 0.30211299657821655
vt 0.6068530082702637 0.31953001022338867
vt 0.6017910242080688 0.3590949773788452
vt 0.6175519824028015 0.34339797496795654
vt 0.615513026714325 0.3590949773788452
vt 0.628059983253479 0.34663301706314087
vt 0.6274330019950867 0.3590949773788452
vt 0.6397039890289307 0.3590949773788452
vt 0.6388790011405945 0.3466539978981018
vt 0.801410973072052 0.04914200305938721
vt 0.8118500113487244 0.05262702703475952
vt 0.7917550206184387 0.04683500528335571
vt 0.7799109816551208 0.04620397090911865
vt 0.7726370096206665 0.04659700393676758
vt 0.7654029726982117 0.046949028968811035
vt 0.7575889825820923 0.047393977642059326
vt 0.7459530234336853 0.049111008644104004
vt 0.7371050119400024 0.05245101451873779
vt 0.7267289757728577 0.05667799711227417
vt 0.7151989936828613 0.06448602676391602
vt 0.7108240127563477 0.07110100984573364
vt 0.8325880169868469 0.07147800922393799
vt 0.8288519978523254 0.06516200304031372
vt 0.8242610096931458 0.05931198596954346

usemtl Material

f 1/1/1 2/2/2 3/3/3
f 3/3/3 4/4/4 1/1/1
f 5/5/5 6/6/6 7/7/7
f 7/7/7 8/8/8 5/5/5
f 9/9/9 10/10/10 11/11/11
f 11/11/11 12/12/12 9/9/9
f 13/13/13 14/14/14 15/15/15
f 15/15/15 16/16/16 13/13/13
f 17/17/17 18/18/18 11/11/11
f 11/11/11 10/10/10 17/17/17
f 19/19/19 20/20/20 21/21/21
f 21/21/21 22/22/22 19/19/19
f 23/23/23 24/24/24 25/25/25
f 25/25/25 26/26/26 23/23/23
f 27/27/27 28/28/28 29/29/29
f 29/29/29 30/30/30 27/27/27
f 31/31/31 32/32/32 33/33/33
f 33/33/33 34/34/34 31/31/31
f 35/35/35 36/36/36 33/33/33
f 33/33/33 32/32/32 35/35/35
f 37/37/37 38/38/38 39/39/39
f 40/40/40 41/41/41 42/42/42
f 42/42/42 43/43/43 40/40/40
f 6/6/6 44/44/44 7/7/7
f 45/45/45 46/46/46 47/47/47
f 47/47/47 48/48/48 45/45/45
f 49/49/49 50/50/50 51/51/51
f 51/51/51 52/52/52 49/49/49
f 42/42/42 41/41/41 53/53/53
f 53/53/53 54/54/54 42/42/42
f 55/55/55 56/56/56 57/57/57
f 57/57/57 46/46/46 55/55/55
f 46/46/46 57/57/57 58/58/58
f 58/58/58 47/47/47 46/46/46
f 59/59/59 60/60/60 61/61/61
f 61/61/61 62/62/62 59/59/59
f 63/63/63 64/64/64 65/65/65
f 65/65/65 66/66/66 63/63/63
f 67/67/67 68/68/68 69/69/69
f 69/69/69 70/70/70 67/67/67
f 71/71/71 72/72/72 73/73/73
f 73/73/73 74/74/74 71/71/71
f 75/75/75 76/76/76 77/77/77
f 77/77/77 78/78/78 75/75/75
f 79/79/79 80/80/80 81/81/81
f 81/81/81 82/82/82 79/79/79
f 83/83/83 84/84/84 85/85/85
f 85/85/85 86/86/86 83/83/83
f 87/87/87 88/88/88 89/89/89
f 89/89/89 90/90/90 87/87/87
f 91/91/91 92/92/92 93/93/93
f 93/93/93 94/94/94 91/91/91
f 95/95/95 96/96/96 97/97/97
f 97/97/97 98/98/98 95/95/95
f 19/19/19 22/22/22 99/99/99
f 99/99/99 100/100/100 19/19/19
f 29/29/29 28/28/28 101/101/101
f 101/101/101 102/102/102 29/29/29
f 103/103/103 42/42/42 54/54/54
f 54/54/54 104/104/104 103/103/103
f 105/105/105 106/106/106 107/107/107
f 105/105/105 107/107/107 108/108/108
f 108/108/108 109/109/109 105/105/105
f 110/110/110 111/111/111 112/112/112
f 113/113/113 114/114/114 52/52/52
f 52/52/52 51/51/51 113/113/113
f 26/26/26 25/25/25 115/115/115
f 115/115/115 116/116/116 26/26/26
f 68/68/68 117/117/117 118/118/118
f 118/118/118 69/69/69 68/68/68
f 119/119/119 120/120/120 2/2/2
f 2/2/2 1/1/1 119/119/119
f 121/121/121 59/59/59 62/62/62
f 62/62/62 122/122/122 121/121/121
f 123/123/123 13/13/13 16/16/16
f 16/16/16 124/124/124 123/123/123
f 125/125/125 126/126/126 127/127/127
f 127/127/127 128/128/128 125/125/125
f 129/129/129 130/130/130 131/131/131
f 131/131/131 132/132/132 129/129/129
f 133/133/133 134/134/134 135/135/135
f 135/135/135 136/136/136 133/133/133
f 137/137/137 138/138/138 44/44/44
f 44/44/44 6/6/6 137/137/137
f 137/137/137 6/6/6 5/5/5
f 5/5/5 139/139/139 137/137/137
f 140/140/140 37/37/37 39/39/39
f 39/39/39 141/141/141 140/140/140
f 142/142/142 51/51/51 50/50/50
f 50/50/50 143/143/143 142/142/142
f 58/58/58 57/57/57 144/144/144
f 144/144/144 145/145/145 58/58/58
f 56/56/56 146/146/146 144/144/144
f 144/144/144 57/57/57 56/56/56
f 136/136/136 147/147/147 148/148/148
f 148/148/148 133/133/133 136/136/136
f 149/149/149 150/150/150 104/104/104
f 104/104/104 54/54/54 149/149/149
f 149/149/149 54/54/54 53/53/53
f 53/53/53 151/151/151 149/149/149
f 78/78/78 77/77/77 152/152/152
f 152/152/152 153/153/153 78/78/78
f 154/154/154 113/113/113 51/51/51
f 51/51/51 142/142/142 154/154/154
f 76/76/76 75/75/75 155/155/155
f 155/155/155 156/156/156 76/76/76
f 52/52/52 114/114/114 157/157/157
f 157/157/157 158/158/158 52/52/52
f 159/159/159 49/49/49 52/52/52
f 52/52/52 158/158/158 159/159/159
f 55/55/55 46/46/46 45/45/45
f 45/45/45 160/160/160 55/55/55
f 161/161/161 135/135/135 134/134/134
f 134/134/134 162/162/162 161/161/161
f 43/43/43 42/42/42 103/103/103
f 103/103/103 163/163/163 43/43/43
f 86/86/86 85/85/85 164/164/164
f 164/164/164 165/165/165 86/86/86
f 88/88/88 166/166/166 167/167/167
f 167/167/167 89/89/89 88/88/88
f 94/94/94 93/93/93 168/168/168
f 168/168/168 169/169/169 94/94/94
f 98/98/98 97/97/97 170/170/170
f 170/170/170 171/171/171 98/98/98
f 172/172/172 173/173/173 174/174/174
f 174/174/174 175/175/175 172/172/172
f 176/176/176 177/177/177 178/178/178
f 178/178/178 179/179/179 176/176/176
f 180/180/180 181/181/181 182/182/182
f 182/182/182 183/183/183 180/180/180
f 184/184/184 183/183/183 182/182/182
f 182/182/182 185/185/185 184/184/184
f 186/186/186 184/184/184 185/185/185
f 185/185/185 187/187/187 186/186/186
f 106/106/106 188/188/188 189/189/189
f 189/189/189 107/107/107 106/106/106
f 108/108/108 107/107/107 189/189/189
f 189/189/189 190/190/190 108/108/108
f 191/191/191 192/192/192 112/112/112
f 112/112/112 111/111/111 191/191/191
f 193/193/193 76/76/76 156/156/156
f 156/156/156 194/194/194 193/193/193
f 76/76/76 193/193/193 195/195/195
f 195/195/195 77/77/77 76/76/76
f 152/152/152 77/77/77 195/195/195
f 195/195/195 196/196/196 152/152/152
f 197/197/197 79/79/79 82/82/82
f 82/82/82 198/198/198 197/197/197
f 165/165/165 164/164/164 118/118/118
f 118/118/118 117/117/117 165/165/165
f 166/166/166 120/120/120 119/119/119
f 119/119/119 167/167/167 166/166/166
f 168/168/168 121/121/121 122/122/122
f 122/122/122 169/169/169 168/168/168
f 170/170/170 123/123/123 124/124/124
f 124/124/124 171/171/171 170/170/170
f 174/174/174 125/125/125 128/128/128
f 128/128/128 175/175/175 174/174/174
f 177/177/177 129/129/129 132/132/132
f 132/132/132 178/178/178 177/177/177
f 181/181/181 147/147/147 136/136/136
f 136/136/136 182/182/182 181/181/181
f 136/136/136 135/135/135 185/185/185
f 185/185/185 182/182/182 136/136/136
f 187/187/187 185/185/185 135/135/135
f 135/135/135 161/161/161 187/187/187
f 188/188/188 138/138/138 137/137/137
f 137/137/137 189/189/189 188/188/188
f 189/189/189 137/137/137 139/139/139
f 139/139/139 190/190/190 189/189/189
f 140/140/140 141/141/141 192/192/192
f 192/192/192 191/191/191 140/140/140
f 114/114/114 193/193/193 194/194/194
f 194/194/194 157/157/157 114/114/114
f 193/193/193 114/114/114 113/113/113
f 113/113/113 195/195/195 193/193/193
f 196/196/196 195/195/195 113/113/113
f 113/113/113 154/154/154 196/196/196
f 116/116/116 115/115/115 197/197/197
f 197/197/197 198/198/198 116/116/116
f 159/159/159 158/158/158 199/199/199
f 199/199/199 200/200/200 159/159/159
f 199/199/199 158/158/158 157/157/157
f 157/157/157 201/201/201 199/199/199
f 194/194/194 202/202/202 201/201/201
f 201/201/201 157/157/157 194/194/194
f 156/156/156 203/203/203 202/202/202
f 202/202/202 194/194/194 156/156/156
f 155/155/155 204/204/204 203/203/203
f 203/203/203 156/156/156 155/155/155
f 43/43/43 205/205/205 206/206/206
f 206/206/206 40/40/40 43/43/43
f 205/205/205 43/43/43 163/163/163
f 163/163/163 207/207/207 205/205/205
f 208/208/208 186/186/186 187/187/187
f 187/187/187 209/209/209 208/208/208
f 187/187/187 161/161/161 210/210/210
f 210/210/210 209/209/209 187/187/187
f 161/161/161 162/162/162 211/211/211
f 211/211/211 210/210/210 161/161/161
f 160/160/160 45/45/45 212/212/212
f 212/212/212 213/213/213 160/160/160
f 214/214/214 212/212/212 45/45/45
f 45/45/45 48/48/48 214/214/214
f 215/215/215 216/216/216 32/32/32
f 32/32/32 31/31/31 215/215/215
f 129/129/129 217/217/217 218/218/218
f 218/218/218 130/130/130 129/129/129
f 219/219/219 217/217/217 129/129/129
f 129/129/129 177/177/177 219/219/219
f 220/220/220 219/219/219 177/177/177
f 177/177/177 176/176/176 220/220/220
f 28/28/28 221/221/221 222/222/222
f 222/222/222 101/101/101 28/28/28
f 28/28/28 27/27/27 223/223/223
f 223/223/223 221/221/221 28/28/28
f 80/80/80 79/79/79 85/85/85
f 85/85/85 84/84/84 80/80/80
f 79/79/79 197/197/197 164/164/164
f 164/164/164 85/85/85 79/79/79
f 115/115/115 118/118/118 164/164/164
f 164/164/164 197/197/197 115/115/115
f 25/25/25 69/69/69 118/118/118
f 118/118/118 115/115/115 25/25/25
f 69/69/69 25/25/25 24/24/24
f 24/24/24 70/70/70 69/69/69
f 35/35/35 32/32/32 216/216/216
f 216/216/216 224/224/224 35/35/35
f 36/36/36 35/35/35 225/225/225
f 225/225/225 226/226/226 36/36/36
f 225/225/225 35/35/35 224/224/224
f 224/224/224 227/227/227 225/225/225
f 66/66/66 18/18/18 17/17/17
f 17/17/17 63/63/63 66/66/66
f 62/62/62 61/61/61 14/14/14
f 14/14/14 13/13/13 62/62/62
f 122/122/122 62/62/62 13/13/13
f 13/13/13 123/123/123 122/122/122
f 169/169/169 122/122/122 123/123/123
f 123/123/123 170/170/170 169/169/169
f 97/97/97 94/94/94 169/169/169
f 169/169/169 170/170/170 97/97/97
f 96/96/96 91/91/91 94/94/94
f 94/94/94 97/97/97 96/96/96
f 74/74/74 73/73/73 21/21/21
f 21/21/21 20/20/20 74/74/74
f 228/228/228 229/229/229 223/223/223
f 223/223/223 27/27/27 228/228/228
f 228/228/228 27/27/27 30/30/30
f 30/30/30 230/230/230 228/228/228
f 53/53/53 231/231/231 232/232/232
f 232/232/232 151/151/151 53/53/53
f 41/41/41 233/233/233 231/231/231
f 231/231/231 53/53/53 41/41/41
f 234/234/234 235/235/235 40/40/40
f 40/40/40 206/206/206 234/234/234
f 109/109/109 108/108/108 111/111/111
f 111/111/111 110/110/110 109/109/109
f 111/111/111 108/108/108 190/190/190
f 190/190/190 191/191/191 111/111/111
f 190/190/190 139/139/139 140/140/140
f 140/140/140 191/191/191 190/190/190
f 139/139/139 5/5/5 37/37/37
f 37/37/37 140/140/140 139/139/139
f 37/37/37 5/5/5 8/8/8
f 8/8/8 38/38/38 37/37/37
f 236/236/236 214/214/214 48/48/48
f 48/48/48 237/237/237 236/236/236
f 48/48/48 47/47/47 238/238/238
f 238/238/238 237/237/237 48/48/48
f 47/47/47 58/58/58 239/239/239
f 239/239/239 238/238/238 47/47/47
f 240/240/240 239/239/239 58/58/58
f 58/58/58 145/145/145 240/240/240
f 241/241/241 242/242/242 243/243/243
f 243/243/243 244/244/244 241/241/241
f 245/245/245 241/241/241 244/244/244
f 244/244/244 246/246/246 245/245/245
f 247/247/247 245/245/245 246/246/246
f 246/246/246 248/248/248 247/247/247
f 249/249/249 247/247/247 248/248/248
f 248/248/248 250/250/250 249/249/249
f 251/251/251 249/249/249 250/250/250
f 250/250/250 252/252/252 251/251/251
f 253/253/253 254/254/254 255/255/255
f 255/255/255 256/256/256 253/253/253
f 256/256/256 255/255/255 257/257/257
f 257/257/257 258/258/258 256/256/256
f 259/259/259 260/260/260 258/258/258
f 258/258/258 257/257/257 259/259/259
f 261/261/261 262/262/262 260/260/260
f 260/260/260 259/259/259 261/261/261
f 262/262/262 261/261/261 263/263/263
f 263/263/263 264/264/264 262/262/262
f 265/265/265 266/266/266 264/264/264
f 264/264/264 263/263/263 265/265/265
f 267/267/267 268/268/268 266/266/266
f 266/266/266 265/265/265 267/267/267
f 269/269/269 270/270/270 65/65/65
f 65/65/65 64/64/64 269/269/269
f 59/59/59 271/271/271 272/272/272
f 272/272/272 60/60/60 59/59/59
f 121/121/121 273/273/273 271/271/271
f 271/271/271 59/59/59 121/121/121
f 274/274/274 273/273/273 121/121/121
f 121/121/121 168/168/168 274/274/274
f 275/275/275 274/274/274 168/168/168
f 168/168/168 93/93/93 275/275/275
f 276/276/276 275/275/275 93/93/93
f 93/93/93 92/92/92 276/276/276
f 71/71/71 277/277/277 278/278/278
f 278/278/278 72/72/72 71/71/71
f 279/279/279 83/83/83 86/86/86
f 86/86/86 280/280/280 279/279/279
f 280/280/280 86/86/86 165/165/165
f 165/165/165 281/281/281 280/280/280
f 281/281/281 165/165/165 117/117/117
f 117/117/117 282/282/282 281/281/281
f 283/283/283 282/282/282 117/117/117
f 117/117/117 68/68/68 283/283/283
f 284/284/284 283/283/283 68/68/68
f 68/68/68 67/67/67 284/284/284
f 285/285/285 286/286/286 287/287/287
f 287/287/287 288/288/288 285/285/285
f 289/289/289 290/290/290 286/286/286
f 286/286/286 285/285/285 289/289/289
f 291/291/291 290/290/290 289/289/289
f 289/289/289 292/292/292 291/291/291
f 293/293/293 291/291/291 292/292/292
f 292/292/292 294/294/294 293/293/293
f 295/295/295 296/296/296 297/297/297
f 297/297/297 298/298/298 295/295/295
f 299/299/299 296/296/296 295/295/295
f 295/295/295 300/300/300 299/299/299
f 300/300/300 301/301/301 302/302/302
f 302/302/302 299/299/299 300/300/300
f 303/303/303 304/304/304 302/302/302
f 302/302/302 301/301/301 303/303/303
f 304/304/304 303/303/303 305/305/305
f 305/305/305 306/306/306 304/304/304
f 305/305/305 307/307/307 308/308/308
f 308/308/308 306/306/306 305/305/305
f 308/308/308 307/307/307 309/309/309
f 309/309/309 310/310/310 308/308/308
f 310/310/310 309/309/309 311/311/311
f 311/311/311 312/312/312 310/310/310
f 311/311/311 313/313/313 314/314/314
f 314/314/314 312/312/312 311/311/311
f 313/313/313 288/288/288 287/287/287
f 287/287/287 314/314/314 313/313/313
f 315/315/315 243/243/243 242/242/242
f 242/242/242 316/316/316 315/315/315
f 267/267/267 315/315/315 316/316/316
f 316/316/316 268/268/268 267/267/267
f 283/283/283 284/284/284 3/3/3
f 3/3/3 2/2/2 283/283/283
f 282/282/282 283/283/283 2/2/2
f 2/2/2 120/120/120 282/282/282
f 281/281/281 282/282/282 120/120/120
f 120/120/120 166/166/166 281/281/281
f 88/88/88 280/280/280 281/281/281
f 281/281/281 166/166/166 88/88/88
f 87/87/87 279/279/279 280/280/280
f 280/280/280 88/88/88 87/87/87
f 317/317/317 277/277/277 71/71/71
f 71/71/71 318/318/318 317/317/317
f 318/318/318 71/71/71 74/74/74
f 74/74/74 229/229/229 318/318/318
f 223/223/223 229/229/229 74/74/74
f 74/74/74 20/20/20 223/223/223
f 221/221/221 223/223/223 20/20/20
f 20/20/20 19/19/19 221/221/221
f 19/19/19 100/100/100 222/222/222
f 222/222/222 221/221/221 19/19/19
f 172/172/172 175/175/175 219/219/219
f 219/219/219 220/220/220 172/172/172
f 175/175/175 128/128/128 217/217/217
f 217/217/217 219/219/219 175/175/175
f 217/217/217 128/128/128 127/127/127
f 127/127/127 218/218/218 217/217/217
f 215/215/215 12/12/12 11/11/11
f 11/11/11 216/216/216 215/215/215
f 18/18/18 224/224/224 216/216/216
f 216/216/216 11/11/11 18/18/18
f 66/66/66 227/227/227 224/224/224
f 224/224/224 18/18/18 66/66/66
f 319/319/319 227/227/227 66/66/66
f 66/66/66 65/65/65 319/319/319
f 320/320/320 319/319/319 65/65/65
f 65/65/65 270/270/270 320/320/320
f 82/82/82 81/81/81 321/321/321
f 321/321/321 322/322/322 82/82/82
f 323/323/323 324/324/324 230/230/230
f 230/230/230 30/30/30 323/323/323
f 325/325/325 323/323/323 30/30/30
f 30/30/30 29/29/29 325/325/325
f 325/325/325 29/29/29 102/102/102
f 102/102/102 326/326/326 325/325/325
f 179/179/179 178/178/178 327/327/327
f 327/327/327 328/328/328 179/179/179
f 327/327/327 178/178/178 132/132/132
f 132/132/132 329/329/329 327/327/327
f 132/132/132 131/131/131 330/330/330
f 330/330/330 329/329/329 132/132/132
f 34/34/34 33/33/33 331/331/331
f 331/331/331 332/332/332 34/34/34
f 36/36/36 333/333/333 331/331/331
f 331/331/331 33/33/33 36/36/36
f 333/333/333 36/36/36 226/226/226
f 226/226/226 334/334/334 333/333/333
f 335/335/335 23/23/23 26/26/26
f 26/26/26 336/336/336 335/335/335
f 26/26/26 116/116/116 337/337/337
f 337/337/337 336/336/336 26/26/26
f 116/116/116 198/198/198 338/338/338
f 338/338/338 337/337/337 116/116/116
f 198/198/198 82/82/82 322/322/322
f 322/322/322 338/338/338 198/198/198
f 339/339/339 142/142/142 143/143/143
f 143/143/143 340/340/340 339/339/339
f 341/341/341 240/240/240 145/145/145
f 145/145/145 342/342/342 341/341/341
f 144/144/144 343/343/343 342/342/342
f 342/342/342 145/145/145 144/144/144
f 344/344/344 343/343/343 144/144/144
f 144/144/144 146/146/146 344/344/344
f 345/345/345 346/346/346 148/148/148
f 148/148/148 147/147/147 345/345/345
f 347/347/347 345/345/345 147/147/147
f 147/147/147 181/181/181 347/347/347
f 348/348/348 347/347/347 181/181/181
f 181/181/181 180/180/180 348/348/348
f 149/149/149 349/349/349 350/350/350
f 350/350/350 150/150/150 149/149/149
f 149/149/149 151/151/151 351/351/351
f 351/351/351 349/349/349 149/149/149
f 352/352/352 351/351/351 151/151/151
f 151/151/151 232/232/232 352/352/352
f 153/153/153 152/152/152 353/353/353
f 353/353/353 354/354/354 153/153/153
f 353/353/353 152/152/152 196/196/196
f 196/196/196 355/355/355 353/353/353
f 355/355/355 196/196/196 154/154/154
f 154/154/154 356/356/356 355/355/355
f 154/154/154 142/142/142 339/339/339
f 339/339/339 356/356/356 154/154/154
f 40/40/40 235/235/235 233/233/233
f 233/233/233 41/41/41 40/40/40
f 357/357/357 358/358/358 359/359/359
f 359/359/359 360/360/360 357/357/357
f 361/361/361 357/357/357 360/360/360
f 360/360/360 362/362/362 361/361/361
f 363/363/363 364/364/364 361/361/361
f 361/361/361 362/362/362 363/363/363
f 365/365/365 366/366/366 364/364/364
f 364/364/364 363/363/363 365/365/365
f 367/367/367 368/368/368 366/366/366
f 366/366/366 365/365/365 367/367/367
f 369/369/369 368/368/368 367/367/367
f 367/367/367 370/370/370 369/369/369
f 371/371/371 369/369/369 370/370/370
f 370/370/370 372/372/372 371/371/371
f 373/373/373 371/371/371 372/372/372
f 372/372/372 374/374/374 373/373/373
f 375/375/375 373/373/373 374/374/374
f 374/374/374 376/376/376 375/375/375
f 377/377/377 378/378/378 375/375/375
f 375/375/375 376/376/376 377/377/377
f 379/379/379 380/380/380 378/378/378
f 378/378/378 377/377/377 379/379/379
f 381/381/381 382/382/382 380/380/380
f 380/380/380 379/379/379 381/381/381
f 358/358/358 383/383/383 384/384/384
f 384/384/384 359/359/359 358/358/358
f 384/384/384 383/383/383 382/382/382
f 382/382/382 381/381/381 384/384/384
f 262/262/262 385/385/385 386/386/386
f 386/386/386 260/260/260 262/262/262
f 385/385/385 262/262/262 264/264/264
f 264/264/264 387/387/387 385/385/385
f 266/266/266 388/388/388 387/387/387
f 387/387/387 264/264/264 266/266/266
f 268/268/268 389/389/389 388/388/388
f 388/388/388 266/266/266 268/268/268
f 390/390/390 389/389/389 268/268/268
f 268/268/268 316/316/316 390/390/390
f 316/316/316 242/242/242 391/391/391
f 391/391/391 390/390/390 316/316/316
f 392/392/392 391/391/391 242/242/242
f 242/242/242 241/241/241 392/392/392
f 393/393/393 392/392/392 241/241/241
f 241/241/241 245/245/245 393/393/393
f 394/394/394 393/393/393 245/245/245
f 245/245/245 247/247/247 394/394/394
f 395/395/395 394/394/394 247/247/247
f 247/247/247 249/249/249 395/395/395
f 396/396/396 395/395/395 249/249/249
f 249/249/249 251/251/251 396/396/396
f 397/397/397 253/253/253 256/256/256
f 256/256/256 398/398/398 397/397/397
f 398/398/398 256/256/256 258/258/258
f 258/258/258 399/399/399 398/398/398
f 260/260/260 386/386/386 399/399/399
f 399/399/399 258/258/258 260/260/260
f 385/385/385 287/287/287 286/286/286
f 286/286/286 386/386/386 385/385/385
f 287/287/287 385/385/385 387/387/387
f 387/387/387 314/314/314 287/287/287
f 388/388/388 312/312/312 314/314/314
f 314/314/314 387/387/387 388/388/388
f 389/389/389 310/310/310 312/312/312
f 312/312/312 388/388/388 389/389/389
f 308/308/308 310/310/310 389/389/389
f 389/389/389 390/390/390 308/308/308
f 390/390/390 391/391/391 306/306/306
f 306/306/306 308/308/308 390/390/390
f 304/304/304 306/306/306 391/391/391
f 391/391/391 392/392/392 304/304/304
f 302/302/302 304/304/304 392/392/392
f 392/392/392 393/393/393 302/302/302
f 299/299/299 302/302/302 393/393/393
f 393/393/393 394/394/394 299/299/299
f 296/296/296 299/299/299 394/394/394
f 394/394/394 395/395/395 296/296/296
f 297/297/297 296/296/296 395/395/395
f 395/395/395 396/396/396 297/297/297
f 293/293/293 397/397/397 398/398/398
f 398/398/398 291/291/291 293/293/293
f 291/291/291 398/398/398 399/399/399
f 399/399/399 290/290/290 291/291/291
f 386/386/386 286/286/286 290/290/290
f 290/290/290 399/399/399 386/386/386