o Mesh

v 0.27975499629974365 -0.8231580257415771 -0.5246790051460266
v 0.29481300711631775 -1.0049340724945068 -0.5246790051460266
v 0.16916100680828094 -1.0049340724945068 -0.6585909724235535
v 0.1593720018863678 -0.7345420122146606 -0.6585909724235535
v 0.2698509991168976 1.0 -0.22697700560092926
v 0.12737900018692017 1.1971650123596191 -0.21642999351024628
v 0.12737900018692017 1.1971650123596191 0.18907000124454498
v 0.2698509991168976 1.0 0.2125750035047531
v 0.30828800797462463 -0.7684780359268188 0.2302439957857132
v 0.14942599833011627 -0.6811579465866089 0.4018220007419586
v 0.16915999352931976 -1.0049340724945068 0.4323740005493164
v 0.33187800645828247 -1.0049340724945068 0.2607960104942322
v 0.33187800645828247 -1.0049340724945068 0.2607960104942322
v 0.16915999352931976 -1.0049340724945068 0.4323740005493164
v 0.16915999352931976 -1.0049340724945068 -0.2635140120983124
v 0.33187800645828247 -1.0049340724945068 -0.2635140120983124
v 0.30828800797462463 -0.7684780359268188 0.2302439957857132
v 0.33187800645828247 -1.0049340724945068 0.2607960104942322
v 0.33187800645828247 -1.0049340724945068 -0.2635140120983124
v 0.30828800797462463 -0.7684780359268188 -0.25505301356315613
v -0.46042001247406006 -1.0049340724945068 -0.2635140120983124
v -0.46042001247406006 -1.0049340724945068 0.2607960104942322
v -0.43682798743247986 -0.7684780359268188 0.2302439957857132
v -0.43682798743247986 -0.7684780359268188 -0.25505301356315613
v 0.2532300055027008 -0.07366204261779785 -0.20477299392223358
v 0.30828800797462463 -0.7684780359268188 -0.25505301356315613
v 0.14942599833011627 -0.6018049716949463 -0.4115859866142273
v 0.11784599721431732 -0.07366204261779785 -0.36130601167678833
v -0.3817700147628784 -0.07366204261779785 0.10966700315475464
v -0.3817700147628784 -0.07366204261779785 -0.20477299392223358
v 0.2532300055027008 -0.07366204261779785 0.10966700315475464
v 0.11784599721431732 -0.07366204261779785 0.28124600648880005
v 0.2532300055027008 -0.07366204261779785 0.10966700315475464
v 0.2532300055027008 -0.07366204261779785 -0.20477299392223358
v 0.12737900018692017 1.1971650123596191 -0.21642999351024628
v 0.2698509991168976 1.0 -0.22697700560092926
v 0.1267790049314499 0.9950180053710938 -0.3768100142478943
v -0.38599398732185364 0.7065980434417725 -0.2179120033979416
v -0.36802801489830017 0.28137099742889404 -0.20477299392223358
v -0.36802801489830017 0.28137099742889404 0.10966700315475464
v -0.38599398732185364 0.7065980434417725 0.13341499865055084
v 0.12737900018692017 1.1971650123596191 0.18907000124454498
v 0.12681500613689423 1.0031379461288452 0.34175100922584534
v 0.2698509991168976 1.0 0.2125750035047531
v 0.23948900401592255 0.28137099742889404 0.10966700315475464
v 0.23948900401592255 0.28137099742889404 -0.20477299392223358
v 0.2574549913406372 0.7065980434417725 -0.2179120033979416
v 0.2574549913406372 0.7065980434417725 0.13341499865055084
v 0.26327401399612427 0.121878981590271 -0.21913400292396545
v 0.1476060003042221 0.121878981590271 -0.40318599343299866
v 0.10996399819850922 0.28137099742889404 -0.36130601167678833
v 0.23948900401592255 0.28137099742889404 -0.20477299392223358
v -0.3918130099773407 0.121878981590271 -0.21913400292396545
v -0.3918130099773407 0.121878981590271 0.10966700315475464
v 0.23948900401592255 0.28137099742889404 0.10966700315475464
v 0.10996399819850922 0.28137099742889404 0.28124600648880005
v 0.12360700219869614 0.121878981590271 0.2580240070819855
v 0.26327401399612427 0.121878981590271 0.10966700315475464
v 0.26327401399612427 0.121878981590271 0.10966700315475464
v 0.26327401399612427 0.121878981590271 -0.21913400292396545
v 0.29481300711631775 -1.0049340724945068 -0.5246790051460266
v 0.16916100680828094 -1.0049340724945068 -0.6585909724235535
v 0.27975499629974365 -0.8231580257415771 -0.5246790051460266
v 0.29481300711631775 -1.0049340724945068 -0.5246790051460266
v 0.14942599833011627 -0.6018049716949463 -0.4115859866142273
v 0.30828800797462463 -0.7684780359268188 -0.25505301356315613
v 0.27975499629974365 -0.8231580257415771 -0.5246790051460266
v 0.1593720018863678 -0.7345420122146606 -0.6585909724235535
v -0.4082939922809601 -0.8231580257415771 -0.5246790051460266
v -0.423352986574173 -1.0049340724945068 -0.5246790051460266
v -0.24389800429344177 0.28137099742889404 -0.36130601167678833
v -0.2819640040397644 0.121878981590271 -0.40318599343299866
v -0.3918130099773407 0.121878981590271 -0.21913400292396545
v -0.36802801489830017 0.28137099742889404 -0.20477299392223358
v -0.2845830023288727 -0.6018049716949463 -0.4115859866142273
v -0.43682798743247986 -0.7684780359268188 -0.25505301356315613
v -0.3817700147628784 -0.07366204261779785 -0.20477299392223358
v -0.2520250082015991 -0.07366204261779785 -0.36130601167678833
v -0.2845830023288727 -0.6018049716949463 -0.4115859866142273
v -0.29483699798583984 -0.7345420122146606 -0.6585909724235535
v -0.4082939922809601 -0.8231580257415771 -0.5246790051460266
v -0.43682798743247986 -0.7684780359268188 -0.25505301356315613
v -0.3049289882183075 -1.0049340724945068 -0.6585909724235535
v -0.423352986574173 -1.0049340724945068 -0.5246790051460266
v -0.4082939922809601 -0.8231580257415771 -0.5246790051460266
v -0.29483699798583984 -0.7345420122146606 -0.6585909724235535
v -0.3049289882183075 -1.0049340724945068 -0.2635140120983124
v -0.46042001247406006 -1.0049340724945068 -0.2635140120983124
v -0.423352986574173 -1.0049340724945068 -0.5246790051460266
v -0.3049289882183075 -1.0049340724945068 -0.6585909724235535
v -0.3049300014972687 -1.0049340724945068 0.4323740005493164
v -0.46042001247406006 -1.0049340724945068 0.2607960104942322
v -0.3049300014972687 -1.0049340724945068 0.4323740005493164
v -0.2845830023288727 -0.6811579465866089 0.4018220007419586
v -0.43682798743247986 -0.7684780359268188 0.2302439957857132
v -0.46042001247406006 -1.0049340724945068 0.2607960104942322
v -0.2520250082015991 -0.07366204261779785 0.28124600648880005
v -0.3817700147628784 -0.07366204261779785 0.10966700315475464
v -0.25796398520469666 0.121878981590271 0.2580240070819855
v -0.24389800429344177 0.28137099742889404 0.28124600648880005
v -0.36802801489830017 0.28137099742889404 0.10966700315475464
v -0.3918130099773407 0.121878981590271 0.10966700315475464
v -0.3983910083770752 1.0 0.2125750035047531
v -0.26121100783348083 0.9898750185966492 0.34063899517059326
v -0.26185300946235657 1.1971650123596191 0.18907000124454498
v -0.26185300946235657 1.1971650123596191 0.18907000124454498
v -0.26185300946235657 1.1971650123596191 -0.21642999351024628
v -0.3983910083770752 1.0 -0.22697700560092926
v -0.3983910083770752 1.0 0.2125750035047531
v -0.3983910083770752 1.0 -0.22697700560092926
v -0.26185300946235657 1.1971650123596191 -0.21642999351024628
v -0.26124799251556396 0.9979450106620789 -0.37687399983406067
v 0.10996399819850922 0.28137099742889404 -0.36130601167678833
v 0.1476060003042221 0.121878981590271 -0.40318599343299866
v 0.009797999635338783 0.121878981590271 -0.4413520097732544
v -0.003558000084012747 0.28137099742889404 -0.38498198986053467
v 0.010192999616265297 -0.5661439895629883 -0.4471530020236969
v -0.0008110000053420663 -0.07366204261779785 -0.38498198986053467
v 0.11784599721431732 -0.07366204261779785 -0.36130601167678833
v 0.14942599833011627 -0.6018049716949463 -0.4115859866142273
v 0.010192999616265297 -0.5661439895629883 -0.4471530020236969
v 0.14942599833011627 -0.6018049716949463 -0.4115859866142273
v 0.1593720018863678 -0.7345420122146606 -0.6585909724235535
v 0.013659000396728516 -0.698881983757019 -0.6971070170402527
v 0.1593720018863678 -0.7345420122146606 -0.6585909724235535
v 0.16916100680828094 -1.0049340724945068 -0.6585909724235535
v 0.017069999128580093 -1.0049340724945068 -0.6971070170402527
v 0.013659000396728516 -0.698881983757019 -0.6971070170402527
v 0.017069000750780106 -1.0049340724945068 -0.2635140120983124
v 0.017069999128580093 -1.0049340724945068 -0.6971070170402527
v 0.017069000750780106 -1.0049340724945068 0.4990060031414032
v 0.14942599833011627 -0.6811579465866089 0.4018220007419586
v 0.010192999616265297 -0.6811579465866089 0.4684540033340454
v 0.017069000750780106 -1.0049340724945068 0.4990060031414032
v 0.16915999352931976 -1.0049340724945068 0.4323740005493164
v 0.11784599721431732 -0.07366204261779785 0.28124600648880005
v -0.0008110000053420663 -0.07366204261779785 0.3166790008544922
v 0.10996399819850922 0.28137099742889404 0.28124600648880005
v -0.003558000084012747 0.28137099742889404 0.2963489890098572
v 0.001196000026538968 0.121878981590271 0.2580240070819855
v 0.12360700219869614 0.121878981590271 0.2580240070819855
v 0.0025110000278800726 1.1971650123596191 0.18907000124454498
v 0.002334000077098608 0.9988769888877869 0.3837049901485443
v 0.12737900018692017 1.1971650123596191 -0.21642999351024628
v 0.0025110000278800726 1.1971650123596191 -0.25557100772857666
v 0.0025110000278800726 1.1971650123596191 0.18907000124454498
v 0.12737900018692017 1.1971650123596191 0.18907000124454498
v 0.0022980000358074903 0.995959997177124 -0.4159710109233856
v 0.0025110000278800726 1.1971650123596191 -0.25557100772857666
v 0.009797999635338783 0.121878981590271 -0.4413520097732544
v 0.1476060003042221 0.121878981590271 -0.40318599343299866
v -0.38599398732185364 0.7065980434417725 -0.2179120033979416
v -0.25416499376296997 0.7053849697113037 -0.3705179989337921
v -9.300000237999484e-05 0.7042120099067688 -0.40331900119781494
v 0.11991400271654129 0.7036499977111816 -0.3704800009727478
v 0.11991400271654129 0.7036499977111816 -0.3704800009727478
v 0.2574549913406372 0.7065980434417725 -0.2179120033979416
v 0.2574549913406372 0.7065980434417725 0.13341499865055084
v 0.11993499845266342 0.7084630131721497 0.27990201115608215
v 0.11993499845266342 0.7084630131721497 0.27990201115608215
v -7.100000220816582e-05 0.7059360146522522 0.3108940124511719
v -0.25414299964904785 0.7006130218505859 0.27924400568008423
v -0.38599398732185364 0.7065980434417725 0.13341499865055084
v -0.132315993309021 -0.5661439895629883 -0.4471530020236969
v -0.1354829967021942 -0.698881983757019 -0.6971070170402527
v -0.29483699798583984 -0.7345420122146606 -0.6585909724235535
v -0.2845830023288727 -0.6018049716949463 -0.4115859866142273
v -0.13860000669956207 -1.0049340724945068 -0.6971070170402527
v -0.3049289882183075 -1.0049340724945068 -0.6585909724235535
v -0.29483699798583984 -0.7345420122146606 -0.6585909724235535
v -0.1354829967021942 -0.698881983757019 -0.6971070170402527
v -0.13860000669956207 -1.0049340724945068 -0.2635140120983124
v -0.13860000669956207 -1.0049340724945068 -0.6971070170402527
v -0.13860100507736206 -1.0049340724945068 0.4990060031414032
v -0.132315993309021 -0.6811579465866089 0.4684540033340454
v -0.2845830023288727 -0.6811579465866089 0.4018220007419586
v -0.3049300014972687 -1.0049340724945068 0.4323740005493164
v -0.13860100507736206 -1.0049340724945068 0.4990060031414032
v -0.12225999683141708 -0.07366204261779785 0.3166790008544922
v -0.2520250082015991 -0.07366204261779785 0.28124600648880005
v -0.12409400194883347 0.121878981590271 0.2580240070819855
v -0.25796398520469666 0.121878981590271 0.2580240070819855
v -0.1197500005364418 0.28137099742889404 0.2963489890098572
v -0.24389800429344177 0.28137099742889404 0.28124600648880005
v -0.12290199846029282 0.7033599615097046 0.31067800521850586
v -0.25414299964904785 0.7006130218505859 0.27924400568008423
v -0.1252959966659546 1.1971650123596191 0.18907000124454498
v -0.1250769942998886 0.9945269823074341 0.3833400011062622
v -0.1252959966659546 1.1971650123596191 0.18907000124454498
v -0.1252959966659546 1.1971650123596191 -0.25557100772857666
v -0.26185300946235657 1.1971650123596191 -0.21642999351024628
v -0.26185300946235657 1.1971650123596191 0.18907000124454498
v -0.1252959966659546 1.1971650123596191 -0.25557100772857666
v -0.12511299550533295 0.9969220161437988 -0.41599199175834656
v -0.12292400002479553 0.7047840356826782 -0.4033310115337372
v -0.1197500005364418 0.28137099742889404 -0.38498198986053467
v -0.24389800429344177 0.28137099742889404 -0.36130601167678833
v -0.25416499376296997 0.7053849697113037 -0.3705179989337921
v -0.13125400245189667 0.121878981590271 -0.4413520097732544
v -0.2819640040397644 0.121878981590271 -0.40318599343299866
v -0.13125400245189667 0.121878981590271 -0.4413520097732544
v -0.12225999683141708 -0.07366204261779785 -0.38498198986053467
v -0.2520250082015991 -0.07366204261779785 -0.36130601167678833
v -0.2819640040397644 0.121878981590271 -0.40318599343299866
v -0.132315993309021 -0.5661439895629883 -0.4471530020236969
v -0.2845830023288727 -0.6018049716949463 -0.4115859866142273
v 0.1267790049314499 0.9950180053710938 -0.3768100142478943
v 0.2698509991168976 1.0 -0.22697700560092926
v 0.0022980000358074903 0.995959997177124 -0.4159710109233856
v 0.1267790049314499 0.9950180053710938 -0.3768100142478943
v -0.12511299550533295 0.9969220161437988 -0.41599199175834656
v -0.26124799251556396 0.9979450106620789 -0.37687399983406067
v -0.26124799251556396 0.9979450106620789 -0.37687399983406067
v -0.3983910083770752 1.0 -0.22697700560092926
v -0.3983910083770752 1.0 -0.22697700560092926
v -0.3983910083770752 1.0 0.2125750035047531
v -0.26121100783348083 0.9898750185966492 0.34063899517059326
v -0.3983910083770752 1.0 0.2125750035047531
v -0.1250769942998886 0.9945269823074341 0.3833400011062622
v -0.26121100783348083 0.9898750185966492 0.34063899517059326
v 0.002334000077098608 0.9988769888877869 0.3837049901485443
v 0.12681500613689423 1.0031379461288452 0.34175100922584534
v 0.2698509991168976 1.0 0.2125750035047531
v 0.12681500613689423 1.0031379461288452 0.34175100922584534
v 0.2698509991168976 1.0 -0.22697700560092926
v 0.2698509991168976 1.0 0.2125750035047531

vn 0.7429329752922058 0.04021599888801575 -0.6681569814682007
vn 0.7279130220413208 0.06029900163412094 -0.6830130219459534
vn 0.7401319742202759 0.04402799904346466 -0.6710190176963806
vn 0.7522919774055481 0.02723499946296215 -0.658266007900238
vn 0.8105329871177673 0.5856930017471313 -0.0
vn 0.8105329871177673 0.5856930017471313 -0.0
vn 0.8105329871177673 0.5856930017471313 -0.0
vn 0.8105329871177673 0.5856930017471313 -0.0
vn 0.7505959868431091 0.14459200203418732 0.6447470188140869
vn 0.5987210273742676 0.1565999984741211 0.7854989767074585
vn 0.5801399946212769 0.12456300109624863 0.8049359917640686
vn 0.7163339853286743 0.15924499928951263 0.6793429851531982
vn -0.0 -1.0 0.0
vn -0.0 -1.0 0.0
vn -0.0 -1.0 0.0
vn -0.0 -1.0 0.0
vn 0.9959310293197632 0.09011899679899216 0.0
vn 0.9950600266456604 0.09927599877119064 0.0
vn 0.9930149912834167 0.09727700054645538 -0.06677400320768356
vn 0.9948740005493164 0.09371700137853622 -0.037992000579833984
vn -0.9930149912834167 0.09727899730205536 -0.06677500158548355
vn -0.9950600266456604 0.09927699714899063 -0.0
vn -0.9959310293197632 0.09011899679899216 -0.0
vn -0.9800689816474915 0.18585899472236633 -0.07015799731016159
vn 0.7563549876213074 0.010769999586045742 -0.6540729999542236
vn 0.7523940205574036 0.10665900260210037 -0.6500210165977478
vn 0.752331018447876 0.10669700056314468 -0.6500869989395142
vn 0.7816150188446045 -0.031651999801397324 -0.6229569911956787
vn -0.9998509883880615 0.017255999147892 -0.0
vn -0.9999039769172668 0.013856000266969204 -0.0
vn 0.7666860222816467 0.08158999681472778 0.6368169784545898
vn 0.5325019955635071 0.17115400731563568 0.8289440274238586
vn 0.9998509883880615 0.017253000289201736 0.0
vn 0.9999039769172668 0.013852999545633793 0.0
vn 0.3943769931793213 0.5704349875450134 -0.7204660177230835
vn 0.6247090101242065 0.4841870069503784 -0.6126189827919006
vn 0.39649999141693115 0.570792019367218 -0.7190160155296326
vn -0.9991090297698975 -0.04221399873495102 -0.0
vn -0.9985100030899048 0.054575998336076736 -0.0
vn -0.9986870288848877 0.05122099816799164 -0.0
vn -0.9991090297698975 -0.04221399873495102 -0.0
vn 0.20821599662303925 0.6044729948043823 0.7689329981803894
vn 0.3342610001564026 0.6206700205802917 0.7092519998550415
vn 0.5865300297737122 0.4998059868812561 0.6373199820518494
vn 0.9986870288848877 0.05121999979019165 0.0
vn 0.9985100030899048 0.05457499995827675 0.0
vn 0.9991090297698975 -0.04221300035715103 0.0
vn 0.9991090297698975 -0.042211998254060745 0.0
vn 0.803138017654419 0.03683599829673767 -0.5946540236473083
vn 0.8458200097084045 0.04512200132012367 -0.5315579771995544
vn 0.7884920239448547 0.11819200217723846 -0.6035810112953186
vn 0.7648820281028748 0.06710900366306305 -0.6406649947166443
vn -0.9988560080528259 0.04782000184059143 -0.0
vn -0.9988309741020203 0.0483429990708828 -0.0
vn 0.7781640291213989 -0.004333999939262867 0.6280459761619568
vn 0.4716939926147461 -0.08407499641180038 0.8777449727058411
vn 0.44884800910949707 0.0068709999322891235 0.8935819864273071
vn 0.7276939749717712 0.03377800062298775 0.6850699782371521
vn 0.9988309741020203 0.048340000212192535 0.0
vn 0.9988560080528259 0.04781699925661087 0.0
vn -0.0 -1.0 0.0
vn -0.0 -1.0 0.0
vn 0.9868469834327698 0.09141000360250473 -0.1333339959383011
vn 0.9867650270462036 0.08174099773168564 -0.14004699885845184
vn 0.7796990275382996 0.5798320174217224 -0.23635700345039368
vn 0.7961999773979187 0.5710009932518005 -0.20005600154399872
vn 0.7746180295944214 0.5822359919548035 -0.2469179928302765
vn 0.7541229724884033 0.5906760096549988 -0.28705599904060364
vn -0.9072620272636414 0.36983799934387207 -0.20023800432682037
vn -0.9867640137672424 0.08174800127744675 -0.14004699885845184
vn -0.7983199954032898 0.11101199686527252 -0.5919139981269836
vn -0.8577899932861328 0.04574999958276749 -0.5119609832763672
vn -0.8163710236549377 0.03756999969482422 -0.576304018497467
vn -0.7821230292320251 0.060088999569416046 -0.6202200055122375
vn -0.7668259739875793 0.10673300176858902 -0.6329190135002136
vn -0.7670980095863342 0.10656499862670898 -0.6326169967651367
vn -0.7700589895248413 0.011250999756157398 -0.6378729939460754
vn -0.7946739792823792 -0.03058600053191185 -0.6062660217285156
vn -0.7948930263519287 0.5616000294685364 -0.2296759933233261
vn -0.7722920179367065 0.5724009871482849 -0.27553999423980713
vn -0.9072620272636414 0.36983799934387207 -0.20023800432682037
vn -0.9800689816474915 0.18585899472236633 -0.07015799731016159
vn -0.7596589922904968 0.04591599851846695 -0.6486989855766296
vn -0.7476599812507629 0.06193900108337402 -0.6611869931221008
vn -0.7628679871559143 0.04152800142765045 -0.6452199816703796
vn -0.7719799876213074 0.02881300076842308 -0.6349939703941345
vn -0.0 -1.0 0.0
vn -0.0 -1.0 0.0
vn -0.0 -1.0 0.0
vn -0.0 -1.0 0.0
vn -0.0 -1.0 0.0
vn -0.0 -1.0 0.0
vn -0.5804299712181091 0.11983100324869156 0.8054450154304504
vn -0.5952309966087341 0.16069099307060242 0.7873240113258362
vn -0.7648760080337524 0.14372600615024567 0.627938985824585
vn -0.7316070199012756 0.1586579978466034 0.6630079746246338
vn -0.5313500165939331 0.17073200643062592 0.829770028591156
vn -0.7800840139389038 0.08015800267457962 0.6205180287361145
vn -0.4590829908847809 0.007703999988734722 0.8883600234985352
vn -0.4820770025253296 -0.07296500355005264 0.8730850219726562
vn -0.782194972038269 0.014360999688506126 0.622868001461029
vn -0.7420369982719421 0.03447800129652023 0.6694719791412354
vn -0.5795210003852844 0.47984999418258667 0.6587110161781311
vn -0.34165000915527344 0.6001309752464294 0.723268985748291
vn -0.1994750052690506 0.5779749751091003 0.7912989854812622
vn -0.8221160173416138 0.5693209767341614 -0.0
vn -0.8221160173416138 0.5693209767341614 -0.0
vn -0.8221160173416138 0.5693209767341614 -0.0
vn -0.8221160173416138 0.5693209767341614 -0.0
vn -0.6446459889411926 0.4783230125904083 -0.5963540077209473
vn -0.38909101486206055 0.5770940184593201 -0.7180330157279968
vn -0.38971900939941406 0.5761880278587341 -0.7184190154075623
vn 0.22105899453163147 0.1523119956254959 -0.9632930159568787
vn 0.2544960081577301 0.3013570010662079 -0.9189209938049316
vn 0.11853600293397903 0.3271470069885254 -0.9375100135803223
vn 0.0998699963092804 0.15215499699115753 -0.9832980036735535
vn 0.1419460028409958 0.11805599927902222 -0.9828090071678162
vn 0.0969180017709732 -0.07950399816036224 -0.9921119809150696
vn 0.21580000221729279 -0.07627599686384201 -0.9734539985656738
vn 0.2717829942703247 0.10729800164699554 -0.956358015537262
vn 0.168503999710083 0.8720099925994873 -0.4595699906349182
vn 0.32633599638938904 0.8380590081214905 -0.4372209906578064
vn 0.3230209946632385 0.8381019830703735 -0.43959400057792664
vn 0.1582300066947937 0.8729699850082397 -0.4613969922065735
vn 0.2530919909477234 0.004608000162988901 -0.9674310088157654
vn 0.24548399448394775 0.008887000381946564 -0.9693599939346313
vn 0.12634100019931793 0.0035230000503361225 -0.991981029510498
vn 0.11788800358772278 0.0013139999937266111 -0.9930260181427002
vn -0.0 -1.0 0.0
vn -0.0 -1.0 0.0
vn -0.0 -1.0 0.0
vn 0.5987210273742676 0.1565999984741211 0.7854989767074585
vn 0.2159540057182312 0.16717499494552612 0.9619860053062439
vn 0.2086009979248047 0.10202699899673462 0.9726639986038208
vn 0.5801399946212769 0.12456300109624863 0.8049359917640686
vn 0.5325019955635071 0.17115400731563568 0.8289440274238586
vn 0.14470399916172028 0.2543019950389862 0.9562379717826843
vn 0.4716939926147461 -0.08407499641180038 0.8777449727058411
vn 0.06442999839782715 -0.13311199843883514 0.9890040159225464
vn 0.03873499855399132 0.01338099967688322 0.9991599917411804
vn 0.44884800910949707 0.0068709999322891235 0.8935819864273071
vn 0.032276999205350876 0.6722000241279602 0.7396649718284607
vn 0.08625400066375732 0.6944580078125 0.7143440246582031
vn 0.0 1.0 -0.0
vn 0.0 1.0 -0.0
vn 0.0 1.0 -0.0
vn 0.0 1.0 -0.0
vn 0.11768300086259842 0.6189500093460083 -0.7765640020370483
vn 0.12836499512195587 0.6179670095443726 -0.7756540179252625
vn 0.1192609965801239 -0.26747599244117737 -0.9561560153961182
vn 0.2591150104999542 -0.2398180067539215 -0.9355999827384949
vn -0.7565289735794067 -0.03904600068926811 -0.6527940034866333
vn -0.7564700245857239 -0.032506998628377914 -0.653219997882843
vn 0.13034600019454956 -0.04052000120282173 -0.9906399846076965
vn 0.26851698756217957 -0.03345400094985962 -0.962693989276886
vn 0.7465260028839111 -0.03925999999046326 -0.6641979813575745
vn 0.7386450171470642 -0.04583200067281723 -0.6725350022315979
vn 0.7349990010261536 -0.11531700193881989 0.6681900024414062
vn 0.5082219839096069 -0.11172900348901749 0.8539479970932007
vn 0.5082219839096069 -0.11172900348901749 0.8539479970932007
vn 0.12794999778270721 -0.126693993806839 0.9836549758911133
vn -0.516526997089386 -0.12013199925422668 0.8478019833564758
vn -0.7377070188522339 -0.13518300652503967 0.6614480018615723
vn -0.15481999516487122 0.8738210201263428 -0.46094200015068054
vn -0.1459980010986328 0.8744909763336182 -0.46254798769950867
vn -0.29809099435806274 0.8450409770011902 -0.4438999891281128
vn -0.3010990023612976 0.8451439738273621 -0.4416689872741699
vn -0.116007000207901 0.0032099999953061342 -0.9932429790496826
vn -0.22558799386024475 0.008419999852776527 -0.9741860032081604
vn -0.23234499990940094 0.0042929998598992825 -0.9726240038871765
vn -0.10906600207090378 0.0011109999613836408 -0.9940339922904968
vn -0.0 -1.0 0.0
vn -0.0 -1.0 0.0
vn -0.0 -1.0 0.0
vn -0.197284996509552 0.170197993516922 0.9654589891433716
vn -0.5952309966087341 0.16069099307060242 0.7873240113258362
vn -0.5804299712181091 0.11983100324869156 0.8054450154304504
vn -0.18862800300121307 0.0958859995007515 0.9773560166358948
vn -0.13356800377368927 0.25473299622535706 0.9577419757843018
vn -0.5313500165939331 0.17073200643062592 0.829770028591156
vn -0.037999000400304794 0.01385399978607893 0.9991819858551025
vn -0.4590829908847809 0.007703999988734722 0.8883600234985352
vn -0.05909999832510948 -0.13321299850940704 0.9893239736557007
vn -0.4820770025253296 -0.07296500355005264 0.8730850219726562
vn -0.11511500179767609 -0.1271740049123764 0.9851779937744141
vn -0.516526997089386 -0.12013199925422668 0.8478019833564758
vn -0.042475998401641846 0.6608390212059021 0.7493240237236023
vn -0.12889200448989868 0.6862000226974487 0.7159019708633423
vn 0.0 1.0 -0.0
vn 0.0 1.0 -0.0
vn 0.0 1.0 -0.0
vn 0.0 1.0 -0.0
vn -0.11483199894428253 0.6216449737548828 -0.774836003780365
vn -0.09927999973297119 0.6213780045509338 -0.7771949768066406
vn -0.11964700371026993 -0.04041200131177902 -0.9919940233230591
vn -0.09182199835777283 0.15139999985694885 -0.9841979742050171
vn -0.2042749971151352 0.15098799765110016 -0.9671990275382996
vn -0.24746300280094147 -0.03315100073814392 -0.9683300256729126
vn -0.1076280027627945 0.3261620104312897 -0.9391670227050781
vn -0.2342739999294281 0.2988309860229492 -0.9251030087471008
vn -0.10835599899291992 -0.26693299412727356 -0.9576039910316467
vn -0.0890209972858429 -0.0791030004620552 -0.9928839802742004
vn -0.19950999319553375 -0.07528100162744522 -0.9769999980926514
vn -0.238428995013237 -0.23815299570560455 -0.9415069818496704
vn -0.1290919929742813 0.11791399866342545 -0.9845970273017883
vn -0.2498530000448227 0.10701999813318253 -0.9623510241508484
vn 0.7307990193367004 -0.04416299983859062 -0.6811619997024536
vn 0.7231240272521973 -0.05183200165629387 -0.6887710094451904
vn 0.14620499312877655 -0.03807299956679344 -0.9885209798812866
vn 0.2997870147228241 -0.02778100036084652 -0.9536020159721375
vn -0.13555799424648285 -0.03799600154161453 -0.9900410175323486
vn -0.2762579917907715 -0.027559999376535416 -0.9606879949569702
vn -0.7446470260620117 -0.04452500119805336 -0.6659709811210632
vn -0.737155020236969 -0.051961999386548996 -0.6737220287322998
vn -0.9991090297698975 -0.042215000838041306 -0.0
vn -0.9991080164909363 -0.042215000838041306 -0.0
vn -0.47766199707984924 -0.20481599867343903 0.8543360233306885
vn -0.6985329985618591 -0.18248000741004944 0.6919190287590027
vn -0.13498300313949585 -0.24052999913692474 0.9612100124359131
vn -0.47766199707984924 -0.20481599867343903 0.8543360233306885
vn 0.16390100121498108 -0.23921799659729004 0.9570329785346985
vn 0.4810749888420105 -0.20266500115394592 0.8529319763183594
vn 0.678462028503418 -0.18467600643634796 0.7110440135002136
vn 0.4810749888420105 -0.20266500115394592 0.8529319763183594
vn 0.9991090297698975 -0.042211998254060745 0.0
vn 0.9991090297698975 -0.042211998254060745 0.0

vt 0.6250749826431274 0.6249539852142334
vt 0.61735600233078 0.6249539852142334
vt 0.61735600233078 0.5948770046234131
vt 0.6250749826431274 0.5910769999027252
vt 0.46115800738334656 0.26440000534057617
vt 0.47374001145362854 0.26440000534057617
vt 0.47374001145362854 0.33660298585891724
vt 0.46115800738334656 0.33660298585891724
vt 0.6391779780387878 0.702454000711441
vt 0.6391779780387878 0.7495749890804291
vt 0.61735600233078 0.7495749890804291
vt 0.61735600233078 0.7051709890365601
vt 0.6013420224189758 0.2344130277633667
vt 0.6142709851264954 0.2344130277633667
vt 0.614084005355835 0.31338101625442505
vt 0.6013420224189758 0.3133230209350586
vt 0.6391779780387878 0.702454000711441
vt 0.61735600233078 0.7051709890365601
vt 0.61735600233078 0.637935996055603
vt 0.6391779780387878 0.6251699924468994
vt 0.61735600233078 0.4816009998321533
vt 0.61735600233078 0.4142739772796631
vt 0.6391779780387878 0.4166550040245056
vt 0.6391779780387878 0.49979501962661743
vt 0.6729509830474854 0.6251699924468994
vt 0.6391779780387878 0.6251699924468994
vt 0.6391779780387878 0.6013729870319366
vt 0.6729509830474854 0.5905300080776215
vt 0.6729509830474854 0.4275910258293152
vt 0.6729509830474854 0.49979501962661743
vt 0.6729509830474854 0.6906459927558899
vt 0.6729509830474854 0.7495749890804291
vt 0.6729509830474854 0.6906459927558899
vt 0.6729509830474854 0.6251699924468994
vt 0.47374001145362854 0.26440000534057617
vt 0.46115800738334656 0.26440000534057617
vt 0.47374001145362854 0.23506999015808105
vt 0.724066972732544 0.49979501962661743
vt 0.6956909894943237 0.49979501962661743
vt 0.6956909894943237 0.4261459708213806
vt 0.724066972732544 0.42303401231765747
vt 0.47374001145362854 0.33660298585891724
vt 0.47374001145362854 0.3590419888496399
vt 0.46115800738334656 0.33660298585891724
vt 0.6956909894943237 0.6915070116519928
vt 0.6956909894943237 0.6251699924468994
vt 0.724066972732544 0.6251699924468994
vt 0.724066972732544 0.694555014371872
vt 0.6852610111236572 0.6251699924468994
vt 0.6852610111236572 0.5930410027503967
vt 0.6956909894943237 0.5903840065002441
vt 0.6956909894943237 0.6251699924468994
vt 0.6852610111236572 0.49979501962661743
vt 0.6852610111236572 0.4277009963989258
vt 0.6956909894943237 0.6915070116519928
vt 0.6956909894943237 0.7495749890804291
vt 0.6852610111236572 0.7495749890804291
vt 0.6852610111236572 0.6902180016040802
vt 0.6852610111236572 0.6902180016040802
vt 0.6852610111236572 0.6251699924468994
vt 0.6013420224189758 0.3585929870605469
vt 0.6139770150184631 0.3585929870605469
vt 0.6250749826431274 0.6249539852142334
vt 0.61735600233078 0.6249539852142334
vt 0.6391779780387878 0.6013729870319366
vt 0.6391779780387878 0.6251699924468994
vt 0.6250749826431274 0.6249539852142334
vt 0.6250749826431274 0.5910769999027252
vt 0.6250749826431274 0.49979501962661743
vt 0.61735600233078 0.49979501962661743
vt 0.6956909894943237 0.530782014131546
vt 0.6852610111236572 0.5286200046539307
vt 0.6852610111236572 0.49979501962661743
vt 0.6956909894943237 0.49979501962661743
vt 0.6391779780387878 0.51808100938797
vt 0.6391779780387878 0.49979501962661743
vt 0.6729509830474854 0.49979501962661743
vt 0.6729509830474854 0.531044989824295
vt 0.6391779780387878 0.51808100938797
vt 0.6250749826431274 0.527305006980896
vt 0.6250749826431274 0.49979501962661743
vt 0.6391779780387878 0.49979501962661743
vt 0.61735600233078 0.5205230116844177
vt 0.61735600233078 0.49979501962661743
vt 0.6250749826431274 0.49979501962661743
vt 0.6250749826431274 0.527305006980896
vt 0.6512079834938049 0.31355100870132446
vt 0.6635249853134155 0.31360697746276855
vt 0.6635249853134155 0.3585929870605469
vt 0.6511009931564331 0.3585929870605469
vt 0.6513959765434265 0.2344130277633667
vt 0.6635249853134155 0.2344130277633667
vt 0.61735600233078 0.37575000524520874
vt 0.6391779780387878 0.37575000524520874
vt 0.6391779780387878 0.4166550040245056
vt 0.61735600233078 0.4142739772796631
vt 0.6729509830474854 0.37575000524520874
vt 0.6729509830474854 0.4275910258293152
vt 0.6852610111236572 0.37575000524520874
vt 0.6956909894943237 0.37575000524520874
vt 0.6956909894943237 0.4261459708213806
vt 0.6852610111236572 0.4277009963989258
vt 0.5228809714317322 0.33660298585891724
vt 0.5110459923744202 0.3590419888496399
vt 0.5110459923744202 0.33660298585891724
vt 0.5110459923744202 0.33660298585891724
vt 0.5110459923744202 0.26440000534057617
vt 0.5228809714317322 0.26440000534057617
vt 0.5228809714317322 0.33660298585891724
vt 0.5228809714317322 0.26440000534057617
vt 0.5110459923744202 0.26440000534057617
vt 0.5110459923744202 0.23506999015808105
vt 0.6956909894943237 0.5903840065002441
vt 0.6852610111236572 0.5930410027503967
vt 0.6852610111236572 0.5725330114364624
vt 0.6956909894943237 0.570603996515274
vt 0.6391779780387878 0.5731309950351715
vt 0.6729509830474854 0.5726329982280731
vt 0.6729509830474854 0.5905300080776215
vt 0.6391779780387878 0.6013729870319366
vt 0.6391779780387878 0.5731309950351715
vt 0.6391779780387878 0.6013729870319366
vt 0.6250749826431274 0.5910769999027252
vt 0.6250749826431274 0.5714440047740936
vt 0.6250749826431274 0.5910769999027252
vt 0.61735600233078 0.5948770046234131
vt 0.61735600233078 0.5710259974002838
vt 0.6250749826431274 0.5714440047740936
vt 0.6259940266609192 0.31343501806259155
vt 0.6258760094642639 0.3585929870605469
vt 0.6261990070343018 0.2344130277633667
vt 0.6391779780387878 0.7495749890804291
vt 0.6391779780387878 0.7955940067768097
vt 0.61735600233078 0.7958900034427643
vt 0.61735600233078 0.7495749890804291
vt 0.6729509830474854 0.7495749890804291
vt 0.6729509830474854 0.7939379960298538
vt 0.6956909894943237 0.7495749890804291
vt 0.6956909894943237 0.7919390052556992
vt 0.6852610111236572 0.7915609925985336
vt 0.6852610111236572 0.7495749890804291
vt 0.48444199562072754 0.33660298585891724
vt 0.48444199562072754 0.3590419888496399
vt 0.47374001145362854 0.26440000534057617
vt 0.48444199562072754 0.26440000534057617
vt 0.48444199562072754 0.33660298585891724
vt 0.47374001145362854 0.33660298585891724
vt 0.48444199562072754 0.23506999015808105
vt 0.48444199562072754 0.26440000534057617
vt 0.6852610111236572 0.5725330114364624
vt 0.6852610111236572 0.5930410027503967
vt 0.724066972732544 0.49979501962661743
vt 0.724066972732544 0.5322520136833191
vt 0.724066972732544 0.5721189975738525
vt 0.724066972732544 0.5911799967288971
vt 0.724066972732544 0.5911799967288971
vt 0.724066972732544 0.6251699924468994
vt 0.724066972732544 0.694555014371872
vt 0.724066972732544 0.7495749890804291
vt 0.724066972732544 0.7495749890804291
vt 0.724066972732544 0.7867899984121323
vt 0.724066972732544 0.37575000524520874
vt 0.724066972732544 0.42303401231765747
vt 0.6391779780387878 0.5454620122909546
vt 0.6250749826431274 0.5500969886779785
vt 0.6250749826431274 0.527305006980896
vt 0.6391779780387878 0.51808100938797
vt 0.61735600233078 0.547654002904892
vt 0.61735600233078 0.5205230116844177
vt 0.6250749826431274 0.527305006980896
vt 0.6250749826431274 0.5500969886779785
vt 0.6381829977035522 0.31349098682403564
vt 0.6380659937858582 0.3585929870605469
vt 0.638388991355896 0.2344130277633667
vt 0.6391779780387878 0.8405330032110214
vt 0.6391779780387878 0.8746439963579178
vt 0.61735600233078 0.8746439963579178
vt 0.61735600233078 0.8456999957561493
vt 0.6729509830474854 0.8324570059776306
vt 0.6729509830474854 0.8746439963579178
vt 0.6852610111236572 0.8315269947052002
vt 0.6852610111236572 0.8746439963579178
vt 0.6956909894943237 0.828574001789093
vt 0.6956909894943237 0.8746439963579178
vt 0.724066972732544 0.8259589970111847
vt 0.724066972732544 0.8746439963579178
vt 0.4982230067253113 0.33660298585891724
vt 0.4982230067253113 0.3590419888496399
vt 0.4982230067253113 0.33660298585891724
vt 0.4982230067253113 0.26440000534057617
vt 0.5110459923744202 0.26440000534057617
vt 0.5110459923744202 0.33660298585891724
vt 0.4982230067253113 0.26440000534057617
vt 0.4982230067253113 0.23506999015808105
vt 0.724066972732544 0.553041011095047
vt 0.6956909894943237 0.5509420037269592
vt 0.6956909894943237 0.530782014131546
vt 0.724066972732544 0.5322520136833191
vt 0.6852610111236572 0.5509760081768036
vt 0.6852610111236572 0.5286200046539307
vt 0.6852610111236572 0.5509760081768036
vt 0.6729509830474854 0.5540800094604492
vt 0.6729509830474854 0.531044989824295
vt 0.6852610111236572 0.5286200046539307
vt 0.6391779780387878 0.5454620122909546
vt 0.6391779780387878 0.51808100938797
vt 0.7418659925460815 0.5931980013847351
vt 0.7418659925460815 0.6251699924468994
vt 0.7418659925460815 0.5724590122699738
vt 0.7418659925460815 0.5931980013847351
vt 0.7418659925460815 0.5525400042533875
vt 0.7418659925460815 0.5301739871501923
vt 0.7418659925460815 0.5301739871501923
vt 0.7418659925460815 0.49979501962661743
vt 0.7418659925460815 0.49979501962661743
vt 0.7418659925460815 0.4135800004005432
vt 0.7418659925460815 0.37575000524520874
vt 0.7418659925460815 0.4135800004005432
vt 0.7418659925460815 0.8239730000495911
vt 0.7418659925460815 0.8746439963579178
vt 0.7418659925460815 0.7839069962501526
vt 0.7418659925460815 0.7495749890804291
vt 0.7418659925460815 0.7035410106182098
vt 0.7418659925460815 0.7495749890804291
vt 0.7418659925460815 0.6251699924468994
vt 0.7418659925460815 0.7035410106182098

f 1/1/1 2/2/2 3/3/3
f 3/3/3 4/4/4 1/1/1
f 5/5/5 6/6/6 7/7/7
f 7/7/7 8/8/8 5/5/5
f 9/9/9 10/10/10 11/11/11
f 11/11/11 12/12/12 9/9/9
f 13/13/13 14/14/14 15/15/15
f 15/15/15 16/16/16 13/13/13
f 17/17/17 18/18/18 19/19/19
f 19/19/19 20/20/20 17/17/17
f 21/21/21 22/22/22 23/23/23
f 23/23/23 24/24/24 21/21/21
f 25/25/25 26/26/26 27/27/27
f 27/27/27 28/28/28 25/25/25
f 24/24/24 23/23/23 29/29/29
f 29/29/29 30/30/30 24/24/24
f 31/31/31 32/32/32 10/10/10
f 10/10/10 9/9/9 31/31/31
f 33/33/33 17/17/17 20/20/20
f 20/20/20 34/34/34 33/33/33
f 35/35/35 36/36/36 37/37/37
f 38/38/38 39/39/39 40/40/40
f 40/40/40 41/41/41 38/38/38
f 42/42/42 43/43/43 44/44/44
f 45/45/45 46/46/46 47/47/47
f 47/47/47 48/48/48 45/45/45
f 49/49/49 50/50/50 51/51/51
f 51/51/51 52/52/52 49/49/49
f 39/39/39 53/53/53 54/54/54
f 54/54/54 40/40/40 39/39/39
f 55/55/55 56/56/56 57/57/57
f 57/57/57 58/58/58 55/55/55
f 59/59/59 60/60/60 46/46/46
f 46/46/46 45/45/45 59/59/59
f 61/61/61 16/16/16 15/15/15
f 15/15/15 62/62/62 61/61/61
f 63/63/63 20/20/20 19/19/19
f 19/19/19 64/64/64 63/63/63
f 65/65/65 66/66/66 67/67/67
f 67/67/67 68/68/68 65/65/65
f 21/21/21 24/24/24 69/69/69
f 69/69/69 70/70/70 21/21/21
f 71/71/71 72/72/72 73/73/73
f 73/73/73 74/74/74 71/71/71
f 75/75/75 76/76/76 77/77/77
f 77/77/77 78/78/78 75/75/75
f 79/79/79 80/80/80 81/81/81
f 81/81/81 82/82/82 79/79/79
f 83/83/83 84/84/84 85/85/85
f 85/85/85 86/86/86 83/83/83
f 87/87/87 88/88/88 89/89/89
f 89/89/89 90/90/90 87/87/87
f 87/87/87 91/91/91 92/92/92
f 92/92/92 88/88/88 87/87/87
f 93/93/93 94/94/94 95/95/95
f 95/95/95 96/96/96 93/93/93
f 94/94/94 97/97/97 98/98/98
f 98/98/98 95/95/95 94/94/94
f 99/99/99 100/100/100 101/101/101
f 101/101/101 102/102/102 99/99/99
f 103/103/103 104/104/104 105/105/105
f 106/106/106 107/107/107 108/108/108
f 108/108/108 109/109/109 106/106/106
f 110/110/110 111/111/111 112/112/112
f 113/113/113 114/114/114 115/115/115
f 115/115/115 116/116/116 113/113/113
f 117/117/117 118/118/118 119/119/119
f 119/119/119 120/120/120 117/117/117
f 121/121/121 122/122/122 123/123/123
f 123/123/123 124/124/124 121/121/121
f 125/125/125 126/126/126 127/127/127
f 127/127/127 128/128/128 125/125/125
f 62/62/62 15/15/15 129/129/129
f 129/129/129 130/130/130 62/62/62
f 14/14/14 131/131/131 129/129/129
f 129/129/129 15/15/15 14/14/14
f 132/132/132 133/133/133 134/134/134
f 134/134/134 135/135/135 132/132/132
f 132/132/132 136/136/136 137/137/137
f 137/137/137 133/133/133 132/132/132
f 138/138/138 139/139/139 140/140/140
f 140/140/140 141/141/141 138/138/138
f 43/43/43 42/42/42 142/142/142
f 142/142/142 143/143/143 43/43/43
f 144/144/144 145/145/145 146/146/146
f 146/146/146 147/147/147 144/144/144
f 37/37/37 148/148/148 149/149/149
f 149/149/149 35/35/35 37/37/37
f 49/49/49 25/25/25 28/28/28
f 28/28/28 50/50/50 49/49/49
f 59/59/59 33/33/33 34/34/34
f 34/34/34 60/60/60 59/59/59
f 31/31/31 58/58/58 57/57/57
f 57/57/57 32/32/32 31/31/31
f 136/136/136 141/141/141 140/140/140
f 140/140/140 137/137/137 136/136/136
f 99/99/99 102/102/102 98/98/98
f 98/98/98 97/97/97 99/99/99
f 30/30/30 29/29/29 54/54/54
f 54/54/54 53/53/53 30/30/30
f 78/78/78 77/77/77 73/73/73
f 73/73/73 72/72/72 78/78/78
f 119/119/119 118/118/118 150/150/150
f 150/150/150 151/151/151 119/119/119
f 71/71/71 74/74/74 152/152/152
f 152/152/152 153/153/153 71/71/71
f 154/154/154 155/155/155 113/113/113
f 113/113/113 116/116/116 154/154/154
f 156/156/156 157/157/157 52/52/52
f 52/52/52 51/51/51 156/156/156
f 158/158/158 159/159/159 56/56/56
f 56/56/56 55/55/55 158/158/158
f 138/138/138 160/160/160 161/161/161
f 161/161/161 139/139/139 138/138/138
f 162/162/162 163/163/163 101/101/101
f 101/101/101 100/100/100 162/162/162
f 164/164/164 165/165/165 166/166/166
f 166/166/166 167/167/167 164/164/164
f 168/168/168 169/169/169 170/170/170
f 170/170/170 171/171/171 168/168/168
f 172/172/172 87/87/87 90/90/90
f 90/90/90 173/173/173 172/172/172
f 172/172/172 174/174/174 91/91/91
f 91/91/91 87/87/87 172/172/172
f 175/175/175 176/176/176 177/177/177
f 177/177/177 178/178/178 175/175/175
f 179/179/179 180/180/180 176/176/176
f 176/176/176 175/175/175 179/179/179
f 181/181/181 182/182/182 180/180/180
f 180/180/180 179/179/179 181/181/181
f 181/181/181 183/183/183 184/184/184
f 184/184/184 182/182/182 181/181/181
f 185/185/185 186/186/186 184/184/184
f 184/184/184 183/183/183 185/185/185
f 187/187/187 105/105/105 104/104/104
f 104/104/104 188/188/188 187/187/187
f 189/189/189 190/190/190 191/191/191
f 191/191/191 192/192/192 189/189/189
f 112/112/112 111/111/111 193/193/193
f 193/193/193 194/194/194 112/112/112
f 195/195/195 196/196/196 197/197/197
f 197/197/197 198/198/198 195/195/195
f 199/199/199 200/200/200 197/197/197
f 197/197/197 196/196/196 199/199/199
f 201/201/201 202/202/202 203/203/203
f 203/203/203 204/204/204 201/201/201
f 205/205/205 206/206/206 203/203/203
f 203/203/203 202/202/202 205/205/205
f 121/121/121 124/124/124 165/165/165
f 165/165/165 164/164/164 121/121/121
f 127/127/127 168/168/168 171/171/171
f 171/171/171 128/128/128 127/127/127
f 129/129/129 172/172/172 173/173/173
f 173/173/173 130/130/130 129/129/129
f 131/131/131 174/174/174 172/172/172
f 172/172/172 129/129/129 131/131/131
f 133/133/133 175/175/175 178/178/178
f 178/178/178 134/134/134 133/133/133
f 137/137/137 179/179/179 175/175/175
f 175/175/175 133/133/133 137/137/137
f 140/140/140 181/181/181 179/179/179
f 179/179/179 137/137/137 140/140/140
f 139/139/139 183/183/183 181/181/181
f 181/181/181 140/140/140 139/139/139
f 139/139/139 161/161/161 185/185/185
f 185/185/185 183/183/183 139/139/139
f 143/143/143 142/142/142 187/187/187
f 187/187/187 188/188/188 143/143/143
f 145/145/145 190/190/190 189/189/189
f 189/189/189 146/146/146 145/145/145
f 194/194/194 193/193/193 149/149/149
f 149/149/149 148/148/148 194/194/194
f 154/154/154 116/116/116 196/196/196
f 196/196/196 195/195/195 154/154/154
f 116/116/116 115/115/115 199/199/199
f 199/199/199 196/196/196 116/116/116
f 118/118/118 202/202/202 201/201/201
f 201/201/201 150/150/150 118/118/118
f 205/205/205 202/202/202 118/118/118
f 118/118/118 117/117/117 205/205/205
f 207/207/207 208/208/208 157/157/157
f 157/157/157 156/156/156 207/207/207
f 209/209/209 210/210/210 155/155/155
f 155/155/155 154/154/154 209/209/209
f 154/154/154 195/195/195 211/211/211
f 211/211/211 209/209/209 154/154/154
f 211/211/211 195/195/195 198/198/198
f 198/198/198 212/212/212 211/211/211
f 213/213/213 153/153/153 152/152/152
f 152/152/152 214/214/214 213/213/213
f 215/215/215 38/38/38 41/41/41
f 41/41/41 216/216/216 215/215/215
f 162/162/162 217/217/217 218/218/218
f 218/218/218 163/163/163 162/162/162
f 185/185/185 219/219/219 220/220/220
f 220/220/220 186/186/186 185/185/185
f 161/161/161 221/221/221 219/219/219
f 219/219/219 185/185/185 161/161/161
f 222/222/222 221/221/221 161/161/161
f 161/161/161 160/160/160 222/222/222
f 223/223/223 224/224/224 159/159/159
f 159/159/159 158/158/158 223/223/223
f 48/48/48 47/47/47 225/225/225
f 225/225/225 226/226/226 48/48/48