mtllib 142459052.mtl
o Mesh

v 0.02571900002658367 -0.5906120538711548 0.06284400075674057
v 0.06287500262260437 -0.425089955329895 0.07716099917888641
v -0.019297000020742416 -0.4202460050582886 0.12018200010061264
v -0.03718100115656853 -0.5900959968566895 0.11862000077962875
v -0.2562449872493744 -0.5927170515060425 -0.07098700106143951
v -0.28072598576545715 -0.4419900178909302 -0.0725260004401207
v -0.21951599419116974 -0.43647003173828125 -0.1420609951019287
v -0.1929509937763214 -0.5935529470443726 -0.13760900497436523
v -0.17559899389743805 -0.43380701541900635 -0.15766699612140656
v 0.16723500192165375 0.9640120267868042 0.12599599361419678
v 0.057725999504327774 1.0081499814987183 0.08484300225973129
v -0.022763000801205635 1.0081510543823242 0.16359500586986542
v 0.014673000201582909 0.9640120267868042 0.23505899310112
v -0.208514004945755 0.9640120267868042 0.25510600209236145
v -0.18744699656963348 1.0081510543823242 0.1780720055103302
v -0.2426619976758957 1.0081510543823242 0.16359500586986542
v -0.284978985786438 0.9640120267868042 0.23505899310112
v -0.33717501163482666 1.0081510543823242 0.08484300225973129
v -0.41047000885009766 0.9640120267868042 0.12599599361419678
v -0.3666349947452545 1.0081510543823242 -0.04612300172448158
v -0.4512700140476227 0.9640120267868042 -0.04637200012803078
v -0.33717501163482666 1.0081510543823242 -0.15369899570941925
v -0.41047000885009766 0.9640120267868042 -0.19535499811172485
v -0.2426619976758957 1.0081510543823242 -0.23245300352573395
v -0.284978985786438 0.9640120267868042 -0.3588460087776184
v -0.21750099956989288 0.9640120267868042 -0.3878380060195923
v -0.1939380019903183 1.0081510543823242 -0.2996560037136078
v -0.05879199877381325 0.9640120267868042 -0.39250901341438293
v -0.1327120065689087 0.9640120267868042 -0.4237790107727051
v -0.1327120065689087 1.0081510543823242 -0.3157069981098175
v -0.0793360024690628 1.0081510543823242 -0.3017140030860901
v 0.014673000201582909 0.9640120267868042 -0.3588460087776184
v -0.022763000801205635 1.0081499814987183 -0.23245300352573395
v 0.057725999504327774 1.0081499814987183 -0.15369899570941925
v 0.16723500192165375 0.9640120267868042 -0.19535499811172485
v 0.13387399911880493 0.9960020184516907 -0.09246700257062912
v 0.1904579997062683 0.9640120267868042 -0.110555000603199
v 0.2080339938402176 0.9640120267868042 -0.04637200012803078
v 0.1465660035610199 0.9960020184516907 -0.04612300172448158
v 0.1342030018568039 0.9960020184516907 0.008841999806463718
v 0.19091199338436127 0.9640120267868042 0.025967000052332878
v 0.10031899809837341 0.16249501705169678 -0.20131699740886688
v 0.11916700005531311 0.31944799423217773 -0.19613699615001678
v 0.16345000267028809 0.3101710081100464 -0.08847899734973907
v 0.14557099342346191 0.16515898704528809 -0.08477699756622314
v 0.01494900044053793 0.1542239785194397 -0.28665199875831604
v 0.01673400029540062 0.3297269940376282 -0.27899301052093506
v -0.05676800012588501 0.15154200792312622 -0.3147769868373871
v -0.1244330033659935 0.14902198314666748 -0.34079501032829285
v -0.12602999806404114 0.33091700077056885 -0.33263400197029114
v -0.0567220002412796 0.3303409814834595 -0.30685698986053467
v -0.20404499769210815 0.15191197395324707 -0.30957698822021484
v -0.2674030065536499 0.1542239785194397 -0.28431999683380127
v -0.2687619924545288 0.3297269940376282 -0.27899301052093506
v -0.20550799369812012 0.33025598526000977 -0.30299198627471924
v -0.37366101145744324 0.1576640009880066 -0.16169500350952148
v -0.37229499220848083 0.31678497791290283 -0.1569799929857254
v -0.4111570119857788 0.16735702753067017 -0.026391999796032906
v -0.4084169864654541 0.30516600608825684 -0.036632001399993896
v -0.3760089874267578 0.18614697456359863 0.10772199928760529
v -0.3694300055503845 0.31647998094558716 0.10648400336503983
v -0.4084169864654541 0.30516600608825684 -0.036632001399993896
v -0.4111570119857788 0.16735702753067017 -0.026391999796032906
v -0.2619900107383728 0.1900399923324585 0.17596900463104248
v -0.2660619914531708 0.3391849994659424 0.1801539957523346
v -0.19293400645256042 0.1958019733428955 0.19310100376605988
v -0.19564400613307953 0.3376920223236084 0.1966949999332428
v 0.12629100680351257 0.18812799453735352 0.10762500017881393
v 0.14017100632190704 0.31647998094558716 0.10648400336503983
v 0.01437699981033802 0.3391849994659424 0.1801539957523346
v 0.013034000061452389 0.1900399923324585 0.17596900463104248
v 0.16173100471496582 0.16933798789978027 -0.026487000286579132
v 0.17906899750232697 0.30516600608825684 -0.036632001399993896
v 0.16274400055408478 0.3005080223083496 0.023430999368429184
v 0.14685699343681335 0.17721998691558838 0.021908000111579895
v 0.05957699939608574 0.9186840057373047 -0.3720720112323761
v 0.014673000201582909 0.9640120267868042 -0.3588460087776184
v 0.16723500192165375 0.9640120267868042 -0.19535499811172485
v 0.20489199459552765 0.9130629897117615 -0.19964200258255005
v -0.034164998680353165 0.9197440147399902 -0.407584011554718
v -0.13306599855422974 0.9207429885864258 -0.440542995929718
v -0.1327120065689087 0.9640120267868042 -0.4237790107727051
v -0.05879199877381325 0.9640120267868042 -0.39250901341438293
v -0.22941899299621582 0.9195939898490906 -0.40265798568725586
v -0.3061000108718872 0.9186840057373047 -0.3720720112323761
v -0.284978985786438 0.9640120267868042 -0.3588460087776184
v -0.21750099956989288 0.9640120267868042 -0.3878380060195923
v -0.44179999828338623 0.9130640029907227 -0.19964200258255005
v -0.41047000885009766 0.9640120267868042 -0.19535499811172485
v -0.4881660044193268 0.9064840078353882 -0.040832001715898514
v -0.4512700140476227 0.9640120267868042 -0.04637200012803078
v -0.44179999828338623 0.897704005241394 0.13948699831962585
v -0.41047000885009766 0.9640120267868042 0.12599599361419678
v -0.4512700140476227 0.9640120267868042 -0.04637200012803078
v -0.4881660044193268 0.9064840078353882 -0.040832001715898514
v -0.3061000108718872 0.8920739889144897 0.2564049959182739
v -0.284978985786438 0.9640120267868042 0.23505899310112
v -0.21920600533485413 0.891044020652771 0.2778970003128052
v -0.208514004945755 0.9640120267868042 0.25510600209236145
v 0.20489199459552765 0.897704005241394 0.13948699831962585
v 0.16723500192165375 0.9640120267868042 0.12599599361419678
v 0.014673000201582909 0.9640120267868042 0.23505899310112
v 0.05957699939608574 0.8920739889144897 0.2564049959182739
v 0.25125598907470703 0.906482994556427 -0.040832001715898514
v 0.2080339938402176 0.9640120267868042 -0.04637200012803078
v 0.19091199338436127 0.9640120267868042 0.025967000052332878
v 0.23179900646209717 0.9027929902076721 0.03484499827027321
v 0.1904579997062683 0.9640120267868042 -0.110555000603199
v 0.23128299415111542 0.90932297706604 -0.10924900323152542
v -0.05512100085616112 0.010706007480621338 -0.27636000514030457
v -0.12442199885845184 0.007966995239257812 -0.30397000908851624
v -0.20371299982070923 0.011112987995147705 -0.2722240090370178
v -0.26681700348854065 0.013615012168884277 -0.24654799699783325
v -0.36963000893592834 0.029060006141662598 -0.14442899823188782
v -0.4101409912109375 0.05016201734542847 -0.0049299998208880424
v -0.37454500794410706 0.06241101026535034 0.1580590009689331
v -0.4101409912109375 0.05016201734542847 -0.0049299998208880424
v -0.2705579996109009 0.07475799322128296 0.22390800714492798
v -0.19731999933719635 0.07759100198745728 0.2562769949436188
v 0.12594099342823029 0.06240999698638916 0.1580590009689331
v 0.021524999290704727 0.07475799322128296 0.2314009964466095
v 0.16125400364398956 0.05014300346374512 -0.01629900000989437
v 0.14553199708461761 0.051931023597717285 0.06846100091934204
v 0.09592799842357635 0.0312579870223999 -0.20463599264621735
v 0.1291320025920868 0.0416719913482666 -0.10485199838876724
v 0.018327999860048294 0.013615012168884277 -0.24654799699783325
v -0.13027900457382202 0.5850290060043335 -0.3693090081214905
v -0.05129599943757057 0.5836049914360046 -0.3413339853286743
v -0.29013198614120483 0.5820940136909485 -0.31112098693847656
v -0.21929199993610382 0.5833920240402222 -0.3371430039405823
v -0.40665701031684875 0.5691449642181396 -0.17121300101280212
v -0.448386013507843 0.5557889938354492 -0.0371600016951561
v -0.40516600012779236 0.5402050018310547 0.126910001039505
v -0.448386013507843 0.5557889938354492 -0.0371600016951561
v -0.2887279987335205 0.529695987701416 0.22675199806690216
v -0.20910799503326416 0.5277689695358276 0.24510300159454346
v 0.1848440021276474 0.5402050018310547 0.126910001039505
v 0.05772300064563751 0.529695987701416 0.22675199806690216
v 0.22801600396633148 0.5557880401611328 -0.0371600016951561
v 0.2098969966173172 0.5492500066757202 0.027132999151945114
v 0.1704230010509491 0.5705389976501465 -0.1976190060377121
v 0.21000899374485016 0.561540961265564 -0.09491100162267685
v 0.05894999951124191 0.5820930004119873 -0.31112098693847656
v 0.07756400108337402 -0.199072003364563 -0.14789099991321564
v 0.08758900314569473 -0.19652795791625977 -0.08602800220251083
v 0.0019020000472664833 -0.19430899620056152 -0.1765429973602295
v -0.06668400019407272 -0.18991005420684814 -0.200437992811203
v -0.1289220005273819 -0.18599605560302734 -0.22689299285411835
v -0.19933299720287323 -0.17936396598815918 -0.1969120055437088
v -0.25536900758743286 -0.17408597469329834 -0.17573200166225433
v -0.3490470051765442 -0.16205501556396484 -0.09328900277614594
v -0.38428398966789246 -0.15339398384094238 0.02019299939274788
v -0.3502900004386902 -0.14931201934814453 0.1367489993572235
v -0.38428398966789246 -0.15339398384094238 0.02019299939274788
v -0.2558459937572479 -0.1430809497833252 0.19785499572753906
v -0.19068199396133423 -0.1471250057220459 0.2324499934911728
v 0.09901399910449982 -0.1845630407333374 0.13617900013923645
v 0.0031620000954717398 -0.16337502002716064 0.20103000104427338
v 0.1355379968881607 -0.19425904750823975 0.009006000123918056
v 0.11971999704837799 -0.19025194644927979 0.06348499655723572
v 0.057725999504327774 1.0081499814987183 0.08484300225973129
v -0.1327120065689087 1.057420015335083 -0.04583299905061722
v -0.022763000801205635 1.0081510543823242 0.16359500586986542
v -0.08195599913597107 1.0081510543823242 0.17911399900913239
v -0.18744699656963348 1.0081510543823242 0.1780720055103302
v -0.2426619976758957 1.0081510543823242 0.16359500586986542
v -0.33717501163482666 1.0081510543823242 0.08484300225973129
v -0.3666349947452545 1.0081510543823242 -0.04612300172448158
v -0.33717501163482666 1.0081510543823242 -0.15369899570941925
v -0.2426619976758957 1.0081510543823242 -0.23245300352573395
v -0.1327120065689087 1.0081510543823242 -0.3157069981098175
v -0.1939380019903183 1.0081510543823242 -0.2996560037136078
v -0.022763000801205635 1.0081499814987183 -0.23245300352573395
v -0.0793360024690628 1.0081510543823242 -0.3017140030860901
v 0.057725999504327774 1.0081499814987183 -0.15369899570941925
v 0.1465660035610199 0.9960020184516907 -0.04612300172448158
v 0.13387399911880493 0.9960020184516907 -0.09246700257062912
v 0.1342030018568039 0.9960020184516907 0.008841999806463718
v -0.08195599913597107 1.0081510543823242 0.17911399900913239
v -0.05606300011277199 0.9640120267868042 0.25655001401901245
v -0.05606300011277199 0.9640120267868042 0.25655001401901245
v -0.030858999118208885 0.8909739851951599 0.27944499254226685
v -0.05181200057268143 0.527633011341095 0.24642600119113922
v -0.0611100010573864 0.3375890254974365 0.19788700342178345
v -0.06099700182676315 0.19621801376342773 0.1943349987268448
v -0.05720699951052666 0.07779902219772339 0.25762900710105896
v -0.06641999632120132 -0.1567850112915039 0.2336059957742691
v -0.07397899776697159 -0.41958296298980713 0.1444920003414154
v -0.17012900114059448 -0.4294869899749756 0.14410600066184998
v -0.20084600150585175 -0.5896209478378296 0.11982899904251099
v -0.013369999825954437 -0.42668700218200684 -0.14164400100708008
v -0.06961800158023834 -0.42640602588653564 -0.15916399657726288
v -0.12082500010728836 -0.4255629777908325 -0.1783290058374405
v 0.09408099949359894 -0.42627596855163574 0.009921000339090824
v 0.08124399930238724 -0.42615795135498047 0.0347369983792305
v 0.06590200215578079 -0.424096941947937 -0.04575899988412857
v 0.05166200175881386 -0.42181599140167236 -0.09942000359296799
v -0.13462300598621368 0.8354710340499878 -0.40911900997161865
v -0.035029999911785126 0.8331509828567505 -0.3786599934101105
v -0.2300020009279251 0.8328109979629517 -0.37410199642181396
v -0.3059059977531433 0.8306909799575806 -0.34579798579216003
v -0.4312939941883087 0.8176510334014893 -0.1863040030002594
v -0.47718900442123413 0.8024010062217712 -0.03706600144505501
v -0.4312939941883087 0.7820309996604919 0.12766799330711365
v -0.47718900442123413 0.8024010062217712 -0.03706600144505501
v -0.3059059977531433 0.7689809799194336 0.2384530007839203
v -0.21988999843597412 0.7665809988975525 0.25881698727607727
v -0.031491998583078384 0.7664110064506531 0.26028499007225037
v 0.08903399854898453 0.7689809799194336 0.2384530007839203
v 0.218873992562294 0.7820299863815308 0.12766799330711365
v 0.26476800441741943 0.8023999929428101 -0.03706600144505501
v 0.24550800025463104 0.7938500046730042 0.03206999972462654
v 0.2129179984331131 0.8179000020027161 -0.19696900248527527
v 0.24499599635601044 0.8089699745178223 -0.10135900229215622
v 0.08903399854898453 0.8306909799575806 -0.34579798579216003
v -0.28727298974990845 -0.44120895862579346 0.0751190036535263
v -0.25529998540878296 -0.5928909778594971 0.06539800018072128
v -0.21662700176239014 -0.43495500087738037 0.11434199661016464
v -0.3088900148868561 -0.4429270029067993 0.016370000317692757
v -0.2786479890346527 -0.5924509763717651 0.0038880000356584787
v -0.2786479890346527 -0.5924509763717651 0.0038880000356584787
v -0.3088900148868561 -0.4429270029067993 0.016370000317692757
v -0.11027999967336655 -0.7041399478912354 -0.1867859959602356
v -0.11634299904108047 -0.5870809555053711 -0.16765199601650238
v -0.03332599997520447 -0.5920770168304443 -0.13941000401973724
v -0.025266999378800392 -0.7061049938201904 -0.15417200326919556
v 0.029820000752806664 -0.5962909460067749 -0.07359100133180618
v 0.04239000007510185 -0.7070300579071045 -0.09022899717092514
v 0.04812299832701683 -0.5963490009307861 -0.02948400005698204
v 0.06327799707651138 -0.7069000005722046 -0.03527199849486351
v 0.039138998836278915 -0.7067689895629883 0.07049000263214111
v -0.029464999213814735 -0.7065520286560059 0.14301399886608124
v -0.19067099690437317 -0.7065240144729614 0.14072200655937195
v -0.2490520030260086 -0.7067470550537109 0.07271300256252289
v -0.2682110071182251 -0.7068419456481934 0.001151000033132732
v -0.2682110071182251 -0.7068419456481934 0.001151000033132732
v -0.24628600478172302 -0.7069950103759766 -0.08663400262594223
v -0.18758800625801086 -0.7060890197753906 -0.1525679975748062
v -0.18758800625801086 -0.7060890197753906 -0.1525679975748062
v -0.2146649956703186 -0.7656420469284058 -0.2698419988155365
v -0.26927998661994934 -0.838405966758728 -0.15037600696086884
v -0.24628600478172302 -0.7069950103759766 -0.08663400262594223
v -0.025266999378800392 -0.7061049938201904 -0.15417200326919556
v 0.006484000012278557 -0.7656600475311279 -0.2716670036315918
v -0.1025409996509552 -0.7562830448150635 -0.32591700553894043
v -0.11027999967336655 -0.7041399478912354 -0.1867859959602356
v 0.04239000007510185 -0.7070300579071045 -0.09022899717092514
v 0.09565100073814392 -0.8384460210800171 -0.15446700155735016
v -0.25835201144218445 -0.8428200483322144 -0.4815090000629425
v -0.3301919996738434 -0.9252630472183228 -0.44218599796295166
v 0.055886998772621155 -0.8428380489349365 -0.4883959889411926
v -0.10280200093984604 -0.8306050300598145 -0.5244050025939941
v 0.1386920064687729 -0.9253029823303223 -0.451337993144989
v -0.24066899716854095 -0.8634690046310425 -0.6578729748725891
v -0.3125090003013611 -0.9212579727172852 -0.590732991695404
v 0.029363000765442848 -0.8626919984817505 -0.6241030097007751
v -0.09062399715185165 -0.8445650339126587 -0.6666839718818665
v 0.11216799914836884 -0.919517993927002 -0.5590140223503113
v -0.029464999213814735 -0.7065520286560059 0.14301399886608124
v -0.010579999536275864 -0.8172229528427124 0.18795299530029297
v 0.06748499721288681 -0.8174690008163452 0.10542699694633484
v 0.039138998836278915 -0.7067689895629883 0.07049000263214111
v -0.2490520030260086 -0.7067470550537109 0.07271300256252289
v -0.2604529857635498 -0.8174439668655396 0.10795699805021286
v -0.19402100145816803 -0.8171910047531128 0.18534600734710693
v -0.19067099690437317 -0.7065240144729614 0.14072200655937195
v -0.2682110071182251 -0.7068419456481934 0.001151000033132732
v -0.28225401043891907 -0.8175530433654785 0.026523999869823456
v 0.09495300054550171 -0.8176180124282837 -0.014921000227332115
v 0.06327799707651138 -0.7069000005722046 -0.03527199849486351
v -0.19067099690437317 -0.7065240144729614 0.14072200655937195
v -0.19402100145816803 -0.8171910047531128 0.18534600734710693
v 0.0056570000015199184 -0.93880295753479 0.18147900700569153
v 0.08372300118207932 -0.9343589544296265 0.09907200187444687
v -0.24421599507331848 -0.9369579553604126 0.10145799815654755
v -0.17778299748897552 -0.9386229515075684 0.17887699604034424
v -0.2700760066509247 -0.9224179983139038 0.02072099968791008
v 0.09727200120687485 -0.936365008354187 -0.02158600091934204
v -0.17778299748897552 -0.9386229515075684 0.17887699604034424
v -0.19312000274658203 -0.9784890413284302 0.09860599786043167
v -0.24421599507331848 -0.9369579553604126 0.10145799815654755
v -0.2700760066509247 -0.9224179983139038 0.02072099968791008
v -0.18547099828720093 -0.9737069606781006 0.012628999538719654
v -0.17778299748897552 -0.9386229515075684 0.17887699604034424
v 0.011417999863624573 -0.9784200191497803 0.09712199866771698
v 0.0056570000015199184 -0.93880295753479 0.18147900700569153
v 0.005665000062435865 -0.9723429679870605 -0.012020000256597996
v 0.08372300118207932 -0.9343589544296265 0.09907200187444687
v 0.09727200120687485 -0.936365008354187 -0.02158600091934204
v -0.32613199949264526 -0.9961329698562622 -0.4447070062160492
v -0.26927998661994934 -0.92529296875 -0.19193799793720245
v 0.09971000254154205 -0.9761929512023926 -0.19893400371074677
v 0.14275099337100983 -0.9959399700164795 -0.4538539946079254
v -0.30845001339912415 -0.985273003578186 -0.592831015586853
v -0.23660899698734283 -0.9480079412460327 -0.6579579710960388
v 0.03342200070619583 -0.9471390247344971 -0.6241409778594971
v -0.09062399715185165 -0.9271960258483887 -0.6656399965286255
v 0.11622700095176697 -0.9833250045776367 -0.5610060095787048
v -0.0784360021352768 -0.9960349798202515 -0.4493210017681122
v 0.14275099337100983 -0.9959399700164795 -0.4538539946079254
v 0.09971000254154205 -0.9761929512023926 -0.19893400371074677
v -0.018682999536395073 -0.9762879610061646 -0.19693100452423096
v -0.0784360021352768 -0.984279990196228 -0.5693640112876892
v 0.11622700095176697 -0.9833250045776367 -0.5610060095787048
v -0.30845001339912415 -0.985273003578186 -0.592831015586853
v -0.32613199949264526 -0.9961329698562622 -0.4447070062160492
v -0.1826239973306656 -0.9648360013961792 -0.19463899731636047
v -0.09062399715185165 -0.9271960258483887 -0.6656399965286255
v -0.23660899698734283 -0.9480079412460327 -0.6579579710960388
v 0.03342200070619583 -0.9471390247344971 -0.6241409778594971
v -0.26927998661994934 -0.92529296875 -0.19193799793720245

vn 0.8377919793128967 -0.037960998713970184 0.544668972492218
vn 0.7223100066184998 -0.23408600687980652 0.6507470011711121
vn 0.44213399291038513 -0.20092999935150146 0.8741530179977417
vn 0.37730199098587036 0.03888100013136864 0.9252740144729614
vn -0.8690000176429749 -0.08826799690723419 -0.4868749976158142
vn -0.8499730229377747 -0.18720099329948425 -0.4924440085887909
vn -0.5516989827156067 -0.1486790031194687 -0.820684015750885
vn -0.5593870282173157 -0.015825999900698662 -0.8287550210952759
vn -0.3325600028038025 -0.1311729997396469 -0.9339150190353394
vn 0.5730630159378052 0.7121739983558655 0.40547001361846924
vn 0.2857550084590912 0.9288319945335388 0.23582899570465088
vn 0.20306800305843353 0.8869540095329285 0.41482099890708923
vn 0.3080039918422699 0.6855859756469727 0.6596249938011169
vn -0.10157600045204163 0.622704029083252 0.7758359909057617
vn -0.059803999960422516 0.8730769753456116 0.4839009940624237
vn -0.21155300736427307 0.8825910091400146 0.4198560118675232
vn -0.3477439880371094 0.63987797498703 0.6852949857711792
vn -0.39487800002098083 0.8865389823913574 0.24108000099658966
vn -0.6281870007514954 0.6722000241279602 0.3918269872665405
vn -0.46367400884628296 0.8859480023384094 -0.010071000084280968
vn -0.7005680203437805 0.7135130167007446 -0.010187000036239624
vn -0.3876279890537262 0.8854900002479553 -0.2562279999256134
vn -0.6163240075111389 0.714730978012085 -0.33061298727989197
vn -0.29698801040649414 0.9127830266952515 -0.2804020047187805
vn -0.4027029871940613 0.7227230072021484 -0.5616959929466248
vn -0.29641398787498474 0.6952490210533142 -0.654803991317749
vn -0.30664199590682983 0.886139988899231 -0.3474560081958771
vn 0.2630699872970581 0.7280439734458923 -0.6330450177192688
vn -0.01387299969792366 0.6591020226478577 -0.7519260048866272
vn 0.014778000302612782 0.9206820130348206 -0.3900350034236908
vn 0.19512300193309784 0.9182100296020508 -0.3446989953517914
vn 0.3508470058441162 0.7783520221710205 -0.5206490159034729
vn 0.2620899975299835 0.9326170086860657 -0.24806199967861176
vn 0.27949100732803345 0.9311779737472534 -0.2340790033340454
vn 0.5620539784431458 0.760079026222229 -0.3261519968509674
vn 0.40724098682403564 0.901220977306366 -0.14817099273204803
vn 0.6379860043525696 0.7506319880485535 -0.1718280017375946
vn 0.6672170162200928 0.7446200251579285 -0.019030999392271042
vn 0.46159300208091736 0.8870090246200562 -0.012134999968111515
vn 0.41867101192474365 0.8993710279464722 0.12588299810886383
vn 0.6490690112113953 0.7423189878463745 0.16634899377822876
vn 0.820347011089325 -0.07795000076293945 -0.5665289759635925
vn 0.7980250120162964 -0.10781499743461609 -0.5929020047187805
vn 0.9289739727973938 -0.15142300724983215 -0.3377560079097748
vn 0.9466210007667542 -0.08399300277233124 -0.31121399998664856
vn 0.5286380052566528 -0.105103999376297 -0.8423150181770325
vn 0.4955669939517975 -0.06222200021147728 -0.8663380146026611
vn 0.36361101269721985 -0.10147500038146973 -0.9260079860687256
vn -0.00027200000477023423 -0.10711800307035446 -0.9942460060119629
vn 0.0017689999658614397 -0.05238199979066849 -0.9986259937286377
vn 0.3507620096206665 -0.04614200070500374 -0.9353269934654236
vn -0.36864998936653137 -0.10532700270414352 -0.9235820174217224
vn -0.5640820264816284 -0.09048900008201599 -0.8207449913024902
vn -0.5744940042495728 -0.06585399806499481 -0.8158550262451172
vn -0.35164400935173035 -0.055814001709222794 -0.9344679713249207
vn -0.8775479793548584 -0.03611300140619278 -0.47812700271606445
vn -0.875789999961853 -0.0662660002708435 -0.4781219959259033
vn -0.9996200203895569 0.009542999789118767 -0.025851000100374222
vn -0.9976850152015686 -0.06396699696779251 -0.02308100089430809
vn -0.8251129984855652 0.12807899713516235 0.5502579808235168
vn -0.8059790134429932 -0.07366099953651428 0.5873429775238037
vn -0.9976850152015686 -0.06396699696779251 -0.02308100089430809
vn -0.9996200203895569 0.009542999789118767 -0.025851000100374222
vn -0.4078890085220337 0.20479600131511688 0.8897669911384583
vn -0.4147090017795563 -0.14083699882030487 0.8989890217781067
vn -0.13180899620056152 0.2268570065498352 0.9649680256843567
vn -0.11874599754810333 -0.14165300130844116 0.9827679991722107
vn 0.8208039999008179 0.058786001056432724 0.5681769847869873
vn 0.7844560146331787 -0.16118000447750092 0.5988739728927612
vn 0.3463810086250305 -0.16882799565792084 0.922776997089386
vn 0.4014579951763153 0.19864200055599213 0.8940759897232056
vn 0.9978070259094238 -0.06492099910974503 0.012918000109493732
vn 0.9864159822463989 -0.160971000790596 -0.03274200111627579
vn 0.9529449939727783 -0.14360199868679047 0.26697298884391785
vn 0.9650499820709229 -0.037264999002218246 0.2594049870967865
vn 0.5433390140533447 0.27791398763656616 -0.7921779751777649
vn 0.3508470058441162 0.7783520221710205 -0.5206490159034729
vn 0.5620539784431458 0.760079026222229 -0.3261519968509674
vn 0.8422769904136658 0.32087400555610657 -0.43313899636268616
vn 0.3298029899597168 0.08869300037622452 -0.939873993396759
vn -0.03082600049674511 0.016462000086903572 -0.9993889927864075
vn -0.01387299969792366 0.6591020226478577 -0.7519260048866272
vn 0.2630699872970581 0.7280439734458923 -0.6330450177192688
vn -0.36786600947380066 0.04604899883270264 -0.928737998008728
vn -0.5917630195617676 0.11080499738454819 -0.7984600067138672
vn -0.4027029871940613 0.7227230072021484 -0.5616959929466248
vn -0.29641398787498474 0.6952490210533142 -0.654803991317749
vn -0.8769729733467102 0.18307000398635864 -0.4443019926548004
vn -0.6163240075111389 0.714730978012085 -0.33061298727989197
vn -0.9757019877433777 0.21907299757003784 -0.003579000011086464
vn -0.7005680203437805 0.7135130167007446 -0.010187000036239624
vn -0.8402730226516724 0.16747500002384186 0.5156480073928833
vn -0.6281870007514954 0.6722000241279602 0.3918269872665405
vn -0.7005680203437805 0.7135130167007446 -0.010187000036239624
vn -0.9757019877433777 0.21907299757003784 -0.003579000011086464
vn -0.4574350118637085 0.12049099802970886 0.8810420036315918
vn -0.3477439880371094 0.63987797498703 0.6852949857711792
vn -0.12895800173282623 0.08356399834156036 0.9881229996681213
vn -0.10157600045204163 0.622704029083252 0.7758359909057617
vn 0.7973420023918152 0.2790850102901459 0.5351229906082153
vn 0.5730630159378052 0.7121739983558655 0.40547001361846924
vn 0.3080039918422699 0.6855859756469727 0.6596249938011169
vn 0.438042014837265 0.2210489958524704 0.8713529706001282
vn 0.9331820011138916 0.35936400294303894 -0.00531500019133091
vn 0.6672170162200928 0.7446200251579285 -0.019030999392271042
vn 0.6490690112113953 0.7423189878463745 0.16634899377822876
vn 0.901964008808136 0.34840500354766846 0.25509899854660034
vn 0.6379860043525696 0.7506319880485535 -0.1718280017375946
vn 0.9004549980163574 0.3529529869556427 -0.25417500734329224
vn 0.3624669909477234 -0.28924500942230225 -0.885977029800415
vn 0.001541999983601272 -0.30868199467658997 -0.9511640071868896
vn -0.36935898661613464 -0.29254400730133057 -0.8820379972457886
vn -0.5427029728889465 -0.26753801107406616 -0.7961770296096802
vn -0.8592990040779114 -0.16189800202846527 -0.4851750135421753
vn -0.9971160292625427 -0.07476499676704407 -0.013062999583780766
vn -0.7969380021095276 0.03480499982833862 0.6030579805374146
vn -0.9971160292625427 -0.07476499676704407 -0.013062999583780766
vn -0.470194011926651 0.1251949965953827 0.8736379742622375
vn -0.19768600165843964 0.17323699593544006 0.9648360013961792
vn 0.806306004524231 0.056800998747348785 0.5887640118598938
vn 0.4427950084209442 0.1505260020494461 0.8838970065116882
vn 0.996258020401001 -0.056669000536203384 -0.06525900214910507
vn 0.9778599739074707 -0.024136999621987343 0.20786499977111816
vn 0.7489479780197144 -0.12335299700498581 -0.6510459780693054
vn 0.9414229989051819 -0.1122789978981018 -0.3179889917373657
vn 0.46461498737335205 -0.24462099373340607 -0.8510540127754211
vn -0.0020310000982135534 -0.15123799443244934 -0.9884949922561646
vn 0.2951579988002777 -0.15058399736881256 -0.9435070157051086
vn -0.5663629770278931 -0.1484600007534027 -0.8106740117073059
vn -0.3369640111923218 -0.14753800630569458 -0.929885983467102
vn -0.8678249716758728 -0.13373500108718872 -0.478532999753952
vn -0.9896770119667053 -0.13981600105762482 -0.03147700056433678
vn -0.8351989984512329 -0.1492210030555725 0.5293170213699341
vn -0.9896770119667053 -0.13981600105762482 -0.03147700056433678
vn -0.4493139982223511 -0.16681300103664398 0.8776620030403137
vn -0.11795900017023087 -0.15751400589942932 0.9804459810256958
vn 0.8322010040283203 -0.17120300233364105 0.5273799896240234
vn 0.3923870027065277 -0.17634400725364685 0.9027379751205444
vn 0.9850980043411255 -0.1694449931383133 -0.029489999637007713
vn 0.9553809762001038 -0.16928499937057495 0.24205200374126434
vn 0.8201280236244202 -0.1612740010023117 -0.5489810109138489
vn 0.9267359972000122 -0.16215600073337555 -0.338918000459671
vn 0.5028799772262573 -0.17464500665664673 -0.8465290069580078
vn 0.7505699992179871 -0.22692599892616272 -0.6206039786338806
vn 0.9414470195770264 -0.1636119931936264 -0.29480400681495667
vn 0.34382200241088867 -0.2477869987487793 -0.9057530164718628
vn 0.3332259953022003 -0.25893300771713257 -0.90659499168396
vn -0.02279300056397915 -0.2881520092487335 -0.9573130011558533
vn -0.37910598516464233 -0.260233998298645 -0.8880069851875305
vn -0.5307409763336182 -0.26402100920677185 -0.8053609728813171
vn -0.8389269709587097 -0.23589299619197845 -0.490464985370636
vn -0.9812610149383545 -0.19170500338077545 0.019365999847650528
vn -0.7800989747047424 -0.21282300353050232 0.588346004486084
vn -0.9812610149383545 -0.19170500338077545 0.019365999847650528
vn -0.49385198950767517 -0.21593999862670898 0.8423060178756714
vn -0.24480000138282776 -0.21323299407958984 0.9458349943161011
vn 0.772782027721405 -0.2057259976863861 0.6004040241241455
vn 0.45038899779319763 -0.21662400662899017 0.8661550283432007
vn 0.9845089912414551 -0.1608780026435852 -0.06971299648284912
vn 0.9452069997787476 -0.14941400289535522 0.2902750074863434
vn 0.18512499332427979 0.9779220223426819 0.09693700075149536
vn 0.004674000199884176 0.9999859929084778 -0.0023709998931735754
vn 0.09981899708509445 0.978971004486084 0.1779080033302307
vn 0.027307000011205673 0.9777489900588989 0.2079939991235733
vn -0.02940800040960312 0.9776970148086548 0.20795099437236786
vn -0.0935249999165535 0.9789860248565674 0.18121500313282013
vn -0.1694750040769577 0.9799969792366028 0.10432499647140503
vn -0.20609499514102936 0.9785230159759521 -0.004189999774098396
vn -0.17717500030994415 0.9779180288314819 -0.1108430027961731
vn -0.127033993601799 0.9788209795951843 -0.1605360060930252
vn 9.999999974752427e-07 0.9919459819793701 -0.12665900588035583
vn 9.999999974752427e-07 1.0 -0.0
vn 0.13532200455665588 0.9779369831085205 -0.1591459959745407
vn 9.999999974752427e-07 1.0 -0.0
vn 0.19189199805259705 0.9758359789848328 -0.10450699925422668
vn 0.2104019969701767 0.9776049852371216 -0.004420999903231859
vn 0.2001349925994873 0.9782339930534363 -0.05480999872088432
vn 0.2002210021018982 0.9787150025367737 0.04503399878740311
vn 0.05592900142073631 0.8734700083732605 0.48365500569343567
vn 0.0929500013589859 0.6335449814796448 0.7681019902229309
vn 0.0929500013589859 0.6335449814796448 0.7681019902229309
vn 0.12024900317192078 0.10134200006723404 0.9875580072402954
vn 0.08634299784898758 -0.16200800240039825 0.9830049872398376
vn 0.11081399768590927 -0.14021100103855133 0.9839010238647461
vn 0.12839700281620026 0.22360600531101227 0.966185986995697
vn 0.1595650017261505 0.18029999732971191 0.9705830216407776
vn 0.18800599873065948 -0.21235600113868713 0.9589359760284424
vn 0.19554400444030762 -0.2168319970369339 0.9564239978790283
vn -0.23876500129699707 -0.21149900555610657 0.9477660059928894
vn -0.3918229937553406 -0.009517000056803226 0.9199910163879395
vn 0.4305419921875 -0.11430100351572037 -0.8953040242195129
vn 0.32439300417900085 -0.10561200231313705 -0.9400079846382141
vn 0.005758000072091818 -0.13629400730133057 -0.9906520247459412
vn 0.972216010093689 -0.2330619990825653 0.021865999326109886
vn 0.8823829889297485 -0.23896799981594086 0.405333012342453
vn 0.9199939966201782 -0.15344299376010895 -0.36064600944519043
vn 0.8048279881477356 -0.1652670055627823 -0.5700340270996094
vn -0.03253300115466118 -0.2573220133781433 -0.9657779932022095
vn 0.26453301310539246 -0.23759900033473969 -0.9346489906311035
vn -0.3361769914627075 -0.2195809930562973 -0.9158440232276917
vn -0.5809990167617798 -0.18927499651908875 -0.7915909886360168
vn -0.8743950128555298 -0.13884299993515015 -0.46492698788642883
vn -0.9935299754142761 -0.11195799708366394 -0.019074000418186188
vn -0.8525009751319885 -0.11217299848794937 0.5105479955673218
vn -0.9935299754142761 -0.11195799708366394 -0.019074000418186188
vn -0.466856986284256 -0.10593699663877487 0.877964973449707
vn -0.12364699691534042 -0.10527399927377701 0.9867259860038757
vn 0.08862300217151642 -0.10855100303888321 0.9901329874992371
vn 0.45875298976898193 -0.0607759989798069 0.8864830136299133
vn 0.8541629910469055 -0.03097599931061268 0.5190820097923279
vn 0.9998379945755005 -0.012122999876737595 -0.013322999700903893
vn 0.963936984539032 -0.014090999960899353 0.2657549977302551
vn 0.8739370107650757 -0.043859999626874924 -0.4840570092201233
vn 0.9504969716072083 -0.0202029999345541 -0.3100759983062744
vn 0.5756940245628357 -0.11177899688482285 -0.8099889755249023
vn -0.7566990256309509 -0.21686500310897827 0.6167470216751099
vn -0.8395280241966248 -0.10176599770784378 0.5337010025978088
vn -0.49686399102211 -0.1559939980506897 0.8536930084228516
vn -0.9726139903068542 -0.2301349937915802 0.0325700007379055
vn -0.9907039999961853 -0.13474400341510773 0.01873200014233589
vn -0.9907039999961853 -0.13474400341510773 0.01873200014233589
vn -0.9726139903068542 -0.2301349937915802 0.0325700007379055
vn -0.018827000632882118 0.15250200033187866 -0.9881240129470825
vn -0.029402999207377434 0.03849500045180321 -0.9988260269165039
vn 0.5236449837684631 0.024511000141501427 -0.8515840172767639
vn 0.5382840037345886 0.15793299674987793 -0.8278329968452454
vn 0.840923011302948 0.0012209999840706587 -0.5411530137062073
vn 0.8136910200119019 0.17122399806976318 -0.5555070042610168
vn 0.9951689839363098 -0.028591999784111977 -0.09391900151968002
vn 0.9871699810028076 0.14077499508857727 -0.07535199820995331
vn 0.8639050126075745 0.15098200738430023 0.4804930090904236
vn 0.37619900703430176 0.2137710005044937 0.901540994644165
vn -0.36896398663520813 0.12428899854421616 0.9210960268974304
vn -0.8706989884376526 -0.034963998943567276 0.4905720055103302
vn -0.9967349767684937 -0.08062200248241425 -0.004480999894440174
vn -0.9967349767684937 -0.08062200248241425 -0.004480999894440174
vn -0.8691229820251465 0.0006849999772384763 -0.494596004486084
vn -0.5715569853782654 0.08988399803638458 -0.8156239986419678
vn -0.6004089713096619 0.6885359883308411 -0.40672698616981506
vn -0.5711079835891724 0.7964580059051514 -0.19872300326824188
vn -0.9665650129318237 0.24068300426006317 -0.08844999969005585
vn -0.8531010150909424 0.34087198972702026 -0.39500001072883606
vn 0.2835330069065094 0.8912789821624756 -0.35387900471687317
vn 0.4911920130252838 0.8241549730300903 -0.2819570004940033
vn 0.012555000372231007 0.93756502866745 -0.3475840091705322
vn -0.04413300007581711 0.9285799860954285 -0.3684999942779541
vn 0.8259279727935791 0.4919550120830536 -0.27536100149154663
vn 0.9509710073471069 0.30202099680900574 -0.06662099808454514
vn -0.5214580297470093 0.8366479873657227 -0.16763600707054138
vn -0.965142011642456 0.261231005191803 0.016117999330163002
vn 0.5040119886398315 0.8383550047874451 -0.20768600702285767
vn -0.008503999561071396 0.9787439703941345 -0.20490799844264984
vn 0.9315710067749023 0.35355299711227417 -0.0847110003232956
vn -0.42123499512672424 0.5788750052452087 -0.698186993598938
vn -0.8838040232658386 0.27417999505996704 -0.37909799814224243
vn 0.4964730143547058 0.5763429999351501 -0.6491100192070007
vn 0.0970430001616478 0.6519700288772583 -0.7520089745521545
vn 0.8135039806365967 0.39180201292037964 -0.42976999282836914
vn 0.3562839925289154 0.4030889868736267 0.842960000038147
vn 0.3631260097026825 0.1953289955854416 0.9110360145568848
vn 0.8596630096435547 0.20901499688625336 0.46614599227905273
vn 0.8387389779090881 0.3471669852733612 0.4195150136947632
vn -0.8762739896774292 0.22576899826526642 0.42564401030540466
vn -0.8771569728851318 0.047508999705314636 0.47784799337387085
vn -0.4195930063724518 0.12177799642086029 0.8995059728622437
vn -0.4314129948616028 0.348580002784729 0.8320900201797485
vn -0.9830449819564819 0.181317999958992 0.027307000011205673
vn -0.9926940202713013 0.02319199964404106 0.11841200292110443
vn 0.9800739884376526 0.1795099973678589 0.08504100143909454
vn 0.9611009955406189 0.2558189928531647 -0.10412599891424179
vn -0.4314129948616028 0.348580002784729 0.8320900201797485
vn -0.4195930063724518 0.12177799642086029 0.8995059728622437
vn 0.4162760078907013 0.007174000144004822 0.9092100262641907
vn 0.9097059965133667 0.10369899868965149 0.4020960032939911
vn -0.8654659986495972 -0.13880200684070587 0.4813550114631653
vn -0.39580899477005005 -0.10220599919557571 0.9126279950141907
vn -0.981893002986908 -0.12204399704933167 0.1448819935321808
vn 0.9960340261459351 0.04291800037026405 0.0779390037059784
vn -0.39580899477005005 -0.10220599919557571 0.9126279950141907
vn -0.31079500913619995 -0.9276310205459595 0.2071399986743927
vn -0.6099680066108704 -0.7647140026092529 0.2077309936285019
vn -0.5283719897270203 -0.848505973815918 -0.029330000281333923
vn -0.27144598960876465 -0.961014986038208 -0.05259900167584419
vn -0.159060999751091 -0.8739280104637146 0.4592919945716858
vn 0.26291000843048096 -0.9484310150146484 0.17707599699497223
vn 0.15737800300121307 -0.8896920084953308 0.4285790026187897
vn 0.18074199557304382 -0.983057975769043 0.030500000342726707
vn 0.46927401423454285 -0.8718199729919434 0.14040200412273407
vn 0.3745329976081848 -0.9168130159378052 0.13848799467086792
vn -0.9973289966583252 -0.059560999274253845 0.04227599874138832
vn -0.9863590002059937 -0.08033700287342072 0.14367300271987915
vn 0.9935579895973206 -0.007230999879539013 0.11309199780225754
vn 0.9976130127906799 0.0484360009431839 -0.04921400174498558
vn -0.904833972454071 -0.04625900089740753 -0.42324501276016235
vn -0.42013099789619446 -0.020925000309944153 -0.9072219729423523
vn 0.508105993270874 0.030995000153779984 -0.8607370257377625
vn 0.14201399683952332 -0.007395999971777201 -0.9898369908332825
vn 0.8697249889373779 0.06950899958610535 -0.48861798644065857
vn 0.0027910000644624233 -0.9999669790267944 -0.007697999943047762
vn 0.0038429999258369207 -0.9998689889907837 -0.0157260000705719
vn 0.05763600021600723 -0.9951850175857544 0.07927700132131577
vn -0.015038999728858471 -0.9986580014228821 0.049557000398635864
vn 0.025676000863313675 -0.949737012386322 -0.3119949996471405
vn 0.01476099994033575 -0.9724289774894714 -0.23273299634456635
vn 0.0317780002951622 -0.9743989706039429 -0.22256700694561005
vn -0.054926998913288116 -0.997573971748352 0.04277599975466728
vn -0.22371399402618408 -0.9691370129585266 0.10356199741363525
vn 0.05249200016260147 -0.8631809949874878 -0.5021589994430542
vn 0.1086060032248497 -0.90973299741745 -0.4007369875907898
vn 0.028886999934911728 -0.8537480235099792 -0.5198850035667419
vn -0.4044469892978668 -0.898114025592804 0.172666996717453

vt 0.8019949793815613 0.0693889856338501
vt 0.804656982421875 0.11160600185394287
vt 0.8216990232467651 0.10879099369049072
vt 0.8188679814338684 0.06619197130203247
vt 0.7050309777259827 0.05972200632095337
vt 0.6972820162773132 0.09306502342224121
vt 0.7137619853019714 0.10017198324203491
vt 0.722042977809906 0.06334102153778076
vt 0.7217810153961182 0.10286301374435425
vt 0.6590589880943298 0.0727270245552063
vt 0.6308199763298035 0.0851060152053833
vt 0.6341419816017151 0.10864198207855225
vt 0.6589660048484802 0.11590498685836792
vt 0.6312530040740967 0.15631097555160522
vt 0.6157439947128296 0.1349719762802124
vt 0.6062930226325989 0.1410040259361267
vt 0.6159949898719788 0.16554099321365356
vt 0.5812489986419678 0.1437249779701233
vt 0.5772690176963806 0.1686360239982605
vt 0.55485999584198 0.12976199388504028
vt 0.5386840105056763 0.14835697412490845
vt 0.5397170186042786 0.1100890040397644
vt 0.5160819888114929 0.11789000034332275
vt 0.5367040038108826 0.08440202474594116
vt 0.5037599802017212 0.07169598340988159
vt 0.5070329904556274 0.05670899152755737
vt 0.532039999961853 0.06684702634811401
vt 0.5281630158424377 0.02761697769165039
vt 0.512328028678894 0.03666400909423828
vt 0.5372350215911865 0.055873990058898926
vt 0.5459700226783752 0.04964601993560791
vt 0.5451920032501221 0.02005302906036377
vt 0.565077006816864 0.050437986850738525
vt 0.5893840193748474 0.04951697587966919
vt 0.5977280139923096 0.02005302906036377
vt 0.610522985458374 0.047361016273498535
vt 0.6178979873657227 0.028788983821868896
vt 0.6323429942131042 0.03707301616668701
vt 0.6193230152130127 0.05274200439453125
vt 0.6274470090866089 0.06180298328399658
vt 0.6445279717445374 0.05113297700881958
vt 0.756721019744873 0.2486649751663208
vt 0.7586529850959778 0.2852330207824707
vt 0.7793319821357727 0.28290098905563354
vt 0.7784540057182312 0.24858999252319336
vt 0.7377480268478394 0.24682998657226562
vt 0.7366020083427429 0.2862039804458618
vt 0.7266680002212524 0.24528098106384277
vt 0.7165849804878235 0.24365097284317017
vt 0.7125869989395142 0.2838990092277527
vt 0.724219024181366 0.28512102365493774
vt 0.7046170234680176 0.24130100011825562
vt 0.6948350071907043 0.2392590045928955
vt 0.688506007194519 0.2787349820137024
vt 0.699072003364563 0.2811409831047058
vt 0.6696959733963013 0.23155200481414795
vt 0.6620849967002869 0.2673249840736389
vt 0.6454709768295288 0.2244579792022705
vt 0.6406620144844055 0.25676900148391724
vt 0.9056730270385742 0.22986698150634766
vt 0.9101579785346985 0.2626349925994873
vt 0.9372889995574951 0.25252801179885864
vt 0.9311910271644592 0.2197139859199524
vt 0.8832629919052124 0.2362629771232605
vt 0.888729989528656 0.2738659977912903
vt 0.8717809915542603 0.24023497104644775
vt 0.8766649961471558 0.2759510278701782
vt 0.814844012260437 0.24928998947143555
vt 0.8162270188331604 0.28159099817276
vt 0.8417770266532898 0.2834389805793762
vt 0.837581992149353 0.24632298946380615
vt 0.789264976978302 0.24876898527145386
vt 0.788981020450592 0.28147000074386597
vt 0.8001800179481506 0.2792620062828064
vt 0.7984640002250671 0.2495650053024292
vt 0.7290639877319336 0.45216798782348633
vt 0.7242670059204102 0.4818649888038635
vt 0.7633619904518127 0.48317402601242065
vt 0.7646459937095642 0.45097899436950684
vt 0.7143849730491638 0.4520289897918701
vt 0.6993700265884399 0.45124202966690063
vt 0.6981359720230103 0.4801899790763855
vt 0.711122989654541 0.4814339876174927
vt 0.6842749714851379 0.44928401708602905
vt 0.6720309853553772 0.44712698459625244
vt 0.670678973197937 0.4776719808578491
vt 0.682765007019043 0.47935301065444946
vt 0.6367719769477844 0.4401329755783081
vt 0.6349400281906128 0.471701979637146
vt 0.6080359816551208 0.43363600969314575
vt 0.6073840260505676 0.46758902072906494
vt 0.9349910020828247 0.43321800231933594
vt 0.9369170069694519 0.47000497579574585
vt 0.9711120128631592 0.46738201379776
vt 0.969232976436615 0.43080198764801025
vt 0.9062989950180054 0.4361119866371155
vt 0.9076240062713623 0.47300398349761963
vt 0.8929880261421204 0.4377340078353882
vt 0.8948010206222534 0.4745749831199646
vt 0.8234609961509705 0.44476401805877686
vt 0.8255090117454529 0.4795899987220764
vt 0.8576290011405945 0.47820401191711426
vt 0.8518229722976685 0.44132500886917114
vt 0.7924429774284363 0.4483190178871155
vt 0.7923409938812256 0.4819449782371521
vt 0.8062989711761475 0.48188698291778564
vt 0.8055480122566223 0.4470970034599304
vt 0.7799599766731262 0.48317402601242065
vt 0.7804819941520691 0.44972801208496094
vt 0.7306069731712341 0.214152991771698
vt 0.7194790244102478 0.21314501762390137
vt 0.7071809768676758 0.2099589705467224
vt 0.6971070170402527 0.2075909972190857
vt 0.6739490032196045 0.20230597257614136
vt 0.6483759880065918 0.19619101285934448
vt 0.894661009311676 0.2013930082321167
vt 0.9234690070152283 0.19113999605178833
vt 0.8771960139274597 0.20846199989318848
vt 0.8661929965019226 0.21125799417495728
vt 0.818792998790741 0.2190380096435547
vt 0.8368650078773499 0.21713000535964966
vt 0.7891690135002136 0.22101497650146484
vt 0.8036050200462341 0.2193869948387146
vt 0.7555720210075378 0.2193160057067871
vt 0.7732629776000977 0.22043800354003906
vt 0.742343008518219 0.2154260277748108
vt 0.706421971321106 0.34381401538848877
vt 0.7192379832267761 0.34440797567367554
vt 0.6806460022926331 0.33785802125930786
vt 0.6921799778938293 0.3404499888420105
vt 0.6509990096092224 0.32642900943756104
vt 0.6269099712371826 0.3152620196342468
vt 0.9195960164070129 0.31692397594451904
vt 0.9498900175094604 0.3111580014228821
vt 0.8948339819908142 0.3211669921875
vt 0.8825079798698425 0.32312101125717163
vt 0.8186929821968079 0.3354799747467041
vt 0.8434150218963623 0.33048200607299805
vt 0.7903559803962708 0.34029000997543335
vt 0.8015339970588684 0.3380330204963684
vt 0.761788010597229 0.34384000301361084
vt 0.7801889777183533 0.3415529727935791
vt 0.7363960146903992 0.3459879755973816
vt 0.7604579925537109 0.16717302799224854
vt 0.7719320058822632 0.16687601804733276
vt 0.747223973274231 0.16661298274993896
vt 0.7352160215377808 0.16648799180984497
vt 0.7237240076065063 0.16689497232437134
vt 0.7107840180397034 0.16434597969055176
vt 0.7006959915161133 0.16273200511932373
vt 0.678957998752594 0.157414972782135
vt 0.6572380065917969 0.14887601137161255
vt 0.8877400159835815 0.15696001052856445
vt 0.9081820249557495 0.1461079716682434
vt 0.8708140254020691 0.16420400142669678
vt 0.8599230051040649 0.16702502965927124
vt 0.8133460283279419 0.1678609848022461
vt 0.8311629891395569 0.169700026512146
vt 0.7903950214385986 0.16716599464416504
vt 0.8004500269889832 0.16721397638320923
vt 0.6308199763298035 0.0851060152053833
vt 0.5839899778366089 0.09452700614929199
vt 0.6341419816017151 0.10864198207855225
vt 0.6294959783554077 0.11982399225234985
vt 0.6157439947128296 0.1349719762802124
vt 0.6062930226325989 0.1410040259361267
vt 0.5812489986419678 0.1437249779701233
vt 0.55485999584198 0.12976199388504028
vt 0.5397170186042786 0.1100890040397644
vt 0.5367040038108826 0.08440202474594116
vt 0.5372350215911865 0.055873990058898926
vt 0.532039999961853 0.06684702634811401
vt 0.565077006816864 0.050437986850738525
vt 0.5459700226783752 0.04964601993560791
vt 0.5893840193748474 0.04951697587966919
vt 0.6193230152130127 0.05274200439453125
vt 0.610522985458374 0.047361016273498535
vt 0.6274470090866089 0.06180298328399658
vt 0.6294959783554077 0.11982399225234985
vt 0.6530519723892212 0.1309869885444641
vt 0.8698359727859497 0.4775630235671997
vt 0.8655509948730469 0.44016802310943604
vt 0.8595110177993774 0.3270609974861145
vt 0.8544510006904602 0.28081202507019043
vt 0.8502619862556458 0.24560600519180298
vt 0.8479719758033752 0.21486002206802368
vt 0.8425830006599426 0.1692659854888916
vt 0.8323529958724976 0.10694199800491333
vt 0.8489310145378113 0.10027897357940674
vt 0.8489260077476501 0.05896800756454468
vt 0.7522940039634705 0.11028599739074707
vt 0.7417160272598267 0.10876601934432983
vt 0.7318180203437805 0.1077839732170105
vt 0.7899730205535889 0.11277401447296143
vt 0.7955870032310486 0.11207801103591919
vt 0.7778220176696777 0.11273598670959473
vt 0.7666209936141968 0.11352497339248657
vt 0.7016919851303101 0.4003400206565857
vt 0.7169989943504333 0.40062397718429565
vt 0.686942994594574 0.3971710205078125
vt 0.6749190092086792 0.3946790099143982
vt 0.6423310041427612 0.38415098190307617
vt 0.615401029586792 0.37350302934646606
vt 0.9297090172767639 0.37220698595046997
vt 0.9607830047607422 0.36949801445007324
vt 0.902351975440979 0.3747910261154175
vt 0.8890659809112549 0.37636798620224
vt 0.8618299961090088 0.38014698028564453
vt 0.844307005405426 0.3829200267791748
vt 0.819005012512207 0.38815200328826904
vt 0.7916679978370667 0.3939480185508728
vt 0.8031250238418579 0.39144402742385864
vt 0.7647510170936584 0.3980649709701538
vt 0.7808640003204346 0.39561301469802856
vt 0.7352550029754639 0.40131300687789917
vt 0.8720420002937317 0.08962702751159668
vt 0.8637019991874695 0.0546870231628418
vt 0.858256995677948 0.09541797637939453
vt 0.8831620216369629 0.08379697799682617
vt 0.8763719797134399 0.05103099346160889
vt 0.6908109784126282 0.05556201934814453
vt 0.6805750131607056 0.08549201488494873
vt 0.738394021987915 0.03704899549484253
vt 0.7367249727249146 0.06765198707580566
vt 0.752921998500824 0.06868100166320801
vt 0.7528679966926575 0.03881502151489258
vt 0.7712110280990601 0.06916701793670654
vt 0.7688590288162231 0.03965401649475098
vt 0.781266987323761 0.06940501928329468
vt 0.7797669768333435 0.03981602191925049
vt 0.8000460267066956 0.037886977195739746
vt 0.8174470067024231 0.03368502855300903
vt 0.8432130217552185 0.028559982776641846
vt 0.8590379953384399 0.025317013263702393
vt 0.8731489777565002 0.02213001251220703
vt 0.694907009601593 0.029465019702911377
vt 0.7105810046195984 0.032787978649139404
vt 0.725180983543396 0.03522002696990967
vt 0.4561620056629181 0.5217010080814362
vt 0.4279269874095917 0.5250529944896698
vt 0.44606199860572815 0.557108998298645
vt 0.47251901030540466 0.5350790023803711
vt 0.45939400792121887 0.48632001876831055
vt 0.43230900168418884 0.47926199436187744
vt 0.419638991355896 0.500586986541748
vt 0.4500589966773987 0.5039199888706207
vt 0.4756999909877777 0.4726880192756653
vt 0.45308101177215576 0.4499970078468323
vt 0.37812501192092896 0.526174008846283
vt 0.37577399611473083 0.5492689907550812
vt 0.3813360035419464 0.47286802530288696
vt 0.37537500262260437 0.4971979856491089
vt 0.3820739984512329 0.4489520192146301
vt 0.35104599595069885 0.5137510001659393
vt 0.35180601477622986 0.5313349962234497
vt 0.3560369908809662 0.4787520170211792
vt 0.35169199109077454 0.4955260157585144
vt 0.36193400621414185 0.45951902866363525
vt 0.534820020198822 0.451246976852417
vt 0.5309360027313232 0.428026020526886
vt 0.5098879933357239 0.43490201234817505
vt 0.5133150219917297 0.45838797092437744
vt 0.5098980069160461 0.5537469983100891
vt 0.5045560002326965 0.5786049962043762
vt 0.525393009185791 0.5871640145778656
vt 0.5299389958381653 0.5617420077323914
vt 0.49275898933410645 0.5458419919013977
vt 0.48679500818252563 0.5705370008945465
vt 0.4848079979419708 0.4438980221748352
vt 0.48879700899124146 0.46752601861953735
vt 0.5680480003356934 0.4450730085372925
vt 0.5637120008468628 0.4204440116882324
vt 0.5236909985542297 0.4031890034675598
vt 0.5010409951210022 0.4107710123062134
vt 0.49193599820137024 0.6037819981575012
vt 0.5128430128097534 0.6133140027523041
vt 0.4753510057926178 0.5926660001277924
vt 0.4750339984893799 0.418940007686615
vt 0.5571079850196838 0.39464497566223145
vt 0.5533850193023682 0.3756999969482422
vt 0.566116988658905 0.3749690055847168
vt 0.5680480003356934 0.35594701766967773
vt 0.5486570000648499 0.3581799864768982
vt 0.5571079850196838 0.39464497566223145
vt 0.5193480253219604 0.3841789960861206
vt 0.5236909985542297 0.4031890034675598
vt 0.5128980278968811 0.36207902431488037
vt 0.5044680237770081 0.39017802476882935
vt 0.49420198798179626 0.36590802669525146
vt 0.36683300137519836 0.5633659958839417
vt 0.42849001288414 0.5721629858016968
vt 0.4338949918746948 0.42242997884750366
vt 0.37608298659324646 0.43427902460098267
vt 0.34020501375198364 0.539806991815567
vt 0.3364560008049011 0.5188390016555786
vt 0.34279900789260864 0.469012975692749
vt 0.33735400438308716 0.4929500222206116
vt 0.354000985622406 0.4478610157966614
vt 0.5020970106124878 0.26294898986816406
vt 0.46097999811172485 0.27395302057266235
vt 0.4849349856376648 0.3265550136566162
vt 0.5068640112876892 0.32090598344802856
vt 0.49447599053382874 0.2369610071182251
vt 0.45904698967933655 0.24935001134872437
vt 0.535535991191864 0.21951401233673096
vt 0.5481650233268738 0.2504879832267761
vt 0.5378130078315735 0.3130509853363037
vt 0.4885460138320923 0.21250998973846436
vt 0.51739901304245 0.20748698711395264
vt 0.4695090055465698 0.2291179895401001
vt 0.5560439825057983 0.30977797508239746

usemtl Material

f 1/1/1 2/2/2 3/3/3
f 1/1/1 3/3/3 4/4/4
f 5/5/5 6/6/6 7/7/7
f 5/5/5 7/7/7 8/8/8
f 8/8/8 7/7/7 9/9/9
f 10/10/10 11/11/11 12/12/12
f 10/10/10 12/12/12 13/13/13
f 14/14/14 15/15/15 16/16/16
f 14/14/14 16/16/16 17/17/17
f 17/17/17 16/16/16 18/18/18
f 17/17/17 18/18/18 19/19/19
f 19/19/19 18/18/18 20/20/20
f 19/19/19 20/20/20 21/21/21
f 21/21/21 20/20/20 22/22/22
f 21/21/21 22/22/22 23/23/23
f 23/23/23 22/22/22 24/24/24
f 23/23/23 24/24/24 25/25/25
f 26/26/26 25/25/25 24/24/24
f 26/26/26 24/24/24 27/27/27
f 28/28/28 29/29/29 30/30/30
f 28/28/28 30/30/30 31/31/31
f 32/32/32 33/33/33 34/34/34
f 32/32/32 34/34/34 35/35/35
f 35/35/35 34/34/34 36/36/36
f 35/35/35 36/36/36 37/37/37
f 38/38/38 39/39/39 40/40/40
f 38/38/38 40/40/40 41/41/41
f 42/42/42 43/43/43 44/44/44
f 42/42/42 44/44/44 45/45/45
f 46/46/46 47/47/47 43/43/43
f 46/46/46 43/43/43 42/42/42
f 48/48/48 49/49/49 50/50/50
f 48/48/48 50/50/50 51/51/51
f 52/52/52 53/53/53 54/54/54
f 52/52/52 54/54/54 55/55/55
f 56/56/56 57/57/57 54/54/54
f 56/56/56 54/54/54 53/53/53
f 58/58/58 59/59/59 57/57/57
f 58/58/58 57/57/57 56/56/56
f 60/60/60 61/61/61 62/62/62
f 60/60/60 62/62/62 63/63/63
f 64/64/64 65/65/65 61/61/61
f 64/64/64 61/61/61 60/60/60
f 66/66/66 67/67/67 65/65/65
f 66/66/66 65/65/65 64/64/64
f 68/68/68 69/69/69 70/70/70
f 68/68/68 70/70/70 71/71/71
f 72/72/72 73/73/73 74/74/74
f 72/72/72 74/74/74 75/75/75
f 76/76/76 77/77/77 78/78/78
f 76/76/76 78/78/78 79/79/79
f 80/80/80 81/81/81 82/82/82
f 80/80/80 82/82/82 83/83/83
f 84/84/84 85/85/85 86/86/86
f 84/84/84 86/86/86 87/87/87
f 88/88/88 89/89/89 86/86/86
f 88/88/88 86/86/86 85/85/85
f 90/90/90 91/91/91 89/89/89
f 90/90/90 89/89/89 88/88/88
f 92/92/92 93/93/93 94/94/94
f 92/92/92 94/94/94 95/95/95
f 96/96/96 97/97/97 93/93/93
f 96/96/96 93/93/93 92/92/92
f 98/98/98 99/99/99 97/97/97
f 98/98/98 97/97/97 96/96/96
f 100/100/100 101/101/101 102/102/102
f 100/100/100 102/102/102 103/103/103
f 104/104/104 105/105/105 106/106/106
f 104/104/104 106/106/106 107/107/107
f 79/79/79 78/78/78 108/108/108
f 79/79/79 108/108/108 109/109/109
f 110/110/110 111/111/111 49/49/49
f 110/110/110 49/49/49 48/48/48
f 112/112/112 113/113/113 53/53/53
f 112/112/112 53/53/53 52/52/52
f 114/114/114 56/56/56 53/53/53
f 114/114/114 53/53/53 113/113/113
f 115/115/115 58/58/58 56/56/56
f 115/115/115 56/56/56 114/114/114
f 116/116/116 60/60/60 63/63/63
f 116/116/116 63/63/63 117/117/117
f 118/118/118 64/64/64 60/60/60
f 118/118/118 60/60/60 116/116/116
f 119/119/119 66/66/66 64/64/64
f 119/119/119 64/64/64 118/118/118
f 120/120/120 68/68/68 71/71/71
f 120/120/120 71/71/71 121/121/121
f 122/122/122 72/72/72 75/75/75
f 122/122/122 75/75/75 123/123/123
f 124/124/124 42/42/42 45/45/45
f 124/124/124 45/45/45 125/125/125
f 126/126/126 46/46/46 42/42/42
f 126/126/126 42/42/42 124/124/124
f 51/51/51 50/50/50 127/127/127
f 51/51/51 127/127/127 128/128/128
f 55/55/55 54/54/54 129/129/129
f 55/55/55 129/129/129 130/130/130
f 57/57/57 131/131/131 129/129/129
f 57/57/57 129/129/129 54/54/54
f 59/59/59 132/132/132 131/131/131
f 59/59/59 131/131/131 57/57/57
f 61/61/61 133/133/133 134/134/134
f 61/61/61 134/134/134 62/62/62
f 65/65/65 135/135/135 133/133/133
f 65/65/65 133/133/133 61/61/61
f 67/67/67 136/136/136 135/135/135
f 67/67/67 135/135/135 65/65/65
f 69/69/69 137/137/137 138/138/138
f 69/69/69 138/138/138 70/70/70
f 73/73/73 139/139/139 140/140/140
f 73/73/73 140/140/140 74/74/74
f 43/43/43 141/141/141 142/142/142
f 43/43/43 142/142/142 44/44/44
f 47/47/47 143/143/143 141/141/141
f 47/47/47 141/141/141 43/43/43
f 144/144/144 124/124/124 125/125/125
f 144/144/144 125/125/125 145/145/145
f 146/146/146 126/126/126 124/124/124
f 146/146/146 124/124/124 144/144/144
f 147/147/147 148/148/148 111/111/111
f 147/147/147 111/111/111 110/110/110
f 149/149/149 150/150/150 113/113/113
f 149/149/149 113/113/113 112/112/112
f 151/151/151 114/114/114 113/113/113
f 151/151/151 113/113/113 150/150/150
f 152/152/152 115/115/115 114/114/114
f 152/152/152 114/114/114 151/151/151
f 153/153/153 116/116/116 117/117/117
f 153/153/153 117/117/117 154/154/154
f 155/155/155 118/118/118 116/116/116
f 155/155/155 116/116/116 153/153/153
f 156/156/156 119/119/119 118/118/118
f 156/156/156 118/118/118 155/155/155
f 157/157/157 120/120/120 121/121/121
f 157/157/157 121/121/121 158/158/158
f 159/159/159 122/122/122 123/123/123
f 159/159/159 123/123/123 160/160/160
f 161/161/161 162/162/162 163/163/163
f 163/163/163 162/162/162 164/164/164
f 164/164/164 162/162/162 165/165/165
f 165/165/165 162/162/162 166/166/166
f 166/166/166 162/162/162 167/167/167
f 167/167/167 162/162/162 168/168/168
f 168/168/168 162/162/162 169/169/169
f 169/169/169 162/162/162 170/170/170
f 170/170/170 162/162/162 171/171/171
f 170/170/170 171/171/171 172/172/172
f 171/171/171 162/162/162 173/173/173
f 171/171/171 173/173/173 174/174/174
f 173/173/173 162/162/162 175/175/175
f 175/175/175 162/162/162 176/176/176
f 175/175/175 176/176/176 177/177/177
f 176/176/176 162/162/162 161/161/161
f 176/176/176 161/161/161 178/178/178
f 146/146/146 147/147/147 110/110/110
f 146/146/146 110/110/110 126/126/126
f 126/126/126 110/110/110 48/48/48
f 126/126/126 48/48/48 46/46/46
f 46/46/46 48/48/48 51/51/51
f 46/46/46 51/51/51 47/47/47
f 47/47/47 51/51/51 128/128/128
f 47/47/47 128/128/128 143/143/143
f 76/76/76 80/80/80 83/83/83
f 76/76/76 83/83/83 77/77/77
f 32/32/32 28/28/28 31/31/31
f 32/32/32 31/31/31 33/33/33
f 148/148/148 149/149/149 112/112/112
f 148/148/148 112/112/112 111/111/111
f 111/111/111 112/112/112 52/52/52
f 111/111/111 52/52/52 49/49/49
f 49/49/49 52/52/52 55/55/55
f 49/49/49 55/55/55 50/50/50
f 50/50/50 55/55/55 130/130/130
f 50/50/50 130/130/130 127/127/127
f 81/81/81 84/84/84 87/87/87
f 81/81/81 87/87/87 82/82/82
f 29/29/29 26/26/26 27/27/27
f 29/29/29 27/27/27 30/30/30
f 13/13/13 12/12/12 179/179/179
f 13/13/13 179/179/179 180/180/180
f 103/103/103 102/102/102 181/181/181
f 103/103/103 181/181/181 182/182/182
f 70/70/70 138/138/138 183/183/183
f 70/70/70 183/183/183 184/184/184
f 71/71/71 70/70/70 184/184/184
f 71/71/71 184/184/184 185/185/185
f 121/121/121 71/71/71 185/185/185
f 121/121/121 185/185/185 186/186/186
f 158/158/158 121/121/121 186/186/186
f 158/158/158 186/186/186 187/187/187
f 4/4/4 3/3/3 188/188/188
f 14/14/14 180/180/180 179/179/179
f 14/14/14 179/179/179 15/15/15
f 98/98/98 182/182/182 181/181/181
f 98/98/98 181/181/181 99/99/99
f 67/67/67 184/184/184 183/183/183
f 67/67/67 183/183/183 136/136/136
f 66/66/66 185/185/185 184/184/184
f 66/66/66 184/184/184 67/67/67
f 119/119/119 186/186/186 185/185/185
f 119/119/119 185/185/185 66/66/66
f 156/156/156 187/187/187 186/186/186
f 156/156/156 186/186/186 119/119/119
f 4/4/4 188/188/188 189/189/189
f 4/4/4 189/189/189 190/190/190
f 147/147/147 146/146/146 191/191/191
f 147/147/147 191/191/191 192/192/192
f 148/148/148 147/147/147 192/192/192
f 148/148/148 192/192/192 193/193/193
f 158/158/158 187/187/187 188/188/188
f 158/158/158 188/188/188 3/3/3
f 157/157/157 158/158/158 3/3/3
f 157/157/157 3/3/3 2/2/2
f 194/194/194 159/159/159 160/160/160
f 194/194/194 160/160/160 195/195/195
f 144/144/144 145/145/145 196/196/196
f 144/144/144 196/196/196 197/197/197
f 146/146/146 144/144/144 197/197/197
f 146/146/146 197/197/197 191/191/191
f 128/128/128 127/127/127 198/198/198
f 128/128/128 198/198/198 199/199/199
f 130/130/130 200/200/200 198/198/198
f 130/130/130 198/198/198 127/127/127
f 129/129/129 201/201/201 200/200/200
f 129/129/129 200/200/200 130/130/130
f 131/131/131 202/202/202 201/201/201
f 131/131/131 201/201/201 129/129/129
f 132/132/132 203/203/203 202/202/202
f 132/132/132 202/202/202 131/131/131
f 133/133/133 204/204/204 205/205/205
f 133/133/133 205/205/205 134/134/134
f 135/135/135 206/206/206 204/204/204
f 135/135/135 204/204/204 133/133/133
f 136/136/136 207/207/207 206/206/206
f 136/136/136 206/206/206 135/135/135
f 183/183/183 208/208/208 207/207/207
f 183/183/183 207/207/207 136/136/136
f 138/138/138 209/209/209 208/208/208
f 138/138/138 208/208/208 183/183/183
f 137/137/137 210/210/210 209/209/209
f 137/137/137 209/209/209 138/138/138
f 139/139/139 211/211/211 212/212/212
f 139/139/139 212/212/212 140/140/140
f 141/141/141 213/213/213 214/214/214
f 141/141/141 214/214/214 142/142/142
f 143/143/143 215/215/215 213/213/213
f 143/143/143 213/213/213 141/141/141
f 128/128/128 199/199/199 215/215/215
f 128/128/128 215/215/215 143/143/143
f 202/202/202 88/88/88 85/85/85
f 202/202/202 85/85/85 201/201/201
f 200/200/200 201/201/201 85/85/85
f 200/200/200 85/85/85 84/84/84
f 198/198/198 200/200/200 84/84/84
f 198/198/198 84/84/84 81/81/81
f 199/199/199 198/198/198 81/81/81
f 199/199/199 81/81/81 80/80/80
f 215/215/215 199/199/199 80/80/80
f 215/215/215 80/80/80 76/76/76
f 215/215/215 76/76/76 79/79/79
f 215/215/215 79/79/79 213/213/213
f 213/213/213 79/79/79 109/109/109
f 213/213/213 109/109/109 214/214/214
f 211/211/211 104/104/104 107/107/107
f 211/211/211 107/107/107 212/212/212
f 210/210/210 100/100/100 103/103/103
f 210/210/210 103/103/103 209/209/209
f 209/209/209 103/103/103 182/182/182
f 209/209/209 182/182/182 208/208/208
f 98/98/98 207/207/207 208/208/208
f 98/98/98 208/208/208 182/182/182
f 207/207/207 98/98/98 96/96/96
f 207/207/207 96/96/96 206/206/206
f 206/206/206 96/96/96 92/92/92
f 206/206/206 92/92/92 204/204/204
f 204/204/204 92/92/92 95/95/95
f 204/204/204 95/95/95 205/205/205
f 203/203/203 90/90/90 88/88/88
f 203/203/203 88/88/88 202/202/202
f 145/145/145 159/159/159 194/194/194
f 145/145/145 194/194/194 196/196/196
f 125/125/125 122/122/122 159/159/159
f 125/125/125 159/159/159 145/145/145
f 45/45/45 72/72/72 122/122/122
f 45/45/45 122/122/122 125/125/125
f 44/44/44 73/73/73 72/72/72
f 44/44/44 72/72/72 45/45/45
f 142/142/142 139/139/139 73/73/73
f 142/142/142 73/73/73 44/44/44
f 214/214/214 211/211/211 139/139/139
f 214/214/214 139/139/139 142/142/142
f 109/109/109 104/104/104 211/211/211
f 109/109/109 211/211/211 214/214/214
f 108/108/108 105/105/105 104/104/104
f 108/108/108 104/104/104 109/109/109
f 36/36/36 39/39/39 38/38/38
f 36/36/36 38/38/38 37/37/37
f 160/160/160 157/157/157 2/2/2
f 160/160/160 2/2/2 195/195/195
f 123/123/123 120/120/120 157/157/157
f 123/123/123 157/157/157 160/160/160
f 75/75/75 68/68/68 120/120/120
f 75/75/75 120/120/120 123/123/123
f 74/74/74 69/69/69 68/68/68
f 74/74/74 68/68/68 75/75/75
f 140/140/140 137/137/137 69/69/69
f 140/140/140 69/69/69 74/74/74
f 212/212/212 210/210/210 137/137/137
f 212/212/212 137/137/137 140/140/140
f 107/107/107 100/100/100 210/210/210
f 107/107/107 210/210/210 212/212/212
f 106/106/106 101/101/101 100/100/100
f 106/106/106 100/100/100 107/107/107
f 40/40/40 11/11/11 10/10/10
f 40/40/40 10/10/10 41/41/41
f 216/216/216 217/217/217 190/190/190
f 216/216/216 190/190/190 218/218/218
f 219/219/219 220/220/220 217/217/217
f 219/219/219 217/217/217 216/216/216
f 6/6/6 5/5/5 221/221/221
f 6/6/6 221/221/221 222/222/222
f 223/223/223 224/224/224 225/225/225
f 223/223/223 225/225/225 226/226/226
f 226/226/226 225/225/225 227/227/227
f 226/226/226 227/227/227 228/228/228
f 229/229/229 230/230/230 228/228/228
f 229/229/229 228/228/228 227/227/227
f 1/1/1 231/231/231 230/230/230
f 1/1/1 230/230/230 229/229/229
f 231/231/231 1/1/1 4/4/4
f 231/231/231 4/4/4 232/232/232
f 4/4/4 190/190/190 233/233/233
f 4/4/4 233/233/233 232/232/232
f 233/233/233 190/190/190 217/217/217
f 233/233/233 217/217/217 234/234/234
f 234/234/234 217/217/217 220/220/220
f 234/234/234 220/220/220 235/235/235
f 236/236/236 221/221/221 5/5/5
f 236/236/236 5/5/5 237/237/237
f 237/237/237 5/5/5 8/8/8
f 237/237/237 8/8/8 238/238/238
f 238/238/238 8/8/8 224/224/224
f 238/238/238 224/224/224 223/223/223
f 193/193/193 192/192/192 225/225/225
f 193/193/193 225/225/225 224/224/224
f 225/225/225 192/192/192 191/191/191
f 225/225/225 191/191/191 197/197/197
f 225/225/225 197/197/197 227/227/227
f 227/227/227 197/197/197 196/196/196
f 227/227/227 196/196/196 229/229/229
f 229/229/229 196/196/196 194/194/194
f 229/229/229 194/194/194 195/195/195
f 229/229/229 195/195/195 1/1/1
f 1/1/1 195/195/195 2/2/2
f 9/9/9 149/149/149 148/148/148
f 9/9/9 148/148/148 193/193/193
f 190/190/190 189/189/189 218/218/218
f 7/7/7 150/150/150 149/149/149
f 7/7/7 149/149/149 9/9/9
f 6/6/6 151/151/151 150/150/150
f 6/6/6 150/150/150 7/7/7
f 222/222/222 152/152/152 151/151/151
f 222/222/222 151/151/151 6/6/6
f 216/216/216 153/153/153 154/154/154
f 216/216/216 154/154/154 219/219/219
f 218/218/218 155/155/155 153/153/153
f 218/218/218 153/153/153 216/216/216
f 189/189/189 156/156/156 155/155/155
f 189/189/189 155/155/155 218/218/218
f 156/156/156 189/189/189 188/188/188
f 156/156/156 188/188/188 187/187/187
f 193/193/193 224/224/224 8/8/8
f 193/193/193 8/8/8 9/9/9
f 239/239/239 240/240/240 241/241/241
f 239/239/239 241/241/241 242/242/242
f 243/243/243 244/244/244 245/245/245
f 243/243/243 245/245/245 246/246/246
f 247/247/247 248/248/248 244/244/244
f 247/247/247 244/244/244 243/243/243
f 246/246/246 245/245/245 240/240/240
f 246/246/246 240/240/240 239/239/239
f 240/240/240 249/249/249 250/250/250
f 240/240/240 250/250/250 241/241/241
f 244/244/244 251/251/251 252/252/252
f 244/244/244 252/252/252 245/245/245
f 248/248/248 253/253/253 251/251/251
f 248/248/248 251/251/251 244/244/244
f 245/245/245 252/252/252 249/249/249
f 245/245/245 249/249/249 240/240/240
f 249/249/249 254/254/254 255/255/255
f 249/249/249 255/255/255 250/250/250
f 251/251/251 256/256/256 257/257/257
f 251/251/251 257/257/257 252/252/252
f 253/253/253 258/258/258 256/256/256
f 253/253/253 256/256/256 251/251/251
f 252/252/252 257/257/257 254/254/254
f 252/252/252 254/254/254 249/249/249
f 259/259/259 260/260/260 261/261/261
f 259/259/259 261/261/261 262/262/262
f 263/263/263 264/264/264 265/265/265
f 263/263/263 265/265/265 266/266/266
f 267/267/267 268/268/268 264/264/264
f 267/267/267 264/264/264 263/263/263
f 262/262/262 261/261/261 269/269/269
f 262/262/262 269/269/269 270/270/270
f 271/271/271 272/272/272 260/260/260
f 271/271/271 260/260/260 259/259/259
f 260/260/260 273/273/273 274/274/274
f 260/260/260 274/274/274 261/261/261
f 264/264/264 275/275/275 276/276/276
f 264/264/264 276/276/276 265/265/265
f 268/268/268 277/277/277 275/275/275
f 268/268/268 275/275/275 264/264/264
f 261/261/261 274/274/274 278/278/278
f 261/261/261 278/278/278 269/269/269
f 272/272/272 279/279/279 273/273/273
f 272/272/272 273/273/273 260/260/260
f 241/241/241 268/268/268 267/267/267
f 241/241/241 267/267/267 242/242/242
f 247/247/247 270/270/270 269/269/269
f 247/247/247 269/269/269 248/248/248
f 280/280/280 281/281/281 282/282/282
f 280/280/280 282/282/282 283/283/283
f 284/284/284 281/281/281 280/280/280
f 284/284/284 280/280/280 285/285/285
f 284/284/284 285/285/285 286/286/286
f 285/285/285 280/280/280 283/283/283
f 285/285/285 283/283/283 287/287/287
f 285/285/285 288/288/288 286/286/286
f 288/288/288 285/285/285 287/287/287
f 288/288/288 287/287/287 289/289/289
f 250/250/250 290/290/290 291/291/291
f 250/250/250 291/291/291 241/241/241
f 248/248/248 292/292/292 293/293/293
f 248/248/248 293/293/293 253/253/253
f 255/255/255 294/294/294 290/290/290
f 255/255/255 290/290/290 250/250/250
f 254/254/254 295/295/295 294/294/294
f 254/254/254 294/294/294 255/255/255
f 256/256/256 296/296/296 297/297/297
f 256/256/256 297/297/297 257/257/257
f 253/253/253 293/293/293 298/298/298
f 253/253/253 298/298/298 258/258/258
f 258/258/258 298/298/298 296/296/296
f 258/258/258 296/296/296 256/256/256
f 257/257/257 297/297/297 295/295/295
f 257/257/257 295/295/295 254/254/254
f 299/299/299 300/300/300 301/301/301
f 299/299/299 301/301/301 302/302/302
f 303/303/303 304/304/304 300/300/300
f 303/303/303 300/300/300 299/299/299
f 305/305/305 303/303/303 299/299/299
f 305/305/305 299/299/299 306/306/306
f 306/306/306 299/299/299 302/302/302
f 306/306/306 302/302/302 307/307/307
f 308/308/308 303/303/303 305/305/305
f 308/308/308 305/305/305 309/309/309
f 310/310/310 304/304/304 303/303/303
f 310/310/310 303/303/303 308/308/308
f 278/278/278 292/292/292 248/248/248
f 278/278/278 248/248/248 269/269/269
f 287/287/287 302/302/302 301/301/301
f 287/287/287 301/301/301 289/289/289
f 306/306/306 307/307/307 311/311/311
f 283/283/283 307/307/307 302/302/302
f 283/283/283 302/302/302 287/287/287
f 307/307/307 283/283/283 282/282/282
f 307/307/307 282/282/282 311/311/311
f 268/268/268 241/241/241 291/291/291
f 268/268/268 291/291/291 277/277/277