mtllib 28254285.mtl
o Mesh

v -0.09096497297286987 -0.7409050464630127 0.1726049929857254
v -0.2982649803161621 -0.8550050258636475 0.2905749976634979
v -0.11358499526977539 -0.8370050191879272 0.37946298718452454
v -0.020754992961883545 -0.7299250364303589 0.24895499646663666
v 0.19222500920295715 -0.6783339977264404 0.20381399989128113
v 0.12589499354362488 -0.6944049596786499 0.252564013004303
v 0.23563501238822937 -0.745684027671814 0.33206799626350403
v 0.31475499272346497 -0.7027740478515625 0.2531369924545288
v 0.31475499272346497 -0.7027740478515625 0.2531369924545288
v 0.2563149929046631 -0.6628149747848511 0.029068000614643097
v 0.19222500920295715 -0.6783339977264404 0.20381399989128113
v 0.24916499853134155 -0.6515040397644043 -0.07311499863862991
v 0.2563149929046631 -0.6628149747848511 0.029068000614643097
v 0.40481501817703247 -0.7318739891052246 0.004358999896794558
v 0.3970550000667572 -0.7181539535522461 -0.11847300082445145
v 0.24916499853134155 -0.6515040397644043 -0.07311499863862991
v 0.3970550000667572 -0.7181539535522461 -0.11847300082445145
v 0.21060499548912048 -0.7753750085830688 -0.32879000902175903
v 0.10715499520301819 -0.7009249925613403 -0.17052200436592102
v -0.039884984493255615 -0.734565019607544 -0.2089720070362091
v 0.03748500347137451 -0.7158249616622925 -0.21806000173091888
v 0.12210500240325928 -0.8446149826049805 -0.3582170009613037
v -0.16129499673843384 -0.872594952583313 -0.36800000071525574
v -0.08823502063751221 -0.7396249771118164 -0.1144689992070198
v -0.3082749843597412 -0.854045033454895 -0.2768529951572418
v -0.31965500116348267 -0.8674949407577515 0.007230000104755163
v -0.128184974193573 -0.7582449913024902 0.02906700037419796
v -0.09096497297286987 -0.7409050464630127 0.1726049929857254
v -0.2982649803161621 -0.8550050258636475 0.2905749976634979
v 0.2581849992275238 -0.8358139991760254 0.32494500279426575
v 0.18184500932693481 -0.941864013671875 0.22567999362945557
v 0.2791150212287903 -0.8744649887084961 0.1063460037112236
v 0.3386650085449219 -0.7781039476394653 0.23125199973583221
v 0.19736498594284058 -0.9608540534973145 -0.059647999703884125
v 0.2009049952030182 -0.957353949546814 -0.16459199786186218
v 0.3372749984264374 -0.9174849987030029 -0.12190300226211548
v 0.3090350031852722 -0.8761149644851685 -0.021539000794291496
v -0.07195502519607544 -1.4420150518417358 -0.06229700148105621
v -0.11213499307632446 -1.4416149854660034 -0.06360799819231033
v -0.13296502828598022 -1.4327340126037598 -0.27797698974609375
v -0.07999497652053833 -1.4278349876403809 -0.2879129946231842
v -0.049004971981048584 -1.4282840490341187 0.21734100580215454
v -0.09426498413085938 -1.4365639686584473 0.22889600694179535
v -0.16717499494552612 -1.063704013824463 0.35414400696754456
v -0.11358499526977539 -0.8370050191879272 0.37946298718452454
v -0.2982649803161621 -0.8550050258636475 0.2905749976634979
v -0.34374499320983887 -1.142104983329773 0.2790200114250183
v -0.04477500915527344 -1.0773249864578247 0.2633180022239685
v -0.07158499956130981 -1.066825032234192 -0.04704299941658974
v 0.07985499501228333 -1.0038050413131714 -0.05534199997782707
v 0.09501498937606812 -0.9975850582122803 0.257191002368927
v 0.10240501165390015 -0.9804250001907349 -0.3545140027999878
v -0.20209497213363647 -1.0454649925231934 -0.3622240126132965
v -0.16129499673843384 -0.872594952583313 -0.36800000071525574
v 0.12210500240325928 -0.8446149826049805 -0.3582170009613037
v -0.3589249849319458 -1.0948950052261353 -0.2890799939632416
v -0.3577749729156494 -1.130614995956421 -0.0025470000691711903
v -0.31965500116348267 -0.8674949407577515 0.007230000104755163
v -0.3082749843597412 -0.854045033454895 -0.2768529951572418
v -0.34374499320983887 -1.142104983329773 0.2790200114250183
v -0.2982649803161621 -0.8550050258636475 0.2905749976634979
v 0.08070498704910278 -1.0163450241088867 -0.2712860107421875
v -0.0666850209236145 -1.0686750411987305 -0.30330899357795715
v 0.12599501013755798 -0.8970750570297241 0.38050198554992676
v -0.16717499494552612 -1.063704013824463 0.35414400696754456
v -0.04477500915527344 -1.0773249864578247 0.2633180022239685
v 0.09501498937606812 -0.9975850582122803 0.257191002368927
v -0.09426498413085938 -1.4365639686584473 0.22889600694179535
v -0.049004971981048584 -1.4282840490341187 0.21734100580215454
v -0.13750499486923218 -1.317803978919983 0.2867569923400879
v -0.2731750011444092 -1.3420339822769165 0.25360700488090515
v 0.2791150212287903 -0.8744649887084961 0.1063460037112236
v 0.18184500932693481 -0.941864013671875 0.22567999362945557
v 0.3970550000667572 -0.7181539535522461 -0.11847300082445145
v 0.40481501817703247 -0.7318739891052246 0.004358999896794558
v 0.3386650085449219 -0.7781039476394653 0.23125199973583221
v 0.30099499225616455 -0.9976439476013184 -0.19644999504089355
v 0.33645498752593994 -0.9747740030288696 -0.3171760141849518
v 0.3913550078868866 -0.924934983253479 -0.2588300108909607
v 0.3474150002002716 -0.953484058380127 -0.1620440036058426
v -0.09426498413085938 -1.4365639686584473 0.22889600694179535
v -0.2731750011444092 -1.3420339822769165 0.25360700488090515
v -0.291795015335083 -1.3270339965820312 -0.03353499993681908
v -0.11213499307632446 -1.4416149854660034 -0.06360799819231033
v -0.2922250032424927 -1.3057340383529663 -0.27547499537467957
v -0.13296502828598022 -1.4327340126037598 -0.27797698974609375
v -0.04477500915527344 -1.0773249864578247 0.2633180022239685
v -0.16717499494552612 -1.063704013824463 0.35414400696754456
v -0.13750499486923218 -1.317803978919983 0.2867569923400879
v -0.043254971504211426 -1.2857340574264526 0.22649100422859192
v 0.3913550078868866 -0.924934983253479 -0.2588300108909607
v 0.3474150002002716 -0.953484058380127 -0.1620440036058426
v 0.30099499225616455 -0.9976439476013184 -0.19644999504089355
v 0.3474150002002716 -0.953484058380127 -0.1620440036058426
v 0.3372749984264374 -0.9174849987030029 -0.12190300226211548
v 0.2009049952030182 -0.957353949546814 -0.16459199786186218
v 0.24280500411987305 -1.0021740198135376 -0.3461120128631592
v 0.3913550078868866 -0.924934983253479 -0.2588300108909607
v 0.33645498752593994 -0.9747740030288696 -0.3171760141849518
v 0.21060499548912048 -0.7753750085830688 -0.32879000902175903
v 0.3970550000667572 -0.7181539535522461 -0.11847300082445145
v 0.03748500347137451 -0.7158249616622925 0.2761949896812439
v 0.11304500699043274 -0.7839449644088745 0.3794510066509247
v 0.21030500531196594 -1.0166740417480469 -0.23512600362300873
v 0.08070498704910278 -1.0163450241088867 -0.2712860107421875
v 0.21030500531196594 -1.0166740417480469 -0.23512600362300873
v 0.24280500411987305 -1.0021740198135376 -0.3461120128631592
v 0.21060499548912048 -0.7753750085830688 -0.32879000902175903
v 0.33645498752593994 -0.9747740030288696 -0.3171760141849518
v -0.15722501277923584 -1.29927396774292 -0.33062300086021423
v -0.2922250032424927 -1.3057340383529663 -0.27547499537467957
v -0.3589249849319458 -1.0948950052261353 -0.2890799939632416
v -0.20209497213363647 -1.0454649925231934 -0.3622240126132965
v -0.2922250032424927 -1.3057340383529663 -0.27547499537467957
v -0.291795015335083 -1.3270339965820312 -0.03353499993681908
v -0.2731750011444092 -1.3420339822769165 0.25360700488090515
v -0.043254971504211426 -1.2857340574264526 0.22649100422859192
v -0.07754498720169067 -1.2829049825668335 -0.05266699939966202
v -0.07158499956130981 -1.066825032234192 -0.04704299941658974
v -0.04477500915527344 -1.0773249864578247 0.2633180022239685
v -0.06179499626159668 -1.2712039947509766 -0.2807289958000183
v -0.0666850209236145 -1.0686750411987305 -0.30330899357795715
v -0.01526498794555664 -1.3875750303268433 0.20039600133895874
v -0.04289501905441284 -1.404513955116272 -0.060387998819351196
v -0.0319250226020813 -1.391165018081665 -0.25203099846839905
v -0.07999497652053833 -1.4278349876403809 -0.2879129946231842
v -0.13296502828598022 -1.4327340126037598 -0.27797698974609375
v -0.0666850209236145 -1.0686750411987305 -0.30330899357795715
v -0.06179499626159668 -1.2712039947509766 -0.2807289958000183
v -0.15722501277923584 -1.29927396774292 -0.33062300086021423
v -0.20209497213363647 -1.0454649925231934 -0.3622240126132965
v -0.0319250226020813 -1.391165018081665 -0.25203099846839905
v -0.07999497652053833 -1.4278349876403809 -0.2879129946231842
v -0.0319250226020813 -1.391165018081665 -0.25203099846839905
v -0.04289501905441284 -1.404513955116272 -0.060387998819351196
v -0.07195502519607544 -1.4420150518417358 -0.06229700148105621
v -0.07999497652053833 -1.4278349876403809 -0.2879129946231842
v -0.01526498794555664 -1.3875750303268433 0.20039600133895874
v -0.049004971981048584 -1.4282840490341187 0.21734100580215454
v -0.049004971981048584 -1.4282840490341187 0.21734100580215454
v -0.01526498794555664 -1.3875750303268433 0.20039600133895874
v -0.3082749843597412 -0.854045033454895 -0.2768529951572418
v -0.16129499673843384 -0.872594952583313 -0.36800000071525574
v -0.08823502063751221 -0.7396249771118164 -0.1144689992070198
v -0.3082749843597412 -0.854045033454895 -0.2768529951572418
v 0.12599501013755798 -0.8970750570297241 0.38050198554992676
v 0.11304500699043274 -0.7839449644088745 0.3794510066509247
v 0.2581849992275238 -0.8358139991760254 0.32494500279426575
v 0.23563501238822937 -0.745684027671814 0.33206799626350403
v 0.3386650085449219 -0.7781039476394653 0.23125199973583221
v 0.31475499272346497 -0.7027740478515625 0.2531369924545288
v 0.31475499272346497 -0.7027740478515625 0.2531369924545288
v 0.3386650085449219 -0.7781039476394653 0.23125199973583221
v 0.10240501165390015 -0.9804250001907349 -0.3545140027999878
v 0.08070498704910278 -1.0163450241088867 -0.2712860107421875
v -0.0666850209236145 -1.0686750411987305 -0.30330899357795715
v -0.20209497213363647 -1.0454649925231934 -0.3622240126132965
v 0.10240501165390015 -0.9804250001907349 -0.3545140027999878
v 0.08070498704910278 -1.0163450241088867 -0.2712860107421875
v 0.24012500047683716 -0.3162739872932434 -0.25563299655914307
v 0.36053499579429626 -0.3341140151023865 -0.19972899556159973
v 0.326104998588562 -0.6405450105667114 -0.25650501251220703
v 0.19270500540733337 -0.6219840049743652 -0.31819701194763184
v 0.32960498332977295 0.7909550070762634 -0.16694800555706024
v 0.5093749761581421 0.8332949876785278 -0.16694800555706024
v 0.5093749761581421 0.7398449778556824 -0.3137660026550293
v 0.36433500051498413 0.7024350166320801 -0.3628630042076111
v 0.3626450002193451 0.20299598574638367 0.3628630042076111
v 0.27082499861717224 -0.2102450132369995 0.44045600295066833
v 0.381074994802475 -0.22330498695373535 0.34894898533821106
v 0.5093749761581421 0.25379499793052673 0.3137660026550293
v 0.3242350220680237 -0.9133249521255493 -0.35461100935935974
v 0.43288499116897583 -0.9283649921417236 -0.2100140005350113
v 0.19817501306533813 -0.8958950042724609 -0.2100140005350113
v 0.16313499212265015 -0.8910449743270874 -0.4316070079803467
v -0.027074992656707764 -0.27669501304626465 -0.19524900615215302
v -0.10869497060775757 -0.5800449848175049 -0.25458699464797974
v -0.22184497117996216 -0.5642950534820557 -0.1317089945077896
v -0.1328449845314026 -0.2610350251197815 -0.0738620012998581
v 0.36053499579429626 -0.3341140151023865 -0.19972899556159973
v 0.437624990940094 -0.3455349802970886 -0.07404399663209915
v 0.41421499848365784 -0.6528149843215942 -0.1317870020866394
v 0.326104998588562 -0.6405450105667114 -0.25650501251220703
v 0.5093749761581421 0.5474349856376648 -0.17614200711250305
v 0.5093749761581421 0.18526500463485718 -0.16694800555706024
v 0.5093749761581421 0.25379499793052673 -0.3137660026550293
v 0.5093749761581421 0.5604050159454346 -0.34234198927879333
v 0.5093749761581421 0.5604050159454346 0.331046998500824
v 0.371055006980896 0.4958850145339966 0.38284701108932495
v -0.07738500833511353 0.33280497789382935 -0.17614200711250305
v 0.041864991188049316 0.33513498306274414 -0.3171899914741516
v 0.05974501371383667 0.08680498600006104 -0.2891620099544525
v -0.06822502613067627 0.08680498600006104 -0.16694800555706024
v 0.371055006980896 0.4958850145339966 -0.38284701108932495
v 0.5093749761581421 0.5604050159454346 -0.34234198927879333
v 0.5093749761581421 0.25379499793052673 -0.3137660026550293
v 0.3626450002193451 0.20299500226974487 -0.3628630042076111
v 0.5093749761581421 0.8332949876785278 0.16884399950504303
v 0.32960498332977295 0.7909550070762634 0.16884399950504303
v 0.5093749761581421 0.5487750172615051 0.1781429946422577
v 0.5093749761581421 0.1877950131893158 0.16884399950504303
v 0.437624990940094 -0.3455349802970886 0.2026129961013794
v 0.41421499848365784 -0.6528140306472778 0.1936900019645691
v 0.43288499116897583 -0.9283649921417236 0.2121569961309433
v 0.19817501306533813 -0.8958950042724609 0.2121569961309433
v -0.06822502613067627 0.08680498600006104 0.16884399950504303
v -0.10792499780654907 -0.16316497325897217 -0.08216699957847595
v -0.10792499780654907 -0.16316497325897217 0.21078699827194214
v -0.07738500833511353 0.33280497789382935 0.1781429946422577
v 0.5093749761581421 0.7398459911346436 0.3137660026550293
v 0.36433500051498413 0.7024350166320801 0.3628630042076111
v 0.5093749761581421 0.5604050159454346 0.331046998500824
v 0.5093749761581421 0.25379499793052673 0.3137660026550293
v 0.36053499579429626 -0.3341140151023865 0.35286200046539307
v 0.326104998588562 -0.6405450105667114 0.3278709948062897
v 0.3242350220680237 -0.9133249521255493 0.35461100935935974
v 0.16313499212265015 -0.8910449743270874 0.4316070079803467
v 0.05974501371383667 0.08680498600006104 0.3137660026550293
v -0.0010949969291687012 -0.17631500959396362 0.34314900636672974
v 0.041864991188049316 0.33513498306274414 0.331046998500824
v 0.5501149892807007 0.10644501447677612 0.16884399950504303
v 0.5501149892807007 0.10644501447677612 -0.16694800555706024
v 0.1828249990940094 0.6165649890899658 -0.3628630042076111
v 0.09473499655723572 0.6896849870681763 -0.16694800555706024
v 0.09473499655723572 0.6896849870681763 0.16884399950504303
v 0.1828249990940094 0.6165649890899658 0.3628630042076111
v 0.18954500555992126 0.4186849892139435 0.38284701108932495
v 0.18113499879837036 0.13337498903274536 0.3628630042076111
v 0.09598499536514282 -0.296085000038147 0.40590500831604004
v 0.019315004348754883 -0.5983550548553467 0.38833901286125183
v 0.1847650110721588 -0.6203750371932983 0.38956400752067566
v 0.22254499793052673 -0.3125150203704834 0.4087660014629364
v -0.05766499042510986 -0.8604949712753296 0.4316070079803467
v -0.12350499629974365 -0.8513950109481812 0.2121569961309433
v -0.12350499629974365 -0.8513950109481812 -0.2100140005350113
v -0.05766499042510986 -0.8604949712753296 -0.4316070079803467
v 0.18113499879837036 0.13337498903274536 -0.3628630042076111
v 0.26171499490737915 -0.20863401889801025 -0.26036399602890015
v 0.10224500298500061 -0.1890149712562561 -0.25666001439094543
v 0.18954500555992126 0.4186849892139435 -0.38284701108932495
v 0.07402500510215759 0.5338850021362305 -0.3137660026550293
v -0.03526502847671509 0.5288649797439575 -0.16694800555706024
v -0.03526502847671509 0.5288649797439575 0.16884399950504303
v 0.07402500510215759 0.5338850021362305 0.3137660026550293
v 0.041864991188049316 0.33513498306274414 0.331046998500824
v 0.05974501371383667 0.08680498600006104 0.3137660026550293
v -0.027074992656707764 -0.27669501304626465 0.34838199615478516
v -0.10869497060775757 -0.5800449848175049 0.32595399022102356
v -0.20532500743865967 -0.8400750160217285 0.35461100935935974
v -0.33863502740859985 -0.8216240406036377 0.2121569961309433
v -0.33863502740859985 -0.8216240406036377 -0.2100140005350113
v -0.20532500743865967 -0.8400750160217285 -0.35461100935935974
v 0.05974501371383667 0.08680498600006104 -0.2891620099544525
v -0.0010949969291687012 -0.17631500959396362 -0.19801899790763855
v 0.041864991188049316 0.33513498306274414 -0.3171899914741516
v 0.381074994802475 -0.22330498695373535 -0.20382000505924225
v -0.0010949969291687012 -0.17631500959396362 -0.19801899790763855
v 0.5501149892807007 0.10644501447677612 -0.16694800555706024
v 0.45623499155044556 -0.23255497217178345 -0.08238500356674194
v 0.381074994802475 -0.22330498695373535 -0.20382000505924225
v 0.5093749761581421 0.25379499793052673 -0.3137660026550293
v 0.5501149892807007 0.10644501447677612 0.16884399950504303
v 0.45623499155044556 -0.23255401849746704 0.2110220044851303
v -0.1328449845314026 -0.2610350251197815 0.2024179995059967
v 0.5093749761581421 0.25379499793052673 0.3137660026550293
v 0.381074994802475 -0.22330498695373535 0.34894898533821106
v -0.027074992656707764 -0.27669501304626465 0.34838199615478516
v 0.09477499127388 -0.1876850128173828 0.43675199151039124
v 0.0784049928188324 -0.2923250198364258 -0.2527720034122467
v -0.0010949969291687012 -0.17631500959396362 0.34314900636672974
v -0.027074992656707764 -0.27669501304626465 -0.19524900615215302
v 0.326104998588562 -0.6405450105667114 0.3278709948062897
v 0.36053499579429626 -0.3341140151023865 0.35286200046539307
v -0.22184497117996216 -0.5642939805984497 0.19360600411891937
v -0.10869497060775757 -0.5800449848175049 0.32595399022102356
v 0.011375010013580322 -0.5967450141906738 -0.3169719874858856
v -0.10869497060775757 -0.5800449848175049 -0.25458699464797974
v 0.07402500510215759 0.5338850021362305 -0.3137660026550293
v 0.1828249990940094 0.6165649890899658 -0.3628630042076111
v 0.36433500051498413 0.7024350166320801 -0.3628630042076111
v 0.5093749761581421 0.7398449778556824 -0.3137660026550293
v 0.5093749761581421 0.7398449778556824 -0.3137660026550293
v 0.5093749761581421 0.8332949876785278 -0.16694800555706024
v 0.5093749761581421 0.8332949876785278 0.16884399950504303
v 0.5093749761581421 0.7398459911346436 0.3137660026550293
v 0.5093749761581421 0.7398459911346436 0.3137660026550293
v 0.36433500051498413 0.7024350166320801 0.3628630042076111
v 0.1828249990940094 0.6165649890899658 0.3628630042076111
v 0.07402500510215759 0.5338850021362305 0.3137660026550293
v 0.07402500510215759 0.5338850021362305 0.3137660026550293
v -0.03526502847671509 0.5288649797439575 0.16884399950504303
v -0.03526502847671509 0.5288649797439575 -0.16694800555706024
v 0.07402500510215759 0.5338850021362305 -0.3137660026550293
v 0.442315012216568 -0.799144983291626 -0.1825290024280548
v 0.442315012216568 -0.7991440296173096 0.2132059931755066
v 0.43288499116897583 -0.9283649921417236 0.2121569961309433
v 0.43288499116897583 -0.9283649921417236 -0.2100140005350113
v 0.3383350074291229 -0.7847139835357666 -0.32457199692726135
v 0.3242350220680237 -0.9133249521255493 -0.35461100935935974
v 0.18280500173568726 -0.7631440162658691 -0.39789101481437683
v 0.3383350074291229 -0.7847139835357666 -0.32457199692726135
v 0.3242350220680237 -0.9133249521255493 -0.35461100935935974
v 0.16313499212265015 -0.8910449743270874 -0.4316070079803467
v -0.05766499042510986 -0.8604949712753296 -0.4316070079803467
v -0.02961498498916626 -0.7336850166320801 -0.3972899913787842
v -0.20532500743865967 -0.8400750160217285 -0.35461100935935974
v -0.17108500003814697 -0.714074969291687 -0.3236300051212311
v -0.17108500003814697 -0.714074969291687 -0.3236300051212311
v -0.20532500743865967 -0.8400750160217285 -0.35461100935935974
v -0.33863502740859985 -0.8216240406036377 -0.2100140005350113
v -0.3011450171470642 -0.6960350275039673 -0.1824900060892105
v -0.33863502740859985 -0.8216240406036377 0.2121569961309433
v -0.3011450171470642 -0.6960339546203613 0.21316500008106232
v -0.20532500743865967 -0.8400750160217285 0.35461100935935974
v -0.17108500003814697 -0.7140740156173706 0.35775700211524963
v -0.17108500003814697 -0.7140740156173706 0.35775700211524963
v -0.20532500743865967 -0.8400750160217285 0.35461100935935974
v -0.05766499042510986 -0.8604949712753296 0.4316070079803467
v -0.02572500705718994 -0.7344750165939331 0.43141698837280273
v 0.16313499212265015 -0.8910449743270874 0.4316070079803467
v 0.17890501022338867 -0.7623540163040161 0.4320180118083954
v 0.3242350220680237 -0.9133249521255493 0.35461100935935974
v 0.3383350074291229 -0.7847139835357666 0.3586989939212799
v 0.3383350074291229 -0.7847139835357666 0.3586989939212799
v 0.3242350220680237 -0.9133249521255493 0.35461100935935974

vn -0.46104899048805237 0.9101340174674988 0.19490499794483185
vn -0.41134101152420044 0.93613600730896 0.18260599672794342
vn -0.29314300417900085 0.8912060260772705 0.4457769989967346
vn -0.3975059986114502 0.8224130272865295 0.4944930076599121
vn 0.09735800325870514 0.980201005935669 0.3295849859714508
vn 0.017105000093579292 0.8859900236129761 0.5418739914894104
vn 0.00278700003400445 0.8946400284767151 0.5277389883995056
vn 0.05449400097131729 0.9769039750099182 0.34869199991226196
vn 0.05449400097131729 0.9769039750099182 0.34869199991226196
vn 0.14527499675750732 1.0183980464935303 0.14372900128364563
vn 0.09735800325870514 0.980201005935669 0.3295849859714508
vn 0.4460819959640503 0.9351209998130798 0.07387299835681915
vn 0.5287539958953857 0.8825740218162537 0.14275600016117096
vn 0.455051988363266 0.9161369800567627 0.18032799661159515
vn 0.4449999928474426 0.9354360103607178 0.07637300342321396
vn 0.15440499782562256 0.9150559902191162 -0.4666160047054291
vn 0.2569580078125 0.8899660110473633 -0.46992701292037964
vn -0.05475899949669838 0.8432490229606628 -0.6040120124816895
vn 0.02441900037229061 0.9456989765167236 -0.42890000343322754
vn -0.3687579929828644 0.8199160099029541 -0.5202429890632629
vn -0.1487939953804016 0.7862110137939453 -0.6622909903526306
vn -0.18699799478054047 0.7167490124702454 -0.7281479835510254
vn -0.1819709986448288 0.8876379728317261 -0.5078219771385193
vn -0.475724995136261 0.9109730124473572 -0.1507049947977066
vn -0.321150004863739 0.9582070112228394 -0.24000099301338196
vn -0.5028380155563354 0.9088450074195862 0.007230000104755163
vn -0.5148590207099915 0.9021180272102356 0.0010839999886229634
vn -0.46104899048805237 0.9101340174674988 0.19490499794483185
vn -0.41134101152420044 0.93613600730896 0.18260599672794342
vn 0.6632490158081055 -0.7456799745559692 0.28802698850631714
vn 0.619566023349762 -0.8068670034408569 0.2097650021314621
vn 0.7321860194206238 -0.7226859927177429 0.14326800405979156
vn 0.7666620016098022 -0.682125985622406 0.16072000563144684
vn 0.421425998210907 -0.9449080228805542 0.09190800040960312
vn 0.358366996049881 -0.9748820066452026 0.008706999942660332
vn 0.8198829889297485 -0.5148559808731079 0.3763140141963959
vn 0.7539309859275818 -0.6662909984588623 0.2579590082168579
vn -0.003650000086054206 -1.0386780500411987 0.0056409998796880245
vn -0.00014000000373926014 -1.038699984550476 -0.0006949999951757491
vn 0.07300899922847748 -1.034080982208252 -0.06514500081539154
vn 0.08283799886703491 -1.0331640243530273 -0.06788600236177444
vn 0.1725749969482422 -1.0242160558700562 0.009816999547183514
vn 0.18842799961566925 -1.021446943283081 0.0061240000650286674
vn -0.3166640102863312 -0.09483599662780762 0.9846969842910767
vn -0.18926499783992767 -0.05054600164294243 1.0200599431991577
vn -0.43647500872612 0.012904999777674675 0.9424539804458618
vn -0.3213919997215271 -0.15275000035762787 0.9758440256118774
vn 0.450300008058548 -0.8655340075492859 0.3563399910926819
vn 0.3876020014286041 -0.9635649919509888 -0.01430600043386221
vn 0.4076730012893677 -0.9550529718399048 0.023972999304533005
vn 0.5466279983520508 -0.8431040048599243 0.2631950080394745
vn 0.04630199819803238 -0.03663099929690361 -1.0370210409164429
vn 0.035450998693704605 -0.0430230014026165 -1.0372029542922974
vn 0.03640199825167656 -0.04070400074124336 -1.0372639894485474
vn 0.13159100711345673 0.02738099917769432 -1.029966950416565
vn -1.037471055984497 -0.04655800014734268 -0.019579999148845673
vn -1.0334999561309814 -0.10105600208044052 0.02372400090098381
vn -1.0249170064926147 0.16558599472045898 0.032012999057769775
vn -1.0157150030136108 0.21515099704265594 -0.03050200082361698
vn -1.0330729484558105 -0.09511899948120117 0.05109100043773651
vn -1.0239900350570679 0.15938399732112885 0.07027699798345566
vn 0.38197198510169983 -0.9651579856872559 0.0382779985666275
vn 0.3448620140552521 -0.9796839952468872 0.013666000217199326
vn 0.5172209739685059 -0.7638850212097168 0.4773469865322113
vn 0.3717469871044159 -0.751118004322052 0.6136149764060974
vn 0.450300008058548 -0.8655340075492859 0.3563399910926819
vn 0.5466279983520508 -0.8431040048599243 0.2631950080394745
vn 0.17584699392318726 -0.3959220051765442 0.9440450072288513
vn 0.3011069893836975 -0.34466099739074707 0.9324380159378052
vn -0.15154699981212616 -0.36806198954582214 0.9594069719314575
vn -0.18714700639247894 -0.2917430102825165 0.9791629910469055
vn 0.7321860194206238 -0.7226859927177429 0.14326800405979156
vn 0.619566023349762 -0.8068670034408569 0.2097650021314621
vn 0.9344800114631653 -0.42603498697280884 0.1553640067577362
vn 0.8541179895401001 -0.5909289717674255 0.013507000170648098
vn 0.7666620016098022 -0.682125985622406 0.16072000563144684
vn 0.49801701307296753 -0.9113500118255615 -0.017798999324440956
vn 0.4666750133037567 -0.9277330040931702 -0.020603999495506287
vn 0.6740760207176208 -0.7881510257720947 0.05775900185108185
vn 0.6821380257606506 -0.7792389988899231 0.07982499897480011
vn -0.5138660073280334 -0.902629017829895 0.01005600020289421
vn -0.48694899678230286 -0.917339026927948 -0.01634399965405464
vn -0.5633630156517029 -0.8726509809494019 0.000678999989759177
vn -0.5543580055236816 -0.8777920007705688 0.03263700008392334
vn -0.6467970013618469 -0.8097109794616699 -0.07013600319623947
vn -0.6065859794616699 -0.8426539897918701 -0.029763000085949898
vn 0.5982040166854858 -0.14919300377368927 0.8359370231628418
vn 0.6015409827232361 -0.15074099600315094 0.8332610130310059
vn 0.5871009826660156 -0.11907900124788284 0.848546028137207
vn 0.5793349742889404 -0.1126910001039505 0.8547340035438538
vn 0.9319450259208679 -0.2540299892425537 0.3818970024585724
vn 0.9514210224151611 -0.1607629954814911 0.3845140039920807
vn -0.03150400146842003 -0.7413600087165833 0.7268360257148743
vn 0.17838400602340698 -0.7389780282974243 0.7078059911727905
vn 0.044906001538038254 -0.7175229787826538 0.7496950030326843
vn -0.11122799664735794 -0.768231987953186 0.6901770234107971
vn 0.20853300392627716 0.07206699997186661 -1.0149970054626465
vn 0.6068840026855469 0.38192400336265564 -0.7514809966087341
vn 0.5727149844169617 0.3144330084323883 -0.8074820041656494
vn 0.6206420063972473 0.41128799319267273 -0.7242540121078491
vn 0.6370739936828613 0.44864800572395325 -0.6868399977684021
vn -0.3264159858226776 0.6962990164756775 0.6982250213623047
vn -0.13281700015068054 0.8355559706687927 0.6025810241699219
vn -0.15225699543952942 -0.7962599992752075 0.6493729948997498
vn -0.18169499933719635 -0.79448401927948 0.6439570188522339
vn 0.11794400215148926 -1.0177669525146484 -0.1706950068473816
vn 0.09756000339984894 -1.0286790132522583 -0.10582400113344193
vn 0.25442299246788025 0.11255399882793427 -1.0007489919662476
vn 0.27391499280929565 0.11490699648857117 -0.9953209757804871
vn -0.3418630063533783 -0.31304800510406494 -0.9295309782028198
vn -0.3704090118408203 -0.25420498847961426 -0.9365230202674866
vn -0.425029993057251 -0.04816000163555145 -0.9465349912643433
vn -0.45750200748443604 0.0004189999890513718 -0.9325180053710938
vn -0.9877179861068726 -0.3198220133781433 -0.03201400116086006
vn -0.9842299818992615 -0.3318530023097992 0.007846999913454056
vn -0.9791640043258667 -0.3443889915943146 0.039142999798059464
vn 1.0235860347747803 0.1372929960489273 -0.11099500209093094
vn 1.030040979385376 0.13121099770069122 -0.0264040008187294
vn 1.0381640195846558 -0.004608999937772751 -0.033055998384952545
vn 1.034654974937439 0.023200999945402145 -0.08859200030565262
vn 1.0302530527114868 0.11773499846458435 0.06012900173664093
vn 1.0381560325622559 0.027256999164819717 0.019652999937534332
vn 0.9876480102539062 0.29858699440956116 -0.11956600099802017
vn 0.998412013053894 0.2857620120048523 -0.020274000242352486
vn 0.9991589784622192 0.27209898829460144 0.08087799698114395
vn -0.14090900123119354 -0.39969301223754883 -0.948307991027832
vn -0.20973199605941772 -0.40606600046157837 -0.9327489733695984
vn 0.43118101358413696 -0.05757199972867966 -0.9432209730148315
vn 0.514024019241333 -0.05587799847126007 -0.900862991809845
vn 0.4736100137233734 -0.04666199907660484 -0.9232630133628845
vn 0.40721699595451355 -0.046838998794555664 -0.9543989896774292
vn 0.6387720108032227 -0.036694999784231186 -0.8182430267333984
vn 0.5723009705543518 -0.02676199935376644 -0.8664019703865051
vn 0.6831430196762085 -0.7797489762306213 -0.06484899669885635
vn 0.8213919997215271 -0.6353840231895447 -0.022355999797582626
vn 0.805188000202179 -0.6556100249290466 -0.027326999232172966
vn 0.6626070141792297 -0.7965059876441956 -0.07367300242185593
vn 0.7956050038337708 -0.6669260263442993 -0.03348200023174286
vn 0.792739987373352 -0.6703940033912659 -0.032145000994205475
vn 0.558551013469696 -0.07851599901914597 0.8722119927406311
vn 0.5389310121536255 -0.07851099967956543 0.8844699859619141
vn -0.5062419772148132 0.12012899667024612 -0.8989920020103455
vn -0.5361559987068176 0.09699399769306183 -0.884323000907898
vn -0.475724995136261 0.9109730124473572 -0.1507049947977066
vn -0.321150004863739 0.9582070112228394 -0.24000099301338196
vn 0.14363999664783478 -0.0013889999827370048 1.0287189483642578
vn 0.2087700068950653 0.026520999148488045 1.017156958580017
vn 0.5495309829711914 0.07621099799871445 0.8781260251998901
vn 0.5769789814949036 0.05635099858045578 0.8618680238723755
vn 0.7351729869842529 0.06299000233411789 0.7310619950294495
vn 0.7290059924125671 0.016486000269651413 0.7397140264511108
vn 0.9572460055351257 0.35782599449157715 -0.18584799766540527
vn 0.8530840277671814 0.5924980044364929 -0.009607000276446342
vn 0.1424179971218109 -0.9646710157394409 -0.3578050136566162
vn 0.2563459873199463 -0.9467710256576538 -0.34177398681640625
vn 0.2187259942293167 -0.7895529866218567 -0.6384850144386292
vn 0.17706799507141113 -0.7459099888801575 -0.7008299827575684
vn 0.1424179971218109 -0.9646710157394409 -0.3578050136566162
vn 0.2563459873199463 -0.9467710256576538 -0.34177398681640625
vn 0.22085200250148773 0.04374000057578087 -1.0140060186386108
vn 0.6915330290794373 -0.03954000025987625 -0.7740259766578674
vn 0.6668689846992493 0.2444780021905899 -0.7579010128974915
vn 0.25255998969078064 0.3358199894428253 -0.9499139785766602
vn -0.307547003030777 0.9608809947967529 -0.24702399969100952
vn -0.22976699471473694 0.9755600094795227 -0.27274298667907715
vn 0.03311799839138985 0.6912710070610046 -0.7745609879493713
vn -0.06452400237321854 0.5871880054473877 -0.8543679714202881
vn 0.20199400186538696 -0.010034999810159206 1.0188210010528564
vn 0.3200249969959259 -0.14500899612903595 0.9774730205535889
vn 0.7449190020561218 -0.1481959968805313 0.708541989326477
vn 0.5190420150756836 -0.09655299782752991 0.8945220112800598
vn -0.14231400191783905 -1.0289039611816406 -4.3000000005122274e-05
vn -0.14233900606632233 -1.0289009809494019 -2.4000000848900527e-05
vn -0.14233200252056122 -1.0289020538330078 -1.700000029813964e-05
vn -0.1423339992761612 -1.0289020538330078 -1.2000000424450263e-05
vn -0.614529013633728 0.22869400680065155 -0.8055739998817444
vn -0.5271120071411133 0.45959699153900146 -0.7679979801177979
vn -0.8537489771842957 0.47997498512268066 -0.34588301181793213
vn -0.942376971244812 0.2771089971065521 -0.33768799901008606
vn 0.6915330290794373 -0.03954000025987625 -0.7740259766578674
vn 0.9989740252494812 -0.10543700307607651 -0.26425600051879883
vn 0.9877390265464783 0.1325249969959259 -0.2927570044994354
vn 0.6668689846992493 0.2444780021905899 -0.7579010128974915
vn 1.038699984550476 -0.0 -0.0
vn 0.9989050030708313 0.27609899640083313 0.0696830004453659
vn 1.0353360176086426 0.07569199800491333 0.03533099964261055
vn 1.038699984550476 -0.0 -0.0
vn 0.34230199456214905 0.043914999812841415 0.9796929955482483
vn 0.17447400093078613 0.018897999078035355 1.0237669944763184
vn -0.9695540070533752 0.07084999978542328 -0.36584699153900146
vn -0.6431570053100586 0.0023560000117868185 -0.8156229853630066
vn -0.6043149828910828 -0.13325700163841248 -0.8342329859733582
vn -0.9396479725837708 -0.02328599989414215 -0.44206100702285767
vn 0.14726999402046204 0.00989800039678812 -1.0281590223312378
vn 0.2902419865131378 0.04671100154519081 -0.9962310194969177
vn 0.46832698583602905 -0.20988699793815613 -0.9030590057373047
vn 0.23397700488567352 -0.18905700743198395 -0.9941880106925964
vn -0.2295989990234375 0.9748460054397583 0.27542200684547424
vn -0.3071939945220947 0.9604619741439819 0.2490839958190918
vn 1.038699984550476 -0.0 -0.0
vn 1.0013149976730347 0.2678839862346649 -0.06711799651384354
vn 0.9967449903488159 -0.14038799703121185 0.2562960088253021
vn 0.9941440224647522 0.07144100219011307 0.292356014251709
vn -0.14233900606632233 -1.0289009809494019 2.499999936844688e-05
vn -0.14233200252056122 -1.0289020538330078 1.700000029813964e-05
vn -0.9736289978027344 0.08257099986076355 0.3523139953613281
vn -0.9674630165100098 0.13439199328422546 -0.35334399342536926
vn -0.9456999897956848 0.2244880050420761 0.3662700057029724
vn -0.9774159789085388 0.07667600363492966 0.34303900599479675
vn 0.04355499893426895 0.6694880127906799 0.7929610013961792
vn -0.0494690015912056 0.5790619850158691 0.8608930110931396
vn 1.038699984550476 -0.0 -0.0
vn 1.035194993019104 0.07759600132703781 -0.035339001566171646
vn 0.6783810257911682 -0.11629600077867508 0.7779279947280884
vn 0.6859239935874939 0.059755001217126846 0.7777109742164612
vn -0.14231500029563904 -1.0289039611816406 4.400000034365803e-05
vn -0.1423339992761612 -1.0289020538330078 1.2999999853491317e-05
vn -0.6367049813270569 0.12379500269889832 0.8112829923629761
vn -0.7080379724502563 0.1804870069026947 0.7382439970970154
vn -0.6197550296783447 0.02704799920320511 0.8331080079078674
vn 0.9266890287399292 0.4640839993953705 -0.06908000260591507
vn 0.9212549924850464 0.4744890034198761 0.07104100286960602
vn -0.3888629972934723 0.4676479995250702 -0.8420150279998779
vn -0.6123359799385071 0.7997400164604187 -0.2536900043487549
vn -0.6121649742126465 0.7991719841957092 0.25588300824165344
vn -0.38810399174690247 0.46612200140953064 0.843209981918335
vn -0.19574999809265137 0.026048000901937485 1.0197550058364868
vn -0.20726999640464783 0.09259100258350372 1.0135899782180786
vn -0.28129199147224426 -0.09685000032186508 0.9951850175857544
vn -0.20775100588798523 0.18600299954414368 1.0005700588226318
vn 0.21716000139713287 0.09968099743127823 1.01084303855896
vn 0.1810159981250763 -0.19827799499034882 1.0034029483795166
vn -0.14233200252056122 -1.0289020538330078 2.700000004551839e-05
vn -0.1423500031232834 -1.0289000272750854 9.000000318337698e-06
vn -0.1423500031232834 -1.0289000272750854 -7.999999979801942e-06
vn -0.14233200252056122 -1.0289020538330078 -2.700000004551839e-05
vn -0.19288299977779388 -0.17952999472618103 -1.0047199726104736
vn 0.19847500324249268 -0.20518599450588226 -0.9987009763717651
vn -0.2915070056915283 -0.11748199909925461 -0.9900100231170654
vn -0.2194260060787201 0.014905000105500221 -1.0151489973068237
vn -0.6749510169029236 0.30525898933410645 -0.7281180024147034
vn -0.9057819843292236 0.41431599855422974 -0.2946169972419739
vn -0.9047250151634216 0.41975298523902893 0.290132999420166
vn -0.6655489802360535 0.3235839903354645 0.728859007358551
vn -0.6197550296783447 0.02704799920320511 0.8331080079078674
vn -0.6367049813270569 0.12379500269889832 0.8112829923629761
vn -0.6300479769706726 0.15079399943351746 0.8119099736213684
vn -0.5938310027122498 0.2922250032424927 0.8005409836769104
vn -0.14233900606632233 -1.0289009809494019 7.999999979801942e-06
vn -0.1423809975385666 -1.0288950204849243 -4.999999873689376e-06
vn -0.1423809975385666 -1.0288950204849243 6.000000212225132e-06
vn -0.14233900606632233 -1.0289009809494019 -7.999999979801942e-06
vn -0.6043149828910828 -0.13325700163841248 -0.8342329859733582
vn -0.6446539759635925 -0.005716999992728233 -0.8144239783287048
vn -0.6431570053100586 0.0023560000117868185 -0.8156229853630066
vn 0.65699702501297 -0.2571449875831604 -0.7623180150985718
vn -0.6446539759635925 -0.005716999992728233 -0.8144239783287048
vn 0.9071469902992249 -0.3358910083770752 -0.3783630132675171
vn 0.9694129824638367 -0.25656700134277344 -0.2707580029964447
vn 0.65699702501297 -0.2571449875831604 -0.7623180150985718
vn 0.46832698583602905 -0.20988699793815613 -0.9030590057373047
vn 0.9726899862289429 -0.24334000051021576 0.27121299505233765
vn 0.9798280000686646 -0.20877300202846527 0.2743149995803833
vn -0.957912027835846 0.23571300506591797 0.3251799941062927
vn 0.5190420150756836 -0.09655299782752991 0.8945220112800598
vn 0.7449190020561218 -0.1481959968805313 0.708541989326477
vn -0.6300479769706726 0.15079399943351746 0.8119099736213684
vn -0.3936629891395569 0.003703000023961067 0.9612039923667908
vn -0.24877899885177612 0.14697900414466858 -0.9976990222930908
vn -0.7080379724502563 0.1804870069026947 0.7382439970970154
vn -0.614529013633728 0.22869400680065155 -0.8055739998817444
vn 0.6859239935874939 0.059755001217126846 0.7777109742164612
vn 0.6783810257911682 -0.11629600077867508 0.7779279947280884
vn -0.8872219920158386 0.4143100082874298 0.34652799367904663
vn -0.5938310027122498 0.2922250032424927 0.8005409836769104
vn -0.17484299838542938 0.4155069887638092 -0.935778021812439
vn -0.5271120071411133 0.45959699153900146 -0.7679979801177979
vn -0.6749510169029236 0.30525898933410645 -0.7281180024147034
vn -0.3888629972934723 0.4676479995250702 -0.8420150279998779
vn -0.06452400237321854 0.5871880054473877 -0.8543679714202881
vn 0.03311799839138985 0.6912710070610046 -0.7745609879493713
vn 1.038699984550476 -0.0 -0.0
vn 1.038699984550476 -0.0 -0.0
vn 1.038699984550476 -0.0 -0.0
vn 1.038699984550476 -0.0 -0.0
vn 0.04355499893426895 0.6694880127906799 0.7929610013961792
vn -0.0494690015912056 0.5790619850158691 0.8608930110931396
vn -0.38810399174690247 0.46612200140953064 0.843209981918335
vn -0.6655489802360535 0.3235839903354645 0.728859007358551
vn -0.6655489802360535 0.3235839903354645 0.728859007358551
vn -0.9047250151634216 0.41975298523902893 0.290132999420166
vn -0.9057819843292236 0.41431599855422974 -0.2946169972419739
vn -0.6749510169029236 0.30525898933410645 -0.7281180024147034
vn 0.9825350046157837 0.1328040063381195 -0.30965399742126465
vn 0.9848960041999817 0.06636899709701538 0.3232229948043823
vn 0.9825839996337891 -0.07437200099229813 0.3284730017185211
vn 0.9749789834022522 0.0008839999791234732 -0.35820698738098145
vn 0.6628130078315735 0.2494650036096573 -0.7598310112953186
vn 0.6487799882888794 0.11795999854803085 -0.8025389909744263
vn 0.26143699884414673 0.3460710048675537 -0.9438130259513855
vn 0.6628130078315735 0.2494650036096573 -0.7598310112953186
vn 0.6487799882888794 0.11795999854803085 -0.8025389909744263
vn 0.24373100697994232 0.22298100590705872 -0.9847699999809265
vn -0.19827599823474884 0.3069770038127899 -0.9722909927368164
vn -0.16995400190353394 0.4252089858055115 -0.9323139786720276
vn -0.5601099729537964 0.3495729863643646 -0.8018559813499451
vn -0.5223180055618286 0.46782100200653076 -0.7663059830665588
vn -0.5223180055618286 0.46782100200653076 -0.7663059830665588
vn -0.5601099729537964 0.3495729863643646 -0.8018559813499451
vn -0.8915640115737915 0.3534879982471466 -0.39882099628448486
vn -0.8566359877586365 0.4695909917354584 -0.35292699933052063
vn -0.9321100115776062 0.27530398964881897 0.36643800139427185
vn -0.8839840292930603 0.4006649851799011 0.37005001306533813
vn -0.6234769821166992 0.15543299913406372 0.8160979747772217
vn -0.5822870135307312 0.2950479984283447 0.8079519867897034
vn -0.5822870135307312 0.2950479984283447 0.8079519867897034
vn -0.6234769821166992 0.15543299913406372 0.8160979747772217
vn -0.25166600942611694 0.06160899996757507 1.0058660507202148
vn -0.20689600706100464 0.2066829949617386 0.9966809749603271
vn 0.2219810038805008 -0.03396100178360939 1.0141340494155884
vn 0.23312599956989288 0.12192700058221817 1.004830002784729
vn 0.6587330102920532 -0.0881349965929985 0.7982490062713623
vn 0.6710240244865417 0.06540700048208237 0.7901560068130493
vn 0.6710240244865417 0.06540700048208237 0.7901560068130493
vn 0.6587330102920532 -0.0881349965929985 0.7982490062713623

vt 0.8341259956359863 0.23492002487182617
vt 0.8421919941902161 0.24162602424621582
vt 0.8372169733047485 0.24686497449874878
vt 0.8322979807853699 0.23997199535369873
vt 0.8245720267295837 0.24489301443099976
vt 0.8273389935493469 0.24383199214935303
vt 0.8267959952354431 0.2534880042076111
vt 0.8232690095901489 0.25429701805114746
vt 0.8195989727973938 0.27516400814056396
vt 0.8143569827079773 0.2854459881782532
vt 0.815434992313385 0.2742990255355835
vt 0.8128160238265991 0.29127800464630127
vt 0.8143569827079773 0.2854459881782532
vt 0.8185309767723083 0.2911660075187683
vt 0.8170080184936523 0.29805898666381836
vt 0.8241900205612183 0.35491299629211426
vt 0.8213220238685608 0.34651899337768555
vt 0.828656017780304 0.34092897176742554
vt 0.8300229907035828 0.3524180054664612
vt 0.8356059789657593 0.35225600004196167
vt 0.833154022693634 0.35096901655197144
vt 0.8321139812469482 0.33803898096084595
vt 0.8404449820518494 0.3414199948310852
vt 0.8748149871826172 0.30100899934768677
vt 0.8674049973487854 0.3113679885864258
vt 0.8671560287475586 0.29376697540283203
vt 0.873727023601532 0.2921689748764038
vt 0.8747479915618896 0.28339797258377075
vt 0.8676109910011292 0.2759469747543335
vt 0.8274490237236023 0.2588239908218384
vt 0.829774022102356 0.26746201515197754
vt 0.8249319791793823 0.2690010070800781
vt 0.8234969973564148 0.25995397567749023
vt 0.8268979787826538 0.29755502939224243
vt 0.8269879817962646 0.3042749762535095
vt 0.8226050138473511 0.30212199687957764
vt 0.8230530023574829 0.29487699270248413
vt 0.8462439775466919 0.2978169918060303
vt 0.8474649786949158 0.29792797565460205
vt 0.8479369878768921 0.31155502796173096
vt 0.8463150262832642 0.3112949728965759
vt 0.8459550142288208 0.27993297576904297
vt 0.8472710251808167 0.27898502349853516
vt 0.841746985912323 0.2583659887313843
vt 0.8372169733047485 0.24686497449874878
vt 0.8421919941902161 0.24162602424621582
vt 0.8479629755020142 0.25563400983810425
vt 0.8353750109672546 0.27779799699783325
vt 0.8352370262145996 0.2972319722175598
vt 0.8305749893188477 0.29760199785232544
vt 0.8305860161781311 0.2772790193557739
vt 0.8339849710464478 0.33045899868011475
vt 0.8437250256538391 0.33343201875686646
vt 0.8404449820518494 0.3414199948310852
vt 0.8321139812469482 0.33803898096084595
vt 0.8602629899978638 0.31243598461151123
vt 0.8594520092010498 0.29418498277664185
vt 0.8671560287475586 0.29376697540283203
vt 0.8674049973487854 0.3113679885864258
vt 0.8589980006217957 0.27644801139831543
vt 0.8676109910011292 0.2759469747543335
vt 0.8307330012321472 0.311722993850708
vt 0.8350870013237 0.31366902589797974
vt 0.831695020198822 0.2582719922065735
vt 0.841746985912323 0.2583659887313843
vt 0.8387640118598938 0.2660149931907654
vt 0.833607017993927 0.26604098081588745
vt 0.8472710251808167 0.27898502349853516
vt 0.8459550142288208 0.27993297576904297
vt 0.8458709716796875 0.27095097303390503
vt 0.8498989939689636 0.2676650285720825
vt 0.8242570161819458 0.28656500577926636
vt 0.8276039958000183 0.27937501668930054
vt 0.8170080184936523 0.29805898666381836
vt 0.8185309767723083 0.2911660075187683
vt 0.8215280175209045 0.2777860164642334
vt 0.8244320154190063 0.3079890012741089
vt 0.8231490254402161 0.3149949908256531
vt 0.8208760023117065 0.3103479743003845
vt 0.8228740096092224 0.30570799112319946
vt 0.8472710251808167 0.27898502349853516
vt 0.8530060052871704 0.27730298042297363
vt 0.8533939719200134 0.2962219715118408
vt 0.8474649786949158 0.29792797565460205
vt 0.8538740277290344 0.31140202283859253
vt 0.8479369878768921 0.31155502796173096
vt 0.8387640118598938 0.2660149931907654
vt 0.841746985912323 0.2583659887313843
vt 0.8458709716796875 0.27095097303390503
vt 0.8426309823989868 0.27449697256088257
vt 0.8208760023117065 0.3103479743003845
vt 0.8228740096092224 0.30570799112319946
vt 0.8244320154190063 0.3079890012741089
vt 0.8228740096092224 0.30570799112319946
vt 0.8226050138473511 0.30212199687957764
vt 0.8269879817962646 0.3042749762535095
vt 0.8297690153121948 0.3275349736213684
vt 0.8238440155982971 0.3311520218849182
vt 0.8265979886054993 0.3283569812774658
vt 0.828656017780304 0.34092897176742554
vt 0.8213220238685608 0.34651899337768555
vt 0.8304939866065979 0.24239397048950195
vt 0.8305249810218811 0.25040102005004883
vt 0.827081024646759 0.31014901399612427
vt 0.8307330012321472 0.311722993850708
vt 0.827081024646759 0.31014901399612427
vt 0.8263700008392334 0.31682902574539185
vt 0.828656017780304 0.34092897176742554
vt 0.8265979886054993 0.3283569812774658
vt 0.8463799953460693 0.3198379874229431
vt 0.8507080078125 0.32256197929382324
vt 0.8492950201034546 0.3352689743041992
vt 0.8437250256538391 0.33343201875686646
vt 0.8538740277290344 0.31140202283859253
vt 0.8533939719200134 0.2962219715118408
vt 0.8530060052871704 0.27730298042297363
vt 0.8412650227546692 0.2787439823150635
vt 0.8413739800453186 0.2973160147666931
vt 0.8352370262145996 0.2972319722175598
vt 0.8353750109672546 0.27779799699783325
vt 0.8408849835395813 0.31207001209259033
vt 0.8350870013237 0.31366902589797974
vt 0.8443260192871094 0.2800639867782593
vt 0.8448969721794128 0.2977139949798584
vt 0.8444010019302368 0.31000298261642456
vt 0.8463150262832642 0.3112949728965759
vt 0.8479369878768921 0.31155502796173096
vt 0.8398780226707458 0.3278319835662842
vt 0.8429200053215027 0.31739699840545654
vt 0.8463799953460693 0.3198379874229431
vt 0.8437250256538391 0.33343201875686646
vt 0.8444010019302368 0.31000298261642456
vt 0.8463150262832642 0.3112949728965759
vt 0.8444010019302368 0.31000298261642456
vt 0.8448969721794128 0.2977139949798584
vt 0.8462439775466919 0.2978169918060303
vt 0.8463150262832642 0.3112949728965759
vt 0.8443260192871094 0.2800639867782593
vt 0.8459550142288208 0.27993297576904297
vt 0.8459550142288208 0.27993297576904297
vt 0.8443260192871094 0.2800639867782593
vt 0.8447780013084412 0.347836971282959
vt 0.8404449820518494 0.3414199948310852
vt 0.8371260166168213 0.35822898149490356
vt 0.8447780013084412 0.347836971282959
vt 0.831695020198822 0.2582719922065735
vt 0.8305249810218811 0.25040102005004883
vt 0.8274490237236023 0.2588239908218384
vt 0.8267959952354431 0.2534880042076111
vt 0.8234969973564148 0.25995397567749023
vt 0.8232690095901489 0.25429701805114746
vt 0.8195989727973938 0.27516400814056396
vt 0.8215280175209045 0.2777860164642334
vt 0.8304340243339539 0.31737399101257324
vt 0.8307330012321472 0.311722993850708
vt 0.8398780226707458 0.3278319835662842
vt 0.8437250256538391 0.33343201875686646
vt 0.8339849710464478 0.33045899868011475
vt 0.8350970149040222 0.32568299770355225
vt 0.4658060073852539 0.8366329967975616
vt 0.46675899624824524 0.8748980015516281
vt 0.4438000023365021 0.8748980015516281
vt 0.4420279860496521 0.8412089943885803
vt 0.2122800052165985 0.12602299451828003
vt 0.19549399614334106 0.12550300359725952
vt 0.19549399614334106 0.09025901556015015
vt 0.2127770036458969 0.09025901556015015
vt 0.5066480040550232 0.5396069884300232
vt 0.4749299883842468 0.5418280065059662
vt 0.47578001022338867 0.4997280240058899
vt 0.5121380090713501 0.4997280240058899
vt 0.8129540085792542 0.3590790033340454
vt 0.8129540085792542 0.32631200551986694
vt 0.8315849900245667 0.3264480233192444
vt 0.8342959880828857 0.3590790033340454
vt 0.4671480059623718 0.7498080134391785
vt 0.4444639980792999 0.7498080134391785
vt 0.4423789978027344 0.7141779959201813
vt 0.4662429988384247 0.7038269937038422
vt 0.46602898836135864 0.3748819828033447
vt 0.4657909870147705 0.42004501819610596
vt 0.44284799695014954 0.4122539758682251
vt 0.4435519874095917 0.3748819828033447
vt 0.533486008644104 0.39932799339294434
vt 0.5065770149230957 0.4036579728126526
vt 0.5104299783706665 0.3748819828033447
vt 0.5335630178451538 0.3748819828033447
vt 0.5349500179290771 0.4997280240058899
vt 0.5278400182723999 0.5516520142555237
vt 0.5113589763641357 0.7213590145111084
vt 0.5127120018005371 0.7498080134391785
vt 0.4939900040626526 0.7498080134391785
vt 0.4928959906101227 0.7204180061817169
vt 0.5282549858093262 0.829244002699852
vt 0.5347340106964111 0.8748980015516281
vt 0.5122979879379272 0.8748980015516281
vt 0.5067579746246338 0.8413709998130798
vt 0.19549399614334106 0.18174099922180176
vt 0.21312099695205688 0.18092000484466553
vt 0.5342990159988403 0.4600430130958557
vt 0.507423996925354 0.4590659737586975
vt 0.46649301052093506 0.46785199642181396
vt 0.4437839984893799 0.46956199407577515
vt 0.8129540085792542 0.26556897163391113
vt 0.8317180275917053 0.2657049894332886
vt 0.49266698956489563 0.6562620103359222
vt 0.47387099266052246 0.7056249976158142
vt 0.47390100359916687 0.650083988904953
vt 0.5114859938621521 0.6572000086307526
vt 0.19549399614334106 0.21500498056411743
vt 0.21443399786949158 0.21500498056411743
vt 0.5349500179290771 0.4997280240058899
vt 0.5121380090713501 0.4997280240058899
vt 0.46765801310539246 0.4997280240058899
vt 0.44514399766921997 0.4997280240058899
vt 0.8129540085792542 0.2341499924659729
vt 0.8345680236816406 0.2341499924659729
vt 0.494733989238739 0.6259810030460358
vt 0.47507399320602417 0.6259810030460358
vt 0.5134680271148682 0.6259810030460358
vt 0.5005750060081482 0.4593070149421692
vt 0.5000929832458496 0.40425997972488403
vt 0.23309600353240967 0.09025901556015015
vt 0.23713399469852448 0.12606501579284668
vt 0.23732799291610718 0.1788489818572998
vt 0.2349410057067871 0.21500498056411743
vt 0.5198010206222534 0.5877670049667358
vt 0.4987710118293762 0.5786060094833374
vt 0.46592798829078674 0.5751529932022095
vt 0.44241300225257874 0.579272985458374
vt 0.44332200288772583 0.5407119989395142
vt 0.46623000502586365 0.5456809997558594
vt 0.8520950078964233 0.2341499924659729
vt 0.857250988483429 0.26589202880859375
vt 0.8571180105209351 0.3266350030899048
vt 0.8518229722976685 0.3590790033340454
vt 0.4992170035839081 0.7998100072145462
vt 0.4738599956035614 0.8367470055818558
vt 0.4732060134410858 0.7941409945487976
vt 0.5199570059776306 0.7883370071649551
vt 0.2575950026512146 0.09025901556015015
vt 0.2575950026512146 0.12416297197341919
vt 0.2575950026512146 0.1802229881286621
vt 0.2575950026512146 0.21500498056411743
vt 0.5134680271148682 0.6259810030460358
vt 0.494733989238739 0.6259810030460358
vt 0.46763700246810913 0.6259810030460358
vt 0.44470301270484924 0.6259810030460358
vt 0.8745269775390625 0.2341499924659729
vt 0.8745269775390625 0.26601701974868774
vt 0.8745269775390625 0.3267599940299988
vt 0.8745269775390625 0.3590790033340454
vt 0.4939900040626526 0.7498080134391785
vt 0.4745649993419647 0.7498080134391785
vt 0.5127120018005371 0.7498080134391785
vt 0.47491198778152466 0.8748980015516281
vt 0.4745649993419647 0.7498080134391785
vt 0.5000929832458496 0.40425997972488403
vt 0.473922997713089 0.4179999828338623
vt 0.47404399514198303 0.3748819828033447
vt 0.5104299783706665 0.3748819828033447
vt 0.5005750060081482 0.4593070149421692
vt 0.47493401169776917 0.4685770273208618
vt 0.4665589928627014 0.6515829861164093
vt 0.5121380090713501 0.4997280240058899
vt 0.47578001022338867 0.4997280240058899
vt 0.46763700246810913 0.6259810030460358
vt 0.47409000992774963 0.577877014875412
vt 0.4651400148868561 0.7938749939203262
vt 0.47507399320602417 0.6259810030460358
vt 0.4671480059623718 0.7498080134391785
vt 0.44514399766921997 0.4997280240058899
vt 0.46765801310539246 0.4997280240058899
vt 0.442999005317688 0.6516030132770538
vt 0.44470301270484924 0.6259810030460358
vt 0.4412989914417267 0.7935319989919662
vt 0.4444639980792999 0.7498080134391785
vt 0.5463820099830627 0.7498080134391785
vt 0.5463820099830627 0.77606600522995
vt 0.5463820099830627 0.8181460052728653
vt 0.5463820099830627 0.8748980015516281
vt 0.5463820099830627 0.3748819828033447
vt 0.5463820099830627 0.3996279835700989
vt 0.5463820099830627 0.4572160243988037
vt 0.5463820099830627 0.4997280240058899
vt 0.5463820099830627 0.4997280240058899
vt 0.5463820099830627 0.561928004026413
vt 0.5463820099830627 0.5987080037593842
vt 0.5463820099830627 0.6259810030460358
vt 0.5463820099830627 0.6259810030460358
vt 0.5463820099830627 0.6594470143318176
vt 0.5463820099830627 0.7219020128250122
vt 0.5463820099830627 0.7498080134391785
vt 0.43131300806999207 0.4061930179595947
vt 0.4328550100326538 0.47258901596069336
vt 0.42200198769569397 0.47545701265335083
vt 0.42200198769569397 0.40199100971221924
vt 0.43221500515937805 0.3748819828033447
vt 0.42200198769569397 0.3748819828033447
vt 0.43016600608825684 0.8453650027513504
vt 0.4324429929256439 0.8748980015516281
vt 0.42200198769569397 0.8748980015516281
vt 0.42200198769569397 0.8480039983987808
vt 0.42200198769569397 0.7919789999723434
vt 0.42900899052619934 0.7926339954137802
vt 0.42200198769569397 0.7498080134391785
vt 0.4329400062561035 0.7498080134391785
vt 0.4329400062561035 0.7498080134391785
vt 0.42200198769569397 0.7498080134391785
vt 0.42200198769569397 0.7272019982337952
vt 0.4306640028953552 0.721464991569519
vt 0.42200198769569397 0.6476089954376221
vt 0.4316740036010742 0.6489009857177734
vt 0.42200198769569397 0.6259810030460358
vt 0.43381398916244507 0.6259810030460358
vt 0.43381398916244507 0.6259810030460358
vt 0.42200198769569397 0.6259810030460358
vt 0.42200198769569397 0.5840680003166199
vt 0.4314369857311249 0.5817559957504272
vt 0.42200198769569397 0.5342899858951569
vt 0.4324989914894104 0.5370050072669983
vt 0.42200198769569397 0.4997280240058899
vt 0.43461498618125916 0.4997280240058899
vt 0.43461498618125916 0.4997280240058899
vt 0.42200198769569397 0.4997280240058899

usemtl Material

f 1/1/1 2/2/2 3/3/3
f 3/3/3 4/4/4 1/1/1
f 5/5/5 6/6/6 7/7/7
f 7/7/7 8/8/8 5/5/5
f 9/9/9 10/10/10 11/11/11
f 12/12/12 13/13/13 14/14/14
f 14/14/14 15/15/15 12/12/12
f 16/16/16 17/17/17 18/18/18
f 18/18/18 19/19/19 16/16/16
f 20/20/20 21/21/21 22/22/22
f 22/22/22 23/23/23 20/20/20
f 24/24/24 25/25/25 26/26/26
f 26/26/26 27/27/27 24/24/24
f 28/28/28 27/27/27 26/26/26
f 26/26/26 29/29/29 28/28/28
f 30/30/30 31/31/31 32/32/32
f 32/32/32 33/33/33 30/30/30
f 34/34/34 35/35/35 36/36/36
f 36/36/36 37/37/37 34/34/34
f 38/38/38 39/39/39 40/40/40
f 40/40/40 41/41/41 38/38/38
f 42/42/42 43/43/43 39/39/39
f 39/39/39 38/38/38 42/42/42
f 44/44/44 45/45/45 46/46/46
f 46/46/46 47/47/47 44/44/44
f 48/48/48 49/49/49 50/50/50
f 50/50/50 51/51/51 48/48/48
f 52/52/52 53/53/53 54/54/54
f 54/54/54 55/55/55 52/52/52
f 56/56/56 57/57/57 58/58/58
f 58/58/58 59/59/59 56/56/56
f 60/60/60 61/61/61 58/58/58
f 58/58/58 57/57/57 60/60/60
f 62/62/62 50/50/50 49/49/49
f 49/49/49 63/63/63 62/62/62
f 64/64/64 65/65/65 66/66/66
f 66/66/66 67/67/67 64/64/64
f 68/68/68 69/69/69 70/70/70
f 70/70/70 71/71/71 68/68/68
f 72/72/72 73/73/73 34/34/34
f 34/34/34 37/37/37 72/72/72
f 74/74/74 75/75/75 37/37/37
f 37/37/37 36/36/36 74/74/74
f 72/72/72 37/37/37 75/75/75
f 75/75/75 76/76/76 72/72/72
f 77/77/77 78/78/78 79/79/79
f 79/79/79 80/80/80 77/77/77
f 81/81/81 82/82/82 83/83/83
f 83/83/83 84/84/84 81/81/81
f 83/83/83 85/85/85 86/86/86
f 86/86/86 84/84/84 83/83/83
f 87/87/87 88/88/88 89/89/89
f 89/89/89 90/90/90 87/87/87
f 91/91/91 74/74/74 36/36/36
f 36/36/36 92/92/92 91/91/91
f 93/93/93 94/94/94 95/95/95
f 95/95/95 96/96/96 93/93/93
f 97/97/97 52/52/52 55/55/55
f 98/98/98 99/99/99 100/100/100
f 100/100/100 101/101/101 98/98/98
f 6/6/6 102/102/102 103/103/103
f 103/103/103 7/7/7 6/6/6
f 64/64/64 67/67/67 31/31/31
f 31/31/31 30/30/30 64/64/64
f 73/73/73 51/51/51 50/50/50
f 50/50/50 34/34/34 73/73/73
f 50/50/50 62/62/62 35/35/35
f 35/35/35 34/34/34 50/50/50
f 104/104/104 93/93/93 96/96/96
f 96/96/96 105/105/105 104/104/104
f 106/106/106 107/107/107 78/78/78
f 78/78/78 77/77/77 106/106/106
f 97/97/97 55/55/55 108/108/108
f 108/108/108 109/109/109 97/97/97
f 21/21/21 19/19/19 18/18/18
f 18/18/18 22/22/22 21/21/21
f 110/110/110 111/111/111 112/112/112
f 112/112/112 113/113/113 110/110/110
f 114/114/114 115/115/115 57/57/57
f 57/57/57 56/56/56 114/114/114
f 116/116/116 60/60/60 57/57/57
f 57/57/57 115/115/115 116/116/116
f 70/70/70 44/44/44 47/47/47
f 47/47/47 71/71/71 70/70/70
f 117/117/117 118/118/118 119/119/119
f 119/119/119 120/120/120 117/117/117
f 121/121/121 122/122/122 119/119/119
f 119/119/119 118/118/118 121/121/121
f 123/123/123 124/124/124 118/118/118
f 118/118/118 117/117/117 123/123/123
f 125/125/125 121/121/121 118/118/118
f 118/118/118 124/124/124 125/125/125
f 110/110/110 126/126/126 127/127/127
f 127/127/127 111/111/111 110/110/110
f 128/128/128 129/129/129 130/130/130
f 130/130/130 131/131/131 128/128/128
f 129/129/129 132/132/132 133/133/133
f 133/133/133 130/130/130 129/129/129
f 134/134/134 135/135/135 136/136/136
f 136/136/136 137/137/137 134/134/134
f 138/138/138 139/139/139 136/136/136
f 136/136/136 135/135/135 138/138/138
f 90/90/90 89/89/89 140/140/140
f 140/140/140 141/141/141 90/90/90
f 142/142/142 143/143/143 113/113/113
f 113/113/113 112/112/112 142/142/142
f 144/144/144 20/20/20 23/23/23
f 23/23/23 145/145/145 144/144/144
f 4/4/4 3/3/3 103/103/103
f 103/103/103 102/102/102 4/4/4
f 45/45/45 44/44/44 146/146/146
f 146/146/146 147/147/147 45/45/45
f 147/147/147 146/146/146 148/148/148
f 148/148/148 149/149/149 147/147/147
f 149/149/149 148/148/148 150/150/150
f 150/150/150 151/151/151 149/149/149
f 13/13/13 152/152/152 153/153/153
f 153/153/153 14/14/14 13/13/13
f 154/154/154 107/107/107 106/106/106
f 106/106/106 155/155/155 154/154/154
f 156/156/156 157/157/157 158/158/158
f 158/158/158 159/159/159 156/156/156
f 160/160/160 161/161/161 162/162/162
f 162/162/162 163/163/163 160/160/160
f 164/164/164 165/165/165 166/166/166
f 166/166/166 167/167/167 164/164/164
f 168/168/168 169/169/169 170/170/170
f 170/170/170 171/171/171 168/168/168
f 172/172/172 173/173/173 174/174/174
f 174/174/174 175/175/175 172/172/172
f 176/176/176 177/177/177 178/178/178
f 178/178/178 179/179/179 176/176/176
f 180/180/180 181/181/181 182/182/182
f 182/182/182 183/183/183 180/180/180
f 184/184/184 185/185/185 186/186/186
f 186/186/186 187/187/187 184/184/184
f 171/171/171 188/188/188 189/189/189
f 189/189/189 168/168/168 171/171/171
f 190/190/190 191/191/191 192/192/192
f 192/192/192 193/193/193 190/190/190
f 194/194/194 195/195/195 196/196/196
f 196/196/196 197/197/197 194/194/194
f 198/198/198 165/165/165 164/164/164
f 164/164/164 199/199/199 198/198/198
f 184/184/184 200/200/200 201/201/201
f 201/201/201 185/185/185 184/184/184
f 181/181/181 202/202/202 203/203/203
f 203/203/203 182/182/182 181/181/181
f 173/173/173 204/204/204 205/205/205
f 205/205/205 174/174/174 173/173/173
f 206/206/206 193/193/193 207/207/207
f 207/207/207 208/208/208 206/206/206
f 209/209/209 190/190/190 193/193/193
f 193/193/193 206/206/206 209/209/209
f 210/210/210 198/198/198 199/199/199
f 199/199/199 211/211/211 210/210/210
f 200/200/200 212/212/212 213/213/213
f 213/213/213 201/201/201 200/200/200
f 202/202/202 214/214/214 215/215/215
f 215/215/215 203/203/203 202/202/202
f 205/205/205 204/204/204 216/216/216
f 216/216/216 217/217/217 205/205/205
f 218/218/218 206/206/206 208/208/208
f 208/208/208 219/219/219 218/218/218
f 218/218/218 220/220/220 209/209/209
f 209/209/209 206/206/206 218/218/218
f 213/213/213 221/221/221 201/201/201
f 201/201/201 221/221/221 222/222/222
f 222/222/222 185/185/185 201/201/201
f 222/222/222 186/186/186 185/185/185
f 164/164/164 167/167/167 223/223/223
f 223/223/223 224/224/224 164/164/164
f 225/225/225 199/199/199 164/164/164
f 164/164/164 224/224/224 225/225/225
f 226/226/226 211/211/211 199/199/199
f 199/199/199 225/225/225 226/226/226
f 227/227/227 228/228/228 168/168/168
f 168/168/168 189/189/189 227/227/227
f 229/229/229 230/230/230 231/231/231
f 231/231/231 232/232/232 229/229/229
f 233/233/233 234/234/234 205/205/205
f 205/205/205 217/217/217 233/233/233
f 235/235/235 174/174/174 205/205/205
f 205/205/205 234/234/234 235/235/235
f 236/236/236 175/175/175 174/174/174
f 174/174/174 235/235/235 236/236/236
f 237/237/237 197/197/197 238/238/238
f 238/238/238 239/239/239 237/237/237
f 240/240/240 194/194/194 197/197/197
f 197/197/197 237/237/237 240/240/240
f 224/224/224 223/223/223 241/241/241
f 241/241/241 242/242/242 224/224/224
f 243/243/243 225/225/225 224/224/224
f 224/224/224 242/242/242 243/243/243
f 244/244/244 226/226/226 225/225/225
f 225/225/225 243/243/243 244/244/244
f 245/245/245 246/246/246 228/228/228
f 228/228/228 227/227/227 245/245/245
f 247/247/247 248/248/248 230/230/230
f 230/230/230 229/229/229 247/247/247
f 249/249/249 250/250/250 234/234/234
f 234/234/234 233/233/233 249/249/249
f 251/251/251 235/235/235 234/234/234
f 234/234/234 250/250/250 251/251/251
f 252/252/252 236/236/236 235/235/235
f 235/235/235 251/251/251 252/252/252
f 253/253/253 237/237/237 239/239/239
f 239/239/239 254/254/254 253/253/253
f 255/255/255 240/240/240 237/237/237
f 237/237/237 253/253/253 255/255/255
f 197/197/197 196/196/196 256/256/256
f 256/256/256 238/238/238 197/197/197
f 170/170/170 169/169/169 232/232/232
f 193/193/193 192/192/192 257/257/257
f 257/257/257 207/207/207 193/193/193
f 258/258/258 259/259/259 260/260/260
f 260/260/260 261/261/261 258/258/258
f 262/262/262 263/263/263 259/259/259
f 259/259/259 258/258/258 262/262/262
f 264/264/264 208/208/208 207/207/207
f 207/207/207 179/179/179 264/264/264
f 262/262/262 265/265/265 266/266/266
f 266/266/266 263/263/263 262/262/262
f 267/267/267 219/219/219 208/208/208
f 208/208/208 264/264/264 267/267/267
f 228/228/228 268/268/268 169/169/169
f 169/169/169 168/168/168 228/228/228
f 160/160/160 269/269/269 239/239/239
f 239/239/239 238/238/238 160/160/160
f 246/246/246 270/270/270 268/268/268
f 268/268/268 228/228/228 246/246/246
f 269/269/269 271/271/271 254/254/254
f 254/254/254 239/239/239 269/269/269
f 238/238/238 256/256/256 161/161/161
f 161/161/161 160/160/160 238/238/238
f 207/207/207 257/257/257 176/176/176
f 176/176/176 179/179/179 207/207/207
f 259/259/259 181/181/181 180/180/180
f 180/180/180 260/260/260 259/259/259
f 263/263/263 202/202/202 181/181/181
f 181/181/181 259/259/259 263/263/263
f 266/266/266 214/214/214 202/202/202
f 202/202/202 263/263/263 266/266/266
f 268/268/268 229/229/229 232/232/232
f 232/232/232 169/169/169 268/268/268
f 270/270/270 229/229/229 268/268/268
f 231/231/231 272/272/272 273/273/273
f 273/273/273 232/232/232 231/231/231
f 274/274/274 264/264/264 179/179/179
f 179/179/179 178/178/178 274/274/274
f 275/275/275 267/267/267 264/264/264
f 264/264/264 274/274/274 275/275/275
f 163/163/163 276/276/276 269/269/269
f 269/269/269 160/160/160 163/163/163
f 277/277/277 271/271/271 269/269/269
f 269/269/269 276/276/276 277/277/277
f 247/247/247 229/229/229 270/270/270
f 170/170/170 232/232/232 273/273/273
f 278/278/278 279/279/279 240/240/240
f 240/240/240 255/255/255 278/278/278
f 279/279/279 280/280/280 194/194/194
f 194/194/194 240/240/240 279/279/279
f 280/280/280 281/281/281 195/195/195
f 195/195/195 194/194/194 280/280/280
f 282/282/282 283/283/283 184/184/184
f 184/184/184 187/187/187 282/282/282
f 284/284/284 200/200/200 184/184/184
f 184/184/184 283/283/283 284/284/284
f 285/285/285 212/212/212 200/200/200
f 200/200/200 284/284/284 285/285/285
f 188/188/188 286/286/286 287/287/287
f 287/287/287 189/189/189 188/188/188
f 288/288/288 227/227/227 189/189/189
f 189/189/189 287/287/287 288/288/288
f 289/289/289 245/245/245 227/227/227
f 227/227/227 288/288/288 289/289/289
f 220/220/220 290/290/290 291/291/291
f 291/291/291 209/209/209 220/220/220
f 291/291/291 292/292/292 190/190/190
f 190/190/190 209/209/209 291/291/291
f 292/292/292 293/293/293 191/191/191
f 191/191/191 190/190/190 292/292/292
f 294/294/294 295/295/295 296/296/296
f 296/296/296 297/297/297 294/294/294
f 298/298/298 294/294/294 297/297/297
f 297/297/297 299/299/299 298/298/298
f 300/300/300 301/301/301 302/302/302
f 302/302/302 303/303/303 300/300/300
f 303/303/303 304/304/304 305/305/305
f 305/305/305 300/300/300 303/303/303
f 306/306/306 307/307/307 305/305/305
f 305/305/305 304/304/304 306/306/306
f 308/308/308 309/309/309 310/310/310
f 310/310/310 311/311/311 308/308/308
f 312/312/312 313/313/313 311/311/311
f 311/311/311 310/310/310 312/312/312
f 314/314/314 315/315/315 313/313/313
f 313/313/313 312/312/312 314/314/314
f 316/316/316 317/317/317 318/318/318
f 318/318/318 319/319/319 316/316/316
f 319/319/319 318/318/318 320/320/320
f 320/320/320 321/321/321 319/319/319
f 320/320/320 322/322/322 323/323/323
f 323/323/323 321/321/321 320/320/320
f 295/295/295 324/324/324 325/325/325
f 325/325/325 296/296/296 295/295/295
f 177/177/177 308/308/308 311/311/311
f 311/311/311 178/178/178 177/177/177
f 307/307/307 277/277/277 276/276/276
f 276/276/276 305/305/305 307/307/307
f 300/300/300 305/305/305 276/276/276
f 276/276/276 163/163/163 300/300/300
f 163/163/163 162/162/162 301/301/301
f 301/301/301 300/300/300 163/163/163
f 183/183/183 182/182/182 294/294/294
f 294/294/294 298/298/298 183/183/183
f 182/182/182 203/203/203 295/295/295
f 295/295/295 294/294/294 182/182/182
f 203/203/203 215/215/215 324/324/324
f 324/324/324 295/295/295 203/203/203
f 321/321/321 323/323/323 272/272/272
f 272/272/272 231/231/231 321/321/321
f 230/230/230 319/319/319 321/321/321
f 321/321/321 231/231/231 230/230/230
f 248/248/248 316/316/316 319/319/319
f 319/319/319 230/230/230 248/248/248
f 315/315/315 275/275/275 274/274/274
f 274/274/274 313/313/313 315/315/315
f 313/313/313 274/274/274 178/178/178
f 178/178/178 311/311/311 313/313/313