mtllib 63252810.mtl
o Mesh

v -0.0992400050163269 -0.8335299491882324 0.4420509934425354
v 0.2970399856567383 -0.9779399633407593 0.3528839945793152
v 0.22399002313613892 -0.5780400037765503 0.38612100481987
v -0.03279000520706177 -0.6355799436569214 0.4713220000267029
v -0.2672699987888336 -0.6634199619293213 0.29761800169944763
v -0.2839999794960022 -0.7624800205230713 0.2765049934387207
v -0.21518999338150024 -0.8224300146102905 0.3628480136394501
v -0.16133001446723938 -0.6547499895095825 0.41989898681640625
v -0.3188599944114685 -0.6483399868011475 0.13831700384616852
v -0.3406500220298767 -0.7143100500106812 0.06741400063037872
v -0.23508000373840332 -0.5991599559783936 -0.11148600280284882
v -0.28303998708724976 -0.7023999691009521 -0.2637290060520172
v -0.3406500220298767 -0.7143100500106812 0.06741400063037872
v -0.3188599944114685 -0.6483399868011475 0.13831700384616852
v -0.15819001197814941 -0.5700099468231201 -0.17765699326992035
v -0.20085999369621277 -0.7711299657821655 -0.33486199378967285
v 0.125249981880188 -0.7871600389480591 -0.2648490071296692
v -0.04069000482559204 -0.7948399782180786 -0.35132598876953125
v -0.03279000520706177 -0.544700026512146 -0.2094610035419464
v 0.10339999198913574 -0.5228099822998047 -0.15309099853038788
v 0.3583400249481201 -0.9911999702453613 -0.0302910003811121
v 0.3063099980354309 -0.9779399633407593 -0.22103600203990936
v 0.22478002309799194 -0.5094699859619141 -0.08437100052833557
v 0.2825300097465515 -0.5151000022888184 0.05292399972677231
v 0.3438299894332886 -0.9838800430297852 0.2097260057926178
v 0.28140002489089966 -0.5461599826812744 0.2569260001182556
v -0.23774999380111694 -0.8560700416564941 0.1613990068435669
v -0.15437999367713928 -0.8955399990081787 0.22572800517082214
v -0.2520799934864044 -0.890470027923584 -0.16621699929237366
v -0.1732099950313568 -0.9389200210571289 -0.17495499551296234
v -0.17026999592781067 -0.9116100072860718 0.008429000154137611
v -0.2852500081062317 -0.8139599561691284 0.021341999992728233
v 0.0343400239944458 -1.4283699989318848 -0.10204300284385681
v 0.03688997030258179 -1.375830054283142 -0.15362399816513062
v 0.092739999294281 -1.3814400434494019 -0.1541309952735901
v 0.1010199785232544 -1.4372199773788452 -0.09848000109195709
v 0.0013700127601623535 -1.3616199493408203 0.15869100391864777
v 0.04430001974105835 -1.369320034980774 0.16083799302577972
v 0.030789971351623535 -1.3911199569702148 0.20745700597763062
v -0.01001998782157898 -1.379580020904541 0.2284429967403412
v -0.3255299925804138 0.04144999384880066 -0.11528299748897552
v -0.4339599907398224 -0.02060002088546753 -0.01720600016415119
v -0.4590590000152588 0.07747700810432434 -0.01590299978852272
v -0.38615500926971436 0.14648300409317017 -0.12416800111532211
v -0.4546700119972229 -0.028129994869232178 0.15636099874973297
v -0.4754599928855896 0.06291401386260986 0.14156900346279144
v -0.40797001123428345 0.007759988307952881 0.32389000058174133
v -0.44182801246643066 0.10999700427055359 0.3094879984855652
v -0.4754599928855896 0.06291401386260986 0.14156900346279144
v -0.4546700119972229 -0.028129994869232178 0.15636099874973297
v -0.3146600127220154 0.059350013732910156 0.42346999049186707
v -0.38309600949287415 0.16738200187683105 0.4013209939002991
v -0.049910008907318115 0.20996999740600586 0.37248098850250244
v -0.16546300053596497 0.3972470164299011 0.3562450110912323
v -0.28810200095176697 0.25954002141952515 0.44460299611091614
v -0.19769999384880066 0.12400999665260315 0.4620020091533661
v 0.011409997940063477 0.24393999576568604 0.26713499426841736
v -0.1103219985961914 0.46199798583984375 0.22639499604701996
v -0.049910008907318115 0.20996999740600586 -0.059758998453617096
v -0.16587701439857483 0.3943830132484436 -0.09935399889945984
v -0.10259300470352173 0.4650599956512451 0.027053000405430794
v 0.022360026836395264 0.2518700063228607 0.07437899708747864
v -0.13596999645233154 0.16005998849868774 -0.11457300186157227
v -0.2243799865245819 0.10879001021385193 -0.14927899837493896
v -0.30092698335647583 0.25412899255752563 -0.17390799522399902
v -0.23249399662017822 0.32520100474357605 -0.14697499573230743
v 0.10865002870559692 -1.0859700441360474 0.3832699954509735
v 0.05274999141693115 -1.1561599969863892 0.19756799936294556
v 0.019070029258728027 -1.1437300443649292 0.26377400755882263
v -0.0795699954032898 -0.8837699890136719 0.2483389973640442
v 0.12365001440048218 -1.0450299978256226 -0.2985909879207611
v 0.334850013256073 -1.0877399444580078 -0.04225099831819534
v 0.3003600239753723 -1.126960039138794 -0.12740099430084229
v 0.27696001529693604 -1.1511000394821167 0.2399740070104599
v -0.06630000472068787 -0.9144400358200073 -0.05275199934840202
v -0.06808000802993774 -0.8837499618530273 -0.18660500645637512
v 0.08977001905441284 -1.1513700485229492 -0.10716500133275986
v 0.10865002870559692 -1.0859700441360474 0.3832699954509735
v -0.0992400050163269 -0.8335299491882324 0.4420509934425354
v 0.2031400203704834 -1.3087999820709229 0.2971070110797882
v 0.11501002311706543 -1.2103099822998047 0.34929999709129333
v -0.01001998782157898 -1.379580020904541 0.2284429967403412
v 0.12365001440048218 -1.0450299978256226 -0.2985909879207611
v 0.039929986000061035 -1.119070053100586 -0.24429799616336823
v -0.04069000482559204 -0.7948399782180786 -0.35132598876953125
v -0.2852500081062317 -0.8139599561691284 0.021341999992728233
v -0.2520799934864044 -0.890470027923584 -0.16621699929237366
v -0.3072900176048279 -0.9226100444793701 -0.2573759853839874
v -0.34512001276016235 -0.8926000595092773 -0.3465690016746521
v -0.2990899980068207 -0.9430999755859375 -0.3811039924621582
v -0.26853999495506287 -0.967170000076294 -0.24359700083732605
v 0.19310998916625977 -1.3156700134277344 0.19173699617385864
v 0.2281699776649475 -1.3002500534057617 -0.1423259973526001
v 0.27372002601623535 -1.328570008277893 -0.06803400069475174
v -0.00288999080657959 -1.2609800100326538 0.23706099390983582
v 0.11501002311706543 -1.2103099822998047 0.34929999709129333
v -0.3072900176048279 -0.9226100444793701 -0.2573759853839874
v -0.26853999495506287 -0.967170000076294 -0.24359700083732605
v -0.3072900176048279 -0.9226100444793701 -0.2573759853839874
v -0.21555998921394348 -0.97639000415802 -0.359264999628067
v -0.06808000802993774 -0.8837499618530273 -0.18660500645637512
v -0.18700000643730164 -0.9925199747085571 -0.25698599219322205
v -0.03279000520706177 -0.6355799436569214 0.4713220000267029
v -0.07666000723838806 -0.9036300182342529 0.12521100044250488
v -0.18700000643730164 -0.9925199747085571 -0.25698599219322205
v -0.18700000643730164 -0.9925199747085571 -0.25698599219322205
v -0.37217000126838684 0.38940000534057617 -0.19683100283145905
v -0.442579984664917 0.24423998594284058 -0.13243700563907623
v -0.49970999360084534 0.2653300166130066 -0.23252199590206146
v -0.4996109902858734 0.49421000480651855 -0.32884401082992554
v 0.2861499786376953 -1.0347000360488892 -0.2565769851207733
v 0.20396000146865845 -1.271939992904663 -0.2579819858074188
v 0.08483999967575073 -1.2264399528503418 -0.2785849869251251
v 0.2885199785232544 -1.0786999464035034 0.3629019856452942
v 0.031509995460510254 -1.2696399688720703 0.16649100184440613
v 0.046549975872039795 -1.171839952468872 -0.020231999456882477
v 0.07099002599716187 -1.2561500072479248 -0.12529000639915466
v 0.03130000829696655 -1.279710054397583 -0.054926998913288116
v -0.0051499903202056885 -1.3259199857711792 0.15789400041103363
v -0.037429988384246826 -1.3393000364303589 0.21282699704170227
v 0.018660008907318115 -1.3332699537277222 -0.14128899574279785
v -0.011260002851486206 -1.3910900354385376 -0.08981399983167648
v 0.0671200156211853 -1.3650599718093872 -0.24589599668979645
v 0.01894998550415039 -1.3559600114822388 -0.25505301356315613
v 0.08483999967575073 -1.2264399528503418 -0.2785849869251251
v 0.01587998867034912 -1.2201999425888062 -0.23260599374771118
v 0.01894998550415039 -1.3559600114822388 -0.25505301356315613
v -0.02195999026298523 -1.318120002746582 -0.22198599576950073
v 0.03688997030258179 -1.375830054283142 -0.15362399816513062
v 0.0343400239944458 -1.4283699989318848 -0.10204300284385681
v 0.0013700127601623535 -1.3616199493408203 0.15869100391864777
v -0.024069994688034058 -1.3664300441741943 0.08512499928474426
v 0.013130009174346924 -1.404960036277771 0.0837009996175766
v -0.01001998782157898 -1.379580020904541 0.2284429967403412
v -0.5000699758529663 0.23357000946998596 -0.13652999699115753
v -0.4824199974536896 0.1687600016593933 -0.014689999632537365
v -0.4996800124645233 0.1888200044631958 1.4999999621068127e-05
v -0.49480998516082764 0.14765000343322754 0.12780100107192993
v -0.49970999360084534 0.2653300166130066 0.23255200684070587
v -0.4996800124645233 0.1888200044631958 1.4999999621068127e-05
v -0.49480998516082764 0.14765000343322754 0.12780100107192993
v -0.4733400046825409 0.20515000820159912 0.296083003282547
v -0.44679000973701477 0.2679300010204315 0.3807060122489929
v -0.5000429749488831 0.3716859817504883 0.27737700939178467
v -0.4996100068092346 0.49421000480651855 0.32887300848960876
v -0.37224000692367554 0.3856799900531769 0.42840901017189026
v -0.2730100154876709 0.5715500116348267 0.3411340117454529
v -0.49950098991394043 0.7222300171852112 0.23392599821090698
v -0.22362101078033447 0.6649500131607056 0.18847699463367462
v -0.511879026889801 0.7742229700088501 0.14743299782276154
v -0.49949100613594055 0.7905600070953369 -0.1082329973578453
v -0.2188900113105774 0.6634799838066101 -0.016993999481201172
v -0.2738099992275238 0.5660200119018555 -0.1362060010433197
v -0.49950098991394043 0.7222300171852112 -0.23280000686645508
v -0.3223299980163574 0.4789000153541565 -0.1771319955587387
v -0.49955999851226807 0.6054999828338623 -0.2972640097141266
v 0.3053799867630005 -1.1591299772262573 0.04920699819922447
v 0.328980028629303 -1.1053099632263184 0.16008399426937103
v 0.2417299747467041 -1.3209199905395508 0.1233849972486496
v 0.2283499836921692 -1.3247400522232056 0.01811099983751774
v 0.0674399733543396 -1.4170399904251099 0.08100900053977966
v 0.08262002468109131 -1.3969600200653076 0.009770000353455544
v 0.013130009174346924 -1.404960036277771 0.0837009996175766
v 0.042429983615875244 -1.3874499797821045 0.0037700000684708357
v 0.03307002782821655 -1.340690016746521 0.013104000128805637
v 0.042429983615875244 -1.3874499797821045 0.0037700000684708357
v 0.013660013675689697 -1.2703700065612793 0.12110500037670135
v 0.06189000606536865 -1.2745399475097656 0.042569998651742935
v 0.032379984855651855 -1.1586300134658813 0.13658200204372406
v 0.07981997728347778 -1.1652300357818604 0.05817500129342079
v -0.5000699758529663 0.23357000946998596 -0.13652999699115753
v -0.5 0.4756399989128113 0.10053800046443939
v -0.49970999360084534 0.2653300166130066 -0.23252199590206146
v -0.4996800124645233 0.1888200044631958 1.4999999621068127e-05
v -0.49970999360084534 0.2653300166130066 0.23255200684070587
v -0.5000429749488831 0.3716859817504883 0.27737700939178467
v -0.49950098991394043 0.7222300171852112 0.23392599821090698
v -0.4996100068092346 0.49421000480651855 0.32887300848960876
v -0.49949100613594055 0.7905600070953369 -0.1082329973578453
v -0.511879026889801 0.7742229700088501 0.14743299782276154
v -0.49950098991394043 0.7222300171852112 -0.23280000686645508
v -0.49955999851226807 0.6054999828338623 -0.2972640097141266
v -0.4996109902858734 0.49421000480651855 -0.32884401082992554
v 0.02613002061843872 -0.1545799970626831 -0.15220700204372406
v 0.09318000078201294 -0.36382001638412476 -0.14253899455070496
v -0.013359993696212769 -0.39566999673843384 -0.17618800699710846
v -0.08520999550819397 -0.19574999809265137 -0.1990399956703186
v 0.20162999629974365 -0.09829998016357422 0.0731469988822937
v 0.2572000026702881 -0.33434998989105225 0.07275400310754776
v 0.1876000165939331 -0.3453800082206726 -0.07215499877929688
v 0.12445002794265747 -0.12265002727508545 -0.08656899631023407
v 0.19774997234344482 -0.11606001853942871 0.30005499720573425
v 0.25409001111984253 -0.35579997301101685 0.2840220034122467
v 0.12445002794265747 -0.15094000101089478 0.4276680052280426
v 0.1876000165939331 -0.38669002056121826 0.3999960124492645
v -0.0361500084400177 -0.22395998239517212 0.5341600179672241
v 0.032109975814819336 -0.4438300132751465 0.4954099953174591
v -0.12349000573158264 -0.4822499752044678 0.45721301436424255
v -0.20478999614715576 -0.27599000930786133 0.49042099714279175
v -0.24085000157356262 -0.4968600273132324 0.337568998336792
v -0.3251100182533264 -0.30369001626968384 0.36695799231529236
v -0.37657999992370605 -0.32551002502441406 0.17052599787712097
v -0.28227999806404114 -0.5035899877548218 0.15819300711154938
v -0.24974000453948975 -0.4724400043487549 -0.009444000199437141
v -0.28227999806404114 -0.5035899877548218 0.15819300711154938
v -0.37657999992370605 -0.32551002502441406 0.17052599787712097
v -0.3379899859428406 -0.2916399836540222 -0.01896899938583374
v -0.21301999688148499 -0.2447199821472168 -0.1609649956226349
v -0.13128000497817993 -0.42993998527526855 -0.1434199959039688
v -0.019109994173049927 -0.47519999742507935 -0.1433040052652359
v 0.09469997882843018 -0.4503399729728699 -0.11797799915075302
v 0.1977599859237671 -0.4313200116157532 -0.04966999962925911
v 0.2639099955558777 -0.4260900020599365 0.07930400222539902
v 0.26166999340057373 -0.4474499821662903 0.27016499638557434
v 0.19647002220153809 -0.47780001163482666 0.3734869956970215
v 0.04527002573013306 -0.5205999612808228 0.4577780067920685
v -0.09589999914169312 -0.5505199432373047 0.424560010433197
v 0.04527002573013306 -0.5205999612808228 0.4577780067920685
v -0.20381999015808105 -0.5578500032424927 0.3140830099582672
v -0.2376599907875061 -0.5570199489593506 0.1538269966840744
v -0.21020999550819397 -0.5297399759292603 0.006864999886602163
v -0.2376599907875061 -0.5570199489593506 0.1538269966840744
v -0.12428000569343567 -0.49980002641677856 -0.11506800353527069
v -0.010419994592666626 0.10168999433517456 0.3770129978656769
v -0.1519399881362915 0.024619996547698975 0.46564799547195435
v 0.05014997720718384 0.1338300108909607 0.2725290060043335
v 0.057529985904693604 0.14245998859405518 0.08471199870109558
v -0.010419994592666626 0.1051500141620636 -0.04760900139808655
v -0.0954200029373169 0.0598599910736084 -0.10272900015115738
v -0.18272998929023743 0.013330012559890747 -0.13700799643993378
v -0.28404000401496887 -0.04719001054763794 -0.1036359965801239
v -0.3883399963378906 -0.10074001550674438 -0.0012100000167265534
v -0.41346001625061035 -0.11513000726699829 0.16637299954891205
v -0.41346001625061035 -0.11513000726699829 0.16637299954891205
v -0.36702001094818115 -0.08184999227523804 0.33042699098587036
v -0.27476000785827637 -0.03747999668121338 0.42781099677085876
v 0.01894998550415039 -1.3559600114822388 -0.25505301356315613
v 0.01894998550415039 -1.3559600114822388 -0.25505301356315613
v -0.01001998782157898 -1.379580020904541 0.2284429967403412
v -0.21313399076461792 -0.22591400146484375 -0.1290300041437149
v -0.11403200030326843 -0.13116097450256348 -0.16407400369644165
v -0.34340900182724 -0.22043001651763916 -0.0003929999948013574
v -0.3618910014629364 -0.29954999685287476 0.17322300374507904
v -0.3618910014629364 -0.29954999685287476 0.17322300374507904
v -0.33116501569747925 -0.2290639877319336 0.3522149920463562
v -0.2056789994239807 -0.2502570152282715 0.46351000666618347
v -0.06954601407051086 -0.15126001834869385 0.5036709904670715
v 0.09418100118637085 -0.13256901502609253 0.4063139855861664
v 0.1438869833946228 -0.052317023277282715 0.2899320125579834
v 0.1641029715538025 -0.08534902334213257 0.0838799998164177
v 0.07702600955963135 -0.06119799613952637 -0.061820998787879944
v 0.0037199854850769043 -0.14094901084899902 -0.1222589984536171
v 0.2639099955558777 -0.4260900020599365 0.07930400222539902
v 0.1977599859237671 -0.4313200116157532 -0.04966999962925911
v 0.26166999340057373 -0.4474499821662903 0.27016499638557434
v 0.19647002220153809 -0.47780001163482666 0.3734869956970215
v 0.04527002573013306 -0.5205999612808228 0.4577780067920685
v -0.09589999914169312 -0.5505199432373047 0.424560010433197
v -0.20381999015808105 -0.5578500032424927 0.3140830099582672
v -0.2376599907875061 -0.5570199489593506 0.1538269966840744
v -0.21020999550819397 -0.5297399759292603 0.006864999886602163
v -0.2376599907875061 -0.5570199489593506 0.1538269966840744
v -0.12428000569343567 -0.49980002641677856 -0.11506800353527069
v -0.019109994173049927 -0.47519999742507935 -0.1433040052652359
v 0.09469997882843018 -0.4503399729728699 -0.11797799915075302
v -0.07771998643875122 -0.02003997564315796 -0.0674080029129982
v -0.15814000368118286 -0.055710017681121826 -0.09898500144481659
v 0.0005699992179870605 0.014690011739730835 -0.014918999746441841
v 0.057169973850250244 0.041909992694854736 0.10667800158262253
v 0.05637997388839722 0.03257998824119568 0.275191992521286
v 0.0005699992179870605 0.005430012941360474 0.3721970021724701
v -0.12198001146316528 -0.05185997486114502 0.4542199969291687
v -0.24790000915527344 -0.10597997903823853 0.41975200176239014
v -0.33306998014450073 -0.13533002138137817 0.331743985414505
v -0.3763999938964844 -0.1621999740600586 0.18310199677944183
v -0.34508001804351807 -0.1367499828338623 0.03546600043773651
v -0.3763999938964844 -0.1621999740600586 0.18310199677944183
v -0.2539200186729431 -0.10096997022628784 -0.06860200315713882
v -0.11805400252342224 -0.12012499570846558 -0.19818900525569916
v -0.2291240096092224 -0.22000598907470703 -0.15946200489997864
v -0.37094399333000183 -0.21895498037338257 -0.017678000032901764
v -0.39319100975990295 -0.30125099420547485 0.17403799295425415
v -0.39319100975990295 -0.30125099420547485 0.17403799295425415
v -0.35734301805496216 -0.22805601358413696 0.3715139925479889
v -0.22090700268745422 -0.24611002206802368 0.4940840005874634
v -0.06901401281356812 -0.14128202199935913 0.5384470224380493
v 0.10989201068878174 -0.11559098958969116 0.430978000164032
v 0.16651499271392822 -0.03200799226760864 0.3025610148906708
v 0.18696099519729614 -0.06362897157669067 0.07535800337791443
v 0.09273701906204224 -0.04232800006866455 -0.08541899919509888
v 0.009931027889251709 -0.12575501203536987 -0.152211993932724
v -0.11403200030326843 -0.13116097450256348 -0.16407400369644165
v -0.21313399076461792 -0.22591400146484375 -0.1290300041437149
v -0.34340900182724 -0.22043001651763916 -0.0003929999948013574
v -0.3618910014629364 -0.29954999685287476 0.17322300374507904
v -0.3618910014629364 -0.29954999685287476 0.17322300374507904
v -0.33116501569747925 -0.2290639877319336 0.3522149920463562
v -0.2056789994239807 -0.2502570152282715 0.46351000666618347
v -0.06954601407051086 -0.15126001834869385 0.5036709904670715
v 0.09418100118637085 -0.13256901502609253 0.4063139855861664
v 0.1438869833946228 -0.052317023277282715 0.2899320125579834
v 0.1641029715538025 -0.08534902334213257 0.0838799998164177
v 0.07702600955963135 -0.06119799613952637 -0.061820998787879944
v 0.0037199854850769043 -0.14094901084899902 -0.1222589984536171

vn -0.3149070143699646 -0.4475109875202179 0.8369989991188049
vn 0.7114089727401733 -0.03872700035572052 0.7017099857330322
vn 0.6476820111274719 0.11053100228309631 0.7538509964942932
vn -0.026246000081300735 -0.00950200017541647 0.9996100068092346
vn -0.851203978061676 0.25064998865127563 0.4611150026321411
vn -0.8855800032615662 -0.2937979996204376 0.35976698994636536
vn -0.6472150087356567 -0.5544040203094482 0.5232099890708923
vn -0.5947020053863525 0.14655199646949768 0.7904760241508484
vn -0.9075959920883179 0.39938101172447205 0.12947900593280792
vn -0.9990969896316528 -0.032218001782894135 -0.02769000083208084
vn -0.7209410071372986 0.6484770178794861 -0.24437899887561798
vn -0.7422789931297302 0.47832000255584717 -0.46928900480270386
vn -0.9990969896316528 -0.032218001782894135 -0.02769000083208084
vn -0.9075959920883179 0.39938101172447205 0.12947900593280792
vn -0.4336479902267456 0.6976220011711121 -0.5703269839286804
vn -0.13878899812698364 0.4061279892921448 -0.9032149910926819
vn 0.44297900795936584 0.2832129895687103 -0.8506230115890503
vn 0.18140099942684174 0.025400999933481216 -0.9830809831619263
vn -0.0005119999987073243 0.6043260097503662 -0.796737015247345
vn 0.31491801142692566 0.44249698519706726 -0.8396559953689575
vn 0.9940429925918579 -0.02883799932897091 -0.105103999376297
vn 0.7946569919586182 0.12298999726772308 -0.5944690108299255
vn 0.6997979879379272 0.38682499527931213 -0.6005409955978394
vn 0.9533299803733826 0.23468199372291565 -0.18996399641036987
vn 0.9788939952850342 -0.07019399851560593 0.19193600118160248
vn 0.9551950097084045 0.16231000423431396 0.24750299751758575
vn -0.6720690131187439 -0.7246659994125366 0.1522579938173294
vn -0.24444299936294556 -0.9347929954528809 0.25770100951194763
vn -0.8030790090560913 -0.4875989854335785 0.3425059914588928
vn 0.02334900014102459 -0.9352620244026184 0.3531860113143921
vn -0.30918100476264954 -0.9448050260543823 0.1084040030837059
vn -0.8241789937019348 -0.5662220120429993 0.011006999760866165
vn -0.38267698884010315 -0.8974599838256836 -0.21936999261379242
vn -0.5309000015258789 -0.7477830052375793 -0.39870598912239075
vn 0.23478899896144867 -0.8230819702148438 -0.5171170234680176
vn 0.20864899456501007 -0.9579520225524902 -0.19696199893951416
vn -0.7128580212593079 -0.7010790109634399 -0.017955999821424484
vn 0.07792499661445618 -0.9916300177574158 0.10294199734926224
vn 0.026125000789761543 -0.999288022518158 0.027219999581575394
vn -0.558987021446228 -0.7162349820137024 0.4177809953689575
vn -0.38512200117111206 -0.2704949975013733 -0.8823339939117432
vn -0.7964680194854736 -0.3579980134963989 -0.4873160123825073
vn -0.8659560084342957 -0.2495719939470291 -0.43339699506759644
vn -0.47507598996162415 -0.32325199246406555 -0.8184199929237366
vn -0.9414669871330261 -0.3250260055065155 0.08943500369787216
vn -0.9728059768676758 -0.22022999823093414 0.07174500077962875
vn -0.8117920160293579 -0.25395798683166504 0.5258319973945618
vn -0.8575289845466614 -0.2342430055141449 0.4580110013484955
vn -0.9728059768676758 -0.22022999823093414 0.07174500077962875
vn -0.9414669871330261 -0.3250260055065155 0.08943500369787216
vn -0.48275500535964966 -0.13265499472618103 0.8656499981880188
vn -0.5664700269699097 -0.1822810024023056 0.8036699891090393
vn 0.5845130085945129 0.3334049880504608 0.7397210001945496
vn 0.5247690081596375 0.3981499969959259 0.7523919939994812
vn -0.019950000569224358 0.11615400016307831 0.9930310249328613
vn 0.06366900354623795 0.1185780018568039 0.990900993347168
vn 0.8501759767532349 0.4164679944515228 0.32210999727249146
vn 0.8070570230484009 0.5086089968681335 0.2999579906463623
vn 0.6757829785346985 0.21057899296283722 -0.7063810229301453
vn 0.6353369951248169 0.2408740073442459 -0.7337080240249634
vn 0.8512660264968872 0.4440099895000458 -0.27964499592781067
vn 0.9014829993247986 0.3682059943675995 -0.22749300301074982
vn 0.42684799432754517 0.06812100112438202 -0.9017540216445923
vn 0.0880270004272461 -0.09755600243806839 -0.9913290143013
vn 0.05826500058174133 -0.1292479932308197 -0.9898989796638489
vn 0.4202069938182831 0.07019200176000595 -0.904708981513977
vn -0.2657420039176941 -0.24748000502586365 0.931738018989563
vn -0.9926850199699402 -0.07325799763202667 -0.09596499800682068
vn -0.9614059925079346 -0.16011500358581543 0.22374500334262848
vn -0.5070229768753052 -0.8273389935493469 0.24174199998378754
vn -0.06450500339269638 -0.03661699965596199 -0.9972450137138367
vn 0.9693869948387146 -0.22835400700569153 -0.09023699909448624
vn 0.9185640215873718 -0.24719299376010895 -0.3084399998188019
vn 0.9008359909057617 -0.3625580072402954 0.23884400725364685
vn -0.46469101309776306 -0.8849740028381348 -0.029702000319957733
vn -0.12818799912929535 -0.939437985420227 -0.3178440034389496
vn -0.9890940189361572 -0.12757299840450287 -0.07361000031232834
vn -0.2657420039176941 -0.24748000502586365 0.931738018989563
vn -0.3149070143699646 -0.4475109875202179 0.8369989991188049
vn 0.5235549807548523 -0.6814969778060913 0.5113239884376526
vn -0.2671490013599396 -0.30567100644111633 0.9138910174369812
vn -0.558987021446228 -0.7162349820137024 0.4177809953689575
vn -0.06450500339269638 -0.03661699965596199 -0.9972450137138367
vn -0.8928449749946594 -0.0733880028128624 -0.44434499740600586
vn 0.18140099942684174 0.025400999933481216 -0.9830809831619263
vn -0.8241789937019348 -0.5662220120429993 0.011006999760866165
vn -0.8030790090560913 -0.4875989854335785 0.3425059914588928
vn -0.8880329728126526 -0.2740660011768341 0.3691680133342743
vn -0.9275839924812317 -0.006105999927967787 -0.3735649883747101
vn -0.4225330054759979 -0.446833997964859 -0.7885469794273376
vn -0.512408971786499 -0.7874889969825745 0.34248799085617065
vn 0.5921210050582886 -0.7687439918518066 0.2417130023241043
vn 0.6931639909744263 -0.5460569858551025 -0.4704729914665222
vn 0.7921079993247986 -0.6012769937515259 -0.10502800345420837
vn -0.9496909976005554 0.22225600481033325 0.22065599262714386
vn -0.2671490013599396 -0.30567100644111633 0.9138910174369812
vn -0.8880329728126526 -0.2740660011768341 0.3691680133342743
vn -0.512408971786499 -0.7874889969825745 0.34248799085617065
vn -0.8880329728126526 -0.2740660011768341 0.3691680133342743
vn 0.17607499659061432 -0.7252010107040405 -0.6656429767608643
vn -0.12818799912929535 -0.939437985420227 -0.3178440034389496
vn 0.26144999265670776 -0.9613990187644958 0.08577100187540054
vn -0.026246000081300735 -0.00950200017541647 0.9996100068092346
vn -0.512660026550293 -0.8571860194206238 0.04910799860954285
vn 0.26144999265670776 -0.9613990187644958 0.08577100187540054
vn 0.26144999265670776 -0.9613990187644958 0.08577100187540054
vn 0.43018800020217896 -0.21611100435256958 -0.8764899969100952
vn -0.013766000047326088 -0.6744099855422974 -0.738228976726532
vn -0.3836970031261444 -0.6383789777755737 -0.6672700047492981
vn -0.3680190145969391 -0.019228000193834305 -0.9296190142631531
vn 0.6557570099830627 0.05079299956560135 -0.7532619833946228
vn 0.549934983253479 -0.45392000675201416 -0.7010899782180786
vn -0.2118619978427887 -0.07260700315237045 -0.9745990037918091
vn 0.7228090167045593 -0.1595280021429062 0.6723830103874207
vn -0.9289109706878662 0.3686630129814148 -0.03481600061058998
vn -0.9939370155334473 -0.10956799983978271 0.009170999750494957
vn -0.9344030022621155 0.34605300426483154 0.0844929963350296
vn -0.9517139792442322 0.306863009929657 -0.008698999881744385
vn -0.9617919921875 0.2376910001039505 -0.1358650028705597
vn -0.9866089820861816 -0.06848900020122528 0.14802800118923187
vn -0.9880689978599548 0.14298999309539795 0.05721500143408775
vn -0.9460129737854004 -0.31972700357437134 -0.05324399843811989
vn 0.15810200572013855 -0.7736870050430298 -0.6135240197181702
vn -0.43183499574661255 -0.5796170234680176 -0.6910589933395386
vn -0.2118619978427887 -0.07260700315237045 -0.9745990037918091
vn -0.9361799955368042 0.23950399458408356 -0.25730299949645996
vn -0.43183499574661255 -0.5796170234680176 -0.6910589933395386
vn -0.9831069707870483 -0.07530000060796738 -0.16682499647140503
vn -0.5309000015258789 -0.7477830052375793 -0.39870598912239075
vn -0.38267698884010315 -0.8974599838256836 -0.21936999261379242
vn -0.7128580212593079 -0.7010790109634399 -0.017955999821424484
vn -0.9534450173377991 -0.2081490010023117 -0.21821199357509613
vn -0.5149149894714355 -0.8565750122070312 -0.03377699851989746
vn -0.558987021446228 -0.7162349820137024 0.4177809953689575
vn -0.6598780155181885 -0.6889790296554565 -0.2997809946537018
vn -0.8202430009841919 -0.4649899899959564 -0.33314499258995056
vn -0.9482709765434265 -0.30598801374435425 -0.08458200097084045
vn -0.9812560081481934 -0.18716099858283997 0.045910000801086426
vn -0.9836639761924744 -0.09294600039720535 0.15416499972343445
vn -0.9482709765434265 -0.30598801374435425 -0.08458200097084045
vn -0.9812560081481934 -0.18716099858283997 0.045910000801086426
vn -0.9084950089454651 -0.2064169943332672 0.3633570075035095
vn -0.7294530272483826 -0.08997499942779541 0.6780880093574524
vn -0.9588239789009094 -0.050717998296022415 0.27943798899650574
vn -0.7822319865226746 0.14972800016403198 0.6047260165214539
vn -0.24180200695991516 0.20387700200080872 0.9486650228500366
vn 0.2990669906139374 0.5459420084953308 0.7826279997825623
vn -0.5613800287246704 0.587365984916687 0.5829690098762512
vn 0.5934129953384399 0.7542229890823364 0.2810850143432617
vn -0.5659850239753723 0.7934510111808777 0.22382299602031708
vn -0.4246230125427246 0.8613970279693604 -0.27873098850250244
vn 0.6691229939460754 0.677278995513916 -0.30588799715042114
vn 0.6153470277786255 0.3325999975204468 -0.7146509885787964
vn -0.38132500648498535 0.6688479781150818 -0.6381490230560303
vn 0.5355299711227417 0.0392410010099411 -0.8436040282249451
vn -0.4173569977283478 0.31934699416160583 -0.8507819771766663
vn 0.9493970274925232 -0.308569997549057 0.05856499820947647
vn 0.9672020077705383 -0.23250499367713928 0.10228700190782547
vn 0.7213289737701416 -0.6669430136680603 0.1867389976978302
vn 0.6759909987449646 -0.7165150046348572 0.1721709966659546
vn 0.08794599771499634 -0.9904289841651917 0.10637400299310684
vn 0.1327809989452362 -0.9883340001106262 0.07460200041532516
vn -0.5149149894714355 -0.8565750122070312 -0.03377699851989746
vn -0.6794710159301758 -0.727154016494751 0.09780699759721756
vn -0.9879810214042664 0.14258499443531036 -0.05968799814581871
vn -0.6794710159301758 -0.727154016494751 0.09780699759721756
vn -0.930849015712738 0.3513219952583313 -0.1004600003361702
vn -0.9455419778823853 0.2984499931335449 -0.12991799414157867
vn -0.987492024898529 -0.13461999595165253 -0.08208300173282623
vn -0.9896249771118164 -0.11413100361824036 -0.08726999908685684
vn -0.6598780155181885 -0.6889790296554565 -0.2997809946537018
vn -0.9999780058860779 -0.006591999903321266 9.999999747378752e-05
vn -0.3836970031261444 -0.6383789777755737 -0.6672700047492981
vn -0.9482709765434265 -0.30598801374435425 -0.08458200097084045
vn -0.9836639761924744 -0.09294600039720535 0.15416499972343445
vn -0.9588239789009094 -0.050717998296022415 0.27943798899650574
vn -0.5613800287246704 0.587365984916687 0.5829690098762512
vn -0.7822319865226746 0.14972800016403198 0.6047260165214539
vn -0.4246230125427246 0.8613970279693604 -0.27873098850250244
vn -0.5659850239753723 0.7934510111808777 0.22382299602031708
vn -0.38132500648498535 0.6688479781150818 -0.6381490230560303
vn -0.4173569977283478 0.31934699416160583 -0.8507819771766663
vn -0.3680190145969391 -0.019228000193834305 -0.9296190142631531
vn 0.22394900023937225 0.5636439919471741 -0.7950800061225891
vn 0.471327006816864 -0.06570900231599808 -0.8795080184936523
vn 0.10005100071430206 -0.2102150022983551 -0.9725220203399658
vn -0.02258400060236454 0.22431300580501556 -0.9742559790611267
vn 0.7297469973564148 0.6585829854011536 -0.18367800116539001
vn 0.9663439989089966 0.13879899680614471 -0.21659700572490692
vn 0.7612860202789307 0.03835099935531616 -0.6472809910774231
vn 0.6052529811859131 0.4447300136089325 -0.6602150201797485
vn 0.8306859731674194 0.4594449996948242 0.31443798542022705
vn 0.9508270025253296 0.114996999502182 0.28758400678634644
vn 0.5008909702301025 0.5257620215415955 0.6875180006027222
vn 0.7192180156707764 -0.018871000036597252 0.6945279836654663
vn 0.12122900038957596 0.1538340002298355 0.9806320071220398
vn 0.22726300358772278 -0.24783200025558472 0.9417700171470642
vn -0.38417699933052063 -0.4072979986667633 0.8285629749298096
vn -0.5557000041007996 0.08986599743366241 0.8265119791030884
vn -0.73921799659729 -0.49455198645591736 0.45713698863983154
vn -0.8392630219459534 -0.1645449995994568 0.5182309746742249
vn -0.9996110200881958 -0.01986600086092949 0.01955999992787838
vn -0.8355720043182373 -0.5485649704933167 -0.029942000284790993
vn -0.7423980236053467 -0.4813399910926819 -0.4660010039806366
vn -0.8355720043182373 -0.5485649704933167 -0.029942000284790993
vn -0.9996110200881958 -0.01986600086092949 0.01955999992787838
vn -0.8642780184745789 -0.15255500376224518 -0.47932299971580505
vn -0.5796809792518616 0.2336750030517578 -0.7806190252304077
vn -0.3993169963359833 -0.3249329924583435 -0.8573009967803955
vn -0.008406000211834908 0.16562700271606445 -0.9861530065536499
vn 0.39938798546791077 0.10935500264167786 -0.9102370142936707
vn 0.7548379898071289 0.20037899911403656 -0.6245549917221069
vn 0.9686099886894226 0.15338200330734253 -0.19562600553035736
vn 0.9507489800453186 0.0901079997420311 0.29657700657844543
vn 0.7083359956741333 0.05730599910020828 0.7035459876060486
vn 0.2298949956893921 -0.17412300407886505 0.9575120210647583
vn -0.4477179944515228 -0.10780899971723557 0.8876519799232483
vn 0.2298949956893921 -0.17412300407886505 0.9575120210647583
vn -0.8622519969940186 -0.10010399669408798 0.4964889883995056
vn -0.9981750249862671 0.024893999099731445 0.05501599982380867
vn -0.9295129776000977 0.03206700086593628 -0.36739200353622437
vn -0.9981750249862671 0.024893999099731445 0.05501599982380867
vn -0.5766990184783936 0.21892400085926056 -0.787077009677887
vn 0.675150990486145 0.15838900208473206 0.7204750180244446
vn 0.14016500115394592 -0.0002099999983329326 0.9901279807090759
vn 0.9352899789810181 0.19928300380706787 0.29243600368499756
vn 0.9652389883995056 0.1379839926958084 -0.22197799384593964
vn 0.7370929718017578 0.03241400048136711 -0.6750140190124512
vn 0.4907189905643463 -0.08322399854660034 -0.8673340082168579
vn 0.16256700456142426 -0.23683999478816986 -0.957850992679596
vn -0.2669549882411957 -0.4501810073852539 -0.8520990014076233
vn -0.5997059941291809 -0.6656839847564697 -0.4440920054912567
vn -0.8420119881629944 -0.537617027759552 0.04454899951815605
vn -0.8420119881629944 -0.537617027759552 0.04454899951815605
vn -0.7521650195121765 -0.3807249963283539 0.53786301612854
vn -0.4351649880409241 -0.21461600065231323 0.8743979930877686
vn -0.43183499574661255 -0.5796170234680176 -0.6910589933395386
vn -0.43183499574661255 -0.5796170234680176 -0.6910589933395386
vn -0.558987021446228 -0.7162349820137024 0.4177809953689575
vn -0.5123140215873718 -0.16669100522994995 -0.8424659967422485
vn 0.2249010056257248 -0.5445079803466797 -0.808040976524353
vn -0.4575920104980469 -0.7855039834976196 -0.41664499044418335
vn -0.907118022441864 -0.42004600167274475 0.02641800045967102
vn -0.907118022441864 -0.42004600167274475 0.02641800045967102
vn -0.4508560001850128 -0.8067929744720459 0.3818559944629669
vn -0.5453510284423828 -0.2912429869174957 0.7859839797019958
vn 0.36872899532318115 -0.5140960216522217 0.7744320034980774
vn 0.7182499766349792 0.14590999484062195 0.6803140044212341
vn 0.9537410140037537 -0.24053800106048584 0.1803320050239563
vn 0.9407709836959839 0.2725889980792999 -0.20160900056362152
vn 0.7851769924163818 -0.30087798833847046 -0.5412669777870178
vn 0.4263010025024414 0.22197699546813965 -0.8769230246543884
vn 0.9686099886894226 0.15338200330734253 -0.19562600553035736
vn 0.7548379898071289 0.20037899911403656 -0.6245549917221069
vn 0.9507489800453186 0.0901079997420311 0.29657700657844543
vn 0.7083359956741333 0.05730599910020828 0.7035459876060486
vn 0.2298949956893921 -0.17412300407886505 0.9575120210647583
vn -0.4477179944515228 -0.10780899971723557 0.8876519799232483
vn -0.8622519969940186 -0.10010399669408798 0.4964889883995056
vn -0.9981750249862671 0.024893999099731445 0.05501599982380867
vn -0.9295129776000977 0.03206700086593628 -0.36739200353622437
vn -0.9981750249862671 0.024893999099731445 0.05501599982380867
vn -0.5766990184783936 0.21892400085926056 -0.787077009677887
vn -0.008406000211834908 0.16562700271606445 -0.9861530065536499
vn 0.39938798546791077 0.10935500264167786 -0.9102370142936707
vn 0.35058900713920593 0.3117449879646301 -0.8831210136413574
vn -0.07256399840116501 0.22852100431919098 -0.9708309769630432
vn 0.5806549787521362 0.4701229929924011 -0.6646990180015564
vn 0.8711749911308289 0.4555929899215698 -0.18300099670886993
vn 0.7819250226020813 0.5435919761657715 0.30512499809265137
vn 0.5456179976463318 0.4216899871826172 0.7242090106010437
vn -9.500000305706635e-05 0.3348209857940674 0.9422820210456848
vn -0.5299720168113708 0.07078800350427628 0.8450559973716736
vn -0.8572840094566345 -0.018679000437259674 0.5145050287246704
vn -0.9790279865264893 -0.19113899767398834 0.07049600034952164
vn -0.8769599795341492 -0.25984400510787964 -0.4042550027370453
vn -0.9790279865264893 -0.19113899767398834 0.07049600034952164
vn -0.5160689949989319 -0.09007500112056732 -0.8517979979515076
vn 0.055364999920129776 0.004953000228852034 -0.9984539747238159
vn -0.26148998737335205 -0.5160220265388489 -0.8156859874725342
vn -0.7817760109901428 -0.37964901328086853 -0.4946649968624115
vn -0.6777409911155701 -0.7353010177612305 -7.599999662488699e-05
vn -0.6777409911155701 -0.7353010177612305 -7.599999662488699e-05
vn -0.7604339718818665 -0.42110300064086914 0.49438101053237915
vn -0.2511799931526184 -0.5752429962158203 0.7784630060195923
vn 0.20924100279808044 -0.13036799430847168 0.9691349864006042
vn 0.7602949738502502 -0.17815400660037994 0.6246700286865234
vn 0.938414990901947 0.20270800590515137 0.2797960042953491
vn 0.9718080163002014 -0.028606999665498734 -0.23403100669384003
vn 0.6976410150527954 0.20677900314331055 -0.685958981513977
vn 0.5052000284194946 -0.2643679976463318 -0.82151198387146
vn 0.2249010056257248 -0.5445079803466797 -0.808040976524353
vn -0.5123140215873718 -0.16669100522994995 -0.8424659967422485
vn -0.4575920104980469 -0.7855039834976196 -0.41664499044418335
vn -0.907118022441864 -0.42004600167274475 0.02641800045967102
vn -0.907118022441864 -0.42004600167274475 0.02641800045967102
vn -0.4508560001850128 -0.8067929744720459 0.3818559944629669
vn -0.5453510284423828 -0.2912429869174957 0.7859839797019958
vn 0.36872899532318115 -0.5140960216522217 0.7744320034980774
vn 0.7182499766349792 0.14590999484062195 0.6803140044212341
vn 0.9537410140037537 -0.24053800106048584 0.1803320050239563
vn 0.9407709836959839 0.2725889980792999 -0.20160900056362152
vn 0.7851769924163818 -0.30087798833847046 -0.5412669777870178
vn 0.4263010025024414 0.22197699546813965 -0.8769230246543884

vt 0.827360987663269 0.9015069976449013
vt 0.7881199717521667 0.9222629964351654
vt 0.7855449914932251 0.8782410025596619
vt 0.8155249953269958 0.8791140019893646
vt 0.5697180032730103 0.866785004734993
vt 0.5738430023193359 0.8779250010848045
vt 0.5625609755516052 0.8861609995365143
vt 0.552029013633728 0.869038000702858
vt 0.587302029132843 0.8644859939813614
vt 0.5965909957885742 0.87220199406147
vt 0.676144003868103 0.8635219931602478
vt 0.6650580167770386 0.8837670013308525
vt 0.6571279764175415 0.8488979935646057
vt 0.664497971534729 0.840160995721817
vt 0.6849309802055359 0.8700399994850159
vt 0.66908198595047 0.8979249969124794
vt 0.7030240297317505 0.910012997686863
vt 0.6829320192337036 0.9078679978847504
vt 0.698095977306366 0.8747189939022064
vt 0.7144160270690918 0.8731040060520172
vt 0.7432489991188049 0.9269020035862923
vt 0.716090977191925 0.9326739981770515
vt 0.730364978313446 0.8741530030965805
vt 0.7464280128479004 0.8740510046482086
vt 0.7718600034713745 0.9227790012955666
vt 0.7692909836769104 0.8762129992246628
vt 0.5845410227775574 0.8908519968390465
vt 0.5752180218696594 0.8992850035429001
vt 0.6189720034599304 0.8965490013360977
vt 0.6199150085449219 0.9073050022125244
vt 0.5985350012779236 0.9044179990887642
vt 0.6001319885253906 0.8865709975361824
vt 0.7439730167388916 0.9923029998317361
vt 0.7339760065078735 0.9915869999676943
vt 0.734175980091095 0.9852849999442697
vt 0.7431210279464722 0.9853980001062155
vt 0.7802330255508423 0.9898020001128316
vt 0.7797600030899048 0.9860669998452067
vt 0.7864770293235779 0.9848980000242591
vt 0.7889750003814697 0.9880029996857047
vt 0.6782699823379517 0.5507369935512543
vt 0.647379994392395 0.5474070012569427
vt 0.6475949883460999 0.5643959939479828
vt 0.6771550178527832 0.5674070119857788
vt 0.6118339896202087 0.5478459894657135
vt 0.6158609986305237 0.5678589940071106
vt 0.9334149956703186 0.550817996263504
vt 0.933538019657135 0.5668900012969971
vt 0.9692059755325317 0.571135014295578
vt 0.9686089754104614 0.553743988275528
vt 0.9044169783592224 0.550817996263504
vt 0.9083369970321655 0.5674690008163452
vt 0.8397229909896851 0.5555340051651001
vt 0.8434150218963623 0.5777220129966736
vt 0.8811860084533691 0.5701960027217865
vt 0.8775219917297363 0.5518679916858673
vt 0.8148419857025146 0.5574789941310883
vt 0.8142030239105225 0.5818560123443604
vt 0.7457320094108582 0.5590009987354279
vt 0.7456430196762085 0.5800740122795105
vt 0.7761629819869995 0.5826730132102966
vt 0.7771599888801575 0.5598300099372864
vt 0.7233260273933411 0.5576840043067932
vt 0.7024940252304077 0.5558539927005768
vt 0.7042840123176575 0.5746020078659058
vt 0.7243189811706543 0.5772919952869415
vt 0.8117240071296692 0.9350420013070107
vt 0.5636060237884521 0.9376319982111454
vt 0.5561739802360535 0.9344490021467209
vt 0.5691379904747009 0.906030997633934
vt 0.6945000290870667 0.9413620010018349
vt 0.740539014339447 0.9364629983901978
vt 0.7282249927520752 0.9446719996631145
vt 0.7849149703979492 0.9457059986889362
vt 0.602645993232727 0.9163239970803261
vt 0.6170600056648254 0.9209539964795113
vt 0.5997899770736694 0.9491109997034073
vt 0.5409119725227356 0.9248280003666878
vt 0.547989010810852 0.8911309987306595
vt 0.7936260104179382 0.962712999433279
vt 0.8123829960823059 0.9580360017716885
vt 0.7917180061340332 0.9865239998325706
vt 0.6300190091133118 0.948437999933958
vt 0.6166179776191711 0.9512419998645782
vt 0.6379629969596863 0.917323999106884
vt 0.6457189917564392 0.8580580055713654
vt 0.6423559784889221 0.8820490017533302
vt 0.6405109763145447 0.9145060032606125
vt 0.6483520269393921 0.9043740034103394
vt 0.6520310044288635 0.9113409966230392
vt 0.643284022808075 0.9224689975380898
vt 0.7792459726333618 0.9668329991400242
vt 0.7331169843673706 0.9693999998271465
vt 0.7458450198173523 0.9709309991449118
vt 0.5542550086975098 0.9502279981970787
vt 0.5398740172386169 0.9385900013148785
vt 0.6421970129013062 0.89512799680233
vt 0.630719006061554 0.8967299982905388
vt 0.6302040219306946 0.890233002603054
vt 0.6574349999427795 0.9202219992876053
vt 0.6811490058898926 0.9316650032997131
vt 0.6641749739646912 0.9319230020046234
vt 0.5366550087928772 0.8696449995040894
vt 0.5824859738349915 0.9110649973154068
vt 0.6320040225982666 0.9065079987049103
vt 0.6511970162391663 0.9309659972786903
vt 0.7059509754180908 0.5936479866504669
vt 0.6761170029640198 0.5845179855823517
vt 0.6790469884872437 0.5992009937763214
vt 0.7015910148620605 0.6191059947013855
vt 0.7164490222930908 0.9429530017077923
vt 0.7196469902992249 0.9678080007433891
vt 0.7052599787712097 0.9688670001924038
vt 0.7935770153999329 0.9367609992623329
vt 0.5632420182228088 0.9506420008838177
vt 0.5887010097503662 0.9457149989902973
vt 0.5977159738540649 0.9600399993360043
vt 0.588441014289856 0.9599599987268448
vt 0.5618640184402466 0.9590790010988712
vt 0.5541679859161377 0.9609160013496876
vt 0.5963410139083862 0.9708960000425577
vt 0.5877630114555359 0.9727200008928776
vt 0.7217770218849182 0.9864699998870492
vt 0.71697998046875 0.9886069996282458
vt 0.6195369958877563 0.9655640013515949
vt 0.6118509769439697 0.9634369984269142
vt 0.6111090183258057 0.9789770003408194
vt 0.6070610284805298 0.9743099994957447
vt 0.594444990158081 0.976825000718236
vt 0.586292028427124 0.9789790008217096
vt 0.5609570145606995 0.9639099985361099
vt 0.5675690174102783 0.9645420014858246
vt 0.5668780207633972 0.9702710006386042
vt 0.5490710139274597 0.9642429985105991
vt 0.6549739837646484 0.5878449976444244
vt 0.6477950215339661 0.5818049907684326
vt 0.6202769875526428 0.5928559899330139
vt 0.6196100115776062 0.5880819857120514
vt 0.9306910037994385 0.5914080142974854
vt 0.9641219973564148 0.5918329954147339
vt 0.9697620272636414 0.588918000459671
vt 0.9336529970169067 0.5834450125694275
vt 0.9119859933853149 0.5845640003681183
vt 0.9118329882621765 0.5973930060863495
vt 0.8917279839515686 0.6130970120429993
vt 0.8845959901809692 0.5888510048389435
vt 0.8468520045280457 0.5999700129032135
vt 0.8545179963111877 0.6415550112724304
vt 0.8136090040206909 0.6061410009860992
vt 0.8101500272750854 0.6585080027580261
vt 0.7634530067443848 0.6575259864330292
vt 0.7752360105514526 0.6055299937725067
vt 0.7455610036849976 0.601283997297287
vt 0.7342169880867004 0.6434809863567352
vt 0.7252429723739624 0.5971390008926392
vt 0.7171170115470886 0.6316260099411011
vt 0.7577670216560364 0.9459789991378784
vt 0.7722259759902954 0.9397930018603802
vt 0.7709289789199829 0.9685700014233589
vt 0.759460985660553 0.9750970005989075
vt 0.7683119773864746 0.9878740003332496
vt 0.759863018989563 0.9878960000351071
vt 0.7695969939231873 0.9916040003299713
vt 0.7592949867248535 0.9911040002480149
vt 0.5777940154075623 0.9641879983246326
vt 0.5771129727363586 0.970805000513792
vt 0.5679979920387268 0.9523649998009205
vt 0.5776230096817017 0.9542739987373352
vt 0.5706409811973572 0.9397110007703304
vt 0.579604983329773 0.9431100003421307
vt 0.8004339933395386 0.8145609945058823
vt 0.8378620147705078 0.8097909986972809
vt 0.7998890280723572 0.7966820001602173
vt 0.8103320002555847 0.8356419950723648
vt 0.8290290236473083 0.846098005771637
vt 0.8415979743003845 0.8493980020284653
vt 0.8728790283203125 0.822381004691124
vt 0.8571839928627014 0.8462869971990585
vt 0.8557620048522949 0.7731879949569702
vt 0.8728790283203125 0.7944100052118301
vt 0.8358389735221863 0.7727690041065216
vt 0.8238639831542969 0.7767319977283478
vt 0.8132519721984863 0.7831750065088272
vt 0.5036389827728271 0.7258009910583496
vt 0.503525972366333 0.6758089959621429
vt 0.4808630049228668 0.6786119937896729
vt 0.48072001338005066 0.7256360054016113
vt 0.5570499897003174 0.7235130071640015
vt 0.5587549805641174 0.6697370111942291
vt 0.527076005935669 0.6723720133304596
vt 0.5254160165786743 0.7237929999828339
vt 0.5973100066184998 0.7217000126838684
vt 0.6009889841079712 0.6681579947471619
vt 0.6240630149841309 0.7218430042266846
vt 0.6280969977378845 0.6687850058078766
vt 0.6615110039710999 0.7214300036430359
vt 0.6683710217475891 0.672989010810852
vt 0.6994609832763672 0.6794410049915314
vt 0.6939830183982849 0.7272970080375671
vt 0.7333080172538757 0.6878690123558044
vt 0.7269930243492126 0.7334839999675751
vt 0.763293981552124 0.7369070053100586
vt 0.7671480178833008 0.6943309903144836
vt 0.4176490008831024 0.686024010181427
vt 0.384660005569458 0.6843520104885101
vt 0.38121500611305237 0.7291220128536224
vt 0.4184199869632721 0.7305949926376343
vt 0.4550839960575104 0.7278310060501099
vt 0.45513299107551575 0.6817780137062073
vt 0.704567015171051 0.8651230037212372
vt 0.7177940011024475 0.8653160035610199
vt 0.7325299978256226 0.8658140003681183
vt 0.7472649812698364 0.8639950007200241
vt 0.7684609889984131 0.8642639964818954
vt 0.7831509709358215 0.8664110004901886
vt 0.8027439713478088 0.8684590011835098
vt 0.5444210171699524 0.8581680059432983
vt 0.5275999903678894 0.8566659986972809
vt 0.5623940229415894 0.8548039942979813
vt 0.5802090167999268 0.8514779955148697
vt 0.6836940050125122 0.850163996219635
vt 0.677823007106781 0.8363959938287735
vt 0.6932929754257202 0.8616849929094315
vt 0.8401640057563782 0.5458619892597198
vt 0.8780220150947571 0.543612003326416
vt 0.8146489858627319 0.547001987695694
vt 0.7763800024986267 0.5491909980773926
vt 0.7451580166816711 0.5487540066242218
vt 0.7229030132293701 0.5479170083999634
vt 0.7022320032119751 0.5471169948577881
vt 0.6774049997329712 0.5445860028266907
vt 0.6464030146598816 0.5439429879188538
vt 0.6116189956665039 0.541702002286911
vt 0.9710990190505981 0.5482690036296844
vt 0.9365339875221252 0.5457819998264313
vt 0.9076290130615234 0.5436420142650604
vt 0.7199239730834961 0.9909079996868968
vt 0.605351984500885 0.981691999360919
vt 0.5530790090560913 0.9668820016086102
vt 0.4562720060348511 0.7454000115394592
vt 0.4813860058784485 0.7437269985675812
vt 0.4209910035133362 0.7466349899768829
vt 0.38497599959373474 0.7451960146427155
vt 0.7579050064086914 0.7520069926977158
vt 0.7225279808044434 0.7486160099506378
vt 0.6913959980010986 0.7431040108203888
vt 0.659305989742279 0.7393870055675507
vt 0.6231899857521057 0.7399759888648987
vt 0.596451997756958 0.7402890026569366
vt 0.5564699769020081 0.7420249879360199
vt 0.5253369808197021 0.742561012506485
vt 0.503491997718811 0.7440800070762634
vt 0.5603299736976624 0.6522200107574463
vt 0.5283750295639038 0.6551879942417145
vt 0.6022710204124451 0.6505480110645294
vt 0.6299160122871399 0.6511729955673218
vt 0.6684219837188721 0.6572960019111633
vt 0.7020360231399536 0.6640979945659637
vt 0.7322139739990234 0.673350989818573
vt 0.7647600173950195 0.6797850131988525
vt 0.41846901178359985 0.6713899970054626
vt 0.38724398612976074 0.6695559918880463
vt 0.4516189992427826 0.6678990125656128
vt 0.4765140116214752 0.663006991147995
vt 0.5018900036811829 0.6583940088748932
vt 0.7219039797782898 0.5316019952297211
vt 0.7007520198822021 0.5317319929599762
vt 0.7452080249786377 0.5312579870223999
vt 0.7767329812049866 0.5312280058860779
vt 0.8157489895820618 0.5292899906635284
vt 0.8423290252685547 0.529229998588562
vt 0.8778280019760132 0.5291799902915955
vt 0.9094910025596619 0.5308420062065125
vt 0.937716007232666 0.5336230099201202
vt 0.9694160223007202 0.5359500050544739
vt 0.6420909762382507 0.5315180122852325
vt 0.6078619956970215 0.5306000113487244
vt 0.6752579808235168 0.5308609902858734
vt 0.7011160254478455 0.5136269927024841
vt 0.6760789752006531 0.5152220129966736
vt 0.6410019993782043 0.5162310004234314
vt 0.6051629781723022 0.5147979855537415
vt 0.9767400026321411 0.521465003490448
vt 0.9415000081062317 0.5180779993534088
vt 0.9106450080871582 0.5126659870147705
vt 0.8786119818687439 0.5092670023441315
vt 0.8426929712295532 0.509882003068924
vt 0.8159570097923279 0.5102620124816895
vt 0.7760159969329834 0.5119870007038116
vt 0.7449569702148438 0.5125600099563599
vt 0.7231019735336304 0.5140070021152496
vt 0.7010179758071899 0.5109550058841705
vt 0.6759039759635925 0.5126270055770874
vt 0.6406220197677612 0.5138620138168335
vt 0.6046079993247986 0.5124239921569824
vt 0.9775360226631165 0.5192349851131439
vt 0.9421600103378296 0.515843003988266
vt 0.9110270142555237 0.510331004858017
vt 0.8789380192756653 0.5066139996051788
vt 0.8428220152854919 0.5072030127048492
vt 0.8160840272903442 0.5075159966945648
vt 0.7761020064353943 0.5092529952526093
vt 0.7449690103530884 0.5097880065441132
vt 0.7231240272521973 0.5113070011138916

usemtl Material

f 1/1/1 2/2/2 3/3/3
f 3/3/3 4/4/4 1/1/1
f 5/5/5 6/6/6 7/7/7
f 7/7/7 8/8/8 5/5/5
f 6/6/6 5/5/5 9/9/9
f 9/9/9 10/10/10 6/6/6
f 11/11/11 12/12/12 13/13/13
f 13/13/13 14/14/14 11/11/11
f 15/15/15 16/16/16 12/12/12
f 12/12/12 11/11/11 15/15/15
f 17/17/17 18/18/18 19/19/19
f 19/19/19 20/20/20 17/17/17
f 21/21/21 22/22/22 23/23/23
f 23/23/23 24/24/24 21/21/21
f 2/2/2 25/25/25 26/26/26
f 26/26/26 3/3/3 2/2/2
f 6/6/6 27/27/27 28/28/28
f 28/28/28 7/7/7 6/6/6
f 29/29/29 30/30/30 31/31/31
f 31/31/31 32/32/32 29/29/29
f 33/33/33 34/34/34 35/35/35
f 35/35/35 36/36/36 33/33/33
f 37/37/37 38/38/38 39/39/39
f 39/39/39 40/40/40 37/37/37
f 41/41/41 42/42/42 43/43/43
f 43/43/43 44/44/44 41/41/41
f 42/42/42 45/45/45 46/46/46
f 46/46/46 43/43/43 42/42/42
f 47/47/47 48/48/48 49/49/49
f 49/49/49 50/50/50 47/47/47
f 51/51/51 52/52/52 48/48/48
f 48/48/48 47/47/47 51/51/51
f 53/53/53 54/54/54 55/55/55
f 55/55/55 56/56/56 53/53/53
f 57/57/57 58/58/58 54/54/54
f 54/54/54 53/53/53 57/57/57
f 59/59/59 60/60/60 61/61/61
f 61/61/61 62/62/62 59/59/59
f 63/63/63 64/64/64 65/65/65
f 65/65/65 66/66/66 63/63/63
f 1/1/1 67/67/67 2/2/2
f 68/68/68 69/69/69 70/70/70
f 17/17/17 22/22/22 71/71/71
f 71/71/71 18/18/18 17/17/17
f 21/21/21 72/72/72 73/73/73
f 2/2/2 74/74/74 25/25/25
f 75/75/75 76/76/76 77/77/77
f 70/70/70 69/69/69 78/78/78
f 78/78/78 79/79/79 70/70/70
f 80/80/80 81/81/81 82/82/82
f 82/82/82 39/39/39 80/80/80
f 83/83/83 84/84/84 76/76/76
f 76/76/76 85/85/85 83/83/83
f 27/27/27 32/32/32 31/31/31
f 31/31/31 28/28/28 27/27/27
f 86/86/86 13/13/13 12/12/12
f 12/12/12 87/87/87 86/86/86
f 27/27/27 6/6/6 10/10/10
f 10/10/10 32/32/32 27/27/27
f 88/88/88 89/89/89 90/90/90
f 90/90/90 91/91/91 88/88/88
f 92/92/92 80/80/80 39/39/39
f 39/39/39 38/38/38 92/92/92
f 36/36/36 35/35/35 93/93/93
f 93/93/93 94/94/94 36/36/36
f 69/69/69 95/95/95 96/96/96
f 96/96/96 78/78/78 69/69/69
f 87/87/87 12/12/12 89/89/89
f 89/89/89 97/97/97 87/87/87
f 98/98/98 30/30/30 29/29/29
f 29/29/29 99/99/99 98/98/98
f 100/100/100 18/18/18 101/101/101
f 101/101/101 102/102/102 100/100/100
f 89/89/89 12/12/12 16/16/16
f 16/16/16 90/90/90 89/89/89
f 56/56/56 55/55/55 52/52/52
f 52/52/52 51/51/51 56/56/56
f 8/8/8 7/7/7 79/79/79
f 79/79/79 103/103/103 8/8/8
f 7/7/7 28/28/28 70/70/70
f 70/70/70 79/79/79 7/7/7
f 104/104/104 70/70/70 28/28/28
f 28/28/28 31/31/31 104/104/104
f 30/30/30 76/76/76 75/75/75
f 75/75/75 31/31/31 30/30/30
f 30/30/30 98/98/98 105/105/105
f 105/105/105 76/76/76 30/30/30
f 91/91/91 90/90/90 100/100/100
f 100/100/100 106/106/106 91/91/91
f 16/16/16 18/18/18 100/100/100
f 100/100/100 90/90/90 16/16/16
f 16/16/16 15/15/15 19/19/19
f 19/19/19 18/18/18 16/16/16
f 64/64/64 41/41/41 44/44/44
f 44/44/44 65/65/65 64/64/64
f 107/107/107 108/108/108 109/109/109
f 109/109/109 110/110/110 107/107/107
f 71/71/71 111/111/111 112/112/112
f 112/112/112 113/113/113 71/71/71
f 73/73/73 72/72/72 94/94/94
f 94/94/94 93/93/93 73/73/73
f 74/74/74 114/114/114 80/80/80
f 80/80/80 92/92/92 74/74/74
f 114/114/114 67/67/67 81/81/81
f 81/81/81 80/80/80 114/114/114
f 95/95/95 69/69/69 68/68/68
f 68/68/68 115/115/115 95/95/95
f 116/116/116 77/77/77 117/117/117
f 117/117/117 118/118/118 116/116/116
f 95/95/95 115/115/115 119/119/119
f 119/119/119 120/120/120 95/95/95
f 118/118/118 117/117/117 121/121/121
f 121/121/121 122/122/122 118/118/118
f 113/113/113 112/112/112 123/123/123
f 123/123/123 124/124/124 113/113/113
f 84/84/84 83/83/83 125/125/125
f 125/125/125 126/126/126 84/84/84
f 126/126/126 125/125/125 127/127/127
f 127/127/127 128/128/128 126/126/126
f 129/129/129 130/130/130 122/122/122
f 122/122/122 121/121/121 129/129/129
f 131/131/131 119/119/119 132/132/132
f 132/132/132 133/133/133 131/131/131
f 134/134/134 96/96/96 95/95/95
f 95/95/95 120/120/120 134/134/134
f 135/135/135 109/109/109 108/108/108
f 108/108/108 136/136/136 135/135/135
f 137/137/137 135/135/135 136/136/136
f 136/136/136 138/138/138 137/137/137
f 139/139/139 140/140/140 141/141/141
f 141/141/141 142/142/142 139/139/139
f 139/139/139 142/142/142 143/143/143
f 143/143/143 144/144/144 139/139/139
f 145/145/145 146/146/146 147/147/147
f 147/147/147 148/148/148 145/145/145
f 148/148/148 147/147/147 149/149/149
f 149/149/149 150/150/150 148/148/148
f 151/151/151 152/152/152 153/153/153
f 153/153/153 154/154/154 151/151/151
f 155/155/155 107/107/107 110/110/110
f 110/110/110 156/156/156 155/155/155
f 144/144/144 143/143/143 146/146/146
f 146/146/146 145/145/145 144/144/144
f 150/150/150 149/149/149 152/152/152
f 152/152/152 151/151/151 150/150/150
f 62/62/62 61/61/61 58/58/58
f 58/58/58 57/57/57 62/62/62
f 25/25/25 21/21/21 24/24/24
f 24/24/24 26/26/26 25/25/25
f 157/157/157 21/21/21 25/25/25
f 157/157/157 158/158/158 159/159/159
f 159/159/159 160/160/160 157/157/157
f 160/160/160 159/159/159 161/161/161
f 161/161/161 162/162/162 160/160/160
f 161/161/161 163/163/163 164/164/164
f 164/164/164 162/162/162 161/161/161
f 133/133/133 132/132/132 165/165/165
f 165/165/165 166/166/166 133/133/133
f 167/167/167 168/168/168 165/165/165
f 165/165/165 132/132/132 167/167/167
f 167/167/167 169/169/169 170/170/170
f 170/170/170 168/168/168 167/167/167
f 170/170/170 169/169/169 104/104/104
f 31/31/31 75/75/75 104/104/104
f 171/171/171 172/172/172 173/173/173
f 174/174/174 172/172/172 171/171/171
f 175/175/175 172/172/172 174/174/174
f 176/176/176 172/172/172 175/175/175
f 177/177/177 172/172/172 178/178/178
f 179/179/179 172/172/172 180/180/180
f 181/181/181 172/172/172 179/179/179
f 181/181/181 182/182/182 183/183/183
f 183/183/183 172/172/172 181/181/181
f 178/178/178 172/172/172 176/176/176
f 173/173/173 172/172/172 183/183/183
f 180/180/180 172/172/172 177/177/177
f 184/184/184 185/185/185 186/186/186
f 186/186/186 187/187/187 184/184/184
f 188/188/188 189/189/189 190/190/190
f 190/190/190 191/191/191 188/188/188
f 192/192/192 193/193/193 189/189/189
f 189/189/189 188/188/188 192/192/192
f 194/194/194 195/195/195 193/193/193
f 193/193/193 192/192/192 194/194/194
f 196/196/196 197/197/197 195/195/195
f 195/195/195 194/194/194 196/196/196
f 198/198/198 197/197/197 196/196/196
f 196/196/196 199/199/199 198/198/198
f 200/200/200 198/198/198 199/199/199
f 199/199/199 201/201/201 200/200/200
f 202/202/202 203/203/203 200/200/200
f 200/200/200 201/201/201 202/202/202
f 204/204/204 205/205/205 206/206/206
f 206/206/206 207/207/207 204/204/204
f 208/208/208 209/209/209 204/204/204
f 204/204/204 207/207/207 208/208/208
f 187/187/187 186/186/186 209/209/209
f 209/209/209 208/208/208 187/187/187
f 20/20/20 19/19/19 210/210/210
f 210/210/210 211/211/211 20/20/20
f 24/24/24 23/23/23 212/212/212
f 212/212/212 213/213/213 24/24/24
f 26/26/26 24/24/24 213/213/213
f 213/213/213 214/214/214 26/26/26
f 215/215/215 3/3/3 26/26/26
f 26/26/26 214/214/214 215/215/215
f 216/216/216 4/4/4 3/3/3
f 3/3/3 215/215/215 216/216/216
f 217/217/217 8/8/8 103/103/103
f 103/103/103 218/218/218 217/217/217
f 219/219/219 5/5/5 8/8/8
f 8/8/8 217/217/217 219/219/219
f 5/5/5 219/219/219 220/220/220
f 220/220/220 9/9/9 5/5/5
f 221/221/221 11/11/11 14/14/14
f 14/14/14 222/222/222 221/221/221
f 223/223/223 15/15/15 11/11/11
f 11/11/11 221/221/221 223/223/223
f 223/223/223 210/210/210 19/19/19
f 19/19/19 15/15/15 223/223/223
f 224/224/224 53/53/53 56/56/56
f 56/56/56 225/225/225 224/224/224
f 53/53/53 224/224/224 226/226/226
f 226/226/226 57/57/57 53/53/53
f 57/57/57 226/226/226 227/227/227
f 227/227/227 62/62/62 57/57/57
f 59/59/59 62/62/62 227/227/227
f 227/227/227 228/228/228 59/59/59
f 229/229/229 230/230/230 64/64/64
f 64/64/64 63/63/63 229/229/229
f 230/230/230 231/231/231 41/41/41
f 41/41/41 64/64/64 230/230/230
f 42/42/42 41/41/41 231/231/231
f 231/231/231 232/232/232 42/42/42
f 232/232/232 233/233/233 45/45/45
f 45/45/45 42/42/42 232/232/232
f 234/234/234 235/235/235 47/47/47
f 47/47/47 50/50/50 234/234/234
f 47/47/47 235/235/235 236/236/236
f 236/236/236 51/51/51 47/47/47
f 51/51/51 236/236/236 225/225/225
f 225/225/225 56/56/56 51/51/51
f 73/73/73 111/111/111 22/22/22
f 73/73/73 93/93/93 112/112/112
f 112/112/112 111/111/111 73/73/73
f 35/35/35 123/123/123 112/112/112
f 112/112/112 93/93/93 35/35/35
f 34/34/34 237/237/237 123/123/123
f 123/123/123 35/35/35 34/34/34
f 129/129/129 121/121/121 128/128/128
f 128/128/128 238/238/238 129/129/129
f 121/121/121 117/117/117 126/126/126
f 126/126/126 128/128/128 121/121/121
f 77/77/77 84/84/84 126/126/126
f 126/126/126 117/117/117 77/77/77
f 76/76/76 84/84/84 77/77/77
f 21/21/21 73/73/73 22/22/22
f 75/75/75 77/77/77 116/116/116
f 157/157/157 72/72/72 21/21/21
f 157/157/157 160/160/160 94/94/94
f 94/94/94 72/72/72 157/157/157
f 160/160/160 162/162/162 36/36/36
f 36/36/36 94/94/94 160/160/160
f 162/162/162 164/164/164 33/33/33
f 33/33/33 36/36/36 162/162/162
f 166/166/166 165/165/165 122/122/122
f 122/122/122 130/130/130 166/166/166
f 165/165/165 168/168/168 118/118/118
f 118/118/118 122/122/122 165/165/165
f 168/168/168 170/170/170 116/116/116
f 116/116/116 118/118/118 168/168/168
f 75/75/75 116/116/116 170/170/170
f 75/75/75 170/170/170 104/104/104
f 158/158/158 157/157/157 25/25/25
f 74/74/74 158/158/158 25/25/25
f 2/2/2 114/114/114 74/74/74
f 74/74/74 92/92/92 159/159/159
f 159/159/159 158/158/158 74/74/74
f 92/92/92 38/38/38 161/161/161
f 161/161/161 159/159/159 92/92/92
f 38/38/38 37/37/37 163/163/163
f 163/163/163 161/161/161 38/38/38
f 131/131/131 239/239/239 120/120/120
f 120/120/120 119/119/119 131/131/131
f 119/119/119 115/115/115 167/167/167
f 167/167/167 132/132/132 119/119/119
f 115/115/115 68/68/68 169/169/169
f 169/169/169 167/167/167 115/115/115
f 104/104/104 169/169/169 68/68/68
f 104/104/104 68/68/68 70/70/70
f 67/67/67 114/114/114 2/2/2
f 22/22/22 111/111/111 71/71/71
f 23/23/23 22/22/22 17/17/17
f 17/17/17 20/20/20 23/23/23
f 23/23/23 20/20/20 211/211/211
f 211/211/211 212/212/212 23/23/23
f 185/185/185 184/184/184 191/191/191
f 191/191/191 190/190/190 185/185/185
f 228/228/228 229/229/229 63/63/63
f 63/63/63 59/59/59 228/228/228
f 59/59/59 63/63/63 66/66/66
f 66/66/66 60/60/60 59/59/59
f 153/153/153 155/155/155 156/156/156
f 156/156/156 154/154/154 153/153/153
f 187/187/187 208/208/208 240/240/240
f 240/240/240 241/241/241 187/187/187
f 240/240/240 208/208/208 207/207/207
f 207/207/207 242/242/242 240/240/240
f 207/207/207 206/206/206 243/243/243
f 243/243/243 242/242/242 207/207/207
f 244/244/244 202/202/202 201/201/201
f 201/201/201 245/245/245 244/244/244
f 201/201/201 199/199/199 246/246/246
f 246/246/246 245/245/245 201/201/201
f 199/199/199 196/196/196 247/247/247
f 247/247/247 246/246/246 199/199/199
f 196/196/196 194/194/194 248/248/248
f 248/248/248 247/247/247 196/196/196
f 248/248/248 194/194/194 192/192/192
f 192/192/192 249/249/249 248/248/248
f 192/192/192 188/188/188 250/250/250
f 250/250/250 249/249/249 192/192/192
f 250/250/250 188/188/188 191/191/191
f 191/191/191 251/251/251 250/250/250
f 191/191/191 184/184/184 252/252/252
f 252/252/252 251/251/251 191/191/191
f 252/252/252 184/184/184 187/187/187
f 187/187/187 241/241/241 252/252/252
f 189/189/189 253/253/253 254/254/254
f 254/254/254 190/190/190 189/189/189
f 193/193/193 255/255/255 253/253/253
f 253/253/253 189/189/189 193/193/193
f 256/256/256 255/255/255 193/193/193
f 193/193/193 195/195/195 256/256/256
f 257/257/257 256/256/256 195/195/195
f 195/195/195 197/197/197 257/257/257
f 198/198/198 258/258/258 257/257/257
f 257/257/257 197/197/197 198/198/198
f 200/200/200 259/259/259 258/258/258
f 258/258/258 198/198/198 200/200/200
f 203/203/203 260/260/260 259/259/259
f 259/259/259 200/200/200 203/203/203
f 261/261/261 262/262/262 205/205/205
f 205/205/205 204/204/204 261/261/261
f 263/263/263 261/261/261 204/204/204
f 204/204/204 209/209/209 263/263/263
f 264/264/264 263/263/263 209/209/209
f 209/209/209 186/186/186 264/264/264
f 265/265/265 264/264/264 186/186/186
f 186/186/186 185/185/185 265/265/265
f 265/265/265 185/185/185 190/190/190
f 190/190/190 254/254/254 265/265/265
f 266/266/266 267/267/267 230/230/230
f 230/230/230 229/229/229 266/266/266
f 229/229/229 228/228/228 268/268/268
f 268/268/268 266/266/266 229/229/229
f 268/268/268 228/228/228 227/227/227
f 227/227/227 269/269/269 268/268/268
f 226/226/226 270/270/270 269/269/269
f 269/269/269 227/227/227 226/226/226
f 224/224/224 271/271/271 270/270/270
f 270/270/270 226/226/226 224/224/224
f 271/271/271 224/224/224 225/225/225
f 225/225/225 272/272/272 271/271/271
f 236/236/236 273/273/273 272/272/272
f 272/272/272 225/225/225 236/236/236
f 274/274/274 273/273/273 236/236/236
f 236/236/236 235/235/235 274/274/274
f 275/275/275 274/274/274 235/235/235
f 235/235/235 234/234/234 275/275/275
f 276/276/276 277/277/277 233/233/233
f 233/233/233 232/232/232 276/276/276
f 232/232/232 231/231/231 278/278/278
f 278/278/278 276/276/276 232/232/232
f 231/231/231 230/230/230 267/267/267
f 267/267/267 278/278/278 231/231/231
f 279/279/279 280/280/280 278/278/278
f 278/278/278 267/267/267 279/279/279
f 278/278/278 280/280/280 281/281/281
f 281/281/281 276/276/276 278/278/278
f 281/281/281 282/282/282 277/277/277
f 277/277/277 276/276/276 281/281/281
f 275/275/275 283/283/283 284/284/284
f 284/284/284 274/274/274 275/275/275
f 284/284/284 285/285/285 273/273/273
f 273/273/273 274/274/274 284/284/284
f 273/273/273 285/285/285 286/286/286
f 286/286/286 272/272/272 273/273/273
f 286/286/286 287/287/287 271/271/271
f 271/271/271 272/272/272 286/286/286
f 271/271/271 287/287/287 288/288/288
f 288/288/288 270/270/270 271/271/271
f 288/288/288 289/289/289 269/269/269
f 269/269/269 270/270/270 288/288/288
f 269/269/269 289/289/289 290/290/290
f 290/290/290 268/268/268 269/269/269
f 290/290/290 291/291/291 266/266/266
f 266/266/266 268/268/268 290/290/290
f 266/266/266 291/291/291 279/279/279
f 279/279/279 267/267/267 266/266/266
f 292/292/292 293/293/293 280/280/280
f 280/280/280 279/279/279 292/292/292
f 293/293/293 294/294/294 281/281/281
f 281/281/281 280/280/280 293/293/293
f 294/294/294 295/295/295 282/282/282
f 282/282/282 281/281/281 294/294/294
f 283/283/283 296/296/296 297/297/297
f 297/297/297 284/284/284 283/283/283
f 284/284/284 297/297/297 298/298/298
f 298/298/298 285/285/285 284/284/284
f 285/285/285 298/298/298 299/299/299
f 299/299/299 286/286/286 285/285/285
f 299/299/299 300/300/300 287/287/287
f 287/287/287 286/286/286 299/299/299
f 287/287/287 300/300/300 301/301/301
f 301/301/301 288/288/288 287/287/287
f 301/301/301 302/302/302 289/289/289
f 289/289/289 288/288/288 301/301/301
f 289/289/289 302/302/302 303/303/303
f 303/303/303 290/290/290 289/289/289
f 303/303/303 304/304/304 291/291/291
f 291/291/291 290/290/290 303/303/303
f 291/291/291 304/304/304 292/292/292
f 292/292/292 279/279/279 291/291/291
f 61/61/61 152/152/152 149/149/149
f 149/149/149 58/58/58 61/61/61
f 58/58/58 149/149/149 147/147/147
f 147/147/147 54/54/54 58/58/58
f 54/54/54 147/147/147 146/146/146
f 146/146/146 55/55/55 54/54/54
f 55/55/55 146/146/146 143/143/143
f 143/143/143 52/52/52 55/55/55
f 52/52/52 143/143/143 142/142/142
f 142/142/142 48/48/48 52/52/52
f 48/48/48 142/142/142 141/141/141
f 141/141/141 49/49/49 48/48/48
f 43/43/43 46/46/46 138/138/138
f 138/138/138 136/136/136 43/43/43
f 44/44/44 43/43/43 136/136/136
f 136/136/136 108/108/108 44/44/44
f 65/65/65 44/44/44 108/108/108
f 108/108/108 107/107/107 65/65/65
f 66/66/66 65/65/65 107/107/107
f 107/107/107 155/155/155 66/66/66
f 60/60/60 66/66/66 155/155/155
f 155/155/155 153/153/153 60/60/60
f 61/61/61 60/60/60 153/153/153
f 153/153/153 152/152/152 61/61/61