mtllib 41794664.mtl
o Mesh

v 0.11210900545120239 -0.7461390495300293 0.37946298718452454
v 0.29662400484085083 -0.7657500505447388 0.2905749976634979
v 0.038767993450164795 -0.4296169877052307 0.1737460047006607
v -0.027990996837615967 -0.45559602975845337 0.25070399045944214
v -0.31504398584365845 -0.6081759929656982 0.2531369924545288
v -0.2363010048866272 -0.6517759561538696 0.33206799626350403
v -0.17379501461982727 -0.4988750219345093 0.2543430030345917
v -0.23973798751831055 -0.5184600353240967 0.20520399510860443
v -0.3034549951553345 -0.5373749732971191 0.029068000614643097
v -0.322829008102417 -0.6189889907836914 -0.12723800539970398
v -0.40535399317741394 -0.636489987373352 0.004358999896794558
v -0.26766902208328247 -0.5242069959640503 -0.07392899692058563
v -0.15415099263191223 -0.4950760006904602 -0.17211000621318817
v -0.21947899460792542 -0.6791330575942993 -0.3168410062789917
v -0.322829008102417 -0.6189889907836914 -0.12723800539970398
v -0.26766902208328247 -0.5242069959640503 -0.07392899692058563
v -0.008960992097854614 -0.44995200634002686 -0.21086600422859192
v 0.15950602293014526 -0.7821450233459473 -0.36800000071525574
v -0.12849798798561096 -0.7516109943389893 -0.3754329979419708
v -0.08589398860931396 -0.47279101610183716 -0.22002699971199036
v 0.3179050087928772 -0.778427004814148 0.007230000104755163
v 0.30664199590682983 -0.7648780345916748 -0.2768529951572418
v 0.03573501110076904 -0.4298809766769409 -0.11561299860477448
v 0.07999199628829956 -0.42588698863983154 0.029066000133752823
v 0.038767993450164795 -0.4296169877052307 0.1737460047006607
v 0.29662400484085083 -0.7657500505447388 0.2905749976634979
v -0.2810850143432617 -0.8009999990463257 0.1063460037112236
v -0.18422499299049377 -0.8484170436859131 0.22567999362945557
v -0.2596369981765747 -0.7417049407958984 0.32494500279426575
v -0.3396099805831909 -0.6832950115203857 0.23125199973583221
v -0.3518980145454407 -0.8251030445098877 -0.13078999519348145
v -0.2110840082168579 -0.8676140308380127 -0.17498299479484558
v -0.1999100148677826 -0.8672709465026855 -0.059647999703884125
v -0.3110179901123047 -0.8023890256881714 -0.021539000794291496
v 0.06519997119903564 -1.350762963294983 -0.06229700148105621
v 0.0733640193939209 -1.3366539478302002 -0.2879129946231842
v 0.1262890100479126 -1.3420159816741943 -0.27797698974609375
v 0.10538297891616821 -1.3507139682769775 -0.06360799819231033
v 0.08755701780319214 -1.3455079793930054 0.22889600694179535
v 0.04237097501754761 -1.3368330001831055 0.21734100580215454
v 0.16371798515319824 -0.9732979536056519 0.35414400696754456
v 0.3395969867706299 -1.0532360076904297 0.2790200114250183
v 0.041203975677490234 -0.9858499765396118 0.2633180022239685
v -0.09788501262664795 -0.9048930406570435 0.257191002368927
v -0.08278000354766846 -0.9112449884414673 -0.05534199997782707
v 0.06810498237609863 -0.9755840301513672 -0.04704299941658974
v 0.19879597425460815 -0.9553639888763428 -0.3622240126132965
v -0.10932600498199463 -0.8923829793930054 -0.3716000020503998
v 0.3551890254020691 -1.0061609745025635 -0.2890799939632416
v 0.35372698307037354 -1.041869044303894 -0.0025470000691711903
v 0.3395969867706299 -1.0532360076904297 0.2790200114250183
v -0.08719098567962646 -0.9297670125961304 -0.28543800115585327
v 0.06318902969360352 -0.9773910045623779 -0.30330899357795715
v -0.12798601388931274 -0.8041160106658936 0.38050198554992676
v -0.09788501262664795 -0.9048930406570435 0.257191002368927
v 0.041203975677490234 -0.9858499765396118 0.2633180022239685
v 0.08755701780319214 -1.3455079793930054 0.22889600694179535
v 0.26728498935699463 -1.2525429725646973 0.25360700488090515
v 0.13183200359344482 -1.2271300554275513 0.2867569923400879
v 0.04237097501754761 -1.3368330001831055 0.21734100580215454
v -0.315064013004303 -0.9084080457687378 -0.2079640030860901
v -0.3627129793167114 -0.8622709512710571 -0.17234499752521515
v -0.3628770112991333 -0.832718014717102 -0.2725430130958557
v -0.35156601667404175 -0.8844189643859863 -0.33294498920440674
v 0.2860350012779236 -1.237705945968628 -0.03353499993681908
v 0.26728498935699463 -1.2525429725646973 0.25360700488090515
v 0.08755701780319214 -1.3455079793930054 0.22889600694179535
v 0.10538297891616821 -1.3507139682769775 -0.06360799819231033
v 0.1262890100479126 -1.3420159816741943 -0.27797698974609375
v 0.28665101528167725 -1.2164109945297241 -0.27547499537467957
v 0.03786498308181763 -1.1942379474639893 0.22649100422859192
v -0.2548670172691345 -0.9136329889297485 -0.3629010021686554
v -0.3628770112991333 -0.832718014717102 -0.2725430130958557
v -0.35156601667404175 -0.8844189643859863 -0.33294498920440674
v -0.17379501461982727 -0.4988750219345093 0.2543430030345917
v -0.2363010048866272 -0.6517759561538696 0.33206799626350403
v -0.1140500009059906 -0.6911029815673828 0.3794510066509247
v -0.08589398860931396 -0.47279101610183716 0.2781609892845154
v -0.18422499299049377 -0.8484170436859131 0.22567999362945557
v -0.2596369981765747 -0.7417049407958984 0.32494500279426575
v -0.2213590145111084 -0.9289360046386719 -0.2480030059814453
v -0.2548670172691345 -0.9136329889297485 -0.3629010021686554
v 0.3551890254020691 -1.0061609745025635 -0.2890799939632416
v 0.28665101528167725 -1.2164109945297241 -0.27547499537467957
v 0.15171301364898682 -1.2087730169296265 -0.33062300086021423
v 0.03786498308181763 -1.1942379474639893 0.22649100422859192
v 0.07217901945114136 -1.191707968711853 -0.05266699939966202
v 0.05653101205825806 -1.1798709630966187 -0.2807289958000183
v 0.008988022804260254 -1.2958300113677979 0.20039600133895874
v 0.0364689826965332 -1.3130110502243042 -0.060387998819351196
v 0.025615990161895752 -1.2995660305023193 -0.25203099846839905
v 0.1262890100479126 -1.3420159816741943 -0.27797698974609375
v 0.0733640193939209 -1.3366539478302002 -0.2879129946231842
v 0.06318902969360352 -0.9773910045623779 -0.30330899357795715
v 0.05653101205825806 -1.1798709630966187 -0.2807289958000183
v 0.025615990161895752 -1.2995660305023193 -0.25203099846839905
v 0.008988022804260254 -1.2958300113677979 0.20039600133895874
v 0.30664199590682983 -0.7648780345916748 -0.2768529951572418
v 0.03573501110076904 -0.4298809766769409 -0.11561299860477448
v -0.10932600498199463 -0.8923829793930054 -0.3716000020503998
v -0.08719098567962646 -0.9297670125961304 -0.28543800115585327
v -0.15096798539161682 -0.04782700538635254 -0.16197800636291504
v -0.03681600093841553 -0.40105700492858887 -0.282600998878479
v -0.25787100195884705 -0.4018380045890808 -0.18211500346660614
v -0.3087179958820343 -0.12735402584075928 -0.0830949991941452
v -0.34952500462532043 -0.4122580289840698 0.060249000787734985
v -0.3740580081939697 -0.1602950096130371 0.10734699666500092
v -0.3087179958820343 -0.12735402584075928 -0.0830949991941452
v -0.25787100195884705 -0.4018380045890808 -0.18211500346660614
v -0.2580839991569519 -0.4262170195579529 0.3025130033493042
v -0.3087179958820343 -0.12736397981643677 0.2977890074253082
v -0.15096700191497803 -0.04782700538635254 0.37667301297187805
v -0.3087179958820343 -0.12736397981643677 0.2977890074253082
v -0.2580839991569519 -0.4262170195579529 0.3025130033493042
v -0.03711700439453125 -0.43554502725601196 0.4027630090713501
v 0.0067819952964782715 0.03169900178909302 0.2977890074253082
v 0.18394899368286133 -0.43476402759552 0.30227598547935486
v 0.07211202383041382 0.06463998556137085 0.10734699666500092
v 0.0067819952964782715 0.03169900178909302 0.2977890074253082
v 0.18394899368286133 -0.43476402759552 0.30227598547935486
v 0.2756029963493347 -0.42435401678085327 0.05991299822926521
v 0.0067819952964782715 0.03169900178909302 -0.08309599757194519
v 0.1841610074043274 -0.41038602590560913 -0.1823520064353943
v 0.0067819952964782715 0.03169900178909302 -0.08309599757194519
v 0.1841610074043274 -0.41038602590560913 -0.1823520064353943
v 0.280489981174469 -0.7008270025253296 0.33740198612213135
v -0.026867985725402832 -0.7119150161743164 0.4689890146255493
v -0.026879996061325073 -0.7568069696426392 0.4479050040245056
v 0.2676740288734436 -0.7461869716644287 0.3218019902706146
v -0.33410102128982544 -0.7097439765930176 0.3366830050945282
v -0.32130300998687744 -0.7547279596328735 0.3211140036582947
v -0.026879996061325073 -0.7568069696426392 0.4479050040245056
v -0.026867985725402832 -0.7119150161743164 0.4689890146255493
v -0.4612419903278351 -0.6955640316009521 0.017986999824643135
v -0.4431390166282654 -0.7411340475082397 0.01570099964737892
v -0.33382099866867065 -0.677685022354126 -0.30041199922561646
v -0.3210349977016449 -0.7240090370178223 -0.2894270122051239
v -0.02647298574447632 -0.6665869951248169 -0.43199899792671204
v 0.2807700037956238 -0.668768048286438 -0.2996940016746521
v 0.26794201135635376 -0.7154680490493774 -0.2887380123138428
v -0.026500999927520752 -0.7133690118789673 -0.4155290126800537
v 0.40790098905563354 -0.6829580068588257 0.019000999629497528
v 0.3897780179977417 -0.7290719747543335 0.016674000769853592
v -0.026500999927520752 -0.7133690118789673 -0.4155290126800537
v -0.02647298574447632 -0.6665869951248169 -0.43199899792671204
v -0.026879996061325073 -0.7568069696426392 0.4479050040245056
v -0.04453599452972412 -0.7116509675979614 0.020008999854326248
v 0.2676740288734436 -0.7461869716644287 0.3218019902706146
v -0.32130300998687744 -0.7547279596328735 0.3211140036582947
v -0.4431390166282654 -0.7411340475082397 0.01570099964737892
v -0.3210349977016449 -0.7240090370178223 -0.2894270122051239
v 0.26794201135635376 -0.7154680490493774 -0.2887380123138428
v -0.026500999927520752 -0.7133690118789673 -0.4155290126800537
v 0.3897780179977417 -0.7290719747543335 0.016674000769853592
v -0.502219021320343 0.2216779887676239 -0.2952040135860443
v -0.4996030032634735 0.5007960200309753 0.0011109999613836408
v -0.4996030032634735 0.5007960200309753 -0.41794300079345703
v -0.5032879710197449 0.10607299208641052 0.0011109999613836408
v -0.502219021320343 0.2216779887676239 0.2974259853363037
v -0.4996030032634735 0.5007960200309753 0.4201650023460388
v -0.49700799584388733 0.7798939943313599 0.2974259853363037
v -0.49591898918151855 0.8955090045928955 0.0011109999613836408
v -0.49700799584388733 0.7798939943313599 -0.2952049970626831
v -0.03681600093841553 -0.40105700492858887 -0.282600998878479
v -0.03772398829460144 -0.4363710284233093 -0.37482398748397827
v -0.31153300404548645 -0.43733102083206177 -0.250357985496521
v -0.25787100195884705 -0.4018380045890808 -0.18211500346660614
v -0.03681600093841553 -0.40105700492858887 -0.282600998878479
v 0.1841610074043274 -0.41038602590560913 -0.1823520064353943
v 0.23598599433898926 -0.44791901111602783 -0.2506519854068756
v -0.03772398829460144 -0.4363710284233093 -0.37482398748397827
v 0.2756029963493347 -0.42435401678085327 0.05991299822926521
v 0.3492389917373657 -0.4652180075645447 0.0494219996035099
v 0.18394899368286133 -0.43476402759552 0.30227598547935486
v 0.23572200536727905 -0.47812801599502563 0.3496190011501312
v -0.03711700439453125 -0.43554502725601196 0.4027630090713501
v -0.038096994161605835 -0.4790880084037781 0.4740850031375885
v -0.03711700439453125 -0.43554502725601196 0.4027630090713501
v -0.2580839991569519 -0.4262170195579529 0.3025130033493042
v -0.31179600954055786 -0.4675390124320984 0.34991198778152466
v -0.038096994161605835 -0.4790880084037781 0.4740850031375885
v -0.34952500462532043 -0.4122580289840698 0.060249000787734985
v -0.4250600039958954 -0.4502410292625427 0.049837999045848846
v -0.37617701292037964 0.7325080037117004 -0.24445199966430664
v -0.4246549904346466 0.473921000957489 -0.35597801208496094
v -0.4996030032634735 0.5007960200309753 -0.41794300079345703
v -0.49700799584388733 0.7798939943313599 -0.2952049970626831
v -0.49591898918151855 0.8955090045928955 0.0011109999613836408
v -0.3560909926891327 0.8396170139312744 0.024795999750494957
v -0.37617701292037964 0.7325080037117004 -0.24445199966430664
v -0.49700799584388733 0.7798939943313599 -0.2952049970626831
v -0.49700799584388733 0.7798939943313599 0.2974259853363037
v -0.37617701292037964 0.7325080037117004 0.29404300451278687
v -0.4996030032634735 0.5007960200309753 0.4201650023460388
v -0.4246549904346466 0.473921000957489 0.40557000041007996
v -0.37617701292037964 0.7325080037117004 0.29404300451278687
v -0.49700799584388733 0.7798939943313599 0.2974259853363037
v -0.502219021320343 0.2216779887676239 0.2974259853363037
v -0.4731529951095581 0.2153240144252777 0.29404300451278687
v -0.502219021320343 0.2216779887676239 0.2974259853363037
v -0.5032879710197449 0.10607299208641052 0.0011109999613836408
v -0.4932290017604828 0.1082260012626648 0.024795999750494957
v -0.4731529951095581 0.2153240144252777 0.29404300451278687
v -0.502219021320343 0.2216779887676239 -0.2952040135860443
v -0.4731529951095581 0.2153240144252777 -0.24445000290870667
v -0.502219021320343 0.2216779887676239 -0.2952040135860443
v -0.4731529951095581 0.2153240144252777 -0.24445000290870667
v -0.32672199606895447 0.40507400035858154 -0.27455198764801025
v -0.22344699501991272 0.6287209987640381 -0.17917400598526
v -0.08910900354385376 0.3207870125770569 -0.13043899834156036
v -0.22209200263023376 0.18694201111793518 -0.21108399331569672
v -0.22344699501991272 0.6287209987640381 -0.17917400598526
v -0.1806659996509552 0.7213709950447083 0.05108899995684624
v -0.03401300311088562 0.3762179911136627 0.06425800174474716
v -0.08910900354385376 0.3207870125770569 -0.13043899834156036
v -0.22344699501991272 0.6287209987640381 0.2813520133495331
v -0.08910900354385376 0.3207870125770569 0.2589550018310547
v -0.32672199606895447 0.40507400035858154 0.3767310082912445
v -0.22209098935127258 0.18694201111793518 0.3396010100841522
v -0.08910900354385376 0.3207870125770569 0.2589550018310547
v -0.22344699501991272 0.6287209987640381 0.2813520133495331
v -0.43001800775527954 0.1813969910144806 0.2813520133495331
v -0.3550949990749359 0.05309799313545227 0.2589550018310547
v -0.472788006067276 0.08875700831413269 0.05108899995684624
v -0.4101809859275818 -0.00234299898147583 0.06425800174474716
v -0.3550949990749359 0.05309799313545227 0.2589550018310547
v -0.43001800775527954 0.1813969910144806 0.2813520133495331
v -0.43001800775527954 0.1813969910144806 -0.17917299270629883
v -0.3550949990749359 0.05309799313545227 -0.13043799996376038
v -0.43001800775527954 0.1813969910144806 -0.17917299270629883
v -0.3550949990749359 0.05309799313545227 -0.13043799996376038

vn 0.26107698678970337 0.23051099479198456 0.937391996383667
vn 0.7740899920463562 0.3472970128059387 0.5293099880218506
vn 0.6883649826049805 0.585195004940033 0.42860400676727295
vn 0.39507800340652466 0.491347998380661 0.7762029767036438
vn -0.7785429954528809 0.4086630046367645 0.47630399465560913
vn -0.44164401292800903 0.28843000531196594 0.8495640158653259
vn -0.3833549916744232 0.53398597240448 0.7535899877548218
vn -0.6260849833488464 0.7043030261993408 0.3346250057220459
vn -0.7561119794845581 0.6541600227355957 0.01918799988925457
vn -0.8230140209197998 0.42125099897384644 -0.38104501366615295
vn -0.9848740100860596 0.14265300333499908 -0.09835699945688248
vn -0.7045909762382507 0.6120330095291138 -0.3591200113296509
vn -0.5842130184173584 0.6217210292816162 -0.5216879844665527
vn -0.4493829905986786 0.48193100094795227 -0.7521950006484985
vn -0.8230140209197998 0.42125099897384644 -0.38104501366615295
vn -0.7045909762382507 0.6120330095291138 -0.3591200113296509
vn 0.40799400210380554 0.5721210241317749 -0.7114909887313843
vn 0.27476999163627625 0.28086400032043457 -0.9195740222930908
vn -0.11422500014305115 0.24930499494075775 -0.9616649746894836
vn -0.2387010008096695 0.559723973274231 -0.7935559749603271
vn 0.9234030246734619 0.3832570016384125 0.020999999716877937
vn 0.7661539912223816 0.4287889897823334 -0.47869500517845154
vn 0.7297049760818481 0.5985440015792847 -0.33056899905204773
vn 0.8289059996604919 0.5593879818916321 2.9000000722589903e-05
vn 0.6883649826049805 0.585195004940033 0.42860400676727295
vn 0.7740899920463562 0.3472970128059387 0.5293099880218506
vn -0.6816089749336243 -0.7145479917526245 0.15757399797439575
vn -0.5766919851303101 -0.7868880033493042 0.21962200105190277
vn -0.6612370014190674 -0.3400599956512451 0.6686739921569824
vn -0.9193540215492249 -0.145237997174263 0.3656429946422577
vn -0.8443970084190369 -0.37613698840141296 0.38146400451660156
vn -0.15797099471092224 -0.9238700270652771 0.34858301281929016
vn -0.37651801109313965 -0.9214919805526733 0.0953269973397255
vn -0.7612980008125305 -0.6259369850158691 0.16919900476932526
vn -0.42451798915863037 -0.9053509831428528 -0.011121000163257122
vn -0.37762799859046936 -0.6651690006256104 -0.6441640257835388
vn 0.2740370035171509 -0.8323050141334534 -0.4818420112133026
vn 0.2652530074119568 -0.9640499949455261 0.015752999112010002
vn 0.022741999477148056 -0.8500890135765076 0.5261489748954773
vn -0.5527819991111755 -0.6748459935188293 0.48889100551605225
vn 0.03706499934196472 -0.21871499717235565 0.9750840067863464
vn 0.8095800280570984 -0.1494150012731552 0.5676760077476501
vn -0.6993309855461121 -0.5623840093612671 0.4412040114402771
vn -0.5333250164985657 -0.8070679903030396 0.25338900089263916
vn -0.39789700508117676 -0.9165840148925781 0.03939700126647949
vn -0.8324189782142639 -0.5536829829216003 -0.02267399989068508
vn 0.17068199813365936 -0.09144800156354904 -0.9810730218887329
vn -0.07076799869537354 -0.5300009846687317 -0.8450390100479126
vn 0.8481680154800415 -0.06129999831318855 -0.5261690020561218
vn 0.9941070079803467 -0.10597000271081924 0.022840000689029694
vn 0.8095800280570984 -0.1494150012731552 0.5676760077476501
vn -0.2541309893131256 -0.9612600207328796 -0.10675500333309174
vn -0.5516549944877625 -0.6328160166740417 -0.5433419942855835
vn -0.3507240116596222 -0.38454198837280273 0.8538849949836731
vn -0.5333250164985657 -0.8070679903030396 0.25338900089263916
vn -0.6993309855461121 -0.5623840093612671 0.4412040114402771
vn 0.022741999477148056 -0.8500890135765076 0.5261489748954773
vn 0.6069160103797913 -0.5920090079307556 0.5302619934082031
vn -0.168380007147789 -0.2716769874095917 0.9475439786911011
vn -0.5527819991111755 -0.6748459935188293 0.48889100551605225
vn -0.3553999960422516 -0.8756870031356812 0.326898992061615
vn -0.8162149786949158 -0.4671329855918884 0.3399690091609955
vn -0.9663619995117188 0.08997999876737595 -0.24093200266361237
vn -0.7487120032310486 -0.34900999069213867 -0.5635799765586853
vn 0.7844529747962952 -0.6201729774475098 0.004358999896794558
vn 0.6069160103797913 -0.5920090079307556 0.5302619934082031
vn 0.022741999477148056 -0.8500890135765076 0.5261489748954773
vn 0.2652530074119568 -0.9640499949455261 0.015752999112010002
vn 0.2740370035171509 -0.8323050141334534 -0.4818420112133026
vn 0.7121800184249878 -0.48685500025749207 -0.5057389736175537
vn -0.8941900134086609 0.014785000123083591 0.44744300842285156
vn -0.2253739982843399 -0.631184995174408 -0.7421669960021973
vn -0.9663619995117188 0.08997999876737595 -0.24093200266361237
vn -0.7487120032310486 -0.34900999069213867 -0.5635799765586853
vn -0.3833549916744232 0.53398597240448 0.7535899877548218
vn -0.44164401292800903 0.28843000531196594 0.8495640158653259
vn -0.11894000321626663 0.24329200387001038 0.9626330137252808
vn 0.055925000458955765 0.41426798701286316 0.9084349870681763
vn -0.5766919851303101 -0.7868880033493042 0.21962200105190277
vn -0.6612370014190674 -0.3400599956512451 0.6686739921569824
vn 0.0031330001074820757 -0.9720050096511841 0.23493799567222595
vn -0.2253739982843399 -0.631184995174408 -0.7421669960021973
vn 0.8481680154800415 -0.06129999831318855 -0.5261690020561218
vn 0.7121800184249878 -0.48685500025749207 -0.5057389736175537
vn -0.027587000280618668 -0.20398199558258057 -0.9785860180854797
vn -0.8941900134086609 0.014785000123083591 0.44744300842285156
vn -0.9905229806900024 0.1349709928035736 -0.02542000077664852
vn -0.8598830103874207 0.03692900016903877 -0.5091540217399597
vn -0.9308009743690491 -0.1606059968471527 0.32835298776626587
vn -0.9787859916687012 -0.2035830020904541 -0.023044999688863754
vn -0.9238839745521545 -0.23158299922943115 -0.30464398860931396
vn 0.2740370035171509 -0.8323050141334534 -0.4818420112133026
vn -0.37762799859046936 -0.6651690006256104 -0.6441640257835388
vn -0.5516549944877625 -0.6328160166740417 -0.5433419942855835
vn -0.8598830103874207 0.03692900016903877 -0.5091540217399597
vn -0.9238839745521545 -0.23158299922943115 -0.30464398860931396
vn -0.9308009743690491 -0.1606059968471527 0.32835298776626587
vn 0.7661539912223816 0.4287889897823334 -0.47869500517845154
vn 0.7297049760818481 0.5985440015792847 -0.33056899905204773
vn -0.07076799869537354 -0.5300009846687317 -0.8450390100479126
vn -0.2541309893131256 -0.9612600207328796 -0.10675500333309174
vn -0.017511999234557152 0.06798200309276581 -0.9975330233573914
vn 0.03916399925947189 0.747776985168457 -0.6627939939498901
vn -0.5486930012702942 0.6574450135231018 -0.516431987285614
vn -0.7640870213508606 -0.11760000139474869 -0.6343029737472534
vn -0.8421819806098938 0.5386970043182373 0.023137999698519707
vn -0.9861209988594055 -0.16033899784088135 0.04307999834418297
vn -0.7640870213508606 -0.11760000139474869 -0.6343029737472534
vn -0.5486930012702942 0.6574450135231018 -0.516431987285614
vn -0.5905290246009827 0.5165500044822693 0.6200420260429382
vn -0.7242410182952881 -0.0810839980840683 0.6847630143165588
vn -0.05583000183105469 0.10451699793338776 0.9929550290107727
vn -0.7242410182952881 -0.0810839980840683 0.6847630143165588
vn -0.5905290246009827 0.5165500044822693 0.6200420260429382
vn 0.04556399956345558 0.5897489786148071 0.8062999844551086
vn 0.6546069979667664 0.2915410101413727 0.6974909901618958
vn 0.5548890233039856 0.6539090275764465 0.5142980217933655
vn 0.9352459907531738 0.3532319962978363 0.023280000314116478
vn 0.6546069979667664 0.2915410101413727 0.6974909901618958
vn 0.5548890233039856 0.6539090275764465 0.5142980217933655
vn 0.7077789902687073 0.7053679823875427 0.03879399970173836
vn 0.7116739749908447 0.2733969986438751 -0.6471279859542847
vn 0.524196982383728 0.7492420077323914 -0.404789000749588
vn 0.7116739749908447 0.2733969986438751 -0.6471279859542847
vn 0.524196982383728 0.7492420077323914 -0.404789000749588
vn 0.7260109782218933 -0.141402006149292 0.672989010810852
vn 0.00829899962991476 -0.21389499306678772 0.976822018623352
vn 0.00821600016206503 -0.8113030195236206 0.5845680236816406
vn 0.45642799139022827 -0.797868013381958 0.3938010036945343
vn -0.7147690057754517 -0.18312899768352509 0.6749590039253235
vn -0.44148099422454834 -0.8057699799537659 0.39475199580192566
vn 0.00821600016206503 -0.8113030195236206 0.5845680236816406
vn 0.00829899962991476 -0.21389499306678772 0.976822018623352
vn -0.9936860203742981 -0.11148300021886826 -0.012612000107765198
vn -0.6174730062484741 -0.7855859994888306 -0.039765000343322754
vn -0.7085580229759216 -0.06598799675703049 -0.7025610208511353
vn -0.44126200675964355 -0.7619100213050842 -0.4741100072860718
vn 0.011082000099122524 -0.03724899888038635 -0.9992449879646301
vn 0.716389000415802 -0.02215299941599369 -0.6973490118980408
vn 0.45694801211357117 -0.7542039752006531 -0.4715670049190521
vn 0.008762000128626823 -0.7483530044555664 -0.6632429957389832
vn 0.998524010181427 -0.053630001842975616 -0.008578999899327755
vn 0.6312749981880188 -0.7745950222015381 -0.038658998906612396
vn 0.008762000128626823 -0.7483530044555664 -0.6632429957389832
vn 0.011082000099122524 -0.03724899888038635 -0.9992449879646301
vn 0.00821600016206503 -0.8113030195236206 0.5845680236816406
vn 0.017208000645041466 -0.9985700249671936 -0.05060800164937973
vn 0.45642799139022827 -0.797868013381958 0.3938010036945343
vn -0.44148099422454834 -0.8057699799537659 0.39475199580192566
vn -0.6174730062484741 -0.7855859994888306 -0.039765000343322754
vn -0.44126200675964355 -0.7619100213050842 -0.4741100072860718
vn 0.45694801211357117 -0.7542039752006531 -0.4715670049190521
vn 0.008762000128626823 -0.7483530044555664 -0.6632429957389832
vn 0.6312749981880188 -0.7745950222015381 -0.038658998906612396
vn -0.31957200169563293 -0.6432710289955139 -0.6957560181617737
vn -0.9999560117721558 0.009335000067949295 0.0
vn -0.3692390024662018 0.009153000079095364 -0.9292889833450317
vn -0.4028710126876831 -0.8964499831199646 -0.1845870018005371
vn -0.6565120220184326 -0.5061780214309692 0.5592640042304993
vn -0.5516690015792847 0.05091100186109543 0.8325080275535583
vn -0.5137249827384949 0.6444889903068542 0.5663220286369324
vn -0.4761050045490265 0.8785279989242554 -0.03889400139451027
vn -0.42394599318504333 0.6514139771461487 -0.6292300224304199
vn 0.03916399925947189 0.747776985168457 -0.6627939939498901
vn 0.0028880001045763493 0.6123489737510681 -0.790582001209259
vn -0.5985050201416016 0.5918750166893005 -0.5398849844932556
vn -0.5486930012702942 0.6574450135231018 -0.516431987285614
vn 0.03916399925947189 0.747776985168457 -0.6627939939498901
vn 0.524196982383728 0.7492420077323914 -0.404789000749588
vn 0.5841050148010254 0.6129500269889832 -0.5320850014686584
vn 0.0028880001045763493 0.6123489737510681 -0.790582001209259
vn 0.7077789902687073 0.7053679823875427 0.03879399970173836
vn 0.8216739892959595 0.5684049725532532 0.04204000160098076
vn 0.5548890233039856 0.6539090275764465 0.5142980217933655
vn 0.6121240258216858 0.4795700013637543 0.628741979598999
vn 0.04556399956345558 0.5897489786148071 0.8062999844551086
vn -0.0028019999153912067 0.42648598551750183 0.9044899940490723
vn 0.04556399956345558 0.5897489786148071 0.8062999844551086
vn -0.5905290246009827 0.5165500044822693 0.6200420260429382
vn -0.6230130195617676 0.4607760012149811 0.6320909857749939
vn -0.0028019999153912067 0.42648598551750183 0.9044899940490723
vn -0.8421819806098938 0.5386970043182373 0.023137999698519707
vn -0.843205988407135 0.5362930297851562 0.037317998707294464
vn 0.5549409985542297 0.5826619863510132 -0.5937560200691223
vn 0.593529999256134 -0.09881900250911713 -0.7987220287322998
vn -0.3692390024662018 0.009153000079095364 -0.9292889833450317
vn -0.42394599318504333 0.6514139771461487 -0.6292300224304199
vn -0.4761050045490265 0.8785279989242554 -0.03889400139451027
vn 0.47262099385261536 0.881259024143219 -0.003533999901264906
vn 0.5549409985542297 0.5826619863510132 -0.5937560200691223
vn -0.42394599318504333 0.6514139771461487 -0.6292300224304199
vn -0.5137249827384949 0.6444889903068542 0.5663220286369324
vn 0.3670470118522644 0.6407269835472107 0.674347996711731
vn -0.5516690015792847 0.05091100186109543 0.8325080275535583
vn 0.20287199318408966 -0.034338001161813736 0.9786030054092407
vn 0.3670470118522644 0.6407269835472107 0.674347996711731
vn -0.5137249827384949 0.6444889903068542 0.5663220286369324
vn -0.6565120220184326 -0.5061780214309692 0.5592640042304993
vn -0.15104199945926666 -0.6566519737243652 0.7389150261878967
vn -0.6565120220184326 -0.5061780214309692 0.5592640042304993
vn -0.4028710126876831 -0.8964499831199646 -0.1845870018005371
vn -0.43984898924827576 -0.8980140089988708 0.010165000334382057
vn -0.15104199945926666 -0.6566519737243652 0.7389150261878967
vn -0.31957200169563293 -0.6432710289955139 -0.6957560181617737
vn 0.4926829934120178 -0.6975550055503845 -0.520268976688385
vn -0.31957200169563293 -0.6432710289955139 -0.6957560181617737
vn 0.4926829934120178 -0.6975550055503845 -0.520268976688385
vn 0.4680509865283966 -0.1574849933385849 -0.8695560097694397
vn 0.7066370248794556 0.4060420095920563 -0.5794770121574402
vn 0.7565760016441345 0.17645299434661865 -0.629647970199585
vn 0.1888989955186844 -0.17414100468158722 -0.9664329886436462
vn 0.7066370248794556 0.4060420095920563 -0.5794770121574402
vn 0.7574080228805542 0.6529160141944885 0.005754000041633844
vn 0.9376320242881775 0.347553014755249 -0.007362000178545713
vn 0.7565760016441345 0.17645299434661865 -0.629647970199585
vn 0.6185100078582764 0.4494529962539673 0.6445440053939819
vn 0.7083640098571777 0.27518799901008606 0.6499940156936646
vn 0.23454800248146057 -0.0704599991440773 0.9695479869842529
vn 0.034779999405145645 0.0007329999934881926 0.9993950128555298
vn 0.7083640098571777 0.27518799901008606 0.6499940156936646
vn 0.6185100078582764 0.4494529962539673 0.6445440053939819
vn -0.4279339909553528 -0.5393199920654297 0.7252629995346069
vn -0.6950380206108093 -0.2517699897289276 0.6734499931335449
vn -0.8034380078315735 -0.5932490229606628 0.050436001271009445
vn -0.9171789884567261 -0.39751899242401123 -0.027583999559283257
vn -0.6950380206108093 -0.2517699897289276 0.6734499931335449
vn -0.4279339909553528 -0.5393199920654297 0.7252629995346069
vn -0.1364469975233078 -0.7153949737548828 -0.6852669715881348
vn -0.5485950112342834 -0.44360798597335815 -0.7087000012397766
vn -0.1364469975233078 -0.7153949737548828 -0.6852669715881348
vn -0.5485950112342834 -0.44360798597335815 -0.7087000012397766

vt 0.4391250014305115 0.18789899349212646
vt 0.45149099826812744 0.18471497297286987
vt 0.44212400913238525 0.21258598566055298
vt 0.4353480041027069 0.21061301231384277
vt 0.4992220103740692 0.14669597148895264
vt 0.5056779980659485 0.1504729986190796
vt 0.5061110258102417 0.13827002048492432
vt 0.5007359981536865 0.1385049819946289
vt 0.4876849949359894 0.13612699508666992
vt 0.4756909906864166 0.1408020257949829
vt 0.48344001173973083 0.1445549726486206
vt 0.4809800088405609 0.13297498226165771
vt 0.5244190096855164 0.13362598419189453
vt 0.5187259912490845 0.11829298734664917
vt 0.5092229843139648 0.130079984664917
vt 0.5146939754486084 0.13730502128601074
vt 0.5354899764060974 0.13280999660491943
vt 0.5414090156555176 0.10650497674942017
vt 0.5236430168151855 0.11144298315048218
vt 0.5300580263137817 0.1320819854736328
vt 0.5209649801254272 0.16797798871994019
vt 0.5021650195121765 0.16770398616790771
vt 0.5117179751396179 0.13875800371170044
vt 0.5216839909553528 0.1399180293083191
vt 0.5315049886703491 0.13827598094940186
vt 0.5396749973297119 0.16618698835372925
vt 0.48723599314689636 0.15862298011779785
vt 0.4954020082950592 0.16566002368927002
vt 0.5027790069580078 0.15667098760604858
vt 0.4963110089302063 0.15096700191497803
vt 0.4704349935054779 0.15364199876785278
vt 0.4686630070209503 0.16403597593307495
vt 0.4761649966239929 0.1647300124168396
vt 0.47843000292778015 0.1557130217552185
vt 0.4772840142250061 0.2091900110244751
vt 0.462117999792099 0.20966899394989014
vt 0.4628230035305023 0.2132520079612732
vt 0.47723498940467834 0.21184802055358887
vt 0.49700498580932617 0.21035397052764893
vt 0.4962109923362732 0.20729297399520874
vt 0.4387210011482239 0.17182499170303345
vt 0.4502109885215759 0.1646609902381897
vt 0.49782899022102356 0.1823750138282776
vt 0.4975300133228302 0.1720070242881775
vt 0.47649601101875305 0.1726440191268921
vt 0.47709399461746216 0.18347102403640747
vt 0.5430279970169067 0.09502100944519043
vt 0.5228599905967712 0.10222601890563965
vt 0.5020139813423157 0.18403702974319458
vt 0.5210369825363159 0.18555498123168945
vt 0.5396749973297119 0.18545997142791748
vt 0.46097901463508606 0.1733819842338562
vt 0.4601219892501831 0.18365001678466797
vt 0.42297500371932983 0.187811017036438
vt 0.41989898681640625 0.17828601598739624
vt 0.4283289909362793 0.17051100730895996
vt 0.43057000637054443 0.14732801914215088
vt 0.4433619976043701 0.1522660255432129
vt 0.4345720112323761 0.1554650068283081
vt 0.42741701006889343 0.14792698621749878
vt 0.464601993560791 0.15803802013397217
vt 0.4669939875602722 0.1544169783592224
vt 0.46159398555755615 0.15043199062347412
vt 0.4565789997577667 0.15463602542877197
vt 0.5196509957313538 0.19920402765274048
vt 0.538677990436554 0.19958001375198364
vt 0.5377119779586792 0.21311599016189575
vt 0.5182510018348694 0.21327900886535645
vt 0.5039610266685486 0.21218299865722656
vt 0.5036569833755493 0.1986510157585144
vt 0.4270060062408447 0.15739399194717407
vt 0.5130090117454529 0.10349398851394653
vt 0.5051609873771667 0.11277002096176147
vt 0.5071380138397217 0.10741502046585083
vt 0.42449501156806946 0.21054202318191528
vt 0.4179770052433014 0.19984400272369385
vt 0.4256010055541992 0.1948069930076599
vt 0.43093299865722656 0.2100350260734558
vt 0.4135439991950989 0.18267101049423218
vt 0.4151119887828827 0.19379401206970215
vt 0.46223801374435425 0.16399002075195312
vt 0.45446500182151794 0.16181397438049316
vt 0.5535629987716675 0.09117698669433594
vt 0.5498420000076294 0.07743197679519653
vt 0.5404099822044373 0.07842499017715454
vt 0.4962159991264343 0.19664502143859863
vt 0.4774189889431 0.19768297672271729
vt 0.46209800243377686 0.19735002517700195
vt 0.4950590133666992 0.20376700162887573
vt 0.47730299830436707 0.20605701208114624
vt 0.4642939865589142 0.20554500818252563
vt 0.5392590165138245 0.0691869854927063
vt 0.5356580018997192 0.06962698698043823
vt 0.533115029335022 0.0929669737815857
vt 0.5331429839134216 0.07969802618026733
vt 0.5313829779624939 0.07161098718643188
vt 0.4247620105743408 0.150518000125885
vt 0.5527740120887756 0.10780000686645508
vt 0.5415269732475281 0.13647300004959106
vt 0.4545150101184845 0.17216402292251587
vt 0.5227929949760437 0.0958700180053711
vt 0.26996299624443054 0.5558609962463379
vt 0.2280150055885315 0.5555599927902222
vt 0.2280150055885315 0.5001960098743439
vt 0.26809799671173096 0.5001960098743439
vt 0.2280150055885315 0.4395869970321655
vt 0.2673180103302002 0.44100797176361084
vt 0.26735299825668335 0.3761199712753296
vt 0.2280150055885315 0.3761199712753296
vt 0.2280150055885315 0.5001960098743439
vt 0.26809799671173096 0.5001960098743439
vt 0.2670449912548065 0.8206070065498352
vt 0.2657099962234497 0.8751759976148605
vt 0.2275560051202774 0.8751759976148605
vt 0.2275560051202774 0.8227960020303726
vt 0.26743799448013306 0.7499780058860779
vt 0.2275560051202774 0.7499780058860779
vt 0.2683280110359192 0.6941120028495789
vt 0.26743799448013306 0.7499780058860779
vt 0.2275560051202774 0.7499780058860779
vt 0.2275560051202774 0.685003012418747
vt 0.2694169878959656 0.6259920001029968
vt 0.2275560051202774 0.6259920001029968
vt 0.2694169878959656 0.6259920001029968
vt 0.2275560051202774 0.6259920001029968
vt 0.5169519782066345 0.023808002471923828
vt 0.5461450219154358 0.031715989112854004
vt 0.5461869835853577 0.027117013931274414
vt 0.5174840092658997 0.01935398578643799
vt 0.5021989941596985 0.09334099292755127
vt 0.5018849968910217 0.09777402877807617
vt 0.5321360230445862 0.0907440185546875
vt 0.5322499871253967 0.08575999736785889
vt 0.47069600224494934 0.09637802839279175
vt 0.47079700231552124 0.10082000494003296
vt 0.44013699889183044 0.09374701976776123
vt 0.4404599964618683 0.09835702180862427
vt 0.42659398913383484 0.03059697151184082
vt 0.45525801181793213 0.02283799648284912
vt 0.45540300011634827 0.018262028694152832
vt 0.4264029860496521 0.02572500705718994
vt 0.48601099848747253 0.020067989826202393
vt 0.48588699102401733 0.016025006771087646
vt 0.4110470116138458 0.09197300672531128
vt 0.4109629988670349 0.0870940089225769
vt 0.7730050086975098 0.23510098457336426
vt 0.7718660235404968 0.2966330051422119
vt 0.8043649792671204 0.23510098457336426
vt 0.741989016532898 0.23510098457336426
vt 0.741989016532898 0.29733002185821533
vt 0.741989016532898 0.35889601707458496
vt 0.8043649792671204 0.35889601707458496
vt 0.7733489871025085 0.35889601707458496
vt 0.8043649792671204 0.29669100046157837
vt 0.9454960227012634 0.2345070242881775
vt 0.9144989848136902 0.29668301343917847
vt 0.9144889712333679 0.2345070242881775
vt 0.9454960227012634 0.2966660261154175
vt 0.9454960227012634 0.3592759966850281
vt 0.9145079851150513 0.3592759966850281
vt 0.8830479979515076 0.3592759966850281
vt 0.8830479979515076 0.29670000076293945
vt 0.8830479979515076 0.2345070242881775
vt 0.4263170063495636 0.05660897493362427
vt 0.41920599341392517 0.06488001346588135
vt 0.44440698623657227 0.07185399532318115
vt 0.44820699095726013 0.0637969970703125
vt 0.4419640004634857 0.06060600280761719
vt 0.4627020061016083 0.051712989807128906
vt 0.457940012216568 0.04368400573730469
vt 0.4346260130405426 0.053138017654418945
vt 0.4872260093688965 0.049503982067108154
vt 0.48663800954818726 0.04173201322555542
vt 0.5126379728317261 0.05228900909423828
vt 0.5149790048599243 0.04530298709869385
vt 0.5327969789505005 0.06060600280761719
vt 0.5388439893722534 0.054894983768463135
vt 0.5180500149726868 0.05660897493362427
vt 0.49716800451278687 0.06353497505187988
vt 0.4998849928379059 0.07042497396469116
vt 0.5247349739074707 0.06348001956939697
vt 0.4723910093307495 0.06506997346878052
vt 0.47186198830604553 0.07280302047729492
vt 0.33647099137306213 0.6259920001029968
vt 0.33364900946617126 0.5547260046005249
vt 0.3514760136604309 0.5539039969444275
vt 0.3514760136604309 0.6259920001029968
vt 0.3514760136604309 0.6921209990978241
vt 0.3390809893608093 0.6932860016822815
vt 0.33647099137306213 0.6259920001029968
vt 0.3514760136604309 0.6259920001029968
vt 0.3514760136604309 0.7499780058860779
vt 0.3327600061893463 0.7499780058860779
vt 0.3514760136604309 0.8319910019636154
vt 0.3327600061893463 0.8268129974603653
vt 0.3327600061893463 0.7499780058860779
vt 0.3514760136604309 0.7499780058860779
vt 0.3514760136604309 0.8751759976148605
vt 0.3327600061893463 0.8751759976148605
vt 0.3514760136604309 0.5001960098743439
vt 0.3514760136604309 0.4371730089187622
vt 0.33364900946617126 0.43801599740982056
vt 0.33364900946617126 0.5001960098743439
vt 0.3514760136604309 0.3761199712753296
vt 0.33364900946617126 0.3761199712753296
vt 0.3514760136604309 0.5001960098743439
vt 0.33364900946617126 0.5001960098743439
vt 0.31731098890304565 0.5556089878082275
vt 0.3213529884815216 0.6259920001029968
vt 0.29400399327278137 0.6259920001029968
vt 0.2904219925403595 0.5559430122375488
vt 0.3213529884815216 0.6259920001029968
vt 0.32295098900794983 0.6943120062351227
vt 0.2938840091228485 0.6925910115242004
vt 0.29400399327278137 0.6259920001029968
vt 0.3181540071964264 0.7499780058860779
vt 0.29130399227142334 0.7499780058860779
vt 0.31182798743247986 0.8211060017347336
vt 0.28691598773002625 0.8192490041255951
vt 0.29130399227142334 0.7499780058860779
vt 0.3181540071964264 0.7499780058860779
vt 0.3049600124359131 0.8751759976148605
vt 0.28069499135017395 0.8751759976148605
vt 0.30778199434280396 0.4390450119972229
vt 0.28078699111938477 0.43975502252578735
vt 0.2829500138759613 0.5001960098743439
vt 0.3116309940814972 0.5001960098743439
vt 0.30621299147605896 0.3761199712753296
vt 0.28022998571395874 0.3761199712753296
vt 0.3116309940814972 0.5001960098743439
vt 0.2829500138759613 0.5001960098743439

usemtl Material

f 1/1/1 2/2/2 3/3/3
f 3/3/3 4/4/4 1/1/1
f 5/5/5 6/6/6 7/7/7
f 7/7/7 8/8/8 5/5/5
f 5/5/5 8/8/8 9/9/9
f 10/10/10 11/11/11 9/9/9
f 9/9/9 12/12/12 10/10/10
f 13/13/13 14/14/14 15/15/15
f 15/15/15 16/16/16 13/13/13
f 17/17/17 18/18/18 19/19/19
f 19/19/19 20/20/20 17/17/17
f 21/21/21 22/22/22 23/23/23
f 23/23/23 24/24/24 21/21/21
f 25/25/25 26/26/26 21/21/21
f 21/21/21 24/24/24 25/25/25
f 27/27/27 28/28/28 29/29/29
f 29/29/29 30/30/30 27/27/27
f 31/31/31 32/32/32 33/33/33
f 33/33/33 34/34/34 31/31/31
f 35/35/35 36/36/36 37/37/37
f 37/37/37 38/38/38 35/35/35
f 38/38/38 39/39/39 40/40/40
f 40/40/40 35/35/35 38/38/38
f 2/2/2 1/1/1 41/41/41
f 41/41/41 42/42/42 2/2/2
f 43/43/43 44/44/44 45/45/45
f 45/45/45 46/46/46 43/43/43
f 18/18/18 47/47/47 48/48/48
f 48/48/48 19/19/19 18/18/18
f 49/49/49 22/22/22 21/21/21
f 21/21/21 50/50/50 49/49/49
f 21/21/21 26/26/26 51/51/51
f 51/51/51 50/50/50 21/21/21
f 46/46/46 45/45/45 52/52/52
f 52/52/52 53/53/53 46/46/46
f 54/54/54 55/55/55 56/56/56
f 56/56/56 41/41/41 54/54/54
f 57/57/57 58/58/58 59/59/59
f 59/59/59 60/60/60 57/57/57
f 33/33/33 28/28/28 27/27/27
f 27/27/27 34/34/34 33/33/33
f 34/34/34 11/11/11 10/10/10
f 10/10/10 31/31/31 34/34/34
f 27/27/27 30/30/30 11/11/11
f 11/11/11 34/34/34 27/27/27
f 61/61/61 62/62/62 63/63/63
f 63/63/63 64/64/64 61/61/61
f 65/65/65 66/66/66 67/67/67
f 67/67/67 68/68/68 65/65/65
f 69/69/69 70/70/70 65/65/65
f 65/65/65 68/68/68 69/69/69
f 56/56/56 71/71/71 59/59/59
f 59/59/59 41/41/41 56/56/56
f 31/31/31 10/10/10 63/63/63
f 63/63/63 62/62/62 31/31/31
f 61/61/61 32/32/32 31/31/31
f 31/31/31 62/62/62 61/61/61
f 72/72/72 19/19/19 48/48/48
f 73/73/73 15/15/15 14/14/14
f 14/14/14 74/74/74 73/73/73
f 75/75/75 76/76/76 77/77/77
f 77/77/77 78/78/78 75/75/75
f 79/79/79 55/55/55 54/54/54
f 54/54/54 80/80/80 79/79/79
f 45/45/45 44/44/44 28/28/28
f 28/28/28 33/33/33 45/45/45
f 32/32/32 52/52/52 45/45/45
f 45/45/45 33/33/33 32/32/32
f 32/32/32 61/61/61 81/81/81
f 81/81/81 52/52/52 32/32/32
f 81/81/81 61/61/61 64/64/64
f 64/64/64 82/82/82 81/81/81
f 14/14/14 19/19/19 72/72/72
f 72/72/72 74/74/74 14/14/14
f 14/14/14 13/13/13 20/20/20
f 20/20/20 19/19/19 14/14/14
f 83/83/83 84/84/84 85/85/85
f 85/85/85 47/47/47 83/83/83
f 70/70/70 49/49/49 50/50/50
f 50/50/50 65/65/65 70/70/70
f 50/50/50 51/51/51 66/66/66
f 66/66/66 65/65/65 50/50/50
f 42/42/42 41/41/41 59/59/59
f 59/59/59 58/58/58 42/42/42
f 86/86/86 43/43/43 46/46/46
f 46/46/46 87/87/87 86/86/86
f 46/46/46 53/53/53 88/88/88
f 88/88/88 87/87/87 46/46/46
f 89/89/89 86/86/86 87/87/87
f 87/87/87 90/90/90 89/89/89
f 87/87/87 88/88/88 91/91/91
f 91/91/91 90/90/90 87/87/87
f 85/85/85 84/84/84 92/92/92
f 92/92/92 93/93/93 85/85/85
f 94/94/94 47/47/47 85/85/85
f 85/85/85 95/95/95 94/94/94
f 95/95/95 85/85/85 93/93/93
f 93/93/93 96/96/96 95/95/95
f 91/91/91 36/36/36 35/35/35
f 35/35/35 90/90/90 91/91/91
f 35/35/35 40/40/40 89/89/89
f 89/89/89 90/90/90 35/35/35
f 60/60/60 59/59/59 71/71/71
f 71/71/71 97/97/97 60/60/60
f 98/98/98 83/83/83 47/47/47
f 47/47/47 18/18/18 98/98/98
f 18/18/18 17/17/17 99/99/99
f 99/99/99 98/98/98 18/18/18
f 4/4/4 78/78/78 77/77/77
f 77/77/77 1/1/1 4/4/4
f 1/1/1 77/77/77 54/54/54
f 54/54/54 41/41/41 1/1/1
f 80/80/80 54/54/54 77/77/77
f 77/77/77 76/76/76 80/80/80
f 30/30/30 29/29/29 6/6/6
f 6/6/6 5/5/5 30/30/30
f 9/9/9 11/11/11 30/30/30
f 30/30/30 5/5/5 9/9/9
f 81/81/81 82/82/82 100/100/100
f 100/100/100 52/52/52 81/81/81
f 48/48/48 47/47/47 94/94/94
f 94/94/94 101/101/101 48/48/48
f 102/102/102 103/103/103 104/104/104
f 104/104/104 105/105/105 102/102/102
f 106/106/106 107/107/107 108/108/108
f 108/108/108 109/109/109 106/106/106
f 110/110/110 111/111/111 107/107/107
f 107/107/107 106/106/106 110/110/110
f 112/112/112 113/113/113 114/114/114
f 114/114/114 115/115/115 112/112/112
f 116/116/116 112/112/112 115/115/115
f 115/115/115 117/117/117 116/116/116
f 118/118/118 119/119/119 120/120/120
f 120/120/120 121/121/121 118/118/118
f 122/122/122 118/118/118 121/121/121
f 121/121/121 123/123/123 122/122/122
f 103/103/103 102/102/102 124/124/124
f 124/124/124 125/125/125 103/103/103
f 126/126/126 127/127/127 128/128/128
f 128/128/128 129/129/129 126/126/126
f 130/130/130 131/131/131 132/132/132
f 132/132/132 133/133/133 130/130/130
f 130/130/130 134/134/134 135/135/135
f 135/135/135 131/131/131 130/130/130
f 135/135/135 134/134/134 136/136/136
f 136/136/136 137/137/137 135/135/135
f 138/138/138 139/139/139 140/140/140
f 140/140/140 141/141/141 138/138/138
f 139/139/139 142/142/142 143/143/143
f 143/143/143 140/140/140 139/139/139
f 142/142/142 126/126/126 129/129/129
f 129/129/129 143/143/143 142/142/142
f 144/144/144 137/137/137 136/136/136
f 136/136/136 145/145/145 144/144/144
f 146/146/146 147/147/147 148/148/148
f 149/149/149 147/147/147 146/146/146
f 150/150/150 147/147/147 149/149/149
f 151/151/151 147/147/147 150/150/150
f 152/152/152 147/147/147 153/153/153
f 154/154/154 147/147/147 152/152/152
f 148/148/148 147/147/147 154/154/154
f 153/153/153 147/147/147 151/151/151
f 155/155/155 156/156/156 157/157/157
f 158/158/158 156/156/156 155/155/155
f 159/159/159 156/156/156 158/158/158
f 160/160/160 156/156/156 159/159/159
f 161/161/161 156/156/156 160/160/160
f 162/162/162 156/156/156 161/161/161
f 163/163/163 156/156/156 162/162/162
f 157/157/157 156/156/156 163/163/163
f 164/164/164 165/165/165 166/166/166
f 166/166/166 167/167/167 164/164/164
f 168/168/168 169/169/169 170/170/170
f 170/170/170 171/171/171 168/168/168
f 169/169/169 172/172/172 173/173/173
f 173/173/173 170/170/170 169/169/169
f 172/172/172 174/174/174 175/175/175
f 175/175/175 173/173/173 172/172/172
f 175/175/175 174/174/174 176/176/176
f 176/176/176 177/177/177 175/175/175
f 178/178/178 179/179/179 180/180/180
f 180/180/180 181/181/181 178/178/178
f 180/180/180 179/179/179 182/182/182
f 182/182/182 183/183/183 180/180/180
f 183/183/183 182/182/182 167/167/167
f 167/167/167 166/166/166 183/183/183
f 184/184/184 185/185/185 186/186/186
f 186/186/186 187/187/187 184/184/184
f 188/188/188 189/189/189 190/190/190
f 190/190/190 191/191/191 188/188/188
f 192/192/192 193/193/193 189/189/189
f 189/189/189 188/188/188 192/192/192
f 194/194/194 195/195/195 196/196/196
f 196/196/196 197/197/197 194/194/194
f 198/198/198 199/199/199 195/195/195
f 195/195/195 194/194/194 198/198/198
f 200/200/200 201/201/201 202/202/202
f 202/202/202 203/203/203 200/200/200
f 201/201/201 204/204/204 205/205/205
f 205/205/205 202/202/202 201/201/201
f 206/206/206 186/186/186 185/185/185
f 185/185/185 207/207/207 206/206/206
f 208/208/208 209/209/209 210/210/210
f 210/210/210 211/211/211 208/208/208
f 212/212/212 213/213/213 214/214/214
f 214/214/214 215/215/215 212/212/212
f 216/216/216 217/217/217 214/214/214
f 214/214/214 213/213/213 216/216/216
f 218/218/218 219/219/219 220/220/220
f 220/220/220 221/221/221 218/218/218
f 222/222/222 223/223/223 219/219/219
f 219/219/219 218/218/218 222/222/222
f 224/224/224 225/225/225 226/226/226
f 226/226/226 227/227/227 224/224/224
f 224/224/224 228/228/228 229/229/229
f 229/229/229 225/225/225 224/224/224
f 230/230/230 208/208/208 211/211/211
f 211/211/211 231/231/231 230/230/230
f 209/209/209 208/208/208 185/185/185
f 185/185/185 184/184/184 209/209/209
f 189/189/189 213/213/213 212/212/212
f 212/212/212 190/190/190 189/189/189
f 193/193/193 216/216/216 213/213/213
f 213/213/213 189/189/189 193/193/193
f 195/195/195 218/218/218 221/221/221
f 221/221/221 196/196/196 195/195/195
f 199/199/199 222/222/222 218/218/218
f 218/218/218 195/195/195 199/199/199
f 202/202/202 224/224/224 227/227/227
f 227/227/227 203/203/203 202/202/202
f 202/202/202 205/205/205 228/228/228
f 228/228/228 224/224/224 202/202/202
f 208/208/208 230/230/230 207/207/207
f 207/207/207 185/185/185 208/208/208
f 211/211/211 210/210/210 124/124/124
f 124/124/124 102/102/102 211/211/211
f 231/231/231 211/211/211 102/102/102
f 102/102/102 105/105/105 231/231/231
f 225/225/225 229/229/229 108/108/108
f 108/108/108 107/107/107 225/225/225
f 226/226/226 225/225/225 107/107/107
f 107/107/107 111/111/111 226/226/226
f 223/223/223 113/113/113 112/112/112
f 112/112/112 219/219/219 223/223/223
f 219/219/219 112/112/112 116/116/116
f 116/116/116 220/220/220 219/219/219
f 217/217/217 119/119/119 118/118/118
f 118/118/118 214/214/214 217/217/217
f 214/214/214 118/118/118 122/122/122
f 122/122/122 215/215/215 214/214/214
f 138/138/138 171/171/171 170/170/170
f 170/170/170 139/139/139 138/138/138
f 170/170/170 173/173/173 142/142/142
f 142/142/142 139/139/139 170/170/170
f 173/173/173 175/175/175 126/126/126
f 126/126/126 142/142/142 173/173/173
f 175/175/175 177/177/177 127/127/127
f 127/127/127 126/126/126 175/175/175
f 180/180/180 130/130/130 133/133/133
f 133/133/133 181/181/181 180/180/180
f 130/130/130 180/180/180 183/183/183
f 183/183/183 134/134/134 130/130/130
f 134/134/134 183/183/183 166/166/166
f 166/166/166 136/136/136 134/134/134
f 165/165/165 145/145/145 136/136/136
f 136/136/136 166/166/166 165/165/165