o Mesh

v 0.09680002927780151 -0.5812000036239624 0.06780000030994415
v -0.015799999237060547 -0.5886000394821167 -0.030400000512599945
v -0.028400003910064697 -0.5188000202178955 -0.006000000052154064
v 0.08910000324249268 -0.5099999904632568 0.0722000002861023
v -0.1256999969482422 0.8077999949455261 0.4812000095844269
v -0.010600000619888306 0.7985000014305115 0.2093999981880188
v -0.31209999322891235 0.8680999875068665 0.20739999413490295
v -0.328000009059906 0.8118000030517578 0.5526999831199646
v 0.11820000410079956 -0.5297000408172607 0.39730000495910645
v -0.016499996185302734 -0.554900050163269 0.4957999885082245
v -0.004999995231628418 -0.621399998664856 0.42410001158714294
v 0.10360002517700195 -0.601699948310852 0.35359999537467957
v 0.07440000772476196 -1.146399974822998 0.43689998984336853
v 0.01789999008178711 -1.1711000204086304 0.4893999993801117
v -0.029900014400482178 -1.2437000274658203 0.09529999643564224
v 0.03270000219345093 -1.23580002784729 0.09489999711513519
v 0.10360002517700195 -0.601699948310852 0.35359999537467957
v 0.16750001907348633 -0.5830999612808228 0.21819999814033508
v 0.18080002069473267 -0.5091999769210815 0.23409999907016754
v 0.11820000410079956 -0.5297000408172607 0.39730000495910645
v -0.20640000700950623 -0.5607999563217163 0.23960000276565552
v -0.16870000958442688 -0.6279000043869019 0.22300000488758087
v -0.125 -0.6313999891281128 0.34630000591278076
v -0.16580000519752502 -0.5667999982833862 0.3912000060081482
v -0.125 0.7590999603271484 -0.035599999129772186
v 0.00010001659393310547 0.6244999766349792 -0.019700000062584877
v -0.2667999863624573 0.5697000026702881 -0.16459999978542328
v -0.336899995803833 0.7860000133514404 -0.10050000250339508
v -0.6283999681472778 0.5651999711990356 0.2328999936580658
v -0.5572999715805054 0.5848000049591064 0.44510000944137573
v -0.5442000031471252 0.7483000159263611 0.4388999938964844
v -0.6184999942779541 0.8234000205993652 0.2084999978542328
v -0.1256999969482422 0.8077999949455261 0.4812000095844269
v -0.328000009059906 0.8118000030517578 0.5526999831199646
v -0.25920000672340393 0.6208000183105469 0.6534000039100647
v 0.001399993896484375 0.6703000068664551 0.4909999966621399
v 0.001399993896484375 0.6703000068664551 0.4909999966621399
v 0.11629998683929443 0.6608999967575073 0.22179999947547913
v -0.010600000619888306 0.7985000014305115 0.2093999981880188
v -0.1256999969482422 0.8077999949455261 0.4812000095844269
v 0.040499985218048096 0.03290000557899475 0.11980000138282776
v 0.016499996185302734 -0.0666000247001648 0.15539999306201935
v -0.13440001010894775 -0.09869998693466187 0.0674000009894371
v -0.15189999341964722 -0.0070999860763549805 0.016200000420212746
v -0.3418000042438507 -0.11019998788833618 0.29829999804496765
v -0.2921999990940094 -0.08929997682571411 0.4399999976158142
v -0.3467000126838684 0.0026000142097473145 0.4560999870300293
v -0.396699994802475 -0.02069997787475586 0.2888000011444092
v -0.022000014781951904 0.025400012731552124 0.5289999842643738
v -0.1461000144481659 0.010800004005432129 0.602400004863739
v -0.13199999928474426 -0.06330001354217529 0.6008999943733215
v -0.0026000142097473145 -0.05620002746582031 0.515999972820282
v 0.04110002517700195 0.06439998745918274 0.4611000120639801
v 0.017000019550323486 -0.039900004863739014 0.44440001249313354
v 0.09799998998641968 -0.04119998216629028 0.29109999537467957
v 0.1226000189781189 0.06069999933242798 0.28029999136924744
v -0.11739999055862427 -0.21929997205734253 0.025100000202655792
v 0.02950000762939453 -0.2028999924659729 0.0966000035405159
v -0.2864000201225281 -0.27630001306533813 0.43149998784065247
v -0.3375999927520752 -0.2727000117301941 0.2768999934196472
v 0.07050001621246338 -0.22109997272491455 0.4361000061035156
v -0.10330000519752502 -0.2559000253677368 0.5375000238418579
v 0.14319998025894165 -0.1972000002861023 0.26919999718666077
v 0.07050001621246338 -0.22109997272491455 0.4361000061035156
v -0.23240000009536743 0.28189998865127563 -0.09120000153779984
v 0.0045999884605407715 0.2971999943256378 0.07490000128746033
v -0.5688999891281128 0.3303999900817871 0.43540000915527344
v -0.6305000185966492 0.31349998712539673 0.25209999084472656
v 0.005200028419494629 0.3314000070095062 0.44679999351501465
v -0.23120000958442688 0.34219998121261597 0.5634999871253967
v -0.1509000062942505 0.044200003147125244 0.570900022983551
v 0.04110002517700195 0.06439998745918274 0.4611000120639801
v 0.10589998960494995 0.313400000333786 0.25110000371932983
v 0.005200028419494629 0.3314000070095062 0.44679999351501465
v -0.109499990940094 -0.21950000524520874 0.5777000188827515
v 0.00550001859664917 -0.19679999351501465 0.5092999935150146
v -0.3472000062465668 -0.026899993419647217 0.13729999959468842
v -0.29269999265670776 -0.11419999599456787 0.16979999840259552
v -0.2944999933242798 -0.25540000200271606 0.13689999282360077
v -0.17260000109672546 -0.5461000204086304 0.10279999673366547
v -0.13119998574256897 -0.6122000217437744 0.08150000125169754
v 0.04309999942779541 -0.8743000030517578 0.12039999663829803
v 0.028199970722198486 -0.8826999664306641 0.49149999022483826
v -0.08230000734329224 -0.8234000205993652 0.33570000529289246
v -0.0909000039100647 -0.8105000257492065 0.12639999389648438
v -0.16580000519752502 -0.5667999982833862 0.3912000060081482
v -0.125 -0.6313999891281128 0.34630000591278076
v -0.2864000201225281 -0.27630001306533813 0.43149998784065247
v -0.2667999863624573 -0.09839999675750732 0.5113999843597412
v -0.2305999994277954 -0.23320001363754272 0.5034999847412109
v -0.27310001850128174 -0.015299975872039795 0.5227000117301941
v -0.5688999891281128 0.3303999900817871 0.43540000915527344
v -0.3467000126838684 0.0026000142097473145 0.4560999870300293
v -0.6223999857902527 0.7655999660491943 0.47209998965263367
v -0.5821999907493591 0.5733000040054321 0.49399998784065247
v -0.6401000022888184 0.8553000092506409 0.20649999380111694
v -0.6223999857902527 0.7655999660491943 0.47209998965263367
v -0.5964999794960022 0.5297999978065491 -0.003000000026077032
v -0.6367000341415405 0.720300018787384 -0.016300000250339508
v -0.5694999694824219 0.29839998483657837 0.08780000358819962
v 0.016499996185302734 -0.0666000247001648 0.15539999306201935
v 0.040499985218048096 0.03290000557899475 0.11980000138282776
v 0.02950000762939453 -0.2028999924659729 0.0966000035405159
v 0.08910000324249268 -0.5099999904632568 0.0722000002861023
v 0.09680002927780151 -0.5812000036239624 0.06780000030994415
v 0.02249997854232788 -1.2476999759674072 -0.05849999934434891
v 0.03270000219345093 -1.23580002784729 0.09489999711513519
v -0.029900014400482178 -1.2437000274658203 0.09529999643564224
v -0.030099987983703613 -1.2374999523162842 -0.07569999992847443
v -0.15320000052452087 -0.823699951171875 0.03359999880194664
v 0.008899986743927002 -0.8624000549316406 -0.10119999945163727
v -0.17260000109672546 -0.5461000204086304 0.10279999673366547
v -0.13119998574256897 -0.6122000217437744 0.08150000125169754
v -0.2944999933242798 -0.25540000200271606 0.13689999282360077
v -0.29269999265670776 -0.11419999599456787 0.16979999840259552
v -0.3472000062465668 -0.026899993419647217 0.13729999959468842
v -0.5694999694824219 0.29839998483657837 0.08780000358819962
v -0.5449000000953674 0.7095000147819519 0.018400000408291817
v -0.5579999685287476 0.5476999878883362 0.042500000447034836
v -0.336899995803833 0.7860000133514404 -0.10050000250339508
v -0.6367000341415405 0.720300018787384 -0.016300000250339508
v -0.125 0.7590999603271484 -0.035599999129772186
v 0.00010001659393310547 0.6244999766349792 -0.019700000062584877
v -0.125 0.7590999603271484 -0.035599999129772186
v 0.0045999884605407715 0.2971999943256378 0.07490000128746033
v -0.178600013256073 0.2856999933719635 -0.1868000030517578
v 0.07069998979568481 0.335999995470047 0.030899999663233757
v -0.5767999887466431 0.30250000953674316 -0.014399999752640724
v -0.5713000297546387 0.34850001335144043 0.5371999740600586
v -0.17599999904632568 0.3578999936580658 0.6588000059127808
v 0.07099997997283936 0.37400001287460327 0.4828000068664551
v 0.07099997997283936 0.37400001287460327 0.4828000068664551
v 0.16949999332427979 0.36550000309944153 0.2451000064611435
v 0.07069998979568481 0.335999995470047 0.030899999663233757
v 0.11159998178482056 -0.684499979019165 0.3456999957561493
v 0.001100003719329834 -0.7041000127792358 0.4124000072479248
v 0.028199970722198486 -0.8826999664306641 0.49149999022483826
v 0.2031000256538391 -0.872499942779541 0.3749000132083893
v 0.17640000581741333 -0.6655000448226929 0.20600000023841858
v 0.1736999750137329 -0.8562999963760376 0.1071000024676323
v 0.001100003719329834 -0.7041000127792358 0.4124000072479248
v -0.12059998512268066 -0.7144999504089355 0.3370000123977661
v -0.16499999165534973 -0.7108999490737915 0.21070000529289246
v 0.11390000581741333 -0.6371999979019165 0.030500000342726707
v 0.12540000677108765 -0.857200026512146 -0.05790000036358833
v -0.01019999384880066 -0.6444000005722046 -0.09120000153779984
v 0.008899986743927002 -0.8624000549316406 -0.10119999945163727
v -0.23739999532699585 -0.9462000131607056 -0.2849000096321106
v -0.17629998922348022 -0.9451999664306641 -0.3483999967575073
v -0.1234000027179718 -1.0008000135421753 -0.3447999954223633
v -0.24059998989105225 -1.0242999792099 -0.24869999289512634
v -0.1274000108242035 -0.6937999725341797 0.04910000041127205
v -0.20249998569488525 -0.8092999458312988 -0.1437000036239624
v -0.1274000108242035 -0.6937999725341797 0.04910000041127205
v -0.01019999384880066 -0.6444000005722046 -0.09120000153779984
v -0.14559999108314514 -0.7992000579833984 -0.20800000429153442
v -0.15320000052452087 -0.823699951171875 0.03359999880194664
v -0.20759999752044678 -0.8573000431060791 -0.0738999992609024
v -0.20759999752044678 -0.8573000431060791 -0.0738999992609024
v -0.08660000562667847 -0.8578000068664551 -0.19830000400543213
v -0.14559999108314514 -0.7992000579833984 -0.20800000429153442
v -0.08660000562667847 -0.8578000068664551 -0.19830000400543213
v 0.15240001678466797 -1.0188000202178955 0.4302999973297119
v 0.06690001487731934 -1.0276999473571777 0.4909000098705292
v 0.12999999523162842 -1.0555000305175781 0.09480000287294388
v 0.06690001487731934 -1.0276999473571777 0.4909000098705292
v 0.050999999046325684 -1.0679999589920044 0.09560000151395798
v 0.12999999523162842 -1.0555000305175781 0.09480000287294388
v 0.10650002956390381 -1.0434000492095947 -0.04780000075697899
v 0.05290001630783081 -1.0391000509262085 -0.07010000199079514
v 0.05290001630783081 -1.0391000509262085 -0.07010000199079514
v 0.050999999046325684 -1.0679999589920044 0.09560000151395798
v 0.01789999008178711 -1.1711000204086304 0.4893999993801117
v -0.029900014400482178 -1.2437000274658203 0.09529999643564224
v -0.030099987983703613 -1.2374999523162842 -0.07569999992847443
v -0.029900014400482178 -1.2437000274658203 0.09529999643564224
v -0.24059998989105225 -1.0242999792099 -0.24869999289512634
v -0.1234000027179718 -1.0008000135421753 -0.3447999954223633
v -0.17629998922348022 -0.9451999664306641 -0.3483999967575073
v -0.1234000027179718 -1.0008000135421753 -0.3447999954223633
v 0.11159998178482056 -0.684499979019165 0.3456999957561493
v 0.17640000581741333 -0.6655000448226929 0.20600000023841858
v 0.11159998178482056 -0.684499979019165 0.3456999957561493
v 0.001100003719329834 -0.7041000127792358 0.4124000072479248
v -0.12059998512268066 -0.7144999504089355 0.3370000123977661
v -0.16499999165534973 -0.7108999490737915 0.21070000529289246
v -0.12059998512268066 -0.7144999504089355 0.3370000123977661
v -0.1274000108242035 -0.6937999725341797 0.04910000041127205
v -0.01019999384880066 -0.6444000005722046 -0.09120000153779984
v -0.1274000108242035 -0.6937999725341797 0.04910000041127205
v 0.11390000581741333 -0.6371999979019165 0.030500000342726707
v 0.11390000581741333 -0.6371999979019165 0.030500000342726707
v -0.5442000031471252 0.7483000159263611 0.4388999938964844
v -0.5572999715805054 0.5848000049591064 0.44510000944137573
v -0.6223999857902527 0.7655999660491943 0.47209998965263367
v -0.6401000022888184 0.8553000092506409 0.20649999380111694
v -0.5579999685287476 0.5476999878883362 0.042500000447034836
v -0.5449000000953674 0.7095000147819519 0.018400000408291817
v -0.6367000341415405 0.720300018787384 -0.016300000250339508
v 0.017000019550323486 -0.039900004863739014 0.44440001249313354
v -0.2921999990940094 -0.08929997682571411 0.4399999976158142

vn 0.7579299807548523 0.31268200278282166 -0.5725150108337402
vn -0.09870400279760361 0.40479201078414917 -0.9090660214424133
vn -0.04541200026869774 0.10167799890041351 -0.9937800168991089
vn 0.7167840003967285 0.16741499304771423 -0.6768990159034729
vn 0.44548699259757996 0.7827469706535339 0.43456700444221497
vn 0.4809759855270386 0.8729270100593567 -0.08160799741744995
vn 0.02208700031042099 0.9968900084495544 -0.07564099878072739
vn 0.004029000177979469 0.7870190143585205 0.6169160008430481
vn 0.7789009809494019 -0.20529699325561523 0.5925930142402649
vn 0.07002399861812592 -0.4603860080242157 0.8849530220031738
vn 0.059836000204086304 -0.4373359978199005 0.8973050117492676
vn 0.7667139768600464 -0.23095500469207764 0.5990070104598999
vn 0.6893090009689331 -0.6425909996032715 0.33456000685691833
vn 0.031929999589920044 -0.6808450222015381 0.7317320108413696
vn -0.7937269806861877 -0.5953829884529114 0.12456600368022919
vn 0.588936984539032 -0.807774007320404 0.02558100037276745
vn 0.7667139768600464 -0.23095500469207764 0.5990070104598999
vn 0.9998440146446228 0.01462399959564209 -0.009922999888658524
vn 0.9974070191383362 -0.004594999831169844 -0.07181400060653687
vn 0.7789009809494019 -0.20529699325561523 0.5925930142402649
vn -0.8868970274925232 -0.46144500374794006 -0.021956000477075577
vn -0.9571279883384705 -0.2894110083580017 0.012130999937653542
vn -0.7213929891586304 -0.41347500681877136 0.5555449724197388
vn -0.6759560108184814 -0.5289520025253296 0.5131210088729858
vn 0.462458997964859 0.6804100275039673 -0.5684840083122253
vn 0.6646159887313843 0.3093680143356323 -0.6801300048828125
vn 0.03852900117635727 0.11910899728536606 -0.9921330213546753
vn 0.013927999883890152 0.6702619791030884 -0.7419940233230591
vn -0.9995049834251404 0.025800000876188278 -0.017976999282836914
vn -0.9959049820899963 -0.0037879999727010727 -0.09032599627971649
vn -0.8810520172119141 -0.3818419873714447 -0.2791840136051178
vn -0.8699470162391663 -0.4902079999446869 0.05374300107359886
vn 0.44548699259757996 0.7827469706535339 0.43456700444221497
vn 0.004029000177979469 0.7870190143585205 0.6169160008430481
vn 0.04126099869608879 0.2320680022239685 0.9718239903450012
vn 0.6757969856262207 0.4026130139827728 0.6174150109291077
vn 0.6757969856262207 0.4026130139827728 0.6174150109291077
vn 0.8929849863052368 0.4462130069732666 -0.05892699956893921
vn 0.4809759855270386 0.8729270100593567 -0.08160799741744995
vn 0.44548699259757996 0.7827469706535339 0.43456700444221497
vn 0.7275350093841553 -0.20098499953746796 -0.6559709906578064
vn 0.7043439745903015 0.0020940001122653484 -0.7098550200462341
vn -0.021556999534368515 -0.09722200036048889 -0.9950289726257324
vn 0.05396300181746483 -0.41175299882888794 -0.9096969962120056
vn -0.9570770263671875 -0.28913700580596924 0.02008499950170517
vn -0.8650550246238708 -0.2658880054950714 0.4254220128059387
vn -0.750603973865509 -0.22885699570178986 0.6198539733886719
vn -0.8283630013465881 -0.5588669776916504 0.03851199895143509
vn 0.6346880197525024 0.22368599474430084 0.7396860122680664
vn -0.05892999842762947 0.33324599266052246 0.940995991230011
vn 0.012672999873757362 -0.09502699971199036 0.9953939914703369
vn 0.723160982131958 0.012187999673187733 0.69057297706604
vn 0.7576919794082642 0.13421499729156494 0.6386619806289673
vn 0.8844469785690308 0.010280000045895576 0.4665290117263794
vn 0.9996830224990845 -0.00035799999022856355 -0.025174999609589577
vn 0.9942349791526794 -0.10652100294828415 -0.012242999859154224
vn -0.07008499652147293 0.19512300193309784 -0.978272020816803
vn 0.6448150277137756 0.27376601099967957 -0.7136290073394775
vn -0.7543540000915527 -0.35042300820350647 0.5551159977912903
vn -0.978331983089447 -0.20681199431419373 -0.009739999659359455
vn 0.7971450090408325 -0.03353400155901909 0.6028559803962708
vn 0.07287800312042236 -0.4767189919948578 0.8760290145874023
vn 0.9728019833564758 0.22250500321388245 -0.06440600007772446
vn 0.7971450090408325 -0.03353400155901909 0.6028559803962708
vn 0.07789000123739243 -0.8106200098991394 -0.5803689956665039
vn 0.6555560231208801 -0.5789499878883362 -0.4848339855670929
vn -0.8153939843177795 -0.4223079979419708 0.3959670066833496
vn -0.9545509815216064 -0.297775000333786 0.012753999792039394
vn 0.6514700055122375 -0.47626298666000366 0.5905600190162659
vn 0.0683249980211258 -0.6586650013923645 0.7493280172348022
vn -0.04145300015807152 0.3461399972438812 0.937267005443573
vn 0.7576919794082642 0.13421499729156494 0.6386619806289673
vn 0.8832100033760071 -0.46852999925613403 0.02049900032579899
vn 0.6514700055122375 -0.47626298666000366 0.5905600190162659
vn 0.06727699935436249 -0.4602639973163605 0.8852289915084839
vn 0.6800860166549683 -0.1773650050163269 0.7113540172576904
vn -0.6443470120429993 -0.5449550151824951 -0.5365080237388611
vn -0.7635149955749512 -0.23086999356746674 -0.6031129956245422
vn -0.7920889854431152 -0.05585300177335739 -0.6078450083732605
vn -0.7849100232124329 -0.2380789965391159 -0.5720450282096863
vn -0.8667740225791931 -0.019255999475717545 -0.4983290135860443
vn -0.7841879725456238 -0.6193869709968567 0.03753200173377991
vn -0.4247959852218628 -0.18753600120544434 0.8856509923934937
vn -0.7822849750518799 -0.5411149859428406 0.308584988117218
vn -0.6963319778442383 -0.7143210172653198 0.0697690024971962
vn -0.6759560108184814 -0.5289520025253296 0.5131210088729858
vn -0.7213929891586304 -0.41347500681877136 0.5555449724197388
vn -0.7543540000915527 -0.35042300820350647 0.5551159977912903
vn -0.6856139898300171 -0.21083399653434753 0.6967660188674927
vn -0.591280996799469 -0.37349599599838257 0.7147639989852905
vn -0.6690509915351868 0.008871999569237232 0.7431640028953552
vn -0.8153939843177795 -0.4223079979419708 0.3959670066833496
vn -0.750603973865509 -0.22885699570178986 0.6198539733886719
vn -0.988120973110199 0.11332599818706512 0.10379700362682343
vn -0.9354680180549622 0.03359299898147583 0.3518120050430298
vn -0.9816880226135254 0.18089500069618225 0.059716999530792236
vn -0.988120973110199 0.11332599818706512 0.10379700362682343
vn -0.9558770060539246 0.018233999609947205 -0.2932020127773285
vn -0.9925680160522461 0.11800400167703629 -0.029728999361395836
vn -0.8111119866371155 -0.5090669989585876 -0.28800898790359497
vn 0.7043439745903015 0.0020940001122653484 -0.7098550200462341
vn 0.7275350093841553 -0.20098499953746796 -0.6559709906578064
vn 0.6448150277137756 0.27376601099967957 -0.7136290073394775
vn 0.7167840003967285 0.16741499304771423 -0.6768990159034729
vn 0.7579299807548523 0.31268200278282166 -0.5725150108337402
vn 0.5517870187759399 -0.6925250291824341 -0.46469399333000183
vn 0.588936984539032 -0.807774007320404 0.02558100037276745
vn -0.7937269806861877 -0.5953829884529114 0.12456600368022919
vn -0.47250598669052124 -0.5480440258979797 -0.6902070045471191
vn -0.7325320243835449 -0.6499339938163757 0.20244200527668
vn 0.08095599710941315 -0.6226040124893188 -0.7783380150794983
vn -0.7849100232124329 -0.2380789965391159 -0.5720450282096863
vn -0.8667740225791931 -0.019255999475717545 -0.4983290135860443
vn -0.7920889854431152 -0.05585300177335739 -0.6078450083732605
vn -0.7635149955749512 -0.23086999356746674 -0.6031129956245422
vn -0.6443470120429993 -0.5449550151824951 -0.5365080237388611
vn -0.8111119866371155 -0.5090669989585876 -0.28800898790359497
vn -0.8514909744262695 -0.33518099784851074 0.4032590091228485
vn -0.9913179874420166 0.013372999615967274 0.13080300390720367
vn 0.013927999883890152 0.6702619791030884 -0.7419940233230591
vn -0.9925680160522461 0.11800400167703629 -0.029728999361395836
vn 0.462458997964859 0.6804100275039673 -0.5684840083122253
vn 0.6646159887313843 0.3093680143356323 -0.6801300048828125
vn 0.462458997964859 0.6804100275039673 -0.5684840083122253
vn 0.6555560231208801 -0.5789499878883362 -0.4848339855670929
vn 0.10582800209522247 -0.6997460126876831 -0.7065100073814392
vn 0.7054449915885925 -0.5043089985847473 -0.49801599979400635
vn -0.7638689875602722 -0.5393319725990295 -0.3544360101222992
vn -0.7164160013198853 -0.5042449831962585 0.48216599225997925
vn 0.10872399806976318 -0.6220960021018982 0.7753549814224243
vn 0.6870949864387512 -0.45489001274108887 0.5665479898452759
vn 0.6870949864387512 -0.45489001274108887 0.5665479898452759
vn 0.9078130125999451 -0.4190030097961426 0.017688000574707985
vn 0.7054449915885925 -0.5043089985847473 -0.49801599979400635
vn 0.7891370058059692 0.1593330055475235 0.5931910276412964
vn -0.06770899891853333 0.0704599991440773 0.9952139854431152
vn -0.4247959852218628 -0.18753600120544434 0.8856509923934937
vn 0.8654500246047974 0.1337990015745163 0.4827980101108551
vn 0.9826509952545166 0.18344900012016296 -0.02726300060749054
vn 0.9916480183601379 -0.01616399921476841 -0.1279599964618683
vn -0.06770899891853333 0.0704599991440773 0.9952139854431152
vn -0.8192809820175171 -0.19042499363422394 0.5408480167388916
vn -0.9740470051765442 -0.21320700645446777 0.07599099725484848
vn 0.7686790227890015 0.34186699986457825 -0.5406110286712646
vn 0.7777950167655945 0.0384880006313324 -0.6273379921913147
vn 0.09202200174331665 0.5715370178222656 -0.8154000043869019
vn 0.08095599710941315 -0.6226040124893188 -0.7783380150794983
vn -0.87916499376297 0.1403840035200119 -0.4553700089454651
vn -0.2837409973144531 0.34459400177001953 -0.8948439955711365
vn 0.48270899057388306 -0.5056710243225098 -0.7150449752807617
vn -0.7292550206184387 -0.6802909970283508 -0.07342199981212616
vn -0.9520450234413147 0.2578740119934082 -0.16465899348258972
vn -0.8614400029182434 0.4950299859046936 -0.11343099921941757
vn -0.9520450234413147 0.2578740119934082 -0.16465899348258972
vn 0.09202200174331665 0.5715370178222656 -0.8154000043869019
vn 0.004391999915242195 0.68756502866745 -0.7261099815368652
vn -0.7325320243835449 -0.6499339938163757 0.20244200527668
vn -0.6453959941864014 -0.5945090055465698 0.4796079993247986
vn -0.6453959941864014 -0.5945090055465698 0.4796079993247986
vn 0.8139439821243286 -0.46039101481437683 -0.3543109893798828
vn 0.004391999915242195 0.68756502866745 -0.7261099815368652
vn 0.8139439821243286 -0.46039101481437683 -0.3543109893798828
vn 0.8664140105247498 -0.2638680040836334 0.423911988735199
vn -0.4207499921321869 0.05030699819326401 0.9057809710502625
vn 0.9350060224533081 -0.34013500809669495 -0.10035700350999832
vn -0.4207499921321869 0.05030699819326401 0.9057809710502625
vn -0.9908459782600403 0.13052600622177124 0.03446799889206886
vn 0.9350060224533081 -0.34013500809669495 -0.10035700350999832
vn 0.7394459843635559 -0.21939300000667572 -0.63646399974823
vn -0.5657560229301453 0.03815700113773346 -0.8236899971961975
vn -0.5657560229301453 0.03815700113773346 -0.8236899971961975
vn -0.9908459782600403 0.13052600622177124 0.03446799889206886
vn 0.031929999589920044 -0.6808450222015381 0.7317320108413696
vn -0.7937269806861877 -0.5953829884529114 0.12456600368022919
vn -0.47250598669052124 -0.5480440258979797 -0.6902070045471191
vn -0.7937269806861877 -0.5953829884529114 0.12456600368022919
vn -0.7292550206184387 -0.6802909970283508 -0.07342199981212616
vn 0.48270899057388306 -0.5056710243225098 -0.7150449752807617
vn -0.2837409973144531 0.34459400177001953 -0.8948439955711365
vn 0.48270899057388306 -0.5056710243225098 -0.7150449752807617
vn 0.7891370058059692 0.1593330055475235 0.5931910276412964
vn 0.9826509952545166 0.18344900012016296 -0.02726300060749054
vn 0.7891370058059692 0.1593330055475235 0.5931910276412964
vn -0.06770899891853333 0.0704599991440773 0.9952139854431152
vn -0.8192809820175171 -0.19042499363422394 0.5408480167388916
vn -0.9740470051765442 -0.21320700645446777 0.07599099725484848
vn -0.8192809820175171 -0.19042499363422394 0.5408480167388916
vn -0.9520450234413147 0.2578740119934082 -0.16465899348258972
vn 0.09202200174331665 0.5715370178222656 -0.8154000043869019
vn -0.9520450234413147 0.2578740119934082 -0.16465899348258972
vn 0.7686790227890015 0.34186699986457825 -0.5406110286712646
vn 0.7686790227890015 0.34186699986457825 -0.5406110286712646
vn -0.8810520172119141 -0.3818419873714447 -0.2791840136051178
vn -0.9959049820899963 -0.0037879999727010727 -0.09032599627971649
vn -0.988120973110199 0.11332599818706512 0.10379700362682343
vn -0.9816880226135254 0.18089500069618225 0.059716999530792236
vn -0.9913179874420166 0.013372999615967274 0.13080300390720367
vn -0.8514909744262695 -0.33518099784851074 0.4032590091228485
vn -0.9925680160522461 0.11800400167703629 -0.029728999361395836
vn 0.8844469785690308 0.010280000045895576 0.4665290117263794
vn -0.8650550246238708 -0.2658880054950714 0.4254220128059387

vt 0.2394070029258728 0.6267920136451721
vt 0.2394070029258728 0.5636630058288574
vt 0.250806987285614 0.5626629889011383
vt 0.24710699915885925 0.6267920136451721
vt 0.885807991027832 0.35731202363967896
vt 0.885807991027832 0.2912120223045349
vt 0.9138079881668091 0.2905120253562927
vt 0.9170079827308655 0.35731202363967896
vt 0.24780699610710144 0.7499920129776001
vt 0.250806987285614 0.8129920065402985
vt 0.23970699310302734 0.8151919990777969
vt 0.24000699818134308 0.7499920129776001
vt 0.7474300265312195 0.26499998569488525
vt 0.7435299754142761 0.26649999618530273
vt 0.7602300047874451 0.2756999731063843
vt 0.7594299912452698 0.2718999981880188
vt 0.2385070025920868 0.7499200105667114
vt 0.23880699276924133 0.6960200071334839
vt 0.24950699508190155 0.6914199888706207
vt 0.24650700390338898 0.7499200105667114
vt 0.3305070102214813 0.4362800121307373
vt 0.34120699763298035 0.4303799867630005
vt 0.344307005405426 0.5003800094127655
vt 0.3367069959640503 0.5003800094127655
vt 0.351406991481781 0.6267920136451721
vt 0.3386070132255554 0.6267920136451721
vt 0.33980700373649597 0.5720629990100861
vt 0.351406991481781 0.5524629950523376
vt 0.24800699949264526 0.4392799735069275
vt 0.2434069961309433 0.5003800094127655
vt 0.2354069948196411 0.5003800094127655
vt 0.23650699853897095 0.44168001413345337
vt 0.351406991481781 0.7499920129776001
vt 0.351406991481781 0.8145920038223267
vt 0.3408069908618927 0.8025919944047928
vt 0.341607004404068 0.7499920129776001
vt 0.3410069942474365 0.7499200105667114
vt 0.3399069905281067 0.687720000743866
vt 0.351406991481781 0.6822200119495392
vt 0.351406991481781 0.7499200105667114
vt 0.29740700125694275 0.6267920136451721
vt 0.2807070016860962 0.6267920136451721
vt 0.28450700640678406 0.5626629889011383
vt 0.29990699887275696 0.5632629990577698
vt 0.29660698771476746 0.43827998638153076
vt 0.29650700092315674 0.5003800094127655
vt 0.2857069969177246 0.5003800094127655
vt 0.28210699558258057 0.43838000297546387
vt 0.290706992149353 0.7814919948577881
vt 0.2930069863796234 0.811491996049881
vt 0.28530699014663696 0.8116919994354248
vt 0.28430700302124023 0.7813919931650162
vt 0.2968069911003113 0.7499200105667114
vt 0.28600698709487915 0.7499200105667114
vt 0.28220701217651367 0.6898199915885925
vt 0.2978070080280304 0.6897200047969818
vt 0.2677069902420044 0.5624629855155945
vt 0.2637070119380951 0.6267920136451721
vt 0.316307008266449 0.5003800094127655
vt 0.31360700726509094 0.4377800226211548
vt 0.26820701360702515 0.7499920129776001
vt 0.2671070098876953 0.8122919946908951
vt 0.26510700583457947 0.6901200115680695
vt 0.26660698652267456 0.7499200105667114
vt 0.31670698523521423 0.565762996673584
vt 0.3142069876194 0.6267920136451721
vt 0.26090699434280396 0.5003800094127655
vt 0.26230698823928833 0.4385799765586853
vt 0.3198069930076599 0.7499920129776001
vt 0.3187069892883301 0.808691993355751
vt 0.3021070063114166 0.8109920024871826
vt 0.2953070104122162 0.7499920129776001
vt 0.3150070011615753 0.689520001411438
vt 0.3197070062160492 0.7499200105667114
vt 0.2769069969654083 0.811491996049881
vt 0.2765069901943207 0.7813919931650162
vt 0.3012070059776306 0.5003629922866821
vt 0.289806991815567 0.5003629922866821
vt 0.27220699191093445 0.5001629889011383
vt 0.248307004570961 0.5003629922866821
vt 0.2403070032596588 0.5003629922866821
vt 0.7747300267219543 0.29159998893737793
vt 0.8002300262451172 0.2889000177383423
vt 0.7879300117492676 0.28439998626708984
vt 0.7731299996376038 0.2846999764442444
vt 0.24870699644088745 0.8754730001091957
vt 0.2403070032596588 0.8754730001091957
vt 0.27210700511932373 0.8754730001091957
vt 0.28690698742866516 0.8419920057058334
vt 0.27870699763298035 0.8419920057058334
vt 0.2936069965362549 0.8421919941902161
vt 0.32320699095726013 0.8754730001091957
vt 0.30140700936317444 0.8754730001091957
vt 0.351406991481781 0.8610920011997223
vt 0.3402070105075836 0.8436920046806335
vt 0.94240802526474 0.28981202840805054
vt 0.94240802526474 0.35731202363967896
vt 0.3400070071220398 0.5344629883766174
vt 0.351406991481781 0.5313630104064941
vt 0.3230069875717163 0.5003629922866821
vt 0.2799069881439209 0.6265909969806671
vt 0.2972069978713989 0.6265909969806671
vt 0.26230698823928833 0.6265909969806671
vt 0.24720700085163116 0.6265909969806671
vt 0.23970699310302734 0.6265909969806671
vt 0.7932299971580505 0.2670000195503235
vt 0.7905300259590149 0.2688000202178955
vt 0.789929986000061 0.27090001106262207
vt 0.7957299947738647 0.2671999931335449
vt 0.7657300233840942 0.28390002250671387
vt 0.7643300294876099 0.29350000619888306
vt 0.3309069871902466 0.3768789768218994
vt 0.3385069966316223 0.3768789768218994
vt 0.31040701270103455 0.3768789768218994
vt 0.2944070100784302 0.3768789768218994
vt 0.28350698947906494 0.3768789768218994
vt 0.25850701332092285 0.3768789768218994
vt 0.23650699853897095 0.3768789768218994
vt 0.24980700016021729 0.3768789768218994
vt 0.9153079986572266 0.23561197519302368
vt 0.94240802526474 0.23561197519302368
vt 0.885807991027832 0.23561197519302368
vt 0.3384070098400116 0.6265909969806671
vt 0.351406991481781 0.6265909969806671
vt 0.3142069876194 0.6265909969806671
vt 0.32970699667930603 0.5750629901885986
vt 0.33160701394081116 0.6267920136451721
vt 0.33080700039863586 0.5360629856586456
vt 0.3311069905757904 0.8388919979333878
vt 0.32970699667930603 0.8003920018672943
vt 0.3286069929599762 0.7499920129776001
vt 0.3280070126056671 0.7499200105667114
vt 0.3285070061683655 0.6891199946403503
vt 0.3311069905757904 0.6265909969806671
vt 0.7581300139427185 0.23720002174377441
vt 0.7510300278663635 0.23720002174377441
vt 0.7454299926757812 0.24980002641677856
vt 0.7561299800872803 0.2523000240325928
vt 0.765529990196228 0.23720002174377441
vt 0.7711300253868103 0.2534000277519226
vt 0.797029972076416 0.2781999707221985
vt 0.7872300148010254 0.2781999707221985
vt 0.7781299948692322 0.2781999707221985
vt 0.7742300033569336 0.23720002174377441
vt 0.7806299924850464 0.25019997358322144
vt 0.782729983329773 0.23720002174377441
vt 0.7870299816131592 0.24779999256134033
vt 0.7565299868583679 0.3352000117301941
vt 0.7532299757003784 0.3248000144958496
vt 0.744629979133606 0.32569998502731323
vt 0.744629979133606 0.3447999954223633
vt 0.7673299908638 0.2781999707221985
vt 0.7770299911499023 0.33810001611709595
vt 0.8004299998283386 0.34539997577667236
vt 0.8004299998283386 0.32010000944137573
vt 0.7755299806594849 0.32679998874664307
vt 0.8004299998283386 0.3571000099182129
vt 0.7770299911499023 0.3496999740600586
vt 0.7556300163269043 0.2889000177383423
vt 0.7567300200462341 0.2978000044822693
vt 0.7949299812316895 0.24119997024536133
vt 0.7938299775123596 0.24529999494552612
vt 0.7505300045013428 0.2581999897956848
vt 0.7448300123214722 0.2583000063896179
vt 0.7636299729347229 0.2634999752044678
vt 0.8026300072669983 0.29600000381469727
vt 0.7785300016403198 0.3021000027656555
vt 0.7823299765586853 0.26020002365112305
vt 0.7857300043106079 0.2583000063896179
vt 0.7887300252914429 0.2573000192642212
vt 0.7640299797058105 0.3009999990463257
vt 0.7735300064086914 0.30010002851486206
vt 0.804830014705658 0.30320000648498535
vt 0.7824299931526184 0.3098999857902527
vt 0.7662299871444702 0.31120002269744873
vt 0.7746300101280212 0.31050002574920654
vt 0.7432299852371216 0.30159997940063477
vt 0.7460299730300903 0.3083000183105469
vt 0.8044300079345703 0.2468000054359436
vt 0.8039299845695496 0.2505999803543091
vt 0.2273070067167282 0.7499200105667114
vt 0.2273070067167282 0.7134200036525726
vt 0.2273070067167282 0.7499920129776001
vt 0.2273070067167282 0.8236919939517975
vt 0.2273070067167282 0.8754730001091957
vt 0.351406991481781 0.4083799719810486
vt 0.351406991481781 0.5003800094127655
vt 0.351406991481781 0.3768789768218994
vt 0.2273070067167282 0.5670630037784576
vt 0.2273070067167282 0.5003629922866821
vt 0.2273070067167282 0.6267920136451721
vt 0.2273070067167282 0.6265909969806671
vt 0.351406991481781 0.8754730001091957
vt 0.3378069996833801 0.8754730001091957
vt 0.22660699486732483 0.5003800094127655
vt 0.22660699486732483 0.45058000087738037
vt 0.33790698647499084 0.5003629922866821
vt 0.351406991481781 0.5003629922866821
vt 0.22660699486732483 0.3768789768218994
vt 0.28440698981285095 0.7499920129776001
vt 0.2899070084095001 0.8754730001091957

f 1/1/1 2/2/2 3/3/3
f 3/3/3 4/4/4 1/1/1
f 5/5/5 6/6/6 7/7/7
f 7/7/7 8/8/8 5/5/5
f 9/9/9 10/10/10 11/11/11
f 11/11/11 12/12/12 9/9/9
f 13/13/13 14/14/14 15/15/15
f 15/15/15 16/16/16 13/13/13
f 17/17/17 18/18/18 19/19/19
f 19/19/19 20/20/20 17/17/17
f 21/21/21 22/22/22 23/23/23
f 23/23/23 24/24/24 21/21/21
f 25/25/25 26/26/26 27/27/27
f 27/27/27 28/28/28 25/25/25
f 29/29/29 30/30/30 31/31/31
f 31/31/31 32/32/32 29/29/29
f 33/33/33 34/34/34 35/35/35
f 35/35/35 36/36/36 33/33/33
f 37/37/37 38/38/38 39/39/39
f 39/39/39 40/40/40 37/37/37
f 41/41/41 42/42/42 43/43/43
f 43/43/43 44/44/44 41/41/41
f 45/45/45 46/46/46 47/47/47
f 47/47/47 48/48/48 45/45/45
f 49/49/49 50/50/50 51/51/51
f 51/51/51 52/52/52 49/49/49
f 53/53/53 54/54/54 55/55/55
f 55/55/55 56/56/56 53/53/53
f 3/3/3 57/57/57 58/58/58
f 58/58/58 4/4/4 3/3/3
f 21/21/21 24/24/24 59/59/59
f 59/59/59 60/60/60 21/21/21
f 61/61/61 62/62/62 10/10/10
f 10/10/10 9/9/9 61/61/61
f 20/20/20 19/19/19 63/63/63
f 63/63/63 64/64/64 20/20/20
f 44/44/44 65/65/65 66/66/66
f 66/66/66 41/41/41 44/44/44
f 48/48/48 47/47/47 67/67/67
f 67/67/67 68/68/68 48/48/48
f 69/69/69 70/70/70 71/71/71
f 71/71/71 72/72/72 69/69/69
f 53/53/53 56/56/56 73/73/73
f 73/73/73 74/74/74 53/53/53
f 58/58/58 57/57/57 43/43/43
f 43/43/43 42/42/42 58/58/58
f 45/45/45 60/60/60 59/59/59
f 59/59/59 46/46/46 45/45/45
f 52/52/52 51/51/51 75/75/75
f 75/75/75 76/76/76 52/52/52
f 64/64/64 63/63/63 55/55/55
f 55/55/55 54/54/54 64/64/64
f 77/77/77 44/44/44 43/43/43
f 43/43/43 78/78/78 77/77/77
f 43/43/43 57/57/57 79/79/79
f 79/79/79 78/78/78 43/43/43
f 57/57/57 3/3/3 80/80/80
f 80/80/80 79/79/79 57/57/57
f 3/3/3 2/2/2 81/81/81
f 81/81/81 80/80/80 3/3/3
f 82/82/82 83/83/83 84/84/84
f 84/84/84 85/85/85 82/82/82
f 11/11/11 10/10/10 86/86/86
f 86/86/86 87/87/87 11/11/11
f 62/62/62 88/88/88 86/86/86
f 86/86/86 10/10/10 62/62/62
f 75/75/75 51/51/51 89/89/89
f 89/89/89 90/90/90 75/75/75
f 51/51/51 50/50/50 91/91/91
f 91/91/91 89/89/89 51/51/51
f 70/70/70 92/92/92 93/93/93
f 93/93/93 71/71/71 70/70/70
f 34/34/34 94/94/94 95/95/95
f 95/95/95 35/35/35 34/34/34
f 7/7/7 96/96/96 97/97/97
f 97/97/97 8/8/8 7/7/7
f 28/28/28 27/27/27 98/98/98
f 98/98/98 99/99/99 28/28/28
f 65/65/65 44/44/44 77/77/77
f 77/77/77 100/100/100 65/65/65
f 55/55/55 101/101/101 102/102/102
f 102/102/102 56/56/56 55/55/55
f 63/63/63 103/103/103 101/101/101
f 101/101/101 55/55/55 63/63/63
f 19/19/19 104/104/104 103/103/103
f 103/103/103 63/63/63 19/19/19
f 18/18/18 105/105/105 104/104/104
f 104/104/104 19/19/19 18/18/18
f 106/106/106 107/107/107 108/108/108
f 108/108/108 109/109/109 106/106/106
f 82/82/82 85/85/85 110/110/110
f 110/110/110 111/111/111 82/82/82
f 22/22/22 21/21/21 112/112/112
f 112/112/112 113/113/113 22/22/22
f 21/21/21 60/60/60 114/114/114
f 114/114/114 112/112/112 21/21/21
f 60/60/60 45/45/45 115/115/115
f 115/115/115 114/114/114 60/60/60
f 45/45/45 48/48/48 116/116/116
f 116/116/116 115/115/115 45/45/45
f 48/48/48 68/68/68 117/117/117
f 117/117/117 116/116/116 48/48/48
f 29/29/29 32/32/32 118/118/118
f 118/118/118 119/119/119 29/29/29
f 7/7/7 120/120/120 121/121/121
f 121/121/121 96/96/96 7/7/7
f 122/122/122 120/120/120 7/7/7
f 7/7/7 6/6/6 122/122/122
f 39/39/39 38/38/38 123/123/123
f 123/123/123 124/124/124 39/39/39
f 73/73/73 56/56/56 102/102/102
f 102/102/102 125/125/125 73/73/73
f 126/126/126 27/27/27 26/26/26
f 26/26/26 127/127/127 126/126/126
f 27/27/27 126/126/126 128/128/128
f 128/128/128 98/98/98 27/27/27
f 29/29/29 119/119/119 117/117/117
f 117/117/117 68/68/68 29/29/29
f 29/29/29 68/68/68 67/67/67
f 67/67/67 30/30/30 29/29/29
f 35/35/35 95/95/95 129/129/129
f 129/129/129 130/130/130 35/35/35
f 36/36/36 35/35/35 130/130/130
f 130/130/130 131/131/131 36/36/36
f 132/132/132 133/133/133 38/38/38
f 38/38/38 37/37/37 132/132/132
f 38/38/38 133/133/133 134/134/134
f 134/134/134 123/123/123 38/38/38
f 135/135/135 136/136/136 137/137/137
f 137/137/137 138/138/138 135/135/135
f 139/139/139 135/135/135 138/138/138
f 138/138/138 140/140/140 139/139/139
f 141/141/141 142/142/142 84/84/84
f 84/84/84 83/83/83 141/141/141
f 84/84/84 142/142/142 143/143/143
f 143/143/143 85/85/85 84/84/84
f 144/144/144 139/139/139 140/140/140
f 140/140/140 145/145/145 144/144/144
f 146/146/146 144/144/144 145/145/145
f 145/145/145 147/147/147 146/146/146
f 148/148/148 149/149/149 150/150/150
f 150/150/150 151/151/151 148/148/148
f 85/85/85 143/143/143 152/152/152
f 152/152/152 110/110/110 85/85/85
f 153/153/153 154/154/154 155/155/155
f 155/155/155 156/156/156 153/153/153
f 157/157/157 154/154/154 153/153/153
f 153/153/153 158/158/158 157/157/157
f 111/111/111 110/110/110 159/159/159
f 159/159/159 160/160/160 111/111/111
f 161/161/161 146/146/146 147/147/147
f 147/147/147 162/162/162 161/161/161
f 163/163/163 138/138/138 137/137/137
f 137/137/137 164/164/164 163/163/163
f 165/165/165 140/140/140 138/138/138
f 138/138/138 163/163/163 165/165/165
f 166/166/166 83/83/83 82/82/82
f 82/82/82 167/167/167 166/166/166
f 145/145/145 140/140/140 168/168/168
f 168/168/168 169/169/169 145/145/145
f 170/170/170 147/147/147 145/145/145
f 145/145/145 169/169/169 170/170/170
f 82/82/82 111/111/111 171/171/171
f 171/171/171 172/172/172 82/82/82
f 13/13/13 163/163/163 164/164/164
f 164/164/164 14/14/14 13/13/13
f 165/165/165 163/163/163 13/13/13
f 13/13/13 16/16/16 165/165/165
f 173/173/173 166/166/166 167/167/167
f 167/167/167 174/174/174 173/173/173
f 169/169/169 168/168/168 107/107/107
f 107/107/107 106/106/106 169/169/169
f 170/170/170 169/169/169 106/106/106
f 106/106/106 109/109/109 170/170/170
f 172/172/172 171/171/171 175/175/175
f 175/175/175 176/176/176 172/172/172
f 148/148/148 153/153/153 156/156/156
f 156/156/156 149/149/149 148/148/148
f 158/158/158 153/153/153 148/148/148
f 148/148/148 151/151/151 158/158/158
f 160/160/160 159/159/159 177/177/177
f 177/177/177 178/178/178 160/160/160
f 179/179/179 161/161/161 162/162/162
f 162/162/162 180/180/180 179/179/179
f 181/181/181 182/182/182 18/18/18
f 18/18/18 17/17/17 181/181/181
f 183/183/183 12/12/12 11/11/11
f 11/11/11 184/184/184 183/183/183
f 184/184/184 11/11/11 87/87/87
f 87/87/87 185/185/185 184/184/184
f 22/22/22 186/186/186 187/187/187
f 187/187/187 23/23/23 22/22/22
f 186/186/186 22/22/22 113/113/113
f 113/113/113 188/188/188 186/186/186
f 2/2/2 189/189/189 190/190/190
f 190/190/190 81/81/81 2/2/2
f 191/191/191 189/189/189 2/2/2
f 2/2/2 1/1/1 191/191/191
f 182/182/182 192/192/192 105/105/105
f 105/105/105 18/18/18 182/182/182
f 193/193/193 194/194/194 95/95/95
f 95/95/95 94/94/94 193/193/193
f 32/32/32 31/31/31 195/195/195
f 195/195/195 196/196/196 32/32/32
f 98/98/98 197/197/197 198/198/198
f 198/198/198 99/99/99 98/98/98
f 199/199/199 118/118/118 32/32/32
f 32/32/32 196/196/196 199/199/199
f 66/66/66 65/65/65 126/126/126
f 126/126/126 127/127/127 66/66/66
f 65/65/65 100/100/100 128/128/128
f 128/128/128 126/126/126 65/65/65
f 100/100/100 197/197/197 98/98/98
f 98/98/98 128/128/128 100/100/100
f 129/129/129 92/92/92 70/70/70
f 70/70/70 130/130/130 129/129/129
f 92/92/92 129/129/129 95/95/95
f 95/95/95 194/194/194 92/92/92
f 130/130/130 70/70/70 69/69/69
f 69/69/69 131/131/131 130/130/130
f 132/132/132 74/74/74 73/73/73
f 73/73/73 133/133/133 132/132/132
f 73/73/73 125/125/125 134/134/134
f 134/134/134 133/133/133 73/73/73
f 49/49/49 72/72/72 71/71/71
f 71/71/71 50/50/50 49/49/49
f 200/200/200 72/72/72 49/49/49
f 49/49/49 52/52/52 200/200/200
f 76/76/76 61/61/61 200/200/200
f 200/200/200 52/52/52 76/76/76
f 62/62/62 61/61/61 76/76/76
f 76/76/76 75/75/75 62/62/62
f 90/90/90 88/88/88 62/62/62
f 62/62/62 75/75/75 90/90/90
f 201/201/201 88/88/88 90/90/90
f 90/90/90 89/89/89 201/201/201
f 71/71/71 93/93/93 91/91/91
f 91/91/91 50/50/50 71/71/71
f 91/91/91 93/93/93 201/201/201
f 201/201/201 89/89/89 91/91/91