mtllib 130095882.mtl
o Mesh

v 0.06561200320720673 0.5929960012435913 -0.32703500986099243
v 0.04956499859690666 0.3393160104751587 -0.29032400250434875
v -0.11038199812173843 0.3386859893798828 -0.2425059974193573
v -0.11218299716711044 0.5905959606170654 -0.27524900436401367
v 0.06561200320720673 0.5929960012435913 -0.32703500986099243
v 0.24049100279808044 0.5905959606170654 -0.27524900436401367
v 0.22407099604606628 0.3371959924697876 -0.24449799954891205
v 0.04956499859690666 0.3393160104751587 -0.29032400250434875
v 0.36789900064468384 0.5772260427474976 -0.10130099952220917
v 0.34013399481773376 0.3234959840774536 -0.08896700292825699
v 0.22407099604606628 0.3371959924697876 -0.24449799954891205
v 0.24049100279808044 0.5905959606170654 -0.27524900436401367
v 0.4135249853134155 0.5634360313415527 0.06536699831485748
v 0.38062798976898193 0.3111960291862488 0.0644410029053688
v 0.3662700057029724 0.5473459959030151 0.2558329999446869
v 0.3369219899177551 0.2994459867477417 0.24687199294567108
v 0.3662700057029724 0.5473459959030151 0.2558329999446869
v 0.23895500600337982 0.5364960432052612 0.37996599078178406
v 0.22104500234127045 0.2908560037612915 0.36157599091529846
v 0.3369219899177551 0.2994459867477417 0.24687199294567108
v -0.11084199696779251 0.5364960432052612 0.37996599078178406
v -0.2570889890193939 0.5473459959030151 0.2558329999446869
v -0.248757004737854 0.3009359836578369 0.24886399507522583
v -0.10773999989032745 0.2923460006713867 0.3635680079460144
v -0.3042930066585541 0.5634360313415527 0.06536699831485748
v -0.2923629879951477 0.312686026096344 0.06643299758434296
v -0.248757004737854 0.3009359836578369 0.24886399507522583
v -0.2570889890193939 0.5473459959030151 0.2558329999446869
v -0.25859200954437256 0.5772260427474976 -0.10130099952220917
v -0.25171899795532227 0.32498598098754883 -0.08697500079870224
v -0.11218299716711044 0.5905959606170654 -0.27524900436401367
v -0.11038199812173843 0.3386859893798828 -0.2425059974193573
v 0.04941599816083908 0.2907860279083252 0.4080210030078888
v 0.063120998442173 0.5342960357666016 0.42714500427246094
v 0.063120998442173 0.5342960357666016 0.42714500427246094
v 0.04941599816083908 0.2907860279083252 0.4080210030078888
v -0.11004900187253952 0.8383560180664062 -0.28630098700523376
v 0.07722999900579453 0.8425059914588928 -0.3385719954967499
v 0.2587130069732666 0.8383560180664062 -0.28630098700523376
v 0.07722999900579453 0.8425059914588928 -0.3385719954967499
v 0.2587130069732666 0.8383560180664062 -0.28630098700523376
v 0.39149999618530273 0.8253160119056702 -0.10603299736976624
v 0.4401029944419861 0.8100659847259521 0.06264299899339676
v 0.3915629982948303 0.7899659872055054 0.2587699890136719
v 0.3915629982948303 0.7899659872055054 0.2587699890136719
v 0.2587760090827942 0.7769160270690918 0.3839839994907379
v 0.07261600345373154 0.774075984954834 0.4307830035686493
v -0.10998599976301193 0.7769160270690918 0.3839839994907379
v 0.07261600345373154 0.774075984954834 0.4307830035686493
v -0.25473999977111816 0.7899659872055054 0.2587699890136719
v -0.25473999977111816 0.7899659872055054 0.2587699890136719
v -0.3034049868583679 0.8100659847259521 0.06264299899339676
v -0.25480300188064575 0.8253160119056702 -0.10603299736976624
v -0.11004900187253952 0.8383560180664062 -0.28630098700523376
v 0.2666270136833191 1.0747159719467163 -0.2812969982624054
v 0.4072969853878021 1.0692859888076782 -0.10569500178098679
v 0.08716200292110443 1.0760960578918457 -0.33364200592041016
v 0.2666270136833191 1.0747159719467163 -0.2812969982624054
v 0.08716200292110443 1.0760960578918457 -0.33364200592041016
v -0.09468299895524979 1.0747159719467163 -0.2812969982624054
v -0.2311210036277771 1.0692859888076782 -0.10569500178098679
v -0.09468299895524979 1.0747159719467163 -0.2812969982624054
v -0.2791840136051178 1.0629359483718872 0.05603500083088875
v -0.2311210036277771 1.0544660091400146 0.2396710067987442
v -0.2791840136051178 1.0629359483718872 0.05603500083088875
v -0.09468299895524979 1.049036979675293 0.3587389886379242
v -0.2311210036277771 1.0544660091400146 0.2396710067987442
v 0.08306699991226196 1.048356056213379 0.40271198749542236
v 0.08306699991226196 1.048356056213379 0.40271198749542236
v 0.2666270136833191 1.049036979675293 0.3587389886379242
v 0.4072969853878021 1.0544660091400146 0.2396710067987442
v 0.455361008644104 1.0629359483718872 0.05603500083088875
v 0.4072969853878021 1.0544660091400146 0.2396710067987442
v -0.07548099756240845 1.1389960050582886 -0.2471960037946701
v -0.09468299895524979 1.0747159719467163 -0.2812969982624054
v -0.2311210036277771 1.0692859888076782 -0.10569500178098679
v -0.19733600318431854 1.1343059539794922 -0.08993300050497055
v -0.07548099756240845 1.1389960050582886 -0.2471960037946701
v 0.08725900202989578 1.140265941619873 -0.2939789891242981
v 0.08716200292110443 1.0760960578918457 -0.33364200592041016
v -0.09468299895524979 1.0747159719467163 -0.2812969982624054
v 0.24786999821662903 1.1389960050582886 -0.2471960037946701
v 0.2666270136833191 1.0747159719467163 -0.2812969982624054
v 0.4072969853878021 1.0692859888076782 -0.10569500178098679
v 0.2666270136833191 1.0747159719467163 -0.2812969982624054
v 0.24786999821662903 1.1389960050582886 -0.2471960037946701
v 0.37351199984550476 1.1343059539794922 -0.08993300050497055
v 0.4153989851474762 1.129256010055542 0.05461600050330162
v 0.455361008644104 1.0629359483718872 0.05603500083088875
v 0.4072969853878021 1.0544660091400146 0.2396710067987442
v 0.3708670139312744 1.1228859424591064 0.21717900037765503
v 0.24566499888896942 1.1188160181045532 0.3215939998626709
v 0.2666270136833191 1.049036979675293 0.3587389886379242
v 0.08365199714899063 1.118016004562378 0.36073100566864014
v 0.08306699991226196 1.048356056213379 0.40271198749542236
v -0.07322300225496292 1.1188160181045532 0.3215939998626709
v -0.09468299895524979 1.049036979675293 0.3587389886379242
v -0.2311210036277771 1.0544660091400146 0.2396710067987442
v -0.19469000399112701 1.1228859424591064 0.21717900037765503
v -0.23922200500965118 1.129256010055542 0.05461600050330162
v -0.2791840136051178 1.0629359483718872 0.05603500083088875
v 0.0013269999762997031 1.2350260019302368 -0.11382400244474411
v -0.03563600033521652 1.2002559900283813 -0.1775529980659485
v -0.1275150030851364 1.196895956993103 -0.058469999581575394
v -0.06309299916028976 1.2326769828796387 -0.030314000323414803
v 0.08746200054883957 1.2012560367584229 -0.21286700665950775
v 0.08764900267124176 1.2357159852981567 -0.13858599960803986
v 0.17284099757671356 1.2350260019302368 -0.11382400244474411
v 0.20894800126552582 1.2002559900283813 -0.1775529980659485
v 0.23927000164985657 1.2326769828796387 -0.030314000323414803
v 0.3036920130252838 1.196895956993103 -0.058469999581575394
v 0.33406001329421997 1.1938259601593018 0.05064399912953377
v 0.2605240046977997 1.2305359840393066 0.046195000410079956
v 0.23560500144958496 1.2281960248947144 0.13089999556541443
v 0.2986049950122833 1.1904159784317017 0.17153100669384003
v 0.16978399455547333 1.2267069816589355 0.18445000052452087
v 0.20470599830150604 1.1882569789886475 0.24800799787044525
v 0.08578400313854218 1.226125955581665 0.20502500236034393
v 0.08479999750852585 1.187425971031189 0.2773599922657013
v 0.0044559999369084835 1.2267069816589355 0.18445000052452087
v -0.031293999403715134 1.1882569789886475 0.24800799787044525
v -0.05942799896001816 1.2281960248947144 0.13089999556541443
v -0.12242799997329712 1.1904159784317017 0.17153100669384003
v -0.08434700220823288 1.2305359840393066 0.046195000410079956
v -0.15788300335407257 1.1938259601593018 0.05064399912953377
v -0.0038109999150037766 1.2540359497070312 -0.004902999848127365
v 0.03558399900794029 1.2555660009384155 -0.05526300147175789
v 0.08782199770212173 1.2560269832611084 -0.0701109990477562
v 0.13937599956989288 1.2555660009384155 -0.05526300147175789
v 0.17998699843883514 1.2540359497070312 -0.004902999848127365
v 0.19337999820709229 1.2526159286499023 0.04163600131869316
v 0.17865799367427826 1.2510359287261963 0.09368100017309189
v 0.13841700553894043 1.250025987625122 0.1268710047006607
v 0.086667001247406 1.249635934829712 0.13965000212192535
v 0.03656600043177605 1.250025987625122 0.1268710047006607
v -0.0024820000398904085 1.2510359287261963 0.09368100017309189
v -0.017203999683260918 1.2526159286499023 0.04163600131869316
v 0.08808699995279312 1.2740659713745117 0.03455499932169914
v 0.04447299987077713 0.3150060176849365 0.05917799845337868
v 0.22407099604606628 0.3371959924697876 -0.24449799954891205
v 0.34013399481773376 0.3234959840774536 -0.08896700292825699
v 0.38062798976898193 0.3111960291862488 0.0644410029053688
v 0.3369219899177551 0.2994459867477417 0.24687199294567108
v 0.22104500234127045 0.2908560037612915 0.36157599091529846
v -0.10773999989032745 0.2923460006713867 0.3635680079460144
v -0.248757004737854 0.3009359836578369 0.24886399507522583
v -0.2923629879951477 0.312686026096344 0.06643299758434296
v -0.25171899795532227 0.32498598098754883 -0.08697500079870224
v -0.11038199812173843 0.3386859893798828 -0.2425059974193573
v 0.04956499859690666 0.3393160104751587 -0.29032400250434875
v 0.04941599816083908 0.2907860279083252 0.4080210030078888
v -0.09650000184774399 0.17139601707458496 -0.19436700642108917
v -0.09349700063467026 0.37029600143432617 -0.20957499742507935
v 0.04897100105881691 0.37085598707199097 -0.2521669864654541
v 0.04792900010943413 0.16761600971221924 -0.24910899996757507
v 0.04897100105881691 0.37085598707199097 -0.2521669864654541
v 0.20440800487995148 0.3689659833908081 -0.2113489955663681
v 0.1985040009021759 0.17075598239898682 -0.19522100687026978
v 0.04792900010943413 0.16761600971221924 -0.24910899996757507
v 0.1985040009021759 0.17075598239898682 -0.19522100687026978
v 0.20440800487995148 0.3689659833908081 -0.2113489955663681
v 0.30778801441192627 0.3567659854888916 -0.07281400263309479
v 0.302931010723114 0.1724259853363037 -0.06458300352096558
v 0.34385600686073303 0.3458060026168823 0.06383000314235687
v 0.34183400869369507 0.17744600772857666 0.08309599757194519
v 0.3026539981365204 0.18099600076675415 0.2353390008211136
v 0.3049269914627075 0.335345983505249 0.22632500529289246
v 0.19919799268245697 0.18346601724624634 0.324072003364563
v 0.3026539981365204 0.18099600076675415 0.2353390008211136
v 0.3049269914627075 0.335345983505249 0.22632500529289246
v 0.2017119973897934 0.3276960253715515 0.32849499583244324
v 0.04883899912238121 0.32762598991394043 0.36986398696899414
v 0.047951001673936844 0.18524599075317383 0.36738699674606323
v 0.047951001673936844 0.18524599075317383 0.36738699674606323
v 0.04883899912238121 0.32762598991394043 0.36986398696899414
v -0.09114400297403336 0.32901597023010254 0.3302690088748932
v -0.09706900268793106 0.1841059923171997 0.3293280005455017
v -0.21675099432468414 0.3366659879684448 0.2280990034341812
v -0.21192899346351624 0.18171602487564087 0.23451200127601624
v -0.2507379949092865 0.17808598279953003 0.0839489996433258
v -0.21192899346351624 0.18171602487564087 0.23451200127601624
v -0.21675099432468414 0.3366659879684448 0.2280990034341812
v -0.2555910050868988 0.3471360206604004 0.06560400128364563
v -0.21938900649547577 0.3580859899520874 -0.07103999704122543
v -0.21174399554729462 0.1730560064315796 -0.06373000144958496
v -0.09349700063467026 0.37029600143432617 -0.20957499742507935
v -0.09650000184774399 0.17139601707458496 -0.19436700642108917
v -0.20465900003910065 0.003956019878387451 -0.056954000145196915
v -0.24624000489711761 0.023796021938323975 0.10095199942588806
v -0.20746000111103058 0.04048597812652588 0.2404559999704361
v -0.24624000489711761 0.023796021938323975 0.10095199942588806
v -0.20746000111103058 0.04048597812652588 0.2404559999704361
v -0.10255999863147736 0.052186012268066406 0.32845601439476013
v 0.04712900146842003 0.05566602945327759 0.3650909960269928
v 0.04712900146842003 0.05566602945327759 0.3650909960269928
v 0.19686800241470337 0.052186012268066406 0.31997400522232056
v 0.30055001378059387 0.040336012840270996 0.24369299411773682
v 0.3399600088596344 0.023796021938323975 0.10095199942588806
v 0.30055001378059387 0.040336012840270996 0.24369299411773682
v 0.29843100905418396 0.003956019878387451 -0.056954000145196915
v 0.19303299486637115 -0.010560035705566406 -0.17254699766635895
v 0.19303299486637115 -0.010560035705566406 -0.17254699766635895
v 0.04696499928832054 -0.01642894744873047 -0.21923400461673737
v 0.04696499928832054 -0.01642894744873047 -0.21923400461673737
v -0.09928300231695175 -0.010560035705566406 -0.17254699766635895
v -0.09928300231695175 -0.010560035705566406 -0.17254699766635895
v -0.27970001101493835 -0.23633694648742676 -0.05592299997806549
v -0.31453999876976013 -0.2392129898071289 0.16707900166511536
v -0.2818639874458313 0.05425602197647095 0.10611700266599655
v -0.2351820021867752 0.03198599815368652 -0.07116100192070007
v -0.11687800288200378 0.015685975551605225 -0.20093600451946259
v -0.1299470067024231 -0.21625399589538574 -0.20093800127506256
v 0.04731199890375137 0.009096026420593262 -0.25335100293159485
v 0.05005599930882454 -0.21033704280853271 -0.2557860016822815
v 0.04731199890375137 0.009096026420593262 -0.25335100293159485
v 0.21130099892616272 0.015685975551605225 -0.20093600451946259
v 0.22993400692939758 -0.21414899826049805 -0.20093800127506256
v 0.05005599930882454 -0.21033704280853271 -0.2557860016822815
v 0.3641520142555237 -0.2332320213317871 -0.05592299997806549
v 0.3296299874782562 0.03198599815368652 -0.07116100192070007
v 0.37625399231910706 0.05425602197647095 0.10611700266599655
v 0.41457098722457886 -0.2392129898071289 0.16707900166511536
v 0.3320080041885376 0.07282602787017822 0.2663710117340088
v 0.36563101410865784 -0.22816503047943115 0.34191998839378357
v 0.36563101410865784 -0.22816503047943115 0.34191998839378357
v 0.3320080041885376 0.07282602787017822 0.2663710117340088
v 0.21560600399971008 0.08612602949142456 0.35201001167297363
v 0.23470599949359894 -0.21937203407287598 0.4413810074329376
v -0.13426600396633148 -0.21937203407287598 0.4471139907836914
v -0.12055700272321701 0.08612602949142456 0.361532986164093
v -0.2383269965648651 0.07299602031707764 0.2627359926700592
v -0.26603999733924866 -0.22806596755981445 0.33973100781440735
v -0.26603999733924866 -0.22806596755981445 0.33973100781440735
v -0.2383269965648651 0.07299602031707764 0.2627359926700592
v 0.0502300001680851 -0.21600496768951416 0.4862219989299774
v 0.04749700054526329 0.09003597497940063 0.4026620090007782
v 0.04749700054526329 0.09003597497940063 0.4026620090007782
v 0.0502300001680851 -0.21600496768951416 0.4862219989299774
v -0.27830299735069275 -0.4719200134277344 0.3953999876976013
v -0.32928600907325745 -0.47652995586395264 0.2022400051355362
v -0.13934600353240967 -0.46709203720092773 0.5079920291900635
v -0.27830299735069275 -0.4719200134277344 0.3953999876976013
v 0.05251000076532364 -0.46424102783203125 0.5447019934654236
v 0.05251000076532364 -0.46424102783203125 0.5447019934654236
v 0.24428099393844604 -0.46709203720092773 0.5055279731750488
v 0.3828650116920471 -0.4719630479812622 0.396342009305954
v 0.3828650116920471 -0.4719630479812622 0.396342009305954
v 0.4340420067310333 -0.47652995586395264 0.2022400051355362
v 0.3822070062160492 -0.44707798957824707 -0.05486299842596054
v 0.3822070062160492 -0.44707798957824707 -0.05486299842596054
v 0.23928500711917877 -0.3988109827041626 -0.20995500683784485
v 0.23928500711917877 -0.3988109827041626 -0.20995500683784485
v 0.05235299840569496 -0.3863879442214966 -0.2658349871635437
v 0.05235299840569496 -0.3863879442214966 -0.2658349871635437
v -0.13463500142097473 -0.40263402462005615 -0.20995500683784485
v -0.3057970106601715 -0.45271897315979004 -0.05486299842596054
v -0.3057970106601715 -0.45271897315979004 -0.05486299842596054
v -0.2351820021867752 0.03198599815368652 -0.07116100192070007
v -0.2818639874458313 0.05425602197647095 0.10611700266599655
v 0.047164998948574066 0.04946601390838623 0.07412999868392944
v -0.11687800288200378 0.015685975551605225 -0.20093600451946259
v 0.04731199890375137 0.009096026420593262 -0.25335100293159485
v 0.21130099892616272 0.015685975551605225 -0.20093600451946259
v 0.37625399231910706 0.05425602197647095 0.10611700266599655
v 0.3296299874782562 0.03198599815368652 -0.07116100192070007
v 0.3320080041885376 0.07282602787017822 0.2663710117340088
v -0.2383269965648651 0.07299602031707764 0.2627359926700592
v -0.12055700272321701 0.08612602949142456 0.361532986164093
v 0.04749700054526329 0.09003597497940063 0.4026620090007782
v 0.21560600399971008 0.08612602949142456 0.35201001167297363
v -0.27830299735069275 -0.4719200134277344 0.3953999876976013
v -0.32928600907325745 -0.47652995586395264 0.2022400051355362
v 0.05234700068831444 -0.43167197704315186 0.13974900543689728
v -0.13934600353240967 -0.46709203720092773 0.5079920291900635
v 0.24428099393844604 -0.46709203720092773 0.5055279731750488
v 0.05251000076532364 -0.46424102783203125 0.5447019934654236
v 0.3828650116920471 -0.4719630479812622 0.396342009305954
v 0.4340420067310333 -0.47652995586395264 0.2022400051355362
v 0.3822070062160492 -0.44707798957824707 -0.05486299842596054
v 0.23928500711917877 -0.3988109827041626 -0.20995500683784485
v 0.05235299840569496 -0.3863879442214966 -0.2658349871635437
v -0.13463500142097473 -0.40263402462005615 -0.20995500683784485
v -0.3057970106601715 -0.45271897315979004 -0.05486299842596054
v -0.2245980054140091 -0.43344199657440186 0.3552660048007965
v -0.2673400044441223 -0.4373070001602173 0.19332699477672577
v -0.2677910029888153 -0.6615409851074219 0.21144099533557892
v -0.22517000138759613 -0.6618059873580933 0.379831999540329
v -0.10809999704360962 -0.429394006729126 0.4496600031852722
v -0.2245980054140091 -0.43344199657440186 0.3552660048007965
v -0.22517000138759613 -0.6618059873580933 0.379831999540329
v -0.111114002764225 -0.6594530344009399 0.476175993680954
v -0.111114002764225 -0.6594530344009399 0.476175993680954
v 0.05416300147771835 -0.6571420431137085 0.5053880214691162
v 0.05274499952793121 -0.42700397968292236 0.4804359972476959
v 0.21708600223064423 -0.6594530344009399 0.476175993680954
v 0.21352100372314453 -0.429394006729126 0.4475939869880676
v 0.05274499952793121 -0.42700397968292236 0.4804359972476959
v 0.05416300147771835 -0.6571420431137085 0.5053880214691162
v 0.33382800221443176 -0.6618059873580933 0.379831999540329
v 0.32970499992370605 -0.4334779977798462 0.35605600476264954
v 0.33382800221443176 -0.6618059873580933 0.379831999540329
v 0.37644898891448975 -0.6615409851074219 0.21144099533557892
v 0.3726100027561188 -0.4373070001602173 0.19332699477672577
v 0.32970499992370605 -0.4334779977798462 0.35605600476264954
v 0.3296479880809784 -0.6221859455108643 -0.024630999192595482
v 0.32915401458740234 -0.41261494159698486 -0.022221000865101814
v 0.3296479880809784 -0.6221859455108643 -0.024630999192595482
v 0.20903700590133667 -0.5635279417037964 -0.16043299436569214
v 0.20933200418949127 -0.3721489906311035 -0.15224500000476837
v 0.32915401458740234 -0.41261494159698486 -0.022221000865101814
v 0.0526139996945858 -0.3617340326309204 -0.19909299910068512
v 0.20933200418949127 -0.3721489906311035 -0.15224500000476837
v 0.20903700590133667 -0.5635279417037964 -0.16043299436569214
v 0.0540740005671978 -0.5477390289306641 -0.20772700011730194
v -0.10415100306272507 -0.3753540515899658 -0.15224500000476837
v 0.0526139996945858 -0.3617340326309204 -0.19909299910068512
v 0.0540740005671978 -0.5477390289306641 -0.20772700011730194
v -0.10088899731636047 -0.5678009986877441 -0.16043299436569214
v -0.2524070143699646 -0.6284890174865723 -0.024630999192595482
v -0.24764800071716309 -0.41734397411346436 -0.022221000865101814
v -0.24764800071716309 -0.41734397411346436 -0.022221000865101814
v -0.2524070143699646 -0.6284890174865723 -0.024630999192595482
v 0.46347999572753906 -0.9971070289611816 0.22117500007152557
v 0.443805992603302 -0.7806249856948853 0.22447100281715393
v 0.39118701219558716 -0.7797050476074219 0.4210059940814972
v 0.407710999250412 -0.9971070289611816 0.42453300952911377
v 0.39118701219558716 -0.7636749744415283 0.0017229999648407102
v 0.407710999250412 -0.9971059560775757 0.001969000091776252
v -0.36906901001930237 -0.9971070289611816 0.22117500007152557
v -0.34170299768447876 -0.7806249856948853 0.22447100281715393
v -0.3341279923915863 -0.7638399600982666 0.0017229999648407102
v -0.3700050115585327 -0.9970970153808594 0.001969000091776252
v -0.31329798698425293 -0.9971070289611816 0.42453300952911377
v -0.28908398747444153 -0.7797050476074219 0.4210059940814972
v -0.22450099885463715 -0.7077569961547852 -0.2165910005569458
v -0.2169550061225891 -0.5713809728622437 -0.14350299537181854
v -0.0786380022764206 -0.5356910228729248 -0.2234410047531128
v -0.08923500031232834 -0.6558699607849121 -0.2954519987106323
v 0.33164599537849426 -0.7579200267791748 -0.40447598695755005
v 0.3164350092411041 -0.6877779960632324 -0.23627200722694397
v 0.41416001319885254 -0.7474639415740967 -0.16477300226688385
v 0.39607399702072144 -0.7782059907913208 -0.35594698786735535
v -0.30204999446868896 -0.8126139640808105 -0.31038498878479004
v -0.3350209891796112 -0.9970760345458984 -0.3259260058403015
v -0.3706429898738861 -0.9970760345458984 -0.15853999555110931
v -0.3216400146484375 -0.7585419416427612 -0.16477300226688385
v -0.25831300020217896 -0.9970760345458984 -0.4800330102443695
v -0.2296690046787262 -0.7971570491790771 -0.4512139856815338
v -0.09176500141620636 -0.7604149580001831 -0.5844830274581909
v -0.10751699656248093 -0.997094988822937 -0.6003069877624512
v 0.051419999450445175 -0.7369400262832642 -0.6339719891548157
v 0.047207001596689224 -0.9971029758453369 -0.6465650200843811
v 0.19754700362682343 -0.749008059501648 -0.6063050031661987
v 0.33119601011276245 -0.7702599763870239 -0.48138898611068726
v 0.35135000944137573 -0.9970849752426147 -0.5102090239524841
v 0.20510700345039368 -0.9970990419387817 -0.6221950054168701
v 0.4296160042285919 -0.9970879554748535 -0.3714880049228668
v 0.39607399702072144 -0.7782059907913208 -0.35594698786735535
v 0.41416001319885254 -0.7474639415740967 -0.16477300226688385
v 0.4655350148677826 -0.9970929622650146 -0.15853999555110931
v 0.39118701219558716 -0.7636749744415283 0.0017229999648407102
v 0.407710999250412 -0.9971059560775757 0.001969000091776252
v -0.3341279923915863 -0.7638399600982666 0.0017229999648407102
v -0.3700050115585327 -0.9970970153808594 0.001969000091776252
v 0.051419999450445175 -0.7369400262832642 -0.6339719891548157
v -0.09176500141620636 -0.7604149580001831 -0.5844830274581909
v -0.0998539999127388 -0.7518110275268555 -0.450654000043869
v 0.0522099994122982 -0.7270270586013794 -0.5023130178451538
v -0.23415499925613403 -0.7840249538421631 -0.3621149957180023
v -0.2296690046787262 -0.7971570491790771 -0.4512139856815338
v -0.30204999446868896 -0.8126139640808105 -0.31038498878479004
v -0.3350209891796112 -0.9970760345458984 -0.3259260058403015
v 0.4296160042285919 -0.9970879554748535 -0.3714880049228668
v 0.33119601011276245 -0.7702599763870239 -0.48138898611068726
v 0.19754700362682343 -0.749008059501648 -0.6063050031661987
v 0.20992900431156158 -0.7368069887161255 -0.4751960039138794
v -0.3216400146484375 -0.7585419416427612 -0.16477300226688385
v 0.19967199862003326 -0.6450070142745972 -0.3059459924697876
v 0.18943500518798828 -0.5322849750518799 -0.22288300096988678
v 0.30385398864746094 -0.5611310005187988 -0.14779900014400482
v -0.3166710138320923 -0.6512399911880493 0.22094200551509857
v -0.29895299673080444 -0.6131730079650879 -0.05095300078392029
v 0.371425986289978 -0.6059130430221558 -0.05095300078392029
v 0.4253289997577667 -0.6512399911880493 0.22094200551509857
v 0.37623998522758484 -0.6515460014343262 0.414885014295578
v 0.39118701219558716 -0.7797050476074219 0.4210059940814972
v 0.37623998522758484 -0.6515460014343262 0.414885014295578
v 0.241784006357193 -0.6488360166549683 0.5258489847183228
v 0.2474289983510971 -0.777461051940918 0.5396180152893066
v 0.054138001054525375 -0.6461739540100098 0.5594940185546875
v 0.0510529987514019 -0.7782109975814819 0.5744109749794006
v -0.13621899485588074 -0.6488360166549683 0.5258489847183228
v -0.14532600343227386 -0.777461051940918 0.5396180152893066
v 0.0510529987514019 -0.7782109975814819 0.5744109749794006
v 0.054138001054525375 -0.6461739540100098 0.5594940185546875
v -0.2675819993019104 -0.6515460014343262 0.414885014295578
v -0.28908398747444153 -0.7797050476074219 0.4210059940814972
v -0.2675819993019104 -0.6515460014343262 0.414885014295578
v 0.371425986289978 -0.6059130430221558 -0.05095300078392029
v -0.29895299673080444 -0.6131730079650879 -0.05095300078392029
v 0.053123001009225845 -0.6338249444961548 -0.32806000113487244
v 0.0540350005030632 -0.5201699733734131 -0.2618330121040344
v 0.0540350005030632 -0.5201699733734131 -0.2618330121040344
v 0.047207001596689224 -0.9971070289611816 0.5857470035552979
v -0.16093400120735168 -0.9971070289611816 0.5473269820213318
v -0.29895299673080444 -0.6131730079650879 -0.05095300078392029
v 0.371425986289978 -0.6059130430221558 -0.05095300078392029
v 0.2553440034389496 -0.9971070289611816 0.5473269820213318
v 0.407710999250412 -0.9971070289611816 0.42453300952911377
v 0.047207001596689224 -0.9971070289611816 0.5857470035552979
v -0.31329798698425293 -0.9971070289611816 0.42453300952911377
v 0.04744499921798706 -0.9966169595718384 -0.030393999069929123
v -0.16093400120735168 -0.9971070289611816 0.5473269820213318
v -0.31329798698425293 -0.9971070289611816 0.42453300952911377
v 0.2553440034389496 -0.9971070289611816 0.5473269820213318
v 0.047207001596689224 -0.9971070289611816 0.5857470035552979
v 0.407710999250412 -0.9971070289611816 0.42453300952911377
v 0.46347999572753906 -0.9971070289611816 0.22117500007152557
v 0.20510700345039368 -0.9970990419387817 -0.6221950054168701
v 0.35135000944137573 -0.9970849752426147 -0.5102090239524841
v -0.10751699656248093 -0.997094988822937 -0.6003069877624512
v 0.047207001596689224 -0.9971029758453369 -0.6465650200843811
v -0.25831300020217896 -0.9970760345458984 -0.4800330102443695
v -0.36906901001930237 -0.9971070289611816 0.22117500007152557
v 0.4655350148677826 -0.9970929622650146 -0.15853999555110931
v 0.407710999250412 -0.9971059560775757 0.001969000091776252
v -0.3700050115585327 -0.9970970153808594 0.001969000091776252
v -0.3706429898738861 -0.9970760345458984 -0.15853999555110931
v -0.3350209891796112 -0.9970760345458984 -0.3259260058403015
v 0.4296160042285919 -0.9970879554748535 -0.3714880049228668
v -0.0786380022764206 -0.5356910228729248 -0.2234410047531128
v -0.2169550061225891 -0.5713809728622437 -0.14350299537181854
v 0.05428000167012215 -0.586217999458313 0.1491830050945282
v 0.30385398864746094 -0.5611310005187988 -0.14779900014400482
v 0.18943500518798828 -0.5322849750518799 -0.22288300096988678
v -0.29895299673080444 -0.6131730079650879 -0.05095300078392029
v -0.3166710138320923 -0.6512399911880493 0.22094200551509857
v 0.4253289997577667 -0.6512399911880493 0.22094200551509857
v 0.371425986289978 -0.6059130430221558 -0.05095300078392029
v 0.37623998522758484 -0.6515460014343262 0.414885014295578
v -0.13621899485588074 -0.6488360166549683 0.5258489847183228
v 0.054138001054525375 -0.6461739540100098 0.5594940185546875
v -0.2675819993019104 -0.6515460014343262 0.414885014295578
v 0.0540350005030632 -0.5201699733734131 -0.2618330121040344
v 0.241784006357193 -0.6488360166549683 0.5258489847183228

vn -0.27930399775505066 -0.07481600344181061 -0.9572839736938477
vn -0.28394201397895813 -0.1197109967470169 -0.9513390064239502
vn -0.28071001172065735 -0.12216299772262573 -0.9519860148429871
vn -0.2754000127315521 -0.08173400163650513 -0.9578490257263184
vn 0.27383700013160706 -0.1016319990158081 -0.9563909769058228
vn 0.28133800625801086 -0.09790000319480896 -0.9546020030975342
vn 0.26121801137924194 -0.14605799317359924 -0.9541659951210022
vn 0.24920499324798584 -0.15412600338459015 -0.9561079740524292
vn 0.890300989151001 -0.10860700160264969 -0.44223201274871826
vn 0.8930130004882812 -0.12090300023555756 -0.4334869980812073
vn 0.7933130264282227 -0.11918199807405472 -0.5970339775085449
vn 0.7982019782066345 -0.10394100099802017 -0.5933539867401123
vn 0.992950975894928 -0.11698400229215622 -0.019037999212741852
vn 0.9917420148849487 -0.12795400619506836 -0.008729999884963036
vn 0.9668059945106506 -0.11442200094461441 0.22845900058746338
vn 0.9669089913368225 -0.12255699932575226 0.22375400364398956
vn 0.6975589990615845 -0.08862700313329697 0.7110249996185303
vn 0.4915040135383606 -0.07566399872303009 0.8675820231437683
vn 0.48973000049591064 -0.10172399878501892 0.8659189939498901
vn 0.7033920288085938 -0.10866399854421616 0.7024469971656799
vn -0.4646489918231964 -0.03591199964284897 0.8847659826278687
vn -0.6479189991950989 -0.022513000294566154 0.7613769769668579
vn -0.6389999985694885 -0.05296900123357773 0.7673810124397278
vn -0.458763986825943 -0.06295400112867355 0.8863250017166138
vn -0.9996799826622009 -0.02105800062417984 -0.014042000286281109
vn -0.9989399909973145 -0.04573599994182587 -0.005135999992489815
vn -0.9715870022773743 -0.04283899813890457 0.23277199268341064
vn -0.9708309769630432 -0.017486000433564186 0.2391279935836792
vn -0.882345974445343 -0.03280799835920334 -0.4694570004940033
vn -0.8834220170974731 -0.05052899941802025 -0.465844988822937
vn -0.7619810104370117 -0.05304599925875664 -0.6454229950904846
vn -0.7468000054359436 -0.07268200069665909 -0.6610649824142456
vn -0.27224001288414 -0.06009899824857712 0.9603509902954102
vn -0.2609570026397705 -0.037133000791072845 0.9646360278129578
vn 0.2596000134944916 -0.05874999985098839 0.9639279842376709
vn 0.2601880133152008 -0.09014199674129486 0.9613410234451294
vn -0.27025899291038513 -0.0044639999978244305 -0.9627770185470581
vn -0.27098599076271057 -0.0010509999701753259 -0.9625830054283142
vn 0.27836400270462036 -0.024517999961972237 -0.9601629972457886
vn 0.2761639952659607 -0.02471799962222576 -0.9607930183410645
vn 0.802478015422821 -0.049059998244047165 -0.5946609973907471
vn 0.890188992023468 -0.07032500207424164 -0.45013099908828735
vn 0.9963449835777283 -0.08219700306653976 -0.023222999647259712
vn 0.9689030051231384 -0.07810000330209732 0.2347940057516098
vn 0.6873049736022949 -0.029955999925732613 0.7257509827613831
vn 0.47740399837493896 -7.999999797903001e-05 0.8786839842796326
vn 0.00047500000800937414 0.039806000888347626 0.9992070198059082
vn -0.46236899495124817 0.04748699814081192 0.8854150176048279
vn 0.00047500000800937414 0.039806000888347626 0.9992070198059082
vn -0.6503549814224243 0.052696000784635544 0.7577999830245972
vn -0.9678249955177307 0.05017400160431862 0.24657100439071655
vn -0.9985690116882324 0.0520160011947155 -0.012455999851226807
vn -0.8887739777565002 0.046126000583171844 -0.45601901412010193
vn -0.7793980240821838 0.03246200084686279 -0.6256880164146423
vn 0.791234016418457 -0.03294700011610985 -0.6106250286102295
vn 0.8837299942970276 -0.05657799914479256 -0.4645639955997467
vn 0.10765799880027771 0.35106900334358215 -0.9301400184631348
vn 0.2721090018749237 0.2615709900856018 -0.9260330200195312
vn -0.27347299456596375 0.035443998873233795 -0.9612259864807129
vn -0.26839300990104675 0.2678230106830597 -0.9253299832344055
vn -0.8541300296783447 0.2896519899368286 -0.43192899227142334
vn -0.7637829780578613 0.27277401089668274 -0.5850039720535278
vn -0.9251729846000671 0.366892009973526 -0.09718800336122513
vn -0.8314399719238281 0.3819809854030609 0.40348100662231445
vn -0.9619799852371216 0.10202000290155411 0.25335100293159485
vn -0.4345940053462982 0.3136950135231018 0.844228982925415
vn -0.6508150100708008 0.11233499646186829 0.7508800029754639
vn 0.00023099999816622585 0.30570998787879944 0.9521250128746033
vn 0.00023099999816622585 0.30570998787879944 0.9521250128746033
vn 0.4343029856681824 0.29204800724983215 0.8521090149879456
vn 0.7142030000686646 0.37185800075531006 0.5929880142211914
vn 0.9978910088539124 -0.056269001215696335 -0.032370999455451965
vn 0.967104971408844 -0.039381999522447586 0.25130900740623474
vn -0.5015760064125061 0.6885380148887634 -0.5237720012664795
vn -0.7637829780578613 0.27277401089668274 -0.5850039720535278
vn -0.8541300296783447 0.2896519899368286 -0.43192899227142334
vn -0.6946330070495605 0.637004017829895 -0.33423399925231934
vn -0.2414419949054718 0.5101839900016785 -0.8254809975624084
vn 0.0014400000218302011 0.6586679816246033 -0.7524319887161255
vn 0.10765799880027771 0.35106900334358215 -0.9301400184631348
vn -0.26839300990104675 0.2678230106830597 -0.9253299832344055
vn 0.31345999240875244 0.6972830295562744 -0.6446229815483093
vn 0.2721090018749237 0.2615709900856018 -0.9260330200195312
vn 0.7782649993896484 0.49820101261138916 -0.3822300136089325
vn 0.6893150210380554 0.48611098527908325 -0.5371599793434143
vn 0.6892549991607666 0.48646101355552673 -0.5369200110435486
vn 0.6930549740791321 0.6361089944839478 -0.3391740024089813
vn 0.7632369995117188 0.6459779739379883 0.013497999869287014
vn 0.8562560081481934 0.5162950158119202 0.016253000125288963
vn 0.7142030000686646 0.37185800075531006 0.5929880142211914
vn 0.6275309920310974 0.650530993938446 0.4277999997138977
vn 0.33626601099967957 0.6420400142669678 0.6889920234680176
vn 0.4343029856681824 0.29204800724983215 0.8521090149879456
vn -0.0029770000837743282 0.6390380263328552 0.7691689729690552
vn 0.00023099999816622585 0.30570998787879944 0.9521250128746033
vn -0.34284499287605286 0.6437619924545288 0.6841260194778442
vn -0.4345940053462982 0.3136950135231018 0.844228982925415
vn -0.8314399719238281 0.3819809854030609 0.40348100662231445
vn -0.6303600072860718 0.6510239839553833 0.42286500334739685
vn -0.7628200054168701 0.6464490294456482 0.01445899996906519
vn -0.9251729846000671 0.366892009973526 -0.09718800336122513
vn -0.22442099452018738 0.9274029731750488 -0.2992649972438812
vn -0.3148989975452423 0.8438400030136108 -0.4344800114631653
vn -0.5050820112228394 0.8316490054130554 -0.23076699674129486
vn -0.3605729937553406 0.9195809960365295 -0.15606899559497833
vn 0.001154000055976212 0.8498250246047974 -0.5270630121231079
vn 0.0008410000009462237 0.9311220049858093 -0.36470699310302734
vn 0.22355300188064575 0.9267629981040955 -0.3018839955329895
vn 0.3133600056171417 0.842648983001709 -0.43789100646972656
vn 0.3594509959220886 0.9194819927215576 -0.15921300649642944
vn 0.5035560131072998 0.8313900232315063 -0.23499399423599243
vn 0.5486639738082886 0.8356990218162537 0.023950999602675438
vn 0.38985300064086914 0.9205039739608765 0.02622400037944317
vn 0.31861698627471924 0.9176539778709412 0.23747700452804565
vn 0.4484019875526428 0.8341460227966309 0.32114699482917786
vn 0.17263899743556976 0.9110609889030457 0.37438300251960754
vn 0.241907998919487 0.8245890140533447 0.5114030241966248
vn -0.0011940000113099813 0.9095450043678284 0.41560399532318115
vn -0.0018889999482780695 0.8220739960670471 0.5693770051002502
vn -0.17577600479125977 0.9118509888648987 0.3709869980812073
vn -0.24641500413417816 0.8258709907531738 0.5071660280227661
vn -0.3200930058956146 0.9178429841995239 0.23474599421024323
vn -0.45047301054000854 0.8344579935073853 0.31741800904273987
vn -0.38986900448799133 0.9204980134963989 0.026203999295830727
vn -0.5486570000648499 0.8357040286064148 0.023946000263094902
vn -0.24436500668525696 0.9648560285568237 -0.09663400053977966
vn -0.15232600271701813 0.9692549705505371 -0.1932390034198761
vn 0.0005910000181756914 0.9714459776878357 -0.23726199567317963
vn 0.15197999775409698 0.9689350128173828 -0.19510699808597565
vn 0.2437410056591034 0.964775025844574 -0.09898799657821655
vn 0.26426899433135986 0.9640790224075317 0.02670699916779995
vn 0.21607600152492523 0.961480975151062 0.16989800333976746
vn 0.11691900342702866 0.957647979259491 0.26313599944114685
vn -0.0007980000227689743 0.9566289782524109 0.2913079857826233
vn -0.11899899691343307 0.9580360054969788 0.2607809901237488
vn -0.21704599261283875 0.9615970253944397 0.1679929941892624
vn -0.2642729878425598 0.9640780091285706 0.02670699916779995
vn 0.00026000000070780516 0.9996950030326843 0.024678999558091164
vn -0.002957999939098954 -0.9973040223121643 -0.07332699745893478
vn -0.0021250001154839993 -0.9972469806671143 -0.07412700355052948
vn -0.010645000264048576 -0.9968670010566711 -0.07837499678134918
vn -0.01017799973487854 -0.9973610043525696 -0.07188600301742554
vn -0.006519999820739031 -0.9973459839820862 -0.07252100110054016
vn -0.01066100038588047 -0.9972440004348755 -0.07341600209474564
vn 0.004798999987542629 -0.9974039793014526 -0.07185100018978119
vn 0.0025679999962449074 -0.9975420236587524 -0.07002399861812592
vn 0.005320999771356583 -0.9973980188369751 -0.07190100103616714
vn 0.005927000194787979 -0.996770977973938 -0.08007500320672989
vn -0.005896000191569328 -0.9971479773521423 -0.07524199783802032
vn -0.005129000172019005 -0.9975709915161133 -0.06946200132369995
vn -0.004484999924898148 -0.9975929856300354 -0.06919900327920914
vn -0.33062100410461426 -0.08379500359296799 -0.9400359988212585
vn -0.285506010055542 -0.06877899914979935 -0.9559059739112854
vn -0.31488099694252014 -0.0450810007750988 -0.9480599761009216
vn -0.35511499643325806 -0.07982700318098068 -0.9314079880714417
vn 0.2892340123653412 -0.05581900104880333 -0.9556300044059753
vn 0.2520729899406433 -0.0859379991889 -0.9638850092887878
vn 0.31256699562072754 -0.09334900230169296 -0.9452980160713196
vn 0.3373120129108429 -0.08423300087451935 -0.9376170039176941
vn 0.7758769989013672 -0.06771399825811386 -0.627240002155304
vn 0.7962560057640076 -0.07258599996566772 -0.6005889773368835
vn 0.8894950151443481 -0.05222700163722038 -0.4539499878883362
vn 0.8929240107536316 -0.043838001787662506 -0.4480679929256439
vn 0.9990670084953308 -0.019927000626921654 -0.0383090004324913
vn 0.9999330043792725 -0.011300000362098217 -0.0024389999452978373
vn 0.9683840274810791 0.008798999711871147 0.2493090033531189
vn 0.972491979598999 -0.0007179999956861138 0.23293399810791016
vn 0.4739449918270111 -0.013086000457406044 0.8804569840431213
vn 0.651112973690033 0.03498300164937973 0.7581750154495239
vn 0.6795120239257812 -0.0008609999786131084 0.7336639761924744
vn 0.5031419992446899 -0.03525000065565109 0.8634849786758423
vn -0.0017000000225380063 -0.021245000883936882 0.9997730255126953
vn 0.010886999778449535 -0.012815999798476696 0.9998589754104614
vn 0.010886999778449535 -0.012815999798476696 0.9998589754104614
vn -0.0017000000225380063 -0.021245000883936882 0.9997730255126953
vn -0.4551439881324768 0.00786999985575676 0.8903830051422119
vn -0.4559229910373688 0.010677999816834927 0.8899549841880798
vn -0.6334819793701172 0.01634100079536438 0.7735850214958191
vn -0.6367120146751404 0.01219599973410368 0.7710049748420715
vn -0.9994500279426575 -0.03314699977636337 -0.0013770000077784061
vn -0.9680399894714355 -0.019946999847888947 0.2500019967556
vn -0.9705309867858887 -0.010823000222444534 0.24073399603366852
vn -0.9986879825592041 -0.031215999275445938 -0.04058700054883957
vn -0.8687009811401367 -0.0553399994969368 -0.4922359883785248
vn -0.8792589902877808 -0.055149998515844345 -0.47314101457595825
vn -0.7427819967269897 -0.048468999564647675 -0.6677770018577576
vn -0.7491940259933472 -0.0527539998292923 -0.6602460145950317
vn -0.8722910284996033 -0.05724100023508072 -0.4856239855289459
vn -0.9672390222549438 -0.05549800023436546 -0.24772800505161285
vn -0.9658700227737427 -0.009359999559819698 0.25885799527168274
vn -0.9635090231895447 0.0014090000186115503 0.26767298579216003
vn -0.640064001083374 0.016648000106215477 0.768140971660614
vn -0.4685809910297394 0.009451000019907951 0.8833699822425842
vn 0.021418999880552292 -0.021542999893426895 0.999538004398346
vn 0.021418999880552292 -0.021542999893426895 0.999538004398346
vn 0.4501839876174927 -0.03584099933505058 0.8922160267829895
vn 0.6220129728317261 0.0007340000011026859 0.7830060124397278
vn 0.9998649954795837 -0.01609800010919571 0.00317199993878603
vn 0.9639750123023987 0.0013780000153928995 0.26598799228668213
vn 0.8805580139160156 -0.061521999537944794 -0.4699290096759796
vn 0.7413830161094666 -0.10525199770927429 -0.6627770066261292
vn 0.3066120147705078 -0.1272130012512207 -0.9432950019836426
vn 0.32004401087760925 -0.13887299597263336 -0.9371690154075623
vn -0.32765498757362366 -0.12630699574947357 -0.9363170266151428
vn -0.30626600980758667 -0.10872499644756317 -0.9457169771194458
vn -0.7450839877128601 -0.06283800303936005 -0.6640040278434753
vn -0.89021897315979 0.08558099716901779 -0.44742199778556824
vn -0.9936419725418091 0.09717299789190292 0.05685900151729584
vn -0.9904770255088806 0.13761299848556519 0.00419300002977252
vn -0.8647080063819885 0.11570800095796585 -0.48876601457595825
vn -0.5272740125656128 0.039597999304533005 -0.8487719893455505
vn -0.510237991809845 0.045134998857975006 -0.858847975730896
vn -0.30386000871658325 0.006771999876946211 -0.952692985534668
vn -0.29412001371383667 0.032207001000642776 -0.9552260041236877
vn 0.2984449863433838 0.020109999924898148 -0.9542149901390076
vn 0.5372800230979919 0.042688000947237015 -0.8423230051994324
vn 0.537585973739624 0.05452600121498108 -0.8414440155029297
vn 0.2921690046787262 0.035975001752376556 -0.9556900262832642
vn 0.8869540095329285 0.07312099635601044 -0.45603200793266296
vn 0.8703150153160095 0.0854170024394989 -0.48503100872039795
vn 0.9902639985084534 0.13854600489139557 -0.013519000262022018
vn 0.9938709735870361 0.10800199955701828 0.023574000224471092
vn 0.9532650113105774 0.1735219955444336 0.24733899533748627
vn 0.9560220241546631 0.1430869996547699 0.25602400302886963
vn 0.5971840023994446 0.23712599277496338 0.7662519812583923
vn 0.5915169715881348 0.25783100724220276 0.7639579772949219
vn 0.4384329915046692 0.26656800508499146 0.8583229780197144
vn 0.4218379855155945 0.2550179958343506 0.8700680136680603
vn -0.42849400639533997 0.24402299523353577 0.8699690103530884
vn -0.44849899411201477 0.25377899408340454 0.8569980263710022
vn -0.6343830227851868 0.2380169928073883 0.73546302318573
vn -0.6233199834823608 0.22457200288772583 0.7490260004997253
vn -0.9571020007133484 0.130280002951622 0.25881001353263855
vn -0.9568790197372437 0.1514730006456375 0.24786899983882904
vn 0.018084999173879623 0.2560099959373474 0.9665049910545349
vn -0.23549500107765198 0.25402799248695374 0.9380890130996704
vn 0.2843950092792511 0.25488001108169556 0.9242050051689148
vn 0.018084999173879623 0.2560099959373474 0.9665049910545349
vn -0.9612650275230408 0.10167200118303299 0.2561880052089691
vn -0.9918280243873596 0.0903329998254776 0.0900920033454895
vn -0.41184601187705994 0.22236500680446625 0.8837059736251831
vn -0.6205700039863586 0.20405299961566925 0.7571359872817993
vn 0.014183999970555305 0.23745200037956238 0.9712960124015808
vn 0.014183999970555305 0.23745200037956238 0.9712960124015808
vn 0.40665000677108765 0.2437169998884201 0.8804759979248047
vn 0.6053169965744019 0.21857799589633942 0.7653859853744507
vn 0.9602370262145996 0.12374500185251236 0.2502650022506714
vn 0.9935719966888428 0.09880299866199493 0.05524900183081627
vn 0.9787700176239014 0.08170600235462189 -0.18797199428081512
vn 0.7432209849357605 0.05944700166583061 -0.6664000153541565
vn 0.7400609850883484 0.06464499980211258 -0.6694260239601135
vn 0.2896080017089844 0.061305999755859375 -0.9551799893379211
vn 0.29096999764442444 0.059783000499010086 -0.9548619985580444
vn -0.290008008480072 0.0507659986615181 -0.9556769728660583
vn -0.5155540108680725 0.05372200161218643 -0.8551710247993469
vn -0.6897649765014648 0.06763999909162521 -0.7208669781684875
vn -0.9897170066833496 0.11897700279951096 -0.07940199971199036
vn 0.0021170000545680523 0.9923419952392578 -0.12350399792194366
vn 0.002623999956995249 0.9925699830055237 -0.12164700031280518
vn -5.0999999075429514e-05 0.9923350214958191 -0.12357600033283234
vn 0.0012919999426230788 0.9924489855766296 -0.12264999747276306
vn -9.999999974752427e-07 0.9924870133399963 -0.12234800308942795
vn -0.0012929999502375722 0.9924489855766296 -0.12265100330114365
vn -0.002814000006765127 0.9928039908409119 -0.119718998670578
vn -0.0021170000545680523 0.9923419952392578 -0.12350499629974365
vn 0.004284000024199486 0.9919090270996094 -0.1268790066242218
vn -0.00011999999696854502 0.9922850131988525 -0.12397699803113937
vn 0.0017640000442042947 0.9920899868011475 -0.12551799416542053
vn -0.003266999963670969 0.9924560189247131 -0.1225539967417717
vn -0.0003459999861661345 0.9914370179176331 -0.13058899343013763
vn 0.09611599892377853 -0.994845986366272 -0.032308999449014664
vn 0.10978099703788757 -0.9930509924888611 -0.042410001158714294
vn 0.001753999968059361 -0.9961689710617065 -0.08743499964475632
vn 0.05539099872112274 -0.9962149858474731 -0.06698799878358841
vn -0.055741000920534134 -0.99617999792099 -0.06721600145101547
vn -0.00038899999344721437 -0.9967809915542603 -0.08016800135374069
vn -0.09593400359153748 -0.9948520064353943 -0.032641999423503876
vn -0.10920699685811996 -0.9929659962654114 -0.04574500024318695
vn -0.12437800318002701 -0.9832839965820312 -0.13297699391841888
vn -0.08605899661779404 -0.9865859746932983 -0.13871200382709503
vn 0.010106000117957592 -0.9937739968299866 -0.11095599830150604
vn 0.09719300270080566 -0.9862229824066162 -0.1338600069284439
vn 0.12365800142288208 -0.9849140048027039 -0.12105000019073486
vn -0.9677209854125977 0.02512899972498417 0.2507689893245697
vn -0.9974740147590637 0.007710000034421682 0.0706150010228157
vn -0.9944350123405457 0.01863200031220913 0.10369300097227097
vn -0.9690160155296326 0.028815999627113342 0.2453099936246872
vn -0.42654699087142944 0.10496500134468079 0.8983539938926697
vn -0.6290580034255981 0.08470100164413452 0.7727299928665161
vn -0.6382709741592407 0.09187199920415878 0.7643100023269653
vn -0.526619017124176 0.10414200276136398 0.8436989784240723
vn -0.17450900375843048 0.1050729975104332 0.9790329933166504
vn 0.001918999943882227 0.10780200362205505 0.9941710233688354
vn 0.0035890000872313976 0.11616499722003937 0.9932230114936829
vn 0.41683098673820496 0.10869999974966049 0.9024609923362732
vn 0.42243000864982605 0.11819300055503845 0.8986560106277466
vn 0.0035890000872313976 0.11616499722003937 0.9932230114936829
vn 0.001918999943882227 0.10780200362205505 0.9941710233688354
vn 0.6349419951438904 0.09134899824857712 0.7671409845352173
vn 0.6240900158882141 0.10083799809217453 0.7748180031776428
vn 0.9677619934082031 0.03947699815034866 0.24875600636005402
vn 0.998507022857666 0.021164000034332275 0.05036599934101105
vn 0.9997230172157288 0.02083900012075901 0.010974000208079815
vn 0.9662780165672302 0.043869998306035995 0.2537359893321991
vn 0.9806569814682007 0.0028490000404417515 -0.19571499526500702
vn 0.9803680181503296 0.0045779999345541 -0.19712500274181366
vn 0.7452589869499207 0.018434999510645866 -0.6665199995040894
vn 0.7531690001487732 0.02696000039577484 -0.6572740077972412
vn 0.7445409893989563 0.017669999971985817 -0.6673420071601868
vn 0.7368069887161255 0.009510999545454979 -0.67603600025177
vn 0.2919139862060547 0.04323099926114082 -0.9554669857025146
vn 0.2886430025100708 0.04048199951648712 -0.9565809965133667
vn 0.29256901144981384 0.04378199949860573 -0.9552419781684875
vn 0.2959269881248474 0.046608999371528625 -0.9540730118751526
vn -0.480228990316391 0.031929001212120056 -0.8765619993209839
vn -0.28943300247192383 0.04211600124835968 -0.9562709927558899
vn -0.2930220067501068 0.0385189987719059 -0.9553290009498596
vn -0.515496015548706 0.02770099975168705 -0.8564440011978149
vn -0.6734439730644226 0.021911000832915306 -0.7389129996299744
vn -0.6750630140304565 0.023631999269127846 -0.7373809814453125
vn -0.9970600008964539 0.009494000114500523 -0.07602900266647339
vn -0.9978200197219849 0.023195000365376472 -0.06177699938416481
vn 0.9965220093727112 0.08259999752044678 0.01101600006222725
vn 0.9931169748306274 0.11511000245809555 0.02162100002169609
vn 0.9613140225410461 0.10582400113344193 0.25431498885154724
vn 0.9615020155906677 0.07735899835824966 0.2636829912662506
vn 0.9940230250358582 0.09644400328397751 -0.05115000158548355
vn 0.9934419989585876 0.11391100287437439 0.009909000247716904
vn -0.98403000831604 0.1281680017709732 0.12352299690246582
vn -0.9810310006141663 0.1542939990758896 0.11735399812459946
vn -0.982204020023346 0.18456099927425385 -0.034818001091480255
vn -0.9883679747581482 0.15202400088310242 0.004087999928742647
vn -0.9584289789199829 0.1110130026936531 0.26284900307655334
vn -0.9557660222053528 0.14328299462795258 0.2568660080432892
vn -0.576291024684906 0.6006990075111389 -0.5541200041770935
vn -0.6226360201835632 0.4421980082988739 -0.6455889940261841
vn -0.427029013633728 0.4810270071029663 -0.7656760215759277
vn -0.4262619912624359 0.6682450175285339 -0.6097130179405212
vn 0.38501399755477905 0.8972629904747009 -0.216062992811203
vn 0.6251220107078552 0.6505690217018127 -0.4312550127506256
vn 0.647396981716156 0.6686019897460938 -0.3658539950847626
vn 0.4140720069408417 0.8929790258407593 -0.1764480024576187
vn -0.9309530258178711 0.19365699589252472 -0.30955299735069275
vn -0.9266129732131958 0.19142399728298187 -0.3236440122127533
vn -0.9772170186042786 0.18086999654769897 -0.11105799674987793
vn -0.9735720157623291 0.19854100048542023 -0.11286500096321106
vn -0.7822099924087524 0.16690899431705475 -0.6002410054206848
vn -0.797074019908905 0.19779199361801147 -0.5705710053443909
vn -0.49233299493789673 0.11497800052165985 -0.8627790212631226
vn -0.47281500697135925 0.07949399948120117 -0.8775680065155029
vn -0.05773799866437912 0.059627000242471695 -0.9965490102767944
vn -0.0639680027961731 0.056779999285936356 -0.9963350296020508
vn 0.4159359931945801 0.08542100340127945 -0.9053729772567749
vn 0.7939820289611816 0.14554500579833984 -0.5902619957923889
vn 0.765084981918335 0.13043799996376038 -0.6305789947509766
vn 0.3918899893760681 0.07069399952888489 -0.9172919988632202
vn 0.9304109811782837 0.17586399614810944 -0.3215689957141876
vn 0.9450399875640869 0.15571600198745728 -0.2874929904937744
vn 0.98506098985672 0.157382994890213 0.06989900022745132
vn 0.9752050042152405 0.202907994389534 0.08833999931812286
vn 0.9940230250358582 0.09644400328397751 -0.05115000158548355
vn 0.9934419989585876 0.11391100287437439 0.009909000247716904
vn -0.982204020023346 0.18456099927425385 -0.034818001091480255
vn -0.9883679747581482 0.15202400088310242 0.004087999928742647
vn -0.038297999650239944 0.9964380264282227 -0.07513199746608734
vn -0.2240930050611496 0.9710630178451538 -0.0825750008225441
vn -0.3145669996738434 0.9111260175704956 -0.26626598834991455
vn -0.05962599813938141 0.9637860059738159 -0.2599250078201294
vn -0.4872150123119354 0.8314099907875061 -0.26716798543930054
vn -0.4059770107269287 0.9009460210800171 -0.1532279998064041
vn -0.5622069835662842 0.7644969820976257 -0.31538501381874084
vn -0.9266129732131958 0.19142399728298187 -0.3236440122127533
vn 0.9304109811782837 0.17586399614810944 -0.3215689957141876
vn 0.31252801418304443 0.9376260042190552 -0.15226200222969055
vn 0.13495199382305145 0.9858019948005676 -0.09991399943828583
vn 0.21736599504947662 0.9422789812088013 -0.25467899441719055
vn -0.6389060020446777 0.5913100242614746 -0.49208900332450867
vn 0.3687320053577423 0.7202889919281006 -0.5875549912452698
vn 0.40043601393699646 0.5442249774932861 -0.7372040152549744
vn 0.7194460034370422 0.4473609924316406 -0.5312870144844055
vn -0.9749969840049744 0.19681599736213684 0.1031700000166893
vn -0.9763060212135315 0.2107280045747757 -0.04920399934053421
vn 0.9929119944572449 0.11647199839353561 -0.023655999451875687
vn 0.9922230243682861 0.12418899685144424 0.008430000394582748
vn 0.9619219899177551 0.12382499873638153 0.24366800487041473
vn 0.6350389719009399 0.08449699729681015 0.7678449749946594
vn 0.6339380145072937 0.11049400269985199 0.7654500007629395
vn 0.4162369966506958 0.11379899829626083 0.9021070003509521
vn 0.41513800621032715 0.0820619985461235 0.9060500264167786
vn 0.0038560000248253345 0.11217200011014938 0.993681013584137
vn 0.0010239999974146485 0.0815029963850975 0.9966729879379272
vn -0.4135169982910156 0.12867699563503265 0.9013580083847046
vn -0.41620901226997375 0.09426400065422058 0.9043700098991394
vn 0.0010239999974146485 0.0815029963850975 0.9966729879379272
vn 0.0038560000248253345 0.11217200011014938 0.993681013584137
vn -0.6403499841690063 0.14347399771213531 0.7545639872550964
vn -0.6340649724006653 0.10478799790143967 0.7661470174789429
vn -0.9517819881439209 0.17872799932956696 0.24933500587940216
vn 0.9929119944572449 0.11647199839353561 -0.023655999451875687
vn -0.9763060212135315 0.2107280045747757 -0.04920399934053421
vn -0.04073699936270714 0.7370659708976746 -0.6745920181274414
vn 0.281825989484787 0.48136699199676514 -0.8299760222434998
vn -0.2794089913368225 0.49832800030708313 -0.820730984210968
vn -0.0002749999985098839 0.04989999905228615 0.9987540245056152
vn -0.42587000131607056 0.06503300368785858 0.9024440050125122
vn -0.7543929815292358 0.47360900044441223 -0.4545170068740845
vn 0.7712339758872986 0.4652920067310333 -0.43439701199531555
vn 0.41777700185775757 0.048700001090765 0.9072440266609192
vn 0.6308090090751648 0.05477499961853027 0.7740030288696289
vn -0.0002749999985098839 0.04989999905228615 0.9987540245056152
vn -0.6253780126571655 0.08224300295114517 0.7759760022163391
vn -3.099999958067201e-05 -1.0 -4.999999873689376e-06
vn 0.0003260000084992498 -1.0 -0.0007309999782592058
vn 0.0007089999853633344 -1.0 -0.0005150000215508044
vn -0.0003260000084992498 -1.0 -0.0007309999782592058
vn 0.0 -1.0 -0.0007949999999254942
vn -0.0007089999853633344 -1.0 -0.0005159999709576368
vn -0.0011220000451430678 -0.9999989867210388 -9.200000204145908e-05
vn -0.00024900000425986946 -1.0 0.0007479999912902713
vn -0.0005939999828115106 -1.0 0.0005990000208839774
vn 0.000295000005280599 -1.0 0.0007590000168420374
vn 3.7000001611886546e-05 -1.0 0.0007890000124461949
vn 0.000610999995842576 -1.0 0.0006050000083632767
vn 0.0010580000234767795 -1.0 -0.000195999993593432
vn -0.0011660000309348106 -0.9999989867210388 -9.100000170292333e-05
vn -0.0013490000274032354 -0.9999989867210388 -9.200000204145908e-05
vn 0.001142999972216785 -0.9999989867210388 -9.100000170292333e-05
vn 0.0010779999429360032 -0.9999989867210388 6.600000051548705e-05
vn 0.0009309999877586961 -1.0 0.0003490000090096146
vn -0.0009250000002793968 -1.0 0.0003440000000409782
vn -0.10514900088310242 0.9797559976577759 0.1703599989414215
vn -0.17854200303554535 0.9603469967842102 0.21413899958133698
vn -0.0017030000453814864 0.9900659918785095 0.14059199392795563
vn 0.1738470047712326 0.9582430124282837 0.22704100608825684
vn 0.08036399632692337 0.9818969964981079 0.17152400314807892
vn -0.1814579963684082 0.9648060202598572 0.19032299518585205
vn -0.15661199390888214 0.9842309951782227 0.08223599940538406
vn 0.15642499923706055 0.9841989874839783 0.08296199887990952
vn 0.19282600283622742 0.9582189917564392 0.21126599609851837
vn 0.1347379982471466 0.987680971622467 0.07957399636507034
vn -0.0763619989156723 0.9891110062599182 0.12581199407577515
vn 0.00024199999461416155 0.9894919991493225 0.14458799362182617
vn -0.13535599410533905 0.9876530170440674 0.07886800169944763
vn -0.013306000269949436 0.9872450232505798 0.15865300595760345
vn 0.07591699808835983 0.9890409708023071 0.12662899494171143

vt 0.6970260143280029 0.1958780288696289
vt 0.6960620284080505 0.23942101001739502
vt 0.6669819951057434 0.24134397506713867
vt 0.66634601354599 0.1983410120010376
vt 0.6970260143280029 0.1958780288696289
vt 0.727403998374939 0.1952509880065918
vt 0.727603018283844 0.23897802829742432
vt 0.6960620284080505 0.23942101001739502
vt 0.7634369730949402 0.1982629895210266
vt 0.7614780068397522 0.2420160174369812
vt 0.727603018283844 0.23897802829742432
vt 0.727403998374939 0.1952509880065918
vt 0.7924969792366028 0.2019050121307373
vt 0.7889739871025085 0.24540001153945923
vt 0.8254899978637695 0.20771098136901855
vt 0.8213589787483215 0.25035297870635986
vt 0.8254899978637695 0.20771098136901855
vt 0.855239987373352 0.21372497081756592
vt 0.84927898645401 0.25570398569107056
vt 0.8213589787483215 0.25035297870635986
vt 0.5349779725074768 0.21696799993515015
vt 0.5673249959945679 0.21322202682495117
vt 0.5707709789276123 0.25501197576522827
vt 0.539322018623352 0.25864601135253906
vt 0.6001570224761963 0.2082970142364502
vt 0.6032590270042419 0.25081098079681396
vt 0.5707709789276123 0.25501197576522827
vt 0.5673249959945679 0.21322202682495117
vt 0.6288170218467712 0.20381200313568115
vt 0.6306790113449097 0.24667102098464966
vt 0.66634601354599 0.1983410120010376
vt 0.6669819951057434 0.24134397506713867
vt 0.5109840035438538 0.2612069845199585
vt 0.5040500164031982 0.21921497583389282
vt 0.8859450221061707 0.2193329930305481
vt 0.8795679807662964 0.2612069845199585
vt 0.6645299792289734 0.15672999620437622
vt 0.6967999935150146 0.153905987739563
vt 0.7283239960670471 0.15335100889205933
vt 0.6967999935150146 0.153905987739563
vt 0.7283239960670471 0.15335100889205933
vt 0.7658060193061829 0.15581297874450684
vt 0.7951710224151611 0.15967297554016113
vt 0.8287590146064758 0.1663699746131897
vt 0.8287590146064758 0.1663699746131897
vt 0.8589490056037903 0.1728619933128357
vt 0.8913689851760864 0.17797398567199707
vt 0.5320709943771362 0.1762160062789917
vt 0.5000020265579224 0.17747199535369873
vt 0.5641109943389893 0.17253297567367554
vt 0.5641109943389893 0.17253297567367554
vt 0.5975319743156433 0.1668509840965271
vt 0.6263859868049622 0.16198301315307617
vt 0.6645299792289734 0.15672999620437622
vt 0.7285919785499573 0.11314702033996582
vt 0.767687976360321 0.11388200521469116
vt 0.6961669921875 0.11406600475311279
vt 0.7285919785499573 0.11314702033996582
vt 0.6961669921875 0.11406600475311279
vt 0.6633269786834717 0.1163250207901001
vt 0.6247410178184509 0.12005901336669922
vt 0.6633269786834717 0.1163250207901001
vt 0.5955510139465332 0.12347400188446045
vt 0.5626189708709717 0.12701702117919922
vt 0.5955510139465332 0.12347400188446045
vt 0.5311700105667114 0.12910997867584229
vt 0.5626189708709717 0.12701702117919922
vt 0.49955201148986816 0.12958598136901855
vt 0.893996000289917 0.1298149824142456
vt 0.8613899946212769 0.1258370280265808
vt 0.8297079801559448 0.12079101800918579
vt 0.7969220280647278 0.11619597673416138
vt 0.8297079801559448 0.12079101800918579
vt 0.9755420088768005 0.8058480024337769
vt 0.984574019908905 0.8080990016460419
vt 0.9670649766921997 0.8338489979505539
vt 0.9609649777412415 0.8264899998903275
vt 0.9755420088768005 0.8058480024337769
vt 0.9759020209312439 0.7842860072851181
vt 0.9846140146255493 0.7820920050144196
vt 0.984574019908905 0.8080990016460419
vt 0.964506983757019 0.7663889974355698
vt 0.9712560176849365 0.7596060037612915
vt 0.943153977394104 0.746084988117218
vt 0.9712560176849365 0.7596060037612915
vt 0.964506983757019 0.7663889974355698
vt 0.9417229890823364 0.7554260045289993
vt 0.922104001045227 0.7554720044136047
vt 0.9189649820327759 0.7463259994983673
vt 0.8960170149803162 0.7599779963493347
vt 0.9034370183944702 0.7665069997310638
vt 0.8942210078239441 0.7854869961738586
vt 0.8842930197715759 0.7830110043287277
vt 0.8949229717254639 0.8071559965610504
vt 0.884971022605896 0.8098279982805252
vt 0.905381977558136 0.8250329941511154
vt 0.8980249762535095 0.8324709981679916
vt 0.9197750091552734 0.8458449989557266
vt 0.9225239753723145 0.8365059942007065
vt 0.9441760182380676 0.8363849967718124
vt 0.9460899829864502 0.8458449989557266
vt 0.9550849795341492 0.8004820048809052
vt 0.9640949964523315 0.8029650002717972
vt 0.9535459876060486 0.8175099939107895
vt 0.9476789832115173 0.8103310018777847
vt 0.9642980098724365 0.7874519973993301
vt 0.9552680253982544 0.7899139970541
vt 0.9498029947280884 0.7809569984674454
vt 0.9563869833946228 0.7743349969387054
vt 0.9384229779243469 0.7760249972343445
vt 0.9397910237312317 0.7671629935503006
vt 0.926131010055542 0.7671400010585785
vt 0.9291800260543823 0.7760259956121445
vt 0.920212984085083 0.7815400063991547
vt 0.9129080176353455 0.7750439941883087
vt 0.9160109758377075 0.7907879948616028
vt 0.9068719744682312 0.7885850071907043
vt 0.9163010120391846 0.800913006067276
vt 0.9074239730834961 0.8034410029649734
vt 0.92118901014328 0.8094090074300766
vt 0.9141770005226135 0.8162429928779602
vt 0.9292870163917542 0.815091997385025
vt 0.9264230132102966 0.8241689950227737
vt 0.9397019743919373 0.8151820003986359
vt 0.9417470097541809 0.8243640065193176
vt 0.9428340196609497 0.8042400032281876
vt 0.9472209811210632 0.7983659952878952
vt 0.9473029971122742 0.7920970022678375
vt 0.9440590143203735 0.7868130058050156
vt 0.9373260140419006 0.783831998705864
vt 0.9317880272865295 0.7837399989366531
vt 0.9263949990272522 0.7869630008935928
vt 0.9239040017127991 0.7925219982862473
vt 0.9240400195121765 0.7986689954996109
vt 0.9270129799842834 0.8037710040807724
vt 0.9318779706954956 0.8071459978818893
vt 0.9381089806556702 0.8071549981832504
vt 0.9357569813728333 0.7952789962291718
vt 0.27160701155662537 0.8929589986801147
vt 0.23565199971199036 0.881913997232914
vt 0.24893200397491455 0.8660349994897842
vt 0.2638550102710724 0.8580339998006821
vt 0.28385499119758606 0.8580339998006821
vt 0.29862600564956665 0.8671730011701584
vt 0.3069640100002289 0.9011539965867996
vt 0.298550009727478 0.9185910001397133
vt 0.28071799874305725 0.9276370033621788
vt 0.2637839913368225 0.9272390007972717
vt 0.24412700533866882 0.9164789989590645
vt 0.23522600531578064 0.9011069983243942
vt 0.30767199397087097 0.8837890028953552
vt 0.951121985912323 0.26739501953125
vt 0.9851210117340088 0.26808202266693115
vt 0.9856089949607849 0.2936750054359436
vt 0.9515089988708496 0.293254017829895
vt 0.9856089949607849 0.2936750054359436
vt 0.984857976436615 0.32103902101516724
vt 0.951196014881134 0.3201249837875366
vt 0.9515089988708496 0.293254017829895
vt 0.951196014881134 0.3201249837875366
vt 0.984857976436615 0.32103902101516724
vt 0.980430006980896 0.350259006023407
vt 0.9490399956703186 0.3483859896659851
vt 0.9761239886283875 0.37405598163604736
vt 0.9472029805183411 0.3742799758911133
vt 0.9448630213737488 0.4009280204772949
vt 0.9712330102920532 0.4021890163421631
vt 0.9429910182952881 0.4240819811820984
vt 0.9448630213737488 0.4009280204772949
vt 0.9712330102920532 0.4021890163421631
vt 0.9674789905548096 0.4266579747200012
vt 0.9643840193748474 0.4534810185432434
vt 0.9402440190315247 0.4507719874382019
vt 0.940326988697052 0.13454997539520264
vt 0.9645619988441467 0.13161498308181763
vt 0.9674739837646484 0.15642297267913818
vt 0.9428920149803162 0.16008597612380981
vt 0.9719129800796509 0.18387901782989502
vt 0.9453700184822083 0.1854720115661621
vt 0.947700023651123 0.21196502447128296
vt 0.9453700184822083 0.1854720115661621
vt 0.9719129800796509 0.18387901782989502
vt 0.9768570065498352 0.21213102340698242
vt 0.981016993522644 0.2360910177230835
vt 0.9493449926376343 0.23795002698898315
vt 0.9851210117340088 0.26808202266693115
vt 0.951121985912323 0.26739501953125
vt 0.9204450249671936 0.24013900756835938
vt 0.9211080074310303 0.2119709849357605
vt 0.9211999773979187 0.18700098991394043
vt 0.9211080074310303 0.2119709849357605
vt 0.9211999773979187 0.18700098991394043
vt 0.9205300211906433 0.1634560227394104
vt 0.9182729721069336 0.13711601495742798
vt 0.9182729721069336 0.4482690095901489
vt 0.9206969738006592 0.4217119812965393
vt 0.920822024345398 0.3996880054473877
vt 0.9207919836044312 0.37429702281951904
vt 0.920822024345398 0.3996880054473877
vt 0.920324981212616 0.34626299142837524
vt 0.9201629757881165 0.31946301460266113
vt 0.9201629757881165 0.31946301460266113
vt 0.9200260043144226 0.29326701164245605
vt 0.9200260043144226 0.29326701164245605
vt 0.9200069904327393 0.2670300006866455
vt 0.9200069904327393 0.2670300006866455
vt 0.7749590277671814 0.04162102937698364
vt 0.8131309747695923 0.04494202136993408
vt 0.797540009021759 0.09372901916503906
vt 0.7666609883308411 0.08727997541427612
vt 0.7368490099906921 0.08363997936248779
vt 0.739329993724823 0.044000983238220215
vt 0.7075160145759583 0.08232200145721436
vt 0.7070930004119873 0.04466700553894043
vt 0.7075160145759583 0.08232200145721436
vt 0.6782259941101074 0.08368200063705444
vt 0.6748340129852295 0.044386982917785645
vt 0.7070930004119873 0.04466700553894043
vt 0.6409839987754822 0.042478978633880615
vt 0.6483740210533142 0.08755701780319214
vt 0.6173850297927856 0.0937349796295166
vt 0.6021739840507507 0.044676005840301514
vt 0.5896260142326355 0.10074001550674438
vt 0.5719379782676697 0.05074501037597656
vt 0.5719379782676697 0.05074501037597656
vt 0.5896260142326355 0.10074001550674438
vt 0.5664659738540649 0.10965698957443237
vt 0.5454909801483154 0.05954301357269287
vt 0.8704439997673035 0.05986201763153076
vt 0.849469006061554 0.10969597101211548
vt 0.8245980143547058 0.10081702470779419
vt 0.8429539799690247 0.05112099647521973
vt 0.8429539799690247 0.05112099647521973
vt 0.8245980143547058 0.10081702470779419
vt 0.9001320004463196 0.07207399606704712
vt 0.8767880201339722 0.12105798721313477
vt 0.5387240052223206 0.12105798721313477
vt 0.5156919956207275 0.07192999124526978
vt 0.8577719926834106 0.011290013790130615
vt 0.8240789771080017 0.005531013011932373
vt 0.8870959877967834 0.01986098289489746
vt 0.8577719926834106 0.011290013790130615
vt 0.9179720282554626 0.03243297338485718
vt 0.4981670081615448 0.03217798471450806
vt 0.5289779901504517 0.01935601234436035
vt 0.557856023311615 0.01071101427078247
vt 0.557856023311615 0.01071101427078247
vt 0.591733992099762 0.0051149725914001465
vt 0.6368489861488342 0.0060790181159973145
vt 0.6368489861488342 0.0060790181159973145
vt 0.673259973526001 0.012696027755737305
vt 0.673259973526001 0.012696027755737305
vt 0.7066630125045776 0.01444399356842041
vt 0.7066630125045776 0.01444399356842041
vt 0.740032970905304 0.012045979499816895
vt 0.7797849774360657 0.004724025726318359
vt 0.7797849774360657 0.004724025726318359
vt 0.3438040018081665 0.9306690022349358
vt 0.35584399104118347 0.949583001434803
vt 0.31661200523376465 0.9580830000340939
vt 0.3252669870853424 0.919953003525734
vt 0.30432501435279846 0.919953003525734
vt 0.28733500838279724 0.9321559965610504
vt 0.27977800369262695 0.9740590006113052
vt 0.27852100133895874 0.9516719989478588
vt 0.2908869981765747 0.9910559998825192
vt 0.3566780090332031 0.9694309998303652
vt 0.3467719852924347 0.9853309998288751
vt 0.3288849890232086 0.9963549999520183
vt 0.30756399035453796 0.996741000097245
vt 0.3488270044326782 0.858147993683815
vt 0.36779600381851196 0.8568100035190582
vt 0.3668319880962372 0.8939480036497116
vt 0.3357889950275421 0.8690949976444244
vt 0.3288399875164032 0.9049789980053902
vt 0.32881298661231995 0.8863480016589165
vt 0.3363420069217682 0.9200090020895004
vt 0.35342100262641907 0.9285959973931313
vt 0.3785470128059387 0.9285959973931313
vt 0.39621201157569885 0.917994000017643
vt 0.4050149917602539 0.9015910029411316
vt 0.4031679928302765 0.8830299973487854
vt 0.39148300886154175 0.8637930005788803
vt 0.5700600147247314 0.7358019948005676
vt 0.5415800213813782 0.7338080108165741
vt 0.5463259816169739 0.6957730054855347
vt 0.5758979916572571 0.6971090137958527
vt 0.5954599976539612 0.7386519908905029
vt 0.5700600147247314 0.7358019948005676
vt 0.5758979916572571 0.6971090137958527
vt 0.6012259721755981 0.6995899975299835
vt 0.6012259721755981 0.6995899975299835
vt 0.6294919848442078 0.7039589881896973
vt 0.6230480074882507 0.7428810000419617
vt 0.2878499925136566 0.6997910141944885
vt 0.2940010130405426 0.7388179898262024
vt 0.2663959860801697 0.7433109879493713
vt 0.26001501083374023 0.7043929994106293
vt 0.31350600719451904 0.6970730125904083
vt 0.3190380036830902 0.7358149886131287
vt 0.31350600719451904 0.6970730125904083
vt 0.34307700395584106 0.6957730054855347
vt 0.3476560115814209 0.7338390052318573
vt 0.3190380036830902 0.7358149886131287
vt 0.3843120038509369 0.7009510099887848
vt 0.3852599859237671 0.7366459965705872
vt 0.3843120038509369 0.7009510099887848
vt 0.41558200120925903 0.7099039852619171
vt 0.4156019985675812 0.7425529956817627
vt 0.3852599859237671 0.7366459965705872
vt 0.44350001215934753 0.7439259886741638
vt 0.4156019985675812 0.7425529956817627
vt 0.41558200120925903 0.7099039852619171
vt 0.44322898983955383 0.7121930122375488
vt 0.47140899300575256 0.7419439852237701
vt 0.44350001215934753 0.7439259886741638
vt 0.44322898983955383 0.7121930122375488
vt 0.4708789885044098 0.7091259956359863
vt 0.5058019757270813 0.69964599609375
vt 0.5045790076255798 0.735614001750946
vt 0.5045790076255798 0.735614001750946
vt 0.5058019757270813 0.69964599609375
vt 0.4324969947338104 0.6152899861335754
vt 0.43595001101493835 0.6521179974079132
vt 0.4704050123691559 0.6504510045051575
vt 0.46853700280189514 0.6133899986743927
vt 0.39759498834609985 0.6592719852924347
vt 0.39406201243400574 0.6194109916687012
vt 0.43112900853157043 0.6153739988803864
vt 0.4355199933052063 0.6522870063781738
vt 0.39820200204849243 0.6596089899539948
vt 0.3938399851322174 0.6194419860839844
vt 0.46709299087524414 0.6128660142421722
vt 0.46992799639701843 0.6499510109424591
vt 0.19766099750995636 0.8036639988422394
vt 0.19272500276565552 0.830157995223999
vt 0.16405899822711945 0.8259239941835403
vt 0.16759200394153595 0.8019959926605225
vt 0.09081999957561493 0.7707529962062836
vt 0.08611100167036057 0.8022830039262772
vt 0.06168299913406372 0.8021730035543442
vt 0.07720600068569183 0.772260993719101
vt 0.20962099730968475 0.7767869979143143
vt 0.23134000599384308 0.7515459954738617
vt 0.2520909905433655 0.7728810012340546
vt 0.21944400668144226 0.8022290021181107
vt 0.2046860009431839 0.7312789857387543
vt 0.18885299563407898 0.7611850053071976
vt 0.16131000220775604 0.7508070021867752
vt 0.17267000675201416 0.715283989906311
vt 0.14081500470638275 0.7480289936065674
vt 0.14273999631404877 0.7089079916477203
vt 0.12044599652290344 0.7490940093994141
vt 0.09541700035333633 0.7587479948997498
vt 0.08225800096988678 0.7240200042724609
vt 0.11352500319480896 0.7120780050754547
vt 0.04975999891757965 0.7445200085639954
vt 0.07720600068569183 0.772260993719101
vt 0.06168299913406372 0.8021730035543442
vt 0.025415999814867973 0.7737800031900406
vt 0.040814001113176346 0.8234429955482483
vt 0.00773700000718236 0.798104003071785
vt 0.2409520000219345 0.8220580071210861
vt 0.27122899889945984 0.7933160066604614
vt 0.14081500470638275 0.7480289936065674
vt 0.16131000220775604 0.7508070021867752
vt 0.16753000020980835 0.7706910073757172
vt 0.1406790018081665 0.7677929997444153
vt 0.19431300461292267 0.7752819955348969
vt 0.18885299563407898 0.7611850053071976
vt 0.20962099730968475 0.7767869979143143
vt 0.2288219928741455 0.7496080100536346
vt 0.05759400129318237 0.7385570108890533
vt 0.09541700035333633 0.7587479948997498
vt 0.12044599652290344 0.7490940093994141
vt 0.11436299979686737 0.7681120038032532
vt 0.21944400668144226 0.8022290021181107
vt 0.11231900006532669 0.8009079992771149
vt 0.11425500363111496 0.825216993689537
vt 0.08987999707460403 0.8294319957494736
vt 0.43765801191329956 0.6747080087661743
vt 0.39230799674987793 0.6868880093097687
vt 0.39113301038742065 0.687063992023468
vt 0.43731001019477844 0.6743650138378143
vt 0.471451997756958 0.6724720001220703
vt 0.4704050123691559 0.6504510045051575
vt 0.471451997756958 0.6724720001220703
vt 0.5012770295143127 0.6730020046234131
vt 0.5019580125808716 0.6510080099105835
vt 0.5338299870491028 0.6749350130558014
vt 0.535843014717102 0.652224987745285
vt 0.5011489987373352 0.6725890040397644
vt 0.5014849901199341 0.650530993938446
vt 0.5352879762649536 0.6522040069103241
vt 0.5340409874916077 0.6748400032520294
vt 0.4717240035533905 0.6720220148563385
vt 0.46992799639701843 0.6499510109424591
vt 0.4717240035533905 0.6720220148563385
vt 0.068122997879982 0.8346630036830902
vt 0.21526199579238892 0.8346630036830902
vt 0.14010100066661835 0.8013080060482025
vt 0.13936200737953186 0.8237230032682419
vt 0.13936200737953186 0.8237230032682419
vt 0.5367410182952881 0.6147249937057495
vt 0.5005750060081482 0.6130259931087494
vt 0.21526199579238892 0.8346630036830902
vt 0.068122997879982 0.8346630036830902
vt 0.502032995223999 0.6135149896144867
vt 0.46853700280189514 0.6133899986743927
vt 0.5381489992141724 0.6148619949817657
vt 0.46709299087524414 0.6128660142421722
vt 0.04961499944329262 0.9647909998893738
vt 0.0935479998588562 0.9803689997643232
vt 0.0842910036444664 0.9919830001890659
vt 0.0933770015835762 0.9487739987671375
vt 0.09637799859046936 0.9645560011267662
vt 0.08399400115013123 0.9372610002756119
vt 0.06853699684143066 0.9331120029091835
vt 0.0046339998953044415 0.9530679993331432
vt 0.013073000125586987 0.9419220015406609
vt 0.006422999780625105 0.9767860006541014
vt 0.0028490000404417515 0.9650619998574257
vt 0.015614000149071217 0.9881819998845458
vt 0.06887900084257126 0.9962999999988824
vt 0.03971699997782707 0.9331120029091835
vt 0.0519229993224144 0.9374350011348724
vt 0.05224199965596199 0.9964610000606626
vt 0.040059998631477356 0.9965749999973923
vt 0.027341000735759735 0.9939410001970828
vt 0.023569999262690544 0.9359249994158745
vt 0.9047489762306213 0.9572740010917187
vt 0.9104729890823364 0.9416290000081062
vt 0.9450600147247314 0.9633029997348785
vt 0.9200599789619446 0.994177000131458
vt 0.9099529981613159 0.9841469991952181
vt 0.9186739921569824 0.931149996817112
vt 0.9457859992980957 0.924126997590065
vt 0.9604589939117432 0.9993360000080429
vt 0.9318580031394958 0.9993360000080429
vt 0.9787319898605347 0.9903140002861619
vt 0.9796580076217651 0.9367590025067329
vt 0.9866390228271484 0.9551689997315407
vt 0.9661200046539307 0.9256160035729408
vt 0.9032920002937317 0.9713690001517534
vt 0.9870319962501526 0.9745969995856285

usemtl Material

f 1/1/1 2/2/2 3/3/3
f 3/3/3 4/4/4 1/1/1
f 5/5/5 6/6/6 7/7/7
f 7/7/7 8/8/8 5/5/5
f 9/9/9 10/10/10 11/11/11
f 11/11/11 12/12/12 9/9/9
f 10/10/10 9/9/9 13/13/13
f 13/13/13 14/14/14 10/10/10
f 14/14/14 13/13/13 15/15/15
f 15/15/15 16/16/16 14/14/14
f 17/17/17 18/18/18 19/19/19
f 19/19/19 20/20/20 17/17/17
f 21/21/21 22/22/22 23/23/23
f 23/23/23 24/24/24 21/21/21
f 25/25/25 26/26/26 27/27/27
f 27/27/27 28/28/28 25/25/25
f 26/26/26 25/25/25 29/29/29
f 29/29/29 30/30/30 26/26/26
f 29/29/29 31/31/31 32/32/32
f 32/32/32 30/30/30 29/29/29
f 24/24/24 33/33/33 34/34/34
f 34/34/34 21/21/21 24/24/24
f 35/35/35 36/36/36 19/19/19
f 19/19/19 18/18/18 35/35/35
f 4/4/4 37/37/37 38/38/38
f 38/38/38 1/1/1 4/4/4
f 39/39/39 6/6/6 5/5/5
f 5/5/5 40/40/40 39/39/39
f 12/12/12 41/41/41 42/42/42
f 42/42/42 9/9/9 12/12/12
f 9/9/9 42/42/42 43/43/43
f 43/43/43 13/13/13 9/9/9
f 15/15/15 13/13/13 43/43/43
f 43/43/43 44/44/44 15/15/15
f 17/17/17 45/45/45 46/46/46
f 46/46/46 18/18/18 17/17/17
f 47/47/47 35/35/35 18/18/18
f 18/18/18 46/46/46 47/47/47
f 48/48/48 21/21/21 34/34/34
f 34/34/34 49/49/49 48/48/48
f 21/21/21 48/48/48 50/50/50
f 50/50/50 22/22/22 21/21/21
f 51/51/51 52/52/52 25/25/25
f 25/25/25 28/28/28 51/51/51
f 29/29/29 25/25/25 52/52/52
f 52/52/52 53/53/53 29/29/29
f 54/54/54 31/31/31 29/29/29
f 29/29/29 53/53/53 54/54/54
f 55/55/55 56/56/56 42/42/42
f 42/42/42 41/41/41 55/55/55
f 39/39/39 40/40/40 57/57/57
f 57/57/57 58/58/58 39/39/39
f 59/59/59 38/38/38 37/37/37
f 37/37/37 60/60/60 59/59/59
f 54/54/54 53/53/53 61/61/61
f 61/61/61 62/62/62 54/54/54
f 52/52/52 63/63/63 61/61/61
f 61/61/61 53/53/53 52/52/52
f 51/51/51 64/64/64 65/65/65
f 65/65/65 52/52/52 51/51/51
f 66/66/66 67/67/67 50/50/50
f 50/50/50 48/48/48 66/66/66
f 66/66/66 48/48/48 49/49/49
f 49/49/49 68/68/68 66/66/66
f 69/69/69 47/47/47 46/46/46
f 46/46/46 70/70/70 69/69/69
f 71/71/71 70/70/70 46/46/46
f 46/46/46 45/45/45 71/71/71
f 72/72/72 73/73/73 44/44/44
f 44/44/44 43/43/43 72/72/72
f 42/42/42 56/56/56 72/72/72
f 72/72/72 43/43/43 42/42/42
f 74/74/74 75/75/75 76/76/76
f 76/76/76 77/77/77 74/74/74
f 78/78/78 79/79/79 80/80/80
f 80/80/80 81/81/81 78/78/78
f 82/82/82 83/83/83 80/80/80
f 80/80/80 79/79/79 82/82/82
f 84/84/84 85/85/85 86/86/86
f 86/86/86 87/87/87 84/84/84
f 84/84/84 87/87/87 88/88/88
f 88/88/88 89/89/89 84/84/84
f 90/90/90 89/89/89 88/88/88
f 88/88/88 91/91/91 90/90/90
f 92/92/92 93/93/93 90/90/90
f 90/90/90 91/91/91 92/92/92
f 94/94/94 95/95/95 93/93/93
f 93/93/93 92/92/92 94/94/94
f 96/96/96 97/97/97 95/95/95
f 95/95/95 94/94/94 96/96/96
f 98/98/98 97/97/97 96/96/96
f 96/96/96 99/99/99 98/98/98
f 100/100/100 101/101/101 98/98/98
f 98/98/98 99/99/99 100/100/100
f 77/77/77 76/76/76 101/101/101
f 101/101/101 100/100/100 77/77/77
f 102/102/102 103/103/103 104/104/104
f 104/104/104 105/105/105 102/102/102
f 106/106/106 103/103/103 102/102/102
f 102/102/102 107/107/107 106/106/106
f 106/106/106 107/107/107 108/108/108
f 108/108/108 109/109/109 106/106/106
f 110/110/110 111/111/111 109/109/109
f 109/109/109 108/108/108 110/110/110
f 112/112/112 111/111/111 110/110/110
f 110/110/110 113/113/113 112/112/112
f 114/114/114 115/115/115 112/112/112
f 112/112/112 113/113/113 114/114/114
f 116/116/116 117/117/117 115/115/115
f 115/115/115 114/114/114 116/116/116
f 116/116/116 118/118/118 119/119/119
f 119/119/119 117/117/117 116/116/116
f 118/118/118 120/120/120 121/121/121
f 121/121/121 119/119/119 118/118/118
f 121/121/121 120/120/120 122/122/122
f 122/122/122 123/123/123 121/121/121
f 122/122/122 124/124/124 125/125/125
f 125/125/125 123/123/123 122/122/122
f 124/124/124 105/105/105 104/104/104
f 104/104/104 125/125/125 124/124/124
f 77/77/77 104/104/104 103/103/103
f 103/103/103 74/74/74 77/77/77
f 103/103/103 106/106/106 79/79/79
f 79/79/79 74/74/74 103/103/103
f 82/82/82 79/79/79 106/106/106
f 106/106/106 109/109/109 82/82/82
f 109/109/109 111/111/111 87/87/87
f 87/87/87 82/82/82 109/109/109
f 87/87/87 111/111/111 112/112/112
f 112/112/112 88/88/88 87/87/87
f 112/112/112 115/115/115 91/91/91
f 91/91/91 88/88/88 112/112/112
f 115/115/115 117/117/117 92/92/92
f 92/92/92 91/91/91 115/115/115
f 92/92/92 117/117/117 119/119/119
f 119/119/119 94/94/94 92/92/92
f 121/121/121 96/96/96 94/94/94
f 94/94/94 119/119/119 121/121/121
f 96/96/96 121/121/121 123/123/123
f 123/123/123 99/99/99 96/96/96
f 99/99/99 123/123/123 125/125/125
f 125/125/125 100/100/100 99/99/99
f 77/77/77 100/100/100 125/125/125
f 125/125/125 104/104/104 77/77/77
f 102/102/102 105/105/105 126/126/126
f 126/126/126 127/127/127 102/102/102
f 127/127/127 128/128/128 107/107/107
f 107/107/107 102/102/102 127/127/127
f 129/129/129 108/108/108 107/107/107
f 107/107/107 128/128/128 129/129/129
f 129/129/129 130/130/130 110/110/110
f 110/110/110 108/108/108 129/129/129
f 110/110/110 130/130/130 131/131/131
f 131/131/131 113/113/113 110/110/110
f 114/114/114 113/113/113 131/131/131
f 131/131/131 132/132/132 114/114/114
f 114/114/114 132/132/132 133/133/133
f 133/133/133 116/116/116 114/114/114
f 134/134/134 118/118/118 116/116/116
f 116/116/116 133/133/133 134/134/134
f 135/135/135 120/120/120 118/118/118
f 118/118/118 134/134/134 135/135/135
f 122/122/122 120/120/120 135/135/135
f 135/135/135 136/136/136 122/122/122
f 137/137/137 124/124/124 122/122/122
f 122/122/122 136/136/136 137/137/137
f 137/137/137 126/126/126 105/105/105
f 105/105/105 124/124/124 137/137/137
f 127/127/127 126/126/126 138/138/138
f 128/128/128 127/127/127 138/138/138
f 129/129/129 128/128/128 138/138/138
f 130/130/130 129/129/129 138/138/138
f 131/131/131 130/130/130 138/138/138
f 132/132/132 131/131/131 138/138/138
f 133/133/133 132/132/132 138/138/138
f 134/134/134 133/133/133 138/138/138
f 135/135/135 134/134/134 138/138/138
f 136/136/136 135/135/135 138/138/138
f 137/137/137 136/136/136 138/138/138
f 126/126/126 137/137/137 138/138/138
f 139/139/139 140/140/140 141/141/141
f 141/141/141 142/142/142 139/139/139
f 142/142/142 143/143/143 139/139/139
f 139/139/139 143/143/143 144/144/144
f 139/139/139 145/145/145 146/146/146
f 146/146/146 147/147/147 139/139/139
f 147/147/147 148/148/148 139/139/139
f 139/139/139 149/149/149 150/150/150
f 139/139/139 150/150/150 140/140/140
f 139/139/139 144/144/144 151/151/151
f 139/139/139 148/148/148 149/149/149
f 139/139/139 151/151/151 145/145/145
f 152/152/152 153/153/153 154/154/154
f 154/154/154 155/155/155 152/152/152
f 156/156/156 157/157/157 158/158/158
f 158/158/158 159/159/159 156/156/156
f 160/160/160 161/161/161 162/162/162
f 162/162/162 163/163/163 160/160/160
f 162/162/162 164/164/164 165/165/165
f 165/165/165 163/163/163 162/162/162
f 166/166/166 165/165/165 164/164/164
f 164/164/164 167/167/167 166/166/166
f 168/168/168 169/169/169 170/170/170
f 170/170/170 171/171/171 168/168/168
f 172/172/172 173/173/173 168/168/168
f 168/168/168 171/171/171 172/172/172
f 174/174/174 175/175/175 176/176/176
f 176/176/176 177/177/177 174/174/174
f 177/177/177 176/176/176 178/178/178
f 178/178/178 179/179/179 177/177/177
f 180/180/180 181/181/181 182/182/182
f 182/182/182 183/183/183 180/180/180
f 183/183/183 184/184/184 185/185/185
f 185/185/185 180/180/180 183/183/183
f 186/186/186 187/187/187 185/185/185
f 185/185/185 184/184/184 186/186/186
f 188/188/188 189/189/189 180/180/180
f 180/180/180 185/185/185 188/188/188
f 190/190/190 181/181/181 180/180/180
f 180/180/180 191/191/191 190/190/190
f 177/177/177 179/179/179 192/192/192
f 192/192/192 193/193/193 177/177/177
f 193/193/193 194/194/194 174/174/174
f 174/174/174 177/177/177 193/193/193
f 168/168/168 173/173/173 195/195/195
f 195/195/195 196/196/196 168/168/168
f 197/197/197 169/169/169 168/168/168
f 168/168/168 196/196/196 197/197/197
f 198/198/198 165/165/165 166/166/166
f 166/166/166 199/199/199 198/198/198
f 165/165/165 198/198/198 200/200/200
f 200/200/200 163/163/163 165/165/165
f 160/160/160 163/163/163 200/200/200
f 200/200/200 201/201/201 160/160/160
f 158/158/158 202/202/202 203/203/203
f 203/203/203 159/159/159 158/158/158
f 152/152/152 155/155/155 204/204/204
f 204/204/204 205/205/205 152/152/152
f 185/185/185 187/187/187 206/206/206
f 206/206/206 188/188/188 185/185/185
f 207/207/207 208/208/208 209/209/209
f 209/209/209 210/210/210 207/207/207
f 207/207/207 210/210/210 211/211/211
f 211/211/211 212/212/212 207/207/207
f 211/211/211 213/213/213 214/214/214
f 214/214/214 212/212/212 211/211/211
f 215/215/215 216/216/216 217/217/217
f 217/217/217 218/218/218 215/215/215
f 219/219/219 217/217/217 216/216/216
f 216/216/216 220/220/220 219/219/219
f 219/219/219 220/220/220 221/221/221
f 221/221/221 222/222/222 219/219/219
f 223/223/223 224/224/224 222/222/222
f 222/222/222 221/221/221 223/223/223
f 225/225/225 226/226/226 227/227/227
f 227/227/227 228/228/228 225/225/225
f 229/229/229 230/230/230 231/231/231
f 231/231/231 232/232/232 229/229/229
f 233/233/233 234/234/234 209/209/209
f 209/209/209 208/208/208 233/233/233
f 235/235/235 236/236/236 230/230/230
f 230/230/230 229/229/229 235/235/235
f 227/227/227 237/237/237 238/238/238
f 238/238/238 228/228/228 227/227/227
f 239/239/239 233/233/233 208/208/208
f 208/208/208 240/240/240 239/239/239
f 241/241/241 229/229/229 232/232/232
f 232/232/232 242/242/242 241/241/241
f 241/241/241 243/243/243 235/235/235
f 235/235/235 229/229/229 241/241/241
f 228/228/228 238/238/238 244/244/244
f 244/244/244 245/245/245 228/228/228
f 228/228/228 245/245/245 246/246/246
f 246/246/246 225/225/225 228/228/228
f 224/224/224 247/247/247 248/248/248
f 248/248/248 222/222/222 224/224/224
f 248/248/248 249/249/249 219/219/219
f 219/219/219 222/222/222 248/248/248
f 219/219/219 250/250/250 251/251/251
f 251/251/251 217/217/217 219/219/219
f 217/217/217 252/252/252 253/253/253
f 253/253/253 218/218/218 217/217/217
f 214/214/214 254/254/254 255/255/255
f 255/255/255 212/212/212 214/214/214
f 212/212/212 255/255/255 256/256/256
f 256/256/256 207/207/207 212/212/212
f 240/240/240 208/208/208 207/207/207
f 207/207/207 257/257/257 240/240/240
f 258/258/258 259/259/259 260/260/260
f 260/260/260 261/261/261 258/258/258
f 260/260/260 262/262/262 261/261/261
f 260/260/260 263/263/263 262/262/262
f 264/264/264 265/265/265 260/260/260
f 266/266/266 264/264/264 260/260/260
f 259/259/259 267/267/267 260/260/260
f 260/260/260 268/268/268 269/269/269
f 260/260/260 265/265/265 263/263/263
f 260/260/260 269/269/269 270/270/270
f 260/260/260 267/267/267 268/268/268
f 260/260/260 270/270/270 266/266/266
f 271/271/271 272/272/272 273/273/273
f 273/273/273 274/274/274 271/271/271
f 273/273/273 275/275/275 276/276/276
f 273/273/273 277/277/277 275/275/275
f 278/278/278 277/277/277 273/273/273
f 279/279/279 278/278/278 273/273/273
f 273/273/273 280/280/280 279/279/279
f 273/273/273 281/281/281 280/280/280
f 273/273/273 282/282/282 281/281/281
f 272/272/272 283/283/283 273/273/273
f 273/273/273 283/283/283 282/282/282
f 273/273/273 276/276/276 274/274/274
f 284/284/284 285/285/285 286/286/286
f 286/286/286 287/287/287 284/284/284
f 288/288/288 289/289/289 290/290/290
f 290/290/290 291/291/291 288/288/288
f 292/292/292 293/293/293 294/294/294
f 294/294/294 288/288/288 291/291/291
f 295/295/295 296/296/296 297/297/297
f 297/297/297 298/298/298 295/295/295
f 295/295/295 299/299/299 300/300/300
f 300/300/300 296/296/296 295/295/295
f 301/301/301 302/302/302 303/303/303
f 303/303/303 304/304/304 301/301/301
f 303/303/303 302/302/302 305/305/305
f 305/305/305 306/306/306 303/303/303
f 307/307/307 308/308/308 309/309/309
f 309/309/309 310/310/310 307/307/307
f 311/311/311 312/312/312 313/313/313
f 313/313/313 314/314/314 311/311/311
f 315/315/315 316/316/316 317/317/317
f 317/317/317 318/318/318 315/315/315
f 315/315/315 318/318/318 319/319/319
f 319/319/319 320/320/320 315/315/315
f 286/286/286 285/285/285 321/321/321
f 321/321/321 322/322/322 286/286/286
f 323/323/323 324/324/324 325/325/325
f 325/325/325 326/326/326 323/323/323
f 327/327/327 324/324/324 323/323/323
f 323/323/323 328/328/328 327/327/327
f 329/329/329 330/330/330 331/331/331
f 331/331/331 332/332/332 329/329/329
f 329/329/329 333/333/333 334/334/334
f 334/334/334 330/330/330 329/329/329
f 335/335/335 336/336/336 337/337/337
f 337/337/337 338/338/338 335/335/335
f 339/339/339 340/340/340 341/341/341
f 341/341/341 342/342/342 339/339/339
f 343/343/343 344/344/344 345/345/345
f 345/345/345 346/346/346 343/343/343
f 347/347/347 348/348/348 349/349/349
f 349/349/349 350/350/350 347/347/347
f 350/350/350 349/349/349 351/351/351
f 351/351/351 352/352/352 350/350/350
f 353/353/353 354/354/354 355/355/355
f 355/355/355 356/356/356 353/353/353
f 357/357/357 358/358/358 359/359/359
f 359/359/359 360/360/360 357/357/357
f 359/359/359 361/361/361 362/362/362
f 362/362/362 360/360/360 359/359/359
f 363/363/363 346/346/346 345/345/345
f 345/345/345 364/364/364 363/363/363
f 352/352/352 351/351/351 353/353/353
f 353/353/353 356/356/356 352/352/352
f 365/365/365 366/366/366 367/367/367
f 367/367/367 368/368/368 365/365/365
f 369/369/369 370/370/370 371/371/371
f 348/348/348 347/347/347 372/372/372
f 372/372/372 343/343/343 348/348/348
f 358/358/358 373/373/373 355/355/355
f 355/355/355 354/354/354 358/358/358
f 339/339/339 374/374/374 375/375/375
f 375/375/375 376/376/376 339/339/339
f 368/368/368 376/376/376 375/375/375
f 375/375/375 365/365/365 368/368/368
f 366/366/366 370/370/370 369/369/369
f 369/369/369 367/367/367 366/366/366
f 339/339/339 342/342/342 374/374/374
f 377/377/377 335/335/335 369/369/369
f 369/369/369 371/371/371 377/377/377
f 378/378/378 379/379/379 380/380/380
f 380/380/380 340/340/340 378/378/378
f 331/331/331 330/330/330 381/381/381
f 381/381/381 382/382/382 331/331/331
f 327/327/327 383/383/383 384/384/384
f 384/384/384 324/324/324 327/327/327
f 325/325/325 324/324/324 384/384/384
f 384/384/384 385/385/385 325/325/325
f 386/386/386 387/387/387 388/388/388
f 388/388/388 389/389/389 386/386/386
f 388/388/388 390/390/390 391/391/391
f 391/391/391 389/389/389 388/388/388
f 392/392/392 393/393/393 394/394/394
f 394/394/394 395/395/395 392/392/392
f 392/392/392 396/396/396 397/397/397
f 397/397/397 393/393/393 392/392/392
f 398/398/398 381/381/381 330/330/330
f 330/330/330 334/334/334 398/398/398
f 359/359/359 399/399/399 361/361/361
f 363/363/363 400/400/400 346/346/346
f 401/401/401 402/402/402 379/379/379
f 379/379/379 378/378/378 401/401/401
f 338/338/338 337/337/337 403/403/403
f 403/403/403 401/401/401 338/338/338
f 404/404/404 394/394/394 393/393/393
f 393/393/393 405/405/405 404/404/404
f 369/369/369 335/335/335 338/338/338
f 338/338/338 367/367/367 369/369/369
f 338/338/338 401/401/401 368/368/368
f 368/368/368 367/367/367 338/338/338
f 401/401/401 378/378/378 376/376/376
f 376/376/376 368/368/368 401/401/401
f 376/376/376 378/378/378 340/340/340
f 340/340/340 339/339/339 376/376/376
f 336/336/336 335/335/335 377/377/377
f 377/377/377 406/406/406 336/336/336
f 407/407/407 341/341/341 340/340/340
f 340/340/340 380/380/380 407/407/407
f 389/389/389 408/408/408 409/409/409
f 409/409/409 386/386/386 389/389/389
f 408/408/408 389/389/389 391/391/391
f 391/391/391 410/410/410 408/408/408
f 397/397/397 411/411/411 405/405/405
f 405/405/405 393/393/393 397/397/397
f 412/412/412 413/413/413 414/414/414
f 412/412/412 415/415/415 416/416/416
f 412/412/412 417/417/417 415/415/415
f 418/418/418 417/417/417 412/412/412
f 419/419/419 420/420/420 412/412/412
f 421/421/421 422/422/422 412/412/412
f 423/423/423 421/421/421 412/412/412
f 414/414/414 424/424/424 412/412/412
f 425/425/425 426/426/426 412/412/412
f 427/427/427 428/428/428 412/412/412
f 428/428/428 429/429/429 412/412/412
f 430/430/430 425/425/425 412/412/412
f 426/426/426 418/418/418 412/412/412
f 424/424/424 427/427/427 412/412/412
f 422/422/422 419/419/419 412/412/412
f 429/429/429 423/423/423 412/412/412
f 420/420/420 430/430/430 412/412/412
f 412/412/412 416/416/416 413/413/413
f 431/431/431 432/432/432 433/433/433
f 434/434/434 435/435/435 433/433/433
f 436/436/436 437/437/437 433/433/433
f 438/438/438 439/439/439 433/433/433
f 440/440/440 438/438/438 433/433/433
f 433/433/433 441/441/441 442/442/442
f 437/437/437 443/443/443 433/433/433
f 435/435/435 444/444/444 433/433/433
f 444/444/444 431/431/431 433/433/433
f 432/432/432 436/436/436 433/433/433
f 439/439/439 434/434/434 433/433/433
f 433/433/433 442/442/442 445/445/445
f 433/433/433 443/443/443 441/441/441
f 433/433/433 445/445/445 440/440/440