mtllib 122328082.mtl
o Mesh

v -0.20400500297546387 -0.8986630439758301 -0.5019930005073547
v -0.30669498443603516 -0.8804830312728882 -0.4542370140552521
v -0.2565149962902069 -0.7665829658508301 -0.3829230070114136
v -0.12638500332832336 -0.7877429723739624 -0.44915899634361267
v -0.3116849958896637 -1.034512996673584 -0.4945099949836731
v -0.23251500725746155 -1.0259629487991333 -0.5225489735603333
v -0.25337499380111694 -1.0573129653930664 -0.4660930037498474
v -0.3116849958896637 -1.034512996673584 -0.4945099949836731
v -0.23251500725746155 -1.0259629487991333 -0.5225489735603333
v -0.0998150110244751 -0.8480429649353027 -0.4402010142803192
v -0.1673550009727478 -0.928642988204956 -0.4577069878578186
v -0.2030949890613556 -1.0326529741287231 -0.4847089946269989
v -0.2030949890613556 -1.0326529741287231 -0.4847089946269989
v -0.1673550009727478 -0.928642988204956 -0.4577069878578186
v -0.0998150110244751 -0.8480429649353027 -0.4402010142803192
v -0.09442499279975891 -0.9091629981994629 -0.3568260073661804
v -0.17325499653816223 -0.9511029720306396 -0.39364200830459595
v -0.20647498965263367 -1.0428730249404907 -0.4352549910545349
v -0.2030949890613556 -1.0326529741287231 -0.4847089946269989
v -0.20647498965263367 -1.0428730249404907 -0.4352549910545349
v -0.25337499380111694 -1.0573129653930664 -0.4660930037498474
v -0.2030949890613556 -1.0326529741287231 -0.4847089946269989
v -0.16571500897407532 -0.9192630052566528 -0.27014100551605225
v -0.21823498606681824 -0.9528729915618896 -0.347324013710022
v -0.24067500233650208 -1.050642967224121 -0.40315601229667664
v -0.24067500233650208 -1.050642967224121 -0.40315601229667664
v -0.24363499879837036 -0.883033037185669 -0.261817991733551
v -0.2759550213813782 -0.9329229593276978 -0.3458870053291321
v -0.2856450080871582 -1.0514030456542969 -0.4072149991989136
v -0.2856450080871582 -1.0514030456542969 -0.4072149991989136
v -0.2662249803543091 -0.800523042678833 -0.30351799726486206
v -0.312595009803772 -0.9029330015182495 -0.39017099142074585
v -0.3150649964809418 -1.0447330474853516 -0.4450550079345703
v -0.3150649964809418 -1.0447330474853516 -0.4450550079345703
v -0.312595009803772 -0.9029330015182495 -0.39017099142074585
v -0.2662249803543091 -0.800523042678833 -0.30351799726486206
v -0.3150649964809418 -1.0447330474853516 -0.4450550079345703
v -0.3150649964809418 -1.0447330474853516 -0.4450550079345703
v 0.3070650100708008 -1.1970330476760864 -0.05440099909901619
v 0.20945501327514648 -1.1845530271530151 -0.028605999425053596
v 0.1949949860572815 -1.3313729763031006 -0.05756999924778938
v 0.2533249855041504 -1.3563729524612427 -0.09114599972963333
v 0.13476401567459106 -1.4795429706573486 -0.12637099623680115
v 0.10331398248672485 -1.4462130069732666 -0.09963999688625336
v 0.10331398248672485 -1.4462130069732666 -0.09963999688625336
v 0.08398401737213135 -1.4446929693222046 -0.17649200558662415
v 0.13476401567459106 -1.4795429706573486 -0.12637099623680115
v 0.20945501327514648 -1.1845530271530151 -0.028605999425053596
v 0.1696850061416626 -1.1630330085754395 -0.06028199940919876
v 0.13677501678466797 -1.298712968826294 -0.08407299965620041
v 0.1949949860572815 -1.3313729763031006 -0.05756999924778938
v 0.10331398248672485 -1.4462130069732666 -0.09963999688625336
v 0.07190501689910889 -1.407243013381958 -0.1173039972782135
v 0.07190501689910889 -1.407243013381958 -0.1173039972782135
v 0.08398401737213135 -1.4446929693222046 -0.17649200558662415
v 0.10331398248672485 -1.4462130069732666 -0.09963999688625336
v 0.1413949728012085 -1.146193027496338 -0.13816800713539124
v 0.11276501417160034 -1.2775230407714844 -0.15512900054454803
v 0.058924973011016846 -1.3854830265045166 -0.16901899874210358
v 0.058924973011016846 -1.3854830265045166 -0.16901899874210358
v 0.17000502347946167 -1.1429129838943481 -0.21763500571250916
v 0.1370149850845337 -1.2802330255508423 -0.22911499440670013
v 0.07198500633239746 -1.3936530351638794 -0.22448599338531494
v 0.07198500633239746 -1.3936530351638794 -0.22448599338531494
v 0.22445499897003174 -1.1536530256271362 -0.24575099349021912
v 0.19533497095108032 -1.3052430152893066 -0.26269200444221497
v 0.1034349799156189 -1.4269729852676392 -0.2512170076370239
v 0.1034349799156189 -1.4269729852676392 -0.2512170076370239
v 0.19533497095108032 -1.3052430152893066 -0.26269200444221497
v 0.22445499897003174 -1.1536530256271362 -0.24575099349021912
v 0.30738502740859985 -1.1756529808044434 -0.221452996134758
v 0.2535650134086609 -1.337893009185791 -0.23619000613689423
v 0.13484400510787964 -1.4659329652786255 -0.2335509955883026
v 0.1034349799156189 -1.4269729852676392 -0.2512170076370239
v 0.13484400510787964 -1.4659329652786255 -0.2335509955883026
v 0.1034349799156189 -1.4269729852676392 -0.2512170076370239
v 0.33568501472473145 -1.1938430070877075 -0.1331229954957962
v 0.2775750160217285 -1.3596030473709106 -0.161081001162529
v 0.1478239893913269 -1.4877029657363892 -0.1818380057811737
v 0.1478239893913269 -1.4877029657363892 -0.1818380057811737
v 0.19552499055862427 -1.2089329957962036 0.14718200266361237
v 0.13927501440048218 -1.1978529691696167 0.14243200421333313
v 0.11711502075195312 -1.31449294090271 0.10533200204372406
v 0.16588497161865234 -1.3351329565048218 0.10750400274991989
v 0.09546500444412231 -1.4297829866409302 0.046438999474048615
v 0.06687498092651367 -1.4032529592514038 0.04962800070643425
v 0.06687498092651367 -1.4032529592514038 0.04962800070643425
v 0.07783502340316772 -1.406553030014038 -0.008820000104606152
v 0.09546500444412231 -1.4297829866409302 0.046438999474048615
v 0.13927501440048218 -1.1978529691696167 0.14243200421333313
v 0.10401499271392822 -1.1807630062103271 0.08240900188684464
v 0.08711498975753784 -1.2915929555892944 0.06291600316762924
v 0.11711502075195312 -1.31449294090271 0.10533200204372406
v 0.06687498092651367 -1.4032529592514038 0.04962800070643425
v 0.052124977111816406 -1.3750829696655273 0.023060999810695648
v 0.052124977111816406 -1.3750829696655273 0.023060999810695648
v 0.07783502340316772 -1.406553030014038 -0.008820000104606152
v 0.06687498092651367 -1.4032529592514038 0.04962800070643425
v 0.10953497886657715 -1.1726930141448975 0.018703000620007515
v 0.09345501661300659 -1.279873013496399 0.005098000168800354
v 0.05986499786376953 -1.3617630004882812 -0.01769700087606907
v 0.05986499786376953 -1.3617630004882812 -0.01769700087606907
v 0.15321499109268188 -1.1748230457305908 -0.02298399992287159
v 0.13242501020431519 -1.2861729860305786 -0.03424999862909317
v 0.08554500341415405 -1.3711129426956177 -0.048771001398563385
v 0.08554500341415405 -1.3711129426956177 -0.048771001398563385
v 0.18119502067565918 -1.3068230152130127 -0.032079000025987625
v 0.1141350269317627 -1.397642970085144 -0.05195999890565872
v 0.1141350269317627 -1.397642970085144 -0.05195999890565872
v 0.18119502067565918 -1.3068230152130127 -0.032079000025987625
v 0.2453250288963318 -1.1994329690933228 0.03017199970781803
v 0.2111949920654297 -1.3297029733657837 0.010339999571442604
v 0.12888497114181519 -1.4258129596710205 -0.025395000353455544
v 0.1141350269317627 -1.397642970085144 -0.05195999890565872
v 0.12888497114181519 -1.4258129596710205 -0.025395000353455544
v 0.1141350269317627 -1.397642970085144 -0.05195999890565872
v 0.23980498313903809 -1.2075029611587524 0.09387700259685516
v 0.2048550248146057 -1.3414429426193237 0.06815599650144577
v 0.1211550235748291 -1.4391230344772339 0.015363999642431736
v 0.1211550235748291 -1.4391230344772339 0.015363999642431736
v 0.279325008392334 -1.1621630191802979 -0.29798901081085205
v 0.17871499061584473 -1.2898730039596558 -0.2824360132217407
v 0.22430497407913208 -1.3108329772949219 -0.32350099086761475
v 0.11292499303817749 -1.4166229963302612 -0.34076300263404846
v 0.09003502130508423 -1.3882429599761963 -0.30990299582481384
v 0.09003502130508423 -1.3882429599761963 -0.30990299582481384
v 0.05980497598648071 -1.3847730159759521 -0.37333598732948303
v 0.11292499303817749 -1.4166229963302612 -0.34076300263404846
v 0.16080498695373535 -1.1320630311965942 -0.2685070037841797
v 0.1250249743461609 -1.2591029405593872 -0.2933500111103058
v 0.17871499061584473 -1.2898730039596558 -0.2824360132217407
v 0.09003502130508423 -1.3882429599761963 -0.30990299582481384
v 0.06111502647399902 -1.3526129722595215 -0.3174459934234619
v 0.06111502647399902 -1.3526129722595215 -0.3174459934234619
v 0.05980497598648071 -1.3847730159759521 -0.37333598732948303
v 0.09003502130508423 -1.3882429599761963 -0.30990299582481384
v 0.12565499544143677 -1.1129529476165771 -0.3304719924926758
v 0.09466499090194702 -1.2365529537200928 -0.3498519957065582
v 0.04310500621795654 -1.3306430578231812 -0.35897499322891235
v 0.04310500621795654 -1.3306430578231812 -0.35897499322891235
v 0.13959497213363647 -1.106323003768921 -0.4046519994735718
v 0.10542500019073486 -1.235422968864441 -0.4188399910926819
v 0.04656499624252319 -1.3351629972457886 -0.410165011882782
v 0.04656499624252319 -1.3351629972457886 -0.410165011882782
v 0.194474995136261 -1.1160329580307007 -0.44759199023246765
v 0.15100502967834473 -1.2563929557800293 -0.4599060118198395
v 0.06944501399993896 -1.3635629415512085 -0.4410249888896942
v 0.06944501399993896 -1.3635629415512085 -0.4410249888896942
v 0.15100502967834473 -1.2563929557800293 -0.4599060118198395
v 0.194474995136261 -1.1160329580307007 -0.44759199023246765
v 0.25813502073287964 -1.1364129781723022 -0.4341390132904053
v 0.20471501350402832 -1.2871530055999756 -0.4489920139312744
v 0.09836399555206299 -1.3991730213165283 -0.43348100781440735
v 0.06944501399993896 -1.3635629415512085 -0.4410249888896942
v 0.09836399555206299 -1.3991730213165283 -0.43348100781440735
v 0.06944501399993896 -1.3635629415512085 -0.4410249888896942
v 0.2932850122451782 -1.1555229425430298 -0.372171014547348
v 0.2350749969482422 -1.3097230195999146 -0.39249199628829956
v 0.11637401580810547 -1.4211629629135132 -0.3919520080089569
v 0.11637401580810547 -1.4211629629135132 -0.3919520080089569
v 0.02160501480102539 -0.6862930059432983 0.18641400337219238
v -0.08842501044273376 -0.8099230527877808 0.18393799662590027
v 0.05951499938964844 -0.9032729864120483 0.2188510000705719
v -0.18973499536514282 -0.7120130062103271 0.05810600146651268
v -0.1837950050830841 -0.6927230358123779 -0.05008300021290779
v -0.21674498915672302 -0.7734730243682861 -0.04782300069928169
v -0.2353450059890747 -0.840453028678894 0.06978499889373779
v -0.18350499868392944 -0.6670130491256714 -0.1543540060520172
v -0.172775000333786 -0.6478830575942993 -0.254254013299942
v -0.004124999046325684 -0.6022629737854004 -0.2924860119819641
v 0.16122502088546753 -0.5880429744720459 -0.2031240016222
v 0.12639498710632324 -0.7957930564880371 -0.41944101452827454
v 0.31357502937316895 -1.023563027381897 -0.23996399343013763
v 0.32430499792099 -0.9884029626846313 -0.35498300194740295
v 0.19143497943878174 -0.6311030387878418 0.07743699848651886
v 0.02160501480102539 -0.6862930059432983 0.18641400337219238
v 0.05951499938964844 -0.9032729864120483 0.2188510000705719
v 0.19887501001358032 -1.056892991065979 0.18808799982070923
v -0.15732499957084656 -0.9247629642486572 0.13670000433921814
v -0.21485498547554016 -0.9255130290985107 0.04637100175023079
v -0.1754550039768219 -0.9620529413223267 0.05517800152301788
v 0.07005500793457031 -1.0873630046844482 -0.029124999418854713
v 0.0634949803352356 -0.8671829700469971 -0.4176979959011078
v 0.2881249785423279 -1.0607930421829224 0.10865700244903564
v 0.06702500581741333 -1.0066330432891846 -0.38485899567604065
v 0.05069500207901001 -1.0436630249023438 -0.301923006772995
v 0.06956499814987183 -1.089622974395752 0.15544800460338593
v 0.04230499267578125 -1.1036230325698853 0.1047310009598732
v 0.0634949803352356 -0.8671829700469971 -0.4176979959011078
v 0.17039501667022705 -0.9801830053329468 -0.427154004573822
v 0.004854977130889893 -0.9251229763031006 -0.36275699734687805
v -0.17278501391410828 -0.9498330354690552 -0.012373999692499638
v -0.234375 -0.884922981262207 -0.015217999927699566
v -0.029615014791488647 -1.0172330141067505 0.09529200196266174
v -0.00783500075340271 -0.9962830543518066 0.16537199914455414
v -0.01237499713897705 -0.9917429685592651 -0.10578200221061707
v 0.01671499013900757 -1.0135329961776733 -0.01843399927020073
v -0.16439500451087952 -0.9274029731750488 -0.0748710036277771
v -0.015675008296966553 -0.9640430212020874 -0.27768900990486145
v 0.30745500326156616 -1.0505529642105103 0.0035490000154823065
v 0.36279499530792236 -1.0386430025100708 -0.10834299772977829
v 0.2238749861717224 -0.6008930206298828 -0.060805000364780426
v 0.055944979190826416 -1.0903630256652832 -0.12802399694919586
v 0.07307499647140503 -1.0653530359268188 -0.20918600261211395
v 0.255744993686676 -0.9829529523849487 -0.4197770059108734
v -0.18350499868392944 -0.6670130491256714 -0.1543540060520172
v -0.23132500052452087 -0.8646830320358276 -0.10433200001716614
v -0.16912499070167542 -0.9355230331420898 -0.1366640031337738
v 0.01853501796722412 -0.9950330257415771 -0.18777500092983246
v -0.00783500075340271 -0.9962830543518066 0.16537199914455414
v 0.06956499814987183 -1.089622974395752 0.15544800460338593
v -0.20784500241279602 -0.8534829616546631 -0.06214800104498863
v 0.17039501667022705 -0.9801830053329468 -0.427154004573822
v -0.5420359969139099 0.2046389877796173 -0.2724269926548004
v -0.5420389771461487 0.4705590009689331 1.4999999621068127e-05
v -0.5420359969139099 0.46984899044036865 -0.3840180039405823
v -0.5408430099487305 0.3063790202140808 -0.35465100407600403
v -0.5421440005302429 0.11313900351524353 -0.003028000006452203
v -0.5421440005302429 0.20393899083137512 0.3516770005226135
v -0.5420359969139099 0.47616899013519287 0.46096301078796387
v -0.5420899987220764 0.34391897916793823 0.42201700806617737
v -0.5419149994850159 0.7287189960479736 0.35585498809814453
v -0.5419809818267822 0.6332089900970459 0.4416159987449646
v -0.5418819785118103 0.8448289632797241 -0.003028000006452203
v -0.5418980121612549 0.8275290131568909 0.2313770055770874
v -0.5419149994850159 0.7242090106010437 -0.2590219974517822
v -0.5418940186500549 0.8138389587402344 -0.12219200283288956
v -0.5419809818267822 0.5958489775657654 -0.34377700090408325
v -0.4824199974536896 0.26040899753570557 -0.2669920027256012
v -0.5134400129318237 0.1605989933013916 -0.1874600052833557
v -0.5420359969139099 0.2046389877796173 -0.2724269926548004
v -0.5408430099487305 0.3063790202140808 -0.35465100407600403
v -0.5421440005302429 0.11313900351524353 -0.003028000006452203
v -0.5315999984741211 0.1011190116405487 0.04428499937057495
v -0.5421440005302429 0.20393899083137512 0.3516770005226135
v -0.5421440005302429 0.11313900351524353 -0.003028000006452203
v -0.5315999984741211 0.1011190116405487 0.04428499937057495
v -0.5063149929046631 0.16995900869369507 0.3279860019683838
v -0.47356000542640686 0.28574901819229126 0.41436800360679626
v -0.5420899987220764 0.34391897916793823 0.42201700806617737
v -0.5420359969139099 0.47616899013519287 0.46096301078796387
v -0.4466100037097931 0.39452898502349854 0.44895198941230774
v -0.41543999314308167 0.5909389853477478 0.42487600445747375
v -0.5419809818267822 0.6332089900970459 0.4416159987449646
v -0.37448999285697937 0.8094489574432373 0.04428400099277496
v -0.5418819785118103 0.8448289632797241 -0.003028000006452203
v -0.5418980121612549 0.8275290131568909 0.2313770055770874
v -0.3776499927043915 0.7934390306472778 0.21458800137043
v -0.39375999569892883 0.6920390129089355 -0.20626400411128998
v -0.5419149994850159 0.7242090106010437 -0.2590219974517822
v -0.5418940186500549 0.8138389587402344 -0.12219200283288956
v -0.38137999176979065 0.7763389945030212 -0.09081300348043442
v -0.4154700040817261 0.5509790182113647 -0.2680799961090088
v -0.5419809818267822 0.5958489775657654 -0.34377700090408325
v -0.47251999378204346 0.10721901059150696 -0.13745899498462677
v -0.4929549992084503 0.05003398656845093 0.07794199883937836
v -0.4929549992084503 0.05003398656845093 0.07794199883937836
v -0.4711900055408478 0.1087689995765686 0.31922000646591187
v -0.4221799969673157 0.21518900990486145 0.3974109888076782
v -0.37647998332977295 0.316008985042572 0.4242149889469147
v -0.31698599457740784 0.4521690011024475 0.38913199305534363
v -0.2344909906387329 0.6405259966850281 0.19781599938869476
v -0.218190997838974 0.662077009677887 0.07790400087833405
v -0.2331010103225708 0.6384570002555847 -0.031070999801158905
v -0.2649120092391968 0.54864102602005 -0.147038996219635
v -0.31836599111557007 0.4399459958076477 -0.2220810055732727
v -0.4648500084877014 0.09702900052070618 -0.1279439926147461
v -0.420740008354187 0.18007901310920715 -0.1922129988670349
v -0.3749200105667114 0.04375898838043213 -0.15496200323104858
v -0.4165259897708893 -2.5987625122070312e-05 -0.09284599870443344
v -0.4861049950122833 0.03963300585746765 0.08434700220823288
v -0.4582259953022003 -0.04161602258682251 0.11464300006628036
v -0.46452999114990234 0.0971289873123169 0.31755200028419495
v -0.4861049950122833 0.03963300585746765 0.08434700220823288
v -0.4582259953022003 -0.04161602258682251 0.11464300006628036
v -0.4144760072231293 0.016313999891281128 0.33028799295425415
v -0.36326998472213745 0.07729899883270264 0.4004420042037964
v -0.41280001401901245 0.201649010181427 0.3941839933395386
v -0.3639100193977356 0.3008490204811096 0.4195080101490021
v -0.3032599985599518 0.14525899291038513 0.41961199045181274
v -0.21105000376701355 0.23847898840904236 0.3920629918575287
v -0.2993760108947754 0.4254400134086609 0.3823300004005432
v -0.0927169919013977 0.3441370129585266 0.11461800336837769
v -0.17952001094818115 0.6002640128135681 0.08430200070142746
v -0.19832000136375427 0.5867419838905334 0.19462400674819946
v -0.1098569929599762 0.33470702171325684 0.22484299540519714
v -0.23622199892997742 0.5196830034255981 -0.13576899468898773
v -0.1959500014781952 0.5784540176391602 -0.01970200054347515
v -0.09632700681686401 0.3402470052242279 0.009328000247478485
v -0.14671701192855835 0.3020470142364502 -0.09418699890375137
v -0.21169999241828918 0.21661901473999023 -0.1776289939880371
v -0.30008602142333984 0.4110569953918457 -0.21332700550556183
v -0.4300900101661682 0.19306901097297668 -0.20416800677776337
v 0.0011199712753295898 0.0680989921092987 0.027962999418377876
v -0.06150001287460327 0.039709001779556274 -0.07534600049257278
v 0.008509993553161621 0.07594901323318481 0.13391800224781036
v -0.01344001293182373 0.07107898592948914 0.2628529965877533
v -0.22199100255966187 -0.023138999938964844 0.4567579925060272
v -0.13632500171661377 0.012383997440338135 0.4410009980201721
v -0.37766000628471375 -0.08688098192214966 0.362199991941452
v -0.2979249954223633 -0.05624598264694214 0.436383992433548
v -0.43725600838661194 -0.1095229983329773 0.13391900062561035
v -0.38148000836372375 -0.08582097291946411 -0.0753450021147728
v -0.43725600838661194 -0.1095229983329773 0.13391900062561035
v -0.32128000259399414 -0.06238102912902832 -0.1352970004081726
v -0.13745999336242676 0.007169008255004883 -0.16318200528621674
v -0.5420359969139099 0.46984899044036865 -0.3840180039405823
v -0.4466100037097931 0.39452898502349854 -0.29616600275039673
v -0.3770799934864044 0.31015899777412415 -0.23718099296092987
v -0.30347001552581787 0.12194898724555969 -0.18619099259376526
v -0.3646000027656555 0.2938989996910095 -0.225955992937088
v -0.22604000568389893 -0.02608102560043335 -0.1720300018787384
v -0.0927169919013977 0.3441370129585266 0.11461800336837769
v 0.008509993553161621 0.07594901323318481 0.13391800224781036
v -0.17952001094818115 0.6002640128135681 0.08430200070142746
v -0.37448999285697937 0.8094489574432373 0.04428400099277496
v -0.218190997838974 0.662077009677887 0.07790400087833405
v -0.5418819785118103 0.8448289632797241 -0.003028000006452203
v -0.1561869978904724 0.30643701553344727 0.3248310089111328
v -0.06510999798774719 0.05063900351524353 0.3812200129032135
v -0.2402920126914978 0.5323430299758911 0.3070240020751953
v -0.39555999636650085 0.7173089981079102 0.3480969965457916
v -0.26861199736595154 0.563310980796814 0.31358999013900757
v -0.5419149994850159 0.7287189960479736 0.35585498809814453
v -0.33834999799728394 -0.23145097494125366 -0.0860230028629303
v -0.27372997999191284 -0.2020609974861145 -0.14483599364757538
v -0.2541999816894531 -0.3204309940338135 -0.1933239996433258
v -0.32239001989364624 -0.3625209927558899 -0.13727599382400513
v -0.39111000299453735 -0.418491005897522 0.09542500227689743
v -0.40463000535964966 -0.2619609832763672 0.14471299946308136
v -0.3119400143623352 -0.41113102436065674 0.3192349970340729
v -0.33108001947402954 -0.24270099401474 0.3503569960594177
v -0.40463000535964966 -0.2619609832763672 0.14471299946308136
v -0.39111000299453735 -0.418491005897522 0.09542500227689743
v -0.220660001039505 -0.39169102907180786 0.40357598662376404
v -0.24746999144554138 -0.2258710265159607 0.42604300379753113
v -0.16819000244140625 -0.20994102954864502 0.4504680037498474
v -0.13264000415802002 -0.3617609739303589 0.4302299916744232
v -0.04012000560760498 -0.3048509955406189 0.40209099650382996
v -0.08393999934196472 -0.15832102298736572 0.41865798830986023
v 0.0931900143623352 -0.22438102960586548 0.21922600269317627
v 0.1157500147819519 -0.20178097486495972 0.10032100230455399
v 0.06933999061584473 -0.08592098951339722 0.1266389936208725
v 0.04594999551773071 -0.10019099712371826 0.24231299757957458
v 0.10083997249603271 -0.19211101531982422 -0.013650000095367432
v 0.0368499755859375 -0.20600098371505737 -0.12714800238609314
v 0.0010300278663635254 -0.10573101043701172 -0.0860230028629303
v 0.06133997440338135 -0.08661097288131714 0.019555000588297844
v -0.08265000581741333 -0.13390100002288818 -0.16435100138187408
v -0.05202999711036682 -0.23531097173690796 -0.2103790044784546
v -0.2461709976196289 -0.7775750160217285 -0.31114399433135986
v -0.2680230140686035 -0.7684860229492188 -0.32482901215553284
v -0.16788101196289062 -0.734423041343689 -0.395099014043808
v -0.15421101450920105 -0.7465319633483887 -0.37779000401496887
v 0.07066601514816284 -0.6967600584030151 -0.3875359892845154
v 0.07598602771759033 -0.6791340112686157 -0.40480199456214905
v 0.18747001886367798 -0.6733839511871338 -0.30783700942993164
v 0.17213600873947144 -0.6929450035095215 -0.2960210144519806
v 0.2602350115776062 -0.6834729909896851 -0.16809700429439545
v 0.24077701568603516 -0.702070951461792 -0.1683340072631836
v 0.28180599212646484 -0.7022949457168579 -0.032294999808073044
v 0.2509869933128357 -0.7361249923706055 0.1064079999923706
v 0.23175400495529175 -0.750851035118103 0.08491100370883942
v 0.25875699520111084 -0.7200609445571899 -0.043014999479055405
v 0.08357799053192139 -0.8059719800949097 0.32239198684692383
v -0.04321900010108948 -0.8289070129394531 0.33803001046180725
v -0.03703200817108154 -0.8389320373535156 0.29996898770332336
v 0.07672500610351562 -0.8175569772720337 0.26993298530578613
v -0.13890400528907776 -0.8605589866638184 0.26833000779151917
v -0.15121901035308838 -0.8575390577316284 0.32034701108932495
v -0.2680230140686035 -0.8656829595565796 0.21921999752521515
v -0.2461709976196289 -0.8668709993362427 0.18860900402069092
v -0.3623499870300293 -0.8367810249328613 -0.05632200092077255
v -0.3327929973602295 -0.839745044708252 -0.06439799815416336
v -0.30847999453544617 -0.12598097324371338 -0.1625639945268631
v -0.36045199632644653 -0.1501370072364807 -0.09155400097370148
v -0.4206849932670593 -0.17443400621414185 0.14308099448680878
v -0.4206849932670593 -0.17443400621414185 0.14308099448680878
v -0.35503000020980835 -0.15142101049423218 0.3565259873867035
v -0.27278000116348267 -0.11470097303390503 0.4370349943637848
v -0.19365999102592468 -0.08388102054595947 0.4660409986972809
v -0.113180011510849 -0.04693102836608887 0.43682000041007996
v 0.03381997346878052 0.005428999662399292 0.1426839977502823
v 0.010110020637512207 0.0016289949417114258 0.2604820132255554
v 0.0274999737739563 0.0028789937496185303 0.015344999730587006
v -0.031500011682510376 -0.020740985870361328 -0.11352399736642838
v -0.11171001195907593 -0.051070988178253174 -0.19484199583530426
v -0.2913370132446289 -0.6255290508270264 -0.26541298627853394
v -0.30431699752807617 -0.4636710286140442 -0.18862299621105194
v -0.22583898901939392 -0.4269769787788391 -0.2407270073890686
v -0.19960999488830566 -0.5896140336990356 -0.32817700505256653
v -0.38245099782943726 -0.6922169923782349 -0.010619999840855598
v -0.38802099227905273 -0.5261050462722778 0.04209600016474724
v -0.29298901557922363 -0.7179460525512695 0.2520650029182434
v -0.3057900071144104 -0.5470019578933716 0.2814269959926605
v -0.38802099227905273 -0.5261050462722778 0.04209600016474724
v -0.38245099782943726 -0.6922169923782349 -0.010619999840855598
v -0.1813560128211975 -0.7120260000228882 0.35050299763679504
v -0.20332199335098267 -0.5436910390853882 0.3735550045967102
v -0.10636499524116516 -0.5198279619216919 0.40212899446487427
v -0.06721600890159607 -0.681663990020752 0.38395699858665466
v 0.043406009674072266 -0.6554570198059082 0.35391199588775635
v 0.0026180148124694824 -0.48322200775146484 0.37841400504112244
v 0.1803709864616394 -0.3913249969482422 0.07150200009346008
v 0.15336298942565918 -0.4153450131416321 0.1917780041694641
v 0.2055240273475647 -0.585453987121582 0.14846299588680267
v 0.23511099815368652 -0.555711030960083 0.016326000913977623
v 0.09559601545333862 -0.3636000156402588 -0.1678290069103241
v 0.16317802667617798 -0.3690919876098633 -0.047843001782894135
v 0.21570098400115967 -0.5348620414733887 -0.11379600316286087
v 0.14465802907943726 -0.5266779661178589 -0.2463580071926117
v -0.001892000436782837 -0.3735619783401489 -0.25484800338745117
v 0.03825497627258301 -0.5344539880752563 -0.3401220142841339
v -0.20802998542785645 -0.08653098344802856 -0.2147819995880127
v -0.18257001042366028 -0.16561102867126465 -0.18208299577236176
v -0.15459999442100525 -0.2746710181236267 -0.22906599938869476
v -0.11133599281311035 -0.3963940143585205 -0.2742300033569336
v -0.07641100883483887 -0.5569560527801514 -0.362419992685318
v -0.04028600454330444 -0.7007989883422852 -0.42900699377059937
v -0.03703200817108154 -0.7167600393295288 -0.40708300471305847
v 0.1803709864616394 -0.3913249969482422 0.07150200009346008
v 0.23511099815368652 -0.555711030960083 0.016326000913977623
v 0.1157500147819519 -0.20178097486495972 0.10032100230455399
v 0.06933999061584473 -0.08592098951339722 0.1266389936208725
v 0.03381997346878052 0.005428999662399292 0.1426839977502823
v 0.18747001886367798 -0.7705899477005005 0.23621000349521637
v 0.17213600873947144 -0.7822309732437134 0.2037310004234314
v 0.09403401613235474 -0.4469599723815918 0.30222299695014954
v 0.14300602674484253 -0.6191040277481079 0.27112001180648804
v 0.03811001777648926 -0.25930100679397583 0.3280569911003113
v -0.011680006980895996 -0.12401098012924194 0.34785300493240356
v -0.04392001032829285 -0.017710983753204346 0.36818599700927734
v -0.03701299428939819 -0.7799030542373657 -0.053557999432086945
v -0.15121901035308838 -0.8575390577316284 0.32034701108932495
v -0.2680230140686035 -0.8656829595565796 0.21921999752521515
v -0.3623499870300293 -0.8367810249328613 -0.05632200092077255
v -0.3623499870300293 -0.8367810249328613 -0.05632200092077255
v -0.2680230140686035 -0.7684860229492188 -0.32482901215553284
v -0.16788101196289062 -0.734423041343689 -0.395099014043808
v -0.04028600454330444 -0.7007989883422852 -0.42900699377059937
v 0.07598602771759033 -0.6791340112686157 -0.40480199456214905
v 0.18747001886367798 -0.6733839511871338 -0.30783700942993164
v 0.2602350115776062 -0.6834729909896851 -0.16809700429439545
v 0.28180599212646484 -0.7022949457168579 -0.032294999808073044
v 0.2509869933128357 -0.7361249923706055 0.1064079999923706
v 0.28180599212646484 -0.7022949457168579 -0.032294999808073044
v 0.18747001886367798 -0.7705899477005005 0.23621000349521637
v 0.08357799053192139 -0.8059719800949097 0.32239198684692383
v -0.04321900010108948 -0.8289070129394531 0.33803001046180725

vn 0.14712899923324585 0.2122029960155487 -0.9660859704017639
vn -0.765470027923584 0.3890399932861328 -0.5125460028648376
vn -0.6521739959716797 0.6589949727058411 -0.37469199299812317
vn -0.0019409999949857593 0.4675790071487427 -0.8839489817619324
vn -0.8033040165901184 0.16751499474048615 -0.5715259909629822
vn 0.18222500383853912 0.10548199713230133 -0.9775829911231995
vn 0.05515199899673462 -0.976622998714447 -0.20776300132274628
vn -0.18954099714756012 -0.9182130098342896 -0.34779098629951477
vn 0.11345399916172028 -0.885807991027832 -0.44996899366378784
vn 0.3594140112400055 -0.3238160014152527 -0.8751940131187439
vn 0.7860590219497681 -0.3864459991455078 -0.482463002204895
vn 0.9073460102081299 -0.21855700016021729 -0.3591040074825287
vn 0.3353100121021271 -0.8982200026512146 -0.2841989994049072
vn 0.7860590219497681 -0.3864459991455078 -0.482463002204895
vn 0.3594140112400055 -0.3238160014152527 -0.8751940131187439
vn 0.11349499970674515 -0.9285780191421509 -0.3533569872379303
vn 0.6649900078773499 -0.7311429977416992 0.15237300097942352
vn 0.8523160219192505 -0.4344480037689209 0.29122599959373474
vn 0.9073460102081299 -0.21855700016021729 -0.3591040074825287
vn 0.32363900542259216 -0.9448710083961487 -0.04976699873805046
vn 0.05515199899673462 -0.976622998714447 -0.20776300132274628
vn 0.3353100121021271 -0.8982200026512146 -0.2841989994049072
vn -0.216170996427536 -0.9749580025672913 0.05222800001502037
vn 0.10104700177907944 -0.7682719826698303 0.6320980191230774
vn 0.2885729968547821 -0.5284669995307922 0.7984039783477783
vn 0.12413600087165833 -0.9890540242195129 0.07976999878883362
vn -0.7990409731864929 -0.5327399969100952 0.2787860035896301
vn -0.6266329884529114 -0.3905380070209503 0.6743980050086975
vn -0.5331479907035828 -0.35434600710868835 0.7682399749755859
vn -0.09999199956655502 -0.9939709901809692 0.04496899992227554
vn -0.9540590047836304 0.24397900700569153 0.1739100068807602
vn -0.9631850123405457 0.05762600153684616 0.26259100437164307
vn -0.9681540131568909 -0.07248999923467636 0.23962999880313873
vn -0.2357340008020401 -0.9650899767875671 -0.11415000259876251
vn -0.9631850123405457 0.05762600153684616 0.26259100437164307
vn -0.9540590047836304 0.24397900700569153 0.1739100068807602
vn -0.9681540131568909 -0.07248999923467636 0.23962999880313873
vn -0.2357340008020401 -0.9650899767875671 -0.11415000259876251
vn 0.6663249731063843 -0.31880199909210205 0.6740750074386597
vn 0.508234977722168 -0.8312780261039734 0.22510899603366852
vn -0.01711999997496605 -0.27206799387931824 0.9621260166168213
vn 0.615094006061554 -0.5159569978713989 0.5961940288543701
vn 0.4991460144519806 -0.6548439860343933 0.5674790143966675
vn -0.09330099821090698 -0.2886439859867096 0.9528800249099731
vn -0.73014897108078 -0.6616569757461548 0.1705619990825653
vn -0.7755320072174072 -0.6262019872665405 -0.08013000339269638
vn -0.6123390197753906 -0.787214994430542 0.07302699983119965
vn 0.508234977722168 -0.8312780261039734 0.22510899603366852
vn -0.7890819907188416 -0.4840500056743622 0.3782140016555786
vn -0.7079179883003235 0.10340599715709686 0.6986839771270752
vn -0.01711999997496605 -0.27206799387931824 0.9621260166168213
vn -0.09330099821090698 -0.2886439859867096 0.9528800249099731
vn -0.6952660083770752 0.19818300008773804 0.6908900141716003
vn -0.8588910102844238 -0.4935060143470764 0.13696199655532837
vn -0.7755320072174072 -0.6262019872665405 -0.08013000339269638
vn -0.73014897108078 -0.6616569757461548 0.1705619990825653
vn -0.9040070176124573 -0.42260101437568665 -0.06465400010347366
vn -0.9429849982261658 0.33038100600242615 0.04035000130534172
vn -0.896344006061554 0.43996700644493103 0.054735999554395676
vn -0.922012984752655 -0.3839940130710602 -0.049407001584768295
vn -0.6833720207214355 -0.2680889964103699 -0.679066002368927
vn -0.6869869828224182 0.2947919964790344 -0.6641889810562134
vn -0.6924809813499451 0.3658609986305237 -0.621783971786499
vn -0.8584359884262085 -0.4437370002269745 -0.25726500153541565
vn 0.3740749955177307 -0.8357009887695312 -0.40208500623703003
vn -0.0030449999030679464 0.01133699994534254 -0.9999309778213501
vn -0.08885999768972397 -0.040049999952316284 -0.9952390193939209
vn -0.7295079827308655 -0.5981450080871582 -0.33172398805618286
vn -0.0030449999030679464 0.01133699994534254 -0.9999309778213501
vn 0.3740749955177307 -0.8357009887695312 -0.40208500623703003
vn 0.7099630236625671 -0.1297679990530014 -0.6921799778938293
vn 0.6339750289916992 -0.33727699518203735 -0.6959310173988342
vn 0.5017690062522888 -0.4911290109157562 -0.7120540142059326
vn -0.08885999768972397 -0.040049999952316284 -0.9952390193939209
vn -0.6118450164794922 -0.7440459728240967 -0.2684049904346466
vn -0.7295079827308655 -0.5981450080871582 -0.33172398805618286
vn 0.9676780104637146 -0.25206199288368225 -0.008043999783694744
vn 0.848626971244812 -0.52674800157547 -0.048673998564481735
vn 0.7028329968452454 -0.7056729793548584 -0.08973299711942673
vn -0.5616859793663025 -0.820713996887207 -0.10458000004291534
vn 0.34740200638771057 -0.32297399640083313 0.8803409934043884
vn -0.46946001052856445 -0.2786270081996918 0.8378390073776245
vn -0.5079060196876526 -0.19319799542427063 0.8394680023193359
vn 0.25123798847198486 -0.4726890027523041 0.8446570038795471
vn 0.14142000675201416 -0.6134719848632812 0.776951014995575
vn -0.5657299757003784 -0.1955460011959076 0.8010690212249756
vn -0.7502350211143494 -0.6529710292816162 -0.103814996778965
vn -0.6755210161209106 -0.6462479829788208 -0.35501399636268616
vn -0.6074110269546509 -0.7827839851379395 -0.13528099656105042
vn -0.46946001052856445 -0.2786270081996918 0.8378390073776245
vn -0.9358779788017273 -0.299003005027771 0.18635700643062592
vn -0.9389780163764954 0.15330199897289276 0.3079259991645813
vn -0.5079060196876526 -0.19319799542427063 0.8394680023193359
vn -0.5657299757003784 -0.1955460011959076 0.8010690212249756
vn -0.9263380169868469 0.24654099345207214 0.2848080098628998
vn -0.8484629988670349 -0.48964300751686096 -0.20090100169181824
vn -0.6755210161209106 -0.6462479829788208 -0.35501399636268616
vn -0.7502350211143494 -0.6529710292816162 -0.103814996778965
vn -0.869871973991394 -0.2558180093765259 -0.4217570126056671
vn -0.8618869781494141 0.3182640075683594 -0.39478999376296997
vn -0.8169069886207581 0.4391610026359558 -0.37389901280403137
vn -0.8163139820098877 -0.40845298767089844 -0.4084089994430542
vn -0.34474998712539673 -0.10193800181150436 -0.9331430196762085
vn -0.29263201355934143 0.21403799951076508 -0.9319630265235901
vn -0.29052498936653137 0.30898699164390564 -0.9056059718132019
vn -0.6658269762992859 -0.48970499634742737 -0.56290602684021
vn 0.49086499214172363 -0.1035119965672493 -0.8650649785995483
vn 0.4137350022792816 -0.12175100296735764 -0.9022189974784851
vn -0.5132629871368408 -0.6457870006561279 -0.5652610063552856
vn 0.49086499214172363 -0.1035119965672493 -0.8650649785995483
vn 0.9220359921455383 -0.3068639934062958 -0.23597599565982819
vn 0.8736090064048767 -0.37209299206733704 -0.31361401081085205
vn 0.7629389762878418 -0.5230290293693542 -0.3799540102481842
vn 0.4137350022792816 -0.12175100296735764 -0.9022189974784851
vn -0.43845298886299133 -0.7840449810028076 -0.4393549859523773
vn -0.5132629871368408 -0.6457870006561279 -0.5652610063552856
vn 0.8779820203781128 -0.32141798734664917 0.3547370135784149
vn 0.7801960110664368 -0.5166289806365967 0.3526880145072937
vn 0.6545590162277222 -0.7081030011177063 0.26484501361846924
vn -0.48138299584388733 -0.8359529972076416 -0.26354101300239563
vn 0.8186799883842468 -0.3836959898471832 0.4272480010986328
vn 0.17095699906349182 -0.3286849856376648 0.9288380146026611
vn 0.71287602186203 -0.5395609736442566 0.4479750096797943
vn 0.5773109793663025 -0.6906729936599731 0.43552500009536743
vn 0.08474999666213989 -0.3514910042285919 0.9323480129241943
vn -0.6877890229225159 -0.6648520231246948 0.2914060056209564
vn -0.7967140078544617 -0.6042029857635498 0.013581999577581882
vn -0.5730149745941162 -0.8064500093460083 0.14591899514198303
vn -0.6391710042953491 -0.5357130169868469 0.5517899990081787
vn -0.5618569850921631 0.06703999638557434 0.8245139718055725
vn 0.17095699906349182 -0.3286849856376648 0.9288380146026611
vn 0.08474999666213989 -0.3514910042285919 0.9323480129241943
vn -0.5537980198860168 0.16188299655914307 0.8167629837989807
vn -0.8390539884567261 -0.46282100677490234 0.2859799861907959
vn -0.7967140078544617 -0.6042029857635498 0.013581999577581882
vn -0.6877890229225159 -0.6648520231246948 0.2914060056209564
vn -0.941556990146637 -0.33638298511505127 0.01781800016760826
vn -0.9178850054740906 0.3363479971885681 0.2106119990348816
vn -0.8633419871330261 0.45118799805641174 0.2259870022535324
vn -0.9444059729576111 -0.3157140016555786 0.09177500009536743
vn -0.7832520008087158 -0.005665999837219715 -0.6216790080070496
vn -0.7841839790344238 0.3430880010128021 -0.5170549750328064
vn -0.7812110185623169 0.41468900442123413 -0.46662798523902893
vn -0.9159970283508301 -0.3661629855632782 -0.16393400728702545
vn -0.1556600034236908 0.11155000329017639 -0.9814919829368591
vn -0.19213999807834625 0.07646100223064423 -0.9783840179443359
vn -0.2795799970626831 0.03055099956691265 -0.9596359729766846
vn -0.7884460091590881 -0.5459499955177307 -0.28335699439048767
vn -0.19213999807834625 0.07646100223064423 -0.9783840179443359
vn -0.1556600034236908 0.11155000329017639 -0.9814919829368591
vn 0.5856990218162537 -0.05355599895119667 -0.8087570071220398
vn 0.4873560070991516 -0.2961750030517578 -0.8214399814605713
vn 0.35457199811935425 -0.45659899711608887 -0.8159629702568054
vn -0.2795799970626831 0.03055099956691265 -0.9596359729766846
vn -0.6471310257911682 -0.7230240106582642 -0.24177800118923187
vn -0.7884460091590881 -0.5459499955177307 -0.28335699439048767
vn 0.9440289735794067 -0.25552600622177124 -0.20860500633716583
vn 0.8175070285797119 -0.5260149836540222 -0.23450200259685516
vn 0.6618310213088989 -0.7101190090179443 -0.2402310073375702
vn -0.5562019944190979 -0.8279460072517395 -0.07172399759292603
vn 0.08409900218248367 0.27008599042892456 0.9591559767723083
vn -0.426580011844635 0.12530599534511566 0.8957279920578003
vn 0.03776500001549721 -0.021632999181747437 0.9990519881248474
vn -0.820796012878418 0.3801870048046112 0.4263229966163635
vn -0.9236879944801331 0.3785650134086609 0.059073999524116516
vn -0.969111979007721 0.2406730055809021 0.05383000150322914
vn -0.9129189848899841 0.06042100116610527 0.40364301204681396
vn -0.8926799893379211 0.44287198781967163 0.08359000086784363
vn -0.6415619850158691 0.700236976146698 -0.31315499544143677
vn 0.05911000072956085 0.6916940212249756 -0.7197679877281189
vn 0.7144500017166138 0.4963900148868561 -0.4931110143661499
vn 0.33678698539733887 0.37162598967552185 -0.865140974521637
vn 0.9883340001106262 0.04375400021672249 -0.14587999880313873
vn 0.9318950176239014 0.1913910061120987 -0.3081260025501251
vn 0.799435019493103 0.23156699538230896 0.5543299913406372
vn 0.08409900218248367 0.27008599042892456 0.9591559767723083
vn 0.03776500001549721 -0.021632999181747437 0.9990519881248474
vn 0.3385399878025055 -0.08988700062036514 0.9366490244865417
vn -0.563418984413147 -0.4039730131626129 0.7206699848175049
vn -0.8199009895324707 -0.5498239994049072 0.1595509946346283
vn -0.5365219712257385 -0.8340190052986145 0.12866799533367157
vn -0.7480970025062561 -0.6530190110206604 -0.11796700209379196
vn -0.08743999898433685 -0.21676500141620636 -0.9722999930381775
vn 0.8845490217208862 -0.0541980005800724 0.46328699588775635
vn -0.6243900060653687 -0.3779450058937073 -0.683588981628418
vn -0.7521970272064209 -0.6318680047988892 -0.18692900240421295
vn -0.4470439851284027 -0.46790799498558044 0.7623739838600159
vn -0.7567430138587952 -0.6328700184822083 0.16375799477100372
vn -0.08743999898433685 -0.21676500141620636 -0.9722999930381775
vn -0.12883999943733215 0.005789000075310469 -0.9916489720344543
vn -0.398703008890152 -0.6454880237579346 -0.6514449715614319
vn -0.526881992816925 -0.8132719993591309 -0.2469490021467209
vn -0.9205459952354431 -0.2885499894618988 -0.26331400871276855
vn -0.5824400186538696 -0.8052369952201843 0.11115899682044983
vn -0.4569939970970154 -0.48435598611831665 0.7460269927978516
vn -0.5544800162315369 -0.8269569873809814 -0.09324599802494049
vn -0.6347749829292297 -0.7652729749679565 -0.10685399919748306
vn -0.6090970039367676 -0.7850059866905212 -0.11298999935388565
vn -0.5213180184364319 -0.8148919939994812 -0.25333601236343384
vn 0.9372010231018066 -0.058208998292684555 0.3438979983329773
vn 0.9959650039672852 0.06896200031042099 0.0574209988117218
vn 0.9554640054702759 0.29268598556518555 -0.037728000432252884
vn -0.7005749940872192 -0.7042520046234131 -0.11499900370836258
vn -0.7016919851303101 -0.6972290277481079 -0.1466280072927475
vn 0.46725699305534363 0.24450300633907318 -0.8496400117874146
vn -0.8926799893379211 0.44287198781967163 0.08359000086784363
vn -0.8881760239601135 -0.35590800642967224 0.29064300656318665
vn -0.5102009773254395 -0.859063982963562 0.04129000008106232
vn -0.651324987411499 -0.7444480061531067 -0.14687900245189667
vn -0.4569939970970154 -0.48435598611831665 0.7460269927978516
vn -0.4470439851284027 -0.46790799498558044 0.7623739838600159
vn -0.958873987197876 -0.28332000970840454 -0.01701500080525875
vn -0.12883999943733215 0.005789000075310469 -0.9916489720344543
vn -0.4337620139122009 -0.6713719964027405 -0.6009250283241272
vn -1.0 0.00034500000765547156 -5.2999999752501026e-05
vn -0.38524699211120605 0.04466300085186958 -0.9217320084571838
vn -0.3564299941062927 -0.3778029978275299 -0.8545309901237488
vn -0.7052329778671265 -0.6918290257453918 -0.15497900545597076
vn -0.7122690081596375 -0.47860100865364075 0.5134339928627014
vn -0.6234170198440552 -0.004253000020980835 0.7818779945373535
vn -0.7456920146942139 -0.2177239954471588 0.6297129988670349
vn -0.6542990207672119 0.5512580275535583 0.5176939964294434
vn -0.5734580159187317 0.3271239995956421 0.7510899901390076
vn -0.5810610055923462 0.8084499835968018 -0.0936800017952919
vn -0.5732399821281433 0.7695599794387817 0.28137800097465515
vn -0.4914399981498718 0.5733879804611206 -0.6555250287055969
vn -0.5550100207328796 0.7514960169792175 -0.35667499899864197
vn -0.4348450005054474 0.3922100067138672 -0.8106060028076172
vn 0.49749499559402466 -0.4718570113182068 -0.7279080152511597
vn -0.1827639937400818 -0.8238940238952637 -0.5364660024642944
vn -0.4337620139122009 -0.6713719964027405 -0.6009250283241272
vn -0.3564299941062927 -0.3778029978275299 -0.8545309901237488
vn -0.7052329778671265 -0.6918290257453918 -0.15497900545597076
vn -0.8120880126953125 -0.5834100246429443 -0.012083999812602997
vn -0.7122690081596375 -0.47860100865364075 0.5134339928627014
vn -0.7052329778671265 -0.6918290257453918 -0.15497900545597076
vn -0.8120880126953125 -0.5834100246429443 -0.012083999812602997
vn -0.5516070127487183 -0.6253799796104431 0.5519319772720337
vn -0.15817099809646606 -0.36825400590896606 0.9161720275878906
vn -0.7456920146942139 -0.2177239954471588 0.6297129988670349
vn -0.6234170198440552 -0.004253000020980835 0.7818779945373535
vn 0.13881899416446686 -0.10629700124263763 0.9845960140228271
vn 0.39173200726509094 0.2628749907016754 0.8817269802093506
vn -0.5734580159187317 0.3271239995956421 0.7510899901390076
vn 0.47387099266052246 0.8779270052909851 -0.06848499923944473
vn -0.5810610055923462 0.8084499835968018 -0.0936800017952919
vn -0.5732399821281433 0.7695599794387817 0.28137800097465515
vn 0.4699839949607849 0.8320900201797485 0.29451799392700195
vn 0.5207229852676392 0.5127109885215759 -0.6826239824295044
vn -0.4914399981498718 0.5733879804611206 -0.6555250287055969
vn -0.5550100207328796 0.7514960169792175 -0.35667499899864197
vn 0.5016800165176392 0.7728919982910156 -0.3885290026664734
vn 0.5664640069007874 0.21740500628948212 -0.7948920130729675
vn -0.4348450005054474 0.3922100067138672 -0.8106060028076172
vn -0.31337401270866394 -0.7632669806480408 -0.5649949908256531
vn -0.8099240064620972 -0.5859659910202026 -0.02583800069987774
vn -0.8099240064620972 -0.5859659910202026 -0.02583800069987774
vn -0.6916880011558533 -0.47584301233291626 0.5432689785957336
vn -0.20732900500297546 -0.3557490110397339 0.9112939834594727
vn 0.21507999300956726 -0.11055699735879898 0.9703180193901062
vn 0.511709988117218 0.14347100257873535 0.8470950126647949
vn 0.7526419758796692 0.5536550283432007 0.35636600852012634
vn 0.7842649817466736 0.619979977607727 -0.02353000082075596
vn 0.7686499953269958 0.5263220071792603 -0.36354199051856995
vn 0.6697250008583069 0.352275013923645 -0.6537370085716248
vn 0.5485129952430725 0.08816000074148178 -0.8314809799194336
vn -0.5669670104980469 -0.6225069761276245 -0.5394750237464905
vn 0.009215000085532665 -0.45768600702285767 -0.8890659809112549
vn -0.37065500020980835 -0.3630479872226715 -0.8548750281333923
vn -0.7406370043754578 -0.4647420048713684 -0.48525500297546387
vn -0.8956990242004395 -0.44373801350593567 -0.028622999787330627
vn -0.9420440196990967 -0.33487799763679504 -0.020253000780940056
vn -0.763293981552124 -0.4086959958076477 0.5003489851951599
vn -0.8956990242004395 -0.44373801350593567 -0.028622999787330627
vn -0.9420440196990967 -0.33487799763679504 -0.020253000780940056
vn -0.8282719850540161 -0.27229100465774536 0.4897170066833496
vn -0.5142189860343933 -0.0909930020570755 0.8528180122375488
vn -0.32604900002479553 -0.2569040060043335 0.909775972366333
vn 0.13931800425052643 -0.04235199838876724 0.9893419742584229
vn -0.09611000120639801 0.07330899685621262 0.992667019367218
vn 0.3659679889678955 0.2574709951877594 0.8943020105361938
vn 0.48122501373291016 0.17561200261116028 0.8588269948959351
vn 0.937853991985321 0.3408089876174927 0.06541900336742401
vn 0.8954539895057678 0.4451430141925812 -0.003266999963670969
vn 0.8335790038108826 0.43347498774528503 0.34241199493408203
vn 0.8757969737052917 0.3557620048522949 0.32620999217033386
vn 0.7186539769172668 0.31446999311447144 -0.6201980113983154
vn 0.8492329716682434 0.3948639929294586 -0.3505519926548004
vn 0.9103130102157593 0.3045929968357086 -0.2802729904651642
vn 0.7626699805259705 0.2115360051393509 -0.6112170219421387
vn 0.475492000579834 0.057691000401973724 -0.8778259754180908
vn 0.5185049772262573 0.05443599820137024 -0.8533400297164917
vn 0.2581560015678406 -0.5432850122451782 -0.7988719940185547
vn 0.887607991695404 0.3468089997768402 -0.3031100034713745
vn 0.6976749897003174 0.4067629873752594 -0.589739978313446
vn 0.9364389777183533 0.3487339913845062 0.03830200061202049
vn 0.8869779706001282 0.3312309980392456 0.3218019902706146
vn -0.08310999721288681 0.11491800099611282 0.9898920059204102
vn 0.352275013923645 0.1818459928035736 0.9180600047111511
vn -0.8040050268173218 -0.24523800611495972 0.5416960120201111
vn -0.45095500349998474 -0.08630099892616272 0.8883649706840515
vn -0.9609130024909973 -0.27665698528289795 0.010394000448286533
vn -0.8211719989776611 -0.2865059971809387 -0.4935489892959595
vn -0.9609130024909973 -0.27665698528289795 0.010394000448286533
vn -0.5471979975700378 -0.10325100272893906 -0.8306099772453308
vn 0.3373909890651703 0.3462100028991699 -0.8753889799118042
vn -0.38524699211120605 0.04466300085186958 -0.9217320084571838
vn 0.5800189971923828 -0.12845100462436676 -0.8044120073318481
vn 0.4415450096130371 -0.26078400015830994 -0.8585039973258972
vn 0.009277000091969967 -0.16593700647354126 -0.9860929846763611
vn 0.28993499279022217 -0.22706399857997894 -0.9297199845314026
vn -0.18154799938201904 0.17028699815273285 -0.9685260057449341
vn 0.937853991985321 0.3408089876174927 0.06541900336742401
vn 0.9364389777183533 0.3487339913845062 0.03830200061202049
vn 0.8954539895057678 0.4451430141925812 -0.003266999963670969
vn 0.47387099266052246 0.8779270052909851 -0.06848499923944473
vn 0.7842649817466736 0.619979977607727 -0.02353000082075596
vn -0.5810610055923462 0.8084499835968018 -0.0936800017952919
vn 0.6958150267601013 0.3429659903049469 0.631043016910553
vn 0.7203599810600281 0.2531229853630066 0.6457629799842834
vn 0.6768270134925842 0.3724449872970581 0.6349719762802124
vn 0.4245150089263916 0.6236019730567932 0.6564350128173828
vn 0.6492120027542114 0.39650800824165344 0.6490799784660339
vn -0.6542990207672119 0.5512580275535583 0.5176939964294434
vn -0.8566269874572754 -0.0741180032491684 -0.5105850100517273
vn -0.5432199835777283 -0.06120600178837776 -0.8373569846153259
vn -0.5643550157546997 0.23450900614261627 -0.7915229797363281
vn -0.8548280000686646 0.11070100218057632 -0.5069659948348999
vn -0.9964730143547058 -0.07265599817037582 0.04197699949145317
vn -0.987870991230011 -0.14230699837207794 0.06212399899959564
vn -0.8040469884872437 -0.19522200524806976 0.561601996421814
vn -0.7948769927024841 -0.21571800112724304 0.5671300292015076
vn -0.987870991230011 -0.14230699837207794 0.06212399899959564
vn -0.9964730143547058 -0.07265599817037582 0.04197699949145317
vn -0.4394569993019104 -0.2070779949426651 0.8740689754486084
vn -0.45016399025917053 -0.19295300543308258 0.8718500137329102
vn 0.045451000332832336 -0.10700000077486038 0.9932199716567993
vn 0.04438000172376633 -0.13106800615787506 0.9903799891471863
vn 0.4986400008201599 0.027187999337911606 0.8663830161094666
vn 0.5256999731063843 0.03404499962925911 0.8499889969825745
vn 0.8966349959373474 0.25310900807380676 0.36329400539398193
vn 0.9407449960708618 0.3307879865169525 0.07468999922275543
vn 0.9340670108795166 0.3470579981803894 0.08408299833536148
vn 0.8922560214996338 0.26569899916648865 0.36507898569107056
vn 0.8657379746437073 0.39724001288414 -0.3044629991054535
vn 0.6585999727249146 0.4382070004940033 -0.611735999584198
vn 0.7366440296173096 0.3111230134963989 -0.6004649996757507
vn 0.8853409886360168 0.3715440034866333 -0.2795099914073944
vn 0.4310019910335541 0.18792200088500977 -0.882565975189209
vn 0.2918440103530884 0.41952601075172424 -0.8595489859580994
vn 0.007538000121712685 -0.9492769837379456 -0.3143500089645386
vn -0.1241220012307167 -0.9069110155105591 -0.4026240110397339
vn -0.01979300007224083 -0.8294410109519958 -0.5582429766654968
vn 0.08283399790525436 -0.9123409986495972 -0.40096399188041687
vn 0.32287898659706116 -0.8417689800262451 -0.43263599276542664
vn 0.3850240111351013 -0.7025120258331299 -0.5985260009765625
vn 0.5543820261955261 -0.6999760270118713 -0.45021599531173706
vn 0.4064359962940216 -0.848954975605011 -0.33776500821113586
vn 0.6630849838256836 -0.6935510039329529 -0.28161099553108215
vn 0.47097599506378174 -0.8453590273857117 -0.2520909905433655
vn 0.6413589715957642 -0.7580639719963074 -0.11831200122833252
vn 0.5916249752044678 -0.8059859871864319 0.01912499964237213
vn 0.42824700474739075 -0.8997139930725098 -0.08437100052833557
vn 0.46143901348114014 -0.8723589777946472 -0.16144299507141113
vn 0.3087430000305176 -0.93436598777771 0.1778690069913864
vn 0.20351499319076538 -0.9381269812583923 0.2801789939403534
vn 0.20506499707698822 -0.975579023361206 0.07870599627494812
vn 0.2719079852104187 -0.9622859954833984 0.008464000187814236
vn 0.14923200011253357 -0.9882550239562988 -0.032892998307943344
vn 0.1141590029001236 -0.9875749945640564 0.10799600183963776
vn -0.03731299936771393 -0.999210000038147 0.013687999919056892
vn 0.03754900023341179 -0.9960899949073792 -0.07996699959039688
vn -0.1429239958524704 -0.9764779806137085 -0.16144199669361115
vn -0.01172299962490797 -0.9813690185546875 -0.19177600741386414
vn -0.586421012878418 -0.11052600294351578 -0.8024299740791321
vn -0.8312889933586121 -0.21230800449848175 -0.513696014881134
vn -0.974947988986969 -0.22002999484539032 0.03260299935936928
vn -0.974947988986969 -0.22002999484539032 0.03260299935936928
vn -0.794031023979187 -0.27733200788497925 0.5409280061721802
vn -0.4443199932575226 -0.17675399780273438 0.8782579898834229
vn 0.0197369996458292 0.006959000136703253 0.9997810125350952
vn 0.4901210069656372 0.08304700255393982 0.8676890134811401
vn 0.9365410208702087 0.34179699420928955 0.07788500189781189
vn 0.8987789750099182 0.2665550112724304 0.34805700182914734
vn 0.8745129704475403 0.37859898805618286 -0.3031339943408966
vn 0.6998590230941772 0.36416199803352356 -0.6144790053367615
vn 0.36729899048805237 0.21153700351715088 -0.9057279825210571
vn -0.8139849901199341 0.14651399850845337 -0.5621050000190735
vn -0.8164039850234985 0.1545329988002777 -0.5564219951629639
vn -0.49231401085853577 0.28373798727989197 -0.8228729963302612
vn -0.4831950068473816 0.3137759864330292 -0.8173540234565735
vn -0.9965350031852722 -0.08156199753284454 -0.016289999708533287
vn -0.999360978603363 -0.03412200137972832 -0.010649999603629112
vn -0.8158209919929504 -0.20786799490451813 0.539654016494751
vn -0.8245949745178223 -0.1752379983663559 0.5378990173339844
vn -0.999360978603363 -0.03412200137972832 -0.010649999603629112
vn -0.9965350031852722 -0.08156199753284454 -0.016289999708533287
vn -0.4314570128917694 -0.23619000613689423 0.8706660270690918
vn -0.45642000436782837 -0.2021609991788864 0.8664939999580383
vn 0.004017000086605549 -0.14838600158691406 0.9889209866523743
vn 0.04442499950528145 -0.19353699684143066 0.9800869822502136
vn 0.45033299922943115 -0.05815200135111809 0.8909649848937988
vn 0.45475199818611145 -0.024351999163627625 0.8902850151062012
vn 0.9503530263900757 0.29340600967407227 0.10364700108766556
vn 0.9004650115966797 0.2082899957895279 0.3818089962005615
vn 0.9108690023422241 0.1809079945087433 0.370932012796402
vn 0.9559730291366577 0.27954500913619995 0.08927299827337265
vn 0.6994940042495728 0.44283899664878845 -0.5608940124511719
vn 0.8897460103034973 0.3778809905052185 -0.2560429871082306
vn 0.8889300227165222 0.37828901410102844 -0.2582649886608124
vn 0.6984040141105652 0.45419201254844666 -0.5531190037727356
vn 0.33917000889778137 0.4593519866466522 -0.820950984954834
vn 0.33000999689102173 0.4817030131816864 -0.8118230104446411
vn -0.14915400743484497 0.059445999562740326 -0.9870250225067139
vn -0.11637800186872482 -0.007822999730706215 -0.9931740164756775
vn -0.1964070051908493 0.3205060064792633 -0.9266610145568848
vn -0.12935200333595276 0.38485199213027954 -0.9138690233230591
vn -0.12994599342346191 0.4209330081939697 -0.8977360129356384
vn 0.15647000074386597 -0.7840020060539246 -0.6007149815559387
vn 0.17983399331569672 -0.8885599970817566 -0.42204299569129944
vn 0.9503530263900757 0.29340600967407227 0.10364700108766556
vn 0.9559730291366577 0.27954500913619995 0.08927299827337265
vn 0.9407449960708618 0.3307879865169525 0.07468999922275543
vn 0.9340670108795166 0.3470579981803894 0.08408299833536148
vn 0.9365410208702087 0.34179699420928955 0.07788500189781189
vn 0.4681360125541687 -0.8783320188522339 0.09686099737882614
vn 0.3798089921474457 -0.9245589971542358 -0.030580999329686165
vn 0.7527649998664856 0.11054100096225739 0.6489409804344177
vn 0.7612640261650085 0.08505299687385559 0.6428400278091431
vn 0.7591829895973206 0.16099700331687927 0.6306520104408264
vn 0.767749011516571 0.15649199485778809 0.6213470101356506
vn 0.7807340025901794 0.1446560025215149 0.6078889966011047
vn 0.2001110017299652 -0.9643210172653198 -0.17332500219345093
vn -0.38770800828933716 -0.2601180076599121 0.8843200206756592
vn -0.8108590245246887 -0.2541950047016144 0.5271549820899963
vn -0.9914969801902771 -0.1200999990105629 -0.05009299889206886
vn -0.9914969801902771 -0.1200999990105629 -0.05009299889206886
vn -0.7960370182991028 0.11740999668836594 -0.5937510132789612
vn -0.46497899293899536 0.2828559875488281 -0.838919997215271
vn -0.10741899907588959 0.39531299471855164 -0.9122440218925476
vn 0.3358190059661865 0.4594379961490631 -0.8222789764404297
vn 0.6995009779930115 0.44040000438690186 -0.5628020167350769
vn 0.8881379961967468 0.3700680136680603 -0.27250900864601135
vn 0.9581120014190674 0.27823400497436523 0.06788100302219391
vn 0.9169909954071045 0.1776150017976761 0.3571839928627014
vn 0.9581120014190674 0.27823400497436523 0.06788100302219391
vn 0.7766039967536926 0.07938999682664871 0.6249669790267944
vn 0.4237009882926941 -0.0757170021533966 0.9026319980621338
vn 0.03270399942994118 -0.23454299569129944 0.9715549945831299

vt 0.5207470059394836 0.9451120011508465
vt 0.527658998966217 0.95694699883461
vt 0.5163120031356812 0.9674220010638237
vt 0.5065690279006958 0.9522820003330708
vt 0.5405979752540588 0.9436639994382858
vt 0.5324550271034241 0.9355700016021729
vt 0.5412840247154236 0.9349299967288971
vt 0.5405979752540588 0.9436639994382858
vt 0.5324550271034241 0.9355700016021729
vt 0.5068489909172058 0.943656999617815
vt 0.5175309777259827 0.9379720017313957
vt 0.5288749933242798 0.9313829988241196
vt 0.5348970293998718 0.9300490021705627
vt 0.35075199604034424 0.9387869983911514
vt 0.3529750108718872 0.9289849996566772
vt 0.3406490087509155 0.924796998500824
vt 0.34314700961112976 0.9384829998016357
vt 0.3530629873275757 0.9521850012242794
vt 0.3582090139389038 0.9511089995503426
vt 0.3530629873275757 0.9521850012242794
vt 0.35680699348449707 0.9587569981813431
vt 0.35912299156188965 0.9533130005002022
vt 0.3301529884338379 0.9299840033054352
vt 0.33838900923728943 0.9426289983093739
vt 0.3497300148010254 0.9548930004239082
vt 0.3497300148010254 0.9548930004239082
vt 0.32622700929641724 0.9424370005726814
vt 0.3356879949569702 0.9494450017809868
vt 0.3495509922504425 0.9598499983549118
vt 0.3495509922504425 0.9598499983549118
vt 0.3217650055885315 0.9558710008859634
vt 0.3352639973163605 0.9585650004446507
vt 0.3502790033817291 0.9657140001654625
vt 0.3533399999141693 0.9646189995110035
vt 0.532401978969574 0.9638149999082088
vt 0.5200650095939636 0.9763859994709492
vt 0.5444470047950745 0.9487849995493889
vt 0.5468639731407166 0.9419780001044273
vt 0.4197160005569458 0.8984059989452362
vt 0.4085629880428314 0.8986139968037605
vt 0.4081760048866272 0.8759260028600693
vt 0.41683799028396606 0.8756909966468811
vt 0.4148150086402893 0.854996994137764
vt 0.4085870087146759 0.8574319928884506
vt 0.41033899784088135 0.8502060025930405
vt 0.4196999967098236 0.8455709964036942
vt 0.4148150086402893 0.854996994137764
vt 0.29623499512672424 0.8691820055246353
vt 0.3022949993610382 0.8726029992103577
vt 0.303741991519928 0.8552719950675964
vt 0.29487499594688416 0.8521090000867844
vt 0.2975330054759979 0.8340519964694977
vt 0.3035210072994232 0.8380579948425293
vt 0.3035210072994232 0.8380579948425293
vt 0.307235985994339 0.8313699960708618
vt 0.29872798919677734 0.8311190009117126
vt 0.3141320049762726 0.8749839961528778
vt 0.31119799613952637 0.8571899980306625
vt 0.30855900049209595 0.8401339948177338
vt 0.30855900049209595 0.8401339948177338
vt 0.32638999819755554 0.8746509999036789
vt 0.3183090090751648 0.8559380024671555
vt 0.3134840130805969 0.8380119949579239
vt 0.3134840130805969 0.8380119949579239
vt 0.33160701394081116 0.8704269975423813
vt 0.3253979980945587 0.8513070046901703
vt 0.31809601187705994 0.8339599967002869
vt 0.3159349858760834 0.8310749977827072
vt 0.4406929910182953 0.8712610006332397
vt 0.44665199518203735 0.8894679993391037
vt 0.4359230101108551 0.8920650035142899
vt 0.4327999949455261 0.8732420057058334
vt 0.42791199684143066 0.852512001991272
vt 0.4343029856681824 0.8525979965925217
vt 0.42791199684143066 0.852512001991272
vt 0.42995598912239075 0.846658006310463
vt 0.4268920123577118 0.8952040001749992
vt 0.42438098788261414 0.8745640069246292
vt 0.4215660095214844 0.8544960021972656
vt 0.4215660095214844 0.8544960021972656
vt 0.38315799832344055 0.9111939966678619
vt 0.37629398703575134 0.9150540009140968
vt 0.37068700790405273 0.89894700050354
vt 0.3773919939994812 0.8964430019259453
vt 0.3714660108089447 0.8819549977779388
vt 0.36656099557876587 0.8848259970545769
vt 0.36737701296806335 0.8797490000724792
vt 0.3716390132904053 0.8723399937152863
vt 0.3714660108089447 0.8819549977779388
vt 0.2686460018157959 0.8853569999337196
vt 0.27943599224090576 0.8822140023112297
vt 0.27024200558662415 0.872077003121376
vt 0.2626180052757263 0.874889001250267
vt 0.2557699978351593 0.862865999341011
vt 0.2609019875526428 0.8618790060281754
vt 0.2609019875526428 0.8618790060281754
vt 0.25950801372528076 0.8560750037431717
vt 0.25515198707580566 0.8604650050401688
vt 0.2879529893398285 0.8792570009827614
vt 0.27501800656318665 0.8685349971055984
vt 0.26471900939941406 0.8601080030202866
vt 0.26471900939941406 0.8601080030202866
vt 0.2933729887008667 0.8748099952936172
vt 0.2787240147590637 0.8652379959821701
vt 0.26597800850868225 0.8565409928560257
vt 0.26597800850868225 0.8565409928560257
vt 0.28133898973464966 0.8620849996805191
vt 0.2668670117855072 0.8519950062036514
vt 0.2639009952545166 0.851841002702713
vt 0.3941049873828888 0.8837900012731552
vt 0.39981698989868164 0.9028939977288246
vt 0.3887670040130615 0.8887260034680367
vt 0.377918004989624 0.8737850040197372
vt 0.38163700699806213 0.8698370009660721
vt 0.377918004989624 0.8737850040197372
vt 0.37725499272346497 0.8674020022153854
vt 0.39110198616981506 0.9058229997754097
vt 0.3831540048122406 0.8930730000138283
vt 0.3751710057258606 0.8787370026111603
vt 0.3751710057258606 0.8787370026111603
vt 0.45592600107192993 0.8933510035276413
vt 0.4558719992637634 0.8728879988193512
vt 0.462909996509552 0.8752570003271103
vt 0.4690999984741211 0.8588339984416962
vt 0.46312499046325684 0.8579609990119934
vt 0.46723800897598267 0.8534319996833801
vt 0.476498007774353 0.8532329946756363
vt 0.4690999984741211 0.8588339984416962
vt 0.3353100121021271 0.8772720023989677
vt 0.3501400053501129 0.8628229945898056
vt 0.3460479974746704 0.8582659959793091
vt 0.35855698585510254 0.8442669957876205
vt 0.3605180084705353 0.8501300066709518
vt 0.3605180084705353 0.8501300066709518
vt 0.36818599700927734 0.8466520011425018
vt 0.36147698760032654 0.8432819992303848
vt 0.3438839912414551 0.8820450007915497
vt 0.35511499643325806 0.8652839958667755
vt 0.36373400688171387 0.8546279966831207
vt 0.36373400688171387 0.8546279966831207
vt 0.35264700651168823 0.8814779967069626
vt 0.3623960018157959 0.8668220043182373
vt 0.36906901001930237 0.8542959988117218
vt 0.36906901001930237 0.8542959988117218
vt 0.3631399869918823 0.8815689980983734
vt 0.3703570067882538 0.8675449937582016
vt 0.37465399503707886 0.8522309958934784
vt 0.37485000491142273 0.8495009988546371
vt 0.4852060079574585 0.8811890035867691
vt 0.4813559949398041 0.9004030004143715
vt 0.47321999073028564 0.8978480026125908
vt 0.4773100018501282 0.878591001033783
vt 0.4807719886302948 0.861165001988411
vt 0.48698198795318604 0.8643449991941452
vt 0.4807719886302948 0.861165001988411
vt 0.4846999943256378 0.8574550002813339
vt 0.4650300145149231 0.8959790021181107
vt 0.47029298543930054 0.8771699965000153
vt 0.4746040105819702 0.8608900010585785
vt 0.4746040105819702 0.8608900010585785
vt 0.251567006111145 0.9402469992637634
vt 0.26688599586486816 0.9317120015621185
vt 0.2600350081920624 0.9154490008950233
vt 0.27930501103401184 0.9522030018270016
vt 0.2894049882888794 0.958636000752449
vt 0.2967759966850281 0.9485579989850521
vt 0.28952598571777344 0.9376059994101524
vt 0.4995740056037903 0.9940720000304282
vt 0.4977230131626129 0.9818810001015663
vt 0.47792500257492065 0.9737999998033047
vt 0.45503100752830505 0.9693180005997419
vt 0.48012998700141907 0.9402580000460148
vt 0.44401800632476807 0.909682996571064
vt 0.4599260091781616 0.9143259972333908
vt 0.41962000727653503 0.9719479996711016
vt 0.3949030041694641 0.9779889993369579
vt 0.38125601410865784 0.9514070004224777
vt 0.38833698630332947 0.9291350021958351
vt 0.2843250036239624 0.9238220006227493
vt 0.2955850064754486 0.9276480004191399
vt 0.2952139973640442 0.9210259988903999
vt 0.301582008600235 0.8870669975876808
vt 0.4899100065231323 0.9338570013642311
vt 0.4007819890975952 0.9201460033655167
vt 0.3461340069770813 0.8963909968733788
vt 0.3367139995098114 0.8941539973020554
vt 0.2754189968109131 0.8951449990272522
vt 0.2843509912490845 0.8916380032896996
vt 0.3564409911632538 0.910460002720356
vt 0.36014899611473083 0.8948310017585754
vt 0.34362199902534485 0.9102360010147095
vt 0.30337899923324585 0.9220099970698357
vt 0.3003920018672943 0.9336140006780624
vt 0.2894369959831238 0.9025200009346008
vt 0.2776010036468506 0.9075760021805763
vt 0.3151249885559082 0.9015600010752678
vt 0.30386999249458313 0.8968399986624718
vt 0.31149598956108093 0.9250139966607094
vt 0.33368200063705444 0.9078449979424477
vt 0.4144830107688904 0.9159940034151077
vt 0.42898499965667725 0.9134180024266243
vt 0.4367400109767914 0.9694260004907846
vt 0.31521499156951904 0.8871140033006668
vt 0.3265489935874939 0.8892889991402626
vt 0.4716019928455353 0.916302002966404
vt 0.29739901423454285 0.9643739983439445
vt 0.31093698740005493 0.938340000808239
vt 0.31846100091934204 0.9260089993476868
vt 0.3252669870853424 0.8995729982852936
vt 0.36730700731277466 0.9427190013229847
vt 0.37174099683761597 0.9298520013689995
vt 0.305512011051178 0.9377279989421368
vt 0.4814170002937317 0.9179539978504181
vt 0.2556779980659485 0.8235580027103424
vt 0.2741599977016449 0.788769006729126
vt 0.23632900416851044 0.800928995013237
vt 0.24436800181865692 0.8161190003156662
vt 0.28511300683021545 0.8240949958562851
vt 0.31721699237823486 0.8039789944887161
vt 0.3194189965724945 0.773704007267952
vt 0.32030901312828064 0.7889859974384308
vt 0.3011080026626587 0.7521200031042099
vt 0.3125680088996887 0.7588340044021606
vt 0.2620779871940613 0.7519730031490326
vt 0.28572800755500793 0.7462989985942841
vt 0.2406419962644577 0.7719220072031021
vt 0.25130701065063477 0.7587790042161942
vt 0.23632900416851044 0.7870060056447983
vt 0.5221109986305237 0.8599639981985092
vt 0.4999319911003113 0.8436650037765503
vt 0.5074160099029541 0.8598400056362152
vt 0.5234240293502808 0.8758099973201752
vt 0.47196099162101746 0.8189329952001572
vt 0.46465200185775757 0.8097109943628311
vt 0.742501974105835 0.8372550010681152
vt 0.7917090058326721 0.82014399766922
vt 0.7886170148849487 0.81700199842453
vt 0.7430790066719055 0.8316980004310608
vt 0.7219679951667786 0.8474359959363937
vt 0.7257800102233887 0.856892004609108
vt 0.7144650220870972 0.8747099936008453
vt 0.7087640166282654 0.8606290072202682
vt 0.6898689866065979 0.8826870024204254
vt 0.701291024684906 0.8943720012903214
vt 0.6325500011444092 0.9131309986114502
vt 0.6354159712791443 0.9360020011663437
vt 0.6683139801025391 0.9218439981341362
vt 0.6555969715118408 0.9050870016217232
vt 0.5799880027770996 0.8924409970641136
vt 0.5715929865837097 0.9074430018663406
vt 0.59129798412323 0.9135299995541573
vt 0.5967739820480347 0.8966590017080307
vt 0.5625230073928833 0.8832319974899292
vt 0.5544040203094482 0.8983429968357086
vt 0.49778398871421814 0.8316780030727386
vt 0.46608901023864746 0.8060500025749207
vt 0.783161997795105 0.8112390041351318
vt 0.7433819770812988 0.8232329934835434
vt 0.7211520075798035 0.8370909988880157
vt 0.7054470181465149 0.8484410047531128
vt 0.6855859756469727 0.862526997923851
vt 0.6481320261955261 0.8814660012722015
vt 0.6300870180130005 0.8850499987602234
vt 0.6018249988555908 0.87932900339365
vt 0.582522988319397 0.8749489933252335
vt 0.5630670189857483 0.8694459944963455
vt 0.49741899967193604 0.8254889994859695
vt 0.5193420052528381 0.842618003487587
vt 0.515296995639801 0.8095600008964539
vt 0.49991199374198914 0.8010790050029755
vt 0.4666289985179901 0.7999570071697235
vt 0.46588200330734253 0.7870219945907593
vt 0.7436169981956482 0.8187800049781799
vt 0.7802860140800476 0.8069469928741455
vt 0.7750440239906311 0.794636994600296
vt 0.7399899959564209 0.8030219972133636
vt 0.7222689986228943 0.8093740046024323
vt 0.7210389971733093 0.8335669934749603
vt 0.7048159837722778 0.8451450020074844
vt 0.7076780200004578 0.8160230070352554
vt 0.6862159967422485 0.8235439956188202
vt 0.6848040223121643 0.8575540035963058
vt 0.6342309713363647 0.8317939937114716
vt 0.6298310160636902 0.873756006360054
vt 0.646822988986969 0.8720590025186539
vt 0.6518920063972473 0.8314220011234283
vt 0.5834580063819885 0.8692539930343628
vt 0.6016920208930969 0.8699920028448105
vt 0.5984439849853516 0.8343340009450912
vt 0.580361008644104 0.8344539999961853
vt 0.5588070154190063 0.8281559944152832
vt 0.5627729892730713 0.8641179949045181
vt 0.5196679830551147 0.8474700003862381
vt 0.5978209972381592 0.791023001074791
vt 0.5779020190238953 0.789791002869606
vt 0.6373220086097717 0.7859289944171906
vt 0.657742977142334 0.7872570008039474
vt 0.705672025680542 0.7857819944620132
vt 0.6919490098953247 0.7864370048046112
vt 0.7356640100479126 0.7848059982061386
vt 0.7184439897537231 0.7852060049772263
vt 0.7720990180969238 0.7836309969425201
vt 0.5008829832077026 0.7828159928321838
vt 0.46549099683761597 0.7757540047168732
vt 0.5179269909858704 0.7854409962892532
vt 0.5569570064544678 0.7874410003423691
vt 0.5409089922904968 0.8896090015769005
vt 0.542248010635376 0.8720999956130981
vt 0.5418729782104492 0.8599279969930649
vt 0.5353909730911255 0.8200089931488037
vt 0.5419549942016602 0.8557649999856949
vt 0.5391870141029358 0.7873270064592361
vt 0.613241970539093 0.8326490074396133
vt 0.6132590174674988 0.7921240031719208
vt 0.6158679723739624 0.8692830055952072
vt 0.6139219999313354 0.898278996348381
vt 0.6162859797477722 0.8788060024380684
vt 0.6063870191574097 0.9161359965801239
vt 0.6698049902915955 0.8300929963588715
vt 0.6772090196609497 0.7878350019454956
vt 0.6656579971313477 0.8674010038375854
vt 0.6742129921913147 0.8956170007586479
vt 0.6673830151557922 0.8733820021152496
vt 0.6872940063476562 0.9075089991092682
vt 0.5041289925575256 0.755621001124382
vt 0.5207380056381226 0.7572190016508102
vt 0.522849977016449 0.7341639995574951
vt 0.5070819854736328 0.7313820123672485
vt 0.4699999988079071 0.7311489880084991
vt 0.4656290113925934 0.7525040060281754
vt 0.742851972579956 0.7335689961910248
vt 0.7370799779891968 0.7595079988241196
vt 0.7709069848060608 0.7594790011644363
vt 0.7794719934463501 0.735372006893158
vt 0.7236899733543396 0.733161985874176
vt 0.7197080254554749 0.7584780007600784
vt 0.7069879770278931 0.7572620064020157
vt 0.7090979814529419 0.733828991651535
vt 0.6925449967384338 0.7369470000267029
vt 0.6917769908905029 0.7600069940090179
vt 0.6554809808731079 0.7384290099143982
vt 0.6362109780311584 0.7381890118122101
vt 0.6381409764289856 0.7583730071783066
vt 0.6568390130996704 0.7592509984970093
vt 0.5985400080680847 0.7489799857139587
vt 0.5790939927101135 0.74515300989151
vt 0.5802080035209656 0.763275995850563
vt 0.5993549823760986 0.7662010043859482
vt 0.5598700046539307 0.7600830048322678
vt 0.5598099827766418 0.7403219938278198
vt 0.3318229913711548 0.762375995516777
vt 0.32961300015449524 0.7600390017032623
vt 0.32304900884628296 0.7723290026187897
vt 0.325547993183136 0.7733550071716309
vt 0.3274590075016022 0.7970689982175827
vt 0.32520800828933716 0.7984399944543839
vt 0.3367129862308502 0.8085760027170181
vt 0.33816200494766235 0.806100994348526
vt 0.35223400592803955 0.8138670027256012
vt 0.35224801301956177 0.8110630065202713
vt 0.36671900749206543 0.8138670027256012
vt 0.3808799982070923 0.8080659955739975
vt 0.3784109950065613 0.8057370036840439
vt 0.36545300483703613 0.8108769953250885
vt 0.40126198530197144 0.7863180041313171
vt 0.4011180102825165 0.7724319994449615
vt 0.39698800444602966 0.773485004901886
vt 0.3955099880695343 0.7859780043363571
vt 0.39202600717544556 0.7630999982357025
vt 0.3973369896411896 0.7609110027551651
vt 0.38432401418685913 0.7502049952745438
vt 0.38144800066947937 0.753371000289917
vt 0.35402199625968933 0.7462989985942841
vt 0.35386499762535095 0.7501460015773773
vt 0.5205850005149841 0.772365003824234
vt 0.5047320127487183 0.7703730016946793
vt 0.46520400047302246 0.7655780017375946
vt 0.7707599997520447 0.7731789946556091
vt 0.736175000667572 0.7741619944572449
vt 0.7178130149841309 0.7756479978561401
vt 0.7047349810600281 0.7760329991579056
vt 0.6914100050926208 0.7770940065383911
vt 0.6394330263137817 0.7740830034017563
vt 0.6580590009689331 0.7760439962148666
vt 0.5967839956283569 0.7802699953317642
vt 0.5748040080070496 0.7773360013961792
vt 0.556115984916687 0.7761099934577942
vt 0.5109480023384094 0.6874519884586334
vt 0.510017991065979 0.7136479914188385
vt 0.5256109833717346 0.7150959968566895
vt 0.5272579789161682 0.6872290074825287
vt 0.4730969965457916 0.6916170120239258
vt 0.4734269976615906 0.7150759994983673
vt 0.7553020119667053 0.6869510114192963
vt 0.7495989799499512 0.7129409909248352
vt 0.788398027420044 0.7190090119838715
vt 0.7975720167160034 0.6934080123901367
vt 0.7329490184783936 0.6842400133609772
vt 0.7286279797554016 0.709892988204956
vt 0.7127119898796082 0.7094259858131409
vt 0.7145230174064636 0.6841050088405609
vt 0.6969249844551086 0.6819829940795898
vt 0.6947810053825378 0.7090629935264587
vt 0.6364309787750244 0.7063969969749451
vt 0.6559500098228455 0.7072480022907257
vt 0.6544389724731445 0.6788919866085052
vt 0.6327069997787476 0.6780830025672913
vt 0.5825620293617249 0.7189159989356995
vt 0.6023790240287781 0.7219150066375732
vt 0.6033459901809692 0.6954610049724579
vt 0.5824909806251526 0.6914480030536652
vt 0.5627070069313049 0.7159470021724701
vt 0.562574028968811 0.6882350146770477
vt 0.5402200222015381 0.7741259932518005
vt 0.5403429865837097 0.7587849944829941
vt 0.5418679714202881 0.7369489967823029
vt 0.5449110269546509 0.7147809863090515
vt 0.5458369851112366 0.687052994966507
vt 0.32114800810813904 0.7865220010280609
vt 0.32398998737335205 0.7861679941415787
vt 0.6193730235099792 0.7241570055484772
vt 0.6213570237159729 0.6992810070514679
vt 0.6145920157432556 0.7512529939413071
vt 0.6144539713859558 0.7684080004692078
vt 0.615032970905304 0.7819260060787201
vt 0.39363300800323486 0.799002006649971
vt 0.38997799158096313 0.7974060028791428
vt 0.6758130192756653 0.7081969976425171
vt 0.6763579845428467 0.6803460121154785
vt 0.6749359965324402 0.7382380068302155
vt 0.6756319999694824 0.7602960020303726
vt 0.6764100193977356 0.7771569937467575
vt 0.3602150082588196 0.7801450043916702
vt 0.7359070181846619 0.6611509919166565
vt 0.759818971157074 0.6638740003108978
vt 0.8045589923858643 0.6708050072193146
vt 0.47262299060821533 0.6709519922733307
vt 0.5116829872131348 0.6660529971122742
vt 0.5287410020828247 0.6649320125579834
vt 0.5471150279045105 0.6645449995994568
vt 0.5634989738464355 0.66559699177742
vt 0.5836259722709656 0.6684710085391998
vt 0.6050990223884583 0.6726579964160919
vt 0.6237509846687317 0.6771160066127777
vt 0.6528859734535217 0.6533569991588593
vt 0.6298310160636902 0.6527700126171112
vt 0.676222026348114 0.655119001865387
vt 0.6980509757995605 0.6574009954929352
vt 0.7182250022888184 0.6605710089206696

usemtl Material

f 1/1/1 2/2/2 3/3/3
f 3/3/3 4/4/4 1/1/1
f 5/5/5 2/2/2 1/1/1
f 1/1/1 6/6/6 5/5/5
f 7/7/7 8/8/8 9/9/9
f 1/1/1 4/4/4 10/10/10
f 10/10/10 11/11/11 1/1/1
f 6/6/6 1/1/1 11/11/11
f 11/11/11 12/12/12 6/6/6
f 13/13/13 7/7/7 9/9/9
f 14/14/14 15/15/15 16/16/16
f 16/16/16 17/17/17 14/14/14
f 14/14/14 17/17/17 18/18/18
f 18/18/18 19/19/19 14/14/14
f 20/20/20 21/21/21 22/22/22
f 17/17/17 16/16/16 23/23/23
f 23/23/23 24/24/24 17/17/17
f 17/17/17 24/24/24 25/25/25
f 25/25/25 18/18/18 17/17/17
f 26/26/26 21/21/21 20/20/20
f 24/24/24 23/23/23 27/27/27
f 27/27/27 28/28/28 24/24/24
f 24/24/24 28/28/28 29/29/29
f 29/29/29 25/25/25 24/24/24
f 30/30/30 21/21/21 26/26/26
f 31/31/31 32/32/32 28/28/28
f 28/28/28 27/27/27 31/31/31
f 32/32/32 33/33/33 29/29/29
f 29/29/29 28/28/28 32/32/32
f 34/34/34 21/21/21 30/30/30
f 35/35/35 36/36/36 3/3/3
f 3/3/3 2/2/2 35/35/35
f 37/37/37 35/35/35 2/2/2
f 2/2/2 5/5/5 37/37/37
f 8/8/8 7/7/7 38/38/38
f 39/39/39 40/40/40 41/41/41
f 41/41/41 42/42/42 39/39/39
f 43/43/43 42/42/42 41/41/41
f 41/41/41 44/44/44 43/43/43
f 45/45/45 46/46/46 47/47/47
f 48/48/48 49/49/49 50/50/50
f 50/50/50 51/51/51 48/48/48
f 52/52/52 51/51/51 50/50/50
f 50/50/50 53/53/53 52/52/52
f 54/54/54 55/55/55 56/56/56
f 49/49/49 57/57/57 58/58/58
f 58/58/58 50/50/50 49/49/49
f 53/53/53 50/50/50 58/58/58
f 58/58/58 59/59/59 53/53/53
f 60/60/60 55/55/55 54/54/54
f 58/58/58 57/57/57 61/61/61
f 61/61/61 62/62/62 58/58/58
f 58/58/58 62/62/62 63/63/63
f 63/63/63 59/59/59 58/58/58
f 64/64/64 55/55/55 60/60/60
f 62/62/62 61/61/61 65/65/65
f 65/65/65 66/66/66 62/62/62
f 62/62/62 66/66/66 67/67/67
f 67/67/67 63/63/63 62/62/62
f 68/68/68 55/55/55 64/64/64
f 69/69/69 70/70/70 71/71/71
f 71/71/71 72/72/72 69/69/69
f 69/69/69 72/72/72 73/73/73
f 73/73/73 74/74/74 69/69/69
f 75/75/75 46/46/46 76/76/76
f 71/71/71 77/77/77 78/78/78
f 78/78/78 72/72/72 71/71/71
f 72/72/72 78/78/78 79/79/79
f 79/79/79 73/73/73 72/72/72
f 80/80/80 46/46/46 75/75/75
f 77/77/77 39/39/39 42/42/42
f 42/42/42 78/78/78 77/77/77
f 78/78/78 42/42/42 43/43/43
f 43/43/43 79/79/79 78/78/78
f 46/46/46 80/80/80 47/47/47
f 81/81/81 82/82/82 83/83/83
f 83/83/83 84/84/84 81/81/81
f 85/85/85 84/84/84 83/83/83
f 83/83/83 86/86/86 85/85/85
f 87/87/87 88/88/88 89/89/89
f 90/90/90 91/91/91 92/92/92
f 92/92/92 93/93/93 90/90/90
f 94/94/94 93/93/93 92/92/92
f 92/92/92 95/95/95 94/94/94
f 96/96/96 97/97/97 98/98/98
f 91/91/91 99/99/99 100/100/100
f 100/100/100 92/92/92 91/91/91
f 95/95/95 92/92/92 100/100/100
f 100/100/100 101/101/101 95/95/95
f 102/102/102 97/97/97 96/96/96
f 100/100/100 99/99/99 103/103/103
f 103/103/103 104/104/104 100/100/100
f 100/100/100 104/104/104 105/105/105
f 105/105/105 101/101/101 100/100/100
f 106/106/106 97/97/97 102/102/102
f 104/104/104 103/103/103 48/48/48
f 48/48/48 107/107/107 104/104/104
f 104/104/104 107/107/107 108/108/108
f 108/108/108 105/105/105 104/104/104
f 109/109/109 97/97/97 106/106/106
f 110/110/110 40/40/40 111/111/111
f 111/111/111 112/112/112 110/110/110
f 110/110/110 112/112/112 113/113/113
f 113/113/113 114/114/114 110/110/110
f 115/115/115 88/88/88 116/116/116
f 112/112/112 111/111/111 117/117/117
f 117/117/117 118/118/118 112/112/112
f 112/112/112 118/118/118 119/119/119
f 119/119/119 113/113/113 112/112/112
f 120/120/120 88/88/88 115/115/115
f 117/117/117 81/81/81 84/84/84
f 84/84/84 118/118/118 117/117/117
f 118/118/118 84/84/84 85/85/85
f 85/85/85 119/119/119 118/118/118
f 88/88/88 120/120/120 89/89/89
f 121/121/121 70/70/70 122/122/122
f 122/122/122 123/123/123 121/121/121
f 124/124/124 123/123/123 122/122/122
f 122/122/122 125/125/125 124/124/124
f 126/126/126 127/127/127 128/128/128
f 65/65/65 129/129/129 130/130/130
f 130/130/130 131/131/131 65/65/65
f 132/132/132 131/131/131 130/130/130
f 130/130/130 133/133/133 132/132/132
f 134/134/134 135/135/135 136/136/136
f 129/129/129 137/137/137 138/138/138
f 138/138/138 130/130/130 129/129/129
f 133/133/133 130/130/130 138/138/138
f 138/138/138 139/139/139 133/133/133
f 140/140/140 135/135/135 134/134/134
f 138/138/138 137/137/137 141/141/141
f 141/141/141 142/142/142 138/138/138
f 138/138/138 142/142/142 143/143/143
f 143/143/143 139/139/139 138/138/138
f 144/144/144 135/135/135 140/140/140
f 142/142/142 141/141/141 145/145/145
f 145/145/145 146/146/146 142/142/142
f 142/142/142 146/146/146 147/147/147
f 147/147/147 143/143/143 142/142/142
f 148/148/148 135/135/135 144/144/144
f 149/149/149 150/150/150 151/151/151
f 151/151/151 152/152/152 149/149/149
f 149/149/149 152/152/152 153/153/153
f 153/153/153 154/154/154 149/149/149
f 155/155/155 127/127/127 156/156/156
f 152/152/152 151/151/151 157/157/157
f 157/157/157 158/158/158 152/152/152
f 153/153/153 152/152/152 158/158/158
f 158/158/158 159/159/159 153/153/153
f 160/160/160 127/127/127 155/155/155
f 157/157/157 121/121/121 123/123/123
f 123/123/123 158/158/158 157/157/157
f 159/159/159 158/158/158 123/123/123
f 123/123/123 124/124/124 159/159/159
f 128/128/128 127/127/127 160/160/160
f 161/161/161 162/162/162 163/163/163
f 164/164/164 165/165/165 166/166/166
f 166/166/166 167/167/167 164/164/164
f 36/36/36 168/168/168 169/169/169
f 169/169/169 3/3/3 36/36/36
f 169/169/169 170/170/170 4/4/4
f 4/4/4 3/3/3 169/169/169
f 170/170/170 171/171/171 172/172/172
f 172/172/172 4/4/4 170/170/170
f 171/171/171 173/173/173 174/174/174
f 175/175/175 176/176/176 177/177/177
f 177/177/177 178/178/178 175/175/175
f 179/179/179 167/167/167 180/180/180
f 180/180/180 181/181/181 179/179/179
f 103/103/103 182/182/182 48/48/48
f 183/183/183 10/10/10 4/4/4
f 4/4/4 172/172/172 183/183/183
f 81/81/81 117/117/117 184/184/184
f 184/184/184 178/178/178 81/81/81
f 185/185/185 141/141/141 137/137/137
f 137/137/137 186/186/186 185/185/185
f 91/91/91 90/90/90 187/187/187
f 187/187/187 188/188/188 91/91/91
f 189/189/189 190/190/190 185/185/185
f 185/185/185 191/191/191 189/189/189
f 192/192/192 181/181/181 180/180/180
f 180/180/180 193/193/193 192/192/192
f 167/167/167 166/166/166 193/193/193
f 193/193/193 180/180/180 167/167/167
f 194/194/194 195/195/195 179/179/179
f 179/179/179 181/181/181 194/194/194
f 196/196/196 197/197/197 192/192/192
f 192/192/192 198/198/198 196/196/196
f 16/16/16 191/191/191 199/199/199
f 199/199/199 23/23/23 16/16/16
f 200/200/200 201/201/201 202/202/202
f 111/111/111 200/200/200 184/184/184
f 184/184/184 117/117/117 111/111/111
f 49/49/49 48/48/48 182/182/182
f 157/157/157 174/174/174 173/173/173
f 173/173/173 121/121/121 157/157/157
f 57/57/57 203/203/203 204/204/204
f 204/204/204 61/61/61 57/57/57
f 151/151/151 205/205/205 174/174/174
f 174/174/174 157/157/157 151/151/151
f 190/190/190 145/145/145 141/141/141
f 141/141/141 185/185/185 190/190/190
f 71/71/71 173/173/173 201/201/201
f 201/201/201 77/77/77 71/71/71
f 39/39/39 200/200/200 40/40/40
f 166/166/166 165/165/165 206/206/206
f 206/206/206 31/31/31 166/166/166
f 31/31/31 27/27/27 207/207/207
f 207/207/207 166/166/166 31/31/31
f 208/208/208 207/207/207 27/27/27
f 27/27/27 23/23/23 208/208/208
f 199/199/199 209/209/209 208/208/208
f 208/208/208 23/23/23 199/199/199
f 137/137/137 129/129/129 204/204/204
f 204/204/204 186/186/186 137/137/137
f 191/191/191 185/185/185 186/186/186
f 186/186/186 199/199/199 191/191/191
f 209/209/209 199/199/199 186/186/186
f 186/186/186 204/204/204 209/209/209
f 203/203/203 196/196/196 209/209/209
f 209/209/209 204/204/204 203/203/203
f 197/197/197 182/182/182 188/188/188
f 188/188/188 194/194/194 197/197/197
f 195/195/195 194/194/194 188/188/188
f 188/188/188 187/187/187 195/195/195
f 177/177/177 210/210/210 211/211/211
f 211/211/211 178/178/178 177/177/177
f 198/198/198 192/192/192 193/193/193
f 193/193/193 212/212/212 198/198/198
f 192/192/192 197/197/197 194/194/194
f 194/194/194 181/181/181 192/192/192
f 208/208/208 209/209/209 196/196/196
f 196/196/196 198/198/198 208/208/208
f 207/207/207 208/208/208 198/198/198
f 198/198/198 212/212/212 207/207/207
f 203/203/203 182/182/182 197/197/197
f 197/197/197 196/196/196 203/203/203
f 173/173/173 70/70/70 121/121/121
f 70/70/70 173/173/173 71/71/71
f 39/39/39 77/77/77 201/201/201
f 201/201/201 200/200/200 39/39/39
f 40/40/40 200/200/200 111/111/111
f 15/15/15 189/189/189 191/191/191
f 191/191/191 16/16/16 15/15/15
f 174/174/174 205/205/205 171/171/171
f 172/172/172 171/171/171 205/205/205
f 129/129/129 65/65/65 204/204/204
f 61/61/61 204/204/204 65/65/65
f 182/182/182 203/203/203 57/57/57
f 57/57/57 49/49/49 182/182/182
f 99/99/99 91/91/91 188/188/188
f 188/188/188 182/182/182 99/99/99
f 99/99/99 182/182/182 103/103/103
f 178/178/178 211/211/211 82/82/82
f 82/82/82 81/81/81 178/178/178
f 172/172/172 205/205/205 213/213/213
f 213/213/213 183/183/183 172/172/172
f 150/150/150 213/213/213 205/205/205
f 205/205/205 151/151/151 150/150/150
f 166/166/166 207/207/207 212/212/212
f 166/166/166 212/212/212 193/193/193
f 175/175/175 178/178/178 184/184/184
f 200/200/200 175/175/175 184/184/184
f 200/200/200 202/202/202 175/175/175
f 202/202/202 201/201/201 173/173/173
f 171/171/171 202/202/202 173/173/173
f 195/195/195 163/163/163 162/162/162
f 162/162/162 179/179/179 195/195/195
f 162/162/162 164/164/164 167/167/167
f 167/167/167 179/179/179 162/162/162
f 161/161/161 164/164/164 162/162/162
f 214/214/214 215/215/215 216/216/216
f 216/216/216 217/217/217 214/214/214
f 218/218/218 215/215/215 214/214/214
f 219/219/219 215/215/215 218/218/218
f 220/220/220 215/215/215 219/219/219
f 219/219/219 221/221/221 220/220/220
f 222/222/222 215/215/215 220/220/220
f 220/220/220 223/223/223 222/222/222
f 224/224/224 215/215/215 222/222/222
f 222/222/222 225/225/225 224/224/224
f 226/226/226 215/215/215 224/224/224
f 224/224/224 227/227/227 226/226/226
f 216/216/216 215/215/215 226/226/226
f 226/226/226 228/228/228 216/216/216
f 229/229/229 230/230/230 231/231/231
f 231/231/231 232/232/232 229/229/229
f 233/233/233 231/231/231 230/230/230
f 230/230/230 234/234/234 233/233/233
f 235/235/235 236/236/236 237/237/237
f 237/237/237 238/238/238 235/235/235
f 235/235/235 238/238/238 239/239/239
f 239/239/239 240/240/240 235/235/235
f 241/241/241 242/242/242 243/243/243
f 243/243/243 244/244/244 241/241/241
f 245/245/245 246/246/246 247/247/247
f 247/247/247 248/248/248 245/245/245
f 249/249/249 250/250/250 251/251/251
f 251/251/251 252/252/252 249/249/249
f 250/250/250 249/249/249 253/253/253
f 253/253/253 254/254/254 250/250/250
f 255/255/255 256/256/256 234/234/234
f 234/234/234 230/230/230 255/255/255
f 257/257/257 258/258/258 238/238/238
f 238/238/238 237/237/237 257/257/257
f 238/238/238 258/258/258 259/259/259
f 259/259/259 239/239/239 238/238/238
f 242/242/242 260/260/260 261/261/261
f 261/261/261 243/243/243 242/242/242
f 248/248/248 262/262/262 263/263/263
f 263/263/263 245/245/245 248/248/248
f 264/264/264 265/265/265 249/249/249
f 249/249/249 252/252/252 264/264/264
f 265/265/265 266/266/266 253/253/253
f 253/253/253 249/249/249 265/265/265
f 267/267/267 268/268/268 269/269/269
f 269/269/269 270/270/270 267/267/267
f 271/271/271 267/267/267 270/270/270
f 270/270/270 272/272/272 271/271/271
f 273/273/273 274/274/274 275/275/275
f 275/275/275 276/276/276 273/273/273
f 273/273/273 276/276/276 277/277/277
f 277/277/277 278/278/278 273/273/273
f 279/279/279 280/280/280 281/281/281
f 281/281/281 282/282/282 279/279/279
f 283/283/283 284/284/284 285/285/285
f 285/285/285 286/286/286 283/283/283
f 287/287/287 288/288/288 289/289/289
f 289/289/289 290/290/290 287/287/287
f 290/290/290 291/291/291 292/292/292
f 292/292/292 287/287/287 290/290/290
f 230/230/230 229/229/229 293/293/293
f 293/293/293 255/255/255 230/230/230
f 290/290/290 289/289/289 294/294/294
f 294/294/294 295/295/295 290/290/290
f 296/296/296 283/283/283 286/286/286
f 286/286/286 297/297/297 296/296/296
f 280/280/280 298/298/298 299/299/299
f 299/299/299 281/281/281 280/280/280
f 300/300/300 301/301/301 277/277/277
f 277/277/277 276/276/276 300/300/300
f 302/302/302 300/300/300 276/276/276
f 276/276/276 275/275/275 302/302/302
f 303/303/303 304/304/304 272/272/272
f 272/272/272 270/270/270 303/303/303
f 305/305/305 303/303/303 270/270/270
f 270/270/270 269/269/269 305/305/305
f 295/295/295 306/306/306 291/291/291
f 291/291/291 290/290/290 295/295/295
f 307/307/307 254/254/254 253/253/253
f 253/253/253 308/308/308 307/307/307
f 266/266/266 309/309/309 308/308/308
f 308/308/308 253/253/253 266/266/266
f 291/291/291 310/310/310 311/311/311
f 311/311/311 292/292/292 291/291/291
f 306/306/306 312/312/312 310/310/310
f 310/310/310 291/291/291 306/306/306
f 313/313/313 314/314/314 294/294/294
f 294/294/294 289/289/289 313/313/313
f 315/315/315 313/313/313 289/289/289
f 289/289/289 288/288/288 315/315/315
f 316/316/316 317/317/317 264/264/264
f 264/264/264 252/252/252 316/316/316
f 252/252/252 251/251/251 318/318/318
f 318/318/318 316/316/316 252/252/252
f 319/319/319 320/320/320 297/297/297
f 297/297/297 286/286/286 319/319/319
f 321/321/321 319/319/319 286/286/286
f 286/286/286 285/285/285 321/321/321
f 322/322/322 323/323/323 262/262/262
f 262/262/262 248/248/248 322/322/322
f 322/322/322 248/248/248 247/247/247
f 247/247/247 324/324/324 322/322/322
f 244/244/244 243/243/243 322/322/322
f 322/322/322 324/324/324 244/244/244
f 323/323/323 322/322/322 243/243/243
f 243/243/243 261/261/261 323/323/323
f 282/282/282 281/281/281 319/319/319
f 319/319/319 321/321/321 282/282/282
f 320/320/320 319/319/319 281/281/281
f 281/281/281 299/299/299 320/320/320
f 240/240/240 239/239/239 242/242/242
f 242/242/242 241/241/241 240/240/240
f 260/260/260 242/242/242 239/239/239
f 239/239/239 259/259/259 260/260/260
f 278/278/278 277/277/277 280/280/280
f 280/280/280 279/279/279 278/278/278
f 298/298/298 280/280/280 277/277/277
f 277/277/277 301/301/301 298/298/298
f 312/312/312 305/305/305 269/269/269
f 269/269/269 310/310/310 312/312/312
f 268/268/268 311/311/311 310/310/310
f 310/310/310 269/269/269 268/268/268
f 229/229/229 308/308/308 309/309/309
f 309/309/309 293/293/293 229/229/229
f 308/308/308 229/229/229 232/232/232
f 232/232/232 307/307/307 308/308/308
f 325/325/325 326/326/326 327/327/327
f 327/327/327 328/328/328 325/325/325
f 329/329/329 330/330/330 325/325/325
f 325/325/325 328/328/328 329/329/329
f 331/331/331 332/332/332 333/333/333
f 333/333/333 334/334/334 331/331/331
f 335/335/335 336/336/336 332/332/332
f 332/332/332 331/331/331 335/335/335
f 337/337/337 338/338/338 339/339/339
f 339/339/339 340/340/340 337/337/337
f 341/341/341 342/342/342 343/343/343
f 343/343/343 344/344/344 341/341/341
f 345/345/345 346/346/346 347/347/347
f 347/347/347 348/348/348 345/345/345
f 349/349/349 347/347/347 346/346/346
f 346/346/346 350/350/350 349/349/349
f 351/351/351 352/352/352 353/353/353
f 353/353/353 354/354/354 351/351/351
f 355/355/355 356/356/356 357/357/357
f 357/357/357 358/358/358 355/355/355
f 357/357/357 359/359/359 360/360/360
f 360/360/360 358/358/358 357/357/357
f 361/361/361 362/362/362 363/363/363
f 363/363/363 364/364/364 361/361/361
f 365/365/365 366/366/366 367/367/367
f 367/367/367 368/368/368 365/365/365
f 369/369/369 370/370/370 371/371/371
f 371/371/371 372/372/372 369/369/369
f 372/372/372 371/371/371 373/373/373
f 373/373/373 374/374/374 372/372/372
f 374/374/374 373/373/373 352/352/352
f 352/352/352 351/351/351 374/374/374
f 305/305/305 375/375/375 376/376/376
f 376/376/376 303/303/303 305/305/305
f 303/303/303 376/376/376 377/377/377
f 377/377/377 304/304/304 303/303/303
f 302/302/302 378/378/378 379/379/379
f 379/379/379 300/300/300 302/302/302
f 300/300/300 379/379/379 380/380/380
f 380/380/380 301/301/301 300/300/300
f 298/298/298 381/381/381 382/382/382
f 382/382/382 299/299/299 298/298/298
f 383/383/383 296/296/296 297/297/297
f 297/297/297 384/384/384 383/383/383
f 385/385/385 386/386/386 295/295/295
f 295/295/295 294/294/294 385/385/385
f 386/386/386 387/387/387 306/306/306
f 306/306/306 295/295/295 386/386/386
f 376/376/376 375/375/375 326/326/326
f 326/326/326 325/325/325 376/376/376
f 325/325/325 330/330/330 377/377/377
f 377/377/377 376/376/376 325/325/325
f 378/378/378 333/333/333 332/332/332
f 332/332/332 379/379/379 378/378/378
f 379/379/379 332/332/332 336/336/336
f 336/336/336 380/380/380 379/379/379
f 381/381/381 337/337/337 340/340/340
f 340/340/340 382/382/382 381/381/381
f 383/383/383 384/384/384 344/344/344
f 344/344/344 343/343/343 383/383/383
f 347/347/347 386/386/386 385/385/385
f 385/385/385 348/348/348 347/347/347
f 386/386/386 347/347/347 349/349/349
f 349/349/349 387/387/387 386/386/386
f 388/388/388 389/389/389 390/390/390
f 390/390/390 391/391/391 388/388/388
f 392/392/392 393/393/393 389/389/389
f 389/389/389 388/388/388 392/392/392
f 394/394/394 395/395/395 396/396/396
f 396/396/396 397/397/397 394/394/394
f 398/398/398 399/399/399 395/395/395
f 395/395/395 394/394/394 398/398/398
f 400/400/400 401/401/401 402/402/402
f 402/402/402 403/403/403 400/400/400
f 404/404/404 405/405/405 406/406/406
f 406/406/406 407/407/407 404/404/404
f 408/408/408 409/409/409 410/410/410
f 410/410/410 411/411/411 408/408/408
f 412/412/412 408/408/408 411/411/411
f 411/411/411 413/413/413 412/412/412
f 387/387/387 414/414/414 312/312/312
f 312/312/312 306/306/306 387/387/387
f 415/415/415 414/414/414 387/387/387
f 387/387/387 349/349/349 415/415/415
f 415/415/415 349/349/349 350/350/350
f 350/350/350 416/416/416 415/415/415
f 417/417/417 412/412/412 413/413/413
f 413/413/413 418/418/418 417/417/417
f 419/419/419 356/356/356 355/355/355
f 355/355/355 420/420/420 419/419/419
f 359/359/359 361/361/361 364/364/364
f 364/364/364 360/360/360 359/359/359
f 409/409/409 421/421/421 422/422/422
f 422/422/422 410/410/410 409/409/409
f 423/423/423 345/345/345 348/348/348
f 348/348/348 424/424/424 423/423/423
f 385/385/385 425/425/425 424/424/424
f 424/424/424 348/348/348 385/385/385
f 425/425/425 385/385/385 294/294/294
f 294/294/294 314/314/314 425/425/425
f 362/362/362 426/426/426 427/427/427
f 427/427/427 363/363/363 362/362/362
f 405/405/405 428/428/428 429/429/429
f 429/429/429 406/406/406 405/405/405
f 430/430/430 341/341/341 344/344/344
f 344/344/344 431/431/431 430/430/430
f 384/384/384 432/432/432 431/431/431
f 431/431/431 344/344/344 384/384/384
f 432/432/432 384/384/384 297/297/297
f 297/297/297 320/320/320 432/432/432
f 299/299/299 382/382/382 432/432/432
f 432/432/432 320/320/320 299/299/299
f 382/382/382 340/340/340 431/431/431
f 431/431/431 432/432/432 382/382/382
f 340/340/340 339/339/339 430/430/430
f 430/430/430 431/431/431 340/340/340
f 428/428/428 403/403/403 402/402/402
f 402/402/402 429/429/429 428/428/428
f 426/426/426 365/365/365 368/368/368
f 368/368/368 427/427/427 426/426/426
f 298/298/298 301/301/301 380/380/380
f 380/380/380 381/381/381 298/298/298
f 337/337/337 381/381/381 380/380/380
f 380/380/380 336/336/336 337/337/337
f 338/338/338 337/337/337 336/336/336
f 336/336/336 335/335/335 338/338/338
f 353/353/353 419/419/419 420/420/420
f 420/420/420 354/354/354 353/353/353
f 417/417/417 418/418/418 391/391/391
f 391/391/391 390/390/390 417/417/417
f 326/326/326 415/415/415 416/416/416
f 416/416/416 327/327/327 326/326/326
f 375/375/375 414/414/414 415/415/415
f 415/415/415 326/326/326 375/375/375
f 312/312/312 414/414/414 375/375/375
f 375/375/375 305/305/305 312/312/312
f 367/367/367 366/366/366 370/370/370
f 370/370/370 369/369/369 367/367/367
f 401/401/401 400/400/400 399/399/399
f 399/399/399 398/398/398 401/401/401
f 354/354/354 433/433/433 351/351/351
f 358/358/358 433/433/433 355/355/355
f 360/360/360 433/433/433 358/358/358
f 363/363/363 433/433/433 364/364/364
f 368/368/368 367/367/367 433/433/433
f 372/372/372 433/433/433 369/369/369
f 374/374/374 433/433/433 372/372/372
f 351/351/351 433/433/433 374/374/374
f 355/355/355 433/433/433 420/420/420
f 364/364/364 433/433/433 360/360/360
f 427/427/427 433/433/433 363/363/363
f 368/368/368 433/433/433 427/427/427
f 420/420/420 433/433/433 354/354/354
f 433/433/433 367/367/367 369/369/369
f 434/434/434 398/398/398 394/394/394
f 394/394/394 435/435/435 434/434/434
f 435/435/435 394/394/394 397/397/397
f 397/397/397 436/436/436 435/435/435
f 437/437/437 392/392/392 388/388/388
f 388/388/388 438/438/438 437/437/437
f 438/438/438 388/388/388 391/391/391
f 391/391/391 439/439/439 438/438/438
f 418/418/418 440/440/440 439/439/439
f 439/439/439 391/391/391 418/418/418
f 418/418/418 413/413/413 441/441/441
f 441/441/441 440/440/440 418/418/418
f 413/413/413 411/411/411 442/442/442
f 442/442/442 441/441/441 413/413/413
f 411/411/411 410/410/410 443/443/443
f 443/443/443 442/442/442 411/411/411
f 444/444/444 443/443/443 410/410/410
f 410/410/410 422/422/422 444/444/444
f 407/407/407 406/406/406 445/445/445
f 445/445/445 446/446/446 407/407/407
f 447/447/447 445/445/445 406/406/406
f 406/406/406 429/429/429 447/447/447
f 429/429/429 402/402/402 448/448/448
f 448/448/448 447/447/447 429/429/429
f 288/288/288 287/287/287 265/265/265
f 265/265/265 264/264/264 288/288/288
f 317/317/317 315/315/315 288/288/288
f 288/288/288 264/264/264 317/317/317
f 262/262/262 285/285/285 284/284/284
f 284/284/284 263/263/263 262/262/262
f 323/323/323 321/321/321 285/285/285
f 285/285/285 262/262/262 323/323/323
f 321/321/321 323/323/323 261/261/261
f 261/261/261 282/282/282 321/321/321
f 260/260/260 279/279/279 282/282/282
f 282/282/282 261/261/261 260/260/260
f 279/279/279 260/260/260 259/259/259
f 259/259/259 278/278/278 279/279/279
f 258/258/258 273/273/273 278/278/278
f 278/278/278 259/259/259 258/258/258
f 274/274/274 273/273/273 258/258/258
f 258/258/258 257/257/257 274/274/274
f 267/267/267 271/271/271 256/256/256
f 256/256/256 255/255/255 267/267/267
f 268/268/268 267/267/267 255/255/255
f 255/255/255 293/293/293 268/268/268
f 311/311/311 268/268/268 293/293/293
f 293/293/293 309/309/309 311/311/311
f 292/292/292 311/311/311 309/309/309
f 309/309/309 266/266/266 292/292/292
f 287/287/287 292/292/292 266/266/266
f 266/266/266 265/265/265 287/287/287
f 327/327/327 390/390/390 389/389/389
f 389/389/389 328/328/328 327/327/327
f 416/416/416 417/417/417 390/390/390
f 390/390/390 327/327/327 416/416/416
f 412/412/412 417/417/417 416/416/416
f 416/416/416 350/350/350 412/412/412
f 408/408/408 412/412/412 350/350/350
f 350/350/350 346/346/346 408/408/408
f 409/409/409 408/408/408 346/346/346
f 346/346/346 345/345/345 409/409/409
f 409/409/409 345/345/345 423/423/423
f 423/423/423 421/421/421 409/409/409
f 405/405/405 404/404/404 342/342/342
f 342/342/342 341/341/341 405/405/405
f 405/405/405 341/341/341 430/430/430
f 430/430/430 428/428/428 405/405/405
f 339/339/339 403/403/403 428/428/428
f 428/428/428 430/430/430 339/339/339
f 338/338/338 400/400/400 403/403/403
f 403/403/403 339/339/339 338/338/338
f 400/400/400 338/338/338 335/335/335
f 335/335/335 399/399/399 400/400/400
f 399/399/399 335/335/335 331/331/331
f 331/331/331 395/395/395 399/399/399
f 395/395/395 331/331/331 334/334/334
f 334/334/334 396/396/396 395/395/395
f 393/393/393 329/329/329 328/328/328
f 328/328/328 389/389/389 393/393/393
f 398/398/398 434/434/434 449/449/449
f 449/449/449 401/401/401 398/398/398
f 449/449/449 448/448/448 402/402/402
f 402/402/402 401/401/401 449/449/449