mtllib 39973101.mtl
o Mesh

v -0.14451800286769867 -0.9615050554275513 -0.3831560015678406
v -0.04235000163316727 -0.9476619958877563 -0.500353991985321
v -0.03976399824023247 -1.0232880115509033 -0.49061301350593567
v -0.14058199524879456 -1.0191080570220947 -0.3708899915218353
v -0.211884006857872 1.008236050605774 0.23583100736141205
v -0.0583919994533062 1.2056939601898193 0.24066700041294098
v -0.0583919994533062 1.1959270238876343 -0.03903599828481674
v -0.2584199905395508 0.9978539943695068 -0.061441998928785324
v -0.09176799654960632 -0.9957770109176636 0.29719701409339905
v 0.006634999997913837 -0.9907970428466797 0.4398210048675537
v 0.01795000024139881 -0.9172879457473755 0.42307600378990173
v -0.07540299743413925 -0.9235719442367554 0.28574201464653015
v 0.011868000030517578 -0.9992150068283081 0.19877199828624725
v 0.006634999997913837 -0.9907970428466797 0.4398210048675537
v -0.09176799654960632 -0.9957770109176636 0.29719701409339905
v -0.10373000055551529 -1.0018529891967773 0.1232220008969307
v -0.0868000015616417 -0.9292960166931152 0.12183400243520737
v -0.10373000055551529 -1.0018529891967773 0.1232220008969307
v 0.37116798758506775 -0.9235730171203613 0.28574201464653015
v 0.3873699903488159 -0.99577796459198 0.29719701409339905
v 0.402646005153656 -1.0018529891967773 0.1232220008969307
v 0.3858279883861542 -0.9292960166931152 0.12183400243520737
v 0.04706199839711189 -0.5514669418334961 -0.053346000611782074
v -0.03302700072526932 -0.6385229825973511 0.04329400137066841
v -0.10400599986314774 -0.38821494579315186 0.007908999919891357
v 0.002867999952286482 -0.356753945350647 -0.09299399703741074
v 0.3532339930534363 -0.3808009624481201 0.2238990068435669
v 0.31764599680900574 -0.6295449733734131 0.22141699492931366
v 0.33059900999069214 -0.6366909742355347 0.12596000730991364
v 0.365105003118515 -0.3832240104675293 0.1051269993185997
v 0.04706199839711189 -0.6011430025100708 0.34952399134635925
v 0.002867999952286482 -0.34808897972106934 0.3695339858531952
v -0.09672199934720993 -0.38547003269195557 0.2240619957447052
v -0.02007400058209896 -0.6295449733734131 0.22141699492931366
v -0.03302700072526932 -0.6366909742355347 0.12595899403095245
v -0.11348500102758408 -0.38789403438568115 0.1052900031208992
v -0.04874200001358986 1.1897339820861816 -0.216389000415802
v -0.06751099973917007 0.9811760187149048 -0.39636000990867615
v -0.211884006857872 0.9911410212516785 -0.2536889910697937
v 0.4528389871120453 0.703294038772583 -0.09155000001192093
v 0.42471298575401306 0.7148380279541016 0.16405799984931946
v 0.39270099997520447 0.4510459899902344 0.09200000017881393
v 0.4189850091934204 0.4445359706878662 -0.09443599730730057
v -0.0675479993224144 1.0156739950180054 0.3588719964027405
v -0.2524639964103699 0.703294038772583 -0.09155000001192093
v -0.217289000749588 0.4445359706878662 -0.09443599730730057
v -0.17745399475097656 0.45104700326919556 0.09200000017881393
v -0.20983700454235077 0.7148380279541016 0.16405799984931946
v -0.14551299810409546 0.23274797201156616 -0.22137099504470825
v -0.04250200092792511 0.25578898191452026 -0.3964749872684479
v -0.05844699963927269 0.1559010148048401 -0.39562299847602844
v -0.17073599994182587 0.13563299179077148 -0.1960580050945282
v 0.4765799939632416 0.1317809820175171 -0.01685599982738495
v 0.42820799350738525 0.2324889898300171 -0.05570099875330925
v 0.41318199038505554 0.23336297273635864 0.12152499705553055
v 0.4652140140533447 0.12940901517868042 0.1698800027370453
v -0.028578000143170357 0.237371027469635 0.283255010843277
v -0.14551299810409546 0.23336297273635864 0.12152499705553055
v -0.17073599994182587 0.1294100284576416 0.1698800027370453
v -0.03514900058507919 0.13255298137664795 0.3497309982776642
v -0.1739960014820099 0.23249000310897827 -0.05570099875330925
v -0.19751499593257904 0.1317809820175171 -0.01685599982738495
v -0.022991999983787537 -1.0151300430297852 -0.25696900486946106
v 0.011869000270962715 -1.006756067276001 -0.017184000462293625
v -0.1034960001707077 -1.0077629089355469 -0.04602799937129021
v -0.1384039968252182 -1.0135090351104736 -0.21056599915027618
v -0.1279670000076294 -0.9462319612503052 -0.21161800622940063
v -0.1384039968252182 -1.0135090351104736 -0.21056599915027618
v -0.1034960001707077 -1.0077629089355469 -0.04602799937129021
v -0.08121100068092346 -0.918550968170166 -0.017541000619530678
v -0.11772499978542328 -0.8793209791183472 -0.18732300400733948
v -0.05934099853038788 -0.8309979438781738 0.0104160001501441
v 0.029055999591946602 -0.7444560527801514 -0.0841049998998642
v -0.01600099913775921 -0.845749020576477 -0.3115859925746918
v 0.4259929955005646 -0.9462319612503052 -0.21161800622940063
v 0.38169199228286743 -0.918550968170166 -0.017541000619530678
v 0.3983359932899475 -1.0077629089355469 -0.04602799937129021
v 0.43336400389671326 -1.0135090351104736 -0.21056599915027618
v 0.3585740029811859 0.1559010148048401 -0.39562299847602844
v 0.31876999139785767 0.25600701570510864 -0.3964880108833313
v 0.4152489900588989 0.23274797201156616 -0.22137099504470825
v 0.4652140140533447 0.13563299179077148 -0.1960570067167282
v 0.2538450062274933 -0.5514669418334961 -0.053346000611782074
v 0.266526997089386 -0.3536410331726074 -0.09310200065374374
v 0.3605189919471741 -0.38354599475860596 0.007745999842882156
v 0.33059900999069214 -0.6385229825973511 0.04329400137066841
v 0.41875898838043213 -0.8793209791183472 -0.18732300400733948
v 0.3164770007133484 -0.8457499742507935 -0.3115859925746918
v 0.2705540060997009 -0.7444560527801514 -0.08410400152206421
v 0.36535799503326416 -0.8309979438781738 0.0104160001501441
v 0.43942299485206604 -0.9615050554275513 -0.3831560015678406
v 0.4356459975242615 -1.0191080570220947 -0.3708899915218353
v 0.3406270146369934 -1.0232889652252197 -0.49061301350593567
v 0.34313300251960754 -0.9476619958877563 -0.500353991985321
v 0.323731005191803 -1.0151300430297852 -0.25696900486946106
v 0.43336400389671326 -1.0135090351104736 -0.21056599915027618
v 0.3983359932899475 -1.0077629089355469 -0.04602799937129021
v 0.2880670130252838 -1.006756067276001 -0.017184000462293625
v 0.28806599974632263 -0.9992150068283081 0.19877199828624725
v 0.402646005153656 -1.0018529891967773 0.1232220008969307
v 0.3873699903488159 -0.99577796459198 0.29719701409339905
v 0.29333800077438354 -0.9907970428466797 0.4398210048675537
v 0.2818390130996704 -0.9172879457473755 0.42307600378990173
v 0.29333800077438354 -0.9907970428466797 0.4398210048675537
v 0.2538439929485321 -0.6011430025100708 0.34952399134635925
v 0.266526997089386 -0.34497594833374023 0.3694249987602234
v 0.3006590008735657 0.23637902736663818 0.2832129895687103
v 0.33527499437332153 0.13255298137664795 0.34973201155662537
v 0.46243399381637573 1.008234977722168 0.23583100736141205
v 0.33334699273109436 1.2056939601898193 0.24066700041294098
v 0.3240070044994354 1.0023850202560425 0.35827499628067017
v 0.49313899874687195 0.9978539943695068 -0.061441998928785324
v 0.33334699273109436 1.1959270238876343 -0.03903599828481674
v 0.46243399381637573 0.9911410212516785 -0.2536880075931549
v 0.32404398918151855 0.9841020107269287 -0.39652299880981445
v 0.32256200909614563 1.1897339820861816 -0.21638800203800201
v 0.07687900215387344 0.278065025806427 -0.43147900700569153
v 0.07533500343561172 0.16408097743988037 -0.4371449947357178
v 0.11725600063800812 -0.5277639627456665 -0.07434900104999542
v 0.09634900093078613 -0.34438204765319824 -0.11405199766159058
v 0.10653000324964523 -0.739171028137207 -0.11446599662303925
v 0.09065999835729599 -0.8394429683685303 -0.34325098991394043
v 0.08131500333547592 -0.9467270374298096 -0.5957620143890381
v 0.08226799964904785 -1.0266470909118652 -0.5867769718170166
v 0.08823899924755096 -1.0157389640808105 -0.2744100093841553
v 0.1004749983549118 -1.006756067276001 -0.017184000462293625
v 0.10047399997711182 -0.9983099699020386 0.2246759980916977
v 0.09861099720001221 -0.9887169599533081 0.4993939995765686
v 0.006634999997913837 -0.9907970428466797 0.4398210048675537
v 0.09861099720001221 -0.9887169599533081 0.4993939995765686
v 0.10260699689388275 -0.91526198387146 0.4810810089111328
v 0.01795000024139881 -0.9172879457473755 0.42307600378990173
v 0.04706199839711189 -0.6011430025100708 0.34952399134635925
v 0.11725500226020813 -0.5998870134353638 0.3854939937591553
v 0.09634900093078613 -0.34689903259277344 0.4036349952220917
v 0.002867999952286482 -0.34808897972106934 0.3695339858531952
v 0.07773300260305405 0.2379469871520996 0.3088870048522949
v -0.028578000143170357 0.237371027469635 0.283255010843277
v -0.03514900058507919 0.13255298137664795 0.3497309982776642
v 0.08368600159883499 0.13361698389053345 0.38019099831581116
v 0.05806500092148781 1.0128140449523926 0.3990190029144287
v 0.06728000193834305 1.2056939601898193 0.24066700041294098
v 0.06728000193834305 1.195222020149231 -0.059230998158454895
v 0.0703750029206276 1.1884310245513916 -0.2537040114402771
v 0.05810200050473213 0.9808109998703003 -0.4337269961833954
v -0.04736899957060814 0.030553996562957764 -0.3674919903278351
v -0.1667409986257553 0.025408029556274414 -0.1954299956560135
v -0.1916169971227646 0.025981009006500244 -0.019318999722599983
v -0.1667409986257553 0.027823984622955322 0.1739560067653656
v -0.03507300093770027 0.032725989818573 0.3638800084590912
v -0.03507300093770027 0.032725989818573 0.3638800084590912
v 0.08032800257205963 0.03395897150039673 0.3991760015487671
v 0.45083001255989075 0.027823984622955322 0.1739570051431656
v 0.32464599609375 0.032725989818573 0.3638800084590912
v 0.46202701330184937 0.025979995727539062 -0.019318999722599983
v 0.45083001255989075 0.025408029556274414 -0.1954299956560135
v 0.33694300055503845 0.030553996562957764 -0.3674919903278351
v 0.0759200006723404 0.029303014278411865 -0.403315007686615
v 0.3028540015220642 0.6904829740524292 -0.4226039946079254
v 0.42471298575401306 0.6969630122184753 -0.2728460133075714
v 0.3993009924888611 0.43877899646759033 -0.25929000973701477
v 0.2947719991207123 0.4329730272293091 -0.41152000427246094
v -0.06285099685192108 0.4322739839553833 -0.4114820063114166
v -0.08269800245761871 0.6886849999427795 -0.4225040078163147
v 0.04944000020623207 0.6881389617919922 -0.45475998520851135
v 0.0629969984292984 0.4316149950027466 -0.4369400143623352
v -0.17745399475097656 0.43877899646759033 -0.25929000973701477
v -0.20983700454235077 0.6969630122184753 -0.2728469967842102
v -0.06285800039768219 0.45706701278686523 0.24291999638080597
v -0.08271700143814087 0.7217980027198792 0.3077850043773651
v 0.04978799819946289 0.4567430019378662 0.26286599040031433
v 0.04941999912261963 0.7202420234680176 0.3382990062236786
v -0.08271700143814087 0.7217980027198792 0.3077850043773651
v -0.06285800039768219 0.45706701278686523 0.24291999638080597
v 0.2814129889011383 0.4539009928703308 0.24278900027275085
v 0.30283400416374207 0.7136399745941162 0.30742400884628296
v 0.19983099400997162 -0.8394429683685303 -0.34325098991394043
v 0.18582700192928314 -0.739171028137207 -0.11446599662303925
v 0.20717200636863708 -1.0266470909118652 -0.5867769718170166
v 0.20789100229740143 -0.9467270374298096 -0.5957620143890381
v 0.20208799839019775 -1.0157389640808105 -0.2744100093841553
v 0.1911659985780716 -1.006756067276001 -0.017184000462293625
v 0.1911650002002716 -0.9983099699020386 0.2246759980916977
v 0.19275200366973877 -0.9887169599533081 0.4993939995765686
v 0.29333800077438354 -0.9907970428466797 0.4398210048675537
v 0.2818390130996704 -0.9172879457473755 0.42307600378990173
v 0.18925699591636658 -0.91526198387146 0.4810810089111328
v 0.19275200366973877 -0.9887169599533081 0.4993939995765686
v 0.2538439929485321 -0.6011430025100708 0.34952399134635925
v 0.266526997089386 -0.34497594833374023 0.3694249987602234
v 0.18659600615501404 -0.34689903259277344 0.4036349952220917
v 0.17708000540733337 -0.5998870134353638 0.3854939937591553
v 0.32464599609375 0.032725989818573 0.3638800084590912
v 0.33527499437332153 0.13255298137664795 0.34973201155662537
v 0.20531600713729858 0.13361698389053345 0.38019099831581116
v 0.1984429955482483 0.03395897150039673 0.39917701482772827
v 0.3006590008735657 0.23637902736663818 0.2832129895687103
v 0.19295400381088257 0.23761999607086182 0.3088740110397339
v 0.18554799258708954 0.45570099353790283 0.26282399892807007
v 0.2814129889011383 0.4539009928703308 0.24278900027275085
v 0.30283400416374207 0.7136399745941162 0.30742400884628296
v 0.18151800334453583 0.7175660133361816 0.3381800055503845
v 0.1959100067615509 1.2056939601898193 0.24066700041294098
v 0.18663500249385834 1.0084539651870728 0.39882200956344604
v 0.1959100067615509 1.195222020149231 -0.059230998158454895
v 0.19229499995708466 1.1884299516677856 -0.2537040114402771
v 0.18667100369930267 0.9817699790000916 -0.4337800145149231
v 0.17675499618053436 0.43184399604797363 -0.43695300817489624
v 0.18153800070285797 0.6887279748916626 -0.45479199290275574
v 0.21226699650287628 0.16408097743988037 -0.4371449947357178
v 0.19435499608516693 0.2781370282173157 -0.4314819872379303
v 0.20211200416088104 0.029303014278411865 -0.403315007686615
v 0.18509399890899658 -0.5277639627456665 -0.07434900104999542
v 0.191102996468544 -0.34438204765319824 -0.11405199766159058
v -0.211884006857872 0.9911410212516785 -0.2536889910697937
v -0.06751099973917007 0.9811760187149048 -0.39636000990867615
v 0.05810200050473213 0.9808109998703003 -0.4337269961833954
v 0.18667100369930267 0.9817699790000916 -0.4337800145149231
v 0.32404398918151855 0.9841020107269287 -0.39652299880981445
v 0.46243399381637573 0.9911410212516785 -0.2536880075931549
v 0.49313899874687195 0.9978539943695068 -0.061441998928785324
v 0.46243399381637573 1.008234977722168 0.23583100736141205
v 0.3240070044994354 1.0023850202560425 0.35827499628067017
v 0.3240070044994354 1.0023850202560425 0.35827499628067017
v 0.18663500249385834 1.0084539651870728 0.39882200956344604
v 0.05806500092148781 1.0128140449523926 0.3990190029144287
v -0.0675479993224144 1.0156739950180054 0.3588719964027405
v -0.0675479993224144 1.0156739950180054 0.3588719964027405
v -0.211884006857872 1.008236050605774 0.23583100736141205
v -0.2584199905395508 0.9978539943695068 -0.061441998928785324
v -0.059342000633478165 -0.8527100086212158 0.2745009958744049
v 0.029054999351501465 -0.8451459407806396 0.40664300322532654
v 0.029054999351501465 -0.8451459407806396 0.40664300322532654
v 0.10652899742126465 -0.8431739807128906 0.4631099998950958
v 0.18582600355148315 -0.8431739807128906 0.4631099998950958
v 0.27055299282073975 -0.8451459407806396 0.40664300322532654
v 0.3552680015563965 -0.8527100086212158 0.2745009958744049
v 0.27055299282073975 -0.8451459407806396 0.40664300322532654
v 0.3693229854106903 -0.8580880165100098 0.1204719990491867
v -0.07018399983644485 -0.8580880165100098 0.1204719990491867
v -0.03302700072526932 -0.6385229825973511 0.04329400137066841
v -0.10400599986314774 -0.38821494579315186 0.007908999919891357
v -0.05934099853038788 -0.8309979438781738 0.0104160001501441
v 0.36535799503326416 -0.8309979438781738 0.0104160001501441
v 0.33059900999069214 -0.6385229825973511 0.04329400137066841
v 0.3605189919471741 -0.38354599475860596 0.007745999842882156
v 0.4652140140533447 0.13563299179077148 -0.1960570067167282
v 0.45083001255989075 0.025408029556274414 -0.1954299956560135
v 0.4152489900588989 0.23274797201156616 -0.22137099504470825
v 0.42471298575401306 0.6969630122184753 -0.2728460133075714
v 0.3993009924888611 0.43877899646759033 -0.25929000973701477
v 0.46243399381637573 0.9911410212516785 -0.2536880075931549
v -0.211884006857872 0.9911410212516785 -0.2536889910697937
v -0.20983700454235077 0.6969630122184753 -0.2728469967842102
v -0.17745399475097656 0.43877899646759033 -0.25929000973701477
v -0.17073599994182587 0.13563299179077148 -0.1960580050945282
v -0.14551299810409546 0.23274797201156616 -0.22137099504470825
v -0.1667409986257553 0.025408029556274414 -0.1954299956560135
v 0.44492799043655396 0.00010800361633300781 -0.17215199768543243
v 0.4428429901599884 -0.20797395706176758 -0.047380998730659485
v 0.3223240077495575 -0.18303298950195312 -0.1847350001335144
v 0.32548999786376953 -9.500980377197266e-05 -0.3169640004634857
v 0.4428429901599884 -0.20797395706176758 -0.047380998730659485
v 0.44492799043655396 0.00010800361633300781 -0.17215199768543243
v 0.4561370015144348 0.003443002700805664 -0.007116000168025494
v 0.45087599754333496 -0.20398199558258057 0.07690100371837616
v 0.44492799043655396 0.00786900520324707 0.18073900043964386
v 0.43752801418304443 -0.19692003726959229 0.2432280033826828
v 0.3197210133075714 0.013647973537445068 0.36780300736427307
v 0.3223240077495575 -0.15484797954559326 0.41286900639533997
v 0.19449399411678314 0.014932990074157715 0.4045799970626831
v 0.20178599655628204 -0.1535719633102417 0.449411004781723
v 0.3223240077495575 -0.15484797954559326 0.41286900639533997
v 0.3197210133075714 0.013647973537445068 0.36780300736427307
v 0.07729300111532211 0.014932990074157715 0.4045799970626831
v 0.07809799909591675 -0.1535719633102417 0.449411004781723
v -0.0372139997780323 0.01364898681640625 0.36780300736427307
v -0.045295000076293945 -0.15484797954559326 0.41286900639533997
v -0.0372139997780323 0.01364898681640625 0.36780300736427307
v -0.16786399483680725 0.007870018482208252 0.18073900043964386
v -0.16573700308799744 -0.19691896438598633 0.2432280033826828
v -0.045295000076293945 -0.15484797954559326 0.41286900639533997
v -0.19184499979019165 0.0034440159797668457 -0.007116000168025494
v -0.1876550018787384 -0.20398104190826416 0.07690100371837616
v -0.16786399483680725 0.00010800361633300781 -0.17215199768543243
v -0.1710519939661026 -0.20797395706176758 -0.047380998730659485
v -0.16786399483680725 0.00010800361633300781 -0.17215199768543243
v -0.04298299923539162 -9.500980377197266e-05 -0.3169640004634857
v -0.045295000076293945 -0.18303298950195312 -0.1847350001335144
v -0.1710519939661026 -0.20797395706176758 -0.047380998730659485
v 0.07522500306367874 -0.0011550188064575195 -0.3473230004310608
v 0.07809799909591675 -0.17580795288085938 -0.20794199407100677
v -0.14058199524879456 -1.0191080570220947 -0.3708899915218353
v -0.14451800286769867 -0.9615050554275513 -0.3831560015678406
v -0.14058199524879456 -1.0191080570220947 -0.3708899915218353
v -0.03976399824023247 -1.0232880115509033 -0.49061301350593567
v 0.08226799964904785 -1.0266470909118652 -0.5867769718170166
v 0.20717200636863708 -1.0266470909118652 -0.5867769718170166
v 0.3406270146369934 -1.0232889652252197 -0.49061301350593567
v 0.4356459975242615 -1.0191080570220947 -0.3708899915218353
v 0.4356459975242615 -1.0191080570220947 -0.3708899915218353
v 0.43942299485206604 -0.9615050554275513 -0.3831560015678406
v 0.4431290030479431 -0.9032039642333984 -0.3445360064506531
v 0.3455919921398163 -0.8716729879379272 -0.45925599336624146
v 0.20859600603580475 -0.8665250539779663 -0.5539199709892273
v 0.08038000017404556 -0.8665250539779663 -0.5539209842681885
v -0.044888999313116074 -0.8716729879379272 -0.45925599336624146
v -0.14838099479675293 -0.903203010559082 -0.3445360064506531
v -0.14079900085926056 0.008831977844238281 0.163564994931221
v -0.16290999948978424 0.0056729912757873535 -0.008313000202178955
v -0.021449999883770943 0.013778984546661377 0.3339889943599701
v 0.08315300196409225 0.014928996562957764 0.3669080138206482
v -0.021449999883770943 0.013778984546661377 0.3339889943599701
v 0.1902170032262802 0.014928996562957764 0.3669080138206482
v 0.30461201071739197 0.013778984546661377 0.3339889943599701
v 0.41898998618125916 0.008831977844238281 0.163564994931221
v 0.30461201071739197 0.013778984546661377 0.3339889943599701
v 0.42920100688934326 0.0056729912757873535 -0.008311999961733818
v 0.41898998618125916 0.0035709738731384277 -0.16112400591373444
v 0.41898998618125916 0.0035709738731384277 -0.16112400591373444
v 0.31174200773239136 0.005181014537811279 -0.30024299025535583
v 0.19621500372886658 -0.0011550188064575195 -0.3473230004310608
v 0.19234399497509003 0.004164993762969971 -0.3293350040912628
v 0.08059699833393097 0.004164993762969971 -0.3293350040912628
v -0.02858000062406063 0.005181014537811279 -0.30024299025535583
v -0.14079900085926056 0.0035709738731384277 -0.16112400591373444
v -0.14079900085926056 0.0035709738731384277 -0.16112400591373444
v 0.2050749957561493 -0.17580795288085938 -0.20794199407100677
v 0.4431290030479431 -0.9032039642333984 -0.3445360064506531
v 0.41875898838043213 -0.8793209791183472 -0.18732300400733948
v -0.11772499978542328 -0.8793209791183472 -0.18732300400733948
v -0.14838099479675293 -0.903203010559082 -0.3445360064506531

vn -0.9286569952964783 0.027744999155402184 -0.36990100145339966
vn -0.6760050058364868 0.12565000355243683 -0.7261049747467041
vn -0.4778909981250763 -0.7374950051307678 -0.47720101475715637
vn -0.7152140140533447 -0.6761199831962585 -0.17700199782848358
vn -0.8606039881706238 0.25924500823020935 0.4383530020713806
vn -0.3770729899406433 0.8312479853630066 0.4084640145301819
vn -0.39985400438308716 0.9162629842758179 -0.0240509994328022
vn -0.936939001083374 0.3480899930000305 -0.03127399832010269
vn -0.7827290296554565 -0.547730028629303 0.29551300406455994
vn -0.572048008441925 -0.5561550259590149 0.6028710007667542
vn -0.6913700103759766 0.2576340138912201 0.6750050187110901
vn -0.9176869988441467 0.2547059953212738 0.3049190044403076
vn -0.0 -0.9993910193443298 0.0348999984562397
vn -0.572048008441925 -0.5561550259590149 0.6028710007667542
vn -0.7827290296554565 -0.547730028629303 0.29551300406455994
vn -0.7905049920082092 -0.6108329892158508 0.044562000781297684
vn -0.9730740189552307 0.22986699640750885 0.016976000741124153
vn -0.7905049920082092 -0.6108329892158508 0.044562000781297684
vn 0.9182260036468506 0.2527419924736023 0.30493101477622986
vn 0.7801679968833923 -0.5522869825363159 0.29379600286483765
vn 0.7908899784088135 -0.6098160147666931 0.051166001707315445
vn 0.974153995513916 0.22268599271774292 0.03787799924612045
vn -0.5073450207710266 -0.06722500175237656 -0.8591169714927673
vn -0.9442459940910339 -0.030069999396800995 -0.32786500453948975
vn -0.8215129971504211 -0.3696320056915283 -0.4341520071029663
vn -0.39332398772239685 -0.38987600803375244 -0.8326420187950134
vn 0.9060860276222229 -0.2693040072917938 0.32631799578666687
vn 0.9602259993553162 0.04414999857544899 0.2757120132446289
vn 0.9975379705429077 0.020945999771356583 0.06693100184202194
vn 0.9588289856910706 -0.2822279930114746 0.03154199942946434
vn -0.6812130212783813 0.02001900039613247 0.731810986995697
vn -0.5655879974365234 -0.2415730059146881 0.7885130047798157
vn -0.8803480267524719 -0.30571800470352173 0.3626619875431061
vn -0.954912006855011 -0.029221000149846077 0.2954469919204712
vn -0.9949870109558105 -0.07295499742031097 0.06839600205421448
vn -0.9426990151405334 -0.3321540057659149 0.03149599954485893
vn -0.37894999980926514 0.860069990158081 -0.34158098697662354
vn -0.46409299969673157 0.34988000988960266 -0.8137580156326294
vn -0.825219988822937 0.3279530107975006 -0.45984700322151184
vn 0.9908429980278015 -0.13379999995231628 -0.01811099983751774
vn 0.9011390209197998 -0.20313699543476105 0.3829919993877411
vn 0.9369140267372131 -0.03884100168943405 0.34739598631858826
vn 0.9994170069694519 -0.03375300019979477 0.005204000044614077
vn -0.4353030025959015 0.2136480063199997 0.8745660185813904
vn -0.996399998664856 -0.07866600155830383 -0.031599000096321106
vn -0.9868059754371643 -0.1613519936800003 -0.013361000455915928
vn -0.9121590256690979 -0.1497499942779541 0.3814980089664459
vn -0.8956130146980286 -0.1525139957666397 0.41787299513816833
vn -0.9328460097312927 -0.029918000102043152 -0.35903200507164
vn -0.5816619992256165 -0.02754499949514866 -0.8129640221595764
vn -0.6277269721031189 -0.06392499804496765 -0.7758039832115173
vn -0.9445739984512329 0.04580400139093399 -0.32508599758148193
vn 0.9873039722442627 0.15851500630378723 0.010197999887168407
vn 0.9660599827766418 0.258107990026474 0.010374000295996666
vn 0.886555016040802 0.34950700402259827 0.3030939996242523
vn 0.920540988445282 0.20423999428749084 0.3330020010471344
vn -0.5324059724807739 0.3067379891872406 0.7889590263366699
vn -0.9178400039672852 0.15071600675582886 0.3672249913215637
vn -0.9061740040779114 0.17184600234031677 0.3864159882068634
vn -0.5293279886245728 0.29687198996543884 0.7947819828987122
vn -0.9997259974479675 0.023233000189065933 -0.0027910000644624233
vn -0.995402991771698 0.09418799728155136 0.01737299934029579
vn -0.0 -0.9993910193443298 0.0348999984562397
vn -0.0 -0.9993910193443298 0.0348999984562397
vn -0.7442280054092407 -0.6566420197486877 0.12225399911403656
vn -0.7724850177764893 -0.626039981842041 0.10649099946022034
vn -0.9836040139198303 0.09434299916028976 0.15369899570941925
vn -0.7724850177764893 -0.626039981842041 0.10649099946022034
vn -0.7442280054092407 -0.6566420197486877 0.12225399911403656
vn -0.97365802526474 0.20119599997997284 0.10728999972343445
vn -0.8631550073623657 0.5019320249557495 0.05502700060606003
vn -0.9459879994392395 0.3169879913330078 -0.06801199913024902
vn -0.6271730065345764 0.5645279884338379 -0.5366209745407104
vn -0.2997260093688965 0.9318100214004517 -0.20468099415302277
vn 0.9880399703979492 0.05863400176167488 0.14261400699615479
vn 0.9835860133171082 0.1490519940853119 0.10169699788093567
vn 0.7240949869155884 -0.680666983127594 0.11125700175762177
vn 0.7584180235862732 -0.6430450081825256 0.10627800226211548
vn 0.6535969972610474 -0.0012679999927058816 -0.7568420171737671
vn 0.598783016204834 0.10210400074720383 -0.794376015663147
vn 0.9356330037117004 0.21139299869537354 -0.28267401456832886
vn 0.9568259716033936 0.12049099802970886 -0.26451200246810913
vn 0.5495949983596802 -0.028152000159025192 -0.8349570035934448
vn 0.4273259937763214 -0.3815329968929291 -0.8196499943733215
vn 0.8553320169448853 -0.3325980007648468 -0.39722201228141785
vn 0.9515079855918884 0.054552000015974045 -0.3027479946613312
vn 0.8753529787063599 0.4816429913043976 0.042155999690294266
vn 0.2985979914665222 0.9317790269851685 -0.2064650058746338
vn 0.6093609929084778 0.5747590065002441 -0.5461959838867188
vn 0.9492250084877014 0.30979299545288086 -0.05477200075984001
vn 0.9321600198745728 0.027235999703407288 -0.3610219955444336
vn 0.7138640284538269 -0.6788489818572998 -0.1719360053539276
vn 0.4801349937915802 -0.7303739786148071 -0.48582398891448975
vn 0.6677839756011963 0.1276489943265915 -0.7333279848098755
vn -0.0 -0.9993910193443298 0.0348999984562397
vn 0.7584180235862732 -0.6430450081825256 0.10627800226211548
vn 0.7240949869155884 -0.680666983127594 0.11125700175762177
vn -0.0 -0.9993910193443298 0.0348999984562397
vn -0.0 -0.9993910193443298 0.0348999984562397
vn 0.7908899784088135 -0.6098160147666931 0.051166001707315445
vn 0.7801679968833923 -0.5522869825363159 0.29379600286483765
vn 0.5698310136795044 -0.5489829778671265 0.6114820241928101
vn 0.68402498960495 0.2597010135650635 0.681663990020752
vn 0.5698310136795044 -0.5489829778671265 0.6114820241928101
vn 0.6948609948158264 0.060812998563051224 0.7165679931640625
vn 0.5998629927635193 -0.225040003657341 0.7678030133247375
vn 0.5172770023345947 0.4195359945297241 0.7459319829940796
vn 0.5505340099334717 0.30662500858306885 0.7764620184898376
vn 0.8900099992752075 0.1780489981174469 0.4197379946708679
vn 0.40998199582099915 0.8091560006141663 0.42092999815940857
vn 0.44457700848579407 0.15353700518608093 0.8824840188026428
vn 0.9672819972038269 0.2525950074195862 -0.02369699999690056
vn 0.44751599431037903 0.8937789797782898 -0.029810000211000443
vn 0.8725929856300354 0.24614399671554565 -0.42189300060272217
vn 0.4776790142059326 0.315856009721756 -0.8197910189628601
vn 0.41299399733543396 0.8441810011863708 -0.34175100922584534
vn -0.13732300698757172 -0.001062000053934753 -0.990526020526886
vn -0.14425300061702728 -0.09374699741601944 -0.9850900173187256
vn -0.12820999324321747 -0.03910600021481514 -0.9909759759902954
vn -0.08015900105237961 -0.36796000599861145 -0.9263799786567688
vn -0.16329500079154968 0.6467840075492859 -0.7449859976768494
vn -0.07092099636793137 0.9641270041465759 -0.25578999519348145
vn -0.303615003824234 0.16522400081157684 -0.9383599758148193
vn -0.24205300211906433 -0.6940199732780457 -0.6780459880828857
vn -0.0 -0.9993910193443298 0.0348999984562397
vn -0.0 -0.9993910193443298 0.0348999984562397
vn -0.0 -0.9993910193443298 0.0348999984562397
vn -0.23266799747943878 -0.5379779934883118 0.810213029384613
vn -0.572048008441925 -0.5561550259590149 0.6028710007667542
vn -0.23266799747943878 -0.5379779934883118 0.810213029384613
vn -0.2849380075931549 0.2501389980316162 0.9253330230712891
vn -0.6913700103759766 0.2576340138912201 0.6750050187110901
vn -0.6812130212783813 0.02001900039613247 0.731810986995697
vn -0.24107900261878967 0.10051699727773666 0.9652860164642334
vn -0.1766349971294403 -0.17404800653457642 0.9687659740447998
vn -0.5655879974365234 -0.2415730059146881 0.7885130047798157
vn -0.10994800180196762 0.38491499423980713 0.916379988193512
vn -0.5324059724807739 0.3067379891872406 0.7889590263366699
vn -0.5293279886245728 0.29687198996543884 0.7947819828987122
vn -0.12009099870920181 0.3709760010242462 0.9208449721336365
vn -0.1375110000371933 0.23423799872398376 0.9624050259590149
vn -0.019067000597715378 0.9016839861869812 0.43197500705718994
vn 0.0 0.9993910193443298 -0.0348999984562397
vn -0.067671999335289 0.8872789740562439 -0.45624101161956787
vn -0.1321060061454773 0.37375199794769287 -0.9180729985237122
vn -0.47928398847579956 -0.601095974445343 -0.6395080089569092
vn -0.7972649931907654 -0.4971640110015869 -0.34233999252319336
vn -0.8841869831085205 -0.4670509994029999 -0.008787999860942364
vn -0.827019989490509 -0.44623398780822754 0.3419269919395447
vn -0.5151489973068237 -0.39962801337242126 0.7582340240478516
vn -0.5151489973068237 -0.39962801337242126 0.7582340240478516
vn -0.13338199257850647 -0.3908799886703491 0.910726010799408
vn 0.8029900193214417 -0.5172820091247559 0.29601800441741943
vn 0.49634701013565063 -0.4387510120868683 0.7490910291671753
vn 0.843654990196228 -0.5368840098381042 -0.001433999976143241
vn 0.7834609746932983 -0.5479260087013245 -0.29319998621940613
vn 0.46066901087760925 -0.6240670084953308 -0.6311299800872803
vn -0.10998500138521194 -0.6566979885101318 -0.7460899949073792
vn 0.5414450168609619 -0.017531000077724457 -0.8405539989471436
vn 0.9045050144195557 -0.09113699942827225 -0.41661199927330017
vn 0.9326609969139099 -0.02806999906897545 -0.3596610128879547
vn 0.5492879748344421 -0.022885000333189964 -0.835319995880127
vn -0.5350559949874878 -0.10884000360965729 -0.8377760052680969
vn -0.5337679982185364 0.0042039998807013035 -0.8456209897994995
vn -0.12228599935770035 0.007457999978214502 -0.9924669861793518
vn -0.1084119975566864 -0.06873200088739395 -0.9917269945144653
vn -0.8944309949874878 -0.15539200603961945 -0.41934001445770264
vn -0.886443018913269 -0.043177999556064606 -0.4608190059661865
vn -0.5403749942779541 -0.10864900052547455 0.8343799710273743
vn -0.49151700735092163 -0.2006949931383133 0.8474270105361938
vn -0.10128600150346756 -0.04462800174951553 0.9938560128211975
vn -0.12005899846553802 -0.22833199799060822 0.966152012348175
vn -0.49151700735092163 -0.2006949931383133 0.8474270105361938
vn -0.5403749942779541 -0.10864900052547455 0.8343799710273743
vn 0.5471630096435547 -0.03414300084114075 0.8363289833068848
vn 0.4974350035190582 -0.2331400066614151 0.8355860114097595
vn 0.0654980018734932 0.9640880227088928 -0.25738000869750977
vn 0.14966900646686554 0.6438720226287842 -0.7503520250320435
vn 0.2260040044784546 -0.6975679993629456 -0.6799420118331909
vn 0.2850950062274933 0.16725100576877594 -0.9437940120697021
vn -0.0 -0.9993910193443298 0.0348999984562397
vn -0.0 -0.9993910193443298 0.0348999984562397
vn -0.0 -0.9993910193443298 0.0348999984562397
vn 0.21580299735069275 -0.5422340035438538 0.8120419979095459
vn 0.5698310136795044 -0.5489829778671265 0.6114820241928101
vn 0.68402498960495 0.2597010135650635 0.681663990020752
vn 0.2658950090408325 0.24867099523544312 0.9313769936561584
vn 0.21580299735069275 -0.5422340035438538 0.8120419979095459
vn 0.6948609948158264 0.060812998563051224 0.7165679931640625
vn 0.5998629927635193 -0.225040003657341 0.7678030133247375
vn 0.20094500482082367 -0.16280899941921234 0.9659789800643921
vn 0.2271759957075119 0.104994997382164 0.9681770205497742
vn 0.49634701013565063 -0.4387510120868683 0.7490910291671753
vn 0.5505340099334717 0.30662500858306885 0.7764620184898376
vn 0.11974500119686127 0.3724749982357025 0.9202839732170105
vn 0.12073899805545807 -0.4029560089111328 0.9072200059890747
vn 0.5172770023345947 0.4195359945297241 0.7459319829940796
vn 0.1071619987487793 0.4004780054092407 0.9100180268287659
vn 0.10623600333929062 -0.03146199882030487 0.9938430190086365
vn 0.5471630096435547 -0.03414300084114075 0.8363289833068848
vn 0.4974350035190582 -0.2331400066614151 0.8355860114097595
vn 0.11625999957323074 -0.2348109930753708 0.9650629758834839
vn 0.025181999430060387 0.8974999785423279 0.44029501080513
vn 0.1410280019044876 0.22237800061702728 0.9647070169448853
vn 0.0 0.9993910193443298 -0.0348999984562397
vn 0.06296300143003464 0.8877649903297424 -0.45596998929977417
vn 0.11638300120830536 0.3705810010433197 -0.9214800000190735
vn 0.1017180010676384 -0.047513000667095184 -0.9936779737472534
vn 0.12515999376773834 0.0027469999622553587 -0.9921330213546753
vn 0.14489099383354187 -0.08434399962425232 -0.9858459830284119
vn 0.13016900420188904 0.014305000193417072 -0.9913889765739441
vn 0.09774400293827057 -0.6629369854927063 -0.7422670125961304
vn 0.1412619948387146 -0.03407200053334236 -0.9893860220909119
vn 0.09914799779653549 -0.3688960075378418 -0.9241679906845093
vn -0.825219988822937 0.3279530107975006 -0.45984700322151184
vn -0.46409299969673157 0.34988000988960266 -0.8137580156326294
vn -0.1321060061454773 0.37375199794769287 -0.9180729985237122
vn 0.11638300120830536 0.3705810010433197 -0.9214800000190735
vn 0.4776790142059326 0.315856009721756 -0.8197910189628601
vn 0.8725929856300354 0.24614399671554565 -0.42189300060272217
vn 0.9672819972038269 0.2525950074195862 -0.02369699999690056
vn 0.8900099992752075 0.1780489981174469 0.4197379946708679
vn 0.44457700848579407 0.15353700518608093 0.8824840188026428
vn 0.44457700848579407 0.15353700518608093 0.8824840188026428
vn 0.1410280019044876 0.22237800061702728 0.9647070169448853
vn -0.1375110000371933 0.23423799872398376 0.9624050259590149
vn -0.4353030025959015 0.2136480063199997 0.8745660185813904
vn -0.4353030025959015 0.2136480063199997 0.8745660185813904
vn -0.8606039881706238 0.25924500823020935 0.4383530020713806
vn -0.936939001083374 0.3480899930000305 -0.03127399832010269
vn -0.9254080057144165 0.23098300397396088 0.3004460036754608
vn -0.696295976638794 0.2475849986076355 0.6737020015716553
vn -0.696295976638794 0.2475849986076355 0.6737020015716553
vn -0.2937859892845154 0.27716898918151855 0.914804995059967
vn 0.27461498975753784 0.2759360074996948 0.921110987663269
vn 0.6880329847335815 0.24785900115966797 0.6820390224456787
vn 0.926272988319397 0.22670599818229675 0.3010370135307312
vn 0.6880329847335815 0.24785900115966797 0.6820390224456787
vn 0.9776909947395325 0.20397399365901947 0.05015600100159645
vn -0.9790149927139282 0.20353299379348755 0.010173999704420567
vn -0.9442459940910339 -0.030069999396800995 -0.32786500453948975
vn -0.8215129971504211 -0.3696320056915283 -0.4341520071029663
vn -0.9459879994392395 0.3169879913330078 -0.06801199913024902
vn 0.9492250084877014 0.30979299545288086 -0.05477200075984001
vn 0.9515079855918884 0.054552000015974045 -0.3027479946613312
vn 0.8553320169448853 -0.3325980007648468 -0.39722201228141785
vn 0.9568259716033936 0.12049099802970886 -0.26451200246810913
vn 0.7834609746932983 -0.5479260087013245 -0.29319998621940613
vn 0.9356330037117004 0.21139299869537354 -0.28267401456832886
vn 0.9045050144195557 -0.09113699942827225 -0.41661199927330017
vn 0.9326609969139099 -0.02806999906897545 -0.3596610128879547
vn 0.8725929856300354 0.24614399671554565 -0.42189300060272217
vn -0.825219988822937 0.3279530107975006 -0.45984700322151184
vn -0.886443018913269 -0.043177999556064606 -0.4608190059661865
vn -0.8944309949874878 -0.15539200603961945 -0.41934001445770264
vn -0.9445739984512329 0.04580400139093399 -0.32508599758148193
vn -0.9328460097312927 -0.029918000102043152 -0.35903200507164
vn -0.7972649931907654 -0.4971640110015869 -0.34233999252319336
vn 0.778020977973938 0.47648099064826965 -0.4094499945640564
vn 0.875652015209198 -0.3432770073413849 -0.3396979868412018
vn 0.42952701449394226 -0.5121229887008667 -0.743798017501831
vn 0.4659320116043091 0.32025301456451416 -0.8248310089111328
vn 0.875652015209198 -0.3432770073413849 -0.3396979868412018
vn 0.778020977973938 0.47648099064826965 -0.4094499945640564
vn 0.7586439847946167 0.6510710120201111 -0.023795999586582184
vn 0.9730259776115417 -0.2298779934644699 0.019394999369978905
vn 0.724593997001648 0.660519003868103 0.19666600227355957
vn 0.9165689945220947 -0.17542600631713867 0.35934099555015564
vn 0.44384899735450745 0.713513970375061 0.5421220064163208
vn 0.5809760093688965 -0.0403130017220974 0.8129220008850098
vn 0.09546999633312225 0.7678930163383484 0.6334239840507507
vn 0.15610000491142273 0.0021039999555796385 0.9877390265464783
vn 0.5809760093688965 -0.0403130017220974 0.8129220008850098
vn 0.44384899735450745 0.713513970375061 0.5421220064163208
vn -0.10303899645805359 0.7657139897346497 0.6348739862442017
vn -0.1484600007534027 0.001961000030860305 0.9889169931411743
vn -0.4357619881629944 0.7237589955329895 0.535057008266449
vn -0.5759209990501404 -0.023068999871611595 0.8171799778938293
vn -0.4357619881629944 0.7237589955329895 0.535057008266449
vn -0.7003470063209534 0.6779379844665527 0.22341400384902954
vn -0.9107459783554077 -0.12864799797534943 0.3924179971218109
vn -0.5759209990501404 -0.023068999871611595 0.8171799778938293
vn -0.7689329981803894 0.6381890177726746 -0.03816699981689453
vn -0.9815109968185425 -0.19053800404071808 0.01820399984717369
vn -0.7571619749069214 0.48277199268341064 -0.4400410056114197
vn -0.8623949885368347 -0.3225800096988678 -0.3901500105857849
vn -0.7571619749069214 0.48277199268341064 -0.4400410056114197
vn -0.46115800738334656 0.3254440128803253 -0.8254809975624084
vn -0.42029398679733276 -0.5026119947433472 -0.755469024181366
vn -0.8623949885368347 -0.3225800096988678 -0.3901500105857849
vn -0.11878000199794769 0.28573501110076904 -0.950918972492218
vn -0.07161000370979309 -0.5539699792861938 -0.8294510245323181
vn -0.7152140140533447 -0.6761199831962585 -0.17700199782848358
vn -0.9286569952964783 0.027744999155402184 -0.36990100145339966
vn -0.7152140140533447 -0.6761199831962585 -0.17700199782848358
vn -0.4778909981250763 -0.7374950051307678 -0.47720101475715637
vn -0.24205300211906433 -0.6940199732780457 -0.6780459880828857
vn 0.2260040044784546 -0.6975679993629456 -0.6799420118331909
vn 0.4801349937915802 -0.7303739786148071 -0.48582398891448975
vn 0.7138640284538269 -0.6788489818572998 -0.1719360053539276
vn 0.7138640284538269 -0.6788489818572998 -0.1719360053539276
vn 0.9321600198745728 0.027235999703407288 -0.3610219955444336
vn 0.8692579865455627 0.4735510051250458 -0.1419149935245514
vn 0.5035820007324219 0.7387790083885193 -0.44789499044418335
vn 0.21322600543498993 0.7712870240211487 -0.5997099876403809
vn -0.23065899312496185 0.7668349742889404 -0.5989670157432556
vn -0.5015490055084229 0.7427229881286621 -0.44363299012184143
vn -0.8690130114555359 0.4754509925842285 -0.13697999715805054
vn -0.8878459930419922 0.32562801241874695 0.32510799169540405
vn -0.9562000036239624 0.2926650047302246 0.005288999993354082
vn -0.608610987663269 0.3235749900341034 0.7244939804077148
vn -0.14954200387001038 0.28586599230766296 0.946528971195221
vn -0.608610987663269 0.3235749900341034 0.7244939804077148
vn 0.12745800614356995 0.27952200174331665 0.9516419768333435
vn 0.5821580290794373 0.30071499943733215 0.7554219961166382
vn 0.9133219718933105 0.28477999567985535 0.29110801219940186
vn 0.5821580290794373 0.30071499943733215 0.7554219961166382
vn 0.9697350263595581 0.2441129982471466 -0.004769999999552965
vn 0.9265900254249573 0.2385289967060089 -0.2907490134239197
vn 0.9265900254249573 0.2385289967060089 -0.2907490134239197
vn 0.5693209767341614 0.06712900102138519 -0.8193699717521667
vn 0.10574200004339218 0.28763699531555176 -0.9518839716911316
vn 0.1199449971318245 0.02659899927675724 -0.9924240112304688
vn -0.13243499398231506 0.03034600056707859 -0.9907270073890686
vn -0.5777009725570679 0.08204299956560135 -0.8121150135993958
vn -0.9042909741401672 0.2641089856624603 -0.3354159891605377
vn -0.9042909741401672 0.2641089856624603 -0.3354159891605377
vn 0.07414399832487106 -0.5531629920005798 -0.8297669887542725
vn 0.8692579865455627 0.4735510051250458 -0.1419149935245514
vn 0.8753529787063599 0.4816429913043976 0.042155999690294266
vn -0.8631550073623657 0.5019320249557495 0.05502700060606003
vn -0.8690130114555359 0.4754509925842285 -0.13697999715805054

vt 0.8166210055351257 0.7737440019845963
vt 0.8161349892616272 0.7918950021266937
vt 0.8128669857978821 0.7897000014781952
vt 0.8128669857978821 0.7712869942188263
vt 0.5937110185623169 0.32956600189208984
vt 0.5750430226325989 0.32371699810028076
vt 0.5757160186767578 0.29458701610565186
vt 0.5937110185623169 0.29505497217178345
vt 0.8128669857978821 0.6735360026359558
vt 0.8128669857978821 0.6255170106887817
vt 0.8195850253105164 0.6255170106887817
vt 0.818992018699646 0.6754760146141052
vt 0.7199230194091797 0.27393800020217896
vt 0.7205920219421387 0.23377299308776855
vt 0.7340700030326843 0.23377299308776855
vt 0.7340700030326843 0.2856230139732361
vt 0.8193380236625671 0.711544007062912
vt 0.8128669857978821 0.7150860130786896
vt 0.8189499974250793 0.9617969989776611
vt 0.8128669857978821 0.9646259993314743
vt 0.8128669857978821 0.9307620003819466
vt 0.8189259767532349 0.9323389977216721
vt 0.851019024848938 0.7937680035829544
vt 0.8461340069770813 0.7499249875545502
vt 0.8585010170936584 0.7499249875545502
vt 0.8610439896583557 0.7923250049352646
vt 0.8512219786643982 0.957786999642849
vt 0.8374890089035034 0.9603120014071465
vt 0.837207019329071 0.9362939968705177
vt 0.8510640263557434 0.9322919994592667
vt 0.8395739793777466 0.6255170106887817
vt 0.8523210287094116 0.6255170106887817
vt 0.8513799905776978 0.6747269928455353
vt 0.8376740217208862 0.6737540066242218
vt 0.8379769921302795 0.7032240033149719
vt 0.8519070148468018 0.7061280012130737
vt 0.5745390057563782 0.2708529829978943
vt 0.5937110185623169 0.23447299003601074
vt 0.5937110185623169 0.2670050263404846
vt 0.9210389852523804 0.9132609963417053
vt 0.9215409755706787 0.9503969997167587
vt 0.9044780135154724 0.949083000421524
vt 0.9039819836616516 0.9160180017352104
vt 0.5937110185623169 0.35916799306869507
vt 0.9224720001220703 0.7204929888248444
vt 0.9052249789237976 0.7193650007247925
vt 0.9049599766731262 0.6781069934368134
vt 0.9220579862594604 0.6750349998474121
vt 0.8977569937705994 0.7499249875545502
vt 0.8977829813957214 0.7865040004253387
vt 0.889290988445282 0.7868530005216599
vt 0.8895379900932312 0.7499249875545502
vt 0.8842589855194092 0.9201140031218529
vt 0.8926339745521545 0.9187979996204376
vt 0.893064022064209 0.9479769989848137
vt 0.8846570253372192 0.947452999651432
vt 0.893900990486145 0.6255170106887817
vt 0.8934749960899353 0.6812559962272644
vt 0.8850330114364624 0.6827470064163208
vt 0.8855249881744385 0.6255170106887817
vt 0.8938300013542175 0.7178269922733307
vt 0.8854309916496277 0.7170999944210052
vt 0.720196008682251 0.3310859799385071
vt 0.7198960185050964 0.302761971950531
vt 0.7340700030326843 0.30664002895355225
vt 0.7340700030326843 0.33299899101257324
vt 0.8202469944953918 0.7568199932575226
vt 0.8128669857978821 0.750439003109932
vt 0.8128669857978821 0.7290430068969727
vt 0.8239690065383911 0.7394500076770782
vt 0.827489972114563 0.7630819976329803
vt 0.834863007068634 0.7496640086174011
vt 0.8382059931755066 0.7896549999713898
vt 0.8282619714736938 0.7918809950351715
vt 0.8209019899368286 0.868930995464325
vt 0.8245940208435059 0.8842199966311455
vt 0.8128669857978821 0.8932780027389526
vt 0.8128669857978821 0.8748690038919449
vt 0.8892980217933655 0.8399959951639175
vt 0.8979179859161377 0.8403200060129166
vt 0.8974050283432007 0.875671997666359
vt 0.8893550038337708 0.875671997666359
vt 0.8509659767150879 0.8337790071964264
vt 0.8609830141067505 0.8345219939947128
vt 0.8590930104255676 0.875671997666359
vt 0.8470569849014282 0.875671997666359
vt 0.8287870287895203 0.8631030023097992
vt 0.8287180066108704 0.8364219963550568
vt 0.8382239937782288 0.8387060016393661
vt 0.8361020088195801 0.8753309994935989
vt 0.8173050284385681 0.8540329933166504
vt 0.8128669857978821 0.8569329977035522
vt 0.8128669857978821 0.8393850028514862
vt 0.8165580034255981 0.8367660045623779
vt 0.6857140064239502 0.33105599880218506
vt 0.6720470190048218 0.33294200897216797
vt 0.6720470190048218 0.30652302503585815
vt 0.6860640048980713 0.30270200967788696
vt 0.6860920190811157 0.27387601137161255
vt 0.6720470190048218 0.2855049967765808
vt 0.6720470190048218 0.23377299308776855
vt 0.6854760050773621 0.23377299308776855
vt 0.8195260167121887 0.9997039999871049
vt 0.8128669857978821 0.9997039999871049
vt 0.8393579721450806 0.9997039999871049
vt 0.8521310091018677 0.9997039999871049
vt 0.893513023853302 0.9997039999871049
vt 0.885299026966095 0.9997039999871049
vt 0.5312020182609558 0.3313729763031006
vt 0.5483480095863342 0.3237699866294861
vt 0.5312020182609558 0.35916799306869507
vt 0.5312020182609558 0.296733021736145
vt 0.5482270121574402 0.2945539951324463
vt 0.5312020182609558 0.26738500595092773
vt 0.5312020182609558 0.23447299003601074
vt 0.5495110154151917 0.27108198404312134
vt 0.8976060152053833 0.8033490031957626
vt 0.8890979886054993 0.8037700057029724
vt 0.8519269824028015 0.8074810057878494
vt 0.8611540198326111 0.8065900057554245
vt 0.8398190140724182 0.8053459972143173
vt 0.8287550210952759 0.8062690049409866
vt 0.8161839842796326 0.8065569996833801
vt 0.8128669857978821 0.8059359937906265
vt 0.7091320157051086 0.3310760259628296
vt 0.7090420126914978 0.30274301767349243
vt 0.7090719938278198 0.2704610228538513
vt 0.7093350291252136 0.23377299308776855
vt 0.8128669857978821 0.6255170106887817
vt 0.8128669857978821 0.5919570028781891
vt 0.819350004196167 0.5899800062179565
vt 0.8196849822998047 0.6255170106887817
vt 0.8396310210227966 0.6255170106887817
vt 0.8391180038452148 0.5814720094203949
vt 0.8519399762153625 0.5832290053367615
vt 0.8523529767990112 0.6255170106887817
vt 0.8937609791755676 0.5854519903659821
vt 0.893900990486145 0.6255170106887817
vt 0.8855249881744385 0.6255170106887817
vt 0.8854560256004333 0.5838580131530762
vt 0.5667740106582642 0.35916799306869507
vt 0.5666549801826477 0.32535499334335327
vt 0.5667319893836975 0.2928439974784851
vt 0.5666670203208923 0.26498299837112427
vt 0.5672969818115234 0.23447299003601074
vt 0.8816819787025452 0.7867790013551712
vt 0.8820430040359497 0.7499249875545502
vt 0.8777509927749634 0.7141129970550537
vt 0.8771780133247375 0.6799370050430298
vt 0.8773339986801147 0.6255170106887817
vt 0.8773339986801147 0.6255170106887817
vt 0.8771759867668152 0.5845530033111572
vt 0.8769069910049438 0.9503809995949268
vt 0.8771380186080933 0.9997039999871049
vt 0.8766769766807556 0.923004999756813
vt 0.8820019960403442 0.875671997666359
vt 0.8816559910774231 0.8396269977092743
vt 0.8811799883842468 0.8039139956235886
vt 0.924456000328064 0.8362510055303574
vt 0.9249380230903625 0.875671997666359
vt 0.9080640077590942 0.875671997666359
vt 0.9097819924354553 0.837119996547699
vt 0.9093729853630066 0.7896559983491898
vt 0.9243249893188477 0.7871669977903366
vt 0.9246050119400024 0.8039869964122772
vt 0.9092320203781128 0.8040010035037994
vt 0.9087719917297363 0.7499249875545502
vt 0.9253649711608887 0.7499249875545502
vt 0.9052489995956421 0.6255170106887817
vt 0.9224140048027039 0.6255170106887817
vt 0.9049590229988098 0.5888200104236603
vt 0.9223790168762207 0.5894649922847748
vt 0.9224140048027039 0.6255170106887817
vt 0.9052489995956421 0.6255170106887817
vt 0.9045190215110779 0.9997039999871049
vt 0.9216910004615784 0.9997039999871049
vt 0.8289620280265808 0.8204189985990524
vt 0.8398560285568237 0.8207650035619736
vt 0.8128669857978821 0.8220950067043304
vt 0.8163279891014099 0.8210790008306503
vt 0.6978099942207336 0.33106499910354614
vt 0.6979359984397888 0.30272001028060913
vt 0.6979640126228333 0.2704409956932068
vt 0.6978039741516113 0.23377299308776855
vt 0.8128669857978821 0.5011779963970184
vt 0.8195260167121887 0.5011779963970184
vt 0.8193079829216003 0.5470330119132996
vt 0.8128669857978821 0.5462900102138519
vt 0.8393579721450806 0.5011779963970184
vt 0.8521310091018677 0.5011779963970184
vt 0.8518509864807129 0.5484789907932281
vt 0.8390529751777649 0.5514380037784576
vt 0.8771380186080933 0.5011779963970184
vt 0.885299026966095 0.5011779963970184
vt 0.8853650093078613 0.5442259907722473
vt 0.8770729899406433 0.5443849861621857
vt 0.8935539722442627 0.5011779963970184
vt 0.893642008304596 0.5411750078201294
vt 0.9047799706459045 0.5347279906272888
vt 0.9046459794044495 0.5011779963970184
vt 0.9216910004615784 0.5011779963970184
vt 0.9221270084381104 0.541489988565445
vt 0.5577030181884766 0.32586801052093506
vt 0.5575000047683716 0.35916799306869507
vt 0.5578259825706482 0.29278600215911865
vt 0.5582410097122192 0.2650820016860962
vt 0.5576930046081543 0.23447299003601074
vt 0.9091320037841797 0.8230209946632385
vt 0.9245269894599915 0.8207380026578903
vt 0.8891010284423828 0.8209049999713898
vt 0.8975750207901001 0.8220899999141693
vt 0.8811489939689636 0.8209169954061508
vt 0.8520020246505737 0.8201590031385422
vt 0.8611630201339722 0.820035994052887
vt 0.9374679923057556 0.7499249875545502
vt 0.9374679923057556 0.7872249931097031
vt 0.9374679923057556 0.8038749992847443
vt 0.9374679923057556 0.8205820024013519
vt 0.9374679923057556 0.8386339992284775
vt 0.9374679923057556 0.875671997666359
vt 0.9374679923057556 0.9196999967098236
vt 0.9374679923057556 0.9563379995524883
vt 0.9374679923057556 0.9997039999871049
vt 0.9374679923057556 0.5011779963970184
vt 0.9374679923057556 0.5433860123157501
vt 0.9374679923057556 0.5893290042877197
vt 0.9374679923057556 0.6255170106887817
vt 0.9374679923057556 0.6255170106887817
vt 0.9374679923057556 0.663111001253128
vt 0.9374679923057556 0.7091000080108643
vt 0.8256279826164246 0.6773799955844879
vt 0.8261780142784119 0.6255170106887817
vt 0.8263769745826721 0.6255170106887817
vt 0.8257129788398743 0.5880390107631683
vt 0.8256300091743469 0.5477609932422638
vt 0.8260599970817566 0.5011779963970184
vt 0.8257539868354797 0.9590209983289242
vt 0.825643002986908 0.9997039999871049
vt 0.8257049918174744 0.9338869974017143
vt 0.8256880044937134 0.708066999912262
vt 0.8461340069770813 0.7499249875545502
vt 0.8585010170936584 0.7499249875545502
vt 0.834863007068634 0.7496640086174011
vt 0.8361020088195801 0.8753309994935989
vt 0.8470569849014282 0.875671997666359
vt 0.8590930104255676 0.875671997666359
vt 0.8893550038337708 0.875671997666359
vt 0.8820019960403442 0.875671997666359
vt 0.8974050283432007 0.875671997666359
vt 0.9249380230903625 0.875671997666359
vt 0.9080640077590942 0.875671997666359
vt 0.9374679923057556 0.875671997666359
vt 0.9374679923057556 0.7499249875545502
vt 0.9253649711608887 0.7499249875545502
vt 0.9087719917297363 0.7499249875545502
vt 0.8895379900932312 0.7499249875545502
vt 0.8977569937705994 0.7499249875545502
vt 0.8820430040359497 0.7499249875545502
vt 0.8783900141716003 0.875671997666359
vt 0.8679029941558838 0.875671997666359
vt 0.8688079714775085 0.8384010046720505
vt 0.877839982509613 0.839367002248764
vt 0.8679029941558838 0.875671997666359
vt 0.8783900141716003 0.875671997666359
vt 0.8705649971961975 0.9250480011105537
vt 0.8607640266418457 0.9303380027413368
vt 0.8706780076026917 0.9524499997496605
vt 0.8608620166778564 0.9565539993345737
vt 0.8706169724464417 0.9997039999871049
vt 0.8613020181655884 0.9997039999871049
vt 0.8727980256080627 0.544497013092041
vt 0.8610339760780334 0.5470330119132996
vt 0.8613020181655884 0.5011779963970184
vt 0.8729540109634399 0.5011779963970184
vt 0.8729090094566345 0.5850439965724945
vt 0.8611339926719666 0.5840870141983032
vt 0.8731300234794617 0.6255170106887817
vt 0.861499011516571 0.6255170106887817
vt 0.8731300234794617 0.6255170106887817
vt 0.8732119798660278 0.677951991558075
vt 0.8610069751739502 0.6752020120620728
vt 0.8614779710769653 0.6255170106887817
vt 0.8739079833030701 0.7120029926300049
vt 0.8616420030593872 0.7075470089912415
vt 0.8783299922943115 0.7499249875545502
vt 0.8674730062484741 0.7499249875545502
vt 0.8783299922943115 0.7499249875545502
vt 0.8778889775276184 0.7867269963026047
vt 0.8688730001449585 0.7880519926548004
vt 0.8674730062484741 0.7499249875545502
vt 0.8771700263023376 0.8040149956941605
vt 0.8685929775238037 0.804966002702713
vt 0.8128669857978821 0.7712869942188263
vt 0.8166210055351257 0.7737440019845963
vt 0.7340700030326843 0.3586840033531189
vt 0.7204890251159668 0.3586840033531189
vt 0.7092189788818359 0.3586840033531189
vt 0.6976879835128784 0.3586840033531189
vt 0.685371994972229 0.3586840033531189
vt 0.6720470190048218 0.3586840033531189
vt 0.8128669857978821 0.8569329977035522
vt 0.8173050284385681 0.8540329933166504
vt 0.8216590285301208 0.8511880040168762
vt 0.8201799988746643 0.834196001291275
vt 0.819724977016449 0.8200830072164536
vt 0.8194379806518555 0.8071680068969727
vt 0.8193420171737671 0.7940499931573868
vt 0.8203049898147583 0.7761559933423996
vt 0.8745080232620239 0.6786009967327118
vt 0.8751639723777771 0.7126930058002472
vt 0.874504029750824 0.6255170106887817
vt 0.8743039965629578 0.584883987903595
vt 0.874504029750824 0.6255170106887817
vt 0.8741949796676636 0.5444599986076355
vt 0.8743209838867188 0.5011779963970184
vt 0.8719499707221985 0.951774001121521
vt 0.8719840049743652 0.9997039999871049
vt 0.8717989921569824 0.9243810027837753
vt 0.8795700073242188 0.875671997666359
vt 0.8795700073242188 0.875671997666359
vt 0.879086971282959 0.8394519984722137
vt 0.87711501121521 0.8209249973297119
vt 0.8784329891204834 0.8209230005741119
vt 0.8784800171852112 0.8039820045232773
vt 0.8791279792785645 0.7867439985275269
vt 0.8795440196990967 0.7499249875545502
vt 0.8795440196990967 0.7499249875545502
vt 0.868569016456604 0.8210510015487671
vt 0.8216590285301208 0.8511880040168762
vt 0.8287870287895203 0.8631030023097992
vt 0.827489972114563 0.7630819976329803
vt 0.8203049898147583 0.7761559933423996

usemtl Material

f 1/1/1 2/2/2 3/3/3
f 3/3/3 4/4/4 1/1/1
f 5/5/5 6/6/6 7/7/7
f 7/7/7 8/8/8 5/5/5
f 9/9/9 10/10/10 11/11/11
f 11/11/11 12/12/12 9/9/9
f 13/13/13 14/14/14 15/15/15
f 15/15/15 16/16/16 13/13/13
f 12/12/12 17/17/17 18/18/18
f 18/18/18 9/9/9 12/12/12
f 19/19/19 20/20/20 21/21/21
f 21/21/21 22/22/22 19/19/19
f 23/23/23 24/24/24 25/25/25
f 25/25/25 26/26/26 23/23/23
f 27/27/27 28/28/28 29/29/29
f 29/29/29 30/30/30 27/27/27
f 31/31/31 32/32/32 33/33/33
f 33/33/33 34/34/34 31/31/31
f 35/35/35 34/34/34 33/33/33
f 33/33/33 36/36/36 35/35/35
f 37/37/37 38/38/38 39/39/39
f 40/40/40 41/41/41 42/42/42
f 42/42/42 43/43/43 40/40/40
f 6/6/6 5/5/5 44/44/44
f 45/45/45 46/46/46 47/47/47
f 47/47/47 48/48/48 45/45/45
f 49/49/49 50/50/50 51/51/51
f 51/51/51 52/52/52 49/49/49
f 53/53/53 54/54/54 55/55/55
f 55/55/55 56/56/56 53/53/53
f 57/57/57 58/58/58 59/59/59
f 59/59/59 60/60/60 57/57/57
f 58/58/58 61/61/61 62/62/62
f 62/62/62 59/59/59 58/58/58
f 63/63/63 64/64/64 65/65/65
f 65/65/65 66/66/66 63/63/63
f 67/67/67 68/68/68 69/69/69
f 69/69/69 70/70/70 67/67/67
f 71/71/71 72/72/72 73/73/73
f 73/73/73 74/74/74 71/71/71
f 75/75/75 76/76/76 77/77/77
f 77/77/77 78/78/78 75/75/75
f 79/79/79 80/80/80 81/81/81
f 81/81/81 82/82/82 79/79/79
f 83/83/83 84/84/84 85/85/85
f 85/85/85 86/86/86 83/83/83
f 87/87/87 88/88/88 89/89/89
f 89/89/89 90/90/90 87/87/87
f 91/91/91 92/92/92 93/93/93
f 93/93/93 94/94/94 91/91/91
f 95/95/95 96/96/96 97/97/97
f 97/97/97 98/98/98 95/95/95
f 99/99/99 100/100/100 101/101/101
f 101/101/101 102/102/102 99/99/99
f 20/20/20 19/19/19 103/103/103
f 103/103/103 104/104/104 20/20/20
f 105/105/105 28/28/28 27/27/27
f 27/27/27 106/106/106 105/105/105
f 56/56/56 55/55/55 107/107/107
f 107/107/107 108/108/108 56/56/56
f 109/109/109 110/110/110 111/111/111
f 109/109/109 112/112/112 113/113/113
f 113/113/113 110/110/110 109/109/109
f 114/114/114 115/115/115 116/116/116
f 50/50/50 117/117/117 118/118/118
f 118/118/118 51/51/51 50/50/50
f 119/119/119 23/23/23 26/26/26
f 26/26/26 120/120/120 119/119/119
f 121/121/121 122/122/122 74/74/74
f 74/74/74 73/73/73 121/121/121
f 2/2/2 123/123/123 124/124/124
f 124/124/124 3/3/3 2/2/2
f 125/125/125 126/126/126 64/64/64
f 64/64/64 63/63/63 125/125/125
f 127/127/127 128/128/128 14/14/14
f 14/14/14 13/13/13 127/127/127
f 129/129/129 130/130/130 131/131/131
f 131/131/131 132/132/132 129/129/129
f 133/133/133 134/134/134 135/135/135
f 135/135/135 136/136/136 133/133/133
f 137/137/137 138/138/138 139/139/139
f 139/139/139 140/140/140 137/137/137
f 44/44/44 141/141/141 142/142/142
f 142/142/142 6/6/6 44/44/44
f 142/142/142 143/143/143 7/7/7
f 7/7/7 6/6/6 142/142/142
f 38/38/38 37/37/37 144/144/144
f 144/144/144 145/145/145 38/38/38
f 52/52/52 51/51/51 146/146/146
f 146/146/146 147/147/147 52/52/52
f 59/59/59 62/62/62 148/148/148
f 148/148/148 149/149/149 59/59/59
f 149/149/149 150/150/150 60/60/60
f 60/60/60 59/59/59 149/149/149
f 151/151/151 152/152/152 140/140/140
f 140/140/140 139/139/139 151/151/151
f 153/153/153 56/56/56 108/108/108
f 108/108/108 154/154/154 153/153/153
f 56/56/56 153/153/153 155/155/155
f 155/155/155 53/53/53 56/56/56
f 82/82/82 156/156/156 157/157/157
f 157/157/157 79/79/79 82/82/82
f 51/51/51 118/118/118 158/158/158
f 158/158/158 146/146/146 51/51/51
f 159/159/159 160/160/160 161/161/161
f 161/161/161 162/162/162 159/159/159
f 163/163/163 164/164/164 165/165/165
f 165/165/165 166/166/166 163/163/163
f 167/167/167 168/168/168 164/164/164
f 164/164/164 163/163/163 167/167/167
f 169/169/169 170/170/170 48/48/48
f 48/48/48 47/47/47 169/169/169
f 171/171/171 172/172/172 173/173/173
f 173/173/173 174/174/174 171/171/171
f 175/175/175 42/42/42 41/41/41
f 41/41/41 176/176/176 175/175/175
f 88/88/88 177/177/177 178/178/178
f 178/178/178 89/89/89 88/88/88
f 94/94/94 93/93/93 179/179/179
f 179/179/179 180/180/180 94/94/94
f 181/181/181 95/95/95 98/98/98
f 98/98/98 182/182/182 181/181/181
f 183/183/183 99/99/99 102/102/102
f 102/102/102 184/184/184 183/183/183
f 185/185/185 186/186/186 187/187/187
f 187/187/187 188/188/188 185/185/185
f 189/189/189 190/190/190 191/191/191
f 191/191/191 192/192/192 189/189/189
f 193/193/193 194/194/194 195/195/195
f 195/195/195 196/196/196 193/193/193
f 197/197/197 198/198/198 195/195/195
f 195/195/195 194/194/194 197/197/197
f 199/199/199 200/200/200 201/201/201
f 201/201/201 202/202/202 199/199/199
f 111/111/111 110/110/110 203/203/203
f 203/203/203 204/204/204 111/111/111
f 203/203/203 110/110/110 113/113/113
f 113/113/113 205/205/205 203/203/203
f 206/206/206 116/116/116 115/115/115
f 115/115/115 207/207/207 206/206/206
f 162/162/162 208/208/208 209/209/209
f 209/209/209 159/159/159 162/162/162
f 80/80/80 79/79/79 210/210/210
f 210/210/210 211/211/211 80/80/80
f 210/210/210 79/79/79 157/157/157
f 157/157/157 212/212/212 210/210/210
f 213/213/213 214/214/214 84/84/84
f 84/84/84 83/83/83 213/213/213
f 177/177/177 122/122/122 121/121/121
f 121/121/121 178/178/178 177/177/177
f 180/180/180 179/179/179 124/124/124
f 124/124/124 123/123/123 180/180/180
f 181/181/181 182/182/182 126/126/126
f 126/126/126 125/125/125 181/181/181
f 183/183/183 184/184/184 128/128/128
f 128/128/128 127/127/127 183/183/183
f 188/188/188 187/187/187 131/131/131
f 131/131/131 130/130/130 188/188/188
f 134/134/134 192/192/192 191/191/191
f 191/191/191 135/135/135 134/134/134
f 196/196/196 195/195/195 140/140/140
f 140/140/140 152/152/152 196/196/196
f 198/198/198 137/137/137 140/140/140
f 140/140/140 195/195/195 198/198/198
f 171/171/171 199/199/199 202/202/202
f 202/202/202 172/172/172 171/171/171
f 204/204/204 203/203/203 142/142/142
f 142/142/142 141/141/141 204/204/204
f 203/203/203 205/205/205 143/143/143
f 143/143/143 142/142/142 203/203/203
f 144/144/144 206/206/206 207/207/207
f 207/207/207 145/145/145 144/144/144
f 209/209/209 208/208/208 166/166/166
f 166/166/166 165/165/165 209/209/209
f 211/211/211 210/210/210 118/118/118
f 118/118/118 117/117/117 211/211/211
f 118/118/118 210/210/210 212/212/212
f 212/212/212 158/158/158 118/118/118
f 119/119/119 120/120/120 214/214/214
f 214/214/214 213/213/213 119/119/119
f 168/168/168 215/215/215 216/216/216
f 216/216/216 164/164/164 168/168/168
f 165/165/165 164/164/164 216/216/216
f 216/216/216 217/217/217 165/165/165
f 217/217/217 218/218/218 209/209/209
f 209/209/209 165/165/165 217/217/217
f 218/218/218 219/219/219 159/159/159
f 159/159/159 209/209/209 218/218/218
f 219/219/219 220/220/220 160/160/160
f 160/160/160 159/159/159 219/219/219
f 221/221/221 222/222/222 41/41/41
f 41/41/41 40/40/40 221/221/221
f 176/176/176 41/41/41 222/222/222
f 222/222/222 223/223/223 176/176/176
f 202/202/202 201/201/201 224/224/224
f 224/224/224 225/225/225 202/202/202
f 202/202/202 225/225/225 226/226/226
f 226/226/226 172/172/172 202/202/202
f 172/172/172 226/226/226 227/227/227
f 227/227/227 173/173/173 172/172/172
f 170/170/170 228/228/228 229/229/229
f 229/229/229 48/48/48 170/170/170
f 230/230/230 45/45/45 48/48/48
f 48/48/48 229/229/229 230/230/230
f 231/231/231 232/232/232 31/31/31
f 31/31/31 34/34/34 231/231/231
f 233/233/233 234/234/234 134/134/134
f 134/134/134 133/133/133 233/233/233
f 235/235/235 192/192/192 134/134/134
f 134/134/134 234/234/234 235/235/235
f 236/236/236 189/189/189 192/192/192
f 192/192/192 235/235/235 236/236/236
f 237/237/237 28/28/28 105/105/105
f 105/105/105 238/238/238 237/237/237
f 28/28/28 237/237/237 239/239/239
f 239/239/239 29/29/29 28/28/28
f 86/86/86 90/90/90 89/89/89
f 89/89/89 83/83/83 86/86/86
f 83/83/83 89/89/89 178/178/178
f 178/178/178 213/213/213 83/83/83
f 178/178/178 121/121/121 119/119/119
f 119/119/119 213/213/213 178/178/178
f 121/121/121 73/73/73 23/23/23
f 23/23/23 119/119/119 121/121/121
f 24/24/24 23/23/23 73/73/73
f 73/73/73 72/72/72 24/24/24
f 34/34/34 35/35/35 240/240/240
f 240/240/240 231/231/231 34/34/34
f 241/241/241 35/35/35 36/36/36
f 36/36/36 242/242/242 241/241/241
f 35/35/35 241/241/241 243/243/243
f 243/243/243 240/240/240 35/35/35
f 70/70/70 69/69/69 18/18/18
f 18/18/18 17/17/17 70/70/70
f 64/64/64 13/13/13 16/16/16
f 16/16/16 65/65/65 64/64/64
f 126/126/126 127/127/127 13/13/13
f 13/13/13 64/64/64 126/126/126
f 182/182/182 183/183/183 127/127/127
f 127/127/127 126/126/126 182/182/182
f 182/182/182 98/98/98 99/99/99
f 99/99/99 183/183/183 182/182/182
f 98/98/98 97/97/97 100/100/100
f 100/100/100 99/99/99 98/98/98
f 76/76/76 22/22/22 21/21/21
f 21/21/21 77/77/77 76/76/76
f 244/244/244 245/245/245 29/29/29
f 29/29/29 239/239/239 244/244/244
f 30/30/30 29/29/29 245/245/245
f 245/245/245 246/246/246 30/30/30
f 247/247/247 53/53/53 155/155/155
f 155/155/155 248/248/248 247/247/247
f 247/247/247 249/249/249 54/54/54
f 54/54/54 53/53/53 247/247/247
f 250/250/250 40/40/40 43/43/43
f 43/43/43 251/251/251 250/250/250
f 252/252/252 221/221/221 40/40/40
f 40/40/40 250/250/250 252/252/252
f 112/112/112 114/114/114 116/116/116
f 116/116/116 113/113/113 112/112/112
f 205/205/205 113/113/113 116/116/116
f 116/116/116 206/206/206 205/205/205
f 205/205/205 206/206/206 144/144/144
f 144/144/144 143/143/143 205/205/205
f 143/143/143 144/144/144 37/37/37
f 37/37/37 7/7/7 143/143/143
f 8/8/8 7/7/7 37/37/37
f 37/37/37 39/39/39 8/8/8
f 253/253/253 254/254/254 45/45/45
f 45/45/45 230/230/230 253/253/253
f 254/254/254 255/255/255 46/46/46
f 46/46/46 45/45/45 254/254/254
f 256/256/256 62/62/62 61/61/61
f 61/61/61 257/257/257 256/256/256
f 256/256/256 258/258/258 148/148/148
f 148/148/148 62/62/62 256/256/256
f 259/259/259 260/260/260 261/261/261
f 261/261/261 262/262/262 259/259/259
f 263/263/263 264/264/264 265/265/265
f 265/265/265 266/266/266 263/263/263
f 267/267/267 268/268/268 266/266/266
f 266/266/266 265/265/265 267/267/267
f 269/269/269 270/270/270 268/268/268
f 268/268/268 267/267/267 269/269/269
f 271/271/271 272/272/272 273/273/273
f 273/273/273 274/274/274 271/271/271
f 271/271/271 275/275/275 276/276/276
f 276/276/276 272/272/272 271/271/271
f 275/275/275 277/277/277 278/278/278
f 278/278/278 276/276/276 275/275/275
f 279/279/279 280/280/280 281/281/281
f 281/281/281 282/282/282 279/279/279
f 280/280/280 283/283/283 284/284/284
f 284/284/284 281/281/281 280/280/280
f 283/283/283 285/285/285 286/286/286
f 286/286/286 284/284/284 283/283/283
f 287/287/287 288/288/288 289/289/289
f 289/289/289 290/290/290 287/287/287
f 288/288/288 291/291/291 292/292/292
f 292/292/292 289/289/289 288/288/288
f 293/293/293 68/68/68 67/67/67
f 67/67/67 294/294/294 293/293/293
f 295/295/295 296/296/296 63/63/63
f 63/63/63 66/66/66 295/295/295
f 296/296/296 297/297/297 125/125/125
f 125/125/125 63/63/63 296/296/296
f 298/298/298 181/181/181 125/125/125
f 125/125/125 297/297/297 298/298/298
f 299/299/299 95/95/95 181/181/181
f 181/181/181 298/298/298 299/299/299
f 300/300/300 96/96/96 95/95/95
f 95/95/95 299/299/299 300/300/300
f 301/301/301 302/302/302 75/75/75
f 75/75/75 78/78/78 301/301/301
f 303/303/303 304/304/304 88/88/88
f 88/88/88 87/87/87 303/303/303
f 304/304/304 305/305/305 177/177/177
f 177/177/177 88/88/88 304/304/304
f 305/305/305 306/306/306 122/122/122
f 122/122/122 177/177/177 305/305/305
f 122/122/122 306/306/306 307/307/307
f 307/307/307 74/74/74 122/122/122
f 308/308/308 71/71/71 74/74/74
f 74/74/74 307/307/307 308/308/308
f 309/309/309 310/310/310 283/283/283
f 283/283/283 280/280/280 309/309/309
f 280/280/280 279/279/279 311/311/311
f 311/311/311 309/309/309 280/280/280
f 277/277/277 275/275/275 312/312/312
f 312/312/312 313/313/313 277/277/277
f 271/271/271 314/314/314 312/312/312
f 312/312/312 275/275/275 271/271/271
f 274/274/274 315/315/315 314/314/314
f 314/314/314 271/271/271 274/274/274
f 267/267/267 316/316/316 317/317/317
f 317/317/317 269/269/269 267/267/267
f 316/316/316 267/267/267 265/265/265
f 265/265/265 318/318/318 316/316/316
f 265/265/265 264/264/264 319/319/319
f 319/319/319 318/318/318 265/265/265
f 320/320/320 259/259/259 262/262/262
f 262/262/262 321/321/321 320/320/320
f 321/321/321 262/262/262 322/322/322
f 322/322/322 323/323/323 321/321/321
f 324/324/324 323/323/323 322/322/322
f 322/322/322 291/291/291 324/324/324
f 325/325/325 324/324/324 291/291/291
f 291/291/291 288/288/288 325/325/325
f 326/326/326 325/325/325 288/288/288
f 288/288/288 287/287/287 326/326/326
f 327/327/327 285/285/285 283/283/283
f 283/283/283 310/310/310 327/327/327
f 328/328/328 322/322/322 262/262/262
f 262/262/262 261/261/261 328/328/328
f 322/322/322 328/328/328 292/292/292
f 292/292/292 291/291/291 322/322/322
f 307/307/307 2/2/2 1/1/1
f 1/1/1 308/308/308 307/307/307
f 306/306/306 123/123/123 2/2/2
f 2/2/2 307/307/307 306/306/306
f 305/305/305 180/180/180 123/123/123
f 123/123/123 306/306/306 305/305/305
f 305/305/305 304/304/304 94/94/94
f 94/94/94 180/180/180 305/305/305
f 304/304/304 303/303/303 91/91/91
f 91/91/91 94/94/94 304/304/304
f 329/329/329 330/330/330 75/75/75
f 75/75/75 302/302/302 329/329/329
f 330/330/330 244/244/244 76/76/76
f 76/76/76 75/75/75 330/330/330
f 244/244/244 239/239/239 22/22/22
f 22/22/22 76/76/76 244/244/244
f 237/237/237 19/19/19 22/22/22
f 22/22/22 239/239/239 237/237/237
f 19/19/19 237/237/237 238/238/238
f 238/238/238 103/103/103 19/19/19
f 186/186/186 236/236/236 235/235/235
f 235/235/235 187/187/187 186/186/186
f 187/187/187 235/235/235 234/234/234
f 234/234/234 131/131/131 187/187/187
f 132/132/132 131/131/131 234/234/234
f 234/234/234 233/233/233 132/132/132
f 12/12/12 11/11/11 232/232/232
f 232/232/232 231/231/231 12/12/12
f 231/231/231 240/240/240 17/17/17
f 17/17/17 12/12/12 231/231/231
f 243/243/243 70/70/70 17/17/17
f 17/17/17 240/240/240 243/243/243
f 331/331/331 67/67/67 70/70/70
f 70/70/70 243/243/243 331/331/331
f 332/332/332 294/294/294 67/67/67
f 67/67/67 331/331/331 332/332/332
f 84/84/84 261/261/261 260/260/260
f 260/260/260 85/85/85 84/84/84
f 266/266/266 30/30/30 246/246/246
f 246/246/246 263/263/263 266/266/266
f 268/268/268 27/27/27 30/30/30
f 30/30/30 266/266/266 268/268/268
f 106/106/106 27/27/27 268/268/268
f 268/268/268 270/270/270 106/106/106
f 190/190/190 273/273/273 272/272/272
f 272/272/272 191/191/191 190/190/190
f 135/135/135 191/191/191 272/272/272
f 272/272/272 276/276/276 135/135/135
f 136/136/136 135/135/135 276/276/276
f 276/276/276 278/278/278 136/136/136
f 32/32/32 282/282/282 281/281/281
f 281/281/281 33/33/33 32/32/32
f 281/281/281 284/284/284 36/36/36
f 36/36/36 33/33/33 281/281/281
f 242/242/242 36/36/36 284/284/284
f 284/284/284 286/286/286 242/242/242
f 26/26/26 25/25/25 290/290/290
f 290/290/290 289/289/289 26/26/26
f 120/120/120 26/26/26 289/289/289
f 289/289/289 292/292/292 120/120/120
f 120/120/120 292/292/292 328/328/328
f 328/328/328 214/214/214 120/120/120
f 214/214/214 328/328/328 261/261/261
f 261/261/261 84/84/84 214/214/214
f 147/147/147 146/146/146 325/325/325
f 325/325/325 326/326/326 147/147/147
f 148/148/148 258/258/258 327/327/327
f 327/327/327 310/310/310 148/148/148
f 310/310/310 309/309/309 149/149/149
f 149/149/149 148/148/148 310/310/310
f 311/311/311 150/150/150 149/149/149
f 149/149/149 309/309/309 311/311/311
f 312/312/312 152/152/152 151/151/151
f 151/151/151 313/313/313 312/312/312
f 314/314/314 196/196/196 152/152/152
f 152/152/152 312/312/312 314/314/314
f 315/315/315 193/193/193 196/196/196
f 196/196/196 314/314/314 315/315/315
f 317/317/317 316/316/316 153/153/153
f 153/153/153 154/154/154 317/317/317
f 153/153/153 316/316/316 318/318/318
f 318/318/318 155/155/155 153/153/153
f 319/319/319 248/248/248 155/155/155
f 155/155/155 318/318/318 319/319/319
f 156/156/156 320/320/320 321/321/321
f 321/321/321 157/157/157 156/156/156
f 157/157/157 321/321/321 323/323/323
f 323/323/323 212/212/212 157/157/157
f 158/158/158 212/212/212 323/323/323
f 323/323/323 324/324/324 158/158/158
f 146/146/146 158/158/158 324/324/324
f 324/324/324 325/325/325 146/146/146
f 162/162/162 80/80/80 211/211/211
f 211/211/211 208/208/208 162/162/162
f 80/80/80 162/162/162 161/161/161
f 161/161/161 81/81/81 80/80/80
f 249/249/249 251/251/251 43/43/43
f 43/43/43 54/54/54 249/249/249
f 54/54/54 43/43/43 42/42/42
f 42/42/42 55/55/55 54/54/54
f 55/55/55 42/42/42 175/175/175
f 175/175/175 107/107/107 55/55/55
f 200/200/200 199/199/199 198/198/198
f 198/198/198 197/197/197 200/200/200
f 199/199/199 171/171/171 137/137/137
f 137/137/137 198/198/198 199/199/199
f 171/171/171 174/174/174 138/138/138
f 138/138/138 137/137/137 171/171/171
f 169/169/169 47/47/47 58/58/58
f 58/58/58 57/57/57 169/169/169
f 47/47/47 46/46/46 61/61/61
f 61/61/61 58/58/58 47/47/47
f 257/257/257 61/61/61 46/46/46
f 46/46/46 255/255/255 257/257/257
f 167/167/167 163/163/163 50/50/50
f 50/50/50 49/49/49 167/167/167
f 166/166/166 117/117/117 50/50/50
f 50/50/50 163/163/163 166/166/166
f 208/208/208 211/211/211 117/117/117
f 117/117/117 166/166/166 208/208/208