mtllib 37690782.mtl
o Mesh

v 9.999999974752427e-07 1.3242669105529785 0.7914739847183228
v 0.5996009707450867 1.2018470764160156 0.6315019726753235
v 0.5912060141563416 1.2237670421600342 0.6255710124969482
v 9.999999974752427e-07 1.346195936203003 0.7855430245399475
v 0.5996009707450867 1.2018470764160156 0.6315019726753235
v 0.9295290112495422 1.0711450576782227 0.3666279911994934
v 0.9252560138702393 1.0877330303192139 0.35417601466178894
v 0.8410300016403198 0.9455130100250244 -0.018667999655008316
v 0.8420500159263611 0.9291770458221436 -0.016401000320911407
v 0.6101329922676086 0.8839709758758545 -0.2700729966163635
v 0.6156259775161743 0.9092420339584351 -0.28237301111221313
v 0.15823499858379364 0.6614439487457275 -0.620212972164154
v 0.4382070004940033 0.8578519821166992 -0.45565199851989746
v 0.4267979860305786 0.8244669437408447 -0.43424201011657715
v 0.15823499858379364 0.6370240449905396 -0.5840680003166199
v 9.999999974752427e-07 1.0282409191131592 0.5816860198974609
v 0.4800190031528473 0.999735951423645 0.4926219880580902
v 0.5996009707450867 1.2018470764160156 0.6315019726753235
v 9.999999974752427e-07 1.3242669105529785 0.7914739847183228
v 0.3877579867839813 0.9803889989852905 0.30789801478385925
v 9.999999974752427e-07 0.9803889989852905 0.3509570062160492
v 9.999999974752427e-07 1.0817539691925049 0.527567982673645
v 0.4729360044002533 1.0580470561981201 0.4348660111427307
v 0.7103869915008545 0.9748589992523193 0.2587139904499054
v 0.9295290112495422 1.0711450576782227 0.3666279911994934
v 0.6774380207061768 0.9885090589523315 0.22092700004577637
v 0.497873991727829 0.9423480033874512 0.13012799620628357
v 0.712348997592926 0.9179470539093018 -0.011638999916613102
v 0.531129002571106 0.8968119621276855 -0.23808999359607697
v 0.6101329922676086 0.8839709758758545 -0.2700729966163635
v 0.8420500159263611 0.9291770458221436 -0.016401000320911407
v 0.5258359909057617 0.9480750560760498 -0.24737399816513062
v 0.45474401116371155 0.9334650039672852 -0.21218499541282654
v 0.5669580101966858 0.9496560096740723 -0.010130999609827995
v 0.6830199956893921 0.9671310186386108 -0.016680000349879265
v 0.4267979860305786 0.8244669437408447 -0.43424201011657715
v 0.3881799876689911 0.8681999444961548 -0.40991899371147156
v 0.1597049981355667 0.7608389854431152 -0.5056970119476318
v 0.15823499858379364 0.6370240449905396 -0.5840680003166199
v 0.17642900347709656 0.9144070148468018 -0.4276750087738037
v 0.35285699367523193 0.9187639951705933 -0.39564400911331177
v 0.39081400632858276 0.9018479585647583 -0.4271399974822998
v 0.16870300471782684 0.8069950342178345 -0.5420380234718323
v 0.0 0.9100509881973267 -0.45970600843429565
v 0.0 0.72536301612854 -0.6037539839744568
v 0.0 0.47507500648498535 -0.6655910015106201
v 0.0 0.4750939607620239 -0.715628981590271
v 0.0 0.6680819988250732 -0.5445520281791687
v 0.0 0.47507500648498535 -0.6655910015106201
v 0.16123899817466736 0.8900250196456909 -0.4239259958267212
v 0.0 0.8694620132446289 -0.4182620048522949
v 0.34788599610328674 0.913830041885376 -0.38454100489616394
v 0.4486989974975586 0.9102129936218262 -0.20471900701522827
v 0.577019989490509 0.9062290191650391 -0.0066709998063743114
v 0.5198379755020142 0.9106080532073975 0.1666489988565445
v 0.3686569929122925 0.8732589483261108 0.45767900347709656
v 9.999999974752427e-07 0.8732589483261108 0.4727579951286316
v -0.5912039875984192 1.2237670421600342 0.6255710124969482
v -0.5995990037918091 1.2018470764160156 0.6315019726753235
v 9.999999974752427e-07 1.3242669105529785 0.7914739847183228
v 9.999999974752427e-07 1.346195936203003 0.7855430245399475
v -0.9252539873123169 1.0877330303192139 0.35417601466178894
v -0.9295269846916199 1.0711450576782227 0.3666279911994934
v -0.5995990037918091 1.2018470764160156 0.6315019726753235
v -0.8410289883613586 0.9455130100250244 -0.018667999655008316
v -0.6156259775161743 0.9092429876327515 -0.28237301111221313
v -0.6101329922676086 0.8839720487594604 -0.2700729966163635
v -0.8420490026473999 0.92917799949646 -0.016401000320911407
v -0.15823499858379364 0.6614439487457275 -0.620212972164154
v -0.15823499858379364 0.6370240449905396 -0.5840680003166199
v -0.4267979860305786 0.8244669437408447 -0.43424201011657715
v -0.4382070004940033 0.8578519821166992 -0.45565199851989746
v -0.5995990037918091 1.2018470764160156 0.6315019726753235
v -0.4800170063972473 0.999735951423645 0.4926219880580902
v 9.999999974752427e-07 1.0282409191131592 0.5816860198974609
v 9.999999974752427e-07 1.3242669105529785 0.7914739847183228
v 9.999999974752427e-07 1.0817539691925049 0.527567982673645
v 9.999999974752427e-07 0.9803889989852905 0.3509570062160492
v -0.38775599002838135 0.9803889989852905 0.30789801478385925
v -0.4729340076446533 1.0580470561981201 0.4348660111427307
v -0.9295269846916199 1.0711450576782227 0.3666279911994934
v -0.7103859782218933 0.9748599529266357 0.2587139904499054
v -0.6774370074272156 0.988510012626648 0.22092700004577637
v -0.4978730082511902 0.9423480033874512 0.13012799620628357
v -0.6101329922676086 0.8839720487594604 -0.2700729966163635
v -0.531129002571106 0.8968130350112915 -0.23808999359607697
v -0.7123479843139648 0.9179480075836182 -0.011638999916613102
v -0.8420490026473999 0.92917799949646 -0.016401000320911407
v -0.5258359909057617 0.9480760097503662 -0.24737399816513062
v -0.6830189824104309 0.9671310186386108 -0.016680000349879265
v -0.5669569969177246 0.9496569633483887 -0.010130999609827995
v -0.45474401116371155 0.9334650039672852 -0.21218499541282654
v -0.4267979860305786 0.8244669437408447 -0.43424201011657715
v -0.15823499858379364 0.6370240449905396 -0.5840680003166199
v -0.1597049981355667 0.7608389854431152 -0.5056970119476318
v -0.3881799876689911 0.8681999444961548 -0.40991899371147156
v -0.17642900347709656 0.9144070148468018 -0.4276750087738037
v -0.16870300471782684 0.8069950342178345 -0.5420380234718323
v -0.39081400632858276 0.9018490314483643 -0.4271399974822998
v -0.35285699367523193 0.9187639951705933 -0.39564400911331177
v 0.0 0.9100509881973267 -0.45970600843429565
v 0.0 0.72536301612854 -0.6037539839744568
v 0.0 0.47507500648498535 -0.6655910015106201
v 0.0 0.4750939607620239 -0.715628981590271
v 0.0 0.47507500648498535 -0.6655910015106201
v 0.0 0.6680819988250732 -0.5445520281791687
v 0.0 0.8694620132446289 -0.4182620048522949
v -0.16123899817466736 0.8900250196456909 -0.4239259958267212
v -0.34788599610328674 0.913830041885376 -0.38454100489616394
v -0.4486989974975586 0.9102129936218262 -0.20471900701522827
v -0.5770189762115479 0.9062290191650391 -0.0066709998063743114
v -0.5198370218276978 0.9106080532073975 0.1666489988565445
v -0.3686560094356537 0.8732589483261108 0.45767900347709656
v 9.999999974752427e-07 0.8732589483261108 0.4727579951286316
v -0.5128179788589478 0.9802689552307129 -0.014305000193417072
v 0.0 0.9802689552307129 -0.04500500112771988
v -0.30556800961494446 0.9805690050125122 -0.36418798565864563
v -0.15278400480747223 0.9805690050125122 -0.3850969970226288
v 0.0 0.9805690050125122 -0.40600499510765076
v -0.38775599002838135 0.9803889989852905 0.30789801478385925
v 9.999999974752427e-07 0.9803889989852905 0.3509570062160492
v -0.6390249729156494 0.9366199970245361 -0.005869000218808651
v -0.6333900094032288 0.9120899438858032 -0.005009000189602375
v -0.41088399291038513 0.8429290056228638 -0.43424201011657715
v -0.4178610146045685 0.8622390031814575 -0.44798600673675537
v -0.37183600664138794 0.8940290212631226 0.47046199440956116
v -0.3686560094356537 0.8732589483261108 0.45767900347709656
v -0.37918001413345337 0.9322890043258667 0.3751530051231384
v 9.999999974752427e-07 0.9322890043258667 0.40564799308776855
v -0.5669569969177246 0.9496599435806274 -0.010130999609827995
v -0.35285699367523193 0.9187599420547485 -0.39564400911331177
v -0.17642900347709656 0.9144090414047241 -0.4276750087738037
v 0.0 0.9100489616394043 -0.45970600843429565
v 0.5128189921379089 0.9802689552307129 -0.014305000193417072
v 0.30556800961494446 0.9805690050125122 -0.36418798565864563
v 0.15278400480747223 0.9805690050125122 -0.3850969970226288
v 0.3877579867839813 0.9803889989852905 0.30789801478385925
v 0.41088399291038513 0.8429290056228638 -0.43424201011657715
v 0.6333910226821899 0.9120889902114868 -0.005009000189602375
v 0.6390259861946106 0.9366190433502197 -0.005869000218808651
v 0.4178610146045685 0.8622390031814575 -0.44798600673675537
v 0.3686569929122925 0.8732589483261108 0.45767900347709656
v 0.37183699011802673 0.8940290212631226 0.47046199440956116
v 0.37918099761009216 0.9322890043258667 0.3751530051231384
v 0.5669580101966858 0.949658989906311 -0.010130999609827995
v 0.35285699367523193 0.9187589883804321 -0.39564400911331177
v 0.17642900347709656 0.9144090414047241 -0.4276750087738037
v -0.5337749719619751 -0.7859799861907959 0.27220699191093445
v -0.5936579704284668 -1.0387200117111206 0.32079699635505676
v -0.27664801478385925 -1.0405609607696533 0.3790389895439148
v -0.25309500098228455 -0.7882809638977051 0.353206992149353
v -0.48778700828552246 -0.7945399880409241 -0.3731290102005005
v -0.24078600108623505 -0.7982209920883179 -0.5002020001411438
v -0.26259899139404297 -1.0444300174713135 -0.4326789975166321
v -0.5212479829788208 -1.0427709817886353 -0.35984399914741516
v -0.6677849888801575 -0.7903009653091431 -0.2270430028438568
v -0.7375800013542175 -1.039891004562378 -0.2203039973974228
v -0.27666398882865906 -0.09153097867965698 0.320252001285553
v -0.6207150220870972 -0.09707999229431152 0.20039400458335876
v -0.5069379806518555 -0.4646409749984741 0.12247200310230255
v -0.2558780014514923 -0.45329999923706055 0.22914500534534454
v -0.6225669980049133 0.015539050102233887 -0.40926799178123474
v -0.5082839727401733 -0.46814101934432983 -0.394540011882782
v -0.6508269906044006 -0.46658098697662354 -0.2632189989089966
v -0.7880409955978394 -0.07072001695632935 -0.21065300703048706
v -0.27949100732803345 -0.10947000980377197 -0.6034070253372192
v -0.2434220016002655 -0.4694709777832031 -0.5411540269851685
v -0.11160700023174286 -0.7996010184288025 -0.5332729816436768
v -0.11653199791908264 -1.0455009937286377 -0.46618300676345825
v -0.1268319934606552 -0.14207100868225098 -0.6407139897346497
v -0.11969699710607529 -0.4700009822845459 -0.5661609768867493
v 0.0 -0.09361100196838379 0.3201499879360199
v 0.0 -0.45402097702026367 0.22912700474262238
v 0.0 -1.0357309579849243 0.3583869934082031
v 0.0 -0.7895810008049011 0.34038498997688293
v -0.6675819754600525 -0.7861199975013733 0.11729300022125244
v -0.6985009908676147 -0.7880200147628784 -0.07236199826002121
v -0.7661589980125427 -1.0405499935150146 -0.048558998852968216
v -0.7383729815483093 -1.0388009548187256 0.16642899811267853
v -0.6512249708175659 -0.46504002809524536 -0.010108999907970428
v -0.7865359783172607 -0.07525098323822021 0.031060999259352684
v -0.8269810080528259 -0.07432001829147339 -0.08888000249862671
v -0.6895250082015991 -0.46577000617980957 -0.13620799779891968
v -0.37263399362564087 0.6085100173950195 0.6216549873352051
v -0.3780379891395569 0.3488190174102783 0.5862759947776794
v 0.0 0.3521900177001953 0.6009209752082825
v 0.0 0.6070090532302856 0.6062560081481934
v -0.6254180073738098 0.5852890014648438 0.555745005607605
v -0.6261090040206909 0.31946897506713867 0.5156930088996887
v -0.8346800208091736 0.29527997970581055 0.4179629981517792
v -0.828993022441864 0.5614500045776367 0.46527299284935
v -1.0000100135803223 0.476559042930603 0.341280996799469
v -1.0000100135803223 0.23808002471923828 0.24232099950313568
v -1.0000100135803223 0.24003005027770996 -0.24382899701595306
v -1.0 0.16071903705596924 0.0007389999809674919
v -0.9999849796295166 0.47683000564575195 1.5999999959603883e-05
v -1.0000200271606445 0.4764399528503418 -0.3443570137023926
v -1.0000200271606445 0.4764399528503418 -0.3443570137023926
v -0.841808021068573 0.4861799478530884 -0.4147709906101227
v -0.8171749711036682 0.21211004257202148 -0.37110400199890137
v -1.0000100135803223 0.24003005027770996 -0.24382899701595306
v -0.3823989927768707 0.5085200071334839 -0.6159089803695679
v -0.259786993265152 0.24483001232147217 -0.646261990070343
v -0.589372992515564 0.2290799617767334 -0.5085769891738892
v -0.6001539826393127 0.49887895584106445 -0.5276049971580505
v -0.2523939907550812 0.24904000759124756 -0.6224139928817749
v -0.37149399518966675 0.5052100419998169 -0.5929509997367859
v -0.18633800745010376 0.5136090517044067 -0.639968991279602
v -0.10822799801826477 0.27692902088165283 -0.6677669882774353
v 9.999999974752427e-07 0.8900289535522461 0.49262699484825134
v -0.37183600664138794 0.8940290212631226 0.47046199440956116
v -0.36809900403022766 0.8355690240859985 0.5227699875831604
v 9.999999974752427e-07 0.8355790376663208 0.5376790165901184
v -0.6774299740791321 0.8293889760971069 0.42059001326560974
v -0.6468250155448914 0.769798994064331 0.4659839868545532
v -1.0000100135803223 0.7152800559997559 0.2418230026960373
v -0.8529710173606873 0.7019699811935425 0.3943819999694824
v -0.8843550086021423 0.7845799922943115 0.34841498732566833
v -0.8507109880447388 0.7399489879608154 -0.37134599685668945
v -1.0000100135803223 0.7159600257873535 -0.24320100247859955
v -0.8597530126571655 0.7822799682617188 -0.29516199231147766
v -0.4178610146045685 0.8622390031814575 -0.44798600673675537
v -0.40158000588417053 0.749809980392456 -0.5274500250816345
v -0.6254709959030151 0.7445299625396729 -0.4500829875469208
v -0.6481590270996094 0.8233400583267212 -0.3721199929714203
v -0.3927130103111267 0.738860011100769 -0.5059090256690979
v -0.41088399291038513 0.8429290056228638 -0.43424201011657715
v -0.20544199645519257 0.833219051361084 -0.47992199659347534
v -0.1909320056438446 0.7236900329589844 -0.568448007106781
v -0.3215619921684265 0.10049903392791748 0.436942994594574
v 0.0 0.12341904640197754 0.45861899852752686
v -0.7153980135917664 0.07509899139404297 0.3134090006351471
v -0.8757209777832031 0.0421600341796875 0.1143840029835701
v -1.0 0.16071903705596924 0.0007389999809674919
v -0.9215559959411621 0.03622996807098389 -0.04413300007581711
v -0.9014250040054321 0.07729005813598633 -0.2275789976119995
v -0.12031800299882889 0.11880898475646973 -0.6512500047683716
v -1.0000100135803223 0.7159600257873535 -0.24320100247859955
v -1.0000100135803223 0.8159290552139282 -0.0004450000124052167
v -0.9215559959411621 0.03622996807098389 -0.04413300007581711
v -1.0 0.16071903705596924 0.0007389999809674919
v -0.6895250082015991 -0.46577000617980957 -0.13620799779891968
v -0.8269810080528259 -0.07432001829147339 -0.08888000249862671
v -0.6985009908676147 -0.7880200147628784 -0.07236199826002121
v -0.7661589980125427 -1.0405499935150146 -0.048558998852968216
v -1.0000100135803223 0.23808002471923828 0.24232099950313568
v -1.0000100135803223 0.476559042930603 0.341280996799469
v -1.0000100135803223 0.7152800559997559 0.2418230026960373
v -0.639024019241333 0.9366199970245361 -0.005869000218808651
v -0.7601289749145508 0.9185500144958496 -0.00546600017696619
v -0.916146993637085 0.8510799407958984 -0.003512999974191189
v -1.0000100135803223 0.8159290552139282 -0.0004450000124052167
v -0.916146993637085 0.8510799407958984 -0.003512999974191189
v -1.0000100135803223 0.8159290552139282 -0.0004450000124052167
v -0.639024019241333 0.9366199970245361 -0.005869000218808651
v -0.7601289749145508 0.9185500144958496 -0.00546600017696619
v 0.0 -1.0503309965133667 -0.061337001621723175
v -0.1588049978017807 -1.0503510236740112 -0.061337001621723175
v -0.18874500691890717 -1.050940990447998 -0.23376399278640747
v 0.0 -1.050940990447998 -0.268436998128891
v -0.7375800013542175 -1.039891004562378 -0.2203039973974228
v -0.4333139955997467 -1.0506210327148438 -0.24896299839019775
v -0.43358200788497925 -1.0507210493087769 -0.0613429993391037
v -0.7661589980125427 -1.0405499935150146 -0.048558998852968216
v 0.0 -1.050940990447998 0.1877020001411438
v -0.16648200154304504 -1.050940990447998 0.18033400177955627
v -0.4336490035057068 -1.0505510568618774 0.1651809960603714
v -0.7383729815483093 -1.0388009548187256 0.16642899811267853
v 0.0 -1.0357309579849243 0.3583869934082031
v -0.27664801478385925 -1.0405609607696533 0.3790389895439148
v -0.5936579704284668 -1.0387200117111206 0.32079699635505676
v -0.5212479829788208 -1.0427709817886353 -0.35984399914741516
v -0.11653199791908264 -1.0455009937286377 -0.46618300676345825
v -0.26259899139404297 -1.0444300174713135 -0.4326789975166321
v -0.11774499714374542 0.12610900402069092 -0.6021339893341064
v 0.0 -0.15991002321243286 -0.6304000020027161
v 0.0 -0.4699910283088684 -0.5418789982795715
v 0.0 -0.799360990524292 -0.5171390175819397
v 0.0 -1.0413810014724731 -0.44739699363708496
v 0.0 -1.0413810014724731 -0.44739699363708496
v -0.259786993265152 0.24483001232147217 -0.646261990070343
v -0.3823989927768707 0.5085200071334839 -0.6159089803695679
v -0.37149399518966675 0.5052100419998169 -0.5929509997367859
v -0.2523939907550812 0.24904000759124756 -0.6224139928817749
v 9.999999974752427e-07 0.8732589483261108 0.4727579951286316
v -0.3686560094356537 0.8732589483261108 0.45767900347709656
v -0.40158000588417053 0.749809980392456 -0.5274500250816345
v -0.4178610146045685 0.8622390031814575 -0.44798600673675537
v -0.41088399291038513 0.8429290056228638 -0.43424201011657715
v -0.3927130103111267 0.738860011100769 -0.5059090256690979
v -0.12031800299882889 0.11880898475646973 -0.6512500047683716
v -0.11774499714374542 0.12610900402069092 -0.6021339893341064
v 0.0 0.07430005073547363 -0.6324650049209595
v 0.0 0.07816898822784424 -0.6070399880409241
v 0.0 0.8235189914703369 -0.5121639966964722
v 0.0 0.7225290536880493 -0.5750160217285156
v 0.0 0.5220190286636353 -0.6652529835700989
v 0.0 0.2921299934387207 -0.6913859844207764
v 0.0 0.07816898822784424 -0.6070399880409241
v 0.0 0.07430005073547363 -0.6324650049209595
v 0.27664801478385925 -1.0405609607696533 0.3790389895439148
v 0.5936579704284668 -1.038720965385437 0.32079699635505676
v 0.5337749719619751 -0.7859809994697571 0.27220699191093445
v 0.25309500098228455 -0.7882809638977051 0.353206992149353
v 0.48778700828552246 -0.7945410013198853 -0.3731290102005005
v 0.5212479829788208 -1.0427709817886353 -0.35984501242637634
v 0.26259899139404297 -1.0444309711456299 -0.4326789975166321
v 0.24078600108623505 -0.7982209920883179 -0.5002020001411438
v 0.6677849888801575 -0.7903009653091431 -0.2270430028438568
v 0.7375800013542175 -1.039891004562378 -0.22030499577522278
v 0.27666398882865906 -0.09153097867965698 0.320252001285553
v 0.2558780014514923 -0.45329999923706055 0.22914500534534454
v 0.5069379806518555 -0.4646409749984741 0.12247200310230255
v 0.6207150220870972 -0.0970810055732727 0.20039400458335876
v 0.6508269906044006 -0.46658098697662354 -0.2632189989089966
v 0.5082839727401733 -0.46814101934432983 -0.394540011882782
v 0.6225669980049133 0.015539050102233887 -0.40926799178123474
v 0.7880409955978394 -0.07072097063064575 -0.21065300703048706
v 0.2434220016002655 -0.4694709777832031 -0.5411540269851685
v 0.27949100732803345 -0.10947102308273315 -0.6034070253372192
v 0.11653199791908264 -1.0455009937286377 -0.46618300676345825
v 0.11160700023174286 -0.7996010184288025 -0.5332729816436768
v 0.11969699710607529 -0.4700009822845459 -0.5661609768867493
v 0.1268319934606552 -0.14207100868225098 -0.6407139897346497
v 0.0 -0.09361100196838379 0.3201499879360199
v 0.0 -0.45402097702026367 0.22912700474262238
v 0.0 -1.0357309579849243 0.3583869934082031
v 0.0 -0.7895810008049011 0.34038498997688293
v 0.7661589980125427 -1.040550947189331 -0.0485600009560585
v 0.6985009908676147 -0.7880209684371948 -0.07236199826002121
v 0.6675819754600525 -0.7861210107803345 0.11729300022125244
v 0.7383729815483093 -1.0388009548187256 0.16642799973487854
v 0.8269810080528259 -0.0743209719657898 -0.08888000249862671
v 0.7865359783172607 -0.07525098323822021 0.031060999259352684
v 0.6512249708175659 -0.46504098176956177 -0.010108999907970428
v 0.6895250082015991 -0.46577101945877075 -0.13620799779891968
v 0.0 0.3521900177001953 0.6009209752082825
v 0.3780379891395569 0.3488190174102783 0.5862759947776794
v 0.37263500690460205 0.6085089445114136 0.6216549873352051
v 0.0 0.6070090532302856 0.6062560081481934
v 0.6261090040206909 0.31946897506713867 0.5156930088996887
v 0.625419020652771 0.5852890014648438 0.555745005607605
v 1.0000100135803223 0.476559042930603 0.341280996799469
v 0.828993022441864 0.5614490509033203 0.46527299284935
v 0.8346800208091736 0.29527902603149414 0.4179629981517792
v 1.0000100135803223 0.23807895183563232 0.24232099950313568
v 0.9999849796295166 0.47682905197143555 1.5999999959603883e-05
v 1.0 0.16071903705596924 0.0007389999809674919
v 1.0000100135803223 0.240028977394104 -0.24382899701595306
v 1.000020980834961 0.4764389991760254 -0.3443570137023926
v 1.000020980834961 0.4764389991760254 -0.3443570137023926
v 1.0000100135803223 0.240028977394104 -0.24382899701595306
v 0.8171749711036682 0.21210896968841553 -0.37110400199890137
v 0.841808021068573 0.486178994178772 -0.4147709906101227
v 0.589372992515564 0.229079008102417 -0.5085769891738892
v 0.259786993265152 0.24482905864715576 -0.646261990070343
v 0.3823989927768707 0.5085190534591675 -0.6159089803695679
v 0.6001539826393127 0.49887895584106445 -0.5276049971580505
v 0.2523939907550812 0.24903905391693115 -0.6224139928817749
v 0.10822799801826477 0.27692902088165283 -0.6677669882774353
v 0.18633800745010376 0.5136090517044067 -0.639968991279602
v 0.37149399518966675 0.5052089691162109 -0.5929509997367859
v 9.999999974752427e-07 0.8900289535522461 0.49262699484825134
v 9.999999974752427e-07 0.8355790376663208 0.5376790165901184
v 0.36809998750686646 0.8355690240859985 0.5227699875831604
v 0.37183699011802673 0.8940290212631226 0.47046199440956116
v 0.6468260288238525 0.769798994064331 0.4659839868545532
v 0.6774309873580933 0.8293889760971069 0.42059001326560974
v 1.0000109672546387 0.7152789831161499 0.2418230026960373
v 0.8843560218811035 0.7845790386199951 0.34841498732566833
v 0.8529710173606873 0.7019690275192261 0.3943819999694824
v 0.8507109880447388 0.7399489879608154 -0.37134599685668945
v 0.8597530126571655 0.7822790145874023 -0.29516199231147766
v 1.0000100135803223 0.7159589529037476 -0.24320100247859955
v 0.6254709959030151 0.7445290088653564 -0.4500829875469208
v 0.40158000588417053 0.749809980392456 -0.5274500250816345
v 0.4178610146045685 0.8622390031814575 -0.44798600673675537
v 0.6481590270996094 0.8233389854431152 -0.3721199929714203
v 0.3927130103111267 0.7388590574264526 -0.5059090256690979
v 0.1909320056438446 0.7236900329589844 -0.568448007106781
v 0.20544199645519257 0.833219051361084 -0.47992199659347534
v 0.41088399291038513 0.8429290056228638 -0.43424201011657715
v 0.0 0.12341904640197754 0.45861899852752686
v 0.3215619921684265 0.10049903392791748 0.436942994594574
v 0.7153980135917664 0.07509899139404297 0.3134090006351471
v 0.8757209777832031 0.04215896129608154 0.1143840029835701
v 1.0 0.16071903705596924 0.0007389999809674919
v 0.9215559959411621 0.03622901439666748 -0.04413300007581711
v 0.9014250040054321 0.07728898525238037 -0.2275789976119995
v 0.12031800299882889 0.11880898475646973 -0.6512500047683716
v 1.0000100135803223 0.7159589529037476 -0.24320100247859955
v 1.0000100135803223 0.8159290552139282 -0.0004450000124052167
v 1.0 0.16071903705596924 0.0007389999809674919
v 0.9215559959411621 0.03622901439666748 -0.04413300007581711
v 0.8269810080528259 -0.0743209719657898 -0.08888000249862671
v 0.6895250082015991 -0.46577101945877075 -0.13620799779891968
v 0.6985009908676147 -0.7880209684371948 -0.07236199826002121
v 0.7661589980125427 -1.040550947189331 -0.0485600009560585
v 1.0000100135803223 0.23807895183563232 0.24232099950313568
v 1.0000100135803223 0.476559042930603 0.341280996799469
v 1.0000109672546387 0.7152789831161499 0.2418230026960373
v 0.6390249729156494 0.9366190433502197 -0.005869000218808651
v 0.760129988193512 0.9185489416122437 -0.00546600017696619
v 0.9161480069160461 0.851078987121582 -0.003512999974191189
v 1.0000100135803223 0.8159290552139282 -0.0004450000124052167
v 1.0000100135803223 0.8159290552139282 -0.0004450000124052167
v 0.9161480069160461 0.851078987121582 -0.003512999974191189
v 0.760129988193512 0.9185489416122437 -0.00546600017696619
v 0.6390249729156494 0.9366190433502197 -0.005869000218808651
v 0.18874500691890717 -1.050940990447998 -0.23376399278640747
v 0.1588049978017807 -1.0503510236740112 -0.061337001621723175
v 0.7375800013542175 -1.039891004562378 -0.22030499577522278
v 0.7661589980125427 -1.040550947189331 -0.0485600009560585
v 0.43358200788497925 -1.0507210493087769 -0.0613429993391037
v 0.4333139955997467 -1.0506210327148438 -0.24896299839019775
v 0.16648200154304504 -1.050940990447998 0.18033400177955627
v 0.7383729815483093 -1.0388009548187256 0.16642799973487854
v 0.4336490035057068 -1.0505510568618774 0.1651809960603714
v 0.27664801478385925 -1.0405609607696533 0.3790389895439148
v 0.5936579704284668 -1.038720965385437 0.32079699635505676
v 0.5212479829788208 -1.0427709817886353 -0.35984501242637634
v 0.11653199791908264 -1.0455009937286377 -0.46618300676345825
v 0.26259899139404297 -1.0444309711456299 -0.4326789975166321
v 0.11774499714374542 0.12610900402069092 -0.6021339893341064
v 0.0 -0.4699910283088684 -0.5418789982795715
v 0.0 -0.15991002321243286 -0.6304000020027161
v 0.0 -0.799360990524292 -0.5171390175819397
v 0.0 -1.0413810014724731 -0.44739699363708496
v 0.259786993265152 0.24482905864715576 -0.646261990070343
v 0.2523939907550812 0.24903905391693115 -0.6224139928817749
v 0.37149399518966675 0.5052089691162109 -0.5929509997367859
v 0.3823989927768707 0.5085190534591675 -0.6159089803695679
v 0.3686569929122925 0.8732589483261108 0.45767900347709656
v 9.999999974752427e-07 0.8732589483261108 0.4727579951286316
v 0.40158000588417053 0.749809980392456 -0.5274500250816345
v 0.3927130103111267 0.7388590574264526 -0.5059090256690979
v 0.41088399291038513 0.8429290056228638 -0.43424201011657715
v 0.4178610146045685 0.8622390031814575 -0.44798600673675537
v 0.12031800299882889 0.11880898475646973 -0.6512500047683716
v 0.11774499714374542 0.12610900402069092 -0.6021339893341064
v 0.0 0.07430005073547363 -0.6324650049209595

vn 0.0 -0.11692000180482864 1.002882957458496
vn 0.48425498604774475 -0.14161799848079681 0.874576985836029
vn 0.31157800555229187 0.9349150061607361 0.21976600587368011
vn 0.0 0.9500399827957153 0.34185901284217834
vn 0.48425498604774475 -0.14161799848079681 0.874576985836029
vn 0.840707004070282 -0.29878199100494385 0.47263699769973755
vn 0.6543070077896118 0.7564659714698792 -0.13815300166606903
vn 0.6867640018463135 0.5750550031661987 -0.46595099568367004
vn 0.7288600206375122 -0.6632140278816223 -0.21989500522613525
vn 0.43814700841903687 -0.8795779943466187 -0.23197700083255768
vn 0.6724539995193481 0.3614720106124878 -0.6607480049133301
vn 0.5226380228996277 -0.0594559982419014 -0.8618350028991699
vn 0.6002629995346069 0.1671379953622818 -0.7944759726524353
vn 0.35625800490379333 -0.9404119849205017 0.09027399867773056
vn 0.5430319905281067 -0.7910240292549133 0.31439000368118286
vn -0.0 -0.5671340227127075 0.835345983505249
vn 0.36158499121665955 -0.6907529830932617 0.6415290236473083
vn 0.48425498604774475 -0.14161799848079681 0.874576985836029
vn 0.0 -0.11692000180482864 1.002882957458496
vn -0.09812700003385544 0.9027169942855835 -0.44149500131607056
vn 0.0 0.8756920099258423 -0.5026000142097473
vn 0.0 0.7990760207176208 -0.6171879768371582
vn -0.11399000138044357 0.8460270166397095 -0.5391550064086914
vn 0.22724300622940063 -0.9191100001335144 0.35077300667762756
vn 0.840707004070282 -0.29878199100494385 0.47263699769973755
vn -0.14152799546718597 0.9553800225257874 -0.29438701272010803
vn -0.1503400057554245 0.9827349781990051 -0.17628000676631927
vn 0.10025899857282639 -0.9965720176696777 0.1274220049381256
vn -0.0807960033416748 -0.9838110208511353 0.21220700442790985
vn 0.43814700841903687 -0.8795779943466187 -0.23197700083255768
vn 0.7288600206375122 -0.6632140278816223 -0.21989500522613525
vn 0.03116000071167946 0.9862610101699829 -0.213918998837471
vn -0.181986004114151 0.9924780130386353 -0.0362199991941452
vn -0.15388000011444092 0.9978790283203125 -0.0014169999631121755
vn 0.02071099914610386 1.0020689964294434 -0.12195300310850143
vn 0.35625800490379333 -0.9404119849205017 0.09027399867773056
vn -0.3112730085849762 -0.6951079964637756 0.6628559827804565
vn 0.0011129999766126275 -0.5396159887313843 0.853380024433136
vn 0.5430319905281067 -0.7910240292549133 0.31439000368118286
vn 0.07296200096607208 0.745058000087738 -0.6775019764900208
vn 0.14188100397586823 0.9418950080871582 -0.33488500118255615
vn 0.1948850005865097 0.8324919939041138 -0.5370479822158813
vn 0.10328099876642227 0.5886520147323608 -0.8137969970703125
vn 0.0 0.6749500036239624 -0.7509239912033081
vn -0.0 0.5010719895362854 -0.8765680193901062
vn -0.0 -0.956849992275238 0.3223069906234741
vn -0.0 -0.6606600284576416 -0.7635260224342346
vn -0.0 -0.5376350283622742 0.8546299934387207
vn -0.0 -0.956849992275238 0.3223069906234741
vn -0.012962999753654003 -0.5415890216827393 0.8520309925079346
vn -0.0 -0.5385640263557434 0.8540449738502502
vn -0.35533198714256287 -0.6792489886283875 0.657118022441864
vn -0.15512199699878693 -0.9834889769554138 0.1677210032939911
vn 0.0674159973859787 -1.0065200328826904 0.0426190011203289
vn 0.26855799555778503 -0.9468820095062256 0.2252430021762848
vn 0.3739660084247589 -0.5790849924087524 0.7377359867095947
vn -0.0 -0.5805879831314087 0.8260520100593567
vn -0.3115769922733307 0.9349150061607361 0.21976600587368011
vn -0.48425498604774475 -0.14161799848079681 0.874576985836029
vn 0.0 -0.11692000180482864 1.002882957458496
vn 0.0 0.9500399827957153 0.34185901284217834
vn -0.6543059945106506 0.7564659714698792 -0.13815300166606903
vn -0.8407059907913208 -0.29878100752830505 0.47263699769973755
vn -0.48425498604774475 -0.14161799848079681 0.874576985836029
vn -0.6867640018463135 0.5750550031661987 -0.46595099568367004
vn -0.6724539995193481 0.3614720106124878 -0.6607480049133301
vn -0.43814700841903687 -0.8795779943466187 -0.23197700083255768
vn -0.7288600206375122 -0.6632140278816223 -0.21989500522613525
vn -0.5226380228996277 -0.05945499986410141 -0.8618339896202087
vn -0.5430319905281067 -0.7910240292549133 0.31439000368118286
vn -0.35625898838043213 -0.9404119849205017 0.09027399867773056
vn -0.6002640128135681 0.1671389937400818 -0.7944759726524353
vn -0.48425498604774475 -0.14161799848079681 0.874576985836029
vn -0.36158499121665955 -0.6907529830932617 0.6415290236473083
vn -0.0 -0.5671340227127075 0.835345983505249
vn 0.0 -0.11692000180482864 1.002882957458496
vn 0.0 0.7990760207176208 -0.6171879768371582
vn 0.0 0.8756920099258423 -0.5026000142097473
vn 0.09812700003385544 0.9027169942855835 -0.44149500131607056
vn 0.11399099975824356 0.8460270166397095 -0.5391550064086914
vn -0.8407059907913208 -0.29878100752830505 0.47263699769973755
vn -0.22724300622940063 -0.9191100001335144 0.35077300667762756
vn 0.14152799546718597 0.9553800225257874 -0.29438701272010803
vn 0.1503410041332245 0.9827349781990051 -0.17628000676631927
vn -0.43814700841903687 -0.8795779943466187 -0.23197700083255768
vn 0.0807960033416748 -0.9838110208511353 0.21220700442790985
vn -0.10025899857282639 -0.9965720176696777 0.1274220049381256
vn -0.7288600206375122 -0.6632140278816223 -0.21989500522613525
vn -0.03115900047123432 0.9862610101699829 -0.213918998837471
vn -0.02071000076830387 1.0020689964294434 -0.12195300310850143
vn 0.1538809984922409 0.9978790283203125 -0.0014169999631121755
vn 0.181986004114151 0.9924780130386353 -0.0362199991941452
vn -0.35625898838043213 -0.9404119849205017 0.09027399867773056
vn -0.5430319905281067 -0.7910240292549133 0.31439000368118286
vn -0.0011129999766126275 -0.5396159887313843 0.853380024433136
vn 0.311271995306015 -0.6951079964637756 0.6628559827804565
vn -0.07296200096607208 0.745058000087738 -0.6775029897689819
vn -0.10328099876642227 0.5886520147323608 -0.8137969970703125
vn -0.1948850005865097 0.8324919939041138 -0.5370479822158813
vn -0.14188100397586823 0.9418950080871582 -0.33488398790359497
vn 0.0 0.6749500036239624 -0.7509239912033081
vn -0.0 0.5010719895362854 -0.8765680193901062
vn -0.0 -0.956849992275238 0.3223069906234741
vn -0.0 -0.6606600284576416 -0.7635260224342346
vn -0.0 -0.956849992275238 0.3223069906234741
vn -0.0 -0.5376350283622742 0.8546299934387207
vn -0.0 -0.5385640263557434 0.8540449738502502
vn 0.012962999753654003 -0.5415890216827393 0.8520309925079346
vn 0.35533198714256287 -0.6792489886283875 0.657118022441864
vn 0.15512099862098694 -0.9834889769554138 0.1677210032939911
vn -0.06741700321435928 -1.0065200328826904 0.0426190011203289
vn -0.2685590088367462 -0.9468820095062256 0.2252430021762848
vn -0.3739660084247589 -0.5790849924087524 0.7377359867095947
vn -0.0 -0.5805879831314087 0.8260520100593567
vn -0.3313409984111786 0.9515560269355774 -0.0647910013794899
vn 0.0 1.0096750259399414 0.000291000003926456
vn -0.2511979937553406 0.8654419779777527 -0.455361008644104
vn -0.0682620033621788 0.8956930041313171 -0.46099600195884705
vn 0.0 0.889365017414093 -0.4779900014400482
vn -0.4061029851436615 0.8530979752540588 0.35601699352264404
vn 0.0 0.9386879801750183 0.3718999922275543
vn 0.9824699759483337 0.23109599947929382 -0.02812799997627735
vn 0.983260989189148 0.2279130071401596 -0.026420999318361282
vn 0.810600996017456 0.5097339749336243 0.3202210068702698
vn 0.8072350025177002 0.5171549916267395 0.31680598855018616
vn 0.8232489824295044 0.386927992105484 -0.4381679892539978
vn 0.8206629753112793 0.3942759931087494 -0.4364660084247589
vn -0.2891469895839691 0.7639979720115662 0.5934180021286011
vn 0.0 0.7581700086593628 0.6668000221252441
vn -0.5260739922523499 0.8606100082397461 -0.045180998742580414
vn -0.4470610022544861 0.6681540012359619 -0.6108610033988953
vn -0.1267160028219223 0.5676620006561279 -0.8253160119056702
vn 0.0 0.6018990278244019 -0.8106549978256226
vn 0.33134201169013977 0.9515560269355774 -0.0647910013794899
vn 0.2511979937553406 0.8654419779777527 -0.455361008644104
vn 0.06826300173997879 0.8956930041313171 -0.46099600195884705
vn 0.4061039984226227 0.8530979752540588 0.35601699352264404
vn -0.8105999827384949 0.5097339749336243 0.32022199034690857
vn -0.983260989189148 0.2279130071401596 -0.026420999318361282
vn -0.9824699759483337 0.2310969978570938 -0.02812799997627735
vn -0.8072350025177002 0.5171560049057007 0.31680598855018616
vn -0.8206629753112793 0.39427700638771057 -0.4364660084247589
vn -0.8232489824295044 0.386927992105484 -0.4381679892539978
vn 0.2891469895839691 0.7639979720115662 0.5934180021286011
vn 0.5260739922523499 0.8606089949607849 -0.045180998742580414
vn 0.4470610022544861 0.6681529879570007 -0.6108610033988953
vn 0.1267160028219223 0.5676620006561279 -0.8253160119056702
vn -0.4962620139122009 0.30847299098968506 0.8234149813652039
vn -0.4384419918060303 -0.5172470211982727 0.748108983039856
vn -0.06642600148916245 -0.6171560287475586 0.796334981918335
vn -0.10186599940061569 0.22571900486946106 0.9788349866867065
vn -0.5277900099754333 -0.05782800167798996 -0.8587999939918518
vn -0.3494729995727539 -0.16663199663162231 -0.9324949979782104
vn -0.20481599867343903 -0.7567499876022339 -0.6362580060958862
vn -0.3510630130767822 -0.6480889916419983 -0.6900569796562195
vn -0.8466749787330627 0.07691299915313721 -0.5446739792823792
vn -0.732712984085083 -0.5357139706611633 -0.4422509968280792
vn -0.15492600202560425 -0.4176810085773468 0.9060819745063782
vn -0.46407198905944824 -0.5011529922485352 0.7435899972915649
vn -0.5514180064201355 0.039980001747608185 0.8448569774627686
vn -0.18601800501346588 0.05712899938225746 0.990746021270752
vn -0.5858640074729919 -0.2771280109882355 -0.7742140293121338
vn -0.5848479866981506 -0.13854800164699554 -0.8112959861755371
vn -0.8292070031166077 -0.13401800394058228 -0.5602669715881348
vn -0.7793800234794617 -0.3920480012893677 -0.5082409977912903
vn -0.37230899930000305 -0.14513200521469116 -0.927236020565033
vn -0.34682101011276245 -0.1652979999780655 -0.9337210059165955
vn -0.047391001135110855 -0.17781800031661987 -0.9927629828453064
vn -0.022715000435709953 -0.7599639892578125 -0.6643660068511963
vn -0.09148400276899338 -0.12038099765777588 -0.9982900023460388
vn -0.012694000266492367 -0.17950400710105896 -0.9935089945793152
vn 0.0 -0.3994480073451996 0.927299976348877
vn 0.0 0.03723499923944473 1.0089880228042603
vn -0.0 -0.6672790050506592 0.757748007774353
vn 0.0 0.20811499655246735 0.9879940152168274
vn -0.8658859729766846 0.283939003944397 0.4348140060901642
vn -0.9962249994277954 0.16424299776554108 -0.001715000020340085
vn -0.8343409895896912 -0.5686089992523193 -0.0016929999692365527
vn -0.7862460017204285 -0.5080440044403076 0.378354012966156
vn -0.8708609938621521 -0.08724500238895416 0.5034220218658447
vn -0.7384700179100037 -0.558197021484375 0.40314099192619324
vn -0.8651289939880371 -0.5203179717063904 -0.016302000731229782
vn -0.9982479810714722 -0.14971299469470978 -0.02302899956703186
vn -0.12332600355148315 0.1556449979543686 0.9899539947509766
vn -0.13187000155448914 -0.3322269916534424 0.9442880153656006
vn 0.0 -0.30368098616600037 0.9629240036010742
vn 0.0 0.15873199701309204 0.9971200227737427
vn -0.33765000104904175 0.1279360055923462 0.942903995513916
vn -0.2928659915924072 -0.35854199528694153 0.897284984588623
vn -0.4816780090332031 -0.3742850124835968 0.8045750260353088
vn -0.5096039772033691 0.10673899948596954 0.8650749921798706
vn -0.8711789846420288 -0.012707999907433987 0.5102249979972839
vn -0.8610309958457947 -0.3686630129814148 0.3770360052585602
vn -0.8861929774284363 -0.2891019880771637 -0.3879770040512085
vn -0.9456210136413574 -0.3525649905204773 0.03070399910211563
vn -1.0096750259399414 -6.000000212225132e-06 7.000000096013537e-06
vn -0.8194119930267334 -0.016705000773072243 -0.5896850228309631
vn -0.8194119930267334 -0.016705000773072243 -0.5896850228309631
vn -0.4193260073661804 0.007253999821841717 -0.9184539914131165
vn -0.528203010559082 -0.32363298535346985 -0.7973129749298096
vn -0.8861929774284363 -0.2891019880771637 -0.3879770040512085
vn 0.2631860077381134 0.26593899726867676 -0.9377920031547546
vn 0.2283170074224472 0.30039501190185547 -0.936523973941803
vn -0.45463699102401733 -0.17409799993038177 -0.884555995464325
vn -0.397132009267807 0.0904960036277771 -0.9238730072975159
vn 0.41200199723243713 0.36550599336624146 -0.8462290167808533
vn 0.4804759919643402 0.34307798743247986 -0.8190749883651733
vn -0.19467000663280487 0.18812699615955353 -0.9727050065994263
vn -0.21365800499916077 -0.1649470031261444 -0.9729269742965698
vn 0.0 1.0038360357284546 0.10842899978160858
vn -0.16861799359321594 0.9421769976615906 0.32142600417137146
vn -0.14812199771404266 0.530614972114563 0.8461390137672424
vn 0.0 0.47425198554992676 0.8913639783859253
vn -0.32652899622917175 0.7472209930419922 0.5953850150108337
vn -0.332830011844635 0.4326390027999878 0.8494060039520264
vn -0.8894379734992981 0.36789798736572266 0.3049499988555908
vn -0.5436310172080994 0.298550009727478 0.7967290282249451
vn -0.5646029710769653 0.6067209839820862 0.5766770243644714
vn -0.451198011636734 0.5038179755210876 -0.7496870160102844
vn -0.850488007068634 0.4255259931087494 -0.3391779959201813
vn -0.41703298687934875 0.8312199711799622 -0.3931939899921417
vn 0.1597920060157776 0.7520800232887268 -0.6544359922409058
vn 0.4192329943180084 0.45155298709869385 -0.7998679876327515
vn -0.3387469947338104 0.4263400137424469 -0.8502519726753235
vn -0.290351003408432 0.8179150223731995 -0.5159029960632324
vn 0.4973210096359253 0.4781720042228699 -0.7372030019760132
vn 0.6872810125350952 0.4854870140552521 -0.5580250024795532
vn -0.14689399302005768 0.6033869981765747 -0.7961090207099915
vn -0.14091500639915466 0.45940101146698 -0.8879960179328918
vn -0.12248200178146362 -0.5516240000724792 0.8367519974708557
vn 0.0 -0.5347390174865723 0.8564450144767761
vn -0.3813839852809906 -0.6265270113945007 0.6938689947128296
vn -0.6529710292816162 -0.6743879914283752 0.37185201048851013
vn -0.9456210136413574 -0.3525649905204773 0.03070399910211563
vn -0.8102530241012573 -0.6022549867630005 0.014928000047802925
vn -0.7103350162506104 -0.5252150297164917 -0.488893985748291
vn 0.28645598888397217 0.4601620137691498 -0.8518440127372742
vn -0.850488007068634 0.4255259931087494 -0.3391779959201813
vn -0.7794110178947449 0.6418020129203796 0.007220999803394079
vn -0.8102530241012573 -0.6022549867630005 0.014928000047802925
vn -0.9456210136413574 -0.3525649905204773 0.03070399910211563
vn -0.9982479810714722 -0.14971299469470978 -0.02302899956703186
vn -0.8651289939880371 -0.5203179717063904 -0.016302000731229782
vn -0.9962249994277954 0.16424299776554108 -0.001715000020340085
vn -0.8343409895896912 -0.5686089992523193 -0.0016929999692365527
vn -0.8610309958457947 -0.3686630129814148 0.3770360052585602
vn -0.8711789846420288 -0.012707999907433987 0.5102249979972839
vn -0.8894379734992981 0.36789798736572266 0.3049499988555908
vn -0.1774819940328598 0.9935439825057983 -0.028529999777674675
vn -0.2728779911994934 0.9714170098304749 -0.03646399825811386
vn -0.42950400710105896 0.9133219718933105 -0.028509000316262245
vn -0.7794110178947449 0.6418020129203796 0.007220999803394079
vn -0.42950400710105896 0.9133219718933105 -0.028509000316262245
vn -0.7794110178947449 0.6418020129203796 0.007220999803394079
vn -0.1774819940328598 0.9935439825057983 -0.028529999777674675
vn -0.2728779911994934 0.9714170098304749 -0.03646399825811386
vn -0.0 -1.0096750259399414 0.00036199999158270657
vn 0.0003389999910723418 -1.0096750259399414 0.0007849999819882214
vn -0.0019020000472664833 -1.0096009969711304 -0.012052999809384346
vn -0.0 -1.0095230340957642 -0.01754700019955635
vn -0.732712984085083 -0.5357139706611633 -0.4422509968280792
vn -0.01970599964261055 -1.0092079639434814 -0.02354300022125244
vn -0.017163999378681183 -1.0095289945602417 0.0008449999731965363
vn -0.8343409895896912 -0.5686089992523193 -0.0016929999692365527
vn -0.0 -1.0086760520935059 0.044913001358509064
vn 0.0029279999434947968 -1.0091689825057983 0.03184200078248978
vn -0.018882999196648598 -1.0091869831085205 0.025085000321269035
vn -0.7862460017204285 -0.5080440044403076 0.378354012966156
vn -0.0 -0.6672790050506592 0.757748007774353
vn -0.06642600148916245 -0.6171560287475586 0.796334981918335
vn -0.4384419918060303 -0.5172470211982727 0.748108983039856
vn -0.3510630130767822 -0.6480889916419983 -0.6900569796562195
vn -0.022715000435709953 -0.7599639892578125 -0.6643660068511963
vn -0.20481599867343903 -0.7567499876022339 -0.6362580060958862
vn 0.3126850128173828 0.42742401361465454 -0.8596400022506714
vn -0.0 -0.13303300738334656 -1.0008729696273804
vn -0.0 -0.1828480064868927 -0.9929810166358948
vn -0.0 -0.17580300569534302 -0.9942520260810852
vn -0.0 -0.8152279853820801 -0.5956910252571106
vn -0.0 -0.8152279853820801 -0.5956910252571106
vn 0.2283170074224472 0.30039501190185547 -0.936523973941803
vn 0.2631860077381134 0.26593899726867676 -0.9377920031547546
vn 0.4804759919643402 0.34307798743247986 -0.8190749883651733
vn 0.41200199723243713 0.36550599336624146 -0.8462290167808533
vn 0.0 0.7715830206871033 -0.6512330174446106
vn 0.05554800108075142 0.5455849766731262 -0.8477590084075928
vn 0.4192329943180084 0.45155298709869385 -0.7998679876327515
vn 0.1597920060157776 0.7520800232887268 -0.6544359922409058
vn 0.6872810125350952 0.4854870140552521 -0.5580250024795532
vn 0.4973210096359253 0.4781720042228699 -0.7372030019760132
vn 0.28645598888397217 0.4601620137691498 -0.8518440127372742
vn 0.3126850128173828 0.42742401361465454 -0.8596400022506714
vn 0.0 0.5686529874801636 -0.8343129754066467
vn 0.0 0.6321880221366882 -0.7872620224952698
vn 0.0 0.5710200071334839 -0.8326939940452576
vn -0.0 0.4501830041408539 -0.9037579894065857
vn -0.0 0.2536889910697937 -0.9772850275039673
vn -0.0 -0.11467999964952469 -1.0031410455703735
vn 0.0 0.6321880221366882 -0.7872620224952698
vn 0.0 0.5686529874801636 -0.8343129754066467
vn 0.06642600148916245 -0.6171560287475586 0.796334981918335
vn 0.4384419918060303 -0.5172470211982727 0.748108983039856
vn 0.4962629973888397 0.30847299098968506 0.8234149813652039
vn 0.10186599940061569 0.22571900486946106 0.9788349866867065
vn 0.5277900099754333 -0.05782800167798996 -0.8587999939918518
vn 0.3510630130767822 -0.6480889916419983 -0.6900569796562195
vn 0.20481500029563904 -0.7567499876022339 -0.6362580060958862
vn 0.3494719862937927 -0.16663199663162231 -0.9324949979782104
vn 0.8466749787330627 0.07691200077533722 -0.5446739792823792
vn 0.732712984085083 -0.5357139706611633 -0.4422509968280792
vn 0.15492600202560425 -0.4176810085773468 0.9060819745063782
vn 0.18601800501346588 0.05712899938225746 0.990746021270752
vn 0.5514180064201355 0.039980001747608185 0.8448569774627686
vn 0.46407198905944824 -0.5011529922485352 0.7435899972915649
vn 0.8292070031166077 -0.13401900231838226 -0.5602669715881348
vn 0.5848469734191895 -0.13854800164699554 -0.8112959861755371
vn 0.5858629941940308 -0.2771280109882355 -0.7742149829864502
vn 0.7793800234794617 -0.39204901456832886 -0.5082409977912903
vn 0.34682101011276245 -0.1652979999780655 -0.9337220191955566
vn 0.37230798602104187 -0.14513200521469116 -0.927236020565033
vn 0.022715000435709953 -0.7599639892578125 -0.6643660068511963
vn 0.047391001135110855 -0.17781800031661987 -0.9927629828453064
vn 0.012694000266492367 -0.17950400710105896 -0.9935089945793152
vn 0.09148299694061279 -0.12038099765777588 -0.9982900023460388
vn 0.0 -0.3994480073451996 0.927299976348877
vn 0.0 0.03723499923944473 1.0089880228042603
vn -0.0 -0.6672790050506592 0.757748007774353
vn 0.0 0.20811499655246735 0.9879940152168274
vn 0.83433997631073 -0.5686100125312805 -0.0016929999692365527
vn 0.9962260127067566 0.1642419993877411 -0.001715000020340085
vn 0.8658869862556458 0.283939003944397 0.4348140060901642
vn 0.7862460017204285 -0.5080450177192688 0.378354012966156
vn 0.8651279807090759 -0.5203179717063904 -0.016302000731229782
vn 0.7384690046310425 -0.558197021484375 0.40314099192619324
vn 0.8708609938621521 -0.08724500238895416 0.5034220218658447
vn 0.9982479810714722 -0.14971299469470978 -0.023029999807476997
vn 0.0 -0.30368098616600037 0.9629240036010742
vn 0.13187099993228912 -0.3322269916534424 0.9442880153656006
vn 0.12332600355148315 0.1556449979543686 0.9899539947509766
vn 0.0 0.15873199701309204 0.9971200227737427
vn 0.2928670048713684 -0.35854199528694153 0.897284984588623
vn 0.33765000104904175 0.1279360055923462 0.942903995513916
vn 0.8711789846420288 -0.012709000147879124 0.5102249979972839
vn 0.5096039772033691 0.10673899948596954 0.8650749921798706
vn 0.4816780090332031 -0.3742859959602356 0.8045750260353088
vn 0.8610309958457947 -0.3686639964580536 0.3770360052585602
vn 1.0096750259399414 -7.000000096013537e-06 7.000000096013537e-06
vn 0.9456210136413574 -0.3525660037994385 0.03070399910211563
vn 0.8861929774284363 -0.2891019880771637 -0.3879770040512085
vn 0.8194119930267334 -0.01670599915087223 -0.5896850228309631
vn 0.8194119930267334 -0.01670599915087223 -0.5896850228309631
vn 0.8861929774284363 -0.2891019880771637 -0.3879770040512085
vn 0.528203010559082 -0.32363298535346985 -0.7973129749298096
vn 0.41932499408721924 0.007253999821841717 -0.9184539914131165
vn 0.45463699102401733 -0.17409799993038177 -0.884555995464325
vn -0.2283170074224472 0.30039501190185547 -0.936523973941803
vn -0.2631860077381134 0.26593899726867676 -0.9377920031547546
vn 0.397132009267807 0.0904960036277771 -0.9238730072975159
vn -0.41200199723243713 0.36550599336624146 -0.8462290167808533
vn 0.21365800499916077 -0.1649470031261444 -0.9729269742965698
vn 0.19467000663280487 0.18812699615955353 -0.9727050065994263
vn -0.4804759919643402 0.34307798743247986 -0.8190749883651733
vn 0.0 1.0038360357284546 0.10842899978160858
vn 0.0 0.47425198554992676 0.8913639783859253
vn 0.14812299609184265 0.530614972114563 0.8461390137672424
vn 0.16861900687217712 0.9421769976615906 0.32142600417137146
vn 0.3328309953212738 0.4326390027999878 0.8494060039520264
vn 0.32653000950813293 0.7472209930419922 0.5953840017318726
vn 0.8894389867782593 0.36789700388908386 0.3049499988555908
vn 0.5646039843559265 0.6067209839820862 0.5766770243644714
vn 0.5436310172080994 0.298550009727478 0.7967290282249451
vn 0.451198011636734 0.5038179755210876 -0.7496870160102844
vn 0.41703298687934875 0.8312190175056458 -0.3931939899921417
vn 0.850488007068634 0.4255250096321106 -0.3391779959201813
vn 0.3387469947338104 0.4263400137424469 -0.8502519726753235
vn -0.4192329943180084 0.45155298709869385 -0.7998669743537903
vn -0.1597920060157776 0.7520800232887268 -0.6544359922409058
vn 0.2903519868850708 0.8179150223731995 -0.5159029960632324
vn -0.4973210096359253 0.4781720042228699 -0.737201988697052
vn 0.14091500639915466 0.45940101146698 -0.8879960179328918
vn 0.14689399302005768 0.6033869981765747 -0.7961090207099915
vn -0.6872810125350952 0.4854870140552521 -0.5580250024795532
vn 0.0 -0.5347390174865723 0.8564450144767761
vn 0.12248200178146362 -0.5516240000724792 0.8367519974708557
vn 0.3813839852809906 -0.6265270113945007 0.6938689947128296
vn 0.6529710292816162 -0.6743879914283752 0.37185201048851013
vn 0.9456210136413574 -0.3525660037994385 0.03070399910211563
vn 0.8102530241012573 -0.6022549867630005 0.014928000047802925
vn 0.7103350162506104 -0.5252150297164917 -0.488893985748291
vn -0.28645598888397217 0.4601620137691498 -0.8518440127372742
vn 0.850488007068634 0.4255250096321106 -0.3391779959201813
vn 0.7794119715690613 0.6418009996414185 0.007220999803394079
vn 0.9456210136413574 -0.3525660037994385 0.03070399910211563
vn 0.8102530241012573 -0.6022549867630005 0.014928000047802925
vn 0.8651279807090759 -0.5203179717063904 -0.016302000731229782
vn 0.9982479810714722 -0.14971299469470978 -0.023029999807476997
vn 0.9962260127067566 0.1642419993877411 -0.001715000020340085
vn 0.83433997631073 -0.5686100125312805 -0.0016929999692365527
vn 0.8610309958457947 -0.3686639964580536 0.3770360052585602
vn 0.8711789846420288 -0.012709000147879124 0.5102249979972839
vn 0.8894389867782593 0.36789700388908386 0.3049499988555908
vn 0.1774819940328598 0.9935439825057983 -0.028529999777674675
vn 0.2728790044784546 0.9714170098304749 -0.03646399825811386
vn 0.42950400710105896 0.9133219718933105 -0.028510000556707382
vn 0.7794119715690613 0.6418009996414185 0.007220999803394079
vn 0.7794119715690613 0.6418009996414185 0.007220999803394079
vn 0.42950400710105896 0.9133219718933105 -0.028510000556707382
vn 0.2728790044784546 0.9714170098304749 -0.03646399825811386
vn 0.1774819940328598 0.9935439825057983 -0.028529999777674675
vn 0.00190100003965199 -1.0096009969711304 -0.012052999809384346
vn -0.00033999999868683517 -1.0096750259399414 0.0007849999819882214
vn 0.732712984085083 -0.5357139706611633 -0.4422509968280792
vn 0.83433997631073 -0.5686100125312805 -0.0016929999692365527
vn 0.017163999378681183 -1.0095289945602417 0.0008449999731965363
vn 0.01970599964261055 -1.0092079639434814 -0.02354300022125244
vn -0.0029279999434947968 -1.0091689825057983 0.03184200078248978
vn 0.7862460017204285 -0.5080450177192688 0.378354012966156
vn 0.018882999196648598 -1.0091869831085205 0.025085000321269035
vn 0.06642600148916245 -0.6171560287475586 0.796334981918335
vn 0.4384419918060303 -0.5172470211982727 0.748108983039856
vn 0.3510630130767822 -0.6480889916419983 -0.6900569796562195
vn 0.022715000435709953 -0.7599639892578125 -0.6643660068511963
vn 0.20481500029563904 -0.7567499876022339 -0.6362580060958862
vn -0.3126850128173828 0.42742401361465454 -0.8596400022506714
vn -0.0 -0.1828480064868927 -0.9929810166358948
vn -0.0 -0.13303300738334656 -1.0008729696273804
vn -0.0 -0.17580300569534302 -0.9942520260810852
vn -0.0 -0.8152279853820801 -0.5956910252571106
vn -0.2283170074224472 0.30039501190185547 -0.936523973941803
vn -0.41200199723243713 0.36550599336624146 -0.8462290167808533
vn -0.4804759919643402 0.34307798743247986 -0.8190749883651733
vn -0.2631860077381134 0.26593899726867676 -0.9377920031547546
vn -0.05554800108075142 0.5455849766731262 -0.8477590084075928
vn 0.0 0.7715830206871033 -0.6512330174446106
vn -0.4192329943180084 0.45155298709869385 -0.7998669743537903
vn -0.4973210096359253 0.4781720042228699 -0.737201988697052
vn -0.6872810125350952 0.4854870140552521 -0.5580250024795532
vn -0.1597920060157776 0.7520800232887268 -0.6544359922409058
vn -0.28645598888397217 0.4601620137691498 -0.8518440127372742
vn -0.3126850128173828 0.42742401361465454 -0.8596400022506714
vn 0.0 0.5686529874801636 -0.8343129754066467

vt 0.40146300196647644 0.2152959704399109
vt 0.3885590136051178 0.16991502046585083
vt 0.38674700260162354 0.17079800367355347
vt 0.3975459933280945 0.21517300605773926
vt 0.3865549862384796 0.16890698671340942
vt 0.36719998717308044 0.15147900581359863
vt 0.36692601442337036 0.15357500314712524
vt 0.3354789912700653 0.16007000207901
vt 0.3360750079154968 0.15864700078964233
vt 0.3197380006313324 0.1683809757232666
vt 0.3201580047607422 0.1698399782180786
vt 0.29128798842430115 0.1988700032234192
vt 0.3062480092048645 0.1787099838256836
vt 0.3049040138721466 0.1772189736366272
vt 0.28981301188468933 0.1974790096282959
vt 0.35482698678970337 0.2147899866104126
vt 0.35640600323677063 0.20037198066711426
vt 0.36117398738861084 0.19826799631118774
vt 0.35750898718833923 0.21479099988937378
vt 0.3630070090293884 0.18836700916290283
vt 0.36733898520469666 0.21521198749542236
vt 0.3801650106906891 0.21519500017166138
vt 0.37308698892593384 0.1809070110321045
vt 0.3459959924221039 0.1979680061340332
vt 0.3481850028038025 0.19554901123046875
vt 0.3597480058670044 0.1646680235862732
vt 0.3544520139694214 0.1728540062904358
vt 0.33778199553489685 0.19607102870941162
vt 0.3305230140686035 0.19988900423049927
vt 0.33021000027656555 0.19772297143936157
vt 0.33793601393699646 0.19340300559997559
vt 0.32270801067352295 0.17659997940063477
vt 0.3245899975299835 0.1815890073776245
vt 0.33865100145339966 0.17299199104309082
vt 0.3373039960861206 0.16750502586364746
vt 0.3231939971446991 0.20164597034454346
vt 0.3239319920539856 0.20335501432418823
vt 0.3205280005931854 0.2095019817352295
vt 0.3174160122871399 0.20873099565505981
vt 0.3097270131111145 0.20412802696228027
vt 0.3118230104446411 0.1893939971923828
vt 0.3094559907913208 0.1848580241203308
vt 0.3018980026245117 0.20189499855041504
vt 0.3078460097312927 0.216854989528656
vt 0.2923299968242645 0.21661299467086792
vt 0.269338995218277 0.21498197317123413
vt 0.27130401134490967 0.21628499031066895
vt 0.3175880014896393 0.21481198072433472
vt 0.3124240040779114 0.2148510217666626
vt 0.3237760066986084 0.21030700206756592
vt 0.3229759931564331 0.21477198600769043
vt 0.3247019946575165 0.20513802766799927
vt 0.3308500051498413 0.20214802026748657
vt 0.3376210033893585 0.19885599613189697
vt 0.3437120020389557 0.2004920244216919
vt 0.3514310121536255 0.2025660276412964
vt 0.3520280122756958 0.2147899866104126
vt 0.38674700260162354 0.17079800367355347
vt 0.3885590136051178 0.16991502046585083
vt 0.40146300196647644 0.2152959704399109
vt 0.3975459933280945 0.21517300605773926
vt 0.36692601442337036 0.15357500314712524
vt 0.36719998717308044 0.15147900581359863
vt 0.3865549862384796 0.16890698671340942
vt 0.3354789912700653 0.16007000207901
vt 0.3201580047607422 0.1698399782180786
vt 0.3197380006313324 0.1683809757232666
vt 0.3360750079154968 0.15864700078964233
vt 0.29128798842430115 0.1988700032234192
vt 0.28981301188468933 0.1974790096282959
vt 0.3049040138721466 0.1772189736366272
vt 0.3062480092048645 0.1787099838256836
vt 0.36117398738861084 0.19826799631118774
vt 0.35640600323677063 0.20037198066711426
vt 0.35482698678970337 0.2147899866104126
vt 0.35750898718833923 0.21479099988937378
vt 0.3801650106906891 0.21519500017166138
vt 0.36733898520469666 0.21521198749542236
vt 0.3630070090293884 0.18836700916290283
vt 0.37308698892593384 0.1809070110321045
vt 0.3481850028038025 0.19554901123046875
vt 0.3459959924221039 0.1979680061340332
vt 0.3597480058670044 0.1646680235862732
vt 0.3544520139694214 0.1728540062904358
vt 0.33021000027656555 0.19772297143936157
vt 0.3305230140686035 0.19988900423049927
vt 0.33778199553489685 0.19607102870941162
vt 0.33793601393699646 0.19340300559997559
vt 0.32270801067352295 0.17659997940063477
vt 0.3373039960861206 0.16750502586364746
vt 0.33865100145339966 0.17299199104309082
vt 0.3245899975299835 0.1815890073776245
vt 0.3231939971446991 0.20164597034454346
vt 0.3174160122871399 0.20873099565505981
vt 0.3205280005931854 0.2095019817352295
vt 0.3239319920539856 0.20335501432418823
vt 0.3097270131111145 0.20412802696228027
vt 0.3018980026245117 0.20189499855041504
vt 0.3094559907913208 0.1848580241203308
vt 0.3118230104446411 0.1893939971923828
vt 0.3078460097312927 0.216854989528656
vt 0.2923299968242645 0.21661299467086792
vt 0.269338995218277 0.21498197317123413
vt 0.27130401134490967 0.21628499031066895
vt 0.3124240040779114 0.2148510217666626
vt 0.3175880014896393 0.21481198072433472
vt 0.3229759931564331 0.21477198600769043
vt 0.3237760066986084 0.21030700206756592
vt 0.3247019946575165 0.20513802766799927
vt 0.3308500051498413 0.20214802026748657
vt 0.3376210033893585 0.19885599613189697
vt 0.3437120020389557 0.2004920244216919
vt 0.3514310121536255 0.2025660276412964
vt 0.3520280122756958 0.2147899866104126
vt 0.2889209985733032 0.2993149757385254
vt 0.2574610114097595 0.2970309853553772
vt 0.2762869894504547 0.27821701765060425
vt 0.26721200346946716 0.2761949896812439
vt 0.2576189935207367 0.27495700120925903
vt 0.2806119918823242 0.3180050253868103
vt 0.25753799080848694 0.3221079707145691
vt 0.2675020098686218 0.17128300666809082
vt 0.2688930034637451 0.17129802703857422
vt 0.27483201026916504 0.14496499300003052
vt 0.27361899614334106 0.14433801174163818
vt 0.2736609876155853 0.20092898607254028
vt 0.27483201026916504 0.200236976146698
vt 0.28130200505256653 0.3231019973754883
vt 0.2575269937515259 0.32665300369262695
vt 0.29281800985336304 0.299685001373291
vt 0.2803120017051697 0.27497798204421997
vt 0.26930299401283264 0.2714409828186035
vt 0.25773701071739197 0.26932501792907715
vt 0.22632800042629242 0.2992960214614868
vt 0.2388170063495636 0.27813100814819336
vt 0.2481430023908615 0.27631497383117676
vt 0.2345380038022995 0.317874014377594
vt 0.2747940123081207 0.14493900537490845
vt 0.2688570022583008 0.17126798629760742
vt 0.2674640119075775 0.1712530255317688
vt 0.27358201146125793 0.14431297779083252
vt 0.2747940123081207 0.20020097494125366
vt 0.2736240029335022 0.20089298486709595
vt 0.2338400036096573 0.32296597957611084
vt 0.22246800363063812 0.29963797330856323
vt 0.23483699560165405 0.2747129797935486
vt 0.2462259978055954 0.2714419960975647
vt 0.28739801049232483 0.049636006355285645
vt 0.2719630002975464 0.04937398433685303
vt 0.2744449973106384 0.06715500354766846
vt 0.28895100951194763 0.06601399183273315
vt 0.2925249934196472 0.1236569881439209
vt 0.29369598627090454 0.13908398151397705
vt 0.27978599071502686 0.13787001371383667
vt 0.27865099906921387 0.12331998348236084
vt 0.2912760078907013 0.11064201593399048
vt 0.2766610085964203 0.1096460223197937
vt 0.3313229978084564 0.06207001209259033
vt 0.3312619924545288 0.04069101810455322
vt 0.3082279860973358 0.0447310209274292
vt 0.3096800148487091 0.061921000480651855
vt 0.3381499946117401 0.11540400981903076
vt 0.3108829855918884 0.12178999185562134
vt 0.30998000502586365 0.11088401079177856
vt 0.33212000131607056 0.10121297836303711
vt 0.33217599987983704 0.1376209855079651
vt 0.31192299723625183 0.138899028301239
vt 0.29388201236724854 0.14639699459075928
vt 0.2800230085849762 0.14608001708984375
vt 0.3304769992828369 0.14626699686050415
vt 0.3119660019874573 0.14603400230407715
vt 0.33059701323509216 0.07777899503707886
vt 0.310263991355896 0.0773090124130249
vt 0.276980996131897 0.08241301774978638
vt 0.2907570004463196 0.08001202344894409
vt 0.2876400053501129 0.03802001476287842
vt 0.2881700098514557 0.027257978916168213
vt 0.2733530104160309 0.025738000869750977
vt 0.2718200087547302 0.03759700059890747
vt 0.30752700567245483 0.03278398513793945
vt 0.3314090073108673 0.0268629789352417
vt 0.3297390043735504 0.01998800039291382
vt 0.30687499046325684 0.024827003479003906
vt 0.373526006937027 0.06339997053146362
vt 0.3597579896450043 0.06187397241592407
vt 0.3592590093612671 0.08169698715209961
vt 0.3732909858226776 0.08241301774978638
vt 0.3726849853992462 0.050478994846343994
vt 0.3587540090084076 0.048645973205566406
vt 0.35847699642181396 0.03679001331329346
vt 0.3723289966583252 0.03933298587799072
vt 0.369610995054245 0.027750015258789062
vt 0.35565099120140076 0.02428901195526123
vt 0.103473000228405 0.9632439985871315
vt 0.09677600115537643 0.9415990002453327
vt 0.12463100254535675 0.9420400001108646
vt 0.1241850033402443 0.9723829999566078
vt 0.3654159903526306 0.0959010124206543
vt 0.36535999178886414 0.105538010597229
vt 0.34994998574256897 0.10521602630615234
vt 0.3515399992465973 0.09290498495101929
vt 0.36640799045562744 0.13284099102020264
vt 0.35187599062919617 0.13952398300170898
vt 0.35079801082611084 0.11989402770996094
vt 0.3658210039138794 0.12006902694702148
vt 0.09467100352048874 0.7307179868221283
vt 0.11960499733686447 0.7197250127792358
vt 0.11941300332546234 0.7375220060348511
vt 0.0974309965968132 0.7449359893798828
vt 0.38996800780296326 0.08208400011062622
vt 0.3906190097332001 0.06265002489089966
vt 0.3864859938621521 0.06330299377441406
vt 0.3862360119819641 0.08227300643920898
vt 0.38677600026130676 0.046742022037506104
vt 0.3831540048122406 0.04873901605606079
vt 0.3840920031070709 0.02708500623703003
vt 0.3802129924297333 0.03732597827911377
vt 0.38499099016189575 0.03567802906036377
vt 0.37904900312423706 0.10467201471328735
vt 0.3799459934234619 0.0942000150680542
vt 0.38308799266815186 0.1024860143661499
vt 0.3874799907207489 0.12753897905349731
vt 0.3803049921989441 0.1300550103187561
vt 0.3796530067920685 0.11725002527236938
vt 0.3851749897003174 0.11445897817611694
vt 0.1433349996805191 0.7175849974155426
vt 0.1551869958639145 0.7154079973697662
vt 0.153206005692482 0.7352119982242584
vt 0.14012199640274048 0.7369979918003082
vt 0.3439820110797882 0.06196701526641846
vt 0.34451499581336975 0.07961297035217285
vt 0.34394198656082153 0.03924298286437988
vt 0.34089401364326477 0.02586597204208374
vt 0.3458169996738434 0.015291988849639893
vt 0.3377070128917694 0.017692983150482178
vt 0.3417550027370453 0.09689098596572876
vt 0.34474998712539673 0.14698398113250732
vt 0.14541099965572357 0.9637570008635521
vt 0.1545100063085556 0.9424850009381771
vt 0.3360779881477356 0.0882980227470398
vt 0.34229499101638794 0.08238297700881958
vt 0.3088639974594116 0.10368597507476807
vt 0.33014699816703796 0.09431201219558716
vt 0.29086199402809143 0.10178101062774658
vt 0.27631399035453796 0.10006099939346313
vt 0.10388199985027313 0.9204040020704269
vt 0.1250150054693222 0.9119680002331734
vt 0.14593100547790527 0.9210169985890388
vt 0.40404099225997925 0.10575002431869507
vt 0.4009310007095337 0.09989398717880249
vt 0.3957130014896393 0.09211200475692749
vt 0.39294400811195374 0.08792400360107422
vt 0.40018200874328613 0.025331974029541016
vt 0.39714300632476807 0.021230995655059814
vt 0.4086410105228424 0.03927797079086304
vt 0.4057210087776184 0.03331601619720459
vt 0.2860729992389679 0.1712309718132019
vt 0.2860740125179291 0.17465102672576904
vt 0.2805970013141632 0.17529600858688354
vt 0.2794939875602722 0.1712309718132019
vt 0.2810260057449341 0.18712198734283447
vt 0.280117005109787 0.18056398630142212
vt 0.28607499599456787 0.18057000637054443
vt 0.2864829897880554 0.18773597478866577
vt 0.2939850091934204 0.1712309718132019
vt 0.2937510013580322 0.1748170256614685
vt 0.29326900839805603 0.18057000637054443
vt 0.29331299662590027 0.18713802099227905
vt 0.2994289994239807 0.1712309718132019
vt 0.30007100105285645 0.17719197273254395
vt 0.2982180118560791 0.18402099609375
vt 0.2765910029411316 0.18246197700500488
vt 0.27320998907089233 0.17374402284622192
vt 0.2742759883403778 0.17689001560211182
vt 0.08221200108528137 0.7435919940471649
vt 0.3292880058288574 0.15320497751235962
vt 0.311612993478775 0.1528339982032776
vt 0.2936060130596161 0.15258699655532837
vt 0.2798919975757599 0.15252500772476196
vt 0.27379998564720154 0.1712309718132019
vt 0.2710759937763214 0.17808997631072998
vt 0.27332499623298645 0.1844630241394043
vt 0.2738330066204071 0.18415802717208862
vt 0.27164798974990845 0.17796599864959717
vt 0.3913480043411255 0.08201301097869873
vt 0.3919450044631958 0.062794029712677
vt 0.27715298533439636 0.18902701139450073
vt 0.2797189950942993 0.1909480094909668
vt 0.27987998723983765 0.19040000438690186
vt 0.277552992105484 0.18858599662780762
vt 0.27049699425697327 0.17378300428390503
vt 0.2716450095176697 0.17372602224349976
vt 0.2707720100879669 0.17079901695251465
vt 0.2713660001754761 0.17079901695251465
vt 0.1512710005044937 0.7549369931221008
vt 0.14014600217342377 0.7549770027399063
vt 0.11982599645853043 0.7550289928913116
vt 0.09885799884796143 0.7550369948148727
vt 0.07785599678754807 0.7551500052213669
vt 0.3421179950237274 0.15360498428344727
vt 0.27455100417137146 0.06717097759246826
vt 0.27211499214172363 0.049497008323669434
vt 0.2871769964694977 0.04967701435089111
vt 0.28878599405288696 0.06596100330352783
vt 0.2925809919834137 0.12385702133178711
vt 0.2786810100078583 0.12350797653198242
vt 0.27986401319503784 0.1379910111427307
vt 0.2937690019607544 0.13919800519943237
vt 0.2912899851799011 0.11087197065353394
vt 0.27661100029945374 0.10984700918197632
vt 0.3309609889984131 0.062277019023895264
vt 0.30916398763656616 0.061942994594573975
vt 0.3074769973754883 0.04477202892303467
vt 0.3306800127029419 0.04066497087478638
vt 0.30998799204826355 0.11112600564956665
vt 0.31094399094581604 0.12200498580932617
vt 0.33817601203918457 0.11557197570800781
vt 0.33224400877952576 0.10137301683425903
vt 0.31199800968170166 0.13902997970581055
vt 0.33216699957847595 0.13773202896118164
vt 0.2800869941711426 0.14618897438049316
vt 0.2939479947090149 0.14650297164916992
vt 0.3120180070400238 0.14614099264144897
vt 0.3304600119590759 0.14636701345443726
vt 0.33041200041770935 0.07796001434326172
vt 0.31000199913978577 0.07732498645782471
vt 0.2770270109176636 0.08239001035690308
vt 0.29058700799942017 0.07992297410964966
vt 0.2732599973678589 0.026103973388671875
vt 0.28807899355888367 0.027562975883483887
vt 0.28738999366760254 0.0382310152053833
vt 0.27195000648498535 0.03788101673126221
vt 0.32930099964141846 0.019815027713775635
vt 0.3308489918708801 0.026665985584259033
vt 0.3068050146102905 0.03283601999282837
vt 0.30636900663375854 0.024954020977020264
vt 0.3592660129070282 0.08181798458099365
vt 0.36012399196624756 0.06197899580001831
vt 0.3738909959793091 0.06338602304458618
vt 0.37344399094581604 0.08239001035690308
vt 0.3591980040073395 0.04865002632141113
vt 0.37319299578666687 0.05050098896026611
vt 0.36967000365257263 0.027574002742767334
vt 0.3727189898490906 0.03924298286437988
vt 0.3587630093097687 0.036606013774871826
vt 0.35569098591804504 0.02403700351715088
vt 0.12505699694156647 0.18921297788619995
vt 0.09719999879598618 0.1891459822654724
vt 0.10429099947214127 0.1676260232925415
vt 0.12516500055789948 0.15886497497558594
vt 0.3654929995536804 0.09599101543426514
vt 0.35168299078941345 0.09300601482391357
vt 0.35003501176834106 0.10533702373504639
vt 0.3654020130634308 0.10562402009963989
vt 0.3507840037345886 0.12001901865005493
vt 0.35186299681663513 0.13965201377868652
vt 0.36639800667762756 0.13297700881958008
vt 0.36579498648643494 0.12019097805023193
vt 0.09500999748706818 0.779216006398201
vt 0.09755600243806839 0.7651149928569794
vt 0.11952300369739532 0.7723899930715561
vt 0.11978500336408615 0.7900310009717941
vt 0.38998499512672424 0.08188700675964355
vt 0.38623499870300293 0.0820930004119873
vt 0.3866629898548126 0.06320101022720337
vt 0.3907110095024109 0.06253302097320557
vt 0.3836359977722168 0.04872399568557739
vt 0.3871859908103943 0.0467110276222229
vt 0.38413798809051514 0.027010023593902588
vt 0.3854120075702667 0.03566497564315796
vt 0.38073500990867615 0.03732699155807495
vt 0.37911099195480347 0.1047239899635315
vt 0.3831239938735962 0.10253697633743286
vt 0.3799859881401062 0.09427398443222046
vt 0.3796600103378296 0.11731600761413574
vt 0.3803420066833496 0.13018900156021118
vt 0.38753899931907654 0.12765902280807495
vt 0.385206013917923 0.11451798677444458
vt 0.1433809995651245 0.7920729964971542
vt 0.14013700187206268 0.7728240042924881
vt 0.15317599475383759 0.7745530009269714
vt 0.1551869958639145 0.7942059934139252
vt 0.344404011964798 0.07981902360916138
vt 0.3439120054244995 0.06215900182723999
vt 0.3438799977302551 0.039130985736846924
vt 0.3406899869441986 0.025561988353729248
vt 0.3456299901008606 0.01506197452545166
vt 0.33736199140548706 0.017524003982543945
vt 0.3419030010700226 0.09703397750854492
vt 0.34475600719451904 0.14709901809692383
vt 0.14622999727725983 0.16787898540496826
vt 0.15493999421596527 0.18931299448013306
vt 0.34240099787712097 0.08246797323226929
vt 0.33619800209999084 0.088375985622406
vt 0.33026498556137085 0.09442800283432007
vt 0.30895400047302246 0.10383599996566772
vt 0.2907809913158417 0.10197597742080688
vt 0.27625998854637146 0.10018801689147949
vt 0.1039159968495369 0.21046698093414307
vt 0.124890998005867 0.2192869782447815
vt 0.14597000181674957 0.21062099933624268
vt 0.40411901473999023 0.10583502054214478
vt 0.4009679853916168 0.09996700286865234
vt 0.3957020044326782 0.09220802783966064
vt 0.3929550051689148 0.0880429744720459
vt 0.3971630036830902 0.0212399959564209
vt 0.40018799901008606 0.025394022464752197
vt 0.405582994222641 0.03325700759887695
vt 0.4084169864654541 0.03918898105621338
vt 0.2805970013141632 0.16716498136520386
vt 0.2860740125179291 0.16781002283096313
vt 0.2810260057449341 0.1553400158882141
vt 0.2864829897880554 0.15472501516342163
vt 0.28607499599456787 0.16189199686050415
vt 0.280117005109787 0.16189801692962646
vt 0.2937520146369934 0.16764497756958008
vt 0.29331299662590027 0.15532302856445312
vt 0.29326900839805603 0.16189199686050415
vt 0.30007100105285645 0.16526997089385986
vt 0.2982180118560791 0.15844100713729858
vt 0.2765910029411316 0.1600000262260437
vt 0.2732110023498535 0.16871798038482666
vt 0.2742759883403778 0.16557198762893677
vt 0.08239299803972244 0.7666800022125244
vt 0.31167298555374146 0.1529420018196106
vt 0.3293049931526184 0.15331202745437622
vt 0.29366400837898254 0.1527000069618225
vt 0.27994200587272644 0.15264499187469482
vt 0.2710759937763214 0.16350698471069336
vt 0.27164798974990845 0.16363102197647095
vt 0.2738330066204071 0.15744000673294067
vt 0.27332499623298645 0.15713399648666382
vt 0.3919920027256012 0.06266099214553833
vt 0.3913550078868866 0.0818219780921936
vt 0.27715399861335754 0.15257102251052856
vt 0.2775540053844452 0.1530119776725769
vt 0.27987998723983765 0.15119802951812744
vt 0.2797189950942993 0.1506500244140625
vt 0.27049800753593445 0.16781502962112427
vt 0.2716450095176697 0.16787099838256836
vt 0.3421509861946106 0.15372198820114136

usemtl Material

f 1/1/1 2/2/2 3/3/3
f 3/3/3 4/4/4 1/1/1
f 5/5/5 6/6/6 7/7/7
f 7/7/7 3/3/3 5/5/5
f 8/8/8 9/9/9 10/10/10
f 10/10/10 11/11/11 8/8/8
f 12/12/12 13/13/13 14/14/14
f 14/14/14 15/15/15 12/12/12
f 16/16/16 17/17/17 18/18/18
f 18/18/18 19/19/19 16/16/16
f 20/20/20 21/21/21 22/22/22
f 22/22/22 23/23/23 20/20/20
f 18/18/18 17/17/17 24/24/24
f 24/24/24 25/25/25 18/18/18
f 26/26/26 27/27/27 20/20/20
f 20/20/20 23/23/23 26/26/26
f 28/28/28 29/29/29 30/30/30
f 30/30/30 31/31/31 28/28/28
f 32/32/32 33/33/33 34/34/34
f 34/34/34 35/35/35 32/32/32
f 36/36/36 37/37/37 38/38/38
f 38/38/38 39/39/39 36/36/36
f 40/40/40 41/41/41 42/42/42
f 42/42/42 43/43/43 40/40/40
f 35/35/35 34/34/34 27/27/27
f 27/27/27 26/26/26 35/35/35
f 7/7/7 6/6/6 9/9/9
f 9/9/9 8/8/8 7/7/7
f 24/24/24 28/28/28 31/31/31
f 31/31/31 25/25/25 24/24/24
f 44/44/44 40/40/40 43/43/43
f 43/43/43 45/45/45 44/44/44
f 12/12/12 15/15/15 46/46/46
f 46/46/46 47/47/47 12/12/12
f 39/39/39 38/38/38 48/48/48
f 48/48/48 49/49/49 39/39/39
f 42/42/42 41/41/41 33/33/33
f 33/33/33 32/32/32 42/42/42
f 10/10/10 14/14/14 13/13/13
f 13/13/13 11/11/11 10/10/10
f 29/29/29 37/37/37 36/36/36
f 36/36/36 30/30/30 29/29/29
f 45/45/45 43/43/43 12/12/12
f 12/12/12 47/47/47 45/45/45
f 43/43/43 42/42/42 13/13/13
f 13/13/13 12/12/12 43/43/43
f 13/13/13 42/42/42 32/32/32
f 32/32/32 11/11/11 13/13/13
f 11/11/11 32/32/32 35/35/35
f 35/35/35 8/8/8 11/11/11
f 8/8/8 35/35/35 26/26/26
f 26/26/26 7/7/7 8/8/8
f 7/7/7 26/26/26 23/23/23
f 23/23/23 3/3/3 7/7/7
f 3/3/3 23/23/23 22/22/22
f 22/22/22 4/4/4 3/3/3
f 38/38/38 50/50/50 51/51/51
f 51/51/51 48/48/48 38/38/38
f 37/37/37 52/52/52 50/50/50
f 50/50/50 38/38/38 37/37/37
f 53/53/53 52/52/52 37/37/37
f 37/37/37 29/29/29 53/53/53
f 54/54/54 53/53/53 29/29/29
f 29/29/29 28/28/28 54/54/54
f 55/55/55 54/54/54 28/28/28
f 28/28/28 24/24/24 55/55/55
f 17/17/17 56/56/56 55/55/55
f 55/55/55 24/24/24 17/17/17
f 16/16/16 57/57/57 56/56/56
f 56/56/56 17/17/17 16/16/16
f 58/58/58 59/59/59 60/60/60
f 60/60/60 61/61/61 58/58/58
f 62/62/62 63/63/63 64/64/64
f 64/64/64 58/58/58 62/62/62
f 65/65/65 66/66/66 67/67/67
f 67/67/67 68/68/68 65/65/65
f 69/69/69 70/70/70 71/71/71
f 71/71/71 72/72/72 69/69/69
f 73/73/73 74/74/74 75/75/75
f 75/75/75 76/76/76 73/73/73
f 77/77/77 78/78/78 79/79/79
f 79/79/79 80/80/80 77/77/77
f 73/73/73 81/81/81 82/82/82
f 82/82/82 74/74/74 73/73/73
f 83/83/83 80/80/80 79/79/79
f 79/79/79 84/84/84 83/83/83
f 85/85/85 86/86/86 87/87/87
f 87/87/87 88/88/88 85/85/85
f 89/89/89 90/90/90 91/91/91
f 91/91/91 92/92/92 89/89/89
f 93/93/93 94/94/94 95/95/95
f 95/95/95 96/96/96 93/93/93
f 97/97/97 98/98/98 99/99/99
f 99/99/99 100/100/100 97/97/97
f 90/90/90 83/83/83 84/84/84
f 84/84/84 91/91/91 90/90/90
f 62/62/62 65/65/65 68/68/68
f 68/68/68 63/63/63 62/62/62
f 88/88/88 87/87/87 82/82/82
f 82/82/82 81/81/81 88/88/88
f 101/101/101 102/102/102 98/98/98
f 98/98/98 97/97/97 101/101/101
f 103/103/103 70/70/70 69/69/69
f 69/69/69 104/104/104 103/103/103
f 94/94/94 105/105/105 106/106/106
f 106/106/106 95/95/95 94/94/94
f 99/99/99 89/89/89 92/92/92
f 92/92/92 100/100/100 99/99/99
f 72/72/72 71/71/71 67/67/67
f 67/67/67 66/66/66 72/72/72
f 93/93/93 96/96/96 86/86/86
f 86/86/86 85/85/85 93/93/93
f 102/102/102 104/104/104 69/69/69
f 69/69/69 98/98/98 102/102/102
f 98/98/98 69/69/69 72/72/72
f 72/72/72 99/99/99 98/98/98
f 72/72/72 66/66/66 89/89/89
f 89/89/89 99/99/99 72/72/72
f 66/66/66 65/65/65 90/90/90
f 90/90/90 89/89/89 66/66/66
f 65/65/65 62/62/62 83/83/83
f 83/83/83 90/90/90 65/65/65
f 62/62/62 58/58/58 80/80/80
f 80/80/80 83/83/83 62/62/62
f 58/58/58 61/61/61 77/77/77
f 77/77/77 80/80/80 58/58/58
f 95/95/95 106/106/106 107/107/107
f 107/107/107 108/108/108 95/95/95
f 96/96/96 95/95/95 108/108/108
f 108/108/108 109/109/109 96/96/96
f 96/96/96 109/109/109 110/110/110
f 110/110/110 86/86/86 96/96/96
f 86/86/86 110/110/110 111/111/111
f 111/111/111 87/87/87 86/86/86
f 87/87/87 111/111/111 112/112/112
f 112/112/112 82/82/82 87/87/87
f 74/74/74 82/82/82 112/112/112
f 112/112/112 113/113/113 74/74/74
f 75/75/75 74/74/74 113/113/113
f 113/113/113 114/114/114 75/75/75
f 115/115/115 116/116/116 117/117/117
f 117/117/117 116/116/116 118/118/118
f 119/119/119 118/118/118 116/116/116
f 120/120/120 121/121/121 116/116/116
f 116/116/116 115/115/115 120/120/120
f 122/122/122 123/123/123 124/124/124
f 124/124/124 125/125/125 122/122/122
f 126/126/126 127/127/127 123/123/123
f 123/123/123 122/122/122 126/126/126
f 121/121/121 120/120/120 128/128/128
f 128/128/128 129/129/129 121/121/121
f 120/120/120 115/115/115 130/130/130
f 130/130/130 128/128/128 120/120/120
f 115/115/115 117/117/117 131/131/131
f 131/131/131 130/130/130 115/115/115
f 117/117/117 118/118/118 132/132/132
f 132/132/132 131/131/131 117/117/117
f 118/118/118 119/119/119 133/133/133
f 133/133/133 132/132/132 118/118/118
f 134/134/134 135/135/135 116/116/116
f 135/135/135 136/136/136 116/116/116
f 119/119/119 116/116/116 136/136/136
f 137/137/137 134/134/134 116/116/116
f 116/116/116 121/121/121 137/137/137
f 138/138/138 139/139/139 140/140/140
f 140/140/140 141/141/141 138/138/138
f 139/139/139 142/142/142 143/143/143
f 143/143/143 140/140/140 139/139/139
f 121/121/121 129/129/129 144/144/144
f 144/144/144 137/137/137 121/121/121
f 137/137/137 144/144/144 145/145/145
f 145/145/145 134/134/134 137/137/137
f 134/134/134 145/145/145 146/146/146
f 146/146/146 135/135/135 134/134/134
f 135/135/135 146/146/146 147/147/147
f 147/147/147 136/136/136 135/135/135
f 136/136/136 147/147/147 133/133/133
f 133/133/133 119/119/119 136/136/136
f 148/148/148 149/149/149 150/150/150
f 150/150/150 151/151/151 148/148/148
f 152/152/152 153/153/153 154/154/154
f 154/154/154 155/155/155 152/152/152
f 156/156/156 152/152/152 155/155/155
f 155/155/155 157/157/157 156/156/156
f 158/158/158 159/159/159 160/160/160
f 160/160/160 161/161/161 158/158/158
f 162/162/162 163/163/163 164/164/164
f 164/164/164 165/165/165 162/162/162
f 166/166/166 167/167/167 163/163/163
f 163/163/163 162/162/162 166/166/166
f 153/153/153 168/168/168 169/169/169
f 169/169/169 154/154/154 153/153/153
f 167/167/167 166/166/166 170/170/170
f 170/170/170 171/171/171 167/167/167
f 172/172/172 158/158/158 161/161/161
f 161/161/161 173/173/173 172/172/172
f 151/151/151 150/150/150 174/174/174
f 174/174/174 175/175/175 151/151/151
f 176/176/176 177/177/177 178/178/178
f 178/178/178 179/179/179 176/176/176
f 180/180/180 181/181/181 182/182/182
f 182/182/182 183/183/183 180/180/180
f 176/176/176 179/179/179 149/149/149
f 149/149/149 148/148/148 176/176/176
f 159/159/159 181/181/181 180/180/180
f 180/180/180 160/160/160 159/159/159
f 184/184/184 185/185/185 186/186/186
f 186/186/186 187/187/187 184/184/184
f 188/188/188 189/189/189 185/185/185
f 185/185/185 184/184/184 188/188/188
f 190/190/190 191/191/191 192/192/192
f 192/192/192 193/193/193 190/190/190
f 194/194/194 195/195/195 196/196/196
f 196/196/196 197/197/197 194/194/194
f 198/198/198 199/199/199 200/200/200
f 200/200/200 201/201/201 198/198/198
f 202/202/202 203/203/203 204/204/204
f 204/204/204 205/205/205 202/202/202
f 206/206/206 207/207/207 208/208/208
f 208/208/208 209/209/209 206/206/206
f 210/210/210 211/211/211 212/212/212
f 212/212/212 213/213/213 210/210/210
f 211/211/211 214/214/214 215/215/215
f 215/215/215 212/212/212 211/211/211
f 216/216/216 217/217/217 218/218/218
f 219/219/219 220/220/220 221/221/221
f 222/222/222 223/223/223 224/224/224
f 224/224/224 225/225/225 222/222/222
f 226/226/226 227/227/227 228/228/228
f 228/228/228 229/229/229 226/226/226
f 161/161/161 151/151/151 175/175/175
f 175/175/175 173/173/173 161/161/161
f 161/161/161 160/160/160 148/148/148
f 148/148/148 151/151/151 161/161/161
f 160/160/160 180/180/180 176/176/176
f 176/176/176 148/148/148 160/160/160
f 180/180/180 183/183/183 177/177/177
f 177/177/177 176/176/176 180/180/180
f 164/164/164 163/163/163 152/152/152
f 152/152/152 156/156/156 164/164/164
f 163/163/163 167/167/167 153/153/153
f 153/153/153 152/152/152 163/163/163
f 171/171/171 168/168/168 153/153/153
f 153/153/153 167/167/167 171/171/171
f 186/186/186 185/185/185 230/230/230
f 230/230/230 231/231/231 186/186/186
f 232/232/232 190/190/190 193/193/193
f 193/193/193 233/233/233 232/232/232
f 233/233/233 193/193/193 234/234/234
f 234/234/234 235/235/235 233/233/233
f 200/200/200 236/236/236 201/201/201
f 204/204/204 203/203/203 166/166/166
f 166/166/166 162/162/162 204/204/204
f 166/166/166 203/203/203 237/237/237
f 237/237/237 170/170/170 166/166/166
f 238/238/238 197/197/197 196/196/196
f 196/196/196 239/239/239 238/238/238
f 219/219/219 199/199/199 198/198/198
f 198/198/198 220/220/220 219/219/219
f 223/223/223 202/202/202 205/205/205
f 205/205/205 224/224/224 223/223/223
f 207/207/207 226/226/226 229/229/229
f 229/229/229 208/208/208 207/207/207
f 212/212/212 184/184/184 187/187/187
f 187/187/187 213/213/213 212/212/212
f 215/215/215 188/188/188 184/184/184
f 184/184/184 212/212/212 215/215/215
f 217/217/217 216/216/216 192/192/192
f 192/192/192 191/191/191 217/217/217
f 236/236/236 240/240/240 241/241/241
f 241/241/241 201/201/201 236/236/236
f 165/165/165 164/164/164 242/242/242
f 242/242/242 243/243/243 165/165/165
f 242/242/242 164/164/164 156/156/156
f 156/156/156 244/244/244 242/242/242
f 244/244/244 156/156/156 157/157/157
f 157/157/157 245/245/245 244/244/244
f 196/196/196 195/195/195 246/246/246
f 246/246/246 247/247/247 196/196/196
f 196/196/196 247/247/247 248/248/248
f 248/248/248 239/239/239 196/196/196
f 249/249/249 222/222/222 225/225/225
f 225/225/225 250/250/250 249/249/249
f 251/251/251 221/221/221 220/220/220
f 220/220/220 252/252/252 251/251/251
f 216/216/216 218/218/218 253/253/253
f 253/253/253 254/254/254 216/216/216
f 214/214/214 211/211/211 255/255/255
f 255/255/255 256/256/256 214/214/214
f 257/257/257 258/258/258 259/259/259
f 259/259/259 260/260/260 257/257/257
f 261/261/261 262/262/262 263/263/263
f 263/263/263 264/264/264 261/261/261
f 257/257/257 265/265/265 266/266/266
f 266/266/266 258/258/258 257/257/257
f 263/263/263 267/267/267 268/268/268
f 268/268/268 264/264/264 263/263/263
f 269/269/269 270/270/270 266/266/266
f 266/266/266 265/265/265 269/269/269
f 268/268/268 267/267/267 271/271/271
f 262/262/262 261/261/261 272/272/272
f 273/273/273 259/259/259 274/274/274
f 274/274/274 259/259/259 262/262/262
f 262/262/262 272/272/272 274/274/274
f 259/259/259 258/258/258 263/263/263
f 263/263/263 262/262/262 259/259/259
f 258/258/258 266/266/266 267/267/267
f 267/267/267 263/263/263 258/258/258
f 270/270/270 271/271/271 267/267/267
f 267/267/267 266/266/266 270/270/270
f 185/185/185 189/189/189 230/230/230
f 189/189/189 190/190/190 232/232/232
f 232/232/232 230/230/230 189/189/189
f 209/209/209 275/275/275 206/206/206
f 171/171/171 170/170/170 276/276/276
f 276/276/276 277/277/277 171/171/171
f 277/277/277 278/278/278 168/168/168
f 168/168/168 171/171/171 277/277/277
f 278/278/278 279/279/279 169/169/169
f 169/169/169 168/168/168 278/278/278
f 273/273/273 280/280/280 260/260/260
f 260/260/260 259/259/259 273/273/273
f 165/165/165 236/236/236 200/200/200
f 200/200/200 162/162/162 165/165/165
f 235/235/235 182/182/182 181/181/181
f 181/181/181 233/233/233 235/235/235
f 233/233/233 181/181/181 159/159/159
f 159/159/159 232/232/232 233/233/233
f 191/191/191 190/190/190 189/189/189
f 189/189/189 188/188/188 191/191/191
f 204/204/204 200/200/200 199/199/199
f 199/199/199 205/205/205 204/204/204
f 214/214/214 218/218/218 217/217/217
f 217/217/217 215/215/215 214/214/214
f 219/219/219 221/221/221 225/225/225
f 225/225/225 224/224/224 219/219/219
f 200/200/200 204/204/204 162/162/162
f 199/199/199 219/219/219 224/224/224
f 224/224/224 205/205/205 199/199/199
f 215/215/215 217/217/217 191/191/191
f 191/191/191 188/188/188 215/215/215
f 221/221/221 251/251/251 250/250/250
f 250/250/250 225/225/225 221/221/221
f 256/256/256 253/253/253 218/218/218
f 218/218/218 214/214/214 256/256/256
f 236/236/236 165/165/165 243/243/243
f 243/243/243 240/240/240 236/236/236
f 159/159/159 158/158/158 230/230/230
f 230/230/230 232/232/232 159/159/159
f 231/231/231 230/230/230 158/158/158
f 158/158/158 172/172/172 231/231/231
f 281/281/281 282/282/282 283/283/283
f 283/283/283 284/284/284 281/281/281
f 210/210/210 285/285/285 286/286/286
f 286/286/286 211/211/211 210/210/210
f 287/287/287 288/288/288 289/289/289
f 289/289/289 290/290/290 287/287/287
f 291/291/291 281/281/281 284/284/284
f 284/284/284 292/292/292 291/291/291
f 287/287/287 290/290/290 283/283/283
f 283/283/283 282/282/282 287/287/287
f 293/293/293 291/291/291 292/292/292
f 292/292/292 294/294/294 293/293/293
f 229/229/229 228/228/228 295/295/295
f 295/295/295 296/296/296 229/229/229
f 208/208/208 229/229/229 296/296/296
f 296/296/296 297/297/297 208/208/208
f 209/209/209 208/208/208 297/297/297
f 297/297/297 298/298/298 209/209/209
f 275/275/275 209/209/209 298/298/298
f 298/298/298 299/299/299 275/275/275
f 170/170/170 237/237/237 300/300/300
f 300/300/300 276/276/276 170/170/170
f 301/301/301 302/302/302 303/303/303
f 303/303/303 304/304/304 301/301/301
f 305/305/305 306/306/306 307/307/307
f 307/307/307 308/308/308 305/305/305
f 309/309/309 310/310/310 306/306/306
f 306/306/306 305/305/305 309/309/309
f 311/311/311 312/312/312 313/313/313
f 313/313/313 314/314/314 311/311/311
f 315/315/315 316/316/316 317/317/317
f 317/317/317 318/318/318 315/315/315
f 316/316/316 319/319/319 320/320/320
f 320/320/320 317/317/317 316/316/316
f 308/308/308 307/307/307 321/321/321
f 321/321/321 322/322/322 308/308/308
f 319/319/319 323/323/323 324/324/324
f 324/324/324 320/320/320 319/319/319
f 325/325/325 326/326/326 312/312/312
f 312/312/312 311/311/311 325/325/325
f 327/327/327 301/301/301 304/304/304
f 304/304/304 328/328/328 327/327/327
f 329/329/329 330/330/330 331/331/331
f 331/331/331 332/332/332 329/329/329
f 333/333/333 334/334/334 335/335/335
f 335/335/335 336/336/336 333/333/333
f 302/302/302 332/332/332 331/331/331
f 331/331/331 303/303/303 302/302/302
f 335/335/335 334/334/334 314/314/314
f 314/314/314 313/313/313 335/335/335
f 337/337/337 338/338/338 339/339/339
f 339/339/339 340/340/340 337/337/337
f 338/338/338 341/341/341 342/342/342
f 342/342/342 339/339/339 338/338/338
f 343/343/343 344/344/344 345/345/345
f 345/345/345 346/346/346 343/343/343
f 347/347/347 348/348/348 349/349/349
f 349/349/349 350/350/350 347/347/347
f 351/351/351 352/352/352 353/353/353
f 353/353/353 354/354/354 351/351/351
f 355/355/355 356/356/356 357/357/357
f 357/357/357 358/358/358 355/355/355
f 359/359/359 360/360/360 361/361/361
f 361/361/361 362/362/362 359/359/359
f 363/363/363 364/364/364 365/365/365
f 365/365/365 366/366/366 363/363/363
f 366/366/366 365/365/365 367/367/367
f 367/367/367 368/368/368 366/366/366
f 369/369/369 370/370/370 371/371/371
f 372/372/372 373/373/373 374/374/374
f 375/375/375 376/376/376 377/377/377
f 377/377/377 378/378/378 375/375/375
f 379/379/379 380/380/380 381/381/381
f 381/381/381 382/382/382 379/379/379
f 328/328/328 304/304/304 312/312/312
f 312/312/312 326/326/326 328/328/328
f 312/312/312 304/304/304 303/303/303
f 303/303/303 313/313/313 312/312/312
f 313/313/313 303/303/303 331/331/331
f 331/331/331 335/335/335 313/313/313
f 330/330/330 336/336/336 335/335/335
f 335/335/335 331/331/331 330/330/330
f 315/315/315 309/309/309 305/305/305
f 305/305/305 316/316/316 315/315/315
f 316/316/316 305/305/305 308/308/308
f 308/308/308 319/319/319 316/316/316
f 308/308/308 322/322/322 323/323/323
f 323/323/323 319/319/319 308/308/308
f 337/337/337 383/383/383 384/384/384
f 384/384/384 338/338/338 337/337/337
f 385/385/385 386/386/386 346/346/346
f 346/346/346 345/345/345 385/385/385
f 387/387/387 346/346/346 386/386/386
f 386/386/386 388/388/388 387/387/387
f 353/353/353 352/352/352 389/389/389
f 355/355/355 317/317/317 320/320/320
f 320/320/320 356/356/356 355/355/355
f 390/390/390 356/356/356 320/320/320
f 320/320/320 324/324/324 390/390/390
f 391/391/391 392/392/392 347/347/347
f 347/347/347 350/350/350 391/391/391
f 351/351/351 354/354/354 372/372/372
f 372/372/372 374/374/374 351/351/351
f 358/358/358 357/357/357 376/376/376
f 376/376/376 375/375/375 358/358/358
f 362/362/362 361/361/361 380/380/380
f 380/380/380 379/379/379 362/362/362
f 340/340/340 339/339/339 365/365/365
f 365/365/365 364/364/364 340/340/340
f 339/339/339 342/342/342 367/367/367
f 367/367/367 365/365/365 339/339/339
f 343/343/343 369/369/369 371/371/371
f 371/371/371 344/344/344 343/343/343
f 393/393/393 394/394/394 389/389/389
f 389/389/389 352/352/352 393/393/393
f 318/318/318 395/395/395 396/396/396
f 396/396/396 315/315/315 318/318/318
f 309/309/309 315/315/315 396/396/396
f 396/396/396 397/397/397 309/309/309
f 310/310/310 309/309/309 397/397/397
f 397/397/397 398/398/398 310/310/310
f 399/399/399 348/348/348 347/347/347
f 347/347/347 400/400/400 399/399/399
f 401/401/401 400/400/400 347/347/347
f 347/347/347 392/392/392 401/401/401
f 378/378/378 377/377/377 402/402/402
f 402/402/402 403/403/403 378/378/378
f 374/374/374 373/373/373 404/404/404
f 404/404/404 405/405/405 374/374/374
f 369/369/369 406/406/406 407/407/407
f 407/407/407 370/370/370 369/369/369
f 368/368/368 408/408/408 409/409/409
f 409/409/409 366/366/366 368/368/368
f 410/410/410 411/411/411 257/257/257
f 257/257/257 260/260/260 410/410/410
f 412/412/412 413/413/413 414/414/414
f 414/414/414 415/415/415 412/412/412
f 257/257/257 411/411/411 416/416/416
f 416/416/416 265/265/265 257/257/257
f 414/414/414 413/413/413 417/417/417
f 417/417/417 418/418/418 414/414/414
f 416/416/416 419/419/419 269/269/269
f 269/269/269 265/265/265 416/416/416
f 417/417/417 420/420/420 418/418/418
f 415/415/415 421/421/421 412/412/412
f 422/422/422 423/423/423 410/410/410
f 415/415/415 410/410/410 423/423/423
f 423/423/423 421/421/421 415/415/415
f 414/414/414 411/411/411 410/410/410
f 410/410/410 415/415/415 414/414/414
f 411/411/411 414/414/414 418/418/418
f 418/418/418 416/416/416 411/411/411
f 418/418/418 420/420/420 419/419/419
f 419/419/419 416/416/416 418/418/418
f 338/338/338 384/384/384 341/341/341
f 385/385/385 345/345/345 341/341/341
f 341/341/341 384/384/384 385/385/385
f 360/360/360 359/359/359 424/424/424
f 323/323/323 425/425/425 426/426/426
f 426/426/426 324/324/324 323/323/323
f 322/322/322 427/427/427 425/425/425
f 425/425/425 323/323/323 322/322/322
f 321/321/321 428/428/428 427/427/427
f 427/427/427 322/322/322 321/321/321
f 422/422/422 410/410/410 260/260/260
f 260/260/260 280/280/280 422/422/422
f 318/318/318 317/317/317 353/353/353
f 353/353/353 389/389/389 318/318/318
f 334/334/334 333/333/333 388/388/388
f 388/388/388 386/386/386 334/334/334
f 314/314/314 334/334/334 386/386/386
f 386/386/386 385/385/385 314/314/314
f 344/344/344 342/342/342 341/341/341
f 341/341/341 345/345/345 344/344/344
f 355/355/355 358/358/358 354/354/354
f 354/354/354 353/353/353 355/355/355
f 368/368/368 367/367/367 371/371/371
f 371/371/371 370/370/370 368/368/368
f 378/378/378 373/373/373 372/372/372
f 372/372/372 375/375/375 378/378/378
f 353/353/353 317/317/317 355/355/355
f 375/375/375 372/372/372 354/354/354
f 354/354/354 358/358/358 375/375/375
f 367/367/367 342/342/342 344/344/344
f 344/344/344 371/371/371 367/367/367
f 403/403/403 404/404/404 373/373/373
f 373/373/373 378/378/378 403/403/403
f 408/408/408 368/368/368 370/370/370
f 370/370/370 407/407/407 408/408/408
f 389/389/389 394/394/394 395/395/395
f 395/395/395 318/318/318 389/389/389
f 314/314/314 385/385/385 384/384/384
f 384/384/384 311/311/311 314/314/314
f 383/383/383 325/325/325 311/311/311
f 311/311/311 384/384/384 383/383/383
f 429/429/429 430/430/430 431/431/431
f 431/431/431 432/432/432 429/429/429
f 433/433/433 434/434/434 363/363/363
f 363/363/363 366/366/366 433/433/433
f 435/435/435 436/436/436 437/437/437
f 437/437/437 438/438/438 435/435/435
f 439/439/439 440/440/440 430/430/430
f 430/430/430 429/429/429 439/439/439
f 431/431/431 436/436/436 435/435/435
f 435/435/435 432/432/432 431/431/431
f 293/293/293 294/294/294 440/440/440
f 440/440/440 439/439/439 293/293/293
f 380/380/380 296/296/296 295/295/295
f 295/295/295 381/381/381 380/380/380
f 361/361/361 297/297/297 296/296/296
f 296/296/296 380/380/380 361/361/361
f 360/360/360 298/298/298 297/297/297
f 297/297/297 361/361/361 360/360/360
f 424/424/424 299/299/299 298/298/298
f 298/298/298 360/360/360 424/424/424
f 324/324/324 426/426/426 441/441/441
f 441/441/441 390/390/390 324/324/324