version 1.01
280
[0.3258,-0.0927669,0.270605][0.9454,0.0651999,0.3194][0.2095,0.2263,0][0.3024,0.232833,0.251905][0.9471,0.0950999,0.3064][0.1619,0.228,0][0.2083,0.237733,0.427105][0.776,0.0971999,0.6232][0.1608,0.1975,0][0.2083,0.237733,0.427105][0.776,0.0971999,0.6232][0.1608,0.1975,0][0.2147,-0.0978669,0.455505][0.7708,0.0805999,0.6319][0.2102,0.1946,0][0.3258,-0.0927669,0.270605][0.9454,0.0651999,0.3194][0.2095,0.2263,0][0.2147,-0.0978669,0.455505][0.7708,0.0805999,0.6319][0.2102,0.1946,0][0.2083,0.237733,0.427105][0.776,0.0971999,0.6232][0.1608,0.1975,0][0.0555001,0.240333,0.555705][0.481,0.1132,0.8694][0.1594,0.1646,0][0.0555001,0.240333,0.555705][0.481,0.1132,0.8694][0.1594,0.1646,0][0.0518001,-0.0985669,0.598705][0.5071,0.1158,0.8541][0.2103,0.1608,0][0.2147,-0.0978669,0.455505][0.7708,0.0805999,0.6319][0.2102,0.1946,0][0.0555001,0.240333,0.555705][0.481,0.1132,0.8694][0.1594,0.1646,0][-0.0745998,0.229533,0.594605][0.2605,0.134,0.9561][0.1597,0.1403,0][-0.0643998,-0.0984669,0.642605][0.2948,0.144,0.9446][0.2103,0.1394,0][-0.0643998,-0.0984669,0.642605][0.2948,0.144,0.9446][0.2103,0.1394,0][0.0518001,-0.0985669,0.598705][0.5071,0.1158,0.8541][0.2103,0.1608,0][0.0555001,0.240333,0.555705][0.481,0.1132,0.8694][0.1594,0.1646,0][0.1764,-0.104267,-0.354595][0.8557,0.0533999,-0.5147][0.2094,0.3227,0][0.1485,0.221533,-0.366295][0.8197,0.0747999,-0.5679][0.161,0.3269,0][0.1578,0.221833,-0.298195][0.9491,0.0762999,-0.3055][0.1608,0.3162,0][0.1578,0.221833,-0.298195][0.9491,0.0762999,-0.3055][0.1608,0.3162,0][0.1841,-0.101667,-0.285995][0.9662,0.0556999,-0.2517][0.2089,0.312,0][0.1764,-0.104267,-0.354595][0.8557,0.0533999,-0.5147][0.2094,0.3227,0][0.3505,-0.096567,0.073405][0.9872,0.0503999,-0.1513][0.2097,0.2543,0][0.1841,-0.101667,-0.285995][0.9662,0.0556999,-0.2517][0.2089,0.312,0][0.1578,0.221833,-0.298195][0.9491,0.0762999,-0.3055][0.1608,0.3162,0][0.1578,0.221833,-0.298195][0.9491,0.0762999,-0.3055][0.1608,0.3162,0][0.3253,0.227433,0.056105][0.9836,0.0829998,-0.1603][0.1623,0.257,0][0.3505,-0.096567,0.073405][0.9872,0.0503999,-0.1513][0.2097,0.2543,0][0.3253,0.227433,0.056105][0.9836,0.0829998,-0.1603][0.1623,0.257,0][0.3024,0.232833,0.251905][0.9471,0.0950999,0.3064][0.1619,0.228,0][0.3258,-0.0927669,0.270605][0.9454,0.0651999,0.3194][0.2095,0.2263,0][0.3258,-0.0927669,0.270605][0.9454,0.0651999,0.3194][0.2095,0.2263,0][0.3505,-0.096567,0.073405][0.9872,0.0503999,-0.1513][0.2097,0.2543,0][0.3253,0.227433,0.056105][0.9836,0.0829998,-0.1603][0.1623,0.257,0][-0.5,-0.0336668,0.045805][-1,1.50996e-007,0][0.7747,0.402,0][-0.5,0.217133,0.027605][-1,1.50996e-007,0][0.7752,0.394,0][-0.5,0.209333,-0.632495][-1,1.50996e-007,0][0.7869,0.3941,0][-0.5,0.209333,-0.632495][-1,1.50996e-007,0][0.7869,0.3941,0][-0.5,-0.102367,-0.634295][-1,1.50996e-007,0][0.7871,0.4022,0][-0.5,-0.0336668,0.045805][-1,1.50996e-007,0][0.7747,0.402,0][-0.5,1.11993,0.501505][-1,1.50996e-007,0][0.7706,0.3745,0][-0.5,1.15963,0.309005][-1,1.50996e-007,0][0.7729,0.3741,0][-0.5,0.816333,0.026105][-1,1.50996e-007,0][0.7758,0.3843,0][-0.5,0.816333,0.026105][-1,1.50996e-007,0][0.7758,0.3843,0][-0.5,0.888333,0.551405][-1,1.50996e-007,0][0.7661,0.381,0][-0.5,1.11993,0.501505][-1,1.50996e-007,0][0.7706,0.3745,0][-0.5,0.816333,0.026105][-1,1.50996e-007,0][0.7758,0.3843,0][-0.5,1.15963,0.309005][-1,1.50996e-007,0][0.7729,0.3741,0][-0.5,1.17483,0.0175049][-1,1.50996e-007,0][0.7761,0.3735,0][-0.0493997,1.14233,0.138705][0.1642,0.9859,0.0331][0.857,0.4059,0][-0.3839,1.19503,-0.0206951][-0.0259998,0.9988,-0.0423][0.8422,0.4112,0][-0.1724,1.16623,0.261005][0.1188,0.9873,0.1055][0.8515,0.4024,0][-0.3839,1.19503,-0.0206951][-0.0259998,0.9988,-0.0423][0.8422,0.4112,0][-0.1459,1.14103,-0.266295][0.1143,0.9808,-0.158][0.853,0.4184,0][-0.3046,1.14233,-0.334395][0.0324001,0.9835,-0.1782][0.846,0.4207,0][-0.3839,1.19503,-0.0206951][-0.0259998,0.9988,-0.0423][0.8422,0.4112,0][-0.0525997,1.14143,-0.167795][0.1622,0.9815,-0.1013][0.8571,0.4152,0][-0.1459,1.14103,-0.266295][0.1143,0.9808,-0.158][0.853,0.4184,0][-0.0187997,1.14233,-0.0517951][0.167,0.9856,-0.025][0.8585,0.4116,0][-0.3839,1.19503,-0.0206951][-0.0259998,0.9988,-0.0423][0.8422,0.4112,0][-0.0493997,1.14233,0.138705][0.1642,0.9859,0.0331][0.857,0.4059,0][-0.5,1.17483,0.0175049][-0.1297,0.9916,0.0004][0.837,0.4103,0][-0.5,1.15963,0.309005][-0.0479999,0.9884,0.1439][0.8369,0.4017,0][-0.3195,1.16623,0.296805][0.00350015,0.9881,0.154][0.8449,0.4015,0][-0.3195,1.16623,0.296805][0.00350015,0.9881,0.154][0.8449,0.4015,0][-0.3839,1.19503,-0.0206951][-0.0259998,0.9988,-0.0423][0.8422,0.4112,0][-0.5,1.17483,0.0175049][-0.1297,0.9916,0.0004][0.837,0.4103,0][-0.5,1.17483,0.0175049][-0.1297,0.9916,0.0004][0.837,0.4103,0][-0.3839,1.19503,-0.0206951][-0.0259998,0.9988,-0.0423][0.8422,0.4112,0][-0.5,1.13003,-0.355395][-0.0627998,0.9866,-0.1506][0.8373,0.4217,0][0.2546,-0.992467,0.512305][0.000199849,-1,-0.0007][0.8081,0.4571,0][-0.5,-0.992367,0.113005][0.000299849,-1,-0.0008][0.7879,0.4486,0][0.3579,-0.992367,0.336105][0.000199849,-1,-0.0007][0.8106,0.4523,0][0.0868,-0.992667,0.676605][9.9849e-005,-1,-0.0005][0.8039,0.462,0][-0.5,-0.992367,0.113005][0.000299849,-1,-0.0008][0.7879,0.4486,0][0.2546,-0.992467,0.512305][0.000199849,-1,-0.0007][0.8081,0.4571,0][-0.5,-0.992367,0.113005][0.000299849,-1,-0.0008][0.7879,0.4486,0][-0.0278,-0.992667,0.756905][-1.50996e-007,-1,-0.0005][0.8012,0.4644,0][-0.2328,-0.992667,0.815305][9.9849e-005,-1,-0.0005][0.7959,0.466,0][-0.2761,-0.991667,-0.593595][0.000299849,-1,-0.0009][0.793,0.4316,0][-0.1339,-0.991667,-0.581095][9.9849e-005,-1,-0.0009][0.796,0.431,0][-0.5,-0.992367,0.113005][0.000299849,-1,-0.0008][0.7879,0.4486,0][-0.1339,-0.991667,-0.581095][9.9849e-005,-1,-0.0009][0.796,0.431,0][0.0232,-0.991767,-0.520095][-0.00190015,-1,-0.0025][0.7996,0.4344,0][-0.5,-0.992367,0.113005][0.000299849,-1,-0.0008][0.7879,0.4486,0][0.2568,-0.990767,-0.270695][0.00639985,-0.9999,0.0085][0.8088,0.4396,0][-0.5,-0.992367,0.113005][0.000299849,-1,-0.0008][0.7879,0.4486,0][0.272,-0.991867,-0.347595][0.00419985,-1,0.0058][0.8058,0.437,0][0.3797,-0.992167,0.110205][0.000199849,-1,-0.0022][0.8138,0.4471,0][-0.5,-0.992367,0.113005][0.000299849,-1,-0.0008][0.7879,0.4486,0][0.2568,-0.990767,-0.270695][0.00639985,-0.9999,0.0085][0.8088,0.4396,0][0.3579,-0.992367,0.336105][0.000199849,-1,-0.0007][0.8106,0.4523,0][-0.5,-0.992367,0.113005][0.000299849,-1,-0.0008][0.7879,0.4486,0][0.3797,-0.992167,0.110205][0.000199849,-1,-0.0022][0.8138,0.4471,0][0.2491,-0.862567,0.514105][0.7826,0.0614999,0.6195][0.3175,0.1953,0][0.2347,-0.626367,0.504005][0.7794,0.0820999,0.6211][0.2852,0.194,0][0.0699,-0.624967,0.653505][0.5647,0.0939999,0.8199][0.2856,0.1656,0][0.0699,-0.624967,0.653505][0.5647,0.0939999,0.8199][0.2856,0.1656,0][0.079,-0.862267,0.670505][0.5956,0.0850999,0.7988][0.3177,0.172,0][0.2491,-0.862567,0.514105][0.7826,0.0614999,0.6195][0.3175,0.1953,0][-0.2466,-0.624067,0.759905][0.1566,0.1213,0.9802][0.2888,0.115,0][-0.2432,-0.862067,0.794705][0.1476,0.1333,0.98][0.3195,0.1229,0][-0.0393,-0.862167,0.739605][0.3821,0.1287,0.9151][0.3184,0.1537,0][-0.0393,-0.862167,0.739605][0.3821,0.1287,0.9151][0.3184,0.1537,0][-0.0460999,-0.624567,0.711005][0.3487,0.1128,0.9304][0.2865,0.1466,0][-0.2466,-0.624067,0.759905][0.1566,0.1213,0.9802][0.2888,0.115,0][-0.5,-0.864467,-0.634295][0.00380001,0.043,-0.9991][0.3212,0.446,0][-0.5,-0.636267,-0.631695][0.0602,0.0276,-0.9978][0.2895,0.4518,0][-0.3316,-0.636067,-0.622095][0.5383,0.0481999,-0.8414][0.2863,0.4222,0][-0.3316,-0.636067,-0.622095][0.5383,0.0481999,-0.8414][0.2863,0.4222,0][-0.3287,-0.864267,-0.635595][0.4475,0.0703999,-0.8915][0.3183,0.4183,0][-0.5,-0.864467,-0.634295][0.00380001,0.043,-0.9991][0.3212,0.446,0][0.00790006,-0.635367,-0.479295][0.3986,0.0121999,-0.917][0.2849,0.3565,0][0.0154,-0.864367,-0.489695][0.3447,0.1457,-0.9273][0.3171,0.3549,0][-0.1357,-0.864467,-0.539295][0.2583,0.1389,-0.956][0.3165,0.3808,0][-0.1357,-0.864467,-0.539295][0.2583,0.1389,-0.956][0.3165,0.3808,0][-0.1443,-0.635967,-0.546195][0.2511,0.0116,-0.9679][0.2845,0.3842,0][0.00790006,-0.635367,-0.479295][0.3986,0.0121999,-0.917][0.2849,0.3565,0][0.2543,-0.848267,-0.324295][0.9549,0.1655,-0.2466][0.3173,0.3061,0][0.2283,-0.633567,-0.326595][0.9417,0.1064,-0.3192][0.2864,0.311,0][0.2108,-0.632767,-0.258495][0.9924,0.0682999,-0.102][0.2853,0.3004,0][0.2108,-0.632767,-0.258495][0.9924,0.0682999,-0.102][0.2853,0.3004,0][0.2348,-0.856367,-0.255295][0.9928,0.0992998,-0.0672][0.317,0.2933,0][0.2543,-0.848267,-0.324295][0.9549,0.1655,-0.2466][0.3173,0.3061,0][0.3729,-0.863267,0.106905][0.9895,0.0643999,-0.1296][0.3176,0.242,0][0.2348,-0.856367,-0.255295][0.9928,0.0992998,-0.0672][0.317,0.2933,0][0.2108,-0.632767,-0.258495][0.9924,0.0682999,-0.102][0.2853,0.3004,0][0.2108,-0.632767,-0.258495][0.9924,0.0682999,-0.102][0.2853,0.3004,0][0.3701,-0.630067,0.100105][0.9899,0.0369999,-0.1368][0.2852,0.2474,0][0.3729,-0.863267,0.106905][0.9895,0.0643999,-0.1296][0.3176,0.242,0][0.353,-0.862867,0.329605][0.9511,0.0527999,0.3044][0.3175,0.2179,0][0.3729,-0.863267,0.106905][0.9895,0.0643999,-0.1296][0.3176,0.242,0][0.3701,-0.630067,0.100105][0.9899,0.0369999,-0.1368][0.2852,0.2474,0][0.3701,-0.630067,0.100105][0.9899,0.0369999,-0.1368][0.2852,0.2474,0][0.3416,-0.628067,0.311105][0.9477,0.0599999,0.3135][0.2851,0.2212,0][0.353,-0.862867,0.329605][0.9511,0.0527999,0.3044][0.3175,0.2179,0][0.2347,-0.626367,0.504005][0.7794,0.0820999,0.6211][0.2852,0.194,0][0.2491,-0.862567,0.514105][0.7826,0.0614999,0.6195][0.3175,0.1953,0][0.353,-0.862867,0.329605][0.9511,0.0527999,0.3044][0.3175,0.2179,0][0.353,-0.862867,0.329605][0.9511,0.0527999,0.3044][0.3175,0.2179,0][0.3416,-0.628067,0.311105][0.9477,0.0599999,0.3135][0.2851,0.2212,0][0.2347,-0.626367,0.504005][0.7794,0.0820999,0.6211][0.2852,0.194,0][0.2491,-0.862567,0.514105][0.7826,0.0614999,0.6195][0.3175,0.1953,0][0.2546,-0.992467,0.512305][0.7873,0.0456999,0.6149][0.3357,0.1954,0][0.3579,-0.992367,0.336105][0.9507,0.0469999,0.3067][0.3357,0.216,0][0.3579,-0.992367,0.336105][0.9507,0.0469999,0.3067][0.3357,0.216,0][0.353,-0.862867,0.329605][0.9511,0.0527999,0.3044][0.3175,0.2179,0][0.2491,-0.862567,0.514105][0.7826,0.0614999,0.6195][0.3175,0.1953,0][0.2546,-0.992467,0.512305][0.7873,0.0456999,0.6149][0.3357,0.1954,0][0.2491,-0.862567,0.514105][0.7826,0.0614999,0.6195][0.3175,0.1953,0][0.079,-0.862267,0.670505][0.5956,0.0850999,0.7988][0.3177,0.172,0][0.079,-0.862267,0.670505][0.5956,0.0850999,0.7988][0.3177,0.172,0][0.0868,-0.992667,0.676605][0.6158,0.0808999,0.7837][0.3357,0.1785,0][0.2546,-0.992467,0.512305][0.7873,0.0456999,0.6149][0.3357,0.1954,0][-0.2432,-0.862067,0.794705][0.1476,0.1333,0.98][0.3195,0.1229,0][-0.2328,-0.992667,0.815305][0.1497,0.1323,0.9798][0.3357,0.1287,0][-0.0278,-0.992667,0.756905][0.4067,0.1386,0.903][0.3357,0.1601,0][-0.0278,-0.992667,0.756905][0.4067,0.1386,0.903][0.3357,0.1601,0][-0.0393,-0.862167,0.739605][0.3821,0.1287,0.9151][0.3184,0.1537,0][-0.2432,-0.862067,0.794705][0.1476,0.1333,0.98][0.3195,0.1229,0][-0.3287,-0.864267,-0.635595][0.4475,0.0703999,-0.8915][0.3183,0.4183,0][-0.3279,-0.991667,-0.643695][0.3956,0.0763999,-0.9152][0.3357,0.4213,0][-0.5,-0.991667,-0.639095][-0.0169,0.0505,-0.9986][0.3357,0.4388,0][-0.5,-0.991667,-0.639095][-0.0169,0.0505,-0.9986][0.3357,0.4388,0][-0.5,-0.864467,-0.634295][0.00380001,0.043,-0.9991][0.3212,0.446,0][-0.3287,-0.864267,-0.635595][0.4475,0.0703999,-0.8915][0.3183,0.4183,0][0.0154,-0.864367,-0.489695][0.3447,0.1457,-0.9273][0.3171,0.3549,0][0.0232,-0.991767,-0.520095][0.3252,0.2692,-0.9065][0.3357,0.3597,0][-0.1339,-0.991667,-0.581095][0.2403,0.2514,-0.9376][0.3357,0.3802,0][-0.1339,-0.991667,-0.581095][0.2403,0.2514,-0.9376][0.3357,0.3802,0][-0.1357,-0.864467,-0.539295][0.2583,0.1389,-0.956][0.3165,0.3808,0][0.0154,-0.864367,-0.489695][0.3447,0.1457,-0.9273][0.3171,0.3549,0][0.2543,-0.848267,-0.324295][0.9549,0.1655,-0.2466][0.3173,0.3061,0][0.2348,-0.856367,-0.255295][0.9928,0.0992998,-0.0672][0.317,0.2933,0][0.2568,-0.990767,-0.270695][0.9928,0.1157,-0.0295][0.3357,0.2827,0][0.2568,-0.990767,-0.270695][0.9928,0.1157,-0.0295][0.3357,0.2827,0][0.272,-0.991867,-0.347595][0.9273,0.2221,-0.3012][0.3357,0.3186,0][0.2543,-0.848267,-0.324295][0.9549,0.1655,-0.2466][0.3173,0.3061,0][0.2568,-0.990767,-0.270695][0.9928,0.1157,-0.0295][0.3357,0.2827,0][0.2348,-0.856367,-0.255295][0.9928,0.0992998,-0.0672][0.317,0.2933,0][0.3729,-0.863267,0.106905][0.9895,0.0643999,-0.1296][0.3176,0.242,0][0.3729,-0.863267,0.106905][0.9895,0.0643999,-0.1296][0.3176,0.242,0][0.3797,-0.992167,0.110205][0.9896,0.0842998,-0.1162][0.3357,0.2365,0][0.2568,-0.990767,-0.270695][0.9928,0.1157,-0.0295][0.3357,0.2827,0][0.3729,-0.863267,0.106905][0.9895,0.0643999,-0.1296][0.3176,0.242,0][0.353,-0.862867,0.329605][0.9511,0.0527999,0.3044][0.3175,0.2179,0][0.3579,-0.992367,0.336105][0.9507,0.0469999,0.3067][0.3357,0.216,0][0.3579,-0.992367,0.336105][0.9507,0.0469999,0.3067][0.3357,0.216,0][0.3797,-0.992167,0.110205][0.9896,0.0842998,-0.1162][0.3357,0.2365,0][0.3729,-0.863267,0.106905][0.9895,0.0643999,-0.1296][0.3176,0.242,0][-0.5,-0.636267,-0.631695][0.0602,0.0276,-0.9978][0.2895,0.4518,0][-0.5,-0.359867,-0.632795][0.1179,0.00829998,-0.993][0.2482,0.4564,0][-0.337,-0.361667,-0.610595][0.609,0.0241999,-0.7928][0.2466,0.4265,0][-0.337,-0.361667,-0.610595][0.609,0.0241999,-0.7928][0.2466,0.4265,0][-0.3316,-0.636067,-0.622095][0.5383,0.0481999,-0.8414][0.2863,0.4222,0][-0.5,-0.636267,-0.631695][0.0602,0.0276,-0.9978][0.2895,0.4518,0][0.00790006,-0.635367,-0.479295][0.3986,0.0121999,-0.917][0.2849,0.3565,0][-0.1443,-0.635967,-0.546195][0.2511,0.0116,-0.9679][0.2845,0.3842,0][-0.1621,-0.361467,-0.560795][0.2214,-0.000400033,-0.9752][0.2453,0.389,0][-0.1621,-0.361467,-0.560795][0.2214,-0.000400033,-0.9752][0.2453,0.389,0][0.00160015,-0.375367,-0.473795][0.514,0.0291999,-0.8573][0.2479,0.3572,0][0.00790006,-0.635367,-0.479295][0.3986,0.0121999,-0.917][0.2849,0.3565,0][0.2283,-0.633567,-0.326595][0.9417,0.1064,-0.3192][0.2864,0.311,0][0.1998,-0.354867,-0.345495][0.8965,0.0710999,-0.4374][0.2463,0.3184,0][0.1948,-0.353967,-0.272595][0.9823,0.0495999,-0.1808][0.2457,0.3074,0][0.1948,-0.353967,-0.272595][0.9823,0.0495999,-0.1808][0.2457,0.3074,0][0.2108,-0.632767,-0.258495][0.9924,0.0682999,-0.102][0.2853,0.3004,0][0.2283,-0.633567,-0.326595][0.9417,0.1064,-0.3192][0.2864,0.311,0][0.3701,-0.630067,0.100105][0.9899,0.0369999,-0.1368][0.2852,0.2474,0][0.2108,-0.632767,-0.258495][0.9924,0.0682999,-0.102][0.2853,0.3004,0][0.1948,-0.353967,-0.272595][0.9823,0.0495999,-0.1808][0.2457,0.3074,0][0.1948,-0.353967,-0.272595][0.9823,0.0495999,-0.1808][0.2457,0.3074,0][0.3636,-0.351267,0.086405][0.9895,0.0312999,-0.1409][0.2462,0.2515,0][0.3701,-0.630067,0.100105][0.9899,0.0369999,-0.1368][0.2852,0.2474,0][0.3416,-0.628067,0.311105][0.9477,0.0599999,0.3135][0.2851,0.2212,0][0.3701,-0.630067,0.100105][0.9899,0.0369999,-0.1368][0.2852,0.2474,0][0.3636,-0.351267,0.086405][0.9895,0.0312999,-0.1409][0.2462,0.2515,0][0.3636,-0.351267,0.086405][0.9895,0.0312999,-0.1409][0.2462,0.2515,0][0.3283,-0.347967,0.292405][0.9422,0.0571999,0.3301][0.246,0.2234,0][0.3416,-0.628067,0.311105][0.9477,0.0599999,0.3135][0.2851,0.2212,0][0.2347,-0.626367,0.504005][0.7794,0.0820999,0.6211][0.2852,0.194,0][0.3416,-0.628067,0.311105][0.9477,0.0599999,0.3135][0.2851,0.2212,0][0.3283,-0.347967,0.292405][0.9422,0.0571999,0.3301][0.246,0.2234,0][0.3283,-0.347967,0.292405][0.9422,0.0571999,0.3301][0.246,0.2234,0][0.2196,-0.344967,0.482505][0.7738,0.0850999,0.6277][0.2459,0.1932,0][0.2347,-0.626367,0.504005][0.7794,0.0820999,0.6211][0.2852,0.194,0][0.0699,-0.624967,0.653505][0.5647,0.0939999,0.8199][0.2856,0.1656,0][0.2347,-0.626367,0.504005][0.7794,0.0820999,0.6211][0.2852,0.194,0][0.2196,-0.344967,0.482505][0.7738,0.0850999,0.6277][0.2459,0.1932,0][0.2196,-0.344967,0.482505][0.7738,0.0850999,0.6277][0.2459,0.1932,0][0.0566001,-0.342567,0.630005][0.5372,0.1109,0.8361][0.2463,0.1611,0][0.0699,-0.624967,0.653505][0.5647,0.0939999,0.8199][0.2856,0.1656,0][-0.0460999,-0.624567,0.711005][0.3487,0.1128,0.9304][0.2865,0.1466,0][0.0699,-0.624967,0.653505][0.5647,0.0939999,0.8199][0.2856,0.1656,0][0.0566001,-0.342567,0.630005][0.5372,0.1109,0.8361][0.2463,0.1611,0][0.0566001,-0.342567,0.630005][0.5372,0.1109,0.8361][0.2463,0.1611,0][-0.0569999,-0.341867,0.680105][0.3223,0.1271,0.9381][0.2468,0.141,0][-0.0460999,-0.624567,0.711005][0.3487,0.1128,0.9304][0.2865,0.1466,0][-0.5,-0.636267,-0.631695][-1,1.50996e-007,0][0.7869,0.4122,0][-0.5,-0.864467,-0.634295][-1,1.50996e-007,0][0.7872,0.4158,0][-0.5,-0.992367,0.113005][-1,1.50996e-007,0][0.7733,0.4173,0][-0.5,-0.992367,0.113005][-1,1.50996e-007,0][0.7733,0.4173,0][-0.5,-0.416267,0.079205][-1,1.50996e-007,0][0.7739,0.4102,0][-0.5,-0.636267,-0.631695][-1,1.50996e-007,0][0.7869,0.4122,0][-0.5,-0.991667,-0.639095][-1,1.50996e-007,0][0.7874,0.4173,0][-0.5,-0.992367,0.113005][-1,1.50996e-007,0][0.7733,0.4173,0][-0.5,-0.864467,-0.634295][-1,1.50996e-007,0][0.7872,0.4158,0][-0.5,-0.359867,-0.632795][-1,1.50996e-007,0][0.7868,0.4084,0][-0.5,-0.636267,-0.631695][-1,1.50996e-007,0][0.7869,0.4122,0][-0.5,-0.416267,0.079205][-1,1.50996e-007,0][0.7739,0.4102,0][-0.5,-0.623867,0.777105][-1,1.50996e-007,0][0.7604,0.412,0][-0.5,-0.416267,0.079205][-1,1.50996e-007,0][0.7739,0.4102,0][-0.5,-0.992367,0.113005][-1,1.50996e-007,0][0.7733,0.4173,0][-0.5,-0.992367,0.113005][-1,1.50996e-007,0][0.7733,0.4173,0][-0.5,-0.862067,0.808705][-1,1.50996e-007,0][0.7584,0.4159,0][-0.5,-0.623867,0.777105][-1,1.50996e-007,0][0.7604,0.412,0][-0.5,-0.862067,0.808705][-1,1.50996e-007,0][0.7584,0.4159,0][-0.5,-0.992367,0.113005][-1,1.50996e-007,0][0.7733,0.4173,0][-0.5,-0.992767,0.814105][-1,1.50996e-007,0][0.7584,0.4174,0][-0.5,-0.340567,0.750005][-1,1.50996e-007,0][0.7609,0.4081,0][-0.5,-0.416267,0.079205][-1,1.50996e-007,0][0.7739,0.4102,0][-0.5,-0.623867,0.777105][-1,1.50996e-007,0][0.7604,0.412,0][-0.5,-0.992767,0.814105][9.9849e-005,-1,-0.0005][0.7888,0.4651,0][-0.5,-0.992367,0.113005][0.000299849,-1,-0.0008][0.7879,0.4486,0][-0.2328,-0.992667,0.815305][9.9849e-005,-1,-0.0005][0.7959,0.466,0][-0.2761,-0.991667,-0.593595][0.4834,0.1698,-0.8587][0.3357,0.4008,0][-0.2817,-0.864467,-0.574795][0.5098,0.1133,-0.8528][0.3171,0.4055,0][-0.1357,-0.864467,-0.539295][0.2583,0.1389,-0.956][0.3165,0.3808,0][-0.1357,-0.864467,-0.539295][0.2583,0.1389,-0.956][0.3165,0.3808,0][-0.1339,-0.991667,-0.581095][0.2403,0.2514,-0.9376][0.3357,0.3802,0][-0.2761,-0.991667,-0.593595][0.4834,0.1698,-0.8587][0.3357,0.4008,0][-0.1357,-0.864467,-0.539295][0.2583,0.1389,-0.956][0.3165,0.3808,0][-0.2817,-0.864467,-0.574795][0.5098,0.1133,-0.8528][0.3171,0.4055,0][-0.3036,-0.635967,-0.561795][0.5564,0.0382999,-0.83][0.285,0.4117,0][-0.3036,-0.635967,-0.561795][0.5564,0.0382999,-0.83][0.285,0.4117,0][-0.1443,-0.635967,-0.546195][0.2511,0.0116,-0.9679][0.2845,0.3842,0][-0.1357,-0.864467,-0.539295][0.2583,0.1389,-0.956][0.3165,0.3808,0][-0.3036,-0.635967,-0.561795][0.5564,0.0382999,-0.83][0.285,0.4117,0][-0.337,-0.361667,-0.610595][0.609,0.0241999,-0.7928][0.2466,0.4265,0][-0.3121,-0.361567,-0.549195][0.5408,0.0118999,-0.8411][0.2459,0.4157,0][-0.5,-0.992767,0.814105][0.0243,0.1004,0.9947][0.3357,0.0915,0][-0.2328,-0.992667,0.815305][0.1497,0.1323,0.9798][0.3357,0.1287,0][-0.2432,-0.862067,0.794705][0.1476,0.1333,0.98][0.3195,0.1229,0][-0.2432,-0.862067,0.794705][0.1476,0.1333,0.98][0.3195,0.1229,0][-0.5,-0.862067,0.808705][0.0424,0.1193,0.992][0.3245,0.0852,0][-0.5,-0.992767,0.814105][0.0243,0.1004,0.9947][0.3357,0.0915,0][-0.2466,-0.624067,0.759905][0.1566,0.1213,0.9802][0.2888,0.115,0][-0.5,-0.623867,0.777105][0.0671,0.1195,0.9906][0.2961,0.0741,0][-0.5,-0.862067,0.808705][0.0424,0.1193,0.992][0.3245,0.0852,0][-0.5,-0.862067,0.808705][0.0424,0.1193,0.992][0.3245,0.0852,0][-0.2432,-0.862067,0.794705][0.1476,0.1333,0.98][0.3195,0.1229,0][-0.2466,-0.624067,0.759905][0.1566,0.1213,0.9802][0.2888,0.115,0][-0.2466,-0.624067,0.759905][0.1566,0.1213,0.9802][0.2888,0.115,0][-0.2523,-0.340967,0.730005][0.1619,0.1285,0.9784][0.2486,0.1075,0][-0.5,-0.340567,0.750005][0.0787,0.1245,0.9891][0.254,0.0633,0][-0.5,-0.340567,0.750005][0.0787,0.1245,0.9891][0.254,0.0633,0][-0.5,-0.623867,0.777105][0.0671,0.1195,0.9906][0.2961,0.0741,0][-0.2466,-0.624067,0.759905][0.1566,0.1213,0.9802][0.2888,0.115,0][-0.0252998,0.210533,-0.470195][0.5127,0.0467999,-0.8573][0.1607,0.3615,0][0.1485,0.221533,-0.366295][0.8197,0.0747999,-0.5679][0.161,0.3269,0][0.1764,-0.104267,-0.354595][0.8557,0.0533999,-0.5147][0.2094,0.3227,0][0.1764,-0.104267,-0.354595][0.8557,0.0533999,-0.5147][0.2094,0.3227,0][-0.00869986,-0.102967,-0.473395][0.5039,0.0239999,-0.8634][0.2078,0.3594,0][-0.0252998,0.210533,-0.470195][0.5127,0.0467999,-0.8573][0.1607,0.3615,0][0.00160015,-0.375367,-0.473795][0.514,0.0291999,-0.8573][0.2479,0.3572,0][0.1998,-0.354867,-0.345495][0.8965,0.0710999,-0.4374][0.2463,0.3184,0][0.2283,-0.633567,-0.326595][0.9417,0.1064,-0.3192][0.2864,0.311,0][0.2283,-0.633567,-0.326595][0.9417,0.1064,-0.3192][0.2864,0.311,0][0.0311,-0.635067,-0.497495][0.6311,0.0805999,-0.7715][0.2852,0.3514,0][0.00160015,-0.375367,-0.473795][0.514,0.0291999,-0.8573][0.2479,0.3572,0][0.2283,-0.633567,-0.326595][0.9417,0.1064,-0.3192][0.2864,0.311,0][0.2543,-0.848267,-0.324295][0.9549,0.1655,-0.2466][0.3173,0.3061,0][0.0525,-0.861867,-0.510895][0.6707,0.1844,-0.7184][0.3176,0.3471,0][0.0525,-0.861867,-0.510895][0.6707,0.1844,-0.7184][0.3176,0.3471,0][0.0311,-0.635067,-0.497495][0.6311,0.0805999,-0.7715][0.2852,0.3514,0][0.2283,-0.633567,-0.326595][0.9417,0.1064,-0.3192][0.2864,0.311,0][0.2543,-0.848267,-0.324295][0.9549,0.1655,-0.2466][0.3173,0.3061,0][0.272,-0.991867,-0.347595][0.9273,0.2221,-0.3012][0.3357,0.3186,0][0.0763,-0.991767,-0.553795][0.6724,0.2693,-0.6895][0.3357,0.3392,0][0.0763,-0.991767,-0.553795][0.6724,0.2693,-0.6895][0.3357,0.3392,0][0.0525,-0.861867,-0.510895][0.6707,0.1844,-0.7184][0.3176,0.3471,0][0.2543,-0.848267,-0.324295][0.9549,0.1655,-0.2466][0.3173,0.3061,0][0.0154,-0.864367,-0.489695][-0.5338,0.0901001,-0.8408][0.3171,0.3549,0][0.0525,-0.861867,-0.510895][-0.5318,0.1005,-0.8409][0.3176,0.3471,0][0.0763,-0.991767,-0.553795][-0.5152,0.1761,-0.8388][0.3357,0.3392,0][0.0763,-0.991767,-0.553795][-0.5152,0.1761,-0.8388][0.3357,0.3392,0][0.0232,-0.991767,-0.520095][-0.5152,0.1761,-0.8388][0.3357,0.3597,0][0.0154,-0.864367,-0.489695][-0.5338,0.0901001,-0.8408][0.3171,0.3549,0][0.0525,-0.861867,-0.510895][-0.5318,0.1005,-0.8409][0.3176,0.3471,0][0.0154,-0.864367,-0.489695][-0.5338,0.0901001,-0.8408][0.3171,0.3549,0][0.00790006,-0.635367,-0.479295][-0.5835,0.00530009,-0.8121][0.2849,0.3565,0][0.00790006,-0.635367,-0.479295][-0.5835,0.00530009,-0.8121][0.2849,0.3565,0][0.0311,-0.635067,-0.497495][-0.5801,0.00560009,-0.8145][0.2852,0.3514,0][0.0525,-0.861867,-0.510895][-0.5318,0.1005,-0.8409][0.3176,0.3471,0][0.00790006,-0.635367,-0.479295][-0.5835,0.00530009,-0.8121][0.2849,0.3565,0][0.00160015,-0.375367,-0.473795][-0.6169,0.00150009,-0.787][0.2479,0.3572,0][0.0311,-0.635067,-0.497495][-0.5801,0.00560009,-0.8145][0.2852,0.3514,0][-0.3579,0.585233,-0.608695][0.6459,0.0132999,-0.7633][0.0998,0.4289,0][-0.3602,0.850733,-0.606095][0.274,0.00399996,-0.9617][0.057,0.4248,0][-0.3411,0.584933,-0.554595][0.619,-0.00280009,-0.7854][0.1003,0.4195,0][-0.5,0.217133,0.027605][-1,1.50996e-007,0][0.7752,0.394,0][-0.5,0.816333,0.026105][-1,1.50996e-007,0][0.7758,0.3843,0][-0.5,0.583033,-0.628795][-1,1.50996e-007,0][0.7866,0.3873,0][-0.5,0.583033,-0.628795][-1,1.50996e-007,0][0.7866,0.3873,0][-0.5,0.209333,-0.632495][-1,1.50996e-007,0][0.7869,0.3941,0][-0.5,0.217133,0.027605][-1,1.50996e-007,0][0.7752,0.394,0][-0.5,0.888333,0.551405][-1,1.50996e-007,0][0.7661,0.381,0][-0.5,0.816333,0.026105][-1,1.50996e-007,0][0.7758,0.3843,0][-0.5,0.593133,0.610705][-1,1.50996e-007,0][0.7647,0.3872,0][-0.2777,0.887533,0.533005][0.1314,0.1667,0.9772][0.0497,0.1161,0][-0.5,0.888333,0.551405][0.0555,0.1775,0.9826][0.0433,0.0733,0][-0.5,0.593133,0.610705][0.0855,0.1673,0.9822][0.0938,0.065,0][-0.5,0.593133,0.610705][0.0855,0.1673,0.9822][0.0938,0.065,0][-0.2721,0.592933,0.590905][0.149,0.1638,0.9752][0.0988,0.1091,0][-0.2777,0.887533,0.533005][0.1314,0.1667,0.9772][0.0497,0.1161,0][0.0555001,0.240333,0.555705][0.481,0.1132,0.8694][0.1594,0.1646,0][0.0465003,0.594433,0.516005][0.4682,0.151,0.8706][0.1048,0.1696,0][-0.1006,0.593033,0.553705][0.2329,0.1562,0.9599][0.102,0.1419,0][-0.1006,0.593033,0.553705][0.2329,0.1562,0.9599][0.102,0.1419,0][-0.0745998,0.229533,0.594605][0.2605,0.134,0.9561][0.1597,0.1403,0][0.0555001,0.240333,0.555705][0.481,0.1132,0.8694][0.1594,0.1646,0][0.2083,0.237733,0.427105][0.776,0.0971999,0.6232][0.1608,0.1975,0][0.1799,0.593333,0.394605][0.7768,0.1372,0.6146][0.1066,0.2,0][0.0465003,0.594433,0.516005][0.4682,0.151,0.8706][0.1048,0.1696,0][0.0465003,0.594433,0.516005][0.4682,0.151,0.8706][0.1048,0.1696,0][0.0555001,0.240333,0.555705][0.481,0.1132,0.8694][0.1594,0.1646,0][0.2083,0.237733,0.427105][0.776,0.0971999,0.6232][0.1608,0.1975,0][0.3024,0.232833,0.251905][0.9471,0.0950999,0.3064][0.1619,0.228,0][0.2622,0.591933,0.235505][0.9414,0.1166,0.3166][0.1074,0.2287,0][0.1799,0.593333,0.394605][0.7768,0.1372,0.6146][0.1066,0.2,0][0.1799,0.593333,0.394605][0.7768,0.1372,0.6146][0.1066,0.2,0][0.2083,0.237733,0.427105][0.776,0.0971999,0.6232][0.1608,0.1975,0][0.3024,0.232833,0.251905][0.9471,0.0950999,0.3064][0.1619,0.228,0][0.3253,0.227433,0.056105][0.9836,0.0829998,-0.1603][0.1623,0.257,0][0.292,0.590333,0.052705][0.9859,0.0874998,-0.1425][0.1073,0.2574,0][0.2622,0.591933,0.235505][0.9414,0.1166,0.3166][0.1074,0.2287,0][0.2622,0.591933,0.235505][0.9414,0.1166,0.3166][0.1074,0.2287,0][0.3024,0.232833,0.251905][0.9471,0.0950999,0.3064][0.1619,0.228,0][0.3253,0.227433,0.056105][0.9836,0.0829998,-0.1603][0.1623,0.257,0][0.1578,0.221833,-0.298195][0.9491,0.0762999,-0.3055][0.1608,0.3162,0][0.1475,0.585533,-0.245795][0.9211,0.0688999,-0.3832][0.1048,0.3192,0][0.292,0.590333,0.052705][0.9859,0.0874998,-0.1425][0.1073,0.2574,0][0.292,0.590333,0.052705][0.9859,0.0874998,-0.1425][0.1073,0.2574,0][0.3253,0.227433,0.056105][0.9836,0.0829998,-0.1603][0.1623,0.257,0][0.1578,0.221833,-0.298195][0.9491,0.0762999,-0.3055][0.1608,0.3162,0][0.1475,0.585533,-0.245795][0.9211,0.0688999,-0.3832][0.1048,0.3192,0][0.1578,0.221833,-0.298195][0.9491,0.0762999,-0.3055][0.1608,0.3162,0][0.1485,0.221533,-0.366295][0.8197,0.0747999,-0.5679][0.161,0.3269,0][0.1485,0.221533,-0.366295][0.8197,0.0747999,-0.5679][0.161,0.3269,0][0.1149,0.581633,-0.336195][0.8053,0.0750999,-0.5881][0.1055,0.3259,0][0.1475,0.585533,-0.245795][0.9211,0.0688999,-0.3832][0.1048,0.3192,0][0.1485,0.221533,-0.366295][0.8197,0.0747999,-0.5679][0.161,0.3269,0][-0.0252998,0.210533,-0.470195][0.5127,0.0467999,-0.8573][0.1607,0.3615,0][-0.0434998,0.583833,-0.458795][0.5401,0.0581999,-0.8396][0.103,0.361,0][-0.0434998,0.583833,-0.458795][0.5401,0.0581999,-0.8396][0.103,0.361,0][0.1149,0.581633,-0.336195][0.8053,0.0750999,-0.5881][0.1055,0.3259,0][0.1485,0.221533,-0.366295][0.8197,0.0747999,-0.5679][0.161,0.3269,0][-0.2131,0.850533,-0.539495][0.3912,-0.0196001,-0.9201][0.0584,0.394,0][-0.0568997,0.851733,-0.452595][0.5654,0.0141999,-0.8247][0.06,0.3608,0][-0.0434998,0.583833,-0.458795][0.5401,0.0581999,-0.8396][0.103,0.361,0][-0.0434998,0.583833,-0.458795][0.5401,0.0581999,-0.8396][0.103,0.361,0][-0.2044,0.584633,-0.550995][0.3115,0.0141,-0.9501][0.1014,0.3941,0][-0.2131,0.850533,-0.539495][0.3912,-0.0196001,-0.9201][0.0584,0.394,0][-0.5,-0.102367,-0.634295][-1,1.50996e-007,0][0.7871,0.4022,0][-0.5,-0.359867,-0.632795][-1,1.50996e-007,0][0.7868,0.4084,0][-0.5,-0.416267,0.079205][-1,1.50996e-007,0][0.7739,0.4102,0][-0.5,-0.416267,0.079205][-1,1.50996e-007,0][0.7739,0.4102,0][-0.5,-0.0336668,0.045805][-1,1.50996e-007,0][0.7747,0.402,0][-0.5,-0.102367,-0.634295][-1,1.50996e-007,0][0.7871,0.4022,0][-0.5,-0.340567,0.750005][-1,1.50996e-007,0][0.7609,0.4081,0][-0.5,-0.0981668,0.714505][-1,1.50996e-007,0][0.7617,0.4019,0][-0.5,-0.0336668,0.045805][-1,1.50996e-007,0][0.7747,0.402,0][-0.5,-0.0336668,0.045805][-1,1.50996e-007,0][0.7747,0.402,0][-0.5,-0.416267,0.079205][-1,1.50996e-007,0][0.7739,0.4102,0][-0.5,-0.340567,0.750005][-1,1.50996e-007,0][0.7609,0.4081,0][-0.0569999,-0.341867,0.680105][0.3223,0.1271,0.9381][0.2468,0.141,0][0.0566001,-0.342567,0.630005][0.5372,0.1109,0.8361][0.2463,0.1611,0][0.0518001,-0.0985669,0.598705][0.5071,0.1158,0.8541][0.2103,0.1608,0][0.0518001,-0.0985669,0.598705][0.5071,0.1158,0.8541][0.2103,0.1608,0][-0.0643998,-0.0984669,0.642605][0.2948,0.144,0.9446][0.2103,0.1394,0][-0.0569999,-0.341867,0.680105][0.3223,0.1271,0.9381][0.2468,0.141,0][0.2196,-0.344967,0.482505][0.7738,0.0850999,0.6277][0.2459,0.1932,0][0.2147,-0.0978669,0.455505][0.7708,0.0805999,0.6319][0.2102,0.1946,0][0.0518001,-0.0985669,0.598705][0.5071,0.1158,0.8541][0.2103,0.1608,0][0.0518001,-0.0985669,0.598705][0.5071,0.1158,0.8541][0.2103,0.1608,0][0.0566001,-0.342567,0.630005][0.5372,0.1109,0.8361][0.2463,0.1611,0][0.2196,-0.344967,0.482505][0.7738,0.0850999,0.6277][0.2459,0.1932,0][0.3258,-0.0927669,0.270605][0.9454,0.0651999,0.3194][0.2095,0.2263,0][0.2147,-0.0978669,0.455505][0.7708,0.0805999,0.6319][0.2102,0.1946,0][0.2196,-0.344967,0.482505][0.7738,0.0850999,0.6277][0.2459,0.1932,0][0.2196,-0.344967,0.482505][0.7738,0.0850999,0.6277][0.2459,0.1932,0][0.3283,-0.347967,0.292405][0.9422,0.0571999,0.3301][0.246,0.2234,0][0.3258,-0.0927669,0.270605][0.9454,0.0651999,0.3194][0.2095,0.2263,0][0.1764,-0.104267,-0.354595][0.8557,0.0533999,-0.5147][0.2094,0.3227,0][0.1841,-0.101667,-0.285995][0.9662,0.0556999,-0.2517][0.2089,0.312,0][0.1948,-0.353967,-0.272595][0.9823,0.0495999,-0.1808][0.2457,0.3074,0][0.1948,-0.353967,-0.272595][0.9823,0.0495999,-0.1808][0.2457,0.3074,0][0.1998,-0.354867,-0.345495][0.8965,0.0710999,-0.4374][0.2463,0.3184,0][0.1764,-0.104267,-0.354595][0.8557,0.0533999,-0.5147][0.2094,0.3227,0][0.1764,-0.104267,-0.354595][0.8557,0.0533999,-0.5147][0.2094,0.3227,0][0.1998,-0.354867,-0.345495][0.8965,0.0710999,-0.4374][0.2463,0.3184,0][0.00160015,-0.375367,-0.473795][0.514,0.0291999,-0.8573][0.2479,0.3572,0][0.00160015,-0.375367,-0.473795][0.514,0.0291999,-0.8573][0.2479,0.3572,0][-0.00869986,-0.102967,-0.473395][0.5039,0.0239999,-0.8634][0.2078,0.3594,0][0.1764,-0.104267,-0.354595][0.8557,0.0533999,-0.5147][0.2094,0.3227,0][-0.3839,1.19503,-0.0206951][-0.0259998,0.9988,-0.0423][0.8422,0.4112,0][-0.0187997,1.14233,-0.0517951][0.167,0.9856,-0.025][0.8585,0.4116,0][-0.0525997,1.14143,-0.167795][0.1622,0.9815,-0.1013][0.8571,0.4152,0][-0.5,-0.992367,0.113005][0.000299849,-1,-0.0008][0.7879,0.4486,0][-0.5,-0.991667,-0.639095][-0.000100151,-1,-0.0009][0.7871,0.433,0][-0.3279,-0.991667,-0.643695][0.000199849,-1,-0.0009][0.7917,0.4337,0][-0.3036,-0.635967,-0.561795][0.5564,0.0382999,-0.83][0.285,0.4117,0][-0.3316,-0.636067,-0.622095][0.5383,0.0481999,-0.8414][0.2863,0.4222,0][-0.337,-0.361667,-0.610595][0.609,0.0241999,-0.7928][0.2466,0.4265,0][-0.2817,-0.864467,-0.574795][0.5098,0.1133,-0.8528][0.3171,0.4055,0][-0.3287,-0.864267,-0.635595][0.4475,0.0703999,-0.8915][0.3183,0.4183,0][-0.3316,-0.636067,-0.622095][0.5383,0.0481999,-0.8414][0.2863,0.4222,0][-0.3316,-0.636067,-0.622095][0.5383,0.0481999,-0.8414][0.2863,0.4222,0][-0.3036,-0.635967,-0.561795][0.5564,0.0382999,-0.83][0.285,0.4117,0][-0.2817,-0.864467,-0.574795][0.5098,0.1133,-0.8528][0.3171,0.4055,0][-0.3279,-0.991667,-0.643695][0.3956,0.0763999,-0.9152][0.3357,0.4213,0][-0.3287,-0.864267,-0.635595][0.4475,0.0703999,-0.8915][0.3183,0.4183,0][-0.2817,-0.864467,-0.574795][0.5098,0.1133,-0.8528][0.3171,0.4055,0][-0.2817,-0.864467,-0.574795][0.5098,0.1133,-0.8528][0.3171,0.4055,0][-0.2761,-0.991667,-0.593595][0.4834,0.1698,-0.8587][0.3357,0.4008,0][-0.3279,-0.991667,-0.643695][0.3956,0.0763999,-0.9152][0.3357,0.4213,0][-0.5,-0.992367,0.113005][0.000299849,-1,-0.0008][0.7879,0.4486,0][0.0763,-0.991767,-0.553795][-0.000200151,-1,-0.0011][0.8038,0.4338,0][0.272,-0.991867,-0.347595][0.00419985,-1,0.0058][0.8058,0.437,0][-0.5,-0.992367,0.113005][0.000299849,-1,-0.0008][0.7879,0.4486,0][0.0232,-0.991767,-0.520095][-0.00190015,-1,-0.0025][0.7996,0.4344,0][0.0763,-0.991767,-0.553795][-0.000200151,-1,-0.0011][0.8038,0.4338,0][-0.1913,0.209733,-0.561095][0.2397,0.0246,-0.9705][0.1597,0.3946,0][-0.0252998,0.210533,-0.470195][0.5127,0.0467999,-0.8573][0.1607,0.3615,0][-0.00869986,-0.102967,-0.473395][0.5039,0.0239999,-0.8634][0.2078,0.3594,0][-0.00869986,-0.102967,-0.473395][0.5039,0.0239999,-0.8634][0.2078,0.3594,0][-0.1792,-0.103167,-0.564595][0.2148,0.00639997,-0.9766][0.2072,0.3929,0][-0.1913,0.209733,-0.561095][0.2397,0.0246,-0.9705][0.1597,0.3946,0][-0.5,0.217133,0.027605][-1,1.50996e-007,0][0.7752,0.394,0][-0.5,-0.0336668,0.045805][-1,1.50996e-007,0][0.7747,0.402,0][-0.5,-0.0981668,0.714505][-1,1.50996e-007,0][0.7617,0.4019,0][-0.5,-0.0981668,0.714505][-1,1.50996e-007,0][0.7617,0.4019,0][-0.5,0.224833,0.663405][-1,1.50996e-007,0][0.7631,0.3939,0][-0.5,0.217133,0.027605][-1,1.50996e-007,0][0.7752,0.394,0][-0.3308,0.210333,-0.558795][0.5689,0.0210999,-0.8221][0.1587,0.4205,0][-0.321,-0.103167,-0.555895][0.5421,0.00679992,-0.8403][0.2071,0.4189,0][-0.343,-0.103167,-0.611395][0.6193,0.0134999,-0.785][0.2073,0.4289,0][-0.343,-0.103167,-0.611395][0.6193,0.0134999,-0.785][0.2073,0.4289,0][-0.3505,0.210833,-0.611695][0.6286,0.0185999,-0.7775][0.1586,0.4299,0][-0.3308,0.210333,-0.558795][0.5689,0.0210999,-0.8221][0.1587,0.4205,0][-0.5,-0.0981668,0.714505][0.086,0.1523,0.9846][0.2131,0.0585,0][-0.2569,-0.0982668,0.692805][0.1662,0.1529,0.9742][0.2111,0.1044,0][-0.2642,0.224533,0.642105][0.1615,0.1455,0.9761][0.159,0.1044,0][-0.2642,0.224533,0.642105][0.1615,0.1455,0.9761][0.159,0.1044,0][-0.5,0.224833,0.663405][0.088,0.1481,0.9851][0.1571,0.0588,0][-0.5,-0.0981668,0.714505][0.086,0.1523,0.9846][0.2131,0.0585,0][-0.5,-0.0981668,0.714505][0.086,0.1523,0.9846][0.2131,0.0585,0][-0.5,-0.340567,0.750005][0.0787,0.1245,0.9891][0.254,0.0633,0][-0.2523,-0.340967,0.730005][0.1619,0.1285,0.9784][0.2486,0.1075,0][-0.2523,-0.340967,0.730005][0.1619,0.1285,0.9784][0.2486,0.1075,0][-0.2569,-0.0982668,0.692805][0.1662,0.1529,0.9742][0.2111,0.1044,0][-0.5,-0.0981668,0.714505][0.086,0.1523,0.9846][0.2131,0.0585,0][-0.00869986,-0.102967,-0.473395][0.5039,0.0239999,-0.8634][0.2078,0.3594,0][0.00160015,-0.375367,-0.473795][0.514,0.0291999,-0.8573][0.2479,0.3572,0][-0.1621,-0.361467,-0.560795][0.2214,-0.000400033,-0.9752][0.2453,0.389,0][-0.1621,-0.361467,-0.560795][0.2214,-0.000400033,-0.9752][0.2453,0.389,0][-0.1792,-0.103167,-0.564595][0.2148,0.00639997,-0.9766][0.2072,0.3929,0][-0.00869986,-0.102967,-0.473395][0.5039,0.0239999,-0.8634][0.2078,0.3594,0][-0.343,-0.103167,-0.611395][0.6193,0.0134999,-0.785][0.2073,0.4289,0][-0.321,-0.103167,-0.555895][0.5421,0.00679992,-0.8403][0.2071,0.4189,0][-0.3121,-0.361567,-0.549195][0.5408,0.0118999,-0.8411][0.2459,0.4157,0][-0.3121,-0.361567,-0.549195][0.5408,0.0118999,-0.8411][0.2459,0.4157,0][-0.337,-0.361667,-0.610595][0.609,0.0241999,-0.7928][0.2466,0.4265,0][-0.343,-0.103167,-0.611395][0.6193,0.0134999,-0.785][0.2073,0.4289,0][-0.0643998,-0.0984669,0.642605][0.2948,0.144,0.9446][0.2103,0.1394,0][-0.0745998,0.229533,0.594605][0.2605,0.134,0.9561][0.1597,0.1403,0][-0.2642,0.224533,0.642105][0.1615,0.1455,0.9761][0.159,0.1044,0][-0.2642,0.224533,0.642105][0.1615,0.1455,0.9761][0.159,0.1044,0][-0.2569,-0.0982668,0.692805][0.1662,0.1529,0.9742][0.2111,0.1044,0][-0.0643998,-0.0984669,0.642605][0.2948,0.144,0.9446][0.2103,0.1394,0][-0.0460999,-0.624567,0.711005][0.3487,0.1128,0.9304][0.2865,0.1466,0][-0.0393,-0.862167,0.739605][0.3821,0.1287,0.9151][0.3184,0.1537,0][0.079,-0.862267,0.670505][0.5956,0.0850999,0.7988][0.3177,0.172,0][0.079,-0.862267,0.670505][0.5956,0.0850999,0.7988][0.3177,0.172,0][0.0699,-0.624967,0.653505][0.5647,0.0939999,0.8199][0.2856,0.1656,0][-0.0460999,-0.624567,0.711005][0.3487,0.1128,0.9304][0.2865,0.1466,0][0.079,-0.862267,0.670505][0.5956,0.0850999,0.7988][0.3177,0.172,0][-0.0393,-0.862167,0.739605][0.3821,0.1287,0.9151][0.3184,0.1537,0][-0.0278,-0.992667,0.756905][0.4067,0.1386,0.903][0.3357,0.1601,0][-0.0278,-0.992667,0.756905][0.4067,0.1386,0.903][0.3357,0.1601,0][0.0868,-0.992667,0.676605][0.6158,0.0808999,0.7837][0.3357,0.1785,0][0.079,-0.862267,0.670505][0.5956,0.0850999,0.7988][0.3177,0.172,0][-0.0569999,-0.341867,0.680105][0.3223,0.1271,0.9381][0.2468,0.141,0][-0.2523,-0.340967,0.730005][0.1619,0.1285,0.9784][0.2486,0.1075,0][-0.2466,-0.624067,0.759905][0.1566,0.1213,0.9802][0.2888,0.115,0][-0.2466,-0.624067,0.759905][0.1566,0.1213,0.9802][0.2888,0.115,0][-0.0460999,-0.624567,0.711005][0.3487,0.1128,0.9304][0.2865,0.1466,0][-0.0569999,-0.341867,0.680105][0.3223,0.1271,0.9381][0.2468,0.141,0][-0.2721,0.592933,0.590905][0.149,0.1638,0.9752][0.0988,0.1091,0][-0.2642,0.224533,0.642105][0.1615,0.1455,0.9761][0.159,0.1044,0][-0.0745998,0.229533,0.594605][0.2605,0.134,0.9561][0.1597,0.1403,0][-0.0745998,0.229533,0.594605][0.2605,0.134,0.9561][0.1597,0.1403,0][-0.1006,0.593033,0.553705][0.2329,0.1562,0.9599][0.102,0.1419,0][-0.2721,0.592933,0.590905][0.149,0.1638,0.9752][0.0988,0.1091,0][-0.0643998,-0.0984669,0.642605][0.2948,0.144,0.9446][0.2103,0.1394,0][-0.2569,-0.0982668,0.692805][0.1662,0.1529,0.9742][0.2111,0.1044,0][-0.2523,-0.340967,0.730005][0.1619,0.1285,0.9784][0.2486,0.1075,0][-0.2523,-0.340967,0.730005][0.1619,0.1285,0.9784][0.2486,0.1075,0][-0.0569999,-0.341867,0.680105][0.3223,0.1271,0.9381][0.2468,0.141,0][-0.0643998,-0.0984669,0.642605][0.2948,0.144,0.9446][0.2103,0.1394,0][0.1948,-0.353967,-0.272595][0.9823,0.0495999,-0.1808][0.2457,0.3074,0][0.1841,-0.101667,-0.285995][0.9662,0.0556999,-0.2517][0.2089,0.312,0][0.3505,-0.096567,0.073405][0.9872,0.0503999,-0.1513][0.2097,0.2543,0][0.3505,-0.096567,0.073405][0.9872,0.0503999,-0.1513][0.2097,0.2543,0][0.3636,-0.351267,0.086405][0.9895,0.0312999,-0.1409][0.2462,0.2515,0][0.1948,-0.353967,-0.272595][0.9823,0.0495999,-0.1808][0.2457,0.3074,0][0.3636,-0.351267,0.086405][0.9895,0.0312999,-0.1409][0.2462,0.2515,0][0.3505,-0.096567,0.073405][0.9872,0.0503999,-0.1513][0.2097,0.2543,0][0.3258,-0.0927669,0.270605][0.9454,0.0651999,0.3194][0.2095,0.2263,0][0.3258,-0.0927669,0.270605][0.9454,0.0651999,0.3194][0.2095,0.2263,0][0.3283,-0.347967,0.292405][0.9422,0.0571999,0.3301][0.246,0.2234,0][0.3636,-0.351267,0.086405][0.9895,0.0312999,-0.1409][0.2462,0.2515,0][-0.3411,0.584933,-0.554595][0.619,-0.00280009,-0.7854][0.1003,0.4195,0][-0.3308,0.210333,-0.558795][0.5689,0.0210999,-0.8221][0.1587,0.4205,0][-0.3505,0.210833,-0.611695][0.6286,0.0185999,-0.7775][0.1586,0.4299,0][-0.3505,0.210833,-0.611695][0.6286,0.0185999,-0.7775][0.1586,0.4299,0][-0.3579,0.585233,-0.608695][0.6459,0.0132999,-0.7633][0.0998,0.4289,0][-0.3411,0.584933,-0.554595][0.619,-0.00280009,-0.7854][0.1003,0.4195,0][-0.5,0.849133,-0.632695][-1,1.50996e-007,0][0.7868,0.3818,0][-0.5,0.583033,-0.628795][-1,1.50996e-007,0][0.7866,0.3873,0][-0.5,0.816333,0.026105][-1,1.50996e-007,0][0.7758,0.3843,0][-0.5,0.593133,0.610705][-1,1.50996e-007,0][0.7647,0.3872,0][-0.5,0.816333,0.026105][-1,1.50996e-007,0][0.7758,0.3843,0][-0.5,0.217133,0.027605][-1,1.50996e-007,0][0.7752,0.394,0][-0.5,0.217133,0.027605][-1,1.50996e-007,0][0.7752,0.394,0][-0.5,0.224833,0.663405][-1,1.50996e-007,0][0.7631,0.3939,0][-0.5,0.593133,0.610705][-1,1.50996e-007,0][0.7647,0.3872,0][-0.5,0.593133,0.610705][0.0855,0.1673,0.9822][0.0938,0.065,0][-0.5,0.224833,0.663405][0.088,0.1481,0.9851][0.1571,0.0588,0][-0.2642,0.224533,0.642105][0.1615,0.1455,0.9761][0.159,0.1044,0][-0.2642,0.224533,0.642105][0.1615,0.1455,0.9761][0.159,0.1044,0][-0.2721,0.592933,0.590905][0.149,0.1638,0.9752][0.0988,0.1091,0][-0.5,0.593133,0.610705][0.0855,0.1673,0.9822][0.0938,0.065,0][-0.1122,0.887833,0.500305][0.2487,0.1643,0.9545][0.054,0.1479,0][-0.1006,0.593033,0.553705][0.2329,0.1562,0.9599][0.102,0.1419,0][0.0465003,0.594433,0.516005][0.4682,0.151,0.8706][0.1048,0.1696,0][0.0465003,0.594433,0.516005][0.4682,0.151,0.8706][0.1048,0.1696,0][0.0250003,0.893033,0.462505][0.4751,0.1799,0.8614][0.0568,0.1745,0][-0.1122,0.887833,0.500305][0.2487,0.1643,0.9545][0.054,0.1479,0][0.0250003,0.893033,0.462505][0.4751,0.1799,0.8614][0.0568,0.1745,0][0.0465003,0.594433,0.516005][0.4682,0.151,0.8706][0.1048,0.1696,0][0.1799,0.593333,0.394605][0.7768,0.1372,0.6146][0.1066,0.2,0][0.1799,0.593333,0.394605][0.7768,0.1372,0.6146][0.1066,0.2,0][0.152,0.888633,0.351305][0.7581,0.1578,0.6328][0.0596,0.2039,0][0.0250003,0.893033,0.462505][0.4751,0.1799,0.8614][0.0568,0.1745,0][0.2622,0.591933,0.235505][0.9414,0.1166,0.3166][0.1074,0.2287,0][0.2367,0.883033,0.204005][0.9349,0.1328,0.3292][0.0614,0.232,0][0.152,0.888633,0.351305][0.7581,0.1578,0.6328][0.0596,0.2039,0][0.152,0.888633,0.351305][0.7581,0.1578,0.6328][0.0596,0.2039,0][0.1799,0.593333,0.394605][0.7768,0.1372,0.6146][0.1066,0.2,0][0.2622,0.591933,0.235505][0.9414,0.1166,0.3166][0.1074,0.2287,0][0.2622,0.591933,0.235505][0.9414,0.1166,0.3166][0.1074,0.2287,0][0.292,0.590333,0.052705][0.9859,0.0874998,-0.1425][0.1073,0.2574,0][0.2682,0.876933,0.033005][0.9842,0.1068,-0.1413][0.0622,0.2596,0][0.2682,0.876933,0.033005][0.9842,0.1068,-0.1413][0.0622,0.2596,0][0.2367,0.883033,0.204005][0.9349,0.1328,0.3292][0.0614,0.232,0][0.2622,0.591933,0.235505][0.9414,0.1166,0.3166][0.1074,0.2287,0][0.2682,0.876933,0.033005][0.9842,0.1068,-0.1413][0.0622,0.2596,0][0.292,0.590333,0.052705][0.9859,0.0874998,-0.1425][0.1073,0.2574,0][0.1475,0.585533,-0.245795][0.9211,0.0688999,-0.3832][0.1048,0.3192,0][0.1475,0.585533,-0.245795][0.9211,0.0688999,-0.3832][0.1048,0.3192,0][0.1572,0.865333,-0.195095][0.9073,0.0708999,-0.4145][0.06,0.3193,0][0.2682,0.876933,0.033005][0.9842,0.1068,-0.1413][0.0622,0.2596,0][0.1475,0.585533,-0.245795][0.9211,0.0688999,-0.3832][0.1048,0.3192,0][0.1149,0.581633,-0.336195][0.8053,0.0750999,-0.5881][0.1055,0.3259,0][0.0928003,0.857333,-0.333995][0.7997,0.0477999,-0.5985][0.0613,0.3266,0][0.0928003,0.857333,-0.333995][0.7997,0.0477999,-0.5985][0.0613,0.3266,0][0.1572,0.865333,-0.195095][0.9073,0.0708999,-0.4145][0.06,0.3193,0][0.1475,0.585533,-0.245795][0.9211,0.0688999,-0.3832][0.1048,0.3192,0][-0.0434998,0.583833,-0.458795][0.5401,0.0581999,-0.8396][0.103,0.361,0][-0.0568997,0.851733,-0.452595][0.5654,0.0141999,-0.8247][0.06,0.3608,0][0.0928003,0.857333,-0.333995][0.7997,0.0477999,-0.5985][0.0613,0.3266,0][0.0928003,0.857333,-0.333995][0.7997,0.0477999,-0.5985][0.0613,0.3266,0][0.1149,0.581633,-0.336195][0.8053,0.0750999,-0.5881][0.1055,0.3259,0][-0.0434998,0.583833,-0.458795][0.5401,0.0581999,-0.8396][0.103,0.361,0][-0.0434998,0.583833,-0.458795][0.5401,0.0581999,-0.8396][0.103,0.361,0][-0.0252998,0.210533,-0.470195][0.5127,0.0467999,-0.8573][0.1607,0.3615,0][-0.1913,0.209733,-0.561095][0.2397,0.0246,-0.9705][0.1597,0.3946,0][-0.1913,0.209733,-0.561095][0.2397,0.0246,-0.9705][0.1597,0.3946,0][-0.2044,0.584633,-0.550995][0.3115,0.0141,-0.9501][0.1014,0.3941,0][-0.0434998,0.583833,-0.458795][0.5401,0.0581999,-0.8396][0.103,0.361,0][-0.1006,0.593033,0.553705][0.2329,0.1562,0.9599][0.102,0.1419,0][-0.1122,0.887833,0.500305][0.2487,0.1643,0.9545][0.054,0.1479,0][-0.2777,0.887533,0.533005][0.1314,0.1667,0.9772][0.0497,0.1161,0][-0.2777,0.887533,0.533005][0.1314,0.1667,0.9772][0.0497,0.1161,0][-0.2721,0.592933,0.590905][0.149,0.1638,0.9752][0.0988,0.1091,0][-0.1006,0.593033,0.553705][0.2329,0.1562,0.9599][0.102,0.1419,0][-0.1724,1.16623,0.261005][0.1188,0.9873,0.1055][0.8515,0.4024,0][-0.3839,1.19503,-0.0206951][-0.0259998,0.9988,-0.0423][0.8422,0.4112,0][-0.3195,1.16623,0.296805][0.00350015,0.9881,0.154][0.8449,0.4015,0][-0.337,-0.361667,-0.610595][0.609,0.0241999,-0.7928][0.2466,0.4265,0][-0.5,-0.359867,-0.632795][0.1179,0.00829998,-0.993][0.2482,0.4564,0][-0.5,-0.102367,-0.634295][0.1403,0.000699979,-0.9901][0.2078,0.4585,0][-0.5,-0.102367,-0.634295][0.1403,0.000699979,-0.9901][0.2078,0.4585,0][-0.343,-0.103167,-0.611395][0.6193,0.0134999,-0.785][0.2073,0.4289,0][-0.337,-0.361667,-0.610595][0.609,0.0241999,-0.7928][0.2466,0.4265,0][-0.3505,0.210833,-0.611695][0.6286,0.0185999,-0.7775][0.1586,0.4299,0][-0.343,-0.103167,-0.611395][0.6193,0.0134999,-0.785][0.2073,0.4289,0][-0.5,-0.102367,-0.634295][0.1403,0.000699979,-0.9901][0.2078,0.4585,0][-0.5,-0.102367,-0.634295][0.1403,0.000699979,-0.9901][0.2078,0.4585,0][-0.5,0.209333,-0.632495][0.14,0.00709998,-0.9901][0.1582,0.4583,0][-0.3505,0.210833,-0.611695][0.6286,0.0185999,-0.7775][0.1586,0.4299,0][-0.5,0.583033,-0.628795][0.1513,0.00429998,-0.9885][0.0985,0.456,0][-0.3579,0.585233,-0.608695][0.6459,0.0132999,-0.7633][0.0998,0.4289,0][-0.3505,0.210833,-0.611695][0.6286,0.0185999,-0.7775][0.1586,0.4299,0][-0.3505,0.210833,-0.611695][0.6286,0.0185999,-0.7775][0.1586,0.4299,0][-0.5,0.209333,-0.632495][0.14,0.00709998,-0.9901][0.1582,0.4583,0][-0.5,0.583033,-0.628795][0.1513,0.00429998,-0.9885][0.0985,0.456,0][-0.5,0.849133,-0.632695][0.1754,0.0198,-0.9843][0.0554,0.4522,0][-0.3602,0.850733,-0.606095][0.274,0.00399996,-0.9617][0.057,0.4248,0][-0.3579,0.585233,-0.608695][0.6459,0.0132999,-0.7633][0.0998,0.4289,0][-0.3579,0.585233,-0.608695][0.6459,0.0132999,-0.7633][0.0998,0.4289,0][-0.5,0.583033,-0.628795][0.1513,0.00429998,-0.9885][0.0985,0.456,0][-0.5,0.849133,-0.632695][0.1754,0.0198,-0.9843][0.0554,0.4522,0][-0.321,-0.103167,-0.555895][0.5421,0.00679992,-0.8403][0.2071,0.4189,0][-0.3308,0.210333,-0.558795][0.5689,0.0210999,-0.8221][0.1587,0.4205,0][-0.1913,0.209733,-0.561095][0.2397,0.0246,-0.9705][0.1597,0.3946,0][-0.1913,0.209733,-0.561095][0.2397,0.0246,-0.9705][0.1597,0.3946,0][-0.1792,-0.103167,-0.564595][0.2148,0.00639997,-0.9766][0.2072,0.3929,0][-0.321,-0.103167,-0.555895][0.5421,0.00679992,-0.8403][0.2071,0.4189,0][-0.3121,-0.361567,-0.549195][0.5408,0.0118999,-0.8411][0.2459,0.4157,0][-0.321,-0.103167,-0.555895][0.5421,0.00679992,-0.8403][0.2071,0.4189,0][-0.1792,-0.103167,-0.564595][0.2148,0.00639997,-0.9766][0.2072,0.3929,0][-0.1792,-0.103167,-0.564595][0.2148,0.00639997,-0.9766][0.2072,0.3929,0][-0.1621,-0.361467,-0.560795][0.2214,-0.000400033,-0.9752][0.2453,0.389,0][-0.3121,-0.361567,-0.549195][0.5408,0.0118999,-0.8411][0.2459,0.4157,0][-0.2044,0.584633,-0.550995][0.3115,0.0141,-0.9501][0.1014,0.3941,0][-0.1913,0.209733,-0.561095][0.2397,0.0246,-0.9705][0.1597,0.3946,0][-0.3308,0.210333,-0.558795][0.5689,0.0210999,-0.8221][0.1587,0.4205,0][-0.3308,0.210333,-0.558795][0.5689,0.0210999,-0.8221][0.1587,0.4205,0][-0.3411,0.584933,-0.554595][0.619,-0.00280009,-0.7854][0.1003,0.4195,0][-0.2044,0.584633,-0.550995][0.3115,0.0141,-0.9501][0.1014,0.3941,0][-0.2044,0.584633,-0.550995][0.3115,0.0141,-0.9501][0.1014,0.3941,0][-0.3411,0.584933,-0.554595][0.619,-0.00280009,-0.7854][0.1003,0.4195,0][-0.3602,0.850733,-0.606095][0.274,0.00399996,-0.9617][0.057,0.4248,0][-0.3602,0.850733,-0.606095][0.274,0.00399996,-0.9617][0.057,0.4248,0][-0.2131,0.850533,-0.539495][0.3912,-0.0196001,-0.9201][0.0584,0.394,0][-0.2044,0.584633,-0.550995][0.3115,0.0141,-0.9501][0.1014,0.3941,0][-0.1621,-0.361467,-0.560795][0.2214,-0.000400033,-0.9752][0.2453,0.389,0][-0.1443,-0.635967,-0.546195][0.2511,0.0116,-0.9679][0.2845,0.3842,0][-0.3036,-0.635967,-0.561795][0.5564,0.0382999,-0.83][0.285,0.4117,0][-0.3036,-0.635967,-0.561795][0.5564,0.0382999,-0.83][0.285,0.4117,0][-0.3121,-0.361567,-0.549195][0.5408,0.0118999,-0.8411][0.2459,0.4157,0][-0.1621,-0.361467,-0.560795][0.2214,-0.000400033,-0.9752][0.2453,0.389,0][-0.2761,-0.991667,-0.593595][0.000299849,-1,-0.0009][0.793,0.4316,0][-0.5,-0.992367,0.113005][0.000299849,-1,-0.0008][0.7879,0.4486,0][-0.3279,-0.991667,-0.643695][0.000199849,-1,-0.0009][0.7917,0.4337,0][-0.5,-0.992367,0.113005][0.000299849,-1,-0.0008][0.7879,0.4486,0][0.0868,-0.992667,0.676605][9.9849e-005,-1,-0.0005][0.8039,0.462,0][-0.0278,-0.992667,0.756905][-1.50996e-007,-1,-0.0005][0.8012,0.4644,0][-0.5,1.09223,-0.622395][0.0172001,0.983,-0.1826][0.8376,0.4298,0][-0.5,1.13003,-0.355395][-0.0627998,0.9866,-0.1506][0.8374,0.4208,0][-0.3046,1.14233,-0.334395][0.0324001,0.9835,-0.1782][0.846,0.4207,0][-0.5,1.13003,-0.355395][-1,1.50996e-007,0][0.7798,0.3739,0][-0.5,0.816333,0.026105][-1,1.50996e-007,0][0.7758,0.3843,0][-0.5,1.17483,0.0175049][-1,1.50996e-007,0][0.7761,0.3735,0][0.2059,1.10003,0.217105][0.1504,0.9874,0.0486][0.869,0.4044,0][-0.0493997,1.14233,0.138705][0.1642,0.9859,0.0331][0.857,0.4059,0][0.1008,1.10353,0.355605][0.1694,0.9821,0.0827][0.8648,0.4002,0][-0.0187997,1.14233,-0.0517951][0.167,0.9856,-0.025][0.8585,0.4116,0][-0.0493997,1.14233,0.138705][0.1642,0.9859,0.0331][0.857,0.4059,0][0.2059,1.10003,0.217105][0.1504,0.9874,0.0486][0.8689,0.4043,0][0.2059,1.10003,0.217105][0.1504,0.9874,0.0486][0.8689,0.4043,0][0.2275,1.09913,0.0503049][0.1737,0.9848,-0.0089][0.8709,0.4096,0][-0.0187997,1.14233,-0.0517951][0.167,0.9856,-0.025][0.8585,0.4116,0][0.1008,1.10353,0.355605][0.1694,0.9821,0.0827][0.8646,0.4,0][-0.0493997,1.14233,0.138705][0.1642,0.9859,0.0331][0.857,0.4059,0][-0.1724,1.16623,0.261005][0.1188,0.9873,0.1055][0.8515,0.4024,0][-0.1724,1.16623,0.261005][0.1188,0.9873,0.1055][0.8515,0.4024,0][0.00230032,1.10793,0.416105][0.1796,0.9755,0.1267][0.8592,0.3974,0][0.1008,1.10353,0.355605][0.1694,0.9821,0.0827][0.8646,0.4,0][0.00230032,1.10793,0.416105][0.1796,0.9755,0.1267][0.8591,0.3974,0][-0.1724,1.16623,0.261005][0.1188,0.9873,0.1055][0.8515,0.4024,0][-0.0689997,1.11113,0.458905][0.1168,0.972,0.2037][0.8536,0.3963,0][-0.279,1.11793,0.508305][0.0389001,0.9743,0.2219][0.8463,0.3954,0][-0.3195,1.16623,0.296805][0.00350015,0.9881,0.154][0.8449,0.4015,0][-0.5,1.11993,0.501505][-0.00849985,0.9769,0.2135][0.8367,0.3955,0][-0.0689997,1.11113,0.458905][0.1168,0.972,0.2037][0.8539,0.3964,0][-0.1724,1.16623,0.261005][0.1188,0.9873,0.1055][0.8515,0.4024,0][-0.3195,1.16623,0.296805][0.00350015,0.9881,0.154][0.8449,0.4015,0][-0.3195,1.16623,0.296805][0.00350015,0.9881,0.154][0.8449,0.4015,0][-0.279,1.11793,0.508305][0.0389001,0.9743,0.2219][0.8462,0.3954,0][-0.0689997,1.11113,0.458905][0.1168,0.972,0.2037][0.8539,0.3964,0][-0.5,1.09223,-0.622395][0.0172001,0.983,-0.1826][0.8376,0.43,0][-0.3046,1.14233,-0.334395][0.0324001,0.9835,-0.1782][0.846,0.4207,0][-0.2756,1.08883,-0.567295][0.0754002,0.9746,-0.2111][0.8439,0.4279,0][-0.1459,1.14103,-0.266295][0.1143,0.9808,-0.158][0.853,0.4184,0][-0.0648997,1.08923,-0.487195][0.1164,0.9747,-0.1908][0.857,0.4241,0][-0.2756,1.08883,-0.567295][0.0754002,0.9746,-0.2111][0.8495,0.4272,0][-0.2756,1.08883,-0.567295][0.0754002,0.9746,-0.2111][0.8495,0.4272,0][-0.3046,1.14233,-0.334395][0.0324001,0.9835,-0.1782][0.846,0.4207,0][-0.1459,1.14103,-0.266295][0.1143,0.9808,-0.158][0.853,0.4184,0][-0.0648997,1.08923,-0.487195][0.1164,0.9747,-0.1908][0.857,0.4239,0][-0.1459,1.14103,-0.266295][0.1143,0.9808,-0.158][0.853,0.4184,0][0.0833003,1.09473,-0.311195][0.1836,0.9723,-0.1449][0.8629,0.4199,0][0.1008,1.10353,0.355605][0.7085,0.1623,0.6868][0.0242,0.2078,0][0.152,0.888633,0.351305][0.7581,0.1578,0.6328][0.0596,0.2039,0][0.2367,0.883033,0.204005][0.9349,0.1328,0.3292][0.0614,0.232,0][0.2367,0.883033,0.204005][0.9349,0.1328,0.3292][0.0614,0.232,0][0.2059,1.10003,0.217105][0.9174,0.1447,0.3708][0.0254,0.2358,0][0.1008,1.10353,0.355605][0.7085,0.1623,0.6868][0.0242,0.2078,0][0.152,0.888633,0.351305][0.7581,0.1578,0.6328][0.0596,0.2039,0][0.1008,1.10353,0.355605][0.7085,0.1623,0.6868][0.0242,0.2078,0][0.00230032,1.10793,0.416105][0.4808,0.1753,0.8591][0.0218,0.1781,0][0.00230032,1.10793,0.416105][0.4808,0.1753,0.8591][0.0218,0.1781,0][0.0250003,0.893033,0.462505][0.4751,0.1799,0.8614][0.0568,0.1745,0][0.152,0.888633,0.351305][0.7581,0.1578,0.6328][0.0596,0.2039,0][-0.1122,0.887833,0.500305][0.2487,0.1643,0.9545][0.054,0.1479,0][-0.0689997,1.11113,0.458905][0.2938,0.1481,0.9443][0.0184,0.153,0][-0.279,1.11793,0.508305][0.1201,0.1414,0.9826][0.0144,0.1223,0][-0.279,1.11793,0.508305][0.1201,0.1414,0.9826][0.0144,0.1223,0][-0.2777,0.887533,0.533005][0.1314,0.1667,0.9772][0.0497,0.1161,0][-0.1122,0.887833,0.500305][0.2487,0.1643,0.9545][0.054,0.1479,0][-0.5,0.849133,-0.632695][0.1754,0.0198,-0.9843][0.0554,0.4522,0][-0.5,1.09223,-0.622395][0.2214,0.0622,-0.9732][0.0168,0.4499,0][-0.3602,0.850733,-0.606095][0.274,0.00399996,-0.9617][0.057,0.4248,0][-0.2131,0.850533,-0.539495][0.3912,-0.0196001,-0.9201][0.0584,0.394,0][-0.2756,1.08883,-0.567295][0.3481,0.00479995,-0.9375][0.0195,0.3931,0][-0.0648997,1.08923,-0.487195][0.5585,-0.0273001,-0.829][0.0202,0.3596,0][-0.0648997,1.08923,-0.487195][0.5585,-0.0273001,-0.829][0.0202,0.3596,0][-0.0568997,0.851733,-0.452595][0.5654,0.0141999,-0.8247][0.06,0.3608,0][-0.2131,0.850533,-0.539495][0.3912,-0.0196001,-0.9201][0.0584,0.394,0][0.0928003,0.857333,-0.333995][0.7997,0.0477999,-0.5985][0.0613,0.3266,0][0.0833003,1.09473,-0.311195][0.8184,0.0421999,-0.5731][0.0255,0.3264,0][0.1762,1.09753,-0.120095][0.9112,0.1015,-0.3993][0.0234,0.3198,0][0.1762,1.09753,-0.120095][0.9112,0.1015,-0.3993][0.0234,0.3198,0][0.1572,0.865333,-0.195095][0.9073,0.0708999,-0.4145][0.06,0.3193,0][0.0928003,0.857333,-0.333995][0.7997,0.0477999,-0.5985][0.0613,0.3266,0][0.1572,0.865333,-0.195095][0.9073,0.0708999,-0.4145][0.06,0.3193,0][0.1762,1.09753,-0.120095][0.9112,0.1015,-0.3993][0.0234,0.3198,0][0.2275,1.09913,0.0503049][0.9843,0.1405,-0.1064][0.0256,0.2629,0][0.2275,1.09913,0.0503049][0.9843,0.1405,-0.1064][0.0256,0.2629,0][0.2682,0.876933,0.033005][0.9842,0.1068,-0.1413][0.0622,0.2596,0][0.1572,0.865333,-0.195095][0.9073,0.0708999,-0.4145][0.06,0.3193,0][0.2682,0.876933,0.033005][0.9842,0.1068,-0.1413][0.0622,0.2596,0][0.2275,1.09913,0.0503049][0.9843,0.1405,-0.1064][0.0256,0.2629,0][0.2059,1.10003,0.217105][0.9174,0.1447,0.3708][0.0254,0.2358,0][0.2059,1.10003,0.217105][0.9174,0.1447,0.3708][0.0254,0.2358,0][0.2367,0.883033,0.204005][0.9349,0.1328,0.3292][0.0614,0.232,0][0.2682,0.876933,0.033005][0.9842,0.1068,-0.1413][0.0622,0.2596,0][-0.0525997,1.14143,-0.167795][0.1622,0.9815,-0.1013][0.8571,0.4152,0][0.0833003,1.09473,-0.311195][0.1836,0.9723,-0.1449][0.8645,0.4197,0][-0.1459,1.14103,-0.266295][0.1143,0.9808,-0.158][0.853,0.4184,0][-0.3602,0.850733,-0.606095][0.274,0.00399996,-0.9617][0.057,0.4248,0][-0.2756,1.08883,-0.567295][0.3481,0.00479995,-0.9375][0.0195,0.3931,0][-0.2131,0.850533,-0.539495][0.3912,-0.0196001,-0.9201][0.0584,0.394,0][-0.2777,0.887533,0.533005][0.1314,0.1667,0.9772][0.0497,0.1161,0][-0.279,1.11793,0.508305][0.1201,0.1414,0.9826][0.0144,0.1223,0][-0.5,1.11993,0.501505][0.0271,0.1595,0.9868][0.0076,0.08,0][-0.5,1.11993,0.501505][0.0271,0.1595,0.9868][0.0076,0.08,0][-0.5,0.888333,0.551405][0.0555,0.1775,0.9826][0.0433,0.0733,0][-0.2777,0.887533,0.533005][0.1314,0.1667,0.9772][0.0497,0.1161,0][0.0833003,1.09473,-0.311195][0.8184,0.0421999,-0.5731][0.0255,0.3264,0][0.0928003,0.857333,-0.333995][0.7997,0.0477999,-0.5985][0.0613,0.3266,0][-0.0568997,0.851733,-0.452595][0.5654,0.0141999,-0.8247][0.06,0.3608,0][-0.0568997,0.851733,-0.452595][0.5654,0.0141999,-0.8247][0.06,0.3608,0][-0.0648997,1.08923,-0.487195][0.5585,-0.0273001,-0.829][0.0202,0.3596,0][0.0833003,1.09473,-0.311195][0.8184,0.0421999,-0.5731][0.0255,0.3264,0][-0.0689997,1.11113,0.458905][0.2938,0.1481,0.9443][0.0184,0.153,0][-0.1122,0.887833,0.500305][0.2487,0.1643,0.9545][0.054,0.1479,0][0.0250003,0.893033,0.462505][0.4751,0.1799,0.8614][0.0568,0.1745,0][0.0250003,0.893033,0.462505][0.4751,0.1799,0.8614][0.0568,0.1745,0][0.00230032,1.10793,0.416105][0.4808,0.1753,0.8591][0.0218,0.1781,0][-0.0689997,1.11113,0.458905][0.2938,0.1481,0.9443][0.0184,0.153,0][-0.5,1.15963,0.309005][-0.0479999,0.9884,0.1439][0.8369,0.4017,0][-0.5,1.11993,0.501505][-0.00849985,0.9769,0.2135][0.8368,0.3955,0][-0.3195,1.16623,0.296805][0.00350015,0.9881,0.154][0.8449,0.4015,0][-0.0525997,1.14143,-0.167795][0.1622,0.9815,-0.1013][0.8571,0.4152,0][0.1762,1.09753,-0.120095][0.2037,0.9755,-0.0835][0.8659,0.4167,0][0.0833003,1.09473,-0.311195][0.1836,0.9723,-0.1449][0.8645,0.4197,0][-0.0525997,1.14143,-0.167795][0.1622,0.9815,-0.1013][0.8571,0.4152,0][-0.0187997,1.14233,-0.0517951][0.167,0.9856,-0.025][0.8585,0.4116,0][0.1762,1.09753,-0.120095][0.2037,0.9755,-0.0835][0.8659,0.4167,0][-0.0187997,1.14233,-0.0517951][0.167,0.9856,-0.025][0.8585,0.4116,0][0.2275,1.09913,0.0503049][0.1737,0.9848,-0.0089][0.8707,0.4098,0][0.1762,1.09753,-0.120095][0.2037,0.9755,-0.0835][0.8659,0.4167,0][-0.5,1.13003,-0.355395][-0.0627998,0.9866,-0.1506][0.8374,0.4208,0][-0.3839,1.19503,-0.0206951][-0.0259998,0.9988,-0.0423][0.8422,0.4112,0][-0.3046,1.14233,-0.334395][0.0324001,0.9835,-0.1782][0.846,0.4207,0][-0.5,1.13003,-0.355395][-1,1.50996e-007,0][0.7798,0.3739,0][-0.5,1.09223,-0.622395][-1,1.50996e-007,0][0.7828,0.3745,0][-0.5,0.849133,-0.632695][-1,1.50996e-007,0][0.7868,0.3818,0][-0.5,1.13003,-0.355395][-1,1.50996e-007,0][0.7798,0.3739,0][-0.5,0.849133,-0.632695][-1,1.50996e-007,0][0.7868,0.3818,0][-0.5,0.816333,0.026105][-1,1.50996e-007,0][0.7758,0.3843,0][-0.5,1.09223,-0.622395][0.2214,0.0622,-0.9732][0.0168,0.4499,0][-0.2756,1.08883,-0.567295][0.3481,0.00479995,-0.9375][0.0195,0.3931,0][-0.3602,0.850733,-0.606095][0.274,0.00399996,-0.9617][0.057,0.4248,0]