mtllib 53990151.mtl
o Mesh

v -0.235276997089386 -0.7539839744567871 0.16035500168800354
v -0.13183799386024475 -0.7539839744567871 0.2872900068759918
v -0.15077699720859528 -1.0 0.30215299129486084
v -0.2650560140609741 -1.0 0.17351900041103363
v 0.009463000111281872 -0.7539839744567871 0.3240880072116852
v 0.005330999847501516 -1.0 0.3338629901409149
v 0.009463000111281872 -0.7539839744567871 0.3240880072116852
v 0.15076400339603424 -0.7539839744567871 0.2872900068759918
v 0.1614380031824112 -1.0 0.30215299129486084
v 0.005330999847501516 -1.0 0.3338629901409149
v 0.25420400500297546 -0.7539839744567871 0.16035500168800354
v 0.27571699023246765 -1.0 0.17351900041103363
v 0.29206499457359314 -0.7539839744567871 -0.013042000122368336
v 0.317546010017395 -1.0 -0.009355000220239162
v 0.25420400500297546 -0.7565300464630127 -0.17325200140476227
v 0.27571699023246765 -1.0 -0.16458000242710114
v 0.25420400500297546 -0.8326640129089355 -0.7138260006904602
v 0.15076400339603424 -0.7866779565811157 -0.7644979953765869
v 0.1614380031824112 -1.0 -0.7279199957847595
v 0.27571699023246765 -1.0 -0.6911500096321106
v 0.005330999847501516 -1.0 -0.7251799702644348
v 0.1614380031824112 -1.0 -0.7279199957847595
v 0.15076400339603424 -0.7866779565811157 -0.7644979953765869
v 0.009463000111281872 -0.7665890455245972 -0.7668460011482239
v -0.13183799386024475 -0.8054929971694946 -0.7229390144348145
v -0.15077699720859528 -1.0 -0.6863610148429871
v -0.235276997089386 -0.8640849590301514 -0.6176429986953735
v -0.2650560140609741 -1.0 -0.5949670076370239
v -0.2767390012741089 -0.7879509925842285 -0.17325200140476227
v -0.27313798666000366 -0.7539839744567871 -0.013042000122368336
v -0.3068850040435791 -1.0 -0.009355000220239162
v -0.3065190017223358 -1.0 -0.16458000242710114
v -0.15077699720859528 -1.0 0.30215299129486084
v 0.005330999847501516 -1.0 -0.031223999336361885
v -0.2650560140609741 -1.0 0.17351900041103363
v 0.005330999847501516 -1.0 0.3338629901409149
v 0.1614380031824112 -1.0 0.30215299129486084
v 0.27571699023246765 -1.0 0.17351900041103363
v 0.317546010017395 -1.0 -0.009355000220239162
v 0.27571699023246765 -1.0 -0.16458000242710114
v 0.1614380031824112 -1.0 -0.19010600447654724
v 0.005330999847501516 -1.0 -0.22181600332260132
v -0.15077699720859528 -1.0 -0.19010600447654724
v -0.3065190017223358 -1.0 -0.16458000242710114
v -0.3068850040435791 -1.0 -0.009355000220239162
v -0.13690699636936188 1.0824799537658691 0.11713399738073349
v -0.03930100053548813 1.0824799537658691 0.20311599969863892
v -0.09061799943447113 0.9994199872016907 0.2811410129070282
v -0.22579100728034973 0.9994199872016907 0.16206499934196472
v 0.09403099864721298 1.0824799537658691 0.23458799719810486
v 0.09403099864721298 0.9994199872016907 0.3247250020503998
v 0.2273630052804947 1.0824799537658691 0.20311599969863892
v 0.2786799967288971 0.9994199872016907 0.2811410129070282
v 0.32496899366378784 1.0824799537658691 0.11713399738073349
v 0.4138520061969757 0.9994199872016907 0.16206499934196472
v 0.3606950044631958 1.0824799537658691 -0.00031999999191612005
v 0.4633289873600006 0.9994199872016907 -0.0005939999828115106
v 0.32496899366378784 1.0824799537658691 -0.11777400225400925
v 0.4138520061969757 0.9994199872016907 -0.1632539927959442
v 0.2273630052804947 1.0824799537658691 -0.20375700294971466
v 0.2786799967288971 0.9994199872016907 -0.2823289930820465
v 0.09403099864721298 1.0824799537658691 -0.2352290004491806
v 0.09403099864721298 0.9994199872016907 -0.3259139955043793
v -0.03930100053548813 1.0824799537658691 -0.20375700294971466
v -0.09061799943447113 0.9994199872016907 -0.2823289930820465
v -0.13690699636936188 1.0824799537658691 -0.11777400225400925
v -0.22579100728034973 0.9994199872016907 -0.1632539927959442
v -0.17263300716876984 1.0824799537658691 -0.00031999999191612005
v -0.27526700496673584 0.9994199872016907 -0.0005939999828115106
v 0.15076400339603424 -0.684406042098999 -0.34395599365234375
v 0.14883799850940704 -0.5803329944610596 -0.30798599123954773
v 0.012796999886631966 -0.5826929807662964 -0.3559490144252777
v 0.009463000111281872 -0.684406042098999 -0.3807550072669983
v 0.24842700362205505 -0.5738869905471802 -0.17694999277591705
v 0.25420400500297546 -0.7565300464630127 -0.17325200140476227
v 0.28487899899482727 -0.5650819540023804 -0.022175999358296394
v 0.24842700362205505 -0.5738869905471802 -0.17694999277591705
v 0.24842700362205505 -0.5562770366668701 0.1197500005364418
v 0.14883799850940704 -0.5498310327529907 0.25078698992729187
v 0.012796999886631966 -0.5474720001220703 0.29875001311302185
v -0.12324299663305283 -0.5498310327529907 0.25078698992729187
v 0.012796999886631966 -0.5474720001220703 0.29875001311302185
v -0.22283199429512024 -0.5562770366668701 0.1197500005364418
v -0.25928398966789246 -0.5650819540023804 -0.022175999358296394
v -0.22283199429512024 -0.5738869905471802 -0.17694999277591705
v -0.13183799386024475 -0.7158269882202148 -0.34395599365234375
v -0.12324299663305283 -0.5803329944610596 -0.30798599123954773
v -0.22283199429512024 -0.5738869905471802 -0.17694999277591705
v -0.2767390012741089 -0.7879509925842285 -0.17325200140476227
v -0.3520210087299347 0.19436997175216675 -0.27911800146102905
v -0.41200101375579834 0.17177999019622803 -0.04998200014233589
v -0.38366401195526123 0.04408001899719238 -0.06418199837207794
v -0.32809799909591675 0.04408001899719238 -0.27155598998069763
v -0.17628900706768036 0.04408001899719238 -0.4233649969100952
v -0.1881520003080368 0.21091002225875854 -0.4559270143508911
v -0.3520210087299347 0.19436997175216675 -0.27911800146102905
v -0.32809799909591675 0.04408001899719238 -0.27155598998069763
v 0.031084999442100525 0.04408001899719238 -0.4789299964904785
v 0.035698000341653824 0.21696001291275024 -0.5206429958343506
v 0.25954800844192505 0.21091002225875854 -0.4559270143508911
v 0.23845799267292023 0.04408001899719238 -0.4233649969100952
v 0.42341700196266174 0.19436997175216675 -0.27911800146102905
v 0.25954800844192505 0.21091002225875854 -0.4559270143508911
v 0.23845799267292023 0.04408001899719238 -0.4233649969100952
v 0.390267014503479 0.04408001899719238 -0.27155598998069763
v 0.4458329975605011 0.04408001899719238 -0.06418199837207794
v 0.4833970069885254 0.17177999019622803 -0.04998200014233589
v 0.42341700196266174 0.14917999505996704 0.19154299795627594
v 0.390267014503479 0.04408001899719238 0.1838729977607727
v 0.25954800844192505 0.13264000415802002 0.3683519959449768
v 0.42341700196266174 0.14917999505996704 0.19154299795627594
v 0.390267014503479 0.04408001899719238 0.1838729977607727
v 0.23845799267292023 0.04408001899719238 0.3356820046901703
v 0.035698000341653824 0.12659001350402832 0.43306800723075867
v 0.031084999442100525 0.04408001899719238 0.3912470042705536
v -0.1881520003080368 0.13264000415802002 0.3683519959449768
v -0.17628900706768036 0.04408001899719238 0.3356820046901703
v -0.32809799909591675 0.04408001899719238 0.1838729977607727
v -0.3520210087299347 0.14917999505996704 0.19154299795627594
v -0.1881520003080368 0.13264000415802002 0.3683519959449768
v -0.17628900706768036 0.04408001899719238 0.3356820046901703
v -0.09061799943447113 0.9994199872016907 -0.2823289930820465
v -0.22579100728034973 0.9994199872016907 -0.1632539927959442
v -0.24261699616909027 0.7649800181388855 -0.21032999455928802
v -0.10404100269079208 0.7649800181388855 -0.35742300748825073
v 0.09403099864721298 0.9994199872016907 -0.3259139955043793
v 0.08525700122117996 0.7649800181388855 -0.41126298904418945
v 0.2745549976825714 0.7649800181388855 -0.35742300748825073
v 0.2786799967288971 0.9994199872016907 -0.2823289930820465
v 0.4131309986114502 0.7649800181388855 -0.21032999455928802
v 0.4138520061969757 0.9994199872016907 -0.1632539927959442
v 0.2786799967288971 0.9994199872016907 -0.2823289930820465
v 0.2745549976825714 0.7649800181388855 -0.35742300748825073
v 0.46385401487350464 0.7649800181388855 -0.009397000074386597
v 0.4633289873600006 0.9994199872016907 -0.0005939999828115106
v 0.4138520061969757 0.9994199872016907 0.16206499934196472
v 0.4131309986114502 0.7649800181388855 0.19153599441051483
v 0.2786799967288971 0.9994199872016907 0.2811410129070282
v 0.4138520061969757 0.9994199872016907 0.16206499934196472
v 0.4131309986114502 0.7649800181388855 0.19153599441051483
v 0.2745549976825714 0.7649800181388855 0.33862900733947754
v 0.09403099864721298 0.9994199872016907 0.3247250020503998
v 0.08525700122117996 0.7649800181388855 0.39246800541877747
v -0.10404100269079208 0.7649800181388855 0.33862900733947754
v -0.09061799943447113 0.9994199872016907 0.2811410129070282
v -0.24261699616909027 0.7649800181388855 0.19153599441051483
v -0.22579100728034973 0.9994199872016907 0.16206499934196472
v -0.09061799943447113 0.9994199872016907 0.2811410129070282
v -0.10404100269079208 0.7649800181388855 0.33862900733947754
v -0.2933399975299835 0.7649800181388855 -0.009397000074386597
v -0.27526700496673584 0.9994199872016907 -0.0005939999828115106
v -0.22579100728034973 0.9994199872016907 -0.1632539927959442
v -0.24261699616909027 0.7649800181388855 -0.21032999455928802
v 0.025022000074386597 -0.12119805812835693 -0.3714919984340668
v -0.13460899889469147 -0.11523199081420898 -0.3252129852771759
v 0.18465399742126465 -0.11523199081420898 -0.3252129852771759
v 0.18465399742126465 -0.11523199081420898 -0.3252129852771759
v 0.3015120029449463 -0.0989309549331665 -0.19877499341964722
v 0.3442850112915039 -0.07666504383087158 -0.026057999581098557
v 0.3015120029449463 -0.05439794063568115 0.1466590017080307
v 0.3015120029449463 -0.05439794063568115 0.1466590017080307
v 0.18465399742126465 -0.03809702396392822 0.2730970084667206
v 0.025022000074386597 -0.03213095664978027 0.31937599182128906
v -0.13460899889469147 -0.03809702396392822 0.2730970084667206
v -0.2514669895172119 -0.05439794063568115 0.1466590017080307
v -0.13460899889469147 -0.03809702396392822 0.2730970084667206
v -0.29423999786376953 -0.07666504383087158 -0.026057999581098557
v -0.2514669895172119 -0.0989309549331665 -0.19877499341964722
v -0.2514669895172119 -0.0989309549331665 -0.19877499341964722
v -0.2514669895172119 -0.0989309549331665 -0.19877499341964722
v -0.29423999786376953 -0.07666504383087158 -0.026057999581098557
v -0.3186669945716858 -0.08350503444671631 -0.02518099918961525
v -0.27271199226379395 -0.10640299320220947 -0.2105650007724762
v -0.13460899889469147 -0.11523199081420898 -0.3252129852771759
v -0.2514669895172119 -0.0989309549331665 -0.19877499341964722
v -0.27271199226379395 -0.10640299320220947 -0.2105650007724762
v -0.14716200530529022 -0.12316703796386719 -0.34627699851989746
v 0.025022000074386597 -0.12119805812835693 -0.3714919984340668
v 0.024341000244021416 -0.1293020248413086 -0.39594998955726624
v 0.19584499299526215 -0.12316703796386719 -0.34627699851989746
v 0.18465399742126465 -0.11523199081420898 -0.3252129852771759
v 0.32139500975608826 -0.10640299320220947 -0.2105650007724762
v 0.3015120029449463 -0.0989309549331665 -0.19877499341964722
v 0.3673489987850189 -0.08350503444671631 -0.02518099918961525
v 0.3442850112915039 -0.07666504383087158 -0.026057999581098557
v 0.3015120029449463 -0.0989309549331665 -0.19877499341964722
v 0.32139500975608826 -0.10640299320220947 -0.2105650007724762
v 0.3015120029449463 -0.05439794063568115 0.1466590017080307
v 0.32139500975608826 -0.060606956481933594 0.1602039933204651
v 0.18465399742126465 -0.03809702396392822 0.2730970084667206
v 0.19584499299526215 -0.04384303092956543 0.29591500759124756
v 0.025022000074386597 -0.03213095664978027 0.31937599182128906
v 0.024341000244021416 -0.03770804405212402 0.3455890119075775
v -0.13460899889469147 -0.03809702396392822 0.2730970084667206
v 0.025022000074386597 -0.03213095664978027 0.31937599182128906
v 0.024341000244021416 -0.03770804405212402 0.3455890119075775
v -0.14716200530529022 -0.04384303092956543 0.29591500759124756
v -0.27271199226379395 -0.060606956481933594 0.1602039933204651
v -0.2514669895172119 -0.05439794063568115 0.1466590017080307
v 0.09403099864721298 1.1374000310897827 -3.999999989900971e-06
v -0.27271199226379395 -0.10640299320220947 -0.2105650007724762
v -0.3186669945716858 -0.08350503444671631 -0.02518099918961525
v -0.3305779993534088 -0.25343501567840576 -0.023886000737547874
v -0.2835739850997925 -0.2732130289077759 -0.2165140062570572
v -0.27271199226379395 -0.060606956481933594 0.1602039933204651
v -0.2835739850997925 -0.23365700244903564 0.16373999416828156
v -0.14716200530529022 -0.04384303092956543 0.29591500759124756
v -0.1551550030708313 -0.2191779613494873 0.31165701150894165
v 0.024341000244021416 -0.03770804405212402 0.3455890119075775
v 0.020268000662326813 -0.21387803554534912 0.3657990097999573
v 0.024341000244021416 -0.03770804405212402 0.3455890119075775
v 0.19584499299526215 -0.04384303092956543 0.29591500759124756
v 0.19569100439548492 -0.2191779613494873 0.31165701150894165
v 0.020268000662326813 -0.21387803554534912 0.3657990097999573
v 0.32139500975608826 -0.060606956481933594 0.1602039933204651
v 0.3241100013256073 -0.23365700244903564 0.16373999416828156
v 0.3673489987850189 -0.08350503444671631 -0.02518099918961525
v 0.37111398577690125 -0.25343501567840576 -0.023886000737547874
v 0.32139500975608826 -0.10640299320220947 -0.2105650007724762
v 0.3241100013256073 -0.2732130289077759 -0.2165140062570572
v 0.3241100013256073 -0.2732130289077759 -0.2165140062570572
v 0.32139500975608826 -0.10640299320220947 -0.2105650007724762
v 0.19584499299526215 -0.12316703796386719 -0.34627699851989746
v 0.19569100439548492 -0.28769195079803467 -0.3644320070743561
v 0.024341000244021416 -0.1293020248413086 -0.39594998955726624
v 0.020268000662326813 -0.2929919958114624 -0.4185729920864105
v -0.14716200530529022 -0.12316703796386719 -0.34627699851989746
v -0.1551550030708313 -0.28769195079803467 -0.3644320070743561
v -0.27271199226379395 -0.10640299320220947 -0.2105650007724762
v -0.2835739850997925 -0.2732130289077759 -0.2165140062570572
v 0.3189060091972351 -1.0 -0.4211350083351135
v 0.18637299537658691 -1.0 -0.507768988609314
v 0.1739940047264099 -0.7746750116348267 -0.5761809945106506
v 0.2939560115337372 -0.8014930486679077 -0.44381099939346313
v 0.2939560115337372 -0.8014930486679077 -0.44381099939346313
v 0.3189060091972351 -1.0 -0.4211350083351135
v 0.005330999847501516 -1.0 -0.5394780039787292
v 0.010122999548912048 -0.7625449895858765 -0.612978994846344
v -0.1757110059261322 -1.0 -0.507768988609314
v -0.15374700725078583 -0.8060950040817261 -0.5761809945106506
v -0.308243989944458 -1.0 -0.4211350083351135
v -0.308243989944458 -1.0 -0.4211350083351135
v -0.2737089991569519 -0.8660130500793457 -0.44381099939346313
v -0.2737089991569519 -0.8660130500793457 -0.44381099939346313
v -0.235276997089386 -0.8640849590301514 -0.6176429986953735
v -0.13183799386024475 -0.8054929971694946 -0.7229390144348145
v -0.15374700725078583 -0.8060950040817261 -0.5761809945106506
v -0.2737089991569519 -0.8660130500793457 -0.44381099939346313
v -0.2737089991569519 -0.8660130500793457 -0.44381099939346313
v -0.308243989944458 -1.0 -0.4211350083351135
v -0.15077699720859528 -1.0 -0.6863610148429871
v -0.2650560140609741 -1.0 -0.5949670076370239
v 0.005330999847501516 -1.0 -0.7251799702644348
v 0.1614380031824112 -1.0 -0.7279199957847595
v 0.27571699023246765 -1.0 -0.6911500096321106
v 0.2939560115337372 -0.8014930486679077 -0.44381099939346313
v 0.3189060091972351 -1.0 -0.4211350083351135
v 0.1739940047264099 -0.7746750116348267 -0.5761809945106506
v 0.15076400339603424 -0.7866779565811157 -0.7644979953765869
v 0.25420400500297546 -0.8326640129089355 -0.7138260006904602
v 0.2939560115337372 -0.8014930486679077 -0.44381099939346313
v 0.009463000111281872 -0.7665890455245972 -0.7668460011482239
v 0.010122999548912048 -0.7625449895858765 -0.612978994846344
v 0.15076400339603424 -0.7866779565811157 -0.7644979953765869
v 0.1739940047264099 -0.7746750116348267 -0.5761809945106506

vn -0.8883799910545349 0.12880200147628784 0.44067099690437317
vn -0.5316540002822876 0.1144620031118393 0.8391910195350647
vn -0.5092849731445312 0.10040099918842316 0.8547210097312927
vn -0.8824909925460815 0.13317300379276276 0.4510819911956787
vn -0.0049760001711547375 0.08618500083684921 0.9962670207023621
vn -0.01133199967443943 0.05084399878978729 0.9986420273780823
vn -0.0049760001711547375 0.08618500083684921 0.9962670207023621
vn 0.5332880020141602 0.10808099806308746 0.8390009999275208
vn 0.5070419907569885 0.06283999979496002 0.8596270084381104
vn -0.01133199967443943 0.05084399878978729 0.9986420273780823
vn 0.8922590017318726 0.10538999736309052 0.4390529990196228
vn 0.8881930112838745 0.0925849974155426 0.45004600286483765
vn 0.9974300265312195 0.07138600200414658 -0.006142000202089548
vn 0.9947630167007446 0.10052599757909775 -0.018473999574780464
vn 0.9687579870223999 0.15870800614356995 -0.19057899713516235
vn 0.9930649995803833 0.10211600363254547 -0.0582519993185997
vn 0.721297025680542 0.40141600370407104 -0.5644429922103882
vn 0.2814210057258606 0.5734829902648926 -0.7693629860877991
vn 0.16951900720596313 -0.1391029953956604 -0.9756609797477722
vn 0.7971400022506714 0.02084200084209442 -0.6034349799156189
vn -0.1324629932641983 -0.16723600029945374 -0.9769780039787292
vn 0.16951900720596313 -0.1391029953956604 -0.9756609797477722
vn 0.2814210057258606 0.5734829902648926 -0.7693629860877991
vn -0.1279049962759018 0.6479169726371765 -0.7508950233459473
vn -0.5204030275344849 0.5286509990692139 -0.6706029772758484
vn -0.48485198616981506 -0.08966399729251862 -0.8699880242347717
vn -0.7982439994812012 0.43084999918937683 -0.4209209978580475
vn -0.8661640286445618 0.11800999939441681 -0.48562800884246826
vn -0.9507049918174744 0.26732900738716125 -0.15714900195598602
vn -0.9874299764633179 0.1361979991197586 0.08019600063562393
vn -0.9844580292701721 0.1376190036535263 0.1091030016541481
vn -0.9877949953079224 0.15477100014686584 -0.01752600073814392
vn -0.0 -1.0 -0.0
vn -0.0 -1.0 -0.0
vn -0.0 -1.0 -0.0
vn -0.0 -1.0 -0.0
vn -0.0 -1.0 -0.0
vn -0.0 -1.0 -0.0
vn -0.0 -1.0 -0.0
vn -0.0 -1.0 -0.0
vn -0.0 -1.0 -0.0
vn -0.0 -1.0 -0.0
vn -0.0 -1.0 -0.0
vn -0.0 -1.0 -0.0
vn -0.0 -1.0 -0.0
vn -0.3938579857349396 0.8816810250282288 0.2598339915275574
vn -0.22045299410820007 0.8724470138549805 0.43616199493408203
vn -0.42038199305534363 0.4843960106372833 0.7672280073165894
vn -0.7605569958686829 0.4489719867706299 0.46901699900627136
vn 0.0 0.8680599927902222 0.4964590072631836
vn 0.0032480000518262386 0.49982699751853943 0.8661190271377563
vn 0.22045299410820007 0.8724470138549805 0.43616199493408203
vn 0.43013298511505127 0.467536985874176 0.7722659707069397
vn 0.39386001229286194 0.8816800117492676 0.25983500480651855
vn 0.7746610045433044 0.4197719991207123 0.4729610085487366
vn 0.4623650014400482 0.8866900205612183 0.00016900000628083944
vn 0.9150829911231995 0.40324699878692627 0.004000000189989805
vn 0.3932870030403137 0.8821439743041992 -0.2591269910335541
vn 0.7712159752845764 0.4366089999675751 -0.46324801445007324
vn 0.2199230045080185 0.8732619881629944 -0.43479499220848083
vn 0.42528799176216125 0.4957129955291748 -0.7572309970855713
vn 0.0 0.8690109848976135 -0.49479201436042786
vn 0.0031469999812543392 0.531361997127533 -0.8471390008926392
vn -0.2199230045080185 0.8732619881629944 -0.43479499220848083
vn -0.415365993976593 0.5122950077056885 -0.7516810297966003
vn -0.39328500628471375 0.8821449875831604 -0.2591269910335541
vn -0.756521999835968 0.4658910036087036 -0.4589340090751648
vn -0.46236398816108704 0.8866900205612183 0.00016900000628083944
vn -0.8994089961051941 0.4370889961719513 0.004019000101834536
vn 0.5462890267372131 0.6380509734153748 -0.5426409840583801
vn 0.5986930131912231 0.0227269995957613 -0.8006560206413269
vn -0.012707999907433987 0.029193000867962837 -0.9994930028915405
vn -0.0841590017080307 0.6921600103378296 -0.716821014881134
vn 0.9068610072135925 -0.10643099993467331 -0.40776801109313965
vn 0.9687579870223999 0.15870800614356995 -0.19057899713516235
vn 0.9928690195083618 -0.11834400147199631 0.014324000105261803
vn 0.9068610072135925 -0.10643099993467331 -0.40776801109313965
vn 0.9017829895019531 -0.08497799932956696 0.4237529933452606
vn 0.5824679732322693 -0.04139599949121475 0.8117989897727966
vn 0.002764000091701746 -0.025714000687003136 0.9996659755706787
vn -0.586982011795044 -0.02269900031387806 0.8092820048332214
vn 0.002764000091701746 -0.025714000687003136 0.9996659755706787
vn -0.9049000144004822 -0.04879400134086609 0.42281800508499146
vn -0.9969409704208374 -0.07728099822998047 0.011668000370264053
vn -0.9110640287399292 -0.022859999909996986 -0.4116300046443939
vn -0.5850930213928223 0.6043530106544495 -0.5407620072364807
vn -0.5932379961013794 0.01786400005221367 -0.8048290014266968
vn -0.9110640287399292 -0.022859999909996986 -0.4116300046443939
vn -0.9507049918174744 0.26732900738716125 -0.15714900195598602
vn -0.8766160011291504 0.025039000436663628 -0.4805389940738678
vn -0.9999470114707947 -0.009494000114500523 -0.004056999925523996
vn -0.9203720092773438 -0.38974499702453613 -0.03185199946165085
vn -0.8072389960289001 -0.3592680096626282 -0.4682849943637848
vn -0.47178199887275696 -0.3656980097293854 -0.8023009896278381
vn -0.522275984287262 0.011664999648928642 -0.8526970148086548
vn -0.8766160011291504 0.025039000436663628 -0.4805389940738678
vn -0.8072389960289001 -0.3592680096626282 -0.4682849943637848
vn 0.002707999898120761 -0.385998010635376 -0.9224960207939148
vn -0.005375000182539225 -0.01594799943268299 -0.999858021736145
vn 0.5125740170478821 -0.043104998767375946 -0.8575599789619446
vn 0.4614810049533844 -0.39382699131965637 -0.7949439883232117
vn 0.8693580031394958 -0.07125099748373032 -0.4890190064907074
vn 0.5125740170478821 -0.043104998767375946 -0.8575599789619446
vn 0.4614810049533844 -0.39382699131965637 -0.7949439883232117
vn 0.79128098487854 -0.40306299924850464 -0.45979899168014526
vn 0.8944560289382935 -0.4459950029850006 -0.03219600021839142
vn 0.9924250245094299 -0.12202499806880951 -0.01420500036329031
vn 0.8782119750976562 -0.1413780003786087 0.4568980038166046
vn 0.7623329758644104 -0.49002400040626526 0.422760009765625
vn 0.5110030174255371 -0.1784690022468567 0.8408480286598206
vn 0.8782119750976562 -0.1413780003786087 0.4568980038166046
vn 0.7623329758644104 -0.49002400040626526 0.422760009765625
vn 0.42372599244117737 -0.5473260283470154 0.7217270135879517
vn -0.00804699957370758 -0.19212999939918518 0.9813370108604431
vn -0.009848999790847301 -0.5588859915733337 0.8291860222816467
vn -0.5140299797058105 -0.12287499755620956 0.8489260077476501
vn -0.43265798687934875 -0.5099120140075684 0.7435029745101929
vn -0.7881399989128113 -0.4343070089817047 0.43613401055336
vn -0.8852499723434448 -0.03841400146484375 0.46352699398994446
vn -0.5140299797058105 -0.12287499755620956 0.8489260077476501
vn -0.43265798687934875 -0.5099120140075684 0.7435029745101929
vn -0.415365993976593 0.5122950077056885 -0.7516810297966003
vn -0.756521999835968 0.4658910036087036 -0.4589340090751648
vn -0.8500480055809021 0.20555199682712555 -0.4849410057067871
vn -0.48832300305366516 0.26326999068260193 -0.8320040106773376
vn 0.0031469999812543392 0.531361997127533 -0.8471390008926392
vn 0.0064119999296963215 0.2649120092391968 -0.9642509818077087
vn 0.5037630200386047 0.20024199783802032 -0.8403130173683167
vn 0.42528799176216125 0.4957129955291748 -0.7572309970855713
vn 0.8650839924812317 0.09877000004053116 -0.4918070137500763
vn 0.7712159752845764 0.4366089999675751 -0.46324801445007324
vn 0.42528799176216125 0.4957129955291748 -0.7572309970855713
vn 0.5037630200386047 0.20024199783802032 -0.8403130173683167
vn 0.9995999932289124 0.028193000704050064 0.0023010000586509705
vn 0.9150829911231995 0.40324699878692627 0.004000000189989805
vn 0.7746610045433044 0.4197719991207123 0.4729610085487366
vn 0.8665410280227661 0.04928300157189369 0.4966669976711273
vn 0.43013298511505127 0.467536985874176 0.7722659707069397
vn 0.7746610045433044 0.4197719991207123 0.4729610085487366
vn 0.8665410280227661 0.04928300157189369 0.4966669976711273
vn 0.5062990188598633 0.11775799840688705 0.8542799949645996
vn 0.0032480000518262386 0.49982699751853943 0.8661190271377563
vn 0.004523000214248896 0.16773299872875214 0.9858220219612122
vn -0.49605700373649597 0.17454400658607483 0.850566029548645
vn -0.42038199305534363 0.4843960106372833 0.7672280073165894
vn -0.8562110066413879 0.14979200065135956 0.4944329857826233
vn -0.7605569958686829 0.4489719867706299 0.46901699900627136
vn -0.42038199305534363 0.4843960106372833 0.7672280073165894
vn -0.49605700373649597 0.17454400658607483 0.850566029548645
vn -0.9889670014381409 0.1480800062417984 0.004050000105053186
vn -0.8994089961051941 0.4370889961719513 0.004019000101834536
vn -0.756521999835968 0.4658910036087036 -0.4589340090751648
vn -0.8500480055809021 0.20555199682712555 -0.4849410057067871
vn 0.005543999839574099 -0.5533390045166016 -0.832938015460968
vn -0.4458250105381012 -0.5694479942321777 -0.6906300187110901
vn 0.4240170121192932 -0.584792971611023 -0.691540002822876
vn 0.4240170121192932 -0.584792971611023 -0.691540002822876
vn 0.7019079923629761 -0.6330919861793518 -0.32637301087379456
vn 0.7553009986877441 -0.6523450016975403 0.06298699975013733
vn 0.5959179997444153 -0.6995819807052612 0.39429399371147156
vn 0.5959179997444153 -0.6995819807052612 0.39429399371147156
vn 0.32932499051094055 -0.7010300159454346 0.632535994052887
vn -0.01207400020211935 -0.6837090253829956 0.7296550273895264
vn -0.35192400217056274 -0.6735309958457947 0.6500049829483032
vn -0.634676992893219 -0.6579530239105225 0.4053179919719696
vn -0.35192400217056274 -0.6735309958457947 0.6500049829483032
vn -0.7951939702033997 -0.6033589839935303 0.060210999101400375
vn -0.7297520041465759 -0.5933399796485901 -0.3397209942340851
vn -0.7297520041465759 -0.5933399796485901 -0.3397209942340851
vn -0.20858600735664368 0.950685977935791 -0.2295369952917099
vn -0.2716909945011139 0.9544870257377625 -0.12304200232028961
vn -0.27176499366760254 0.9546409845352173 -0.12167099863290787
vn -0.20472300052642822 0.9511439800262451 -0.231113001704216
vn -0.1099030002951622 0.9496369957923889 -0.29344600439071655
vn -0.20858600735664368 0.950685977935791 -0.2295369952917099
vn -0.20472300052642822 0.9511439800262451 -0.231113001704216
vn -0.10691799968481064 0.9499499797821045 -0.2935369908809662
vn 0.001246000058017671 0.9490039944648743 -0.31526100635528564
vn -0.0007360000163316727 0.9492539763450623 -0.3145099878311157
vn 0.10866700112819672 0.9480990171432495 -0.2988300025463104
vn 0.11505000293254852 0.9478859901428223 -0.29711198806762695
vn 0.21408499777317047 0.9476590156555176 -0.2368749976158142
vn 0.21939900517463684 0.9473699927330017 -0.2331410050392151
vn 0.2865400016307831 0.9503780007362366 -0.1211479976773262
vn 0.2864629924297333 0.9502289891242981 -0.1224920004606247
vn 0.21939900517463684 0.9473699927330017 -0.2331410050392151
vn 0.21408499777317047 0.9476590156555176 -0.2368749976158142
vn 0.28044500946998596 0.9595270156860352 0.025666000321507454
vn 0.27868300676345825 0.9597989916801453 0.0335099995136261
vn 0.177948996424675 0.9715700149536133 0.15616300702095032
vn 0.17032599449157715 0.9720010161399841 0.16187399625778198
vn 0.0011340000201016665 0.9781889915466309 0.2077140063047409
vn -0.0017600000137463212 0.9782310128211975 0.20751099288463593
vn -0.16996900737285614 0.9738190174102783 0.1509539932012558
vn 0.0011340000201016665 0.9781889915466309 0.2077140063047409
vn -0.0017600000137463212 0.9782310128211975 0.20751099288463593
vn -0.16699600219726562 0.9739530086517334 0.15338699519634247
vn -0.26705801486968994 0.9633449912071228 0.025436999276280403
vn -0.267085999250412 0.9634630084037781 0.020085999742150307
vn 0.0 1.0 0.000311999989207834
vn -0.8828759789466858 0.07257799804210663 -0.46396398544311523
vn -0.9975659847259521 0.06895100325345993 0.01042100042104721
vn -0.9971569776535034 -0.07478299736976624 0.00928100012242794
vn -0.8856220245361328 -0.07502999901771545 -0.4583069980144501
vn -0.8764200210571289 0.07343199849128723 0.4759159982204437
vn -0.8839889764785767 -0.0707240030169487 0.4621270000934601
vn -0.5234019756317139 0.10436800122261047 0.8456699848175049
vn -0.5400329828262329 -0.04949900135397911 0.8401870131492615
vn 0.008437000215053558 0.10929899662733078 0.9939730167388916
vn 0.004170000087469816 -0.043623000383377075 0.9990389943122864
vn 0.008437000215053558 0.10929899662733078 0.9939730167388916
vn 0.5251389741897583 0.07564300298690796 0.847648024559021
vn 0.5336599946022034 -0.07388400286436081 0.8424659967422485
vn 0.004170000087469816 -0.043623000383377075 0.9990389943122864
vn 0.8779550194740295 0.03230300173163414 0.47765299677848816
vn 0.8790879845619202 -0.11009000241756439 0.4637719988822937
vn 0.9996430277824402 0.02144799940288067 0.01592699997127056
vn 0.992688000202179 -0.1199449971318245 0.013558000326156616
vn 0.8885430097579956 0.029589999467134476 -0.4578390121459961
vn 0.883508026599884 -0.11595100164413452 -0.45383700728416443
vn 0.883508026599884 -0.11595100164413452 -0.45383700728416443
vn 0.8885430097579956 0.029589999467134476 -0.4578390121459961
vn 0.5456110239028931 0.08196800202131271 -0.8340200185775757
vn 0.5467349886894226 -0.07870399951934814 -0.8335989713668823
vn 0.004707000218331814 0.12717799842357635 -0.9918689727783203
vn 0.00022699999681208283 -0.04596100002527237 -0.9989429712295532
vn -0.5365179777145386 0.10891199856996536 -0.8368309736251831
vn -0.5468299984931946 -0.05306600034236908 -0.8355600237846375
vn -0.8828759789466858 0.07257799804210663 -0.46396398544311523
vn -0.8856220245361328 -0.07502999901771545 -0.4583069980144501
vn -0.0 -1.0 -0.0
vn -0.0 -1.0 -0.0
vn 0.28683799505233765 0.9361019730567932 -0.20356400310993195
vn 0.8534349799156189 0.5121319890022278 -0.09679500013589859
vn 0.8534349799156189 0.5121319890022278 -0.09679500013589859
vn 0.9918590188026428 0.12641599774360657 0.015329999849200249
vn -0.0 -1.0 -0.0
vn -0.08484599739313126 0.9825180172920227 -0.1657080054283142
vn -0.0 -1.0 -0.0
vn -0.45210200548171997 0.8769310116767883 -0.16308100521564484
vn -0.0 -1.0 -0.0
vn -0.9674209952354431 0.2323240041732788 -0.10061399638652802
vn -0.8606330156326294 0.4799819886684418 -0.17008300125598907
vn -0.8606330156326294 0.4799819886684418 -0.17008300125598907
vn -0.7982439994812012 0.43084999918937683 -0.4209209978580475
vn -0.5204030275344849 0.5286509990692139 -0.6706029772758484
vn -0.45210200548171997 0.8769310116767883 -0.16308100521564484
vn -0.8606330156326294 0.4799819886684418 -0.17008300125598907
vn -0.8606330156326294 0.4799819886684418 -0.17008300125598907
vn -0.9674209952354431 0.2323240041732788 -0.10061399638652802
vn -0.0 -1.0 -0.0
vn -0.0 -1.0 -0.0
vn -0.0 -1.0 -0.0
vn -0.0 -1.0 -0.0
vn -0.0 -1.0 -0.0
vn 0.8534349799156189 0.5121319890022278 -0.09679500013589859
vn 0.9918590188026428 0.12641599774360657 0.015329999849200249
vn 0.28683799505233765 0.9361019730567932 -0.20356400310993195
vn 0.2814210057258606 0.5734829902648926 -0.7693629860877991
vn 0.721297025680542 0.40141600370407104 -0.5644429922103882
vn 0.8534349799156189 0.5121319890022278 -0.09679500013589859
vn -0.1279049962759018 0.6479169726371765 -0.7508950233459473
vn -0.08484599739313126 0.9825180172920227 -0.1657080054283142
vn 0.2814210057258606 0.5734829902648926 -0.7693629860877991
vn 0.28683799505233765 0.9361019730567932 -0.20356400310993195

vt 0.8144180178642273 0.040328025817871094
vt 0.814037024974823 0.02929598093032837
vt 0.8310400247573853 0.028854012489318848
vt 0.831250011920929 0.04046201705932617
vt 0.8136460185050964 0.019536972045898438
vt 0.8303599953651428 0.018160998821258545
vt 0.8149009943008423 0.21394997835159302
vt 0.815330982208252 0.20412498712539673
vt 0.832211971282959 0.20475399494171143
vt 0.8316680192947388 0.2155190110206604
vt 0.8154299855232239 0.19320499897003174
vt 0.8324289917945862 0.1931840181350708
vt 0.8153359889984131 0.18117797374725342
vt 0.8322939872741699 0.18064701557159424
vt 0.8153679966926575 0.16994398832321167
vt 0.831915020942688 0.16995197534561157
vt 0.7096970081329346 0.1418740153312683
vt 0.7069829702377319 0.15003597736358643
vt 0.7217839956283569 0.14743399620056152
vt 0.7211790084838867 0.13912999629974365
vt 0.7223029732704163 0.18102800846099854
vt 0.7217839956283569 0.14743399620056152
vt 0.7069829702377319 0.15003597736358643
vt 0.7059699892997742 0.1791059970855713
vt 0.7081329822540283 0.18949300050735474
vt 0.7216600179672241 0.19216501712799072
vt 0.7122319936752319 0.1997159719467163
vt 0.7216569781303406 0.20231300592422485
vt 0.816286027431488 0.06341302394866943
vt 0.8141199946403503 0.052300989627838135
vt 0.8309450149536133 0.05315101146697998
vt 0.8306509852409363 0.06364202499389648
vt 0.7348499894142151 0.020437002182006836
vt 0.7240999937057495 0.043591976165771484
vt 0.742805004119873 0.0293310284614563
vt 0.724016010761261 0.018274009227752686
vt 0.7131969928741455 0.020509004592895508
vt 0.7053020000457764 0.02945500612258911
vt 0.70244300365448 0.04214799404144287
vt 0.7053790092468262 0.0529019832611084
vt 0.7133100032806396 0.05464601516723633
vt 0.7241439819335938 0.05681002140045166
vt 0.734961986541748 0.05457502603530884
vt 0.745756983757019 0.0527690052986145
vt 0.7457470297813416 0.04200398921966553
vt 0.47359099984169006 0.31857001781463623
vt 0.48159700632095337 0.3341689705848694
vt 0.47687798738479614 0.359063982963562
vt 0.4611009955406189 0.359063982963562
vt 0.4922249913215637 0.33885401487350464
vt 0.4923099875450134 0.359063982963562
vt 0.5030050277709961 0.3340020179748535
vt 0.5076919794082642 0.359063982963562
vt 0.510860025882721 0.31779801845550537
vt 0.5231199860572815 0.359063982963562
vt 0.5134869813919067 0.2969849705696106
vt 0.5231199860572815 0.29639101028442383
vt 0.510798990726471 0.27592897415161133
vt 0.5231199860572815 0.2350199818611145
vt 0.50279301404953 0.260466992855072
vt 0.5075280070304871 0.2350199818611145
vt 0.491894006729126 0.25564998388290405
vt 0.4918609857559204 0.2350199818611145
vt 0.4812769889831543 0.26085299253463745
vt 0.47629600763320923 0.2350199818611145
vt 0.4735279977321625 0.2766519784927368
vt 0.4611009955406189 0.2350199818611145
vt 0.47087299823760986 0.2974969744682312
vt 0.4611009955406189 0.29757601022720337
vt 0.8210849761962891 0.13068002462387085
vt 0.8133789896965027 0.13082897663116455
vt 0.8147779703140259 0.11918497085571289
vt 0.82151198387146 0.11866700649261475
vt 0.8083789944648743 0.14401298761367798
vt 0.8189499974250793 0.14959901571273804
vt 0.8028749823570251 0.18066900968551636
vt 0.8033789992332458 0.16950899362564087
vt 0.8023939728736877 0.1911119818687439
vt 0.8016520142555237 0.2027900218963623
vt 0.8012629747390747 0.2126060128211975
vt 0.8005300164222717 0.030350029468536377
vt 0.7997050285339355 0.0203629732131958
vt 0.8016359806060791 0.04216700792312622
vt 0.8019239902496338 0.052662014961242676
vt 0.8021029829978943 0.06363201141357422
vt 0.821923017501831 0.10665500164031982
vt 0.8129370212554932 0.10741198062896729
vt 0.8084849715232849 0.09436500072479248
vt 0.8210390210151672 0.08585202693939209
vt 0.658253014087677 0.6254279911518097
vt 0.658253014087677 0.6611419916152954
vt 0.6397770047187805 0.6611419916152954
vt 0.6397770047187805 0.6254279911518097
vt 0.6397770047187805 0.5870830118656158
vt 0.658253014087677 0.5870830118656158
vt 0.658253014087677 0.6254279911518097
vt 0.6397770047187805 0.6254279911518097
vt 0.6397770047187805 0.5421830117702484
vt 0.658253014087677 0.5421830117702484
vt 0.658253014087677 0.4999709725379944
vt 0.6397770047187805 0.4999709725379944
vt 0.658253014087677 0.9572700001299381
vt 0.658253014087677 0.9998960000011721
vt 0.6397770047187805 0.9998960000011721
vt 0.6397770047187805 0.9572700001299381
vt 0.6397770047187805 0.9164080023765564
vt 0.658253014087677 0.9164080023765564
vt 0.658253014087677 0.8748520016670227
vt 0.6397770047187805 0.8748520016670227
vt 0.658253014087677 0.8380409926176071
vt 0.658253014087677 0.8748520016670227
vt 0.6397770047187805 0.8748520016670227
vt 0.6397770047187805 0.8380409926176071
vt 0.658253014087677 0.7883780002593994
vt 0.6397770047187805 0.7883780002593994
vt 0.658253014087677 0.7495430111885071
vt 0.6397770047187805 0.7495430111885071
vt 0.6397770047187805 0.7078279852867126
vt 0.658253014087677 0.7078279852867126
vt 0.658253014087677 0.7495430111885071
vt 0.6397770047187805 0.7495430111885071
vt 0.7421420216560364 0.5870830118656158
vt 0.7421420216560364 0.6254279911518097
vt 0.7159609794616699 0.6254279911518097
vt 0.7159609794616699 0.5870830118656158
vt 0.7421420216560364 0.5421830117702484
vt 0.7159609794616699 0.5421830117702484
vt 0.7159609794616699 0.4999709725379944
vt 0.7421420216560364 0.4999709725379944
vt 0.7159609794616699 0.9572700001299381
vt 0.7421420216560364 0.9572700001299381
vt 0.7421420216560364 0.9998960000011721
vt 0.7159609794616699 0.9998960000011721
vt 0.7159609794616699 0.9164080023765564
vt 0.7421420216560364 0.9164080023765564
vt 0.7421420216560364 0.8748520016670227
vt 0.7159609794616699 0.8748520016670227
vt 0.7421420216560364 0.8380409926176071
vt 0.7421420216560364 0.8748520016670227
vt 0.7159609794616699 0.8748520016670227
vt 0.7159609794616699 0.8380409926176071
vt 0.7421420216560364 0.7883780002593994
vt 0.7159609794616699 0.7883780002593994
vt 0.7159609794616699 0.7495430111885071
vt 0.7421420216560364 0.7495430111885071
vt 0.7159609794616699 0.7078279852867126
vt 0.7421420216560364 0.7078279852867126
vt 0.7421420216560364 0.7495430111885071
vt 0.7159609794616699 0.7495430111885071
vt 0.7159609794616699 0.6611419916152954
vt 0.7421420216560364 0.6611419916152954
vt 0.7421420216560364 0.6254279911518097
vt 0.7159609794616699 0.6254279911518097
vt 0.617222011089325 0.5421830117702484
vt 0.617222011089325 0.5870830118656158
vt 0.617222011089325 0.4999709725379944
vt 0.617222011089325 0.9998960000011721
vt 0.617222011089325 0.9572700001299381
vt 0.617222011089325 0.9164080023765564
vt 0.617222011089325 0.8748520016670227
vt 0.617222011089325 0.8748520016670227
vt 0.617222011089325 0.8380409926176071
vt 0.617222011089325 0.7883780002593994
vt 0.617222011089325 0.7495430111885071
vt 0.617222011089325 0.7078279852867126
vt 0.617222011089325 0.7495430111885071
vt 0.617222011089325 0.6611419916152954
vt 0.617222011089325 0.6254279911518097
vt 0.617222011089325 0.6254279911518097
vt 0.7673419713973999 0.06588500738143921
vt 0.7667859792709351 0.05385100841522217
vt 0.7683629989624023 0.053959012031555176
vt 0.7689849734306335 0.06657898426055908
vt 0.7739589810371399 0.10699498653411865
vt 0.7703909873962402 0.09516000747680664
vt 0.772068977355957 0.0942389965057373
vt 0.7758849859237671 0.10671001672744751
vt 0.7748399972915649 0.11875200271606445
vt 0.7770090103149414 0.11890500783920288
vt 0.7752919793128967 0.1308860182762146
vt 0.7732290029525757 0.1304900050163269
vt 0.7704929709434509 0.1428229808807373
vt 0.768809974193573 0.14192402362823486
vt 0.7701740264892578 0.17778998613357544
vt 0.768684983253479 0.17783498764038086
vt 0.769307017326355 0.16596901416778564
vt 0.7709100246429443 0.16547298431396484
vt 0.7668439745903015 0.1904670000076294
vt 0.7684810161590576 0.19079899787902832
vt 0.7649480104446411 0.20169097185134888
vt 0.7667319774627686 0.20231497287750244
vt 0.7627999782562256 0.21218502521514893
vt 0.764510989189148 0.21321499347686768
vt 0.7634570002555847 0.0314520001411438
vt 0.7611129879951477 0.0208359956741333
vt 0.7627559900283813 0.019930005073547363
vt 0.7651039958000183 0.030993998050689697
vt 0.766755998134613 0.04231297969818115
vt 0.7651219964027405 0.04248899221420288
vt 0.49212101101875305 0.2974169850349426
vt 0.7689849734306335 0.06657898426055908
vt 0.7683629989624023 0.053959012031555176
vt 0.780023992061615 0.054684996604919434
vt 0.7806450128555298 0.0671120285987854
vt 0.766755998134613 0.04231297969818115
vt 0.7784870266914368 0.041453003883361816
vt 0.7651039958000183 0.030993998050689697
vt 0.7776110172271729 0.02895897626876831
vt 0.7627559900283813 0.019930005073547363
vt 0.7765480279922485 0.017345011234283447
vt 0.764510989189148 0.21321499347686768
vt 0.7667319774627686 0.20231497287750244
vt 0.7785080075263977 0.20377200841903687
vt 0.777321994304657 0.2155190110206604
vt 0.7684810161590576 0.19079899787902832
vt 0.7806450128555298 0.19077402353286743
vt 0.7701740264892578 0.17778998613357544
vt 0.7821130156517029 0.17812198400497437
vt 0.7709100246429443 0.16547298431396484
vt 0.7828530073165894 0.16545099020004272
vt 0.7834450006484985 0.1452379822731018
vt 0.7704929709434509 0.1428229808807373
vt 0.7752919793128967 0.1308860182762146
vt 0.7887380123138428 0.13193899393081665
vt 0.7770090103149414 0.11890500783920288
vt 0.790353000164032 0.11939799785614014
vt 0.7758849859237671 0.10671001672744751
vt 0.7889119982719421 0.1063690185546875
vt 0.772068977355957 0.0942389965057373
vt 0.7850199937820435 0.09229302406311035
vt 0.70244300365448 0.07070499658584595
vt 0.711654007434845 0.07668197154998779
vt 0.8412349820137024 0.12976497411727905
vt 0.8373810052871704 0.1413249969482422
vt 0.8183310031890869 0.15135997533798218
vt 0.831745982170105 0.15253502130508423
vt 0.7242159843444824 0.0788390040397644
vt 0.8416879773139954 0.11794900894165039
vt 0.7367640137672424 0.07659900188446045
vt 0.8417940139770508 0.10645401477813721
vt 0.7459359765052795 0.0705609917640686
vt 0.8301519751548767 0.08098798990249634
vt 0.8208379745483398 0.08214700222015381
vt 0.8381549715995789 0.093563973903656
vt 0.7449319958686829 0.10279697179794312
vt 0.7368919849395752 0.11032497882843018
vt 0.7379279732704163 0.10008597373962402
vt 0.7469279766082764 0.09061300754547119
vt 0.711562991142273 0.21204501390457153
vt 0.7209129929542542 0.2147129774093628
vt 0.7350760102272034 0.0889899730682373
vt 0.7429810166358948 0.08262497186660767
vt 0.7242590188980103 0.09171801805496216
vt 0.7134339809417725 0.09194302558898926
vt 0.7055000066757202 0.08942002058029175
vt 0.7059699892997742 0.1231909990310669
vt 0.7196170091629028 0.12023097276687622
vt 0.7146880030632019 0.10240000486373901
vt 0.7197229862213135 0.1145859956741333
vt 0.7111759781837463 0.11361998319625854
vt 0.7039139866828918 0.09600800275802612
vt 0.7268700003623962 0.11380499601364136
vt 0.7262899875640869 0.10314399003982544
vt 0.7197229862213135 0.1145859956741333
vt 0.7146880030632019 0.10240000486373901

usemtl Material

f 1/1/1 3/3/3 2/2/2
f 3/3/3 1/1/1 4/4/4
f 2/2/2 6/6/6 5/5/5
f 6/6/6 2/2/2 3/3/3
f 7/7/7 9/9/9 8/8/8
f 9/9/9 7/7/7 10/10/10
f 8/8/8 12/12/12 11/11/11
f 12/12/12 8/8/8 9/9/9
f 11/11/11 14/14/14 13/13/13
f 14/14/14 11/11/11 12/12/12
f 13/13/13 16/16/16 15/15/15
f 16/16/16 13/13/13 14/14/14
f 17/17/17 19/19/19 18/18/18
f 19/19/19 17/17/17 20/20/20
f 21/21/21 23/23/23 22/22/22
f 23/23/23 21/21/21 24/24/24
f 21/21/21 25/25/25 24/24/24
f 25/25/25 21/21/21 26/26/26
f 26/26/26 27/27/27 25/25/25
f 27/27/27 26/26/26 28/28/28
f 29/29/29 31/31/31 30/30/30
f 31/31/31 29/29/29 32/32/32
f 30/30/30 4/4/4 1/1/1
f 4/4/4 30/30/30 31/31/31
f 33/33/33 35/35/35 34/34/34
f 36/36/36 33/33/33 34/34/34
f 37/37/37 36/36/36 34/34/34
f 38/38/38 37/37/37 34/34/34
f 39/39/39 38/38/38 34/34/34
f 40/40/40 39/39/39 34/34/34
f 41/41/41 40/40/40 34/34/34
f 42/42/42 41/41/41 34/34/34
f 43/43/43 42/42/42 34/34/34
f 44/44/44 43/43/43 34/34/34
f 45/45/45 44/44/44 34/34/34
f 35/35/35 45/45/45 34/34/34
f 46/46/46 48/48/48 47/47/47
f 48/48/48 46/46/46 49/49/49
f 47/47/47 51/51/51 50/50/50
f 51/51/51 47/47/47 48/48/48
f 51/51/51 52/52/52 50/50/50
f 52/52/52 51/51/51 53/53/53
f 53/53/53 54/54/54 52/52/52
f 54/54/54 53/53/53 55/55/55
f 55/55/55 56/56/56 54/54/54
f 56/56/56 55/55/55 57/57/57
f 56/56/56 59/59/59 58/58/58
f 59/59/59 56/56/56 57/57/57
f 58/58/58 61/61/61 60/60/60
f 61/61/61 58/58/58 59/59/59
f 60/60/60 63/63/63 62/62/62
f 63/63/63 60/60/60 61/61/61
f 63/63/63 64/64/64 62/62/62
f 64/64/64 63/63/63 65/65/65
f 65/65/65 66/66/66 64/64/64
f 66/66/66 65/65/65 67/67/67
f 67/67/67 68/68/68 66/66/66
f 68/68/68 67/67/67 69/69/69
f 68/68/68 49/49/49 46/46/46
f 49/49/49 68/68/68 69/69/69
f 70/70/70 72/72/72 71/71/71
f 72/72/72 70/70/70 73/73/73
f 74/74/74 70/70/70 71/71/71
f 70/70/70 74/74/74 75/75/75
f 76/76/76 15/15/15 77/77/77
f 15/15/15 76/76/76 13/13/13
f 78/78/78 13/13/13 76/76/76
f 13/13/13 78/78/78 11/11/11
f 79/79/79 11/11/11 78/78/78
f 11/11/11 79/79/79 8/8/8
f 80/80/80 8/8/8 79/79/79
f 8/8/8 80/80/80 7/7/7
f 2/2/2 82/82/82 81/81/81
f 82/82/82 2/2/2 5/5/5
f 1/1/1 81/81/81 83/83/83
f 81/81/81 1/1/1 2/2/2
f 30/30/30 83/83/83 84/84/84
f 83/83/83 30/30/30 1/1/1
f 85/85/85 30/30/30 84/84/84
f 30/30/30 85/85/85 29/29/29
f 86/86/86 88/88/88 87/87/87
f 88/88/88 86/86/86 89/89/89
f 73/73/73 87/87/87 72/72/72
f 87/87/87 73/73/73 86/86/86
f 90/90/90 92/92/92 91/91/91
f 92/92/92 90/90/90 93/93/93
f 94/94/94 96/96/96 95/95/95
f 96/96/96 94/94/94 97/97/97
f 98/98/98 95/95/95 99/99/99
f 95/95/95 98/98/98 94/94/94
f 100/100/100 98/98/98 99/99/99
f 98/98/98 100/100/100 101/101/101
f 102/102/102 104/104/104 103/103/103
f 104/104/104 102/102/102 105/105/105
f 106/106/106 102/102/102 107/107/107
f 102/102/102 106/106/106 105/105/105
f 108/108/108 106/106/106 107/107/107
f 106/106/106 108/108/108 109/109/109
f 110/110/110 112/112/112 111/111/111
f 112/112/112 110/110/110 113/113/113
f 114/114/114 113/113/113 110/110/110
f 113/113/113 114/114/114 115/115/115
f 116/116/116 115/115/115 114/114/114
f 115/115/115 116/116/116 117/117/117
f 118/118/118 120/120/120 119/119/119
f 120/120/120 118/118/118 121/121/121
f 91/91/91 118/118/118 119/119/119
f 118/118/118 91/91/91 92/92/92
f 122/122/122 124/124/124 123/123/123
f 124/124/124 122/122/122 125/125/125
f 126/126/126 125/125/125 122/122/122
f 125/125/125 126/126/126 127/127/127
f 128/128/128 126/126/126 129/129/129
f 126/126/126 128/128/128 127/127/127
f 130/130/130 132/132/132 131/131/131
f 132/132/132 130/130/130 133/133/133
f 134/134/134 131/131/131 135/135/135
f 131/131/131 134/134/134 130/130/130
f 136/136/136 134/134/134 135/135/135
f 134/134/134 136/136/136 137/137/137
f 138/138/138 140/140/140 139/139/139
f 140/140/140 138/138/138 141/141/141
f 142/142/142 141/141/141 138/138/138
f 141/141/141 142/142/142 143/143/143
f 144/144/144 142/142/142 145/145/145
f 142/142/142 144/144/144 143/143/143
f 146/146/146 148/148/148 147/147/147
f 148/148/148 146/146/146 149/149/149
f 150/150/150 147/147/147 151/151/151
f 147/147/147 150/150/150 146/146/146
f 152/152/152 150/150/150 151/151/151
f 150/150/150 152/152/152 153/153/153
f 154/154/154 94/94/94 98/98/98
f 94/94/94 154/154/154 155/155/155
f 156/156/156 98/98/98 101/101/101
f 98/98/98 156/156/156 154/154/154
f 105/105/105 157/157/157 104/104/104
f 157/157/157 105/105/105 158/158/158
f 106/106/106 158/158/158 105/105/105
f 158/158/158 106/106/106 159/159/159
f 109/109/109 159/159/159 106/106/106
f 159/159/159 109/109/109 160/160/160
f 113/113/113 161/161/161 112/112/112
f 161/161/161 113/113/113 162/162/162
f 115/115/115 162/162/162 113/113/113
f 162/162/162 115/115/115 163/163/163
f 117/117/117 163/163/163 115/115/115
f 163/163/163 117/117/117 164/164/164
f 165/165/165 121/121/121 118/118/118
f 121/121/121 165/165/165 166/166/166
f 167/167/167 118/118/118 92/92/92
f 118/118/118 167/167/167 165/165/165
f 168/168/168 92/92/92 93/93/93
f 92/92/92 168/168/168 167/167/167
f 155/155/155 97/97/97 94/94/94
f 97/97/97 155/155/155 169/169/169
f 99/99/99 125/125/125 127/127/127
f 125/125/125 99/99/99 95/95/95
f 100/100/100 127/127/127 128/128/128
f 127/127/127 100/100/100 99/99/99
f 102/102/102 133/133/133 130/130/130
f 133/133/133 102/102/102 103/103/103
f 107/107/107 130/130/130 134/134/134
f 130/130/130 107/107/107 102/102/102
f 137/137/137 107/107/107 134/134/134
f 107/107/107 137/137/137 108/108/108
f 141/141/141 111/111/111 140/140/140
f 111/111/111 141/141/141 110/110/110
f 143/143/143 110/110/110 141/141/141
f 110/110/110 143/143/143 114/114/114
f 144/144/144 114/114/114 143/143/143
f 114/114/114 144/144/144 116/116/116
f 146/146/146 120/120/120 149/149/149
f 120/120/120 146/146/146 119/119/119
f 150/150/150 119/119/119 146/146/146
f 119/119/119 150/150/150 91/91/91
f 90/90/90 150/150/150 153/153/153
f 150/150/150 90/90/90 91/91/91
f 95/95/95 124/124/124 125/125/125
f 124/124/124 95/95/95 96/96/96
f 170/170/170 172/172/172 171/171/171
f 172/172/172 170/170/170 173/173/173
f 174/174/174 176/176/176 175/175/175
f 176/176/176 174/174/174 177/177/177
f 178/178/178 177/177/177 174/174/174
f 177/177/177 178/178/178 179/179/179
f 180/180/180 178/178/178 181/181/181
f 178/178/178 180/180/180 179/179/179
f 182/182/182 181/181/181 183/183/183
f 181/181/181 182/182/182 180/180/180
f 184/184/184 186/186/186 185/185/185
f 186/186/186 184/184/184 187/187/187
f 188/188/188 184/184/184 185/185/185
f 184/184/184 188/188/188 189/189/189
f 190/190/190 189/189/189 188/188/188
f 189/189/189 190/190/190 191/191/191
f 192/192/192 191/191/191 190/190/190
f 191/191/191 192/192/192 193/193/193
f 194/194/194 196/196/196 195/195/195
f 196/196/196 194/194/194 197/197/197
f 198/198/198 194/194/194 199/199/199
f 194/194/194 198/198/198 197/197/197
f 172/172/172 199/199/199 171/171/171
f 199/199/199 172/172/172 198/198/198
f 46/46/46 47/47/47 200/200/200
f 47/47/47 50/50/50 200/200/200
f 50/50/50 52/52/52 200/200/200
f 52/52/52 54/54/54 200/200/200
f 54/54/54 56/56/56 200/200/200
f 56/56/56 58/58/58 200/200/200
f 58/58/58 60/60/60 200/200/200
f 60/60/60 62/62/62 200/200/200
f 62/62/62 64/64/64 200/200/200
f 64/64/64 66/66/66 200/200/200
f 66/66/66 68/68/68 200/200/200
f 68/68/68 46/46/46 200/200/200
f 201/201/201 203/203/203 202/202/202
f 203/203/203 201/201/201 204/204/204
f 202/202/202 206/206/206 205/205/205
f 206/206/206 202/202/202 203/203/203
f 205/205/205 208/208/208 207/207/207
f 208/208/208 205/205/205 206/206/206
f 207/207/207 210/210/210 209/209/209
f 210/210/210 207/207/207 208/208/208
f 211/211/211 213/213/213 212/212/212
f 213/213/213 211/211/211 214/214/214
f 213/213/213 215/215/215 212/212/212
f 215/215/215 213/213/213 216/216/216
f 216/216/216 217/217/217 215/215/215
f 217/217/217 216/216/216 218/218/218
f 218/218/218 219/219/219 217/217/217
f 219/219/219 218/218/218 220/220/220
f 221/221/221 223/223/223 222/222/222
f 223/223/223 221/221/221 224/224/224
f 224/224/224 225/225/225 223/223/223
f 225/225/225 224/224/224 226/226/226
f 225/225/225 228/228/228 227/227/227
f 228/228/228 225/225/225 226/226/226
f 227/227/227 230/230/230 229/229/229
f 230/230/230 227/227/227 228/228/228
f 231/231/231 41/41/41 232/232/232
f 41/41/41 231/231/231 40/40/40
f 70/70/70 234/234/234 233/233/233
f 234/234/234 70/70/70 75/75/75
f 235/235/235 16/16/16 236/236/236
f 16/16/16 235/235/235 15/15/15
f 42/42/42 232/232/232 41/41/41
f 232/232/232 42/42/42 237/237/237
f 73/73/73 233/233/233 238/238/238
f 233/233/233 73/73/73 70/70/70
f 42/42/42 239/239/239 237/237/237
f 239/239/239 42/42/42 43/43/43
f 240/240/240 73/73/73 238/238/238
f 73/73/73 240/240/240 86/86/86
f 43/43/43 241/241/241 239/239/239
f 241/241/241 43/43/43 44/44/44
f 32/32/32 243/243/243 242/242/242
f 243/243/243 32/32/32 29/29/29
f 244/244/244 86/86/86 240/240/240
f 86/86/86 244/244/244 89/89/89
f 245/245/245 247/247/247 246/246/246
f 247/247/247 245/245/245 248/248/248
f 28/28/28 249/249/249 27/27/27
f 249/249/249 28/28/28 250/250/250
f 239/239/239 252/252/252 251/251/251
f 252/252/252 239/239/239 241/241/241
f 237/237/237 251/251/251 253/253/253
f 251/251/251 237/237/237 239/239/239
f 237/237/237 254/254/254 232/232/232
f 254/254/254 237/237/237 253/253/253
f 255/255/255 232/232/232 254/254/254
f 232/232/232 255/255/255 231/231/231
f 256/256/256 20/20/20 17/17/17
f 20/20/20 256/256/256 257/257/257
f 258/258/258 260/260/260 259/259/259
f 260/260/260 258/258/258 261/261/261
f 246/246/246 263/263/263 262/262/262
f 263/263/263 246/246/246 247/247/247
f 264/264/264 263/263/263 265/265/265
f 263/263/263 264/264/264 262/262/262
f 226/226/226 87/87/87 228/228/228
f 87/87/87 226/226/226 72/72/72
f 228/228/228 88/88/88 230/230/230
f 88/88/88 228/228/228 87/87/87
f 204/204/204 84/84/84 203/203/203
f 84/84/84 204/204/204 85/85/85
f 203/203/203 83/83/83 206/206/206
f 83/83/83 203/203/203 84/84/84
f 206/206/206 81/81/81 208/208/208
f 81/81/81 206/206/206 83/83/83
f 208/208/208 82/82/82 210/210/210
f 82/82/82 208/208/208 81/81/81
f 214/214/214 79/79/79 213/213/213
f 79/79/79 214/214/214 80/80/80
f 79/79/79 216/216/216 213/213/213
f 216/216/216 79/79/79 78/78/78
f 78/78/78 218/218/218 216/216/216
f 218/218/218 78/78/78 76/76/76
f 76/76/76 220/220/220 218/218/218
f 220/220/220 76/76/76 77/77/77
f 74/74/74 224/224/224 221/221/221
f 224/224/224 74/74/74 71/71/71
f 71/71/71 226/226/226 224/224/224
f 226/226/226 71/71/71 72/72/72