mtllib 54961718.mtl
o Mesh

v -0.3883900046348572 -0.8718969821929932 0.2460850030183792
v -0.22424300014972687 -0.8726639747619629 0.41022199392318726
v -0.2292719930410385 -0.7588809728622437 0.4170039892196655
v -0.4004270136356354 -0.7581139802932739 0.24921000003814697
v -1.4999999621068127e-05 -0.87294602394104 0.47029998898506165
v 0.004530999809503555 -0.7591630220413208 0.4784199893474579
v 0.22421599924564362 -0.8726650476455688 0.41022199392318726
v 0.23833300173282623 -0.7588820457458496 0.4170039892196655
v 0.3883630037307739 -0.8718980550765991 0.2460850030183792
v 0.4094879925251007 -0.7581150531768799 0.24921000003814697
v 0.4484589993953705 -0.864016056060791 0.043751999735832214
v 0.4721490144729614 -0.7508610486984253 0.05582699924707413
v 0.4484589993953705 -0.864016056060791 0.043751999735832214
v 0.38837701082229614 -0.8397419452667236 -0.16293099522590637
v 0.4095019996166229 -0.7259750366210938 -0.15581199526786804
v 0.4721490144729614 -0.7508610486984253 0.05582699924707413
v 0.22422899305820465 -0.8106679916381836 -0.3261060118675232
v 0.23834599554538727 -0.6964540481567383 -0.32261601090431213
v 0.0 -0.791793942451477 -0.4130629897117615
v 0.004544000141322613 -0.6773020029067993 -0.41181400418281555
v 0.10795299708843231 -0.6848399639129639 -0.37709999084472656
v 0.09917499870061874 -0.7992269992828369 -0.37918800115585327
v -0.10341300070285797 -0.7993719577789307 -0.37806200981140137
v -0.22423000633716583 -0.8106679916381836 -0.3261060118675232
v -0.22925899922847748 -0.6964540481567383 -0.32261601090431213
v -0.10328400135040283 -0.68498694896698 -0.3759489953517914
v -0.38837799429893494 -0.8397419452667236 -0.16293099522590637
v -0.40041399002075195 -0.7259750366210938 -0.15581199526786804
v -0.44846001267433167 -0.8640149831771851 0.043751999735832214
v -0.46306100487709045 -0.7508599758148193 0.05582699924707413
v -0.44846001267433167 -0.8640149831771851 0.043751999735832214
v -0.46306100487709045 -0.7508599758148193 0.05582699924707413
v -0.22424300014972687 -0.8726639747619629 0.41022199392318726
v -0.3883900046348572 -0.8718969821929932 0.2460850030183792
v 0.0 -0.8587520122528076 0.0026549999602138996
v -1.4999999621068127e-05 -0.87294602394104 0.47029998898506165
v 0.22421599924564362 -0.8726650476455688 0.41022199392318726
v 0.3883630037307739 -0.8718980550765991 0.2460850030183792
v 0.4484589993953705 -0.864016056060791 0.043751999735832214
v 0.38837701082229614 -0.8397419452667236 -0.16293099522590637
v 0.22422899305820465 -0.8106679916381836 -0.3261060118675232
v 0.0 -0.791793942451477 -0.4130629897117615
v 0.09917499870061874 -0.7992269992828369 -0.37918800115585327
v -0.22423000633716583 -0.8106679916381836 -0.3261060118675232
v -0.10341300070285797 -0.7993719577789307 -0.37806200981140137
v -0.38837799429893494 -0.8397419452667236 -0.16293099522590637
v -0.44846001267433167 -0.8640149831771851 0.043751999735832214
v -0.09061799943447113 0.9763799905776978 0.2811410129070282
v -0.03930100053548813 1.059440016746521 0.20311599969863892
v -0.13690699636936188 1.059440016746521 0.11713399738073349
v -0.22579100728034973 0.9763799905776978 0.16206499934196472
v 0.09403099864721298 0.9763799905776978 0.3247250020503998
v 0.09403099864721298 1.059440016746521 0.23458799719810486
v 0.2786799967288971 0.9763799905776978 0.2811410129070282
v 0.2273630052804947 1.059440016746521 0.20311599969863892
v 0.4138520061969757 0.9763799905776978 0.16206499934196472
v 0.32496899366378784 1.059440016746521 0.11713399738073349
v 0.4633289873600006 0.9763799905776978 -0.0005939999828115106
v 0.3606950044631958 1.059440016746521 -0.00031999999191612005
v 0.4138520061969757 0.9763799905776978 -0.1632539927959442
v 0.32496899366378784 1.059440016746521 -0.11777400225400925
v 0.2786799967288971 0.9763799905776978 -0.2823289930820465
v 0.2273630052804947 1.059440016746521 -0.20375700294971466
v 0.17569999396800995 0.9763799905776978 -0.3267979919910431
v 0.09403099864721298 0.9763799905776978 -0.3537580072879791
v 0.09403099864721298 1.059440016746521 -0.2352290004491806
v 0.1530030071735382 1.059440016746521 -0.24146999418735504
v -0.09061799943447113 0.9763799905776978 -0.2823289930820465
v -0.03930100053548813 1.059440016746521 -0.20375700294971466
v 0.0325389988720417 1.059440016746521 -0.2408750057220459
v 0.008871999569237232 0.9763799905776978 -0.3259739875793457
v -0.22579100728034973 0.9763799905776978 -0.1632539927959442
v -0.13690699636936188 1.059440016746521 -0.11777400225400925
v -0.27526700496673584 0.9763799905776978 -0.0005939999828115106
v -0.17263300716876984 1.059440016746521 -0.00031999999191612005
v -0.27045100927352905 0.021889984607696533 -0.23664499819278717
v -0.317099004983902 0.04746997356414795 -0.06109999865293503
v -0.30813199281692505 0.1811000108718872 -0.07976999878883362
v -0.2620680034160614 0.20368999242782593 -0.23133400082588196
v -0.14300699532032013 0.012679994106292725 -0.35699498653411865
v -0.13621699810028076 0.22022998332977295 -0.3482860028743744
v -0.049205001443624496 0.00932997465133667 -0.40083199739456177
v -0.043588001281023026 0.22348999977111816 -0.391512006521225
v 0.10808400064706802 0.009270012378692627 -0.40166398882865906
v 0.031084999442100525 0.00718998908996582 -0.4288080036640167
v 0.035698000341653824 0.22627997398376465 -0.418938010931015
v 0.11173500120639801 0.22360998392105103 -0.39232099056243896
v 0.3326210081577301 0.021889984607696533 -0.23664499819278717
v 0.2051759958267212 0.012679994106292725 -0.35699498653411865
v 0.207613006234169 0.22022998332977295 -0.3482860028743744
v 0.33346399664878845 0.20368999242782593 -0.23133400082588196
v 0.3795279860496521 0.1811000108718872 -0.07976999878883362
v 0.37926799058914185 0.04746997356414795 -0.06109999865293503
v 0.37926799058914185 0.04746997356414795 -0.06109999865293503
v 0.3795279860496521 0.1811000108718872 -0.07976999878883362
v 0.33346399664878845 0.15850001573562622 0.0799890011548996
v 0.3326210081577301 0.06730002164840698 0.11897099763154984
v 0.207613006234169 0.1419600248336792 0.19694000482559204
v 0.2051759958267212 0.09755998849868774 0.25177499651908875
v 0.035698000341653824 0.13590997457504272 0.2397480010986328
v 0.031084999442100525 0.10966998338699341 0.2979719936847687
v -0.14300699532032013 0.09755998849868774 0.25177499651908875
v -0.13621699810028076 0.1419600248336792 0.19694000482559204
v -0.27045100927352905 0.06730002164840698 0.11897099763154984
v -0.2620680034160614 0.15850001573562622 0.0799890011548996
v -0.317099004983902 0.04746997356414795 -0.06109999865293503
v -0.30813199281692505 0.1811000108718872 -0.07976999878883362
v -0.24373899400234222 0.6377600431442261 -0.212800994515419
v -0.22579100728034973 0.9763799905776978 -0.1632539927959442
v -0.09061799943447113 0.9763799905776978 -0.2823289930820465
v -0.10978200286626816 0.6507999897003174 -0.32403698563575745
v -0.01118599995970726 0.6533800363540649 -0.36613601446151733
v 0.008871999569237232 0.9763799905776978 -0.3259739875793457
v 0.15414099395275116 0.6534700393676758 -0.36690500378608704
v 0.07320699840784073 0.6555800437927246 -0.3925960063934326
v 0.09403099864721298 0.9763799905776978 -0.3537580072879791
v 0.17569999396800995 0.9763799905776978 -0.3267979919910431
v 0.3901520073413849 0.6377600431442261 -0.212800994515419
v 0.2561950087547302 0.6507999897003174 -0.32403698563575745
v 0.2786799967288971 0.9763799905776978 -0.2823289930820465
v 0.4138520061969757 0.9763799905776978 -0.1632539927959442
v 0.4391840100288391 0.619949996471405 -0.06084999814629555
v 0.4633289873600006 0.9763799905776978 -0.0005939999828115106
v 0.3901520073413849 0.6021400094032288 0.09110099822282791
v 0.4391840100288391 0.619949996471405 -0.06084999814629555
v 0.4633289873600006 0.9763799905776978 -0.0005939999828115106
v 0.4138520061969757 0.9763799905776978 0.16206499934196472
v 0.2561950087547302 0.5890899896621704 0.20233699679374695
v 0.2786799967288971 0.9763799905776978 0.2811410129070282
v 0.09403099864721298 0.9763799905776978 0.3247250020503998
v 0.07320699840784073 0.5843200087547302 0.24305200576782227
v -0.09061799943447113 0.9763799905776978 0.2811410129070282
v -0.10978200286626816 0.5890899896621704 0.20233699679374695
v -0.22579100728034973 0.9763799905776978 0.16206499934196472
v -0.24373899400234222 0.6021400094032288 0.09110099822282791
v -0.27526700496673584 0.9763799905776978 -0.0005939999828115106
v -0.29276999831199646 0.619949996471405 -0.06084999814629555
v -0.29276999831199646 0.619949996471405 -0.06084999814629555
v -0.27526700496673584 0.9763799905776978 -0.0005939999828115106
v -0.06084100157022476 -0.118446946144104 -0.4067719876766205
v -0.16115599870681763 -0.11523199081420898 -0.35933899879455566
v 0.10736799985170364 -0.11855900287628174 -0.40772899985313416
v 0.025022000074386597 -0.12119805812835693 -0.43779900670051575
v 0.2112009972333908 -0.11523199081420898 -0.35933899879455566
v 0.3474929928779602 -0.0989309549331665 -0.22105400264263153
v 0.3973790109157562 -0.07666504383087158 -0.032152000814676285
v 0.3474929928779602 -0.05782604217529297 0.12074799835681915
v 0.3973790109157562 -0.07666504383087158 -0.032152000814676285
v 0.2112009972333908 -0.03466904163360596 0.23846100270748138
v 0.025022000074386597 -0.0287020206451416 0.2890770137310028
v -0.16115599870681763 -0.03466904163360596 0.23846100270748138
v -0.2974480092525482 -0.05782604217529297 0.12074799835681915
v -0.34733399748802185 -0.07666504383087158 -0.032152000814676285
v -0.2974480092525482 -0.0989309549331665 -0.22105400264263153
v -0.34733399748802185 -0.07666504383087158 -0.032152000814676285
v -0.36252498626708984 -0.493056058883667 -0.16607700288295746
v -0.42088600993156433 -0.47707295417785645 0.03372199833393097
v -0.36531201004981995 -0.16003501415252686 0.009649000130593777
v -0.31337401270866394 -0.18638396263122559 -0.18686899542808533
v -0.20332300662994385 -0.504330039024353 -0.309675008058548
v -0.17147600650787354 -0.2077169418334961 -0.3322789967060089
v -0.08614800125360489 -0.5082269906997681 -0.3610590100288391
v -0.0670349970459938 -0.2129230499267578 -0.38050898909568787
v 0.11033300310373306 -0.5083270072937012 -0.3621549904346466
v 0.014147000387310982 -0.5110739469528198 -0.3954800069332123
v 0.022360999137163162 -0.21688997745513916 -0.4122300148010254
v 0.10809300094842911 -0.21306896209716797 -0.3814939856529236
v 0.2316180020570755 -0.504330039024353 -0.309675008058548
v 0.21619799733161926 -0.2077169418334961 -0.3322789967060089
v 0.35809600353240967 -0.18638396263122559 -0.18686899542808533
v 0.39081400632858276 -0.493056058883667 -0.16607700288295746
v 0.4100340008735657 -0.16003501415252686 0.009649000130593777
v 0.44899600744247437 -0.47707295417785645 0.03372199833393097
v 0.3907249867916107 -0.45963799953460693 0.20726199448108673
v 0.44899600744247437 -0.47707295417785645 0.03372199833393097
v 0.4100340008735657 -0.16003501415252686 0.009649000130593777
v 0.35809600353240967 -0.1369420289993286 0.1809220016002655
v 0.23152600228786469 -0.44509100914001465 0.3657130002975464
v 0.21619799733161926 -0.1157599687576294 0.3233779966831207
v 0.022360999137163162 -0.10800600051879883 0.3755210041999817
v 0.014054999686777592 -0.4397670030593872 0.4237099885940552
v -0.17147600650787354 -0.1157599687576294 0.3233779966831207
v -0.20341500639915466 -0.44509100914001465 0.3657130002975464
v -0.31337401270866394 -0.1369420289993286 0.1809220016002655
v -0.3626149892807007 -0.45963799953460693 0.20726199448108673
v -0.36531201004981995 -0.16003501415252686 0.009649000130593777
v -0.42088600993156433 -0.47707295417785645 0.03372199833393097
v 0.09403099864721298 1.114359974861145 -3.999999989900971e-06
v -0.38711199164390564 -0.7063460350036621 -0.14636799693107605
v -0.447829008102417 -0.7302290201187134 0.05747599899768829
v -0.22123000025749207 -0.6775590181350708 -0.3074660003185272
v -0.09913600236177444 -0.6663219928741455 -0.3590030074119568
v 0.005369999911636114 -0.6587940454483032 -0.39364999532699585
v 0.1055930033326149 -0.6661800146102905 -0.3601149916648865
v 0.23196899890899658 -0.6775590181350708 -0.3074660003185272
v 0.39785200357437134 -0.7063460350036621 -0.14636799693107605
v 0.4585689902305603 -0.7302299737930298 0.05747599899768829
v 0.4585689902305603 -0.7302299737930298 0.05747599899768829
v 0.3978379964828491 -0.7373969554901123 0.24046100676059723
v 0.23195600509643555 -0.7381349802017212 0.4025009870529175
v 0.005355999805033207 -0.7384059429168701 0.46181198954582214
v -0.22124400734901428 -0.7381349802017212 0.4025009870529175
v -0.38712599873542786 -0.7373960018157959 0.24046100676059723
v -0.447829008102417 -0.7302290201187134 0.05747599899768829
v -0.24193799495697021 -0.9999949932098389 -0.620693027973175
v -0.337446004152298 -0.9999949932098389 -0.4305030107498169
v -0.32389500737190247 -0.9028650522232056 -0.4305030107498169
v -0.2323939949274063 -0.8755249977111816 -0.6224070191383362
v -0.3437719941139221 -0.9549139738082886 0.2234790027141571
v -0.34355300664901733 -1.0000050067901611 0.22501499950885773
v -0.2419389933347702 -0.9999940395355225 0.3949950039386749
v -0.23572200536727905 -0.9651440382003784 0.3952000141143799
v -0.34355300664901733 -1.0000050067901611 0.22501499950885773
v -0.3646320104598999 -1.0000050067901611 -0.02158300019800663
v -0.2419389933347702 -0.9999949932098389 -0.02158600091934204
v -0.2419389933347702 -0.9999940395355225 0.3949950039386749
v -0.3642300069332123 -0.93231201171875 0.0029589999467134476
v -0.3646320104598999 -1.0000050067901611 -0.02158300019800663
v 0.31486600637435913 -1.0000050067901611 0.22501499950885773
v 0.3359450101852417 -1.0000050067901611 -0.02158300019800663
v 0.33554399013519287 -0.93231201171875 0.0029589999467134476
v 0.3150849938392639 -0.9549150466918945 0.2234790027141571
v -0.33088400959968567 -0.8905060291290283 -0.2610990107059479
v -0.2883540093898773 -0.8005759716033936 -0.1908160001039505
v -0.18200600147247314 -0.7938250303268433 -0.3096800148487091
v -0.22269600629806519 -0.8427059650421143 -0.39261001348495483
v 0.29884201288223267 -0.8311389684677124 0.01144300028681755
v 0.29958099126815796 -0.8487969636917114 0.21547800302505493
v -0.31965500116348267 -0.8411309719085693 0.2226870059967041
v -0.3226889967918396 -0.8234460353851318 0.018678000196814537
v -0.24193799495697021 -0.9999949932098389 -0.2110780030488968
v -0.3509269952774048 -0.9999949932098389 -0.2110780030488968
v -0.337446004152298 -0.9999949932098389 -0.4305030107498169
v -0.24193799495697021 -0.9999949932098389 -0.620693027973175
v -0.337446004152298 -0.9999949932098389 -0.4305030107498169
v -0.3509269952774048 -0.9999949932098389 -0.2110780030488968
v 0.30219799280166626 -0.8905060291290283 -0.2610990107059479
v 0.32224100828170776 -0.9999949932098389 -0.2110780030488968
v 0.30875900387763977 -0.9999949932098389 -0.4305030107498169
v 0.29520899057388306 -0.9028650522232056 -0.4305030107498169
v 0.2004619985818863 -0.8427059650421143 -0.39261001348495483
v 0.1522819995880127 -0.7976939678192139 -0.31331899762153625
v 0.2609100043773651 -0.8073740005493164 -0.19720999896526337
v 0.21046000719070435 -0.8755249977111816 -0.6224070191383362
v 0.22029900550842285 -0.9999949932098389 -0.620693027973175
v 0.30875900387763977 -0.9999949932098389 -0.4305030107498169
v 0.22029900550842285 -0.9999949932098389 -0.2110780030488968
v 0.22029900550842285 -0.9999949932098389 -0.620693027973175
v 0.30875900387763977 -0.9999949932098389 -0.4305030107498169
v 0.32224100828170776 -0.9999949932098389 -0.2110780030488968
v 0.31486600637435913 -1.0000050067901611 0.22501499950885773
v 0.22029900550842285 -0.9999949932098389 0.3949950039386749
v 0.22029900550842285 -0.9999949932098389 -0.02158600091934204
v 0.3359450101852417 -1.0000050067901611 -0.02158300019800663
v 0.21348600089550018 -0.9651449918746948 0.3952000141143799
v 0.22029900550842285 -0.9999949932098389 0.3949950039386749
v -0.08694399893283844 -0.8299319744110107 -0.46323999762535095
v -0.09032399952411652 -0.8691099882125854 -0.7140640020370483
v -0.09364999830722809 -0.9999949932098389 -0.7106360197067261
v -0.09364999830722809 -0.9999949932098389 -0.2110780030488968
v -0.09364999830722809 -0.9999949932098389 -0.7106360197067261
v -0.09364999830722809 -0.9999949932098389 -0.02158600091934204
v -0.09364999830722809 -0.9999949932098389 0.4616270065307617
v -0.09364999830722809 -0.9999949932098389 0.4616270065307617
v -0.08694499731063843 -0.9651449918746948 0.458842009305954
v 0.05200200155377388 -0.8299319744110107 -0.46323999762535095
v 0.05508999899029732 -0.8691099882125854 -0.7140640020370483
v 0.058129001408815384 -0.9999949932098389 -0.7106360197067261
v 0.0581279993057251 -0.9999949932098389 -0.2110780030488968
v 0.058129001408815384 -0.9999949932098389 -0.7106360197067261
v 0.0581279993057251 -0.9999949932098389 0.4616270065307617
v 0.0581279993057251 -0.9999949932098389 -0.02158600091934204
v 0.052000999450683594 -0.9651449918746948 0.458842009305954
v 0.0581279993057251 -0.9999949932098389 0.4616270065307617
v -0.015561999753117561 -0.7879899740219116 -0.38396498560905457
v -0.08694499731063843 -0.9651449918746948 0.458842009305954
v -0.09364999830722809 -0.9999949932098389 0.4616270065307617
v -0.20604699850082397 -0.854112982749939 0.3874329924583435
v 0.19008800387382507 -0.8586980104446411 0.38312000036239624
v -0.007342000026255846 -0.8607410192489624 0.44835400581359863
v -0.007342000026255846 -0.8607410192489624 0.44835400581359863
v -0.3646320104598999 -0.9749929904937744 -0.021710999310016632
v -0.3646320104598999 -0.9749929904937744 -0.021710999310016632
v -0.2419389933347702 -0.9749929904937744 -0.021702999249100685
v -0.09364999830722809 -0.9749929904937744 -0.021694999188184738
v 0.0581279993057251 -0.9749929904937744 -0.021686000749468803
v 0.22029900550842285 -0.9749929904937744 -0.02167700044810772
v 0.3359450101852417 -0.9749929904937744 -0.021669000387191772
v 0.3359450101852417 -0.9749929904937744 -0.021669000387191772

vn -0.6124020218849182 -0.705049991607666 0.3575870096683502
vn -0.36224499344825745 -0.6898249983787537 0.626833975315094
vn -0.47611498832702637 0.279092013835907 0.8339200019836426
vn -0.8237980008125305 0.25046300888061523 0.5085520148277283
vn -0.003590000094845891 -0.6895719766616821 0.7242079973220825
vn 0.002919000107795 0.28060099482536316 0.9598199725151062
vn 0.34727999567985535 -0.7030749917030334 0.6205499768257141
vn 0.482015997171402 0.24910899996757507 0.8400030136108398
vn 0.5899670124053955 -0.7281540036201477 0.3488990068435669
vn 0.8354650139808655 0.19976100325584412 0.5119519829750061
vn 0.6846960186958313 -0.7269560098648071 -0.052223000675439835
vn 0.9857860207557678 0.1653439998626709 0.029781000688672066
vn 0.6846960186958313 -0.7269560098648071 -0.052223000675439835
vn 0.5837770104408264 -0.6768400073051453 -0.4484330117702484
vn 0.8478630185127258 0.23927000164985657 -0.47315800189971924
vn 0.9857860207557678 0.1653439998626709 0.029781000688672066
vn 0.37191298604011536 -0.6335880160331726 -0.6784150004386902
vn 0.5510640144348145 0.31225600838661194 -0.7738379836082458
vn -0.005191999953240156 -0.5678340196609497 -0.8231269717216492
vn 0.003145999973639846 0.371739000082016 -0.9283319711685181
vn 0.35511600971221924 0.34747201204299927 -0.8678449988365173
vn 0.22986599802970886 -0.6335499882698059 -0.7387670278549194
vn -0.23774799704551697 -0.6138219833374023 -0.7527940273284912
vn -0.3848879933357239 -0.6191200017929077 -0.6845080256462097
vn -0.5470939874649048 0.3478659987449646 -0.7613649964332581
vn -0.353424996137619 0.3703930079936981 -0.8590109944343567
vn -0.6073009967803955 -0.65413498878479 -0.4508810043334961
vn -0.8384829759597778 0.2925780117511749 -0.45972201228141785
vn -0.7121229767799377 -0.7002670168876648 -0.05006999894976616
vn -0.973734974861145 0.22527199983596802 0.03305799886584282
vn -0.7121229767799377 -0.7002670168876648 -0.05006999894976616
vn -0.973734974861145 0.22527199983596802 0.03305799886584282
vn -0.36224499344825745 -0.6898249983787537 0.626833975315094
vn -0.6124020218849182 -0.705049991607666 0.3575870096683502
vn -9.999999974752427e-07 -0.9957519769668579 -0.09207399934530258
vn -0.003590000094845891 -0.6895719766616821 0.7242079973220825
vn 0.34727999567985535 -0.7030749917030334 0.6205499768257141
vn 0.5899670124053955 -0.7281540036201477 0.3488990068435669
vn 0.6846960186958313 -0.7269560098648071 -0.052223000675439835
vn 0.5837770104408264 -0.6768400073051453 -0.4484330117702484
vn 0.37191298604011536 -0.6335880160331726 -0.6784150004386902
vn -0.005191999953240156 -0.5678340196609497 -0.8231269717216492
vn 0.22986599802970886 -0.6335499882698059 -0.7387670278549194
vn -0.3848879933357239 -0.6191200017929077 -0.6845080256462097
vn -0.23774799704551697 -0.6138219833374023 -0.7527940273284912
vn -0.6073009967803955 -0.65413498878479 -0.4508810043334961
vn -0.7121229767799377 -0.7002670168876648 -0.05006999894976616
vn -0.42838001251220703 0.31248199939727783 0.8478479981422424
vn -0.22045299410820007 0.8724470138549805 0.43616199493408203
vn -0.3938579857349396 0.8816810250282288 0.2598339915275574
vn -0.7742469906806946 0.3640879988670349 0.5176699757575989
vn 0.0036510000936686993 0.2867780029773712 0.9579899907112122
vn 0.0 0.8680599927902222 0.4964590072631836
vn 0.439303994178772 0.292279988527298 0.849461019039154
vn 0.22045299410820007 0.8724460005760193 0.43616199493408203
vn 0.7904070019721985 0.323947012424469 0.5199189782142639
vn 0.39386099576950073 0.8816800117492676 0.2598339915275574
vn 0.9293010234832764 0.3688710033893585 0.018300000578165054
vn 0.4623660147190094 0.8866890072822571 0.00016799999866634607
vn 0.7779060006141663 0.4067629873752594 -0.4789640009403229
vn 0.3932879865169525 0.8821439743041992 -0.25912800431251526
vn 0.49154600501060486 0.4266189932823181 -0.7591959834098816
vn 0.25206100940704346 0.8858479857444763 -0.3895359933376312
vn 0.2985920011997223 0.455953985452652 -0.8384209871292114
vn 0.008825999684631824 0.48140498995780945 -0.8764539957046509
vn -0.002051000017672777 0.9066439867019653 -0.421891987323761
vn 0.06360699981451035 0.9073939919471741 -0.41543900966644287
vn -0.48080500960350037 0.4568459987640381 -0.7484099864959717
vn -0.2528899908065796 0.8862130045890808 -0.38816601037979126
vn -0.06793399900197983 0.9077330231666565 -0.41401299834251404
vn -0.2947379946708679 0.4746139943599701 -0.8293799757957458
vn -0.7561900019645691 0.4534139931201935 -0.47179800271987915
vn -0.39328500628471375 0.8821449875831604 -0.25912800431251526
vn -0.9070150256156921 0.42064300179481506 0.019586000591516495
vn -0.46236398816108704 0.8866900205612183 0.00016799999866634607
vn -0.8422639966011047 0.0915450006723404 -0.5312359929084778
vn -0.9883589744567871 0.15169300138950348 -0.011652999557554722
vn -0.998458981513977 0.05446900054812431 -0.010654999874532223
vn -0.8489230275154114 0.054822999984025955 -0.5256649851799011
vn -0.5540339946746826 0.07412199676036835 -0.8291879892349243
vn -0.5582339763641357 0.06215599924325943 -0.827351987361908
vn -0.3744949996471405 0.06510800123214722 -0.9249410033226013
vn -0.37589898705482483 0.06454300135374069 -0.9244099855422974
vn 0.374796986579895 0.03732899948954582 -0.9263550043106079
vn 0.006159000098705292 0.05620500072836876 -0.9983999729156494
vn -0.004362000152468681 0.05227399989962578 -0.9986230134963989
vn 0.37291398644447327 0.027641000226140022 -0.9274539947509766
vn 0.849045991897583 0.027806999161839485 -0.5275869965553284
vn 0.5555610060691833 0.034922000020742416 -0.8307420015335083
vn 0.5515699982643127 0.007778999861329794 -0.8340920209884644
vn 0.8392189741134644 -0.03478800132870674 -0.5426809787750244
vn 0.997776985168457 -0.062369998544454575 -0.023468999192118645
vn 0.9976660013198853 0.06818199902772903 -0.003739000065252185
vn 0.9976660013198853 0.06818199902772903 -0.003739000065252185
vn 0.997776985168457 -0.062369998544454575 -0.023468999192118645
vn 0.8674749732017517 0.02922699972987175 0.4966210126876831
vn 0.8347520232200623 0.166375994682312 0.5248889923095703
vn 0.5026770234107971 0.33401599526405334 0.7973390221595764
vn 0.456851989030838 0.3625339865684509 0.8123149871826172
vn 0.000859999970998615 0.5603690147399902 0.8282430171966553
vn 0.0003150000120513141 0.49503201246261597 0.8688750267028809
vn -0.4551379978656769 0.39785200357437134 0.7965949773788452
vn -0.4884069859981537 0.4030590057373047 0.7739520072937012
vn -0.8250659704208374 0.2430099993944168 0.5101100206375122
vn -0.8568239808082581 0.1414940059185028 0.4958150088787079
vn -0.9883589744567871 0.15169300138950348 -0.011652999557554722
vn -0.998458981513977 0.05446900054812431 -0.010654999874532223
vn -0.8281159996986389 0.09407000243663788 -0.5526080131530762
vn -0.7561900019645691 0.4534139931201935 -0.47179800271987915
vn -0.48080500960350037 0.4568459987640381 -0.7484099864959717
vn -0.522121012210846 0.11114200204610825 -0.8455989956855774
vn -0.34741100668907166 0.11081700026988983 -0.9311419725418091
vn -0.2947379946708679 0.4746139943599701 -0.8293799757957458
vn 0.3476789891719818 0.054538000375032425 -0.9360259771347046
vn 0.004488999955356121 0.08935199677944183 -0.995989978313446
vn 0.008825999684631824 0.48140498995780945 -0.8764539957046509
vn 0.2985920011997223 0.455953985452652 -0.8384209871292114
vn 0.8242890238761902 -0.03075999952852726 -0.5653330087661743
vn 0.522400975227356 0.02666899934411049 -0.8522830009460449
vn 0.49154600501060486 0.4266189932823181 -0.7591959834098816
vn 0.7779060006141663 0.4067629873752594 -0.4789640009403229
vn 0.9948179721832275 -0.09940999746322632 -0.021330999210476875
vn 0.9293010234832764 0.3688710033893585 0.018300000578165054
vn 0.8365319967269897 -0.140406996011734 0.5296229720115662
vn 0.9948179721832275 -0.09940999746322632 -0.021330999210476875
vn 0.9293010234832764 0.3688710033893585 0.018300000578165054
vn 0.7904070019721985 0.323947012424469 0.5199189782142639
vn 0.4554699957370758 -0.13733699917793274 0.8795940279960632
vn 0.439303994178772 0.292279988527298 0.849461019039154
vn 0.0036510000936686993 0.2867780029773712 0.9579899907112122
vn 0.0032760000322014093 -0.10781999677419662 0.9941650032997131
vn -0.42838001251220703 0.31248199939727783 0.8478479981422424
vn -0.4528990089893341 -0.07033500075340271 0.8887829780578613
vn -0.7742469906806946 0.3640879988670349 0.5176699757575989
vn -0.8373289704322815 -0.021466000005602837 0.5462779998779297
vn -0.9070150256156921 0.42064300179481506 0.019586000591516495
vn -0.9990469813346863 0.043278999626636505 -0.005582999903708696
vn -0.9990469813346863 0.043278999626636505 -0.005582999903708696
vn -0.9070150256156921 0.42064300179481506 0.019586000591516495
vn -0.3829300105571747 -0.07525300234556198 -0.9207069873809814
vn -0.5683130025863647 -0.04709500074386597 -0.8214640021324158
vn 0.3809399902820587 -0.10155700147151947 -0.9190059900283813
vn 0.0004889999981969595 -0.09633199870586395 -0.9953489899635315
vn 0.5646370053291321 -0.08804400265216827 -0.8206300139427185
vn 0.8616340160369873 -0.02780500054359436 -0.506767988204956
vn 0.9903910160064697 0.13777799904346466 -0.01194899994879961
vn 0.8497080206871033 0.27690398693084717 0.44868800044059753
vn 0.9903910160064697 0.13777799904346466 -0.01194899994879961
vn 0.5180100202560425 0.3373199999332428 0.7860540151596069
vn -0.0020540000405162573 0.3890810012817383 0.9212009906768799
vn -0.5162190198898315 0.37448298931121826 0.7702469825744629
vn -0.8360490202903748 0.339913010597229 0.43067601323127747
vn -0.9773589968681335 0.2104180008172989 -0.022237999364733696
vn -0.8580060005187988 0.037372998893260956 -0.5122780203819275
vn -0.9773589968681335 0.2104180008172989 -0.022237999364733696
vn -0.845084011554718 0.08142799884080887 -0.5283970236778259
vn -0.9901279807090759 0.14002199470996857 0.006378999911248684
vn -0.9792749881744385 0.20072899758815765 0.027005000039935112
vn -0.8743079900741577 0.03808699920773506 -0.48387500643730164
vn -0.546862006187439 0.02660300023853779 -0.8367999792098999
vn -0.5832390189170837 -0.08541099727153778 -0.8077980279922485
vn -0.36389800906181335 -0.009487000294029713 -0.9313910007476807
vn -0.38044100999832153 -0.13136300444602966 -0.9154279828071594
vn 0.3654949963092804 -0.039740998297929764 -0.9299650192260742
vn 0.0030900000128895044 -0.032319001853466034 -0.999472975730896
vn 0.0010079999919980764 -0.15753300487995148 -0.98751300573349
vn 0.37957799434661865 -0.15163899958133698 -0.9126480221748352
vn 0.5480189919471741 -0.016766000539064407 -0.8362979888916016
vn 0.5812299847602844 -0.11845699697732925 -0.8050709962844849
vn 0.8779159784317017 -0.011454000137746334 -0.47867798805236816
vn 0.8500459790229797 0.023187000304460526 -0.5261980295181274
vn 0.9883430004119873 0.14814400672912598 0.03508400171995163
vn 0.9967849850654602 0.07943099737167358 0.01052400004118681
vn 0.8527179956436157 0.10946200042963028 0.5107740163803101
vn 0.9967849850654602 0.07943099737167358 0.01052400004118681
vn 0.9883430004119873 0.14814400672912598 0.03508400171995163
vn 0.815837025642395 0.2980319857597351 0.4955669939517975
vn 0.5014690160751343 0.1232450008392334 0.8563519716262817
vn 0.4637579917907715 0.4138840138912201 0.7833449840545654
vn 0.0005729999975301325 0.4524179995059967 0.8918060064315796
vn -0.0007699999841861427 0.13643600046634674 0.9906489849090576
vn -0.4593310058116913 0.4312410056591034 0.7765610218048096
vn -0.5005519986152649 0.14806300401687622 0.8529509902000427
vn -0.807964026927948 0.3354859948158264 0.4844000041484833
vn -0.84757399559021 0.15599499642848969 0.5072320103645325
vn -0.9792749881744385 0.20072899758815765 0.027005000039935112
vn -0.9901279807090759 0.14002199470996857 0.006378999911248684
vn 0.0 1.0 0.000311999989207834
vn -0.8210340142250061 0.3812519907951355 -0.4249129891395569
vn -0.9208409786224365 0.385684996843338 0.05743899941444397
vn -0.5469570159912109 0.38267600536346436 -0.744579017162323
vn -0.35669100284576416 0.3738749921321869 -0.8561480045318604
vn -0.002303000073879957 0.3875719904899597 -0.9218369722366333
vn 0.35871198773384094 0.3445180058479309 -0.8675450086593628
vn 0.5502579808235168 0.34208598732948303 -0.7617040276527405
vn 0.8368470072746277 0.3252770006656647 -0.4403199851512909
vn 0.9435470104217529 0.3263390064239502 0.05676800012588501
vn 0.9435470104217529 0.3263390064239502 0.05676800012588501
vn 0.7894390225410461 0.3544769883155823 0.5011320114135742
vn 0.45502299070358276 0.3855069875717163 0.8027070164680481
vn -0.00020599999697878957 0.4077180027961731 0.9131079912185669
vn -0.4489929974079132 0.41390401124954224 0.791890025138855
vn -0.7700750231742859 0.4033679962158203 0.4942460060119629
vn -0.9208409786224365 0.385684996843338 0.05743899941444397
vn -0.5824810266494751 -0.6288459897041321 -0.5150420069694519
vn -0.7644010186195374 -0.612978994846344 -0.19986699521541595
vn -0.8340349793434143 0.5118499994277954 -0.20590199530124664
vn -0.608938992023468 0.589290976524353 -0.5309699773788452
vn -0.943352997303009 0.10283900052309036 0.3154500126838684
vn -0.714614987373352 -0.6582990288734436 0.2365739941596985
vn -0.5361289978027344 -0.604682981967926 0.5890020132064819
vn -0.634863018989563 0.15874800086021423 0.7561399936676025
vn -0.714614987373352 -0.6582990288734436 0.2365739941596985
vn -0.5971770286560059 -0.579056978225708 -0.5550439953804016
vn 3.7999998312443495e-05 -0.7087410092353821 -0.705469012260437
vn -0.5361289978027344 -0.604682981967926 0.5890020132064819
vn -0.9830930233001709 0.18308700621128082 0.00267999991774559
vn -0.5971770286560059 -0.579056978225708 -0.5550439953804016
vn 0.7151709794998169 -0.6586160063743591 0.23399600386619568
vn 0.5971270203590393 -0.5786200165748596 -0.5555530190467834
vn 0.984703004360199 0.17421700060367584 -0.0030869999900460243
vn 0.9435840249061584 0.0879250019788742 0.31924599409103394
vn -0.8751999735832214 0.45776599645614624 -0.15644800662994385
vn -0.8021510243415833 0.545553982257843 -0.24274399876594543
vn -0.43567898869514465 0.8357800245285034 -0.3341499865055084
vn -0.40299099683761597 0.8943300247192383 -0.19435299932956696
vn 0.9372230172157288 0.3445209860801697 -0.054016001522541046
vn 0.9311839938163757 0.190079003572464 0.3110730051994324
vn -0.9169489741325378 0.23386000096797943 0.3232850134372711
vn -0.9322159886360168 0.3604249954223633 -0.032680001109838486
vn -0.0 -0.9978470206260681 0.06558600068092346
vn -0.7369070053100586 -0.6759070158004761 -0.01083999965339899
vn -0.7644010186195374 -0.612978994846344 -0.19986699521541595
vn -0.5824810266494751 -0.6288459897041321 -0.5150420069694519
vn -0.7644010186195374 -0.612978994846344 -0.19986699521541595
vn -0.7369070053100586 -0.6759070158004761 -0.01083999965339899
vn 0.8745149970054626 0.4609220027923584 -0.15091200172901154
vn 0.7369109988212585 -0.6759030222892761 -0.010851000435650349
vn 0.7650750279426575 -0.615805983543396 -0.18826499581336975
vn 0.8420839905738831 0.5032399892807007 -0.19402100145816803
vn 0.39938899874687195 0.900413990020752 -0.17246299982070923
vn 0.41102999448776245 0.8575770258903503 -0.30921798944473267
vn 0.7934539914131165 0.5557690262794495 -0.24809600412845612
vn 0.604964017868042 0.5868160128593445 -0.5382050275802612
vn 0.584987998008728 -0.6220710277557373 -0.5203999876976013
vn 0.7650750279426575 -0.615805983543396 -0.18826499581336975
vn -9.999999974752427e-07 -0.9978479743003845 0.06557799875736237
vn 0.584987998008728 -0.6220710277557373 -0.5203999876976013
vn 0.7650750279426575 -0.615805983543396 -0.18826499581336975
vn 0.7369109988212585 -0.6759030222892761 -0.010851000435650349
vn 0.7151709794998169 -0.6586160063743591 0.23399600386619568
vn 0.5538039803504944 -0.5906199812889099 0.5869150161743164
vn -9.999999747378752e-06 -0.7083740234375 -0.7058370113372803
vn 0.5971270203590393 -0.5786200165748596 -0.5555530190467834
vn 0.6383050084114075 0.166361004114151 0.7515919804573059
vn 0.5538039803504944 -0.5906199812889099 0.5869150161743164
vn -0.11230500042438507 0.9609119892120361 -0.2530539929866791
vn -0.22758400440216064 0.5920850038528442 -0.7730720043182373
vn -0.2133910059928894 -0.6553030014038086 -0.7245979905128479
vn -9.999999974752427e-07 -0.9978470206260681 0.06558399647474289
vn -0.2133910059928894 -0.6553030014038086 -0.7245979905128479
vn 1.8000000636675395e-05 -0.7086399793624878 -0.7055699825286865
vn -0.17485100030899048 -0.6194109916687012 0.7653470039367676
vn -0.17485100030899048 -0.6194109916687012 0.7653470039367676
vn -0.19822800159454346 0.16166800260543823 0.9667310118675232
vn 0.10644099861383438 0.9618070125579834 -0.25218498706817627
vn 0.21229000389575958 0.5949749946594238 -0.7752019762992859
vn 0.19768500328063965 -0.659434974193573 -0.7253050208091736
vn -9.999999974752427e-07 -0.9978470206260681 0.06558100134134293
vn 0.19768500328063965 -0.659434974193573 -0.7253050208091736
vn 0.16032500565052032 -0.6247050166130066 0.7642250061035156
vn 1.700000029813964e-05 -0.7085139751434326 -0.7056970000267029
vn 0.1894340068101883 0.15029199421405792 0.9703230261802673
vn 0.16032500565052032 -0.6247050166130066 0.7642250061035156
vn 0.003819999983534217 0.9245709776878357 -0.38098999857902527
vn -0.19822800159454346 0.16166800260543823 0.9667310118675232
vn -0.17485100030899048 -0.6194109916687012 0.7653470039367676
vn -0.5741479992866516 0.24278700351715088 0.7819259762763977
vn 0.6043959856033325 0.22460900247097015 0.7643659710884094
vn 0.019805999472737312 0.2233089953660965 0.9745470285415649
vn 0.019805999472737312 0.2233089953660965 0.9745470285415649
vn -0.9211360216140747 -0.2618130147457123 -0.28803199529647827
vn -0.9211360216140747 -0.2618130147457123 -0.28803199529647827
vn 1.2000000424450263e-05 -0.753508985042572 -0.6574379801750183
vn 1.9999999494757503e-05 -0.7533990144729614 -0.6575629711151123
vn 1.8999999156221747e-05 -0.7532780170440674 -0.6577020287513733
vn 2.300000051036477e-05 -0.7531599998474121 -0.657837986946106
vn 0.9213119745254517 -0.26131200790405273 -0.28792300820350647
vn 0.9213119745254517 -0.26131200790405273 -0.28792300820350647

vt 0.040495000779628754 0.01482701301574707
vt 0.07823900133371353 0.00935298204421997
vt 0.07896299660205841 0.02626901865005493
vt 0.043122000992298126 0.032146990299224854
vt 0.11636099964380264 0.007277011871337891
vt 0.1172500029206276 0.024290025234222412
vt 0.15325899422168732 0.010187983512878418
vt 0.15398499369621277 0.028047025203704834
vt 0.1925249993801117 0.017453014850616455
vt 0.19049599766731262 0.03536802530288696
vt 0.22676299512386322 0.026970982551574707
vt 0.22161799669265747 0.04515200853347778
vt 0.461775004863739 0.03029000759124756
vt 0.4250890016555786 0.030247986316680908
vt 0.42522600293159485 0.04826098680496216
vt 0.4613789916038513 0.05032801628112793
vt 0.38639798760414124 0.0321810245513916
vt 0.3868100047111511 0.050028979778289795
vt 0.3471739888191223 0.033191978931427
vt 0.3472769856452942 0.05051398277282715
vt 0.36422398686408997 0.050980985164642334
vt 0.36427998542785645 0.0329669713973999
vt 0.32913100719451904 0.031149983406066895
vt 0.30749499797821045 0.028641998767852783
vt 0.3076759874820709 0.04671198129653931
vt 0.3292419910430908 0.04944801330566406
vt 0.2690170109272003 0.02471601963043213
vt 0.26921001076698303 0.042293012142181396
vt 0.23350900411605835 0.024119019508361816
vt 0.23350900411605835 0.042697012424468994
vt 0.007656000088900328 0.023917973041534424
vt 0.012369999662041664 0.04110097885131836
vt 0.26096799969673157 0.23687201738357544
vt 0.2609879970550537 0.2516019940376282
vt 0.2326049953699112 0.2451379895210266
vt 0.2535940110683441 0.22412002086639404
vt 0.24083200097084045 0.21676301956176758
vt 0.22609999775886536 0.21676301956176758
vt 0.21432000398635864 0.22315800189971924
vt 0.20768499374389648 0.2351970076560974
vt 0.20763100683689117 0.2500010132789612
vt 0.21371899545192719 0.2640479803085327
vt 0.21081699430942535 0.2580450177192688
vt 0.2277739942073822 0.27011698484420776
vt 0.21996699273586273 0.26708000898361206
vt 0.24257799983024597 0.2700430154800415
vt 0.2546069920063019 0.26339101791381836
vt 0.14100000262260437 0.47714197635650635
vt 0.12687799334526062 0.45510298013687134
vt 0.1491370052099228 0.4341760277748108
vt 0.17350900173187256 0.44570398330688477
vt 0.09566099941730499 0.4894469976425171
vt 0.09425699710845947 0.463454008102417
vt 0.049247998744249344 0.4793189764022827
vt 0.06453599780797958 0.45549702644348145
vt 0.016558999195694923 0.44880402088165283
vt 0.041471999138593674 0.43783700466156006
vt 0.004344000015407801 0.4090780019760132
vt 0.03229700028896332 0.4080219864845276
vt 0.015660999342799187 0.36813199520111084
vt 0.040474001318216324 0.38051700592041016
vt 0.047905001789331436 0.3373289704322815
vt 0.06256499886512756 0.36011600494384766
vt 0.07289499789476395 0.326213002204895
vt 0.0938510000705719 0.320343017578125
vt 0.09571000188589096 0.35124099254608154
vt 0.08078599721193314 0.3505679965019226
vt 0.1403450071811676 0.33525097370147705
vt 0.12530000507831573 0.3594589829444885
vt 0.10957399755716324 0.3503810167312622
vt 0.11516500264406204 0.32637399435043335
vt 0.1732109934091568 0.3660140037536621
vt 0.1485079973936081 0.37748897075653076
vt 0.1847819983959198 0.4052469730377197
vt 0.1575859934091568 0.4063910245895386
vt 0.2894890010356903 0.15987098217010498
vt 0.2612369954586029 0.16590797901153564
vt 0.26446598768234253 0.18635201454162598
vt 0.2889209985733032 0.18829602003097534
vt 0.31671398878097534 0.158797025680542
vt 0.31596601009368896 0.19109898805618286
vt 0.33285799622535706 0.15888702869415283
vt 0.3319309949874878 0.19210797548294067
vt 0.35858601331710815 0.1598759889602661
vt 0.3460899889469147 0.15877199172973633
vt 0.34501901268959045 0.19298797845840454
vt 0.3575179874897003 0.19338899850845337
vt 0.4021579921245575 0.16485601663589478
vt 0.3750390112400055 0.161562979221344
vt 0.3739350140094757 0.19398701190948486
vt 0.40119099617004395 0.19353598356246948
vt 0.42595601081848145 0.19183099269866943
vt 0.43001100420951843 0.17190498113632202
vt 0.2018350064754486 0.17023897171020508
vt 0.20167000591754913 0.18975001573562622
vt 0.1746930032968521 0.18540197610855103
vt 0.1718830019235611 0.17054402828216553
vt 0.1464879959821701 0.18217098712921143
vt 0.14289599657058716 0.1721230149269104
vt 0.1185770034790039 0.18065297603607178
vt 0.11797799915075302 0.1709129810333252
vt 0.09247300028800964 0.16933798789978027
vt 0.08985999971628189 0.17916500568389893
vt 0.06324700266122818 0.16663098335266113
vt 0.061312999576330185 0.18183499574661255
vt 0.03369000181555748 0.16756302118301392
vt 0.03479300066828728 0.18686902523040771
vt 0.2887539863586426 0.2559279799461365
vt 0.2873220145702362 0.3093410134315491
vt 0.3155739903450012 0.3094009757041931
vt 0.3161199986934662 0.25809597969055176
vt 0.3325819969177246 0.2591410279273987
vt 0.33240100741386414 0.30994099378585815
vt 0.3592340052127838 0.26065897941589355
vt 0.3462289869785309 0.25996899604797363
vt 0.34632599353790283 0.310467004776001
vt 0.35956600308418274 0.3115770220756531
vt 0.4034700095653534 0.262162983417511
vt 0.3762519955635071 0.26164400577545166
vt 0.37690499424934387 0.31300002336502075
vt 0.40484198927879333 0.31553399562835693
vt 0.42818400263786316 0.2605550289154053
vt 0.43075400590896606 0.31691300868988037
vt 0.17814399302005768 0.253400981426239
vt 0.2039490044116974 0.25578898191452026
vt 0.20401500165462494 0.31182199716567993
vt 0.17767399549484253 0.31362998485565186
vt 0.1505099982023239 0.24995297193527222
vt 0.15026900172233582 0.3148679733276367
vt 0.12141700088977814 0.3143799901008606
vt 0.1213890016078949 0.24848002195358276
vt 0.0930979996919632 0.3127390146255493
vt 0.09166300296783447 0.2481970191001892
vt 0.06655000150203705 0.3105959892272949
vt 0.06395699828863144 0.2505210041999817
vt 0.04083999991416931 0.3083000183105469
vt 0.037602998316287994 0.25300097465515137
vt 0.26411500573158264 0.2541329860687256
vt 0.26118698716163635 0.30989301204681396
vt 0.33254098892211914 0.13826799392700195
vt 0.3155190050601959 0.1383500099182129
vt 0.3592599928379059 0.13933497667312622
vt 0.3461560010910034 0.13847297430038452
vt 0.37665998935699463 0.14139199256896973
vt 0.4057939946651459 0.14581799507141113
vt 0.435820996761322 0.1529809832572937
vt 0.1777620017528534 0.1497979760169983
vt 0.20403699576854706 0.15099501609802246
vt 0.147707000374794 0.15223997831344604
vt 0.11678899824619293 0.15095800161361694
vt 0.08684100210666656 0.15026897192001343
vt 0.05727500095963478 0.1476529836654663
vt 0.03161799907684326 0.1487240195274353
vt 0.2861829996109009 0.14061099290847778
vt 0.2557609975337982 0.1465970277786255
vt 0.27566298842430115 0.07873302698135376
vt 0.242590993642807 0.08392900228500366
vt 0.24892699718475342 0.13386297225952148
vt 0.2811020016670227 0.1267719864845276
vt 0.30990898609161377 0.07702302932739258
vt 0.31297600269317627 0.12332797050476074
vt 0.33059099316596985 0.07646697759628296
vt 0.3314799964427948 0.12265700101852417
vt 0.3636780083179474 0.07859402894973755
vt 0.3472979962825775 0.07685297727584839
vt 0.3465830087661743 0.12251901626586914
vt 0.3612540066242218 0.12388497591018677
vt 0.384566992521286 0.08020198345184326
vt 0.3800249993801117 0.12647199630737305
vt 0.4112290143966675 0.13222801685333252
vt 0.41863399744033813 0.08447599411010742
vt 0.44313400983810425 0.14097601175308228
vt 0.45131298899650574 0.09072601795196533
vt 0.1858700066804886 0.08242297172546387
vt 0.21372799575328827 0.08747398853302002
vt 0.20266400277614594 0.13709598779678345
vt 0.1751510053873062 0.13458198308944702
vt 0.1516450047492981 0.07753700017929077
vt 0.14519700407981873 0.13377302885055542
vt 0.11706899851560593 0.13135701417922974
vt 0.11736399680376053 0.07611900568008423
vt 0.08922799676656723 0.13152098655700684
vt 0.08255700021982193 0.07679098844528198
vt 0.05992100015282631 0.13194602727890015
vt 0.04834499955177307 0.07940798997879028
vt 0.03308999910950661 0.13460201025009155
vt 0.020570000633597374 0.08494502305984497
vt 0.09492599964141846 0.4075850248336792
vt 0.26934999227523804 0.04624199867248535
vt 0.2344609946012497 0.046742022037506104
vt 0.30748000741004944 0.05063098669052124
vt 0.3289879858493805 0.05336499214172363
vt 0.3473150134086609 0.05459398031234741
vt 0.3646079897880554 0.05488300323486328
vt 0.38700100779533386 0.05383598804473877
vt 0.4250670075416565 0.05208098888397217
vt 0.46018901467323303 0.05406898260116577
vt 0.21982799470424652 0.04850900173187256
vt 0.19012700021266937 0.03904801607131958
vt 0.15398700535297394 0.03188502788543701
vt 0.11735899746417999 0.028093993663787842
vt 0.07910200208425522 0.030239999294281006
vt 0.043699000030756 0.03585702180862427
vt 0.014171999879181385 0.04457902908325195
vt 0.97707599401474 0.2392910122871399
vt 0.9420120120048523 0.266340970993042
vt 0.9273759722709656 0.25055402517318726
vt 0.956358015537262 0.2245190143585205
vt 0.8112599849700928 0.3067589998245239
vt 0.8143829703330994 0.31536102294921875
vt 0.7764660120010376 0.3289729952812195
vt 0.7735069990158081 0.3224189877510071
vt 0.8574020266532898 0.12289297580718994
vt 0.860588014125824 0.15987801551818848
vt 0.842182993888855 0.1598920226097107
vt 0.8421450257301331 0.09740698337554932
vt 0.8502190113067627 0.285552978515625
vt 0.8604620099067688 0.2963240146636963
vt 0.8231350183486938 0.04232698678970337
vt 0.867838978767395 0.06450700759887695
vt 0.8568810224533081 0.07450598478317261
vt 0.8193609714508057 0.0506250262260437
vt 0.8950679898262024 0.2566649913787842
vt 0.8725630044937134 0.24182099103927612
vt 0.8904550075531006 0.21720200777053833
vt 0.9090870022773743 0.2269200086593628
vt 0.8451420068740845 0.09325098991394043
vt 0.8104239702224731 0.0705299973487854
vt 0.8012920022010803 0.285286009311676
vt 0.8373039960861206 0.2649580240249634
vt 0.8422049880027771 0.1922929883003235
vt 0.8585529923439026 0.19228202104568481
vt 0.8565509915351868 0.22519797086715698
vt 0.8422459959983826 0.25373202562332153
vt 0.9374319911003113 0.26953399181365967
vt 0.8955479860305786 0.2810249924659729
vt 0.8999019861221313 0.10580402612686157
vt 0.9020209908485413 0.08153802156448364
vt 0.9422569870948792 0.09666597843170166
vt 0.9324280023574829 0.11382400989532471
vt 0.9115880131721497 0.1355379819869995
vt 0.8933249711990356 0.14528197050094604
vt 0.8786060214042664 0.11914300918579102
vt 0.9595019817352295 0.1412060260772705
vt 0.9792839884757996 0.13037002086639404
vt 0.9466620087623596 0.10016798973083496
vt 0.7728689908981323 0.19234001636505127
vt 0.772911012172699 0.2537810206413269
vt 0.7596229910850525 0.22526097297668457
vt 0.7575780153274536 0.19234997034072876
vt 0.7586410045623779 0.12295001745223999
vt 0.7728099822998047 0.09744501113891602
vt 0.7728480100631714 0.15993201732635498
vt 0.755499005317688 0.15994501113891602
vt 0.7832990288734436 0.03214597702026367
vt 0.7868310213088989 0.025898993015289307
vt 0.9161520004272461 0.1961820125579834
vt 0.9711650013923645 0.19981801509857178
vt 0.995527982711792 0.20245498418807983
vt 0.8199620246887207 0.19231098890304565
vt 0.8200100064277649 0.2672420144081116
vt 0.8199390172958374 0.15990698337554932
vt 0.8198959827423096 0.08742201328277588
vt 0.7445520162582397 0.33696800470352173
vt 0.7418580055236816 0.33022499084472656
vt 0.9173460006713867 0.16930001974105835
vt 0.9702309966087341 0.17060697078704834
vt 0.9971669912338257 0.16999799013137817
vt 0.7971919775009155 0.19232898950576782
vt 0.7972429990768433 0.2672579884529114
vt 0.7971299886703491 0.08743500709533691
vt 0.7971720099449158 0.15992200374603271
vt 0.7499769926071167 0.021207988262176514
vt 0.752918004989624 0.01473301649093628
vt 0.8997690081596375 0.18172597885131836
vt 0.7224460244178772 0.014301002025604248
vt 0.7228209972381592 0.006991028785705566
vt 0.7636849880218506 0.30143797397613525
vt 0.7736830115318298 0.05197697877883911
vt 0.7224460244178772 0.3114749789237976
vt 0.7330210208892822 0.039130985736846924
vt 0.8583149909973145 0.2916020154953003
vt 0.860588014125824 0.16363197565078735
vt 0.8421850204467773 0.16364198923110962
vt 0.8199419975280762 0.1636580228805542
vt 0.7971749901771545 0.16367101669311523
vt 0.772849977016449 0.1636819839477539
vt 0.7555009722709656 0.1636970043182373
vt 0.8654329776763916 0.06905698776245117

usemtl Material

f 1/1/1 2/2/2 3/3/3
f 3/3/3 4/4/4 1/1/1
f 5/5/5 6/6/6 3/3/3
f 3/3/3 2/2/2 5/5/5
f 7/7/7 8/8/8 6/6/6
f 6/6/6 5/5/5 7/7/7
f 9/9/9 10/10/10 8/8/8
f 8/8/8 7/7/7 9/9/9
f 11/11/11 12/12/12 10/10/10
f 10/10/10 9/9/9 11/11/11
f 13/13/13 14/14/14 15/15/15
f 15/15/15 16/16/16 13/13/13
f 14/14/14 17/17/17 18/18/18
f 18/18/18 15/15/15 14/14/14
f 19/19/19 20/20/20 21/21/21
f 21/21/21 22/22/22 19/19/19
f 23/23/23 24/24/24 25/25/25
f 25/25/25 26/26/26 23/23/23
f 24/24/24 27/27/27 28/28/28
f 28/28/28 25/25/25 24/24/24
f 29/29/29 30/30/30 28/28/28
f 28/28/28 27/27/27 29/29/29
f 31/31/31 1/1/1 4/4/4
f 4/4/4 32/32/32 31/31/31
f 33/33/33 34/34/34 35/35/35
f 36/36/36 33/33/33 35/35/35
f 37/37/37 36/36/36 35/35/35
f 38/38/38 37/37/37 35/35/35
f 39/39/39 38/38/38 35/35/35
f 40/40/40 39/39/39 35/35/35
f 41/41/41 40/40/40 35/35/35
f 42/42/42 43/43/43 41/41/41
f 41/41/41 35/35/35 42/42/42
f 44/44/44 45/45/45 42/42/42
f 42/42/42 35/35/35 44/44/44
f 46/46/46 44/44/44 35/35/35
f 47/47/47 46/46/46 35/35/35
f 34/34/34 47/47/47 35/35/35
f 48/48/48 49/49/49 50/50/50
f 50/50/50 51/51/51 48/48/48
f 52/52/52 53/53/53 49/49/49
f 49/49/49 48/48/48 52/52/52
f 52/52/52 54/54/54 55/55/55
f 55/55/55 53/53/53 52/52/52
f 54/54/54 56/56/56 57/57/57
f 57/57/57 55/55/55 54/54/54
f 56/56/56 58/58/58 59/59/59
f 59/59/59 57/57/57 56/56/56
f 60/60/60 61/61/61 59/59/59
f 59/59/59 58/58/58 60/60/60
f 62/62/62 63/63/63 61/61/61
f 61/61/61 60/60/60 62/62/62
f 64/64/64 65/65/65 66/66/66
f 66/66/66 67/67/67 64/64/64
f 68/68/68 69/69/69 70/70/70
f 70/70/70 71/71/71 68/68/68
f 68/68/68 72/72/72 73/73/73
f 73/73/73 69/69/69 68/68/68
f 72/72/72 74/74/74 75/75/75
f 75/75/75 73/73/73 72/72/72
f 51/51/51 50/50/50 75/75/75
f 75/75/75 74/74/74 51/51/51
f 76/76/76 77/77/77 78/78/78
f 78/78/78 79/79/79 76/76/76
f 80/80/80 76/76/76 79/79/79
f 79/79/79 81/81/81 80/80/80
f 82/82/82 80/80/80 81/81/81
f 81/81/81 83/83/83 82/82/82
f 84/84/84 85/85/85 86/86/86
f 86/86/86 87/87/87 84/84/84
f 88/88/88 89/89/89 90/90/90
f 90/90/90 91/91/91 88/88/88
f 88/88/88 91/91/91 92/92/92
f 92/92/92 93/93/93 88/88/88
f 94/94/94 95/95/95 96/96/96
f 96/96/96 97/97/97 94/94/94
f 97/97/97 96/96/96 98/98/98
f 98/98/98 99/99/99 97/97/97
f 99/99/99 98/98/98 100/100/100
f 100/100/100 101/101/101 99/99/99
f 102/102/102 101/101/101 100/100/100
f 100/100/100 103/103/103 102/102/102
f 104/104/104 102/102/102 103/103/103
f 103/103/103 105/105/105 104/104/104
f 106/106/106 104/104/104 105/105/105
f 105/105/105 107/107/107 106/106/106
f 108/108/108 109/109/109 110/110/110
f 110/110/110 111/111/111 108/108/108
f 112/112/112 111/111/111 110/110/110
f 110/110/110 113/113/113 112/112/112
f 114/114/114 115/115/115 116/116/116
f 116/116/116 117/117/117 114/114/114
f 118/118/118 119/119/119 120/120/120
f 120/120/120 121/121/121 118/118/118
f 122/122/122 118/118/118 121/121/121
f 121/121/121 123/123/123 122/122/122
f 124/124/124 125/125/125 126/126/126
f 126/126/126 127/127/127 124/124/124
f 128/128/128 124/124/124 127/127/127
f 127/127/127 129/129/129 128/128/128
f 128/128/128 129/129/129 130/130/130
f 130/130/130 131/131/131 128/128/128
f 131/131/131 130/130/130 132/132/132
f 132/132/132 133/133/133 131/131/131
f 133/133/133 132/132/132 134/134/134
f 134/134/134 135/135/135 133/133/133
f 135/135/135 134/134/134 136/136/136
f 136/136/136 137/137/137 135/135/135
f 138/138/138 139/139/139 109/109/109
f 109/109/109 108/108/108 138/138/138
f 140/140/140 141/141/141 80/80/80
f 80/80/80 82/82/82 140/140/140
f 142/142/142 143/143/143 85/85/85
f 85/85/85 84/84/84 142/142/142
f 144/144/144 89/89/89 88/88/88
f 88/88/88 145/145/145 144/144/144
f 145/145/145 88/88/88 93/93/93
f 93/93/93 146/146/146 145/145/145
f 147/147/147 148/148/148 94/94/94
f 94/94/94 97/97/97 147/147/147
f 149/149/149 147/147/147 97/97/97
f 97/97/97 99/99/99 149/149/149
f 150/150/150 149/149/149 99/99/99
f 99/99/99 101/101/101 150/150/150
f 150/150/150 101/101/101 102/102/102
f 102/102/102 151/151/151 150/150/150
f 151/151/151 102/102/102 104/104/104
f 104/104/104 152/152/152 151/151/151
f 152/152/152 104/104/104 106/106/106
f 106/106/106 153/153/153 152/152/152
f 154/154/154 155/155/155 77/77/77
f 77/77/77 76/76/76 154/154/154
f 141/141/141 154/154/154 76/76/76
f 76/76/76 80/80/80 141/141/141
f 83/83/83 81/81/81 111/111/111
f 111/111/111 112/112/112 83/83/83
f 87/87/87 86/86/86 115/115/115
f 115/115/115 114/114/114 87/87/87
f 91/91/91 90/90/90 119/119/119
f 119/119/119 118/118/118 91/91/91
f 91/91/91 118/118/118 122/122/122
f 122/122/122 92/92/92 91/91/91
f 95/95/95 125/125/125 124/124/124
f 124/124/124 96/96/96 95/95/95
f 96/96/96 124/124/124 128/128/128
f 128/128/128 98/98/98 96/96/96
f 98/98/98 128/128/128 131/131/131
f 131/131/131 100/100/100 98/98/98
f 100/100/100 131/131/131 133/133/133
f 133/133/133 103/103/103 100/100/100
f 105/105/105 103/103/103 133/133/133
f 133/133/133 135/135/135 105/105/105
f 107/107/107 105/105/105 135/135/135
f 135/135/135 137/137/137 107/107/107
f 79/79/79 78/78/78 138/138/138
f 138/138/138 108/108/108 79/79/79
f 81/81/81 79/79/79 108/108/108
f 108/108/108 111/111/111 81/81/81
f 156/156/156 157/157/157 158/158/158
f 158/158/158 159/159/159 156/156/156
f 160/160/160 156/156/156 159/159/159
f 159/159/159 161/161/161 160/160/160
f 162/162/162 160/160/160 161/161/161
f 161/161/161 163/163/163 162/162/162
f 164/164/164 165/165/165 166/166/166
f 166/166/166 167/167/167 164/164/164
f 168/168/168 169/169/169 170/170/170
f 170/170/170 171/171/171 168/168/168
f 171/171/171 170/170/170 172/172/172
f 172/172/172 173/173/173 171/171/171
f 174/174/174 175/175/175 176/176/176
f 176/176/176 177/177/177 174/174/174
f 178/178/178 174/174/174 177/177/177
f 177/177/177 179/179/179 178/178/178
f 178/178/178 179/179/179 180/180/180
f 180/180/180 181/181/181 178/178/178
f 181/181/181 180/180/180 182/182/182
f 182/182/182 183/183/183 181/181/181
f 183/183/183 182/182/182 184/184/184
f 184/184/184 185/185/185 183/183/183
f 185/185/185 184/184/184 186/186/186
f 186/186/186 187/187/187 185/185/185
f 50/50/50 49/49/49 188/188/188
f 49/49/49 53/53/53 188/188/188
f 53/53/53 55/55/55 188/188/188
f 55/55/55 57/57/57 188/188/188
f 57/57/57 59/59/59 188/188/188
f 59/59/59 61/61/61 188/188/188
f 61/61/61 63/63/63 188/188/188
f 63/63/63 67/67/67 66/66/66
f 66/66/66 188/188/188 63/63/63
f 66/66/66 70/70/70 69/69/69
f 69/69/69 188/188/188 66/66/66
f 69/69/69 73/73/73 188/188/188
f 73/73/73 75/75/75 188/188/188
f 75/75/75 50/50/50 188/188/188
f 71/71/71 70/70/70 66/66/66
f 66/66/66 65/65/65 71/71/71
f 115/115/115 112/112/112 113/113/113
f 113/113/113 116/116/116 115/115/115
f 86/86/86 83/83/83 112/112/112
f 112/112/112 115/115/115 86/86/86
f 85/85/85 82/82/82 83/83/83
f 83/83/83 86/86/86 85/85/85
f 143/143/143 140/140/140 82/82/82
f 82/82/82 85/85/85 143/143/143
f 165/165/165 162/162/162 163/163/163
f 163/163/163 166/166/166 165/165/165
f 19/19/19 23/23/23 26/26/26
f 26/26/26 20/20/20 19/19/19
f 62/62/62 64/64/64 67/67/67
f 67/67/67 63/63/63 62/62/62
f 119/119/119 114/114/114 117/117/117
f 117/117/117 120/120/120 119/119/119
f 90/90/90 87/87/87 114/114/114
f 114/114/114 119/119/119 90/90/90
f 89/89/89 84/84/84 87/87/87
f 87/87/87 90/90/90 89/89/89
f 144/144/144 142/142/142 84/84/84
f 84/84/84 89/89/89 144/144/144
f 164/164/164 167/167/167 169/169/169
f 169/169/169 168/168/168 164/164/164
f 17/17/17 22/22/22 21/21/21
f 21/21/21 18/18/18 17/17/17
f 159/159/159 158/158/158 155/155/155
f 155/155/155 154/154/154 159/159/159
f 161/161/161 159/159/159 154/154/154
f 154/154/154 141/141/141 161/161/161
f 163/163/163 161/161/161 141/141/141
f 141/141/141 140/140/140 163/163/163
f 166/166/166 163/163/163 140/140/140
f 140/140/140 143/143/143 166/166/166
f 166/166/166 143/143/143 142/142/142
f 142/142/142 167/167/167 166/166/166
f 167/167/167 142/142/142 144/144/144
f 144/144/144 169/169/169 167/167/167
f 169/169/169 144/144/144 145/145/145
f 145/145/145 170/170/170 169/169/169
f 170/170/170 145/145/145 146/146/146
f 146/146/146 172/172/172 170/170/170
f 176/176/176 148/148/148 147/147/147
f 147/147/147 177/177/177 176/176/176
f 177/177/177 147/147/147 149/149/149
f 149/149/149 179/179/179 177/177/177
f 179/179/179 149/149/149 150/150/150
f 150/150/150 180/180/180 179/179/179
f 182/182/182 180/180/180 150/150/150
f 150/150/150 151/151/151 182/182/182
f 184/184/184 182/182/182 151/151/151
f 151/151/151 152/152/152 184/184/184
f 186/186/186 184/184/184 152/152/152
f 152/152/152 153/153/153 186/186/186
f 189/189/189 190/190/190 157/157/157
f 157/157/157 156/156/156 189/189/189
f 191/191/191 189/189/189 156/156/156
f 156/156/156 160/160/160 191/191/191
f 192/192/192 191/191/191 160/160/160
f 160/160/160 162/162/162 192/192/192
f 193/193/193 192/192/192 162/162/162
f 162/162/162 165/165/165 193/193/193
f 194/194/194 193/193/193 165/165/165
f 165/165/165 164/164/164 194/194/194
f 194/194/194 164/164/164 168/168/168
f 168/168/168 195/195/195 194/194/194
f 195/195/195 168/168/168 171/171/171
f 171/171/171 196/196/196 195/195/195
f 196/196/196 171/171/171 173/173/173
f 173/173/173 197/197/197 196/196/196
f 198/198/198 175/175/175 174/174/174
f 174/174/174 199/199/199 198/198/198
f 199/199/199 174/174/174 178/178/178
f 178/178/178 200/200/200 199/199/199
f 200/200/200 178/178/178 181/181/181
f 181/181/181 201/201/201 200/200/200
f 201/201/201 181/181/181 183/183/183
f 183/183/183 202/202/202 201/201/201
f 202/202/202 183/183/183 185/185/185
f 185/185/185 203/203/203 202/202/202
f 204/204/204 203/203/203 185/185/185
f 185/185/185 187/187/187 204/204/204
f 28/28/28 30/30/30 190/190/190
f 190/190/190 189/189/189 28/28/28
f 25/25/25 28/28/28 189/189/189
f 189/189/189 191/191/191 25/25/25
f 26/26/26 25/25/25 191/191/191
f 191/191/191 192/192/192 26/26/26
f 193/193/193 20/20/20 26/26/26
f 26/26/26 192/192/192 193/193/193
f 21/21/21 20/20/20 193/193/193
f 193/193/193 194/194/194 21/21/21
f 18/18/18 21/21/21 194/194/194
f 194/194/194 195/195/195 18/18/18
f 18/18/18 195/195/195 196/196/196
f 196/196/196 15/15/15 18/18/18
f 15/15/15 196/196/196 197/197/197
f 197/197/197 16/16/16 15/15/15
f 12/12/12 198/198/198 199/199/199
f 199/199/199 10/10/10 12/12/12
f 10/10/10 199/199/199 200/200/200
f 200/200/200 8/8/8 10/10/10
f 8/8/8 200/200/200 201/201/201
f 201/201/201 6/6/6 8/8/8
f 6/6/6 201/201/201 202/202/202
f 202/202/202 3/3/3 6/6/6
f 3/3/3 202/202/202 203/203/203
f 203/203/203 4/4/4 3/3/3
f 4/4/4 203/203/203 204/204/204
f 204/204/204 32/32/32 4/4/4
f 205/205/205 206/206/206 207/207/207
f 207/207/207 208/208/208 205/205/205
f 209/209/209 210/210/210 211/211/211
f 211/211/211 212/212/212 209/209/209
f 213/213/213 214/214/214 215/215/215
f 215/215/215 216/216/216 213/213/213
f 210/210/210 209/209/209 217/217/217
f 217/217/217 218/218/218 210/210/210
f 219/219/219 220/220/220 221/221/221
f 221/221/221 222/222/222 219/219/219
f 223/223/223 224/224/224 225/225/225
f 225/225/225 226/226/226 223/223/223
f 221/221/221 227/227/227 228/228/228
f 228/228/228 222/222/222 221/221/221
f 217/217/217 209/209/209 229/229/229
f 229/229/229 230/230/230 217/217/217
f 231/231/231 232/232/232 233/233/233
f 233/233/233 234/234/234 231/231/231
f 223/223/223 207/207/207 235/235/235
f 235/235/235 236/236/236 223/223/223
f 226/226/226 208/208/208 207/207/207
f 207/207/207 223/223/223 226/226/226
f 237/237/237 238/238/238 239/239/239
f 239/239/239 240/240/240 237/237/237
f 237/237/237 241/241/241 242/242/242
f 242/242/242 243/243/243 237/237/237
f 241/241/241 237/237/237 240/240/240
f 240/240/240 244/244/244 241/241/241
f 245/245/245 244/244/244 240/240/240
f 240/240/240 246/246/246 245/245/245
f 247/247/247 248/248/248 249/249/249
f 249/249/249 250/250/250 247/247/247
f 251/251/251 252/252/252 253/253/253
f 253/253/253 254/254/254 251/251/251
f 255/255/255 256/256/256 219/219/219
f 219/219/219 222/222/222 255/255/255
f 208/208/208 226/226/226 257/257/257
f 257/257/257 258/258/258 208/208/208
f 259/259/259 205/205/205 208/208/208
f 208/208/208 258/258/258 259/259/259
f 260/260/260 231/231/231 234/234/234
f 234/234/234 261/261/261 260/260/260
f 216/216/216 215/215/215 262/262/262
f 262/262/262 263/263/263 216/216/216
f 212/212/212 211/211/211 264/264/264
f 264/264/264 265/265/265 212/212/212
f 266/266/266 241/241/241 244/244/244
f 244/244/244 267/267/267 266/266/266
f 268/268/268 267/267/267 244/244/244
f 244/244/244 245/245/245 268/268/268
f 269/269/269 270/270/270 248/248/248
f 248/248/248 247/247/247 269/269/269
f 252/252/252 271/271/271 272/272/272
f 272/272/272 253/253/253 252/252/252
f 255/255/255 273/273/273 274/274/274
f 274/274/274 256/256/256 255/255/255
f 266/266/266 275/275/275 242/242/242
f 242/242/242 241/241/241 266/266/266
f 257/257/257 266/266/266 267/267/267
f 267/267/267 258/258/258 257/257/257
f 259/259/259 258/258/258 267/267/267
f 267/267/267 268/268/268 259/259/259
f 260/260/260 261/261/261 270/270/270
f 270/270/270 269/269/269 260/260/260
f 263/263/263 262/262/262 272/272/272
f 272/272/272 271/271/271 263/263/263
f 276/276/276 277/277/277 274/274/274
f 274/274/274 273/273/273 276/276/276
f 229/229/229 209/209/209 212/212/212
f 212/212/212 278/278/278 229/229/229
f 279/279/279 255/255/255 222/222/222
f 222/222/222 228/228/228 279/279/279
f 225/225/225 275/275/275 257/257/257
f 257/257/257 226/226/226 225/225/225
f 278/278/278 212/212/212 265/265/265
f 265/265/265 280/280/280 278/278/278
f 279/279/279 281/281/281 273/273/273
f 273/273/273 255/255/255 279/279/279
f 281/281/281 276/276/276 273/273/273
f 275/275/275 266/266/266 257/257/257
f 217/217/217 230/230/230 224/224/224
f 224/224/224 223/223/223 217/217/217
f 282/282/282 218/218/218 217/217/217
f 214/214/214 283/283/283 284/284/284
f 284/284/284 215/215/215 214/214/214
f 215/215/215 284/284/284 285/285/285
f 285/285/285 262/262/262 215/215/215
f 262/262/262 285/285/285 286/286/286
f 286/286/286 272/272/272 262/262/262
f 272/272/272 286/286/286 287/287/287
f 287/287/287 253/253/253 272/272/272
f 253/253/253 287/287/287 288/288/288
f 288/288/288 254/254/254 253/253/253
f 221/221/221 220/220/220 289/289/289
f 221/221/221 237/237/237 243/243/243
f 243/243/243 227/227/227 221/221/221
f 236/236/236 282/282/282 217/217/217
f 217/217/217 223/223/223 236/236/236
f 284/284/284 283/283/283 232/232/232
f 232/232/232 231/231/231 284/284/284
f 284/284/284 231/231/231 260/260/260
f 260/260/260 285/285/285 284/284/284
f 285/285/285 260/260/260 269/269/269
f 269/269/269 286/286/286 285/285/285
f 286/286/286 269/269/269 247/247/247
f 247/247/247 287/287/287 286/286/286
f 287/287/287 247/247/247 250/250/250
f 250/250/250 288/288/288 287/287/287
f 221/221/221 289/289/289 238/238/238
f 238/238/238 237/237/237 221/221/221