mtllib 55639520.mtl
o Mesh

v 0.205471009016037 0.49443700909614563 0.49001699686050415
v 0.30816900730133057 0.38902899622917175 0.5330340266227722
v 0.4424790143966675 0.48566898703575134 0.5330340266227722
v 0.4004110097885132 0.6347000002861023 0.49001699686050415
v 0.5043280124664307 0.6414369940757751 0.49001699686050415
v 0.513696014881134 0.4897179901599884 0.5330340266227722
v 0.5854859948158264 0.5043330192565918 0.5727440118789673
v 0.5999870300292969 0.6679149866104126 0.5590659976005554
v 0.12500900030136108 0.3361319899559021 0.49001699686050415
v 0.2608200013637543 0.29813599586486816 0.5330340266227722
v -0.013590991497039795 0.7192789912223816 0.21597599983215332
v 0.11528900265693665 0.5869989991188049 0.452241986989975
v 0.3634690046310425 0.7655689716339111 0.452241986989975
v 0.3106690049171448 0.9525890350341797 0.21597599983215332
v 0.5619950294494629 0.9661389589309692 0.21597599983215332
v 0.5141149759292603 0.7749379873275757 0.452241986989975
v 0.6349810361862183 0.8185800313949585 0.5091609954833984
v 0.7091889977455139 1.0361859798431396 0.2383970022201538
v -0.1906610131263733 0.33489900827407837 0.21597500145435333
v -0.02024102210998535 0.29280900955200195 0.452241986989975
v 0.3106690049171448 0.9525890350341797 -0.18688499927520752
v -0.013590991497039795 0.7192789912223816 -0.18688499927520752
v 0.7091889977455139 1.0361859798431396 -0.209306001663208
v 0.5619950294494629 0.9661389589309692 -0.18688499927520752
v -0.1906610131263733 0.33489900827407837 -0.18688499927520752
v 0.36347001791000366 0.7655689716339111 -0.4231509864330292
v 0.11528998613357544 0.5869989991188049 -0.4231509864330292
v 0.6349819898605347 0.8185809850692749 -0.48006999492645264
v 0.5141159892082214 0.7749379873275757 -0.4231509864330292
v -0.02024000883102417 0.29280900955200195 -0.4231509864330292
v 0.4424799978733063 0.48566898703575134 -0.5039420127868652
v 0.30817002058029175 0.38902899622917175 -0.5039420127868652
v 0.20547199249267578 0.49443700909614563 -0.46092501282691956
v 0.4004110097885132 0.6347000002861023 -0.46092501282691956
v 0.5854949951171875 0.5043900012969971 -0.5473219752311707
v 0.5136970281600952 0.4897179901599884 -0.5039420127868652
v 0.5043290257453918 0.6414369940757751 -0.46092501282691956
v 0.5999879837036133 0.6679149866104126 -0.5299749970436096
v 0.26082098484039307 0.29813599586486816 -0.5039420127868652
v 0.12501001358032227 0.3361319899559021 -0.46092501282691956
v 0.4809040129184723 0.3495659828186035 0.5360090136528015
v 0.4054670035839081 0.3048279881477356 0.5363249778747559
v 0.5962730050086975 0.3503589928150177 0.5361729860305786
v 0.5380820035934448 0.34995901584625244 0.5360900163650513
v 0.35071098804473877 0.26361000537872314 0.536067008972168
v 0.4809049963951111 0.3495659828186035 -0.5071889758110046
v 0.4054679870605469 0.3048290014266968 -0.5070909857749939
v 0.5962740182876587 0.3503589928150177 -0.507282018661499
v 0.538083016872406 0.34995901584625244 -0.5072349905967712
v 0.3508780002593994 0.2635689973831177 -0.5069800019264221
v 0.2608200013637543 0.29813599586486816 0.5330340266227722
v 0.26082098484039307 0.29813599586486816 -0.5039420127868652
v 0.3508780002593994 0.2635689973831177 -0.5069800019264221
v 0.35071098804473877 0.26361000537872314 0.536067008972168
v 0.12500900030136108 0.3361319899559021 0.49001699686050415
v 0.12501001358032227 0.3361319899559021 -0.46092501282691956
v -0.1906610131263733 0.33489900827407837 0.21597500145435333
v -0.1906610131263733 0.33489900827407837 -0.18688499927520752
v -0.02024000883102417 0.29280900955200195 -0.4231509864330292
v -0.02024102210998535 0.29280900955200195 0.452241986989975
v 0.6349810361862183 0.8185800313949585 0.5091609954833984
v 0.6349819898605347 0.8185809850692749 -0.48006999492645264
v 0.7091889977455139 1.0361859798431396 -0.209306001663208
v 0.7091889977455139 1.0361859798431396 0.2383970022201538
v 0.5854859948158264 0.5043330192565918 0.5727440118789673
v 0.5854949951171875 0.5043900012969971 -0.5473219752311707
v 0.5999879837036133 0.6679149866104126 -0.5299749970436096
v 0.5999870300292969 0.6679149866104126 0.5590659976005554
v 0.5962730050086975 0.3503589928150177 0.5361729860305786
v 0.5962740182876587 0.3503589928150177 -0.507282018661499
v 0.6188639998435974 0.15550899505615234 -0.511817991733551
v 0.6188629865646362 0.15550899505615234 0.5409089922904968
v 0.6188639998435974 0.15550899505615234 -0.511817991733551
v 0.6188629865646362 0.15550899505615234 0.5409089922904968
v 0.6188639998435974 0.15550899505615234 -0.511817991733551
v 0.6188629865646362 0.15550899505615234 0.5409089922904968
v 0.5136970281600952 0.4897179901599884 -0.5039420127868652
v 0.5043290257453918 0.6414369940757751 -0.46092501282691956
v 0.5141159892082214 0.7749379873275757 -0.4231509864330292
v 0.5619950294494629 0.9661389589309692 -0.18688499927520752
v 0.5619950294494629 0.9661389589309692 0.21597599983215332
v 0.5141149759292603 0.7749379873275757 0.452241986989975
v 0.5043280124664307 0.6414369940757751 0.49001699686050415
v 0.513696014881134 0.4897179901599884 0.5330340266227722
v 0.09712499380111694 -0.8443989753723145 0.43664899468421936
v -0.003648996353149414 -0.5084079504013062 0.5080509781837463
v -0.24931198358535767 -0.4674999713897705 0.39948299527168274
v -0.29512500762939453 -0.9313149452209473 0.3546200096607208
v 0.2118920087814331 -0.7773870229721069 0.3859719932079315
v 0.12468498945236206 -0.530068039894104 0.4644629955291748
v 0.28000199794769287 -0.7180390357971191 0.3005079925060272
v 0.33608299493789673 -0.6703599691390991 0.09354200214147568
v 0.33064597845077515 -0.5706310272216797 0.13737699389457703
v 0.2327359914779663 -0.5524090528488159 0.39948299527168274
v 0.27905499935150146 -0.6585739850997925 -0.23423300683498383
v 0.2327359914779663 -0.5524090528488159 -0.12472900003194809
v 0.27905499935150146 -0.6585739850997925 -0.23423300683498383
v 0.19771099090576172 -0.7266000509262085 -0.30464300513267517
v 0.11454400420188904 -0.5304039716720581 -0.18965399265289307
v 0.2327359914779663 -0.5524090528488159 -0.12472900003194809
v 0.03916800022125244 -0.8443989753723145 -0.2932190001010895
v -0.30430400371551514 -0.9313149452209473 -0.1733590066432953
v -0.24931097030639648 -0.4674999713897705 -0.12472900003194809
v -0.0036479830741882324 -0.5084079504013062 -0.23329700529575348
v -0.3550580143928528 -0.9445070028305054 0.09616100043058395
v -0.33794301748275757 -0.4461749792098999 0.13737699389457703
v -0.24931097030639648 -0.4674999713897705 -0.12472900003194809
v -0.30430400371551514 -0.9313149452209473 -0.1733590066432953
v -0.29512500762939453 -0.9313149452209473 0.3546200096607208
v -0.24931198358535767 -0.4674999713897705 0.39948299527168274
v 0.4744420051574707 0.2434369921684265 -0.18160299956798553
v 0.40463900566101074 0.1421090066432953 -0.1515440046787262
v 0.24491000175476074 0.2670789957046509 -0.24429400265216827
v 0.3679800033569336 0.38804900646209717 -0.2743520140647888
v 0.5349979996681213 0.2074669897556305 0.04231400042772293
v 0.47078999876976013 0.09033900499343872 0.07237300276756287
v 0.40463900566101074 0.1421090066432953 -0.1515440046787262
v 0.4744420051574707 0.2434369921684265 -0.18160299956798553
v 0.4744409918785095 0.2421570122241974 0.2662320137023926
v 0.40463900566101074 0.1421090066432953 0.29629001021385193
v 0.3679789900779724 0.38804900646209717 0.35898101329803467
v 0.24490898847579956 0.2670789957046509 0.3890399932861328
v 0.40463900566101074 0.1421090066432953 0.29629001021385193
v 0.4744409918785095 0.2421570122241974 0.2662320137023926
v 0.28603899478912354 0.5801489949226379 0.2662320137023926
v 0.08518901467323303 0.39205899834632874 0.29629001021385193
v 0.28603899478912354 0.5801489949226379 0.2662320137023926
v 0.25209900736808777 0.6597189903259277 0.04231400042772293
v 0.01902899146080017 0.4438289999961853 0.07237300276756287
v 0.08518901467323303 0.39205899834632874 0.29629001021385193
v 0.28603899478912354 0.5801489949226379 -0.18160299956798553
v 0.08518999814987183 0.39205899834632874 -0.1515440046787262
v 0.08518999814987183 0.39205899834632874 -0.1515440046787262
v 0.28603899478912354 0.5801489949226379 -0.18160299956798553
v 0.3241490125656128 -0.066864013671875 -0.07778300344944
v 0.15645098686218262 0.019015997648239136 -0.16421100497245789
v 0.39360499382019043 -0.10244101285934448 0.1308719962835312
v 0.3241490125656128 -0.066864013671875 -0.07778300344944
v 0.3241479992866516 -0.066864013671875 0.33952799439430237
v 0.15645000338554382 0.019015997648239136 0.42595499753952026
v 0.3241479992866516 -0.066864013671875 0.33952799439430237
v -0.01124197244644165 0.1049019992351532 0.33952799439430237
v -0.08070200681686401 0.14047899842262268 0.1308719962835312
v -0.01124197244644165 0.1049019992351532 0.33952799439430237
v -0.011241018772125244 0.1049019992351532 -0.07778300344944
v -0.011241018772125244 0.1049019992351532 -0.07778300344944
v 0.3154579997062683 -0.35806798934936523 -0.1575070023536682
v 0.17802700400352478 -0.3277689814567566 -0.22819900512695312
v 0.2657189965248108 -0.3453829884529114 -0.09603100270032883
v 0.3197230100631714 -0.35741597414016724 0.13737699389457703
v 0.42931100726127625 -0.38316500186920166 0.13737699389457703
v 0.23899900913238525 -0.33942997455596924 0.34697699546813965
v 0.3154579997062683 -0.35806798934936523 0.43226000666618347
v 0.040585994720458984 -0.29747098684310913 0.5544040203094482
v 0.18776899576187134 -0.3277689814567566 0.5030019879341125
v 0.048694998025894165 -0.2970380187034607 0.46746501326560974
v -0.16832900047302246 -0.24869400262832642 0.3707849979400635
v -0.23427599668502808 -0.23687398433685303 0.43226000666618347
v -0.25822198390960693 -0.22866398096084595 0.13737699389457703
v -0.34812700748443604 -0.2117769718170166 0.13737599551677704
v -0.16832798719406128 -0.24869400262832642 -0.09603100270032883
v -0.2342749834060669 -0.23687398433685303 -0.1575070023536682
v 0.04869601130485535 -0.2970380187034607 -0.1927119940519333
v 0.040587007999420166 -0.29747098684310913 -0.2796509861946106
v 0.3154579997062683 -0.35806798934936523 -0.1575070023536682
v 0.42931100726127625 -0.38316500186920166 0.13737699389457703
v 0.3154579997062683 -0.35806798934936523 0.43226000666618347
v 0.040585994720458984 -0.29747098684310913 0.5544040203094482
v 0.18776899576187134 -0.3277689814567566 0.5030019879341125
v -0.23427599668502808 -0.23687398433685303 0.43226000666618347
v -0.23427599668502808 -0.23687398433685303 0.43226000666618347
v -0.34812700748443604 -0.2117769718170166 0.13737599551677704
v -0.2342749834060669 -0.23687398433685303 -0.1575070023536682
v -0.2342749834060669 -0.23687398433685303 -0.1575070023536682
v 0.040587007999420166 -0.29747098684310913 -0.2796509861946106
v 0.17802700400352478 -0.3277689814567566 -0.22819900512695312
v 0.3154579997062683 -0.35806798934936523 -0.1575070023536682
v 0.28000199794769287 -0.7180390357971191 0.3005079925060272
v 0.2327359914779663 -0.5524090528488159 0.39948299527168274
v 0.3154579997062683 -0.35806798934936523 0.43226000666618347
v 0.15169799327850342 -0.8802679777145386 0.2502470016479492
v 0.23422399163246155 -0.8106750249862671 0.18657100200653076
v 0.16742900013923645 -0.8961750268936157 0.03515699878334999
v 0.1703450083732605 -0.8926899433135986 -0.14636200666427612
v 0.24840599298477173 -0.8447339534759521 -0.13771399855613708
v 0.2812420129776001 -0.7690019607543945 0.0479389987885952
v -0.035099029541015625 -1.3770060539245605 0.03274000063538551
v -0.10109800100326538 -1.3894619941711426 0.031543999910354614
v -0.06754100322723389 -1.3144919872283936 -0.21658200025558472
v -0.019861996173858643 -1.305487036705017 -0.2256460040807724
v 0.008810997009277344 -1.3288660049438477 0.2529340088367462
v -0.031580984592437744 -1.3402910232543945 0.2321610003709793
v -0.1086530089378357 -1.0382410287857056 0.4061869978904724
v -0.2858840227127075 -1.096215009689331 0.3376609981060028
v -0.019979000091552734 -1.095410943031311 0.2879059910774231
v -0.04522597789764404 -1.1236820220947266 0.046654000878334045
v 0.07212099432945251 -0.9943059682846069 0.03908500075340271
v 0.07764899730682373 -0.9566370248794556 0.27262699604034424
v -0.12350499629974365 -0.997715950012207 -0.26874101161956787
v -0.30375200510025024 -1.0546590089797974 -0.1914370059967041
v -0.33869898319244385 -1.1126840114593506 0.07720500230789185
v -0.30375200510025024 -1.0546590089797974 -0.1914370059967041
v -0.2858840227127075 -1.096215009689331 0.3376609981060028
v 0.06627398729324341 -0.9566199779510498 -0.15789400041103363
v -0.04062700271606445 -1.0710099935531616 -0.21500100195407867
v -0.019979000091552734 -1.095410943031311 0.2879059910774231
v 0.07764899730682373 -0.9566370248794556 0.27262699604034424
v 0.008810997009277344 -1.3288660049438477 0.2529340088367462
v -0.11495298147201538 -1.1613179445266724 0.3725619912147522
v -0.2021859884262085 -1.2588130235671997 0.32089900970458984
v -0.031580984592437744 -1.3402910232543945 0.2321610003709793
v 0.06627398729324341 -0.9566199779510498 -0.15789400041103363
v -0.04062700271606445 -1.0710099935531616 -0.21500100195407867
v 0.23422399163246155 -0.8106750249862671 0.18657100200653076
v 0.15169799327850342 -0.8802679777145386 0.2502470016479492
v 0.29493701457977295 -0.8968280553817749 -0.3504149913787842
v 0.3404970169067383 -0.846837043762207 -0.31623101234436035
v 0.30305400490760803 -0.8765490055084229 -0.2279449999332428
v 0.264706015586853 -0.9206509590148926 -0.21430599689483643
v -0.031580984592437744 -1.3402910232543945 0.2321610003709793
v -0.2021859884262085 -1.2588130235671997 0.32089900970458984
v -0.27125102281570435 -1.2776850461959839 0.05897599831223488
v -0.10109800100326538 -1.3894619941711426 0.031543999910354614
v -0.22311097383499146 -1.222324013710022 -0.20902100205421448
v -0.06754100322723389 -1.3144919872283936 -0.21658200025558472
v 0.0017499923706054688 -1.2114770412445068 0.26146399974823
v 0.1839900016784668 -0.9457470178604126 -0.22755999863147736
v 0.21226099133491516 -0.9297820329666138 -0.32879799604415894
v 0.3404970169067383 -0.846837043762207 -0.31623101234436035
v 0.29493701457977295 -0.8968280553817749 -0.3504149913787842
v 0.1839900016784668 -0.9457470178604126 -0.22755999863147736
v 0.21226099133491516 -0.9297820329666138 -0.32879799604415894
v -0.08508199453353882 -1.1772840023040771 -0.24893899261951447
v -0.22311097383499146 -1.222324013710022 -0.20902100205421448
v 0.0017499923706054688 -1.2114770412445068 0.26146399974823
v -0.02963697910308838 -1.2292850017547607 0.04152499884366989
v -0.016830027103424072 -1.1711100339889526 -0.2034280002117157
v 0.03594300150871277 -1.288993000984192 0.23747600615024567
v 0.010594993829727173 -1.3404510021209717 0.03448199853301048
v 0.02063000202178955 -1.2680350542068481 -0.19291499257087708
v -0.019861996173858643 -1.305487036705017 -0.2256460040807724
v -0.06754100322723389 -1.3144919872283936 -0.21658200025558472
v -0.016830027103424072 -1.1711100339889526 -0.2034280002117157
v 0.02063000202178955 -1.2680350542068481 -0.19291499257087708
v 0.02063000202178955 -1.2680350542068481 -0.19291499257087708
v 0.010594993829727173 -1.3404510021209717 0.03448199853301048
v 0.03594300150871277 -1.288993000984192 0.23747600615024567
v 0.03594300150871277 -1.288993000984192 0.23747600615024567
v -0.11684799194335938 0.030539005994796753 0.15207399427890778
v -0.18667000532150269 -0.0974770188331604 0.14481499791145325
v -0.10651302337646484 -0.122406005859375 0.36289599537849426
v -0.04619002342224121 0.0008299946784973145 0.3551979959011078
v -0.04619002342224121 0.0008299946784973145 0.3551979959011078
v -0.10651302337646484 -0.122406005859375 0.36289599537849426
v 0.08700600266456604 -0.18257898092269897 0.4532270133495331
v 0.12439098954200745 -0.07088702917098999 0.4393340051174164
v 0.29497599601745605 -0.1425989866256714 0.3551979959011078
v 0.26732900738716125 -0.2398110032081604 0.35113799571990967
v 0.36563098430633545 -0.1723080277442932 0.15207399427890778
v 0.29497599601745605 -0.1425989866256714 0.3551979959011078
v 0.26732900738716125 -0.2398110032081604 0.35113799571990967
v 0.3429570198059082 -0.263729989528656 0.14481499791145325
v 0.29497599601745605 -0.1425989866256714 -0.05104999989271164
v 0.2805269956588745 -0.24275100231170654 -0.07326500117778778
v 0.29497599601745605 -0.1425989866256714 -0.05104999989271164
v 0.2805269956588745 -0.24275100231170654 -0.07326500117778778
v 0.08700698614120483 -0.18257898092269897 -0.16359800100326538
v 0.12439200282096863 -0.07088702917098999 -0.13518700003623962
v -0.10651201009750366 -0.122406005859375 -0.07326500117778778
v -0.04618901014328003 0.0008299946784973145 -0.05104999989271164
v -0.04618901014328003 0.0008299946784973145 -0.05104999989271164
v -0.10651201009750366 -0.122406005859375 -0.07326500117778778
v -0.16832798719406128 -0.24869400262832642 -0.09603100270032883
v -0.25822198390960693 -0.22866398096084595 0.13737699389457703
v -0.16832900047302246 -0.24869400262832642 0.3707849979400635
v -0.16832900047302246 -0.24869400262832642 0.3707849979400635
v 0.048694998025894165 -0.2970380187034607 0.46746501326560974
v 0.23899900913238525 -0.33942997455596924 0.34697699546813965
v 0.23899900913238525 -0.33942997455596924 0.34697699546813965
v 0.3197230100631714 -0.35741597414016724 0.13737699389457703
v 0.2657189965248108 -0.3453829884529114 -0.09603100270032883
v 0.2657189965248108 -0.3453829884529114 -0.09603100270032883
v 0.04869601130485535 -0.2970380187034607 -0.1927119940519333
v -0.16832798719406128 -0.24869400262832642 -0.09603100270032883
v -0.1608700156211853 0.04959899187088013 0.1533769965171814
v -0.22612100839614868 -0.07604098320007324 0.14485900104045868
v -0.13488101959228516 -0.10656100511550903 0.39314699172973633
v -0.0766109824180603 0.01712900400161743 0.38854101300239563
v -0.0057610273361206055 -0.006700992584228516 0.48372700810432434
v -0.04711097478866577 -0.18261098861694336 0.4492590129375458
v 0.12943899631500244 -0.05995100736618042 0.5451409816741943
v 0.06718900799751282 -0.2460610270500183 0.5124499797821045
v 0.19268900156021118 -0.25787097215652466 0.4405660033226013
v 0.26367899775505066 -0.11725097894668579 0.47619199752807617
v 0.41154998540878296 -0.18606102466583252 0.15441200137138367
v 0.32881900668144226 -0.1503710150718689 0.38832199573516846
v 0.29940900206565857 -0.24834102392196655 0.3810890018939972
v 0.3870599865913391 -0.27320098876953125 0.14581599831581116
v 0.3292800188064575 -0.15412098169326782 -0.08256799727678299
v 0.3140999972820282 -0.2436010241508484 -0.10196699947118759
v 0.09053999185562134 -0.1724810004234314 -0.20623399317264557
v 0.12325999140739441 -0.07175099849700928 -0.18315500020980835
v 0.12325999140739441 -0.07175099849700928 -0.18315500020980835
v 0.09053999185562134 -0.1724810004234314 -0.20623399317264557
v -0.13352102041244507 -0.10357099771499634 -0.10314600169658661
v -0.08003997802734375 0.0133189857006073 -0.08269300311803818
v -0.12341099977493286 0.15425899624824524 0.13100099563598633
v -0.04462099075317383 0.10825899243354797 -0.10702800005674362
v -0.04023098945617676 0.11934900283813477 0.36969199776649475
v 0.07741901278495789 0.15084901452064514 0.40882501006126404
v 0.3007889986038208 0.030018985271453857 0.4085710048675537
v 0.20591899752616882 0.12504899501800537 0.4682239890098572
v 0.3564490079879761 -0.07342100143432617 0.3693389892578125
v 0.43501901626586914 -0.11935102939605713 0.13079999387264252
v 0.3502500057220459 -0.0868610143661499 -0.107355996966362
v 0.15119999647140503 0.00753900408744812 -0.20631299912929535
v 0.15119999647140503 0.00753900408744812 -0.20631299912929535
v -0.22612100839614868 -0.07604098320007324 0.14485900104045868
v -0.1529809832572937 -0.09748101234436035 0.14570899307727814
v -0.082131028175354 -0.12241101264953613 0.338470995426178
v -0.13488101959228516 -0.10656100511550903 0.39314699172973633
v -0.04711097478866577 -0.18261098861694336 0.4492590129375458
v -0.017230987548828125 -0.19252097606658936 0.3826789855957031
v 0.19268900156021118 -0.25787097215652466 0.4405660033226013
v 0.06718900799751282 -0.2460610270500183 0.5124499797821045
v 0.06954899430274963 -0.24929100275039673 0.4324679970741272
v 0.16611900925636292 -0.25474101305007935 0.3752799928188324
v 0.3870599865913391 -0.27320098876953125 0.14581599831581116
v 0.29940900206565857 -0.24834102392196655 0.3810890018939972
v 0.24830898642539978 -0.2398110032081604 0.3280780017375946
v 0.3151499927043915 -0.2637310028076172 0.14570899307727814
v 0.2599700093269348 -0.24275100231170654 -0.04705300182104111
v 0.3140999972820282 -0.2436010241508484 -0.10196699947118759
v 0.088919997215271 -0.18258100748062134 -0.12689800560474396
v 0.09053999185562134 -0.1724810004234314 -0.20623399317264557
v -0.13352102041244507 -0.10357099771499634 -0.10314600169658661
v -0.08213001489639282 -0.12241101264953613 -0.04705300182104111
v -0.12341099977493286 0.15425899624824524 0.13100099563598633
v -0.05931997299194336 0.14047899842262268 0.13338500261306763
v 0.002079010009765625 0.10489898920059204 -0.05104599893093109
v -0.04462099075317383 0.10825899243354797 -0.10702800005674362
v -0.04023098945617676 0.11934900283813477 0.36969199776649475
v 0.002079010009765625 0.10489898920059204 0.31781598925590515
v 0.07741901278495789 0.15084901452064514 0.40882501006126404
v 0.09292900562286377 0.1404390037059784 0.3469820022583008
v 0.19172900915145874 0.11917901039123535 0.3933829963207245
v 0.20591899752616882 0.12504899501800537 0.4682239890098572
v 0.3007889986038208 0.030018985271453857 0.4085710048675537
v 0.26135900616645813 0.03087899088859558 0.34706899523735046
v 0.43501901626586914 -0.11935102939605713 0.13079999387264252
v 0.3599199950695038 -0.10244101285934448 0.13338500261306763
v 0.2985289990901947 -0.06686097383499146 0.31781598925590515
v 0.3564490079879761 -0.07342100143432617 0.3693389892578125
v 0.3502500057220459 -0.0868610143661499 -0.107355996966362
v 0.2985289990901947 -0.06686097383499146 -0.05104599893093109
v 0.15119999647140503 0.00753900408744812 -0.20631299912929535
v 0.15029999613761902 0.019019007682800293 -0.12744000554084778

vn -0.21478599309921265 0.18231000006198883 0.9594950079917908
vn -0.13326199352741241 0.11245500296354294 0.9846799969673157
vn -0.05837300047278404 0.15709899365901947 0.9858559966087341
vn -0.09178700298070908 0.25225499272346497 0.9632980227470398
vn -0.593280017375946 0.1996690034866333 0.7798399925231934
vn -0.43528398871421814 0.010935000143945217 0.9002270102500916
vn 0.431335985660553 -0.017110999673604965 0.9020289778709412
vn 0.4068720042705536 0.10773900151252747 0.9071099758148193
vn -0.252157986164093 -0.5728369951248169 0.7799199819564819
vn -0.3363170027732849 -0.5799819827079773 0.7419649958610535
vn -0.7313550114631653 0.607761025428772 0.3094309866428375
vn -0.4622249901294708 0.3771609961986542 0.8025569915771484
vn -0.19843299686908722 0.5467020273208618 0.8134750127792358
vn -0.3131040036678314 0.8946220278739929 0.3187749981880188
vn -0.4541049897670746 0.8508039712905884 0.26442599296569824
vn -0.5386000275611877 0.5251790285110474 0.658860981464386
vn 0.48596999049186707 0.4348900020122528 0.758092999458313
vn 0.5994250178337097 0.7388359904289246 0.30791500210762024
vn -0.8952249884605408 -0.36990299820899963 0.2484849989414215
vn -0.41216298937797546 -0.6165500283241272 0.6708109974861145
vn -0.3131040036678314 0.8946220278739929 -0.3187749981880188
vn -0.7313539981842041 0.6077600121498108 -0.3094319999217987
vn 0.5994259715080261 0.7388349771499634 -0.30791398882865906
vn -0.4541049897670746 0.8508039712905884 -0.26442599296569824
vn -0.8952249884605408 -0.36990201473236084 -0.2484849989414215
vn -0.19843199849128723 0.5467000007629395 -0.8134769797325134
vn -0.46222299337387085 0.3771589994430542 -0.8025590181350708
vn 0.4859679937362671 0.4348909854888916 -0.758092999458313
vn -0.5386030077934265 0.5251749753952026 -0.658860981464386
vn -0.41216200590133667 -0.6165500283241272 -0.6708120107650757
vn -0.0586250014603138 0.15783600509166718 -0.9857239723205566
vn -0.1334560066461563 0.1123649999499321 -0.9846640229225159
vn -0.21478299796581268 0.18230700492858887 -0.959496021270752
vn -0.0917849987745285 0.252250999212265 -0.9632989764213562
vn 0.4143480062484741 -0.02376299910247326 -0.9098079800605774
vn -0.4644869863986969 0.001142999972216785 -0.885578989982605
vn -0.598097026348114 0.20486000180244446 -0.7747979760169983
vn 0.4093729853630066 0.1159219965338707 -0.9049729704856873
vn -0.3362550139427185 -0.5800349712371826 -0.7419520020484924
vn -0.2521530091762543 -0.5728390216827393 -0.7799199819564819
vn -0.006258999928832054 0.02146800048649311 0.999750018119812
vn -0.012745000422000885 0.01882299967110157 0.9997419714927673
vn 0.7030230164527893 0.05537300184369087 0.709007978439331
vn -0.0015780000248923898 0.02285199984908104 0.9997379779815674
vn -0.2724840044975281 -0.6462569832801819 0.7128139734268188
vn -0.007433000020682812 0.02058899961411953 -0.9997599720954895
vn -0.013419000431895256 0.017550000920891762 -0.9997559785842896
vn 0.7034569978713989 0.053203001618385315 -0.7087429761886597
vn -0.0009660000214353204 0.023274000734090805 -0.9997289776802063
vn -0.271806001663208 -0.645950973033905 -0.7133510112762451
vn -0.3363170027732849 -0.5799819827079773 0.7419649958610535
vn -0.3362550139427185 -0.5800349712371826 -0.7419520020484924
vn -0.271806001663208 -0.645950973033905 -0.7133510112762451
vn -0.2724840044975281 -0.6462569832801819 0.7128139734268188
vn -0.252157986164093 -0.5728369951248169 0.7799199819564819
vn -0.2521530091762543 -0.5728390216827393 -0.7799199819564819
vn -0.8952249884605408 -0.36990299820899963 0.2484849989414215
vn -0.8952249884605408 -0.36990201473236084 -0.2484849989414215
vn -0.41216200590133667 -0.6165500283241272 -0.6708120107650757
vn -0.41216298937797546 -0.6165500283241272 0.6708109974861145
vn 0.48596999049186707 0.4348900020122528 0.758092999458313
vn 0.4859679937362671 0.4348909854888916 -0.758092999458313
vn 0.5994259715080261 0.7388349771499634 -0.30791398882865906
vn 0.5994250178337097 0.7388359904289246 0.30791500210762024
vn 0.431335985660553 -0.017110999673604965 0.9020289778709412
vn 0.4143480062484741 -0.02376299910247326 -0.9098079800605774
vn 0.4093729853630066 0.1159219965338707 -0.9049729704856873
vn 0.4068720042705536 0.10773900151252747 0.9071099758148193
vn 0.7030230164527893 0.05537300184369087 0.709007978439331
vn 0.7034569978713989 0.053203001618385315 -0.7087429761886597
vn 0.50068598985672 -0.6555539965629578 -0.5652980208396912
vn 0.5007449984550476 -0.6552770137786865 0.5655670166015625
vn 0.50068598985672 -0.6555539965629578 -0.5652980208396912
vn 0.5007449984550476 -0.6552770137786865 0.5655670166015625
vn 0.50068598985672 -0.6555539965629578 -0.5652980208396912
vn 0.5007449984550476 -0.6552770137786865 0.5655670166015625
vn -0.008151999674737453 0.14419600367546082 -0.989516019821167
vn -0.017413999885320663 0.2729560136795044 -0.9618690013885498
vn -0.03453899919986725 0.5789399743080139 -0.8146380186080933
vn -0.051203999668359756 0.9497269988059998 -0.3088630139827728
vn -0.051203999668359756 0.9497269988059998 0.30886200070381165
vn -0.034540001302957535 0.5789430141448975 0.8146359920501709
vn -0.0174150001257658 0.27296000719070435 0.9618679881095886
vn -0.008183999918401241 0.14320699870586395 0.9896590113639832
vn 0.33250001072883606 -0.43801501393318176 0.8352169990539551
vn -0.13035699725151062 -0.22264400124549866 0.9661449790000916
vn -0.723986029624939 -0.05778200179338455 0.6873900294303894
vn -0.7188609838485718 -0.040674999356269836 0.6939629912376404
vn 0.6906629800796509 -0.42507100105285645 0.5850639939308167
vn 0.37451300024986267 -0.19702599942684174 0.906046986579895
vn 0.8989800214767456 -0.29003000259399414 0.3282029926776886
vn 0.9865859746932983 -0.1585959941148758 -0.0386819988489151
vn 0.9793069958686829 -0.2005150020122528 0.02742299996316433
vn 0.7040969729423523 -0.22472000122070312 0.6736090183258057
vn 0.7676519751548767 0.43766000866889954 -0.46814998984336853
vn 0.806423008441925 0.16503000259399414 -0.5678439736366272
vn 0.7676519751548767 0.43766000866889954 -0.46814998984336853
vn 0.07015900313854218 0.34389498829841614 -0.9363840222358704
vn 0.4056600034236908 0.19896599650382996 -0.8921059966087341
vn 0.806423008441925 0.16503000259399414 -0.5678439736366272
vn -0.18888799846172333 -0.20322200655937195 -0.9607399702072144
vn -0.7928509712219238 0.12010499835014343 -0.5974630117416382
vn -0.7554270029067993 0.033376000821590424 -0.6543819904327393
vn -0.12721200287342072 0.03340800106525421 -0.9913129806518555
vn -0.9998610019683838 -0.01508800033479929 0.007094999775290489
vn -0.9998630285263062 0.016551999375224113 9.999999747378752e-05
vn -0.7554270029067993 0.033376000821590424 -0.6543819904327393
vn -0.7928509712219238 0.12010499835014343 -0.5974630117416382
vn -0.7188609838485718 -0.040674999356269836 0.6939629912376404
vn -0.723986029624939 -0.05778200179338455 0.6873900294303894
vn 0.46172600984573364 -0.5340679883956909 -0.7082229852676392
vn 0.5315849781036377 -0.4968250095844269 -0.6859899759292603
vn -0.1782120019197464 -0.15534499287605286 -0.9716519713401794
vn -0.15088500082492828 -0.05632900074124336 -0.9869449734687805
vn 0.8586369752883911 -0.5083879828453064 -0.06545300036668777
vn 0.8984709978103638 -0.4385159909725189 -0.0213019996881485
vn 0.5315849781036377 -0.4968250095844269 -0.6859899759292603
vn 0.46172600984573364 -0.5340679883956909 -0.7082229852676392
vn 0.7316840291023254 -0.30787500739097595 0.6081550121307373
vn 0.7061690092086792 -0.22795699536800385 0.6703439950942993
vn 0.09026999771595001 0.16200099885463715 0.982653021812439
vn 0.04046500101685524 0.15175500512123108 0.9875900149345398
vn 0.7061690092086792 -0.22795699536800385 0.6703439950942993
vn 0.7316840291023254 -0.30787500739097595 0.6081550121307373
vn -0.48367398977279663 0.615900993347168 0.6218720078468323
vn -0.5883280038833618 0.4732140004634857 0.6556980013847351
vn -0.48367398977279663 0.615900993347168 0.6218720078468323
vn -0.683122992515564 0.7300099730491638 -0.02071099914610386
vn -0.8413500189781189 0.5404210090637207 -0.008673000149428844
vn -0.5883280038833618 0.4732140004634857 0.6556980013847351
vn -0.5803580284118652 0.5195059776306152 -0.6271359920501709
vn -0.6946269869804382 0.32086798548698425 -0.6438459753990173
vn -0.6946269869804382 0.32086798548698425 -0.6438459753990173
vn -0.5803580284118652 0.5195059776306152 -0.6271359920501709
vn 0.5873960256576538 -0.45812100172042847 -0.6671519875526428
vn -0.13485600054264069 -0.26576900482177734 -0.9545580148696899
vn 0.9265990257263184 -0.37600600719451904 -0.005822999868541956
vn 0.5873960256576538 -0.45812100172042847 -0.6671519875526428
vn 0.7320759892463684 -0.14297999441623688 0.6660500168800354
vn 0.06496699899435043 0.13173100352287292 0.9891539812088013
vn 0.7320759892463684 -0.14297999441623688 0.6660500168800354
vn -0.6549339890480042 0.3244380056858063 0.6824960112571716
vn -0.9507759809494019 0.3098770081996918 0.0008520000264979899
vn -0.6549339890480042 0.3244380056858063 0.6824960112571716
vn -0.75689297914505 0.07940000295639038 -0.6486979722976685
vn -0.75689297914505 0.07940000295639038 -0.6486979722976685
vn 0.7274670004844666 0.3865959942340851 -0.5668650269508362
vn 0.44443899393081665 0.5250200033187866 -0.725829005241394
vn 0.5606099963188171 0.7571820020675659 -0.33524900674819946
vn 0.7844840288162231 0.6197519898414612 0.02219800092279911
vn 0.9441260099411011 0.329584002494812 0.00040099999750964344
vn 0.6410130262374878 0.643638014793396 0.4181300103664398
vn 0.7365909814834595 0.3866550028324127 0.5549160242080688
vn 0.08166400343179703 0.5374680161476135 0.8393200039863586
vn 0.44739899039268494 0.5290259718894958 0.7210860252380371
vn 0.19883500039577484 0.8245019912719727 0.529774010181427
vn -0.19755899906158447 0.9128940105438232 0.35720500349998474
vn -0.4820150136947632 0.656029999256134 0.5807639956474304
vn -0.3126559853553772 0.9498519897460938 -0.005348999984562397
vn -0.7202879786491394 0.6936749815940857 -0.00016599999798927456
vn -0.17027199268341064 0.922523021697998 -0.3463500142097473
vn -0.4820620119571686 0.6561350226402283 -0.5806059837341309
vn 0.17609399557113647 0.8407599925994873 -0.5119709968566895
vn 0.09218599647283554 0.5353590250015259 -0.8395789861679077
vn 0.7274670004844666 0.3865959942340851 -0.5668650269508362
vn 0.9441260099411011 0.329584002494812 0.00040099999750964344
vn 0.7365909814834595 0.3866550028324127 0.5549160242080688
vn 0.08166400343179703 0.5374680161476135 0.8393200039863586
vn 0.44739899039268494 0.5290259718894958 0.7210860252380371
vn -0.4820150136947632 0.656029999256134 0.5807639956474304
vn -0.4820150136947632 0.656029999256134 0.5807639956474304
vn -0.7202879786491394 0.6936749815940857 -0.00016599999798927456
vn -0.4820620119571686 0.6561350226402283 -0.5806059837341309
vn -0.4820620119571686 0.6561350226402283 -0.5806059837341309
vn 0.09218599647283554 0.5353590250015259 -0.8395789861679077
vn 0.44443899393081665 0.5250200033187866 -0.725829005241394
vn 0.7274670004844666 0.3865959942340851 -0.5668650269508362
vn 0.8989800214767456 -0.29003000259399414 0.3282029926776886
vn 0.7040969729423523 -0.22472000122070312 0.6736090183258057
vn 0.7365909814834595 0.3866550028324127 0.5549160242080688
vn 0.7031720280647278 -0.6837090253829956 0.19516800343990326
vn 0.7618550062179565 -0.6362199783325195 0.12165699899196625
vn 0.6922609806060791 -0.7204399704933167 0.04171700030565262
vn 0.44322898983955383 -0.8383820056915283 0.3172770142555237
vn 0.8246399760246277 -0.475288987159729 0.3067069947719574
vn 0.8518900275230408 -0.5235750079154968 0.01235399954020977
vn 0.3927859961986542 -0.9178060293197632 -0.05788499861955643
vn -0.22267000377178192 -0.9748460054397583 -0.009639999829232693
vn -0.17691199481487274 -0.7358919978141785 -0.6535789966583252
vn 0.4161570072174072 -0.546317994594574 -0.726876974105835
vn 0.5155540108680725 -0.6545640230178833 0.552947998046875
vn -0.07535800337791443 -0.9350079894065857 0.34652599692344666
vn 0.13086099922657013 -0.2350199967622757 0.9631410241127014
vn -0.7338380217552185 -0.2621600031852722 0.6266999840736389
vn 0.8603469729423523 -0.2687149941921234 0.43312400579452515
vn 0.9710239768028259 -0.23323999345302582 -0.05208100005984306
vn 0.7377550005912781 -0.6735429763793945 -0.045357998460531235
vn 0.7307360172271729 -0.6254780292510986 0.2734990119934082
vn -0.045712001621723175 -0.016589999198913574 -0.9988170266151428
vn -0.7986239790916443 -0.10537499934434891 -0.5925340056419373
vn -0.9663259983062744 -0.25703901052474976 0.012079999782145023
vn -0.7986239790916443 -0.10537499934434891 -0.5925340056419373
vn -0.7338380217552185 -0.2621600031852722 0.6266999840736389
vn 0.5236369967460632 -0.7922710180282593 -0.31322699785232544
vn 0.7780420184135437 -0.10302799940109253 -0.6197069883346558
vn 0.8603469729423523 -0.2687149941921234 0.43312400579452515
vn 0.7307360172271729 -0.6254780292510986 0.2734990119934082
vn 0.5155540108680725 -0.6545640230178833 0.552947998046875
vn 0.21696099638938904 -0.28547200560569763 0.9335060119628906
vn -0.44452598690986633 -0.6502460241317749 0.6160979866981506
vn -0.07535800337791443 -0.9350079894065857 0.34652599692344666
vn 0.5236369967460632 -0.7922710180282593 -0.31322699785232544
vn 0.7780420184135437 -0.10302799940109253 -0.6197069883346558
vn 0.7618550062179565 -0.6362199783325195 0.12165699899196625
vn 0.7031720280647278 -0.6837090253829956 0.19516800343990326
vn 0.42253801226615906 -0.44682401418685913 -0.78854900598526
vn 0.9275799989700317 -0.006072999909520149 -0.37357398867607117
vn 0.8880460262298584 -0.27404800057411194 0.3691500127315521
vn 0.5124469995498657 -0.78746098279953 0.34249600768089294
vn -0.07535800337791443 -0.9350079894065857 0.34652599692344666
vn -0.44452598690986633 -0.6502460241317749 0.6160979866981506
vn -0.7605469822883606 -0.6491649746894836 0.012357000261545181
vn -0.22267000377178192 -0.9748460054397583 -0.009639999829232693
vn -0.5942190289497375 -0.4691300094127655 -0.653315007686615
vn -0.17691199481487274 -0.7358919978141785 -0.6535789966583252
vn 0.9190260171890259 0.15157000720500946 0.36389198899269104
vn 0.02487099915742874 -0.9984179735183716 0.05043800175189972
vn -0.10009799897670746 -0.7090479731559753 -0.6980190277099609
vn 0.9275799989700317 -0.006072999909520149 -0.37357398867607117
vn 0.42253801226615906 -0.44682401418685913 -0.78854900598526
vn 0.02487099915742874 -0.9984179735183716 0.05043800175189972
vn -0.10009799897670746 -0.7090479731559753 -0.6980190277099609
vn 0.1578350067138672 -0.08309900015592575 -0.9839630126953125
vn -0.5942190289497375 -0.4691300094127655 -0.653315007686615
vn 0.9190260171890259 0.15157000720500946 0.36389198899269104
vn 0.9644219875335693 0.262798011302948 -0.028783999383449554
vn 0.8744860291481018 0.21185700595378876 -0.43633800745010376
vn 0.9485440254211426 -0.025769999250769615 0.31559500098228455
vn 0.9307979941368103 -0.35857298970222473 -0.07099899649620056
vn 0.9355530142784119 -0.07593300193548203 -0.34492701292037964
vn 0.4161570072174072 -0.546317994594574 -0.726876974105835
vn -0.17691199481487274 -0.7358919978141785 -0.6535789966583252
vn 0.8744860291481018 0.21185700595378876 -0.43633800745010376
vn 0.9355530142784119 -0.07593300193548203 -0.34492701292037964
vn 0.9355530142784119 -0.07593300193548203 -0.34492701292037964
vn 0.9307979941368103 -0.35857298970222473 -0.07099899649620056
vn 0.9485440254211426 -0.025769999250769615 0.31559500098228455
vn 0.9485440254211426 -0.025769999250769615 0.31559500098228455
vn -0.9164000153541565 0.39940300583839417 0.02622300013899803
vn -0.8781960010528564 0.47829800844192505 0.0018149999668821692
vn -0.6394590139389038 0.35614100098609924 0.6813629865646362
vn -0.6345919966697693 0.3378719985485077 0.6950790286064148
vn -0.6345919966697693 0.3378719985485077 0.6950790286064148
vn -0.6394590139389038 0.35614100098609924 0.6813629865646362
vn 0.06670799851417542 0.0817049965262413 0.9944220185279846
vn 0.04572900012135506 0.11905000358819962 0.9918349981307983
vn 0.7059550285339355 -0.17205600440502167 0.6870409846305847
vn 0.7158730030059814 -0.22976799309253693 0.6593419909477234
vn 0.952800989151001 -0.3010199964046478 0.03946100175380707
vn 0.7059550285339355 -0.17205600440502167 0.6870409846305847
vn 0.7158730030059814 -0.22976799309253693 0.6593419909477234
vn 0.9718289971351624 -0.23405300080776215 0.02769399993121624
vn 0.719560980796814 -0.23369200527668 -0.6539260149002075
vn 0.7773889899253845 0.01742600090801716 -0.6287789940834045
vn 0.719560980796814 -0.23369200527668 -0.6539260149002075
vn 0.7773889899253845 0.01742600090801716 -0.6287789940834045
vn 0.07169999927282333 0.23156200349330902 -0.9701740145683289
vn -0.023778999224305153 -0.02519400045275688 -0.9994000196456909
vn -0.6093590259552002 0.4224640130996704 -0.6709740161895752
vn -0.7020230293273926 0.2610499858856201 -0.6625840067863464
vn -0.7020230293273926 0.2610499858856201 -0.6625840067863464
vn -0.6093590259552002 0.4224640130996704 -0.6709740161895752
vn -0.17027199268341064 0.922523021697998 -0.3463500142097473
vn -0.3126559853553772 0.9498519897460938 -0.005348999984562397
vn -0.19755899906158447 0.9128940105438232 0.35720500349998474
vn -0.19755899906158447 0.9128940105438232 0.35720500349998474
vn 0.19883500039577484 0.8245019912719727 0.529774010181427
vn 0.6410130262374878 0.643638014793396 0.4181300103664398
vn 0.6410130262374878 0.643638014793396 0.4181300103664398
vn 0.7844840288162231 0.6197519898414612 0.02219800092279911
vn 0.5606099963188171 0.7571820020675659 -0.33524900674819946
vn 0.5606099963188171 0.7571820020675659 -0.33524900674819946
vn 0.17609399557113647 0.8407599925994873 -0.5119709968566895
vn -0.17027199268341064 0.922523021697998 -0.3463500142097473
vn -0.9148139953613281 0.4025599956512451 0.032590001821517944
vn -0.9541710019111633 -0.2990950047969818 -0.010014000348746777
vn -0.8608059883117676 -0.31561100482940674 0.3992539942264557
vn -0.7803620100021362 0.37836501002311707 0.49786999821662903
vn -0.48402899503707886 0.275081992149353 0.8306900262832642
vn -0.6895769834518433 -0.5622889995574951 0.45641499757766724
vn 0.059696998447179794 0.06949300318956375 0.9957950115203857
vn -0.19286799430847168 -0.6759089827537537 0.7113010287284851
vn 0.24956199526786804 -0.8521559834480286 0.4599440097808838
vn 0.5611900091171265 -0.11933299899101257 0.819038987159729
vn 0.9545850157737732 -0.29393601417541504 0.04867300018668175
vn 0.8270360231399536 -0.23097099363803864 0.5125070214271545
vn 0.4981679916381836 -0.7774810194969177 0.38386601209640503
vn 0.6140149831771851 -0.7892770171165466 -0.005313000176101923
vn 0.7267289757728577 -0.2272839993238449 -0.6482340097427368
vn 0.47563299536705017 -0.6357200145721436 -0.6079750061035156
vn -0.1437239944934845 -0.4770050048828125 -0.8670700192451477
vn -0.022399000823497772 -0.022393999621272087 -0.9994980096817017
vn -0.022399000823497772 -0.022393999621272087 -0.9994980096817017
vn -0.1437239944934845 -0.4770050048828125 -0.8670700192451477
vn -0.7409290075302124 -0.33206799626350403 -0.5837429761886597
vn -0.7029299736022949 0.26488301157951355 -0.6600959897041321
vn -0.5448529720306396 0.8378069996833801 -0.03484100103378296
vn -0.35203099250793457 0.6839780211448669 -0.6389430165290833
vn -0.4894450008869171 0.8025130033493042 0.34119999408721924
vn -0.15958599746227264 0.9344580173492432 0.3183099925518036
vn 0.8454909920692444 0.49828600883483887 0.19197799265384674
vn 0.3928450047969818 0.7359219789505005 0.5514460206031799
vn 0.9126290082931519 0.33612099289894104 0.23266099393367767
vn 0.9312970042228699 0.358583003282547 -0.06406500190496445
vn 0.741536021232605 0.29290100932121277 -0.603600025177002
vn 0.2059680074453354 0.43594199419021606 -0.8760889768600464
vn 0.2059680074453354 0.43594199419021606 -0.8760889768600464
vn -0.9541710019111633 -0.2990950047969818 -0.010014000348746777
vn -0.2812969982624054 -0.959621012210846 -0.00020900000527035445
vn -0.43558600544929504 -0.8912670016288757 -0.12612900137901306
vn -0.8608059883117676 -0.31561100482940674 0.3992539942264557
vn -0.6895769834518433 -0.5622889995574951 0.45641499757766724
vn -0.586808979511261 -0.7966780066490173 -0.14477099478244781
vn 0.24956199526786804 -0.8521559834480286 0.4599440097808838
vn -0.19286799430847168 -0.6759089827537537 0.7113010287284851
vn -0.28299400210380554 -0.9591100215911865 0.004641000181436539
vn 0.036511000245809555 -0.9973660111427307 -0.06267499923706055
vn 0.6140149831771851 -0.7892770171165466 -0.005313000176101923
vn 0.4981679916381836 -0.7774810194969177 0.38386601209640503
vn -0.07993599772453308 -0.9957370162010193 -0.04602700099349022
vn -0.13057200610637665 -0.9914129972457886 0.0071749999187886715
vn -0.16854499280452728 -0.9745500087738037 -0.1477999985218048
vn 0.47563299536705017 -0.6357200145721436 -0.6079750061035156
vn -0.29347899556159973 -0.947829008102417 -0.12446299940347672
vn -0.1437239944934845 -0.4770050048828125 -0.8670700192451477
vn -0.7409290075302124 -0.33206799626350403 -0.5837429761886597
vn -0.32798099517822266 -0.9446269869804382 -0.010378999635577202
vn -0.5448529720306396 0.8378069996833801 -0.03484100103378296
vn 0.2100680023431778 0.9776790142059326 0.003788999980315566
vn 0.2901650071144104 0.9388290047645569 -0.185481995344162
vn -0.35203099250793457 0.6839780211448669 -0.6389430165290833
vn -0.4894450008869171 0.8025130033493042 0.34119999408721924
vn 0.0947360023856163 0.9851599931716919 -0.14312300086021423
vn -0.15958599746227264 0.9344580173492432 0.3183099925518036
vn -0.043907999992370605 0.9833149909973145 -0.1765339970588684
vn 0.4419960081577301 0.8790680170059204 -0.17855000495910645
vn 0.3928450047969818 0.7359219789505005 0.5514460206031799
vn 0.8454909920692444 0.49828600883483887 0.19197799265384674
vn 0.69759202003479 0.5660039782524109 -0.4393230080604553
vn 0.9312970042228699 0.358583003282547 -0.06406500190496445
vn 0.21955199539661407 0.9755949974060059 -0.0033990000374615192
vn 0.45495301485061646 0.8177970051765442 -0.3524569869041443
vn 0.9126290082931519 0.33612099289894104 0.23266099393367767
vn 0.741536021232605 0.29290100932121277 -0.603600025177002
vn 0.38521501421928406 0.9226239919662476 0.01934400014579296
vn 0.2059680074453354 0.43594199419021606 -0.8760889768600464
vn 0.46875500679016113 0.8731840252876282 -0.13348500430583954

vt 0.6506800055503845 0.3374969959259033
vt 0.6647869944572449 0.34350502490997314
vt 0.6663810014724731 0.38318902254104614
vt 0.6520050168037415 0.39436399936676025
vt 0.6534379720687866 0.4164379835128784
vt 0.6681780219078064 0.3991219997406006
vt 0.6700080037117004 0.4153370261192322
vt 0.6548960208892822 0.4389039874076843
vt 0.6551650166511536 0.28900402784347534
vt 0.6676340103149414 0.311830997467041
vt 0.6089680194854736 0.3270859718322754
vt 0.6382920145988464 0.33222097158432007
vt 0.6393809914588928 0.4041770100593567
vt 0.6085119843482971 0.41531097888946533
vt 0.6070560216903687 0.45022302865982056
vt 0.6404939889907837 0.4316449761390686
vt 0.6416260004043579 0.45959997177124023
vt 0.6055759787559509 0.48575401306152344
vt 0.6101099848747253 0.24994802474975586
vt 0.6422960162162781 0.272799015045166
vt 0.5643720030784607 0.41227102279663086
vt 0.5679090023040771 0.32503801584243774
vt 0.5649799704551697 0.4860590100288391
vt 0.5646740198135376 0.4488409757614136
vt 0.563601016998291 0.24923598766326904
vt 0.5362970232963562 0.3981289863586426
vt 0.5373899936676025 0.32823997735977173
vt 0.530800998210907 0.45257699489593506
vt 0.5335729718208313 0.4251139760017395
vt 0.5328959822654724 0.2693520188331604
vt 0.5099570155143738 0.37649697065353394
vt 0.5098580121994019 0.3338660001754761
vt 0.5245180130004883 0.33087098598480225
vt 0.523980975151062 0.3880149722099304
vt 0.5040209889411926 0.4079599976539612
vt 0.5070149898529053 0.3920900225639343
vt 0.5211549997329712 0.40967297554016113
vt 0.5182790160179138 0.43171602487564087
vt 0.5071290135383606 0.30314600467681885
vt 0.5208489894866943 0.28515297174453735
vt 0.6773200035095215 0.37259602546691895
vt 0.6775540113449097 0.3483690023422241
vt 0.6801069974899292 0.391340970993042
vt 0.6787009835243225 0.38188600540161133
vt 0.6796500086784363 0.3258249759674072
vt 0.4979499876499176 0.3643530011177063
vt 0.49435099959373474 0.3401079773902893
vt 0.49418601393699646 0.38212400674819946
vt 0.496084988117218 0.3731600046157837
vt 0.49698498845100403 0.32007598876953125
vt 0.5986310243606567 0.008898019790649414
vt 0.5986310243606567 0.07178598642349243
vt 0.5950120091438293 0.07196998596191406
vt 0.5950180292129517 0.008714020252227783
vt 0.6028670072555542 0.01150602102279663
vt 0.6028670072555542 0.06917697191238403
vt 0.6118999719619751 0.028126001358032227
vt 0.6118999719619751 0.05255800485610962
vt 0.6065859794616699 0.06688600778579712
vt 0.6065859794616699 0.013796985149383545
vt 0.5699989795684814 0.06693702936172485
vt 0.5699989795684814 0.01384800672531128
vt 0.5640869736671448 0.02817600965499878
vt 0.5640869736671448 0.05260801315307617
vt 0.5788469910621643 0.07183700799942017
vt 0.5788459777832031 0.008948028087615967
vt 0.5741350054740906 0.01155698299407959
vt 0.5741360187530518 0.06922799348831177
vt 0.5830069780349731 0.07202702760696411
vt 0.5832729935646057 0.008745014667510986
vt 0.48083099722862244 0.3470379710197449
vt 0.5892490148544312 0.008419990539550781
vt 0.5892490148544312 0.07226300239562988
vt 0.6953409910202026 0.35514599084854126
vt 0.5892829895019531 0.008469998836517334
vt 0.5892829895019531 0.07231402397155762
vt 0.5070149898529053 0.3920900225639343
vt 0.5211549997329712 0.40967297554016113
vt 0.5335729718208313 0.4251139760017395
vt 0.5646740198135376 0.4488409757614136
vt 0.6070560216903687 0.45022302865982056
vt 0.6404939889907837 0.4316449761390686
vt 0.6534379720687866 0.4164379835128784
vt 0.6681780219078064 0.3991219997406006
vt 0.7244920134544373 0.11689001321792603
vt 0.750935971736908 0.12741601467132568
vt 0.7503719925880432 0.15551000833511353
vt 0.7148020267486572 0.15937602519989014
vt 0.7285749912261963 0.10434502363204956
vt 0.7499619722366333 0.1134520173072815
vt 0.7307050228118896 0.07775801420211792
vt 0.7333099842071533 0.053116023540496826
vt 0.7467619776725769 0.055665016174316406
vt 0.7469819784164429 0.08448201417922974
vt 0.731224000453949 0.01630300283432007
vt 0.74617600440979 0.028604984283447266
vt 0.7296109795570374 0.3062400221824646
vt 0.7238119840621948 0.2965480089187622
vt 0.7454050183296204 0.288769006729126
vt 0.7463489770889282 0.3031730055809021
vt 0.7176520228385925 0.2788730263710022
vt 0.7146409749984741 0.23555999994277954
vt 0.7478489875793457 0.250544011592865
vt 0.7456539869308472 0.27695000171661377
vt 0.7144359946250916 0.19534099102020264
vt 0.7534559965133667 0.19784200191497803
vt 0.7509880065917969 0.2254199981689453
vt 0.7131119966506958 0.22702300548553467
vt 0.7156360149383545 0.16520798206329346
vt 0.7530080080032349 0.169871985912323
vt 0.8792359828948975 0.930077001452446
vt 0.8594980239868164 0.930077001452446
vt 0.8678029775619507 0.8981970027089119
vt 0.8792359828948975 0.9044940024614334
vt 0.8792359828948975 0.964623000472784
vt 0.8463889956474304 0.9653269983828068
vt 0.8594989776611328 0.930077001452446
vt 0.8792359828948975 0.930077001452446
vt 0.8792359828948975 0.9893549997359514
vt 0.8411830067634583 0.9893549997359514
vt 0.8792359828948975 0.7757450044155121
vt 0.8534740209579468 0.7812449932098389
vt 0.8515419960021973 0.7517019957304001
vt 0.8792359828948975 0.7517019957304001
vt 0.8792359828948975 0.8112159967422485
vt 0.861270010471344 0.8112159967422485
vt 0.8792359828948975 0.8112159967422485
vt 0.8792359828948975 0.8375779986381531
vt 0.8669220209121704 0.8386179953813553
vt 0.861270010471344 0.8112159967422485
vt 0.8792359828948975 0.8704610019922256
vt 0.871724009513855 0.8704610019922256
vt 0.8717210292816162 0.8704610019922256
vt 0.8792359828948975 0.8704610019922256
vt 0.8166360259056091 0.930077001452446
vt 0.8212820291519165 0.8988310024142265
vt 0.8093019723892212 0.9658939987421036
vt 0.8166360259056091 0.930077001452446
vt 0.8063889741897583 0.9893549997359514
vt 0.8132650256156921 0.7801109999418259
vt 0.8121849894523621 0.7517019957304001
vt 0.8176270127296448 0.8112159967422485
vt 0.8207889795303345 0.8387809991836548
vt 0.8176270127296448 0.8112159967422485
vt 0.8234760165214539 0.8704610019922256
vt 0.8234739899635315 0.8704610019922256
vt 0.662663996219635 0.04027199745178223
vt 0.6635130047798157 0.059327006340026855
vt 0.6560990214347839 0.04535001516342163
vt 0.6461219787597656 0.026642978191375732
vt 0.6486319899559021 0.013925015926361084
vt 0.6324549913406372 0.026624023914337158
vt 0.6294000148773193 0.013925015926361084
vt 0.6162319779396057 0.040270984172821045
vt 0.6224830150604248 0.025592029094696045
vt 0.623104989528656 0.04530400037765503
vt 0.6235510110855103 0.07173997163772583
vt 0.6168460249900818 0.07752799987792969
vt 0.6335279941558838 0.09044498205184937
vt 0.6308770179748535 0.10387098789215088
vt 0.6471949815750122 0.0904650092124939
vt 0.6501110196113586 0.10387098789215088
vt 0.6565449833869934 0.07178497314453125
vt 0.6632779836654663 0.07752799987792969
vt 0.7559869885444641 0.02233898639678955
vt 0.7569209933280945 0.05560898780822754
vt 0.7567440271377563 0.08969700336456299
vt 0.7607030272483826 0.12629097700119019
vt 0.7594019770622253 0.10996800661087036
vt 0.7602159976959229 0.15937602519989014
vt 0.7603930234909058 0.16520798206329346
vt 0.7607430219650269 0.199334979057312
vt 0.7580119967460632 0.23294401168823242
vt 0.7579860091209412 0.24617600440979004
vt 0.7569299936294556 0.27691102027893066
vt 0.7562260031700134 0.29159098863601685
vt 0.7565289735794067 0.30877697467803955
vt 0.7313129901885986 0.09262198209762573
vt 0.7483500242233276 0.10024702548980713
vt 0.7578639984130859 0.09436500072479248
vt 0.719215989112854 0.09770399332046509
vt 0.7232840061187744 0.0854949951171875
vt 0.7167220115661621 0.05184298753738403
vt 0.7146729826927185 0.03269702196121216
vt 0.7203369736671448 0.029868006706237793
vt 0.7265599966049194 0.04926198720932007
vt 0.6796960234642029 0.058987975120544434
vt 0.6758589744567871 0.0600849986076355
vt 0.6813139915466309 0.08826702833175659
vt 0.6841689944267273 0.08817797899246216
vt 0.6813330054283142 0.03289097547531128
vt 0.6790469884872437 0.035723984241485596
vt 0.7106890082359314 0.13450700044631958
vt 0.7055680155754089 0.15474897623062134
vt 0.7041289806365967 0.0881500244140625
vt 0.6991900205612183 0.06229102611541748
vt 0.7089899778366089 0.05614602565765381
vt 0.7132319808006287 0.08183997869491577
vt 0.7095900177955627 0.25694698095321655
vt 0.7080529928207397 0.2323179841041565
vt 0.7043259739875793 0.19576597213745117
vt 0.705847978591919 0.22759002447128296
vt 0.7060120105743408 0.1655139923095703
vt 0.7078359723091125 0.034494996070861816
vt 0.6974319815635681 0.03222799301147461
vt 0.7062649726867676 0.11768198013305664
vt 0.7144950032234192 0.10633200407028198
vt 0.6929799914360046 0.1159520149230957
vt 0.7032390236854553 0.13330799341201782
vt 0.6967300176620483 0.14194101095199585
vt 0.6913970112800598 0.12040698528289795
vt 0.7068359851837158 0.2802540063858032
vt 0.7040320038795471 0.263280987739563
vt 0.7241870164871216 0.06633102893829346
vt 0.718779981136322 0.07637697458267212
vt 0.7155969738960266 0.0023670196533203125
vt 0.7200250029563904 0.004836022853851318
vt 0.7192500233650208 0.016977012157440186
vt 0.7166079878807068 0.019877970218658447
vt 0.6831989884376526 0.1723099946975708
vt 0.6954420208930969 0.1656399965286255
vt 0.6944599747657776 0.19592499732971191
vt 0.6828100085258484 0.19796699285507202
vt 0.6950439810752869 0.22756999731063843
vt 0.6845369935035706 0.22800499200820923
vt 0.6995409727096558 0.11542397737503052
vt 0.7083340287208557 0.29438698291778564
vt 0.7128090262413025 0.3009979724884033
vt 0.718205988407135 0.31647300720214844
vt 0.7145450115203857 0.3111349940299988
vt 0.7118160128593445 0.022008001804351807
vt 0.7108449935913086 0.008526980876922607
vt 0.6986759901046753 0.25290900468826294
vt 0.6976580023765564 0.23580801486968994
vt 0.6972669959068298 0.08917200565338135
vt 0.6931089758872986 0.0653960108757019
vt 0.6921340227127075 0.0367010235786438
vt 0.6922580003738403 0.08969700336456299
vt 0.6865230202674866 0.06847798824310303
vt 0.6864609718322754 0.04113900661468506
vt 0.6896929740905762 0.25439000129699707
vt 0.6898999810218811 0.24879997968673706
vt 0.6976519823074341 0.2616770267486572
vt 0.6908659934997559 0.26144397258758545
vt 0.6871860027313232 0.08384597301483154
vt 0.6829969882965088 0.057918012142181396
vt 0.6842129826545715 0.03381800651550293
vt 0.6950299739837646 0.11180001497268677
vt 0.808076024055481 0.8388399928808212
vt 0.7923529744148254 0.8389129936695099
vt 0.7912089824676514 0.8112159967422485
vt 0.8058159947395325 0.8112159967422485
vt 0.8058159947395325 0.8112159967422485
vt 0.7912089824676514 0.8112159967422485
vt 0.7896310091018677 0.7791920006275177
vt 0.8026990294456482 0.7797009944915771
vt 0.8019269704818726 0.7517019957304001
vt 0.7892410159111023 0.7517019957304001
vt 0.7998669743537903 0.9660990014672279
vt 0.7977849841117859 0.9893549997359514
vt 0.7871440052986145 0.9893549997359514
vt 0.7881979942321777 0.9663529992103577
vt 0.8051080107688904 0.930077001452446
vt 0.7908509969711304 0.930077001452446
vt 0.8051080107688904 0.930077001452446
vt 0.7908499836921692 0.930077001452446
vt 0.7925310134887695 0.8993460014462471
vt 0.8084279894828796 0.8990610018372536
vt 0.7933239936828613 0.8704610019922256
vt 0.8099949955940247 0.8704610019922256
vt 0.8099960088729858 0.8704610019922256
vt 0.7933239936828613 0.8704610019922256
vt 0.7707309722900391 0.8704610019922256
vt 0.7707309722900391 0.8389880061149597
vt 0.7707309722900391 0.8112159967422485
vt 0.7707309722900391 0.8112159967422485
vt 0.7707309722900391 0.778671994805336
vt 0.7707309722900391 0.7517019957304001
vt 0.7707309722900391 0.9893549997359514
vt 0.7707309722900391 0.9666140004992485
vt 0.7707309722900391 0.930077001452446
vt 0.7707309722900391 0.930077001452446
vt 0.7707309722900391 0.8996369987726212
vt 0.7707309722900391 0.8704610019922256
vt 0.4416449964046478 0.18307501077651978
vt 0.4667229950428009 0.178941011428833
vt 0.47167500853538513 0.22483700513839722
vt 0.4472540020942688 0.22649997472763062
vt 0.4490030109882355 0.24668800830841064
vt 0.4805169999599457 0.24720299243927002
vt 0.45080798864364624 0.27268797159194946
vt 0.48346400260925293 0.2730810046195984
vt 0.47837600111961365 0.2998470067977905
vt 0.45030200481414795 0.2989950180053711
vt 0.44556400179862976 0.362155020236969
vt 0.4498080015182495 0.31828802824020386
vt 0.46813398599624634 0.32051897048950195
vt 0.4615449905395508 0.3651390075683594
vt 0.4379650056362152 0.4094200134277344
vt 0.4552670121192932 0.41208600997924805
vt 0.44893699884414673 0.45883500576019287
vt 0.430074006319046 0.4542909860610962
vt 0.4298569858074188 0.09341001510620117
vt 0.4485499858856201 0.08762097358703613
vt 0.4585750102996826 0.13243800401687622
vt 0.43515101075172424 0.13749301433563232
vt 0.42128100991249084 0.18317198753356934
vt 0.4160270094871521 0.1377270221710205
vt 0.4277380108833313 0.22685998678207397
vt 0.4163829982280731 0.24709302186965942
vt 0.421330988407135 0.2993040084838867
vt 0.4148919880390167 0.27276402711868286
vt 0.4346329867839813 0.318835973739624
vt 0.4322110116481781 0.3640660047531128
vt 0.42423000931739807 0.41132599115371704
vt 0.4140160083770752 0.4545009732246399
vt 0.4140160083770752 0.09410601854324341
vt 0.6585299968719482 0.8807170018553734
vt 0.6563469767570496 0.8866119980812073
vt 0.6394529938697815 0.8870939984917641
vt 0.6366879940032959 0.881351001560688
vt 0.6287959814071655 0.8885350003838539
vt 0.6330270171165466 0.8929539993405342
vt 0.6224330067634583 0.908560000360012
vt 0.62009197473526 0.8967830017209053
vt 0.6261410117149353 0.8992249965667725
vt 0.6283550262451172 0.9081709980964661
vt 0.6408249735832214 0.9314080029726028
vt 0.6243450045585632 0.9186410009860992
vt 0.6298270225524902 0.9159549996256828
vt 0.6426169872283936 0.9256749972701073
vt 0.659246027469635 0.9261099994182587
vt 0.6622539758682251 0.9316970035433769
vt 0.6702920198440552 0.9141089990735054
vt 0.6765580177307129 0.9161389991641045
vt 0.6750360131263733 0.89512500166893
vt 0.6691740155220032 0.8978039994835854
vt 0.671413004398346 0.945617999881506
vt 0.6672000288963318 0.9490850009024143
vt 0.6536629796028137 0.9392720013856888
vt 0.6541849970817566 0.9332849979400635
vt 0.6783459782600403 0.9656049981713295
vt 0.6728860139846802 0.9642219990491867
vt 0.6721270084381104 0.9746749997138977
vt 0.6679369807243347 0.9710150007158518
vt 0.6634219884872437 0.9792689997702837
vt 0.6659790277481079 0.9850040003657341
vt 0.6537089943885803 0.9855909999459982
vt 0.6537190079689026 0.9795719999819994
vt 0.6268960237503052 0.9727059993892908
vt 0.6323779821395874 0.9695469997823238
vt 0.6448990106582642 0.979288000613451
vt 0.6433039903640747 0.9854170000180602
vt 0.6231629848480225 0.9520509988069534
vt 0.6294580101966858 0.9536370001733303
vt 0.6344919800758362 0.9358339980244637
vt 0.638342022895813 0.941100999712944

usemtl Material

f 1/1/1 2/2/2 3/3/3
f 3/3/3 4/4/4 1/1/1
f 5/5/5 6/6/6 7/7/7
f 7/7/7 8/8/8 5/5/5
f 9/9/9 10/10/10 2/2/2
f 2/2/2 1/1/1 9/9/9
f 11/11/11 12/12/12 13/13/13
f 13/13/13 14/14/14 11/11/11
f 15/15/15 16/16/16 17/17/17
f 17/17/17 18/18/18 15/15/15
f 19/19/19 20/20/20 12/12/12
f 12/12/12 11/11/11 19/19/19
f 11/11/11 14/14/14 21/21/21
f 21/21/21 22/22/22 11/11/11
f 15/15/15 18/18/18 23/23/23
f 23/23/23 24/24/24 15/15/15
f 19/19/19 11/11/11 22/22/22
f 22/22/22 25/25/25 19/19/19
f 26/26/26 27/27/27 22/22/22
f 22/22/22 21/21/21 26/26/26
f 28/28/28 29/29/29 24/24/24
f 24/24/24 23/23/23 28/28/28
f 27/27/27 30/30/30 25/25/25
f 25/25/25 22/22/22 27/27/27
f 31/31/31 32/32/32 33/33/33
f 33/33/33 34/34/34 31/31/31
f 35/35/35 36/36/36 37/37/37
f 37/37/37 38/38/38 35/35/35
f 32/32/32 39/39/39 40/40/40
f 40/40/40 33/33/33 32/32/32
f 41/41/41 3/3/3 2/2/2
f 2/2/2 42/42/42 41/41/41
f 43/43/43 7/7/7 6/6/6
f 6/6/6 44/44/44 43/43/43
f 45/45/45 42/42/42 2/2/2
f 2/2/2 10/10/10 45/45/45
f 46/46/46 47/47/47 32/32/32
f 32/32/32 31/31/31 46/46/46
f 48/48/48 49/49/49 36/36/36
f 36/36/36 35/35/35 48/48/48
f 50/50/50 39/39/39 32/32/32
f 32/32/32 47/47/47 50/50/50
f 51/51/51 52/52/52 53/53/53
f 53/53/53 54/54/54 51/51/51
f 52/52/52 51/51/51 55/55/55
f 55/55/55 56/56/56 52/52/52
f 57/57/57 58/58/58 59/59/59
f 59/59/59 60/60/60 57/57/57
f 61/61/61 62/62/62 63/63/63
f 63/63/63 64/64/64 61/61/61
f 65/65/65 66/66/66 67/67/67
f 67/67/67 68/68/68 65/65/65
f 66/66/66 65/65/65 69/69/69
f 69/69/69 70/70/70 66/66/66
f 34/34/34 33/33/33 27/27/27
f 27/27/27 26/26/26 34/34/34
f 38/38/38 37/37/37 29/29/29
f 29/29/29 28/28/28 38/38/38
f 61/61/61 68/68/68 67/67/67
f 67/67/67 62/62/62 61/61/61
f 16/16/16 5/5/5 8/8/8
f 8/8/8 17/17/17 16/16/16
f 12/12/12 1/1/1 4/4/4
f 4/4/4 13/13/13 12/12/12
f 12/12/12 20/20/20 9/9/9
f 9/9/9 1/1/1 12/12/12
f 59/59/59 56/56/56 55/55/55
f 55/55/55 60/60/60 59/59/59
f 40/40/40 30/30/30 27/27/27
f 27/27/27 33/33/33 40/40/40
f 46/46/46 49/49/49 71/71/71
f 47/47/47 46/46/46 71/71/71
f 50/50/50 47/47/47 71/71/71
f 72/72/72 54/54/54 53/53/53
f 53/53/53 73/73/73 72/72/72
f 42/42/42 45/45/45 74/74/74
f 41/41/41 42/42/42 74/74/74
f 43/43/43 44/44/44 74/74/74
f 75/75/75 70/70/70 69/69/69
f 69/69/69 76/76/76 75/75/75
f 46/46/46 31/31/31 77/77/77
f 77/77/77 49/49/49 46/46/46
f 31/31/31 34/34/34 78/78/78
f 78/78/78 77/77/77 31/31/31
f 34/34/34 26/26/26 79/79/79
f 79/79/79 78/78/78 34/34/34
f 79/79/79 26/26/26 21/21/21
f 21/21/21 80/80/80 79/79/79
f 14/14/14 81/81/81 80/80/80
f 80/80/80 21/21/21 14/14/14
f 14/14/14 13/13/13 82/82/82
f 82/82/82 81/81/81 14/14/14
f 82/82/82 13/13/13 4/4/4
f 4/4/4 83/83/83 82/82/82
f 83/83/83 4/4/4 3/3/3
f 3/3/3 84/84/84 83/83/83
f 41/41/41 44/44/44 84/84/84
f 84/84/84 3/3/3 41/41/41
f 71/71/71 49/49/49 48/48/48
f 74/74/74 44/44/44 41/41/41
f 85/85/85 86/86/86 87/87/87
f 87/87/87 88/88/88 85/85/85
f 85/85/85 89/89/89 90/90/90
f 90/90/90 86/86/86 85/85/85
f 91/91/91 92/92/92 93/93/93
f 93/93/93 94/94/94 91/91/91
f 92/92/92 95/95/95 96/96/96
f 96/96/96 93/93/93 92/92/92
f 97/97/97 98/98/98 99/99/99
f 99/99/99 100/100/100 97/97/97
f 101/101/101 102/102/102 103/103/103
f 103/103/103 104/104/104 101/101/101
f 105/105/105 106/106/106 107/107/107
f 107/107/107 108/108/108 105/105/105
f 109/109/109 110/110/110 106/106/106
f 106/106/106 105/105/105 109/109/109
f 111/111/111 112/112/112 113/113/113
f 113/113/113 114/114/114 111/111/111
f 115/115/115 116/116/116 117/117/117
f 117/117/117 118/118/118 115/115/115
f 119/119/119 120/120/120 116/116/116
f 116/116/116 115/115/115 119/119/119
f 121/121/121 122/122/122 123/123/123
f 123/123/123 124/124/124 121/121/121
f 121/121/121 125/125/125 126/126/126
f 126/126/126 122/122/122 121/121/121
f 127/127/127 128/128/128 129/129/129
f 129/129/129 130/130/130 127/127/127
f 128/128/128 131/131/131 132/132/132
f 132/132/132 129/129/129 128/128/128
f 114/114/114 113/113/113 133/133/133
f 133/133/133 134/134/134 114/114/114
f 112/112/112 135/135/135 136/136/136
f 136/136/136 113/113/113 112/112/112
f 116/116/116 137/137/137 138/138/138
f 138/138/138 117/117/117 116/116/116
f 120/120/120 139/139/139 137/137/137
f 137/137/137 116/116/116 120/120/120
f 123/123/123 122/122/122 140/140/140
f 140/140/140 141/141/141 123/123/123
f 122/122/122 126/126/126 142/142/142
f 142/142/142 140/140/140 122/122/122
f 130/130/130 129/129/129 143/143/143
f 143/143/143 144/144/144 130/130/130
f 129/129/129 132/132/132 145/145/145
f 145/145/145 143/143/143 129/129/129
f 113/113/113 136/136/136 146/146/146
f 146/146/146 133/133/133 113/113/113
f 147/147/147 148/148/148 149/149/149
f 149/149/149 150/150/150 151/151/151
f 151/151/151 147/147/147 149/149/149
f 152/152/152 153/153/153 151/151/151
f 151/151/151 150/150/150 152/152/152
f 154/154/154 155/155/155 156/156/156
f 157/157/157 158/158/158 154/154/154
f 154/154/154 156/156/156 157/157/157
f 159/159/159 160/160/160 158/158/158
f 158/158/158 157/157/157 159/159/159
f 161/161/161 162/162/162 160/160/160
f 160/160/160 159/159/159 161/161/161
f 161/161/161 163/163/163 164/164/164
f 164/164/164 162/162/162 161/161/161
f 165/165/165 166/166/166 93/93/93
f 93/93/93 96/96/96 165/165/165
f 167/167/167 94/94/94 93/93/93
f 93/93/93 166/166/166 167/167/167
f 168/168/168 86/86/86 90/90/90
f 90/90/90 169/169/169 168/168/168
f 170/170/170 87/87/87 86/86/86
f 86/86/86 168/168/168 170/170/170
f 171/171/171 172/172/172 106/106/106
f 106/106/106 110/110/110 171/171/171
f 173/173/173 107/107/107 106/106/106
f 106/106/106 172/172/172 173/173/173
f 174/174/174 175/175/175 104/104/104
f 104/104/104 103/103/103 174/174/174
f 176/176/176 177/177/177 100/100/100
f 100/100/100 99/99/99 176/176/176
f 98/98/98 101/101/101 104/104/104
f 104/104/104 99/99/99 98/98/98
f 104/104/104 175/175/175 176/176/176
f 176/176/176 99/99/99 104/104/104
f 163/163/163 149/149/149 148/148/148
f 148/148/148 164/164/164 163/163/163
f 89/89/89 178/178/178 179/179/179
f 179/179/179 90/90/90 89/89/89
f 179/179/179 180/180/180 169/169/169
f 169/169/169 90/90/90 179/179/179
f 152/152/152 156/156/156 155/155/155
f 155/155/155 153/153/153 152/152/152
f 89/89/89 181/181/181 182/182/182
f 182/182/182 178/178/178 89/89/89
f 183/183/183 184/184/184 185/185/185
f 185/185/185 186/186/186 183/183/183
f 187/187/187 188/188/188 189/189/189
f 189/189/189 190/190/190 187/187/187
f 187/187/187 191/191/191 192/192/192
f 192/192/192 188/188/188 187/187/187
f 193/193/193 85/85/85 88/88/88
f 88/88/88 194/194/194 193/193/193
f 195/195/195 196/196/196 197/197/197
f 197/197/197 198/198/198 195/195/195
f 199/199/199 200/200/200 102/102/102
f 102/102/102 101/101/101 199/199/199
f 201/201/201 105/105/105 108/108/108
f 108/108/108 202/202/202 201/201/201
f 203/203/203 109/109/109 105/105/105
f 105/105/105 201/201/201 203/203/203
f 204/204/204 197/197/197 196/196/196
f 196/196/196 205/205/205 204/204/204
f 193/193/193 206/206/206 207/207/207
f 207/207/207 85/85/85 193/193/193
f 208/208/208 209/209/209 210/210/210
f 210/210/210 211/211/211 208/208/208
f 199/199/199 101/101/101 212/212/212
f 212/212/212 213/213/213 199/199/199
f 214/214/214 215/215/215 183/183/183
f 183/183/183 186/186/186 214/214/214
f 95/95/95 92/92/92 186/186/186
f 186/186/186 185/185/185 95/95/95
f 214/214/214 186/186/186 92/92/92
f 92/92/92 91/91/91 214/214/214
f 216/216/216 217/217/217 218/218/218
f 218/218/218 219/219/219 216/216/216
f 220/220/220 221/221/221 222/222/222
f 222/222/222 223/223/223 220/220/220
f 223/223/223 222/222/222 224/224/224
f 224/224/224 225/225/225 223/223/223
f 206/206/206 193/193/193 209/209/209
f 209/209/209 226/226/226 206/206/206
f 217/217/217 95/95/95 185/185/185
f 185/185/185 218/218/218 217/217/217
f 219/219/219 218/218/218 185/185/185
f 185/185/185 184/184/184 219/219/219
f 227/227/227 212/212/212 101/101/101
f 101/101/101 228/228/228 227/227/227
f 229/229/229 230/230/230 98/98/98
f 98/98/98 97/97/97 229/229/229
f 85/85/85 207/207/207 181/181/181
f 181/181/181 89/89/89 85/85/85
f 215/215/215 198/198/198 197/197/197
f 197/197/197 183/183/183 215/215/215
f 183/183/183 197/197/197 204/204/204
f 204/204/204 184/184/184 183/183/183
f 231/231/231 219/219/219 184/184/184
f 184/184/184 204/204/204 231/231/231
f 232/232/232 216/216/216 219/219/219
f 219/219/219 231/231/231 232/232/232
f 228/228/228 101/101/101 98/98/98
f 98/98/98 230/230/230 228/228/228
f 199/199/199 233/233/233 234/234/234
f 234/234/234 200/200/200 199/199/199
f 224/224/224 222/222/222 201/201/201
f 201/201/201 202/202/202 224/224/224
f 221/221/221 203/203/203 201/201/201
f 201/201/201 222/222/222 221/221/221
f 209/209/209 193/193/193 194/194/194
f 194/194/194 210/210/210 209/209/209
f 235/235/235 236/236/236 196/196/196
f 196/196/196 195/195/195 235/235/235
f 237/237/237 205/205/205 196/196/196
f 196/196/196 236/236/236 237/237/237
f 238/238/238 239/239/239 236/236/236
f 236/236/236 235/235/235 238/238/238
f 240/240/240 237/237/237 236/236/236
f 236/236/236 239/239/239 240/240/240
f 233/233/233 241/241/241 242/242/242
f 242/242/242 234/234/234 233/233/233
f 213/213/213 243/243/243 233/233/233
f 233/233/233 199/199/199 213/213/213
f 243/243/243 244/244/244 241/241/241
f 241/241/241 233/233/233 243/243/243
f 245/245/245 246/246/246 187/187/187
f 187/187/187 190/190/190 245/245/245
f 246/246/246 247/247/247 191/191/191
f 191/191/191 187/187/187 246/246/246
f 226/226/226 209/209/209 208/208/208
f 208/208/208 248/248/248 226/226/226
f 249/249/249 250/250/250 251/251/251
f 251/251/251 252/252/252 249/249/249
f 253/253/253 254/254/254 255/255/255
f 255/255/255 256/256/256 253/253/253
f 257/257/257 256/256/256 255/255/255
f 255/255/255 258/258/258 257/257/257
f 259/259/259 260/260/260 261/261/261
f 261/261/261 262/262/262 259/259/259
f 263/263/263 259/259/259 262/262/262
f 262/262/262 264/264/264 263/263/263
f 265/265/265 266/266/266 267/267/267
f 267/267/267 268/268/268 265/265/265
f 268/268/268 267/267/267 269/269/269
f 269/269/269 270/270/270 268/268/268
f 271/271/271 272/272/272 250/250/250
f 250/250/250 249/249/249 271/271/271
f 143/143/143 145/145/145 271/271/271
f 271/271/271 249/249/249 143/143/143
f 144/144/144 143/143/143 249/249/249
f 249/249/249 252/252/252 144/144/144
f 140/140/140 142/142/142 253/253/253
f 253/253/253 256/256/256 140/140/140
f 140/140/140 256/256/256 257/257/257
f 257/257/257 141/141/141 140/140/140
f 139/139/139 260/260/260 259/259/259
f 259/259/259 137/137/137 139/139/139
f 137/137/137 259/259/259 263/263/263
f 263/263/263 138/138/138 137/137/137
f 135/135/135 265/265/265 268/268/268
f 268/268/268 136/136/136 135/135/135
f 146/146/146 136/136/136 268/268/268
f 268/268/268 270/270/270 146/146/146
f 272/272/272 273/273/273 274/274/274
f 274/274/274 250/250/250 272/272/272
f 250/250/250 274/274/274 275/275/275
f 275/275/275 251/251/251 250/250/250
f 254/254/254 276/276/276 277/277/277
f 277/277/277 255/255/255 254/254/254
f 255/255/255 277/277/277 278/278/278
f 278/278/278 258/258/258 255/255/255
f 262/262/262 261/261/261 279/279/279
f 279/279/279 280/280/280 262/262/262
f 264/264/264 262/262/262 280/280/280
f 280/280/280 281/281/281 264/264/264
f 267/267/267 266/266/266 282/282/282
f 282/282/282 283/283/283 267/267/267
f 269/269/269 267/267/267 283/283/283
f 283/283/283 284/284/284 269/269/269
f 285/285/285 286/286/286 287/287/287
f 287/287/287 288/288/288 285/285/285
f 289/289/289 288/288/288 287/287/287
f 287/287/287 290/290/290 289/289/289
f 291/291/291 292/292/292 293/293/293
f 293/293/293 294/294/294 291/291/291
f 295/295/295 296/296/296 297/297/297
f 297/297/297 298/298/298 295/295/295
f 299/299/299 295/295/295 298/298/298
f 298/298/298 300/300/300 299/299/299
f 299/299/299 300/300/300 301/301/301
f 301/301/301 302/302/302 299/299/299
f 303/303/303 304/304/304 305/305/305
f 305/305/305 306/306/306 303/303/303
f 306/306/306 305/305/305 286/286/286
f 286/286/286 285/285/285 306/306/306
f 307/307/307 308/308/308 306/306/306
f 306/306/306 285/285/285 307/307/307
f 309/309/309 307/307/307 285/285/285
f 285/285/285 288/288/288 309/309/309
f 309/309/309 288/288/288 289/289/289
f 289/289/289 310/310/310 309/309/309
f 311/311/311 312/312/312 291/291/291
f 291/291/291 294/294/294 311/311/311
f 313/313/313 296/296/296 295/295/295
f 295/295/295 314/314/314 313/313/313
f 314/314/314 295/295/295 299/299/299
f 299/299/299 315/315/315 314/314/314
f 315/315/315 299/299/299 302/302/302
f 302/302/302 316/316/316 315/315/315
f 308/308/308 317/317/317 303/303/303
f 303/303/303 306/306/306 308/308/308
f 318/318/318 319/319/319 320/320/320
f 320/320/320 321/321/321 318/318/318
f 322/322/322 321/321/321 320/320/320
f 320/320/320 323/323/323 322/322/322
f 324/324/324 325/325/325 326/326/326
f 326/326/326 327/327/327 324/324/324
f 328/328/328 329/329/329 330/330/330
f 330/330/330 331/331/331 328/328/328
f 328/328/328 331/331/331 332/332/332
f 332/332/332 333/333/333 328/328/328
f 333/333/333 332/332/332 334/334/334
f 334/334/334 335/335/335 333/333/333
f 336/336/336 335/335/335 334/334/334
f 334/334/334 337/337/337 336/336/336
f 318/318/318 336/336/336 337/337/337
f 337/337/337 319/319/319 318/318/318
f 338/338/338 339/339/339 340/340/340
f 340/340/340 341/341/341 338/338/338
f 338/338/338 342/342/342 343/343/343
f 343/343/343 339/339/339 338/338/338
f 343/343/343 342/342/342 344/344/344
f 344/344/344 345/345/345 343/343/343
f 346/346/346 347/347/347 348/348/348
f 348/348/348 349/349/349 346/346/346
f 350/350/350 351/351/351 352/352/352
f 352/352/352 353/353/353 350/350/350
f 350/350/350 354/354/354 355/355/355
f 355/355/355 351/351/351 350/350/350
f 356/356/356 357/357/357 355/355/355
f 355/355/355 354/354/354 356/356/356
f 341/341/341 340/340/340 357/357/357
f 357/357/357 356/356/356 341/341/341
f 326/326/326 325/325/325 322/322/322
f 322/322/322 323/323/323 326/326/326
f 291/291/291 289/289/289 290/290/290
f 290/290/290 292/292/292 291/291/291
f 312/312/312 310/310/310 289/289/289
f 289/289/289 291/291/291 312/312/312
f 344/344/344 347/347/347 346/346/346
f 346/346/346 345/345/345 344/344/344
f 330/330/330 329/329/329 324/324/324
f 324/324/324 327/327/327 330/330/330
f 297/297/297 296/296/296 294/294/294
f 294/294/294 293/293/293 297/297/297
f 313/313/313 311/311/311 294/294/294
f 294/294/294 296/296/296 313/313/313
f 348/348/348 353/353/353 352/352/352
f 352/352/352 349/349/349 348/348/348