mtllib 63252751.mtl
o Mesh

v -0.22399002313613892 -0.5780400037765503 0.38612100481987
v -0.2970399856567383 -0.9779410362243652 0.3528839945793152
v 0.0992400050163269 -0.8335299491882324 0.4420509934425354
v 0.03279000520706177 -0.6355810165405273 0.4713220000267029
v 0.2672699987888336 -0.6634199619293213 0.29761800169944763
v 0.16133001446723938 -0.6547509431838989 0.41989898681640625
v 0.21518999338150024 -0.8224300146102905 0.3628480136394501
v 0.2839999794960022 -0.7624800205230713 0.2765049934387207
v 0.3188599944114685 -0.6483399868011475 0.13831700384616852
v 0.3406500220298767 -0.7143100500106812 0.06741400063037872
v 0.23508000373840332 -0.5991599559783936 -0.11148600280284882
v 0.3188599944114685 -0.6483399868011475 0.13831700384616852
v 0.3406500220298767 -0.7143100500106812 0.06741400063037872
v 0.28303998708724976 -0.7023999691009521 -0.2637290060520172
v 0.15819001197814941 -0.5700099468231201 -0.17765699326992035
v 0.20085999369621277 -0.7711310386657715 -0.33486199378967285
v 0.03279000520706177 -0.544700026512146 -0.2094610035419464
v 0.04069000482559204 -0.7948410511016846 -0.35132598876953125
v -0.125249981880188 -0.7871600389480591 -0.2648490071296692
v -0.10339999198913574 -0.5228110551834106 -0.15309099853038788
v -0.22478002309799194 -0.50947105884552 -0.08437100052833557
v -0.3063099980354309 -0.9779410362243652 -0.22103600203990936
v -0.3583400249481201 -0.9912010431289673 -0.0302910003811121
v -0.2825300097465515 -0.5151009559631348 0.05292399972677231
v -0.28140002489089966 -0.5461610555648804 0.2569260001182556
v -0.3438299894332886 -0.9838809967041016 0.2097260057926178
v 0.15437999367713928 -0.8955409526824951 0.22572800517082214
v 0.23774999380111694 -0.8560709953308105 0.1613990068435669
v 0.17026999592781067 -0.9116100072860718 0.008429000154137611
v 0.1732099950313568 -0.9389209747314453 -0.17495499551296234
v 0.2520799934864044 -0.8904709815979004 -0.16621699929237366
v 0.2852500081062317 -0.8139610290527344 0.021341999992728233
v -0.0343400239944458 -1.4283699989318848 -0.10204300284385681
v -0.1010199785232544 -1.4372199773788452 -0.09848000109195709
v -0.092739999294281 -1.3814409971237183 -0.1541309952735901
v -0.03688997030258179 -1.3758310079574585 -0.15362399816513062
v -0.0013700127601623535 -1.3616199493408203 0.15869100391864777
v 0.01001998782157898 -1.379580020904541 0.2284429967403412
v -0.030789971351623535 -1.3911199569702148 0.20745700597763062
v -0.04430001974105835 -1.369320034980774 0.16083799302577972
v 0.3878290057182312 0.14513999223709106 -0.14075900614261627
v 0.44189199805259705 -0.0010390281677246094 -0.0186149999499321
v 0.42593199014663696 0.010291993618011475 -0.009336000308394432
v 0.37777000665664673 0.15408998727798462 -0.11918500065803528
v 0.4881199896335602 0.05680999159812927 0.11044800281524658
v 0.4717699885368347 0.06918001174926758 0.1168999969959259
v 0.41033199429512024 0.04448199272155762 0.27555200457572937
v 0.3991119861602783 0.05113101005554199 0.2704649865627289
v 0.37959998846054077 0.17917001247406006 0.39716199040412903
v 0.37094998359680176 0.18143999576568604 0.3890329897403717
v 0.22847199440002441 0.20587098598480225 0.43808799982070923
v 0.15597999095916748 0.3763189911842346 0.3424549996852875
v 0.16468998789787292 0.36545899510383606 0.3369370102882385
v 0.2292119860649109 0.2027910053730011 0.4276120066642761
v 0.05337199568748474 0.3671000003814697 0.2119559943675995
v 0.06739199161529541 0.3524799942970276 0.212444007396698
v 0.10264900326728821 0.4217990040779114 0.054409999400377274
v 0.08724901080131531 0.43744900822639465 0.045827001333236694
v 0.12338098883628845 0.30647099018096924 -0.08913400024175644
v 0.1320909857749939 0.2956100106239319 -0.07071200013160706
v 0.25572100281715393 0.18175101280212402 -0.17180299758911133
v 0.2564609944820404 0.17866098880767822 -0.1484220027923584
v 0.22603899240493774 0.3077700138092041 -0.12006600201129913
v 0.2212589979171753 0.3147999942302704 -0.14093400537967682
v -0.10865002870559692 -1.0859700441360474 0.3832699954509735
v -0.05274999141693115 -1.1561599969863892 0.19756799936294556
v 0.0795699954032898 -0.8837709426879883 0.2483389973640442
v -0.019070029258728027 -1.1437300443649292 0.26377400755882263
v -0.12365001440048218 -1.045030951499939 -0.2985909879207611
v -0.3003600239753723 -1.1269609928131104 -0.12740099430084229
v -0.334850013256073 -1.0877410173416138 -0.04225099831819534
v -0.27696001529693604 -1.151100993156433 0.2399740070104599
v 0.06630000472068787 -0.9144400358200073 -0.05275199934840202
v -0.08977001905441284 -1.1513710021972656 -0.10716500133275986
v 0.06808000802993774 -0.8837499618530273 -0.18660500645637512
v -0.10865002870559692 -1.0859700441360474 0.3832699954509735
v 0.0992400050163269 -0.8335299491882324 0.4420509934425354
v 0.01001998782157898 -1.379580020904541 0.2284429967403412
v -0.11501002311706543 -1.2103099822998047 0.34929999709129333
v -0.2031400203704834 -1.3087999820709229 0.2971070110797882
v -0.12365001440048218 -1.045030951499939 -0.2985909879207611
v 0.04069000482559204 -0.7948410511016846 -0.35132598876953125
v -0.039929986000061035 -1.1190710067749023 -0.24429799616336823
v 0.2852500081062317 -0.8139610290527344 0.021341999992728233
v 0.2520799934864044 -0.8904709815979004 -0.16621699929237366
v 0.2990899980068207 -0.9431010484695435 -0.3811039924621582
v 0.34512001276016235 -0.8926010131835938 -0.3465690016746521
v 0.3072900176048279 -0.9226109981536865 -0.2573759853839874
v 0.26853999495506287 -0.9671709537506104 -0.24359700083732605
v -0.19310998916625977 -1.3156700134277344 0.19173699617385864
v -0.27372002601623535 -1.328570008277893 -0.06803400069475174
v -0.2281699776649475 -1.3002510070800781 -0.1423259973526001
v -0.11501002311706543 -1.2103099822998047 0.34929999709129333
v 0.00288999080657959 -1.2609800100326538 0.23706099390983582
v 0.3072900176048279 -0.9226109981536865 -0.2573759853839874
v 0.26853999495506287 -0.9671709537506104 -0.24359700083732605
v 0.3072900176048279 -0.9226109981536865 -0.2573759853839874
v 0.21555998921394348 -0.97639000415802 -0.359264999628067
v 0.18700000643730164 -0.9925210475921631 -0.25698599219322205
v 0.06808000802993774 -0.8837499618530273 -0.18660500645637512
v 0.03279000520706177 -0.6355810165405273 0.4713220000267029
v 0.07666000723838806 -0.9036309719085693 0.12521100044250488
v 0.18700000643730164 -0.9925210475921631 -0.25698599219322205
v 0.18700000643730164 -0.9925210475921631 -0.25698599219322205
v 0.49970901012420654 0.2653300166130066 -0.23252199590206146
v 0.4425790011882782 0.24423998594284058 -0.13243700563907623
v 0.37216901779174805 0.38940000534057617 -0.19683100283145905
v 0.49960899353027344 0.49421000480651855 -0.32884401082992554
v -0.08483999967575073 -1.2264399528503418 -0.2785849869251251
v -0.20396000146865845 -1.271939992904663 -0.2579819858074188
v -0.2861499786376953 -1.0347009897232056 -0.2565769851207733
v -0.2885199785232544 -1.0786999464035034 0.3629019856452942
v -0.031509995460510254 -1.2696399688720703 0.16649100184440613
v -0.07099002599716187 -1.2561500072479248 -0.12529000639915466
v -0.046549975872039795 -1.171839952468872 -0.020231999456882477
v -0.03130000829696655 -1.279710054397583 -0.054926998913288116
v 0.0051499903202056885 -1.3259199857711792 0.15789400041103363
v 0.037429988384246826 -1.3393000364303589 0.21282699704170227
v -0.018660008907318115 -1.3332699537277222 -0.14128899574279785
v 0.011260002851486206 -1.3910900354385376 -0.08981399983167648
v -0.01894998550415039 -1.3559600114822388 -0.25505301356315613
v -0.0671200156211853 -1.3650599718093872 -0.24589599668979645
v -0.01587998867034912 -1.2201999425888062 -0.23260599374771118
v -0.08483999967575073 -1.2264399528503418 -0.2785849869251251
v 0.02195999026298523 -1.318120002746582 -0.22198599576950073
v -0.01894998550415039 -1.3559600114822388 -0.25505301356315613
v -0.0343400239944458 -1.4283699989318848 -0.10204300284385681
v -0.03688997030258179 -1.3758310079574585 -0.15362399816513062
v 0.024069994688034058 -1.3664300441741943 0.08512499928474426
v -0.0013700127601623535 -1.3616199493408203 0.15869100391864777
v -0.013130009174346924 -1.404960036277771 0.0837009996175766
v 0.01001998782157898 -1.379580020904541 0.2284429967403412
v 0.5000690221786499 0.23357000946998596 -0.13652999699115753
v 0.4824199974536896 0.1687600016593933 -0.014689999632537365
v 0.4996800124645233 0.1888200044631958 1.4999999621068127e-05
v 0.49480998516082764 0.14765000343322754 0.12780100107192993
v 0.49480998516082764 0.14765000343322754 0.12780100107192993
v 0.4996800124645233 0.1888200044631958 1.4999999621068127e-05
v 0.49970999360084534 0.2653300166130066 0.23255200684070587
v 0.4733400046825409 0.20515000820159912 0.296083003282547
v 0.44679000973701477 0.2679300010204315 0.3807060122489929
v 0.5000429749488831 0.3716859817504883 0.27737700939178467
v 0.2730090022087097 0.5715500116348267 0.3411340117454529
v 0.37224000692367554 0.3856799900531769 0.42840901017189026
v 0.49960899353027344 0.49421000480651855 0.32887300848960876
v 0.49949899315834045 0.7222300171852112 0.23392599821090698
v 0.2236190140247345 0.6649489998817444 0.18847699463367462
v 0.5118770003318787 0.7742229700088501 0.14743299782276154
v 0.273809015750885 0.5660200119018555 -0.1362060010433197
v 0.2188889980316162 0.6634799838066101 -0.016993999481201172
v 0.4994890093803406 0.7905600070953369 -0.1082329973578453
v 0.49949899315834045 0.7222300171852112 -0.23280000686645508
v 0.32232898473739624 0.4788990020751953 -0.1771319955587387
v 0.4995589852333069 0.6054999828338623 -0.2972640097141266
v -0.3053799867630005 -1.1591310501098633 0.04920699819922447
v -0.2283499836921692 -1.324741005897522 0.01811099983751774
v -0.2417299747467041 -1.3209199905395508 0.1233849972486496
v -0.328980028629303 -1.1053099632263184 0.16008399426937103
v -0.08262002468109131 -1.3969600200653076 0.009770000353455544
v -0.0674399733543396 -1.4170399904251099 0.08100900053977966
v -0.042429983615875244 -1.3874499797821045 0.0037700000684708357
v -0.013130009174346924 -1.404960036277771 0.0837009996175766
v -0.03307002782821655 -1.340690016746521 0.013104000128805637
v -0.042429983615875244 -1.3874499797821045 0.0037700000684708357
v -0.06189000606536865 -1.2745399475097656 0.042569998651742935
v -0.013660013675689697 -1.2703700065612793 0.12110500037670135
v -0.07981997728347778 -1.1652309894561768 0.05817500129342079
v -0.032379984855651855 -1.1586300134658813 0.13658200204372406
v 0.5000690221786499 0.23357000946998596 -0.13652999699115753
v 0.49970901012420654 0.2653300166130066 -0.23252199590206146
v 0.5 0.4756399989128113 0.10053800046443939
v 0.4996800124645233 0.1888200044631958 1.4999999621068127e-05
v 0.49970999360084534 0.2653300166130066 0.23255200684070587
v 0.5000429749488831 0.3716859817504883 0.27737700939178467
v 0.49949899315834045 0.7222300171852112 0.23392599821090698
v 0.49960899353027344 0.49421000480651855 0.32887300848960876
v 0.4994890093803406 0.7905600070953369 -0.1082329973578453
v 0.5118770003318787 0.7742229700088501 0.14743299782276154
v 0.49949899315834045 0.7222300171852112 -0.23280000686645508
v 0.49960899353027344 0.49421000480651855 -0.32884401082992554
v 0.4995589852333069 0.6054999828338623 -0.2972640097141266
v -0.02613002061843872 -0.1545810103416443 -0.15220700204372406
v 0.08520999550819397 -0.19574999809265137 -0.1990399956703186
v 0.013359993696212769 -0.39566999673843384 -0.17618800699710846
v -0.09318000078201294 -0.36382102966308594 -0.14253899455070496
v -0.20162999629974365 -0.0983009934425354 0.0731469988822937
v -0.12445002794265747 -0.12265002727508545 -0.08656899631023407
v -0.1876000165939331 -0.3453810214996338 -0.07215499877929688
v -0.2572000026702881 -0.3343510031700134 0.07275400310754776
v -0.19774997234344482 -0.11606097221374512 0.30005499720573425
v -0.25409001111984253 -0.355800986289978 0.2840220034122467
v -0.12445002794265747 -0.15094000101089478 0.4276680052280426
v -0.1876000165939331 -0.38669002056121826 0.3999960124492645
v 0.0361500084400177 -0.22395998239517212 0.5341600179672241
v -0.032109975814819336 -0.44383102655410767 0.4954099953174591
v 0.12349000573158264 -0.48225098848342896 0.45721301436424255
v 0.20478999614715576 -0.2759910225868225 0.49042099714279175
v 0.24085000157356262 -0.4968600273132324 0.337568998336792
v 0.3251100182533264 -0.30369001626968384 0.36695799231529236
v 0.37657999992370605 -0.32551002502441406 0.17052599787712097
v 0.28227999806404114 -0.5035899877548218 0.15819300711154938
v 0.37657999992370605 -0.32551002502441406 0.17052599787712097
v 0.28227999806404114 -0.5035899877548218 0.15819300711154938
v 0.24974000453948975 -0.47244101762771606 -0.009444000199437141
v 0.3379899859428406 -0.2916399836540222 -0.01896899938583374
v 0.21301999688148499 -0.2447199821472168 -0.1609649956226349
v 0.13128000497817993 -0.42994099855422974 -0.1434199959039688
v 0.019109994173049927 -0.47519999742507935 -0.1433040052652359
v -0.09469997882843018 -0.45034098625183105 -0.11797799915075302
v -0.1977599859237671 -0.43132102489471436 -0.04966999962925911
v -0.2639099955558777 -0.4260910153388977 0.07930400222539902
v -0.26166999340057373 -0.44745099544525146 0.27016499638557434
v -0.19647002220153809 -0.47780001163482666 0.3734869956970215
v -0.04527002573013306 -0.5206010341644287 0.4577780067920685
v 0.09589999914169312 -0.5505199432373047 0.424560010433197
v -0.04527002573013306 -0.5206010341644287 0.4577780067920685
v 0.20381999015808105 -0.5578500032424927 0.3140830099582672
v 0.2376599907875061 -0.5570199489593506 0.1538269966840744
v 0.21020999550819397 -0.5297410488128662 0.006864999886602163
v 0.2376599907875061 -0.5570199489593506 0.1538269966840744
v 0.12428000569343567 -0.49980002641677856 -0.11506800353527069
v 0.12338098883628845 0.30647099018096924 -0.08913400024175644
v 0.15597999095916748 0.3763189911842346 0.3424549996852875
v 0.22847199440002441 0.20587098598480225 0.43808799982070923
v 0.37959998846054077 0.17917001247406006 0.39716199040412903
v 0.41033199429512024 0.04448199272155762 0.27555200457572937
v 0.4881199896335602 0.05680999159812927 0.11044800281524658
v 0.4881199896335602 0.05680999159812927 0.11044800281524658
v 0.44189199805259705 -0.0010390281677246094 -0.0186149999499321
v 0.3878290057182312 0.14513999223709106 -0.14075900614261627
v 0.25572100281715393 0.18175101280212402 -0.17180299758911133
v 0.2212589979171753 0.3147999942302704 -0.14093400537967682
v 0.010419994592666626 0.10168999433517456 0.3770129978656769
v 0.1519399881362915 0.024619996547698975 0.46564799547195435
v 0.19769999384880066 0.12400999665260315 0.4620020091533661
v 0.049910008907318115 0.20996999740600586 0.37248098850250244
v -0.011409997940063477 0.24393999576568604 0.26713499426841736
v -0.05014997720718384 0.1338300108909607 0.2725290060043335
v -0.022360026836395264 0.25186899304389954 0.07437899708747864
v -0.057529985904693604 0.14245998859405518 0.08471199870109558
v 0.049908995628356934 0.20996999740600586 -0.059758998453617096
v 0.010419994592666626 0.10514900088310242 -0.04760900139808655
v 0.2243799865245819 0.10878899693489075 -0.14927899837493896
v 0.18272998929023743 0.013328999280929565 -0.13700799643993378
v 0.0954200029373169 0.059859007596969604 -0.10272900015115738
v 0.13596999645233154 0.16005900502204895 -0.11457300186157227
v 0.3255299925804138 0.04144999384880066 -0.11528299748897552
v 0.28404000401496887 -0.04719001054763794 -0.1036359965801239
v 0.4339599907398224 -0.02060002088546753 -0.01720600016415119
v 0.3883399963378906 -0.10074001550674438 -0.0012100000167265534
v 0.4546700119972229 -0.028129994869232178 0.15636099874973297
v 0.41346001625061035 -0.11513000726699829 0.16637299954891205
v 0.40797001123428345 0.007759988307952881 0.32389000058174133
v 0.36702001094818115 -0.08184999227523804 0.33042699098587036
v 0.41346001625061035 -0.11513000726699829 0.16637299954891205
v 0.4546700119972229 -0.028129994869232178 0.15636099874973297
v 0.3146600127220154 0.059350013732910156 0.42346999049186707
v 0.27476000785827637 -0.03747999668121338 0.42781099677085876
v -0.01894998550415039 -1.3559600114822388 -0.25505301356315613
v -0.01894998550415039 -1.3559600114822388 -0.25505301356315613
v 0.01001998782157898 -1.379580020904541 0.2284429967403412
v 0.1182900071144104 -0.12161999940872192 -0.15890899300575256
v 0.23284000158309937 -0.16770100593566895 -0.12431199848651886
v 0.3442099988460541 -0.20990997552871704 0.0023509999737143517
v 0.3794099986553192 -0.24027997255325317 0.17362099885940552
v 0.3794099986553192 -0.24027997255325317 0.17362099885940552
v 0.33205997943878174 -0.21803998947143555 0.35003700852394104
v 0.2254999876022339 -0.19102001190185547 0.45953500270843506
v 0.07447999715805054 -0.14052098989486694 0.49916699528694153
v -0.07002002000808716 -0.07441997528076172 0.4031589925289154
v -0.13593000173568726 -0.04290097951889038 0.28843700885772705
v -0.1388700008392334 -0.028001010417938232 0.08546499907970428
v -0.07002002000808716 -0.05211997032165527 -0.05816499888896942
v 0.01927998661994934 -0.08350002765655518 -0.11783500015735626
v -0.1977599859237671 -0.43132102489471436 -0.04966999962925911
v -0.2639099955558777 -0.4260910153388977 0.07930400222539902
v -0.26166999340057373 -0.44745099544525146 0.27016499638557434
v -0.19647002220153809 -0.47780001163482666 0.3734869956970215
v -0.04527002573013306 -0.5206010341644287 0.4577780067920685
v 0.09589999914169312 -0.5505199432373047 0.424560010433197
v 0.20381999015808105 -0.5578500032424927 0.3140830099582672
v 0.2376599907875061 -0.5570199489593506 0.1538269966840744
v 0.2376599907875061 -0.5570199489593506 0.1538269966840744
v 0.21020999550819397 -0.5297410488128662 0.006864999886602163
v 0.12428000569343567 -0.49980002641677856 -0.11506800353527069
v 0.019109994173049927 -0.47519999742507935 -0.1433040052652359
v -0.09469997882843018 -0.45034098625183105 -0.11797799915075302
v 0.2564609944820404 0.17866098880767822 -0.1484220027923584
v 0.22603899240493774 0.3077700138092041 -0.12006600201129913
v 0.1320909857749939 0.2956100106239319 -0.07071200013160706
v 0.10264900326728821 0.4217990040779114 0.054409999400377274
v 0.06739199161529541 0.3524799942970276 0.212444007396698
v 0.16468998789787292 0.36545899510383606 0.3369370102882385
v 0.2292119860649109 0.2027910053730011 0.4276120066642761
v 0.37094998359680176 0.18143999576568604 0.3890329897403717
v 0.3991119861602783 0.05113101005554199 0.2704649865627289
v 0.4717699885368347 0.06918001174926758 0.1168999969959259
v 0.4717699885368347 0.06918001174926758 0.1168999969959259
v 0.42593199014663696 0.010291993618011475 -0.009336000308394432
v 0.37777000665664673 0.15408998727798462 -0.11918500065803528
v 0.15814000368118286 -0.05571097135543823 -0.09898500144481659
v 0.07771998643875122 -0.02004098892211914 -0.0674080029129982
v -0.0005710124969482422 0.014688998460769653 -0.014918999746441841
v -0.057169973850250244 0.04190900921821594 0.10667800158262253
v -0.05637997388839722 0.032579004764556885 0.275191992521286
v -0.0005699992179870605 0.005428999662399292 0.3721970021724701
v 0.12198001146316528 -0.0518609881401062 0.4542199969291687
v 0.24790000915527344 -0.10597997903823853 0.41975200176239014
v 0.33306998014450073 -0.13533002138137817 0.331743985414505
v 0.3763999938964844 -0.1621999740600586 0.18310199677944183
v 0.3763999938964844 -0.1621999740600586 0.18310199677944183
v 0.34508001804351807 -0.1367499828338623 0.03546600043773651
v 0.2539200186729431 -0.10097098350524902 -0.06860200315713882

vn -0.6476820111274719 0.11052999645471573 0.7538509964942932
vn -0.7114089727401733 -0.03872799873352051 0.7017099857330322
vn 0.3149079978466034 -0.4475109875202179 0.8369989991188049
vn 0.026246000081300735 -0.00950200017541647 0.9996100068092346
vn 0.851203978061676 0.25064998865127563 0.4611150026321411
vn 0.5947020053863525 0.14655199646949768 0.7904760241508484
vn 0.6472160220146179 -0.5544040203094482 0.5232099890708923
vn 0.8855800032615662 -0.29379698634147644 0.35976600646972656
vn 0.9075949788093567 0.39938199520111084 0.12947900593280792
vn 0.9990969896316528 -0.03221699967980385 -0.02769099920988083
vn 0.7209410071372986 0.6484770178794861 -0.24437999725341797
vn 0.9075949788093567 0.39938199520111084 0.12947900593280792
vn 0.9990969896316528 -0.03221699967980385 -0.02769099920988083
vn 0.742277979850769 0.47832000255584717 -0.46928900480270386
vn 0.4336470067501068 0.6976220011711121 -0.5703269839286804
vn 0.13878799974918365 0.4061279892921448 -0.9032160043716431
vn 0.0005109999910928309 0.6043260097503662 -0.796737015247345
vn -0.18140199780464172 0.02539999969303608 -0.9830809831619263
vn -0.44297999143600464 0.2832129895687103 -0.8506230115890503
vn -0.31491899490356445 0.44249698519706726 -0.8396559953689575
vn -0.6997979879379272 0.38682499527931213 -0.6005409955978394
vn -0.7946569919586182 0.12298999726772308 -0.5944690108299255
vn -0.9940429925918579 -0.028838999569416046 -0.105103999376297
vn -0.9533299803733826 0.23468099534511566 -0.18996399641036987
vn -0.9551950097084045 0.16230900585651398 0.24750299751758575
vn -0.9788939952850342 -0.07019499689340591 0.19193600118160248
vn 0.24444399774074554 -0.9347929954528809 0.25770100951194763
vn 0.6720690131187439 -0.7246659994125366 0.15225699543952942
vn 0.30918100476264954 -0.9448050260543823 0.1084040030837059
vn -0.023347999900579453 -0.9352620244026184 0.3531860113143921
vn 0.8030800223350525 -0.4875980019569397 0.3425059914588928
vn 0.824180006980896 -0.5662209987640381 0.011006000451743603
vn 0.38267698884010315 -0.8974599838256836 -0.21936999261379242
vn -0.20864799618721008 -0.9579520225524902 -0.19696199893951416
vn -0.23478899896144867 -0.8230819702148438 -0.5171170234680176
vn 0.5309000015258789 -0.7477819919586182 -0.39870598912239075
vn 0.7128580212593079 -0.7010779976844788 -0.01795700006186962
vn 0.558987021446228 -0.7162349820137024 0.4177809953689575
vn -0.026124000549316406 -0.999288022518158 0.027219999581575394
vn -0.07792399823665619 -0.9916309714317322 0.10294199734926224
vn 0.10907900333404541 -0.6498200297355652 -0.7522209882736206
vn 0.2222670018672943 -0.9267460107803345 -0.3028860092163086
vn 0.4754660129547119 -0.5045269727706909 -0.7206839919090271
vn -0.3095740079879761 -0.7934290170669556 -0.5240560173988342
vn 0.6178240180015564 -0.7514790296554565 0.23145900666713715
vn 0.1846420019865036 -0.9819890260696411 0.040063001215457916
vn 0.1529020071029663 -0.9181089997291565 0.36564600467681885
vn 0.6299340128898621 -0.4847530126571655 0.606793999671936
vn 0.20157399773597717 -0.5977370142936707 0.775937020778656
vn -0.04983599856495857 -0.7939689755439758 0.6059120297431946
vn -0.4861440062522888 -0.4540979862213135 0.7466310262680054
vn -0.7367810010910034 -0.016885999590158463 0.6759210228919983
vn -0.8917449712753296 -0.24597400426864624 0.3798530101776123
vn -0.35352298617362976 -0.21649399399757385 0.9100289940834045
vn -0.971127986907959 -0.18333399295806885 0.15264399349689484
vn -0.9586740136146545 0.08471599966287613 0.27160200476646423
vn -0.9278609752655029 -0.3222599923610687 -0.18767599761486053
vn -0.9778289794921875 0.04757000133395195 -0.20393100380897522
vn -0.7528190016746521 -0.4096849858760834 -0.5151910185813904
vn -0.759909987449646 -0.08172000199556351 -0.6448709964752197
vn -0.5161809921264648 -0.5450090169906616 -0.6606979966163635
vn -0.4206480085849762 -0.3920759856700897 -0.8181269764900208
vn -0.6773480176925659 -0.5026469826698303 -0.5371649861335754
vn -0.611890971660614 -0.21305200457572937 -0.7617070078849792
vn 0.2657420039176941 -0.24748000502586365 0.931738018989563
vn 0.9926850199699402 -0.07325799763202667 -0.09596599638462067
vn 0.5070229768753052 -0.8273379802703857 0.24174199998378754
vn 0.9614059925079346 -0.16011400520801544 0.22374500334262848
vn 0.06450500339269638 -0.03661699965596199 -0.9972450137138367
vn -0.9185640215873718 -0.24719400703907013 -0.3084389865398407
vn -0.9693869948387146 -0.22835500538349152 -0.09023699909448624
vn -0.9008359909057617 -0.3625580072402954 0.23884400725364685
vn 0.46469199657440186 -0.8849740028381348 -0.029702000319957733
vn 0.9890940189361572 -0.12757299840450287 -0.07361000031232834
vn 0.12818899750709534 -0.939437985420227 -0.3178440034389496
vn 0.2657420039176941 -0.24748000502586365 0.931738018989563
vn 0.3149079978466034 -0.4475109875202179 0.8369989991188049
vn 0.558987021446228 -0.7162349820137024 0.4177809953689575
vn 0.26715001463890076 -0.30567100644111633 0.9138910174369812
vn -0.5235549807548523 -0.6814969778060913 0.5113239884376526
vn 0.06450500339269638 -0.03661699965596199 -0.9972450137138367
vn -0.18140199780464172 0.02539999969303608 -0.9830809831619263
vn 0.892844021320343 -0.07338699698448181 -0.44434601068496704
vn 0.824180006980896 -0.5662209987640381 0.011006000451743603
vn 0.8030800223350525 -0.4875980019569397 0.3425059914588928
vn 0.4225330054759979 -0.4468330144882202 -0.7885469794273376
vn 0.9275839924812317 -0.006105999927967787 -0.3735649883747101
vn 0.8880329728126526 -0.2740660011768341 0.3691680133342743
vn 0.512408971786499 -0.7874889969825745 0.34248799085617065
vn -0.5921210050582886 -0.7687439918518066 0.2417130023241043
vn -0.7921079993247986 -0.6012769937515259 -0.10502800345420837
vn -0.6931639909744263 -0.5460579991340637 -0.4704729914665222
vn 0.26715001463890076 -0.30567100644111633 0.9138910174369812
vn 0.9496909976005554 0.22225700318813324 0.22065599262714386
vn 0.8880329728126526 -0.2740660011768341 0.3691680133342743
vn 0.512408971786499 -0.7874889969825745 0.34248799085617065
vn 0.8880329728126526 -0.2740660011768341 0.3691680133342743
vn -0.17607499659061432 -0.7252020239830017 -0.6656429767608643
vn -0.26144900918006897 -0.9613990187644958 0.08577100187540054
vn 0.12818899750709534 -0.939437985420227 -0.3178440034389496
vn 0.026246000081300735 -0.00950200017541647 0.9996100068092346
vn 0.512660026550293 -0.8571860194206238 0.04910799860954285
vn -0.26144900918006897 -0.9613990187644958 0.08577100187540054
vn -0.26144900918006897 -0.9613990187644958 0.08577100187540054
vn 0.3836970031261444 -0.6383789777755737 -0.6672700047492981
vn 0.0437530018389225 -0.6532099843025208 -0.7559120059013367
vn -0.4302450120449066 -0.20798499882221222 -0.8784260153770447
vn 0.3680190145969391 -0.019228000193834305 -0.9296200275421143
vn 0.2118609994649887 -0.07260700315237045 -0.9745990037918091
vn -0.549934983253479 -0.45392099022865295 -0.7010899782180786
vn -0.6557570099830627 0.05079200118780136 -0.7532619833946228
vn -0.7228080034255981 -0.15952900052070618 0.6723830103874207
vn 0.9289109706878662 0.3686639964580536 -0.03481600061058998
vn 0.9344030022621155 0.34605398774147034 0.0844929963350296
vn 0.9939370155334473 -0.10956700146198273 0.009170999750494957
vn 0.9517139792442322 0.3068639934062958 -0.008698999881744385
vn 0.9617919921875 0.2376919984817505 -0.1358650028705597
vn 0.9866089820861816 -0.06848900020122528 0.14802700281143188
vn 0.9880689978599548 0.14299100637435913 0.05721500143408775
vn 0.9460129737854004 -0.31972599029541016 -0.05324399843811989
vn 0.43183499574661255 -0.5796160101890564 -0.6910589933395386
vn -0.15810200572013855 -0.7736870050430298 -0.6135240197181702
vn 0.9361799955368042 0.23950499296188354 -0.25730299949645996
vn 0.2118609994649887 -0.07260700315237045 -0.9745990037918091
vn 0.9831069707870483 -0.07529900223016739 -0.16682499647140503
vn 0.43183499574661255 -0.5796160101890564 -0.6910589933395386
vn 0.38267698884010315 -0.8974599838256836 -0.21936999261379242
vn 0.5309000015258789 -0.7477819919586182 -0.39870598912239075
vn 0.9534450173377991 -0.2081490010023117 -0.21821199357509613
vn 0.7128580212593079 -0.7010779976844788 -0.01795700006186962
vn 0.5149160027503967 -0.8565750122070312 -0.03377699851989746
vn 0.558987021446228 -0.7162349820137024 0.4177809953689575
vn 0.6598780155181885 -0.6889790296554565 -0.29978200793266296
vn 0.8386610150337219 -0.43166500329971313 -0.33213499188423157
vn 0.9482709765434265 -0.30598700046539307 -0.08458200097084045
vn 0.9816679954528809 -0.15590399503707886 0.10964100062847137
vn 0.9816679954528809 -0.15590399503707886 0.10964100062847137
vn 0.9482709765434265 -0.30598700046539307 -0.08458200097084045
vn 0.9836639761924744 -0.09294500201940536 0.15416400134563446
vn 0.882839024066925 -0.2693929970264435 0.3847379982471466
vn 0.7250630259513855 -0.11674900352954865 0.6787149906158447
vn 0.9588239789009094 -0.05071699991822243 0.27943700551986694
vn -0.31976500153541565 0.5298320055007935 0.7855119705200195
vn 0.21334899961948395 0.19534100592136383 0.9572479724884033
vn 0.7822319865226746 0.14972899854183197 0.6047260165214539
vn 0.5613800287246704 0.5873669981956482 0.5829690098762512
vn -0.5973889827728271 0.749206006526947 0.28603699803352356
vn 0.5659840106964111 0.7934510111808777 0.22382299602031708
vn -0.623304009437561 0.3284519910812378 -0.7096560001373291
vn -0.6741899847984314 0.6710730195045471 -0.3084290027618408
vn 0.4246219992637634 0.8613970279693604 -0.27873098850250244
vn 0.38132399320602417 0.6688479781150818 -0.6381490230560303
vn -0.5389260053634644 0.036605000495910645 -0.8415570259094238
vn 0.417356014251709 0.31934699416160583 -0.8507819771766663
vn -0.9493970274925232 -0.3085710108280182 0.05856600031256676
vn -0.6759909987449646 -0.7165150046348572 0.1721709966659546
vn -0.7213280200958252 -0.6669440269470215 0.1867389976978302
vn -0.9672009944915771 -0.23250600695610046 0.10228700190782547
vn -0.13278000056743622 -0.9883340001106262 0.07460299879312515
vn -0.08794499933719635 -0.9904289841651917 0.10637400299310684
vn 0.6794710159301758 -0.727154016494751 0.09780699759721756
vn 0.5149160027503967 -0.8565750122070312 -0.03377699851989746
vn 0.9879810214042664 0.14258499443531036 -0.05968799814581871
vn 0.6794710159301758 -0.727154016494751 0.09780699759721756
vn 0.9455410242080688 0.2984510064125061 -0.12991799414157867
vn 0.930849015712738 0.3513230085372925 -0.1004600003361702
vn 0.9896249771118164 -0.11412999778985977 -0.08727099746465683
vn 0.987492024898529 -0.13461999595165253 -0.08208300173282623
vn 0.6598780155181885 -0.6889790296554565 -0.29978200793266296
vn 0.3836970031261444 -0.6383789777755737 -0.6672700047492981
vn 0.9999780058860779 -0.006591999903321266 9.999999747378752e-05
vn 0.9482709765434265 -0.30598700046539307 -0.08458200097084045
vn 0.9836639761924744 -0.09294500201940536 0.15416400134563446
vn 0.9588239789009094 -0.05071699991822243 0.27943700551986694
vn 0.5613800287246704 0.5873669981956482 0.5829690098762512
vn 0.7822319865226746 0.14972899854183197 0.6047260165214539
vn 0.4246219992637634 0.8613970279693604 -0.27873098850250244
vn 0.5659840106964111 0.7934510111808777 0.22382299602031708
vn 0.38132399320602417 0.6688479781150818 -0.6381490230560303
vn 0.3680190145969391 -0.019228000193834305 -0.9296200275421143
vn 0.417356014251709 0.31934699416160583 -0.8507819771766663
vn -0.3503200113773346 0.3229140043258667 -0.8792060017585754
vn 0.007689000107347965 0.17670300602912903 -0.9842339754104614
vn -0.10005100071430206 -0.2102160006761551 -0.9725220203399658
vn -0.471327006816864 -0.06570900231599808 -0.8795070052146912
vn -0.8619400262832642 0.4634679853916168 -0.20556500554084778
vn -0.6342629790306091 0.40670499205589294 -0.6574959754943848
vn -0.7612860202789307 0.03835099935531616 -0.6472809910774231
vn -0.9663439989089966 0.13879899680614471 -0.21659600734710693
vn -0.8489699959754944 0.4306969940662384 0.3061859905719757
vn -0.9508270025253296 0.11499600112438202 0.28758400678634644
vn -0.6115099787712097 0.3401019871234894 0.7144129872322083
vn -0.7192180156707764 -0.01887200027704239 0.6945279836654663
vn -0.11053100228309631 0.13464100658893585 0.9847109913825989
vn -0.2272620052099228 -0.24783200025558472 0.9417700171470642
vn 0.3841780126094818 -0.4072979986667633 0.8285629749298096
vn 0.48468101024627686 -0.07636400312185287 0.8713510036468506
vn 0.7392190098762512 -0.49455198645591736 0.45713698863983154
vn 0.8358259797096252 -0.1931460052728653 0.5138970017433167
vn 0.9654459953308105 -0.2602449953556061 0.013617999851703644
vn 0.8355720043182373 -0.5485640168190002 -0.029942000284790993
vn 0.9654459953308105 -0.2602449953556061 0.013617999851703644
vn 0.8355720043182373 -0.5485640168190002 -0.029942000284790993
vn 0.7423980236053467 -0.4813390076160431 -0.4660010039806366
vn 0.8595240116119385 -0.1820089966058731 -0.4775879979133606
vn 0.526494026184082 -0.03474999964237213 -0.8494679927825928
vn 0.3993169963359833 -0.3249329924583435 -0.8573009967803955
vn 0.008406000211834908 0.16562700271606445 -0.9861530065536499
vn -0.39938798546791077 0.10935500264167786 -0.9102370142936707
vn -0.7548379898071289 0.20037800073623657 -0.6245539784431458
vn -0.9686099886894226 0.15338100492954254 -0.19562600553035736
vn -0.9507489800453186 0.09010700136423111 0.29657700657844543
vn -0.7083359956741333 0.057305000722408295 0.7035459876060486
vn -0.2298949956893921 -0.17412300407886505 0.9575120210647583
vn 0.4477179944515228 -0.10780800133943558 0.8876519799232483
vn -0.2298949956893921 -0.17412300407886505 0.9575120210647583
vn 0.8622519969940186 -0.100102998316288 0.4964889883995056
vn 0.9981750249862671 0.024893999099731445 0.05501599982380867
vn 0.9295129776000977 0.03206700086593628 -0.36739200353622437
vn 0.9981750249862671 0.024893999099731445 0.05501599982380867
vn 0.5766990184783936 0.21892499923706055 -0.787077009677887
vn -0.7528190016746521 -0.4096849858760834 -0.5151910185813904
vn -0.7367810010910034 -0.016885999590158463 0.6759210228919983
vn -0.4861440062522888 -0.4540979862213135 0.7466310262680054
vn 0.20157399773597717 -0.5977370142936707 0.775937020778656
vn 0.1529020071029663 -0.9181089997291565 0.36564600467681885
vn 0.6178240180015564 -0.7514790296554565 0.23145900666713715
vn 0.6178240180015564 -0.7514790296554565 0.23145900666713715
vn 0.2222670018672943 -0.9267460107803345 -0.3028860092163086
vn 0.10907900333404541 -0.6498200297355652 -0.7522209882736206
vn -0.5161809921264648 -0.5450090169906616 -0.6606979966163635
vn -0.611890971660614 -0.21305200457572937 -0.7617070078849792
vn -0.675150990486145 0.15838900208473206 0.7204750180244446
vn -0.14016400277614594 -0.00021100000594742596 0.9901279807090759
vn 0.006701999809592962 0.21206000447273254 0.9772340059280396
vn -0.5500220060348511 0.40529900789260864 0.7302110195159912
vn -0.7973049879074097 0.5018560290336609 0.33532801270484924
vn -0.9352899789810181 0.19928300380706787 0.29243600368499756
vn -0.8670439720153809 0.4356189966201782 -0.24180899560451508
vn -0.9652389883995056 0.13798299431800842 -0.22197699546813965
vn -0.6330620050430298 0.31510600447654724 -0.7070649862289429
vn -0.7370929718017578 0.03241400048136711 -0.6750140190124512
vn -0.05211300030350685 -0.033160001039505005 -0.9980900287628174
vn -0.16256700456142426 -0.23683999478816986 -0.957850992679596
vn -0.4907189905643463 -0.08322399854660034 -0.8673340082168579
vn -0.39809900522232056 0.13642899692058563 -0.9071409702301025
vn 0.41019999980926514 -0.23762500286102295 -0.8804939985275269
vn 0.2669549882411957 -0.4501799941062927 -0.8520990014076233
vn 0.8392360210418701 -0.16890400648117065 -0.5168700218200684
vn 0.5997059941291809 -0.6656839847564697 -0.4440920054912567
vn 0.9601460099220276 -0.24586500227451324 0.13293099403381348
vn 0.8420119881629944 -0.5376160144805908 0.044548001140356064
vn 0.8750789761543274 0.09362500160932541 0.474837988615036
vn 0.7521650195121765 -0.3807240128517151 0.53786301612854
vn 0.8420119881629944 -0.5376160144805908 0.044548001140356064
vn 0.9601460099220276 -0.24586500227451324 0.13293099403381348
vn 0.5509080290794373 -0.04735799878835678 0.8332210183143616
vn 0.4351649880409241 -0.21461600065231323 0.8743979930877686
vn 0.43183499574661255 -0.5796160101890564 -0.6910589933395386
vn 0.43183499574661255 -0.5796160101890564 -0.6910589933395386
vn 0.558987021446228 -0.7162349820137024 0.4177809953689575
vn 0.14801299571990967 0.5091549754142761 -0.8478519916534424
vn 0.6006579995155334 0.29271599650382996 -0.7439950108528137
vn 0.8979820013046265 0.10865200310945511 -0.42640700936317444
vn 0.9997109770774841 8.900000102585182e-05 0.024057000875473022
vn 0.9997109770774841 8.900000102585182e-05 0.024057000875473022
vn 0.8727350234985352 0.05534699931740761 0.48504599928855896
vn 0.5446249842643738 0.19278499484062195 0.8162209987640381
vn 0.007912999950349331 0.4135519862174988 0.9104459881782532
vn -0.45255300402641296 0.5890910029411316 0.6694530248641968
vn -0.6713730096817017 0.6821380257606506 0.2897360026836395
vn -0.6663820147514343 0.723239004611969 -0.18127399682998657
vn -0.44180700182914734 0.6837570071220398 -0.5807610154151917
vn -0.17667700350284576 0.6110929846763611 -0.771589994430542
vn -0.7548379898071289 0.20037800073623657 -0.6245539784431458
vn -0.9686099886894226 0.15338100492954254 -0.19562600553035736
vn -0.9507489800453186 0.09010700136423111 0.29657700657844543
vn -0.7083359956741333 0.057305000722408295 0.7035459876060486
vn -0.2298949956893921 -0.17412300407886505 0.9575120210647583
vn 0.4477179944515228 -0.10780800133943558 0.8876519799232483
vn 0.8622519969940186 -0.100102998316288 0.4964889883995056
vn 0.9981750249862671 0.024893999099731445 0.05501599982380867
vn 0.9981750249862671 0.024893999099731445 0.05501599982380867
vn 0.9295129776000977 0.03206700086593628 -0.36739200353622437
vn 0.5766990184783936 0.21892499923706055 -0.787077009677887
vn 0.008406000211834908 0.16562700271606445 -0.9861530065536499
vn -0.39938798546791077 0.10935500264167786 -0.9102370142936707
vn -0.4206480085849762 -0.3920759856700897 -0.8181269764900208
vn -0.6773480176925659 -0.5026469826698303 -0.5371649861335754
vn -0.759909987449646 -0.08172000199556351 -0.6448709964752197
vn -0.9278609752655029 -0.3222599923610687 -0.18767599761486053
vn -0.9586740136146545 0.08471599966287613 0.27160200476646423
vn -0.8917449712753296 -0.24597400426864624 0.3798530101776123
vn -0.35352298617362976 -0.21649399399757385 0.9100289940834045
vn -0.04983599856495857 -0.7939689755439758 0.6059120297431946
vn 0.6299340128898621 -0.4847530126571655 0.606793999671936
vn 0.1846420019865036 -0.9819890260696411 0.040063001215457916
vn 0.1846420019865036 -0.9819890260696411 0.040063001215457916
vn 0.4754660129547119 -0.5045269727706909 -0.7206839919090271
vn -0.3095740079879761 -0.7934290170669556 -0.5240560173988342
vn -0.0031469999812543392 0.1011819988489151 -0.994862973690033
vn -0.36359500885009766 0.24949799478054047 -0.8975239992141724
vn -0.6566759943962097 0.35594800114631653 -0.6648899912834167
vn -0.8955749869346619 0.4011459946632385 -0.1924239993095398
vn -0.8499680161476135 0.42830801010131836 0.306769996881485
vn -0.5842419862747192 0.35933199524879456 0.7276970148086548
vn -0.06850899755954742 0.20837099850177765 0.9756479859352112
vn 0.5222880244255066 -0.012954999692738056 0.8526710271835327
vn 0.8244839906692505 -0.17688000202178955 0.5375310182571411
vn 0.9587270021438599 -0.2750389873981476 0.07208099961280823
vn 0.9587270021438599 -0.2750389873981476 0.07208099961280823
vn 0.8088589906692505 -0.41635000705718994 -0.4152109920978546
vn 0.5073530077934265 -0.15672500431537628 -0.847366988658905

vt 0.7849709987640381 0.8779470026493073
vt 0.7875459790229797 0.9219689965248108
vt 0.826786994934082 0.9012129977345467
vt 0.8149510025978088 0.87882000207901
vt 0.5691440105438232 0.8664910048246384
vt 0.551455020904541 0.8687440007925034
vt 0.5619869828224182 0.8858669996261597
vt 0.5732690095901489 0.8776310011744499
vt 0.5867279767990112 0.8641919940710068
vt 0.5960170030593872 0.8719079941511154
vt 0.675570011138916 0.8632279932498932
vt 0.663923978805542 0.8398669958114624
vt 0.6565539836883545 0.8486039936542511
vt 0.6644840240478516 0.8834730014204979
vt 0.6843559741973877 0.8697459995746613
vt 0.668507993221283 0.8976309970021248
vt 0.697521984577179 0.8744249939918518
vt 0.6823580265045166 0.9075739979743958
vt 0.7024499773979187 0.9097189977765083
vt 0.71384197473526 0.8728100061416626
vt 0.729790985584259 0.8738590031862259
vt 0.7155159711837769 0.9323799982666969
vt 0.7426750063896179 0.9266080036759377
vt 0.7458540201187134 0.873757004737854
vt 0.7687169909477234 0.8759189993143082
vt 0.7712860107421875 0.922485001385212
vt 0.5746440291404724 0.8989910036325455
vt 0.5839669704437256 0.8905579969286919
vt 0.5979610085487366 0.9041239991784096
vt 0.6193410158157349 0.9070110023021698
vt 0.6183980107307434 0.8962550014257431
vt 0.5995579957962036 0.8862769976258278
vt 0.7433990240097046 0.9920089999213815
vt 0.7425469756126404 0.9851040001958609
vt 0.733601987361908 0.984991000033915
vt 0.7334020137786865 0.9912930000573397
vt 0.7796589732170105 0.989508000202477
vt 0.7884010076522827 0.9877089997753501
vt 0.7859029769897461 0.9846040001139045
vt 0.7791860103607178 0.9857729999348521
vt 0.8082950115203857 0.8684349954128265
vt 0.7836620211601257 0.844757005572319
vt 0.7875570058822632 0.8426010012626648
vt 0.8107200264930725 0.8638440072536469
vt 0.7783640027046204 0.8186479955911636
vt 0.7824649810791016 0.8171160072088242
vt 0.7910259962081909 0.783828005194664
vt 0.7937020063400269 0.7847740054130554
vt 0.807886004447937 0.7577819973230362
vt 0.8096510171890259 0.7594700008630753
vt 0.8386759757995605 0.7474769949913025
vt 0.8690189719200134 0.7631639987230301
vt 0.8663399815559387 0.7646660059690475
vt 0.8382560014724731 0.7496829926967621
vt 0.8862580060958862 0.7885800004005432
vt 0.8828629851341248 0.7884149998426437
vt 0.8827900290489197 0.8258399963378906
vt 0.8867520093917847 0.8276650011539459
vt 0.8726930022239685 0.8556119948625565
vt 0.8697310090065002 0.8519330024719238
vt 0.8382480144500732 0.8739800006151199
vt 0.8373110294342041 0.8690849989652634
vt 0.8540539741516113 0.862757995724678
vt 0.8562189936637878 0.8668809980154037
vt 0.8111500144004822 0.934748001396656
vt 0.5630319714546204 0.9373380020260811
vt 0.5685639977455139 0.9057369977235794
vt 0.5555999875068665 0.9341550022363663
vt 0.6939259767532349 0.9410680010914803
vt 0.7276510000228882 0.9443779997527599
vt 0.73996502161026 0.9361689984798431
vt 0.7843409776687622 0.9454119987785816
vt 0.60207200050354 0.9160299971699715
vt 0.5992159843444824 0.9488169997930527
vt 0.6164860129356384 0.9206599965691566
vt 0.5403379797935486 0.9245340004563332
vt 0.547415018081665 0.8908369988203049
vt 0.7911440134048462 0.9862299999222159
vt 0.8118090033531189 0.9577420018613338
vt 0.7930520176887512 0.9624189995229244
vt 0.6294450163841248 0.9481440000236034
vt 0.6373890042304993 0.9170299991965294
vt 0.6160439848899841 0.9509479999542236
vt 0.6451449990272522 0.8577640056610107
vt 0.6417819857597351 0.8817550018429756
vt 0.6514570116996765 0.9110469967126846
vt 0.6477779746055603 0.9040800034999847
vt 0.6399369835853577 0.9142120033502579
vt 0.6427099704742432 0.9221749976277351
vt 0.7786719799041748 0.9665389992296696
vt 0.7452710270881653 0.9706369992345572
vt 0.7325429916381836 0.9691059999167919
vt 0.5393000245094299 0.9382960014045238
vt 0.5536810159683228 0.9499339982867241
vt 0.6416230201721191 0.8948339968919754
vt 0.6301450133323669 0.8964359983801842
vt 0.6296300292015076 0.8899390026926994
vt 0.6568610072135925 0.9199279993772507
vt 0.6636009812355042 0.9316290020942688
vt 0.6805750131607056 0.9313710033893585
vt 0.5360810160636902 0.8693509995937347
vt 0.5819119811058044 0.9107709974050522
vt 0.6314299702644348 0.9062139987945557
vt 0.6506230235099792 0.9306719973683357
vt 0.9385460019111633 0.9241200014948845
vt 0.9199270009994507 0.9270500019192696
vt 0.9290570020675659 0.8972159996628761
vt 0.958450973033905 0.9015759974718094
vt 0.7046849727630615 0.9685730002820492
vt 0.7190729975700378 0.9675140008330345
vt 0.7158750295639038 0.9426590017974377
vt 0.7930030226707458 0.9364669993519783
vt 0.5626680254936218 0.9503480009734631
vt 0.5971419811248779 0.9597459994256496
vt 0.5881270170211792 0.9454209990799427
vt 0.587867021560669 0.9596659988164902
vt 0.5612900257110596 0.9587850011885166
vt 0.5535939931869507 0.960622001439333
vt 0.5957670211791992 0.9706020001322031
vt 0.5871890187263489 0.9724259991198778
vt 0.716405987739563 0.9883129997178912
vt 0.7212030291557312 0.9861759999766946
vt 0.6112769842147827 0.9631429985165596
vt 0.6189630031585693 0.9652700014412403
vt 0.606486976146698 0.9740159995853901
vt 0.6105350255966187 0.9786830004304647
vt 0.5857179760932922 0.978685000911355
vt 0.593870997428894 0.9765310008078814
vt 0.5669950246810913 0.96424800157547
vt 0.5603830218315125 0.9636159986257553
vt 0.5663040280342102 0.9699770007282495
vt 0.5484970211982727 0.9639489986002445
vt 0.9271900057792664 0.9481929987668991
vt 0.9172139763832092 0.9553719982504845
vt 0.9322010278701782 0.9828900005668402
vt 0.9234910011291504 0.9835570007562637
vt 0.92432701587677 0.6334049999713898
vt 0.9311779737472534 0.639045000076294
vt 0.9307529926300049 0.6724759936332703
vt 0.9188539981842041 0.669514000415802
vt 0.9199730157852173 0.6911810040473938
vt 0.9367380142211914 0.6913340091705322
vt 0.9353790283203125 0.7563149929046631
vt 0.9242600202560425 0.7185710072517395
vt 0.9524419903755188 0.7114390134811401
vt 0.98089998960495 0.748649001121521
vt 0.9415500164031982 0.7895579934120178
vt 0.9978529810905457 0.7930169999599457
vt 0.936693012714386 0.8576059937477112
vt 0.9409390091896057 0.8279310017824173
vt 0.9968709945678711 0.8397140055894852
vt 0.982824981212616 0.8689499944448471
vt 0.9325479865074158 0.8779240027070045
vt 0.9709709882736206 0.8860500007867813
vt 0.7571930289268494 0.9456849992275238
vt 0.758886992931366 0.9748030006885529
vt 0.7703549861907959 0.9682760015130043
vt 0.7716519832611084 0.9394989982247353
vt 0.759289026260376 0.9876020001247525
vt 0.7677379846572876 0.987580000422895
vt 0.7587209939956665 0.9908100003376603
vt 0.7690230011940002 0.9913100004196167
vt 0.5772200226783752 0.963893998414278
vt 0.5765389800071716 0.9705110006034374
vt 0.5770490169525146 0.9539799988269806
vt 0.5674239993095398 0.9520709998905659
vt 0.5790309906005859 0.942816000431776
vt 0.570065975189209 0.9394170008599758
vt 0.800324022769928 0.8152769953012466
vt 0.7997789978981018 0.7973980009555817
vt 0.8377519845962524 0.8105069994926453
vt 0.8102220296859741 0.8363579958677292
vt 0.828918993473053 0.8468140065670013
vt 0.8414880037307739 0.8501140028238297
vt 0.8727689981460571 0.8230970054864883
vt 0.8570740222930908 0.8470029979944229
vt 0.8556519746780396 0.7739039957523346
vt 0.8727689981460571 0.7951260060071945
vt 0.8357290029525757 0.773485004901886
vt 0.8131420016288757 0.7838910073041916
vt 0.8237540125846863 0.7774479985237122
vt 0.5048249959945679 0.725288987159729
vt 0.481905996799469 0.7251240015029907
vt 0.48204898834228516 0.6780999898910522
vt 0.5047119855880737 0.6752969920635223
vt 0.5582360029220581 0.7230010032653809
vt 0.526602029800415 0.7232809960842133
vt 0.5282620191574097 0.671860009431839
vt 0.5599409937858582 0.6692250072956085
vt 0.5984960198402405 0.7211880087852478
vt 0.6021749973297119 0.6676459908485413
vt 0.6252490282058716 0.721331000328064
vt 0.6292830109596252 0.668273001909256
vt 0.6626970171928406 0.7209179997444153
vt 0.6695569753646851 0.6724770069122314
vt 0.7006469964981079 0.6789290010929108
vt 0.6951689720153809 0.7267850041389465
vt 0.7344939708709717 0.6873570084571838
vt 0.7281789779663086 0.7329719960689545
vt 0.7644799947738647 0.736395001411438
vt 0.7683339715003967 0.693818986415863
vt 0.3824009895324707 0.7286100089550018
vt 0.38584598898887634 0.6838400065898895
vt 0.41883501410484314 0.6855120062828064
vt 0.4196060001850128 0.7300829887390137
vt 0.4562700092792511 0.7273190021514893
vt 0.45631900429725647 0.6812660098075867
vt 0.703993022441864 0.8648290038108826
vt 0.7172200083732605 0.8650220036506653
vt 0.7319560050964355 0.8655200004577637
vt 0.7466909885406494 0.8637010008096695
vt 0.7678869962692261 0.8639699965715408
vt 0.7825769782066345 0.866117000579834
vt 0.8021699786186218 0.8681650012731552
vt 0.5438470244407654 0.8578740060329437
vt 0.5270259976387024 0.8563719987869263
vt 0.5618199706077576 0.8545099943876266
vt 0.5796350240707397 0.8511839956045151
vt 0.6831200122833252 0.8498699963092804
vt 0.677249014377594 0.8361019939184189
vt 0.6927189826965332 0.8613909929990768
vt 0.8897600173950195 0.8616189956665039
vt 0.8876010179519653 0.75484499335289
vt 0.8906340003013611 0.7204029858112335
vt 0.8971880078315735 0.6882599890232086
vt 0.9025909900665283 0.6580780148506165
vt 0.9094079732894897 0.6205680072307587
vt 0.9048280119895935 0.9869659999385476
vt 0.896731972694397 0.962398000061512
vt 0.8952950239181519 0.9299969971179962
vt 0.8946400284767151 0.9012859985232353
vt 0.8925589919090271 0.8814470022916794
vt 0.6217179894447327 0.7781230062246323
vt 0.6595759987831116 0.7758730053901672
vt 0.6590759754180908 0.7988869994878769
vt 0.6212769746780396 0.8025529980659485
vt 0.5963960289955139 0.8044980019330978
vt 0.5962030291557312 0.7792630046606064
vt 0.558713972568512 0.8068490028381348
vt 0.5579339861869812 0.7814520001411438
vt 0.5272859930992126 0.8060200065374374
vt 0.5267120003700256 0.7810149937868118
vt 0.4840480089187622 0.8028730005025864
vt 0.4837859869003296 0.7793779969215393
vt 0.5044569969177246 0.7801779955625534
vt 0.5048800110816956 0.8047029972076416
vt 0.45982399582862854 0.7977560013532639
vt 0.45895901322364807 0.7768470048904419
vt 0.4289340078830719 0.7944259941577911
vt 0.4279569983482361 0.7762040048837662
vt 0.3933880031108856 0.7948649972677231
vt 0.3931730091571808 0.7739630043506622
vt 0.7149689793586731 0.7978370040655136
vt 0.7180879712104797 0.7780430018901825
vt 0.7526530027389526 0.7805300056934357
vt 0.7501630187034607 0.8007629960775375
vt 0.6859710216522217 0.7978370040655136
vt 0.6891829967498779 0.7759030014276505
vt 0.7193499803543091 0.9906139997765422
vt 0.604777991771698 0.9813979994505644
vt 0.5525050163269043 0.9665880016982555
vt 0.48267000913619995 0.7458879947662354
vt 0.45763298869132996 0.7474829852581024
vt 0.4225560128688812 0.7484920024871826
vt 0.3867169916629791 0.7470589876174927
vt 0.7582939863204956 0.7537260055541992
vt 0.7230539917945862 0.75033900141716
vt 0.6921989917755127 0.7449269890785217
vt 0.6601660251617432 0.7415280044078827
vt 0.6242470145225525 0.7421430051326752
vt 0.5975109934806824 0.7425230145454407
vt 0.5575699806213379 0.7442480027675629
vt 0.526511013507843 0.7448210120201111
vt 0.5046560168266296 0.7462680041790009
vt 0.5295609831809998 0.6546759903430939
vt 0.5615159869194031 0.6517080068588257
vt 0.603456974029541 0.6500360071659088
vt 0.6311020255088806 0.6506609916687012
vt 0.6696079969406128 0.6567839980125427
vt 0.7032219767570496 0.6635859906673431
vt 0.7333999872207642 0.6728389859199524
vt 0.7659459710121155 0.6792730093002319
vt 0.38842999935150146 0.6690439879894257
vt 0.4196549952030182 0.670877993106842
vt 0.4528050124645233 0.6673870086669922
vt 0.47769999504089355 0.6624949872493744
vt 0.5030760169029236 0.6578820049762726
vt 0.486613005399704 0.8339180052280426
vt 0.505357027053833 0.8390000015497208
vt 0.5258129835128784 0.8436329960823059
vt 0.5574480295181274 0.847583994269371
vt 0.5913119912147522 0.8460379987955093
vt 0.6232650279998779 0.8404300063848495
vt 0.6557239890098572 0.8314210027456284
vt 0.6852399706840515 0.8255800008773804
vt 0.7153270244598389 0.8236480057239532
vt 0.7495099902153015 0.8225300014019012
vt 0.4033240079879761 0.8158490061759949
vt 0.42955300211906433 0.8164609968662262
vt 0.46137601137161255 0.8240270018577576
vt 0.48230600357055664 0.7639929950237274
vt 0.5034580230712891 0.7638629972934723
vt 0.5267620086669922 0.7635190039873123
vt 0.5582870244979858 0.7634889930486679
vt 0.5973029732704163 0.7615509927272797
vt 0.6238830089569092 0.7614910006523132
vt 0.6593819856643677 0.7614410072565079
vt 0.6910449862480164 0.7631029933691025
vt 0.7192699909210205 0.7658839970827103
vt 0.7509700059890747 0.7682110071182251
vt 0.38941600918769836 0.7628609985113144
vt 0.4236449897289276 0.7637789994478226
vt 0.4568119943141937 0.7631220072507858

usemtl Material

f 1/1/1 2/2/2 3/3/3
f 3/3/3 4/4/4 1/1/1
f 5/5/5 6/6/6 7/7/7
f 7/7/7 8/8/8 5/5/5
f 9/9/9 5/5/5 8/8/8
f 8/8/8 10/10/10 9/9/9
f 11/11/11 12/12/12 13/13/13
f 13/13/13 14/14/14 11/11/11
f 15/15/15 11/11/11 14/14/14
f 14/14/14 16/16/16 15/15/15
f 17/17/17 18/18/18 19/19/19
f 19/19/19 20/20/20 17/17/17
f 21/21/21 22/22/22 23/23/23
f 23/23/23 24/24/24 21/21/21
f 25/25/25 26/26/26 2/2/2
f 2/2/2 1/1/1 25/25/25
f 8/8/8 7/7/7 27/27/27
f 27/27/27 28/28/28 8/8/8
f 29/29/29 30/30/30 31/31/31
f 31/31/31 32/32/32 29/29/29
f 33/33/33 34/34/34 35/35/35
f 35/35/35 36/36/36 33/33/33
f 37/37/37 38/38/38 39/39/39
f 39/39/39 40/40/40 37/37/37
f 41/41/41 42/42/42 43/43/43
f 43/43/43 44/44/44 41/41/41
f 45/45/45 46/46/46 43/43/43
f 43/43/43 42/42/42 45/45/45
f 46/46/46 45/45/45 47/47/47
f 47/47/47 48/48/48 46/46/46
f 49/49/49 50/50/50 48/48/48
f 48/48/48 47/47/47 49/49/49
f 51/51/51 52/52/52 53/53/53
f 53/53/53 54/54/54 51/51/51
f 52/52/52 55/55/55 56/56/56
f 56/56/56 53/53/53 52/52/52
f 57/57/57 58/58/58 59/59/59
f 59/59/59 60/60/60 57/57/57
f 61/61/61 62/62/62 63/63/63
f 63/63/63 64/64/64 61/61/61
f 3/3/3 2/2/2 65/65/65
f 66/66/66 67/67/67 68/68/68
f 69/69/69 22/22/22 19/19/19
f 19/19/19 18/18/18 69/69/69
f 23/23/23 70/70/70 71/71/71
f 2/2/2 26/26/26 72/72/72
f 73/73/73 74/74/74 75/75/75
f 76/76/76 68/68/68 67/67/67
f 67/67/67 77/77/77 76/76/76
f 78/78/78 79/79/79 80/80/80
f 80/80/80 39/39/39 78/78/78
f 81/81/81 82/82/82 75/75/75
f 75/75/75 83/83/83 81/81/81
f 29/29/29 32/32/32 28/28/28
f 28/28/28 27/27/27 29/29/29
f 14/14/14 13/13/13 84/84/84
f 84/84/84 85/85/85 14/14/14
f 10/10/10 8/8/8 28/28/28
f 28/28/28 32/32/32 10/10/10
f 86/86/86 87/87/87 88/88/88
f 88/88/88 89/89/89 86/86/86
f 39/39/39 80/80/80 90/90/90
f 90/90/90 40/40/40 39/39/39
f 34/34/34 91/91/91 92/92/92
f 92/92/92 35/35/35 34/34/34
f 68/68/68 76/76/76 93/93/93
f 93/93/93 94/94/94 68/68/68
f 87/87/87 14/14/14 85/85/85
f 85/85/85 95/95/95 87/87/87
f 96/96/96 97/97/97 31/31/31
f 31/31/31 30/30/30 96/96/96
f 98/98/98 99/99/99 100/100/100
f 100/100/100 18/18/18 98/98/98
f 87/87/87 86/86/86 16/16/16
f 16/16/16 14/14/14 87/87/87
f 51/51/51 54/54/54 50/50/50
f 50/50/50 49/49/49 51/51/51
f 6/6/6 101/101/101 77/77/77
f 77/77/77 7/7/7 6/6/6
f 7/7/7 77/77/77 67/67/67
f 67/67/67 27/27/27 7/7/7
f 27/27/27 67/67/67 102/102/102
f 102/102/102 29/29/29 27/27/27
f 73/73/73 75/75/75 30/30/30
f 30/30/30 29/29/29 73/73/73
f 103/103/103 96/96/96 30/30/30
f 30/30/30 75/75/75 103/103/103
f 98/98/98 86/86/86 89/89/89
f 89/89/89 104/104/104 98/98/98
f 98/98/98 18/18/18 16/16/16
f 16/16/16 86/86/86 98/98/98
f 17/17/17 15/15/15 16/16/16
f 16/16/16 18/18/18 17/17/17
f 61/61/61 41/41/41 44/44/44
f 44/44/44 62/62/62 61/61/61
f 105/105/105 106/106/106 107/107/107
f 107/107/107 108/108/108 105/105/105
f 69/69/69 109/109/109 110/110/110
f 110/110/110 111/111/111 69/69/69
f 91/91/91 71/71/71 70/70/70
f 70/70/70 92/92/92 91/91/91
f 80/80/80 112/112/112 72/72/72
f 72/72/72 90/90/90 80/80/80
f 79/79/79 65/65/65 112/112/112
f 112/112/112 80/80/80 79/79/79
f 94/94/94 113/113/113 66/66/66
f 66/66/66 68/68/68 94/94/94
f 114/114/114 74/74/74 115/115/115
f 115/115/115 116/116/116 114/114/114
f 117/117/117 113/113/113 94/94/94
f 94/94/94 118/118/118 117/117/117
f 119/119/119 114/114/114 116/116/116
f 116/116/116 120/120/120 119/119/119
f 109/109/109 121/121/121 122/122/122
f 122/122/122 110/110/110 109/109/109
f 83/83/83 123/123/123 124/124/124
f 124/124/124 81/81/81 83/83/83
f 123/123/123 125/125/125 126/126/126
f 126/126/126 124/124/124 123/123/123
f 120/120/120 127/127/127 128/128/128
f 128/128/128 119/119/119 120/120/120
f 129/129/129 117/117/117 130/130/130
f 130/130/130 131/131/131 129/129/129
f 94/94/94 93/93/93 132/132/132
f 132/132/132 118/118/118 94/94/94
f 133/133/133 134/134/134 106/106/106
f 106/106/106 105/105/105 133/133/133
f 135/135/135 136/136/136 134/134/134
f 134/134/134 133/133/133 135/135/135
f 137/137/137 138/138/138 139/139/139
f 139/139/139 140/140/140 137/137/137
f 141/141/141 140/140/140 139/139/139
f 139/139/139 142/142/142 141/141/141
f 143/143/143 144/144/144 145/145/145
f 145/145/145 146/146/146 143/143/143
f 147/147/147 143/143/143 146/146/146
f 146/146/146 148/148/148 147/147/147
f 149/149/149 150/150/150 151/151/151
f 151/151/151 152/152/152 149/149/149
f 108/108/108 107/107/107 153/153/153
f 153/153/153 154/154/154 108/108/108
f 144/144/144 141/141/141 142/142/142
f 142/142/142 145/145/145 144/144/144
f 150/150/150 147/147/147 148/148/148
f 148/148/148 151/151/151 150/150/150
f 55/55/55 58/58/58 57/57/57
f 57/57/57 56/56/56 55/55/55
f 24/24/24 23/23/23 26/26/26
f 26/26/26 25/25/25 24/24/24
f 155/155/155 26/26/26 23/23/23
f 155/155/155 156/156/156 157/157/157
f 157/157/157 158/158/158 155/155/155
f 156/156/156 159/159/159 160/160/160
f 160/160/160 157/157/157 156/156/156
f 161/161/161 162/162/162 160/160/160
f 160/160/160 159/159/159 161/161/161
f 163/163/163 129/129/129 131/131/131
f 131/131/131 164/164/164 163/163/163
f 163/163/163 165/165/165 166/166/166
f 166/166/166 129/129/129 163/163/163
f 166/166/166 165/165/165 167/167/167
f 167/167/167 168/168/168 166/166/166
f 167/167/167 102/102/102 168/168/168
f 29/29/29 102/102/102 73/73/73
f 169/169/169 170/170/170 171/171/171
f 172/172/172 169/169/169 171/171/171
f 173/173/173 172/172/172 171/171/171
f 174/174/174 173/173/173 171/171/171
f 175/175/175 176/176/176 171/171/171
f 177/177/177 178/178/178 171/171/171
f 179/179/179 177/177/177 171/171/171
f 179/179/179 171/171/171 180/180/180
f 180/180/180 181/181/181 179/179/179
f 176/176/176 174/174/174 171/171/171
f 170/170/170 180/180/180 171/171/171
f 178/178/178 175/175/175 171/171/171
f 182/182/182 183/183/183 184/184/184
f 184/184/184 185/185/185 182/182/182
f 186/186/186 187/187/187 188/188/188
f 188/188/188 189/189/189 186/186/186
f 190/190/190 186/186/186 189/189/189
f 189/189/189 191/191/191 190/190/190
f 192/192/192 190/190/190 191/191/191
f 191/191/191 193/193/193 192/192/192
f 194/194/194 192/192/192 193/193/193
f 193/193/193 195/195/195 194/194/194
f 194/194/194 195/195/195 196/196/196
f 196/196/196 197/197/197 194/194/194
f 197/197/197 196/196/196 198/198/198
f 198/198/198 199/199/199 197/197/197
f 200/200/200 199/199/199 198/198/198
f 198/198/198 201/201/201 200/200/200
f 202/202/202 203/203/203 204/204/204
f 204/204/204 205/205/205 202/202/202
f 206/206/206 205/205/205 204/204/204
f 204/204/204 207/207/207 206/206/206
f 183/183/183 206/206/206 207/207/207
f 207/207/207 184/184/184 183/183/183
f 208/208/208 17/17/17 20/20/20
f 20/20/20 209/209/209 208/208/208
f 210/210/210 21/21/21 24/24/24
f 24/24/24 211/211/211 210/210/210
f 211/211/211 24/24/24 25/25/25
f 25/25/25 212/212/212 211/211/211
f 213/213/213 212/212/212 25/25/25
f 25/25/25 1/1/1 213/213/213
f 214/214/214 213/213/213 1/1/1
f 1/1/1 4/4/4 214/214/214
f 215/215/215 216/216/216 101/101/101
f 101/101/101 6/6/6 215/215/215
f 217/217/217 215/215/215 6/6/6
f 6/6/6 5/5/5 217/217/217
f 5/5/5 9/9/9 218/218/218
f 218/218/218 217/217/217 5/5/5
f 219/219/219 220/220/220 12/12/12
f 12/12/12 11/11/11 219/219/219
f 221/221/221 219/219/219 11/11/11
f 11/11/11 15/15/15 221/221/221
f 17/17/17 208/208/208 221/221/221
f 221/221/221 15/15/15 17/17/17
f 149/149/149 222/222/222 58/58/58
f 58/58/58 150/150/150 149/149/149
f 58/58/58 55/55/55 147/147/147
f 147/147/147 150/150/150 58/58/58
f 55/55/55 223/223/223 143/143/143
f 143/143/143 147/147/147 55/55/55
f 223/223/223 224/224/224 144/144/144
f 144/144/144 143/143/143 223/223/223
f 144/144/144 224/224/224 225/225/225
f 225/225/225 141/141/141 144/144/144
f 225/225/225 226/226/226 140/140/140
f 140/140/140 141/141/141 225/225/225
f 226/226/226 227/227/227 137/137/137
f 137/137/137 140/140/140 226/226/226
f 228/228/228 229/229/229 134/134/134
f 134/134/134 136/136/136 228/228/228
f 134/134/134 229/229/229 230/230/230
f 230/230/230 106/106/106 134/134/134
f 106/106/106 230/230/230 231/231/231
f 231/231/231 107/107/107 106/106/106
f 107/107/107 231/231/231 232/232/232
f 232/232/232 153/153/153 107/107/107
f 233/233/233 234/234/234 235/235/235
f 235/235/235 236/236/236 233/233/233
f 236/236/236 237/237/237 238/238/238
f 238/238/238 233/233/233 236/236/236
f 237/237/237 239/239/239 240/240/240
f 240/240/240 238/238/238 237/237/237
f 240/240/240 239/239/239 241/241/241
f 241/241/241 242/242/242 240/240/240
f 243/243/243 244/244/244 245/245/245
f 245/245/245 246/246/246 243/243/243
f 244/244/244 243/243/243 247/247/247
f 247/247/247 248/248/248 244/244/244
f 248/248/248 247/247/247 249/249/249
f 249/249/249 250/250/250 248/248/248
f 251/251/251 252/252/252 250/250/250
f 250/250/250 249/249/249 251/251/251
f 253/253/253 254/254/254 255/255/255
f 255/255/255 256/256/256 253/253/253
f 253/253/253 257/257/257 258/258/258
f 258/258/258 254/254/254 253/253/253
f 257/257/257 235/235/235 234/234/234
f 234/234/234 258/258/258 257/257/257
f 70/70/70 22/22/22 111/111/111
f 110/110/110 92/92/92 70/70/70
f 70/70/70 111/111/111 110/110/110
f 35/35/35 92/92/92 110/110/110
f 110/110/110 122/122/122 35/35/35
f 36/36/36 35/35/35 122/122/122
f 122/122/122 259/259/259 36/36/36
f 125/125/125 119/119/119 128/128/128
f 128/128/128 260/260/260 125/125/125
f 119/119/119 125/125/125 123/123/123
f 123/123/123 114/114/114 119/119/119
f 123/123/123 83/83/83 74/74/74
f 74/74/74 114/114/114 123/123/123
f 75/75/75 74/74/74 83/83/83
f 23/23/23 22/22/22 70/70/70
f 73/73/73 115/115/115 74/74/74
f 155/155/155 23/23/23 71/71/71
f 91/91/91 156/156/156 155/155/155
f 155/155/155 71/71/71 91/91/91
f 34/34/34 159/159/159 156/156/156
f 156/156/156 91/91/91 34/34/34
f 33/33/33 161/161/161 159/159/159
f 159/159/159 34/34/34 33/33/33
f 120/120/120 163/163/163 164/164/164
f 164/164/164 127/127/127 120/120/120
f 163/163/163 120/120/120 116/116/116
f 116/116/116 165/165/165 163/163/163
f 165/165/165 116/116/116 115/115/115
f 115/115/115 167/167/167 165/165/165
f 73/73/73 167/167/167 115/115/115
f 73/73/73 102/102/102 167/167/167
f 158/158/158 26/26/26 155/155/155
f 72/72/72 26/26/26 158/158/158
f 2/2/2 72/72/72 112/112/112
f 157/157/157 90/90/90 72/72/72
f 72/72/72 158/158/158 157/157/157
f 160/160/160 40/40/40 90/90/90
f 90/90/90 157/157/157 160/160/160
f 162/162/162 37/37/37 40/40/40
f 40/40/40 160/160/160 162/162/162
f 118/118/118 261/261/261 130/130/130
f 130/130/130 117/117/117 118/118/118
f 117/117/117 129/129/129 166/166/166
f 166/166/166 113/113/113 117/117/117
f 113/113/113 166/166/166 168/168/168
f 168/168/168 66/66/66 113/113/113
f 102/102/102 66/66/66 168/168/168
f 102/102/102 67/67/67 66/66/66
f 65/65/65 2/2/2 112/112/112
f 22/22/22 69/69/69 111/111/111
f 21/21/21 20/20/20 19/19/19
f 19/19/19 22/22/22 21/21/21
f 21/21/21 210/210/210 209/209/209
f 209/209/209 20/20/20 21/21/21
f 187/187/187 182/182/182 185/185/185
f 185/185/185 188/188/188 187/187/187
f 242/242/242 241/241/241 246/246/246
f 246/246/246 245/245/245 242/242/242
f 59/59/59 64/64/64 63/63/63
f 63/63/63 60/60/60 59/59/59
f 232/232/232 222/222/222 149/149/149
f 149/149/149 153/153/153 232/232/232
f 149/149/149 152/152/152 154/154/154
f 154/154/154 153/153/153 149/149/149
f 262/262/262 263/263/263 206/206/206
f 206/206/206 183/183/183 262/262/262
f 263/263/263 264/264/264 205/205/205
f 205/205/205 206/206/206 263/263/263
f 265/265/265 202/202/202 205/205/205
f 205/205/205 264/264/264 265/265/265
f 266/266/266 267/267/267 199/199/199
f 199/199/199 200/200/200 266/266/266
f 268/268/268 197/197/197 199/199/199
f 199/199/199 267/267/267 268/268/268
f 269/269/269 194/194/194 197/197/197
f 197/197/197 268/268/268 269/269/269
f 269/269/269 270/270/270 192/192/192
f 192/192/192 194/194/194 269/269/269
f 270/270/270 271/271/271 190/190/190
f 190/190/190 192/192/192 270/270/270
f 271/271/271 272/272/272 186/186/186
f 186/186/186 190/190/190 271/271/271
f 273/273/273 187/187/187 186/186/186
f 186/186/186 272/272/272 273/273/273
f 273/273/273 274/274/274 182/182/182
f 182/182/182 187/187/187 273/273/273
f 262/262/262 183/183/183 182/182/182
f 182/182/182 274/274/274 262/262/262
f 189/189/189 188/188/188 275/275/275
f 275/275/275 276/276/276 189/189/189
f 191/191/191 189/189/189 276/276/276
f 276/276/276 277/277/277 191/191/191
f 191/191/191 277/277/277 278/278/278
f 278/278/278 193/193/193 191/191/191
f 193/193/193 278/278/278 279/279/279
f 279/279/279 195/195/195 193/193/193
f 196/196/196 195/195/195 279/279/279
f 279/279/279 280/280/280 196/196/196
f 198/198/198 196/196/196 280/280/280
f 280/280/280 281/281/281 198/198/198
f 201/201/201 198/198/198 281/281/281
f 281/281/281 282/282/282 201/201/201
f 203/203/203 283/283/283 284/284/284
f 284/284/284 204/204/204 203/203/203
f 204/204/204 284/284/284 285/285/285
f 285/285/285 207/207/207 204/204/204
f 207/207/207 285/285/285 286/286/286
f 286/286/286 184/184/184 207/207/207
f 184/184/184 286/286/286 287/287/287
f 287/287/287 185/185/185 184/184/184
f 287/287/287 275/275/275 188/188/188
f 188/188/188 185/185/185 287/287/287
f 288/288/288 243/243/243 246/246/246
f 246/246/246 289/289/289 288/288/288
f 246/246/246 241/241/241 290/290/290
f 290/290/290 289/289/289 246/246/246
f 239/239/239 291/291/291 290/290/290
f 290/290/290 241/241/241 239/239/239
f 292/292/292 291/291/291 239/239/239
f 239/239/239 237/237/237 292/292/292
f 292/292/292 237/237/237 236/236/236
f 236/236/236 293/293/293 292/292/292
f 294/294/294 293/293/293 236/236/236
f 236/236/236 235/235/235 294/294/294
f 294/294/294 235/235/235 257/257/257
f 257/257/257 295/295/295 294/294/294
f 296/296/296 295/295/295 257/257/257
f 257/257/257 253/253/253 296/296/296
f 256/256/256 297/297/297 296/296/296
f 296/296/296 253/253/253 256/256/256
f 298/298/298 251/251/251 249/249/249
f 249/249/249 299/299/299 298/298/298
f 299/299/299 249/249/249 247/247/247
f 247/247/247 300/300/300 299/299/299
f 247/247/247 243/243/243 288/288/288
f 288/288/288 300/300/300 247/247/247
f 244/244/244 301/301/301 302/302/302
f 302/302/302 245/245/245 244/244/244
f 303/303/303 242/242/242 245/245/245
f 245/245/245 302/302/302 303/303/303
f 303/303/303 304/304/304 240/240/240
f 240/240/240 242/242/242 303/303/303
f 238/238/238 240/240/240 304/304/304
f 304/304/304 305/305/305 238/238/238
f 233/233/233 238/238/238 305/305/305
f 305/305/305 306/306/306 233/233/233
f 306/306/306 307/307/307 234/234/234
f 234/234/234 233/233/233 306/306/306
f 258/258/258 234/234/234 307/307/307
f 307/307/307 308/308/308 258/258/258
f 258/258/258 308/308/308 309/309/309
f 309/309/309 254/254/254 258/258/258
f 254/254/254 309/309/309 310/310/310
f 310/310/310 255/255/255 254/254/254
f 252/252/252 311/311/311 312/312/312
f 312/312/312 250/250/250 252/252/252
f 313/313/313 248/248/248 250/250/250
f 250/250/250 312/312/312 313/313/313
f 301/301/301 244/244/244 248/248/248
f 248/248/248 313/313/313 301/301/301
f 301/301/301 313/313/313 263/263/263
f 263/263/263 262/262/262 301/301/301
f 313/313/313 312/312/312 264/264/264
f 264/264/264 263/263/263 313/313/313
f 312/312/312 311/311/311 265/265/265
f 265/265/265 264/264/264 312/312/312
f 310/310/310 309/309/309 267/267/267
f 267/267/267 266/266/266 310/310/310
f 308/308/308 268/268/268 267/267/267
f 267/267/267 309/309/309 308/308/308
f 307/307/307 269/269/269 268/268/268
f 268/268/268 308/308/308 307/307/307
f 307/307/307 306/306/306 270/270/270
f 270/270/270 269/269/269 307/307/307
f 306/306/306 305/305/305 271/271/271
f 271/271/271 270/270/270 306/306/306
f 304/304/304 272/272/272 271/271/271
f 271/271/271 305/305/305 304/304/304
f 303/303/303 273/273/273 272/272/272
f 272/272/272 304/304/304 303/303/303
f 303/303/303 302/302/302 274/274/274
f 274/274/274 273/273/273 303/303/303
f 301/301/301 262/262/262 274/274/274
f 274/274/274 302/302/302 301/301/301