mtllib 58877834.mtl
o Mesh

v 0.12739500403404236 1.138219952583313 0.10166899859905243
v 0.04171900078654289 1.138219952583313 0.17714199423789978
v 0.08676400035619736 1.0551600456237793 0.24563099443912506
v 0.2054159939289093 1.0551600456237793 0.14110800623893738
v -0.07531700283288956 1.138219952583313 0.20476800203323364
v -0.07531700283288956 1.0551600456237793 0.2838880121707916
v -0.1923529952764511 1.138219952583313 0.17714199423789978
v -0.23739799857139587 1.0551600456237793 0.24563099443912506
v -0.2780289947986603 1.138219952583313 0.10166899859905243
v -0.3560490012168884 1.0551600456237793 0.14110800623893738
v -0.30938899517059326 1.138219952583313 -0.001429000054486096
v -0.3994790017604828 1.0551600456237793 -0.0016700000269338489
v -0.2780289947986603 1.138219952583313 -0.10452800244092941
v -0.3560490012168884 1.0551600456237793 -0.14444899559020996
v -0.1923529952764511 1.138219952583313 -0.18000200390815735
v -0.23739799857139587 1.0551600456237793 -0.24897100031375885
v -0.07531700283288956 1.138219952583313 -0.20762699842453003
v -0.07531700283288956 1.0551600456237793 -0.2872290015220642
v 0.04171900078654289 1.138219952583313 -0.18000200390815735
v 0.08676400035619736 1.0551600456237793 -0.24897100031375885
v 0.12739500403404236 1.138219952583313 -0.10452800244092941
v 0.2054159939289093 1.0551600456237793 -0.14444899559020996
v 0.15875500440597534 1.138219952583313 -0.001429000054486096
v 0.24884499609470367 1.0551600456237793 -0.0016700000269338489
v 0.3730120062828064 0.06752997636795044 -0.24194000661373138
v 0.40956300497055054 0.16955000162124634 -0.28231000900268555
v 0.4722900092601776 0.14591997861862183 -0.042681001126766205
v 0.4293709993362427 0.06752997636795044 -0.031606998294591904
v 0.2190369963645935 0.06752997636795044 -0.3959159851074219
v 0.23819099366664886 0.18685001134872437 -0.46721500158309937
v 0.40956300497055054 0.16955000162124634 -0.28231000900268555
v 0.3730120062828064 0.06752997636795044 -0.24194000661373138
v 0.008704000152647495 0.06752997636795044 -0.45227399468421936
v 0.004091000184416771 0.19317001104354858 -0.5348939895629883
v 0.23819099366664886 0.18685001134872437 -0.46721500158309937
v 0.2190369963645935 0.06752997636795044 -0.3959159851074219
v -0.23000900447368622 0.18685001134872437 -0.46721500158309937
v 0.004091000184416771 0.19317001104354858 -0.5348939895629883
v 0.008704000152647495 0.06752997636795044 -0.45227399468421936
v -0.20162899792194366 0.06752997636795044 -0.3959159851074219
v -0.4013819992542267 0.16955000162124634 -0.28231000900268555
v -0.23000900447368622 0.18685001134872437 -0.46721500158309937
v -0.20162899792194366 0.06752997636795044 -0.3959159851074219
v -0.35560399293899536 0.06752997636795044 -0.24194000661373138
v -0.46410900354385376 0.14591997861862183 -0.042681001126766205
v -0.4013819992542267 0.16955000162124634 -0.28231000900268555
v -0.35560399293899536 0.06752997636795044 -0.24194000661373138
v -0.41196298599243164 0.06752997636795044 -0.031606998294591904
v -0.4013819992542267 0.12229001522064209 0.20990300178527832
v -0.46410900354385376 0.14591997861862183 -0.042681001126766205
v -0.41196298599243164 0.06752997636795044 -0.031606998294591904
v -0.35560399293899536 0.06752997636795044 0.21998800337314606
v -0.23000900447368622 0.10499000549316406 0.39480799436569214
v -0.4013819992542267 0.12229001522064209 0.20990300178527832
v -0.35560399293899536 0.06752997636795044 0.21998800337314606
v -0.20162899792194366 0.06752997636795044 0.37396299839019775
v 0.004091000184416771 0.09867000579833984 0.46248799562454224
v -0.23000900447368622 0.10499000549316406 0.39480799436569214
v -0.20162899792194366 0.06752997636795044 0.37396299839019775
v 0.008704000152647495 0.06752997636795044 0.43032100796699524
v 0.23819099366664886 0.10499000549316406 0.39480799436569214
v 0.004091000184416771 0.09867000579833984 0.46248799562454224
v 0.008704000152647495 0.06752997636795044 0.43032100796699524
v 0.2190369963645935 0.06752997636795044 0.37396299839019775
v 0.3730120062828064 0.06752997636795044 0.21998800337314606
v 0.40956300497055054 0.12229001522064209 0.20990300178527832
v 0.23819099366664886 0.10499000549316406 0.39480799436569214
v 0.2190369963645935 0.06752997636795044 0.37396299839019775
v 0.4293709993362427 0.06752997636795044 -0.031606998294591904
v 0.4722900092601776 0.14591997861862183 -0.042681001126766205
v 0.40956300497055054 0.12229001522064209 0.20990300178527832
v 0.3730120062828064 0.06752997636795044 0.21998800337314606
v 0.08676400035619736 1.0551600456237793 -0.24897100031375885
v 0.2054159939289093 1.0551600456237793 -0.14444899559020996
v 0.2336069941520691 0.7649800181388855 -0.18577200174331665
v 0.11196800321340561 0.7649800181388855 -0.31488698720932007
v -0.054193999618291855 0.7649800181388855 -0.3621459901332855
v -0.07531700283288956 1.0551600456237793 -0.2872290015220642
v 0.08676400035619736 1.0551600456237793 -0.24897100031375885
v 0.11196800321340561 0.7649800181388855 -0.31488698720932007
v -0.22035500407218933 0.7649800181388855 -0.31488698720932007
v -0.23739799857139587 1.0551600456237793 -0.24897100031375885
v -0.07531700283288956 1.0551600456237793 -0.2872290015220642
v -0.054193999618291855 0.7649800181388855 -0.3621459901332855
v -0.3419939875602722 0.7649800181388855 -0.18577200174331665
v -0.3560490012168884 1.0551600456237793 -0.14444899559020996
v -0.23739799857139587 1.0551600456237793 -0.24897100031375885
v -0.22035500407218933 0.7649800181388855 -0.31488698720932007
v -0.3865180015563965 0.7649800181388855 -0.009397000074386597
v -0.3994790017604828 1.0551600456237793 -0.0016700000269338489
v -0.3560490012168884 1.0551600456237793 -0.14444899559020996
v -0.3419939875602722 0.7649800181388855 -0.18577200174331665
v -0.3560490012168884 1.0551600456237793 0.14110800623893738
v -0.3994790017604828 1.0551600456237793 -0.0016700000269338489
v -0.3865180015563965 0.7649800181388855 -0.009397000074386597
v -0.3419939875602722 0.7649800181388855 0.16697700321674347
v -0.23739799857139587 1.0551600456237793 0.24563099443912506
v -0.3560490012168884 1.0551600456237793 0.14110800623893738
v -0.3419939875602722 0.7649800181388855 0.16697700321674347
v -0.22035500407218933 0.7649800181388855 0.2960920035839081
v -0.07531700283288956 1.0551600456237793 0.2838880121707916
v -0.23739799857139587 1.0551600456237793 0.24563099443912506
v -0.22035500407218933 0.7649800181388855 0.2960920035839081
v -0.054193999618291855 0.7649800181388855 0.34335100650787354
v 0.08676400035619736 1.0551600456237793 0.24563099443912506
v -0.07531700283288956 1.0551600456237793 0.2838880121707916
v -0.054193999618291855 0.7649800181388855 0.34335100650787354
v 0.11196800321340561 0.7649800181388855 0.2960920035839081
v 0.2336069941520691 0.7649800181388855 0.16697700321674347
v 0.2054159939289093 1.0551600456237793 0.14110800623893738
v 0.08676400035619736 1.0551600456237793 0.24563099443912506
v 0.11196800321340561 0.7649800181388855 0.2960920035839081
v 0.24884499609470367 1.0551600456237793 -0.0016700000269338489
v 0.2054159939289093 1.0551600456237793 0.14110800623893738
v 0.2336069941520691 0.7649800181388855 0.16697700321674347
v 0.2781299948692322 0.7649800181388855 -0.009397000074386597
v 0.2054159939289093 1.0551600456237793 -0.14444899559020996
v 0.24884499609470367 1.0551600456237793 -0.0016700000269338489
v 0.2781299948692322 0.7649800181388855 -0.009397000074386597
v 0.2336069941520691 0.7649800181388855 -0.18577200174331665
v 0.011502999812364578 -0.011096000671386719 -0.3607960045337677
v 0.18458400666713715 -0.011108994483947754 -0.31298598647117615
v 0.011502999812364578 -0.011096000671386719 -0.3607960045337677
v -0.1615770012140274 -0.011108994483947754 -0.31298598647117615
v -0.1615770012140274 -0.011108994483947754 -0.31298598647117615
v -0.28828099370002747 -0.011144042015075684 -0.1823659986257553
v -0.28828099370002747 -0.011144042015075684 -0.1823659986257553
v -0.3346579968929291 -0.011191010475158691 -0.003936000168323517
v -0.3346579968929291 -0.011191010475158691 -0.003936000168323517
v -0.28828099370002747 -0.011239051818847656 0.1968899965286255
v -0.28828099370002747 -0.011239051818847656 0.1968899965286255
v -0.1615770012140274 -0.011273980140686035 0.3275110125541687
v -0.1615770012140274 -0.011273980140686035 0.3275110125541687
v 0.011502999812364578 -0.01128697395324707 0.3753199875354767
v 0.18458400666713715 -0.011273980140686035 0.3275110125541687
v 0.011502999812364578 -0.01128697395324707 0.3753199875354767
v 0.3112879991531372 -0.011239051818847656 0.1968899965286255
v 0.18458400666713715 -0.011273980140686035 0.3275110125541687
v 0.3576650023460388 -0.011191010475158691 -0.003936000168323517
v 0.3112879991531372 -0.011239051818847656 0.1968899965286255
v 0.3112879991531372 -0.011144042015075684 -0.1823659986257553
v 0.3576650023460388 -0.011191010475158691 -0.003936000168323517
v 0.18458400666713715 -0.011108994483947754 -0.31298598647117615
v 0.3112879991531372 -0.011144042015075684 -0.1823659986257553
v -0.02020999975502491 0.4490000009536743 -0.4211310148239136
v 0.1651269942522049 0.4462299942970276 -0.36793801188468933
v -0.2055480033159256 0.4462299942970276 -0.36793801188468933
v -0.02020999975502491 0.4490000009536743 -0.4211310148239136
v -0.3412240147590637 0.4386799931526184 -0.22261400520801544
v -0.2055480033159256 0.4462299942970276 -0.36793801188468933
v -0.39088499546051025 0.42836999893188477 -0.02975199930369854
v -0.3412240147590637 0.4386799931526184 -0.22261400520801544
v -0.39088499546051025 0.42836999893188477 -0.02975199930369854
v -0.3412240147590637 0.41804999113082886 0.16876499354839325
v -0.3412240147590637 0.41804999113082886 0.16876499354839325
v -0.2055480033159256 0.4104999899864197 0.31408900022506714
v -0.2055480033159256 0.4104999899864197 0.31408900022506714
v -0.02020999975502491 0.4077399969100952 0.3672809898853302
v -0.02020999975502491 0.4077399969100952 0.3672809898853302
v 0.1651269942522049 0.4104999899864197 0.31408900022506714
v 0.1651269942522049 0.4104999899864197 0.31408900022506714
v 0.3008039891719818 0.41804999113082886 0.16876499354839325
v 0.3008039891719818 0.41804999113082886 0.16876499354839325
v 0.35046499967575073 0.42836999893188477 -0.02975199930369854
v 0.35046499967575073 0.42836999893188477 -0.02975199930369854
v 0.3008039891719818 0.4386799931526184 -0.22261400520801544
v 0.1651269942522049 0.4462299942970276 -0.36793801188468933
v 0.3008039891719818 0.4386799931526184 -0.22261400520801544
v -0.07531700283288956 1.1931400299072266 -0.0011520000407472253
v -0.21428999304771423 0.3234099745750427 -0.40342000126838684
v -0.01152500044554472 0.3274400234222412 -0.4617899954319
v -0.01152500044554472 0.3274400234222412 -0.4617899954319
v 0.19124099612236023 0.3234099745750427 -0.40342000126838684
v 0.19124099612236023 0.3234099745750427 -0.40342000126838684
v 0.33967500925064087 0.3123700022697449 -0.24394899606704712
v 0.33967500925064087 0.3123700022697449 -0.24394899606704712
v 0.39400601387023926 0.29729998111724854 -0.034373000264167786
v 0.39400601387023926 0.29729998111724854 -0.034373000264167786
v 0.33967500925064087 0.282230019569397 0.18346799910068512
v 0.19124099612236023 0.27118998765945435 0.34293898940086365
v 0.33967500925064087 0.282230019569397 0.18346799910068512
v -0.01152500044554472 0.26715999841690063 0.40130800008773804
v 0.19124099612236023 0.27118998765945435 0.34293898940086365
v -0.21428999304771423 0.27118998765945435 0.34293898940086365
v -0.01152500044554472 0.26715999841690063 0.40130800008773804
v -0.36272498965263367 0.282230019569397 0.18346799910068512
v -0.21428999304771423 0.27118998765945435 0.34293898940086365
v -0.41705599427223206 0.29729998111724854 -0.034373000264167786
v -0.36272498965263367 0.282230019569397 0.18346799910068512
v -0.36272498965263367 0.3123700022697449 -0.24394899606704712
v -0.41705599427223206 0.29729998111724854 -0.034373000264167786
v -0.36272498965263367 0.3123700022697449 -0.24394899606704712
v -0.21428999304771423 0.3234099745750427 -0.40342000126838684
v 0.2338770031929016 -0.06590497493743896 -0.10947100073099136
v 0.26777300238609314 -0.06600701808929443 0.02851800061762333
v 0.26777300238609314 -0.06600701808929443 0.02851800061762333
v 0.2338770031929016 -0.06611001491546631 0.1665080040693283
v 0.2338770031929016 -0.06611001491546631 0.1665080040693283
v 0.1412699967622757 -0.06618404388427734 0.26752299070358276
v 0.1412699967622757 -0.06618404388427734 0.26752299070358276
v 0.014767000451683998 -0.06621205806732178 0.30449700355529785
v -0.11173799633979797 -0.06618404388427734 0.26752299070358276
v 0.014767000451683998 -0.06621205806732178 0.30449700355529785
v -0.2043450027704239 -0.06611001491546631 0.1665080040693283
v -0.11173799633979797 -0.06618404388427734 0.26752299070358276
v -0.23824100196361542 -0.06600701808929443 0.02851800061762333
v -0.2043450027704239 -0.06611001491546631 0.1665080040693283
v -0.2043450027704239 -0.06590497493743896 -0.10947100073099136
v -0.23824100196361542 -0.06600701808929443 0.02851800061762333
v -0.11173799633979797 -0.06583094596862793 -0.2104869931936264
v -0.2043450027704239 -0.06590497493743896 -0.10947100073099136
v 0.014767000451683998 -0.06580305099487305 -0.2474610060453415
v -0.11173799633979797 -0.06583094596862793 -0.2104869931936264
v 0.014767000451683998 -0.06580305099487305 -0.2474610060453415
v 0.1412699967622757 -0.06583094596862793 -0.2104869931936264
v 0.1412699967622757 -0.06583094596862793 -0.2104869931936264
v 0.2338770031929016 -0.06590497493743896 -0.10947100073099136
v 0.24866299331188202 -0.8018560409545898 0.23095500469207764
v 0.14198899269104004 -0.8018560409545898 0.35165199637413025
v 0.1572449952363968 -0.905258059501648 0.36027300357818604
v 0.27118098735809326 -0.905258059501648 0.23963899910449982
v -0.003734000027179718 -0.8018560409545898 0.3866409957408905
v 0.0016029999824240804 -0.905258059501648 0.3986929953098297
v -0.003734000027179718 -0.8018560409545898 0.3866409957408905
v -0.1494549959897995 -0.8018560409545898 0.35165199637413025
v -0.15403799712657928 -0.905258059501648 0.36027300357818604
v 0.0016029999824240804 -0.905258059501648 0.3986929953098297
v -0.25613099336624146 -0.8018560409545898 0.23095500469207764
v -0.26797500252723694 -0.905258059501648 0.23963899910449982
v -0.29517701268196106 -0.8018560409545898 0.07595700025558472
v -0.30967798829078674 -0.905258059501648 0.07995100319385529
v -0.25613099336624146 -0.7768419981002808 -0.080205999314785
v -0.26797500252723694 -0.9053770303726196 -0.10198900103569031
v -0.25867000222206116 -0.8965549468994141 -0.49199599027633667
v -0.24715200066566467 -0.8149219751358032 -0.49164101481437683
v -0.19743600487709045 -0.818416953086853 -0.6074770092964172
v -0.19604000449180603 -0.8532199859619141 -0.635915994644165
v -0.011214000172913074 -0.7114690542221069 -0.7030079960823059
v -0.07710099965333939 -0.7108169794082642 -0.703944981098175
v -0.07722099870443344 -0.7067790031433105 -0.6776689887046814
v -0.011428000405430794 -0.7084100246429443 -0.676118016242981
v -0.011214000172913074 -0.7114690542221069 -0.7030079960823059
v 0.1190050020813942 -0.8242789506912231 -0.6027719974517822
v 0.12585100531578064 -0.8491560220718384 -0.6286370158195496
v 0.2229900062084198 -0.8695319890975952 -0.4706139862537384
v 0.23474200069904327 -0.9104180335998535 -0.48044800758361816
v 0.27709299325942993 -0.8082629442214966 -0.080205999314785
v 0.28770899772644043 -0.8018560409545898 0.07595700025558472
v 0.31288400292396545 -0.905258059501648 0.07995100319385529
v 0.3135850131511688 -0.9068499803543091 -0.10198900103569031
v 0.16237300634384155 -1.0 0.36016300320625305
v 0.0027209999971091747 -1.0 0.05566899850964546
v 0.27924400568008423 -1.0 0.23900599777698517
v 0.0027209999971091747 -1.0 0.3970179855823517
v -0.15692800283432007 -1.0 0.36016300320625305
v -0.27379900217056274 -1.0 0.23900599777698517
v -0.3165769875049591 -1.0 0.08108600229024887
v -0.27379900217056274 -1.0 -0.09932000190019608
v -0.1940550059080124 -1.0 -0.12898699939250946
v 0.0027209999971091747 -1.0 -0.1658409982919693
v 0.19949999451637268 -1.0 -0.12898699939250946
v 0.3216480016708374 -1.0 -0.09932000190019608
v 0.3220219910144806 -1.0 0.08108600229024887
v -0.11602000147104263 -0.6087989807128906 -0.20052899420261383
v 0.007116999942809343 -0.6065620183944702 -0.23913200199604034
v -0.003734000027179718 -0.6776210069656372 -0.2524090111255646
v -0.1494549959897995 -0.6776210069656372 -0.21741700172424316
v -0.20616300404071808 -0.6219029426574707 -0.09235700219869614
v -0.23915700614452362 -0.6219830513000488 0.057110000401735306
v -0.20616300404071808 -0.6220630407333374 0.19578200578689575
v -0.11602000147104263 -0.622122049331665 0.2999260127544403
v 0.007116999942809343 -0.622143030166626 0.33236101269721985
v 0.13025400042533875 -0.622122049331665 0.2999260127544403
v 0.007116999942809343 -0.622143030166626 0.33236101269721985
v 0.2203959971666336 -0.6220630407333374 0.19578200578689575
v 0.25339099764823914 -0.6219830513000488 0.057110000401735306
v 0.2203959971666336 -0.6219029426574707 -0.09235700219869614
v 0.14198899269104004 -0.709041953086853 -0.21741700172424316
v 0.13025400042533875 -0.6087989807128906 -0.20052899420261383
v -0.2897689938545227 -1.0 -0.15579800307750702
v -0.20541900396347046 -1.0 -0.21114499866962433
v -0.1494549959897995 -0.6776210069656372 -0.21741700172424316
v -0.162540003657341 -0.7617449760437012 -0.2901270091533661
v -0.2667829990386963 -0.7930999994277954 -0.14837199449539185
v -0.25613099336624146 -0.7768419981002808 -0.080205999314785
v -0.283609002828598 -0.9061390161514282 -0.1600250005722046
v -0.26797500252723694 -0.9053770303726196 -0.10198900103569031
v 0.0027209999971091747 -1.0 -0.24324600398540497
v -0.003734000027179718 -0.6776210069656372 -0.2524090111255646
v -0.0035830000415444374 -0.7573590278625488 -0.3279300034046173
v 0.21086399257183075 -1.0 -0.21114499866962433
v 0.14198899269104004 -0.709041953086853 -0.21741700172424316
v 0.15128600597381592 -0.7931660413742065 -0.2901270091533661
v 0.3222860097885132 -1.0 -0.15579800307750702
v 0.28553199768066406 -0.8534239530563354 -0.1700499951839447
v 0.27709299325942993 -0.8082629442214966 -0.080205999314785
v 0.3135850131511688 -0.9068499803543091 -0.10198900103569031
v 0.3137570023536682 -0.9081729650497437 -0.1600250005722046
v 0.12217699736356735 -0.8264069557189941 -0.4225749969482422
v 0.3004319965839386 -0.8863250017166138 -0.2687309980392456
v 0.3140619993209839 -0.9105080366134644 -0.26249799132347107
v 0.17659400403499603 -1.0033369064331055 -0.488646000623703
v 0.12070400267839432 -0.8971569538116455 -0.669668972492218
v 0.24280400574207306 -1.0 -0.4774380028247833
v 0.0027209999971091747 -0.9968689680099487 -0.4935469925403595
v 0.02005399949848652 -0.8970730304718018 -0.6690790057182312
v -0.19100899994373322 -0.8969420194625854 -0.6697390079498291
v -0.07709400355815887 -0.7318520545959473 -0.7320989966392517
v -0.12083999812602997 -0.8968019485473633 -0.6688939929008484
v -0.2855899930000305 -0.8218050003051758 -0.2687309980392456
v -0.3112129867076874 -0.9074840545654297 -0.26249799132347107
v -0.10486999899148941 -0.7810169458389282 -0.6094610095024109
v -0.1395920068025589 -0.7949869632720947 -0.4225749969482422
v -0.008561999537050724 -0.7830410003662109 -0.6054670214653015
v -0.0018530000234022737 -0.7828569412231445 -0.4653419852256775
v -0.17857599258422852 -0.996662974357605 -0.49240800738334656
v 0.001976999919861555 -0.5187009572982788 -0.23201000690460205
v -0.0014959999825805426 -0.40833497047424316 -0.24650399386882782
v 0.1274919956922531 -0.4083009958267212 -0.2070239931344986
v 0.12328100204467773 -0.5187170505523682 -0.19325000047683716
v 0.22191600501537323 -0.4082080125808716 -0.09915900230407715
v 0.21208100020885468 -0.5187580585479736 -0.08735600113868713
v 0.2564789950847626 -0.4080820083618164 0.039615001529455185
v 0.24458500742912292 -0.5188159942626953 0.048907000571489334
v 0.22191600501537323 -0.4079580307006836 0.19756799936294556
v 0.21208100020885468 -0.5188759565353394 0.18455299735069275
v 0.1274919956922531 -0.407863974571228 0.3041520118713379
v 0.12328100204467773 -0.5189169645309448 0.2891559898853302
v -0.0014959999825805426 -0.40782999992370605 0.3436329960823059
v 0.001976999919861555 -0.5189319849014282 0.3246220052242279
v -0.0014959999825805426 -0.40782999992370605 0.3436329960823059
v -0.13048399984836578 -0.407863974571228 0.3041520118713379
v -0.11932700127363205 -0.5189169645309448 0.2891559898853302
v 0.001976999919861555 -0.5189319849014282 0.3246220052242279
v -0.2249089926481247 -0.4079580307006836 0.19756799936294556
v -0.20812900364398956 -0.5188759565353394 0.18455299735069275
v -0.25947099924087524 -0.4080820083618164 0.039615001529455185
v -0.24063199758529663 -0.5188159942626953 0.048907000571489334
v -0.2249089926481247 -0.4082080125808716 -0.09915900230407715
v -0.20812900364398956 -0.5187580585479736 -0.08735600113868713
v -0.13048399984836578 -0.4083009958267212 -0.2070239931344986
v -0.11932700127363205 -0.5187170505523682 -0.19325000047683716
v 0.3216480016708374 -1.0 -0.09932000190019608
v 0.3220219910144806 -1.0 0.08108600229024887
v 0.27924400568008423 -1.0 0.23900599777698517
v 0.16237300634384155 -1.0 0.36016300320625305
v 0.0027209999971091747 -1.0 0.3970179855823517
v 0.0027209999971091747 -1.0 0.3970179855823517
v -0.15692800283432007 -1.0 0.36016300320625305
v -0.27379900217056274 -1.0 0.23900599777698517
v -0.3165769875049591 -1.0 0.08108600229024887
v -0.27379900217056274 -1.0 -0.09932000190019608
v -0.2897689938545227 -1.0 -0.15579800307750702
v -0.27379900217056274 -1.0 -0.09932000190019608
v -0.2581470012664795 -1.0 -0.49251800775527954
v -0.3179680109024048 -1.0 -0.2555209994316101
v -0.19100899994373322 -0.8969420194625854 -0.6697390079498291
v -0.07709400355815887 -0.7318520545959473 -0.7320989966392517
v -0.01114100031554699 -0.7333650588989258 -0.7315269708633423
v -0.01114100031554699 -0.7333650588989258 -0.7315269708633423
v 0.12070400267839432 -0.8971569538116455 -0.669668972492218
v 0.24280400574207306 -1.0 -0.4774380028247833
v 0.3234120011329651 -1.0 -0.2555209994316101
v 0.3222860097885132 -1.0 -0.15579800307750702
v 0.3216480016708374 -1.0 -0.09932000190019608
v 0.2621389925479889 -0.05149996280670166 0.010199000127613544
v 0.28608599305152893 -0.07058095932006836 0.012180999852716923
v 0.2469789981842041 -0.0712120532989502 -0.14569100737571716
v 0.22612500190734863 -0.05215001106262207 -0.1352899968624115
v 0.29965099692344666 -0.40874695777893066 -0.13683100044727325
v 0.34525400400161743 -0.40873801708221436 0.03915200009942055
v 0.2564789950847626 -0.4080820083618164 0.039615001529455185
v 0.22191600501537323 -0.4082080125808716 -0.09915900230407715
v 0.22612500190734863 -0.050860047340393066 0.18253099918365479
v 0.24716299772262573 -0.06994903087615967 0.19758300483226776
v 0.30184298753738403 -0.40873801708221436 0.2372259944677353
v 0.22191600501537323 -0.4079580307006836 0.19756799936294556
v 0.12773500382900238 -0.050390005111694336 0.28903698921203613
v 0.14024600386619568 -0.06949400901794434 0.31395500898361206
v 0.17634400725364685 -0.40874695777893066 0.37525299191474915
v 0.1274919956922531 -0.407863974571228 0.3041520118713379
v -0.006670000031590462 -0.05022001266479492 0.32802098989486694
v -0.006399000063538551 -0.0693279504776001 0.3567410111427307
v -0.002177000045776367 -0.40875303745269775 0.4279569983482361
v -0.0014959999825805426 -0.40782999992370605 0.3436329960823059
v -0.1530359983444214 -0.06949400901794434 0.3139370083808899
v -0.006399000063538551 -0.0693279504776001 0.3567410111427307
v -0.006670000031590462 -0.05022001266479492 0.32802098989486694
v -0.14107400178909302 -0.050390005111694336 0.28903698921203613
v -0.002177000045776367 -0.40875303745269775 0.4279569983482361
v -0.18059200048446655 -0.4087200164794922 0.3750460147857666
v -0.13048399984836578 -0.407863974571228 0.3041520118713379
v -0.0014959999825805426 -0.40782999992370605 0.3436329960823059
v -0.2599250078201294 -0.06994903087615967 0.19755400717258453
v -0.23946499824523926 -0.050860047340393066 0.18253099918365479
v -0.305757999420166 -0.408687949180603 0.2368900030851364
v -0.2249089926481247 -0.4079580307006836 0.19756799936294556
v -0.2988179922103882 -0.07056999206542969 0.01216800045222044
v -0.2754789888858795 -0.05149996280670166 0.010199000127613544
v -0.34380999207496643 -0.4094200134277344 0.038662999868392944
v -0.25947099924087524 -0.4080820083618164 0.039615001529455185
v -0.25971099734306335 -0.0712120532989502 -0.14566999673843384
v -0.23946499824523926 -0.05215001106262207 -0.1352899968624115
v -0.3032059967517853 -0.4087059497833252 -0.13658900558948517
v -0.2249089926481247 -0.4082080125808716 -0.09915900230407715
v -0.14107400178909302 -0.0526200532913208 -0.24179600179195404
v -0.1528259962797165 -0.0716780424118042 -0.26193898916244507
v -0.17807899415493011 -0.40874695777893066 -0.2734360098838806
v -0.13048399984836578 -0.4083009958267212 -0.2070239931344986
v -0.006670000031590462 -0.052790045738220215 -0.28077998757362366
v -0.006395000033080578 -0.07184302806854248 -0.3046500086784363
v -0.002128999913111329 -0.40877604484558105 -0.3252669870853424
v -0.0014959999825805426 -0.40833497047424316 -0.24650399386882782
v 0.1400579959154129 -0.0716780424118042 -0.26197201013565063
v -0.006395000033080578 -0.07184302806854248 -0.3046500086784363
v -0.006670000031590462 -0.052790045738220215 -0.28077998757362366
v 0.12773500382900238 -0.0526200532913208 -0.24179600179195404
v -0.002128999913111329 -0.40877604484558105 -0.3252669870853424
v 0.1741030067205429 -0.4087710380554199 -0.2737959921360016
v 0.1274919956922531 -0.4083009958267212 -0.2070239931344986
v -0.0014959999825805426 -0.40833497047424316 -0.24650399386882782
v -0.003464000066742301 -0.25559699535369873 -0.30087798833847046
v -0.15355800092220306 -0.2555309534072876 -0.2556450068950653
v 0.1467839926481247 -0.2555429935455322 -0.25585299730300903
v -0.003464000066742301 -0.25559699535369873 -0.30087798833847046
v 0.25485798716545105 -0.25538694858551025 -0.13495400547981262
v 0.29422101378440857 -0.2551809549331665 0.023780999705195427
v 0.256071001291275 -0.2549840211868286 0.20646099746227264
v 0.1480250060558319 -0.25484299659729004 0.3279710114002228
v -0.0034910000395029783 -0.25479304790496826 0.37370800971984863
v -0.15494799613952637 -0.254830002784729 0.3278529942035675
v -0.0034910000395029783 -0.25479304790496826 0.37370800971984863
v -0.26280999183654785 -0.25495898723602295 0.20626699924468994
v -0.3007580041885376 -0.2551569938659668 0.023698000237345695
v -0.26139599084854126 -0.2553670406341553 -0.13481399416923523
v -0.0022269999608397484 -0.38931703567504883 -0.32975199818611145
v -0.17916199564933777 -0.3892810344696045 -0.27773699164390564
v -0.0022269999608397484 -0.38931703567504883 -0.32975199818611145
v 0.17497999966144562 -0.3893049955368042 -0.27808499336242676
v 0.30135801434516907 -0.38926005363464355 -0.1404629945755005
v 0.3472769856452942 -0.3892209529876709 0.03678800165653229
v 0.3034769892692566 -0.38919198513031006 0.23679299652576447
v 0.17714600265026093 -0.389178991317749 0.3754419982433319
v -0.0022730000782757998 -0.38917601108551025 0.42829999327659607
v -0.1815900057554245 -0.38915300369262695 0.3752419948577881
v -0.0022730000782757998 -0.38917601108551025 0.42829999327659607
v -0.3075979948043823 -0.3891429901123047 0.23646900057792664
v -0.3444859981536865 -0.38982701301574707 0.036341000348329544
v -0.3051320016384125 -0.3892199993133545 -0.1402290016412735
v 0.22612500190734863 -0.05215001106262207 -0.1352899968624115
v -0.006670000031590462 -0.051509976387023926 0.010200000368058681
v 0.2621389925479889 -0.05149996280670166 0.010199000127613544
v 0.22612500190734863 -0.050860047340393066 0.18253099918365479
v 0.12773500382900238 -0.050390005111694336 0.28903698921203613
v -0.006670000031590462 -0.05022001266479492 0.32802098989486694
v -0.14107400178909302 -0.050390005111694336 0.28903698921203613
v -0.23946499824523926 -0.050860047340393066 0.18253099918365479
v -0.2754789888858795 -0.05149996280670166 0.010199000127613544
v -0.23946499824523926 -0.05215001106262207 -0.1352899968624115
v -0.14107400178909302 -0.0526200532913208 -0.24179600179195404
v -0.006670000031590462 -0.052790045738220215 -0.28077998757362366
v 0.12773500382900238 -0.0526200532913208 -0.24179600179195404
v -0.2581470012664795 -1.0 -0.49251800775527954
v -0.22548599541187286 -1.0 -0.35620900988578796
v -0.3179680109024048 -1.0 -0.2555209994316101
v 0.0027209999971091747 -1.0 -0.37991800904273987
v 0.23093000054359436 -1.0 -0.35620900988578796
v 0.3234120011329651 -1.0 -0.2555209994316101
v -0.01114100031554699 -0.7333650588989258 -0.7315269708633423
v -0.07710099965333939 -0.7108169794082642 -0.703944981098175
v -0.07709400355815887 -0.7318520545959473 -0.7320989966392517

vn 0.42906200885772705 0.8580300211906433 0.28229600191116333
vn 0.23984000086784363 0.8476619720458984 0.4732300043106079
vn 0.42667800188064575 0.44363099336624146 0.7881230115890503
vn 0.762345016002655 0.43008100986480713 0.4835920035839081
vn -0.0 0.8427289724349976 0.538336992263794
vn -0.010369000025093555 0.4425230026245117 0.8966969847679138
vn -0.23984000086784363 0.8476619720458984 0.4732300043106079
vn -0.44131800532341003 0.4064199924468994 0.8000379800796509
vn -0.4290649890899658 0.858027994632721 0.28229600191116333
vn -0.7920179963111877 0.3680410087108612 0.48708799481391907
vn -0.5041009783744812 0.8636450171470642 0.00016799999866634607
vn -0.9345939755439758 0.35570499300956726 0.002730000065639615
vn -0.42849698662757874 0.8585410118103027 -0.2815980017185211
vn -0.7899940013885498 0.3806619942188263 -0.4806320071220398
vn -0.23931199312210083 0.8485599756240845 -0.47188600897789
vn -0.4384619891643524 0.42796099185943604 -0.7903169989585876
vn 0.0 0.8437770009040833 -0.5366950035095215
vn -0.010232999920845032 0.4669150114059448 -0.8842430114746094
vn 0.23931199312210083 0.8485599756240845 -0.47188499569892883
vn 0.4233910143375397 0.46478399634361267 -0.7776349782943726
vn 0.42849400639533997 0.8585429787635803 -0.2815980017185211
vn 0.7639970183372498 0.43829700350761414 -0.4735029935836792
vn 0.5040990114212036 0.8636459708213806 0.00016799999866634607
vn 0.9042090177536011 0.4270839989185333 -0.002283999929204583
vn 0.6985350251197815 -0.5892829895019531 -0.4059489965438843
vn 0.8713610172271729 0.017123999074101448 -0.49034398794174194
vn 0.9998729825019836 -0.010793999768793583 -0.011738999746739864
vn 0.815310001373291 -0.5785599946975708 -0.02320699952542782
vn 0.39817100763320923 -0.6249449849128723 -0.6714929938316345
vn 0.5167819857597351 -0.0035000001080334187 -0.8561099767684937
vn 0.8713610172271729 0.017123999074101448 -0.49034398794174194
vn 0.6985350251197815 -0.5892829895019531 -0.4059489965438843
vn 0.0018889999482780695 -0.6484410166740417 -0.7612619996070862
vn 0.006113999988883734 -0.03070399910211563 -0.9995099902153015
vn 0.5167819857597351 -0.0035000001080334187 -0.8561099767684937
vn 0.39817100763320923 -0.6249449849128723 -0.6714929938316345
vn -0.5060579776763916 -0.05858900025486946 -0.8605080246925354
vn 0.006113999988883734 -0.03070399910211563 -0.9995099902153015
vn 0.0018889999482780695 -0.6484410166740417 -0.7612619996070862
vn -0.38701099157333374 -0.6430439949035645 -0.6608449816703796
vn -0.862866997718811 -0.08299700170755386 -0.4985699951648712
vn -0.5060579776763916 -0.05858900025486946 -0.8605080246925354
vn -0.38701099157333374 -0.6430439949035645 -0.6608449816703796
vn -0.6722099781036377 -0.6259400248527527 -0.39538899064064026
vn -0.9911320209503174 -0.1314370036125183 -0.01954299956560135
vn -0.862866997718811 -0.08299700170755386 -0.4985699951648712
vn -0.6722099781036377 -0.6259400248527527 -0.39538899064064026
vn -0.7763749957084656 -0.6297900080680847 -0.02463199943304062
vn -0.8824309706687927 -0.1510860025882721 0.4455209970474243
vn -0.9911320209503174 -0.1314370036125183 -0.01954299956560135
vn -0.7763749957084656 -0.6297900080680847 -0.02463199943304062
vn -0.694104015827179 -0.5995230078697205 0.39848700165748596
vn -0.5155270099639893 -0.18633699417114258 0.8363680243492126
vn -0.8824309706687927 -0.1510860025882721 0.4455209970474243
vn -0.694104015827179 -0.5995230078697205 0.39848700165748596
vn -0.38160601258277893 -0.6357629895210266 0.670956015586853
vn 0.00838099978864193 -0.20835299789905548 0.9780179858207703
vn -0.5155270099639893 -0.18633699417114258 0.8363680243492126
vn -0.38160601258277893 -0.6357629895210266 0.670956015586853
vn 0.016127999871969223 -0.6521869897842407 0.7578870058059692
vn 0.5181360244750977 -0.1131490021944046 0.8477810025215149
vn 0.00838099978864193 -0.20835299789905548 0.9780179858207703
vn 0.016127999871969223 -0.6521869897842407 0.7578870058059692
vn 0.39778000116348267 -0.5920910239219666 0.7008569836616516
vn 0.7317050099372864 -0.5363799929618835 0.4205999970436096
vn 0.8924570083618164 -0.029882000759243965 0.4501419961452484
vn 0.5181360244750977 -0.1131490021944046 0.8477810025215149
vn 0.39778000116348267 -0.5920910239219666 0.7008569836616516
vn 0.815310001373291 -0.5785599946975708 -0.02320699952542782
vn 0.9998729825019836 -0.010793999768793583 -0.011738999746739864
vn 0.8924570083618164 -0.029882000759243965 0.4501419961452484
vn 0.7317050099372864 -0.5363799929618835 0.4205999970436096
vn 0.4233910143375397 0.46478399634361267 -0.7776349782943726
vn 0.7639970183372498 0.43829700350761414 -0.4735029935836792
vn 0.8536509871482849 0.20195800065994263 -0.48009800910949707
vn 0.4991709887981415 0.22813600301742554 -0.8359320163726807
vn -0.008143000304698944 0.2100290060043335 -0.9776610136032104
vn -0.010232999920845032 0.4669150114059448 -0.8842430114746094
vn 0.4233910143375397 0.46478399634361267 -0.7776349782943726
vn 0.4991709887981415 0.22813600301742554 -0.8359320163726807
vn -0.51003497838974 0.14397500455379486 -0.848019003868103
vn -0.4384619891643524 0.42796099185943604 -0.7903169989585876
vn -0.010232999920845032 0.4669150114059448 -0.8842430114746094
vn -0.008143000304698944 0.2100290060043335 -0.9776610136032104
vn -0.870261013507843 0.05140399932861328 -0.48990198969841003
vn -0.7899940013885498 0.3806619942188263 -0.4806320071220398
vn -0.4384619891643524 0.42796099185943604 -0.7903169989585876
vn -0.51003497838974 0.14397500455379486 -0.848019003868103
vn -0.9999709725379944 -0.007155000232160091 0.0025450000539422035
vn -0.9345939755439758 0.35570499300956726 0.002730000065639615
vn -0.7899940013885498 0.3806619942188263 -0.4806320071220398
vn -0.870261013507843 0.05140399932861328 -0.48990198969841003
vn -0.7920179963111877 0.3680410087108612 0.48708799481391907
vn -0.9345939755439758 0.35570499300956726 0.002730000065639615
vn -0.9999709725379944 -0.007155000232160091 0.0025450000539422035
vn -0.8695260286331177 0.011411000043153763 0.4937559962272644
vn -0.44131800532341003 0.4064199924468994 0.8000379800796509
vn -0.7920179963111877 0.3680410087108612 0.48708799481391907
vn -0.8695260286331177 0.011411000043153763 0.4937559962272644
vn -0.5101199746131897 0.07499799877405167 0.8568270206451416
vn -0.010369000025093555 0.4425230026245117 0.8966969847679138
vn -0.44131800532341003 0.4064199924468994 0.8000379800796509
vn -0.5101199746131897 0.07499799877405167 0.8568270206451416
vn -0.006506999954581261 0.1273529976606369 0.9918360114097595
vn 0.42667800188064575 0.44363099336624146 0.7881230115890503
vn -0.010369000025093555 0.4425230026245117 0.8966969847679138
vn -0.006506999954581261 0.1273529976606369 0.9918360114097595
vn 0.5045890212059021 0.15372000634670258 0.8495650291442871
vn 0.8567669987678528 0.15309199690818787 0.49245700240135193
vn 0.762345016002655 0.43008100986480713 0.4835920035839081
vn 0.42667800188064575 0.44363099336624146 0.7881230115890503
vn 0.5045890212059021 0.15372000634670258 0.8495650291442871
vn 0.9042090177536011 0.4270839989185333 -0.002283999929204583
vn 0.762345016002655 0.43008100986480713 0.4835920035839081
vn 0.8567669987678528 0.15309199690818787 0.49245700240135193
vn 0.987080991268158 0.16022099554538727 0.00014099999680183828
vn 0.7639970183372498 0.43829700350761414 -0.4735029935836792
vn 0.9042090177536011 0.4270839989185333 -0.002283999929204583
vn 0.987080991268158 0.16022099554538727 0.00014099999680183828
vn 0.8536509871482849 0.20195800065994263 -0.48009800910949707
vn 0.0010839999886229634 -0.8273019790649414 -0.5617570281028748
vn 0.2945599853992462 -0.8197410106658936 -0.49118199944496155
vn 0.0010839999886229634 -0.8273019790649414 -0.5617570281028748
vn -0.28707200288772583 -0.8276659846305847 -0.48224300146102905
vn -0.28707200288772583 -0.8276659846305847 -0.48224300146102905
vn -0.5079500079154968 -0.8154199719429016 -0.27762699127197266
vn -0.5079500079154968 -0.8154199719429016 -0.27762699127197266
vn -0.6224409937858582 -0.782666027545929 0.00023099999816622585
vn -0.6224409937858582 -0.782666027545929 0.00023099999816622585
vn -0.5758479833602905 -0.7505480051040649 0.3241550028324127
vn -0.5758479833602905 -0.7505480051040649 0.3241550028324127
vn -0.3564710021018982 -0.7075309753417969 0.6101869940757751
vn -0.3564710021018982 -0.7075309753417969 0.6101869940757751
vn 0.0012130000395700336 -0.6782280206680298 0.7348510026931763
vn 0.3661229908466339 -0.6921300292015076 0.6220210194587708
vn 0.0012130000395700336 -0.6782280206680298 0.7348510026931763
vn 0.5976849794387817 -0.7284820079803467 0.3347940146923065
vn 0.3661229908466339 -0.6921300292015076 0.6220210194587708
vn 0.6486240029335022 -0.7611089944839478 0.00012099999730708078
vn 0.5976849794387817 -0.7284820079803467 0.3347940146923065
vn 0.5267279744148254 -0.8002430200576782 -0.28665199875831604
vn 0.6486240029335022 -0.7611089944839478 0.00012099999730708078
vn 0.2945599853992462 -0.8197410106658936 -0.49118199944496155
vn 0.5267279744148254 -0.8002430200576782 -0.28665199875831604
vn 0.001386999967508018 0.25290200114250183 -0.9674909710884094
vn 0.5081419944763184 0.2822650074958801 -0.8137059807777405
vn -0.514860987663269 0.19720500707626343 -0.8342829942703247
vn 0.001386999967508018 0.25290200114250183 -0.9674909710884094
vn -0.8696730136871338 0.14106500148773193 -0.4730429947376251
vn -0.514860987663269 0.19720500707626343 -0.8342829942703247
vn -0.994301974773407 0.1065950021147728 0.0009289999725297093
vn -0.8696730136871338 0.14106500148773193 -0.4730429947376251
vn -0.994301974773407 0.1065950021147728 0.0009289999725297093
vn -0.8724920153617859 0.09697999805212021 0.4789080023765564
vn -0.8724920153617859 0.09697999805212021 0.4789080023765564
vn -0.5157340168952942 0.11677200347185135 0.8487539887428284
vn -0.5157340168952942 0.11677200347185135 0.8487539887428284
vn 0.0020409999415278435 0.15498800575733185 0.9879140257835388
vn 0.0020409999415278435 0.15498800575733185 0.9879140257835388
vn 0.5105670094490051 0.19633500277996063 0.8371229767799377
vn 0.5105670094490051 0.19633500277996063 0.8371229767799377
vn 0.8503090143203735 0.23366999626159668 0.47156399488449097
vn 0.8503090143203735 0.23366999626159668 0.47156399488449097
vn 0.9639019966125488 0.2661040127277374 0.009031999856233597
vn 0.9639019966125488 0.2661040127277374 0.009031999856233597
vn 0.8474000096321106 0.2832129895687103 -0.44911399483680725
vn 0.5081419944763184 0.2822650074958801 -0.8137059807777405
vn 0.8474000096321106 0.2832129895687103 -0.44911399483680725
vn -0.0 1.0 0.0003499999875202775
vn -0.5071399807929993 0.34581899642944336 -0.7894420027732849
vn -0.005778000224381685 0.4024769961833954 -0.9154120087623596
vn -0.005778000224381685 0.4024769961833954 -0.9154120087623596
vn 0.4846549928188324 0.425682008266449 -0.764136016368866
vn 0.4846549928188324 0.425682008266449 -0.764136016368866
vn 0.8096420168876648 0.4163230061531067 -0.41370901465415955
vn 0.8096420168876648 0.4163230061531067 -0.41370901465415955
vn 0.919310986995697 0.39269301295280457 0.025671999901533127
vn 0.919310986995697 0.39269301295280457 0.025671999901533127
vn 0.8076320290565491 0.35924801230430603 0.4676229953765869
vn 0.48217201232910156 0.3271450102329254 0.812703013420105
vn 0.8076320290565491 0.35924801230430603 0.4676229953765869
vn -0.0037150001153349876 0.29186001420021057 0.9564539790153503
vn 0.48217201232910156 0.3271450102329254 0.812703013420105
vn -0.5007050037384033 0.25635001063346863 0.8267890214920044
vn -0.0037150001153349876 0.29186001420021057 0.9564539790153503
vn -0.8474720120429993 0.23671400547027588 0.47513899207115173
vn -0.5007050037384033 0.25635001063346863 0.8267890214920044
vn -0.968520998954773 0.24848900735378265 0.014883999712765217
vn -0.8474720120429993 0.23671400547027588 0.47513899207115173
vn -0.8495410084724426 0.2858150005340576 -0.4433850049972534
vn -0.968520998954773 0.24848900735378265 0.014883999712765217
vn -0.8495410084724426 0.2858150005340576 -0.4433850049972534
vn -0.5071399807929993 0.34581899642944336 -0.7894420027732849
vn 0.42555299401283264 -0.8809869885444641 -0.20680099725723267
vn 0.5250669717788696 -0.8506919741630554 0.025054000318050385
vn 0.5250669717788696 -0.8506919741630554 0.025054000318050385
vn 0.48431000113487244 -0.8291159868240356 0.27930599451065063
vn 0.48431000113487244 -0.8291159868240356 0.27930599451065063
vn 0.3073430061340332 -0.8003299832344055 0.5147939920425415
vn 0.3073430061340332 -0.8003299832344055 0.5147939920425415
vn 0.005042000208050013 -0.7900909781455994 0.6129680275917053
vn -0.29273301362991333 -0.8122519850730896 0.5045340061187744
vn 0.005042000208050013 -0.7900909781455994 0.6129680275917053
vn -0.4611789882183075 -0.8455309867858887 0.2690570056438446
vn -0.29273301362991333 -0.8122519850730896 0.5045340061187744
vn -0.49795201420783997 -0.8669099807739258 0.022595999762415886
vn -0.4611789882183075 -0.8455309867858887 0.2690570056438446
vn -0.4054180085659027 -0.8919379711151123 -0.20020900666713715
vn -0.49795201420783997 -0.8669099807739258 0.022595999762415886
vn -0.23111200332641602 -0.9019389748573303 -0.3648189902305603
vn -0.4054180085659027 -0.8919379711151123 -0.20020900666713715
vn 0.0024949999060481787 -0.9020699858665466 -0.4315820038318634
vn -0.23111200332641602 -0.9019389748573303 -0.3648189902305603
vn 0.0024949999060481787 -0.9020699858665466 -0.4315820038318634
vn 0.2409210056066513 -0.8963249921798706 -0.37223300337791443
vn 0.2409210056066513 -0.8963249921798706 -0.37223300337791443
vn 0.42555299401283264 -0.8809869885444641 -0.20680099725723267
vn 0.8566229939460754 0.21954099833965302 0.46690401434898376
vn 0.4933600127696991 0.20443899929523468 0.845458984375
vn 0.5063400268554688 0.08801700174808502 0.8578310012817383
vn 0.8641110062599182 0.14624400436878204 0.4815860092639923
vn -0.010719000361859798 0.2019840031862259 0.9793300032615662
vn 0.0018889999482780695 0.04788599908351898 0.9988510012626648
vn -0.010719000361859798 0.2019840031862259 0.9793300032615662
vn -0.4999549984931946 0.21071800589561462 0.840025007724762
vn -0.4976330101490021 0.052285000681877136 0.8658109903335571
vn 0.0018889999482780695 0.04788599908351898 0.9988510012626648
vn -0.8605920076370239 0.22748300433158875 0.45566800236701965
vn -0.8707259893417358 0.08791299909353256 0.4838460087776184
vn -0.976947009563446 0.21278800070285797 0.017218999564647675
vn -0.9946650266647339 0.10198099911212921 0.015568999573588371
vn -0.9459189772605896 0.2806690037250519 -0.1626729965209961
vn -0.9956120252609253 0.09058800339698792 0.023465000092983246
vn -0.9558809995651245 0.08102600276470184 -0.2823590040206909
vn -0.6988409757614136 0.6828950047492981 -0.21277999877929688
vn -0.7430409789085388 0.6222540140151978 -0.24635200202465057
vn -0.8549720048904419 0.2799699902534485 -0.4366239905357361
vn 0.38982799649238586 0.8498839735984802 -0.35458698868751526
vn -0.39484500885009766 0.8399419784545898 -0.372283011674881
vn -0.3001140058040619 0.9205080270767212 0.25019198656082153
vn 0.2990260124206543 0.9121140241622925 0.2804130017757416
vn 0.38982799649238586 0.8498839735984802 -0.35458698868751526
vn 0.6043999791145325 0.7825239896774292 -0.14952099323272705
vn 0.7750030159950256 0.44360700249671936 -0.45009198784828186
vn 0.69964599609375 0.6695799827575684 -0.24931399524211884
vn 0.886165976524353 0.20098599791526794 -0.417508989572525
vn 0.9143630266189575 0.3566409945487976 -0.19169500470161438
vn 0.9728530049324036 0.2147340029478073 0.08628799766302109
vn 0.9775260090827942 0.17612500488758087 0.11585800349712372
vn 0.9713180065155029 0.237295001745224 -0.015231999568641186
vn 0.38769999146461487 -0.6374959945678711 0.665798008441925
vn 0.0 -1.0 0.0
vn 0.6812260150909424 -0.6275339722633362 0.3770039975643158
vn 0.0013289999915286899 -0.6634250283241272 0.7482420206069946
vn -0.38335099816322327 -0.6420109868049622 0.6639760136604309
vn -0.674983024597168 -0.6353600025177002 0.37512099742889404
vn -0.7778559923171997 -0.6282950043678284 0.013629999943077564
vn -0.6639999747276306 -0.7476180195808411 0.013094999827444553
vn 0.0 -1.0 0.0
vn 0.0 -1.0 0.0
vn 0.0 -1.0 0.0
vn 0.7360919713973999 -0.6768659949302673 0.004652999807149172
vn 0.759850025177002 -0.6423230171203613 0.10024499893188477
vn -0.514028012752533 0.22489599883556366 -0.827767014503479
vn 0.020871000364422798 0.13181599974632263 -0.9910550117492676
vn 0.027077000588178635 0.46958500146865845 -0.8824719786643982
vn -0.5622689723968506 0.5127779841423035 -0.6487770080566406
vn -0.894864022731781 0.16047200560569763 -0.4164949953556061
vn -0.9886860251426697 0.1497340053319931 0.008965999819338322
vn -0.8730300068855286 0.18244299292564392 0.4522530138492584
vn -0.5116199851036072 0.19941699504852295 0.8357499837875366
vn 0.009937000460922718 0.19295400381088257 0.9811580181121826
vn 0.5253480076789856 0.19981400668621063 0.8270930051803589
vn 0.009937000460922718 0.19295400381088257 0.9811580181121826
vn 0.8779910206794739 0.17340299487113953 0.4461660087108612
vn 0.987218976020813 0.15765100717544556 0.023326000198721886
vn 0.8810539841651917 0.1651179939508438 -0.4432620108127594
vn 0.5741590261459351 0.42228901386260986 -0.7014359831809998
vn 0.5514079928398132 0.14895500242710114 -0.8208299875259399
vn -0.7051029801368713 -0.6810380220413208 0.19752700626850128
vn 0.0 -1.0 0.0
vn -0.5622689723968506 0.5127779841423035 -0.6487770080566406
vn -0.40431201457977295 0.8091449737548828 -0.42639899253845215
vn -0.8943179845809937 0.4474189877510071 -0.003333000000566244
vn -0.9459189772605896 0.2806690037250519 -0.1626729965209961
vn -0.9640020132064819 0.12072300165891647 0.23690800368785858
vn -0.9956120252609253 0.09058800339698792 0.023465000092983246
vn 0.0 -1.0 0.0
vn 0.027077000588178635 0.46958500146865845 -0.8824719786643982
vn 0.0967089980840683 0.8744770288467407 -0.4753290116786957
vn 0.0 -1.0 0.0
vn 0.5741590261459351 0.42228901386260986 -0.7014359831809998
vn 0.49204200506210327 0.7461159825325012 -0.4485580027103424
vn 0.7384660243988037 -0.6742550134658813 0.006945999804884195
vn 0.8053730130195618 0.5698390007019043 -0.16327400505542755
vn 0.9143630266189575 0.3566409945487976 -0.19169500470161438
vn 0.9713180065155029 0.237295001745224 -0.015231999568641186
vn 0.9592909812927246 0.28238898515701294 -0.004027999937534332
vn 0.3776420056819916 0.917527973651886 -0.1246189996600151
vn 0.7573819756507874 0.6240109801292419 -0.1923069953918457
vn 0.9484879970550537 0.27287501096725464 -0.16096800565719604
vn 0.04352699965238571 -0.9601709842681885 -0.2759999930858612
vn 0.5052970051765442 -0.32451701164245605 -0.7996019721031189
vn 0.6469169855117798 -0.6556249856948853 -0.3894270062446594
vn -0.013921000063419342 -0.9617900252342224 -0.2734360098838806
vn -0.0036520001012831926 -0.6517289876937866 -0.7584429979324341
vn -0.5492460131645203 -0.3664720058441162 -0.7510169744491577
vn -0.33971598744392395 0.3262439966201782 -0.8821330070495605
vn 0.003936000168323517 -0.6535030007362366 -0.7569140195846558
vn -0.8028860092163086 0.5913190245628357 -0.07560200244188309
vn -0.984836995601654 0.17291800677776337 0.013976000249385834
vn -0.18953600525856018 0.8947939872741699 0.4042530059814453
vn -0.18400000035762787 0.9775509834289551 -0.10265400260686874
vn 0.14489899575710297 0.9051240086555481 0.39969199895858765
vn 0.13998499512672424 0.988211989402771 -0.061969999223947525
vn 0.016661999747157097 -0.9642559885978699 -0.26444700360298157
vn -0.003711000084877014 -0.0267340000718832 -0.9996359944343567
vn -0.005115999840199947 -0.8197879791259766 -0.5726450085639954
vn 0.3163059949874878 -0.8117349743843079 -0.4909540116786957
vn 0.5554680228233337 -0.01107999961823225 -0.8314639925956726
vn 0.528223991394043 -0.8028140068054199 -0.276529997587204
vn 0.8955060243606567 -0.016466999426484108 -0.4447459876537323
vn 0.601917028427124 -0.7984930276870728 -0.010258999653160572
vn 0.9999600052833557 -0.008179999887943268 0.003684000112116337
vn 0.5231900215148926 -0.808775007724762 0.26861798763275146
vn 0.8975489735603333 -0.0025659999810159206 0.44090700149536133
vn 0.3065299987792969 -0.8171849846839905 0.48810601234436035
vn 0.5404210090637207 -0.010402999818325043 0.8413310050964355
vn -0.0012779999524354935 -0.8299729824066162 0.5578029751777649
vn 0.004234999883919954 -0.04247700050473213 0.9990890026092529
vn -0.0012779999524354935 -0.8299729824066162 0.5578029751777649
vn -0.30649399757385254 -0.8248760104179382 0.4750179946422577
vn -0.546875 -0.053137000650167465 0.8355259895324707
vn 0.004234999883919954 -0.04247700050473213 0.9990890026092529
vn -0.5053179860115051 -0.8223739862442017 0.2614479959011078
vn -0.8938310146331787 -0.0789790004491806 0.4413929879665375
vn -0.5759660005569458 -0.8173789978027344 -0.012439999729394913
vn -0.9956939816474915 -0.09270399808883667 0.00046499999007210135
vn -0.5095829963684082 -0.8183389902114868 -0.26579299569129944
vn -0.8915770053863525 -0.09106899797916412 -0.4436179995536804
vn -0.31132400035858154 -0.8217800259590149 -0.4772369861602783
vn -0.5573300123214722 -0.05953599885106087 -0.8281540274620056
vn 0.7360919713973999 -0.6768659949302673 0.004652999807149172
vn 0.759850025177002 -0.6423230171203613 0.10024499893188477
vn 0.6812260150909424 -0.6275339722633362 0.3770039975643158
vn 0.38769999146461487 -0.6374959945678711 0.665798008441925
vn 0.0013289999915286899 -0.6634250283241272 0.7482420206069946
vn 0.0013289999915286899 -0.6634250283241272 0.7482420206069946
vn -0.38335099816322327 -0.6420109868049622 0.6639760136604309
vn -0.674983024597168 -0.6353600025177002 0.37512099742889404
vn -0.7778559923171997 -0.6282950043678284 0.013629999943077564
vn -0.6639999747276306 -0.7476180195808411 0.013094999827444553
vn -0.7051029801368713 -0.6810380220413208 0.19752700626850128
vn -0.6639999747276306 -0.7476180195808411 0.013094999827444553
vn -0.6067249774932861 -0.718504011631012 -0.340054988861084
vn -0.7791900038719177 -0.6265450119972229 0.01744600012898445
vn -0.5492460131645203 -0.3664720058441162 -0.7510169744491577
vn -0.33971598744392395 0.3262439966201782 -0.8821330070495605
vn 0.3239949941635132 0.31628701090812683 -0.891622006893158
vn 0.3239949941635132 0.31628701090812683 -0.891622006893158
vn 0.5052970051765442 -0.32451701164245605 -0.7996019721031189
vn 0.6469169855117798 -0.6556249856948853 -0.3894270062446594
vn 0.7615450024604797 -0.6361989974975586 -0.12369199842214584
vn 0.7384660243988037 -0.6742550134658813 0.006945999804884195
vn 0.7360919713973999 -0.6768659949302673 0.004652999807149172
vn 0.37131398916244507 0.9283810257911682 -0.015336000360548496
vn 0.9023799896240234 0.4304800033569336 -0.019909000024199486
vn 0.8011720180511475 0.4097970128059387 -0.4361090064048767
vn 0.33481699228286743 0.9237939715385437 -0.1857459992170334
vn 0.6187189817428589 -0.717162013053894 -0.32072699069976807
vn 0.7156590223312378 -0.6984490156173706 -0.000577000027988106
vn 0.601917028427124 -0.7984930276870728 -0.010258999653160572
vn 0.528223991394043 -0.8028140068054199 -0.276529997587204
vn 0.327349990606308 0.9320449829101562 0.155348002910614
vn 0.7932500243186951 0.4500649869441986 0.4101170003414154
vn 0.6484450101852417 -0.6793889999389648 0.3434390127658844
vn 0.5231900215148926 -0.808775007724762 0.26861798763275146
vn 0.18611200153827667 0.9399669766426086 0.2860499918460846
vn 0.4660089910030365 0.47338399291038513 0.7474910020828247
vn 0.3931199908256531 -0.6653940081596375 0.6345930099487305
vn 0.3065299987792969 -0.8171849846839905 0.48810601234436035
vn -0.0006290000164881349 0.942559003829956 0.33403798937797546
vn -0.002778999973088503 0.47987401485443115 0.8773329854011536
vn -3.000000106112566e-06 -0.658456027507782 0.7526199817657471
vn -0.0012779999524354935 -0.8299729824066162 0.5578029751777649
vn -0.46994298696517944 0.462693989276886 0.7517099976539612
vn -0.002778999973088503 0.47987401485443115 0.8773329854011536
vn -0.0006290000164881349 0.942559003829956 0.33403798937797546
vn -0.18861499428749084 0.9388920068740845 0.28793400526046753
vn -3.000000106112566e-06 -0.658456027507782 0.7526199817657471
vn -0.39215898513793945 -0.6672019958496094 0.6332880258560181
vn -0.30649399757385254 -0.8248760104179382 0.4750179946422577
vn -0.0012779999524354935 -0.8299729824066162 0.5578029751777649
vn -0.801252007484436 0.43290001153945923 0.4130289852619171
vn -0.3325290083885193 0.9299169778823853 0.1570959985256195
vn -0.6515809893608093 -0.6803190112113953 0.3355720043182373
vn -0.5053179860115051 -0.8223739862442017 0.2614479959011078
vn -0.9117479920387268 0.4102660119533539 -0.019941000267863274
vn -0.3776180148124695 0.9258310198783875 -0.015568999573588371
vn -0.731145977973938 -0.6822029948234558 -0.0049959998577833176
vn -0.5759660005569458 -0.8173789978027344 -0.012439999729394913
vn -0.8085089921951294 0.39183399081230164 -0.43906599283218384
vn -0.34031400084495544 0.921205997467041 -0.18859000504016876
vn -0.6247509717941284 -0.7162839770317078 -0.31084299087524414
vn -0.5095829963684082 -0.8183389902114868 -0.26579299569129944
vn -0.20370599627494812 0.9220160245895386 -0.329228013753891
vn -0.4830529987812042 0.39100000262260437 -0.7834410071372986
vn -0.36912599205970764 -0.7298359870910645 -0.5753999948501587
vn -0.31132400035858154 -0.8217800259590149 -0.4772369861602783
vn -0.0008169999928213656 0.9236429929733276 -0.38325199484825134
vn -0.0013510000426322222 0.39647600054740906 -0.9180439710617065
vn -0.00017499999376013875 -0.7323570251464844 -0.6809210181236267
vn -0.005115999840199947 -0.8197879791259766 -0.5726450085639954
vn 0.4784429967403412 0.401434987783432 -0.7809879779815674
vn -0.0013510000426322222 0.39647600054740906 -0.9180439710617065
vn -0.0008169999928213656 0.9236429929733276 -0.38325199484825134
vn 0.20012299716472626 0.9236069917678833 -0.32695600390434265
vn -0.00017499999376013875 -0.7323570251464844 -0.6809210181236267
vn 0.3701080083847046 -0.7277730107307434 -0.5773789882659912
vn 0.3163059949874878 -0.8117349743843079 -0.4909540116786957
vn -0.005115999840199947 -0.8197879791259766 -0.5726450085639954
vn -8.70000003487803e-05 0.09605000168085098 -0.9953770041465759
vn -0.5282319784164429 0.1043350026011467 -0.8426650166511536
vn 0.5270500183105469 0.11870600283145905 -0.8415030241012573
vn -8.70000003487803e-05 0.09605000168085098 -0.9953770041465759
vn 0.8690879940986633 0.163115993142128 -0.46698999404907227
vn 0.9773139953613281 0.2105640023946762 -0.02278600074350834
vn 0.8670679926872253 0.23737399280071259 0.4380030035972595
vn 0.5198659896850586 0.2443459928035736 0.818556010723114
vn 0.00018400000408291817 0.24255000054836273 0.9701390266418457
vn -0.5214629769325256 0.2335129976272583 0.8206999897956848
vn 0.00018400000408291817 0.24255000054836273 0.9701390266418457
vn -0.8753420114517212 0.2103399932384491 0.435355007648468
vn -0.9857169985771179 0.16749800741672516 -0.017489999532699585
vn -0.8722389936447144 0.13970200717449188 -0.4687030017375946
vn -0.0006230000290088356 -0.004918999969959259 -0.9999880194664001
vn -0.5308669805526733 0.013140000402927399 -0.8473529815673828
vn -0.0006230000290088356 -0.004918999969959259 -0.9999880194664001
vn 0.5298060178756714 0.02102999947965145 -0.8478580117225647
vn 0.8765280246734619 0.07367999851703644 -0.4756779968738556
vn 0.9914910197257996 0.12816399335861206 -0.02280700020492077
vn 0.8789209723472595 0.1575929969549179 0.4501810073852539
vn 0.5247460007667542 0.17430299520492554 0.8332229852676392
vn 0.00020700000459328294 0.17762300372123718 0.9840989708900452
vn -0.5268679857254028 0.16657499969005585 0.8334649801254272
vn 0.00020700000459328294 0.17762300372123718 0.9840989708900452
vn -0.8871949911117554 0.1461769938468933 0.43762800097465515
vn -0.9905750155448914 0.13555499911308289 -0.01962600089609623
vn -0.8833159804344177 0.057698000222444534 -0.46521300077438354
vn 0.33481699228286743 0.9237939715385437 -0.1857459992170334
vn -0.0 0.9999909996986389 -0.00418699998408556
vn 0.37131398916244507 0.9283810257911682 -0.015336000360548496
vn 0.327349990606308 0.9320449829101562 0.155348002910614
vn 0.18611200153827667 0.9399669766426086 0.2860499918460846
vn -0.0006290000164881349 0.942559003829956 0.33403798937797546
vn -0.18861499428749084 0.9388920068740845 0.28793400526046753
vn -0.3325290083885193 0.9299169778823853 0.1570959985256195
vn -0.3776180148124695 0.9258310198783875 -0.015568999573588371
vn -0.34031400084495544 0.921205997467041 -0.18859000504016876
vn -0.20370599627494812 0.9220160245895386 -0.329228013753891
vn -0.0008169999928213656 0.9236429929733276 -0.38325199484825134
vn 0.20012299716472626 0.9236069917678833 -0.32695600390434265
vn -0.6067249774932861 -0.718504011631012 -0.340054988861084
vn 0.00330700003542006 -0.9999790191650391 -0.005497999954968691
vn -0.7791900038719177 -0.6265450119972229 0.01744600012898445
vn -0.006641999818384647 -0.9999390244483948 -0.008778000250458717
vn 0.0033730000723153353 -0.9999819993972778 0.004891000222414732
vn 0.7615450024604797 -0.6361989974975586 -0.12369199842214584
vn 0.3239949941635132 0.31628701090812683 -0.891622006893158
vn -0.39484500885009766 0.8399419784545898 -0.372283011674881
vn -0.33971598744392395 0.3262439966201782 -0.8821330070495605

vt 0.29081401228904724 0.3627089858055115
vt 0.2727240025997162 0.3720390200614929
vt 0.2788519859313965 0.39053601026535034
vt 0.3057279884815216 0.3750550150871277
vt 0.25176000595092773 0.37156397104263306
vt 0.24711500108242035 0.39058297872543335
vt 0.2327979952096939 0.3623790144920349
vt 0.2189120054244995 0.37531399726867676
vt 0.22169999778270721 0.3453630208969116
vt 0.2025900036096573 0.34945499897003174
vt 0.2210559993982315 0.326649010181427
vt 0.2016260027885437 0.32231301069259644
vt 0.23048199713230133 0.31044697761535645
vt 0.216157004237175 0.29819798469543457
vt 0.24850699305534363 0.3013550043106079
vt 0.24286100268363953 0.283128023147583
vt 0.26923298835754395 0.30172199010849
vt 0.2740330100059509 0.283128023147583
vt 0.28821301460266113 0.3106189966201782
vt 0.30202698707580566 0.29801100492477417
vt 0.299344003200531 0.32757699489593506
vt 0.3184950053691864 0.32332199811935425
vt 0.30017000436782837 0.3463129997253418
vt 0.31983301043510437 0.3506760001182556
vt 0.861033022403717 0.07063800096511841
vt 0.8742679953575134 0.07376599311828613
vt 0.8709070086479187 0.044699013233184814
vt 0.8603219985961914 0.04504197835922241
vt 0.4234989881515503 0.1715099811553955
vt 0.43952301144599915 0.17545300722122192
vt 0.4364680051803589 0.14589399099349976
vt 0.422868013381958 0.14591199159622192
vt 0.8642380237579346 0.10309100151062012
vt 0.8818609714508057 0.10464698076248169
vt 0.8785150051116943 0.07617700099945068
vt 0.8620749711990356 0.07757598161697388
vt 0.4406470060348511 0.1376209855079651
vt 0.4392620027065277 0.10898900032043457
vt 0.4219000041484833 0.11239200830459595
vt 0.42396700382232666 0.1379150152206421
vt 0.8777040243148804 0.04067397117614746
vt 0.8776959776878357 0.01095801591873169
vt 0.8617299795150757 0.015793979167938232
vt 0.863739013671875 0.04132199287414551
vt 0.4346019923686981 0.1049090027809143
vt 0.43696099519729614 0.07574397325515747
vt 0.42336899042129517 0.07901298999786377
vt 0.42345699667930603 0.10461902618408203
vt 0.8715050220489502 0.16888302564620972
vt 0.876226007938385 0.13851702213287354
vt 0.8652399778366089 0.14041602611541748
vt 0.8632180094718933 0.17066800594329834
vt 0.42486700415611267 0.07018202543258667
vt 0.42976701259613037 0.04087299108505249
vt 0.42216798663139343 0.044631004333496094
vt 0.4188230037689209 0.0700179934501648
vt 0.8649560213088989 0.20146101713180542
vt 0.8693569898605347 0.17313402891159058
vt 0.8635759949684143 0.17490601539611816
vt 0.8598080277442932 0.2002350091934204
vt 0.42343199253082275 0.036490023136138916
vt 0.42361098527908325 0.007825970649719238
vt 0.41851499676704407 0.009257018566131592
vt 0.4181559979915619 0.034861981868743896
vt 0.8681309819221497 0.10986298322677612
vt 0.8749150037765503 0.10594701766967773
vt 0.8735479712486267 0.1356319785118103
vt 0.8680279850959778 0.13546901941299438
vt 0.42260199785232544 0.20732897520065308
vt 0.4329639971256256 0.20951801538467407
vt 0.42961999773979187 0.17896997928619385
vt 0.42203500866889954 0.1770150065422058
vt 0.5463939905166626 0.16445600986480713
vt 0.5453029870986938 0.14589399099349976
vt 0.5107870101928711 0.14864999055862427
vt 0.5116400122642517 0.16949301958084106
vt 0.9527660012245178 0.0989609956741333
vt 0.9879379868507385 0.09565198421478271
vt 0.9858880043029785 0.07617700099945068
vt 0.9508630037307739 0.07873600721359253
vt 0.5115159749984741 0.13636797666549683
vt 0.5465310215950012 0.1379140019416809
vt 0.545307993888855 0.11836898326873779
vt 0.5100510120391846 0.11610698699951172
vt 0.9495120048522949 0.039541006088256836
vt 0.9839280247688293 0.04203999042510986
vt 0.9828709959983826 0.023476004600524902
vt 0.9481449723243713 0.018725991249084473
vt 0.5086029767990112 0.1054689884185791
vt 0.5427640080451965 0.10627001523971558
vt 0.5424990057945251 0.08872097730636597
vt 0.508305013179779 0.08407998085021973
vt 0.9823619723320007 0.16951900720596313
vt 0.9835240244865417 0.15200799703598022
vt 0.9494600296020508 0.14932101964950562
vt 0.9480829834938049 0.17066800594329834
vt 0.5385209918022156 0.0678359866142273
vt 0.5402269959449768 0.04931902885437012
vt 0.50593101978302 0.04942202568054199
vt 0.5039049983024597 0.07018202543258667
vt 0.9803339838981628 0.20146101713180542
vt 0.9826909899711609 0.18202000856399536
vt 0.9480080008506775 0.18115699291229248
vt 0.9454150199890137 0.20130497217178345
vt 0.5381410121917725 0.027863025665283203
vt 0.5389519929885864 0.008296012878417969
vt 0.5040370225906372 0.007661998271942139
vt 0.5033800005912781 0.027966976165771484
vt 0.953423023223877 0.11477601528167725
vt 0.9878320097923279 0.11399698257446289
vt 0.9885129928588867 0.1325780153274536
vt 0.9538840055465698 0.1356319785118103
vt 0.5432279706001282 0.19596600532531738
vt 0.5429379940032959 0.17841899394989014
vt 0.5085489749908447 0.1770150065422058
vt 0.5090050101280212 0.19840097427368164
vt 0.9825360178947449 0.06137502193450928
vt 0.9820430278778076 0.04383200407028198
vt 0.9477450251579285 0.04466301202774048
vt 0.9482259750366211 0.06604897975921631
vt 0.8501799702644348 0.10117000341415405
vt 0.8482739925384521 0.08014100790023804
vt 0.40817299485206604 0.11597698926925659
vt 0.4097540080547333 0.13703399896621704
vt 0.8482649922370911 0.020430028438568115
vt 0.849698007106781 0.04178100824356079
vt 0.41015300154685974 0.08377599716186523
vt 0.41010698676109314 0.10545498132705688
vt 0.8525829911231995 0.14474397897720337
vt 0.8508570194244385 0.16891998052597046
vt 0.4098599851131439 0.0467190146446228
vt 0.40726199746131897 0.06796002388000488
vt 0.851921021938324 0.17634302377700806
vt 0.8489030003547668 0.19723999500274658
vt 0.4069730043411255 0.03220397233963013
vt 0.4073590040206909 0.011092007160186768
vt 0.8564760088920593 0.11302798986434937
vt 0.8565809726715088 0.134427011013031
vt 0.41058599948883057 0.2025349736213684
vt 0.41002699732780457 0.17830300331115723
vt 0.8481169939041138 0.06610697507858276
vt 0.8473979830741882 0.04443901777267456
vt 0.40995898842811584 0.16781198978424072
vt 0.4091919958591461 0.1464269757270813
vt 0.9147890210151672 0.10057598352432251
vt 0.9123610258102417 0.07802999019622803
vt 0.47348299622535706 0.13572800159454346
vt 0.4721600115299225 0.11308997869491577
vt 0.9109029769897461 0.038855016231536865
vt 0.9102460145950317 0.015468001365661621
vt 0.4689770042896271 0.10382497310638428
vt 0.4698669910430908 0.08039200305938721
vt 0.9101150035858154 0.1443309783935547
vt 0.907355010509491 0.16826599836349487
vt 0.4653030037879944 0.045677006244659424
vt 0.4621509909629822 0.06886100769042969
vt 0.9063479900360107 0.17806702852249146
vt 0.903128981590271 0.200514018535614
vt 0.46177899837493896 0.009370028972625732
vt 0.4613730013370514 0.0320429801940918
vt 0.9117199778556824 0.1338149905204773
vt 0.9120969772338867 0.1104230284690857
vt 0.46707600355148315 0.17963099479675293
vt 0.46879100799560547 0.20366400480270386
vt 0.9072030186653137 0.045816004276275635
vt 0.9089379906654358 0.06920301914215088
vt 0.47317400574684143 0.1713230013847351
vt 0.4713760018348694 0.1479949951171875
vt 0.26034700870513916 0.3365880250930786
vt 0.45844200253486633 0.13665097951889038
vt 0.45710301399230957 0.11187100410461426
vt 0.8997830152511597 0.10232597589492798
vt 0.8970199823379517 0.07766300439834595
vt 0.45791199803352356 0.17290598154067993
vt 0.45564699172973633 0.14735299348831177
vt 0.8932859897613525 0.07088500261306763
vt 0.8909559845924377 0.045471012592315674
vt 0.4526830017566681 0.20580798387527466
vt 0.4503740072250366 0.1794469952583313
vt 0.8947259783744812 0.13454699516296387
vt 0.8954619765281677 0.10890698432922363
vt 0.4447520077228546 0.008705973625183105
vt 0.4444279968738556 0.03351998329162598
vt 0.8897309899330139 0.17586898803710938
vt 0.886089026927948 0.20041602849960327
vt 0.44916999340057373 0.043631017208099365
vt 0.445389986038208 0.06900197267532349
vt 0.894556999206543 0.14203697443008423
vt 0.8910920023918152 0.16826999187469482
vt 0.4546769857406616 0.07878601551055908
vt 0.4532580077648163 0.10426801443099976
vt 0.895654022693634 0.039739012718200684
vt 0.8952400088310242 0.014090001583099365
vt 0.835207998752594 0.06052398681640625
vt 0.8344560265541077 0.04383200407028198
vt 0.39901700615882874 0.19670099020004272
vt 0.39843499660491943 0.18000197410583496
vt 0.8454030156135559 0.11685800552368164
vt 0.8458449840545654 0.13296598196029663
vt 0.3966279923915863 0.028982996940612793
vt 0.39708900451660156 0.01349097490310669
vt 0.840927004814148 0.17856597900390625
vt 0.838890016078949 0.1939290165901184
vt 0.3978799879550934 0.049594998359680176
vt 0.39629000425338745 0.0656309723854065
vt 0.8401119709014893 0.15013998746871948
vt 0.838720977306366 0.16679197549819946
vt 0.3967779874801636 0.08956199884414673
vt 0.3965420126914978 0.10627001523971558
vt 0.8344560265541077 0.025938987731933594
vt 0.8351280093193054 0.04203999042510986
vt 0.39399299025535583 0.12023001909255981
vt 0.39494600892066956 0.13569897413253784
vt 0.8356090188026428 0.09855598211288452
vt 0.8340039849281311 0.083141028881073
vt 0.3961249887943268 0.16319900751113892
vt 0.395143985748291 0.14711397886276245
vt 0.08067700266838074 0.09066802263259888
vt 0.051128000020980835 0.08573001623153687
vt 0.048016998916864395 0.10509401559829712
vt 0.07785700261592865 0.11074000597000122
vt 0.02414499968290329 0.07880997657775879
vt 0.019060999155044556 0.09789800643920898
vt 0.37815800309181213 0.078948974609375
vt 0.3514550030231476 0.08561402559280396
vt 0.3560810089111328 0.10462898015975952
vt 0.384894996881485 0.09784400463104248
vt 0.3224950134754181 0.0902630090713501
vt 0.3260520100593567 0.1098870038986206
vt 0.29354000091552734 0.09332197904586792
vt 0.29579800367355347 0.11320298910140991
vt 0.264274001121521 0.09017699956893921
vt 0.2615540027618408 0.11507397890090942
vt 0.3534240126609802 0.3146960139274597
vt 0.368925005197525 0.31753700971603394
vt 0.37544700503349304 0.29414600133895874
vt 0.36836299300193787 0.2880300283432007
vt 0.4132150113582611 0.269415020942688
vt 0.40182098746299744 0.2692440152168274
vt 0.4020009934902191 0.27441298961639404
vt 0.41311898827552795 0.274603009223938
vt 0.4146449863910675 0.26925599575042725
vt 0.4419170022010803 0.2954450249671936
vt 0.44703900814056396 0.29021602869033813
vt 0.4623039960861206 0.32159900665283203
vt 0.4699850082397461 0.3183150291442871
vt 0.13902699947357178 0.09755301475524902
vt 0.11025799810886383 0.09401798248291016
vt 0.1080700010061264 0.11430799961090088
vt 0.14161700010299683 0.11788100004196167
vt 0.24318499863147736 0.11586302518844604
vt 0.22071999311447144 0.10417801141738892
vt 0.23429200053215027 0.12450599670410156
vt 0.24585799872875214 0.10408902168273926
vt 0.2430959939956665 0.09233498573303223
vt 0.23413899540901184 0.08375799655914307
vt 0.22249099612236023 0.0806499719619751
vt 0.20919500291347504 0.08385401964187622
vt 0.20702600479125977 0.08973699808120728
vt 0.20441000163555145 0.10422700643539429
vt 0.20721499621868134 0.11872297525405884
vt 0.20938199758529663 0.12772101163864136
vt 0.2226720005273819 0.12769901752471924
vt 0.22771500051021576 0.05868399143218994
vt 0.20125700533390045 0.05863797664642334
vt 0.20284099876880646 0.07210099697113037
vt 0.23156499862670898 0.07316702604293823
vt 0.25642600655555725 0.059584975242614746
vt 0.2872999906539917 0.05720001459121704
vt 0.3156430125236511 0.054206013679504395
vt 0.34246399998664856 0.0503309965133667
vt 0.3670499920845032 0.04548001289367676
vt 0.06296499818563461 0.05162602663040161
vt 0.03886200115084648 0.04627197980880737
vt 0.08913499861955643 0.05590397119522095
vt 0.11681099981069565 0.0590059757232666
vt 0.14695599675178528 0.06099498271942139
vt 0.17428599298000336 0.07860499620437622
vt 0.1751299947500229 0.05915302038192749
vt 0.2050269991159439 0.08269500732421875
vt 0.20096200704574585 0.08892601728439331
vt 0.38907599449157715 0.37808001041412354
vt 0.3842509984970093 0.3574709892272949
vt 0.3567430078983307 0.3815169930458069
vt 0.3560130000114441 0.3947330117225647
vt 0.3367129862308502 0.37509799003601074
vt 0.334320992231369 0.38597798347473145
vt 0.19871799647808075 0.10423702001571655
vt 0.41441500186920166 0.37134599685668945
vt 0.4154140055179596 0.3502730131149292
vt 0.2011519968509674 0.11958301067352295
vt 0.44046199321746826 0.3758689761161804
vt 0.4464229941368103 0.35628002882003784
vt 0.20522500574588776 0.12778401374816895
vt 0.4785189926624298 0.37630200386047363
vt 0.4759249985218048 0.3947330117225647
vt 0.4929310083389282 0.3856779932975769
vt 0.4902360141277313 0.3752949833869934
vt 0.4414690136909485 0.3304780125617981
vt 0.4797709882259369 0.3573070168495178
vt 0.48513200879096985 0.3573390245437622
vt 0.18078799545764923 0.11707699298858643
vt 0.1654369980096817 0.11327099800109863
vt 0.1815209984779358 0.1219409704208374
vt 0.18024100363254547 0.10435998439788818
vt 0.16534799337387085 0.10583502054214478
vt 0.16517199575901031 0.09029501676559448
vt 0.15227599442005157 0.09887999296188354
vt 0.16526299715042114 0.09546202421188354
vt 0.3575659990310669 0.3582199811935425
vt 0.3405489921569824 0.3559579849243164
vt 0.3954170048236847 0.29290997982025146
vt 0.3900409936904907 0.3308190107345581
vt 0.41514700651168823 0.2943199872970581
vt 0.416359007358551 0.3223099708557129
vt 0.18020600080490112 0.0909850001335144
vt 0.20211300253868103 0.04234898090362549
vt 0.20202599465847015 0.02103501558303833
vt 0.1767529994249344 0.021246016025543213
vt 0.1759919971227646 0.04239702224731445
vt 0.14993199706077576 0.020483970642089844
vt 0.14797799289226532 0.04162800312042236
vt 0.1233619973063469 0.01874101161956787
vt 0.12002299726009369 0.03982800245285034
vt 0.09362299740314484 0.015184998512268066
vt 0.0925849974155426 0.03648501634597778
vt 0.06794100254774094 0.01064300537109375
vt 0.06607600301504135 0.032122015953063965
vt 0.04272099956870079 0.006107985973358154
vt 0.041818998754024506 0.027423977851867676
vt 0.36124199628829956 0.006107985973358154
vt 0.33644500374794006 0.009485006332397461
vt 0.3381679952144623 0.031207025051116943
vt 0.3625060021877289 0.026796996593475342
vt 0.3103469908237457 0.013239026069641113
vt 0.3115580081939697 0.034922003746032715
vt 0.2805509865283966 0.016528010368347168
vt 0.2838340103626251 0.038040995597839355
vt 0.2539379894733429 0.018546998500823975
vt 0.2557249963283539 0.040223002433776855
vt 0.22717100381851196 0.020027995109558105
vt 0.22794899344444275 0.041818976402282715
vt 0.139273002743721 0.13524401187896729
vt 0.10598699748516083 0.13215702772140503
vt 0.07584699988365173 0.12844902276992798
vt 0.044874999672174454 0.12266397476196289
vt 0.015017000027000904 0.11534398794174194
vt 0.3889699876308441 0.1152610182762146
vt 0.35903200507164 0.1221500039100647
vt 0.32797500491142273 0.1275460124015808
vt 0.2977980077266693 0.13086599111557007
vt 0.26365599036216736 0.13264799118041992
vt 0.31898200511932373 0.37251901626586914
vt 0.3169209957122803 0.3831409811973572
vt 0.3335700035095215 0.3103100061416626
vt 0.32256099581718445 0.35379499197006226
vt 0.3603860139846802 0.2803090214729309
vt 0.4016000032424927 0.2624080181121826
vt 0.41318199038505554 0.2624819874763489
vt 0.41901499032974243 0.26337897777557373
vt 0.45540499687194824 0.28046298027038574
vt 0.4871250092983246 0.3140689730644226
vt 0.5018240213394165 0.35435301065444946
vt 0.5067530274391174 0.37190502882003784
vt 0.5095589756965637 0.38194799423217773
vt 0.16492000222206116 0.14606302976608276
vt 0.1637289971113205 0.1547660231590271
vt 0.20750699937343597 0.1539989709854126
vt 0.2075430005788803 0.1458439826965332
vt 0.20270699262619019 0.2494940161705017
vt 0.15771199762821198 0.2519099712371826
vt 0.15991100668907166 0.2782530188560486
vt 0.20445600152015686 0.2746790051460266
vt 0.11315499991178513 0.14628499746322632
vt 0.11123500019311905 0.15532898902893066
vt 0.10665799677371979 0.2534220218658447
vt 0.1082329973578453 0.28123098611831665
vt 0.06939999759197235 0.14390701055526733
vt 0.06649199873209 0.15359097719192505
vt 0.05874999985098839 0.25348401069641113
vt 0.06154000014066696 0.27835601568222046
vt 0.029044000431895256 0.1348789930343628
vt 0.024075999855995178 0.144802987575531
vt 0.00918199960142374 0.2566189765930176
vt 0.020354000851511955 0.28123098611831665
vt 0.06765200197696686 0.1528329849243164
vt 0.023905999958515167 0.14555001258850098
vt 0.028939999639987946 0.13540101051330566
vt 0.07091200351715088 0.14317798614501953
vt 0.009619999676942825 0.2574790120124817
vt 0.05970900133252144 0.2537029981613159
vt 0.06273700296878815 0.27874302864074707
vt 0.021119000390172005 0.2822459936141968
vt 0.11302699893712997 0.15442800521850586
vt 0.11510799825191498 0.14553797245025635
vt 0.10803999751806259 0.2527099847793579
vt 0.10996600240468979 0.2806519865989685
vt 0.16593700647354126 0.15431100130081177
vt 0.16747699677944183 0.145766019821167
vt 0.159061998128891 0.25169700384140015
vt 0.16110600531101227 0.27689802646636963
vt 0.21024799346923828 0.15426397323608398
vt 0.21045200526714325 0.14641797542572021
vt 0.20405100286006927 0.24901598691940308
vt 0.20535700023174286 0.2742270231246948
vt 0.25101199746131897 0.14616698026657104
vt 0.2526949942111969 0.15444302558898926
vt 0.25154900550842285 0.24829602241516113
vt 0.2493090033531189 0.2712249755859375
vt 0.29064100980758667 0.14281201362609863
vt 0.29462501406669617 0.15142697095870972
vt 0.29982900619506836 0.2527809739112854
vt 0.28798699378967285 0.27470797300338745
vt 0.2512759864330292 0.1526619791984558
vt 0.29416799545288086 0.14789700508117676
vt 0.290010005235672 0.1391649842262268
vt 0.24937599897384644 0.14416897296905518
vt 0.30014699697494507 0.25127798318862915
vt 0.2506380081176758 0.2478640079498291
vt 0.24873900413513184 0.2710220217704773
vt 0.2883549928665161 0.273343026638031
vt 0.29955801367759705 0.20703399181365967
vt 0.2552259862422943 0.20552998781204224
vt 0.25345200300216675 0.20408499240875244
vt 0.29919299483299255 0.20391499996185303
vt 0.20579099655151367 0.2047560214996338
vt 0.15997999906539917 0.20560497045516968
vt 0.10703600198030472 0.20651698112487793
vt 0.05947500094771385 0.20591598749160767
vt 0.014123000204563141 0.203203022480011
vt 0.06055599823594093 0.20559197664260864
vt 0.0148290004581213 0.20348000526428223
vt 0.10901699960231781 0.20603400468826294
vt 0.16179999709129333 0.2055649757385254
vt 0.20795699954032898 0.20513802766799927
vt 0.30096200108528137 0.24726301431655884
vt 0.25269201397895813 0.24246597290039062
vt 0.3014430105686188 0.24555599689483643
vt 0.2515600025653839 0.24189698696136475
vt 0.20317800343036652 0.24361002445220947
vt 0.15797099471092224 0.24605399370193481
vt 0.10644900053739548 0.2476549744606018
vt 0.05810900032520294 0.24764299392700195
vt 0.008534000255167484 0.25083398818969727
vt 0.059080999344587326 0.24776899814605713
vt 0.008844000287353992 0.2516390085220337
vt 0.10798600316047668 0.24688297510147095
vt 0.1594569981098175 0.24577200412750244
vt 0.20469200611114502 0.24315297603607178
vt 0.16257500648498535 0.13272100687026978
vt 0.1568250060081482 0.12672698497772217
vt 0.15848900377750397 0.13468801975250244
vt 0.15316200256347656 0.13468801975250244
vt 0.14939899742603302 0.13243401050567627
vt 0.1474120020866394 0.12869501113891602
vt 0.14773499965667725 0.124472975730896
vt 0.15027999877929688 0.1208990216255188
vt 0.15516099333763123 0.11876600980758667
vt 0.15969300270080566 0.11893200874328613
vt 0.163455992937088 0.12118697166442871
vt 0.16544300317764282 0.12492501735687256
vt 0.16512000560760498 0.12914800643920898
vt 0.18022200465202332 0.08511799573898315
vt 0.19025200605392456 0.08749401569366455
vt 0.19766800105571747 0.0806499719619751
vt 0.1886419951915741 0.10427999496459961
vt 0.19046899676322937 0.12108302116394043
vt 0.19786499440670013 0.12789702415466309
vt 0.15244700014591217 0.10373902320861816
vt 0.40018099546432495 0.26902902126312256
vt 0.3957430124282837 0.2630940079689026

usemtl Material

f 1/1/1 2/2/2 3/3/3
f 3/3/3 4/4/4 1/1/1
f 2/2/2 5/5/5 6/6/6
f 6/6/6 3/3/3 2/2/2
f 6/6/6 5/5/5 7/7/7
f 7/7/7 8/8/8 6/6/6
f 8/8/8 7/7/7 9/9/9
f 9/9/9 10/10/10 8/8/8
f 10/10/10 9/9/9 11/11/11
f 11/11/11 12/12/12 10/10/10
f 11/11/11 13/13/13 14/14/14
f 14/14/14 12/12/12 11/11/11
f 13/13/13 15/15/15 16/16/16
f 16/16/16 14/14/14 13/13/13
f 15/15/15 17/17/17 18/18/18
f 18/18/18 16/16/16 15/15/15
f 18/18/18 17/17/17 19/19/19
f 19/19/19 20/20/20 18/18/18
f 20/20/20 19/19/19 21/21/21
f 21/21/21 22/22/22 20/20/20
f 22/22/22 21/21/21 23/23/23
f 23/23/23 24/24/24 22/22/22
f 23/23/23 1/1/1 4/4/4
f 4/4/4 24/24/24 23/23/23
f 25/25/25 26/26/26 27/27/27
f 27/27/27 28/28/28 25/25/25
f 29/29/29 30/30/30 31/31/31
f 31/31/31 32/32/32 29/29/29
f 33/33/33 34/34/34 35/35/35
f 35/35/35 36/36/36 33/33/33
f 37/37/37 38/38/38 39/39/39
f 39/39/39 40/40/40 37/37/37
f 41/41/41 42/42/42 43/43/43
f 43/43/43 44/44/44 41/41/41
f 45/45/45 46/46/46 47/47/47
f 47/47/47 48/48/48 45/45/45
f 49/49/49 50/50/50 51/51/51
f 51/51/51 52/52/52 49/49/49
f 53/53/53 54/54/54 55/55/55
f 55/55/55 56/56/56 53/53/53
f 57/57/57 58/58/58 59/59/59
f 59/59/59 60/60/60 57/57/57
f 61/61/61 62/62/62 63/63/63
f 63/63/63 64/64/64 61/61/61
f 65/65/65 66/66/66 67/67/67
f 67/67/67 68/68/68 65/65/65
f 69/69/69 70/70/70 71/71/71
f 71/71/71 72/72/72 69/69/69
f 73/73/73 74/74/74 75/75/75
f 75/75/75 76/76/76 73/73/73
f 77/77/77 78/78/78 79/79/79
f 79/79/79 80/80/80 77/77/77
f 81/81/81 82/82/82 83/83/83
f 83/83/83 84/84/84 81/81/81
f 85/85/85 86/86/86 87/87/87
f 87/87/87 88/88/88 85/85/85
f 89/89/89 90/90/90 91/91/91
f 91/91/91 92/92/92 89/89/89
f 93/93/93 94/94/94 95/95/95
f 95/95/95 96/96/96 93/93/93
f 97/97/97 98/98/98 99/99/99
f 99/99/99 100/100/100 97/97/97
f 101/101/101 102/102/102 103/103/103
f 103/103/103 104/104/104 101/101/101
f 105/105/105 106/106/106 107/107/107
f 107/107/107 108/108/108 105/105/105
f 109/109/109 110/110/110 111/111/111
f 111/111/111 112/112/112 109/109/109
f 113/113/113 114/114/114 115/115/115
f 115/115/115 116/116/116 113/113/113
f 117/117/117 118/118/118 119/119/119
f 119/119/119 120/120/120 117/117/117
f 121/121/121 33/33/33 36/36/36
f 36/36/36 122/122/122 121/121/121
f 40/40/40 39/39/39 123/123/123
f 123/123/123 124/124/124 40/40/40
f 44/44/44 43/43/43 125/125/125
f 125/125/125 126/126/126 44/44/44
f 48/48/48 47/47/47 127/127/127
f 127/127/127 128/128/128 48/48/48
f 52/52/52 51/51/51 129/129/129
f 129/129/129 130/130/130 52/52/52
f 56/56/56 55/55/55 131/131/131
f 131/131/131 132/132/132 56/56/56
f 60/60/60 59/59/59 133/133/133
f 133/133/133 134/134/134 60/60/60
f 135/135/135 64/64/64 63/63/63
f 63/63/63 136/136/136 135/135/135
f 137/137/137 65/65/65 68/68/68
f 68/68/68 138/138/138 137/137/137
f 139/139/139 69/69/69 72/72/72
f 72/72/72 140/140/140 139/139/139
f 141/141/141 25/25/25 28/28/28
f 28/28/28 142/142/142 141/141/141
f 143/143/143 29/29/29 32/32/32
f 32/32/32 144/144/144 143/143/143
f 145/145/145 77/77/77 80/80/80
f 80/80/80 146/146/146 145/145/145
f 147/147/147 81/81/81 84/84/84
f 84/84/84 148/148/148 147/147/147
f 149/149/149 85/85/85 88/88/88
f 88/88/88 150/150/150 149/149/149
f 151/151/151 89/89/89 92/92/92
f 92/92/92 152/152/152 151/151/151
f 96/96/96 95/95/95 153/153/153
f 153/153/153 154/154/154 96/96/96
f 100/100/100 99/99/99 155/155/155
f 155/155/155 156/156/156 100/100/100
f 104/104/104 103/103/103 157/157/157
f 157/157/157 158/158/158 104/104/104
f 108/108/108 107/107/107 159/159/159
f 159/159/159 160/160/160 108/108/108
f 109/109/109 112/112/112 161/161/161
f 161/161/161 162/162/162 109/109/109
f 116/116/116 115/115/115 163/163/163
f 163/163/163 164/164/164 116/116/116
f 120/120/120 119/119/119 165/165/165
f 165/165/165 166/166/166 120/120/120
f 167/167/167 76/76/76 75/75/75
f 75/75/75 168/168/168 167/167/167
f 1/1/1 169/169/169 2/2/2
f 2/2/2 169/169/169 5/5/5
f 5/5/5 169/169/169 7/7/7
f 7/7/7 169/169/169 9/9/9
f 9/9/9 169/169/169 11/11/11
f 11/11/11 169/169/169 13/13/13
f 13/13/13 169/169/169 15/15/15
f 15/15/15 169/169/169 17/17/17
f 17/17/17 169/169/169 19/19/19
f 19/19/19 169/169/169 21/21/21
f 21/21/21 169/169/169 23/23/23
f 23/23/23 169/169/169 1/1/1
f 170/170/170 147/147/147 148/148/148
f 148/148/148 171/171/171 170/170/170
f 172/172/172 145/145/145 146/146/146
f 146/146/146 173/173/173 172/172/172
f 174/174/174 167/167/167 168/168/168
f 168/168/168 175/175/175 174/174/174
f 176/176/176 166/166/166 165/165/165
f 165/165/165 177/177/177 176/176/176
f 178/178/178 164/164/164 163/163/163
f 163/163/163 179/179/179 178/178/178
f 162/162/162 161/161/161 180/180/180
f 180/180/180 181/181/181 162/162/162
f 160/160/160 159/159/159 182/182/182
f 182/182/182 183/183/183 160/160/160
f 158/158/158 157/157/157 184/184/184
f 184/184/184 185/185/185 158/158/158
f 156/156/156 155/155/155 186/186/186
f 186/186/186 187/187/187 156/156/156
f 154/154/154 153/153/153 188/188/188
f 188/188/188 189/189/189 154/154/154
f 151/151/151 152/152/152 190/190/190
f 190/190/190 191/191/191 151/151/151
f 192/192/192 149/149/149 150/150/150
f 150/150/150 193/193/193 192/192/192
f 194/194/194 141/141/141 142/142/142
f 142/142/142 195/195/195 194/194/194
f 196/196/196 139/139/139 140/140/140
f 140/140/140 197/197/197 196/196/196
f 198/198/198 137/137/137 138/138/138
f 138/138/138 199/199/199 198/198/198
f 200/200/200 135/135/135 136/136/136
f 136/136/136 201/201/201 200/200/200
f 134/134/134 133/133/133 202/202/202
f 202/202/202 203/203/203 134/134/134
f 132/132/132 131/131/131 204/204/204
f 204/204/204 205/205/205 132/132/132
f 130/130/130 129/129/129 206/206/206
f 206/206/206 207/207/207 130/130/130
f 128/128/128 127/127/127 208/208/208
f 208/208/208 209/209/209 128/128/128
f 126/126/126 125/125/125 210/210/210
f 210/210/210 211/211/211 126/126/126
f 124/124/124 123/123/123 212/212/212
f 212/212/212 213/213/213 124/124/124
f 214/214/214 121/121/121 122/122/122
f 122/122/122 215/215/215 214/214/214
f 216/216/216 143/143/143 144/144/144
f 144/144/144 217/217/217 216/216/216
f 37/37/37 170/170/170 171/171/171
f 171/171/171 38/38/38 37/37/37
f 34/34/34 172/172/172 173/173/173
f 173/173/173 35/35/35 34/34/34
f 30/30/30 174/174/174 175/175/175
f 175/175/175 31/31/31 30/30/30
f 26/26/26 176/176/176 177/177/177
f 177/177/177 27/27/27 26/26/26
f 70/70/70 178/178/178 179/179/179
f 179/179/179 71/71/71 70/70/70
f 181/181/181 180/180/180 67/67/67
f 67/67/67 66/66/66 181/181/181
f 183/183/183 182/182/182 62/62/62
f 62/62/62 61/61/61 183/183/183
f 185/185/185 184/184/184 58/58/58
f 58/58/58 57/57/57 185/185/185
f 187/187/187 186/186/186 54/54/54
f 54/54/54 53/53/53 187/187/187
f 189/189/189 188/188/188 50/50/50
f 50/50/50 49/49/49 189/189/189
f 191/191/191 190/190/190 46/46/46
f 46/46/46 45/45/45 191/191/191
f 41/41/41 192/192/192 193/193/193
f 193/193/193 42/42/42 41/41/41
f 218/218/218 219/219/219 220/220/220
f 220/220/220 221/221/221 218/218/218
f 219/219/219 222/222/222 223/223/223
f 223/223/223 220/220/220 219/219/219
f 224/224/224 225/225/225 226/226/226
f 226/226/226 227/227/227 224/224/224
f 225/225/225 228/228/228 229/229/229
f 229/229/229 226/226/226 225/225/225
f 228/228/228 230/230/230 231/231/231
f 231/231/231 229/229/229 228/228/228
f 230/230/230 232/232/232 233/233/233
f 233/233/233 231/231/231 230/230/230
f 234/234/234 235/235/235 236/236/236
f 236/236/236 237/237/237 234/234/234
f 238/238/238 239/239/239 240/240/240
f 240/240/240 241/241/241 238/238/238
f 242/242/242 241/241/241 243/243/243
f 243/243/243 244/244/244 242/242/242
f 244/244/244 243/243/243 245/245/245
f 245/245/245 246/246/246 244/244/244
f 247/247/247 248/248/248 249/249/249
f 249/249/249 250/250/250 247/247/247
f 248/248/248 218/218/218 221/221/221
f 221/221/221 249/249/249 248/248/248
f 251/251/251 252/252/252 253/253/253
f 254/254/254 252/252/252 251/251/251
f 255/255/255 252/252/252 254/254/254
f 256/256/256 252/252/252 255/255/255
f 257/257/257 252/252/252 256/256/256
f 258/258/258 252/252/252 257/257/257
f 259/259/259 252/252/252 258/258/258
f 260/260/260 252/252/252 259/259/259
f 261/261/261 252/252/252 260/260/260
f 262/262/262 252/252/252 261/261/261
f 263/263/263 252/252/252 262/262/262
f 253/253/253 252/252/252 263/263/263
f 264/264/264 265/265/265 266/266/266
f 266/266/266 267/267/267 264/264/264
f 268/268/268 264/264/264 267/267/267
f 267/267/267 232/232/232 268/268/268
f 269/269/269 268/268/268 232/232/232
f 232/232/232 230/230/230 269/269/269
f 270/270/270 269/269/269 230/230/230
f 230/230/230 228/228/228 270/270/270
f 271/271/271 270/270/270 228/228/228
f 228/228/228 225/225/225 271/271/271
f 224/224/224 272/272/272 271/271/271
f 271/271/271 225/225/225 224/224/224
f 219/219/219 273/273/273 274/274/274
f 274/274/274 222/222/222 219/219/219
f 218/218/218 275/275/275 273/273/273
f 273/273/273 219/219/219 218/218/218
f 248/248/248 276/276/276 275/275/275
f 275/275/275 218/218/218 248/248/248
f 247/247/247 277/277/277 276/276/276
f 276/276/276 248/248/248 247/247/247
f 278/278/278 279/279/279 277/277/277
f 277/277/277 247/247/247 278/278/278
f 266/266/266 265/265/265 279/279/279
f 279/279/279 278/278/278 266/266/266
f 280/280/280 281/281/281 259/259/259
f 259/259/259 258/258/258 280/280/280
f 282/282/282 283/283/283 284/284/284
f 284/284/284 285/285/285 282/282/282
f 284/284/284 286/286/286 287/287/287
f 287/287/287 285/285/285 284/284/284
f 260/260/260 259/259/259 281/281/281
f 281/281/281 288/288/288 260/260/260
f 289/289/289 290/290/290 283/283/283
f 283/283/283 282/282/282 289/289/289
f 260/260/260 288/288/288 291/291/291
f 291/291/291 261/261/261 260/260/260
f 292/292/292 293/293/293 290/290/290
f 290/290/290 289/289/289 292/292/292
f 261/261/261 291/291/291 294/294/294
f 294/294/294 262/262/262 261/261/261
f 295/295/295 296/296/296 297/297/297
f 297/297/297 298/298/298 295/295/295
f 295/295/295 293/293/293 292/292/292
f 292/292/292 296/296/296 295/295/295
f 245/245/245 243/243/243 299/299/299
f 299/299/299 300/300/300 245/245/245
f 246/246/246 245/245/245 300/300/300
f 300/300/300 301/301/301 246/246/246
f 302/302/302 303/303/303 304/304/304
f 305/305/305 306/306/306 303/303/303
f 303/303/303 302/302/302 305/305/305
f 307/307/307 308/308/308 309/309/309
f 310/310/310 235/235/235 234/234/234
f 234/234/234 311/311/311 310/310/310
f 312/312/312 236/236/236 313/313/313
f 310/310/310 313/313/313 235/235/235
f 313/313/313 236/236/236 235/235/235
f 243/243/243 314/314/314 315/315/315
f 315/315/315 299/299/299 243/243/243
f 312/312/312 313/313/313 315/315/315
f 315/315/315 314/314/314 312/312/312
f 309/309/309 306/306/306 305/305/305
f 305/305/305 316/316/316 309/309/309
f 317/317/317 318/318/318 319/319/319
f 319/319/319 320/320/320 317/317/317
f 320/320/320 319/319/319 321/321/321
f 321/321/321 322/322/322 320/320/320
f 322/322/322 321/321/321 323/323/323
f 323/323/323 324/324/324 322/322/322
f 323/323/323 325/325/325 326/326/326
f 326/326/326 324/324/324 323/323/323
f 325/325/325 327/327/327 328/328/328
f 328/328/328 326/326/326 325/325/325
f 327/327/327 329/329/329 330/330/330
f 330/330/330 328/328/328 327/327/327
f 331/331/331 332/332/332 333/333/333
f 333/333/333 334/334/334 331/331/331
f 333/333/333 332/332/332 335/335/335
f 335/335/335 336/336/336 333/333/333
f 335/335/335 337/337/337 338/338/338
f 338/338/338 336/336/336 335/335/335
f 337/337/337 339/339/339 340/340/340
f 340/340/340 338/338/338 337/337/337
f 339/339/339 341/341/341 342/342/342
f 342/342/342 340/340/340 339/339/339
f 342/342/342 341/341/341 318/318/318
f 318/318/318 317/317/317 342/342/342
f 343/343/343 250/250/250 249/249/249
f 249/249/249 344/344/344 343/343/343
f 249/249/249 221/221/221 345/345/345
f 345/345/345 344/344/344 249/249/249
f 221/221/221 220/220/220 346/346/346
f 346/346/346 345/345/345 221/221/221
f 220/220/220 223/223/223 347/347/347
f 347/347/347 346/346/346 220/220/220
f 348/348/348 227/227/227 226/226/226
f 226/226/226 349/349/349 348/348/348
f 349/349/349 226/226/226 229/229/229
f 229/229/229 350/350/350 349/349/349
f 350/350/350 229/229/229 231/231/231
f 231/231/231 351/351/351 350/350/350
f 231/231/231 233/233/233 352/352/352
f 352/352/352 351/351/351 231/231/231
f 353/353/353 354/354/354 287/287/287
f 287/287/287 286/286/286 353/353/353
f 355/355/355 356/356/356 311/311/311
f 311/311/311 234/234/234 355/355/355
f 234/234/234 237/237/237 357/357/357
f 357/357/357 355/355/355 234/234/234
f 358/358/358 239/239/239 238/238/238
f 238/238/238 359/359/359 358/358/358
f 360/360/360 242/242/242 244/244/244
f 244/244/244 361/361/361 360/360/360
f 361/361/361 244/244/244 246/246/246
f 246/246/246 362/362/362 361/361/361
f 362/362/362 246/246/246 301/301/301
f 301/301/301 363/363/363 362/362/362
f 364/364/364 298/298/298 297/297/297
f 297/297/297 365/365/365 364/364/364
f 366/366/366 367/367/367 368/368/368
f 368/368/368 369/369/369 366/366/366
f 370/370/370 371/371/371 372/372/372
f 372/372/372 373/373/373 370/370/370
f 374/374/374 375/375/375 367/367/367
f 367/367/367 366/366/366 374/374/374
f 371/371/371 376/376/376 377/377/377
f 377/377/377 372/372/372 371/371/371
f 378/378/378 379/379/379 375/375/375
f 375/375/375 374/374/374 378/378/378
f 377/377/377 376/376/376 380/380/380
f 380/380/380 381/381/381 377/377/377
f 382/382/382 383/383/383 379/379/379
f 379/379/379 378/378/378 382/382/382
f 381/381/381 380/380/380 384/384/384
f 384/384/384 385/385/385 381/381/381
f 386/386/386 387/387/387 388/388/388
f 388/388/388 389/389/389 386/386/386
f 390/390/390 391/391/391 392/392/392
f 392/392/392 393/393/393 390/390/390
f 394/394/394 386/386/386 389/389/389
f 389/389/389 395/395/395 394/394/394
f 391/391/391 396/396/396 397/397/397
f 397/397/397 392/392/392 391/391/391
f 398/398/398 394/394/394 395/395/395
f 395/395/395 399/399/399 398/398/398
f 397/397/397 396/396/396 400/400/400
f 400/400/400 401/401/401 397/397/397
f 402/402/402 398/398/398 399/399/399
f 399/399/399 403/403/403 402/402/402
f 400/400/400 404/404/404 405/405/405
f 405/405/405 401/401/401 400/400/400
f 406/406/406 407/407/407 402/402/402
f 402/402/402 403/403/403 406/406/406
f 405/405/405 404/404/404 408/408/408
f 408/408/408 409/409/409 405/405/405
f 410/410/410 411/411/411 407/407/407
f 407/407/407 406/406/406 410/410/410
f 409/409/409 408/408/408 412/412/412
f 412/412/412 413/413/413 409/409/409
f 414/414/414 415/415/415 416/416/416
f 416/416/416 417/417/417 414/414/414
f 418/418/418 419/419/419 420/420/420
f 420/420/420 421/421/421 418/418/418
f 414/414/414 417/417/417 369/369/369
f 369/369/369 368/368/368 414/414/414
f 419/419/419 370/370/370 373/373/373
f 373/373/373 420/420/420 419/419/419
f 422/422/422 423/423/423 407/407/407
f 407/407/407 411/411/411 422/422/422
f 414/414/414 424/424/424 425/425/425
f 425/425/425 415/415/415 414/414/414
f 424/424/424 414/414/414 368/368/368
f 368/368/368 426/426/426 424/424/424
f 367/367/367 427/427/427 426/426/426
f 426/426/426 368/368/368 367/367/367
f 375/375/375 428/428/428 427/427/427
f 427/427/427 367/367/367 375/375/375
f 379/379/379 429/429/429 428/428/428
f 428/428/428 375/375/375 379/379/379
f 430/430/430 429/429/429 379/379/379
f 379/379/379 383/383/383 430/430/430
f 431/431/431 432/432/432 387/387/387
f 387/387/387 386/386/386 431/431/431
f 433/433/433 431/431/431 386/386/386
f 386/386/386 394/394/394 433/433/433
f 434/434/434 433/433/433 394/394/394
f 394/394/394 398/398/398 434/434/434
f 435/435/435 434/434/434 398/398/398
f 398/398/398 402/402/402 435/435/435
f 423/423/423 435/435/435 402/402/402
f 402/402/402 407/407/407 423/423/423
f 436/436/436 437/437/437 423/423/423
f 423/423/423 422/422/422 436/436/436
f 438/438/438 425/425/425 424/424/424
f 424/424/424 439/439/439 438/438/438
f 426/426/426 440/440/440 439/439/439
f 439/439/439 424/424/424 426/426/426
f 427/427/427 441/441/441 440/440/440
f 440/440/440 426/426/426 427/427/427
f 428/428/428 442/442/442 441/441/441
f 441/441/441 427/427/427 428/428/428
f 429/429/429 443/443/443 442/442/442
f 442/442/442 428/428/428 429/429/429
f 444/444/444 443/443/443 429/429/429
f 429/429/429 430/430/430 444/444/444
f 445/445/445 446/446/446 432/432/432
f 432/432/432 431/431/431 445/445/445
f 447/447/447 445/445/445 431/431/431
f 431/431/431 433/433/433 447/447/447
f 448/448/448 447/447/447 433/433/433
f 433/433/433 434/434/434 448/448/448
f 449/449/449 448/448/448 434/434/434
f 434/434/434 435/435/435 449/449/449
f 437/437/437 449/449/449 435/435/435
f 435/435/435 423/423/423 437/437/437
f 450/450/450 451/451/451 452/452/452
f 452/452/452 451/451/451 453/453/453
f 453/453/453 451/451/451 454/454/454
f 454/454/454 451/451/451 455/455/455
f 455/455/455 451/451/451 456/456/456
f 456/456/456 451/451/451 457/457/457
f 457/457/457 451/451/451 458/458/458
f 458/458/458 451/451/451 459/459/459
f 459/459/459 451/451/451 460/460/460
f 460/460/460 451/451/451 461/461/461
f 461/461/461 451/451/451 462/462/462
f 462/462/462 451/451/451 450/450/450
f 264/264/264 342/342/342 317/317/317
f 317/317/317 265/265/265 264/264/264
f 265/265/265 317/317/317 320/320/320
f 320/320/320 279/279/279 265/265/265
f 279/279/279 320/320/320 322/322/322
f 322/322/322 277/277/277 279/279/279
f 277/277/277 322/322/322 324/324/324
f 324/324/324 276/276/276 277/277/277
f 276/276/276 324/324/324 326/326/326
f 326/326/326 275/275/275 276/276/276
f 275/275/275 326/326/326 328/328/328
f 328/328/328 273/273/273 275/275/275
f 328/328/328 330/330/330 274/274/274
f 274/274/274 273/273/273 328/328/328
f 334/334/334 333/333/333 271/271/271
f 271/271/271 272/272/272 334/334/334
f 333/333/333 336/336/336 270/270/270
f 270/270/270 271/271/271 333/333/333
f 336/336/336 338/338/338 269/269/269
f 269/269/269 270/270/270 336/336/336
f 338/338/338 340/340/340 268/268/268
f 268/268/268 269/269/269 338/338/338
f 268/268/268 340/340/340 342/342/342
f 342/342/342 264/264/264 268/268/268
f 396/396/396 391/391/391 445/445/445
f 445/445/445 447/447/447 396/396/396
f 400/400/400 396/396/396 447/447/447
f 447/447/447 448/448/448 400/400/400
f 404/404/404 400/400/400 448/448/448
f 448/448/448 449/449/449 404/404/404
f 408/408/408 404/404/404 449/449/449
f 449/449/449 437/437/437 408/408/408
f 412/412/412 408/408/408 437/437/437
f 437/437/437 436/436/436 412/412/412
f 418/418/418 438/438/438 439/439/439
f 439/439/439 419/419/419 418/418/418
f 440/440/440 370/370/370 419/419/419
f 419/419/419 439/439/439 440/440/440
f 441/441/441 371/371/371 370/370/370
f 370/370/370 440/440/440 441/441/441
f 442/442/442 376/376/376 371/371/371
f 371/371/371 441/441/441 442/442/442
f 443/443/443 380/380/380 376/376/376
f 376/376/376 442/442/442 443/443/443
f 384/384/384 380/380/380 443/443/443
f 443/443/443 444/444/444 384/384/384
f 391/391/391 390/390/390 446/446/446
f 446/446/446 445/445/445 391/391/391
f 463/463/463 316/316/316 464/464/464
f 464/464/464 465/465/465 463/463/463
f 466/466/466 464/464/464 316/316/316
f 316/316/316 305/305/305 466/466/466
f 466/466/466 305/305/305 302/302/302
f 302/302/302 467/467/467 466/466/466
f 467/467/467 302/302/302 304/304/304
f 304/304/304 468/468/468 467/467/467
f 306/306/306 469/469/469 303/303/303
f 308/308/308 469/469/469 306/306/306
f 306/306/306 309/309/309 308/308/308
f 307/307/307 309/309/309 316/316/316
f 316/316/316 463/463/463 307/307/307
f 237/237/237 470/470/470 471/471/471
f 471/471/471 357/357/357 237/237/237
f 236/236/236 240/240/240 470/470/470
f 470/470/470 237/237/237 236/236/236
f 312/312/312 240/240/240 236/236/236
f 240/240/240 312/312/312 314/314/314
f 314/314/314 241/241/241 240/240/240
f 243/243/243 241/241/241 314/314/314
f 300/300/300 299/299/299 293/293/293
f 293/293/293 295/295/295 300/300/300
f 300/300/300 295/295/295 298/298/298
f 298/298/298 301/301/301 300/300/300
f 363/363/363 301/301/301 298/298/298
f 298/298/298 364/364/364 363/363/363
f 291/291/291 467/467/467 468/468/468
f 468/468/468 294/294/294 291/291/291
f 288/288/288 466/466/466 467/467/467
f 467/467/467 291/291/291 288/288/288
f 464/464/464 466/466/466 288/288/288
f 288/288/288 281/281/281 464/464/464
f 465/465/465 464/464/464 281/281/281
f 281/281/281 280/280/280 465/465/465
f 356/356/356 353/353/353 286/286/286
f 286/286/286 311/311/311 356/356/356
f 310/310/310 311/311/311 286/286/286
f 286/286/286 284/284/284 310/310/310
f 283/283/283 313/313/313 310/310/310
f 310/310/310 284/284/284 283/283/283
f 290/290/290 315/315/315 313/313/313
f 313/313/313 283/283/283 290/290/290
f 299/299/299 315/315/315 290/290/290
f 290/290/290 293/293/293 299/299/299