mtllib 46209051.mtl
o Mesh

v -0.27027401328086853 -0.07207095623016357 0.27538299560546875
v -0.34204399585723877 -0.06522798538208008 0.14189299941062927
v -0.24070699512958527 -0.31133997440338135 0.17475900053977966
v -0.1904670000076294 -0.3029550313949585 0.26444199681282043
v -0.16286399960517883 -0.08544504642486572 0.3666340112686157
v -0.11527899652719498 -0.29807794094085693 0.3236039876937866
v -0.03616499900817871 -0.10243701934814453 0.40220901370048523
v -0.16286399960517883 -0.08544504642486572 0.3666340112686157
v -0.11527899652719498 -0.29807794094085693 0.3236039876937866
v -0.02658900059759617 -0.2965409755706787 0.34355100989341736
v 0.09053400158882141 -0.12017703056335449 0.3763830065727234
v 0.062102001160383224 -0.29807794094085693 0.32208698987960815
v 0.19794400036334991 -0.13716399669647217 0.29345598816871643
v 0.13729000091552734 -0.3029550313949585 0.26264500617980957
v 0.19794400036334991 -0.13716399669647217 0.29345598816871643
v 0.13729000091552734 -0.3029550313949585 0.26264500617980957
v 0.18752899765968323 -0.31133997440338135 0.1735219955444336
v 0.26971301436424255 -0.1526169776916504 0.16778700053691864
v 0.20517100393772125 -0.32221102714538574 0.06674099713563919
v 0.29491499066352844 -0.16436302661895752 0.017057999968528748
v 0.18752899765968323 -0.3331630229949951 -0.041579000651836395
v 0.26971301436424255 -0.16850805282592773 -0.13668300211429596
v 0.13729000091552734 -0.3417179584503174 -0.13470099866390228
v 0.19794400036334991 -0.16231799125671387 -0.2695089876651764
v 0.19794400036334991 -0.16231799125671387 -0.2695089876651764
v 0.13729000091552734 -0.3417179584503174 -0.13470099866390228
v 0.062102001160383224 -0.346729040145874 -0.19766700267791748
v 0.0905349999666214 -0.14703094959259033 -0.3601120114326477
v -0.026587000116705894 -0.34831202030181885 -0.21988500654697418
v -0.03616400063037872 -0.12701904773712158 -0.39475899934768677
v -0.11527799814939499 -0.346729040145874 -0.197285994887352
v -0.16286300122737885 -0.10665404796600342 -0.36924201250076294
v -0.27027300000190735 -0.08864903450012207 -0.28778600692749023
v -0.1904660016298294 -0.3417179584503174 -0.13411200046539307
v -0.34204399585723877 -0.07466495037078857 -0.16280800104141235
v -0.27027300000190735 -0.08864903450012207 -0.28778600692749023
v -0.1904660016298294 -0.3417179584503174 -0.13411200046539307
v -0.24070699512958527 -0.3331630229949951 -0.04081900045275688
v -0.36724600195884705 -0.06629598140716553 -0.012106000445783138
v -0.2583479881286621 -0.32221102714538574 0.0677260011434555
v -0.16169999539852142 -0.3987489938735962 0.16478000581264496
v -0.12999799847602844 -0.3917909860610962 0.221002995967865
v -0.08255299925804138 -0.3873850107192993 0.2581520080566406
v -0.02658900059759617 -0.3858950138092041 0.27112001180648804
v -0.08255299925804138 -0.3873850107192993 0.2581520080566406
v 0.02937600016593933 -0.3873850107192993 0.25811898708343506
v 0.07682099938392639 -0.3917909860610962 0.22087900340557098
v 0.10852199792861938 -0.3987489938735962 0.16464099287986755
v 0.07682099938392639 -0.3917909860610962 0.22087900340557098
v 0.11965499818325043 -0.4073070287704468 0.09730400145053864
v 0.10852199792861938 -0.41596102714538574 0.028927000239491463
v 0.07682099938392639 -0.42314302921295166 -0.030023999512195587
v 0.02937600016593933 -0.4277629852294922 -0.06990399956703186
v 0.07682099938392639 -0.42314302921295166 -0.030023999512195587
v -0.02658800035715103 -0.42933905124664307 -0.08399699628353119
v -0.08255299925804138 -0.4277629852294922 -0.06990399956703186
v -0.12999799847602844 -0.42314302921295166 -0.030023999512195587
v -0.12999799847602844 -0.42314302921295166 -0.030023999512195587
v -0.16169999539852142 -0.41596102714538574 0.028954999521374702
v -0.17283199727535248 -0.4073070287704468 0.09744200110435486
v -0.17435100674629211 1.079450011253357 0.16735400259494781
v -0.23535199463367462 1.121000051498413 0.053507000207901
v -0.41179901361465454 1.0864900350570679 0.10976199805736542
v -0.3214159905910492 1.0250799655914307 0.27833500504493713
v -0.08294600248336792 1.017199993133545 0.25015199184417725
v -0.186148002743721 0.9331799745559692 0.3953770101070404
v 0.025042999535799026 0.9436500072479248 0.28856098651885986
v -0.026590000838041306 0.8247799873352051 0.4486689865589142
v 0.133215993642807 0.8699699640274048 0.2760680019855499
v 0.13296900689601898 0.7163699865341187 0.4286839962005615
v 0.2250639945268631 0.8074100017547607 0.2145179957151413
v 0.26823699474334717 0.6244699954986572 0.3347499966621399
v 0.28650999069213867 0.7655600309371948 0.11402899771928787
v 0.3586199879646301 0.5630699992179871 0.18221800029277802
v 0.39035800099372864 0.5414999723434448 -0.0009040000149980187
v 0.30810099840164185 0.7508599758148193 -0.008723000064492226
v 0.3586199879646301 0.5630699992179871 -0.18460500240325928
v 0.28650999069213867 0.7655600309371948 -0.13394799828529358
v 0.26823699474334717 0.6244699954986572 -0.34330499172210693
v 0.22506499290466309 0.8074100017547607 -0.24586600065231323
v 0.13297000527381897 0.7163699865341187 -0.45697298645973206
v 0.133215993642807 0.8699699640274048 -0.32521501183509827
v -0.02658900059759617 0.8247799873352051 -0.5101450085639954
v 0.025042999535799026 0.9436500072479248 -0.3614619970321655
v -0.186148002743721 0.9331799745559692 -0.490539014339447
v -0.08294600248336792 1.017199993133545 -0.34973499178886414
v -0.3214159905910492 1.0250799655914307 -0.3996739983558655
v -0.17435100674629211 1.079450011253357 -0.2914479970932007
v -0.41179800033569336 1.0864900350570679 -0.25717398524284363
v -0.23535199463367462 1.121000051498413 -0.1946749985218048
v -0.44353699684143066 1.108049988746643 -0.07848499715328217
v -0.25675898790359497 1.135580062866211 -0.07363799959421158
v -0.09725300222635269 1.119320034980774 0.011132000014185905
v -0.06088599935173988 1.0947599411010742 0.07877500355243683
v -0.006684999912977219 1.058150053024292 0.126691997051239
v 0.0569010004401207 1.0152000188827515 0.14860999584197998
v 0.12011300027370453 0.9725099802017212 0.14091899991035461
v 0.17341099679470062 0.9365099668502808 0.10523000359535217
v 0.20887599885463715 0.912559986114502 0.0475119985640049
v 0.22130200266838074 0.9041699767112732 -0.023082999512553215
v 0.20887599885463715 0.912559986114502 -0.09542900323867798
v 0.17341099679470062 0.9365099668502808 -0.16034099459648132
v 0.12011300027370453 0.9725099802017212 -0.20955699682235718
v 0.0569010004401207 1.0152000188827515 -0.2326579988002777
v -0.006684999912977219 1.058150053024292 -0.22665800154209137
v -0.06088599935173988 1.0947599411010742 -0.1926340013742447
v -0.09725400060415268 1.119320034980774 -0.13551199436187744
v -0.11005300283432007 1.1279699802398682 -0.06384900212287903
v 0.07956299930810928 1.0682200193405151 -0.045069001615047455
v 0.2669900059700012 0.35857999324798584 -0.3693050146102905
v 0.24486500024795532 0.08920997381210327 -0.35761401057243347
v 0.11446399986743927 0.12694001197814941 -0.4643779993057251
v 0.1264369934797287 0.4239199757575989 -0.48507699370384216
v 0.3609049916267395 0.31490999460220337 -0.20513400435447693
v 0.33199700713157654 0.06397002935409546 -0.20089499652385712
v 0.24486500024795532 0.08920997381210327 -0.35761401057243347
v 0.2669900059700012 0.35857999324798584 -0.3693050146102905
v 0.39388298988342285 0.2995799779891968 -0.01107800006866455
v 0.36259299516677856 0.05628997087478638 -0.016814999282360077
v 0.3609040081501007 0.31490999460220337 0.1836879998445511
v 0.33199700713157654 0.06617999076843262 0.16603399813175201
v 0.2669900059700012 0.35857999324798584 0.34917300939559937
v 0.24486500024795532 0.09073001146316528 0.32039299607276917
v 0.2669900059700012 0.35857999324798584 0.34917300939559937
v 0.1264359951019287 0.4239199757575989 0.4534139931201935
v 0.1144620031118393 0.12694001197814941 0.4208329916000366
v 0.24486500024795532 0.09073001146316528 0.32039299607276917
v -0.039358001202344894 0.501010000705719 0.4793260097503662
v -0.03935699909925461 0.17031002044677734 0.44805198907852173
v -0.2051520049571991 0.5780900120735168 0.42403900623321533
v -0.1931769996881485 0.21368998289108276 0.3980250060558319
v -0.2051520049571991 0.5780900120735168 0.42403900623321533
v -0.3457059860229492 0.6434400081634521 0.29679301381111145
v -0.3235799968242645 0.25046002864837646 0.27925199270248413
v -0.1931769996881485 0.21368998289108276 0.3980250060558319
v -0.4396199882030487 0.6870999932289124 0.11868699640035629
v -0.41071200370788574 0.2750300168991089 0.11194200068712234
v -0.47259899973869324 0.702430009841919 -0.08083800226449966
v -0.44130799174308777 0.28365999460220337 -0.07562699913978577
v -0.4396199882030487 0.6870999932289124 -0.27026399970054626
v -0.41071200370788574 0.2750300168991089 -0.2536880075931549
v -0.3457050025463104 0.6434400081634521 -0.4217199981212616
v -0.32357901334762573 0.25046002864837646 -0.3967190086841583
v -0.2051510065793991 0.5780900120735168 -0.5145360231399536
v -0.1931760013103485 0.21368998289108276 -0.4858179986476898
v -0.32357901334762573 0.25046002864837646 -0.3967190086841583
v -0.3457050025463104 0.6434400081634521 -0.4217199981212616
v -0.03935600072145462 0.501010000705719 -0.5364260077476501
v -0.03935600072145462 0.17031002044677734 -0.5093449950218201
v 0.13297000527381897 0.7163699865341187 -0.45697298645973206
v -0.02658900059759617 0.8247799873352051 -0.5101450085639954
v 0.26823699474334717 0.6244699954986572 -0.34330499172210693
v 0.3586199879646301 0.5630699992179871 -0.18460500240325928
v 0.26823699474334717 0.6244699954986572 -0.34330499172210693
v 0.39035800099372864 0.5414999723434448 -0.0009040000149980187
v 0.3586199879646301 0.5630699992179871 0.18221800029277802
v 0.26823699474334717 0.6244699954986572 0.3347499966621399
v 0.26823699474334717 0.6244699954986572 0.3347499966621399
v 0.13296900689601898 0.7163699865341187 0.4286839962005615
v -0.026590000838041306 0.8247799873352051 0.4486689865589142
v -0.186148002743721 0.9331799745559692 0.3953770101070404
v -0.186148002743721 0.9331799745559692 0.3953770101070404
v -0.3214159905910492 1.0250799655914307 0.27833500504493713
v -0.41179901361465454 1.0864900350570679 0.10976199805736542
v -0.44353699684143066 1.108049988746643 -0.07848499715328217
v -0.41179800033569336 1.0864900350570679 -0.25717398524284363
v -0.3214159905910492 1.0250799655914307 -0.3996739983558655
v -0.186148002743721 0.9331799745559692 -0.490539014339447
v -0.3214159905910492 1.0250799655914307 -0.3996739983558655
v -0.02658900059759617 -0.4723860025405884 0.11659999936819077
v -0.02658900059759617 -0.4723860025405884 0.11659999936819077
v -0.02658900059759617 -0.4723860025405884 0.11659999936819077
v -0.02658900059759617 -0.4723860025405884 0.11659999936819077
v -0.2780730128288269 -0.8674819469451904 0.306661993265152
v -0.31513699889183044 -1.0 0.3280610144138336
v -0.19384600222110748 -1.0 0.44935300946235657
v -0.17244699597358704 -0.8674819469451904 0.41228899359703064
v -0.028158999979496002 -1.0 0.4937480092048645
v -0.028158999979496002 -0.8674819469451904 0.4509499967098236
v 0.13752800226211548 -1.0 0.44935300946235657
v 0.11612900346517563 -0.8674819469451904 0.41228899359703064
v 0.25881901383399963 -1.0 0.3280610144138336
v 0.2217549979686737 -0.8674819469451904 0.306661993265152
v 0.30321499705314636 -1.0 0.16237400472164154
v 0.26041701436042786 -0.8674819469451904 0.16237400472164154
v 0.393559992313385 -0.9297209978103638 -0.5814120173454285
v 0.42409899830818176 -0.9156290292739868 -0.5768839716911316
v 0.4420720040798187 -1.0 -0.5831329822540283
v 0.40839600563049316 -1.0 -0.5939109921455383
v 0.3198310136795044 -0.9342730045318604 -0.5495210289955139
v 0.33466699719429016 -1.0 -0.5620189905166626
v 0.1627659946680069 -1.0 -0.5897049903869629
v 0.15367700159549713 -0.9237120151519775 -0.5680570006370544
v 0.005289999768137932 -0.8733539581298828 -0.7481439709663391
v 0.006961999926716089 -1.0 -0.7714669704437256
v -0.028157999739050865 -1.0 -0.784430980682373
v -0.028157999739050865 -0.8674819469451904 -0.7594349980354309
v -0.20999300479888916 -0.9237120151519775 -0.5680570006370544
v -0.1190750002861023 -0.8944840431213379 -0.6419360041618347
v -0.12362000346183777 -1.0 -0.66525799036026
v -0.21908199787139893 -1.0 -0.5897049903869629
v -0.37614700198173523 -0.9342730045318604 -0.5495210289955139
v -0.390982985496521 -1.0 -0.5620189905166626
v -0.49221500754356384 -0.9297209978103638 -0.5549769997596741
v -0.47239598631858826 -0.9156290292739868 -0.5768839716911316
v -0.4903689920902252 -1.0 -0.5831329822540283
v -0.513329029083252 -1.0 -0.5549769997596741
v -0.31673499941825867 -0.8674819469451904 0.16237400472164154
v -0.35953301191329956 -1.0 0.16237400472164154
v -0.19384600222110748 -1.0 0.44935300946235657
v -0.31513699889183044 -1.0 0.3280610144138336
v -0.028158999979496002 -1.0 0.16237400472164154
v -0.028158999979496002 -1.0 0.4937480092048645
v 0.13752800226211548 -1.0 0.44935300946235657
v 0.25881901383399963 -1.0 0.3280610144138336
v 0.30321499705314636 -1.0 0.16237400472164154
v 0.2588199973106384 -1.0 -0.0033130000811070204
v 0.13752900063991547 -1.0 -0.1246040016412735
v -0.028157999739050865 -1.0 -0.16899999976158142
v -0.1938450038433075 -1.0 -0.1246040016412735
v -0.31513598561286926 -1.0 -0.0033130000811070204
v -0.35953301191329956 -1.0 0.16237400472164154
v 0.06513900309801102 -0.2900969982147217 -0.0530179999768734
v 0.06709399819374084 -0.567857027053833 -0.002389000030234456
v -0.028158999979496002 -0.567857027053833 -0.027912000194191933
v -0.028158999979496002 -0.2900969982147217 -0.07801699638366699
v 0.13343699276447296 -0.2900969982147217 0.015281000174582005
v 0.1367969959974289 -0.5675849914550781 0.06734900176525116
v 0.15843600034713745 -0.2900969982147217 0.10857900232076645
v 0.16226999461650848 -0.5672119855880737 0.16257299482822418
v 0.13343699276447296 -0.2900969982147217 0.20187599956989288
v 0.13670900464057922 -0.5667480230331421 0.2577440142631531
v 0.06513900309801102 -0.2900969982147217 0.2701750099658966
v 0.0670119971036911 -0.5664939880371094 0.32738998532295227
v -0.028158999979496002 -0.2900969982147217 0.2951740026473999
v -0.028158999979496002 -0.5664939880371094 0.3528909981250763
v -0.028158999979496002 -0.2900969982147217 0.2951740026473999
v -0.12145700305700302 -0.2900969982147217 0.2701750099658966
v -0.12333100289106369 -0.5664939880371094 0.32738998532295227
v -0.028158999979496002 -0.5664939880371094 0.3528909981250763
v -0.18975600600242615 -0.2900969982147217 0.20187599956989288
v -0.19302700459957123 -0.5667480230331421 0.2577440142631531
v -0.21475400030612946 -0.2900969982147217 0.10857900232076645
v -0.2185879945755005 -0.5672119855880737 0.16257299482822418
v -0.18975600600242615 -0.2900969982147217 0.015281000174582005
v -0.1931149959564209 -0.5675849914550781 0.06734900176525116
v -0.12145700305700302 -0.2900969982147217 -0.0530179999768734
v -0.12341299653053284 -0.567857027053833 -0.002389000030234456
v -0.2780730128288269 -0.8238300085067749 0.01808599941432476
v -0.31673499941825867 -0.8674819469451904 0.16237400472164154
v -0.17244599759578705 -0.7867139577865601 -0.08754000067710876
v -0.028157999739050865 -0.7720799446105957 -0.12620200216770172
v 0.11613000184297562 -0.7867139577865601 -0.08754000067710876
v 0.2217559963464737 -0.8238300085067749 0.01808599941432476
v 0.26041701436042786 -0.8674819469451904 0.16237400472164154
v 0.2217549979686737 -0.8674819469451904 0.306661993265152
v 0.11612900346517563 -0.8674819469451904 0.41228899359703064
v -0.028158999979496002 -0.8674819469451904 0.4509499967098236
v -0.17244699597358704 -0.8674819469451904 0.41228899359703064
v -0.028158999979496002 -0.8674819469451904 0.4509499967098236
v -0.2780730128288269 -0.8674819469451904 0.306661993265152
v 0.2937749922275543 -1.0 -0.26079899072647095
v 0.33466699719429016 -1.0 -0.5620189905166626
v 0.391525000333786 -1.0 -0.47692400217056274
v 0.3309670090675354 -1.0 -0.26079899072647095
v 0.2217559963464737 -0.8238300085067749 0.01808599941432476
v 0.3119699954986572 -0.8869459629058838 -0.26079899072647095
v 0.2699440121650696 -0.9019989967346191 -0.26079899072647095
v 0.38127198815345764 -0.9364659786224365 -0.26079899072647095
v 0.26041701436042786 -0.8674819469451904 0.16237400472164154
v 0.30321499705314636 -1.0 0.16237400472164154
v 0.4083620011806488 -1.0 -0.26079899072647095
v 0.1449189931154251 -1.0 -0.26079899072647095
v 0.1296679973602295 -0.866845965385437 -0.26079899072647095
v 0.11613000184297562 -0.7867139577865601 -0.08754000067710876
v -0.028157999739050865 -1.0 -0.26079899072647095
v -0.028157999739050865 -1.0 -0.6782230138778687
v 0.06730400025844574 -1.0 -0.66525799036026
v -0.010498999617993832 -1.0 -0.26079899072647095
v -0.028157999739050865 -0.7720799446105957 -0.12620200216770172
v -0.004430000204592943 -0.8347599506378174 -0.26079899072647095
v -0.028157999739050865 -0.8228349685668945 -0.26079899072647095
v -0.20123499631881714 -1.0 -0.26079899072647095
v -0.045816998928785324 -1.0 -0.26079899072647095
v -0.051885999739170074 -0.8347599506378174 -0.26079899072647095
v -0.18598400056362152 -0.866845965385437 -0.26079899072647095
v -0.17244599759578705 -0.7867139577865601 -0.08754000067710876
v -0.35009101033210754 -1.0 -0.26079899072647095
v -0.3262600004673004 -0.9019989967346191 -0.26079899072647095
v -0.2780730128288269 -0.8238300085067749 0.01808599941432476
v -0.4610559940338135 -1.0 -0.26079899072647095
v -0.38728299736976624 -1.0 -0.26079899072647095
v -0.4338259994983673 -0.9360630512237549 -0.26079899072647095
v -0.4610559940338135 -1.0 -0.26079899072647095
v -0.35953301191329956 -1.0 0.16237400472164154
v -0.31673499941825867 -0.8674819469451904 0.16237400472164154
v -0.36706799268722534 -0.8871860504150391 -0.26079899072647095
v 0.06730400025844574 -1.0 -0.66525799036026
v 0.06275899708271027 -0.8944840431213379 -0.6419360041618347
v -0.028157999739050865 -0.8504719734191895 -0.6532269716262817
v -0.06160600110888481 -0.8733539581298828 -0.7481439709663391
v -0.06327799707651138 -1.0 -0.7714669704437256
v 0.43810901045799255 -0.9297209978103638 -0.5477179884910583
v 0.4592190086841583 -1.0 -0.5477179884910583
v 0.4083620011806488 -1.0 -0.26079899072647095
v -0.43404099345207214 -0.8929710388183594 -0.470674991607666
v -0.44539299607276917 -0.9297209978103638 -0.5869190096855164
v -0.46022799611091614 -1.0 -0.599416971206665
v 0.4420720040798187 -1.0 -0.5831329822540283
v 0.40839600563049316 -1.0 -0.5939109921455383
v 0.40839600563049316 -1.0 -0.5939109921455383
v 0.3798600137233734 -0.8925509452819824 -0.470674991607666
v 0.4592190086841583 -1.0 -0.5477179884910583
v 0.44838398694992065 -1.0 -0.421875
v 0.4272730052471161 -0.9297209978103638 -0.421875
v 0.44838398694992065 -1.0 -0.421875
v 0.4592190086841583 -1.0 -0.5477179884910583
v 0.006961999926716089 -1.0 -0.7714669704437256
v -0.028157999739050865 -1.0 -0.784430980682373
v 0.006961999926716089 -1.0 -0.7714669704437256
v -0.06327799707651138 -1.0 -0.7714669704437256
v -0.12362000346183777 -1.0 -0.66525799036026
v -0.06327799707651138 -1.0 -0.7714669704437256
v -0.513329029083252 -1.0 -0.5549769997596741
v -0.4903689920902252 -1.0 -0.5831329822540283
v -0.44784098863601685 -1.0 -0.47692400217056274
v -0.5009689927101135 -1.0 -0.42715099453926086
v -0.513329029083252 -1.0 -0.5549769997596741
v -0.5009689927101135 -1.0 -0.42715099453926086
v -0.479856014251709 -0.9297209978103638 -0.42715099453926086
v -0.46022799611091614 -1.0 -0.599416971206665
v -0.390982985496521 -1.0 -0.5620189905166626
v -0.46022799611091614 -1.0 -0.599416971206665
v 0.1627659946680069 -1.0 -0.5897049903869629
v -0.21908199787139893 -1.0 -0.5897049903869629

vn -0.7713189721107483 -0.21156400442123413 0.6002560257911682
vn -0.9204959869384766 -0.2434930056333542 0.3056110143661499
vn -0.8050829768180847 -0.49107399582862854 0.33269599080085754
vn -0.6511849761009216 -0.46358099579811096 0.6008740067481995
vn -0.48249998688697815 -0.2058659940958023 0.8513590097427368
vn -0.37036800384521484 -0.45640701055526733 0.8090239763259888
vn -0.0652339980006218 -0.224931001663208 0.9721890091896057
vn -0.48249998688697815 -0.2058659940958023 0.8513590097427368
vn -0.37036800384521484 -0.45640701055526733 0.8090239763259888
vn 0.0030449999030679464 -0.46251100301742554 0.8866080045700073
vn 0.37504199147224426 -0.25657299160957336 0.8907939791679382
vn 0.36629000306129456 -0.47660401463508606 0.7991740107536316
vn 0.7028669714927673 -0.2933030128479004 0.6480370163917542
vn 0.6347090005874634 -0.4969170093536377 0.5917919874191284
vn 0.7028669714927673 -0.2933030128479004 0.6480370163917542
vn 0.6347090005874634 -0.4969170093536377 0.5917919874191284
vn 0.7779579758644104 -0.5329369902610779 0.3328070044517517
vn 0.8771799802780151 -0.33722299337387085 0.34181201457977295
vn 0.808193027973175 -0.5854160189628601 0.06412000209093094
vn 0.9218969941139221 -0.38696300983428955 0.019089000299572945
vn 0.7419880032539368 -0.6430320143699646 -0.18964099884033203
vn 0.8499389886856079 -0.43575501441955566 -0.29617801308631897
vn 0.5826399922370911 -0.6976159811019897 -0.4169690012931824
vn 0.6584370136260986 -0.47380900382995605 -0.5847780108451843
vn 0.6584370136260986 -0.47380900382995605 -0.5847780108451843
vn 0.5826399922370911 -0.6976159811019897 -0.4169690012931824
vn 0.32672300934791565 -0.7366120219230652 -0.5921609997749329
vn 0.34613099694252014 -0.4917849898338318 -0.7989630103111267
vn -0.0068060001358389854 -0.744828999042511 -0.6672210097312927
vn -0.04332699999213219 -0.48668599128723145 -0.8725020289421082
vn -0.3452819883823395 -0.7165600061416626 -0.6060709953308105
vn -0.4226140081882477 -0.45976001024246216 -0.7810369729995728
vn -0.711201012134552 -0.41465601325035095 -0.5676730275154114
vn -0.6081200242042542 -0.6639750003814697 -0.4351159930229187
vn -0.8881210088729858 -0.35607001185417175 -0.29061299562454224
vn -0.711201012134552 -0.41465601325035095 -0.5676730275154114
vn -0.6081200242042542 -0.6639750003814697 -0.4351159930229187
vn -0.7730609774589539 -0.6011589765548706 -0.20244599878787994
vn -0.9554579854011536 -0.29506799578666687 0.005923000164330006
vn -0.8397669792175293 -0.5398150086402893 0.05823099985718727
vn -0.558791995048523 -0.774986982345581 0.2952049970626831
vn -0.44474899768829346 -0.7583550214767456 0.4765459895133972
vn -0.2516619861125946 -0.7516869902610779 0.6096159815788269
vn 0.0019509999547153711 -0.7491490244865417 0.6623979806900024
vn -0.2516619861125946 -0.7516869902610779 0.6096159815788269
vn 0.25386300683021545 -0.7482789754867554 0.612887978553772
vn 0.4473609924316406 -0.7555130124092102 0.4786109924316406
vn 0.5601239800453186 -0.7736070156097412 0.29629799723625183
vn 0.4473609924316406 -0.7555130124092102 0.4786109924316406
vn 0.5883070230484009 -0.8016840219497681 0.10581699758768082
vn 0.5390390157699585 -0.839028000831604 -0.07395199686288834
vn 0.4186350107192993 -0.8788549900054932 -0.22881799936294556
vn 0.23261000216007233 -0.9106979966163635 -0.3413510024547577
vn 0.4186350107192993 -0.8788549900054932 -0.22881799936294556
vn -0.00024399999529123306 -0.9230030179023743 -0.3847920000553131
vn -0.23297500610351562 -0.910385012626648 -0.3419390022754669
vn -0.4191089868545532 -0.8785060048103333 -0.22929300367832184
vn -0.4191089868545532 -0.8785060048103333 -0.22929300367832184
vn -0.5392529964447021 -0.8388659954071045 -0.07422299683094025
vn -0.5878810286521912 -0.8020390272140503 0.10549400001764297
vn 0.07865999639034271 0.9077690243721008 0.4120289981365204
vn -0.025436000898480415 0.9727500081062317 0.23045800626277924
vn -0.6730650067329407 0.6448779702186584 0.3620989918708801
vn -0.48228999972343445 0.5787680149078369 0.6575899720191956
vn 0.23327000439167023 0.8163290023803711 0.5283859968185425
vn -0.19688299298286438 0.49365898966789246 0.8470759987831116
vn 0.41586899757385254 0.7131720185279846 0.564303994178772
vn 0.14361099898815155 0.406699001789093 0.9022039771080017
vn 0.6023979783058167 0.610027015209198 0.5147650241851807
vn 0.49107301235198975 0.31806498765945435 0.8109760284423828
vn 0.7614420056343079 0.5185350179672241 0.3890089988708496
vn 0.770579993724823 0.2403549998998642 0.5902850031852722
vn 0.8668879866600037 0.45271798968315125 0.2086929976940155
vn 0.9328640103340149 0.19148500263690948 0.30511799454689026
vn 0.984021008014679 0.1780110001564026 0.0039079999551177025
vn 0.9060479998588562 0.4231739938259125 0.0011309999972581863
vn 0.9361739754676819 0.1945369988679886 -0.29280298948287964
vn 0.8790990114212036 0.4298340082168579 -0.20598100125789642
vn 0.7996330261230469 0.228084996342659 -0.5554860234260559
vn 0.7944669723510742 0.46898600459098816 -0.3858410120010376
vn 0.583503007888794 0.2757109999656677 -0.7638769745826721
vn 0.6635590195655823 0.539555013179779 -0.5182369947433472
vn 0.28256699442863464 0.34821298718452454 -0.8938140273094177
vn 0.49688398838043213 0.6404010057449341 -0.5856559872627258
vn -0.0799029991030693 0.4501740038394928 -0.8893589973449707
vn 0.30924099683761597 0.7608969807624817 -0.5704439878463745
vn -0.418300986289978 0.5574290156364441 -0.7171450257301331
vn 0.12982100248336792 0.8793820142745972 -0.45807600021362305
vn -0.6555410027503967 0.6417499780654907 -0.3980239927768707
vn -0.002893999917432666 0.9678509831428528 -0.25150901079177856
vn -0.7404590249061584 0.672078013420105 -0.005648000165820122
vn -0.05721599981188774 0.9983559846878052 -0.0034050000831484795
vn 0.17979300022125244 0.9702280163764954 0.16227099299430847
vn 0.24699300527572632 0.9236850142478943 0.29291799664497375
vn 0.3531450033187866 0.857571005821228 0.37397998571395874
vn 0.4798800051212311 0.7820720076560974 0.3975909948348999
vn 0.6086099743843079 0.7058619856834412 0.3624260127544403
vn 0.718563973903656 0.638962984085083 0.27457699179649353
vn 0.7937179803848267 0.590149998664856 0.14742699265480042
vn 0.8243169784545898 0.5661280155181885 -0.0009679999784566462
vn 0.8081579804420471 0.5699009895324707 -0.1486400067806244
vn 0.7520849704742432 0.5994970202445984 -0.2738089859485626
vn 0.6632559895515442 0.6521859765052795 -0.36707600951194763
vn 0.5458379983901978 0.7291690111160278 -0.41276198625564575
vn 0.41631099581718445 0.8185979723930359 -0.3957040011882782
vn 0.2946479916572571 0.9031739830970764 -0.31218498945236206
vn 0.20316000282764435 0.9641479849815369 -0.17071600258350372
vn 0.1628500074148178 0.9866510033607483 -0.00038899999344721437
vn 0.5496969819068909 0.8353599905967712 -0.0027280000504106283
vn 0.759801983833313 -0.017490999773144722 -0.6499189734458923
vn 0.7178109884262085 -0.22169099748134613 -0.6600009799003601
vn 0.4041549861431122 -0.2199620008468628 -0.887848973274231
vn 0.4708549976348877 -0.005127000156790018 -0.8821960091590881
vn 0.9385169744491577 -0.03960099816322327 -0.34295499324798584
vn 0.9116740226745605 -0.2208240032196045 -0.3465369939804077
vn 0.7178109884262085 -0.22169099748134613 -0.6600009799003601
vn 0.759801983833313 -0.017490999773144722 -0.6499189734458923
vn 0.9983090162277222 -0.05812099948525429 -0.000526999996509403
vn 0.9777439832687378 -0.20973600447177887 -0.005173000041395426
vn 0.9366819858551025 -0.06290999799966812 0.34448501467704773
vn 0.9209179878234863 -0.1936510056257248 0.3382450044155121
vn 0.7357590198516846 -0.05184200033545494 0.6752560138702393
vn 0.7261319756507874 -0.1779329925775528 0.6641330122947693
vn 0.7357590198516846 -0.05184200033545494 0.6752560138702393
vn 0.3736000061035156 -0.025407999753952026 0.9272419810295105
vn 0.3663100004196167 -0.15599499642848969 0.9173229932785034
vn 0.7261319756507874 -0.1779329925775528 0.6641330122947693
vn -0.0834449976682663 0.001967000076547265 0.9965109825134277
vn -0.10206600278615952 -0.1274379938840866 0.986581027507782
vn -0.4969730079174042 0.014139999635517597 0.8676509857177734
vn -0.5217710137367249 -0.10660900175571442 0.8463979959487915
vn -0.4969730079174042 0.014139999635517597 0.8676509857177734
vn -0.7854769825935364 0.010746000334620476 0.618798017501831
vn -0.8003849983215332 -0.10345900058746338 0.5904920101165771
vn -0.5217710137367249 -0.10660900175571442 0.8463979959487915
vn -0.9471150040626526 0.0052109998650848866 0.32085201144218445
vn -0.9471740126609802 -0.11649800091981888 0.29881298542022705
vn -0.9999819993972778 0.0031030001118779182 -0.00518900016322732
vn -0.9901959896087646 -0.13928799331188202 -0.010517000220716
vn -0.9331600069999695 0.004554999992251396 -0.35943299531936646
vn -0.9264749884605408 -0.16606199741363525 -0.3377380073070526
vn -0.7148159742355347 0.00482399994507432 -0.6992959976196289
vn -0.7311180233955383 -0.19230100512504578 -0.6545889973640442
vn -0.3488849997520447 0.0010519999777898192 -0.9371650218963623
vn -0.4030889868736267 -0.21129199862480164 -0.890434980392456
vn -0.7311180233955383 -0.19230100512504578 -0.6545889973640442
vn -0.7148159742355347 0.00482399994507432 -0.6992959976196289
vn 0.08316799998283386 -0.0013940000208094716 -0.9965350031852722
vn 0.006442999932914972 -0.21930700540542603 -0.9756349921226501
vn 0.583503007888794 0.2757109999656677 -0.7638769745826721
vn 0.28256699442863464 0.34821298718452454 -0.8938140273094177
vn 0.7996330261230469 0.228084996342659 -0.5554860234260559
vn 0.9361739754676819 0.1945369988679886 -0.29280298948287964
vn 0.7996330261230469 0.228084996342659 -0.5554860234260559
vn 0.984021008014679 0.1780110001564026 0.0039079999551177025
vn 0.9328640103340149 0.19148500263690948 0.30511799454689026
vn 0.770579993724823 0.2403549998998642 0.5902850031852722
vn 0.770579993724823 0.2403549998998642 0.5902850031852722
vn 0.49107301235198975 0.31806498765945435 0.8109760284423828
vn 0.14361099898815155 0.406699001789093 0.9022039771080017
vn -0.19688299298286438 0.49365898966789246 0.8470759987831116
vn -0.19688299298286438 0.49365898966789246 0.8470759987831116
vn -0.48228999972343445 0.5787680149078369 0.6575899720191956
vn -0.6730650067329407 0.6448779702186584 0.3620989918708801
vn -0.7404590249061584 0.672078013420105 -0.005648000165820122
vn -0.6555410027503967 0.6417499780654907 -0.3980239927768707
vn -0.418300986289978 0.5574290156364441 -0.7171450257301331
vn -0.0799029991030693 0.4501740038394928 -0.8893589973449707
vn -0.418300986289978 0.5574290156364441 -0.7171450257301331
vn 6.800000119255856e-05 -0.9888899922370911 0.14865000545978546
vn 6.800000119255856e-05 -0.9888899922370911 0.14865000545978546
vn 6.800000119255856e-05 -0.9888899922370911 0.14865000545978546
vn 6.800000119255856e-05 -0.9888899922370911 0.14865000545978546
vn -0.8237599730491638 0.3087179958820343 0.4755139946937561
vn -0.7330560088157654 -0.5324530005455017 0.42322900891304016
vn -0.42323100566864014 -0.5324509739875793 0.7330560088157654
vn -0.4756369888782501 0.30854299664497375 0.8237540125846863
vn 0.0 -0.5324519872665405 0.8464599847793579
vn -0.0 0.3084860146045685 0.9512289762496948
vn 0.42322999238967896 -0.5324509739875793 0.7330570220947266
vn 0.47562500834465027 0.3085179924964905 0.8237699866294861
vn 0.7330560088157654 -0.5324519872665405 0.42322900891304016
vn 0.8237709999084473 0.30864399671554565 0.47554200887680054
vn 0.7846270203590393 -0.5880370140075684 0.19640100002288818
vn 0.9210050106048584 0.36088699102401733 0.14666099846363068
vn -0.210658997297287 0.43173399567604065 -0.8770570158958435
vn 0.40301600098609924 0.6856979727745056 -0.6061319708824158
vn 0.5619739890098572 -0.5349950194358826 -0.6308450102806091
vn -0.0033259999472647905 -0.5688700079917908 -0.8224210143089294
vn -0.1503159999847412 0.7226889729499817 -0.6746299862861633
vn -0.11616799980401993 -0.7282599806785583 -0.6753829717636108
vn 0.29201000928878784 -0.6684589982032776 -0.6840260028839111
vn 0.37869200110435486 0.758014976978302 -0.5310419797897339
vn 0.5772259831428528 0.5969859957695007 -0.5571510195732117
vn 0.5130550265312195 -0.5801990032196045 -0.6325690150260925
vn 0.0 -0.5655450224876404 -0.8247179985046387
vn 0.0 0.6921939849853516 -0.7217119932174683
vn -0.37869200110435486 0.758014976978302 -0.5310419797897339
vn -0.6715260148048401 0.6514120101928711 -0.35315001010894775
vn -0.5687069892883301 -0.6931959986686707 -0.44277799129486084
vn -0.29201000928878784 -0.6684589982032776 -0.6840270161628723
vn 0.17620299756526947 0.7280020117759705 -0.6625450253486633
vn 0.1465660035610199 -0.7449730038642883 -0.6507940292358398
vn -0.836184024810791 0.5116029977798462 -0.19763000309467316
vn -0.35635998845100403 0.7234609723091125 -0.5912789702415466
vn -0.51670902967453 -0.5792269706726074 -0.6304829716682434
vn -0.8204929828643799 -0.5225080251693726 -0.23189899325370789
vn -0.9216899871826172 0.3598940074443817 0.14478999376296997
vn -0.7862300276756287 -0.5869349837303162 0.19325999915599823
vn -0.42323100566864014 -0.5324509739875793 0.7330560088157654
vn -0.7330560088157654 -0.5324530005455017 0.42322900891304016
vn 0.0 -1.0 0.0
vn 0.0 -0.5324519872665405 0.8464599847793579
vn 0.42322999238967896 -0.5324509739875793 0.7330570220947266
vn 0.7330560088157654 -0.5324519872665405 0.42322900891304016
vn 0.7846270203590393 -0.5880370140075684 0.19640100002288818
vn 0.0 -1.0 0.0
vn 0.0 -1.0 0.0
vn 0.0 -1.0 0.0
vn 0.0 -1.0 0.0
vn 0.0 -1.0 0.0
vn -0.7862300276756287 -0.5869349837303162 0.19325999915599823
vn 0.48096001148223877 -0.15394100546836853 -0.8631219863891602
vn 0.5054000020027161 0.14624300599098206 -0.8504019975662231
vn 1.9999999949504854e-06 0.14195699989795685 -0.9898729920387268
vn 0.0 -0.17752400040626526 -0.9841160178184509
vn 0.8490549921989441 -0.08739099651575089 -0.5210270285606384
vn 0.8662409782409668 0.15841299295425415 -0.47384798526763916
vn 0.9994670152664185 0.0077390000224113464 -0.03171699866652489
vn 0.9833440184593201 0.18025599420070648 0.023264000192284584
vn 0.874796986579895 0.10586799681186676 0.4727819859981537
vn 0.8389660120010376 0.21709999442100525 0.49900200963020325
vn 0.5059930086135864 0.17812499403953552 0.8439440131187439
vn 0.4781540036201477 0.2486249953508377 0.8423500061035156
vn -0.0 0.20441000163555145 0.9788849949836731
vn 0.0 0.25973600149154663 0.9656800031661987
vn -0.0 0.20441000163555145 0.9788849949836731
vn -0.5059909820556641 0.17812499403953552 0.8439459800720215
vn -0.47819098830223083 0.2485869973897934 0.8423410058021545
vn 0.0 0.25973600149154663 0.9656800031661987
vn -0.8747979998588562 0.10586600005626678 0.4727799892425537
vn -0.8390079736709595 0.21698300540447235 0.4989829957485199
vn -0.9994670152664185 0.00773700000718236 -0.03171699866652489
vn -0.9833580255508423 0.18017500638961792 0.02333099953830242
vn -0.8490560054779053 -0.08739099651575089 -0.5210250020027161
vn -0.866241991519928 0.15841199457645416 -0.4738459885120392
vn -0.48095598816871643 -0.15394000709056854 -0.8631240129470825
vn -0.5054020285606384 0.14624199271202087 -0.850400984287262
vn -0.7449359893798828 0.6397479772567749 -0.18919099867343903
vn -0.9216899871826172 0.3598940074443817 0.14478999376296997
vn -0.4473220109939575 0.7118600010871887 -0.541441023349762
vn 0.0 0.7394180297851562 -0.6732460260391235
vn 0.4473220109939575 0.7118600010871887 -0.541441023349762
vn 0.7427780032157898 0.6424130201339722 -0.18864500522613525
vn 0.9210050106048584 0.36088699102401733 0.14666099846363068
vn 0.8237709999084473 0.30864399671554565 0.47554200887680054
vn 0.47562500834465027 0.3085179924964905 0.8237699866294861
vn -0.0 0.3084860146045685 0.9512289762496948
vn -0.4756369888782501 0.30854299664497375 0.8237540125846863
vn -0.0 0.3084860146045685 0.9512289762496948
vn -0.8237599730491638 0.3087179958820343 0.4755139946937561
vn 0.0 -1.0 0.0
vn -0.11616799980401993 -0.7282599806785583 -0.6753829717636108
vn 0.0 -1.0 0.0
vn 0.0 -1.0 0.0
vn 0.7427780032157898 0.6424130201339722 -0.18864500522613525
vn 0.14121800661087036 0.9872180223464966 -0.07388100028038025
vn -0.043439000844955444 0.9717379808425903 -0.23203200101852417
vn 0.7763000130653381 0.6001009941101074 0.1929669976234436
vn 0.9210050106048584 0.36088699102401733 0.14666099846363068
vn 0.7846270203590393 -0.5880370140075684 0.19640100002288818
vn 0.7981269955635071 -0.5626649856567383 0.2154110074043274
vn 0.0 -1.0 0.0
vn 0.22847899794578552 0.9325540065765381 -0.2795349955558777
vn 0.4473220109939575 0.7118600010871887 -0.541441023349762
vn 0.0 -1.0 0.0
vn 0.0 -1.0 0.0
vn 0.5687069892883301 -0.6931959986686707 -0.44277799129486084
vn 0.0 -1.0 0.0
vn 0.0 0.7394180297851562 -0.6732460260391235
vn 0.3364959955215454 0.9128220081329346 -0.23135699331760406
vn -9.999999974752427e-07 0.974822998046875 -0.22297899425029755
vn 0.0 -1.0 0.0
vn 0.0 -1.0 0.0
vn -0.3364970088005066 0.9128220081329346 -0.23135699331760406
vn -0.22847899794578552 0.9325540065765381 -0.27953600883483887
vn -0.4473220109939575 0.7118600010871887 -0.541441023349762
vn 0.0 -1.0 0.0
vn 0.04546000063419342 0.9715780019760132 -0.23231300711631775
vn -0.7449359893798828 0.6397479772567749 -0.18919099867343903
vn -0.800167977809906 -0.5623180270195007 0.20863699913024902
vn 0.0 -1.0 0.0
vn -0.7805889844894409 0.5965570211410522 0.18655100464820862
vn -0.800167977809906 -0.5623180270195007 0.20863699913024902
vn -0.7862300276756287 -0.5869349837303162 0.19325999915599823
vn -0.9216899871826172 0.3598940074443817 0.14478999376296997
vn -0.14578300714492798 0.9864979982376099 -0.07462699711322784
vn 0.5687069892883301 -0.6931959986686707 -0.44277799129486084
vn 0.6715260148048401 0.6514120101928711 -0.35315001010894775
vn -0.0 0.9968630075454712 -0.07914300262928009
vn -0.5772259831428528 0.5969859957695007 -0.5571519732475281
vn -0.5130550265312195 -0.5801990032196045 -0.6325690150260925
vn 0.8587239980697632 0.5070300102233887 -0.07425200194120407
vn 0.828233003616333 -0.5410810112953186 -0.1458130031824112
vn 0.7981269955635071 -0.5626649856567383 0.2154110074043274
vn -0.10983200371265411 0.9915480017662048 -0.06905999779701233
vn 0.1773259937763214 0.46852898597717285 -0.8654689788818359
vn -0.04826299846172333 -0.5425419807434082 -0.8386409878730774
vn 0.5619739890098572 -0.5349950194358826 -0.6308450102806091
vn -0.0033259999472647905 -0.5688700079917908 -0.8224210143089294
vn -0.0033259999472647905 -0.5688700079917908 -0.8224210143089294
vn 0.10716699808835983 0.9915199875831604 -0.07350800186395645
vn 0.828233003616333 -0.5410810112953186 -0.1458130031824112
vn 0.8041099905967712 -0.5796989798545837 0.13174499571323395
vn 0.7929530143737793 0.5900530219078064 0.15186600387096405
vn 0.8041099905967712 -0.5796989798545837 0.13174499571323395
vn 0.828233003616333 -0.5410810112953186 -0.1458130031824112
vn 0.5130550265312195 -0.5801990032196045 -0.6325690150260925
vn 0.0 -0.5655450224876404 -0.8247179985046387
vn 0.5130550265312195 -0.5801990032196045 -0.6325690150260925
vn -0.5130550265312195 -0.5801990032196045 -0.6325690150260925
vn -0.5687069892883301 -0.6931959986686707 -0.44277799129486084
vn -0.5130550265312195 -0.5801990032196045 -0.6325690150260925
vn -0.8204929828643799 -0.5225080251693726 -0.23189899325370789
vn -0.51670902967453 -0.5792269706726074 -0.6304829716682434
vn 0.0 -1.0 0.0
vn -0.802420973777771 -0.5818219780921936 0.13268199563026428
vn -0.8204929828643799 -0.5225080251693726 -0.23189899325370789
vn -0.802420973777771 -0.5818219780921936 0.13268199563026428
vn -0.7969350218772888 0.5845329761505127 0.15236599743366241
vn -0.04826299846172333 -0.5425419807434082 -0.8386409878730774
vn 0.1465660035610199 -0.7449730038642883 -0.6507940292358398
vn -0.04826299846172333 -0.5425419807434082 -0.8386409878730774
vn 0.29201000928878784 -0.6684589982032776 -0.6840260028839111
vn -0.29201000928878784 -0.6684589982032776 -0.6840270161628723

vt 0.9310240149497986 0.14238297939300537
vt 0.9227740168571472 0.14395397901535034
vt 0.9248239994049072 0.12998497486114502
vt 0.9300640225410461 0.12928998470306396
vt 0.9383339881896973 0.1398259997367859
vt 0.9348189830780029 0.12767499685287476
vt 0.9129490256309509 0.0670899748802185
vt 0.9056259989738464 0.0669180154800415
vt 0.9094079732894897 0.055104970932006836
vt 0.914355993270874 0.05629998445510864
vt 0.9201340079307556 0.0661969780921936
vt 0.9192659854888916 0.05611497163772583
vt 0.9274979829788208 0.06430202722549438
vt 0.9243130087852478 0.05476599931716919
vt 0.9857550263404846 0.15623998641967773
vt 0.984175980091095 0.14601099491119385
vt 0.9786170125007629 0.1468619704246521
vt 0.9777349829673767 0.1565290093421936
vt 0.9727339744567871 0.14644700288772583
vt 0.9694380164146423 0.15593397617340088
vt 0.9666770100593567 0.14479202032089233
vt 0.9609150290489197 0.1544319987297058
vt 0.961309015750885 0.14231199026107788
vt 0.9527270197868347 0.15257197618484497
vt 0.9412220120429993 0.06126600503921509
vt 0.9460179805755615 0.04860597848892212
vt 0.9506739974021912 0.05150502920150757
vt 0.9478979706764221 0.06498098373413086
vt 0.9554970264434814 0.052663981914520264
vt 0.9549210071563721 0.06759899854660034
vt 0.9605010151863098 0.05244702100753784
vt 0.9620519876480103 0.06835097074508667
vt 0.9693909883499146 0.06759202480316162
vt 0.9654830098152161 0.05062901973724365
vt 0.9057809710502625 0.14277499914169312
vt 0.89826899766922 0.1406329870223999
vt 0.9077050089836121 0.1259080171585083
vt 0.9131060242652893 0.1281530261039734
vt 0.9142079949378967 0.14415299892425537
vt 0.9188269972801208 0.12943100929260254
vt 0.9247120022773743 0.12380999326705933
vt 0.9280660152435303 0.12325602769851685
vt 0.9310070276260376 0.12193000316619873
vt 0.9152039885520935 0.05018901824951172
vt 0.9122390151023865 0.049254000186920166
vt 0.9183610081672668 0.050067007541656494
vt 0.9214109778404236 0.0489879846572876
vt 0.9785810112953186 0.14051097631454468
vt 0.9820849895477295 0.13976001739501953
vt 0.9748809933662415 0.14019501209259033
vt 0.9711170196533203 0.13895398378372192
vt 0.9678630232810974 0.13696801662445068
vt 0.953262984752655 0.043640971183776855
vt 0.950655996799469 0.04163700342178345
vt 0.9562649726867676 0.04451298713684082
vt 0.9595019817352295 0.04435098171234131
vt 0.9624729752540588 0.04289001226425171
vt 0.914152979850769 0.12018102407455444
vt 0.917339026927948 0.12216401100158691
vt 0.9210540056228638 0.12344998121261597
vt 0.9544479846954346 0.13962000608444214
vt 0.9534980058670044 0.13742101192474365
vt 0.9561669826507568 0.13576900959014893
vt 0.9576519727706909 0.1393749713897705
vt 0.9545279741287231 0.14205598831176758
vt 0.9576519727706909 0.14318597316741943
vt 0.953715980052948 0.14434599876403809
vt 0.9562649726867676 0.14676398038864136
vt 0.9521909952163696 0.146107017993927
vt 0.9537429809570312 0.14946198463439941
vt 0.9501519799232483 0.14708101749420166
vt 0.9504870176315308 0.15089797973632812
vt 0.9479140043258667 0.14712601900100708
vt 0.9469580054283142 0.15087902545928955
vt 0.9437389969825745 0.1494939923286438
vt 0.9458490014076233 0.14622902870178223
vt 0.941286027431488 0.146930992603302
vt 0.9442840218544006 0.14457398653030396
vt 0.9399470090866089 0.1435210108757019
vt 0.9434030055999756 0.14234799146652222
vt 0.9399330019950867 0.13975298404693604
vt 0.9433990120887756 0.13991200923919678
vt 0.9412620067596436 0.13618898391723633
vt 0.944258987903595 0.13766402006149292
vt 0.9437209963798523 0.13344401121139526
vt 0.9458069801330566 0.1359500288963318
vt 0.9469180107116699 0.13192301988601685
vt 0.9477890133857727 0.13497501611709595
vt 0.9503170251846313 0.13178300857543945
vt 0.9499250054359436 0.1349179744720459
vt 0.9535499811172485 0.13311898708343506
vt 0.9519360065460205 0.1357870101928711
vt 0.9515889883041382 0.13875198364257812
vt 0.952118992805481 0.13999998569488525
vt 0.9521520137786865 0.14135897159576416
vt 0.9517130255699158 0.14263999462127686
vt 0.9508510231971741 0.1436060070991516
vt 0.9497320055961609 0.1441519856452942
vt 0.948494017124176 0.1441810131072998
vt 0.9473649859428406 0.14369100332260132
vt 0.9465100169181824 0.14277499914169312
vt 0.9460350275039673 0.1415429711341858
vt 0.9459969997406006 0.14017099142074585
vt 0.9464539885520935 0.13893002271652222
vt 0.947272002696991 0.13793599605560303
vt 0.9483770132064819 0.1373710036277771
vt 0.9495970010757446 0.13733702898025513
vt 0.9507240056991577 0.1378219723701477
vt 0.9491410255432129 0.14062100648880005
vt 0.9338170289993286 0.09174197912216187
vt 0.937030017375946 0.07633101940155029
vt 0.9455050230026245 0.0807880163192749
vt 0.9434750080108643 0.09693300724029541
vt 0.9553580284118652 0.18112200498580933
vt 0.9566130042076111 0.16736799478530884
vt 0.9466099739074707 0.16684800386428833
vt 0.9446759819984436 0.18211400508880615
vt 0.9662349820137024 0.18132799863815308
vt 0.9668440222740173 0.16811597347259521
vt 0.9770339727401733 0.18249398469924927
vt 0.9769610166549683 0.1688290238380432
vt 0.9875010251998901 0.18487799167633057
vt 0.9866920113563538 0.1695830225944519
vt 0.930296003818512 0.09259897470474243
vt 0.9206699728965759 0.09621399641036987
vt 0.9207770228385925 0.0799260139465332
vt 0.9297609925270081 0.07734501361846924
vt 0.9113209843635559 0.10012602806091309
vt 0.911998987197876 0.08204197883605957
vt 0.9015330076217651 0.10400897264480591
vt 0.9028229713439941 0.08359599113464355
vt 0.9433169960975647 0.17769700288772583
vt 0.9329900145530701 0.18198400735855103
vt 0.931689977645874 0.1603819727897644
vt 0.9410939812660217 0.15687698125839233
vt 0.9219880104064941 0.18499702215194702
vt 0.9214199781417847 0.16264599561691284
vt 0.9107800126075745 0.18608099222183228
vt 0.9108579754829407 0.16328799724578857
vt 0.9000620245933533 0.18512600660324097
vt 0.900829017162323 0.16233599185943604
vt 0.8901240229606628 0.18241500854492188
vt 0.8917909860610962 0.16002100706100464
vt 0.9619809985160828 0.106548011302948
vt 0.9625139832496643 0.08666998147964478
vt 0.97114098072052 0.08781701326370239
vt 0.97114098072052 0.11013299226760864
vt 0.9528189897537231 0.10210001468658447
vt 0.953980028629303 0.08431899547576904
vt 0.9415079951286316 0.11311298608779907
vt 0.9509829878807068 0.11989402770996094
vt 0.9316880106925964 0.10697799921035767
vt 0.9552310109138489 0.19480502605438232
vt 0.9446759819984436 0.1971210241317749
vt 0.965844988822937 0.19458097219467163
vt 0.9763140082359314 0.196183979511261
vt 0.9862070083618164 0.19983899593353271
vt 0.930296003818512 0.10748302936553955
vt 0.9208490252494812 0.11235201358795166
vt 0.9114519953727722 0.11806899309158325
vt 0.9019439816474915 0.12396001815795898
vt 0.9433169960975647 0.1980770230293274
vt 0.9330559968948364 0.20345401763916016
vt 0.9221659898757935 0.20718401670455933
vt 0.9112190008163452 0.20854002237319946
vt 0.9008219838142395 0.20745998620986938
vt 0.8911129832267761 0.20416498184204102
vt 0.960004985332489 0.12631499767303467
vt 0.9689520001411438 0.1320120096206665
vt 0.9235699772834778 0.11530601978302002
vt 0.9170299768447876 0.040808022022247314
vt 0.9768900275230408 0.13168299198150635
vt 0.9572979807853699 0.03372597694396973
vt 0.907895028591156 0.026301980018615723
vt 0.9056079983711243 0.019366025924682617
vt 0.9143469929695129 0.01723700761795044
vt 0.9155060052871704 0.024447977542877197
vt 0.9233139753341675 0.016521990299224854
vt 0.9233139753341675 0.023824989795684814
vt 0.9322810173034668 0.01723802089691162
vt 0.9311230182647705 0.024447977542877197
vt 0.9410200119018555 0.019366025924682617
vt 0.9387339949607849 0.026301026344299316
vt 0.9493119716644287 0.022853970527648926
vt 0.9459540247917175 0.02933800220489502
vt 0.8505489826202393 0.036332011222839355
vt 0.8494150042533875 0.0375249981880188
vt 0.8459190130233765 0.035085976123809814
vt 0.8472170233726501 0.03376901149749756
vt 0.8552870154380798 0.03685498237609863
vt 0.853892982006073 0.03307199478149414
vt 0.8624680042266846 0.030804991722106934
vt 0.8648250102996826 0.03456002473831177
vt 0.8746839761734009 0.0254020094871521
vt 0.8746330142021179 0.018775999546051025
vt 0.8764240145683289 0.018648982048034668
vt 0.8763399720191956 0.02519601583480835
vt 0.8877379894256592 0.03424602746963501
vt 0.8820710182189941 0.030543029308319092
vt 0.8859040141105652 0.026377975940704346
vt 0.890129029750824 0.030408024787902832
vt 0.8977490067481995 0.03625297546386719
vt 0.8990839719772339 0.032375991344451904
vt 0.9048060178756714 0.03770601749420166
vt 0.9035379886627197 0.03677701950073242
vt 0.9072480201721191 0.03365302085876465
vt 0.9086509943008423 0.035127997398376465
vt 0.9006739854812622 0.02933800220489502
vt 0.8973159790039062 0.02285301685333252
vt 0.8656920194625854 0.1335809826850891
vt 0.859279990196228 0.12698101997375488
vt 0.874800980091095 0.11831599473953247
vt 0.8745440244674683 0.13609099388122559
vt 0.8834660053253174 0.1338379979133606
vt 0.8900660276412964 0.12742602825164795
vt 0.8925750255584717 0.11857300996780396
vt 0.8903220295906067 0.10965198278427124
vt 0.8839110136032104 0.10305202007293701
vt 0.8750579953193665 0.10054200887680054
vt 0.8661370277404785 0.10279500484466553
vt 0.8595370054244995 0.10920697450637817
vt 0.857026994228363 0.11805999279022217
vt 0.8775669932365417 0.17726898193359375
vt 0.861860990524292 0.17866599559783936
vt 0.8615360260009766 0.172743022441864
vt 0.8776670098304749 0.17250102758407593
vt 0.8775420188903809 0.18209999799728394
vt 0.8623070120811462 0.18460702896118164
vt 0.8777300119400024 0.1869320273399353
vt 0.8629469871520996 0.19025397300720215
vt 0.878296971321106 0.19178098440170288
vt 0.8639979958534241 0.19583499431610107
vt 0.8793929815292358 0.19664597511291504
vt 0.8654639720916748 0.20107901096343994
vt 0.8811089992523193 0.20138102769851685
vt 0.8675919771194458 0.20610398054122925
vt 0.8811089992523193 0.1437780261039734
vt 0.8794490098953247 0.14845597743988037
vt 0.8656420111656189 0.14393001794815063
vt 0.8677999973297119 0.13886302709579468
vt 0.8783439993858337 0.15327197313308716
vt 0.8640030026435852 0.14924097061157227
vt 0.8777729868888855 0.1581140160560608
vt 0.8629969954490662 0.15497899055480957
vt 0.8775849938392639 0.16289502382278442
vt 0.8621990084648132 0.16076397895812988
vt 0.8775720000267029 0.1676430106163025
vt 0.8618080019950867 0.1667640209197998
vt 0.8472970128059387 0.1581990122795105
vt 0.8462569713592529 0.15047597885131836
vt 0.8485820293426514 0.16556501388549805
vt 0.8491899967193604 0.17253398895263672
vt 0.8485950231552124 0.17948400974273682
vt 0.8472890257835388 0.1867709755897522
vt 0.8462499976158142 0.19447600841522217
vt 0.8481019735336304 0.2015560269355774
vt 0.8506789803504944 0.2085229754447937
vt 0.8541979789733887 0.2151550054550171
vt 0.8508080244064331 0.13645100593566895
vt 0.8543570041656494 0.12974399328231812
vt 0.8481259942054749 0.14338397979736328
vt 0.8923969864845276 0.09586799144744873
vt 0.8948240280151367 0.07974302768707275
vt 0.8978070020675659 0.08435100317001343
vt 0.8943920135498047 0.09589701890945435
vt 0.8634390234947205 0.06688100099563599
vt 0.8574150204658508 0.05212998390197754
vt 0.8597760200500488 0.05176198482513428
vt 0.8527519702911377 0.05257600545883179
vt 0.8608750104904175 0.07488900423049927
vt 0.8537179827690125 0.0759890079498291
vt 0.8491089940071106 0.05340397357940674
vt 0.8844130039215088 0.095753014087677
vt 0.8675339818000793 0.05144697427749634
vt 0.8691959977149963 0.06132298707962036
vt 0.875128984451294 0.09561902284622192
vt 0.875452995300293 0.07322901487350464
vt 0.8805630207061768 0.07399898767471313
vt 0.8760759830474854 0.09563201665878296
vt 0.876645028591156 0.05936402082443237
vt 0.8750150203704834 0.05144602060317993
vt 0.8764659762382507 0.05156302452087402
vt 0.8658459782600403 0.09548401832580566
vt 0.8741819858551025 0.09560501575469971
vt 0.8779159784317017 0.05141901969909668
vt 0.8854269981384277 0.051393985748291016
vt 0.8839020133018494 0.06131601333618164
vt 0.8578619956970215 0.09536898136138916
vt 0.8932700157165527 0.05169999599456787
vt 0.8897839784622192 0.06694900989532471
vt 0.8519099950790405 0.09528297185897827
vt 0.8558670282363892 0.09534001350402832
vt 0.900173008441925 0.052501022815704346
vt 0.9039490222930908 0.05326497554779053
vt 0.8997049927711487 0.0759890079498291
vt 0.8925110101699829 0.07490098476409912
vt 0.8955699801445007 0.0520780086517334
vt 0.866694986820221 0.02660602331161499
vt 0.8706430196762085 0.030685007572174072
vt 0.8763570189476013 0.030547022819519043
vt 0.8779879808425903 0.025393009185791016
vt 0.8781989812850952 0.018797993659973145
vt 0.8484690189361572 0.03877300024032593
vt 0.8448230028152466 0.03680902719497681
vt 0.8985430002212524 0.09595698118209839
vt 0.9000740051269531 0.04172998666763306
vt 0.9025009870529175 0.03552699089050293
vt 0.9058079719543457 0.03243601322174072
vt 0.9006010293960571 0.07869398593902588
vt 0.8988029956817627 0.07809001207351685
vt 0.849602997303009 0.032563984394073486
vt 0.8527929782867432 0.04216897487640381
vt 0.9014930129051208 0.08060699701309204
vt 0.9008139967918396 0.08734798431396484
vt 0.850130021572113 0.04476898908615112
vt 0.8464739918708801 0.0455629825592041
vt 0.8448370099067688 0.03951901197433472
vt 0.8774089813232422 0.06825500726699829
vt 0.8755350112915039 0.0675320029258728
vt 0.8697940111160278 0.02105802297592163
vt 0.8736410140991211 0.06820100545883179
vt 0.8703219890594482 0.07385098934173584
vt 0.8827570080757141 0.02097100019454956
vt 0.8493340015411377 0.07946401834487915
vt 0.850587010383606 0.07797098159790039
vt 0.8527860045433044 0.08370101451873779
vt 0.8498979806900024 0.08632999658584595
vt 0.9086179733276367 0.03843200206756592
vt 0.9067280292510986 0.04510599374771118
vt 0.9028949737548828 0.044332027435302734
vt 0.8522170186042786 0.07712101936340332
vt 0.8559020161628723 0.0791810154914856
vt 0.9033430218696594 0.031670987606048584
vt 0.8856250047683716 0.078125
vt 0.8651430010795593 0.07782900333404541

usemtl Material

f 1/1/1 2/2/2 3/3/3
f 3/3/3 4/4/4 1/1/1
f 5/5/5 1/1/1 4/4/4
f 4/4/4 6/6/6 5/5/5
f 7/7/7 8/8/8 9/9/9
f 9/9/9 10/10/10 7/7/7
f 11/11/11 7/7/7 10/10/10
f 10/10/10 12/12/12 11/11/11
f 13/13/13 11/11/11 12/12/12
f 12/12/12 14/14/14 13/13/13
f 15/15/15 16/16/16 17/17/17
f 17/17/17 18/18/18 15/15/15
f 18/18/18 17/17/17 19/19/19
f 19/19/19 20/20/20 18/18/18
f 20/20/20 19/19/19 21/21/21
f 21/21/21 22/22/22 20/20/20
f 22/22/22 21/21/21 23/23/23
f 23/23/23 24/24/24 22/22/22
f 25/25/25 26/26/26 27/27/27
f 27/27/27 28/28/28 25/25/25
f 28/28/28 27/27/27 29/29/29
f 29/29/29 30/30/30 28/28/28
f 30/30/30 29/29/29 31/31/31
f 31/31/31 32/32/32 30/30/30
f 33/33/33 32/32/32 31/31/31
f 31/31/31 34/34/34 33/33/33
f 35/35/35 36/36/36 37/37/37
f 37/37/37 38/38/38 35/35/35
f 39/39/39 35/35/35 38/38/38
f 38/38/38 40/40/40 39/39/39
f 2/2/2 39/39/39 40/40/40
f 40/40/40 3/3/3 2/2/2
f 41/41/41 42/42/42 4/4/4
f 4/4/4 3/3/3 41/41/41
f 43/43/43 6/6/6 4/4/4
f 4/4/4 42/42/42 43/43/43
f 44/44/44 10/10/10 9/9/9
f 9/9/9 45/45/45 44/44/44
f 44/44/44 46/46/46 12/12/12
f 12/12/12 10/10/10 44/44/44
f 46/46/46 47/47/47 14/14/14
f 14/14/14 12/12/12 46/46/46
f 48/48/48 17/17/17 16/16/16
f 16/16/16 49/49/49 48/48/48
f 50/50/50 19/19/19 17/17/17
f 17/17/17 48/48/48 50/50/50
f 51/51/51 21/21/21 19/19/19
f 19/19/19 50/50/50 51/51/51
f 52/52/52 23/23/23 21/21/21
f 21/21/21 51/51/51 52/52/52
f 53/53/53 27/27/27 26/26/26
f 26/26/26 54/54/54 53/53/53
f 55/55/55 29/29/29 27/27/27
f 27/27/27 53/53/53 55/55/55
f 55/55/55 56/56/56 31/31/31
f 31/31/31 29/29/29 55/55/55
f 56/56/56 57/57/57 34/34/34
f 34/34/34 31/31/31 56/56/56
f 58/58/58 59/59/59 38/38/38
f 38/38/38 37/37/37 58/58/58
f 59/59/59 60/60/60 40/40/40
f 40/40/40 38/38/38 59/59/59
f 60/60/60 41/41/41 3/3/3
f 3/3/3 40/40/40 60/60/60
f 61/61/61 62/62/62 63/63/63
f 63/63/63 64/64/64 61/61/61
f 65/65/65 61/61/61 64/64/64
f 64/64/64 66/66/66 65/65/65
f 67/67/67 65/65/65 66/66/66
f 66/66/66 68/68/68 67/67/67
f 69/69/69 67/67/67 68/68/68
f 68/68/68 70/70/70 69/69/69
f 71/71/71 69/69/69 70/70/70
f 70/70/70 72/72/72 71/71/71
f 73/73/73 71/71/71 72/72/72
f 72/72/72 74/74/74 73/73/73
f 73/73/73 74/74/74 75/75/75
f 75/75/75 76/76/76 73/73/73
f 76/76/76 75/75/75 77/77/77
f 77/77/77 78/78/78 76/76/76
f 78/78/78 77/77/77 79/79/79
f 79/79/79 80/80/80 78/78/78
f 80/80/80 79/79/79 81/81/81
f 81/81/81 82/82/82 80/80/80
f 82/82/82 81/81/81 83/83/83
f 83/83/83 84/84/84 82/82/82
f 84/84/84 83/83/83 85/85/85
f 85/85/85 86/86/86 84/84/84
f 86/86/86 85/85/85 87/87/87
f 87/87/87 88/88/88 86/86/86
f 88/88/88 87/87/87 89/89/89
f 89/89/89 90/90/90 88/88/88
f 90/90/90 89/89/89 91/91/91
f 91/91/91 92/92/92 90/90/90
f 92/92/92 91/91/91 63/63/63
f 63/63/63 62/62/62 92/92/92
f 93/93/93 62/62/62 61/61/61
f 61/61/61 94/94/94 93/93/93
f 95/95/95 94/94/94 61/61/61
f 61/61/61 65/65/65 95/95/95
f 96/96/96 95/95/95 65/65/65
f 65/65/65 67/67/67 96/96/96
f 97/97/97 96/96/96 67/67/67
f 67/67/67 69/69/69 97/97/97
f 98/98/98 97/97/97 69/69/69
f 69/69/69 71/71/71 98/98/98
f 99/99/99 98/98/98 71/71/71
f 71/71/71 73/73/73 99/99/99
f 99/99/99 73/73/73 76/76/76
f 76/76/76 100/100/100 99/99/99
f 100/100/100 76/76/76 78/78/78
f 78/78/78 101/101/101 100/100/100
f 101/101/101 78/78/78 80/80/80
f 80/80/80 102/102/102 101/101/101
f 102/102/102 80/80/80 82/82/82
f 82/82/82 103/103/103 102/102/102
f 103/103/103 82/82/82 84/84/84
f 84/84/84 104/104/104 103/103/103
f 105/105/105 104/104/104 84/84/84
f 84/84/84 86/86/86 105/105/105
f 106/106/106 105/105/105 86/86/86
f 86/86/86 88/88/88 106/106/106
f 106/106/106 88/88/88 90/90/90
f 90/90/90 107/107/107 106/106/106
f 107/107/107 90/90/90 92/92/92
f 92/92/92 108/108/108 107/107/107
f 108/108/108 92/92/92 62/62/62
f 62/62/62 93/93/93 108/108/108
f 93/93/93 94/94/94 109/109/109
f 94/94/94 95/95/95 109/109/109
f 95/95/95 96/96/96 109/109/109
f 96/96/96 97/97/97 109/109/109
f 97/97/97 98/98/98 109/109/109
f 98/98/98 99/99/99 109/109/109
f 99/99/99 100/100/100 109/109/109
f 100/100/100 101/101/101 109/109/109
f 101/101/101 102/102/102 109/109/109
f 102/102/102 103/103/103 109/109/109
f 103/103/103 104/104/104 109/109/109
f 104/104/104 105/105/105 109/109/109
f 105/105/105 106/106/106 109/109/109
f 106/106/106 107/107/107 109/109/109
f 107/107/107 108/108/108 109/109/109
f 108/108/108 93/93/93 109/109/109
f 110/110/110 111/111/111 112/112/112
f 112/112/112 113/113/113 110/110/110
f 114/114/114 115/115/115 116/116/116
f 116/116/116 117/117/117 114/114/114
f 118/118/118 119/119/119 115/115/115
f 115/115/115 114/114/114 118/118/118
f 118/118/118 120/120/120 121/121/121
f 121/121/121 119/119/119 118/118/118
f 120/120/120 122/122/122 123/123/123
f 123/123/123 121/121/121 120/120/120
f 124/124/124 125/125/125 126/126/126
f 126/126/126 127/127/127 124/124/124
f 125/125/125 128/128/128 129/129/129
f 129/129/129 126/126/126 125/125/125
f 128/128/128 130/130/130 131/131/131
f 131/131/131 129/129/129 128/128/128
f 132/132/132 133/133/133 134/134/134
f 134/134/134 135/135/135 132/132/132
f 133/133/133 136/136/136 137/137/137
f 137/137/137 134/134/134 133/133/133
f 136/136/136 138/138/138 139/139/139
f 139/139/139 137/137/137 136/136/136
f 140/140/140 141/141/141 139/139/139
f 139/139/139 138/138/138 140/140/140
f 142/142/142 143/143/143 141/141/141
f 141/141/141 140/140/140 142/142/142
f 144/144/144 145/145/145 146/146/146
f 146/146/146 147/147/147 144/144/144
f 148/148/148 149/149/149 145/145/145
f 145/145/145 144/144/144 148/148/148
f 113/113/113 112/112/112 149/149/149
f 149/149/149 148/148/148 113/113/113
f 150/150/150 113/113/113 148/148/148
f 148/148/148 151/151/151 150/150/150
f 152/152/152 110/110/110 113/113/113
f 113/113/113 150/150/150 152/152/152
f 153/153/153 114/114/114 117/117/117
f 117/117/117 154/154/154 153/153/153
f 155/155/155 118/118/118 114/114/114
f 114/114/114 153/153/153 155/155/155
f 155/155/155 156/156/156 120/120/120
f 120/120/120 118/118/118 155/155/155
f 156/156/156 157/157/157 122/122/122
f 122/122/122 120/120/120 156/156/156
f 158/158/158 159/159/159 125/125/125
f 125/125/125 124/124/124 158/158/158
f 159/159/159 160/160/160 128/128/128
f 128/128/128 125/125/125 159/159/159
f 160/160/160 161/161/161 130/130/130
f 130/130/130 128/128/128 160/160/160
f 162/162/162 163/163/163 133/133/133
f 133/133/133 132/132/132 162/162/162
f 163/163/163 164/164/164 136/136/136
f 136/136/136 133/133/133 163/163/163
f 164/164/164 165/165/165 138/138/138
f 138/138/138 136/136/136 164/164/164
f 166/166/166 140/140/140 138/138/138
f 138/138/138 165/165/165 166/166/166
f 167/167/167 142/142/142 140/140/140
f 140/140/140 166/166/166 167/167/167
f 168/168/168 144/144/144 147/147/147
f 147/147/147 169/169/169 168/168/168
f 151/151/151 148/148/148 144/144/144
f 144/144/144 168/168/168 151/151/151
f 112/112/112 28/28/28 30/30/30
f 30/30/30 149/149/149 112/112/112
f 111/111/111 25/25/25 28/28/28
f 28/28/28 112/112/112 111/111/111
f 115/115/115 22/22/22 24/24/24
f 24/24/24 116/116/116 115/115/115
f 119/119/119 20/20/20 22/22/22
f 22/22/22 115/115/115 119/119/119
f 121/121/121 18/18/18 20/20/20
f 20/20/20 119/119/119 121/121/121
f 121/121/121 123/123/123 15/15/15
f 15/15/15 18/18/18 121/121/121
f 127/127/127 126/126/126 11/11/11
f 11/11/11 13/13/13 127/127/127
f 126/126/126 129/129/129 7/7/7
f 7/7/7 11/11/11 126/126/126
f 129/129/129 131/131/131 8/8/8
f 8/8/8 7/7/7 129/129/129
f 135/135/135 134/134/134 1/1/1
f 1/1/1 5/5/5 135/135/135
f 134/134/134 137/137/137 2/2/2
f 2/2/2 1/1/1 134/134/134
f 137/137/137 139/139/139 39/39/39
f 39/39/39 2/2/2 137/137/137
f 139/139/139 141/141/141 35/35/35
f 35/35/35 39/39/39 139/139/139
f 141/141/141 143/143/143 36/36/36
f 36/36/36 35/35/35 141/141/141
f 145/145/145 32/32/32 33/33/33
f 33/33/33 146/146/146 145/145/145
f 149/149/149 30/30/30 32/32/32
f 32/32/32 145/145/145 149/149/149
f 42/42/42 41/41/41 170/170/170
f 43/43/43 42/42/42 170/170/170
f 44/44/44 45/45/45 171/171/171
f 46/46/46 44/44/44 171/171/171
f 47/47/47 46/46/46 171/171/171
f 48/48/48 49/49/49 172/172/172
f 50/50/50 48/48/48 172/172/172
f 51/51/51 50/50/50 172/172/172
f 52/52/52 51/51/51 172/172/172
f 53/53/53 54/54/54 173/173/173
f 55/55/55 53/53/53 173/173/173
f 56/56/56 55/55/55 173/173/173
f 57/57/57 56/56/56 173/173/173
f 59/59/59 58/58/58 170/170/170
f 60/60/60 59/59/59 170/170/170
f 41/41/41 60/60/60 170/170/170
f 174/174/174 175/175/175 176/176/176
f 176/176/176 177/177/177 174/174/174
f 177/177/177 176/176/176 178/178/178
f 178/178/178 179/179/179 177/177/177
f 179/179/179 178/178/178 180/180/180
f 180/180/180 181/181/181 179/179/179
f 181/181/181 180/180/180 182/182/182
f 182/182/182 183/183/183 181/181/181
f 183/183/183 182/182/182 184/184/184
f 184/184/184 185/185/185 183/183/183
f 186/186/186 187/187/187 188/188/188
f 188/188/188 189/189/189 186/186/186
f 190/190/190 191/191/191 192/192/192
f 192/192/192 193/193/193 190/190/190
f 194/194/194 195/195/195 196/196/196
f 196/196/196 197/197/197 194/194/194
f 198/198/198 199/199/199 200/200/200
f 200/200/200 201/201/201 198/198/198
f 202/202/202 198/198/198 201/201/201
f 201/201/201 203/203/203 202/202/202
f 204/204/204 205/205/205 206/206/206
f 206/206/206 207/207/207 204/204/204
f 208/208/208 209/209/209 175/175/175
f 175/175/175 174/174/174 208/208/208
f 210/210/210 211/211/211 212/212/212
f 213/213/213 210/210/210 212/212/212
f 214/214/214 213/213/213 212/212/212
f 215/215/215 214/214/214 212/212/212
f 216/216/216 215/215/215 212/212/212
f 217/217/217 216/216/216 212/212/212
f 218/218/218 217/217/217 212/212/212
f 219/219/219 218/218/218 212/212/212
f 220/220/220 219/219/219 212/212/212
f 221/221/221 220/220/220 212/212/212
f 222/222/222 221/221/221 212/212/212
f 211/211/211 222/222/222 212/212/212
f 223/223/223 224/224/224 225/225/225
f 225/225/225 226/226/226 223/223/223
f 227/227/227 228/228/228 224/224/224
f 224/224/224 223/223/223 227/227/227
f 229/229/229 230/230/230 228/228/228
f 228/228/228 227/227/227 229/229/229
f 231/231/231 232/232/232 230/230/230
f 230/230/230 229/229/229 231/231/231
f 233/233/233 234/234/234 232/232/232
f 232/232/232 231/231/231 233/233/233
f 235/235/235 236/236/236 234/234/234
f 234/234/234 233/233/233 235/235/235
f 237/237/237 238/238/238 239/239/239
f 239/239/239 240/240/240 237/237/237
f 238/238/238 241/241/241 242/242/242
f 242/242/242 239/239/239 238/238/238
f 241/241/241 243/243/243 244/244/244
f 244/244/244 242/242/242 241/241/241
f 243/243/243 245/245/245 246/246/246
f 246/246/246 244/244/244 243/243/243
f 245/245/245 247/247/247 248/248/248
f 248/248/248 246/246/246 245/245/245
f 247/247/247 226/226/226 225/225/225
f 225/225/225 248/248/248 247/247/247
f 244/244/244 246/246/246 249/249/249
f 249/249/249 250/250/250 244/244/244
f 246/246/246 248/248/248 251/251/251
f 251/251/251 249/249/249 246/246/246
f 248/248/248 225/225/225 252/252/252
f 252/252/252 251/251/251 248/248/248
f 224/224/224 253/253/253 252/252/252
f 252/252/252 225/225/225 224/224/224
f 228/228/228 254/254/254 253/253/253
f 253/253/253 224/224/224 228/228/228
f 230/230/230 255/255/255 254/254/254
f 254/254/254 228/228/228 230/230/230
f 232/232/232 256/256/256 255/255/255
f 255/255/255 230/230/230 232/232/232
f 234/234/234 257/257/257 256/256/256
f 256/256/256 232/232/232 234/234/234
f 236/236/236 258/258/258 257/257/257
f 257/257/257 234/234/234 236/236/236
f 239/239/239 259/259/259 260/260/260
f 260/260/260 240/240/240 239/239/239
f 242/242/242 261/261/261 259/259/259
f 259/259/259 239/239/239 242/242/242
f 244/244/244 250/250/250 261/261/261
f 261/261/261 242/242/242 244/244/244
f 262/262/262 263/263/263 264/264/264
f 264/264/264 265/265/265 262/262/262
f 266/266/266 267/267/267 268/268/268
f 269/269/269 270/270/270 271/271/271
f 271/271/271 272/272/272 269/269/269
f 262/262/262 217/217/217 218/218/218
f 218/218/218 273/273/273 262/262/262
f 268/268/268 274/274/274 275/275/275
f 275/275/275 266/266/266 268/268/268
f 276/276/276 277/277/277 278/278/278
f 278/278/278 279/279/279 276/276/276
f 280/280/280 281/281/281 282/282/282
f 283/283/283 284/284/284 219/219/219
f 219/219/219 220/220/220 283/283/283
f 285/285/285 286/286/286 287/287/287
f 287/287/287 280/280/280 285/285/285
f 288/288/288 283/283/283 220/220/220
f 220/220/220 221/221/221 288/288/288
f 289/289/289 290/290/290 287/287/287
f 287/287/287 286/286/286 289/289/289
f 291/291/291 292/292/292 221/221/221
f 221/221/221 222/222/222 291/291/291
f 293/293/293 294/294/294 295/295/295
f 295/295/295 296/296/296 293/293/293
f 293/293/293 296/296/296 290/290/290
f 290/290/290 297/297/297 293/293/293
f 281/281/281 280/280/280 275/275/275
f 275/275/275 274/274/274 281/281/281
f 193/193/193 192/192/192 298/298/298
f 298/298/298 299/299/299 193/193/193
f 273/273/273 218/218/218 219/219/219
f 219/219/219 279/279/279 273/273/273
f 300/300/300 199/199/199 285/285/285
f 285/285/285 282/282/282 300/300/300
f 301/301/301 197/197/197 196/196/196
f 196/196/196 302/302/302 301/301/301
f 219/219/219 284/284/284 276/276/276
f 269/269/269 267/267/267 266/266/266
f 266/266/266 270/270/270 269/269/269
f 303/303/303 304/304/304 188/188/188
f 188/188/188 187/187/187 303/303/303
f 305/305/305 216/216/216 217/217/217
f 217/217/217 265/265/265 305/305/305
f 289/289/289 202/202/202 306/306/306
f 306/306/306 297/297/297 289/289/289
f 307/307/307 308/308/308 206/206/206
f 206/206/206 205/205/205 307/307/307
f 221/221/221 292/292/292 288/288/288
f 309/309/309 264/264/264 263/263/263
f 263/263/263 310/310/310 309/309/309
f 186/186/186 311/311/311 191/191/191
f 191/191/191 190/190/190 186/186/186
f 187/187/187 186/186/186 190/190/190
f 190/190/190 312/312/312 187/187/187
f 313/313/313 314/314/314 264/264/264
f 264/264/264 309/309/309 313/313/313
f 303/303/303 187/187/187 312/312/312
f 312/312/312 315/315/315 303/303/303
f 303/303/303 315/315/315 316/316/316
f 316/316/316 317/317/317 303/303/303
f 318/318/318 278/278/278 277/277/277
f 277/277/277 319/319/319 318/318/318
f 194/194/194 197/197/197 300/300/300
f 300/300/300 299/299/299 194/194/194
f 194/194/194 299/299/299 298/298/298
f 298/298/298 320/320/320 194/194/194
f 321/321/321 319/319/319 277/277/277
f 277/277/277 322/322/322 321/321/321
f 301/301/301 323/323/323 200/200/200
f 200/200/200 199/199/199 301/301/301
f 301/301/301 199/199/199 300/300/300
f 300/300/300 197/197/197 301/301/301
f 324/324/324 325/325/325 326/326/326
f 326/326/326 327/327/327 324/324/324
f 204/204/204 328/328/328 329/329/329
f 329/329/329 330/330/330 204/204/204
f 204/204/204 330/330/330 306/306/306
f 306/306/306 205/205/205 204/204/204
f 325/325/325 331/331/331 332/332/332
f 332/332/332 326/326/326 325/325/325
f 205/205/205 306/306/306 202/202/202
f 202/202/202 307/307/307 205/205/205
f 307/307/307 202/202/202 203/203/203
f 203/203/203 333/333/333 307/307/307
f 262/262/262 265/265/265 217/217/217
f 312/312/312 190/190/190 268/268/268
f 268/268/268 267/267/267 312/312/312
f 315/315/315 269/269/269 272/272/272
f 272/272/272 316/316/316 315/315/315
f 334/334/334 263/263/263 262/262/262
f 262/262/262 273/273/273 334/334/334
f 193/193/193 274/274/274 268/268/268
f 268/268/268 190/190/190 193/193/193
f 276/276/276 279/279/279 219/219/219
f 300/300/300 282/282/282 281/281/281
f 281/281/281 299/299/299 300/300/300
f 335/335/335 322/322/322 284/284/284
f 284/284/284 283/283/283 335/335/335
f 198/198/198 286/286/286 285/285/285
f 285/285/285 199/199/199 198/198/198
f 335/335/335 283/283/283 288/288/288
f 288/288/288 332/332/332 335/335/335
f 198/198/198 202/202/202 289/289/289
f 289/289/289 286/286/286 198/198/198
f 327/327/327 326/326/326 292/292/292
f 292/292/292 291/291/291 327/327/327
f 330/330/330 329/329/329 294/294/294
f 294/294/294 293/293/293 330/330/330
f 330/330/330 293/293/293 297/297/297
f 297/297/297 306/306/306 330/330/330
f 193/193/193 299/299/299 281/281/281
f 281/281/281 274/274/274 193/193/193
f 334/334/334 273/273/273 279/279/279
f 279/279/279 278/278/278 334/334/334
f 282/282/282 285/285/285 280/280/280
f 322/322/322 277/277/277 276/276/276
f 276/276/276 284/284/284 322/322/322
f 315/315/315 312/312/312 267/267/267
f 267/267/267 269/269/269 315/315/315
f 314/314/314 305/305/305 265/265/265
f 265/265/265 264/264/264 314/314/314
f 289/289/289 297/297/297 290/290/290
f 326/326/326 332/332/332 288/288/288
f 288/288/288 292/292/292 326/326/326