mtllib 27493061.mtl
o Mesh

v -0.2962300181388855 0.3620299994945526 0.3577139973640442
v -0.4945099949836731 0.5038750171661377 0.39906200766563416
v -0.49309098720550537 0.23471298813819885 0.2819409966468811
v -0.3770099878311157 0.1869800090789795 0.24622200429439545
v -0.1595500111579895 -0.09371000528335571 0.4041860103607178
v -0.17890000343322754 0.15968000888824463 0.39392200112342834
v -0.3286699950695038 0.04975000023841858 0.28815001249313354
v -0.3121100068092346 -0.14270001649856567 0.30376601219177246
v 0.30444997549057007 -1.1249899864196777 0.09674300253391266
v 0.2572600245475769 -0.8152099847793579 0.27700701355934143
v 0.11357998847961426 -0.8613400459289551 0.20841099321842194
v 0.16958999633789062 -1.0963900089263916 0.03152000159025192
v -0.3697199821472168 -1.2928600311279297 -0.26150500774383545
v -0.12244999408721924 -1.377369999885559 -0.2108220010995865
v -0.13800999522209167 -1.274999976158142 -0.21639400720596313
v -0.3155999779701233 -1.2178900241851807 -0.2543709874153137
v -0.46048998832702637 -1.0469900369644165 -0.22585399448871613
v -0.3697199821472168 -1.2928600311279297 -0.26150500774383545
v -0.3155999779701233 -1.2178900241851807 -0.2543709874153137
v -0.376120001077652 -1.0378799438476562 -0.22010600566864014
v -0.3918600082397461 -0.876289963722229 -0.20511500537395477
v -0.46048998832702637 -1.0469900369644165 -0.22585399448871613
v -0.376120001077652 -1.0378799438476562 -0.22010600566864014
v -0.34334999322891235 -0.9254800081253052 -0.203917995095253
v -0.13846999406814575 -0.8962299823760986 -0.15525199472904205
v -0.22778001427650452 -0.846019983291626 -0.19870400428771973
v -0.22936001420021057 -0.8926099538803101 -0.19709600508213043
v -0.16885998845100403 -0.9427299499511719 -0.1512479931116104
v -0.024670004844665527 -1.0477900505065918 -0.2165219932794571
v -0.13846999406814575 -0.8962299823760986 -0.15525199472904205
v -0.16885998845100403 -0.9427299499511719 -0.1512479931116104
v -0.059300005435943604 -1.0706599950790405 -0.2128719985485077
v -0.059300005435943604 -1.0706599950790405 -0.2128719985485077
v -0.007779985666275024 -1.151859998703003 -0.3066540062427521
v -0.024670004844665527 -1.0477900505065918 -0.2165219932794571
v -0.19843000173568726 0.5456600189208984 0.2852340042591095
v -0.49591800570487976 0.7728270292282104 0.28241899609565735
v -0.4945099949836731 0.5038750171661377 0.39906200766563416
v -0.2962300181388855 0.3620299994945526 0.3577139973640442
v 0.001980006694793701 -0.04044997692108154 0.3422969877719879
v -0.01221001148223877 0.2759699821472168 0.3269140124320984
v -0.17890000343322754 0.15968000888824463 0.39392200112342834
v -0.1595500111579895 -0.09371000528335571 0.4041860103607178
v 0.39385002851486206 -0.7647700309753418 0.19495099782943726
v 0.2572600245475769 -0.8152099847793579 0.27700701355934143
v 0.30444997549057007 -1.1249899864196777 0.09674300253391266
v 0.445110023021698 -1.1191799640655518 0.04023199900984764
v -0.40105000138282776 -1.3446799516677856 -0.3317520022392273
v -0.09093999862670898 -1.4432400465011597 -0.29038500785827637
v -0.12244999408721924 -1.377369999885559 -0.2108220010995865
v -0.3697199821472168 -1.2928600311279297 -0.26150500774383545
v -0.5166239738464355 -1.0480799674987793 -0.2892000079154968
v -0.40105000138282776 -1.3446799516677856 -0.3317520022392273
v -0.3697199821472168 -1.2928600311279297 -0.26150500774383545
v -0.46048998832702637 -1.0469900369644165 -0.22585399448871613
v -0.42414000630378723 -0.8382699489593506 -0.26930001378059387
v -0.5166239738464355 -1.0480799674987793 -0.2892000079154968
v -0.46048998832702637 -1.0469900369644165 -0.22585399448871613
v -0.3918600082397461 -0.876289963722229 -0.20511500537395477
v -0.1188800036907196 -0.8550900220870972 -0.25194498896598816
v -0.22341999411582947 -0.805649995803833 -0.2540090084075928
v -0.22778001427650452 -0.846019983291626 -0.19870400428771973
v -0.13846999406814575 -0.8962299823760986 -0.15525199472904205
v -0.1188800036907196 -0.8550900220870972 -0.25194498896598816
v -0.13846999406814575 -0.8962299823760986 -0.15525199472904205
v -0.024670004844665527 -1.0477900505065918 -0.2165219932794571
v -0.0005899965763092041 -1.0238499641418457 -0.2851029932498932
v -0.0005899965763092041 -1.0238499641418457 -0.2851029932498932
v -0.024670004844665527 -1.0477900505065918 -0.2165219932794571
v -0.007779985666275024 -1.151859998703003 -0.3066540062427521
v -0.007779985666275024 -1.1508899927139282 -0.32206299901008606
v -0.14090999960899353 0.6303200125694275 0.07124000042676926
v -0.49651598930358887 0.8840190172195435 0.0003380000125616789
v -0.49591800570487976 0.7728270292282104 0.28241899609565735
v -0.19843000173568726 0.5456600189208984 0.2852340042591095
v 0.07784998416900635 -0.014119982719421387 0.15435299277305603
v 0.07375001907348633 0.3305000066757202 0.12637600302696228
v -0.01221001148223877 0.2759699821472168 0.3269140124320984
v 0.001980006694793701 -0.04044997692108154 0.3422969877719879
v 0.443340003490448 -0.739549994468689 0.010311000049114227
v 0.39385002851486206 -0.7647700309753418 0.19495099782943726
v 0.445110023021698 -1.1191799640655518 0.04023199900984764
v 0.509160041809082 -1.0823500156402588 -0.10490799695253372
v -0.39125001430511475 -1.3429900407791138 -0.4239619970321655
v -0.061919987201690674 -1.4340200424194336 -0.40847501158714294
v -0.09093999862670898 -1.4432400465011597 -0.29038500785827637
v -0.40105000138282776 -1.3446799516677856 -0.3317520022392273
v -0.5116440057754517 -1.0405000448226929 -0.3730359971523285
v -0.39125001430511475 -1.3429900407791138 -0.4239619970321655
v -0.40105000138282776 -1.3446799516677856 -0.3317520022392273
v -0.5166239738464355 -1.0480799674987793 -0.2892000079154968
v -0.5116440057754517 -1.0405000448226929 -0.3730359971523285
v -0.5166239738464355 -1.0480799674987793 -0.2892000079154968
v -0.42414000630378723 -0.8382699489593506 -0.26930001378059387
v -0.42127999663352966 -0.8336700201034546 -0.35887500643730164
v -0.22380998730659485 -0.7988899946212769 -0.37270399928092957
v -0.22341999411582947 -0.805649995803833 -0.2540090084075928
v -0.1188800036907196 -0.8550900220870972 -0.25194498896598816
v -0.12097999453544617 -0.8477100133895874 -0.38504499197006226
v -0.12097999453544617 -0.8477100133895874 -0.38504499197006226
v -0.1188800036907196 -0.8550900220870972 -0.25194498896598816
v -0.0005899965763092041 -1.0238499641418457 -0.2851029932498932
v -0.003960013389587402 -1.0189299583435059 -0.378946989774704
v -0.007779985666275024 -1.1492899656295776 -0.3411009907722473
v -0.003960013389587402 -1.0189299583435059 -0.378946989774704
v -0.0005899965763092041 -1.0238499641418457 -0.2851029932498932
v -0.007779985666275024 -1.1508899927139282 -0.32206299901008606
v -0.1573599874973297 0.5664100050926208 -0.1589130014181137
v -0.49591800570487976 0.7723169922828674 -0.2819409966468811
v 0.028620004653930664 0.2913299798965454 -0.09021899849176407
v 0.023620009422302246 -0.030149996280670166 -0.04955099895596504
v 0.3767300248146057 -0.754330039024353 -0.1687539964914322
v 0.509160041809082 -1.0823500156402588 -0.10490799695253372
v 0.45910000801086426 -1.0360900163650513 -0.2536570131778717
v -0.3460499942302704 -1.2887699604034424 -0.4841189980506897
v -0.052410006523132324 -1.3551199436187744 -0.49591800570487976
v -0.061919987201690674 -1.4340200424194336 -0.40847501158714294
v -0.39125001430511475 -1.3429900407791138 -0.4239619970321655
v -0.3460499942302704 -1.2887699604034424 -0.4841189980506897
v -0.39125001430511475 -1.3429900407791138 -0.4239619970321655
v -0.5116440057754517 -1.0405000448226929 -0.3730359971523285
v -0.44846001267433167 -1.0286999940872192 -0.4282520115375519
v -0.44846001267433167 -1.0286999940872192 -0.4282520115375519
v -0.5116440057754517 -1.0405000448226929 -0.3730359971523285
v -0.42127999663352966 -0.8336700201034546 -0.35887500643730164
v -0.3849499821662903 -0.8652000427246094 -0.42136698961257935
v -0.22872000932693481 -0.8349299430847168 -0.42291000485420227
v -0.22380998730659485 -0.7988899946212769 -0.37270399928092957
v -0.12097999453544617 -0.8477100133895874 -0.38504499197006226
v -0.14353999495506287 -0.8783999681472778 -0.47658398747444153
v -0.03281000256538391 -1.0358999967575073 -0.44308099150657654
v -0.14353999495506287 -0.8783999681472778 -0.47658398747444153
v -0.12097999453544617 -0.8477100133895874 -0.38504499197006226
v -0.003960013389587402 -1.0189299583435059 -0.378946989774704
v -0.007779985666275024 -1.1480900049209595 -0.3537580072879791
v -0.03281000256538391 -1.0358999967575073 -0.44308099150657654
v -0.003960013389587402 -1.0189299583435059 -0.378946989774704
v -0.007779985666275024 -1.1492899656295776 -0.3411009907722473
v -0.4945099949836731 0.503154993057251 -0.39906200766563416
v -0.49591800570487976 0.7723169922828674 -0.2819409966468811
v -0.1573599874973297 0.5664100050926208 -0.1589130014181137
v -0.23813998699188232 0.3913699984550476 -0.27040401101112366
v -0.12114998698234558 0.18140000104904175 -0.19599099457263947
v 0.028620004653930664 0.2913299798965454 -0.09021899849176407
v 0.023620009422302246 -0.030149996280670166 -0.04955099895596504
v -0.12893998622894287 -0.07914000749588013 -0.14997099339962006
v 0.3242400288581848 -1.0074900388717651 -0.31887900829315186
v 0.23304998874664307 -0.8004499673843384 -0.2373490035533905
v 0.3767300248146057 -0.754330039024353 -0.1687539964914322
v 0.45910000801086426 -1.0360900163650513 -0.2536570131778717
v -0.29193001985549927 -1.2137900590896606 -0.47698500752449036
v -0.0679599940776825 -1.252750039100647 -0.5014899969100952
v -0.052410006523132324 -1.3551199436187744 -0.49591800570487976
v -0.3460499942302704 -1.2887699604034424 -0.4841189980506897
v -0.29193001985549927 -1.2137900590896606 -0.47698500752449036
v -0.3460499942302704 -1.2887699604034424 -0.4841189980506897
v -0.44846001267433167 -1.0286999940872192 -0.4282520115375519
v -0.3640899956226349 -1.0195800065994263 -0.4225040078163147
v -0.3640899956226349 -1.0195800065994263 -0.4225040078163147
v -0.44846001267433167 -1.0286999940872192 -0.4282520115375519
v -0.3849499821662903 -0.8652000427246094 -0.42136698961257935
v -0.33643001317977905 -0.914389967918396 -0.42017099261283875
v -0.23030000925064087 -0.8815200328826904 -0.4213019907474518
v -0.22872000932693481 -0.8349299430847168 -0.42291000485420227
v -0.14353999495506287 -0.8783999681472778 -0.47658398747444153
v -0.17392000555992126 -0.9249000549316406 -0.4725799858570099
v -0.17392000555992126 -0.9249000549316406 -0.4725799858570099
v -0.14353999495506287 -0.8783999681472778 -0.47658398747444153
v -0.03281000256538391 -1.0358999967575073 -0.44308099150657654
v -0.06744000315666199 -1.058769941329956 -0.43943101167678833
v -0.03281000256538391 -1.0358999967575073 -0.44308099150657654
v -0.007779985666275024 -1.1480900049209595 -0.3537580072879791
v -0.06744000315666199 -1.058769941329956 -0.43943101167678833
v -0.49309098720550537 0.23421400785446167 -0.2824169993400574
v -0.4945099949836731 0.503154993057251 -0.39906200766563416
v -0.23813998699188232 0.3913699984550476 -0.27040401101112366
v -0.33594000339508057 0.2077299952507019 -0.19792500138282776
v -0.2878299951553345 0.06510999798774719 -0.12898199260234833
v -0.12114998698234558 0.18140000104904175 -0.19599099457263947
v -0.12893998622894287 -0.07914000749588013 -0.14997099339962006
v -0.2904700040817261 -0.13239997625350952 -0.08808299899101257
v 0.18357998132705688 -1.0132999420166016 -0.2623690068721771
v 0.09645998477935791 -0.850890040397644 -0.15529300272464752
v 0.23304998874664307 -0.8004499673843384 -0.2373490035533905
v 0.3242400288581848 -1.0074900388717651 -0.31887900829315186
v -0.09948000311851501 -1.1868799924850464 -0.42192700505256653
v -0.0679599940776825 -1.252750039100647 -0.5014899969100952
v -0.29193001985549927 -1.2137900590896606 -0.47698500752449036
v -0.2606000006198883 -1.1619700193405151 -0.4067380130290985
v -0.2606000006198883 -1.1619700193405151 -0.4067380130290985
v -0.29193001985549927 -1.2137900590896606 -0.47698500752449036
v -0.3640899956226349 -1.0195800065994263 -0.4225040078163147
v -0.30796000361442566 -1.018489956855774 -0.359158992767334
v -0.3041499853134155 -0.9524099826812744 -0.35598599910736084
v -0.30796000361442566 -1.018489956855774 -0.359158992767334
v -0.3640899956226349 -1.0195800065994263 -0.4225040078163147
v -0.33643001317977905 -0.914389967918396 -0.42017099261283875
v -0.1900700032711029 -0.9665000438690186 -0.3759250044822693
v -0.23267000913619995 -0.9212100505828857 -0.3659389913082123
v -0.23030000925064087 -0.8815200328826904 -0.4213019907474518
v -0.17392000555992126 -0.9249000549316406 -0.4725799858570099
v -0.1900700032711029 -0.9665000438690186 -0.3759250044822693
v -0.17392000555992126 -0.9249000549316406 -0.4725799858570099
v -0.06744000315666199 -1.058769941329956 -0.43943101167678833
v -0.09174999594688416 -1.0794299840927124 -0.37057599425315857
v -0.09174999594688416 -1.0794299840927124 -0.37057599425315857
v -0.06744000315666199 -1.058769941329956 -0.43943101167678833
v -0.007779985666275024 -1.1480900049209595 -0.3537580072879791
v -0.007779985666275024 -1.1492899656295776 -0.3411009907722473
v -0.4925040006637573 0.12301099300384521 -0.0003370000049471855
v -0.49309098720550537 0.23421400785446167 -0.2824169993400574
v -0.33594000339508057 0.2077299952507019 -0.19792500138282776
v -0.3934600055217743 0.12307000160217285 0.016069000586867332
v -0.3737899959087372 0.010580003261566162 0.0715550035238266
v -0.2878299951553345 0.06510999798774719 -0.12898199260234833
v -0.2904700040817261 -0.13239997625350952 -0.08808299899101257
v -0.3663399815559387 -0.1587200164794922 0.09986100345849991
v 0.11952000856399536 -1.0501199960708618 -0.11722800135612488
v 0.04697000980377197 -0.8761199712753296 0.029347000643610954
v 0.09645998477935791 -0.850890040397644 -0.15529300272464752
v 0.18357998132705688 -1.0132999420166016 -0.2623690068721771
v -0.12849000096321106 -1.1960899829864502 -0.30383700132369995
v -0.09948000311851501 -1.1868799924850464 -0.42192700505256653
v -0.2606000006198883 -1.1619700193405151 -0.4067380130290985
v -0.2703999876976013 -1.1636699438095093 -0.3145279884338379
v -0.2703999876976013 -1.1636699438095093 -0.3145279884338379
v -0.2606000006198883 -1.1619700193405151 -0.4067380130290985
v -0.30796000361442566 -1.018489956855774 -0.359158992767334
v -0.31294000148773193 -1.02606999874115 -0.2753230035305023
v -0.31294000148773193 -1.02606999874115 -0.2753230035305023
v -0.30796000361442566 -1.018489956855774 -0.359158992767334
v -0.3041499853134155 -0.9524099826812744 -0.35598599910736084
v -0.30702000856399536 -0.95701003074646 -0.2664110064506531
v -0.23228999972343445 -0.9279600381851196 -0.2472440004348755
v -0.23267000913619995 -0.9212100505828857 -0.3659389913082123
v -0.1900700032711029 -0.9665000438690186 -0.3759250044822693
v -0.18797001242637634 -0.9738800525665283 -0.24282599985599518
v -0.08838000893592834 -1.0843499898910522 -0.2767319977283478
v -0.18797001242637634 -0.9738800525665283 -0.24282599985599518
v -0.1900700032711029 -0.9665000438690186 -0.3759250044822693
v -0.09174999594688416 -1.0794299840927124 -0.37057599425315857
v -0.007779985666275024 -1.1508899927139282 -0.32206299901008606
v -0.08838000893592834 -1.0843499898910522 -0.2767319977283478
v -0.09174999594688416 -1.0794299840927124 -0.37057599425315857
v -0.007779985666275024 -1.1492899656295776 -0.3411009907722473
v -0.3770099878311157 0.1869800090789795 0.24622200429439545
v -0.49309098720550537 0.23471298813819885 0.2819409966468811
v -0.3286699950695038 0.04975000023841858 0.28815001249313354
v -0.3121100068092346 -0.14270001649856567 0.30376601219177246
v 0.16958999633789062 -1.0963900089263916 0.03152000159025192
v 0.11357998847961426 -0.8613400459289551 0.20841099321842194
v 0.11952000856399536 -1.0501199960708618 -0.11722800135612488
v -0.3155999779701233 -1.2178900241851807 -0.2543709874153137
v -0.13800999522209167 -1.274999976158142 -0.21639400720596313
v -0.12849000096321106 -1.1960899829864502 -0.30383700132369995
v -0.2703999876976013 -1.1636699438095093 -0.3145279884338379
v -0.376120001077652 -1.0378799438476562 -0.22010600566864014
v -0.3155999779701233 -1.2178900241851807 -0.2543709874153137
v -0.2703999876976013 -1.1636699438095093 -0.3145279884338379
v -0.31294000148773193 -1.02606999874115 -0.2753230035305023
v -0.376120001077652 -1.0378799438476562 -0.22010600566864014
v -0.31294000148773193 -1.02606999874115 -0.2753230035305023
v -0.30702000856399536 -0.95701003074646 -0.2664110064506531
v -0.34334999322891235 -0.9254800081253052 -0.203917995095253
v -0.22936001420021057 -0.8926099538803101 -0.19709600508213043
v -0.23228999972343445 -0.9279600381851196 -0.2472440004348755
v -0.18797001242637634 -0.9738800525665283 -0.24282599985599518
v -0.16885998845100403 -0.9427299499511719 -0.1512479931116104
v -0.059300005435943604 -1.0706599950790405 -0.2128719985485077
v -0.16885998845100403 -0.9427299499511719 -0.1512479931116104
v -0.18797001242637634 -0.9738800525665283 -0.24282599985599518
v -0.08838000893592834 -1.0843499898910522 -0.2767319977283478
v -0.007779985666275024 -1.151859998703003 -0.3066540062427521
v -0.059300005435943604 -1.0706599950790405 -0.2128719985485077
v -0.08838000893592834 -1.0843499898910522 -0.2767319977283478
v -0.007779985666275024 -1.1508899927139282 -0.32206299901008606
v -0.33643001317977905 -0.914389967918396 -0.42017099261283875
v -0.3849499821662903 -0.8652000427246094 -0.42136698961257935
v -0.22872000932693481 -0.8349299430847168 -0.42291000485420227
v -0.23030000925064087 -0.8815200328826904 -0.4213019907474518
v -0.23267000913619995 -0.9212100505828857 -0.3659389913082123
v -0.3041499853134155 -0.9524099826812744 -0.35598599910736084
v -0.33643001317977905 -0.914389967918396 -0.42017099261283875
v -0.23030000925064087 -0.8815200328826904 -0.4213019907474518
v -0.30702000856399536 -0.95701003074646 -0.2664110064506531
v -0.3041499853134155 -0.9524099826812744 -0.35598599910736084
v -0.23267000913619995 -0.9212100505828857 -0.3659389913082123
v -0.23228999972343445 -0.9279600381851196 -0.2472440004348755
v -0.34334999322891235 -0.9254800081253052 -0.203917995095253
v -0.30702000856399536 -0.95701003074646 -0.2664110064506531
v -0.23228999972343445 -0.9279600381851196 -0.2472440004348755
v -0.22936001420021057 -0.8926099538803101 -0.19709600508213043
v -0.22778001427650452 -0.846019983291626 -0.19870400428771973
v -0.3918600082397461 -0.876289963722229 -0.20511500537395477
v -0.34334999322891235 -0.9254800081253052 -0.203917995095253
v -0.22936001420021057 -0.8926099538803101 -0.19709600508213043
v -0.22341999411582947 -0.805649995803833 -0.2540090084075928
v -0.42414000630378723 -0.8382699489593506 -0.26930001378059387
v -0.3918600082397461 -0.876289963722229 -0.20511500537395477
v -0.22778001427650452 -0.846019983291626 -0.19870400428771973
v -0.42127999663352966 -0.8336700201034546 -0.35887500643730164
v -0.42414000630378723 -0.8382699489593506 -0.26930001378059387
v -0.22341999411582947 -0.805649995803833 -0.2540090084075928
v -0.22380998730659485 -0.7988899946212769 -0.37270399928092957
v -0.3849499821662903 -0.8652000427246094 -0.42136698961257935
v -0.42127999663352966 -0.8336700201034546 -0.35887500643730164
v -0.22380998730659485 -0.7988899946212769 -0.37270399928092957
v -0.22872000932693481 -0.8349299430847168 -0.42291000485420227
v -0.048860013484954834 -0.6686700582504272 -0.10556399822235107
v 0.09512001276016235 -0.6133999824523926 -0.184238001704216
v -0.10648998618125916 -0.6894700527191162 0.07993199676275253
v -0.048860013484954834 -0.6686700582504272 -0.10556399822235107
v -0.04403001070022583 -0.663599967956543 0.2635889947414398
v 0.10193997621536255 -0.606220006942749 0.3378230035305023
v -0.04403001070022583 -0.663599967956543 0.2635889947414398
v 0.24590998888015747 -0.5509400367736816 0.2591489851474762
v 0.10193997621536255 -0.606220006942749 0.3378230035305023
v 0.30355000495910645 -0.5301500558853149 0.07365299761295319
v 0.24590998888015747 -0.5509400367736816 0.2591489851474762
v 0.24108999967575073 -0.5560200214385986 -0.1100040003657341
v 0.09512001276016235 -0.6133999824523926 -0.184238001704216
v 0.24108999967575073 -0.5560200214385986 -0.1100040003657341
v -0.0679599940776825 -1.252750039100647 -0.5014899969100952
v -0.09948000311851501 -1.1868799924850464 -0.42192700505256653
v 0.057439982891082764 -1.162559986114502 -0.3406040072441101
v 0.15334999561309814 -1.2138400077819824 -0.40362098813056946
v -0.12849000096321106 -1.1960899829864502 -0.30383700132369995
v 0.003840029239654541 -1.1753900051116943 -0.21949799358844757
v 0.057439982891082764 -1.162559986114502 -0.3406040072441101
v -0.09948000311851501 -1.1868799924850464 -0.42192700505256653
v 0.003840029239654541 -1.1753900051116943 -0.21949799358844757
v -0.12849000096321106 -1.1960899829864502 -0.30383700132369995
v -0.13800999522209167 -1.274999976158142 -0.21639400720596313
v 0.02394002676010132 -1.2448300123214722 -0.11124499887228012
v -0.12244999408721924 -1.377369999885559 -0.2108220010995865
v 0.10597002506256104 -1.3301899433135986 -0.07925999909639359
v 0.02394002676010132 -1.2448300123214722 -0.11124499887228012
v -0.13800999522209167 -1.274999976158142 -0.21639400720596313
v -0.09093999862670898 -1.4432400465011597 -0.29038500785827637
v 0.20187997817993164 -1.381469964981079 -0.14227700233459473
v 0.10597002506256104 -1.3301899433135986 -0.07925999909639359
v -0.12244999408721924 -1.377369999885559 -0.2108220010995865
v -0.09093999862670898 -1.4432400465011597 -0.29038500785827637
v -0.061919987201690674 -1.4340200424194336 -0.40847501158714294
v 0.25547999143600464 -1.3686399459838867 -0.26338300108909607
v 0.20187997817993164 -1.381469964981079 -0.14227700233459473
v -0.061919987201690674 -1.4340200424194336 -0.40847501158714294
v -0.052410006523132324 -1.3551199436187744 -0.49591800570487976
v 0.23537999391555786 -1.2992000579833984 -0.37163498997688293
v 0.25547999143600464 -1.3686399459838867 -0.26338300108909607
v -0.052410006523132324 -1.3551199436187744 -0.49591800570487976
v -0.0679599940776825 -1.252750039100647 -0.5014899969100952
v 0.15334999561309814 -1.2138400077819824 -0.40362098813056946
v 0.23537999391555786 -1.2992000579833984 -0.37163498997688293
v 0.18357998132705688 -1.0132999420166016 -0.2623690068721771
v 0.3242400288581848 -1.0074900388717651 -0.31887900829315186
v 0.15334999561309814 -1.2138400077819824 -0.40362098813056946
v 0.057439982891082764 -1.162559986114502 -0.3406040072441101
v 0.003840029239654541 -1.1753900051116943 -0.21949799358844757
v 0.11952000856399536 -1.0501199960708618 -0.11722800135612488
v 0.18357998132705688 -1.0132999420166016 -0.2623690068721771
v 0.057439982891082764 -1.162559986114502 -0.3406040072441101
v 0.02394002676010132 -1.2448300123214722 -0.11124499887228012
v 0.16958999633789062 -1.0963900089263916 0.03152000159025192
v 0.11952000856399536 -1.0501199960708618 -0.11722800135612488
v 0.003840029239654541 -1.1753900051116943 -0.21949799358844757
v 0.10597002506256104 -1.3301899433135986 -0.07925999909639359
v 0.30444997549057007 -1.1249899864196777 0.09674300253391266
v 0.16958999633789062 -1.0963900089263916 0.03152000159025192
v 0.02394002676010132 -1.2448300123214722 -0.11124499887228012
v 0.20187997817993164 -1.381469964981079 -0.14227700233459473
v 0.445110023021698 -1.1191799640655518 0.04023199900984764
v 0.30444997549057007 -1.1249899864196777 0.09674300253391266
v 0.10597002506256104 -1.3301899433135986 -0.07925999909639359
v 0.509160041809082 -1.0823500156402588 -0.10490799695253372
v 0.445110023021698 -1.1191799640655518 0.04023199900984764
v 0.20187997817993164 -1.381469964981079 -0.14227700233459473
v 0.25547999143600464 -1.3686399459838867 -0.26338300108909607
v 0.45910000801086426 -1.0360900163650513 -0.2536570131778717
v 0.509160041809082 -1.0823500156402588 -0.10490799695253372
v 0.25547999143600464 -1.3686399459838867 -0.26338300108909607
v 0.23537999391555786 -1.2992000579833984 -0.37163498997688293
v 0.3242400288581848 -1.0074900388717651 -0.31887900829315186
v 0.45910000801086426 -1.0360900163650513 -0.2536570131778717
v 0.23537999391555786 -1.2992000579833984 -0.37163498997688293
v 0.15334999561309814 -1.2138400077819824 -0.40362098813056946
v -0.1900700032711029 -0.4761499762535095 -0.06786400079727173
v -0.2556300163269043 -0.49264001846313477 0.11846400052309036
v -0.19718998670578003 -0.4559900164604187 0.3065840005874634
v -0.04899999499320984 -0.38766998052597046 0.3862980008125305
v -0.19718998670578003 -0.4559900164604187 0.3065840005874634
v -0.04899999499320984 -0.38766998052597046 0.3862980008125305
v 0.10214000940322876 -0.32770001888275146 0.31091099977493286
v 0.10214000940322876 -0.32770001888275146 0.31091099977493286
v 0.1676899790763855 -0.3112099766731262 0.12458200007677078
v 0.10926002264022827 -0.3478599786758423 -0.06353799998760223
v 0.10926002264022827 -0.3478599786758423 -0.06353799998760223
v -0.03892999887466431 -0.4161800146102905 -0.14325200021266937
v -0.03892999887466431 -0.4161800146102905 -0.14325200021266937
v -0.1900700032711029 -0.4761499762535095 -0.06786400079727173
v -0.4945099949836731 0.5038750171661377 0.39906200766563416
v -0.4945099949836731 0.5035200119018555 0.0
v -0.49309098720550537 0.23471298813819885 0.2819409966468811
v -0.49591800570487976 0.7728270292282104 0.28241899609565735
v -0.49651598930358887 0.8840190172195435 0.0003380000125616789
v -0.49591800570487976 0.7723169922828674 -0.2819409966468811
v -0.4945099949836731 0.503154993057251 -0.39906200766563416
v -0.49309098720550537 0.23421400785446167 -0.2824169993400574
v -0.4925040006637573 0.12301099300384521 -0.0003370000049471855

vn -0.27934199571609497 -0.3718259930610657 0.8852760195732117
vn -0.09413500130176544 -0.39764100313186646 0.9126989841461182
vn -0.11794199794530869 -0.6734730005264282 0.7297430038452148
vn -0.5424849987030029 -0.524429976940155 0.6562640070915222
vn -0.5285000205039978 -0.10889499634504318 0.841920018196106
vn -0.5914710164070129 -0.07022099941968918 0.8032630085945129
vn -0.8025659918785095 -0.06035900115966797 0.5935029983520508
vn -0.7863479852676392 -0.152211993932724 0.5987390279769897
vn -0.4191640019416809 -0.47376900911331177 0.7744960188865662
vn -0.24815300107002258 -0.47909000515937805 0.8419579863548279
vn -0.49903199076652527 -0.5630919933319092 0.6587070226669312
vn -0.7014899849891663 -0.3370720148086548 0.6279289722442627
vn -0.09083300083875656 -0.03305799886584282 0.9953169822692871
vn -0.39171499013900757 -0.028511999174952507 0.9196450114250183
vn -0.3302080035209656 0.3673909902572632 0.8694750070571899
vn 0.13185499608516693 0.1588589996099472 0.978456974029541
vn -0.03749300166964531 -0.14475299417972565 0.9887570142745972
vn -0.09083300083875656 -0.03305799886584282 0.9953169822692871
vn 0.13185499608516693 0.1588589996099472 0.978456974029541
vn 0.2835730016231537 -0.13824500143527985 0.9489330053329468
vn -0.07145699858665466 -0.060885000973939896 0.9955840110778809
vn -0.03749300166964531 -0.14475299417972565 0.9887570142745972
vn 0.2835730016231537 -0.13824500143527985 0.9489330053329468
vn 0.11145000159740448 -0.1206590011715889 0.9864180088043213
vn -0.3967120051383972 0.24976800382137299 0.883309006690979
vn -0.22481200098991394 0.03300099819898605 0.973842978477478
vn -0.25649699568748474 0.08351299911737442 0.9629300236701965
vn -0.3846459984779358 0.32575300335884094 0.863673985004425
vn 0.3556790053844452 -0.38030898571014404 0.8537319898605347
vn 0.32672199606895447 -0.13295499980449677 0.9357219934463501
vn 0.3181929886341095 -0.14534200727939606 0.9368190169334412
vn 0.3477500081062317 -0.39052900671958923 0.852383017539978
vn 0.3477500081062317 -0.39052900671958923 0.852383017539978
vn 0.43674299120903015 -0.5473880171775818 0.7138779759407043
vn 0.3556790053844452 -0.38030898571014404 0.8537319898605347
vn 0.4967989921569824 0.5115709900856018 0.7010610103607178
vn 0.46505099534988403 0.6778879761695862 0.5693820118904114
vn 0.30184200406074524 0.3136790096759796 0.9002760052680969
vn 0.24545800685882568 0.24068999290466309 0.9390519857406616
vn 0.6549879908561707 0.11880200356245041 0.7462419867515564
vn 0.6319389939308167 0.26545199751853943 0.7281399965286255
vn 0.2773370146751404 0.15085899829864502 0.9488549828529358
vn 0.3376710116863251 0.06689299643039703 0.9388840198516846
vn 0.7929720282554626 0.08529199659824371 0.6032580137252808
vn 0.5337030291557312 -0.10727299749851227 0.8388410210609436
vn 0.3414509892463684 -0.5423049926757812 0.7676699757575989
vn 0.7015600204467773 -0.4591970145702362 0.5449320077896118
vn -0.671658992767334 -0.7002869844436646 0.24181100726127625
vn -0.11795099824666977 -0.9698659777641296 0.21318499743938446
vn -0.2539530098438263 -0.7832469940185547 0.5674780011177063
vn -0.5659880042076111 -0.5195789933204651 0.6400740146636963
vn -0.9520639777183533 -0.018200000748038292 0.30535799264907837
vn -0.671658992767334 -0.7002869844436646 0.24181100726127625
vn -0.5659880042076111 -0.5195789933204651 0.6400740146636963
vn -0.7560949921607971 -0.02672700025141239 0.6539160013198853
vn -0.6108580231666565 0.7268829941749573 0.3138369917869568
vn -0.9520639777183533 -0.018200000748038292 0.30535799264907837
vn -0.7560949921607971 -0.02672700025141239 0.6539160013198853
vn -0.5193169713020325 0.5940750241279602 0.6143159866333008
vn 0.6235060095787048 0.7402330040931702 0.251585990190506
vn 0.1184839978814125 0.9382519721984863 0.32503101229667664
vn 0.102462999522686 0.8266040086746216 0.5533769726753235
vn 0.6087020039558411 0.6781319975852966 0.4118489921092987
vn 0.6235060095787048 0.7402330040931702 0.251585990190506
vn 0.6087020039558411 0.6781319975852966 0.4118489921092987
vn 0.8896710276603699 0.24776600301265717 0.38353198766708374
vn 0.9492849707603455 0.2551259994506836 0.1837639957666397
vn 0.9492849707603455 0.2551259994506836 0.1837639957666397
vn 0.8896710276603699 0.24776600301265717 0.38353198766708374
vn 0.9949190020561218 -0.06832999736070633 0.07394199818372726
vn 0.9984610080718994 -0.05530399829149246 -0.004141000099480152
vn 0.7035470008850098 0.7058010101318359 0.08286499977111816
vn 0.5753390192985535 0.8176730275154114 -0.019891999661922455
vn 0.46505099534988403 0.6778879761695862 0.5693820118904114
vn 0.4967989921569824 0.5115709900856018 0.7010610103607178
vn 0.9844520092010498 0.15118199586868286 0.08943500369787216
vn 0.9366970062255859 0.333730012178421 0.10593800246715546
vn 0.6319389939308167 0.26545199751853943 0.7281399965286255
vn 0.6549879908561707 0.11880200356245041 0.7462419867515564
vn 0.9306759834289551 0.36553698778152466 -0.015027999877929688
vn 0.7929720282554626 0.08529199659824371 0.6032580137252808
vn 0.7015600204467773 -0.4591970145702362 0.5449320077896118
vn 0.9726250171661377 -0.2315160036087036 -0.02001900039613247
vn -0.6098830103874207 -0.6596840023994446 -0.43915799260139465
vn 0.06214199960231781 -0.9126139879226685 -0.40407198667526245
vn -0.11795099824666977 -0.9698659777641296 0.21318499743938446
vn -0.671658992767334 -0.7002869844436646 0.24181100726127625
vn -0.9205570220947266 0.0623369999229908 -0.38560301065444946
vn -0.6098830103874207 -0.6596840023994446 -0.43915799260139465
vn -0.671658992767334 -0.7002869844436646 0.24181100726127625
vn -0.9520639777183533 -0.018200000748038292 0.30535799264907837
vn -0.9205570220947266 0.0623369999229908 -0.38560301065444946
vn -0.9520639777183533 -0.018200000748038292 0.30535799264907837
vn -0.6108580231666565 0.7268829941749573 0.3138369917869568
vn -0.596767008304596 0.7528020143508911 -0.27777400612831116
vn 0.1111219972372055 0.9591689705848694 -0.2600890100002289
vn 0.1184839978814125 0.9382519721984863 0.32503101229667664
vn 0.6235060095787048 0.7402330040931702 0.251585990190506
vn 0.6109309792518616 0.7634360194206238 -0.20959199965000153
vn 0.6109309792518616 0.7634360194206238 -0.20959199965000153
vn 0.6235060095787048 0.7402330040931702 0.251585990190506
vn 0.9492849707603455 0.2551259994506836 0.1837639957666397
vn 0.9343199729919434 0.26505398750305176 -0.23831099271774292
vn 0.9990400075912476 -0.04228299856185913 -0.011433999985456467
vn 0.9343199729919434 0.26505398750305176 -0.23831099271774292
vn 0.9492849707603455 0.2551259994506836 0.1837639957666397
vn 0.9984610080718994 -0.05530399829149246 -0.004141000099480152
vn 0.6821939945220947 0.5106279850006104 -0.5233250260353088
vn 0.5703309774398804 0.6072620153427124 -0.5531319975852966
vn 0.8372849822044373 0.1691109985113144 -0.5199580192565918
vn 0.8044679760932922 0.06696700304746628 -0.5902100205421448
vn 0.6331629753112793 0.4713149964809418 -0.613976001739502
vn 0.9726250171661377 -0.2315160036087036 -0.02001900039613247
vn 0.7978879809379578 0.0389849990606308 -0.6015430092811584
vn -0.32378798723220825 -0.25192898511886597 -0.9119719862937927
vn 0.15225400030612946 -0.4286839962005615 -0.8905329704284668
vn 0.06214199960231781 -0.9126139879226685 -0.40407198667526245
vn -0.6098830103874207 -0.6596840023994446 -0.43915799260139465
vn -0.32378798723220825 -0.25192898511886597 -0.9119719862937927
vn -0.6098830103874207 -0.6596840023994446 -0.43915799260139465
vn -0.9205570220947266 0.0623369999229908 -0.38560301065444946
vn -0.428384006023407 0.1465120017528534 -0.8916400074958801
vn -0.428384006023407 0.1465120017528534 -0.8916400074958801
vn -0.9205570220947266 0.0623369999229908 -0.38560301065444946
vn -0.596767008304596 0.7528020143508911 -0.27777400612831116
vn -0.32578200101852417 0.43186599016189575 -0.8410459756851196
vn -0.06314799934625626 0.5809440016746521 -0.811489999294281
vn 0.1111219972372055 0.9591689705848694 -0.2600890100002289
vn 0.6109309792518616 0.7634360194206238 -0.20959199965000153
vn 0.2128390073776245 0.4831010103225708 -0.8493019938468933
vn 0.6027920246124268 -0.05429299920797348 -0.7960489988327026
vn 0.2128390073776245 0.4831010103225708 -0.8493019938468933
vn 0.6109309792518616 0.7634360194206238 -0.20959199965000153
vn 0.9343199729919434 0.26505398750305176 -0.23831099271774292
vn 0.9785060286521912 -0.10957600176334381 -0.1746950000524521
vn 0.6027920246124268 -0.05429299920797348 -0.7960489988327026
vn 0.9343199729919434 0.26505398750305176 -0.23831099271774292
vn 0.9990400075912476 -0.04228299856185913 -0.011433999985456467
vn 0.5076389908790588 0.32444998621940613 -0.7981439828872681
vn 0.5703309774398804 0.6072620153427124 -0.5531319975852966
vn 0.6821939945220947 0.5106279850006104 -0.5233250260353088
vn 0.5598570108413696 0.2078849971294403 -0.8020880222320557
vn 0.5918859839439392 -0.05952699854969978 -0.8038210272789001
vn 0.8372849822044373 0.1691109985113144 -0.5199580192565918
vn 0.8044679760932922 0.06696700304746628 -0.5902100205421448
vn 0.5335609912872314 0.006806999910622835 -0.8457340002059937
vn 0.4284270107746124 0.21151000261306763 -0.8784729838371277
vn 0.2648319900035858 0.444597989320755 -0.8556849956512451
vn 0.6331629753112793 0.4713149964809418 -0.613976001739502
vn 0.7978879809379578 0.0389849990606308 -0.6015430092811584
vn -0.0600150004029274 0.13315600156784058 -0.9892759919166565
vn 0.1214900016784668 -0.035537999123334885 -0.9919559955596924
vn 0.15225400030612946 -0.4286839962005615 -0.8905329704284668
vn -0.32378798723220825 -0.25192898511886597 -0.9119719862937927
vn -0.0600150004029274 0.13315600156784058 -0.9892759919166565
vn -0.32378798723220825 -0.25192898511886597 -0.9119719862937927
vn -0.428384006023407 0.1465120017528534 -0.8916400074958801
vn 0.04853300005197525 0.14489999413490295 -0.9882550239562988
vn 0.04853300005197525 0.14489999413490295 -0.9882550239562988
vn -0.428384006023407 0.1465120017528534 -0.8916400074958801
vn -0.32578200101852417 0.43186599016189575 -0.8410459756851196
vn 0.01706800051033497 -0.008299999870359898 -0.9998199939727783
vn -0.29067400097846985 0.019516000524163246 -0.9566230177879333
vn -0.06314799934625626 0.5809440016746521 -0.811489999294281
vn 0.2128390073776245 0.4831010103225708 -0.8493019938468933
vn -0.20385900139808655 0.04146600142121315 -0.9781219959259033
vn -0.20385900139808655 0.04146600142121315 -0.9781219959259033
vn 0.2128390073776245 0.4831010103225708 -0.8493019938468933
vn 0.6027920246124268 -0.05429299920797348 -0.7960489988327026
vn 0.16534000635147095 -0.39461201429367065 -0.9038490056991577
vn 0.6027920246124268 -0.05429299920797348 -0.7960489988327026
vn 0.9785060286521912 -0.10957600176334381 -0.1746950000524521
vn 0.16534000635147095 -0.39461201429367065 -0.9038490056991577
vn 0.2262910008430481 -0.6523849964141846 -0.7233160138130188
vn 0.2765220105648041 -0.38116198778152466 -0.8821849822998047
vn 0.18301799893379211 -0.40575000643730164 -0.8954730033874512
vn -0.026869000867009163 -0.6517069935798645 -0.7579950094223022
vn -0.5695440173149109 -0.3195360004901886 -0.7573090195655823
vn -0.12028300017118454 -0.31838399171829224 -0.9402999877929688
vn -0.3023509979248047 -0.14542099833488464 -0.9420390129089355
vn -0.6943100094795227 -0.17721499502658844 -0.6975150108337402
vn -0.5934739708900452 0.4143509864807129 -0.6900020241737366
vn -0.7599279880523682 -0.1702439934015274 -0.6273170113563538
vn -0.49579301476478577 0.08450599759817123 -0.8643199801445007
vn -0.3570669889450073 0.3902289867401123 -0.8486610054969788
vn 0.07145699858665466 0.9335269927978516 -0.3513140082359314
vn 0.11364900320768356 0.7983229756355286 -0.5914080142974854
vn 0.3287529945373535 0.6823670268058777 -0.6529139876365662
vn 0.5417829751968384 0.7534509897232056 -0.37253499031066895
vn 0.5417829751968384 0.7534509897232056 -0.37253499031066895
vn 0.3287529945373535 0.6823670268058777 -0.6529139876365662
vn 0.7595739960670471 0.1756889969110489 -0.6262440085411072
vn 0.9391540288925171 0.172325998544693 -0.29714301228523254
vn 0.9370009899139404 -0.10704900324344635 -0.3325200080871582
vn 0.9391540288925171 0.172325998544693 -0.29714301228523254
vn 0.7595739960670471 0.1756889969110489 -0.6262440085411072
vn 0.8207619786262512 -0.2039870023727417 -0.5336099863052368
vn -0.7317569851875305 -0.6430739760398865 -0.22580300271511078
vn -0.7322109937667847 -0.6336770057678223 -0.24964000284671783
vn -0.7356250286102295 -0.5553550124168396 -0.3878610134124756
vn -0.7133820056915283 -0.5924990177154541 -0.374208003282547
vn -0.7317569851875305 -0.6430739760398865 -0.22580300271511078
vn -0.7133820056915283 -0.5924990177154541 -0.374208003282547
vn -0.6263319849967957 -0.663112998008728 -0.40986600518226624
vn -0.6663939952850342 -0.7104529738426208 -0.22621899843215942
vn -0.6663939952850342 -0.7104529738426208 -0.22621899843215942
vn -0.6263319849967957 -0.663112998008728 -0.40986600518226624
vn -0.6057929992675781 -0.7796850204467773 -0.1584469974040985
vn -0.6236699819564819 -0.778656005859375 -0.06877899914979935
vn -0.023253999650478363 -0.9975839853286743 -0.06547000259160995
vn 0.2262910008430481 -0.6523849964141846 -0.7233160138130188
vn -0.026869000867009163 -0.6517069935798645 -0.7579950094223022
vn -0.5837119817733765 -0.7931280136108398 -0.1738629937171936
vn -0.9845719933509827 -0.14297300577163696 -0.10087700188159943
vn -0.5695440173149109 -0.3195360004901886 -0.7573090195655823
vn -0.6943100094795227 -0.17721499502658844 -0.6975150108337402
vn -0.9799069762229919 -0.19127599895000458 -0.056536998599767685
vn -0.9872210025787354 0.15887300670146942 0.012399000115692616
vn -0.8535439968109131 -0.5190830230712891 0.04489799961447716
vn -0.7599279880523682 -0.1702439934015274 -0.6273170113563538
vn -0.5934739708900452 0.4143509864807129 -0.6900020241737366
vn -0.07696200162172318 0.9335799813270569 0.35000699758529663
vn 0.07145699858665466 0.9335269927978516 -0.3513140082359314
vn 0.5417829751968384 0.7534509897232056 -0.37253499031066895
vn 0.6268029808998108 0.6063219904899597 0.48937898874282837
vn 0.6268029808998108 0.6063219904899597 0.48937898874282837
vn 0.5417829751968384 0.7534509897232056 -0.37253499031066895
vn 0.9391540288925171 0.172325998544693 -0.29714301228523254
vn 0.8834999799728394 -0.003922999836504459 0.4684149920940399
vn 0.8834999799728394 -0.003922999836504459 0.4684149920940399
vn 0.9391540288925171 0.172325998544693 -0.29714301228523254
vn 0.9370009899139404 -0.10704900324344635 -0.3325200080871582
vn 0.8912410140037537 -0.19081899523735046 0.41143301129341125
vn -0.7123469710350037 -0.6608880162239075 0.23619499802589417
vn -0.7322109937667847 -0.6336770057678223 -0.24964000284671783
vn -0.7317569851875305 -0.6430739760398865 -0.22580300271511078
vn -0.707269012928009 -0.6770489811897278 0.20340999960899353
vn -0.6449300050735474 -0.7371360063552856 0.2017340064048767
vn -0.707269012928009 -0.6770489811897278 0.20340999960899353
vn -0.7317569851875305 -0.6430739760398865 -0.22580300271511078
vn -0.6663939952850342 -0.7104529738426208 -0.22621899843215942
vn -0.6398239731788635 -0.7671509981155396 -0.045882999897003174
vn -0.6449300050735474 -0.7371360063552856 0.2017340064048767
vn -0.6663939952850342 -0.7104529738426208 -0.22621899843215942
vn -0.6236699819564819 -0.778656005859375 -0.06877899914979935
vn -0.5424849987030029 -0.524429976940155 0.6562640070915222
vn -0.11794199794530869 -0.6734730005264282 0.7297430038452148
vn -0.8025659918785095 -0.06035900115966797 0.5935029983520508
vn -0.7863479852676392 -0.152211993932724 0.5987390279769897
vn -0.7014899849891663 -0.3370720148086548 0.6279289722442627
vn -0.49903199076652527 -0.5630919933319092 0.6587070226669312
vn -0.9872210025787354 0.15887300670146942 0.012399000115692616
vn 0.13185499608516693 0.1588589996099472 0.978456974029541
vn -0.3302080035209656 0.3673909902572632 0.8694750070571899
vn -0.07696200162172318 0.9335799813270569 0.35000699758529663
vn 0.6268029808998108 0.6063219904899597 0.48937898874282837
vn 0.2835730016231537 -0.13824500143527985 0.9489330053329468
vn 0.13185499608516693 0.1588589996099472 0.978456974029541
vn 0.6268029808998108 0.6063219904899597 0.48937898874282837
vn 0.8834999799728394 -0.003922999836504459 0.4684149920940399
vn 0.2835730016231537 -0.13824500143527985 0.9489330053329468
vn 0.8834999799728394 -0.003922999836504459 0.4684149920940399
vn 0.8912410140037537 -0.19081899523735046 0.41143301129341125
vn 0.11145000159740448 -0.1206590011715889 0.9864180088043213
vn -0.7124900221824646 -0.5827710032463074 0.3908129930496216
vn -0.7123469710350037 -0.6608880162239075 0.23619499802589417
vn -0.707269012928009 -0.6770489811897278 0.20340999960899353
vn -0.6792770028114319 -0.6398580074310303 0.35939499735832214
vn -0.5717639923095703 -0.7160279750823975 0.4004859924316406
vn -0.6792770028114319 -0.6398580074310303 0.35939499735832214
vn -0.707269012928009 -0.6770489811897278 0.20340999960899353
vn -0.6449300050735474 -0.7371360063552856 0.2017340064048767
vn -0.6283460259437561 -0.7757859826087952 0.057771001011133194
vn -0.5717639923095703 -0.7160279750823975 0.4004859924316406
vn -0.6449300050735474 -0.7371360063552856 0.2017340064048767
vn -0.6398239731788635 -0.7671509981155396 -0.045882999897003174
vn 0.01706800051033497 -0.008299999870359898 -0.9998199939727783
vn -0.32578200101852417 0.43186599016189575 -0.8410459756851196
vn -0.06314799934625626 0.5809440016746521 -0.811489999294281
vn -0.29067400097846985 0.019516000524163246 -0.9566230177879333
vn 0.317236989736557 -0.8769400119781494 -0.3610230088233948
vn 0.3424609899520874 -0.8851119875907898 -0.3151159882545471
vn 0.2481440007686615 -0.7810930013656616 -0.5729900002479553
vn 0.2399040013551712 -0.7938249707221985 -0.5588269829750061
vn 0.3016450107097626 -0.9216629862785339 0.24402399361133575
vn 0.3424609899520874 -0.8851119875907898 -0.3151159882545471
vn 0.317236989736557 -0.8769400119781494 -0.3610230088233948
vn 0.28064700961112976 -0.9043200016021729 0.3216249942779541
vn 0.19206100702285767 -0.8199480175971985 0.5392559766769409
vn 0.3016450107097626 -0.9216629862785339 0.24402399361133575
vn 0.28064700961112976 -0.9043200016021729 0.3216249942779541
vn 0.19920900464057922 -0.8064039945602417 0.5568029880523682
vn -0.22481200098991394 0.03300099819898605 0.973842978477478
vn -0.07145699858665466 -0.060885000973939896 0.9955840110778809
vn 0.11145000159740448 -0.1206590011715889 0.9864180088043213
vn -0.25649699568748474 0.08351299911737442 0.9629300236701965
vn 0.1184839978814125 0.9382519721984863 0.32503101229667664
vn -0.6108580231666565 0.7268829941749573 0.3138369917869568
vn -0.5193169713020325 0.5940750241279602 0.6143159866333008
vn 0.102462999522686 0.8266040086746216 0.5533769726753235
vn -0.596767008304596 0.7528020143508911 -0.27777400612831116
vn -0.6108580231666565 0.7268829941749573 0.3138369917869568
vn 0.1184839978814125 0.9382519721984863 0.32503101229667664
vn 0.1111219972372055 0.9591689705848694 -0.2600890100002289
vn -0.32578200101852417 0.43186599016189575 -0.8410459756851196
vn -0.596767008304596 0.7528020143508911 -0.27777400612831116
vn 0.1111219972372055 0.9591689705848694 -0.2600890100002289
vn -0.06314799934625626 0.5809440016746521 -0.811489999294281
vn -0.6709579825401306 -0.36280500888824463 -0.6466739773750305
vn -0.45150500535964966 -0.11224500089883804 -0.8851799964904785
vn -0.7862669825553894 -0.6177340149879456 0.013779999688267708
vn -0.6709579825401306 -0.36280500888824463 -0.6466739773750305
vn -0.5260040163993835 -0.5574280023574829 0.6423349976539612
vn -0.2745310068130493 -0.42207199335098267 0.8639950156211853
vn -0.5260040163993835 -0.5574280023574829 0.6423349976539612
vn 0.696694016456604 0.29132598638534546 0.655551016330719
vn 0.4455530047416687 0.08344999700784683 0.8913580179214478
vn 0.8372820019721985 0.5466489791870117 -0.011606000363826752
vn 0.696694016456604 0.29132598638534546 0.655551016330719
vn 0.5521249771118164 0.5314170122146606 -0.642458975315094
vn 0.28102999925613403 0.40845999121665955 -0.8684369921684265
vn 0.5521249771118164 0.5314170122146606 -0.642458975315094
vn 0.11364900320768356 0.7983229756355286 -0.5914080142974854
vn 0.07145699858665466 0.9335269927978516 -0.3513140082359314
vn -0.23709100484848022 0.8671299815177917 -0.4380339980125427
vn -0.10925299674272537 0.7088289856910706 -0.6968680024147034
vn -0.07696200162172318 0.9335799813270569 0.35000699758529663
vn -0.5885260105133057 0.7725110054016113 0.2384590059518814
vn -0.23709100484848022 0.8671299815177917 -0.4380339980125427
vn 0.07145699858665466 0.9335269927978516 -0.3513140082359314
vn -0.5885260105133057 0.7725110054016113 0.2384590059518814
vn -0.07696200162172318 0.9335799813270569 0.35000699758529663
vn -0.3302080035209656 0.3673909902572632 0.8694750070571899
vn -0.6536219716072083 0.1544789969921112 0.7408879995346069
vn -0.39171499013900757 -0.028511999174952507 0.9196450114250183
vn -0.5101119875907898 -0.20153400301933289 0.8361639976501465
vn -0.6536219716072083 0.1544789969921112 0.7408879995346069
vn -0.3302080035209656 0.3673909902572632 0.8694750070571899
vn -0.11795099824666977 -0.9698659777641296 0.21318499743938446
vn 0.2871110141277313 -0.8821589946746826 0.3733139932155609
vn -0.01643200032413006 -0.777737021446228 0.6283749938011169
vn -0.2539530098438263 -0.7832469940185547 0.5674780011177063
vn -0.11795099824666977 -0.9698659777641296 0.21318499743938446
vn 0.06214199960231781 -0.9126139879226685 -0.40407198667526245
vn 0.577010989189148 -0.7938590049743652 -0.19195300340652466
vn 0.2871110141277313 -0.8821589946746826 0.3733139932155609
vn 0.06214199960231781 -0.9126139879226685 -0.40407198667526245
vn 0.15225400030612946 -0.4286839962005615 -0.8905329704284668
vn 0.5519449710845947 -0.37690499424934387 -0.7438409924507141
vn 0.577010989189148 -0.7938590049743652 -0.19195300340652466
vn 0.15225400030612946 -0.4286839962005615 -0.8905329704284668
vn 0.1214900016784668 -0.035537999123334885 -0.9919559955596924
vn 0.3967660069465637 0.03412500023841858 -0.9172850251197815
vn 0.5519449710845947 -0.37690499424934387 -0.7438409924507141
vn -0.5934739708900452 0.4143509864807129 -0.6900020241737366
vn -0.3570669889450073 0.3902289867401123 -0.8486610054969788
vn -0.10925299674272537 0.7088289856910706 -0.6968680024147034
vn -0.23709100484848022 0.8671299815177917 -0.4380339980125427
vn -0.5885260105133057 0.7725110054016113 0.2384590059518814
vn -0.9872210025787354 0.15887300670146942 0.012399000115692616
vn -0.5934739708900452 0.4143509864807129 -0.6900020241737366
vn -0.23709100484848022 0.8671299815177917 -0.4380339980125427
vn -0.6536219716072083 0.1544789969921112 0.7408879995346069
vn -0.7014899849891663 -0.3370720148086548 0.6279289722442627
vn -0.9872210025787354 0.15887300670146942 0.012399000115692616
vn -0.5885260105133057 0.7725110054016113 0.2384590059518814
vn -0.5101119875907898 -0.20153400301933289 0.8361639976501465
vn -0.4191640019416809 -0.47376900911331177 0.7744960188865662
vn -0.7014899849891663 -0.3370720148086548 0.6279289722442627
vn -0.6536219716072083 0.1544789969921112 0.7408879995346069
vn 0.2871110141277313 -0.8821589946746826 0.3733139932155609
vn 0.7015600204467773 -0.4591970145702362 0.5449320077896118
vn 0.3414509892463684 -0.5423049926757812 0.7676699757575989
vn -0.01643200032413006 -0.777737021446228 0.6283749938011169
vn 0.9726250171661377 -0.2315160036087036 -0.02001900039613247
vn 0.7015600204467773 -0.4591970145702362 0.5449320077896118
vn 0.2871110141277313 -0.8821589946746826 0.3733139932155609
vn 0.577010989189148 -0.7938590049743652 -0.19195300340652466
vn 0.7978879809379578 0.0389849990606308 -0.6015430092811584
vn 0.9726250171661377 -0.2315160036087036 -0.02001900039613247
vn 0.577010989189148 -0.7938590049743652 -0.19195300340652466
vn 0.5519449710845947 -0.37690499424934387 -0.7438409924507141
vn 0.4284270107746124 0.21151000261306763 -0.8784729838371277
vn 0.7978879809379578 0.0389849990606308 -0.6015430092811584
vn 0.5519449710845947 -0.37690499424934387 -0.7438409924507141
vn 0.3967660069465637 0.03412500023841858 -0.9172850251197815
vn -0.6960269808769226 -0.32615798711776733 -0.6396620273590088
vn -0.8813210129737854 -0.4721370041370392 0.01897899992763996
vn -0.6372259855270386 -0.39456799626350403 0.662011981010437
vn -0.36699000000953674 -0.285302996635437 0.8853930234909058
vn -0.6372259855270386 -0.39456799626350403 0.662011981010437
vn 0.4067609906196594 0.07083799690008163 0.9107840061187744
vn 0.6870110034942627 0.21160900592803955 0.695152997970581
vn 0.6870110034942627 0.21160900592803955 0.695152997970581
vn 0.9146590232849121 0.403997004032135 0.013604000210762024
vn 0.6494749784469604 0.3607569932937622 -0.6693549752235413
vn 0.6494749784469604 0.3607569932937622 -0.6693549752235413
vn 0.3681829869747162 0.24716700613498688 -0.8962979912757874
vn -0.39536699652671814 -0.13269299268722534 -0.9088879823684692
vn -0.6960269808769226 -0.32615798711776733 -0.6396620273590088
vn -0.9999859929084778 -0.005253999959677458 4.999999873689376e-06
vn -0.9999859929084778 -0.0052629997953772545 4.999999873689376e-06
vn -0.9999859929084778 -0.005272999871522188 6.000000212225132e-06
vn -0.9999859929084778 -0.005251999944448471 2.2000000171829015e-05
vn -0.9999859929084778 -0.0052720000967383385 4.999999873689376e-06
vn -0.9999859929084778 -0.005251999944448471 -1.2999999853491317e-05
vn -0.9999859929084778 -0.005253999959677458 4.999999873689376e-06
vn -0.9999859929084778 -0.005272999871522188 3.999999989900971e-06
vn -0.9999859929084778 -0.0052720000967383385 4.999999873689376e-06

vt 0.3229289948940277 0.8251709938049316
vt 0.35189899802207947 0.8251709938049316
vt 0.35189899802207947 0.8744840025901794
vt 0.32364800572395325 0.8744840025901794
vt 0.2949199974536896 0.8251709938049316
vt 0.3082999885082245 0.8251709938049316
vt 0.3091000020503998 0.8744840025901794
vt 0.29442399740219116 0.8744840025901794
vt 0.2272000014781952 0.8251709938049316
vt 0.24473999440670013 0.8251709938049316
vt 0.24619999527931213 0.8744840025901794
vt 0.2272000014781952 0.8744840025901794
vt 0.48938798904418945 0.04105299711227417
vt 0.5081459879875183 0.04105299711227417
vt 0.5070580244064331 0.022777974605560303
vt 0.4890049993991852 0.022777974605560303
vt 0.47216999530792236 0.04105299711227417
vt 0.48938798904418945 0.04105299711227417
vt 0.4890049993991852 0.022777974605560303
vt 0.47165098786354065 0.022777974605560303
vt 0.4596390128135681 0.04105299711227417
vt 0.47216999530792236 0.04105299711227417
vt 0.47165098786354065 0.022777974605560303
vt 0.45870500802993774 0.022777974605560303
vt 0.4397769868373871 0.04105299711227417
vt 0.4465450048446655 0.04105299711227417
vt 0.4460330009460449 0.022777974605560303
vt 0.43961501121520996 0.022777974605560303
vt 0.4283890128135681 0.04105299711227417
vt 0.4397769868373871 0.04105299711227417
vt 0.43961501121520996 0.022777974605560303
vt 0.4284299910068512 0.022777974605560303
vt 0.4284299910068512 0.022777974605560303
vt 0.42146700620651245 0.04105299711227417
vt 0.4283890128135681 0.04105299711227417
vt 0.32214900851249695 0.7491959929466248
vt 0.35189899802207947 0.7491959929466248
vt 0.35189899802207947 0.8251709938049316
vt 0.3229289948940277 0.8251709938049316
vt 0.2937079966068268 0.7491959929466248
vt 0.3070339858531952 0.7491959929466248
vt 0.3082999885082245 0.8251709938049316
vt 0.2949199974536896 0.8251709938049316
vt 0.23940099775791168 0.7491959929466248
vt 0.24473999440670013 0.8251709938049316
vt 0.2272000014781952 0.8251709938049316
vt 0.2272000014781952 0.7491959929466248
vt 0.49427101016044617 0.06920897960662842
vt 0.5107489824295044 0.06920897960662842
vt 0.5081459879875183 0.04105299711227417
vt 0.48938798904418945 0.04105299711227417
vt 0.47722700238227844 0.06920897960662842
vt 0.49427101016044617 0.06920897960662842
vt 0.48938798904418945 0.04105299711227417
vt 0.47216999530792236 0.04105299711227417
vt 0.4645479917526245 0.06920897960662842
vt 0.47722700238227844 0.06920897960662842
vt 0.47216999530792236 0.04105299711227417
vt 0.4596390128135681 0.04105299711227417
vt 0.4449099898338318 0.06920897960662842
vt 0.452908992767334 0.06920897960662842
vt 0.4465450048446655 0.04105299711227417
vt 0.4397769868373871 0.04105299711227417
vt 0.4449099898338318 0.06920897960662842
vt 0.4397769868373871 0.04105299711227417
vt 0.4283890128135681 0.04105299711227417
vt 0.4307920038700104 0.06920897960662842
vt 0.4307920038700104 0.06920897960662842
vt 0.4283890128135681 0.04105299711227417
vt 0.42146700620651245 0.04105299711227417
vt 0.4224250018596649 0.06920897960662842
vt 0.32307499647140503 0.689190000295639
vt 0.35189899802207947 0.689190000295639
vt 0.35189899802207947 0.7491959929466248
vt 0.32214900851249695 0.7491959929466248
vt 0.2928529977798462 0.689190000295639
vt 0.3071199953556061 0.689190000295639
vt 0.3070339858531952 0.7491959929466248
vt 0.2937079966068268 0.7491959929466248
vt 0.23962999880313873 0.689190000295639
vt 0.23940099775791168 0.7491959929466248
vt 0.2272000014781952 0.7491959929466248
vt 0.2272000014781952 0.689190000295639
vt 0.4939039945602417 0.09144699573516846
vt 0.5119330286979675 0.09144699573516846
vt 0.5107489824295044 0.06920897960662842
vt 0.49427101016044617 0.06920897960662842
vt 0.4765230119228363 0.09144699573516846
vt 0.4939039945602417 0.09144699573516846
vt 0.49427101016044617 0.06920897960662842
vt 0.47722700238227844 0.06920897960662842
vt 0.4765230119228363 0.09144699573516846
vt 0.47722700238227844 0.06920897960662842
vt 0.4645479917526245 0.06920897960662842
vt 0.4633379876613617 0.09144699573516846
vt 0.4516589939594269 0.09144699573516846
vt 0.452908992767334 0.06920897960662842
vt 0.4449099898338318 0.06920897960662842
vt 0.44484400749206543 0.09144699573516846
vt 0.44484400749206543 0.09144699573516846
vt 0.4449099898338318 0.06920897960662842
vt 0.4307920038700104 0.06920897960662842
vt 0.4317150115966797 0.09144699573516846
vt 0.422758013010025 0.09144699573516846
vt 0.4317150115966797 0.09144699573516846
vt 0.4307920038700104 0.06920897960662842
vt 0.4224250018596649 0.06920897960662842
vt 0.3202179968357086 0.6250349879264832
vt 0.35189899802207947 0.6250349879264832
vt 0.3053860068321228 0.6250349879264832
vt 0.29195499420166016 0.6250349879264832
vt 0.23888500034809113 0.6250349879264832
vt 0.2272000014781952 0.689190000295639
vt 0.2272000014781952 0.6250349879264832
vt 0.4937030076980591 0.11522197723388672
vt 0.5119289755821228 0.11522197723388672
vt 0.5119330286979675 0.09144699573516846
vt 0.4939039945602417 0.09144699573516846
vt 0.4937030076980591 0.11522197723388672
vt 0.4939039945602417 0.09144699573516846
vt 0.4765230119228363 0.09144699573516846
vt 0.475165992975235 0.11522197723388672
vt 0.475165992975235 0.11522197723388672
vt 0.4765230119228363 0.09144699573516846
vt 0.4633379876613617 0.09144699573516846
vt 0.4621979892253876 0.11522197723388672
vt 0.4512610137462616 0.11522197723388672
vt 0.4516589939594269 0.09144699573516846
vt 0.44484400749206543 0.09144699573516846
vt 0.44461798667907715 0.11522197723388672
vt 0.4328100085258484 0.11522197723388672
vt 0.44461798667907715 0.11522197723388672
vt 0.44484400749206543 0.09144699573516846
vt 0.4317150115966797 0.09144699573516846
vt 0.422993004322052 0.11522197723388672
vt 0.4328100085258484 0.11522197723388672
vt 0.4317150115966797 0.09144699573516846
vt 0.422758013010025 0.09144699573516846
vt 0.35189899802207947 0.5620839893817902
vt 0.35189899802207947 0.6250349879264832
vt 0.3202179968357086 0.6250349879264832
vt 0.3257080018520355 0.5620839893817902
vt 0.30733799934387207 0.5620839893817902
vt 0.3053860068321228 0.6250349879264832
vt 0.29195499420166016 0.6250349879264832
vt 0.2929860055446625 0.5620839893817902
vt 0.2272000014781952 0.5620839893817902
vt 0.2408680021762848 0.5620839893817902
vt 0.23888500034809113 0.6250349879264832
vt 0.2272000014781952 0.6250349879264832
vt 0.4950459897518158 0.1385509967803955
vt 0.512395977973938 0.1385509967803955
vt 0.5119289755821228 0.11522197723388672
vt 0.4937030076980591 0.11522197723388672
vt 0.4950459897518158 0.1385509967803955
vt 0.4937030076980591 0.11522197723388672
vt 0.475165992975235 0.11522197723388672
vt 0.4780629873275757 0.1385509967803955
vt 0.4780629873275757 0.1385509967803955
vt 0.475165992975235 0.11522197723388672
vt 0.4621979892253876 0.11522197723388672
vt 0.4639059901237488 0.1385509967803955
vt 0.45549601316452026 0.1385509967803955
vt 0.4512610137462616 0.11522197723388672
vt 0.44461798667907715 0.11522197723388672
vt 0.4455150067806244 0.1385509967803955
vt 0.4455150067806244 0.1385509967803955
vt 0.44461798667907715 0.11522197723388672
vt 0.43163299560546875 0.11522197723388672
vt 0.43540599942207336 0.1385509967803955
vt 0.43163299560546875 0.11522197723388672
vt 0.42481398582458496 0.1385509967803955
vt 0.43540599942207336 0.1385509967803955
vt 0.35189899802207947 0.49964797496795654
vt 0.35189899802207947 0.5620839893817902
vt 0.3257080018520355 0.5620839893817902
vt 0.3216879963874817 0.49964797496795654
vt 0.3102929890155792 0.49964797496795654
vt 0.30733799934387207 0.5620839893817902
vt 0.2929860055446625 0.5620839893817902
vt 0.2942369878292084 0.49964797496795654
vt 0.2272000014781952 0.49964797496795654
vt 0.23858700692653656 0.49964797496795654
vt 0.2408680021762848 0.5620839893817902
vt 0.2272000014781952 0.5620839893817902
vt 0.508899986743927 0.16168898344039917
vt 0.512395977973938 0.1385509967803955
vt 0.4950459897518158 0.1385509967803955
vt 0.4929009974002838 0.16168898344039917
vt 0.4929009974002838 0.16168898344039917
vt 0.4950459897518158 0.1385509967803955
vt 0.4780629873275757 0.1385509967803955
vt 0.47773998975753784 0.16168898344039917
vt 0.4637660086154938 0.16168898344039917
vt 0.47773998975753784 0.16168898344039917
vt 0.4780629873275757 0.1385509967803955
vt 0.4639059901237488 0.1385509967803955
vt 0.44711199402809143 0.16168898344039917
vt 0.45482000708580017 0.16168898344039917
vt 0.45549601316452026 0.1385509967803955
vt 0.4455150067806244 0.1385509967803955
vt 0.44711199402809143 0.16168898344039917
vt 0.4455150067806244 0.1385509967803955
vt 0.43540599942207336 0.1385509967803955
vt 0.4331600069999695 0.16168898344039917
vt 0.4331600069999695 0.16168898344039917
vt 0.43540599942207336 0.1385509967803955
vt 0.42481398582458496 0.1385509967803955
vt 0.42259499430656433 0.16168898344039917
vt 0.35189899802207947 0.4367330074310303
vt 0.35189899802207947 0.49964797496795654
vt 0.3216879963874817 0.49964797496795654
vt 0.320266991853714 0.4367330074310303
vt 0.3096599876880646 0.4367330074310303
vt 0.3102929890155792 0.49964797496795654
vt 0.2942369878292084 0.49964797496795654
vt 0.29476198554039 0.4367330074310303
vt 0.2272000014781952 0.4367330074310303
vt 0.23757599294185638 0.4367330074310303
vt 0.23858700692653656 0.49964797496795654
vt 0.2272000014781952 0.49964797496795654
vt 0.5070919990539551 0.1850060224533081
vt 0.508899986743927 0.16168898344039917
vt 0.4929009974002838 0.16168898344039917
vt 0.4931429922580719 0.1850060224533081
vt 0.4931429922580719 0.1850060224533081
vt 0.4929009974002838 0.16168898344039917
vt 0.47780901193618774 0.16168898344039917
vt 0.4781869947910309 0.1850060224533081
vt 0.4781869947910309 0.1850060224533081
vt 0.47780901193618774 0.16168898344039917
vt 0.4637170135974884 0.16168898344039917
vt 0.46372300386428833 0.1850060224533081
vt 0.4549039900302887 0.1850060224533081
vt 0.45482000708580017 0.16168898344039917
vt 0.44711199402809143 0.16168898344039917
vt 0.4474560022354126 0.1850060224533081
vt 0.43304601311683655 0.1850060224533081
vt 0.4474560022354126 0.1850060224533081
vt 0.44711199402809143 0.16168898344039917
vt 0.4331600069999695 0.16168898344039917
vt 0.42254799604415894 0.1850060224533081
vt 0.43304601311683655 0.1850060224533081
vt 0.4331600069999695 0.16168898344039917
vt 0.42259499430656433 0.16168898344039917
vt 0.32430300116539 0.37517499923706055
vt 0.35189899802207947 0.37517499923706055
vt 0.3120180070400238 0.37517499923706055
vt 0.29470598697662354 0.37517499923706055
vt 0.2272000014781952 0.37517499923706055
vt 0.23581700026988983 0.37517499923706055
vt 0.2272000014781952 0.4367330074310303
vt 0.4922429919242859 0.20781797170639038
vt 0.5091549754142761 0.20781797170639038
vt 0.5070919990539551 0.1850060224533081
vt 0.4931429922580719 0.1850060224533081
vt 0.47912898659706116 0.20781797170639038
vt 0.4922429919242859 0.20781797170639038
vt 0.4931429922580719 0.1850060224533081
vt 0.4781869947910309 0.1850060224533081
vt 0.47912898659706116 0.20781797170639038
vt 0.4781869947910309 0.1850060224533081
vt 0.46372300386428833 0.1850060224533081
vt 0.4635840058326721 0.20781797170639038
vt 0.4553230106830597 0.20781797170639038
vt 0.4549039900302887 0.1850060224533081
vt 0.4474560022354126 0.1850060224533081
vt 0.4476020038127899 0.20781797170639038
vt 0.4318139851093292 0.20781797170639038
vt 0.4476020038127899 0.20781797170639038
vt 0.4474560022354126 0.1850060224533081
vt 0.43304601311683655 0.1850060224533081
vt 0.42253801226615906 0.20781797170639038
vt 0.4318139851093292 0.20781797170639038
vt 0.43304601311683655 0.1850060224533081
vt 0.42254799604415894 0.1850060224533081
vt 0.4639059901237488 0.1385509967803955
vt 0.4621979892253876 0.11522197723388672
vt 0.4512610137462616 0.11522197723388672
vt 0.45549601316452026 0.1385509967803955
vt 0.45482000708580017 0.16168898344039917
vt 0.4637660086154938 0.16168898344039917
vt 0.4639059901237488 0.1385509967803955
vt 0.45549601316452026 0.1385509967803955
vt 0.46372300386428833 0.1850060224533081
vt 0.4637170135974884 0.16168898344039917
vt 0.45482000708580017 0.16168898344039917
vt 0.4549039900302887 0.1850060224533081
vt 0.4635840058326721 0.20781797170639038
vt 0.46372300386428833 0.1850060224533081
vt 0.4549039900302887 0.1850060224533081
vt 0.4553230106830597 0.20781797170639038
vt 0.4465450048446655 0.04105299711227417
vt 0.4596390128135681 0.04105299711227417
vt 0.45870500802993774 0.022777974605560303
vt 0.4460330009460449 0.022777974605560303
vt 0.452908992767334 0.06920897960662842
vt 0.4645479917526245 0.06920897960662842
vt 0.4596390128135681 0.04105299711227417
vt 0.4465450048446655 0.04105299711227417
vt 0.4633379876613617 0.09144699573516846
vt 0.4645479917526245 0.06920897960662842
vt 0.452908992767334 0.06920897960662842
vt 0.4516589939594269 0.09144699573516846
vt 0.4621979892253876 0.11522197723388672
vt 0.4633379876613617 0.09144699573516846
vt 0.4516589939594269 0.09144699573516846
vt 0.4512610137462616 0.11522197723388672
vt 0.2546299993991852 0.49964797496795654
vt 0.2562420070171356 0.5620839893817902
vt 0.25422799587249756 0.4367330074310303
vt 0.2546299993991852 0.49964797496795654
vt 0.25299200415611267 0.37517499923706055
vt 0.26039400696754456 0.8251709938049316
vt 0.26200199127197266 0.8744840025901794
vt 0.25628799200057983 0.7491959929466248
vt 0.26039400696754456 0.8251709938049316
vt 0.25560200214385986 0.689190000295639
vt 0.25628799200057983 0.7491959929466248
vt 0.2544899880886078 0.6250349879264832
vt 0.2562420070171356 0.5620839893817902
vt 0.2544899880886078 0.6250349879264832
vt 0.512395977973938 0.1385509967803955
vt 0.508899986743927 0.16168898344039917
vt 0.5228809714317322 0.16168898344039917
vt 0.5255439877510071 0.1385509967803955
vt 0.5070919990539551 0.1850060224533081
vt 0.5227980017662048 0.1850060224533081
vt 0.5228809714317322 0.16168898344039917
vt 0.508899986743927 0.16168898344039917
vt 0.5227980017662048 0.1850060224533081
vt 0.5070919990539551 0.1850060224533081
vt 0.5091549754142761 0.20781797170639038
vt 0.5243290066719055 0.20781797170639038
vt 0.5081459879875183 0.04105299711227417
vt 0.5291039943695068 0.04105299711227417
vt 0.5276809930801392 0.022777974605560303
vt 0.5070580244064331 0.022777974605560303
vt 0.5107489824295044 0.06920897960662842
vt 0.5282430052757263 0.06920897960662842
vt 0.5291039943695068 0.04105299711227417
vt 0.5081459879875183 0.04105299711227417
vt 0.5107489824295044 0.06920897960662842
vt 0.5119330286979675 0.09144699573516846
vt 0.5278400182723999 0.09144699573516846
vt 0.5282430052757263 0.06920897960662842
vt 0.5119330286979675 0.09144699573516846
vt 0.5119289755821228 0.11522197723388672
vt 0.5269929766654968 0.11522197723388672
vt 0.5278400182723999 0.09144699573516846
vt 0.5119289755821228 0.11522197723388672
vt 0.512395977973938 0.1385509967803955
vt 0.5255439877510071 0.1385509967803955
vt 0.5269929766654968 0.11522197723388672
vt 0.5354679822921753 0.16168898344039917
vt 0.5363789796829224 0.1385509967803955
vt 0.5255439877510071 0.1385509967803955
vt 0.5228809714317322 0.16168898344039917
vt 0.5227980017662048 0.1850060224533081
vt 0.5352830290794373 0.1850060224533081
vt 0.5354679822921753 0.16168898344039917
vt 0.5228809714317322 0.16168898344039917
vt 0.5243290066719055 0.20781797170639038
vt 0.5369899868965149 0.20781797170639038
vt 0.5352830290794373 0.1850060224533081
vt 0.5227980017662048 0.1850060224533081
vt 0.5291039943695068 0.04105299711227417
vt 0.5385869741439819 0.04105299711227417
vt 0.5387020111083984 0.022777974605560303
vt 0.5276809930801392 0.022777974605560303
vt 0.5282430052757263 0.06920897960662842
vt 0.5370339751243591 0.06920897960662842
vt 0.5385869741439819 0.04105299711227417
vt 0.5291039943695068 0.04105299711227417
vt 0.5372840166091919 0.09144699573516846
vt 0.5370339751243591 0.06920897960662842
vt 0.5282430052757263 0.06920897960662842
vt 0.5278400182723999 0.09144699573516846
vt 0.5366830229759216 0.11522197723388672
vt 0.5372840166091919 0.09144699573516846
vt 0.5278400182723999 0.09144699573516846
vt 0.5269929766654968 0.11522197723388672
vt 0.5363789796829224 0.1385509967803955
vt 0.5366830229759216 0.11522197723388672
vt 0.5269929766654968 0.11522197723388672
vt 0.5255439877510071 0.1385509967803955
vt 0.26844799518585205 0.49964797496795654
vt 0.26884400844573975 0.4367330074310303
vt 0.26875200867652893 0.37517499923706055
vt 0.276513010263443 0.8251709938049316
vt 0.27815499901771545 0.8744840025901794
vt 0.276513010263443 0.8251709938049316
vt 0.2734200060367584 0.7491959929466248
vt 0.2734200060367584 0.7491959929466248
vt 0.2720530033111572 0.689190000295639
vt 0.2704640030860901 0.6250349879264832
vt 0.2704640030860901 0.6250349879264832
vt 0.2711629867553711 0.5620839893817902
vt 0.2711629867553711 0.5620839893817902
vt 0.26844799518585205 0.49964797496795654
vt 0.9141589999198914 0.35938501358032227
vt 0.914247989654541 0.29707998037338257
vt 0.8830850124359131 0.35938501358032227
vt 0.9454119801521301 0.35938501358032227
vt 0.9454119801521301 0.2973489761352539
vt 0.9454119801521301 0.23477500677108765
vt 0.9143379926681519 0.23477500677108765
vt 0.8830850124359131 0.23477500677108765
vt 0.8830850124359131 0.2968119978904724

usemtl Material

f 1/1/1 2/2/2 3/3/3
f 3/3/3 4/4/4 1/1/1
f 5/5/5 6/6/6 7/7/7
f 7/7/7 8/8/8 5/5/5
f 9/9/9 10/10/10 11/11/11
f 11/11/11 12/12/12 9/9/9
f 13/13/13 14/14/14 15/15/15
f 15/15/15 16/16/16 13/13/13
f 17/17/17 18/18/18 19/19/19
f 19/19/19 20/20/20 17/17/17
f 21/21/21 22/22/22 23/23/23
f 23/23/23 24/24/24 21/21/21
f 25/25/25 26/26/26 27/27/27
f 27/27/27 28/28/28 25/25/25
f 29/29/29 30/30/30 31/31/31
f 31/31/31 32/32/32 29/29/29
f 33/33/33 34/34/34 35/35/35
f 36/36/36 37/37/37 38/38/38
f 38/38/38 39/39/39 36/36/36
f 40/40/40 41/41/41 42/42/42
f 42/42/42 43/43/43 40/40/40
f 44/44/44 45/45/45 46/46/46
f 46/46/46 47/47/47 44/44/44
f 48/48/48 49/49/49 50/50/50
f 50/50/50 51/51/51 48/48/48
f 52/52/52 53/53/53 54/54/54
f 54/54/54 55/55/55 52/52/52
f 56/56/56 57/57/57 58/58/58
f 58/58/58 59/59/59 56/56/56
f 60/60/60 61/61/61 62/62/62
f 62/62/62 63/63/63 60/60/60
f 64/64/64 65/65/65 66/66/66
f 66/66/66 67/67/67 64/64/64
f 68/68/68 69/69/69 70/70/70
f 70/70/70 71/71/71 68/68/68
f 72/72/72 73/73/73 74/74/74
f 74/74/74 75/75/75 72/72/72
f 76/76/76 77/77/77 78/78/78
f 78/78/78 79/79/79 76/76/76
f 80/80/80 81/81/81 82/82/82
f 82/82/82 83/83/83 80/80/80
f 84/84/84 85/85/85 86/86/86
f 86/86/86 87/87/87 84/84/84
f 88/88/88 89/89/89 90/90/90
f 90/90/90 91/91/91 88/88/88
f 92/92/92 93/93/93 94/94/94
f 94/94/94 95/95/95 92/92/92
f 96/96/96 97/97/97 98/98/98
f 98/98/98 99/99/99 96/96/96
f 100/100/100 101/101/101 102/102/102
f 102/102/102 103/103/103 100/100/100
f 104/104/104 105/105/105 106/106/106
f 106/106/106 107/107/107 104/104/104
f 108/108/108 109/109/109 73/73/73
f 73/73/73 72/72/72 108/108/108
f 110/110/110 77/77/77 76/76/76
f 76/76/76 111/111/111 110/110/110
f 112/112/112 80/80/80 113/113/113
f 113/113/113 114/114/114 112/112/112
f 115/115/115 116/116/116 117/117/117
f 117/117/117 118/118/118 115/115/115
f 119/119/119 120/120/120 121/121/121
f 121/121/121 122/122/122 119/119/119
f 123/123/123 124/124/124 125/125/125
f 125/125/125 126/126/126 123/123/123
f 127/127/127 128/128/128 129/129/129
f 129/129/129 130/130/130 127/127/127
f 131/131/131 132/132/132 133/133/133
f 133/133/133 134/134/134 131/131/131
f 135/135/135 136/136/136 137/137/137
f 137/137/137 138/138/138 135/135/135
f 139/139/139 140/140/140 141/141/141
f 141/141/141 142/142/142 139/139/139
f 143/143/143 144/144/144 145/145/145
f 145/145/145 146/146/146 143/143/143
f 147/147/147 148/148/148 149/149/149
f 149/149/149 150/150/150 147/147/147
f 151/151/151 152/152/152 153/153/153
f 153/153/153 154/154/154 151/151/151
f 155/155/155 156/156/156 157/157/157
f 157/157/157 158/158/158 155/155/155
f 159/159/159 160/160/160 161/161/161
f 161/161/161 162/162/162 159/159/159
f 163/163/163 164/164/164 165/165/165
f 165/165/165 166/166/166 163/163/163
f 167/167/167 168/168/168 169/169/169
f 169/169/169 170/170/170 167/167/167
f 171/171/171 172/172/172 173/173/173
f 174/174/174 175/175/175 176/176/176
f 176/176/176 177/177/177 174/174/174
f 178/178/178 179/179/179 180/180/180
f 180/180/180 181/181/181 178/178/178
f 182/182/182 183/183/183 184/184/184
f 184/184/184 185/185/185 182/182/182
f 186/186/186 187/187/187 188/188/188
f 188/188/188 189/189/189 186/186/186
f 190/190/190 191/191/191 192/192/192
f 192/192/192 193/193/193 190/190/190
f 194/194/194 195/195/195 196/196/196
f 196/196/196 197/197/197 194/194/194
f 198/198/198 199/199/199 200/200/200
f 200/200/200 201/201/201 198/198/198
f 202/202/202 203/203/203 204/204/204
f 204/204/204 205/205/205 202/202/202
f 206/206/206 207/207/207 208/208/208
f 208/208/208 209/209/209 206/206/206
f 210/210/210 211/211/211 212/212/212
f 212/212/212 213/213/213 210/210/210
f 214/214/214 215/215/215 216/216/216
f 216/216/216 217/217/217 214/214/214
f 218/218/218 219/219/219 220/220/220
f 220/220/220 221/221/221 218/218/218
f 222/222/222 223/223/223 224/224/224
f 224/224/224 225/225/225 222/222/222
f 226/226/226 227/227/227 228/228/228
f 228/228/228 229/229/229 226/226/226
f 230/230/230 231/231/231 232/232/232
f 232/232/232 233/233/233 230/230/230
f 234/234/234 235/235/235 236/236/236
f 236/236/236 237/237/237 234/234/234
f 238/238/238 239/239/239 240/240/240
f 240/240/240 241/241/241 238/238/238
f 242/242/242 243/243/243 244/244/244
f 244/244/244 245/245/245 242/242/242
f 246/246/246 247/247/247 210/210/210
f 210/210/210 213/213/213 246/246/246
f 248/248/248 214/214/214 217/217/217
f 217/217/217 249/249/249 248/248/248
f 250/250/250 251/251/251 219/219/219
f 219/219/219 252/252/252 250/250/250
f 253/253/253 254/254/254 255/255/255
f 255/255/255 256/256/256 253/253/253
f 257/257/257 258/258/258 259/259/259
f 259/259/259 260/260/260 257/257/257
f 261/261/261 262/262/262 263/263/263
f 263/263/263 264/264/264 261/261/261
f 265/265/265 266/266/266 267/267/267
f 267/267/267 268/268/268 265/265/265
f 269/269/269 270/270/270 271/271/271
f 271/271/271 272/272/272 269/269/269
f 273/273/273 274/274/274 275/275/275
f 275/275/275 276/276/276 273/273/273
f 277/277/277 278/278/278 279/279/279
f 279/279/279 280/280/280 277/277/277
f 281/281/281 282/282/282 283/283/283
f 283/283/283 284/284/284 281/281/281
f 285/285/285 286/286/286 287/287/287
f 287/287/287 288/288/288 285/285/285
f 289/289/289 290/290/290 291/291/291
f 291/291/291 292/292/292 289/289/289
f 293/293/293 294/294/294 295/295/295
f 295/295/295 296/296/296 293/293/293
f 297/297/297 298/298/298 299/299/299
f 299/299/299 300/300/300 297/297/297
f 301/301/301 302/302/302 303/303/303
f 303/303/303 304/304/304 301/301/301
f 305/305/305 306/306/306 307/307/307
f 307/307/307 308/308/308 305/305/305
f 183/183/183 309/309/309 310/310/310
f 310/310/310 184/184/184 183/183/183
f 219/219/219 311/311/311 312/312/312
f 312/312/312 220/220/220 219/219/219
f 251/251/251 313/313/313 311/311/311
f 311/311/311 219/219/219 251/251/251
f 314/314/314 315/315/315 11/11/11
f 11/11/11 10/10/10 314/314/314
f 316/316/316 317/317/317 45/45/45
f 45/45/45 44/44/44 316/316/316
f 318/318/318 319/319/319 81/81/81
f 81/81/81 80/80/80 318/318/318
f 320/320/320 318/318/318 80/80/80
f 80/80/80 112/112/112 320/320/320
f 148/148/148 321/321/321 322/322/322
f 322/322/322 149/149/149 148/148/148
f 323/323/323 324/324/324 325/325/325
f 325/325/325 326/326/326 323/323/323
f 327/327/327 328/328/328 329/329/329
f 329/329/329 330/330/330 327/327/327
f 331/331/331 332/332/332 333/333/333
f 333/333/333 334/334/334 331/331/331
f 335/335/335 336/336/336 337/337/337
f 337/337/337 338/338/338 335/335/335
f 339/339/339 340/340/340 341/341/341
f 341/341/341 342/342/342 339/339/339
f 343/343/343 344/344/344 345/345/345
f 345/345/345 346/346/346 343/343/343
f 347/347/347 348/348/348 349/349/349
f 349/349/349 350/350/350 347/347/347
f 351/351/351 352/352/352 353/353/353
f 353/353/353 354/354/354 351/351/351
f 355/355/355 356/356/356 357/357/357
f 357/357/357 358/358/358 355/355/355
f 359/359/359 360/360/360 361/361/361
f 361/361/361 362/362/362 359/359/359
f 363/363/363 364/364/364 365/365/365
f 365/365/365 366/366/366 363/363/363
f 367/367/367 368/368/368 369/369/369
f 369/369/369 370/370/370 367/367/367
f 371/371/371 372/372/372 373/373/373
f 373/373/373 374/374/374 371/371/371
f 375/375/375 376/376/376 377/377/377
f 377/377/377 378/378/378 375/375/375
f 379/379/379 380/380/380 381/381/381
f 381/381/381 382/382/382 379/379/379
f 383/383/383 384/384/384 385/385/385
f 385/385/385 386/386/386 383/383/383
f 217/217/217 216/216/216 387/387/387
f 387/387/387 388/388/388 217/217/217
f 249/249/249 217/217/217 388/388/388
f 388/388/388 389/389/389 249/249/249
f 390/390/390 5/5/5 8/8/8
f 8/8/8 391/391/391 390/390/390
f 40/40/40 43/43/43 392/392/392
f 392/392/392 393/393/393 40/40/40
f 76/76/76 79/79/79 394/394/394
f 394/394/394 395/395/395 76/76/76
f 111/111/111 76/76/76 395/395/395
f 395/395/395 396/396/396 111/111/111
f 146/146/146 145/145/145 397/397/397
f 397/397/397 398/398/398 146/146/146
f 181/181/181 180/180/180 399/399/399
f 399/399/399 400/400/400 181/181/181
f 177/177/177 176/176/176 179/179/179
f 179/179/179 178/178/178 177/177/177
f 213/213/213 212/212/212 215/215/215
f 215/215/215 214/214/214 213/213/213
f 246/246/246 213/213/213 214/214/214
f 214/214/214 248/248/248 246/246/246
f 6/6/6 1/1/1 4/4/4
f 4/4/4 7/7/7 6/6/6
f 41/41/41 36/36/36 39/39/39
f 39/39/39 42/42/42 41/41/41
f 77/77/77 72/72/72 75/75/75
f 75/75/75 78/78/78 77/77/77
f 110/110/110 108/108/108 72/72/72
f 72/72/72 77/77/77 110/110/110
f 142/142/142 141/141/141 144/144/144
f 144/144/144 143/143/143 142/142/142
f 309/309/309 400/400/400 399/399/399
f 399/399/399 310/310/310 309/309/309
f 311/311/311 388/388/388 387/387/387
f 387/387/387 312/312/312 311/311/311
f 313/313/313 389/389/389 388/388/388
f 388/388/388 311/311/311 313/313/313
f 390/390/390 391/391/391 315/315/315
f 315/315/315 314/314/314 390/390/390
f 393/393/393 392/392/392 317/317/317
f 317/317/317 316/316/316 393/393/393
f 395/395/395 394/394/394 319/319/319
f 319/319/319 318/318/318 395/395/395
f 396/396/396 395/395/395 318/318/318
f 318/318/318 320/320/320 396/396/396
f 321/321/321 398/398/398 397/397/397
f 397/397/397 322/322/322 321/321/321
f 401/401/401 402/402/402 403/403/403
f 404/404/404 402/402/402 401/401/401
f 405/405/405 402/402/402 404/404/404
f 406/406/406 402/402/402 405/405/405
f 407/407/407 402/402/402 406/406/406
f 408/408/408 402/402/402 407/407/407
f 409/409/409 402/402/402 408/408/408
f 403/403/403 402/402/402 409/409/409