mtllib 2290563105.mtl
o Mesh

v -0.2865295 -0.1376635 0.03796645
v -0.0113069 -0.18171 0.1250035
v -0.2620865 -0.2029435 0.2131135
v -0.1866885 -0.0609785 -0.2903775
v -0.114843 -0.20016 -0.322069
v -0.1866885 -0.2067695 -0.291366
v -0.0113068 -0.204484 -0.3348565
v -0.01130685 -0.2703375 -0.309034
v -0.114843 -0.20016 -0.322069
v -0.287765 -0.1675005 -0.0351145
v -0.0113069 -0.2019105 -0.01213895
v -0.0113069 -0.18171 0.1250035
v -0.0113069 -0.18171 0.1250035
v -0.2865295 -0.1376635 0.03796645
v -0.287765 -0.1675005 -0.0351145
v -0.0117527 0.4556855 -0.0895455
v -0.1021655 0.449378 -0.0928415
v -0.0117528 0.423294 0.123672
v -0.01175285 0.3494175 0.273697
v -0.0117528 0.423294 0.123672
v -0.2119 0.3915845 0.1141815
v -0.2119 0.3915845 0.1141815
v -0.206501 0.317026 0.2597175
v -0.01175285 0.3494175 0.273697
v -0.1866885 -0.0609785 -0.2903775
v -0.1047735 -0.0399132 -0.309281
v -0.114843 -0.20016 -0.322069
v -0.1361485 0.3699895 -0.294523
v -0.1325115 0.271507 -0.347259
v -0.264987 0.250823 -0.3035535
v -0.264987 0.250823 -0.3035535
v -0.270215 0.3283925 -0.246101
v -0.1361485 0.3699895 -0.294523
v -0.0113067 -0.0420134 -0.3229335
v -0.0113068 -0.204484 -0.3348565
v -0.114843 -0.20016 -0.322069
v -0.114843 -0.20016 -0.322069
v -0.1047735 -0.0399132 -0.309281
v -0.0113067 -0.0420134 -0.3229335
v -0.1866885 -0.0609785 -0.2903775
v -0.287765 -0.1675005 -0.0351145
v -0.2809695 0.10174 -0.3143415
v -0.287765 -0.1675005 -0.0351145
v -0.2865295 -0.1376635 0.03796645
v -0.3250775 0.204782 -0.0665585
v -0.3250775 0.204782 -0.0665585
v -0.2809695 0.10174 -0.3143415
v -0.287765 -0.1675005 -0.0351145
v -0.2403155 -0.0631435 0.326956
v -0.2865295 -0.1376635 0.03796645
v -0.2620865 -0.2029435 0.2131135
v -0.3250775 0.204782 -0.0665585
v -0.2865295 -0.1376635 0.03796645
v -0.268033 -0.0653235 0.191469
v -0.206501 0.317026 0.2597175
v -0.2718065 0.263381 0.2014735
v -0.2592655 0.212578 0.2911025
v -0.2718065 0.263381 0.2014735
v -0.206501 0.317026 0.2597175
v -0.2119 0.3915845 0.1141815
v -0.2119 0.3915845 0.1141815
v -0.288741 0.3208345 0.0594045
v -0.2718065 0.263381 0.2014735
v -0.288741 0.3208345 0.0594045
v -0.2119 0.3915845 0.1141815
v -0.190362 0.412042 -0.090739
v -0.190362 0.412042 -0.090739
v -0.291241 0.3450995 -0.08113
v -0.288741 0.3208345 0.0594045
v -0.011307 -0.238897 0.2463315
v -0.0113069 -0.0864345 0.372416
v -0.2403155 -0.0631435 0.326956
v -0.2403155 -0.0631435 0.326956
v -0.2620865 -0.2029435 0.2131135
v -0.011307 -0.238897 0.2463315
v -0.0113067 0.230171 0.385698
v -0.01175285 0.3494175 0.273697
v -0.206501 0.317026 0.2597175
v -0.206501 0.317026 0.2597175
v -0.2592655 0.212578 0.2911025
v -0.0113067 0.230171 0.385698
v -0.1866885 -0.2339105 -0.0825635
v -0.0113069 -0.2019105 -0.01213895
v -0.287765 -0.1675005 -0.0351145
v -0.1866885 -0.2067695 -0.291366
v -0.111384 -0.2641595 -0.3006945
v -0.108851 -0.322065 -0.0946715
v -0.108851 -0.322065 -0.0946715
v -0.1866885 -0.2339105 -0.0825635
v -0.1866885 -0.2067695 -0.291366
v -0.1866885 -0.0609785 -0.2903775
v -0.1866885 -0.2067695 -0.291366
v -0.1866885 -0.2339105 -0.0825635
v -0.3250775 0.204782 -0.0665585
v -0.264987 0.250823 -0.3035535
v -0.2809695 0.10174 -0.3143415
v -0.114843 -0.20016 -0.322069
v -0.111384 -0.2641595 -0.3006945
v -0.1866885 -0.2067695 -0.291366
v -0.1047735 -0.0399132 -0.309281
v -0.0113066 0.0919165 -0.360555
v -0.0113067 -0.0420134 -0.3229335
v -0.1866885 -0.0609785 -0.2903775
v -0.2809695 0.10174 -0.3143415
v -0.1047735 -0.0399132 -0.309281
v -0.1047735 -0.0399132 -0.309281
v -0.2809695 0.10174 -0.3143415
v -0.0113066 0.0919165 -0.360555
v -0.190362 0.412042 -0.090739
v -0.1361485 0.3699895 -0.294523
v -0.270215 0.3283925 -0.246101
v -0.190362 0.412042 -0.090739
v -0.270215 0.3283925 -0.246101
v -0.291241 0.3450995 -0.08113
v -0.0117527 0.3769795 -0.313503
v -0.1361485 0.3699895 -0.294523
v -0.1021655 0.449378 -0.0928415
v -0.1021655 0.449378 -0.0928415
v -0.0117527 0.4556855 -0.0895455
v -0.0117527 0.3769795 -0.313503
v -0.2592655 0.212578 0.2911025
v -0.2718065 0.263381 0.2014735
v -0.268033 -0.0653235 0.191469
v -0.268033 -0.0653235 0.191469
v -0.2403155 -0.0631435 0.326956
v -0.2592655 0.212578 0.2911025
v -0.268033 -0.0653235 0.191469
v -0.2718065 0.263381 0.2014735
v -0.288741 0.3208345 0.0594045
v -0.288741 0.3208345 0.0594045
v -0.3250775 0.204782 -0.0665585
v -0.268033 -0.0653235 0.191469
v -0.291241 0.3450995 -0.08113
v -0.3250775 0.204782 -0.0665585
v -0.288741 0.3208345 0.0594045
v -0.0113069 -0.0864345 0.372416
v -0.0113067 0.230171 0.385698
v -0.2592655 0.212578 0.2911025
v -0.2592655 0.212578 0.2911025
v -0.2403155 -0.0631435 0.326956
v -0.0113069 -0.0864345 0.372416
v -0.291241 0.3450995 -0.08113
v -0.270215 0.3283925 -0.246101
v -0.3250775 0.204782 -0.0665585
v -0.075492 0.0955615 -0.3689565
v -0.0593685 0.103407 -0.3444315
v -0.0502875 0.053245 -0.3386245
v -0.0502875 0.053245 -0.3386245
v -0.0670285 0.0484884 -0.3635205
v -0.075492 0.0955615 -0.3689565
v -0.108727 0.1300325 -0.3638295
v -0.0948275 0.1401635 -0.3389335
v -0.0593685 0.103407 -0.3444315
v -0.0593685 0.103407 -0.3444315
v -0.075492 0.0955615 -0.3689565
v -0.108727 0.1300325 -0.3638295
v -0.153947 0.1387425 -0.350177
v -0.1430745 0.14943 -0.3243545
v -0.0948275 0.1401635 -0.3389335
v -0.0948275 0.1401635 -0.3389335
v -0.108727 0.1300325 -0.3638295
v -0.153947 0.1387425 -0.350177
v -0.1938545 0.118295 -0.3331885
v -0.1856385 0.1276235 -0.306316
v -0.1430745 0.14943 -0.3243545
v -0.1430745 0.14943 -0.3243545
v -0.153947 0.1387425 -0.350177
v -0.1938545 0.118295 -0.3331885
v -0.213314 0.0765345 -0.3194125
v -0.206333 0.083145 -0.2915515
v -0.1856385 0.1276235 -0.306316
v -0.1856385 0.1276235 -0.306316
v -0.1938545 0.118295 -0.3331885
v -0.213314 0.0765345 -0.3194125
v -0.204789 0.0294614 -0.313976
v -0.197252 0.03285935 -0.2858065
v -0.206333 0.083145 -0.2915515
v -0.206333 0.083145 -0.2915515
v -0.213314 0.0765345 -0.3194125
v -0.204789 0.0294614 -0.313976
v -0.1715535 -0.0050099 -0.319042
v -0.1618545 -0.003897905 -0.291181
v -0.197252 0.03285935 -0.2858065
v -0.197252 0.03285935 -0.2858065
v -0.204789 0.0294614 -0.313976
v -0.1715535 -0.0050099 -0.319042
v -0.126395 -0.01372025 -0.332756
v -0.1136695 -0.01316405 -0.30576
v -0.1618545 -0.003897905 -0.291181
v -0.1618545 -0.003897905 -0.291181
v -0.1715535 -0.0050099 -0.319042
v -0.126395 -0.01372025 -0.332756
v -0.1136695 -0.01316405 -0.30576
v -0.126395 -0.01372025 -0.332756
v -0.086426 0.0067277 -0.3496825
v -0.086426 0.0067277 -0.3496825
v -0.069376 0.0080867 -0.318733
v -0.1136695 -0.01316405 -0.30576
v -0.0670285 0.0484884 -0.3635205
v -0.0502875 0.053245 -0.3386245
v -0.069376 0.0080867 -0.318733
v -0.069376 0.0080867 -0.318733
v -0.086426 0.0067277 -0.3496825
v -0.0670285 0.0484884 -0.3635205
v -0.0670285 0.0484884 -0.3635205
v -0.147646 0.058805 -0.359999
v -0.075492 0.0955615 -0.3689565
v -0.075492 0.0955615 -0.3689565
v -0.147646 0.058805 -0.359999
v -0.108727 0.1300325 -0.3638295
v -0.108727 0.1300325 -0.3638295
v -0.147646 0.058805 -0.359999
v -0.153947 0.1387425 -0.350177
v -0.153947 0.1387425 -0.350177
v -0.147646 0.058805 -0.359999
v -0.1938545 0.118295 -0.3331885
v -0.1938545 0.118295 -0.3331885
v -0.147646 0.058805 -0.359999
v -0.213314 0.0765345 -0.3194125
v -0.213314 0.0765345 -0.3194125
v -0.147646 0.058805 -0.359999
v -0.204789 0.0294614 -0.313976
v -0.204789 0.0294614 -0.313976
v -0.147646 0.058805 -0.359999
v -0.1715535 -0.0050099 -0.319042
v -0.1715535 -0.0050099 -0.319042
v -0.147646 0.058805 -0.359999
v -0.126395 -0.01372025 -0.332756
v -0.126395 -0.01372025 -0.332756
v -0.147646 0.058805 -0.359999
v -0.086426 0.0067277 -0.3496825
v -0.086426 0.0067277 -0.3496825
v -0.147646 0.058805 -0.359999
v -0.0670285 0.0484884 -0.3635205
v -0.01175275 0.2719045 -0.368626
v -0.0113066 0.0919165 -0.360555
v -0.1325115 0.271507 -0.347259
v -0.0117527 0.3769795 -0.313503
v -0.01175275 0.2719045 -0.368626
v -0.1325115 0.271507 -0.347259
v -0.1325115 0.271507 -0.347259
v -0.1361485 0.3699895 -0.294523
v -0.0117527 0.3769795 -0.313503
v -0.1361485 0.3699895 -0.294523
v -0.190362 0.412042 -0.090739
v -0.1021655 0.449378 -0.0928415
v -0.1021655 0.449378 -0.0928415
v -0.190362 0.412042 -0.090739
v -0.2119 0.3915845 0.1141815
v -0.1021655 0.449378 -0.0928415
v -0.2119 0.3915845 0.1141815
v -0.0117528 0.423294 0.123672
v -0.111384 -0.2641595 -0.3006945
v -0.01130685 -0.2703375 -0.309034
v -0.01130695 -0.343439 -0.103938
v -0.01130695 -0.343439 -0.103938
v -0.108851 -0.322065 -0.0946715
v -0.111384 -0.2641595 -0.3006945
v -0.114843 -0.20016 -0.322069
v -0.01130685 -0.2703375 -0.309034
v -0.111384 -0.2641595 -0.3006945
v -0.1866885 -0.0609785 -0.2903775
v -0.1866885 -0.2339105 -0.0825635
v -0.287765 -0.1675005 -0.0351145
v -0.2809695 0.10174 -0.3143415
v -0.264987 0.250823 -0.3035535
v -0.1325115 0.271507 -0.347259
v -0.3250775 0.204782 -0.0665585
v -0.270215 0.3283925 -0.246101
v -0.264987 0.250823 -0.3035535
v -0.2403155 -0.0631435 0.326956
v -0.268033 -0.0653235 0.191469
v -0.2865295 -0.1376635 0.03796645
v -0.108851 -0.322065 -0.0946715
v -0.01130695 -0.343439 -0.103938
v -0.0113069 -0.2019105 -0.01213895
v -0.0113069 -0.2019105 -0.01213895
v -0.1866885 -0.2339105 -0.0825635
v -0.108851 -0.322065 -0.0946715
v -0.0113069 -0.18171 0.1250035
v -0.011307 -0.238897 0.2463315
v -0.2620865 -0.2029435 0.2131135
v -0.011307 -0.350049 0.0555675
v -0.011307 -0.3226205 0.121915
v -0.1380095 -0.3226205 0.1219145
v -0.1380095 -0.3226205 0.1219145
v -0.1380095 -0.350049 0.0555675
v -0.011307 -0.350049 0.0555675
v -0.011307 -0.3226205 0.121915
v -0.01130695 -0.2562735 0.1493435
v -0.1380095 -0.2562735 0.1493435
v -0.1380095 -0.2562735 0.1493435
v -0.1380095 -0.3226205 0.1219145
v -0.011307 -0.3226205 0.121915
v -0.01130695 -0.2562735 0.1493435
v -0.0113069 -0.1884435 0.1236445
v -0.1380095 -0.1899875 0.1219145
v -0.1380095 -0.1899875 0.1219145
v -0.1380095 -0.2562735 0.1493435
v -0.01130695 -0.2562735 0.1493435
v -0.0113069 -0.1884435 0.1236445
v -0.01130685 -0.1624975 0.0555675
v -0.1380095 -0.1624975 0.0555675
v -0.1380095 -0.1624975 0.0555675
v -0.1380095 -0.1899875 0.1219145
v -0.0113069 -0.1884435 0.1236445
v -0.01130685 -0.1624975 0.0555675
v -0.0113069 -0.1904815 -0.0120772
v -0.1380095 -0.1899875 -0.01071815
v -0.1380095 -0.1899875 -0.01071815
v -0.1380095 -0.1624975 0.0555675
v -0.01130685 -0.1624975 0.0555675
v -0.0113069 -0.1904815 -0.0120772
v -0.0113069 -0.2562735 -0.03820845
v -0.1380095 -0.2562735 -0.03820845
v -0.1380095 -0.2562735 -0.03820845
v -0.1380095 -0.1899875 -0.01071815
v -0.0113069 -0.1904815 -0.0120772
v -0.0113069 -0.2562735 -0.03820845
v -0.01130695 -0.3226205 -0.01071815
v -0.1380095 -0.3226205 -0.01071815
v -0.1380095 -0.3226205 -0.01071815
v -0.1380095 -0.2562735 -0.03820845
v -0.0113069 -0.2562735 -0.03820845
v -0.01130695 -0.3226205 -0.01071815
v -0.011307 -0.350049 0.0555675
v -0.1380095 -0.350049 0.0555675
v -0.1380095 -0.350049 0.0555675
v -0.1380095 -0.3226205 -0.01071815
v -0.01130695 -0.3226205 -0.01071815
v -0.1380095 -0.350049 0.0555675
v -0.1380095 -0.3226205 0.1219145
v -0.1380095 -0.2562735 0.0555675
v -0.1380095 -0.3226205 0.1219145
v -0.1380095 -0.2562735 0.1493435
v -0.1380095 -0.2562735 0.0555675
v -0.1380095 -0.2562735 0.1493435
v -0.1380095 -0.1899875 0.1219145
v -0.1380095 -0.2562735 0.0555675
v -0.1380095 -0.1899875 0.1219145
v -0.1380095 -0.1624975 0.0555675
v -0.1380095 -0.2562735 0.0555675
v -0.1380095 -0.1624975 0.0555675
v -0.1380095 -0.1899875 -0.01071815
v -0.1380095 -0.2562735 0.0555675
v -0.1380095 -0.1899875 -0.01071815
v -0.1380095 -0.2562735 -0.03820845
v -0.1380095 -0.2562735 0.0555675
v -0.1380095 -0.2562735 -0.03820845
v -0.1380095 -0.3226205 -0.01071815
v -0.1380095 -0.2562735 0.0555675
v -0.1380095 -0.3226205 -0.01071815
v -0.1380095 -0.350049 0.0555675
v -0.1380095 -0.2562735 0.0555675
v -0.095569 0.0991445 -0.376864
v -0.082102 0.103407 -0.331706
v -0.0701175 0.0581255 -0.3287405
v -0.0701175 0.0581255 -0.3287405
v -0.083214 0.062326 -0.378532
v -0.095569 0.0991445 -0.376864
v -0.126642 0.121569 -0.3711805
v -0.115893 0.1278705 -0.3255285
v -0.082102 0.103407 -0.331706
v -0.082102 0.103407 -0.331706
v -0.095569 0.0991445 -0.376864
v -0.126642 0.121569 -0.3711805
v -0.16482 0.1211985 -0.363582
v -0.157345 0.127376 -0.3172505
v -0.115893 0.1278705 -0.3255285
v -0.115893 0.1278705 -0.3255285
v -0.126642 0.121569 -0.3711805
v -0.16482 0.1211985 -0.363582
v -0.1952135 0.0980325 -0.357034
v -0.190395 0.10211 -0.3100845
v -0.157345 0.127376 -0.3172505
v -0.157345 0.127376 -0.3172505
v -0.16482 0.1211985 -0.363582
v -0.1952135 0.0980325 -0.357034
v -0.206457 0.060967 -0.353945
v -0.2026265 0.061832 -0.30681
v -0.190395 0.10211 -0.3100845
v -0.190395 0.10211 -0.3100845
v -0.1952135 0.0980325 -0.357034
v -0.206457 0.060967 -0.353945
v -0.1941635 0.0241487 -0.355613
v -0.1892215 0.021863 -0.3086015
v -0.2026265 0.061832 -0.30681
v -0.2026265 0.061832 -0.30681
v -0.206457 0.060967 -0.353945
v -0.1941635 0.0241487 -0.355613
v -0.1629665 0.001662015 -0.3613585
v -0.1553065 -0.00253868 -0.314779
v -0.1892215 0.021863 -0.3086015
v -0.1892215 0.021863 -0.3086015
v -0.1941635 0.0241487 -0.355613
v -0.1629665 0.001662015 -0.3613585
v -0.1249125 0.00215626 -0.3689565
v -0.1139165 -0.00210619 -0.323057
v -0.1553065 -0.00253868 -0.314779
v -0.1553065 -0.00253868 -0.314779
v -0.1629665 0.001662015 -0.3613585
v -0.1249125 0.00215626 -0.3689565
v -0.0943955 0.0253222 -0.375505
v -0.0808665 0.02309845 -0.330223
v -0.1139165 -0.00210619 -0.323057
v -0.1139165 -0.00210619 -0.323057
v -0.1249125 0.00215626 -0.3689565
v -0.0943955 0.0253222 -0.375505
v -0.083214 0.062326 -0.378532
v -0.0701175 0.0581255 -0.3287405
v -0.0808665 0.02309845 -0.330223
v -0.0808665 0.02309845 -0.330223
v -0.0943955 0.0253222 -0.375505
v -0.083214 0.062326 -0.378532
v -0.083214 0.062326 -0.378532
v -0.1486965 0.061276 -0.385698
v -0.095569 0.0991445 -0.376864
v -0.095569 0.0991445 -0.376864
v -0.1486965 0.061276 -0.385698
v -0.126642 0.121569 -0.3711805
v -0.126642 0.121569 -0.3711805
v -0.1486965 0.061276 -0.385698
v -0.16482 0.1211985 -0.363582
v -0.16482 0.1211985 -0.363582
v -0.1486965 0.061276 -0.385698
v -0.1952135 0.0980325 -0.357034
v -0.1952135 0.0980325 -0.357034
v -0.1486965 0.061276 -0.385698
v -0.206457 0.060967 -0.353945
v -0.206457 0.060967 -0.353945
v -0.1486965 0.061276 -0.385698
v -0.1941635 0.0241487 -0.355613
v -0.1941635 0.0241487 -0.355613
v -0.1486965 0.061276 -0.385698
v -0.1629665 0.001662015 -0.3613585
v -0.1629665 0.001662015 -0.3613585
v -0.1486965 0.061276 -0.385698
v -0.1249125 0.00215626 -0.3689565
v -0.1249125 0.00215626 -0.3689565
v -0.1486965 0.061276 -0.385698
v -0.0943955 0.0253222 -0.375505
v -0.0943955 0.0253222 -0.375505
v -0.1486965 0.061276 -0.385698
v -0.083214 0.062326 -0.378532
v -0.2809695 0.10174 -0.3143415
v -0.1325115 0.271507 -0.347259
v -0.0113066 0.0919165 -0.360555
v 0.2865295 -0.137664 0.075312
v 0.2247535 -0.202944 0.2678675
v -0.0113069 -0.18171 0.1250035
v 0.2154255 -0.0609785 -0.2664325
v 0.2154255 -0.20677 -0.267421
v 0.0922295 -0.20016 -0.3220685
v -0.0113068 -0.204484 -0.3348565
v 0.0922295 -0.20016 -0.3220685
v -0.01130685 -0.2703375 -0.309034
v 0.287765 -0.167501 0.0022308
v 0.2865295 -0.137664 0.075312
v -0.0113069 -0.18171 0.1250035
v -0.0113069 -0.18171 0.1250035
v -0.0113069 -0.2019105 -0.01213895
v 0.287765 -0.167501 0.0022308
v -0.0117527 0.4556855 -0.0895455
v -0.0117528 0.423294 0.123672
v 0.07866 0.449378 -0.0928415
v -0.01175285 0.3494175 0.273697
v 0.1829955 0.317026 0.2597175
v 0.188394 0.391584 0.1141815
v 0.188394 0.391584 0.1141815
v -0.0117528 0.423294 0.123672
v -0.01175285 0.3494175 0.273697
v 0.2154255 -0.0609785 -0.2664325
v 0.0922295 -0.20016 -0.3220685
v 0.0821605 -0.0399132 -0.309281
v 0.112643 0.3699895 -0.2945225
v 0.2675115 0.328392 -0.211747
v 0.2622835 0.2508225 -0.2692
v 0.2622835 0.2508225 -0.2692
v 0.109006 0.271507 -0.347259
v 0.112643 0.3699895 -0.2945225
v -0.0113067 -0.0420134 -0.3229335
v 0.0821605 -0.0399132 -0.309281
v 0.0922295 -0.20016 -0.3220685
v 0.0922295 -0.20016 -0.3220685
v -0.0113068 -0.204484 -0.3348565
v -0.0113067 -0.0420134 -0.3229335
v 0.2154255 -0.0609785 -0.2664325
v 0.2809695 0.101739 -0.2769965
v 0.287765 -0.167501 0.0022308
v 0.287765 -0.167501 0.0022308
v 0.2809695 0.101739 -0.2769965
v 0.3250775 0.2047815 -0.0292131
v 0.3250775 0.2047815 -0.0292131
v 0.2865295 -0.137664 0.075312
v 0.287765 -0.167501 0.0022308
v 0.254097 -0.0631445 0.357875
v 0.2247535 -0.202944 0.2678675
v 0.2865295 -0.137664 0.075312
v 0.3250775 0.2047815 -0.0292131
v 0.319147 -0.065324 0.2049795
v 0.2865295 -0.137664 0.075312
v 0.1829955 0.317026 0.2597175
v 0.2430395 0.2365345 0.376037
v 0.2691025 0.263381 0.2358275
v 0.2691025 0.263381 0.2358275
v 0.2860375 0.320834 0.0937585
v 0.188394 0.391584 0.1141815
v 0.188394 0.391584 0.1141815
v 0.1829955 0.317026 0.2597175
v 0.2691025 0.263381 0.2358275
v 0.2860375 0.320834 0.0937585
v 0.288538 0.345099 -0.04677625
v 0.1668565 0.412042 -0.090739
v 0.1668565 0.412042 -0.090739
v 0.188394 0.391584 0.1141815
v 0.2860375 0.320834 0.0937585
v -0.011307 -0.238897 0.2463315
v 0.2247535 -0.202944 0.2678675
v 0.254097 -0.0631445 0.357875
v 0.254097 -0.0631445 0.357875
v -0.0113069 -0.0864345 0.372416
v -0.011307 -0.238897 0.2463315
v -0.0113067 0.230171 0.385698
v 0.2430395 0.2365345 0.376037
v 0.1829955 0.317026 0.2597175
v 0.1829955 0.317026 0.2597175
v -0.01175285 0.3494175 0.273697
v -0.0113067 0.230171 0.385698
v 0.215425 -0.2339105 -0.0586185
v 0.287765 -0.167501 0.0022308
v -0.0113069 -0.2019105 -0.01213895
v 0.2154255 -0.20677 -0.267421
v 0.215425 -0.2339105 -0.0586185
v 0.1375875 -0.322065 -0.0707265
v 0.1375875 -0.322065 -0.0707265
v 0.1401205 -0.2641595 -0.2767495
v 0.2154255 -0.20677 -0.267421
v 0.2154255 -0.0609785 -0.2664325
v 0.215425 -0.2339105 -0.0586185
v 0.2154255 -0.20677 -0.267421
v 0.3250775 0.2047815 -0.0292131
v 0.2809695 0.101739 -0.2769965
v 0.2622835 0.2508225 -0.2692
v 0.0922295 -0.20016 -0.3220685
v 0.2154255 -0.20677 -0.267421
v 0.1401205 -0.2641595 -0.2767495
v 0.0821605 -0.0399132 -0.309281
v -0.0113067 -0.0420134 -0.3229335
v -0.0113066 0.0919165 -0.360555
v 0.2154255 -0.0609785 -0.2664325
v 0.0821605 -0.0399132 -0.309281
v 0.2809695 0.101739 -0.2769965
v 0.0821605 -0.0399132 -0.309281
v -0.0113066 0.0919165 -0.360555
v 0.2809695 0.101739 -0.2769965
v 0.1668565 0.412042 -0.090739
v 0.2675115 0.328392 -0.211747
v 0.112643 0.3699895 -0.2945225
v 0.1668565 0.412042 -0.090739
v 0.288538 0.345099 -0.04677625
v 0.2675115 0.328392 -0.211747
v -0.0117527 0.3769795 -0.313503
v -0.0117527 0.4556855 -0.0895455
v 0.07866 0.449378 -0.0928415
v 0.07866 0.449378 -0.0928415
v 0.112643 0.3699895 -0.2945225
v -0.0117527 0.3769795 -0.313503
v 0.2430395 0.2365345 0.376037
v 0.254097 -0.0631445 0.357875
v 0.319147 -0.065324 0.2049795
v 0.319147 -0.065324 0.2049795
v 0.2691025 0.263381 0.2358275
v 0.2430395 0.2365345 0.376037
v 0.319147 -0.065324 0.2049795
v 0.3250775 0.2047815 -0.0292131
v 0.2860375 0.320834 0.0937585
v 0.2860375 0.320834 0.0937585
v 0.2691025 0.263381 0.2358275
v 0.319147 -0.065324 0.2049795
v 0.288538 0.345099 -0.04677625
v 0.2860375 0.320834 0.0937585
v 0.3250775 0.2047815 -0.0292131
v -0.0113069 -0.0864345 0.372416
v 0.254097 -0.0631445 0.357875
v 0.2430395 0.2365345 0.376037
v 0.2430395 0.2365345 0.376037
v -0.0113067 0.230171 0.385698
v -0.0113069 -0.0864345 0.372416
v 0.288538 0.345099 -0.04677625
v 0.3250775 0.2047815 -0.0292131
v 0.2675115 0.328392 -0.211747
v 0.0528785 0.0955615 -0.3689565
v 0.04441525 0.0484884 -0.3635205
v 0.02767395 0.053245 -0.3386245
v 0.02767395 0.053245 -0.3386245
v 0.03675505 0.103407 -0.3444315
v 0.0528785 0.0955615 -0.3689565
v 0.086114 0.1300325 -0.3638295
v 0.0528785 0.0955615 -0.3689565
v 0.03675505 0.103407 -0.3444315
v 0.03675505 0.103407 -0.3444315
v 0.0722145 0.1401635 -0.3389335
v 0.086114 0.1300325 -0.3638295
v 0.131334 0.1387425 -0.350177
v 0.086114 0.1300325 -0.3638295
v 0.0722145 0.1401635 -0.3389335
v 0.0722145 0.1401635 -0.3389335
v 0.1204615 0.14943 -0.3243545
v 0.131334 0.1387425 -0.350177
v 0.1712415 0.118295 -0.3331885
v 0.131334 0.1387425 -0.350177
v 0.1204615 0.14943 -0.3243545
v 0.1204615 0.14943 -0.3243545
v 0.163025 0.1276235 -0.306316
v 0.1712415 0.118295 -0.3331885
v 0.1907005 0.0765345 -0.3194125
v 0.1712415 0.118295 -0.3331885
v 0.163025 0.1276235 -0.306316
v 0.163025 0.1276235 -0.306316
v 0.18372 0.0831445 -0.2915515
v 0.1907005 0.0765345 -0.3194125
v 0.1821755 0.02946115 -0.313976
v 0.1907005 0.0765345 -0.3194125
v 0.18372 0.0831445 -0.2915515
v 0.18372 0.0831445 -0.2915515
v 0.174639 0.0328591 -0.285806
v 0.1821755 0.02946115 -0.313976
v 0.14894 -0.0050099 -0.3190415
v 0.1821755 0.02946115 -0.313976
v 0.174639 0.0328591 -0.285806
v 0.174639 0.0328591 -0.285806
v 0.139241 -0.003897905 -0.291181
v 0.14894 -0.0050099 -0.3190415
v 0.103782 -0.01372025 -0.332756
v 0.14894 -0.0050099 -0.3190415
v 0.139241 -0.003897905 -0.291181
v 0.139241 -0.003897905 -0.291181
v 0.091056 -0.01316405 -0.30576
v 0.103782 -0.01372025 -0.332756
v 0.091056 -0.01316405 -0.30576
v 0.0467627 0.0080867 -0.318733
v 0.063813 0.0067277 -0.3496825
v 0.063813 0.0067277 -0.3496825
v 0.103782 -0.01372025 -0.332756
v 0.091056 -0.01316405 -0.30576
v 0.04441525 0.0484884 -0.3635205
v 0.063813 0.0067277 -0.3496825
v 0.0467627 0.0080867 -0.318733
v 0.0467627 0.0080867 -0.318733
v 0.02767395 0.053245 -0.3386245
v 0.04441525 0.0484884 -0.3635205
v 0.04441525 0.0484884 -0.3635205
v 0.0528785 0.0955615 -0.3689565
v 0.125033 0.058805 -0.359999
v 0.0528785 0.0955615 -0.3689565
v 0.086114 0.1300325 -0.3638295
v 0.125033 0.058805 -0.359999
v 0.086114 0.1300325 -0.3638295
v 0.131334 0.1387425 -0.350177
v 0.125033 0.058805 -0.359999
v 0.131334 0.1387425 -0.350177
v 0.1712415 0.118295 -0.3331885
v 0.125033 0.058805 -0.359999
v 0.1712415 0.118295 -0.3331885
v 0.1907005 0.0765345 -0.3194125
v 0.125033 0.058805 -0.359999
v 0.1907005 0.0765345 -0.3194125
v 0.1821755 0.02946115 -0.313976
v 0.125033 0.058805 -0.359999
v 0.1821755 0.02946115 -0.313976
v 0.14894 -0.0050099 -0.3190415
v 0.125033 0.058805 -0.359999
v 0.14894 -0.0050099 -0.3190415
v 0.103782 -0.01372025 -0.332756
v 0.125033 0.058805 -0.359999
v 0.103782 -0.01372025 -0.332756
v 0.063813 0.0067277 -0.3496825
v 0.125033 0.058805 -0.359999
v 0.063813 0.0067277 -0.3496825
v 0.04441525 0.0484884 -0.3635205
v 0.125033 0.058805 -0.359999
v -0.01175275 0.2719045 -0.368626
v 0.109006 0.271507 -0.347259
v -0.0113066 0.0919165 -0.360555
v -0.0117527 0.3769795 -0.313503
v 0.112643 0.3699895 -0.2945225
v 0.109006 0.271507 -0.347259
v 0.109006 0.271507 -0.347259
v -0.01175275 0.2719045 -0.368626
v -0.0117527 0.3769795 -0.313503
v 0.112643 0.3699895 -0.2945225
v 0.07866 0.449378 -0.0928415
v 0.1668565 0.412042 -0.090739
v 0.07866 0.449378 -0.0928415
v 0.188394 0.391584 0.1141815
v 0.1668565 0.412042 -0.090739
v 0.07866 0.449378 -0.0928415
v -0.0117528 0.423294 0.123672
v 0.188394 0.391584 0.1141815
v 0.1401205 -0.2641595 -0.2767495
v 0.1375875 -0.322065 -0.0707265
v -0.01130695 -0.343439 -0.103938
v -0.01130695 -0.343439 -0.103938
v -0.01130685 -0.2703375 -0.309034
v 0.1401205 -0.2641595 -0.2767495
v 0.0922295 -0.20016 -0.3220685
v 0.1401205 -0.2641595 -0.2767495
v -0.01130685 -0.2703375 -0.309034
v 0.2154255 -0.0609785 -0.2664325
v 0.287765 -0.167501 0.0022308
v 0.215425 -0.2339105 -0.0586185
v 0.2809695 0.101739 -0.2769965
v 0.109006 0.271507 -0.347259
v 0.2622835 0.2508225 -0.2692
v 0.3250775 0.2047815 -0.0292131
v 0.2622835 0.2508225 -0.2692
v 0.2675115 0.328392 -0.211747
v 0.254097 -0.0631445 0.357875
v 0.2865295 -0.137664 0.075312
v 0.319147 -0.065324 0.2049795
v 0.1375875 -0.322065 -0.0707265
v 0.215425 -0.2339105 -0.0586185
v -0.0113069 -0.2019105 -0.01213895
v -0.0113069 -0.2019105 -0.01213895
v -0.01130695 -0.343439 -0.103938
v 0.1375875 -0.322065 -0.0707265
v -0.0113069 -0.18171 0.1250035
v 0.2247535 -0.202944 0.2678675
v -0.011307 -0.238897 0.2463315
v -0.011307 -0.350049 0.0555675
v 0.1667455 -0.3500485 0.0795125
v 0.1667455 -0.32262 0.14586
v 0.1667455 -0.32262 0.14586
v -0.011307 -0.3226205 0.121915
v -0.011307 -0.350049 0.0555675
v -0.011307 -0.3226205 0.121915
v 0.1667455 -0.32262 0.14586
v 0.1667455 -0.2562735 0.1732885
v 0.1667455 -0.2562735 0.1732885
v -0.01130695 -0.2562735 0.1493435
v -0.011307 -0.3226205 0.121915
v -0.01130695 -0.2562735 0.1493435
v 0.1667455 -0.2562735 0.1732885
v 0.1667455 -0.189987 0.14586
v 0.1667455 -0.189987 0.14586
v -0.0113069 -0.1884435 0.1236445
v -0.01130695 -0.2562735 0.1493435
v -0.0113069 -0.1884435 0.1236445
v 0.1667455 -0.189987 0.14586
v 0.166746 -0.1624965 0.0795125
v 0.166746 -0.1624965 0.0795125
v -0.01130685 -0.1624975 0.0555675
v -0.0113069 -0.1884435 0.1236445
v -0.01130685 -0.1624975 0.0555675
v 0.166746 -0.1624965 0.0795125
v 0.166746 -0.189987 0.0132269
v 0.166746 -0.189987 0.0132269
v -0.0113069 -0.1904815 -0.0120772
v -0.01130685 -0.1624975 0.0555675
v -0.0113069 -0.1904815 -0.0120772
v 0.166746 -0.189987 0.0132269
v 0.1667455 -0.2562735 -0.01426335
v 0.1667455 -0.2562735 -0.01426335
v -0.0113069 -0.2562735 -0.03820845
v -0.0113069 -0.1904815 -0.0120772
v -0.0113069 -0.2562735 -0.03820845
v 0.1667455 -0.2562735 -0.01426335
v 0.1667455 -0.32262 0.0132269
v 0.1667455 -0.32262 0.0132269
v -0.01130695 -0.3226205 -0.01071815
v -0.0113069 -0.2562735 -0.03820845
v -0.01130695 -0.3226205 -0.01071815
v 0.1667455 -0.32262 0.0132269
v 0.1667455 -0.3500485 0.0795125
v 0.1667455 -0.3500485 0.0795125
v -0.011307 -0.350049 0.0555675
v -0.01130695 -0.3226205 -0.01071815
v 0.1667455 -0.3500485 0.0795125
v 0.1667455 -0.2562735 0.0795125
v 0.1667455 -0.32262 0.14586
v 0.1667455 -0.32262 0.14586
v 0.1667455 -0.2562735 0.0795125
v 0.1667455 -0.2562735 0.1732885
v 0.1667455 -0.2562735 0.1732885
v 0.1667455 -0.2562735 0.0795125
v 0.1667455 -0.189987 0.14586
v 0.1667455 -0.189987 0.14586
v 0.1667455 -0.2562735 0.0795125
v 0.166746 -0.1624965 0.0795125
v 0.166746 -0.1624965 0.0795125
v 0.1667455 -0.2562735 0.0795125
v 0.166746 -0.189987 0.0132269
v 0.166746 -0.189987 0.0132269
v 0.1667455 -0.2562735 0.0795125
v 0.1667455 -0.2562735 -0.01426335
v 0.1667455 -0.2562735 -0.01426335
v 0.1667455 -0.2562735 0.0795125
v 0.1667455 -0.32262 0.0132269
v 0.1667455 -0.32262 0.0132269
v 0.1667455 -0.2562735 0.0795125
v 0.1667455 -0.3500485 0.0795125
v 0.072956 0.0991445 -0.376864
v 0.0606005 0.062326 -0.378532
v 0.04750405 0.0581255 -0.3287405
v 0.04750405 0.0581255 -0.3287405
v 0.0594885 0.103407 -0.331706
v 0.072956 0.0991445 -0.376864
v 0.104029 0.121569 -0.3711805
v 0.072956 0.0991445 -0.376864
v 0.0594885 0.103407 -0.331706
v 0.0594885 0.103407 -0.331706
v 0.09328 0.1278705 -0.325528
v 0.104029 0.121569 -0.3711805
v 0.1422065 0.1211985 -0.363582
v 0.104029 0.121569 -0.3711805
v 0.09328 0.1278705 -0.325528
v 0.09328 0.1278705 -0.325528
v 0.1347315 0.127376 -0.31725
v 0.1422065 0.1211985 -0.363582
v 0.1726005 0.0980325 -0.357034
v 0.1422065 0.1211985 -0.363582
v 0.1347315 0.127376 -0.31725
v 0.1347315 0.127376 -0.31725
v 0.167782 0.1021095 -0.310084
v 0.1726005 0.0980325 -0.357034
v 0.1838435 0.060967 -0.353945
v 0.1726005 0.0980325 -0.357034
v 0.167782 0.1021095 -0.310084
v 0.167782 0.1021095 -0.310084
v 0.1800135 0.0618315 -0.30681
v 0.1838435 0.060967 -0.353945
v 0.17155 0.02414845 -0.355613
v 0.1838435 0.060967 -0.353945
v 0.1800135 0.0618315 -0.30681
v 0.1800135 0.0618315 -0.30681
v 0.166608 0.02186275 -0.3086015
v 0.17155 0.02414845 -0.355613
v 0.140353 0.001662015 -0.361358
v 0.17155 0.02414845 -0.355613
v 0.166608 0.02186275 -0.3086015
v 0.166608 0.02186275 -0.3086015
v 0.132693 -0.00253868 -0.314779
v 0.140353 0.001662015 -0.361358
v 0.1022995 0.00215626 -0.3689565
v 0.140353 0.001662015 -0.361358
v 0.132693 -0.00253868 -0.314779
v 0.132693 -0.00253868 -0.314779
v 0.091303 -0.00210619 -0.323057
v 0.1022995 0.00215626 -0.3689565
v 0.071782 0.0253222 -0.375505
v 0.1022995 0.00215626 -0.3689565
v 0.091303 -0.00210619 -0.323057
v 0.091303 -0.00210619 -0.323057
v 0.058253 0.02309845 -0.330223
v 0.071782 0.0253222 -0.375505
v 0.0606005 0.062326 -0.378532
v 0.071782 0.0253222 -0.375505
v 0.058253 0.02309845 -0.330223
v 0.058253 0.02309845 -0.330223
v 0.04750405 0.0581255 -0.3287405
v 0.0606005 0.062326 -0.378532
v 0.0606005 0.062326 -0.378532
v 0.072956 0.0991445 -0.376864
v 0.126083 0.061276 -0.385698
v 0.072956 0.0991445 -0.376864
v 0.104029 0.121569 -0.3711805
v 0.126083 0.061276 -0.385698
v 0.104029 0.121569 -0.3711805
v 0.1422065 0.1211985 -0.363582
v 0.126083 0.061276 -0.385698
v 0.1422065 0.1211985 -0.363582
v 0.1726005 0.0980325 -0.357034
v 0.126083 0.061276 -0.385698
v 0.1726005 0.0980325 -0.357034
v 0.1838435 0.060967 -0.353945
v 0.126083 0.061276 -0.385698
v 0.1838435 0.060967 -0.353945
v 0.17155 0.02414845 -0.355613
v 0.126083 0.061276 -0.385698
v 0.17155 0.02414845 -0.355613
v 0.140353 0.001662015 -0.361358
v 0.126083 0.061276 -0.385698
v 0.140353 0.001662015 -0.361358
v 0.1022995 0.00215626 -0.3689565
v 0.126083 0.061276 -0.385698
v 0.1022995 0.00215626 -0.3689565
v 0.071782 0.0253222 -0.375505
v 0.126083 0.061276 -0.385698
v 0.071782 0.0253222 -0.375505
v 0.0606005 0.062326 -0.378532
v 0.126083 0.061276 -0.385698
v -0.0113066 0.0919165 -0.360555
v 0.109006 0.271507 -0.347259
v 0.2809695 0.101739 -0.2769965
v 0.1293095 -0.443701 0.1630955
v -0.1005735 -0.4437015 0.13915
v -0.1005735 -0.455686 0.0711965
v -0.1005735 -0.455686 0.0711965
v 0.1293095 -0.4556855 0.095142
v 0.1293095 -0.443701 0.1630955
v 0.1293095 -0.1999945 0.120161
v 0.1293095 -0.211979 0.0521455
v -0.100573 -0.21198 0.0282007
v -0.100573 -0.21198 0.0282007
v -0.100573 -0.1999955 0.096216
v 0.1293095 -0.1999945 0.120161
v -0.100573 -0.1999955 0.096216
v -0.100573 -0.21198 0.0282007
v -0.1005735 -0.455686 0.0711965
v -0.1005735 -0.455686 0.0711965
v -0.1005735 -0.4437015 0.13915
v -0.100573 -0.1999955 0.096216
v 0.1293095 -0.1999945 0.120161
v -0.100573 -0.1999955 0.096216
v -0.1005735 -0.4437015 0.13915
v -0.1005735 -0.4437015 0.13915
v 0.1293095 -0.443701 0.1630955
v 0.1293095 -0.1999945 0.120161
v 0.1293095 -0.211979 0.0521455
v 0.1293095 -0.1999945 0.120161
v 0.1293095 -0.443701 0.1630955
v 0.1293095 -0.443701 0.1630955
v 0.1293095 -0.4556855 0.095142
v 0.1293095 -0.211979 0.0521455
v -0.100573 -0.21198 0.0282007
v 0.1293095 -0.211979 0.0521455
v 0.1293095 -0.4556855 0.095142
v 0.1293095 -0.4556855 0.095142
v -0.1005735 -0.455686 0.0711965
v -0.100573 -0.21198 0.0282007

vn -0.232701 -0.9493 0.2114
vn -6.34424e-07 -1.0 0.0009
vn -0.159101 -0.9803 -0.1172
vn -0.6717 -0.1747 -0.7199
vn -0.2399 -0.129 -0.9622
vn -0.7358 -0.0768995 -0.6728
vn 1.41484e-07 -0.1528 -0.9883
vn 0.0 -0.3494 -0.937
vn -0.2399 -0.129 -0.9622
vn -0.199301 -0.88 0.4311
vn -6.63258e-07 -0.8386 0.5448
vn -6.34424e-07 -1.0 0.0009
vn -6.34424e-07 -1.0 0.0009
vn -0.232701 -0.9493 0.2114
vn -0.199301 -0.88 0.4311
vn 6.52758e-07 0.9962 -0.0869
vn -0.209899 0.9727 -0.0988001
vn 5.27189e-07 0.95 0.3122
vn 2.93214e-07 0.7245 0.6893
vn 5.27189e-07 0.95 0.3122
vn -0.56 0.7908 0.2468
vn -0.56 0.7908 0.2468
vn -0.5443 0.585 0.6012
vn 2.93214e-07 0.7245 0.6893
vn -0.6717 -0.1747 -0.7199
vn -0.1968 -0.0682999 -0.9781
vn -0.2399 -0.129 -0.9622
vn -0.331599 0.7154 -0.615
vn -0.3136 0.1591 -0.9361
vn -0.7873 0.1213 -0.6045
vn -0.7873 0.1213 -0.6045
vn -0.8087 0.468101 -0.3561
vn -0.331599 0.7154 -0.615
vn 1.80259e-07 -0.0944 -0.9955
vn 1.41484e-07 -0.1528 -0.9883
vn -0.2399 -0.129 -0.9622
vn -0.2399 -0.129 -0.9622
vn -0.1968 -0.0682999 -0.9781
vn 1.80259e-07 -0.0944 -0.9955
vn -0.6717 -0.1747 -0.7199
vn -0.9492 -0.285499 -0.1322
vn -0.7493 -0.1958 -0.6327
vn -0.9492 -0.285499 -0.1322
vn -0.9884 -0.148599 -0.0318002
vn -0.998 -0.0264994 -0.0581002
vn -0.998 -0.0264994 -0.0581002
vn -0.7493 -0.1958 -0.6327
vn -0.9492 -0.285499 -0.1322
vn -0.7898 -0.5341 0.3015
vn -0.7518 -0.5792 0.315
vn -0.9073 -0.344999 0.2403
vn -0.998 -0.0264994 -0.0581002
vn -0.9884 -0.148599 -0.0318002
vn -0.9923 -0.0529994 0.1117
vn -0.5443 0.585 0.6012
vn -0.9322 0.192001 0.3068
vn -0.549 0.1731 0.8177
vn -0.9322 0.192001 0.3068
vn -0.5443 0.585 0.6012
vn -0.56 0.7908 0.2468
vn -0.56 0.7908 0.2468
vn -0.9371 0.332201 0.1073
vn -0.9322 0.192001 0.3068
vn -0.9371 0.332201 0.1073
vn -0.56 0.7908 0.2468
vn -0.532599 0.8405 -0.0995001
vn -0.532599 0.8405 -0.0995001
vn -0.8921 0.451301 -0.0204002
vn -0.9371 0.332201 0.1073
vn -5.76214e-07 -0.606 0.7955
vn -4.62713e-07 -0.3774 0.926
vn -0.5417 -0.2205 0.8111
vn -0.5417 -0.2205 0.8111
vn -0.118701 -0.555 0.8234
vn -5.76214e-07 -0.606 0.7955
vn 0.0 0.2062 0.9785
vn 2.93214e-07 0.7245 0.6893
vn -0.5443 0.585 0.6012
vn -0.5443 0.585 0.6012
vn -0.549 0.1731 0.8177
vn 0.0 0.2062 0.9785
vn -0.192401 -0.6199 0.7607
vn -6.63258e-07 -0.8386 0.5448
vn -0.199301 -0.88 0.4311
vn -0.6481 -0.7594 0.0570998
vn -0.353901 -0.9353 0.00109991
vn -0.493701 -0.867 0.0666999
vn -0.493701 -0.867 0.0666999
vn -0.7366 -0.6662 0.1166
vn -0.6481 -0.7594 0.0570998
vn -0.6717 -0.1747 -0.7199
vn -0.7358 -0.0768995 -0.6728
vn -0.8722 -0.432899 -0.2276
vn -0.998 -0.0264994 -0.0581002
vn -0.7873 0.1213 -0.6045
vn -0.7493 -0.1958 -0.6327
vn -0.2399 -0.129 -0.9622
vn -0.1911 -0.3201 -0.9279
vn -0.7358 -0.0768995 -0.6728
vn -0.1968 -0.0682999 -0.9781
vn 0.0 -0.213 -0.977
vn 1.80259e-07 -0.0944 -0.9955
vn -0.6717 -0.1747 -0.7199
vn -0.7493 -0.1958 -0.6327
vn -0.1968 -0.0682999 -0.9781
vn -0.1968 -0.0682999 -0.9781
vn -0.7493 -0.1958 -0.6327
vn 0.0 -0.213 -0.977
vn -0.532599 0.8405 -0.0995001
vn -0.331599 0.7154 -0.615
vn -0.8087 0.468101 -0.3561
vn -0.532599 0.8405 -0.0995001
vn -0.8087 0.468101 -0.3561
vn -0.8921 0.451301 -0.0204002
vn 6.31882e-07 0.7409 -0.6716
vn -0.331599 0.7154 -0.615
vn -0.209899 0.9727 -0.0988001
vn -0.209899 0.9727 -0.0988001
vn 6.52758e-07 0.9962 -0.0869
vn 6.31882e-07 0.7409 -0.6716
vn -0.549 0.1731 0.8177
vn -0.9322 0.192001 0.3068
vn -0.9923 -0.0529994 0.1117
vn -0.9923 -0.0529994 0.1117
vn -0.5417 -0.2205 0.8111
vn -0.549 0.1731 0.8177
vn -0.9923 -0.0529994 0.1117
vn -0.9322 0.192001 0.3068
vn -0.9371 0.332201 0.1073
vn -0.9371 0.332201 0.1073
vn -0.998 -0.0264994 -0.0581002
vn -0.9923 -0.0529994 0.1117
vn -0.8921 0.451301 -0.0204002
vn -0.998 -0.0264994 -0.0581002
vn -0.9371 0.332201 0.1073
vn -4.62713e-07 -0.3774 0.926
vn 0.0 0.2062 0.9785
vn -0.549 0.1731 0.8177
vn -0.549 0.1731 0.8177
vn -0.5417 -0.2205 0.8111
vn -4.62713e-07 -0.3774 0.926
vn -0.8921 0.451301 -0.0204002
vn -0.8087 0.468101 -0.3561
vn -0.998 -0.0264994 -0.0581002
vn 0.7181 0.3686 -0.5904
vn 0.7206 0.3639 -0.5901
vn 0.8281 -0.222401 -0.5145
vn 0.8281 -0.222401 -0.5145
vn 0.8296 -0.226501 -0.5104
vn 0.7181 0.3686 -0.5904
vn 0.308201 0.8085 -0.5013
vn 0.329701 0.7959 -0.5078
vn 0.7206 0.3639 -0.5901
vn 0.7206 0.3639 -0.5901
vn 0.7181 0.3686 -0.5904
vn 0.308201 0.8085 -0.5013
vn -0.249899 0.9274 -0.2783
vn -0.215899 0.9311 -0.294
vn 0.329701 0.7959 -0.5078
vn 0.329701 0.7959 -0.5078
vn 0.308201 0.8085 -0.5013
vn -0.249899 0.9274 -0.2783
vn -0.7382 0.6746 -0.00690018
vn -0.716 0.6978 -0.0220002
vn -0.215899 0.9311 -0.294
vn -0.215899 0.9311 -0.294
vn -0.249899 0.9274 -0.2783
vn -0.7382 0.6746 -0.00690018
vn -0.9664 0.153601 0.2059
vn -0.9645 0.171801 0.2008
vn -0.716 0.6978 -0.0220002
vn -0.716 0.6978 -0.0220002
vn -0.7382 0.6746 -0.00690018
vn -0.9664 0.153601 0.2059
vn -0.8563 -0.433299 0.2811
vn -0.8534 -0.438999 0.2811
vn -0.9645 0.171801 0.2008
vn -0.9645 0.171801 0.2008
vn -0.9664 0.153601 0.2059
vn -0.8563 -0.433299 0.2811
vn -0.449901 -0.8719 0.1933
vn -0.426301 -0.8853 0.1858
vn -0.8534 -0.438999 0.2811
vn -0.8534 -0.438999 0.2811
vn -0.8563 -0.433299 0.2811
vn -0.449901 -0.8719 0.1933
vn 0.105599 -0.994 -0.0287
vn 0.147399 -0.9878 -0.0506
vn -0.426301 -0.8853 0.1858
vn -0.426301 -0.8853 0.1858
vn -0.449901 -0.8719 0.1933
vn 0.105599 -0.994 -0.0287
vn 0.147399 -0.9878 -0.0506
vn 0.105599 -0.994 -0.0287
vn 0.6038 -0.7396 -0.2975
vn 0.6038 -0.7396 -0.2975
vn 0.6112 -0.7292 -0.3077
vn 0.147399 -0.9878 -0.0506
vn 0.8296 -0.226501 -0.5104
vn 0.8281 -0.222401 -0.5145
vn 0.6112 -0.7292 -0.3077
vn 0.6112 -0.7292 -0.3077
vn 0.6038 -0.7396 -0.2975
vn 0.8296 -0.226501 -0.5104
vn -0.0684999 -0.203 -0.9768
vn -0.3175 -0.1651 -0.9338
vn -0.0960998 -0.0524999 -0.994
vn -0.0960998 -0.0524999 -0.994
vn -0.3175 -0.1651 -0.9338
vn -0.2015 0.0581001 -0.9778
vn -0.2015 0.0581001 -0.9778
vn -0.3175 -0.1651 -0.9338
vn -0.3474 0.0875002 -0.9336
vn -0.3474 0.0875002 -0.9336
vn -0.3175 -0.1651 -0.9338
vn -0.4789 0.0239003 -0.8775
vn -0.4789 0.0239003 -0.8775
vn -0.3175 -0.1651 -0.9338
vn -0.5445 -0.112 -0.8312
vn -0.5445 -0.112 -0.8312
vn -0.3175 -0.1651 -0.9338
vn -0.5171 -0.2682 -0.8128
vn -0.5171 -0.2682 -0.8128
vn -0.3175 -0.1651 -0.9338
vn -0.4073 -0.3803 -0.8304
vn -0.4073 -0.3803 -0.8304
vn -0.3175 -0.1651 -0.9338
vn -0.2587 -0.4055 -0.8767
vn -0.2587 -0.4055 -0.8767
vn -0.3175 -0.1651 -0.9338
vn -0.1295 -0.3372 -0.9325
vn -0.1295 -0.3372 -0.9325
vn -0.3175 -0.1651 -0.9338
vn -0.0684999 -0.203 -0.9768
vn 3.35044e-07 0.1524 -0.9883
vn 0.0 -0.213 -0.977
vn -0.3136 0.1591 -0.9361
vn 6.31882e-07 0.7409 -0.6716
vn 3.35044e-07 0.1524 -0.9883
vn -0.3136 0.1591 -0.9361
vn -0.3136 0.1591 -0.9361
vn -0.331599 0.7154 -0.615
vn 6.31882e-07 0.7409 -0.6716
vn -0.331599 0.7154 -0.615
vn -0.532599 0.8405 -0.0995001
vn -0.209899 0.9727 -0.0988001
vn -0.209899 0.9727 -0.0988001
vn -0.532599 0.8405 -0.0995001
vn -0.56 0.7908 0.2468
vn -0.209899 0.9727 -0.0988001
vn -0.56 0.7908 0.2468
vn 5.27189e-07 0.95 0.3122
vn -0.353901 -0.9353 0.00109991
vn -6.22389e-07 -0.9989 -0.0461
vn -6.36257e-07 -1.0 0.0085
vn -6.36257e-07 -1.0 0.0085
vn -0.493701 -0.867 0.0666999
vn -0.353901 -0.9353 0.00109991
vn -0.2399 -0.129 -0.9622
vn 0.0 -0.3494 -0.937
vn -0.1911 -0.3201 -0.9279
vn -0.6717 -0.1747 -0.7199
vn -0.8722 -0.432899 -0.2276
vn -0.9492 -0.285499 -0.1322
vn -0.7493 -0.1958 -0.6327
vn -0.7873 0.1213 -0.6045
vn -0.3136 0.1591 -0.9361
vn -0.998 -0.0264994 -0.0581002
vn -0.8087 0.468101 -0.3561
vn -0.7873 0.1213 -0.6045
vn -0.7898 -0.5341 0.3015
vn -0.376601 -0.8461 0.3773
vn -0.7518 -0.5792 0.315
vn -0.172501 -0.4586 0.8717
vn -5.47552e-07 -0.5443 0.8389
vn -6.63258e-07 -0.8386 0.5448
vn -6.63258e-07 -0.8386 0.5448
vn -0.192401 -0.6199 0.7607
vn -0.172501 -0.4586 0.8717
vn -6.34424e-07 -1.0 0.0009
vn -5.8611e-07 -0.9865 -0.1639
vn -0.159101 -0.9803 -0.1172
vn -6.34158e-07 -1.0 -0.0002
vn -6.19009e-07 -0.7071 0.7071
vn -6.19009e-07 -0.7071 0.7071
vn -6.19009e-07 -0.7071 0.7071
vn -6.34158e-07 -1.0 -0.0002
vn -6.34158e-07 -1.0 -0.0002
vn -6.19009e-07 -0.7071 0.7071
vn -2.47531e-07 -0.01 0.9999
vn -2.41086e-07 0.0002 1.0
vn -2.41086e-07 0.0002 1.0
vn -6.19009e-07 -0.7071 0.7071
vn -6.19009e-07 -0.7071 0.7071
vn -2.47531e-07 -0.01 0.9999
vn 2.74233e-07 0.7029 0.7112
vn -0.0119997 0.7035 0.7106
vn -0.0119997 0.7035 0.7106
vn -2.41086e-07 0.0002 1.0
vn -2.47531e-07 -0.01 0.9999
vn 2.74233e-07 0.7029 0.7112
vn 6.37568e-07 0.9999 -0.0142
vn -0.00599936 1.0 -0.005
vn -0.00599936 1.0 -0.005
vn -0.0119997 0.7035 0.7106
vn 2.74233e-07 0.7029 0.7112
vn 6.37568e-07 0.9999 -0.0142
vn 6.17005e-07 0.702 -0.7122
vn -0.00479938 0.709 -0.7052
vn -0.00479938 0.709 -0.7052
vn -0.00599936 1.0 -0.005
vn 6.37568e-07 0.9999 -0.0142
vn 6.17005e-07 0.702 -0.7122
vn 2.36393e-07 -0.0076 -1.0
vn -0.00319976 -0.0024 -1.0
vn -0.00319976 -0.0024 -1.0
vn -0.00479938 0.709 -0.7052
vn 6.17005e-07 0.702 -0.7122
vn 2.36393e-07 -0.0076 -1.0
vn -2.78061e-07 -0.7073 -0.7069
vn -2.78061e-07 -0.7073 -0.7069
vn -2.78061e-07 -0.7073 -0.7069
vn -0.00319976 -0.0024 -1.0
vn 2.36393e-07 -0.0076 -1.0
vn -2.78061e-07 -0.7073 -0.7069
vn -6.34158e-07 -1.0 -0.0002
vn -6.34158e-07 -1.0 -0.0002
vn -6.34158e-07 -1.0 -0.0002
vn -2.78061e-07 -0.7073 -0.7069
vn -2.78061e-07 -0.7073 -0.7069
vn -1.0 6.34207e-07 -2.41213e-07
vn -1.0 6.34207e-07 -2.41213e-07
vn -1.0 6.34207e-07 -2.41213e-07
vn -1.0 6.34207e-07 -2.41213e-07
vn -1.0 6.34207e-07 -2.41213e-07
vn -1.0 6.34207e-07 -2.41213e-07
vn -1.0 6.34207e-07 -2.41213e-07
vn -1.0 6.34207e-07 -2.41213e-07
vn -1.0 6.34207e-07 -2.41213e-07
vn -1.0 6.34207e-07 -2.41213e-07
vn -1.0 6.34207e-07 -2.41213e-07
vn -1.0 6.34207e-07 -2.41213e-07
vn -1.0 6.34207e-07 -2.41213e-07
vn -1.0 6.34207e-07 -2.41213e-07
vn -1.0 6.34207e-07 -2.41213e-07
vn -1.0 6.34207e-07 -2.41213e-07
vn -1.0 6.34207e-07 -2.41213e-07
vn -1.0 6.34207e-07 -2.41213e-07
vn -1.0 6.34207e-07 -2.41213e-07
vn -1.0 6.34207e-07 -2.41213e-07
vn -1.0 6.34207e-07 -2.41213e-07
vn -1.0 6.34207e-07 -2.41213e-07
vn -1.0 6.34207e-07 -2.41213e-07
vn -1.0 6.34207e-07 -2.41213e-07
vn 0.7764 0.5737 -0.2609
vn 0.7887 0.5437 -0.287
vn 0.9612 -0.0195006 -0.2751
vn 0.9612 -0.0195006 -0.2751
vn 0.9656 0.0361994 -0.2577
vn 0.7764 0.5737 -0.2609
vn 0.264801 0.945 -0.1918
vn 0.264601 0.9451 -0.1915
vn 0.7887 0.5437 -0.287
vn 0.7887 0.5437 -0.287
vn 0.7764 0.5737 -0.2609
vn 0.264801 0.945 -0.1918
vn -0.338099 0.9384 -0.0709001
vn -0.338499 0.9383 -0.0704001
vn 0.264601 0.9451 -0.1915
vn 0.264601 0.9451 -0.1915
vn 0.264801 0.945 -0.1918
vn -0.338099 0.9384 -0.0709001
vn -0.8193 0.572301 0.0334998
vn -0.8197 0.571701 0.0339998
vn -0.338499 0.9383 -0.0704001
vn -0.338499 0.9383 -0.0704001
vn -0.338099 0.9384 -0.0709001
vn -0.8193 0.572301 0.0334998
vn -0.9966 -0.0128994 0.0816998
vn -0.9965 -0.0137994 0.0819998
vn -0.8197 0.571701 0.0339998
vn -0.8197 0.571701 0.0339998
vn -0.8193 0.572301 0.0334998
vn -0.9966 -0.0128994 0.0816998
vn -0.8019 -0.594899 0.0550998
vn -0.8015 -0.595499 0.0552998
vn -0.9965 -0.0137994 0.0819998
vn -0.9965 -0.0137994 0.0819998
vn -0.9966 -0.0128994 0.0816998
vn -0.8019 -0.594899 0.0550998
vn -0.309101 -0.9504 -0.0356001
vn -0.309001 -0.9504 -0.0356001
vn -0.8015 -0.595499 0.0552998
vn -0.8015 -0.595499 0.0552998
vn -0.8019 -0.594899 0.0550998
vn -0.309101 -0.9504 -0.0356001
vn 0.292599 -0.9434 -0.1564
vn 0.292799 -0.9433 -0.1565
vn -0.309001 -0.9504 -0.0356001
vn -0.309001 -0.9504 -0.0356001
vn -0.309101 -0.9504 -0.0356001
vn 0.292599 -0.9434 -0.1564
vn 0.7746 -0.5765 -0.26
vn 0.7876 -0.5607 -0.2557
vn 0.292799 -0.9433 -0.1565
vn 0.292799 -0.9433 -0.1565
vn 0.292599 -0.9434 -0.1564
vn 0.7746 -0.5765 -0.26
vn 0.9656 0.0361994 -0.2577
vn 0.9612 -0.0195006 -0.2751
vn 0.7876 -0.5607 -0.2557
vn 0.7876 -0.5607 -0.2557
vn 0.7746 -0.5765 -0.26
vn 0.9656 0.0361994 -0.2577
vn 0.1091 -0.0167001 -0.9939
vn -0.1952 -0.0211999 -0.9805
vn 0.0502003 0.1593 -0.986
vn 0.0502003 0.1593 -0.986
vn -0.1952 -0.0211999 -0.9805
vn -0.0988996 0.2668 -0.9587
vn -0.0988996 0.2668 -0.9587
vn -0.1952 -0.0211999 -0.9805
vn -0.2817 0.2646 -0.9223
vn -0.2817 0.2646 -0.9223
vn -0.1952 -0.0211999 -0.9805
vn -0.428 0.1532 -0.8907
vn -0.428 0.1532 -0.8907
vn -0.1952 -0.0211999 -0.9805
vn -0.4816 -0.0240997 -0.8761
vn -0.4816 -0.0240997 -0.8761
vn -0.1952 -0.0211999 -0.9805
vn -0.4229 -0.1994 -0.884
vn -0.4229 -0.1994 -0.884
vn -0.1952 -0.0211999 -0.9805
vn -0.2735 -0.3068 -0.9116
vn -0.2735 -0.3068 -0.9116
vn -0.1952 -0.0211999 -0.9805
vn -0.0906 -0.3051 -0.948
vn -0.0906 -0.3051 -0.948
vn -0.1952 -0.0211999 -0.9805
vn 0.0553001 -0.1941 -0.9794
vn 0.0553001 -0.1941 -0.9794
vn -0.1952 -0.0211999 -0.9805
vn 0.1091 -0.0167001 -0.9939
vn -0.7493 -0.1958 -0.6327
vn -0.3136 0.1591 -0.9361
vn 0.0 -0.213 -0.977
vn 0.232699 -0.9493 0.2114
vn 0.159099 -0.9803 -0.1172
vn -6.34424e-07 -1.0 0.0009
vn 0.6717 -0.1747 -0.7199
vn 0.7358 -0.0769005 -0.6728
vn 0.2399 -0.129 -0.9622
vn 1.41484e-07 -0.1528 -0.9883
vn 0.2399 -0.129 -0.9622
vn 0.0 -0.3494 -0.937
vn 0.199299 -0.88 0.4311
vn 0.232699 -0.9493 0.2114
vn -6.34424e-07 -1.0 0.0009
vn -6.34424e-07 -1.0 0.0009
vn -6.63258e-07 -0.8386 0.5448
vn 0.199299 -0.88 0.4311
vn 6.52758e-07 0.9962 -0.0869
vn 5.27189e-07 0.95 0.3122
vn 0.209901 0.9727 -0.0988
vn 2.93214e-07 0.7245 0.6893
vn 0.5443 0.585 0.6012
vn 0.56 0.7908 0.2468
vn 0.56 0.7908 0.2468
vn 5.27189e-07 0.95 0.3122
vn 2.93214e-07 0.7245 0.6893
vn 0.6717 -0.1747 -0.7199
vn 0.2399 -0.129 -0.9622
vn 0.1968 -0.0683001 -0.9781
vn 0.331601 0.7154 -0.615
vn 0.8087 0.4681 -0.3561
vn 0.7873 0.121299 -0.6045
vn 0.7873 0.121299 -0.6045
vn 0.3136 0.1591 -0.9361
vn 0.331601 0.7154 -0.615
vn 1.80259e-07 -0.0944 -0.9955
vn 0.1968 -0.0683001 -0.9781
vn 0.2399 -0.129 -0.9622
vn 0.2399 -0.129 -0.9622
vn 1.41484e-07 -0.1528 -0.9883
vn 1.80259e-07 -0.0944 -0.9955
vn 0.6717 -0.1747 -0.7199
vn 0.7493 -0.1958 -0.6327
vn 0.9492 -0.285501 -0.1322
vn 0.9492 -0.285501 -0.1322
vn 0.7493 -0.1958 -0.6327
vn 0.998 -0.0265006 -0.0580998
vn 0.998 -0.0265006 -0.0580998
vn 0.9884 -0.148601 -0.0317998
vn 0.9492 -0.285501 -0.1322
vn 0.7898 -0.5341 0.3015
vn 0.9073 -0.345001 0.2403
vn 0.7518 -0.579201 0.315
vn 0.998 -0.0265006 -0.0580998
vn 0.9923 -0.0530006 0.1117
vn 0.9884 -0.148601 -0.0317998
vn 0.5443 0.585 0.6012
vn 0.549 0.1731 0.8177
vn 0.9322 0.191999 0.3068
vn 0.9322 0.191999 0.3068
vn 0.9371 0.332199 0.1073
vn 0.56 0.7908 0.2468
vn 0.56 0.7908 0.2468
vn 0.5443 0.585 0.6012
vn 0.9322 0.191999 0.3068
vn 0.9371 0.332199 0.1073
vn 0.8921 0.451299 -0.0203998
vn 0.532601 0.8405 -0.0994999
vn 0.532601 0.8405 -0.0994999
vn 0.56 0.7908 0.2468
vn 0.9371 0.332199 0.1073
vn -5.76214e-07 -0.606 0.7955
vn 0.118699 -0.555 0.8234
vn 0.5417 -0.2205 0.8111
vn 0.5417 -0.2205 0.8111
vn -4.62713e-07 -0.3774 0.926
vn -5.76214e-07 -0.606 0.7955
vn 0.0 0.2062 0.9785
vn 0.549 0.1731 0.8177
vn 0.5443 0.585 0.6012
vn 0.5443 0.585 0.6012
vn 2.93214e-07 0.7245 0.6893
vn 0.0 0.2062 0.9785
vn 0.192399 -0.6199 0.7607
vn 0.199299 -0.88 0.4311
vn -6.63258e-07 -0.8386 0.5448
vn 0.6481 -0.7594 0.0571002
vn 0.7366 -0.6662 0.1166
vn 0.493699 -0.867 0.0667001
vn 0.493699 -0.867 0.0667001
vn 0.353899 -0.9353 0.00110009
vn 0.6481 -0.7594 0.0571002
vn 0.6717 -0.1747 -0.7199
vn 0.8722 -0.432901 -0.2276
vn 0.7358 -0.0769005 -0.6728
vn 0.998 -0.0265006 -0.0580998
vn 0.7493 -0.1958 -0.6327
vn 0.7873 0.121299 -0.6045
vn 0.2399 -0.129 -0.9622
vn 0.7358 -0.0769005 -0.6728
vn 0.1911 -0.3201 -0.9279
vn 0.1968 -0.0683001 -0.9781
vn 1.80259e-07 -0.0944 -0.9955
vn 0.0 -0.213 -0.977
vn 0.6717 -0.1747 -0.7199
vn 0.1968 -0.0683001 -0.9781
vn 0.7493 -0.1958 -0.6327
vn 0.1968 -0.0683001 -0.9781
vn 0.0 -0.213 -0.977
vn 0.7493 -0.1958 -0.6327
vn 0.532601 0.8405 -0.0994999
vn 0.8087 0.4681 -0.3561
vn 0.331601 0.7154 -0.615
vn 0.532601 0.8405 -0.0994999
vn 0.8921 0.451299 -0.0203998
vn 0.8087 0.4681 -0.3561
vn 6.31882e-07 0.7409 -0.6716
vn 6.52758e-07 0.9962 -0.0869
vn 0.209901 0.9727 -0.0988
vn 0.209901 0.9727 -0.0988
vn 0.331601 0.7154 -0.615
vn 6.31882e-07 0.7409 -0.6716
vn 0.549 0.1731 0.8177
vn 0.5417 -0.2205 0.8111
vn 0.9923 -0.0530006 0.1117
vn 0.9923 -0.0530006 0.1117
vn 0.9322 0.191999 0.3068
vn 0.549 0.1731 0.8177
vn 0.9923 -0.0530006 0.1117
vn 0.998 -0.0265006 -0.0580998
vn 0.9371 0.332199 0.1073
vn 0.9371 0.332199 0.1073
vn 0.9322 0.191999 0.3068
vn 0.9923 -0.0530006 0.1117
vn 0.8921 0.451299 -0.0203998
vn 0.9371 0.332199 0.1073
vn 0.998 -0.0265006 -0.0580998
vn -4.62713e-07 -0.3774 0.926
vn 0.5417 -0.2205 0.8111
vn 0.549 0.1731 0.8177
vn 0.549 0.1731 0.8177
vn 0.0 0.2062 0.9785
vn -4.62713e-07 -0.3774 0.926
vn 0.8921 0.451299 -0.0203998
vn 0.998 -0.0265006 -0.0580998
vn 0.8087 0.4681 -0.3561
vn -0.7181 0.3686 -0.5904
vn -0.8296 -0.226499 -0.5104
vn -0.8281 -0.222399 -0.5145
vn -0.8281 -0.222399 -0.5145
vn -0.7206 0.3639 -0.5901
vn -0.7181 0.3686 -0.5904
vn -0.308199 0.8085 -0.5013
vn -0.7181 0.3686 -0.5904
vn -0.7206 0.3639 -0.5901
vn -0.7206 0.3639 -0.5901
vn -0.329699 0.7959 -0.5078
vn -0.308199 0.8085 -0.5013
vn 0.249901 0.9274 -0.2783
vn -0.308199 0.8085 -0.5013
vn -0.329699 0.7959 -0.5078
vn -0.329699 0.7959 -0.5078
vn 0.215901 0.9311 -0.294
vn 0.249901 0.9274 -0.2783
vn 0.7382 0.6746 -0.00689982
vn 0.249901 0.9274 -0.2783
vn 0.215901 0.9311 -0.294
vn 0.215901 0.9311 -0.294
vn 0.716 0.6978 -0.0219998
vn 0.7382 0.6746 -0.00689982
vn 0.9664 0.153599 0.2059
vn 0.7382 0.6746 -0.00689982
vn 0.716 0.6978 -0.0219998
vn 0.716 0.6978 -0.0219998
vn 0.9645 0.171799 0.2008
vn 0.9664 0.153599 0.2059
vn 0.8563 -0.433301 0.2811
vn 0.9664 0.153599 0.2059
vn 0.9645 0.171799 0.2008
vn 0.9645 0.171799 0.2008
vn 0.8534 -0.439001 0.2811
vn 0.8563 -0.433301 0.2811
vn 0.449899 -0.8719 0.1933
vn 0.8563 -0.433301 0.2811
vn 0.8534 -0.439001 0.2811
vn 0.8534 -0.439001 0.2811
vn 0.426299 -0.8853 0.1858
vn 0.449899 -0.8719 0.1933
vn -0.105601 -0.994 -0.0287
vn 0.449899 -0.8719 0.1933
vn 0.426299 -0.8853 0.1858
vn 0.426299 -0.8853 0.1858
vn -0.147401 -0.9878 -0.0506
vn -0.105601 -0.994 -0.0287
vn -0.147401 -0.9878 -0.0506
vn -0.6112 -0.7292 -0.3077
vn -0.6038 -0.7396 -0.2975
vn -0.6038 -0.7396 -0.2975
vn -0.105601 -0.994 -0.0287
vn -0.147401 -0.9878 -0.0506
vn -0.8296 -0.226499 -0.5104
vn -0.6038 -0.7396 -0.2975
vn -0.6112 -0.7292 -0.3077
vn -0.6112 -0.7292 -0.3077
vn -0.8281 -0.222399 -0.5145
vn -0.8296 -0.226499 -0.5104
vn 0.0685001 -0.203 -0.9768
vn 0.0961002 -0.0525001 -0.994
vn 0.3175 -0.1651 -0.9338
vn 0.0961002 -0.0525001 -0.994
vn 0.2015 0.0580999 -0.9778
vn 0.3175 -0.1651 -0.9338
vn 0.2015 0.0580999 -0.9778
vn 0.3474 0.0874998 -0.9336
vn 0.3175 -0.1651 -0.9338
vn 0.3474 0.0874998 -0.9336
vn 0.4789 0.0238997 -0.8775
vn 0.3175 -0.1651 -0.9338
vn 0.4789 0.0238997 -0.8775
vn 0.5445 -0.112 -0.8312
vn 0.3175 -0.1651 -0.9338
vn 0.5445 -0.112 -0.8312
vn 0.5171 -0.2682 -0.8128
vn 0.3175 -0.1651 -0.9338
vn 0.5171 -0.2682 -0.8128
vn 0.4073 -0.3803 -0.8304
vn 0.3175 -0.1651 -0.9338
vn 0.4073 -0.3803 -0.8304
vn 0.2587 -0.4055 -0.8767
vn 0.3175 -0.1651 -0.9338
vn 0.2587 -0.4055 -0.8767
vn 0.1295 -0.3372 -0.9325
vn 0.3175 -0.1651 -0.9338
vn 0.1295 -0.3372 -0.9325
vn 0.0685001 -0.203 -0.9768
vn 0.3175 -0.1651 -0.9338
vn 3.35044e-07 0.1524 -0.9883
vn 0.3136 0.1591 -0.9361
vn 0.0 -0.213 -0.977
vn 6.31882e-07 0.7409 -0.6716
vn 0.331601 0.7154 -0.615
vn 0.3136 0.1591 -0.9361
vn 0.3136 0.1591 -0.9361
vn 3.35044e-07 0.1524 -0.9883
vn 6.31882e-07 0.7409 -0.6716
vn 0.331601 0.7154 -0.615
vn 0.209901 0.9727 -0.0988
vn 0.532601 0.8405 -0.0994999
vn 0.209901 0.9727 -0.0988
vn 0.56 0.7908 0.2468
vn 0.532601 0.8405 -0.0994999
vn 0.209901 0.9727 -0.0988
vn 5.27189e-07 0.95 0.3122
vn 0.56 0.7908 0.2468
vn 0.353899 -0.9353 0.00110009
vn 0.493699 -0.867 0.0667001
vn -6.36257e-07 -1.0 0.0085
vn -6.36257e-07 -1.0 0.0085
vn -6.22389e-07 -0.9989 -0.0461
vn 0.353899 -0.9353 0.00110009
vn 0.2399 -0.129 -0.9622
vn 0.1911 -0.3201 -0.9279
vn 0.0 -0.3494 -0.937
vn 0.6717 -0.1747 -0.7199
vn 0.9492 -0.285501 -0.1322
vn 0.8722 -0.432901 -0.2276
vn 0.7493 -0.1958 -0.6327
vn 0.3136 0.1591 -0.9361
vn 0.7873 0.121299 -0.6045
vn 0.998 -0.0265006 -0.0580998
vn 0.7873 0.121299 -0.6045
vn 0.8087 0.4681 -0.3561
vn 0.7898 -0.5341 0.3015
vn 0.7518 -0.579201 0.315
vn 0.376599 -0.8461 0.3773
vn 0.172499 -0.4586 0.8717
vn 0.192399 -0.6199 0.7607
vn -6.63258e-07 -0.8386 0.5448
vn -6.63258e-07 -0.8386 0.5448
vn -5.47552e-07 -0.5443 0.8389
vn 0.172499 -0.4586 0.8717
vn -6.34424e-07 -1.0 0.0009
vn 0.159099 -0.9803 -0.1172
vn -5.8611e-07 -0.9865 -0.1639
vn -6.34158e-07 -1.0 -0.0002
vn -6.34158e-07 -1.0 -0.0002
vn -6.19009e-07 -0.7071 0.7071
vn -6.19009e-07 -0.7071 0.7071
vn -6.19009e-07 -0.7071 0.7071
vn -6.34158e-07 -1.0 -0.0002
vn -6.19009e-07 -0.7071 0.7071
vn -6.19009e-07 -0.7071 0.7071
vn -2.41086e-07 0.0002 1.0
vn -2.41086e-07 0.0002 1.0
vn -2.47531e-07 -0.01 0.9999
vn -6.19009e-07 -0.7071 0.7071
vn -2.47531e-07 -0.01 0.9999
vn -2.41086e-07 0.0002 1.0
vn 0.0120003 0.7035 0.7106
vn 0.0120003 0.7035 0.7106
vn 2.74233e-07 0.7029 0.7112
vn -2.47531e-07 -0.01 0.9999
vn 2.74233e-07 0.7029 0.7112
vn 0.0120003 0.7035 0.7106
vn 0.00600064 1.0 -0.005
vn 0.00600064 1.0 -0.005
vn 6.37568e-07 0.9999 -0.0142
vn 2.74233e-07 0.7029 0.7112
vn 6.37568e-07 0.9999 -0.0142
vn 0.00600064 1.0 -0.005
vn 0.00480062 0.709 -0.7052
vn 0.00480062 0.709 -0.7052
vn 6.17005e-07 0.702 -0.7122
vn 6.37568e-07 0.9999 -0.0142
vn 6.17005e-07 0.702 -0.7122
vn 0.00480062 0.709 -0.7052
vn 0.00320024 -0.0024 -1.0
vn 0.00320024 -0.0024 -1.0
vn 2.36393e-07 -0.0076 -1.0
vn 6.17005e-07 0.702 -0.7122
vn 2.36393e-07 -0.0076 -1.0
vn 0.00320024 -0.0024 -1.0
vn -2.78061e-07 -0.7073 -0.7069
vn -2.78061e-07 -0.7073 -0.7069
vn -2.78061e-07 -0.7073 -0.7069
vn 2.36393e-07 -0.0076 -1.0
vn -2.78061e-07 -0.7073 -0.7069
vn -2.78061e-07 -0.7073 -0.7069
vn -6.34158e-07 -1.0 -0.0002
vn -6.34158e-07 -1.0 -0.0002
vn -6.34158e-07 -1.0 -0.0002
vn -2.78061e-07 -0.7073 -0.7069
vn 1.0 -6.34207e-07 2.41213e-07
vn 1.0 -6.34207e-07 2.41213e-07
vn 1.0 -6.34207e-07 2.41213e-07
vn 1.0 -6.34207e-07 2.41213e-07
vn 1.0 -6.34207e-07 2.41213e-07
vn 1.0 -6.34207e-07 2.41213e-07
vn 1.0 -6.34207e-07 2.41213e-07
vn 1.0 -6.34207e-07 2.41213e-07
vn 1.0 -6.34207e-07 2.41213e-07
vn 1.0 -6.34207e-07 2.41213e-07
vn 1.0 -6.34207e-07 2.41213e-07
vn 1.0 -6.34207e-07 2.41213e-07
vn 1.0 -6.34207e-07 2.41213e-07
vn 1.0 -6.34207e-07 2.41213e-07
vn 1.0 -6.34207e-07 2.41213e-07
vn 1.0 -6.34207e-07 2.41213e-07
vn 1.0 -6.34207e-07 2.41213e-07
vn 1.0 -6.34207e-07 2.41213e-07
vn 1.0 -6.34207e-07 2.41213e-07
vn 1.0 -6.34207e-07 2.41213e-07
vn 1.0 -6.34207e-07 2.41213e-07
vn 1.0 -6.34207e-07 2.41213e-07
vn 1.0 -6.34207e-07 2.41213e-07
vn 1.0 -6.34207e-07 2.41213e-07
vn -0.7764 0.5737 -0.2609
vn -0.9656 0.0362006 -0.2577
vn -0.9612 -0.0194994 -0.2751
vn -0.9612 -0.0194994 -0.2751
vn -0.7887 0.5437 -0.287
vn -0.7764 0.5737 -0.2609
vn -0.264799 0.945 -0.1918
vn -0.7764 0.5737 -0.2609
vn -0.7887 0.5437 -0.287
vn -0.7887 0.5437 -0.287
vn -0.264599 0.9451 -0.1915
vn -0.264799 0.945 -0.1918
vn 0.338101 0.9384 -0.0708999
vn -0.264799 0.945 -0.1918
vn -0.264599 0.9451 -0.1915
vn -0.264599 0.9451 -0.1915
vn 0.338501 0.9383 -0.0703999
vn 0.338101 0.9384 -0.0708999
vn 0.8193 0.572299 0.0335002
vn 0.338101 0.9384 -0.0708999
vn 0.338501 0.9383 -0.0703999
vn 0.338501 0.9383 -0.0703999
vn 0.8197 0.571699 0.0340002
vn 0.8193 0.572299 0.0335002
vn 0.9966 -0.0129006 0.0817002
vn 0.8193 0.572299 0.0335002
vn 0.8197 0.571699 0.0340002
vn 0.8197 0.571699 0.0340002
vn 0.9965 -0.0138006 0.0820002
vn 0.9966 -0.0129006 0.0817002
vn 0.8019 -0.594901 0.0551002
vn 0.9966 -0.0129006 0.0817002
vn 0.9965 -0.0138006 0.0820002
vn 0.9965 -0.0138006 0.0820002
vn 0.8015 -0.595501 0.0553002
vn 0.8019 -0.594901 0.0551002
vn 0.309099 -0.9504 -0.0355999
vn 0.8019 -0.594901 0.0551002
vn 0.8015 -0.595501 0.0553002
vn 0.8015 -0.595501 0.0553002
vn 0.308999 -0.9504 -0.0355999
vn 0.309099 -0.9504 -0.0355999
vn -0.292601 -0.9434 -0.1564
vn 0.309099 -0.9504 -0.0355999
vn 0.308999 -0.9504 -0.0355999
vn 0.308999 -0.9504 -0.0355999
vn -0.292801 -0.9433 -0.1565
vn -0.292601 -0.9434 -0.1564
vn -0.7746 -0.5765 -0.26
vn -0.292601 -0.9434 -0.1564
vn -0.292801 -0.9433 -0.1565
vn -0.292801 -0.9433 -0.1565
vn -0.7876 -0.5607 -0.2557
vn -0.7746 -0.5765 -0.26
vn -0.9656 0.0362006 -0.2577
vn -0.7746 -0.5765 -0.26
vn -0.7876 -0.5607 -0.2557
vn -0.7876 -0.5607 -0.2557
vn -0.9612 -0.0194994 -0.2751
vn -0.9656 0.0362006 -0.2577
vn -0.1091 -0.0166999 -0.9939
vn -0.0501997 0.1593 -0.986
vn 0.1952 -0.0212001 -0.9805
vn -0.0501997 0.1593 -0.986
vn 0.0989004 0.2668 -0.9587
vn 0.1952 -0.0212001 -0.9805
vn 0.0989004 0.2668 -0.9587
vn 0.2817 0.2646 -0.9223
vn 0.1952 -0.0212001 -0.9805
vn 0.2817 0.2646 -0.9223
vn 0.428 0.1532 -0.8907
vn 0.1952 -0.0212001 -0.9805
vn 0.428 0.1532 -0.8907
vn 0.4816 -0.0241003 -0.8761
vn 0.1952 -0.0212001 -0.9805
vn 0.4816 -0.0241003 -0.8761
vn 0.4229 -0.1994 -0.884
vn 0.1952 -0.0212001 -0.9805
vn 0.4229 -0.1994 -0.884
vn 0.2735 -0.3068 -0.9116
vn 0.1952 -0.0212001 -0.9805
vn 0.2735 -0.3068 -0.9116
vn 0.0906 -0.3051 -0.948
vn 0.1952 -0.0212001 -0.9805
vn 0.0906 -0.3051 -0.948
vn -0.0552999 -0.1941 -0.9794
vn 0.1952 -0.0212001 -0.9805
vn -0.0552999 -0.1941 -0.9794
vn -0.1091 -0.0166999 -0.9939
vn 0.1952 -0.0212001 -0.9805
vn 0.0 -0.213 -0.977
vn 0.3136 0.1591 -0.9361
vn 0.7493 -0.1958 -0.6327
vn -6.66465e-07 -0.9848 0.1737
vn -6.66465e-07 -0.9848 0.1737
vn -6.66465e-07 -0.9848 0.1737
vn -6.66465e-07 -0.9848 0.1737
vn -6.66465e-07 -0.9848 0.1737
vn -6.66465e-07 -0.9848 0.1737
vn 6.66417e-07 0.9848 -0.1735
vn 6.66417e-07 0.9848 -0.1735
vn 6.66417e-07 0.9848 -0.1735
vn 6.66417e-07 0.9848 -0.1735
vn 6.66417e-07 0.9848 -0.1735
vn 6.66417e-07 0.9848 -0.1735
vn -1.0 6.34207e-07 -2.41213e-07
vn -1.0 6.34207e-07 -2.41213e-07
vn -1.0 6.34207e-07 -2.41213e-07
vn -1.0 6.34207e-07 -2.41213e-07
vn -1.0 6.34207e-07 -2.41213e-07
vn -1.0 6.34207e-07 -2.41213e-07
vn -1.27512e-07 0.1735 0.9848
vn -1.27512e-07 0.1735 0.9848
vn -1.27512e-07 0.1735 0.9848
vn -1.27512e-07 0.1735 0.9848
vn -1.27512e-07 0.1735 0.9848
vn -1.27512e-07 0.1735 0.9848
vn 1.0 -6.34207e-07 2.41213e-07
vn 1.0 -6.34207e-07 2.41213e-07
vn 1.0 -6.34207e-07 2.41213e-07
vn 1.0 -6.34207e-07 2.41213e-07
vn 1.0 -6.34207e-07 2.41213e-07
vn 1.0 -6.34207e-07 2.41213e-07
vn 1.27385e-07 -0.1737 -0.9848
vn 1.27385e-07 -0.1737 -0.9848
vn 1.27385e-07 -0.1737 -0.9848
vn 1.27385e-07 -0.1737 -0.9848
vn 1.27385e-07 -0.1737 -0.9848
vn 1.27385e-07 -0.1737 -0.9848

vt 0.619 0.4932
vt 0.7949 0.4496
vt 0.7238 0.5788
vt 0.4282 0.3382
vt 0.4489 0.2264
vt 0.5029 0.2664
vt 0.4006 0.1736
vt 0.4361 0.1412
vt 0.4489 0.2264
vt 0.5928 0.4464
vt 0.7512 0.3729
vt 0.7949 0.4496
vt 0.7949 0.4496
vt 0.619 0.4932
vt 0.5928 0.4464
vt 0.2533 0.8987
vt 0.2683 0.8315
vt 0.4094 0.9448
vt 0.5437 0.9633
vt 0.4094 0.9448
vt 0.4411 0.8008
vt 0.4411 0.8008
vt 0.5574 0.8217
vt 0.5437 0.9633
vt 0.4282 0.3382
vt 0.366 0.2995
vt 0.4489 0.2264
vt 0.1858 0.5554
vt 0.2078 0.4789
vt 0.2823 0.5166
vt 0.2823 0.5166
vt 0.2734 0.5811
vt 0.1858 0.5554
vt 0.321 0.2516
vt 0.4006 0.1736
vt 0.4489 0.2264
vt 0.4489 0.2264
vt 0.366 0.2995
vt 0.321 0.2516
vt 0.4282 0.3382
vt 0.5928 0.4464
vt 0.36 0.4344
vt 0.5928 0.4464
vt 0.619 0.4932
vt 0.4395 0.6
vt 0.4395 0.6
vt 0.36 0.4344
vt 0.5928 0.4464
vt 0.7037 0.6814
vt 0.619 0.4932
vt 0.7238 0.5788
vt 0.4395 0.6
vt 0.619 0.4932
vt 0.6169 0.6082
vt 0.5574 0.8217
vt 0.5546 0.7708
vt 0.6482 0.8054
vt 0.5546 0.7708
vt 0.5574 0.8217
vt 0.4411 0.8008
vt 0.4411 0.8008
vt 0.4433 0.7345
vt 0.5546 0.7708
vt 0.4433 0.7345
vt 0.4411 0.8008
vt 0.2953 0.7556
vt 0.2953 0.7556
vt 0.3435 0.686
vt 0.4433 0.7345
vt 0.842 0.5432
vt 0.8454 0.698
vt 0.7037 0.6814
vt 0.7037 0.6814
vt 0.7238 0.5788
vt 0.842 0.5432
vt 0.6471 0.9565
vt 0.5437 0.9633
vt 0.5574 0.8217
vt 0.5574 0.8217
vt 0.6482 0.8054
vt 0.6471 0.9565
vt 0.5861 0.3858
vt 0.7512 0.3729
vt 0.5928 0.4464
vt 0.5029 0.2664
vt 0.5585 0.2064
vt 0.6542 0.3078
vt 0.6542 0.3078
vt 0.5861 0.3858
vt 0.5029 0.2664
vt 0.4282 0.3382
vt 0.5029 0.2664
vt 0.5861 0.3858
vt 0.4395 0.6
vt 0.2823 0.5166
vt 0.36 0.4344
vt 0.4489 0.2264
vt 0.4811 0.193
vt 0.5029 0.2664
vt 0.366 0.2995
vt 0.249 0.3191
vt 0.321 0.2516
vt 0.4282 0.3382
vt 0.36 0.4344
vt 0.366 0.2995
vt 0.366 0.2995
vt 0.36 0.4344
vt 0.249 0.3191
vt 0.2516 0.7047
vt 0.1858 0.5554
vt 0.2734 0.5811
vt 0.2516 0.7047
vt 0.2734 0.5811
vt 0.3435 0.686
vt 0.0981 0.5326
vt 0.1858 0.5554
vt 0.1722 0.7143
vt 0.1722 0.7143
vt 0.1013 0.7171
vt 0.0981 0.5326
vt 0.6482 0.8054
vt 0.5546 0.7708
vt 0.6169 0.6082
vt 0.6169 0.6082
vt 0.7037 0.6814
vt 0.6482 0.8054
vt 0.6169 0.6082
vt 0.5546 0.7708
vt 0.4433 0.7345
vt 0.4433 0.7345
vt 0.4395 0.6
vt 0.6169 0.6082
vt 0.3435 0.686
vt 0.4395 0.6
vt 0.4433 0.7345
vt 0.8454 0.698
vt 0.8056 0.8086
vt 0.6482 0.8054
vt 0.6482 0.8054
vt 0.7037 0.6814
vt 0.8454 0.698
vt 0.3435 0.686
vt 0.2734 0.5811
vt 0.4395 0.6
vt 0.1067 0.2804
vt 0.1025 0.3023
vt 0.0579 0.2783
vt 0.0579 0.2783
vt 0.0735 0.2623
vt 0.1067 0.2804
vt 0.1441 0.2752
vt 0.1526 0.2957
vt 0.1025 0.3023
vt 0.1025 0.3023
vt 0.1067 0.2804
vt 0.1441 0.2752
vt 0.171 0.2491
vt 0.1892 0.261
vt 0.1526 0.2957
vt 0.1526 0.2957
vt 0.1441 0.2752
vt 0.171 0.2491
vt 0.1772 0.2125
vt 0.1985 0.2112
vt 0.1892 0.261
vt 0.1892 0.261
vt 0.171 0.2491
vt 0.1772 0.2125
vt 0.1608 0.1795
vt 0.1767 0.1654
vt 0.1985 0.2112
vt 0.1985 0.2112
vt 0.1772 0.2125
vt 0.1608 0.1795
vt 0.1283 0.1621
vt 0.1319 0.1413
vt 0.1767 0.1654
vt 0.1767 0.1654
vt 0.1608 0.1795
vt 0.1283 0.1621
vt 0.0918 0.1667
vt 0.0816 0.148
vt 0.1319 0.1413
vt 0.1319 0.1413
vt 0.1283 0.1621
vt 0.0918 0.1667
vt 0.0648 0.1918
vt 0.0449 0.1831
vt 0.0816 0.148
vt 0.0816 0.148
vt 0.0918 0.1667
vt 0.0648 0.1918
vt 0.0449 0.1831
vt 0.0648 0.1918
vt 0.0576 0.2283
vt 0.0576 0.2283
vt 0.036 0.2328
vt 0.0449 0.1831
vt 0.0735 0.2623
vt 0.0579 0.2783
vt 0.036 0.2328
vt 0.036 0.2328
vt 0.0576 0.2283
vt 0.0735 0.2623
vt 0.0735 0.2623
vt 0.1178 0.2202
vt 0.1067 0.2804
vt 0.1067 0.2804
vt 0.1178 0.2202
vt 0.1441 0.2752
vt 0.1441 0.2752
vt 0.1178 0.2202
vt 0.171 0.2491
vt 0.171 0.2491
vt 0.1178 0.2202
vt 0.1772 0.2125
vt 0.1772 0.2125
vt 0.1178 0.2202
vt 0.1608 0.1795
vt 0.1608 0.1795
vt 0.1178 0.2202
vt 0.1283 0.1621
vt 0.1283 0.1621
vt 0.1178 0.2202
vt 0.0918 0.1667
vt 0.0918 0.1667
vt 0.1178 0.2202
vt 0.0648 0.1918
vt 0.0648 0.1918
vt 0.1178 0.2202
vt 0.0576 0.2283
vt 0.0576 0.2283
vt 0.1178 0.2202
vt 0.0735 0.2623
vt 0.1335 0.4339
vt 0.249 0.3191
vt 0.2078 0.4789
vt 0.0981 0.5326
vt 0.1335 0.4339
vt 0.2078 0.4789
vt 0.2078 0.4789
vt 0.1858 0.5554
vt 0.0981 0.5326
vt 0.1858 0.5554
vt 0.2516 0.7047
vt 0.1722 0.7143
vt 0.2683 0.8315
vt 0.2953 0.7556
vt 0.4411 0.8008
vt 0.2683 0.8315
vt 0.4411 0.8008
vt 0.4094 0.9448
vt 0.5585 0.2064
vt 0.6089 0.1566
vt 0.7059 0.2645
vt 0.7059 0.2645
vt 0.6542 0.3078
vt 0.5585 0.2064
vt 0.4489 0.2264
vt 0.4361 0.1412
vt 0.4811 0.193
vt 0.4282 0.3382
vt 0.5861 0.3858
vt 0.5928 0.4464
vt 0.36 0.4344
vt 0.2823 0.5166
vt 0.2078 0.4789
vt 0.4395 0.6
vt 0.2734 0.5811
vt 0.2823 0.5166
vt 0.7037 0.6814
vt 0.6169 0.6082
vt 0.619 0.4932
vt 0.6542 0.3078
vt 0.7059 0.2645
vt 0.7512 0.3729
vt 0.7512 0.3729
vt 0.5861 0.3858
vt 0.6542 0.3078
vt 0.7949 0.4496
vt 0.842 0.5432
vt 0.7238 0.5788
vt 0.4502 0.0142
vt 0.5126 0.0142
vt 0.5126 0.1149
vt 0.5126 0.1149
vt 0.4502 0.1149
vt 0.4502 0.0142
vt 0.0136 0.0142
vt 0.076 0.0142
vt 0.076 0.1148
vt 0.076 0.1148
vt 0.0136 0.1148
vt 0.0136 0.0142
vt 0.076 0.0142
vt 0.1384 0.0142
vt 0.1384 0.1148
vt 0.1384 0.1148
vt 0.076 0.1148
vt 0.076 0.0142
vt 0.1384 0.0142
vt 0.2007 0.0142
vt 0.2007 0.1148
vt 0.2007 0.1148
vt 0.1384 0.1148
vt 0.1384 0.0142
vt 0.2007 0.0142
vt 0.2631 0.0142
vt 0.2631 0.1148
vt 0.2631 0.1148
vt 0.2007 0.1148
vt 0.2007 0.0142
vt 0.2631 0.0142
vt 0.3255 0.0142
vt 0.3255 0.1148
vt 0.3255 0.1148
vt 0.2631 0.1148
vt 0.2631 0.0142
vt 0.3255 0.0142
vt 0.3879 0.0142
vt 0.3878 0.1148
vt 0.3878 0.1148
vt 0.3255 0.1148
vt 0.3255 0.0142
vt 0.3879 0.0142
vt 0.4502 0.0142
vt 0.4502 0.1149
vt 0.4502 0.1149
vt 0.3878 0.1148
vt 0.3879 0.0142
vt 0.9369 0.8582
vt 0.9772 0.8891
vt 0.9198 0.9223
vt 0.9772 0.8891
vt 0.9838 0.9394
vt 0.9198 0.9223
vt 0.9838 0.9394
vt 0.9529 0.9797
vt 0.9198 0.9223
vt 0.9529 0.9797
vt 0.9026 0.9863
vt 0.9198 0.9223
vt 0.9026 0.9863
vt 0.8624 0.9554
vt 0.9198 0.9223
vt 0.8624 0.9554
vt 0.8558 0.9051
vt 0.9198 0.9223
vt 0.8558 0.9051
vt 0.8866 0.8649
vt 0.9198 0.9223
vt 0.8866 0.8649
vt 0.9369 0.8582
vt 0.9198 0.9223
vt 0.0795 0.4123
vt 0.0765 0.4362
vt 0.0449 0.4213
vt 0.0449 0.4213
vt 0.0613 0.4037
vt 0.0795 0.4123
vt 0.0992 0.4084
vt 0.1109 0.4297
vt 0.0765 0.4362
vt 0.0765 0.4362
vt 0.0795 0.4123
vt 0.0992 0.4084
vt 0.113 0.3938
vt 0.1348 0.404
vt 0.1109 0.4297
vt 0.1109 0.4297
vt 0.0992 0.4084
vt 0.113 0.3938
vt 0.1154 0.374
vt 0.1391 0.3693
vt 0.1348 0.404
vt 0.1348 0.404
vt 0.113 0.3938
vt 0.1154 0.374
vt 0.1058 0.3564
vt 0.1222 0.3387
vt 0.1391 0.3693
vt 0.1391 0.3693
vt 0.1154 0.374
vt 0.1058 0.3564
vt 0.0876 0.3479
vt 0.0906 0.3239
vt 0.1222 0.3387
vt 0.1222 0.3387
vt 0.1058 0.3564
vt 0.0876 0.3479
vt 0.0678 0.3516
vt 0.0562 0.3305
vt 0.0906 0.3239
vt 0.0906 0.3239
vt 0.0876 0.3479
vt 0.0678 0.3516
vt 0.0541 0.3663
vt 0.0323 0.356
vt 0.0562 0.3305
vt 0.0562 0.3305
vt 0.0678 0.3516
vt 0.0541 0.3663
vt 0.0517 0.3862
vt 0.0279 0.3907
vt 0.0323 0.356
vt 0.0323 0.356
vt 0.0541 0.3663
vt 0.0517 0.3862
vt 0.0613 0.4037
vt 0.0449 0.4213
vt 0.0279 0.3907
vt 0.0279 0.3907
vt 0.0517 0.3862
vt 0.0613 0.4037
vt 0.0613 0.4037
vt 0.0835 0.38
vt 0.0795 0.4123
vt 0.0795 0.4123
vt 0.0835 0.38
vt 0.0992 0.4084
vt 0.0992 0.4084
vt 0.0835 0.38
vt 0.113 0.3938
vt 0.113 0.3938
vt 0.0835 0.38
vt 0.1154 0.374
vt 0.1154 0.374
vt 0.0835 0.38
vt 0.1058 0.3564
vt 0.1058 0.3564
vt 0.0835 0.38
vt 0.0876 0.3479
vt 0.0876 0.3479
vt 0.0835 0.38
vt 0.0678 0.3516
vt 0.0678 0.3516
vt 0.0835 0.38
vt 0.0541 0.3663
vt 0.0541 0.3663
vt 0.0835 0.38
vt 0.0517 0.3862
vt 0.0517 0.3862
vt 0.0835 0.38
vt 0.0613 0.4037
vt 0.36 0.4344
vt 0.2078 0.4789
vt 0.249 0.3191
vt 0.619 0.4932
vt 0.7238 0.5788
vt 0.7949 0.4496
vt 0.4282 0.3382
vt 0.5029 0.2664
vt 0.4489 0.2264
vt 0.4006 0.1736
vt 0.4489 0.2264
vt 0.4361 0.1412
vt 0.5928 0.4464
vt 0.619 0.4932
vt 0.7949 0.4496
vt 0.7949 0.4496
vt 0.7512 0.3729
vt 0.5928 0.4464
vt 0.2533 0.8987
vt 0.4094 0.9448
vt 0.2683 0.8315
vt 0.5437 0.9633
vt 0.5574 0.8217
vt 0.4411 0.8008
vt 0.4411 0.8008
vt 0.4094 0.9448
vt 0.5437 0.9633
vt 0.4282 0.3382
vt 0.4489 0.2264
vt 0.366 0.2995
vt 0.1858 0.5554
vt 0.2734 0.5811
vt 0.2823 0.5166
vt 0.2823 0.5166
vt 0.2078 0.4789
vt 0.1858 0.5554
vt 0.321 0.2516
vt 0.366 0.2995
vt 0.4489 0.2264
vt 0.4489 0.2264
vt 0.4006 0.1736
vt 0.321 0.2516
vt 0.4282 0.3382
vt 0.36 0.4344
vt 0.5928 0.4464
vt 0.5928 0.4464
vt 0.36 0.4344
vt 0.4395 0.6
vt 0.4395 0.6
vt 0.619 0.4932
vt 0.5928 0.4464
vt 0.7037 0.6814
vt 0.7238 0.5788
vt 0.619 0.4932
vt 0.4395 0.6
vt 0.6169 0.6082
vt 0.619 0.4932
vt 0.5574 0.8217
vt 0.6482 0.8054
vt 0.5546 0.7708
vt 0.5546 0.7708
vt 0.4433 0.7345
vt 0.4411 0.8008
vt 0.4411 0.8008
vt 0.5574 0.8217
vt 0.5546 0.7708
vt 0.4433 0.7345
vt 0.3435 0.686
vt 0.2953 0.7556
vt 0.2953 0.7556
vt 0.4411 0.8008
vt 0.4433 0.7345
vt 0.842 0.5432
vt 0.7238 0.5788
vt 0.7037 0.6814
vt 0.7037 0.6814
vt 0.8454 0.698
vt 0.842 0.5432
vt 0.6471 0.9565
vt 0.6482 0.8054
vt 0.5574 0.8217
vt 0.5574 0.8217
vt 0.5437 0.9633
vt 0.6471 0.9565
vt 0.5861 0.3858
vt 0.5928 0.4464
vt 0.7512 0.3729
vt 0.5029 0.2664
vt 0.5861 0.3858
vt 0.6542 0.3078
vt 0.6542 0.3078
vt 0.5585 0.2064
vt 0.5029 0.2664
vt 0.4282 0.3382
vt 0.5861 0.3858
vt 0.5029 0.2664
vt 0.4395 0.6
vt 0.36 0.4344
vt 0.2823 0.5166
vt 0.4489 0.2264
vt 0.5029 0.2664
vt 0.4811 0.193
vt 0.366 0.2995
vt 0.321 0.2516
vt 0.249 0.3191
vt 0.4282 0.3382
vt 0.366 0.2995
vt 0.36 0.4344
vt 0.366 0.2995
vt 0.249 0.3191
vt 0.36 0.4344
vt 0.2516 0.7047
vt 0.2734 0.5811
vt 0.1858 0.5554
vt 0.2516 0.7047
vt 0.3435 0.686
vt 0.2734 0.5811
vt 0.0981 0.5326
vt 0.1013 0.7171
vt 0.1722 0.7143
vt 0.1722 0.7143
vt 0.1858 0.5554
vt 0.0981 0.5326
vt 0.6482 0.8054
vt 0.7037 0.6814
vt 0.6169 0.6082
vt 0.6169 0.6082
vt 0.5546 0.7708
vt 0.6482 0.8054
vt 0.6169 0.6082
vt 0.4395 0.6
vt 0.4433 0.7345
vt 0.4433 0.7345
vt 0.5546 0.7708
vt 0.6169 0.6082
vt 0.3435 0.686
vt 0.4433 0.7345
vt 0.4395 0.6
vt 0.8454 0.698
vt 0.7037 0.6814
vt 0.6482 0.8054
vt 0.6482 0.8054
vt 0.8056 0.8086
vt 0.8454 0.698
vt 0.3435 0.686
vt 0.4395 0.6
vt 0.2734 0.5811
vt 0.1067 0.2804
vt 0.0735 0.2623
vt 0.0579 0.2783
vt 0.0579 0.2783
vt 0.1025 0.3023
vt 0.1067 0.2804
vt 0.1441 0.2752
vt 0.1067 0.2804
vt 0.1025 0.3023
vt 0.1025 0.3023
vt 0.1526 0.2957
vt 0.1441 0.2752
vt 0.171 0.2491
vt 0.1441 0.2752
vt 0.1526 0.2957
vt 0.1526 0.2957
vt 0.1892 0.261
vt 0.171 0.2491
vt 0.1772 0.2125
vt 0.171 0.2491
vt 0.1892 0.261
vt 0.1892 0.261
vt 0.1985 0.2112
vt 0.1772 0.2125
vt 0.1608 0.1795
vt 0.1772 0.2125
vt 0.1985 0.2112
vt 0.1985 0.2112
vt 0.1767 0.1654
vt 0.1608 0.1795
vt 0.1283 0.1621
vt 0.1608 0.1795
vt 0.1767 0.1654
vt 0.1767 0.1654
vt 0.1319 0.1413
vt 0.1283 0.1621
vt 0.0918 0.1667
vt 0.1283 0.1621
vt 0.1319 0.1413
vt 0.1319 0.1413
vt 0.0816 0.148
vt 0.0918 0.1667
vt 0.0648 0.1918
vt 0.0918 0.1667
vt 0.0816 0.148
vt 0.0816 0.148
vt 0.0449 0.1831
vt 0.0648 0.1918
vt 0.0449 0.1831
vt 0.036 0.2328
vt 0.0576 0.2283
vt 0.0576 0.2283
vt 0.0648 0.1918
vt 0.0449 0.1831
vt 0.0735 0.2623
vt 0.0576 0.2283
vt 0.036 0.2328
vt 0.036 0.2328
vt 0.0579 0.2783
vt 0.0735 0.2623
vt 0.0735 0.2623
vt 0.1067 0.2804
vt 0.1178 0.2202
vt 0.1067 0.2804
vt 0.1441 0.2752
vt 0.1178 0.2202
vt 0.1441 0.2752
vt 0.171 0.2491
vt 0.1178 0.2202
vt 0.171 0.2491
vt 0.1772 0.2125
vt 0.1178 0.2202
vt 0.1772 0.2125
vt 0.1608 0.1795
vt 0.1178 0.2202
vt 0.1608 0.1795
vt 0.1283 0.1621
vt 0.1178 0.2202
vt 0.1283 0.1621
vt 0.0918 0.1667
vt 0.1178 0.2202
vt 0.0918 0.1667
vt 0.0648 0.1918
vt 0.1178 0.2202
vt 0.0648 0.1918
vt 0.0576 0.2283
vt 0.1178 0.2202
vt 0.0576 0.2283
vt 0.0735 0.2623
vt 0.1178 0.2202
vt 0.1335 0.4339
vt 0.2078 0.4789
vt 0.249 0.3191
vt 0.0981 0.5326
vt 0.1858 0.5554
vt 0.2078 0.4789
vt 0.2078 0.4789
vt 0.1335 0.4339
vt 0.0981 0.5326
vt 0.1858 0.5554
vt 0.1722 0.7143
vt 0.2516 0.7047
vt 0.2683 0.8315
vt 0.4411 0.8008
vt 0.2953 0.7556
vt 0.2683 0.8315
vt 0.4094 0.9448
vt 0.4411 0.8008
vt 0.5585 0.2064
vt 0.6542 0.3078
vt 0.7059 0.2645
vt 0.7059 0.2645
vt 0.6089 0.1566
vt 0.5585 0.2064
vt 0.4489 0.2264
vt 0.4811 0.193
vt 0.4361 0.1412
vt 0.4282 0.3382
vt 0.5928 0.4464
vt 0.5861 0.3858
vt 0.36 0.4344
vt 0.2078 0.4789
vt 0.2823 0.5166
vt 0.4395 0.6
vt 0.2823 0.5166
vt 0.2734 0.5811
vt 0.7037 0.6814
vt 0.619 0.4932
vt 0.6169 0.6082
vt 0.6542 0.3078
vt 0.5861 0.3858
vt 0.7512 0.3729
vt 0.7512 0.3729
vt 0.7059 0.2645
vt 0.6542 0.3078
vt 0.7949 0.4496
vt 0.7238 0.5788
vt 0.842 0.5432
vt 0.4502 0.0142
vt 0.4502 0.1149
vt 0.5126 0.1149
vt 0.5126 0.1149
vt 0.5126 0.0142
vt 0.4502 0.0142
vt 0.0136 0.0142
vt 0.0136 0.1148
vt 0.076 0.1148
vt 0.076 0.1148
vt 0.076 0.0142
vt 0.0136 0.0142
vt 0.076 0.0142
vt 0.076 0.1148
vt 0.1384 0.1148
vt 0.1384 0.1148
vt 0.1384 0.0142
vt 0.076 0.0142
vt 0.1384 0.0142
vt 0.1384 0.1148
vt 0.2007 0.1148
vt 0.2007 0.1148
vt 0.2007 0.0142
vt 0.1384 0.0142
vt 0.2007 0.0142
vt 0.2007 0.1148
vt 0.2631 0.1148
vt 0.2631 0.1148
vt 0.2631 0.0142
vt 0.2007 0.0142
vt 0.2631 0.0142
vt 0.2631 0.1148
vt 0.3255 0.1148
vt 0.3255 0.1148
vt 0.3255 0.0142
vt 0.2631 0.0142
vt 0.3255 0.0142
vt 0.3255 0.1148
vt 0.3878 0.1148
vt 0.3878 0.1148
vt 0.3879 0.0142
vt 0.3255 0.0142
vt 0.3879 0.0142
vt 0.3878 0.1148
vt 0.4502 0.1149
vt 0.4502 0.1149
vt 0.4502 0.0142
vt 0.3879 0.0142
vt 0.9369 0.8582
vt 0.9198 0.9223
vt 0.9772 0.8891
vt 0.9772 0.8891
vt 0.9198 0.9223
vt 0.9838 0.9394
vt 0.9838 0.9394
vt 0.9198 0.9223
vt 0.9529 0.9797
vt 0.9529 0.9797
vt 0.9198 0.9223
vt 0.9026 0.9863
vt 0.9026 0.9863
vt 0.9198 0.9223
vt 0.8624 0.9554
vt 0.8624 0.9554
vt 0.9198 0.9223
vt 0.8558 0.9051
vt 0.8558 0.9051
vt 0.9198 0.9223
vt 0.8866 0.8649
vt 0.8866 0.8649
vt 0.9198 0.9223
vt 0.9369 0.8582
vt 0.0795 0.4123
vt 0.0613 0.4037
vt 0.0449 0.4213
vt 0.0449 0.4213
vt 0.0765 0.4362
vt 0.0795 0.4123
vt 0.0992 0.4084
vt 0.0795 0.4123
vt 0.0765 0.4362
vt 0.0765 0.4362
vt 0.1109 0.4297
vt 0.0992 0.4084
vt 0.113 0.3938
vt 0.0992 0.4084
vt 0.1109 0.4297
vt 0.1109 0.4297
vt 0.1348 0.404
vt 0.113 0.3938
vt 0.1154 0.374
vt 0.113 0.3938
vt 0.1348 0.404
vt 0.1348 0.404
vt 0.1391 0.3693
vt 0.1154 0.374
vt 0.1058 0.3564
vt 0.1154 0.374
vt 0.1391 0.3693
vt 0.1391 0.3693
vt 0.1222 0.3387
vt 0.1058 0.3564
vt 0.0876 0.3479
vt 0.1058 0.3564
vt 0.1222 0.3387
vt 0.1222 0.3387
vt 0.0906 0.3239
vt 0.0876 0.3479
vt 0.0678 0.3516
vt 0.0876 0.3479
vt 0.0906 0.3239
vt 0.0906 0.3239
vt 0.0562 0.3305
vt 0.0678 0.3516
vt 0.0541 0.3663
vt 0.0678 0.3516
vt 0.0562 0.3305
vt 0.0562 0.3305
vt 0.0323 0.356
vt 0.0541 0.3663
vt 0.0517 0.3862
vt 0.0541 0.3663
vt 0.0323 0.356
vt 0.0323 0.356
vt 0.0279 0.3907
vt 0.0517 0.3862
vt 0.0613 0.4037
vt 0.0517 0.3862
vt 0.0279 0.3907
vt 0.0279 0.3907
vt 0.0449 0.4213
vt 0.0613 0.4037
vt 0.0613 0.4037
vt 0.0795 0.4123
vt 0.0835 0.38
vt 0.0795 0.4123
vt 0.0992 0.4084
vt 0.0835 0.38
vt 0.0992 0.4084
vt 0.113 0.3938
vt 0.0835 0.38
vt 0.113 0.3938
vt 0.1154 0.374
vt 0.0835 0.38
vt 0.1154 0.374
vt 0.1058 0.3564
vt 0.0835 0.38
vt 0.1058 0.3564
vt 0.0876 0.3479
vt 0.0835 0.38
vt 0.0876 0.3479
vt 0.0678 0.3516
vt 0.0835 0.38
vt 0.0678 0.3516
vt 0.0541 0.3663
vt 0.0835 0.38
vt 0.0541 0.3663
vt 0.0517 0.3862
vt 0.0835 0.38
vt 0.0517 0.3862
vt 0.0613 0.4037
vt 0.0835 0.38
vt 0.249 0.3191
vt 0.2078 0.4789
vt 0.36 0.4344
vt 0.8297 0.8622
vt 0.8297 0.9576
vt 0.8018 0.9576
vt 0.8018 0.9576
vt 0.8018 0.8622
vt 0.8297 0.8622
vt 0.6739 0.8621
vt 0.7018 0.8621
vt 0.7018 0.9576
vt 0.7018 0.9576
vt 0.6739 0.9576
vt 0.6739 0.8621
vt 0.7018 0.9855
vt 0.7018 0.9576
vt 0.8018 0.9576
vt 0.8018 0.9576
vt 0.8018 0.9855
vt 0.7018 0.9855
vt 0.7005 0.9581
vt 0.7014 0.8627
vt 0.8014 0.8637
vt 0.8014 0.8637
vt 0.8005 0.9591
vt 0.7005 0.9581
vt 0.7018 0.8621
vt 0.7018 0.8343
vt 0.8018 0.8343
vt 0.8018 0.8343
vt 0.8018 0.8622
vt 0.7018 0.8621
vt 0.7018 0.9576
vt 0.7018 0.8621
vt 0.8018 0.8622
vt 0.8018 0.8622
vt 0.8018 0.9576
vt 0.7018 0.9576

usemtl Material

f 1/1/1 2/2/2 3/3/3
f 4/4/4 5/5/5 6/6/6
f 7/7/7 8/8/8 9/9/9
f 10/10/10 11/11/11 12/12/12
f 13/13/13 14/14/14 15/15/15
f 16/16/16 17/17/17 18/18/18
f 19/19/19 20/20/20 21/21/21
f 22/22/22 23/23/23 24/24/24
f 25/25/25 26/26/26 27/27/27
f 28/28/28 29/29/29 30/30/30
f 31/31/31 32/32/32 33/33/33
f 34/34/34 35/35/35 36/36/36
f 37/37/37 38/38/38 39/39/39
f 40/40/40 41/41/41 42/42/42
f 43/43/43 44/44/44 45/45/45
f 46/46/46 47/47/47 48/48/48
f 49/49/49 50/50/50 51/51/51
f 52/52/52 53/53/53 54/54/54
f 55/55/55 56/56/56 57/57/57
f 58/58/58 59/59/59 60/60/60
f 61/61/61 62/62/62 63/63/63
f 64/64/64 65/65/65 66/66/66
f 67/67/67 68/68/68 69/69/69
f 70/70/70 71/71/71 72/72/72
f 73/73/73 74/74/74 75/75/75
f 76/76/76 77/77/77 78/78/78
f 79/79/79 80/80/80 81/81/81
f 82/82/82 83/83/83 84/84/84
f 85/85/85 86/86/86 87/87/87
f 88/88/88 89/89/89 90/90/90
f 91/91/91 92/92/92 93/93/93
f 94/94/94 95/95/95 96/96/96
f 97/97/97 98/98/98 99/99/99
f 100/100/100 101/101/101 102/102/102
f 103/103/103 104/104/104 105/105/105
f 106/106/106 107/107/107 108/108/108
f 109/109/109 110/110/110 111/111/111
f 112/112/112 113/113/113 114/114/114
f 115/115/115 116/116/116 117/117/117
f 118/118/118 119/119/119 120/120/120
f 121/121/121 122/122/122 123/123/123
f 124/124/124 125/125/125 126/126/126
f 127/127/127 128/128/128 129/129/129
f 130/130/130 131/131/131 132/132/132
f 133/133/133 134/134/134 135/135/135
f 136/136/136 137/137/137 138/138/138
f 139/139/139 140/140/140 141/141/141
f 142/142/142 143/143/143 144/144/144
f 145/145/145 146/146/146 147/147/147
f 148/148/148 149/149/149 150/150/150
f 151/151/151 152/152/152 153/153/153
f 154/154/154 155/155/155 156/156/156
f 157/157/157 158/158/158 159/159/159
f 160/160/160 161/161/161 162/162/162
f 163/163/163 164/164/164 165/165/165
f 166/166/166 167/167/167 168/168/168
f 169/169/169 170/170/170 171/171/171
f 172/172/172 173/173/173 174/174/174
f 175/175/175 176/176/176 177/177/177
f 178/178/178 179/179/179 180/180/180
f 181/181/181 182/182/182 183/183/183
f 184/184/184 185/185/185 186/186/186
f 187/187/187 188/188/188 189/189/189
f 190/190/190 191/191/191 192/192/192
f 193/193/193 194/194/194 195/195/195
f 196/196/196 197/197/197 198/198/198
f 199/199/199 200/200/200 201/201/201
f 202/202/202 203/203/203 204/204/204
f 205/205/205 206/206/206 207/207/207
f 208/208/208 209/209/209 210/210/210
f 211/211/211 212/212/212 213/213/213
f 214/214/214 215/215/215 216/216/216
f 217/217/217 218/218/218 219/219/219
f 220/220/220 221/221/221 222/222/222
f 223/223/223 224/224/224 225/225/225
f 226/226/226 227/227/227 228/228/228
f 229/229/229 230/230/230 231/231/231
f 232/232/232 233/233/233 234/234/234
f 235/235/235 236/236/236 237/237/237
f 238/238/238 239/239/239 240/240/240
f 241/241/241 242/242/242 243/243/243
f 244/244/244 245/245/245 246/246/246
f 247/247/247 248/248/248 249/249/249
f 250/250/250 251/251/251 252/252/252
f 253/253/253 254/254/254 255/255/255
f 256/256/256 257/257/257 258/258/258
f 259/259/259 260/260/260 261/261/261
f 262/262/262 263/263/263 264/264/264
f 265/265/265 266/266/266 267/267/267
f 268/268/268 269/269/269 270/270/270
f 271/271/271 272/272/272 273/273/273
f 274/274/274 275/275/275 276/276/276
f 277/277/277 278/278/278 279/279/279
f 280/280/280 281/281/281 282/282/282
f 283/283/283 284/284/284 285/285/285
f 286/286/286 287/287/287 288/288/288
f 289/289/289 290/290/290 291/291/291
f 292/292/292 293/293/293 294/294/294
f 295/295/295 296/296/296 297/297/297
f 298/298/298 299/299/299 300/300/300
f 301/301/301 302/302/302 303/303/303
f 304/304/304 305/305/305 306/306/306
f 307/307/307 308/308/308 309/309/309
f 310/310/310 311/311/311 312/312/312
f 313/313/313 314/314/314 315/315/315
f 316/316/316 317/317/317 318/318/318
f 319/319/319 320/320/320 321/321/321
f 322/322/322 323/323/323 324/324/324
f 325/325/325 326/326/326 327/327/327
f 328/328/328 329/329/329 330/330/330
f 331/331/331 332/332/332 333/333/333
f 334/334/334 335/335/335 336/336/336
f 337/337/337 338/338/338 339/339/339
f 340/340/340 341/341/341 342/342/342
f 343/343/343 344/344/344 345/345/345
f 346/346/346 347/347/347 348/348/348
f 349/349/349 350/350/350 351/351/351
f 352/352/352 353/353/353 354/354/354
f 355/355/355 356/356/356 357/357/357
f 358/358/358 359/359/359 360/360/360
f 361/361/361 362/362/362 363/363/363
f 364/364/364 365/365/365 366/366/366
f 367/367/367 368/368/368 369/369/369
f 370/370/370 371/371/371 372/372/372
f 373/373/373 374/374/374 375/375/375
f 376/376/376 377/377/377 378/378/378
f 379/379/379 380/380/380 381/381/381
f 382/382/382 383/383/383 384/384/384
f 385/385/385 386/386/386 387/387/387
f 388/388/388 389/389/389 390/390/390
f 391/391/391 392/392/392 393/393/393
f 394/394/394 395/395/395 396/396/396
f 397/397/397 398/398/398 399/399/399
f 400/400/400 401/401/401 402/402/402
f 403/403/403 404/404/404 405/405/405
f 406/406/406 407/407/407 408/408/408
f 409/409/409 410/410/410 411/411/411
f 412/412/412 413/413/413 414/414/414
f 415/415/415 416/416/416 417/417/417
f 418/418/418 419/419/419 420/420/420
f 421/421/421 422/422/422 423/423/423
f 424/424/424 425/425/425 426/426/426
f 427/427/427 428/428/428 429/429/429
f 430/430/430 431/431/431 432/432/432
f 433/433/433 434/434/434 435/435/435
f 436/436/436 437/437/437 438/438/438
f 439/439/439 440/440/440 441/441/441
f 442/442/442 443/443/443 444/444/444
f 445/445/445 446/446/446 447/447/447
f 448/448/448 449/449/449 450/450/450
f 451/451/451 452/452/452 453/453/453
f 454/454/454 455/455/455 456/456/456
f 457/457/457 458/458/458 459/459/459
f 460/460/460 461/461/461 462/462/462
f 463/463/463 464/464/464 465/465/465
f 466/466/466 467/467/467 468/468/468
f 469/469/469 470/470/470 471/471/471
f 472/472/472 473/473/473 474/474/474
f 475/475/475 476/476/476 477/477/477
f 478/478/478 479/479/479 480/480/480
f 481/481/481 482/482/482 483/483/483
f 484/484/484 485/485/485 486/486/486
f 487/487/487 488/488/488 489/489/489
f 490/490/490 491/491/491 492/492/492
f 493/493/493 494/494/494 495/495/495
f 496/496/496 497/497/497 498/498/498
f 499/499/499 500/500/500 501/501/501
f 502/502/502 503/503/503 504/504/504
f 505/505/505 506/506/506 507/507/507
f 508/508/508 509/509/509 510/510/510
f 511/511/511 512/512/512 513/513/513
f 514/514/514 515/515/515 516/516/516
f 517/517/517 518/518/518 519/519/519
f 520/520/520 521/521/521 522/522/522
f 523/523/523 524/524/524 525/525/525
f 526/526/526 527/527/527 528/528/528
f 529/529/529 530/530/530 531/531/531
f 532/532/532 533/533/533 534/534/534
f 535/535/535 536/536/536 537/537/537
f 538/538/538 539/539/539 540/540/540
f 541/541/541 542/542/542 543/543/543
f 544/544/544 545/545/545 546/546/546
f 547/547/547 548/548/548 549/549/549
f 550/550/550 551/551/551 552/552/552
f 553/553/553 554/554/554 555/555/555
f 556/556/556 557/557/557 558/558/558
f 559/559/559 560/560/560 561/561/561
f 562/562/562 563/563/563 564/564/564
f 565/565/565 566/566/566 567/567/567
f 568/568/568 569/569/569 570/570/570
f 571/571/571 572/572/572 573/573/573
f 574/574/574 575/575/575 576/576/576
f 577/577/577 578/578/578 579/579/579
f 580/580/580 581/581/581 582/582/582
f 583/583/583 584/584/584 585/585/585
f 586/586/586 587/587/587 588/588/588
f 589/589/589 590/590/590 591/591/591
f 592/592/592 593/593/593 594/594/594
f 595/595/595 596/596/596 597/597/597
f 598/598/598 599/599/599 600/600/600
f 601/601/601 602/602/602 603/603/603
f 604/604/604 605/605/605 606/606/606
f 607/607/607 608/608/608 609/609/609
f 610/610/610 611/611/611 612/612/612
f 613/613/613 614/614/614 615/615/615
f 616/616/616 617/617/617 618/618/618
f 619/619/619 620/620/620 621/621/621
f 622/622/622 623/623/623 624/624/624
f 625/625/625 626/626/626 627/627/627
f 628/628/628 629/629/629 630/630/630
f 631/631/631 632/632/632 633/633/633
f 634/634/634 635/635/635 636/636/636
f 637/637/637 638/638/638 639/639/639
f 640/640/640 641/641/641 642/642/642
f 643/643/643 644/644/644 645/645/645
f 646/646/646 647/647/647 648/648/648
f 649/649/649 650/650/650 651/651/651
f 652/652/652 653/653/653 654/654/654
f 655/655/655 656/656/656 657/657/657
f 658/658/658 659/659/659 660/660/660
f 661/661/661 662/662/662 663/663/663
f 664/664/664 665/665/665 666/666/666
f 667/667/667 668/668/668 669/669/669
f 670/670/670 671/671/671 672/672/672
f 673/673/673 674/674/674 675/675/675
f 676/676/676 677/677/677 678/678/678
f 679/679/679 680/680/680 681/681/681
f 682/682/682 683/683/683 684/684/684
f 685/685/685 686/686/686 687/687/687
f 688/688/688 689/689/689 690/690/690
f 691/691/691 692/692/692 693/693/693
f 694/694/694 695/695/695 696/696/696
f 697/697/697 698/698/698 699/699/699
f 700/700/700 701/701/701 702/702/702
f 703/703/703 704/704/704 705/705/705
f 706/706/706 707/707/707 708/708/708
f 709/709/709 710/710/710 711/711/711
f 712/712/712 713/713/713 714/714/714
f 715/715/715 716/716/716 717/717/717
f 718/718/718 719/719/719 720/720/720
f 721/721/721 722/722/722 723/723/723
f 724/724/724 725/725/725 726/726/726
f 727/727/727 728/728/728 729/729/729
f 730/730/730 731/731/731 732/732/732
f 733/733/733 734/734/734 735/735/735
f 736/736/736 737/737/737 738/738/738
f 739/739/739 740/740/740 741/741/741
f 742/742/742 743/743/743 744/744/744
f 745/745/745 746/746/746 747/747/747
f 748/748/748 749/749/749 750/750/750
f 751/751/751 752/752/752 753/753/753
f 754/754/754 755/755/755 756/756/756
f 757/757/757 758/758/758 759/759/759
f 760/760/760 761/761/761 762/762/762
f 763/763/763 764/764/764 765/765/765
f 766/766/766 767/767/767 768/768/768
f 769/769/769 770/770/770 771/771/771
f 772/772/772 773/773/773 774/774/774
f 775/775/775 776/776/776 777/777/777
f 778/778/778 779/779/779 780/780/780
f 781/781/781 782/782/782 783/783/783
f 784/784/784 785/785/785 786/786/786
f 787/787/787 788/788/788 789/789/789
f 790/790/790 791/791/791 792/792/792
f 793/793/793 794/794/794 795/795/795
f 796/796/796 797/797/797 798/798/798
f 799/799/799 800/800/800 801/801/801
f 802/802/802 803/803/803 804/804/804
f 805/805/805 806/806/806 807/807/807
f 808/808/808 809/809/809 810/810/810
f 811/811/811 812/812/812 813/813/813
f 814/814/814 815/815/815 816/816/816
f 817/817/817 818/818/818 819/819/819
f 820/820/820 821/821/821 822/822/822
f 823/823/823 824/824/824 825/825/825
f 826/826/826 827/827/827 828/828/828
f 829/829/829 830/830/830 831/831/831
f 832/832/832 833/833/833 834/834/834
f 835/835/835 836/836/836 837/837/837
f 838/838/838 839/839/839 840/840/840
f 841/841/841 842/842/842 843/843/843
f 844/844/844 845/845/845 846/846/846
f 847/847/847 848/848/848 849/849/849
f 850/850/850 851/851/851 852/852/852
f 853/853/853 854/854/854 855/855/855
f 856/856/856 857/857/857 858/858/858
f 859/859/859 860/860/860 861/861/861
f 862/862/862 863/863/863 864/864/864
f 865/865/865 866/866/866 867/867/867
f 868/868/868 869/869/869 870/870/870
f 871/871/871 872/872/872 873/873/873
f 874/874/874 875/875/875 876/876/876
f 877/877/877 878/878/878 879/879/879
f 880/880/880 881/881/881 882/882/882
f 883/883/883 884/884/884 885/885/885
f 886/886/886 887/887/887 888/888/888
f 889/889/889 890/890/890 891/891/891
f 892/892/892 893/893/893 894/894/894
f 895/895/895 896/896/896 897/897/897
f 898/898/898 899/899/899 900/900/900
f 901/901/901 902/902/902 903/903/903
f 904/904/904 905/905/905 906/906/906
f 907/907/907 908/908/908 909/909/909
f 910/910/910 911/911/911 912/912/912
f 913/913/913 914/914/914 915/915/915
f 916/916/916 917/917/917 918/918/918
f 919/919/919 920/920/920 921/921/921
f 922/922/922 923/923/923 924/924/924
f 925/925/925 926/926/926 927/927/927
f 928/928/928 929/929/929 930/930/930