o Mesh

v 0.16686899960041046 -1.0049350261688232 -0.4039050042629242
v 0.07762199640274048 -1.0049350261688232 -0.5099499821662903
v 0.08215899765491486 -0.9130079746246338 -0.4680899977684021
v 0.17377200722694397 -0.9485230445861816 -0.36757299304008484
v 0.2299879938364029 1.0 0.19547900557518005
v 0.27118200063705444 1.0 -0.06783200055360794
v 0.09411299973726273 1.1971700191497803 -0.041891999542713165
v 0.09411299973726273 1.1971700191497803 0.2058580070734024
v 0.12365700304508209 -1.0049340724945068 0.1878580003976822
v 0.09495300054550171 -0.8611609935760498 0.17219899594783783
v 0.01670300029218197 -0.8582140207290649 0.28933700919151306
v 0.03655000030994415 -1.0049340724945068 0.31418800354003906
v 0.12365700304508209 -1.0049340724945068 0.1878580003976822
v 0.03655000030994415 -1.0049340724945068 0.31418800354003906
v 0.031915999948978424 -1.0049340724945068 0.1006769984960556
v 0.13424499332904816 -1.0049340724945068 0.033757999539375305
v 0.13424499332904816 -1.0049340724945068 0.033757999539375305
v 0.10455100238323212 -0.8611609935760498 0.035767000168561935
v -0.3140070140361786 -1.0049340724945068 0.033757999539375305
v -0.3004849851131439 -1.0049340724945068 0.1878580003976822
v -0.27206701040267944 -0.8611609935760498 0.17219899594783783
v -0.28450798988342285 -0.8611609935760498 0.035767000168561935
v 0.00076299998909235 -0.5486600399017334 -0.10853300243616104
v 0.03719199821352959 -0.2438809871673584 -0.19664600491523743
v 0.13178899884223938 -0.2718930244445801 -0.08698099851608276
v 0.07165999710559845 -0.6390360593795776 -0.02572700008749962
v -0.3041970133781433 -0.2710390090942383 0.13035599887371063
v -0.3142380118370056 -0.27222001552581787 0.012993999756872654
v -0.25022798776626587 -0.6400899887084961 0.047460999339818954
v -0.2387620061635971 -0.6362799406051636 0.13213199377059937
v 0.12779100239276886 -0.2710390090942383 0.13035599887371063
v 0.03719199821352959 -0.2617110013961792 0.2472440004348755
v 0.00076299998909235 -0.606186032295227 0.21338100731372833
v 0.060194000601768494 -0.6362799406051636 0.13213199377059937
v 0.07165999710559845 -0.6400899887084961 0.047460999339818954
v 0.14427800476551056 -0.27222001552581787 0.012993999756872654
v 0.08557099848985672 1.1971700191497803 -0.19898299872875214
v 0.2299879938364029 1.0 -0.23811599612236023
v 0.10218600183725357 0.9950199723243713 -0.3646419942378998
v -0.3584370017051697 0.7066699862480164 -0.08787000179290771
v -0.32846900820732117 0.448170006275177 -0.08944600075483322
v -0.30520200729370117 0.448170006275177 0.05102099850773811
v -0.3335390090942383 0.7092859745025635 0.122919000685215
v 0.09411299973726273 1.1971700191497803 0.2058580070734024
v 0.10221800208091736 1.0031399726867676 0.30456098914146423
v 0.2299879938364029 1.0 0.19547900557518005
v 0.19950899481773376 0.448170006275177 0.05102099850773811
v 0.2347719967365265 0.448170006275177 -0.08944600075483322
v 0.26590999960899353 0.7066699862480164 -0.08787000179290771
v 0.22817499935626984 0.7092859745025635 0.122919000685215
v 0.1369290053844452 0.1428380012512207 -0.2138410061597824
v 0.058024998754262924 0.1596059799194336 -0.3692629933357239
v 0.05746399983763695 0.28136998414993286 -0.34736499190330505
v 0.1593099981546402 0.28136998414993286 -0.2186249941587448
v -0.31793099641799927 0.13445502519607544 -0.07388699799776077
v -0.3099449872970581 0.1270819902420044 0.07199600338935852
v -0.3040890097618103 0.28136998414993286 0.048406001180410385
v -0.31329500675201416 0.28136998414993286 -0.09611999988555908
v 0.1369290053844452 0.1270819902420044 0.07199600338935852
v 0.1593099981546402 0.28136998414993286 0.048406001180410385
v 0.05746399983763695 0.28136998414993286 0.19411499798297882
v 0.04165399819612503 0.12448102235794067 0.21264900267124176
v 0.1557459980249405 0.13445502519607544 -0.07388699799776077
v 0.19557100534439087 0.28136998414993286 -0.09611999988555908
v 0.1340389996767044 -1.0049340724945068 -0.11615599691867828
v 0.031915999948978424 -1.0049340724945068 -0.09060700237751007
v 0.06277599930763245 -1.0049340724945068 -0.30299800634384155
v 0.1649409979581833 -1.0049340724945068 -0.261896014213562
v 0.1466349959373474 -0.9301420450210571 -0.22775200009346008
v 0.09495300054550171 -0.8302459716796875 -0.060759998857975006
v 0.1340389996767044 -1.0049340724945068 -0.11615599691867828
v 0.1649409979581833 -1.0049340724945068 -0.261896014213562
v 0.01670300029218197 -0.7404580116271973 -0.14170700311660767
v 0.09495300054550171 -0.8302459716796875 -0.060759998857975006
v 0.1466349959373474 -0.9301420450210571 -0.22775200009346008
v 0.05658699944615364 -0.8922549486160278 -0.33664900064468384
v -0.31019100546836853 -1.0049340724945068 -0.11615599691867828
v -0.28099799156188965 -0.8302459716796875 -0.060759998857975006
v -0.32826998829841614 -0.9301420450210571 -0.22775200009346008
v -0.34119901061058044 -1.0049340724945068 -0.261896014213562
v -0.23500999808311462 0.1596059799194336 -0.3692629933357239
v -0.3099449872970581 0.14283901453018188 -0.2138410061597824
v -0.3040890097618103 0.28136998414993286 -0.2186249941587448
v -0.22078000009059906 0.28136998414993286 -0.34736499190330505
v -0.30819499492645264 -0.2718930244445801 -0.08698099851608276
v -0.2175379991531372 -0.2438809871673584 -0.19664600491523743
v -0.18228499591350555 -0.5486600399017334 -0.10853300243616104
v -0.25022798776626587 -0.6390360593795776 -0.02572700008749962
v -0.1970759928226471 -0.7404580116271973 -0.14170700311660767
v -0.23772799968719482 -0.8922549486160278 -0.33664900064468384
v -0.32826998829841614 -0.9301420450210571 -0.22775200009346008
v -0.28099799156188965 -0.8302459716796875 -0.060759998857975006
v -0.26350098848342896 -0.9130079746246338 -0.4680899977684021
v -0.25910699367523193 -1.0049340724945068 -0.5099499821662903
v -0.34321901202201843 -1.0049340724945068 -0.4039050042629242
v -0.34984299540519714 -0.9485230445861816 -0.36757299304008484
v -0.24414999783039093 -1.0049340724945068 -0.30299800634384155
v -0.21257899701595306 -1.0049340724945068 -0.09060700237751007
v -0.31019100546836853 -1.0049340724945068 -0.11615599691867828
v -0.34119901061058044 -1.0049340724945068 -0.261896014213562
v -0.21257899701595306 -1.0049340724945068 0.1006769984960556
v -0.21724499762058258 -1.0049340724945068 0.31418800354003906
v -0.3004849851131439 -1.0049340724945068 0.1878580003976822
v -0.3140070140361786 -1.0049340724945068 0.033757999539375305
v -0.1970759928226471 -0.8582140207290649 0.28933700919151306
v -0.21724499762058258 -1.0049340724945068 0.31418800354003906
v -0.18228499591350555 -0.606186032295227 0.21338100731372833
v -0.2175379991531372 -0.2617110013961792 0.2472440004348755
v -0.22078000009059906 0.28136998414993286 0.19411499798297882
v -0.21863800287246704 0.12448102235794067 0.21264900267124176
v -0.3669309914112091 1.0 0.19547900557518005
v -0.2443930059671402 0.9898800253868103 0.3036220073699951
v -0.25266098976135254 1.1971700191497803 0.2058580070734024
v -0.25266098976135254 1.1971700191497803 -0.04189100116491318
v -0.3941119909286499 1.0 -0.06783200055360794
v -0.3669309914112091 1.0 0.19547900557518005
v -0.25266098976135254 1.1971700191497803 0.2058580070734024
v -0.3669309914112091 1.0 -0.23811599612236023
v -0.24311399459838867 1.1971700191497803 -0.19898200035095215
v -0.24442599713802338 0.99795001745224 -0.3646959960460663
v 0.058024998754262924 0.1596059799194336 -0.3692629933357239
v -0.035982001572847366 0.1596059799194336 -0.40149199962615967
v -0.03179899975657463 0.28136998414993286 -0.36747100949287415
v 0.05746399983763695 0.28136998414993286 -0.34736499190330505
v -0.06137299910187721 -0.5242389440536499 -0.1263819932937622
v -0.0457179993391037 -0.2363109588623047 -0.21509000658988953
v -0.05187800154089928 -0.7341170310974121 -0.1684039980173111
v -0.03783100098371506 -0.8848459720611572 -0.36446699500083923
v -0.03040199913084507 -1.0049350261688232 -0.5951290130615234
v -0.028730999678373337 -0.9045590162277222 -0.5516780018806458
v -0.046519000083208084 -1.0049340724945068 -0.09060700237751007
v -0.03568800166249275 -1.0049340724945068 -0.3184469938278198
v -0.04486899822950363 -1.0049340724945068 0.3669550120830536
v -0.046519000083208084 -1.0049340724945068 0.12362200021743774
v 0.03655000030994415 -1.0049340724945068 0.31418800354003906
v 0.01670300029218197 -0.8582140207290649 0.28933700919151306
v -0.05187800154089928 -0.8582140207290649 0.339352011680603
v -0.04486899822950363 -1.0049340724945068 0.3669550120830536
v 0.00076299998909235 -0.606186032295227 0.21338100731372833
v 0.03719199821352959 -0.2617110013961792 0.2472440004348755
v -0.0457179993391037 -0.2617110013961792 0.27664199471473694
v -0.06137299910187721 -0.606186032295227 0.24524100124835968
v 0.04165399819612503 0.12448102235794067 0.21264900267124176
v 0.05746399983763695 0.28136998414993286 0.19411499798297882
v -0.03179899975657463 0.28136998414993286 0.20694099366664886
v -0.041850000619888306 0.12448102235794067 0.23648400604724884
v 0.10221800208091736 1.0031399726867676 0.30456098914146423
v 0.09411299973726273 1.1971700191497803 0.2058580070734024
v -0.01713399961590767 1.1971700191497803 0.2058580070734024
v -0.008976000361144543 0.9988800287246704 0.3399890065193176
v 0.09411299973726273 1.1971700191497803 -0.041891999542713165
v -0.01713399961590767 1.1971700191497803 -0.059780001640319824
v -0.01713399961590767 1.1971700191497803 0.2058580070734024
v 0.09411299973726273 1.1971700191497803 0.2058580070734024
v -0.009008999913930893 0.995959997177124 -0.39771100878715515
v -0.0198730006814003 1.1971700191497803 -0.23203499615192413
v 0.18596699833869934 -0.07366204261779785 -0.169731006026268
v 0.07380799949169159 -0.07366204261779785 -0.27243301272392273
v 0.20601299405097961 -0.07366204261779785 -0.03742599859833717
v 0.18596699833869934 -0.07366204261779785 0.11866199970245361
v 0.07380799949169159 -0.07366204261779785 0.27602800726890564
v -0.02449299953877926 -0.07366204261779785 0.30852600932121277
v 0.07380799949169159 -0.07366204261779785 0.27602800726890564
v -0.34009799361228943 -0.07366204261779785 0.11866199970245361
v -0.23261100053787231 -0.07366204261779785 0.27602800726890564
v -0.34979701042175293 -0.07366204261779785 -0.03742599859833717
v -0.23261100053787231 -0.07366204261779785 -0.27243301272392273
v -0.34009799361228943 -0.07366204261779785 -0.169731006026268
v -0.02449299953877926 -0.07366204261779785 -0.2941479980945587
v -0.035982001572847366 0.1596059799194336 -0.40149199962615967
v -0.21851299703121185 0.4476799964904785 -0.35910698771476746
v -0.31104499101638794 0.448170006275177 -0.2309820055961609
v -0.3335390090942383 0.7066699862480164 -0.2484540045261383
v -0.22566699981689453 0.7054200172424316 -0.3811419904232025
v -0.0013419999741017818 0.704200029373169 -0.40966200828552246
v 0.11562900245189667 0.7036190032958984 -0.38110899925231934
v 0.09806100279092789 0.44697999954223633 -0.3590950071811676
v -0.013341999612748623 0.4472090005874634 -0.3816379904747009
v 0.11562900245189667 0.7036190032958984 -0.38110899925231934
v 0.22817499935626984 0.7066699862480164 -0.2484540045261383
v 0.19950899481773376 0.448170006275177 -0.2309820055961609
v 0.09806100279092789 0.44697999954223633 -0.3590950071811676
v 0.11564599722623825 0.7112259864807129 0.2502869963645935
v 0.09806700050830841 0.44892001152038574 0.18472300469875336
v 0.11564599722623825 0.7112259864807129 0.2502869963645935
v -0.001323999953456223 0.7086060047149658 0.2772339880466461
v -0.00164899998344481 0.4478999972343445 0.20235900580883026
v 0.09806700050830841 0.44892001152038574 0.18472300469875336
v -0.20668800175189972 0.44576001167297363 0.1845099925994873
v -0.22564999759197235 0.7030860185623169 0.24971500039100647
v -0.12207400053739548 -0.7341170310974121 -0.1684039980173111
v -0.13447099924087524 -0.8848459720611572 -0.36446699500083923
v -0.14223000407218933 -0.9045590162277222 -0.5516780018806458
v -0.14096899330615997 -1.0049350261688232 -0.5951290130615234
v -0.1364690065383911 -1.0049340724945068 -0.3184469938278198
v -0.126800999045372 -1.0049340724945068 -0.09060700237751007
v -0.126800999045372 -1.0049340724945068 0.12362200021743774
v -0.12820400297641754 -1.0049340724945068 0.3669550120830536
v -0.12207400053739548 -0.8582140207290649 0.339352011680603
v -0.1970759928226471 -0.8582140207290649 0.28933700919151306
v -0.21724499762058258 -1.0049340724945068 0.31418800354003906
v -0.12820400297641754 -1.0049340724945068 0.3669550120830536
v -0.12686799466609955 -0.2617110013961792 0.27664199471473694
v -0.2175379991531372 -0.2617110013961792 0.2472440004348755
v -0.18228499591350555 -0.606186032295227 0.21338100731372833
v -0.11433099955320358 -0.606186032295227 0.24524100124835968
v -0.12731799483299255 0.12448102235794067 0.23648400604724884
v -0.21863800287246704 0.12448102235794067 0.21264900267124176
v -0.23261100053787231 -0.07366204261779785 0.27602800726890564
v -0.12510700523853302 -0.07366204261779785 0.30852600932121277
v -0.12316200137138367 0.28136998414993286 0.20694099366664886
v -0.22078000009059906 0.28136998414993286 0.19411499798297882
v -0.12182600051164627 0.44686001539230347 0.20228999853134155
v -0.118258997797966 0.7059360146522522 0.27704599499702454
v -0.22564999759197235 0.7030860185623169 0.24971500039100647
v -0.20668800175189972 0.44576001167297363 0.1845099925994873
v -0.13099899888038635 1.1971700191497803 0.2058580070734024
v -0.25266098976135254 1.1971700191497803 0.2058580070734024
v -0.2443930059671402 0.9898800253868103 0.3036220073699951
v -0.12278900295495987 0.9945300221443176 0.3396809995174408
v -0.13099899888038635 1.1971700191497803 0.2058580070734024
v -0.13099899888038635 1.1971700191497803 -0.05977899953722954
v -0.25266098976135254 1.1971700191497803 -0.04189100116491318
v -0.25266098976135254 1.1971700191497803 0.2058580070734024
v -0.12779900431632996 1.1971700191497803 -0.23203499615192413
v -0.12282100319862366 0.9969199895858765 -0.3977290093898773
v -0.11827699840068817 0.7047899961471558 -0.40967199206352234
v -0.1140419989824295 0.4474400281906128 -0.38164201378822327
v -0.21851299703121185 0.4476799964904785 -0.35910698771476746
v -0.22566699981689453 0.7054200172424316 -0.3811419904232025
v -0.13220199942588806 0.1596059799194336 -0.40149199962615967
v -0.23500999808311462 0.1596059799194336 -0.3692629933357239
v -0.22078000009059906 0.28136998414993286 -0.34736499190330505
v -0.12316200137138367 0.28136998414993286 -0.36747100949287415
v -0.12510700523853302 -0.07366204261779785 -0.2941479980945587
v -0.13220199942588806 0.1596059799194336 -0.40149199962615967
v -0.1293410062789917 -0.2363109588623047 -0.21509000658988953
v -0.12142500281333923 -0.5242389440536499 -0.1263819932937622
v -0.03040199913084507 -1.0049350261688232 -0.5951290130615234
v -0.14096899330615997 -1.0049350261688232 -0.5951290130615234
v -0.14223000407218933 -0.9045590162277222 -0.5516780018806458
v -0.028730999678373337 -0.9045590162277222 -0.5516780018806458
v 0.10218600183725357 0.9950199723243713 -0.3646419942378998
v 0.2299879938364029 1.0 -0.23811599612236023
v -0.009008999913930893 0.995959997177124 -0.39771100878715515
v 0.10218600183725357 0.9950199723243713 -0.3646419942378998
v -0.12282100319862366 0.9969199895858765 -0.3977290093898773
v -0.24442599713802338 0.99795001745224 -0.3646959960460663
v -0.24442599713802338 0.99795001745224 -0.3646959960460663
v -0.3669309914112091 1.0 -0.23811599612236023
v -0.3941119909286499 1.0 -0.06783200055360794
v -0.3669309914112091 1.0 0.19547900557518005
v -0.2443930059671402 0.9898800253868103 0.3036220073699951
v -0.12278900295495987 0.9945300221443176 0.3396809995174408
v -0.2443930059671402 0.9898800253868103 0.3036220073699951
v -0.008976000361144543 0.9988800287246704 0.3399890065193176
v 0.10221800208091736 1.0031399726867676 0.30456098914146423
v 0.2299879938364029 1.0 0.19547900557518005
v 0.10221800208091736 1.0031399726867676 0.30456098914146423
v 0.27118200063705444 1.0 -0.06783200055360794
v -0.1970759928226471 -0.7404580116271973 -0.14170700311660767
v -0.28099799156188965 -0.8302459716796875 -0.060759998857975006
v -0.12207400053739548 -0.7341170310974121 -0.1684039980173111
v -0.05187800154089928 -0.7341170310974121 -0.1684039980173111
v 0.01670300029218197 -0.7404580116271973 -0.14170700311660767
v 0.09495300054550171 -0.8302459716796875 -0.060759998857975006
v 0.07165999710559845 -0.6390360593795776 -0.02572700008749962
v 0.13178899884223938 -0.2718930244445801 -0.08698099851608276
v -0.25022798776626587 -0.6390360593795776 -0.02572700008749962
v -0.30819499492645264 -0.2718930244445801 -0.08698099851608276
v -0.34009799361228943 -0.07366204261779785 -0.169731006026268
v -0.3099449872970581 0.14283901453018188 -0.2138410061597824
v -0.3040890097618103 0.28136998414993286 -0.2186249941587448
v -0.31104499101638794 0.448170006275177 -0.2309820055961609
v -0.3335390090942383 0.7066699862480164 -0.2484540045261383
v -0.3669309914112091 1.0 -0.23811599612236023
v -0.24311399459838867 1.1971700191497803 -0.19898200035095215
v -0.3669309914112091 1.0 -0.23811599612236023
v -0.12779900431632996 1.1971700191497803 -0.23203499615192413
v -0.24311399459838867 1.1971700191497803 -0.19898200035095215
v -0.0198730006814003 1.1971700191497803 -0.23203499615192413
v 0.08557099848985672 1.1971700191497803 -0.19898299872875214
v 0.2299879938364029 1.0 -0.23811599612236023
v 0.08557099848985672 1.1971700191497803 -0.19898299872875214
v 0.22817499935626984 0.7066699862480164 -0.2484540045261383
v 0.2299879938364029 1.0 -0.23811599612236023
v 0.19950899481773376 0.448170006275177 -0.2309820055961609
v 0.1593099981546402 0.28136998414993286 -0.2186249941587448
v 0.1369290053844452 0.1428380012512207 -0.2138410061597824
v 0.18596699833869934 -0.07366204261779785 -0.169731006026268
v 0.17377200722694397 -0.9485230445861816 -0.36757299304008484
v 0.16686899960041046 -1.0049350261688232 -0.4039050042629242
v 0.16686899960041046 -1.0049350261688232 -0.4039050042629242
v 0.07762199640274048 -1.0049350261688232 -0.5099499821662903
v -0.03040199913084507 -1.0049350261688232 -0.5951290130615234
v -0.14096899330615997 -1.0049350261688232 -0.5951290130615234
v -0.25910699367523193 -1.0049340724945068 -0.5099499821662903
v -0.34321901202201843 -1.0049340724945068 -0.4039050042629242
v -0.34984299540519714 -0.9485230445861816 -0.36757299304008484
v -0.34321901202201843 -1.0049340724945068 -0.4039050042629242
v -0.26350098848342896 -0.9130079746246338 -0.4680899977684021
v -0.34984299540519714 -0.9485230445861816 -0.36757299304008484
v -0.14223000407218933 -0.9045590162277222 -0.5516780018806458
v -0.028730999678373337 -0.9045590162277222 -0.5516780018806458
v 0.08215899765491486 -0.9130079746246338 -0.4680899977684021
v 0.17377200722694397 -0.9485230445861816 -0.36757299304008484

vn 0.7512199878692627 0.2724910080432892 -0.6011800169944763
vn 0.6515470147132874 0.2880359888076782 -0.7017989754676819
vn 0.6789720058441162 0.28384700417518616 -0.6770730018615723
vn 0.7563490271568298 0.2862800061702728 -0.5881999731063843
vn 0.7862769961357117 0.6148880124092102 0.06067400053143501
vn 0.7621039748191833 0.6472799777984619 -0.015048000030219555
vn 0.7656999826431274 0.6430580019950867 0.01344900019466877
vn 0.8234170079231262 0.5674369931221008 -0.0
vn 0.9217169880867004 0.2142139971256256 0.3233419954776764
vn 0.9242039918899536 0.21004100143909454 0.3189510107040405
vn 0.6916400194168091 0.2424200028181076 0.680342972278595
vn 0.6871989965438843 0.20041899383068085 0.6982769966125488
vn -0.0 -1.0 9.999999974752427e-07
vn -0.0 -1.0 9.999999974752427e-07
vn -0.0 -1.0 9.999999974752427e-07
vn -0.0 -1.0 9.999999974752427e-07
vn 0.9777489900588989 0.2079160064458847 0.027881000190973282
vn 0.9833329916000366 0.1809989959001541 0.017191000282764435
vn -0.9807800054550171 0.19116799533367157 0.03905300050973892
vn -0.9223120212554932 0.2128400057554245 0.32255199551582336
vn -0.9257500171661377 0.20413799583911896 0.31829899549484253
vn -0.9819759726524353 0.1800689995288849 0.05742599815130234
vn 0.5127829909324646 -0.06270500272512436 -0.8562260270118713
vn 0.4258809983730316 -0.38694700598716736 -0.817861020565033
vn 0.8571289777755737 -0.31500300765037537 -0.40755701065063477
vn 0.9500139951705933 0.009686999954283237 -0.3120580017566681
vn -0.921205997467041 -0.15851899981498718 0.35531800985336304
vn -0.9850329756736755 -0.17167900502681732 0.015389000065624714
vn -0.9975789785385132 -0.0076859998516738415 0.06911499798297882
vn -0.9373289942741394 0.02761100046336651 0.34735000133514404
vn 0.8972460031509399 -0.21068499982357025 0.3880220055580139
vn 0.56597900390625 -0.18572600185871124 0.8032270073890686
vn 0.6539379954338074 0.0491349995136261 0.754951000213623
vn 0.9328460097312927 0.0249170009046793 0.3594129979610443
vn 0.9974740147590637 -0.02338000014424324 0.06707099825143814
vn 0.9707069993019104 -0.23968900740146637 0.01663300022482872
vn 0.35394400358200073 0.6100450158119202 -0.7089210152626038
vn 0.5792340040206909 0.5446379780769348 -0.6065120100975037
vn 0.37658700346946716 0.6045659780502319 -0.7019129991531372
vn -0.9929140210151672 -0.11795900017023087 -0.014433000236749649
vn -0.9961649775505066 -0.08612299710512161 0.015416000038385391
vn -0.9246580004692078 -0.09929300099611282 0.36762499809265137
vn -0.9042699933052063 -0.19177499413490295 0.3814690113067627
vn 0.6057990193367004 0.38069599866867065 0.6986259818077087
vn 0.6057990193367004 0.38069599866867065 0.6986259818077087
vn 0.6057990193367004 0.38069599866867065 0.6986259818077087
vn 0.893634021282196 -0.20319299399852753 0.4001629948616028
vn 0.9846439957618713 -0.17452199757099152 0.004360999912023544
vn 0.9970089793205261 -0.07295399904251099 -0.025513000786304474
vn 0.8957870006561279 -0.14765100181102753 0.4192439913749695
vn 0.9181489944458008 -0.06005600094795227 -0.3916589915752411
vn 0.705748975276947 -0.1735980063676834 -0.6868640184402466
vn 0.8175179958343506 -0.11494600027799606 -0.5643159747123718
vn 0.8696010112762451 -0.20037999749183655 -0.4512679874897003
vn -0.9959120154380798 0.09030800312757492 0.001984999980777502
vn -0.9439100027084351 0.1392589956521988 0.2994000017642975
vn -0.9530869722366333 0.03480599820613861 0.3006890118122101
vn -0.9995989799499512 -0.027358999475836754 -0.0072650001384317875
vn 0.9255340099334717 0.11799299716949463 0.3598119914531708
vn 0.9044950008392334 -0.16268199682235718 0.3942379951477051
vn 0.5187649726867676 -0.019109999760985374 0.8547030091285706
vn 0.5554599761962891 0.21948300302028656 0.8020550012588501
vn 0.9999290108680725 0.0030400000978261232 0.011485000140964985
vn 0.9724270105361938 -0.2328290045261383 -0.013240999542176723
vn -0.0 -1.0 9.999999974752427e-07
vn -0.0 -1.0 9.999999974752427e-07
vn -0.0 -1.0 9.999999974752427e-07
vn -0.0 -1.0 9.999999974752427e-07
vn 0.9689729809761047 0.15045799314975739 0.1960970014333725
vn 0.9779539704322815 0.18271400034427643 -0.10110499709844589
vn 0.9761859774589539 0.1771710067987442 0.12518100440502167
vn 0.9813200235366821 0.1099649965763092 0.15785899758338928
vn 0.5557429790496826 0.7325009703636169 -0.39318200945854187
vn 0.7961660027503967 0.5950750112533569 -0.10957100242376328
vn 0.6451780200004578 0.737267017364502 -0.20045499503612518
vn 0.37842100858688354 0.8856760263442993 -0.2690269947052002
vn -0.9852020144462585 0.12217500060796738 0.12020999938249588
vn -0.9814280271530151 0.17643100023269653 -0.07530499994754791
vn -0.9773740172386169 0.08926399797201157 0.1917629987001419
vn -0.9878029823303223 0.05903499945998192 0.14408500492572784
vn -0.6977360248565674 -0.1805640012025833 -0.6932259798049927
vn -0.953902006149292 -0.0052559999749064445 -0.3000720143318176
vn -0.9525409936904907 -0.003788999980315566 -0.30438798666000366
vn -0.8307170271873474 0.07055599987506866 -0.5522059798240662
vn -0.8948420286178589 -0.2551189959049225 -0.3662959933280945
vn -0.4455229938030243 -0.3573650121688843 -0.8208529949188232
vn -0.5211290121078491 -0.0662200003862381 -0.8509050011634827
vn -0.9519219994544983 0.031096000224351883 -0.3047589957714081
vn -0.5361499786376953 0.7386760115623474 -0.4085339903831482
vn -0.3758940100669861 0.8860809803009033 -0.27122798562049866
vn -0.6456859707832336 0.7333790063858032 -0.21271100640296936
vn -0.7833380103111267 0.6055129766464233 -0.14048099517822266
vn -0.6767749786376953 0.285504013299942 -0.6785749793052673
vn -0.6409199833869934 0.2929820120334625 -0.7094950079917908
vn -0.7702040076255798 0.26185598969459534 -0.5815650224685669
vn -0.7751880288124084 0.2752070128917694 -0.5686330199241638
vn -0.0 -1.0 9.999999974752427e-07
vn -0.0 -1.0 9.999999974752427e-07
vn -0.0 -1.0 9.999999974752427e-07
vn -0.0 -1.0 9.999999974752427e-07
vn -0.0 -1.0 9.999999974752427e-07
vn -0.0 -1.0 9.999999974752427e-07
vn -0.0 -1.0 9.999999974752427e-07
vn -0.0 -1.0 9.999999974752427e-07
vn -0.682466983795166 0.2417690008878708 0.6897730231285095
vn -0.6804350018501282 0.20200900733470917 0.7044159770011902
vn -0.6494070291519165 0.051288001239299774 0.7587090134620667
vn -0.5766000151634216 -0.15405400097370148 0.8023710250854492
vn -0.5611640214920044 0.10151199996471405 0.821457028388977
vn -0.566523015499115 0.21013200283050537 0.7968040108680725
vn -0.6127179861068726 0.3169940114021301 0.72394198179245
vn -0.6127179861068726 0.3169940114021301 0.72394198179245
vn -0.6127179861068726 0.3169940114021301 0.72394198179245
vn -0.825993001461029 0.5636789798736572 0.0010679999832063913
vn -0.8217610120773315 0.5696560144424438 -0.014169000089168549
vn -0.842054009437561 0.5378050208091736 0.04135899990797043
vn -0.8651999831199646 0.5014269948005676 -0.0
vn -0.6155200004577637 0.5063909888267517 -0.603905975818634
vn -0.3593200147151947 0.5981829762458801 -0.7162860035896301
vn -0.37154901027679443 0.5925210118293762 -0.7147520184516907
vn 0.2758840024471283 0.21729500591754913 -0.9363070130348206
vn 0.151310995221138 0.26117101311683655 -0.9533600211143494
vn 0.12109299749135971 0.07268299907445908 -0.9899770021438599
vn 0.21546299755573273 0.020872000604867935 -0.9762889742851257
vn 0.11881200224161148 -0.07874300330877304 -0.9897890090942383
vn 0.08288600295782089 -0.37580201029777527 -0.9229859709739685
vn 0.14397600293159485 0.7953590154647827 -0.5887899994850159
vn 0.09327399730682373 0.9320440292358398 -0.3501339852809906
vn 0.5880609750747681 0.31304699182510376 -0.7457789778709412
vn 0.5876529812812805 0.3123610019683838 -0.7463880181312561
vn -0.0 -1.0 9.999999974752427e-07
vn -0.0 -1.0 9.999999974752427e-07
vn -0.0 -1.0 9.999999974752427e-07
vn -0.0 -1.0 9.999999974752427e-07
vn 0.6871989965438843 0.20041899383068085 0.6982769966125488
vn 0.6916400194168091 0.2424200028181076 0.680342972278595
vn 0.2886179983615875 0.27039000391960144 0.9184709787368774
vn 0.27718499302864075 0.190419003367424 0.9417579770088196
vn 0.6539379954338074 0.0491349995136261 0.754951000213623
vn 0.56597900390625 -0.18572600185871124 0.8032270073890686
vn 0.16878099739551544 -0.14655999839305878 0.9746959805488586
vn 0.2429720014333725 0.12139599770307541 0.9624069929122925
vn 0.5554599761962891 0.21948300302028656 0.8020550012588501
vn 0.5187649726867676 -0.019109999760985374 0.8547030091285706
vn 0.07975500077009201 0.0846560001373291 0.9932129979133606
vn 0.12848199903964996 0.26522600650787354 0.9555879831314087
vn 0.17213599383831024 0.5287010073661804 0.8311700224876404
vn 0.0 0.4534069895744324 0.8913040161132812
vn 0.03259800001978874 0.5220119953155518 0.8523150086402893
vn 0.09889400005340576 0.5603330135345459 0.8223419785499573
vn 0.0 1.0 -9.999999974752427e-07
vn 0.0 1.0 -9.999999974752427e-07
vn 0.0 1.0 -9.999999974752427e-07
vn 0.0 1.0 -9.999999974752427e-07
vn 0.11372700333595276 0.6351749897003174 -0.763949990272522
vn 0.12097100168466568 0.636368989944458 -0.7618399858474731
vn 0.8817639946937561 -0.13504000008106232 -0.45194700360298157
vn 0.4929890036582947 -0.31720298528671265 -0.8101509809494019
vn 0.9994909763336182 -0.030108999460935593 -0.010557999834418297
vn 0.9321140050888062 0.025008000433444977 0.3613010048866272
vn 0.5891079902648926 0.05631899833679199 0.8060899972915649
vn 0.16298100352287292 0.0792360007762909 0.9834420084953308
vn 0.5891079902648926 0.05631899833679199 0.8060899972915649
vn -0.94411700963974 0.031502000987529755 0.3280999958515167
vn -0.5734819769859314 0.06979099661111832 0.8162400126457214
vn -0.9999009966850281 -0.012737000361084938 -0.006031000055372715
vn -0.48002299666404724 -0.32336801290512085 -0.8154820203781128
vn -0.9001169800758362 -0.12357299774885178 -0.41775399446487427
vn 0.10793299973011017 -0.4166330099105835 -0.9026449918746948
vn 0.14003799855709076 -0.40821799635887146 -0.9020799994468689
vn -0.8027330040931702 -0.06482300162315369 -0.5928040146827698
vn -0.9283009767532349 -0.0825209990143776 -0.3625580072402954
vn -0.9059720039367676 -0.08128800243139267 -0.4154599905014038
vn -0.7753459811210632 -0.04529000073671341 -0.6299099922180176
vn 0.1217460036277771 -0.027382999658584595 -0.9921830296516418
vn 0.2370299994945526 -0.016597000882029533 -0.971360981464386
vn 0.202566996216774 -0.11376599967479706 -0.9726380109786987
vn 0.10266099870204926 -0.10671500116586685 -0.988976001739502
vn 0.7663710117340088 -0.025078000500798225 -0.6419090032577515
vn 0.8864129781723022 -0.04733699932694435 -0.46046799421310425
vn 0.8818899989128113 -0.17560899257659912 -0.4375289976596832
vn 0.7731750011444092 -0.16972500085830688 -0.6110590100288391
vn 0.4947899878025055 -0.20587199926376343 0.8442739844322205
vn 0.5388479828834534 -0.1855439990758896 0.8217149972915649
vn 0.4947899878025055 -0.20587199926376343 0.8442739844322205
vn 0.12032400071620941 -0.23378899693489075 0.9648129940032959
vn 0.0944409966468811 -0.12692999839782715 0.9874060153961182
vn 0.5388479828834534 -0.1855439990758896 0.8217149972915649
vn -0.5420849919319153 -0.10994599759578705 0.8331000208854675
vn -0.5024570226669312 -0.23454000055789948 0.8321830034255981
vn -0.13191500306129456 0.7956529855728149 -0.5912150144577026
vn -0.08614400029182434 0.9317600131034851 -0.35270801186561584
vn -0.5527330040931702 0.32450300455093384 -0.7675830125808716
vn -0.5530750155448914 0.32510998845100403 -0.7670800089836121
vn -0.0 -1.0 9.999999974752427e-07
vn -0.0 -1.0 9.999999974752427e-07
vn -0.0 -1.0 9.999999974752427e-07
vn -0.0 -1.0 9.999999974752427e-07
vn -0.2697390019893646 0.2696729898452759 0.9244009852409363
vn -0.682466983795166 0.2417690008878708 0.6897730231285095
vn -0.6804350018501282 0.20200900733470917 0.7044159770011902
vn -0.2581320106983185 0.1890300065279007 0.9474359750747681
vn -0.15973199903964996 -0.13801999390125275 0.9774640202522278
vn -0.5766000151634216 -0.15405400097370148 0.8023710250854492
vn -0.6494070291519165 0.051288001239299774 0.7587090134620667
vn -0.226283997297287 0.12197499722242355 0.9663940072059631
vn -0.12822400033473969 0.26111000776290894 0.9567549824714661
vn -0.566523015499115 0.21013200283050537 0.7968040108680725
vn -0.5734819769859314 0.06979099661111832 0.8162400126457214
vn -0.1415729969739914 0.08744599670171738 0.9860579967498779
vn -0.0811920017004013 0.10322800278663635 0.9913380146026611
vn -0.5611640214920044 0.10151199996471405 0.821457028388977
vn -0.10490299761295319 -0.12268199771642685 0.9868860244750977
vn -0.1171329990029335 -0.2395929992198944 0.963782012462616
vn -0.5024570226669312 -0.23454000055789948 0.8321830034255981
vn -0.5420849919319153 -0.10994599759578705 0.8331000208854675
vn -0.04249599948525429 0.506538987159729 0.8611689805984497
vn 0.0 0.42656800150871277 0.9044550061225891
vn -0.1867379993200302 0.5007719993591309 0.845196008682251
vn -0.13307000696659088 0.5459439754486084 0.8271859884262085
vn 0.0 1.0 -9.999999974752427e-07
vn 0.0 1.0 -9.999999974752427e-07
vn 0.0 1.0 -9.999999974752427e-07
vn 0.0 1.0 -9.999999974752427e-07
vn -0.11296900361776352 0.63406902551651 -0.7649800181388855
vn -0.09111899882555008 0.6327880024909973 -0.7689449787139893
vn -0.12584899365901947 -0.03168400004506111 -0.9915429949760437
vn -0.10347899794578552 -0.09433300048112869 -0.9901480078697205
vn -0.21458600461483002 -0.08693099766969681 -0.9728289842605591
vn -0.25750699639320374 -0.024949999526143074 -0.9659540057182312
vn -0.12888400256633759 0.2537829875946045 -0.9586359858512878
vn -0.29294899106025696 0.20229199528694153 -0.934482991695404
vn -0.22330699861049652 0.09531299769878387 -0.9700769782066345
vn -0.10239099711179733 0.10159900039434433 -0.9895420074462891
vn -0.09551899880170822 -0.4187310039997101 -0.9030730128288269
vn -0.13454699516296387 -0.4176099896430969 -0.8986089825630188
vn -0.08498799800872803 -0.3659690022468567 -0.9267380237579346
vn -0.1223749965429306 -0.08184000104665756 -0.9891039729118347
vn 0.0 0.39726200699806213 -0.9177049994468689
vn 0.0 0.39726200699806213 -0.9177049994468689
vn 0.0 0.39726200699806213 -0.9177049994468689
vn 0.0 0.39726200699806213 -0.9177049994468689
vn 0.7230510115623474 0.037994999438524246 -0.689749002456665
vn 0.8753119707107544 0.010293999686837196 -0.48344799876213074
vn 0.14171600341796875 0.04419799894094467 -0.9889199733734131
vn 0.2733129858970642 0.05139999836683273 -0.9605510234832764
vn -0.13353599607944489 0.03923200070858002 -0.9902669787406921
vn -0.2616629898548126 0.03743999823927879 -0.9644330143928528
vn -0.7377259731292725 -0.04316600039601326 -0.6737179756164551
vn -0.8986449837684631 -0.08808200061321259 -0.4297420084476471
vn -0.9922149777412415 -0.12316399812698364 -0.01845500059425831
vn -0.8742849826812744 -0.1825989931821823 0.44975998997688293
vn -0.47071000933647156 -0.1979459971189499 0.8597959876060486
vn -0.12951700389385223 -0.2119159996509552 0.9686679840087891
vn -0.47071000933647156 -0.1979459971189499 0.8597959876060486
vn 0.15479399263858795 -0.20486299693584442 0.9664729833602905
vn 0.4604719877243042 -0.1556210070848465 0.8739269971847534
vn 0.8567829728126526 -0.09818699955940247 0.5062429904937744
vn 0.4604719877243042 -0.1556210070848465 0.8739269971847534
vn 0.9993839859962463 -0.021290000528097153 -0.02790600061416626
vn -0.6488779783248901 0.20527799427509308 -0.7326779961585999
vn -0.9814280271530151 0.17643100023269653 -0.07530499994754791
vn -0.1754709929227829 0.19392700493335724 -0.9651950001716614
vn 0.1918029934167862 0.1967020034790039 -0.9615190029144287
vn 0.6620799899101257 0.19472700357437134 -0.7236930131912231
vn 0.9779539704322815 0.18271400034427643 -0.10110499709844589
vn 0.9500139951705933 0.009686999954283237 -0.3120580017566681
vn 0.8571289777755737 -0.31500300765037537 -0.40755701065063477
vn -0.9519219994544983 0.031096000224351883 -0.3047589957714081
vn -0.8948420286178589 -0.2551189959049225 -0.3662959933280945
vn -0.9001169800758362 -0.12357299774885178 -0.41775399446487427
vn -0.953902006149292 -0.0052559999749064445 -0.3000720143318176
vn -0.9525409936904907 -0.003788999980315566 -0.30438798666000366
vn -0.9283009767532349 -0.0825209990143776 -0.3625580072402954
vn -0.9059720039367676 -0.08128800243139267 -0.4154599905014038
vn -0.8986449837684631 -0.08808200061321259 -0.4297420084476471
vn -0.8166490197181702 0.5713909864425659 -0.08121400326490402
vn -0.827430009841919 0.5458160042762756 -0.13207599520683289
vn 0.0 1.0 -9.999999974752427e-07
vn 0.0 1.0 -9.999999974752427e-07
vn 0.0 1.0 -9.999999974752427e-07
vn 0.0 1.0 -9.999999974752427e-07
vn 0.7743690013885498 0.6043670177459717 -0.18733100593090057
vn 0.7553989887237549 0.6484599709510803 -0.09419400244951248
vn 0.8864129781723022 -0.04733699932694435 -0.46046799421310425
vn 0.8753119707107544 0.010293999686837196 -0.48344799876213074
vn 0.8818899989128113 -0.17560899257659912 -0.4375289976596832
vn 0.8696010112762451 -0.20037999749183655 -0.4512679874897003
vn 0.9181489944458008 -0.06005600094795227 -0.3916589915752411
vn 0.8817639946937561 -0.13504000008106232 -0.45194700360298157
vn 0.9971389770507812 -0.05014999955892563 0.05655600130558014
vn 0.991424024105072 -0.12998999655246735 0.013460000045597553
vn -0.0 -1.0 9.999999974752427e-07
vn -0.0 -1.0 9.999999974752427e-07
vn -0.0 -1.0 9.999999974752427e-07
vn -0.0 -1.0 9.999999974752427e-07
vn -0.0 -1.0 9.999999974752427e-07
vn -0.0 -1.0 9.999999974752427e-07
vn -0.9968960285186768 -0.06210999935865402 0.04838800057768822
vn -0.9919840097427368 -0.12556999921798706 0.01411100011318922
vn -0.23218999803066254 0.9681289792060852 -0.09388700127601624
vn -0.4360870122909546 0.8983129858970642 -0.05349799990653992
vn -0.0546719990670681 0.9932479858398438 -0.10232199728488922
vn 0.05821600183844566 0.9931060075759888 -0.10174299776554108
vn 0.23390799760818481 0.967739999294281 -0.09363000094890594
vn 0.42189300060272217 0.9053429961204529 -0.048583000898361206

vt 0.6178380250930786 0.6044279932975769
vt 0.6178380250930786 0.5860140025615692
vt 0.6243119835853577 0.5816639959812164
vt 0.6252760291099548 0.5995579957962036
vt 0.4613350033760071 0.32956600189208984
vt 0.4613350033760071 0.29505497217178345
vt 0.47933000326156616 0.29458701610565186
vt 0.4800029993057251 0.32371699810028076
vt 0.6178380250930786 0.7021790146827698
vt 0.6299729943275452 0.6983340084552765
vt 0.6311489939689636 0.7501969933509827
vt 0.6178380250930786 0.7501969933509827
vt 0.6021810173988342 0.23377299308776855
vt 0.6156589984893799 0.23377299308776855
vt 0.6163280010223389 0.27393800020217896
vt 0.6021810173988342 0.2856230139732361
vt 0.6178380250930786 0.6606279909610748
vt 0.630657970905304 0.6676479876041412
vt 0.6178380250930786 0.4449530243873596
vt 0.6178380250930786 0.4110879898071289
vt 0.6298909783363342 0.4166939854621887
vt 0.6298419833183289 0.4418269991874695
vt 0.6559900045394897 0.5819459855556488
vt 0.6709110140800476 0.5840939879417419
vt 0.6695119738578796 0.625789999961853
vt 0.6511039733886719 0.625789999961853
vt 0.662900984287262 0.41916000843048096
vt 0.6628029942512512 0.4453759789466858
vt 0.6421779990196228 0.4394199848175049
vt 0.642458975315094 0.41540300846099854
vt 0.6630449891090393 0.7005119919776917
vt 0.6635169982910156 0.7501969933509827
vt 0.6445450186729431 0.7501969933509827
vt 0.642645001411438 0.7019599974155426
vt 0.6429479718208313 0.6724900007247925
vt 0.6636809706687927 0.668166995048523
vt 0.4805069863796234 0.2708529829978943
vt 0.4613350033760071 0.2670050263404846
vt 0.4613350033760071 0.23447299003601074
vt 0.7260100245475769 0.4624530076980591
vt 0.708952009677887 0.4596959948539734
vt 0.7094489932060242 0.42663097381591797
vt 0.7265110015869141 0.42531800270080566
vt 0.4800029993057251 0.32371699810028076
vt 0.4613350033760071 0.35916799306869507
vt 0.4613350033760071 0.32956600189208984
vt 0.7099310159683228 0.6976079940795898
vt 0.7101960182189941 0.6563499867916107
vt 0.7274420261383057 0.6552209854125977
vt 0.727029025554657 0.7006790041923523
vt 0.6922670006752014 0.625789999961853
vt 0.6920199990272522 0.5851239860057831
vt 0.7026299834251404 0.5841900110244751
vt 0.7021239995956421 0.625789999961853
vt 0.6869869828224182 0.4556009769439697
vt 0.6873850226402283 0.4282609820365906
vt 0.6982960104942322 0.42785102128982544
vt 0.6976879835128784 0.4546329975128174
vt 0.6877620220184326 0.6929669976234436
vt 0.6985309720039368 0.6951940059661865
vt 0.6988800168037415 0.7501969933509827
vt 0.6882539987564087 0.7501969933509827
vt 0.6881589889526367 0.658614993095398
vt 0.6987630128860474 0.6608290076255798
vt 0.6021810173988342 0.30664002895355225
vt 0.6163550019264221 0.302761971950531
vt 0.6160550117492676 0.3310859799385071
vt 0.6021810173988342 0.33299899101257324
vt 0.6324599981307983 0.6126320064067841
vt 0.6398339867591858 0.6260499954223633
vt 0.6178380250930786 0.6466720104217529
vt 0.6178380250930786 0.6252759993076324
vt 0.6423879861831665 0.5860590040683746
vt 0.6398339867591858 0.6260499954223633
vt 0.6324599981307983 0.6126320064067841
vt 0.6332330107688904 0.5838330090045929
vt 0.6178380250930786 0.48243701457977295
vt 0.6410729885101318 0.5003840029239655
vt 0.633758008480072 0.512611985206604
vt 0.6178380250930786 0.5008449852466583
vt 0.6920269727706909 0.5394589900970459
vt 0.6920830011367798 0.5000430047512054
vt 0.7019360065460205 0.5000430047512054
vt 0.7027779817581177 0.5398310124874115
vt 0.6699420213699341 0.5000430047512054
vt 0.6708459854125977 0.540829986333847
vt 0.6559370160102844 0.5419360101222992
vt 0.6520280241966248 0.5000430047512054
vt 0.6424499750137329 0.5370090007781982
vt 0.6336879730224609 0.5392929911613464
vt 0.633758008480072 0.512611985206604
vt 0.6410729885101318 0.5003840029239655
vt 0.6251509785652161 0.5415180027484894
vt 0.6178380250930786 0.5363300144672394
vt 0.6178380250930786 0.518781989812851
vt 0.6266300082206726 0.5245260000228882
vt 0.6505370140075684 0.33105599880218506
vt 0.6501860022544861 0.30270200967788696
vt 0.6642029881477356 0.30652302503585815
vt 0.6642029881477356 0.33294200897216797
vt 0.6501590013504028 0.27387601137161255
vt 0.6507750153541565 0.23377299308776855
vt 0.6642029881477356 0.23377299308776855
vt 0.6642029881477356 0.2855049967765808
vt 0.6310309767723083 0.3760110139846802
vt 0.6178380250930786 0.3760110139846802
vt 0.6443290114402771 0.3760110139846802
vt 0.6633399724960327 0.3760110139846802
vt 0.698701024055481 0.3760110139846802
vt 0.6880279779434204 0.3760110139846802
vt 0.5238440036773682 0.3313729763031006
vt 0.5238440036773682 0.35916799306869507
vt 0.5066980123519897 0.3237699866294861
vt 0.5068190097808838 0.2945539951324463
vt 0.5238440036773682 0.296733021736145
vt 0.5238440036773682 0.3313729763031006
vt 0.5066980123519897 0.3237699866294861
vt 0.5238440036773682 0.26738500595092773
vt 0.5055350065231323 0.27108198404312134
vt 0.5238440036773682 0.23447299003601074
vt 0.6920199990272522 0.5851239860057831
vt 0.6918259859085083 0.5705879926681519
vt 0.7025079727172852 0.5702840089797974
vt 0.7026299834251404 0.5841900110244751
vt 0.6568970084190369 0.5682330131530762
vt 0.670632004737854 0.5695599913597107
vt 0.6432880163192749 0.5703690052032471
vt 0.6337260007858276 0.5694459974765778
vt 0.6178380250930786 0.5697790086269379
vt 0.624409019947052 0.5685470104217529
vt 0.6272079944610596 0.30274301767349243
vt 0.6271190047264099 0.3310760259628296
vt 0.6269159913063049 0.23377299308776855
vt 0.6271790266036987 0.2704610228538513
vt 0.6178380250930786 0.7501969933509827
vt 0.6313470005989075 0.7501969933509827
vt 0.6306840181350708 0.7876749932765961
vt 0.6178380250930786 0.7837579995393753
vt 0.6446020007133484 0.7501969933509827
vt 0.6635370254516602 0.7501969933509827
vt 0.6631730198860168 0.7916270047426224
vt 0.6440889835357666 0.7942419946193695
vt 0.6882539987564087 0.7501969933509827
vt 0.6988800168037415 0.7501969933509827
vt 0.6988379955291748 0.7934300005435944
vt 0.6881840229034424 0.7918560057878494
vt 0.4613350033760071 0.35916799306869507
vt 0.4800029993057251 0.32371699810028076
vt 0.4883910119533539 0.32535499334335327
vt 0.4882720112800598 0.35916799306869507
vt 0.47933000326156616 0.29458701610565186
vt 0.4883140027523041 0.2928439974784851
vt 0.4883910119533539 0.32535499334335327
vt 0.4800029993057251 0.32371699810028076
vt 0.48774901032447815 0.23447299003601074
vt 0.48837900161743164 0.26498299837112427
vt 0.6796510219573975 0.625789999961853
vt 0.6791290044784546 0.5852760076522827
vt 0.6751000285148621 0.6657859981060028
vt 0.6742820143699646 0.6997149884700775
vt 0.6739659905433655 0.7501969933509827
vt 0.6736840009689331 0.7901870012283325
vt 0.6739659905433655 0.7501969933509827
vt 0.6741589903831482 0.4212300181388855
vt 0.6738119721412659 0.3760110139846802
vt 0.6741629838943481 0.44865697622299194
vt 0.6790580153465271 0.5402199923992157
vt 0.6798080205917358 0.5000430047512054
vt 0.6781970262527466 0.5702910125255585
vt 0.6918259859085083 0.5705879926681519
vt 0.7147520184516907 0.5385940074920654
vt 0.7130339741706848 0.5000430047512054
vt 0.7299079895019531 0.5000430047512054
vt 0.7294269800186157 0.5394630134105682
vt 0.7295759916305542 0.5717270076274872
vt 0.7292960286140442 0.5885480046272278
vt 0.7143440246582031 0.5860590040683746
vt 0.7142030000686646 0.5717140138149261
vt 0.7292960286140442 0.5885480046272278
vt 0.730334997177124 0.625789999961853
vt 0.7137429714202881 0.625789999961853
vt 0.7143440246582031 0.5860590040683746
vt 0.7273849844932556 0.7501969933509827
vt 0.7102199792861938 0.7501969933509827
vt 0.7273849844932556 0.7501969933509827
vt 0.7273499965667725 0.7862489968538284
vt 0.7099300026893616 0.7868950068950653
vt 0.7102199792861938 0.7501969933509827
vt 0.7094889879226685 0.3760110139846802
vt 0.7266610264778137 0.3760110139846802
vt 0.6434130072593689 0.5549499988555908
vt 0.6339330077171326 0.5552949905395508
vt 0.6246950030326843 0.555631011724472
vt 0.6178380250930786 0.553618997335434
vt 0.6384400129318237 0.33106499910354614
vt 0.6383150219917297 0.30272001028060913
vt 0.6382870078086853 0.2704409956932068
vt 0.6384469866752625 0.23377299308776855
vt 0.6305999755859375 0.8279529958963394
vt 0.6310309767723083 0.8745359927415848
vt 0.6178380250930786 0.8745359927415848
vt 0.6178380250930786 0.8294239938259125
vt 0.6630719900131226 0.828681007027626
vt 0.6633399724960327 0.8745359927415848
vt 0.6443290114402771 0.8745359927415848
vt 0.6440230011940002 0.8242760002613068
vt 0.6880940198898315 0.8314879983663559
vt 0.6880279779434204 0.8745359927415848
vt 0.6738119721412659 0.8745359927415848
vt 0.6735640168190002 0.8311070054769516
vt 0.6987410187721252 0.8311280012130737
vt 0.698701024055481 0.8745359927415848
vt 0.7097510099411011 0.8409869968891144
vt 0.7270979881286621 0.8342240005731583
vt 0.7266610264778137 0.8745359927415848
vt 0.709617018699646 0.8745359927415848
vt 0.4973430037498474 0.32586801052093506
vt 0.5066980123519897 0.3237699866294861
vt 0.5238440036773682 0.35916799306869507
vt 0.49754598736763 0.35916799306869507
vt 0.4973430037498474 0.32586801052093506
vt 0.4972200095653534 0.29278600215911865
vt 0.5068190097808838 0.2945539951324463
vt 0.5066980123519897 0.3237699866294861
vt 0.49680501222610474 0.2650820016860962
vt 0.4973529875278473 0.23447299003601074
vt 0.729498028755188 0.5549759864807129
vt 0.7141029834747314 0.5526930093765259
vt 0.7147520184516907 0.5385940074920654
vt 0.7294269800186157 0.5394630134105682
vt 0.6918290257453918 0.555864006280899
vt 0.6920269727706909 0.5394589900970459
vt 0.7027779817581177 0.5398310124874115
vt 0.702318012714386 0.5556600093841553
vt 0.6781179904937744 0.5558390021324158
vt 0.6918290257453918 0.555864006280899
vt 0.6706079840660095 0.5557380020618439
vt 0.6569730043411255 0.555554986000061
vt 0.6178380250930786 0.5697790086269379
vt 0.6178380250930786 0.553618997335434
vt 0.6246950030326843 0.555631011724472
vt 0.624409019947052 0.5685470104217529
vt 0.742438018321991 0.5884900093078613
vt 0.742438018321991 0.625789999961853
vt 0.742438018321991 0.5718399882316589
vt 0.742438018321991 0.5884900093078613
vt 0.742438018321991 0.5551329851150513
vt 0.742438018321991 0.5370799899101257
vt 0.742438018321991 0.5370799899101257
vt 0.742438018321991 0.5000430047512054
vt 0.742438018321991 0.4560139775276184
vt 0.742438018321991 0.419376015663147
vt 0.742438018321991 0.3760110139846802
vt 0.742438018321991 0.8323280066251755
vt 0.742438018321991 0.8745359927415848
vt 0.742438018321991 0.7863849997520447
vt 0.742438018321991 0.7501969933509827
vt 0.742438018321991 0.7126039862632751
vt 0.742438018321991 0.7501969933509827
vt 0.742438018321991 0.6666150093078613
vt 0.6424499750137329 0.5370090007781982
vt 0.6410729885101318 0.5003840029239655
vt 0.6434130072593689 0.5549499988555908
vt 0.6432880163192749 0.5703690052032471
vt 0.6423879861831665 0.5860590040683746
vt 0.6398339867591858 0.6260499954223633
vt 0.6511039733886719 0.625789999961853
vt 0.6695119738578796 0.625789999961853
vt 0.6520280241966248 0.5000430047512054
vt 0.6699420213699341 0.5000430047512054
vt 0.6798080205917358 0.5000430047512054
vt 0.6920830011367798 0.5000430047512054
vt 0.7019360065460205 0.5000430047512054
vt 0.7130339741706848 0.5000430047512054
vt 0.7299079895019531 0.5000430047512054
vt 0.742438018321991 0.5000430047512054
vt 0.5055350065231323 0.27108198404312134
vt 0.5238440036773682 0.26738500595092773
vt 0.49680501222610474 0.2650820016860962
vt 0.5055350065231323 0.27108198404312134
vt 0.48837900161743164 0.26498299837112427
vt 0.4805069863796234 0.2708529829978943
vt 0.4613350033760071 0.2670050263404846
vt 0.4805069863796234 0.2708529829978943
vt 0.730334997177124 0.625789999961853
vt 0.742438018321991 0.625789999961853
vt 0.7137429714202881 0.625789999961853
vt 0.7021239995956421 0.625789999961853
vt 0.6922670006752014 0.625789999961853
vt 0.6796510219573975 0.625789999961853
vt 0.6252760291099548 0.5995579957962036
vt 0.6178380250930786 0.6044279932975769
vt 0.6021810173988342 0.3586840033531189
vt 0.6157619953155518 0.3586840033531189
vt 0.6270319819450378 0.3586840033531189
vt 0.6385629773139954 0.3586840033531189
vt 0.6508780121803284 0.3586840033531189
vt 0.6642029881477356 0.3586840033531189
vt 0.6266300082206726 0.5245260000228882
vt 0.6178380250930786 0.518781989812851
vt 0.6251509785652161 0.5415180027484894
vt 0.6266300082206726 0.5245260000228882
vt 0.6246950030326843 0.555631011724472
vt 0.624409019947052 0.5685470104217529
vt 0.6243119835853577 0.5816639959812164
vt 0.6252760291099548 0.5995579957962036

f 1/1/1 2/2/2 3/3/3
f 3/3/3 4/4/4 1/1/1
f 5/5/5 6/6/6 7/7/7
f 7/7/7 8/8/8 5/5/5
f 9/9/9 10/10/10 11/11/11
f 11/11/11 12/12/12 9/9/9
f 13/13/13 14/14/14 15/15/15
f 15/15/15 16/16/16 13/13/13
f 10/10/10 9/9/9 17/17/17
f 17/17/17 18/18/18 10/10/10
f 19/19/19 20/20/20 21/21/21
f 21/21/21 22/22/22 19/19/19
f 23/23/23 24/24/24 25/25/25
f 25/25/25 26/26/26 23/23/23
f 27/27/27 28/28/28 29/29/29
f 29/29/29 30/30/30 27/27/27
f 31/31/31 32/32/32 33/33/33
f 33/33/33 34/34/34 31/31/31
f 31/31/31 34/34/34 35/35/35
f 35/35/35 36/36/36 31/31/31
f 37/37/37 38/38/38 39/39/39
f 40/40/40 41/41/41 42/42/42
f 42/42/42 43/43/43 40/40/40
f 44/44/44 45/45/45 46/46/46
f 47/47/47 48/48/48 49/49/49
f 49/49/49 50/50/50 47/47/47
f 51/51/51 52/52/52 53/53/53
f 53/53/53 54/54/54 51/51/51
f 55/55/55 56/56/56 57/57/57
f 57/57/57 58/58/58 55/55/55
f 59/59/59 60/60/60 61/61/61
f 61/61/61 62/62/62 59/59/59
f 60/60/60 59/59/59 63/63/63
f 63/63/63 64/64/64 60/60/60
f 65/65/65 66/66/66 67/67/67
f 67/67/67 68/68/68 65/65/65
f 69/69/69 70/70/70 71/71/71
f 71/71/71 72/72/72 69/69/69
f 73/73/73 74/74/74 75/75/75
f 75/75/75 76/76/76 73/73/73
f 77/77/77 78/78/78 79/79/79
f 79/79/79 80/80/80 77/77/77
f 81/81/81 82/82/82 83/83/83
f 83/83/83 84/84/84 81/81/81
f 85/85/85 86/86/86 87/87/87
f 87/87/87 88/88/88 85/85/85
f 89/89/89 90/90/90 91/91/91
f 91/91/91 92/92/92 89/89/89
f 93/93/93 94/94/94 95/95/95
f 95/95/95 96/96/96 93/93/93
f 97/97/97 98/98/98 99/99/99
f 99/99/99 100/100/100 97/97/97
f 101/101/101 102/102/102 103/103/103
f 103/103/103 104/104/104 101/101/101
f 105/105/105 21/21/21 20/20/20
f 20/20/20 106/106/106 105/105/105
f 107/107/107 108/108/108 27/27/27
f 27/27/27 30/30/30 107/107/107
f 109/109/109 57/57/57 56/56/56
f 56/56/56 110/110/110 109/109/109
f 111/111/111 112/112/112 113/113/113
f 114/114/114 115/115/115 116/116/116
f 116/116/116 117/117/117 114/114/114
f 118/118/118 119/119/119 120/120/120
f 121/121/121 122/122/122 123/123/123
f 123/123/123 124/124/124 121/121/121
f 125/125/125 126/126/126 24/24/24
f 24/24/24 23/23/23 125/125/125
f 127/127/127 73/73/73 76/76/76
f 76/76/76 128/128/128 127/127/127
f 2/2/2 129/129/129 130/130/130
f 130/130/130 3/3/3 2/2/2
f 66/66/66 131/131/131 132/132/132
f 132/132/132 67/67/67 66/66/66
f 14/14/14 133/133/133 134/134/134
f 134/134/134 15/15/15 14/14/14
f 135/135/135 136/136/136 137/137/137
f 137/137/137 138/138/138 135/135/135
f 139/139/139 140/140/140 141/141/141
f 141/141/141 142/142/142 139/139/139
f 143/143/143 144/144/144 145/145/145
f 145/145/145 146/146/146 143/143/143
f 147/147/147 148/148/148 149/149/149
f 149/149/149 150/150/150 147/147/147
f 151/151/151 152/152/152 153/153/153
f 153/153/153 154/154/154 151/151/151
f 39/39/39 155/155/155 156/156/156
f 156/156/156 37/37/37 39/39/39
f 51/51/51 157/157/157 158/158/158
f 158/158/158 52/52/52 51/51/51
f 159/159/159 63/63/63 59/59/59
f 59/59/59 160/160/160 159/159/159
f 160/160/160 59/59/59 62/62/62
f 62/62/62 161/161/161 160/160/160
f 143/143/143 146/146/146 162/162/162
f 162/162/162 163/163/163 143/143/143
f 110/110/110 56/56/56 164/164/164
f 164/164/164 165/165/165 110/110/110
f 166/166/166 164/164/164 56/56/56
f 56/56/56 55/55/55 166/166/166
f 167/167/167 168/168/168 82/82/82
f 82/82/82 81/81/81 167/167/167
f 52/52/52 158/158/158 169/169/169
f 169/169/169 170/170/170 52/52/52
f 171/171/171 172/172/172 173/173/173
f 173/173/173 174/174/174 171/171/171
f 175/175/175 176/176/176 177/177/177
f 177/177/177 178/178/178 175/175/175
f 179/179/179 180/180/180 181/181/181
f 181/181/181 182/182/182 179/179/179
f 50/50/50 183/183/183 184/184/184
f 184/184/184 47/47/47 50/50/50
f 185/185/185 186/186/186 187/187/187
f 187/187/187 188/188/188 185/185/185
f 189/189/189 190/190/190 43/43/43
f 43/43/43 42/42/42 189/189/189
f 191/191/191 192/192/192 90/90/90
f 90/90/90 89/89/89 191/191/191
f 193/193/193 194/194/194 94/94/94
f 94/94/94 93/93/93 193/193/193
f 195/195/195 196/196/196 98/98/98
f 98/98/98 97/97/97 195/195/195
f 197/197/197 198/198/198 102/102/102
f 102/102/102 101/101/101 197/197/197
f 199/199/199 200/200/200 201/201/201
f 201/201/201 202/202/202 199/199/199
f 203/203/203 204/204/204 205/205/205
f 205/205/205 206/206/206 203/203/203
f 207/207/207 208/208/208 209/209/209
f 209/209/209 210/210/210 207/207/207
f 211/211/211 212/212/212 208/208/208
f 208/208/208 207/207/207 211/211/211
f 213/213/213 214/214/214 215/215/215
f 215/215/215 216/216/216 213/213/213
f 217/217/217 218/218/218 219/219/219
f 219/219/219 220/220/220 217/217/217
f 221/221/221 222/222/222 223/223/223
f 223/223/223 224/224/224 221/221/221
f 120/120/120 119/119/119 225/225/225
f 225/225/225 226/226/226 120/120/120
f 227/227/227 228/228/228 229/229/229
f 229/229/229 230/230/230 227/227/227
f 231/231/231 232/232/232 233/233/233
f 233/233/233 234/234/234 231/231/231
f 235/235/235 167/167/167 81/81/81
f 81/81/81 236/236/236 235/235/235
f 86/86/86 237/237/237 238/238/238
f 238/238/238 87/87/87 86/86/86
f 127/127/127 128/128/128 192/192/192
f 192/192/192 191/191/191 127/127/127
f 239/239/239 240/240/240 241/241/241
f 241/241/241 242/242/242 239/239/239
f 131/131/131 196/196/196 195/195/195
f 195/195/195 132/132/132 131/131/131
f 133/133/133 198/198/198 197/197/197
f 197/197/197 134/134/134 133/133/133
f 137/137/137 199/199/199 202/202/202
f 202/202/202 138/138/138 137/137/137
f 141/141/141 203/203/203 206/206/206
f 206/206/206 142/142/142 141/141/141
f 146/146/146 207/207/207 210/210/210
f 210/210/210 162/162/162 146/146/146
f 146/146/146 145/145/145 211/211/211
f 211/211/211 207/207/207 146/146/146
f 187/187/187 186/186/186 214/214/214
f 214/214/214 213/213/213 187/187/187
f 149/149/149 217/217/217 220/220/220
f 220/220/220 150/150/150 149/149/149
f 152/152/152 222/222/222 221/221/221
f 221/221/221 153/153/153 152/152/152
f 226/226/226 225/225/225 156/156/156
f 156/156/156 155/155/155 226/226/226
f 227/227/227 175/175/175 178/178/178
f 178/178/178 228/228/228 227/227/227
f 122/122/122 231/231/231 234/234/234
f 234/234/234 123/123/123 122/122/122
f 170/170/170 169/169/169 235/235/235
f 235/235/235 236/236/236 170/170/170
f 237/237/237 126/126/126 125/125/125
f 125/125/125 238/238/238 237/237/237
f 243/243/243 244/244/244 180/180/180
f 180/180/180 179/179/179 243/243/243
f 175/175/175 245/245/245 246/246/246
f 246/246/246 176/176/176 175/175/175
f 245/245/245 175/175/175 227/227/227
f 227/227/227 247/247/247 245/245/245
f 247/247/247 227/227/227 230/230/230
f 230/230/230 248/248/248 247/247/247
f 249/249/249 174/174/174 173/173/173
f 173/173/173 250/250/250 249/249/249
f 251/251/251 40/40/40 43/43/43
f 43/43/43 252/252/252 251/251/251
f 190/190/190 253/253/253 252/252/252
f 252/252/252 43/43/43 190/190/190
f 214/214/214 254/254/254 255/255/255
f 255/255/255 215/215/215 214/214/214
f 186/186/186 256/256/256 254/254/254
f 254/254/254 214/214/214 186/186/186
f 257/257/257 256/256/256 186/186/186
f 186/186/186 185/185/185 257/257/257
f 258/258/258 259/259/259 183/183/183
f 183/183/183 50/50/50 258/258/258
f 50/50/50 49/49/49 260/260/260
f 260/260/260 258/258/258 50/50/50
f 47/47/47 60/60/60 64/64/64
f 64/64/64 48/48/48 47/47/47
f 60/60/60 47/47/47 184/184/184
f 184/184/184 61/61/61 60/60/60
f 144/144/144 188/188/188 187/187/187
f 187/187/187 145/145/145 144/144/144
f 145/145/145 187/187/187 213/213/213
f 213/213/213 211/211/211 145/145/145
f 211/211/211 213/213/213 216/216/216
f 216/216/216 212/212/212 211/211/211
f 189/189/189 42/42/42 57/57/57
f 57/57/57 109/109/109 189/189/189
f 41/41/41 58/58/58 57/57/57
f 57/57/57 42/42/42 41/41/41
f 84/84/84 83/83/83 172/172/172
f 172/172/172 171/171/171 84/84/84
f 229/229/229 228/228/228 234/234/234
f 234/234/234 233/233/233 229/229/229
f 228/228/228 178/178/178 123/123/123
f 123/123/123 234/234/234 228/228/228
f 178/178/178 177/177/177 124/124/124
f 124/124/124 123/123/123 178/178/178
f 182/182/182 181/181/181 54/54/54
f 54/54/54 53/53/53 182/182/182
f 34/34/34 33/33/33 11/11/11
f 11/11/11 10/10/10 34/34/34
f 136/136/136 139/139/139 142/142/142
f 142/142/142 137/137/137 136/136/136
f 142/142/142 206/206/206 199/199/199
f 199/199/199 137/137/137 142/142/142
f 206/206/206 205/205/205 200/200/200
f 200/200/200 199/199/199 206/206/206
f 107/107/107 30/30/30 21/21/21
f 21/21/21 105/105/105 107/107/107
f 22/22/22 21/21/21 30/30/30
f 30/30/30 29/29/29 22/22/22
f 261/261/261 262/262/262 88/88/88
f 88/88/88 87/87/87 261/261/261
f 263/263/263 261/261/261 87/87/87
f 87/87/87 238/238/238 263/263/263
f 263/263/263 238/238/238 125/125/125
f 125/125/125 264/264/264 263/263/263
f 264/264/264 125/125/125 23/23/23
f 23/23/23 265/265/265 264/264/264
f 26/26/26 266/266/266 265/265/265
f 265/265/265 23/23/23 26/26/26
f 34/34/34 10/10/10 18/18/18
f 18/18/18 35/35/35 34/34/34
f 267/267/267 268/268/268 36/36/36
f 36/36/36 35/35/35 267/267/267
f 35/35/35 18/18/18 70/70/70
f 70/70/70 267/267/267 35/35/35
f 17/17/17 71/71/71 70/70/70
f 70/70/70 18/18/18 17/17/17
f 16/16/16 15/15/15 66/66/66
f 66/66/66 65/65/65 16/16/16
f 15/15/15 134/134/134 131/131/131
f 131/131/131 66/66/66 15/15/15
f 134/134/134 197/197/197 196/196/196
f 196/196/196 131/131/131 134/134/134
f 196/196/196 197/197/197 101/101/101
f 101/101/101 98/98/98 196/196/196
f 98/98/98 101/101/101 104/104/104
f 104/104/104 99/99/99 98/98/98
f 19/19/19 22/22/22 78/78/78
f 78/78/78 77/77/77 19/19/19
f 78/78/78 22/22/22 29/29/29
f 29/29/29 269/269/269 78/78/78
f 28/28/28 270/270/270 269/269/269
f 269/269/269 29/29/29 28/28/28
f 271/271/271 166/166/166 55/55/55
f 55/55/55 272/272/272 271/271/271
f 272/272/272 55/55/55 58/58/58
f 58/58/58 273/273/273 272/272/272
f 273/273/273 58/58/58 41/41/41
f 41/41/41 274/274/274 273/273/273
f 274/274/274 41/41/41 40/40/40
f 40/40/40 275/275/275 274/274/274
f 40/40/40 251/251/251 276/276/276
f 276/276/276 275/275/275 40/40/40
f 277/277/277 278/278/278 115/115/115
f 115/115/115 114/114/114 277/277/277
f 222/222/222 279/279/279 280/280/280
f 280/280/280 223/223/223 222/222/222
f 281/281/281 279/279/279 222/222/222
f 222/222/222 152/152/152 281/281/281
f 282/282/282 281/281/281 152/152/152
f 152/152/152 151/151/151 282/282/282
f 6/6/6 283/283/283 284/284/284
f 284/284/284 7/7/7 6/6/6
f 49/49/49 285/285/285 286/286/286
f 286/286/286 260/260/260 49/49/49
f 48/48/48 287/287/287 285/285/285
f 285/285/285 49/49/49 48/48/48
f 64/64/64 288/288/288 287/287/287
f 287/287/287 48/48/48 64/64/64
f 64/64/64 63/63/63 289/289/289
f 289/289/289 288/288/288 64/64/64
f 63/63/63 159/159/159 290/290/290
f 290/290/290 289/289/289 63/63/63
f 167/167/167 235/235/235 237/237/237
f 237/237/237 86/86/86 167/167/167
f 168/168/168 167/167/167 86/86/86
f 86/86/86 85/85/85 168/168/168
f 270/270/270 28/28/28 166/166/166
f 166/166/166 271/271/271 270/270/270
f 28/28/28 27/27/27 164/164/164
f 164/164/164 166/166/166 28/28/28
f 165/165/165 164/164/164 27/27/27
f 27/27/27 108/108/108 165/165/165
f 203/203/203 210/210/210 209/209/209
f 209/209/209 204/204/204 203/203/203
f 141/141/141 162/162/162 210/210/210
f 210/210/210 203/203/203 141/141/141
f 140/140/140 163/163/163 162/162/162
f 162/162/162 141/141/141 140/140/140
f 31/31/31 160/160/160 161/161/161
f 161/161/161 32/32/32 31/31/31
f 160/160/160 31/31/31 36/36/36
f 36/36/36 159/159/159 160/160/160
f 268/268/268 290/290/290 159/159/159
f 159/159/159 36/36/36 268/268/268
f 24/24/24 158/158/158 157/157/157
f 157/157/157 25/25/25 24/24/24
f 169/169/169 158/158/158 24/24/24
f 24/24/24 126/126/126 169/169/169
f 235/235/235 169/169/169 126/126/126
f 126/126/126 237/237/237 235/235/235
f 291/291/291 69/69/69 72/72/72
f 72/72/72 292/292/292 291/291/291
f 293/293/293 68/68/68 67/67/67
f 67/67/67 294/294/294 293/293/293
f 294/294/294 67/67/67 132/132/132
f 132/132/132 295/295/295 294/294/294
f 132/132/132 195/195/195 296/296/296
f 296/296/296 295/295/295 132/132/132
f 195/195/195 97/97/97 297/297/297
f 297/297/297 296/296/296 195/195/195
f 97/97/97 100/100/100 298/298/298
f 298/298/298 297/297/297 97/97/97
f 80/80/80 79/79/79 299/299/299
f 299/299/299 300/300/300 80/80/80
f 90/90/90 301/301/301 302/302/302
f 302/302/302 91/91/91 90/90/90
f 192/192/192 303/303/303 301/301/301
f 301/301/301 90/90/90 192/192/192
f 128/128/128 304/304/304 303/303/303
f 303/303/303 192/192/192 128/128/128
f 128/128/128 76/76/76 305/305/305
f 305/305/305 304/304/304 128/128/128
f 76/76/76 75/75/75 306/306/306
f 306/306/306 305/305/305 76/76/76