version 1.00
188
[-0.074718,-0.372725,0.043138][-0.821013,0.318199,0.474011][0.696921,0.028824,0][-0.062652,-0.331215,0.036172][-0.827171,0.29618,0.477563][0.707933,0.069841,0][-0.072344,-0.331215,0][-0.955131,0.296185,0][0.673503,0.081458,0][-0.072344,-0.331215,0][-0.955131,0.296185,0][0.673503,0.081458,0][-0.086277,-0.372725,0][-0.948021,0.318207,0][0.656385,0.042993,0][-0.074718,-0.372725,0.043138][-0.821013,0.318199,0.474011][0.696921,0.028824,0][-0.043138,-0.372725,0.074718][-0.474013,0.318196,0.821013][0.738747,0.020764,0][-0.036172,-0.331215,0.062652][-0.477564,0.29618,0.82717][0.744087,0.062894,0][-0.062652,-0.331215,0.036172][-0.827171,0.29618,0.477563][0.707933,0.069841,0][-0.062652,-0.331215,0.036172][-0.827171,0.29618,0.477563][0.707933,0.069841,0][-0.074718,-0.372725,0.043138][-0.821013,0.318199,0.474011][0.696921,0.028824,0][-0.043138,-0.372725,0.074718][-0.474013,0.318196,0.821013][0.738747,0.020764,0][0,-0.372725,0.086277][2.26594e-006,0.318205,0.948022][0.781242,0.018063,0][0,-0.331215,0.072344][2.3989e-006,0.296186,0.95513][0.781123,0.060806,0][-0.036172,-0.331215,0.062652][-0.477564,0.29618,0.82717][0.744087,0.062894,0][-0.036172,-0.331215,0.062652][-0.477564,0.29618,0.82717][0.744087,0.062894,0][-0.043138,-0.372725,0.074718][-0.474013,0.318196,0.821013][0.738747,0.020764,0][0,-0.372725,0.086277][2.26594e-006,0.318205,0.948022][0.781242,0.018063,0][0.043138,-0.372725,0.074718][0.474011,0.318198,0.821014][0.823719,0.021023,0][0.036172,-0.331215,0.062652][0.477563,0.296179,0.827171][0.818067,0.063121,0][0,-0.331215,0.072344][2.3989e-006,0.296186,0.95513][0.781123,0.060806,0][0,-0.331215,0.072344][2.3989e-006,0.296186,0.95513][0.781123,0.060806,0][0,-0.372725,0.086277][2.26594e-006,0.318205,0.948022][0.781242,0.018063,0][0.043138,-0.372725,0.074718][0.474011,0.318198,0.821014][0.823719,0.021023,0][0.074718,-0.372725,0.043138][0.821013,0.318196,0.474013][0.865216,0.0294,0][0.062652,-0.331215,0.036172][0.82717,0.29618,0.477564][0.854088,0.070028,0][0.036172,-0.331215,0.062652][0.477563,0.296179,0.827171][0.818067,0.063121,0][0.036172,-0.331215,0.062652][0.477563,0.296179,0.827171][0.818067,0.063121,0][0.043138,-0.372725,0.074718][0.474011,0.318198,0.821014][0.823719,0.021023,0][0.074718,-0.372725,0.043138][0.821013,0.318196,0.474013][0.865216,0.0294,0][0.086277,-0.372725,0][0.948023,0.318202,0][0.905407,0.043587,0][0.072344,-0.331215,0][0.95513,0.296186,0][0.8883,0.081712,0][0.062652,-0.331215,0.036172][0.82717,0.29618,0.477564][0.854088,0.070028,0][0.062652,-0.331215,0.036172][0.82717,0.29618,0.477564][0.854088,0.070028,0][0.074718,-0.372725,0.043138][0.821013,0.318196,0.474013][0.865216,0.0294,0][0.086277,-0.372725,0][0.948023,0.318202,0][0.905407,0.043587,0][-0.074718,-0.372725,0.043138][0,-1,0][0.738035,0.281731,0][-0.086277,-0.372725,0][0,-1,0][0.731411,0.257296,0][0,-0.372725,0][0,-1,0][0.780318,0.257153,0][-0.043138,-0.372725,0.074718][0,-1,0][0.755988,0.299579,0][-0.074718,-0.372725,0.043138][0,-1,0][0.738035,0.281731,0][0,-0.372725,0][0,-1,0][0.780318,0.257153,0][0,-0.372725,0.086277][0,-1,0][0.780461,0.30606,0][-0.043138,-0.372725,0.074718][0,-1,0][0.755988,0.299579,0][0,-0.372725,0][0,-1,0][0.780318,0.257153,0][0.043138,-0.372725,0.074718][0,-1,0][0.804895,0.299436,0][0,-0.372725,0.086277][0,-1,0][0.780461,0.30606,0][0,-0.372725,0][0,-1,0][0.780318,0.257153,0][0.074718,-0.372725,0.043138][0,-1,0][0.822744,0.281482,0][0.043138,-0.372725,0.074718][0,-1,0][0.804895,0.299436,0][0,-0.372725,0][0,-1,0][0.780318,0.257153,0][0.086277,-0.372725,0][0,-1,0][0.829225,0.25701,0][0.074718,-0.372725,0.043138][0,-1,0][0.822744,0.281482,0][0,-0.372725,0][0,-1,0][0.780318,0.257153,0][0.060895,-0.290665,0][0.970709,0.240257,0][0.873251,0.11886,0][0.052918,-0.252755,0][0.984763,0.173902,0][0.862038,0.154056,0][0.045829,-0.252755,0.026459][0.852836,0.173903,0.49237][0.835847,0.147823,0][0.045829,-0.252755,0.026459][0.852836,0.173903,0.49237][0.835847,0.147823,0][0.052737,-0.290665,0.030448][0.840662,0.240256,0.485351][0.844016,0.110196,0][0.060895,-0.290665,0][0.970709,0.240257,0][0.873251,0.11886,0][0.052737,-0.290665,0.030448][0.840662,0.240256,0.485351][0.844016,0.110196,0][0.045829,-0.252755,0.026459][0.852836,0.173903,0.49237][0.835847,0.147823,0][0.026459,-0.252755,0.045829][0.492371,0.173901,0.852836][0.80868,0.143898,0][0.026459,-0.252755,0.045829][0.492371,0.173901,0.852836][0.80868,0.143898,0][0.030448,-0.290665,0.052737][0.485349,0.240256,0.840663][0.812904,0.104917,0][0.052737,-0.290665,0.030448][0.840662,0.240256,0.485351][0.844016,0.110196,0][0.030448,-0.290665,0.052737][0.485349,0.240256,0.840663][0.812904,0.104917,0][0.026459,-0.252755,0.045829][0.492371,0.173901,0.852836][0.80868,0.143898,0][0,-0.252755,0.052918][0,0.173899,0.984763][0.780999,0.142532,0][0,-0.252755,0.052918][0,0.173899,0.984763][0.780999,0.142532,0][0,-0.290665,0.060895][1.88186e-006,0.240257,0.970709][0.781035,0.103122,0][0.030448,-0.290665,0.052737][0.485349,0.240256,0.840663][0.812904,0.104917,0][0,-0.290665,0.060895][1.88186e-006,0.240257,0.970709][0.781035,0.103122,0][0,-0.252755,0.052918][0,0.173899,0.984763][0.780999,0.142532,0][-0.026459,-0.252755,0.045829][-0.49237,0.173903,0.852836][0.753274,0.143876,0][-0.026459,-0.252755,0.045829][-0.49237,0.173903,0.852836][0.753274,0.143876,0][-0.030448,-0.290665,0.052737][-0.485351,0.240256,0.840662][0.749189,0.10483,0][0,-0.290665,0.060895][1.88186e-006,0.240257,0.970709][0.781035,0.103122,0][-0.030448,-0.290665,0.052737][-0.485351,0.240256,0.840662][0.749189,0.10483,0][-0.026459,-0.252755,0.045829][-0.49237,0.173903,0.852836][0.753274,0.143876,0][-0.045829,-0.252755,0.026459][-0.852836,0.173901,0.492371][0.726107,0.147864,0][-0.045829,-0.252755,0.026459][-0.852836,0.173901,0.492371][0.726107,0.147864,0][-0.052737,-0.290665,0.030448][-0.840662,0.240256,0.485349][0.717952,0.110143,0][-0.030448,-0.290665,0.052737][-0.485351,0.240256,0.840662][0.749189,0.10483,0][-0.052737,-0.290665,0.030448][-0.840662,0.240256,0.485349][0.717952,0.110143,0][-0.045829,-0.252755,0.026459][-0.852836,0.173901,0.492371][0.726107,0.147864,0][-0.052918,-0.252755,0][-0.984764,0.173897,0][0.699878,0.154126,0][-0.052918,-0.252755,0][-0.984764,0.173897,0][0.699878,0.154126,0][-0.060895,-0.290665,0][-0.970709,0.240257,0][0.688583,0.118821,0][-0.052737,-0.290665,0.030448][-0.840662,0.240256,0.485349][0.717952,0.110143,0][0.052918,-0.252755,0][0.984763,0.173902,0][0.862038,0.154056,0][0.038162,-0.148235,0][0.990181,0.139792,0][0.838458,0.254287,0][0.033049,-0.148235,0.019081][0.857519,0.139796,0.495094][0.81954,0.250582,0][0.033049,-0.148235,0.019081][0.857519,0.139796,0.495094][0.81954,0.250582,0][0.045829,-0.252755,0.026459][0.852836,0.173903,0.49237][0.835847,0.147823,0][0.052918,-0.252755,0][0.984763,0.173902,0][0.862038,0.154056,0][0.045829,-0.252755,0.026459][0.852836,0.173903,0.49237][0.835847,0.147823,0][0.033049,-0.148235,0.019081][0.857519,0.139796,0.495094][0.81954,0.250582,0][0.019081,-0.148235,0.033049][0.495096,0.1398,0.857517][0.800361,0.248287,0][0.019081,-0.148235,0.033049][0.495096,0.1398,0.857517][0.800361,0.248287,0][0.026459,-0.252755,0.045829][0.492371,0.173901,0.852836][0.80868,0.143898,0][0.045829,-0.252755,0.026459][0.852836,0.173903,0.49237][0.835847,0.147823,0][0.026459,-0.252755,0.045829][0.492371,0.173901,0.852836][0.80868,0.143898,0][0.019081,-0.148235,0.033049][0.495096,0.1398,0.857517][0.800361,0.248287,0][0,-0.148235,0.038162][-3.00137e-006,0.139796,0.99018][0.781024,0.247486,0][0,-0.148235,0.038162][-3.00137e-006,0.139796,0.99018][0.781024,0.247486,0][0,-0.252755,0.052918][0,0.173899,0.984763][0.780999,0.142532,0][0.026459,-0.252755,0.045829][0.492371,0.173901,0.852836][0.80868,0.143898,0][0,-0.252755,0.052918][0,0.173899,0.984763][0.780999,0.142532,0][0,-0.148235,0.038162][-3.00137e-006,0.139796,0.99018][0.781024,0.247486,0][-0.019081,-0.148235,0.033049][-0.495094,0.139796,0.857519][0.761704,0.248297,0][-0.019081,-0.148235,0.033049][-0.495094,0.139796,0.857519][0.761704,0.248297,0][-0.026459,-0.252755,0.045829][-0.49237,0.173903,0.852836][0.753274,0.143876,0][0,-0.252755,0.052918][0,0.173899,0.984763][0.780999,0.142532,0][-0.026459,-0.252755,0.045829][-0.49237,0.173903,0.852836][0.753274,0.143876,0][-0.019081,-0.148235,0.033049][-0.495094,0.139796,0.857519][0.761704,0.248297,0][-0.033049,-0.148235,0.019081][-0.857517,0.1398,0.495096][0.742489,0.250558,0][-0.033049,-0.148235,0.019081][-0.857517,0.1398,0.495096][0.742489,0.250558,0][-0.045829,-0.252755,0.026459][-0.852836,0.173901,0.492371][0.726107,0.147864,0][-0.026459,-0.252755,0.045829][-0.49237,0.173903,0.852836][0.753274,0.143876,0][-0.045829,-0.252755,0.026459][-0.852836,0.173901,0.492371][0.726107,0.147864,0][-0.033049,-0.148235,0.019081][-0.857517,0.1398,0.495096][0.742489,0.250558,0][-0.038162,-0.148235,0][-0.99018,0.139801,0][0.723561,0.254287,0][-0.038162,-0.148235,0][-0.99018,0.139801,0][0.723561,0.254287,0][-0.052918,-0.252755,0][-0.984764,0.173897,0][0.699878,0.154126,0][-0.045829,-0.252755,0.026459][-0.852836,0.173901,0.492371][0.726107,0.147864,0][0.072344,-0.331215,0][0.95513,0.296186,0][0.8883,0.081712,0][0.060895,-0.290665,0][0.970709,0.240257,0][0.873251,0.11886,0][0.052737,-0.290665,0.030448][0.840662,0.240256,0.485351][0.844016,0.110196,0][0.052737,-0.290665,0.030448][0.840662,0.240256,0.485351][0.844016,0.110196,0][0.062652,-0.331215,0.036172][0.82717,0.29618,0.477564][0.854088,0.070028,0][0.072344,-0.331215,0][0.95513,0.296186,0][0.8883,0.081712,0][0.062652,-0.331215,0.036172][0.82717,0.29618,0.477564][0.854088,0.070028,0][0.052737,-0.290665,0.030448][0.840662,0.240256,0.485351][0.844016,0.110196,0][0.030448,-0.290665,0.052737][0.485349,0.240256,0.840663][0.812904,0.104917,0][0.030448,-0.290665,0.052737][0.485349,0.240256,0.840663][0.812904,0.104917,0][0.036172,-0.331215,0.062652][0.477563,0.296179,0.827171][0.818067,0.063121,0][0.062652,-0.331215,0.036172][0.82717,0.29618,0.477564][0.854088,0.070028,0][0.036172,-0.331215,0.062652][0.477563,0.296179,0.827171][0.818067,0.063121,0][0.030448,-0.290665,0.052737][0.485349,0.240256,0.840663][0.812904,0.104917,0][0,-0.290665,0.060895][1.88186e-006,0.240257,0.970709][0.781035,0.103122,0][0,-0.290665,0.060895][1.88186e-006,0.240257,0.970709][0.781035,0.103122,0][0,-0.331215,0.072344][2.3989e-006,0.296186,0.95513][0.781123,0.060806,0][0.036172,-0.331215,0.062652][0.477563,0.296179,0.827171][0.818067,0.063121,0][0,-0.331215,0.072344][2.3989e-006,0.296186,0.95513][0.781123,0.060806,0][0,-0.290665,0.060895][1.88186e-006,0.240257,0.970709][0.781035,0.103122,0][-0.030448,-0.290665,0.052737][-0.485351,0.240256,0.840662][0.749189,0.10483,0][-0.030448,-0.290665,0.052737][-0.485351,0.240256,0.840662][0.749189,0.10483,0][-0.036172,-0.331215,0.062652][-0.477564,0.29618,0.82717][0.744087,0.062894,0][0,-0.331215,0.072344][2.3989e-006,0.296186,0.95513][0.781123,0.060806,0][-0.036172,-0.331215,0.062652][-0.477564,0.29618,0.82717][0.744087,0.062894,0][-0.030448,-0.290665,0.052737][-0.485351,0.240256,0.840662][0.749189,0.10483,0][-0.052737,-0.290665,0.030448][-0.840662,0.240256,0.485349][0.717952,0.110143,0][-0.052737,-0.290665,0.030448][-0.840662,0.240256,0.485349][0.717952,0.110143,0][-0.062652,-0.331215,0.036172][-0.827171,0.29618,0.477563][0.707933,0.069841,0][-0.036172,-0.331215,0.062652][-0.477564,0.29618,0.82717][0.744087,0.062894,0][-0.062652,-0.331215,0.036172][-0.827171,0.29618,0.477563][0.707933,0.069841,0][-0.052737,-0.290665,0.030448][-0.840662,0.240256,0.485349][0.717952,0.110143,0][-0.060895,-0.290665,0][-0.970709,0.240257,0][0.688583,0.118821,0][-0.060895,-0.290665,0][-0.970709,0.240257,0][0.688583,0.118821,0][-0.072344,-0.331215,0][-0.955131,0.296185,0][0.673503,0.081458,0][-0.062652,-0.331215,0.036172][-0.827171,0.29618,0.477563][0.707933,0.069841,0][-0.072344,-0.331215,0][-0.955131,0.296185,0][0.673503,0.081458,0][-0.062652,-0.331215,-0.036172][-0.827171,0.29618,-0.477563][0.707933,0.069841,0][-0.074718,-0.372725,-0.043138][-0.821014,0.318199,-0.474011][0.696921,0.028824,0][-0.074718,-0.372725,-0.043138][-0.821014,0.318199,-0.474011][0.696921,0.028824,0][-0.086277,-0.372725,0][-0.948021,0.318207,0][0.656385,0.042993,0][-0.072344,-0.331215,0][-0.955131,0.296185,0][0.673503,0.081458,0][-0.062652,-0.331215,-0.036172][-0.827171,0.29618,-0.477563][0.707933,0.069841,0][-0.036172,-0.331215,-0.062652][-0.477565,0.29618,-0.82717][0.744087,0.062894,0][-0.043138,-0.372725,-0.074718][-0.474014,0.318196,-0.821013][0.738747,0.020764,0][-0.043138,-0.372725,-0.074718][-0.474014,0.318196,-0.821013][0.738747,0.020764,0][-0.074718,-0.372725,-0.043138][-0.821014,0.318199,-0.474011][0.696921,0.028824,0][-0.062652,-0.331215,-0.036172][-0.827171,0.29618,-0.477563][0.707933,0.069841,0][-0.036172,-0.331215,-0.062652][-0.477565,0.29618,-0.82717][0.744087,0.062894,0][0,-0.331215,-0.072344][2.3154e-006,0.296186,-0.95513][0.781123,0.060806,0][0,-0.372725,-0.086277][2.18307e-006,0.318205,-0.948022][0.781242,0.018063,0][0,-0.372725,-0.086277][2.18307e-006,0.318205,-0.948022][0.781242,0.018063,0][-0.043138,-0.372725,-0.074718][-0.474014,0.318196,-0.821013][0.738747,0.020764,0][-0.036172,-0.331215,-0.062652][-0.477565,0.29618,-0.82717][0.744087,0.062894,0][0,-0.331215,-0.072344][2.3154e-006,0.296186,-0.95513][0.781123,0.060806,0][0.036172,-0.331215,-0.062652][0.477563,0.296179,-0.827171][0.818067,0.063121,0][0.043138,-0.372725,-0.074718][0.474011,0.318198,-0.821014][0.823719,0.021023,0][0.043138,-0.372725,-0.074718][0.474011,0.318198,-0.821014][0.823719,0.021023,0][0,-0.372725,-0.086277][2.18307e-006,0.318205,-0.948022][0.781242,0.018063,0][0,-0.331215,-0.072344][2.3154e-006,0.296186,-0.95513][0.781123,0.060806,0][0.036172,-0.331215,-0.062652][0.477563,0.296179,-0.827171][0.818067,0.063121,0][0.062652,-0.331215,-0.036172][0.82717,0.29618,-0.477565][0.854088,0.070028,0][0.074718,-0.372725,-0.043138][0.821013,0.318196,-0.474014][0.865216,0.0294,0][0.074718,-0.372725,-0.043138][0.821013,0.318196,-0.474014][0.865216,0.0294,0][0.043138,-0.372725,-0.074718][0.474011,0.318198,-0.821014][0.823719,0.021023,0][0.036172,-0.331215,-0.062652][0.477563,0.296179,-0.827171][0.818067,0.063121,0][0.062652,-0.331215,-0.036172][0.82717,0.29618,-0.477565][0.854088,0.070028,0][0.072344,-0.331215,0][0.95513,0.296186,0][0.8883,0.081712,0][0.086277,-0.372725,0][0.948023,0.318202,0][0.905407,0.043587,0][0.086277,-0.372725,0][0.948023,0.318202,0][0.905407,0.043587,0][0.074718,-0.372725,-0.043138][0.821013,0.318196,-0.474014][0.865216,0.0294,0][0.062652,-0.331215,-0.036172][0.82717,0.29618,-0.477565][0.854088,0.070028,0][-0.074718,-0.372725,-0.043138][0,-1,0][0.738035,0.281731,0][0,-0.372725,0][0,-1,0][0.780318,0.257153,0][-0.086277,-0.372725,0][0,-1,0][0.731411,0.257296,0][-0.043138,-0.372725,-0.074718][0,-1,0][0.755988,0.299579,0][0,-0.372725,0][0,-1,0][0.780318,0.257153,0][-0.074718,-0.372725,-0.043138][0,-1,0][0.738035,0.281731,0][0,-0.372725,-0.086277][0,-1,0][0.780461,0.30606,0][0,-0.372725,0][0,-1,0][0.780318,0.257153,0][-0.043138,-0.372725,-0.074718][0,-1,0][0.755988,0.299579,0][0.043138,-0.372725,-0.074718][0,-1,0][0.804895,0.299436,0][0,-0.372725,0][0,-1,0][0.780318,0.257153,0][0,-0.372725,-0.086277][0,-1,0][0.780461,0.30606,0][0.074718,-0.372725,-0.043138][0,-1,0][0.822744,0.281482,0][0,-0.372725,0][0,-1,0][0.780318,0.257153,0][0.043138,-0.372725,-0.074718][0,-1,0][0.804895,0.299436,0][0.086277,-0.372725,0][0,-1,0][0.829225,0.25701,0][0,-0.372725,0][0,-1,0][0.780318,0.257153,0][0.074718,-0.372725,-0.043138][0,-1,0][0.822744,0.281482,0][0.045829,-0.252755,-0.026459][0.852836,0.173903,-0.492371][0.835847,0.147823,0][0.052918,-0.252755,0][0.984763,0.173902,0][0.862038,0.154056,0][0.060895,-0.290665,0][0.970709,0.240257,0][0.873251,0.11886,0][0.060895,-0.290665,0][0.970709,0.240257,0][0.873251,0.11886,0][0.052737,-0.290665,-0.030448][0.840662,0.240256,-0.485351][0.844016,0.110196,0][0.045829,-0.252755,-0.026459][0.852836,0.173903,-0.492371][0.835847,0.147823,0][0.026459,-0.252755,-0.045829][0.492371,0.173901,-0.852836][0.80868,0.143898,0][0.045829,-0.252755,-0.026459][0.852836,0.173903,-0.492371][0.835847,0.147823,0][0.052737,-0.290665,-0.030448][0.840662,0.240256,-0.485351][0.844016,0.110196,0][0.052737,-0.290665,-0.030448][0.840662,0.240256,-0.485351][0.844016,0.110196,0][0.030448,-0.290665,-0.052737][0.485349,0.240256,-0.840663][0.812904,0.104917,0][0.026459,-0.252755,-0.045829][0.492371,0.173901,-0.852836][0.80868,0.143898,0][0,-0.252755,-0.052918][0,0.173899,-0.984763][0.780999,0.142532,0][0.026459,-0.252755,-0.045829][0.492371,0.173901,-0.852836][0.80868,0.143898,0][0.030448,-0.290665,-0.052737][0.485349,0.240256,-0.840663][0.812904,0.104917,0][0.030448,-0.290665,-0.052737][0.485349,0.240256,-0.840663][0.812904,0.104917,0][0,-0.290665,-0.060895][1.797e-006,0.240257,-0.970709][0.781035,0.103122,0][0,-0.252755,-0.052918][0,0.173899,-0.984763][0.780999,0.142532,0][-0.026459,-0.252755,-0.045829][-0.492371,0.173903,-0.852836][0.753274,0.143876,0][0,-0.252755,-0.052918][0,0.173899,-0.984763][0.780999,0.142532,0][0,-0.290665,-0.060895][1.797e-006,0.240257,-0.970709][0.781035,0.103122,0][0,-0.290665,-0.060895][1.797e-006,0.240257,-0.970709][0.781035,0.103122,0][-0.030448,-0.290665,-0.052737][-0.485351,0.240256,-0.840662][0.749189,0.10483,0][-0.026459,-0.252755,-0.045829][-0.492371,0.173903,-0.852836][0.753274,0.143876,0][-0.045829,-0.252755,-0.026459][-0.852836,0.173901,-0.492371][0.726107,0.147864,0][-0.026459,-0.252755,-0.045829][-0.492371,0.173903,-0.852836][0.753274,0.143876,0][-0.030448,-0.290665,-0.052737][-0.485351,0.240256,-0.840662][0.749189,0.10483,0][-0.030448,-0.290665,-0.052737][-0.485351,0.240256,-0.840662][0.749189,0.10483,0][-0.052737,-0.290665,-0.030448][-0.840663,0.240256,-0.485349][0.717952,0.110143,0][-0.045829,-0.252755,-0.026459][-0.852836,0.173901,-0.492371][0.726107,0.147864,0][-0.052918,-0.252755,0][-0.984764,0.173897,0][0.699878,0.154126,0][-0.045829,-0.252755,-0.026459][-0.852836,0.173901,-0.492371][0.726107,0.147864,0][-0.052737,-0.290665,-0.030448][-0.840663,0.240256,-0.485349][0.717952,0.110143,0][-0.052737,-0.290665,-0.030448][-0.840663,0.240256,-0.485349][0.717952,0.110143,0][-0.060895,-0.290665,0][-0.970709,0.240257,0][0.688583,0.118821,0][-0.052918,-0.252755,0][-0.984764,0.173897,0][0.699878,0.154126,0][0.033049,-0.148235,-0.019081][0.857519,0.139796,-0.495094][0.81954,0.250582,0][0.038162,-0.148235,0][0.990181,0.139792,0][0.838458,0.254287,0][0.052918,-0.252755,0][0.984763,0.173902,0][0.862038,0.154056,0][0.052918,-0.252755,0][0.984763,0.173902,0][0.862038,0.154056,0][0.045829,-0.252755,-0.026459][0.852836,0.173903,-0.492371][0.835847,0.147823,0][0.033049,-0.148235,-0.019081][0.857519,0.139796,-0.495094][0.81954,0.250582,0][0.019081,-0.148235,-0.033049][0.495096,0.1398,-0.857517][0.800361,0.248287,0][0.033049,-0.148235,-0.019081][0.857519,0.139796,-0.495094][0.81954,0.250582,0][0.045829,-0.252755,-0.026459][0.852836,0.173903,-0.492371][0.835847,0.147823,0][0.045829,-0.252755,-0.026459][0.852836,0.173903,-0.492371][0.835847,0.147823,0][0.026459,-0.252755,-0.045829][0.492371,0.173901,-0.852836][0.80868,0.143898,0][0.019081,-0.148235,-0.033049][0.495096,0.1398,-0.857517][0.800361,0.248287,0][0,-0.148235,-0.038162][-3.08793e-006,0.139796,-0.99018][0.781024,0.247486,0][0.019081,-0.148235,-0.033049][0.495096,0.1398,-0.857517][0.800361,0.248287,0][0.026459,-0.252755,-0.045829][0.492371,0.173901,-0.852836][0.80868,0.143898,0][0.026459,-0.252755,-0.045829][0.492371,0.173901,-0.852836][0.80868,0.143898,0][0,-0.252755,-0.052918][0,0.173899,-0.984763][0.780999,0.142532,0][0,-0.148235,-0.038162][-3.08793e-006,0.139796,-0.99018][0.781024,0.247486,0][-0.019081,-0.148235,-0.033049][-0.495094,0.139796,-0.857519][0.761704,0.248297,0][0,-0.148235,-0.038162][-3.08793e-006,0.139796,-0.99018][0.781024,0.247486,0][0,-0.252755,-0.052918][0,0.173899,-0.984763][0.780999,0.142532,0][0,-0.252755,-0.052918][0,0.173899,-0.984763][0.780999,0.142532,0][-0.026459,-0.252755,-0.045829][-0.492371,0.173903,-0.852836][0.753274,0.143876,0][-0.019081,-0.148235,-0.033049][-0.495094,0.139796,-0.857519][0.761704,0.248297,0][-0.033049,-0.148235,-0.019081][-0.857517,0.1398,-0.495096][0.742489,0.250558,0][-0.019081,-0.148235,-0.033049][-0.495094,0.139796,-0.857519][0.761704,0.248297,0][-0.026459,-0.252755,-0.045829][-0.492371,0.173903,-0.852836][0.753274,0.143876,0][-0.026459,-0.252755,-0.045829][-0.492371,0.173903,-0.852836][0.753274,0.143876,0][-0.045829,-0.252755,-0.026459][-0.852836,0.173901,-0.492371][0.726107,0.147864,0][-0.033049,-0.148235,-0.019081][-0.857517,0.1398,-0.495096][0.742489,0.250558,0][-0.038162,-0.148235,0][-0.99018,0.139801,0][0.723561,0.254287,0][-0.033049,-0.148235,-0.019081][-0.857517,0.1398,-0.495096][0.742489,0.250558,0][-0.045829,-0.252755,-0.026459][-0.852836,0.173901,-0.492371][0.726107,0.147864,0][-0.045829,-0.252755,-0.026459][-0.852836,0.173901,-0.492371][0.726107,0.147864,0][-0.052918,-0.252755,0][-0.984764,0.173897,0][0.699878,0.154126,0][-0.038162,-0.148235,0][-0.99018,0.139801,0][0.723561,0.254287,0][0.052737,-0.290665,-0.030448][0.840662,0.240256,-0.485351][0.844016,0.110196,0][0.060895,-0.290665,0][0.970709,0.240257,0][0.873251,0.11886,0][0.072344,-0.331215,0][0.95513,0.296186,0][0.8883,0.081712,0][0.072344,-0.331215,0][0.95513,0.296186,0][0.8883,0.081712,0][0.062652,-0.331215,-0.036172][0.82717,0.29618,-0.477565][0.854088,0.070028,0][0.052737,-0.290665,-0.030448][0.840662,0.240256,-0.485351][0.844016,0.110196,0][0.030448,-0.290665,-0.052737][0.485349,0.240256,-0.840663][0.812904,0.104917,0][0.052737,-0.290665,-0.030448][0.840662,0.240256,-0.485351][0.844016,0.110196,0][0.062652,-0.331215,-0.036172][0.82717,0.29618,-0.477565][0.854088,0.070028,0][0.062652,-0.331215,-0.036172][0.82717,0.29618,-0.477565][0.854088,0.070028,0][0.036172,-0.331215,-0.062652][0.477563,0.296179,-0.827171][0.818067,0.063121,0][0.030448,-0.290665,-0.052737][0.485349,0.240256,-0.840663][0.812904,0.104917,0][0,-0.290665,-0.060895][1.797e-006,0.240257,-0.970709][0.781035,0.103122,0][0.030448,-0.290665,-0.052737][0.485349,0.240256,-0.840663][0.812904,0.104917,0][0.036172,-0.331215,-0.062652][0.477563,0.296179,-0.827171][0.818067,0.063121,0][0.036172,-0.331215,-0.062652][0.477563,0.296179,-0.827171][0.818067,0.063121,0][0,-0.331215,-0.072344][2.3154e-006,0.296186,-0.95513][0.781123,0.060806,0][0,-0.290665,-0.060895][1.797e-006,0.240257,-0.970709][0.781035,0.103122,0][-0.030448,-0.290665,-0.052737][-0.485351,0.240256,-0.840662][0.749189,0.10483,0][0,-0.290665,-0.060895][1.797e-006,0.240257,-0.970709][0.781035,0.103122,0][0,-0.331215,-0.072344][2.3154e-006,0.296186,-0.95513][0.781123,0.060806,0][0,-0.331215,-0.072344][2.3154e-006,0.296186,-0.95513][0.781123,0.060806,0][-0.036172,-0.331215,-0.062652][-0.477565,0.29618,-0.82717][0.744087,0.062894,0][-0.030448,-0.290665,-0.052737][-0.485351,0.240256,-0.840662][0.749189,0.10483,0][-0.052737,-0.290665,-0.030448][-0.840663,0.240256,-0.485349][0.717952,0.110143,0][-0.030448,-0.290665,-0.052737][-0.485351,0.240256,-0.840662][0.749189,0.10483,0][-0.036172,-0.331215,-0.062652][-0.477565,0.29618,-0.82717][0.744087,0.062894,0][-0.036172,-0.331215,-0.062652][-0.477565,0.29618,-0.82717][0.744087,0.062894,0][-0.062652,-0.331215,-0.036172][-0.827171,0.29618,-0.477563][0.707933,0.069841,0][-0.052737,-0.290665,-0.030448][-0.840663,0.240256,-0.485349][0.717952,0.110143,0][-0.060895,-0.290665,0][-0.970709,0.240257,0][0.688583,0.118821,0][-0.052737,-0.290665,-0.030448][-0.840663,0.240256,-0.485349][0.717952,0.110143,0][-0.062652,-0.331215,-0.036172][-0.827171,0.29618,-0.477563][0.707933,0.069841,0][-0.062652,-0.331215,-0.036172][-0.827171,0.29618,-0.477563][0.707933,0.069841,0][-0.072344,-0.331215,0][-0.955131,0.296185,0][0.673503,0.081458,0][-0.060895,-0.290665,0][-0.970709,0.240257,0][0.688583,0.118821,0][0,-0.307415,0][-0.302548,-0.113069,0.946404][0.752189,0.505866,0][0,-0.035025,0.032543][-0.170174,-0.229213,0.958385][0.752218,0.759609,0][-0.07051,-0.118745,0][-0.147582,-0.24789,0.957481][0.684139,0.678231,0][-0.259226,-0.119075,0][-0.187045,0.204894,0.960746][0.510276,0.682597,0][0,-0.035025,0.032543][-0.243643,0.0759104,0.96689][0.752218,0.759609,0][-0.114038,0.013465,0][-0.253605,0.0518301,0.965918][0.642625,0.805863,0][-0.169915,0.212535,0][0.123376,0.212116,0.969425][0.594626,0.990052,0][0,-0.035025,0.032543][0,0.213749,0.976889][0.752218,0.759609,0][0,0.113705,0][0,0.213749,0.976889][0.75181,0.900809,0][0.169915,0.212535,0][0.307117,-0.0862048,0.947759][0.908918,0.990781,0][0,-0.035025,0.032543][0.243643,0.0759104,0.96689][0.752218,0.759609,0][0.114038,0.013465,0][0.253605,0.0518301,0.965918][0.861583,0.806321,0][0.259226,-0.119075,0][-0.000634334,-0.362767,0.93188][0.994336,0.6831,0][0,-0.035025,0.032543][0.170175,-0.229213,0.958385][0.752218,0.759609,0][0.07051,-0.118745,0][0.147582,-0.24789,0.957481][0.820436,0.678432,0][0,-0.035025,0.032543][-0.243643,0.0759104,0.96689][0.752218,0.759609,0][-0.169915,0.212535,0][-0.307117,-0.0862047,0.947759][0.594626,0.990052,0][-0.114038,0.013465,0][-0.253605,0.0518301,0.965918][0.642625,0.805863,0][0,-0.035025,0.032543][-0.170174,-0.229213,0.958385][0.752218,0.759609,0][-0.259226,-0.119075,0][0.000634384,-0.362767,0.93188][0.510276,0.682597,0][-0.07051,-0.118745,0][-0.147582,-0.24789,0.957481][0.684139,0.678231,0][0,-0.035025,0.032543][0.170175,-0.229213,0.958385][0.752218,0.759609,0][0,-0.307415,0][0.302549,-0.113069,0.946404][0.752189,0.505866,0][0.07051,-0.118745,0][0.147582,-0.24789,0.957481][0.820436,0.678432,0][0,-0.035025,0.032543][0.243643,0.0759104,0.96689][0.752218,0.759609,0][0.259226,-0.119075,0][0.187045,0.204894,0.960746][0.994336,0.6831,0][0.114038,0.013465,0][0.253605,0.0518301,0.965918][0.861583,0.806321,0][0,-0.035025,0.032543][0,0.213749,0.976889][0.752218,0.759609,0][0.169915,0.212535,0][-0.123376,0.212116,0.969425][0.908918,0.990781,0][0,0.113705,0][0,0.213749,0.976889][0.75181,0.900809,0][0,-0.307415,0][-0.302549,-0.113069,-0.946404][0.752189,0.505866,0][-0.07051,-0.118745,0][-0.147582,-0.24789,-0.957481][0.684139,0.678231,0][0,-0.035025,-0.032543][-0.170175,-0.229213,-0.958385][0.752218,0.759609,0][-0.259226,-0.119075,0][-0.187045,0.204894,-0.960746][0.510276,0.682597,0][-0.114038,0.013465,0][-0.253605,0.0518301,-0.965918][0.642625,0.805863,0][0,-0.035025,-0.032543][-0.243643,0.0759104,-0.96689][0.752218,0.759609,0][-0.169915,0.212535,0][0.123376,0.212116,-0.969425][0.594626,0.990052,0][0,0.113705,0][0,0.213749,-0.976889][0.75181,0.900809,0][0,-0.035025,-0.032543][0,0.213749,-0.976889][0.752218,0.759609,0][0.169915,0.212535,0][0.307117,-0.0862048,-0.947759][0.908918,0.990781,0][0.114038,0.013465,0][0.253605,0.0518301,-0.965918][0.861583,0.806321,0][0,-0.035025,-0.032543][0.243643,0.0759104,-0.96689][0.752218,0.759609,0][0.259226,-0.119075,0][-0.000634415,-0.362767,-0.93188][0.994336,0.6831,0][0.07051,-0.118745,0][0.147582,-0.24789,-0.957481][0.820436,0.678432,0][0,-0.035025,-0.032543][0.170174,-0.229213,-0.958385][0.752218,0.759609,0][0,-0.035025,-0.032543][-0.243643,0.0759104,-0.96689][0.752218,0.759609,0][-0.114038,0.013465,0][-0.253605,0.0518301,-0.965918][0.642625,0.805863,0][-0.169915,0.212535,0][-0.307117,-0.0862047,-0.947759][0.594626,0.990052,0][0,-0.035025,-0.032543][-0.170175,-0.229213,-0.958385][0.752218,0.759609,0][-0.07051,-0.118745,0][-0.147582,-0.24789,-0.957481][0.684139,0.678231,0][-0.259226,-0.119075,0][0.000634302,-0.362767,-0.93188][0.510276,0.682597,0][0,-0.035025,-0.032543][0.170174,-0.229213,-0.958385][0.752218,0.759609,0][0.07051,-0.118745,0][0.147582,-0.24789,-0.957481][0.820436,0.678432,0][0,-0.307415,0][0.302548,-0.113069,-0.946404][0.752189,0.505866,0][0,-0.035025,-0.032543][0.243643,0.0759104,-0.96689][0.752218,0.759609,0][0.114038,0.013465,0][0.253605,0.0518301,-0.965918][0.861583,0.806321,0][0.259226,-0.119075,0][0.187045,0.204894,-0.960746][0.994336,0.6831,0][0,-0.035025,-0.032543][0,0.213749,-0.976889][0.752218,0.759609,0][0,0.113705,0][0,0.213749,-0.976889][0.75181,0.900809,0][0.169915,0.212535,0][-0.123376,0.212116,-0.969425][0.908918,0.990781,0][0.099217,0.108935,0][0.809987,0.302865,-0.502189][0.529081,0.535208,0][0.096496,0.106185,-0.006034][0.725485,0.270582,-0.632817][0.524433,0.529681,0][0,0.362735,-0.006964][0.811581,0.304806,-0.498427][0.396023,0.761145,0][0,0.362735,-0.006964][0.811581,0.304806,-0.498427][0.396023,0.761145,0][0,0.372725,0][0.835487,0.314244,-0.45079][0.398257,0.772641,0][0.099217,0.108935,0][0.809987,0.302865,-0.502189][0.529081,0.535208,0][0.160467,-0.077095,0][0.532387,-0.582928,-0.613807][0.60117,0.287489,0][0.156066,-0.074745,-0.00603401][0.475523,-0.521534,-0.708435][0.594102,0.290614,0][0.353117,0.106185,-0.00696402][0.539469,-0.588301,-0.602392][0.765813,0.480705,0][0.353117,0.106185,-0.00696402][0.539469,-0.588301,-0.602392][0.765813,0.480705,0][0.363075,0.108935,0][0.560256,-0.610183,-0.56017][0.777652,0.481808,0][0.160467,-0.077095,0][0.532387,-0.582928,-0.613807][0.60117,0.287489,0][0,-0.217095,0][-0.378835,-0.646798,-0.661919][0.396019,0.124605,0][0,-0.210905,-0.006034][-0.331301,-0.564355,-0.756137][0.395979,0.133041,0][0.231458,-0.345535,-0.00696401][-0.383078,-0.657533,-0.648769][0.62545,0.025436,0][0.231458,-0.345535,-0.00696401][-0.383078,-0.657533,-0.648769][0.62545,0.025436,0][0.237985,-0.355525,0][-0.398625,-0.685305,-0.609471][0.631013,0.013642,0][0,-0.217095,0][-0.378835,-0.646798,-0.661919][0.396019,0.124605,0][-0.160467,-0.077095,0][-0.82711,0.232016,-0.511915][0.18984,0.286824,0][-0.156066,-0.074745,-0.00603399][-0.7303,0.205564,-0.651464][0.196889,0.290026,0][-0.231458,-0.345535,-0.00696399][-0.832854,0.232263,-0.502402][0.166327,0.024626,0][-0.231458,-0.345535,-0.00696399][-0.832854,0.232263,-0.502402][0.166327,0.024626,0][-0.237985,-0.355525,0][-0.855354,0.23814,-0.460064][0.157679,0.014796,0][-0.160467,-0.077095,0][-0.82711,0.232016,-0.511915][0.18984,0.286824,0][-0.099217,0.108935,0][0.00147837,0.910524,-0.413454][0.261471,0.534929,0][-0.096496,0.106185,-0.006034][0.00210416,0.814178,-0.580612][0.266182,0.529439,0][-0.353117,0.106185,-0.00696398][0.000388496,0.908864,-0.417093][0.024852,0.48059,0][-0.353117,0.106185,-0.00696398][0.000388496,0.908864,-0.417093][0.024852,0.48059,0][-0.363075,0.108935,0][0,0.930107,-0.367288][0.014122,0.485753,0][-0.099217,0.108935,0][0.00147837,0.910524,-0.413454][0.261471,0.534929,0][0,0.362735,-0.006964][0.811581,0.304806,-0.498427][0.396023,0.761145,0][0.096496,0.106185,-0.006034][0.725485,0.270582,-0.632817][0.524433,0.529681,0][0,-0.008555,-0.134236][0.656888,0.244489,-0.713248][0.395117,0.374969,0][0.353117,0.106185,-0.00696402][0.539469,-0.588301,-0.602392][0.765813,0.480705,0][0.156066,-0.074745,-0.00603401][0.475523,-0.521534,-0.708435][0.594102,0.290614,0][0,-0.008555,-0.134236][0.430722,-0.473051,-0.768571][0.395117,0.374969,0][0.231458,-0.345535,-0.00696401][-0.383078,-0.657533,-0.648769][0.62545,0.025436,0][0,-0.210905,-0.006034][-0.331301,-0.564355,-0.756137][0.395979,0.133041,0][0,-0.008555,-0.134236][-0.300181,-0.51051,-0.805773][0.395117,0.374969,0][-0.231458,-0.345535,-0.00696399][-0.832854,0.232263,-0.502402][0.166327,0.024626,0][-0.156066,-0.074745,-0.00603399][-0.7303,0.205564,-0.651464][0.196889,0.290026,0][0,-0.008555,-0.134236][-0.669932,0.188985,-0.717966][0.395117,0.374969,0][-0.353117,0.106185,-0.00696398][0.000388496,0.908864,-0.417093][0.024852,0.48059,0][-0.096496,0.106185,-0.006034][0.00210416,0.814178,-0.580612][0.266182,0.529439,0][0,-0.008555,-0.134236][0.0024132,0.746046,-0.66589][0.395117,0.374969,0][-0.099217,0.108935,0][-0.809987,0.302865,-0.502189][0.261471,0.534929,0][0,0.372725,0][-0.835487,0.314244,-0.45079][0.393832,0.772694,0][0,0.362735,-0.006964][-0.811581,0.304806,-0.498427][0.396023,0.761145,0][0,0.362735,-0.006964][-0.811581,0.304806,-0.498427][0.396023,0.761145,0][-0.096496,0.106185,-0.006034][-0.725485,0.270582,-0.632817][0.266182,0.529439,0][-0.099217,0.108935,0][-0.809987,0.302865,-0.502189][0.261471,0.534929,0][-0.160467,-0.077095,0][-0.532387,-0.582928,-0.613807][0.18984,0.286824,0][-0.363075,0.108935,0][-0.560256,-0.610183,-0.56017][0.012984,0.4817,0][-0.353117,0.106185,-0.00696398][-0.539469,-0.588301,-0.602392][0.024852,0.48059,0][-0.353117,0.106185,-0.00696398][-0.539469,-0.588301,-0.602392][0.024852,0.48059,0][-0.156066,-0.074745,-0.00603399][-0.475523,-0.521534,-0.708435][0.196889,0.290026,0][-0.160467,-0.077095,0][-0.532387,-0.582928,-0.613807][0.18984,0.286824,0][0.160467,-0.077095,0][0.82711,0.232016,-0.511915][0.60117,0.287489,0][0.237985,-0.355525,0][0.855354,0.23814,-0.460064][0.634125,0.015635,0][0.231458,-0.345535,-0.00696401][0.832854,0.232263,-0.502402][0.62545,0.025436,0][0.231458,-0.345535,-0.00696401][0.832854,0.232263,-0.502402][0.62545,0.025436,0][0.156066,-0.074745,-0.00603401][0.7303,0.205564,-0.651464][0.594102,0.290614,0][0.160467,-0.077095,0][0.82711,0.232016,-0.511915][0.60117,0.287489,0][0.099217,0.108935,0][-0.00147832,0.910524,-0.413454][0.529081,0.535208,0][0.363075,0.108935,0][0,0.930107,-0.367288][0.776553,0.485866,0][0.353117,0.106185,-0.00696402][-0.000388453,0.908864,-0.417093][0.765813,0.480705,0][0.353117,0.106185,-0.00696402][-0.000388453,0.908864,-0.417093][0.765813,0.480705,0][0.096496,0.106185,-0.006034][-0.00210414,0.814178,-0.580612][0.524433,0.529681,0][0.099217,0.108935,0][-0.00147832,0.910524,-0.413454][0.529081,0.535208,0][0,-0.217095,0][0.378835,-0.646798,-0.661919][0.396019,0.124605,0][-0.237985,-0.355525,0][0.398625,-0.685305,-0.609471][0.160783,0.012791,0][-0.231458,-0.345535,-0.00696399][0.383078,-0.657533,-0.648769][0.166327,0.024626,0][-0.231458,-0.345535,-0.00696399][0.383078,-0.657533,-0.648769][0.166327,0.024626,0][0,-0.210905,-0.006034][0.331301,-0.564355,-0.756137][0.395979,0.133041,0][0,-0.217095,0][0.378835,-0.646798,-0.661919][0.396019,0.124605,0][0,-0.008555,-0.134236][0.669932,0.188985,-0.717966][0.395117,0.374969,0][0.156066,-0.074745,-0.00603401][0.7303,0.205564,-0.651464][0.594102,0.290614,0][0.231458,-0.345535,-0.00696401][0.832854,0.232263,-0.502402][0.62545,0.025436,0][0,-0.008555,-0.134236][-0.0024132,0.746046,-0.66589][0.395117,0.374969,0][0.096496,0.106185,-0.006034][-0.00210414,0.814178,-0.580612][0.524433,0.529681,0][0.353117,0.106185,-0.00696402][-0.000388453,0.908864,-0.417093][0.765813,0.480705,0][0,-0.008555,-0.134236][-0.656888,0.244489,-0.713248][0.395117,0.374969,0][-0.096496,0.106185,-0.006034][-0.725485,0.270582,-0.632817][0.266182,0.529439,0][0,0.362735,-0.006964][-0.811581,0.304806,-0.498427][0.396023,0.761145,0][0,-0.008555,-0.134236][-0.430722,-0.473051,-0.768571][0.395117,0.374969,0][-0.156066,-0.074745,-0.00603399][-0.475523,-0.521534,-0.708435][0.196889,0.290026,0][-0.353117,0.106185,-0.00696398][-0.539469,-0.588301,-0.602392][0.024852,0.48059,0][0,-0.008555,-0.134236][0.300181,-0.51051,-0.805773][0.395117,0.374969,0][0,-0.210905,-0.006034][0.331301,-0.564355,-0.756137][0.395979,0.133041,0][-0.231458,-0.345535,-0.00696399][0.383078,-0.657533,-0.648769][0.166327,0.024626,0][0,0.362735,0.006964][0.811581,0.304806,0.498427][0.396023,0.761145,0][0.096496,0.106185,0.006034][0.725485,0.270582,0.632817][0.524433,0.529681,0][0.099217,0.108935,0][0.809987,0.302865,0.502189][0.529081,0.535208,0][0.099217,0.108935,0][0.809987,0.302865,0.502189][0.529081,0.535208,0][0,0.372725,0][0.835487,0.314244,0.45079][0.398257,0.772641,0][0,0.362735,0.006964][0.811581,0.304806,0.498427][0.396023,0.761145,0][0.353117,0.106185,0.00696398][0.539469,-0.588301,0.602392][0.765813,0.480705,0][0.156066,-0.074745,0.00603399][0.475523,-0.521534,0.708435][0.594102,0.290614,0][0.160467,-0.077095,0][0.532387,-0.582928,0.613807][0.60117,0.287489,0][0.160467,-0.077095,0][0.532387,-0.582928,0.613807][0.60117,0.287489,0][0.363075,0.108935,0][0.560256,-0.610183,0.56017][0.777652,0.481808,0][0.353117,0.106185,0.00696398][0.539469,-0.588301,0.602392][0.765813,0.480705,0][0.231458,-0.345535,0.00696399][-0.383078,-0.657533,0.648769][0.62545,0.025436,0][0,-0.210905,0.006034][-0.331301,-0.564355,0.756137][0.395979,0.133041,0][0,-0.217095,0][-0.378835,-0.646798,0.661919][0.396019,0.124605,0][0,-0.217095,0][-0.378835,-0.646798,0.661919][0.396019,0.124605,0][0.237985,-0.355525,0][-0.398625,-0.685305,0.609471][0.631013,0.013642,0][0.231458,-0.345535,0.00696399][-0.383078,-0.657533,0.648769][0.62545,0.025436,0][-0.231458,-0.345535,0.00696401][-0.832854,0.232263,0.502402][0.166327,0.024626,0][-0.156066,-0.074745,0.00603401][-0.7303,0.205564,0.651464][0.196889,0.290026,0][-0.160467,-0.077095,0][-0.82711,0.232016,0.511915][0.18984,0.286824,0][-0.160467,-0.077095,0][-0.82711,0.232016,0.511915][0.18984,0.286824,0][-0.237985,-0.355525,0][-0.855354,0.23814,0.460064][0.157679,0.014796,0][-0.231458,-0.345535,0.00696401][-0.832854,0.232263,0.502402][0.166327,0.024626,0][-0.353117,0.106185,0.00696402][0.000388531,0.908864,0.417093][0.024852,0.48059,0][-0.096496,0.106185,0.006034][0.0021042,0.814178,0.580612][0.266182,0.529439,0][-0.099217,0.108935,0][0.0014784,0.910524,0.413454][0.261471,0.534929,0][-0.099217,0.108935,0][0.0014784,0.910524,0.413454][0.261471,0.534929,0][-0.363075,0.108935,0][0,0.930107,0.367288][0.014122,0.485753,0][-0.353117,0.106185,0.00696402][0.000388531,0.908864,0.417093][0.024852,0.48059,0][0,0.362735,0.006964][0.811581,0.304806,0.498427][0.396023,0.761145,0][0,-0.008555,0.134236][0.656888,0.244489,0.713248][0.395117,0.374969,0][0.096496,0.106185,0.006034][0.725485,0.270582,0.632817][0.524433,0.529681,0][0.353117,0.106185,0.00696398][0.539469,-0.588301,0.602392][0.765813,0.480705,0][0,-0.008555,0.134236][0.430722,-0.473051,0.768571][0.395117,0.374969,0][0.156066,-0.074745,0.00603399][0.475523,-0.521534,0.708435][0.594102,0.290614,0][0.231458,-0.345535,0.00696399][-0.383078,-0.657533,0.648769][0.62545,0.025436,0][0,-0.008555,0.134236][-0.300181,-0.51051,0.805773][0.395117,0.374969,0][0,-0.210905,0.006034][-0.331301,-0.564355,0.756137][0.395979,0.133041,0][-0.231458,-0.345535,0.00696401][-0.832854,0.232263,0.502402][0.166327,0.024626,0][0,-0.008555,0.134236][-0.669932,0.188985,0.717966][0.395117,0.374969,0][-0.156066,-0.074745,0.00603401][-0.7303,0.205564,0.651464][0.196889,0.290026,0][-0.353117,0.106185,0.00696402][0.000388531,0.908864,0.417093][0.024852,0.48059,0][0,-0.008555,0.134236][0.00241325,0.746046,0.66589][0.395117,0.374969,0][-0.096496,0.106185,0.006034][0.0021042,0.814178,0.580612][0.266182,0.529439,0][-0.099217,0.108935,0][-0.809987,0.302865,0.502189][0.261471,0.534929,0][-0.096496,0.106185,0.006034][-0.725484,0.270582,0.632817][0.266182,0.529439,0][0,0.362735,0.006964][-0.811581,0.304806,0.498427][0.396023,0.761145,0][0,0.362735,0.006964][-0.811581,0.304806,0.498427][0.396023,0.761145,0][0,0.372725,0][-0.835487,0.314244,0.45079][0.393832,0.772694,0][-0.099217,0.108935,0][-0.809987,0.302865,0.502189][0.261471,0.534929,0][-0.160467,-0.077095,0][-0.532387,-0.582928,0.613807][0.18984,0.286824,0][-0.156066,-0.074745,0.00603401][-0.475523,-0.521534,0.708435][0.196889,0.290026,0][-0.353117,0.106185,0.00696402][-0.539469,-0.588301,0.602392][0.024852,0.48059,0][-0.353117,0.106185,0.00696402][-0.539469,-0.588301,0.602392][0.024852,0.48059,0][-0.363075,0.108935,0][-0.560256,-0.610183,0.56017][0.012984,0.4817,0][-0.160467,-0.077095,0][-0.532387,-0.582928,0.613807][0.18984,0.286824,0][0.160467,-0.077095,0][0.82711,0.232016,0.511915][0.60117,0.287489,0][0.156066,-0.074745,0.00603399][0.7303,0.205564,0.651464][0.594102,0.290614,0][0.231458,-0.345535,0.00696399][0.832854,0.232263,0.502402][0.62545,0.025436,0][0.231458,-0.345535,0.00696399][0.832854,0.232263,0.502402][0.62545,0.025436,0][0.237985,-0.355525,0][0.855354,0.23814,0.460064][0.634125,0.015635,0][0.160467,-0.077095,0][0.82711,0.232016,0.511915][0.60117,0.287489,0][0.099217,0.108935,0][-0.00147829,0.910524,0.413454][0.529081,0.535208,0][0.096496,0.106185,0.006034][-0.00210409,0.814178,0.580612][0.524433,0.529681,0][0.353117,0.106185,0.00696398][-0.000388416,0.908864,0.417093][0.765813,0.480705,0][0.353117,0.106185,0.00696398][-0.000388416,0.908864,0.417093][0.765813,0.480705,0][0.363075,0.108935,0][0,0.930107,0.367288][0.776553,0.485866,0][0.099217,0.108935,0][-0.00147829,0.910524,0.413454][0.529081,0.535208,0][0,-0.217095,0][0.378835,-0.646798,0.661919][0.396019,0.124605,0][0,-0.210905,0.006034][0.331301,-0.564355,0.756137][0.395979,0.133041,0][-0.231458,-0.345535,0.00696401][0.383078,-0.657533,0.648769][0.166327,0.024626,0][-0.231458,-0.345535,0.00696401][0.383078,-0.657533,0.648769][0.166327,0.024626,0][-0.237985,-0.355525,0][0.398625,-0.685305,0.609471][0.160783,0.012791,0][0,-0.217095,0][0.378835,-0.646798,0.661919][0.396019,0.124605,0][0,-0.008555,0.134236][0.669932,0.188985,0.717966][0.395117,0.374969,0][0.231458,-0.345535,0.00696399][0.832854,0.232263,0.502402][0.62545,0.025436,0][0.156066,-0.074745,0.00603399][0.7303,0.205564,0.651464][0.594102,0.290614,0][0,-0.008555,0.134236][-0.00241314,0.746046,0.66589][0.395117,0.374969,0][0.353117,0.106185,0.00696398][-0.000388416,0.908864,0.417093][0.765813,0.480705,0][0.096496,0.106185,0.006034][-0.00210409,0.814178,0.580612][0.524433,0.529681,0][0,-0.008555,0.134236][-0.656888,0.244489,0.713248][0.395117,0.374969,0][0,0.362735,0.006964][-0.811581,0.304806,0.498427][0.396023,0.761145,0][-0.096496,0.106185,0.006034][-0.725484,0.270582,0.632817][0.266182,0.529439,0][0,-0.008555,0.134236][-0.430722,-0.473051,0.768571][0.395117,0.374969,0][-0.353117,0.106185,0.00696402][-0.539469,-0.588301,0.602392][0.024852,0.48059,0][-0.156066,-0.074745,0.00603401][-0.475523,-0.521534,0.708435][0.196889,0.290026,0][0,-0.008555,0.134236][0.300181,-0.51051,0.805773][0.395117,0.374969,0][-0.231458,-0.345535,0.00696401][0.383078,-0.657533,0.648769][0.166327,0.024626,0][0,-0.210905,0.006034][0.331301,-0.564355,0.756137][0.395979,0.133041,0]