mtllib 67291594.mtl
o Mesh

v -0.13343200087547302 -1.0 0.4030570089817047
v -0.12992000579833984 -0.9003839492797852 0.40099799633026123
v -0.23001599311828613 -0.9003839492797852 0.28617098927497864
v -0.2350129932165146 -1.0 0.28871598839759827
v 0.005330999847501516 -1.0 0.43124398589134216
v 0.006812000181525946 -0.9003839492797852 0.4310159981250763
v 0.14409300684928894 -1.0 0.4030570089817047
v 0.143545001745224 -0.9003839492797852 0.40099799633026123
v 0.006812000181525946 -0.9003839492797852 0.4310159981250763
v 0.005330999847501516 -1.0 0.43124398589134216
v 0.2456739991903305 -1.0 0.28871598839759827
v 0.2436400055885315 -0.9003839492797852 0.28617098927497864
v 0.28285500407218933 -1.0 0.12616099417209625
v 0.2802770137786865 -0.9003839492797852 0.12483400106430054
v 0.2456739991903305 -1.0 -0.01181699987500906
v 0.2436400055885315 -0.9014149904251099 -0.014937999658286572
v 0.14409300684928894 -1.0 -0.5125629901885986
v 0.143545001745224 -0.9136220216751099 -0.5449979901313782
v 0.2436400055885315 -0.9322429895401001 -0.5073099732398987
v 0.2456739991903305 -1.0 -0.4798789918422699
v 0.005330999847501516 -1.0 -0.5185949802398682
v 0.006812000181525946 -0.9054880142211914 -0.5528609752655029
v 0.07517799735069275 -0.9095549583435059 -0.5495830178260803
v 0.07471100240945816 -1.0 -0.5162330269813538
v -0.13343200087547302 -1.0 -0.4756219983100891
v -0.12992000579833984 -0.921241044998169 -0.5080569982528687
v -0.2450290024280548 -1.0 -0.41461101174354553
v -0.24003200232982635 -0.9449659585952759 -0.4420419931411743
v -0.2721939980983734 -1.0 0.12616099417209625
v -0.26665300130844116 -0.9003839492797852 0.12483400106430054
v -0.2590459883213043 -0.9141379594802856 -0.014937999658286572
v -0.2718690037727356 -1.0 -0.01181699987500906
v -0.13343200087547302 -1.0 0.4030570089817047
v -0.2350129932165146 -1.0 0.28871598839759827
v 0.005330999847501516 -1.0 0.10672199726104736
v 0.005330999847501516 -1.0 0.43124398589134216
v 0.14409300684928894 -1.0 0.4030570089817047
v 0.2456739991903305 -1.0 0.28871598839759827
v 0.28285500407218933 -1.0 0.12616099417209625
v 0.2456739991903305 -1.0 -0.01181699987500906
v 0.14409300684928894 -1.0 -0.03450600057840347
v 0.005330999847501516 -1.0 -0.06269299983978271
v -0.13343200087547302 -1.0 -0.03450600057840347
v -0.2718690037727356 -1.0 -0.01181699987500906
v -0.2721939980983734 -1.0 0.12616099417209625
v -0.16772699356079102 0.9928410053253174 0.3253290057182312
v -0.122700996696949 1.0842440128326416 0.2577959895133972
v -0.24652600288391113 1.0842440128326416 0.148717001080513
v -0.3258039951324463 0.9928410053253174 0.18211300671100616
v 0.04820900037884712 0.9928410053253174 0.3777480125427246
v 0.04644700139760971 1.0842440128326416 0.2977220118045807
v 0.26414400339126587 0.9928410053253174 0.3253290057182312
v 0.21559500694274902 1.0842440128326416 0.2577959895133972
v 0.42221999168395996 0.9928410053253174 0.18211300671100616
v 0.33941999077796936 1.0842440128326416 0.148717001080513
v 0.48005199432373047 0.9928410053253174 -0.013520999811589718
v 0.38474300503730774 1.0842440128326416 -0.00028700000257231295
v 0.42221999168395996 0.9928410053253174 -0.20915600657463074
v 0.33941999077796936 1.0842440128326416 -0.1492920070886612
v 0.26414400339126587 0.9928410053253174 -0.3523710072040558
v 0.21559500694274902 1.0842440128326416 -0.2583720088005066
v 0.04820900037884712 0.9928410053253174 -0.404790997505188
v 0.04644700139760971 1.0842440128326416 -0.2982980012893677
v -0.16772699356079102 0.9928410053253174 -0.3523710072040558
v -0.122700996696949 1.0842440128326416 -0.2583720088005066
v -0.3258039951324463 0.9928410053253174 -0.20915600657463074
v -0.24652600288391113 1.0842440128326416 -0.1492920070886612
v -0.38366299867630005 0.9928410053253174 -0.013520999811589718
v -0.2918489873409271 1.0842440128326416 -0.00028700000257231295
v 0.15499499440193176 -0.680590033531189 -0.18010200560092926
v 0.00861200038343668 -0.6778179407119751 -0.22018499672412872
v 0.012796999886631966 -0.5770299434661865 -0.16589100658893585
v 0.13207800686359406 -0.5748649835586548 -0.12383700162172318
v 0.21939699351787567 -0.5689500570297241 -0.008945000357925892
v 0.2589159905910492 -0.7562509775161743 -0.017695000395178795
v 0.2589159905910492 -0.7562509775161743 -0.017695000395178795
v 0.21939699351787567 -0.5689500570297241 -0.008945000357925892
v 0.2513580024242401 -0.5608710050582886 0.12676100432872772
v 0.2939690053462982 -0.7735409736633301 0.13916799426078796
v 0.21939699351787567 -0.5527909994125366 0.2512019872665405
v 0.2577120065689087 -0.7605290412902832 0.31091898679733276
v 0.13207800686359406 -0.5468770265579224 0.36609500646591187
v 0.15402300655841827 -0.7496249675750732 0.42958199977874756
v 0.012796999886631966 -0.5447119474411011 0.40814900398254395
v 0.009008999913930893 -0.7491240501403809 0.46855899691581726
v 0.009008999913930893 -0.7491240501403809 0.46855899691581726
v 0.012796999886631966 -0.5447119474411011 0.40814900398254395
v -0.10648299753665924 -0.5468770265579224 0.36609500646591187
v -0.13596400618553162 -0.7487659454345703 0.42950400710105896
v -0.23991400003433228 -0.7590839862823486 0.31083500385284424
v -0.19380199909210205 -0.5527909994125366 0.2512019872665405
v -0.2772440016269684 -0.771075963973999 0.14007499814033508
v -0.2257629930973053 -0.5608710050582886 0.12676100432872772
v -0.19380199909210205 -0.5689500570297241 -0.008945000357925892
v -0.255950003862381 -0.7845809459686279 -0.017176000401377678
v -0.13699500262737274 -0.7106039524078369 -0.1804019957780838
v -0.255950003862381 -0.7845809459686279 -0.017176000401377678
v -0.19380199909210205 -0.5689500570297241 -0.008945000357925892
v -0.10648299753665924 -0.5748649835586548 -0.12383700162172318
v -0.34501099586486816 0.2445250153541565 -0.2075899988412857
v -0.4026939868927002 0.2550809979438782 0.012586000375449657
v -0.42691001296043396 0.5236650109291077 -0.012089000083506107
v -0.3642730116844177 0.5203779935836792 -0.2568260133266449
v -0.18741899728775024 0.23670601844787598 -0.370618999004364
v -0.34501099586486816 0.2445250153541565 -0.2075899988412857
v -0.3642730116844177 0.5203779935836792 -0.2568260133266449
v -0.19314800202846527 0.5177839994430542 -0.4397819936275482
v 0.027854999527335167 0.23384398221969604 -0.430292010307312
v 0.04061400145292282 0.5168330073356628 -0.5067480206489563
v 0.2431280016899109 0.23670601844787598 -0.370618999004364
v 0.2743760049343109 0.5177839994430542 -0.4397819936275482
v 0.2431280016899109 0.23670601844787598 -0.370618999004364
v 0.2743760049343109 0.5177839994430542 -0.4397819936275482
v 0.44550201296806335 0.5203779935836792 -0.2568260133266449
v 0.4007200002670288 0.2445250153541565 -0.2075899988412857
v 0.49121201038360596 0.5236650109291077 -0.012089000083506107
v 0.45840299129486084 0.2550809979438782 0.012586000375449657
v 0.44550201296806335 0.5272070169448853 0.23783400654792786
v 0.4007200002670288 0.26751697063446045 0.2550860047340393
v 0.4007200002670288 0.26751697063446045 0.2550860047340393
v 0.44550201296806335 0.5272070169448853 0.23783400654792786
v 0.2743760049343109 0.5298019647598267 0.4207899868488312
v 0.2431280016899109 0.27533602714538574 0.4181160032749176
v 0.04061400145292282 0.5307530164718628 0.4877550005912781
v 0.027854999527335167 0.2781990170478821 0.4777880012989044
v -0.19314800202846527 0.5298019647598267 0.4207899868488312
v -0.18741899728775024 0.27533602714538574 0.4181160032749176
v -0.34501099586486816 0.26751697063446045 0.2550860047340393
v -0.18741899728775024 0.27533602714538574 0.4181160032749176
v -0.19314800202846527 0.5298019647598267 0.4207899868488312
v -0.3642730116844177 0.5272070169448853 0.23783400654792786
v -0.3476789891719818 0.7651029825210571 -0.25001201033592224
v -0.3258039951324463 0.9928410053253174 -0.20915600657463074
v -0.16772699356079102 0.9928410053253174 -0.3523710072040558
v -0.18209600448608398 0.7651029825210571 -0.4257720112800598
v 0.04820900037884712 0.9928410053253174 -0.404790997505188
v 0.04409400001168251 0.7651029825210571 -0.490105003118515
v 0.2702839970588684 0.7651029825210571 -0.4257720112800598
v 0.26414400339126587 0.9928410053253174 -0.3523710072040558
v 0.43586599826812744 0.7651029825210571 -0.25001201033592224
v 0.2702839970588684 0.7651029825210571 -0.4257720112800598
v 0.26414400339126587 0.9928410053253174 -0.3523710072040558
v 0.42221999168395996 0.9928410053253174 -0.20915600657463074
v 0.4821319878101349 0.7651029825210571 -0.009920000098645687
v 0.48005199432373047 0.9928410053253174 -0.013520999811589718
v 0.42221999168395996 0.9928410053253174 0.18211300671100616
v 0.43586599826812744 0.7651029825210571 0.23017199337482452
v 0.43586599826812744 0.7651029825210571 0.23017199337482452
v 0.42221999168395996 0.9928410053253174 0.18211300671100616
v 0.26414400339126587 0.9928410053253174 0.3253290057182312
v 0.2702839970588684 0.7651029825210571 0.4059320092201233
v 0.04820900037884712 0.9928410053253174 0.3777480125427246
v 0.04409400001168251 0.7651029825210571 0.4702630043029785
v -0.18209600448608398 0.7651029825210571 0.4059320092201233
v -0.16772699356079102 0.9928410053253174 0.3253290057182312
v -0.3476789891719818 0.7651029825210571 0.23017199337482452
v -0.18209600448608398 0.7651029825210571 0.4059320092201233
v -0.16772699356079102 0.9928410053253174 0.3253290057182312
v -0.3258039951324463 0.9928410053253174 0.18211300671100616
v -0.408286988735199 0.7651029825210571 -0.009920000098645687
v -0.38366299867630005 0.9928410053253174 -0.013520999811589718
v -0.3258039951324463 0.9928410053253174 -0.20915600657463074
v -0.3476789891719818 0.7651029825210571 -0.25001201033592224
v -0.165802001953125 -0.059110045433044434 -0.27423998713493347
v -0.16623400151729584 0.01333397626876831 -0.2751989960670471
v 0.021493999287486076 0.0024930238723754883 -0.3267180025577545
v 0.021038999781012535 -0.06488001346588135 -0.3274660110473633
v 0.20787900686264038 -0.059110045433044434 -0.27423998713493347
v 0.20950700342655182 0.001958012580871582 -0.2751989960670471
v 0.34465599060058594 -0.0433429479598999 -0.12882299721240997
v 0.20787900686264038 -0.059110045433044434 -0.27423998713493347
v 0.20950700342655182 0.001958012580871582 -0.2751989960670471
v 0.3474290072917938 0.01187199354171753 -0.13444499671459198
v 0.39830198884010315 0.029578983783721924 0.05782800167798996
v 0.3947199881076813 -0.021806001663208008 0.06982000172138214
v 0.34860000014305115 0.05313599109649658 0.27990099787712097
v 0.34465599060058594 0.0015500187873840332 0.287773996591568
v 0.34465599060058594 0.0015500187873840332 0.287773996591568
v 0.34860000014305115 0.05313599109649658 0.27990099787712097
v 0.2114589959383011 0.0713769793510437 0.4206550121307373
v 0.20787900686264038 0.017316997051239014 0.43319201469421387
v 0.02373100072145462 0.0822179913520813 0.4721739888191223
v 0.021038999781012535 0.02308797836303711 0.4864169955253601
v -0.165802001953125 0.017316997051239014 0.43319201469421387
v -0.16428300738334656 0.0827530026435852 0.4206550121307373
v -0.30257898569107056 0.0015500187873840332 0.287773996591568
v -0.165802001953125 0.017316997051239014 0.43319201469421387
v -0.16428300738334656 0.0827530026435852 0.4206550121307373
v -0.30220499634742737 0.07283902168273926 0.27990099787712097
v -0.3526430130004883 -0.021806001663208008 0.06982000172138214
v -0.35318198800086975 0.05233001708984375 0.05782800167798996
v -0.3033750057220459 0.031575024127960205 -0.13444499671459198
v -0.30257898569107056 -0.0433429479598999 -0.12882299721240997
v -0.30257898569107056 -0.0433429479598999 -0.12882299721240997
v -0.3033750057220459 0.031575024127960205 -0.13444499671459198
v 0.04644700139760971 1.1447709798812866 6.0999998822808266e-05
v -0.25719699263572693 -0.25343501567840576 0.10234100371599197
v -0.2933669984340668 -0.08342099189758301 0.08992499858140945
v -0.25080201029777527 -0.1046299934387207 -0.09085399657487869
v -0.2200240045785904 -0.26907598972320557 -0.0499969981610775
v -0.2200240045785904 -0.23779404163360596 0.2507239878177643
v -0.25080201029777527 -0.06221199035644531 0.2707059979438782
v -0.11846400052309036 -0.226343035697937 0.36770299077033997
v -0.1345120072364807 -0.046684980392456055 0.40304601192474365
v 0.020268000662326813 -0.2221519947052002 0.410521000623703
v 0.024341000244021416 -0.04100203514099121 0.4514859914779663
v 0.020268000662326813 -0.2221519947052002 0.410521000623703
v 0.1589999943971634 -0.226343035697937 0.36770299077033997
v 0.18319499492645264 -0.046684980392456055 0.40304601192474365
v 0.024341000244021416 -0.04100203514099121 0.4514859914779663
v 0.260560005903244 -0.23779404163360596 0.2507239878177643
v 0.2994849979877472 -0.06221199035644531 0.2707059979438782
v 0.29773300886154175 -0.25343501567840576 0.10234100371599197
v 0.3420490026473999 -0.08342099189758301 0.08992499858140945
v 0.260560005903244 -0.26907598972320557 -0.0499969981610775
v 0.2994849979877472 -0.1046299934387207 -0.09085399657487869
v 0.1589999943971634 -0.2805269956588745 -0.16697800159454346
v 0.18319499492645264 -0.12015795707702637 -0.22319500148296356
v 0.2994849979877472 -0.1046299934387207 -0.09085399657487869
v 0.260560005903244 -0.26907598972320557 -0.0499969981610775
v 0.020268000662326813 -0.28471803665161133 -0.2097949981689453
v 0.024341000244021416 -0.1258399486541748 -0.2716349959373474
v -0.11846400052309036 -0.2805269956588745 -0.16697800159454346
v -0.1345120072364807 -0.12015795707702637 -0.22319500148296356
v -0.2200240045785904 -0.26907598972320557 -0.0499969981610775
v -0.25080201029777527 -0.1046299934387207 -0.09085399657487869
v 0.16625699400901794 -1.0 -0.3168739974498749
v 0.29092100262641907 -1.0000650882720947 -0.29119500517845154
v 0.1288599967956543 -0.6942780017852783 -0.14433099329471588
v 0.21931999921798706 -0.7565300464630127 -0.0005029999883845448
v 0.26874399185180664 -0.8015580177307129 -0.3113510012626648
v 0.15525400638580322 -0.7746750116348267 -0.37768399715423584
v 0.29092100262641907 -1.0000650882720947 -0.29119500517845154
v 0.28856900334358215 -0.919685959815979 -0.29935601353645325
v 0.09386800229549408 -1.0 -0.3295530080795288
v 0.005330999847501516 -1.0 -0.34505900740623474
v 0.08242300152778625 -0.7686100006103516 -0.39403900504112244
v -0.15559500455856323 -1.0 -0.3168739974498749
v -0.13607199490070343 -0.8060950040817261 -0.37768399715423584
v -0.11242199689149857 -0.7158269882202148 -0.1471959948539734
v 0.009003999643027782 -0.684406042098999 -0.17881900072097778
v 0.009591000154614449 -0.7625449895858765 -0.41039401292800903
v -0.27340200543403625 -1.0 -0.2398660033941269
v -0.27340200543403625 -1.0 -0.2398660033941269
v -0.26759999990463257 -0.9457459449768066 -0.2480269968509674
v -0.24270500242710114 -0.8660130500793457 -0.26002201437950134
v -0.21658499538898468 -0.7879509925842285 -0.0005029999883845448
v -0.12476299703121185 -0.7935600280761719 -0.4464389979839325
v -0.1165969967842102 -0.8054929971694946 -0.508135974407196
v -0.21855899691581726 -0.8640849590301514 -0.4347670078277588
v -0.26361799240112305 -0.8527950048446655 -0.34116798639297485
v -0.28803199529647827 -0.9453439712524414 -0.33750900626182556
v -0.2934199869632721 -1.0 -0.3194260001182556
v -0.1441829949617386 -1.0 -0.39861199259757996
v -0.2934199869632721 -1.0 -0.3194260001182556
v -0.2450290024280548 -1.0 -0.41461101174354553
v -0.13343200087547302 -1.0 -0.4756219983100891
v 0.005330999847501516 -1.0 -0.43441200256347656
v 0.005330999847501516 -1.0 -0.5185949802398682
v 0.07471100240945816 -1.0 -0.5162330269813538
v 0.0840039998292923 -1.0 -0.4256730079650879
v 0.15277400612831116 -1.0 -0.43591800332069397
v 0.14409300684928894 -1.0 -0.5125629901885986
v 0.2456739991903305 -1.0 -0.4798789918422699
v 0.3130199909210205 -1.0 -0.3858729898929596
v 0.3108620047569275 -0.9272990226745605 -0.40575700998306274
v 0.3130199909210205 -1.0 -0.3858729898929596
v 0.1439729928970337 -0.7697509527206421 -0.48110100626945496
v 0.29398199915885925 -0.8082300424575806 -0.40761598944664
v 0.22655099630355835 -0.8326640129089355 -0.5000349879264832
v 0.13460500538349152 -0.7866779565811157 -0.5450770258903503
v 0.08242300152778625 -0.7686100006103516 -0.39403900504112244
v 0.15525400638580322 -0.7746750116348267 -0.37768399715423584
v 0.01056899968534708 -0.7524019479751587 -0.48676198720932007
v 0.009003999643027782 -0.7665890455245972 -0.5556319952011108
v 0.07823599874973297 -0.7605160474777222 -0.4764469861984253
v 0.07180500030517578 -0.7766339778900146 -0.5510079860687256
v 0.09126599878072739 -0.9063060283660889 -0.3556640148162842
v 0.09386800229549408 -1.0 -0.3295530080795288
v 0.08298200368881226 -0.9079790115356445 -0.45551198720932007
v 0.0840039998292923 -1.0 -0.4256730079650879
v -0.2908709943294525 0.08053499460220337 -0.12981000542640686
v -0.33852100372314453 0.09995299577713013 0.050655998289585114
v -0.28898799419403076 0.11779898405075073 0.266525000333786
v -0.15583500266075134 0.12352597713470459 0.39863601326942444
v -0.15583500266075134 0.12352597713470459 0.39863601326942444
v 0.02542800083756447 0.118927001953125 0.4469909965991974
v 0.2062309980392456 0.1052359938621521 0.39863601326942444
v 0.33812999725341797 0.08612000942230225 0.266525000333786
v 0.38561299443244934 0.06337302923202515 0.050655998289585114
v 0.33812999725341797 0.08612000942230225 0.266525000333786
v 0.3362480103969574 0.04885601997375488 -0.12981000542640686
v 0.2030940055847168 0.043129026889801025 -0.2619209885597229
v 0.021832000464200974 0.047726988792419434 -0.31027600169181824
v 0.2030940055847168 0.043129026889801025 -0.2619209885597229
v -0.15897199511528015 0.061419010162353516 -0.2619209885597229
v -0.2908709943294525 0.08053499460220337 -0.12981000542640686
v 0.024341000244021416 -0.1258399486541748 -0.2716349959373474
v 0.021038999781012535 -0.06488001346588135 -0.3274660110473633
v 0.20787900686264038 -0.059110045433044434 -0.27423998713493347
v 0.18319499492645264 -0.12015795707702637 -0.22319500148296356
v -0.1345120072364807 -0.12015795707702637 -0.22319500148296356
v -0.165802001953125 -0.059110045433044434 -0.27423998713493347
v -0.30257898569107056 -0.0433429479598999 -0.12882299721240997
v -0.25080201029777527 -0.1046299934387207 -0.09085399657487869
v -0.3526430130004883 -0.021806001663208008 0.06982000172138214
v -0.2933669984340668 -0.08342099189758301 0.08992499858140945
v -0.30257898569107056 0.0015500187873840332 0.287773996591568
v -0.25080201029777527 -0.06221199035644531 0.2707059979438782
v -0.165802001953125 0.017316997051239014 0.43319201469421387
v -0.1345120072364807 -0.046684980392456055 0.40304601192474365
v 0.021038999781012535 0.02308797836303711 0.4864169955253601
v -0.165802001953125 0.017316997051239014 0.43319201469421387
v -0.1345120072364807 -0.046684980392456055 0.40304601192474365
v 0.024341000244021416 -0.04100203514099121 0.4514859914779663
v 0.20787900686264038 0.017316997051239014 0.43319201469421387
v 0.021038999781012535 0.02308797836303711 0.4864169955253601
v 0.024341000244021416 -0.04100203514099121 0.4514859914779663
v 0.18319499492645264 -0.046684980392456055 0.40304601192474365
v 0.2994849979877472 -0.06221199035644531 0.2707059979438782
v 0.34465599060058594 0.0015500187873840332 0.287773996591568
v 0.20787900686264038 0.017316997051239014 0.43319201469421387
v 0.18319499492645264 -0.046684980392456055 0.40304601192474365
v 0.3420490026473999 -0.08342099189758301 0.08992499858140945
v 0.3947199881076813 -0.021806001663208008 0.06982000172138214
v 0.34465599060058594 0.0015500187873840332 0.287773996591568
v 0.2994849979877472 -0.06221199035644531 0.2707059979438782
v 0.2994849979877472 -0.1046299934387207 -0.09085399657487869
v 0.34465599060058594 -0.0433429479598999 -0.12882299721240997
v 0.3947199881076813 -0.021806001663208008 0.06982000172138214
v 0.3420490026473999 -0.08342099189758301 0.08992499858140945
v 0.18319499492645264 -0.12015795707702637 -0.22319500148296356
v 0.20787900686264038 -0.059110045433044434 -0.27423998713493347
v 0.34465599060058594 -0.0433429479598999 -0.12882299721240997
v 0.2994849979877472 -0.1046299934387207 -0.09085399657487869
v -0.21855899691581726 -0.8640849590301514 -0.4347670078277588
v -0.1165969967842102 -0.8054929971694946 -0.508135974407196
v 0.009003999643027782 -0.7665890455245972 -0.5556319952011108
v 0.07180500030517578 -0.7766339778900146 -0.5510079860687256
v 0.07823599874973297 -0.7605160474777222 -0.4764469861984253
v 0.08242300152778625 -0.7686100006103516 -0.39403900504112244
v 0.13460500538349152 -0.7866779565811157 -0.5450770258903503
v 0.22655099630355835 -0.8326640129089355 -0.5000349879264832
v 0.29398199915885925 -0.8082300424575806 -0.40761598944664
v 0.26874399185180664 -0.8015580177307129 -0.3113510012626648
v 0.21931999921798706 -0.7565300464630127 -0.0005029999883845448
v 0.2512750029563904 -0.7739160060882568 0.1391800045967102
v 0.21917599439620972 -0.76317298412323 0.2924320101737976
v 0.13042999804019928 -0.7539839744567871 0.3952600061893463
v 0.009003999643027782 -0.7539839744567871 0.4268819987773895
v 0.009003999643027782 -0.7539839744567871 0.4268819987773895
v -0.11242199689149857 -0.7539839744567871 0.3952600061893463
v -0.2014549970626831 -0.76317298412323 0.2924320101737976
v -0.23442700505256653 -0.7739160060882568 0.1391800045967102
v -0.21658499538898468 -0.7879509925842285 -0.0005029999883845448
v -0.24270500242710114 -0.8660130500793457 -0.26002201437950134
v -0.26361799240112305 -0.8527950048446655 -0.34116798639297485
v 0.26874399185180664 -0.8015580177307129 -0.3113510012626648
v 0.28856900334358215 -0.919685959815979 -0.29935601353645325
v 0.26874399185180664 -0.8015580177307129 -0.3113510012626648
v 0.29092100262641907 -1.0000650882720947 -0.29119500517845154
v -0.26759999990463257 -0.9457459449768066 -0.2480269968509674
v -0.27340200543403625 -1.0 -0.2398660033941269
v -0.24270500242710114 -0.8660130500793457 -0.26002201437950134
v -0.13607199490070343 -0.8060950040817261 -0.37768399715423584
v -0.24270500242710114 -0.8660130500793457 -0.26002201437950134
v 0.009591000154614449 -0.7625449895858765 -0.41039401292800903
v 0.08242300152778625 -0.7686100006103516 -0.39403900504112244
v 0.1288599967956543 -0.6942780017852783 -0.14433099329471588
v 0.009003999643027782 -0.684406042098999 -0.17881900072097778
v 0.00861200038343668 -0.6778179407119751 -0.22018499672412872
v 0.15499499440193176 -0.680590033531189 -0.18010200560092926
v 0.2589159905910492 -0.7562509775161743 -0.017695000395178795
v 0.21931999921798706 -0.7565300464630127 -0.0005029999883845448
v 0.2512750029563904 -0.7739160060882568 0.1391800045967102
v 0.21931999921798706 -0.7565300464630127 -0.0005029999883845448
v 0.2589159905910492 -0.7562509775161743 -0.017695000395178795
v 0.2939690053462982 -0.7735409736633301 0.13916799426078796
v 0.21917599439620972 -0.76317298412323 0.2924320101737976
v 0.2577120065689087 -0.7605290412902832 0.31091898679733276
v 0.15402300655841827 -0.7496249675750732 0.42958199977874756
v 0.13042999804019928 -0.7539839744567871 0.3952600061893463
v 0.009008999913930893 -0.7491240501403809 0.46855899691581726
v 0.009003999643027782 -0.7539839744567871 0.4268819987773895
v -0.11242199689149857 -0.7539839744567871 0.3952600061893463
v 0.009003999643027782 -0.7539839744567871 0.4268819987773895
v 0.009008999913930893 -0.7491240501403809 0.46855899691581726
v -0.13596400618553162 -0.7487659454345703 0.42950400710105896
v -0.23991400003433228 -0.7590839862823486 0.31083500385284424
v -0.2014549970626831 -0.76317298412323 0.2924320101737976
v -0.2772440016269684 -0.771075963973999 0.14007499814033508
v -0.23442700505256653 -0.7739160060882568 0.1391800045967102
v -0.21658499538898468 -0.7879509925842285 -0.0005029999883845448
v -0.255950003862381 -0.7845809459686279 -0.017176000401377678
v -0.11242199689149857 -0.7158269882202148 -0.1471959948539734
v -0.21658499538898468 -0.7879509925842285 -0.0005029999883845448
v -0.255950003862381 -0.7845809459686279 -0.017176000401377678
v -0.13699500262737274 -0.7106039524078369 -0.1804019957780838

vn -0.39300599694252014 -0.6280410289764404 0.6716480255126953
vn -0.5128200054168701 0.06447800248861313 0.8560720086097717
vn -0.8908830285072327 0.11277700215578079 0.4400100111961365
vn -0.6873649954795837 -0.6342059969902039 0.3539940118789673
vn -0.005007999949157238 -0.6625409722328186 0.7490090131759644
vn -0.002492999890819192 0.026782000437378883 0.999638020992279
vn 0.38745900988578796 -0.6360599994659424 0.6673099994659424
vn 0.5141860246658325 0.052873000502586365 0.8560479879379272
vn -0.002492999890819192 0.026782000437378883 0.999638020992279
vn -0.005007999949157238 -0.6625409722328186 0.7490090131759644
vn 0.6796349883079529 -0.6450530290603638 0.3492890000343323
vn 0.89410001039505 0.08852700144052505 0.4390310049057007
vn 0.7622550129890442 -0.6471379995346069 -0.013402000069618225
vn 0.9918950200080872 0.12428999692201614 -0.02637300081551075
vn 0.6595699787139893 -0.7508140206336975 -0.03528999909758568
vn 0.9936050176620483 0.10585899651050568 -0.03927500173449516
vn -0.40790700912475586 -0.6874309778213501 -0.6008750200271606
vn -0.3954159915447235 -0.1435520052909851 -0.9072149991989136
vn 0.6014819741249084 -0.08136200159788132 -0.7947319746017456
vn 0.4349589943885803 -0.7394859790802002 -0.5137799978256226
vn -0.0814329981803894 -0.7914130091667175 -0.6058340072631836
vn -0.13274100422859192 -0.16025300323963165 -0.9781100153923035
vn 0.6604750156402588 -0.13209299743175507 -0.7391380071640015
vn 0.5699480175971985 -0.6687890291213989 -0.4773690104484558
vn -0.2331089973449707 -0.803642988204956 -0.54755699634552
vn -0.4186600148677826 -0.12294100224971771 -0.8997830152511597
vn -0.537132978439331 -0.7264260053634644 -0.4287109971046448
vn -0.7184680104255676 -0.037664998322725296 -0.6945400238037109
vn -0.7514389753341675 -0.6560829877853394 0.06996999680995941
vn -0.9850170016288757 0.16230900585651398 0.05827900022268295
vn -0.9738990068435669 0.2257869988679886 -0.023274999111890793
vn -0.75661700963974 -0.6538559794425964 0.0015739999944344163
vn -0.39300599694252014 -0.6280410289764404 0.6716480255126953
vn -0.6873649954795837 -0.6342059969902039 0.3539940118789673
vn 0.0 -1.0 0.0
vn -0.005007999949157238 -0.6625409722328186 0.7490090131759644
vn 0.38745900988578796 -0.6360599994659424 0.6673099994659424
vn 0.6796349883079529 -0.6450530290603638 0.3492890000343323
vn 0.7622550129890442 -0.6471379995346069 -0.013402000069618225
vn 0.6595699787139893 -0.7508140206336975 -0.03528999909758568
vn -4.600000102072954e-05 -1.0 4.3000000005122274e-05
vn 0.0 -1.0 0.0
vn 0.0 -1.0 0.0
vn -0.75661700963974 -0.6538559794425964 0.0015739999944344163
vn -0.7514389753341675 -0.6560829877853394 0.06996999680995941
vn -0.4316500127315521 0.4773100018501282 0.7654110193252563
vn -0.24162699282169342 0.8459389805793762 0.4753980040550232
vn -0.43477100133895874 0.8531399965286255 0.288316011428833
vn -0.777957022190094 0.42729800939559937 0.4606519937515259
vn 0.0021810000762343407 0.5046499967575073 0.8633210062980652
vn -0.0010949999559670687 0.8443480134010315 0.5357940196990967
vn 0.4362980127334595 0.47328999638557434 0.7652720212936401
vn 0.2379309982061386 0.8486449718475342 0.4724310040473938
vn 0.7901890277862549 0.4115239977836609 0.45414799451828003
vn 0.42754000425338745 0.8579199910163879 0.28492599725723267
vn 0.9273430109024048 0.37413498759269714 -0.007637000177055597
vn 0.4944320023059845 0.8691779971122742 0.008183999918401241
vn 0.7745450139045715 0.4364039897918701 -0.4578559994697571
vn 0.40547600388526917 0.8780800104141235 -0.25409799814224243
vn 0.42256999015808105 0.5118460059165955 -0.747963011264801
vn 0.21936699748039246 0.8827430009841919 -0.41550400853157043
vn 0.0015950000379234552 0.5474609732627869 -0.8368300199508667
vn -0.0017719999887049198 0.8833180069923401 -0.4687710106372833
vn -0.41707101464271545 0.5172889828681946 -0.7473040223121643
vn -0.22205300629138947 0.8803889751434326 -0.4190559983253479
vn -0.7614259719848633 0.4527150094509125 -0.4639829993247986
vn -0.4123469889163971 0.8740530014038086 -0.25690698623657227
vn -0.9111359715461731 0.4120349884033203 -0.007681999821215868
vn -0.5035219788551331 0.8639400005340576 0.008515999652445316
vn 0.4899449944496155 -0.27876898646354675 -0.8259789943695068
vn 0.020934000611305237 -0.3409860134124756 -0.9398350119590759
vn -0.004726000130176544 0.1921979933977127 -0.981344997882843
vn 0.5825250148773193 0.18470999598503113 -0.7915470004081726
vn 0.9134910106658936 0.04684799909591675 -0.4041520059108734
vn 0.6700379848480225 -0.608519971370697 -0.4251500070095062
vn 0.6700379848480225 -0.608519971370697 -0.4251500070095062
vn 0.9134910106658936 0.04684799909591675 -0.4041520059108734
vn 0.9994019865989685 0.03128800168633461 0.01475599966943264
vn 0.7959679961204529 -0.6053249835968018 -0.004007999785244465
vn 0.9023789763450623 0.08139300346374512 0.4231880009174347
vn 0.7418310046195984 -0.5251179933547974 0.41705799102783203
vn 0.5814480185508728 0.14005699753761292 0.8014370203018188
vn 0.45241498947143555 -0.483705997467041 0.7492319941520691
vn -0.006209000013768673 0.14829300343990326 0.9889240264892578
vn -0.012350999750196934 -0.4932920038700104 0.8697760105133057
vn -0.012350999750196934 -0.4932920038700104 0.8697760105133057
vn -0.006209000013768673 0.14829300343990326 0.9889240264892578
vn -0.5730339884757996 0.14642499387264252 0.8063449859619141
vn -0.45505398511886597 -0.46120598912239075 0.7617189884185791
vn -0.7561349868774414 -0.5003939867019653 0.4217419922351837
vn -0.9020770192146301 0.11485099792480469 0.4160130023956299
vn -0.8407909870147705 -0.5368000268936157 0.07011500000953674
vn -0.9973739981651306 0.07210599631071091 0.006763999816030264
vn -0.9122920036315918 0.08054699748754501 -0.40154099464416504
vn -0.7244420051574707 -0.5817360281944275 -0.3698199987411499
vn -0.4198629856109619 -0.39223700761795044 -0.8184530138969421
vn -0.7244420051574707 -0.5817360281944275 -0.3698199987411499
vn -0.9122920036315918 0.08054699748754501 -0.40154099464416504
vn -0.5872989892959595 0.15745100378990173 -0.7939069867134094
vn -0.8369590044021606 -0.29763299226760864 -0.4592539966106415
vn -0.973110020160675 -0.23031499981880188 -0.0033569999504834414
vn -0.9999229907989502 -0.007780000101774931 -0.009715000167489052
vn -0.8715860247612 -0.038249000906944275 -0.4887489974498749
vn -0.48691800236701965 -0.3619129955768585 -0.7949399948120117
vn -0.8369590044021606 -0.29763299226760864 -0.4592539966106415
vn -0.8715860247612 -0.038249000906944275 -0.4887489974498749
vn -0.5135359764099121 -0.07284300029277802 -0.8549709916114807
vn -0.0031969998963177204 -0.3969539999961853 -0.9178329706192017
vn 0.001851000008173287 -0.09562700241804123 -0.995415985584259
vn 0.4762220084667206 -0.3820039927959442 -0.7920129895210266
vn 0.516264021396637 -0.09972099959850311 -0.8506039977073669
vn 0.4762220084667206 -0.3820039927959442 -0.7920129895210266
vn 0.516264021396637 -0.09972099959850311 -0.8506039977073669
vn 0.8853570222854614 -0.08628299832344055 -0.4568359851837158
vn 0.832942008972168 -0.3192859888076782 -0.45195600390434265
vn 0.9987199902534485 -0.048725999891757965 -0.013546999543905258
vn 0.9696840047836304 -0.2440910041332245 -0.011549999937415123
vn 0.894087016582489 -0.027998000383377075 0.44701701402664185
vn 0.8598229885101318 -0.19121100008487701 0.47343599796295166
vn 0.8598229885101318 -0.19121100008487701 0.47343599796295166
vn 0.894087016582489 -0.027998000383377075 0.44701701402664185
vn 0.5253139734268188 -0.0026489999145269394 0.8509039878845215
vn 0.5021539926528931 -0.13323399424552917 0.8544530272483826
vn 0.0023089998867362738 0.018199000507593155 0.9998319745063782
vn -0.006606000009924173 -0.10852699726819992 0.9940720200538635
vn -0.5202140212059021 0.02909800037741661 0.8535410165786743
vn -0.5094950199127197 -0.11167699843645096 0.8531960248947144
vn -0.8682810068130493 -0.1572210043668747 0.4704990088939667
vn -0.5094950199127197 -0.11167699843645096 0.8531960248947144
vn -0.5202140212059021 0.02909800037741661 0.8535410165786743
vn -0.8822309970855713 0.01911100000143051 0.4704279899597168
vn -0.8602589964866638 0.13193899393081665 -0.4924890100955963
vn -0.7614259719848633 0.4527150094509125 -0.4639829993247986
vn -0.41707101464271545 0.5172889828681946 -0.7473040223121643
vn -0.49976399540901184 0.1864829957485199 -0.8458489775657654
vn 0.0015950000379234552 0.5474609732627869 -0.8368300199508667
vn 0.00027799999224953353 0.20583300292491913 -0.9785869717597961
vn 0.500773012638092 0.17170800268650055 -0.8483759760856628
vn 0.42256999015808105 0.5118460059165955 -0.747963011264801
vn 0.8768079876899719 0.10243300348520279 -0.46980300545692444
vn 0.500773012638092 0.17170800268650055 -0.8483759760856628
vn 0.42256999015808105 0.5118460059165955 -0.747963011264801
vn 0.7745450139045715 0.4364039897918701 -0.4578559994697571
vn 0.9988849759101868 0.047178998589515686 0.0016899999463930726
vn 0.9273430109024048 0.37413498759269714 -0.007637000177055597
vn 0.7901890277862549 0.4115239977836609 0.45414799451828003
vn 0.8754349946975708 0.11107800155878067 0.47039899230003357
vn 0.8754349946975708 0.11107800155878067 0.47039899230003357
vn 0.7901890277862549 0.4115239977836609 0.45414799451828003
vn 0.4362980127334595 0.47328999638557434 0.7652720212936401
vn 0.4990200102329254 0.18639600276947021 0.8463069796562195
vn 0.0021810000762343407 0.5046499967575073 0.8633210062980652
vn 0.00047400000039488077 0.22209300100803375 0.9750249981880188
vn -0.4972899854183197 0.20188699662685394 0.8437680006027222
vn -0.4316500127315521 0.4773100018501282 0.7654110193252563
vn -0.8588250279426575 0.141758993268013 0.4922640025615692
vn -0.4972899854183197 0.20188699662685394 0.8437680006027222
vn -0.4316500127315521 0.4773100018501282 0.7654110193252563
vn -0.777957022190094 0.42729800939559937 0.4606519937515259
vn -0.9947810173034668 0.10202299803495407 0.0015930000226944685
vn -0.9111359715461731 0.4120349884033203 -0.007681999821215868
vn -0.7614259719848633 0.4527150094509125 -0.4639829993247986
vn -0.8602589964866638 0.13193899393081665 -0.4924890100955963
vn -0.49688300490379333 -0.36737000942230225 -0.7862229943275452
vn -0.4958449900150299 0.13843600451946259 -0.8573060035705566
vn 0.004521999973803759 0.1685280054807663 -0.9856870174407959
vn -0.0058479998260736465 -0.34539100527763367 -0.9384409785270691
vn 0.4957900047302246 -0.3572629988193512 -0.7915520071983337
vn 0.5024470090866089 0.14656899869441986 -0.8520939946174622
vn 0.821619987487793 -0.3863239884376526 -0.4191589951515198
vn 0.4957900047302246 -0.3572629988193512 -0.7915520071983337
vn 0.5024470090866089 0.14656899869441986 -0.8520939946174622
vn 0.8587809801101685 0.10429099947214127 -0.5016160011291504
vn 0.9904369711875916 0.13397100567817688 -0.032962001860141754
vn 0.9345380067825317 -0.35439199209213257 0.032340001314878464
vn 0.8678230047225952 0.21314199268817902 0.44883599877357483
vn 0.8246639966964722 -0.28951001167297363 0.4859139919281006
vn 0.8246639966964722 -0.28951001167297363 0.4859139919281006
vn 0.8678230047225952 0.21314199268817902 0.44883599877357483
vn 0.5056769847869873 0.3413369953632355 0.7923259735107422
vn 0.4997510015964508 -0.17335699498653412 0.8486440181732178
vn 0.009596999734640121 0.3948279917240143 0.9187049865722656
vn -0.009437999688088894 -0.11935000121593475 0.9928069710731506
vn -0.5049279928207397 -0.18567800521850586 0.8429539799690247
vn -0.4870989918708801 0.3317509889602661 0.8078830242156982
vn -0.8289420008659363 -0.28855499625205994 0.4791570007801056
vn -0.5049279928207397 -0.18567800521850586 0.8429539799690247
vn -0.4870989918708801 0.3317509889602661 0.8078830242156982
vn -0.8613860011100769 0.2158679962158203 0.45979899168014526
vn -0.9364320039749146 -0.34981098771095276 0.026954999193549156
vn -0.9898020029067993 0.1394830048084259 -0.028914999216794968
vn -0.8599249720573425 0.10570800304412842 -0.4993540048599243
vn -0.8249650001525879 -0.38440701365470886 -0.41432398557662964
vn -0.8249650001525879 -0.38440701365470886 -0.41432398557662964
vn -0.8599249720573425 0.10570800304412842 -0.4993540048599243
vn -0.0 1.0 0.0002390000008745119
vn -0.9874590039253235 -0.15655000507831573 0.020423000678420067
vn -0.876941978931427 -0.47586899995803833 0.06724700331687927
vn -0.7783510088920593 -0.5245550274848938 -0.34498000144958496
vn -0.8821039795875549 -0.19885100424289703 -0.42702600359916687
vn -0.8784070014953613 -0.13310299813747406 0.4590049982070923
vn -0.7656090259552002 -0.44608399271965027 0.46351999044418335
vn -0.5423380136489868 -0.1186399981379509 0.831741988658905
vn -0.4619100093841553 -0.3954330086708069 0.7938969731330872
vn 0.0020169999916106462 -0.12331300228834152 0.9923660159111023
vn 0.002515000058338046 -0.3666839897632599 0.9303420186042786
vn 0.0020169999916106462 -0.12331300228834152 0.9923660159111023
vn 0.5396869778633118 -0.15226499736309052 0.8279809951782227
vn 0.47453901171684265 -0.3896070122718811 0.7893149852752686
vn 0.002515000058338046 -0.3666839897632599 0.9303420186042786
vn 0.867946982383728 -0.17877699434757233 0.46336498856544495
vn 0.7726709842681885 -0.43621399998664856 0.46118998527526855
vn 0.9790040254592896 -0.20229099690914154 0.02510100044310093
vn 0.8821189999580383 -0.4662649929523468 0.06680499762296677
vn 0.8725900053977966 -0.2453480064868927 -0.4223639965057373
vn 0.7840780019760132 -0.5164980292320251 -0.34416699409484863
vn 0.5447679758071899 -0.2696489989757538 -0.7940509915351868
vn 0.4807739853858948 -0.5400930047035217 -0.6907640099525452
vn 0.7840780019760132 -0.5164980292320251 -0.34416699409484863
vn 0.8725900053977966 -0.2453480064868927 -0.4223639965057373
vn 0.0023449999280273914 -0.2638449966907501 -0.9645619988441467
vn 0.001832999987527728 -0.5436999797821045 -0.8392770290374756
vn -0.5470659732818604 -0.23552699387073517 -0.803272008895874
vn -0.4695650041103363 -0.5434880256652832 -0.6957939863204956
vn -0.8821039795875549 -0.19885100424289703 -0.42702600359916687
vn -0.7783510088920593 -0.5245550274848938 -0.34498000144958496
vn -0.00015500000154133886 -1.0 -8.800000068731606e-05
vn 0.7022600173950195 -0.6990270018577576 0.13488100469112396
vn 0.5713260173797607 -0.1890929937362671 -0.7986429929733276
vn 0.7808030247688293 -0.5780060291290283 -0.23718400299549103
vn 0.7685080170631409 0.6385560035705566 0.0405149981379509
vn 0.2114740014076233 0.9696369767189026 -0.12281200289726257
vn 0.7022600173950195 -0.6990270018577576 0.13488100469112396
vn 0.9769440293312073 0.11232399940490723 0.18155699968338013
vn 0.004600999876856804 -0.9968640208244324 -0.07899700105190277
vn 0.0 -1.0 0.0
vn 0.15130400657653809 0.9557939767837524 -0.25212201476097107
vn 0.0 -1.0 0.0
vn -0.3735150098800659 0.9270190000534058 -0.03349300101399422
vn -0.5346969962120056 -0.3116550147533417 -0.7854750156402588
vn 0.033702000975608826 -0.22550100088119507 -0.9736599922180176
vn -0.09856999665498734 0.9924650192260742 -0.07278800010681152
vn -0.7185990214347839 -0.689749002456665 0.08866400271654129
vn -0.7185990214347839 -0.689749002456665 0.08866400271654129
vn -0.9685419797897339 0.21907199919223785 0.11803700029850006
vn -0.8201000094413757 0.570701003074646 0.04166699945926666
vn -0.8603600263595581 -0.4599359929561615 -0.2196349948644638
vn -0.41575801372528076 0.9057070016860962 -0.08271200209856033
vn -0.5173829793930054 0.5369629859924316 -0.6663219928741455
vn -0.698140025138855 0.43637600541114807 -0.5676059722900391
vn -0.7674360275268555 0.6407909989356995 -0.0207310002297163
vn -0.980991005897522 0.1427460014820099 -0.13145500421524048
vn -0.7938759922981262 -0.6068509817123413 -0.03864999860525131
vn 0.0 -1.0 0.0
vn -0.7938759922981262 -0.6068509817123413 -0.03864999860525131
vn -0.537132978439331 -0.7264260053634644 -0.4287109971046448
vn -0.2331089973449707 -0.803642988204956 -0.54755699634552
vn 0.0 -1.0 0.0
vn -0.0814329981803894 -0.7914130091667175 -0.6058340072631836
vn 0.5699480175971985 -0.6687890291213989 -0.4773690104484558
vn 0.6989409923553467 -0.7119889855384827 -0.06747700273990631
vn 0.0 -1.0 0.0
vn -0.40790700912475586 -0.6874309778213501 -0.6008750200271606
vn 0.4349589943885803 -0.7394859790802002 -0.5137799978256226
vn 0.7691839933395386 -0.6303650140762329 -0.10486000031232834
vn 0.9711139798164368 0.04676400125026703 -0.23398999869823456
vn 0.7691839933395386 -0.6303650140762329 -0.10486000031232834
vn 0.12262900173664093 0.9694799780845642 -0.21229800581932068
vn 0.7834749817848206 0.5906919836997986 -0.19300299882888794
vn 0.5955560207366943 0.38607698678970337 -0.7044559717178345
vn -0.26001399755477905 0.5367990136146545 -0.8026450276374817
vn 0.15130400657653809 0.9557939767837524 -0.25212201476097107
vn 0.2114740014076233 0.9696369767189026 -0.12281200289726257
vn -0.08894599974155426 0.9941570162773132 -0.06115100160241127
vn -0.13331300020217896 0.6324329972267151 -0.7630569934844971
vn 0.7086309790611267 0.7024270296096802 -0.06661699712276459
vn 0.6088430285453796 0.4647650122642517 -0.6428869962692261
vn 0.09159199893474579 -0.2816219925880432 -0.9551439881324768
vn 0.004600999876856804 -0.9968640208244324 -0.07899700105190277
vn 0.9965419769287109 0.0030620000325143337 -0.08303000032901764
vn 0.6989409923553467 -0.7119889855384827 -0.06747700273990631
vn -0.8739140033721924 -0.11336400359869003 -0.47267699241638184
vn -0.9986479878425598 -0.051676999777555466 -0.005597999785095453
vn -0.87049400806427 0.0467820018529892 0.4899510145187378
vn -0.49498701095581055 0.1519390046596527 0.8555129766464233
vn -0.49498701095581055 0.1519390046596527 0.8555129766464233
vn 0.007695999927818775 0.2085459977388382 0.9779819846153259
vn 0.5135080218315125 0.18119800090789795 0.8387349843978882
vn 0.8794209957122803 0.0878169983625412 0.46787500381469727
vn 0.9996449947357178 -0.0038300000596791506 -0.0263689998537302
vn 0.8794209957122803 0.0878169983625412 0.46787500381469727
vn 0.8687639832496643 -0.0644960030913353 -0.4910080134868622
vn 0.5089759826660156 -0.09128999710083008 -0.8559269905090332
vn -0.002985999919474125 -0.11469099670648575 -0.9933969974517822
vn 0.5089759826660156 -0.09128999710083008 -0.8559269905090332
vn -0.5187510251998901 -0.13033699989318848 -0.8449320197105408
vn -0.8739140033721924 -0.11336400359869003 -0.47267699241638184
vn 0.001832999987527728 -0.5436999797821045 -0.8392770290374756
vn -0.0058479998260736465 -0.34539100527763367 -0.9384409785270691
vn 0.4957900047302246 -0.3572629988193512 -0.7915520071983337
vn 0.4807739853858948 -0.5400930047035217 -0.6907640099525452
vn -0.4695650041103363 -0.5434880256652832 -0.6957939863204956
vn -0.49688300490379333 -0.36737000942230225 -0.7862229943275452
vn -0.8249650001525879 -0.38440701365470886 -0.41432398557662964
vn -0.7783510088920593 -0.5245550274848938 -0.34498000144958496
vn -0.9364320039749146 -0.34981098771095276 0.026954999193549156
vn -0.876941978931427 -0.47586899995803833 0.06724700331687927
vn -0.8289420008659363 -0.28855499625205994 0.4791570007801056
vn -0.7656090259552002 -0.44608399271965027 0.46351999044418335
vn -0.5049279928207397 -0.18567800521850586 0.8429539799690247
vn -0.4619100093841553 -0.3954330086708069 0.7938969731330872
vn -0.009437999688088894 -0.11935000121593475 0.9928069710731506
vn -0.5049279928207397 -0.18567800521850586 0.8429539799690247
vn -0.4619100093841553 -0.3954330086708069 0.7938969731330872
vn 0.002515000058338046 -0.3666839897632599 0.9303420186042786
vn 0.4997510015964508 -0.17335699498653412 0.8486440181732178
vn -0.009437999688088894 -0.11935000121593475 0.9928069710731506
vn 0.002515000058338046 -0.3666839897632599 0.9303420186042786
vn 0.47453901171684265 -0.3896070122718811 0.7893149852752686
vn 0.7726709842681885 -0.43621399998664856 0.46118998527526855
vn 0.8246639966964722 -0.28951001167297363 0.4859139919281006
vn 0.4997510015964508 -0.17335699498653412 0.8486440181732178
vn 0.47453901171684265 -0.3896070122718811 0.7893149852752686
vn 0.8821189999580383 -0.4662649929523468 0.06680499762296677
vn 0.9345380067825317 -0.35439199209213257 0.032340001314878464
vn 0.8246639966964722 -0.28951001167297363 0.4859139919281006
vn 0.7726709842681885 -0.43621399998664856 0.46118998527526855
vn 0.7840780019760132 -0.5164980292320251 -0.34416699409484863
vn 0.821619987487793 -0.3863239884376526 -0.4191589951515198
vn 0.9345380067825317 -0.35439199209213257 0.032340001314878464
vn 0.8821189999580383 -0.4662649929523468 0.06680499762296677
vn 0.4807739853858948 -0.5400930047035217 -0.6907640099525452
vn 0.4957900047302246 -0.3572629988193512 -0.7915520071983337
vn 0.821619987487793 -0.3863239884376526 -0.4191589951515198
vn 0.7840780019760132 -0.5164980292320251 -0.34416699409484863
vn -0.698140025138855 0.43637600541114807 -0.5676059722900391
vn -0.5173829793930054 0.5369629859924316 -0.6663219928741455
vn -0.13331300020217896 0.6324329972267151 -0.7630569934844971
vn 0.6088430285453796 0.4647650122642517 -0.6428869962692261
vn 0.7086309790611267 0.7024270296096802 -0.06661699712276459
vn 0.15130400657653809 0.9557939767837524 -0.25212201476097107
vn -0.26001399755477905 0.5367990136146545 -0.8026450276374817
vn 0.5955560207366943 0.38607698678970337 -0.7044559717178345
vn 0.7834749817848206 0.5906919836997986 -0.19300299882888794
vn 0.7685080170631409 0.6385560035705566 0.0405149981379509
vn 0.7808030247688293 -0.5780060291290283 -0.23718400299549103
vn 0.752240002155304 -0.6587100028991699 -0.015371999703347683
vn 0.6068000197410583 -0.6960539817810059 0.3837999999523163
vn 0.32787200808525085 -0.7228230237960815 0.6082980036735535
vn 0.001487000030465424 -0.7131540179252625 0.7010059952735901
vn 0.001487000030465424 -0.7131540179252625 0.7010059952735901
vn -0.334879994392395 -0.7096610069274902 0.6198679804801941
vn -0.6279640197753906 -0.6715430021286011 0.39330801367759705
vn -0.7639920115470886 -0.6359080076217651 0.10925599932670593
vn -0.8603600263595581 -0.4599359929561615 -0.2196349948644638
vn -0.8201000094413757 0.570701003074646 0.04166699945926666
vn -0.7674360275268555 0.6407909989356995 -0.0207310002297163
vn 0.7685080170631409 0.6385560035705566 0.0405149981379509
vn 0.9769440293312073 0.11232399940490723 0.18155699968338013
vn 0.7685080170631409 0.6385560035705566 0.0405149981379509
vn 0.7022600173950195 -0.6990270018577576 0.13488100469112396
vn -0.9685419797897339 0.21907199919223785 0.11803700029850006
vn -0.7185990214347839 -0.689749002456665 0.08866400271654129
vn -0.8201000094413757 0.570701003074646 0.04166699945926666
vn -0.3735150098800659 0.9270190000534058 -0.03349300101399422
vn -0.8201000094413757 0.570701003074646 0.04166699945926666
vn -0.09856999665498734 0.9924650192260742 -0.07278800010681152
vn 0.15130400657653809 0.9557939767837524 -0.25212201476097107
vn 0.5713260173797607 -0.1890929937362671 -0.7986429929733276
vn 0.033702000975608826 -0.22550100088119507 -0.9736599922180176
vn 0.020934000611305237 -0.3409860134124756 -0.9398350119590759
vn 0.4899449944496155 -0.27876898646354675 -0.8259789943695068
vn 0.6700379848480225 -0.608519971370697 -0.4251500070095062
vn 0.7808030247688293 -0.5780060291290283 -0.23718400299549103
vn 0.752240002155304 -0.6587100028991699 -0.015371999703347683
vn 0.7808030247688293 -0.5780060291290283 -0.23718400299549103
vn 0.6700379848480225 -0.608519971370697 -0.4251500070095062
vn 0.7959679961204529 -0.6053249835968018 -0.004007999785244465
vn 0.6068000197410583 -0.6960539817810059 0.3837999999523163
vn 0.7418310046195984 -0.5251179933547974 0.41705799102783203
vn 0.45241498947143555 -0.483705997467041 0.7492319941520691
vn 0.32787200808525085 -0.7228230237960815 0.6082980036735535
vn -0.012350999750196934 -0.4932920038700104 0.8697760105133057
vn 0.001487000030465424 -0.7131540179252625 0.7010059952735901
vn -0.334879994392395 -0.7096610069274902 0.6198679804801941
vn 0.001487000030465424 -0.7131540179252625 0.7010059952735901
vn -0.012350999750196934 -0.4932920038700104 0.8697760105133057
vn -0.45505398511886597 -0.46120598912239075 0.7617189884185791
vn -0.7561349868774414 -0.5003939867019653 0.4217419922351837
vn -0.6279640197753906 -0.6715430021286011 0.39330801367759705
vn -0.8407909870147705 -0.5368000268936157 0.07011500000953674
vn -0.7639920115470886 -0.6359080076217651 0.10925599932670593
vn -0.8603600263595581 -0.4599359929561615 -0.2196349948644638
vn -0.7244420051574707 -0.5817360281944275 -0.3698199987411499
vn -0.5346969962120056 -0.3116550147533417 -0.7854750156402588
vn -0.8603600263595581 -0.4599359929561615 -0.2196349948644638
vn -0.7244420051574707 -0.5817360281944275 -0.3698199987411499
vn -0.4198629856109619 -0.39223700761795044 -0.8184530138969421

vt 0.9781370162963867 0.01576697826385498
vt 0.9702230095863342 0.01597297191619873
vt 0.9705439805984497 0.029047012329101562
vt 0.9783779978752136 0.02911001443862915
vt 0.9773550033569336 0.0034769773483276367
vt 0.9695760011672974 0.004117012023925781
vt 0.9794840216636658 0.21795201301574707
vt 0.9716269969940186 0.21765899658203125
vt 0.9710540175437927 0.22959601879119873
vt 0.978859007358551 0.23032599687576294
vt 0.9797329902648926 0.20465302467346191
vt 0.9718210101127625 0.2046629786491394
vt 0.9795780181884766 0.19024300575256348
vt 0.971684992313385 0.1904900074005127
vt 0.9791430234909058 0.17794901132583618
vt 0.9714409708976746 0.17794597148895264
vt 0.873429000377655 0.15206599235534668
vt 0.8665400147438049 0.1532769799232483
vt 0.867389976978302 0.14379900693893433
vt 0.872734010219574 0.14252197742462158
vt 0.8740260004997253 0.19068002700805664
vt 0.866424024105072 0.18978601694107056
vt 0.8672590255737305 0.1838340163230896
vt 0.8745520114898682 0.18445700407028198
vt 0.8732860088348389 0.20348197221755981
vt 0.8669909834861755 0.2022380232810974
vt 0.8732830286026001 0.215146005153656
vt 0.8688960075378418 0.21393698453903198
vt 0.9780279994010925 0.04369497299194336
vt 0.9701970219612122 0.04329901933670044
vt 0.971002995967865 0.05564701557159424
vt 0.9776890277862549 0.05575299263000488
vt 0.8884469866752625 0.00609201192855835
vt 0.8975909948348999 0.016315996646881104
vt 0.8760910034179688 0.03270697593688965
vt 0.8759949803352356 0.0036060214042663574
vt 0.8635600209236145 0.006174981594085693
vt 0.8544840216636658 0.016457974910736084
vt 0.8511980175971985 0.03104698657989502
vt 0.8545730113983154 0.043408989906311035
vt 0.8636890053749084 0.045413970947265625
vt 0.8761410117149353 0.04790002107620239
vt 0.8885769844055176 0.04533100128173828
vt 0.900983989238739 0.04325598478317261
vt 0.9009730219841003 0.03088200092315674
vt 0.5775759816169739 0.359063982963562
vt 0.5728570222854614 0.3341689705848694
vt 0.5808629989624023 0.31857001781463623
vt 0.5933529734611511 0.359063982963562
vt 0.5621449947357178 0.359063982963562
vt 0.5622289776802063 0.33885401487350464
vt 0.546763002872467 0.359063982963562
vt 0.5514490008354187 0.3340020179748535
vt 0.5313349962234497 0.359063982963562
vt 0.5435940027236938 0.31779801845550537
vt 0.5313349962234497 0.29639101028442383
vt 0.5409680008888245 0.2969849705696106
vt 0.5313349962234497 0.2350199818611145
vt 0.5436549782752991 0.27592897415161133
vt 0.5469260215759277 0.2350199818611145
vt 0.5516610145568848 0.260466992855072
vt 0.5625929832458496 0.2350199818611145
vt 0.5625600218772888 0.25564998388290405
vt 0.5781580209732056 0.2350199818611145
vt 0.5731769800186157 0.26085299253463745
vt 0.5933529734611511 0.2350199818611145
vt 0.5809270143508911 0.2766519784927368
vt 0.5933529734611511 0.29757601022720337
vt 0.5835809707641602 0.2974969744682312
vt 0.9666939973831177 0.13280999660491943
vt 0.9671850204467773 0.11900097131729126
vt 0.9594449996948242 0.11959600448608398
vt 0.9578369855880737 0.13297998905181885
vt 0.9520890116691589 0.1481339931488037
vt 0.9642390012741089 0.15455502271652222
vt 0.9601219892501831 0.17794102430343628
vt 0.9463419914245605 0.17743998765945435
vt 0.9457629919052124 0.19026702642440796
vt 0.9600859880447388 0.19085299968719482
vt 0.9452090263366699 0.2022709846496582
vt 0.9601939916610718 0.20467698574066162
vt 0.9443569779396057 0.21569401025772095
vt 0.9600809812545776 0.21722900867462158
vt 0.9439100027084351 0.22697699069976807
vt 0.9595850110054016 0.22852200269699097
vt 0.9581429958343506 0.005057990550994873
vt 0.9421190023422241 0.006008028984069824
vt 0.9430670142173767 0.017486989498138428
vt 0.9585919976234436 0.016274988651275635
vt 0.9590309858322144 0.02895599603652954
vt 0.9443380236625671 0.03106999397277832
vt 0.9586880207061768 0.04271799325942993
vt 0.9446700215339661 0.04313302040100098
vt 0.9448750019073486 0.05574202537536621
vt 0.9611769914627075 0.05549001693725586
vt 0.9676570296287537 0.10519498586654663
vt 0.9666410088539124 0.08128297328948975
vt 0.9522110223770142 0.09106802940368652
vt 0.9573289752006531 0.10606497526168823
vt 0.8818830251693726 0.7493369877338409
vt 0.8818830251693726 0.7136229872703552
vt 0.9010149836540222 0.7136229872703552
vt 0.9010149836540222 0.7493369877338409
vt 0.8818830251693726 0.7876809984445572
vt 0.8818830251693726 0.7493369877338409
vt 0.9010149836540222 0.7493369877338409
vt 0.9010149836540222 0.7876809984445572
vt 0.8818830251693726 0.8325809985399246
vt 0.9010149836540222 0.8325809985399246
vt 0.8818830251693726 0.8747940063476562
vt 0.9010149836540222 0.8747940063476562
vt 0.8818830251693726 0.3748689889907837
vt 0.9010149836540222 0.3748689889907837
vt 0.9010149836540222 0.4174950122833252
vt 0.8818830251693726 0.4174950122833252
vt 0.9010149836540222 0.4599840044975281
vt 0.8818830251693726 0.4599840044975281
vt 0.9010149836540222 0.4998199939727783
vt 0.8818830251693726 0.4998199939727783
vt 0.8818830251693726 0.4998199939727783
vt 0.9010149836540222 0.4998199939727783
vt 0.9010149836540222 0.5367240011692047
vt 0.8818830251693726 0.5367240011692047
vt 0.9010149836540222 0.5863870084285736
vt 0.8818830251693726 0.5863870084285736
vt 0.9010149836540222 0.6252219974994659
vt 0.8818830251693726 0.6252219974994659
vt 0.8818830251693726 0.6669360101222992
vt 0.8818830251693726 0.6252219974994659
vt 0.9010149836540222 0.6252219974994659
vt 0.9010149836540222 0.6669360101222992
vt 0.9184120297431946 0.7493369877338409
vt 0.9375879764556885 0.7493369877338409
vt 0.9375879764556885 0.7876809984445572
vt 0.9184120297431946 0.7876809984445572
vt 0.9375879764556885 0.8325809985399246
vt 0.9184120297431946 0.8325809985399246
vt 0.9184120297431946 0.8747940063476562
vt 0.9375879764556885 0.8747940063476562
vt 0.9184120297431946 0.4174950122833252
vt 0.9184120297431946 0.3748689889907837
vt 0.9375879764556885 0.3748689889907837
vt 0.9375879764556885 0.4174950122833252
vt 0.9184120297431946 0.4599840044975281
vt 0.9375879764556885 0.4599840044975281
vt 0.9375879764556885 0.4998199939727783
vt 0.9184120297431946 0.4998199939727783
vt 0.9184120297431946 0.4998199939727783
vt 0.9375879764556885 0.4998199939727783
vt 0.9375879764556885 0.5367240011692047
vt 0.9184120297431946 0.5367240011692047
vt 0.9375879764556885 0.5863870084285736
vt 0.9184120297431946 0.5863870084285736
vt 0.9184120297431946 0.6252219974994659
vt 0.9375879764556885 0.6252219974994659
vt 0.9184120297431946 0.6669360101222992
vt 0.9184120297431946 0.6252219974994659
vt 0.9375879764556885 0.6252219974994659
vt 0.9375879764556885 0.6669360101222992
vt 0.9184120297431946 0.7136229872703552
vt 0.9375879764556885 0.7136229872703552
vt 0.9375879764556885 0.7493369877338409
vt 0.9184120297431946 0.7493369877338409
vt 0.8537269830703735 0.7876809984445572
vt 0.8591189980506897 0.7876809984445572
vt 0.8591189980506897 0.8325809985399246
vt 0.8537269830703735 0.8325809985399246
vt 0.8537269830703735 0.8747940063476562
vt 0.8591189980506897 0.8747940063476562
vt 0.8537269830703735 0.4174950122833252
vt 0.8537269830703735 0.3748689889907837
vt 0.8591189980506897 0.3748689889907837
vt 0.8591189980506897 0.4174950122833252
vt 0.8591189980506897 0.4599840044975281
vt 0.8537269830703735 0.4599840044975281
vt 0.8591189980506897 0.4998199939727783
vt 0.8537269830703735 0.4998199939727783
vt 0.8537269830703735 0.4998199939727783
vt 0.8591189980506897 0.4998199939727783
vt 0.8591189980506897 0.5367240011692047
vt 0.8537269830703735 0.5367240011692047
vt 0.8591189980506897 0.5863870084285736
vt 0.8537269830703735 0.5863870084285736
vt 0.8537269830703735 0.6252219974994659
vt 0.8591189980506897 0.6252219974994659
vt 0.8537269830703735 0.6669360101222992
vt 0.8537269830703735 0.6252219974994659
vt 0.8591189980506897 0.6252219974994659
vt 0.8591189980506897 0.6669360101222992
vt 0.8537269830703735 0.7136229872703552
vt 0.8591189980506897 0.7136229872703552
vt 0.8591189980506897 0.7493369877338409
vt 0.8537269830703735 0.7493369877338409
vt 0.8537269830703735 0.7493369877338409
vt 0.8591189980506897 0.7493369877338409
vt 0.5623329877853394 0.2974169850349426
vt 0.9194980263710022 0.04545801877975464
vt 0.9060940146446228 0.0446239709854126
vt 0.9068089723587036 0.05912899971008301
vt 0.9202110171318054 0.059741973876953125
vt 0.917730987071991 0.03024899959564209
vt 0.9042459726333618 0.031237006187438965
vt 0.9167230129241943 0.015887975692749023
vt 0.902347981929779 0.018226027488708496
vt 0.9155020117759705 0.002538025379180908
vt 0.8996480107307434 0.00550997257232666
vt 0.9163920283317566 0.23032599687576294
vt 0.9177539944648743 0.21682298183441162
vt 0.9042199850082397 0.21514898538589478
vt 0.901665985584259 0.22767698764801025
vt 0.9202110171318054 0.201882004737854
vt 0.9062290191650391 0.20191097259521484
vt 0.9218980073928833 0.18734002113342285
vt 0.9081760048866272 0.18695902824401855
vt 0.9227480292320251 0.1727759838104248
vt 0.9090210199356079 0.17280101776123047
vt 0.9295129776000977 0.1342560052871704
vt 0.9140580296516418 0.1330459713935852
vt 0.9085419774055481 0.1467670202255249
vt 0.923429012298584 0.149541974067688
vt 0.9313690066337585 0.11984097957611084
vt 0.916031002998352 0.11927497386932373
vt 0.929714024066925 0.10486602783203125
vt 0.9147400259971619 0.10525697469711304
vt 0.9252399802207947 0.08868598937988281
vt 0.9103530049324036 0.09092199802398682
vt 0.8617849946022034 0.07074201107025146
vt 0.8511980175971985 0.06387197971343994
vt 0.9666939973831177 0.13280999660491943
vt 0.9642390012741089 0.15455502271652222
vt 0.9854260087013245 0.1450449824333191
vt 0.9898539781570435 0.13175702095031738
vt 0.9789479970932007 0.15793001651763916
vt 0.9727050065994263 0.1573830246925354
vt 0.8682810068130493 0.0718579888343811
vt 0.8762249946594238 0.07322198152542114
vt 0.9893479943275452 0.12502199411392212
vt 0.8906480073928833 0.07064598798751831
vt 0.9904980063438416 0.10496300458908081
vt 0.9676570296287537 0.10519498586654663
vt 0.9671850204467773 0.11900097131729126
vt 0.9903749823570251 0.11817598342895508
vt 0.9011899828910828 0.06370598077774048
vt 0.9771159887313843 0.07569098472595215
vt 0.9727810025215149 0.07623100280761719
vt 0.9863150119781494 0.09014701843261719
vt 0.9666410088539124 0.08128297328948975
vt 0.8913729786872864 0.10370302200317383
vt 0.8907949924468994 0.10941201448440552
vt 0.9000359773635864 0.10075902938842773
vt 0.9011489748954773 0.09396600723266602
vt 0.8684989809989929 0.22083497047424316
vt 0.8728690147399902 0.22206002473831177
vt 0.889648973941803 0.07797998189926147
vt 0.8994410037994385 0.07084602117538452
vt 0.8977929949760437 0.07757401466369629
vt 0.8887079954147339 0.0848889946937561
vt 0.8762500286102295 0.080843985080719
vt 0.8762739896774292 0.08802497386932373
vt 0.8700540065765381 0.0885930061340332
vt 0.869193971157074 0.08047497272491455
vt 0.8630300164222717 0.08141398429870605
vt 0.8638309836387634 0.08828401565551758
vt 0.8547120094299316 0.08538401126861572
vt 0.8533350229263306 0.07695800065994263
vt 0.8662919998168945 0.13533002138137817
vt 0.8720300197601318 0.13401401042938232
vt 0.8687940239906311 0.10882401466369629
vt 0.8579670190811157 0.10527098178863525
vt 0.8612359762191772 0.11320000886917114
vt 0.8710600137710571 0.11431002616882324
vt 0.8719750046730042 0.09993600845336914
vt 0.8652729988098145 0.10030299425125122
vt 0.8789520263671875 0.10746800899505615
vt 0.8792750239372253 0.11341202259063721
vt 0.8728280067443848 0.10725301504135132
vt 0.8736140131950378 0.1140589714050293
vt 0.871042013168335 0.1685670018196106
vt 0.8788710236549377 0.16819101572036743
vt 0.8690940141677856 0.17642802000045776
vt 0.8766480088233948 0.1765660047531128
vt 0.8626120090484619 0.7493369877338409
vt 0.8626120090484619 0.7136229872703552
vt 0.8626120090484619 0.6669360101222992
vt 0.8626120090484619 0.6252219974994659
vt 0.8626120090484619 0.6252219974994659
vt 0.8626120090484619 0.5863870084285736
vt 0.8626120090484619 0.5367240011692047
vt 0.8626120090484619 0.4998199939727783
vt 0.8626120090484619 0.4599840044975281
vt 0.8626120090484619 0.4998199939727783
vt 0.8626120090484619 0.4174950122833252
vt 0.8626120090484619 0.3748689889907837
vt 0.8626120090484619 0.8325809985399246
vt 0.8626120090484619 0.8747940063476562
vt 0.8626120090484619 0.7876809984445572
vt 0.8626120090484619 0.7493369877338409
vt 0.846418023109436 0.8325809985399246
vt 0.8537269830703735 0.8325809985399246
vt 0.8537269830703735 0.8747940063476562
vt 0.846418023109436 0.8747940063476562
vt 0.846418023109436 0.7876809984445572
vt 0.8537269830703735 0.7876809984445572
vt 0.8537269830703735 0.7493369877338409
vt 0.846418023109436 0.7493369877338409
vt 0.8537269830703735 0.7136229872703552
vt 0.846418023109436 0.7136229872703552
vt 0.8537269830703735 0.6669360101222992
vt 0.846418023109436 0.6669360101222992
vt 0.8537269830703735 0.6252219974994659
vt 0.846418023109436 0.6252219974994659
vt 0.8537269830703735 0.5863870084285736
vt 0.8537269830703735 0.6252219974994659
vt 0.846418023109436 0.6252219974994659
vt 0.846418023109436 0.5863870084285736
vt 0.8537269830703735 0.5367240011692047
vt 0.8537269830703735 0.5863870084285736
vt 0.846418023109436 0.5863870084285736
vt 0.846418023109436 0.5367240011692047
vt 0.846418023109436 0.4998199939727783
vt 0.8537269830703735 0.4998199939727783
vt 0.8537269830703735 0.5367240011692047
vt 0.846418023109436 0.5367240011692047
vt 0.846418023109436 0.4599840044975281
vt 0.8537269830703735 0.4599840044975281
vt 0.8537269830703735 0.4998199939727783
vt 0.846418023109436 0.4998199939727783
vt 0.846418023109436 0.4174950122833252
vt 0.8537269830703735 0.4174950122833252
vt 0.8537269830703735 0.4599840044975281
vt 0.846418023109436 0.4599840044975281
vt 0.846418023109436 0.3748689889907837
vt 0.8537269830703735 0.3748689889907837
vt 0.8537269830703735 0.4174950122833252
vt 0.846418023109436 0.4174950122833252
vt 0.8624500036239624 0.21216100454330444
vt 0.8577380180358887 0.20041102170944214
vt 0.8552529811859131 0.1884710192680359
vt 0.8565400242805481 0.18291902542114258
vt 0.8579930067062378 0.1762239933013916
vt 0.8595359921455383 0.1691179871559143
vt 0.8564159870147705 0.15505701303482056
vt 0.8595359921455383 0.14567601680755615
vt 0.8578580021858215 0.13726502656936646
vt 0.9635289907455444 0.15657901763916016
vt 0.9601219892501831 0.17794102430343628
vt 0.9600859880447388 0.19085299968719482
vt 0.9601939916610718 0.20467698574066162
vt 0.9600809812545776 0.21722900867462158
vt 0.9595850110054016 0.22852200269699097
vt 0.9581429958343506 0.005057990550994873
vt 0.9585919976234436 0.016274988651275635
vt 0.9590309858322144 0.02895599603652954
vt 0.9586880207061768 0.04271799325942993
vt 0.9611769914627075 0.05549001693725586
vt 0.9664099812507629 0.07702398300170898
vt 0.8620759844779968 0.21903502941131592
vt 0.8528890013694763 0.09295600652694702
vt 0.8645870089530945 0.12217700481414795
vt 0.8552529811859131 0.12420201301574707
vt 0.8709380030632019 0.1207990050315857
vt 0.8680769801139832 0.22815698385238647
vt 0.8724290132522583 0.22939902544021606
vt 0.8616809844970703 0.22633200883865356
vt 0.8919860124588013 0.09764301776885986
vt 0.9023309946060181 0.08675497770309448
vt 0.8786090016365051 0.1011580228805542
vt 0.8719949722290039 0.10002899169921875
vt 0.9666939973831177 0.13280999660491943
vt 0.9671850204467773 0.11900097131729126
vt 0.9671850204467773 0.11900097131729126
vt 0.9666939973831177 0.13280999660491943
vt 0.9642390012741089 0.15455502271652222
vt 0.9642390012741089 0.15455502271652222
vt 0.9600859880447388 0.19085299968719482
vt 0.9601219892501831 0.17794102430343628
vt 0.9601219892501831 0.17794102430343628
vt 0.9600859880447388 0.19085299968719482
vt 0.9601939916610718 0.20467698574066162
vt 0.9601939916610718 0.20467698574066162
vt 0.9600809812545776 0.21722900867462158
vt 0.9600809812545776 0.21722900867462158
vt 0.9595850110054016 0.22852200269699097
vt 0.9595850110054016 0.22852200269699097
vt 0.9585919976234436 0.016274988651275635
vt 0.9581429958343506 0.005057990550994873
vt 0.9581429958343506 0.005057990550994873
vt 0.9585919976234436 0.016274988651275635
vt 0.9590309858322144 0.02895599603652954
vt 0.9590309858322144 0.02895599603652954
vt 0.9586880207061768 0.04271799325942993
vt 0.9586880207061768 0.04271799325942993
vt 0.9611769914627075 0.05549001693725586
vt 0.9611769914627075 0.05549001693725586
vt 0.9676570296287537 0.10519498586654663
vt 0.9666410088539124 0.08128297328948975
vt 0.9666410088539124 0.08128297328948975
vt 0.9676570296287537 0.10519498586654663

usemtl Material

f 1/1/1 2/2/2 3/3/3
f 3/3/3 4/4/4 1/1/1
f 5/5/5 6/6/6 2/2/2
f 2/2/2 1/1/1 5/5/5
f 7/7/7 8/8/8 9/9/9
f 9/9/9 10/10/10 7/7/7
f 11/11/11 12/12/12 8/8/8
f 8/8/8 7/7/7 11/11/11
f 13/13/13 14/14/14 12/12/12
f 12/12/12 11/11/11 13/13/13
f 15/15/15 16/16/16 14/14/14
f 14/14/14 13/13/13 15/15/15
f 17/17/17 18/18/18 19/19/19
f 19/19/19 20/20/20 17/17/17
f 21/21/21 22/22/22 23/23/23
f 23/23/23 24/24/24 21/21/21
f 21/21/21 25/25/25 26/26/26
f 26/26/26 22/22/22 21/21/21
f 25/25/25 27/27/27 28/28/28
f 28/28/28 26/26/26 25/25/25
f 29/29/29 30/30/30 31/31/31
f 31/31/31 32/32/32 29/29/29
f 29/29/29 4/4/4 3/3/3
f 3/3/3 30/30/30 29/29/29
f 33/33/33 34/34/34 35/35/35
f 36/36/36 33/33/33 35/35/35
f 37/37/37 36/36/36 35/35/35
f 38/38/38 37/37/37 35/35/35
f 39/39/39 38/38/38 35/35/35
f 40/40/40 39/39/39 35/35/35
f 41/41/41 40/40/40 35/35/35
f 42/42/42 41/41/41 35/35/35
f 43/43/43 42/42/42 35/35/35
f 44/44/44 43/43/43 35/35/35
f 45/45/45 44/44/44 35/35/35
f 34/34/34 45/45/45 35/35/35
f 46/46/46 47/47/47 48/48/48
f 48/48/48 49/49/49 46/46/46
f 50/50/50 51/51/51 47/47/47
f 47/47/47 46/46/46 50/50/50
f 50/50/50 52/52/52 53/53/53
f 53/53/53 51/51/51 50/50/50
f 52/52/52 54/54/54 55/55/55
f 55/55/55 53/53/53 52/52/52
f 54/54/54 56/56/56 57/57/57
f 57/57/57 55/55/55 54/54/54
f 56/56/56 58/58/58 59/59/59
f 59/59/59 57/57/57 56/56/56
f 58/58/58 60/60/60 61/61/61
f 61/61/61 59/59/59 58/58/58
f 62/62/62 63/63/63 61/61/61
f 61/61/61 60/60/60 62/62/62
f 64/64/64 65/65/65 63/63/63
f 63/63/63 62/62/62 64/64/64
f 66/66/66 67/67/67 65/65/65
f 65/65/65 64/64/64 66/66/66
f 68/68/68 69/69/69 67/67/67
f 67/67/67 66/66/66 68/68/68
f 49/49/49 48/48/48 69/69/69
f 69/69/69 68/68/68 49/49/49
f 70/70/70 71/71/71 72/72/72
f 72/72/72 73/73/73 70/70/70
f 70/70/70 73/73/73 74/74/74
f 74/74/74 75/75/75 70/70/70
f 76/76/76 77/77/77 78/78/78
f 78/78/78 79/79/79 76/76/76
f 79/79/79 78/78/78 80/80/80
f 80/80/80 81/81/81 79/79/79
f 81/81/81 80/80/80 82/82/82
f 82/82/82 83/83/83 81/81/81
f 83/83/83 82/82/82 84/84/84
f 84/84/84 85/85/85 83/83/83
f 86/86/86 87/87/87 88/88/88
f 88/88/88 89/89/89 86/86/86
f 90/90/90 89/89/89 88/88/88
f 88/88/88 91/91/91 90/90/90
f 92/92/92 90/90/90 91/91/91
f 91/91/91 93/93/93 92/92/92
f 92/92/92 93/93/93 94/94/94
f 94/94/94 95/95/95 92/92/92
f 96/96/96 97/97/97 98/98/98
f 98/98/98 99/99/99 96/96/96
f 71/71/71 96/96/96 99/99/99
f 99/99/99 72/72/72 71/71/71
f 100/100/100 101/101/101 102/102/102
f 102/102/102 103/103/103 100/100/100
f 104/104/104 105/105/105 106/106/106
f 106/106/106 107/107/107 104/104/104
f 108/108/108 104/104/104 107/107/107
f 107/107/107 109/109/109 108/108/108
f 110/110/110 108/108/108 109/109/109
f 109/109/109 111/111/111 110/110/110
f 112/112/112 113/113/113 114/114/114
f 114/114/114 115/115/115 112/112/112
f 115/115/115 114/114/114 116/116/116
f 116/116/116 117/117/117 115/115/115
f 117/117/117 116/116/116 118/118/118
f 118/118/118 119/119/119 117/117/117
f 120/120/120 121/121/121 122/122/122
f 122/122/122 123/123/123 120/120/120
f 123/123/123 122/122/122 124/124/124
f 124/124/124 125/125/125 123/123/123
f 125/125/125 124/124/124 126/126/126
f 126/126/126 127/127/127 125/125/125
f 128/128/128 129/129/129 130/130/130
f 130/130/130 131/131/131 128/128/128
f 101/101/101 128/128/128 131/131/131
f 131/131/131 102/102/102 101/101/101
f 132/132/132 133/133/133 134/134/134
f 134/134/134 135/135/135 132/132/132
f 135/135/135 134/134/134 136/136/136
f 136/136/136 137/137/137 135/135/135
f 138/138/138 137/137/137 136/136/136
f 136/136/136 139/139/139 138/138/138
f 140/140/140 141/141/141 142/142/142
f 142/142/142 143/143/143 140/140/140
f 144/144/144 140/140/140 143/143/143
f 143/143/143 145/145/145 144/144/144
f 144/144/144 145/145/145 146/146/146
f 146/146/146 147/147/147 144/144/144
f 148/148/148 149/149/149 150/150/150
f 150/150/150 151/151/151 148/148/148
f 151/151/151 150/150/150 152/152/152
f 152/152/152 153/153/153 151/151/151
f 154/154/154 153/153/153 152/152/152
f 152/152/152 155/155/155 154/154/154
f 156/156/156 157/157/157 158/158/158
f 158/158/158 159/159/159 156/156/156
f 160/160/160 156/156/156 159/159/159
f 159/159/159 161/161/161 160/160/160
f 160/160/160 161/161/161 162/162/162
f 162/162/162 163/163/163 160/160/160
f 164/164/164 165/165/165 166/166/166
f 166/166/166 167/167/167 164/164/164
f 168/168/168 167/167/167 166/166/166
f 166/166/166 169/169/169 168/168/168
f 170/170/170 171/171/171 172/172/172
f 172/172/172 173/173/173 170/170/170
f 170/170/170 173/173/173 174/174/174
f 174/174/174 175/175/175 170/170/170
f 175/175/175 174/174/174 176/176/176
f 176/176/176 177/177/177 175/175/175
f 178/178/178 179/179/179 180/180/180
f 180/180/180 181/181/181 178/178/178
f 181/181/181 180/180/180 182/182/182
f 182/182/182 183/183/183 181/181/181
f 184/184/184 183/183/183 182/182/182
f 182/182/182 185/185/185 184/184/184
f 186/186/186 187/187/187 188/188/188
f 188/188/188 189/189/189 186/186/186
f 190/190/190 186/186/186 189/189/189
f 189/189/189 191/191/191 190/190/190
f 190/190/190 191/191/191 192/192/192
f 192/192/192 193/193/193 190/190/190
f 194/194/194 195/195/195 165/165/165
f 165/165/165 164/164/164 194/194/194
f 109/109/109 107/107/107 135/135/135
f 135/135/135 137/137/137 109/109/109
f 111/111/111 109/109/109 137/137/137
f 137/137/137 138/138/138 111/111/111
f 114/114/114 113/113/113 141/141/141
f 141/141/141 140/140/140 114/114/114
f 116/116/116 114/114/114 140/140/140
f 140/140/140 144/144/144 116/116/116
f 116/116/116 144/144/144 147/147/147
f 147/147/147 118/118/118 116/116/116
f 121/121/121 148/148/148 151/151/151
f 151/151/151 122/122/122 121/121/121
f 122/122/122 151/151/151 153/153/153
f 153/153/153 124/124/124 122/122/122
f 124/124/124 153/153/153 154/154/154
f 154/154/154 126/126/126 124/124/124
f 130/130/130 157/157/157 156/156/156
f 156/156/156 131/131/131 130/130/130
f 131/131/131 156/156/156 160/160/160
f 160/160/160 102/102/102 131/131/131
f 102/102/102 160/160/160 163/163/163
f 163/163/163 103/103/103 102/102/102
f 106/106/106 132/132/132 135/135/135
f 135/135/135 107/107/107 106/106/106
f 48/48/48 47/47/47 196/196/196
f 47/47/47 51/51/51 196/196/196
f 51/51/51 53/53/53 196/196/196
f 53/53/53 55/55/55 196/196/196
f 55/55/55 57/57/57 196/196/196
f 57/57/57 59/59/59 196/196/196
f 59/59/59 61/61/61 196/196/196
f 61/61/61 63/63/63 196/196/196
f 63/63/63 65/65/65 196/196/196
f 65/65/65 67/67/67 196/196/196
f 67/67/67 69/69/69 196/196/196
f 69/69/69 48/48/48 196/196/196
f 197/197/197 198/198/198 199/199/199
f 199/199/199 200/200/200 197/197/197
f 201/201/201 202/202/202 198/198/198
f 198/198/198 197/197/197 201/201/201
f 203/203/203 204/204/204 202/202/202
f 202/202/202 201/201/201 203/203/203
f 205/205/205 206/206/206 204/204/204
f 204/204/204 203/203/203 205/205/205
f 207/207/207 208/208/208 209/209/209
f 209/209/209 210/210/210 207/207/207
f 208/208/208 211/211/211 212/212/212
f 212/212/212 209/209/209 208/208/208
f 211/211/211 213/213/213 214/214/214
f 214/214/214 212/212/212 211/211/211
f 213/213/213 215/215/215 216/216/216
f 216/216/216 214/214/214 213/213/213
f 217/217/217 218/218/218 219/219/219
f 219/219/219 220/220/220 217/217/217
f 217/217/217 221/221/221 222/222/222
f 222/222/222 218/218/218 217/217/217
f 221/221/221 223/223/223 224/224/224
f 224/224/224 222/222/222 221/221/221
f 223/223/223 225/225/225 226/226/226
f 226/226/226 224/224/224 223/223/223
f 41/41/41 227/227/227 228/228/228
f 228/228/228 40/40/40 41/41/41
f 229/229/229 230/230/230 231/231/231
f 231/231/231 232/232/232 229/229/229
f 16/16/16 15/15/15 233/233/233
f 233/233/233 234/234/234 16/16/16
f 235/235/235 42/42/42 236/236/236
f 237/237/237 229/229/229 232/232/232
f 238/238/238 236/236/236 42/42/42
f 42/42/42 43/43/43 238/238/238
f 239/239/239 240/240/240 241/241/241
f 241/241/241 242/242/242 239/239/239
f 243/243/243 238/238/238 43/43/43
f 43/43/43 44/44/44 243/243/243
f 244/244/244 32/32/32 31/31/31
f 31/31/31 245/245/245 244/244/244
f 246/246/246 247/247/247 240/240/240
f 240/240/240 239/239/239 246/246/246
f 248/248/248 249/249/249 250/250/250
f 250/250/250 251/251/251 248/248/248
f 252/252/252 28/28/28 27/27/27
f 27/27/27 253/253/253 252/252/252
f 254/254/254 255/255/255 256/256/256
f 256/256/256 257/257/257 254/254/254
f 258/258/258 254/254/254 257/257/257
f 257/257/257 259/259/259 258/258/258
f 258/258/258 259/259/259 260/260/260
f 260/260/260 261/261/261 258/258/258
f 262/262/262 263/263/263 264/264/264
f 264/264/264 265/265/265 262/262/262
f 266/266/266 267/267/267 20/20/20
f 20/20/20 19/19/19 266/266/266
f 268/268/268 269/269/269 270/270/270
f 270/270/270 271/271/271 268/268/268
f 272/272/272 273/273/273 268/268/268
f 268/268/268 271/271/271 272/272/272
f 274/274/274 275/275/275 249/249/249
f 249/249/249 248/248/248 274/274/274
f 274/274/274 276/276/276 277/277/277
f 277/277/277 275/275/275 274/274/274
f 262/262/262 227/227/227 235/235/235
f 235/235/235 263/263/263 262/262/262
f 41/41/41 42/42/42 235/235/235
f 235/235/235 227/227/227 41/41/41
f 278/278/278 18/18/18 17/17/17
f 17/17/17 279/279/279 278/278/278
f 280/280/280 281/281/281 24/24/24
f 24/24/24 23/23/23 280/280/280
f 237/237/237 242/242/242 241/241/241
f 241/241/241 229/229/229 237/237/237
f 72/72/72 99/99/99 223/223/223
f 223/223/223 221/221/221 72/72/72
f 99/99/99 98/98/98 225/225/225
f 225/225/225 223/223/223 99/99/99
f 93/93/93 197/197/197 200/200/200
f 200/200/200 94/94/94 93/93/93
f 91/91/91 201/201/201 197/197/197
f 197/197/197 93/93/93 91/91/91
f 88/88/88 203/203/203 201/201/201
f 201/201/201 91/91/91 88/88/88
f 87/87/87 205/205/205 203/203/203
f 203/203/203 88/88/88 87/87/87
f 82/82/82 208/208/208 207/207/207
f 207/207/207 84/84/84 82/82/82
f 80/80/80 211/211/211 208/208/208
f 208/208/208 82/82/82 80/80/80
f 80/80/80 78/78/78 213/213/213
f 213/213/213 211/211/211 80/80/80
f 78/78/78 77/77/77 215/215/215
f 215/215/215 213/213/213 78/78/78
f 74/74/74 73/73/73 217/217/217
f 217/217/217 220/220/220 74/74/74
f 73/73/73 72/72/72 221/221/221
f 221/221/221 217/217/217 73/73/73
f 282/282/282 283/283/283 101/101/101
f 101/101/101 100/100/100 282/282/282
f 283/283/283 284/284/284 128/128/128
f 128/128/128 101/101/101 283/283/283
f 284/284/284 285/285/285 129/129/129
f 129/129/129 128/128/128 284/284/284
f 286/286/286 287/287/287 125/125/125
f 125/125/125 127/127/127 286/286/286
f 288/288/288 123/123/123 125/125/125
f 125/125/125 287/287/287 288/288/288
f 289/289/289 120/120/120 123/123/123
f 123/123/123 288/288/288 289/289/289
f 290/290/290 117/117/117 119/119/119
f 119/119/119 291/291/291 290/290/290
f 292/292/292 115/115/115 117/117/117
f 117/117/117 290/290/290 292/292/292
f 293/293/293 112/112/112 115/115/115
f 115/115/115 292/292/292 293/293/293
f 294/294/294 108/108/108 110/110/110
f 110/110/110 295/295/295 294/294/294
f 294/294/294 296/296/296 104/104/104
f 104/104/104 108/108/108 294/294/294
f 296/296/296 297/297/297 105/105/105
f 105/105/105 104/104/104 296/296/296
f 298/298/298 299/299/299 300/300/300
f 300/300/300 301/301/301 298/298/298
f 299/299/299 298/298/298 302/302/302
f 302/302/302 303/303/303 299/299/299
f 304/304/304 303/303/303 302/302/302
f 302/302/302 305/305/305 304/304/304
f 306/306/306 304/304/304 305/305/305
f 305/305/305 307/307/307 306/306/306
f 308/308/308 306/306/306 307/307/307
f 307/307/307 309/309/309 308/308/308
f 310/310/310 308/308/308 309/309/309
f 309/309/309 311/311/311 310/310/310
f 312/312/312 313/313/313 314/314/314
f 314/314/314 315/315/315 312/312/312
f 316/316/316 317/317/317 318/318/318
f 318/318/318 319/319/319 316/316/316
f 320/320/320 321/321/321 322/322/322
f 322/322/322 323/323/323 320/320/320
f 324/324/324 325/325/325 326/326/326
f 326/326/326 327/327/327 324/324/324
f 328/328/328 329/329/329 330/330/330
f 330/330/330 331/331/331 328/328/328
f 332/332/332 333/333/333 334/334/334
f 334/334/334 335/335/335 332/332/332
f 26/26/26 28/28/28 336/336/336
f 336/336/336 337/337/337 26/26/26
f 22/22/22 26/26/26 337/337/337
f 337/337/337 338/338/338 22/22/22
f 22/22/22 338/338/338 339/339/339
f 339/339/339 23/23/23 22/22/22
f 339/339/339 340/340/340 280/280/280
f 280/280/280 23/23/23 339/339/339
f 341/341/341 342/342/342 18/18/18
f 18/18/18 278/278/278 341/341/341
f 18/18/18 342/342/342 343/343/343
f 343/343/343 19/19/19 18/18/18
f 266/266/266 19/19/19 343/343/343
f 343/343/343 344/344/344 266/266/266
f 16/16/16 234/234/234 345/345/345
f 345/345/345 346/346/346 16/16/16
f 16/16/16 346/346/346 347/347/347
f 347/347/347 14/14/14 16/16/16
f 12/12/12 14/14/14 347/347/347
f 347/347/347 348/348/348 12/12/12
f 8/8/8 12/12/12 348/348/348
f 348/348/348 349/349/349 8/8/8
f 9/9/9 8/8/8 349/349/349
f 349/349/349 350/350/350 9/9/9
f 6/6/6 351/351/351 352/352/352
f 352/352/352 2/2/2 6/6/6
f 2/2/2 352/352/352 353/353/353
f 353/353/353 3/3/3 2/2/2
f 3/3/3 353/353/353 354/354/354
f 354/354/354 30/30/30 3/3/3
f 30/30/30 354/354/354 355/355/355
f 355/355/355 31/31/31 30/30/30
f 356/356/356 245/245/245 31/31/31
f 31/31/31 355/355/355 356/356/356
f 28/28/28 252/252/252 357/357/357
f 357/357/357 336/336/336 28/28/28
f 273/273/273 358/358/358 269/269/269
f 269/269/269 268/268/268 273/273/273
f 359/359/359 266/266/266 344/344/344
f 344/344/344 360/360/360 359/359/359
f 359/359/359 361/361/361 267/267/267
f 267/267/267 266/266/266 359/359/359
f 227/227/227 262/262/262 265/265/265
f 265/265/265 228/228/228 227/227/227
f 236/236/236 238/238/238 254/254/254
f 254/254/254 258/258/258 236/236/236
f 238/238/238 243/243/243 255/255/255
f 255/255/255 254/254/254 238/238/238
f 362/362/362 252/252/252 253/253/253
f 253/253/253 363/363/363 362/362/362
f 252/252/252 362/362/362 364/364/364
f 364/364/364 357/357/357 252/252/252
f 365/365/365 248/248/248 251/251/251
f 251/251/251 366/366/366 365/365/365
f 367/367/367 274/274/274 248/248/248
f 248/248/248 365/365/365 367/367/367
f 367/367/367 368/368/368 276/276/276
f 276/276/276 274/274/274 367/367/367
f 280/280/280 340/340/340 341/341/341
f 341/341/341 278/278/278 280/280/280
f 281/281/281 280/280/280 278/278/278
f 278/278/278 279/279/279 281/281/281
f 236/236/236 258/258/258 261/261/261
f 261/261/261 235/235/235 236/236/236
f 165/165/165 296/296/296 294/294/294
f 294/294/294 166/166/166 165/165/165
f 166/166/166 294/294/294 295/295/295
f 295/295/295 169/169/169 166/166/166
f 173/173/173 172/172/172 293/293/293
f 293/293/293 292/292/292 173/173/173
f 173/173/173 292/292/292 290/290/290
f 290/290/290 174/174/174 173/173/173
f 174/174/174 290/290/290 291/291/291
f 291/291/291 176/176/176 174/174/174
f 179/179/179 289/289/289 288/288/288
f 288/288/288 180/180/180 179/179/179
f 180/180/180 288/288/288 287/287/287
f 287/287/287 182/182/182 180/180/180
f 185/185/185 182/182/182 287/287/287
f 287/287/287 286/286/286 185/185/185
f 189/189/189 188/188/188 285/285/285
f 285/285/285 284/284/284 189/189/189
f 191/191/191 189/189/189 284/284/284
f 284/284/284 283/283/283 191/191/191
f 191/191/191 283/283/283 282/282/282
f 282/282/282 192/192/192 191/191/191
f 195/195/195 297/297/297 296/296/296
f 296/296/296 165/165/165 195/195/195
f 369/369/369 370/370/370 371/371/371
f 371/371/371 372/372/372 369/369/369
f 369/369/369 372/372/372 373/373/373
f 373/373/373 374/374/374 369/369/369
f 375/375/375 376/376/376 377/377/377
f 377/377/377 378/378/378 375/375/375
f 379/379/379 375/375/375 378/378/378
f 378/378/378 380/380/380 379/379/379
f 379/379/379 380/380/380 381/381/381
f 381/381/381 382/382/382 379/379/379
f 382/382/382 381/381/381 383/383/383
f 383/383/383 384/384/384 382/382/382
f 385/385/385 386/386/386 387/387/387
f 387/387/387 388/388/388 385/385/385
f 385/385/385 388/388/388 389/389/389
f 389/389/389 390/390/390 385/385/385
f 390/390/390 389/389/389 391/391/391
f 391/391/391 392/392/392 390/390/390
f 393/393/393 392/392/392 391/391/391
f 391/391/391 394/394/394 393/393/393
f 395/395/395 396/396/396 397/397/397
f 397/397/397 398/398/398 395/395/395
f 395/395/395 398/398/398 371/371/371
f 371/371/371 370/370/370 395/395/395