mtllib 37690890.mtl
o Mesh

v 0.08362700045108795 -0.8907109498977661 0.32363998889923096
v 0.2112330049276352 -0.889968991279602 0.196042001247406
v 0.1290690004825592 -0.4827209711074829 0.1338140070438385
v 0.03141200169920921 -0.4716140031814575 0.23101100325584412
v -0.09068600088357925 -0.890982985496521 0.37034401297569275
v 0.08362700045108795 -0.8907109498977661 0.32363998889923096
v 0.03141200169920921 -0.4716140031814575 0.23101100325584412
v -0.10198900103569031 -0.4675489664077759 0.2665880024433136
v -0.26500099897384644 -0.8907109498977661 0.32363998889923096
v -0.23539100587368011 -0.4716140031814575 0.23101100325584412
v -0.3926070034503937 -0.889968991279602 0.196042001247406
v -0.26500099897384644 -0.8907109498977661 0.32363998889923096
v -0.23539100587368011 -0.4716140031814575 0.23101100325584412
v -0.3330470025539398 -0.4827209711074829 0.1338140070438385
v -0.4393250048160553 -0.8823419809341431 0.038750000298023224
v -0.36879199743270874 -0.4960329532623291 0.02735999971628189
v -0.39261800050735474 -0.8588540554046631 -0.12192399799823761
v -0.3331019878387451 -0.5082370042800903 -0.09520100057125092
v -0.2650110125541687 -0.8307219743728638 -0.24877400696277618
v -0.39261800050735474 -0.8588540554046631 -0.12192399799823761
v -0.3331019878387451 -0.5082370042800903 -0.09520100057125092
v -0.2354470044374466 -0.5168449878692627 -0.18328699469566345
v -0.10204599797725677 -0.5219939947128296 -0.23592199385166168
v -0.09069699794054031 -0.8124589920043945 -0.3163740038871765
v -0.16779500246047974 -0.8196510076522827 -0.290039986371994
v -0.16104799509048462 -0.5198960304260254 -0.2154799997806549
v 0.031355999410152435 -0.5168449878692627 -0.18328699469566345
v 0.08361700177192688 -0.8307219743728638 -0.24877400696277618
v -0.01030499953776598 -0.8197920322418213 -0.2891640067100525
v -0.040522001683712006 -0.519819974899292 -0.21480700373649597
v 0.1290140002965927 -0.5082370042800903 -0.09520100057125092
v 0.21122300624847412 -0.8588540554046631 -0.12192399799823761
v 0.16481399536132812 -0.4960329532623291 0.02735999971628189
v 0.2579309940338135 -0.8823419809341431 0.038750000298023224
v 0.21122300624847412 -0.8588540554046631 -0.12192399799823761
v 0.1290140002965927 -0.5082370042800903 -0.09520100057125092
v 0.08362700045108795 -0.8907109498977661 0.32363998889923096
v -0.08969700336456299 -0.877249002456665 0.006800999864935875
v 0.2112330049276352 -0.889968991279602 0.196042001247406
v -0.09068600088357925 -0.890982985496521 0.37034401297569275
v -0.26500099897384644 -0.8907109498977661 0.32363998889923096
v -0.3926070034503937 -0.889968991279602 0.196042001247406
v -0.4393250048160553 -0.8823419809341431 0.038750000298023224
v -0.39261800050735474 -0.8588540554046631 -0.12192399799823761
v -0.2650110125541687 -0.8307219743728638 -0.24877400696277618
v -0.16779500246047974 -0.8196510076522827 -0.290039986371994
v -0.09069699794054031 -0.8124589920043945 -0.3163740038871765
v -0.01030499953776598 -0.8197920322418213 -0.2891640067100525
v 0.08361700177192688 -0.8307219743728638 -0.24877400696277618
v 0.21122300624847412 -0.8588540554046631 -0.12192399799823761
v 0.2579309940338135 -0.8823419809341431 0.038750000298023224
v 0.00011800000356743112 0.9570289850234985 0.22986499965190887
v 0.10871800035238266 0.9570289850234985 0.13419799506664276
v 0.03730899840593338 1.0400890111923218 0.09809999912977219
v -0.041110001504421234 1.0400890111923218 0.16717900335788727
v -0.14823099970817566 0.9570289850234985 0.2648810148239136
v -0.14823099970817566 1.0400890111923218 0.19246399402618408
v -0.2553510069847107 1.0400890111923218 0.16717900335788727
v -0.2965799868106842 0.9570289850234985 0.22986499965190887
v -0.3337689936161041 1.0400890111923218 0.09809999912977219
v -0.4051789939403534 0.9570289850234985 0.13419799506664276
v -0.3624719977378845 1.0400890111923218 0.0037360000424087048
v -0.44492900371551514 0.9570289850234985 0.003515999997034669
v -0.4051789939403534 0.9570289850234985 -0.1271670013666153
v -0.3337689936161041 1.0400890111923218 -0.0906279981136322
v -0.2965799868106842 0.9570289850234985 -0.2228340059518814
v -0.2553510069847107 1.0400890111923218 -0.15970799326896667
v -0.14823099970817566 1.0400890111923218 -0.18499299883842468
v -0.14823099970817566 0.9570289850234985 -0.28022098541259766
v -0.21384499967098236 0.9570289850234985 -0.25856098532676697
v -0.19561000168323517 1.0400890111923218 -0.19000700116157532
v 0.00011800000356743112 0.9570289850234985 -0.2228340059518814
v -0.07981300354003906 0.9570289850234985 -0.2578989863395691
v -0.09882699698209763 1.0400890111923218 -0.18952900171279907
v -0.041110001504421234 1.0400890111923218 -0.15970799326896667
v 0.03730899840593338 1.0400890111923218 -0.0906279981136322
v 0.10871800035238266 0.9570289850234985 -0.1271670013666153
v 0.0660099983215332 1.0400890111923218 0.0037360000424087048
v 0.1484680026769638 0.9570289850234985 0.003515999997034669
v 0.15110400319099426 0.020348012447357178 -0.0622280016541481
v 0.11536300182342529 -0.004047036170959473 -0.19672900438308716
v 0.1198510006070137 0.1843389868736267 -0.18186399340629578
v 0.15685999393463135 0.161749005317688 -0.06009500101208687
v 0.11536300182342529 -0.004047036170959473 -0.19672900438308716
v 0.017715999856591225 -0.012830018997192383 -0.2889400124549866
v 0.018741000443696976 0.20087897777557373 -0.27582401037216187
v 0.1198510006070137 0.1843389868736267 -0.18186399340629578
v -0.05415400117635727 -0.01602494716644287 -0.3225269913673401
v -0.055677998811006546 0.20413899421691895 -0.31055301427841187
v -0.119377002120018 0.2069290280342102 -0.33258700370788574
v -0.11567100137472153 -0.018066048622131348 -0.34396201372146606
v -0.17466700077056885 -0.0160830020904541 -0.32316499948501587
v -0.18046699464321136 0.2042589783668518 -0.3112030029296875
v -0.2574959993362427 0.20087897777557373 -0.27582401037216187
v -0.24905799329280853 -0.012830018997192383 -0.2889400124549866
v -0.34670498967170715 -0.004047036170959473 -0.19672900438308716
v -0.3586060106754303 0.1843389868736267 -0.18186399340629578
v -0.3586060106754303 0.1843389868736267 -0.18186399340629578
v -0.34670498967170715 -0.004047036170959473 -0.19672900438308716
v -0.3824459910392761 0.020348012447357178 -0.0622280016541481
v -0.39561501145362854 0.161749005317688 -0.06009500101208687
v -0.34670498967170715 0.03925901651382446 0.0757410004734993
v -0.3586060106754303 0.139149010181427 0.06825699657201767
v -0.24905799329280853 0.06811702251434326 0.17749400436878204
v -0.2574959993362427 0.12260901927947998 0.16221700608730316
v -0.24905799329280853 0.06811702251434326 0.17749400436878204
v -0.11567100137472153 0.07966601848602295 0.21288999915122986
v -0.119377002120018 0.11655902862548828 0.1966090053319931
v -0.2574959993362427 0.12260901927947998 0.16221700608730316
v 0.017715999856591225 0.06811702251434326 0.17749400436878204
v 0.018741000443696976 0.12260901927947998 0.16221700608730316
v 0.018741000443696976 0.12260901927947998 0.16221700608730316
v 0.017715999856591225 0.06811702251434326 0.17749400436878204
v 0.11536300182342529 0.03925901651382446 0.0757410004734993
v 0.1198510006070137 0.139149010181427 0.06825699657201767
v 0.10871800035238266 0.9570289850234985 -0.1271670013666153
v 0.12313800305128098 0.6184090375900269 -0.1669739931821823
v 0.015514999628067017 0.6314489841461182 -0.2563430070877075
v 0.00011800000356743112 0.9570289850234985 -0.2228340059518814
v -0.06369800120592117 0.6340290307998657 -0.2901650071144104
v -0.07981300354003906 0.9570289850234985 -0.2578989863395691
v -0.14823099970817566 0.9570289850234985 -0.28022098541259766
v -0.1315010040998459 0.6362290382385254 -0.31142398715019226
v -0.1965239942073822 0.6341190338134766 -0.29078298807144165
v -0.21384499967098236 0.9570289850234985 -0.25856098532676697
v -0.2965799868106842 0.9570289850234985 -0.2228340059518814
v -0.2785150110721588 0.6314489841461182 -0.2563430070877075
v -0.386137992143631 0.6184090375900269 -0.1669739931821823
v -0.4051789939403534 0.9570289850234985 -0.1271670013666153
v -0.4051789939403534 0.9570289850234985 -0.1271670013666153
v -0.386137992143631 0.6184090375900269 -0.1669739931821823
v -0.4255309998989105 0.6005989909172058 -0.044895000755786896
v -0.44492900371551514 0.9570289850234985 0.003515999997034669
v -0.386137992143631 0.5827890038490295 0.07718399912118912
v -0.4051789939403534 0.9570289850234985 0.13419799506664276
v -0.2785150110721588 0.5697389841079712 0.16655300557613373
v -0.2965799868106842 0.9570289850234985 0.22986499965190887
v -0.2785150110721588 0.5697389841079712 0.16655300557613373
v -0.1315010040998459 0.564969003200531 0.19926400482654572
v -0.14823099970817566 0.9570289850234985 0.2648810148239136
v -0.2965799868106842 0.9570289850234985 0.22986499965190887
v 0.015514999628067017 0.5697389841079712 0.16655300557613373
v 0.00011800000356743112 0.9570289850234985 0.22986499965190887
v 0.015514999628067017 0.5697389841079712 0.16655300557613373
v 0.12313800305128098 0.5827890038490295 0.07718399912118912
v 0.10871800035238266 0.9570289850234985 0.13419799506664276
v 0.00011800000356743112 0.9570289850234985 0.22986499965190887
v 0.16253000497817993 0.6005989909172058 -0.044895000755786896
v 0.1484680026769638 0.9570289850234985 0.003515999997034669
v 0.12313800305128098 0.6184090375900269 -0.1669739931821823
v 0.10871800035238266 0.9570289850234985 -0.1271670013666153
v 0.03162999823689461 -0.1333169937133789 -0.2775120139122009
v -0.04511300101876259 -0.13643097877502441 -0.31442299485206604
v -0.11079999804496765 -0.13909602165222168 -0.33856698870658875
v -0.17379699647426605 -0.13654005527496338 -0.31516700983047485
v -0.2532320022583008 -0.1333169937133789 -0.2775120139122009
v -0.3574979901313782 -0.11752903461456299 -0.1699019968509674
v -0.3574979901313782 -0.11752903461456299 -0.1699019968509674
v -0.39566200971603394 -0.0959620475769043 -0.02290399931371212
v -0.3574979901313782 -0.07771503925323486 0.09607899934053421
v -0.2532320022583008 -0.05528604984283447 0.1876789927482605
v -0.2532320022583008 -0.05528604984283447 0.1876789927482605
v -0.11079999804496765 -0.04950594902038574 0.2270669937133789
v 0.03162999823689461 -0.05528604984283447 0.1876789927482605
v 0.03162999823689461 -0.05528604984283447 0.1876789927482605
v 0.13589699566364288 -0.07771503925323486 0.09607899934053421
v 0.17406100034713745 -0.0959620475769043 -0.02290399931371212
v 0.13589699566364288 -0.11752903461456299 -0.1699019968509674
v 0.13589699566364288 -0.11752903461456299 -0.1699019968509674
v 0.16582700610160828 -0.18588197231292725 -0.013554000295698643
v 0.12905199825763702 -0.20910298824310303 -0.15269699692726135
v 0.12905199825763702 -0.20910298824310303 -0.15269699692726135
v 0.028581999242305756 -0.22790396213531494 -0.2556540071964264
v -0.04536600038409233 -0.23249197006225586 -0.28980299830436707
v -0.16936400532722473 -0.2326200008392334 -0.2904999852180481
v -0.10866200178861618 -0.23598802089691162 -0.31226199865341187
v -0.3463769853115082 -0.20910298824310303 -0.15269699692726135
v -0.2459069937467575 -0.22790396213531494 -0.2556540071964264
v -0.38315099477767944 -0.18588197231292725 -0.013554000295698643
v -0.3463769853115082 -0.20910298824310303 -0.15269699692726135
v -0.3463769853115082 -0.16552996635437012 0.10771399736404419
v -0.2459069937467575 -0.14686298370361328 0.20857900381088257
v -0.10866200178861618 -0.1400289535522461 0.24549899995326996
v -0.2459069937467575 -0.14686298370361328 0.20857900381088257
v 0.028581999242305756 -0.14686298370361328 0.20857900381088257
v 0.12905199825763702 -0.16552996635437012 0.10771399736404419
v 0.028581999242305756 -0.14686298370361328 0.20857900381088257
v -0.14823099970817566 1.0950089693069458 0.0039900001138448715
v 0.12501299381256104 -0.9214479923248291 -0.5001839995384216
v 0.13507899641990662 -1.0112800598144531 -0.49778398871421814
v 0.057858001440763474 -1.0112800598144531 -0.676002025604248
v 0.05030899867415428 -0.8973859548568726 -0.6774920225143433
v 0.13476000726222992 -0.9684139490127563 0.19321100413799286
v 0.06240300089120865 -0.9762610197067261 0.3024519979953766
v 0.06631399691104889 -1.0112800598144531 0.30137598514556885
v 0.13460800051689148 -1.0112800598144531 0.1919420063495636
v 0.13460800051689148 -1.0112800598144531 0.1919420063495636
v 0.06631399691104889 -1.0112800598144531 0.30137598514556885
v 0.08296100050210953 -1.0112800598144531 0.08207199722528458
v 0.15980200469493866 -1.0112800598144531 0.009057000279426575
v 0.15980200469493866 -1.0112800598144531 0.009057000279426575
v 0.15951000154018402 -0.9451320171356201 0.000522000016644597
v -0.3143090009689331 -1.0112800598144531 0.009057000279426575
v -0.2896440029144287 -1.0112800598144531 0.1919420063495636
v -0.28979599475860596 -0.9684139490127563 0.19321100413799286
v -0.3140160143375397 -0.9451320171356201 0.000522000016644597
v 0.1371680051088333 -0.9105709791183472 -0.2395779937505722
v 0.05177599936723709 -0.8685020208358765 -0.3937569856643677
v 0.056387998163700104 -0.8254820108413696 -0.2537589967250824
v 0.11733700335025787 -0.8314230442047119 -0.17184799909591675
v -0.29460999369621277 -0.8721050024032593 0.18639199435710907
v -0.31849899888038635 -0.8560789823532104 0.0009089999948628247
v 0.13491900265216827 -0.8651490211486816 0.1911340057849884
v 0.16172300279140472 -0.8490970134735107 0.006810999941080809
v 0.13507899641990662 -1.0112800598144531 -0.49778398871421814
v 0.15757200121879578 -1.0112800598144531 -0.39189499616622925
v 0.08119700103998184 -1.0112800598144531 -0.3886590003967285
v 0.057858001440763474 -1.0112800598144531 -0.676002025604248
v 0.14336900413036346 -0.9143040180206299 -0.3930079936981201
v 0.15757200121879578 -1.0112800598144531 -0.39189499616622925
v 0.13507899641990662 -1.0112800598144531 -0.49778398871421814
v 0.12501299381256104 -0.9214479923248291 -0.5001839995384216
v 0.04595400020480156 -0.8865330219268799 -0.5278760194778442
v 0.14336900413036346 -0.9143040180206299 -0.3930079936981201
v -0.3201099932193756 -1.0112800598144531 -0.3885599970817566
v -0.30852800607681274 -0.9143040180206299 -0.3885189890861511
v -0.2892509996891022 -0.9214479923248291 -0.4957669973373413
v -0.29931700229644775 -1.0112800598144531 -0.4933370053768158
v -0.2080489993095398 -0.8288869857788086 -0.2575739920139313
v -0.21948599815368652 -0.8685020208358765 -0.38096800446510315
v -0.29006901383399963 -0.9105709791183472 -0.2386769950389862
v -0.26724401116371155 -0.8374060392379761 -0.17815899848937988
v -0.21262399852275848 -0.8865330219268799 -0.5208389759063721
v -0.21636299788951874 -0.8973859548568726 -0.6748340129852295
v -0.2892509996891022 -0.9214479923248291 -0.4957669973373413
v -0.30852800607681274 -0.9143040180206299 -0.3885189890861511
v -0.2241470068693161 -1.0112800598144531 -0.6731209754943848
v -0.29931700229644775 -1.0112800598144531 -0.4933370053768158
v -0.24186499416828156 -1.0112800598144531 -0.3870599865913391
v -0.3201099932193756 -1.0112800598144531 -0.3885599970817566
v -0.29931700229644775 -1.0112800598144531 -0.4933370053768158
v -0.2241470068693161 -1.0112800598144531 -0.6731209754943848
v -0.2409369945526123 -1.0112800598144531 0.08207199722528458
v -0.2244659960269928 -1.0112800598144531 0.30137598514556885
v -0.2896440029144287 -1.0112800598144531 0.1919420063495636
v -0.3143090009689331 -1.0112800598144531 0.009057000279426575
v -0.2244659960269928 -1.0112800598144531 0.30137598514556885
v -0.22018000483512878 -0.9762610197067261 0.3024519979953766
v -0.03715299814939499 -0.8727020025253296 -0.5913190245628357
v -0.03420199826359749 -0.8565629720687866 -0.7864270210266113
v -0.032398998737335205 -1.0112800598144531 -0.7893909811973572
v -0.022374000400304794 -1.0112800598144531 -0.41778600215911865
v -0.032398998737335205 -1.0112800598144531 -0.7893909811973572
v -0.026969999074935913 -1.0112800598144531 0.343874990940094
v -0.020948000252246857 -1.0112800598144531 0.11042699962854385
v 0.06240300089120865 -0.9762610197067261 0.3024519979953766
v -0.0311879999935627 -0.9762610197067261 0.34495100378990173
v -0.026969999074935913 -1.0112800598144531 0.343874990940094
v 0.06631399691104889 -1.0112800598144531 0.30137598514556885
v -0.11052600294351578 -0.8727020025253296 -0.5913190245628357
v -0.11302900314331055 -0.8565629720687866 -0.7864270210266113
v -0.11467699706554413 -1.0112800598144531 -0.7893909811973572
v -0.12505699694156647 -1.0112800598144531 -0.41778600215911865
v -0.11467699706554413 -1.0112800598144531 -0.7893909811973572
v -0.12730099260807037 -1.0112800598144531 0.11042699962854385
v -0.12244900315999985 -1.0112800598144531 0.343874990940094
v -0.12244900315999985 -1.0112800598144531 0.343874990940094
v -0.11859499663114548 -0.9762610197067261 0.34495100378990173
v -0.22018000483512878 -0.9762610197067261 0.3024519979953766
v -0.2244659960269928 -1.0112800598144531 0.30137598514556885
v -0.07527700066566467 -0.8203459978103638 -0.2987389862537384
v -0.1113549992442131 -0.85725998878479 -0.4617989957332611
v 0.04373599961400032 -0.8785409927368164 0.2940469980239868
v -0.20546099543571472 -0.8825769424438477 0.29129600524902344
v -0.0360339991748333 -0.85725998878479 -0.4617989957332611
v 0.04373599961400032 -0.8785409927368164 0.2940469980239868
v -0.0812629982829094 -0.8843749761581421 0.3329029977321625
v -0.20546099543571472 -0.8825769424438477 0.29129600524902344
v 0.1371680051088333 -0.9105709791183472 -0.2395779937505722
v 0.11733700335025787 -0.8314230442047119 -0.17184799909591675
v 0.154121994972229 -1.0112800598144531 -0.24025900661945343
v 0.10379700362682343 -1.0112800598144531 -0.2450290024280548
v 0.154121994972229 -1.0112800598144531 -0.24025900661945343
v -0.013505999930202961 -1.0112800598144531 -0.25106000900268555
v -0.13356900215148926 -1.0112800598144531 -0.25106000900268555
v -0.26185399293899536 -1.0112800598144531 -0.24407699704170227
v -0.30285999178886414 -1.0112800598144531 -0.24008500576019287
v -0.30285999178886414 -1.0112800598144531 -0.24008500576019287
v -0.29006901383399963 -0.9105709791183472 -0.2386769950389862
v -0.26724401116371155 -0.8374060392379761 -0.17815899848937988

vn 0.4168039858341217 -0.576000988483429 0.7168970108032227
vn 0.7114779949188232 -0.585237979888916 0.4132060110569
vn 0.854665994644165 0.1473110020160675 0.5170009732246399
vn 0.502784013748169 0.15801799297332764 0.8612099885940552
vn 0.003969000186771154 -0.5800099968910217 0.8264480233192444
vn 0.4168039858341217 -0.576000988483429 0.7168970108032227
vn 0.502784013748169 0.15801799297332764 0.8612099885940552
vn 9.300000237999484e-05 0.15452399849891663 0.997780978679657
vn -0.4068160057067871 -0.5870260000228882 0.7136840224266052
vn -0.5037379860877991 0.13596099615097046 0.8644109964370728
vn -0.6990399956703186 -0.603522002696991 0.40810298919677734
vn -0.4068160057067871 -0.5870260000228882 0.7136840224266052
vn -0.5037379860877991 0.13596099615097046 0.8644109964370728
vn -0.8579080104827881 0.10738600045442581 0.5214459896087646
vn -0.8123909831047058 -0.5984219908714294 -0.036830998957157135
vn -1.006512999534607 0.07578899711370468 0.025112999603152275
vn -0.6836259961128235 -0.5629029870033264 -0.48501500487327576
vn -0.8634359836578369 0.037498001009225845 -0.5220299959182739
vn -0.4215889871120453 -0.5252029895782471 -0.7522420287132263
vn -0.6836259961128235 -0.5629029870033264 -0.48501500487327576
vn -0.8634359836578369 0.037498001009225845 -0.5220299959182739
vn -0.557237982749939 0.010317999869585037 -0.841916024684906
vn -0.004734000191092491 0.010844999924302101 -1.0096060037612915
vn 0.0036949999630451202 -0.44279301166534424 -0.9073939919471741
vn -0.2595199942588806 -0.5203220248222351 -0.8254449963569641
vn -0.3686180114746094 -0.004370000213384628 -0.9399710297584534
vn 0.5564839839935303 0.04276200011372566 -0.8413919806480408
vn 0.43365100026130676 -0.5101919770240784 -0.7557079792022705
vn 0.2693929970264435 -0.49732500314712524 -0.8363839983940125
vn 0.3696630001068115 0.018533999100327492 -0.9393879771232605
vn 0.8584870100021362 0.08517199754714966 -0.5245850086212158
vn 0.698773980140686 -0.541815996170044 -0.4874359965324402
vn 1.0014309883117676 0.12717600166797638 0.020166000351309776
vn 0.8275970220565796 -0.577305018901825 -0.035301998257637024
vn 0.698773980140686 -0.541815996170044 -0.4874359965324402
vn 0.8584870100021362 0.08517199754714966 -0.5245850086212158
vn 0.4168039858341217 -0.576000988483429 0.7168970108032227
vn -5.6000000768108293e-05 -1.0030800104141235 -0.11521700024604797
vn 0.7114779949188232 -0.585237979888916 0.4132060110569
vn 0.003969000186771154 -0.5800099968910217 0.8264480233192444
vn -0.4068160057067871 -0.5870260000228882 0.7136840224266052
vn -0.6990399956703186 -0.603522002696991 0.40810298919677734
vn -0.8123909831047058 -0.5984219908714294 -0.036830998957157135
vn -0.6836259961128235 -0.5629029870033264 -0.48501500487327576
vn -0.4215889871120453 -0.5252029895782471 -0.7522420287132263
vn -0.2595199942588806 -0.5203220248222351 -0.8254449963569641
vn 0.0036949999630451202 -0.44279301166534424 -0.9073939919471741
vn 0.2693929970264435 -0.49732500314712524 -0.8363839983940125
vn 0.43365100026130676 -0.5101919770240784 -0.7557079792022705
vn 0.698773980140686 -0.541815996170044 -0.4874359965324402
vn 0.8275970220565796 -0.577305018901825 -0.035301998257637024
vn 0.43950799107551575 0.2827970087528229 0.8638880252838135
vn 0.7961990237236023 0.32871198654174805 0.5267450213432312
vn 0.45742300152778625 0.8485180139541626 0.30037400126457214
vn 0.25546398758888245 0.8373010158538818 0.5030990242958069
vn -0.002901999978348613 0.25997400283813477 0.9756270051002502
vn -0.0 0.8319600224494934 0.5720900297164917
vn -0.25546300411224365 0.837302029132843 0.5030980110168457
vn -0.4480440020561218 0.26580899953842163 0.8648959994316101
vn -0.4574210047721863 0.8485190272331238 0.3003750145435333
vn -0.8083270192146301 0.29515400528907776 0.5281429886817932
vn -0.5377029776573181 0.8545870184898376 0.00016599999798927456
vn -0.9526299834251404 0.33426299691200256 0.014456000179052353
vn -0.8000339865684509 0.36417800188064575 -0.496753990650177
vn -0.45685601234436035 0.849066972732544 -0.2996860146522522
vn -0.5080990195274353 0.3767229914665222 -0.7869939804077148
vn -0.2914600074291229 0.8542860150337219 -0.45242801308631897
vn 0.002392000053077936 0.8798030018806458 -0.4953629970550537
vn -0.007338999770581722 0.43435099720954895 -0.9114440083503723
vn -0.31062600016593933 0.40400001406669617 -0.8716300129890442
vn -0.07395300269126892 0.8890740275382996 -0.4727819859981537
vn 0.5022109746932983 0.4004710018634796 -0.7790060043334961
vn 0.3080799877643585 0.41964098811149597 -0.865119993686676
vn 0.07889299839735031 0.8894810080528259 -0.4712139964103699
vn 0.29241999983787537 0.8547570109367371 -0.45091599225997925
vn 0.4568580090999603 0.849066972732544 -0.29968398809432983
vn 0.7840620279312134 0.4015539884567261 -0.4934000074863434
vn 0.5377010107040405 0.8545889854431152 0.00016599999798927456
vn 0.9364519715309143 0.37717700004577637 0.015468000434339046
vn 1.0056689977645874 0.07784300297498703 -0.04488600045442581
vn 0.8514580130577087 0.0333780013024807 -0.5416169762611389
vn 0.8605790138244629 0.010998999699950218 -0.5279449820518494
vn 1.0093029737472534 -0.024845000356435776 -0.011607999913394451
vn 0.8514580130577087 0.0333780013024807 -0.5416169762611389
vn 0.5598980188369751 0.01782499998807907 -0.8400239944458008
vn 0.5643889904022217 0.04125399887561798 -0.8361859917640686
vn 0.8605790138244629 0.010998999699950218 -0.5279449820518494
vn 0.3797529935836792 0.011169999837875366 -0.9354709982872009
vn 0.3794940114021301 0.0511539988219738 -0.9342439770698547
vn -0.0004900000058114529 0.0481639988720417 -1.0085259675979614
vn -0.00609100004658103 -6.000000212225132e-06 -1.0096570253372192
vn -0.3787969946861267 -0.012055999599397182 -0.9358479976654053
vn -0.37878501415252686 0.03572800010442734 -0.9352480173110962
vn -0.5591470003128052 0.01712699979543686 -0.8405389785766602
vn -0.5603359937667847 -0.014008999802172184 -0.8398039937019348
vn -0.8560709953308105 -0.017813000828027725 -0.5350409746170044
vn -0.8572440147399902 -0.0313819982111454 -0.5325340032577515
vn -0.8572440147399902 -0.0313819982111454 -0.5325340032577515
vn -0.8560709953308105 -0.017813000828027725 -0.5350409746170044
vn -1.0088659524917603 0.011106000281870365 -0.03885899856686592
vn -1.0064140558242798 -0.07846499979496002 -0.020465999841690063
vn -0.8697929978370667 0.055776000022888184 0.5097000002861023
vn -0.8662710189819336 -0.06224200129508972 0.5149210095405579
vn -0.4963490068912506 0.13700999319553375 0.8685100078582764
vn -0.5082499980926514 0.0503540001809597 0.8709710240364075
vn -0.4963490068912506 0.13700999319553375 0.8685100078582764
vn 0.00481799989938736 0.26381999254226685 0.9745870232582092
vn -0.006252000108361244 0.19606800377368927 0.990435004234314
vn -0.5082499980926514 0.0503540001809597 0.8709710240364075
vn 0.5022600293159485 0.1860170066356659 0.8559070229530334
vn 0.5023260116577148 0.09751900285482407 0.870402991771698
vn 0.5023260116577148 0.09751900285482407 0.870402991771698
vn 0.5022600293159485 0.1860170066356659 0.8559070229530334
vn 0.8684759736061096 0.12470400333404541 0.499642014503479
vn 0.8654189705848694 -0.009190999902784824 0.5200089812278748
vn 0.7840620279312134 0.4015539884567261 -0.4934000074863434
vn 0.8379520177841187 0.06096300110220909 -0.5599679946899414
vn 0.530813992023468 0.08130399882793427 -0.8550260066986084
vn 0.5022109746932983 0.4004710018634796 -0.7790060043334961
vn 0.3520109951496124 0.0828159973025322 -0.9426950216293335
vn 0.3080799877643585 0.41964098811149597 -0.865119993686676
vn -0.007338999770581722 0.43435099720954895 -0.9114440083503723
vn 0.0009059999720193446 0.07444100081920624 -1.0069270133972168
vn -0.35113298892974854 0.05270000174641609 -0.9451839923858643
vn -0.31062600016593933 0.40400001406669617 -0.8716300129890442
vn -0.5080990195274353 0.3767229914665222 -0.7869939804077148
vn -0.5238649845123291 0.036458998918533325 -0.8623690009117126
vn -0.8347409963607788 -0.0048940000124275684 -0.5680029988288879
vn -0.8000339865684509 0.36417800188064575 -0.496753990650177
vn -0.8000339865684509 0.36417800188064575 -0.496753990650177
vn -0.8347409963607788 -0.0048940000124275684 -0.5680029988288879
vn -1.0076709985733032 -0.06137700006365776 -0.016620000824332237
vn -0.9526299834251404 0.33426299691200256 0.014456000179052353
vn -0.8450739979743958 -0.09742599725723267 0.5438780188560486
vn -0.8083270192146301 0.29515400528907776 0.5281429886817932
vn -0.4563080072402954 -0.10188499838113785 0.8949009776115417
vn -0.4480440020561218 0.26580899953842163 0.8648959994316101
vn -0.4563080072402954 -0.10188499838113785 0.8949009776115417
vn 0.001446999958716333 -0.08861199766397476 1.0057779550552368
vn -0.002901999978348613 0.25997400283813477 0.9756270051002502
vn -0.4480440020561218 0.26580899953842163 0.8648959994316101
vn 0.45730701088905334 -0.06838300079107285 0.8975729942321777
vn 0.43950799107551575 0.2827970087528229 0.8638880252838135
vn 0.45730701088905334 -0.06838300079107285 0.8975729942321777
vn 0.8457679748535156 -0.035610001534223557 0.550320029258728
vn 0.7961990237236023 0.32871198654174805 0.5267450213432312
vn 0.43950799107551575 0.2827970087528229 0.8638880252838135
vn 1.0095579624176025 0.013822999782860279 -0.006732999812811613
vn 0.9364519715309143 0.37717700004577637 0.015468000434339046
vn 0.8379520177841187 0.06096300110220909 -0.5599679946899414
vn 0.7840620279312134 0.4015539884567261 -0.4934000074863434
vn 0.5889000296592712 -0.1154400035738945 -0.8119810223579407
vn 0.39291900396347046 -0.1349010020494461 -0.9202499985694885
vn -0.0007980000227689743 -0.15629200637340546 -0.9975050091743469
vn -0.3896940052509308 -0.15718300640583038 -0.9180830121040344
vn -0.5848219990730286 -0.1515129953622818 -0.8089939951896667
vn -0.8865000009536743 -0.11118900030851364 -0.4703179895877838
vn -0.8865000009536743 -0.11118900030851364 -0.4703179895877838
vn -1.0087549686431885 -0.013597999699413776 0.04088300094008446
vn -0.8533329963684082 0.06363800168037415 0.5359259843826294
vn -0.5178369879722595 0.12424100190401077 0.8578190207481384
vn -0.5178369879722595 0.12424100190401077 0.8578190207481384
vn 0.0013699999544769526 0.15610499680042267 0.9975339770317078
vn 0.5208529829978943 0.15821200609207153 0.8503680229187012
vn 0.5208529829978943 0.15821200609207153 0.8503680229187012
vn 0.8529940247535706 0.11909999698400497 0.5269349813461304
vn 1.0080410242080688 0.04964200034737587 0.02885100059211254
vn 0.8874260187149048 -0.05525900050997734 -0.47839999198913574
vn 0.8874260187149048 -0.05525900050997734 -0.47839999198913574
vn 1.0081340074539185 -0.05011799931526184 0.0244510006159544
vn 0.8762570023536682 -0.1312679946422577 -0.4841359853744507
vn 0.8762570023536682 -0.1312679946422577 -0.4841359853744507
vn 0.5830870270729065 -0.2006009966135025 -0.7995070219039917
vn 0.3828420042991638 -0.23083700239658356 -0.9053120017051697
vn -0.3811509907245636 -0.2472420036792755 -0.9016870260238647
vn -0.0014090000186115503 -0.2608419954776764 -0.9753990173339844
vn -0.8738560080528259 -0.16944900155067444 -0.4765569865703583
vn -0.5796909928321838 -0.22581499814987183 -0.7952420115470886
vn -1.0048760175704956 -0.09251900017261505 0.033284999430179596
vn -0.8738560080528259 -0.16944900155067444 -0.4765569865703583
vn -0.8565120100975037 -0.005102999974042177 0.534608006477356
vn -0.5029929876327515 0.10037899762392044 0.8696929812431335
vn 0.0005230000242590904 0.13432200253009796 1.0006999969482422
vn -0.5029929876327515 0.10037899762392044 0.8696929812431335
vn 0.5036739706993103 0.12109699845314026 0.8666549921035767
vn 0.858027994632721 0.030654000118374825 0.5313119888305664
vn 0.5036739706993103 0.12109699845314026 0.8666549921035767
vn -0.0 1.0096750259399414 0.0003809999907389283
vn 0.8231350183486938 0.5334650278091431 -0.23939000070095062
vn 0.7375230193138123 -0.6517509818077087 -0.2252199947834015
vn 0.6556010246276855 -0.6646400094032288 -0.3845579922199249
vn 0.7577670216560364 0.576475977897644 -0.33601799607276917
vn 0.9374039769172668 0.023341000080108643 0.3743959963321686
vn 0.646016001701355 0.11581499874591827 0.7672640085220337
vn 0.5194879770278931 -0.6376540064811707 0.5856389999389648
vn 0.7074810266494751 -0.6743389964103699 0.2533409893512726
vn 0.7074810266494751 -0.6743389964103699 0.2533409893512726
vn 0.5194879770278931 -0.6376540064811707 0.5856389999389648
vn -0.0 -1.0096750259399414 0.0
vn 0.7333980202674866 -0.6925320029258728 0.04438700154423714
vn 0.7333980202674866 -0.6925320029258728 0.04438700154423714
vn 1.0092010498046875 0.029702000319957733 0.008689000271260738
vn -0.7354239821434021 -0.6908910274505615 0.03557199984788895
vn -0.7089980244636536 -0.6759750247001648 0.24458900094032288
vn -0.9400219917297363 0.01266700029373169 0.3682959973812103
vn -1.0095629692077637 0.013623000122606754 -0.00634399987757206
vn 0.914313018321991 0.4101890027523041 -0.12337599694728851
vn 0.373649001121521 0.9245550036430359 -0.15820400416851044
vn 0.553318977355957 0.7761440277099609 -0.33299100399017334
vn 0.9103789925575256 0.3647240102291107 -0.24006299674510956
vn -0.936610996723175 -0.021640000864863396 0.3764770030975342
vn -1.0042530298233032 -0.05015600100159645 -0.09167499840259552
vn 0.9269610047340393 0.0012229999992996454 0.4002330005168915
vn 1.0079870223999023 -0.019627999514341354 -0.05496799945831299
vn 0.7375230193138123 -0.6517509818077087 -0.2252199947834015
vn 0.782351016998291 -0.6342080235481262 -0.07176999747753143
vn -0.0 -1.0096750259399414 0.0
vn 0.6556010246276855 -0.6646400094032288 -0.3845579922199249
vn 0.8236160278320312 0.5777660012245178 -0.08536899834871292
vn 0.782351016998291 -0.6342080235481262 -0.07176999747753143
vn 0.7375230193138123 -0.6517509818077087 -0.2252199947834015
vn 0.8231350183486938 0.5334650278091431 -0.23939000070095062
vn 0.3342849910259247 0.9475399851799011 -0.09932799637317657
vn 0.8236160278320312 0.5777660012245178 -0.08536899834871292
vn -0.7833629846572876 -0.6363580226898193 -0.028888000175356865
vn -0.8381450176239014 0.5609009861946106 -0.04845200106501579
vn -0.8238930106163025 0.5321620106697083 -0.23968400061130524
vn -0.7359210252761841 -0.6548460125923157 -0.22145000100135803
vn -0.5318819880485535 0.8063600063323975 -0.29381901025772095
vn -0.37671801447868347 0.9261869788169861 -0.14037400484085083
vn -0.9182519912719727 0.4106700122356415 -0.08722099661827087
vn -0.8950999975204468 0.4004029929637909 -0.24066199362277985
vn -0.3207530081272125 0.952189028263092 -0.09948399662971497
vn -0.7297840118408203 0.5895559787750244 -0.3732070028781891
vn -0.8238930106163025 0.5321620106697083 -0.23968400061130524
vn -0.8381450176239014 0.5609009861946106 -0.04845200106501579
vn -0.64935702085495 -0.6551049947738647 -0.410629004240036
vn -0.7359210252761841 -0.6548460125923157 -0.22145000100135803
vn -0.0 -1.0096750259399414 0.0
vn -0.7833629846572876 -0.6363580226898193 -0.028888000175356865
vn -0.7359210252761841 -0.6548460125923157 -0.22145000100135803
vn -0.64935702085495 -0.6551049947738647 -0.410629004240036
vn -0.0 -1.0096750259399414 0.0
vn -0.5206729769706726 -0.6306189894676208 0.5921679735183716
vn -0.7089980244636536 -0.6759750247001648 0.24458900094032288
vn -0.7354239821434021 -0.6908910274505615 0.03557199984788895
vn -0.5206729769706726 -0.6306189894676208 0.5921679735183716
vn -0.6366099715232849 0.1192530021071434 0.7745640277862549
vn 0.13186299800872803 1.000560998916626 -0.030544999986886978
vn 0.37721800804138184 0.6731780171394348 -0.6511390209197998
vn 0.3512580096721649 -0.6169899702072144 -0.7179030179977417
vn -0.0 -1.0096750259399414 0.0
vn 0.3512580096721649 -0.6169899702072144 -0.7179030179977417
vn 0.1721850037574768 -0.6697670221328735 0.7356680035591125
vn -0.0 -1.0096750259399414 0.0
vn 0.646016001701355 0.11581499874591827 0.7672640085220337
vn 0.20961500704288483 0.09333399683237076 0.983256995677948
vn 0.1721850037574768 -0.6697670221328735 0.7356680035591125
vn 0.5194879770278931 -0.6376540064811707 0.5856389999389648
vn -0.1127220019698143 1.002958059310913 -0.02850699983537197
vn -0.34574899077415466 0.6802819967269897 -0.6611490249633789
vn -0.3180379867553711 -0.6242899894714355 -0.7270200252532959
vn -0.0 -1.0096750259399414 0.0
vn -0.3180379867553711 -0.6242899894714355 -0.7270200252532959
vn -0.0 -1.0096750259399414 0.0
vn -0.158268004655838 -0.6743360161781311 0.7346190214157104
vn -0.158268004655838 -0.6743360161781311 0.7346190214157104
vn -0.19849899411201477 0.08737500011920929 0.9861069917678833
vn -0.6366099715232849 0.1192530021071434 0.7745640277862549
vn -0.5206729769706726 -0.6306189894676208 0.5921679735183716
vn -0.0019109999993816018 0.9808899760246277 -0.23936299979686737
vn -0.11609400063753128 0.9909330010414124 -0.1549759954214096
vn 0.5897809863090515 0.176937997341156 0.8001850247383118
vn -0.6027299761772156 0.17014899849891663 0.7919660210609436
vn 0.13213899731636047 0.989001989364624 -0.154462993144989
vn 0.5897809863090515 0.176937997341156 0.8001850247383118
vn -0.01925400085747242 0.23344700038433075 0.9821280241012573
vn -0.6027299761772156 0.17014899849891663 0.7919660210609436
vn 0.914313018321991 0.4101890027523041 -0.12337599694728851
vn 0.9103789925575256 0.3647240102291107 -0.24006299674510956
vn 0.7600759863853455 -0.6645349860191345 -0.011057999916374683
vn -0.0 -1.0096750259399414 0.0
vn 0.7600759863853455 -0.6645349860191345 -0.011057999916374683
vn -0.0 -1.0096750259399414 0.0
vn -0.0 -1.0096750259399414 0.0
vn -0.0 -1.0096750259399414 0.0
vn -0.7348200082778931 -0.692251980304718 0.016473999246954918
vn -0.7348200082778931 -0.692251980304718 0.016473999246954918
vn -0.9182519912719727 0.4106700122356415 -0.08722099661827087
vn -0.8950999975204468 0.4004029929637909 -0.24066199362277985

vt 0.6259670257568359 0.7504290044307709
vt 0.6271849870681763 0.7235009968280792
vt 0.6540070176124573 0.7191309928894043
vt 0.6571429967880249 0.7498910129070282
vt 0.6320239901542664 0.8209439963102341
vt 0.6259670257568359 0.7504290044307709
vt 0.6571429967880249 0.7498910129070282
vt 0.6571379899978638 0.8200470060110092
vt 0.6331899762153625 0.8753499984741211
vt 0.6585419774055481 0.8753499984741211
vt 0.63018798828125 0.4141659736633301
vt 0.6310020089149475 0.37561798095703125
vt 0.6559380292892456 0.37561798095703125
vt 0.6544579863548279 0.41921699047088623
vt 0.6306869983673096 0.4472140073776245
vt 0.6535249948501587 0.4462599754333496
vt 0.6334689855575562 0.5002090036869049
vt 0.6533790230751038 0.5002090036869049
vt 0.6345620155334473 0.524179995059967
vt 0.6334689855575562 0.5002090036869049
vt 0.6533790230751038 0.5002090036869049
vt 0.6515989899635315 0.5260879993438721
vt 0.650484025478363 0.5622979998588562
vt 0.637440025806427 0.5625520050525665
vt 0.6372820138931274 0.5456570088863373
vt 0.6508610248565674 0.5466690063476562
vt 0.6506639719009399 0.6007040143013
vt 0.6328459978103638 0.6029970049858093
vt 0.6367700099945068 0.579910010099411
vt 0.6505230069160461 0.5785599946975708
vt 0.6516249775886536 0.6258910000324249
vt 0.6316059827804565 0.6258910000324249
vt 0.651977002620697 0.6922149956226349
vt 0.6279230117797852 0.6903910040855408
vt 0.6316059827804565 0.6258910000324249
vt 0.6516249775886536 0.6258910000324249
vt 0.6017749905586243 0.23470497131347656
vt 0.6326490044593811 0.30004602670669556
vt 0.6017749905586243 0.2660580277442932
vt 0.6326090097427368 0.23470497131347656
vt 0.663519024848938 0.23470497131347656
vt 0.663519024848938 0.26592302322387695
vt 0.663519024848938 0.2941790223121643
vt 0.663519024848938 0.3232420086860657
vt 0.663519024848938 0.35884302854537964
vt 0.639510989189148 0.3589550256729126
vt 0.632686972618103 0.3589550256729126
vt 0.6255649924278259 0.3589550256729126
vt 0.6017749905586243 0.3589550256729126
vt 0.6017749905586243 0.3233789801597595
vt 0.6017749905586243 0.2943379878997803
vt 0.5068259835243225 0.23434197902679443
vt 0.5223389863967896 0.23434197902679443
vt 0.5096830129623413 0.27440398931503296
vt 0.5018720030784607 0.25948697328567505
vt 0.49091601371765137 0.23434197902679443
vt 0.4907039999961853 0.25384801626205444
vt 0.48045000433921814 0.2598299980163574
vt 0.4751549959182739 0.23434197902679443
vt 0.4726170003414154 0.2736939787864685
vt 0.46029898524284363 0.23434197902679443
vt 0.4696739912033081 0.2952039837837219
vt 0.46029898524284363 0.2947559952735901
vt 0.46029898524284363 0.35892701148986816
vt 0.4726960062980652 0.31544697284698486
vt 0.47559499740600586 0.35892701148986816
vt 0.4803600013256073 0.3302059769630432
vt 0.4916340112686157 0.33626502752304077
vt 0.4913260042667389 0.35892701148986816
vt 0.4841580092906952 0.35892701148986816
vt 0.4865800142288208 0.33695000410079956
vt 0.5072489976882935 0.35892701148986816
vt 0.4985719919204712 0.35892701148986816
vt 0.496506005525589 0.33678901195526123
vt 0.5019350051879883 0.32983899116516113
vt 0.5096740126609802 0.31628602743148804
vt 0.5223389863967896 0.35892701148986816
vt 0.5126919746398926 0.2949420213699341
vt 0.5223389863967896 0.2951570153236389
vt 0.6831619739532471 0.6767120063304901
vt 0.6810140013694763 0.6258910000324249
vt 0.6915619969367981 0.6258910000324249
vt 0.6908360123634338 0.6729289889335632
vt 0.6810140013694763 0.6258910000324249
vt 0.6806150078773499 0.5939579904079437
vt 0.6925110220909119 0.594743013381958
vt 0.6915619969367981 0.6258910000324249
vt 0.6805440187454224 0.5763320028781891
vt 0.6928439736366272 0.5770969986915588
vt 0.6931250095367432 0.5642859935760498
vt 0.6805430054664612 0.5633740127086639
vt 0.6809890270233154 0.5511780083179474
vt 0.6932439804077148 0.5519689917564392
vt 0.6933689713478088 0.5356830060482025
vt 0.6814349889755249 0.5349000096321106
vt 0.6828489899635315 0.5002090036869049
vt 0.6932079792022705 0.5002090036869049
vt 0.6932079792022705 0.5002090036869049
vt 0.6828489899635315 0.5002090036869049
vt 0.6847559809684753 0.45575499534606934
vt 0.6923829913139343 0.4584059715270996
vt 0.6856979727745056 0.4278249740600586
vt 0.6910160183906555 0.4332290291786194
vt 0.687591016292572 0.37561798095703125
vt 0.6907309889793396 0.37561798095703125
vt 0.6914610266685486 0.8753499984741211
vt 0.6909480094909668 0.818125993013382
vt 0.6945340037345886 0.818122997879982
vt 0.6953690052032471 0.8753499984741211
vt 0.690530002117157 0.7498910129070282
vt 0.6944429874420166 0.7498910129070282
vt 0.6944429874420166 0.7498910129070282
vt 0.690530002117157 0.7498910129070282
vt 0.6851490139961243 0.7046349942684174
vt 0.6903420090675354 0.6982699930667877
vt 0.7420110106468201 0.6258910000324249
vt 0.716346025466919 0.6258910000324249
vt 0.7170500159263611 0.5939710140228271
vt 0.7420110106468201 0.5936459898948669
vt 0.7173420190811157 0.5756109952926636
vt 0.7420110106468201 0.575190007686615
vt 0.7420110106468201 0.5615440011024475
vt 0.7175890207290649 0.5621879994869232
vt 0.7178400158882141 0.5492930114269257
vt 0.7420110106468201 0.5485099852085114
vt 0.7420110106468201 0.5315130054950714
vt 0.7181349992752075 0.5322659909725189
vt 0.7181010246276855 0.5002090036869049
vt 0.7420110106468201 0.5002090036869049
vt 0.7420110106468201 0.5002090036869049
vt 0.7181010246276855 0.5002090036869049
vt 0.7177479863166809 0.4597949981689453
vt 0.7420110106468201 0.4545630216598511
vt 0.7169430255889893 0.43594199419021606
vt 0.7420110106468201 0.42882901430130005
vt 0.7161089777946472 0.37561798095703125
vt 0.7420110106468201 0.37561798095703125
vt 0.7209680080413818 0.8753499984741211
vt 0.720333993434906 0.8202690035104752
vt 0.7420110106468201 0.8201970010995865
vt 0.7420110106468201 0.8753499984741211
vt 0.7199289798736572 0.7498910129070282
vt 0.7420110106468201 0.7498910129070282
vt 0.7199289798736572 0.7498910129070282
vt 0.7158560156822205 0.6927669942378998
vt 0.7420110106468201 0.6961599886417389
vt 0.7420110106468201 0.7498910129070282
vt 0.715785026550293 0.6687589883804321
vt 0.7420110106468201 0.6706219911575317
vt 0.716346025466919 0.6258910000324249
vt 0.7420110106468201 0.6258910000324249
vt 0.6731370091438293 0.5950630009174347
vt 0.6730759739875793 0.576552003622055
vt 0.6731280088424683 0.5633560121059418
vt 0.6734499931335449 0.5506719946861267
vt 0.6740509867668152 0.5337800085544586
vt 0.6758350133895874 0.5002090036869049
vt 0.6758350133895874 0.5002090036869049
vt 0.6776350140571594 0.45207101106643677
vt 0.6786320209503174 0.42820602655410767
vt 0.6803939938545227 0.37561798095703125
vt 0.6841170191764832 0.8753499984741211
vt 0.6828870177268982 0.8181920051574707
vt 0.6830419898033142 0.7498910129070282
vt 0.6830419898033142 0.7498910129070282
vt 0.6778380274772644 0.7055020034313202
vt 0.6759669780731201 0.6817229986190796
vt 0.6739609837532043 0.6258910000324249
vt 0.6739609837532043 0.6258910000324249
vt 0.6710209846496582 0.6879430115222931
vt 0.6688629984855652 0.6258910000324249
vt 0.6688629984855652 0.6258910000324249
vt 0.667680025100708 0.597690999507904
vt 0.6674129962921143 0.5779010057449341
vt 0.6677820086479187 0.5489600002765656
vt 0.66736900806427 0.5629740059375763
vt 0.6707749962806702 0.5002090036869049
vt 0.6686270236968994 0.530690997838974
vt 0.6726070046424866 0.4468200206756592
vt 0.6707749962806702 0.5002090036869049
vt 0.6733769774436951 0.42074698209762573
vt 0.6747180223464966 0.37561798095703125
vt 0.6759420037269592 0.8188350051641464
vt 0.6773279905319214 0.8753499984741211
vt 0.6762599945068359 0.7498910129070282
vt 0.6728579998016357 0.7138670086860657
vt 0.6762599945068359 0.7498910129070282
vt 0.49116501212120056 0.294888973236084
vt 0.6204460263252258 0.6136049926280975
vt 0.6172770261764526 0.6137900054454803
vt 0.6172770261764526 0.5964959859848022
vt 0.6231020092964172 0.5955570042133331
vt 0.6200090050697327 0.718080997467041
vt 0.6194649934768677 0.7504290044307709
vt 0.6172770261764526 0.7504290044307709
vt 0.6172770261764526 0.720196008682251
vt 0.6017749905586243 0.23470497131347656
vt 0.614654004573822 0.23470497131347656
vt 0.6146529912948608 0.2748510241508484
vt 0.6017749905586243 0.2843000292778015
vt 0.6172770261764526 0.6830379962921143
vt 0.6209620237350464 0.6811259984970093
vt 0.6172770261764526 0.4401940107345581
vt 0.6172770261764526 0.4030190110206604
vt 0.6198750138282776 0.4050779938697815
vt 0.6208800077438354 0.44207900762557983
vt 0.6233450174331665 0.6258910000324249
vt 0.6276749968528748 0.5998800098896027
vt 0.6328459978103638 0.6029970049858093
vt 0.6316059827804565 0.6258910000324249
vt 0.63018798828125 0.4141659736633301
vt 0.6306869983673096 0.4472140073776245
vt 0.6271849870681763 0.7235009968280792
vt 0.6279230117797852 0.6903910040855408
vt 0.6017749905586243 0.3589550256729126
vt 0.6017749905586243 0.32888901233673096
vt 0.6146519780158997 0.32889002561569214
vt 0.6146500110626221 0.3589550256729126
vt 0.6223499774932861 0.6216740012168884
vt 0.6172770261764526 0.621737003326416
vt 0.6172770261764526 0.6137900054454803
vt 0.6204460263252258 0.6136049926280975
vt 0.626105010509491 0.5983960032463074
vt 0.6223499774932861 0.6216740012168884
vt 0.6173030138015747 0.5067099928855896
vt 0.6230459809303284 0.5049690008163452
vt 0.6211490035057068 0.5140790045261383
vt 0.6172770261764526 0.5191519856452942
vt 0.6345620155334473 0.524179995059967
vt 0.627892017364502 0.5228640139102936
vt 0.6240370273590088 0.5002090036869049
vt 0.6334689855575562 0.5002090036869049
vt 0.6263219714164734 0.5239039957523346
vt 0.6233189702033997 0.5258930027484894
vt 0.6211490035057068 0.5140790045261383
vt 0.6230459809303284 0.5049690008163452
vt 0.6172770261764526 0.5253260135650635
vt 0.6172770261764526 0.5191519856452942
vt 0.6512449979782104 0.32889002561569214
vt 0.663519024848938 0.32889002561569214
vt 0.663519024848938 0.3589550256729126
vt 0.6512439846992493 0.3589550256729126
vt 0.6512470245361328 0.2748519778251648
vt 0.6512479782104492 0.23470497131347656
vt 0.663519024848938 0.23470497131347656
vt 0.663519024848938 0.2843030095100403
vt 0.6172770261764526 0.37561798095703125
vt 0.6209970116615295 0.37561798095703125
vt 0.626105010509491 0.575884997844696
vt 0.6231020092964172 0.5758630037307739
vt 0.6172770261764526 0.5791139900684357
vt 0.6263909935951233 0.32888901233673096
vt 0.6263899803161621 0.3589550256729126
vt 0.6263930201530457 0.23470497131347656
vt 0.6263920068740845 0.27118200063705444
vt 0.6194769740104675 0.7504869997501373
vt 0.6194769740104675 0.8135789930820465
vt 0.6172890067100525 0.8124790042638779
vt 0.6172890067100525 0.7504869997501373
vt 0.626105010509491 0.5544500052928925
vt 0.6231020092964172 0.5543389916419983
vt 0.6172770261764526 0.5512180030345917
vt 0.6384069919586182 0.32889002561569214
vt 0.638405978679657 0.3589550256729126
vt 0.6384069919586182 0.2711830139160156
vt 0.6384090185165405 0.23470497131347656
vt 0.6172890067100525 0.8357349932193756
vt 0.6194769740104675 0.834755003452301
vt 0.6194769740104675 0.8754080012440681
vt 0.6172890067100525 0.8754080012440681
vt 0.637440025806427 0.5625520050525665
vt 0.6276749968528748 0.5545080006122589
vt 0.6259670257568359 0.7504290044307709
vt 0.6310020089149475 0.37561798095703125
vt 0.6276749968528748 0.5758970081806183
vt 0.6259790062904358 0.7504869997501373
vt 0.6320359706878662 0.8210009932518005
vt 0.6332020163536072 0.8754080012440681
vt 0.6233450174331665 0.6258910000324249
vt 0.6316059827804565 0.6258910000324249
vt 0.6172770261764526 0.6258910000324249
vt 0.6146519780158997 0.31317901611328125
vt 0.6017749905586243 0.31317800283432007
vt 0.6263909935951233 0.31317800283432007
vt 0.6384069919586182 0.31317901611328125
vt 0.6512460112571716 0.31317901611328125
vt 0.663519024848938 0.31318002939224243
vt 0.6173160076141357 0.5002090036869049
vt 0.6240370273590088 0.5002090036869049
vt 0.6334689855575562 0.5002090036869049

usemtl Material

f 1/1/1 2/2/2 3/3/3
f 3/3/3 4/4/4 1/1/1
f 5/5/5 6/6/6 7/7/7
f 7/7/7 8/8/8 5/5/5
f 9/9/9 5/5/5 8/8/8
f 8/8/8 10/10/10 9/9/9
f 11/11/11 12/12/12 13/13/13
f 13/13/13 14/14/14 11/11/11
f 15/15/15 11/11/11 14/14/14
f 14/14/14 16/16/16 15/15/15
f 17/17/17 15/15/15 16/16/16
f 16/16/16 18/18/18 17/17/17
f 19/19/19 20/20/20 21/21/21
f 21/21/21 22/22/22 19/19/19
f 23/23/23 24/24/24 25/25/25
f 25/25/25 26/26/26 23/23/23
f 27/27/27 28/28/28 29/29/29
f 29/29/29 30/30/30 27/27/27
f 31/31/31 32/32/32 28/28/28
f 28/28/28 27/27/27 31/31/31
f 33/33/33 34/34/34 35/35/35
f 35/35/35 36/36/36 33/33/33
f 2/2/2 34/34/34 33/33/33
f 33/33/33 3/3/3 2/2/2
f 37/37/37 38/38/38 39/39/39
f 40/40/40 38/38/38 37/37/37
f 41/41/41 38/38/38 40/40/40
f 42/42/42 38/38/38 41/41/41
f 43/43/43 38/38/38 42/42/42
f 44/44/44 38/38/38 43/43/43
f 45/45/45 38/38/38 44/44/44
f 45/45/45 46/46/46 47/47/47
f 47/47/47 38/38/38 45/45/45
f 47/47/47 48/48/48 49/49/49
f 49/49/49 38/38/38 47/47/47
f 50/50/50 38/38/38 49/49/49
f 51/51/51 38/38/38 50/50/50
f 39/39/39 38/38/38 51/51/51
f 52/52/52 53/53/53 54/54/54
f 54/54/54 55/55/55 52/52/52
f 56/56/56 52/52/52 55/55/55
f 55/55/55 57/57/57 56/56/56
f 58/58/58 59/59/59 56/56/56
f 56/56/56 57/57/57 58/58/58
f 60/60/60 61/61/61 59/59/59
f 59/59/59 58/58/58 60/60/60
f 62/62/62 63/63/63 61/61/61
f 61/61/61 60/60/60 62/62/62
f 64/64/64 63/63/63 62/62/62
f 62/62/62 65/65/65 64/64/64
f 66/66/66 64/64/64 65/65/65
f 65/65/65 67/67/67 66/66/66
f 68/68/68 69/69/69 70/70/70
f 70/70/70 71/71/71 68/68/68
f 72/72/72 73/73/73 74/74/74
f 74/74/74 75/75/75 72/72/72
f 76/76/76 77/77/77 72/72/72
f 72/72/72 75/75/75 76/76/76
f 78/78/78 79/79/79 77/77/77
f 77/77/77 76/76/76 78/78/78
f 53/53/53 79/79/79 78/78/78
f 78/78/78 54/54/54 53/53/53
f 80/80/80 81/81/81 82/82/82
f 82/82/82 83/83/83 80/80/80
f 84/84/84 85/85/85 86/86/86
f 86/86/86 87/87/87 84/84/84
f 85/85/85 88/88/88 89/89/89
f 89/89/89 86/86/86 85/85/85
f 90/90/90 91/91/91 92/92/92
f 92/92/92 93/93/93 90/90/90
f 94/94/94 95/95/95 96/96/96
f 96/96/96 97/97/97 94/94/94
f 98/98/98 99/99/99 100/100/100
f 100/100/100 101/101/101 98/98/98
f 100/100/100 102/102/102 103/103/103
f 103/103/103 101/101/101 100/100/100
f 102/102/102 104/104/104 105/105/105
f 105/105/105 103/103/103 102/102/102
f 106/106/106 107/107/107 108/108/108
f 108/108/108 109/109/109 106/106/106
f 108/108/108 107/107/107 110/110/110
f 110/110/110 111/111/111 108/108/108
f 112/112/112 113/113/113 114/114/114
f 114/114/114 115/115/115 112/112/112
f 115/115/115 114/114/114 80/80/80
f 80/80/80 83/83/83 115/115/115
f 116/116/116 117/117/117 118/118/118
f 118/118/118 119/119/119 116/116/116
f 119/119/119 118/118/118 120/120/120
f 120/120/120 121/121/121 119/119/119
f 122/122/122 123/123/123 124/124/124
f 124/124/124 125/125/125 122/122/122
f 126/126/126 127/127/127 128/128/128
f 128/128/128 129/129/129 126/126/126
f 130/130/130 131/131/131 132/132/132
f 132/132/132 133/133/133 130/130/130
f 133/133/133 132/132/132 134/134/134
f 134/134/134 135/135/135 133/133/133
f 135/135/135 134/134/134 136/136/136
f 136/136/136 137/137/137 135/135/135
f 138/138/138 139/139/139 140/140/140
f 140/140/140 141/141/141 138/138/138
f 139/139/139 142/142/142 143/143/143
f 143/143/143 140/140/140 139/139/139
f 144/144/144 145/145/145 146/146/146
f 146/146/146 147/147/147 144/144/144
f 145/145/145 148/148/148 149/149/149
f 149/149/149 146/146/146 145/145/145
f 148/148/148 150/150/150 151/151/151
f 151/151/151 149/149/149 148/148/148
f 85/85/85 152/152/152 153/153/153
f 153/153/153 88/88/88 85/85/85
f 91/91/91 154/154/154 155/155/155
f 155/155/155 92/92/92 91/91/91
f 156/156/156 157/157/157 96/96/96
f 96/96/96 95/95/95 156/156/156
f 158/158/158 159/159/159 100/100/100
f 100/100/100 99/99/99 158/158/158
f 159/159/159 160/160/160 102/102/102
f 102/102/102 100/100/100 159/159/159
f 102/102/102 160/160/160 161/161/161
f 161/161/161 104/104/104 102/102/102
f 106/106/106 162/162/162 163/163/163
f 163/163/163 107/107/107 106/106/106
f 163/163/163 164/164/164 110/110/110
f 110/110/110 107/107/107 163/163/163
f 165/165/165 166/166/166 114/114/114
f 114/114/114 113/113/113 165/165/165
f 114/114/114 166/166/166 167/167/167
f 167/167/167 80/80/80 114/114/114
f 80/80/80 167/167/167 168/168/168
f 168/168/168 81/81/81 80/80/80
f 84/84/84 169/169/169 152/152/152
f 152/152/152 85/85/85 84/84/84
f 118/118/118 86/86/86 89/89/89
f 89/89/89 120/120/120 118/118/118
f 90/90/90 93/93/93 124/124/124
f 124/124/124 123/123/123 90/90/90
f 94/94/94 97/97/97 128/128/128
f 128/128/128 127/127/127 94/94/94
f 98/98/98 101/101/101 132/132/132
f 132/132/132 131/131/131 98/98/98
f 101/101/101 103/103/103 134/134/134
f 134/134/134 132/132/132 101/101/101
f 103/103/103 105/105/105 136/136/136
f 136/136/136 134/134/134 103/103/103
f 109/109/109 108/108/108 139/139/139
f 139/139/139 138/138/138 109/109/109
f 139/139/139 108/108/108 111/111/111
f 111/111/111 142/142/142 139/139/139
f 144/144/144 112/112/112 115/115/115
f 115/115/115 145/145/145 144/144/144
f 145/145/145 115/115/115 83/83/83
f 83/83/83 148/148/148 145/145/145
f 148/148/148 83/83/83 82/82/82
f 82/82/82 150/150/150 148/148/148
f 117/117/117 87/87/87 86/86/86
f 86/86/86 118/118/118 117/117/117
f 170/170/170 33/33/33 36/36/36
f 36/36/36 171/171/171 170/170/170
f 172/172/172 31/31/31 27/27/27
f 27/27/27 173/173/173 172/172/172
f 173/173/173 27/27/27 30/30/30
f 30/30/30 174/174/174 173/173/173
f 23/23/23 26/26/26 175/175/175
f 175/175/175 176/176/176 23/23/23
f 22/22/22 21/21/21 177/177/177
f 177/177/177 178/178/178 22/22/22
f 18/18/18 16/16/16 179/179/179
f 179/179/179 180/180/180 18/18/18
f 179/179/179 16/16/16 14/14/14
f 14/14/14 181/181/181 179/179/179
f 181/181/181 14/14/14 13/13/13
f 13/13/13 182/182/182 181/181/181
f 10/10/10 8/8/8 183/183/183
f 183/183/183 184/184/184 10/10/10
f 8/8/8 7/7/7 185/185/185
f 185/185/185 183/183/183 8/8/8
f 4/4/4 3/3/3 186/186/186
f 186/186/186 187/187/187 4/4/4
f 3/3/3 33/33/33 170/170/170
f 170/170/170 186/186/186 3/3/3
f 54/54/54 188/188/188 55/55/55
f 55/55/55 188/188/188 57/57/57
f 57/57/57 188/188/188 58/58/58
f 58/58/58 188/188/188 60/60/60
f 60/60/60 188/188/188 62/62/62
f 62/62/62 188/188/188 65/65/65
f 65/65/65 188/188/188 67/67/67
f 68/68/68 71/71/71 67/67/67
f 67/67/67 188/188/188 68/68/68
f 75/75/75 74/74/74 68/68/68
f 68/68/68 188/188/188 75/75/75
f 75/75/75 188/188/188 76/76/76
f 76/76/76 188/188/188 78/78/78
f 78/78/78 188/188/188 54/54/54
f 73/73/73 69/69/69 68/68/68
f 68/68/68 74/74/74 73/73/73
f 121/121/121 120/120/120 123/123/123
f 123/123/123 122/122/122 121/121/121
f 120/120/120 89/89/89 90/90/90
f 90/90/90 123/123/123 120/120/120
f 88/88/88 91/91/91 90/90/90
f 90/90/90 89/89/89 88/88/88
f 88/88/88 153/153/153 154/154/154
f 154/154/154 91/91/91 88/88/88
f 174/174/174 30/30/30 23/23/23
f 23/23/23 176/176/176 174/174/174
f 30/30/30 29/29/29 24/24/24
f 24/24/24 23/23/23 30/30/30
f 71/71/71 70/70/70 66/66/66
f 66/66/66 67/67/67 71/71/71
f 125/125/125 124/124/124 127/127/127
f 127/127/127 126/126/126 125/125/125
f 124/124/124 93/93/93 94/94/94
f 94/94/94 127/127/127 124/124/124
f 93/93/93 92/92/92 95/95/95
f 95/95/95 94/94/94 93/93/93
f 155/155/155 156/156/156 95/95/95
f 95/95/95 92/92/92 155/155/155
f 26/26/26 22/22/22 178/178/178
f 178/178/178 175/175/175 26/26/26
f 25/25/25 19/19/19 22/22/22
f 22/22/22 26/26/26 25/25/25
f 170/170/170 171/171/171 168/168/168
f 168/168/168 167/167/167 170/170/170
f 172/172/172 173/173/173 152/152/152
f 152/152/152 169/169/169 172/172/172
f 152/152/152 173/173/173 174/174/174
f 174/174/174 153/153/153 152/152/152
f 153/153/153 174/174/174 176/176/176
f 176/176/176 154/154/154 153/153/153
f 176/176/176 175/175/175 155/155/155
f 155/155/155 154/154/154 176/176/176
f 175/175/175 178/178/178 156/156/156
f 156/156/156 155/155/155 175/175/175
f 156/156/156 178/178/178 177/177/177
f 177/177/177 157/157/157 156/156/156
f 158/158/158 180/180/180 179/179/179
f 179/179/179 159/159/159 158/158/158
f 179/179/179 181/181/181 160/160/160
f 160/160/160 159/159/159 179/179/179
f 181/181/181 182/182/182 161/161/161
f 161/161/161 160/160/160 181/181/181
f 184/184/184 183/183/183 163/163/163
f 163/163/163 162/162/162 184/184/184
f 163/163/163 183/183/183 185/185/185
f 185/185/185 164/164/164 163/163/163
f 165/165/165 187/187/187 186/186/186
f 186/186/186 166/166/166 165/165/165
f 186/186/186 170/170/170 167/167/167
f 167/167/167 166/166/166 186/186/186
f 189/189/189 190/190/190 191/191/191
f 191/191/191 192/192/192 189/189/189
f 193/193/193 194/194/194 195/195/195
f 195/195/195 196/196/196 193/193/193
f 197/197/197 198/198/198 199/199/199
f 199/199/199 200/200/200 197/197/197
f 193/193/193 196/196/196 201/201/201
f 201/201/201 202/202/202 193/193/193
f 203/203/203 204/204/204 205/205/205
f 205/205/205 206/206/206 203/203/203
f 207/207/207 208/208/208 209/209/209
f 209/209/209 210/210/210 207/207/207
f 206/206/206 205/205/205 211/211/211
f 211/211/211 212/212/212 206/206/206
f 213/213/213 193/193/193 202/202/202
f 202/202/202 214/214/214 213/213/213
f 215/215/215 216/216/216 217/217/217
f 217/217/217 218/218/218 215/215/215
f 219/219/219 220/220/220 221/221/221
f 221/221/221 222/222/222 219/219/219
f 223/223/223 224/224/224 189/189/189
f 189/189/189 192/192/192 223/223/223
f 225/225/225 226/226/226 227/227/227
f 227/227/227 228/228/228 225/225/225
f 229/229/229 230/230/230 231/231/231
f 231/231/231 232/232/232 229/229/229
f 233/233/233 234/234/234 235/235/235
f 235/235/235 236/236/236 233/233/233
f 237/237/237 238/238/238 235/235/235
f 235/235/235 234/234/234 237/237/237
f 239/239/239 240/240/240 241/241/241
f 241/241/241 242/242/242 239/239/239
f 243/243/243 244/244/244 245/245/245
f 245/245/245 246/246/246 243/243/243
f 247/247/247 248/248/248 205/205/205
f 205/205/205 204/204/204 247/247/247
f 249/249/249 223/223/223 192/192/192
f 192/192/192 250/250/250 249/249/249
f 192/192/192 191/191/191 251/251/251
f 251/251/251 250/250/250 192/192/192
f 218/218/218 217/217/217 252/252/252
f 252/252/252 253/253/253 218/218/218
f 198/198/198 254/254/254 255/255/255
f 255/255/255 199/199/199 198/198/198
f 256/256/256 257/257/257 258/258/258
f 258/258/258 259/259/259 256/256/256
f 260/260/260 261/261/261 234/234/234
f 234/234/234 233/233/233 260/260/260
f 262/262/262 237/237/237 234/234/234
f 234/234/234 261/261/261 262/262/262
f 263/263/263 239/239/239 242/242/242
f 242/242/242 264/264/264 263/263/263
f 265/265/265 266/266/266 244/244/244
f 244/244/244 243/243/243 265/265/265
f 267/267/267 268/268/268 269/269/269
f 269/269/269 270/270/270 267/267/267
f 271/271/271 272/272/272 230/230/230
f 230/230/230 229/229/229 271/271/271
f 249/249/249 250/250/250 261/261/261
f 261/261/261 260/260/260 249/249/249
f 251/251/251 262/262/262 261/261/261
f 261/261/261 250/250/250 251/251/251
f 252/252/252 263/263/263 264/264/264
f 264/264/264 253/253/253 252/252/252
f 254/254/254 266/266/266 265/265/265
f 265/265/265 255/255/255 254/254/254
f 257/257/257 268/268/268 267/267/267
f 267/267/267 258/258/258 257/257/257
f 193/193/193 213/213/213 273/273/273
f 273/273/273 194/194/194 193/193/193
f 274/274/274 211/211/211 205/205/205
f 205/205/205 248/248/248 274/274/274
f 271/271/271 209/209/209 208/208/208
f 208/208/208 275/275/275 271/271/271
f 276/276/276 277/277/277 257/257/257
f 257/257/257 256/256/256 276/276/276
f 268/268/268 277/277/277 278/278/278
f 278/278/278 269/269/269 268/268/268
f 277/277/277 268/268/268 257/257/257
f 271/271/271 275/275/275 272/272/272
f 202/202/202 279/279/279 280/280/280
f 280/280/280 214/214/214 202/202/202
f 202/202/202 201/201/201 281/281/281
f 281/281/281 279/279/279 202/202/202
f 200/200/200 199/199/199 282/282/282
f 282/282/282 283/283/283 200/200/200
f 199/199/199 255/255/255 284/284/284
f 284/284/284 282/282/282 199/199/199
f 255/255/255 265/265/265 285/285/285
f 285/285/285 284/284/284 255/255/255
f 285/285/285 265/265/265 243/243/243
f 243/243/243 286/286/286 285/285/285
f 286/286/286 243/243/243 246/246/246
f 246/246/246 287/287/287 286/286/286
f 288/288/288 203/203/203 206/206/206
f 206/206/206 289/289/289 288/288/288
f 206/206/206 212/212/212 290/290/290
f 290/290/290 289/289/289 206/206/206
f 230/230/230 233/233/233 236/236/236
f 236/236/236 231/231/231 230/230/230
f 288/288/288 289/289/289 226/226/226
f 226/226/226 225/225/225 288/288/288
f 286/286/286 287/287/287 240/240/240
f 240/240/240 239/239/239 286/286/286
f 285/285/285 286/286/286 239/239/239
f 239/239/239 263/263/263 285/285/285
f 284/284/284 285/285/285 263/263/263
f 263/263/263 252/252/252 284/284/284
f 217/217/217 282/282/282 284/284/284
f 284/284/284 252/252/252 217/217/217
f 216/216/216 283/283/283 282/282/282
f 282/282/282 217/217/217 216/216/216
f 219/219/219 279/279/279 281/281/281
f 281/281/281 220/220/220 219/219/219
f 208/208/208 207/207/207 224/224/224
f 224/224/224 223/223/223 208/208/208
f 223/223/223 249/249/249 275/275/275
f 275/275/275 208/208/208 223/223/223
f 249/249/249 260/260/260 272/272/272
f 272/272/272 275/275/275 249/249/249
f 272/272/272 260/260/260 233/233/233
f 233/233/233 230/230/230 272/272/272