mtllib 27126982.mtl
o Mesh

v 0.019200026988983154 -1.142300009727478 -0.5550000071525574
v -0.0015999972820281982 -1.0413000583648682 -0.5537999868392944
v 0.07840001583099365 -1.0302000045776367 -0.5587999820709229
v 0.08590000867843628 -1.1330000162124634 -0.5591999888420105
v -0.011500000953674316 -1.1394000053405762 -0.4950999915599823
v -0.03850001096725464 -1.0378999710083008 -0.48190000653266907
v 0.004499971866607666 -1.023300051689148 -0.41499999165534973
v 0.024399995803833008 -1.1273000240325928 -0.439300000667572
v 0.0845000147819519 -1.0120999813079834 -0.41999998688697815
v 0.0910000205039978 -1.1180000305175781 -0.44339999556541443
v 0.1218000054359436 -1.1208000183105469 -0.5034000277519226
v 0.12150001525878906 -1.015599012374878 -0.4918999969959259
v 0.08590000867843628 -1.1330000162124634 -0.5591999888420105
v 0.07840001583099365 -1.0302000045776367 -0.5587999820709229
v 0.07849997282028198 -1.2101000547409058 -0.48429998755455017
v 0.07020002603530884 -1.222100019454956 -0.462799996137619
v 0.05640000104904175 -1.2131999731063843 -0.4828999936580658
v 0.0461999773979187 -1.2122000455856323 -0.46309998631477356
v 0.058099985122680664 -1.2081999778747559 -0.444599986076355
v 0.08020001649856567 -1.2051000595092773 -0.44589999318122864
v 0.09039998054504395 -1.2059999704360962 -0.4657999873161316
v 0.07849997282028198 -1.2101000547409058 -0.48429998755455017
v 0.05640000104904175 -1.2131999731063843 -0.4828999936580658
v 0.07849997282028198 -1.2101000547409058 -0.48429998755455017
v 0.09039998054504395 -1.2059999704360962 -0.4657999873161316
v 0.08020001649856567 -1.2051000595092773 -0.44589999318122864
v 0.058099985122680664 -1.2081999778747559 -0.444599986076355
v 0.0461999773979187 -1.2122000455856323 -0.46309998631477356
v 0.14270001649856567 -1.354599952697754 -0.1988999992609024
v 0.13929998874664307 -1.3416999578475952 -0.275299996137619
v 0.16079998016357422 -1.2254999876022339 -0.26440000534057617
v 0.164900004863739 -1.2410999536514282 -0.1728000044822693
v 0.08209997415542603 -1.1936999559402466 -0.302700012922287
v 0.07370001077651978 -1.3151999711990356 -0.30720001459121704
v 0.011699974536895752 -1.3015999794006348 -0.26269999146461487
v 0.007600009441375732 -1.1775000095367432 -0.2493000030517578
v 0.01510000228881836 -1.3145999908447266 -0.18629999458789825
v 0.011799991130828857 -1.1930999755859375 -0.15770000219345093
v 0.08069998025894165 -1.3410999774932861 -0.15440000593662262
v 0.09039998054504395 -1.2249000072479248 -0.11940000206232071
v 0.14270001649856567 -1.354599952697754 -0.1988999992609024
v 0.164900004863739 -1.2410999536514282 -0.1728000044822693
v 0.041999995708465576 -1.4187999963760376 -0.23160000145435333
v 0.015500009059906006 -1.424299955368042 -0.2443999946117401
v 0.04079997539520264 -1.4144999980926514 -0.25690001249313354
v 0.01910001039505005 -1.4056999683380127 -0.26750001311302185
v -0.0015000104904174805 -1.4012999534606934 -0.25270000100135803
v -0.000299990177154541 -1.4055999517440796 -0.227400004863739
v 0.021399974822998047 -1.4143999814987183 -0.21690000593662262
v 0.041999995708465576 -1.4187999963760376 -0.23160000145435333
v 0.04079997539520264 -1.4144999980926514 -0.25690001249313354
v 0.021399974822998047 -1.4143999814987183 -0.21690000593662262
v 0.041999995708465576 -1.4187999963760376 -0.23160000145435333
v -0.000299990177154541 -1.4055999517440796 -0.227400004863739
v -0.0015000104904174805 -1.4012999534606934 -0.25270000100135803
v 0.01910001039505005 -1.4056999683380127 -0.26750001311302185
v 0.16670000553131104 -1.3539999723434448 0.06769999861717224
v 0.15950000286102295 -1.3595999479293823 -0.00839999970048666
v 0.18049997091293335 -1.2458000183105469 -0.026499999687075615
v 0.18919998407363892 -1.2389999628067017 0.06469999998807907
v 0.09310001134872437 -1.3413000106811523 -0.041999999433755875
v 0.10079997777938843 -1.2238999605178833 -0.06679999828338623
v 0.03390002250671387 -1.3174999952316284 0.0005000000237487257
v 0.029900014400482178 -1.195199966430664 -0.015799999237060547
v 0.04119998216629028 -1.3118000030517578 0.07660000026226044
v 0.038600027561187744 -1.1885000467300415 0.07540000230073929
v 0.10759997367858887 -1.3301000595092773 0.11020000278949738
v 0.11830002069473267 -1.2103999853134155 0.11569999903440475
v 0.18919998407363892 -1.2389999628067017 0.06469999998807907
v 0.16670000553131104 -1.3539999723434448 0.06769999861717224
v 0.06610000133514404 -1.422700047492981 0.05660000070929527
v 0.03939998149871826 -1.430799961090088 0.04690000042319298
v 0.06370002031326294 -1.4244999885559082 0.03139999881386757
v 0.04159998893737793 -1.4184999465942383 0.02019999921321869
v 0.022099971771240234 -1.410599946975708 0.034299999475479126
v 0.024500012397766113 -1.4086999893188477 0.05950000137090683
v 0.04650002717971802 -1.4147000312805176 0.07069999724626541
v 0.06610000133514404 -1.422700047492981 0.05660000070929527
v 0.06370002031326294 -1.4244999885559082 0.03139999881386757
v 0.06610000133514404 -1.422700047492981 0.05660000070929527
v 0.04650002717971802 -1.4147000312805176 0.07069999724626541
v 0.024500012397766113 -1.4086999893188477 0.05950000137090683
v 0.022099971771240234 -1.410599946975708 0.034299999475479126
v 0.04159998893737793 -1.4184999465942383 0.02019999921321869
v -0.11059999465942383 0.002200007438659668 0.2928999960422516
v 0.004199981689453125 0.04590100049972534 0.19599999487400055
v -0.10505199432373047 0.2712000012397766 0.1875
v -0.21082600951194763 0.2387000024318695 0.27239999175071716
v -0.5917149782180786 0.4556249976158142 -0.2513999938964844
v -0.45300599932670593 0.5314170122146606 -0.3255999982357025
v -0.4126580059528351 0.38994401693344116 -0.29350000619888306
v -0.5227490067481995 0.35036200284957886 -0.21170000731945038
v -0.524931013584137 0.35043197870254517 0.21230000257492065
v -0.41387301683425903 0.3902539908885956 0.3107999861240387
v -0.4510810077190399 0.5286489725112915 0.32659998536109924
v -0.5917149782180786 0.4556249976158142 0.23980000615119934
v -0.27241599559783936 0.5979859828948975 0.2930999994277954
v -0.24422100186347961 0.4289489984512329 0.2897000014781952
v -0.1235089898109436 0.45127201080322266 0.20329999923706055
v -0.12956899404525757 0.6379330158233643 0.21940000355243683
v -0.34334897994995117 0.19760000705718994 0.27880001068115234
v -0.2809000015258789 -0.050499022006988525 0.29919999837875366
v -0.12365201115608215 0.4504840075969696 -0.18410000205039978
v -0.1296449899673462 0.6381490230560303 -0.23019999265670776
v -0.07931599020957947 0.6532670259475708 -0.009700000286102295
v -0.06771299242973328 0.4570229947566986 0.004399999976158142
v -0.5227490067481995 0.35036200284957886 -0.21170000731945038
v -0.5594199895858765 0.3385850191116333 0.004800000227987766
v -0.6302000284194946 0.428725004196167 -0.009700000286102295
v -0.5917149782180786 0.4556249976158142 -0.2513999938964844
v -0.4565190076828003 0.16190099716186523 0.18240000307559967
v -0.42180001735687256 -0.08539998531341553 0.2037000060081482
v -0.4595000147819519 -0.07769900560379028 -0.016599999740719795
v -0.48813000321388245 0.15220001339912415 -0.004100000020116568
v -0.4565190076828003 0.16190099716186523 -0.18490000069141388
v -0.43470001220703125 -0.05320000648498535 -0.20960000157356262
v -0.26988300681114197 0.5960270166397095 -0.3116999864578247
v -0.1296449899673462 0.6381490230560303 -0.23019999265670776
v -0.12365201115608215 0.4504840075969696 -0.18410000205039978
v -0.24205699563026428 0.4287799894809723 -0.27309998869895935
v -0.524931013584137 0.35043197870254517 0.21230000257492065
v -0.5917149782180786 0.4556249976158142 0.23980000615119934
v -0.1235089898109436 0.45127201080322266 0.20329999923706055
v -0.12956899404525757 0.6379330158233643 0.21940000355243683
v -0.42180001735687256 -0.08539998531341553 0.2037000060081482
v -0.4565190076828003 0.16190099716186523 0.18240000307559967
v -0.06371399760246277 0.2838999927043915 -0.004100000020116568
v 0.039900004863739014 0.07570099830627441 -0.019200000911951065
v -0.007600009441375732 0.07760000228881836 -0.20829999446868896
v -0.10505199432373047 0.2712000012397766 -0.1680999994277954
v -0.10505199432373047 0.2712000012397766 0.1875
v 0.004199981689453125 0.04590100049972534 0.19599999487400055
v -0.2996000051498413 -0.003099977970123291 -0.3089999854564667
v -0.3449699878692627 0.19710099697113037 -0.2705000042915344
v -0.21001601219177246 0.23890000581741333 -0.26579999923706055
v -0.12839999794960022 0.04990100860595703 -0.3140999972820282
v -0.10505199432373047 0.2712000012397766 -0.1680999994277954
v -0.007600009441375732 0.07760000228881836 -0.20829999446868896
v -0.43470001220703125 -0.05320000648498535 -0.20960000157356262
v -0.4565190076828003 0.16190099716186523 -0.18490000069141388
v 0.09030002355575562 -0.9802989959716797 -0.6075999736785889
v 0.1502000093460083 -0.9830000400543213 -0.5171999931335449
v 0.09950000047683716 -1.0621000528335571 -0.5446000099182129
v 0.18199998140335083 -1.2069000005722046 -0.3188000023365021
v 0.0680999755859375 -1.251999020576477 -0.329800009727478
v 0.028500020503997803 -1.1029000282287598 -0.383899986743927
v 0.15460002422332764 -1.0641000270843506 -0.3799000084400177
v 0.2394999861717224 -1.0604000091552734 0.10750000178813934
v 0.1743999719619751 -1.0923999547958374 0.219200000166893
v 0.19950002431869507 -1.2235000133514404 0.13850000500679016
v 0.25520002841949463 -1.1775000095367432 0.06109999865293503
v 0.19880002737045288 -1.2625999450683594 -0.10369999706745148
v 0.25209999084472656 -1.2030999660491943 -0.09960000216960907
v 0.24540001153945923 -1.1618000268936157 -0.24869999289512634
v 0.13179999589920044 -0.9078999757766724 -0.38659998774528503
v 0.20249998569488525 -0.8787000179290771 -0.3188999891281128
v 0.22680002450942993 -1.038100004196167 -0.2879999876022339
v 0.15609997510910034 -0.6887999773025513 -0.3098999857902527
v -0.012199997901916504 -1.0820000171661377 -0.3903999924659729
v 0.11040002107620239 -1.0398989915847778 -0.40950000286102295
v 0.13179999589920044 -0.9078999757766724 -0.38659998774528503
v -0.009299993515014648 -0.9628000259399414 -0.38679999113082886
v -0.012199997901916504 -1.0820000171661377 -0.3903999924659729
v -0.05180001258850098 -0.8524990081787109 -0.5444999933242798
v 0.07740002870559692 -0.815500020980835 -0.557699978351593
v -0.024899989366531372 -1.0140000581741333 -0.6014999747276306
v 0.009999990463256836 -0.9705990552902222 0.2824000120162964
v 0.05070000886917114 -1.1295000314712524 0.24120000004768372
v 0.13950002193450928 -0.9329999685287476 0.2599000036716461
v 0.20660001039505005 -0.9054000377655029 0.14309999346733093
v 0.1614999771118164 -0.721498966217041 0.1454000025987625
v 0.08619999885559082 -0.7496999502182007 0.2556999921798706
v 0.24790000915527344 -1.0377000570297241 -0.09369999915361404
v 0.2240999937057495 -0.8838000297546387 -0.09189999848604202
v 0.0842999815940857 -1.264299988746643 0.16099999845027924
v -0.009299993515014648 -0.9628000259399414 -0.38679999113082886
v 0.26010000705718994 -1.156000018119812 -0.09510000050067902
v -0.04469999670982361 -0.7862000465393066 0.2718999981880188
v -0.016499996185302734 -1.1016000509262085 -0.5385000109672546
v -0.085999995470047 -1.0621999502182007 -0.5030999779701233
v -0.04469999670982361 -0.7862000465393066 0.2718999981880188
v -0.14509999752044678 -0.8055000305175781 0.16539999842643738
v -0.08970001339912415 -0.9893989562988281 0.17749999463558197
v 0.009999990463256836 -0.9705990552902222 0.2824000120162964
v -0.04499998688697815 -1.145799994468689 0.15199999511241913
v -0.009700000286102295 -1.260699987411499 0.09529999643564224
v 0.0842999815940857 -1.264299988746643 0.16099999845027924
v 0.05070000886917114 -1.1295000314712524 0.24120000004768372
v -0.0070999860763549805 -1.2900999784469604 -0.09860000014305115
v 0.08670002222061157 -1.3079999685287476 -0.10409999638795853
v 0.0680999755859375 -1.251999020576477 -0.329800009727478
v -0.028499990701675415 -1.2511999607086182 -0.2752000093460083
v 0.028500020503997803 -1.1029000282287598 -0.383899986743927
v -0.06560000777244568 -1.1275999546051025 -0.3197000026702881
v -0.11169999837875366 -0.9772989749908447 -0.3571000099182129
v -0.009299993515014648 -0.9628000259399414 -0.38679999113082886
v -0.12189999222755432 -0.9354000091552734 -0.4438000023365021
v -0.08140000700950623 -1.1404000520706177 -0.09179999679327011
v -0.12529999017715454 -0.9816000461578369 -0.08889999985694885
v -0.03510001301765442 -1.256100058555603 -0.09399999678134918
v -0.07969999313354492 -0.7405990362167358 -0.4715999960899353
v -0.16819998621940613 -0.774399995803833 -0.3334999978542328
v 0.08670002222061157 -1.3079999685287476 -0.10409999638795853
v -0.016499996185302734 -1.1016000509262085 -0.5385000109672546
v 0.061399996280670166 -0.7017999887466431 -0.483599990606308
v 0.14829999208450317 -0.847100019454956 -0.45170000195503235
v -0.012199997901916504 -1.0820000171661377 -0.3903999924659729
v -0.18050000071525574 -0.7967000007629395 -0.0697999969124794
v -0.19089999794960022 -0.29110002517700195 0.2815999984741211
v -0.02950000762939453 -0.2409989833831787 0.27469998598098755
v -0.04730001091957092 -0.1933000087738037 -0.33399999141693115
v -0.2127000093460083 -0.2444000244140625 -0.3287000060081482
v -0.3393000066280365 -0.2913990020751953 -0.2361000031232834
v -0.3611000180244446 -0.3155990242958069 -0.03500000014901161
v 0.07520002126693726 -0.20029997825622559 0.17640000581741333
v 0.10979998111724854 -0.17100000381469727 -0.03750000149011612
v 0.03420001268386841 -0.5499000549316406 0.19300000369548798
v 0.11430001258850098 -0.5209989547729492 0.1088000014424324
v 0.07520002126693726 -0.20029997825622559 0.17640000581741333
v 0.01910001039505005 -0.5095000267028809 -0.32120001316070557
v 0.06330001354217529 -0.16829997301101685 -0.2321999967098236
v 0.10420000553131104 -0.49379897117614746 -0.23849999904632568
v 0.14300000667572021 -0.49790000915527344 -0.06960000097751617
v 0.10420000553131104 -0.49379897117614746 -0.23849999904632568
v 0.06330001354217529 -0.16829997301101685 -0.2321999967098236
v -0.32359999418258667 -0.32349902391433716 0.1867000013589859
v -0.2014000117778778 -0.6071000099182129 0.120899997651577
v -0.09549999237060547 -0.5853999853134155 0.1995999962091446
v -0.11700001358985901 -0.5464999675750732 -0.3181999921798706
v -0.21729999780654907 -0.5800000429153442 -0.24320000410079956
v -0.3393000066280365 -0.2913990020751953 -0.2361000031232834
v -0.32359999418258667 -0.32349902391433716 0.1867000013589859
v -0.23320001363754272 -0.599498987197876 -0.066600002348423
v -0.2014000117778778 -0.6071000099182129 0.120899997651577
v -0.21729999780654907 -0.5800000429153442 -0.24320000410079956
v 0.11430001258850098 -0.5209989547729492 0.1088000014424324
v 0.11430001258850098 -0.5209989547729492 0.1088000014424324
v 0.03420001268386841 -0.5499000549316406 0.19300000369548798
v 0.01910001039505005 -0.5095000267028809 -0.32120001316070557
v 0.10420000553131104 -0.49379897117614746 -0.23849999904632568
v 0.14300000667572021 -0.49790000915527344 -0.06960000097751617
v 0.18269997835159302 -0.6986000537872314 -0.07329999655485153
v -0.2014000117778778 -0.6071000099182129 0.120899997651577
v -0.09549999237060547 -0.5853999853134155 0.1995999962091446
v -0.21729999780654907 -0.5800000429153442 -0.24320000410079956
v -0.11700001358985901 -0.5464999675750732 -0.3181999921798706
v -0.23320001363754272 -0.599498987197876 -0.066600002348423
v -0.09549999237060547 -0.5853999853134155 0.1995999962091446
v -0.5644919872283936 0.9052519798278809 -0.00800000037997961
v -0.5378379821777344 0.8636109828948975 -0.18889999389648438
v -0.6630380153656006 0.7597079873085022 -0.13510000705718994
v -0.7069910168647766 0.7715200185775757 -0.00800000037997961
v -0.16484400629997253 0.8355000019073486 -0.010099999606609344
v -0.20596098899841309 0.8157539963722229 0.21639999747276306
v -0.20596098899841309 0.8157539963722229 0.21639999747276306
v -0.3654550015926361 0.7438369989395142 0.28940001130104065
v -0.5161409974098206 0.6822869777679443 0.32249999046325684
v -0.6767740249633789 0.6015269756317139 0.23669999837875366
v -0.6767740249633789 0.6015269756317139 0.23669999837875366
v -0.7305859923362732 0.5837590098381042 -0.010099999606609344
v -0.6767740249633789 0.6015269756317139 -0.249099999666214
v -0.6767740249633789 0.6015269756317139 -0.249099999666214
v -0.517920970916748 0.6833029985427856 -0.32260000705718994
v -0.36262601613998413 0.7422339916229248 -0.30880001187324524
v -0.205718994140625 0.8158140182495117 -0.2282000035047531
v -0.205718994140625 0.8158140182495117 -0.2282000035047531
v -0.16484400629997253 0.8355000019073486 -0.010099999606609344
v -0.3591430187225342 0.9337539672851562 -0.00800000037997961
v -0.3591650128364563 0.8915170431137085 0.15289999544620514
v -0.20596098899841309 0.8157539963722229 0.21639999747276306
v -0.5387110114097595 0.8632529973983765 0.1785999983549118
v -0.3654550015926361 0.7438369989395142 0.28940001130104065
v -0.5161409974098206 0.6822869777679443 0.32249999046325684
v -0.6630380153656006 0.7597079873085022 0.12330000102519989
v -0.6767740249633789 0.6015269756317139 0.23669999837875366
v -0.7305859923362732 0.5837590098381042 -0.010099999606609344
v -0.6767740249633789 0.6015269756317139 -0.249099999666214
v -0.517920970916748 0.6833029985427856 -0.32260000705718994
v -0.36262601613998413 0.7422339916229248 -0.30880001187324524
v -0.3591650128364563 0.8915170431137085 -0.16429999470710754
v -0.205718994140625 0.8158140182495117 -0.2282000035047531

vn -0.47391200065612793 -0.4544129967689514 -0.8276020288467407
vn -0.6068530082702637 -0.11479300260543823 -0.8570640087127686
vn 0.5055789947509766 0.04022400081157684 -0.9267039895057678
vn 0.4745520055294037 -0.32217100262641907 -0.8871380090713501
vn -0.9566019773483276 -0.4475579857826233 0.02474999986588955
vn -1.0044389963150024 -0.28739500045776367 0.15657399594783783
vn -0.377238005399704 -0.29237300157546997 0.9424530267715454
vn -0.45068201422691345 -0.2765029966831207 0.9145709872245789
vn 0.5542240142822266 -0.16196300089359283 0.8846529722213745
vn 0.6164090037345886 -0.12731300294399261 0.8484330177307129
vn 1.037951946258545 -0.16939300298690796 -0.09984699636697769
vn 1.0560239553451538 -0.0001230000052601099 0.028663000091910362
vn 0.4745520055294037 -0.32217100262641907 -0.8871380090713501
vn 0.5055789947509766 0.04022400081157684 -0.9267039895057678
vn 0.4669699966907501 -0.7774270176887512 -0.5418059825897217
vn 0.1526779979467392 -1.0373270511627197 0.12903699278831482
vn -0.2996230125427246 -0.8843240141868591 -0.49417001008987427
vn -0.6994060277938843 -0.7681139707565308 0.19193699955940247
vn -0.2891539931297302 -0.5318729877471924 0.865742027759552
vn 0.5238950252532959 -0.418597012758255 0.8162829875946045
vn 0.9001410007476807 -0.5451549887657166 0.0925230011343956
vn 0.4669699966907501 -0.7774270176887512 -0.5418059825897217
vn -0.2996230125427246 -0.8843240141868591 -0.49417001008987427
vn 0.4669699966907501 -0.7774270176887512 -0.5418059825897217
vn 0.9001410007476807 -0.5451549887657166 0.0925230011343956
vn 0.5238950252532959 -0.418597012758255 0.8162829875946045
vn -0.2891539931297302 -0.5318729877471924 0.865742027759552
vn -0.6994060277938843 -0.7681139707565308 0.19193699955940247
vn 0.7898150086402893 -0.609188973903656 0.34797799587249756
vn 0.7472059726715088 -0.4491119980812073 -0.5966479778289795
vn 0.8452330231666565 -0.09777700155973434 -0.626121997833252
vn 0.8955420255661011 -0.2858409881591797 0.4819819927215576
vn -0.16507300734519958 0.050074998289346695 -1.042233943939209
vn -0.0681459978222847 -0.1398009955883026 -1.044901967048645
vn -0.9304819703102112 0.04603299871087074 -0.4980889856815338
vn -0.9639670252799988 0.014906000345945358 -0.4319179952144623
vn -0.8823220133781433 -0.13476400077342987 0.5651149749755859
vn -0.9218810200691223 -0.14212599396705627 0.49592700600624084
vn 0.02291800081729889 -0.477526992559433 0.9420459866523743
vn -0.07197300344705582 -0.29822900891304016 1.0108840465545654
vn 0.7898150086402893 -0.609188973903656 0.34797799587249756
vn 0.8955420255661011 -0.2858409881591797 0.4819819927215576
vn 0.3676060140132904 -0.9675520062446594 0.21146400272846222
vn -0.3267900049686432 -0.9925749897956848 -0.1549540013074875
vn 0.3321479856967926 -0.8379459977149963 -0.5509359836578369
vn -0.30316001176834106 -0.4823650121688843 -0.8896210193634033
vn -0.9381489753723145 -0.2502950131893158 -0.41621699929237366
vn -0.900206983089447 -0.3881889879703522 0.3936310112476349
vn -0.23006699979305267 -0.7548220157623291 0.7023670077323914
vn 0.3676060140132904 -0.9675520062446594 0.21146400272846222
vn 0.3321479856967926 -0.8379459977149963 -0.5509359836578369
vn -0.23006699979305267 -0.7548220157623291 0.7023670077323914
vn 0.3676060140132904 -0.9675520062446594 0.21146400272846222
vn -0.900206983089447 -0.3881889879703522 0.3936310112476349
vn -0.9381489753723145 -0.2502950131893158 -0.41621699929237366
vn -0.30316001176834106 -0.4823650121688843 -0.8896210193634033
vn 0.8099669814109802 -0.5128669738769531 0.4437670111656189
vn 0.7192280292510986 -0.583200991153717 -0.5085229873657227
vn 0.8135910034179688 -0.24977700412273407 -0.6258509755134583
vn 0.920295000076294 -0.16730399429798126 0.4909929931163788
vn -0.11879300326108932 -0.3855060040950775 -0.9763609766960144
vn -0.21764999628067017 -0.19965800642967224 -1.0142849683761597
vn -0.9544849991798401 -0.06923999637365341 -0.44740501046180725
vn -0.9844719767570496 -0.08222299814224243 -0.3742479979991913
vn -0.8519920110702515 0.010095000267028809 0.6245120167732239
vn -0.8949480056762695 -0.013411000370979309 0.5611550211906433
vn 0.0725800022482872 -0.23744699358940125 1.0268199443817139
vn -0.018825000151991844 -0.04688600078225136 1.0552040338516235
vn 0.920295000076294 -0.16730399429798126 0.4909929931163788
vn 0.8099669814109802 -0.5128669738769531 0.4437670111656189
vn 0.38198599219322205 -0.8912990093231201 0.41914400458335876
vn -0.3283880054950714 -0.9985830187797546 0.10488799959421158
vn 0.31027498841285706 -0.9474570155143738 -0.34937500953674316
vn -0.3453809916973114 -0.6800569891929626 -0.7309179902076721
vn -0.9563189744949341 -0.3366059958934784 -0.2969140112400055
vn -0.8785240054130554 -0.27656298875808716 0.517412006855011
vn -0.1923850029706955 -0.5609989762306213 0.8742290139198303
vn 0.38198599219322205 -0.8912990093231201 0.41914400458335876
vn 0.31027498841285706 -0.9474570155143738 -0.34937500953674316
vn 0.38198599219322205 -0.8912990093231201 0.41914400458335876
vn -0.1923850029706955 -0.5609989762306213 0.8742290139198303
vn -0.8785240054130554 -0.27656298875808716 0.517412006855011
vn -0.9563189744949341 -0.3366059958934784 -0.2969140112400055
vn -0.3453809916973114 -0.6800569891929626 -0.7309179902076721
vn 0.342509001493454 0.13098199665546417 0.9907259941101074
vn 0.8450649976730347 0.31301701068878174 0.5512650012969971
vn 0.8553990125656128 0.2267030030488968 0.5769810080528259
vn 0.34173500537872314 0.07888299971818924 0.9964950084686279
vn -0.6761389970779419 -0.4874190092086792 -0.6490510106086731
vn -0.11821600049734116 -0.15418000519275665 -1.0383939743041992
vn -0.16983099281787872 -0.2586269974708557 -1.0100879669189453
vn -0.7403320074081421 -0.5121700167655945 -0.55281001329422
vn -0.766975998878479 -0.4628809988498688 0.5599070191383362
vn -0.2567029893398285 -0.20106300711631775 1.0048309564590454
vn -0.1316169947385788 -0.12489599734544754 1.0407140254974365
vn -0.6875690221786499 -0.49015000462532043 0.6348299980163574
vn 0.3371819853782654 0.08553700149059296 0.997497022151947
vn 0.3814319968223572 0.011442000046372414 0.9850819706916809
vn 0.8630279898643494 0.03223000094294548 0.6083999872207642
vn 0.826882004737854 0.16367000341415405 0.6367779970169067
vn -0.2977760136127472 -0.11683899909257889 1.0068199634552002
vn -0.281372994184494 -0.08682399988174438 1.0145440101623535
vn 0.8824679851531982 -0.00817199982702732 -0.5806819796562195
vn 0.8391879796981812 0.11991500109434128 -0.630391001701355
vn 1.028978943824768 0.23895199596881866 -0.010603000409901142
vn 1.0555009841918945 0.043758999556303024 0.0033100000582635403
vn -0.7403320074081421 -0.5121700167655945 -0.55281001329422
vn -0.9177889823913574 -0.5230510234832764 0.00941300019621849
vn -0.8691319823265076 -0.6004490256309509 -0.008860999718308449
vn -0.6761389970779419 -0.4874190092086792 -0.6490510106086731
vn -0.8857030272483826 -0.23532000184059143 0.5255110263824463
vn -0.8597790002822876 -0.2445089966058731 0.563031017780304
vn -1.0224720239639282 -0.26561298966407776 -0.0029180001001805067
vn -1.0252959728240967 -0.25449100136756897 -0.003019999945536256
vn -0.8806869983673096 -0.20449599623680115 -0.5464249849319458
vn -0.894698977470398 -0.16597899794578552 -0.5366299748420715
vn 0.3383359909057617 -0.005956000182777643 -1.000749945640564
vn 0.8391879796981812 0.11991500109434128 -0.630391001701355
vn 0.8824679851531982 -0.00817199982702732 -0.5806819796562195
vn 0.4087890088558197 -0.06194400042295456 -0.9721429944038391
vn -0.766975998878479 -0.4628809988498688 0.5599070191383362
vn -0.6875690221786499 -0.49015000462532043 0.6348299980163574
vn 0.8630279898643494 0.03223000094294548 0.6083999872207642
vn 0.826882004737854 0.16367000341415405 0.6367779970169067
vn -0.8597790002822876 -0.2445089966058731 0.563031017780304
vn -0.8857030272483826 -0.23532000184059143 0.5255110263824463
vn 1.020321011543274 0.27349600195884705 -0.012346000410616398
vn 0.9852700233459473 0.3809199929237366 -0.012292000465095043
vn 0.8203690052032471 0.39472800493240356 -0.5359039902687073
vn 0.8585429787635803 0.27851900458335876 -0.5489439964294434
vn 0.8553990125656128 0.2267030030488968 0.5769810080528259
vn 0.8450649976730347 0.31301701068878174 0.5512650012969971
vn -0.3580560088157654 0.03840800002217293 -0.9931409955024719
vn -0.3035449981689453 -0.0481100007891655 -1.0107200145721436
vn 0.33436599373817444 0.16839200258255005 -0.9878519773483276
vn 0.2872839868068695 0.2706649899482727 -0.9799060225486755
vn 0.8585429787635803 0.27851900458335876 -0.5489439964294434
vn 0.8203690052032471 0.39472800493240356 -0.5359039902687073
vn -0.894698977470398 -0.16597899794578552 -0.5366299748420715
vn -0.8806869983673096 -0.20449599623680115 -0.5464249849319458
vn 0.43878400325775146 -0.06473500281572342 -0.9587939977645874
vn 1.0167269706726074 -0.15670600533485413 -0.24024300277233124
vn 0.5845630168914795 -0.788004994392395 -0.3915889859199524
vn 0.5803620219230652 -0.5829979777336121 -0.6627990007400513
vn 0.0017509999452158809 -0.7767260074615479 -0.7160320281982422
vn -0.1675570011138916 -0.2780590057373047 -1.0052939653396606
vn 0.4758189916610718 -0.11337999999523163 -0.9363489747047424
vn 1.0039620399475098 0.05905099958181381 0.3233889937400818
vn 0.6361269950866699 -0.20191699266433716 0.8188890218734741
vn 0.6581540107727051 -0.6379380226135254 0.5252400040626526
vn 0.9841809868812561 -0.30325600504875183 0.2354390025138855
vn 0.5940809845924377 -0.8713780045509338 -0.06144699826836586
vn 0.9366859793663025 -0.4853219985961914 -0.0555960014462471
vn 0.9636420011520386 -0.2743090093135834 -0.33489900827407837
vn 1.005579948425293 -0.07846699655056 -0.3141019940376282
vn 0.9233090281486511 0.15414799749851227 -0.489639014005661
vn 0.9683690071105957 0.056060999631881714 -0.4184809923171997
vn 0.9601989984512329 0.31010299921035767 -0.31283000111579895
vn -0.061487000435590744 -0.7972000241279602 0.6904339790344238
vn 0.6516680121421814 -0.5999040007591248 0.5757179856300354
vn 1.005579948425293 -0.07846699655056 -0.3141019940376282
vn 0.061438001692295074 -1.0483800172805786 0.11459500342607498
vn -0.061487000435590744 -0.7972000241279602 0.6904339790344238
vn -0.5854489803314209 0.28275400400161743 -0.8326510190963745
vn 0.38853099942207336 0.45161399245262146 -0.8724079728126526
vn -0.419046014547348 -0.20033900439739227 -0.9488270282745361
vn -0.2754040062427521 -0.17636699974536896 1.0045169591903687
vn -0.1773660033941269 -0.43180400133132935 0.9476789832115173
vn 0.5830960273742676 0.03988799825310707 0.8800089955329895
vn 0.9820039868354797 0.18211400508880615 0.3442539870738983
vn 0.9324179887771606 0.28870001435279846 0.40404999256134033
vn 0.45746099948883057 0.2804130017757416 0.9100030064582825
vn 1.047361969947815 0.13584500551223755 -0.02420699968934059
vn 1.0366519689559937 0.203358992934227 -0.002355000004172325
vn -0.0018660000059753656 -0.8498160243034363 0.6275479793548584
vn 0.061438001692295074 -1.0483800172805786 0.11459500342607498
vn 1.055596947669983 -0.024535000324249268 -0.03348200023174286
vn -0.36875998973846436 0.06791099905967712 0.9876300096511841
vn -0.1513569951057434 -0.9675610065460205 -0.3961380124092102
vn -0.8579570055007935 -0.5700809955596924 -0.23436300456523895
vn -0.36875998973846436 0.06791099905967712 0.9876300096511841
vn -0.9246159791946411 -0.20235000550746918 0.46919798851013184
vn -0.9014649987220764 -0.28686100244522095 0.47018998861312866
vn -0.2754040062427521 -0.17636699974536896 1.0045169591903687
vn -0.8392379879951477 -0.42082399129867554 0.4843499958515167
vn -0.6383839845657349 -0.7656310200691223 0.3496899902820587
vn -0.0018660000059753656 -0.8498160243034363 0.6275479793548584
vn -0.1773660033941269 -0.43180400133132935 0.9476789832115173
vn -0.5058839917182922 -0.9273290038108826 -0.012272000312805176
vn 0.10862299799919128 -1.0496079921722412 -0.05032600089907646
vn 0.0017509999452158809 -0.7767260074615479 -0.7160320281982422
vn -0.645117998123169 -0.7332069873809814 -0.4027880132198334
vn -0.1675570011138916 -0.2780590057373047 -1.0052939653396606
vn -0.8137239813804626 -0.41100600361824036 -0.5337929725646973
vn -0.9744279980659485 -0.40099000930786133 -0.07552800327539444
vn 0.061438001692295074 -1.0483800172805786 0.11459500342607498
vn -1.0018670558929443 -0.10187199711799622 -0.31920599937438965
vn -1.0017199516296387 -0.3335860073566437 0.035847000777721405
vn -1.0138700008392334 -0.2944279909133911 0.03724300116300583
vn -0.9098449945449829 -0.5358669757843018 0.03220300003886223
vn -0.6003159880638123 0.385560005903244 -0.7790840268135071
vn -1.003911018371582 -0.10858199745416641 -0.31045201420783997
vn 0.10862299799919128 -1.0496079921722412 -0.05032600089907646
vn -0.1513569951057434 -0.9675610065460205 -0.3961380124092102
vn 0.3497070074081421 0.5971580147743225 -0.7981950044631958
vn 1.0238540172576904 0.139055997133255 -0.21998600661754608
vn -0.061487000435590744 -0.7972000241279602 0.6904339790344238
vn -1.0180749893188477 -0.27955400943756104 0.03715699911117554
vn -0.2219270020723343 -0.2517260015010834 1.0016939640045166
vn 0.4289500117301941 -0.056233000010252 0.9637669920921326
vn 0.35124900937080383 0.1124500036239624 -0.9899430274963379
vn -0.3118169903755188 -0.08378300070762634 -1.0058619976043701
vn -0.8386319875717163 -0.3061229884624481 -0.5647940039634705
vn -0.9717919826507568 -0.41427600383758545 -0.0018240000354126096
vn 0.9158880114555359 0.1147880032658577 0.513791024684906
vn 1.0364209413528442 0.20327100157737732 -0.02279300056397915
vn 0.4566360116004944 0.11372700333595276 0.9458109736442566
vn 0.9417319893836975 0.14978399872779846 0.45465800166130066
vn 0.9158880114555359 0.1147880032658577 0.513791024684906
vn 0.31032899022102356 0.40605399012565613 -0.9245669841766357
vn 0.8862029910087585 0.21567699313163757 -0.5330439805984497
vn 0.9182829856872559 0.2688809931278229 -0.4477350115776062
vn 1.0440759658813477 0.15827199816703796 -0.029379000887274742
vn 0.9182829856872559 0.2688809931278229 -0.4477350115776062
vn 0.8862029910087585 0.21567699313163757 -0.5330439805984497
vn -0.7982540130615234 -0.4120680093765259 0.5558760166168213
vn -0.8840889930725098 -0.3033289909362793 0.4923279881477356
vn -0.3109009861946106 -0.04426199942827225 1.0086569786071777
vn -0.41449999809265137 0.2326270043849945 -0.9434419870376587
vn -0.931119978427887 -0.18386699259281158 -0.46391400694847107
vn -0.8386319875717163 -0.3061229884624481 -0.5647940039634705
vn -0.7982540130615234 -0.4120680093765259 0.5558760166168213
vn -0.9948869943618774 -0.35514700412750244 0.008853999897837639
vn -0.8840889930725098 -0.3033289909362793 0.4923279881477356
vn -0.931119978427887 -0.18386699259281158 -0.46391400694847107
vn 0.9417319893836975 0.14978399872779846 0.45465800166130066
vn 0.9417319893836975 0.14978399872779846 0.45465800166130066
vn 0.4566360116004944 0.11372700333595276 0.9458109736442566
vn 0.31032899022102356 0.40605399012565613 -0.9245669841766357
vn 0.9182829856872559 0.2688809931278229 -0.4477350115776062
vn 1.0440759658813477 0.15827199816703796 -0.029379000887274742
vn 1.028573989868164 0.2407429963350296 0.009332999587059021
vn -0.8840889930725098 -0.3033289909362793 0.4923279881477356
vn -0.3109009861946106 -0.04426199942827225 1.0086569786071777
vn -0.931119978427887 -0.18386699259281158 -0.46391400694847107
vn -0.41449999809265137 0.2326270043849945 -0.9434419870376587
vn -0.9948869943618774 -0.35514700412750244 0.008853999897837639
vn -0.3109009861946106 -0.04426199942827225 1.0086569786071777
vn -0.4657430052757263 0.9481850266456604 -0.005987999960780144
vn -0.3992210030555725 0.7977529764175415 -0.5658800005912781
vn -0.8316860198974609 0.4879390001296997 -0.4315339922904968
vn -0.9477149844169617 0.4667220115661621 -0.003674000035971403
vn 0.7552300095558167 0.738660991191864 -0.0038950000889599323
vn 0.5566099882125854 0.6540650129318237 0.6151350140571594
vn 0.5566099882125854 0.6540650129318237 0.6151350140571594
vn 0.12251900136470795 0.45491600036621094 0.9455410242080688
vn -0.2850559949874878 0.286873996257782 0.9759380221366882
vn -0.8570430278778076 -0.035805001854896545 0.6166059970855713
vn -0.8570430278778076 -0.035805001854896545 0.6166059970855713
vn -1.035006046295166 -0.2115360051393509 -0.004770999774336815
vn -0.8399350047111511 -0.030243000015616417 -0.6400020122528076
vn -0.8399350047111511 -0.030243000015616417 -0.6400020122528076
vn -0.30737900733947754 0.2699509859085083 -0.9739879965782166
vn 0.09091600030660629 0.4244070053100586 -0.9631310105323792
vn 0.5658310055732727 0.6573669910430908 -0.6030849814414978
vn 0.5658310055732727 0.6573669910430908 -0.6030849814414978
vn 0.7552300095558167 0.738660991191864 -0.0038950000889599323
vn 0.16806599497795105 1.0429450273513794 -0.00532899983227253
vn 0.12151599675416946 0.9307100176811218 0.48478901386260986
vn 0.5566099882125854 0.6540650129318237 0.6151350140571594
vn -0.3952440023422241 0.8012199997901917 0.5637710094451904
vn 0.12251900136470795 0.45491600036621094 0.9455410242080688
vn -0.2850559949874878 0.286873996257782 0.9759380221366882
vn -0.8393449783325195 0.486752986907959 0.4178270101547241
vn -0.8570430278778076 -0.035805001854896545 0.6166059970855713
vn -1.035006046295166 -0.2115360051393509 -0.004770999774336815
vn -0.8399350047111511 -0.030243000015616417 -0.6400020122528076
vn -0.30737900733947754 0.2699509859085083 -0.9739879965782166
vn 0.09091600030660629 0.4244070053100586 -0.9631310105323792
vn 0.11903499811887741 0.9413930177688599 -0.4643470048904419
vn 0.5658310055732727 0.6573669910430908 -0.6030849814414978

vt 0.2054000049829483 0.9611999988555908
vt 0.2054000049829483 0.9962999999988824
vt 0.2020999938249588 0.9962999999988824
vt 0.2020999938249588 0.9611999988555908
vt 0.2085999995470047 0.9611999988555908
vt 0.2085999995470047 0.9962999999988824
vt 0.211899995803833 0.9962999999988824
vt 0.211899995803833 0.9611999988555908
vt 0.2151000052690506 0.9962999999988824
vt 0.2151000052690506 0.9611999988555908
vt 0.2184000015258789 0.9611999988555908
vt 0.2184000015258789 0.9962999999988824
vt 0.2215999960899353 0.9611999988555908
vt 0.2215999960899353 0.9962999999988824
vt 0.21799999475479126 0.8879999965429306
vt 0.211899995803833 0.9109999984502792
vt 0.20579999685287476 0.8879999965429306
vt 0.1996999979019165 0.9099999964237213
vt 0.20579999685287476 0.931999996304512
vt 0.21799999475479126 0.931999996304512
vt 0.2240999937057495 0.9099999964237213
vt 0.2020999938249588 0.935199998319149
vt 0.2054000049829483 0.935199998319149
vt 0.2215999960899353 0.935199998319149
vt 0.2184000015258789 0.935199998319149
vt 0.2151000052690506 0.935199998319149
vt 0.211899995803833 0.935199998319149
vt 0.2085999995470047 0.935199998319149
vt 0.2020999938249588 0.8445000052452087
vt 0.2054000049829483 0.8445000052452087
vt 0.2054000049829483 0.87950000166893
vt 0.2020999938249588 0.87950000166893
vt 0.2085999995470047 0.87950000166893
vt 0.2085999995470047 0.8445000052452087
vt 0.211899995803833 0.8445000052452087
vt 0.211899995803833 0.87950000166893
vt 0.2151000052690506 0.8445000052452087
vt 0.2151000052690506 0.87950000166893
vt 0.2184000015258789 0.8445000052452087
vt 0.2184000015258789 0.87950000166893
vt 0.2215999960899353 0.8445000052452087
vt 0.2215999960899353 0.87950000166893
vt 0.21799999475479126 0.7713000029325485
vt 0.211899995803833 0.7942000031471252
vt 0.20579999685287476 0.7713000029325485
vt 0.1996999979019165 0.7932000011205673
vt 0.20579999685287476 0.815200001001358
vt 0.21799999475479126 0.815200001001358
vt 0.2240999937057495 0.7932000011205673
vt 0.2020999938249588 0.8183999955654144
vt 0.2054000049829483 0.8183999955654144
vt 0.2184000015258789 0.8183999955654144
vt 0.2215999960899353 0.8183999955654144
vt 0.2151000052690506 0.8183999955654144
vt 0.211899995803833 0.8183999955654144
vt 0.2085999995470047 0.8183999955654144
vt 0.2020999938249588 0.7276999950408936
vt 0.2054000049829483 0.7276999950408936
vt 0.2054000049829483 0.7627000063657761
vt 0.2020999938249588 0.7627000063657761
vt 0.2085999995470047 0.7276999950408936
vt 0.2085999995470047 0.7627000063657761
vt 0.211899995803833 0.7276999950408936
vt 0.211899995803833 0.7627000063657761
vt 0.2151000052690506 0.7276999950408936
vt 0.2151000052690506 0.7627000063657761
vt 0.2184000015258789 0.7276999950408936
vt 0.2184000015258789 0.7627000063657761
vt 0.2215999960899353 0.7627000063657761
vt 0.2215999960899353 0.7276999950408936
vt 0.21799999475479126 0.6543999910354614
vt 0.211899995803833 0.6773999929428101
vt 0.20579999685287476 0.6543999910354614
vt 0.1996999979019165 0.6764000058174133
vt 0.20579999685287476 0.6983999907970428
vt 0.21799999475479126 0.6983999907970428
vt 0.2240999937057495 0.6764000058174133
vt 0.2020999938249588 0.7015999853610992
vt 0.2054000049829483 0.7015999853610992
vt 0.2215999960899353 0.7015999853610992
vt 0.2184000015258789 0.7015999853610992
vt 0.2151000052690506 0.7015999853610992
vt 0.211899995803833 0.7015999853610992
vt 0.2085999995470047 0.7015999853610992
vt 0.26988300681114197 0.7874069958925247
vt 0.26919999718666077 0.7502049952745438
vt 0.2888000011444092 0.7502049952745438
vt 0.29143598675727844 0.7890470027923584
vt 0.33959999680519104 0.5001440048217773
vt 0.33965998888015747 0.5419139862060547
vt 0.32712501287460327 0.5387519896030426
vt 0.32850000262260437 0.5001440048217773
vt 0.3278999924659729 0.8748829960823059
vt 0.32707399129867554 0.8336890041828156
vt 0.3390370011329651 0.829475000500679
vt 0.3391000032424927 0.8748829960823059
vt 0.3394860029220581 0.7836820036172867
vt 0.3260500133037567 0.7896769940853119
vt 0.32710000872612 0.7502049952745438
vt 0.33970001339912415 0.7502049952745438
vt 0.29238298535346985 0.8289780020713806
vt 0.2702159881591797 0.8312830030918121
vt 0.3271999955177307 0.6249920129776001
vt 0.3400999903678894 0.6249920129776001
vt 0.3388819992542267 0.6846179962158203
vt 0.3241499960422516 0.6868210136890411
vt 0.32850000262260437 0.9986000000499189
vt 0.3247680068016052 0.934739001095295
vt 0.33587101101875305 0.9384469985961914
vt 0.33959999680519104 0.9986000000499189
vt 0.289900004863739 0.8748829960823059
vt 0.2694000005722046 0.8748829960823059
vt 0.2703329920768738 0.9394830018281937
vt 0.2915729880332947 0.9372349977493286
vt 0.287200003862381 0.9986000000499189
vt 0.2685999870300293 0.9986000000499189
vt 0.3397560119628906 0.587442010641098
vt 0.3400999903678894 0.6249920129776001
vt 0.3271999955177307 0.6249920129776001
vt 0.32599401473999023 0.5846709907054901
vt 0.3278999924659729 0.8748829960823059
vt 0.3391000032424927 0.8748829960823059
vt 0.32710000872612 0.7502049952745438
vt 0.33970001339912415 0.7502049952745438
vt 0.2694000005722046 0.8748829960823059
vt 0.289900004863739 0.8748829960823059
vt 0.28920501470565796 0.6842620074748993
vt 0.26983898878097534 0.6844690144062042
vt 0.26919999718666077 0.6249920129776001
vt 0.28769999742507935 0.6249920129776001
vt 0.2888000011444092 0.7502049952745438
vt 0.26919999718666077 0.7502049952745438
vt 0.27036699652671814 0.5431039929389954
vt 0.28989601135253906 0.5439650118350983
vt 0.2894020080566406 0.584877997636795
vt 0.2702459990978241 0.5869059860706329
vt 0.28769999742507935 0.6249920129776001
vt 0.26919999718666077 0.6249920129776001
vt 0.2685999870300293 0.5001440048217773
vt 0.287200003862381 0.5001440048217773
vt 0.7760999798774719 0.2989000082015991
vt 0.7781999707221985 0.2986999750137329
vt 0.7771000266075134 0.30239999294281006
vt 0.7836999893188477 0.3159000277519226
vt 0.7825000286102295 0.3245999813079834
vt 0.7817000150680542 0.31139999628067017
vt 0.7831000089645386 0.3065999746322632
vt 0.7961999773979187 0.30379998683929443
vt 0.7998999953269958 0.30570000410079956
vt 0.7979999780654907 0.31529998779296875
vt 0.7954999804496765 0.31150001287460327
vt 0.7901999950408936 0.319100022315979
vt 0.7904000282287598 0.31370002031326294
vt 0.7857999801635742 0.3116000294685364
vt 0.7815999984741211 0.29680001735687256
vt 0.7842000126838684 0.2940000295639038
vt 0.7854999899864197 0.304099977016449
vt 0.7825999855995178 0.2799000144004822
vt 0.7809000015258789 0.3076000213623047
vt 0.7796000242233276 0.3011999726295471
vt 0.7815999984741211 0.29680001735687256
vt 0.7814000248908997 0.2979000210762024
vt 0.7809000015258789 0.3076000213623047
vt 0.7724000215530396 0.2924000024795532
vt 0.7763000130653381 0.29089999198913574
vt 0.7731999754905701 0.30159997940063477
vt 0.8040000200271606 0.29729998111724854
vt 0.8040000200271606 0.3100000023841858
vt 0.7997999787330627 0.2944999933242798
vt 0.7961999773979187 0.2929999828338623
vt 0.7964000105857849 0.2791000008583069
vt 0.800000011920929 0.2802000045776367
vt 0.7904000282287598 0.30299997329711914
vt 0.7900999784469604 0.2924000024795532
vt 0.7996000051498413 0.32359999418258667
vt 0.7814000248908997 0.2979000210762024
vt 0.7904000282287598 0.310699999332428
vt 0.8040000200271606 0.28140002489089966
vt 0.7717999815940857 0.3111000061035156
vt 0.7699000239372253 0.3051999807357788
vt 0.7426000237464905 0.28140002489089966
vt 0.7476000189781189 0.281000018119812
vt 0.7476000189781189 0.29659998416900635
vt 0.7426000237464905 0.29729998111724854
vt 0.7477999925613403 0.30879998207092285
vt 0.7508000135421753 0.3181999921798706
vt 0.7476000189781189 0.32359999418258667
vt 0.7426000237464905 0.3100000023841858
vt 0.7560999989509583 0.32120001316070557
vt 0.7560999989509583 0.3288000226020813
vt 0.7627000212669373 0.3245999813079834
vt 0.7599999904632568 0.31870001554489136
vt 0.7656000256538391 0.31139999628067017
vt 0.7623999714851379 0.31040000915527344
vt 0.7652000188827515 0.301800012588501
vt 0.7657999992370605 0.3101999759674072
vt 0.7681999802589417 0.29750001430511475
vt 0.7560999989509583 0.3090999722480774
vt 0.7563999891281128 0.296999990940094
vt 0.7560999989509583 0.3180999755859375
vt 0.7718999981880188 0.28359997272491455
vt 0.7663000226020813 0.2825999855995178
vt 0.7896999716758728 0.3288000226020813
vt 0.7753999829292297 0.3105999827384949
vt 0.7768999934196472 0.28280001878738403
vt 0.7796000242233276 0.2924000024795532
vt 0.7664999961853027 0.30879998207092285
vt 0.756600022315979 0.2809000015258789
vt 0.2522839903831482 0.8309119939804077
vt 0.25241899490356445 0.7877089977264404
vt 0.25176799297332764 0.5873610079288483
vt 0.2510339915752411 0.542930006980896
vt 0.24959999322891235 0.9986000000499189
vt 0.2510389983654022 0.9395609982311726
vt 0.2524000108242035 0.7502049952745438
vt 0.2521530091762543 0.6863549947738647
vt 0.22789999842643738 0.7889630049467087
vt 0.22789999842643738 0.7502049952745438
vt 0.2524000108242035 0.7502049952745438
vt 0.22789999842643738 0.5880999863147736
vt 0.25189998745918274 0.6249920129776001
vt 0.22789999842643738 0.6249920129776001
vt 0.22789999842643738 0.6891629993915558
vt 0.22789999842643738 0.6249920129776001
vt 0.25189998745918274 0.6249920129776001
vt 0.25200000405311584 0.8748829960823059
vt 0.22789999842643738 0.8748829960823059
vt 0.22789999842643738 0.8332629948854446
vt 0.22789999842643738 0.5392000079154968
vt 0.22789999842643738 0.5001440048217773
vt 0.24959999322891235 0.5001440048217773
vt 0.25200000405311584 0.8748829960823059
vt 0.22789999842643738 0.9422629997134209
vt 0.22789999842643738 0.8748829960823059
vt 0.22789999842643738 0.9986000000499189
vt 0.22789999842643738 0.7502049952745438
vt 0.7965999841690063 0.2634999752044678
vt 0.7997000217437744 0.2634999752044678
vt 0.7771999835968018 0.2634999752044678
vt 0.7827000021934509 0.2634999752044678
vt 0.7896000146865845 0.2634999752044678
vt 0.7896000146865845 0.2785000205039978
vt 0.7472000122070312 0.2634999752044678
vt 0.7426000237464905 0.2634999752044678
vt 0.7663000226020813 0.2634999752044678
vt 0.7724000215530396 0.2634999752044678
vt 0.7562000155448914 0.2634999752044678
vt 0.8040000200271606 0.2634999752044678
vt 0.9139270186424255 0.2966820001602173
vt 0.9280239939689636 0.29621201753616333
vt 0.9256740212440491 0.32356101274490356
vt 0.913877010345459 0.3253290057182312
vt 0.3513000011444092 0.6843999922275543
vt 0.3513000011444092 0.7502049952745438
vt 0.3513000011444092 0.7502049952745438
vt 0.3513000011444092 0.7860140055418015
vt 0.3513000011444092 0.8297140002250671
vt 0.3513000011444092 0.8748829960823059
vt 0.3513000011444092 0.8748829960823059
vt 0.3513000011444092 0.938000001013279
vt 0.3513000011444092 0.9986000000499189
vt 0.3513000011444092 0.5001440048217773
vt 0.3513000011444092 0.5421600043773651
vt 0.3513000011444092 0.5852600038051605
vt 0.3513000011444092 0.6249920129776001
vt 0.3513000011444092 0.6249920129776001
vt 0.9136859774589539 0.23737001419067383
vt 0.9138979911804199 0.2689080238342285
vt 0.8988699913024902 0.268917977809906
vt 0.8841919898986816 0.23737001419067383
vt 0.8996080160140991 0.29664701223373413
vt 0.8841919898986816 0.2853890061378479
vt 0.8841919898986816 0.3059989809989929
vt 0.9019349813461304 0.3239060044288635
vt 0.8841919898986816 0.3564299941062927
vt 0.9136859774589539 0.3564299941062927
vt 0.9441199898719788 0.3564299941062927
vt 0.9441199898719788 0.3059989809989929
vt 0.9441199898719788 0.2853890061378479
vt 0.9287670254707336 0.2687770128250122
vt 0.9441199898719788 0.23737001419067383

usemtl Material

f 1/1/1 2/2/2 3/3/3
f 3/3/3 4/4/4 1/1/1
f 1/1/1 5/5/5 6/6/6
f 6/6/6 2/2/2 1/1/1
f 7/7/7 6/6/6 5/5/5
f 5/5/5 8/8/8 7/7/7
f 9/9/9 7/7/7 8/8/8
f 8/8/8 10/10/10 9/9/9
f 11/11/11 12/12/12 9/9/9
f 9/9/9 10/10/10 11/11/11
f 11/11/11 13/13/13 14/14/14
f 14/14/14 12/12/12 11/11/11
f 15/15/15 16/16/16 17/17/17
f 17/17/17 16/16/16 18/18/18
f 18/18/18 16/16/16 19/19/19
f 19/19/19 16/16/16 20/20/20
f 20/20/20 16/16/16 21/21/21
f 21/21/21 16/16/16 15/15/15
f 22/22/22 23/23/23 1/1/1
f 1/1/1 4/4/4 22/22/22
f 24/24/24 13/13/13 11/11/11
f 11/11/11 25/25/25 24/24/24
f 11/11/11 10/10/10 26/26/26
f 26/26/26 25/25/25 11/11/11
f 27/27/27 26/26/26 10/10/10
f 10/10/10 8/8/8 27/27/27
f 28/28/28 27/27/27 8/8/8
f 8/8/8 5/5/5 28/28/28
f 1/1/1 23/23/23 28/28/28
f 28/28/28 5/5/5 1/1/1
f 29/29/29 30/30/30 31/31/31
f 31/31/31 32/32/32 29/29/29
f 33/33/33 31/31/31 30/30/30
f 30/30/30 34/34/34 33/33/33
f 34/34/34 35/35/35 36/36/36
f 36/36/36 33/33/33 34/34/34
f 35/35/35 37/37/37 38/38/38
f 38/38/38 36/36/36 35/35/35
f 37/37/37 39/39/39 40/40/40
f 40/40/40 38/38/38 37/37/37
f 39/39/39 41/41/41 42/42/42
f 42/42/42 40/40/40 39/39/39
f 43/43/43 44/44/44 45/45/45
f 45/45/45 44/44/44 46/46/46
f 46/46/46 44/44/44 47/47/47
f 47/47/47 44/44/44 48/48/48
f 48/48/48 44/44/44 49/49/49
f 49/49/49 44/44/44 43/43/43
f 30/30/30 29/29/29 50/50/50
f 50/50/50 51/51/51 30/30/30
f 39/39/39 52/52/52 53/53/53
f 53/53/53 41/41/41 39/39/39
f 37/37/37 54/54/54 52/52/52
f 52/52/52 39/39/39 37/37/37
f 37/37/37 35/35/35 55/55/55
f 55/55/55 54/54/54 37/37/37
f 56/56/56 55/55/55 35/35/35
f 35/35/35 34/34/34 56/56/56
f 30/30/30 51/51/51 56/56/56
f 56/56/56 34/34/34 30/30/30
f 57/57/57 58/58/58 59/59/59
f 59/59/59 60/60/60 57/57/57
f 61/61/61 62/62/62 59/59/59
f 59/59/59 58/58/58 61/61/61
f 62/62/62 61/61/61 63/63/63
f 63/63/63 64/64/64 62/62/62
f 65/65/65 66/66/66 64/64/64
f 64/64/64 63/63/63 65/65/65
f 65/65/65 67/67/67 68/68/68
f 68/68/68 66/66/66 65/65/65
f 69/69/69 68/68/68 67/67/67
f 67/67/67 70/70/70 69/69/69
f 71/71/71 72/72/72 73/73/73
f 73/73/73 72/72/72 74/74/74
f 74/74/74 72/72/72 75/75/75
f 75/75/75 72/72/72 76/76/76
f 76/76/76 72/72/72 77/77/77
f 77/77/77 72/72/72 71/71/71
f 58/58/58 57/57/57 78/78/78
f 78/78/78 79/79/79 58/58/58
f 80/80/80 70/70/70 67/67/67
f 67/67/67 81/81/81 80/80/80
f 81/81/81 67/67/67 65/65/65
f 65/65/65 82/82/82 81/81/81
f 65/65/65 63/63/63 83/83/83
f 83/83/83 82/82/82 65/65/65
f 61/61/61 84/84/84 83/83/83
f 83/83/83 63/63/63 61/61/61
f 58/58/58 79/79/79 84/84/84
f 84/84/84 61/61/61 58/58/58
f 85/85/85 86/86/86 87/87/87
f 87/87/87 88/88/88 85/85/85
f 89/89/89 90/90/90 91/91/91
f 91/91/91 92/92/92 89/89/89
f 93/93/93 94/94/94 95/95/95
f 95/95/95 96/96/96 93/93/93
f 97/97/97 98/98/98 99/99/99
f 99/99/99 100/100/100 97/97/97
f 101/101/101 102/102/102 85/85/85
f 85/85/85 88/88/88 101/101/101
f 103/103/103 104/104/104 105/105/105
f 105/105/105 106/106/106 103/103/103
f 107/107/107 108/108/108 109/109/109
f 109/109/109 110/110/110 107/107/107
f 101/101/101 111/111/111 112/112/112
f 112/112/112 102/102/102 101/101/101
f 113/113/113 114/114/114 115/115/115
f 115/115/115 116/116/116 113/113/113
f 97/97/97 95/95/95 94/94/94
f 94/94/94 98/98/98 97/97/97
f 117/117/117 118/118/118 119/119/119
f 119/119/119 120/120/120 117/117/117
f 90/90/90 117/117/117 120/120/120
f 120/120/120 91/91/91 90/90/90
f 109/109/109 108/108/108 121/121/121
f 121/121/121 122/122/122 109/109/109
f 123/123/123 106/106/106 105/105/105
f 105/105/105 124/124/124 123/123/123
f 114/114/114 113/113/113 125/125/125
f 125/125/125 126/126/126 114/114/114
f 121/121/121 108/108/108 114/114/114
f 114/114/114 126/126/126 121/121/121
f 127/127/127 128/128/128 129/129/129
f 129/129/129 130/130/130 127/127/127
f 127/127/127 131/131/131 132/132/132
f 132/132/132 128/128/128 127/127/127
f 133/133/133 134/134/134 135/135/135
f 135/135/135 136/136/136 133/133/133
f 135/135/135 137/137/137 138/138/138
f 138/138/138 136/136/136 135/135/135
f 139/139/139 140/140/140 134/134/134
f 134/134/134 133/133/133 139/139/139
f 88/88/88 87/87/87 99/99/99
f 99/99/99 98/98/98 88/88/88
f 119/119/119 137/137/137 135/135/135
f 135/135/135 120/120/120 119/119/119
f 135/135/135 134/134/134 91/91/91
f 91/91/91 120/120/120 135/135/135
f 127/127/127 130/130/130 103/103/103
f 103/103/103 106/106/106 127/127/127
f 92/92/92 91/91/91 134/134/134
f 134/134/134 140/140/140 92/92/92
f 114/114/114 108/108/108 107/107/107
f 107/107/107 115/115/115 114/114/114
f 101/101/101 94/94/94 93/93/93
f 93/93/93 111/111/111 101/101/101
f 123/123/123 131/131/131 127/127/127
f 127/127/127 106/106/106 123/123/123
f 88/88/88 98/98/98 94/94/94
f 94/94/94 101/101/101 88/88/88
f 141/141/141 142/142/142 143/143/143
f 144/144/144 145/145/145 146/146/146
f 146/146/146 147/147/147 144/144/144
f 148/148/148 149/149/149 150/150/150
f 150/150/150 151/151/151 148/148/148
f 151/151/151 150/150/150 152/152/152
f 152/152/152 153/153/153 151/151/151
f 154/154/154 153/153/153 152/152/152
f 152/152/152 144/144/144 154/154/154
f 155/155/155 156/156/156 157/157/157
f 157/157/157 147/147/147 155/155/155
f 156/156/156 155/155/155 158/158/158
f 159/159/159 160/160/160 155/155/155
f 161/161/161 162/162/162 163/163/163
f 164/164/164 165/165/165 141/141/141
f 141/141/141 166/166/166 164/164/164
f 167/167/167 168/168/168 149/149/149
f 149/149/149 169/169/169 167/167/167
f 169/169/169 170/170/170 171/171/171
f 171/171/171 172/172/172 169/169/169
f 173/173/173 157/157/157 156/156/156
f 156/156/156 174/174/174 173/173/173
f 175/175/175 150/150/150 149/149/149
f 149/149/149 168/168/168 175/175/175
f 176/176/176 155/155/155 147/147/147
f 147/147/147 146/146/146 176/176/176
f 149/149/149 148/148/148 170/170/170
f 170/170/170 169/169/169 149/149/149
f 154/154/154 144/144/144 147/147/147
f 147/147/147 157/157/157 154/154/154
f 173/173/173 177/177/177 154/154/154
f 154/154/154 157/157/157 173/173/173
f 172/172/172 178/178/178 167/167/167
f 167/167/167 169/169/169 172/172/172
f 154/154/154 177/177/177 153/153/153
f 166/166/166 179/179/179 180/180/180
f 181/181/181 182/182/182 183/183/183
f 183/183/183 184/184/184 181/181/181
f 185/185/185 186/186/186 187/187/187
f 187/187/187 188/188/188 185/185/185
f 186/186/186 189/189/189 190/190/190
f 190/190/190 187/187/187 186/186/186
f 191/191/191 190/190/190 189/189/189
f 189/189/189 192/192/192 191/191/191
f 193/193/193 194/194/194 195/195/195
f 195/195/195 196/196/196 193/193/193
f 180/180/180 197/197/197 164/164/164
f 164/164/164 166/166/166 180/180/180
f 195/195/195 194/194/194 198/198/198
f 198/198/198 199/199/199 195/195/195
f 185/185/185 188/188/188 184/184/184
f 184/184/184 183/183/183 185/185/185
f 192/192/192 194/194/194 193/193/193
f 193/193/193 191/191/191 192/192/192
f 198/198/198 194/194/194 192/192/192
f 192/192/192 200/200/200 198/198/198
f 201/201/201 164/164/164 197/197/197
f 197/197/197 202/202/202 201/201/201
f 192/192/192 189/189/189 200/200/200
f 175/175/175 203/203/203 152/152/152
f 152/152/152 150/150/150 175/175/175
f 145/145/145 144/144/144 152/152/152
f 152/152/152 203/203/203 145/145/145
f 204/204/204 166/166/166 141/141/141
f 141/141/141 143/143/143 204/204/204
f 205/205/205 165/165/165 164/164/164
f 164/164/164 201/201/201 205/205/205
f 206/206/206 142/142/142 141/141/141
f 141/141/141 165/165/165 206/206/206
f 158/158/158 155/155/155 206/206/206
f 142/142/142 206/206/206 155/155/155
f 155/155/155 160/160/160 142/142/142
f 143/143/143 142/142/142 160/160/160
f 160/160/160 159/159/159 204/204/204
f 204/204/204 143/143/143 160/160/160
f 180/180/180 179/179/179 207/207/207
f 180/180/180 207/207/207 195/195/195
f 195/195/195 197/197/197 180/180/180
f 202/202/202 197/197/197 195/195/195
f 182/182/182 208/208/208 199/199/199
f 199/199/199 183/183/183 182/182/182
f 148/148/148 173/173/173 174/174/174
f 174/174/174 170/170/170 148/148/148
f 151/151/151 177/177/177 173/173/173
f 173/173/173 148/148/148 151/151/151
f 153/153/153 177/177/177 151/151/151
f 198/198/198 200/200/200 186/186/186
f 186/186/186 185/185/185 198/198/198
f 200/200/200 189/189/189 186/186/186
f 199/199/199 198/198/198 185/185/185
f 185/185/185 183/183/183 199/199/199
f 209/209/209 210/210/210 85/85/85
f 85/85/85 102/102/102 209/209/209
f 211/211/211 212/212/212 133/133/133
f 133/133/133 136/136/136 211/211/211
f 116/116/116 213/213/213 214/214/214
f 214/214/214 113/113/113 116/116/116
f 132/132/132 215/215/215 216/216/216
f 216/216/216 128/128/128 132/132/132
f 195/195/195 199/199/199 208/208/208
f 208/208/208 202/202/202 195/195/195
f 210/210/210 217/217/217 218/218/218
f 218/218/218 219/219/219 210/210/210
f 220/220/220 211/211/211 221/221/221
f 221/221/221 222/222/222 220/220/220
f 223/223/223 224/224/224 225/225/225
f 225/225/225 216/216/216 223/223/223
f 226/226/226 227/227/227 228/228/228
f 228/228/228 209/209/209 226/226/226
f 212/212/212 229/229/229 230/230/230
f 230/230/230 231/231/231 212/212/212
f 232/232/232 214/214/214 233/233/233
f 233/233/233 234/234/234 232/232/232
f 207/207/207 196/196/196 195/195/195
f 210/210/210 209/209/209 228/228/228
f 228/228/228 217/217/217 210/210/210
f 212/212/212 211/211/211 220/220/220
f 220/220/220 229/229/229 212/212/212
f 214/214/214 213/213/213 235/235/235
f 235/235/235 233/233/233 214/214/214
f 223/223/223 216/216/216 215/215/215
f 215/215/215 236/236/236 223/223/223
f 210/210/210 219/219/219 86/86/86
f 86/86/86 85/85/85 210/210/210
f 138/138/138 221/221/221 211/211/211
f 211/211/211 136/136/136 138/138/138
f 216/216/216 225/225/225 129/129/129
f 129/129/129 128/128/128 216/216/216
f 102/102/102 112/112/112 226/226/226
f 226/226/226 209/209/209 102/102/102
f 231/231/231 139/139/139 133/133/133
f 133/133/133 212/212/212 231/231/231
f 214/214/214 232/232/232 125/125/125
f 125/125/125 113/113/113 214/214/214
f 171/171/171 237/237/237 238/238/238
f 238/238/238 172/172/172 171/171/171
f 205/205/205 239/239/239 240/240/240
f 240/240/240 158/158/158 205/205/205
f 240/240/240 241/241/241 242/242/242
f 242/242/242 158/158/158 240/240/240
f 243/243/243 182/182/182 181/181/181
f 181/181/181 244/244/244 243/243/243
f 245/245/245 246/246/246 201/201/201
f 201/201/201 202/202/202 245/245/245
f 208/208/208 182/182/182 243/243/243
f 243/243/243 247/247/247 208/208/208
f 171/171/171 170/170/170 174/174/174
f 174/174/174 242/242/242 171/171/171
f 206/206/206 165/165/165 205/205/205
f 205/205/205 158/158/158 206/206/206
f 242/242/242 174/174/174 156/156/156
f 156/156/156 158/158/158 242/242/242
f 178/178/178 172/172/172 238/238/238
f 238/238/238 248/248/248 178/178/178
f 246/246/246 239/239/239 205/205/205
f 205/205/205 201/201/201 246/246/246
f 245/245/245 202/202/202 208/208/208
f 208/208/208 247/247/247 245/245/245
f 237/237/237 171/171/171 242/242/242
f 242/242/242 241/241/241 237/237/237
f 249/249/249 250/250/250 251/251/251
f 251/251/251 252/252/252 249/249/249
f 105/105/105 253/253/253 254/254/254
f 254/254/254 124/124/124 105/105/105
f 255/255/255 256/256/256 97/97/97
f 97/97/97 100/100/100 255/255/255
f 97/97/97 256/256/256 257/257/257
f 257/257/257 95/95/95 97/97/97
f 258/258/258 96/96/96 95/95/95
f 95/95/95 257/257/257 258/258/258
f 109/109/109 122/122/122 259/259/259
f 259/259/259 260/260/260 109/109/109
f 109/109/109 260/260/260 261/261/261
f 261/261/261 110/110/110 109/109/109
f 90/90/90 89/89/89 262/262/262
f 262/262/262 263/263/263 90/90/90
f 264/264/264 117/117/117 90/90/90
f 90/90/90 263/263/263 264/264/264
f 265/265/265 118/118/118 117/117/117
f 117/117/117 264/264/264 265/265/265
f 266/266/266 253/253/253 105/105/105
f 105/105/105 104/104/104 266/266/266
f 267/267/267 268/268/268 269/269/269
f 269/269/269 270/270/270 267/267/267
f 271/271/271 272/272/272 270/270/270
f 270/270/270 269/269/269 271/271/271
f 272/272/272 271/271/271 273/273/273
f 274/274/274 275/275/275 273/273/273
f 273/273/273 271/271/271 274/274/274
f 274/274/274 252/252/252 276/276/276
f 276/276/276 275/275/275 274/274/274
f 276/276/276 252/252/252 251/251/251
f 251/251/251 277/277/277 276/276/276
f 278/278/278 277/277/277 251/251/251
f 251/251/251 250/250/250 278/278/278
f 278/278/278 250/250/250 279/279/279
f 280/280/280 281/281/281 279/279/279
f 279/279/279 250/250/250 280/280/280
f 267/267/267 281/281/281 280/280/280
f 280/280/280 268/268/268 267/267/267
f 274/274/274 271/271/271 249/249/249
f 249/249/249 252/252/252 274/274/274
f 249/249/249 268/268/268 280/280/280
f 280/280/280 250/250/250 249/249/249
f 271/271/271 269/269/269 268/268/268
f 268/268/268 249/249/249 271/271/271