mtllib 46354475.mtl
o Mesh

v 0.2937600016593933 0.3146600127220154 -0.31973201036453247
v 0.3198000192642212 0.3532699942588806 -0.36116400361061096
v 0.45820000767707825 0.19159001111984253 -0.21773399412631989
v 0.44655001163482666 0.1791599988937378 -0.1830819994211197
v 0.48890000581741333 0.14621999859809875 -0.07640600204467773
v 0.4765999913215637 0.1430700123310089 -0.05594300106167793
v 0.499210000038147 0.11603999137878418 0.06960300356149673
v 0.5072659850120544 0.11704999208450317 0.06103299930691719
v 0.4871399998664856 0.14737001061439514 0.20267300307750702
v 0.47519999742507935 0.14386001229286194 0.19900399446487427
v 0.322380006313324 0.35479000210762024 0.41139400005340576
v 0.4473299980163574 0.1780099868774414 0.321929007768631
v 0.45945000648498535 0.19007998704910278 0.33918899297714233
v 0.33768999576568604 0.3835799992084503 0.4641140103340149
v 0.241349995136261 0.5885599851608276 0.37242498993873596
v 0.23537001013755798 0.6213799715042114 0.42832401394844055
v 0.10378000140190125 0.7076399922370911 0.19839900732040405
v 0.08605998754501343 0.7752100229263306 0.210658997297287
v 0.01886001229286194 0.7545599937438965 0.04891199991106987
v 0.0722300112247467 0.6630699634552002 0.06274200230836868
v 0.0902700126171112 0.5959699749946594 -0.1961590051651001
v 0.10240998864173889 0.7084500193595886 -0.06929299980401993
v 0.10721999406814575 0.7409499883651733 -0.08907599747180939
v 0.04625999927520752 0.6505399942398071 -0.24135899543762207
v 0.22837001085281372 0.5023499727249146 -0.2562989890575409
v 0.2235099971294403 0.5912399888038635 -0.30219200253486633
v 0.1348400115966797 0.019450008869171143 -0.32206401228904724
v 0.3956100046634674 -0.0757099986076355 -0.20106199383735657
v 0.340829998254776 -0.1179400086402893 -0.162321999669075
v 0.09191998839378357 -0.0664299726486206 -0.26533299684524536
v 0.44769999384880066 -0.09211999177932739 -0.03734799847006798
v 0.38947999477386475 -0.12322998046875 -0.015585999935865402
v 0.340829998254776 -0.1179400086402893 -0.162321999669075
v 0.3956100046634674 -0.0757099986076355 -0.20106199383735657
v 0.45054998993873596 -0.08913999795913696 0.27087199687957764
v 0.3955000042915344 -0.11892998218536377 0.2461320012807846
v 0.4388999938964844 -0.12860000133514404 0.13345900177955627
v 0.48107001185417175 -0.1024399995803833 0.12869299948215485
v 0.1348400115966797 0.019450008869171143 0.5134249925613403
v 0.09191998839378357 -0.0664299726486206 0.4535990059375763
v 0.3553600013256073 -0.10999000072479248 0.35034599900245667
v 0.40424999594688416 -0.0709800124168396 0.40214499831199646
v 0.011440008878707886 0.06637001037597656 0.4726159870624542
v -0.0221099853515625 -0.04102998971939087 0.41912201046943665
v -0.21070998907089233 0.1478399932384491 0.09100600332021713
v -0.23509001731872559 0.006410002708435059 0.08636800199747086
v -0.20159000158309937 -0.0046700239181518555 0.22363099455833435
v -0.1837499737739563 0.1335499882698059 0.24762000143527985
v -0.18664997816085815 0.13416001200675964 -0.056141000241041183
v -0.11539900302886963 0.1146099865436554 -0.20106199383735657
v -0.13931000232696533 -0.014930009841918945 -0.162321999669075
v -0.20420998334884644 -0.004339993000030518 -0.038947999477386475
v 0.01144099235534668 0.06637001037597656 -0.27921900153160095
v -0.0221099853515625 -0.04102998971939087 -0.22897499799728394
v 0.18327999114990234 0.11379998922348022 -0.32305899262428284
v 0.2832300066947937 0.29148000478744507 -0.29664599895477295
v 0.44652000069618225 0.10811999440193176 -0.18440300226211548
v 0.42361998558044434 0.009030014276504517 -0.19991900026798248
v 0.42361998558044434 0.009030014276504517 -0.19991900026798248
v 0.44652000069618225 0.10811999440193176 -0.18440300226211548
v 0.47878000140190125 0.07585999369621277 -0.049970999360084534
v 0.46911001205444336 -0.019829988479614258 -0.042344000190496445
v 0.5026599764823914 -0.021220028400421143 0.11746100336313248
v 0.5115399956703186 0.04309999942779541 0.08657699823379517
v 0.47775998711586 0.07640001177787781 0.22735199332237244
v 0.4676100015640259 -0.018970012664794922 0.27215200662612915
v 0.44652000069618225 0.10719999670982361 0.3575569987297058
v 0.2832300066947937 0.29148000478744507 0.4697999954223633
v 0.18327999114990234 0.11379998922348022 0.5177950263023376
v 0.41881000995635986 0.01251000165939331 0.4183399975299835
v 0.18268999457359314 0.4025900065898895 0.432110995054245
v 0.06459000706672668 0.1827000081539154 0.4760960042476654
v 0.0357699990272522 0.5565199851989746 0.22881999611854553
v 0.03777998685836792 0.5881199836730957 0.08794300258159637
v -0.136430025100708 0.2958499789237976 0.09725400060415268
v -0.121940016746521 0.279990017414093 0.2518090009689331
v -0.12470000982284546 0.28084999322891235 -0.05243600159883499
v 0.033760011196136475 0.5578100085258484 -0.048503000289201736
v 0.07934999465942383 0.5167999863624573 -0.18293499946594238
v -0.05739998817443848 0.2535099983215332 -0.19991900026798248
v 0.06459000706672668 0.1827000081539154 -0.27915701270103455
v 0.18268999457359314 0.4025900065898895 -0.25630900263786316
v 0.4997999966144562 0.7808600068092346 -0.19014999270439148
v 0.4996100068092346 0.6356800198554993 -0.18644499778747559
v 0.4996100068092346 0.6850399971008301 -0.3710959851741791
v 0.4997999966144562 0.7610099911689758 -0.3644149899482727
v 0.5027729868888855 0.24265998601913452 -0.11264500021934509
v 0.4970409870147705 0.31296998262405396 -0.2636690139770508
v 0.5031409859657288 0.7866399884223938 0.18449300527572632
v 0.5061960220336914 0.6470800042152405 0.19374999403953552
v 0.4996100068092346 0.6356800198554993 0.0011119999689981341
v 0.4997999966144562 0.802049994468689 -0.003955000080168247
v 0.5 0.24465999007225037 0.16884399950504303
v 0.5014070272445679 0.21841999888420105 0.026016000658273697
v 0.5072659850120544 0.11704999208450317 0.06103299930691719
v 0.499210000038147 0.11603999137878418 0.06960300356149673
v 0.07934999465942383 0.5167999863624573 0.3590250015258789
v -0.05739998817443848 0.2535099983215332 0.3946549892425537
v -0.13931000232696533 -0.014930009841918945 0.35058900713920593
v -0.11540001630783081 0.1146099865436554 0.39242398738861084
v 0.40424999594688416 -0.0709800124168396 0.40214499831199646
v 0.3553600013256073 -0.10999000072479248 0.35034599900245667
v 0.44652000069618225 0.10719999670982361 0.3575569987297058
v 0.41881000995635986 0.01251000165939331 0.4183399975299835
v 0.5 0.3106600046157837 0.3137660026550293
v 0.512287974357605 0.6820200085639954 0.3719240128993988
v 0.506227970123291 0.7594799995422363 0.357354998588562
v 0.10315001010894775 0.6365399956703186 0.3290880024433136
v 0.06955000758171082 0.6853100061416626 0.3820360004901886
v 0.3050500154495239 0.6439499855041504 -0.340472012758255
v 0.4997999966144562 0.7610099911689758 -0.3644149899482727
v 0.4996100068092346 0.6850399971008301 -0.3710959851741791
v 0.3821200132369995 0.45302000641822815 -0.38837701082229614
v 0.2274700105190277 0.8367199897766113 -0.2766999900341034
v 0.2270900011062622 0.8708800077438354 -0.10894100368022919
v 0.5 0.930079996585846 -0.1684119999408722
v 0.5 0.8391000032424927 -0.3152279853820801
v 0.2064099907875061 0.9495700001716614 0.038040999323129654
v 0.5 0.9730600118637085 -0.0015379999531432986
v 0.24046000838279724 0.9025399684906006 0.21414799988269806
v 0.4939799904823303 0.9454599618911743 0.21471400558948517
v 0.2423200011253357 0.7745499610900879 0.38851198554039
v 0.5 0.8391000032424927 0.3152279853820801
v 0.3358500003814697 0.6475300192832947 0.4139679968357086
v 0.38791999220848083 0.4634599983692169 0.44231200218200684
v 0.512287974357605 0.6820200085639954 0.3719240128993988
v 0.506227970123291 0.7594799995422363 0.357354998588562
v 0.47663000226020813 0.2371099889278412 0.3540869951248169
v 0.5 0.3106600046157837 0.3137660026550293
v 0.5001729726791382 0.18617001175880432 0.206154003739357
v 0.5 0.24465999007225037 0.16884399950504303
v 0.5175610184669495 0.15487000346183777 0.054444000124931335
v 0.5014070272445679 0.21841999888420105 0.026016000658273697
v 0.5023030042648315 0.18476000428199768 -0.09278299659490585
v 0.5027729868888855 0.24265998601913452 -0.11264500021934509
v 0.5014070272445679 0.21841999888420105 0.026016000658273697
v 0.5175610184669495 0.15487000346183777 0.054444000124931335
v 0.4748699963092804 0.23890000581741333 -0.24616500735282898
v 0.4970409870147705 0.31296998262405396 -0.2636690139770508
v 0.05641999840736389 -0.19687998294830322 0.543383002281189
v -0.08841001987457275 -0.16492998600006104 0.5005090236663818
v -0.13558000326156616 -0.41315001249313354 0.5149400234222412
v 0.008760005235671997 -0.4428099989891052 0.561057984828949
v 0.17599999904632568 -0.47718000411987305 0.51670902967453
v 0.2159700095653534 -0.22926002740859985 0.49204498529434204
v 0.4476200044155121 -0.2842000126838684 0.1066410019993782
v 0.4085899889469147 -0.27455002069473267 0.26717498898506165
v 0.35969001054763794 -0.5149400234222412 0.26764199137687683
v 0.398499995470047 -0.52360999584198 0.09711500257253647
v 0.35013002157211304 -0.26165997982025146 -0.20191200077533722
v 0.41047999262809753 -0.2749599814414978 -0.048760998994112015
v 0.3615800142288208 -0.5153299570083618 -0.06797999888658524
v 0.3014400005340576 -0.5029699802398682 -0.23067399859428406
v 0.35013002157211304 -0.26165997982025146 -0.20191200077533722
v 0.3014400005340576 -0.5029699802398682 -0.23067399859428406
v 0.1902010142803192 -0.4732699990272522 -0.3208549916744232
v 0.2032809853553772 -0.22926002740859985 -0.27838200330734253
v 0.05642101168632507 -0.19687998294830322 -0.32978498935699463
v 0.008760988712310791 -0.4428099989891052 -0.3665139973163605
v -0.13557898998260498 -0.41315001249313354 -0.3182019889354706
v -0.08840900659561157 -0.16492998600006104 -0.2837679982185364
v -0.237280011177063 -0.13209998607635498 -0.20191200077533722
v -0.2839289903640747 -0.3826599717140198 -0.23067399859428406
v -0.355180025100708 -0.3702999949455261 -0.06798099726438522
v -0.3087400197982788 -0.11878001689910889 -0.048760998994112015
v -0.32378000020980835 -0.11392998695373535 0.10749900341033936
v -0.3700000047683716 -0.3664199709892273 0.09797099977731705
v -0.3606500029563904 -0.3706899881362915 0.26764100790023804
v -0.3142099976539612 -0.11919999122619629 0.26717498898506165
v 0.37811100482940674 -0.11194998025894165 -0.20961900055408478
v 0.23482999205589294 -0.08035999536514282 -0.28331899642944336
v 0.43698999285697937 -0.12493002414703369 -0.057103998959064484
v 0.37811100482940674 -0.11194998025894165 -0.20961900055408478
v 0.4351400136947632 -0.12452000379562378 0.257519006729126
v 0.47262999415397644 -0.1338300108909607 0.09765200316905975
v 0.09154000878334045 -0.048770010471343994 0.5325779914855957
v 0.24498999118804932 -0.08035999536514282 0.47898998856544495
v -0.04976999759674072 -0.0176200270652771 0.489439994096756
v -0.27855002880096436 0.031899988651275635 0.09850999712944031
v -0.2705100178718567 0.02698001265525818 0.257519006729126
v -0.1950089931488037 0.014400005340576172 -0.20961900055408478
v -0.26499998569488525 0.027379989624023438 -0.057103998959064484
v 0.09154000878334045 -0.048770010471343994 -0.33695998787879944
v -0.04976999759674072 -0.0176200270652771 -0.29157501459121704
v 0.3014400005340576 -0.5029699802398682 0.42521899938583374
v 0.35013002157211304 -0.26165997982025146 0.41551101207733154
v 0.37810999155044556 -0.11194998025894165 0.40523698925971985
v -0.13558000326156616 -0.41315001249313354 0.5149400234222412
v -0.21526002883911133 -0.8339600563049316 0.5098599791526794
v -0.08066999912261963 -0.782789945602417 0.5614629983901978
v 0.008760005235671997 -0.4428099989891052 0.561057984828949
v 0.3014400005340576 -0.5029699802398682 0.42521899938583374
v 0.17599999904632568 -0.47718000411987305 0.51670902967453
v 0.25169000029563904 -0.7027900218963623 0.4524199962615967
v 0.3330000042915344 -0.6319400072097778 0.35039201378822327
v 0.398499995470047 -0.52360999584198 0.09711500257253647
v 0.35969001054763794 -0.5149400234222412 0.26764199137687683
v 0.3651700019836426 -0.6045900583267212 0.231672003865242
v 0.37577998638153076 -0.5707499980926514 0.10315699875354767
v 0.3014400005340576 -0.5029699802398682 -0.23067399859428406
v 0.3615800142288208 -0.5153299570083618 -0.06797999888658524
v 0.3656409978866577 -0.5679299831390381 -0.09386300295591354
v 0.33187001943588257 -0.5609500408172607 -0.28798601031303406
v 0.1902010142803192 -0.4732699990272522 -0.3208549916744232
v 0.3014400005340576 -0.5029699802398682 -0.23067399859428406
v 0.33187001943588257 -0.5609500408172607 -0.28798601031303406
v 0.23476099967956543 -0.6421600580215454 -0.3720420002937317
v -0.13557898998260498 -0.41315001249313354 -0.3182019889354706
v 0.008760988712310791 -0.4428099989891052 -0.3665139973163605
v 0.04549100995063782 -0.782789945602417 -0.3584040105342865
v -0.15670901536941528 -0.8339600563049316 -0.30593499541282654
v -0.355180025100708 -0.3702999949455261 -0.06798099726438522
v -0.2839289903640747 -0.3826599717140198 -0.23067399859428406
v -0.3645489811897278 -0.8865499496459961 -0.21531400084495544
v -0.40571898221969604 -0.8943599462509155 -0.055691998451948166
v -0.3700000047683716 -0.3664199709892273 0.09797099977731705
v -0.42514002323150635 -0.9023000001907349 0.1064400002360344
v -0.40644001960754395 -0.8941199779510498 0.26673299074172974
v -0.3606500029563904 -0.3706899881362915 0.26764100790023804
v 0.17983001470565796 -0.8256100416183472 0.2903900146484375
v 0.27834999561309814 -0.7425299882888794 0.21437400579452515
v 0.20036101341247559 -0.8424999713897705 -0.07558099925518036
v 0.2020910084247589 -0.840440034866333 -0.18308499455451965
v 0.29528099298477173 -0.7831900119781494 -0.1727599948644638
v 0.31473100185394287 -0.7383400201797485 -0.06280899792909622
v -0.06741899251937866 -1.381909966468811 -0.1322149932384491
v -0.05304902791976929 -1.338539958000183 -0.2897219955921173
v -0.024978995323181152 -1.333240032196045 -0.27773401141166687
v -0.03399902582168579 -1.375599980354309 -0.12470600008964539
v -0.04316902160644531 -1.418619990348816 0.03072899952530861
v -0.015938997268676758 -1.388759970664978 0.16729000210762024
v -0.05446898937225342 -1.403149962425232 0.16485099494457245
v -0.08201897144317627 -1.425950050354004 0.0277709998190403
v -0.1309800148010254 -1.01419997215271 0.5056279897689819
v -0.23531997203826904 -1.0483299493789673 0.4696680009365082
v -0.03960001468658447 -1.0986700057983398 0.19696100056171417
v -0.055258989334106445 -1.1161999702453613 0.04733999818563461
v 0.08483099937438965 -0.9617500305175781 0.03830299898982048
v 0.08826100826263428 -0.9383900165557861 0.1831430047750473
v -0.1487089991569519 -0.9658199548721313 -0.3291819989681244
v -0.25481897592544556 -0.9993400573730469 -0.3015579879283905
v -0.3638889789581299 -1.0338000059127808 -0.23689599335193634
v -0.4070590138435364 -1.073740005493164 -0.0777290016412735
v -0.40268999338150024 -1.0984400510787964 0.24540799856185913
v -0.4078890085220337 -1.0944000482559204 0.08381099998950958
v 0.07785099744796753 -0.9167599678039551 -0.19685199856758118
v 0.08131098747253418 -0.939079999923706 -0.08019199967384338
v -0.05248898267745972 -1.0845099687576294 -0.11006200313568115
v -0.04976898431777954 -1.053320050239563 -0.2650260031223297
v -0.025120019912719727 -1.082450032234192 0.3353480100631714
v 0.09143000841140747 -0.9167799949645996 0.31710800528526306
v 0.009250998497009277 -1.3611500263214111 0.2935979962348938
v -0.13849997520446777 -1.1611299514770508 0.4614090025424957
v -0.18985998630523682 -1.2185300588607788 0.43577900528907776
v -0.028989017009735107 -1.3820600509643555 0.2916390001773834
v 0.07785099744796753 -0.9167599678039551 -0.19685199856758118
v -0.04976898431777954 -1.053320050239563 -0.2650260031223297
v 0.30531999468803406 -0.7186199426651001 0.13485099375247955
v 0.188850998878479 -0.8347300291061401 0.16700999438762665
v 0.19861099123954773 -0.8445999622344971 0.03361399844288826
v 0.33448100090026855 -0.6927800178527832 0.04887299984693527
v 0.350831001996994 -0.8453799486160278 -0.42668500542640686
v 0.40522098541259766 -0.7856999635696411 -0.38587599992752075
v 0.36052101850509644 -0.8211699724197388 -0.2804790139198303
v 0.31474101543426514 -0.8738199472427368 -0.2641969919204712
v -0.09407901763916016 -1.4179400205612183 0.15372100472450256
v -0.2936199903488159 -1.2939300537109375 0.22455699741840363
v -0.3250889778137207 -1.3000500202178955 0.062049999833106995
v -0.12195897102355957 -1.4334900379180908 0.029301000759005547
v -0.10176897048950195 -1.3883899450302124 -0.11996299773454666
v -0.30748897790908813 -1.2723300457000732 -0.09910199791193008
v -0.2676190137863159 -1.2339600324630737 -0.25788798928260803
v -0.08189898729324341 -1.3439899682998657 -0.2669140100479126
v 0.0008209943771362305 -1.2210099697113037 0.30378198623657227
v 0.40522098541259766 -0.7856999635696411 -0.38587599992752075
v 0.36052101850509644 -0.8211699724197388 -0.2804790139198303
v 0.31474101543426514 -0.8738199472427368 -0.2641969919204712
v 0.21838098764419556 -0.9037799835205078 -0.28001898527145386
v 0.25213098526000977 -0.884719967842102 -0.40087801218032837
v 0.21838098764419556 -0.9037799835205078 -0.28001898527145386
v -0.10283899307250977 -1.1801899671554565 -0.3055419921875
v -0.184099018573761 -1.2067099809646606 -0.2998470067977905
v -0.017179012298583984 -1.231220006942749 0.17761999368667603
v -0.03664898872375488 -1.2422699928283691 0.04121600091457367
v -0.021359026432037354 -1.172819972038269 -0.2512100040912628
v -0.02894902229309082 -1.2072700262069702 -0.10613799840211868
v 0.02710101008415222 -1.3430700302124023 0.1587029993534088
v 0.011381000280380249 -1.3749799728393555 0.03280799835920334
v 0.023360997438430786 -1.2885299921035767 -0.23865999281406403
v 0.01742100715637207 -1.3314199447631836 -0.10398600250482559
v -0.021359026432037354 -1.172819972038269 -0.2512100040912628
v 0.0416409969329834 -1.3135499954223633 0.2751449942588806
v -0.1950100064277649 0.014400005340576172 0.40523698925971985
v -0.237280011177063 -0.13209998607635498 0.41551101207733154
v -0.2839300036430359 -0.3826599717140198 0.42521899938583374
v -0.3535900115966797 -0.8865499496459961 0.41499200463294983
v -0.2839300036430359 -0.3826599717140198 0.42521899938583374
v -0.3425599932670593 -1.0834100246429443 0.39474600553512573
v -0.24264001846313477 -1.277519941329956 0.3747360110282898
v -0.06829899549484253 -1.4035600423812866 0.2687990069389343
v 0.0008209943771362305 -1.2210099697113037 0.30378198623657227
v -0.025120019912719727 -1.082450032234192 0.3353480100631714
v 0.09143000841140747 -0.9167799949645996 0.31710800528526306
v 0.17983001470565796 -0.8256100416183472 0.2903900146484375
v 0.27834999561309814 -0.7425299882888794 0.21437400579452515
v 0.3330000042915344 -0.6319400072097778 0.35039201378822327
v 0.3014400005340576 -0.5029699802398682 0.42521899938583374
v 0.35013002157211304 -0.26165997982025146 0.41551101207733154
v 0.3014400005340576 -0.5029699802398682 0.42521899938583374
v 0.37810999155044556 -0.11194998025894165 0.40523698925971985
v -0.05739998817443848 0.2535099983215332 -0.19991900026798248
v 0.07934999465942383 0.5167999863624573 -0.18293499946594238
v -0.11539900302886963 0.1146099865436554 -0.20106199383735657
v -0.13931000232696533 -0.014930009841918945 -0.162321999669075
v -0.1950089931488037 0.014400005340576172 -0.20961900055408478
v -0.237280011177063 -0.13209998607635498 -0.20191200077533722
v -0.2839289903640747 -0.3826599717140198 -0.23067399859428406
v -0.2839289903640747 -0.3826599717140198 -0.23067399859428406
v -0.3645489811897278 -0.8865499496459961 -0.21531400084495544
v -0.3638889789581299 -1.0338000059127808 -0.23689599335193634
v -0.2676190137863159 -1.2339600324630737 -0.25788798928260803
v -0.24264001846313477 -1.277519941329956 0.3747360110282898
v -0.3425599932670593 -1.0834100246429443 0.39474600553512573
v -0.3535900115966797 -0.8865499496459961 0.41499200463294983
v -0.2839300036430359 -0.3826599717140198 0.42521899938583374
v -0.237280011177063 -0.13209998607635498 0.41551101207733154
v -0.2839300036430359 -0.3826599717140198 0.42521899938583374
v -0.1950100064277649 0.014400005340576172 0.40523698925971985
v -0.13931000232696533 -0.014930009841918945 0.35058900713920593
v -0.11540001630783081 0.1146099865436554 0.39242398738861084
v -0.05739998817443848 0.2535099983215332 0.3946549892425537
v 0.07934999465942383 0.5167999863624573 0.3590250015258789
v 0.5 0.8391000032424927 0.3152279853820801
v 0.4939799904823303 0.9454599618911743 0.21471400558948517
v 0.5 0.9730600118637085 -0.0015379999531432986
v 0.5 0.930079996585846 -0.1684119999408722
v 0.5 0.8391000032424927 -0.3152279853820801
v 0.0902700126171112 0.5959699749946594 -0.1961590051651001
v 0.22837001085281372 0.5023499727249146 -0.2562989890575409
v 0.2937600016593933 0.3146600127220154 -0.31973201036453247
v 0.44655001163482666 0.1791599988937378 -0.1830819994211197
v 0.44655001163482666 0.1791599988937378 -0.1830819994211197
v 0.4765999913215637 0.1430700123310089 -0.05594300106167793
v 0.499210000038147 0.11603999137878418 0.06960300356149673
v 0.47519999742507935 0.14386001229286194 0.19900399446487427
v 0.4473299980163574 0.1780099868774414 0.321929007768631
v 0.4473299980163574 0.1780099868774414 0.321929007768631
v 0.322380006313324 0.35479000210762024 0.41139400005340576
v 0.241349995136261 0.5885599851608276 0.37242498993873596
v 0.10315001010894775 0.6365399956703186 0.3290880024433136
v 0.10315001010894775 0.6365399956703186 0.3290880024433136
v 0.10378000140190125 0.7076399922370911 0.19839900732040405
v 0.0722300112247467 0.6630699634552002 0.06274200230836868
v 0.10240998864173889 0.7084500193595886 -0.06929299980401993
v 0.0902700126171112 0.5959699749946594 -0.1961590051651001

vn -0.43435800075531006 -0.4746449887752533 -0.7655360102653503
vn -0.30407801270484924 -0.3570449948310852 -0.8832070231437683
vn 0.2819080054759979 -0.7957959771156311 -0.5359439849853516
vn 0.4242430031299591 -0.6460040211677551 -0.6345829963684082
vn 0.4755919873714447 -0.8338990211486816 -0.2800450026988983
vn 0.6453250050544739 -0.7013360261917114 -0.3027929961681366
vn 0.8524919748306274 -0.5204690098762512 0.04867900162935257
vn 0.6111000180244446 -0.7900630235671997 -0.04854600131511688
vn 0.6367359757423401 -0.7170389890670776 0.2835879921913147
vn 0.7852479815483093 -0.5390409827232361 0.3046630024909973
vn -0.13187900185585022 -0.12174499779939651 0.9837610125541687
vn 0.6914839744567871 -0.3780199885368347 0.61558997631073
vn 0.3335680067539215 -0.6776270270347595 0.6554030179977417
vn -0.25884199142456055 -0.2908729910850525 0.9210829734802246
vn -0.619596004486084 -0.2960349917411804 0.726954996585846
vn -0.34608298540115356 -0.17139500379562378 0.9224159717559814
vn -0.9887819886207581 -0.020135000348091125 0.14800100028514862
vn -0.8727579712867737 0.3781970143318176 0.30864399671554565
vn -0.9899619817733765 0.10906899720430374 -0.08988100290298462
vn -0.9986510276794434 0.05173499882221222 0.00445199990645051
vn -0.87813401222229 -0.25933200120925903 -0.40202999114990234
vn -0.9635090231895447 0.054694000631570816 -0.26202699542045593
vn -0.8818809986114502 0.39665699005126953 -0.2548530101776123
vn -0.920877993106842 -0.09245400130748749 -0.37873101234436035
vn -0.668923020362854 -0.12062100321054459 -0.7334799766540527
vn -0.5350750088691711 -0.12453900277614594 -0.8355739712715149
vn -0.0493369996547699 -0.26654401421546936 -0.9625589847564697
vn 0.5490429997444153 -0.545553982257843 -0.6331850290298462
vn 0.6001139879226685 0.5068299770355225 -0.6188589930534363
vn 0.1043810024857521 0.7108979821205139 -0.6955059766769409
vn 0.7376829981803894 -0.6344799995422363 -0.2307790070772171
vn 0.9461240172386169 0.2034740000963211 -0.2518880069255829
vn 0.6001139879226685 0.5068299770355225 -0.6188589930534363
vn 0.5490429997444153 -0.545553982257843 -0.6331850290298462
vn 0.7400519847869873 -0.609358012676239 0.2846139967441559
vn 0.9254299998283386 0.16195900738239288 0.3425610065460205
vn 0.9555550217628479 0.2942500114440918 -0.018192000687122345
vn 0.8076959848403931 -0.5895220041275024 0.009542999789118767
vn -0.063960000872612 -0.2967909872531891 0.9527980089187622
vn 0.10057800263166428 0.6910560131072998 0.7157700061798096
vn 0.664002001285553 0.33680999279022217 0.6675779819488525
vn 0.516198992729187 -0.5790309906005859 0.6310790181159973
vn -0.4382309913635254 -0.06919900327920914 0.8961949944496155
vn -0.16135600209236145 0.7415260076522827 0.6512320041656494
vn -0.9565280079841614 0.29139500856399536 0.012001000344753265
vn -0.336914986371994 0.9415299892425537 0.0031530000269412994
vn -0.4193190038204193 0.8818259835243225 0.21576300263404846
vn -0.9232950210571289 0.21360400319099426 0.3192160129547119
vn -0.9134669899940491 0.23269300162792206 -0.33381399512290955
vn -0.7141519784927368 0.11393199861049652 -0.6906560063362122
vn -0.28386199474334717 0.8731920123100281 -0.39618000388145447
vn -0.3926810026168823 0.8938789963722229 -0.21628999710083008
vn -0.4327099919319153 -0.045906998217105865 -0.9003639817237854
vn -0.153220996260643 0.752036988735199 -0.6410639882087708
vn 0.08604100346565247 0.03111499920487404 -0.9958059787750244
vn -0.0948370024561882 -0.2920539975166321 -0.9516879916191101
vn 0.8117550015449524 -0.05322499945759773 -0.5815680027008057
vn 0.740543007850647 -0.14880500733852386 -0.6553270220756531
vn 0.740543007850647 -0.14880500733852386 -0.6553270220756531
vn 0.8117550015449524 -0.05322499945759773 -0.5815680027008057
vn 0.9696189761161804 -0.04933299869298935 -0.23959200084209442
vn 0.9394819736480713 -0.21767699718475342 -0.26455599069595337
vn 0.9837219715118408 -0.1765509992837906 0.03347500041127205
vn 0.9996510148048401 -0.010633000172674656 -0.024165000766515732
vn 0.9750530123710632 0.05737299844622612 0.21443000435829163
vn 0.9529939889907837 -0.12856699526309967 0.2743600010871887
vn 0.8453360199928284 0.12715700268745422 0.5188819766044617
vn 0.3571769893169403 0.2509399950504303 0.8996970057487488
vn 0.10057999938726425 0.07090400159358978 0.9923989772796631
vn 0.6832630038261414 -0.032409001141786575 0.7294530272483826
vn -0.07531300187110901 0.32229000329971313 0.9436399936676025
vn -0.3111160099506378 0.24011699855327606 0.9195380210876465
vn -0.8642290234565735 0.4465259909629822 0.231782004237175
vn -0.8882139921188354 0.4592610001564026 0.012489000335335732
vn -0.8788160085678101 0.4770619869232178 0.009669000282883644
vn -0.8516489863395691 0.4326210021972656 0.2958599925041199
vn -0.854358971118927 0.43301498889923096 -0.2873460054397583
vn -0.8830369710922241 0.4196079969406128 -0.21017800271511078
vn -0.6864259839057922 0.19753800332546234 -0.6998550295829773
vn -0.6425079703330994 0.33328700065612793 -0.6900020241737366
vn -0.33136698603630066 0.2172040045261383 -0.9181600213050842
vn -0.3601660132408142 0.192221000790596 -0.9128699898719788
vn 0.9999989867210388 -0.001534000039100647 0.00021699999342672527
vn 0.9999949932098389 -0.0006629999843426049 -0.003089000005275011
vn 0.6488369703292847 0.04019000008702278 -0.7598649859428406
vn 0.5297300219535828 0.3221609890460968 -0.784600019454956
vn 0.9959530234336853 -0.04725699871778488 -0.07644899934530258
vn 0.8514999747276306 -0.2216939926147461 -0.47518399357795715
vn 0.9991419911384583 0.03881099820137024 -0.014433999545872211
vn 0.9996050000190735 0.0022380000445991755 -0.0279959999024868
vn 0.9999330043792725 0.0010049999691545963 -0.011548999696969986
vn 0.9999859929084778 0.005090000107884407 -0.0011099999537691474
vn 0.9992660284042358 0.03183500096201897 0.021321000531315804
vn 0.9934870004653931 0.11262200027704239 -0.01733900047838688
vn 0.6111000180244446 -0.7900630235671997 -0.04854600131511688
vn 0.8524919748306274 -0.5204690098762512 0.04867900162935257
vn -0.5581049919128418 0.38020598888397217 0.7375379800796509
vn -0.6331499814987183 0.34928300976753235 0.6907399892807007
vn -0.30687201023101807 0.8682289719581604 0.3898810148239136
vn -0.7260169982910156 0.10092899948358536 0.6802300214767456
vn 0.516198992729187 -0.5790309906005859 0.6310790181159973
vn 0.664002001285553 0.33680999279022217 0.6675779819488525
vn 0.8453360199928284 0.12715700268745422 0.5188819766044617
vn 0.6832630038261414 -0.032409001141786575 0.7294530272483826
vn 0.9485780000686646 -0.039785999804735184 0.3140319883823395
vn 0.790785014629364 0.1048469990491867 0.6030470132827759
vn 0.7277799844741821 0.27747198939323425 0.6271730065345764
vn -0.8818920254707336 -0.16850000619888306 0.4403110146522522
vn -0.8360840082168579 -0.0039160000160336494 0.5485879778862
vn -0.3293420076370239 0.15205200016498566 -0.9318869709968567
vn 0.5297300219535828 0.3221609890460968 -0.784600019454956
vn 0.6488369703292847 0.04019000008702278 -0.7598649859428406
vn 0.0709799975156784 -0.1315319985151291 -0.9887670278549194
vn -0.4370270073413849 0.6463220119476318 -0.6255199909210205
vn -0.4927060008049011 0.8114219903945923 -0.31438198685646057
vn 0.6004350185394287 0.750789999961853 -0.2753030061721802
vn 0.5907440185546875 0.5201150178909302 -0.6168479919433594
vn -0.4414129853248596 0.8910760283470154 -0.10553599894046783
vn 0.6158120036125183 0.7829830050468445 -0.08782599866390228
vn -0.34229499101638794 0.8256049752235413 0.4485650062561035
vn 0.5726680159568787 0.7291989922523499 0.3745940029621124
vn -0.16753099858760834 0.5823330283164978 0.7955009937286377
vn 0.6620219945907593 0.5063310265541077 0.552590012550354
vn 0.12793299555778503 0.22558799386024475 0.9657859802246094
vn 0.40617600083351135 0.044693998992443085 0.9127010107040405
vn 0.790785014629364 0.1048469990491867 0.6030470132827759
vn 0.7277799844741821 0.27747198939323425 0.6271730065345764
vn 0.7247539758682251 -0.27040401101112366 0.6337299942970276
vn 0.9485780000686646 -0.039785999804735184 0.3140319883823395
vn 0.969651997089386 -0.18039800226688385 0.16501900553703308
vn 0.9992660284042358 0.03183500096201897 0.021321000531315804
vn 0.997331976890564 -0.07045800238847733 -0.01910500042140484
vn 0.9934870004653931 0.11262200027704239 -0.01733900047838688
vn 0.9586290121078491 -0.22120599448680878 -0.1791599988937378
vn 0.9959530234336853 -0.04725699871778488 -0.07644899934530258
vn 0.9934870004653931 0.11262200027704239 -0.01733900047838688
vn 0.997331976890564 -0.07045800238847733 -0.01910500042140484
vn 0.6431679725646973 -0.46906399726867676 -0.6052380204200745
vn 0.8514999747276306 -0.2216939926147461 -0.47518399357795715
vn 0.015502999536693096 0.07325199991464615 0.9971929788589478
vn -0.36738499999046326 0.1418060064315796 0.9191949963569641
vn -0.3956499993801117 0.10502099990844727 0.9123769998550415
vn 0.0008420000085607171 0.02134300023317337 0.9997720122337341
vn 0.39046698808670044 -0.07261700183153152 0.9177489876747131
vn 0.41206100583076477 -0.00418600020930171 0.9111469984054565
vn 0.9833049774169922 -0.18184199929237366 0.006639999803155661
vn 0.9359400272369385 -0.16865499317646027 0.3091470003128052
vn 0.9528809785842896 -0.1019200012087822 0.28571000695228577
vn 0.9565680027008057 -0.2877579927444458 -0.046619001775979996
vn 0.7541199922561646 -0.1070920005440712 -0.6479470133781433
vn 0.937175989151001 -0.17518199980258942 -0.3016830086708069
vn 0.9710339903831482 -0.029682999476790428 -0.23709100484848022
vn 0.8272579908370972 0.31696099042892456 -0.46387600898742676
vn 0.7541199922561646 -0.1070920005440712 -0.6479470133781433
vn 0.8272579908370972 0.31696099042892456 -0.46387600898742676
vn 0.4075689911842346 0.2630540132522583 -0.8744660019874573
vn 0.38611701130867004 0.0025130000431090593 -0.9224460124969482
vn 0.021796999499201775 0.04789400100708008 -0.998615026473999
vn -0.0748789981007576 0.0945649966597557 -0.9926990270614624
vn -0.39261600375175476 0.09044499695301056 -0.915244996547699
vn -0.3768239915370941 0.12267500162124634 -0.9181259870529175
vn -0.7154309749603271 0.18854600191116333 -0.6727619767189026
vn -0.7154330015182495 0.14673499763011932 -0.6830989718437195
vn -0.9557380080223083 0.15503500401973724 -0.25005701184272766
vn -0.9385179877281189 0.22908300161361694 -0.25827500224113464
vn -0.9710649847984314 0.2382420003414154 -0.016540000215172768
vn -0.9902650117874146 0.13811199367046356 -0.01732500083744526
vn -0.9578350186347961 0.1394750028848648 0.2511950135231018
vn -0.9334369897842407 0.23310400545597076 0.27268698811531067
vn 0.6611670255661011 0.5725240111351013 -0.48484501242637634
vn 0.408145010471344 0.686834990978241 -0.6013950109481812
vn 0.7679290175437927 0.604744017124176 -0.2111150026321411
vn 0.6611670255661011 0.5725240111351013 -0.48484501242637634
vn 0.7874069809913635 0.5831170082092285 0.19991299510002136
vn 0.8457059860229492 0.5335230231285095 -0.011584999971091747
vn 0.1663839966058731 0.7153429985046387 0.6786760091781616
vn 0.3968789875507355 0.704721987247467 0.5880929827690125
vn -0.06982900202274323 0.8121809959411621 0.5792120099067688
vn -0.39563798904418945 0.9180070161819458 -0.02708600088953972
vn -0.462552011013031 0.8703799843788147 0.16877399384975433
vn -0.3372359871864319 0.8044869899749756 -0.4889500141143799
vn -0.44238200783729553 0.8817999958992004 -0.16348299384117126
vn 0.17096099257469177 0.6752079725265503 -0.7175419926643372
vn -0.08672700077295303 0.7882059812545776 -0.6092699766159058
vn 0.7718619704246521 -0.07219900190830231 0.631676971912384
vn 0.7427539825439453 -0.11125800013542175 0.6602569818496704
vn 0.6910160183906555 0.5418350100517273 0.4784480035305023
vn -0.3956499993801117 0.10502099990844727 0.9123769998550415
vn -0.4449869990348816 -0.03959000110626221 0.8946620225906372
vn 0.07424099743366241 -0.19851000607013702 0.9772830009460449
vn 0.0008420000085607171 0.02134300023317337 0.9997720122337341
vn 0.7718619704246521 -0.07219900190830231 0.631676971912384
vn 0.39046698808670044 -0.07261700183153152 0.9177489876747131
vn 0.6320329904556274 -0.42616701126098633 0.6472370028495789
vn 0.897022008895874 -0.30267098546028137 0.32208898663520813
vn 0.9565680027008057 -0.2877579927444458 -0.046619001775979996
vn 0.9528809785842896 -0.1019200012087822 0.28571000695228577
vn 0.9454280138015747 -0.2962169945240021 0.13572899997234344
vn 0.9195740222930908 -0.38886699080467224 -0.05626099929213524
vn 0.8272579908370972 0.31696099042892456 -0.46387600898742676
vn 0.9710339903831482 -0.029682999476790428 -0.23709100484848022
vn 0.9877349734306335 -0.02418999932706356 -0.15425600111484528
vn 0.811119019985199 0.39764299988746643 -0.4289120137691498
vn 0.4075689911842346 0.2630540132522583 -0.8744660019874573
vn 0.8272579908370972 0.31696099042892456 -0.46387600898742676
vn 0.811119019985199 0.39764299988746643 -0.4289120137691498
vn 0.13896599411964417 0.25455400347709656 -0.9570220112800598
vn -0.39261600375175476 0.09044499695301056 -0.915244996547699
vn -0.0748789981007576 0.0945649966597557 -0.9926990270614624
vn -0.12318100035190582 -0.2829819917678833 -0.9511820077896118
vn -0.3431459963321686 0.09347400069236755 -0.9346190094947815
vn -0.9557380080223083 0.15503500401973724 -0.25005701184272766
vn -0.7154330015182495 0.14673499763011932 -0.6830989718437195
vn -0.7926689982414246 0.101002998650074 -0.6012269854545593
vn -0.9851719737052917 0.04531100019812584 -0.16547900438308716
vn -0.9902650117874146 0.13811199367046356 -0.01732500083744526
vn -0.9998490214347839 0.015783000737428665 -0.007329999934881926
vn -0.9727140069007874 0.018698999658226967 0.2312539964914322
vn -0.9578350186347961 0.1394750028848648 0.2511950135231018
vn 0.719573974609375 -0.6790130138397217 0.1454470008611679
vn 0.7581239938735962 -0.6424189805984497 0.11200899630784988
vn 0.6314629912376404 -0.7751529812812805 0.019794000312685966
vn 0.46589401364326477 -0.8321089744567871 0.30089399218559265
vn 0.81038498878479 -0.4932689964771271 0.31616801023483276
vn 0.8534650206565857 -0.5194879770278931 0.04159500077366829
vn 0.15680499374866486 -0.953656017780304 -0.2568129897117615
vn 0.10496599972248077 -0.6045770049095154 -0.7896010279655457
vn 0.5810310244560242 -0.5096679925918579 -0.6345409750938416
vn 0.4719739854335785 -0.8535299897193909 -0.22074000537395477
vn 0.3972940146923065 -0.9158099889755249 -0.058726001530885696
vn 0.5484099984169006 -0.8327649831771851 0.07582200318574905
vn 0.337678998708725 -0.9371539950370789 0.08783099800348282
vn 0.1907760053873062 -0.9779139757156372 -0.08537399768829346
vn 0.2433219999074936 -0.2900719940662384 0.9255560040473938
vn -0.3997580111026764 -0.20374499261379242 0.8936899900436401
vn 0.9665539860725403 -0.2477400004863739 -0.06631600111722946
vn 0.97017902135849 -0.23726099729537964 -0.04958900064229965
vn 0.7387080192565918 -0.673022985458374 -0.03673800081014633
vn 0.7604889869689941 -0.6446340084075928 0.07812400162220001
vn 0.024715999141335487 -0.06022299826145172 -0.9978790283203125
vn -0.3814750015735626 0.022732999175786972 -0.9240999817848206
vn -0.7924020290374756 -0.10151100158691406 -0.6014930009841919
vn -0.9643639922142029 -0.20729400217533112 -0.16440899670124054
vn -0.9370970129966736 -0.2815920114517212 0.20628899335861206
vn -0.9667569994926453 -0.25544100999832153 -0.01142599992454052
vn 0.5014510154724121 -0.7952240109443665 -0.340831995010376
vn 0.6890550255775452 -0.7138339877128601 -0.12507900595664978
vn 0.9662110209465027 -0.2556929886341095 -0.03252999857068062
vn 0.7780410051345825 -0.103023000061512 -0.6197080016136169
vn 0.8876150250434875 -0.2663789987564087 0.37574198842048645
vn 0.7136930227279663 -0.6096230149269104 0.3449670076370239
vn 0.6383640170097351 -0.5714809894561768 0.5156559944152832
vn 0.3020710051059723 -0.2933669984340668 0.9070219993591309
vn -0.17277400195598602 -0.4757480025291443 0.8624460101127625
vn 0.2841930091381073 -0.8031550049781799 0.5236189961433411
vn 0.5014510154724121 -0.7952240109443665 -0.340831995010376
vn 0.7780410051345825 -0.103023000061512 -0.6197080016136169
vn 0.8094379901885986 -0.5818729996681213 0.07895900309085846
vn 0.7121260166168213 -0.6954900026321411 0.09575899690389633
vn 0.7020320296287537 -0.7108759880065918 0.04251300171017647
vn 0.8810449838638306 -0.4687100052833557 0.06380400061607361
vn 0.4225369989871979 -0.4468269944190979 -0.7885479927062988
vn 0.9275799989700317 -0.0060720001347362995 -0.37357500195503235
vn 0.888047993183136 -0.27403900027275085 0.3691520094871521
vn 0.5124480128288269 -0.78746098279953 0.34249401092529297
vn -0.09207899868488312 -0.9847059845924377 0.14790700376033783
vn -0.6975499987602234 -0.6837279796600342 0.21433599293231964
vn -0.7705199718475342 -0.6374149918556213 -0.0014019999653100967
vn -0.21543100476264954 -0.9743279814720154 -0.0653730034828186
vn -0.20897099375724792 -0.9296709895133972 -0.30338600277900696
vn -0.7357329726219177 -0.6265389919281006 -0.257189005613327
vn -0.6005139946937561 -0.49194398522377014 -0.6303769946098328
vn -0.31202200055122375 -0.8152679800987244 -0.4878320097923279
vn 0.9339060187339783 0.15732799470424652 0.321042001247406
vn 0.9275799989700317 -0.0060720001347362995 -0.37357500195503235
vn 0.888047993183136 -0.27403900027275085 0.3691520094871521
vn 0.5124480128288269 -0.78746098279953 0.34249401092529297
vn 0.024872999638319016 -0.9984170198440552 0.05043900012969971
vn -0.10010100156068802 -0.7090470194816589 -0.6980199813842773
vn 0.024872999638319016 -0.9984170198440552 0.05043900012969971
vn 0.24110999703407288 -0.012272999621927738 -0.9704200029373169
vn -0.22785699367523193 -0.20646899938583374 -0.9515519738197327
vn 0.9429889917373657 0.29117798805236816 -0.161204993724823
vn 0.9647989869117737 0.26156899333000183 -0.02727700024843216
vn 0.8754460215568542 0.21268300712108612 -0.434004008769989
vn 0.9572820067405701 0.2674509882926941 0.1099110022187233
vn 0.9813410043716431 -0.17058999836444855 -0.08870299905538559
vn 0.9336050152778625 -0.3539850115776062 -0.05546199902892113
vn 0.9356930255889893 -0.07472299784421921 -0.34481000900268555
vn 0.9753360152244568 -0.21861399710178375 -0.03047100082039833
vn 0.8754460215568542 0.21268300712108612 -0.434004008769989
vn 0.9500309824943542 -0.02456199936568737 0.3111880123615265
vn -0.31446799635887146 0.8306270241737366 0.4595310091972351
vn -0.6941019892692566 0.19944100081920624 0.6916970014572144
vn -0.7224100232124329 0.1332090049982071 0.6785119771957397
vn -0.788366973400116 -0.019321000203490257 0.6149020195007324
vn -0.7224100232124329 0.1332090049982071 0.6785119771957397
vn -0.752236008644104 -0.25178399682044983 0.6088889837265015
vn -0.4897420108318329 -0.6539899706840515 0.5765849947929382
vn 0.00583200016990304 -0.9377909898757935 0.3471510112285614
vn 0.9339060187339783 0.15732799470424652 0.321042001247406
vn 0.8876150250434875 -0.2663789987564087 0.37574198842048645
vn 0.7136930227279663 -0.6096230149269104 0.3449670076370239
vn 0.719573974609375 -0.6790130138397217 0.1454470008611679
vn 0.7581239938735962 -0.6424189805984497 0.11200899630784988
vn 0.897022008895874 -0.30267098546028137 0.32208898663520813
vn 0.7718619704246521 -0.07219900190830231 0.631676971912384
vn 0.7427539825439453 -0.11125800013542175 0.6602569818496704
vn 0.7718619704246521 -0.07219900190830231 0.631676971912384
vn 0.6910160183906555 0.5418350100517273 0.4784480035305023
vn -0.6425079703330994 0.33328700065612793 -0.6900020241737366
vn -0.6864259839057922 0.19753800332546234 -0.6998550295829773
vn -0.7141519784927368 0.11393199861049652 -0.6906560063362122
vn -0.28386199474334717 0.8731920123100281 -0.39618000388145447
vn -0.3372359871864319 0.8044869899749756 -0.4889500141143799
vn -0.7154309749603271 0.18854600191116333 -0.6727619767189026
vn -0.7154330015182495 0.14673499763011932 -0.6830989718437195
vn -0.7154330015182495 0.14673499763011932 -0.6830989718437195
vn -0.7926689982414246 0.101002998650074 -0.6012269854545593
vn -0.7924020290374756 -0.10151100158691406 -0.6014930009841919
vn -0.6005139946937561 -0.49194398522377014 -0.6303769946098328
vn -0.4897420108318329 -0.6539899706840515 0.5765849947929382
vn -0.752236008644104 -0.25178399682044983 0.6088889837265015
vn -0.788366973400116 -0.019321000203490257 0.6149020195007324
vn -0.7224100232124329 0.1332090049982071 0.6785119771957397
vn -0.6941019892692566 0.19944100081920624 0.6916970014572144
vn -0.7224100232124329 0.1332090049982071 0.6785119771957397
vn -0.31446799635887146 0.8306270241737366 0.4595310091972351
vn -0.30687201023101807 0.8682289719581604 0.3898810148239136
vn -0.7260169982910156 0.10092899948358536 0.6802300214767456
vn -0.6331499814987183 0.34928300976753235 0.6907399892807007
vn -0.5581049919128418 0.38020598888397217 0.7375379800796509
vn 0.6620219945907593 0.5063310265541077 0.552590012550354
vn 0.5726680159568787 0.7291989922523499 0.3745940029621124
vn 0.6158120036125183 0.7829830050468445 -0.08782599866390228
vn 0.6004350185394287 0.750789999961853 -0.2753030061721802
vn 0.5907440185546875 0.5201150178909302 -0.6168479919433594
vn -0.87813401222229 -0.25933200120925903 -0.40202999114990234
vn -0.668923020362854 -0.12062100321054459 -0.7334799766540527
vn -0.43435800075531006 -0.4746449887752533 -0.7655360102653503
vn 0.4242430031299591 -0.6460040211677551 -0.6345829963684082
vn 0.4242430031299591 -0.6460040211677551 -0.6345829963684082
vn 0.6453250050544739 -0.7013360261917114 -0.3027929961681366
vn 0.8524919748306274 -0.5204690098762512 0.04867900162935257
vn 0.7852479815483093 -0.5390409827232361 0.3046630024909973
vn 0.6914839744567871 -0.3780199885368347 0.61558997631073
vn 0.6914839744567871 -0.3780199885368347 0.61558997631073
vn -0.13187900185585022 -0.12174499779939651 0.9837610125541687
vn -0.619596004486084 -0.2960349917411804 0.726954996585846
vn -0.8818920254707336 -0.16850000619888306 0.4403110146522522
vn -0.8818920254707336 -0.16850000619888306 0.4403110146522522
vn -0.9887819886207581 -0.020135000348091125 0.14800100028514862
vn -0.9986510276794434 0.05173499882221222 0.00445199990645051
vn -0.9635090231895447 0.054694000631570816 -0.26202699542045593
vn -0.87813401222229 -0.25933200120925903 -0.40202999114990234

vt 0.659546971321106 0.056141018867492676
vt 0.6638110280036926 0.0598829984664917
vt 0.6768630146980286 0.0412830114364624
vt 0.6757739782333374 0.03813201189041138
vt 0.6822819709777832 0.029469013214111328
vt 0.681352972984314 0.027593016624450684
vt 0.5575230121612549 0.20984601974487305
vt 0.5578939914703369 0.21097999811172485
vt 0.5634419918060303 0.1975119709968567
vt 0.5624060034751892 0.19669097661972046
vt 0.57853102684021 0.16321402788162231
vt 0.5678690075874329 0.1846500039100647
vt 0.569845974445343 0.1848199963569641
vt 0.5842260122299194 0.16540801525115967
vt 0.5940470099449158 0.14442700147628784
vt 0.5993160009384155 0.14884799718856812
vt 0.6118860244750977 0.11853700876235962
vt 0.616500973701477 0.12365800142288208
vt 0.6229450106620789 0.11212098598480225
vt 0.6183599829673767 0.10580599308013916
vt 0.6361799836158752 0.08520698547363281
vt 0.6297569870948792 0.10212397575378418
vt 0.6327840089797974 0.10386902093887329
vt 0.6408550143241882 0.0898740291595459
vt 0.6499300003051758 0.0724409818649292
vt 0.6549019813537598 0.07963597774505615
vt 0.4797160029411316 0.8212250024080276
vt 0.4757150113582611 0.8749759942293167
vt 0.468313992023468 0.8749759942293167
vt 0.4683170020580292 0.8174729943275452
vt 0.47410500049591064 0.9158449992537498
vt 0.4676840007305145 0.9161859974265099
vt 0.468313992023468 0.8749759942293167
vt 0.4757150113582611 0.8749759942293167
vt 0.47278299927711487 0.9680950008332729
vt 0.4668799936771393 0.9671269990503788
vt 0.46593400835990906 0.9440619982779026
vt 0.4710949957370758 0.9436179995536804
vt 0.48477399349212646 0.5550999939441681
vt 0.47446298599243164 0.5583910048007965
vt 0.4678179919719696 0.4999939799308777
vt 0.47503501176834106 0.4999939799308777
vt 0.48638901114463806 0.5775069892406464
vt 0.4750399887561798 0.5817930102348328
vt 0.48393699526786804 0.6836619973182678
vt 0.4698280096054077 0.685929000377655
vt 0.4704659879207611 0.6601249873638153
vt 0.4837000072002411 0.6571590006351471
vt 0.48446598649024963 0.7081489861011505
vt 0.4846250116825104 0.7493509948253632
vt 0.4715290069580078 0.7493509948253632
vt 0.4714460074901581 0.709196001291275
vt 0.480087012052536 0.7997750043869019
vt 0.4683229923248291 0.7944249957799911
vt 0.48966801166534424 0.8254469931125641
vt 0.5096449851989746 0.8326549977064133
vt 0.4934830069541931 0.8749759942293167
vt 0.483940988779068 0.8749759942293167
vt 0.483940988779068 0.8749759942293167
vt 0.4934830069541931 0.8749759942293167
vt 0.4909589886665344 0.9153880029916763
vt 0.4812830090522766 0.9161989986896515
vt 0.47961699962615967 0.9420280009508133
vt 0.48649001121520996 0.9377329982817173
vt 0.4895839989185333 0.9619800001382828
vt 0.48002201318740845 0.9683040007948875
vt 0.4920310080051422 0.4999939799308777
vt 0.5142840147018433 0.5433709919452667
vt 0.4933969974517822 0.5511470139026642
vt 0.4828599989414215 0.4999939799308777
vt 0.5226920247077942 0.5641080141067505
vt 0.4975369870662689 0.574099987745285
vt 0.5295330286026001 0.6562910079956055
vt 0.532941997051239 0.6803309917449951
vt 0.4992929995059967 0.6813639998435974
vt 0.49826401472091675 0.6552050113677979
vt 0.49932101368904114 0.706281989812851
vt 0.5307760238647461 0.7036400139331818
vt 0.5306940078735352 0.7493509948253632
vt 0.49889200925827026 0.7493509948253632
vt 0.49210798740386963 0.8028109967708588
vt 0.5155550241470337 0.8075660020112991
vt 0.24218299984931946 0.17718100547790527
vt 0.2302190065383911 0.1774359941482544
vt 0.2348729968070984 0.21425402164459229
vt 0.24110600352287292 0.21425402164459229
vt 0.19575800001621246 0.16959398984909058
vt 0.19575800001621246 0.21425402164459229
vt 0.24146400392055511 0.12692099809646606
vt 0.2299409955739975 0.12639200687408447
vt 0.22962099313735962 0.15229099988937378
vt 0.24333499372005463 0.1521090269088745
vt 0.19575800001621246 0.131850004196167
vt 0.19575800001621246 0.1511330008506775
vt 0.6882240176200867 0.017628014087677002
vt 0.6877120137214661 0.016593992710113525
vt 0.5318909883499146 0.6244840025901794
vt 0.5031909942626953 0.6244840025901794
vt 0.476608008146286 0.6244840025901794
vt 0.48913300037384033 0.6244840025901794
vt 0.47503501176834106 0.9995470000139903
vt 0.4678179919719696 0.9995470000139903
vt 0.4920310080051422 0.9995470000139903
vt 0.4828599989414215 0.9995470000139903
vt 0.19575800001621246 0.08999001979827881
vt 0.23224300146102905 0.08999001979827881
vt 0.23868300020694733 0.08999001979827881
vt 0.600845992565155 0.1291159987449646
vt 0.605239987373352 0.13370001316070557
vt 0.6675779819488525 0.08452397584915161
vt 0.6856420040130615 0.09799700975418091
vt 0.6863570213317871 0.08993399143218994
vt 0.6730790138244629 0.06831502914428711
vt 0.6595739722251892 0.10344201326370239
vt 0.6495010256767273 0.11648702621459961
vt 0.6750509738922119 0.12603998184204102
vt 0.6829519867897034 0.10816901922225952
vt 0.6415460109710693 0.12895601987838745
vt 0.6650019884109497 0.1404610276222229
vt 0.6311550140380859 0.1402760148048401
vt 0.6483650207519531 0.15661001205444336
vt 0.6138049960136414 0.14966297149658203
vt 0.6343790292739868 0.16607701778411865
vt 0.6055439710617065 0.1611419916152954
vt 0.5923159718513489 0.16908001899719238
vt 0.618274986743927 0.17349398136138916
vt 0.6259279847145081 0.17005300521850586
vt 0.5744069814682007 0.18543601036071777
vt 0.5827580094337463 0.18901002407073975
vt 0.5671769976615906 0.19894397258758545
vt 0.5731800198554993 0.20300602912902832
vt 0.561676025390625 0.21231400966644287
vt 0.5676079988479614 0.2162579894065857
vt 0.6858450174331665 0.03226602077484131
vt 0.6899589896202087 0.036516010761260986
vt 0.696528971195221 0.024870991706848145
vt 0.691677987575531 0.019895970821380615
vt 0.6797149777412415 0.04516398906707764
vt 0.6847040057182312 0.0519220232963562
vt 0.45328399538993835 0.5599400103092194
vt 0.453575998544693 0.5861789882183075
vt 0.4221639931201935 0.5848090052604675
vt 0.4221639931201935 0.5579150021076202
vt 0.4221639931201935 0.5271080136299133
vt 0.4544979929924011 0.5299969911575317
vt 0.4483250081539154 0.939895998686552
vt 0.4484489858150482 0.9682670012116432
vt 0.4221639931201935 0.9690390005707741
vt 0.4221639931201935 0.9383260011672974
vt 0.44797399640083313 0.8749759942293167
vt 0.4479930102825165 0.9122830033302307
vt 0.4221639931201935 0.9086619988083839
vt 0.4221639931201935 0.8749759942293167
vt 0.44797399640083313 0.8749759942293167
vt 0.4221639931201935 0.8749759942293167
vt 0.4221639931201935 0.8483050018548965
vt 0.44659900665283203 0.8430979996919632
vt 0.44613298773765564 0.8159369975328445
vt 0.4221639931201935 0.8161720037460327
vt 0.4221639931201935 0.7900860011577606
vt 0.4468019902706146 0.7894140034914017
vt 0.44874098896980286 0.7493509948253632
vt 0.4221639931201935 0.7493509948253632
vt 0.4221639931201935 0.717059999704361
vt 0.4508439898490906 0.710777997970581
vt 0.4502370059490204 0.684334009885788
vt 0.4221639931201935 0.6883279979228973
vt 0.4221639931201935 0.6587949991226196
vt 0.44867798686027527 0.6571410000324249
vt 0.46251100301742554 0.8749759942293167
vt 0.4613789916038513 0.8417360037565231
vt 0.4623450040817261 0.9115099981427193
vt 0.46251100301742554 0.8749759942293167
vt 0.4630039930343628 0.9666859991848469
vt 0.46279799938201904 0.9373140037059784
vt 0.46678799390792847 0.5588189959526062
vt 0.46811699867248535 0.5327169895172119
vt 0.46782299876213074 0.5835599899291992
vt 0.46479499340057373 0.68436598777771
vt 0.46278899908065796 0.6581209897994995
vt 0.4636920094490051 0.7493509948253632
vt 0.4648880064487457 0.7105039954185486
vt 0.4608350098133087 0.8161730021238327
vt 0.46143901348114014 0.792262002825737
vt 0.4221639931201935 0.4999939799308777
vt 0.44934898614883423 0.4999939799308777
vt 0.46418800950050354 0.4999939799308777
vt 0.8352349996566772 0.3532950282096863
vt 0.841081976890564 0.33606499433517456
vt 0.8369510173797607 0.3358039855957031
vt 0.831570029258728 0.34936898946762085
vt 0.8239459991455078 0.33948999643325806
vt 0.8273810148239136 0.3447200059890747
vt 0.8278340101242065 0.33285200595855713
vt 0.8241140246391296 0.33163899183273315
vt 0.8146250247955322 0.2980690002441406
vt 0.8151019811630249 0.306443989276886
vt 0.8173559904098511 0.30393099784851074
vt 0.8161010146141052 0.2979559898376465
vt 0.8129280209541321 0.28270602226257324
vt 0.8143439888954163 0.29015499353408813
vt 0.8155859708786011 0.28880900144577026
vt 0.8146010041236877 0.2801709771156311
vt 0.8308460116386414 0.24149298667907715
vt 0.8268010020256042 0.2414420247077942
vt 0.8268870115280151 0.24523097276687622
vt 0.8308200240135193 0.2493780255317688
vt 0.8398709893226624 0.23790299892425537
vt 0.8359820246696472 0.24002200365066528
vt 0.8360220193862915 0.2566710114479065
vt 0.8419970273971558 0.257781982421875
vt 0.8737800121307373 0.28627002239227295
vt 0.8731939792633057 0.2781820297241211
vt 0.8600410223007202 0.2801769971847534
vt 0.8604850172996521 0.2877870202064514
vt 0.8744890093803406 0.2942020297050476
vt 0.8607019782066345 0.29633498191833496
vt 0.8613659739494324 0.3048350214958191
vt 0.8744819760322571 0.30251598358154297
vt 0.8290460109710693 0.323199987411499
vt 0.8249379992485046 0.3227829933166504
vt 0.8245090246200562 0.28862500190734863
vt 0.8248469829559326 0.28364598751068115
vt 0.821590006351471 0.2835479974746704
vt 0.820285975933075 0.28925299644470215
vt 0.843330979347229 0.28662699460983276
vt 0.8430290222167969 0.2804039716720581
vt 0.8423240184783936 0.28076499700546265
vt 0.8424929976463318 0.28709501028060913
vt 0.8427219986915588 0.29563701152801514
vt 0.8420209884643555 0.30228400230407715
vt 0.8431220054626465 0.30221402645111084
vt 0.8437219858169556 0.2954059839248657
vt 0.8406069874763489 0.3269829750061035
vt 0.8438929915428162 0.32742398977279663
vt 0.8336039781570435 0.3023449778556824
vt 0.8344200253486633 0.2951729893684387
vt 0.8290209770202637 0.29418402910232544
vt 0.8284770250320435 0.3012400269508362
vt 0.8421409726142883 0.26422399282455444
vt 0.8452110290527344 0.2646329998970032
vt 0.856203019618988 0.27976900339126587
vt 0.8561260104179382 0.2874019742012024
vt 0.8564860224723816 0.30437201261520386
vt 0.8558840155601501 0.29601502418518066
vt 0.8288859724998474 0.2832790017127991
vt 0.8288319706916809 0.2883960008621216
vt 0.8342379927635193 0.2872089743614197
vt 0.8340389728546143 0.27998900413513184
vt 0.8374000191688538 0.31793898344039917
vt 0.8324440121650696 0.3219580054283142
vt 0.8414809703826904 0.30775201320648193
vt 0.8423460125923157 0.32076698541641235
vt 0.8443459868431091 0.31928300857543945
vt 0.8426160216331482 0.3077639937400818
vt 0.8358889818191528 0.26798301935195923
vt 0.8401100039482117 0.27053898572921753
vt 0.8206260204315186 0.298691987991333
vt 0.8248270153999329 0.3002309799194336
vt 0.824662983417511 0.2938550114631653
vt 0.8194119930267334 0.29473400115966797
vt 0.8280460238456726 0.2582640051841736
vt 0.8257690072059631 0.2568489909172058
vt 0.8257060050964355 0.26422297954559326
vt 0.827970027923584 0.26622700691223145
vt 0.8442270159721375 0.3015260100364685
vt 0.8506079912185669 0.3040900230407715
vt 0.8505759835243225 0.29605597257614136
vt 0.844730019569397 0.295399010181427
vt 0.8441529870033264 0.28717297315597534
vt 0.8503360152244568 0.2874490022659302
vt 0.8500319719314575 0.27976298332214355
vt 0.8437680006027222 0.28086400032043457
vt 0.8388500213623047 0.3116909861564636
vt 0.8192099928855896 0.2721250057220459
vt 0.8211780190467834 0.2771270275115967
vt 0.8230850100517273 0.27772098779678345
vt 0.8315860033035278 0.2651839852333069
vt 0.8300719857215881 0.25965601205825806
vt 0.8258079886436462 0.27840399742126465
vt 0.8427039980888367 0.2743980288505554
vt 0.845242977142334 0.27418798208236694
vt 0.8370180130004883 0.3020560145378113
vt 0.8375149965286255 0.2956809997558594
vt 0.8372039794921875 0.2806270122528076
vt 0.8374649882316589 0.28755897283554077
vt 0.840283989906311 0.30187100172042847
vt 0.8409140110015869 0.29574400186538696
vt 0.8405020236968994 0.2813420295715332
vt 0.8407559990882874 0.28803402185440063
vt 0.8400449752807617 0.2760239839553833
vt 0.8399149775505066 0.30739402770996094
vt 0.46949899196624756 0.6244840025901794
vt 0.45468199253082275 0.6244840025901794
vt 0.4221639931201935 0.6244840025901794
vt 0.8616499900817871 0.3124390244483948
vt 0.8747280240058899 0.3108059763908386
vt 0.8563159704208374 0.31194400787353516
vt 0.850130021572113 0.3117870092391968
vt 0.8438289761543274 0.30702197551727295
vt 0.8368740081787109 0.30815500020980835
vt 0.833092987537384 0.3090429902076721
vt 0.8279799818992615 0.3078640103340149
vt 0.8248040080070496 0.3063089847564697
vt 0.8215919733047485 0.3025659918785095
vt 0.8184790015220642 0.3097149729728699
vt 0.8154360055923462 0.31477200984954834
vt 0.44934898614883423 0.9995470000139903
vt 0.4221639931201935 0.9995470000139903
vt 0.46418800950050354 0.9995470000139903
vt 0.49889200925827026 0.7493509948253632
vt 0.5306940078735352 0.7493509948253632
vt 0.4846250116825104 0.7493509948253632
vt 0.4715290069580078 0.7493509948253632
vt 0.4636920094490051 0.7493509948253632
vt 0.44874098896980286 0.7493509948253632
vt 0.4221639931201935 0.7493509948253632
vt 0.8442839980125427 0.23519998788833618
vt 0.8483260273933411 0.2582169771194458
vt 0.8488960266113281 0.265064001083374
vt 0.8479710221290588 0.2741829752922058
vt 0.8466399908065796 0.3172370195388794
vt 0.8477640151977539 0.32757997512817383
vt 0.8459029793739319 0.33633899688720703
vt 0.8393489718437195 0.35764098167419434
vt 0.45468199253082275 0.6244840025901794
vt 0.4221639931201935 0.6244840025901794
vt 0.46949899196624756 0.6244840025901794
vt 0.476608008146286 0.6244840025901794
vt 0.48913300037384033 0.6244840025901794
vt 0.5031909942626953 0.6244840025901794
vt 0.5318909883499146 0.6244840025901794
vt 0.25741299986839294 0.08999001979827881
vt 0.25741299986839294 0.12206298112869263
vt 0.25741299986839294 0.15091699361801147
vt 0.25741299986839294 0.17350399494171143
vt 0.25741299986839294 0.21425402164459229
vt 0.5422689914703369 0.7493509948253632
vt 0.5259609818458557 0.8065059930086136
vt 0.5128470063209534 0.8332200050354004
vt 0.500328004360199 0.8749759942293167
vt 0.500328004360199 0.8749759942293167
vt 0.4972720146179199 0.9152790009975433
vt 0.4937559962272644 0.9357699975371361
vt 0.49610400199890137 0.9576609991490841
vt 0.4988360106945038 0.9995470000139903
vt 0.4988360106945038 0.4999939799308777
vt 0.5225579738616943 0.5377239882946014
vt 0.5421140193939209 0.5624159872531891
vt 0.5436000227928162 0.6244840025901794
vt 0.5436000227928162 0.6244840025901794
vt 0.5454549789428711 0.6607280075550079
vt 0.5409200191497803 0.6838200092315674
vt 0.5467320084571838 0.7052820026874542
vt 0.5422689914703369 0.7493509948253632

usemtl Material

f 1/1/1 2/2/2 3/3/3
f 3/3/3 4/4/4 1/1/1
f 4/4/4 3/3/3 5/5/5
f 5/5/5 6/6/6 4/4/4
f 7/7/7 8/8/8 9/9/9
f 9/9/9 10/10/10 7/7/7
f 11/11/11 12/12/12 13/13/13
f 13/13/13 14/14/14 11/11/11
f 15/15/15 11/11/11 14/14/14
f 14/14/14 16/16/16 15/15/15
f 17/17/17 18/18/18 19/19/19
f 19/19/19 20/20/20 17/17/17
f 21/21/21 22/22/22 23/23/23
f 23/23/23 24/24/24 21/21/21
f 25/25/25 26/26/26 2/2/2
f 2/2/2 1/1/1 25/25/25
f 27/27/27 28/28/28 29/29/29
f 29/29/29 30/30/30 27/27/27
f 31/31/31 32/32/32 33/33/33
f 33/33/33 34/34/34 31/31/31
f 35/35/35 36/36/36 37/37/37
f 37/37/37 38/38/38 35/35/35
f 39/39/39 40/40/40 41/41/41
f 41/41/41 42/42/42 39/39/39
f 43/43/43 44/44/44 40/40/40
f 40/40/40 39/39/39 43/43/43
f 45/45/45 46/46/46 47/47/47
f 47/47/47 48/48/48 45/45/45
f 49/49/49 50/50/50 51/51/51
f 51/51/51 52/52/52 49/49/49
f 53/53/53 27/27/27 30/30/30
f 30/30/30 54/54/54 53/53/53
f 55/55/55 56/56/56 57/57/57
f 57/57/57 58/58/58 55/55/55
f 59/59/59 60/60/60 61/61/61
f 61/61/61 62/62/62 59/59/59
f 63/63/63 64/64/64 65/65/65
f 65/65/65 66/66/66 63/63/63
f 67/67/67 68/68/68 69/69/69
f 69/69/69 70/70/70 67/67/67
f 68/68/68 71/71/71 72/72/72
f 72/72/72 69/69/69 68/68/68
f 73/73/73 74/74/74 75/75/75
f 75/75/75 76/76/76 73/73/73
f 77/77/77 78/78/78 79/79/79
f 79/79/79 80/80/80 77/77/77
f 81/81/81 82/82/82 56/56/56
f 56/56/56 55/55/55 81/81/81
f 83/83/83 84/84/84 85/85/85
f 85/85/85 86/86/86 83/83/83
f 84/84/84 87/87/87 88/88/88
f 88/88/88 85/85/85 84/84/84
f 89/89/89 90/90/90 91/91/91
f 91/91/91 92/92/92 89/89/89
f 93/93/93 94/94/94 91/91/91
f 91/91/91 90/90/90 93/93/93
f 75/75/75 74/74/74 78/78/78
f 78/78/78 77/77/77 75/75/75
f 49/49/49 52/52/52 46/46/46
f 46/46/46 45/45/45 49/49/49
f 38/38/38 37/37/37 32/32/32
f 32/32/32 31/31/31 38/38/38
f 62/62/62 61/61/61 64/64/64
f 64/64/64 63/63/63 62/62/62
f 6/6/6 5/5/5 95/95/95
f 95/95/95 96/96/96 6/6/6
f 87/87/87 84/84/84 91/91/91
f 91/91/91 94/94/94 87/87/87
f 83/83/83 92/92/92 91/91/91
f 91/91/91 84/84/84 83/83/83
f 22/22/22 20/20/20 19/19/19
f 19/19/19 23/23/23 22/22/22
f 97/97/97 73/73/73 76/76/76
f 76/76/76 98/98/98 97/97/97
f 48/48/48 47/47/47 99/99/99
f 99/99/99 100/100/100 48/48/48
f 35/35/35 101/101/101 102/102/102
f 102/102/102 36/36/36 35/35/35
f 66/66/66 65/65/65 103/103/103
f 103/103/103 104/104/104 66/66/66
f 12/12/12 10/10/10 9/9/9
f 9/9/9 13/13/13 12/12/12
f 105/105/105 93/93/93 90/90/90
f 90/90/90 106/106/106 105/105/105
f 107/107/107 106/106/106 90/90/90
f 90/90/90 89/89/89 107/107/107
f 108/108/108 109/109/109 18/18/18
f 18/18/18 17/17/17 108/108/108
f 55/55/55 27/27/27 53/53/53
f 53/53/53 81/81/81 55/55/55
f 50/50/50 49/49/49 77/77/77
f 77/77/77 80/80/80 50/50/50
f 77/77/77 49/49/49 45/45/45
f 45/45/45 75/75/75 77/77/77
f 45/45/45 48/48/48 76/76/76
f 76/76/76 75/75/75 45/45/45
f 76/76/76 48/48/48 100/100/100
f 100/100/100 98/98/98 76/76/76
f 72/72/72 43/43/43 39/39/39
f 39/39/39 69/69/69 72/72/72
f 39/39/39 42/42/42 70/70/70
f 70/70/70 69/69/69 39/39/39
f 101/101/101 35/35/35 66/66/66
f 66/66/66 104/104/104 101/101/101
f 66/66/66 35/35/35 38/38/38
f 38/38/38 63/63/63 66/66/66
f 63/63/63 38/38/38 31/31/31
f 31/31/31 62/62/62 63/63/63
f 62/62/62 31/31/31 34/34/34
f 34/34/34 59/59/59 62/62/62
f 28/28/28 27/27/27 55/55/55
f 55/55/55 58/58/58 28/28/28
f 110/110/110 111/111/111 112/112/112
f 112/112/112 113/113/113 110/110/110
f 114/114/114 115/115/115 116/116/116
f 116/116/116 117/117/117 114/114/114
f 115/115/115 118/118/118 119/119/119
f 119/119/119 116/116/116 115/115/115
f 118/118/118 120/120/120 121/121/121
f 121/121/121 119/119/119 118/118/118
f 120/120/120 122/122/122 123/123/123
f 123/123/123 121/121/121 120/120/120
f 124/124/124 125/125/125 126/126/126
f 126/126/126 127/127/127 124/124/124
f 125/125/125 128/128/128 129/129/129
f 129/129/129 126/126/126 125/125/125
f 130/130/130 131/131/131 129/129/129
f 129/129/129 128/128/128 130/130/130
f 132/132/132 133/133/133 131/131/131
f 131/131/131 130/130/130 132/132/132
f 134/134/134 135/135/135 136/136/136
f 136/136/136 137/137/137 134/134/134
f 138/138/138 139/139/139 135/135/135
f 135/135/135 134/134/134 138/138/138
f 113/113/113 112/112/112 139/139/139
f 139/139/139 138/138/138 113/113/113
f 140/140/140 141/141/141 142/142/142
f 142/142/142 143/143/143 140/140/140
f 140/140/140 143/143/143 144/144/144
f 144/144/144 145/145/145 140/140/140
f 146/146/146 147/147/147 148/148/148
f 148/148/148 149/149/149 146/146/146
f 150/150/150 151/151/151 152/152/152
f 152/152/152 153/153/153 150/150/150
f 154/154/154 155/155/155 156/156/156
f 156/156/156 157/157/157 154/154/154
f 158/158/158 159/159/159 160/160/160
f 160/160/160 161/161/161 158/158/158
f 162/162/162 163/163/163 164/164/164
f 164/164/164 165/165/165 162/162/162
f 166/166/166 167/167/167 168/168/168
f 168/168/168 169/169/169 166/166/166
f 170/170/170 171/171/171 29/29/29
f 33/33/33 32/32/32 172/172/172
f 172/172/172 173/173/173 33/33/33
f 37/37/37 36/36/36 174/174/174
f 174/174/174 175/175/175 37/37/37
f 176/176/176 177/177/177 40/40/40
f 40/40/40 44/44/44 178/178/178
f 178/178/178 176/176/176 40/40/40
f 47/47/47 46/46/46 179/179/179
f 179/179/179 180/180/180 47/47/47
f 51/51/51 181/181/181 182/182/182
f 182/182/182 52/52/52 51/51/51
f 30/30/30 183/183/183 184/184/184
f 184/184/184 54/54/54 30/30/30
f 172/172/172 151/151/151 150/150/150
f 150/150/150 173/173/173 172/172/172
f 174/174/174 147/147/147 146/146/146
f 146/146/146 175/175/175 174/174/174
f 176/176/176 140/140/140 145/145/145
f 145/145/145 177/177/177 176/176/176
f 178/178/178 141/141/141 140/140/140
f 140/140/140 176/176/176 178/178/178
f 180/180/180 179/179/179 166/166/166
f 166/166/166 169/169/169 180/180/180
f 182/182/182 181/181/181 162/162/162
f 162/162/162 165/165/165 182/182/182
f 184/184/184 183/183/183 158/158/158
f 158/158/158 161/161/161 184/184/184
f 170/170/170 154/154/154 157/157/157
f 157/157/157 171/171/171 170/170/170
f 157/157/157 156/156/156 159/159/159
f 159/159/159 158/158/158 157/157/157
f 158/158/158 183/183/183 171/171/171
f 171/171/171 157/157/157 158/158/158
f 30/30/30 29/29/29 171/171/171
f 171/171/171 183/183/183 30/30/30
f 145/145/145 144/144/144 185/185/185
f 185/185/185 186/186/186 145/145/145
f 187/187/187 177/177/177 145/145/145
f 145/145/145 186/186/186 187/187/187
f 41/41/41 40/40/40 177/177/177
f 177/177/177 187/187/187 41/41/41
f 188/188/188 189/189/189 190/190/190
f 190/190/190 191/191/191 188/188/188
f 192/192/192 193/193/193 194/194/194
f 194/194/194 195/195/195 192/192/192
f 196/196/196 197/197/197 198/198/198
f 198/198/198 199/199/199 196/196/196
f 200/200/200 201/201/201 202/202/202
f 202/202/202 203/203/203 200/200/200
f 204/204/204 205/205/205 206/206/206
f 206/206/206 207/207/207 204/204/204
f 208/208/208 209/209/209 210/210/210
f 210/210/210 211/211/211 208/208/208
f 212/212/212 213/213/213 214/214/214
f 214/214/214 215/215/215 212/212/212
f 216/216/216 217/217/217 218/218/218
f 218/218/218 219/219/219 216/216/216
f 194/194/194 220/220/220 221/221/221
f 221/221/221 195/195/195 194/194/194
f 222/222/222 223/223/223 224/224/224
f 224/224/224 225/225/225 222/222/222
f 226/226/226 227/227/227 228/228/228
f 228/228/228 229/229/229 226/226/226
f 230/230/230 231/231/231 232/232/232
f 232/232/232 233/233/233 230/230/230
f 234/234/234 190/190/190 189/189/189
f 189/189/189 235/235/235 234/234/234
f 236/236/236 237/237/237 238/238/238
f 238/238/238 239/239/239 236/236/236
f 240/240/240 241/241/241 211/211/211
f 211/211/211 210/210/210 240/240/240
f 242/242/242 243/243/243 215/215/215
f 215/215/215 214/214/214 242/242/242
f 244/244/244 218/218/218 217/217/217
f 217/217/217 245/245/245 244/244/244
f 246/246/246 247/247/247 248/248/248
f 248/248/248 249/249/249 246/246/246
f 234/234/234 250/250/250 251/251/251
f 251/251/251 190/190/190 234/234/234
f 252/252/252 253/253/253 254/254/254
f 254/254/254 255/255/255 252/252/252
f 240/240/240 210/210/210 256/256/256
f 256/256/256 257/257/257 240/240/240
f 258/258/258 259/259/259 260/260/260
f 260/260/260 261/261/261 258/258/258
f 224/224/224 203/203/203 202/202/202
f 202/202/202 225/225/225 224/224/224
f 258/258/258 261/261/261 199/199/199
f 199/199/199 198/198/198 258/258/258
f 262/262/262 263/263/263 264/264/264
f 264/264/264 265/265/265 262/262/262
f 266/266/266 267/267/267 268/268/268
f 268/268/268 269/269/269 266/266/266
f 270/270/270 271/271/271 272/272/272
f 272/272/272 273/273/273 270/270/270
f 250/250/250 234/234/234 253/253/253
f 253/253/253 274/274/274 250/250/250
f 275/275/275 203/203/203 224/224/224
f 224/224/224 276/276/276 275/275/275
f 277/277/277 276/276/276 224/224/224
f 224/224/224 223/223/223 277/277/277
f 278/278/278 256/256/256 210/210/210
f 210/210/210 279/279/279 278/278/278
f 263/263/263 262/262/262 207/207/207
f 207/207/207 206/206/206 263/263/263
f 191/191/191 190/190/190 194/194/194
f 194/194/194 193/193/193 191/191/191
f 194/194/194 190/190/190 251/251/251
f 251/251/251 220/220/220 194/194/194
f 259/259/259 239/239/239 238/238/238
f 238/238/238 260/260/260 259/259/259
f 247/247/247 246/246/246 223/223/223
f 223/223/223 222/222/222 247/247/247
f 280/280/280 277/277/277 223/223/223
f 223/223/223 246/246/246 280/280/280
f 279/279/279 262/262/262 265/265/265
f 265/265/265 278/278/278 279/279/279
f 279/279/279 210/210/210 207/207/207
f 207/207/207 262/262/262 279/279/279
f 209/209/209 204/204/204 207/207/207
f 207/207/207 210/210/210 209/209/209
f 281/281/281 282/282/282 241/241/241
f 241/241/241 240/240/240 281/281/281
f 272/272/272 271/271/271 243/243/243
f 243/243/243 242/242/242 272/272/272
f 267/267/267 244/244/244 245/245/245
f 245/245/245 268/268/268 267/267/267
f 253/253/253 234/234/234 235/235/235
f 235/235/235 254/254/254 253/253/253
f 283/283/283 284/284/284 237/237/237
f 237/237/237 236/236/236 283/283/283
f 285/285/285 249/249/249 248/248/248
f 248/248/248 286/286/286 285/285/285
f 287/287/287 288/288/288 284/284/284
f 284/284/284 283/283/283 287/287/287
f 289/289/289 285/285/285 286/286/286
f 286/286/286 290/290/290 289/289/289
f 281/281/281 228/228/228 227/227/227
f 227/227/227 282/282/282 281/281/281
f 257/257/257 291/291/291 281/281/281
f 281/281/281 240/240/240 257/257/257
f 291/291/291 289/289/289 228/228/228
f 228/228/228 281/281/281 291/291/291
f 289/289/289 290/290/290 229/229/229
f 229/229/229 228/228/228 289/289/289
f 288/288/288 287/287/287 231/231/231
f 231/231/231 230/230/230 288/288/288
f 274/274/274 253/253/253 252/252/252
f 252/252/252 292/292/292 274/274/274
f 46/46/46 52/52/52 182/182/182
f 182/182/182 179/179/179 46/46/46
f 179/179/179 182/182/182 165/165/165
f 165/165/165 166/166/166 179/179/179
f 165/165/165 164/164/164 167/167/167
f 167/167/167 166/166/166 165/165/165
f 216/216/216 212/212/212 215/215/215
f 215/215/215 217/217/217 216/216/216
f 245/245/245 217/217/217 215/215/215
f 215/215/215 243/243/243 245/245/245
f 271/271/271 268/268/268 245/245/245
f 245/245/245 243/243/243 271/271/271
f 271/271/271 270/270/270 269/269/269
f 269/269/269 268/268/268 271/271/271
f 233/233/233 226/226/226 229/229/229
f 229/229/229 230/230/230 233/233/233
f 288/288/288 230/230/230 229/229/229
f 229/229/229 290/290/290 288/288/288
f 290/290/290 286/286/286 284/284/284
f 284/284/284 288/288/288 290/290/290
f 286/286/286 248/248/248 237/237/237
f 237/237/237 284/284/284 286/286/286
f 248/248/248 247/247/247 238/238/238
f 238/238/238 237/237/237 248/248/248
f 247/247/247 222/222/222 260/260/260
f 260/260/260 238/238/238 247/247/247
f 260/260/260 222/222/222 225/225/225
f 225/225/225 261/261/261 260/260/260
f 202/202/202 199/199/199 261/261/261
f 261/261/261 225/225/225 202/202/202
f 201/201/201 196/196/196 199/199/199
f 199/199/199 202/202/202 201/201/201
f 151/151/151 146/146/146 149/149/149
f 149/149/149 152/152/152 151/151/151
f 175/175/175 146/146/146 151/151/151
f 151/151/151 172/172/172 175/175/175
f 32/32/32 37/37/37 175/175/175
f 175/175/175 172/172/172 32/32/32
f 99/99/99 47/47/47 180/180/180
f 180/180/180 293/293/293 99/99/99
f 180/180/180 169/169/169 294/294/294
f 294/294/294 293/293/293 180/180/180
f 294/294/294 169/169/169 168/168/168
f 168/168/168 295/295/295 294/294/294
f 219/219/219 218/218/218 296/296/296
f 296/296/296 297/297/297 219/219/219
f 298/298/298 296/296/296 218/218/218
f 218/218/218 244/244/244 298/298/298
f 299/299/299 298/298/298 244/244/244
f 244/244/244 267/267/267 299/299/299
f 300/300/300 299/299/299 267/267/267
f 267/267/267 266/266/266 300/300/300
f 231/231/231 252/252/252 255/255/255
f 255/255/255 232/232/232 231/231/231
f 287/287/287 292/292/292 252/252/252
f 252/252/252 231/231/231 287/287/287
f 292/292/292 287/287/287 283/283/283
f 283/283/283 301/301/301 292/292/292
f 301/301/301 283/283/283 236/236/236
f 236/236/236 302/302/302 301/301/301
f 302/302/302 236/236/236 239/239/239
f 239/239/239 303/303/303 302/302/302
f 304/304/304 303/303/303 239/239/239
f 239/239/239 259/259/259 304/304/304
f 305/305/305 304/304/304 259/259/259
f 259/259/259 258/258/258 305/305/305
f 305/305/305 258/258/258 198/198/198
f 198/198/198 306/306/306 305/305/305
f 197/197/197 307/307/307 306/306/306
f 306/306/306 198/198/198 197/197/197
f 308/308/308 309/309/309 148/148/148
f 148/148/148 147/147/147 308/308/308
f 310/310/310 308/308/308 147/147/147
f 147/147/147 174/174/174 310/310/310
f 102/102/102 310/310/310 174/174/174
f 174/174/174 36/36/36 102/102/102
f 21/21/21 24/24/24 26/26/26
f 26/26/26 25/25/25 21/21/21
f 82/82/82 81/81/81 311/311/311
f 311/311/311 312/312/312 82/82/82
f 81/81/81 53/53/53 313/313/313
f 313/313/313 311/311/311 81/81/81
f 313/313/313 53/53/53 54/54/54
f 54/54/54 314/314/314 313/313/313
f 314/314/314 54/54/54 184/184/184
f 184/184/184 315/315/315 314/314/314
f 315/315/315 184/184/184 161/161/161
f 161/161/161 316/316/316 315/315/315
f 161/161/161 160/160/160 317/317/317
f 317/317/317 316/316/316 161/161/161
f 318/318/318 208/208/208 211/211/211
f 211/211/211 319/319/319 318/318/318
f 241/241/241 320/320/320 319/319/319
f 319/319/319 211/211/211 241/241/241
f 241/241/241 282/282/282 321/321/321
f 321/321/321 320/320/320 241/241/241
f 282/282/282 227/227/227 273/273/273
f 273/273/273 321/321/321 282/282/282
f 226/226/226 270/270/270 273/273/273
f 273/273/273 227/227/227 226/226/226
f 270/270/270 226/226/226 233/233/233
f 233/233/233 269/269/269 270/270/270
f 233/233/233 232/232/232 266/266/266
f 266/266/266 269/269/269 233/233/233
f 232/232/232 255/255/255 300/300/300
f 300/300/300 266/266/266 232/232/232
f 255/255/255 254/254/254 322/322/322
f 322/322/322 300/300/300 255/255/255
f 254/254/254 235/235/235 323/323/323
f 323/323/323 322/322/322 254/254/254
f 235/235/235 189/189/189 324/324/324
f 324/324/324 323/323/323 235/235/235
f 325/325/325 324/324/324 189/189/189
f 189/189/189 188/188/188 325/325/325
f 141/141/141 326/326/326 327/327/327
f 327/327/327 142/142/142 141/141/141
f 328/328/328 326/326/326 141/141/141
f 141/141/141 178/178/178 328/328/328
f 329/329/329 328/328/328 178/178/178
f 178/178/178 44/44/44 329/329/329
f 330/330/330 329/329/329 44/44/44
f 44/44/44 43/43/43 330/330/330
f 330/330/330 43/43/43 72/72/72
f 72/72/72 331/331/331 330/330/330
f 71/71/71 332/332/332 331/331/331
f 331/331/331 72/72/72 71/71/71
f 108/108/108 15/15/15 16/16/16
f 16/16/16 109/109/109 108/108/108
f 122/122/122 124/124/124 127/127/127
f 127/127/127 123/123/123 122/122/122
f 333/333/333 107/107/107 89/89/89
f 89/89/89 334/334/334 333/333/333
f 334/334/334 89/89/89 92/92/92
f 92/92/92 335/335/335 334/334/334
f 92/92/92 83/83/83 336/336/336
f 336/336/336 335/335/335 92/92/92
f 83/83/83 86/86/86 337/337/337
f 337/337/337 336/336/336 83/83/83
f 110/110/110 114/114/114 117/117/117
f 117/117/117 111/111/111 110/110/110
f 26/26/26 24/24/24 114/114/114
f 114/114/114 110/110/110 26/26/26
f 26/26/26 110/110/110 113/113/113
f 113/113/113 2/2/2 26/26/26
f 2/2/2 113/113/113 138/138/138
f 138/138/138 3/3/3 2/2/2
f 3/3/3 138/138/138 134/134/134
f 134/134/134 5/5/5 3/3/3
f 5/5/5 134/134/134 137/137/137
f 137/137/137 95/95/95 5/5/5
f 132/132/132 130/130/130 9/9/9
f 9/9/9 8/8/8 132/132/132
f 130/130/130 128/128/128 13/13/13
f 13/13/13 9/9/9 130/130/130
f 128/128/128 125/125/125 14/14/14
f 14/14/14 13/13/13 128/128/128
f 125/125/125 124/124/124 16/16/16
f 16/16/16 14/14/14 125/125/125
f 16/16/16 124/124/124 122/122/122
f 122/122/122 109/109/109 16/16/16
f 122/122/122 120/120/120 18/18/18
f 18/18/18 109/109/109 122/122/122
f 18/18/18 120/120/120 118/118/118
f 118/118/118 19/19/19 18/18/18
f 118/118/118 115/115/115 23/23/23
f 23/23/23 19/19/19 118/118/118
f 23/23/23 115/115/115 114/114/114
f 114/114/114 24/24/24 23/23/23
f 312/312/312 338/338/338 339/339/339
f 339/339/339 82/82/82 312/312/312
f 82/82/82 339/339/339 340/340/340
f 340/340/340 56/56/56 82/82/82
f 56/56/56 340/340/340 341/341/341
f 341/341/341 57/57/57 56/56/56
f 60/60/60 342/342/342 343/343/343
f 343/343/343 61/61/61 60/60/60
f 61/61/61 343/343/343 344/344/344
f 344/344/344 64/64/64 61/61/61
f 64/64/64 344/344/344 345/345/345
f 345/345/345 65/65/65 64/64/64
f 65/65/65 345/345/345 346/346/346
f 346/346/346 103/103/103 65/65/65
f 347/347/347 348/348/348 68/68/68
f 68/68/68 67/67/67 347/347/347
f 348/348/348 349/349/349 71/71/71
f 71/71/71 68/68/68 348/348/348
f 349/349/349 350/350/350 332/332/332
f 332/332/332 71/71/71 349/349/349
f 351/351/351 352/352/352 73/73/73
f 73/73/73 97/97/97 351/351/351
f 352/352/352 353/353/353 74/74/74
f 74/74/74 73/73/73 352/352/352
f 353/353/353 354/354/354 78/78/78
f 78/78/78 74/74/74 353/353/353
f 78/78/78 354/354/354 355/355/355
f 355/355/355 79/79/79 78/78/78