version 1.01
270
[-0.3258,-0.0927665,0.270605][-0.9454,0.0652001,0.3194][0.5481,0.2563,0][-0.2147,-0.0978665,0.455505][-0.7708,0.0806001,0.6319][0.5479,0.2894,0][-0.2083,0.237733,0.427105][-0.776,0.0972001,0.6232][0.4967,0.2852,0][-0.2083,0.237733,0.427105][-0.776,0.0972001,0.6232][0.4967,0.2852,0][-0.3024,0.232834,0.251905][-0.9471,0.0951001,0.3064][0.4985,0.2539,0][-0.3258,-0.0927665,0.270605][-0.9454,0.0652001,0.3194][0.5481,0.2563,0][-0.2147,-0.0978665,0.455505][-0.7708,0.0806001,0.6319][0.5479,0.2894,0][-0.0517999,-0.0985665,0.598705][-0.5071,0.1158,0.8541][0.5468,0.3246,0][-0.0554998,0.240334,0.555705][-0.481,0.1132,0.8694][0.4945,0.3188,0][-0.0554998,0.240334,0.555705][-0.481,0.1132,0.8694][0.4945,0.3188,0][-0.2083,0.237733,0.427105][-0.776,0.0972001,0.6232][0.4967,0.2852,0][-0.2147,-0.0978665,0.455505][-0.7708,0.0806001,0.6319][0.5479,0.2894,0][0.0746002,0.229534,0.594605][-0.2605,0.134,0.9561][0.4941,0.3433,0][-0.0554998,0.240334,0.555705][-0.481,0.1132,0.8694][0.4945,0.3188,0][-0.0517999,-0.0985665,0.598705][-0.5071,0.1158,0.8541][0.5468,0.3246,0][-0.0517999,-0.0985665,0.598705][-0.5071,0.1158,0.8541][0.5468,0.3246,0][0.0644001,-0.0984665,0.642605][-0.2948,0.144,0.9446][0.5457,0.3463,0][0.0746002,0.229534,0.594605][-0.2605,0.134,0.9561][0.4941,0.3433,0][-0.1764,-0.104267,-0.354595][-0.7402,0.0313001,-0.6717][0.5493,0.1561,0][-0.2542,-0.100866,-0.202095][-0.9209,0.0343001,-0.3883][0.5491,0.183,0][-0.2397,0.222234,-0.213995][-0.9065,0.0660001,-0.417][0.4997,0.1806,0][-0.2397,0.222234,-0.213995][-0.9065,0.0660001,-0.417][0.4997,0.1806,0][-0.1485,0.221534,-0.366295][-0.7121,0.0649001,-0.6991][0.4995,0.1524,0][-0.1764,-0.104267,-0.354595][-0.7402,0.0313001,-0.6717][0.5493,0.1561,0][-0.3253,0.227434,0.056105][-0.9925,0.0777001,-0.0942][0.4996,0.224,0][-0.2397,0.222234,-0.213995][-0.9065,0.0660001,-0.417][0.4997,0.1806,0][-0.2542,-0.100866,-0.202095][-0.9209,0.0343001,-0.3883][0.5491,0.183,0][-0.2542,-0.100866,-0.202095][-0.9209,0.0343001,-0.3883][0.5491,0.183,0][-0.3505,-0.0965665,0.073405][-0.9938,0.0468001,-0.101][0.549,0.227,0][-0.3253,0.227434,0.056105][-0.9925,0.0777001,-0.0942][0.4996,0.224,0][-0.3505,-0.0965665,0.073405][-0.9938,0.0468001,-0.101][0.549,0.227,0][-0.3258,-0.0927665,0.270605][-0.9454,0.0652001,0.3194][0.5481,0.2563,0][-0.3024,0.232834,0.251905][-0.9471,0.0951001,0.3064][0.4985,0.2539,0][-0.3024,0.232834,0.251905][-0.9471,0.0951001,0.3064][0.4985,0.2539,0][-0.3253,0.227434,0.056105][-0.9925,0.0777001,-0.0942][0.4996,0.224,0][-0.3505,-0.0965665,0.073405][-0.9938,0.0468001,-0.101][0.549,0.227,0][0.5,0.209333,-0.632495][1,-1.50996e-007,0][0.7912,0.4055,0][0.5,0.217133,0.027605][1,-1.50996e-007,0][0.802,0.4054,0][0.5,-0.0336666,0.045805][1,-1.50996e-007,0][0.8025,0.4128,0][0.5,-0.0336666,0.045805][1,-1.50996e-007,0][0.8025,0.4128,0][0.5,-0.102367,-0.634295][1,-1.50996e-007,0][0.791,0.4129,0][0.5,0.209333,-0.632495][1,-1.50996e-007,0][0.7912,0.4055,0][0.5,1.11993,0.501505][1,-1.50996e-007,0][0.8062,0.3874,0][0.5,0.888333,0.551405][1,-1.50996e-007,0][0.8104,0.3934,0][0.5,0.816333,0.026105][1,-1.50996e-007,0][0.8014,0.3965,0][0.5,0.816333,0.026105][1,-1.50996e-007,0][0.8014,0.3965,0][0.5,1.17483,0.0175049][1,-1.50996e-007,0][0.8012,0.3865,0][0.5,1.11993,0.501505][1,-1.50996e-007,0][0.8062,0.3874,0][0.0494003,1.14233,0.138705][-0.1319,0.9893,0.0625][0.8969,0.4172,0][0.1724,1.14233,0.261005][-0.0755998,0.9902,0.1174][0.8913,0.4215,0][0.3839,1.19503,-0.0206951][-0.00729985,0.9999,-0.0142][0.8807,0.4129,0][0.3839,1.19503,-0.0206951][-0.00729985,0.9999,-0.0142][0.8807,0.4129,0][0.3733,1.14393,-0.331395][-0.0120999,0.9855,-0.1691][0.8805,0.4032,0][0.1459,1.14103,-0.266295][-0.1192,0.982,-0.1465][0.8918,0.4042,0][0.3839,1.19503,-0.0206951][-0.00729985,0.9999,-0.0142][0.8807,0.4129,0][0.1459,1.14103,-0.266295][-0.1192,0.982,-0.1465][0.8918,0.4042,0][0.0188003,1.14233,-0.0517951][-0.1632,0.9856,-0.0444][0.898,0.4111,0][0.0188003,1.14233,-0.0517951][-0.1632,0.9856,-0.0444][0.898,0.4111,0][0.0494003,1.14233,0.138705][-0.1319,0.9893,0.0625][0.8969,0.4172,0][0.3839,1.19503,-0.0206951][-0.00729985,0.9999,-0.0142][0.8807,0.4129,0][0.5,1.17483,0.0175049][0.0600001,0.9977,0.0315][0.875,0.4146,0][0.3839,1.19503,-0.0206951][-0.00729985,0.9999,-0.0142][0.8807,0.4129,0][0.3195,1.14233,0.296805][-0.00999985,0.9911,0.1324][0.8842,0.4229,0][0.3195,1.14233,0.296805][-0.00999985,0.9911,0.1324][0.8842,0.4229,0][0.5,1.11993,0.501505][0.0106001,0.9923,0.1234][0.8758,0.4294,0][0.5,1.17483,0.0175049][0.0600001,0.9977,0.0315][0.875,0.4146,0][0.5,1.14363,-0.332695][0.0510001,0.9874,-0.15][0.8739,0.4032,0][0.3733,1.14393,-0.331395][-0.0120999,0.9855,-0.1691][0.8805,0.4032,0][0.3839,1.19503,-0.0206951][-0.00729985,0.9999,-0.0142][0.8807,0.4129,0][0.3839,1.19503,-0.0206951][-0.00729985,0.9999,-0.0142][0.8807,0.4129,0][0.5,1.17483,0.0175049][0.0600001,0.9977,0.0315][0.875,0.4146,0][0.5,1.14363,-0.332695][0.0510001,0.9874,-0.15][0.8739,0.4032,0][-0.2546,-0.992466,0.512305][-0.000200151,-1,-0.0007][0.8063,0.4918,0][-0.3579,-0.992366,0.336105][-0.000200151,-1,-0.0007][0.8038,0.4879,0][0.5,-0.992367,0.113005][-0.000600151,-1,-0.002][0.825,0.483,0][-0.0868,-0.992666,0.676605][-0.000100151,-1,-0.0006][0.8105,0.4953,0][-0.2546,-0.992466,0.512305][-0.000200151,-1,-0.0007][0.8063,0.4918,0][0.5,-0.992367,0.113005][-0.000600151,-1,-0.002][0.825,0.483,0][0.2328,-0.992667,0.815305][-0.000100151,-1,-0.0005][0.8184,0.4985,0][0.0278,-0.992666,0.756905][-1.50996e-007,-1,-0.0005][0.8133,0.4972,0][-0.0868,-0.992666,0.676605][-0.000100151,-1,-0.0006][0.8105,0.4953,0][-0.0868,-0.992666,0.676605][-0.000100151,-1,-0.0006][0.8105,0.4953,0][0.5,-0.992367,0.113005][-0.000600151,-1,-0.002][0.825,0.483,0][0.2328,-0.992667,0.815305][-0.000100151,-1,-0.0005][0.8184,0.4985,0][0.1339,-0.991667,-0.581095][0.0173998,-0.9998,-0.0122][0.8158,0.4674,0][0.1898,-0.984967,-0.699495][0.0308998,-0.9993,-0.0209][0.8178,0.4653,0][0.2393,-0.984867,-0.752595][0.00519985,-0.9999,-0.0119][0.8193,0.4646,0][0.2393,-0.984867,-0.752595][0.00519985,-0.9999,-0.0119][0.8193,0.4646,0][0.5,-0.992367,0.113005][-0.000600151,-1,-0.002][0.825,0.483,0][0.1339,-0.991667,-0.581095][0.0173998,-0.9998,-0.0122][0.8158,0.4674,0][0.1339,-0.991667,-0.581095][0.0173998,-0.9998,-0.0122][0.8158,0.4674,0][0.5,-0.992367,0.113005][-0.000600151,-1,-0.002][0.825,0.483,0][-0.0823,-0.991767,-0.504495][-0.000100151,-1,-0.0009][0.8105,0.4695,0][-0.3068,-0.991966,-0.193095][-0.000200151,-1,-0.0008][0.8049,0.4765,0][-0.272,-0.991866,-0.347595][-0.000200151,-1,-0.0008][0.806,0.4732,0][0.5,-0.992367,0.113005][-0.000600151,-1,-0.002][0.825,0.483,0][-0.3797,-0.992166,0.110205][-0.000200151,-1,-0.0008][0.8031,0.483,0][-0.3068,-0.991966,-0.193095][-0.000200151,-1,-0.0008][0.8049,0.4765,0][0.5,-0.992367,0.113005][-0.000600151,-1,-0.002][0.825,0.483,0][-0.3579,-0.992366,0.336105][-0.000200151,-1,-0.0007][0.8038,0.4879,0][-0.3797,-0.992166,0.110205][-0.000200151,-1,-0.0008][0.8031,0.483,0][0.5,-0.992367,0.113005][-0.000600151,-1,-0.002][0.825,0.483,0][-0.079,-0.862266,0.670505][-0.5956,0.0851001,0.7988][0.6621,0.3218,0][-0.0698999,-0.624967,0.653505][-0.5647,0.0940001,0.8199][0.6266,0.3253,0][-0.2347,-0.626366,0.504005][-0.7794,0.0821001,0.6211][0.6272,0.2943,0][-0.2347,-0.626366,0.504005][-0.7794,0.0821001,0.6211][0.6272,0.2943,0][-0.2491,-0.862566,0.514105][-0.7826,0.0615001,0.6195][0.6623,0.2958,0][-0.079,-0.862266,0.670505][-0.5956,0.0851001,0.7988][0.6621,0.3218,0][0.2466,-0.624067,0.759905][-0.1566,0.1213,0.9802][0.6267,0.3799,0][0.0461001,-0.624566,0.711005][-0.3487,0.1128,0.9304][0.6266,0.3456,0][0.0393,-0.862167,0.739605][-0.3821,0.1287,0.9151][0.6624,0.3418,0][0.0393,-0.862167,0.739605][-0.3821,0.1287,0.9151][0.6624,0.3418,0][0.2432,-0.862067,0.794705][-0.1476,0.1333,0.98][0.6626,0.3758,0][0.2466,-0.624067,0.759905][-0.1566,0.1213,0.9802][0.6267,0.3799,0][0.5,-0.864467,-0.634295][0.3588,0.0644999,-0.9312][0.6657,0.0175,0][0.2484,-0.858967,-0.734295][-0.291,0.1556,-0.944][0.6642,0.0545,0][0.266,-0.633467,-0.702495][-0.4002,0.132,-0.9069][0.6298,0.0554,0][0.266,-0.633467,-0.702495][-0.4002,0.132,-0.9069][0.6298,0.0554,0][0.5,-0.636267,-0.631695][0.2835,0.053,-0.9575][0.6291,0.013,0][0.5,-0.864467,-0.634295][0.3588,0.0644999,-0.9312][0.6657,0.0175,0][-0.0314999,-0.635267,-0.478595][-0.4834,0.0432001,-0.8743][0.6287,0.1228,0][0.1443,-0.635967,-0.546195][-0.5419,0.0595001,-0.8383][0.6284,0.0893,0][0.1357,-0.864467,-0.539295][-0.5911,0.1491,-0.7927][0.662,0.092,0][0.1357,-0.864467,-0.539295][-0.5911,0.1491,-0.7927][0.662,0.092,0][-0.061,-0.863067,-0.485395][-0.4713,0.1481,-0.8694][0.6625,0.126,0][-0.0314999,-0.635267,-0.478595][-0.4834,0.0432001,-0.8743][0.6287,0.1228,0][-0.2543,-0.848266,-0.324295][-0.8445,0.1423,-0.5163][0.6617,0.1686,0][-0.2896,-0.856966,-0.175495][-0.961,0.0972001,-0.259][0.6623,0.1958,0][-0.2706,-0.632666,-0.176495][-0.9509,0.0492001,-0.3055][0.629,0.1906,0][-0.2706,-0.632666,-0.176495][-0.9509,0.0492001,-0.3055][0.629,0.1906,0][-0.2283,-0.633566,-0.326595][-0.8213,0.0718001,-0.5659][0.6295,0.1656,0][-0.2543,-0.848266,-0.324295][-0.8445,0.1423,-0.5163][0.6617,0.1686,0][-0.2896,-0.856966,-0.175495][-0.961,0.0972001,-0.259][0.6623,0.1958,0][-0.3729,-0.863266,0.106905][-0.9941,0.0582002,-0.0919][0.6631,0.2432,0][-0.3701,-0.630066,0.100105][-0.9945,0.0342002,-0.0993][0.6286,0.2354,0][-0.3701,-0.630066,0.100105][-0.9945,0.0342002,-0.0993][0.6286,0.2354,0][-0.2706,-0.632666,-0.176495][-0.9509,0.0492001,-0.3055][0.629,0.1906,0][-0.2896,-0.856966,-0.175495][-0.961,0.0972001,-0.259][0.6623,0.1958,0][-0.3729,-0.863266,0.106905][-0.9941,0.0582002,-0.0919][0.6631,0.2432,0][-0.353,-0.862866,0.329605][-0.9511,0.0528001,0.3044][0.6626,0.2707,0][-0.3416,-0.628066,0.311105][-0.9477,0.0600001,0.3135][0.628,0.2646,0][-0.3416,-0.628066,0.311105][-0.9477,0.0600001,0.3135][0.628,0.2646,0][-0.3701,-0.630066,0.100105][-0.9945,0.0342002,-0.0993][0.6286,0.2354,0][-0.3729,-0.863266,0.106905][-0.9941,0.0582002,-0.0919][0.6631,0.2432,0][-0.353,-0.862866,0.329605][-0.9511,0.0528001,0.3044][0.6626,0.2707,0][-0.2491,-0.862566,0.514105][-0.7826,0.0615001,0.6195][0.6623,0.2958,0][-0.2347,-0.626366,0.504005][-0.7794,0.0821001,0.6211][0.6272,0.2943,0][-0.2347,-0.626366,0.504005][-0.7794,0.0821001,0.6211][0.6272,0.2943,0][-0.3416,-0.628066,0.311105][-0.9477,0.0600001,0.3135][0.628,0.2646,0][-0.353,-0.862866,0.329605][-0.9511,0.0528001,0.3044][0.6626,0.2707,0][-0.2546,-0.992466,0.512305][-0.7873,0.0457001,0.6149][0.682,0.2975,0][-0.2491,-0.862566,0.514105][-0.7826,0.0615001,0.6195][0.6623,0.2958,0][-0.353,-0.862866,0.329605][-0.9511,0.0528001,0.3044][0.6626,0.2707,0][-0.353,-0.862866,0.329605][-0.9511,0.0528001,0.3044][0.6626,0.2707,0][-0.3579,-0.992366,0.336105][-0.9507,0.0470001,0.3067][0.682,0.2747,0][-0.2546,-0.992466,0.512305][-0.7873,0.0457001,0.6149][0.682,0.2975,0][-0.0868,-0.992666,0.676605][-0.6158,0.0809001,0.7837][0.682,0.3163,0][-0.079,-0.862266,0.670505][-0.5956,0.0851001,0.7988][0.6621,0.3218,0][-0.2491,-0.862566,0.514105][-0.7826,0.0615001,0.6195][0.6623,0.2958,0][-0.2491,-0.862566,0.514105][-0.7826,0.0615001,0.6195][0.6623,0.2958,0][-0.2546,-0.992466,0.512305][-0.7873,0.0457001,0.6149][0.682,0.2975,0][-0.0868,-0.992666,0.676605][-0.6158,0.0809001,0.7837][0.682,0.3163,0][0.0393,-0.862167,0.739605][-0.3821,0.1287,0.9151][0.6624,0.3418,0][0.0278,-0.992666,0.756905][-0.4067,0.1386,0.903][0.682,0.3368,0][0.2328,-0.992667,0.815305][-0.1497,0.1323,0.9798][0.682,0.3717,0][0.2328,-0.992667,0.815305][-0.1497,0.1323,0.9798][0.682,0.3717,0][0.2432,-0.862067,0.794705][-0.1476,0.1333,0.98][0.6626,0.3758,0][0.0393,-0.862167,0.739605][-0.3821,0.1287,0.9151][0.6624,0.3418,0][0.5,-0.991667,-0.639095][0.3849,0.0701999,-0.9203][0.682,0.0271,0][0.2393,-0.984867,-0.752595][-0.2488,0.1616,-0.955][0.682,0.0465,0][0.2484,-0.858967,-0.734295][-0.291,0.1556,-0.944][0.6642,0.0545,0][0.2484,-0.858967,-0.734295][-0.291,0.1556,-0.944][0.6642,0.0545,0][0.5,-0.864467,-0.634295][0.3588,0.0644999,-0.9312][0.6657,0.0175,0][0.5,-0.991667,-0.639095][0.3849,0.0701999,-0.9203][0.682,0.0271,0][0.1339,-0.991667,-0.581095][-0.6684,0.2257,-0.7087][0.682,0.0922,0][-0.0823,-0.991767,-0.504495][-0.4713,0.2298,-0.8515][0.682,0.1264,0][-0.061,-0.863067,-0.485395][-0.4713,0.1481,-0.8694][0.6625,0.126,0][-0.061,-0.863067,-0.485395][-0.4713,0.1481,-0.8694][0.6625,0.126,0][0.1357,-0.864467,-0.539295][-0.5911,0.1491,-0.7927][0.662,0.092,0][0.1339,-0.991667,-0.581095][-0.6684,0.2257,-0.7087][0.682,0.0922,0][-0.3068,-0.991966,-0.193095][-0.9632,0.1291,-0.2358][0.682,0.2006,0][-0.2896,-0.856966,-0.175495][-0.961,0.0972001,-0.259][0.6623,0.1958,0][-0.2543,-0.848266,-0.324295][-0.8445,0.1423,-0.5163][0.6617,0.1686,0][-0.2543,-0.848266,-0.324295][-0.8445,0.1423,-0.5163][0.6617,0.1686,0][-0.272,-0.991866,-0.347595][-0.8278,0.1915,-0.5274][0.682,0.1606,0][-0.3068,-0.991966,-0.193095][-0.9632,0.1291,-0.2358][0.682,0.2006,0][-0.3797,-0.992166,0.110205][-0.994,0.0758002,-0.0794][0.682,0.2519,0][-0.3729,-0.863266,0.106905][-0.9941,0.0582002,-0.0919][0.6631,0.2432,0][-0.2896,-0.856966,-0.175495][-0.961,0.0972001,-0.259][0.6623,0.1958,0][-0.2896,-0.856966,-0.175495][-0.961,0.0972001,-0.259][0.6623,0.1958,0][-0.3068,-0.991966,-0.193095][-0.9632,0.1291,-0.2358][0.682,0.2006,0][-0.3797,-0.992166,0.110205][-0.994,0.0758002,-0.0794][0.682,0.2519,0][-0.3797,-0.992166,0.110205][-0.994,0.0758002,-0.0794][0.682,0.2519,0][-0.3579,-0.992366,0.336105][-0.9507,0.0470001,0.3067][0.682,0.2747,0][-0.353,-0.862866,0.329605][-0.9511,0.0528001,0.3044][0.6626,0.2707,0][-0.353,-0.862866,0.329605][-0.9511,0.0528001,0.3044][0.6626,0.2707,0][-0.3729,-0.863266,0.106905][-0.9941,0.0582002,-0.0919][0.6631,0.2432,0][-0.3797,-0.992166,0.110205][-0.994,0.0758002,-0.0794][0.682,0.2519,0][0.289,-0.362067,-0.669095][-0.4995,0.1041,-0.86][0.5873,0.0548,0][0.5,-0.359867,-0.632795][0.1804,0.0385,-0.9828][0.5843,0.016,0][0.5,-0.636267,-0.631695][0.2835,0.053,-0.9575][0.6291,0.013,0][0.5,-0.636267,-0.631695][0.2835,0.053,-0.9575][0.6291,0.013,0][0.266,-0.633467,-0.702495][-0.4002,0.132,-0.9069][0.6298,0.0554,0][0.289,-0.362067,-0.669095][-0.4995,0.1041,-0.86][0.5873,0.0548,0][-0.00159991,-0.375367,-0.473795][-0.5002,0.0254001,-0.8656][0.5895,0.1189,0][0.1621,-0.361467,-0.560795][-0.4496,0.0401001,-0.8923][0.5867,0.0863,0][0.1443,-0.635967,-0.546195][-0.5419,0.0595001,-0.8383][0.6284,0.0893,0][0.1443,-0.635967,-0.546195][-0.5419,0.0595001,-0.8383][0.6284,0.0893,0][-0.0314999,-0.635267,-0.478595][-0.4834,0.0432001,-0.8743][0.6287,0.1228,0][-0.00159991,-0.375367,-0.473795][-0.5002,0.0254001,-0.8656][0.5895,0.1189,0][-0.2601,-0.353366,-0.189395][-0.9353,0.0286001,-0.3526][0.5873,0.1859,0][-0.1998,-0.354867,-0.345495][-0.7777,0.0381001,-0.6275][0.5875,0.1597,0][-0.2283,-0.633566,-0.326595][-0.8213,0.0718001,-0.5659][0.6295,0.1656,0][-0.2283,-0.633566,-0.326595][-0.8213,0.0718001,-0.5659][0.6295,0.1656,0][-0.2706,-0.632666,-0.176495][-0.9509,0.0492001,-0.3055][0.629,0.1906,0][-0.2601,-0.353366,-0.189395][-0.9353,0.0286001,-0.3526][0.5873,0.1859,0][-0.3636,-0.351267,0.086405][-0.9946,0.0293002,-0.1][0.5872,0.2302,0][-0.2601,-0.353366,-0.189395][-0.9353,0.0286001,-0.3526][0.5873,0.1859,0][-0.2706,-0.632666,-0.176495][-0.9509,0.0492001,-0.3055][0.629,0.1906,0][-0.2706,-0.632666,-0.176495][-0.9509,0.0492001,-0.3055][0.629,0.1906,0][-0.3701,-0.630066,0.100105][-0.9945,0.0342002,-0.0993][0.6286,0.2354,0][-0.3636,-0.351267,0.086405][-0.9946,0.0293002,-0.1][0.5872,0.2302,0][-0.3283,-0.347966,0.292405][-0.9422,0.0572001,0.3301][0.5864,0.2603,0][-0.3636,-0.351267,0.086405][-0.9946,0.0293002,-0.1][0.5872,0.2302,0][-0.3701,-0.630066,0.100105][-0.9945,0.0342002,-0.0993][0.6286,0.2354,0][-0.3701,-0.630066,0.100105][-0.9945,0.0342002,-0.0993][0.6286,0.2354,0][-0.3416,-0.628066,0.311105][-0.9477,0.0600001,0.3135][0.628,0.2646,0][-0.3283,-0.347966,0.292405][-0.9422,0.0572001,0.3301][0.5864,0.2603,0][-0.2196,-0.344966,0.482505][-0.7738,0.0851001,0.6277][0.5853,0.2925,0][-0.3283,-0.347966,0.292405][-0.9422,0.0572001,0.3301][0.5864,0.2603,0][-0.3416,-0.628066,0.311105][-0.9477,0.0600001,0.3135][0.628,0.2646,0][-0.3416,-0.628066,0.311105][-0.9477,0.0600001,0.3135][0.628,0.2646,0][-0.2347,-0.626366,0.504005][-0.7794,0.0821001,0.6211][0.6272,0.2943,0][-0.2196,-0.344966,0.482505][-0.7738,0.0851001,0.6277][0.5853,0.2925,0][-0.0565999,-0.342566,0.630005][-0.5372,0.1109,0.8361][0.5842,0.3265,0][-0.2196,-0.344966,0.482505][-0.7738,0.0851001,0.6277][0.5853,0.2925,0][-0.2347,-0.626366,0.504005][-0.7794,0.0821001,0.6211][0.6272,0.2943,0][-0.2347,-0.626366,0.504005][-0.7794,0.0821001,0.6211][0.6272,0.2943,0][-0.0698999,-0.624967,0.653505][-0.5647,0.0940001,0.8199][0.6266,0.3253,0][-0.0565999,-0.342566,0.630005][-0.5372,0.1109,0.8361][0.5842,0.3265,0][0.0570001,-0.341866,0.680105][-0.3223,0.1271,0.9381][0.5836,0.3473,0][-0.0565999,-0.342566,0.630005][-0.5372,0.1109,0.8361][0.5842,0.3265,0][-0.0698999,-0.624967,0.653505][-0.5647,0.0940001,0.8199][0.6266,0.3253,0][-0.0698999,-0.624967,0.653505][-0.5647,0.0940001,0.8199][0.6266,0.3253,0][0.0461001,-0.624566,0.711005][-0.3487,0.1128,0.9304][0.6266,0.3456,0][0.0570001,-0.341866,0.680105][-0.3223,0.1271,0.9381][0.5836,0.3473,0][0.5,-0.992367,0.113005][1,-1.50996e-007,0][0.8037,0.4269,0][0.5,-0.864467,-0.634295][1,-1.50996e-007,0][0.791,0.4255,0][0.5,-0.636267,-0.631695][1,-1.50996e-007,0][0.7912,0.4221,0][0.5,-0.636267,-0.631695][1,-1.50996e-007,0][0.7912,0.4221,0][0.5,-0.416267,0.079205][1,-1.50996e-007,0][0.8032,0.4203,0][0.5,-0.992367,0.113005][1,-1.50996e-007,0][0.8037,0.4269,0][0.5,-0.991667,-0.639095][1,-1.50996e-007,0][0.7907,0.4268,0][0.5,-0.864467,-0.634295][1,-1.50996e-007,0][0.791,0.4255,0][0.5,-0.992367,0.113005][1,-1.50996e-007,0][0.8037,0.4269,0][0.5,-0.359867,-0.632795][1,-1.50996e-007,0][0.7912,0.4186,0][0.5,-0.416267,0.079205][1,-1.50996e-007,0][0.8032,0.4203,0][0.5,-0.636267,-0.631695][1,-1.50996e-007,0][0.7912,0.4221,0][0.5,-0.992367,0.113005][1,-1.50996e-007,0][0.8037,0.4269,0][0.5,-0.416267,0.079205][1,-1.50996e-007,0][0.8032,0.4203,0][0.5,-0.623867,0.777105][1,-1.50996e-007,0][0.8156,0.422,0][0.5,-0.623867,0.777105][1,-1.50996e-007,0][0.8156,0.422,0][0.5,-0.862067,0.808705][1,-1.50996e-007,0][0.8174,0.4256,0][0.5,-0.992367,0.113005][1,-1.50996e-007,0][0.8037,0.4269,0][0.5,-0.862067,0.808705][1,-1.50996e-007,0][0.8174,0.4256,0][0.5,-0.992767,0.814105][1,-1.50996e-007,0][0.8174,0.427,0][0.5,-0.992367,0.113005][1,-1.50996e-007,0][0.8037,0.4269,0][0.5,-0.340567,0.750005][1,-1.50996e-007,0][0.8151,0.4184,0][0.5,-0.623867,0.777105][1,-1.50996e-007,0][0.8156,0.422,0][0.5,-0.416267,0.079205][1,-1.50996e-007,0][0.8032,0.4203,0][0.5,-0.992767,0.814105][-0.000100151,-1,-0.0005][0.8251,0.4983,0][0.2328,-0.992667,0.815305][-0.000100151,-1,-0.0005][0.8184,0.4985,0][0.5,-0.992367,0.113005][-0.000600151,-1,-0.002][0.825,0.483,0][0.1339,-0.991667,-0.581095][-0.6684,0.2257,-0.7087][0.682,0.0922,0][0.1357,-0.864467,-0.539295][-0.5911,0.1491,-0.7927][0.662,0.092,0][0.204,-0.860467,-0.670795][-0.8354,0.1616,-0.5253][0.6637,0.0679,0][0.204,-0.860467,-0.670795][-0.8354,0.1616,-0.5253][0.6637,0.0679,0][0.1898,-0.984967,-0.699495][-0.8267,0.1834,-0.5319][0.682,0.0694,0][0.1339,-0.991667,-0.581095][-0.6684,0.2257,-0.7087][0.682,0.0922,0][0.204,-0.860467,-0.670795][-0.8354,0.1616,-0.5253][0.6637,0.0679,0][0.1357,-0.864467,-0.539295][-0.5911,0.1491,-0.7927][0.662,0.092,0][0.1443,-0.635967,-0.546195][-0.5419,0.0595001,-0.8383][0.6284,0.0893,0][0.1443,-0.635967,-0.546195][-0.5419,0.0595001,-0.8383][0.6284,0.0893,0][0.2406,-0.636267,-0.640795][-0.8106,0.1229,-0.5726][0.6288,0.0663,0][0.204,-0.860467,-0.670795][-0.8354,0.1616,-0.5253][0.6637,0.0679,0][0.2406,-0.636267,-0.640795][-0.8106,0.1229,-0.5726][0.6288,0.0663,0][0.2666,-0.365167,-0.606495][-0.7448,0.0963001,-0.6603][0.5867,0.0657,0][0.289,-0.362067,-0.669095][-0.4995,0.1041,-0.86][0.5873,0.0548,0][0.5,-0.992767,0.814105][-0.0243,0.1004,0.9947][0.682,0.413,0][0.5,-0.862067,0.808705][-0.0424,0.1193,0.992][0.6649,0.4187,0][0.2432,-0.862067,0.794705][-0.1476,0.1333,0.98][0.6626,0.3758,0][0.2432,-0.862067,0.794705][-0.1476,0.1333,0.98][0.6626,0.3758,0][0.2328,-0.992667,0.815305][-0.1497,0.1323,0.9798][0.682,0.3717,0][0.5,-0.992767,0.814105][-0.0243,0.1004,0.9947][0.682,0.413,0][0.5,-0.862067,0.808705][-0.0424,0.1193,0.992][0.6649,0.4187,0][0.5,-0.623867,0.777105][-0.0671,0.1195,0.9906][0.6285,0.4247,0][0.2466,-0.624067,0.759905][-0.1566,0.1213,0.9802][0.6267,0.3799,0][0.2466,-0.624067,0.759905][-0.1566,0.1213,0.9802][0.6267,0.3799,0][0.2432,-0.862067,0.794705][-0.1476,0.1333,0.98][0.6626,0.3758,0][0.5,-0.862067,0.808705][-0.0424,0.1193,0.992][0.6649,0.4187,0][0.5,-0.340567,0.750005][-0.0787,0.1245,0.9891][0.5828,0.4271,0][0.2523,-0.340967,0.730005][-0.1619,0.1285,0.9784][0.5828,0.3821,0][0.2466,-0.624067,0.759905][-0.1566,0.1213,0.9802][0.6267,0.3799,0][0.2466,-0.624067,0.759905][-0.1566,0.1213,0.9802][0.6267,0.3799,0][0.5,-0.623867,0.777105][-0.0671,0.1195,0.9906][0.6285,0.4247,0][0.5,-0.340567,0.750005][-0.0787,0.1245,0.9891][0.5828,0.4271,0][0.00870016,-0.102967,-0.473395][-0.5039,0.0240001,-0.8634][0.548,0.1184,0][-0.1764,-0.104267,-0.354595][-0.7402,0.0313001,-0.6717][0.5493,0.1561,0][-0.1485,0.221534,-0.366295][-0.7121,0.0649001,-0.6991][0.4995,0.1524,0][-0.1485,0.221534,-0.366295][-0.7121,0.0649001,-0.6991][0.4995,0.1524,0][0.0253002,0.210533,-0.470195][-0.5127,0.0468001,-0.8573][0.4997,0.1175,0][0.00870016,-0.102967,-0.473395][-0.5039,0.0240001,-0.8634][0.548,0.1184,0][-0.1998,-0.354867,-0.345495][-0.7777,0.0381001,-0.6275][0.5875,0.1597,0][-0.00159991,-0.375367,-0.473795][-0.5002,0.0254001,-0.8656][0.5895,0.1189,0][-0.0314999,-0.635267,-0.478595][-0.4834,0.0432001,-0.8743][0.6287,0.1228,0][-0.0314999,-0.635267,-0.478595][-0.4834,0.0432001,-0.8743][0.6287,0.1228,0][-0.2283,-0.633566,-0.326595][-0.8213,0.0718001,-0.5659][0.6295,0.1656,0][-0.1998,-0.354867,-0.345495][-0.7777,0.0381001,-0.6275][0.5875,0.1597,0][-0.061,-0.863067,-0.485395][-0.4713,0.1481,-0.8694][0.6625,0.126,0][-0.2543,-0.848266,-0.324295][-0.8445,0.1423,-0.5163][0.6617,0.1686,0][-0.2283,-0.633566,-0.326595][-0.8213,0.0718001,-0.5659][0.6295,0.1656,0][-0.2283,-0.633566,-0.326595][-0.8213,0.0718001,-0.5659][0.6295,0.1656,0][-0.0314999,-0.635267,-0.478595][-0.4834,0.0432001,-0.8743][0.6287,0.1228,0][-0.061,-0.863067,-0.485395][-0.4713,0.1481,-0.8694][0.6625,0.126,0][-0.061,-0.863067,-0.485395][-0.4713,0.1481,-0.8694][0.6625,0.126,0][-0.0823,-0.991767,-0.504495][-0.4713,0.2298,-0.8515][0.682,0.1264,0][-0.272,-0.991866,-0.347595][-0.8278,0.1915,-0.5274][0.682,0.1606,0][-0.272,-0.991866,-0.347595][-0.8278,0.1915,-0.5274][0.682,0.1606,0][-0.2543,-0.848266,-0.324295][-0.8445,0.1423,-0.5163][0.6617,0.1686,0][-0.061,-0.863067,-0.485395][-0.4713,0.1481,-0.8694][0.6625,0.126,0][0.3579,0.585233,-0.608695][-0.6404,0.0302001,-0.7674][0.4397,0.0511,0][0.3411,0.584933,-0.554595][-0.6316,0.0132001,-0.7752][0.4399,0.0603,0][0.3602,0.850733,-0.606095][-0.2811,0.000900042,-0.9597][0.3977,0.0553,0][0.5,0.583033,-0.628795][1,-1.50996e-007,0][0.7915,0.3992,0][0.5,0.816333,0.026105][1,-1.50996e-007,0][0.8014,0.3965,0][0.5,0.217133,0.027605][1,-1.50996e-007,0][0.802,0.4054,0][0.5,0.217133,0.027605][1,-1.50996e-007,0][0.802,0.4054,0][0.5,0.209333,-0.632495][1,-1.50996e-007,0][0.7912,0.4055,0][0.5,0.583033,-0.628795][1,-1.50996e-007,0][0.7915,0.3992,0][0.5,0.888333,0.551405][1,-1.50996e-007,0][0.8104,0.3934,0][0.5,0.593133,0.610705][1,-1.50996e-007,0][0.8116,0.3991,0][0.5,0.816333,0.026105][1,-1.50996e-007,0][0.8014,0.3965,0][0.5,0.593133,0.610705][-0.0855,0.1673,0.9822][0.4263,0.4157,0][0.5,0.888333,0.551405][-0.0555,0.1775,0.9826][0.3775,0.4061,0][0.2777,0.887533,0.533005][-0.1286,0.1647,0.9779][0.3845,0.3649,0][0.2777,0.887533,0.533005][-0.1286,0.1647,0.9779][0.3845,0.3649,0][0.2721,0.592934,0.590905][-0.149,0.1638,0.9752][0.4323,0.3727,0][0.5,0.593133,0.610705][-0.0855,0.1673,0.9822][0.4263,0.4157,0][-0.0554998,0.240334,0.555705][-0.481,0.1132,0.8694][0.4945,0.3188,0][0.0746002,0.229534,0.594605][-0.2605,0.134,0.9561][0.4941,0.3433,0][0.1006,0.593034,0.553705][-0.2329,0.1562,0.9599][0.436,0.3402,0][0.1006,0.593034,0.553705][-0.2329,0.1562,0.9599][0.436,0.3402,0][-0.0464998,0.594434,0.516005][-0.4682,0.151,0.8706][0.439,0.3125,0][-0.0554998,0.240334,0.555705][-0.481,0.1132,0.8694][0.4945,0.3188,0][-0.2083,0.237733,0.427105][-0.776,0.0972001,0.6232][0.4967,0.2852,0][-0.0554998,0.240334,0.555705][-0.481,0.1132,0.8694][0.4945,0.3188,0][-0.0464998,0.594434,0.516005][-0.4682,0.151,0.8706][0.439,0.3125,0][-0.0464998,0.594434,0.516005][-0.4682,0.151,0.8706][0.439,0.3125,0][-0.1799,0.593333,0.394605][-0.7768,0.1372,0.6146][0.441,0.2816,0][-0.2083,0.237733,0.427105][-0.776,0.0972001,0.6232][0.4967,0.2852,0][-0.2083,0.237733,0.427105][-0.776,0.0972001,0.6232][0.4967,0.2852,0][-0.1799,0.593333,0.394605][-0.7768,0.1372,0.6146][0.441,0.2816,0][-0.2622,0.591933,0.235505][-0.9414,0.1166,0.3166][0.4421,0.2524,0][-0.2622,0.591933,0.235505][-0.9414,0.1166,0.3166][0.4421,0.2524,0][-0.3024,0.232834,0.251905][-0.9471,0.0951001,0.3064][0.4985,0.2539,0][-0.2083,0.237733,0.427105][-0.776,0.0972001,0.6232][0.4967,0.2852,0][-0.3024,0.232834,0.251905][-0.9471,0.0951001,0.3064][0.4985,0.2539,0][-0.2622,0.591933,0.235505][-0.9414,0.1166,0.3166][0.4421,0.2524,0][-0.292,0.590334,0.052705][-0.9941,0.0867001,-0.0645][0.4427,0.2232,0][-0.292,0.590334,0.052705][-0.9941,0.0867001,-0.0645][0.4427,0.2232,0][-0.3253,0.227434,0.056105][-0.9925,0.0777001,-0.0942][0.4996,0.224,0][-0.3024,0.232834,0.251905][-0.9471,0.0951001,0.3064][0.4985,0.2539,0][-0.3253,0.227434,0.056105][-0.9925,0.0777001,-0.0942][0.4996,0.224,0][-0.292,0.590334,0.052705][-0.9941,0.0867001,-0.0645][0.4427,0.2232,0][-0.2217,0.585634,-0.187695][-0.8987,0.0768001,-0.4317][0.4428,0.1763,0][-0.2217,0.585634,-0.187695][-0.8987,0.0768001,-0.4317][0.4428,0.1763,0][-0.2397,0.222234,-0.213995][-0.9065,0.0660001,-0.417][0.4997,0.1806,0][-0.3253,0.227434,0.056105][-0.9925,0.0777001,-0.0942][0.4996,0.224,0][-0.2397,0.222234,-0.213995][-0.9065,0.0660001,-0.417][0.4997,0.1806,0][-0.2217,0.585634,-0.187695][-0.8987,0.0768001,-0.4317][0.4428,0.1763,0][-0.1149,0.581634,-0.336195][-0.7148,0.0786001,-0.6949][0.4428,0.1528,0][-0.1149,0.581634,-0.336195][-0.7148,0.0786001,-0.6949][0.4428,0.1528,0][-0.1485,0.221534,-0.366295][-0.7121,0.0649001,-0.6991][0.4995,0.1524,0][-0.2397,0.222234,-0.213995][-0.9065,0.0660001,-0.417][0.4997,0.1806,0][-0.1485,0.221534,-0.366295][-0.7121,0.0649001,-0.6991][0.4995,0.1524,0][-0.1149,0.581634,-0.336195][-0.7148,0.0786001,-0.6949][0.4428,0.1528,0][0.0435002,0.583833,-0.458795][-0.5359,0.0615001,-0.8421][0.4414,0.1179,0][0.0435002,0.583833,-0.458795][-0.5359,0.0615001,-0.8421][0.4414,0.1179,0][0.0253002,0.210533,-0.470195][-0.5127,0.0468001,-0.8573][0.4997,0.1175,0][-0.1485,0.221534,-0.366295][-0.7121,0.0649001,-0.6991][0.4995,0.1524,0][0.2044,0.584633,-0.550995][-0.3211,0.024,-0.9467][0.4406,0.0851,0][0.0435002,0.583833,-0.458795][-0.5359,0.0615001,-0.8421][0.4414,0.1179,0][0.0569003,0.851733,-0.452595][-0.5588,0.0146001,-0.8292][0.3988,0.1177,0][0.0569003,0.851733,-0.452595][-0.5588,0.0146001,-0.8292][0.3988,0.1177,0][0.2428,0.848933,-0.547295][-0.3866,-0.0243999,-0.9219][0.3983,0.0851,0][0.2044,0.584633,-0.550995][-0.3211,0.024,-0.9467][0.4406,0.0851,0][0.5,-0.0336666,0.045805][1,-1.50996e-007,0][0.8025,0.4128,0][0.5,-0.416267,0.079205][1,-1.50996e-007,0][0.8032,0.4203,0][0.5,-0.359867,-0.632795][1,-1.50996e-007,0][0.7912,0.4186,0][0.5,-0.359867,-0.632795][1,-1.50996e-007,0][0.7912,0.4186,0][0.5,-0.102367,-0.634295][1,-1.50996e-007,0][0.791,0.4129,0][0.5,-0.0336666,0.045805][1,-1.50996e-007,0][0.8025,0.4128,0][0.5,-0.416267,0.079205][1,-1.50996e-007,0][0.8032,0.4203,0][0.5,-0.0336666,0.045805][1,-1.50996e-007,0][0.8025,0.4128,0][0.5,-0.0981665,0.714505][1,-1.50996e-007,0][0.8144,0.4126,0][0.5,-0.0981665,0.714505][1,-1.50996e-007,0][0.8144,0.4126,0][0.5,-0.340567,0.750005][1,-1.50996e-007,0][0.8151,0.4184,0][0.5,-0.416267,0.079205][1,-1.50996e-007,0][0.8032,0.4203,0][-0.0565999,-0.342566,0.630005][-0.5372,0.1109,0.8361][0.5842,0.3265,0][0.0570001,-0.341866,0.680105][-0.3223,0.1271,0.9381][0.5836,0.3473,0][0.0644001,-0.0984665,0.642605][-0.2948,0.144,0.9446][0.5457,0.3463,0][0.0644001,-0.0984665,0.642605][-0.2948,0.144,0.9446][0.5457,0.3463,0][-0.0517999,-0.0985665,0.598705][-0.5071,0.1158,0.8541][0.5468,0.3246,0][-0.0565999,-0.342566,0.630005][-0.5372,0.1109,0.8361][0.5842,0.3265,0][-0.2196,-0.344966,0.482505][-0.7738,0.0851001,0.6277][0.5853,0.2925,0][-0.0565999,-0.342566,0.630005][-0.5372,0.1109,0.8361][0.5842,0.3265,0][-0.0517999,-0.0985665,0.598705][-0.5071,0.1158,0.8541][0.5468,0.3246,0][-0.0517999,-0.0985665,0.598705][-0.5071,0.1158,0.8541][0.5468,0.3246,0][-0.2147,-0.0978665,0.455505][-0.7708,0.0806001,0.6319][0.5479,0.2894,0][-0.2196,-0.344966,0.482505][-0.7738,0.0851001,0.6277][0.5853,0.2925,0][-0.3283,-0.347966,0.292405][-0.9422,0.0572001,0.3301][0.5864,0.2603,0][-0.2196,-0.344966,0.482505][-0.7738,0.0851001,0.6277][0.5853,0.2925,0][-0.2147,-0.0978665,0.455505][-0.7708,0.0806001,0.6319][0.5479,0.2894,0][-0.2147,-0.0978665,0.455505][-0.7708,0.0806001,0.6319][0.5479,0.2894,0][-0.3258,-0.0927665,0.270605][-0.9454,0.0652001,0.3194][0.5481,0.2563,0][-0.3283,-0.347966,0.292405][-0.9422,0.0572001,0.3301][0.5864,0.2603,0][-0.1998,-0.354867,-0.345495][-0.7777,0.0381001,-0.6275][0.5875,0.1597,0][-0.2601,-0.353366,-0.189395][-0.9353,0.0286001,-0.3526][0.5873,0.1859,0][-0.2542,-0.100866,-0.202095][-0.9209,0.0343001,-0.3883][0.5491,0.183,0][-0.2542,-0.100866,-0.202095][-0.9209,0.0343001,-0.3883][0.5491,0.183,0][-0.1764,-0.104267,-0.354595][-0.7402,0.0313001,-0.6717][0.5493,0.1561,0][-0.1998,-0.354867,-0.345495][-0.7777,0.0381001,-0.6275][0.5875,0.1597,0][-0.00159991,-0.375367,-0.473795][-0.5002,0.0254001,-0.8656][0.5895,0.1189,0][-0.1998,-0.354867,-0.345495][-0.7777,0.0381001,-0.6275][0.5875,0.1597,0][-0.1764,-0.104267,-0.354595][-0.7402,0.0313001,-0.6717][0.5493,0.1561,0][-0.1764,-0.104267,-0.354595][-0.7402,0.0313001,-0.6717][0.5493,0.1561,0][0.00870016,-0.102967,-0.473395][-0.5039,0.0240001,-0.8634][0.548,0.1184,0][-0.00159991,-0.375367,-0.473795][-0.5002,0.0254001,-0.8656][0.5895,0.1189,0][0.5,-0.992367,0.113005][-0.000600151,-1,-0.002][0.825,0.483,0][0.2393,-0.984867,-0.752595][0.00519985,-0.9999,-0.0119][0.8193,0.4646,0][0.5,-0.991667,-0.639095][-0.0258002,-0.9997,-0.0009][0.826,0.4667,0][0.2406,-0.636267,-0.640795][-0.8106,0.1229,-0.5726][0.6288,0.0663,0][0.289,-0.362067,-0.669095][-0.4995,0.1041,-0.86][0.5873,0.0548,0][0.266,-0.633467,-0.702495][-0.4002,0.132,-0.9069][0.6298,0.0554,0][0.266,-0.633467,-0.702495][-0.4002,0.132,-0.9069][0.6298,0.0554,0][0.2484,-0.858967,-0.734295][-0.291,0.1556,-0.944][0.6642,0.0545,0][0.204,-0.860467,-0.670795][-0.8354,0.1616,-0.5253][0.6637,0.0679,0][0.204,-0.860467,-0.670795][-0.8354,0.1616,-0.5253][0.6637,0.0679,0][0.2406,-0.636267,-0.640795][-0.8106,0.1229,-0.5726][0.6288,0.0663,0][0.266,-0.633467,-0.702495][-0.4002,0.132,-0.9069][0.6298,0.0554,0][0.2484,-0.858967,-0.734295][-0.291,0.1556,-0.944][0.6642,0.0545,0][0.2393,-0.984867,-0.752595][-0.2488,0.1616,-0.955][0.682,0.0465,0][0.1898,-0.984967,-0.699495][-0.8267,0.1834,-0.5319][0.682,0.0694,0][0.1898,-0.984967,-0.699495][-0.8267,0.1834,-0.5319][0.682,0.0694,0][0.204,-0.860467,-0.670795][-0.8354,0.1616,-0.5253][0.6637,0.0679,0][0.2484,-0.858967,-0.734295][-0.291,0.1556,-0.944][0.6642,0.0545,0][0.5,-0.992367,0.113005][-0.000600151,-1,-0.002][0.825,0.483,0][-0.272,-0.991866,-0.347595][-0.000200151,-1,-0.0008][0.806,0.4732,0][-0.0823,-0.991767,-0.504495][-0.000100151,-1,-0.0009][0.8105,0.4695,0][0.1792,-0.103167,-0.564595][-0.3574,0.0367001,-0.9332][0.547,0.0846,0][0.00870016,-0.102967,-0.473395][-0.5039,0.0240001,-0.8634][0.548,0.1184,0][0.0253002,0.210533,-0.470195][-0.5127,0.0468001,-0.8573][0.4997,0.1175,0][0.0253002,0.210533,-0.470195][-0.5127,0.0468001,-0.8573][0.4997,0.1175,0][0.1913,0.209733,-0.561095][-0.2968,0.0419,-0.954][0.4989,0.0845,0][0.1792,-0.103167,-0.564595][-0.3574,0.0367001,-0.9332][0.547,0.0846,0][0.5,-0.0336666,0.045805][1,-1.50996e-007,0][0.8025,0.4128,0][0.5,0.217133,0.027605][1,-1.50996e-007,0][0.802,0.4054,0][0.5,0.224833,0.663405][1,-1.50996e-007,0][0.8132,0.4053,0][0.5,0.224833,0.663405][1,-1.50996e-007,0][0.8132,0.4053,0][0.5,-0.0981665,0.714505][1,-1.50996e-007,0][0.8144,0.4126,0][0.5,-0.0336666,0.045805][1,-1.50996e-007,0][0.8025,0.4128,0][0.2913,-0.108467,-0.592795][-0.6739,0.0888001,-0.7335][0.5471,0.0637,0][0.3206,0.202533,-0.570795][-0.628,0.0777001,-0.7744][0.499,0.0609,0][0.3381,0.206033,-0.624695][-0.5988,0.0739001,-0.7974][0.499,0.0516,0][0.3381,0.206033,-0.624695][-0.5988,0.0739001,-0.7974][0.499,0.0516,0][0.311,-0.105567,-0.649395][-0.5472,0.0906001,-0.8321][0.5474,0.0539,0][0.2913,-0.108467,-0.592795][-0.6739,0.0888001,-0.7335][0.5471,0.0637,0][0.5,-0.0981665,0.714505][-0.086,0.1523,0.9846][0.5427,0.427,0][0.5,0.224833,0.663405][-0.088,0.1481,0.9851][0.4883,0.4238,0][0.2642,0.224534,0.642105][-0.1615,0.1455,0.9761][0.4921,0.3791,0][0.2642,0.224534,0.642105][-0.1615,0.1455,0.9761][0.4921,0.3791,0][0.2569,-0.0982665,0.692805][-0.1662,0.1529,0.9742][0.5443,0.3818,0][0.5,-0.0981665,0.714505][-0.086,0.1523,0.9846][0.5427,0.427,0][0.5,-0.340567,0.750005][-0.0787,0.1245,0.9891][0.5828,0.4271,0][0.5,-0.0981665,0.714505][-0.086,0.1523,0.9846][0.5427,0.427,0][0.2569,-0.0982665,0.692805][-0.1662,0.1529,0.9742][0.5443,0.3818,0][0.2569,-0.0982665,0.692805][-0.1662,0.1529,0.9742][0.5443,0.3818,0][0.2523,-0.340967,0.730005][-0.1619,0.1285,0.9784][0.5828,0.3821,0][0.5,-0.340567,0.750005][-0.0787,0.1245,0.9891][0.5828,0.4271,0][0.1621,-0.361467,-0.560795][-0.4496,0.0401001,-0.8923][0.5867,0.0863,0][-0.00159991,-0.375367,-0.473795][-0.5002,0.0254001,-0.8656][0.5895,0.1189,0][0.00870016,-0.102967,-0.473395][-0.5039,0.0240001,-0.8634][0.548,0.1184,0][0.00870016,-0.102967,-0.473395][-0.5039,0.0240001,-0.8634][0.548,0.1184,0][0.1792,-0.103167,-0.564595][-0.3574,0.0367001,-0.9332][0.547,0.0846,0][0.1621,-0.361467,-0.560795][-0.4496,0.0401001,-0.8923][0.5867,0.0863,0][0.289,-0.362067,-0.669095][-0.4995,0.1041,-0.86][0.5873,0.0548,0][0.2666,-0.365167,-0.606495][-0.7448,0.0963001,-0.6603][0.5867,0.0657,0][0.2913,-0.108467,-0.592795][-0.6739,0.0888001,-0.7335][0.5471,0.0637,0][0.2913,-0.108467,-0.592795][-0.6739,0.0888001,-0.7335][0.5471,0.0637,0][0.311,-0.105567,-0.649395][-0.5472,0.0906001,-0.8321][0.5474,0.0539,0][0.289,-0.362067,-0.669095][-0.4995,0.1041,-0.86][0.5873,0.0548,0][0.2642,0.224534,0.642105][-0.1615,0.1455,0.9761][0.4921,0.3791,0][0.0746002,0.229534,0.594605][-0.2605,0.134,0.9561][0.4941,0.3433,0][0.0644001,-0.0984665,0.642605][-0.2948,0.144,0.9446][0.5457,0.3463,0][0.0644001,-0.0984665,0.642605][-0.2948,0.144,0.9446][0.5457,0.3463,0][0.2569,-0.0982665,0.692805][-0.1662,0.1529,0.9742][0.5443,0.3818,0][0.2642,0.224534,0.642105][-0.1615,0.1455,0.9761][0.4921,0.3791,0][0.0461001,-0.624566,0.711005][-0.3487,0.1128,0.9304][0.6266,0.3456,0][-0.0698999,-0.624967,0.653505][-0.5647,0.0940001,0.8199][0.6266,0.3253,0][-0.079,-0.862266,0.670505][-0.5956,0.0851001,0.7988][0.6621,0.3218,0][-0.079,-0.862266,0.670505][-0.5956,0.0851001,0.7988][0.6621,0.3218,0][0.0393,-0.862167,0.739605][-0.3821,0.1287,0.9151][0.6624,0.3418,0][0.0461001,-0.624566,0.711005][-0.3487,0.1128,0.9304][0.6266,0.3456,0][-0.079,-0.862266,0.670505][-0.5956,0.0851001,0.7988][0.6621,0.3218,0][-0.0868,-0.992666,0.676605][-0.6158,0.0809001,0.7837][0.682,0.3163,0][0.0278,-0.992666,0.756905][-0.4067,0.1386,0.903][0.682,0.3368,0][0.0278,-0.992666,0.756905][-0.4067,0.1386,0.903][0.682,0.3368,0][0.0393,-0.862167,0.739605][-0.3821,0.1287,0.9151][0.6624,0.3418,0][-0.079,-0.862266,0.670505][-0.5956,0.0851001,0.7988][0.6621,0.3218,0][0.2466,-0.624067,0.759905][-0.1566,0.1213,0.9802][0.6267,0.3799,0][0.2523,-0.340967,0.730005][-0.1619,0.1285,0.9784][0.5828,0.3821,0][0.0570001,-0.341866,0.680105][-0.3223,0.1271,0.9381][0.5836,0.3473,0][0.0570001,-0.341866,0.680105][-0.3223,0.1271,0.9381][0.5836,0.3473,0][0.0461001,-0.624566,0.711005][-0.3487,0.1128,0.9304][0.6266,0.3456,0][0.2466,-0.624067,0.759905][-0.1566,0.1213,0.9802][0.6267,0.3799,0][0.2642,0.224534,0.642105][-0.1615,0.1455,0.9761][0.4921,0.3791,0][0.2721,0.592934,0.590905][-0.149,0.1638,0.9752][0.4323,0.3727,0][0.1006,0.593034,0.553705][-0.2329,0.1562,0.9599][0.436,0.3402,0][0.1006,0.593034,0.553705][-0.2329,0.1562,0.9599][0.436,0.3402,0][0.0746002,0.229534,0.594605][-0.2605,0.134,0.9561][0.4941,0.3433,0][0.2642,0.224534,0.642105][-0.1615,0.1455,0.9761][0.4921,0.3791,0][0.0570001,-0.341866,0.680105][-0.3223,0.1271,0.9381][0.5836,0.3473,0][0.2523,-0.340967,0.730005][-0.1619,0.1285,0.9784][0.5828,0.3821,0][0.2569,-0.0982665,0.692805][-0.1662,0.1529,0.9742][0.5443,0.3818,0][0.2569,-0.0982665,0.692805][-0.1662,0.1529,0.9742][0.5443,0.3818,0][0.0644001,-0.0984665,0.642605][-0.2948,0.144,0.9446][0.5457,0.3463,0][0.0570001,-0.341866,0.680105][-0.3223,0.1271,0.9381][0.5836,0.3473,0][-0.2601,-0.353366,-0.189395][-0.9353,0.0286001,-0.3526][0.5873,0.1859,0][-0.3636,-0.351267,0.086405][-0.9946,0.0293002,-0.1][0.5872,0.2302,0][-0.3505,-0.0965665,0.073405][-0.9938,0.0468001,-0.101][0.549,0.227,0][-0.3505,-0.0965665,0.073405][-0.9938,0.0468001,-0.101][0.549,0.227,0][-0.2542,-0.100866,-0.202095][-0.9209,0.0343001,-0.3883][0.5491,0.183,0][-0.2601,-0.353366,-0.189395][-0.9353,0.0286001,-0.3526][0.5873,0.1859,0][-0.3636,-0.351267,0.086405][-0.9946,0.0293002,-0.1][0.5872,0.2302,0][-0.3283,-0.347966,0.292405][-0.9422,0.0572001,0.3301][0.5864,0.2603,0][-0.3258,-0.0927665,0.270605][-0.9454,0.0652001,0.3194][0.5481,0.2563,0][-0.3258,-0.0927665,0.270605][-0.9454,0.0652001,0.3194][0.5481,0.2563,0][-0.3505,-0.0965665,0.073405][-0.9938,0.0468001,-0.101][0.549,0.227,0][-0.3636,-0.351267,0.086405][-0.9946,0.0293002,-0.1][0.5872,0.2302,0][0.3206,0.202533,-0.570795][-0.628,0.0777001,-0.7744][0.499,0.0609,0][0.3411,0.584933,-0.554595][-0.6316,0.0132001,-0.7752][0.4399,0.0603,0][0.3579,0.585233,-0.608695][-0.6404,0.0302001,-0.7674][0.4397,0.0511,0][0.3579,0.585233,-0.608695][-0.6404,0.0302001,-0.7674][0.4397,0.0511,0][0.3381,0.206033,-0.624695][-0.5988,0.0739001,-0.7974][0.499,0.0516,0][0.3206,0.202533,-0.570795][-0.628,0.0777001,-0.7744][0.499,0.0609,0][0.5,0.849133,-0.632695][1,-1.50996e-007,0][0.7912,0.3941,0][0.5,0.816333,0.026105][1,-1.50996e-007,0][0.8014,0.3965,0][0.5,0.583033,-0.628795][1,-1.50996e-007,0][0.7915,0.3992,0][0.5,0.593133,0.610705][1,-1.50996e-007,0][0.8116,0.3991,0][0.5,0.224833,0.663405][1,-1.50996e-007,0][0.8132,0.4053,0][0.5,0.217133,0.027605][1,-1.50996e-007,0][0.802,0.4054,0][0.5,0.217133,0.027605][1,-1.50996e-007,0][0.802,0.4054,0][0.5,0.816333,0.026105][1,-1.50996e-007,0][0.8014,0.3965,0][0.5,0.593133,0.610705][1,-1.50996e-007,0][0.8116,0.3991,0][0.5,0.224833,0.663405][-0.088,0.1481,0.9851][0.4883,0.4238,0][0.5,0.593133,0.610705][-0.0855,0.1673,0.9822][0.4263,0.4157,0][0.2721,0.592934,0.590905][-0.149,0.1638,0.9752][0.4323,0.3727,0][0.2721,0.592934,0.590905][-0.149,0.1638,0.9752][0.4323,0.3727,0][0.2642,0.224534,0.642105][-0.1615,0.1455,0.9761][0.4921,0.3791,0][0.5,0.224833,0.663405][-0.088,0.1481,0.9851][0.4883,0.4238,0][0.1122,0.887833,0.500305][-0.2292,0.1537,0.9612][0.3885,0.3335,0][-0.0249997,0.893034,0.462505][-0.4663,0.177,0.8667][0.3909,0.3069,0][-0.0464998,0.594434,0.516005][-0.4682,0.151,0.8706][0.439,0.3125,0][-0.0464998,0.594434,0.516005][-0.4682,0.151,0.8706][0.439,0.3125,0][0.1006,0.593034,0.553705][-0.2329,0.1562,0.9599][0.436,0.3402,0][0.1122,0.887833,0.500305][-0.2292,0.1537,0.9612][0.3885,0.3335,0][-0.0249997,0.893034,0.462505][-0.4663,0.177,0.8667][0.3909,0.3069,0][-0.152,0.888633,0.351305][-0.7545,0.1611,0.6363][0.3934,0.277,0][-0.1799,0.593333,0.394605][-0.7768,0.1372,0.6146][0.441,0.2816,0][-0.1799,0.593333,0.394605][-0.7768,0.1372,0.6146][0.441,0.2816,0][-0.0464998,0.594434,0.516005][-0.4682,0.151,0.8706][0.439,0.3125,0][-0.0249997,0.893034,0.462505][-0.4663,0.177,0.8667][0.3909,0.3069,0][-0.152,0.888633,0.351305][-0.7545,0.1611,0.6363][0.3934,0.277,0][-0.2367,0.883034,0.204005][-0.9349,0.1328,0.3292][0.3953,0.2483,0][-0.2622,0.591933,0.235505][-0.9414,0.1166,0.3166][0.4421,0.2524,0][-0.2622,0.591933,0.235505][-0.9414,0.1166,0.3166][0.4421,0.2524,0][-0.1799,0.593333,0.394605][-0.7768,0.1372,0.6146][0.441,0.2816,0][-0.152,0.888633,0.351305][-0.7545,0.1611,0.6363][0.3934,0.277,0][-0.2367,0.883034,0.204005][-0.9349,0.1328,0.3292][0.3953,0.2483,0][-0.2682,0.876934,0.033005][-0.9891,0.129,-0.071][0.3967,0.2202,0][-0.292,0.590334,0.052705][-0.9941,0.0867001,-0.0645][0.4427,0.2232,0][-0.292,0.590334,0.052705][-0.9941,0.0867001,-0.0645][0.4427,0.2232,0][-0.2622,0.591933,0.235505][-0.9414,0.1166,0.3166][0.4421,0.2524,0][-0.2367,0.883034,0.204005][-0.9349,0.1328,0.3292][0.3953,0.2483,0][-0.2105,0.866634,-0.171495][-0.8989,0.1201,-0.4214][0.398,0.174,0][-0.2217,0.585634,-0.187695][-0.8987,0.0768001,-0.4317][0.4428,0.1763,0][-0.292,0.590334,0.052705][-0.9941,0.0867001,-0.0645][0.4427,0.2232,0][-0.292,0.590334,0.052705][-0.9941,0.0867001,-0.0645][0.4427,0.2232,0][-0.2682,0.876934,0.033005][-0.9891,0.129,-0.071][0.3967,0.2202,0][-0.2105,0.866634,-0.171495][-0.8989,0.1201,-0.4214][0.398,0.174,0][-0.0927997,0.857334,-0.333995][-0.7488,0.0707001,-0.659][0.3987,0.1516,0][-0.1149,0.581634,-0.336195][-0.7148,0.0786001,-0.6949][0.4428,0.1528,0][-0.2217,0.585634,-0.187695][-0.8987,0.0768001,-0.4317][0.4428,0.1763,0][-0.2217,0.585634,-0.187695][-0.8987,0.0768001,-0.4317][0.4428,0.1763,0][-0.2105,0.866634,-0.171495][-0.8989,0.1201,-0.4214][0.398,0.174,0][-0.0927997,0.857334,-0.333995][-0.7488,0.0707001,-0.659][0.3987,0.1516,0][-0.0927997,0.857334,-0.333995][-0.7488,0.0707001,-0.659][0.3987,0.1516,0][0.0569003,0.851733,-0.452595][-0.5588,0.0146001,-0.8292][0.3988,0.1177,0][0.0435002,0.583833,-0.458795][-0.5359,0.0615001,-0.8421][0.4414,0.1179,0][0.0435002,0.583833,-0.458795][-0.5359,0.0615001,-0.8421][0.4414,0.1179,0][-0.1149,0.581634,-0.336195][-0.7148,0.0786001,-0.6949][0.4428,0.1528,0][-0.0927997,0.857334,-0.333995][-0.7488,0.0707001,-0.659][0.3987,0.1516,0][0.1913,0.209733,-0.561095][-0.2968,0.0419,-0.954][0.4989,0.0845,0][0.0253002,0.210533,-0.470195][-0.5127,0.0468001,-0.8573][0.4997,0.1175,0][0.0435002,0.583833,-0.458795][-0.5359,0.0615001,-0.8421][0.4414,0.1179,0][0.0435002,0.583833,-0.458795][-0.5359,0.0615001,-0.8421][0.4414,0.1179,0][0.2044,0.584633,-0.550995][-0.3211,0.024,-0.9467][0.4406,0.0851,0][0.1913,0.209733,-0.561095][-0.2968,0.0419,-0.954][0.4989,0.0845,0][0.2777,0.887533,0.533005][-0.1286,0.1647,0.9779][0.3845,0.3649,0][0.1122,0.887833,0.500305][-0.2292,0.1537,0.9612][0.3885,0.3335,0][0.1006,0.593034,0.553705][-0.2329,0.1562,0.9599][0.436,0.3402,0][0.1006,0.593034,0.553705][-0.2329,0.1562,0.9599][0.436,0.3402,0][0.2721,0.592934,0.590905][-0.149,0.1638,0.9752][0.4323,0.3727,0][0.2777,0.887533,0.533005][-0.1286,0.1647,0.9779][0.3845,0.3649,0][0.1724,1.14233,0.261005][-0.0755998,0.9902,0.1174][0.8913,0.4215,0][0.3195,1.14233,0.296805][-0.00999985,0.9911,0.1324][0.8842,0.4229,0][0.3839,1.19503,-0.0206951][-0.00729985,0.9999,-0.0142][0.8807,0.4129,0][0.311,-0.105567,-0.649395][-0.5472,0.0906001,-0.8321][0.5474,0.0539,0][0.5,-0.102367,-0.634295][0.0732,0.0358,-0.9967][0.5447,0.0198,0][0.5,-0.359867,-0.632795][0.1804,0.0385,-0.9828][0.5843,0.016,0][0.5,-0.359867,-0.632795][0.1804,0.0385,-0.9828][0.5843,0.016,0][0.289,-0.362067,-0.669095][-0.4995,0.1041,-0.86][0.5873,0.0548,0][0.311,-0.105567,-0.649395][-0.5472,0.0906001,-0.8321][0.5474,0.0539,0][0.5,-0.102367,-0.634295][0.0732,0.0358,-0.9967][0.5447,0.0198,0][0.311,-0.105567,-0.649395][-0.5472,0.0906001,-0.8321][0.5474,0.0539,0][0.3381,0.206033,-0.624695][-0.5988,0.0739001,-0.7974][0.499,0.0516,0][0.3381,0.206033,-0.624695][-0.5988,0.0739001,-0.7974][0.499,0.0516,0][0.5,0.209333,-0.632495][-0.0364,0.035,-0.9987][0.4971,0.022,0][0.5,-0.102367,-0.634295][0.0732,0.0358,-0.9967][0.5447,0.0198,0][0.3579,0.585233,-0.608695][-0.6404,0.0302001,-0.7674][0.4397,0.0511,0][0.5,0.583033,-0.628795][-0.1274,0.0135,-0.9918][0.4383,0.0247,0][0.5,0.209333,-0.632495][-0.0364,0.035,-0.9987][0.4971,0.022,0][0.5,0.209333,-0.632495][-0.0364,0.035,-0.9987][0.4971,0.022,0][0.3381,0.206033,-0.624695][-0.5988,0.0739001,-0.7974][0.499,0.0516,0][0.3579,0.585233,-0.608695][-0.6404,0.0302001,-0.7674][0.4397,0.0511,0][0.5,0.849133,-0.632695][-0.1754,0.0198,-0.9843][0.396,0.0287,0][0.5,0.583033,-0.628795][-0.1274,0.0135,-0.9918][0.4383,0.0247,0][0.3579,0.585233,-0.608695][-0.6404,0.0302001,-0.7674][0.4397,0.0511,0][0.3579,0.585233,-0.608695][-0.6404,0.0302001,-0.7674][0.4397,0.0511,0][0.3602,0.850733,-0.606095][-0.2811,0.000900042,-0.9597][0.3977,0.0553,0][0.5,0.849133,-0.632695][-0.1754,0.0198,-0.9843][0.396,0.0287,0][0.2913,-0.108467,-0.592795][-0.6739,0.0888001,-0.7335][0.5471,0.0637,0][0.1792,-0.103167,-0.564595][-0.3574,0.0367001,-0.9332][0.547,0.0846,0][0.1913,0.209733,-0.561095][-0.2968,0.0419,-0.954][0.4989,0.0845,0][0.1913,0.209733,-0.561095][-0.2968,0.0419,-0.954][0.4989,0.0845,0][0.3206,0.202533,-0.570795][-0.628,0.0777001,-0.7744][0.499,0.0609,0][0.2913,-0.108467,-0.592795][-0.6739,0.0888001,-0.7335][0.5471,0.0637,0][0.2666,-0.365167,-0.606495][-0.7448,0.0963001,-0.6603][0.5867,0.0657,0][0.1621,-0.361467,-0.560795][-0.4496,0.0401001,-0.8923][0.5867,0.0863,0][0.1792,-0.103167,-0.564595][-0.3574,0.0367001,-0.9332][0.547,0.0846,0][0.1792,-0.103167,-0.564595][-0.3574,0.0367001,-0.9332][0.547,0.0846,0][0.2913,-0.108467,-0.592795][-0.6739,0.0888001,-0.7335][0.5471,0.0637,0][0.2666,-0.365167,-0.606495][-0.7448,0.0963001,-0.6603][0.5867,0.0657,0][0.3206,0.202533,-0.570795][-0.628,0.0777001,-0.7744][0.499,0.0609,0][0.1913,0.209733,-0.561095][-0.2968,0.0419,-0.954][0.4989,0.0845,0][0.2044,0.584633,-0.550995][-0.3211,0.024,-0.9467][0.4406,0.0851,0][0.2044,0.584633,-0.550995][-0.3211,0.024,-0.9467][0.4406,0.0851,0][0.3411,0.584933,-0.554595][-0.6316,0.0132001,-0.7752][0.4399,0.0603,0][0.3206,0.202533,-0.570795][-0.628,0.0777001,-0.7744][0.499,0.0609,0][0.3411,0.584933,-0.554595][-0.6316,0.0132001,-0.7752][0.4399,0.0603,0][0.2044,0.584633,-0.550995][-0.3211,0.024,-0.9467][0.4406,0.0851,0][0.2428,0.848933,-0.547295][-0.3866,-0.0243999,-0.9219][0.3983,0.0851,0][0.2428,0.848933,-0.547295][-0.3866,-0.0243999,-0.9219][0.3983,0.0851,0][0.3602,0.850733,-0.606095][-0.2811,0.000900042,-0.9597][0.3977,0.0553,0][0.3411,0.584933,-0.554595][-0.6316,0.0132001,-0.7752][0.4399,0.0603,0][0.2406,-0.636267,-0.640795][-0.8106,0.1229,-0.5726][0.6288,0.0663,0][0.1443,-0.635967,-0.546195][-0.5419,0.0595001,-0.8383][0.6284,0.0893,0][0.1621,-0.361467,-0.560795][-0.4496,0.0401001,-0.8923][0.5867,0.0863,0][0.1621,-0.361467,-0.560795][-0.4496,0.0401001,-0.8923][0.5867,0.0863,0][0.2666,-0.365167,-0.606495][-0.7448,0.0963001,-0.6603][0.5867,0.0657,0][0.2406,-0.636267,-0.640795][-0.8106,0.1229,-0.5726][0.6288,0.0663,0][0.5,0.816333,0.026105][1,-1.50996e-007,0][0.8014,0.3965,0][0.5,1.09223,-0.622395][1,-1.50996e-007,0][0.7949,0.3874,0][0.5,1.14363,-0.332695][1,-1.50996e-007,0][0.7977,0.3868,0][0.5,1.14363,-0.332695][1,-1.50996e-007,0][0.7977,0.3868,0][0.5,1.17483,0.0175049][1,-1.50996e-007,0][0.8012,0.3865,0][0.5,0.816333,0.026105][1,-1.50996e-007,0][0.8014,0.3965,0][0.5,1.09223,-0.622395][1,-1.50996e-007,0][0.7949,0.3874,0][0.5,0.816333,0.026105][1,-1.50996e-007,0][0.8014,0.3965,0][0.5,0.849133,-0.632695][1,-1.50996e-007,0][0.7912,0.3941,0][-0.2275,1.09913,0.0503049][-0.1737,0.9848,-0.0089][0.9104,0.4138,0][-0.2059,1.10003,0.217105][-0.1504,0.9874,0.0486][0.9088,0.4191,0][0.0494003,1.14233,0.138705][-0.1319,0.9893,0.0625][0.8969,0.4172,0][0.0494003,1.14233,0.138705][-0.1319,0.9893,0.0625][0.8969,0.4172,0][0.0188003,1.14233,-0.0517951][-0.1632,0.9856,-0.0444][0.898,0.4111,0][-0.2275,1.09913,0.0503049][-0.1737,0.9848,-0.0089][0.9104,0.4138,0][-0.2059,1.10003,0.217105][-0.1504,0.9874,0.0486][0.9091,0.419,0][-0.1008,1.10353,0.355605][-0.1202,0.9884,0.0925][0.9044,0.4234,0][0.0494003,1.14233,0.138705][-0.1319,0.9893,0.0625][0.8969,0.4172,0][-0.1008,1.10353,0.355605][-0.1202,0.9884,0.0925][0.9043,0.4235,0][0.0690003,1.11113,0.458905][-0.0890999,0.9899,0.1102][0.8964,0.4276,0][0.1724,1.14233,0.261005][-0.0755998,0.9902,0.1174][0.8913,0.4215,0][0.1724,1.14233,0.261005][-0.0755998,0.9902,0.1174][0.8913,0.4215,0][0.0494003,1.14233,0.138705][-0.1319,0.9893,0.0625][0.8969,0.4172,0][-0.1008,1.10353,0.355605][-0.1202,0.9884,0.0925][0.9043,0.4235,0][0.0690003,1.11113,0.458905][-0.0890999,0.9899,0.1102][0.8996,0.4259,0][0.122,1.11313,0.474105][-0.0567999,0.9915,0.1173][0.8938,0.4277,0][0.1724,1.14233,0.261005][-0.0755998,0.9902,0.1174][0.8913,0.4215,0][0.122,1.11313,0.474105][-0.0567999,0.9915,0.1173][0.8938,0.4277,0][0.279,1.11793,0.508305][-0.0251999,0.993,0.115][0.8864,0.4291,0][0.3195,1.14233,0.296805][-0.00999985,0.9911,0.1324][0.8842,0.4229,0][0.3195,1.14233,0.296805][-0.00999985,0.9911,0.1324][0.8842,0.4229,0][0.1724,1.14233,0.261005][-0.0755998,0.9902,0.1174][0.8913,0.4215,0][0.122,1.11313,0.474105][-0.0567999,0.9915,0.1173][0.8938,0.4277,0][0.279,1.11793,0.508305][-0.0251999,0.993,0.115][0.8864,0.4291,0][0.5,1.11993,0.501505][0.0106001,0.9923,0.1234][0.8757,0.4294,0][0.3195,1.14233,0.296805][-0.00999985,0.9911,0.1324][0.8842,0.4229,0][0.5,1.09223,-0.622395][-0.0448999,0.98,-0.1937][0.8732,0.395,0][0.2756,1.08883,-0.567295][-0.0685998,0.9772,-0.2012][0.8808,0.395,0][0.3733,1.14393,-0.331395][-0.0120999,0.9855,-0.1691][0.8805,0.4032,0][0.2756,1.08883,-0.567295][-0.0685998,0.9772,-0.2012][0.8879,0.3952,0][0.0649003,1.08923,-0.487195][-0.1088,0.9762,-0.1877][0.8955,0.3978,0][0.1459,1.14103,-0.266295][-0.1192,0.982,-0.1465][0.8918,0.4042,0][0.1459,1.14103,-0.266295][-0.1192,0.982,-0.1465][0.8918,0.4042,0][0.3733,1.14393,-0.331395][-0.0120999,0.9855,-0.1691][0.8805,0.4032,0][0.2756,1.08883,-0.567295][-0.0685998,0.9772,-0.2012][0.8879,0.3952,0][0.0649003,1.08923,-0.487195][-0.1088,0.9762,-0.1877][0.8955,0.3981,0][-0.0832997,1.09473,-0.311195][-0.1745,0.976,-0.1303][0.902,0.4019,0][0.1459,1.14103,-0.266295][-0.1192,0.982,-0.1465][0.8918,0.4042,0][-0.0832997,1.09473,-0.311195][-0.1745,0.976,-0.1303][0.9022,0.4015,0][-0.1762,1.09753,-0.120095][-0.1908,0.9776,-0.0884][0.9059,0.4044,0][0.0188003,1.14233,-0.0517951][-0.1632,0.9856,-0.0444][0.898,0.4111,0][0.0188003,1.14233,-0.0517951][-0.1632,0.9856,-0.0444][0.898,0.4111,0][0.1459,1.14103,-0.266295][-0.1192,0.982,-0.1465][0.8918,0.4042,0][-0.0832997,1.09473,-0.311195][-0.1745,0.976,-0.1303][0.9022,0.4015,0][-0.1762,1.09753,-0.120095][-0.1908,0.9776,-0.0884][0.906,0.4046,0][-0.2275,1.09913,0.0503049][-0.1737,0.9848,-0.0089][0.9114,0.4149,0][0.0188003,1.14233,-0.0517951][-0.1632,0.9856,-0.0444][0.898,0.4111,0][-0.152,0.888633,0.351305][-0.7545,0.1611,0.6363][0.3934,0.277,0][-0.1008,1.10353,0.355605][-0.6981,0.1705,0.6954][0.3579,0.2731,0][-0.2059,1.10003,0.217105][-0.9174,0.1447,0.3708][0.3591,0.2441,0][-0.2059,1.10003,0.217105][-0.9174,0.1447,0.3708][0.3591,0.2441,0][-0.2367,0.883034,0.204005][-0.9349,0.1328,0.3292][0.3953,0.2483,0][-0.152,0.888633,0.351305][-0.7545,0.1611,0.6363][0.3934,0.277,0][-0.0249997,0.893034,0.462505][-0.4663,0.177,0.8667][0.3909,0.3069,0][0.0690003,1.11113,0.458905][-0.3891,0.1537,0.9083][0.3562,0.3038,0][-0.1008,1.10353,0.355605][-0.6981,0.1705,0.6954][0.3579,0.2731,0][-0.1008,1.10353,0.355605][-0.6981,0.1705,0.6954][0.3579,0.2731,0][-0.152,0.888633,0.351305][-0.7545,0.1611,0.6363][0.3934,0.277,0][-0.0249997,0.893034,0.462505][-0.4663,0.177,0.8667][0.3909,0.3069,0][0.122,1.11313,0.474105][-0.2331,0.1197,0.9651][0.3538,0.3288,0][0.1122,0.887833,0.500305][-0.2292,0.1537,0.9612][0.3885,0.3335,0][0.2777,0.887533,0.533005][-0.1286,0.1647,0.9779][0.3845,0.3649,0][0.2777,0.887533,0.533005][-0.1286,0.1647,0.9779][0.3845,0.3649,0][0.279,1.11793,0.508305][-0.1146,0.1373,0.9839][0.3506,0.3588,0][0.122,1.11313,0.474105][-0.2331,0.1197,0.9651][0.3538,0.3288,0][0.5,0.849133,-0.632695][-0.1754,0.0198,-0.9843][0.396,0.0287,0][0.3602,0.850733,-0.606095][-0.2811,0.000900042,-0.9597][0.3977,0.0553,0][0.5,1.09223,-0.622395][-0.2214,0.0622,-0.9732][0.3589,0.0313,0][0.0649003,1.08923,-0.487195][-0.5533,-0.0337999,-0.8323][0.36,0.1178,0][0.2756,1.08883,-0.567295][-0.3494,-0.00549995,-0.937][0.36,0.0595,0][0.2428,0.848933,-0.547295][-0.3866,-0.0243999,-0.9219][0.3983,0.0851,0][0.2428,0.848933,-0.547295][-0.3866,-0.0243999,-0.9219][0.3983,0.0851,0][0.0569003,0.851733,-0.452595][-0.5588,0.0146001,-0.8292][0.3988,0.1177,0][0.0649003,1.08923,-0.487195][-0.5533,-0.0337999,-0.8323][0.36,0.1178,0][-0.2105,0.866634,-0.171495][-0.8989,0.1201,-0.4214][0.398,0.174,0][-0.1762,1.09753,-0.120095][-0.9044,0.1823,-0.3859][0.3617,0.1707,0][-0.0832997,1.09473,-0.311195][-0.7861,0.0886001,-0.6117][0.3638,0.1508,0][-0.0832997,1.09473,-0.311195][-0.7861,0.0886001,-0.6117][0.3638,0.1508,0][-0.0927997,0.857334,-0.333995][-0.7488,0.0707001,-0.659][0.3987,0.1516,0][-0.2105,0.866634,-0.171495][-0.8989,0.1201,-0.4214][0.398,0.174,0][-0.2682,0.876934,0.033005][-0.9891,0.129,-0.071][0.3967,0.2202,0][-0.2275,1.09913,0.0503049][-0.9826,0.1766,-0.0568][0.3599,0.2158,0][-0.1762,1.09753,-0.120095][-0.9044,0.1823,-0.3859][0.3617,0.1707,0][-0.1762,1.09753,-0.120095][-0.9044,0.1823,-0.3859][0.3617,0.1707,0][-0.2105,0.866634,-0.171495][-0.8989,0.1201,-0.4214][0.398,0.174,0][-0.2682,0.876934,0.033005][-0.9891,0.129,-0.071][0.3967,0.2202,0][-0.2367,0.883034,0.204005][-0.9349,0.1328,0.3292][0.3953,0.2483,0][-0.2059,1.10003,0.217105][-0.9174,0.1447,0.3708][0.3591,0.2441,0][-0.2275,1.09913,0.0503049][-0.9826,0.1766,-0.0568][0.3599,0.2158,0][-0.2275,1.09913,0.0503049][-0.9826,0.1766,-0.0568][0.3599,0.2158,0][-0.2682,0.876934,0.033005][-0.9891,0.129,-0.071][0.3967,0.2202,0][-0.2367,0.883034,0.204005][-0.9349,0.1328,0.3292][0.3953,0.2483,0][0.3602,0.850733,-0.606095][-0.2811,0.000900042,-0.9597][0.3977,0.0553,0][0.2428,0.848933,-0.547295][-0.3866,-0.0243999,-0.9219][0.3983,0.0851,0][0.2756,1.08883,-0.567295][-0.3494,-0.00549995,-0.937][0.36,0.0595,0][0.5,0.888333,0.551405][-0.0555,0.1775,0.9826][0.3775,0.4061,0][0.5,1.11993,0.501505][-0.027,0.1595,0.9868][0.3437,0.3989,0][0.279,1.11793,0.508305][-0.1146,0.1373,0.9839][0.3506,0.3588,0][0.279,1.11793,0.508305][-0.1146,0.1373,0.9839][0.3506,0.3588,0][0.2777,0.887533,0.533005][-0.1286,0.1647,0.9779][0.3845,0.3649,0][0.5,0.888333,0.551405][-0.0555,0.1775,0.9826][0.3775,0.4061,0][0.0569003,0.851733,-0.452595][-0.5588,0.0146001,-0.8292][0.3988,0.1177,0][-0.0927997,0.857334,-0.333995][-0.7488,0.0707001,-0.659][0.3987,0.1516,0][-0.0832997,1.09473,-0.311195][-0.7861,0.0886001,-0.6117][0.3638,0.1508,0][-0.0832997,1.09473,-0.311195][-0.7861,0.0886001,-0.6117][0.3638,0.1508,0][0.0649003,1.08923,-0.487195][-0.5533,-0.0337999,-0.8323][0.36,0.1178,0][0.0569003,0.851733,-0.452595][-0.5588,0.0146001,-0.8292][0.3988,0.1177,0][0.0690003,1.11113,0.458905][-0.3891,0.1537,0.9083][0.3562,0.3038,0][-0.0249997,0.893034,0.462505][-0.4663,0.177,0.8667][0.3909,0.3069,0][0.1122,0.887833,0.500305][-0.2292,0.1537,0.9612][0.3885,0.3335,0][0.1122,0.887833,0.500305][-0.2292,0.1537,0.9612][0.3885,0.3335,0][0.122,1.11313,0.474105][-0.2331,0.1197,0.9651][0.3538,0.3288,0][0.0690003,1.11113,0.458905][-0.3891,0.1537,0.9083][0.3562,0.3038,0][0.3733,1.14393,-0.331395][-0.0120999,0.9855,-0.1691][0.3584,0.0594,0][0.5,1.14363,-0.332695][0.0510001,0.9874,-0.15][0.358,0.0508,0][0.5,1.09223,-0.622395][-0.0448999,0.98,-0.1937][0.3589,0.0313,0][0.3602,0.850733,-0.606095][-0.2811,0.000900042,-0.9597][0.3977,0.0553,0][0.2756,1.08883,-0.567295][-0.3494,-0.00549995,-0.937][0.36,0.0595,0][0.5,1.09223,-0.622395][-0.2214,0.0622,-0.9732][0.3589,0.0313,0]