mtllib 63252779.mtl
o Mesh

v -0.13690699636936188 1.0783590078353882 0.11713399738073349
v -0.19934499263763428 0.9952989816665649 0.14746400713920593
v -0.07535000145435333 0.9952999949455261 0.2566930055618286
v -0.03930100053548813 1.0783590078353882 0.20311599969863892
v 0.09403099864721298 0.9952999949455261 0.2966740131378174
v 0.09403099864721298 1.0783590078353882 0.23458799719810486
v 0.2273630052804947 1.0783599615097046 0.20311599969863892
v 0.09403099864721298 1.0783590078353882 0.23458799719810486
v 0.09403099864721298 0.9952999949455261 0.2966740131378174
v 0.2634119987487793 0.9952999949455261 0.2566930055618286
v 0.32496899366378784 1.0783599615097046 0.11713399738073349
v 0.38740599155426025 0.9952999949455261 0.14746400713920593
v 0.3606950044631958 1.0783599615097046 -0.00031999999191612005
v 0.4327920079231262 0.9952999949455261 -0.0017450000159442425
v 0.38740599155426025 0.9952999949455261 -0.15095500648021698
v 0.32496899366378784 1.0783599615097046 -0.11777400225400925
v 0.2634119987487793 0.9952999949455261 -0.26018399000167847
v 0.2273630052804947 1.0783590078353882 -0.20375700294971466
v 0.09403099864721298 1.0783590078353882 -0.2352290004491806
v 0.1530030071735382 1.0783590078353882 -0.24146999418735504
v 0.1689469963312149 0.9952989816665649 -0.3009760081768036
v 0.09403099864721298 0.9952999949455261 -0.32570698857307434
v 0.0325389988720417 1.0783590078353882 -0.2408750057220459
v 0.01591400057077408 0.9952999949455261 -0.3002200126647949
v -0.07535000145435333 0.9952989816665649 -0.26018399000167847
v -0.03930100053548813 1.0783590078353882 -0.20375700294971466
v -0.13690699636936188 1.0783590078353882 -0.11777400225400925
v -0.19934499263763428 0.9952989816665649 -0.15095500648021698
v -0.17263300716876984 1.0783590078353882 -0.00031999999191612005
v -0.24472999572753906 0.9952989816665649 -0.0017450000159442425
v -0.29110199213027954 0.25906902551651 -0.07064300030469894
v -0.24679699540138245 0.2798290252685547 -0.22710199654102325
v -0.2836810052394867 0.16051900386810303 -0.21162199974060059
v -0.3322100043296814 0.16249901056289673 -0.05048999935388565
v -0.12575100362300873 0.30114901065826416 -0.35680699348449707
v -0.15109600126743317 0.1701589822769165 -0.3365269899368286
v -0.03665899857878685 0.3066890239715576 -0.39616701006889343
v -0.05350999906659126 0.17266899347305298 -0.37734198570251465
v 0.11273200064897537 0.30682897567749023 -0.39664000272750854
v 0.11012399941682816 0.17271900177001953 -0.37788599729537964
v 0.03001900017261505 0.17426997423171997 -0.40227699279785156
v 0.03959900140762329 0.3105490207672119 -0.4203830063343048
v 0.32599499821662903 0.2798290252685547 -0.22700700163841248
v 0.3437179923057556 0.16051900386810303 -0.21172299981117249
v 0.2111320048570633 0.17015999555587769 -0.3363350033760071
v 0.2049490064382553 0.30114901065826416 -0.35655900835990906
v 0.3702999949455261 0.2590699791908264 -0.07062000036239624
v 0.3922469913959503 0.1625000238418579 -0.05083199962973595
v 0.32599499821662903 0.2319200038909912 0.08723299950361252
v 0.3437179923057556 0.15818899869918823 0.10944800078868866
v 0.2049490064382553 0.22418898344039917 0.19771000742912292
v 0.2111320048570633 0.1704689860343933 0.22795400023460388
v 0.03959900140762329 0.2221199870109558 0.23678100109100342
v 0.03001900017261505 0.17629998922348022 0.26943498849868774
v -0.12575100362300873 0.22418898344039917 0.19705699384212494
v -0.15109600126743317 0.1704689860343933 0.22781500220298767
v 0.03001900017261505 0.17629998922348022 0.26943498849868774
v 0.03959900140762329 0.2221199870109558 0.23678100109100342
v -0.24679699540138245 0.23191899061203003 0.08689600229263306
v -0.2836810052394867 0.15818899869918823 0.10958299785852432
v -0.0846790000796318 0.650799036026001 -0.31288498640060425
v -0.2002599984407425 0.6377589702606201 -0.2015330046415329
v 0.0003910000086762011 0.6533800363540649 -0.35499200224876404
v 0.14303800463676453 0.6534689664840698 -0.3557890057563782
v 0.07320699840784073 0.6555800437927246 -0.3814440071582794
v 0.34667301177978516 0.6377600431442261 -0.2013709992170334
v 0.23109200596809387 0.6507999897003174 -0.3128550052642822
v 0.3889789879322052 0.619949996471405 -0.04939299821853638
v 0.34667301177978516 0.6021389961242676 0.10255800187587738
v 0.23109200596809387 0.5890899896621704 0.21379399299621582
v 0.07320699840784073 0.584318995475769 0.25450900197029114
v -0.0846790000796318 0.5890899896621704 0.21379399299621582
v 0.07320699840784073 0.584318995475769 0.25450900197029114
v -0.2002599984407425 0.6021389961242676 0.10255800187587738
v -0.24256500601768494 0.6199489831924438 -0.04939299821853638
v -0.04782100021839142 0.09097898006439209 -0.34829598665237427
v -0.13254399597644806 0.08801901340484619 -0.30858099460601807
v 0.09424400329589844 0.09099900722503662 -0.34907299280166626
v 0.02469700016081333 0.09230899810791016 -0.3743340075016022
v 0.2970469892024994 0.08587998151779175 -0.19001400470733643
v 0.18193799257278442 0.08801901340484619 -0.30851298570632935
v 0.33917900919914246 0.08294898271560669 -0.02624399960041046
v 0.2970469892024994 0.08134901523590088 0.10400199890136719
v 0.18193799257278442 0.0882599949836731 0.2036460041999817
v 0.02469700016081333 0.08746999502182007 0.24628899991512299
v -0.13254399597644806 0.0882599949836731 0.2036300003528595
v 0.02469700016081333 0.08746999502182007 0.24628899991512299
v -0.24765199422836304 0.08134901523590088 0.10398499667644501
v -0.2897849977016449 0.08294898271560669 -0.026190999895334244
v -0.24765199422836304 0.08587902784347534 -0.1898919939994812
v -0.020155999809503555 0.45583897829055786 -0.3681879937648773
v -0.10371900349855423 0.44686901569366455 -0.32989299297332764
v 0.11996500194072723 0.45605897903442383 -0.368584007024765
v 0.05136999860405922 0.46223902702331543 -0.3919669985771179
v 0.3199920058250427 0.41498899459838867 -0.22705000638961792
v 0.20645800232887268 0.44686901569366455 -0.3295699954032898
v 0.36154699325561523 0.3674600124359131 -0.07332000136375427
v 0.3199920058250427 0.3137400150299072 0.08445800095796585
v 0.20645800232887268 0.2818700075149536 0.1871040016412735
v 0.05136999860405922 0.2702000141143799 0.22393199801445007
v -0.10371900349855423 0.2818700075149536 0.185807004570961
v 0.05136999860405922 0.2702000141143799 0.22393199801445007
v -0.2172520011663437 0.31373900175094604 0.08353500068187714
v -0.2588079869747162 0.3674589991569519 -0.07379099726676941
v -0.2172520011663437 0.41498899459838867 -0.22738899290561676
v -0.13690699636936188 1.0783590078353882 0.11713399738073349
v -0.03930100053548813 1.0783590078353882 0.20311599969863892
v 0.09403099864721298 1.1332789659500122 -3.999999989900971e-06
v 0.09403099864721298 1.0783590078353882 0.23458799719810486
v 0.2273630052804947 1.0783599615097046 0.20311599969863892
v 0.32496899366378784 1.0783599615097046 0.11713399738073349
v 0.3606950044631958 1.0783599615097046 -0.00031999999191612005
v 0.32496899366378784 1.0783599615097046 -0.11777400225400925
v 0.2273630052804947 1.0783590078353882 -0.20375700294971466
v 0.09403099864721298 1.0783590078353882 -0.2352290004491806
v 0.1530030071735382 1.0783590078353882 -0.24146999418735504
v -0.03930100053548813 1.0783590078353882 -0.20375700294971466
v 0.0325389988720417 1.0783590078353882 -0.2408750057220459
v -0.13690699636936188 1.0783590078353882 -0.11777400225400925
v -0.17263300716876984 1.0783590078353882 -0.00031999999191612005
v -0.24528299272060394 0.008399009704589844 -0.16090700030326843
v -0.2866879999637604 -0.047145962715148926 0.0005239999736659229
v -0.13216400146484375 -0.04871499538421631 -0.2803240120410919
v -0.04890500009059906 0.007929027080535889 -0.31922200322151184
v 0.022360999137163162 -0.04730796813964844 -0.3446579873561859
v 0.0907059982419014 0.007908999919891357 -0.3199540078639984
v 0.17688600718975067 -0.0487140417098999 -0.2802940011024475
v 0.29000601172447205 0.008399009704589844 -0.16106699407100677
v 0.3314099907875061 -0.04714500904083252 0.0004459999909158796
v 0.29000601172447205 0.008428990840911865 0.13901600241661072
v 0.17688600718975067 -0.04523301124572754 0.2541840076446533
v 0.022360999137163162 0.01093900203704834 0.2963390052318573
v -0.13216400146484375 -0.045233964920043945 0.2541840076446533
v 0.022360999137163162 0.01093900203704834 0.2963390052318573
v -0.24528299272060394 0.008428990840911865 0.13901600241661072
v -0.2568820118904114 -0.047096967697143555 -0.0018570000538602471
v -0.21946999430656433 0.00843900442123413 -0.14771899580955505
v -0.11726099997758865 -0.0485149621963501 -0.25561800599098206
v -0.04203199967741966 0.008019983768463135 -0.2907649874687195
v 0.022360999137163162 -0.04724395275115967 -0.31374800205230713
v 0.08411499857902527 0.007999002933502197 -0.29142600297927856
v 0.16198299825191498 -0.04851400852203369 -0.2555910050868988
v 0.26419299840927124 0.00843900442123413 -0.1478630006313324
v 0.3016040027141571 -0.04709601402282715 -0.001927000004798174
v 0.26419299840927124 0.008469998836517334 0.12327899783849716
v 0.16198299825191498 -0.04536902904510498 0.2273389995098114
v 0.022360999137163162 0.01073998212814331 0.26542899012565613
v 0.022360999137163162 0.01073998212814331 0.26542899012565613
v -0.11726099997758865 -0.04536998271942139 0.2273389995098114
v -0.21946999430656433 0.008468985557556152 0.12327899783849716
v -0.2140440046787262 -0.21637499332427979 -0.11371000111103058
v -0.24980700016021729 -0.2164139747619629 0.025724999606609344
v -0.2568820118904114 -0.047096967697143555 -0.0018570000538602471
v -0.21946999430656433 0.00843900442123413 -0.14771899580955505
v -0.11726099997758865 -0.0485149621963501 -0.25561800599098206
v -0.11633799970149994 -0.21776795387268066 -0.2168560028076172
v -0.044422999024391174 -0.21678197383880615 -0.25045400857925415
v -0.04203199967741966 0.008019983768463135 -0.2907649874687195
v 0.022360999137163162 -0.04724395275115967 -0.31374800205230713
v 0.017132999375462532 -0.2165529727935791 -0.27242401242256165
v 0.07616499811410904 -0.21679294109344482 -0.2510859966278076
v 0.08411499857902527 0.007999002933502197 -0.29142600297927856
v 0.16198299825191498 -0.04851400852203369 -0.2555910050868988
v 0.15060299634933472 -0.21776795387268066 -0.21683000028133392
v 0.24830999970436096 -0.21637403964996338 -0.1138480007648468
v 0.26419299840927124 0.00843900442123413 -0.1478630006313324
v 0.3016040027141571 -0.04709601402282715 -0.001927000004798174
v 0.28407299518585205 -0.21641302108764648 0.025658000260591507
v 0.24830999970436096 -0.2163480520248413 0.145346999168396
v 0.26419299840927124 0.008469998836517334 0.12327899783849716
v 0.16198299825191498 -0.04536902904510498 0.2273389995098114
v 0.15060299634933472 -0.21476197242736816 0.2720150053501129
v 0.017132999375462532 -0.21418094635009766 0.30842599272727966
v 0.022360999137163162 0.01073998212814331 0.26542899012565613
v 0.017132999375462532 -0.21418094635009766 0.30842599272727966
v 0.022360999137163162 0.01073998212814331 0.26542899012565613
v -0.11726099997758865 -0.04536998271942139 0.2273389995098114
v -0.11633799970149994 -0.21476197242736816 0.2720150053501129
v -0.2140440046787262 -0.21634900569915771 0.145346999168396
v -0.21946999430656433 0.008468985557556152 0.12327899783849716
v -0.2268580049276352 -0.5018399953842163 0.05981000140309334
v -0.19475799798965454 -0.5017809867858887 0.16717800498008728
v -0.10706000030040741 -0.5003570318222046 0.25646498799324036
v 0.0127379996702075 -0.4998359680175781 0.2891460061073303
v 0.13253700733184814 -0.5003570318222046 0.25646498799324036
v 0.0127379996702075 -0.4998359680175781 0.2891460061073303
v 0.22023500502109528 -0.5017800331115723 0.16717800498008728
v 0.25233399868011475 -0.5018390417098999 0.059748999774456024
v 0.22023500502109528 -0.5018030405044556 -0.0654670000076294
v 0.13253700733184814 -0.5030560493469238 -0.15790000557899475
v 0.06572400033473969 -0.5021799802780151 -0.18864700198173523
v 0.0127379996702075 -0.5019659996032715 -0.2077990025281906
v -0.04251199960708618 -0.5021699666976929 -0.18807899951934814
v -0.10706000030040741 -0.5030560493469238 -0.15792299807071686
v -0.19475799798965454 -0.501803994178772 -0.06534299999475479
v -0.11783099919557571 -0.5512330532073975 0.3299790024757385
v -0.21174000203609467 -0.5512330532073975 0.21473899483680725
v -0.24629199504852295 -0.7443259954452515 0.23874500393867493
v -0.13950100541114807 -0.7443250417709351 0.36692899465560913
v 0.006380000151693821 -0.7443250417709351 0.39998599886894226
v 0.010452000424265862 -0.5512330532073975 0.36338698863983154
v 0.1522590070962906 -0.7443250417709351 0.36692899465560913
v 0.13873499631881714 -0.5512330532073975 0.3299790024757385
v 0.23264500498771667 -0.67215895652771 0.21473899483680725
v 0.25905099511146545 -0.7443250417709351 0.23874500393867493
v 0.2981390058994293 -0.7443250417709351 0.052724000066518784
v 0.26701799035072327 -0.5512330532073975 0.06674899905920029
v 0.23264500498771667 -0.5537790060043335 -0.0786999985575676
v 0.25905099511146545 -0.7444440126419067 -0.10382000356912613
v 0.25420400500297546 -0.6299129724502563 -0.4754270017147064
v 0.25905099511146545 -0.7480119466781616 -0.5002239942550659
v 0.1522590070962906 -0.7458570003509521 -0.6302019953727722
v 0.15076400339603424 -0.5839279890060425 -0.6156269907951355
v 0.006380000151693821 -0.7449150085449219 -0.6288089752197266
v 0.009463000111281872 -0.5638389587402344 -0.6179739832878113
v -0.13183799386024475 -0.6027430295944214 -0.5279080271720886
v -0.13950100541114807 -0.7467399835586548 -0.5424839854240417
v -0.235276997089386 -0.6613349914550781 -0.37924399971961975
v -0.24629199504852295 -0.749485969543457 -0.40404099225997925
v -0.23676800727844238 -0.5852010250091553 -0.0786999985575676
v -0.28603601455688477 -0.7459180355072021 -0.10382000356912613
v -0.2853800058364868 -0.7443259954452515 0.052724000066518784
v -0.24611300230026245 -0.5512340068817139 0.06674899905920029
v -0.1443070024251938 -1.0 0.36520901322364807
v -0.25384899973869324 -1.0 0.23657500743865967
v 0.005330999847501516 -1.0 0.031831998378038406
v 0.005332000087946653 -1.0 0.39691901206970215
v 0.1549679934978485 -1.0 0.36520901322364807
v 0.26451000571250916 -1.0 0.23657500743865967
v 0.30460500717163086 -1.0 0.053700998425483704
v 0.26451000571250916 -1.0 -0.1015240028500557
v 0.1614380031824112 -1.0 -0.1270499974489212
v 0.005330999847501516 -1.0 -0.15875999629497528
v -0.15077699720859528 -1.0 -0.1270499974489212
v -0.29359298944473267 -1.0 -0.1015240028500557
v -0.29394400119781494 -1.0 0.053700998425483704
v 0.013303999789059162 -0.3524010181427002 -0.26139798760414124
v 0.14382800459861755 -0.35246503353118896 -0.215379998087883
v 0.13873499631881714 -0.4816550016403198 -0.2336769998073578
v 0.010452000424265862 -0.48165595531463623 -0.267085999250412
v 0.23937800526618958 -0.35263800621032715 -0.08965899795293808
v 0.23264500498771667 -0.5537790060043335 -0.0786999985575676
v 0.27435100078582764 -0.3528740406036377 0.058837998658418655
v 0.26701799035072327 -0.5512330532073975 0.06674899905920029
v 0.23937800526618958 -0.35311102867126465 0.19412900507450104
v 0.23264500498771667 -0.67215895652771 0.21473899483680725
v 0.14382800459861755 -0.35328495502471924 0.3182789981365204
v 0.13873499631881714 -0.5512330532073975 0.3299790024757385
v 0.013303999789059162 -0.35334694385528564 0.3569439947605133
v 0.010452000424265862 -0.5512330532073975 0.36338698863983154
v -0.1172190010547638 -0.3532860279083252 0.3182789981365204
v -0.11783099919557571 -0.5512330532073975 0.3299790024757385
v -0.21276800334453583 -0.35311198234558105 0.19412900507450104
v -0.21174000203609467 -0.5512330532073975 0.21473899483680725
v -0.24774199724197388 -0.3528749942779541 0.058837998658418655
v -0.24611300230026245 -0.5512340068817139 0.06674899905920029
v -0.21276800334453583 -0.35263895988464355 -0.08965899795293808
v -0.23676800727844238 -0.5852010250091553 -0.0786999985575676
v -0.1172190010547638 -0.35246503353118896 -0.215379998087883
v -0.11783099919557571 -0.5130770206451416 -0.2336769998073578
v 0.30590900778770447 -1.0 -0.23592199385166168
v 0.18637299537658691 -1.0 -0.3225559890270233
v 0.27556198835372925 -0.5987420082092285 -0.24728800356388092
v 0.15476499497890472 -0.5719239711761475 -0.3796580135822296
v 0.13873499631881714 -0.4816550016403198 -0.2336769998073578
v 0.2995780110359192 -0.7465510368347168 -0.24192500114440918
v 0.005330999847501516 -1.0 -0.34295499324798584
v 0.010452000424265862 -0.48165595531463623 -0.267085999250412
v 0.010122999548912048 -0.5597950220108032 -0.416456013917923
v -0.1757110059261322 -1.0 -0.3225559890270233
v -0.15374700725078583 -0.6033450365066528 -0.3796580135822296
v -0.11783099919557571 -0.5130770206451416 -0.2336769998073578
v -0.29524698853492737 -1.0 -0.23592199385166168
v -0.2737089991569519 -0.6632629632949829 -0.24728800356388092
v -0.2864829897880554 -0.7495759725570679 -0.24192500114440918
v -0.25384899973869324 -1.0 -0.38484299182891846
v -0.1443070024251938 -1.0 -0.5196049809455872
v 0.005330999847501516 -1.0 -0.6045839786529541
v 0.26451000571250916 -1.0 -0.4810259938240051
v 0.1549679934978485 -1.0 -0.6073240041732788
v -0.29471299052238464 -0.7476680278778076 -0.10330600291490555
v -0.29359298944473267 -1.0 -0.1015240028500557
v -0.29394400119781494 -1.0 0.053700998425483704
v -0.2941429913043976 -0.7461960315704346 0.05733200162649155
v -0.25384899973869324 -1.0 0.23657500743865967
v -0.25389599800109863 -0.7461949586868286 0.24805599451065063
v -0.1443070024251938 -1.0 0.36520901322364807
v -0.14393700659275055 -0.7461949586868286 0.37975001335144043
v 0.005332000087946653 -1.0 0.39691901206970215
v 0.006271000020205975 -0.7461949586868286 0.41356199979782104
v 0.15647700428962708 -0.7461949586868286 0.37975001335144043
v 0.1549679934978485 -1.0 0.36520901322364807
v 0.26643699407577515 -0.7461949586868286 0.24805599451065063
v 0.26451000571250916 -1.0 0.23657500743865967
v 0.3066839873790741 -0.7461949586868286 0.05733200162649155
v 0.30460500717163086 -1.0 0.053700998425483704
v 0.26643699407577515 -0.746304988861084 -0.10330600291490555
v 0.26451000571250916 -1.0 -0.1015240028500557
v 0.30590900778770447 -1.0 -0.23592199385166168
v 0.30814799666404724 -0.7482529878616333 -0.24476200342178345
v 0.26451000571250916 -1.0 -0.4810259938240051
v 0.26643699407577515 -0.7496039867401123 -0.5086860060691833
v 0.1549679934978485 -1.0 -0.6073240041732788
v 0.15647700428962708 -0.7476119995117188 -0.6417989730834961
v 0.005330999847501516 -1.0 -0.6045839786529541
v 0.006271000020205975 -0.7467420101165771 -0.6402300000190735
v -0.14393700659275055 -0.7484279870986938 -0.5517110228538513
v -0.1443070024251938 -1.0 -0.5196049809455872
v -0.25389599800109863 -0.75096595287323 -0.40990498661994934
v -0.25384899973869324 -1.0 -0.38484299182891846
v -0.29524698853492737 -1.0 -0.23592199385166168
v -0.2952960133552551 -0.7510499954223633 -0.24476200342178345
v 0.14382800459861755 -0.35246503353118896 -0.215379998087883
v 0.013303999789059162 -0.3524010181427002 -0.26139798760414124
v 0.0133050000295043 -0.3528749942779541 0.04782100021839142
v 0.23937800526618958 -0.35263800621032715 -0.08965899795293808
v 0.27435100078582764 -0.3528740406036377 0.058837998658418655
v 0.23937800526618958 -0.35311102867126465 0.19412900507450104
v 0.14382800459861755 -0.35328495502471924 0.3182789981365204
v 0.013303999789059162 -0.35334694385528564 0.3569439947605133
v -0.1172190010547638 -0.3532860279083252 0.3182789981365204
v -0.21276800334453583 -0.35311198234558105 0.19412900507450104
v -0.24774199724197388 -0.3528749942779541 0.058837998658418655
v -0.21276800334453583 -0.35263895988464355 -0.08965899795293808
v -0.1172190010547638 -0.35246503353118896 -0.215379998087883

vn -0.4656449854373932 0.8300380110740662 0.3069379925727844
vn -0.802046000957489 0.29746800661087036 0.5179139971733093
vn -0.44166100025177 0.27096301317214966 0.8552860021591187
vn -0.25929200649261475 0.8190199732780457 0.511834979057312
vn 0.0055519999004900455 0.2518030107021332 0.9677630066871643
vn -0.0 0.8139359951019287 0.5809550285339355
vn 0.25929099321365356 0.8190199732780457 0.511834979057312
vn -0.0 0.8139359951019287 0.5809550285339355
vn 0.0055519999004900455 0.2518030107021332 0.9677630066871643
vn 0.4536780118942261 0.24323399364948273 0.8573290109634399
vn 0.46564799547195435 0.830036997795105 0.3069379925727844
vn 0.8141120076179504 0.25243398547172546 0.522970974445343
vn 0.5472210049629211 0.8369879722595215 0.0013200000394135714
vn 0.9605749845504761 0.27786698937416077 0.009232000447809696
vn 0.8099910020828247 0.31335800886154175 -0.4957030117511749
vn 0.4623900055885315 0.8335719704627991 -0.30224600434303284
vn 0.5161740183830261 0.349031001329422 -0.782139003276825
vn 0.29485899209976196 0.8414239883422852 -0.4528389871120453
vn -0.0024240000639110804 0.873091995716095 -0.4875499904155731
vn 0.0777370035648346 0.8624719977378845 -0.5001000165939331
vn 0.3061630129814148 0.39356398582458496 -0.8668169975280762
vn 0.008574999868869781 0.44632500410079956 -0.8948299884796143
vn -0.08293399959802628 0.8629299998283386 -0.4984709918498993
vn -0.3029420077800751 0.4128490090370178 -0.8589419722557068
vn -0.5074250102043152 0.3802889883518219 -0.7732399702072144
vn -0.29587700963020325 0.8419110178947449 -0.4512679874897003
vn -0.4623880088329315 0.8335739970207214 -0.30224499106407166
vn -0.7934039831161499 0.3598890006542206 -0.4909070134162903
vn -0.54721999168396 0.8369879722595215 0.0013200000394135714
vn -0.9443950057029724 0.32864901423454285 0.010389000177383423
vn -0.9421370029449463 0.3343679904937744 0.02401600033044815
vn -0.8575429916381836 0.18399499356746674 -0.4803819954395294
vn -0.8621159791946411 -0.13380999863147736 -0.4887250065803528
vn -0.9996029734611511 -0.026228999719023705 0.01028900034725666
vn -0.5628780126571655 0.09357000142335892 -0.8212270140647888
vn -0.557532012462616 -0.17687900364398956 -0.8110929727554321
vn -0.35477399826049805 0.0621270015835762 -0.932886004447937
vn -0.33479198813438416 -0.20492999255657196 -0.9197379946708679
vn 0.35260799527168274 0.006651000119745731 -0.9357479810714722
vn 0.3327530026435852 -0.25181901454925537 -0.9087700247764587
vn -2.300000051036477e-05 -0.2204349935054779 -0.9754019975662231
vn -0.00015799999528098851 0.03242599964141846 -0.9994739890098572
vn 0.8621000051498413 0.038704998791217804 -0.5052570104598999
vn 0.8339049816131592 -0.2517069876194 -0.49116700887680054
vn 0.5422400236129761 -0.2621380090713501 -0.7982850074768066
vn 0.5566920042037964 0.009339000098407269 -0.8306660056114197
vn 0.989986002445221 0.14108900725841522 -0.004738000221550465
vn 0.9871519804000854 -0.15951299667358398 0.00930199958384037
vn 0.8254770040512085 0.22013799846172333 0.5197380185127258
vn 0.8401820063591003 -0.07536199688911438 0.5370429754257202
vn 0.44391998648643494 0.3254779875278473 0.8348649740219116
vn 0.45862799882888794 0.05588899925351143 0.8868690133094788
vn 0.0036150000523775816 0.4331200122833252 0.901328980922699
vn 0.0053449999541044235 0.16992700099945068 0.9854419827461243
vn -0.40011098980903625 0.46700501441955566 0.7885540127754211
vn -0.46792298555374146 0.133992999792099 0.8735520243644714
vn 0.0053449999541044235 0.16992700099945068 0.9854419827461243
vn 0.0036150000523775816 0.4331200122833252 0.901328980922699
vn -0.7648640275001526 0.4199190139770508 0.4885199964046478
vn -0.8486440181732178 0.04670599848031998 0.5268980264663696
vn -0.5693960189819336 0.13116100430488586 -0.8115329742431641
vn -0.854203999042511 0.10246700048446655 -0.5097410082817078
vn -0.3890970051288605 0.1322530061006546 -0.911653995513916
vn 0.3897869884967804 0.0701259970664978 -0.9182310104370117
vn 0.006357000209391117 0.10883300006389618 -0.9940400123596191
vn 0.8541250228881836 -0.02847299911081791 -0.5192869901657104
vn 0.5687500238418579 0.04320700094103813 -0.8213750123977661
vn 0.9938240051269531 -0.10963500291109085 -0.0171549990773201
vn 0.8579069972038269 -0.13104400038719177 0.49681198596954346
vn 0.4878470003604889 -0.11859399825334549 0.8648359775543213
vn 0.001934999949298799 -0.1001959964632988 0.9949659705162048
vn -0.48227301239967346 -0.06736999750137329 0.8734269738197327
vn 0.001934999949298799 -0.1001959964632988 0.9949659705162048
vn -0.8593509793281555 -0.022134000435471535 0.510906994342804
vn -0.9994120001792908 0.034210000187158585 0.0021520000882446766
vn -0.34734800457954407 -0.3256630003452301 -0.8793709874153137
vn -0.5212169885635376 -0.30373600125312805 -0.7975450158119202
vn 0.3479439914226532 -0.34743499755859375 -0.870760977268219
vn -0.0020989999175071716 -0.3159799873828888 -0.9487640261650085
vn 0.7660750150680542 -0.42501300573349 -0.48217499256134033
vn 0.5217189788818359 -0.33649200201034546 -0.7839530110359192
vn 0.9412149786949158 -0.3372719883918762 0.019003000110387802
vn 0.8312950134277344 -0.18396900594234467 0.5245050191879272
vn 0.47498399019241333 -0.030903000384569168 0.8794519901275635
vn 0.006779999937862158 0.1665560007095337 0.9860090017318726
vn -0.4900059998035431 -0.0034749999176710844 0.8717120289802551
vn 0.006779999937862158 0.1665560007095337 0.9860090017318726
vn -0.8443909883499146 -0.11415400356054306 0.5234230160713196
vn -0.9638879895210266 -0.26520898938179016 0.024188000708818436
vn -0.8096669912338257 -0.3508709967136383 -0.47045499086380005
vn -0.3759010136127472 0.1562349945306778 -0.9133939743041992
vn -0.5633180141448975 0.1751130074262619 -0.807470977306366
vn 0.3724380135536194 0.0859839990735054 -0.9240649938583374
vn -0.004228000063449144 0.12224200367927551 -0.9924910068511963
vn 0.8529120087623596 0.005582999903708696 -0.5220249891281128
vn 0.5542920231819153 0.06953900307416916 -0.8294119834899902
vn 0.9997119903564453 -0.015077999792993069 -0.018672000616788864
vn 0.8557519912719727 -0.013627000153064728 0.5172060132026672
vn 0.47477298974990845 0.016818000003695488 0.8799480199813843
vn 0.012513999827206135 0.08732099831104279 0.996101975440979
vn -0.43428000807762146 0.14980800449848175 0.8882330060005188
vn 0.012513999827206135 0.08732099831104279 0.996101975440979
vn -0.8224549889564514 0.17019300162792206 0.5427719950675964
vn -0.9855120182037354 0.1671379953622818 0.0288309995085001
vn -0.8581799864768982 0.16054199635982513 -0.4875989854335785
vn -0.4656449854373932 0.8300380110740662 0.3069379925727844
vn -0.25929200649261475 0.8190199732780457 0.511834979057312
vn -0.0 1.0 0.000311999989207834
vn -0.0 0.8139359951019287 0.5809550285339355
vn 0.25929099321365356 0.8190199732780457 0.511834979057312
vn 0.46564799547195435 0.830036997795105 0.3069379925727844
vn 0.5472210049629211 0.8369879722595215 0.0013200000394135714
vn 0.4623900055885315 0.8335719704627991 -0.30224600434303284
vn 0.29485899209976196 0.8414239883422852 -0.4528389871120453
vn -0.0024240000639110804 0.873091995716095 -0.4875499904155731
vn 0.0777370035648346 0.8624719977378845 -0.5001000165939331
vn -0.29587700963020325 0.8419110178947449 -0.4512679874897003
vn -0.08293399959802628 0.8629299998283386 -0.4984709918498993
vn -0.4623880088329315 0.8335739970207214 -0.30224499106407166
vn -0.54721999168396 0.8369879722595215 0.0013200000394135714
vn -0.6940410137176514 -0.6413059830665588 -0.3271600008010864
vn -0.6844620108604431 -0.725845992565155 0.06825900077819824
vn -0.26492100954055786 -0.8041219711303711 -0.5321699976921082
vn -0.34500500559806824 -0.6297919750213623 -0.6959409713745117
vn 0.0053400001488626 -0.8071680068969727 -0.5902969837188721
vn 0.35494500398635864 -0.6355879902839661 -0.6855959892272949
vn 0.2726289927959442 -0.8003420233726501 -0.5339720249176025
vn 0.6756250262260437 -0.6521000266075134 -0.3439429998397827
vn 0.6722649931907654 -0.7373499870300293 0.06613899767398834
vn 0.7190390229225159 -0.46132001280784607 0.5197769999504089
vn 0.36691200733184814 -0.6301820278167725 0.6842849850654602
vn -0.004087999928742647 -0.3096199929714203 0.9508510231971741
vn -0.37046000361442566 -0.6252959966659546 0.6868510246276855
vn -0.004087999928742647 -0.3096199929714203 0.9508510231971741
vn -0.7335169911384583 -0.44081801176071167 0.5173320174217224
vn -0.7215189933776855 -0.692317008972168 0.010354000143706799
vn -0.4726260006427765 -0.8393930196762085 -0.26840901374816895
vn -0.3422349989414215 -0.6937509775161743 -0.6337080001831055
vn -0.2112320065498352 -0.8406720161437988 -0.4986500144004822
vn 0.019516000524163246 -0.6985309720039368 -0.7153139710426331
vn 0.21995599567890167 -0.8428580164909363 -0.4911310076713562
vn 0.32754799723625183 -0.7148159742355347 -0.6178590059280396
vn 0.4660399854183197 -0.849448025226593 -0.2474759966135025
vn 0.6976040005683899 -0.716405987739563 0.010503999888896942
vn 0.4889410138130188 -0.8214589953422546 0.29350098967552185
vn 0.4339889883995056 -0.6160020232200623 0.6574159860610962
vn 0.0021609999239444733 -0.7760199904441833 0.6307039856910706
vn 0.0021609999239444733 -0.7760199904441833 0.6307039856910706
vn -0.43468400835990906 -0.5996779799461365 0.6718909740447998
vn -0.4992240071296692 -0.8127490282058716 0.30035901069641113
vn -0.8705620169639587 -0.12393700331449509 -0.47619500756263733
vn -0.9980959892272949 -0.056891001760959625 0.023840999230742455
vn -0.7215189933776855 -0.692317008972168 0.010354000143706799
vn -0.4726260006427765 -0.8393930196762085 -0.26840901374816895
vn -0.3422349989414215 -0.6937509775161743 -0.6337080001831055
vn -0.5767350196838379 -0.18408499658107758 -0.7959200143814087
vn -0.37104400992393494 -0.19886499643325806 -0.9070720076560974
vn -0.2112320065498352 -0.8406720161437988 -0.4986500144004822
vn 0.019516000524163246 -0.6985309720039368 -0.7153139710426331
vn -0.00023499999952036887 -0.22936399281024933 -0.9733409881591797
vn 0.3688470125198364 -0.2145729959011078 -0.9043840169906616
vn 0.21995599567890167 -0.8428580164909363 -0.4911310076713562
vn 0.32754799723625183 -0.7148159742355347 -0.6178590059280396
vn 0.5698069930076599 -0.2103320062160492 -0.794405996799469
vn 0.8652690052986145 -0.16091300547122955 -0.47478199005126953
vn 0.4660399854183197 -0.849448025226593 -0.2474759966135025
vn 0.6976040005683899 -0.716405987739563 0.010503999888896942
vn 0.9944120049476624 -0.10275000333786011 0.02423200011253357
vn 0.8820250034332275 -0.018955999985337257 0.4708220064640045
vn 0.4889410138130188 -0.8214589953422546 0.29350098967552185
vn 0.4339889883995056 -0.6160020232200623 0.6574159860610962
vn 0.5354160070419312 0.06208600103855133 0.8423029780387878
vn -0.001184999942779541 0.07572100311517715 0.9971280097961426
vn 0.0021609999239444733 -0.7760199904441833 0.6307039856910706
vn -0.001184999942779541 0.07572100311517715 0.9971280097961426
vn 0.0021609999239444733 -0.7760199904441833 0.6307039856910706
vn -0.43468400835990906 -0.5996779799461365 0.6718909740447998
vn -0.5366250276565552 0.08445300161838531 0.8395839929580688
vn -0.8826299905776978 0.01809599995613098 0.4697200059890747
vn -0.4992240071296692 -0.8127490282058716 0.30035901069641113
vn -0.9963430166244507 -0.07528399676084518 0.040414001792669296
vn -0.8629599809646606 -0.04453599825501442 0.503305971622467
vn -0.5054749846458435 -0.06327500194311142 0.8605179786682129
vn -0.0026179999113082886 -0.06729999929666519 0.9977290034294128
vn 0.5009520053863525 -0.07861799746751785 0.8618969917297363
vn -0.0026179999113082886 -0.06729999929666519 0.9977290034294128
vn 0.860450029373169 -0.07103200256824493 0.5045599937438965
vn 0.9935789704322815 -0.1056469976902008 0.040488000959157944
vn 0.8710579872131348 -0.1641480028629303 -0.4629409909248352
vn 0.5770789980888367 -0.20010100305080414 -0.791795015335083
vn 0.37055501341819763 -0.21143299341201782 -0.9044250249862671
vn -0.00133500003721565 -0.22081799805164337 -0.9753140211105347
vn -0.37317800521850586 -0.20048099756240845 -0.9058399796485901
vn -0.58405601978302 -0.18238599598407745 -0.7909579873085022
vn -0.875823974609375 -0.13756899535655975 -0.4626089930534363
vn -0.5298449993133545 0.13426299393177032 0.8373990058898926
vn -0.8902570009231567 0.1247360035777092 0.438044011592865
vn -0.5848649740219116 0.762611985206604 0.2763260006904602
vn -0.32098299264907837 0.795894980430603 0.5133429765701294
vn -0.00459099980071187 0.7702429890632629 0.6377339959144592
vn -0.006016999948769808 0.11860299855470657 0.9929239749908447
vn 0.3373579978942871 0.8006190061569214 0.4951759874820709
vn 0.5638899803161621 0.0963049978017807 0.8202160000801086
vn 0.8830500245094299 0.21818700432777405 0.41547200083732605
vn 0.5042089819908142 0.8289629817008972 0.2420630007982254
vn 0.6763110160827637 0.7365689873695374 -0.008290000259876251
vn 0.9985920190811157 0.047508999705314636 0.023618999868631363
vn 0.9671000242233276 0.16817300021648407 -0.19088199734687805
vn 0.7779049873352051 0.6281999945640564 0.01511400006711483
vn 0.818120002746582 0.49687299132347107 -0.28947800397872925
vn 0.6016960144042969 0.7502909898757935 -0.27390798926353455
vn 0.2765060067176819 0.7901589870452881 -0.5469859838485718
vn 0.42364299297332764 0.6135249733924866 -0.6664180159568787
vn -0.19470000267028809 0.7304049730300903 -0.6546760201454163
vn -0.20154500007629395 0.7006170153617859 -0.6844819784164429
vn -0.6235870122909546 0.6104810237884521 -0.48831701278686523
vn -0.473827987909317 0.7299079895019531 -0.49266698956489563
vn -0.8120759725570679 0.49338099360466003 -0.31161999702453613
vn -0.5703759789466858 0.7725160121917725 -0.2790899872779846
vn -0.9437860250473022 0.2845189869403839 -0.16827499866485596
vn -0.6843299865722656 0.7291309833526611 0.007745000068098307
vn -0.6808030009269714 0.7310220003128052 0.045979999005794525
vn -0.9919829964637756 0.11316099762916565 0.05624900013208389
vn -0.39041900634765625 -0.6584069728851318 0.6434850096702576
vn -0.6730930209159851 -0.6631569862365723 0.32736799120903015
vn 0.0 -1.0 0.0
vn -0.0003640000068116933 -0.6855030059814453 0.7280700206756592
vn 0.38891899585723877 -0.659841001033783 0.6429240107536316
vn 0.6709570288658142 -0.6656240224838257 0.32674500346183777
vn 0.7494779825210571 -0.6618720293045044 -0.014434999786317348
vn 0.6304349899291992 -0.7761210203170776 0.01372699998319149
vn 0.0 -1.0 0.0
vn 0.0 -1.0 0.0
vn 0.0 -1.0 0.0
vn -0.703889012336731 -0.7103019952774048 0.0035119999665766954
vn -0.7246900200843811 -0.6846759915351868 0.07773900032043457
vn -0.012928999960422516 0.663919985294342 -0.7476909756660461
vn 0.44434401392936707 0.6809350252151489 -0.5821390151977539
vn 0.5853019952774048 0.49105599522590637 -0.6452019810676575
vn -0.07133500277996063 0.5469499826431274 -0.8341209888458252
vn 0.6927080154418945 0.6518909931182861 -0.30853500962257385
vn 0.9671000242233276 0.16817300021648407 -0.19088199734687805
vn 0.7656739950180054 0.6432129740715027 0.004523000214248896
vn 0.9985920190811157 0.047508999705314636 0.023618999868631363
vn 0.6753060221672058 0.6644489765167236 0.32010799646377563
vn 0.8830500245094299 0.21818700432777405 0.41547200083732605
vn 0.4334770143032074 0.6558700203895569 0.6180059909820557
vn 0.5638899803161621 0.0963049978017807 0.8202160000801086
vn -0.0027809999883174896 0.6624580025672913 0.7490940093994141
vn -0.006016999948769808 0.11860299855470657 0.9929239749908447
vn -0.4200409948825836 0.6620100140571594 0.6207320094108582
vn -0.5298449993133545 0.13426299393177032 0.8373990058898926
vn -0.6667519807815552 0.6767429709434509 0.3121890127658844
vn -0.8902570009231567 0.1247360035777092 0.438044011592865
vn -0.7565209865570068 0.653954029083252 0.004490999970585108
vn -0.9919829964637756 0.11316099762916565 0.05624900013208389
vn -0.6682819724082947 0.682017982006073 -0.2970699965953827
vn -0.9437860250473022 0.2845189869403839 -0.16827499866485596
vn -0.43167099356651306 0.6782580018043518 -0.594664990901947
vn -0.6146609783172607 0.5094770193099976 -0.602183997631073
vn 0.7478259801864624 -0.6618850231170654 0.05162600055336952
vn 0.0 -1.0 0.0
vn 0.8706200122833252 0.4896849989891052 -0.047217000275850296
vn 0.32267799973487854 0.9125589728355408 -0.25122499465942383
vn 0.5853019952774048 0.49105599522590637 -0.6452019810676575
vn 0.6796810030937195 0.7315170168876648 0.0540120005607605
vn 0.0 -1.0 0.0
vn -0.07133500277996063 0.5469499826431274 -0.8341209888458252
vn -0.08043599873781204 0.9700639843940735 -0.2291409969329834
vn 0.0 -1.0 0.0
vn -0.4893369972705841 0.8474900126457214 -0.20569199323654175
vn -0.6146609783172607 0.5094770193099976 -0.602183997631073
vn -0.7282189726829529 -0.6789460182189941 -0.0934320017695427
vn -0.8908680081367493 0.4259290099143982 -0.15792299807071686
vn -0.6774510145187378 0.7296119928359985 -0.09341000020503998
vn -0.658381998538971 -0.6783069968223572 -0.32624000310897827
vn -0.46891099214553833 -0.7004789710044861 -0.5380070209503174
vn -0.1944109946489334 -0.7031369805335999 -0.6839609742164612
vn 0.6780539751052856 -0.6693159937858582 -0.303741991519928
vn 0.31621599197387695 -0.6683149933815002 -0.6733220219612122
vn -0.7730460166931152 0.6342960000038147 -0.008310000412166119
vn -0.703889012336731 -0.7103019952774048 0.0035119999665766954
vn -0.7246900200843811 -0.6846759915351868 0.07773900032043457
vn -0.7854539752006531 0.6129519939422607 0.0857509970664978
vn -0.6730930209159851 -0.6631569862365723 0.32736799120903015
vn -0.7200779914855957 0.5920839905738831 0.3618350028991699
vn -0.39041900634765625 -0.6584069728851318 0.6434850096702576
vn -0.4182319939136505 0.5763069987297058 0.7021049857139587
vn -0.0003640000068116933 -0.6855030059814453 0.7280700206756592
vn 0.00028700000257231295 0.5890210270881653 0.8081179857254028
vn 0.41950899362564087 0.5744689702987671 0.7028499841690063
vn 0.38891899585723877 -0.659841001033783 0.6429240107536316
vn 0.7224559783935547 0.5885170102119446 0.36291301250457764
vn 0.6709570288658142 -0.6656240224838257 0.32674500346183777
vn 0.8116239905357361 0.5841569900512695 -0.005278000142425299
vn 0.7494779825210571 -0.6618720293045044 -0.014434999786317348
vn 0.7421050071716309 0.6702280044555664 0.008694999851286411
vn 0.6304349899291992 -0.7761210203170776 0.01372699998319149
vn 0.7478259801864624 -0.6618850231170654 0.05162600055336952
vn 0.8065009713172913 0.5900279879570007 0.03772199898958206
vn 0.6780539751052856 -0.6693159937858582 -0.303741991519928
vn 0.7383210062980652 0.5754010081291199 -0.35184499621391296
vn 0.31621599197387695 -0.6683149933815002 -0.6733220219612122
vn 0.3499999940395355 0.5281789898872375 -0.7736449837684631
vn -0.1944109946489334 -0.7031369805335999 -0.6839609742164612
vn -0.21698400378227234 0.5482980012893677 -0.8076429963111877
vn -0.5387719869613647 0.5691080093383789 -0.6211609840393066
vn -0.46891099214553833 -0.7004789710044861 -0.5380070209503174
vn -0.7233240008354187 0.5882250070571899 -0.36165300011634827
vn -0.658381998538971 -0.6783069968223572 -0.32624000310897827
vn -0.7282189726829529 -0.6789460182189941 -0.0934320017695427
vn -0.7791770100593567 0.6176440119743347 -0.10677099972963333
vn 0.44434401392936707 0.6809350252151489 -0.5821390151977539
vn -0.012928999960422516 0.663919985294342 -0.7476909756660461
vn -0.0 0.9999989867210388 0.0015610000118613243
vn 0.6927080154418945 0.6518909931182861 -0.30853500962257385
vn 0.7656739950180054 0.6432129740715027 0.004523000214248896
vn 0.6753060221672058 0.6644489765167236 0.32010799646377563
vn 0.4334770143032074 0.6558700203895569 0.6180059909820557
vn -0.0027809999883174896 0.6624580025672913 0.7490940093994141
vn -0.4200409948825836 0.6620100140571594 0.6207320094108582
vn -0.6667519807815552 0.6767429709434509 0.3121890127658844
vn -0.7565209865570068 0.653954029083252 0.004490999970585108
vn -0.6682819724082947 0.682017982006073 -0.2970699965953827
vn -0.43167099356651306 0.6782580018043518 -0.594664990901947

vt 0.4663339853286743 0.2516319751739502
vt 0.47398000955581665 0.22916001081466675
vt 0.5012969970703125 0.23438197374343872
vt 0.4942150115966797 0.2551950216293335
vt 0.5344489812850952 0.2402920126914978
vt 0.5239970088005066 0.25950300693511963
vt 0.20556999742984772 0.2564370036125183
vt 0.17594599723815918 0.25950300693511963
vt 0.1669819951057434 0.2371789813041687
vt 0.2003529965877533 0.235571026802063
vt 0.2349029928445816 0.2564849853515625
vt 0.23128299415111542 0.23508501052856445
vt 0.2636660039424896 0.2558240294456482
vt 0.2581619918346405 0.23377102613449097
vt 0.2871150076389313 0.23164600133895874
vt 0.2916710078716278 0.25276702642440796
vt 0.31721699237823486 0.22950899600982666
vt 0.32009801268577576 0.25013697147369385
vt 0.3516550064086914 0.24938499927520752
vt 0.3385219871997833 0.24853497743606567
vt 0.3368760049343109 0.22760701179504395
vt 0.3509550094604492 0.22578400373458862
vt 0.3657839894294739 0.24694299697875977
vt 0.3666450083255768 0.22585201263427734
vt 0.38587701320648193 0.22549402713775635
vt 0.3842720091342926 0.24672698974609375
vt 0.4128960072994232 0.24726200103759766
vt 0.41679200530052185 0.22545897960662842
vt 0.4392339885234833 0.2499079704284668
vt 0.4440859854221344 0.22738999128341675
vt 0.44831401109695435 0.08215498924255371
vt 0.4178459942340851 0.08560800552368164
vt 0.4174639880657196 0.06219297647476196
vt 0.44795799255371094 0.06259500980377197
vt 0.3837920129299164 0.08926701545715332
vt 0.3842569887638092 0.06386399269104004
vt 0.36515000462532043 0.09087198972702026
vt 0.3656179904937744 0.0644109845161438
vt 0.3365840017795563 0.0925300121307373
vt 0.3346099853515625 0.06607997417449951
vt 0.35002401471138 0.06578397750854492
vt 0.3513239920139313 0.0920100212097168
vt 0.28398600220680237 0.09170401096343994
vt 0.28306499123573303 0.06898897886276245
vt 0.3155730068683624 0.06766700744628906
vt 0.316974014043808 0.09300702810287476
vt 0.25224998593330383 0.08941900730133057
vt 0.2519020140171051 0.07048201560974121
vt 0.22227999567985535 0.08173197507858276
vt 0.22178299725055695 0.06796497106552124
vt 0.18979300558567047 0.07842999696731567
vt 0.1894170045852661 0.06656098365783691
vt 0.15984800457954407 0.07178401947021484
vt 0.15796400606632233 0.05924898386001587
vt 0.5135390162467957 0.07436299324035645
vt 0.5130000114440918 0.06136101484298706
vt 0.5459190011024475 0.060890018939971924
vt 0.5451149940490723 0.07319498062133789
vt 0.4821679890155792 0.07696801424026489
vt 0.4793030023574829 0.059315025806427
vt 0.3847320079803467 0.15515798330307007
vt 0.41707301139831543 0.1528400182723999
vt 0.36576101183891296 0.15586698055267334
vt 0.3358120024204254 0.15740197896957397
vt 0.35041800141334534 0.15673202276229858
vt 0.28487300872802734 0.15839499235153198
vt 0.31660500168800354 0.15835797786712646
vt 0.2530820071697235 0.15701699256896973
vt 0.22067700326442719 0.15490299463272095
vt 0.18969400227069855 0.15180200338363647
vt 0.1598300039768219 0.1498730182647705
vt 0.5142859816551208 0.14877700805664062
vt 0.546002984046936 0.15150701999664307
vt 0.48184698820114136 0.14893698692321777
vt 0.4492959976196289 0.15055698156356812
vt 0.3654170036315918 0.04408001899719238
vt 0.3832480013370514 0.043775975704193115
vt 0.3358429968357086 0.04676097631454468
vt 0.3498539924621582 0.046817004680633545
vt 0.2849479913711548 0.04990500211715698
vt 0.31755200028419495 0.04843801259994507
vt 0.2510780096054077 0.050707995891571045
vt 0.22275100648403168 0.04784798622131348
vt 0.19070899486541748 0.046182990074157715
vt 0.1609870046377182 0.03990602493286133
vt 0.5120279788970947 0.041857004165649414
vt 0.5423330068588257 0.04025399684906006
vt 0.47953900694847107 0.03910702466964722
vt 0.45009198784828186 0.04096198081970215
vt 0.41540101170539856 0.04126399755477905
vt 0.3674300014972687 0.12049901485443115
vt 0.38629499077796936 0.11830097436904907
vt 0.3369320034980774 0.12143301963806152
vt 0.35148298740386963 0.12166500091552734
vt 0.2857989966869354 0.11700499057769775
vt 0.3176819980144501 0.12086200714111328
vt 0.25212201476097107 0.11053997278213501
vt 0.21935799717903137 0.09898197650909424
vt 0.19010600447654724 0.0897979736328125
vt 0.16180799901485443 0.08247202634811401
vt 0.5147730112075806 0.08733397722244263
vt 0.5453349947929382 0.08409500122070312
vt 0.48399001359939575 0.09452301263809204
vt 0.4501419961452484 0.10454797744750977
vt 0.4172169864177704 0.11210000514984131
vt 0.9762840270996094 0.13560301065444946
vt 0.9389950037002563 0.15556800365447998
vt 0.9125769734382629 0.0818830132484436
vt 0.8946620225906372 0.15556800365447998
vt 0.8555920124053955 0.13513398170471191
vt 0.8316469788551331 0.10018599033355713
vt 0.8295559883117676 0.06081497669219971
vt 0.8499739766120911 0.02697199583053589
vt 0.8871690034866333 0.0074790120124816895
vt 0.9313009977340698 0.007559001445770264
vt 0.9132810235023499 0.0014989972114562988
vt 0.9703850150108337 0.027777016162872314
vt 0.9506530165672302 0.010613977909088135
vt 0.9943169951438904 0.062403976917266846
vt 0.9964789748191833 0.10158497095108032
vt 0.4188919961452484 0.02071702480316162
vt 0.4508630037307739 0.014407992362976074
vt 0.3874559998512268 0.01665198802947998
vt 0.3672820031642914 0.020235002040863037
vt 0.34963300824165344 0.019207000732421875
vt 0.33285099267959595 0.022978007793426514
vt 0.3126699924468994 0.021893024444580078
vt 0.28169798851013184 0.03048098087310791
vt 0.2523620128631592 0.023736000061035156
vt 0.22124700248241425 0.027321994304656982
vt 0.19265800714492798 0.019665002822875977
vt 0.16293799877166748 0.020223021507263184
vt 0.5111700296401978 0.01396399736404419
vt 0.5405219793319702 0.019156992435455322
vt 0.48162099719047546 0.0179479718208313
vt 0.4496670067310333 0.009598970413208008
vt 0.417944997549057 0.014998018741607666
vt 0.38789400458335876 0.012060999870300293
vt 0.3676550090312958 0.01425999402999878
vt 0.3494209945201874 0.013774991035461426
vt 0.3317730128765106 0.016454994678497314
vt 0.3118610084056854 0.016848981380462646
vt 0.2827639877796173 0.023473024368286133
vt 0.25411200523376465 0.01796901226043701
vt 0.2230670005083084 0.02079099416732788
vt 0.19536800682544708 0.013836979866027832
vt 0.16657200455665588 0.01371699571609497
vt 0.5374370217323303 0.012471020221710205
vt 0.5085650086402893 0.008549988269805908
vt 0.47878599166870117 0.012369990348815918
vt 0.6573690176010132 0.14362198114395142
vt 0.6490039825439453 0.11105602979660034
vt 0.6895580291748047 0.10570597648620605
vt 0.7108039855957031 0.13741999864578247
vt 0.7044129967689514 0.1749659776687622
vt 0.6631349921226501 0.1766679883003235
vt 0.6655150055885315 0.19522500038146973
vt 0.7197679877281189 0.19311398267745972
vt 0.708503007888794 0.210798978805542
vt 0.6670190095901489 0.21057802438735962
vt 0.6660770177841187 0.22533297538757324
vt 0.7203890085220337 0.22734898328781128
vt 0.7056670188903809 0.24670302867889404
vt 0.6642940044403076 0.2445330023765564
vt 0.6592739820480347 0.2774999737739563
vt 0.7130060195922852 0.28401702642440796
vt 0.6920580267906189 0.31585997343063354
vt 0.6512079834938049 0.31036102771759033
vt 0.642632007598877 0.33836597204208374
vt 0.6953480243682861 0.3494660258293152
vt 0.6724169850349426 0.3790090084075928
vt 0.6312670111656189 0.37432897090911865
vt 0.6222609877586365 0.40583300590515137
vt 0.6757910251617432 0.41551798582077026
vt 0.6226459741592407 0.014997005462646484
vt 0.6763160228729248 0.005478024482727051
vt 0.6713320016860962 0.04177802801132202
vt 0.6304060220718384 0.04637300968170166
vt 0.6408560276031494 0.08268100023269653
vt 0.693323016166687 0.07217800617218018
vt 0.5812129974365234 0.12024998664855957
vt 0.5739369988441467 0.09452897310256958
vt 0.5662779808044434 0.06533700227737427
vt 0.5580670237541199 0.03708302974700928
vt 0.5672399997711182 0.3552520275115967
vt 0.5580670237541199 0.38321197032928467
vt 0.5756679773330688 0.3265950083732605
vt 0.5832520127296448 0.3009229898452759
vt 0.5904009938240051 0.2711679935455322
vt 0.59477299451828 0.24136698246002197
vt 0.5963450074195862 0.22394198179244995
vt 0.5972020030021667 0.21056300401687622
vt 0.5958179831504822 0.19681501388549805
vt 0.5937219858169556 0.17996501922607422
vt 0.588608980178833 0.15003198385238647
vt 0.8365740180015564 0.390392005443573
vt 0.8197649717330933 0.37935900688171387
vt 0.8351010084152222 0.35902702808380127
vt 0.8560090065002441 0.38026899099349976
vt 0.8634750247001648 0.4066309928894043
vt 0.8403180241584778 0.4078630208969116
vt 0.8595550060272217 0.434781014919281
vt 0.8370519876480103 0.42543697357177734
vt 0.8224970102310181 0.4381530284881592
vt 0.8387510180473328 0.45834702253341675
vt 0.8089479804039001 0.46955597400665283
vt 0.8037009835243225 0.44433897733688354
vt 0.7848439812660217 0.4431449770927429
vt 0.7822340130805969 0.4690529704093933
vt 0.7321680188179016 0.4449080228805542
vt 0.7212740182876587 0.45399898290634155
vt 0.7005689740180969 0.4299420118331909
vt 0.7186130285263062 0.42394202947616577
vt 0.6988160014152527 0.4034069776535034
vt 0.7184020280838013 0.4061020016670227
vt 0.7253770232200623 0.3867400288581848
vt 0.711184024810791 0.3770179748535156
vt 0.7412639856338501 0.36762601137161255
vt 0.7328450083732605 0.36001497507095337
vt 0.7823479771614075 0.3704829812049866
vt 0.7798870205879211 0.3483179807662964
vt 0.8032490015029907 0.34888899326324463
vt 0.8011130094528198 0.37366199493408203
vt 0.9505559802055359 0.3449850082397461
vt 0.9648360013961792 0.3619040250778198
vt 0.9307519793510437 0.3885830044746399
vt 0.930965006351471 0.3407430052757263
vt 0.9113379716873169 0.34481000900268555
vt 0.8969089984893799 0.36159998178482056
vt 0.8915470242500305 0.38554298877716064
vt 0.8967099785804749 0.40590900182724
vt 0.9102020263671875 0.40931200981140137
vt 0.9306409955024719 0.4135590195655823
vt 0.9511160254478455 0.409496009349823
vt 0.9698460102081299 0.406233012676239
vt 0.9699839949607849 0.38589197397232056
vt 0.870166003704071 0.19975900650024414
vt 0.8566380143165588 0.22449499368667603
vt 0.8400790095329285 0.21485501527786255
vt 0.8648589849472046 0.18472397327423096
vt 0.8532530069351196 0.2522910237312317
vt 0.8328199982643127 0.26763397455215454
vt 0.8648650050163269 0.281777024269104
vt 0.8543469905853271 0.3042230010032654
vt 0.8867909908294678 0.29924899339675903
vt 0.8870350122451782 0.3270949721336365
vt 0.9166160225868225 0.306410014629364
vt 0.9270939826965332 0.3276140093803406
vt 0.9448660016059875 0.2938370108604431
vt 0.9625279903411865 0.3112720251083374
vt 0.9623799920082092 0.27048802375793457
vt 0.9851800203323364 0.2836800217628479
vt 0.9648759961128235 0.24080002307891846
vt 0.9932230114936829 0.24511998891830444
vt 0.9536470174789429 0.2135239839553833
vt 0.9792270064353943 0.20307797193527222
vt 0.9300079941749573 0.19319802522659302
vt 0.9533860087394714 0.17216098308563232
vt 0.8973609805107117 0.1886339783668518
vt 0.9022740125656128 0.16743499040603638
vt 0.8912069797515869 0.42349398136138916
vt 0.9068199992179871 0.43491697311401367
vt 0.7637209892272949 0.44886499643325806
vt 0.7492560148239136 0.42927998304367065
vt 0.7684999704360962 0.42492401599884033
vt 0.7580159902572632 0.46866798400878906
vt 0.9305329918861389 0.4376950263977051
vt 0.7640720009803772 0.40725499391555786
vt 0.745182991027832 0.40583300590515137
vt 0.9542670249938965 0.4351300001144409
vt 0.7447450160980225 0.3809790015220642
vt 0.7654060125350952 0.3895140290260315
vt 0.9699839949607849 0.4238470196723938
vt 0.7598299980163574 0.36236101388931274
vt 0.7578020095825195 0.35131001472473145
vt 0.9644740223884583 0.4433389902114868
vt 0.9500380158424377 0.46093398332595825
vt 0.9303799867630005 0.4719809889793396
vt 0.8964880108833313 0.45563799142837524
vt 0.9107699990272522 0.4722530245780945
vt 0.7798900008201599 0.3473830223083496
vt 0.7789620161056519 0.3369290232658386
vt 0.8039559721946716 0.3369290232658386
vt 0.8040450215339661 0.3479350209236145
vt 0.8385819792747498 0.3468419909477234
vt 0.8361639976501465 0.35878002643585205
vt 0.8655660152435303 0.3713970184326172
vt 0.8576380014419556 0.3800860047340393
vt 0.8790050148963928 0.4059010148048401
vt 0.8647750020027161 0.40667402744293213
vt 0.8608769774436951 0.43470001220703125
vt 0.8696609735488892 0.44240397214889526
vt 0.8399930000305176 0.4586259722709656
vt 0.8434270024299622 0.4700409770011902
vt 0.8099730014801025 0.47040098905563354
vt 0.8091130256652832 0.48319000005722046
vt 0.7822909951210022 0.469992995262146
vt 0.7819390296936035 0.48399001359939575
vt 0.7578279972076416 0.48261797428131104
vt 0.7571849822998047 0.46956098079681396
vt 0.7180669903755188 0.46569597721099854
vt 0.7200829982757568 0.4543449878692627
vt 0.6893669962882996 0.433817982673645
vt 0.6996359825134277 0.43012702465057373
vt 0.6864060163497925 0.4008970260620117
vt 0.6978480219841003 0.4037730097770691
vt 0.710116982460022 0.3768320083618164
vt 0.7054309844970703 0.3668699860572815
vt 0.7320240139961243 0.35941100120544434
vt 0.7307100296020508 0.34743398427963257
vt 0.7576659917831421 0.3388829827308655
vt 0.7571790218353271 0.3502020239830017
vt 0.8334320187568665 0.09902399778366089
vt 0.8291079998016357 0.061325013637542725
vt 0.9117599725723267 0.08022201061248779
vt 0.8611990213394165 0.1322469711303711
vt 0.8987540006637573 0.15066897869110107
vt 0.9370520114898682 0.14958900213241577
vt 0.9760739803314209 0.13163501024246216
vt 0.9943839907646179 0.09910500049591064
vt 0.9920240044593811 0.061855971813201904
vt 0.964680016040802 0.02873098850250244
vt 0.9306560158729553 0.011121988296508789
vt 0.8888270258903503 0.011394977569580078
vt 0.8493840098381042 0.02925199270248413

usemtl Material

f 1/1/1 2/2/2 3/3/3
f 3/3/3 4/4/4 1/1/1
f 4/4/4 3/3/3 5/5/5
f 5/5/5 6/6/6 4/4/4
f 7/7/7 8/8/8 9/9/9
f 9/9/9 10/10/10 7/7/7
f 11/11/11 7/7/7 10/10/10
f 10/10/10 12/12/12 11/11/11
f 13/13/13 11/11/11 12/12/12
f 12/12/12 14/14/14 13/13/13
f 13/13/13 14/14/14 15/15/15
f 15/15/15 16/16/16 13/13/13
f 16/16/16 15/15/15 17/17/17
f 17/17/17 18/18/18 16/16/16
f 19/19/19 20/20/20 21/21/21
f 21/21/21 22/22/22 19/19/19
f 23/23/23 24/24/24 25/25/25
f 25/25/25 26/26/26 23/23/23
f 27/27/27 26/26/26 25/25/25
f 25/25/25 28/28/28 27/27/27
f 29/29/29 27/27/27 28/28/28
f 28/28/28 30/30/30 29/29/29
f 29/29/29 30/30/30 2/2/2
f 2/2/2 1/1/1 29/29/29
f 31/31/31 32/32/32 33/33/33
f 33/33/33 34/34/34 31/31/31
f 32/32/32 35/35/35 36/36/36
f 36/36/36 33/33/33 32/32/32
f 35/35/35 37/37/37 38/38/38
f 38/38/38 36/36/36 35/35/35
f 39/39/39 40/40/40 41/41/41
f 41/41/41 42/42/42 39/39/39
f 43/43/43 44/44/44 45/45/45
f 45/45/45 46/46/46 43/43/43
f 47/47/47 48/48/48 44/44/44
f 44/44/44 43/43/43 47/47/47
f 49/49/49 50/50/50 48/48/48
f 48/48/48 47/47/47 49/49/49
f 51/51/51 52/52/52 50/50/50
f 50/50/50 49/49/49 51/51/51
f 53/53/53 54/54/54 52/52/52
f 52/52/52 51/51/51 53/53/53
f 55/55/55 56/56/56 57/57/57
f 57/57/57 58/58/58 55/55/55
f 59/59/59 60/60/60 56/56/56
f 56/56/56 55/55/55 59/59/59
f 59/59/59 31/31/31 34/34/34
f 34/34/34 60/60/60 59/59/59
f 25/25/25 61/61/61 62/62/62
f 62/62/62 28/28/28 25/25/25
f 24/24/24 63/63/63 61/61/61
f 61/61/61 25/25/25 24/24/24
f 22/22/22 21/21/21 64/64/64
f 64/64/64 65/65/65 22/22/22
f 17/17/17 15/15/15 66/66/66
f 66/66/66 67/67/67 17/17/17
f 15/15/15 14/14/14 68/68/68
f 68/68/68 66/66/66 15/15/15
f 14/14/14 12/12/12 69/69/69
f 69/69/69 68/68/68 14/14/14
f 10/10/10 70/70/70 69/69/69
f 69/69/69 12/12/12 10/10/10
f 9/9/9 71/71/71 70/70/70
f 70/70/70 10/10/10 9/9/9
f 3/3/3 72/72/72 73/73/73
f 73/73/73 5/5/5 3/3/3
f 2/2/2 74/74/74 72/72/72
f 72/72/72 3/3/3 2/2/2
f 30/30/30 75/75/75 74/74/74
f 74/74/74 2/2/2 30/30/30
f 28/28/28 62/62/62 75/75/75
f 75/75/75 30/30/30 28/28/28
f 36/36/36 38/38/38 76/76/76
f 76/76/76 77/77/77 36/36/36
f 40/40/40 78/78/78 79/79/79
f 79/79/79 41/41/41 40/40/40
f 45/45/45 44/44/44 80/80/80
f 80/80/80 81/81/81 45/45/45
f 48/48/48 82/82/82 80/80/80
f 80/80/80 44/44/44 48/48/48
f 50/50/50 83/83/83 82/82/82
f 82/82/82 48/48/48 50/50/50
f 52/52/52 84/84/84 83/83/83
f 83/83/83 50/50/50 52/52/52
f 54/54/54 85/85/85 84/84/84
f 84/84/84 52/52/52 54/54/54
f 56/56/56 86/86/86 87/87/87
f 87/87/87 57/57/57 56/56/56
f 56/56/56 60/60/60 88/88/88
f 88/88/88 86/86/86 56/56/56
f 60/60/60 34/34/34 89/89/89
f 89/89/89 88/88/88 60/60/60
f 34/34/34 33/33/33 90/90/90
f 90/90/90 89/89/89 34/34/34
f 33/33/33 36/36/36 77/77/77
f 77/77/77 90/90/90 33/33/33
f 61/61/61 63/63/63 91/91/91
f 91/91/91 92/92/92 61/61/61
f 65/65/65 64/64/64 93/93/93
f 93/93/93 94/94/94 65/65/65
f 67/67/67 66/66/66 95/95/95
f 95/95/95 96/96/96 67/67/67
f 68/68/68 97/97/97 95/95/95
f 95/95/95 66/66/66 68/68/68
f 69/69/69 98/98/98 97/97/97
f 97/97/97 68/68/68 69/69/69
f 70/70/70 99/99/99 98/98/98
f 98/98/98 69/69/69 70/70/70
f 71/71/71 100/100/100 99/99/99
f 99/99/99 70/70/70 71/71/71
f 72/72/72 101/101/101 102/102/102
f 102/102/102 73/73/73 72/72/72
f 72/72/72 74/74/74 103/103/103
f 103/103/103 101/101/101 72/72/72
f 74/74/74 75/75/75 104/104/104
f 104/104/104 103/103/103 74/74/74
f 75/75/75 62/62/62 105/105/105
f 105/105/105 104/104/104 75/75/75
f 62/62/62 61/61/61 92/92/92
f 92/92/92 105/105/105 62/62/62
f 106/106/106 107/107/107 108/108/108
f 107/107/107 109/109/109 108/108/108
f 109/109/109 110/110/110 108/108/108
f 110/110/110 111/111/111 108/108/108
f 111/111/111 112/112/112 108/108/108
f 112/112/112 113/113/113 108/108/108
f 113/113/113 114/114/114 108/108/108
f 115/115/115 108/108/108 114/114/114
f 114/114/114 116/116/116 115/115/115
f 117/117/117 108/108/108 115/115/115
f 115/115/115 118/118/118 117/117/117
f 117/117/117 119/119/119 108/108/108
f 119/119/119 120/120/120 108/108/108
f 120/120/120 106/106/106 108/108/108
f 19/19/19 22/22/22 24/24/24
f 24/24/24 23/23/23 19/19/19
f 22/22/22 65/65/65 63/63/63
f 63/63/63 24/24/24 22/22/22
f 63/63/63 65/65/65 94/94/94
f 94/94/94 91/91/91 63/63/63
f 37/37/37 42/42/42 41/41/41
f 41/41/41 38/38/38 37/37/37
f 38/38/38 41/41/41 79/79/79
f 79/79/79 76/76/76 38/38/38
f 20/20/20 18/18/18 17/17/17
f 17/17/17 21/21/21 20/20/20
f 21/21/21 17/17/17 67/67/67
f 67/67/67 64/64/64 21/21/21
f 64/64/64 67/67/67 96/96/96
f 96/96/96 93/93/93 64/64/64
f 46/46/46 45/45/45 40/40/40
f 40/40/40 39/39/39 46/46/46
f 40/40/40 45/45/45 81/81/81
f 81/81/81 78/78/78 40/40/40
f 89/89/89 90/90/90 121/121/121
f 121/121/121 122/122/122 89/89/89
f 90/90/90 77/77/77 123/123/123
f 123/123/123 121/121/121 90/90/90
f 77/77/77 76/76/76 124/124/124
f 124/124/124 123/123/123 77/77/77
f 79/79/79 125/125/125 124/124/124
f 124/124/124 76/76/76 79/79/79
f 79/79/79 78/78/78 126/126/126
f 126/126/126 125/125/125 79/79/79
f 81/81/81 127/127/127 126/126/126
f 126/126/126 78/78/78 81/81/81
f 81/81/81 80/80/80 128/128/128
f 128/128/128 127/127/127 81/81/81
f 82/82/82 129/129/129 128/128/128
f 128/128/128 80/80/80 82/82/82
f 83/83/83 130/130/130 129/129/129
f 129/129/129 82/82/82 83/83/83
f 84/84/84 131/131/131 130/130/130
f 130/130/130 83/83/83 84/84/84
f 84/84/84 85/85/85 132/132/132
f 132/132/132 131/131/131 84/84/84
f 86/86/86 133/133/133 134/134/134
f 134/134/134 87/87/87 86/86/86
f 86/86/86 88/88/88 135/135/135
f 135/135/135 133/133/133 86/86/86
f 88/88/88 89/89/89 122/122/122
f 122/122/122 135/135/135 88/88/88
f 94/94/94 93/93/93 39/39/39
f 39/39/39 42/42/42 94/94/94
f 93/93/93 96/96/96 46/46/46
f 46/46/46 39/39/39 93/93/93
f 95/95/95 43/43/43 46/46/46
f 46/46/46 96/96/96 95/95/95
f 97/97/97 47/47/47 43/43/43
f 43/43/43 95/95/95 97/97/97
f 98/98/98 49/49/49 47/47/47
f 47/47/47 97/97/97 98/98/98
f 99/99/99 51/51/51 49/49/49
f 49/49/49 98/98/98 99/99/99
f 100/100/100 53/53/53 51/51/51
f 51/51/51 99/99/99 100/100/100
f 101/101/101 55/55/55 58/58/58
f 58/58/58 102/102/102 101/101/101
f 103/103/103 59/59/59 55/55/55
f 55/55/55 101/101/101 103/103/103
f 103/103/103 104/104/104 31/31/31
f 31/31/31 59/59/59 103/103/103
f 104/104/104 105/105/105 32/32/32
f 32/32/32 31/31/31 104/104/104
f 105/105/105 92/92/92 35/35/35
f 35/35/35 32/32/32 105/105/105
f 92/92/92 91/91/91 37/37/37
f 37/37/37 35/35/35 92/92/92
f 91/91/91 94/94/94 42/42/42
f 42/42/42 37/37/37 91/91/91
f 136/136/136 122/122/122 121/121/121
f 121/121/121 137/137/137 136/136/136
f 137/137/137 121/121/121 123/123/123
f 123/123/123 138/138/138 137/137/137
f 139/139/139 138/138/138 123/123/123
f 123/123/123 124/124/124 139/139/139
f 140/140/140 139/139/139 124/124/124
f 124/124/124 125/125/125 140/140/140
f 140/140/140 125/125/125 126/126/126
f 126/126/126 141/141/141 140/140/140
f 141/141/141 126/126/126 127/127/127
f 127/127/127 142/142/142 141/141/141
f 142/142/142 127/127/127 128/128/128
f 128/128/128 143/143/143 142/142/142
f 144/144/144 143/143/143 128/128/128
f 128/128/128 129/129/129 144/144/144
f 145/145/145 144/144/144 129/129/129
f 129/129/129 130/130/130 145/145/145
f 146/146/146 145/145/145 130/130/130
f 130/130/130 131/131/131 146/146/146
f 147/147/147 146/146/146 131/131/131
f 131/131/131 132/132/132 147/147/147
f 148/148/148 134/134/134 133/133/133
f 133/133/133 149/149/149 148/148/148
f 149/149/149 133/133/133 135/135/135
f 135/135/135 150/150/150 149/149/149
f 150/150/150 135/135/135 122/122/122
f 122/122/122 136/136/136 150/150/150
f 151/151/151 152/152/152 153/153/153
f 153/153/153 154/154/154 151/151/151
f 151/151/151 154/154/154 155/155/155
f 155/155/155 156/156/156 151/151/151
f 157/157/157 156/156/156 155/155/155
f 155/155/155 158/158/158 157/157/157
f 157/157/157 158/158/158 159/159/159
f 159/159/159 160/160/160 157/157/157
f 161/161/161 160/160/160 159/159/159
f 159/159/159 162/162/162 161/161/161
f 161/161/161 162/162/162 163/163/163
f 163/163/163 164/164/164 161/161/161
f 165/165/165 164/164/164 163/163/163
f 163/163/163 166/166/166 165/165/165
f 165/165/165 166/166/166 167/167/167
f 167/167/167 168/168/168 165/165/165
f 169/169/169 168/168/168 167/167/167
f 167/167/167 170/170/170 169/169/169
f 169/169/169 170/170/170 171/171/171
f 171/171/171 172/172/172 169/169/169
f 173/173/173 172/172/172 171/171/171
f 171/171/171 174/174/174 173/173/173
f 175/175/175 176/176/176 177/177/177
f 177/177/177 178/178/178 175/175/175
f 179/179/179 178/178/178 177/177/177
f 177/177/177 180/180/180 179/179/179
f 179/179/179 180/180/180 153/153/153
f 153/153/153 152/152/152 179/179/179
f 181/181/181 182/182/182 179/179/179
f 179/179/179 152/152/152 181/181/181
f 182/182/182 183/183/183 178/178/178
f 178/178/178 179/179/179 182/182/182
f 184/184/184 175/175/175 178/178/178
f 178/178/178 183/183/183 184/184/184
f 185/185/185 172/172/172 173/173/173
f 173/173/173 186/186/186 185/185/185
f 187/187/187 169/169/169 172/172/172
f 172/172/172 185/185/185 187/187/187
f 188/188/188 168/168/168 169/169/169
f 169/169/169 187/187/187 188/188/188
f 189/189/189 165/165/165 168/168/168
f 168/168/168 188/188/188 189/189/189
f 190/190/190 164/164/164 165/165/165
f 165/165/165 189/189/189 190/190/190
f 191/191/191 161/161/161 164/164/164
f 164/164/164 190/190/190 191/191/191
f 192/192/192 160/160/160 161/161/161
f 161/161/161 191/191/191 192/192/192
f 192/192/192 193/193/193 157/157/157
f 157/157/157 160/160/160 192/192/192
f 193/193/193 194/194/194 156/156/156
f 156/156/156 157/157/157 193/193/193
f 194/194/194 195/195/195 151/151/151
f 151/151/151 156/156/156 194/194/194
f 195/195/195 181/181/181 152/152/152
f 152/152/152 151/151/151 195/195/195
f 196/196/196 197/197/197 198/198/198
f 198/198/198 199/199/199 196/196/196
f 196/196/196 199/199/199 200/200/200
f 200/200/200 201/201/201 196/196/196
f 201/201/201 200/200/200 202/202/202
f 202/202/202 203/203/203 201/201/201
f 204/204/204 203/203/203 202/202/202
f 202/202/202 205/205/205 204/204/204
f 204/204/204 205/205/205 206/206/206
f 206/206/206 207/207/207 204/204/204
f 208/208/208 207/207/207 206/206/206
f 206/206/206 209/209/209 208/208/208
f 210/210/210 211/211/211 212/212/212
f 212/212/212 213/213/213 210/210/210
f 213/213/213 212/212/212 214/214/214
f 214/214/214 215/215/215 213/213/213
f 216/216/216 215/215/215 214/214/214
f 214/214/214 217/217/217 216/216/216
f 218/218/218 216/216/216 217/217/217
f 217/217/217 219/219/219 218/218/218
f 220/220/220 221/221/221 222/222/222
f 222/222/222 223/223/223 220/220/220
f 223/223/223 222/222/222 198/198/198
f 198/198/198 197/197/197 223/223/223
f 224/224/224 225/225/225 226/226/226
f 227/227/227 224/224/224 226/226/226
f 228/228/228 227/227/227 226/226/226
f 229/229/229 228/228/228 226/226/226
f 230/230/230 229/229/229 226/226/226
f 231/231/231 230/230/230 226/226/226
f 232/232/232 231/231/231 226/226/226
f 233/233/233 232/232/232 226/226/226
f 234/234/234 233/233/233 226/226/226
f 235/235/235 234/234/234 226/226/226
f 236/236/236 235/235/235 226/226/226
f 225/225/225 236/236/236 226/226/226
f 237/237/237 238/238/238 239/239/239
f 239/239/239 240/240/240 237/237/237
f 241/241/241 242/242/242 239/239/239
f 239/239/239 238/238/238 241/241/241
f 243/243/243 244/244/244 242/242/242
f 242/242/242 241/241/241 243/243/243
f 245/245/245 246/246/246 244/244/244
f 244/244/244 243/243/243 245/245/245
f 245/245/245 247/247/247 248/248/248
f 248/248/248 246/246/246 245/245/245
f 249/249/249 250/250/250 248/248/248
f 248/248/248 247/247/247 249/249/249
f 251/251/251 252/252/252 250/250/250
f 250/250/250 249/249/249 251/251/251
f 251/251/251 253/253/253 254/254/254
f 254/254/254 252/252/252 251/251/251
f 253/253/253 255/255/255 256/256/256
f 256/256/256 254/254/254 253/253/253
f 257/257/257 258/258/258 256/256/256
f 256/256/256 255/255/255 257/257/257
f 257/257/257 259/259/259 260/260/260
f 260/260/260 258/258/258 257/257/257
f 259/259/259 237/237/237 240/240/240
f 240/240/240 260/260/260 259/259/259
f 261/261/261 231/231/231 232/232/232
f 232/232/232 262/262/262 261/261/261
f 263/263/263 264/264/264 265/265/265
f 265/265/265 208/208/208 263/263/263
f 263/263/263 208/208/208 209/209/209
f 209/209/209 266/266/266 263/263/263
f 262/262/262 232/232/232 233/233/233
f 233/233/233 267/267/267 262/262/262
f 268/268/268 265/265/265 264/264/264
f 264/264/264 269/269/269 268/268/268
f 270/270/270 267/267/267 233/233/233
f 233/233/233 234/234/234 270/270/270
f 269/269/269 271/271/271 272/272/272
f 272/272/272 268/268/268 269/269/269
f 273/273/273 270/270/270 234/234/234
f 234/234/234 235/235/235 273/273/273
f 274/274/274 275/275/275 221/221/221
f 221/221/221 220/220/220 274/274/274
f 274/274/274 220/220/220 272/272/272
f 272/272/272 271/271/271 274/274/274
f 218/218/218 274/274/274 271/271/271
f 271/271/271 216/216/216 218/218/218
f 218/218/218 219/219/219 275/275/275
f 275/275/275 274/274/274 218/218/218
f 276/276/276 277/277/277 270/270/270
f 270/270/270 273/273/273 276/276/276
f 277/277/277 278/278/278 267/267/267
f 267/267/267 270/270/270 277/277/277
f 279/279/279 261/261/261 262/262/262
f 262/262/262 280/280/280 279/279/279
f 210/210/210 263/263/263 266/266/266
f 266/266/266 211/211/211 210/210/210
f 210/210/210 213/213/213 264/264/264
f 264/264/264 263/263/263 210/210/210
f 216/216/216 271/271/271 269/269/269
f 269/269/269 215/215/215 216/216/216
f 213/213/213 215/215/215 269/269/269
f 269/269/269 264/264/264 213/213/213
f 267/267/267 278/278/278 280/280/280
f 280/280/280 262/262/262 267/267/267
f 281/281/281 282/282/282 283/283/283
f 283/283/283 284/284/284 281/281/281
f 284/284/284 283/283/283 285/285/285
f 285/285/285 286/286/286 284/284/284
f 286/286/286 285/285/285 287/287/287
f 287/287/287 288/288/288 286/286/286
f 288/288/288 287/287/287 289/289/289
f 289/289/289 290/290/290 288/288/288
f 291/291/291 290/290/290 289/289/289
f 289/289/289 292/292/292 291/291/291
f 293/293/293 291/291/291 292/292/292
f 292/292/292 294/294/294 293/293/293
f 295/295/295 293/293/293 294/294/294
f 294/294/294 296/296/296 295/295/295
f 297/297/297 295/295/295 296/296/296
f 296/296/296 298/298/298 297/297/297
f 299/299/299 300/300/300 297/297/297
f 297/297/297 298/298/298 299/299/299
f 301/301/301 302/302/302 300/300/300
f 300/300/300 299/299/299 301/301/301
f 302/302/302 301/301/301 303/303/303
f 303/303/303 304/304/304 302/302/302
f 303/303/303 305/305/305 306/306/306
f 306/306/306 304/304/304 303/303/303
f 307/307/307 306/306/306 305/305/305
f 305/305/305 308/308/308 307/307/307
f 309/309/309 307/307/307 308/308/308
f 308/308/308 310/310/310 309/309/309
f 310/310/310 311/311/311 312/312/312
f 312/312/312 309/309/309 310/310/310
f 311/311/311 282/282/282 281/281/281
f 281/281/281 312/312/312 311/311/311
f 313/313/313 314/314/314 315/315/315
f 316/316/316 313/313/313 315/315/315
f 317/317/317 316/316/316 315/315/315
f 318/318/318 317/317/317 315/315/315
f 319/319/319 318/318/318 315/315/315
f 320/320/320 319/319/319 315/315/315
f 321/321/321 320/320/320 315/315/315
f 322/322/322 321/321/321 315/315/315
f 323/323/323 322/322/322 315/315/315
f 324/324/324 323/323/323 315/315/315
f 325/325/325 324/324/324 315/315/315
f 314/314/314 325/325/325 315/315/315
f 217/217/217 307/307/307 309/309/309
f 309/309/309 219/219/219 217/217/217
f 214/214/214 306/306/306 307/307/307
f 307/307/307 217/217/217 214/214/214
f 212/212/212 304/304/304 306/306/306
f 306/306/306 214/214/214 212/212/212
f 212/212/212 211/211/211 302/302/302
f 302/302/302 304/304/304 212/212/212
f 300/300/300 302/302/302 211/211/211
f 211/211/211 266/266/266 300/300/300
f 297/297/297 300/300/300 266/266/266
f 266/266/266 209/209/209 297/297/297
f 206/206/206 295/295/295 297/297/297
f 297/297/297 209/209/209 206/206/206
f 205/205/205 293/293/293 295/295/295
f 295/295/295 206/206/206 205/205/205
f 202/202/202 291/291/291 293/293/293
f 293/293/293 205/205/205 202/202/202
f 200/200/200 290/290/290 291/291/291
f 291/291/291 202/202/202 200/200/200
f 200/200/200 199/199/199 288/288/288
f 288/288/288 290/290/290 200/200/200
f 199/199/199 198/198/198 286/286/286
f 286/286/286 288/288/288 199/199/199
f 198/198/198 222/222/222 284/284/284
f 284/284/284 286/286/286 198/198/198
f 222/222/222 221/221/221 281/281/281
f 281/281/281 284/284/284 222/222/222
f 275/275/275 312/312/312 281/281/281
f 281/281/281 221/221/221 275/275/275
f 219/219/219 309/309/309 312/312/312
f 312/312/312 275/275/275 219/219/219