version 1.00
412
[0,0.535723,0.378576][-0.0319132,0.999485,0.00332589][0.522416,0.358407,0][-0.393363,0.523163,0.378597][-0.0319132,0.999485,0.00332589][0.436823,0.350063,0][-0.374047,0.523375,0.500174][-0.0319132,0.999485,0.00332589][0.445275,0.326938,0][0,0.535723,0.378576][-0.0319132,0.999485,0.00332589][0.522416,0.358407,0][-0.374047,0.523375,0.500174][-0.0319132,0.999485,0.00332589][0.445275,0.326938,0][-0.318224,0.523566,0.609765][-0.028794,0.999502,0.0129225][0.459486,0.307282,0][0,0.535723,0.378576][-0.0319132,0.999485,0.00332589][0.522416,0.358407,0][-0.318224,0.523566,0.609765][-0.028794,0.999502,0.0129225][0.459486,0.307282,0][-0.231168,0.523718,0.696821][-0.02285,0.999516,0.021105][0.477815,0.292333,0][0,0.535723,0.378576][-0.0319132,0.999485,0.00332589][0.522416,0.358407,0][-0.231168,0.523718,0.696821][-0.02285,0.999516,0.021105][0.477815,0.292333,0][-0.121577,0.523815,0.752644][-0.0146667,0.999527,0.0270496][0.499042,0.282768,0][0,0.535723,0.378576][-0.0319132,0.999485,0.00332589][0.522416,0.358407,0][-0.121577,0.523815,0.752644][-0.0146667,0.999527,0.0270496][0.499042,0.282768,0][0,0.523849,0.77196][-0.0050705,0.999532,0.0301686][0.521798,0.27965,0][0,0.535723,0.378576][-0.0319132,0.999485,0.00332589][0.522416,0.358407,0][0,0.523849,0.77196][-0.0050705,0.999532,0.0301686][0.521798,0.27965,0][0.121577,0.523815,0.752644][0.0050705,0.999532,0.0301686][0.544932,0.28264,0][0,0.535723,0.378576][-0.0319132,0.999485,0.00332589][0.522416,0.358407,0][0.121577,0.523815,0.752644][0.0050705,0.999532,0.0301686][0.544932,0.28264,0][0.231168,0.523718,0.696821][0.0146667,0.999527,0.0270496][0.566117,0.292388,0][0,0.535723,0.378576][-0.0319132,0.999485,0.00332589][0.522416,0.358407,0][0.231168,0.523718,0.696821][0.0146667,0.999527,0.0270496][0.566117,0.292388,0][0.318224,0.523566,0.609765][0.02285,0.999516,0.021105][0.584959,0.307011,0][0,0.535723,0.378576][-0.0319132,0.999485,0.00332589][0.522416,0.358407,0][0.318224,0.523566,0.609765][0.02285,0.999516,0.021105][0.584959,0.307011,0][0.374047,0.523375,0.500174][0.028794,0.999502,0.0129225][0.599203,0.326852,0][0,0.535723,0.378576][-0.0319132,0.999485,0.00332589][0.522416,0.358407,0][0.374047,0.523375,0.500174][0.028794,0.999502,0.0129225][0.599203,0.326852,0][0.393363,0.523163,0.378597][0.0319132,0.999485,0.00332589][0.607987,0.350077,0][0,0.535723,0.378576][-0.0319132,0.999485,0.00332589][0.522416,0.358407,0][0.393363,0.523163,0.378597][0.0319132,0.999485,0.00332589][0.607987,0.350077,0][0.374047,0.52295,0.257021][0.0319132,0.999467,-0.00681474][0.607862,0.37406,0][0,0.535723,0.378576][-0.0319132,0.999485,0.00332589][0.524223,0.36796,0][0.374047,0.52295,0.257021][0.0319132,0.999467,-0.00681474][0.626465,0.401858,0][0.318224,0.522759,0.14743][0.028794,0.999451,-0.0164113][0.610548,0.43135,0][0,0.535723,0.378576][-0.0319132,0.999485,0.00332589][0.524223,0.36796,0][0.318224,0.522759,0.14743][0.028794,0.999451,-0.0164113][0.610548,0.43135,0][0.231168,0.522607,0.0603739][0.0228498,0.999436,-0.0245941][0.586396,0.454768,0][0,0.535723,0.378576][-0.0319132,0.999485,0.00332589][0.524223,0.36796,0][0.231168,0.522607,0.0603739][0.0228498,0.999436,-0.0245941][0.586396,0.454768,0][0.121577,0.52251,0.00455103][0.0146668,0.999426,-0.0305385][0.556628,0.469789,0][0,0.535723,0.378576][-0.0319132,0.999485,0.00332589][0.524223,0.36796,0][0.121577,0.52251,0.00455103][0.0146668,0.999426,-0.0305385][0.556628,0.469789,0][0,0.522476,-0.0147649][0.00507015,0.999421,-0.0336577][0.523714,0.47493,0][0,0.535723,0.378576][-0.0319132,0.999485,0.00332589][0.524223,0.36796,0][0,0.522476,-0.0147649][0.00507015,0.999421,-0.0336577][0.523714,0.47493,0][-0.121577,0.52251,0.00455103][-0.00507015,0.999421,-0.0336577][0.490994,0.469592,0][0,0.535723,0.378576][-0.0319132,0.999485,0.00332589][0.524223,0.36796,0][-0.121577,0.52251,0.00455103][-0.00507015,0.999421,-0.0336577][0.490994,0.469592,0][-0.231168,0.522607,0.0603739][-0.0146668,0.999426,-0.0305385][0.461089,0.454309,0][0,0.535723,0.378576][-0.0319132,0.999485,0.00332589][0.524223,0.36796,0][-0.231168,0.522607,0.0603739][-0.0146668,0.999426,-0.0305385][0.461089,0.454309,0][-0.318224,0.522759,0.14743][-0.0228498,0.999436,-0.0245941][0.437103,0.430721,0][0,0.535723,0.378576][-0.0319132,0.999485,0.00332589][0.524223,0.36796,0][-0.318224,0.522759,0.14743][-0.0228498,0.999436,-0.0245941][0.437103,0.430721,0][-0.374047,0.52295,0.257021][-0.028794,0.999451,-0.0164113][0.421747,0.401266,0][0,0.535723,0.378576][-0.0319132,0.999485,0.00332589][0.522416,0.358407,0][-0.374047,0.52295,0.257021][-0.028794,0.999451,-0.0164113][0.437889,0.374031,0][-0.393363,0.523163,0.378597][-0.0319132,0.999485,0.00332589][0.436823,0.350063,0][-0.5461,0.493012,0.55615][-0.349739,0.935294,0.0539316][0.412445,0.309015,0][-0.5743,0.492703,0.378651][-0.349739,0.935294,0.0539316][0.398649,0.341629,0][-0.7618,0.422583,0.378773][-0.349739,0.935294,0.0539316][0.357723,0.328986,0][-0.7618,0.422583,0.378773][-0.349739,0.935294,0.0539316][0.357723,0.328986,0][-0.7245,0.422994,0.614173][-0.34962,0.935347,0.0537662][0.377638,0.28704,0][-0.5461,0.493012,0.55615][-0.349739,0.935294,0.0539316][0.412445,0.309015,0][-0.4646,0.493292,0.71615][-0.315447,0.93552,0.159048][0.433206,0.281465,0][-0.5461,0.493012,0.55615][-0.349739,0.935294,0.0539316][0.412445,0.309015,0][-0.7245,0.422994,0.614173][-0.34962,0.935347,0.0537662][0.377638,0.28704,0][-0.7245,0.422994,0.614173][-0.34962,0.935347,0.0537662][0.377638,0.28704,0][-0.6163,0.423364,0.826572][-0.315451,0.935516,0.159063][0.405812,0.252725,0][-0.4646,0.493292,0.71615][-0.315447,0.93552,0.159048][0.433206,0.281465,0][-0.3375,0.493514,0.84325][-0.250305,0.935687,0.248672][0.45922,0.261585,0][-0.4646,0.493292,0.71615][-0.315447,0.93552,0.159048][0.433206,0.281465,0][-0.6163,0.423364,0.826572][-0.315451,0.935516,0.159063][0.405812,0.252725,0][-0.6163,0.423364,0.826572][-0.315451,0.935516,0.159063][0.405812,0.252725,0][-0.4478,0.423658,0.995072][-0.250305,0.935687,0.248672][0.440476,0.227573,0][-0.3375,0.493514,0.84325][-0.250305,0.935687,0.248672][0.45922,0.261585,0][-0.1775,0.493656,0.92475][-0.160686,0.935785,0.313825][0.489493,0.248964,0][-0.3375,0.493514,0.84325][-0.250305,0.935687,0.248672][0.45922,0.261585,0][-0.4478,0.423658,0.995072][-0.250305,0.935687,0.248672][0.440476,0.227573,0][-0.4478,0.423658,0.995072][-0.250305,0.935687,0.248672][0.440476,0.227573,0][-0.2354,0.423847,1.10327][-0.160692,0.935789,0.31381][0.479646,0.212373,0][-0.1775,0.493656,0.92475][-0.160686,0.935785,0.313825][0.489493,0.248964,0][0,0.493705,0.95295][-0.0555384,0.935869,0.347945][0.521515,0.244897,0][-0.1775,0.493656,0.92475][-0.160686,0.935785,0.313825][0.489493,0.248964,0][-0.2354,0.423847,1.10327][-0.160692,0.935789,0.31381][0.479646,0.212373,0][-0.2354,0.423847,1.10327][-0.160692,0.935789,0.31381][0.479646,0.212373,0][0,0.423912,1.14057][-0.0554177,0.935815,0.348109][0.52137,0.207281,0][0,0.493705,0.95295][-0.0555384,0.935869,0.347945][0.521515,0.244897,0][0.1775,0.493656,0.92475][0.055564,0.935807,0.348106][0.554027,0.248945,0][0,0.493705,0.95295][-0.0555384,0.935869,0.347945][0.521515,0.244897,0][0,0.423912,1.14057][-0.0554177,0.935815,0.348109][0.52137,0.207281,0][0,0.423912,1.14057][-0.0554177,0.935815,0.348109][0.52137,0.207281,0][0.2354,0.423847,1.10327][0.0553985,0.935861,0.347987][0.563239,0.212473,0][0.1775,0.493656,0.92475][0.055564,0.935807,0.348106][0.554027,0.248945,0][0.3375,0.493514,0.84325][0.16068,0.93579,0.313814][0.584147,0.261729,0][0.1775,0.493656,0.92475][0.055564,0.935807,0.348106][0.554027,0.248945,0][0.2354,0.423847,1.10327][0.0553985,0.935861,0.347987][0.563239,0.212473,0][0.2354,0.423847,1.10327][0.0553985,0.935861,0.347987][0.563239,0.212473,0][0.4478,0.423658,0.995072][0.160696,0.935786,0.313819][0.602693,0.22775,0][0.3375,0.493514,0.84325][0.16068,0.93579,0.313814][0.584147,0.261729,0][0.4646,0.493292,0.71615][0.250305,0.935687,0.248672][0.610647,0.281601,0][0.3375,0.493514,0.84325][0.16068,0.93579,0.313814][0.584147,0.261729,0][0.4478,0.423658,0.995072][0.160696,0.935786,0.313819][0.602693,0.22775,0][0.4478,0.423658,0.995072][0.160696,0.935786,0.313819][0.602693,0.22775,0][0.6163,0.423364,0.826572][0.250305,0.935687,0.248672][0.637907,0.252793,0][0.4646,0.493292,0.71615][0.250305,0.935687,0.248672][0.610647,0.281601,0][0.5461,0.493012,0.55615][0.315458,0.935515,0.159054][0.63174,0.30893,0][0.4646,0.493292,0.71615][0.250305,0.935687,0.248672][0.610647,0.281601,0][0.6163,0.423364,0.826572][0.250305,0.935687,0.248672][0.637907,0.252793,0][0.6163,0.423364,0.826572][0.250305,0.935687,0.248672][0.637907,0.252793,0][0.7245,0.422994,0.614173][0.315443,0.935519,0.159059][0.666108,0.287037,0][0.5461,0.493012,0.55615][0.315458,0.935515,0.159054][0.63174,0.30893,0][0.5743,0.492703,0.378651][0.349578,0.935355,0.053906][0.64633,0.341655,0][0.5461,0.493012,0.55615][0.315458,0.935515,0.159054][0.63174,0.30893,0][0.7245,0.422994,0.614173][0.315443,0.935519,0.159059][0.666108,0.287037,0][0.7245,0.422994,0.614173][0.315443,0.935519,0.159059][0.666108,0.287037,0][0.7618,0.422583,0.378773][0.349742,0.935301,0.0537855][0.686746,0.328914,0][0.5743,0.492703,0.378651][0.349578,0.935355,0.053906][0.64633,0.341655,0][0.5461,0.492393,0.201151][0.349739,0.9351,-0.0571963][0.649504,0.376928,0][0.5743,0.492703,0.378651][0.349578,0.935355,0.053906][0.64633,0.341655,0][0.7618,0.422583,0.378773][0.349742,0.935301,0.0537855][0.686746,0.328914,0][0.7618,0.422583,0.378773][0.349742,0.935301,0.0537855][0.686746,0.328914,0][0.7245,0.422172,0.143373][0.34962,0.935154,-0.0570309][0.696311,0.375139,0][0.5461,0.492393,0.201151][0.349739,0.9351,-0.0571963][0.649504,0.376928,0][0.4646,0.492114,0.0411511][0.315446,0.934959,-0.162313][0.650165,0.460973,0][0.5461,0.492393,0.201151][0.349739,0.9351,-0.0571963][0.673835,0.418458,0][0.7245,0.422172,0.143373][0.34962,0.935154,-0.0570309][0.725256,0.43783,0][0.7245,0.422172,0.143373][0.34962,0.935154,-0.0570309][0.725256,0.43783,0][0.6163,0.421801,-0.0690263][0.315451,0.934955,-0.162328][0.691797,0.493765,0][0.4646,0.492114,0.0411511][0.315446,0.934959,-0.162313][0.650165,0.460973,0][0.3375,0.491892,-0.0859487][0.250305,0.934813,-0.251936][0.614339,0.49572,0][0.4646,0.492114,0.0411511][0.315446,0.934959,-0.162313][0.650165,0.460973,0][0.6163,0.421801,-0.0690263][0.315451,0.934955,-0.162328][0.691797,0.493765,0][0.6163,0.421801,-0.0690263][0.315451,0.934955,-0.162328][0.691797,0.493765,0][0.4478,0.421507,-0.237526][0.250305,0.934813,-0.251937][0.644687,0.541006,0][0.3375,0.491892,-0.0859487][0.250305,0.934813,-0.251936][0.614339,0.49572,0][0.1775,0.491749,-0.167449][0.160687,0.934684,-0.31709][0.571221,0.517674,0][0.3375,0.491892,-0.0859487][0.250305,0.934813,-0.251936][0.614339,0.49572,0][0.4478,0.421507,-0.237526][0.250305,0.934813,-0.251937][0.644687,0.541006,0][0.4478,0.421507,-0.237526][0.250305,0.934813,-0.251937][0.644687,0.541006,0][0.2354,0.421318,-0.345726][0.160692,0.934688,-0.317075][0.587966,0.569949,0][0.1775,0.491749,-0.167449][0.160687,0.934684,-0.31709][0.571221,0.517674,0][0,0.4917,-0.195649][0.0555385,0.934648,-0.35121][0.523517,0.525236,0][0.1775,0.491749,-0.167449][0.160687,0.934684,-0.31709][0.571221,0.517674,0][0.2354,0.421318,-0.345726][0.160692,0.934688,-0.317075][0.587966,0.569949,0][0.2354,0.421318,-0.345726][0.160692,0.934688,-0.317075][0.587966,0.569949,0][0,0.421253,-0.383026][0.0554178,0.934594,-0.351374][0.52347,0.579854,0][0,0.4917,-0.195649][0.0555385,0.934648,-0.35121][0.523517,0.525236,0][-0.1775,0.491749,-0.167449][-0.0555641,0.934586,-0.351371][0.475781,0.517253,0][0,0.4917,-0.195649][0.0555385,0.934648,-0.35121][0.523517,0.525236,0][0,0.421253,-0.383026][0.0554178,0.934594,-0.351374][0.52347,0.579854,0][0,0.421253,-0.383026][0.0554178,0.934594,-0.351374][0.52347,0.579854,0][-0.2354,0.421318,-0.345726][-0.0553986,0.934641,-0.351252][0.459079,0.569358,0][-0.1775,0.491749,-0.167449][-0.0555641,0.934586,-0.351371][0.475781,0.517253,0][-0.3375,0.491892,-0.0859487][-0.160681,0.934689,-0.317078][0.432658,0.495053,0][-0.1775,0.491749,-0.167449][-0.0555641,0.934586,-0.351371][0.475781,0.517253,0][-0.2354,0.421318,-0.345726][-0.0553986,0.934641,-0.351252][0.459079,0.569358,0][-0.2354,0.421318,-0.345726][-0.0553986,0.934641,-0.351252][0.459079,0.569358,0][-0.4478,0.421507,-0.237526][-0.160696,0.934684,-0.317083][0.401693,0.539823,0][-0.3375,0.491892,-0.0859487][-0.160681,0.934689,-0.317078][0.432658,0.495053,0][-0.4646,0.492114,0.0411511][-0.250305,0.934813,-0.251937][0.397417,0.460262,0][-0.3375,0.491892,-0.0859487][-0.160681,0.934689,-0.317078][0.432658,0.495053,0][-0.4478,0.421507,-0.237526][-0.160696,0.934684,-0.317083][0.401693,0.539823,0][-0.4478,0.421507,-0.237526][-0.160696,0.934684,-0.317083][0.401693,0.539823,0][-0.6163,0.421801,-0.0690263][-0.250304,0.934813,-0.251937][0.354864,0.492828,0][-0.4646,0.492114,0.0411511][-0.250305,0.934813,-0.251937][0.397417,0.460262,0][-0.5461,0.492393,0.201151][-0.315458,0.934954,-0.162319][0.374245,0.417583,0][-0.4646,0.492114,0.0411511][-0.250305,0.934813,-0.251937][0.397417,0.460262,0][-0.6163,0.421801,-0.0690263][-0.250304,0.934813,-0.251937][0.354864,0.492828,0][-0.6163,0.421801,-0.0690263][-0.250304,0.934813,-0.251937][0.354864,0.492828,0][-0.7245,0.422172,0.143373][-0.315443,0.934958,-0.162324][0.322748,0.436698,0][-0.5461,0.492393,0.201151][-0.315458,0.934954,-0.162319][0.374245,0.417583,0][-0.5743,0.492703,0.378651][-0.349739,0.935294,0.0539316][0.398649,0.341629,0][-0.5461,0.492393,0.201151][-0.315458,0.934954,-0.162319][0.396263,0.376928,0][-0.7245,0.422172,0.143373][-0.315443,0.934958,-0.162324][0.349546,0.375172,0][-0.7245,0.422172,0.143373][-0.315443,0.934958,-0.162324][0.349546,0.375172,0][-0.7618,0.422583,0.378773][-0.349739,0.935294,0.0539316][0.357723,0.328986,0][-0.5743,0.492703,0.378651][-0.349739,0.935294,0.0539316][0.398649,0.341629,0][-0.7245,0.422994,0.614173][-0.34962,0.935347,0.0537662][0.377638,0.28704,0][-0.7618,0.422583,0.378773][-0.349739,0.935294,0.0539316][0.357723,0.328986,0][-0.9309,0.299972,0.378987][-0.584487,0.806261,0.091207][0.316792,0.311507,0][-0.9309,0.299972,0.378987][-0.584487,0.806261,0.091207][0.316792,0.311507,0][-0.8854,0.300474,0.666687][-0.584337,0.806392,0.091006][0.34335,0.261628,0][-0.7245,0.422994,0.614173][-0.34962,0.935347,0.0537662][0.377638,0.28704,0][-0.6163,0.423364,0.826572][-0.315451,0.935516,0.159063][0.405812,0.252725,0][-0.7245,0.422994,0.614173][-0.34962,0.935347,0.0537662][0.377638,0.28704,0][-0.8854,0.300474,0.666687][-0.584337,0.806392,0.091006][0.34335,0.261628,0][-0.8854,0.300474,0.666687][-0.584337,0.806392,0.091006][0.34335,0.261628,0][-0.7532,0.300927,0.926186][-0.527118,0.806715,0.267128][0.378786,0.222064,0][-0.6163,0.423364,0.826572][-0.315451,0.935516,0.159063][0.405812,0.252725,0][-0.4478,0.423658,0.995072][-0.250305,0.935687,0.248672][0.440476,0.227573,0][-0.6163,0.423364,0.826572][-0.315451,0.935516,0.159063][0.405812,0.252725,0][-0.7532,0.300927,0.926186][-0.527118,0.806715,0.267128][0.378786,0.222064,0][-0.7532,0.300927,0.926186][-0.527118,0.806715,0.267128][0.378786,0.222064,0][-0.5472,0.301287,1.13219][-0.418332,0.806953,0.416924][0.421811,0.192231,0][-0.4478,0.423658,0.995072][-0.250305,0.935687,0.248672][0.440476,0.227573,0][-0.2354,0.423847,1.10327][-0.160692,0.935789,0.31381][0.479646,0.212373,0][-0.4478,0.423658,0.995072][-0.250305,0.935687,0.248672][0.440476,0.227573,0][-0.5472,0.301287,1.13219][-0.418332,0.806953,0.416924][0.421811,0.192231,0][-0.5472,0.301287,1.13219][-0.418332,0.806953,0.416924][0.421811,0.192231,0][-0.2877,0.301517,1.26439][-0.268531,0.807175,0.5257][0.47007,0.174544,0][-0.2354,0.423847,1.10327][-0.160692,0.935789,0.31381][0.479646,0.212373,0][0,0.423912,1.14057][-0.0554177,0.935815,0.348109][0.52137,0.207281,0][-0.2354,0.423847,1.10327][-0.160692,0.935789,0.31381][0.479646,0.212373,0][-0.2877,0.301517,1.26439][-0.268531,0.807175,0.5257][0.47007,0.174544,0][-0.2877,0.301517,1.26439][-0.268531,0.807175,0.5257][0.47007,0.174544,0][0,0.301597,1.30989][-0.0924386,0.807132,0.583089][0.521372,0.168769,0][0,0.423912,1.14057][-0.0554177,0.935815,0.348109][0.52137,0.207281,0][0.2354,0.423847,1.10327][0.0553985,0.935861,0.347987][0.563239,0.212473,0][0,0.423912,1.14057][-0.0554177,0.935815,0.348109][0.52137,0.207281,0][0,0.301597,1.30989][-0.0924386,0.807132,0.583089][0.521372,0.168769,0][0,0.301597,1.30989][-0.0924386,0.807132,0.583089][0.521372,0.168769,0][0.2877,0.301517,1.26439][0.0924133,0.807251,0.582929][0.572708,0.174628,0][0.2354,0.423847,1.10327][0.0553985,0.935861,0.347987][0.563239,0.212473,0][0.4478,0.423658,0.995072][0.160696,0.935786,0.313819][0.602693,0.22775,0][0.2354,0.423847,1.10327][0.0553985,0.935861,0.347987][0.563239,0.212473,0][0.2877,0.301517,1.26439][0.0924133,0.807251,0.582929][0.572708,0.174628,0][0.2877,0.301517,1.26439][0.0924133,0.807251,0.582929][0.572708,0.174628,0][0.5472,0.301287,1.13219][0.268536,0.807167,0.52571][0.62121,0.192571,0][0.4478,0.423658,0.995072][0.160696,0.935786,0.313819][0.602693,0.22775,0][0.6163,0.423364,0.826572][0.250305,0.935687,0.248672][0.637907,0.252793,0][0.4478,0.423658,0.995072][0.160696,0.935786,0.313819][0.602693,0.22775,0][0.5472,0.301287,1.13219][0.268536,0.807167,0.52571][0.62121,0.192571,0][0.5472,0.301287,1.13219][0.268536,0.807167,0.52571][0.62121,0.192571,0][0.7532,0.300927,0.926186][0.418332,0.806952,0.416924][0.664606,0.22188,0][0.6163,0.423364,0.826572][0.250305,0.935687,0.248672][0.637907,0.252793,0][0.7245,0.422994,0.614173][0.315443,0.935519,0.159059][0.666108,0.287037,0][0.6163,0.423364,0.826572][0.250305,0.935687,0.248672][0.637907,0.252793,0][0.7532,0.300927,0.926186][0.418332,0.806952,0.416924][0.664606,0.22188,0][0.7532,0.300927,0.926186][0.418332,0.806952,0.416924][0.664606,0.22188,0][0.8854,0.300474,0.666687][0.527108,0.806723,0.267123][0.700662,0.261634,0][0.7245,0.422994,0.614173][0.315443,0.935519,0.159059][0.666108,0.287037,0][0.7618,0.422583,0.378773][0.349742,0.935301,0.0537855][0.686746,0.328914,0][0.7245,0.422994,0.614173][0.315443,0.935519,0.159059][0.666108,0.287037,0][0.8854,0.300474,0.666687][0.527108,0.806723,0.267123][0.700662,0.261634,0][0.8854,0.300474,0.666687][0.527108,0.806723,0.267123][0.700662,0.261634,0][0.9309,0.299972,0.378987][0.584497,0.806273,0.0910315][0.727874,0.311444,0][0.7618,0.422583,0.378773][0.349742,0.935301,0.0537855][0.686746,0.328914,0][0.7245,0.422172,0.143373][0.34962,0.935154,-0.0570309][0.696311,0.375139,0][0.7618,0.422583,0.378773][0.349742,0.935301,0.0537855][0.686746,0.328914,0][0.9309,0.299972,0.378987][0.584497,0.806273,0.0910315][0.727874,0.311444,0][0.9309,0.299972,0.378987][0.584497,0.806273,0.0910315][0.727874,0.311444,0][0.8854,0.29947,0.0912874][0.584337,0.80607,-0.0938203][0.743811,0.366047,0][0.7245,0.422172,0.143373][0.34962,0.935154,-0.0570309][0.696311,0.375139,0][0.6163,0.421801,-0.0690263][0.315451,0.934955,-0.162328][0.691797,0.493765,0][0.7245,0.422172,0.143373][0.34962,0.935154,-0.0570309][0.725256,0.43783,0][0.8854,0.29947,0.0912874][0.584337,0.80607,-0.0938203][0.777498,0.460946,0][0.8854,0.29947,0.0912874][0.584337,0.80607,-0.0938203][0.777498,0.460946,0][0.7532,0.299017,-0.168212][0.527118,0.805778,-0.269942][0.734881,0.527548,0][0.6163,0.421801,-0.0690263][0.315451,0.934955,-0.162328][0.691797,0.493765,0][0.4478,0.421507,-0.237526][0.250305,0.934813,-0.251937][0.644687,0.541006,0][0.6163,0.421801,-0.0690263][0.315451,0.934955,-0.162328][0.691797,0.493765,0][0.7532,0.299017,-0.168212][0.527118,0.805778,-0.269942][0.734881,0.527548,0][0.7532,0.299017,-0.168212][0.527118,0.805778,-0.269942][0.734881,0.527548,0][0.5472,0.298657,-0.374212][0.418332,0.805492,-0.419739][0.679998,0.585646,0][0.4478,0.421507,-0.237526][0.250305,0.934813,-0.251937][0.644687,0.541006,0][0.2354,0.421318,-0.345726][0.160692,0.934688,-0.317075][0.440202,0.968928,0][0.4478,0.421507,-0.237526][0.250305,0.934813,-0.251937][0.363614,0.989595,0][0.5472,0.298657,-0.374212][0.418332,0.805492,-0.419739][0.335376,0.926022,0][0.5472,0.298657,-0.374212][0.418332,0.805492,-0.419739][0.335376,0.926022,0][0.2877,0.298427,-0.506412][0.268531,0.805335,-0.528515][0.42675,0.903092,0][0.2354,0.421318,-0.345726][0.160692,0.934688,-0.317075][0.440202,0.968928,0][0,0.421253,-0.383026][0.0554178,0.934594,-0.351374][0.520504,0.96307,0][0.2354,0.421318,-0.345726][0.160692,0.934688,-0.317075][0.440202,0.968928,0][0.2877,0.298427,-0.506412][0.268531,0.805335,-0.528515][0.42675,0.903092,0][0.2877,0.298427,-0.506412][0.268531,0.805335,-0.528515][0.42675,0.903092,0][0,0.298347,-0.552012][0.0926045,0.805244,-0.585667][0.520861,0.895673,0][0,0.421253,-0.383026][0.0554178,0.934594,-0.351374][0.520504,0.96307,0][-0.2354,0.421318,-0.345726][-0.0553986,0.934641,-0.351252][0.60077,0.968647,0][0,0.421253,-0.383026][0.0554178,0.934594,-0.351374][0.520504,0.96307,0][0,0.298347,-0.552012][0.0926045,0.805244,-0.585667][0.520861,0.895673,0][0,0.298347,-0.552012][0.0926045,0.805244,-0.585667][0.520861,0.895673,0][-0.2877,0.298427,-0.506412][-0.0926083,0.805227,-0.585691][0.615171,0.903008,0][-0.2354,0.421318,-0.345726][-0.0553986,0.934641,-0.351252][0.60077,0.968647,0][-0.4478,0.421507,-0.237526][-0.160696,0.934684,-0.317083][0.676957,0.989595,0][-0.2354,0.421318,-0.345726][-0.0553986,0.934641,-0.351252][0.60077,0.968647,0][-0.2877,0.298427,-0.506412][-0.0926083,0.805227,-0.585691][0.615171,0.903008,0][-0.2877,0.298427,-0.506412][-0.0926083,0.805227,-0.585691][0.615171,0.903008,0][-0.5472,0.298657,-0.374212][-0.268535,0.805327,-0.528524][0.705348,0.925892,0][-0.4478,0.421507,-0.237526][-0.160696,0.934684,-0.317083][0.676957,0.989595,0][-0.6163,0.421801,-0.0690263][-0.250304,0.934813,-0.251937][0.354864,0.492828,0][-0.4478,0.421507,-0.237526][-0.160696,0.934684,-0.317083][0.401693,0.539823,0][-0.5472,0.298657,-0.374212][-0.268535,0.805327,-0.528524][0.36621,0.584604,0][-0.5472,0.298657,-0.374212][-0.268535,0.805327,-0.528524][0.36621,0.584604,0][-0.7532,0.299017,-0.168212][-0.418332,0.805492,-0.419739][0.310891,0.526361,0][-0.6163,0.421801,-0.0690263][-0.250304,0.934813,-0.251937][0.354864,0.492828,0][-0.7245,0.422172,0.143373][-0.315443,0.934958,-0.162324][0.322748,0.436698,0][-0.6163,0.421801,-0.0690263][-0.250304,0.934813,-0.251937][0.354864,0.492828,0][-0.7532,0.299017,-0.168212][-0.418332,0.805492,-0.419739][0.310891,0.526361,0][-0.7532,0.299017,-0.168212][-0.418332,0.805492,-0.419739][0.310891,0.526361,0][-0.8854,0.29947,0.0912874][-0.527108,0.805786,-0.269937][0.270022,0.459431,0][-0.7245,0.422172,0.143373][-0.315443,0.934958,-0.162324][0.322748,0.436698,0][-0.7618,0.422583,0.378773][-0.349739,0.935294,0.0539316][0.357723,0.328986,0][-0.7245,0.422172,0.143373][-0.315443,0.934958,-0.162324][0.349546,0.375172,0][-0.8854,0.29947,0.0912874][-0.527108,0.805786,-0.269937][0.30171,0.366408,0][-0.8854,0.29947,0.0912874][-0.527108,0.805786,-0.269937][0.30171,0.366408,0][-0.9309,0.299972,0.378987][-0.584487,0.806261,0.091207][0.316792,0.311507,0][-0.7618,0.422583,0.378773][-0.349739,0.935294,0.0539316][0.357723,0.328986,0][-0.8854,0.300474,0.666687][-0.584337,0.806392,0.091006][0.34335,0.261628,0][-0.9309,0.299972,0.378987][-0.584487,0.806261,0.091207][0.316792,0.311507,0][-1.0652,0.109082,0.37932][-0.81111,0.570877,0.127281][0.272896,0.287153,0][-1.0652,0.109082,0.37932][-0.81111,0.570877,0.127281][0.272896,0.287153,0][-1.0131,0.109657,0.70852][-0.811164,0.570778,0.127381][0.307366,0.231498,0][-0.8854,0.300474,0.666687][-0.584337,0.806392,0.091006][0.34335,0.261628,0][-0.7532,0.300927,0.926186][-0.527118,0.806715,0.267128][0.378786,0.222064,0][-0.8854,0.300474,0.666687][-0.584337,0.806392,0.091006][0.34335,0.261628,0][-1.0131,0.109657,0.70852][-0.811164,0.570778,0.127381][0.307366,0.231498,0][-1.0131,0.109657,0.70852][-0.811164,0.570778,0.127381][0.307366,0.231498,0][-0.8618,0.110175,1.00542][-0.731785,0.571109,0.371921][0.351122,0.186382,0][-0.7532,0.300927,0.926186][-0.527118,0.806715,0.267128][0.378786,0.222064,0][-0.5472,0.301287,1.13219][-0.418332,0.806953,0.416924][0.421811,0.192231,0][-0.7532,0.300927,0.926186][-0.527118,0.806715,0.267128][0.378786,0.222064,0][-0.8618,0.110175,1.00542][-0.731785,0.571109,0.371921][0.351122,0.186382,0][-0.8618,0.110175,1.00542][-0.731785,0.571109,0.371921][0.351122,0.186382,0][-0.6261,0.110586,1.24112][-0.580768,0.571467,0.579771][0.402739,0.152837,0][-0.5472,0.301287,1.13219][-0.418332,0.806953,0.416924][0.421811,0.192231,0][-0.2877,0.301517,1.26439][-0.268531,0.807175,0.5257][0.47007,0.174544,0][-0.5472,0.301287,1.13219][-0.418332,0.806953,0.416924][0.421811,0.192231,0][-0.6261,0.110586,1.24112][-0.580768,0.571467,0.579771][0.402739,0.152837,0][-0.6261,0.110586,1.24112][-0.580768,0.571467,0.579771][0.402739,0.152837,0][-0.3292,0.11085,1.39242][-0.372883,0.571841,0.730722][0.4605,0.132729,0][-0.2877,0.301517,1.26439][-0.268531,0.807175,0.5257][0.47007,0.174544,0][0,0.301597,1.30989][-0.0924386,0.807132,0.583089][0.521372,0.168769,0][-0.2877,0.301517,1.26439][-0.268531,0.807175,0.5257][0.47007,0.174544,0][-0.3292,0.11085,1.39242][-0.372883,0.571841,0.730722][0.4605,0.132729,0][-0.3292,0.11085,1.39242][-0.372883,0.571841,0.730722][0.4605,0.132729,0][0,0.110941,1.44452][-0.128367,0.572062,0.810103][0.521684,0.125602,0][0,0.301597,1.30989][-0.0924386,0.807132,0.583089][0.521372,0.168769,0][0.2877,0.301517,1.26439][0.0924133,0.807251,0.582929][0.572708,0.174628,0][0,0.301597,1.30989][-0.0924386,0.807132,0.583089][0.521372,0.168769,0][0,0.110941,1.44452][-0.128367,0.572062,0.810103][0.521684,0.125602,0][0,0.110941,1.44452][-0.128367,0.572062,0.810103][0.521684,0.125602,0][0.3292,0.11085,1.39242][0.128377,0.57197,0.810167][0.583012,0.132683,0][0.2877,0.301517,1.26439][0.0924133,0.807251,0.582929][0.572708,0.174628,0][0.5472,0.301287,1.13219][0.268536,0.807167,0.52571][0.62121,0.192571,0][0.2877,0.301517,1.26439][0.0924133,0.807251,0.582929][0.572708,0.174628,0][0.3292,0.11085,1.39242][0.128377,0.57197,0.810167][0.583012,0.132683,0][0.3292,0.11085,1.39242][0.128377,0.57197,0.810167][0.583012,0.132683,0][0.6261,0.110586,1.24112][0.372917,0.571736,0.730788][0.64075,0.153147,0][0.5472,0.301287,1.13219][0.268536,0.807167,0.52571][0.62121,0.192571,0][0.7532,0.300927,0.926186][0.418332,0.806952,0.416924][0.664606,0.22188,0][0.5472,0.301287,1.13219][0.268536,0.807167,0.52571][0.62121,0.192571,0][0.6261,0.110586,1.24112][0.372917,0.571736,0.730788][0.64075,0.153147,0][0.6261,0.110586,1.24112][0.372917,0.571736,0.730788][0.64075,0.153147,0][0.8618,0.110175,1.00542][0.580768,0.571467,0.579771][0.693044,0.186191,0][0.7532,0.300927,0.926186][0.418332,0.806952,0.416924][0.664606,0.22188,0][0.8854,0.300474,0.666687][0.527108,0.806723,0.267123][0.700662,0.261634,0][0.7532,0.300927,0.926186][0.418332,0.806952,0.416924][0.664606,0.22188,0][0.8618,0.110175,1.00542][0.580768,0.571467,0.579771][0.693044,0.186191,0][0.8618,0.110175,1.00542][0.580768,0.571467,0.579771][0.693044,0.186191,0][1.0131,0.109657,0.70852][0.731719,0.571216,0.371887][0.737076,0.231472,0][0.8854,0.300474,0.666687][0.527108,0.806723,0.267123][0.700662,0.261634,0][0.9309,0.299972,0.378987][0.584497,0.806273,0.0910315][0.727874,0.311444,0][0.8854,0.300474,0.666687][0.527108,0.806723,0.267123][0.700662,0.261634,0][1.0131,0.109657,0.70852][0.731719,0.571216,0.371887][0.737076,0.231472,0][1.0131,0.109657,0.70852][0.731719,0.571216,0.371887][0.737076,0.231472,0][1.0652,0.109082,0.37932][0.8111,0.57087,0.12737][0.771772,0.287013,0][0.9309,0.299972,0.378987][0.584497,0.806273,0.0910315][0.727874,0.311444,0][0.8854,0.29947,0.0912874][0.584337,0.80607,-0.0938203][0.743811,0.366047,0][0.9309,0.299972,0.378987][0.584497,0.806273,0.0910315][0.727874,0.311444,0][1.0652,0.109082,0.37932][0.8111,0.57087,0.12737][0.771772,0.287013,0][1.0652,0.109082,0.37932][0.8111,0.57087,0.12737][0.771772,0.287013,0][1.0131,0.108508,0.0501207][0.811164,0.57033,-0.129372][0.794034,0.34899,0][0.8854,0.29947,0.0912874][0.584337,0.80607,-0.0938203][0.743811,0.366047,0][0.7532,0.299017,-0.168212][0.527118,0.805778,-0.269942][0.734881,0.527548,0][0.8854,0.29947,0.0912874][0.584337,0.80607,-0.0938203][0.777498,0.460946,0][1.0131,0.108508,0.0501207][0.811164,0.57033,-0.129372][0.834805,0.490047,0][1.0131,0.108508,0.0501207][0.811164,0.57033,-0.129372][0.834805,0.490047,0][0.8618,0.107989,-0.246779][0.731785,0.569808,-0.373912][0.783792,0.565371,0][0.7532,0.299017,-0.168212][0.527118,0.805778,-0.269942][0.734881,0.527548,0][0.5472,0.298657,-0.374212][0.418332,0.805492,-0.419739][0.679998,0.585646,0][0.7532,0.299017,-0.168212][0.527118,0.805778,-0.269942][0.734881,0.527548,0][0.8618,0.107989,-0.246779][0.731785,0.569808,-0.373912][0.783792,0.565371,0][0.8618,0.107989,-0.246779][0.731785,0.569808,-0.373912][0.783792,0.565371,0][0.6261,0.107578,-0.482478][0.580768,0.569439,-0.581763][0.722916,0.632735,0][0.5472,0.298657,-0.374212][0.418332,0.805492,-0.419739][0.679998,0.585646,0][0.2877,0.298427,-0.506412][0.268531,0.805335,-0.528515][0.42675,0.903092,0][0.5472,0.298657,-0.374212][0.418332,0.805492,-0.419739][0.335376,0.926022,0][0.6261,0.107578,-0.482478][0.580768,0.569439,-0.581763][0.307834,0.851546,0][0.6261,0.107578,-0.482478][0.580768,0.569439,-0.581763][0.307834,0.851546,0][0.3292,0.107314,-0.633778][0.372884,0.569287,-0.732714][0.412421,0.827871,0][0.2877,0.298427,-0.506412][0.268531,0.805335,-0.528515][0.42675,0.903092,0][0,0.298347,-0.552012][0.0926045,0.805244,-0.585667][0.520861,0.895673,0][0.2877,0.298427,-0.506412][0.268531,0.805335,-0.528515][0.42675,0.903092,0][0.3292,0.107314,-0.633778][0.372884,0.569287,-0.732714][0.412421,0.827871,0][0.3292,0.107314,-0.633778][0.372884,0.569287,-0.732714][0.412421,0.827871,0][0,0.107223,-0.685878][0.128398,0.568943,-0.812292][0.520901,0.81891,0][0,0.298347,-0.552012][0.0926045,0.805244,-0.585667][0.520861,0.895673,0][-0.2877,0.298427,-0.506412][-0.0926083,0.805227,-0.585691][0.615171,0.903008,0][0,0.298347,-0.552012][0.0926045,0.805244,-0.585667][0.520861,0.895673,0][0,0.107223,-0.685878][0.128398,0.568943,-0.812292][0.520901,0.81891,0][0,0.107223,-0.685878][0.128398,0.568943,-0.812292][0.520901,0.81891,0][-0.3292,0.107314,-0.633778][-0.128377,0.569138,-0.812158][0.629048,0.828262,0][-0.2877,0.298427,-0.506412][-0.0926083,0.805227,-0.585691][0.615171,0.903008,0][-0.5472,0.298657,-0.374212][-0.268535,0.805327,-0.528524][0.705348,0.925892,0][-0.2877,0.298427,-0.506412][-0.0926083,0.805227,-0.585691][0.615171,0.903008,0][-0.3292,0.107314,-0.633778][-0.128377,0.569138,-0.812158][0.629048,0.828262,0][-0.3292,0.107314,-0.633778][-0.128377,0.569138,-0.812158][0.629048,0.828262,0][-0.6261,0.107578,-0.482478][-0.372917,0.569181,-0.732779][0.732624,0.852362,0][-0.5472,0.298657,-0.374212][-0.268535,0.805327,-0.528524][0.705348,0.925892,0][-0.7532,0.299017,-0.168212][-0.418332,0.805492,-0.419739][0.310891,0.526361,0][-0.5472,0.298657,-0.374212][-0.268535,0.805327,-0.528524][0.36621,0.584604,0][-0.6261,0.107578,-0.482478][-0.372917,0.569181,-0.732779][0.322228,0.632115,0][-0.6261,0.107578,-0.482478][-0.372917,0.569181,-0.732779][0.322228,0.632115,0][-0.8618,0.107989,-0.246779][-0.580768,0.569439,-0.581762][0.26097,0.564085,0][-0.7532,0.299017,-0.168212][-0.418332,0.805492,-0.419739][0.310891,0.526361,0][-0.8854,0.29947,0.0912874][-0.527108,0.805786,-0.269937][0.270022,0.459431,0][-0.7532,0.299017,-0.168212][-0.418332,0.805492,-0.419739][0.310891,0.526361,0][-0.8618,0.107989,-0.246779][-0.580768,0.569439,-0.581762][0.26097,0.564085,0][-0.8618,0.107989,-0.246779][-0.580768,0.569439,-0.581762][0.26097,0.564085,0][-1.0131,0.108508,0.0501207][-0.731719,0.569914,-0.373879][0.212651,0.488317,0][-0.8854,0.29947,0.0912874][-0.527108,0.805786,-0.269937][0.270022,0.459431,0][-0.9309,0.299972,0.378987][-0.584487,0.806261,0.091207][0.316792,0.311507,0][-0.8854,0.29947,0.0912874][-0.527108,0.805786,-0.269937][0.30171,0.366408,0][-1.0131,0.108508,0.0501207][-0.731719,0.569914,-0.373879][0.251998,0.348969,0][-1.0131,0.108508,0.0501207][-0.731719,0.569914,-0.373879][0.251998,0.348969,0][-1.0652,0.109082,0.37932][-0.81111,0.570877,0.127281][0.272896,0.287153,0][-0.9309,0.299972,0.378987][-0.584487,0.806261,0.091207][0.316792,0.311507,0][-1.0131,0.109657,0.70852][-0.811164,0.570778,0.127381][0.307366,0.231498,0][-1.0652,0.109082,0.37932][-0.81111,0.570877,0.127281][0.272896,0.287153,0][-1.1514,-0.131586,0.37974][-0.931157,0.333768,0.146785][0.229191,0.256736,0][-1.1514,-0.131586,0.37974][-0.931157,0.333768,0.146785][0.229191,0.256736,0][-1.095,-0.130965,0.73554][-0.931225,0.333469,0.147032][0.270597,0.196039,0][-1.0131,0.109657,0.70852][-0.811164,0.570778,0.127381][0.307366,0.231498,0][-0.8618,0.110175,1.00542][-0.731785,0.571109,0.371921][0.351122,0.186382,0][-1.0131,0.109657,0.70852][-0.811164,0.570778,0.127381][0.307366,0.231498,0][-1.095,-0.130965,0.73554][-0.931225,0.333469,0.147032][0.270597,0.196039,0][-1.095,-0.130965,0.73554][-0.931225,0.333469,0.147032][0.270597,0.196039,0][-0.9315,-0.130405,1.05654][-0.840078,0.334181,0.427308][0.322454,0.146574,0][-0.8618,0.110175,1.00542][-0.731785,0.571109,0.371921][0.351122,0.186382,0][-0.6261,0.110586,1.24112][-0.580768,0.571467,0.579771][0.402739,0.152837,0][-0.8618,0.110175,1.00542][-0.731785,0.571109,0.371921][0.351122,0.186382,0][-0.9315,-0.130405,1.05654][-0.840078,0.334181,0.427308][0.322454,0.146574,0][-0.9315,-0.130405,1.05654][-0.840078,0.334181,0.427308][0.322454,0.146574,0][-0.6768,-0.129961,1.31124][-0.666626,0.334657,0.666043][0.38359,0.109324,0][-0.6261,0.110586,1.24112][-0.580768,0.571467,0.579771][0.402739,0.152837,0][-0.3292,0.11085,1.39242][-0.372883,0.571841,0.730722][0.4605,0.132729,0][-0.6261,0.110586,1.24112][-0.580768,0.571467,0.579771][0.402739,0.152837,0][-0.6768,-0.129961,1.31124][-0.666626,0.334657,0.666043][0.38359,0.109324,0][-0.6768,-0.129961,1.31124][-0.666626,0.334657,0.666043][0.38359,0.109324,0][-0.3558,-0.129675,1.47474][-0.427928,0.334667,0.839569][0.451165,0.086033,0][-0.3292,0.11085,1.39242][-0.372883,0.571841,0.730722][0.4605,0.132729,0][0,0.110941,1.44452][-0.128367,0.572062,0.810103][0.521684,0.125602,0][-0.3292,0.11085,1.39242][-0.372883,0.571841,0.730722][0.4605,0.132729,0][-0.3558,-0.129675,1.47474][-0.427928,0.334667,0.839569][0.451165,0.086033,0][-0.3558,-0.129675,1.47474][-0.427928,0.334667,0.839569][0.451165,0.086033,0][0,-0.129577,1.53114][-0.147598,0.335124,0.930541][0.522315,0.078802,0][0,0.110941,1.44452][-0.128367,0.572062,0.810103][0.521684,0.125602,0][0.3292,0.11085,1.39242][0.128377,0.57197,0.810167][0.583012,0.132683,0][0,0.110941,1.44452][-0.128367,0.572062,0.810103][0.521684,0.125602,0][0,-0.129577,1.53114][-0.147598,0.335124,0.930541][0.522315,0.078802,0][0,-0.129577,1.53114][-0.147598,0.335124,0.930541][0.522315,0.078802,0][0.3558,-0.129675,1.47474][0.147614,0.334837,0.930642][0.593272,0.086017,0][0.3292,0.11085,1.39242][0.128377,0.57197,0.810167][0.583012,0.132683,0][0.6261,0.110586,1.24112][0.372917,0.571736,0.730788][0.64075,0.153147,0][0.3292,0.11085,1.39242][0.128377,0.57197,0.810167][0.583012,0.132683,0][0.3558,-0.129675,1.47474][0.147614,0.334837,0.930642][0.593272,0.086017,0][0.3558,-0.129675,1.47474][0.147614,0.334837,0.930642][0.593272,0.086017,0][0.6768,-0.129961,1.31124][0.42789,0.334901,0.839495][0.661099,0.109414,0][0.6261,0.110586,1.24112][0.372917,0.571736,0.730788][0.64075,0.153147,0][0.8618,0.110175,1.00542][0.580768,0.571467,0.579771][0.693044,0.186191,0][0.6261,0.110586,1.24112][0.372917,0.571736,0.730788][0.64075,0.153147,0][0.6768,-0.129961,1.31124][0.42789,0.334901,0.839495][0.661099,0.109414,0][0.6768,-0.129961,1.31124][0.42789,0.334901,0.839495][0.661099,0.109414,0][0.9315,-0.130405,1.05654][0.666626,0.334658,0.666043][0.722388,0.146466,0][0.8618,0.110175,1.00542][0.580768,0.571467,0.579771][0.693044,0.186191,0][1.0131,0.109657,0.70852][0.731719,0.571216,0.371887][0.737076,0.231472,0][0.8618,0.110175,1.00542][0.580768,0.571467,0.579771][0.693044,0.186191,0][0.9315,-0.130405,1.05654][0.666626,0.334658,0.666043][0.722388,0.146466,0][0.9315,-0.130405,1.05654][0.666626,0.334658,0.666043][0.722388,0.146466,0][1.095,-0.130965,0.73554][0.840151,0.333948,0.427346][0.775036,0.195799,0][1.0131,0.109657,0.70852][0.731719,0.571216,0.371887][0.737076,0.231472,0][1.0652,0.109082,0.37932][0.8111,0.57087,0.12737][0.771772,0.287013,0][1.0131,0.109657,0.70852][0.731719,0.571216,0.371887][0.737076,0.231472,0][1.095,-0.130965,0.73554][0.840151,0.333948,0.427346][0.775036,0.195799,0][1.095,-0.130965,0.73554][0.840151,0.333948,0.427346][0.775036,0.195799,0][1.1514,-0.131586,0.37974][0.931125,0.333756,0.147016][0.816718,0.25631,0][1.0652,0.109082,0.37932][0.8111,0.57087,0.12737][0.771772,0.287013,0][1.0131,0.108508,0.0501207][0.811164,0.57033,-0.129372][0.794034,0.34899,0][1.0652,0.109082,0.37932][0.8111,0.57087,0.12737][0.771772,0.287013,0][1.1514,-0.131586,0.37974][0.931125,0.333756,0.147016][0.816718,0.25631,0][1.1514,-0.131586,0.37974][0.931125,0.333756,0.147016][0.816718,0.25631,0][1.095,-0.132207,0.0239408][0.931225,0.332954,-0.148195][0.847568,0.323077,0][1.0131,0.108508,0.0501207][0.811164,0.57033,-0.129372][0.794034,0.34899,0][0.8618,0.107989,-0.246779][0.731785,0.569808,-0.373912][0.783792,0.565371,0][1.0131,0.108508,0.0501207][0.811164,0.57033,-0.129372][0.834805,0.490047,0][1.095,-0.132207,0.0239408][0.931225,0.332954,-0.148195][0.894541,0.526616,0][1.095,-0.132207,0.0239408][0.931225,0.332954,-0.148195][0.894541,0.526616,0][0.9315,-0.132768,-0.297059][0.840078,0.332688,-0.428472][0.837894,0.607079,0][0.8618,0.107989,-0.246779][0.731785,0.569808,-0.373912][0.783792,0.565371,0][0.6261,0.107578,-0.482478][0.580768,0.569439,-0.581763][0.722916,0.632735,0][0.8618,0.107989,-0.246779][0.731785,0.569808,-0.373912][0.783792,0.565371,0][0.9315,-0.132768,-0.297059][0.840078,0.332688,-0.428472][0.837894,0.607079,0][0.9315,-0.132768,-0.297059][0.840078,0.332688,-0.428472][0.837894,0.607079,0][0.6768,-0.133212,-0.551758][0.666626,0.33233,-0.667207][0.774391,0.680552,0][0.6261,0.107578,-0.482478][0.580768,0.569439,-0.581763][0.722916,0.632735,0][0.3292,0.107314,-0.633778][0.372884,0.569287,-0.732714][0.412421,0.827871,0][0.6261,0.107578,-0.482478][0.580768,0.569439,-0.581763][0.307834,0.851546,0][0.6768,-0.133212,-0.551758][0.666626,0.33233,-0.667207][0.287035,0.768906,0][0.6768,-0.133212,-0.551758][0.666626,0.33233,-0.667207][0.287035,0.768906,0][0.3558,-0.133498,-0.715258][0.427928,0.331734,-0.840732][0.402488,0.743952,0][0.3292,0.107314,-0.633778][0.372884,0.569287,-0.732714][0.412421,0.827871,0][0,0.107223,-0.685878][0.128398,0.568943,-0.812292][0.520901,0.81891,0][0.3292,0.107314,-0.633778][0.372884,0.569287,-0.732714][0.412421,0.827871,0][0.3558,-0.133498,-0.715258][0.427928,0.331734,-0.840732][0.402488,0.743952,0][0.3558,-0.133498,-0.715258][0.427928,0.331734,-0.840732][0.402488,0.743952,0][0,-0.133596,-0.771658][0.147598,0.331874,-0.931705][0.520795,0.734982,0][0,0.107223,-0.685878][0.128398,0.568943,-0.812292][0.520901,0.81891,0][-0.3292,0.107314,-0.633778][-0.128377,0.569138,-0.812158][0.629048,0.828262,0][0,0.107223,-0.685878][0.128398,0.568943,-0.812292][0.520901,0.81891,0][0,-0.133596,-0.771658][0.147598,0.331874,-0.931705][0.520795,0.734982,0][0,-0.133596,-0.771658][0.147598,0.331874,-0.931705][0.520795,0.734982,0][-0.3558,-0.133498,-0.715258][-0.147614,0.331586,-0.931805][0.639201,0.744711,0][-0.3292,0.107314,-0.633778][-0.128377,0.569138,-0.812158][0.629048,0.828262,0][-0.6261,0.107578,-0.482478][-0.372917,0.569181,-0.732779][0.732624,0.852362,0][-0.3292,0.107314,-0.633778][-0.128377,0.569138,-0.812158][0.629048,0.828262,0][-0.3558,-0.133498,-0.715258][-0.147614,0.331586,-0.931805][0.639201,0.744711,0][-0.3558,-0.133498,-0.715258][-0.147614,0.331586,-0.931805][0.639201,0.744711,0][-0.6768,-0.133212,-0.551758][-0.42789,0.331968,-0.840659][0.754101,0.770232,0][-0.6261,0.107578,-0.482478][-0.372917,0.569181,-0.732779][0.732624,0.852362,0][-0.8618,0.107989,-0.246779][-0.580768,0.569439,-0.581762][0.26097,0.564085,0][-0.6261,0.107578,-0.482478][-0.372917,0.569181,-0.732779][0.322228,0.632115,0][-0.6768,-0.133212,-0.551758][-0.42789,0.331968,-0.840659][0.270628,0.680471,0][-0.6768,-0.133212,-0.551758][-0.42789,0.331968,-0.840659][0.270628,0.680471,0][-0.9315,-0.132768,-0.297059][-0.666626,0.332331,-0.667207][0.206695,0.605383,0][-0.8618,0.107989,-0.246779][-0.580768,0.569439,-0.581762][0.26097,0.564085,0][-1.0131,0.108508,0.0501207][-0.731719,0.569914,-0.373879][0.212651,0.488317,0][-0.8618,0.107989,-0.246779][-0.580768,0.569439,-0.581762][0.26097,0.564085,0][-0.9315,-0.132768,-0.297059][-0.666626,0.332331,-0.667207][0.206695,0.605383,0][-0.9315,-0.132768,-0.297059][-0.666626,0.332331,-0.667207][0.206695,0.605383,0][-1.095,-0.132207,0.0239408][-0.840152,0.332454,-0.428509][0.152034,0.524444,0][-1.0131,0.108508,0.0501207][-0.731719,0.569914,-0.373879][0.212651,0.488317,0][-1.0652,0.109082,0.37932][-0.81111,0.570877,0.127281][0.272896,0.287153,0][-1.0131,0.108508,0.0501207][-0.731719,0.569914,-0.373879][0.251998,0.348969,0][-1.095,-0.132207,0.0239408][-0.840152,0.332454,-0.428509][0.198664,0.323148,0][-1.095,-0.132207,0.0239408][-0.840152,0.332454,-0.428509][0.198664,0.323148,0][-1.1514,-0.131586,0.37974][-0.931157,0.333768,0.146785][0.229191,0.256736,0][-1.0652,0.109082,0.37932][-0.81111,0.570877,0.127281][0.272896,0.287153,0][-1.11701,-0.394108,0.743152][-0.976383,0.151154,0.154364][0.236602,0.157775,0][-1.17449,-0.394742,0.3802][-0.976383,0.151154,0.154364][0.187683,0.223237,0][-1.1811,-0.437516,0.380274][-0.976383,0.151154,0.154364][0.180827,0.217491,0][-1.1811,-0.437516,0.380274][-0.976383,0.151154,0.154364][0.180827,0.217491,0][-1.1233,-0.436879,0.745274][-0.976371,0.151245,0.154351][0.231176,0.151757,0][-1.11701,-0.394108,0.743152][-0.976383,0.151154,0.154364][0.236602,0.157775,0][-0.950161,-0.393537,1.07053][-0.880744,0.151779,0.448612][0.295511,0.10327,0][-1.11701,-0.394108,0.743152][-0.976383,0.151154,0.154364][0.236602,0.157775,0][-1.1233,-0.436879,0.745274][-0.976371,0.151245,0.154351][0.231176,0.151757,0][-1.1233,-0.436879,0.745274][-0.976371,0.151245,0.154351][0.231176,0.151757,0][-0.9555,-0.436304,1.07447][-0.880779,0.151352,0.448688][0.291674,0.096418,0][-0.950161,-0.393537,1.07053][-0.880744,0.151779,0.448612][0.295511,0.10327,0][-0.690329,-0.393084,1.33036][-0.699051,0.151739,0.698787][0.365079,0.062236,0][-0.950161,-0.393537,1.07053][-0.880744,0.151779,0.448612][0.295511,0.10327,0][-0.9555,-0.436304,1.07447][-0.880779,0.151352,0.448688][0.291674,0.096418,0][-0.9555,-0.436304,1.07447][-0.880779,0.151352,0.448688][0.291674,0.096418,0][-0.6942,-0.435848,1.33577][-0.699051,0.151739,0.698787][0.362799,0.054846,0][-0.690329,-0.393084,1.33036][-0.699051,0.151739,0.698787][0.365079,0.062236,0][-0.362953,-0.392792,1.49721][-0.448906,0.152105,0.880538][0.441604,0.037185,0][-0.690329,-0.393084,1.33036][-0.699051,0.151739,0.698787][0.365079,0.062236,0][-0.6942,-0.435848,1.33577][-0.699051,0.151739,0.698787][0.362799,0.054846,0][-0.6942,-0.435848,1.33577][-0.699051,0.151739,0.698787][0.362799,0.054846,0][-0.365,-0.435555,1.50357][-0.448921,0.152531,0.880457][0.440805,0.029378,0][-0.362953,-0.392792,1.49721][-0.448906,0.152105,0.880538][0.441604,0.037185,0][0,-0.392692,1.55469][-0.154625,0.152679,0.976105][0.5231,0.027896,0][-0.362953,-0.392792,1.49721][-0.448906,0.152105,0.880538][0.441604,0.037185,0][-0.365,-0.435555,1.50357][-0.448921,0.152531,0.880457][0.440805,0.029378,0][-0.365,-0.435555,1.50357][-0.448921,0.152531,0.880457][0.440805,0.029378,0][0,-0.435454,1.56137][-0.154617,0.152591,0.97612][0.52329,0.01997,0][0,-0.392692,1.55469][-0.154625,0.152679,0.976105][0.5231,0.027896,0][0.362953,-0.392792,1.49721][0.154627,0.15259,0.976118][0.603784,0.036643,0][0,-0.392692,1.55469][-0.154625,0.152679,0.976105][0.5231,0.027896,0][0,-0.435454,1.56137][-0.154617,0.152591,0.97612][0.52329,0.01997,0][0,-0.435454,1.56137][-0.154617,0.152591,0.97612][0.52329,0.01997,0][0.365,-0.435555,1.50357][0.154615,0.152679,0.976106][0.604374,0.028863,0][0.362953,-0.392792,1.49721][0.154627,0.15259,0.976118][0.603784,0.036643,0][0.690329,-0.393084,1.33036][0.448876,0.152532,0.880479][0.680987,0.061855,0][0.362953,-0.392792,1.49721][0.154627,0.15259,0.976118][0.603784,0.036643,0][0.365,-0.435555,1.50357][0.154615,0.152679,0.976106][0.604374,0.028863,0][0.365,-0.435555,1.50357][0.154615,0.152679,0.976106][0.604374,0.028863,0][0.6942,-0.435848,1.33577][0.448951,0.152107,0.880515][0.683582,0.054446,0][0.690329,-0.393084,1.33036][0.448876,0.152532,0.880479][0.680987,0.061855,0][0.950161,-0.393537,1.07053][0.699051,0.151739,0.698787][0.751567,0.102378,0][0.690329,-0.393084,1.33036][0.448876,0.152532,0.880479][0.680987,0.061855,0][0.6942,-0.435848,1.33577][0.448951,0.152107,0.880515][0.683582,0.054446,0][0.6942,-0.435848,1.33577][0.448951,0.152107,0.880515][0.683582,0.054446,0][0.9555,-0.436304,1.07447][0.699051,0.151739,0.698787][0.755451,0.09566,0][0.950161,-0.393537,1.07053][0.699051,0.151739,0.698787][0.751567,0.102378,0][1.11701,-0.394108,0.743152][0.880802,0.151351,0.448643][0.810775,0.157019,0][0.950161,-0.393537,1.07053][0.699051,0.151739,0.698787][0.751567,0.102378,0][0.9555,-0.436304,1.07447][0.699051,0.151739,0.698787][0.755451,0.09566,0][0.9555,-0.436304,1.07447][0.699051,0.151739,0.698787][0.755451,0.09566,0][1.1233,-0.436879,0.745274][0.880721,0.151778,0.448657][0.816322,0.150899,0][1.11701,-0.394108,0.743152][0.880802,0.151351,0.448643][0.810775,0.157019,0][1.17449,-0.394742,0.3802][0.97637,0.151245,0.154361][0.859477,0.222309,0][1.11701,-0.394108,0.743152][0.880802,0.151351,0.448643][0.810775,0.157019,0][1.1233,-0.436879,0.745274][0.880721,0.151778,0.448657][0.816322,0.150899,0][1.1233,-0.436879,0.745274][0.880721,0.151778,0.448657][0.816322,0.150899,0][1.1811,-0.437516,0.380274][0.976385,0.151154,0.154353][0.866212,0.216629,0][1.17449,-0.394742,0.3802][0.97637,0.151245,0.154361][0.859477,0.222309,0][1.11701,-0.397328,0.0172505][0.97626,0.150594,-0.155683][0.896878,0.291082,0][1.17449,-0.394742,0.3802][0.97637,0.151245,0.154361][0.859477,0.222309,0][1.1811,-0.437516,0.380274][0.976385,0.151154,0.154353][0.866212,0.216629,0][1.1811,-0.437516,0.380274][0.976385,0.151154,0.154353][0.866212,0.216629,0][1.1233,-0.438153,0.0152748][0.975283,0.157753,-0.154718][0.904109,0.28624,0][1.11701,-0.397328,0.0172505][0.97626,0.150594,-0.155683][0.896878,0.291082,0][0.9555,-0.554819,-1.05648][0.890522,0.235412,-0.389298][0.718412,0.001807,0][0.950161,-0.533691,-1.05592][0.890522,0.235412,-0.389298][0.717452,0.005587,0][1.11701,-0.549599,-0.683872][0.890522,0.235412,-0.389298][0.789802,0.015347,0][1.11701,-0.549599,-0.683872][0.890522,0.235412,-0.389298][0.789802,0.015347,0][1.1233,-0.578061,-0.681432][0.903938,0.165983,-0.39414][0.791535,0.01041,0][0.9555,-0.554819,-1.05648][0.890522,0.235412,-0.389298][0.718412,0.001807,0][0.6942,-0.529061,-1.32199][0.714836,0.139417,-0.685254][0.65163,0,0][0.690329,-0.502998,-1.32072][0.714836,0.139417,-0.685254][0.650858,0.004656,0][0.950161,-0.533691,-1.05592][0.890522,0.235412,-0.389298][0.717452,0.005587,0][0.950161,-0.533691,-1.05592][0.890522,0.235412,-0.389298][0.717452,0.005587,0][0.9555,-0.554819,-1.05648][0.890522,0.235412,-0.389298][0.718412,0.001807,0][0.6942,-0.529061,-1.32199][0.714836,0.139417,-0.685254][0.65163,0,0][0.365,-0.492718,-1.49766][0.477858,0.0985282,-0.872894][0.584609,0.002632,0][0.362953,-0.465143,-1.49567][0.477859,0.0985282,-0.872894][0.584169,0.007572,0][0.690329,-0.502998,-1.32072][0.714836,0.139417,-0.685254][0.650858,0.004656,0][0.690329,-0.502998,-1.32072][0.714836,0.139417,-0.685254][0.650858,0.004656,0][0.6942,-0.529061,-1.32199][0.714836,0.139417,-0.685254][0.65163,0,0][0.365,-0.492718,-1.49766][0.477858,0.0985282,-0.872894][0.584609,0.002632,0][0,-0.470024,-1.55979][0.169565,0.161911,-0.972128][0.518281,0.004826,0][0,-0.449465,-1.55637][0.169565,0.161911,-0.972128][0.518281,0.008554,0][0.362953,-0.465143,-1.49567][0.477859,0.0985282,-0.872894][0.584169,0.007572,0][0.362953,-0.465143,-1.49567][0.477859,0.0985282,-0.872894][0.584169,0.007572,0][0.365,-0.492718,-1.49766][0.477858,0.0985282,-0.872894][0.584609,0.002632,0][0,-0.470024,-1.55979][0.169565,0.161911,-0.972128][0.518281,0.004826,0][-0.362953,-0.465143,-1.49567][-0.169565,0.161911,-0.972128][0.452392,0.007572,0][0,-0.449465,-1.55637][0.169565,0.161911,-0.972128][0.518281,0.008554,0][0,-0.470024,-1.55979][0.169565,0.161911,-0.972128][0.518281,0.004826,0][0,-0.470024,-1.55979][0.169565,0.161911,-0.972128][0.518281,0.004826,0][-0.365,-0.492718,-1.49766][-0.172271,0.0836872,-0.981488][0.451952,0.002632,0][-0.362953,-0.465143,-1.49567][-0.169565,0.161911,-0.972128][0.452392,0.007572,0][-0.690329,-0.502998,-1.32072][-0.477859,0.0985282,-0.872894][0.385704,0.004656,0][-0.362953,-0.465143,-1.49567][-0.169565,0.161911,-0.972128][0.452392,0.007572,0][-0.365,-0.492718,-1.49766][-0.172271,0.0836872,-0.981488][0.451952,0.002632,0][-0.365,-0.492718,-1.49766][-0.172271,0.0836872,-0.981488][0.451952,0.002632,0][-0.6942,-0.529061,-1.32199][-0.47747,0.113191,-0.871327][0.384931,0,0][-0.690329,-0.502998,-1.32072][-0.477859,0.0985282,-0.872894][0.385704,0.004656,0][-0.950161,-0.533691,-1.05592][-0.714836,0.139417,-0.685254][0.31911,0.005587,0][-0.690329,-0.502998,-1.32072][-0.477859,0.0985282,-0.872894][0.385704,0.004656,0][-0.6942,-0.529061,-1.32199][-0.47747,0.113191,-0.871327][0.384931,0,0][-0.6942,-0.529061,-1.32199][-0.47747,0.113191,-0.871327][0.384931,0,0][-0.9555,-0.554819,-1.05648][-0.708245,0.197045,-0.677911][0.31815,0.001807,0][-0.950161,-0.533691,-1.05592][-0.714836,0.139417,-0.685254][0.31911,0.005587,0][-0.9555,-0.554819,-1.05648][-0.708245,0.197045,-0.677911][0.31815,0.001807,0][-1.1233,-0.578061,-0.681432][-0.903938,0.165983,-0.39414][0.245029,0.01041,0][-1.11701,-0.549599,-0.683872][-0.903938,0.165983,-0.39414][0.246762,0.015347,0][-1.11701,-0.549599,-0.683872][-0.903938,0.165983,-0.39414][0.246762,0.015347,0][-0.950161,-0.533691,-1.05592][-0.714836,0.139417,-0.685254][0.31911,0.005587,0][-0.9555,-0.554819,-1.05648][-0.708245,0.197045,-0.677911][0.31815,0.001807,0][-1.17449,-0.394742,0.3802][-0.976383,0.151154,0.154364][0.187683,0.223237,0][-1.11701,-0.397328,0.0172505][-0.975146,0.157772,-0.155558][0.149107,0.291732,0][-1.1233,-0.438153,0.0152748][-0.975146,0.157772,-0.155558][0.141778,0.286958,0][-1.1233,-0.438153,0.0152748][-0.975146,0.157772,-0.155558][0.141778,0.286958,0][-1.1811,-0.437516,0.380274][-0.976383,0.151154,0.154364][0.180827,0.217491,0][-1.17449,-0.394742,0.3802][-0.976383,0.151154,0.154364][0.187683,0.223237,0][-0.5461,0.493012,0.55615][-0.349739,0.935294,0.0539316][0.412445,0.309015,0][-0.374047,0.523375,0.500174][-0.0319132,0.999485,0.00332589][0.445275,0.326938,0][-0.393363,0.523163,0.378597][-0.0319132,0.999485,0.00332589][0.436823,0.350063,0][-0.393363,0.523163,0.378597][-0.0319132,0.999485,0.00332589][0.436823,0.350063,0][-0.5743,0.492703,0.378651][-0.349739,0.935294,0.0539316][0.398649,0.341629,0][-0.5461,0.493012,0.55615][-0.349739,0.935294,0.0539316][0.412445,0.309015,0][-0.4646,0.493292,0.71615][-0.315447,0.93552,0.159048][0.433206,0.281465,0][-0.318224,0.523566,0.609765][-0.028794,0.999502,0.0129225][0.459486,0.307282,0][-0.374047,0.523375,0.500174][-0.0319132,0.999485,0.00332589][0.445275,0.326938,0][-0.374047,0.523375,0.500174][-0.0319132,0.999485,0.00332589][0.445275,0.326938,0][-0.5461,0.493012,0.55615][-0.349739,0.935294,0.0539316][0.412445,0.309015,0][-0.4646,0.493292,0.71615][-0.315447,0.93552,0.159048][0.433206,0.281465,0][-0.3375,0.493514,0.84325][-0.250305,0.935687,0.248672][0.45922,0.261585,0][-0.231168,0.523718,0.696821][-0.02285,0.999516,0.021105][0.477815,0.292333,0][-0.318224,0.523566,0.609765][-0.028794,0.999502,0.0129225][0.459486,0.307282,0][-0.318224,0.523566,0.609765][-0.028794,0.999502,0.0129225][0.459486,0.307282,0][-0.4646,0.493292,0.71615][-0.315447,0.93552,0.159048][0.433206,0.281465,0][-0.3375,0.493514,0.84325][-0.250305,0.935687,0.248672][0.45922,0.261585,0][-0.1775,0.493656,0.92475][-0.160686,0.935785,0.313825][0.489493,0.248964,0][-0.121577,0.523815,0.752644][-0.0146667,0.999527,0.0270496][0.499042,0.282768,0][-0.231168,0.523718,0.696821][-0.02285,0.999516,0.021105][0.477815,0.292333,0][-0.231168,0.523718,0.696821][-0.02285,0.999516,0.021105][0.477815,0.292333,0][-0.3375,0.493514,0.84325][-0.250305,0.935687,0.248672][0.45922,0.261585,0][-0.1775,0.493656,0.92475][-0.160686,0.935785,0.313825][0.489493,0.248964,0][0,0.493705,0.95295][-0.0555384,0.935869,0.347945][0.521515,0.244897,0][0,0.523849,0.77196][-0.0050705,0.999532,0.0301686][0.521798,0.27965,0][-0.121577,0.523815,0.752644][-0.0146667,0.999527,0.0270496][0.499042,0.282768,0][-0.121577,0.523815,0.752644][-0.0146667,0.999527,0.0270496][0.499042,0.282768,0][-0.1775,0.493656,0.92475][-0.160686,0.935785,0.313825][0.489493,0.248964,0][0,0.493705,0.95295][-0.0555384,0.935869,0.347945][0.521515,0.244897,0][0.1775,0.493656,0.92475][0.055564,0.935807,0.348106][0.554027,0.248945,0][0.121577,0.523815,0.752644][0.0050705,0.999532,0.0301686][0.544932,0.28264,0][0,0.523849,0.77196][-0.0050705,0.999532,0.0301686][0.521798,0.27965,0][0,0.523849,0.77196][-0.0050705,0.999532,0.0301686][0.521798,0.27965,0][0,0.493705,0.95295][-0.0555384,0.935869,0.347945][0.521515,0.244897,0][0.1775,0.493656,0.92475][0.055564,0.935807,0.348106][0.554027,0.248945,0][0.3375,0.493514,0.84325][0.16068,0.93579,0.313814][0.584147,0.261729,0][0.231168,0.523718,0.696821][0.0146667,0.999527,0.0270496][0.566117,0.292388,0][0.121577,0.523815,0.752644][0.0050705,0.999532,0.0301686][0.544932,0.28264,0][0.121577,0.523815,0.752644][0.0050705,0.999532,0.0301686][0.544932,0.28264,0][0.1775,0.493656,0.92475][0.055564,0.935807,0.348106][0.554027,0.248945,0][0.3375,0.493514,0.84325][0.16068,0.93579,0.313814][0.584147,0.261729,0][0.4646,0.493292,0.71615][0.250305,0.935687,0.248672][0.610647,0.281601,0][0.318224,0.523566,0.609765][0.02285,0.999516,0.021105][0.584959,0.307011,0][0.231168,0.523718,0.696821][0.0146667,0.999527,0.0270496][0.566117,0.292388,0][0.231168,0.523718,0.696821][0.0146667,0.999527,0.0270496][0.566117,0.292388,0][0.3375,0.493514,0.84325][0.16068,0.93579,0.313814][0.584147,0.261729,0][0.4646,0.493292,0.71615][0.250305,0.935687,0.248672][0.610647,0.281601,0][0.5461,0.493012,0.55615][0.315458,0.935515,0.159054][0.63174,0.30893,0][0.374047,0.523375,0.500174][0.028794,0.999502,0.0129225][0.599203,0.326852,0][0.318224,0.523566,0.609765][0.02285,0.999516,0.021105][0.584959,0.307011,0][0.318224,0.523566,0.609765][0.02285,0.999516,0.021105][0.584959,0.307011,0][0.4646,0.493292,0.71615][0.250305,0.935687,0.248672][0.610647,0.281601,0][0.5461,0.493012,0.55615][0.315458,0.935515,0.159054][0.63174,0.30893,0][0.5743,0.492703,0.378651][0.349578,0.935355,0.053906][0.64633,0.341655,0][0.393363,0.523163,0.378597][0.0319132,0.999485,0.00332589][0.607987,0.350077,0][0.374047,0.523375,0.500174][0.028794,0.999502,0.0129225][0.599203,0.326852,0][0.374047,0.523375,0.500174][0.028794,0.999502,0.0129225][0.599203,0.326852,0][0.5461,0.493012,0.55615][0.315458,0.935515,0.159054][0.63174,0.30893,0][0.5743,0.492703,0.378651][0.349578,0.935355,0.053906][0.64633,0.341655,0][0.5461,0.492393,0.201151][0.349739,0.9351,-0.0571963][0.649504,0.376928,0][0.374047,0.52295,0.257021][0.0319132,0.999467,-0.00681474][0.607862,0.37406,0][0.393363,0.523163,0.378597][0.0319132,0.999485,0.00332589][0.607987,0.350077,0][0.393363,0.523163,0.378597][0.0319132,0.999485,0.00332589][0.607987,0.350077,0][0.5743,0.492703,0.378651][0.349578,0.935355,0.053906][0.64633,0.341655,0][0.5461,0.492393,0.201151][0.349739,0.9351,-0.0571963][0.649504,0.376928,0][0.4646,0.492114,0.0411511][0.315446,0.934959,-0.162313][0.650165,0.460973,0][0.318224,0.522759,0.14743][0.028794,0.999451,-0.0164113][0.610548,0.43135,0][0.374047,0.52295,0.257021][0.0319132,0.999467,-0.00681474][0.626465,0.401858,0][0.374047,0.52295,0.257021][0.0319132,0.999467,-0.00681474][0.626465,0.401858,0][0.5461,0.492393,0.201151][0.349739,0.9351,-0.0571963][0.673835,0.418458,0][0.4646,0.492114,0.0411511][0.315446,0.934959,-0.162313][0.650165,0.460973,0][0.3375,0.491892,-0.0859487][0.250305,0.934813,-0.251936][0.614339,0.49572,0][0.231168,0.522607,0.0603739][0.0228498,0.999436,-0.0245941][0.586396,0.454768,0][0.318224,0.522759,0.14743][0.028794,0.999451,-0.0164113][0.610548,0.43135,0][0.318224,0.522759,0.14743][0.028794,0.999451,-0.0164113][0.610548,0.43135,0][0.4646,0.492114,0.0411511][0.315446,0.934959,-0.162313][0.650165,0.460973,0][0.3375,0.491892,-0.0859487][0.250305,0.934813,-0.251936][0.614339,0.49572,0][0.1775,0.491749,-0.167449][0.160687,0.934684,-0.31709][0.571221,0.517674,0][0.121577,0.52251,0.00455103][0.0146668,0.999426,-0.0305385][0.556628,0.469789,0][0.231168,0.522607,0.0603739][0.0228498,0.999436,-0.0245941][0.586396,0.454768,0][0.231168,0.522607,0.0603739][0.0228498,0.999436,-0.0245941][0.586396,0.454768,0][0.3375,0.491892,-0.0859487][0.250305,0.934813,-0.251936][0.614339,0.49572,0][0.1775,0.491749,-0.167449][0.160687,0.934684,-0.31709][0.571221,0.517674,0][0,0.4917,-0.195649][0.0555385,0.934648,-0.35121][0.523517,0.525236,0][0,0.522476,-0.0147649][0.00507015,0.999421,-0.0336577][0.523714,0.47493,0][0.121577,0.52251,0.00455103][0.0146668,0.999426,-0.0305385][0.556628,0.469789,0][0.121577,0.52251,0.00455103][0.0146668,0.999426,-0.0305385][0.556628,0.469789,0][0.1775,0.491749,-0.167449][0.160687,0.934684,-0.31709][0.571221,0.517674,0][0,0.4917,-0.195649][0.0555385,0.934648,-0.35121][0.523517,0.525236,0][-0.1775,0.491749,-0.167449][-0.0555641,0.934586,-0.351371][0.475781,0.517253,0][-0.121577,0.52251,0.00455103][-0.00507015,0.999421,-0.0336577][0.490994,0.469592,0][0,0.522476,-0.0147649][0.00507015,0.999421,-0.0336577][0.523714,0.47493,0][0,0.522476,-0.0147649][0.00507015,0.999421,-0.0336577][0.523714,0.47493,0][0,0.4917,-0.195649][0.0555385,0.934648,-0.35121][0.523517,0.525236,0][-0.1775,0.491749,-0.167449][-0.0555641,0.934586,-0.351371][0.475781,0.517253,0][-0.3375,0.491892,-0.0859487][-0.160681,0.934689,-0.317078][0.432658,0.495053,0][-0.231168,0.522607,0.0603739][-0.0146668,0.999426,-0.0305385][0.461089,0.454309,0][-0.121577,0.52251,0.00455103][-0.00507015,0.999421,-0.0336577][0.490994,0.469592,0][-0.121577,0.52251,0.00455103][-0.00507015,0.999421,-0.0336577][0.490994,0.469592,0][-0.1775,0.491749,-0.167449][-0.0555641,0.934586,-0.351371][0.475781,0.517253,0][-0.3375,0.491892,-0.0859487][-0.160681,0.934689,-0.317078][0.432658,0.495053,0][-0.4646,0.492114,0.0411511][-0.250305,0.934813,-0.251937][0.397417,0.460262,0][-0.318224,0.522759,0.14743][-0.0228498,0.999436,-0.0245941][0.437103,0.430721,0][-0.231168,0.522607,0.0603739][-0.0146668,0.999426,-0.0305385][0.461089,0.454309,0][-0.231168,0.522607,0.0603739][-0.0146668,0.999426,-0.0305385][0.461089,0.454309,0][-0.3375,0.491892,-0.0859487][-0.160681,0.934689,-0.317078][0.432658,0.495053,0][-0.4646,0.492114,0.0411511][-0.250305,0.934813,-0.251937][0.397417,0.460262,0][-0.5461,0.492393,0.201151][-0.315458,0.934954,-0.162319][0.374245,0.417583,0][-0.374047,0.52295,0.257021][-0.028794,0.999451,-0.0164113][0.421747,0.401266,0][-0.318224,0.522759,0.14743][-0.0228498,0.999436,-0.0245941][0.437103,0.430721,0][-0.318224,0.522759,0.14743][-0.0228498,0.999436,-0.0245941][0.437103,0.430721,0][-0.4646,0.492114,0.0411511][-0.250305,0.934813,-0.251937][0.397417,0.460262,0][-0.5461,0.492393,0.201151][-0.315458,0.934954,-0.162319][0.374245,0.417583,0][-0.5743,0.492703,0.378651][-0.349739,0.935294,0.0539316][0.398649,0.341629,0][-0.393363,0.523163,0.378597][-0.0319132,0.999485,0.00332589][0.436823,0.350063,0][-0.374047,0.52295,0.257021][-0.028794,0.999451,-0.0164113][0.437889,0.374031,0][-0.374047,0.52295,0.257021][-0.028794,0.999451,-0.0164113][0.437889,0.374031,0][-0.5461,0.492393,0.201151][-0.315458,0.934954,-0.162319][0.396263,0.376928,0][-0.5743,0.492703,0.378651][-0.349739,0.935294,0.0539316][0.398649,0.341629,0][-0.9315,-0.132768,-0.297059][-0.666626,0.332331,-0.667207][0.206695,0.605383,0][-0.6768,-0.133212,-0.551758][-0.42789,0.331968,-0.840659][0.270628,0.680471,0][-0.690329,-0.29216,-0.570142][-0.699963,0.140563,-0.70021][0.237169,0.709273,0][-0.690329,-0.29216,-0.570142][-0.699963,0.140563,-0.70021][0.237169,0.709273,0][-0.950161,-0.3437,-0.31022][-0.713684,0.106337,-0.69235][0.161169,0.639678,0][-0.9315,-0.132768,-0.297059][-0.666626,0.332331,-0.667207][0.206695,0.605383,0][-0.6768,-0.133212,-0.551758][-0.42789,0.331968,-0.840659][0.754101,0.770232,0][-0.3558,-0.133498,-0.715258][-0.147614,0.331586,-0.931805][0.639201,0.744711,0][-0.362953,-0.227631,-0.737104][-0.441035,0.234558,-0.866297][0.642616,0.713476,0][-0.362953,-0.227631,-0.737104][-0.441035,0.234558,-0.866297][0.642616,0.713476,0][-0.690329,-0.29216,-0.570142][-0.699963,0.140563,-0.70021][0.764364,0.718817,0][-0.6768,-0.133212,-0.551758][-0.42789,0.331968,-0.840659][0.754101,0.770232,0][-0.3558,-0.133498,-0.715258][-0.147614,0.331586,-0.931805][0.639201,0.744711,0][0,-0.133596,-0.771658][0.147598,0.331874,-0.931705][0.520795,0.734982,0][0,-0.20273,-0.794627][-0.148672,0.311792,-0.938447][0.521082,0.711173,0][0,-0.20273,-0.794627][-0.148672,0.311792,-0.938447][0.521082,0.711173,0][-0.362953,-0.227631,-0.737104][-0.441035,0.234558,-0.866297][0.642616,0.713476,0][-0.3558,-0.133498,-0.715258][-0.147614,0.331586,-0.931805][0.639201,0.744711,0][0,-0.20273,-0.794627][-0.148672,0.311792,-0.938447][0.521082,0.711173,0][0,-0.133596,-0.771658][0.147598,0.331874,-0.931705][0.520795,0.734982,0][0.3558,-0.133498,-0.715258][0.427928,0.331734,-0.840732][0.402488,0.743952,0][0.3558,-0.133498,-0.715258][0.427928,0.331734,-0.840732][0.402488,0.743952,0][0.362953,-0.227631,-0.737104][0.167855,0.234943,-0.957406][0.399305,0.712598,0][0,-0.20273,-0.794627][-0.148672,0.311792,-0.938447][0.521082,0.711173,0][0.362953,-0.227631,-0.737104][0.167855,0.234943,-0.957406][0.399305,0.712598,0][0.3558,-0.133498,-0.715258][0.427928,0.331734,-0.840732][0.402488,0.743952,0][0.6768,-0.133212,-0.551758][0.666626,0.33233,-0.667207][0.287035,0.768906,0][0.6768,-0.133212,-0.551758][0.666626,0.33233,-0.667207][0.287035,0.768906,0][0.690329,-0.29216,-0.570142][0.471687,0.140823,-0.870449][0.277129,0.71713,0][0.362953,-0.227631,-0.737104][0.167855,0.234943,-0.957406][0.399305,0.712598,0][0.690329,-0.29216,-0.570142][0.471687,0.140823,-0.870449][0.807446,0.709273,0][0.6768,-0.133212,-0.551758][0.666626,0.33233,-0.667207][0.774391,0.680552,0][0.9315,-0.132768,-0.297059][0.840078,0.332688,-0.428472][0.837894,0.607079,0][0.9315,-0.132768,-0.297059][0.840078,0.332688,-0.428472][0.837894,0.607079,0][0.950161,-0.3437,-0.31022][0.713684,0.106337,-0.69235][0.883885,0.641709,0][0.690329,-0.29216,-0.570142][0.471687,0.140823,-0.870449][0.807446,0.709273,0][0.950161,-0.3437,-0.31022][0.713684,0.106337,-0.69235][0.883885,0.641709,0][0.9315,-0.132768,-0.297059][0.840078,0.332688,-0.428472][0.837894,0.607079,0][1.095,-0.132207,0.0239408][0.931225,0.332954,-0.148195][0.894541,0.526616,0][1.095,-0.132207,0.0239408][0.931225,0.332954,-0.148195][0.894541,0.526616,0][1.11701,-0.397328,0.0172505][0.97626,0.150594,-0.155683][0.953382,0.568325,0][0.950161,-0.3437,-0.31022][0.713684,0.106337,-0.69235][0.883885,0.641709,0][1.095,-0.132207,0.0239408][0.931225,0.332954,-0.148195][0.847568,0.323077,0][1.1514,-0.131586,0.37974][0.931125,0.333756,0.147016][0.816718,0.25631,0][1.17449,-0.394742,0.3802][0.97637,0.151245,0.154361][0.859477,0.222309,0][1.17449,-0.394742,0.3802][0.97637,0.151245,0.154361][0.859477,0.222309,0][1.11701,-0.397328,0.0172505][0.97626,0.150594,-0.155683][0.896878,0.291082,0][1.095,-0.132207,0.0239408][0.931225,0.332954,-0.148195][0.847568,0.323077,0][1.1514,-0.131586,0.37974][0.931125,0.333756,0.147016][0.816718,0.25631,0][1.095,-0.130965,0.73554][0.840151,0.333948,0.427346][0.775036,0.195799,0][1.11701,-0.394108,0.743152][0.880802,0.151351,0.448643][0.810775,0.157019,0][1.11701,-0.394108,0.743152][0.880802,0.151351,0.448643][0.810775,0.157019,0][1.17449,-0.394742,0.3802][0.97637,0.151245,0.154361][0.859477,0.222309,0][1.1514,-0.131586,0.37974][0.931125,0.333756,0.147016][0.816718,0.25631,0][1.095,-0.130965,0.73554][0.840151,0.333948,0.427346][0.775036,0.195799,0][0.9315,-0.130405,1.05654][0.666626,0.334658,0.666043][0.722388,0.146466,0][0.950161,-0.393537,1.07053][0.699051,0.151739,0.698787][0.751567,0.102378,0][0.950161,-0.393537,1.07053][0.699051,0.151739,0.698787][0.751567,0.102378,0][1.11701,-0.394108,0.743152][0.880802,0.151351,0.448643][0.810775,0.157019,0][1.095,-0.130965,0.73554][0.840151,0.333948,0.427346][0.775036,0.195799,0][0.9315,-0.130405,1.05654][0.666626,0.334658,0.666043][0.722388,0.146466,0][0.6768,-0.129961,1.31124][0.42789,0.334901,0.839495][0.661099,0.109414,0][0.690329,-0.393084,1.33036][0.448876,0.152532,0.880479][0.680987,0.061855,0][0.690329,-0.393084,1.33036][0.448876,0.152532,0.880479][0.680987,0.061855,0][0.950161,-0.393537,1.07053][0.699051,0.151739,0.698787][0.751567,0.102378,0][0.9315,-0.130405,1.05654][0.666626,0.334658,0.666043][0.722388,0.146466,0][0.6768,-0.129961,1.31124][0.42789,0.334901,0.839495][0.661099,0.109414,0][0.3558,-0.129675,1.47474][0.147614,0.334837,0.930642][0.593272,0.086017,0][0.362953,-0.392792,1.49721][0.154627,0.15259,0.976118][0.603784,0.036643,0][0.362953,-0.392792,1.49721][0.154627,0.15259,0.976118][0.603784,0.036643,0][0.690329,-0.393084,1.33036][0.448876,0.152532,0.880479][0.680987,0.061855,0][0.6768,-0.129961,1.31124][0.42789,0.334901,0.839495][0.661099,0.109414,0][0.3558,-0.129675,1.47474][0.147614,0.334837,0.930642][0.593272,0.086017,0][0,-0.129577,1.53114][-0.147598,0.335124,0.930541][0.522315,0.078802,0][0,-0.392692,1.55469][-0.154625,0.152679,0.976105][0.5231,0.027896,0][0,-0.392692,1.55469][-0.154625,0.152679,0.976105][0.5231,0.027896,0][0.362953,-0.392792,1.49721][0.154627,0.15259,0.976118][0.603784,0.036643,0][0.3558,-0.129675,1.47474][0.147614,0.334837,0.930642][0.593272,0.086017,0][0,-0.129577,1.53114][-0.147598,0.335124,0.930541][0.522315,0.078802,0][-0.3558,-0.129675,1.47474][-0.427928,0.334667,0.839569][0.451165,0.086033,0][-0.362953,-0.392792,1.49721][-0.448906,0.152105,0.880538][0.441604,0.037185,0][-0.362953,-0.392792,1.49721][-0.448906,0.152105,0.880538][0.441604,0.037185,0][0,-0.392692,1.55469][-0.154625,0.152679,0.976105][0.5231,0.027896,0][0,-0.129577,1.53114][-0.147598,0.335124,0.930541][0.522315,0.078802,0][-0.3558,-0.129675,1.47474][-0.427928,0.334667,0.839569][0.451165,0.086033,0][-0.6768,-0.129961,1.31124][-0.666626,0.334657,0.666043][0.38359,0.109324,0][-0.690329,-0.393084,1.33036][-0.699051,0.151739,0.698787][0.365079,0.062236,0][-0.690329,-0.393084,1.33036][-0.699051,0.151739,0.698787][0.365079,0.062236,0][-0.362953,-0.392792,1.49721][-0.448906,0.152105,0.880538][0.441604,0.037185,0][-0.3558,-0.129675,1.47474][-0.427928,0.334667,0.839569][0.451165,0.086033,0][-0.6768,-0.129961,1.31124][-0.666626,0.334657,0.666043][0.38359,0.109324,0][-0.9315,-0.130405,1.05654][-0.840078,0.334181,0.427308][0.322454,0.146574,0][-0.950161,-0.393537,1.07053][-0.880744,0.151779,0.448612][0.295511,0.10327,0][-0.950161,-0.393537,1.07053][-0.880744,0.151779,0.448612][0.295511,0.10327,0][-0.690329,-0.393084,1.33036][-0.699051,0.151739,0.698787][0.365079,0.062236,0][-0.6768,-0.129961,1.31124][-0.666626,0.334657,0.666043][0.38359,0.109324,0][-0.9315,-0.130405,1.05654][-0.840078,0.334181,0.427308][0.322454,0.146574,0][-1.095,-0.130965,0.73554][-0.931225,0.333469,0.147032][0.270597,0.196039,0][-1.11701,-0.394108,0.743152][-0.976383,0.151154,0.154364][0.236602,0.157775,0][-1.11701,-0.394108,0.743152][-0.976383,0.151154,0.154364][0.236602,0.157775,0][-0.950161,-0.393537,1.07053][-0.880744,0.151779,0.448612][0.295511,0.10327,0][-0.9315,-0.130405,1.05654][-0.840078,0.334181,0.427308][0.322454,0.146574,0][-1.095,-0.130965,0.73554][-0.931225,0.333469,0.147032][0.270597,0.196039,0][-1.1514,-0.131586,0.37974][-0.931157,0.333768,0.146785][0.229191,0.256736,0][-1.17449,-0.394742,0.3802][-0.976383,0.151154,0.154364][0.187683,0.223237,0][-1.17449,-0.394742,0.3802][-0.976383,0.151154,0.154364][0.187683,0.223237,0][-1.11701,-0.394108,0.743152][-0.976383,0.151154,0.154364][0.236602,0.157775,0][-1.095,-0.130965,0.73554][-0.931225,0.333469,0.147032][0.270597,0.196039,0][-1.1514,-0.131586,0.37974][-0.931157,0.333768,0.146785][0.229191,0.256736,0][-1.095,-0.132207,0.0239408][-0.840152,0.332454,-0.428509][0.198664,0.323148,0][-1.11701,-0.397328,0.0172505][-0.975146,0.157772,-0.155558][0.149107,0.291732,0][-1.11701,-0.397328,0.0172505][-0.975146,0.157772,-0.155558][0.149107,0.291732,0][-1.17449,-0.394742,0.3802][-0.976383,0.151154,0.154364][0.187683,0.223237,0][-1.1514,-0.131586,0.37974][-0.931157,0.333768,0.146785][0.229191,0.256736,0][-1.095,-0.132207,0.0239408][-0.840152,0.332454,-0.428509][0.152034,0.524444,0][-0.9315,-0.132768,-0.297059][-0.666626,0.332331,-0.667207][0.206695,0.605383,0][-0.950161,-0.3437,-0.31022][-0.713684,0.106337,-0.69235][0.161169,0.639678,0][-0.950161,-0.3437,-0.31022][-0.713684,0.106337,-0.69235][0.161169,0.639678,0][-1.11701,-0.397328,0.0172505][-0.975146,0.157772,-0.155558][0.092186,0.565216,0][-1.095,-0.132207,0.0239408][-0.840152,0.332454,-0.428509][0.152034,0.524444,0][1.11701,-0.549599,-0.683872][0.890522,0.235412,-0.389298][0.789802,0.015347,0][1.11701,-0.397328,0.0172505][0.97626,0.150594,-0.155683][0.904646,0.072675,0][1.1233,-0.438153,0.0152748][0.975283,0.157753,-0.154718][0.906144,0.065429,0][1.1233,-0.438153,0.0152748][0.975283,0.157753,-0.154718][0.906144,0.065429,0][1.1233,-0.578061,-0.681432][0.903938,0.165983,-0.39414][0.791535,0.01041,0][1.11701,-0.549599,-0.683872][0.890522,0.235412,-0.389298][0.789802,0.015347,0][1.1233,-0.578061,-0.681432][0.903938,0.165983,-0.39414][0.012802,0.445728,0][1.1233,-0.438153,0.0152748][0.975283,0.157753,-0.154718][0.015702,0.402548,0][0.9555,-0.404047,-0.313985][-0.505333,-0.846034,0.169895][0.025934,0.422459,0][0.9555,-0.404047,-0.313985][-0.505333,-0.846034,0.169895][0.025934,0.422459,0][0.9555,-0.554819,-1.05648][0.890522,0.235412,-0.389298][0.023141,0.468899,0][1.1233,-0.578061,-0.681432][0.903938,0.165983,-0.39414][0.012802,0.445728,0][1.11701,-0.549599,-0.683872][0.890522,0.235412,-0.389298][0.884328,0.991383,0][0.950161,-0.533691,-1.05592][0.890522,0.235412,-0.389298][0.83568,0.963113,0][0.950161,-0.3437,-0.31022][0.713684,0.106337,-0.69235][0.941768,0.965107,0][0.950161,-0.3437,-0.31022][0.713684,0.106337,-0.69235][0.941768,0.965107,0][1.11701,-0.397328,0.0172505][0.97626,0.150594,-0.155683][0.983182,0.995236,0][1.11701,-0.549599,-0.683872][0.890522,0.235412,-0.389298][0.884328,0.991383,0][0.9555,-0.554819,-1.05648][0.890522,0.235412,-0.389298][0.023141,0.468899,0][0.9555,-0.404047,-0.313985][-0.505333,-0.846034,0.169895][0.025934,0.422459,0][0.6942,-0.337632,-0.575402][-0.408979,-0.894292,0.181596][0.041467,0.438701,0][0.6942,-0.337632,-0.575402][-0.408979,-0.894292,0.181596][0.041467,0.438701,0][0.6942,-0.529061,-1.32199][0.714836,0.139417,-0.685254][0.039383,0.485746,0][0.9555,-0.554819,-1.05648][0.890522,0.235412,-0.389298][0.023141,0.468899,0][0.950161,-0.533691,-1.05592][0.890522,0.235412,-0.389298][0.83568,0.963113,0][0.690329,-0.502998,-1.32072][0.714836,0.139417,-0.685254][0.802038,0.924346,0][0.690329,-0.29216,-0.570142][0.471687,0.140823,-0.870449][0.909536,0.925363,0][0.690329,-0.29216,-0.570142][0.471687,0.140823,-0.870449][0.909536,0.925363,0][0.950161,-0.3437,-0.31022][0.713684,0.106337,-0.69235][0.941768,0.965107,0][0.950161,-0.533691,-1.05592][0.890522,0.235412,-0.389298][0.83568,0.963113,0][0.6942,-0.529061,-1.32199][0.714836,0.139417,-0.685254][0.039383,0.485746,0][0.6942,-0.337632,-0.575402][-0.408979,-0.894292,0.181596][0.041467,0.438701,0][0.365,-0.254561,-0.743347][-0.347952,-0.908135,0.232851][0.061903,0.448928,0][0.365,-0.254561,-0.743347][-0.347952,-0.908135,0.232851][0.061903,0.448928,0][0.365,-0.492718,-1.49766][0.477858,0.0985282,-0.872894][0.060525,0.497111,0][0.6942,-0.529061,-1.32199][0.714836,0.139417,-0.685254][0.039383,0.485746,0][0.690329,-0.502998,-1.32072][0.714836,0.139417,-0.685254][0.802038,0.924346,0][0.362953,-0.465143,-1.49567][0.477859,0.0985282,-0.872894][0.780623,0.877567,0][0.362953,-0.227631,-0.737104][0.167855,0.234943,-0.957406][0.890227,0.877676,0][0.362953,-0.227631,-0.737104][0.167855,0.234943,-0.957406][0.890227,0.877676,0][0.690329,-0.29216,-0.570142][0.471687,0.140823,-0.870449][0.909536,0.925363,0][0.690329,-0.502998,-1.32072][0.714836,0.139417,-0.685254][0.802038,0.924346,0][0.365,-0.492718,-1.49766][0.477858,0.0985282,-0.872894][0.060525,0.497111,0][0.365,-0.254561,-0.743347][-0.347952,-0.908135,0.232851][0.061903,0.448928,0][0,-0.222509,-0.801203][-0.130341,-0.945465,0.298508][0.084008,0.452822,0][0,-0.222509,-0.801203][-0.130341,-0.945465,0.298508][0.084008,0.452822,0][0,-0.470024,-1.55979][0.169565,0.161911,-0.972128][0.083458,0.501622,0][0.365,-0.492718,-1.49766][0.477858,0.0985282,-0.872894][0.060525,0.497111,0][0.362953,-0.465143,-1.49567][0.477859,0.0985282,-0.872894][0.780623,0.877567,0][0,-0.449465,-1.55637][0.169565,0.161911,-0.972128][0.773326,0.827306,0][0,-0.20273,-0.794627][-0.148672,0.311792,-0.938447][0.883734,0.827305,0][0,-0.20273,-0.794627][-0.148672,0.311792,-0.938447][0.883734,0.827305,0][0.362953,-0.227631,-0.737104][0.167855,0.234943,-0.957406][0.890227,0.877676,0][0.362953,-0.465143,-1.49567][0.477859,0.0985282,-0.872894][0.780623,0.877567,0][-0.365,-0.492718,-1.49766][-0.172271,0.0836872,-0.981488][0.106644,0.497983,0][0,-0.470024,-1.55979][0.169565,0.161911,-0.972128][0.083458,0.501622,0][0,-0.222509,-0.801203][-0.130341,-0.945465,0.298508][0.084008,0.452822,0][0,-0.222509,-0.801203][-0.130341,-0.945465,0.298508][0.084008,0.452822,0][-0.365,-0.254561,-0.743347][0.130341,-0.945465,0.298508][0.106333,0.449703,0][-0.365,-0.492718,-1.49766][-0.172271,0.0836872,-0.981488][0.106644,0.497983,0][-0.362953,-0.465143,-1.49567][-0.169565,0.161911,-0.972128][0.780624,0.777044,0][-0.362953,-0.227631,-0.737104][-0.441035,0.234558,-0.866297][0.890225,0.776935,0][0,-0.20273,-0.794627][-0.148672,0.311792,-0.938447][0.883734,0.827305,0][0,-0.20273,-0.794627][-0.148672,0.311792,-0.938447][0.883734,0.827305,0][0,-0.449465,-1.55637][0.169565,0.161911,-0.972128][0.773326,0.827306,0][-0.362953,-0.465143,-1.49567][-0.169565,0.161911,-0.972128][0.780624,0.777044,0][-0.6942,-0.529061,-1.32199][-0.47747,0.113191,-0.871327][0.128028,0.487227,0][-0.365,-0.492718,-1.49766][-0.172271,0.0836872,-0.981488][0.106644,0.497983,0][-0.365,-0.254561,-0.743347][0.130341,-0.945465,0.298508][0.106333,0.449703,0][-0.365,-0.254561,-0.743347][0.130341,-0.945465,0.298508][0.106333,0.449703,0][-0.6942,-0.337632,-0.575402][0.347952,-0.908135,0.232851][0.127327,0.440045,0][-0.6942,-0.529061,-1.32199][-0.47747,0.113191,-0.871327][0.128028,0.487227,0][-0.690329,-0.502998,-1.32072][-0.477859,0.0985282,-0.872894][0.802037,0.730266,0][-0.690329,-0.29216,-0.570142][-0.699963,0.140563,-0.70021][0.909533,0.729247,0][-0.362953,-0.227631,-0.737104][-0.441035,0.234558,-0.866297][0.890225,0.776935,0][-0.362953,-0.227631,-0.737104][-0.441035,0.234558,-0.866297][0.890225,0.776935,0][-0.362953,-0.465143,-1.49567][-0.169565,0.161911,-0.972128][0.780624,0.777044,0][-0.690329,-0.502998,-1.32072][-0.477859,0.0985282,-0.872894][0.802037,0.730266,0][-0.9555,-0.554819,-1.05648][-0.708245,0.197045,-0.677911][0.144723,0.470874,0][-0.6942,-0.529061,-1.32199][-0.47747,0.113191,-0.871327][0.128028,0.487227,0][-0.6942,-0.337632,-0.575402][0.347952,-0.908135,0.232851][0.127327,0.440045,0][-0.6942,-0.337632,-0.575402][0.347952,-0.908135,0.232851][0.127327,0.440045,0][-0.9555,-0.404047,-0.313985][0.408979,-0.894292,0.181596][0.143646,0.424516,0][-0.9555,-0.554819,-1.05648][-0.708245,0.197045,-0.677911][0.144723,0.470874,0][-0.950161,-0.533691,-1.05592][-0.714836,0.139417,-0.685254][0.83568,0.691497,0][-0.950161,-0.3437,-0.31022][-0.713684,0.106337,-0.69235][0.941769,0.689502,0][-0.690329,-0.29216,-0.570142][-0.699963,0.140563,-0.70021][0.909533,0.729247,0][-0.690329,-0.29216,-0.570142][-0.699963,0.140563,-0.70021][0.909533,0.729247,0][-0.690329,-0.502998,-1.32072][-0.477859,0.0985282,-0.872894][0.802037,0.730266,0][-0.950161,-0.533691,-1.05592][-0.714836,0.139417,-0.685254][0.83568,0.691497,0][-1.11701,-0.549599,-0.683872][-0.903938,0.165983,-0.39414][0.884327,0.663228,0][-1.11701,-0.397328,0.0172505][-0.975146,0.157772,-0.155558][0.983182,0.659374,0][-0.950161,-0.3437,-0.31022][-0.713684,0.106337,-0.69235][0.941769,0.689502,0][-0.950161,-0.3437,-0.31022][-0.713684,0.106337,-0.69235][0.941769,0.689502,0][-0.950161,-0.533691,-1.05592][-0.714836,0.139417,-0.685254][0.83568,0.691497,0][-1.11701,-0.549599,-0.683872][-0.903938,0.165983,-0.39414][0.884327,0.663228,0][-1.1233,-0.578061,-0.681432][-0.903938,0.165983,-0.39414][0.156099,0.448096,0][-0.9555,-0.554819,-1.05648][-0.708245,0.197045,-0.677911][0.144723,0.470874,0][-0.9555,-0.404047,-0.313985][0.408979,-0.894292,0.181596][0.143646,0.424516,0][-0.9555,-0.404047,-0.313985][0.408979,-0.894292,0.181596][0.143646,0.424516,0][-1.1233,-0.438153,0.0152748][-0.975146,0.157772,-0.155558][0.154411,0.404546,0][-1.1233,-0.578061,-0.681432][-0.903938,0.165983,-0.39414][0.156099,0.448096,0][-1.11701,-0.549599,-0.683872][-0.903938,0.165983,-0.39414][0.246762,0.015347,0][-1.1233,-0.578061,-0.681432][-0.903938,0.165983,-0.39414][0.245029,0.01041,0][-1.1233,-0.438153,0.0152748][-0.975146,0.157772,-0.155558][0.130417,0.065429,0][-1.1233,-0.438153,0.0152748][-0.975146,0.157772,-0.155558][0.130417,0.065429,0][-1.11701,-0.397328,0.0172505][-0.975146,0.157772,-0.155558][0.131915,0.072675,0][-1.11701,-0.549599,-0.683872][-0.903938,0.165983,-0.39414][0.246762,0.015347,0][-1.1233,-0.436879,0.745274][-0.976371,0.151245,0.154351][0.154696,0.35991,0][-1.1811,-0.437516,0.380274][-0.976383,0.151154,0.154364][0.158051,0.382367,0][0,-0.328916,0.380085][0.0915523,-0.995719,-0.0127599][0.085266,0.38027,0][-0.9555,-0.436304,1.07447][-0.880779,0.151352,0.448688][0.144563,0.339576,0][-1.1233,-0.436879,0.745274][-0.976371,0.151245,0.154351][0.154696,0.35991,0][0,-0.328916,0.380085][0.0915523,-0.995719,-0.0127599][0.085266,0.38027,0][-0.6942,-0.435848,1.33577][-0.699051,0.151739,0.698787][0.12873,0.323357,0][-0.9555,-0.436304,1.07447][-0.880779,0.151352,0.448688][0.144563,0.339576,0][0,-0.328916,0.380085][0.0915523,-0.995719,-0.0127599][0.085266,0.38027,0][-0.365,-0.435555,1.50357][-0.448921,0.152531,0.880457][0.1087,0.31283,0][-0.6942,-0.435848,1.33577][-0.699051,0.151739,0.698787][0.12873,0.323357,0][0,-0.328916,0.380085][0.0915523,-0.995719,-0.0127599][0.085266,0.38027,0][0,-0.435454,1.56137][-0.154617,0.152591,0.97612][0.086575,0.308921,0][-0.365,-0.435555,1.50357][-0.448921,0.152531,0.880457][0.1087,0.31283,0][0,-0.328916,0.380085][0.0915523,-0.995719,-0.0127599][0.085266,0.38027,0][0.365,-0.435555,1.50357][0.154615,0.152679,0.976106][0.06427,0.312212,0][0,-0.435454,1.56137][-0.154617,0.152591,0.97612][0.086575,0.308921,0][0,-0.328916,0.380085][0.0915523,-0.995719,-0.0127599][0.085266,0.38027,0][0.6942,-0.435848,1.33577][0.448951,0.152107,0.880515][0.043934,0.32219,0][0.365,-0.435555,1.50357][0.154615,0.152679,0.976106][0.06427,0.312212,0][0,-0.328916,0.380085][0.0915523,-0.995719,-0.0127599][0.085266,0.38027,0][0.9555,-0.436304,1.07447][0.699051,0.151739,0.698787][0.027626,0.338041,0][0.6942,-0.435848,1.33577][0.448951,0.152107,0.880515][0.043934,0.32219,0][0,-0.328916,0.380085][0.0915523,-0.995719,-0.0127599][0.085266,0.38027,0][1.1233,-0.436879,0.745274][0.880721,0.151778,0.448657][0.016847,0.357989,0][0.9555,-0.436304,1.07447][0.699051,0.151739,0.698787][0.027626,0.338041,0][0,-0.328916,0.380085][0.0915523,-0.995719,-0.0127599][0.085266,0.38027,0][1.1811,-0.437516,0.380274][0.976385,0.151154,0.154353][0.012802,0.380207,0][1.1233,-0.436879,0.745274][0.880721,0.151778,0.448657][0.016847,0.357989,0][0,-0.328916,0.380085][0.0915523,-0.995719,-0.0127599][0.085266,0.38027,0][1.1233,-0.438153,0.0152748][0.975283,0.157753,-0.154718][0.015702,0.402548,0][1.1811,-0.437516,0.380274][0.976385,0.151154,0.154353][0.012802,0.380207,0][0,-0.328916,0.380085][0.0915523,-0.995719,-0.0127599][0.085266,0.38027,0][0.9555,-0.404047,-0.313985][-0.505333,-0.846034,0.169895][0.025934,0.422459,0][1.1233,-0.438153,0.0152748][0.975283,0.157753,-0.154718][0.015702,0.402548,0][0,-0.328916,0.380085][0.0915523,-0.995719,-0.0127599][0.085266,0.38027,0][0.6942,-0.337632,-0.575402][-0.408979,-0.894292,0.181596][0.041467,0.438701,0][0.9555,-0.404047,-0.313985][-0.505333,-0.846034,0.169895][0.025934,0.422459,0][0,-0.328916,0.380085][0.0915523,-0.995719,-0.0127599][0.085266,0.38027,0][0.365,-0.254561,-0.743347][-0.347952,-0.908135,0.232851][0.061903,0.448928,0][0.6942,-0.337632,-0.575402][-0.408979,-0.894292,0.181596][0.041467,0.438701,0][0,-0.328916,0.380085][0.0915523,-0.995719,-0.0127599][0.085266,0.38027,0][0,-0.222509,-0.801203][-0.130341,-0.945465,0.298508][0.084008,0.452822,0][0.365,-0.254561,-0.743347][-0.347952,-0.908135,0.232851][0.061903,0.448928,0][0,-0.328916,0.380085][0.0915523,-0.995719,-0.0127599][0.085266,0.38027,0][-0.365,-0.254561,-0.743347][0.130341,-0.945465,0.298508][0.106333,0.449703,0][0,-0.222509,-0.801203][-0.130341,-0.945465,0.298508][0.084008,0.452822,0][0,-0.328916,0.380085][0.0915523,-0.995719,-0.0127599][0.085266,0.38027,0][-0.6942,-0.337632,-0.575402][0.347952,-0.908135,0.232851][0.127327,0.440045,0][-0.365,-0.254561,-0.743347][0.130341,-0.945465,0.298508][0.106333,0.449703,0][0,-0.328916,0.380085][0.0915523,-0.995719,-0.0127599][0.085266,0.38027,0][-0.9555,-0.404047,-0.313985][0.408979,-0.894292,0.181596][0.143646,0.424516,0][-0.6942,-0.337632,-0.575402][0.347952,-0.908135,0.232851][0.127327,0.440045,0][0,-0.328916,0.380085][0.0915523,-0.995719,-0.0127599][0.085266,0.38027,0][-1.1233,-0.438153,0.0152748][-0.975146,0.157772,-0.155558][0.154411,0.404546,0][-0.9555,-0.404047,-0.313985][0.408979,-0.894292,0.181596][0.143646,0.424516,0][0,-0.328916,0.380085][0.0915523,-0.995719,-0.0127599][0.085266,0.38027,0][-1.1811,-0.437516,0.380274][-0.976383,0.151154,0.154364][0.158051,0.382367,0][-1.1233,-0.438153,0.0152748][-0.975146,0.157772,-0.155558][0.154411,0.404546,0][0,-0.328916,0.380085][0.0915523,-0.995719,-0.0127599][0.085266,0.38027,0][-0.068535,0.546171,0.447092][-0.357964,0.355072,0.863589][0.017622,0.947003,0][-0.074182,0.526661,0.452773][-0.357964,0.355072,0.863589][0.01647,0.943964,0][0,0.526715,0.4835][-0.357964,0.355072,0.863589][0.033689,0.943964,0][0,0.526715,0.4835][-0.357964,0.355072,0.863589][0.033689,0.943964,0][0,0.546221,0.475481][-0.357981,0.355031,0.863599][0.032295,0.94725,0][-0.068535,0.546171,0.447092][-0.357964,0.355072,0.863589][0.017622,0.947003,0][0,0.546221,0.475481][-0.357981,0.355031,0.863599][0.032295,0.94725,0][0,0.526715,0.4835][-0.357964,0.355072,0.863589][0.033689,0.943964,0][0.074182,0.526661,0.452773][0.35797,0.355033,0.863602][0.045098,0.956054,0][0.074182,0.526661,0.452773][0.35797,0.355033,0.863602][0.045098,0.956054,0][0.068535,0.546171,0.447092][0.357975,0.355073,0.863584][0.041932,0.957229,0][0,0.546221,0.475481][-0.357981,0.355031,0.863599][0.032295,0.94725,0][0.068535,0.546171,0.447092][0.357975,0.355073,0.863584][0.041932,0.957229,0][0.074182,0.526661,0.452773][0.35797,0.355033,0.863602][0.045098,0.956054,0][0.104909,0.526532,0.378592][0.864207,0.354189,0.357347][0.045051,0.973163,0][0.104909,0.526532,0.378592][0.864207,0.354189,0.357347][0.045051,0.973163,0][0.096924,0.546052,0.378557][0.864217,0.354147,0.357364][0.04173,0.971735,0][0.068535,0.546171,0.447092][0.357975,0.355073,0.863584][0.041932,0.957229,0][0.096924,0.546052,0.378557][0.864217,0.354147,0.357364][0.04173,0.971735,0][0.104909,0.526532,0.378592][0.864207,0.354189,0.357347][0.045051,0.973163,0][0.074182,0.526402,0.30441][0.864221,0.352899,-0.358586][0.032718,0.984592,0][0.074182,0.526402,0.30441][0.864221,0.352899,-0.358586][0.032718,0.984592,0][0.068535,0.545932,0.310023][0.864201,0.352942,-0.358592][0.031572,0.98154,0][0.096924,0.546052,0.378557][0.864217,0.354147,0.357364][0.04173,0.971735,0][0.068535,0.545932,0.310023][0.864201,0.352942,-0.358592][0.031572,0.98154,0][0.074182,0.526402,0.30441][0.864221,0.352899,-0.358586][0.032718,0.984592,0][0,0.526348,0.273683][0.357964,0.352056,-0.864823][0.015471,0.984532,0][0,0.526348,0.273683][0.357964,0.352056,-0.864823][0.015471,0.984532,0][0,0.545882,0.281634][0.357981,0.352013,-0.864833][0.016876,0.981259,0][0.068535,0.545932,0.310023][0.864201,0.352942,-0.358592][0.031572,0.98154,0][0,0.545882,0.281634][0.357981,0.352013,-0.864833][0.016876,0.981259,0][0,0.526348,0.273683][0.357964,0.352056,-0.864823][0.015471,0.984532,0][-0.074182,0.526402,0.30441][-0.35797,0.352015,-0.864837][0.00418,0.972345,0][-0.074182,0.526402,0.30441][-0.35797,0.352015,-0.864837][0.00418,0.972345,0][-0.068535,0.545932,0.310023][-0.357975,0.352058,-0.864817][0.007295,0.971169,0][0,0.545882,0.281634][0.357981,0.352013,-0.864833][0.016876,0.981259,0][-0.068535,0.545932,0.310023][-0.357975,0.352058,-0.864817][0.007295,0.971169,0][-0.074182,0.526402,0.30441][-0.35797,0.352015,-0.864837][0.00418,0.972345,0][-0.104909,0.526532,0.378592][-0.864207,0.35294,-0.358581][0.004277,0.955266,0][-0.104909,0.526532,0.378592][-0.864207,0.35294,-0.358581][0.004277,0.955266,0][-0.096924,0.546052,0.378557][-0.864217,0.352898,-0.358598][0.007542,0.956632,0][-0.068535,0.545932,0.310023][-0.357975,0.352058,-0.864817][0.007295,0.971169,0][-0.096924,0.546052,0.378557][-0.864217,0.352898,-0.358598][0.007542,0.956632,0][-0.104909,0.526532,0.378592][-0.864207,0.35294,-0.358581][0.004277,0.955266,0][-0.074182,0.526661,0.452773][-0.357964,0.355072,0.863589][0.01647,0.943964,0][-0.074182,0.526661,0.452773][-0.357964,0.355072,0.863589][0.01647,0.943964,0][-0.068535,0.546171,0.447092][-0.357964,0.355072,0.863589][0.017622,0.947003,0][-0.096924,0.546052,0.378557][-0.864217,0.352898,-0.358598][0.007542,0.956632,0][-0.052455,0.562694,0.430984][-0.23682,0.786525,0.570345][0.019508,0.951671,0][-0.068535,0.546171,0.447092][-0.357964,0.355072,0.863589][0.017622,0.947003,0][0,0.546221,0.475481][-0.357981,0.355031,0.863599][0.032295,0.94725,0][0,0.546221,0.475481][-0.357981,0.355031,0.863599][0.032295,0.94725,0][0,0.562732,0.45271][-0.236799,0.786545,0.570328][0.030313,0.951612,0][-0.052455,0.562694,0.430984][-0.23682,0.786525,0.570345][0.019508,0.951671,0][0,0.562732,0.45271][-0.236799,0.786545,0.570328][0.030313,0.951612,0][0,0.546221,0.475481][-0.357981,0.355031,0.863599][0.032295,0.94725,0][0.068535,0.546171,0.447092][0.357975,0.355073,0.863584][0.041932,0.957229,0][0.068535,0.546171,0.447092][0.357975,0.355073,0.863584][0.041932,0.957229,0][0.052455,0.562694,0.430984][0.23681,0.786523,0.570353][0.037286,0.958974,0][0,0.562732,0.45271][-0.236799,0.786545,0.570328][0.030313,0.951612,0][0.052455,0.562694,0.430984][0.23681,0.786523,0.570353][0.037286,0.958974,0][0.068535,0.546171,0.447092][0.357975,0.355073,0.863584][0.041932,0.957229,0][0.096924,0.546052,0.378557][0.864217,0.354147,0.357364][0.04173,0.971735,0][0.096924,0.546052,0.378557][0.864217,0.354147,0.357364][0.04173,0.971735,0][0.074182,0.562603,0.378529][0.5717,0.78596,0.235428][0.037315,0.969689,0][0.052455,0.562694,0.430984][0.23681,0.786523,0.570353][0.037286,0.958974,0][0.074182,0.562603,0.378529][0.5717,0.78596,0.235428][0.037315,0.969689,0][0.096924,0.546052,0.378557][0.864217,0.354147,0.357364][0.04173,0.971735,0][0.068535,0.545932,0.310023][0.864201,0.352942,-0.358592][0.031572,0.98154,0][0.068535,0.545932,0.310023][0.864201,0.352942,-0.358592][0.031572,0.98154,0][0.052455,0.562511,0.326074][0.571725,0.785112,-0.238181][0.029684,0.97681,0][0.074182,0.562603,0.378529][0.5717,0.78596,0.235428][0.037315,0.969689,0][0.052455,0.562511,0.326074][0.571725,0.785112,-0.238181][0.029684,0.97681,0][0.068535,0.545932,0.310023][0.864201,0.352942,-0.358592][0.031572,0.98154,0][0,0.545882,0.281634][0.357981,0.352013,-0.864833][0.016876,0.981259,0][0,0.545882,0.281634][0.357981,0.352013,-0.864833][0.016876,0.981259,0][0,0.562473,0.304347][0.2368,0.784549,-0.57307][0.018871,0.976858,0][0.052455,0.562511,0.326074][0.571725,0.785112,-0.238181][0.029684,0.97681,0][0,0.562473,0.304347][0.2368,0.784549,-0.57307][0.018871,0.976858,0][0,0.545882,0.281634][0.357981,0.352013,-0.864833][0.016876,0.981259,0][-0.068535,0.545932,0.310023][-0.357975,0.352058,-0.864817][0.007295,0.971169,0][-0.068535,0.545932,0.310023][-0.357975,0.352058,-0.864817][0.007295,0.971169,0][-0.052455,0.562511,0.326074][-0.23681,0.784528,-0.573095][0.011936,0.969424,0][0,0.562473,0.304347][0.2368,0.784549,-0.57307][0.018871,0.976858,0][-0.052455,0.562511,0.326074][-0.23681,0.784528,-0.573095][0.011936,0.969424,0][-0.068535,0.545932,0.310023][-0.357975,0.352058,-0.864817][0.007295,0.971169,0][-0.096924,0.546052,0.378557][-0.864217,0.352898,-0.358598][0.007542,0.956632,0][-0.096924,0.546052,0.378557][-0.864217,0.352898,-0.358598][0.007542,0.956632,0][-0.074182,0.562603,0.378529][-0.571699,0.785134,-0.23817][0.011931,0.95866,0][-0.052455,0.562511,0.326074][-0.23681,0.784528,-0.573095][0.011936,0.969424,0][-0.074182,0.562603,0.378529][-0.571699,0.785134,-0.23817][0.011931,0.95866,0][-0.096924,0.546052,0.378557][-0.864217,0.352898,-0.358598][0.007542,0.956632,0][-0.068535,0.546171,0.447092][-0.357964,0.355072,0.863589][0.017622,0.947003,0][-0.068535,0.546171,0.447092][-0.357964,0.355072,0.863589][0.017622,0.947003,0][-0.052455,0.562694,0.430984][-0.23682,0.786525,0.570345][0.019508,0.951671,0][-0.074182,0.562603,0.378529][-0.571699,0.785134,-0.23817][0.011931,0.95866,0][-0.028388,0.573702,0.406897][-0.126869,0.943977,0.304651][0.021666,0.957054,0][-0.052455,0.562694,0.430984][-0.23682,0.786525,0.570345][0.019508,0.951671,0][0,0.562732,0.45271][-0.236799,0.786545,0.570328][0.030313,0.951612,0][0,0.562732,0.45271][-0.236799,0.786545,0.570328][0.030313,0.951612,0][0,0.573723,0.418656][-0.12688,0.943973,0.304657][0.027674,0.957054,0][-0.028388,0.573702,0.406897][-0.126869,0.943977,0.304651][0.021666,0.957054,0][0,0.573723,0.418656][-0.12688,0.943973,0.304657][0.027674,0.957054,0][0,0.562732,0.45271][-0.236799,0.786545,0.570328][0.030313,0.951612,0][0.052455,0.562694,0.430984][0.23681,0.786523,0.570353][0.037286,0.958974,0][0.052455,0.562694,0.430984][0.23681,0.786523,0.570353][0.037286,0.958974,0][0.028388,0.573702,0.406897][0.126875,0.943978,0.304646][0.031882,0.961233,0][0,0.573723,0.418656][-0.12688,0.943973,0.304657][0.027674,0.957054,0][0.028388,0.573702,0.406897][0.126875,0.943978,0.304646][0.031882,0.961233,0][0.052455,0.562694,0.430984][0.23681,0.786523,0.570353][0.037286,0.958974,0][0.074182,0.562603,0.378529][0.5717,0.78596,0.235428][0.037315,0.969689,0][0.074182,0.562603,0.378529][0.5717,0.78596,0.235428][0.037315,0.969689,0][0.040147,0.573653,0.378509][0.306303,0.943661,0.125232][0.031839,0.967175,0][0.028388,0.573702,0.406897][0.126875,0.943978,0.304646][0.031882,0.961233,0][0.040147,0.573653,0.378509][0.306303,0.943661,0.125232][0.031839,0.967175,0][0.074182,0.562603,0.378529][0.5717,0.78596,0.235428][0.037315,0.969689,0][0.052455,0.562511,0.326074][0.571725,0.785112,-0.238181][0.029684,0.97681,0][0.052455,0.562511,0.326074][0.571725,0.785112,-0.238181][0.029684,0.97681,0][0.028388,0.573603,0.350121][0.306295,0.943221,-0.128521][0.02756,0.971333,0][0.040147,0.573653,0.378509][0.306303,0.943661,0.125232][0.031839,0.967175,0][0.028388,0.573603,0.350121][0.306295,0.943221,-0.128521][0.02756,0.971333,0][0.052455,0.562511,0.326074][0.571725,0.785112,-0.238181][0.029684,0.97681,0][0,0.562473,0.304347][0.2368,0.784549,-0.57307][0.018871,0.976858,0][0,0.562473,0.304347][0.2368,0.784549,-0.57307][0.018871,0.976858,0][0,0.573582,0.338362][0.126877,0.942905,-0.307948][0.021547,0.971326,0][0.028388,0.573603,0.350121][0.306295,0.943221,-0.128521][0.02756,0.971333,0][0,0.573582,0.338362][0.126877,0.942905,-0.307948][0.021547,0.971326,0][0,0.562473,0.304347][0.2368,0.784549,-0.57307][0.018871,0.976858,0][-0.052455,0.562511,0.326074][-0.23681,0.784528,-0.573095][0.011936,0.969424,0][-0.052455,0.562511,0.326074][-0.23681,0.784528,-0.573095][0.011936,0.969424,0][-0.028388,0.573603,0.350121][-0.126874,0.942908,-0.307941][0.017338,0.967157,0][0,0.573582,0.338362][0.126877,0.942905,-0.307948][0.021547,0.971326,0][-0.028388,0.573603,0.350121][-0.126874,0.942908,-0.307941][0.017338,0.967157,0][-0.052455,0.562511,0.326074][-0.23681,0.784528,-0.573095][0.011936,0.969424,0][-0.074182,0.562603,0.378529][-0.571699,0.785134,-0.23817][0.011931,0.95866,0][-0.074182,0.562603,0.378529][-0.571699,0.785134,-0.23817][0.011931,0.95866,0][-0.040147,0.573653,0.378509][-0.306303,0.943218,-0.128524][0.017377,0.961225,0][-0.028388,0.573603,0.350121][-0.126874,0.942908,-0.307941][0.017338,0.967157,0][-0.040147,0.573653,0.378509][-0.306303,0.943218,-0.128524][0.017377,0.961225,0][-0.074182,0.562603,0.378529][-0.571699,0.785134,-0.23817][0.011931,0.95866,0][-0.052455,0.562694,0.430984][-0.23682,0.786525,0.570345][0.019508,0.951671,0][-0.052455,0.562694,0.430984][-0.23682,0.786525,0.570345][0.019508,0.951671,0][-0.028388,0.573702,0.406897][-0.126869,0.943977,0.304651][0.021666,0.957054,0][-0.040147,0.573653,0.378509][-0.306303,0.943218,-0.128524][0.017377,0.961225,0][-0.028388,0.573702,0.406897][-0.126869,0.943977,0.304651][0.021666,0.957054,0][0,0.573723,0.418656][-0.12688,0.943973,0.304657][0.027674,0.957054,0][0,0.577532,0.378503][-0.0398064,0.994742,0.0943595][0.024556,0.964218,0][0,0.573723,0.418656][-0.12688,0.943973,0.304657][0.027674,0.957054,0][0.028388,0.573702,0.406897][0.126875,0.943978,0.304646][0.031882,0.961233,0][0,0.577532,0.378503][-0.0398064,0.994742,0.0943595][0.024556,0.964218,0][0.028388,0.573702,0.406897][0.126875,0.943978,0.304646][0.031882,0.961233,0][0.040147,0.573653,0.378509][0.306303,0.943661,0.125232][0.031839,0.967175,0][0,0.577532,0.378503][-0.0398064,0.994742,0.0943595][0.024556,0.964218,0][0.040147,0.573653,0.378509][0.306303,0.943661,0.125232][0.031839,0.967175,0][0.028388,0.573603,0.350121][0.306295,0.943221,-0.128521][0.02756,0.971333,0][0,0.577532,0.378503][-0.0398064,0.994742,0.0943595][0.024556,0.964218,0][0.028388,0.573603,0.350121][0.306295,0.943221,-0.128521][0.02756,0.971333,0][0,0.573582,0.338362][0.126877,0.942905,-0.307948][0.021547,0.971326,0][0,0.577532,0.378503][-0.0398064,0.994742,0.0943595][0.024556,0.964218,0][0,0.573582,0.338362][0.126877,0.942905,-0.307948][0.021547,0.971326,0][-0.028388,0.573603,0.350121][-0.126874,0.942908,-0.307941][0.017338,0.967157,0][0,0.577532,0.378503][-0.0398064,0.994742,0.0943595][0.024556,0.964218,0][-0.028388,0.573603,0.350121][-0.126874,0.942908,-0.307941][0.017338,0.967157,0][-0.040147,0.573653,0.378509][-0.306303,0.943218,-0.128524][0.017377,0.961225,0][0,0.577532,0.378503][-0.0398064,0.994742,0.0943595][0.024556,0.964218,0][-0.040147,0.573653,0.378509][-0.306303,0.943218,-0.128524][0.017377,0.961225,0][-0.028388,0.573702,0.406897][-0.126869,0.943977,0.304651][0.021666,0.957054,0][0,0.577532,0.378503][-0.0398064,0.994742,0.0943595][0.024556,0.964218,0]