mtllib 1076136612.mtl
o Mesh

v -0.1905 0.02920005 0.252
v -0.2947 0.06115 0.1299
v -0.28735 -0.07215 0.1319
v -0.28735 -0.07215 0.1319
v -0.18925 -0.08075 0.26835
v -0.1905 0.02920005 0.252
v -0.0786 0.01715005 0.31035
v -0.1905 0.02920005 0.252
v -0.18925 -0.08075 0.26835
v -0.18925 -0.08075 0.26835
v -0.085 -0.0842 0.33315
v -0.0786 0.01715005 0.31035
v 0.0 0.01255 0.3345
v -0.0786 0.01715005 0.31035
v -0.085 -0.0842 0.33315
v -0.085 -0.0842 0.33315
v 0.0 -0.0859 0.36145
v 0.0 0.01255 0.3345
v -0.18955 0.3814 -0.15405
v -0.2061 0.39975 -0.1382
v -0.1866 0.3927 -0.1252
v -0.1866 0.3927 -0.1252
v -0.1712 0.37425 -0.1322
v -0.18955 0.3814 -0.15405
v -0.2854 0.0713 -0.048
v -0.2547 0.07045 -0.0411
v -0.2392 0.08755 -0.0977
v -0.2392 0.08755 -0.0977
v -0.2678 0.0883 -0.1077
v -0.2854 0.0713 -0.048
v -0.2688 0.10075 0.01805
v -0.3011 0.1024 0.0139
v -0.2947 0.06115 0.1299
v -0.2947 0.06115 0.1299
v -0.2638 0.065 0.1226
v -0.2688 0.10075 0.01805
v -0.2638 0.065 0.1226
v -0.2947 0.06115 0.1299
v -0.1905 0.02920005 0.252
v -0.1905 0.02920005 0.252
v -0.17515 0.03690005 0.22595
v -0.2638 0.065 0.1226
v -0.0718 0.0254 0.2762
v -0.17515 0.03690005 0.22595
v -0.1905 0.02920005 0.252
v -0.1905 0.02920005 0.252
v -0.0786 0.01715005 0.31035
v -0.0718 0.0254 0.2762
v 0.0 0.0227 0.29085
v -0.0718 0.0254 0.2762
v -0.0786 0.01715005 0.31035
v -0.0786 0.01715005 0.31035
v 0.0 0.01255 0.3345
v 0.0 0.0227 0.29085
v -0.0606 -0.0538 -0.28965
v -0.0297 0.01065 -0.3268
v 0.0 -0.01445 -0.3469
v 0.0 -0.01445 -0.3469
v 0.0 -0.10545 -0.3311
v -0.0606 -0.0538 -0.28965
v -0.1327 -0.05375 -0.2243
v -0.2633 -0.06925 -0.12235
v -0.17085 -0.0063 -0.26255
v -0.29295 -0.05965 -0.002
v -0.3011 0.1024 0.0139
v -0.2854 0.0713 -0.048
v -0.2854 0.0713 -0.048
v -0.2633 -0.06925 -0.12235
v -0.29295 -0.05965 -0.002
v -0.2633 -0.06925 -0.12235
v -0.2854 0.0713 -0.048
v -0.2678 0.0883 -0.1077
v -0.2947 0.06115 0.1299
v -0.3011 0.1024 0.0139
v -0.29295 -0.05965 -0.002
v -0.29295 -0.05965 -0.002
v -0.28735 -0.07215 0.1319
v -0.2947 0.06115 0.1299
v -0.2633 -0.06925 -0.12235
v -0.1327 -0.05375 -0.2243
v -0.26005 -0.08545 -0.1706
v -0.29295 -0.05965 -0.002
v -0.26005 -0.08545 -0.1706
v -0.275 -0.1312 -0.1054
v -0.1327 -0.05375 -0.2243
v -0.17085 -0.0063 -0.26255
v -0.09405 0.0077 -0.29695
v -0.09405 0.0077 -0.29695
v -0.0606 -0.0538 -0.28965
v -0.1327 -0.05375 -0.2243
v -0.0606 -0.0538 -0.28965
v -0.066 0.0092 -0.3104
v -0.0297 0.01065 -0.3268
v -0.25735 -0.2196 -0.16465
v -0.1998 -0.21895 -0.2508
v -0.2024 -0.32945 -0.25835
v -0.1517 -0.21585 -0.2607
v -0.13825 -0.3158 -0.31115
v -0.1688 -0.3199 -0.3083
v -0.1688 -0.3199 -0.3083
v -0.1998 -0.21895 -0.2508
v -0.1517 -0.21585 -0.2607
v -0.13055 0.09735 -0.2379
v -0.13195 0.0923 -0.18965
v -0.0643 0.0959 -0.22745
v -0.0643 0.0959 -0.22745
v -0.07335 0.09925 -0.2648
v -0.13055 0.09735 -0.2379
v -0.03245 0.176 -0.22935
v -0.04219995 0.17975 -0.2669
v -0.07335 0.09925 -0.2648
v -0.07335 0.09925 -0.2648
v -0.0643 0.0959 -0.22745
v -0.03245 0.176 -0.22935
v -0.03245 0.176 -0.22935
v 0.0 0.3095 -0.2244
v -0.01404995 0.309 -0.2467
v -0.01404995 0.309 -0.2467
v -0.04219995 0.17975 -0.2669
v -0.03245 0.176 -0.22935
v 0.0 0.0992 -0.26485
v -0.07335 0.09925 -0.2648
v -0.04219995 0.17975 -0.2669
v -0.0606 -0.0538 -0.28965
v -0.09405 0.0077 -0.29695
v -0.066 0.0092 -0.3104
v -0.0297 0.01065 -0.3268
v 0.0 0.0992 -0.26485
v 0.0 -0.01445 -0.3469
v -0.17085 -0.0063 -0.26255
v -0.13055 0.09735 -0.2379
v -0.09405 0.0077 -0.29695
v -0.07335 0.09925 -0.2648
v 0.0 0.0992 -0.26485
v -0.0297 0.01065 -0.3268
v -0.0297 0.01065 -0.3268
v -0.066 0.0092 -0.3104
v -0.07335 0.09925 -0.2648
v -0.07335 0.09925 -0.2648
v -0.066 0.0092 -0.3104
v -0.09405 0.0077 -0.29695
v -0.09405 0.0077 -0.29695
v -0.13055 0.09735 -0.2379
v -0.07335 0.09925 -0.2648
v -0.2633 -0.06925 -0.12235
v -0.2678 0.0883 -0.1077
v -0.17085 -0.0063 -0.26255
v -0.13195 0.0923 -0.18965
v -0.13055 0.09735 -0.2379
v -0.17055 0.2387 -0.18355
v -0.17055 0.2387 -0.18355
v -0.15135 0.2344 -0.1594
v -0.13195 0.0923 -0.18965
v -0.2678 0.0883 -0.1077
v -0.23345 0.23835 -0.1258
v -0.17055 0.2387 -0.18355
v -0.17055 0.2387 -0.18355
v -0.13055 0.09735 -0.2379
v -0.2678 0.0883 -0.1077
v -0.2392 0.08755 -0.0977
v -0.2065 0.23425 -0.113
v -0.23345 0.23835 -0.1258
v -0.23345 0.23835 -0.1258
v -0.2678 0.0883 -0.1077
v -0.2392 0.08755 -0.0977
v -0.13195 0.0923 -0.18965
v -0.15135 0.2344 -0.1594
v -0.2065 0.23425 -0.113
v -0.2065 0.23425 -0.113
v -0.2392 0.08755 -0.0977
v -0.13195 0.0923 -0.18965
v -0.1712 0.37425 -0.1322
v -0.15135 0.2344 -0.1594
v -0.17055 0.2387 -0.18355
v -0.17055 0.2387 -0.18355
v -0.18955 0.3814 -0.15405
v -0.1712 0.37425 -0.1322
v -0.23345 0.23835 -0.1258
v -0.2229 0.3848 -0.1247
v -0.18955 0.3814 -0.15405
v -0.18955 0.3814 -0.15405
v -0.17055 0.2387 -0.18355
v -0.23345 0.23835 -0.1258
v -0.1933 0.37625 -0.1144
v -0.2229 0.3848 -0.1247
v -0.23345 0.23835 -0.1258
v -0.23345 0.23835 -0.1258
v -0.2065 0.23425 -0.113
v -0.1933 0.37625 -0.1144
v -0.1712 0.37425 -0.1322
v -0.1933 0.37625 -0.1144
v -0.2065 0.23425 -0.113
v -0.2065 0.23425 -0.113
v -0.15135 0.2344 -0.1594
v -0.1712 0.37425 -0.1322
v -0.2061 0.39975 -0.1382
v -0.2229 0.3848 -0.1247
v -0.1933 0.37625 -0.1144
v -0.1933 0.37625 -0.1144
v -0.1866 0.3927 -0.1252
v -0.2061 0.39975 -0.1382
v -0.2229 0.3848 -0.1247
v -0.2061 0.39975 -0.1382
v -0.18955 0.3814 -0.15405
v -0.1712 0.37425 -0.1322
v -0.1866 0.3927 -0.1252
v -0.1933 0.37625 -0.1144
v -0.1998 -0.21895 -0.2508
v -0.25735 -0.2196 -0.16465
v -0.22435 -0.1354 -0.21675
v -0.1688 -0.3199 -0.3083
v -0.2024 -0.32945 -0.25835
v -0.1998 -0.21895 -0.2508
v -0.29295 -0.05965 -0.002
v -0.2633 -0.06925 -0.12235
v -0.26005 -0.08545 -0.1706
v -0.15455 -0.1307 -0.23815
v -0.1517 -0.21585 -0.2607
v -0.1998 -0.21895 -0.2508
v -0.1998 -0.21895 -0.2508
v -0.22435 -0.1354 -0.21675
v -0.15455 -0.1307 -0.23815
v -0.25735 -0.2196 -0.16465
v -0.26005 -0.08545 -0.1706
v -0.22435 -0.1354 -0.21675
v -0.26005 -0.08545 -0.1706
v -0.25735 -0.2196 -0.16465
v -0.275 -0.1312 -0.1054
v -0.1688 -0.3199 -0.3083
v -0.13825 -0.3158 -0.31115
v -0.12485 -0.39975 -0.36145
v -0.2024 -0.32945 -0.25835
v -0.1688 -0.3199 -0.3083
v -0.12485 -0.39975 -0.36145
v -0.12485 -0.39975 -0.36145
v -0.13825 -0.3158 -0.31115
v -0.2024 -0.32945 -0.25835
v -0.2024 -0.32945 -0.25835
v -0.13825 -0.3158 -0.31115
v -0.1517 -0.21585 -0.2607
v -0.1517 -0.21585 -0.2607
v -0.25735 -0.2196 -0.16465
v -0.2024 -0.32945 -0.25835
v -0.15455 -0.1307 -0.23815
v -0.275 -0.1312 -0.1054
v -0.25735 -0.2196 -0.16465
v -0.25735 -0.2196 -0.16465
v -0.1517 -0.21585 -0.2607
v -0.15455 -0.1307 -0.23815
v -0.1327 -0.05375 -0.2243
v -0.15455 -0.1307 -0.23815
v -0.22435 -0.1354 -0.21675
v -0.1327 -0.05375 -0.2243
v -0.22435 -0.1354 -0.21675
v -0.26005 -0.08545 -0.1706
v -0.2854 0.0713 -0.048
v -0.3011 0.1024 0.0139
v -0.2688 0.10075 0.01805
v -0.2688 0.10075 0.01805
v -0.2547 0.07045 -0.0411
v -0.2854 0.0713 -0.048
v -0.13195 0.0923 -0.18965
v -0.12485 -0.03765 -0.1916
v -0.06355 -0.03245 -0.2407
v -0.06355 -0.03245 -0.2407
v -0.0643 0.0959 -0.22745
v -0.13195 0.0923 -0.18965
v -0.13195 0.0923 -0.18965
v -0.2392 0.08755 -0.0977
v -0.22575 -0.04289995 -0.10315
v -0.22575 -0.04289995 -0.10315
v -0.12485 -0.03765 -0.1916
v -0.13195 0.0923 -0.18965
v -0.2547 0.07045 -0.0411
v -0.2688 0.10075 0.01805
v -0.26735 -0.0581 0.00615
v -0.26735 -0.0581 0.00615
v -0.2547 -0.0583 -0.05315
v -0.2547 0.07045 -0.0411
v -0.2638 0.065 0.1226
v -0.26325 -0.06865 0.1154
v -0.26735 -0.0581 0.00615
v -0.26735 -0.0581 0.00615
v -0.2688 0.10075 0.01805
v -0.2638 0.065 0.1226
v -0.17515 0.03690005 0.22595
v -0.1753 -0.0792 0.2219
v -0.26325 -0.06865 0.1154
v -0.26325 -0.06865 0.1154
v -0.2638 0.065 0.1226
v -0.17515 0.03690005 0.22595
v -0.0718 0.0254 0.2762
v -0.0722 -0.0836 0.274
v -0.1753 -0.0792 0.2219
v -0.1753 -0.0792 0.2219
v -0.17515 0.03690005 0.22595
v -0.0718 0.0254 0.2762
v 0.0 0.0227 0.29085
v 0.0 -0.08505 0.2897
v -0.0722 -0.0836 0.274
v -0.0722 -0.0836 0.274
v -0.0718 0.0254 0.2762
v 0.0 0.0227 0.29085
v -0.2547 0.07045 -0.0411
v -0.2547 -0.0583 -0.05315
v -0.22575 -0.04289995 -0.10315
v -0.22575 -0.04289995 -0.10315
v -0.2392 0.08755 -0.0977
v -0.2547 0.07045 -0.0411
v -0.26325 -0.06865 0.1154
v -0.28735 -0.07215 0.1319
v -0.29295 -0.05965 -0.002
v -0.29295 -0.05965 -0.002
v -0.26735 -0.0581 0.00615
v -0.26325 -0.06865 0.1154
v -0.1753 -0.0792 0.2219
v -0.18925 -0.08075 0.26835
v -0.28735 -0.07215 0.1319
v -0.28735 -0.07215 0.1319
v -0.26325 -0.06865 0.1154
v -0.1753 -0.0792 0.2219
v -0.0722 -0.0836 0.274
v -0.085 -0.0842 0.33315
v -0.18925 -0.08075 0.26835
v -0.18925 -0.08075 0.26835
v -0.1753 -0.0792 0.2219
v -0.0722 -0.0836 0.274
v 0.0 -0.08505 0.2897
v 0.0 -0.0859 0.36145
v -0.085 -0.0842 0.33315
v -0.085 -0.0842 0.33315
v -0.0722 -0.0836 0.274
v 0.0 -0.08505 0.2897
v -0.22575 -0.04289995 -0.10315
v -0.275 -0.1312 -0.1054
v -0.15455 -0.1307 -0.23815
v -0.15455 -0.1307 -0.23815
v -0.12485 -0.03765 -0.1916
v -0.22575 -0.04289995 -0.10315
v -0.2547 -0.0583 -0.05315
v -0.26735 -0.0581 0.00615
v -0.275 -0.1312 -0.1054
v -0.22575 -0.04289995 -0.10315
v -0.2547 -0.0583 -0.05315
v -0.275 -0.1312 -0.1054
v -0.26735 -0.0581 0.00615
v -0.29295 -0.05965 -0.002
v -0.275 -0.1312 -0.1054
v -0.06355 -0.03245 -0.2407
v -0.12485 -0.03765 -0.1916
v -0.1327 -0.05375 -0.2243
v -0.1327 -0.05375 -0.2243
v -0.0606 -0.0538 -0.28965
v -0.06355 -0.03245 -0.2407
v -0.1327 -0.05375 -0.2243
v -0.12485 -0.03765 -0.1916
v -0.15455 -0.1307 -0.23815
v -0.2678 0.0883 -0.1077
v -0.13055 0.09735 -0.2379
v -0.17085 -0.0063 -0.26255
v 0.0 0.3158 -0.2499
v -0.01404995 0.309 -0.2467
v 0.0 0.3095 -0.2244
v -0.0606 -0.0538 -0.28965
v 0.0 -0.10545 -0.3311
v 0.0 -0.03125 -0.2635
v -0.06355 -0.03245 -0.2407
v -0.0606 -0.0538 -0.28965
v 0.0 -0.03125 -0.2635
v 0.0 -0.03125 -0.2635
v 0.0 -0.031 -0.2629
v -0.06355 -0.03245 -0.2407
v 0.1905 0.03 0.25405
v 0.18925 -0.0796 0.27125
v 0.28735 -0.06855 0.1412
v 0.28735 -0.06855 0.1412
v 0.2947 0.063 0.13465
v 0.1905 0.03 0.25405
v 0.0786 0.01735 0.3109
v 0.085 -0.084 0.3336
v 0.18925 -0.0796 0.27125
v 0.18925 -0.0796 0.27125
v 0.1905 0.03 0.25405
v 0.0786 0.01735 0.3109
v 0.0 0.01255 0.3345
v 0.0 -0.0859 0.36145
v 0.085 -0.084 0.3336
v 0.085 -0.084 0.3336
v 0.0786 0.01735 0.3109
v 0.0 0.01255 0.3345
v 0.18955 0.3814 -0.15405
v 0.1712 0.37425 -0.1322
v 0.1866 0.3927 -0.1252
v 0.1866 0.3927 -0.1252
v 0.2061 0.39975 -0.1382
v 0.18955 0.3814 -0.15405
v 0.2678 0.0899 -0.1036
v 0.2392 0.08905 -0.0939
v 0.2547 0.07235 -0.0363
v 0.2547 0.07235 -0.0363
v 0.2854 0.0734 -0.0427
v 0.2678 0.0899 -0.1036
v 0.2638 0.0667 0.1269
v 0.2947 0.063 0.13465
v 0.3011 0.10415 0.01845
v 0.3011 0.10415 0.01845
v 0.2688 0.10235 0.0222
v 0.2638 0.0667 0.1269
v 0.1905 0.03 0.25405
v 0.2947 0.063 0.13465
v 0.2638 0.0667 0.1269
v 0.2638 0.0667 0.1269
v 0.17515 0.0378 0.22825
v 0.1905 0.03 0.25405
v 0.0718 0.0257 0.27695
v 0.0786 0.01735 0.3109
v 0.1905 0.03 0.25405
v 0.1905 0.03 0.25405
v 0.17515 0.0378 0.22825
v 0.0718 0.0257 0.27695
v 0.0 0.0227 0.29085
v 0.0 0.01255 0.3345
v 0.0786 0.01735 0.3109
v 0.0786 0.01735 0.3109
v 0.0718 0.0257 0.27695
v 0.0 0.0227 0.29085
v 0.0606 -0.05345 -0.2888
v 0.0 -0.10545 -0.3311
v 0.0 -0.01445 -0.3469
v 0.0 -0.01445 -0.3469
v 0.0297 0.0107 -0.3267
v 0.0606 -0.05345 -0.2888
v 0.1327 -0.0525 -0.2211
v 0.17085 -0.00550005 -0.26045
v 0.2633 -0.06565 -0.1131
v 0.2854 0.0734 -0.0427
v 0.3011 0.10415 0.01845
v 0.2633 -0.06565 -0.1131
v 0.2633 -0.06565 -0.1131
v 0.2678 0.0899 -0.1036
v 0.2854 0.0734 -0.0427
v 0.2633 -0.06565 -0.1131
v 0.3011 0.10415 0.01845
v 0.29295 -0.0553 0.0091
v 0.2947 0.063 0.13465
v 0.28735 -0.06855 0.1412
v 0.29295 -0.0553 0.0091
v 0.29295 -0.0553 0.0091
v 0.3011 0.10415 0.01845
v 0.2947 0.063 0.13465
v 0.2633 -0.06565 -0.1131
v 0.26005 -0.08215 -0.1622
v 0.1327 -0.0525 -0.2211
v 0.29295 -0.0553 0.0091
v 0.275 -0.1261 -0.0924
v 0.26005 -0.08215 -0.1622
v 0.09405 0.00799995 -0.2962
v 0.17085 -0.00550005 -0.26045
v 0.1327 -0.0525 -0.2211
v 0.1327 -0.0525 -0.2211
v 0.0606 -0.05345 -0.2888
v 0.09405 0.00799995 -0.2962
v 0.0606 -0.05345 -0.2888
v 0.0297 0.0107 -0.3267
v 0.066 0.0093 -0.31005
v 0.25735 -0.21385 -0.14985
v 0.2024 -0.3249 -0.24675
v 0.1998 -0.21585 -0.243
v 0.1517 -0.2136 -0.25485
v 0.1998 -0.21585 -0.243
v 0.1688 -0.3175 -0.30215
v 0.1688 -0.3175 -0.30215
v 0.13825 -0.3138 -0.306
v 0.1517 -0.2136 -0.25485
v 0.0643 0.09615 -0.22725
v 0.13195 0.09295 -0.18805
v 0.13055 0.0978 -0.2368
v 0.13055 0.0978 -0.2368
v 0.07335 0.09945 -0.2643
v 0.0643 0.09615 -0.22725
v 0.07335 0.09945 -0.2643
v 0.04220005 0.1798 -0.26675
v 0.03245005 0.17605 -0.22965
v 0.03245005 0.17605 -0.22965
v 0.0643 0.09615 -0.22725
v 0.07335 0.09945 -0.2643
v 0.03245005 0.17605 -0.22965
v 0.04220005 0.1798 -0.26675
v 0.01405005 0.309 -0.2467
v 0.01405005 0.309 -0.2467
v 0.0 0.3095 -0.2244
v 0.03245005 0.17605 -0.22965
v 0.0 0.0992 -0.26485
v 0.04220005 0.1798 -0.26675
v 0.07335 0.09945 -0.2643
v 0.0606 -0.05345 -0.2888
v 0.066 0.0093 -0.31005
v 0.09405 0.00799995 -0.2962
v 0.0297 0.0107 -0.3267
v 0.0 -0.01445 -0.3469
v 0.0 0.0992 -0.26485
v 0.17085 -0.00550005 -0.26045
v 0.09405 0.00799995 -0.2962
v 0.13055 0.0978 -0.2368
v 0.07335 0.09945 -0.2643
v 0.066 0.0093 -0.31005
v 0.0297 0.0107 -0.3267
v 0.0297 0.0107 -0.3267
v 0.0 0.0992 -0.26485
v 0.07335 0.09945 -0.2643
v 0.07335 0.09945 -0.2643
v 0.13055 0.0978 -0.2368
v 0.09405 0.00799995 -0.2962
v 0.09405 0.00799995 -0.2962
v 0.066 0.0093 -0.31005
v 0.07335 0.09945 -0.2643
v 0.2633 -0.06565 -0.1131
v 0.17085 -0.00550005 -0.26045
v 0.2678 0.0899 -0.1036
v 0.13195 0.09295 -0.18805
v 0.15135 0.23465 -0.15885
v 0.17055 0.23895 -0.183
v 0.17055 0.23895 -0.183
v 0.13055 0.0978 -0.2368
v 0.13195 0.09295 -0.18805
v 0.2678 0.0899 -0.1036
v 0.13055 0.0978 -0.2368
v 0.17055 0.23895 -0.183
v 0.17055 0.23895 -0.183
v 0.23345 0.2387 -0.1249
v 0.2678 0.0899 -0.1036
v 0.2392 0.08905 -0.0939
v 0.2678 0.0899 -0.1036
v 0.23345 0.2387 -0.1249
v 0.23345 0.2387 -0.1249
v 0.2065 0.2346 -0.11215
v 0.2392 0.08905 -0.0939
v 0.2065 0.2346 -0.11215
v 0.15135 0.23465 -0.15885
v 0.13195 0.09295 -0.18805
v 0.13195 0.09295 -0.18805
v 0.2392 0.08905 -0.0939
v 0.2065 0.2346 -0.11215
v 0.17055 0.23895 -0.183
v 0.15135 0.23465 -0.15885
v 0.1712 0.37425 -0.1322
v 0.1712 0.37425 -0.1322
v 0.18955 0.3814 -0.15405
v 0.17055 0.23895 -0.183
v 0.23345 0.2387 -0.1249
v 0.17055 0.23895 -0.183
v 0.18955 0.3814 -0.15405
v 0.18955 0.3814 -0.15405
v 0.2229 0.3848 -0.1247
v 0.23345 0.2387 -0.1249
v 0.23345 0.2387 -0.1249
v 0.2229 0.3848 -0.1247
v 0.1933 0.37625 -0.1144
v 0.1933 0.37625 -0.1144
v 0.2065 0.2346 -0.11215
v 0.23345 0.2387 -0.1249
v 0.1712 0.37425 -0.1322
v 0.15135 0.23465 -0.15885
v 0.2065 0.2346 -0.11215
v 0.2065 0.2346 -0.11215
v 0.1933 0.37625 -0.1144
v 0.1712 0.37425 -0.1322
v 0.2061 0.39975 -0.1382
v 0.1866 0.3927 -0.1252
v 0.1933 0.37625 -0.1144
v 0.1933 0.37625 -0.1144
v 0.2229 0.3848 -0.1247
v 0.2061 0.39975 -0.1382
v 0.2229 0.3848 -0.1247
v 0.18955 0.3814 -0.15405
v 0.2061 0.39975 -0.1382
v 0.1712 0.37425 -0.1322
v 0.1933 0.37625 -0.1144
v 0.1866 0.3927 -0.1252
v 0.1998 -0.21585 -0.243
v 0.22435 -0.1325 -0.2093
v 0.25735 -0.21385 -0.14985
v 0.1688 -0.3175 -0.30215
v 0.1998 -0.21585 -0.243
v 0.2024 -0.3249 -0.24675
v 0.29295 -0.0553 0.0091
v 0.26005 -0.08215 -0.1622
v 0.2633 -0.06565 -0.1131
v 0.15455 -0.1288 -0.23335
v 0.22435 -0.1325 -0.2093
v 0.1998 -0.21585 -0.243
v 0.1998 -0.21585 -0.243
v 0.1517 -0.2136 -0.25485
v 0.15455 -0.1288 -0.23335
v 0.25735 -0.21385 -0.14985
v 0.22435 -0.1325 -0.2093
v 0.26005 -0.08215 -0.1622
v 0.26005 -0.08215 -0.1622
v 0.275 -0.1261 -0.0924
v 0.25735 -0.21385 -0.14985
v 0.1688 -0.3175 -0.30215
v 0.12485 -0.3986 -0.35845
v 0.13825 -0.3138 -0.306
v 0.2024 -0.3249 -0.24675
v 0.12485 -0.3986 -0.35845
v 0.1688 -0.3175 -0.30215
v 0.12485 -0.3986 -0.35845
v 0.2024 -0.3249 -0.24675
v 0.13825 -0.3138 -0.306
v 0.2024 -0.3249 -0.24675
v 0.25735 -0.21385 -0.14985
v 0.1517 -0.2136 -0.25485
v 0.1517 -0.2136 -0.25485
v 0.13825 -0.3138 -0.306
v 0.2024 -0.3249 -0.24675
v 0.15455 -0.1288 -0.23335
v 0.1517 -0.2136 -0.25485
v 0.25735 -0.21385 -0.14985
v 0.25735 -0.21385 -0.14985
v 0.275 -0.1261 -0.0924
v 0.15455 -0.1288 -0.23335
v 0.1327 -0.0525 -0.2211
v 0.22435 -0.1325 -0.2093
v 0.15455 -0.1288 -0.23335
v 0.1327 -0.0525 -0.2211
v 0.26005 -0.08215 -0.1622
v 0.22435 -0.1325 -0.2093
v 0.2854 0.0734 -0.0427
v 0.2547 0.07235 -0.0363
v 0.2688 0.10235 0.0222
v 0.2688 0.10235 0.0222
v 0.3011 0.10415 0.01845
v 0.2854 0.0734 -0.0427
v 0.06355 -0.03195 -0.2394
v 0.12485 -0.03635005 -0.1883
v 0.13195 0.09295 -0.18805
v 0.13195 0.09295 -0.18805
v 0.0643 0.09615 -0.22725
v 0.06355 -0.03195 -0.2394
v 0.13195 0.09295 -0.18805
v 0.12485 -0.03635005 -0.1883
v 0.22575 -0.04000005 -0.0957
v 0.22575 -0.04000005 -0.0957
v 0.2392 0.08905 -0.0939
v 0.13195 0.09295 -0.18805
v 0.2547 0.07235 -0.0363
v 0.2547 -0.05455 -0.0436
v 0.26735 -0.05415 0.01625
v 0.26735 -0.05415 0.01625
v 0.2688 0.10235 0.0222
v 0.2547 0.07235 -0.0363
v 0.26735 -0.05415 0.01625
v 0.26325 -0.06515 0.1243
v 0.2638 0.0667 0.1269
v 0.2638 0.0667 0.1269
v 0.2688 0.10235 0.0222
v 0.26735 -0.05415 0.01625
v 0.26325 -0.06515 0.1243
v 0.1753 -0.0776 0.2261
v 0.17515 0.0378 0.22825
v 0.17515 0.0378 0.22825
v 0.2638 0.0667 0.1269
v 0.26325 -0.06515 0.1243
v 0.1753 -0.0776 0.2261
v 0.0722 -0.0831 0.2753
v 0.0718 0.0257 0.27695
v 0.0718 0.0257 0.27695
v 0.17515 0.0378 0.22825
v 0.1753 -0.0776 0.2261
v 0.0722 -0.0831 0.2753
v 0.0 -0.08505 0.2897
v 0.0 0.0227 0.29085
v 0.0 0.0227 0.29085
v 0.0718 0.0257 0.27695
v 0.0722 -0.0831 0.2753
v 0.22575 -0.04000005 -0.0957
v 0.2547 -0.05455 -0.0436
v 0.2547 0.07235 -0.0363
v 0.2547 0.07235 -0.0363
v 0.2392 0.08905 -0.0939
v 0.22575 -0.04000005 -0.0957
v 0.26325 -0.06515 0.1243
v 0.26735 -0.05415 0.01625
v 0.29295 -0.0553 0.0091
v 0.29295 -0.0553 0.0091
v 0.28735 -0.06855 0.1412
v 0.26325 -0.06515 0.1243
v 0.1753 -0.0776 0.2261
v 0.26325 -0.06515 0.1243
v 0.28735 -0.06855 0.1412
v 0.28735 -0.06855 0.1412
v 0.18925 -0.0796 0.27125
v 0.1753 -0.0776 0.2261
v 0.18925 -0.0796 0.27125
v 0.085 -0.084 0.3336
v 0.0722 -0.0831 0.2753
v 0.0722 -0.0831 0.2753
v 0.1753 -0.0776 0.2261
v 0.18925 -0.0796 0.27125
v 0.0 -0.08505 0.2897
v 0.0722 -0.0831 0.2753
v 0.085 -0.084 0.3336
v 0.085 -0.084 0.3336
v 0.0 -0.0859 0.36145
v 0.0 -0.08505 0.2897
v 0.22575 -0.04000005 -0.0957
v 0.12485 -0.03635005 -0.1883
v 0.15455 -0.1288 -0.23335
v 0.15455 -0.1288 -0.23335
v 0.275 -0.1261 -0.0924
v 0.22575 -0.04000005 -0.0957
v 0.2547 -0.05455 -0.0436
v 0.275 -0.1261 -0.0924
v 0.26735 -0.05415 0.01625
v 0.22575 -0.04000005 -0.0957
v 0.275 -0.1261 -0.0924
v 0.2547 -0.05455 -0.0436
v 0.26735 -0.05415 0.01625
v 0.275 -0.1261 -0.0924
v 0.29295 -0.0553 0.0091
v 0.06355 -0.03195 -0.2394
v 0.0606 -0.05345 -0.2888
v 0.1327 -0.0525 -0.2211
v 0.1327 -0.0525 -0.2211
v 0.12485 -0.03635005 -0.1883
v 0.06355 -0.03195 -0.2394
v 0.1327 -0.0525 -0.2211
v 0.15455 -0.1288 -0.23335
v 0.12485 -0.03635005 -0.1883
v 0.2678 0.0899 -0.1036
v 0.17085 -0.00550005 -0.26045
v 0.13055 0.0978 -0.2368
v 0.0 0.3158 -0.2499
v 0.0 0.3095 -0.2244
v 0.01405005 0.309 -0.2467
v 0.0606 -0.05345 -0.2888
v 0.0 -0.03125 -0.2635
v 0.0 -0.10545 -0.3311
v 0.0 -0.03125 -0.2635
v 0.0606 -0.05345 -0.2888
v 0.06355 -0.03195 -0.2394
v 0.06355 -0.03195 -0.2394
v 0.0 -0.031 -0.2629
v 0.0 -0.03125 -0.2635
v 0.03245005 0.17605 -0.22965
v 0.03245005 0.17605 -0.22965
v 0.0 0.3095 -0.2244
v 0.0 0.3095 -0.2244
v 0.0 0.17605 -0.2295
v 0.03245005 0.17605 -0.22965
v 0.0 0.17975 -0.2669
v -0.04219995 0.17975 -0.2669
v -0.01404995 0.309 -0.2467
v -0.01404995 0.309 -0.2467
v 0.0 0.3158 -0.2499
v 0.0 0.17975 -0.2669
v 0.01405005 0.309 -0.2467
v 0.04220005 0.1798 -0.26675
v 0.0 0.17975 -0.2669
v 0.0 0.17975 -0.2669
v 0.0 0.3158 -0.2499
v 0.01405005 0.309 -0.2467
v 0.0 0.17975 -0.2669
v 0.0 0.0992 -0.26485
v -0.04219995 0.17975 -0.2669
v 0.04220005 0.1798 -0.26675
v 0.0 0.0992 -0.26485
v 0.0 0.17975 -0.2669
v -0.03245 0.176 -0.22935
v 0.0 -0.031 -0.2629
v 0.0 0.17605 -0.2295
v 0.0 0.3095 -0.2244
v -0.03245 0.176 -0.22935
v 0.0 0.17605 -0.2295
v 0.0 -0.031 -0.2629
v 0.03245005 0.17605 -0.22965
v 0.0 0.17605 -0.2295
v -0.0643 0.0959 -0.22745
v -0.06355 -0.03245 -0.2407
v 0.0 -0.031 -0.2629
v 0.0 -0.031 -0.2629
v -0.03245 0.176 -0.22935
v -0.0643 0.0959 -0.22745
v 0.0 -0.031 -0.2629
v 0.06355 -0.03195 -0.2394
v 0.0643 0.09615 -0.22725
v 0.0643 0.09615 -0.22725
v 0.03245005 0.17605 -0.22965
v 0.0 -0.031 -0.2629
v 0.0643 0.09615 -0.22725
v 0.03245005 0.17605 -0.22965
v 0.03245005 0.17605 -0.22965

vn -0.6618 0.0742001 0.746
vn -0.9529 -0.0479999 0.2996
vn -0.9297 -0.0217999 0.3675
vn -0.9297 -0.0217999 0.3675
vn -0.6415 0.1301 0.756
vn -0.6618 0.0742001 0.746
vn -0.3867 0.2019 0.8998
vn -0.6618 0.0742001 0.746
vn -0.6415 0.1301 0.756
vn -0.6415 0.1301 0.756
vn -0.398 0.2325 0.8874
vn -0.3867 0.2019 0.8998
vn -0.00289996 0.2486 0.9686
vn -0.3867 0.2019 0.8998
vn -0.398 0.2325 0.8874
vn -0.398 0.2325 0.8874
vn -0.00279996 0.2641 0.9645
vn -0.00289996 0.2486 0.9686
vn 0.5922 0.7282 -0.3449
vn 0.5188 0.777 -0.3566
vn 0.591 0.7291 -0.3451
vn 0.591 0.7291 -0.3451
vn 0.6592 0.6752 -0.3309
vn 0.5922 0.7282 -0.3449
vn -0.0444999 0.961 0.2729
vn -0.0361999 0.9593 0.2801
vn -0.0562999 0.9632 0.2627
vn -0.0562999 0.9632 0.2627
vn -0.0641998 0.9646 0.2558
vn -0.0444999 0.961 0.2729
vn 0.00670014 0.9463 0.3231
vn -0.00169986 0.9455 0.3257
vn -0.0404999 0.9473 0.3179
vn -0.0404999 0.9473 0.3179
vn -0.0399999 0.9478 0.3164
vn 0.00670014 0.9463 0.3231
vn -0.0399999 0.9478 0.3164
vn -0.0404999 0.9473 0.3179
vn -0.0224999 0.9637 0.2662
vn -0.0224999 0.9637 0.2662
vn -0.0244999 0.9621 0.2718
vn -0.0399999 0.9478 0.3164
vn -0.0141999 0.9718 0.2352
vn -0.0244999 0.9621 0.2718
vn -0.0224999 0.9637 0.2662
vn -0.0224999 0.9637 0.2662
vn -0.0131999 0.9728 0.2312
vn -0.0141999 0.9718 0.2352
vn -0.00219985 0.9735 0.2287
vn -0.0141999 0.9718 0.2352
vn -0.0131999 0.9728 0.2312
vn -0.0131999 0.9728 0.2312
vn -0.00199985 0.974 0.2264
vn -0.00219985 0.9735 0.2287
vn -0.5069 -0.3216 -0.7998
vn -0.5433 -0.2083 -0.8133
vn 0.00349997 -0.1759 -0.9844
vn 0.00349997 -0.1759 -0.9844
vn 0.00499997 -0.1715 -0.9852
vn -0.5069 -0.3216 -0.7998
vn -0.401 -0.7483 -0.5285
vn -0.3549 -0.7428 -0.5677
vn -0.3951 -0.6676 -0.6311
vn -0.9932 -0.0394999 -0.1091
vn -0.9957 -0.0427999 -0.0821
vn -0.9683 -0.0203999 -0.249
vn -0.9683 -0.0203999 -0.249
vn -0.9182 0.00280014 -0.396
vn -0.9932 -0.0394999 -0.1091
vn -0.9182 0.00280014 -0.396
vn -0.9683 -0.0203999 -0.249
vn -0.8339 0.0868001 -0.545
vn -0.9529 -0.0479999 0.2996
vn -0.9957 -0.0427999 -0.0821
vn -0.9932 -0.0394999 -0.1091
vn -0.9932 -0.0394999 -0.1091
vn -0.9297 -0.0217999 0.3675
vn -0.9529 -0.0479999 0.2996
vn -0.3533 0.8795 -0.3189
vn -0.3855 0.4663 -0.7962
vn -0.4048 0.7568 -0.5132
vn -0.9699 0.1257 -0.2084
vn -0.9365 0.0306001 -0.3492
vn -0.9758 0.00870015 -0.2183
vn -0.401 -0.7483 -0.5285
vn -0.3951 -0.6676 -0.6311
vn -0.3664 -0.3035 -0.8796
vn -0.3664 -0.3035 -0.8796
vn -0.5069 -0.3216 -0.7998
vn -0.401 -0.7483 -0.5285
vn -0.5069 -0.3216 -0.7998
vn -0.3875 -0.3184 -0.8652
vn -0.5433 -0.2083 -0.8133
vn -0.8668 -0.00539987 -0.4987
vn -0.8317 0.0316001 -0.5543
vn -0.831 0.0269001 -0.5557
vn -0.2047 0.3459 -0.9157
vn -0.1437 0.4623 -0.875
vn -0.1526 0.4563 -0.8766
vn -0.1526 0.4563 -0.8766
vn -0.2324 0.3331 -0.9138
vn -0.2047 0.3459 -0.9157
vn 0.0156001 0.9944 0.1044
vn 0.00860015 0.995 0.099
vn -0.00239985 0.9959 0.0905
vn -0.00239985 0.9959 0.0905
vn 0.00380015 0.9954 0.0953
vn 0.0156001 0.9944 0.1044
vn -0.9212 0.267 0.2831
vn -0.9267 0.2669 0.2644
vn -0.9005 0.3554 0.2505
vn -0.9005 0.3554 0.2505
vn -0.8986 0.357 0.2552
vn -0.9212 0.267 0.2831
vn -0.9212 0.267 0.2831
vn -0.00079995 0.3312 0.9435
vn -0.8566 0.1816 0.4829
vn -0.8566 0.1816 0.4829
vn -0.9267 0.2669 0.2644
vn -0.9212 0.267 0.2831
vn 0.00280005 0.3168 -0.9485
vn -0.2012 0.3418 -0.918
vn -0.000700004 -0.0258 -0.9997
vn -0.5069 -0.3216 -0.7998
vn -0.3664 -0.3035 -0.8796
vn -0.3875 -0.3184 -0.8652
vn -0.0543999 0.5846 -0.8095
vn 0.000900088 0.5854 -0.8107
vn 0.000900088 0.5854 -0.8107
vn -0.6383 0.2995 -0.7091
vn -0.5733 0.3129 -0.7573
vn -0.4208 0.3767 -0.8252
vn -0.2012 0.3418 -0.918
vn 0.00280005 0.3168 -0.9485
vn -0.2438 0.4724 -0.847
vn -0.2438 0.4724 -0.847
vn -0.4023 0.3871 -0.8296
vn -0.2012 0.3418 -0.918
vn -0.2012 0.3418 -0.918
vn -0.4023 0.3871 -0.8296
vn -0.4208 0.3767 -0.8252
vn -0.4208 0.3767 -0.8252
vn -0.5733 0.3129 -0.7573
vn -0.2012 0.3418 -0.918
vn -0.9182 0.00280014 -0.396
vn -0.8339 0.0868001 -0.545
vn -0.6383 0.2995 -0.7091
vn 0.9665 0.2558 -0.022
vn 0.9661 0.2525 0.0545
vn 0.8155 0.2339 -0.5294
vn 0.8155 0.2339 -0.5294
vn 0.7818 0.2274 -0.5806
vn 0.9665 0.2558 -0.022
vn -0.8339 0.0868001 -0.545
vn -0.6734 0.0635001 -0.7366
vn -0.6796 0.0699001 -0.7302
vn -0.6796 0.0699001 -0.7302
vn -0.5733 0.3129 -0.7573
vn -0.8339 0.0868001 -0.545
vn -0.3288 0.185 0.9261
vn -0.4061 0.1055 0.9077
vn -0.4092 0.1024 0.9067
vn -0.4092 0.1024 0.9067
vn -0.3196 0.1852 0.9293
vn -0.3288 0.185 0.9261
vn 0.5988 -0.00660009 0.8009
vn 0.645 -0.0632001 0.7616
vn 0.6416 -0.0604001 0.7647
vn 0.6416 -0.0604001 0.7647
vn 0.7682 -0.00870012 0.6401
vn 0.5988 -0.00660009 0.8009
vn 0.7816 0.2241 -0.5821
vn 0.7818 0.2274 -0.5806
vn 0.8155 0.2339 -0.5294
vn 0.8155 0.2339 -0.5294
vn 0.7817 0.2241 -0.582
vn 0.7816 0.2241 -0.5821
vn -0.6734 0.0635001 -0.7366
vn -0.6558 0.0546001 -0.7529
vn -0.6604 0.0564001 -0.7488
vn -0.6604 0.0564001 -0.7488
vn -0.6796 0.0699001 -0.7302
vn -0.6734 0.0635001 -0.7366
vn -0.3178 0.0389 0.9473
vn -0.3337 0.0367001 0.9419
vn -0.4092 0.1024 0.9067
vn -0.4092 0.1024 0.9067
vn -0.4061 0.1055 0.9077
vn -0.3178 0.0389 0.9473
vn 0.6292 -0.0522001 0.7754
vn 0.6242 -0.0504001 0.7796
vn 0.6416 -0.0604001 0.7647
vn 0.6416 -0.0604001 0.7647
vn 0.645 -0.0632001 0.7616
vn 0.6292 -0.0522001 0.7754
vn -0.1317 0.6689 0.7316
vn -0.0468999 0.6979 0.7146
vn -0.1601 0.6578 0.736
vn -0.1601 0.6578 0.736
vn -0.2801 0.6033 0.7468
vn -0.1317 0.6689 0.7316
vn -0.6558 0.0546001 -0.7529
vn -0.6554 0.0588001 -0.753
vn -0.6604 0.0564001 -0.7488
vn 0.6231 0.2368 0.7455
vn 0.6231 0.2368 0.7455
vn 0.6231 0.2368 0.7455
vn -0.8317 0.0316001 -0.5543
vn -0.8668 -0.00539987 -0.4987
vn -0.8199 -0.0323999 -0.5716
vn -0.8269 -0.0281999 -0.5617
vn -0.831 0.0269001 -0.5557
vn -0.8317 0.0316001 -0.5543
vn -0.9699 0.1257 -0.2084
vn -0.7959 0.5557 -0.2403
vn -0.9365 0.0306001 -0.3492
vn -0.286 0.2604 -0.9222
vn -0.2047 0.3459 -0.9157
vn -0.2324 0.3331 -0.9138
vn -0.2324 0.3331 -0.9138
vn -0.3629 0.3391 -0.8679
vn -0.286 0.2604 -0.9222
vn -0.8668 -0.00539987 -0.4987
vn -0.9365 0.0306001 -0.3492
vn -0.8199 -0.0323999 -0.5716
vn -0.9365 0.0306001 -0.3492
vn -0.8668 -0.00539987 -0.4987
vn -0.9758 0.00870015 -0.2183
vn -0.1526 0.4563 -0.8766
vn -0.1437 0.4623 -0.875
vn -0.1461 0.4911 -0.8588
vn -0.831 0.0269001 -0.5557
vn -0.8269 -0.0281999 -0.5617
vn -0.8207 -0.0746999 -0.5664
vn 0.6418 -0.3162 0.6986
vn 0.6433 -0.2983 0.7051
vn 0.6469 -0.2851 0.7073
vn 0.6469 -0.2851 0.7073
vn 0.6433 -0.2983 0.7051
vn 0.6573 -0.2315 0.7172
vn 0.6573 -0.2315 0.7172
vn 0.6851 -0.2614 0.6799
vn 0.6469 -0.2851 0.7073
vn 0.6628 -0.3273 0.6735
vn 0.7571 -0.3822 0.5298
vn 0.6851 -0.2614 0.6799
vn 0.6851 -0.2614 0.6799
vn 0.6573 -0.2315 0.7172
vn 0.6628 -0.3273 0.6735
vn -0.3855 0.4663 -0.7962
vn -0.286 0.2604 -0.9222
vn -0.3629 0.3391 -0.8679
vn -0.3855 0.4663 -0.7962
vn -0.3629 0.3391 -0.8679
vn -0.4048 0.7568 -0.5132
vn 0.116 0.8962 -0.4283
vn 0.101 0.8992 -0.4258
vn 0.1064 0.8981 -0.4267
vn 0.1064 0.8981 -0.4267
vn 0.1218 0.895 -0.4292
vn 0.116 0.8962 -0.4283
vn 0.5988 -0.00660009 0.8009
vn 0.6209 -0.0103001 0.7838
vn 0.6272 -0.0760001 0.7752
vn 0.6272 -0.0760001 0.7752
vn 0.538 -0.0174001 0.8427
vn 0.5988 -0.00660009 0.8009
vn 0.5988 -0.00660009 0.8009
vn 0.7682 -0.00870012 0.6401
vn 0.767 0.0494999 0.6397
vn 0.767 0.0494999 0.6397
vn 0.6209 -0.0103001 0.7838
vn 0.5988 -0.00660009 0.8009
vn 0.97 -0.0169001 0.2425
vn 0.9967 0.00129985 0.0815
vn 0.9957 -0.00260015 0.0926
vn 0.9957 -0.00260015 0.0926
vn 0.9453 0.00989986 0.326
vn 0.97 -0.0169001 0.2425
vn 0.9477 0.0179999 -0.3187
vn 0.9313 0.0254999 -0.3633
vn 0.9957 -0.00260015 0.0926
vn 0.9957 -0.00260015 0.0926
vn 0.9967 0.00129985 0.0815
vn 0.9477 0.0179999 -0.3187
vn 0.6291 0.0231999 -0.777
vn 0.6186 0.0306999 -0.7851
vn 0.9313 0.0254999 -0.3633
vn 0.9313 0.0254999 -0.3633
vn 0.9477 0.0179999 -0.3187
vn 0.6291 0.0231999 -0.777
vn 0.3287 0.0155 -0.9443
vn 0.3303 0.0216 -0.9436
vn 0.6186 0.0306999 -0.7851
vn 0.6186 0.0306999 -0.7851
vn 0.6291 0.0231999 -0.777
vn 0.3287 0.0155 -0.9443
vn 0.0046 0.0107 -0.9999
vn 0.0076 0.0147 -0.9999
vn 0.3303 0.0216 -0.9436
vn 0.3303 0.0216 -0.9436
vn 0.3287 0.0155 -0.9443
vn 0.0046 0.0107 -0.9999
vn 0.97 -0.0169001 0.2425
vn 0.9453 0.00989986 0.326
vn 0.767 0.0494999 0.6397
vn 0.767 0.0494999 0.6397
vn 0.7682 -0.00870012 0.6401
vn 0.97 -0.0169001 0.2425
vn 0.0665999 -0.9911 -0.1149
vn 0.0524998 -0.9923 -0.1119
vn 0.0891998 -0.9911 -0.0986
vn 0.0891998 -0.9911 -0.0986
vn 0.0912999 -0.9909 -0.0991
vn 0.0665999 -0.9911 -0.1149
vn -0.0205002 -0.9989 -0.0426
vn -0.0171002 -0.9991 -0.0376
vn 0.0524998 -0.9923 -0.1119
vn 0.0524998 -0.9923 -0.1119
vn 0.0665999 -0.9911 -0.1149
vn -0.0205002 -0.9989 -0.0426
vn -0.0262002 -0.9995 -0.0151
vn -0.0214002 -0.9996 -0.0165
vn -0.0171002 -0.9991 -0.0376
vn -0.0171002 -0.9991 -0.0376
vn -0.0205002 -0.9989 -0.0426
vn -0.0262002 -0.9995 -0.0151
vn 0.00169985 -0.9999 -0.0136
vn 0.00109985 -0.9999 -0.0117
vn -0.0214002 -0.9996 -0.0165
vn -0.0214002 -0.9996 -0.0165
vn -0.0262002 -0.9995 -0.0151
vn 0.00169985 -0.9999 -0.0136
vn 0.7212 -0.4512 0.5257
vn 0.7571 -0.3822 0.5298
vn 0.6628 -0.3273 0.6735
vn 0.6628 -0.3273 0.6735
vn 0.5837 -0.5047 0.6361
vn 0.7212 -0.4512 0.5257
vn 0.8718 -0.4217 0.2492
vn 0.9006 -0.3894 0.193
vn 0.7571 -0.3822 0.5298
vn 0.7212 -0.4512 0.5257
vn 0.8718 -0.4217 0.2492
vn 0.7571 -0.3822 0.5298
vn -0.1247 -0.826 0.5497
vn -0.1247 -0.826 0.5497
vn -0.1247 -0.826 0.5497
vn 0.2861 -0.8751 0.3904
vn 0.3497 -0.8711 0.3449
vn 0.351 -0.8651 0.3583
vn 0.351 -0.8651 0.3583
vn 0.1224 -0.8238 0.5535
vn 0.2861 -0.8751 0.3904
vn 0.9614 -0.2542 -0.1055
vn 0.9614 -0.2542 -0.1055
vn 0.9614 -0.2542 -0.1055
vn -0.8339 0.0868001 -0.545
vn -0.5733 0.3129 -0.7573
vn -0.6383 0.2995 -0.7091
vn -0.000199853 0.9709 0.2397
vn -0.3827 0.897 0.2214
vn -9.98534e-05 0.9709 0.2397
vn 0.1224 -0.8238 0.5535
vn -0.0037001 -0.6735 0.7391
vn -0.000900128 -0.8509 0.5252
vn 0.2861 -0.8751 0.3904
vn 0.1224 -0.8238 0.5535
vn -0.000900128 -0.8509 0.5252
vn -0.000900128 -0.8509 0.5252
vn -0.00120014 -0.9158 0.4017
vn 0.2861 -0.8751 0.3904
vn 0.6491 0.0855999 0.7559
vn 0.6244 0.1369 0.769
vn 0.9225 -0.0105001 0.3858
vn 0.9225 -0.0105001 0.3858
vn 0.9536 -0.0384001 0.2986
vn 0.6491 0.0855999 0.7559
vn 0.3762 0.2036 0.9039
vn 0.387 0.2327 0.8922
vn 0.6244 0.1369 0.769
vn 0.6244 0.1369 0.769
vn 0.6491 0.0855999 0.7559
vn 0.3762 0.2036 0.9039
vn -0.00289996 0.2486 0.9686
vn -0.00279996 0.2641 0.9645
vn 0.387 0.2327 0.8922
vn 0.387 0.2327 0.8922
vn 0.3762 0.2036 0.9039
vn -0.00289996 0.2486 0.9686
vn -0.5922 0.7282 -0.3449
vn -0.6592 0.6752 -0.3309
vn -0.591 0.7291 -0.3451
vn -0.591 0.7291 -0.3451
vn -0.5188 0.7769 -0.3566
vn -0.5922 0.7282 -0.3449
vn 0.0544001 0.9675 0.247
vn 0.0458001 0.9661 0.2542
vn 0.0238001 0.9618 0.2728
vn 0.0238001 0.9618 0.2728
vn 0.0328001 0.9636 0.2653
vn 0.0544001 0.9675 0.247
vn 0.0299001 0.9476 0.318
vn 0.0309001 0.9472 0.3192
vn -0.00809986 0.946 0.3242
vn -0.00809986 0.946 0.3242
vn -0.0164999 0.9467 0.3216
vn 0.0299001 0.9476 0.318
vn 0.0168001 0.9615 0.2743
vn 0.0309001 0.9472 0.3192
vn 0.0299001 0.9476 0.318
vn 0.0299001 0.9476 0.318
vn 0.0185001 0.9598 0.2801
vn 0.0168001 0.9615 0.2743
vn 0.00860015 0.9707 0.2402
vn 0.00800015 0.9719 0.2351
vn 0.0168001 0.9615 0.2743
vn 0.0168001 0.9615 0.2743
vn 0.0185001 0.9598 0.2801
vn 0.00860015 0.9707 0.2402
vn -0.00219985 0.9735 0.2287
vn -0.00199985 0.974 0.2264
vn 0.00800015 0.9719 0.2351
vn 0.00800015 0.9719 0.2351
vn 0.00860015 0.9707 0.2402
vn -0.00219985 0.9735 0.2287
vn 0.515 -0.3274 -0.7922
vn 0.00499997 -0.1715 -0.9852
vn 0.00349997 -0.1759 -0.9844
vn 0.00349997 -0.1759 -0.9844
vn 0.5483 -0.2138 -0.8085
vn 0.515 -0.3274 -0.7922
vn 0.4122 -0.7578 -0.5058
vn 0.4089 -0.6788 -0.61
vn 0.3715 -0.7544 -0.5411
vn 0.9684 -0.0283001 -0.2478
vn 0.9953 -0.0462001 -0.085
vn 0.9223 -0.0115001 -0.3863
vn 0.9223 -0.0115001 -0.3863
vn 0.839 0.0746999 -0.539
vn 0.9684 -0.0283001 -0.2478
vn 0.9223 -0.0115001 -0.3863
vn 0.9953 -0.0462001 -0.085
vn 0.9936 -0.0450002 -0.1034
vn 0.9536 -0.0384001 0.2986
vn 0.9225 -0.0105001 0.3858
vn 0.9936 -0.0450002 -0.1034
vn 0.9936 -0.0450002 -0.1034
vn 0.9953 -0.0462001 -0.085
vn 0.9536 -0.0384001 0.2986
vn 0.3526 0.8796 -0.3193
vn 0.4107 0.7585 -0.5059
vn 0.4054 0.4542 -0.7933
vn 0.9721 0.115 -0.2046
vn 0.9774 -0.00210015 -0.2112
vn 0.9399 0.0121999 -0.3414
vn 0.3774 -0.3109 -0.8723
vn 0.4089 -0.6788 -0.61
vn 0.4122 -0.7578 -0.5058
vn 0.4122 -0.7578 -0.5058
vn 0.515 -0.3274 -0.7922
vn 0.3774 -0.3109 -0.8723
vn 0.515 -0.3274 -0.7922
vn 0.5483 -0.2138 -0.8085
vn 0.3944 -0.3247 -0.8597
vn 0.8826 -0.0262001 -0.4693
vn 0.8537 0.0100999 -0.5206
vn 0.8517 0.0126999 -0.5239
vn 0.2348 0.3415 -0.9101
vn 0.2627 0.3234 -0.9091
vn 0.1765 0.459 -0.8707
vn 0.1765 0.459 -0.8707
vn 0.167 0.467 -0.8683
vn 0.2348 0.3415 -0.9101
vn -0.00369985 0.9961 0.0881
vn -0.0127998 0.9954 0.0951
vn -0.0185998 0.9949 0.0995
vn -0.0185998 0.9949 0.0995
vn -0.00879985 0.9957 0.092
vn -0.00369985 0.9961 0.0881
vn 0.8996 0.3568 0.2517
vn 0.9259 0.2676 0.2668
vn 0.9201 0.268 0.2855
vn 0.9201 0.268 0.2855
vn 0.8975 0.3586 0.2567
vn 0.8996 0.3568 0.2517
vn 0.9201 0.268 0.2855
vn 0.9259 0.2676 0.2668
vn 0.8563 0.1808 0.4838
vn 0.8563 0.1808 0.4838
vn -0.00079995 0.3312 0.9435
vn 0.9201 0.268 0.2855
vn 0.00280005 0.3168 -0.9485
vn 0.0075 -0.0278 -0.9996
vn 0.2077 0.3407 -0.917
vn 0.515 -0.3274 -0.7922
vn 0.3944 -0.3247 -0.8597
vn 0.3774 -0.3109 -0.8723
vn 0.0562001 0.5845 -0.8094
vn 0.000900088 0.5854 -0.8107
vn 0.000900088 0.5854 -0.8107
vn 0.6452 0.295 -0.7048
vn 0.4285 0.3748 -0.8222
vn 0.581 0.3094 -0.7528
vn 0.2077 0.3407 -0.917
vn 0.4077 0.3864 -0.8273
vn 0.2479 0.4725 -0.8457
vn 0.2479 0.4725 -0.8457
vn 0.00280005 0.3168 -0.9485
vn 0.2077 0.3407 -0.917
vn 0.2077 0.3407 -0.917
vn 0.581 0.3094 -0.7528
vn 0.4285 0.3748 -0.8222
vn 0.4285 0.3748 -0.8222
vn 0.4077 0.3864 -0.8273
vn 0.2077 0.3407 -0.917
vn 0.9223 -0.0115001 -0.3863
vn 0.6452 0.295 -0.7048
vn 0.839 0.0746999 -0.539
vn -0.9663 0.2564 -0.0237
vn -0.7822 0.2247 -0.581
vn -0.8162 0.2318 -0.5293
vn -0.8162 0.2318 -0.5293
vn -0.9659 0.2536 0.053
vn -0.9663 0.2564 -0.0237
vn 0.839 0.0746999 -0.539
vn 0.581 0.3094 -0.7528
vn 0.6842 0.0621999 -0.7267
vn 0.6842 0.0621999 -0.7267
vn 0.6759 0.0539999 -0.735
vn 0.839 0.0746999 -0.539
vn 0.3182 0.2039 0.9258
vn 0.3082 0.2042 0.9291
vn 0.4051 0.1141 0.9071
vn 0.4051 0.1141 0.9071
vn 0.4024 0.1179 0.9078
vn 0.3182 0.2039 0.9258
vn -0.6442 -0.0508999 0.7631
vn -0.6494 -0.0551999 0.7584
vn -0.6104 0.00590009 0.792
vn -0.6104 0.00590009 0.792
vn -0.7721 0.00740012 0.6355
vn -0.6442 -0.0508999 0.7631
vn -0.8162 0.2318 -0.5293
vn -0.7822 0.2247 -0.581
vn -0.7817 0.2223 -0.5827
vn -0.7817 0.2223 -0.5827
vn -0.7818 0.2223 -0.5826
vn -0.8162 0.2318 -0.5293
vn 0.6759 0.0539999 -0.735
vn 0.6842 0.0621999 -0.7267
vn 0.6612 0.0531999 -0.7483
vn 0.6612 0.0531999 -0.7483
vn 0.6561 0.0512999 -0.7529
vn 0.6759 0.0539999 -0.735
vn 0.4051 0.1141 0.9071
vn 0.3321 0.0423 0.9423
vn 0.3163 0.0445 0.9476
vn 0.3163 0.0445 0.9476
vn 0.4024 0.1179 0.9078
vn 0.4051 0.1141 0.9071
vn -0.6303 -0.0479999 0.7749
vn -0.6494 -0.0551999 0.7584
vn -0.6442 -0.0508999 0.7631
vn -0.6442 -0.0508999 0.7631
vn -0.6246 -0.0458999 0.7796
vn -0.6303 -0.0479999 0.7749
vn 0.1315 0.6691 0.7314
vn 0.2798 0.6036 0.7466
vn 0.1599 0.658 0.7358
vn 0.1599 0.658 0.7358
vn 0.0467001 0.6981 0.7144
vn 0.1315 0.6691 0.7314
vn 0.6561 0.0512999 -0.7529
vn 0.6612 0.0531999 -0.7483
vn 0.6555 0.0583999 -0.753
vn -0.6231 0.2371 0.7454
vn -0.6231 0.2371 0.7454
vn -0.6231 0.2371 0.7454
vn 0.8517 0.0126999 -0.5239
vn 0.8384 -0.0562001 -0.5421
vn 0.8826 -0.0262001 -0.4693
vn 0.8511 -0.0492001 -0.5227
vn 0.8517 0.0126999 -0.5239
vn 0.8537 0.0100999 -0.5206
vn 0.9721 0.115 -0.2046
vn 0.9399 0.0121999 -0.3414
vn 0.7958 0.556 -0.2399
vn 0.3144 0.2484 -0.9162
vn 0.3886 0.3289 -0.8607
vn 0.2627 0.3234 -0.9091
vn 0.2627 0.3234 -0.9091
vn 0.2348 0.3415 -0.9101
vn 0.3144 0.2484 -0.9162
vn 0.8826 -0.0262001 -0.4693
vn 0.8384 -0.0562001 -0.5421
vn 0.9399 0.0121999 -0.3414
vn 0.9399 0.0121999 -0.3414
vn 0.9774 -0.00210015 -0.2112
vn 0.8826 -0.0262001 -0.4693
vn 0.1765 0.459 -0.8707
vn 0.1685 0.499 -0.8501
vn 0.167 0.467 -0.8683
vn 0.8537 0.0100999 -0.5206
vn 0.8457 -0.0935001 -0.5254
vn 0.8511 -0.0492001 -0.5227
vn -0.6737 -0.3088 0.6714
vn -0.6787 -0.2712 0.6825
vn -0.6761 -0.289 0.6777
vn -0.6787 -0.2712 0.6825
vn -0.711 -0.2422 0.6602
vn -0.6879 -0.217 0.6926
vn -0.6879 -0.217 0.6926
vn -0.6761 -0.289 0.6777
vn -0.6787 -0.2712 0.6825
vn -0.6846 -0.3101 0.6597
vn -0.6879 -0.217 0.6926
vn -0.711 -0.2422 0.6602
vn -0.711 -0.2422 0.6602
vn -0.7739 -0.3674 0.5158
vn -0.6846 -0.3101 0.6597
vn 0.4054 0.4542 -0.7933
vn 0.3886 0.3289 -0.8607
vn 0.3144 0.2484 -0.9162
vn 0.4054 0.4542 -0.7933
vn 0.4107 0.7585 -0.5059
vn 0.3886 0.3289 -0.8607
vn -0.1149 0.8958 -0.4293
vn -0.1207 0.8946 -0.4302
vn -0.1054 0.8977 -0.4277
vn -0.1054 0.8977 -0.4277
vn -0.0999999 0.8988 -0.4268
vn -0.1149 0.8958 -0.4293
vn -0.6416 -0.0684999 0.764
vn -0.6362 -0.000199904 0.7715
vn -0.6104 0.00590009 0.792
vn -0.6104 0.00590009 0.792
vn -0.5526 -0.00739992 0.8334
vn -0.6416 -0.0684999 0.764
vn -0.6104 0.00590009 0.792
vn -0.6362 -0.000199904 0.7715
vn -0.7765 0.0664001 0.6266
vn -0.7765 0.0664001 0.6266
vn -0.7721 0.00740012 0.6355
vn -0.6104 0.00590009 0.792
vn -0.9705 -0.00809985 0.241
vn -0.948 0.0201001 0.3176
vn -0.9961 0.00110015 0.0887
vn -0.9961 0.00110015 0.0887
vn -0.9964 0.00440015 0.0847
vn -0.9705 -0.00809985 0.241
vn -0.9961 0.00110015 0.0887
vn -0.9235 0.0134001 -0.3834
vn -0.9475 0.00950014 -0.3197
vn -0.9475 0.00950014 -0.3197
vn -0.9964 0.00440015 0.0847
vn -0.9961 0.00110015 0.0887
vn -0.9235 0.0134001 -0.3834
vn -0.6 0.0153001 -0.7998
vn -0.6194 0.0129001 -0.785
vn -0.6194 0.0129001 -0.785
vn -0.9475 0.00950014 -0.3197
vn -0.9235 0.0134001 -0.3834
vn -0.6 0.0153001 -0.7998
vn -0.313 0.0144 -0.9497
vn -0.3174 0.0122 -0.9482
vn -0.3174 0.0122 -0.9482
vn -0.6194 0.0129001 -0.785
vn -0.6 0.0153001 -0.7998
vn -0.313 0.0144 -0.9497
vn 0.0076 0.0147 -0.9999
vn 0.0046 0.0107 -0.9999
vn 0.0046 0.0107 -0.9999
vn -0.3174 0.0122 -0.9482
vn -0.313 0.0144 -0.9497
vn -0.7765 0.0664001 0.6266
vn -0.948 0.0201001 0.3176
vn -0.9705 -0.00809985 0.241
vn -0.9705 -0.00809985 0.241
vn -0.7721 0.00740012 0.6355
vn -0.7765 0.0664001 0.6266
vn -0.0529002 -0.991 -0.123
vn -0.0733001 -0.9919 -0.1038
vn -0.0723002 -0.992 -0.1035
vn -0.0723002 -0.992 -0.1035
vn -0.0390001 -0.9919 -0.121
vn -0.0529002 -0.991 -0.123
vn 0.0271998 -0.9981 -0.0558
vn -0.0529002 -0.991 -0.123
vn -0.0390001 -0.9919 -0.121
vn -0.0390001 -0.9919 -0.121
vn 0.0214998 -0.9985 -0.0512
vn 0.0271998 -0.9981 -0.0558
vn 0.0214998 -0.9985 -0.0512
vn 0.0265998 -0.9994 -0.0224
vn 0.0330998 -0.9992 -0.0223
vn 0.0330998 -0.9992 -0.0223
vn 0.0271998 -0.9981 -0.0558
vn 0.0214998 -0.9985 -0.0512
vn 0.00169985 -0.9999 -0.0136
vn 0.0330998 -0.9992 -0.0223
vn 0.0265998 -0.9994 -0.0224
vn 0.0265998 -0.9994 -0.0224
vn 0.00109985 -0.9999 -0.0117
vn 0.00169985 -0.9999 -0.0136
vn -0.7327 -0.4374 0.5213
vn -0.5958 -0.4983 0.6299
vn -0.6846 -0.3101 0.6597
vn -0.6846 -0.3101 0.6597
vn -0.7739 -0.3674 0.5158
vn -0.7327 -0.4374 0.5213
vn -0.8738 -0.4178 0.2487
vn -0.7739 -0.3674 0.5158
vn -0.9015 -0.3875 0.1928
vn -0.7327 -0.4374 0.5213
vn -0.7739 -0.3674 0.5158
vn -0.8738 -0.4178 0.2487
vn 0.117 -0.8242 0.5541
vn 0.117 -0.8242 0.5541
vn 0.117 -0.8242 0.5541
vn -0.2883 -0.8745 0.39
vn -0.1248 -0.8237 0.5532
vn -0.3515 -0.8651 0.3578
vn -0.3515 -0.8651 0.3578
vn -0.3498 -0.871 0.3449
vn -0.2883 -0.8745 0.39
vn -0.9605 -0.2588 -0.1025
vn -0.9605 -0.2588 -0.1025
vn -0.9605 -0.2588 -0.1025
vn 0.839 0.0746999 -0.539
vn 0.6452 0.295 -0.7048
vn 0.581 0.3094 -0.7528
vn -0.000199853 0.9709 0.2397
vn -9.98534e-05 0.9709 0.2397
vn 0.3824 0.897 0.2214
vn -0.1248 -0.8237 0.5532
vn -0.000900128 -0.8509 0.5252
vn -0.0037001 -0.6735 0.7391
vn -0.000900128 -0.8509 0.5252
vn -0.1248 -0.8237 0.5532
vn -0.2883 -0.8745 0.39
vn -0.2883 -0.8745 0.39
vn -0.00120014 -0.9158 0.4017
vn -0.000900128 -0.8509 0.5252
vn 0.00399999 -0.0382 0.9993
vn 0.00399999 -0.0382 0.9993
vn 0.00399999 -0.0382 0.9993
vn 0.00399999 -0.0382 0.9993
vn 0.00399999 -0.0382 0.9993
vn 0.00399999 -0.0382 0.9993
vn -0.0737 0.1462 -0.9865
vn -0.0737 0.1462 -0.9865
vn -0.0737 0.1462 -0.9865
vn -0.0737 0.1462 -0.9865
vn -0.0737 0.1462 -0.9865
vn -0.0737 0.1462 -0.9865
vn 0.0759 0.146 -0.9864
vn 0.0759 0.146 -0.9864
vn 0.0759 0.146 -0.9864
vn 0.0759 0.146 -0.9864
vn 0.0759 0.146 -0.9864
vn 0.0759 0.146 -0.9864
vn 0.0 -0.0255 -0.9997
vn 0.0 -0.0255 -0.9997
vn 0.0 -0.0255 -0.9997
vn 0.0031 -0.0255 -0.9997
vn 0.0031 -0.0255 -0.9997
vn 0.0031 -0.0255 -0.9997
vn 0.00419998 -0.1593 0.9872
vn 0.00419998 -0.1593 0.9872
vn 0.00419998 -0.1593 0.9872
vn 0.00409999 -0.0382 0.9993
vn 0.00409999 -0.0382 0.9993
vn 0.00409999 -0.0382 0.9993
vn 0.00409998 -0.1593 0.9872
vn 0.00409998 -0.1593 0.9872
vn 0.00409998 -0.1593 0.9872
vn 0.3228 -0.0992001 0.9412
vn 0.3228 -0.0992001 0.9412
vn 0.3228 -0.0992001 0.9412
vn 0.3228 -0.0992001 0.9412
vn 0.3228 -0.0992001 0.9412
vn 0.3228 -0.0992001 0.9412
vn -0.3342 -0.0939 0.9378
vn -0.3342 -0.0939 0.9378
vn -0.3342 -0.0939 0.9378
vn -0.3342 -0.0939 0.9378
vn -0.3342 -0.0939 0.9378
vn -0.3342 -0.0939 0.9378
vn 0.2479 0.1 0.9636
vn 0.2479 0.1 0.9636
vn 0.2479 0.1 0.9636

vt 0.7725 0.2165
vt 0.6368 0.2469
vt 0.6465 0.1071
vt 0.6465 0.1071
vt 0.7821 0.0986
vt 0.7725 0.2165
vt 0.8918 0.2059
vt 0.7725 0.2165
vt 0.7821 0.0986
vt 0.7821 0.0986
vt 0.8908 0.0936
vt 0.8918 0.2059
vt 0.9766 0.2013
vt 0.8918 0.2059
vt 0.8908 0.0936
vt 0.8908 0.0936
vt 0.9811 0.0896
vt 0.9766 0.2013
vt 0.5286 0.6782
vt 0.4878 0.6982
vt 0.4903 0.6735
vt 0.4903 0.6735
vt 0.5031 0.6584
vt 0.5286 0.6782
vt 0.4544 0.2539
vt 0.4522 0.2882
vt 0.3947 0.29
vt 0.3947 0.29
vt 0.3882 0.2601
vt 0.4544 0.2539
vt 0.5221 0.3089
vt 0.5197 0.2815
vt 0.6368 0.2469
vt 0.6368 0.2469
vt 0.6443 0.278
vt 0.5221 0.3089
vt 0.6443 0.278
vt 0.6368 0.2469
vt 0.7725 0.2165
vt 0.7725 0.2165
vt 0.7769 0.2489
vt 0.6443 0.278
vt 0.8931 0.2382
vt 0.7769 0.2489
vt 0.7725 0.2165
vt 0.7725 0.2165
vt 0.8918 0.2059
vt 0.8931 0.2382
vt 0.97 0.2397
vt 0.8931 0.2382
vt 0.8918 0.2059
vt 0.8918 0.2059
vt 0.9766 0.2013
vt 0.97 0.2397
vt 0.1395 0.082
vt 0.0931 0.1442
vt 0.0582 0.1166
vt 0.0582 0.1166
vt 0.0695 0.0291
vt 0.1395 0.082
vt 0.2331 0.0767
vt 0.3908 0.1015
vt 0.2391 0.1493
vt 0.514 0.1173
vt 0.5197 0.2815
vt 0.4544 0.2539
vt 0.4544 0.2539
vt 0.3908 0.1015
vt 0.514 0.1173
vt 0.3908 0.1015
vt 0.4544 0.2539
vt 0.3882 0.2601
vt 0.6368 0.2469
vt 0.5197 0.2815
vt 0.514 0.1173
vt 0.514 0.1173
vt 0.6465 0.1071
vt 0.6368 0.2469
vt 0.2685 0.9654
vt 0.075 0.9693
vt 0.226 0.9292
vt 0.4247 0.9651
vt 0.226 0.9292
vt 0.3089 0.8763
vt 0.2331 0.0767
vt 0.2391 0.1493
vt 0.1631 0.1503
vt 0.1631 0.1503
vt 0.1395 0.082
vt 0.2331 0.0767
vt 0.1395 0.082
vt 0.1334 0.1481
vt 0.0931 0.1442
vt 0.2474 0.7716
vt 0.1366 0.7675
vt 0.1471 0.6412
vt 0.0768 0.774
vt 0.0461 0.6581
vt 0.0836 0.65
vt 0.0836 0.65
vt 0.1366 0.7675
vt 0.0768 0.774
vt 0.2102 0.2538
vt 0.2198 0.2993
vt 0.1459 0.2865
vt 0.1459 0.2865
vt 0.1463 0.2493
vt 0.2102 0.2538
vt 0.7534 0.5287
vt 0.7358 0.541
vt 0.6773 0.4509
vt 0.6773 0.4509
vt 0.6937 0.439
vt 0.7534 0.5287
vt 0.7534 0.5287
vt 0.8142 0.6763
vt 0.7882 0.6807
vt 0.7882 0.6807
vt 0.7358 0.541
vt 0.7534 0.5287
vt 0.3127 0.5836
vt 0.4066 0.5831
vt 0.3666 0.6509
vt 0.1395 0.082
vt 0.1631 0.1503
vt 0.1334 0.1481
vt 0.0931 0.1442
vt 0.0655 0.2408
vt 0.0582 0.1166
vt 0.2391 0.1493
vt 0.2102 0.2538
vt 0.1631 0.1503
vt 0.1463 0.2493
vt 0.0655 0.2408
vt 0.0931 0.1442
vt 0.0931 0.1442
vt 0.1334 0.1481
vt 0.1463 0.2493
vt 0.1463 0.2493
vt 0.1334 0.1481
vt 0.1631 0.1503
vt 0.1631 0.1503
vt 0.2102 0.2538
vt 0.1463 0.2493
vt 0.3908 0.1015
vt 0.3882 0.2601
vt 0.2391 0.1493
vt 0.5745 0.3347
vt 0.6253 0.3395
vt 0.5748 0.5085
vt 0.5748 0.5085
vt 0.5381 0.4989
vt 0.5745 0.3347
vt 0.3882 0.2601
vt 0.3426 0.4061
vt 0.2632 0.4033
vt 0.2632 0.4033
vt 0.2102 0.2538
vt 0.3882 0.2601
vt 0.4267 0.3323
vt 0.4615 0.4986
vt 0.4242 0.5037
vt 0.4242 0.5037
vt 0.3904 0.3359
vt 0.4267 0.3323
vt 0.5745 0.3347
vt 0.5381 0.4989
vt 0.4615 0.4986
vt 0.4615 0.4986
vt 0.4267 0.3323
vt 0.5745 0.3347
vt 0.5031 0.6584
vt 0.5381 0.4989
vt 0.5748 0.5085
vt 0.5748 0.5085
vt 0.5286 0.6782
vt 0.5031 0.6584
vt 0.3426 0.4061
vt 0.3293 0.5532
vt 0.2872 0.5518
vt 0.2872 0.5518
vt 0.2632 0.4033
vt 0.3426 0.4061
vt 0.4778 0.6602
vt 0.4478 0.6765
vt 0.4242 0.5037
vt 0.4242 0.5037
vt 0.4615 0.4986
vt 0.4778 0.6602
vt 0.5031 0.6584
vt 0.4778 0.6602
vt 0.4615 0.4986
vt 0.4615 0.4986
vt 0.5381 0.4989
vt 0.5031 0.6584
vt 0.4878 0.6982
vt 0.4478 0.6765
vt 0.4778 0.6602
vt 0.4778 0.6602
vt 0.4903 0.6735
vt 0.4878 0.6982
vt 0.3293 0.5532
vt 0.3082 0.5696
vt 0.2872 0.5518
vt 0.5031 0.6584
vt 0.4903 0.6735
vt 0.4778 0.6602
vt 0.1366 0.7675
vt 0.2474 0.7716
vt 0.1725 0.8667
vt 0.0836 0.65
vt 0.1471 0.6412
vt 0.1366 0.7675
vt 0.4247 0.9651
vt 0.2685 0.9654
vt 0.226 0.9292
vt 0.0883 0.8738
vt 0.0768 0.774
vt 0.1366 0.7675
vt 0.1366 0.7675
vt 0.1725 0.8667
vt 0.0883 0.8738
vt 0.2474 0.7716
vt 0.226 0.9292
vt 0.1725 0.8667
vt 0.226 0.9292
vt 0.2474 0.7716
vt 0.3089 0.8763
vt 0.0836 0.65
vt 0.0461 0.6581
vt 0.0223 0.5607
vt 0.1471 0.6412
vt 0.0836 0.65
vt 0.0223 0.5607
vt 0.213 0.3198
vt 0.1935 0.3662
vt 0.1481 0.3575
vt 0.1481 0.3575
vt 0.1935 0.3662
vt 0.1738 0.4235
vt 0.1738 0.4235
vt 0.0963 0.423
vt 0.1481 0.3575
vt 0.1673 0.4728
vt 0.0696 0.478
vt 0.0963 0.423
vt 0.0963 0.423
vt 0.1738 0.4235
vt 0.1673 0.4728
vt 0.075 0.9693
vt 0.0883 0.8738
vt 0.1725 0.8667
vt 0.075 0.9693
vt 0.1725 0.8667
vt 0.226 0.9292
vt 0.4544 0.2539
vt 0.5197 0.2815
vt 0.5221 0.3089
vt 0.5221 0.3089
vt 0.4522 0.2882
vt 0.4544 0.2539
vt 0.8533 0.9297
vt 0.8422 0.8365
vt 0.8952 0.8281
vt 0.8952 0.8281
vt 0.9064 0.9217
vt 0.8533 0.9297
vt 0.8533 0.9297
vt 0.7582 0.9416
vt 0.7555 0.8472
vt 0.7555 0.8472
vt 0.8422 0.8365
vt 0.8533 0.9297
vt 0.7148 0.9317
vt 0.6699 0.9549
vt 0.6758 0.8382
vt 0.6758 0.8382
vt 0.7173 0.8383
vt 0.7148 0.9317
vt 0.5933 0.9271
vt 0.6005 0.8266
vt 0.6758 0.8382
vt 0.6758 0.8382
vt 0.6699 0.9549
vt 0.5933 0.9271
vt 0.5081 0.8994
vt 0.516 0.8107
vt 0.6005 0.8266
vt 0.6005 0.8266
vt 0.5933 0.9271
vt 0.5081 0.8994
vt 0.4298 0.8832
vt 0.4378 0.7995
vt 0.516 0.8107
vt 0.516 0.8107
vt 0.5081 0.8994
vt 0.4298 0.8832
vt 0.376 0.8759
vt 0.3841 0.793
vt 0.4378 0.7995
vt 0.4378 0.7995
vt 0.4298 0.8832
vt 0.376 0.8759
vt 0.7148 0.9317
vt 0.7173 0.8383
vt 0.7555 0.8472
vt 0.7555 0.8472
vt 0.7582 0.9416
vt 0.7148 0.9317
vt 0.6352 0.0789
vt 0.6465 0.1071
vt 0.514 0.1173
vt 0.514 0.1173
vt 0.5216 0.0899
vt 0.6352 0.0789
vt 0.7679 0.0562
vt 0.7821 0.0986
vt 0.6465 0.1071
vt 0.6465 0.1071
vt 0.6352 0.0789
vt 0.7679 0.0562
vt 0.8872 0.0411
vt 0.8908 0.0936
vt 0.7821 0.0986
vt 0.7821 0.0986
vt 0.7679 0.0562
vt 0.8872 0.0411
vt 0.9647 0.031
vt 0.9811 0.0896
vt 0.8908 0.0936
vt 0.8908 0.0936
vt 0.8872 0.0411
vt 0.9647 0.031
vt 0.0909 0.5333
vt 0.0696 0.478
vt 0.1673 0.4728
vt 0.1673 0.4728
vt 0.1657 0.5355
vt 0.0909 0.5333
vt 0.0566 0.5301
vt 0.0218 0.5395
vt 0.0696 0.478
vt 0.0909 0.5333
vt 0.0566 0.5301
vt 0.0696 0.478
vt 0.4474 0.9429
vt 0.4247 0.9651
vt 0.3089 0.8763
vt 0.8952 0.8281
vt 0.8422 0.8365
vt 0.8442 0.8113
vt 0.8442 0.8113
vt 0.9051 0.7939
vt 0.8952 0.8281
vt 0.8442 0.8113
vt 0.8422 0.8365
vt 0.8057 0.7713
vt 0.3882 0.2601
vt 0.2102 0.2538
vt 0.2391 0.1493
vt 0.8146 0.6889
vt 0.7882 0.6807
vt 0.8142 0.6763
vt 0.9051 0.7939
vt 0.9572 0.7586
vt 0.9453 0.8237
vt 0.8952 0.8281
vt 0.9051 0.7939
vt 0.9453 0.8237
vt 0.9453 0.8237
vt 0.9452 0.8241
vt 0.8952 0.8281
vt 0.7725 0.2165
vt 0.7821 0.0986
vt 0.6465 0.1071
vt 0.6465 0.1071
vt 0.6368 0.2469
vt 0.7725 0.2165
vt 0.8918 0.2059
vt 0.8908 0.0936
vt 0.7821 0.0986
vt 0.7821 0.0986
vt 0.7725 0.2165
vt 0.8918 0.2059
vt 0.9766 0.2013
vt 0.9811 0.0896
vt 0.8908 0.0936
vt 0.8908 0.0936
vt 0.8918 0.2059
vt 0.9766 0.2013
vt 0.5286 0.6782
vt 0.5031 0.6584
vt 0.4903 0.6735
vt 0.4903 0.6735
vt 0.4878 0.6982
vt 0.5286 0.6782
vt 0.3882 0.2601
vt 0.3947 0.29
vt 0.4522 0.2882
vt 0.4522 0.2882
vt 0.4544 0.2539
vt 0.3882 0.2601
vt 0.6443 0.278
vt 0.6368 0.2469
vt 0.5197 0.2815
vt 0.5197 0.2815
vt 0.5221 0.3089
vt 0.6443 0.278
vt 0.7725 0.2165
vt 0.6368 0.2469
vt 0.6443 0.278
vt 0.6443 0.278
vt 0.7769 0.2489
vt 0.7725 0.2165
vt 0.8931 0.2382
vt 0.8918 0.2059
vt 0.7725 0.2165
vt 0.7725 0.2165
vt 0.7769 0.2489
vt 0.8931 0.2382
vt 0.97 0.2397
vt 0.9766 0.2013
vt 0.8918 0.2059
vt 0.8918 0.2059
vt 0.8931 0.2382
vt 0.97 0.2397
vt 0.1395 0.082
vt 0.0695 0.0291
vt 0.0582 0.1166
vt 0.0582 0.1166
vt 0.0931 0.1442
vt 0.1395 0.082
vt 0.2331 0.0767
vt 0.2391 0.1493
vt 0.3908 0.1015
vt 0.4544 0.2539
vt 0.5197 0.2815
vt 0.3908 0.1015
vt 0.3908 0.1015
vt 0.3882 0.2601
vt 0.4544 0.2539
vt 0.3908 0.1015
vt 0.5197 0.2815
vt 0.514 0.1173
vt 0.6368 0.2469
vt 0.6465 0.1071
vt 0.514 0.1173
vt 0.514 0.1173
vt 0.5197 0.2815
vt 0.6368 0.2469
vt 0.2685 0.9654
vt 0.226 0.9292
vt 0.075 0.9693
vt 0.4247 0.9651
vt 0.3089 0.8763
vt 0.226 0.9292
vt 0.1631 0.1503
vt 0.2391 0.1493
vt 0.2331 0.0767
vt 0.2331 0.0767
vt 0.1395 0.082
vt 0.1631 0.1503
vt 0.1395 0.082
vt 0.0931 0.1442
vt 0.1334 0.1481
vt 0.2474 0.7716
vt 0.1471 0.6412
vt 0.1366 0.7675
vt 0.0768 0.774
vt 0.1366 0.7675
vt 0.0836 0.65
vt 0.0836 0.65
vt 0.0461 0.6581
vt 0.0768 0.774
vt 0.1459 0.2865
vt 0.2198 0.2993
vt 0.2102 0.2538
vt 0.2102 0.2538
vt 0.1463 0.2493
vt 0.1459 0.2865
vt 0.9523 0.4507
vt 0.8939 0.5409
vt 0.8751 0.5287
vt 0.8751 0.5287
vt 0.9347 0.439
vt 0.9523 0.4507
vt 0.8751 0.5287
vt 0.8939 0.5409
vt 0.8408 0.6806
vt 0.8408 0.6806
vt 0.8142 0.6763
vt 0.8751 0.5287
vt 0.3127 0.5836
vt 0.2587 0.6516
vt 0.2189 0.5844
vt 0.1395 0.082
vt 0.1334 0.1481
vt 0.1631 0.1503
vt 0.0931 0.1442
vt 0.0582 0.1166
vt 0.0655 0.2408
vt 0.2391 0.1493
vt 0.1631 0.1503
vt 0.2102 0.2538
vt 0.1463 0.2493
vt 0.1334 0.1481
vt 0.0931 0.1442
vt 0.0931 0.1442
vt 0.0655 0.2408
vt 0.1463 0.2493
vt 0.1463 0.2493
vt 0.2102 0.2538
vt 0.1631 0.1503
vt 0.1631 0.1503
vt 0.1334 0.1481
vt 0.1463 0.2493
vt 0.3908 0.1015
vt 0.2391 0.1493
vt 0.3882 0.2601
vt 0.5745 0.3347
vt 0.5381 0.4989
vt 0.5748 0.5085
vt 0.5748 0.5085
vt 0.6253 0.3395
vt 0.5745 0.3347
vt 0.3882 0.2601
vt 0.2102 0.2538
vt 0.2632 0.4033
vt 0.2632 0.4033
vt 0.3426 0.4061
vt 0.3882 0.2601
vt 0.4267 0.3323
vt 0.3904 0.3359
vt 0.4242 0.5037
vt 0.4242 0.5037
vt 0.4615 0.4986
vt 0.4267 0.3323
vt 0.4615 0.4986
vt 0.5381 0.4989
vt 0.5745 0.3347
vt 0.5745 0.3347
vt 0.4267 0.3323
vt 0.4615 0.4986
vt 0.5748 0.5085
vt 0.5381 0.4989
vt 0.5031 0.6584
vt 0.5031 0.6584
vt 0.5286 0.6782
vt 0.5748 0.5085
vt 0.3426 0.4061
vt 0.2632 0.4033
vt 0.2872 0.5518
vt 0.2872 0.5518
vt 0.3293 0.5532
vt 0.3426 0.4061
vt 0.4242 0.5037
vt 0.4478 0.6765
vt 0.4778 0.6602
vt 0.4778 0.6602
vt 0.4615 0.4986
vt 0.4242 0.5037
vt 0.5031 0.6584
vt 0.5381 0.4989
vt 0.4615 0.4986
vt 0.4615 0.4986
vt 0.4778 0.6602
vt 0.5031 0.6584
vt 0.4878 0.6982
vt 0.4903 0.6735
vt 0.4778 0.6602
vt 0.4778 0.6602
vt 0.4478 0.6765
vt 0.4878 0.6982
vt 0.3293 0.5532
vt 0.2872 0.5518
vt 0.3082 0.5696
vt 0.5031 0.6584
vt 0.4778 0.6602
vt 0.4903 0.6735
vt 0.1366 0.7675
vt 0.1725 0.8667
vt 0.2474 0.7716
vt 0.0836 0.65
vt 0.1366 0.7675
vt 0.1471 0.6412
vt 0.4247 0.9651
vt 0.226 0.9292
vt 0.2685 0.9654
vt 0.0883 0.8738
vt 0.1725 0.8667
vt 0.1366 0.7675
vt 0.1366 0.7675
vt 0.0768 0.774
vt 0.0883 0.8738
vt 0.2474 0.7716
vt 0.1725 0.8667
vt 0.226 0.9292
vt 0.226 0.9292
vt 0.3089 0.8763
vt 0.2474 0.7716
vt 0.0836 0.65
vt 0.0223 0.5607
vt 0.0461 0.6581
vt 0.1471 0.6412
vt 0.0223 0.5607
vt 0.0836 0.65
vt 0.213 0.3198
vt 0.1481 0.3575
vt 0.1935 0.3662
vt 0.1481 0.3575
vt 0.0963 0.423
vt 0.1738 0.4235
vt 0.1738 0.4235
vt 0.1935 0.3662
vt 0.1481 0.3575
vt 0.1673 0.4728
vt 0.1738 0.4235
vt 0.0963 0.423
vt 0.0963 0.423
vt 0.0696 0.478
vt 0.1673 0.4728
vt 0.075 0.9693
vt 0.1725 0.8667
vt 0.0883 0.8738
vt 0.075 0.9693
vt 0.226 0.9292
vt 0.1725 0.8667
vt 0.4544 0.2539
vt 0.4522 0.2882
vt 0.5221 0.3089
vt 0.5221 0.3089
vt 0.5197 0.2815
vt 0.4544 0.2539
vt 0.8952 0.8281
vt 0.8422 0.8365
vt 0.8533 0.9297
vt 0.8533 0.9297
vt 0.9064 0.9217
vt 0.8952 0.8281
vt 0.8533 0.9297
vt 0.8422 0.8365
vt 0.7555 0.8472
vt 0.7555 0.8472
vt 0.7582 0.9416
vt 0.8533 0.9297
vt 0.7148 0.9317
vt 0.7173 0.8383
vt 0.6758 0.8382
vt 0.6758 0.8382
vt 0.6699 0.9549
vt 0.7148 0.9317
vt 0.6758 0.8382
vt 0.6005 0.8266
vt 0.5933 0.9271
vt 0.5933 0.9271
vt 0.6699 0.9549
vt 0.6758 0.8382
vt 0.6005 0.8266
vt 0.516 0.8107
vt 0.5081 0.8994
vt 0.5081 0.8994
vt 0.5933 0.9271
vt 0.6005 0.8266
vt 0.516 0.8107
vt 0.4378 0.7995
vt 0.4298 0.8832
vt 0.4298 0.8832
vt 0.5081 0.8994
vt 0.516 0.8107
vt 0.4378 0.7995
vt 0.3841 0.793
vt 0.376 0.8759
vt 0.376 0.8759
vt 0.4298 0.8832
vt 0.4378 0.7995
vt 0.7555 0.8472
vt 0.7173 0.8383
vt 0.7148 0.9317
vt 0.7148 0.9317
vt 0.7582 0.9416
vt 0.7555 0.8472
vt 0.6352 0.0789
vt 0.5216 0.0899
vt 0.514 0.1173
vt 0.514 0.1173
vt 0.6465 0.1071
vt 0.6352 0.0789
vt 0.7679 0.0562
vt 0.6352 0.0789
vt 0.6465 0.1071
vt 0.6465 0.1071
vt 0.7821 0.0986
vt 0.7679 0.0562
vt 0.7821 0.0986
vt 0.8908 0.0936
vt 0.8872 0.0411
vt 0.8872 0.0411
vt 0.7679 0.0562
vt 0.7821 0.0986
vt 0.9647 0.031
vt 0.8872 0.0411
vt 0.8908 0.0936
vt 0.8908 0.0936
vt 0.9811 0.0896
vt 0.9647 0.031
vt 0.0909 0.5333
vt 0.1657 0.5355
vt 0.1673 0.4728
vt 0.1673 0.4728
vt 0.0696 0.478
vt 0.0909 0.5333
vt 0.0566 0.5301
vt 0.0696 0.478
vt 0.0218 0.5395
vt 0.0909 0.5333
vt 0.0696 0.478
vt 0.0566 0.5301
vt 0.4474 0.9429
vt 0.3089 0.8763
vt 0.4247 0.9651
vt 0.8952 0.8281
vt 0.9051 0.7939
vt 0.8442 0.8113
vt 0.8442 0.8113
vt 0.8422 0.8365
vt 0.8952 0.8281
vt 0.8442 0.8113
vt 0.8057 0.7713
vt 0.8422 0.8365
vt 0.3882 0.2601
vt 0.2391 0.1493
vt 0.2102 0.2538
vt 0.8146 0.6889
vt 0.8142 0.6763
vt 0.8408 0.6806
vt 0.9051 0.7939
vt 0.9453 0.8237
vt 0.9572 0.7586
vt 0.9453 0.8237
vt 0.9051 0.7939
vt 0.8952 0.8281
vt 0.8952 0.8281
vt 0.9452 0.8241
vt 0.9453 0.8237
vt 0.8751 0.5287
vt 0.8751 0.5287
vt 0.8142 0.6763
vt 0.8142 0.6763
vt 0.8142 0.5287
vt 0.8751 0.5287
vt 0.3127 0.6512
vt 0.3666 0.6509
vt 0.3313 0.7658
vt 0.3313 0.7658
vt 0.3132 0.7708
vt 0.3127 0.6512
vt 0.2954 0.766
vt 0.2587 0.6516
vt 0.3127 0.6512
vt 0.3127 0.6512
vt 0.3132 0.7708
vt 0.2954 0.766
vt 0.3127 0.6512
vt 0.3127 0.5836
vt 0.3666 0.6509
vt 0.2587 0.6516
vt 0.3127 0.5836
vt 0.3127 0.6512
vt 0.7534 0.5287
vt 0.8148 0.3051
vt 0.8142 0.5287
vt 0.8142 0.6763
vt 0.7534 0.5287
vt 0.8142 0.5287
vt 0.8148 0.3051
vt 0.8751 0.5287
vt 0.8142 0.5287
vt 0.6937 0.439
vt 0.6954 0.2988
vt 0.8148 0.3051
vt 0.8148 0.3051
vt 0.7534 0.5287
vt 0.6937 0.439
vt 0.8148 0.3051
vt 0.9335 0.2988
vt 0.9347 0.439
vt 0.9347 0.439
vt 0.8751 0.5287
vt 0.8148 0.3051
vt 0.9347 0.439
vt 0.8751 0.5287
vt 0.8751 0.5287

usemtl Material

f 1/1/1 2/2/2 3/3/3
f 4/4/4 5/5/5 6/6/6
f 7/7/7 8/8/8 9/9/9
f 10/10/10 11/11/11 12/12/12
f 13/13/13 14/14/14 15/15/15
f 16/16/16 17/17/17 18/18/18
f 19/19/19 20/20/20 21/21/21
f 22/22/22 23/23/23 24/24/24
f 25/25/25 26/26/26 27/27/27
f 28/28/28 29/29/29 30/30/30
f 31/31/31 32/32/32 33/33/33
f 34/34/34 35/35/35 36/36/36
f 37/37/37 38/38/38 39/39/39
f 40/40/40 41/41/41 42/42/42
f 43/43/43 44/44/44 45/45/45
f 46/46/46 47/47/47 48/48/48
f 49/49/49 50/50/50 51/51/51
f 52/52/52 53/53/53 54/54/54
f 55/55/55 56/56/56 57/57/57
f 58/58/58 59/59/59 60/60/60
f 61/61/61 62/62/62 63/63/63
f 64/64/64 65/65/65 66/66/66
f 67/67/67 68/68/68 69/69/69
f 70/70/70 71/71/71 72/72/72
f 73/73/73 74/74/74 75/75/75
f 76/76/76 77/77/77 78/78/78
f 79/79/79 80/80/80 81/81/81
f 82/82/82 83/83/83 84/84/84
f 85/85/85 86/86/86 87/87/87
f 88/88/88 89/89/89 90/90/90
f 91/91/91 92/92/92 93/93/93
f 94/94/94 95/95/95 96/96/96
f 97/97/97 98/98/98 99/99/99
f 100/100/100 101/101/101 102/102/102
f 103/103/103 104/104/104 105/105/105
f 106/106/106 107/107/107 108/108/108
f 109/109/109 110/110/110 111/111/111
f 112/112/112 113/113/113 114/114/114
f 115/115/115 116/116/116 117/117/117
f 118/118/118 119/119/119 120/120/120
f 121/121/121 122/122/122 123/123/123
f 124/124/124 125/125/125 126/126/126
f 127/127/127 128/128/128 129/129/129
f 130/130/130 131/131/131 132/132/132
f 133/133/133 134/134/134 135/135/135
f 136/136/136 137/137/137 138/138/138
f 139/139/139 140/140/140 141/141/141
f 142/142/142 143/143/143 144/144/144
f 145/145/145 146/146/146 147/147/147
f 148/148/148 149/149/149 150/150/150
f 151/151/151 152/152/152 153/153/153
f 154/154/154 155/155/155 156/156/156
f 157/157/157 158/158/158 159/159/159
f 160/160/160 161/161/161 162/162/162
f 163/163/163 164/164/164 165/165/165
f 166/166/166 167/167/167 168/168/168
f 169/169/169 170/170/170 171/171/171
f 172/172/172 173/173/173 174/174/174
f 175/175/175 176/176/176 177/177/177
f 178/178/178 179/179/179 180/180/180
f 181/181/181 182/182/182 183/183/183
f 184/184/184 185/185/185 186/186/186
f 187/187/187 188/188/188 189/189/189
f 190/190/190 191/191/191 192/192/192
f 193/193/193 194/194/194 195/195/195
f 196/196/196 197/197/197 198/198/198
f 199/199/199 200/200/200 201/201/201
f 202/202/202 203/203/203 204/204/204
f 205/205/205 206/206/206 207/207/207
f 208/208/208 209/209/209 210/210/210
f 211/211/211 212/212/212 213/213/213
f 214/214/214 215/215/215 216/216/216
f 217/217/217 218/218/218 219/219/219
f 220/220/220 221/221/221 222/222/222
f 223/223/223 224/224/224 225/225/225
f 226/226/226 227/227/227 228/228/228
f 229/229/229 230/230/230 231/231/231
f 232/232/232 233/233/233 234/234/234
f 235/235/235 236/236/236 237/237/237
f 238/238/238 239/239/239 240/240/240
f 241/241/241 242/242/242 243/243/243
f 244/244/244 245/245/245 246/246/246
f 247/247/247 248/248/248 249/249/249
f 250/250/250 251/251/251 252/252/252
f 253/253/253 254/254/254 255/255/255
f 256/256/256 257/257/257 258/258/258
f 259/259/259 260/260/260 261/261/261
f 262/262/262 263/263/263 264/264/264
f 265/265/265 266/266/266 267/267/267
f 268/268/268 269/269/269 270/270/270
f 271/271/271 272/272/272 273/273/273
f 274/274/274 275/275/275 276/276/276
f 277/277/277 278/278/278 279/279/279
f 280/280/280 281/281/281 282/282/282
f 283/283/283 284/284/284 285/285/285
f 286/286/286 287/287/287 288/288/288
f 289/289/289 290/290/290 291/291/291
f 292/292/292 293/293/293 294/294/294
f 295/295/295 296/296/296 297/297/297
f 298/298/298 299/299/299 300/300/300
f 301/301/301 302/302/302 303/303/303
f 304/304/304 305/305/305 306/306/306
f 307/307/307 308/308/308 309/309/309
f 310/310/310 311/311/311 312/312/312
f 313/313/313 314/314/314 315/315/315
f 316/316/316 317/317/317 318/318/318
f 319/319/319 320/320/320 321/321/321
f 322/322/322 323/323/323 324/324/324
f 325/325/325 326/326/326 327/327/327
f 328/328/328 329/329/329 330/330/330
f 331/331/331 332/332/332 333/333/333
f 334/334/334 335/335/335 336/336/336
f 337/337/337 338/338/338 339/339/339
f 340/340/340 341/341/341 342/342/342
f 343/343/343 344/344/344 345/345/345
f 346/346/346 347/347/347 348/348/348
f 349/349/349 350/350/350 351/351/351
f 352/352/352 353/353/353 354/354/354
f 355/355/355 356/356/356 357/357/357
f 358/358/358 359/359/359 360/360/360
f 361/361/361 362/362/362 363/363/363
f 364/364/364 365/365/365 366/366/366
f 367/367/367 368/368/368 369/369/369
f 370/370/370 371/371/371 372/372/372
f 373/373/373 374/374/374 375/375/375
f 376/376/376 377/377/377 378/378/378
f 379/379/379 380/380/380 381/381/381
f 382/382/382 383/383/383 384/384/384
f 385/385/385 386/386/386 387/387/387
f 388/388/388 389/389/389 390/390/390
f 391/391/391 392/392/392 393/393/393
f 394/394/394 395/395/395 396/396/396
f 397/397/397 398/398/398 399/399/399
f 400/400/400 401/401/401 402/402/402
f 403/403/403 404/404/404 405/405/405
f 406/406/406 407/407/407 408/408/408
f 409/409/409 410/410/410 411/411/411
f 412/412/412 413/413/413 414/414/414
f 415/415/415 416/416/416 417/417/417
f 418/418/418 419/419/419 420/420/420
f 421/421/421 422/422/422 423/423/423
f 424/424/424 425/425/425 426/426/426
f 427/427/427 428/428/428 429/429/429
f 430/430/430 431/431/431 432/432/432
f 433/433/433 434/434/434 435/435/435
f 436/436/436 437/437/437 438/438/438
f 439/439/439 440/440/440 441/441/441
f 442/442/442 443/443/443 444/444/444
f 445/445/445 446/446/446 447/447/447
f 448/448/448 449/449/449 450/450/450
f 451/451/451 452/452/452 453/453/453
f 454/454/454 455/455/455 456/456/456
f 457/457/457 458/458/458 459/459/459
f 460/460/460 461/461/461 462/462/462
f 463/463/463 464/464/464 465/465/465
f 466/466/466 467/467/467 468/468/468
f 469/469/469 470/470/470 471/471/471
f 472/472/472 473/473/473 474/474/474
f 475/475/475 476/476/476 477/477/477
f 478/478/478 479/479/479 480/480/480
f 481/481/481 482/482/482 483/483/483
f 484/484/484 485/485/485 486/486/486
f 487/487/487 488/488/488 489/489/489
f 490/490/490 491/491/491 492/492/492
f 493/493/493 494/494/494 495/495/495
f 496/496/496 497/497/497 498/498/498
f 499/499/499 500/500/500 501/501/501
f 502/502/502 503/503/503 504/504/504
f 505/505/505 506/506/506 507/507/507
f 508/508/508 509/509/509 510/510/510
f 511/511/511 512/512/512 513/513/513
f 514/514/514 515/515/515 516/516/516
f 517/517/517 518/518/518 519/519/519
f 520/520/520 521/521/521 522/522/522
f 523/523/523 524/524/524 525/525/525
f 526/526/526 527/527/527 528/528/528
f 529/529/529 530/530/530 531/531/531
f 532/532/532 533/533/533 534/534/534
f 535/535/535 536/536/536 537/537/537
f 538/538/538 539/539/539 540/540/540
f 541/541/541 542/542/542 543/543/543
f 544/544/544 545/545/545 546/546/546
f 547/547/547 548/548/548 549/549/549
f 550/550/550 551/551/551 552/552/552
f 553/553/553 554/554/554 555/555/555
f 556/556/556 557/557/557 558/558/558
f 559/559/559 560/560/560 561/561/561
f 562/562/562 563/563/563 564/564/564
f 565/565/565 566/566/566 567/567/567
f 568/568/568 569/569/569 570/570/570
f 571/571/571 572/572/572 573/573/573
f 574/574/574 575/575/575 576/576/576
f 577/577/577 578/578/578 579/579/579
f 580/580/580 581/581/581 582/582/582
f 583/583/583 584/584/584 585/585/585
f 586/586/586 587/587/587 588/588/588
f 589/589/589 590/590/590 591/591/591
f 592/592/592 593/593/593 594/594/594
f 595/595/595 596/596/596 597/597/597
f 598/598/598 599/599/599 600/600/600
f 601/601/601 602/602/602 603/603/603
f 604/604/604 605/605/605 606/606/606
f 607/607/607 608/608/608 609/609/609
f 610/610/610 611/611/611 612/612/612
f 613/613/613 614/614/614 615/615/615
f 616/616/616 617/617/617 618/618/618
f 619/619/619 620/620/620 621/621/621
f 622/622/622 623/623/623 624/624/624
f 625/625/625 626/626/626 627/627/627
f 628/628/628 629/629/629 630/630/630
f 631/631/631 632/632/632 633/633/633
f 634/634/634 635/635/635 636/636/636
f 637/637/637 638/638/638 639/639/639
f 640/640/640 641/641/641 642/642/642
f 643/643/643 644/644/644 645/645/645
f 646/646/646 647/647/647 648/648/648
f 649/649/649 650/650/650 651/651/651
f 652/652/652 653/653/653 654/654/654
f 655/655/655 656/656/656 657/657/657
f 658/658/658 659/659/659 660/660/660
f 661/661/661 662/662/662 663/663/663
f 664/664/664 665/665/665 666/666/666
f 667/667/667 668/668/668 669/669/669
f 670/670/670 671/671/671 672/672/672
f 673/673/673 674/674/674 675/675/675
f 676/676/676 677/677/677 678/678/678
f 679/679/679 680/680/680 681/681/681
f 682/682/682 683/683/683 684/684/684
f 685/685/685 686/686/686 687/687/687
f 688/688/688 689/689/689 690/690/690
f 691/691/691 692/692/692 693/693/693
f 694/694/694 695/695/695 696/696/696
f 697/697/697 698/698/698 699/699/699
f 700/700/700 701/701/701 702/702/702
f 703/703/703 704/704/704 705/705/705
f 706/706/706 707/707/707 708/708/708
f 709/709/709 710/710/710 711/711/711
f 712/712/712 713/713/713 714/714/714
f 715/715/715 716/716/716 717/717/717
f 718/718/718 719/719/719 720/720/720
f 721/721/721 722/722/722 723/723/723
f 724/724/724 725/725/725 726/726/726
f 727/727/727 728/728/728 729/729/729
f 730/730/730 731/731/731 732/732/732
f 733/733/733 734/734/734 735/735/735
f 736/736/736 737/737/737 738/738/738
f 739/739/739 740/740/740 741/741/741
f 742/742/742 743/743/743 744/744/744
f 745/745/745 746/746/746 747/747/747
f 748/748/748 749/749/749 750/750/750
f 751/751/751 752/752/752 753/753/753
f 754/754/754 755/755/755 756/756/756
f 757/757/757 758/758/758 759/759/759
f 760/760/760 761/761/761 762/762/762
f 763/763/763 764/764/764 765/765/765
f 766/766/766 767/767/767 768/768/768
f 769/769/769 770/770/770 771/771/771
f 772/772/772 773/773/773 774/774/774
f 775/775/775 776/776/776 777/777/777
f 778/778/778 779/779/779 780/780/780
f 781/781/781 782/782/782 783/783/783
f 784/784/784 785/785/785 786/786/786
f 787/787/787 788/788/788 789/789/789
f 790/790/790 791/791/791 792/792/792