version 1.00
264
[-0.381,0.0584001,0.504][-0.6618,0.0742001,0.746][0.7725,0.2165,0][-0.5894,0.1223,0.2598][-0.9529,-0.0479999,0.2996][0.6368,0.2469,0][-0.5747,-0.1443,0.2638][-0.9297,-0.0217999,0.3675][0.6465,0.1071,0][-0.5747,-0.1443,0.2638][-0.9297,-0.0217999,0.3675][0.6465,0.1071,0][-0.3785,-0.1615,0.5367][-0.6415,0.1301,0.756][0.7821,0.0986,0][-0.381,0.0584001,0.504][-0.6618,0.0742001,0.746][0.7725,0.2165,0][-0.1572,0.0343001,0.6207][-0.3867,0.2019,0.8998][0.8918,0.2059,0][-0.381,0.0584001,0.504][-0.6618,0.0742001,0.746][0.7725,0.2165,0][-0.3785,-0.1615,0.5367][-0.6415,0.1301,0.756][0.7821,0.0986,0][-0.3785,-0.1615,0.5367][-0.6415,0.1301,0.756][0.7821,0.0986,0][-0.17,-0.1684,0.6663][-0.398,0.2325,0.8874][0.8908,0.0936,0][-0.1572,0.0343001,0.6207][-0.3867,0.2019,0.8998][0.8918,0.2059,0][0,0.0251,0.669][-0.00289996,0.2486,0.9686][0.9766,0.2013,0][-0.1572,0.0343001,0.6207][-0.3867,0.2019,0.8998][0.8918,0.2059,0][-0.17,-0.1684,0.6663][-0.398,0.2325,0.8874][0.8908,0.0936,0][-0.17,-0.1684,0.6663][-0.398,0.2325,0.8874][0.8908,0.0936,0][0,-0.1718,0.7229][-0.00279996,0.2641,0.9645][0.9811,0.0896,0][0,0.0251,0.669][-0.00289996,0.2486,0.9686][0.9766,0.2013,0][-0.3791,0.7628,-0.3081][0.5922,0.7282,-0.3449][0.5286,0.6782,0][-0.4122,0.7995,-0.2764][0.5188,0.777,-0.3566][0.4878,0.6982,0][-0.3732,0.7854,-0.2504][0.591,0.7291,-0.3451][0.4903,0.6735,0][-0.3732,0.7854,-0.2504][0.591,0.7291,-0.3451][0.4903,0.6735,0][-0.3424,0.7485,-0.2644][0.6592,0.6752,-0.3309][0.5031,0.6584,0][-0.3791,0.7628,-0.3081][0.5922,0.7282,-0.3449][0.5286,0.6782,0][-0.5708,0.1426,-0.096][-0.0444999,0.961,0.2729][0.4544,0.2539,0][-0.5094,0.1409,-0.0822][-0.0361999,0.9593,0.2801][0.4522,0.2882,0][-0.4784,0.1751,-0.1954][-0.0562999,0.9632,0.2627][0.3947,0.29,0][-0.4784,0.1751,-0.1954][-0.0562999,0.9632,0.2627][0.3947,0.29,0][-0.5356,0.1766,-0.2154][-0.0641998,0.9646,0.2558][0.3882,0.2601,0][-0.5708,0.1426,-0.096][-0.0444999,0.961,0.2729][0.4544,0.2539,0][-0.5376,0.2015,0.0361][0.00670014,0.9463,0.3231][0.5221,0.3089,0][-0.6022,0.2048,0.0278][-0.00169986,0.9455,0.3257][0.5197,0.2815,0][-0.5894,0.1223,0.2598][-0.0404999,0.9473,0.3179][0.6368,0.2469,0][-0.5894,0.1223,0.2598][-0.0404999,0.9473,0.3179][0.6368,0.2469,0][-0.5276,0.13,0.2452][-0.0399999,0.9478,0.3164][0.6443,0.278,0][-0.5376,0.2015,0.0361][0.00670014,0.9463,0.3231][0.5221,0.3089,0][-0.5276,0.13,0.2452][-0.0399999,0.9478,0.3164][0.6443,0.278,0][-0.5894,0.1223,0.2598][-0.0404999,0.9473,0.3179][0.6368,0.2469,0][-0.381,0.0584001,0.504][-0.0224999,0.9637,0.2662][0.7725,0.2165,0][-0.381,0.0584001,0.504][-0.0224999,0.9637,0.2662][0.7725,0.2165,0][-0.3503,0.0738001,0.4519][-0.0244999,0.9621,0.2718][0.7769,0.2489,0][-0.5276,0.13,0.2452][-0.0399999,0.9478,0.3164][0.6443,0.278,0][-0.1436,0.0508,0.5524][-0.0141999,0.9718,0.2352][0.8931,0.2382,0][-0.3503,0.0738001,0.4519][-0.0244999,0.9621,0.2718][0.7769,0.2489,0][-0.381,0.0584001,0.504][-0.0224999,0.9637,0.2662][0.7725,0.2165,0][-0.381,0.0584001,0.504][-0.0224999,0.9637,0.2662][0.7725,0.2165,0][-0.1572,0.0343001,0.6207][-0.0131999,0.9728,0.2312][0.8918,0.2059,0][-0.1436,0.0508,0.5524][-0.0141999,0.9718,0.2352][0.8931,0.2382,0][0,0.0454,0.5817][-0.00219985,0.9735,0.2287][0.97,0.2397,0][-0.1436,0.0508,0.5524][-0.0141999,0.9718,0.2352][0.8931,0.2382,0][-0.1572,0.0343001,0.6207][-0.0131999,0.9728,0.2312][0.8918,0.2059,0][-0.1572,0.0343001,0.6207][-0.0131999,0.9728,0.2312][0.8918,0.2059,0][0,0.0251,0.669][-0.00199985,0.974,0.2264][0.9766,0.2013,0][0,0.0454,0.5817][-0.00219985,0.9735,0.2287][0.97,0.2397,0][-0.1212,-0.1076,-0.5793][-0.5069,-0.3216,-0.7998][0.1395,0.082,0][-0.0594,0.0213,-0.6536][-0.5433,-0.2083,-0.8133][0.0931,0.1442,0][0,-0.0289,-0.6938][0.00349997,-0.1759,-0.9844][0.0582,0.1166,0][0,-0.0289,-0.6938][0.00349997,-0.1759,-0.9844][0.0582,0.1166,0][0,-0.2109,-0.6622][0.00499997,-0.1715,-0.9852][0.0695,0.0291,0][-0.1212,-0.1076,-0.5793][-0.5069,-0.3216,-0.7998][0.1395,0.082,0][-0.2654,-0.1075,-0.4486][-0.401,-0.7483,-0.5285][0.2331,0.0767,0][-0.5266,-0.1385,-0.2447][-0.3549,-0.7428,-0.5677][0.3908,0.1015,0][-0.3417,-0.0126,-0.5251][-0.3951,-0.6676,-0.6311][0.2391,0.1493,0][-0.5859,-0.1193,-0.004][-0.9932,-0.0394999,-0.1091][0.514,0.1173,0][-0.6022,0.2048,0.0278][-0.9957,-0.0427999,-0.0821][0.5197,0.2815,0][-0.5708,0.1426,-0.096][-0.9683,-0.0203999,-0.249][0.4544,0.2539,0][-0.5708,0.1426,-0.096][-0.9683,-0.0203999,-0.249][0.4544,0.2539,0][-0.5266,-0.1385,-0.2447][-0.9182,0.00280014,-0.396][0.3908,0.1015,0][-0.5859,-0.1193,-0.004][-0.9932,-0.0394999,-0.1091][0.514,0.1173,0][-0.5266,-0.1385,-0.2447][-0.9182,0.00280014,-0.396][0.3908,0.1015,0][-0.5708,0.1426,-0.096][-0.9683,-0.0203999,-0.249][0.4544,0.2539,0][-0.5356,0.1766,-0.2154][-0.8339,0.0868001,-0.545][0.3882,0.2601,0][-0.5894,0.1223,0.2598][-0.9529,-0.0479999,0.2996][0.6368,0.2469,0][-0.6022,0.2048,0.0278][-0.9957,-0.0427999,-0.0821][0.5197,0.2815,0][-0.5859,-0.1193,-0.004][-0.9932,-0.0394999,-0.1091][0.514,0.1173,0][-0.5859,-0.1193,-0.004][-0.9932,-0.0394999,-0.1091][0.514,0.1173,0][-0.5747,-0.1443,0.2638][-0.9297,-0.0217999,0.3675][0.6465,0.1071,0][-0.5894,0.1223,0.2598][-0.9529,-0.0479999,0.2996][0.6368,0.2469,0][-0.5266,-0.1385,-0.2447][-0.3533,0.8795,-0.3189][0.2685,0.9654,0][-0.2654,-0.1075,-0.4486][-0.3855,0.4663,-0.7962][0.075,0.9693,0][-0.5201,-0.1709,-0.3412][-0.4048,0.7568,-0.5132][0.226,0.9292,0][-0.5859,-0.1193,-0.004][-0.9699,0.1257,-0.2084][0.4247,0.9651,0][-0.5201,-0.1709,-0.3412][-0.9365,0.0306001,-0.3492][0.226,0.9292,0][-0.55,-0.2624,-0.2108][-0.9758,0.00870015,-0.2183][0.3089,0.8763,0][-0.2654,-0.1075,-0.4486][-0.401,-0.7483,-0.5285][0.2331,0.0767,0][-0.3417,-0.0126,-0.5251][-0.3951,-0.6676,-0.6311][0.2391,0.1493,0][-0.1881,0.0154,-0.5939][-0.3664,-0.3035,-0.8796][0.1631,0.1503,0][-0.1881,0.0154,-0.5939][-0.3664,-0.3035,-0.8796][0.1631,0.1503,0][-0.1212,-0.1076,-0.5793][-0.5069,-0.3216,-0.7998][0.1395,0.082,0][-0.2654,-0.1075,-0.4486][-0.401,-0.7483,-0.5285][0.2331,0.0767,0][-0.1212,-0.1076,-0.5793][-0.5069,-0.3216,-0.7998][0.1395,0.082,0][-0.132,0.0184,-0.6208][-0.3875,-0.3184,-0.8652][0.1334,0.1481,0][-0.0594,0.0213,-0.6536][-0.5433,-0.2083,-0.8133][0.0931,0.1442,0][-0.5147,-0.4392,-0.3293][-0.8668,-0.00539987,-0.4987][0.2474,0.7716,0][-0.3996,-0.4379,-0.5016][-0.8317,0.0316001,-0.5543][0.1366,0.7675,0][-0.4048,-0.6589,-0.5167][-0.831,0.0269001,-0.5557][0.1471,0.6412,0][-0.3034,-0.4317,-0.5214][-0.2047,0.3459,-0.9157][0.0768,0.774,0][-0.2765,-0.6316,-0.6223][-0.1437,0.4623,-0.875][0.0461,0.6581,0][-0.3376,-0.6398,-0.6166][-0.1526,0.4563,-0.8766][0.0836,0.65,0][-0.3376,-0.6398,-0.6166][-0.1526,0.4563,-0.8766][0.0836,0.65,0][-0.3996,-0.4379,-0.5016][-0.2324,0.3331,-0.9138][0.1366,0.7675,0][-0.3034,-0.4317,-0.5214][-0.2047,0.3459,-0.9157][0.0768,0.774,0][-0.2611,0.1947,-0.4758][0.0156001,0.9944,0.1044][0.2102,0.2538,0][-0.2639,0.1846,-0.3793][0.00860015,0.995,0.099][0.2198,0.2993,0][-0.1286,0.1918,-0.4549][-0.00239985,0.9959,0.0905][0.1459,0.2865,0][-0.1286,0.1918,-0.4549][-0.00239985,0.9959,0.0905][0.1459,0.2865,0][-0.1467,0.1985,-0.5296][0.00380015,0.9954,0.0953][0.1463,0.2493,0][-0.2611,0.1947,-0.4758][0.0156001,0.9944,0.1044][0.2102,0.2538,0][-0.0649,0.352,-0.4587][-0.9212,0.267,0.2831][0.7534,0.5287,0][-0.0843999,0.3595,-0.5338][-0.9267,0.2669,0.2644][0.7358,0.541,0][-0.1467,0.1985,-0.5296][-0.9005,0.3554,0.2505][0.6773,0.4509,0][-0.1467,0.1985,-0.5296][-0.9005,0.3554,0.2505][0.6773,0.4509,0][-0.1286,0.1918,-0.4549][-0.8986,0.357,0.2552][0.6937,0.439,0][-0.0649,0.352,-0.4587][-0.9212,0.267,0.2831][0.7534,0.5287,0][-0.0649,0.352,-0.4587][-0.9212,0.267,0.2831][0.7534,0.5287,0][0,0.619,-0.4488][-0.00079995,0.3312,0.9435][0.8142,0.6763,0][-0.0280999,0.618,-0.4934][-0.8566,0.1816,0.4829][0.7882,0.6807,0][-0.0280999,0.618,-0.4934][-0.8566,0.1816,0.4829][0.7882,0.6807,0][-0.0843999,0.3595,-0.5338][-0.9267,0.2669,0.2644][0.7358,0.541,0][-0.0649,0.352,-0.4587][-0.9212,0.267,0.2831][0.7534,0.5287,0][0,0.1984,-0.5297][0.00280005,0.3168,-0.9485][0.3127,0.5836,0][-0.1467,0.1985,-0.5296][-0.2012,0.3418,-0.918][0.4066,0.5831,0][-0.0843999,0.3595,-0.5338][-0.000700004,-0.0258,-0.9997][0.3666,0.6509,0][-0.1212,-0.1076,-0.5793][-0.5069,-0.3216,-0.7998][0.1395,0.082,0][-0.1881,0.0154,-0.5939][-0.3664,-0.3035,-0.8796][0.1631,0.1503,0][-0.132,0.0184,-0.6208][-0.3875,-0.3184,-0.8652][0.1334,0.1481,0][-0.0594,0.0213,-0.6536][-0.0543999,0.5846,-0.8095][0.0931,0.1442,0][0,0.1984,-0.5297][0.000900088,0.5854,-0.8107][0.0655,0.2408,0][0,-0.0289,-0.6938][0.000900088,0.5854,-0.8107][0.0582,0.1166,0][-0.3417,-0.0126,-0.5251][-0.6383,0.2995,-0.7091][0.2391,0.1493,0][-0.2611,0.1947,-0.4758][-0.5733,0.3129,-0.7573][0.2102,0.2538,0][-0.1881,0.0154,-0.5939][-0.4208,0.3767,-0.8252][0.1631,0.1503,0][-0.1467,0.1985,-0.5296][-0.2012,0.3418,-0.918][0.1463,0.2493,0][0,0.1984,-0.5297][0.00280005,0.3168,-0.9485][0.0655,0.2408,0][-0.0594,0.0213,-0.6536][-0.2438,0.4724,-0.847][0.0931,0.1442,0][-0.0594,0.0213,-0.6536][-0.2438,0.4724,-0.847][0.0931,0.1442,0][-0.132,0.0184,-0.6208][-0.4023,0.3871,-0.8296][0.1334,0.1481,0][-0.1467,0.1985,-0.5296][-0.2012,0.3418,-0.918][0.1463,0.2493,0][-0.1467,0.1985,-0.5296][-0.2012,0.3418,-0.918][0.1463,0.2493,0][-0.132,0.0184,-0.6208][-0.4023,0.3871,-0.8296][0.1334,0.1481,0][-0.1881,0.0154,-0.5939][-0.4208,0.3767,-0.8252][0.1631,0.1503,0][-0.1881,0.0154,-0.5939][-0.4208,0.3767,-0.8252][0.1631,0.1503,0][-0.2611,0.1947,-0.4758][-0.5733,0.3129,-0.7573][0.2102,0.2538,0][-0.1467,0.1985,-0.5296][-0.2012,0.3418,-0.918][0.1463,0.2493,0][-0.5266,-0.1385,-0.2447][-0.9182,0.00280014,-0.396][0.3908,0.1015,0][-0.5356,0.1766,-0.2154][-0.8339,0.0868001,-0.545][0.3882,0.2601,0][-0.3417,-0.0126,-0.5251][-0.6383,0.2995,-0.7091][0.2391,0.1493,0][-0.2639,0.1846,-0.3793][0.9665,0.2558,-0.022][0.5745,0.3347,0][-0.2611,0.1947,-0.4758][0.9661,0.2525,0.0545][0.6253,0.3395,0][-0.3411,0.4774,-0.3671][0.8155,0.2339,-0.5294][0.5748,0.5085,0][-0.3411,0.4774,-0.3671][0.8155,0.2339,-0.5294][0.5748,0.5085,0][-0.3027,0.4688,-0.3188][0.7818,0.2274,-0.5806][0.5381,0.4989,0][-0.2639,0.1846,-0.3793][0.9665,0.2558,-0.022][0.5745,0.3347,0][-0.5356,0.1766,-0.2154][-0.8339,0.0868001,-0.545][0.3882,0.2601,0][-0.4669,0.4767,-0.2516][-0.6734,0.0635001,-0.7366][0.3426,0.4061,0][-0.3411,0.4774,-0.3671][-0.6796,0.0699001,-0.7302][0.2632,0.4033,0][-0.3411,0.4774,-0.3671][-0.6796,0.0699001,-0.7302][0.2632,0.4033,0][-0.2611,0.1947,-0.4758][-0.5733,0.3129,-0.7573][0.2102,0.2538,0][-0.5356,0.1766,-0.2154][-0.8339,0.0868001,-0.545][0.3882,0.2601,0][-0.4784,0.1751,-0.1954][-0.3288,0.185,0.9261][0.4267,0.3323,0][-0.413,0.4685,-0.226][-0.4061,0.1055,0.9077][0.4615,0.4986,0][-0.4669,0.4767,-0.2516][-0.4092,0.1024,0.9067][0.4242,0.5037,0][-0.4669,0.4767,-0.2516][-0.4092,0.1024,0.9067][0.4242,0.5037,0][-0.5356,0.1766,-0.2154][-0.3196,0.1852,0.9293][0.3904,0.3359,0][-0.4784,0.1751,-0.1954][-0.3288,0.185,0.9261][0.4267,0.3323,0][-0.2639,0.1846,-0.3793][0.5988,-0.00660009,0.8009][0.5745,0.3347,0][-0.3027,0.4688,-0.3188][0.645,-0.0632001,0.7616][0.5381,0.4989,0][-0.413,0.4685,-0.226][0.6416,-0.0604001,0.7647][0.4615,0.4986,0][-0.413,0.4685,-0.226][0.6416,-0.0604001,0.7647][0.4615,0.4986,0][-0.4784,0.1751,-0.1954][0.7682,-0.00870012,0.6401][0.4267,0.3323,0][-0.2639,0.1846,-0.3793][0.5988,-0.00660009,0.8009][0.5745,0.3347,0][-0.3424,0.7485,-0.2644][0.7816,0.2241,-0.5821][0.5031,0.6584,0][-0.3027,0.4688,-0.3188][0.7818,0.2274,-0.5806][0.5381,0.4989,0][-0.3411,0.4774,-0.3671][0.8155,0.2339,-0.5294][0.5748,0.5085,0][-0.3411,0.4774,-0.3671][0.8155,0.2339,-0.5294][0.5748,0.5085,0][-0.3791,0.7628,-0.3081][0.7817,0.2241,-0.582][0.5286,0.6782,0][-0.3424,0.7485,-0.2644][0.7816,0.2241,-0.5821][0.5031,0.6584,0][-0.4669,0.4767,-0.2516][-0.6734,0.0635001,-0.7366][0.3426,0.4061,0][-0.4458,0.7696,-0.2494][-0.6558,0.0546001,-0.7529][0.3293,0.5532,0][-0.3791,0.7628,-0.3081][-0.6604,0.0564001,-0.7488][0.2872,0.5518,0][-0.3791,0.7628,-0.3081][-0.6604,0.0564001,-0.7488][0.2872,0.5518,0][-0.3411,0.4774,-0.3671][-0.6796,0.0699001,-0.7302][0.2632,0.4033,0][-0.4669,0.4767,-0.2516][-0.6734,0.0635001,-0.7366][0.3426,0.4061,0][-0.3866,0.7525,-0.2288][-0.3178,0.0389,0.9473][0.4778,0.6602,0][-0.4458,0.7696,-0.2494][-0.3337,0.0367001,0.9419][0.4478,0.6765,0][-0.4669,0.4767,-0.2516][-0.4092,0.1024,0.9067][0.4242,0.5037,0][-0.4669,0.4767,-0.2516][-0.4092,0.1024,0.9067][0.4242,0.5037,0][-0.413,0.4685,-0.226][-0.4061,0.1055,0.9077][0.4615,0.4986,0][-0.3866,0.7525,-0.2288][-0.3178,0.0389,0.9473][0.4778,0.6602,0][-0.3424,0.7485,-0.2644][0.6292,-0.0522001,0.7754][0.5031,0.6584,0][-0.3866,0.7525,-0.2288][0.6242,-0.0504001,0.7796][0.4778,0.6602,0][-0.413,0.4685,-0.226][0.6416,-0.0604001,0.7647][0.4615,0.4986,0][-0.413,0.4685,-0.226][0.6416,-0.0604001,0.7647][0.4615,0.4986,0][-0.3027,0.4688,-0.3188][0.645,-0.0632001,0.7616][0.5381,0.4989,0][-0.3424,0.7485,-0.2644][0.6292,-0.0522001,0.7754][0.5031,0.6584,0][-0.4122,0.7995,-0.2764][-0.1317,0.6689,0.7316][0.4878,0.6982,0][-0.4458,0.7696,-0.2494][-0.0468999,0.6979,0.7146][0.4478,0.6765,0][-0.3866,0.7525,-0.2288][-0.1601,0.6578,0.736][0.4778,0.6602,0][-0.3866,0.7525,-0.2288][-0.1601,0.6578,0.736][0.4778,0.6602,0][-0.3732,0.7854,-0.2504][-0.2801,0.6033,0.7468][0.4903,0.6735,0][-0.4122,0.7995,-0.2764][-0.1317,0.6689,0.7316][0.4878,0.6982,0][-0.4458,0.7696,-0.2494][-0.6558,0.0546001,-0.7529][0.3293,0.5532,0][-0.4122,0.7995,-0.2764][-0.6554,0.0588001,-0.753][0.3082,0.5696,0][-0.3791,0.7628,-0.3081][-0.6604,0.0564001,-0.7488][0.2872,0.5518,0][-0.3424,0.7485,-0.2644][0.6231,0.2368,0.7455][0.5031,0.6584,0][-0.3732,0.7854,-0.2504][0.6231,0.2368,0.7455][0.4903,0.6735,0][-0.3866,0.7525,-0.2288][0.6231,0.2368,0.7455][0.4778,0.6602,0][-0.3996,-0.4379,-0.5016][-0.8317,0.0316001,-0.5543][0.1366,0.7675,0][-0.5147,-0.4392,-0.3293][-0.8668,-0.00539987,-0.4987][0.2474,0.7716,0][-0.4487,-0.2708,-0.4335][-0.8199,-0.0323999,-0.5716][0.1725,0.8667,0][-0.3376,-0.6398,-0.6166][-0.8269,-0.0281999,-0.5617][0.0836,0.65,0][-0.4048,-0.6589,-0.5167][-0.831,0.0269001,-0.5557][0.1471,0.6412,0][-0.3996,-0.4379,-0.5016][-0.8317,0.0316001,-0.5543][0.1366,0.7675,0][-0.5859,-0.1193,-0.004][-0.9699,0.1257,-0.2084][0.4247,0.9651,0][-0.5266,-0.1385,-0.2447][-0.7959,0.5557,-0.2403][0.2685,0.9654,0][-0.5201,-0.1709,-0.3412][-0.9365,0.0306001,-0.3492][0.226,0.9292,0][-0.3091,-0.2614,-0.4763][-0.286,0.2604,-0.9222][0.0883,0.8738,0][-0.3034,-0.4317,-0.5214][-0.2047,0.3459,-0.9157][0.0768,0.774,0][-0.3996,-0.4379,-0.5016][-0.2324,0.3331,-0.9138][0.1366,0.7675,0][-0.3996,-0.4379,-0.5016][-0.2324,0.3331,-0.9138][0.1366,0.7675,0][-0.4487,-0.2708,-0.4335][-0.3629,0.3391,-0.8679][0.1725,0.8667,0][-0.3091,-0.2614,-0.4763][-0.286,0.2604,-0.9222][0.0883,0.8738,0][-0.5147,-0.4392,-0.3293][-0.8668,-0.00539987,-0.4987][0.2474,0.7716,0][-0.5201,-0.1709,-0.3412][-0.9365,0.0306001,-0.3492][0.226,0.9292,0][-0.4487,-0.2708,-0.4335][-0.8199,-0.0323999,-0.5716][0.1725,0.8667,0][-0.5201,-0.1709,-0.3412][-0.9365,0.0306001,-0.3492][0.226,0.9292,0][-0.5147,-0.4392,-0.3293][-0.8668,-0.00539987,-0.4987][0.2474,0.7716,0][-0.55,-0.2624,-0.2108][-0.9758,0.00870015,-0.2183][0.3089,0.8763,0][-0.3376,-0.6398,-0.6166][-0.1526,0.4563,-0.8766][0.0836,0.65,0][-0.2765,-0.6316,-0.6223][-0.1437,0.4623,-0.875][0.0461,0.6581,0][-0.2497,-0.7995,-0.7229][-0.1461,0.4911,-0.8588][0.0223,0.5607,0][-0.4048,-0.6589,-0.5167][-0.831,0.0269001,-0.5557][0.1471,0.6412,0][-0.3376,-0.6398,-0.6166][-0.8269,-0.0281999,-0.5617][0.0836,0.65,0][-0.2497,-0.7995,-0.7229][-0.8207,-0.0746999,-0.5664][0.0223,0.5607,0][-0.2497,-0.7995,-0.7229][0.6418,-0.3162,0.6986][0.213,0.3198,0][-0.2765,-0.6316,-0.6223][0.6433,-0.2983,0.7051][0.1935,0.3662,0][-0.4048,-0.6589,-0.5167][0.6469,-0.2851,0.7073][0.1481,0.3575,0][-0.4048,-0.6589,-0.5167][0.6469,-0.2851,0.7073][0.1481,0.3575,0][-0.2765,-0.6316,-0.6223][0.6433,-0.2983,0.7051][0.1935,0.3662,0][-0.3034,-0.4317,-0.5214][0.6573,-0.2315,0.7172][0.1738,0.4235,0][-0.3034,-0.4317,-0.5214][0.6573,-0.2315,0.7172][0.1738,0.4235,0][-0.5147,-0.4392,-0.3293][0.6851,-0.2614,0.6799][0.0963,0.423,0][-0.4048,-0.6589,-0.5167][0.6469,-0.2851,0.7073][0.1481,0.3575,0][-0.3091,-0.2614,-0.4763][0.6628,-0.3273,0.6735][0.1673,0.4728,0][-0.55,-0.2624,-0.2108][0.7571,-0.3822,0.5298][0.0696,0.478,0][-0.5147,-0.4392,-0.3293][0.6851,-0.2614,0.6799][0.0963,0.423,0][-0.5147,-0.4392,-0.3293][0.6851,-0.2614,0.6799][0.0963,0.423,0][-0.3034,-0.4317,-0.5214][0.6573,-0.2315,0.7172][0.1738,0.4235,0][-0.3091,-0.2614,-0.4763][0.6628,-0.3273,0.6735][0.1673,0.4728,0][-0.2654,-0.1075,-0.4486][-0.3855,0.4663,-0.7962][0.075,0.9693,0][-0.3091,-0.2614,-0.4763][-0.286,0.2604,-0.9222][0.0883,0.8738,0][-0.4487,-0.2708,-0.4335][-0.3629,0.3391,-0.8679][0.1725,0.8667,0][-0.2654,-0.1075,-0.4486][-0.3855,0.4663,-0.7962][0.075,0.9693,0][-0.4487,-0.2708,-0.4335][-0.3629,0.3391,-0.8679][0.1725,0.8667,0][-0.5201,-0.1709,-0.3412][-0.4048,0.7568,-0.5132][0.226,0.9292,0][-0.5708,0.1426,-0.096][0.116,0.8962,-0.4283][0.4544,0.2539,0][-0.6022,0.2048,0.0278][0.101,0.8992,-0.4258][0.5197,0.2815,0][-0.5376,0.2015,0.0361][0.1064,0.8981,-0.4267][0.5221,0.3089,0][-0.5376,0.2015,0.0361][0.1064,0.8981,-0.4267][0.5221,0.3089,0][-0.5094,0.1409,-0.0822][0.1218,0.895,-0.4292][0.4522,0.2882,0][-0.5708,0.1426,-0.096][0.116,0.8962,-0.4283][0.4544,0.2539,0][-0.2639,0.1846,-0.3793][0.5988,-0.00660009,0.8009][0.8533,0.9297,0][-0.2497,-0.0753,-0.3832][0.6209,-0.0103001,0.7838][0.8422,0.8365,0][-0.1271,-0.0649,-0.4814][0.6272,-0.0760001,0.7752][0.8952,0.8281,0][-0.1271,-0.0649,-0.4814][0.6272,-0.0760001,0.7752][0.8952,0.8281,0][-0.1286,0.1918,-0.4549][0.538,-0.0174001,0.8427][0.9064,0.9217,0][-0.2639,0.1846,-0.3793][0.5988,-0.00660009,0.8009][0.8533,0.9297,0][-0.2639,0.1846,-0.3793][0.5988,-0.00660009,0.8009][0.8533,0.9297,0][-0.4784,0.1751,-0.1954][0.7682,-0.00870012,0.6401][0.7582,0.9416,0][-0.4515,-0.0857999,-0.2063][0.767,0.0494999,0.6397][0.7555,0.8472,0][-0.4515,-0.0857999,-0.2063][0.767,0.0494999,0.6397][0.7555,0.8472,0][-0.2497,-0.0753,-0.3832][0.6209,-0.0103001,0.7838][0.8422,0.8365,0][-0.2639,0.1846,-0.3793][0.5988,-0.00660009,0.8009][0.8533,0.9297,0][-0.5094,0.1409,-0.0822][0.97,-0.0169001,0.2425][0.7148,0.9317,0][-0.5376,0.2015,0.0361][0.9967,0.00129985,0.0815][0.6699,0.9549,0][-0.5347,-0.1162,0.0123][0.9957,-0.00260015,0.0926][0.6758,0.8382,0][-0.5347,-0.1162,0.0123][0.9957,-0.00260015,0.0926][0.6758,0.8382,0][-0.5094,-0.1166,-0.1063][0.9453,0.00989986,0.326][0.7173,0.8383,0][-0.5094,0.1409,-0.0822][0.97,-0.0169001,0.2425][0.7148,0.9317,0][-0.5276,0.13,0.2452][0.9477,0.0179999,-0.3187][0.5933,0.9271,0][-0.5265,-0.1373,0.2308][0.9313,0.0254999,-0.3633][0.6005,0.8266,0][-0.5347,-0.1162,0.0123][0.9957,-0.00260015,0.0926][0.6758,0.8382,0][-0.5347,-0.1162,0.0123][0.9957,-0.00260015,0.0926][0.6758,0.8382,0][-0.5376,0.2015,0.0361][0.9967,0.00129985,0.0815][0.6699,0.9549,0][-0.5276,0.13,0.2452][0.9477,0.0179999,-0.3187][0.5933,0.9271,0][-0.3503,0.0738001,0.4519][0.6291,0.0231999,-0.777][0.5081,0.8994,0][-0.3506,-0.1584,0.4438][0.6186,0.0306999,-0.7851][0.516,0.8107,0][-0.5265,-0.1373,0.2308][0.9313,0.0254999,-0.3633][0.6005,0.8266,0][-0.5265,-0.1373,0.2308][0.9313,0.0254999,-0.3633][0.6005,0.8266,0][-0.5276,0.13,0.2452][0.9477,0.0179999,-0.3187][0.5933,0.9271,0][-0.3503,0.0738001,0.4519][0.6291,0.0231999,-0.777][0.5081,0.8994,0][-0.1436,0.0508,0.5524][0.3287,0.0155,-0.9443][0.4298,0.8832,0][-0.1444,-0.1672,0.548][0.3303,0.0216,-0.9436][0.4378,0.7995,0][-0.3506,-0.1584,0.4438][0.6186,0.0306999,-0.7851][0.516,0.8107,0][-0.3506,-0.1584,0.4438][0.6186,0.0306999,-0.7851][0.516,0.8107,0][-0.3503,0.0738001,0.4519][0.6291,0.0231999,-0.777][0.5081,0.8994,0][-0.1436,0.0508,0.5524][0.3287,0.0155,-0.9443][0.4298,0.8832,0][0,0.0454,0.5817][0.0046,0.0107,-0.9999][0.376,0.8759,0][0,-0.1701,0.5794][0.0076,0.0147,-0.9999][0.3841,0.793,0][-0.1444,-0.1672,0.548][0.3303,0.0216,-0.9436][0.4378,0.7995,0][-0.1444,-0.1672,0.548][0.3303,0.0216,-0.9436][0.4378,0.7995,0][-0.1436,0.0508,0.5524][0.3287,0.0155,-0.9443][0.4298,0.8832,0][0,0.0454,0.5817][0.0046,0.0107,-0.9999][0.376,0.8759,0][-0.5094,0.1409,-0.0822][0.97,-0.0169001,0.2425][0.7148,0.9317,0][-0.5094,-0.1166,-0.1063][0.9453,0.00989986,0.326][0.7173,0.8383,0][-0.4515,-0.0857999,-0.2063][0.767,0.0494999,0.6397][0.7555,0.8472,0][-0.4515,-0.0857999,-0.2063][0.767,0.0494999,0.6397][0.7555,0.8472,0][-0.4784,0.1751,-0.1954][0.7682,-0.00870012,0.6401][0.7582,0.9416,0][-0.5094,0.1409,-0.0822][0.97,-0.0169001,0.2425][0.7148,0.9317,0][-0.5265,-0.1373,0.2308][0.0665999,-0.9911,-0.1149][0.6352,0.0789,0][-0.5747,-0.1443,0.2638][0.0524998,-0.9923,-0.1119][0.6465,0.1071,0][-0.5859,-0.1193,-0.004][0.0891998,-0.9911,-0.0986][0.514,0.1173,0][-0.5859,-0.1193,-0.004][0.0891998,-0.9911,-0.0986][0.514,0.1173,0][-0.5347,-0.1162,0.0123][0.0912999,-0.9909,-0.0991][0.5216,0.0899,0][-0.5265,-0.1373,0.2308][0.0665999,-0.9911,-0.1149][0.6352,0.0789,0][-0.3506,-0.1584,0.4438][-0.0205002,-0.9989,-0.0426][0.7679,0.0562,0][-0.3785,-0.1615,0.5367][-0.0171002,-0.9991,-0.0376][0.7821,0.0986,0][-0.5747,-0.1443,0.2638][0.0524998,-0.9923,-0.1119][0.6465,0.1071,0][-0.5747,-0.1443,0.2638][0.0524998,-0.9923,-0.1119][0.6465,0.1071,0][-0.5265,-0.1373,0.2308][0.0665999,-0.9911,-0.1149][0.6352,0.0789,0][-0.3506,-0.1584,0.4438][-0.0205002,-0.9989,-0.0426][0.7679,0.0562,0][-0.1444,-0.1672,0.548][-0.0262002,-0.9995,-0.0151][0.8872,0.0411,0][-0.17,-0.1684,0.6663][-0.0214002,-0.9996,-0.0165][0.8908,0.0936,0][-0.3785,-0.1615,0.5367][-0.0171002,-0.9991,-0.0376][0.7821,0.0986,0][-0.3785,-0.1615,0.5367][-0.0171002,-0.9991,-0.0376][0.7821,0.0986,0][-0.3506,-0.1584,0.4438][-0.0205002,-0.9989,-0.0426][0.7679,0.0562,0][-0.1444,-0.1672,0.548][-0.0262002,-0.9995,-0.0151][0.8872,0.0411,0][0,-0.1701,0.5794][0.00169985,-0.9999,-0.0136][0.9647,0.031,0][0,-0.1718,0.7229][0.00109985,-0.9999,-0.0117][0.9811,0.0896,0][-0.17,-0.1684,0.6663][-0.0214002,-0.9996,-0.0165][0.8908,0.0936,0][-0.17,-0.1684,0.6663][-0.0214002,-0.9996,-0.0165][0.8908,0.0936,0][-0.1444,-0.1672,0.548][-0.0262002,-0.9995,-0.0151][0.8872,0.0411,0][0,-0.1701,0.5794][0.00169985,-0.9999,-0.0136][0.9647,0.031,0][-0.4515,-0.0857999,-0.2063][0.7212,-0.4512,0.5257][0.0909,0.5333,0][-0.55,-0.2624,-0.2108][0.7571,-0.3822,0.5298][0.0696,0.478,0][-0.3091,-0.2614,-0.4763][0.6628,-0.3273,0.6735][0.1673,0.4728,0][-0.3091,-0.2614,-0.4763][0.6628,-0.3273,0.6735][0.1673,0.4728,0][-0.2497,-0.0753,-0.3832][0.5837,-0.5047,0.6361][0.1657,0.5355,0][-0.4515,-0.0857999,-0.2063][0.7212,-0.4512,0.5257][0.0909,0.5333,0][-0.5094,-0.1166,-0.1063][0.8718,-0.4217,0.2492][0.0566,0.5301,0][-0.5347,-0.1162,0.0123][0.9006,-0.3894,0.193][0.0218,0.5395,0][-0.55,-0.2624,-0.2108][0.7571,-0.3822,0.5298][0.0696,0.478,0][-0.4515,-0.0857999,-0.2063][0.7212,-0.4512,0.5257][0.0909,0.5333,0][-0.5094,-0.1166,-0.1063][0.8718,-0.4217,0.2492][0.0566,0.5301,0][-0.55,-0.2624,-0.2108][0.7571,-0.3822,0.5298][0.0696,0.478,0][-0.5347,-0.1162,0.0123][-0.1247,-0.826,0.5497][0.4474,0.9429,0][-0.5859,-0.1193,-0.004][-0.1247,-0.826,0.5497][0.4247,0.9651,0][-0.55,-0.2624,-0.2108][-0.1247,-0.826,0.5497][0.3089,0.8763,0][-0.1271,-0.0649,-0.4814][0.2861,-0.8751,0.3904][0.8952,0.8281,0][-0.2497,-0.0753,-0.3832][0.3497,-0.8711,0.3449][0.8422,0.8365,0][-0.2654,-0.1075,-0.4486][0.351,-0.8651,0.3583][0.8442,0.8113,0][-0.2654,-0.1075,-0.4486][0.351,-0.8651,0.3583][0.8442,0.8113,0][-0.1212,-0.1076,-0.5793][0.1224,-0.8238,0.5535][0.9051,0.7939,0][-0.1271,-0.0649,-0.4814][0.2861,-0.8751,0.3904][0.8952,0.8281,0][-0.2654,-0.1075,-0.4486][0.9614,-0.2542,-0.1055][0.8442,0.8113,0][-0.2497,-0.0753,-0.3832][0.9614,-0.2542,-0.1055][0.8422,0.8365,0][-0.3091,-0.2614,-0.4763][0.9614,-0.2542,-0.1055][0.8057,0.7713,0][-0.5356,0.1766,-0.2154][-0.8339,0.0868001,-0.545][0.3882,0.2601,0][-0.2611,0.1947,-0.4758][-0.5733,0.3129,-0.7573][0.2102,0.2538,0][-0.3417,-0.0126,-0.5251][-0.6383,0.2995,-0.7091][0.2391,0.1493,0][0,0.6316,-0.4998][-0.000199853,0.9709,0.2397][0.8146,0.6889,0][-0.0280999,0.618,-0.4934][-0.3827,0.897,0.2214][0.7882,0.6807,0][0,0.619,-0.4488][-9.98534e-005,0.9709,0.2397][0.8142,0.6763,0][-0.1212,-0.1076,-0.5793][0.1224,-0.8238,0.5535][0.9051,0.7939,0][0,-0.2109,-0.6622][-0.0037001,-0.6735,0.7391][0.9572,0.7586,0][0,-0.0625,-0.527][-0.000900128,-0.8509,0.5252][0.9453,0.8237,0][-0.1271,-0.0649,-0.4814][0.2861,-0.8751,0.3904][0.8952,0.8281,0][-0.1212,-0.1076,-0.5793][0.1224,-0.8238,0.5535][0.9051,0.7939,0][0,-0.0625,-0.527][-0.000900128,-0.8509,0.5252][0.9453,0.8237,0][0,-0.0625,-0.527][-0.000900128,-0.8509,0.5252][0.9453,0.8237,0][0,-0.062,-0.5258][-0.00120014,-0.9158,0.4017][0.9452,0.8241,0][-0.1271,-0.0649,-0.4814][0.2861,-0.8751,0.3904][0.8952,0.8281,0][0.381,0.06,0.5081][0.6491,0.0855999,0.7559][0.7725,0.2165,0][0.3785,-0.1592,0.5425][0.6244,0.1369,0.769][0.7821,0.0986,0][0.5747,-0.1371,0.2824][0.9225,-0.0105001,0.3858][0.6465,0.1071,0][0.5747,-0.1371,0.2824][0.9225,-0.0105001,0.3858][0.6465,0.1071,0][0.5894,0.126,0.2693][0.9536,-0.0384001,0.2986][0.6368,0.2469,0][0.381,0.06,0.5081][0.6491,0.0855999,0.7559][0.7725,0.2165,0][0.1572,0.0347,0.6218][0.3762,0.2036,0.9039][0.8918,0.2059,0][0.17,-0.168,0.6672][0.387,0.2327,0.8922][0.8908,0.0936,0][0.3785,-0.1592,0.5425][0.6244,0.1369,0.769][0.7821,0.0986,0][0.3785,-0.1592,0.5425][0.6244,0.1369,0.769][0.7821,0.0986,0][0.381,0.06,0.5081][0.6491,0.0855999,0.7559][0.7725,0.2165,0][0.1572,0.0347,0.6218][0.3762,0.2036,0.9039][0.8918,0.2059,0][0,0.0251,0.669][-0.00289996,0.2486,0.9686][0.9766,0.2013,0][0,-0.1718,0.7229][-0.00279996,0.2641,0.9645][0.9811,0.0896,0][0.17,-0.168,0.6672][0.387,0.2327,0.8922][0.8908,0.0936,0][0.17,-0.168,0.6672][0.387,0.2327,0.8922][0.8908,0.0936,0][0.1572,0.0347,0.6218][0.3762,0.2036,0.9039][0.8918,0.2059,0][0,0.0251,0.669][-0.00289996,0.2486,0.9686][0.9766,0.2013,0][0.3791,0.7628,-0.3081][-0.5922,0.7282,-0.3449][0.5286,0.6782,0][0.3424,0.7485,-0.2644][-0.6592,0.6752,-0.3309][0.5031,0.6584,0][0.3732,0.7854,-0.2504][-0.591,0.7291,-0.3451][0.4903,0.6735,0][0.3732,0.7854,-0.2504][-0.591,0.7291,-0.3451][0.4903,0.6735,0][0.4122,0.7995,-0.2764][-0.5188,0.7769,-0.3566][0.4878,0.6982,0][0.3791,0.7628,-0.3081][-0.5922,0.7282,-0.3449][0.5286,0.6782,0][0.5356,0.1798,-0.2072][0.0544001,0.9675,0.247][0.3882,0.2601,0][0.4784,0.1781,-0.1878][0.0458001,0.9661,0.2542][0.3947,0.29,0][0.5094,0.1447,-0.0726][0.0238001,0.9618,0.2728][0.4522,0.2882,0][0.5094,0.1447,-0.0726][0.0238001,0.9618,0.2728][0.4522,0.2882,0][0.5708,0.1468,-0.0854][0.0328001,0.9636,0.2653][0.4544,0.2539,0][0.5356,0.1798,-0.2072][0.0544001,0.9675,0.247][0.3882,0.2601,0][0.5276,0.1334,0.2538][0.0299001,0.9476,0.318][0.6443,0.278,0][0.5894,0.126,0.2693][0.0309001,0.9472,0.3192][0.6368,0.2469,0][0.6022,0.2083,0.0369][-0.00809986,0.946,0.3242][0.5197,0.2815,0][0.6022,0.2083,0.0369][-0.00809986,0.946,0.3242][0.5197,0.2815,0][0.5376,0.2047,0.0444][-0.0164999,0.9467,0.3216][0.5221,0.3089,0][0.5276,0.1334,0.2538][0.0299001,0.9476,0.318][0.6443,0.278,0][0.381,0.06,0.5081][0.0168001,0.9615,0.2743][0.7725,0.2165,0][0.5894,0.126,0.2693][0.0309001,0.9472,0.3192][0.6368,0.2469,0][0.5276,0.1334,0.2538][0.0299001,0.9476,0.318][0.6443,0.278,0][0.5276,0.1334,0.2538][0.0299001,0.9476,0.318][0.6443,0.278,0][0.3503,0.0756,0.4565][0.0185001,0.9598,0.2801][0.7769,0.2489,0][0.381,0.06,0.5081][0.0168001,0.9615,0.2743][0.7725,0.2165,0][0.1436,0.0514,0.5539][0.00860015,0.9707,0.2402][0.8931,0.2382,0][0.1572,0.0347,0.6218][0.00800015,0.9719,0.2351][0.8918,0.2059,0][0.381,0.06,0.5081][0.0168001,0.9615,0.2743][0.7725,0.2165,0][0.381,0.06,0.5081][0.0168001,0.9615,0.2743][0.7725,0.2165,0][0.3503,0.0756,0.4565][0.0185001,0.9598,0.2801][0.7769,0.2489,0][0.1436,0.0514,0.5539][0.00860015,0.9707,0.2402][0.8931,0.2382,0][0,0.0454,0.5817][-0.00219985,0.9735,0.2287][0.97,0.2397,0][0,0.0251,0.669][-0.00199985,0.974,0.2264][0.9766,0.2013,0][0.1572,0.0347,0.6218][0.00800015,0.9719,0.2351][0.8918,0.2059,0][0.1572,0.0347,0.6218][0.00800015,0.9719,0.2351][0.8918,0.2059,0][0.1436,0.0514,0.5539][0.00860015,0.9707,0.2402][0.8931,0.2382,0][0,0.0454,0.5817][-0.00219985,0.9735,0.2287][0.97,0.2397,0][0.1212,-0.1069,-0.5776][0.515,-0.3274,-0.7922][0.1395,0.082,0][0,-0.2109,-0.6622][0.00499997,-0.1715,-0.9852][0.0695,0.0291,0][0,-0.0289,-0.6938][0.00349997,-0.1759,-0.9844][0.0582,0.1166,0][0,-0.0289,-0.6938][0.00349997,-0.1759,-0.9844][0.0582,0.1166,0][0.0594,0.0214,-0.6534][0.5483,-0.2138,-0.8085][0.0931,0.1442,0][0.1212,-0.1069,-0.5776][0.515,-0.3274,-0.7922][0.1395,0.082,0][0.2654,-0.105,-0.4422][0.4122,-0.7578,-0.5058][0.2331,0.0767,0][0.3417,-0.0110001,-0.5209][0.4089,-0.6788,-0.61][0.2391,0.1493,0][0.5266,-0.1313,-0.2262][0.3715,-0.7544,-0.5411][0.3908,0.1015,0][0.5708,0.1468,-0.0854][0.9684,-0.0283001,-0.2478][0.4544,0.2539,0][0.6022,0.2083,0.0369][0.9953,-0.0462001,-0.085][0.5197,0.2815,0][0.5266,-0.1313,-0.2262][0.9223,-0.0115001,-0.3863][0.3908,0.1015,0][0.5266,-0.1313,-0.2262][0.9223,-0.0115001,-0.3863][0.3908,0.1015,0][0.5356,0.1798,-0.2072][0.839,0.0746999,-0.539][0.3882,0.2601,0][0.5708,0.1468,-0.0854][0.9684,-0.0283001,-0.2478][0.4544,0.2539,0][0.5266,-0.1313,-0.2262][0.9223,-0.0115001,-0.3863][0.3908,0.1015,0][0.6022,0.2083,0.0369][0.9953,-0.0462001,-0.085][0.5197,0.2815,0][0.5859,-0.1106,0.0182][0.9936,-0.0450002,-0.1034][0.514,0.1173,0][0.5894,0.126,0.2693][0.9536,-0.0384001,0.2986][0.6368,0.2469,0][0.5747,-0.1371,0.2824][0.9225,-0.0105001,0.3858][0.6465,0.1071,0][0.5859,-0.1106,0.0182][0.9936,-0.0450002,-0.1034][0.514,0.1173,0][0.5859,-0.1106,0.0182][0.9936,-0.0450002,-0.1034][0.514,0.1173,0][0.6022,0.2083,0.0369][0.9953,-0.0462001,-0.085][0.5197,0.2815,0][0.5894,0.126,0.2693][0.9536,-0.0384001,0.2986][0.6368,0.2469,0][0.5266,-0.1313,-0.2262][0.3526,0.8796,-0.3193][0.2685,0.9654,0][0.5201,-0.1643,-0.3244][0.4107,0.7585,-0.5059][0.226,0.9292,0][0.2654,-0.105,-0.4422][0.4054,0.4542,-0.7933][0.075,0.9693,0][0.5859,-0.1106,0.0182][0.9721,0.115,-0.2046][0.4247,0.9651,0][0.55,-0.2522,-0.1848][0.9774,-0.00210015,-0.2112][0.3089,0.8763,0][0.5201,-0.1643,-0.3244][0.9399,0.0121999,-0.3414][0.226,0.9292,0][0.1881,0.0159999,-0.5924][0.3774,-0.3109,-0.8723][0.1631,0.1503,0][0.3417,-0.0110001,-0.5209][0.4089,-0.6788,-0.61][0.2391,0.1493,0][0.2654,-0.105,-0.4422][0.4122,-0.7578,-0.5058][0.2331,0.0767,0][0.2654,-0.105,-0.4422][0.4122,-0.7578,-0.5058][0.2331,0.0767,0][0.1212,-0.1069,-0.5776][0.515,-0.3274,-0.7922][0.1395,0.082,0][0.1881,0.0159999,-0.5924][0.3774,-0.3109,-0.8723][0.1631,0.1503,0][0.1212,-0.1069,-0.5776][0.515,-0.3274,-0.7922][0.1395,0.082,0][0.0594,0.0214,-0.6534][0.5483,-0.2138,-0.8085][0.0931,0.1442,0][0.132,0.0186,-0.6201][0.3944,-0.3247,-0.8597][0.1334,0.1481,0][0.5147,-0.4277,-0.2997][0.8826,-0.0262001,-0.4693][0.2474,0.7716,0][0.4048,-0.6498,-0.4935][0.8537,0.0100999,-0.5206][0.1471,0.6412,0][0.3996,-0.4317,-0.486][0.8517,0.0126999,-0.5239][0.1366,0.7675,0][0.3034,-0.4272,-0.5097][0.2348,0.3415,-0.9101][0.0768,0.774,0][0.3996,-0.4317,-0.486][0.2627,0.3234,-0.9091][0.1366,0.7675,0][0.3376,-0.635,-0.6043][0.1765,0.459,-0.8707][0.0836,0.65,0][0.3376,-0.635,-0.6043][0.1765,0.459,-0.8707][0.0836,0.65,0][0.2765,-0.6276,-0.612][0.167,0.467,-0.8683][0.0461,0.6581,0][0.3034,-0.4272,-0.5097][0.2348,0.3415,-0.9101][0.0768,0.774,0][0.1286,0.1923,-0.4545][-0.00369985,0.9961,0.0881][0.1459,0.2865,0][0.2639,0.1859,-0.3761][-0.0127998,0.9954,0.0951][0.2198,0.2993,0][0.2611,0.1956,-0.4736][-0.0185998,0.9949,0.0995][0.2102,0.2538,0][0.2611,0.1956,-0.4736][-0.0185998,0.9949,0.0995][0.2102,0.2538,0][0.1467,0.1989,-0.5286][-0.00879985,0.9957,0.092][0.1463,0.2493,0][0.1286,0.1923,-0.4545][-0.00369985,0.9961,0.0881][0.1459,0.2865,0][0.1467,0.1989,-0.5286][0.8996,0.3568,0.2517][0.9523,0.4507,0][0.0844001,0.3596,-0.5335][0.9259,0.2676,0.2668][0.8939,0.5409,0][0.0649001,0.3521,-0.4593][0.9201,0.268,0.2855][0.8751,0.5287,0][0.0649001,0.3521,-0.4593][0.9201,0.268,0.2855][0.8751,0.5287,0][0.1286,0.1923,-0.4545][0.8975,0.3586,0.2567][0.9347,0.439,0][0.1467,0.1989,-0.5286][0.8996,0.3568,0.2517][0.9523,0.4507,0][0.0649001,0.3521,-0.4593][0.9201,0.268,0.2855][0.8751,0.5287,0][0.0844001,0.3596,-0.5335][0.9259,0.2676,0.2668][0.8939,0.5409,0][0.0281001,0.618,-0.4934][0.8563,0.1808,0.4838][0.8408,0.6806,0][0.0281001,0.618,-0.4934][0.8563,0.1808,0.4838][0.8408,0.6806,0][0,0.619,-0.4488][-0.00079995,0.3312,0.9435][0.8142,0.6763,0][0.0649001,0.3521,-0.4593][0.9201,0.268,0.2855][0.8751,0.5287,0][0,0.1984,-0.5297][0.00280005,0.3168,-0.9485][0.3127,0.5836,0][0.0844001,0.3596,-0.5335][0.0075,-0.0278,-0.9996][0.2587,0.6516,0][0.1467,0.1989,-0.5286][0.2077,0.3407,-0.917][0.2189,0.5844,0][0.1212,-0.1069,-0.5776][0.515,-0.3274,-0.7922][0.1395,0.082,0][0.132,0.0186,-0.6201][0.3944,-0.3247,-0.8597][0.1334,0.1481,0][0.1881,0.0159999,-0.5924][0.3774,-0.3109,-0.8723][0.1631,0.1503,0][0.0594,0.0214,-0.6534][0.0562001,0.5845,-0.8094][0.0931,0.1442,0][0,-0.0289,-0.6938][0.000900088,0.5854,-0.8107][0.0582,0.1166,0][0,0.1984,-0.5297][0.000900088,0.5854,-0.8107][0.0655,0.2408,0][0.3417,-0.0110001,-0.5209][0.6452,0.295,-0.7048][0.2391,0.1493,0][0.1881,0.0159999,-0.5924][0.4285,0.3748,-0.8222][0.1631,0.1503,0][0.2611,0.1956,-0.4736][0.581,0.3094,-0.7528][0.2102,0.2538,0][0.1467,0.1989,-0.5286][0.2077,0.3407,-0.917][0.1463,0.2493,0][0.132,0.0186,-0.6201][0.4077,0.3864,-0.8273][0.1334,0.1481,0][0.0594,0.0214,-0.6534][0.2479,0.4725,-0.8457][0.0931,0.1442,0][0.0594,0.0214,-0.6534][0.2479,0.4725,-0.8457][0.0931,0.1442,0][0,0.1984,-0.5297][0.00280005,0.3168,-0.9485][0.0655,0.2408,0][0.1467,0.1989,-0.5286][0.2077,0.3407,-0.917][0.1463,0.2493,0][0.1467,0.1989,-0.5286][0.2077,0.3407,-0.917][0.1463,0.2493,0][0.2611,0.1956,-0.4736][0.581,0.3094,-0.7528][0.2102,0.2538,0][0.1881,0.0159999,-0.5924][0.4285,0.3748,-0.8222][0.1631,0.1503,0][0.1881,0.0159999,-0.5924][0.4285,0.3748,-0.8222][0.1631,0.1503,0][0.132,0.0186,-0.6201][0.4077,0.3864,-0.8273][0.1334,0.1481,0][0.1467,0.1989,-0.5286][0.2077,0.3407,-0.917][0.1463,0.2493,0][0.5266,-0.1313,-0.2262][0.9223,-0.0115001,-0.3863][0.3908,0.1015,0][0.3417,-0.0110001,-0.5209][0.6452,0.295,-0.7048][0.2391,0.1493,0][0.5356,0.1798,-0.2072][0.839,0.0746999,-0.539][0.3882,0.2601,0][0.2639,0.1859,-0.3761][-0.9663,0.2564,-0.0237][0.5745,0.3347,0][0.3027,0.4693,-0.3177][-0.7822,0.2247,-0.581][0.5381,0.4989,0][0.3411,0.4779,-0.366][-0.8162,0.2318,-0.5293][0.5748,0.5085,0][0.3411,0.4779,-0.366][-0.8162,0.2318,-0.5293][0.5748,0.5085,0][0.2611,0.1956,-0.4736][-0.9659,0.2536,0.053][0.6253,0.3395,0][0.2639,0.1859,-0.3761][-0.9663,0.2564,-0.0237][0.5745,0.3347,0][0.5356,0.1798,-0.2072][0.839,0.0746999,-0.539][0.3882,0.2601,0][0.2611,0.1956,-0.4736][0.581,0.3094,-0.7528][0.2102,0.2538,0][0.3411,0.4779,-0.366][0.6842,0.0621999,-0.7267][0.2632,0.4033,0][0.3411,0.4779,-0.366][0.6842,0.0621999,-0.7267][0.2632,0.4033,0][0.4669,0.4774,-0.2498][0.6759,0.0539999,-0.735][0.3426,0.4061,0][0.5356,0.1798,-0.2072][0.839,0.0746999,-0.539][0.3882,0.2601,0][0.4784,0.1781,-0.1878][0.3182,0.2039,0.9258][0.4267,0.3323,0][0.5356,0.1798,-0.2072][0.3082,0.2042,0.9291][0.3904,0.3359,0][0.4669,0.4774,-0.2498][0.4051,0.1141,0.9071][0.4242,0.5037,0][0.4669,0.4774,-0.2498][0.4051,0.1141,0.9071][0.4242,0.5037,0][0.413,0.4692,-0.2243][0.4024,0.1179,0.9078][0.4615,0.4986,0][0.4784,0.1781,-0.1878][0.3182,0.2039,0.9258][0.4267,0.3323,0][0.413,0.4692,-0.2243][-0.6442,-0.0508999,0.7631][0.4615,0.4986,0][0.3027,0.4693,-0.3177][-0.6494,-0.0551999,0.7584][0.5381,0.4989,0][0.2639,0.1859,-0.3761][-0.6104,0.00590009,0.792][0.5745,0.3347,0][0.2639,0.1859,-0.3761][-0.6104,0.00590009,0.792][0.5745,0.3347,0][0.4784,0.1781,-0.1878][-0.7721,0.00740012,0.6355][0.4267,0.3323,0][0.413,0.4692,-0.2243][-0.6442,-0.0508999,0.7631][0.4615,0.4986,0][0.3411,0.4779,-0.366][-0.8162,0.2318,-0.5293][0.5748,0.5085,0][0.3027,0.4693,-0.3177][-0.7822,0.2247,-0.581][0.5381,0.4989,0][0.3424,0.7485,-0.2644][-0.7817,0.2223,-0.5827][0.5031,0.6584,0][0.3424,0.7485,-0.2644][-0.7817,0.2223,-0.5827][0.5031,0.6584,0][0.3791,0.7628,-0.3081][-0.7818,0.2223,-0.5826][0.5286,0.6782,0][0.3411,0.4779,-0.366][-0.8162,0.2318,-0.5293][0.5748,0.5085,0][0.4669,0.4774,-0.2498][0.6759,0.0539999,-0.735][0.3426,0.4061,0][0.3411,0.4779,-0.366][0.6842,0.0621999,-0.7267][0.2632,0.4033,0][0.3791,0.7628,-0.3081][0.6612,0.0531999,-0.7483][0.2872,0.5518,0][0.3791,0.7628,-0.3081][0.6612,0.0531999,-0.7483][0.2872,0.5518,0][0.4458,0.7696,-0.2494][0.6561,0.0512999,-0.7529][0.3293,0.5532,0][0.4669,0.4774,-0.2498][0.6759,0.0539999,-0.735][0.3426,0.4061,0][0.4669,0.4774,-0.2498][0.4051,0.1141,0.9071][0.4242,0.5037,0][0.4458,0.7696,-0.2494][0.3321,0.0423,0.9423][0.4478,0.6765,0][0.3866,0.7525,-0.2288][0.3163,0.0445,0.9476][0.4778,0.6602,0][0.3866,0.7525,-0.2288][0.3163,0.0445,0.9476][0.4778,0.6602,0][0.413,0.4692,-0.2243][0.4024,0.1179,0.9078][0.4615,0.4986,0][0.4669,0.4774,-0.2498][0.4051,0.1141,0.9071][0.4242,0.5037,0][0.3424,0.7485,-0.2644][-0.6303,-0.0479999,0.7749][0.5031,0.6584,0][0.3027,0.4693,-0.3177][-0.6494,-0.0551999,0.7584][0.5381,0.4989,0][0.413,0.4692,-0.2243][-0.6442,-0.0508999,0.7631][0.4615,0.4986,0][0.413,0.4692,-0.2243][-0.6442,-0.0508999,0.7631][0.4615,0.4986,0][0.3866,0.7525,-0.2288][-0.6246,-0.0458999,0.7796][0.4778,0.6602,0][0.3424,0.7485,-0.2644][-0.6303,-0.0479999,0.7749][0.5031,0.6584,0][0.4122,0.7995,-0.2764][0.1315,0.6691,0.7314][0.4878,0.6982,0][0.3732,0.7854,-0.2504][0.2798,0.6036,0.7466][0.4903,0.6735,0][0.3866,0.7525,-0.2288][0.1599,0.658,0.7358][0.4778,0.6602,0][0.3866,0.7525,-0.2288][0.1599,0.658,0.7358][0.4778,0.6602,0][0.4458,0.7696,-0.2494][0.0467001,0.6981,0.7144][0.4478,0.6765,0][0.4122,0.7995,-0.2764][0.1315,0.6691,0.7314][0.4878,0.6982,0][0.4458,0.7696,-0.2494][0.6561,0.0512999,-0.7529][0.3293,0.5532,0][0.3791,0.7628,-0.3081][0.6612,0.0531999,-0.7483][0.2872,0.5518,0][0.4122,0.7995,-0.2764][0.6555,0.0583999,-0.753][0.3082,0.5696,0][0.3424,0.7485,-0.2644][-0.6231,0.2371,0.7454][0.5031,0.6584,0][0.3866,0.7525,-0.2288][-0.6231,0.2371,0.7454][0.4778,0.6602,0][0.3732,0.7854,-0.2504][-0.6231,0.2371,0.7454][0.4903,0.6735,0][0.3996,-0.4317,-0.486][0.8517,0.0126999,-0.5239][0.1366,0.7675,0][0.4487,-0.265,-0.4186][0.8384,-0.0562001,-0.5421][0.1725,0.8667,0][0.5147,-0.4277,-0.2997][0.8826,-0.0262001,-0.4693][0.2474,0.7716,0][0.3376,-0.635,-0.6043][0.8511,-0.0492001,-0.5227][0.0836,0.65,0][0.3996,-0.4317,-0.486][0.8517,0.0126999,-0.5239][0.1366,0.7675,0][0.4048,-0.6498,-0.4935][0.8537,0.0100999,-0.5206][0.1471,0.6412,0][0.5859,-0.1106,0.0182][0.9721,0.115,-0.2046][0.4247,0.9651,0][0.5201,-0.1643,-0.3244][0.9399,0.0121999,-0.3414][0.226,0.9292,0][0.5266,-0.1313,-0.2262][0.7958,0.556,-0.2399][0.2685,0.9654,0][0.3091,-0.2576,-0.4667][0.3144,0.2484,-0.9162][0.0883,0.8738,0][0.4487,-0.265,-0.4186][0.3886,0.3289,-0.8607][0.1725,0.8667,0][0.3996,-0.4317,-0.486][0.2627,0.3234,-0.9091][0.1366,0.7675,0][0.3996,-0.4317,-0.486][0.2627,0.3234,-0.9091][0.1366,0.7675,0][0.3034,-0.4272,-0.5097][0.2348,0.3415,-0.9101][0.0768,0.774,0][0.3091,-0.2576,-0.4667][0.3144,0.2484,-0.9162][0.0883,0.8738,0][0.5147,-0.4277,-0.2997][0.8826,-0.0262001,-0.4693][0.2474,0.7716,0][0.4487,-0.265,-0.4186][0.8384,-0.0562001,-0.5421][0.1725,0.8667,0][0.5201,-0.1643,-0.3244][0.9399,0.0121999,-0.3414][0.226,0.9292,0][0.5201,-0.1643,-0.3244][0.9399,0.0121999,-0.3414][0.226,0.9292,0][0.55,-0.2522,-0.1848][0.9774,-0.00210015,-0.2112][0.3089,0.8763,0][0.5147,-0.4277,-0.2997][0.8826,-0.0262001,-0.4693][0.2474,0.7716,0][0.3376,-0.635,-0.6043][0.1765,0.459,-0.8707][0.0836,0.65,0][0.2497,-0.7972,-0.7169][0.1685,0.499,-0.8501][0.0223,0.5607,0][0.2765,-0.6276,-0.612][0.167,0.467,-0.8683][0.0461,0.6581,0][0.4048,-0.6498,-0.4935][0.8537,0.0100999,-0.5206][0.1471,0.6412,0][0.2497,-0.7972,-0.7169][0.8457,-0.0935001,-0.5254][0.0223,0.5607,0][0.3376,-0.635,-0.6043][0.8511,-0.0492001,-0.5227][0.0836,0.65,0][0.2497,-0.7972,-0.7169][-0.6737,-0.3088,0.6714][0.213,0.3198,0][0.4048,-0.6498,-0.4935][-0.6787,-0.2712,0.6825][0.1481,0.3575,0][0.2765,-0.6276,-0.612][-0.6761,-0.289,0.6777][0.1935,0.3662,0][0.4048,-0.6498,-0.4935][-0.6787,-0.2712,0.6825][0.1481,0.3575,0][0.5147,-0.4277,-0.2997][-0.711,-0.2422,0.6602][0.0963,0.423,0][0.3034,-0.4272,-0.5097][-0.6879,-0.217,0.6926][0.1738,0.4235,0][0.3034,-0.4272,-0.5097][-0.6879,-0.217,0.6926][0.1738,0.4235,0][0.2765,-0.6276,-0.612][-0.6761,-0.289,0.6777][0.1935,0.3662,0][0.4048,-0.6498,-0.4935][-0.6787,-0.2712,0.6825][0.1481,0.3575,0][0.3091,-0.2576,-0.4667][-0.6846,-0.3101,0.6597][0.1673,0.4728,0][0.3034,-0.4272,-0.5097][-0.6879,-0.217,0.6926][0.1738,0.4235,0][0.5147,-0.4277,-0.2997][-0.711,-0.2422,0.6602][0.0963,0.423,0][0.5147,-0.4277,-0.2997][-0.711,-0.2422,0.6602][0.0963,0.423,0][0.55,-0.2522,-0.1848][-0.7739,-0.3674,0.5158][0.0696,0.478,0][0.3091,-0.2576,-0.4667][-0.6846,-0.3101,0.6597][0.1673,0.4728,0][0.2654,-0.105,-0.4422][0.4054,0.4542,-0.7933][0.075,0.9693,0][0.4487,-0.265,-0.4186][0.3886,0.3289,-0.8607][0.1725,0.8667,0][0.3091,-0.2576,-0.4667][0.3144,0.2484,-0.9162][0.0883,0.8738,0][0.2654,-0.105,-0.4422][0.4054,0.4542,-0.7933][0.075,0.9693,0][0.5201,-0.1643,-0.3244][0.4107,0.7585,-0.5059][0.226,0.9292,0][0.4487,-0.265,-0.4186][0.3886,0.3289,-0.8607][0.1725,0.8667,0][0.5708,0.1468,-0.0854][-0.1149,0.8958,-0.4293][0.4544,0.2539,0][0.5094,0.1447,-0.0726][-0.1207,0.8946,-0.4302][0.4522,0.2882,0][0.5376,0.2047,0.0444][-0.1054,0.8977,-0.4277][0.5221,0.3089,0][0.5376,0.2047,0.0444][-0.1054,0.8977,-0.4277][0.5221,0.3089,0][0.6022,0.2083,0.0369][-0.0999999,0.8988,-0.4268][0.5197,0.2815,0][0.5708,0.1468,-0.0854][-0.1149,0.8958,-0.4293][0.4544,0.2539,0][0.1271,-0.0639,-0.4788][-0.6416,-0.0684999,0.764][0.8952,0.8281,0][0.2497,-0.0727001,-0.3766][-0.6362,-0.000199904,0.7715][0.8422,0.8365,0][0.2639,0.1859,-0.3761][-0.6104,0.00590009,0.792][0.8533,0.9297,0][0.2639,0.1859,-0.3761][-0.6104,0.00590009,0.792][0.8533,0.9297,0][0.1286,0.1923,-0.4545][-0.5526,-0.00739992,0.8334][0.9064,0.9217,0][0.1271,-0.0639,-0.4788][-0.6416,-0.0684999,0.764][0.8952,0.8281,0][0.2639,0.1859,-0.3761][-0.6104,0.00590009,0.792][0.8533,0.9297,0][0.2497,-0.0727001,-0.3766][-0.6362,-0.000199904,0.7715][0.8422,0.8365,0][0.4515,-0.0800001,-0.1914][-0.7765,0.0664001,0.6266][0.7555,0.8472,0][0.4515,-0.0800001,-0.1914][-0.7765,0.0664001,0.6266][0.7555,0.8472,0][0.4784,0.1781,-0.1878][-0.7721,0.00740012,0.6355][0.7582,0.9416,0][0.2639,0.1859,-0.3761][-0.6104,0.00590009,0.792][0.8533,0.9297,0][0.5094,0.1447,-0.0726][-0.9705,-0.00809985,0.241][0.7148,0.9317,0][0.5094,-0.1091,-0.0872][-0.948,0.0201001,0.3176][0.7173,0.8383,0][0.5347,-0.1083,0.0325][-0.9961,0.00110015,0.0887][0.6758,0.8382,0][0.5347,-0.1083,0.0325][-0.9961,0.00110015,0.0887][0.6758,0.8382,0][0.5376,0.2047,0.0444][-0.9964,0.00440015,0.0847][0.6699,0.9549,0][0.5094,0.1447,-0.0726][-0.9705,-0.00809985,0.241][0.7148,0.9317,0][0.5347,-0.1083,0.0325][-0.9961,0.00110015,0.0887][0.6758,0.8382,0][0.5265,-0.1303,0.2486][-0.9235,0.0134001,-0.3834][0.6005,0.8266,0][0.5276,0.1334,0.2538][-0.9475,0.00950014,-0.3197][0.5933,0.9271,0][0.5276,0.1334,0.2538][-0.9475,0.00950014,-0.3197][0.5933,0.9271,0][0.5376,0.2047,0.0444][-0.9964,0.00440015,0.0847][0.6699,0.9549,0][0.5347,-0.1083,0.0325][-0.9961,0.00110015,0.0887][0.6758,0.8382,0][0.5265,-0.1303,0.2486][-0.9235,0.0134001,-0.3834][0.6005,0.8266,0][0.3506,-0.1552,0.4522][-0.6,0.0153001,-0.7998][0.516,0.8107,0][0.3503,0.0756,0.4565][-0.6194,0.0129001,-0.785][0.5081,0.8994,0][0.3503,0.0756,0.4565][-0.6194,0.0129001,-0.785][0.5081,0.8994,0][0.5276,0.1334,0.2538][-0.9475,0.00950014,-0.3197][0.5933,0.9271,0][0.5265,-0.1303,0.2486][-0.9235,0.0134001,-0.3834][0.6005,0.8266,0][0.3506,-0.1552,0.4522][-0.6,0.0153001,-0.7998][0.516,0.8107,0][0.1444,-0.1662,0.5506][-0.313,0.0144,-0.9497][0.4378,0.7995,0][0.1436,0.0514,0.5539][-0.3174,0.0122,-0.9482][0.4298,0.8832,0][0.1436,0.0514,0.5539][-0.3174,0.0122,-0.9482][0.4298,0.8832,0][0.3503,0.0756,0.4565][-0.6194,0.0129001,-0.785][0.5081,0.8994,0][0.3506,-0.1552,0.4522][-0.6,0.0153001,-0.7998][0.516,0.8107,0][0.1444,-0.1662,0.5506][-0.313,0.0144,-0.9497][0.4378,0.7995,0][0,-0.1701,0.5794][0.0076,0.0147,-0.9999][0.3841,0.793,0][0,0.0454,0.5817][0.0046,0.0107,-0.9999][0.376,0.8759,0][0,0.0454,0.5817][0.0046,0.0107,-0.9999][0.376,0.8759,0][0.1436,0.0514,0.5539][-0.3174,0.0122,-0.9482][0.4298,0.8832,0][0.1444,-0.1662,0.5506][-0.313,0.0144,-0.9497][0.4378,0.7995,0][0.4515,-0.0800001,-0.1914][-0.7765,0.0664001,0.6266][0.7555,0.8472,0][0.5094,-0.1091,-0.0872][-0.948,0.0201001,0.3176][0.7173,0.8383,0][0.5094,0.1447,-0.0726][-0.9705,-0.00809985,0.241][0.7148,0.9317,0][0.5094,0.1447,-0.0726][-0.9705,-0.00809985,0.241][0.7148,0.9317,0][0.4784,0.1781,-0.1878][-0.7721,0.00740012,0.6355][0.7582,0.9416,0][0.4515,-0.0800001,-0.1914][-0.7765,0.0664001,0.6266][0.7555,0.8472,0][0.5265,-0.1303,0.2486][-0.0529002,-0.991,-0.123][0.6352,0.0789,0][0.5347,-0.1083,0.0325][-0.0733001,-0.9919,-0.1038][0.5216,0.0899,0][0.5859,-0.1106,0.0182][-0.0723002,-0.992,-0.1035][0.514,0.1173,0][0.5859,-0.1106,0.0182][-0.0723002,-0.992,-0.1035][0.514,0.1173,0][0.5747,-0.1371,0.2824][-0.0390001,-0.9919,-0.121][0.6465,0.1071,0][0.5265,-0.1303,0.2486][-0.0529002,-0.991,-0.123][0.6352,0.0789,0][0.3506,-0.1552,0.4522][0.0271998,-0.9981,-0.0558][0.7679,0.0562,0][0.5265,-0.1303,0.2486][-0.0529002,-0.991,-0.123][0.6352,0.0789,0][0.5747,-0.1371,0.2824][-0.0390001,-0.9919,-0.121][0.6465,0.1071,0][0.5747,-0.1371,0.2824][-0.0390001,-0.9919,-0.121][0.6465,0.1071,0][0.3785,-0.1592,0.5425][0.0214998,-0.9985,-0.0512][0.7821,0.0986,0][0.3506,-0.1552,0.4522][0.0271998,-0.9981,-0.0558][0.7679,0.0562,0][0.3785,-0.1592,0.5425][0.0214998,-0.9985,-0.0512][0.7821,0.0986,0][0.17,-0.168,0.6672][0.0265998,-0.9994,-0.0224][0.8908,0.0936,0][0.1444,-0.1662,0.5506][0.0330998,-0.9992,-0.0223][0.8872,0.0411,0][0.1444,-0.1662,0.5506][0.0330998,-0.9992,-0.0223][0.8872,0.0411,0][0.3506,-0.1552,0.4522][0.0271998,-0.9981,-0.0558][0.7679,0.0562,0][0.3785,-0.1592,0.5425][0.0214998,-0.9985,-0.0512][0.7821,0.0986,0][0,-0.1701,0.5794][0.00169985,-0.9999,-0.0136][0.9647,0.031,0][0.1444,-0.1662,0.5506][0.0330998,-0.9992,-0.0223][0.8872,0.0411,0][0.17,-0.168,0.6672][0.0265998,-0.9994,-0.0224][0.8908,0.0936,0][0.17,-0.168,0.6672][0.0265998,-0.9994,-0.0224][0.8908,0.0936,0][0,-0.1718,0.7229][0.00109985,-0.9999,-0.0117][0.9811,0.0896,0][0,-0.1701,0.5794][0.00169985,-0.9999,-0.0136][0.9647,0.031,0][0.4515,-0.0800001,-0.1914][-0.7327,-0.4374,0.5213][0.0909,0.5333,0][0.2497,-0.0727001,-0.3766][-0.5958,-0.4983,0.6299][0.1657,0.5355,0][0.3091,-0.2576,-0.4667][-0.6846,-0.3101,0.6597][0.1673,0.4728,0][0.3091,-0.2576,-0.4667][-0.6846,-0.3101,0.6597][0.1673,0.4728,0][0.55,-0.2522,-0.1848][-0.7739,-0.3674,0.5158][0.0696,0.478,0][0.4515,-0.0800001,-0.1914][-0.7327,-0.4374,0.5213][0.0909,0.5333,0][0.5094,-0.1091,-0.0872][-0.8738,-0.4178,0.2487][0.0566,0.5301,0][0.55,-0.2522,-0.1848][-0.7739,-0.3674,0.5158][0.0696,0.478,0][0.5347,-0.1083,0.0325][-0.9015,-0.3875,0.1928][0.0218,0.5395,0][0.4515,-0.0800001,-0.1914][-0.7327,-0.4374,0.5213][0.0909,0.5333,0][0.55,-0.2522,-0.1848][-0.7739,-0.3674,0.5158][0.0696,0.478,0][0.5094,-0.1091,-0.0872][-0.8738,-0.4178,0.2487][0.0566,0.5301,0][0.5347,-0.1083,0.0325][0.117,-0.8242,0.5541][0.4474,0.9429,0][0.55,-0.2522,-0.1848][0.117,-0.8242,0.5541][0.3089,0.8763,0][0.5859,-0.1106,0.0182][0.117,-0.8242,0.5541][0.4247,0.9651,0][0.1271,-0.0639,-0.4788][-0.2883,-0.8745,0.39][0.8952,0.8281,0][0.1212,-0.1069,-0.5776][-0.1248,-0.8237,0.5532][0.9051,0.7939,0][0.2654,-0.105,-0.4422][-0.3515,-0.8651,0.3578][0.8442,0.8113,0][0.2654,-0.105,-0.4422][-0.3515,-0.8651,0.3578][0.8442,0.8113,0][0.2497,-0.0727001,-0.3766][-0.3498,-0.871,0.3449][0.8422,0.8365,0][0.1271,-0.0639,-0.4788][-0.2883,-0.8745,0.39][0.8952,0.8281,0][0.2654,-0.105,-0.4422][-0.9605,-0.2588,-0.1025][0.8442,0.8113,0][0.3091,-0.2576,-0.4667][-0.9605,-0.2588,-0.1025][0.8057,0.7713,0][0.2497,-0.0727001,-0.3766][-0.9605,-0.2588,-0.1025][0.8422,0.8365,0][0.5356,0.1798,-0.2072][0.839,0.0746999,-0.539][0.3882,0.2601,0][0.3417,-0.0110001,-0.5209][0.6452,0.295,-0.7048][0.2391,0.1493,0][0.2611,0.1956,-0.4736][0.581,0.3094,-0.7528][0.2102,0.2538,0][0,0.6316,-0.4998][-0.000199853,0.9709,0.2397][0.8146,0.6889,0][0,0.619,-0.4488][-9.98534e-005,0.9709,0.2397][0.8142,0.6763,0][0.0281001,0.618,-0.4934][0.3824,0.897,0.2214][0.8408,0.6806,0][0.1212,-0.1069,-0.5776][-0.1248,-0.8237,0.5532][0.9051,0.7939,0][0,-0.0625,-0.527][-0.000900128,-0.8509,0.5252][0.9453,0.8237,0][0,-0.2109,-0.6622][-0.0037001,-0.6735,0.7391][0.9572,0.7586,0][0,-0.0625,-0.527][-0.000900128,-0.8509,0.5252][0.9453,0.8237,0][0.1212,-0.1069,-0.5776][-0.1248,-0.8237,0.5532][0.9051,0.7939,0][0.1271,-0.0639,-0.4788][-0.2883,-0.8745,0.39][0.8952,0.8281,0][0.1271,-0.0639,-0.4788][-0.2883,-0.8745,0.39][0.8952,0.8281,0][0,-0.062,-0.5258][-0.00120014,-0.9158,0.4017][0.9452,0.8241,0][0,-0.0625,-0.527][-0.000900128,-0.8509,0.5252][0.9453,0.8237,0][0.0649001,0.3521,-0.4593][0.00399999,-0.0382,0.9993][0.8751,0.5287,0][0.0649001,0.3521,-0.4593][0.00399999,-0.0382,0.9993][0.8751,0.5287,0][0,0.619,-0.4488][0.00399999,-0.0382,0.9993][0.8142,0.6763,0][0,0.619,-0.4488][0.00399999,-0.0382,0.9993][0.8142,0.6763,0][0,0.3521,-0.459][0.00399999,-0.0382,0.9993][0.8142,0.5287,0][0.0649001,0.3521,-0.4593][0.00399999,-0.0382,0.9993][0.8751,0.5287,0][0,0.3595,-0.5338][-0.0737,0.1462,-0.9865][0.3127,0.6512,0][-0.0843999,0.3595,-0.5338][-0.0737,0.1462,-0.9865][0.3666,0.6509,0][-0.0280999,0.618,-0.4934][-0.0737,0.1462,-0.9865][0.3313,0.7658,0][-0.0280999,0.618,-0.4934][-0.0737,0.1462,-0.9865][0.3313,0.7658,0][0,0.6316,-0.4998][-0.0737,0.1462,-0.9865][0.3132,0.7708,0][0,0.3595,-0.5338][-0.0737,0.1462,-0.9865][0.3127,0.6512,0][0.0281001,0.618,-0.4934][0.0759,0.146,-0.9864][0.2954,0.766,0][0.0844001,0.3596,-0.5335][0.0759,0.146,-0.9864][0.2587,0.6516,0][0,0.3595,-0.5338][0.0759,0.146,-0.9864][0.3127,0.6512,0][0,0.3595,-0.5338][0.0759,0.146,-0.9864][0.3127,0.6512,0][0,0.6316,-0.4998][0.0759,0.146,-0.9864][0.3132,0.7708,0][0.0281001,0.618,-0.4934][0.0759,0.146,-0.9864][0.2954,0.766,0][0,0.3595,-0.5338][0,-0.0255,-0.9997][0.3127,0.6512,0][0,0.1984,-0.5297][0,-0.0255,-0.9997][0.3127,0.5836,0][-0.0843999,0.3595,-0.5338][0,-0.0255,-0.9997][0.3666,0.6509,0][0.0844001,0.3596,-0.5335][0.0031,-0.0255,-0.9997][0.2587,0.6516,0][0,0.1984,-0.5297][0.0031,-0.0255,-0.9997][0.3127,0.5836,0][0,0.3595,-0.5338][0.0031,-0.0255,-0.9997][0.3127,0.6512,0][-0.0649,0.352,-0.4587][0.00419998,-0.1593,0.9872][0.7534,0.5287,0][0,-0.062,-0.5258][0.00419998,-0.1593,0.9872][0.8148,0.3051,0][0,0.3521,-0.459][0.00419998,-0.1593,0.9872][0.8142,0.5287,0][0,0.619,-0.4488][0.00409999,-0.0382,0.9993][0.8142,0.6763,0][-0.0649,0.352,-0.4587][0.00409999,-0.0382,0.9993][0.7534,0.5287,0][0,0.3521,-0.459][0.00409999,-0.0382,0.9993][0.8142,0.5287,0][0,-0.062,-0.5258][0.00409998,-0.1593,0.9872][0.8148,0.3051,0][0.0649001,0.3521,-0.4593][0.00409998,-0.1593,0.9872][0.8751,0.5287,0][0,0.3521,-0.459][0.00409998,-0.1593,0.9872][0.8142,0.5287,0][-0.1286,0.1918,-0.4549][0.3228,-0.0992001,0.9412][0.6937,0.439,0][-0.1271,-0.0649,-0.4814][0.3228,-0.0992001,0.9412][0.6954,0.2988,0][0,-0.062,-0.5258][0.3228,-0.0992001,0.9412][0.8148,0.3051,0][0,-0.062,-0.5258][0.3228,-0.0992001,0.9412][0.8148,0.3051,0][-0.0649,0.352,-0.4587][0.3228,-0.0992001,0.9412][0.7534,0.5287,0][-0.1286,0.1918,-0.4549][0.3228,-0.0992001,0.9412][0.6937,0.439,0][0,-0.062,-0.5258][-0.3342,-0.0939,0.9378][0.8148,0.3051,0][0.1271,-0.0639,-0.4788][-0.3342,-0.0939,0.9378][0.9335,0.2988,0][0.1286,0.1923,-0.4545][-0.3342,-0.0939,0.9378][0.9347,0.439,0][0.1286,0.1923,-0.4545][-0.3342,-0.0939,0.9378][0.9347,0.439,0][0.0649001,0.3521,-0.4593][-0.3342,-0.0939,0.9378][0.8751,0.5287,0][0,-0.062,-0.5258][-0.3342,-0.0939,0.9378][0.8148,0.3051,0][0.1286,0.1923,-0.4545][0.2479,0.1,0.9636][0.9347,0.439,0][0.0649001,0.3521,-0.4593][0.2479,0.1,0.9636][0.8751,0.5287,0][0.0649001,0.3521,-0.4593][0.2479,0.1,0.9636][0.8751,0.5287,0]