version 1.01
278
[-0.000660032,0.380799,-0.115263][0,0.998442,-0.0558029][0.464109,0.388157,0][-0.000660032,0.375159,-0.216176][1.30214e-007,0.949963,-0.312361][0.446379,0.388157,0][-0.306062,0.380799,-0.115263][-0.640203,0.767009,-0.0428682][0.464108,0.441731,0][-0.306062,0.375159,-0.216176][-0.653218,0.719284,-0.23651][0.446379,0.44173,0][-0.306062,0.380799,-0.115263][-0.640203,0.767009,-0.0428682][0.464108,0.441731,0][-0.000660032,0.375159,-0.216176][1.30214e-007,0.949963,-0.312361][0.446379,0.388157,0][-0.000660092,0.0595387,-0.00962592][-1.74194e-007,-0.450875,0.892587][0.322272,0.388157,0][-0.000660092,0.149749,0.0359421][-1.74194e-007,-0.450875,0.892587][0.304542,0.388157,0][-0.306064,0.0595387,-0.00962596][-1.74194e-007,-0.450875,0.892587][0.322272,0.441731,0][-0.306062,0.149749,0.035942][-1.74194e-007,-0.450875,0.892587][0.304542,0.44173,0][-0.306064,0.0595387,-0.00962596][-1.74194e-007,-0.450875,0.892587][0.322272,0.441731,0][-0.000660092,0.149749,0.0359421][-1.74194e-007,-0.450875,0.892587][0.304542,0.388157,0][-0.000660062,0.00418866,-0.0941959][-1.55838e-007,-0.836724,0.547626][0.340002,0.388157,0][-0.000660092,0.0595387,-0.00962592][-1.55838e-007,-0.836724,0.547626][0.322272,0.388157,0][-0.306062,0.00418866,-0.094196][-1.55838e-007,-0.836723,0.547626][0.340001,0.44173,0][-0.306064,0.0595387,-0.00962596][-1.55838e-007,-0.836724,0.547626][0.322272,0.441731,0][-0.306062,0.00418866,-0.094196][-1.55838e-007,-0.836724,0.547626][0.340001,0.44173,0][-0.000660092,0.0595387,-0.00962592][-1.55838e-007,-0.836723,0.547626][0.322272,0.388157,0][-0.000660062,-0.00145125,-0.195109][0,-0.978875,-0.204459][0.357731,0.388157,0][-0.000660062,0.00418866,-0.0941959][0,-0.998442,0.0558018][0.340002,0.388157,0][-0.306061,-0.00145125,-0.195109][-0.653236,-0.741159,-0.15481][0.357731,0.44173,0][-0.306062,0.00418866,-0.094196][-0.640174,-0.767033,0.0428612][0.340001,0.44173,0][-0.306061,-0.00145125,-0.195109][-0.653236,-0.741159,-0.15481][0.357731,0.44173,0][-0.000660062,0.00418866,-0.0941959][0,-0.998442,0.0558018][0.340002,0.388157,0][-0.000660032,0.0441087,-0.285324][0,-0.745521,-0.666482][0.375461,0.388157,0][-0.000660062,-0.00145125,-0.195109][0,-0.978875,-0.204459][0.357731,0.388157,0][-0.306061,0.0441087,-0.285324][-0.65322,-0.564486,-0.504639][0.375461,0.44173,0][-0.306061,-0.00145125,-0.195109][-0.653236,-0.741159,-0.15481][0.357731,0.44173,0][-0.306061,0.0441087,-0.285324][-0.65322,-0.564486,-0.504639][0.375461,0.44173,0][-0.000660062,-0.00145125,-0.195109][0,-0.978875,-0.204459][0.357731,0.388157,0][-0.000660032,0.128679,-0.34067][0,-0.312363,-0.949963][0.39319,0.388157,0][-0.000660032,0.0441087,-0.285324][0,-0.745521,-0.666482][0.375461,0.388157,0][-0.306062,0.128679,-0.340669][-0.653228,-0.236513,-0.719274][0.39319,0.44173,0][-0.306061,0.0441087,-0.285324][-0.65322,-0.564486,-0.504639][0.375461,0.44173,0][-0.306062,0.128679,-0.340669][-0.653228,-0.236513,-0.719274][0.39319,0.44173,0][-0.000660032,0.0441087,-0.285324][0,-0.745521,-0.666482][0.375461,0.388157,0][-0.000660002,0.229599,-0.346314][1.65682e-007,0.204486,-0.978869][0.41092,0.388157,0][-0.000660032,0.128679,-0.34067][0,-0.312363,-0.949963][0.39319,0.388157,0][-0.306062,0.229599,-0.346314][-0.653225,0.154827,-0.741165][0.41092,0.44173,0][-0.306062,0.128679,-0.340669][-0.653228,-0.236513,-0.719274][0.39319,0.44173,0][-0.306062,0.229599,-0.346314][-0.653225,0.154827,-0.741165][0.41092,0.44173,0][-0.000660032,0.128679,-0.34067][0,-0.312363,-0.949963][0.39319,0.388157,0][-0.000660002,0.319809,-0.300746][1.70835e-007,0.666504,-0.745501][0.42865,0.388157,0][-0.000660002,0.229599,-0.346314][1.65682e-007,0.204486,-0.978869][0.41092,0.388157,0][-0.306062,0.319809,-0.300746][-0.653233,0.504648,-0.564462][0.428649,0.44173,0][-0.306062,0.229599,-0.346314][-0.653225,0.154827,-0.741165][0.41092,0.44173,0][-0.306062,0.319809,-0.300746][-0.653233,0.504648,-0.564462][0.428649,0.44173,0][-0.000660002,0.229599,-0.346314][1.65682e-007,0.204486,-0.978869][0.41092,0.388157,0][-0.000660032,0.375159,-0.216176][1.30214e-007,0.949963,-0.312361][0.446379,0.388157,0][-0.000660002,0.319809,-0.300746][1.70835e-007,0.666504,-0.745501][0.42865,0.388157,0][-0.306062,0.375159,-0.216176][-0.653218,0.719284,-0.23651][0.446379,0.44173,0][-0.306062,0.319809,-0.300746][-0.653233,0.504648,-0.564462][0.428649,0.44173,0][-0.306062,0.375159,-0.216176][-0.653218,0.719284,-0.23651][0.446379,0.44173,0][-0.000660002,0.319809,-0.300746][1.70835e-007,0.666504,-0.745501][0.42865,0.388157,0][-0.256441,0.189679,-0.155186][-1,-5.16704e-006,3.28821e-006][0.38265,0.535882,0][-0.256442,0.275579,-0.137243][-0.687386,0.725156,-0.0406171][0.368547,0.546784,0][-0.256442,0.273039,-0.182598][-0.699883,0.678515,-0.223117][0.375896,0.55047,0][-0.256441,0.189679,-0.155186][-1,5.39822e-006,-1.06637e-005][0.38265,0.535882,0][-0.256442,0.131189,-0.089765][-1,5.39822e-006,-1.06637e-005][0.391569,0.522112,0][-0.256442,0.171729,-0.069285][-1,5.39822e-006,-1.06637e-005][0.38423,0.51716,0][-0.256441,0.189679,-0.155186][-1,9.94188e-006,-6.60139e-006][0.38265,0.535882,0][-0.256442,0.106309,-0.127775][-1,9.94188e-006,-6.60139e-006][0.39605,0.527617,0][-0.256442,0.131189,-0.089765][-1,9.94188e-006,-6.60139e-006][0.391569,0.522112,0][-0.256441,0.189679,-0.155186][-1,-5.16704e-006,3.28821e-006][0.38265,0.535882,0][-0.256441,0.103769,-0.173129][-0.699872,-0.699183,-0.146023][0.398041,0.53388,0][-0.256442,0.106309,-0.127775][-0.687424,-0.725121,0.0405942][0.39605,0.527617,0][-0.256441,0.189679,-0.155186][-1,-5.16704e-006,3.28821e-006][0.38265,0.535882,0][-0.256441,0.124249,-0.213676][-0.699874,-0.532484,-0.476064][0.397166,0.540176,0][-0.256441,0.103769,-0.173129][-0.699872,-0.699183,-0.146023][0.398041,0.53388,0][-0.256441,0.189679,-0.155186][-1,-5.16704e-006,3.28821e-006][0.38265,0.535882,0][-0.256442,0.162259,-0.23855][-0.699891,-0.223112,-0.678508][0.393949,0.545502,0][-0.256441,0.124249,-0.213676][-0.699874,-0.532484,-0.476064][0.397166,0.540176,0][-0.256441,0.189679,-0.155186][-1,-5.16704e-006,3.28821e-006][0.38265,0.535882,0][-0.256442,0.207619,-0.241087][-0.6999,0.146027,-0.699154][0.389113,0.549453,0][-0.256442,0.162259,-0.23855][-0.699891,-0.223112,-0.678508][0.393949,0.545502,0][-0.256441,0.189679,-0.155186][-1,-5.16704e-006,3.28821e-006][0.38265,0.535882,0][-0.256442,0.248169,-0.220607][-0.699861,0.476103,-0.532466][0.382898,0.551195,0][-0.256442,0.207619,-0.241087][-0.6999,0.146027,-0.699154][0.389113,0.549453,0][-0.256441,0.189679,-0.155186][-1,-5.16704e-006,3.28821e-006][0.38265,0.535882,0][-0.256442,0.273039,-0.182598][-0.699883,0.678515,-0.223117][0.375896,0.55047,0][-0.256442,0.248169,-0.220607][-0.699861,0.476103,-0.532466][0.382898,0.551195,0][-0.306062,0.345479,-0.206417][-0.770264,-0.605817,0.199195][0.52833,0.499633,0][-0.306062,0.350219,-0.12165][-0.75925,-0.649784,0.0363345][0.539229,0.508774,0][-0.306062,0.375159,-0.216176][-0.653218,0.719284,-0.23651][0.531425,0.495507,0][-0.306062,0.380799,-0.115263][-0.640203,0.767009,-0.0428682][0.54316,0.506148,0][-0.306062,0.375159,-0.216176][-0.653218,0.719284,-0.23651][0.531425,0.495507,0][-0.306062,0.350219,-0.12165][-0.75925,-0.649784,0.0363345][0.539229,0.508774,0][-0.306062,0.156139,0.00536203][-1,2.39212e-005,4.8293e-006][0.406459,0.50688,0][-0.306064,0.0803587,-0.032915][-1,2.39212e-005,4.8293e-006][0.418744,0.498086,0][-0.306062,0.149749,0.035942][-1,2.39212e-005,4.8293e-006][0.402453,0.503781,0][-0.306064,0.0595387,-0.00962596][-1,1.5336e-005,1.3481e-005][0.415726,0.493327,0][-0.306062,0.149749,0.035942][-1,1.5336e-005,1.3481e-005][0.402453,0.503781,0][-0.306064,0.0803587,-0.032915][-1,1.5336e-005,1.3481e-005][0.418744,0.498086,0][-0.306064,0.0803587,-0.032915][-1,-1.80651e-005,-1.63791e-005][0.418744,0.498086,0][-0.306062,0.0338687,-0.103955][-1,-1.80651e-005,-1.63791e-005][0.433547,0.490569,0][-0.306064,0.0595387,-0.00962596][-1,-1.80651e-005,-1.63791e-005][0.415726,0.493327,0][-0.306062,0.00418866,-0.094196][-1,-6.30112e-006,-1.95805e-005][0.431578,0.485333,0][-0.306064,0.0595387,-0.00962596][-1,-6.30112e-006,-1.95805e-005][0.415726,0.493327,0][-0.306062,0.0338687,-0.103955][-1,-6.30112e-006,-1.95805e-005][0.433547,0.490569,0][-0.306062,0.0338687,-0.103955][-0.759262,0.649769,-0.0363433][0.433547,0.490569,0][-0.306061,0.0291287,-0.188721][-0.770249,0.624274,0.130376][0.449483,0.485427,0][-0.306062,0.00418866,-0.094196][-0.640174,-0.767033,0.0428612][0.431578,0.485333,0][-0.306061,-0.00145125,-0.195109][-0.653236,-0.741159,-0.15481][0.448339,0.480182,0][-0.306062,0.00418866,-0.094196][-0.640174,-0.767033,0.0428612][0.431578,0.485333,0][-0.306061,0.0291287,-0.188721][-0.770249,0.624274,0.130376][0.449483,0.485427,0][-0.306061,0.0291287,-0.188721][-0.770249,0.624274,0.130376][0.449483,0.485427,0][-0.306061,0.0673987,-0.264502][-0.77027,0.475427,0.425033][0.466322,0.483777,0][-0.306061,-0.00145125,-0.195109][-0.653236,-0.741159,-0.15481][0.448339,0.480182,0][-0.306061,0.0441087,-0.285324][-0.65322,-0.564486,-0.504639][0.466022,0.477948,0][-0.306061,-0.00145125,-0.195109][-0.653236,-0.741159,-0.15481][0.448339,0.480182,0][-0.306061,0.0673987,-0.264502][-0.77027,0.475427,0.425033][0.466322,0.483777,0][-0.306061,0.0673987,-0.264502][-0.77027,0.475427,0.425033][0.466322,0.483777,0][-0.306062,0.138439,-0.310992][-0.770262,0.199198,0.605819][0.483085,0.48411,0][-0.306061,0.0441087,-0.285324][-0.65322,-0.564486,-0.504639][0.466022,0.477948,0][-0.306062,0.128679,-0.340669][-0.653228,-0.236513,-0.719274][0.483756,0.478603,0][-0.306061,0.0441087,-0.285324][-0.65322,-0.564486,-0.504639][0.466022,0.477948,0][-0.306062,0.138439,-0.310992][-0.770262,0.199198,0.605819][0.483085,0.48411,0][-0.306062,0.138439,-0.310992][-0.770262,0.199198,0.605819][0.483085,0.48411,0][-0.306062,0.223209,-0.315734][-0.770263,-0.130396,0.624253][0.499249,0.48649,0][-0.306062,0.128679,-0.340669][-0.653228,-0.236513,-0.719274][0.483756,0.478603,0][-0.306062,0.229599,-0.346314][-0.653225,0.154827,-0.741165][0.500521,0.481455,0][-0.306062,0.128679,-0.340669][-0.653228,-0.236513,-0.719274][0.483756,0.478603,0][-0.306062,0.223209,-0.315734][-0.770263,-0.130396,0.624253][0.499249,0.48649,0][-0.306062,0.223209,-0.315734][-0.770263,-0.130396,0.624253][0.499249,0.48649,0][-0.306062,0.298989,-0.277457][-0.770261,-0.425054,0.475422][0.514457,0.492251,0][-0.306062,0.229599,-0.346314][-0.653225,0.154827,-0.741165][0.500521,0.481455,0][-0.306062,0.319809,-0.300746][-0.653233,0.504648,-0.564462][0.516721,0.487158,0][-0.306062,0.229599,-0.346314][-0.653225,0.154827,-0.741165][0.500521,0.481455,0][-0.306062,0.298989,-0.277457][-0.770261,-0.425054,0.475422][0.514457,0.492251,0][-0.306062,0.298989,-0.277457][-0.770261,-0.425054,0.475422][0.514457,0.492251,0][-0.306062,0.345479,-0.206417][-0.770264,-0.605817,0.199195][0.52833,0.499633,0][-0.306062,0.319809,-0.300746][-0.653233,0.504648,-0.564462][0.516721,0.487158,0][-0.306062,0.375159,-0.216176][-0.653218,0.719284,-0.23651][0.531425,0.495507,0][-0.306062,0.319809,-0.300746][-0.653233,0.504648,-0.564462][0.516721,0.487158,0][-0.306062,0.345479,-0.206417][-0.770264,-0.605817,0.199195][0.52833,0.499633,0][-0.19478,0.345479,-0.206417][-0.653227,-0.71928,0.236497][0.519128,0.515663,0][-0.194781,0.350219,-0.12165][-0.64018,-0.767027,0.0428829][0.529779,0.52249,0][-0.306062,0.345479,-0.206417][-0.770264,-0.605817,0.199195][0.52833,0.499633,0][-0.306062,0.350219,-0.12165][-0.75925,-0.649784,0.0363345][0.539229,0.508774,0][-0.306062,0.345479,-0.206417][-0.770264,-0.605817,0.199195][0.52833,0.499633,0][-0.194781,0.350219,-0.12165][-0.64018,-0.767027,0.0428829][0.529779,0.52249,0][-0.19478,0.156139,0.00536205][1.74193e-007,0.450857,-0.892596][0.416032,0.52249,0][-0.194782,0.0803587,-0.0329149][1.74193e-007,0.450857,-0.892596][0.427941,0.515187,0][-0.306062,0.156139,0.00536203][1.74193e-007,0.450857,-0.892596][0.406459,0.50688,0][-0.306064,0.0803587,-0.032915][1.74193e-007,0.450857,-0.892596][0.418744,0.498086,0][-0.306062,0.156139,0.00536203][1.74193e-007,0.450857,-0.892596][0.406459,0.50688,0][-0.194782,0.0803587,-0.0329149][1.74193e-007,0.450857,-0.892596][0.427941,0.515187,0][-0.194782,0.0803587,-0.0329149][1.55834e-007,0.836749,-0.547586][0.427941,0.515187,0][-0.19478,0.0338687,-0.103955][1.55834e-007,0.836749,-0.547586][0.440475,0.509529,0][-0.306064,0.0803587,-0.032915][1.55834e-007,0.836749,-0.547586][0.418744,0.498086,0][-0.306062,0.0338687,-0.103955][1.55834e-007,0.836749,-0.547586][0.433547,0.490569,0][-0.306064,0.0803587,-0.032915][1.55834e-007,0.836749,-0.547586][0.418744,0.498086,0][-0.19478,0.0338687,-0.103955][1.55834e-007,0.836749,-0.547586][0.440475,0.509529,0][-0.19478,0.0338687,-0.103955][-0.640181,0.767026,-0.0428955][0.440475,0.509529,0][-0.194779,0.0291287,-0.188721][-0.653241,0.741158,0.154789][0.453848,0.505768,0][-0.306062,0.0338687,-0.103955][-0.759262,0.649769,-0.0363433][0.433547,0.490569,0][-0.306061,0.0291287,-0.188721][-0.770249,0.624274,0.130376][0.449483,0.485427,0][-0.306062,0.0338687,-0.103955][-0.759262,0.649769,-0.0363433][0.433547,0.490569,0][-0.194779,0.0291287,-0.188721][-0.653241,0.741158,0.154789][0.453848,0.505768,0][-0.194779,0.0291287,-0.188721][-0.653241,0.741158,0.154789][0.453848,0.505768,0][-0.194779,0.0673987,-0.264502][-0.653227,0.564475,0.504641][0.467635,0.503635,0][-0.306061,0.0291287,-0.188721][-0.770249,0.624274,0.130376][0.449483,0.485427,0][-0.306061,0.0673987,-0.264502][-0.77027,0.475427,0.425033][0.466322,0.483777,0][-0.306061,0.0291287,-0.188721][-0.770249,0.624274,0.130376][0.449483,0.485427,0][-0.194779,0.0673987,-0.264502][-0.653227,0.564475,0.504641][0.467635,0.503635,0][-0.194779,0.0673987,-0.264502][-0.653227,0.564475,0.504641][0.467635,0.503635,0][-0.194781,0.138439,-0.310992][-0.653222,0.236508,0.719281][0.481236,0.503475,0][-0.306061,0.0673987,-0.264502][-0.77027,0.475427,0.425033][0.466322,0.483777,0][-0.306062,0.138439,-0.310992][-0.770262,0.199198,0.605819][0.483085,0.48411,0][-0.306061,0.0673987,-0.264502][-0.77027,0.475427,0.425033][0.466322,0.483777,0][-0.194781,0.138439,-0.310992][-0.653222,0.236508,0.719281][0.481236,0.503475,0][-0.194781,0.138439,-0.310992][-0.653222,0.236508,0.719281][0.481236,0.503475,0][-0.19478,0.223209,-0.315734][-0.653228,-0.154813,0.741166][0.494356,0.505934,0][-0.306062,0.138439,-0.310992][-0.770262,0.199198,0.605819][0.483085,0.48411,0][-0.306062,0.223209,-0.315734][-0.770263,-0.130396,0.624253][0.499249,0.48649,0][-0.306062,0.138439,-0.310992][-0.770262,0.199198,0.605819][0.483085,0.48411,0][-0.19478,0.223209,-0.315734][-0.653228,-0.154813,0.741166][0.494356,0.505934,0][-0.19478,0.223209,-0.315734][-0.653228,-0.154813,0.741166][0.494356,0.505934,0][-0.19478,0.298989,-0.277457][-0.653227,-0.504659,0.564459][0.507191,0.509997,0][-0.306062,0.223209,-0.315734][-0.770263,-0.130396,0.624253][0.499249,0.48649,0][-0.306062,0.298989,-0.277457][-0.770261,-0.425054,0.475422][0.514457,0.492251,0][-0.306062,0.223209,-0.315734][-0.770263,-0.130396,0.624253][0.499249,0.48649,0][-0.19478,0.298989,-0.277457][-0.653227,-0.504659,0.564459][0.507191,0.509997,0][-0.19478,0.298989,-0.277457][-0.653227,-0.504659,0.564459][0.507191,0.509997,0][-0.19478,0.345479,-0.206417][-0.653227,-0.71928,0.236497][0.519128,0.515663,0][-0.306062,0.298989,-0.277457][-0.770261,-0.425054,0.475422][0.514457,0.492251,0][-0.306062,0.345479,-0.206417][-0.770264,-0.605817,0.199195][0.52833,0.499633,0][-0.306062,0.298989,-0.277457][-0.770261,-0.425054,0.475422][0.514457,0.492251,0][-0.19478,0.345479,-0.206417][-0.653227,-0.71928,0.236497][0.519128,0.515663,0][-0.19478,0.280559,-0.185071][-0.808025,0.559658,-0.184061][0.291392,0.466844,0][-0.194781,0.283329,-0.135624][-0.798167,0.601493,-0.0337091][0.295736,0.45932,0][-0.19478,0.345479,-0.206417][-0.653227,-0.71928,0.236497][0.279813,0.463741,0][-0.194781,0.350219,-0.12165][-0.64018,-0.767027,0.0428829][0.287259,0.450843,0][-0.19478,0.345479,-0.206417][-0.653227,-0.71928,0.236497][0.279813,0.463741,0][-0.194781,0.283329,-0.135624][-0.798167,0.601493,-0.0337091][0.295736,0.45932,0][-0.19478,0.170109,-0.061533][-1,2.08246e-005,4.17964e-006][0.31947,0.45932,0][-0.194781,0.125909,-0.083862][-1,2.08246e-005,4.17964e-006][0.323814,0.466844,0][-0.19478,0.156139,0.00536205][-1,2.08246e-005,4.17964e-006][0.327947,0.450843,0][-0.194782,0.0803587,-0.0329149][-1,2.49565e-005,2.7797e-006][0.335393,0.463741,0][-0.19478,0.156139,0.00536205][-1,2.49565e-005,2.7797e-006][0.327947,0.450843,0][-0.194781,0.125909,-0.083862][-1,2.49565e-005,2.7797e-006][0.323814,0.466844,0][-0.194781,0.125909,-0.083862][-1,-3.23729e-006,-2.24274e-005][0.323814,0.466844,0][-0.19478,0.0987887,-0.125301][-1,-3.23729e-006,-2.24274e-005][0.323814,0.475531,0][-0.194782,0.0803587,-0.0329149][-1,-3.23729e-006,-2.24274e-005][0.335393,0.463741,0][-0.19478,0.0338687,-0.103955][-1,-7.51794e-006,-2.32814e-005][0.335393,0.478634,0][-0.194782,0.0803587,-0.0329149][-1,-7.51794e-006,-2.32814e-005][0.335393,0.463741,0][-0.19478,0.0987887,-0.125301][-1,-7.51795e-006,-2.32814e-005][0.323814,0.475531,0][-0.19478,0.0987887,-0.125301][-0.798138,-0.601532,0.0336934][0.323814,0.475531,0][-0.19478,0.0960187,-0.174748][-0.808043,-0.576681,-0.120441][0.31947,0.483054,0][-0.19478,0.0338687,-0.103955][-0.640181,0.767026,-0.0428955][0.335393,0.478634,0][-0.194779,0.0291287,-0.188721][-0.653241,0.741158,0.154789][0.327947,0.491531,0][-0.19478,0.0338687,-0.103955][-0.640181,0.767026,-0.0428955][0.335393,0.478634,0][-0.19478,0.0960187,-0.174748][-0.808043,-0.576681,-0.120441][0.31947,0.483054,0][-0.19478,0.0960187,-0.174748][-0.808043,-0.576681,-0.120441][0.31947,0.483054,0][-0.19478,0.118349,-0.218954][-0.808026,-0.439203,-0.392676][0.311947,0.487398,0][-0.194779,0.0291287,-0.188721][-0.653241,0.741158,0.154789][0.327947,0.491531,0][-0.194779,0.0673987,-0.264502][-0.653227,0.564475,0.504641][0.31505,0.498978,0][-0.194779,0.0291287,-0.188721][-0.653241,0.741158,0.154789][0.327947,0.491531,0][-0.19478,0.118349,-0.218954][-0.808026,-0.439203,-0.392676][0.311947,0.487398,0][-0.19478,0.118349,-0.218954][-0.808026,-0.439203,-0.392676][0.311947,0.487398,0][-0.194781,0.159789,-0.246073][-0.808036,-0.184016,-0.559657][0.303259,0.487398,0][-0.194779,0.0673987,-0.264502][-0.653227,0.564475,0.504641][0.31505,0.498978,0][-0.194781,0.138439,-0.310992][-0.653222,0.236508,0.719281][0.300157,0.498978,0][-0.194779,0.0673987,-0.264502][-0.653227,0.564475,0.504641][0.31505,0.498978,0][-0.194781,0.159789,-0.246073][-0.808036,-0.184016,-0.559657][0.303259,0.487398,0][-0.194781,0.159789,-0.246073][-0.808036,-0.184016,-0.559657][0.303259,0.487398,0][-0.19478,0.209239,-0.248839][-0.808045,0.120469,-0.576671][0.295736,0.483054,0][-0.194781,0.138439,-0.310992][-0.653222,0.236508,0.719281][0.300157,0.498978,0][-0.19478,0.223209,-0.315734][-0.653228,-0.154813,0.741166][0.287259,0.491531,0][-0.194781,0.138439,-0.310992][-0.653222,0.236508,0.719281][0.300157,0.498978,0][-0.19478,0.209239,-0.248839][-0.808045,0.120469,-0.576671][0.295736,0.483054,0][-0.19478,0.209239,-0.248839][-0.808045,0.120469,-0.576671][0.295736,0.483054,0][-0.19478,0.253439,-0.226511][-0.808019,0.392687,-0.439206][0.291392,0.475531,0][-0.19478,0.223209,-0.315734][-0.653228,-0.154813,0.741166][0.287259,0.491531,0][-0.19478,0.298989,-0.277457][-0.653227,-0.504659,0.564459][0.279813,0.478634,0][-0.19478,0.223209,-0.315734][-0.653228,-0.154813,0.741166][0.287259,0.491531,0][-0.19478,0.253439,-0.226511][-0.808019,0.392687,-0.439206][0.291392,0.475531,0][-0.19478,0.253439,-0.226511][-0.808019,0.392687,-0.439206][0.291392,0.475531,0][-0.19478,0.280559,-0.185071][-0.808025,0.559658,-0.184061][0.291392,0.466844,0][-0.19478,0.298989,-0.277457][-0.653227,-0.504659,0.564459][0.279813,0.478634,0][-0.19478,0.345479,-0.206417][-0.653227,-0.71928,0.236497][0.279813,0.463741,0][-0.19478,0.298989,-0.277457][-0.653227,-0.504659,0.564459][0.279813,0.478634,0][-0.19478,0.280559,-0.185071][-0.808025,0.559658,-0.184061][0.291392,0.466844,0][-0.256442,0.273039,-0.182598][-0.699883,0.678515,-0.223117][0.375896,0.55047,0][-0.256442,0.275579,-0.137243][-0.687386,0.725156,-0.0406171][0.368547,0.546784,0][-0.19478,0.280559,-0.185071][-0.808025,0.559658,-0.184061][0.374026,0.561298,0][-0.194781,0.283329,-0.135624][-0.798167,0.601493,-0.0337091][0.364195,0.558562,0][-0.19478,0.280559,-0.185071][-0.808025,0.559658,-0.184061][0.374026,0.561298,0][-0.256442,0.275579,-0.137243][-0.687386,0.725156,-0.0406171][0.368547,0.546784,0][-0.256442,0.171729,-0.069285][-0.123115,-0.447478,0.88578][0.38423,0.51716,0][-0.256442,0.131189,-0.089765][-0.123115,-0.447478,0.88578][0.391569,0.522112,0][-0.19478,0.170109,-0.061533][-0.123115,-0.447478,0.88578][0.392755,0.507123,0][-0.194781,0.125909,-0.083862][-0.123116,-0.447477,0.88578][0.400522,0.514175,0][-0.19478,0.170109,-0.061533][-0.123116,-0.447477,0.88578][0.392755,0.507123,0][-0.256442,0.131189,-0.089765][-0.123116,-0.447477,0.88578][0.391569,0.522112,0][-0.256442,0.131189,-0.089765][-0.123132,-0.830327,0.543504][0.391569,0.522112,0][-0.256442,0.106309,-0.127775][-0.123132,-0.830327,0.543504][0.39605,0.527617,0][-0.194781,0.125909,-0.083862][-0.123132,-0.830327,0.543504][0.400522,0.514175,0][-0.19478,0.0987887,-0.125301][-0.123072,-0.830376,0.543442][0.406249,0.523284,0][-0.194781,0.125909,-0.083862][-0.123072,-0.830376,0.543442][0.400522,0.514175,0][-0.256442,0.106309,-0.127775][-0.123072,-0.830376,0.543442][0.39605,0.527617,0][-0.256442,0.106309,-0.127775][-0.687424,-0.725121,0.0405942][0.39605,0.527617,0][-0.256441,0.103769,-0.173129][-0.699872,-0.699183,-0.146023][0.398041,0.53388,0][-0.19478,0.0987887,-0.125301][-0.798138,-0.601532,0.0336934][0.406249,0.523284,0][-0.19478,0.0960187,-0.174748][-0.808043,-0.576681,-0.120441][0.408424,0.533322,0][-0.19478,0.0987887,-0.125301][-0.798138,-0.601532,0.0336934][0.406249,0.523284,0][-0.256441,0.103769,-0.173129][-0.699872,-0.699183,-0.146023][0.398041,0.53388,0][-0.256441,0.103769,-0.173129][-0.699872,-0.699183,-0.146023][0.398041,0.53388,0][-0.256441,0.124249,-0.213676][-0.699874,-0.532484,-0.476064][0.397166,0.540176,0][-0.19478,0.0960187,-0.174748][-0.808043,-0.576681,-0.120441][0.408424,0.533322,0][-0.19478,0.118349,-0.218954][-0.808026,-0.439203,-0.392676][0.407413,0.543424,0][-0.19478,0.0960187,-0.174748][-0.808043,-0.576681,-0.120441][0.408424,0.533322,0][-0.256441,0.124249,-0.213676][-0.699874,-0.532484,-0.476064][0.397166,0.540176,0][-0.256441,0.124249,-0.213676][-0.699874,-0.532484,-0.476064][0.397166,0.540176,0][-0.256442,0.162259,-0.23855][-0.699891,-0.223112,-0.678508][0.393949,0.545502,0][-0.19478,0.118349,-0.218954][-0.808026,-0.439203,-0.392676][0.407413,0.543424,0][-0.194781,0.159789,-0.246073][-0.808036,-0.184016,-0.559657][0.402477,0.552908,0][-0.19478,0.118349,-0.218954][-0.808026,-0.439203,-0.392676][0.407413,0.543424,0][-0.256442,0.162259,-0.23855][-0.699891,-0.223112,-0.678508][0.393949,0.545502,0][-0.256442,0.162259,-0.23855][-0.699891,-0.223112,-0.678508][0.393949,0.545502,0][-0.256442,0.207619,-0.241087][-0.6999,0.146027,-0.699154][0.389113,0.549453,0][-0.194781,0.159789,-0.246073][-0.808036,-0.184016,-0.559657][0.402477,0.552908,0][-0.19478,0.209239,-0.248839][-0.808045,0.120469,-0.576671][0.393775,0.55924,0][-0.194781,0.159789,-0.246073][-0.808036,-0.184016,-0.559657][0.402477,0.552908,0][-0.256442,0.207619,-0.241087][-0.6999,0.146027,-0.699154][0.389113,0.549453,0][-0.256442,0.207619,-0.241087][-0.6999,0.146027,-0.699154][0.389113,0.549453,0][-0.256442,0.248169,-0.220607][-0.699861,0.476103,-0.532466][0.382898,0.551195,0][-0.19478,0.209239,-0.248839][-0.808045,0.120469,-0.576671][0.393775,0.55924,0][-0.19478,0.253439,-0.226511][-0.808019,0.392687,-0.439206][0.383857,0.561824,0][-0.19478,0.209239,-0.248839][-0.808045,0.120469,-0.576671][0.393775,0.55924,0][-0.256442,0.248169,-0.220607][-0.699861,0.476103,-0.532466][0.382898,0.551195,0][-0.256442,0.248169,-0.220607][-0.699861,0.476103,-0.532466][0.382898,0.551195,0][-0.256442,0.273039,-0.182598][-0.699883,0.678515,-0.223117][0.375896,0.55047,0][-0.19478,0.253439,-0.226511][-0.808019,0.392687,-0.439206][0.383857,0.561824,0][-0.19478,0.280559,-0.185071][-0.808025,0.559658,-0.184061][0.374026,0.561298,0][-0.19478,0.253439,-0.226511][-0.808019,0.392687,-0.439206][0.383857,0.561824,0][-0.256442,0.273039,-0.182598][-0.699883,0.678515,-0.223117][0.375896,0.55047,0][-0.000660032,0.380799,-0.115263][0,0.998442,-0.0558029][0.464109,0.388157,0][0.304742,0.380799,-0.115263][0.640203,0.767009,-0.042868][0.464109,0.334584,0][-0.000660032,0.375159,-0.216176][1.30214e-007,0.949963,-0.312361][0.446379,0.388157,0][0.304742,0.375159,-0.216176][0.653218,0.719283,-0.23651][0.446379,0.334584,0][-0.000660032,0.375159,-0.216176][1.30214e-007,0.949963,-0.312361][0.446379,0.388157,0][0.304742,0.380799,-0.115263][0.640203,0.767009,-0.042868][0.464109,0.334584,0][-0.000660092,0.0595387,-0.00962592][-1.74194e-007,-0.450875,0.892587][0.322272,0.388157,0][0.304744,0.0595386,-0.00962587][-1.74194e-007,-0.450875,0.892587][0.322272,0.334584,0][-0.000660092,0.149749,0.0359421][-1.74194e-007,-0.450875,0.892587][0.304542,0.388157,0][0.304742,0.149749,0.0359421][-1.74194e-007,-0.450875,0.892587][0.304543,0.334584,0][-0.000660092,0.149749,0.0359421][-1.74194e-007,-0.450875,0.892587][0.304542,0.388157,0][0.304744,0.0595386,-0.00962587][-1.74194e-007,-0.450875,0.892587][0.322272,0.334584,0][-0.000660062,0.00418866,-0.0941959][-1.55838e-007,-0.836724,0.547626][0.340002,0.388157,0][0.304742,0.00418854,-0.0941959][-1.55838e-007,-0.836723,0.547626][0.340002,0.334584,0][-0.000660092,0.0595387,-0.00962592][-1.55838e-007,-0.836724,0.547626][0.322272,0.388157,0][0.304744,0.0595386,-0.00962587][-1.55838e-007,-0.836724,0.547626][0.322272,0.334584,0][-0.000660092,0.0595387,-0.00962592][-1.55838e-007,-0.836723,0.547626][0.322272,0.388157,0][0.304742,0.00418854,-0.0941959][-1.55838e-007,-0.836724,0.547626][0.340002,0.334584,0][-0.000660062,-0.00145125,-0.195109][0,-0.978875,-0.204459][0.357731,0.388157,0][0.304741,-0.00145137,-0.195109][0.653236,-0.741159,-0.154809][0.357731,0.334584,0][-0.000660062,0.00418866,-0.0941959][0,-0.998442,0.0558018][0.340002,0.388157,0][0.304742,0.00418854,-0.0941959][0.640174,-0.767033,0.0428618][0.340002,0.334584,0][-0.000660062,0.00418866,-0.0941959][0,-0.998442,0.0558018][0.340002,0.388157,0][0.304741,-0.00145137,-0.195109][0.653236,-0.741159,-0.154809][0.357731,0.334584,0][-0.000660032,0.0441087,-0.285324][0,-0.745521,-0.666482][0.375461,0.388157,0][0.304741,0.0441086,-0.285324][0.65322,-0.564485,-0.504639][0.375461,0.334584,0][-0.000660062,-0.00145125,-0.195109][0,-0.978875,-0.204459][0.357731,0.388157,0][0.304741,-0.00145137,-0.195109][0.653236,-0.741159,-0.154809][0.357731,0.334584,0][-0.000660062,-0.00145125,-0.195109][0,-0.978875,-0.204459][0.357731,0.388157,0][0.304741,0.0441086,-0.285324][0.65322,-0.564485,-0.504639][0.375461,0.334584,0][-0.000660032,0.128679,-0.34067][0,-0.312363,-0.949963][0.39319,0.388157,0][0.304742,0.128679,-0.340669][0.653228,-0.236513,-0.719274][0.393191,0.334584,0][-0.000660032,0.0441087,-0.285324][0,-0.745521,-0.666482][0.375461,0.388157,0][0.304741,0.0441086,-0.285324][0.65322,-0.564485,-0.504639][0.375461,0.334584,0][-0.000660032,0.0441087,-0.285324][0,-0.745521,-0.666482][0.375461,0.388157,0][0.304742,0.128679,-0.340669][0.653228,-0.236513,-0.719274][0.393191,0.334584,0][-0.000660002,0.229599,-0.346314][1.65682e-007,0.204486,-0.978869][0.41092,0.388157,0][0.304742,0.229599,-0.346314][0.653225,0.154827,-0.741165][0.41092,0.334584,0][-0.000660032,0.128679,-0.34067][0,-0.312363,-0.949963][0.39319,0.388157,0][0.304742,0.128679,-0.340669][0.653228,-0.236513,-0.719274][0.393191,0.334584,0][-0.000660032,0.128679,-0.34067][0,-0.312363,-0.949963][0.39319,0.388157,0][0.304742,0.229599,-0.346314][0.653225,0.154827,-0.741165][0.41092,0.334584,0][-0.000660002,0.319809,-0.300746][1.70835e-007,0.666504,-0.745501][0.42865,0.388157,0][0.304742,0.319809,-0.300746][0.653233,0.504648,-0.564461][0.42865,0.334584,0][-0.000660002,0.229599,-0.346314][1.65682e-007,0.204486,-0.978869][0.41092,0.388157,0][0.304742,0.229599,-0.346314][0.653225,0.154827,-0.741165][0.41092,0.334584,0][-0.000660002,0.229599,-0.346314][1.65682e-007,0.204486,-0.978869][0.41092,0.388157,0][0.304742,0.319809,-0.300746][0.653233,0.504648,-0.564461][0.42865,0.334584,0][-0.000660032,0.375159,-0.216176][1.30214e-007,0.949963,-0.312361][0.446379,0.388157,0][0.304742,0.375159,-0.216176][0.653218,0.719283,-0.23651][0.446379,0.334584,0][-0.000660002,0.319809,-0.300746][1.70835e-007,0.666504,-0.745501][0.42865,0.388157,0][0.304742,0.319809,-0.300746][0.653233,0.504648,-0.564461][0.42865,0.334584,0][-0.000660002,0.319809,-0.300746][1.70835e-007,0.666504,-0.745501][0.42865,0.388157,0][0.304742,0.375159,-0.216176][0.653218,0.719283,-0.23651][0.446379,0.334584,0][0.255121,0.273039,-0.182598][0.69988,0.678518,-0.223117][0.285953,0.55647,0][0.255121,0.275579,-0.137243][0.687383,0.725159,-0.0406163][0.285408,0.564851,0][0.255121,0.189679,-0.155186][1,0,1.50996e-007][0.302068,0.557617,0][0.255121,0.171729,-0.0692849][1,2.25206e-005,4.87518e-006][0.319337,0.564851,0][0.255122,0.131189,-0.0897649][1,2.25206e-005,4.87518e-006][0.318455,0.556151,0][0.255121,0.189679,-0.155186][1,2.25206e-005,4.87518e-006][0.302068,0.557617,0][0.255122,0.131189,-0.0897649][1,-7.30006e-006,-2.17861e-005][0.318455,0.556151,0][0.255121,0.106309,-0.127775][1,-7.30006e-006,-2.17861e-005][0.31582,0.549623,0][0.255121,0.189679,-0.155186][1,-7.30006e-006,-2.17861e-005][0.302068,0.557617,0][0.255121,0.106309,-0.127775][0.687419,-0.725125,0.0406098][0.31582,0.549623,0][0.255121,0.103769,-0.173129][0.699875,-0.699182,-0.146016][0.311066,0.545075,0][0.255121,0.189679,-0.155186][1,0,1.50996e-007][0.302068,0.557617,0][0.255121,0.103769,-0.173129][0.699875,-0.699182,-0.146016][0.311066,0.545075,0][0.255121,0.124249,-0.213676][0.699877,-0.532478,-0.476067][0.305179,0.542744,0][0.255121,0.189679,-0.155186][1,0,1.50996e-007][0.302068,0.557617,0][0.255121,0.124249,-0.213676][0.699877,-0.532478,-0.476067][0.305179,0.542744,0][0.255121,0.162259,-0.23855][0.699886,-0.223107,-0.678515][0.298936,0.542984,0][0.255121,0.189679,-0.155186][1,0,1.50996e-007][0.302068,0.557617,0][0.255121,0.162259,-0.23855][0.699886,-0.223107,-0.678515][0.298936,0.542984,0][0.255121,0.207619,-0.241087][0.699897,0.146027,-0.699156][0.293104,0.545348,0][0.255121,0.189679,-0.155186][1,0,1.50996e-007][0.302068,0.557617,0][0.255121,0.207619,-0.241087][0.699897,0.146027,-0.699156][0.293104,0.545348,0][0.255121,0.248169,-0.220607][0.699859,0.476105,-0.532467][0.288597,0.550009,0][0.255121,0.189679,-0.155186][1,0,1.50996e-007][0.302068,0.557617,0][0.255121,0.248169,-0.220607][0.699859,0.476105,-0.532467][0.288597,0.550009,0][0.255121,0.273039,-0.182598][0.69988,0.678518,-0.223117][0.285953,0.55647,0][0.255121,0.189679,-0.155186][1,0,1.50996e-007][0.302068,0.557617,0][0.304742,0.345479,-0.206417][0.770264,-0.605817,0.199195][0.245764,0.525999,0][0.304742,0.375159,-0.216176][0.653218,0.719283,-0.23651][0.242729,0.522133,0][0.304742,0.350219,-0.12165][0.75925,-0.649784,0.0363347][0.235505,0.534937,0][0.304742,0.380799,-0.115263][0.640203,0.767009,-0.042868][0.231756,0.53255,0][0.304742,0.350219,-0.12165][0.75925,-0.649784,0.0363347][0.235505,0.534937,0][0.304742,0.375159,-0.216176][0.653218,0.719283,-0.23651][0.242729,0.522133,0][0.304742,0.156139,0.00536213][1,2.41021e-005,5.20563e-006][0.368133,0.531714,0][0.304742,0.149749,0.0359421][1,2.41021e-005,5.20563e-006][0.372205,0.528468,0][0.304744,0.0803586,-0.0329149][1,2.41021e-005,5.20563e-006][0.355376,0.522858,0][0.304744,0.0595386,-0.00962587][1,1.53887e-005,1.39865e-005][0.358398,0.517918,0][0.304744,0.0803586,-0.0329149][1,1.53887e-005,1.39865e-005][0.355376,0.522858,0][0.304742,0.149749,0.0359421][1,1.53887e-005,1.39865e-005][0.372205,0.528468,0][0.304744,0.0803586,-0.0329149][1,-1.85109e-005,-1.63193e-005][0.355376,0.522858,0][0.304744,0.0595386,-0.00962587][1,-1.85109e-005,-1.63193e-005][0.358398,0.517918,0][0.304742,0.0338686,-0.103955][1,-1.85109e-005,-1.63193e-005][0.340044,0.51538,0][0.304742,0.00418854,-0.0941959][1,-6.57132e-006,-1.95685e-005][0.341941,0.510007,0][0.304742,0.0338686,-0.103955][1,-6.57132e-006,-1.95685e-005][0.340044,0.51538,0][0.304744,0.0595386,-0.00962587][1,-6.57131e-006,-1.95685e-005][0.358398,0.517918,0][0.304742,0.0338686,-0.103955][0.759262,0.649769,-0.0363427][0.340044,0.51538,0][0.304742,0.00418854,-0.0941959][0.640174,-0.767033,0.0428618][0.341941,0.510007,0][0.304741,0.0291286,-0.188721][0.770249,0.624274,0.130377][0.323652,0.510442,0][0.304741,-0.00145137,-0.195109][0.653236,-0.741159,-0.154809][0.324697,0.505105,0][0.304741,0.0291286,-0.188721][0.770249,0.624274,0.130377][0.323652,0.510442,0][0.304742,0.00418854,-0.0941959][0.640174,-0.767033,0.0428618][0.341941,0.510007,0][0.304741,0.0291286,-0.188721][0.770249,0.624274,0.130377][0.323652,0.510442,0][0.304741,-0.00145137,-0.195109][0.653236,-0.741159,-0.154809][0.324697,0.505105,0][0.304741,0.0673985,-0.264502][0.77027,0.475427,0.425033][0.306492,0.509096,0][0.304741,0.0441086,-0.285324][0.65322,-0.564485,-0.504639][0.306676,0.503178,0][0.304741,0.0673985,-0.264502][0.77027,0.475427,0.425033][0.306492,0.509096,0][0.304741,-0.00145137,-0.195109][0.653236,-0.741159,-0.154809][0.324697,0.505105,0][0.304741,0.0673985,-0.264502][0.77027,0.475427,0.425033][0.306492,0.509096,0][0.304741,0.0441086,-0.285324][0.65322,-0.564485,-0.504639][0.306676,0.503178,0][0.304742,0.138439,-0.310992][0.770262,0.199198,0.605819][0.289537,0.509722,0][0.304742,0.128679,-0.340669][0.653228,-0.236513,-0.719274][0.288704,0.50428,0][0.304742,0.138439,-0.310992][0.770262,0.199198,0.605819][0.289537,0.509722,0][0.304741,0.0441086,-0.285324][0.65322,-0.564485,-0.504639][0.306676,0.503178,0][0.304742,0.138439,-0.310992][0.770262,0.199198,0.605819][0.289537,0.509722,0][0.304742,0.128679,-0.340669][0.653228,-0.236513,-0.719274][0.288704,0.50428,0][0.304742,0.223209,-0.315734][0.770263,-0.130396,0.624254][0.27363,0.51277,0][0.304742,0.229599,-0.346314][0.653225,0.154827,-0.741165][0.27223,0.507903,0][0.304742,0.223209,-0.315734][0.770263,-0.130396,0.624254][0.27363,0.51277,0][0.304742,0.128679,-0.340669][0.653228,-0.236513,-0.719274][0.288704,0.50428,0][0.304742,0.223209,-0.315734][0.770263,-0.130396,0.624254][0.27363,0.51277,0][0.304742,0.229599,-0.346314][0.653225,0.154827,-0.741165][0.27223,0.507903,0][0.304742,0.298989,-0.277457][0.770261,-0.425054,0.475422][0.258991,0.518649,0][0.304742,0.319809,-0.300746][0.653233,0.504648,-0.564461][0.256702,0.513782,0][0.304742,0.298989,-0.277457][0.770261,-0.425054,0.475422][0.258991,0.518649,0][0.304742,0.229599,-0.346314][0.653225,0.154827,-0.741165][0.27223,0.507903,0][0.304742,0.298989,-0.277457][0.770261,-0.425054,0.475422][0.258991,0.518649,0][0.304742,0.319809,-0.300746][0.653233,0.504648,-0.564461][0.256702,0.513782,0][0.304742,0.345479,-0.206417][0.770264,-0.605817,0.199195][0.245764,0.525999,0][0.304742,0.375159,-0.216176][0.653218,0.719283,-0.23651][0.242729,0.522133,0][0.304742,0.345479,-0.206417][0.770264,-0.605817,0.199195][0.245764,0.525999,0][0.304742,0.319809,-0.300746][0.653233,0.504648,-0.564461][0.256702,0.513782,0][0.19346,0.345479,-0.206417][0.653225,-0.71928,0.236502][0.254865,0.541193,0][0.304742,0.345479,-0.206417][0.770264,-0.605817,0.199195][0.245764,0.525999,0][0.19346,0.350219,-0.12165][0.640182,-0.767025,0.0428906][0.244789,0.547908,0][0.304742,0.350219,-0.12165][0.75925,-0.649784,0.0363347][0.235505,0.534937,0][0.19346,0.350219,-0.12165][0.640182,-0.767025,0.0428906][0.244789,0.547908,0][0.304742,0.345479,-0.206417][0.770264,-0.605817,0.199195][0.245764,0.525999,0][0.19346,0.156139,0.00536211][1.74193e-007,0.450857,-0.892596][0.358508,0.547908,0][0.304742,0.156139,0.00536213][1.74193e-007,0.450857,-0.892596][0.368133,0.531714,0][0.193462,0.0803586,-0.0329149][1.74193e-007,0.450857,-0.892596][0.346153,0.540564,0][0.304744,0.0803586,-0.0329149][1.74193e-007,0.450857,-0.892596][0.355376,0.522858,0][0.193462,0.0803586,-0.0329149][1.74193e-007,0.450857,-0.892596][0.346153,0.540564,0][0.304742,0.156139,0.00536213][1.74193e-007,0.450857,-0.892596][0.368133,0.531714,0][0.193462,0.0803586,-0.0329149][1.55834e-007,0.836749,-0.547586][0.346153,0.540564,0][0.304744,0.0803586,-0.0329149][1.55834e-007,0.836749,-0.547586][0.355376,0.522858,0][0.19346,0.0338686,-0.103955][1.55834e-007,0.836749,-0.547586][0.333255,0.534946,0][0.304742,0.0338686,-0.103955][1.55834e-007,0.836749,-0.547586][0.340044,0.51538,0][0.19346,0.0338686,-0.103955][1.55834e-007,0.836749,-0.547586][0.333255,0.534946,0][0.304744,0.0803586,-0.0329149][1.55834e-007,0.836749,-0.547586][0.355376,0.522858,0][0.19346,0.0338686,-0.103955][0.640181,0.767025,-0.0428955][0.333255,0.534946,0][0.304742,0.0338686,-0.103955][0.759262,0.649769,-0.0363427][0.340044,0.51538,0][0.193459,0.0291286,-0.188721][0.653242,0.741158,0.154789][0.319577,0.531318,0][0.304741,0.0291286,-0.188721][0.770249,0.624274,0.130377][0.323652,0.510442,0][0.193459,0.0291286,-0.188721][0.653242,0.741158,0.154789][0.319577,0.531318,0][0.304742,0.0338686,-0.103955][0.759262,0.649769,-0.0363427][0.340044,0.51538,0][0.193459,0.0291286,-0.188721][0.653242,0.741158,0.154789][0.319577,0.531318,0][0.304741,0.0291286,-0.188721][0.770249,0.624274,0.130377][0.323652,0.510442,0][0.193459,0.0673985,-0.264502][0.653225,0.564479,0.504639][0.305477,0.529385,0][0.304741,0.0673985,-0.264502][0.77027,0.475427,0.425033][0.306492,0.509096,0][0.193459,0.0673985,-0.264502][0.653225,0.564479,0.504639][0.305477,0.529385,0][0.304741,0.0291286,-0.188721][0.770249,0.624274,0.130377][0.323652,0.510442,0][0.193459,0.0673985,-0.264502][0.653225,0.564479,0.504639][0.305477,0.529385,0][0.304741,0.0673985,-0.264502][0.77027,0.475427,0.425033][0.306492,0.509096,0][0.19346,0.138439,-0.310992][0.653226,0.236506,0.719278][0.291566,0.529447,0][0.304742,0.138439,-0.310992][0.770262,0.199198,0.605819][0.289537,0.509722,0][0.19346,0.138439,-0.310992][0.653226,0.236506,0.719278][0.291566,0.529447,0][0.304741,0.0673985,-0.264502][0.77027,0.475427,0.425033][0.306492,0.509096,0][0.19346,0.138439,-0.310992][0.653226,0.236506,0.719278][0.291566,0.529447,0][0.304742,0.138439,-0.310992][0.770262,0.199198,0.605819][0.289537,0.509722,0][0.19346,0.223209,-0.315734][0.653226,-0.154817,0.741166][0.278469,0.531504,0][0.304742,0.223209,-0.315734][0.770263,-0.130396,0.624254][0.27363,0.51277,0][0.19346,0.223209,-0.315734][0.653226,-0.154817,0.741166][0.278469,0.531504,0][0.304742,0.138439,-0.310992][0.770262,0.199198,0.605819][0.289537,0.509722,0][0.19346,0.223209,-0.315734][0.653226,-0.154817,0.741166][0.278469,0.531504,0][0.304742,0.223209,-0.315734][0.770263,-0.130396,0.624254][0.27363,0.51277,0][0.19346,0.298989,-0.277457][0.653227,-0.504659,0.564459][0.266224,0.535562,0][0.304742,0.298989,-0.277457][0.770261,-0.425054,0.475422][0.258991,0.518649,0][0.19346,0.298989,-0.277457][0.653227,-0.504659,0.564459][0.266224,0.535562,0][0.304742,0.223209,-0.315734][0.770263,-0.130396,0.624254][0.27363,0.51277,0][0.19346,0.298989,-0.277457][0.653227,-0.504659,0.564459][0.266224,0.535562,0][0.304742,0.298989,-0.277457][0.770261,-0.425054,0.475422][0.258991,0.518649,0][0.19346,0.345479,-0.206417][0.653225,-0.71928,0.236502][0.254865,0.541193,0][0.304742,0.345479,-0.206417][0.770264,-0.605817,0.199195][0.245764,0.525999,0][0.19346,0.345479,-0.206417][0.653225,-0.71928,0.236502][0.254865,0.541193,0][0.304742,0.298989,-0.277457][0.770261,-0.425054,0.475422][0.258991,0.518649,0][0.19346,0.280559,-0.185071][0.808024,0.559662,-0.184052][0.349394,0.4909,0][0.19346,0.345479,-0.206417][0.653225,-0.71928,0.236502][0.337815,0.494003,0][0.19346,0.283329,-0.135624][0.79817,0.601489,-0.0336959][0.353738,0.498424,0][0.19346,0.350219,-0.12165][0.640182,-0.767025,0.0428906][0.345261,0.506901,0][0.19346,0.283329,-0.135624][0.79817,0.601489,-0.0336959][0.353738,0.498424,0][0.19346,0.345479,-0.206417][0.653225,-0.71928,0.236502][0.337815,0.494003,0][0.19346,0.170109,-0.0615329][1,2.06497e-005,4.48164e-006][0.377472,0.498424,0][0.19346,0.156139,0.00536211][1,2.06497e-005,4.48164e-006][0.385949,0.506901,0][0.193461,0.125909,-0.0838619][1,2.06497e-005,4.48164e-006][0.381816,0.4909,0][0.193462,0.0803586,-0.0329149][1,2.52561e-005,2.92093e-006][0.393395,0.494003,0][0.193461,0.125909,-0.0838619][1,2.52561e-005,2.92093e-006][0.381816,0.4909,0][0.19346,0.156139,0.00536211][1,2.52561e-005,2.92093e-006][0.385949,0.506901,0][0.193461,0.125909,-0.0838619][1,-3.03438e-006,-2.23727e-005][0.381816,0.4909,0][0.193462,0.0803586,-0.0329149][1,-3.03438e-006,-2.23727e-005][0.393395,0.494003,0][0.19346,0.0987886,-0.125301][1,-3.03438e-006,-2.23727e-005][0.381816,0.482213,0][0.19346,0.0338686,-0.103955][1,-7.8063e-006,-2.33246e-005][0.393395,0.47911,0][0.19346,0.0987886,-0.125301][1,-7.8063e-006,-2.33246e-005][0.381816,0.482213,0][0.193462,0.0803586,-0.0329149][1,-7.8063e-006,-2.33246e-005][0.393395,0.494003,0][0.19346,0.0987886,-0.125301][0.798138,-0.601531,0.0336943][0.381816,0.482213,0][0.19346,0.0338686,-0.103955][0.640181,0.767025,-0.0428955][0.393395,0.47911,0][0.19346,0.0960186,-0.174748][0.808043,-0.576681,-0.120441][0.377472,0.474689,0][0.193459,0.0291286,-0.188721][0.653242,0.741158,0.154789][0.385949,0.466212,0][0.19346,0.0960186,-0.174748][0.808043,-0.576681,-0.120441][0.377472,0.474689,0][0.19346,0.0338686,-0.103955][0.640181,0.767025,-0.0428955][0.393395,0.47911,0][0.19346,0.0960186,-0.174748][0.808043,-0.576681,-0.120441][0.377472,0.474689,0][0.193459,0.0291286,-0.188721][0.653242,0.741158,0.154789][0.385949,0.466212,0][0.19346,0.118349,-0.218954][0.808024,-0.439199,-0.392685][0.369949,0.470345,0][0.193459,0.0673985,-0.264502][0.653225,0.564479,0.504639][0.373052,0.458766,0][0.19346,0.118349,-0.218954][0.808024,-0.439199,-0.392685][0.369949,0.470345,0][0.193459,0.0291286,-0.188721][0.653242,0.741158,0.154789][0.385949,0.466212,0][0.19346,0.118349,-0.218954][0.808024,-0.439199,-0.392685][0.369949,0.470345,0][0.193459,0.0673985,-0.264502][0.653225,0.564479,0.504639][0.373052,0.458766,0][0.19346,0.159789,-0.246073][0.808039,-0.184017,-0.559652][0.361261,0.470345,0][0.19346,0.138439,-0.310992][0.653226,0.236506,0.719278][0.358159,0.458766,0][0.19346,0.159789,-0.246073][0.808039,-0.184017,-0.559652][0.361261,0.470345,0][0.193459,0.0673985,-0.264502][0.653225,0.564479,0.504639][0.373052,0.458766,0][0.19346,0.159789,-0.246073][0.808039,-0.184017,-0.559652][0.361261,0.470345,0][0.19346,0.138439,-0.310992][0.653226,0.236506,0.719278][0.358159,0.458766,0][0.19346,0.209239,-0.248839][0.808046,0.120462,-0.576673][0.353738,0.474689,0][0.19346,0.223209,-0.315734][0.653226,-0.154817,0.741166][0.345261,0.466212,0][0.19346,0.209239,-0.248839][0.808046,0.120462,-0.576673][0.353738,0.474689,0][0.19346,0.138439,-0.310992][0.653226,0.236506,0.719278][0.358159,0.458766,0][0.19346,0.209239,-0.248839][0.808046,0.120462,-0.576673][0.353738,0.474689,0][0.19346,0.223209,-0.315734][0.653226,-0.154817,0.741166][0.345261,0.466212,0][0.19346,0.253439,-0.226511][0.80802,0.392686,-0.439206][0.349394,0.482213,0][0.19346,0.298989,-0.277457][0.653227,-0.504659,0.564459][0.337815,0.47911,0][0.19346,0.253439,-0.226511][0.80802,0.392686,-0.439206][0.349394,0.482213,0][0.19346,0.223209,-0.315734][0.653226,-0.154817,0.741166][0.345261,0.466212,0][0.19346,0.253439,-0.226511][0.80802,0.392686,-0.439206][0.349394,0.482213,0][0.19346,0.298989,-0.277457][0.653227,-0.504659,0.564459][0.337815,0.47911,0][0.19346,0.280559,-0.185071][0.808024,0.559662,-0.184052][0.349394,0.4909,0][0.19346,0.345479,-0.206417][0.653225,-0.71928,0.236502][0.337815,0.494003,0][0.19346,0.280559,-0.185071][0.808024,0.559662,-0.184052][0.349394,0.4909,0][0.19346,0.298989,-0.277457][0.653227,-0.504659,0.564459][0.337815,0.47911,0][0.255121,0.273039,-0.182598][0.69988,0.678518,-0.223117][0.285953,0.55647,0][0.19346,0.280559,-0.185071][0.808024,0.559662,-0.184052][0.275515,0.553264,0][0.255121,0.275579,-0.137243][0.687383,0.725159,-0.0406163][0.285408,0.564851,0][0.19346,0.283329,-0.135624][0.79817,0.601489,-0.0336959][0.273488,0.562699,0][0.255121,0.275579,-0.137243][0.687383,0.725159,-0.0406163][0.285408,0.564851,0][0.19346,0.280559,-0.185071][0.808024,0.559662,-0.184052][0.275515,0.553264,0][0.255121,0.171729,-0.0692849][0.123117,-0.447476,0.885781][0.319337,0.564851,0][0.19346,0.170109,-0.0615329][0.123117,-0.447476,0.885781][0.331886,0.562111,0][0.255122,0.131189,-0.0897649][0.123117,-0.447476,0.885781][0.318455,0.556151,0][0.193461,0.125909,-0.0838619][0.123116,-0.447477,0.88578][0.329374,0.552191,0][0.255122,0.131189,-0.0897649][0.123116,-0.447477,0.88578][0.318455,0.556151,0][0.19346,0.170109,-0.0615329][0.123116,-0.447477,0.88578][0.331886,0.562111,0][0.255122,0.131189,-0.0897649][0.123132,-0.830328,0.543501][0.318455,0.556151,0][0.193461,0.125909,-0.0838619][0.123132,-0.830328,0.543501][0.329374,0.552191,0][0.255121,0.106309,-0.127775][0.123132,-0.830328,0.543501][0.31582,0.549623,0][0.19346,0.0987886,-0.125301][0.123074,-0.830376,0.543441][0.324246,0.543134,0][0.255121,0.106309,-0.127775][0.123074,-0.830376,0.543441][0.31582,0.549623,0][0.193461,0.125909,-0.0838619][0.123074,-0.830376,0.543441][0.329374,0.552191,0][0.255121,0.106309,-0.127775][0.687419,-0.725125,0.0406098][0.31582,0.549623,0][0.19346,0.0987886,-0.125301][0.798138,-0.601531,0.0336943][0.324246,0.543134,0][0.255121,0.103769,-0.173129][0.699875,-0.699182,-0.146016][0.311066,0.545075,0][0.19346,0.0960186,-0.174748][0.808043,-0.576681,-0.120441][0.316997,0.536126,0][0.255121,0.103769,-0.173129][0.699875,-0.699182,-0.146016][0.311066,0.545075,0][0.19346,0.0987886,-0.125301][0.798138,-0.601531,0.0336943][0.324246,0.543134,0][0.255121,0.103769,-0.173129][0.699875,-0.699182,-0.146016][0.311066,0.545075,0][0.19346,0.0960186,-0.174748][0.808043,-0.576681,-0.120441][0.316997,0.536126,0][0.255121,0.124249,-0.213676][0.699877,-0.532478,-0.476067][0.305179,0.542744,0][0.19346,0.118349,-0.218954][0.808024,-0.439199,-0.392685][0.307431,0.531941,0][0.255121,0.124249,-0.213676][0.699877,-0.532478,-0.476067][0.305179,0.542744,0][0.19346,0.0960186,-0.174748][0.808043,-0.576681,-0.120441][0.316997,0.536126,0][0.255121,0.124249,-0.213676][0.699877,-0.532478,-0.476067][0.305179,0.542744,0][0.19346,0.118349,-0.218954][0.808024,-0.439199,-0.392685][0.307431,0.531941,0][0.255121,0.162259,-0.23855][0.699886,-0.223107,-0.678515][0.298936,0.542984,0][0.19346,0.159789,-0.246073][0.808039,-0.184017,-0.559652][0.296507,0.531691,0][0.255121,0.162259,-0.23855][0.699886,-0.223107,-0.678515][0.298936,0.542984,0][0.19346,0.118349,-0.218954][0.808024,-0.439199,-0.392685][0.307431,0.531941,0][0.255121,0.162259,-0.23855][0.699886,-0.223107,-0.678515][0.298936,0.542984,0][0.19346,0.159789,-0.246073][0.808039,-0.184017,-0.559652][0.296507,0.531691,0][0.255121,0.207619,-0.241087][0.699897,0.146027,-0.699156][0.293104,0.545348,0][0.19346,0.209239,-0.248839][0.808046,0.120462,-0.576673][0.286587,0.536467,0][0.255121,0.207619,-0.241087][0.699897,0.146027,-0.699156][0.293104,0.545348,0][0.19346,0.159789,-0.246073][0.808039,-0.184017,-0.559652][0.296507,0.531691,0][0.255121,0.207619,-0.241087][0.699897,0.146027,-0.699156][0.293104,0.545348,0][0.19346,0.209239,-0.248839][0.808046,0.120462,-0.576673][0.286587,0.536467,0][0.255121,0.248169,-0.220607][0.699859,0.476105,-0.532467][0.288597,0.550009,0][0.19346,0.253439,-0.226511][0.80802,0.392686,-0.439206][0.27956,0.544169,0][0.255121,0.248169,-0.220607][0.699859,0.476105,-0.532467][0.288597,0.550009,0][0.19346,0.209239,-0.248839][0.808046,0.120462,-0.576673][0.286587,0.536467,0][0.255121,0.248169,-0.220607][0.699859,0.476105,-0.532467][0.288597,0.550009,0][0.19346,0.253439,-0.226511][0.80802,0.392686,-0.439206][0.27956,0.544169,0][0.255121,0.273039,-0.182598][0.69988,0.678518,-0.223117][0.285953,0.55647,0][0.19346,0.280559,-0.185071][0.808024,0.559662,-0.184052][0.275515,0.553264,0][0.255121,0.273039,-0.182598][0.69988,0.678518,-0.223117][0.285953,0.55647,0][0.19346,0.253439,-0.226511][0.80802,0.392686,-0.439206][0.27956,0.544169,0][0.267442,1.04227,-0.22325][0,1,0][0.350329,0.140184,0][-0.283963,1.04227,-0.22325][0,1,0][0.348434,0.215895,0][0.25213,1.04227,0.38837][0,1,0][0.434256,0.144389,0][-0.26865,1.04227,0.38837][0,1,0][0.432466,0.215895,0][0.25213,1.04227,0.38837][0,1,0][0.434256,0.144389,0][-0.283963,1.04227,-0.22325][0,1,0][0.348434,0.215895,0][-0.283963,1.04227,-0.22325][-0.9983,0.0526615,0.0249941][0.410481,0.33062,0][-0.336421,0.0154487,-0.155036][-0.9983,0.0526615,0.0249941][0.402937,0.226387,0][-0.26865,1.04227,0.38837][-0.9983,0.0526615,0.0249941][0.348433,0.331075,0][-0.317869,0.0151287,0.320156][-0.998214,0.0452428,0.0390017][0.354707,0.226743,0][-0.26865,1.04227,0.38837][-0.998214,0.0452428,0.0390017][0.348433,0.331075,0][-0.336421,0.0154487,-0.155036][-0.998214,0.0452428,0.0390017][0.402937,0.226387,0][0.267442,1.04227,-0.22325][1.44869e-007,-0.0662862,-0.997801][0.466391,0.329428,0][0.33162,0.0154486,-0.155036][1.44869e-007,-0.0662862,-0.997801][0.470674,0.224943,0][-0.283963,1.04227,-0.22325][1.44869e-007,-0.0662862,-0.997801][0.410481,0.33062,0][-0.336421,0.0154487,-0.155036][1.44869e-007,-0.0662862,-0.997801][0.402937,0.226387,0][-0.283963,1.04227,-0.22325][1.44869e-007,-0.0662862,-0.997801][0.410481,0.33062,0][0.33162,0.0154486,-0.155036][1.44869e-007,-0.0662862,-0.997801][0.470674,0.224943,0][0.25213,1.04227,0.38837][0.99803,0.0575515,0.024986][0.295619,0.330426,0][0.313068,0.0151287,0.320156][0.99803,0.0575515,0.024986][0.290723,0.225956,0][0.267442,1.04227,-0.22325][0.99803,0.0575515,0.024986][0.233583,0.329134,0][0.33162,0.0154486,-0.155036][0.99713,0.0649112,0.0389729][0.242503,0.224943,0][0.267442,1.04227,-0.22325][0.99713,0.0649112,0.0389729][0.233583,0.329134,0][0.313068,0.0151287,0.320156][0.99713,0.0649112,0.0389729][0.290723,0.225956,0][-0.26865,1.04227,0.38837][-1.56457e-007,-0.0662656,0.997802][0.348433,0.331075,0][-0.317869,0.0151287,0.320156][-1.56457e-007,-0.0662656,0.997802][0.354707,0.226743,0][0.25213,1.04227,0.38837][-1.56457e-007,-0.0662656,0.997802][0.295619,0.330426,0][0.313068,0.0151287,0.320156][-1.56457e-007,-0.0662656,0.997802][0.290723,0.225956,0][0.25213,1.04227,0.38837][-1.56457e-007,-0.0662656,0.997802][0.295619,0.330426,0][-0.317869,0.0151287,0.320156][-1.56457e-007,-0.0662656,0.997802][0.354707,0.226743,0][-0.376632,-1.00395,-0.364246][0,-1,4.70025e-005][0.380387,0.087741,0][0.371833,-1.00395,-0.364246][0,-1,4.70025e-005][0.380489,0.126169,0][-0.397731,-1.00394,-0.172767][0,-1,4.70025e-005][0.370553,0.086684,0][0.392933,-1.00394,-0.172767][0,-1,4.70025e-005][0.370661,0.127278,0][-0.397731,-1.00394,-0.172767][0,-1,4.70025e-005][0.370553,0.086684,0][0.371833,-1.00395,-0.364246][0,-1,4.70025e-005][0.380489,0.126169,0][-0.397731,-1.00394,-0.172767][0,-1,3.26572e-005][0.370553,0.086684,0][0.392933,-1.00394,-0.172767][0,-1,3.26572e-005][0.370661,0.127278,0][-0.376632,-1.00392,0.531519][0,-1,3.26572e-005][0.334397,0.087864,0][0.371833,-1.00392,0.531519][0,-1,3.26572e-005][0.334499,0.126292,0][-0.376632,-1.00392,0.531519][0,-1,3.26572e-005][0.334397,0.087864,0][0.392933,-1.00394,-0.172767][0,-1,3.26572e-005][0.370661,0.127278,0][-0.348162,-0.224687,-0.157772][-0.998482,0.0536234,-0.0125843][0.156687,0.178384,0][-0.329057,-0.225018,0.32458][-0.998629,0.0520631,-0.00550614][0.052421,0.178287,0][-0.336421,0.0154487,-0.155036][-0.998806,0.0486455,-0.00450927][0.174292,0.230458,0][-0.317869,0.0151287,0.320156][-0.998449,0.0470637,0.0297328][0.053268,0.230214,0][-0.336421,0.0154487,-0.155036][-0.998806,0.0486455,-0.00450927][0.174292,0.230458,0][-0.329057,-0.225018,0.32458][-0.998629,0.0520631,-0.00550614][0.052421,0.178287,0][-0.336421,0.0154487,-0.155036][-0.998806,0.0486455,-0.00450927][0.174292,0.230458,0][-0.328064,-0.224663,-0.328226][-0.991888,0.049829,-0.116945][0.193757,0.178684,0][-0.348162,-0.224687,-0.157772][-0.998482,0.0536234,-0.0125843][0.156687,0.178384,0][-0.328064,-0.224663,-0.328226][-0.00032006,0.584985,-0.811044][0.323129,0.131401,0][-0.336421,0.0154487,-0.155036][-0.00032006,0.584985,-0.811044][0.320379,0.07326,0][0.32409,-0.224672,-0.32849][-0.00032006,0.584985,-0.811044][0.165252,0.131401,0][0.33162,0.0154486,-0.155036][1.73593e-007,0.585564,-0.810626][0.167969,0.07326,0][0.32409,-0.224672,-0.32849][1.73593e-007,0.585564,-0.810626][0.165252,0.131401,0][-0.336421,0.0154487,-0.155036][1.73593e-007,0.585564,-0.810626][0.320379,0.07326,0][0.324257,-0.225018,0.32458][0.998633,0.0519842,-0.00540161][0.05245,0.178427,0][0.343361,-0.224687,-0.157772][0.998507,0.0534943,-0.0110779][0.156715,0.178524,0][0.313068,0.0151287,0.320156][0.998424,0.0473731,0.0300938][0.053296,0.230354,0][0.33162,0.0154486,-0.155036][0.998799,0.0488736,-0.00343002][0.174342,0.230591,0][0.313068,0.0151287,0.320156][0.998424,0.0473731,0.0300938][0.053296,0.230354,0][0.343361,-0.224687,-0.157772][0.998507,0.0534943,-0.0110779][0.156715,0.178524,0][0.371833,-1.00392,0.531519][-1.25484e-007,0.240938,0.97054][0.361453,0.065198,0][0.35628,-0.751945,0.468967][-1.25484e-007,0.240938,0.97054][0.358235,0.011479,0][-0.376632,-1.00392,0.531519][-1.25484e-007,0.240938,0.97054][0.206586,0.065198,0][-0.36108,-0.751945,0.468967][-1.25484e-007,0.240938,0.97054][0.209804,0.011479,0][-0.376632,-1.00392,0.531519][-1.25484e-007,0.240938,0.97054][0.206586,0.065198,0][0.35628,-0.751945,0.468967][-1.25484e-007,0.240938,0.97054][0.358235,0.011479,0][-0.376632,-1.00392,0.531519][-0.997172,0.0689627,0.0298709][0.008202,0.009613,0][-0.36108,-0.751945,0.468967][-0.997269,0.0679721,0.0288844][0.021557,0.064178,0][-0.397731,-1.00394,-0.172767][-0.997076,0.0653425,-0.0396205][0.160389,0.009742,0][-0.381527,-0.751584,-0.172267][-0.997783,0.0647378,-0.0154113][0.160128,0.06436,0][-0.397731,-1.00394,-0.172767][-0.997076,0.0653425,-0.0396205][0.160389,0.009742,0][-0.36108,-0.751945,0.468967][-0.997269,0.0679721,0.0288844][0.021557,0.064178,0][-0.381527,-0.751584,-0.172267][-0.997783,0.0647378,-0.0154113][0.160128,0.06436,0][-0.36108,-0.751461,-0.352846][-0.991705,0.064776,-0.111021][0.199378,0.06478,0][-0.397731,-1.00394,-0.172767][-0.997076,0.0653425,-0.0396205][0.160389,0.009742,0][-0.376632,-1.00395,-0.364246][-0.991815,0.066026,-0.109291][0.201995,0.010149,0][-0.397731,-1.00394,-0.172767][-0.997076,0.0653425,-0.0396205][0.160389,0.009742,0][-0.36108,-0.751461,-0.352846][-0.991705,0.064776,-0.111021][0.199378,0.06478,0][0.119615,-1.00393,-0.589949][1.58696e-007,0.0960721,-0.995374][0.006283,0.341226,0][-0.124416,-1.00393,-0.589949][1.58696e-007,0.0960721,-0.995374][0.006283,0.287411,0][0.114545,-0.885829,-0.57855][1.58696e-007,0.0960721,-0.995374][0.032449,0.340108,0][-0.119345,-0.885829,-0.57855][1.58696e-007,0.0960721,-0.995374][0.032449,0.288529,0][0.114545,-0.885829,-0.57855][1.58696e-007,0.0960721,-0.995374][0.032449,0.340108,0][-0.124416,-1.00393,-0.589949][1.58696e-007,0.0960721,-0.995374][0.006283,0.287411,0][0.371833,-1.00395,-0.364246][0.991814,0.0660299,-0.109296][0.202023,0.010289,0][0.35628,-0.751461,-0.352846][0.991705,0.0647914,-0.11101][0.199407,0.064919,0][0.392933,-1.00394,-0.172767][0.997075,0.0653578,-0.0396195][0.160417,0.009882,0][0.376723,-0.751584,-0.172267][0.997782,0.0647523,-0.0154071][0.160157,0.0645,0][0.392933,-1.00394,-0.172767][0.997075,0.0653578,-0.0396195][0.160417,0.009882,0][0.35628,-0.751461,-0.352846][0.991705,0.0647914,-0.11101][0.199407,0.064919,0][0.376723,-0.751584,-0.172267][0.997782,0.0647523,-0.0154071][0.160157,0.0645,0][0.35628,-0.751945,0.468967][0.997269,0.067976,0.0288824][0.021586,0.064318,0][0.392933,-1.00394,-0.172767][0.997075,0.0653578,-0.0396195][0.160417,0.009882,0][0.371833,-1.00392,0.531519][0.997172,0.0689668,0.0298726][0.00823,0.009753,0][0.392933,-1.00394,-0.172767][0.997075,0.0653578,-0.0396195][0.160417,0.009882,0][0.35628,-0.751945,0.468967][0.997269,0.067976,0.0288824][0.021586,0.064318,0][-0.36108,-0.751945,0.468967][-1.31583e-007,0.190448,0.981697][0.098665,0.244299,0][0.35628,-0.751945,0.468967][-1.31583e-007,0.190448,0.981697][0.220159,0.244299,0][-0.317869,0.0151287,0.320156][-1.31583e-007,0.190448,0.981697][0.113484,0.358844,0][0.313068,0.0151287,0.320156][-1.31583e-007,0.190448,0.981697][0.205341,0.358844,0][-0.317869,0.0151287,0.320156][-1.31583e-007,0.190448,0.981697][0.113484,0.358844,0][0.35628,-0.751945,0.468967][-1.31583e-007,0.190448,0.981697][0.220159,0.244299,0][0.324257,-0.225018,0.32458][0.998633,0.0519842,-0.00540161][0.221281,0.327677,0][0.313068,0.0151287,0.320156][0.998424,0.0473731,0.0300938][0.205341,0.358844,0][0.35628,-0.751945,0.468967][0.997269,0.067976,0.0288824][0.220159,0.244299,0][-0.329057,-0.225018,0.32458][-0.998629,0.0520631,-0.00550614][0.097543,0.327677,0][-0.36108,-0.751945,0.468967][-0.997269,0.0679721,0.0288844][0.098665,0.244299,0][-0.317869,0.0151287,0.320156][-0.998449,0.0470637,0.0297328][0.113484,0.358844,0][0.33162,0.0154486,-0.155036][0.998799,0.0488736,-0.00343002][0.174342,0.230591,0][0.343361,-0.224687,-0.157772][0.998507,0.0534943,-0.0110779][0.156715,0.178524,0][0.32409,-0.224672,-0.32849][0.992457,0.0498008,-0.112026][0.193821,0.178814,0][-0.36108,-0.751945,0.468967][-0.997269,0.0679721,0.0288844][0.021557,0.064178,0][-0.329057,-0.225018,0.32458][-0.998629,0.0520631,-0.00550614][0.052421,0.178287,0][-0.381527,-0.751584,-0.172267][-0.997783,0.0647378,-0.0154113][0.160128,0.06436,0][-0.348162,-0.224687,-0.157772][-0.998482,0.0536234,-0.0125843][0.156687,0.178384,0][-0.381527,-0.751584,-0.172267][-0.997783,0.0647378,-0.0154113][0.160128,0.06436,0][-0.329057,-0.225018,0.32458][-0.998629,0.0520631,-0.00550614][0.052421,0.178287,0][-0.299166,-0.224687,-0.157772][-0.990261,0.0574322,-0.126823][0.210699,0.220086,0][-0.281916,-0.224663,-0.292453][-0.990261,0.0574322,-0.126823][0.230793,0.218439,0][-0.327804,-0.751584,-0.172767][-0.990261,0.0574322,-0.126823][0.205947,0.141849,0][-0.310254,-0.751461,-0.311215][-0.990412,0.0577468,-0.125496][0.226601,0.14017,0][-0.327804,-0.751584,-0.172767][-0.990412,0.0577468,-0.125496][0.205947,0.141849,0][-0.281916,-0.224663,-0.292453][-0.990412,0.0577468,-0.125496][0.230793,0.218439,0][-0.310254,-0.751461,-0.311215][1.54012e-007,0.0355926,-0.999366][0.226601,0.14017,0][-0.281916,-0.224663,-0.292453][1.54012e-007,0.0355926,-0.999366][0.230793,0.218439,0][0.305453,-0.751461,-0.311215][1.54012e-007,0.0355926,-0.999366][0.318021,0.140188,0][0.277825,-0.224672,-0.292654][-0.000358186,0.0351936,-0.99938][0.313903,0.218454,0][0.305453,-0.751461,-0.311215][-0.000358186,0.0351936,-0.99938][0.318021,0.140188,0][-0.281916,-0.224663,-0.292453][-0.000358186,0.0351936,-0.99938][0.230793,0.218439,0][0.294365,-0.224687,-0.157772][0.990934,0.0573173,-0.121507][0.334014,0.220086,0][0.323003,-0.751584,-0.172767][0.990934,0.0573173,-0.121507][0.338677,0.141844,0][0.277825,-0.224672,-0.292654][0.990934,0.0573173,-0.121507][0.313903,0.218454,0][0.305453,-0.751461,-0.311215][0.99049,0.0563693,-0.125507][0.318021,0.140188,0][0.277825,-0.224672,-0.292654][0.99049,0.0563693,-0.125507][0.313903,0.218454,0][0.323003,-0.751584,-0.172767][0.99049,0.0563693,-0.125507][0.338677,0.141844,0][0.343361,-0.224687,-0.157772][0.998507,0.0534943,-0.0110779][0.156715,0.178524,0][0.324257,-0.225018,0.32458][0.998633,0.0519842,-0.00540161][0.05245,0.178427,0][0.376723,-0.751584,-0.172267][0.997782,0.0647523,-0.0154071][0.160157,0.0645,0][0.35628,-0.751945,0.468967][0.997269,0.067976,0.0288824][0.021586,0.064318,0][0.376723,-0.751584,-0.172267][0.997782,0.0647523,-0.0154071][0.160157,0.0645,0][0.324257,-0.225018,0.32458][0.998633,0.0519842,-0.00540161][0.05245,0.178427,0][-0.299166,-0.224687,-0.157772][0,-1,-0.000178352][0.439169,0.526888,0][-0.348162,-0.224687,-0.157772][0,-1,-0.000178352][0.431716,0.526888,0][-0.281916,-0.224663,-0.292453][0,-1,-0.000178352][0.441793,0.547376,0][-0.328064,-0.224663,-0.328226][0.000100004,-1,-0.00012912][0.434773,0.552818,0][-0.281916,-0.224663,-0.292453][0.000100004,-1,-0.00012912][0.441793,0.547376,0][-0.348162,-0.224687,-0.157772][0.000100004,-1,-0.00012912][0.431716,0.526888,0][-0.381527,-0.751584,-0.172267][-0.00930265,0.0280872,-0.999562][0.51618,0.538584,0][-0.348162,-0.224687,-0.157772][-0.00930265,0.0280872,-0.999562][0.452071,0.538584,0][-0.327804,-0.751584,-0.172767][-0.00930265,0.0280872,-0.999562][0.515769,0.545092,0][-0.299166,-0.224687,-0.157772][1.53422e-007,0.0284475,-0.999595][0.451695,0.544519,0][-0.327804,-0.751584,-0.172767][1.53422e-007,0.0284475,-0.999595][0.515769,0.545092,0][-0.348162,-0.224687,-0.157772][1.53422e-007,0.0284475,-0.999595][0.452071,0.538584,0][-0.36108,-0.751461,-0.352846][-0.000510452,1,0.000623301][0.543395,0.561373,0][-0.381527,-0.751584,-0.172267][-0.000510452,1,0.000623301][0.546753,0.531714,0][-0.310254,-0.751461,-0.311215][-0.000510452,1,0.000623301][0.535047,0.554535,0][-0.327804,-0.751584,-0.172767][8.36508e-006,1,0.000889427][0.53793,0.531796,0][-0.310254,-0.751461,-0.311215][8.36508e-006,1,0.000889427][0.535047,0.554535,0][-0.381527,-0.751584,-0.172267][8.36508e-006,1,0.000889427][0.546753,0.531714,0][-0.281916,-0.224663,-0.292453][-1.61594e-005,-1,2.07332e-005][0.441793,0.547376,0][-0.328064,-0.224663,-0.328226][-1.61594e-005,-1,2.07332e-005][0.434773,0.552818,0][0.277825,-0.224672,-0.292654][-1.61594e-005,-1,2.07332e-005][0.526944,0.547407,0][0.32409,-0.224672,-0.32849][-1.38955e-005,-1,-1.78265e-005][0.533982,0.552858,0][0.277825,-0.224672,-0.292654][-1.38955e-005,-1,-1.78265e-005][0.526944,0.547407,0][-0.328064,-0.224663,-0.328226][-1.38955e-005,-1,-1.78265e-005][0.434773,0.552818,0][0.305453,-0.751461,-0.311215][0,1,0][0.43392,0.554535,0][0.35628,-0.751461,-0.352846][0,1,0][0.425572,0.561373,0][-0.310254,-0.751461,-0.311215][0,1,0][0.535047,0.554535,0][-0.36108,-0.751461,-0.352846][0,1,0][0.543395,0.561373,0][-0.310254,-0.751461,-0.311215][0,1,0][0.535047,0.554535,0][0.35628,-0.751461,-0.352846][0,1,0][0.425572,0.561373,0][0.294365,-0.224687,-0.157772][1.53422e-007,0.0284475,-0.999595][0.516346,0.534448,0][0.343361,-0.224687,-0.157772][1.53422e-007,0.0284475,-0.999595][0.515971,0.528512,0][0.323003,-0.751584,-0.172767][1.53422e-007,0.0284475,-0.999595][0.452273,0.535021,0][0.376723,-0.751584,-0.172267][0.00930348,0.0280871,-0.999562][0.451863,0.528512,0][0.323003,-0.751584,-0.172767][0.00930348,0.0280871,-0.999562][0.452273,0.535021,0][0.343361,-0.224687,-0.157772][0.00930348,0.0280871,-0.999562][0.515971,0.528512,0][0.32409,-0.224672,-0.32849][-6.27581e-005,-1,-8.09091e-005][0.533982,0.552858,0][0.343361,-0.224687,-0.157772][-6.27581e-005,-1,-8.09091e-005][0.536913,0.526888,0][0.277825,-0.224672,-0.292654][-6.27581e-005,-1,-8.09091e-005][0.526944,0.547407,0][0.294365,-0.224687,-0.157772][0,-1,-0.000111359][0.52946,0.526888,0][0.277825,-0.224672,-0.292654][0,-1,-0.000111359][0.526944,0.547407,0][0.343361,-0.224687,-0.157772][0,-1,-0.000111359][0.536913,0.526888,0][0.323003,-0.751584,-0.172767][-8.19097e-006,1,0.000889427][0.431037,0.531796,0][0.376723,-0.751584,-0.172267][-8.19097e-006,1,0.000889427][0.422213,0.531714,0][0.305453,-0.751461,-0.311215][-8.19097e-006,1,0.000889427][0.43392,0.554535,0][0.35628,-0.751461,-0.352846][0.000510625,1,0.000623313][0.425572,0.561373,0][0.305453,-0.751461,-0.311215][0.000510625,1,0.000623313][0.43392,0.554535,0][0.376723,-0.751584,-0.172267][0.000510625,1,0.000623313][0.422213,0.531714,0][-0.376632,-1.00395,-0.364246][-0.0556662,0.0484567,-0.997273][0.367342,0.007471,0][-0.36108,-0.751461,-0.352846][-0.0556662,0.0484567,-0.997273][0.367342,0.078252,0][-0.221594,-1.00395,-0.3729][-0.0556662,0.0484567,-0.997273][0.410671,0.010024,0][-0.212485,-0.751461,-0.3615][-0.0580756,0.0471199,-0.9972][0.408877,0.080695,0][-0.221594,-1.00395,-0.3729][-0.0580756,0.0471199,-0.9972][0.410671,0.010024,0][-0.36108,-0.751461,-0.352846][-0.0580756,0.0471199,-0.9972][0.367342,0.078252,0][0.216793,-1.00395,-0.3729][0,-1,0][0.380913,0.118208,0][0.371833,-1.00395,-0.364246][0,-1,0][0.380489,0.126169,0][-0.221594,-1.00395,-0.3729][0,-1,0][0.380853,0.0957,0][-0.376632,-1.00395,-0.364246][0,-1,0][0.380387,0.087741,0][-0.221594,-1.00395,-0.3729][0,-1,0][0.380853,0.0957,0][0.371833,-1.00395,-0.364246][0,-1,0][0.380489,0.126169,0][0.207684,-0.751461,-0.3615][0.0580755,0.0471198,-0.9972][0.413392,0.081725,0][0.35628,-0.751461,-0.352846][0.0580755,0.0471198,-0.9972][0.454927,0.079283,0][0.216793,-1.00395,-0.3729][0.0580755,0.0471198,-0.9972][0.411598,0.011053,0][0.371833,-1.00395,-0.364246][0.0556658,0.0484569,-0.997273][0.454927,0.008502,0][0.216793,-1.00395,-0.3729][0.0556658,0.0484569,-0.997273][0.411598,0.011053,0][0.35628,-0.751461,-0.352846][0.0556658,0.0484569,-0.997273][0.454927,0.079283,0][-0.212485,-0.751461,-0.3615][0,1,0][0.518989,0.562794,0][-0.36108,-0.751461,-0.352846][0,1,0][0.543395,0.561373,0][0.207684,-0.751461,-0.3615][0,1,0][0.449978,0.562794,0][0.35628,-0.751461,-0.352846][0,1,0][0.425572,0.561373,0][0.207684,-0.751461,-0.3615][0,1,0][0.449978,0.562794,0][-0.36108,-0.751461,-0.352846][0,1,0][0.543395,0.561373,0][-0.124416,-1.00393,-0.589949][-0.909891,0.0783875,-0.407374][0.006283,0.287411,0][-0.221594,-1.00395,-0.3729][-0.909891,0.0783875,-0.407374][0.01219,0.2353,0][-0.119345,-0.885829,-0.57855][-0.909891,0.0783875,-0.407374][0.032449,0.288529,0][-0.212485,-0.751461,-0.3615][-0.905746,0.0516702,-0.420659][0.067755,0.240108,0][-0.119345,-0.885829,-0.57855][-0.905746,0.0516702,-0.420659][0.032449,0.288529,0][-0.221594,-1.00395,-0.3729][-0.905746,0.0516702,-0.420659][0.01219,0.2353,0][0.119615,-1.00393,-0.589949][0,-1,-7.37161e-005][0.392043,0.113189,0][0.216793,-1.00395,-0.3729][0,-1,-7.37161e-005][0.380913,0.118208,0][-0.124416,-1.00393,-0.589949][0,-1,-7.37161e-005][0.392009,0.10066,0][-0.221594,-1.00395,-0.3729][0,-1,-7.37161e-005][0.380853,0.0957,0][-0.124416,-1.00393,-0.589949][0,-1,-7.37161e-005][0.392009,0.10066,0][0.216793,-1.00395,-0.3729][0,-1,-7.37161e-005][0.380913,0.118208,0][0.207684,-0.751461,-0.3615][0.905748,0.0516699,-0.420655][0.067755,0.388529,0][0.216793,-1.00395,-0.3729][0.905748,0.0516699,-0.420655][0.01219,0.393337,0][0.114545,-0.885829,-0.57855][0.905748,0.0516699,-0.420655][0.032449,0.340108,0][0.119615,-1.00393,-0.589949][0.909892,0.07838,-0.407374][0.006283,0.341226,0][0.114545,-0.885829,-0.57855][0.909892,0.07838,-0.407374][0.032449,0.340108,0][0.216793,-1.00395,-0.3729][0.909892,0.07838,-0.407374][0.01219,0.393337,0][-0.119345,-0.885829,-0.57855][1.53811e-007,0.850259,-0.526365][0.032449,0.288529,0][-0.212485,-0.751461,-0.3615][1.53811e-007,0.850259,-0.526365][0.088745,0.267988,0][0.114545,-0.885829,-0.57855][1.53811e-007,0.850259,-0.526365][0.032449,0.340108,0][0.207684,-0.751461,-0.3615][1.53811e-007,0.850259,-0.526365][0.088745,0.360648,0][0.114545,-0.885829,-0.57855][1.53811e-007,0.850259,-0.526365][0.032449,0.340108,0][-0.212485,-0.751461,-0.3615][1.53811e-007,0.850259,-0.526365][0.088745,0.267988,0]