mtllib 29521422.mtl
o Mesh

v -0.4203000068664551 0.48037898540496826 0.5330340266227722
v -0.28598999977111816 0.38373899459838867 0.5330340266227722
v -0.09310999512672424 0.5817090272903442 0.452241986989975
v -0.3412899971008301 0.7602779865264893 0.452241986989975
v -0.5795909762382507 0.48854899406433105 0.5330340266227722
v -0.6356090307235718 0.7753790020942688 0.452241986989975
v -0.21265000104904175 0.22452899813652039 0.5330340266227722
v 0.042420029640197754 0.2875189781188965 0.452241986989975
v -0.3412899971008301 0.7602779865264893 0.452241986989975
v -0.09310999512672424 0.5817090272903442 0.452241986989975
v 0.0357699990272522 0.7139890193939209 0.21597599983215332
v -0.2884899973869324 0.9472990036010742 0.21597599983215332
v -0.6356090307235718 0.7753790020942688 0.452241986989975
v -0.6730400323867798 0.9670289754867554 0.21597599983215332
v 0.042420029640197754 0.2875189781188965 0.452241986989975
v 0.2128400206565857 0.3296079933643341 0.21597599983215332
v -0.2884899973869324 0.9472990036010742 -0.18688499927520752
v -0.2884899973869324 0.9472990036010742 0.21597599983215332
v 0.0357699990272522 0.7139890193939209 0.21597599983215332
v 0.0357699990272522 0.7139890193939209 -0.18688499927520752
v -0.6730400323867798 0.9670289754867554 -0.18688499927520752
v -0.6730400323867798 0.9670289754867554 0.21597599983215332
v -0.2884899973869324 0.9472990036010742 0.21597599983215332
v -0.2884899973869324 0.9472990036010742 -0.18688499927520752
v 0.2128400206565857 0.3296079933643341 0.21597599983215332
v 0.2128400206565857 0.3296079933643341 -0.18688499927520752
v -0.3412899971008301 0.7602779865264893 -0.4231509864330292
v -0.2884899973869324 0.9472990036010742 -0.18688499927520752
v 0.0357699990272522 0.7139890193939209 -0.18688499927520752
v -0.09310999512672424 0.5817080140113831 -0.4231509864330292
v -0.6356090307235718 0.7753779888153076 -0.4231509864330292
v -0.6730400323867798 0.9670289754867554 -0.18688499927520752
v 0.2128400206565857 0.3296079933643341 -0.18688499927520752
v 0.042420029640197754 0.2875189781188965 -0.4231509864330292
v -0.4203000068664551 0.48037898540496826 -0.5039420127868652
v -0.3412899971008301 0.7602779865264893 -0.4231509864330292
v -0.09310999512672424 0.5817080140113831 -0.4231509864330292
v -0.28598999977111816 0.38373899459838867 -0.5039420127868652
v -0.5795909762382507 0.48854899406433105 -0.5039420127868652
v -0.6356090307235718 0.7753779888153076 -0.4231509864330292
v 0.042420029640197754 0.2875189781188965 -0.4231509864330292
v -0.21265000104904175 0.2245280146598816 -0.5039420127868652
v -0.5135130286216736 0.15021800994873047 0.5409089922904968
v -0.5135130286216736 0.15021800994873047 -0.511817991733551
v -0.5135130286216736 0.15021800994873047 -0.511817991733551
v -0.21265000104904175 0.2245280146598816 -0.5039420127868652
v -0.21265000104904175 0.22452899813652039 0.5330340266227722
v -0.5135130286216736 0.15021800994873047 0.5409089922904968
v 0.042420029640197754 0.2875189781188965 0.452241986989975
v 0.042420029640197754 0.2875189781188965 -0.4231509864330292
v 0.2128400206565857 0.3296079933643341 -0.18688499927520752
v 0.2128400206565857 0.3296079933643341 0.21597599983215332
v -0.6730400323867798 0.9670289754867554 -0.18688499927520752
v -0.6356090307235718 0.7753779888153076 -0.4231509864330292
v -0.6356090307235718 0.7753790020942688 0.452241986989975
v -0.6730400323867798 0.9670289754867554 0.21597599983215332
v -0.5795909762382507 0.48854899406433105 -0.5039420127868652
v -0.5795909762382507 0.48854899406433105 0.5330340266227722
v -0.5135130286216736 0.15021800994873047 0.5409089922904968
v -0.5135130286216736 0.15021800994873047 -0.511817991733551
v -0.03275001049041748 -0.2376909852027893 0.5129740238189697
v -0.004440009593963623 -0.42969197034835815 0.508994996547699
v 0.2346000075340271 -0.3805609941482544 0.39805498719215393
v 0.2199299931526184 -0.1819620132446289 0.4029639959335327
v -0.17001000046730042 -0.26555198431015015 0.46880701184272766
v -0.1410199999809265 -0.4577620029449463 0.47277501225471497
v -0.004440009593963623 -0.42969197034835815 0.508994996547699
v -0.03275001049041748 -0.2376909852027893 0.5129740238189697
v -0.3900899887084961 -0.31650102138519287 0.13737699389457703
v -0.34248000383377075 -0.49917101860046387 0.13022199273109436
v -0.24347001314163208 -0.4788219928741455 0.39805498719215393
v -0.28543001413345337 -0.29342198371887207 0.4029639959335327
v -0.28543001413345337 -0.29342198371887207 -0.12820999324321747
v -0.24347001314163208 -0.4788219928741455 -0.1376120001077652
v -0.34248000383377075 -0.49917101860046387 0.13022199273109436
v -0.3900899887084961 -0.31650102138519287 0.13737699389457703
v -0.15261998772621155 -0.4545620083808899 -0.21126200258731842
v -0.24347001314163208 -0.4788219928741455 -0.1376120001077652
v -0.28543001413345337 -0.29342198371887207 -0.12820999324321747
v -0.15909001231193542 -0.26555198431015015 -0.19399799406528473
v 0.2346000075340271 -0.3805609941482544 -0.1376120001077652
v -0.004440009593963623 -0.42969197034835815 -0.24855199456214905
v -0.03275001049041748 -0.2376909852027893 -0.2382200062274933
v 0.2199299931526184 -0.1819620132446289 -0.12820999324321747
v 0.33360999822616577 -0.3602210283279419 0.13022099435329437
v 0.2346000075340271 -0.3805609941482544 -0.1376120001077652
v 0.2199299931526184 -0.1819620132446289 -0.12820999324321747
v 0.3245900273323059 -0.15887099504470825 0.13737699389457703
v 0.2199299931526184 -0.1819620132446289 0.4029639959335327
v 0.2346000075340271 -0.3805609941482544 0.39805498719215393
v -0.22273001074790955 0.2617889940738678 -0.24429400265216827
v -0.38245999813079834 0.1368190050125122 -0.1515440046787262
v -0.42774999141693115 0.2079780101776123 -0.18160299956798553
v -0.34579998254776 0.3827590048313141 -0.2743520140647888
v -0.38245999813079834 0.1368190050125122 -0.1515440046787262
v -0.44861000776290894 0.08504799008369446 0.07237300276756287
v -0.48830699920654297 0.17200899124145508 0.04231400042772293
v -0.42774999141693115 0.2079780101776123 -0.18160299956798553
v -0.44861000776290894 0.08504799008369446 0.07237300276756287
v -0.38245999813079834 0.1368190050125122 0.29629001021385193
v -0.42774999141693115 0.20669901371002197 0.2662320137023926
v -0.48830699920654297 0.17200899124145508 0.04231400042772293
v -0.42774999141693115 0.20669901371002197 0.2662320137023926
v -0.38245999813079834 0.1368190050125122 0.29629001021385193
v -0.22273001074790955 0.2617889940738678 0.3890399932861328
v -0.34579998254776 0.3827590048313141 0.35898101329803467
v -0.34579998254776 0.3827590048313141 0.35898101329803467
v -0.22273001074790955 0.2617889940738678 0.3890399932861328
v -0.06301000714302063 0.38676899671554565 0.29629001021385193
v -0.26385998725891113 0.5748580098152161 0.2662320137023926
v -0.26385998725891113 0.5748580098152161 0.2662320137023926
v -0.06301000714302063 0.38676899671554565 0.29629001021385193
v 0.0031499862670898438 0.4385389983654022 0.07237300276756287
v -0.22991999983787537 0.6544280052185059 0.04231400042772293
v -0.22991999983787537 0.6544280052185059 0.04231400042772293
v 0.0031499862670898438 0.4385389983654022 0.07237300276756287
v -0.06301000714302063 0.38676899671554565 -0.1515440046787262
v -0.26385998725891113 0.5748580098152161 -0.18160299956798553
v -0.06301000714302063 0.38676899671554565 -0.1515440046787262
v -0.22273001074790955 0.2617889940738678 -0.24429400265216827
v -0.34579998254776 0.3827590048313141 -0.2743520140647888
v -0.26385998725891113 0.5748580098152161 -0.18160299956798553
v -0.07594999670982361 -0.04656100273132324 -0.19486600160598755
v -0.2943899929523468 -0.09522199630737305 -0.09755399823188782
v -0.2943899929523468 -0.09522199630737305 -0.09755399823188782
v -0.3848699927330017 -0.11538100242614746 0.13737699389457703
v -0.3848699927330017 -0.11538100242614746 0.13737699389457703
v -0.2943899929523468 -0.09522199630737305 0.37230798602104187
v -0.2943899929523468 -0.09522199630737305 0.37230798602104187
v -0.07594999670982361 -0.04656100273132324 0.4696190059185028
v -0.07594999670982361 -0.04656100273132324 0.4696190059185028
v 0.14249002933502197 0.0020990073680877686 0.37230798602104187
v 0.14249002933502197 0.0020990073680877686 0.37230798602104187
v 0.2329699993133545 0.022258996963500977 0.13737699389457703
v 0.2329699993133545 0.022258996963500977 0.13737699389457703
v 0.14249002933502197 0.0020990073680877686 -0.09755399823188782
v 0.14249002933502197 0.0020990073680877686 -0.09755399823188782
v -0.07594999670982361 -0.04656100273132324 -0.19486600160598755
v -0.38008999824523926 -0.11611199378967285 -0.19314399361610413
v -0.2943899929523468 -0.09522199630737305 -0.09755399823188782
v -0.2260499894618988 -0.08215099573135376 -0.272379994392395
v -0.5077019929885864 -0.14424198865890503 0.13737699389457703
v -0.3848699927330017 -0.11538100242614746 0.13737699389457703
v -0.38008999824523926 -0.11611199378967285 0.4678969979286194
v -0.2943899929523468 -0.09522199630737305 0.37230798602104187
v -0.07199999690055847 -0.04819101095199585 0.6048030257225037
v -0.07594999670982361 -0.04656100273132324 0.4696190059185028
v -0.23697000741958618 -0.08215099573135376 0.5471889972686768
v 0.23607999086380005 0.019728004932403564 0.4678969979286194
v 0.14249002933502197 0.0020990073680877686 0.37230798602104187
v 0.36369001865386963 0.04785799980163574 0.13737699389457703
v 0.2329699993133545 0.022258996963500977 0.13737699389457703
v 0.23607999086380005 0.019728004932403564 -0.19314399361610413
v 0.14249002933502197 0.0020990073680877686 -0.09755399823188782
v -0.07199999690055847 -0.04819202423095703 -0.330049991607666
v -0.07594999670982361 -0.04656100273132324 -0.19486600160598755
v -0.5077019929885864 -0.14424198865890503 0.13737699389457703
v -0.38008999824523926 -0.11611199378967285 -0.19314399361610413
v -0.5077019929885864 -0.14424198865890503 0.13737699389457703
v -0.38008999824523926 -0.11611199378967285 0.4678969979286194
v -0.23697000741958618 -0.08215099573135376 0.5471889972686768
v -0.07199999690055847 -0.04819101095199585 0.6048030257225037
v 0.23607999086380005 0.019728004932403564 0.4678969979286194
v -0.07199999690055847 -0.04819101095199585 0.6048030257225037
v 0.36369001865386963 0.04785799980163574 0.13737699389457703
v 0.23607999086380005 0.019728004932403564 0.4678969979286194
v 0.23607999086380005 0.019728004932403564 -0.19314399361610413
v 0.23607999086380005 0.019728004932403564 -0.19314399361610413
v -0.07199999690055847 -0.04819202423095703 -0.330049991607666
v -0.2260499894618988 -0.08215099573135376 -0.272379994392395
v -0.38008999824523926 -0.11611199378967285 -0.19314399361610413
v -0.004440009593963623 -0.42969197034835815 -0.24855199456214905
v -0.03275001049041748 -0.2376909852027893 -0.2382200062274933
v -0.07199999690055847 -0.04819202423095703 -0.330049991607666
v -0.28543001413345337 -0.29342198371887207 0.4029639959335327
v -0.24347001314163208 -0.4788219928741455 0.39805498719215393
v -0.38008999824523926 -0.11611199378967285 0.4678969979286194
v -0.0925000011920929 -0.7880810499191284 0.512919008731842
v 0.3757699728012085 -0.8918410539627075 0.41499200463294983
v -0.31081998348236084 -0.6372309923171997 0.35039201378822327
v -0.22951000928878784 -0.7080810070037842 0.4524199962615967
v -0.34248000383377075 -0.49917101860046387 0.13022199273109436
v -0.37777000665664673 -0.5803120136260986 0.10331500321626663
v -0.31081998348236084 -0.6372309923171997 0.35039201378822327
v -0.24347001314163208 -0.4788219928741455 0.39805498719215393
v -0.24347001314163208 -0.4788219928741455 -0.1376120001077652
v -0.309689998626709 -0.566241979598999 -0.28798601031303406
v -0.37777000665664673 -0.5803120136260986 0.10331500321626663
v -0.34248000383377075 -0.49917101860046387 0.13022199273109436
v -0.15261998772621155 -0.4545620083808899 -0.21126200258731842
v -0.21257999539375305 -0.6474510431289673 -0.3720420002937317
v -0.309689998626709 -0.566241979598999 -0.28798601031303406
v -0.24347001314163208 -0.4788219928741455 -0.1376120001077652
v 0.38673001527786255 -0.8918420076370239 -0.21531400084495544
v -0.02331000566482544 -0.7880810499191284 -0.3584040105342865
v 0.44731998443603516 -0.9075909852981567 0.10644099861383438
v 0.38673001527786255 -0.8918420076370239 -0.21531400084495544
v 0.3757699728012085 -0.8918410539627075 0.41499200463294983
v -0.25617000460624695 -0.7478220462799072 0.21437400579452515
v -0.15764999389648438 -0.830901026725769 0.2903900146484375
v -0.22951000928878784 -0.7080810070037842 0.4524199962615967
v -0.31081998348236084 -0.6372309923171997 0.35039201378822327
v -0.27310001850128174 -0.7884809970855713 -0.1727599948644638
v -0.17991000413894653 -0.8457310199737549 -0.18308499455451965
v -0.17642998695373535 -0.849890947341919 0.03361399844288826
v -0.3122999966144562 -0.6980710029602051 0.04887299984693527
v 0.0653499960899353 -1.4239109754562378 0.03072899952530861
v 0.047159016132354736 -1.3385310173034668 -0.27773401141166687
v 0.10407900810241699 -1.3492809534072876 -0.2669140100479126
v 0.14413899183273315 -1.4387810230255127 0.029301000759005547
v 0.06115001440048218 -1.380081057548523 0.2687990069389343
v 0.012929022312164307 -1.366441011428833 0.2935979962348938
v 0.1531590223312378 -1.0194909572601318 0.4765529930591583
v 0.36473900079727173 -1.0887010097503662 0.39474600553512573
v 0.04729902744293213 -1.0877410173416138 0.3353480100631714
v -0.06924998760223389 -0.9220709800720215 0.31710800528526306
v -0.06265100836753845 -0.967041015625 0.03830299898982048
v 0.07743901014328003 -1.1214909553527832 0.04733999818563461
v 0.1708899736404419 -0.9711120128631592 -0.3291819989681244
v 0.38607001304626465 -1.039091944694519 -0.23689599335193634
v 0.42778998613357544 -1.1083619594573975 0.08381099998950958
v 0.38607001304626465 -1.039091944694519 -0.23689599335193634
v 0.36473900079727173 -1.0887010097503662 0.39474600553512573
v -0.05566999316215515 -0.922050952911377 -0.19685199856758118
v 0.0719500184059143 -1.0586119890213013 -0.2650260031223297
v -0.06924998760223389 -0.9220709800720215 0.31710800528526306
v 0.04729902744293213 -1.0877410173416138 0.3353480100631714
v 0.1531590223312378 -1.0194909572601318 0.4765529930591583
v -0.0925000011920929 -0.7880810499191284 0.512919008731842
v 0.26481902599334717 -1.2828110456466675 0.3747360110282898
v 0.16067898273468018 -1.1664210557937622 0.4364109933376312
v 0.012929022312164307 -1.366441011428833 0.2935979962348938
v 0.06115001440048218 -1.380081057548523 0.2687990069389343
v 0.1708899736404419 -0.9711120128631592 -0.3291819989681244
v 0.0719500184059143 -1.0586119890213013 -0.2650260031223297
v -0.05566999316215515 -0.922050952911377 -0.19685199856758118
v -0.02331000566482544 -0.7880810499191284 -0.3584040105342865
v -0.15764999389648438 -0.830901026725769 0.2903900146484375
v -0.25617000460624695 -0.7478220462799072 0.21437400579452515
v -0.37777000665664673 -0.5803120136260986 0.10331500321626663
v -0.309689998626709 -0.566241979598999 -0.28798601031303406
v -0.31081998348236084 -0.6372309923171997 0.35039201378822327
v -0.33833998441696167 -0.8264620304107666 -0.2804790139198303
v -0.38304001092910767 -0.790992021560669 -0.38587599992752075
v -0.32864999771118164 -0.8506720066070557 -0.42668500542640686
v -0.29255998134613037 -0.8791120052337646 -0.2641969919204712
v 0.3472689986228943 -1.3053419589996338 0.062049999833106995
v 0.26481902599334717 -1.2828110456466675 0.3747360110282898
v 0.06115001440048218 -1.380081057548523 0.2687990069389343
v 0.14413899183273315 -1.4387810230255127 0.029301000759005547
v 0.14413899183273315 -1.4387810230255127 0.029301000759005547
v 0.10407900810241699 -1.3492809534072876 -0.2669140100479126
v 0.2897989749908447 -1.239251971244812 -0.25788798928260803
v 0.3472689986228943 -1.3053419589996338 0.062049999833106995
v 0.02135998010635376 -1.2263009548187256 0.30378198623657227
v 0.16067898273468018 -1.1664210557937622 0.4364109933376312
v -0.27310001850128174 -0.7884809970855713 -0.1727599948644638
v -0.309689998626709 -0.566241979598999 -0.28798601031303406
v -0.38304001092910767 -0.790992021560669 -0.38587599992752075
v -0.33833998441696167 -0.8264620304107666 -0.2804790139198303
v -0.29255998134613037 -0.8791120052337646 -0.2641969919204712
v -0.17991000413894653 -0.8457310199737549 -0.18308499455451965
v -0.27310001850128174 -0.7884809970855713 -0.1727599948644638
v -0.33833998441696167 -0.8264620304107666 -0.2804790139198303
v -0.02331000566482544 -0.7880810499191284 -0.3584040105342865
v -0.05566999316215515 -0.922050952911377 -0.19685199856758118
v -0.19620001316070557 -0.9090709686279297 -0.28001898527145386
v -0.22995001077651978 -0.8900120258331299 -0.40087801218032837
v -0.38304001092910767 -0.790992021560669 -0.38587599992752075
v -0.32864999771118164 -0.8506720066070557 -0.42668500542640686
v -0.0925000011920929 -0.7880810499191284 0.512919008731842
v -0.19620001316070557 -0.9090709686279297 -0.28001898527145386
v -0.05566999316215515 -0.922050952911377 -0.19685199856758118
v -0.22995001077651978 -0.8900120258331299 -0.40087801218032837
v -0.19620001316070557 -0.9090709686279297 -0.28001898527145386
v -0.21257999539375305 -0.6474510431289673 -0.3720420002937317
v -0.22995001077651978 -0.8900120258331299 -0.40087801218032837
v -0.32864999771118164 -0.8506720066070557 -0.42668500542640686
v -0.15261998772621155 -0.4545620083808899 -0.21126200258731842
v 0.2897989749908447 -1.239251971244812 -0.25788798928260803
v 0.12501901388168335 -1.1854809522628784 -0.3055419921875
v 0.2897989749908447 -1.239251971244812 -0.25788798928260803
v 0.3472689986228943 -1.3053419589996338 0.062049999833106995
v 0.26481902599334717 -1.2828110456466675 0.3747360110282898
v 0.02135998010635376 -1.2263009548187256 0.30378198623657227
v 0.04729902744293213 -1.0877410173416138 0.3353480100631714
v 0.07743901014328003 -1.1214909553527832 0.04733999818563461
v 0.05882900953292847 -1.247560977935791 0.04121600091457367
v 0.0719500184059143 -1.0586119890213013 -0.2650260031223297
v 0.043540000915527344 -1.178110957145691 -0.2512100040912628
v -0.01945999264717102 -1.3188409805297852 0.2751449942588806
v 0.010800004005432129 -1.3802709579467773 0.03280799835920334
v -0.0011799931526184082 -1.2938209772109985 -0.23865999281406403
v 0.10407900810241699 -1.3492809534072876 -0.2669140100479126
v 0.047159016132354736 -1.3385310173034668 -0.27773401141166687
v 0.12501901388168335 -1.1854809522628784 -0.3055419921875
v 0.043540000915527344 -1.178110957145691 -0.2512100040912628
v 0.047159016132354736 -1.3385310173034668 -0.27773401141166687
v -0.0011799931526184082 -1.2938209772109985 -0.23865999281406403
v -0.0011799931526184082 -1.2938209772109985 -0.23865999281406403
v 0.047159016132354736 -1.3385310173034668 -0.27773401141166687
v 0.0653499960899353 -1.4239109754562378 0.03072899952530861
v 0.010800004005432129 -1.3802709579467773 0.03280799835920334
v 0.012929022312164307 -1.366441011428833 0.2935979962348938
v -0.01945999264717102 -1.3188409805297852 0.2751449942588806
v 0.012929022312164307 -1.366441011428833 0.2935979962348938
v -0.01945999264717102 -1.3188409805297852 0.2751449942588806

vn 0.0579800009727478 0.158501997590065 0.9856550097465515
vn 0.13773900270462036 0.10900399833917618 0.9844520092010498
vn 0.2148980051279068 0.18219900131225586 0.9594910144805908
vn 0.08655700087547302 0.25365200638771057 0.9634150266647339
vn 0.00867099966853857 0.16903099417686462 0.9855729937553406
vn 0.014038999564945698 0.27363499999046326 0.9617310166358948
vn 0.1636579930782318 0.07538899779319763 0.9836320281028748
vn 0.27140098810195923 0.12502799928188324 0.9543110132217407
vn 0.26221299171447754 0.7272740006446838 0.6342840194702148
vn 0.616008996963501 0.49472901225090027 0.6130059957504272
vn 0.6042850017547607 0.5078359842300415 0.6139559745788574
vn 0.2514350116252899 0.7307630181312561 0.6346380114555359
vn 0.03997199982404709 0.7790910005569458 0.625635027885437
vn 0.039972998201847076 0.7790899872779846 0.6256359815597534
vn 0.7336999773979187 0.33800700306892395 0.5894370079040527
vn 0.7336980104446411 0.33799800276756287 0.5894439816474915
vn 0.5840460062026978 0.8117210268974304 -0.0
vn 0.5840460062026978 0.8117210268974304 -0.0
vn 0.7716349959373474 0.6360660195350647 -0.0
vn 0.7716349959373474 0.6360660195350647 -0.0
vn 0.05124000087380409 0.9986860156059265 -0.0
vn 0.05124000087380409 0.9986860156059265 -0.0
vn 0.05124000087380409 0.9986860156059265 -0.0
vn 0.05124000087380409 0.9986860156059265 -0.0
vn 0.9082610011100769 0.4184029996395111 0.0
vn 0.9082610011100769 0.4184029996395111 0.0
vn 0.26221299171447754 0.7272740006446838 -0.6342849731445312
vn 0.2514359951019287 0.7307630181312561 -0.6346380114555359
vn 0.6042860150337219 0.5078359842300415 -0.6139559745788574
vn 0.616008996963501 0.4947279989719391 -0.6130059957504272
vn 0.03997199982404709 0.7790910005569458 -0.6256359815597534
vn 0.039972998201847076 0.7790899872779846 -0.6256359815597534
vn 0.7336980104446411 0.3379969894886017 -0.5894439816474915
vn 0.7336999773979187 0.33800700306892395 -0.5894370079040527
vn 0.0579800009727478 0.15850099921226501 -0.9856550097465515
vn 0.08655700087547302 0.2536489963531494 -0.9634159803390503
vn 0.21489499509334564 0.18219700455665588 -0.959492027759552
vn 0.13773900270462036 0.10900299996137619 -0.9844520092010498
vn 0.00867099966853857 0.16902999579906464 -0.9855729937553406
vn 0.014038999564945698 0.2736310064792633 -0.9617319703102112
vn 0.27139800786972046 0.12502600252628326 -0.9543120265007019
vn 0.16365699470043182 0.07538799941539764 -0.9836329817771912
vn 0.013620000332593918 0.01766500063240528 0.9997509717941284
vn 0.013621999882161617 0.017666999250650406 -0.9997509717941284
vn 0.23978400230407715 -0.9708260297775269 0.0
vn 0.23976799845695496 -0.9708300232887268 0.0
vn 0.23976799845695496 -0.9708300232887268 0.0
vn 0.23978400230407715 -0.9708260297775269 0.0
vn 0.23975500464439392 -0.9708330035209656 0.0
vn 0.23975500464439392 -0.9708330035209656 0.0
vn 0.2397730052471161 -0.9708290100097656 0.0
vn 0.2397730052471161 -0.9708290100097656 0.0
vn -0.9814559817314148 -0.19168700277805328 -0.0
vn -0.981456995010376 -0.19168099761009216 -0.0
vn -0.981456995010376 -0.19168099761009216 -0.0
vn -0.9814559817314148 -0.19168700277805328 -0.0
vn -0.981456995010376 -0.19168199598789215 -0.0
vn -0.981456995010376 -0.19168199598789215 -0.0
vn -0.981456995010376 -0.19168399274349213 -0.0
vn -0.981456995010376 -0.19168399274349213 -0.0
vn 0.4309070110321045 -0.14968599379062653 0.8898950219154358
vn 0.42686501145362854 -0.03653800114989281 0.9035770297050476
vn 0.3608950078487396 0.017257999628782272 0.9324470162391663
vn 0.42411500215530396 -0.16532999277114868 0.8903890252113342
vn -0.33130499720573425 -0.26706400513648987 0.9049389958381653
vn -0.4054970145225525 0.01728699915111065 0.9139329791069031
vn -0.270455002784729 0.010257000103592873 0.9626780152320862
vn -0.2486020028591156 -0.2741999924182892 0.9289839863777161
vn -0.8464249968528748 -0.3923250138759613 0.36006399989128113
vn -0.9021329879760742 -0.2489289939403534 0.35240599513053894
vn -0.9024159908294678 -0.22705799341201782 0.36618301272392273
vn -0.8454779982566833 -0.39024999737739563 0.3645150065422058
vn -0.8521999716758728 -0.38073500990867615 -0.35888200998306274
vn -0.916208028793335 -0.18945099413394928 -0.35308799147605896
vn -0.906728982925415 -0.20879699289798737 -0.36639800667762756
vn -0.8452469706535339 -0.38855698704719543 -0.3668529987335205
vn -0.42422300577163696 0.019732000306248665 -0.9053429961204529
vn -0.6107019782066345 -0.09836900234222412 -0.7857270240783691
vn -0.4347760081291199 -0.24932800233364105 -0.8653349876403809
vn -0.3349829912185669 -0.2146890014410019 -0.9174389839172363
vn 0.3817639946937561 0.1659889966249466 -0.9092329740524292
vn 0.2593019902706146 0.3026689887046814 -0.9171440005302429
vn 0.42696699500083923 -0.11628100275993347 -0.8967599868774414
vn 0.42075100541114807 -0.13767799735069275 -0.896668016910553
vn 0.9892290234565735 0.14585499465465546 -0.01234699971973896
vn 0.9323149919509888 0.16757899522781372 -0.32047799229621887
vn 0.9337270259857178 -0.05692899972200394 -0.35343000292778015
vn 0.996845006942749 -0.07929100096225739 0.0036780000664293766
vn 0.9331910014152527 -0.07176300138235092 0.35214298963546753
vn 0.9215250015258789 0.16190600395202637 0.35295501351356506
vn -0.22881099581718445 -0.35855600237846375 -0.9050319790840149
vn -0.24391399323940277 -0.3717379868030548 -0.8957210183143616
vn -0.1555200070142746 -0.4386419951915741 -0.8851029872894287
vn -0.1711210012435913 -0.398034006357193 -0.9012690186500549
vn -0.797510027885437 -0.5085960030555725 -0.32451000809669495
vn -0.8317970037460327 -0.42973700165748596 -0.35133999586105347
vn -0.7904139757156372 -0.5102570056915283 -0.3389439880847931
vn -0.7436169981956482 -0.5988659858703613 -0.297309011220932
vn -0.9111229777336121 -0.27017998695373535 0.31122100353240967
vn -0.8917459845542908 -0.2917410135269165 0.3459419906139374
vn -0.8622030019760132 -0.3821119964122772 0.3325589895248413
vn -0.9040300250053406 -0.31149399280548096 0.29274600744247437
vn -0.4960770010948181 -0.08098000288009644 0.8644940257072449
vn -0.5306620001792908 0.050315000116825104 0.8460890054702759
vn -0.48044899106025696 -0.05505799874663353 0.8752920031547546
vn -0.44937700033187866 -0.24360999464988708 0.8594849705696106
vn 0.19475699961185455 0.3829270005226135 0.9030150175094604
vn 0.24072200059890747 0.3757129907608032 0.8949260115623474
vn 0.23191599547863007 0.35537201166152954 0.9054970145225525
vn 0.19737300276756287 0.356687992811203 0.9131360054016113
vn 0.6133859753608704 0.710250973701477 0.34540000557899475
vn 0.7193930149078369 0.5993620157241821 0.35105299949645996
vn 0.7052170038223267 0.6161249876022339 0.35079801082611084
vn 0.6133760213851929 0.7102739810943604 0.34536999464035034
vn 0.6658099889755249 0.6630269885063171 -0.34218698740005493
vn 0.769070029258728 0.5327169895172119 -0.35319000482559204
vn 0.759585976600647 0.5492939949035645 -0.34828901290893555
vn 0.6699910163879395 0.6616389751434326 -0.33667001128196716
vn 0.4101859927177429 0.14977599680423737 -0.8996189832687378
vn 0.42351800203323364 0.12464100122451782 -0.897271990776062
vn 0.3853830099105835 0.22548499703407288 -0.8947830200195312
vn 0.38090500235557556 0.265188992023468 -0.8857690095901489
vn -0.31292399764060974 -0.3110310137271881 -0.8974069952964783
vn -0.32221201062202454 -0.32884401082992554 -0.8877170085906982
vn -0.8488479852676392 -0.39478999376296997 -0.35156500339508057
vn -0.84893798828125 -0.3867799937725067 -0.3601459860801697
vn -0.9158239960670471 -0.20778200030326843 0.3436470031738281
vn -0.9032130241394043 -0.22259199619293213 0.36695900559425354
vn -0.4606040120124817 0.050923001021146774 0.8861439824104309
vn -0.414110004901886 0.04050400108098984 0.9093250036239624
vn 0.3064129948616028 0.37454599142074585 0.8751149773597717
vn 0.29418298602104187 0.3565959930419922 0.8867329955101013
vn 0.7961429953575134 0.49429500102996826 0.3490389883518219
vn 0.7961289882659912 0.4942280054092407 0.34916698932647705
vn 0.8398330211639404 0.40768399834632874 -0.3584330081939697
vn 0.8420330286026001 0.4067710041999817 -0.35428500175476074
vn 0.3907020092010498 0.08001299947500229 -0.9170330166816711
vn 0.4099079966545105 0.07860899716615677 -0.9087330102920532
vn -0.22594699263572693 0.9740849733352661 -0.010304000228643417
vn -0.22649499773979187 0.9739620089530945 -0.0098860003054142
vn -0.22272799909114838 0.9747589826583862 -0.015389000065624714
vn -0.2292409986257553 0.9733700156211853 -0.0
vn -0.22872699797153473 0.9734910130500793 -0.0
vn -0.23170800507068634 0.972773015499115 0.004852000158280134
vn -0.22797299921512604 0.9736610054969788 0.0036410000175237656
vn -0.20805899798870087 0.9779419898986816 0.0184749998152256
vn -0.21062199771404266 0.9774720072746277 0.013666000217199326
vn -0.21841399371623993 0.9758449792861938 0.004674999974668026
vn -0.20003199577331543 0.9796720147132874 0.015163999982178211
vn -0.20009399950504303 0.9796649813652039 0.014790000393986702
vn -0.19268099963665009 0.9812610149383545 -0.0
vn -0.19218699634075165 0.981357991695404 -0.0
vn -0.20079100131988525 0.9795179963111877 -0.015062999911606312
vn -0.20045499503612518 0.9795740246772766 -0.015897000208497047
vn -0.21474100649356842 0.9765040278434753 -0.018050000071525574
vn -0.21521200239658356 0.9764059782028198 -0.017751000821590424
vn -0.772271990776062 -0.5317280292510986 -0.3476499915122986
vn -0.7705590128898621 -0.5370669960975647 -0.34321698546409607
vn -0.7722730040550232 -0.5317270159721375 0.3476499915122986
vn -0.7705590128898621 -0.5370659828186035 0.34321799874305725
vn -0.2689869999885559 -0.46416500210762024 0.8439180254936218
vn -0.2065110057592392 -0.4609909951686859 0.8630409836769104
vn 0.4387589991092682 -0.31054699420928955 0.8432379961013794
vn 0.4425570070743561 -0.3151620030403137 0.8395329713821411
vn 0.9818540215492249 -0.18963700532913208 0.0
vn 0.9221979975700378 -0.183446004986763 0.34043800830841064
vn 0.9221979975700378 -0.183447003364563 -0.34043699502944946
vn 0.4387589991092682 -0.3105509877204895 -0.8432369828224182
vn 0.4425570070743561 -0.31516599655151367 -0.8395320177078247
vn -0.2671529948711395 -0.46421098709106445 -0.8444749712944031
vn -0.3190000057220459 -0.47140800952911377 -0.8222000002861023
vn -0.2860429883003235 0.04856099933385849 -0.9569849967956543
vn -0.2755720019340515 -0.2468319982290268 -0.9290500283241272
vn -0.2198379933834076 -0.4619170129299164 -0.859246015548706
vn -0.4388999938964844 -0.2936129868030548 0.8492100238800049
vn -0.7079150080680847 0.08455999940633774 0.7012180089950562
vn -0.34109801054000854 -0.4745680093765259 0.8114420175552368
vn 0.2733289897441864 0.04785799980163574 0.9607290029525757
vn 0.2617569863796234 0.015147999860346317 0.9650149941444397
vn -0.8436470031738281 0.2099210023880005 0.4941590130329132
vn -0.5237230062484741 0.08970300108194351 0.8471530079841614
vn -0.9046480059623718 0.29021498560905457 0.31206899881362915
vn -0.9047369956970215 0.2900409996509552 0.3119730055332184
vn -0.8436470031738281 0.2099210023880005 0.4941590130329132
vn -0.7079150080680847 0.08455999940633774 0.7012180089950562
vn -0.7301880121231079 0.6719009876251221 -0.12399200350046158
vn -0.7054250240325928 0.7020480036735535 -0.09748899936676025
vn -0.8172889947891235 0.5267069935798645 -0.233706995844841
vn -0.8440859913825989 0.45902401208877563 -0.2771559953689575
vn -0.34253600239753723 0.80942702293396 -0.4769650101661682
vn -0.24149399995803833 0.5231850147247314 -0.817287027835846
vn -0.24972499907016754 0.6537709832191467 -0.7142969965934753
vn -0.4577440023422241 0.8413100242614746 -0.28751999139785767
vn 0.39640501141548157 0.20083700120449066 -0.8958389759063721
vn 0.29276299476623535 0.22050300240516663 -0.930413007736206
vn 0.9976459741592407 0.06810999661684036 0.008004000410437584
vn 0.9779040217399597 0.13858599960803986 -0.15651699900627136
vn 0.9662870168685913 0.07763999700546265 0.2454809993505478
vn -0.7618550062179565 -0.6362199783325195 0.12165699899196625
vn -0.7031720280647278 -0.683709979057312 0.19516700506210327
vn -0.6732779741287231 -0.6961159706115723 0.24923700094223022
vn -0.7968440055847168 -0.5840439796447754 0.15470099449157715
vn -0.8298829793930054 -0.5578799843788147 -0.007935999892652035
vn -0.5240579843521118 -0.8516460061073303 -0.007933000102639198
vn -0.6922619938850403 -0.7204390168190002 0.04171599820256233
vn -0.8518900275230408 -0.5235739946365356 0.01235199999064207
vn -0.18336400389671326 -0.9824600219726562 -0.0338979996740818
vn -0.13190799951553345 -0.9573140144348145 -0.2571980059146881
vn -0.13885900378227234 -0.9561640024185181 -0.2578139901161194
vn -0.18618999421596527 -0.9804909825325012 -0.06300900131464005
vn -0.18315699696540833 -0.9674050211906433 0.17487399280071259
vn -0.18369999527931213 -0.9673069715499878 0.17484599351882935
vn 0.26405400037765503 -0.05572500079870224 0.962897002696991
vn 0.30262500047683716 -0.1815209984779358 0.9356639981269836
vn -0.7632459998130798 -0.36357399821281433 0.5341050028800964
vn -0.7307369709014893 -0.6254780292510986 0.273497998714447
vn -0.7377539873123169 -0.6735439896583557 -0.04535900056362152
vn -0.7419989705085754 -0.6672449707984924 -0.06497199833393097
vn 0.36518698930740356 0.10833100229501724 -0.9246090054512024
vn 0.399960994720459 0.022140000015497208 -0.9162650108337402
vn 0.9663249850273132 -0.25703999400138855 0.012078999541699886
vn 0.9665740132331848 -0.19398699700832367 -0.16763900220394135
vn 0.9376360177993774 -0.2716760039329529 0.21686500310897827
vn -0.6833029985427856 -0.7231060266494751 -0.10106699913740158
vn -0.7540460228919983 -0.6463429927825928 -0.11685699969530106
vn -0.7307369709014893 -0.6254780292510986 0.273497998714447
vn -0.7632459998130798 -0.36357399821281433 0.5341050028800964
vn -0.682483971118927 -0.41898199915885925 0.5988900065422058
vn -0.6177330017089844 -0.702675998210907 0.3530600070953369
vn 0.08654099702835083 -0.4365139901638031 0.8955249786376953
vn 0.16193599998950958 -0.344541996717453 0.9246990084648132
vn 0.010228999890387058 -0.7119960188865662 0.7021089792251587
vn 0.07648500055074692 -0.8033480048179626 0.5905770063400269
vn -0.547016978263855 -0.23697100579738617 -0.8028799891471863
vn -0.540028989315033 -0.0027280000504106283 -0.8416420221328735
vn -0.5208619832992554 -0.4518809914588928 -0.724228024482727
vn -0.49164000153541565 -0.6193699836730957 -0.6121029853820801
vn -0.7031720280647278 -0.683709979057312 0.19516700506210327
vn -0.7618550062179565 -0.6362199783325195 0.12165699899196625
vn -0.8712430000305176 -0.49084800481796265 -0.001914000022225082
vn -0.9530619978904724 -0.27937400341033936 -0.11671800166368484
vn -0.7968440055847168 -0.5840439796447754 0.15470099449157715
vn -0.7485759854316711 -0.6603519916534424 0.05973299965262413
vn -0.7137569785118103 -0.6970720291137695 0.068121999502182
vn -0.579941987991333 -0.8146569728851318 -0.001285000005736947
vn -0.513450026512146 -0.8577979803085327 -0.02347099967300892
vn 0.4195519983768463 -0.8675789833068848 0.26698800921440125
vn 0.35627099871635437 -0.9205350279808044 0.16027100384235382
vn 0.40681400895118713 -0.8800889849662781 0.24483799934387207
vn 0.4708319902420044 -0.8052039742469788 0.36050400137901306
vn 0.5360509753227234 -0.7959929704666138 -0.2811500132083893
vn 0.49545300006866455 -0.8106870055198669 -0.3119499981403351
vn 0.5224030017852783 -0.8012449741363525 -0.29172199964523315
vn 0.5589860081672668 -0.7864090204238892 -0.2628589868545532
vn -0.667110025882721 -0.021980000659823418 0.7446349859237671
vn -0.7094680070877075 -0.1223979964852333 0.6940270066261292
vn -0.8829039931297302 0.11964700371026993 0.45405399799346924
vn -0.8855019807815552 0.09049899876117706 0.45573699474334717
vn -0.8826190233230591 0.12239900231361389 0.45387500524520874
vn -0.8663520216941833 0.22822800278663635 0.44423601031303406
vn -0.45096099376678467 -0.6310989856719971 0.6311479806900024
vn -0.31231600046157837 -0.7305899858474731 0.607204020023346
vn -0.4416089951992035 -0.5884699821472168 0.677262008190155
vn -0.6975839734077454 -0.42911601066589355 0.5737910270690918
vn 0.36251300573349 -0.8130999803543091 -0.455471009016037
vn 0.2730729877948761 -0.766668975353241 -0.5810760259628296
vn 0.38820600509643555 -0.8231719732284546 -0.41434699296951294
vn 0.4697889983654022 -0.8423680067062378 -0.2640340030193329
vn -0.271261990070343 0.40623199939727783 -0.8725780248641968
vn -0.24911600351333618 0.3816229999065399 -0.8901150226593018
vn -0.3432370126247406 0.06346999853849411 0.9371020197868347
vn -0.26177600026130676 -0.7872030138969421 0.5583770275115967
vn -0.3927370011806488 -0.7382519841194153 0.5483989715576172
vn -0.33446401357650757 -0.939149022102356 -0.07831300050020218
vn -0.3059050142765045 -0.949882984161377 -0.06437499821186066
vn 0.16179199516773224 0.26398900151252747 -0.950859010219574
vn 0.22657400369644165 0.09896600246429443 -0.968953013420105
vn 0.2863540053367615 0.09286099672317505 -0.9536129832267761
vn -0.28534001111984253 0.6644399762153625 -0.6907250285148621
vn 0.26850399374961853 -0.1609559953212738 -0.9497359991073608
vn 0.20509199798107147 -0.20112699270248413 -0.9578539729118347
vn 0.8976150155067444 -0.3847230076789856 -0.21511699259281158
vn 0.925229012966156 -0.37928399443626404 0.009736999869346619
vn 0.8706809878349304 -0.4370119869709015 0.22568799555301666
vn -0.9433019757270813 0.29822400212287903 -0.1457509994506836
vn -0.9694870114326477 0.21022500097751617 -0.12609200179576874
vn -0.9853569865226746 0.1674630045890808 -0.032044000923633575
vn -0.9644209742546082 0.2627989947795868 -0.02878200076520443
vn -0.9691159725189209 0.23790499567985535 0.0649230033159256
vn -0.9553700089454651 0.27919599413871765 0.09652300179004669
vn -0.8938140273094177 0.413688987493515 -0.17308300733566284
vn -0.9394519925117493 0.3416700065135956 -0.0263069998472929
vn -0.9228479862213135 0.3594149947166443 0.1384669989347458
vn 0.15873000025749207 -0.24579599499702454 -0.9562370181083679
vn 0.13646000623703003 -0.2438730001449585 -0.9601590037345886
vn -0.5513049960136414 0.06986299902200699 -0.8313729763031006
vn -0.5486260056495667 0.08645399659872055 -0.8315860033035278
vn -0.5480819940567017 0.12438999861478806 -0.8271239995956421
vn -0.5519649982452393 0.12388700246810913 -0.8246129751205444
vn -0.7183399796485901 -0.6791989803314209 -0.15058499574661255
vn -0.7314010262489319 -0.6671029925346375 -0.1415179967880249
vn -0.63509202003479 -0.7677779793739319 -0.08470500260591507
vn -0.6398980021476746 -0.764054000377655 -0.08217000216245651
vn -0.8033559918403625 -0.594281017780304 0.038075998425483704
vn -0.8326650261878967 -0.5525990128517151 0.03610499948263168
vn -0.6077569723129272 -0.021128999069333076 0.7938410043716431
vn -0.5276600122451782 -0.02995000034570694 0.8489270210266113

vt 0.4883590042591095 0.17156702280044556
vt 0.48768100142478943 0.1546880006790161
vt 0.47641199827194214 0.1498889923095703
vt 0.4768750071525574 0.1804940104484558
vt 0.49050599336624146 0.18554198741912842
vt 0.4781329929828644 0.20421797037124634
vt 0.48982200026512146 0.13935601711273193
vt 0.4781149923801422 0.12461501359939575
vt 0.4768750071525574 0.1804940104484558
vt 0.47641199827194214 0.1498889923095703
vt 0.46393999457359314 0.14770501852035522
vt 0.46374601125717163 0.18522900342941284
vt 0.4781329929828644 0.20421797037124634
vt 0.4623650014400482 0.21533501148223877
vt 0.4781149923801422 0.12461501359939575
vt 0.4644260108470917 0.11489599943161011
vt 0.4449720084667206 0.1839359998703003
vt 0.46374601125717163 0.18522900342941284
vt 0.46393999457359314 0.14770501852035522
vt 0.446476012468338 0.14683401584625244
vt 0.4453670084476471 0.2151550054550171
vt 0.4623650014400482 0.21533501148223877
vt 0.46374601125717163 0.18522900342941284
vt 0.4449720084667206 0.1839359998703003
vt 0.4644260108470917 0.11489599943161011
vt 0.4455449879169464 0.1142989993095398
vt 0.43303099274635315 0.17792099714279175
vt 0.4449720084667206 0.1839359998703003
vt 0.446476012468338 0.14683401584625244
vt 0.43349599838256836 0.14819598197937012
vt 0.43039101362228394 0.201229989528656
vt 0.4453670084476471 0.2151550054550171
vt 0.4455449879169464 0.1142989993095398
vt 0.43203800916671753 0.1227080225944519
vt 0.4218269884586334 0.1687210202217102
vt 0.43303099274635315 0.17792099714279175
vt 0.43349599838256836 0.14819598197937012
vt 0.42178601026535034 0.15058797597885132
vt 0.4193029999732971 0.1821029782295227
vt 0.43039101362228394 0.201229989528656
vt 0.43203800916671753 0.1227080225944519
vt 0.4209269881248474 0.13752198219299316
vt 0.5006759762763977 0.15963900089263916
vt 0.410194993019104 0.1557369828224182
vt 0.42763298749923706 0.05970102548599243
vt 0.43362700939178467 0.05939602851867676
vt 0.43362700939178467 0.01922398805618286
vt 0.42763298749923706 0.018917977809906006
vt 0.43870800733566284 0.022352993488311768
vt 0.43870800733566284 0.05626600980758667
vt 0.44210299849510193 0.047113001346588135
vt 0.44210299849510193 0.0315060019493103
vt 0.4115599989891052 0.03153902292251587
vt 0.415336012840271 0.022386014461517334
vt 0.415336012840271 0.05629897117614746
vt 0.4115599989891052 0.0471460223197937
vt 0.420987993478775 0.019255995750427246
vt 0.420987993478775 0.05942898988723755
vt 0.42765501141548157 0.05973398685455322
vt 0.42765501141548157 0.018950998783111572
vt 0.545960009098053 0.09636497497558594
vt 0.5399169921875 0.09720301628112793
vt 0.5396749973297119 0.11357802152633667
vt 0.5455999970436096 0.11431097984313965
vt 0.545337975025177 0.08744502067565918
vt 0.539330005645752 0.08807402849197388
vt 0.5399169921875 0.09720301628112793
vt 0.545960009098053 0.09636497497558594
vt 0.5432940125465393 0.05053102970123291
vt 0.5374100208282471 0.05030202865600586
vt 0.5379019975662231 0.06857800483703613
vt 0.5434340238571167 0.0689389705657959
vt 0.5429199934005737 0.0332450270652771
vt 0.5371320247650146 0.032787024974823
vt 0.5374100208282471 0.05030202865600586
vt 0.5432940125465393 0.05053102970123291
vt 0.5365030169487 0.20056301355361938
vt 0.5374860167503357 0.2088170051574707
vt 0.5430300235748291 0.20863699913024902
vt 0.5424270033836365 0.1994360089302063
vt 0.5380759835243225 0.1761149764060974
vt 0.5362629890441895 0.1915079951286316
vt 0.5425860285758972 0.19188600778579712
vt 0.5439879894256592 0.17501801252365112
vt 0.5374839901924133 0.14085602760314941
vt 0.5361409783363342 0.15845900774002075
vt 0.5459929704666138 0.158968985080719
vt 0.547569990158081 0.14135301113128662
vt 0.5472840070724487 0.1234850287437439
vt 0.5373950004577637 0.12309598922729492
vt 0.2923629879951477 0.5676380097866058
vt 0.28561899065971375 0.5007469952106476
vt 0.35172799229621887 0.5007469952106476
vt 0.35172799229621887 0.5544260144233704
vt 0.2856200039386749 0.5007469952106476
vt 0.2749750018119812 0.4267809987068176
vt 0.35172799229621887 0.428259015083313
vt 0.35172799229621887 0.5007469952106476
vt 0.2749750018119812 0.4267809987068176
vt 0.27074798941612244 0.37636399269104004
vt 0.35172799229621887 0.37636399269104004
vt 0.35172799229621887 0.428259015083313
vt 0.35172799229621887 0.8750260025262833
vt 0.2791590094566345 0.8750260025262833
vt 0.2807280123233795 0.8130359947681427
vt 0.35172799229621887 0.8245770037174225
vt 0.35172799229621887 0.8245770037174225
vt 0.2807280123233795 0.8130359947681427
vt 0.2870579957962036 0.7501499950885773
vt 0.35172799229621887 0.7501499950885773
vt 0.35172799229621887 0.7501499950885773
vt 0.2870579957962036 0.7501499950885773
vt 0.2916469871997833 0.6926510035991669
vt 0.35172799229621887 0.6948330104351044
vt 0.35172799229621887 0.6948330104351044
vt 0.2916469871997833 0.6926510035991669
vt 0.2955470085144043 0.6258360147476196
vt 0.35172799229621887 0.6258360147476196
vt 0.29554399847984314 0.6258360147476196
vt 0.2923629879951477 0.5676380097866058
vt 0.35172799229621887 0.5544260144233704
vt 0.35172799229621887 0.6258360147476196
vt 0.22699099779129028 0.5646170079708099
vt 0.22699099779129028 0.5007469952106476
vt 0.22699099779129028 0.5007469952106476
vt 0.22699099779129028 0.4240819811820984
vt 0.22699099779129028 0.4240819811820984
vt 0.22699099779129028 0.37636399269104004
vt 0.22699099779129028 0.8750260025262833
vt 0.22699099779129028 0.8184359967708588
vt 0.22699099779129028 0.8184359967708588
vt 0.22699099779129028 0.7501499950885773
vt 0.22699099779129028 0.7501499950885773
vt 0.22699099779129028 0.6918750107288361
vt 0.22699099779129028 0.6918750107288361
vt 0.22699099779129028 0.6258360147476196
vt 0.22699099779129028 0.6258360147476196
vt 0.22699099779129028 0.5646170079708099
vt 0.47453001141548157 0.039264976978302
vt 0.47033700346946716 0.04250901937484741
vt 0.4750730097293854 0.051437973976135254
vt 0.4655669927597046 0.022435009479522705
vt 0.46396300196647644 0.030559003353118896
vt 0.4532809853553772 0.022435009479522705
vt 0.45523300766944885 0.030547022819519043
vt 0.4448699951171875 0.039264976978302
vt 0.44925999641418457 0.0424799919128418
vt 0.4488629996776581 0.02988797426223755
vt 0.44526201486587524 0.06306499242782593
vt 0.4495449960231781 0.05936700105667114
vt 0.45422500371932983 0.07989197969436646
vt 0.4559189975261688 0.0713149905204773
vt 0.4665110111236572 0.07989197969436646
vt 0.4646489918231964 0.07132798433303833
vt 0.4749230146408081 0.06306499242782593
vt 0.4706209897994995 0.059395015239715576
vt 0.5497840046882629 0.050495028495788574
vt 0.5491859912872314 0.029241979122161865
vt 0.5497840046882629 0.050495028495788574
vt 0.5496699810028076 0.0722699761390686
vt 0.551367998123169 0.08521902561187744
vt 0.5522000193595886 0.09564697742462158
vt 0.5518879890441895 0.11678099632263184
vt 0.5522000193595886 0.09564697742462158
vt 0.5522249937057495 0.14230602979660034
vt 0.5520009994506836 0.12050598859786987
vt 0.5504810214042664 0.1637750267982483
vt 0.5504639744758606 0.17222797870635986
vt 0.5497890114784241 0.19186097383499146
vt 0.549340009689331 0.2012389898300171
vt 0.5495330095291138 0.21221697330474854
vt 0.5362629890441895 0.1915079951286316
vt 0.5425860285758972 0.19188600778579712
vt 0.5497890114784241 0.19186097383499146
vt 0.5443080067634583 0.079010009765625
vt 0.538578987121582 0.0797950029373169
vt 0.5503860116004944 0.0752519965171814
vt 0.5290679931640625 0.08964097499847412
vt 0.5228779911994934 0.11678099632263184
vt 0.533424973487854 0.07413899898529053
vt 0.5316759943962097 0.0816270112991333
vt 0.5374100208282471 0.05030202865600586
vt 0.5347009897232056 0.04890298843383789
vt 0.533037006855011 0.0646439790725708
vt 0.5379019975662231 0.06857800483703613
vt 0.5371320247650146 0.032787024974823
vt 0.5333679914474487 0.0253869891166687
vt 0.5347009897232056 0.04890298843383789
vt 0.5374100208282471 0.05030202865600586
vt 0.5365030169487 0.20056301355361938
vt 0.5286340117454529 0.2044050097465515
vt 0.53233802318573 0.2105960249900818
vt 0.5374860167503357 0.2088170051574707
vt 0.5227749943733215 0.1654459834098816
vt 0.5246989727020264 0.1931149959564209
vt 0.5226439833641052 0.1397550106048584
vt 0.5217990279197693 0.1599929928779602
vt 0.523410975933075 0.12050598859786987
vt 0.5282970070838928 0.06958597898483276
vt 0.5256980061531067 0.07738500833511353
vt 0.5316759943962097 0.0816270112991333
vt 0.533424973487854 0.07413899898529053
vt 0.5264139771461487 0.03405201435089111
vt 0.5227959752082825 0.035858988761901855
vt 0.5241039991378784 0.048089027404785156
vt 0.5303890109062195 0.0464400053024292
vt 0.500452995300293 0.05766797065734863
vt 0.5033100247383118 0.07631397247314453
vt 0.5014860033988953 0.07637101411819458
vt 0.49800199270248413 0.058368980884552
vt 0.5000380277633667 0.04280698299407959
vt 0.5014979839324951 0.04099702835083008
vt 0.5202509760856628 0.1008949875831604
vt 0.516979992389679 0.11382502317428589
vt 0.5160599946975708 0.0712820291519165
vt 0.5218759775161743 0.06725198030471802
vt 0.5191649794578552 0.05083799362182617
vt 0.5129050016403198 0.05476301908493042
vt 0.5195490121841431 0.17910897731781006
vt 0.5185670256614685 0.16337502002716064
vt 0.516185998916626 0.14002597332000732
vt 0.5171579718589783 0.16035497188568115
vt 0.5172629952430725 0.12070202827453613
vt 0.5184289813041687 0.03700798749923706
vt 0.5117830038070679 0.035558998584747314
vt 0.5226820111274719 0.08289599418640137
vt 0.517425000667572 0.09014701843261719
vt 0.5202509760856628 0.1008949875831604
vt 0.5290679931640625 0.08964097499847412
vt 0.5113340020179749 0.10564297437667847
vt 0.5154920220375061 0.10012900829315186
vt 0.5089380145072937 0.08904200792312622
vt 0.5079270005226135 0.09188699722290039
vt 0.5195490121841431 0.17910897731781006
vt 0.5159990191459656 0.18315500020980835
vt 0.5177890062332153 0.19399702548980713
vt 0.5246989727020264 0.1931149959564209
vt 0.5254189968109131 0.06376200914382935
vt 0.5288730263710022 0.057344019412994385
vt 0.5347009897232056 0.04890298843383789
vt 0.5333679914474487 0.0253869891166687
vt 0.533037006855011 0.0646439790725708
vt 0.5257189869880676 0.02581697702407837
vt 0.5262150168418884 0.01806199550628662
vt 0.5233860015869141 0.01648402214050293
vt 0.5240319967269897 0.027670979499816895
vt 0.5098839998245239 0.1401280164718628
vt 0.5105109810829163 0.12078201770782471
vt 0.5026900172233582 0.12504297494888306
vt 0.5024420022964478 0.141431987285614
vt 0.5024420022964478 0.141431987285614
vt 0.5035449862480164 0.16061997413635254
vt 0.5102570056915283 0.1603429913520813
vt 0.5098839998245239 0.1401280164718628
vt 0.5131289958953857 0.08870500326156616
vt 0.5154920220375061 0.10012900829315186
vt 0.5264139771461487 0.03405201435089111
vt 0.5333679914474487 0.0253869891166687
vt 0.5262150168418884 0.01806199550628662
vt 0.5257189869880676 0.02581697702407837
vt 0.5240319967269897 0.027670979499816895
vt 0.5227959752082825 0.035858988761901855
vt 0.5264139771461487 0.03405201435089111
vt 0.5257189869880676 0.02581697702407837
vt 0.5246989727020264 0.1931149959564209
vt 0.5177890062332153 0.19399702548980713
vt 0.518746018409729 0.2030249834060669
vt 0.5216050148010254 0.20724797248840332
vt 0.525052011013031 0.21713298559188843
vt 0.5227140188217163 0.2137240171432495
vt 0.5290679931640625 0.08964097499847412
vt 0.5209710001945496 0.029030978679656982
vt 0.5184289813041687 0.03700798749923706
vt 0.5203499794006348 0.02042001485824585
vt 0.5209710001945496 0.029030978679656982
vt 0.5286340117454529 0.2044050097465515
vt 0.5216050148010254 0.20724797248840332
vt 0.5227140188217163 0.2137240171432495
vt 0.5365030169487 0.20056301355361938
vt 0.5119270086288452 0.16560500860214233
vt 0.5125769972801208 0.17652899026870728
vt 0.5102570056915283 0.1603429913520813
vt 0.5098839998245239 0.1401280164718628
vt 0.5105109810829163 0.12078201770782471
vt 0.5116770267486572 0.07193499803543091
vt 0.5160599946975708 0.0712820291519165
vt 0.5129050016403198 0.05476301908493042
vt 0.509020984172821 0.05674701929092407
vt 0.5117830038070679 0.035558998584747314
vt 0.5083979964256287 0.03841698169708252
vt 0.508476972579956 0.0722699761390686
vt 0.5048140287399292 0.058715999126434326
vt 0.5047739744186401 0.0412520170211792
vt 0.506971001625061 0.17390400171279907
vt 0.5068389773368835 0.1774749755859375
vt 0.5125769972801208 0.17652899026870728
vt 0.5119230151176453 0.18212997913360596
vt 0.5068389773368835 0.1774749755859375
vt 0.5075880289077759 0.18198102712631226
vt 0.5052369832992554 0.07354700565338135
vt 0.5033100247383118 0.07631397247314453
vt 0.500452995300293 0.05766797065734863
vt 0.5025609731674194 0.056984007358551025
vt 0.5014979839324951 0.04099702835083008
vt 0.5033379793167114 0.04158902168273926
vt 0.5089380145072937 0.08904200792312622
vt 0.5102480053901672 0.08638900518417358

usemtl Material

f 1/1/1 2/2/2 3/3/3
f 3/3/3 4/4/4 1/1/1
f 5/5/5 1/1/1 4/4/4
f 4/4/4 6/6/6 5/5/5
f 2/2/2 7/7/7 8/8/8
f 8/8/8 3/3/3 2/2/2
f 9/9/9 10/10/10 11/11/11
f 11/11/11 12/12/12 9/9/9
f 13/13/13 9/9/9 12/12/12
f 12/12/12 14/14/14 13/13/13
f 10/10/10 15/15/15 16/16/16
f 16/16/16 11/11/11 10/10/10
f 17/17/17 18/18/18 19/19/19
f 19/19/19 20/20/20 17/17/17
f 21/21/21 22/22/22 23/23/23
f 23/23/23 24/24/24 21/21/21
f 20/20/20 19/19/19 25/25/25
f 25/25/25 26/26/26 20/20/20
f 27/27/27 28/28/28 29/29/29
f 29/29/29 30/30/30 27/27/27
f 31/31/31 32/32/32 28/28/28
f 28/28/28 27/27/27 31/31/31
f 30/30/30 29/29/29 33/33/33
f 33/33/33 34/34/34 30/30/30
f 35/35/35 36/36/36 37/37/37
f 37/37/37 38/38/38 35/35/35
f 39/39/39 40/40/40 36/36/36
f 36/36/36 35/35/35 39/39/39
f 38/38/38 37/37/37 41/41/41
f 41/41/41 42/42/42 38/38/38
f 1/1/1 43/43/43 2/2/2
f 5/5/5 43/43/43 1/1/1
f 2/2/2 43/43/43 7/7/7
f 38/38/38 44/44/44 35/35/35
f 35/35/35 44/44/44 39/39/39
f 42/42/42 44/44/44 38/38/38
f 45/45/45 46/46/46 47/47/47
f 47/47/47 48/48/48 45/45/45
f 49/49/49 47/47/47 46/46/46
f 46/46/46 50/50/50 49/49/49
f 50/50/50 51/51/51 52/52/52
f 52/52/52 49/49/49 50/50/50
f 53/53/53 54/54/54 55/55/55
f 55/55/55 56/56/56 53/53/53
f 54/54/54 57/57/57 58/58/58
f 58/58/58 55/55/55 54/54/54
f 59/59/59 58/58/58 57/57/57
f 57/57/57 60/60/60 59/59/59
f 61/61/61 62/62/62 63/63/63
f 63/63/63 64/64/64 61/61/61
f 65/65/65 66/66/66 67/67/67
f 67/67/67 68/68/68 65/65/65
f 69/69/69 70/70/70 71/71/71
f 71/71/71 72/72/72 69/69/69
f 73/73/73 74/74/74 75/75/75
f 75/75/75 76/76/76 73/73/73
f 77/77/77 78/78/78 79/79/79
f 79/79/79 80/80/80 77/77/77
f 81/81/81 82/82/82 83/83/83
f 83/83/83 84/84/84 81/81/81
f 85/85/85 86/86/86 87/87/87
f 87/87/87 88/88/88 85/85/85
f 89/89/89 90/90/90 85/85/85
f 85/85/85 88/88/88 89/89/89
f 91/91/91 92/92/92 93/93/93
f 93/93/93 94/94/94 91/91/91
f 95/95/95 96/96/96 97/97/97
f 97/97/97 98/98/98 95/95/95
f 99/99/99 100/100/100 101/101/101
f 101/101/101 102/102/102 99/99/99
f 103/103/103 104/104/104 105/105/105
f 105/105/105 106/106/106 103/103/103
f 107/107/107 108/108/108 109/109/109
f 109/109/109 110/110/110 107/107/107
f 111/111/111 112/112/112 113/113/113
f 113/113/113 114/114/114 111/111/111
f 115/115/115 116/116/116 117/117/117
f 117/117/117 118/118/118 115/115/115
f 119/119/119 120/120/120 121/121/121
f 121/121/121 122/122/122 119/119/119
f 123/123/123 124/124/124 92/92/92
f 92/92/92 91/91/91 123/123/123
f 125/125/125 126/126/126 96/96/96
f 96/96/96 95/95/95 125/125/125
f 127/127/127 128/128/128 100/100/100
f 100/100/100 99/99/99 127/127/127
f 129/129/129 130/130/130 105/105/105
f 105/105/105 104/104/104 129/129/129
f 108/108/108 131/131/131 132/132/132
f 132/132/132 109/109/109 108/108/108
f 112/112/112 133/133/133 134/134/134
f 134/134/134 113/113/113 112/112/112
f 116/116/116 135/135/135 136/136/136
f 136/136/136 117/117/117 116/116/116
f 119/119/119 137/137/137 138/138/138
f 138/138/138 120/120/120 119/119/119
f 139/139/139 140/140/140 141/141/141
f 140/140/140 139/139/139 142/142/142
f 142/142/142 143/143/143 140/140/140
f 142/142/142 144/144/144 145/145/145
f 145/145/145 143/143/143 142/142/142
f 146/146/146 147/147/147 148/148/148
f 146/146/146 149/149/149 150/150/150
f 150/150/150 147/147/147 146/146/146
f 150/150/150 149/149/149 151/151/151
f 151/151/151 152/152/152 150/150/150
f 151/151/151 153/153/153 154/154/154
f 154/154/154 152/152/152 151/151/151
f 153/153/153 155/155/155 156/156/156
f 156/156/156 154/154/154 153/153/153
f 73/73/73 76/76/76 157/157/157
f 157/157/157 158/158/158 73/73/73
f 159/159/159 69/69/69 72/72/72
f 72/72/72 160/160/160 159/159/159
f 161/161/161 65/65/65 68/68/68
f 68/68/68 162/162/162 161/161/161
f 61/61/61 64/64/64 163/163/163
f 163/163/163 164/164/164 61/61/61
f 89/89/89 88/88/88 165/165/165
f 165/165/165 166/166/166 89/89/89
f 165/165/165 88/88/88 87/87/87
f 87/87/87 167/167/167 165/165/165
f 168/168/168 84/84/84 83/83/83
f 83/83/83 169/169/169 168/168/168
f 170/170/170 80/80/80 79/79/79
f 79/79/79 171/171/171 170/170/170
f 172/172/172 77/77/77 80/80/80
f 80/80/80 173/173/173 172/172/172
f 173/173/173 80/80/80 170/170/170
f 170/170/170 174/174/174 173/173/173
f 141/141/141 140/140/140 156/156/156
f 156/156/156 155/155/155 141/141/141
f 175/175/175 176/176/176 66/66/66
f 66/66/66 65/65/65 175/175/175
f 65/65/65 161/161/161 177/177/177
f 177/177/177 175/175/175 65/65/65
f 148/148/148 147/147/147 145/145/145
f 145/145/145 144/144/144 148/148/148
f 178/178/178 179/179/179 63/63/63
f 63/63/63 62/62/62 178/178/178
f 176/176/176 180/180/180 181/181/181
f 181/181/181 66/66/66 176/176/176
f 182/182/182 183/183/183 184/184/184
f 184/184/184 185/185/185 182/182/182
f 186/186/186 187/187/187 188/188/188
f 188/188/188 189/189/189 186/186/186
f 190/190/190 191/191/191 192/192/192
f 192/192/192 193/193/193 190/190/190
f 81/81/81 194/194/194 195/195/195
f 195/195/195 82/82/82 81/81/81
f 196/196/196 197/197/197 86/86/86
f 86/86/86 85/85/85 196/196/196
f 198/198/198 196/196/196 85/85/85
f 85/85/85 90/90/90 198/198/198
f 199/199/199 200/200/200 201/201/201
f 201/201/201 202/202/202 199/199/199
f 203/203/203 204/204/204 205/205/205
f 205/205/205 206/206/206 203/203/203
f 207/207/207 208/208/208 209/209/209
f 209/209/209 210/210/210 207/207/207
f 207/207/207 210/210/210 211/211/211
f 211/211/211 212/212/212 207/207/207
f 179/179/179 178/178/178 213/213/213
f 213/213/213 214/214/214 179/179/179
f 215/215/215 216/216/216 217/217/217
f 217/217/217 218/218/218 215/215/215
f 219/219/219 195/195/195 194/194/194
f 194/194/194 220/220/220 219/219/219
f 197/197/197 196/196/196 221/221/221
f 221/221/221 222/222/222 197/197/197
f 196/196/196 198/198/198 223/223/223
f 223/223/223 221/221/221 196/196/196
f 218/218/218 217/217/217 224/224/224
f 224/224/224 225/225/225 218/218/218
f 226/226/226 227/227/227 228/228/228
f 228/228/228 229/229/229 226/226/226
f 230/230/230 231/231/231 232/232/232
f 232/232/232 233/233/233 230/230/230
f 234/234/234 235/235/235 236/236/236
f 236/236/236 237/237/237 234/234/234
f 205/205/205 238/238/238 239/239/239
f 239/239/239 206/206/206 205/205/205
f 206/206/206 240/240/240 241/241/241
f 241/241/241 203/203/203 206/206/206
f 239/239/239 242/242/242 240/240/240
f 240/240/240 206/206/206 239/239/239
f 243/243/243 244/244/244 245/245/245
f 245/245/245 246/246/246 243/243/243
f 247/247/247 248/248/248 249/249/249
f 249/249/249 250/250/250 247/247/247
f 251/251/251 252/252/252 253/253/253
f 253/253/253 254/254/254 251/251/251
f 227/227/227 255/255/255 256/256/256
f 256/256/256 228/228/228 227/227/227
f 257/257/257 258/258/258 259/259/259
f 259/259/259 260/260/260 257/257/257
f 261/261/261 262/262/262 263/263/263
f 263/263/263 264/264/264 261/261/261
f 265/265/265 266/266/266 267/267/267
f 267/267/267 268/268/268 265/265/265
f 269/269/269 192/192/192 191/191/191
f 191/191/191 270/270/270 269/269/269
f 66/66/66 181/181/181 271/271/271
f 271/271/271 67/67/67 66/66/66
f 200/200/200 226/226/226 229/229/229
f 229/229/229 201/201/201 200/200/200
f 217/217/217 216/216/216 238/238/238
f 238/238/238 205/205/205 217/217/217
f 205/205/205 204/204/204 224/224/224
f 224/224/224 217/217/217 205/205/205
f 262/262/262 261/261/261 272/272/272
f 272/272/272 273/273/273 262/262/262
f 246/246/246 245/245/245 274/274/274
f 274/274/274 275/275/275 246/246/246
f 276/276/276 195/195/195 277/277/277
f 277/277/277 278/278/278 276/276/276
f 276/276/276 279/279/279 82/82/82
f 82/82/82 195/195/195 276/276/276
f 219/219/219 220/220/220 280/280/280
f 280/280/280 281/281/281 219/219/219
f 282/282/282 222/222/222 221/221/221
f 221/221/221 283/283/283 282/282/282
f 221/221/221 223/223/223 284/284/284
f 284/284/284 283/283/283 221/221/221
f 214/214/214 213/213/213 231/231/231
f 231/231/231 230/230/230 214/214/214
f 285/285/285 286/286/286 287/287/287
f 287/287/287 288/288/288 285/285/285
f 287/287/287 289/289/289 290/290/290
f 290/290/290 288/288/288 287/287/287
f 291/291/291 285/285/285 288/288/288
f 288/288/288 292/292/292 291/291/291
f 288/288/288 290/290/290 293/293/293
f 293/293/293 292/292/292 288/288/288
f 281/281/281 280/280/280 294/294/294
f 294/294/294 295/295/295 281/281/281
f 235/235/235 234/234/234 296/296/296
f 296/296/296 297/297/297 235/235/235
f 297/297/297 296/296/296 298/298/298
f 298/298/298 299/299/299 297/297/297
f 300/300/300 301/301/301 302/302/302
f 302/302/302 303/303/303 300/300/300
f 303/303/303 302/302/302 304/304/304
f 304/304/304 305/305/305 303/303/303
f 306/306/306 256/256/256 255/255/255
f 255/255/255 307/307/307 306/306/306