mtllib 33308774.mtl
o Mesh

v -0.4424799978733063 0.4943940043449402 0.5330349802970886
v -0.30817002058029175 0.3977540135383606 0.5330349802970886
v -0.20547199249267578 0.5031620264053345 0.49001801013946533
v -0.400411993265152 0.6434249877929688 0.49001801013946533
v -0.5854870080947876 0.5130580067634583 0.5727450251579285
v -0.5136970281600952 0.49844300746917725 0.5330349802970886
v -0.5043290257453918 0.6501619815826416 0.49001801013946533
v -0.5999879837036133 0.6766400337219238 0.5590670108795166
v -0.26082098484039307 0.3068609833717346 0.5330349802970886
v -0.12501001358032227 0.34485700726509094 0.49001801013946533
v -0.36347001791000366 0.7742940187454224 0.45224300026893616
v -0.11528998613357544 0.5957239866256714 0.45224300026893616
v 0.013589978218078613 0.728003978729248 0.2159769982099533
v -0.31067001819610596 0.9613139629364014 0.2159769982099533
v -0.6349819898605347 0.8273049592971802 0.5091620087623596
v -0.5141159892082214 0.7836630344390869 0.45224300026893616
v -0.5619959831237793 0.9748640060424805 0.2159769982099533
v -0.7091900110244751 1.0449110269546509 0.2383980005979538
v 0.02024000883102417 0.3015339970588684 0.45224300026893616
v 0.1906599998474121 0.3436239957809448 0.2159769982099533
v -0.31067001819610596 0.9613139629364014 -0.18688400089740753
v 0.013589978218078613 0.728003978729248 -0.18688400089740753
v -0.7091900110244751 1.0449110269546509 -0.20930500328540802
v -0.5619959831237793 0.9748640060424805 -0.18688400089740753
v 0.1906599998474121 0.3436239957809448 -0.18688400089740753
v -0.36347001791000366 0.7742940187454224 -0.4231500029563904
v -0.11528998613357544 0.5957239866256714 -0.4231500029563904
v -0.6349819898605347 0.8273060321807861 -0.48006901144981384
v -0.5141159892082214 0.7836630344390869 -0.4231500029563904
v 0.02024000883102417 0.3015339970588684 -0.4231500029563904
v -0.4424799978733063 0.4943940043449402 -0.503940999507904
v -0.400411993265152 0.6434249877929688 -0.4609239995479584
v -0.20547199249267578 0.5031620264053345 -0.4609239995479584
v -0.30817002058029175 0.3977540135383606 -0.503940999507904
v -0.5854949951171875 0.5131149888038635 -0.5473210215568542
v -0.5999879837036133 0.6766400337219238 -0.5299739837646484
v -0.5043290257453918 0.6501619815826416 -0.4609239995479584
v -0.5136970281600952 0.49844300746917725 -0.503940999507904
v -0.12501001358032227 0.34485700726509094 -0.4609239995479584
v -0.26082098484039307 0.3068609833717346 -0.503940999507904
v -0.48090600967407227 0.35829100012779236 0.5360100269317627
v -0.4054679870605469 0.31355300545692444 0.536325991153717
v -0.5962740182876587 0.35908401012420654 0.5361739993095398
v -0.538083016872406 0.3586840033531189 0.5360910296440125
v -0.35071200132369995 0.2723349928855896 0.5360680222511292
v -0.48090600967407227 0.35829100012779236 -0.5071880221366882
v -0.4054679870605469 0.31355398893356323 -0.5070899724960327
v -0.5962740182876587 0.35908401012420654 -0.5072810053825378
v -0.538083016872406 0.3586840033531189 -0.5072339773178101
v -0.3508780002593994 0.27229398488998413 -0.5069789886474609
v -0.3508780002593994 0.27229398488998413 -0.5069789886474609
v -0.26082098484039307 0.3068609833717346 -0.503940999507904
v -0.26082098484039307 0.3068609833717346 0.5330349802970886
v -0.35071200132369995 0.2723349928855896 0.5360680222511292
v -0.12501001358032227 0.34485700726509094 0.49001801013946533
v -0.12501001358032227 0.34485700726509094 -0.4609239995479584
v 0.02024000883102417 0.3015339970588684 -0.4231500029563904
v 0.1906599998474121 0.3436239957809448 -0.18688400089740753
v 0.1906599998474121 0.3436239957809448 0.2159769982099533
v 0.02024000883102417 0.3015339970588684 0.45224300026893616
v -0.7091900110244751 1.0449110269546509 -0.20930500328540802
v -0.6349819898605347 0.8273060321807861 -0.48006901144981384
v -0.6349819898605347 0.8273049592971802 0.5091620087623596
v -0.7091900110244751 1.0449110269546509 0.2383980005979538
v -0.5999879837036133 0.6766400337219238 -0.5299739837646484
v -0.5854949951171875 0.5131149888038635 -0.5473210215568542
v -0.5854870080947876 0.5130580067634583 0.5727450251579285
v -0.5999879837036133 0.6766400337219238 0.5590670108795166
v -0.5962740182876587 0.35908401012420654 0.5361739993095398
v -0.5962740182876587 0.35908401012420654 -0.5072810053825378
v -0.010280996561050415 -0.41567498445510864 0.5722460150718689
v 0.2885950207710266 -0.3731030225753784 0.442781001329422
v 0.2578529715538025 -0.172868013381958 0.4629189968109131
v -0.04726600646972656 -0.22367697954177856 0.5977630019187927
v -0.17117100954055786 -0.43999797105789185 0.5299779772758484
v -0.2066589891910553 -0.2505800127983093 0.5436260104179382
v -0.4624670147895813 -0.3009589910507202 0.1373780071735382
v -0.40849000215530396 -0.4758809804916382 0.13022300601005554
v -0.2918570041656494 -0.45824700593948364 0.442781001329422
v -0.3408600091934204 -0.27832698822021484 0.4629189968109131
v -0.3408600091934204 -0.27832698822021484 -0.18816299736499786
v -0.2918570041656494 -0.45824700593948364 -0.1823360025882721
v -0.18449300527572632 -0.43555599451065063 -0.26828399300575256
v -0.2918570041656494 -0.45824700593948364 -0.1823360025882721
v -0.3408600091934204 -0.27832698822021484 -0.18816299736499786
v -0.1940630078315735 -0.2509959936141968 -0.2688030004501343
v 0.2578529715538025 -0.172868013381958 -0.18816299736499786
v 0.2885950207710266 -0.3731030225753784 -0.1823360025882721
v -0.010280996561050415 -0.41567498445510864 -0.3118009865283966
v -0.04726600646972656 -0.22367697954177856 -0.3230069875717163
v 0.387939989566803 -0.35548102855682373 0.13022199273109436
v 0.2885950207710266 -0.3731030225753784 -0.1823360025882721
v 0.2578529715538025 -0.172868013381958 -0.18816299736499786
v 0.3679350018501282 -0.14638298749923706 0.1373780071735382
v 0.2885950207710266 -0.3731030225753784 0.442781001329422
v 0.2578529715538025 -0.172868013381958 0.4629189968109131
v -0.24491000175476074 0.27580398321151733 -0.2442930042743683
v -0.40463998913764954 0.15083399415016174 -0.1515430063009262
v -0.4744420051574707 0.25216197967529297 -0.18160200119018555
v -0.3679800033569336 0.3967739939689636 -0.27435100078582764
v -0.40463998913764954 0.15083399415016174 -0.1515430063009262
v -0.47078999876976013 0.09906399250030518 0.07237400114536285
v -0.5349990129470825 0.21619200706481934 0.04231499880552292
v -0.4744420051574707 0.25216197967529297 -0.18160200119018555
v -0.40463998913764954 0.15083399415016174 0.2962909936904907
v -0.4744420051574707 0.25088199973106384 0.26623299717903137
v -0.40463998913764954 0.15083399415016174 0.2962909936904907
v -0.24491000175476074 0.27580398321151733 0.389041006565094
v -0.3679800033569336 0.3967739939689636 0.35898199677467346
v -0.4744420051574707 0.25088199973106384 0.26623299717903137
v -0.08518999814987183 0.4007840156555176 0.2962909936904907
v -0.2860400080680847 0.5888739824295044 0.26623299717903137
v -0.2860400080680847 0.5888739824295044 0.26623299717903137
v -0.08518999814987183 0.4007840156555176 0.2962909936904907
v -0.019030004739761353 0.45255398750305176 0.07237400114536285
v -0.25209999084472656 0.6684439778327942 0.04231499880552292
v -0.08518999814987183 0.4007840156555176 -0.1515430063009262
v -0.2860400080680847 0.5888739824295044 -0.18160200119018555
v -0.08518999814987183 0.4007840156555176 -0.1515430063009262
v -0.2860400080680847 0.5888739824295044 -0.18160200119018555
v -0.0981299877166748 -0.03254598379135132 -0.19486500322818756
v -0.316569983959198 -0.08120602369308472 -0.09755299985408783
v -0.316569983959198 -0.08120602369308472 -0.09755299985408783
v -0.4070500135421753 -0.10136598348617554 0.1373780071735382
v -0.316569983959198 -0.08120602369308472 0.37230899930000305
v -0.316569983959198 -0.08120602369308472 0.37230899930000305
v -0.0981299877166748 -0.03254598379135132 0.4696199893951416
v 0.12031000852584839 0.016113996505737305 0.37230899930000305
v 0.12031000852584839 0.016113996505737305 0.37230899930000305
v 0.2107899785041809 0.03627398610115051 0.1373780071735382
v 0.12031000852584839 0.016113996505737305 -0.09755299985408783
v 0.12031000852584839 0.016113996505737305 -0.09755299985408783
v -0.40226998925209045 -0.10209602117538452 -0.19314299523830414
v -0.316569983959198 -0.08120602369308472 -0.09755299985408783
v -0.2482300102710724 -0.06813597679138184 -0.2723790109157562
v -0.52988201379776 -0.1302260160446167 0.1373780071735382
v -0.4070500135421753 -0.10136598348617554 0.1373780071735382
v -0.40226998925209045 -0.10209602117538452 0.46789801120758057
v -0.316569983959198 -0.08120602369308472 0.37230899930000305
v -0.09417998790740967 -0.034175992012023926 0.6048039793968201
v -0.0981299877166748 -0.03254598379135132 0.4696199893951416
v -0.2591499984264374 -0.06813597679138184 0.5471900105476379
v 0.21390002965927124 0.03374400734901428 0.46789801120758057
v 0.12031000852584839 0.016113996505737305 0.37230899930000305
v 0.34150999784469604 0.06187400221824646 0.1373780071735382
v 0.2107899785041809 0.03627398610115051 0.1373780071735382
v 0.21390002965927124 0.03374400734901428 -0.19314299523830414
v 0.12031000852584839 0.016113996505737305 -0.09755299985408783
v -0.09417998790740967 -0.034175992012023926 -0.3300490081310272
v -0.0981299877166748 -0.03254598379135132 -0.19486500322818756
v -0.40226998925209045 -0.10209602117538452 -0.19314299523830414
v -0.52988201379776 -0.1302260160446167 0.1373780071735382
v -0.40226998925209045 -0.10209602117538452 0.46789801120758057
v -0.09417998790740967 -0.034175992012023926 0.6048039793968201
v -0.2591499984264374 -0.06813597679138184 0.5471900105476379
v 0.21390002965927124 0.03374400734901428 0.46789801120758057
v 0.21390002965927124 0.03374400734901428 0.46789801120758057
v 0.34150999784469604 0.06187400221824646 0.1373780071735382
v 0.21390002965927124 0.03374400734901428 -0.19314299523830414
v 0.21390002965927124 0.03374400734901428 -0.19314299523830414
v -0.09417998790740967 -0.034175992012023926 -0.3300490081310272
v -0.2482300102710724 -0.06813597679138184 -0.2723790109157562
v -0.40226998925209045 -0.10209602117538452 -0.19314299523830414
v -0.3408600091934204 -0.27832698822021484 0.4629189968109131
v -0.2918570041656494 -0.45824700593948364 0.442781001329422
v -0.40226998925209045 -0.10209602117538452 0.46789801120758057
v -0.11468100547790527 -0.7740659713745117 0.512919008731842
v 0.3535889983177185 -0.8778259754180908 0.41499200463294983
v -0.3330000042915344 -0.6232160329818726 0.35039201378822327
v -0.25169098377227783 -0.694066047668457 0.4524199962615967
v -0.3999510109424591 -0.5662959814071655 0.10331600159406662
v -0.3330000042915344 -0.6232160329818726 0.35039201378822327
v -0.33187001943588257 -0.5522259473800659 -0.2879849970340729
v -0.23475998640060425 -0.6334359645843506 -0.3720409870147705
v -0.33187001943588257 -0.5522259473800659 -0.2879849970340729
v 0.3645489811897278 -0.8778259754180908 -0.21531300246715546
v -0.04549100995063782 -0.7740659713745117 -0.3584040105342865
v 0.42513900995254517 -0.8935760259628296 0.10644099861383438
v 0.3645489811897278 -0.8778259754180908 -0.21531300246715546
v 0.3535889983177185 -0.8778259754180908 0.41499200463294983
v -0.2783510088920593 -0.7338060140609741 0.21437400579452515
v -0.17983099818229675 -0.8168859481811523 0.2903900146484375
v -0.29528099298477173 -0.7744660377502441 -0.17275899648666382
v -0.2020910084247589 -0.8317159414291382 -0.18308499455451965
v -0.19861099123954773 -0.8358759880065918 0.03361399844288826
v -0.33448100090026855 -0.6840560436248779 0.04887299984693527
v 0.04316902160644531 -1.4098960161209106 0.03072899952530861
v 0.024978995323181152 -1.3245160579681396 -0.27773401141166687
v 0.08189898729324341 -1.3352659940719604 -0.2669140100479126
v 0.12195897102355957 -1.424765944480896 0.029301000759005547
v 0.03896898031234741 -1.3660659790039062 0.2687990069389343
v -0.009250998497009277 -1.3524260520935059 0.2935979962348938
v 0.1309790015220642 -1.0054759979248047 0.4765529930591583
v 0.34255897998809814 -1.074686050415039 0.39474600553512573
v 0.025119006633758545 -1.0737260580062866 0.3353480100631714
v -0.09143099188804626 -0.9080560207366943 0.31710800528526306
v -0.08483099937438965 -0.9530260562896729 0.03830299898982048
v 0.055258989334106445 -1.107475996017456 0.04733999818563461
v 0.1487089991569519 -0.9570959806442261 -0.3291819989681244
v 0.3638889789581299 -1.0250760316848755 -0.23689599335193634
v 0.40560901165008545 -1.094346046447754 0.08381099998950958
v 0.3638889789581299 -1.0250760316848755 -0.23689599335193634
v 0.34255897998809814 -1.074686050415039 0.39474600553512573
v -0.07785099744796753 -0.9080359935760498 -0.19685199856758118
v 0.04976898431777954 -1.0445959568023682 -0.2650260031223297
v -0.09143099188804626 -0.9080560207366943 0.31710800528526306
v 0.025119006633758545 -1.0737260580062866 0.3353480100631714
v 0.24263900518417358 -1.2687959671020508 0.3747360110282898
v 0.13849902153015137 -1.1524059772491455 0.4364109933376312
v -0.009250998497009277 -1.3524260520935059 0.2935979962348938
v 0.03896898031234741 -1.3660659790039062 0.2687990069389343
v 0.04976898431777954 -1.0445959568023682 -0.2650260031223297
v -0.07785099744796753 -0.9080359935760498 -0.19685199856758118
v -0.17983099818229675 -0.8168859481811523 0.2903900146484375
v -0.2783510088920593 -0.7338060140609741 0.21437400579452515
v -0.36052101850509644 -0.8124459981918335 -0.2804790139198303
v -0.40522098541259766 -0.7769759893417358 -0.38587599992752075
v -0.3508300185203552 -0.8366559743881226 -0.42668500542640686
v -0.31474000215530396 -0.8650959730148315 -0.2641969919204712
v 0.3250889778137207 -1.2913260459899902 0.062049999833106995
v 0.24263900518417358 -1.2687959671020508 0.3747360110282898
v 0.03896898031234741 -1.3660659790039062 0.2687990069389343
v 0.12195897102355957 -1.424765944480896 0.029301000759005547
v 0.08189898729324341 -1.3352659940719604 -0.2669140100479126
v 0.2676190137863159 -1.2252360582351685 -0.25788798928260803
v -0.0008209943771362305 -1.2122859954833984 0.30378198623657227
v -0.21838098764419556 -0.8950560092926025 -0.28001898527145386
v -0.25213098526000977 -0.8759959936141968 -0.40087801218032837
v -0.40522098541259766 -0.7769759893417358 -0.38587599992752075
v -0.3508300185203552 -0.8366559743881226 -0.42668500542640686
v -0.21838098764419556 -0.8950560092926025 -0.28001898527145386
v -0.25213098526000977 -0.8759959936141968 -0.40087801218032837
v 0.2676190137863159 -1.2252360582351685 -0.25788798928260803
v 0.10283899307250977 -1.1714659929275513 -0.3055419921875
v -0.0008209943771362305 -1.2122859954833984 0.30378198623657227
v 0.03664898872375488 -1.2335460186004639 0.04121600091457367
v 0.021359026432037354 -1.1640959978103638 -0.2512100040912628
v -0.0416409969329834 -1.304826021194458 0.2751449942588806
v -0.011381000280380249 -1.3662559986114502 0.03280799835920334
v -0.023360997438430786 -1.2798060178756714 -0.23865999281406403
v 0.08189898729324341 -1.3352659940719604 -0.2669140100479126
v 0.024978995323181152 -1.3245160579681396 -0.27773401141166687
v 0.021359026432037354 -1.1640959978103638 -0.2512100040912628
v -0.023360997438430786 -1.2798060178756714 -0.23865999281406403
v -0.023360997438430786 -1.2798060178756714 -0.23865999281406403
v -0.011381000280380249 -1.3662559986114502 0.03280799835920334
v -0.0416409969329834 -1.304826021194458 0.2751449942588806
v -0.0416409969329834 -1.304826021194458 0.2751449942588806
v -0.6188639998435974 0.1642340123653412 -0.5118169784545898
v -0.6188639998435974 0.1642340123653412 0.540910005569458
v -0.6188639998435974 0.1642340123653412 -0.5118169784545898
v -0.6188639998435974 0.1642340123653412 0.540910005569458
v -0.6188639998435974 0.1642340123653412 -0.5118169784545898
v -0.6188639998435974 0.1642340123653412 0.540910005569458
v -0.5136970281600952 0.49844300746917725 -0.503940999507904
v -0.5043290257453918 0.6501619815826416 -0.4609239995479584
v -0.5141159892082214 0.7836630344390869 -0.4231500029563904
v -0.5619959831237793 0.9748640060424805 -0.18688400089740753
v -0.5619959831237793 0.9748640060424805 0.2159769982099533
v -0.5141159892082214 0.7836630344390869 0.45224300026893616
v -0.5043290257453918 0.6501619815826416 0.49001801013946533
v -0.5136970281600952 0.49844300746917725 0.5330349802970886
v -0.1615929901599884 0.8440389633178711 -0.1883620023727417
v -0.10285699367523193 0.9426109790802002 -0.48780301213264465
v -0.34353601932525635 0.853003978729248 -0.29577401280403137
v -0.34353601932525635 0.853003978729248 -0.29577401280403137
v -0.10285699367523193 0.9426109790802002 -0.48780301213264465
v -0.2825489938259125 0.6878049969673157 -0.41286700963974
v -0.2825489938259125 0.6878049969673157 -0.41286700963974
v -0.10285699367523193 0.9426109790802002 -0.48780301213264465
v -0.10060599446296692 0.6788399815559387 -0.3054549992084503
v -0.10060599446296692 0.6788399815559387 -0.3054549992084503
v -0.10285699367523193 0.9426109790802002 -0.48780301213264465
v -0.1615929901599884 0.8440389633178711 -0.1883620023727417
v -0.17267298698425293 0.8410800099372864 0.15680700540542603
v 0.0009840130805969238 1.0653870105743408 0.007271999958902597
v -0.2909129858016968 0.9326210021972656 0.007271999958902597
v -0.2909129858016968 0.9326210021972656 0.007271999958902597
v 0.0009840130805969238 1.0653870105743408 0.007271999958902597
v -0.17267298698425293 0.8410800099372864 -0.14226199686527252
v -0.17267298698425293 0.8410800099372864 -0.14226199686527252
v 0.0009840130805969238 1.0653870105743408 0.007271999958902597
v -0.05443298816680908 0.7495390176773071 0.007271999958902597
v -0.05443298816680908 0.7495390176773071 0.007271999958902597
v 0.0009840130805969238 1.0653870105743408 0.007271999958902597
v -0.17267298698425293 0.8410800099372864 0.15680700540542603
v -0.3017849922180176 0.6743109822273254 0.4295639991760254
v -0.1150830090045929 0.9154679775238037 0.528643012046814
v -0.35440701246261597 0.8506090044975281 0.325300008058548
v -0.35440701246261597 0.8506090044975281 0.325300008058548
v -0.1150830090045929 0.9154679775238037 0.528643012046814
v -0.1705479919910431 0.8438259959220886 0.22103600203990936
v -0.1705479919910431 0.8438259959220886 0.22103600203990936
v -0.1150830090045929 0.9154679775238037 0.528643012046814
v -0.11792600154876709 0.6675270199775696 0.325300008058548
v -0.11792600154876709 0.6675270199775696 0.325300008058548
v -0.1150830090045929 0.9154679775238037 0.528643012046814
v -0.3017849922180176 0.6743109822273254 0.4295639991760254
v 0.3853449821472168 -0.9071810245513916 0.007094999775290489
v 0.5356060266494751 -0.9071810245513916 -0.10844500362873077
v 0.3703569769859314 -0.8187930583953857 -0.0800120010972023
v 0.3703569769859314 -0.8187930583953857 -0.0800120010972023
v 0.5356060266494751 -0.9071810245513916 -0.10844500362873077
v 0.3553699851036072 -0.9071810245513916 -0.16711999475955963
v 0.3553699851036072 -0.9071810245513916 -0.16711999475955963
v 0.5356060266494751 -0.9071810245513916 -0.10844500362873077
v 0.3703569769859314 -0.9955699443817139 -0.08001299947500229
v 0.3703569769859314 -0.9955699443817139 -0.08001299947500229
v 0.5356060266494751 -0.9071810245513916 -0.10844500362873077
v 0.3853449821472168 -0.9071810245513916 0.007094999775290489
v 0.38804900646209717 -0.9256889820098877 0.2086160033941269
v 0.562222957611084 -0.926692008972168 0.12859800457954407
v 0.3927140235900879 -0.8376189470291138 0.12003500014543533
v 0.3927140235900879 -0.8376189470291138 0.12003500014543533
v 0.562222957611084 -0.926692008972168 0.12859800457954407
v 0.3966370224952698 -0.9263240098953247 0.0320499986410141
v 0.3966370224952698 -0.9263240098953247 0.0320499986410141
v 0.562222957611084 -0.926692008972168 0.12859800457954407
v 0.39197099208831787 -1.0143929719924927 0.12063299864530563
v 0.39197099208831787 -1.0143929719924927 0.12063299864530563
v 0.562222957611084 -0.926692008972168 0.12859800457954407
v 0.38804900646209717 -0.9256889820098877 0.2086160033941269
v 0.34882402420043945 -0.9249049425125122 0.3913860023021698
v 0.5321129560470581 -0.9258699417114258 0.3338319957256317
v 0.36448097229003906 -0.8368769884109497 0.30403101444244385
v 0.36448097229003906 -0.8368769884109497 0.30403101444244385
v 0.5321129560470581 -0.9258699417114258 0.3338319957256317
v 0.3793960213661194 -0.9256230592727661 0.2172739952802658
v 0.3793960213661194 -0.9256230592727661 0.2172739952802658
v 0.5321129560470581 -0.9258699417114258 0.3338319957256317
v 0.3637380003929138 -1.0136510133743286 0.30463001132011414
v 0.3637380003929138 -1.0136510133743286 0.30463001132011414
v 0.5321129560470581 -0.9258699417114258 0.3338319957256317
v 0.34882402420043945 -0.9249049425125122 0.3913860023021698

vn 0.05837300047278404 0.15709899365901947 0.9858559966087341
vn 0.13326199352741241 0.11245500296354294 0.9846799969673157
vn 0.21478599309921265 0.18230900168418884 0.9594950079917908
vn 0.09178700298070908 0.25225499272346497 0.9632980227470398
vn 0.5085020065307617 -0.003971999976783991 0.8610510230064392
vn 0.43528300523757935 0.010935000143945217 0.9002270102500916
vn 0.5932790040969849 0.1996690034866333 0.7798410058021545
vn 0.5814520120620728 0.23221899569034576 0.7797359824180603
vn 0.15884500741958618 0.08274699747562408 0.9838299751281738
vn 0.2743059992790222 0.13335399329662323 0.9523509740829468
vn 0.19843299686908722 0.5467010140419006 0.8134750127792358
vn 0.4622249901294708 0.3771609961986542 0.8025569915771484
vn 0.7313539981842041 0.6077600121498108 0.3094319999217987
vn 0.3131040036678314 0.8946220278739929 0.3187749981880188
vn 0.49941501021385193 0.5962820053100586 0.6285160183906555
vn 0.5385990142822266 0.5251780152320862 0.658860981464386
vn 0.4541049897670746 0.8508039712905884 0.2644270062446594
vn 0.4465790092945099 0.8640499711036682 0.23234599828720093
vn 0.6065829992294312 0.27944499254226685 0.7442899942398071
vn 0.8668670058250427 0.3993389904499054 0.29844599962234497
vn 0.3131040036678314 0.8946220278739929 -0.3187749981880188
vn 0.7313539981842041 0.6077600121498108 -0.3094319999217987
vn 0.4465790092945099 0.8640509843826294 -0.23234499990940094
vn 0.45410600304603577 0.8508039712905884 -0.26442500948905945
vn 0.8668670058250427 0.3993389904499054 -0.29844599962234497
vn 0.19843199849128723 0.5467000007629395 -0.813476026058197
vn 0.46222299337387085 0.3771600127220154 -0.8025590181350708
vn 0.4994179904460907 0.5962820053100586 -0.6285139918327332
vn 0.5386040210723877 0.5251759886741638 -0.6588600277900696
vn 0.6065809726715088 0.27944499254226685 -0.7442910075187683
vn 0.0586250014603138 0.15783600509166718 -0.9857230186462402
vn 0.0917849987745285 0.2522520124912262 -0.9632989764213562
vn 0.21478299796581268 0.18230700492858887 -0.959496021270752
vn 0.1334570050239563 0.11236599832773209 -0.9846640229225159
vn 0.5331119894981384 -0.009700999595224857 -0.8459889888763428
vn 0.5818700194358826 0.23908400535583496 -0.7773460149765015
vn 0.5980979800224304 0.20486100018024445 -0.7747979760169983
vn 0.4644879996776581 0.0011439999798312783 -0.885578989982605
vn 0.27430200576782227 0.13335299491882324 -0.9523530006408691
vn 0.15885299444198608 0.08275199681520462 -0.9838280081748962
vn 0.006258000154048204 0.02146800048649311 0.999750018119812
vn 0.012745000422000885 0.01882299967110157 0.9997419714927673
vn 0.07270599901676178 -0.019284000620245934 0.9971669912338257
vn 0.0015780000248923898 0.02285199984908104 0.9997379779815674
vn 0.019404999911785126 0.014957999810576439 0.9997000098228455
vn 0.0074339997954666615 0.02058899961411953 -0.9997599720954895
vn 0.013419000431895256 0.017550000920891762 -0.9997559785842896
vn 0.07846499979496002 -0.0227269995957613 -0.9966580271720886
vn 0.0009660000214353204 0.023274999111890793 -0.9997289776802063
vn 0.018272999674081802 0.01598300039768219 -0.9997050166130066
vn 0.36629098653793335 -0.9304999709129333 -3.000000106112566e-06
vn 0.31929099559783936 -0.9476569890975952 -0.0
vn 0.31940099596977234 -0.9476199746131897 -1.1000000085914508e-05
vn 0.36635100841522217 -0.9304770231246948 -2.2000000171829015e-05
vn 0.04031199961900711 -0.9991869926452637 -0.0
vn 0.04031199961900711 -0.9991869926452637 -0.0
vn -0.153096005320549 -0.9882109761238098 -0.0
vn 0.2397730052471161 -0.9708290100097656 -0.0
vn 0.2397730052471161 -0.9708290100097656 -0.0
vn -0.153096005320549 -0.9882109761238098 -0.0
vn -0.946478009223938 -0.3227680027484894 -0.0
vn -0.9675289988517761 -0.25276100635528564 -0.0
vn -0.9675289988517761 -0.25276198983192444 -0.0
vn -0.946478009223938 -0.3227680027484894 -0.0
vn -0.9890159964561462 -0.14780600368976593 9.999999974752427e-07
vn -0.999908983707428 -0.013495000079274178 1.9999999949504854e-06
vn -0.9999099969863892 -0.013431999832391739 4.999999873689376e-06
vn -0.9889469742774963 -0.14826799929141998 -0.0
vn -0.9958369731903076 0.09115500003099442 4.999999873689376e-06
vn -0.9958530068397522 0.09098000079393387 -0.0
vn 0.1428609937429428 -0.1585340052843094 0.976963996887207
vn 0.7239800095558167 0.013357999734580517 0.6896920204162598
vn 0.7266629934310913 0.08909899741411209 0.6811919808387756
vn 0.06778500229120255 -0.060479000210762024 0.995864987373352
vn -0.39468398690223694 -0.13335399329662323 0.9090880155563354
vn -0.39313000440597534 -0.1355780065059662 0.9094319939613342
vn -0.9448509812355042 -0.3274810016155243 0.0034660000819712877
vn -0.9848170280456543 -0.17359299957752228 0.0006590000120922923
vn -0.7632049918174744 -0.16115200519561768 0.6257380247116089
vn -0.7205460071563721 -0.25066301226615906 0.6465150117874146
vn -0.7259389758110046 -0.2204499989748001 -0.6514710187911987
vn -0.8491569757461548 0.22588999569416046 -0.4773940145969391
vn -0.396043986082077 0.2748050093650818 -0.8761460185050964
vn -0.8491569757461548 0.22588999569416046 -0.4773940145969391
vn -0.7259389758110046 -0.2204499989748001 -0.6514710187911987
vn -0.38207799196243286 -0.09159400314092636 -0.9195799827575684
vn 0.7300670146942139 0.1111690029501915 -0.6742730140686035
vn 0.7436419725418091 0.10440800338983536 -0.6603749990463257
vn 0.1391720026731491 0.09418399631977081 -0.9857789874076843
vn 0.04490099847316742 -0.03756299987435341 -0.9982849955558777
vn 0.9954320192337036 0.09491600096225739 -0.010311000049114227
vn 0.7436419725418091 0.10440800338983536 -0.6603749990463257
vn 0.7300670146942139 0.1111690029501915 -0.6742730140686035
vn 0.991910994052887 0.12693600356578827 0.00019700000120792538
vn 0.7239800095558167 0.013357999734580517 0.6896920204162598
vn 0.7266629934310913 0.08909899741411209 0.6811919808387756
vn 0.13354699313640594 -0.10143399983644485 -0.985837996006012
vn -0.5667499899864197 -0.46167001128196716 -0.6823890209197998
vn -0.46172600984573364 -0.5340679883956909 -0.7082239985466003
vn 0.15088599920272827 -0.05632900074124336 -0.9869449734687805
vn -0.5667499899864197 -0.46167001128196716 -0.6823890209197998
vn -0.9124889969825745 -0.4081690013408661 -0.027614999562501907
vn -0.8586369752883911 -0.5083879828453064 -0.06545300036668777
vn -0.46172600984573364 -0.5340679883956909 -0.7082239985466003
vn -0.7344930171966553 -0.18693199753761292 0.6523630023002625
vn -0.7316840291023254 -0.30787500739097595 0.6081539988517761
vn -0.7344930171966553 -0.18693199753761292 0.6523630023002625
vn -0.07180800288915634 0.1988999992609024 0.9773859977722168
vn -0.0902710035443306 0.16200099885463715 0.982653021812439
vn -0.7316840291023254 -0.30787500739097595 0.6081539988517761
vn 0.5361989736557007 0.5279669761657715 0.6585909724235535
vn 0.48367398977279663 0.615900993347168 0.6218730211257935
vn 0.48367398977279663 0.615900993347168 0.6218730211257935
vn 0.5361989736557007 0.5279669761657715 0.6585909724235535
vn 0.7891730070114136 0.6141449809074402 -0.0056130001321434975
vn 0.683122992515564 0.7300099730491638 -0.02071000076830387
vn 0.6440730094909668 0.3910199999809265 -0.6574749946594238
vn 0.5803580284118652 0.5195059776306152 -0.6271349787712097
vn 0.6440730094909668 0.3910199999809265 -0.6574749946594238
vn 0.5803580284118652 0.5195059776306152 -0.6271349787712097
vn -0.11622799932956696 0.7586879730224609 -0.6410019993782043
vn -0.6515499949455261 0.5941720008850098 -0.4716370105743408
vn -0.6515499949455261 0.5941720008850098 -0.4716370105743408
vn -0.7910150289535522 0.61074298620224 0.035891998559236526
vn -0.5628259778022766 0.7175769805908203 0.4102559983730316
vn -0.5628259778022766 0.7175769805908203 0.4102559983730316
vn -0.158502995967865 0.8506289720535278 0.5013059973716736
vn 0.15099599957466125 0.9306619763374329 0.3332679867744446
vn 0.15099599957466125 0.9306619763374329 0.3332679867744446
vn 0.30432799458503723 0.9524629712104797 0.01409399975091219
vn 0.23440000414848328 0.9030799865722656 -0.3598659932613373
vn 0.23440000414848328 0.9030799865722656 -0.3598659932613373
vn -0.7188140153884888 0.4438830018043518 -0.5350459814071655
vn -0.6515499949455261 0.5941720008850098 -0.4716370105743408
vn -0.43898698687553406 0.5880159735679626 -0.6793580055236816
vn -0.926173985004425 0.3770970106124878 0.0
vn -0.7910150289535522 0.61074298620224 0.035891998559236526
vn -0.7280939817428589 0.44181400537490845 0.5241000056266785
vn -0.5628259778022766 0.7175769805908203 0.4102559983730316
vn -0.10249699652194977 0.6058260202407837 0.788968026638031
vn -0.158502995967865 0.8506289720535278 0.5013059973716736
vn -0.4425719976425171 0.589847981929779 0.675432026386261
vn 0.4293150007724762 0.7208859920501709 0.5440689921379089
vn 0.15099599957466125 0.9306619763374329 0.3332679867744446
vn 0.660398006439209 0.7509160041809082 9.999999974752427e-07
vn 0.30432799458503723 0.9524629712104797 0.01409399975091219
vn 0.4289669990539551 0.7210119962692261 -0.5441769957542419
vn 0.23440000414848328 0.9030799865722656 -0.3598659932613373
vn -0.11393900215625763 0.6029989719390869 -0.789563000202179
vn -0.11622799932956696 0.7586879730224609 -0.6410019993782043
vn -0.7188140153884888 0.4438830018043518 -0.5350459814071655
vn -0.926173985004425 0.3770970106124878 0.0
vn -0.7280939817428589 0.44181400537490845 0.5241000056266785
vn -0.10249699652194977 0.6058260202407837 0.788968026638031
vn -0.4425719976425171 0.589847981929779 0.675432026386261
vn 0.4293150007724762 0.7208859920501709 0.5440689921379089
vn 0.4293150007724762 0.7208859920501709 0.5440689921379089
vn 0.660398006439209 0.7509160041809082 9.999999974752427e-07
vn 0.4289669990539551 0.7210119962692261 -0.5441769957542419
vn 0.4289669990539551 0.7210119962692261 -0.5441769957542419
vn -0.11393900215625763 0.6029989719390869 -0.789563000202179
vn -0.43898698687553406 0.5880159735679626 -0.6793580055236816
vn -0.7188140153884888 0.4438830018043518 -0.5350459814071655
vn -0.7205460071563721 -0.25066301226615906 0.6465150117874146
vn -0.7632049918174744 -0.16115200519561768 0.6257380247116089
vn -0.7280939817428589 0.44181400537490845 0.5241000056266785
vn -0.3236269950866699 -0.4286690056324005 0.8435099720954895
vn 0.7205790281295776 -0.015464999713003635 0.6932010054588318
vn -0.8951650261878967 -0.3003160059452057 0.3293769955635071
vn -0.6917449831962585 -0.42374199628829956 0.5847489833831787
vn -0.9700430035591125 -0.2392829954624176 -0.04196399822831154
vn -0.8951650261878967 -0.3003160059452057 0.3293769955635071
vn -0.786683976650238 0.4179669916629791 -0.45434799790382385
vn -0.08438900113105774 0.32032400369644165 -0.9435420036315918
vn -0.786683976650238 0.4179669916629791 -0.45434799790382385
vn 0.7963770031929016 0.12129499763250351 -0.5925120115280151
vn 0.18383300304412842 -0.21740500628948212 -0.9586139917373657
vn 0.9999470114707947 -0.0003800000122282654 0.010250000283122063
vn 0.7963770031929016 0.12129499763250351 -0.5925120115280151
vn 0.7205790281295776 -0.015464999713003635 0.6932010054588318
vn -0.7618550062179565 -0.6362199783325195 0.12165699899196625
vn -0.7031720280647278 -0.683709979057312 0.19516700506210327
vn -0.8246380090713501 -0.47529301047325134 0.3067060112953186
vn -0.44322800636291504 -0.8383820056915283 0.3172779977321625
vn -0.6922619938850403 -0.7204390168190002 0.04171599820256233
vn -0.8518900275230408 -0.5235739946365356 0.01235199999064207
vn -0.39278700947761536 -0.9178060293197632 -0.05788600072264671
vn -0.4161570072174072 -0.5463190078735352 -0.7268760204315186
vn 0.17691099643707275 -0.7358890175819397 -0.653581976890564
vn 0.22267000377178192 -0.9748460054397583 -0.00964100006967783
vn 0.07535000145435333 -0.9350090026855469 0.34652799367904663
vn -0.5155559778213501 -0.6545619964599609 0.5529469847679138
vn -0.13086000084877014 -0.23502099514007568 0.9631410241127014
vn 0.7338389754295349 -0.262160986661911 0.6266989707946777
vn -0.8603469729423523 -0.2687149941921234 0.43312299251556396
vn -0.7307369709014893 -0.6254780292510986 0.273497998714447
vn -0.7377539873123169 -0.6735439896583557 -0.04535900056362152
vn -0.9710230231285095 -0.233241006731987 -0.05208100005984306
vn 0.045712001621723175 -0.01659099943935871 -0.9988170266151428
vn 0.7986230254173279 -0.10537800192832947 -0.5925340056419373
vn 0.9663249850273132 -0.25703999400138855 0.012078999541699886
vn 0.7986230254173279 -0.10537800192832947 -0.5925340056419373
vn 0.7338389754295349 -0.262160986661911 0.6266989707946777
vn -0.523635983467102 -0.7922710180282593 -0.3132280111312866
vn -0.7780439853668213 -0.10302700102329254 -0.619704008102417
vn -0.7307369709014893 -0.6254780292510986 0.273497998714447
vn -0.8603469729423523 -0.2687149941921234 0.43312299251556396
vn 0.44452500343322754 -0.6502460241317749 0.6160989999771118
vn -0.21696500480175018 -0.28547099232673645 0.9335049986839294
vn -0.5155559778213501 -0.6545619964599609 0.5529469847679138
vn 0.07535000145435333 -0.9350090026855469 0.34652799367904663
vn -0.7780439853668213 -0.10302700102329254 -0.619704008102417
vn -0.523635983467102 -0.7922710180282593 -0.3132280111312866
vn -0.7031720280647278 -0.683709979057312 0.19516700506210327
vn -0.7618550062179565 -0.6362199783325195 0.12165699899196625
vn -0.888047993183136 -0.27403900027275085 0.3691520094871521
vn -0.9275799989700317 -0.0060720001347362995 -0.37357500195503235
vn -0.4225359857082367 -0.4468269944190979 -0.78854900598526
vn -0.5124490261077881 -0.78746098279953 0.3424929976463318
vn 0.7605469822883606 -0.6491649746894836 0.012357999570667744
vn 0.44452500343322754 -0.6502460241317749 0.6160989999771118
vn 0.07535000145435333 -0.9350090026855469 0.34652799367904663
vn 0.22267000377178192 -0.9748460054397583 -0.00964100006967783
vn 0.17691099643707275 -0.7358890175819397 -0.653581976890564
vn 0.5942180156707764 -0.4691309928894043 -0.653315007686615
vn -0.9190269708633423 0.1515679955482483 0.36389198899269104
vn -0.024872999638319016 -0.9984170198440552 0.05043900012969971
vn 0.10010100156068802 -0.7090470194816589 -0.6980209946632385
vn -0.9275799989700317 -0.0060720001347362995 -0.37357500195503235
vn -0.4225359857082367 -0.4468269944190979 -0.78854900598526
vn -0.024872999638319016 -0.9984170198440552 0.05043900012969971
vn 0.10010100156068802 -0.7090470194816589 -0.6980209946632385
vn 0.5942180156707764 -0.4691309928894043 -0.653315007686615
vn -0.15783999860286713 -0.08309700340032578 -0.9839619994163513
vn -0.9190269708633423 0.1515679955482483 0.36389198899269104
vn -0.9644209742546082 0.2627989947795868 -0.02878200076520443
vn -0.8744869828224182 0.21186000108718872 -0.4363340139389038
vn -0.9485419988632202 -0.02577199973165989 0.3155989944934845
vn -0.9308000206947327 -0.358568012714386 -0.07099799811840057
vn -0.9355520009994507 -0.07593400031328201 -0.3449310064315796
vn 0.17691099643707275 -0.7358890175819397 -0.653581976890564
vn -0.4161570072174072 -0.5463190078735352 -0.7268760204315186
vn -0.8744869828224182 0.21186000108718872 -0.4363340139389038
vn -0.9355520009994507 -0.07593400031328201 -0.3449310064315796
vn -0.9355520009994507 -0.07593400031328201 -0.3449310064315796
vn -0.9308000206947327 -0.358568012714386 -0.07099799811840057
vn -0.9485419988632202 -0.02577199973165989 0.3155989944934845
vn -0.9485419988632202 -0.02577199973165989 0.3155989944934845
vn 0.006566000171005726 0.018936000764369965 -0.9997990131378174
vn -0.6031829714775085 -0.7976030111312866 -1.8999999156221747e-05
vn -0.6035950183868408 -0.7972909808158875 -0.0
vn 0.006006999872624874 0.020089000463485718 0.999779999256134
vn -0.6035950183868408 -0.7972909808158875 -0.0
vn -0.6031829714775085 -0.7976030111312866 -1.8999999156221747e-05
vn 0.00815299991518259 0.14419600367546082 -0.989516019821167
vn 0.017413999885320663 0.2729569971561432 -0.9618690013885498
vn 0.03453899919986725 0.5789399743080139 -0.8146380186080933
vn 0.051203999668359756 0.9497269988059998 -0.30886200070381165
vn 0.051203999668359756 0.9497269988059998 0.3088630139827728
vn 0.03453899919986725 0.5789420008659363 0.8146370053291321
vn 0.017413999885320663 0.27295899391174316 0.9618679881095886
vn 0.008183999918401241 0.14320699870586395 0.9896590113639832
vn -0.12344799935817719 0.9495310187339783 0.28835898637771606
vn -0.12344799935817719 0.9495310187339783 0.28835898637771606
vn -0.12344799935817719 0.9495310187339783 0.28835898637771606
vn -0.6593980193138123 0.2572680115699768 -0.706404983997345
vn -0.6593980193138123 0.2572680115699768 -0.706404983997345
vn -0.6593980193138123 0.2572680115699768 -0.706404983997345
vn 0.41700899600982666 -0.5144420266151428 -0.7493020296096802
vn 0.41700899600982666 -0.5144420266151428 -0.7493020296096802
vn 0.41700899600982666 -0.5144420266151428 -0.7493020296096802
vn 0.9529569745063782 0.177823007106781 0.24546200037002563
vn 0.9529569745063782 0.177823007106781 0.24546200037002563
vn 0.9529569745063782 0.177823007106781 0.24546200037002563
vn -0.31010299921035767 0.6817860007286072 0.6625739932060242
vn -0.31010299921035767 0.6817860007286072 0.6625739932060242
vn -0.31010299921035767 0.6817860007286072 0.6625739932060242
vn -0.3101010024547577 0.681784987449646 -0.6625760197639465
vn -0.3101010024547577 0.681784987449646 -0.6625760197639465
vn -0.3101010024547577 0.681784987449646 -0.6625760197639465
vn 0.7377259731292725 -0.12943699955940247 -0.6625750064849854
vn 0.7377259731292725 -0.12943699955940247 -0.6625750064849854
vn 0.7377259731292725 -0.12943699955940247 -0.6625750064849854
vn 0.7377279996871948 -0.12943799793720245 0.662572979927063
vn 0.7377279996871948 -0.12943799793720245 0.662572979927063
vn 0.7377279996871948 -0.12943799793720245 0.662572979927063
vn -0.6655830144882202 0.22262200713157654 0.7123479843139648
vn -0.6655830144882202 0.22262200713157654 0.7123479843139648
vn -0.6655830144882202 0.22262200713157654 0.7123479843139648
vn -0.08408399671316147 0.9737280011177063 -0.2116200029850006
vn -0.08408399671316147 0.9737280011177063 -0.2116200029850006
vn -0.08408399671316147 0.9737280011177063 -0.2116200029850006
vn 0.9637470245361328 0.16250599920749664 -0.21162199974060059
vn 0.9637470245361328 0.16250599920749664 -0.21162199974060059
vn 0.9637470245361328 0.16250599920749664 -0.21162199974060059
vn 0.3822450041770935 -0.5885990262031555 0.7123479843139648
vn 0.3822450041770935 -0.5885990262031555 0.7123479843139648
vn 0.3822450041770935 -0.5885990262031555 0.7123479843139648
vn 0.4565570056438446 0.6625769734382629 0.5937569737434387
vn 0.4565570056438446 0.6625769734382629 0.5937569737434387
vn 0.4565570056438446 0.6625769734382629 0.5937569737434387
vn 0.2318589985370636 0.6625769734382629 -0.7122030258178711
vn 0.2318589985370636 0.6625769734382629 -0.7122039794921875
vn 0.2318589985370636 0.6625769734382629 -0.7122039794921875
vn 0.2318589985370636 -0.6625720262527466 -0.7122079730033875
vn 0.2318589985370636 -0.6625720262527466 -0.7122079730033875
vn 0.2318589985370636 -0.6625720262527466 -0.7122079730033875
vn 0.4565590023994446 -0.662572979927063 0.5937600135803223
vn 0.4565590023994446 -0.662572979927063 0.5937600135803223
vn 0.4565590023994446 -0.662572979927063 0.5937600135803223
vn 0.3150539994239807 0.6646909713745117 0.6774410009384155
vn 0.3150539994239807 0.6646909713745117 0.6774410009384155
vn 0.3150539994239807 0.6646909713745117 0.6774410009384155
vn 0.37953799962997437 0.6599310040473938 -0.6484159827232361
vn 0.37953799962997437 0.6599310040473938 -0.6484159827232361
vn 0.37953799962997437 0.6599310040473938 -0.6484159827232361
vn 0.3739610016345978 -0.6674820184707642 -0.6439099907875061
vn 0.3739610016345978 -0.6674820184707642 -0.6439099907875061
vn 0.3739610016345978 -0.6674820184707642 -0.6439099907875061
vn 0.30947500467300415 -0.6627119779586792 0.6819369792938232
vn 0.30947500467300415 -0.6627119779586792 0.6819369792938232
vn 0.30947500467300415 -0.6627119779586792 0.6819369792938232
vn 0.22682100534439087 0.6654059886932373 0.7111870050430298
vn 0.22682100534439087 0.6654059886932373 0.7111870050430298
vn 0.22682100534439087 0.6654059886932373 0.7111870050430298
vn 0.4564650058746338 0.6600160002708435 -0.596671998500824
vn 0.4564650058746338 0.6600160002708435 -0.596671998500824
vn 0.4564650058746338 0.6600160002708435 -0.596671998500824
vn 0.45088499784469604 -0.667855978012085 -0.5921750068664551
vn 0.45088499784469604 -0.667855978012085 -0.5921750068664551
vn 0.45088499784469604 -0.667855978012085 -0.5921750068664551
vn 0.2212419956922531 -0.6624559760093689 0.7156839966773987
vn 0.2212419956922531 -0.6624559760093689 0.7156839966773987
vn 0.2212419956922531 -0.6624559760093689 0.7156839966773987

vt 0.48897600173950195 0.17156702280044556
vt 0.48831599950790405 0.1546880006790161
vt 0.4824790060520172 0.15213298797607422
vt 0.48302701115608215 0.17632001638412476
vt 0.4904769957065582 0.1852399706840515
vt 0.4897199869155884 0.1783429980278015
vt 0.4836199879646301 0.18570899963378906
vt 0.48422399163246155 0.19526398181915283
vt 0.49039900302886963 0.13935601711273193
vt 0.4843350052833557 0.13150697946548462
vt 0.4778040051460266 0.1804940104484558
vt 0.4773530066013336 0.1498889923095703
vt 0.46521899104118347 0.14770501852035522
vt 0.4650309979915619 0.18522900342941284
vt 0.47873300313949585 0.20406699180603027
vt 0.4782640039920807 0.1921759843826294
vt 0.46442800760269165 0.20007801055908203
vt 0.46381598711013794 0.21519100666046143
vt 0.4790099859237671 0.12461501359939575
vt 0.46569201350212097 0.11489599943161011
vt 0.4467659890651703 0.1839359998703003
vt 0.44822999835014343 0.14683401584625244
vt 0.44701799750328064 0.21531999111175537
vt 0.44689100980758667 0.1994900107383728
vt 0.4464470148086548 0.1145930290222168
vt 0.43514901399612427 0.17792099714279175
vt 0.43560200929641724 0.14819598197937012
vt 0.43287500739097595 0.20107901096343994
vt 0.4340220093727112 0.18939900398254395
vt 0.4337419867515564 0.12314897775650024
vt 0.4242500066757202 0.1687210202217102
vt 0.4300529956817627 0.17361897230148315
vt 0.43027499318122864 0.14931398630142212
vt 0.42420899868011475 0.15058797597885132
vt 0.42179399728775024 0.1821029782295227
vt 0.4276939928531647 0.1922069787979126
vt 0.42888399958610535 0.18283098936080933
vt 0.4230329990386963 0.17535299062728882
vt 0.4287570118904114 0.1298689842224121
vt 0.4230799973011017 0.13752198219299316
vt 0.4935019910335541 0.16706198453903198
vt 0.493598997592926 0.15675699710845947
vt 0.4946559965610504 0.17503398656845093
vt 0.4940739870071411 0.1710129976272583
vt 0.49446699023246765 0.14716798067092896
vt 0.4192819893360138 0.16355502605438232
vt 0.4194070100784302 0.15282797813415527
vt 0.41772499680519104 0.1711140275001526
vt 0.41850998997688293 0.1673009991645813
vt 0.41888299584388733 0.14472299814224243
vt 0.43347999453544617 0.059513986110687256
vt 0.4357289969921112 0.05939602851867676
vt 0.4357289969921112 0.01922398805618286
vt 0.4334839880466461 0.019105970859527588
vt 0.4383609890937805 0.020889997482299805
vt 0.4383609890937805 0.057730019092559814
vt 0.44067299365997314 0.05626600980758667
vt 0.4439750015735626 0.047113001346588135
vt 0.4439750015735626 0.0315060019493103
vt 0.44067299365997314 0.022352993488311768
vt 0.41426101326942444 0.03153902292251587
vt 0.41793501377105713 0.022386014461517334
vt 0.41793501377105713 0.05629897117614746
vt 0.41426101326942444 0.0471460223197937
vt 0.42050600051879883 0.02092200517654419
vt 0.42343398928642273 0.019255995750427246
vt 0.42343398928642273 0.05942898988723755
vt 0.42050600051879883 0.0577620267868042
vt 0.4260199964046478 0.05954998731613159
vt 0.4261839985847473 0.01912599802017212
vt 0.5391340255737305 0.09720301628112793
vt 0.5388990044593811 0.11357802152633667
vt 0.5446630120277405 0.11431097984313965
vt 0.5450140237808228 0.09636497497558594
vt 0.5385640263557434 0.08807402849197388
vt 0.5444089770317078 0.08744502067565918
vt 0.5424200296401978 0.05053102970123291
vt 0.5366950035095215 0.05030202865600586
vt 0.5371739864349365 0.06857800483703613
vt 0.5425570011138916 0.0689389705657959
vt 0.5420560240745544 0.0332450270652771
vt 0.5364260077476501 0.032787024974823
vt 0.5358129739761353 0.20056301355361938
vt 0.5367699861526489 0.2088170051574707
vt 0.5421630144119263 0.20863699913024902
vt 0.5415760278701782 0.1994360089302063
vt 0.5430949926376343 0.17501801252365112
vt 0.5373439788818359 0.1761149764060974
vt 0.5355799794197083 0.1915079951286316
vt 0.5417309999465942 0.19188600778579712
vt 0.5367680191993713 0.14085602760314941
vt 0.5354610085487366 0.15845900774002075
vt 0.5450459718704224 0.158968985080719
vt 0.5465800166130066 0.14135301113128662
vt 0.5366809964179993 0.12309598922729492
vt 0.5463020205497742 0.1234850287437439
vt 0.2922469973564148 0.567660003900528
vt 0.28550300002098083 0.5007680058479309
vt 0.35161298513412476 0.5007680058479309
vt 0.35161298513412476 0.5544480085372925
vt 0.285504013299942 0.5007680058479309
vt 0.2748590111732483 0.42680197954177856
vt 0.35161298513412476 0.4282810091972351
vt 0.35161298513412476 0.5007680058479309
vt 0.2706319987773895 0.37638598680496216
vt 0.35161298513412476 0.37638598680496216
vt 0.2790440022945404 0.8750479966402054
vt 0.2806119918823242 0.813058003783226
vt 0.35161298513412476 0.8245989978313446
vt 0.35161298513412476 0.8750479966402054
vt 0.2869420051574707 0.7501710057258606
vt 0.35161298513412476 0.7501710057258606
vt 0.35161298513412476 0.7501710057258606
vt 0.2869429886341095 0.7501710057258606
vt 0.2915309965610504 0.692672997713089
vt 0.35161298513412476 0.6948550045490265
vt 0.295430988073349 0.6258580088615417
vt 0.35161298513412476 0.6258580088615417
vt 0.295428991317749 0.6258580088615417
vt 0.35161298513412476 0.6258580088615417
vt 0.22687600553035736 0.5646390020847321
vt 0.22687600553035736 0.5007680058479309
vt 0.22687600553035736 0.5007680058479309
vt 0.22687600553035736 0.4241039752960205
vt 0.22687600553035736 0.37638598680496216
vt 0.22687600553035736 0.8750479966402054
vt 0.22687600553035736 0.8184580057859421
vt 0.22687600553035736 0.7501710057258606
vt 0.22687600553035736 0.7501710057258606
vt 0.22687600553035736 0.6918970048427582
vt 0.22687600553035736 0.6258580088615417
vt 0.22687600553035736 0.6258580088615417
vt 0.4755220115184784 0.039264976978302
vt 0.4714429974555969 0.04250901937484741
vt 0.4760499894618988 0.051437973976135254
vt 0.4668020009994507 0.022435009479522705
vt 0.4652419984340668 0.030559003353118896
vt 0.4548499882221222 0.022435009479522705
vt 0.45674899220466614 0.030547022819519043
vt 0.44666698575019836 0.039264976978302
vt 0.45093899965286255 0.0424799919128418
vt 0.45055198669433594 0.02988797426223755
vt 0.44704899191856384 0.06306499242782593
vt 0.4512160122394562 0.05936700105667114
vt 0.45576900243759155 0.07989197969436646
vt 0.45741599798202515 0.0713149905204773
vt 0.46772098541259766 0.07989197969436646
vt 0.4659090042114258 0.07132798433303833
vt 0.4759039878845215 0.06306499242782593
vt 0.47172001004219055 0.059395015239715576
vt 0.5481529831886292 0.029241979122161865
vt 0.5487329959869385 0.050495028495788574
vt 0.5486230254173279 0.0722699761390686
vt 0.5510839819908142 0.09564697742462158
vt 0.5502750277519226 0.08521902561187744
vt 0.5507810115814209 0.11678099632263184
vt 0.5508909821510315 0.12050598859786987
vt 0.5511080026626587 0.14230602979660034
vt 0.5494109988212585 0.1637750267982483
vt 0.5493950247764587 0.17222797870635986
vt 0.5487390160560608 0.19186097383499146
vt 0.5483009815216064 0.2012389898300171
vt 0.5484899878501892 0.21221697330474854
vt 0.5434070229530334 0.079010009765625
vt 0.5378329753875732 0.0797950029373169
vt 0.5493190288543701 0.0752519965171814
vt 0.5285800099372864 0.08964097499847412
vt 0.5225579738616943 0.11678099632263184
vt 0.5328189730644226 0.07413899898529053
vt 0.5311170220375061 0.0816270112991333
vt 0.534060001373291 0.04890298843383789
vt 0.5324410200119019 0.0646439790725708
vt 0.5327640175819397 0.0253869891166687
vt 0.5281580090522766 0.2044050097465515
vt 0.5317609906196594 0.2105960249900818
vt 0.522458016872406 0.1654459834098816
vt 0.5243300199508667 0.1931149959564209
vt 0.5223309993743896 0.1397550106048584
vt 0.521507978439331 0.1599929928779602
vt 0.5230770111083984 0.12050598859786987
vt 0.5278289914131165 0.06958597898483276
vt 0.525301992893219 0.07738500833511353
vt 0.5259979963302612 0.03405201435089111
vt 0.5224779844284058 0.035858988761901855
vt 0.5237510204315186 0.048089027404785156
vt 0.5298659801483154 0.0464400053024292
vt 0.5007410049438477 0.05766797065734863
vt 0.5035210251808167 0.07631397247314453
vt 0.5017470121383667 0.07637101411819458
vt 0.49835699796676636 0.058368980884552
vt 0.5003380179405212 0.04280698299407959
vt 0.5017589926719666 0.04099702835083008
vt 0.520002007484436 0.1008949875831604
vt 0.5168200135231018 0.11382502317428589
vt 0.5159249901771545 0.0712820291519165
vt 0.5215830206871033 0.06725198030471802
vt 0.5189459919929504 0.05083799362182617
vt 0.5128560066223145 0.05476301908493042
vt 0.5193189978599548 0.17910897731781006
vt 0.5183640122413635 0.16337502002716064
vt 0.516048014163971 0.14002597332000732
vt 0.51699298620224 0.16035497188568115
vt 0.5170959830284119 0.12070202827453613
vt 0.5182290077209473 0.03700798749923706
vt 0.5117639899253845 0.035558998584747314
vt 0.5223680138587952 0.08289599418640137
vt 0.5172529816627502 0.09014701843261719
vt 0.5113270282745361 0.10564297437667847
vt 0.5153729915618896 0.10012900829315186
vt 0.5089970231056213 0.08904200792312622
vt 0.5080130100250244 0.09188699722290039
vt 0.5158650279045105 0.18315500020980835
vt 0.5176079869270325 0.19399702548980713
vt 0.5250300168991089 0.06376200914382935
vt 0.5283910036087036 0.057344019412994385
vt 0.5253220200538635 0.02581697702407837
vt 0.5258039832115173 0.01806199550628662
vt 0.5230519771575928 0.01648402214050293
vt 0.5236799716949463 0.027670979499816895
vt 0.5099160075187683 0.1401280164718628
vt 0.5105270147323608 0.12078201770782471
vt 0.502918004989624 0.12504297494888306
vt 0.5026770234107971 0.141431987285614
vt 0.5037500262260437 0.16061997413635254
vt 0.5102800130844116 0.1603429913520813
vt 0.5130739808082581 0.08870500326156616
vt 0.5185390114784241 0.2030249834060669
vt 0.5213199853897095 0.20724797248840332
vt 0.5246729850769043 0.21713298559188843
vt 0.5223979949951172 0.2137240171432495
vt 0.5207020044326782 0.029030978679656982
vt 0.5200989842414856 0.02042001485824585
vt 0.5119040012359619 0.16560500860214233
vt 0.5125370025634766 0.17652899026870728
vt 0.5116609930992126 0.07193499803543091
vt 0.5090770125389099 0.05674701929092407
vt 0.5084710121154785 0.03841698169708252
vt 0.5085480213165283 0.0722699761390686
vt 0.5049840211868286 0.058715999126434326
vt 0.5049449801445007 0.0412520170211792
vt 0.507082998752594 0.17390400171279907
vt 0.5069540143013 0.1774749755859375
vt 0.511900007724762 0.18212997913360596
vt 0.5076829791069031 0.18198102712631226
vt 0.5053960084915161 0.07354700565338135
vt 0.50279301404953 0.056984007358551025
vt 0.5035480260848999 0.04158902168273926
vt 0.5102699995040894 0.08638900518417358
vt 0.4121989905834198 0.15619099140167236
vt 0.4298990070819855 0.018917977809906006
vt 0.4298990070819855 0.05970102548599243
vt 0.5009589791297913 0.15963900089263916
vt 0.4299199879169464 0.018950998783111572
vt 0.4299199879169464 0.05973398685455322
vt 0.4230329990386963 0.17535299062728882
vt 0.42888399958610535 0.18283098936080933
vt 0.4340220093727112 0.18939900398254395
vt 0.44689100980758667 0.1994900107383728
vt 0.46442800760269165 0.20007801055908203
vt 0.4782640039920807 0.1921759843826294
vt 0.4836199879646301 0.18570899963378906
vt 0.4897199869155884 0.1783429980278015
vt 0.4171859920024872 0.10916101932525635
vt 0.43881699442863464 0.06469100713729858
vt 0.4280019998550415 0.10916101932525635
vt 0.4280019998550415 0.10916101932525635
vt 0.43881699442863464 0.06469100713729858
vt 0.43881699442863464 0.10916101932525635
vt 0.43881699442863464 0.10916101932525635
vt 0.43881699442863464 0.06469100713729858
vt 0.44963300228118896 0.10916101932525635
vt 0.44963300228118896 0.10916101932525635
vt 0.43881699442863464 0.06469100713729858
vt 0.4604490101337433 0.10916101932525635
vt 0.4171859920024872 0.10916101932525635
vt 0.43881699442863464 0.06469100713729858
vt 0.4280019998550415 0.10916101932525635
vt 0.4280019998550415 0.10916101932525635
vt 0.43881699442863464 0.06469100713729858
vt 0.43881699442863464 0.10916101932525635
vt 0.43881699442863464 0.10916101932525635
vt 0.43881699442863464 0.06469100713729858
vt 0.44963300228118896 0.10916101932525635
vt 0.44963300228118896 0.10916101932525635
vt 0.43881699442863464 0.06469100713729858
vt 0.4604490101337433 0.10916101932525635
vt 0.4171859920024872 0.10916101932525635
vt 0.43881699442863464 0.06469100713729858
vt 0.4280019998550415 0.10916101932525635
vt 0.4280019998550415 0.10916101932525635
vt 0.43881699442863464 0.06469100713729858
vt 0.43881699442863464 0.10916101932525635
vt 0.43881699442863464 0.10916101932525635
vt 0.43881699442863464 0.06469100713729858
vt 0.44963300228118896 0.10916101932525635
vt 0.44963300228118896 0.10916101932525635
vt 0.43881699442863464 0.06469100713729858
vt 0.4604490101337433 0.10916101932525635
vt 0.4679130017757416 0.08543401956558228
vt 0.48703500628471375 0.12474602460861206
vt 0.47747400403022766 0.08543401956558228
vt 0.47747400403022766 0.08543401956558228
vt 0.48703500628471375 0.12474602460861206
vt 0.48703500628471375 0.08543401956558228
vt 0.48703500628471375 0.08543401956558228
vt 0.48703500628471375 0.12474602460861206
vt 0.4965969920158386 0.08543401956558228
vt 0.4965969920158386 0.08543401956558228
vt 0.48703500628471375 0.12474602460861206
vt 0.5061590075492859 0.08543401956558228
vt 0.4679130017757416 0.08543401956558228
vt 0.48703598976135254 0.12474602460861206
vt 0.47747400403022766 0.08543401956558228
vt 0.47747400403022766 0.08543401956558228
vt 0.48703598976135254 0.12474602460861206
vt 0.48703598976135254 0.08543401956558228
vt 0.48703598976135254 0.08543401956558228
vt 0.48703598976135254 0.12474602460861206
vt 0.4965980052947998 0.08543401956558228
vt 0.4965980052947998 0.08543401956558228
vt 0.48703598976135254 0.12474602460861206
vt 0.5061579942703247 0.08543401956558228
vt 0.4679130017757416 0.08543401956558228
vt 0.48703598976135254 0.12474602460861206
vt 0.47747400403022766 0.08543401956558228
vt 0.47747400403022766 0.08543401956558228
vt 0.48703598976135254 0.12474602460861206
vt 0.48703598976135254 0.08543401956558228
vt 0.48703598976135254 0.08543401956558228
vt 0.48703598976135254 0.12474602460861206
vt 0.4965980052947998 0.08543401956558228
vt 0.4965980052947998 0.08543401956558228
vt 0.48703598976135254 0.12474602460861206
vt 0.5061579942703247 0.08543401956558228

usemtl Material

f 1/1/1 2/2/2 3/3/3
f 3/3/3 4/4/4 1/1/1
f 5/5/5 6/6/6 7/7/7
f 7/7/7 8/8/8 5/5/5
f 2/2/2 9/9/9 10/10/10
f 10/10/10 3/3/3 2/2/2
f 11/11/11 12/12/12 13/13/13
f 13/13/13 14/14/14 11/11/11
f 15/15/15 16/16/16 17/17/17
f 17/17/17 18/18/18 15/15/15
f 12/12/12 19/19/19 20/20/20
f 20/20/20 13/13/13 12/12/12
f 21/21/21 14/14/14 13/13/13
f 13/13/13 22/22/22 21/21/21
f 23/23/23 18/18/18 17/17/17
f 17/17/17 24/24/24 23/23/23
f 22/22/22 13/13/13 20/20/20
f 20/20/20 25/25/25 22/22/22
f 26/26/26 21/21/21 22/22/22
f 22/22/22 27/27/27 26/26/26
f 28/28/28 23/23/23 24/24/24
f 24/24/24 29/29/29 28/28/28
f 27/27/27 22/22/22 25/25/25
f 25/25/25 30/30/30 27/27/27
f 31/31/31 32/32/32 33/33/33
f 33/33/33 34/34/34 31/31/31
f 35/35/35 36/36/36 37/37/37
f 37/37/37 38/38/38 35/35/35
f 34/34/34 33/33/33 39/39/39
f 39/39/39 40/40/40 34/34/34
f 2/2/2 1/1/1 41/41/41
f 41/41/41 42/42/42 2/2/2
f 6/6/6 5/5/5 43/43/43
f 43/43/43 44/44/44 6/6/6
f 45/45/45 9/9/9 2/2/2
f 2/2/2 42/42/42 45/45/45
f 46/46/46 31/31/31 34/34/34
f 34/34/34 47/47/47 46/46/46
f 48/48/48 35/35/35 38/38/38
f 38/38/38 49/49/49 48/48/48
f 34/34/34 40/40/40 50/50/50
f 50/50/50 47/47/47 34/34/34
f 51/51/51 52/52/52 53/53/53
f 53/53/53 54/54/54 51/51/51
f 55/55/55 53/53/53 52/52/52
f 52/52/52 56/56/56 55/55/55
f 57/57/57 58/58/58 59/59/59
f 59/59/59 60/60/60 57/57/57
f 61/61/61 62/62/62 63/63/63
f 63/63/63 64/64/64 61/61/61
f 65/65/65 66/66/66 67/67/67
f 67/67/67 68/68/68 65/65/65
f 69/69/69 67/67/67 66/66/66
f 66/66/66 70/70/70 69/69/69
f 71/71/71 72/72/72 73/73/73
f 73/73/73 74/74/74 71/71/71
f 75/75/75 71/71/71 74/74/74
f 74/74/74 76/76/76 75/75/75
f 77/77/77 78/78/78 79/79/79
f 79/79/79 80/80/80 77/77/77
f 81/81/81 82/82/82 78/78/78
f 78/78/78 77/77/77 81/81/81
f 83/83/83 84/84/84 85/85/85
f 85/85/85 86/86/86 83/83/83
f 87/87/87 88/88/88 89/89/89
f 89/89/89 90/90/90 87/87/87
f 91/91/91 92/92/92 93/93/93
f 93/93/93 94/94/94 91/91/91
f 95/95/95 91/91/91 94/94/94
f 94/94/94 96/96/96 95/95/95
f 97/97/97 98/98/98 99/99/99
f 99/99/99 100/100/100 97/97/97
f 101/101/101 102/102/102 103/103/103
f 103/103/103 104/104/104 101/101/101
f 102/102/102 105/105/105 106/106/106
f 106/106/106 103/103/103 102/102/102
f 107/107/107 108/108/108 109/109/109
f 109/109/109 110/110/110 107/107/107
f 109/109/109 108/108/108 111/111/111
f 111/111/111 112/112/112 109/109/109
f 113/113/113 114/114/114 115/115/115
f 115/115/115 116/116/116 113/113/113
f 116/116/116 115/115/115 117/117/117
f 117/117/117 118/118/118 116/116/116
f 119/119/119 97/97/97 100/100/100
f 100/100/100 120/120/120 119/119/119
f 121/121/121 122/122/122 98/98/98
f 98/98/98 97/97/97 121/121/121
f 123/123/123 124/124/124 102/102/102
f 102/102/102 101/101/101 123/123/123
f 124/124/124 125/125/125 105/105/105
f 105/105/105 102/102/102 124/124/124
f 126/126/126 127/127/127 108/108/108
f 108/108/108 107/107/107 126/126/126
f 108/108/108 127/127/127 128/128/128
f 128/128/128 111/111/111 108/108/108
f 114/114/114 129/129/129 130/130/130
f 130/130/130 115/115/115 114/114/114
f 115/115/115 130/130/130 131/131/131
f 131/131/131 117/117/117 115/115/115
f 119/119/119 132/132/132 121/121/121
f 121/121/121 97/97/97 119/119/119
f 133/133/133 134/134/134 135/135/135
f 134/134/134 133/133/133 136/136/136
f 136/136/136 137/137/137 134/134/134
f 136/136/136 138/138/138 139/139/139
f 139/139/139 137/137/137 136/136/136
f 140/140/140 141/141/141 142/142/142
f 140/140/140 143/143/143 144/144/144
f 144/144/144 141/141/141 140/140/140
f 144/144/144 143/143/143 145/145/145
f 145/145/145 146/146/146 144/144/144
f 145/145/145 147/147/147 148/148/148
f 148/148/148 146/146/146 145/145/145
f 147/147/147 149/149/149 150/150/150
f 150/150/150 148/148/148 147/147/147
f 151/151/151 81/81/81 77/77/77
f 77/77/77 152/152/152 151/151/151
f 77/77/77 80/80/80 153/153/153
f 153/153/153 152/152/152 77/77/77
f 76/76/76 74/74/74 154/154/154
f 154/154/154 155/155/155 76/76/76
f 74/74/74 73/73/73 156/156/156
f 156/156/156 154/154/154 74/74/74
f 157/157/157 96/96/96 94/94/94
f 94/94/94 158/158/158 157/157/157
f 94/94/94 93/93/93 159/159/159
f 159/159/159 158/158/158 94/94/94
f 160/160/160 87/87/87 90/90/90
f 90/90/90 161/161/161 160/160/160
f 162/162/162 86/86/86 85/85/85
f 85/85/85 163/163/163 162/162/162
f 89/89/89 83/83/83 86/86/86
f 86/86/86 90/90/90 89/89/89
f 86/86/86 162/162/162 161/161/161
f 161/161/161 90/90/90 86/86/86
f 135/135/135 134/134/134 150/150/150
f 150/150/150 149/149/149 135/135/135
f 164/164/164 165/165/165 75/75/75
f 75/75/75 76/76/76 164/164/164
f 164/164/164 76/76/76 155/155/155
f 155/155/155 166/166/166 164/164/164
f 142/142/142 141/141/141 139/139/139
f 139/139/139 138/138/138 142/142/142
f 167/167/167 168/168/168 72/72/72
f 72/72/72 71/71/71 167/167/167
f 165/165/165 169/169/169 170/170/170
f 170/170/170 75/75/75 165/165/165
f 78/78/78 171/171/171 172/172/172
f 172/172/172 79/79/79 78/78/78
f 82/82/82 173/173/173 171/171/171
f 171/171/171 78/78/78 82/82/82
f 83/83/83 174/174/174 175/175/175
f 175/175/175 84/84/84 83/83/83
f 88/88/88 176/176/176 177/177/177
f 177/177/177 89/89/89 88/88/88
f 178/178/178 179/179/179 92/92/92
f 92/92/92 91/91/91 178/178/178
f 180/180/180 178/178/178 91/91/91
f 91/91/91 95/95/95 180/180/180
f 181/181/181 182/182/182 170/170/170
f 170/170/170 169/169/169 181/181/181
f 183/183/183 184/184/184 185/185/185
f 185/185/185 186/186/186 183/183/183
f 187/187/187 188/188/188 189/189/189
f 189/189/189 190/190/190 187/187/187
f 187/187/187 190/190/190 191/191/191
f 191/191/191 192/192/192 187/187/187
f 168/168/168 167/167/167 193/193/193
f 193/193/193 194/194/194 168/168/168
f 195/195/195 196/196/196 197/197/197
f 197/197/197 198/198/198 195/195/195
f 199/199/199 177/177/177 176/176/176
f 176/176/176 200/200/200 199/199/199
f 179/179/179 178/178/178 201/201/201
f 201/201/201 202/202/202 179/179/179
f 178/178/178 180/180/180 203/203/203
f 203/203/203 201/201/201 178/178/178
f 198/198/198 197/197/197 204/204/204
f 204/204/204 205/205/205 198/198/198
f 206/206/206 207/207/207 193/193/193
f 193/193/193 167/167/167 206/206/206
f 208/208/208 209/209/209 210/210/210
f 210/210/210 211/211/211 208/208/208
f 199/199/199 212/212/212 213/213/213
f 213/213/213 177/177/177 199/199/199
f 185/185/185 214/214/214 215/215/215
f 215/215/215 186/186/186 185/185/185
f 186/186/186 171/171/171 173/173/173
f 173/173/173 183/183/183 186/186/186
f 215/215/215 172/172/172 171/171/171
f 171/171/171 186/186/186 215/215/215
f 216/216/216 217/217/217 218/218/218
f 218/218/218 219/219/219 216/216/216
f 220/220/220 221/221/221 222/222/222
f 222/222/222 223/223/223 220/220/220
f 223/223/223 224/224/224 225/225/225
f 225/225/225 220/220/220 223/223/223
f 207/207/207 226/226/226 209/209/209
f 209/209/209 193/193/193 207/207/207
f 183/183/183 173/173/173 217/217/217
f 217/217/217 216/216/216 183/183/183
f 219/219/219 184/184/184 183/183/183
f 183/183/183 216/216/216 219/219/219
f 177/177/177 213/213/213 227/227/227
f 227/227/227 228/228/228 177/177/177
f 229/229/229 175/175/175 174/174/174
f 174/174/174 230/230/230 229/229/229
f 75/75/75 170/170/170 167/167/167
f 167/167/167 71/71/71 75/75/75
f 182/182/182 206/206/206 167/167/167
f 167/167/167 170/170/170 182/182/182
f 197/197/197 196/196/196 214/214/214
f 214/214/214 185/185/185 197/197/197
f 185/185/185 184/184/184 204/204/204
f 204/204/204 197/197/197 185/185/185
f 184/184/184 219/219/219 231/231/231
f 231/231/231 204/204/204 184/184/184
f 219/219/219 218/218/218 232/232/232
f 232/232/232 231/231/231 219/219/219
f 174/174/174 177/177/177 228/228/228
f 228/228/228 230/230/230 174/174/174
f 174/174/174 83/83/83 89/89/89
f 89/89/89 177/177/177 174/174/174
f 199/199/199 200/200/200 233/233/233
f 233/233/233 234/234/234 199/199/199
f 225/225/225 202/202/202 201/201/201
f 201/201/201 220/220/220 225/225/225
f 201/201/201 203/203/203 221/221/221
f 221/221/221 220/220/220 201/201/201
f 194/194/194 193/193/193 209/209/209
f 209/209/209 208/208/208 194/194/194
f 235/235/235 195/195/195 198/198/198
f 198/198/198 236/236/236 235/235/235
f 198/198/198 205/205/205 237/237/237
f 237/237/237 236/236/236 198/198/198
f 238/238/238 235/235/235 236/236/236
f 236/236/236 239/239/239 238/238/238
f 236/236/236 237/237/237 240/240/240
f 240/240/240 239/239/239 236/236/236
f 234/234/234 233/233/233 241/241/241
f 241/241/241 242/242/242 234/234/234
f 212/212/212 199/199/199 234/234/234
f 234/234/234 243/243/243 212/212/212
f 243/243/243 234/234/234 242/242/242
f 242/242/242 244/244/244 243/243/243
f 245/245/245 188/188/188 187/187/187
f 187/187/187 246/246/246 245/245/245
f 246/246/246 187/187/187 192/192/192
f 192/192/192 247/247/247 246/246/246
f 210/210/210 209/209/209 226/226/226
f 226/226/226 248/248/248 210/210/210
f 32/32/32 26/26/26 27/27/27
f 27/27/27 33/33/33 32/32/32
f 36/36/36 28/28/28 29/29/29
f 29/29/29 37/37/37 36/36/36
f 65/65/65 68/68/68 63/63/63
f 63/63/63 62/62/62 65/65/65
f 8/8/8 7/7/7 16/16/16
f 16/16/16 15/15/15 8/8/8
f 4/4/4 3/3/3 12/12/12
f 12/12/12 11/11/11 4/4/4
f 12/12/12 3/3/3 10/10/10
f 10/10/10 19/19/19 12/12/12
f 55/55/55 56/56/56 57/57/57
f 57/57/57 60/60/60 55/55/55
f 27/27/27 30/30/30 39/39/39
f 39/39/39 33/33/33 27/27/27
f 46/46/46 249/249/249 49/49/49
f 47/47/47 249/249/249 46/46/46
f 50/50/50 249/249/249 47/47/47
f 51/51/51 54/54/54 250/250/250
f 250/250/250 251/251/251 51/51/51
f 42/42/42 252/252/252 45/45/45
f 41/41/41 252/252/252 42/42/42
f 43/43/43 252/252/252 44/44/44
f 69/69/69 70/70/70 253/253/253
f 253/253/253 254/254/254 69/69/69
f 255/255/255 31/31/31 46/46/46
f 46/46/46 49/49/49 255/255/255
f 256/256/256 32/32/32 31/31/31
f 31/31/31 255/255/255 256/256/256
f 257/257/257 26/26/26 32/32/32
f 32/32/32 256/256/256 257/257/257
f 257/257/257 258/258/258 21/21/21
f 21/21/21 26/26/26 257/257/257
f 258/258/258 259/259/259 14/14/14
f 14/14/14 21/21/21 258/258/258
f 260/260/260 11/11/11 14/14/14
f 14/14/14 259/259/259 260/260/260
f 260/260/260 261/261/261 4/4/4
f 4/4/4 11/11/11 260/260/260
f 261/261/261 262/262/262 1/1/1
f 1/1/1 4/4/4 261/261/261
f 262/262/262 44/44/44 41/41/41
f 41/41/41 1/1/1 262/262/262
f 249/249/249 48/48/48 49/49/49
f 252/252/252 41/41/41 44/44/44
f 263/263/263 264/264/264 265/265/265
f 266/266/266 267/267/267 268/268/268
f 269/269/269 270/270/270 271/271/271
f 272/272/272 273/273/273 274/274/274
f 275/275/275 276/276/276 277/277/277
f 278/278/278 279/279/279 280/280/280
f 281/281/281 282/282/282 283/283/283
f 284/284/284 285/285/285 286/286/286
f 287/287/287 288/288/288 289/289/289
f 290/290/290 291/291/291 292/292/292
f 293/293/293 294/294/294 295/295/295
f 296/296/296 297/297/297 298/298/298
f 299/299/299 300/300/300 301/301/301
f 302/302/302 303/303/303 304/304/304
f 305/305/305 306/306/306 307/307/307
f 308/308/308 309/309/309 310/310/310
f 311/311/311 312/312/312 313/313/313
f 314/314/314 315/315/315 316/316/316
f 317/317/317 318/318/318 319/319/319
f 320/320/320 321/321/321 322/322/322
f 323/323/323 324/324/324 325/325/325
f 326/326/326 327/327/327 328/328/328
f 329/329/329 330/330/330 331/331/331
f 332/332/332 333/333/333 334/334/334