mtllib 101851582.mtl
o Mesh

v 0.08974400162696838 0.982699990272522 0.00534099992364645
v 0.14900100231170654 1.009850025177002 0.027885999530553818
v 0.05639500170946121 1.0574500560760498 0.1063850000500679
v 0.03251099959015846 1.012120008468628 0.05385600030422211
v 0.03251099959015846 1.012120008468628 0.05385600030422211
v 0.05639500170946121 1.0574500560760498 0.1063850000500679
v -0.041804999113082886 1.0916199684143066 0.024460000917315483
v -0.028179999440908432 1.0332399606704712 0.0032240001019090414
v -0.04740000143647194 1.0781899690628052 -0.13596199452877045
v -0.031638000160455704 1.024940013885498 -0.09592299908399582
v 0.04520599916577339 1.0305800437927246 -0.21446099877357483
v 0.02559500001370907 0.9955199956893921 -0.1444379985332489
v 0.02559500001370907 0.9955199956893921 -0.1444379985332489
v 0.04520599916577339 1.0305800437927246 -0.21446099877357483
v 0.1434060037136078 0.9964200258255005 -0.13253599405288696
v 0.08628600090742111 0.974399983882904 -0.09380599856376648
v 0.1758819967508316 1.0595300197601318 0.01707400009036064
v 0.08327700197696686 1.1071300506591797 0.09557300060987473
v 0.08327700197696686 1.1071300506591797 0.09557300060987473
v -0.014922999776899815 1.1412999629974365 0.013648999854922295
v -0.020517999306321144 1.127869963645935 -0.14677399396896362
v 0.07208699733018875 1.0802700519561768 -0.225272998213768
v 0.07208699733018875 1.0802700519561768 -0.225272998213768
v 0.17028799653053284 1.0460989475250244 -0.14334799349308014
v 0.16012099385261536 1.112779974937439 -0.022964999079704285
v 0.10288800299167633 1.142199993133545 0.025550000369548798
v 0.10288800299167633 1.142199993133545 0.025550000369548798
v 0.04219700023531914 1.1633200645446777 -0.025081999599933624
v 0.038738999515771866 1.1550099849700928 -0.12422899901866913
v 0.09597200155258179 1.1142799854278564 -0.1727440059185028
v 0.09597200155258179 1.1142799854278564 -0.1727440059185028
v 0.15666300058364868 1.1044800281524658 -0.12211199849843979
v 0.04570800065994263 0.9994400143623352 -0.032878998667001724
v 0.04570800065994263 0.9994400143623352 -0.032878998667001724
v 0.1077369973063469 1.1379289627075195 -0.07693800330162048
v 0.1077369973063469 1.1379289627075195 -0.07693800330162048
v -0.1412770003080368 0.1609100103378296 0.09744899719953537
v -0.20358100533485413 0.14591997861862183 0.08974099904298782
v -0.17159299552440643 0.1089400053024292 0.08975700289011002
v -0.12889400124549866 0.14516997337341309 0.09769800305366516
v -0.12964600324630737 0.1093900203704834 0.08074399828910828
v -0.11067000031471252 0.1378999948501587 0.09602200239896774
v -0.08929300308227539 0.11677998304367065 0.0730070024728775
v -0.08930200338363647 0.13701999187469482 0.0938350036740303
v -0.04822999984025955 0.10891002416610718 0.08112800121307373
v -0.06793300062417984 0.1378999948501587 0.09584999829530716
v -0.006680999882519245 0.10531002283096313 0.09072799980640411
v -0.049639999866485596 0.14515000581741333 0.09779299795627594
v 0.023933999240398407 0.13756000995635986 0.10011100023984909
v -0.03730899840593338 0.1609799861907959 0.09757100045681
v 0.023646000772714615 0.18317997455596924 0.09737399965524673
v -0.03145499899983406 0.1780800223350525 0.10141299664974213
v -0.14712099730968475 0.17798000574111938 0.10137499868869781
v -0.21153099834918976 0.19012999534606934 0.09242700040340424
v -0.2653000056743622 0.1268799901008606 0.03423700109124184
v -0.20383800566196442 0.08305001258850098 0.0256779994815588
v -0.20383800566196442 0.08305001258850098 0.0256779994815588
v -0.14289699494838715 0.07592999935150146 0.024457000195980072
v -0.0892840027809143 0.0885699987411499 0.02431200072169304
v -0.03418999910354614 0.07462000846862793 0.024481000378727913
v 0.024156000465154648 0.07589000463485718 0.03440999984741211
v 0.024156000465154648 0.07589000463485718 0.03440999984741211
v 0.07752999663352966 0.11914998292922974 0.047871001064777374
v 0.07412300258874893 0.18823999166488647 0.04728199914097786
v -0.2670609951019287 0.19621998071670532 0.03207400068640709
v -0.28405699133872986 0.12309998273849487 -0.05839100107550621
v -0.21287000179290771 0.07712000608444214 -0.05733000114560127
v -0.21287000179290771 0.07712000608444214 -0.05733000114560127
v -0.1463710069656372 0.06528997421264648 -0.05733000114560127
v -0.08928100019693375 0.07867002487182617 -0.05733000114560127
v -0.030615000054240227 0.06418997049331665 -0.05733000114560127
v 0.031877998262643814 0.07059997320175171 -0.05733000114560127
v 0.031877998262643814 0.07059997320175171 -0.05733000114560127
v 0.1045600026845932 0.11536997556686401 -0.05783100053668022
v 0.09836400300264359 0.19098997116088867 -0.06065500155091286
v -0.28402501344680786 0.1975799798965454 -0.06176299974322319
v -0.28405699133872986 0.12309998273849487 -0.05839100107550621
v -0.2653000056743622 0.1268799901008606 -0.15143899619579315
v -0.20383800566196442 0.08305001258850098 -0.14072200655937195
v -0.21287000179290771 0.07712000608444214 -0.05733000114560127
v -0.21287000179290771 0.07712000608444214 -0.05733000114560127
v -0.20383800566196442 0.08305001258850098 -0.14072200655937195
v -0.14289699494838715 0.07592999935150146 -0.13927899301052094
v -0.1463710069656372 0.06528997421264648 -0.05733000114560127
v -0.0892840027809143 0.0885699987411499 -0.13942399621009827
v -0.08928100019693375 0.07867002487182617 -0.05733000114560127
v -0.03418999910354614 0.07462000846862793 -0.13919800519943237
v -0.030615000054240227 0.06418997049331665 -0.05733000114560127
v 0.024156000465154648 0.07589000463485718 -0.14918400347232819
v 0.031877998262643814 0.07059997320175171 -0.05733000114560127
v 0.031877998262643814 0.07059997320175171 -0.05733000114560127
v 0.024156000465154648 0.07589000463485718 -0.14918400347232819
v 0.07752999663352966 0.11914998292922974 -0.16408899426460266
v 0.1045600026845932 0.11536997556686401 -0.05783100053668022
v 0.07412300258874893 0.18823999166488647 -0.1690180003643036
v 0.09836400300264359 0.19098997116088867 -0.06065500155091286
v -0.28402501344680786 0.1975799798965454 -0.06176299974322319
v -0.2670609951019287 0.19621998071670532 -0.15573400259017944
v -0.20358100533485413 0.14591997861862183 -0.20930300652980804
v -0.17159299552440643 0.1089400053024292 -0.2067909985780716
v -0.12964600324630737 0.1093900203704834 -0.19850599765777588
v -0.08929300308227539 0.11677998304367065 -0.19165100157260895
v -0.04822799935936928 0.10891002416610718 -0.1986140012741089
v -0.006680999882519245 0.10531002283096313 -0.2072419971227646
v 0.023933999240398407 0.13756000995635986 -0.21840800344944
v 0.023646000772714615 0.18317997455596924 -0.22020600736141205
v -0.21153099834918976 0.19012999534606934 -0.2166540026664734
v -0.14125999808311462 0.1609399914741516 -0.22189700603485107
v -0.12889400124549866 0.14516997337341309 -0.22058600187301636
v -0.11067300289869308 0.1378999948501587 -0.21827800571918488
v -0.08930200338363647 0.13701999187469482 -0.2163199931383133
v -0.06793200224637985 0.1378999948501587 -0.21805700659751892
v -0.04963799938559532 0.14515000581741333 -0.22039200365543365
v -0.037331998348236084 0.1610100269317627 -0.2217710018157959
v -0.031516000628471375 0.1781499981880188 -0.22743700444698334
v -0.1470640003681183 0.1780499815940857 -0.2277120053768158
v -0.0892380028963089 0.17751002311706543 0.09861599653959274
v -0.08924099802970886 0.17760998010635376 -0.2265090048313141
v 0.0028389999642968178 0.24972999095916748 0.050912000238895416
v -0.041703000664711 0.2497599720954895 0.0652099996805191
v -0.13707399368286133 0.2497599720954895 0.06524299830198288
v -0.18238000571727753 0.2521299719810486 0.04929399862885475
v 0.03463200107216835 0.2449600100517273 0.004947999957948923
v -0.21488599479198456 0.24997997283935547 -0.003056999994441867
v 0.043981000781059265 0.24611997604370117 -0.0651329979300499
v -0.22495800256729126 0.25054001808166504 -0.06659799814224243
v 0.03463200107216835 0.2449600100517273 -0.1352130025625229
v 0.043981000781059265 0.24611997604370117 -0.0651329979300499
v -0.22495800256729126 0.25054001808166504 -0.06659799814224243
v -0.2150139957666397 0.2500799894332886 -0.13006499409675598
v 0.002812999999150634 0.24970000982284546 -0.182545006275177
v -0.18250399827957153 0.2522500157356262 -0.1825219988822937
v -0.04170500114560127 0.25391000509262085 -0.20754499733448029
v -0.13714200258255005 0.25391000509262085 -0.20785200595855713
v -0.08938899636268616 0.24983000755310059 0.07111600041389465
v -0.0894239991903305 0.25394999980926514 -0.21422800421714783
v -0.01950399950146675 0.4005100131034851 0.005797999911010265
v -0.050926998257637024 0.4013199806213379 0.023516999557614326
v -0.11712399870157242 0.398639976978302 0.022505000233650208
v -0.14870299398899078 0.39781999588012695 0.004042999818921089
v 0.0027630000840872526 0.3978099822998047 -0.027652999386191368
v -0.1714860051870346 0.39674001932144165 -0.03240299969911575
v 0.009371999651193619 0.3988400101661682 -0.076384998857975
v -0.17826099693775177 0.3971700072288513 -0.07657299935817719
v 0.002865999937057495 0.39810001850128174 -0.12518900632858276
v 0.009371999651193619 0.3988400101661682 -0.076384998857975
v -0.17826099693775177 0.3971700072288513 -0.07657299935817719
v -0.17151600122451782 0.3967999815940857 -0.12069399654865265
v -0.019557999446988106 0.40025997161865234 -0.15936900675296783
v -0.14900800585746765 0.3984699845314026 -0.15735700726509094
v -0.050957001745700836 0.40074002742767334 -0.17742599546909332
v -0.11738599836826324 0.39955002069473267 -0.17671999335289001
v -0.08406200259923935 0.398389995098114 0.02729400061070919
v -0.08417300134897232 0.3992999792098999 -0.18174099922180176
v -0.13014699518680573 0.6203700304031372 -0.1240219995379448
v -0.1145239993929863 0.6217600107192993 -0.1504649966955185
v -0.13452599942684174 0.6205899715423584 -0.09302400052547455
v -0.13014699518680573 0.6203700304031372 -0.06202699989080429
v -0.13452599942684174 0.6205899715423584 -0.09302400052547455
v -0.1145239993929863 0.6217600107192993 -0.0355990007519722
v -0.09264300018548965 0.6231099963188171 -0.019903000444173813
v -0.06957899779081345 0.6225900053977966 -0.015475000254809856
v -0.046514999121427536 0.6223399639129639 -0.020865999162197113
v -0.025276999920606613 0.6199100017547607 -0.036591000854969025
v -0.010414999909698963 0.6173399686813354 -0.061234001070261
v -0.00611699977889657 0.617900013923645 -0.09302400052547455
v -0.010414999909698963 0.6173399686813354 -0.1248140037059784
v -0.00611699977889657 0.617900013923645 -0.09302400052547455
v -0.025276999920606613 0.6199100017547607 -0.14948099851608276
v -0.046514999121427536 0.6223399639129639 -0.16538000106811523
v -0.06957899779081345 0.6225900053977966 -0.17088299989700317
v -0.09264300018548965 0.6231099963188171 -0.16633999347686768
v -0.0906900018453598 0.8697400093078613 -0.1454949975013733
v -0.1473730057477951 0.9772499799728394 -0.18532200157642365
v -0.0878639966249466 0.9658899903297424 -0.2269670069217682
v -0.06389699876308441 0.8719199895858765 -0.16814599931240082
v -0.10971599817276001 0.8675299882888794 -0.11178799718618393
v -0.19135400652885437 0.9675300121307373 -0.1276170015335083
v -0.11469399929046631 0.8677999973297119 -0.07336699962615967
v -0.18721799552440643 0.9444900155067444 -0.06606599688529968
v -0.10971599817276001 0.8675299882888794 -0.03500499948859215
v -0.19096000492572784 0.967199981212616 -0.0010369999799877405
v -0.18721799552440643 0.9444900155067444 -0.06606599688529968
v -0.11469399929046631 0.8677999973297119 -0.07336699962615967
v -0.0906900018453598 0.8697400093078613 -0.0012410000199452043
v -0.14743299782276154 0.9767199754714966 0.05631000176072121
v -0.06389699876308441 0.8719199895858765 0.021400000900030136
v -0.08790799975395203 0.9666500091552734 0.09492400288581848
v -0.035659000277519226 0.8705700039863586 0.02787099964916706
v -0.03463200107216835 0.9444800019264221 0.10583300143480301
v -0.007418000139296055 0.8699399828910828 0.01864599995315075
v 0.015150999650359154 0.9191700220108032 0.08263900130987167
v 0.01858600042760372 0.8669700026512146 -0.0045079998672008514
v 0.05929199978709221 0.9194899797439575 0.04080300033092499
v 0.03677299991250038 0.8638100028038025 -0.03659500181674957
v 0.08999200165271759 0.9117900133132935 -0.010904000140726566
v 0.0418890006840229 0.8644999861717224 -0.07374899834394455
v 0.09591899812221527 0.8947399854660034 -0.07047799974679947
v 0.03677299991250038 0.8638100028038025 -0.11151699721813202
v 0.0899370014667511 0.911620020866394 -0.12789300084114075
v 0.09591899812221527 0.8947399854660034 -0.07047799974679947
v 0.0418890006840229 0.8644999861717224 -0.07374899834394455
v 0.01858600042760372 0.8669700026512146 -0.1435759961605072
v 0.0592540018260479 0.9198399782180786 -0.17884700000286102
v -0.007418000139296055 0.8699399828910828 -0.16616900265216827
v 0.015150999650359154 0.9193000197410583 -0.2208620011806488
v -0.035659000277519226 0.8705700039863586 -0.17525100708007812
v -0.034699998795986176 0.9444900155067444 -0.23949000239372253
v -0.14709100127220154 1.0024000406265259 0.0033859999384731054
v -0.09534499794244766 1.0045900344848633 0.03113899938762188
v -0.19096000492572784 0.967199981212616 -0.0010369999799877405
v -0.18721799552440643 0.9444900155067444 -0.06606599688529968
v -0.17655600607395172 0.9867900013923645 -0.06193000078201294
v -0.03203300014138222 0.9736199975013733 0.07240399718284607
v 0.025995999574661255 0.9668300151824951 0.021477000787854195
v 0.05849500000476837 0.9465600252151489 -0.010941999964416027
v 0.08999200165271759 0.9117900133132935 -0.010904000140726566
v 0.09591899812221527 0.8947399854660034 -0.07047799974679947
v 0.0899370014667511 0.911620020866394 -0.12789300084114075
v 0.08285800367593765 0.9376699924468994 -0.06586500257253647
v -0.19135400652885437 0.9675300121307373 -0.1276170015335083
v -0.1476060003042221 1.0036200284957886 -0.12230999767780304
v -0.09317100048065186 1.003909945487976 -0.13315699994564056
v -0.03360399976372719 0.9737100005149841 -0.19438700377941132
v 0.024946000427007675 0.9639099836349487 -0.12607499957084656
v 0.05810299888253212 0.9461600184440613 -0.12108500301837921
v -0.14819000661373138 1.0101499557495117 -0.058164000511169434
v -0.11939399689435959 1.022029995918274 -0.04870999976992607
v 0.046936001628637314 0.9603999853134155 -0.06302300095558167
v 0.06785400211811066 0.9521399736404419 -0.06463000178337097
v 0.08285800367593765 0.9376699924468994 -0.06586500257253647
v -0.17655600607395172 0.9867900013923645 -0.06193000078201294
v -0.14819000661373138 1.0101499557495117 -0.058164000511169434
v -0.11939399689435959 1.022029995918274 -0.04870999976992607
v 0.046936001628637314 0.9603999853134155 -0.06302300095558167
v 0.06785400211811066 0.9521399736404419 -0.06463000178337097
v 0.006610000040382147 1.0334700345993042 0.02154099941253662
v -0.020873000845313072 1.0483800172805786 -0.0035600000992417336
v -0.03148899972438812 1.06768000125885 -0.05105099827051163
v 0.05016399919986725 1.0170799493789673 -0.05860099941492081
v 0.03725000098347664 1.0204399824142456 -0.008679999969899654
v -0.03148899972438812 1.06768000125885 -0.05105099827051163
v -0.01928500086069107 1.0471700429916382 -0.10134799778461456
v 0.005890999920666218 1.0335700511932373 -0.13594700396060944
v 0.03626300022006035 1.0188299417495728 -0.09579399973154068
v 0.05016399919986725 1.0170799493789673 -0.05860099941492081
v 0.09591899812221527 0.8947399854660034 -0.07047799974679947
v -0.18721799552440643 0.9444900155067444 -0.06606599688529968
v 0.016692999750375748 0.013700008392333984 -0.21238599717617035
v -0.03605499863624573 -0.033615946769714355 -0.2273149937391281
v -0.034974999725818634 0.03342998027801514 -0.26645898818969727
v 0.018851999193429947 0.05338001251220703 -0.2334049940109253
v 0.016692999750375748 0.22029000520706177 -0.213360995054245
v -0.03605499863624573 0.2685999870300293 -0.22532999515533447
v -0.029332999140024185 0.2895200252532959 -0.1341480016708374
v 0.03013700060546398 0.24453002214431763 -0.1341480016708374
v -0.029332999140024185 -0.04007899761199951 -0.1341480016708374
v 0.03013700060546398 0.004909992218017578 -0.1341480016708374
v 0.03500499948859215 0.12471997737884521 -0.1341480016708374
v -0.02689800038933754 0.12471997737884521 -0.1341480016708374
v 0.03013700060546398 0.004909992218017578 -0.1341480016708374
v -0.029332999140024185 -0.04007899761199951 -0.1341480016708374
v -0.19429700076580048 0.013700008392333984 -0.21238599717617035
v -0.20774100720882416 0.004909992218017578 -0.1341480016708374
v -0.21260899305343628 0.12471997737884521 -0.1341480016708374
v -0.19645600020885468 0.05338001251220703 -0.2334049940109253
v 0.03013700060546398 0.004909992218017578 -0.1341480016708374
v 0.03500499948859215 0.12471997737884521 -0.1341480016708374
v -0.08880200237035751 0.27983999252319336 -0.2254280000925064
v -0.1415490061044693 0.2685999870300293 -0.22532999515533447
v -0.14827199280261993 0.2895200252532959 -0.1341480016708374
v -0.08880200237035751 0.30121999979019165 -0.1341480016708374
v -0.14827199280261993 -0.04007899761199951 -0.1341480016708374
v -0.08880200237035751 -0.051779985427856445 -0.1341480016708374
v -0.08880200237035751 0.12471997737884521 -0.1341480016708374
v -0.1507059931755066 0.12471997737884521 -0.1341480016708374
v -0.08880200237035751 -0.04481697082519531 -0.2281080037355423
v -0.08880200237035751 -0.051779985427856445 -0.1341480016708374
v -0.14827199280261993 -0.04007899761199951 -0.1341480016708374
v -0.1415490061044693 -0.033615946769714355 -0.2273149937391281
v -0.08880200237035751 0.02824002504348755 -0.27038800716400146
v -0.1426289975643158 0.03342998027801514 -0.26645898818969727
v -0.19429700076580048 0.22029000520706177 -0.213360995054245
v -0.20774100720882416 0.24453002214431763 -0.1341480016708374
v -0.21260899305343628 0.12471997737884521 -0.1341480016708374
v -0.20774100720882416 0.004909992218017578 -0.1341480016708374
v -0.20774100720882416 0.004909992218017578 -0.1341480016708374
v -0.1426289975643158 0.19780999422073364 -0.2707209885120392
v -0.1437080055475235 0.12471997737884521 -0.2795259952545166
v -0.19861499965190887 0.12471997737884521 -0.24102400243282318
v -0.19645600020885468 0.17786002159118652 -0.2376669943332672
v -0.08880200237035751 0.203000009059906 -0.2746500074863434
v -0.08880200237035751 0.12471997737884521 -0.2834550142288208
v -0.034974999725818634 0.19780999422073364 -0.2707209885120392
v -0.03389599919319153 0.12471997737884521 -0.2795259952545166
v 0.021011000499129295 0.12471997737884521 -0.24102400243282318
v 0.018851999193429947 0.17786002159118652 -0.2376669943332672
v 0.03013700060546398 0.24453002214431763 -0.1341480016708374
v -0.029332999140024185 0.2895200252532959 -0.1341480016708374
v -0.08880200237035751 0.30121999979019165 -0.1341480016708374
v -0.14827199280261993 0.2895200252532959 -0.1341480016708374
v -0.20774100720882416 0.24453002214431763 -0.1341480016708374
v 0.03013700060546398 0.24453002214431763 -0.1341480016708374
v -0.20774100720882416 0.24453002214431763 -0.1341480016708374
v -0.047534000128507614 -0.03211104869842529 0.07312200218439102
v 0.0014990000054240227 -0.007480025291442871 0.06454800069332123
v -0.05092399939894676 0.012910008430480957 0.05625399947166443
v -0.06934700161218643 -0.01577305793762207 0.06986500322818756
v -0.08816099911928177 0.006630003452301025 0.05102299898862839
v -0.08889099955558777 -0.014170050621032715 0.06860800087451935
v -0.12549400329589844 0.01603001356124878 0.05639199912548065
v -0.10850100219249725 -0.014400005340576172 0.07015399634838104
v -0.17803600430488586 0.004989981651306152 0.06761699914932251
v -0.1314609944820404 -0.029178977012634277 0.07301100343465805
v -0.19404999911785126 -0.05795896053314209 0.0752200037240982
v -0.13286800682544708 -0.05486404895782471 0.07854799926280975
v -0.047940999269485474 -0.05774796009063721 0.07884100079536438
v 0.021144000813364983 -0.07267200946807861 0.07318799942731857
v 0.045361001044511795 0.0140799880027771 0.017893999814987183
v -0.037567999213933945 0.0468599796295166 0.011435999535024166
v -0.08714199811220169 0.03560000658035278 0.012124000117182732
v -0.13710899651050568 0.0517200231552124 0.011277000419795513
v -0.21583999693393707 0.030920028686523438 0.024932000786066055
v -0.21583999693393707 0.030920028686523438 0.024932000786066055
v -0.2404720038175583 -0.06153404712677002 0.037748001515865326
v 0.07179799675941467 -0.08071601390838623 0.02861100062727928
v 0.045361001044511795 0.0140799880027771 0.017893999814987183
v 0.05826700106263161 0.018620014190673828 -0.047665998339653015
v -0.03400000184774399 0.05768001079559326 -0.05076500028371811
v -0.0867839977145195 0.0457800030708313 -0.05030500143766403
v -0.14000700414180756 0.06253999471664429 -0.05088600143790245
v -0.23159299790859222 0.03614997863769531 -0.04868200048804283
v -0.23159299790859222 0.03614997863769531 -0.04868200048804283
v -0.2627770006656647 -0.06357502937316895 -0.041731998324394226
v 0.08728999644517899 -0.08266603946685791 -0.04021700099110603
v 0.05826700106263161 0.018620014190673828 -0.047665998339653015
v 0.05826700106263161 0.018620014190673828 -0.047665998339653015
v 0.045361001044511795 0.0140799880027771 -0.11087899655103683
v -0.037567999213933945 0.0468599796295166 -0.1088780015707016
v -0.03400000184774399 0.05768001079559326 -0.05076500028371811
v -0.08714199811220169 0.03560000658035278 -0.10916399955749512
v -0.0867839977145195 0.0457800030708313 -0.05030500143766403
v -0.13710899651050568 0.0517200231552124 -0.1092969998717308
v -0.14000700414180756 0.06253999471664429 -0.05088600143790245
v -0.21583999693393707 0.030920028686523438 -0.11976300179958344
v -0.23159299790859222 0.03614997863769531 -0.04868200048804283
v -0.23159299790859222 0.03614997863769531 -0.04868200048804283
v -0.21583999693393707 0.030920028686523438 -0.11976300179958344
v -0.2404720038175583 -0.06153404712677002 -0.1205030009150505
v -0.2627770006656647 -0.06357502937316895 -0.041731998324394226
v 0.08728999644517899 -0.08266603946685791 -0.04021700099110603
v 0.07179799675941467 -0.08071601390838623 -0.10885400325059891
v 0.045361001044511795 0.0140799880027771 -0.11087899655103683
v 0.05826700106263161 0.018620014190673828 -0.047665998339653015
v 0.0014990000054240227 -0.007480025291442871 -0.1534769982099533
v -0.05096200108528137 0.012839972972869873 -0.15700000524520874
v -0.08824300020933151 0.006470024585723877 -0.1619420051574707
v -0.12553000450134277 0.01596999168395996 -0.157369002699852
v -0.17803600430488586 0.004989981651306152 -0.15808600187301636
v -0.19406600296497345 -0.05798900127410889 -0.1606760025024414
v 0.021136000752449036 -0.07268595695495605 -0.1544789969921112
v -0.04769299924373627 -0.03240001201629639 -0.1929910033941269
v -0.06951499730348587 -0.016078948974609375 -0.19650499522686005
v -0.08907199651002884 -0.014500021934509277 -0.1983329951763153
v -0.10866899788379669 -0.014700055122375488 -0.19731199741363525
v -0.13160200417041779 -0.029472947120666504 -0.19352400302886963
v -0.14347399771213531 -0.054823994636535645 -0.19258399307727814
v -0.03761500120162964 -0.05844402313232422 -0.1922059953212738
v -0.09042300283908844 -0.05577802658081055 0.07670299708843231
v -0.09070300310850143 -0.05636405944824219 -0.2204809933900833
v -0.17802199721336365 -0.12763702869415283 0.05141700059175491
v -0.11874199658632278 -0.1349550485610962 0.07120399922132492
v -0.06752199679613113 -0.13675498962402344 0.07150299847126007
v -0.0067529999651014805 -0.13682901859283447 0.05215200036764145
v -0.20638500154018402 -0.12108802795410156 0.014895999804139137
v 0.0235580001026392 -0.13570702075958252 0.01216800045222044
v -0.2149910032749176 -0.12199294567108154 -0.03802400082349777
v 0.03276899829506874 -0.13650596141815186 -0.03636699914932251
v -0.20638500154018402 -0.12108802795410156 -0.09088599681854248
v -0.2149910032749176 -0.12199294567108154 -0.03802400082349777
v 0.03276899829506874 -0.13650596141815186 -0.03636699914932251
v 0.0235580001026392 -0.13570702075958252 -0.0850209966301918
v -0.17807400226593018 -0.1277329921722412 -0.13678300380706787
v -0.006798999849706888 -0.1369110345840454 -0.13425199687480927
v -0.13759300112724304 -0.13461005687713623 -0.18003199994564056
v -0.04901399835944176 -0.13772404193878174 -0.17975500226020813
v -0.09340199828147888 -0.1363459825515747 -0.20501799881458282
v -0.12282899767160416 -0.23805701732635498 0.02892399951815605
v -0.096390001475811 -0.24280202388763428 0.04310600087046623
v -0.06734400242567062 -0.24382305145263672 0.04305800050497055
v -0.04739600047469139 -0.24302101135253906 0.02892399951815605
v -0.1308699995279312 -0.23372602462768555 0.003754999954253435
v -0.05445700138807297 -0.24117803573608398 0.0019650000613182783
v -0.12899599969387054 -0.20434105396270752 -0.031050000339746475
v -0.04687400162220001 -0.21145999431610107 -0.03048899956047535
v -0.12408799678087234 -0.2340240478515625 -0.071834996342659
v -0.12899599969387054 -0.20434105396270752 -0.031050000339746475
v -0.04687400162220001 -0.21145999431610107 -0.03048899956047535
v -0.054464999586343765 -0.24119305610656738 -0.06449099630117416
v -0.13609400391578674 -0.23775696754455566 -0.10674700140953064
v -0.031909000128507614 -0.2437269687652588 -0.10619699954986572
v -0.10661700367927551 -0.24284005165100098 -0.14382700622081757
v -0.042034000158309937 -0.245108962059021 -0.14389599859714508
v -0.07438100129365921 -0.24407696723937988 -0.1582310050725937
v -0.024380000308156013 -0.4355599880218506 -0.061413999646902084
v -0.013767000287771225 -0.4377239942550659 -0.08856099843978882
v -0.00022499999613501132 -0.3998119831085205 0.05852099880576134
v -0.013563999906182289 -0.4099489450454712 0.032009001821279526
v -0.03868800029158592 -0.3928910493850708 0.07428500056266785
v -0.07170700281858444 -0.39100801944732666 0.07270699739456177
v -0.09037800133228302 -0.394415020942688 0.05565200001001358
v -0.09473899751901627 -0.40248894691467285 0.029777999967336655
v -0.09312800318002701 -0.43279099464416504 -0.08773700147867203
v -0.08305899798870087 -0.4299880266189575 -0.062401000410318375
v -0.07136200368404388 -0.4365370273590088 -0.11283999681472778
v -0.047564998269081116 -0.4377189874649048 -0.1212339997291565
v -0.023713000118732452 -0.43910694122314453 -0.11371999979019165
v -0.031154999509453773 -0.5337799787521362 -0.0865039974451065
v -0.031615000218153 -0.5335129499435425 -0.08748800307512283
v -0.03137100115418434 -0.5339759588241577 -0.08551499992609024
v -0.03420199826359749 -0.5330760478973389 -0.08657199889421463
v -0.0339989997446537 -0.533236026763916 -0.08552300184965134
v -0.03294600173830986 -0.5330990552902222 -0.08762700110673904
v -0.032607998698949814 -0.532256007194519 -0.08519800007343292
v -0.05143199861049652 -0.4324359893798828 -0.05340399965643883
v -0.0810139998793602 -0.2609879970550537 -0.053839001804590225
v -0.08094599843025208 -0.2631549835205078 -0.01587199978530407
v -0.050574999302625656 -0.407789945602417 0.012914000079035759
v -0.08036600053310394 -0.24432599544525146 -0.029929999262094498
v -0.08036600053310394 -0.24432599544525146 -0.029929999262094498
v -0.0810139998793602 -0.2609879970550537 -0.053839001804590225
v -0.05143199861049652 -0.4324359893798828 -0.05340399965643883
v -0.032607998698949814 -0.532256007194519 -0.08519800007343292
v -0.08094599843025208 -0.2631549835205078 -0.01587199978530407
v -0.050574999302625656 -0.407789945602417 0.012914000079035759
v -0.08036600053310394 -0.24432599544525146 -0.029929999262094498
v -0.08036600053310394 -0.24432599544525146 -0.029929999262094498
v -0.013563999906182289 -0.4099489450454712 0.032009001821279526
v -0.00022499999613501132 -0.3998119831085205 0.05852099880576134
v -0.047547999769449234 -0.39281904697418213 0.043671999126672745
v -0.03868800029158592 -0.3928910493850708 0.07428500056266785
v -0.07170700281858444 -0.39100801944732666 0.07270699739456177
v -0.09037800133228302 -0.394415020942688 0.05565200001001358
v -0.09473899751901627 -0.40248894691467285 0.029777999967336655
v -0.050574999302625656 -0.407789945602417 0.012914000079035759

vn -0.08594000339508057 -0.9688839912414551 0.2321159988641739
vn 0.5867099761962891 -0.6827009916305542 0.4355359971523285
vn -0.14679700136184692 -0.2978470027446747 0.9432590007781982
vn -0.3744780123233795 -0.840008020401001 0.39262300729751587
vn -0.3744780123233795 -0.840008020401001 0.39262300729751587
vn -0.14679700136184692 -0.2978470027446747 0.9432590007781982
vn -0.8981350064277649 0.080874003469944 0.4322179853916168
vn -0.6748629808425903 -0.6972330212593079 0.24171499907970428
vn -0.9306870102882385 -0.053171999752521515 -0.36193200945854187
vn -0.673583984375 -0.7364630103111267 -0.0625
vn -0.23928099870681763 -0.559785008430481 -0.7933380007743835
vn -0.3904469907283783 -0.90037602186203 -0.1920280009508133
vn -0.3904469907283783 -0.90037602186203 -0.1920280009508133
vn -0.23928099870681763 -0.559785008430481 -0.7933380007743835
vn 0.5247049927711487 -0.786529004573822 -0.3256640136241913
vn -0.10363700240850449 -0.9934200048446655 -0.04874100163578987
vn 0.9306830167770386 0.05316099897027016 0.3619450032711029
vn 0.23928000032901764 0.5597609877586365 0.7933549880981445
vn 0.23928000032901764 0.5597609877586365 0.7933549880981445
vn -0.5246809720993042 0.7865409851074219 0.32567301392555237
vn -0.569570004940033 0.6962720155715942 -0.4368009865283966
vn 0.1662980020046234 0.31789299845695496 -0.9334290027618408
vn 0.1662980020046234 0.31789299845695496 -0.9334290027618408
vn 0.8986110091209412 -0.0681150034070015 -0.43342700600624084
vn 0.7110580205917358 0.6979990005493164 0.08480899780988693
vn 0.38664400577545166 0.8917229771614075 0.23523899912834167
vn 0.38664400577545166 0.8917229771614075 0.23523899912834167
vn 0.05266999825835228 0.9961580038070679 0.06995999813079834
vn 0.07012200355529785 0.9584479928016663 -0.27651599049568176
vn 0.36606600880622864 0.802049994468689 -0.4719240069389343
vn 0.36606600880622864 0.802049994468689 -0.4719240069389343
vn 0.6849120259284973 0.6698570251464844 -0.28668099641799927
vn -0.39662599563598633 -0.9136520028114319 0.0890439972281456
vn -0.39662599563598633 -0.9136520028114319 0.0890439972281456
vn 0.3962149918079376 0.9094849824905396 -0.125901997089386
vn 0.3962149918079376 0.9094849824905396 -0.125901997089386
vn -0.05269499868154526 -0.10801199823617935 0.9927520155906677
vn -0.38174599409103394 -0.24458299577236176 0.8913189768791199
vn -0.13625699281692505 -0.561922013759613 0.8158910274505615
vn 0.009266999550163746 -0.154666006565094 0.9879230260848999
vn 0.1319340020418167 -0.7310119867324829 0.6694880127906799
vn 0.11582300066947937 -0.3276180028915405 0.9376839995384216
vn -0.004503999836742878 -0.769241988658905 0.6389420032501221
vn 0.0007040000054985285 -0.39245301485061646 0.9197720289230347
vn -0.17742300033569336 -0.7205979824066162 0.6702679991722107
vn -0.12705600261688232 -0.32540398836135864 0.9369999766349792
vn 0.03326300159096718 -0.5798180103302002 0.814067006111145
vn -0.06044900044798851 -0.1700029969215393 0.9835879802703857
vn 0.30485999584198 -0.21841299533843994 0.9270150065422058
vn -0.015549999661743641 -0.09312199801206589 0.9955329895019531
vn 0.39814698696136475 0.3357039988040924 0.8536869883537292
vn 0.03079099953174591 0.18774299323558807 0.9817349910736084
vn -0.06017100065946579 0.15756399929523468 0.9856740236282349
vn -0.4277079999446869 0.29469799995422363 0.85452800989151
vn -0.7713339924812317 -0.4307529926300049 0.46850401163101196
vn -0.31667599081993103 -0.8831769824028015 0.34599998593330383
vn -0.31667599081993103 -0.8831769824028015 0.34599998593330383
vn 0.07472400367259979 -0.9525129795074463 0.2951889932155609
vn -0.006738000083714724 -0.9512799978256226 0.3082540035247803
vn -0.13561800122261047 -0.9469249844551086 0.2914479970932007
vn 0.24954700469970703 -0.9025449752807617 0.3509109914302826
vn 0.24954700469970703 -0.9025449752807617 0.3509109914302826
vn 0.7730290293693542 -0.39744600653648376 0.4944309890270233
vn 0.8122209906578064 0.3894830048084259 0.43428099155426025
vn -0.8208349943161011 0.3874630033969879 0.4196450114250183
vn -0.87711501121521 -0.4802800118923187 0.00037299998803064227
vn -0.35834801197052 -0.9335880279541016 0.0003370000049471855
vn -0.35834801197052 -0.9335880279541016 0.0003370000049471855
vn 0.04210299998521805 -0.9991130232810974 0.0002010000025620684
vn -0.007036000024527311 -0.9999750256538391 0.0001939999929163605
vn -0.09425900131464005 -0.9955480098724365 0.00010800000018207356
vn 0.3199689984321594 -0.9474279880523682 0.00020599999697878957
vn 0.3199689984321594 -0.9474279880523682 0.00020599999697878957
vn 0.8956909775733948 -0.444676011800766 0.00040099999750964344
vn 0.919750988483429 0.3925029933452606 -0.00024300000222865492
vn -0.9168559908866882 0.39921900629997253 -0.0001340000017080456
vn -0.87711501121521 -0.4802800118923187 0.00037299998803064227
vn -0.7623220086097717 -0.45889100432395935 -0.45638200640678406
vn -0.3136169910430908 -0.8881769776344299 -0.3358370065689087
vn -0.35834801197052 -0.9335880279541016 0.0003370000049471855
vn -0.35834801197052 -0.9335880279541016 0.0003370000049471855
vn -0.3136169910430908 -0.8881769776344299 -0.3358370065689087
vn 0.07234500348567963 -0.9555360078811646 -0.285861998796463
vn 0.04210299998521805 -0.9991130232810974 0.0002010000025620684
vn -0.006308000069111586 -0.9548919796943665 -0.29688799381256104
vn -0.007036000024527311 -0.9999750256538391 0.0001939999929163605
vn -0.13210700452327728 -0.9499949812889099 -0.28294500708580017
vn -0.09425900131464005 -0.9955480098724365 0.00010800000018207356
vn 0.24897100031375885 -0.906112015247345 -0.34201499819755554
vn 0.3199689984321594 -0.9474279880523682 0.00020599999697878957
vn 0.3199689984321594 -0.9474279880523682 0.00020599999697878957
vn 0.24897100031375885 -0.906112015247345 -0.34201499819755554
vn 0.7671290040016174 -0.4220860004425049 -0.4830699861049652
vn 0.8956909775733948 -0.444676011800766 0.00040099999750964344
vn 0.8274350166320801 0.3522619903087616 -0.4373359978199005
vn 0.919750988483429 0.3925029933452606 -0.00024300000222865492
vn -0.9168559908866882 0.39921900629997253 -0.0001340000017080456
vn -0.835660994052887 0.34904199838638306 -0.42407500743865967
vn -0.39799100160598755 -0.32432401180267334 -0.8581470251083374
vn -0.1499760001897812 -0.616349995136261 -0.7730590105056763
vn 0.1190439984202385 -0.7709749937057495 -0.6256409883499146
vn -0.0033080000430345535 -0.8053140044212341 -0.5928400158882141
vn -0.16186299920082092 -0.7612519860267639 -0.6279299855232239
vn 0.05229400098323822 -0.6309329867362976 -0.7740730047225952
vn 0.3301829993724823 -0.2942889928817749 -0.8968690037727356
vn 0.46358001232147217 0.2406879961490631 -0.8527380228042603
vn -0.48359501361846924 0.1963929980993271 -0.8529750108718872
vn -0.0886560007929802 -0.22025500237941742 -0.971405029296875
vn -0.01849599927663803 -0.27015700936317444 -0.9626380205154419
vn 0.09678799659013748 -0.4341390132904053 -0.8956310153007507
vn 0.0020240000449121 -0.492139995098114 -0.8705139756202698
vn -0.10343299806118011 -0.4313569962978363 -0.8962330222129822
vn -0.02747200056910515 -0.2835170030593872 -0.9585739970207214
vn 0.0272390004247427 -0.2037149965763092 -0.9786509871482849
vn 0.10177300125360489 0.049281999468803406 -0.993586003780365
vn -0.11974500119686127 0.016534000635147095 -0.992667019367218
vn -0.000582000007852912 -0.0037640000227838755 0.9999930262565613
vn 0.0022239999379962683 -0.14119599759578705 -0.9899790287017822
vn 0.5026040077209473 0.46396198868751526 0.7294719815254211
vn 0.16022799909114838 0.38103100657463074 0.9105719923973083
vn -0.1649480015039444 0.39346399903297424 0.9044219851493835
vn -0.49570098519325256 0.5050839781761169 0.7065200209617615
vn 0.8080639839172363 0.4786750078201294 0.3433699905872345
vn -0.775484025478363 0.5448499917984009 0.31900298595428467
vn 0.8868079781532288 0.4621390104293823 -0.00010299999848939478
vn -0.8422330021858215 0.5391129851341248 1.1000000085914508e-05
vn 0.8269370198249817 0.43995699286460876 -0.35016098618507385
vn 0.8868079781532288 0.4621390104293823 -0.00010299999848939478
vn -0.8422330021858215 0.5391129851341248 1.1000000085914508e-05
vn -0.794937014579773 0.5109879970550537 -0.32705599069595337
vn 0.5795270204544067 0.37274500727653503 -0.7247139811515808
vn -0.5677899718284607 0.42056500911712646 -0.7076290249824524
vn 0.24236999452114105 0.2640480101108551 -0.9335610270500183
vn -0.23605699837207794 0.27938899397850037 -0.9307090044021606
vn -0.005111000034958124 0.34494999051094055 0.9386069774627686
vn -0.0005189999938011169 0.2139499932527542 -0.9768440127372742
vn 0.6628999710083008 0.22335100173950195 0.7146180272102356
vn 0.2967030107975006 0.23286999762058258 0.9261419773101807
vn -0.3035300076007843 0.26232901215553284 0.9159989953041077
vn -0.6617879867553711 0.28575399518013 0.6930959820747375
vn 0.9231560230255127 0.18316000699996948 0.3379859924316406
vn -0.9049370288848877 0.2711549997329712 0.3279690146446228
vn 0.9892230033874512 0.14641399681568146 0.0007459999760612845
vn -0.9689139723777771 0.2473980039358139 0.0002300000051036477
vn 0.9304980039596558 0.13428999483585358 -0.34079301357269287
vn 0.9892230033874512 0.14641399681568146 0.0007459999760612845
vn -0.9689139723777771 0.2473980039358139 0.0002300000051036477
vn -0.9158639907836914 0.22756999731063843 -0.3307639956474304
vn 0.6957209706306458 0.12888100743293762 -0.7066550254821777
vn -0.6993680000305176 0.20053799450397491 -0.6860529780387878
vn 0.3415620028972626 0.12797999382019043 -0.9311050176620483
vn -0.3442719876766205 0.16377000510692596 -0.9244760274887085
vn -0.006674000062048435 0.23791800439357758 0.9712619781494141
vn -0.0007319999858736992 0.1362829953432083 -0.9906700253486633
vn -0.9364820122718811 0.13010799884796143 -0.3256889879703522
vn -0.7379729747772217 0.10696599632501602 -0.666297972202301
vn -0.9908000230789185 0.13533200323581696 5.2999999752501026e-05
vn -0.9361760020256042 0.12834599614143372 0.3272649943828583
vn -0.9908000230789185 0.13533200323581696 5.2999999752501026e-05
vn -0.7342699766159058 0.10284800082445145 0.6710209846496582
vn -0.39254000782966614 0.05797699838876724 0.9179059863090515
vn 0.01255400013178587 0.011912999674677849 0.9998499751091003
vn 0.4055910110473633 -0.015860000625252724 0.9139170050621033
vn 0.7309120297431946 -0.03445899859070778 0.6816009879112244
vn 0.9404309988021851 -0.05279399827122688 0.335860013961792
vn 0.9981529712677002 -0.06075200065970421 0.000522000016644597
vn 0.9407240152359009 -0.053401000797748566 -0.3349420130252838
vn 0.9981529712677002 -0.06075200065970421 0.000522000016644597
vn 0.7323369979858398 -0.036093998700380325 -0.679984986782074
vn 0.411624014377594 -0.015301999635994434 -0.9112250208854675
vn 0.014302000403404236 0.018028000369668007 -0.9997349977493286
vn -0.3997829854488373 0.0648299977183342 -0.9143139719963074
vn -0.7148849964141846 -0.2505269944667816 -0.6528210043907166
vn -0.6884729862213135 0.21211400628089905 -0.6935510039329529
vn -0.3424929976463318 0.2834480106830597 -0.8957430124282837
vn -0.46261799335479736 -0.27723199129104614 -0.8420969843864441
vn -0.8895580172538757 -0.28510698676109314 -0.35693201422691345
vn -0.9578729867935181 0.14341199398040771 -0.24882400035858154
vn -0.9471250176429749 -0.3208639919757843 -0.0002570000069681555
vn -0.9705460071563721 -0.24091200530529022 0.0013500000350177288
vn -0.8751599788665771 -0.3320600092411041 0.3518970012664795
vn -0.9585000276565552 0.12072499841451645 0.2582699954509735
vn -0.9705460071563721 -0.24091200530529022 0.0013500000350177288
vn -0.9471250176429749 -0.3208639919757843 -0.0002570000069681555
vn -0.6893389821052551 -0.3376980125904083 0.6409149765968323
vn -0.7011409997940063 0.12248100340366364 0.7024239897727966
vn -0.4398770034313202 -0.38538500666618347 0.8111640214920044
vn -0.3654550015926361 0.16114899516105652 0.9167730212211609
vn -0.07010599970817566 -0.47305700182914734 0.8782380223274231
vn 0.15157300233840942 0.002435999922454357 0.9884430170059204
vn 0.35495999455451965 -0.5268920063972473 0.7722619771957397
vn 0.5949580073356628 -0.11153800040483475 0.7959799766540527
vn 0.6314359903335571 -0.5220270156860352 0.573390007019043
vn 0.7991870045661926 -0.09590599685907364 0.5933830142021179
vn 0.7739650011062622 -0.5379679799079895 0.3340190052986145
vn 0.9488419890403748 0.004819999914616346 0.3157149851322174
vn 0.8362810015678406 -0.5483009815216064 -0.0004799999878741801
vn 0.9455639719963074 -0.32543501257896423 -0.0010770000517368317
vn 0.7953220009803772 -0.5005149841308594 -0.34197598695755005
vn 0.9485780000686646 0.03778399899601936 -0.3142800033092499
vn 0.9455639719963074 -0.32543501257896423 -0.0010770000517368317
vn 0.8362810015678406 -0.5483009815216064 -0.0004799999878741801
vn 0.662356972694397 -0.45336100459098816 -0.5964459776878357
vn 0.7883970141410828 0.013023000210523605 -0.615028977394104
vn 0.376895010471344 -0.4336540102958679 -0.8184710144996643
vn 0.5802000164985657 0.03761199861764908 -0.813605010509491
vn -0.07279299944639206 -0.36119699478149414 -0.929643988609314
vn 0.16030600666999817 0.13701799511909485 -0.9775109887123108
vn -0.44665899872779846 0.8451610207557678 0.2935959994792938
vn -0.18402500450611115 0.8622170090675354 0.4719280004501343
vn -0.9585000276565552 0.12072499841451645 0.2582699954509735
vn -0.9705460071563721 -0.24091200530529022 0.0013500000350177288
vn -0.8435310125350952 0.5370460152626038 0.006155999843031168
vn 0.3396959900856018 0.6401820182800293 0.6890379786491394
vn 0.7416120171546936 0.48602500557899475 0.4623749852180481
vn 0.6495169997215271 0.7060980200767517 0.28205201029777527
vn 0.9488419890403748 0.004819999914616346 0.3157149851322174
vn 0.9455639719963074 -0.32543501257896423 -0.0010770000517368317
vn 0.9485780000686646 0.03778399899601936 -0.3142800033092499
vn 0.8627129793167114 0.5056939721107483 0.000977999996393919
vn -0.9578729867935181 0.14341199398040771 -0.24882400035858154
vn -0.37561100721359253 0.8915680050849915 -0.253028005361557
vn -0.1542239934206009 0.9051600098609924 -0.39610499143600464
vn 0.3546369969844818 0.7261959910392761 -0.5889589786529541
vn 0.7059249877929688 0.5651969909667969 -0.4268749952316284
vn 0.5657950043678284 0.7814630270004272 -0.26304298639297485
vn -0.4352160096168518 0.9002519845962524 0.011579000391066074
vn -0.3147990107536316 0.9491400122642517 0.005919000133872032
vn 0.8661230206489563 0.49862799048423767 -0.03465399891138077
vn 0.6063089966773987 0.7952119708061218 -0.005127999931573868
vn 0.8627129793167114 0.5056939721107483 0.000977999996393919
vn -0.8435310125350952 0.5370460152626038 0.006155999843031168
vn -0.4352160096168518 0.9002519845962524 0.011579000391066074
vn -0.3147990107536316 0.9491400122642517 0.005919000133872032
vn 0.8661230206489563 0.49862799048423767 -0.03465399891138077
vn 0.6063089966773987 0.7952119708061218 -0.005127999931573868
vn 0.31307798624038696 0.523455023765564 0.7924500107765198
vn -0.27018600702285767 0.8032709956169128 0.5308060050010681
vn -0.42139700055122375 0.9068729877471924 -0.002428000094369054
vn 0.9978780150413513 -0.04526200145483017 -0.046817999333143234
vn 0.865103006362915 0.06799399852752686 0.4969649910926819
vn -0.42139700055122375 0.9068729877471924 -0.002428000094369054
vn -0.3274329900741577 0.8193389773368835 -0.4706070125102997
vn 0.33539900183677673 0.5710949897766113 -0.7492380142211914
vn 0.8743770122528076 0.05553700029850006 -0.4820599853992462
vn 0.9978780150413513 -0.04526200145483017 -0.046817999333143234
vn 0.9455639719963074 -0.32543501257896423 -0.0010770000517368317
vn -0.9705460071563721 -0.24091200530529022 0.0013500000350177288
vn 0.8131179809570312 -0.4539259970188141 -0.36440399289131165
vn 0.43313899636268616 -0.7476230263710022 -0.5034379959106445
vn 0.34984898567199707 -0.30665498971939087 -0.8851940035820007
vn 0.853289008140564 -0.17399699985980988 -0.4915519952774048
vn 0.7979130148887634 0.44853898882865906 -0.402675986289978
vn 0.4133859872817993 0.7247610092163086 -0.5512120127677917
vn 0.34459900856018066 0.6994779706001282 0.6260849833488464
vn 0.8547530174255371 0.41796401143074036 0.3077389895915985
vn 0.3203530013561249 -0.6605380177497864 0.6790170073509216
vn 0.8319069743156433 -0.4177260100841522 0.36528900265693665
vn 0.9390230178833008 0.0017559999832883477 0.3438510000705719
vn -0.0 0.0 1.0
vn 0.8319069743156433 -0.4177260100841522 0.36528900265693665
vn 0.3203530013561249 -0.6605380177497864 0.6790170073509216
vn -0.8131179809570312 -0.4539250135421753 -0.3644059896469116
vn -0.8319090008735657 -0.41772401332855225 0.36528700590133667
vn -0.9390230178833008 0.0017559999832883477 0.3438510000705719
vn -0.853289008140564 -0.17399699985980988 -0.4915519952774048
vn 0.8319069743156433 -0.4177260100841522 0.36528900265693665
vn 0.9390230178833008 0.0017559999832883477 0.3438510000705719
vn 0.0 0.8137999773025513 -0.5811439752578735
vn -0.4133859872817993 0.7247599959373474 -0.5512120127677917
vn -0.34459999203681946 0.6994779706001282 0.6260849833488464
vn 9.999999974752427e-07 0.7774270176887512 0.6289730072021484
vn -0.32035401463508606 -0.6605380177497864 0.6790159940719604
vn 9.999999974752427e-07 -0.7269260287284851 0.6867160201072693
vn -0.0 0.0 1.0
vn -0.0 0.0 1.0
vn 0.0 -0.8446699976921082 -0.5352870225906372
vn 9.999999974752427e-07 -0.7269260287284851 0.6867160201072693
vn -0.32035401463508606 -0.6605380177497864 0.6790159940719604
vn -0.43313899636268616 -0.747622013092041 -0.5034400224685669
vn 0.0 -0.32653099298477173 -0.945186972618103
vn -0.34984898567199707 -0.30665498971939087 -0.8851940035820007
vn -0.7979140281677246 0.44853800535202026 -0.402675986289978
vn -0.8547549843788147 0.4179620146751404 0.30773699283599854
vn -0.9390230178833008 0.0017559999832883477 0.3438510000705719
vn -0.8319090008735657 -0.41772401332855225 0.36528700590133667
vn -0.8319090008735657 -0.41772401332855225 0.36528700590133667
vn -0.350057989358902 0.313740998506546 -0.8826249837875366
vn -0.33208799362182617 -0.01142400037497282 -0.9431790113449097
vn -0.8522999882698059 -0.004712999798357487 -0.5230330228805542
vn -0.8525829911231995 0.17773599922657013 -0.49143901467323303
vn 0.0 0.33639800548553467 -0.9417200088500977
vn 0.0 -0.011181999929249287 -0.9999380111694336
vn 0.350057989358902 0.31373998522758484 -0.8826249837875366
vn 0.33208799362182617 -0.01142400037497282 -0.9431790113449097
vn 0.8522999882698059 -0.004712999798357487 -0.5230330228805542
vn 0.8525829911231995 0.17773699760437012 -0.49143901467323303
vn 0.8547530174255371 0.41796401143074036 0.3077389895915985
vn 0.34459900856018066 0.6994779706001282 0.6260849833488464
vn 9.999999974752427e-07 0.7774270176887512 0.6289730072021484
vn -0.34459999203681946 0.6994779706001282 0.6260849833488464
vn -0.8547549843788147 0.4179620146751404 0.30773699283599854
vn 0.8547530174255371 0.41796401143074036 0.3077389895915985
vn -0.8547549843788147 0.4179620146751404 0.30773699283599854
vn 0.01966400071978569 0.23187999427318573 0.9725459814071655
vn 0.27144700288772583 0.4187780022621155 0.8665689826011658
vn -0.01812399923801422 0.646714985370636 0.7625160217285156
vn -0.04394499957561493 0.32733601331710815 0.9438859820365906
vn 0.029689999297261238 0.6993860006332397 0.7141270041465759
vn 0.01958799920976162 0.3865540027618408 0.9220589995384216
vn 0.11092399805784225 0.6415920257568359 0.7589830160140991
vn 0.08645299822092056 0.31637701392173767 0.9446859955787659
vn -0.1858779937028885 0.42086100578308105 0.8878769874572754
vn 0.022190000861883163 0.2164209932088852 0.9760479927062988
vn -0.4101110100746155 -0.0801910012960434 0.908502995967865
vn -0.02985299937427044 -0.004102000035345554 0.9995459914207458
vn 0.042732998728752136 0.018911000341176987 0.9989079833030701
vn 0.41392800211906433 -0.0973379984498024 0.9050909876823425
vn 0.6159150004386902 0.6296820044517517 0.47344401478767395
vn 0.05115300044417381 0.9166100025177002 0.3964959979057312
vn 0.0392180010676384 0.9230769872665405 0.3826110064983368
vn 0.05978100001811981 0.9192299842834473 0.3891560137271881
vn -0.5481600165367126 0.6704959869384766 0.49995601177215576
vn -0.5481600165367126 0.6704959869384766 0.49995601177215576
vn -0.8489030003547668 -0.14104300737380981 0.5093820095062256
vn 0.8453500270843506 -0.2025029957294464 0.49434301257133484
vn 0.6159150004386902 0.6296820044517517 0.47344401478767395
vn 0.7420719861984253 0.6703090071678162 -0.0038590000476688147
vn 0.08177199959754944 0.9966390132904053 -0.004933999851346016
vn 0.04315299913287163 0.9990559816360474 -0.00494399992749095
vn 0.02389499917626381 0.9997050166130066 -0.004399999976158142
vn -0.692458987236023 0.7214450240135193 -0.004083999898284674
vn -0.692458987236023 0.7214450240135193 -0.004083999898284674
vn -0.984063982963562 -0.1778080016374588 -0.0014850000152364373
vn 0.9684380292892456 -0.24925200641155243 -0.0008399999933317304
vn 0.7420719861984253 0.6703090071678162 -0.0038590000476688147
vn 0.7420719861984253 0.6703090071678162 -0.0038590000476688147
vn 0.6422160267829895 0.5885180234909058 -0.49112600088119507
vn 0.08151999861001968 0.916828989982605 -0.39087000489234924
vn 0.08177199959754944 0.9966390132904053 -0.004933999851346016
vn 0.041565001010894775 0.934935986995697 -0.35237300395965576
vn 0.04315299913287163 0.9990559816360474 -0.00494399992749095
vn 0.034012001007795334 0.9227049946784973 -0.38400301337242126
vn 0.02389499917626381 0.9997050166130066 -0.004399999976158142
vn -0.5750619769096375 0.6346129775047302 -0.5163040161132812
vn -0.692458987236023 0.7214450240135193 -0.004083999898284674
vn -0.692458987236023 0.7214450240135193 -0.004083999898284674
vn -0.5750619769096375 0.6346129775047302 -0.5163040161132812
vn -0.8521329760551453 -0.18007099628448486 -0.49136999249458313
vn -0.984063982963562 -0.1778080016374588 -0.0014850000152364373
vn 0.9684380292892456 -0.24925200641155243 -0.0008399999933317304
vn 0.8416320085525513 -0.24504399299621582 -0.48125800490379333
vn 0.6422160267829895 0.5885180234909058 -0.49112600088119507
vn 0.7420719861984253 0.6703090071678162 -0.0038590000476688147
vn 0.4882659912109375 0.44099798798561096 -0.7530720233917236
vn 0.1304520070552826 0.7743300199508667 -0.6191890239715576
vn 0.03880099952220917 0.8445919752120972 -0.5340030193328857
vn -0.019381999969482422 0.7831130027770996 -0.6215779781341553
vn -0.40976399183273315 0.4673529863357544 -0.783374011516571
vn -0.6450930237770081 -0.10432299971580505 -0.7569490075111389
vn 0.6365079879760742 -0.14508099853992462 -0.757502019405365
vn 0.45153799653053284 0.320127010345459 -0.8328459858894348
vn 0.22281000018119812 0.5767549872398376 -0.7859449982643127
vn 0.037783000618219376 0.6725069880485535 -0.7391260266304016
vn -0.14847199618816376 0.5889170169830322 -0.7944380044937134
vn -0.4038200080394745 0.3369460105895996 -0.8505269885063171
vn -0.5309339761734009 -0.017966000363230705 -0.8472229838371277
vn 0.5320659875869751 -0.04657600075006485 -0.8454210162162781
vn 0.0033450000919401646 0.12782399356365204 0.9917910099029541
vn 0.013039999641478062 0.21855999529361725 -0.9757360219955444
vn -0.5274199843406677 -0.41210100054740906 0.7429680228233337
vn -0.15257500112056732 -0.23451100289821625 0.9600650072097778
vn 0.08355999737977982 -0.1703449934720993 0.9818350076675415
vn 0.5235099792480469 -0.4310719966888428 0.7349249720573425
vn -0.7740049958229065 -0.5720040202140808 0.2715280055999756
vn 0.7421169877052307 -0.6234220266342163 0.2461870014667511
vn -0.7838810086250305 -0.6207450032234192 -0.014321000315248966
vn 0.7343909740447998 -0.6787260174751282 -0.0005549999768845737
vn -0.7917590141296387 -0.5768030285835266 -0.20103800296783447
vn -0.7838810086250305 -0.6207450032234192 -0.014321000315248966
vn 0.7343909740447998 -0.6787260174751282 -0.0005549999768845737
vn 0.7644100189208984 -0.6186519861221313 -0.18151399493217468
vn -0.7419930100440979 -0.4340110123157501 -0.5109599828720093
vn 0.7624589800834656 -0.417589008808136 -0.49424299597740173
vn -0.5714690089225769 -0.3185819983482361 -0.7562599778175354
vn 0.5896030068397522 -0.2615019977092743 -0.7641890048980713
vn -0.0018230000277981162 -0.2932319939136505 -0.9560400247573853
vn -0.7340329885482788 -0.2632009983062744 0.6260349750518799
vn -0.26026400923728943 -0.0924300029873848 0.9611030220985413
vn 0.21354399621486664 -0.01611899957060814 0.9768000245094299
vn 0.8410680294036865 -0.10778000205755234 0.5300840139389038
vn -0.8252900242805481 -0.5102109909057617 -0.24203599989414215
vn 0.8559190034866333 -0.37369200587272644 -0.3574320077896118
vn -0.7194870114326477 -0.6918950080871582 -0.060175999999046326
vn 0.7447109818458557 -0.6671739816665649 -0.0168869998306036
vn -0.794107973575592 -0.46493199467658997 0.3914470076560974
vn -0.7194870114326477 -0.6918950080871582 -0.060175999999046326
vn 0.7447109818458557 -0.6671739816665649 -0.0168869998306036
vn 0.8269469738006592 -0.3650650084018707 0.4276530146598816
vn -0.8974239826202393 -0.36211198568344116 -0.2520020008087158
vn 0.9830229878425598 -0.1336749941110611 -0.12568899989128113
vn -0.5897819995880127 -0.3268440067768097 -0.7384650111198425
vn 0.6936129927635193 -0.15352100133895874 -0.7037990093231201
vn -0.004782000090926886 -0.2814210057258606 -0.959572970867157
vn 0.6603559851646423 -0.05976499989628792 0.74857097864151
vn 0.9986569881439209 -0.03954099863767624 0.03348100185394287
vn 0.48857998847961426 -0.7127159833908081 0.5033140182495117
vn 0.4798319935798645 -0.8584340214729309 -0.18125300109386444
vn 0.09441599994897842 -0.6221320033073425 0.7771980166435242
vn -0.21348600089550018 -0.6539319753646851 0.7258070111274719
vn -0.46825700998306274 -0.7201099991798401 0.5120319724082947
vn -0.4728719890117645 -0.8805180191993713 0.03285299986600876
vn -0.9193390011787415 -0.37213000655174255 -0.12780700623989105
vn -0.6499500274658203 -0.28100600838661194 0.7061160206794739
vn -0.5643630027770996 -0.3197300136089325 -0.7610960006713867
vn -0.02301199920475483 -0.2602899968624115 -0.9652559757232666
vn 0.6951979994773865 -0.14680199325084686 -0.7036679983139038
vn 0.9840890169143677 -0.17764000594615936 0.0035500000230968
vn 0.6546180248260498 -0.25392699241638184 -0.7120370268821716
vn 0.6446049809455872 -0.2279909998178482 0.7297289967536926
vn -0.8560130000114441 -0.5042870044708252 -0.11373800039291382
vn -0.5840460062026978 -0.43470799922943115 0.6855059862136841
vn -0.2865389883518219 -0.3943119943141937 -0.8731629848480225
vn -0.018751999363303185 -0.302731990814209 0.9528909921646118
vn -0.02101000025868416 -0.1508290022611618 0.988336980342865
vn 0.003780999919399619 -0.42737698554992676 0.9040660262107849
vn 0.06859199702739716 -0.45648398995399475 -0.8870840072631836
vn -0.06125900149345398 -0.9207749962806702 -0.38525500893592834
vn 0.07497599720954895 -0.9931889772415161 -0.08918999880552292
vn 0.07497599720954895 -0.9931889772415161 -0.08918999880552292
vn 0.003780999919399619 -0.42737698554992676 0.9040660262107849
vn -0.02101000025868416 -0.1508290022611618 0.988336980342865
vn -0.018751999363303185 -0.302731990814209 0.9528909921646118
vn 0.06859199702739716 -0.45648398995399475 -0.8870840072631836
vn -0.06125900149345398 -0.9207749962806702 -0.38525500893592834
vn 0.07497599720954895 -0.9931889772415161 -0.08918999880552292
vn 0.07497599720954895 -0.9931889772415161 -0.08918999880552292
vn 0.4798319935798645 -0.8584340214729309 -0.18125300109386444
vn 0.48857998847961426 -0.7127159833908081 0.5033140182495117
vn -0.077053003013134 -0.9614890217781067 0.26381999254226685
vn 0.09441599994897842 -0.6221320033073425 0.7771980166435242
vn -0.21348600089550018 -0.6539319753646851 0.7258070111274719
vn -0.46825700998306274 -0.7201099991798401 0.5120319724082947
vn -0.4728719890117645 -0.8805180191993713 0.03285299986600876
vn -0.06125900149345398 -0.9207749962806702 -0.38525500893592834

vt 0.8090109825134277 0.019230008125305176
vt 0.8167529702186584 0.015492022037506104
vt 0.8154709935188293 0.003585994243621826
vt 0.8069850206375122 0.011510014533996582
vt 0.7963529825210571 0.014294028282165527
vt 0.7869259715080261 0.008713006973266602
vt 0.7887359857559204 0.02026897668838501
vt 0.7953870296478271 0.02274799346923828
vt 0.7888460159301758 0.03950697183609009
vt 0.79475998878479 0.034784018993377686
vt 0.7862930297851562 0.0504230260848999
vt 0.7980200052261353 0.04229700565338135
vt 0.8079630136489868 0.039129018783569336
vt 0.8187299966812134 0.04679000377655029
vt 0.8180189728736877 0.035153985023498535
vt 0.8098710179328918 0.03152501583099365
vt 0.8237540125846863 0.01663297414779663
vt 0.8232700228691101 0.0046250224113464355
vt 0.7788730263710022 0.010204017162322998
vt 0.7790849804878235 0.02046602964401245
vt 0.7799999713897705 0.039727985858917236
vt 0.7787100076675415 0.050255000591278076
vt 0.8262090086936951 0.04773801565170288
vt 0.82538902759552 0.03577697277069092
vt 0.8314560055732727 0.019936978816986084
vt 0.8330479860305786 0.012021005153656006
vt 0.7684959769248962 0.017906010150909424
vt 0.7723249793052673 0.025352001190185547
vt 0.7724260091781616 0.03713798522949219
vt 0.7712759971618652 0.04543197154998779
vt 0.8331900238990784 0.040270984172821045
vt 0.8320950269699097 0.032374024391174316
vt 0.8047260046005249 0.024277985095977783
vt 0.8028640151023865 0.028101027011871338
vt 0.8374019861221313 0.026102006435394287
vt 0.7653740048408508 0.03084099292755127
vt 0.9646739959716797 0.03999900817871094
vt 0.9724209904670715 0.03818798065185547
vt 0.9687470197677612 0.03188800811767578
vt 0.9629600048065186 0.03764098882675171
vt 0.9629150032997131 0.03139901161193848
vt 0.9604550004005432 0.03662198781967163
vt 0.9570879936218262 0.03160202503204346
vt 0.9574580192565918 0.036581993103027344
vt 0.9514510035514832 0.03179901838302612
vt 0.9544749855995178 0.036930978298187256
vt 0.946029007434845 0.03260999917984009
vt 0.9522619843482971 0.03825002908706665
vt 0.9439489841461182 0.03852999210357666
vt 0.9509980082511902 0.040853023529052734
vt 0.944661021232605 0.04430598020553589
vt 0.9505059719085693 0.04351997375488281
vt 0.9655140042304993 0.04253798723220825
vt 0.9730679988861084 0.044345974922180176
vt 0.9838939905166626 0.03671097755432129
vt 0.9798769950866699 0.026320993900299072
vt 0.9734290242195129 0.020796000957489014
vt 0.9649810194969177 0.0212630033493042
vt 0.9569730162620544 0.022826015949249268
vt 0.9494069814682007 0.021983027458190918
vt 0.9408339858055115 0.02361297607421875
vt 0.9361690282821655 0.02856600284576416
vt 0.9346809983253479 0.03837102651596069
vt 0.936385989189148 0.0468369722366333
vt 0.9832659959793091 0.04582899808883667
vt 0.9973180294036865 0.03707700967788696
vt 0.9932940006256104 0.02362501621246338
vt 0.9752359986305237 0.007902979850769043
vt 0.96527498960495 0.00932002067565918
vt 0.956836998462677 0.010564029216766357
vt 0.9481080174446106 0.010412991046905518
vt 0.9388880133628845 0.010465025901794434
vt 0.9217479825019836 0.027045011520385742
vt 0.9198979735374451 0.04036998748779297
vt 0.9224389791488647 0.051885008811950684
vt 0.995622992515564 0.048931002616882324
vt 0.9960290193557739 0.034651994705200195
vt 0.982571005821228 0.036743998527526855
vt 0.9777699708938599 0.0268629789352417
vt 0.9902520179748535 0.020843982696533203
vt 0.9725059866905212 0.008906006813049316
vt 0.9711400270462036 0.02176201343536377
vt 0.9622380137443542 0.022664010524749756
vt 0.9625449776649475 0.010326027870178223
vt 0.954695999622345 0.02407902479171753
vt 0.9539939761161804 0.01157301664352417
vt 0.9463199973106384 0.023238003253936768
vt 0.9450470209121704 0.011277973651885986
vt 0.9380390048027039 0.024950027465820312
vt 0.935837984085083 0.012012004852294922
vt 0.9197480082511902 0.026431024074554443
vt 0.9335600137710571 0.0295180082321167
vt 0.9312869906425476 0.04010802507400513
vt 0.9164040088653564 0.04018700122833252
vt 0.9333800077438354 0.04876798391342163
vt 0.9184520244598389 0.05174601078033447
vt 0.9951710104942322 0.045916974544525146
vt 0.9819920063018799 0.04590499401092529
vt 0.9706850051879883 0.03910702466964722
vt 0.9667069911956787 0.03305000066757202
vt 0.9610369801521301 0.032787978649139404
vt 0.9553580284118652 0.03327000141143799
vt 0.949271023273468 0.03341001272201538
vt 0.9434059858322144 0.03419697284698486
vt 0.9410120248794556 0.04067802429199219
vt 0.9419699907302856 0.046775996685028076
vt 0.9717389941215515 0.04542297124862671
vt 0.9631590247154236 0.042250990867614746
vt 0.9613919854164124 0.039830029010772705
vt 0.9589099884033203 0.038797974586486816
vt 0.9559370279312134 0.0385969877243042
vt 0.9529470205307007 0.03884899616241455
vt 0.9506059885025024 0.04013097286224365
vt 0.9493589997291565 0.042679011821746826
vt 0.9489499926567078 0.04546600580215454
vt 0.9640730023384094 0.045020997524261475
vt 0.9581170082092285 0.04313701391220093
vt 0.9566259980201721 0.04525101184844971
vt 0.9459530115127563 0.05651402473449707
vt 0.9525709748268127 0.05584597587585449
vt 0.9658030271530151 0.05557900667190552
vt 0.9724299907684326 0.056532979011535645
vt 0.9375429749488831 0.058277010917663574
vt 0.9817249774932861 0.058193981647491455
vt 0.9276990294456482 0.06256598234176636
vt 0.990792989730835 0.060324013233184814
vt 0.934453010559082 0.05949598550796509
vt 0.9242209792137146 0.06222701072692871
vt 0.9906520247459412 0.05835598707199097
vt 0.9811879992485046 0.05764198303222656
vt 0.9433010220527649 0.058714985847473145
vt 0.9718149900436401 0.05719900131225586
vt 0.950954020023346 0.058026015758514404
vt 0.964497983455658 0.0572739839553833
vt 0.9593200087547302 0.0553399920463562
vt 0.9579060077667236 0.057389020919799805
vt 0.9500269889831543 0.08166301250457764
vt 0.9551349878311157 0.08114397525787354
vt 0.9645599722862244 0.07987701892852783
vt 0.969681978225708 0.07978498935699463
vt 0.9444249868392944 0.08245301246643066
vt 0.9762809872627258 0.08022302389144897
vt 0.9372869729995728 0.08447599411010742
vt 0.9828870296478271 0.0814099907875061
vt 0.9427499771118164 0.08313697576522827
vt 0.9354730248451233 0.084430992603302
vt 0.9825959801673889 0.07924401760101318
vt 0.9757720232009888 0.07896900177001953
vt 0.9486370086669922 0.08188998699188232
vt 0.9689580202102661 0.07957297563552856
vt 0.9539650082588196 0.08082401752471924
vt 0.9635599851608276 0.0798109769821167
vt 0.959854006767273 0.08025097846984863
vt 0.9587510228157043 0.08011102676391602
vt 0.972029983997345 0.1127849817276001
vt 0.9672819972038269 0.1129310131072998
vt 0.976855993270874 0.11285597085952759
vt 0.972337007522583 0.11447697877883911
vt 0.9774640202522278 0.11436498165130615
vt 0.9675580263137817 0.1149439811706543
vt 0.9639919996261597 0.11524301767349243
vt 0.9606760144233704 0.11553299427032471
vt 0.9572650194168091 0.11597597599029541
vt 0.9532080292701721 0.11598199605941772
vt 0.948818027973175 0.11576402187347412
vt 0.944130003452301 0.11538797616958618
vt 0.9487069845199585 0.1148189902305603
vt 0.9439820051193237 0.11507397890090942
vt 0.9530559778213501 0.11493700742721558
vt 0.9568110108375549 0.11450797319412231
vt 0.9600830078125 0.11381399631500244
vt 0.9634469747543335 0.11349201202392578
vt 0.9701470136642456 0.14796698093414307
vt 0.976285994052887 0.16988897323608398
vt 0.9667270183563232 0.16602998971939087
vt 0.9645919799804688 0.14842301607131958
vt 0.9762700200080872 0.1484910249710083
vt 0.9855999946594238 0.16897302865982056
vt 0.9822279810905457 0.1488100290298462
vt 0.9906200170516968 0.16298002004623413
vt 0.9748380184173584 0.15040802955627441
vt 0.9854819774627686 0.17115002870559692
vt 0.9902169704437256 0.16407698392868042
vt 0.9803569912910461 0.1502249836921692
vt 0.9691449999809265 0.15047001838684082
vt 0.976406991481781 0.17328602075576782
vt 0.9640660285949707 0.15141701698303223
vt 0.9670100212097168 0.16949301958084106
vt 0.9600279927253723 0.15223002433776855
vt 0.9608870148658752 0.16738200187683105
vt 0.9558910131454468 0.1524450182914734
vt 0.9552779793739319 0.16534298658370972
vt 0.950435996055603 0.15234601497650146
vt 0.9480689764022827 0.16611099243164062
vt 0.9448490142822266 0.1521180272102356
vt 0.9405320286750793 0.1646519899368286
vt 0.9395660161972046 0.15122801065444946
vt 0.9343900084495544 0.1599230170249939
vt 0.9447360038757324 0.15016597509384155
vt 0.9411489963531494 0.1613280177116394
vt 0.9343879818916321 0.1583700180053711
vt 0.9393219947814941 0.14957702159881592
vt 0.950111985206604 0.1503710150718689
vt 0.9485920071601868 0.16238397359848022
vt 0.955640971660614 0.15005898475646973
vt 0.955623984336853 0.16204798221588135
vt 0.9603040218353271 0.14932101964950562
vt 0.9613000154495239 0.16394901275634766
vt 0.9779729843139648 0.1839500069618225
vt 0.9697229862213135 0.1804029941558838
vt 0.9853770136833191 0.18018698692321777
vt 0.9909470081329346 0.18822598457336426
vt 0.9852100014686584 0.19024699926376343
vt 0.9603739976882935 0.17263102531433105
vt 0.9495880007743835 0.17497199773788452
vt 0.9423689842224121 0.17403101921081543
vt 0.9394429922103882 0.1685119867324829
vt 0.9325000047683716 0.1694679856300354
vt 0.9406650066375732 0.16531598567962646
vt 0.9355340003967285 0.1747090220451355
vt 0.9847919940948486 0.17707300186157227
vt 0.9774919748306274 0.18028700351715088
vt 0.9691299796104431 0.1803399920463562
vt 0.9600080251693726 0.17032301425933838
vt 0.9476950168609619 0.17372798919677734
vt 0.9435349702835083 0.1705930233001709
vt 0.9804149866104126 0.19205200672149658
vt 0.9755589962005615 0.19336700439453125
vt 0.9375900030136108 0.18156999349594116
vt 0.9355670213699341 0.1785069704055786
vt 0.9338030219078064 0.1761540174484253
vt 0.9838860034942627 0.1871809959411621
vt 0.9790869951248169 0.18979400396347046
vt 0.9746299982070923 0.19296497106552124
vt 0.9394009709358215 0.17985302209854126
vt 0.9373210072517395 0.17720699310302734
vt 0.9548929929733276 0.18565601110458374
vt 0.9593799710273743 0.19053500890731812
vt 0.9617239832878113 0.2001209855079651
vt 0.9414039850234985 0.18936198949813843
vt 0.9483489990234375 0.18594497442245483
vt 0.9614279866218567 0.19970202445983887
vt 0.9586169719696045 0.19005000591278076
vt 0.9545130133628845 0.18352097272872925
vt 0.9474549889564514 0.1850529909133911
vt 0.9426479935646057 0.18827497959136963
vt 0.9305679798126221 0.17101097106933594
vt 0.9893190264701843 0.1846500039100647
vt 0.7094079852104187 0.02945798635482788
vt 0.7202489972114563 0.023644983768463135
vt 0.7203080058097839 0.03564399480819702
vt 0.7104049921035767 0.03754299879074097
vt 0.708702027797699 0.0670899748802185
vt 0.7207859754562378 0.07407599687576294
vt 0.7189459800720215 0.08580201864242554
vt 0.7060490250587463 0.0792509913444519
vt 0.7008119821548462 0.07844299077987671
vt 0.6993229985237122 0.07721900939941406
vt 0.6993229985237122 0.07411998510360718
vt 0.7009209990501404 0.07418501377105713
vt 0.7060210108757019 0.017441987991333008
vt 0.7187640070915222 0.010873019695281982
vt 0.7520099878311157 0.0295029878616333
vt 0.7631509900093079 0.02650398015975952
vt 0.7664139866828918 0.049362003803253174
vt 0.7508040070533752 0.03741198778152466
vt 0.6980149745941162 0.025864005088806152
vt 0.6950370073318481 0.04955101013183594
vt 0.7299709916114807 0.07598400115966797
vt 0.7402219772338867 0.07453399896621704
vt 0.7414609789848328 0.08675402402877808
vt 0.7303230166435242 0.08828997611999512
vt 0.7038829922676086 0.0785670280456543
vt 0.702335000038147 0.07880699634552002
vt 0.7025200128555298 0.0742499828338623
vt 0.704118013381958 0.07431399822235107
vt 0.7307450175285339 0.02262502908706665
vt 0.7308980226516724 0.008864998817443848
vt 0.7431319952011108 0.0117340087890625
vt 0.7400299906730652 0.023784995079040527
vt 0.7306659817695618 0.03534799814224243
vt 0.7405959963798523 0.035880982875823975
vt 0.7515349984169006 0.06739801168441772
vt 0.7544419765472412 0.0802689790725708
vt 0.7057170271873474 0.07437902688980103
vt 0.7054659724235535 0.07746797800064087
vt 0.7558910250663757 0.017994999885559082
vt 0.7403039932250977 0.061685025691986084
vt 0.7406349778175354 0.0503079891204834
vt 0.7507299780845642 0.04991602897644043
vt 0.7502340078353882 0.05888402462005615
vt 0.7299270033836365 0.062103986740112305
vt 0.7302460074424744 0.05011099576950073
vt 0.7202759981155396 0.06124597787857056
vt 0.7200729846954346 0.049799978733062744
vt 0.7100260257720947 0.04958200454711914
vt 0.7102900147438049 0.058798015117645264
vt 0.6995739936828613 0.07103097438812256
vt 0.7011569738388062 0.0699319839477539
vt 0.7027050256729126 0.06969201564788818
vt 0.7042279839515686 0.0700560212135315
vt 0.7057170271873474 0.07128000259399414
vt 0.6979010105133057 0.07005000114440918
vt 0.763526976108551 0.07139700651168823
vt 0.9687110185623169 0.5506370067596436
vt 0.9740980267524719 0.5540960133075714
vt 0.9689180254936218 0.5577000081539154
vt 0.9666619896888733 0.5534240007400513
vt 0.9645599722862244 0.557455986738205
vt 0.9644020199775696 0.5535849928855896
vt 0.9605690240859985 0.5580449998378754
vt 0.962369978427887 0.5535419881343842
vt 0.9548199772834778 0.5570769906044006
vt 0.9600790143013 0.5515649914741516
vt 0.954177975654602 0.5479739904403687
vt 0.9598190188407898 0.5477719902992249
vt 0.9684290289878845 0.5467840135097504
vt 0.9748380184173584 0.5448859930038452
vt 0.9803140163421631 0.5615729987621307
vt 0.9708489775657654 0.5649510025978088
vt 0.9649379849433899 0.5642150044441223
vt 0.9593250155448914 0.5660549998283386
vt 0.9504269957542419 0.5652770102024078
vt 0.9475950002670288 0.562032014131546
vt 0.9476730227470398 0.5496819913387299
vt 0.9822689890861511 0.5462749898433685
vt 0.9820799827575684 0.557763010263443
vt 0.9832180142402649 0.5689660012722015
vt 0.9720939993858337 0.5719969868659973
vt 0.9658769965171814 0.5718820095062256
vt 0.9597480297088623 0.5733349919319153
vt 0.9490730166435242 0.5734289884567261
vt 0.9393939971923828 0.5633249878883362
vt 0.9383469820022583 0.5504319965839386
vt 0.9898260235786438 0.5470820069313049
vt 0.9898260235786438 0.559673011302948
vt 0.9469410181045532 0.4835450053215027
vt 0.9495869874954224 0.4779469966888428
vt 0.9594910144805908 0.48004400730133057
vt 0.9588770270347595 0.4864240288734436
vt 0.9655259847640991 0.4802590012550354
vt 0.9655770063400269 0.48685401678085327
vt 0.972104012966156 0.4807890057563782
vt 0.9725819826126099 0.4873579740524292
vt 0.9814800024032593 0.4767810106277466
vt 0.9839649796485901 0.48462700843811035
vt 0.9917290210723877 0.4750170111656189
vt 0.9832940101623535 0.4744449853897095
vt 0.9844070076942444 0.46289902925491333
vt 0.9934819936752319 0.4612810015678406
vt 0.9374439716339111 0.4630420207977295
vt 0.944674015045166 0.4630339741706848
vt 0.948248028755188 0.4752209782600403
vt 0.9404850006103516 0.4756789803504944
vt 0.9546129703521729 0.4714279770851135
vt 0.9615579843521118 0.47414499521255493
vt 0.9663000106811523 0.4738280177116394
vt 0.9707819819450378 0.4743649959564209
vt 0.9768499732017517 0.47162002325057983
vt 0.9784359931945801 0.4630240201950073
vt 0.9516000151634216 0.4621019959449768
vt 0.9612650275230408 0.46659499406814575
vt 0.9641249775886536 0.4684849977493286
vt 0.9661509990692139 0.46848100423812866
vt 0.9681040048599243 0.46838897466659546
vt 0.9703729748725891 0.4663029909133911
vt 0.9716460108757019 0.46270298957824707
vt 0.9594020247459412 0.46288299560546875
vt 0.9641169905662537 0.5475130081176758
vt 0.9655299782752991 0.46244698762893677
vt 0.9541599750518799 0.5381520092487335
vt 0.9606450200080872 0.536651998758316
vt 0.966143012046814 0.536081999540329
vt 0.972944974899292 0.5356740057468414
vt 0.9489669799804688 0.540704995393753
vt 0.9790999889373779 0.5365709960460663
vt 0.9421520233154297 0.5413849949836731
vt 0.9847559928894043 0.5372349917888641
vt 0.9844300150871277 0.4529610276222229
vt 0.9905610084533691 0.45235300064086914
vt 0.9400089979171753 0.4531239867210388
vt 0.9457839727401733 0.45288097858428955
vt 0.9782969951629639 0.45277100801467896
vt 0.9522070288658142 0.45216798782348633
vt 0.9716730117797852 0.45272499322891235
vt 0.9594489932060242 0.45192497968673706
vt 0.9652739763259888 0.452551007270813
vt 0.9583730101585388 0.523844987154007
vt 0.9617879986763 0.5227620005607605
vt 0.9654080271720886 0.5222359895706177
vt 0.968517005443573 0.5219079852104187
vt 0.9551029801368713 0.5241959989070892
vt 0.9717100262641907 0.5216279923915863
vt 0.9487230181694031 0.5272490084171295
vt 0.9777539968490601 0.5256249904632568
vt 0.9784349799156189 0.43691200017929077
vt 0.9848690032958984 0.4390919804573059
vt 0.9426450133323669 0.4407389760017395
vt 0.9472860097885132 0.43716102838516235
vt 0.9741470217704773 0.43879199028015137
vt 0.9531409740447998 0.4384250044822693
vt 0.9678400158882141 0.4393479824066162
vt 0.9578099846839905 0.43879902362823486
vt 0.9626910090446472 0.43935900926589966
vt 0.9529489874839783 0.4156849980354309
vt 0.956180989742279 0.4167349934577942
vt 0.9678530097007751 0.5011090040206909
vt 0.9716770052909851 0.5002790093421936
vt 0.9633479714393616 0.50382399559021
vt 0.9597309827804565 0.5054779946804047
vt 0.9570950269699097 0.5060670077800751
vt 0.9538589715957642 0.5053940117359161
vt 0.9684399962425232 0.4176759719848633
vt 0.9711840152740479 0.4160190224647522
vt 0.9646530151367188 0.4180999994277954
vt 0.9617990255355835 0.4181249737739563
vt 0.9590929746627808 0.4175580143928528
vt 0.9603220224380493 0.4048060178756714
vt 0.960436999797821 0.4048749804496765
vt 0.960220992565155 0.4047359824180603
vt 0.9607899785041809 0.4049050211906433
vt 0.9608920216560364 0.4048159718513489
vt 0.9605939984321594 0.40493500232696533
vt 0.9610829949378967 0.4047110080718994
vt 0.9733589887619019 0.4126790165901184
vt 0.9811199903488159 0.4312649965286255
vt 0.9491869807243347 0.5194790065288544
vt 0.94753098487854 0.5019260048866272
vt 0.9472919702529907 0.521809995174408
vt 0.9844610095024109 0.43220698833465576
vt 0.944242000579834 0.4336180090904236
vt 0.9498500227928162 0.41457998752593994
vt 0.9599589705467224 0.4047989845275879
vt 0.9765369892120361 0.5186229944229126
vt 0.9766499996185303 0.501145988702774
vt 0.9781460165977478 0.5206280052661896
vt 0.9416199922561646 0.4355810284614563
vt 0.9614260196685791 0.49786102771759033
vt 0.9630240201950073 0.5012800097465515
vt 0.957273006439209 0.5000270009040833
vt 0.958528995513916 0.5035459995269775
vt 0.9545490145683289 0.5035459995269775
vt 0.952256977558136 0.5015400052070618
vt 0.9516239762306213 0.49830299615859985
vt 0.9568079710006714 0.4960089921951294

usemtl Material

f 1/1/1 2/2/2 3/3/3
f 1/1/1 3/3/3 4/4/4
f 5/5/5 6/6/6 7/7/7
f 5/5/5 7/7/7 8/8/8
f 8/8/8 7/7/7 9/9/9
f 8/8/8 9/9/9 10/10/10
f 10/10/10 9/9/9 11/11/11
f 10/10/10 11/11/11 12/12/12
f 13/13/13 14/14/14 15/15/15
f 13/13/13 15/15/15 16/16/16
f 16/16/16 15/15/15 2/2/2
f 16/16/16 2/2/2 1/1/1
f 2/2/2 17/17/17 18/18/18
f 2/2/2 18/18/18 3/3/3
f 6/6/6 19/19/19 20/20/20
f 6/6/6 20/20/20 7/7/7
f 7/7/7 20/20/20 21/21/21
f 7/7/7 21/21/21 9/9/9
f 9/9/9 21/21/21 22/22/22
f 9/9/9 22/22/22 11/11/11
f 14/14/14 23/23/23 24/24/24
f 14/14/14 24/24/24 15/15/15
f 15/15/15 24/24/24 17/17/17
f 15/15/15 17/17/17 2/2/2
f 17/17/17 25/25/25 26/26/26
f 17/17/17 26/26/26 18/18/18
f 19/19/19 27/27/27 28/28/28
f 19/19/19 28/28/28 20/20/20
f 20/20/20 28/28/28 29/29/29
f 20/20/20 29/29/29 21/21/21
f 21/21/21 29/29/29 30/30/30
f 21/21/21 30/30/30 22/22/22
f 23/23/23 31/31/31 32/32/32
f 23/23/23 32/32/32 24/24/24
f 24/24/24 32/32/32 25/25/25
f 24/24/24 25/25/25 17/17/17
f 4/4/4 33/33/33 1/1/1
f 8/8/8 34/34/34 5/5/5
f 10/10/10 34/34/34 8/8/8
f 12/12/12 34/34/34 10/10/10
f 16/16/16 33/33/33 13/13/13
f 1/1/1 33/33/33 16/16/16
f 25/25/25 35/35/35 26/26/26
f 27/27/27 36/36/36 28/28/28
f 28/28/28 36/36/36 29/29/29
f 29/29/29 36/36/36 30/30/30
f 31/31/31 35/35/35 32/32/32
f 32/32/32 35/35/35 25/25/25
f 37/37/37 38/38/38 39/39/39
f 37/37/37 39/39/39 40/40/40
f 40/40/40 39/39/39 41/41/41
f 40/40/40 41/41/41 42/42/42
f 42/42/42 41/41/41 43/43/43
f 42/42/42 43/43/43 44/44/44
f 44/44/44 43/43/43 45/45/45
f 44/44/44 45/45/45 46/46/46
f 46/46/46 45/45/45 47/47/47
f 46/46/46 47/47/47 48/48/48
f 48/48/48 47/47/47 49/49/49
f 48/48/48 49/49/49 50/50/50
f 50/50/50 49/49/49 51/51/51
f 50/50/50 51/51/51 52/52/52
f 53/53/53 54/54/54 38/38/38
f 53/53/53 38/38/38 37/37/37
f 38/38/38 55/55/55 56/56/56
f 38/38/38 56/56/56 39/39/39
f 39/39/39 57/57/57 58/58/58
f 39/39/39 58/58/58 41/41/41
f 41/41/41 58/58/58 59/59/59
f 41/41/41 59/59/59 43/43/43
f 43/43/43 59/59/59 60/60/60
f 43/43/43 60/60/60 45/45/45
f 45/45/45 60/60/60 61/61/61
f 45/45/45 61/61/61 47/47/47
f 47/47/47 62/62/62 63/63/63
f 47/47/47 63/63/63 49/49/49
f 49/49/49 63/63/63 64/64/64
f 49/49/49 64/64/64 51/51/51
f 54/54/54 65/65/65 55/55/55
f 54/54/54 55/55/55 38/38/38
f 55/55/55 66/66/66 67/67/67
f 55/55/55 67/67/67 56/56/56
f 57/57/57 68/68/68 69/69/69
f 57/57/57 69/69/69 58/58/58
f 58/58/58 69/69/69 70/70/70
f 58/58/58 70/70/70 59/59/59
f 59/59/59 70/70/70 71/71/71
f 59/59/59 71/71/71 60/60/60
f 60/60/60 71/71/71 72/72/72
f 60/60/60 72/72/72 61/61/61
f 62/62/62 73/73/73 74/74/74
f 62/62/62 74/74/74 63/63/63
f 63/63/63 74/74/74 75/75/75
f 63/63/63 75/75/75 64/64/64
f 65/65/65 76/76/76 66/66/66
f 65/65/65 66/66/66 55/55/55
f 77/77/77 78/78/78 79/79/79
f 77/77/77 79/79/79 80/80/80
f 81/81/81 82/82/82 83/83/83
f 81/81/81 83/83/83 84/84/84
f 84/84/84 83/83/83 85/85/85
f 84/84/84 85/85/85 86/86/86
f 86/86/86 85/85/85 87/87/87
f 86/86/86 87/87/87 88/88/88
f 88/88/88 87/87/87 89/89/89
f 88/88/88 89/89/89 90/90/90
f 91/91/91 92/92/92 93/93/93
f 91/91/91 93/93/93 94/94/94
f 94/94/94 93/93/93 95/95/95
f 94/94/94 95/95/95 96/96/96
f 97/97/97 98/98/98 78/78/78
f 97/97/97 78/78/78 77/77/77
f 78/78/78 99/99/99 100/100/100
f 78/78/78 100/100/100 79/79/79
f 82/82/82 100/100/100 101/101/101
f 82/82/82 101/101/101 83/83/83
f 83/83/83 101/101/101 102/102/102
f 83/83/83 102/102/102 85/85/85
f 85/85/85 102/102/102 103/103/103
f 85/85/85 103/103/103 87/87/87
f 87/87/87 103/103/103 104/104/104
f 87/87/87 104/104/104 89/89/89
f 92/92/92 104/104/104 105/105/105
f 92/92/92 105/105/105 93/93/93
f 93/93/93 105/105/105 106/106/106
f 93/93/93 106/106/106 95/95/95
f 98/98/98 107/107/107 99/99/99
f 98/98/98 99/99/99 78/78/78
f 99/99/99 108/108/108 109/109/109
f 99/99/99 109/109/109 100/100/100
f 100/100/100 109/109/109 110/110/110
f 100/100/100 110/110/110 101/101/101
f 101/101/101 110/110/110 111/111/111
f 101/101/101 111/111/111 102/102/102
f 102/102/102 111/111/111 112/112/112
f 102/102/102 112/112/112 103/103/103
f 103/103/103 112/112/112 113/113/113
f 103/103/103 113/113/113 104/104/104
f 104/104/104 113/113/113 114/114/114
f 104/104/104 114/114/114 105/105/105
f 105/105/105 114/114/114 115/115/115
f 105/105/105 115/115/115 106/106/106
f 107/107/107 116/116/116 108/108/108
f 107/107/107 108/108/108 99/99/99
f 40/40/40 117/117/117 37/37/37
f 42/42/42 117/117/117 40/40/40
f 44/44/44 117/117/117 42/42/42
f 46/46/46 117/117/117 44/44/44
f 48/48/48 117/117/117 46/46/46
f 50/50/50 117/117/117 48/48/48
f 52/52/52 117/117/117 50/50/50
f 37/37/37 117/117/117 53/53/53
f 108/108/108 118/118/118 109/109/109
f 109/109/109 118/118/118 110/110/110
f 110/110/110 118/118/118 111/111/111
f 111/111/111 118/118/118 112/112/112
f 112/112/112 118/118/118 113/113/113
f 113/113/113 118/118/118 114/114/114
f 114/114/114 118/118/118 115/115/115
f 116/116/116 118/118/118 108/108/108
f 51/51/51 119/119/119 120/120/120
f 51/51/51 120/120/120 52/52/52
f 53/53/53 121/121/121 122/122/122
f 53/53/53 122/122/122 54/54/54
f 64/64/64 123/123/123 119/119/119
f 64/64/64 119/119/119 51/51/51
f 54/54/54 122/122/122 124/124/124
f 54/54/54 124/124/124 65/65/65
f 75/75/75 125/125/125 123/123/123
f 75/75/75 123/123/123 64/64/64
f 65/65/65 124/124/124 126/126/126
f 65/65/65 126/126/126 76/76/76
f 95/95/95 127/127/127 128/128/128
f 95/95/95 128/128/128 96/96/96
f 97/97/97 129/129/129 130/130/130
f 97/97/97 130/130/130 98/98/98
f 106/106/106 131/131/131 127/127/127
f 106/106/106 127/127/127 95/95/95
f 98/98/98 130/130/130 132/132/132
f 98/98/98 132/132/132 107/107/107
f 115/115/115 133/133/133 131/131/131
f 115/115/115 131/131/131 106/106/106
f 107/107/107 132/132/132 134/134/134
f 107/107/107 134/134/134 116/116/116
f 52/52/52 120/120/120 135/135/135
f 52/52/52 135/135/135 117/117/117
f 117/117/117 135/135/135 121/121/121
f 117/117/117 121/121/121 53/53/53
f 118/118/118 136/136/136 133/133/133
f 118/118/118 133/133/133 115/115/115
f 116/116/116 134/134/134 136/136/136
f 116/116/116 136/136/136 118/118/118
f 119/119/119 137/137/137 138/138/138
f 119/119/119 138/138/138 120/120/120
f 121/121/121 139/139/139 140/140/140
f 121/121/121 140/140/140 122/122/122
f 123/123/123 141/141/141 137/137/137
f 123/123/123 137/137/137 119/119/119
f 122/122/122 140/140/140 142/142/142
f 122/122/122 142/142/142 124/124/124
f 125/125/125 143/143/143 141/141/141
f 125/125/125 141/141/141 123/123/123
f 124/124/124 142/142/142 144/144/144
f 124/124/124 144/144/144 126/126/126
f 127/127/127 145/145/145 146/146/146
f 127/127/127 146/146/146 128/128/128
f 129/129/129 147/147/147 148/148/148
f 129/129/129 148/148/148 130/130/130
f 131/131/131 149/149/149 145/145/145
f 131/131/131 145/145/145 127/127/127
f 130/130/130 148/148/148 150/150/150
f 130/130/130 150/150/150 132/132/132
f 133/133/133 151/151/151 149/149/149
f 133/133/133 149/149/149 131/131/131
f 132/132/132 150/150/150 152/152/152
f 132/132/132 152/152/152 134/134/134
f 120/120/120 138/138/138 153/153/153
f 120/120/120 153/153/153 135/135/135
f 135/135/135 153/153/153 139/139/139
f 135/135/135 139/139/139 121/121/121
f 136/136/136 154/154/154 151/151/151
f 136/136/136 151/151/151 133/133/133
f 134/134/134 152/152/152 154/154/154
f 134/134/134 154/154/154 136/136/136
f 148/148/148 155/155/155 156/156/156
f 148/148/148 156/156/156 150/150/150
f 147/147/147 157/157/157 155/155/155
f 147/147/147 155/155/155 148/148/148
f 142/142/142 158/158/158 159/159/159
f 142/142/142 159/159/159 144/144/144
f 140/140/140 160/160/160 158/158/158
f 140/140/140 158/158/158 142/142/142
f 139/139/139 161/161/161 160/160/160
f 139/139/139 160/160/160 140/140/140
f 153/153/153 162/162/162 161/161/161
f 153/153/153 161/161/161 139/139/139
f 138/138/138 163/163/163 162/162/162
f 138/138/138 162/162/162 153/153/153
f 137/137/137 164/164/164 163/163/163
f 137/137/137 163/163/163 138/138/138
f 141/141/141 165/165/165 164/164/164
f 141/141/141 164/164/164 137/137/137
f 143/143/143 166/166/166 165/165/165
f 143/143/143 165/165/165 141/141/141
f 145/145/145 167/167/167 168/168/168
f 145/145/145 168/168/168 146/146/146
f 149/149/149 169/169/169 167/167/167
f 149/149/149 167/167/167 145/145/145
f 151/151/151 170/170/170 169/169/169
f 151/151/151 169/169/169 149/149/149
f 154/154/154 171/171/171 170/170/170
f 154/154/154 170/170/170 151/151/151
f 152/152/152 172/172/172 171/171/171
f 152/152/152 171/171/171 154/154/154
f 150/150/150 156/156/156 172/172/172
f 150/150/150 172/172/172 152/152/152
f 173/173/173 174/174/174 175/175/175
f 173/173/173 175/175/175 176/176/176
f 177/177/177 178/178/178 174/174/174
f 177/177/177 174/174/174 173/173/173
f 179/179/179 180/180/180 178/178/178
f 179/179/179 178/178/178 177/177/177
f 181/181/181 182/182/182 183/183/183
f 181/181/181 183/183/183 184/184/184
f 185/185/185 186/186/186 182/182/182
f 185/185/185 182/182/182 181/181/181
f 187/187/187 188/188/188 186/186/186
f 187/187/187 186/186/186 185/185/185
f 189/189/189 190/190/190 188/188/188
f 189/189/189 188/188/188 187/187/187
f 191/191/191 192/192/192 190/190/190
f 191/191/191 190/190/190 189/189/189
f 193/193/193 194/194/194 192/192/192
f 193/193/193 192/192/192 191/191/191
f 195/195/195 196/196/196 194/194/194
f 195/195/195 194/194/194 193/193/193
f 197/197/197 198/198/198 196/196/196
f 197/197/197 196/196/196 195/195/195
f 199/199/199 200/200/200 201/201/201
f 199/199/199 201/201/201 202/202/202
f 203/203/203 204/204/204 200/200/200
f 203/203/203 200/200/200 199/199/199
f 205/205/205 206/206/206 204/204/204
f 205/205/205 204/204/204 203/203/203
f 207/207/207 208/208/208 206/206/206
f 207/207/207 206/206/206 205/205/205
f 176/176/176 175/175/175 208/208/208
f 176/176/176 208/208/208 207/207/207
f 209/209/209 186/186/186 188/188/188
f 209/209/209 188/188/188 210/210/210
f 211/211/211 186/186/186 209/209/209
f 212/212/212 211/211/211 213/213/213
f 190/190/190 214/214/214 210/210/210
f 190/190/190 210/210/210 188/188/188
f 214/214/214 190/190/190 192/192/192
f 214/214/214 192/192/192 215/215/215
f 215/215/215 192/192/192 194/194/194
f 215/215/215 194/194/194 216/216/216
f 216/216/216 194/194/194 217/217/217
f 218/218/218 219/219/219 220/220/220
f 221/221/221 222/222/222 174/174/174
f 174/174/174 222/222/222 223/223/223
f 174/174/174 223/223/223 175/175/175
f 224/224/224 208/208/208 175/175/175
f 224/224/224 175/175/175 223/223/223
f 208/208/208 224/224/224 225/225/225
f 208/208/208 225/225/225 206/206/206
f 206/206/206 225/225/225 226/226/226
f 206/206/206 226/226/226 204/204/204
f 204/204/204 226/226/226 219/219/219
f 213/213/213 211/211/211 209/209/209
f 213/213/213 209/209/209 227/227/227
f 227/227/227 209/209/209 210/210/210
f 227/227/227 210/210/210 228/228/228
f 229/229/229 215/215/215 216/216/216
f 229/229/229 216/216/216 230/230/230
f 230/230/230 216/216/216 217/217/217
f 230/230/230 217/217/217 231/231/231
f 221/221/221 232/232/232 233/233/233
f 221/221/221 233/233/233 222/222/222
f 222/222/222 233/233/233 234/234/234
f 222/222/222 234/234/234 223/223/223
f 225/225/225 235/235/235 236/236/236
f 225/225/225 236/236/236 226/226/226
f 226/226/226 236/236/236 220/220/220
f 226/226/226 220/220/220 219/219/219
f 214/214/214 237/237/237 238/238/238
f 214/214/214 238/238/238 210/210/210
f 210/210/210 238/238/238 239/239/239
f 210/210/210 239/239/239 228/228/228
f 229/229/229 240/240/240 241/241/241
f 229/229/229 241/241/241 215/215/215
f 215/215/215 241/241/241 237/237/237
f 215/215/215 237/237/237 214/214/214
f 234/234/234 242/242/242 243/243/243
f 234/234/234 243/243/243 223/223/223
f 223/223/223 243/243/243 244/244/244
f 223/223/223 244/244/244 224/224/224
f 224/224/224 244/244/244 245/245/245
f 224/224/224 245/245/245 225/225/225
f 225/225/225 245/245/245 246/246/246
f 225/225/225 246/246/246 235/235/235
f 156/156/156 173/173/173 176/176/176
f 156/156/156 176/176/176 172/172/172
f 155/155/155 177/177/177 173/173/173
f 155/155/155 173/173/173 156/156/156
f 157/157/157 179/179/179 177/177/177
f 157/157/157 177/177/177 155/155/155
f 158/158/158 181/181/181 184/184/184
f 158/158/158 184/184/184 159/159/159
f 160/160/160 185/185/185 181/181/181
f 160/160/160 181/181/181 158/158/158
f 161/161/161 187/187/187 185/185/185
f 161/161/161 185/185/185 160/160/160
f 162/162/162 189/189/189 187/187/187
f 162/162/162 187/187/187 161/161/161
f 163/163/163 191/191/191 189/189/189
f 163/163/163 189/189/189 162/162/162
f 164/164/164 193/193/193 191/191/191
f 164/164/164 191/191/191 163/163/163
f 165/165/165 195/195/195 193/193/193
f 165/165/165 193/193/193 164/164/164
f 166/166/166 197/197/197 195/195/195
f 166/166/166 195/195/195 165/165/165
f 167/167/167 199/199/199 202/202/202
f 167/167/167 202/202/202 168/168/168
f 169/169/169 203/203/203 199/199/199
f 169/169/169 199/199/199 167/167/167
f 170/170/170 205/205/205 203/203/203
f 170/170/170 203/203/203 169/169/169
f 171/171/171 207/207/207 205/205/205
f 171/171/171 205/205/205 170/170/170
f 172/172/172 176/176/176 207/207/207
f 172/172/172 207/207/207 171/171/171
f 247/247/247 231/231/231 217/217/217
f 248/248/248 232/232/232 221/221/221
f 249/249/249 250/250/250 251/251/251
f 249/249/249 251/251/251 252/252/252
f 253/253/253 254/254/254 255/255/255
f 253/253/253 255/255/255 256/256/256
f 257/257/257 258/258/258 259/259/259
f 257/257/257 259/259/259 260/260/260
f 261/261/261 262/262/262 250/250/250
f 261/261/261 250/250/250 249/249/249
f 263/263/263 264/264/264 265/265/265
f 263/263/263 265/265/265 266/266/266
f 267/267/267 249/249/249 252/252/252
f 267/267/267 252/252/252 268/268/268
f 269/269/269 270/270/270 271/271/271
f 269/269/269 271/271/271 272/272/272
f 273/273/273 274/274/274 275/275/275
f 273/273/273 275/275/275 276/276/276
f 277/277/277 278/278/278 279/279/279
f 277/277/277 279/279/279 280/280/280
f 281/281/281 277/277/277 280/280/280
f 281/281/281 280/280/280 282/282/282
f 254/254/254 269/269/269 272/272/272
f 254/254/254 272/272/272 255/255/255
f 274/274/274 257/257/257 260/260/260
f 274/274/274 260/260/260 275/275/275
f 250/250/250 262/262/262 278/278/278
f 250/250/250 278/278/278 277/277/277
f 251/251/251 250/250/250 277/277/277
f 251/251/251 277/277/277 281/281/281
f 270/270/270 283/283/283 284/284/284
f 270/270/270 284/284/284 271/271/271
f 285/285/285 286/286/286 273/273/273
f 285/285/285 273/273/273 276/276/276
f 280/280/280 279/279/279 287/287/287
f 280/280/280 287/287/287 263/263/263
f 282/282/282 280/280/280 263/263/263
f 282/282/282 263/263/263 266/266/266
f 288/288/288 289/289/289 290/290/290
f 288/288/288 290/290/290 291/291/291
f 292/292/292 293/293/293 289/289/289
f 292/292/292 289/289/289 288/288/288
f 294/294/294 295/295/295 293/293/293
f 294/294/294 293/293/293 292/292/292
f 296/296/296 295/295/295 294/294/294
f 296/296/296 294/294/294 297/297/297
f 268/268/268 296/296/296 297/297/297
f 260/260/260 259/259/259 298/298/298
f 260/260/260 298/298/298 299/299/299
f 275/275/275 260/260/260 299/299/299
f 275/275/275 299/299/299 300/300/300
f 276/276/276 275/275/275 300/300/300
f 276/276/276 300/300/300 301/301/301
f 285/285/285 276/276/276 301/301/301
f 285/285/285 301/301/301 302/302/302
f 290/290/290 265/265/265 291/291/291
f 268/268/268 297/297/297 253/253/253
f 268/268/268 253/253/253 303/303/303
f 291/291/291 265/265/265 304/304/304
f 291/291/291 304/304/304 283/283/283
f 270/270/270 288/288/288 291/291/291
f 270/270/270 291/291/291 283/283/283
f 269/269/269 292/292/292 288/288/288
f 269/269/269 288/288/288 270/270/270
f 254/254/254 294/294/294 292/292/292
f 254/254/254 292/292/292 269/269/269
f 297/297/297 294/294/294 254/254/254
f 297/297/297 254/254/254 253/253/253
f 268/268/268 252/252/252 296/296/296
f 266/266/266 265/265/265 290/290/290
f 289/289/289 282/282/282 266/266/266
f 289/289/289 266/266/266 290/290/290
f 293/293/293 281/281/281 282/282/282
f 293/293/293 282/282/282 289/289/289
f 295/295/295 251/251/251 281/281/281
f 295/295/295 281/281/281 293/293/293
f 252/252/252 251/251/251 295/295/295
f 252/252/252 295/295/295 296/296/296
f 305/305/305 306/306/306 307/307/307
f 305/305/305 307/307/307 308/308/308
f 308/308/308 307/307/307 309/309/309
f 308/308/308 309/309/309 310/310/310
f 310/310/310 309/309/309 311/311/311
f 310/310/310 311/311/311 312/312/312
f 312/312/312 311/311/311 313/313/313
f 312/312/312 313/313/313 314/314/314
f 314/314/314 313/313/313 315/315/315
f 314/314/314 315/315/315 316/316/316
f 317/317/317 318/318/318 306/306/306
f 317/317/317 306/306/306 305/305/305
f 306/306/306 319/319/319 320/320/320
f 306/306/306 320/320/320 307/307/307
f 307/307/307 320/320/320 321/321/321
f 307/307/307 321/321/321 309/309/309
f 309/309/309 321/321/321 322/322/322
f 309/309/309 322/322/322 311/311/311
f 311/311/311 322/322/322 323/323/323
f 311/311/311 323/323/323 313/313/313
f 313/313/313 324/324/324 325/325/325
f 313/313/313 325/325/325 315/315/315
f 318/318/318 326/326/326 327/327/327
f 318/318/318 327/327/327 306/306/306
f 319/319/319 328/328/328 329/329/329
f 319/319/319 329/329/329 320/320/320
f 320/320/320 329/329/329 330/330/330
f 320/320/320 330/330/330 321/321/321
f 321/321/321 330/330/330 331/331/331
f 321/321/321 331/331/331 322/322/322
f 322/322/322 331/331/331 332/332/332
f 322/322/322 332/332/332 323/323/323
f 324/324/324 333/333/333 334/334/334
f 324/324/324 334/334/334 325/325/325
f 326/326/326 335/335/335 336/336/336
f 326/326/326 336/336/336 327/327/327
f 337/337/337 338/338/338 339/339/339
f 337/337/337 339/339/339 340/340/340
f 340/340/340 339/339/339 341/341/341
f 340/340/340 341/341/341 342/342/342
f 342/342/342 341/341/341 343/343/343
f 342/342/342 343/343/343 344/344/344
f 344/344/344 343/343/343 345/345/345
f 344/344/344 345/345/345 346/346/346
f 347/347/347 348/348/348 349/349/349
f 347/347/347 349/349/349 350/350/350
f 351/351/351 352/352/352 353/353/353
f 351/351/351 353/353/353 354/354/354
f 338/338/338 355/355/355 356/356/356
f 338/338/338 356/356/356 339/339/339
f 339/339/339 356/356/356 357/357/357
f 339/339/339 357/357/357 341/341/341
f 341/341/341 357/357/357 358/358/358
f 341/341/341 358/358/358 343/343/343
f 343/343/343 358/358/358 359/359/359
f 343/343/343 359/359/359 345/345/345
f 348/348/348 359/359/359 360/360/360
f 348/348/348 360/360/360 349/349/349
f 352/352/352 361/361/361 355/355/355
f 352/352/352 355/355/355 353/353/353
f 355/355/355 362/362/362 363/363/363
f 355/355/355 363/363/363 356/356/356
f 356/356/356 363/363/363 364/364/364
f 356/356/356 364/364/364 357/357/357
f 357/357/357 364/364/364 365/365/365
f 357/357/357 365/365/365 358/358/358
f 358/358/358 365/365/365 366/366/366
f 358/358/358 366/366/366 359/359/359
f 359/359/359 366/366/366 367/367/367
f 359/359/359 367/367/367 360/360/360
f 361/361/361 368/368/368 362/362/362
f 361/361/361 362/362/362 355/355/355
f 308/308/308 369/369/369 305/305/305
f 310/310/310 369/369/369 308/308/308
f 312/312/312 369/369/369 310/310/310
f 314/314/314 369/369/369 312/312/312
f 316/316/316 369/369/369 314/314/314
f 305/305/305 369/369/369 317/317/317
f 362/362/362 370/370/370 363/363/363
f 363/363/363 370/370/370 364/364/364
f 364/364/364 370/370/370 365/365/365
f 365/365/365 370/370/370 366/366/366
f 366/366/366 370/370/370 367/367/367
f 368/368/368 370/370/370 362/362/362
f 315/315/315 371/371/371 372/372/372
f 315/315/315 372/372/372 316/316/316
f 317/317/317 373/373/373 374/374/374
f 317/317/317 374/374/374 318/318/318
f 325/325/325 375/375/375 371/371/371
f 325/325/325 371/371/371 315/315/315
f 318/318/318 374/374/374 376/376/376
f 318/318/318 376/376/376 326/326/326
f 334/334/334 377/377/377 375/375/375
f 334/334/334 375/375/375 325/325/325
f 326/326/326 376/376/376 378/378/378
f 326/326/326 378/378/378 335/335/335
f 349/349/349 379/379/379 380/380/380
f 349/349/349 380/380/380 350/350/350
f 351/351/351 381/381/381 382/382/382
f 351/351/351 382/382/382 352/352/352
f 360/360/360 383/383/383 379/379/379
f 360/360/360 379/379/379 349/349/349
f 352/352/352 382/382/382 384/384/384
f 352/352/352 384/384/384 361/361/361
f 367/367/367 385/385/385 383/383/383
f 367/367/367 383/383/383 360/360/360
f 361/361/361 384/384/384 386/386/386
f 361/361/361 386/386/386 368/368/368
f 372/372/372 373/373/373 316/316/316
f 316/316/316 373/373/373 369/369/369
f 373/373/373 317/317/317 369/369/369
f 370/370/370 387/387/387 385/385/385
f 370/370/370 385/385/385 367/367/367
f 368/368/368 386/386/386 387/387/387
f 368/368/368 387/387/387 370/370/370
f 371/371/371 388/388/388 389/389/389
f 371/371/371 389/389/389 372/372/372
f 373/373/373 390/390/390 391/391/391
f 373/373/373 391/391/391 374/374/374
f 375/375/375 392/392/392 388/388/388
f 375/375/375 388/388/388 371/371/371
f 374/374/374 391/391/391 393/393/393
f 374/374/374 393/393/393 376/376/376
f 377/377/377 394/394/394 392/392/392
f 377/377/377 392/392/392 375/375/375
f 376/376/376 393/393/393 395/395/395
f 376/376/376 395/395/395 378/378/378
f 379/379/379 396/396/396 397/397/397
f 379/379/379 397/397/397 380/380/380
f 381/381/381 398/398/398 399/399/399
f 381/381/381 399/399/399 382/382/382
f 383/383/383 400/400/400 396/396/396
f 383/383/383 396/396/396 379/379/379
f 382/382/382 399/399/399 401/401/401
f 382/382/382 401/401/401 384/384/384
f 385/385/385 402/402/402 400/400/400
f 385/385/385 400/400/400 383/383/383
f 384/384/384 401/401/401 403/403/403
f 384/384/384 403/403/403 386/386/386
f 390/390/390 373/373/373 372/372/372
f 390/390/390 372/372/372 389/389/389
f 387/387/387 404/404/404 402/402/402
f 387/387/387 402/402/402 385/385/385
f 386/386/386 403/403/403 404/404/404
f 386/386/386 404/404/404 387/387/387
f 399/399/399 405/405/405 406/406/406
f 399/399/399 406/406/406 401/401/401
f 391/391/391 407/407/407 408/408/408
f 391/391/391 408/408/408 393/393/393
f 390/390/390 409/409/409 407/407/407
f 390/390/390 407/407/407 391/391/391
f 409/409/409 390/390/390 389/389/389
f 409/409/409 389/389/389 410/410/410
f 388/388/388 411/411/411 410/410/410
f 388/388/388 410/410/410 389/389/389
f 392/392/392 412/412/412 411/411/411
f 392/392/392 411/411/411 388/388/388
f 400/400/400 413/413/413 414/414/414
f 400/400/400 414/414/414 396/396/396
f 402/402/402 415/415/415 413/413/413
f 402/402/402 413/413/413 400/400/400
f 404/404/404 416/416/416 415/415/415
f 404/404/404 415/415/415 402/402/402
f 403/403/403 417/417/417 416/416/416
f 403/403/403 416/416/416 404/404/404
f 401/401/401 406/406/406 417/417/417
f 401/401/401 417/417/417 403/403/403
f 406/406/406 418/418/418 419/419/419
f 406/406/406 419/419/419 417/417/417
f 405/405/405 420/420/420 418/418/418
f 405/405/405 418/418/418 406/406/406
f 413/413/413 421/421/421 422/422/422
f 413/413/413 422/422/422 414/414/414
f 415/415/415 423/423/423 421/421/421
f 415/415/415 421/421/421 413/413/413
f 416/416/416 423/423/423 415/415/415
f 417/417/417 419/419/419 423/423/423
f 417/417/417 423/423/423 416/416/416
f 422/422/422 424/424/424 425/425/425
f 422/422/422 425/425/425 414/414/414
f 426/426/426 396/396/396 414/414/414
f 426/426/426 414/414/414 425/425/425
f 392/392/392 427/427/427 428/428/428
f 392/392/392 428/428/428 412/412/412
f 427/427/427 392/392/392 394/394/394
f 427/427/427 394/394/394 429/429/429
f 430/430/430 397/397/397 396/396/396
f 430/430/430 396/396/396 426/426/426
f 399/399/399 431/431/431 432/432/432
f 399/399/399 432/432/432 405/405/405
f 433/433/433 420/420/420 405/405/405
f 433/433/433 405/405/405 432/432/432
f 434/434/434 393/393/393 408/408/408
f 434/434/434 408/408/408 435/435/435
f 393/393/393 434/434/434 436/436/436
f 393/393/393 436/436/436 395/395/395
f 398/398/398 437/437/437 431/431/431
f 398/398/398 431/431/431 399/399/399
f 438/438/438 439/439/439 440/440/440
f 439/439/439 441/441/441 440/440/440
f 441/441/441 442/442/442 440/440/440
f 442/442/442 443/443/443 440/440/440
f 443/443/443 444/444/444 440/440/440
f 444/444/444 445/445/445 440/440/440
f 445/445/445 438/438/438 440/440/440