version 1.00
328
[-0.5142,-0.41635,-0.35645][-0.7444,0.1632,-0.6475][0.3025,0.2573,0][-0.4171,-0.45135,-0.45965][-0.6952,-0.0185998,-0.7186][0.2456,0.2233,0][-0.401,-0.51015,-0.44565][-0.7645,-0.3669,-0.53][0.2555,0.1909,0][-0.2835,0.55585,0.27175][-0.5015,0.6839,0.5299][0.618,0.7614,0][1.39603e-007,0.60025,0.27595][1.79504e-007,0.8543,0.5198][0.7004,0.8634,0][1.88163e-007,0.66645,0.08675][2.63548e-007,0.9777,0.21][0.5941,0.9223,0][-0.2835,0.55585,0.27175][-0.5015,0.6839,0.5299][0.618,0.7614,0][1.88163e-007,0.66645,0.08675][2.63548e-007,0.9777,0.21][0.5941,0.9223,0][-0.3357,0.62085,0.04165][-0.561,0.7929,0.2378][0.5119,0.7888,0][0,0.21545,0.60225][0,0.2922,0.9564][0.8446,0.6656,0][0,0.42985,0.51615][0,0.5767,0.817][0.7851,0.7709,0][-0.1983,0.41865,0.47585][-0.3573,0.5254,0.7722][0.7048,0.7226,0][0,0.21545,0.60225][0,0.2922,0.9564][0.8446,0.6656,0][-0.1983,0.41865,0.47585][-0.3573,0.5254,0.7722][0.7048,0.7226,0][-0.2358,0.18735,0.56895][-0.3907,0.2884,0.8742][0.7488,0.6154,0][0,-0.0426502,0.64265][-1.34009e-007,0.0555,0.9985][0.8859,0.5135,0][-0.2619,-0.00325012,0.60485][-0.3891,0.0869001,0.9171][0.7649,0.5128,0][-0.3116,-0.25375,0.53215][-0.4046,0.0143001,0.9144][0.7594,0.3947,0][0,-0.0426502,0.64265][-1.34009e-007,0.0555,0.9985][0.8859,0.5135,0][-0.3116,-0.25375,0.53215][-0.4046,0.0143001,0.9144][0.7594,0.3947,0][-1.81595e-007,-0.32265,0.55735][-1.5853e-007,-0.0251,0.9997][0.8977,0.3652,0][-0.4785,-0.20965,0.38065][-0.7729,0.0705002,0.6307][0.6577,0.394,0][-0.4872,0.0240498,0.44765][-0.7807,0.1583,0.6045][0.6696,0.5042,0][-0.6019,-0.0913501,0.12605][-0.8802,0.3998,0.2557][0.5165,0.4269,0][-0.3382,0.42755,0.29165][-0.7752,0.3705,0.5117][0.6222,0.6973,0][-0.3411,0.44125,0.16115][-0.8974,0.3705,0.2396][0.5603,0.7003,0][-0.3987,0.31525,0.09245][-0.9454,0.2355,0.2253][0.5176,0.6431,0][-0.3382,0.42755,0.29165][-0.7752,0.3705,0.5117][0.6222,0.6973,0][-0.3987,0.31525,0.09245][-0.9454,0.2355,0.2253][0.5176,0.6431,0][-0.4167,0.22365,0.33285][-0.7989,0.2572,0.5437][0.6363,0.5862,0][-0.3987,0.31525,0.09245][-0.9454,0.2355,0.2253][0.5176,0.6431,0][-0.5359,0.17315,-0.08685][-0.9786,0.2053,-0.00940015][0.4178,0.5631,0][-0.5717,0.00845003,-0.07605][-0.9534,0.3005,-0.0260001][0.4184,0.4832,0][-0.3987,0.31525,0.09245][-0.9454,0.2355,0.2253][0.5176,0.6431,0][-0.5717,0.00845003,-0.07605][-0.9534,0.3005,-0.0260001][0.4184,0.4832,0][-0.5624,-0.02285,0.11295][-0.9101,0.3572,0.2099][0.5129,0.4692,0][-0.5359,0.17315,-0.08685][-0.9786,0.2053,-0.00940015][0.4178,0.5631,0][-0.3987,0.31525,0.09245][-0.9454,0.2355,0.2253][0.5176,0.6431,0][-0.4537,0.46095,-0.05835][-0.8974,0.3705,0.2396][0.4497,0.7016,0][-0.5937,-0.29405,-0.06865][-0.9804,0.1902,-0.0517001][0.4306,0.3288,0][-0.5821,-0.23685,-0.06795][-0.9804,0.1902,-0.0510001][0.4276,0.3537,0][-0.5453,-0.26405,-0.26935][-0.8819,0.214,-0.4201][0.3235,0.3371,0][-0.5937,-0.29405,-0.06865][-0.9804,0.1902,-0.0517001][0.4306,0.3288,0][-0.5453,-0.26405,-0.26935][-0.8819,0.214,-0.4201][0.3235,0.3371,0][-0.5538,-0.32195,-0.28205][-0.8276,0.2277,-0.5131][0.3274,0.3048,0][-0.4991,0.23475,-0.28015][-0.949,0.1528,-0.2757][0.3228,0.6017,0][-0.4119,0.0296497,-0.41395][-0.8396,0.0543003,-0.5405][0.2316,0.5167,0][-0.5345,0.0199499,-0.27475][-0.9116,0.252,-0.3248][0.3163,0.4935,0][-0.4462,0.42005,-0.32345][-0.9077,0.2851,-0.3079][0.3237,0.6987,0][-0.3644,0.24145,-0.44115][-0.859,0.1822,-0.4785][0.2181,0.6334,0][-0.4991,0.23475,-0.28015][-0.949,0.1528,-0.2757][0.3228,0.6017,0][-0.346,0.30845,-0.50355][-0.8213,0.2328,-0.5209][0.2107,0.6882,0][-0.4462,0.42005,-0.32345][-0.9077,0.2851,-0.3079][0.3237,0.6987,0][-0.3316,0.58295,-0.39565][-0.6117,0.6938,-0.38][0.3161,0.7985,0][-0.346,0.30845,-0.50355][-0.8213,0.2328,-0.5209][0.2107,0.6882,0][-0.3316,0.58295,-0.39565][-0.6117,0.6938,-0.38][0.3161,0.7985,0][-0.245,0.48405,-0.59355][-0.5737,0.6341,-0.5185][0.2197,0.7995,0][-0.2835,0.55585,0.27175][-0.5015,0.6839,0.5299][0.618,0.7614,0][-0.1983,0.41865,0.47585][-0.3573,0.5254,0.7722][0.7048,0.7226,0][1.39603e-007,0.60025,0.27595][1.79504e-007,0.8543,0.5198][0.7004,0.8634,0][-0.3357,0.62085,0.04165][-0.561,0.7929,0.2378][0.5119,0.7888,0][-0.3411,0.44125,0.16115][-0.8974,0.3705,0.2396][0.5603,0.7003,0][-0.3382,0.42755,0.29165][-0.7752,0.3705,0.5117][0.6222,0.6973,0][-0.3357,0.62085,0.04165][-0.561,0.7929,0.2378][0.5119,0.7888,0][-0.3382,0.42755,0.29165][-0.7752,0.3705,0.5117][0.6222,0.6973,0][-0.2835,0.55585,0.27175][-0.5015,0.6839,0.5299][0.618,0.7614,0][-0.4462,0.42005,-0.32345][-0.9077,0.2851,-0.3079][0.3237,0.6987,0][-0.4537,0.46095,-0.05835][-0.9265,0.3762,-0.00620014][0.4497,0.7016,0][-0.3464,0.63845,-0.18625][-0.5677,0.8194,-0.0795001][0.4095,0.8047,0][-0.4462,0.42005,-0.32345][-0.9077,0.2851,-0.3079][0.3237,0.6987,0][-0.3464,0.63845,-0.18625][-0.5677,0.8194,-0.0795001][0.4095,0.8047,0][-0.3316,0.58295,-0.39565][-0.6117,0.6938,-0.38][0.3161,0.7985,0][-0.5676,-0.26815,0.14305][-0.9315,0.2484,0.2656][0.5387,0.3439,0][-0.5821,-0.23685,-0.06795][-0.9804,0.1902,-0.0510001][0.4276,0.3537,0][-0.5937,-0.29405,-0.06865][-0.9804,0.1902,-0.0517001][0.4306,0.3288,0][-0.5676,-0.26815,0.14305][-0.9315,0.2484,0.2656][0.5387,0.3439,0][-0.5937,-0.29405,-0.06865][-0.9804,0.1902,-0.0517001][0.4306,0.3288,0][-0.5787,-0.31905,0.17195][-0.8376,0.2867,0.465][0.5521,0.3186,0][-0.3357,0.62085,0.04165][-0.561,0.7929,0.2378][0.5119,0.7888,0][1.88163e-007,0.66645,0.08675][2.63548e-007,0.9777,0.21][0.5941,0.9223,0][2.31982e-007,0.68635,-0.16365][3.11338e-007,0.9978,-0.0663][0.4509,0.9583,0][-0.3357,0.62085,0.04165][-0.561,0.7929,0.2378][0.5119,0.7888,0][2.31982e-007,0.68635,-0.16365][3.11338e-007,0.9978,-0.0663][0.4509,0.9583,0][-0.3464,0.63845,-0.18625][-0.5677,0.8194,-0.0795001][0.4095,0.8047,0][-0.4991,0.23475,-0.28015][-0.949,0.1528,-0.2757][0.3228,0.6017,0][-0.4537,0.46095,-0.05835][-0.9786,0.2053,-0.00940015][0.4497,0.7016,0][-0.4462,0.42005,-0.32345][-0.9265,0.3762,-0.00620014][0.3237,0.6987,0][-0.3464,0.63845,-0.18625][-0.5677,0.8194,-0.0795001][0.4095,0.8047,0][-0.4537,0.46095,-0.05835][-0.9265,0.3762,-0.00620014][0.4497,0.7016,0][-0.3357,0.62085,0.04165][-0.8974,0.3705,0.2396][0.5119,0.7888,0][-0.5345,0.0199499,-0.27475][-0.9116,0.252,-0.3248][0.3163,0.4935,0][-0.5359,0.17315,-0.08685][-0.9534,0.3005,-0.0260001][0.4178,0.5631,0][-0.4991,0.23475,-0.28015][-0.9786,0.2053,-0.00940015][0.3228,0.6017,0][-0.5453,-0.26405,-0.26935][-0.7902,-0.3836,-0.478][0.3235,0.3371,0][-0.5608,-0.14315,-0.26845][-0.8542,-0.4294,-0.2932][0.3312,0.4065,0][-0.4589,-0.24335,-0.34505][-0.631,-0.2838,-0.722][0.2629,0.3445,0][-0.401,-0.51015,-0.44565][-0.7645,-0.3669,-0.53][0.2555,0.1909,0][-0.4171,-0.45135,-0.45965][-0.6952,-0.0185998,-0.7186][0.2456,0.2233,0][-0.321,-0.52815,-0.53625][-0.5425,-0.0979998,-0.8343][0.2076,0.1678,0][-0.401,-0.51015,-0.44565][-0.7645,-0.3669,-0.53][0.2555,0.1909,0][-0.321,-0.52815,-0.53625][-0.5425,-0.0979998,-0.8343][0.2076,0.1678,0][-0.2908,-0.58745,-0.52255][-0.4504,-0.3858,-0.8052][0.2074,0.1347,0][-0.3116,-0.25375,0.53215][-0.4683,-0.6705,0.5754][0.7594,0.3947,0][-0.4785,-0.20965,0.38065][-0.7026,-0.5552,0.4451][0.6577,0.394,0][-0.4455,-0.31375,0.30885][-0.7133,-0.546,0.4394][0.6467,0.3338,0][-0.3116,-0.25375,0.53215][-0.4683,-0.6705,0.5754][0.7594,0.3947,0][-0.4455,-0.31375,0.30885][-0.7133,-0.546,0.4394][0.6467,0.3338,0][-0.2436,-0.36115,0.44265][-0.3938,-0.6842,0.6139][0.7707,0.3257,0][-0.4785,-0.20965,0.38065][-0.7026,-0.5552,0.4451][0.6577,0.394,0][-0.6019,-0.0913501,0.12605][-0.8592,-0.4899,0.1477][0.5165,0.4269,0][-0.5676,-0.26815,0.14305][-0.8456,-0.4809,0.2316][0.5387,0.3439,0][-0.4785,-0.20965,0.38065][-0.7026,-0.5552,0.4451][0.6577,0.394,0][-0.5676,-0.26815,0.14305][-0.8456,-0.4809,0.2316][0.5387,0.3439,0][-0.4455,-0.31375,0.30885][-0.7133,-0.546,0.4394][0.6467,0.3338,0][-0.6019,-0.0913501,0.12605][-0.8592,-0.4899,0.1477][0.5165,0.4269,0][-0.618,-0.12925,-0.06365][-0.8761,-0.4786,-0.0574001][0.4267,0.4114,0][-0.5821,-0.23685,-0.06795][-0.8771,-0.476,-0.0645001][0.4276,0.3537,0][-0.6019,-0.0913501,0.12605][-0.8592,-0.4899,0.1477][0.5165,0.4269,0][-0.5821,-0.23685,-0.06795][-0.8771,-0.476,-0.0645001][0.4276,0.3537,0][-0.5676,-0.26815,0.14305][-0.8456,-0.4809,0.2316][0.5387,0.3439,0][-0.5821,-0.23685,-0.06795][-0.8771,-0.476,-0.0645001][0.4276,0.3537,0][-0.618,-0.12925,-0.06365][-0.8761,-0.4786,-0.0574001][0.4267,0.4114,0][-0.5608,-0.14315,-0.26845][-0.8542,-0.4294,-0.2932][0.3312,0.4065,0][-0.5821,-0.23685,-0.06795][-0.8771,-0.476,-0.0645001][0.4276,0.3537,0][-0.5608,-0.14315,-0.26845][-0.8542,-0.4294,-0.2932][0.3312,0.4065,0][-0.5453,-0.26405,-0.26935][-0.7902,-0.3836,-0.478][0.3235,0.3371,0][-0.3382,0.42755,0.29165][-0.7752,0.3705,0.5117][0.6222,0.6973,0][-0.4167,0.22365,0.33285][-0.7989,0.2572,0.5437][0.6363,0.5862,0][-0.2358,0.18735,0.56895][-0.3907,0.2884,0.8742][0.7488,0.6154,0][-0.3382,0.42755,0.29165][-0.7752,0.3705,0.5117][0.6222,0.6973,0][-0.2358,0.18735,0.56895][-0.3907,0.2884,0.8742][0.7488,0.6154,0][-0.1983,0.41865,0.47585][-0.3573,0.5254,0.7722][0.7048,0.7226,0][-0.4167,0.22365,0.33285][-0.7989,0.2572,0.5437][0.6363,0.5862,0][-0.4872,0.0240498,0.44765][-0.7807,0.1583,0.6045][0.6696,0.5042,0][-0.2619,-0.00325012,0.60485][-0.3891,0.0869001,0.9171][0.7649,0.5128,0][-0.4167,0.22365,0.33285][-0.7989,0.2572,0.5437][0.6363,0.5862,0][-0.2619,-0.00325012,0.60485][-0.3891,0.0869001,0.9171][0.7649,0.5128,0][-0.2358,0.18735,0.56895][-0.3907,0.2884,0.8742][0.7488,0.6154,0][-0.2835,0.55585,0.27175][-0.5015,0.6839,0.5299][0.618,0.7614,0][-0.3382,0.42755,0.29165][-0.7752,0.3705,0.5117][0.6222,0.6973,0][-0.1983,0.41865,0.47585][-0.3573,0.5254,0.7722][0.7048,0.7226,0][-0.1983,0.41865,0.47585][-0.3573,0.5254,0.7722][0.7048,0.7226,0][0,0.42985,0.51615][0,0.5767,0.817][0.7851,0.7709,0][1.39603e-007,0.60025,0.27595][1.79504e-007,0.8543,0.5198][0.7004,0.8634,0][0,-0.0426502,0.64265][-1.34009e-007,0.0555,0.9985][0.8859,0.5135,0][0,0.21545,0.60225][0,0.2922,0.9564][0.8446,0.6656,0][-0.2358,0.18735,0.56895][-0.3907,0.2884,0.8742][0.7488,0.6154,0][0,-0.0426502,0.64265][-1.34009e-007,0.0555,0.9985][0.8859,0.5135,0][-0.2358,0.18735,0.56895][-0.3907,0.2884,0.8742][0.7488,0.6154,0][-0.2619,-0.00325012,0.60485][-0.3891,0.0869001,0.9171][0.7649,0.5128,0][-0.4785,-0.20965,0.38065][-0.7729,0.0705002,0.6307][0.6577,0.394,0][-0.3116,-0.25375,0.53215][-0.4046,0.0143001,0.9144][0.7594,0.3947,0][-0.2619,-0.00325012,0.60485][-0.3891,0.0869001,0.9171][0.7649,0.5128,0][-0.4785,-0.20965,0.38065][-0.7729,0.0705002,0.6307][0.6577,0.394,0][-0.2619,-0.00325012,0.60485][-0.3891,0.0869001,0.9171][0.7649,0.5128,0][-0.4872,0.0240498,0.44765][-0.7807,0.1583,0.6045][0.6696,0.5042,0][-0.4872,0.0240498,0.44765][-0.7807,0.1583,0.6045][0.6696,0.5042,0][-0.5624,-0.02285,0.11295][-0.9101,0.3572,0.2099][0.5129,0.4692,0][-0.6019,-0.0913501,0.12605][-0.8802,0.3998,0.2557][0.5165,0.4269,0][-0.4872,0.0240498,0.44765][-0.7807,0.1583,0.6045][0.6696,0.5042,0][-0.4167,0.22365,0.33285][-0.7989,0.2572,0.5437][0.6363,0.5862,0][-0.5624,-0.02285,0.11295][-0.8985,0.4214,0.123][0.5129,0.4692,0][-0.5538,-0.32195,-0.28205][-0.8276,0.2277,-0.5131][0.3274,0.3048,0][-0.5453,-0.26405,-0.26935][-0.8819,0.214,-0.4201][0.3235,0.3371,0][-0.4589,-0.24335,-0.34505][-0.7061,0.0773002,-0.7039][0.2629,0.3445,0][-0.5538,-0.32195,-0.28205][-0.8276,0.2277,-0.5131][0.3274,0.3048,0][-0.4589,-0.24335,-0.34505][-0.7061,0.0773002,-0.7039][0.2629,0.3445,0][-0.5142,-0.41635,-0.35645][-0.7444,0.1632,-0.6475][0.3025,0.2573,0][-0.4106,-0.20155,-0.38805][-0.6788,-0.0258998,-0.7339][0.2244,0.3689,0][-0.4069,-0.29455,-0.42255][-0.678,0.2324,-0.6974][0.2227,0.3096,0][-0.4589,-0.24335,-0.34505][-0.7061,0.0773002,-0.7039][0.2629,0.3445,0][-0.5608,-0.14315,-0.26845][-0.8585,0.1947,-0.4743][0.3312,0.4065,0][-0.4386,-0.09725,-0.42715][-0.5911,-0.1319,-0.7958][0.2301,0.4546,0][-0.4106,-0.20155,-0.38805][-0.6788,-0.0258998,-0.7339][0.2244,0.3689,0][-0.4991,0.23475,-0.28015][-0.949,0.1528,-0.2757][0.3228,0.6017,0][-0.4284,0.15025,-0.44225][-0.9183,0.0631003,-0.3909][0.2268,0.5802,0][-0.4119,0.0296497,-0.41395][-0.8396,0.0543003,-0.5405][0.2316,0.5167,0][-0.4119,0.0296497,-0.41395][-0.8396,0.0543003,-0.5405][0.2316,0.5167,0][-0.4386,-0.09725,-0.42715][-0.5911,-0.1319,-0.7958][0.2301,0.4546,0][-0.5608,-0.14315,-0.26845][-0.8585,0.1947,-0.4743][0.3312,0.4065,0][-0.4462,0.42005,-0.32345][-0.9077,0.2851,-0.3079][0.3237,0.6987,0][-0.346,0.30845,-0.50355][-0.8213,0.2328,-0.5209][0.2107,0.6882,0][-0.3644,0.24145,-0.44115][-0.859,0.1822,-0.4785][0.2181,0.6334,0][-0.3644,0.24145,-0.44115][-0.859,0.1822,-0.4785][0.2181,0.6334,0][-0.4284,0.15025,-0.44225][-0.9183,0.0631003,-0.3909][0.2268,0.5802,0][-0.4991,0.23475,-0.28015][-0.949,0.1528,-0.2757][0.3228,0.6017,0][-0.4171,-0.45135,-0.45965][-0.6952,-0.0185998,-0.7186][0.2456,0.2233,0][-0.4069,-0.29455,-0.42255][-0.678,0.2324,-0.6974][0.2227,0.3096,0][-0.2978,-0.36095,-0.48745][-0.3682,0.308,-0.8773][0.1782,0.25,0][-0.4171,-0.45135,-0.45965][-0.6952,-0.0185998,-0.7186][0.2456,0.2233,0][-0.2978,-0.36095,-0.48745][-0.3682,0.308,-0.8773][0.1782,0.25,0][-0.321,-0.52815,-0.53625][-0.5425,-0.0979998,-0.8343][0.2076,0.1678,0][-0.4589,-0.24335,-0.34505][-0.7061,0.0773002,-0.7039][0.2629,0.3445,0][-0.4069,-0.29455,-0.42255][-0.678,0.2324,-0.6974][0.2227,0.3096,0][-0.4171,-0.45135,-0.45965][-0.6952,-0.0185998,-0.7186][0.2456,0.2233,0][-0.4589,-0.24335,-0.34505][-0.7061,0.0773002,-0.7039][0.2629,0.3445,0][-0.4171,-0.45135,-0.45965][-0.6952,-0.0185998,-0.7186][0.2456,0.2233,0][-0.5142,-0.41635,-0.35645][-0.7444,0.1632,-0.6475][0.3025,0.2573,0][-0.5608,-0.14315,-0.26845][-0.8585,0.1947,-0.4743][0.3312,0.4065,0][-0.4106,-0.20155,-0.38805][-0.6788,-0.0258998,-0.7339][0.2244,0.3689,0][-0.4589,-0.24335,-0.34505][-0.7061,0.0773002,-0.7039][0.2629,0.3445,0][-0.618,-0.12925,-0.06365][-0.9078,0.4191,-0.0154001][0.4267,0.4114,0][-0.6019,-0.0913501,0.12605][-0.8802,0.3998,0.2557][0.5165,0.4269,0][-0.5624,-0.02285,0.11295][-0.9101,0.3572,0.2099][0.5129,0.4692,0][-0.618,-0.12925,-0.06365][-0.9078,0.4191,-0.0154001][0.4267,0.4114,0][-0.5624,-0.02285,0.11295][-0.9101,0.3572,0.2099][0.5129,0.4692,0][-0.5717,0.00845003,-0.07605][-0.9534,0.3005,-0.0260001][0.4184,0.4832,0][-0.5608,-0.14315,-0.26845][-0.8585,0.1947,-0.4743][0.3312,0.4065,0][-0.618,-0.12925,-0.06365][-0.9078,0.4191,-0.0154001][0.4267,0.4114,0][-0.5717,0.00845003,-0.07605][-0.9534,0.3005,-0.0260001][0.4184,0.4832,0][-0.5608,-0.14315,-0.26845][-0.8585,0.1947,-0.4743][0.3312,0.4065,0][-0.5717,0.00845003,-0.07605][-0.9534,0.3005,-0.0260001][0.4184,0.4832,0][-0.5345,0.0199499,-0.27475][-0.9116,0.252,-0.3248][0.3163,0.4935,0][-0.4119,0.0296497,-0.41395][-0.8396,0.0543003,-0.5405][0.2316,0.5167,0][-0.5608,-0.14315,-0.26845][-0.8585,0.1947,-0.4743][0.3312,0.4065,0][-0.5345,0.0199499,-0.27475][-0.9116,0.252,-0.3248][0.3163,0.4935,0][-0.2387,-0.48765,0.44195][-0.3639,-0.2687,0.8918][0.7776,0.2682,0][-0.2436,-0.36115,0.44265][-0.3666,0.00300011,0.9304][0.7707,0.3257,0][-0.4455,-0.31375,0.30885][-0.6649,0.2236,0.7127][0.6467,0.3338,0][-0.2387,-0.48765,0.44195][-0.3639,-0.2687,0.8918][0.7776,0.2682,0][-0.4455,-0.31375,0.30885][-0.6649,0.2236,0.7127][0.6467,0.3338,0][-0.4454,-0.38495,0.32925][-0.616,0.1122,0.7797][0.6577,0.3004,0][-2.37615e-007,-0.56235,0.44895][-2.60392e-007,-0.4051,0.9143][0.8886,0.2288,0][-0.2387,-0.48765,0.44195][-0.3639,-0.2687,0.8918][0.7776,0.2682,0][-0.2546,-0.54105,0.40175][-0.4222,-0.4922,0.7612][0.7667,0.2394,0][-2.37615e-007,-0.56235,0.44895][-2.60392e-007,-0.4051,0.9143][0.8886,0.2288,0][-0.2546,-0.54105,0.40175][-0.4222,-0.4922,0.7612][0.7667,0.2394,0][-2.46403e-007,-0.61265,0.40655][-3.02686e-007,-0.6037,0.7972][0.8842,0.1965,0][-1.81595e-007,-0.32265,0.55735][-3.21727e-007,-0.7166,0.6975][0.8977,0.3652,0][-0.3116,-0.25375,0.53215][-0.4683,-0.6705,0.5754][0.7594,0.3947,0][-0.2436,-0.36115,0.44265][-0.3938,-0.6842,0.6139][0.7707,0.3257,0][-1.81595e-007,-0.32265,0.55735][-3.21727e-007,-0.7166,0.6975][0.8977,0.3652,0][-0.2436,-0.36115,0.44265][-0.3938,-0.6842,0.6139][0.7707,0.3257,0][-1.93614e-007,-0.40435,0.47355][-3.21727e-007,-0.7166,0.6975][0.8889,0.3069,0][-1.93614e-007,-0.40435,0.47355][-1.77677e-007,-0.0904,0.9959][0.8889,0.3069,0][-0.2436,-0.36115,0.44265][-0.3666,0.00300011,0.9304][0.7707,0.3257,0][-0.2387,-0.48765,0.44195][-0.3639,-0.2687,0.8918][0.7776,0.2682,0][-1.93614e-007,-0.40435,0.47355][-1.77677e-007,-0.0904,0.9959][0.8889,0.3069,0][-0.2387,-0.48765,0.44195][-0.3639,-0.2687,0.8918][0.7776,0.2682,0][-2.37615e-007,-0.56235,0.44895][-2.60392e-007,-0.4051,0.9143][0.8886,0.2288,0][-0.2546,-0.54105,0.40175][-0.4222,-0.4922,0.7612][0.7667,0.2394,0][-0.2387,-0.48765,0.44195][-0.3639,-0.2687,0.8918][0.7776,0.2682,0][-0.4454,-0.38495,0.32925][-0.616,0.1122,0.7797][0.6577,0.3004,0][-0.245,0.48405,-0.59355][-0.5737,0.6341,-0.5185][0.2197,0.7995,0][-0.3316,0.58295,-0.39565][-0.6117,0.6938,-0.38][0.3161,0.7985,0][2.6271e-007,0.64855,-0.44275][3.35316e-007,0.9407,-0.3393][0.3076,0.9551,0][-0.245,0.48405,-0.59355][-0.5737,0.6341,-0.5185][0.2197,0.7995,0][2.6271e-007,0.64855,-0.44275][3.35316e-007,0.9407,-0.3393][0.3076,0.9551,0][2.66138e-007,0.55995,-0.64265][3.37642e-007,0.8929,-0.4503][0.2076,0.9252,0][-0.3464,0.63845,-0.18625][-0.5677,0.8194,-0.0795001][0.4095,0.8047,0][2.31982e-007,0.68635,-0.16365][3.11338e-007,0.9978,-0.0663][0.4509,0.9583,0][2.6271e-007,0.64855,-0.44275][3.35316e-007,0.9407,-0.3393][0.3076,0.9551,0][-0.3464,0.63845,-0.18625][-0.5677,0.8194,-0.0795001][0.4095,0.8047,0][2.6271e-007,0.64855,-0.44275][3.35316e-007,0.9407,-0.3393][0.3076,0.9551,0][-0.3316,0.58295,-0.39565][-0.6117,0.6938,-0.38][0.3161,0.7985,0][-0.4455,-0.31375,0.30885][-0.6649,0.2236,0.7127][0.6467,0.3338,0][-0.5676,-0.26815,0.14305][-0.9315,0.2484,0.2656][0.5387,0.3439,0][-0.5787,-0.31905,0.17195][-0.8376,0.2867,0.465][0.5521,0.3186,0][-0.4455,-0.31375,0.30885][-0.6649,0.2236,0.7127][0.6467,0.3338,0][-0.5787,-0.31905,0.17195][-0.8376,0.2867,0.465][0.5521,0.3186,0][-0.4454,-0.38495,0.32925][-0.616,0.1122,0.7797][0.6577,0.3004,0][-1.22027e-007,-0.68635,-0.56455][0,-0.2974,-0.9547][0.0993,0.0341,0][-0.1353,-0.64525,-0.54605][-0.2287,-0.3255,-0.9175][0.1518,0.0777,0][-0.1348,-0.56935,-0.57955][-0.2289,-0.1852,-0.9557][0.1337,0.1141,0][-1.22027e-007,-0.68635,-0.56455][0,-0.2974,-0.9547][0.0993,0.0341,0][-0.1348,-0.56935,-0.57955][-0.2289,-0.1852,-0.9557][0.1337,0.1141,0][0,-0.53985,-0.60045][0,-0.1219,-0.9925][0.0702,0.1026,0][-0.1343,-0.40345,-0.52995][-0.2229,0.4006,-0.8887][0.1071,0.2001,0][-0.1345,-0.49085,-0.57885][-0.2196,0.2198,-0.9505][0.1199,0.1503,0][-0.321,-0.52815,-0.53625][-0.5425,-0.0979998,-0.8343][0.2076,0.1678,0][-0.1343,-0.40345,-0.52995][-0.2229,0.4006,-0.8887][0.1071,0.2001,0][-0.321,-0.52815,-0.53625][-0.5425,-0.0979998,-0.8343][0.2076,0.1678,0][-0.2978,-0.36095,-0.48745][-0.3682,0.308,-0.8773][0.1782,0.25,0][0,-0.53985,-0.60045][0,-0.1219,-0.9925][0.0702,0.1026,0][-0.1348,-0.56935,-0.57955][-0.2289,-0.1852,-0.9557][0.1337,0.1141,0][-0.1345,-0.49085,-0.57885][-0.2196,0.2198,-0.9505][0.1199,0.1503,0][0,-0.53985,-0.60045][0,-0.1219,-0.9925][0.0702,0.1026,0][-0.1345,-0.49085,-0.57885][-0.2196,0.2198,-0.9505][0.1199,0.1503,0][0,-0.48645,-0.59995][2.17811e-007,0.2353,-0.9719][0.062,0.1257,0][-0.1348,-0.56935,-0.57955][-0.2289,-0.1852,-0.9557][0.1337,0.1141,0][-0.1353,-0.64525,-0.54605][-0.2287,-0.3255,-0.9175][0.1518,0.0777,0][-0.2908,-0.58745,-0.52255][-0.4504,-0.3858,-0.8052][0.2074,0.1347,0][-0.1348,-0.56935,-0.57955][-0.2289,-0.1852,-0.9557][0.1337,0.1141,0][-0.2908,-0.58745,-0.52255][-0.4504,-0.3858,-0.8052][0.2074,0.1347,0][-0.321,-0.52815,-0.53625][-0.5425,-0.0979998,-0.8343][0.2076,0.1678,0][0,-0.48645,-0.59995][2.17811e-007,0.2353,-0.9719][0.062,0.1257,0][-0.1345,-0.49085,-0.57885][-0.2196,0.2198,-0.9505][0.1199,0.1503,0][-0.1343,-0.40345,-0.52995][-0.2229,0.4006,-0.8887][0.1071,0.2001,0][0,-0.48645,-0.59995][2.17811e-007,0.2353,-0.9719][0.062,0.1257,0][-0.1343,-0.40345,-0.52995][-0.2229,0.4006,-0.8887][0.1071,0.2001,0][0,-0.38095,-0.55145][2.70917e-007,0.4508,-0.8926][0.0442,0.1771,0][-0.1345,-0.49085,-0.57885][-0.2196,0.2198,-0.9505][0.1199,0.1503,0][-0.1348,-0.56935,-0.57955][-0.2289,-0.1852,-0.9557][0.1337,0.1141,0][-0.321,-0.52815,-0.53625][-0.5425,-0.0979998,-0.8343][0.2076,0.1678,0][-0.2045,0.42005,-0.53895][0.4704,-0.6637,-0.5816][0.1906,0.7822,0][-0.245,0.48405,-0.59355][0.3078,-0.5399,-0.7834][0.2197,0.7995,0][2.66138e-007,0.55995,-0.64265][0,-0.5452,-0.8383][0.2076,0.9252,0][-0.2045,0.42005,-0.53895][0.4704,-0.6637,-0.5816][0.1906,0.7822,0][2.66138e-007,0.55995,-0.64265][0,-0.5452,-0.8383][0.2076,0.9252,0][2.35999e-007,0.48525,-0.59245][-1.54695e-007,-0.8073,-0.5901][0.1641,0.8939,0][-0.3432,0.14785,-0.39725][0.7748,-0.3443,-0.5302][0.179,0.5788,0][-0.352,0.0438499,-0.36645][0.8134,-0.1482,-0.5626][0.1823,0.5128,0][-0.4119,0.0296497,-0.41395][0.5123,-0.2077,-0.8333][0.2316,0.5167,0][-0.3432,0.14785,-0.39725][0.7748,-0.3443,-0.5302][0.179,0.5788,0][-0.4119,0.0296497,-0.41395][0.5123,-0.2077,-0.8333][0.2316,0.5167,0][-0.4284,0.15025,-0.44225][0.4689,-0.3647,-0.8045][0.2268,0.5802,0][-0.346,0.30845,-0.50355][0.3397,-0.5559,-0.7587][0.2107,0.6882,0][-0.27,0.28255,-0.45075][0.7049,-0.5643,-0.4298][0.1608,0.6889,0][-0.3139,0.21655,-0.42305][0.7083,-0.5289,-0.4676][0.1698,0.6319,0][-0.346,0.30845,-0.50355][0.3397,-0.5559,-0.7587][0.2107,0.6882,0][-0.3139,0.21655,-0.42305][0.7083,-0.5289,-0.4676][0.1698,0.6319,0][-0.3644,0.24145,-0.44115][0.4166,-0.4942,-0.763][0.2181,0.6334,0][-0.27,0.28255,-0.45075][0.7049,-0.5643,-0.4298][0.1608,0.6889,0][-0.346,0.30845,-0.50355][0.3397,-0.5559,-0.7587][0.2107,0.6882,0][-0.245,0.48405,-0.59355][0.3078,-0.5399,-0.7834][0.2197,0.7995,0][-0.27,0.28255,-0.45075][0.7049,-0.5643,-0.4298][0.1608,0.6889,0][-0.245,0.48405,-0.59355][0.3078,-0.5399,-0.7834][0.2197,0.7995,0][-0.2045,0.42005,-0.53895][0.4704,-0.6637,-0.5816][0.1906,0.7822,0][-0.3483,-0.10325,-0.39395][0.8077,-0.0161002,-0.5894][0.1835,0.4526,0][-0.3381,-0.20155,-0.34535][0.8205,0.0939998,-0.5639][0.1811,0.3746,0][-0.4106,-0.20155,-0.38805][0.6032,0.1045,-0.7907][0.2244,0.3689,0][-0.3483,-0.10325,-0.39395][0.8077,-0.0161002,-0.5894][0.1835,0.4526,0][-0.4106,-0.20155,-0.38805][0.6032,0.1045,-0.7907][0.2244,0.3689,0][-0.4386,-0.09725,-0.42715][0.5417,-0.0622002,-0.8383][0.2301,0.4546,0][-0.3269,-0.29345,-0.34505][0.3763,0.8884,-0.2629][0.17,0.3288,0][-0.2504,-0.36975,-0.41365][0.3409,0.9198,-0.1943][0.1454,0.2738,0][-0.2978,-0.36095,-0.48745][0.4059,0.8976,-0.1721][0.1782,0.25,0][-0.3269,-0.29345,-0.34505][0.3763,0.8884,-0.2629][0.17,0.3288,0][-0.2978,-0.36095,-0.48745][0.4059,0.8976,-0.1721][0.1782,0.25,0][-0.4069,-0.29455,-0.42255][0.4653,0.8298,-0.3081][0.2227,0.3096,0][-0.3381,-0.20155,-0.34535][0.8205,0.0939998,-0.5639][0.1811,0.3746,0][-0.3269,-0.29345,-0.34505][0.8367,0.1475,-0.5274][0.17,0.3288,0][-0.4069,-0.29455,-0.42255][0.6493,0.1833,-0.7381][0.2227,0.3096,0][-0.3381,-0.20155,-0.34535][0.8205,0.0939998,-0.5639][0.1811,0.3746,0][-0.4069,-0.29455,-0.42255][0.6493,0.1833,-0.7381][0.2227,0.3096,0][-0.4106,-0.20155,-0.38805][0.6032,0.1045,-0.7907][0.2244,0.3689,0][-0.1318,-0.41045,-0.45615][0.0592003,0.9948,-0.0835][0.0964,0.2348,0][-0.1343,-0.40345,-0.52995][0.0488003,0.9971,0.0591][0.1071,0.2001,0][-0.2978,-0.36095,-0.48745][0.4059,0.8976,-0.1721][0.1782,0.25,0][-0.1318,-0.41045,-0.45615][0.0592003,0.9948,-0.0835][0.0964,0.2348,0][-0.2978,-0.36095,-0.48745][0.4059,0.8976,-0.1721][0.1782,0.25,0][-0.2504,-0.36975,-0.41365][0.3409,0.9198,-0.1943][0.1454,0.2738,0][-0.352,0.0438499,-0.36645][0.8134,-0.1482,-0.5626][0.1823,0.5128,0][-0.3483,-0.10325,-0.39395][0.8077,-0.0161002,-0.5894][0.1835,0.4526,0][-0.4386,-0.09725,-0.42715][0.5417,-0.0622002,-0.8383][0.2301,0.4546,0][-0.352,0.0438499,-0.36645][0.8134,-0.1482,-0.5626][0.1823,0.5128,0][-0.4386,-0.09725,-0.42715][0.5417,-0.0622002,-0.8383][0.2301,0.4546,0][-0.4119,0.0296497,-0.41395][0.5123,-0.2077,-0.8333][0.2316,0.5167,0][-0.3432,0.14785,-0.39725][0.7748,-0.3443,-0.5302][0.179,0.5788,0][-0.4284,0.15025,-0.44225][0.4689,-0.3647,-0.8045][0.2268,0.5802,0][-0.3644,0.24145,-0.44115][0.4166,-0.4942,-0.763][0.2181,0.6334,0][-0.3432,0.14785,-0.39725][0.7748,-0.3443,-0.5302][0.179,0.5788,0][-0.3644,0.24145,-0.44115][0.4166,-0.4942,-0.763][0.2181,0.6334,0][-0.3139,0.21655,-0.42305][0.7083,-0.5289,-0.4676][0.1698,0.6319,0][-0.401,-0.51015,-0.44565][-0.4869,-0.8395,0.2412][0.1242,0.5124,0][-0.4033,-0.48445,-0.35735][-0.4639,-0.8095,0.3599][0.1245,0.4918,0][-0.5142,-0.41635,-0.35645][-0.6125,-0.7139,0.3395][0.1519,0.4866,0][-0.5787,-0.31905,0.17195][-0.2817,-0.9538,-0.1045][0.1602,0.3618,0][-0.4332,-0.35615,0.19835][-0.3115,-0.9294,-0.1977][0.128,0.3598,0][-0.4454,-0.38495,0.32925][-0.2829,-0.8577,-0.4293][0.1252,0.3298,0][-0.5538,-0.32195,-0.28205][-0.5524,-0.7722,0.3138][0.1671,0.4634,0][-0.4963,-0.32235,-0.15295][-0.3546,-0.9207,0.1627][0.1514,0.4364,0][-0.5937,-0.29405,-0.06865][-0.2861,-0.9579,-0.0254][0.1704,0.415,0][-0.4332,-0.35615,0.19835][-0.3115,-0.9294,-0.1977][0.128,0.3598,0][-0.5787,-0.31905,0.17195][-0.2817,-0.9538,-0.1045][0.1602,0.3618,0][-0.5937,-0.29405,-0.06865][-0.2861,-0.9579,-0.0254][0.1704,0.415,0][-0.4332,-0.35615,0.19835][-0.3115,-0.9294,-0.1977][0.128,0.3598,0][-0.5937,-0.29405,-0.06865][-0.2861,-0.9579,-0.0254][0.1704,0.415,0][-0.4963,-0.32235,-0.15295][-0.3546,-0.9207,0.1627][0.1514,0.4364,0][-0.4033,-0.48445,-0.35735][-0.4639,-0.8095,0.3599][0.1245,0.4918,0][-0.401,-0.51015,-0.44565][-0.4869,-0.8395,0.2412][0.1242,0.5124,0][-0.2908,-0.58745,-0.52255][-0.4397,-0.8736,0.2087][0.0983,0.5341,0][-0.4033,-0.48445,-0.35735][-0.4639,-0.8095,0.3599][0.1245,0.4918,0][-0.2908,-0.58745,-0.52255][-0.4397,-0.8736,0.2087][0.0983,0.5341,0][-0.1973,-0.61455,-0.46325][-0.3529,-0.8914,0.2845][0.0764,0.523,0][-0.4963,-0.32235,-0.15295][-0.3546,-0.9207,0.1627][0.1514,0.4364,0][-0.5538,-0.32195,-0.28205][-0.5524,-0.7722,0.3138][0.1671,0.4634,0][-0.5142,-0.41635,-0.35645][-0.6125,-0.7139,0.3395][0.1519,0.4866,0][-0.4963,-0.32235,-0.15295][-0.3546,-0.9207,0.1627][0.1514,0.4364,0][-0.5142,-0.41635,-0.35645][-0.6125,-0.7139,0.3395][0.1519,0.4866,0][-0.4033,-0.48445,-0.35735][-0.4639,-0.8095,0.3599][0.1245,0.4918,0][-2.19465e-007,-0.55975,0.33395][-1.83943e-007,-0.8623,-0.5064][0.0236,0.3372,0][-2.46403e-007,-0.61265,0.40655][0,-0.653,-0.7573][0.0176,0.3179,0][-0.2546,-0.54105,0.40175][-0.2899,-0.7366,-0.611][0.0733,0.3093,0][-2.19465e-007,-0.55975,0.33395][-1.83943e-007,-0.8623,-0.5064][0.0236,0.3372,0][-0.2546,-0.54105,0.40175][-0.2899,-0.7366,-0.611][0.0733,0.3093,0][-0.2057,-0.48795,0.36685][-0.3436,-0.8149,-0.4667][0.0692,0.3263,0][-0.1973,-0.61455,-0.46325][-0.3529,-0.8914,0.2845][0.0764,0.523,0][-0.1353,-0.64525,-0.54605][-0.3464,-0.9348,0.0788999][0.0637,0.5431,0][-1.22027e-007,-0.68635,-0.56455][-3.12848e-007,-0.997,0.0779][0.0342,0.5499,0][-0.1973,-0.61455,-0.46325][-0.3529,-0.8914,0.2845][0.0764,0.523,0][-1.22027e-007,-0.68635,-0.56455][-3.12848e-007,-0.997,0.0779][0.0342,0.5499,0][-1.32703e-007,-0.68475,-0.49065][-3.30333e-007,-0.9677,0.2523][0.0328,0.5333,0][-0.4332,-0.35615,0.19835][-0.3115,-0.9294,-0.1977][0.128,0.3598,0][-0.2057,-0.48795,0.36685][-0.3436,-0.8149,-0.4667][0.0692,0.3263,0][-0.2546,-0.54105,0.40175][-0.2899,-0.7366,-0.611][0.0733,0.3093,0][-0.4332,-0.35615,0.19835][-0.3115,-0.9294,-0.1977][0.128,0.3598,0][-0.2546,-0.54105,0.40175][-0.2899,-0.7366,-0.611][0.0733,0.3093,0][-0.4454,-0.38495,0.32925][-0.2829,-0.8577,-0.4293][0.1252,0.3298,0][-0.1353,-0.64525,-0.54605][-0.3464,-0.9348,0.0788999][0.0637,0.5431,0][-0.1973,-0.61455,-0.46325][-0.3529,-0.8914,0.2845][0.0764,0.523,0][-0.2908,-0.58745,-0.52255][-0.4397,-0.8736,0.2087][0.0983,0.5341,0][-0.2057,-0.48795,0.36685][-0.3436,-0.8149,-0.4667][0.0692,0.3263,0][-0.4332,-0.35615,0.19835][-0.3115,-0.9294,-0.1977][0.128,0.3598,0][-1.29124e-007,-0.47595,-0.0967499][-3.24445e-007,-0.9832,0.1823][0.0395,0.4341,0][-0.4332,-0.35615,0.19835][-0.3115,-0.9294,-0.1977][0.128,0.3598,0][-0.4963,-0.32235,-0.15295][-0.3546,-0.9207,0.1627][0.1514,0.4364,0][-1.29124e-007,-0.47595,-0.0967499][-3.24445e-007,-0.9832,0.1823][0.0395,0.4341,0][-2.19465e-007,-0.55975,0.33395][-1.83943e-007,-0.8623,-0.5064][0.0236,0.3372,0][-0.2057,-0.48795,0.36685][-0.3436,-0.8149,-0.4667][0.0692,0.3263,0][-1.29124e-007,-0.47595,-0.0967499][-3.24445e-007,-0.9832,0.1823][0.0395,0.4341,0][-0.1973,-0.61455,-0.46325][-0.3529,-0.8914,0.2845][0.0764,0.523,0][-1.32703e-007,-0.68475,-0.49065][-3.30333e-007,-0.9677,0.2523][0.0328,0.5333,0][-1.29124e-007,-0.47595,-0.0967499][-3.24445e-007,-0.9832,0.1823][0.0395,0.4341,0][-0.4963,-0.32235,-0.15295][-0.3546,-0.9207,0.1627][0.1514,0.4364,0][-0.4033,-0.48445,-0.35735][-0.4639,-0.8095,0.3599][0.1245,0.4918,0][-1.29124e-007,-0.47595,-0.0967499][-3.24445e-007,-0.9832,0.1823][0.0395,0.4341,0][-0.4033,-0.48445,-0.35735][-0.4639,-0.8095,0.3599][0.1245,0.4918,0][-0.1973,-0.61455,-0.46325][-0.3529,-0.8914,0.2845][0.0764,0.523,0][-1.29124e-007,-0.47595,-0.0967499][-3.24445e-007,-0.9832,0.1823][0.0395,0.4341,0][-0.3483,-0.10325,-0.39395][0.8077,-0.0161002,-0.5894][0.4727,0.0737,0][-0.352,0.0438499,-0.36645][0.8134,-0.1482,-0.5626][0.5045,0.0725,0][-0.224,0.28235,0.04265][0.8374,-0.4852,-0.2516][0.5618,0.2136,0][-0.2045,0.42005,-0.53895][0.4704,-0.6637,-0.5816][0.6395,0.0443,0][2.35999e-007,0.48525,-0.59245][-1.54695e-007,-0.8073,-0.5901][0.7001,0.0702,0][1.35843e-007,0.43005,-0.03955][-2.58218e-007,-0.9722,-0.2343][0.6464,0.2108,0][-0.2045,0.42005,-0.53895][0.4704,-0.6637,-0.5816][0.6395,0.0443,0][1.35843e-007,0.43005,-0.03955][-2.58218e-007,-0.9722,-0.2343][0.6464,0.2108,0][-0.224,0.28235,0.04265][0.8374,-0.4852,-0.2516][0.5618,0.2136,0][-0.3432,0.14785,-0.39725][0.7748,-0.3443,-0.5302][0.5382,0.0681,0][-0.3139,0.21655,-0.42305][0.7083,-0.5289,-0.4676][0.5624,0.0647,0][-0.224,0.28235,0.04265][0.8374,-0.4852,-0.2516][0.5618,0.2136,0][-0.3381,-0.20155,-0.34535][0.8205,0.0939998,-0.5639][0.4276,0.0706,0][-0.3483,-0.10325,-0.39395][0.8077,-0.0161002,-0.5894][0.4727,0.0737,0][-0.224,0.28235,0.04265][0.8374,-0.4852,-0.2516][0.5618,0.2136,0][-0.3381,-0.20155,-0.34535][0.8205,0.0939998,-0.5639][0.4276,0.0706,0][-0.224,0.28235,0.04265][0.8374,-0.4852,-0.2516][0.5618,0.2136,0][-0.1634,-0.25915,0.14885][0.9516,0.0511997,-0.303][0.3897,0.2294,0][-0.27,0.28255,-0.45075][0.7049,-0.5643,-0.4298][0.5879,0.0615,0][-0.2045,0.42005,-0.53895][0.4704,-0.6637,-0.5816][0.6395,0.0443,0][-0.224,0.28235,0.04265][0.8374,-0.4852,-0.2516][0.5618,0.2136,0][-0.352,0.0438499,-0.36645][0.8134,-0.1482,-0.5626][0.5045,0.0725,0][-0.3432,0.14785,-0.39725][0.7748,-0.3443,-0.5302][0.5382,0.0681,0][-0.224,0.28235,0.04265][0.8374,-0.4852,-0.2516][0.5618,0.2136,0][-0.3139,0.21655,-0.42305][0.7083,-0.5289,-0.4676][0.5624,0.0647,0][-0.27,0.28255,-0.45075][0.7049,-0.5643,-0.4298][0.5879,0.0615,0][-0.224,0.28235,0.04265][0.8374,-0.4852,-0.2516][0.5618,0.2136,0][-0.2504,-0.36975,-0.41365][0.3409,0.9198,-0.1943][0.3645,0.0495,0][-0.3269,-0.29345,-0.34505][0.3763,0.8884,-0.2629][0.3988,0.0681,0][-0.1634,-0.25915,0.14885][0.3008,0.927,-0.2239][0.3897,0.2294,0][-0.2504,-0.36975,-0.41365][0.3409,0.9198,-0.1943][0.3645,0.0495,0][-0.1634,-0.25915,0.14885][0.3008,0.927,-0.2239][0.3897,0.2294,0][0,-0.27055,0.14275][3.28914e-007,0.9724,-0.2335][0.3424,0.239,0][-0.3269,-0.29345,-0.34505][0.8367,0.1475,-0.5274][0.3988,0.0681,0][-0.3381,-0.20155,-0.34535][0.8205,0.0939998,-0.5639][0.4276,0.0706,0][-0.1634,-0.25915,0.14885][0.9516,0.0511997,-0.303][0.3897,0.2294,0][-0.1318,-0.41045,-0.45615][0.0592003,0.9948,-0.0835][0.3253,0.0443,0][-0.2504,-0.36975,-0.41365][0.3409,0.9198,-0.1943][0.3645,0.0495,0][0,-0.27055,0.14275][3.28914e-007,0.9724,-0.2335][0.3424,0.239,0][-0.1634,-0.25915,0.14885][0.0249001,-0.0933,-0.9953][0.3897,0.2294,0][0,0.37875,0.09275][0,-0.1438,-0.9896][0.5877,0.283,0][0,-0.27055,0.14275][1.2735e-007,-0.0768,-0.997][0.3849,0.2776,0][-0.224,0.28235,0.04265][0.3082,-0.1533,-0.9389][0.5618,0.2136,0][0,0.37875,0.09275][0,-0.1438,-0.9896][0.5877,0.283,0][-0.1634,-0.25915,0.14885][0.0249001,-0.0933,-0.9953][0.3897,0.2294,0][1.35843e-007,0.43005,-0.03955][-2.58218e-007,-0.9722,-0.2343][0.6464,0.2108,0][0,0.37875,0.09275][-2.26916e-007,-0.9323,-0.3618][0.626,0.2506,0][-0.224,0.28235,0.04265][0.8374,-0.4852,-0.2516][0.5618,0.2136,0][0,-0.38775,-0.48305][3.0557e-007,0.9997,-0.0243][0.039,0.2064,0][0,-0.38095,-0.55145][2.85563e-007,0.9951,0.099][0.0442,0.1771,0][-0.1343,-0.40345,-0.52995][0.0488003,0.9971,0.0591][0.1071,0.2001,0][0,-0.38775,-0.48305][3.0557e-007,0.9997,-0.0243][0.039,0.2064,0][-0.1343,-0.40345,-0.52995][0.0488003,0.9971,0.0591][0.1071,0.2001,0][-0.1318,-0.41045,-0.45615][0.0592003,0.9948,-0.0835][0.0964,0.2348,0][0,-0.38775,-0.48305][3.0557e-007,0.9997,-0.0243][0.2853,0.0491,0][-0.1318,-0.41045,-0.45615][0.0592003,0.9948,-0.0835][0.3253,0.0443,0][0,-0.27055,0.14275][3.28914e-007,0.9724,-0.2335][0.3424,0.239,0][0.5142,-0.41635,-0.35645][0.7444,0.1632,-0.6475][0.3025,0.2573,0][0.401,-0.51015,-0.44565][0.7645,-0.3669,-0.53][0.2555,0.1909,0][0.4171,-0.45135,-0.45965][0.6952,-0.0186002,-0.7186][0.2456,0.2233,0][0.2835,0.55585,0.27175][0.5015,0.6839,0.5299][0.618,0.7614,0][0.3357,0.62085,0.0416501][0.561,0.7929,0.2378][0.5119,0.7888,0][1.88163e-007,0.66645,0.08675][2.63548e-007,0.9777,0.21][0.5941,0.9223,0][0.2835,0.55585,0.27175][0.5015,0.6839,0.5299][0.618,0.7614,0][1.88163e-007,0.66645,0.08675][2.63548e-007,0.9777,0.21][0.5941,0.9223,0][1.39603e-007,0.60025,0.27595][1.79504e-007,0.8543,0.5198][0.7004,0.8634,0][0,0.21545,0.60225][0,0.2922,0.9564][0.8446,0.6656,0][0.2358,0.18735,0.56895][0.3907,0.2884,0.8742][0.7488,0.6154,0][0.1983,0.41865,0.47585][0.3573,0.5254,0.7722][0.7048,0.7226,0][0,0.21545,0.60225][0,0.2922,0.9564][0.8446,0.6656,0][0.1983,0.41865,0.47585][0.3573,0.5254,0.7722][0.7048,0.7226,0][0,0.42985,0.51615][0,0.5767,0.817][0.7851,0.7709,0][0,-0.0426502,0.64265][-1.34009e-007,0.0555,0.9985][0.8859,0.5135,0][-1.81595e-007,-0.32265,0.55735][-1.5853e-007,-0.0251,0.9997][0.8977,0.3652,0][0.3116,-0.25375,0.53215][0.4046,0.0142999,0.9144][0.7594,0.3947,0][0,-0.0426502,0.64265][-1.34009e-007,0.0555,0.9985][0.8859,0.5135,0][0.3116,-0.25375,0.53215][0.4046,0.0142999,0.9144][0.7594,0.3947,0][0.2619,-0.00325012,0.60485][0.3891,0.0868999,0.9171][0.7649,0.5128,0][0.4785,-0.20965,0.38065][0.7729,0.0704998,0.6307][0.6577,0.394,0][0.6019,-0.0913501,0.12605][0.8802,0.3998,0.2557][0.5165,0.4269,0][0.4881,0.0215497,0.44915][0.7807,0.1583,0.6045][0.6696,0.5042,0][0.3382,0.42755,0.29165][0.7752,0.3705,0.5117][0.6222,0.6973,0][0.4167,0.22365,0.33285][0.7989,0.2572,0.5437][0.6363,0.5862,0][0.3987,0.31525,0.0924501][0.9454,0.2355,0.2253][0.5176,0.6431,0][0.3382,0.42755,0.29165][0.7752,0.3705,0.5117][0.6222,0.6973,0][0.3987,0.31525,0.0924501][0.9454,0.2355,0.2253][0.5176,0.6431,0][0.3411,0.44125,0.16115][0.8974,0.3705,0.2396][0.5603,0.7003,0][0.3987,0.31525,0.0924501][0.9454,0.2355,0.2253][0.5176,0.6431,0][0.5624,-0.02285,0.11295][0.9101,0.3572,0.2099][0.5129,0.4692,0][0.5717,0.00845003,-0.0760499][0.9534,0.3005,-0.0259999][0.4184,0.4832,0][0.3987,0.31525,0.0924501][0.9454,0.2355,0.2253][0.5176,0.6431,0][0.5717,0.00845003,-0.0760499][0.9534,0.3005,-0.0259999][0.4184,0.4832,0][0.5359,0.17315,-0.0868499][0.9786,0.2053,-0.00939985][0.4178,0.5631,0][0.5359,0.17315,-0.0868499][0.9786,0.2053,-0.00939985][0.4178,0.5631,0][0.4537,0.46095,-0.0583499][0.9265,0.3762,-0.00619986][0.4497,0.7016,0][0.3987,0.31525,0.0924501][0.8974,0.3705,0.2396][0.5176,0.6431,0][0.5937,-0.29405,-0.0686498][0.9804,0.1902,-0.0516999][0.4306,0.3288,0][0.5538,-0.32195,-0.28205][0.8276,0.2277,-0.5131][0.3274,0.3048,0][0.5453,-0.26405,-0.26935][0.8819,0.214,-0.4201][0.3235,0.3371,0][0.5937,-0.29405,-0.0686498][0.9804,0.1902,-0.0516999][0.4306,0.3288,0][0.5453,-0.26405,-0.26935][0.8819,0.214,-0.4201][0.3235,0.3371,0][0.5821,-0.23685,-0.0679498][0.9804,0.1902,-0.0509999][0.4276,0.3537,0][0.4991,0.23475,-0.28015][0.949,0.1528,-0.2757][0.3228,0.6017,0][0.5345,0.0199499,-0.27475][0.9116,0.252,-0.3248][0.3163,0.4935,0][0.4119,0.0296497,-0.41395][0.8396,0.0542997,-0.5405][0.2316,0.5167,0][0.4462,0.42005,-0.32345][0.9077,0.2851,-0.3079][0.3237,0.6987,0][0.4991,0.23475,-0.28015][0.949,0.1528,-0.2757][0.3228,0.6017,0][0.3945,0.23075,-0.47195][0.859,0.1822,-0.4785][0.2181,0.6334,0][0.346,0.30845,-0.50355][0.8213,0.2328,-0.5209][0.2107,0.6882,0][0.245,0.48405,-0.59355][0.5737,0.6341,-0.5185][0.2197,0.7995,0][0.3316,0.58295,-0.39565][0.6117,0.6938,-0.38][0.3161,0.7985,0][0.346,0.30845,-0.50355][0.8213,0.2328,-0.5209][0.2107,0.6882,0][0.3316,0.58295,-0.39565][0.6117,0.6938,-0.38][0.3161,0.7985,0][0.4462,0.42005,-0.32345][0.9077,0.2851,-0.3079][0.3237,0.6987,0][0.2835,0.55585,0.27175][0.5015,0.6839,0.5299][0.618,0.7614,0][1.39603e-007,0.60025,0.27595][1.79504e-007,0.8543,0.5198][0.7004,0.8634,0][0.1983,0.41865,0.47585][0.3573,0.5254,0.7722][0.7048,0.7226,0][0.3357,0.62085,0.0416501][0.561,0.7929,0.2378][0.5119,0.7888,0][0.2835,0.55585,0.27175][0.5015,0.6839,0.5299][0.618,0.7614,0][0.3382,0.42755,0.29165][0.7752,0.3705,0.5117][0.6222,0.6973,0][0.3357,0.62085,0.0416501][0.561,0.7929,0.2378][0.5119,0.7888,0][0.3382,0.42755,0.29165][0.7752,0.3705,0.5117][0.6222,0.6973,0][0.3411,0.44125,0.16115][0.8974,0.3705,0.2396][0.5603,0.7003,0][0.4462,0.42005,-0.32345][0.9077,0.2851,-0.3079][0.3237,0.6987,0][0.3316,0.58295,-0.39565][0.6117,0.6938,-0.38][0.3161,0.7985,0][0.3464,0.63845,-0.18625][0.5677,0.8194,-0.0794999][0.4095,0.8047,0][0.4462,0.42005,-0.32345][0.9077,0.2851,-0.3079][0.3237,0.6987,0][0.3464,0.63845,-0.18625][0.5677,0.8194,-0.0794999][0.4095,0.8047,0][0.4537,0.46095,-0.0583499][0.9265,0.3762,-0.00619986][0.4497,0.7016,0][0.5676,-0.26815,0.14305][0.9315,0.2484,0.2656][0.5387,0.3439,0][0.5787,-0.31905,0.17195][0.8376,0.2867,0.465][0.5521,0.3186,0][0.5937,-0.29405,-0.0686498][0.9804,0.1902,-0.0516999][0.4306,0.3288,0][0.5676,-0.26815,0.14305][0.9315,0.2484,0.2656][0.5387,0.3439,0][0.5937,-0.29405,-0.0686498][0.9804,0.1902,-0.0516999][0.4306,0.3288,0][0.5821,-0.23685,-0.0679498][0.9804,0.1902,-0.0509999][0.4276,0.3537,0][0.3357,0.62085,0.0416501][0.561,0.7929,0.2378][0.5119,0.7888,0][0.3464,0.63845,-0.18625][0.5677,0.8194,-0.0794999][0.4095,0.8047,0][2.31982e-007,0.68635,-0.16365][3.11338e-007,0.9978,-0.0663][0.4509,0.9583,0][0.3357,0.62085,0.0416501][0.561,0.7929,0.2378][0.5119,0.7888,0][2.31982e-007,0.68635,-0.16365][3.11338e-007,0.9978,-0.0663][0.4509,0.9583,0][1.88163e-007,0.66645,0.08675][2.63548e-007,0.9777,0.21][0.5941,0.9223,0][0.4991,0.23475,-0.28015][0.949,0.1528,-0.2757][0.3228,0.6017,0][0.4537,0.46095,-0.0583499][0.9077,0.2851,-0.3079][0.4497,0.7016,0][0.5359,0.17315,-0.0868499][0.9265,0.3762,-0.00619986][0.4178,0.5631,0][0.3464,0.63845,-0.18625][0.5677,0.8194,-0.0794999][0.4095,0.8047,0][0.3357,0.62085,0.0416501][0.561,0.7929,0.2378][0.5119,0.7888,0][0.4537,0.46095,-0.0583499][0.8974,0.3705,0.2396][0.4497,0.7016,0][0.5345,0.0199499,-0.27475][0.9116,0.252,-0.3248][0.3163,0.4935,0][0.5359,0.17315,-0.0868499][0.949,0.1528,-0.2757][0.4178,0.5631,0][0.5717,0.00845003,-0.0760499][0.9786,0.2053,-0.00939985][0.4184,0.4832,0][0.5453,-0.26405,-0.26935][0.7902,-0.3836,-0.478][0.3235,0.3371,0][0.4589,-0.24335,-0.34505][0.631,-0.2838,-0.722][0.2629,0.3445,0][0.6072,-0.14315,-0.26845][0.8542,-0.4294,-0.2932][0.3312,0.4065,0][0.401,-0.51015,-0.44565][0.7645,-0.3669,-0.53][0.2555,0.1909,0][0.2908,-0.58745,-0.52255][0.4504,-0.3858,-0.8052][0.2074,0.1347,0][0.321,-0.52815,-0.53625][0.5425,-0.0980002,-0.8343][0.2076,0.1678,0][0.401,-0.51015,-0.44565][0.7645,-0.3669,-0.53][0.2555,0.1909,0][0.321,-0.52815,-0.53625][0.5425,-0.0980002,-0.8343][0.2076,0.1678,0][0.4171,-0.45135,-0.45965][0.6952,-0.0186002,-0.7186][0.2456,0.2233,0][0.3116,-0.25375,0.53215][0.4683,-0.6705,0.5754][0.7594,0.3947,0][0.2436,-0.36115,0.44265][0.3938,-0.6842,0.6139][0.7707,0.3257,0][0.4455,-0.31375,0.30885][0.7133,-0.546,0.4394][0.6467,0.3338,0][0.3116,-0.25375,0.53215][0.4683,-0.6705,0.5754][0.7594,0.3947,0][0.4455,-0.31375,0.30885][0.7133,-0.546,0.4394][0.6467,0.3338,0][0.4785,-0.20965,0.38065][0.7026,-0.5552,0.4451][0.6577,0.394,0][0.4785,-0.20965,0.38065][0.7026,-0.5552,0.4451][0.6577,0.394,0][0.4455,-0.31375,0.30885][0.7133,-0.546,0.4394][0.6467,0.3338,0][0.5676,-0.26815,0.14305][0.8456,-0.4809,0.2316][0.5387,0.3439,0][0.4785,-0.20965,0.38065][0.7026,-0.5552,0.4451][0.6577,0.394,0][0.5676,-0.26815,0.14305][0.8456,-0.4809,0.2316][0.5387,0.3439,0][0.6019,-0.0913501,0.12605][0.8592,-0.4899,0.1477][0.5165,0.4269,0][0.6019,-0.0913501,0.12605][0.8592,-0.4899,0.1477][0.5165,0.4269,0][0.5676,-0.26815,0.14305][0.8456,-0.4809,0.2316][0.5387,0.3439,0][0.5821,-0.23685,-0.0679498][0.8771,-0.476,-0.0644999][0.4276,0.3537,0][0.6019,-0.0913501,0.12605][0.8592,-0.4899,0.1477][0.5165,0.4269,0][0.5821,-0.23685,-0.0679498][0.8771,-0.476,-0.0644999][0.4276,0.3537,0][0.618,-0.12925,-0.0636498][0.8761,-0.4786,-0.0573999][0.4267,0.4114,0][0.5821,-0.23685,-0.0679498][0.8771,-0.476,-0.0644999][0.4276,0.3537,0][0.5453,-0.26405,-0.26935][0.7902,-0.3836,-0.478][0.3235,0.3371,0][0.6072,-0.14315,-0.26845][0.8542,-0.4294,-0.2932][0.3312,0.4065,0][0.5821,-0.23685,-0.0679498][0.8771,-0.476,-0.0644999][0.4276,0.3537,0][0.6072,-0.14315,-0.26845][0.8542,-0.4294,-0.2932][0.3312,0.4065,0][0.618,-0.12925,-0.0636498][0.8761,-0.4786,-0.0573999][0.4267,0.4114,0][0.3382,0.42755,0.29165][0.7752,0.3705,0.5117][0.6222,0.6973,0][0.1983,0.41865,0.47585][0.3573,0.5254,0.7722][0.7048,0.7226,0][0.2358,0.18735,0.56895][0.3907,0.2884,0.8742][0.7488,0.6154,0][0.3382,0.42755,0.29165][0.7752,0.3705,0.5117][0.6222,0.6973,0][0.2358,0.18735,0.56895][0.3907,0.2884,0.8742][0.7488,0.6154,0][0.4167,0.22365,0.33285][0.7989,0.2572,0.5437][0.6363,0.5862,0][0.4167,0.22365,0.33285][0.7989,0.2572,0.5437][0.6363,0.5862,0][0.2358,0.18735,0.56895][0.3907,0.2884,0.8742][0.7488,0.6154,0][0.2619,-0.00325012,0.60485][0.3891,0.0868999,0.9171][0.7649,0.5128,0][0.4167,0.22365,0.33285][0.7989,0.2572,0.5437][0.6363,0.5862,0][0.2619,-0.00325012,0.60485][0.3891,0.0868999,0.9171][0.7649,0.5128,0][0.4881,0.0215497,0.44915][0.7807,0.1583,0.6045][0.6696,0.5042,0][0.2835,0.55585,0.27175][0.5015,0.6839,0.5299][0.618,0.7614,0][0.1983,0.41865,0.47585][0.3573,0.5254,0.7722][0.7048,0.7226,0][0.3382,0.42755,0.29165][0.7752,0.3705,0.5117][0.6222,0.6973,0][0.1983,0.41865,0.47585][0.3573,0.5254,0.7722][0.7048,0.7226,0][1.39603e-007,0.60025,0.27595][1.79504e-007,0.8543,0.5198][0.7004,0.8634,0][0,0.42985,0.51615][0,0.5767,0.817][0.7851,0.7709,0][0,-0.0426502,0.64265][-1.34009e-007,0.0555,0.9985][0.8859,0.5135,0][0.2619,-0.00325012,0.60485][0.3891,0.0868999,0.9171][0.7649,0.5128,0][0.2358,0.18735,0.56895][0.3907,0.2884,0.8742][0.7488,0.6154,0][0,-0.0426502,0.64265][-1.34009e-007,0.0555,0.9985][0.8859,0.5135,0][0.2358,0.18735,0.56895][0.3907,0.2884,0.8742][0.7488,0.6154,0][0,0.21545,0.60225][0,0.2922,0.9564][0.8446,0.6656,0][0.4785,-0.20965,0.38065][0.7729,0.0704998,0.6307][0.6577,0.394,0][0.4881,0.0215497,0.44915][0.7807,0.1583,0.6045][0.6696,0.5042,0][0.2619,-0.00325012,0.60485][0.3891,0.0868999,0.9171][0.7649,0.5128,0][0.4785,-0.20965,0.38065][0.7729,0.0704998,0.6307][0.6577,0.394,0][0.2619,-0.00325012,0.60485][0.3891,0.0868999,0.9171][0.7649,0.5128,0][0.3116,-0.25375,0.53215][0.4046,0.0142999,0.9144][0.7594,0.3947,0][0.4881,0.0215497,0.44915][0.7807,0.1583,0.6045][0.6696,0.5042,0][0.6019,-0.0913501,0.12605][0.8802,0.3998,0.2557][0.5165,0.4269,0][0.5624,-0.02285,0.11295][0.9101,0.3572,0.2099][0.5129,0.4692,0][0.4881,0.0215497,0.44915][0.7807,0.1583,0.6045][0.6696,0.5042,0][0.5624,-0.02285,0.11295][0.9101,0.3572,0.2099][0.5129,0.4692,0][0.4167,0.22365,0.33285][0.9454,0.2355,0.2253][0.6363,0.5862,0][0.5538,-0.32195,-0.28205][0.8276,0.2277,-0.5131][0.3274,0.3048,0][0.5142,-0.41635,-0.35645][0.7444,0.1632,-0.6475][0.3025,0.2573,0][0.4589,-0.24335,-0.34505][0.7061,0.0772998,-0.7039][0.2629,0.3445,0][0.5538,-0.32195,-0.28205][0.8276,0.2277,-0.5131][0.3274,0.3048,0][0.4589,-0.24335,-0.34505][0.7061,0.0772998,-0.7039][0.2629,0.3445,0][0.5453,-0.26405,-0.26935][0.8819,0.214,-0.4201][0.3235,0.3371,0][0.4106,-0.20155,-0.38805][0.6788,-0.0259002,-0.7339][0.2244,0.3689,0][0.4589,-0.24335,-0.34505][0.7061,0.0772998,-0.7039][0.2629,0.3445,0][0.4069,-0.29455,-0.42255][0.678,0.2324,-0.6974][0.2227,0.3096,0][0.6072,-0.14315,-0.26845][0.8585,0.1947,-0.4744][0.3312,0.4065,0][0.4106,-0.20155,-0.38805][0.6788,-0.0259002,-0.7339][0.2244,0.3689,0][0.4291,-0.10035,-0.44165][0.5911,-0.1319,-0.7958][0.2301,0.4546,0][0.4991,0.23475,-0.28015][0.949,0.1528,-0.2757][0.3228,0.6017,0][0.4119,0.0296497,-0.41395][0.8396,0.0542997,-0.5405][0.2316,0.5167,0][0.4284,0.15025,-0.44225][0.9183,0.0630997,-0.3909][0.2268,0.5802,0][0.4119,0.0296497,-0.41395][0.8396,0.0542997,-0.5405][0.2316,0.5167,0][0.6072,-0.14315,-0.26845][0.8585,0.1947,-0.4744][0.3312,0.4065,0][0.4291,-0.10035,-0.44165][0.5911,-0.1319,-0.7958][0.2301,0.4546,0][0.4462,0.42005,-0.32345][0.9077,0.2851,-0.3079][0.3237,0.6987,0][0.3945,0.23075,-0.47195][0.859,0.1822,-0.4785][0.2181,0.6334,0][0.346,0.30845,-0.50355][0.8213,0.2328,-0.5209][0.2107,0.6882,0][0.3945,0.23075,-0.47195][0.859,0.1822,-0.4785][0.2181,0.6334,0][0.4991,0.23475,-0.28015][0.949,0.1528,-0.2757][0.3228,0.6017,0][0.4284,0.15025,-0.44225][0.9183,0.0630997,-0.3909][0.2268,0.5802,0][0.4171,-0.45135,-0.45965][0.6952,-0.0186002,-0.7186][0.2456,0.2233,0][0.321,-0.52815,-0.53625][0.5425,-0.0980002,-0.8343][0.2076,0.1678,0][0.2978,-0.36095,-0.48745][0.3682,0.308,-0.8773][0.1782,0.25,0][0.4171,-0.45135,-0.45965][0.6952,-0.0186002,-0.7186][0.2456,0.2233,0][0.2978,-0.36095,-0.48745][0.3682,0.308,-0.8773][0.1782,0.25,0][0.4069,-0.29455,-0.42255][0.678,0.2324,-0.6974][0.2227,0.3096,0][0.4589,-0.24335,-0.34505][0.7061,0.0772998,-0.7039][0.2629,0.3445,0][0.5142,-0.41635,-0.35645][0.7444,0.1632,-0.6475][0.3025,0.2573,0][0.4171,-0.45135,-0.45965][0.6952,-0.0186002,-0.7186][0.2456,0.2233,0][0.4589,-0.24335,-0.34505][0.7061,0.0772998,-0.7039][0.2629,0.3445,0][0.4171,-0.45135,-0.45965][0.6952,-0.0186002,-0.7186][0.2456,0.2233,0][0.4069,-0.29455,-0.42255][0.678,0.2324,-0.6974][0.2227,0.3096,0][0.6072,-0.14315,-0.26845][0.8585,0.1947,-0.4744][0.3312,0.4065,0][0.4589,-0.24335,-0.34505][0.7061,0.0772998,-0.7039][0.2629,0.3445,0][0.4106,-0.20155,-0.38805][0.6788,-0.0259002,-0.7339][0.2244,0.3689,0][0.618,-0.12925,-0.0636498][0.9078,0.4191,-0.0153999][0.4267,0.4114,0][0.5717,0.00845003,-0.0760499][0.9534,0.3005,-0.0259999][0.4184,0.4832,0][0.5624,-0.02285,0.11295][0.9101,0.3572,0.2099][0.5129,0.4692,0][0.618,-0.12925,-0.0636498][0.9078,0.4191,-0.0153999][0.4267,0.4114,0][0.5624,-0.02285,0.11295][0.9101,0.3572,0.2099][0.5129,0.4692,0][0.6019,-0.0913501,0.12605][0.8802,0.3998,0.2557][0.5165,0.4269,0][0.6072,-0.14315,-0.26845][0.8585,0.1947,-0.4744][0.3312,0.4065,0][0.5345,0.0199499,-0.27475][0.9116,0.252,-0.3248][0.3163,0.4935,0][0.5717,0.00845003,-0.0760499][0.9534,0.3005,-0.0259999][0.4184,0.4832,0][0.6072,-0.14315,-0.26845][0.8585,0.1947,-0.4744][0.3312,0.4065,0][0.5717,0.00845003,-0.0760499][0.9534,0.3005,-0.0259999][0.4184,0.4832,0][0.618,-0.12925,-0.0636498][0.9078,0.4191,-0.0153999][0.4267,0.4114,0][0.4119,0.0296497,-0.41395][0.8396,0.0542997,-0.5405][0.2316,0.5167,0][0.5345,0.0199499,-0.27475][0.9116,0.252,-0.3248][0.3163,0.4935,0][0.6072,-0.14315,-0.26845][0.8585,0.1947,-0.4744][0.3312,0.4065,0][0.2387,-0.48765,0.44195][0.3639,-0.2687,0.8918][0.7776,0.2682,0][0.4454,-0.38495,0.32925][0.616,0.1122,0.7797][0.6577,0.3004,0][0.4455,-0.31375,0.30885][0.6649,0.2236,0.7127][0.6467,0.3338,0][0.2387,-0.48765,0.44195][0.3639,-0.2687,0.8918][0.7776,0.2682,0][0.4455,-0.31375,0.30885][0.6649,0.2236,0.7127][0.6467,0.3338,0][0.2436,-0.36115,0.44265][0.3666,0.00299989,0.9304][0.7707,0.3257,0][-2.37615e-007,-0.56235,0.44895][-2.60392e-007,-0.4051,0.9143][0.8886,0.2288,0][-2.46403e-007,-0.61265,0.40655][-3.02686e-007,-0.6037,0.7972][0.8842,0.1965,0][0.2546,-0.54105,0.40175][0.4222,-0.4922,0.7612][0.7667,0.2394,0][-2.37615e-007,-0.56235,0.44895][-2.60392e-007,-0.4051,0.9143][0.8886,0.2288,0][0.2546,-0.54105,0.40175][0.4222,-0.4922,0.7612][0.7667,0.2394,0][0.2387,-0.48765,0.44195][0.3639,-0.2687,0.8918][0.7776,0.2682,0][-1.81595e-007,-0.32265,0.55735][-3.21727e-007,-0.7166,0.6975][0.8977,0.3652,0][-1.93614e-007,-0.40435,0.47355][-3.21727e-007,-0.7166,0.6975][0.8889,0.3069,0][0.2436,-0.36115,0.44265][0.3938,-0.6842,0.6139][0.7707,0.3257,0][-1.81595e-007,-0.32265,0.55735][-3.21727e-007,-0.7166,0.6975][0.8977,0.3652,0][0.2436,-0.36115,0.44265][0.3938,-0.6842,0.6139][0.7707,0.3257,0][0.3116,-0.25375,0.53215][0.4683,-0.6705,0.5754][0.7594,0.3947,0][-1.93614e-007,-0.40435,0.47355][-1.77677e-007,-0.0904,0.9959][0.8889,0.3069,0][-2.37615e-007,-0.56235,0.44895][-2.60392e-007,-0.4051,0.9143][0.8886,0.2288,0][0.2387,-0.48765,0.44195][0.3639,-0.2687,0.8918][0.7776,0.2682,0][-1.93614e-007,-0.40435,0.47355][-1.77677e-007,-0.0904,0.9959][0.8889,0.3069,0][0.2387,-0.48765,0.44195][0.3639,-0.2687,0.8918][0.7776,0.2682,0][0.2436,-0.36115,0.44265][0.3666,0.00299989,0.9304][0.7707,0.3257,0][0.2546,-0.54105,0.40175][0.4222,-0.4922,0.7612][0.7667,0.2394,0][0.4454,-0.38495,0.32925][0.616,0.1122,0.7797][0.6577,0.3004,0][0.2387,-0.48765,0.44195][0.3639,-0.2687,0.8918][0.7776,0.2682,0][0.245,0.48405,-0.59355][0.5737,0.6341,-0.5185][0.2197,0.7995,0][2.66138e-007,0.55995,-0.64265][3.37642e-007,0.8929,-0.4503][0.2076,0.9252,0][2.6271e-007,0.64855,-0.44275][3.35316e-007,0.9407,-0.3393][0.3076,0.9551,0][0.245,0.48405,-0.59355][0.5737,0.6341,-0.5185][0.2197,0.7995,0][2.6271e-007,0.64855,-0.44275][3.35316e-007,0.9407,-0.3393][0.3076,0.9551,0][0.3316,0.58295,-0.39565][0.6117,0.6938,-0.38][0.3161,0.7985,0][0.3464,0.63845,-0.18625][0.5677,0.8194,-0.0794999][0.4095,0.8047,0][0.3316,0.58295,-0.39565][0.6117,0.6938,-0.38][0.3161,0.7985,0][2.6271e-007,0.64855,-0.44275][3.35316e-007,0.9407,-0.3393][0.3076,0.9551,0][0.3464,0.63845,-0.18625][0.5677,0.8194,-0.0794999][0.4095,0.8047,0][2.6271e-007,0.64855,-0.44275][3.35316e-007,0.9407,-0.3393][0.3076,0.9551,0][2.31982e-007,0.68635,-0.16365][3.11338e-007,0.9978,-0.0663][0.4509,0.9583,0][0.4455,-0.31375,0.30885][0.6649,0.2236,0.7127][0.6467,0.3338,0][0.4454,-0.38495,0.32925][0.616,0.1122,0.7797][0.6577,0.3004,0][0.5787,-0.31905,0.17195][0.8376,0.2867,0.465][0.5521,0.3186,0][0.4455,-0.31375,0.30885][0.6649,0.2236,0.7127][0.6467,0.3338,0][0.5787,-0.31905,0.17195][0.8376,0.2867,0.465][0.5521,0.3186,0][0.5676,-0.26815,0.14305][0.9315,0.2484,0.2656][0.5387,0.3439,0][-1.22027e-007,-0.68635,-0.56455][0,-0.2974,-0.9547][0.0993,0.0341,0][0,-0.53985,-0.60045][0,-0.1219,-0.9925][0.0702,0.1026,0][0.1348,-0.56935,-0.57955][0.2289,-0.1852,-0.9557][0.1337,0.1141,0][-1.22027e-007,-0.68635,-0.56455][0,-0.2974,-0.9547][0.0993,0.0341,0][0.1348,-0.56935,-0.57955][0.2289,-0.1852,-0.9557][0.1337,0.1141,0][0.1353,-0.64525,-0.54605][0.2287,-0.3255,-0.9175][0.1518,0.0777,0][0.1343,-0.40345,-0.52995][0.2229,0.4006,-0.8887][0.1071,0.2001,0][0.2978,-0.36095,-0.48745][0.3682,0.308,-0.8773][0.1782,0.25,0][0.321,-0.52815,-0.53625][0.5425,-0.0980002,-0.8343][0.2076,0.1678,0][0.1343,-0.40345,-0.52995][0.2229,0.4006,-0.8887][0.1071,0.2001,0][0.321,-0.52815,-0.53625][0.5425,-0.0980002,-0.8343][0.2076,0.1678,0][0.1345,-0.49085,-0.57885][0.2196,0.2198,-0.9505][0.1199,0.1503,0][0,-0.53985,-0.60045][0,-0.1219,-0.9925][0.0702,0.1026,0][0,-0.48645,-0.59995][2.17811e-007,0.2353,-0.9719][0.062,0.1257,0][0.1345,-0.49085,-0.57885][0.2196,0.2198,-0.9505][0.1199,0.1503,0][0,-0.53985,-0.60045][0,-0.1219,-0.9925][0.0702,0.1026,0][0.1345,-0.49085,-0.57885][0.2196,0.2198,-0.9505][0.1199,0.1503,0][0.1348,-0.56935,-0.57955][0.2289,-0.1852,-0.9557][0.1337,0.1141,0][0.1348,-0.56935,-0.57955][0.2289,-0.1852,-0.9557][0.1337,0.1141,0][0.321,-0.52815,-0.53625][0.5425,-0.0980002,-0.8343][0.2076,0.1678,0][0.2908,-0.58745,-0.52255][0.4504,-0.3858,-0.8052][0.2074,0.1347,0][0.1348,-0.56935,-0.57955][0.2289,-0.1852,-0.9557][0.1337,0.1141,0][0.2908,-0.58745,-0.52255][0.4504,-0.3858,-0.8052][0.2074,0.1347,0][0.1353,-0.64525,-0.54605][0.2287,-0.3255,-0.9175][0.1518,0.0777,0][0,-0.48645,-0.59995][2.17811e-007,0.2353,-0.9719][0.062,0.1257,0][0,-0.38095,-0.55145][2.70917e-007,0.4508,-0.8926][0.0442,0.1771,0][0.1343,-0.40345,-0.52995][0.2229,0.4006,-0.8887][0.1071,0.2001,0][0,-0.48645,-0.59995][2.17811e-007,0.2353,-0.9719][0.062,0.1257,0][0.1343,-0.40345,-0.52995][0.2229,0.4006,-0.8887][0.1071,0.2001,0][0.1345,-0.49085,-0.57885][0.2196,0.2198,-0.9505][0.1199,0.1503,0][0.1345,-0.49085,-0.57885][0.2196,0.2198,-0.9505][0.1199,0.1503,0][0.321,-0.52815,-0.53625][0.5425,-0.0980002,-0.8343][0.2076,0.1678,0][0.1348,-0.56935,-0.57955][0.2289,-0.1852,-0.9557][0.1337,0.1141,0][0.2045,0.42005,-0.53895][-0.4704,-0.6637,-0.5816][0.1906,0.7822,0][2.35999e-007,0.48525,-0.59245][-1.54695e-007,-0.8073,-0.5901][0.1641,0.8939,0][2.66138e-007,0.55995,-0.64265][0,-0.5452,-0.8383][0.2076,0.9252,0][0.2045,0.42005,-0.53895][-0.4704,-0.6637,-0.5816][0.1906,0.7822,0][2.66138e-007,0.55995,-0.64265][0,-0.5452,-0.8383][0.2076,0.9252,0][0.245,0.48405,-0.59355][-0.3078,-0.5399,-0.7834][0.2197,0.7995,0][0.3432,0.14785,-0.39725][-0.7748,-0.3443,-0.5302][0.179,0.5788,0][0.4284,0.15025,-0.44225][-0.4689,-0.3647,-0.8045][0.2268,0.5802,0][0.4119,0.0296497,-0.41395][-0.5123,-0.2077,-0.8333][0.2316,0.5167,0][0.3432,0.14785,-0.39725][-0.7748,-0.3443,-0.5302][0.179,0.5788,0][0.4119,0.0296497,-0.41395][-0.5123,-0.2077,-0.8333][0.2316,0.5167,0][0.352,0.0438499,-0.36645][-0.8134,-0.1482,-0.5626][0.1823,0.5128,0][0.346,0.30845,-0.50355][-0.3397,-0.5559,-0.7587][0.2107,0.6882,0][0.3945,0.23075,-0.47195][-0.4166,-0.4942,-0.763][0.2181,0.6334,0][0.3139,0.21655,-0.42305][-0.7083,-0.5289,-0.4676][0.1698,0.6319,0][0.346,0.30845,-0.50355][-0.3397,-0.5559,-0.7587][0.2107,0.6882,0][0.3139,0.21655,-0.42305][-0.7083,-0.5289,-0.4676][0.1698,0.6319,0][0.27,0.28255,-0.45075][-0.7049,-0.5643,-0.4298][0.1608,0.6889,0][0.27,0.28255,-0.45075][-0.7049,-0.5643,-0.4298][0.1608,0.6889,0][0.2045,0.42005,-0.53895][-0.4704,-0.6637,-0.5816][0.1906,0.7822,0][0.245,0.48405,-0.59355][-0.3078,-0.5399,-0.7834][0.2197,0.7995,0][0.27,0.28255,-0.45075][-0.7049,-0.5643,-0.4298][0.1608,0.6889,0][0.245,0.48405,-0.59355][-0.3078,-0.5399,-0.7834][0.2197,0.7995,0][0.346,0.30845,-0.50355][-0.3397,-0.5559,-0.7587][0.2107,0.6882,0][0.3578,-0.10005,-0.37945][-0.8077,-0.0160998,-0.5894][0.1835,0.4526,0][0.4291,-0.10035,-0.44165][-0.5417,-0.0621998,-0.8383][0.2301,0.4546,0][0.4106,-0.20155,-0.38805][-0.6032,0.1045,-0.7907][0.2244,0.3689,0][0.3578,-0.10005,-0.37945][-0.8077,-0.0160998,-0.5894][0.1835,0.4526,0][0.4106,-0.20155,-0.38805][-0.6032,0.1045,-0.7907][0.2244,0.3689,0][0.3381,-0.20155,-0.34535][-0.8205,0.0940002,-0.5639][0.1811,0.3746,0][0.3269,-0.29345,-0.34505][-0.3763,0.8884,-0.2629][0.17,0.3288,0][0.4069,-0.29455,-0.42255][-0.4653,0.8298,-0.3081][0.2227,0.3096,0][0.2978,-0.36095,-0.48745][-0.4059,0.8976,-0.1721][0.1782,0.25,0][0.3269,-0.29345,-0.34505][-0.3763,0.8884,-0.2629][0.17,0.3288,0][0.2978,-0.36095,-0.48745][-0.4059,0.8976,-0.1721][0.1782,0.25,0][0.2504,-0.36975,-0.41365][-0.3409,0.9198,-0.1943][0.1454,0.2738,0][0.3381,-0.20155,-0.34535][-0.8205,0.0940002,-0.5639][0.1811,0.3746,0][0.4106,-0.20155,-0.38805][-0.6032,0.1045,-0.7907][0.2244,0.3689,0][0.4069,-0.29455,-0.42255][-0.6493,0.1833,-0.7381][0.2227,0.3096,0][0.3381,-0.20155,-0.34535][-0.8205,0.0940002,-0.5639][0.1811,0.3746,0][0.4069,-0.29455,-0.42255][-0.6493,0.1833,-0.7381][0.2227,0.3096,0][0.3269,-0.29345,-0.34505][-0.8367,0.1475,-0.5274][0.17,0.3288,0][0.1318,-0.41045,-0.45615][-0.0591997,0.9948,-0.0835][0.0964,0.2348,0][0.2504,-0.36975,-0.41365][-0.3409,0.9198,-0.1943][0.1454,0.2738,0][0.2978,-0.36095,-0.48745][-0.4059,0.8976,-0.1721][0.1782,0.25,0][0.1318,-0.41045,-0.45615][-0.0591997,0.9948,-0.0835][0.0964,0.2348,0][0.2978,-0.36095,-0.48745][-0.4059,0.8976,-0.1721][0.1782,0.25,0][0.1343,-0.40345,-0.52995][-0.0487997,0.9971,0.0591][0.1071,0.2001,0][0.352,0.0438499,-0.36645][-0.8134,-0.1482,-0.5626][0.1823,0.5128,0][0.4119,0.0296497,-0.41395][-0.5123,-0.2077,-0.8333][0.2316,0.5167,0][0.4291,-0.10035,-0.44165][-0.5417,-0.0621998,-0.8383][0.2301,0.4546,0][0.352,0.0438499,-0.36645][-0.8134,-0.1482,-0.5626][0.1823,0.5128,0][0.4291,-0.10035,-0.44165][-0.5417,-0.0621998,-0.8383][0.2301,0.4546,0][0.3578,-0.10005,-0.37945][-0.8077,-0.0160998,-0.5894][0.1835,0.4526,0][0.3432,0.14785,-0.39725][-0.7748,-0.3443,-0.5302][0.179,0.5788,0][0.3139,0.21655,-0.42305][-0.7083,-0.5289,-0.4676][0.1698,0.6319,0][0.3945,0.23075,-0.47195][-0.4166,-0.4942,-0.763][0.2181,0.6334,0][0.3432,0.14785,-0.39725][-0.7748,-0.3443,-0.5302][0.179,0.5788,0][0.3945,0.23075,-0.47195][-0.4166,-0.4942,-0.763][0.2181,0.6334,0][0.4284,0.15025,-0.44225][-0.4689,-0.3647,-0.8045][0.2268,0.5802,0][0.401,-0.51015,-0.44565][0.4869,-0.8395,0.2412][0.1242,0.5124,0][0.5142,-0.41635,-0.35645][0.6125,-0.7139,0.3395][0.1519,0.4866,0][0.4033,-0.48445,-0.35735][0.4639,-0.8095,0.3599][0.1245,0.4918,0][0.5787,-0.31905,0.17195][0.2817,-0.9538,-0.1045][0.1602,0.3618,0][0.4454,-0.38495,0.32925][0.2829,-0.8577,-0.4293][0.1252,0.3298,0][0.4332,-0.35615,0.19835][0.3115,-0.9294,-0.1977][0.128,0.3598,0][0.5538,-0.32195,-0.28205][0.5524,-0.7722,0.3138][0.1671,0.4634,0][0.5937,-0.29405,-0.0686498][0.2861,-0.9579,-0.0254][0.1704,0.415,0][0.4963,-0.32235,-0.15295][0.3546,-0.9207,0.1627][0.1514,0.4364,0][0.4332,-0.35615,0.19835][0.3115,-0.9294,-0.1977][0.128,0.3598,0][0.4963,-0.32235,-0.15295][0.3546,-0.9207,0.1627][0.1514,0.4364,0][0.5937,-0.29405,-0.0686498][0.2861,-0.9579,-0.0254][0.1704,0.415,0][0.4332,-0.35615,0.19835][0.3115,-0.9294,-0.1977][0.128,0.3598,0][0.5937,-0.29405,-0.0686498][0.2861,-0.9579,-0.0254][0.1704,0.415,0][0.5787,-0.31905,0.17195][0.2817,-0.9538,-0.1045][0.1602,0.3618,0][0.4033,-0.48445,-0.35735][0.4639,-0.8095,0.3599][0.1245,0.4918,0][0.1973,-0.61455,-0.46325][0.3529,-0.8914,0.2845][0.0764,0.523,0][0.2908,-0.58745,-0.52255][0.4397,-0.8736,0.2087][0.0983,0.5341,0][0.4033,-0.48445,-0.35735][0.4639,-0.8095,0.3599][0.1245,0.4918,0][0.2908,-0.58745,-0.52255][0.4397,-0.8736,0.2087][0.0983,0.5341,0][0.401,-0.51015,-0.44565][0.4869,-0.8395,0.2412][0.1242,0.5124,0][0.4963,-0.32235,-0.15295][0.3546,-0.9207,0.1627][0.1514,0.4364,0][0.4033,-0.48445,-0.35735][0.4639,-0.8095,0.3599][0.1245,0.4918,0][0.5142,-0.41635,-0.35645][0.6125,-0.7139,0.3395][0.1519,0.4866,0][0.4963,-0.32235,-0.15295][0.3546,-0.9207,0.1627][0.1514,0.4364,0][0.5142,-0.41635,-0.35645][0.6125,-0.7139,0.3395][0.1519,0.4866,0][0.5538,-0.32195,-0.28205][0.5524,-0.7722,0.3138][0.1671,0.4634,0][-2.19465e-007,-0.55975,0.33395][-1.83943e-007,-0.8623,-0.5064][0.0236,0.3372,0][0.2057,-0.48795,0.36685][0.3436,-0.8149,-0.4667][0.0692,0.3263,0][0.2546,-0.54105,0.40175][0.2899,-0.7366,-0.611][0.0733,0.3093,0][-2.19465e-007,-0.55975,0.33395][-1.83943e-007,-0.8623,-0.5064][0.0236,0.3372,0][0.2546,-0.54105,0.40175][0.2899,-0.7366,-0.611][0.0733,0.3093,0][-2.46403e-007,-0.61265,0.40655][0,-0.653,-0.7573][0.0176,0.3179,0][0.1973,-0.61455,-0.46325][0.3529,-0.8914,0.2845][0.0764,0.523,0][-1.32703e-007,-0.68475,-0.49065][-3.30333e-007,-0.9677,0.2523][0.0328,0.5333,0][-1.22027e-007,-0.68635,-0.56455][-3.12848e-007,-0.997,0.0779][0.0342,0.5499,0][0.1973,-0.61455,-0.46325][0.3529,-0.8914,0.2845][0.0764,0.523,0][-1.22027e-007,-0.68635,-0.56455][-3.12848e-007,-0.997,0.0779][0.0342,0.5499,0][0.1353,-0.64525,-0.54605][0.3464,-0.9348,0.0789001][0.0637,0.5431,0][0.4332,-0.35615,0.19835][0.3115,-0.9294,-0.1977][0.128,0.3598,0][0.4454,-0.38495,0.32925][0.2829,-0.8577,-0.4293][0.1252,0.3298,0][0.2546,-0.54105,0.40175][0.2899,-0.7366,-0.611][0.0733,0.3093,0][0.4332,-0.35615,0.19835][0.3115,-0.9294,-0.1977][0.128,0.3598,0][0.2546,-0.54105,0.40175][0.2899,-0.7366,-0.611][0.0733,0.3093,0][0.2057,-0.48795,0.36685][0.3436,-0.8149,-0.4667][0.0692,0.3263,0][0.1353,-0.64525,-0.54605][0.3464,-0.9348,0.0789001][0.0637,0.5431,0][0.2908,-0.58745,-0.52255][0.4397,-0.8736,0.2087][0.0983,0.5341,0][0.1973,-0.61455,-0.46325][0.3529,-0.8914,0.2845][0.0764,0.523,0][0.2057,-0.48795,0.36685][0.3436,-0.8149,-0.4667][0.0692,0.3263,0][-1.29124e-007,-0.47595,-0.0967499][-3.24445e-007,-0.9832,0.1823][0.0395,0.4341,0][0.4332,-0.35615,0.19835][0.3115,-0.9294,-0.1977][0.128,0.3598,0][0.4332,-0.35615,0.19835][0.3115,-0.9294,-0.1977][0.128,0.3598,0][-1.29124e-007,-0.47595,-0.0967499][-3.24445e-007,-0.9832,0.1823][0.0395,0.4341,0][0.4963,-0.32235,-0.15295][0.3546,-0.9207,0.1627][0.1514,0.4364,0][-2.19465e-007,-0.55975,0.33395][-1.83943e-007,-0.8623,-0.5064][0.0236,0.3372,0][-1.29124e-007,-0.47595,-0.0967499][-3.24445e-007,-0.9832,0.1823][0.0395,0.4341,0][0.2057,-0.48795,0.36685][0.3436,-0.8149,-0.4667][0.0692,0.3263,0][0.1973,-0.61455,-0.46325][0.3529,-0.8914,0.2845][0.0764,0.523,0][-1.29124e-007,-0.47595,-0.0967499][-3.24445e-007,-0.9832,0.1823][0.0395,0.4341,0][-1.32703e-007,-0.68475,-0.49065][-3.30333e-007,-0.9677,0.2523][0.0328,0.5333,0][0.4963,-0.32235,-0.15295][0.3546,-0.9207,0.1627][0.1514,0.4364,0][-1.29124e-007,-0.47595,-0.0967499][-3.24445e-007,-0.9832,0.1823][0.0395,0.4341,0][0.4033,-0.48445,-0.35735][0.4639,-0.8095,0.3599][0.1245,0.4918,0][0.4033,-0.48445,-0.35735][0.4639,-0.8095,0.3599][0.1245,0.4918,0][-1.29124e-007,-0.47595,-0.0967499][-3.24445e-007,-0.9832,0.1823][0.0395,0.4341,0][0.1973,-0.61455,-0.46325][0.3529,-0.8914,0.2845][0.0764,0.523,0][0.3578,-0.10005,-0.37945][-0.8077,-0.0160998,-0.5894][0.4727,0.0737,0][0.224,0.28235,0.0426501][-0.8374,-0.4852,-0.2516][0.5618,0.2136,0][0.352,0.0438499,-0.36645][-0.8134,-0.1482,-0.5626][0.5045,0.0725,0][0.2045,0.42005,-0.53895][-0.4704,-0.6637,-0.5816][0.6395,0.0443,0][0.224,0.28235,0.0426501][-0.8374,-0.4852,-0.2516][0.5618,0.2136,0][1.35843e-007,0.43005,-0.03955][-2.58218e-007,-0.9722,-0.2343][0.6464,0.2108,0][0.2045,0.42005,-0.53895][-0.4704,-0.6637,-0.5816][0.6395,0.0443,0][1.35843e-007,0.43005,-0.03955][-2.58218e-007,-0.9722,-0.2343][0.6464,0.2108,0][2.35999e-007,0.48525,-0.59245][-1.54695e-007,-0.8073,-0.5901][0.7001,0.0702,0][0.3432,0.14785,-0.39725][-0.7748,-0.3443,-0.5302][0.5382,0.0681,0][0.224,0.28235,0.0426501][-0.8374,-0.4852,-0.2516][0.5618,0.2136,0][0.3139,0.21655,-0.42305][-0.7083,-0.5289,-0.4676][0.5624,0.0647,0][0.3381,-0.20155,-0.34535][-0.8205,0.0940002,-0.5639][0.4276,0.0706,0][0.1634,-0.25915,0.14885][-0.9516,0.0512003,-0.303][0.3897,0.2294,0][0.224,0.28235,0.0426501][-0.8374,-0.4852,-0.2516][0.5618,0.2136,0][0.3381,-0.20155,-0.34535][-0.8205,0.0940002,-0.5639][0.4276,0.0706,0][0.224,0.28235,0.0426501][-0.8374,-0.4852,-0.2516][0.5618,0.2136,0][0.3578,-0.10005,-0.37945][-0.8077,-0.0160998,-0.5894][0.4727,0.0737,0][0.27,0.28255,-0.45075][-0.7049,-0.5643,-0.4298][0.5879,0.0615,0][0.224,0.28235,0.0426501][-0.8374,-0.4852,-0.2516][0.5618,0.2136,0][0.2045,0.42005,-0.53895][-0.4704,-0.6637,-0.5816][0.6395,0.0443,0][0.352,0.0438499,-0.36645][-0.8134,-0.1482,-0.5626][0.5045,0.0725,0][0.224,0.28235,0.0426501][-0.8374,-0.4852,-0.2516][0.5618,0.2136,0][0.3432,0.14785,-0.39725][-0.7748,-0.3443,-0.5302][0.5382,0.0681,0][0.3139,0.21655,-0.42305][-0.7083,-0.5289,-0.4676][0.5624,0.0647,0][0.224,0.28235,0.0426501][-0.8374,-0.4852,-0.2516][0.5618,0.2136,0][0.27,0.28255,-0.45075][-0.7049,-0.5643,-0.4298][0.5879,0.0615,0][0.2504,-0.36975,-0.41365][-0.3409,0.9198,-0.1943][0.3645,0.0495,0][0,-0.27055,0.14275][3.28914e-007,0.9724,-0.2335][0.3424,0.239,0][0.1634,-0.25915,0.14885][-0.3008,0.927,-0.2239][0.3897,0.2294,0][0.2504,-0.36975,-0.41365][-0.3409,0.9198,-0.1943][0.3645,0.0495,0][0.1634,-0.25915,0.14885][-0.3008,0.927,-0.2239][0.3897,0.2294,0][0.3269,-0.29345,-0.34505][-0.3763,0.8884,-0.2629][0.3988,0.0681,0][0.3269,-0.29345,-0.34505][-0.8367,0.1475,-0.5274][0.3988,0.0681,0][0.1634,-0.25915,0.14885][-0.9516,0.0512003,-0.303][0.3897,0.2294,0][0.3381,-0.20155,-0.34535][-0.8205,0.0940002,-0.5639][0.4276,0.0706,0][0.1318,-0.41045,-0.45615][-0.0591997,0.9948,-0.0835][0.3253,0.0443,0][0,-0.27055,0.14275][3.28914e-007,0.9724,-0.2335][0.3424,0.239,0][0.2504,-0.36975,-0.41365][-0.3409,0.9198,-0.1943][0.3645,0.0495,0][0.1634,-0.25915,0.14885][-0.0248999,-0.0933,-0.9953][0.3897,0.2294,0][0,-0.27055,0.14275][1.2735e-007,-0.0768,-0.997][0.3849,0.2776,0][0,0.37875,0.09275][0,-0.1438,-0.9896][0.5877,0.283,0][0.224,0.28235,0.0426501][-0.3082,-0.1533,-0.9389][0.5618,0.2136,0][0.1634,-0.25915,0.14885][-0.0248999,-0.0933,-0.9953][0.3897,0.2294,0][0,0.37875,0.09275][0,-0.1438,-0.9896][0.5877,0.283,0][1.35843e-007,0.43005,-0.03955][-2.58218e-007,-0.9722,-0.2343][0.6464,0.2108,0][0.224,0.28235,0.0426501][-0.8374,-0.4852,-0.2516][0.5618,0.2136,0][0,0.37875,0.09275][-2.26916e-007,-0.9323,-0.3618][0.626,0.2506,0][0,-0.38775,-0.48305][3.0557e-007,0.9997,-0.0243][0.039,0.2064,0][0.1318,-0.41045,-0.45615][-0.0591997,0.9948,-0.0835][0.0964,0.2348,0][0.1343,-0.40345,-0.52995][-0.0487997,0.9971,0.0591][0.1071,0.2001,0][0,-0.38775,-0.48305][3.0557e-007,0.9997,-0.0243][0.039,0.2064,0][0.1343,-0.40345,-0.52995][-0.0487997,0.9971,0.0591][0.1071,0.2001,0][0,-0.38095,-0.55145][2.85563e-007,0.9951,0.099][0.0442,0.1771,0][0,-0.38775,-0.48305][3.0557e-007,0.9997,-0.0243][0.2853,0.0491,0][0,-0.27055,0.14275][3.28914e-007,0.9724,-0.2335][0.3424,0.239,0][0.1318,-0.41045,-0.45615][-0.0591997,0.9948,-0.0835][0.3253,0.0443,0][-0.5345,0.0199499,-0.27475][-0.9652,0.1991,-0.1696][0.3163,0.4935,0][-0.5717,0.00845003,-0.07605][-0.9652,0.1991,-0.1696][0.4184,0.4832,0][-0.5359,0.17315,-0.08685][-0.9609,0.2472,-0.125][0.4178,0.5631,0][0.5345,0.0199499,-0.27475][0.9781,0.1577,-0.1359][0.3163,0.4935,0][0.4991,0.23475,-0.28015][0.9734,0.2036,-0.1053][0.3228,0.6017,0][0.5359,0.17315,-0.0868499][0.9781,0.1577,-0.1359][0.4178,0.5631,0][-0.4991,0.23475,-0.28015][-0.955,0.2819,-0.0920001][0.3228,0.6017,0][-0.5359,0.17315,-0.08685][-0.9609,0.2472,-0.125][0.4178,0.5631,0][-0.4537,0.46095,-0.05835][-0.9122,0.2715,0.3068][0.4497,0.7016,0][0.4991,0.23475,-0.28015][0.9734,0.2036,-0.1053][0.3228,0.6017,0][0.4462,0.42005,-0.32345][0.9635,0.2592,-0.0671998][0.3237,0.6987,0][0.4537,0.46095,-0.0583499][0.9115,0.2637,0.3155][0.4497,0.7016,0][-0.4537,0.46095,-0.05835][-0.9122,0.2715,0.3068][0.4497,0.7016,0][-0.3411,0.44125,0.16115][-0.8558,0.2361,0.4603][0.5603,0.7003,0][-0.3357,0.62085,0.04165][-0.8285,0.3272,0.4545][0.5119,0.7888,0][0.3357,0.62085,0.0416501][0.8285,0.3272,0.4545][0.5119,0.7888,0][0.3411,0.44125,0.16115][0.8558,0.2361,0.4603][0.5603,0.7003,0][0.4537,0.46095,-0.0583499][0.9115,0.2637,0.3155][0.4497,0.7016,0][-0.3987,0.31525,0.09245][-0.9073,0.286,0.3081][0.5176,0.6431,0][-0.3411,0.44125,0.16115][-0.8558,0.2361,0.4603][0.5603,0.7003,0][-0.4537,0.46095,-0.05835][-0.9122,0.2715,0.3068][0.4497,0.7016,0][0.4537,0.46095,-0.0583499][0.9115,0.2637,0.3155][0.4497,0.7016,0][0.3411,0.44125,0.16115][0.8558,0.2361,0.4603][0.5603,0.7003,0][0.3987,0.31525,0.0924501][0.9073,0.286,0.3081][0.5176,0.6431,0][0.5624,-0.02285,0.11295][0.8931,0.4386,0.1001][0.5129,0.4692,0][0.3987,0.31525,0.0924501][0.9073,0.286,0.3081][0.5176,0.6431,0][0.4167,0.22365,0.33285][0.8931,0.4386,0.1001][0.6363,0.5862,0][-0.4167,0.22365,0.33285][-0.8931,0.4386,0.1001][0.6363,0.5862,0][-0.3987,0.31525,0.09245][-0.9073,0.286,0.3081][0.5176,0.6431,0][-0.5624,-0.02285,0.11295][-0.8985,0.4214,0.123][0.5129,0.4692,0]