version 1.01
248
[-0.0952668,-0.999002,0.372177][-0.00944683,-0.999577,-0.0275233][0.1555,0.8386,0][-0.299815,-0.994618,0.228298][-0.00457268,-0.999949,-0.00900884][0.162,0.8643,0][0.0554465,-0.994731,0.165346][-0.0197429,-0.999705,-0.0141407][0.1277,0.8508,0][0.0554465,-0.994731,0.165346][-0.0197429,-0.999705,-0.0141407][0.1277,0.8508,0][0.156709,-1.00282,0.346204][-0.0328602,-0.999114,-0.0263034][0.1302,0.8277,0][-0.0952668,-0.999002,0.372177][-0.00944683,-0.999577,-0.0275233][0.1555,0.8386,0][-0.0912213,-0.871552,0.365922][-0.153818,0.776862,0.610594][0.1689,0.8396,0][0.157047,-0.878296,0.350797][0.213723,0.518243,0.828098][0.17481,0.818021,0][0.143447,-0.71383,0.323558][0.233042,0.305888,0.923106][0.18151,0.821821,0][0.143447,-0.71383,0.323558][0.233042,0.305888,0.923106][0.18151,0.821821,0][-0.0902095,-0.697758,0.32237][-0.316887,0.339306,0.885694][0.1776,0.8427,0][-0.0912213,-0.871552,0.365922][-0.153818,0.776862,0.610594][0.1689,0.8396,0][-0.308582,-0.859751,0.190289][-0.392753,0.765171,0.510155][0.1738,0.8687,0][-0.0912213,-0.871552,0.365922][-0.153818,0.776862,0.610594][0.1689,0.8396,0][-0.0902095,-0.697758,0.32237][-0.316887,0.339306,0.885694][0.1776,0.8427,0][-0.0902095,-0.697758,0.32237][-0.316887,0.339306,0.885694][0.1776,0.8427,0][-0.314763,-0.669773,0.113084][-0.604682,0.292157,0.740948][0.1829,0.8763,0][-0.308582,-0.859751,0.190289][-0.392753,0.765171,0.510155][0.1738,0.8687,0][-0.302962,-0.876835,-0.724821][-0.255052,0.174104,-0.951124][0.1699,0.9821,0][-0.517962,-0.881217,-0.526731][-0.673101,0.132209,-0.727637][0.1556,0.9505,0][-0.471657,-0.662467,-0.52982][-0.665866,0.142225,-0.732389][0.1628,0.9508,0][-0.471657,-0.662467,-0.52982][-0.665866,0.142225,-0.732389][0.1628,0.9508,0][-0.291499,-0.638192,-0.684912][-0.255217,0.171396,-0.951571][0.1738,0.9767,0][-0.302962,-0.876835,-0.724821][-0.255052,0.174104,-0.951124][0.1699,0.9821,0][0.386095,-0.879307,-0.0273117][0.941717,0.201217,-0.269592][0.2826,0.9511,0][0.330013,-0.716302,-0.0837698][0.919312,0.217338,-0.328071][0.2727,0.9481,0][0.377329,-0.703939,0.203354][0.970371,0.19459,-0.143232][0.3015,0.9314,0][0.377329,-0.703939,0.203354][0.970371,0.19459,-0.143232][0.3015,0.9314,0][0.406887,-0.874025,0.204621][0.981186,0.16983,-0.0918246][0.3047,0.9371,0][0.386095,-0.879307,-0.0273117][0.941717,0.201217,-0.269592][0.2826,0.9511,0][-0.471657,-0.662467,-0.52982][-0.168743,0.985556,-0.0143373][0.1628,0.9508,0][-0.448731,-0.659096,-0.193363][-0.173013,0.984918,0.00192021][0.1776,0.9151,0][-0.168769,-0.60942,-0.44818][0.0151521,0.991634,-0.128189][0.1976,0.9501,0][-0.168769,-0.60942,-0.44818][0.0151521,0.991634,-0.128189][0.1976,0.9501,0][-0.291499,-0.638192,-0.684912][-0.0227696,0.993783,-0.108977][0.1738,0.9767,0][-0.471657,-0.662467,-0.52982][-0.168743,0.985556,-0.0143373][0.1628,0.9508,0][0.258309,-0.670447,-0.409775][0.675281,0.168966,-0.717946][0.2388,0.9654,0][0.300455,-0.866271,-0.407479][0.692502,0.140747,-0.707553][0.2435,0.9731,0][0.0466799,-0.892119,-0.660998][0.658633,0.194884,-0.72679][0.2044,0.9898,0][0.0466799,-0.892119,-0.660998][0.658633,0.194884,-0.72679][0.2044,0.9898,0][0.0141989,-0.683034,-0.625523][0.638877,0.224115,-0.735941][0.2039,0.9835,0][0.258309,-0.670447,-0.409775][0.675281,0.168966,-0.717946][0.2388,0.9654,0][-0.541564,-0.989336,-0.497592][-0.0175929,-0.999822,0.00678736][0.1464,0.9478,0][-0.297567,-1.00091,-0.704471][-0.0122128,-0.999706,0.0209481][0.1093,0.9612,0][-0.172927,-0.994731,-0.336846][-0.00694054,-0.999952,0.006846][0.1195,0.9128,0][-0.172927,-0.994731,-0.336846][-0.00694054,-0.999952,0.006846][0.1195,0.9128,0][-0.498969,-0.994393,-0.146327][0.000130824,-0.999998,0.00199759][0.1588,0.9088,0][-0.541564,-0.989336,-0.497592][-0.0175929,-0.999822,0.00678736][0.1464,0.9478,0][-0.517962,-0.881217,-0.526731][-0.972527,0.227232,0.0505642][0.1556,0.9505,0][-0.502453,-0.858965,-0.166123][-0.964546,0.262701,0.0252743][0.1681,0.9123,0][-0.448731,-0.659096,-0.193363][-0.969082,0.243651,0.0389092][0.1776,0.9151,0][-0.448731,-0.659096,-0.193363][-0.969082,0.243651,0.0389092][0.1776,0.9151,0][-0.471657,-0.662467,-0.52982][-0.976104,0.207531,0.0644339][0.1628,0.9508,0][-0.517962,-0.881217,-0.526731][-0.972527,0.227232,0.0505642][0.1556,0.9505,0][0.0141989,-0.683034,-0.625523][0.166892,0.959683,-0.226174][0.2039,0.9835,0][-0.291499,-0.638192,-0.684912][-0.0227696,0.993783,-0.108977][0.1738,0.9767,0][-0.168769,-0.60942,-0.44818][0.0151521,0.991634,-0.128189][0.1976,0.9501,0][-0.168769,-0.60942,-0.44818][0.0151521,0.991634,-0.128189][0.1976,0.9501,0][0.258309,-0.670447,-0.409775][0.158168,0.959061,-0.234917][0.2388,0.9654,0][0.0141989,-0.683034,-0.625523][0.166892,0.959683,-0.226174][0.2039,0.9835,0][0.0141989,-0.683034,-0.625523][0.193881,0.177101,-0.964907][0.2039,0.9835,0][0.0466799,-0.892119,-0.660998][0.184348,0.19218,-0.963889][0.2044,0.9898,0][-0.302962,-0.876835,-0.724821][-0.255052,0.174104,-0.951124][0.1699,0.9821,0][-0.302962,-0.876835,-0.724821][-0.255052,0.174104,-0.951124][0.1699,0.9821,0][-0.291499,-0.638192,-0.684912][-0.255217,0.171396,-0.951571][0.1738,0.9767,0][0.0141989,-0.683034,-0.625523][0.193881,0.177101,-0.964907][0.2039,0.9835,0][0.0464555,-0.999113,-0.649595][-0.0017914,-0.999917,0.0127545][0.0806,0.9388,0][0.296858,-0.997765,-0.38301][-0.0105081,-0.999945,-3.46299e-005][0.0746,0.8944,0][-0.172927,-0.994731,-0.336846][-0.00694054,-0.999952,0.006846][0.1195,0.9128,0][-0.172927,-0.994731,-0.336846][-0.00694054,-0.999952,0.006846][0.1195,0.9128,0][-0.297567,-1.00091,-0.704471][-0.0122128,-0.999706,0.0209481][0.1093,0.9612,0][0.0464555,-0.999113,-0.649595][-0.0017914,-0.999917,0.0127545][0.0806,0.9388,0][0.376879,-1.00934,0.184033][-0.0439823,-0.998736,-0.0243413][0.1008,0.832,0][0.156709,-1.00282,0.346204][-0.0328602,-0.999114,-0.0263034][0.1302,0.8277,0][0.0554465,-0.994731,0.165346][-0.0197429,-0.999705,-0.0141407][0.1277,0.8508,0][0.0554465,-0.994731,0.165346][-0.0197429,-0.999705,-0.0141407][0.1277,0.8508,0][0.37879,-1.00451,-0.0022891][-0.0381459,-0.999155,-0.0153006][0.0894,0.8503,0][0.376879,-1.00934,0.184033][-0.0439823,-0.998736,-0.0243413][0.1008,0.832,0][0.377329,-0.703939,0.203354][0.433895,0.243874,0.867329][0.3015,0.9314,0][0.143447,-0.71383,0.323558][0.233042,0.305888,0.923106][0.319169,0.914841,0][0.157047,-0.878296,0.350797][0.213723,0.518243,0.828098][0.325269,0.919841,0][0.157047,-0.878296,0.350797][0.213723,0.518243,0.828098][0.325269,0.919841,0][0.406887,-0.874025,0.204621][0.501586,0.0935737,0.860032][0.3047,0.9371,0][0.377329,-0.703939,0.203354][0.433895,0.243874,0.867329][0.3015,0.9314,0][-0.425353,-0.861437,-0.0174128][-0.505929,0.837203,0.20767][0.1736,0.8945,0][-0.308582,-0.859751,0.190289][-0.508076,0.814862,0.279031][0.1738,0.8687,0][-0.314763,-0.669773,0.113084][-0.902153,0.269266,0.337069][0.1829,0.8763,0][-0.314763,-0.669773,0.113084][-0.902153,0.269266,0.337069][0.1829,0.8763,0][-0.371968,-0.67438,-0.0443359][-0.866713,0.428861,0.254728][0.1832,0.896,0][-0.425353,-0.861437,-0.0174128][-0.505929,0.837203,0.20767][0.1736,0.8945,0][-0.0605388,-0.994731,-0.094539][-0.00771349,-0.99997,0.00113411][0.1224,0.8827,0][0.0554465,-0.994731,0.165346][-0.0197429,-0.999705,-0.0141407][0.1277,0.8508,0][-0.299815,-0.994618,0.228298][-0.00457268,-0.999949,-0.00900884][0.162,0.8643,0][-0.299815,-0.994618,0.228298][-0.00457268,-0.999949,-0.00900884][0.162,0.8643,0][-0.451091,-0.99237,-0.00173456][-0.0021875,-0.999994,0.00265947][0.1618,0.8932,0][-0.0605388,-0.994731,-0.094539][-0.00771349,-0.99997,0.00113411][0.1224,0.8827,0][0.296184,-1.00024,-0.183465][-0.0221595,-0.999727,-0.00736791][0.0858,0.8734,0][0.37879,-1.00451,-0.0022891][-0.0381459,-0.999155,-0.0153006][0.0894,0.8503,0][0.0554465,-0.994731,0.165346][-0.0197429,-0.999705,-0.0141407][0.1277,0.8508,0][0.0554465,-0.994731,0.165346][-0.0197429,-0.999705,-0.0141407][0.1277,0.8508,0][-0.0605388,-0.994731,-0.094539][-0.00771349,-0.99997,0.00113411][0.1224,0.8827,0][0.296184,-1.00024,-0.183465][-0.0221595,-0.999727,-0.00736791][0.0858,0.8734,0][0.287417,-0.872114,-0.204923][0.956173,0.112619,-0.270277][0.2623,0.9599,0][0.263703,-0.699669,-0.235885][0.951387,0.234598,-0.199566][0.2554,0.9551,0][0.330013,-0.716302,-0.0837698][0.919312,0.217338,-0.328071][0.2727,0.9481,0][0.330013,-0.716302,-0.0837698][0.919312,0.217338,-0.328071][0.2727,0.9481,0][0.386095,-0.879307,-0.0273117][0.941717,0.201217,-0.269592][0.2826,0.9511,0][0.287417,-0.872114,-0.204923][0.956173,0.112619,-0.270277][0.2623,0.9599,0][-0.0709392,-0.48341,-0.213059][0.00335444,0.839192,-0.543825][0.2197,0.929,0][0.213066,-0.524513,-0.168898][0.661227,0.570434,-0.48722][0.2483,0.9403,0][0.245721,-0.687531,-0.398135][0.772142,0.54033,-0.334425][0.2394,0.9641,0][0.245721,-0.687531,-0.398135][0.772142,0.54033,-0.334425][0.2394,0.9641,0][-0.167533,-0.63763,-0.444379][-0.153723,0.815829,-0.557488][0.1997,0.9476,0][-0.0709392,-0.48341,-0.213059][0.00335444,0.839192,-0.543825][0.2197,0.929,0][-0.228937,-0.495126,-0.158809][-0.571903,0.736501,-0.361239][0.206,0.9147,0][-0.0709392,-0.48341,-0.213059][0.00335444,0.839192,-0.543825][0.2197,0.929,0][-0.167533,-0.63763,-0.444379][-0.153723,0.815829,-0.557488][0.1997,0.9476,0][-0.167533,-0.63763,-0.444379][-0.153723,0.815829,-0.557488][0.1997,0.9476,0][-0.433221,-0.679775,-0.192253][-0.808706,0.578717,0.10527][0.179,0.9136,0][-0.228937,-0.495126,-0.158809][-0.571903,0.736501,-0.361239][0.206,0.9147,0][-0.314763,-0.669773,0.113084][-0.902153,0.269266,0.337069][0.1829,0.8763,0][-0.282037,-0.505635,0.0844029][-0.970589,0.213094,0.112016][0.1969,0.8746,0][-0.295242,-0.507401,-0.0266542][-0.923316,0.373729,-0.0883995][0.1994,0.8931,0][-0.295242,-0.507401,-0.0266542][-0.923316,0.373729,-0.0883995][0.1994,0.8931,0][-0.371968,-0.67438,-0.0443359][-0.866713,0.428861,0.254728][0.1832,0.896,0][-0.314763,-0.669773,0.113084][-0.902153,0.269266,0.337069][0.1829,0.8763,0][-0.0845168,-0.523583,0.230513][-0.351023,0.418733,0.837523][0.1926,0.8448,0][-0.282037,-0.505635,0.0844029][-0.56108,0.24977,0.78918][0.1969,0.8746,0][-0.314763,-0.669773,0.113084][-0.604682,0.292157,0.740948][0.1829,0.8763,0][-0.314763,-0.669773,0.113084][-0.604682,0.292157,0.740948][0.1829,0.8763,0][-0.0902095,-0.697758,0.32237][-0.316887,0.339306,0.885694][0.1776,0.8427,0][-0.0845168,-0.523583,0.230513][-0.351023,0.418733,0.837523][0.1926,0.8448,0][-0.0902095,-0.697758,0.32237][-0.316887,0.339306,0.885694][0.1776,0.8427,0][0.143447,-0.71383,0.323558][0.233042,0.305888,0.923106][0.18151,0.821821,0][0.123233,-0.534928,0.240472][0.192883,0.422804,0.885456][0.19541,0.827321,0][0.123233,-0.534928,0.240472][0.192883,0.422804,0.885456][0.19541,0.827321,0][-0.0845168,-0.523583,0.230513][-0.351023,0.418733,0.837523][0.1926,0.8448,0][-0.0902095,-0.697758,0.32237][-0.316887,0.339306,0.885694][0.1776,0.8427,0][0.377329,-0.703939,0.203354][0.433895,0.243874,0.867329][0.3015,0.9314,0][0.336004,-0.52442,0.152544][0.346829,0.328493,0.878523][0.2924,0.9195,0][0.123233,-0.534928,0.240472][0.192883,0.422804,0.885456][0.307969,0.904941,0][0.123233,-0.534928,0.240472][0.192883,0.422804,0.885456][0.307969,0.904941,0][0.143447,-0.71383,0.323558][0.233042,0.305888,0.923106][0.319169,0.914841,0][0.377329,-0.703939,0.203354][0.433895,0.243874,0.867329][0.3015,0.9314,0][0.330013,-0.716302,-0.0837698][0.919312,0.217338,-0.328071][0.2727,0.9481,0][0.282347,-0.515307,-0.0605937][0.887304,0.254753,-0.384438][0.2646,0.9331,0][0.336004,-0.52442,0.152544][0.96008,0.204747,-0.190591][0.2924,0.9195,0][0.336004,-0.52442,0.152544][0.96008,0.204747,-0.190591][0.2924,0.9195,0][0.377329,-0.703939,0.203354][0.970371,0.19459,-0.143232][0.3015,0.9314,0][0.330013,-0.716302,-0.0837698][0.919312,0.217338,-0.328071][0.2727,0.9481,0][0.330013,-0.716302,-0.0837698][0.919312,0.217338,-0.328071][0.2727,0.9481,0][0.263703,-0.699669,-0.235885][0.951387,0.234598,-0.199566][0.2554,0.9551,0][0.213066,-0.524513,-0.168898][0.661227,0.570434,-0.48722][0.2483,0.9403,0][0.213066,-0.524513,-0.168898][0.661227,0.570434,-0.48722][0.2483,0.9403,0][0.282347,-0.515307,-0.0605937][0.887304,0.254753,-0.384438][0.2646,0.9331,0][0.330013,-0.716302,-0.0837698][0.919312,0.217338,-0.328071][0.2727,0.9481,0][-0.228937,-0.495126,-0.158809][-0.571903,0.736501,-0.361239][0.206,0.9147,0][-0.433221,-0.679775,-0.192253][-0.808706,0.578717,0.10527][0.179,0.9136,0][-0.371968,-0.67438,-0.0443359][-0.866713,0.428861,0.254728][0.1832,0.896,0][-0.371968,-0.67438,-0.0443359][-0.866713,0.428861,0.254728][0.1832,0.896,0][-0.295242,-0.507401,-0.0266542][-0.923316,0.373729,-0.0883995][0.1994,0.8931,0][-0.228937,-0.495126,-0.158809][-0.571903,0.736501,-0.361239][0.206,0.9147,0][-0.425353,-0.861437,-0.0174128][-0.505929,0.837203,0.20767][0.1736,0.8945,0][-0.371968,-0.67438,-0.0443359][-0.866713,0.428861,0.254728][0.1832,0.896,0][-0.433221,-0.679775,-0.192253][-0.808706,0.578717,0.10527][0.179,0.9136,0][-0.433221,-0.679775,-0.192253][-0.808706,0.578717,0.10527][0.179,0.9136,0][-0.480424,-0.863909,-0.168578][-0.434625,0.886984,0.156078][0.1699,0.9115,0][-0.425353,-0.861437,-0.0174128][-0.505929,0.837203,0.20767][0.1736,0.8945,0][-0.172927,-0.994731,-0.336846][-0.00694054,-0.999952,0.006846][0.1195,0.9128,0][-0.0605388,-0.994731,-0.094539][-0.00771349,-0.99997,0.00113411][0.1224,0.8827,0][-0.451091,-0.99237,-0.00173456][-0.0021875,-0.999994,0.00265947][0.1618,0.8932,0][-0.451091,-0.99237,-0.00173456][-0.0021875,-0.999994,0.00265947][0.1618,0.8932,0][-0.498969,-0.994393,-0.146327][0.000130824,-0.999998,0.00199759][0.1588,0.9088,0][-0.172927,-0.994731,-0.336846][-0.00694054,-0.999952,0.006846][0.1195,0.9128,0][-0.0605388,-0.994731,-0.094539][-0.00771349,-0.99997,0.00113411][0.1224,0.8827,0][-0.172927,-0.994731,-0.336846][-0.00694054,-0.999952,0.006846][0.1195,0.9128,0][0.296858,-0.997765,-0.38301][-0.0105081,-0.999945,-3.46299e-005][0.0746,0.8944,0][0.296858,-0.997765,-0.38301][-0.0105081,-0.999945,-3.46299e-005][0.0746,0.8944,0][0.296184,-1.00024,-0.183465][-0.0221595,-0.999727,-0.00736791][0.0858,0.8734,0][-0.0605388,-0.994731,-0.094539][-0.00771349,-0.99997,0.00113411][0.1224,0.8827,0][0.280225,-0.86717,-0.398531][0.985417,0.158152,-0.0627733][0.2439,0.9711,0][0.245721,-0.687531,-0.398135][0.772142,0.54033,-0.334425][0.2394,0.9641,0][0.263703,-0.699669,-0.235885][0.951387,0.234598,-0.199566][0.2554,0.9551,0][0.263703,-0.699669,-0.235885][0.951387,0.234598,-0.199566][0.2554,0.9551,0][0.287417,-0.872114,-0.204923][0.956173,0.112619,-0.270277][0.2623,0.9599,0][0.280225,-0.86717,-0.398531][0.985417,0.158152,-0.0627733][0.2439,0.9711,0][0.213066,-0.524513,-0.168898][0.661227,0.570434,-0.48722][0.2483,0.9403,0][0.263703,-0.699669,-0.235885][0.951387,0.234598,-0.199566][0.2554,0.9551,0][0.245721,-0.687531,-0.398135][0.772142,0.54033,-0.334425][0.2394,0.9641,0][-0.446146,-0.859189,-0.00981101][-0.944795,0.0408648,0.325103][0.1718,0.8946,0][-0.502453,-0.858965,-0.166123][-0.97641,0.0312975,0.213645][0.1681,0.9123,0][-0.498969,-0.994393,-0.146327][-0.971783,0.017168,0.23525][0.1588,0.9088,0][-0.498969,-0.994393,-0.146327][-0.971783,0.017168,0.23525][0.1588,0.9088,0][-0.451091,-0.99237,-0.00173456][-0.948143,0.0542014,0.31319][0.1618,0.8932,0][-0.446146,-0.859189,-0.00981101][-0.944795,0.0408648,0.325103][0.1718,0.8946,0][-0.451091,-0.99237,-0.00173456][-0.860001,0.0231331,0.509768][0.1618,0.8932,0][-0.299815,-0.994618,0.228298][-0.713276,-0.0271289,0.700358][0.162,0.8643,0][-0.326788,-0.860988,0.202009][-0.766692,-0.00477222,0.641997][0.1722,0.8682,0][-0.326788,-0.860988,0.202009][-0.766692,-0.00477222,0.641997][0.1722,0.8682,0][-0.446146,-0.859189,-0.00981101][-0.869305,0.0620184,0.49037][0.1718,0.8946,0][-0.451091,-0.99237,-0.00173456][-0.860001,0.0231331,0.509768][0.1618,0.8932,0][-0.299815,-0.994618,0.228298][-0.713276,-0.0271289,0.700358][0.162,0.8643,0][-0.0952668,-0.999002,0.372177][-0.265634,-0.119744,0.956609][0.1555,0.8386,0][-0.0986393,-0.875823,0.384768][-0.293711,-0.0844189,0.952159][0.1661,0.8388,0][-0.0986393,-0.875823,0.384768][-0.293711,-0.0844189,0.952159][0.1661,0.8388,0][-0.326788,-0.860988,0.202009][-0.766692,-0.00477222,0.641997][0.1722,0.8682,0][-0.299815,-0.994618,0.228298][-0.713276,-0.0271289,0.700358][0.162,0.8643,0][-0.0952668,-0.999002,0.372177][-0.265634,-0.119744,0.956609][0.1555,0.8386,0][0.156709,-1.00282,0.346204][0.354516,-0.202963,0.912756][0.16161,0.814921,0][0.163901,-0.886275,0.369326][0.350799,0.183974,0.918201][0.17171,0.816621,0][0.163901,-0.886275,0.369326][0.350799,0.183974,0.918201][0.17171,0.816621,0][-0.0986393,-0.875823,0.384768][-0.293711,-0.0844189,0.952159][0.1661,0.8388,0][-0.0952668,-0.999002,0.372177][-0.265634,-0.119744,0.956609][0.1555,0.8386,0][0.376879,-1.00934,0.184033][0.828103,-0.371122,0.420135][0.3109,0.9472,0][0.424082,-0.88886,0.21262][0.869883,0.199245,0.451227][0.3055,0.9381,0][0.163901,-0.886275,0.369326][0.350799,0.183974,0.918201][0.327769,0.921941,0][0.163901,-0.886275,0.369326][0.350799,0.183974,0.918201][0.327769,0.921941,0][0.156709,-1.00282,0.346204][0.354516,-0.202963,0.912756][0.332669,0.930941,0][0.376879,-1.00934,0.184033][0.828103,-0.371122,0.420135][0.3109,0.9472,0][0.376879,-1.00934,0.184033][0.828103,-0.371122,0.420135][0.3109,0.9472,0][0.37879,-1.00451,-0.0022891][0.973123,-0.230249,0.00400844][0.2911,0.96,0][0.405988,-0.890096,-0.0330131][0.774486,0.623341,-0.107782][0.2836,0.9532,0][0.405988,-0.890096,-0.0330131][0.774486,0.623341,-0.107782][0.2836,0.9532,0][0.424082,-0.88886,0.21262][0.869883,0.199245,0.451227][0.3055,0.9381,0][0.376879,-1.00934,0.184033][0.828103,-0.371122,0.420135][0.3109,0.9472,0][0.296184,-1.00024,-0.183465][0.858745,-0.232096,-0.456824][0.2706,0.9707,0][0.308996,-0.877508,-0.209121][0.854111,-0.190344,-0.484008][0.2635,0.9627,0][0.405988,-0.890096,-0.0330131][0.86113,-0.270524,-0.430432][0.2836,0.9532,0][0.405988,-0.890096,-0.0330131][0.86113,-0.270524,-0.430432][0.2836,0.9532,0][0.37879,-1.00451,-0.0022891][0.861583,-0.312279,-0.400196][0.2911,0.96,0][0.296184,-1.00024,-0.183465][0.858745,-0.232096,-0.456824][0.2706,0.9707,0][0.296858,-0.997765,-0.38301][0.997823,-0.0594663,-0.0285274][0.2496,0.9818,0][0.300455,-0.866271,-0.407479][0.998349,-0.035684,-0.0450112][0.2435,0.9731,0][0.308996,-0.877508,-0.209121][0.996763,-0.0789962,-0.0149471][0.2635,0.9627,0][0.308996,-0.877508,-0.209121][0.996763,-0.0789962,-0.0149471][0.2635,0.9627,0][0.296184,-1.00024,-0.183465][0.994638,-0.1034,0.00207805][0.2706,0.9707,0][0.296858,-0.997765,-0.38301][0.997823,-0.0594663,-0.0285274][0.2496,0.9818,0][0.0464555,-0.999113,-0.649595][0.711754,-0.0915968,-0.696431][0.205,0.9976,0][0.0466799,-0.892119,-0.660998][0.708569,-0.0762481,-0.70151][0.2044,0.9898,0][0.300455,-0.866271,-0.407479][0.719441,-0.133217,-0.681659][0.2435,0.9731,0][0.300455,-0.866271,-0.407479][0.719441,-0.133217,-0.681659][0.2435,0.9731,0][0.296858,-0.997765,-0.38301][0.721473,-0.145702,-0.67694][0.2496,0.9818,0][0.0464555,-0.999113,-0.649595][0.711754,-0.0915968,-0.696431][0.205,0.9976,0][-0.297567,-1.00091,-0.704471][-0.271164,-0.151489,-0.950537][0.165,0.9878,0][-0.302962,-0.876835,-0.724821][-0.279832,-0.167223,-0.945373][0.1699,0.9821,0][0.0466799,-0.892119,-0.660998][0.160199,-0.115173,-0.980343][0.2044,0.9898,0][0.0466799,-0.892119,-0.660998][0.160199,-0.115173,-0.980343][0.2044,0.9898,0][0.0464555,-0.999113,-0.649595][0.157184,-0.104982,-0.981973][0.205,0.9976,0][-0.297567,-1.00091,-0.704471][-0.271164,-0.151489,-0.950537][0.165,0.9878,0][-0.297567,-1.00091,-0.704471][-0.271164,-0.151489,-0.950537][0.165,0.9878,0][-0.541564,-0.989336,-0.497592][-0.647152,-0.0634836,-0.759713][0.1464,0.9478,0][-0.517962,-0.881217,-0.526731][-0.652293,-0.082178,-0.753499][0.1556,0.9505,0][-0.517962,-0.881217,-0.526731][-0.652293,-0.082178,-0.753499][0.1556,0.9505,0][-0.302962,-0.876835,-0.724821][-0.279832,-0.167223,-0.945373][0.1699,0.9821,0][-0.297567,-1.00091,-0.704471][-0.271164,-0.151489,-0.950537][0.165,0.9878,0][-0.541564,-0.989336,-0.497592][-0.983752,0.172988,0.0480387][0.1464,0.9478,0][-0.498969,-0.994393,-0.146327][-0.971783,0.017168,0.23525][0.1588,0.9088,0][-0.502453,-0.858965,-0.166123][-0.97641,0.0312975,0.213645][0.1681,0.9123,0][-0.502453,-0.858965,-0.166123][-0.97641,0.0312975,0.213645][0.1681,0.9123,0][-0.517962,-0.881217,-0.526731][-0.974983,0.220469,0.0283293][0.1556,0.9505,0][-0.541564,-0.989336,-0.497592][-0.983752,0.172988,0.0480387][0.1464,0.9478,0][0.163901,-0.886275,0.369326][0.0485278,0.926925,0.372095][0.17171,0.816621,0][0.157047,-0.878296,0.350797][0.213723,0.518243,0.828098][0.17481,0.818021,0][-0.0912213,-0.871552,0.365922][-0.153818,0.776862,0.610594][0.1689,0.8396,0][-0.0912213,-0.871552,0.365922][-0.153818,0.776862,0.610594][0.1689,0.8396,0][-0.0986393,-0.875823,0.384768][-0.0223252,0.977686,0.208884][0.1661,0.8388,0][0.163901,-0.886275,0.369326][0.0485278,0.926925,0.372095][0.17171,0.816621,0][-0.0986393,-0.875823,0.384768][-0.0223252,0.977686,0.208884][0.1661,0.8388,0][-0.0912213,-0.871552,0.365922][-0.153818,0.776862,0.610594][0.1689,0.8396,0][-0.308582,-0.859751,0.190289][-0.392753,0.765171,0.510155][0.1738,0.8687,0][-0.308582,-0.859751,0.190289][-0.392753,0.765171,0.510155][0.1738,0.8687,0][-0.326788,-0.860988,0.202009][-0.00864207,0.995757,0.0916159][0.1722,0.8682,0][-0.0986393,-0.875823,0.384768][-0.0223252,0.977686,0.208884][0.1661,0.8388,0][-0.425353,-0.861437,-0.0174128][-0.505929,0.837203,0.20767][0.1736,0.8945,0][-0.446146,-0.859189,-0.00981101][0.0962195,0.99423,-0.0474277][0.1718,0.8946,0][-0.326788,-0.860988,0.202009][-0.0448547,0.998829,0.0181032][0.1722,0.8682,0][-0.326788,-0.860988,0.202009][-0.0448547,0.998829,0.0181032][0.1722,0.8682,0][-0.308582,-0.859751,0.190289][-0.508076,0.814862,0.279031][0.1738,0.8687,0][-0.425353,-0.861437,-0.0174128][-0.505929,0.837203,0.20767][0.1736,0.8945,0][-0.480424,-0.863909,-0.168578][-0.434625,0.886984,0.156078][0.1699,0.9115,0][-0.502453,-0.858965,-0.166123][0.210505,0.974755,-0.0744285][0.1681,0.9123,0][-0.446146,-0.859189,-0.00981101][0.0962195,0.99423,-0.0474277][0.1718,0.8946,0][-0.446146,-0.859189,-0.00981101][0.0962195,0.99423,-0.0474277][0.1718,0.8946,0][-0.425353,-0.861437,-0.0174128][-0.505929,0.837203,0.20767][0.1736,0.8945,0][-0.480424,-0.863909,-0.168578][-0.434625,0.886984,0.156078][0.1699,0.9115,0][-0.502453,-0.858965,-0.166123][0.127444,0.0947378,0.987311][0.1681,0.9123,0][-0.480424,-0.863909,-0.168578][0.130946,0.0933374,0.986986][0.1699,0.9115,0][-0.433221,-0.679775,-0.192253][0.318058,0.277473,0.906558][0.179,0.9136,0][-0.433221,-0.679775,-0.192253][0.318058,0.277473,0.906558][0.179,0.9136,0][-0.448731,-0.659096,-0.193363][0.376121,0.328554,0.866363][0.1776,0.9151,0][-0.502453,-0.858965,-0.166123][0.127444,0.0947378,0.987311][0.1681,0.9123,0][-0.433221,-0.679775,-0.192253][0.318058,0.277473,0.906558][0.179,0.9136,0][-0.167533,-0.63763,-0.444379][0.315211,0.140277,0.938597][0.1997,0.9476,0][-0.168769,-0.60942,-0.44818][0.316012,0.158004,0.935506][0.1976,0.9501,0][-0.168769,-0.60942,-0.44818][0.316012,0.158004,0.935506][0.1976,0.9501,0][-0.448731,-0.659096,-0.193363][0.376121,0.328554,0.866363][0.1776,0.9151,0][-0.433221,-0.679775,-0.192253][0.318058,0.277473,0.906558][0.179,0.9136,0][-0.168769,-0.60942,-0.44818][0.316012,0.158004,0.935506][0.1976,0.9501,0][-0.167533,-0.63763,-0.444379][0.315211,0.140277,0.938597][0.1997,0.9476,0][0.245721,-0.687531,-0.398135][0.318894,0.347794,0.881672][0.2394,0.9641,0][0.245721,-0.687531,-0.398135][0.318894,0.347794,0.881672][0.2394,0.9641,0][0.258309,-0.670447,-0.409775][0.2728,0.396318,0.876648][0.2388,0.9654,0][-0.168769,-0.60942,-0.44818][0.316012,0.158004,0.935506][0.1976,0.9501,0][0.300455,-0.866271,-0.407479][0.287496,0.663843,0.690405][0.2435,0.9731,0][0.258309,-0.670447,-0.409775][0.2728,0.396318,0.876648][0.2388,0.9654,0][0.245721,-0.687531,-0.398135][0.318894,0.347794,0.881672][0.2394,0.9641,0][0.245721,-0.687531,-0.398135][0.318894,0.347794,0.881672][0.2394,0.9641,0][0.280225,-0.86717,-0.398531][0.246497,0.756229,0.6061][0.2439,0.9711,0][0.300455,-0.866271,-0.407479][0.287496,0.663843,0.690405][0.2435,0.9731,0][0.280225,-0.86717,-0.398531][0.246497,0.756229,0.6061][0.2439,0.9711,0][0.287417,-0.872114,-0.204923][0.236516,0.971098,-0.0320778][0.2623,0.9599,0][0.308996,-0.877508,-0.209121][0.234534,0.971302,-0.039584][0.2635,0.9627,0][0.308996,-0.877508,-0.209121][0.234534,0.971302,-0.039584][0.2635,0.9627,0][0.300455,-0.866271,-0.407479][0.287496,0.663843,0.690405][0.2435,0.9731,0][0.280225,-0.86717,-0.398531][0.246497,0.756229,0.6061][0.2439,0.9711,0][0.386095,-0.879307,-0.0273117][0.440964,0.890001,-0.115967][0.2826,0.9511,0][0.405988,-0.890096,-0.0330131][0.774486,0.623341,-0.107782][0.2836,0.9532,0][0.308996,-0.877508,-0.209121][0.234534,0.971302,-0.039584][0.2635,0.9627,0][0.308996,-0.877508,-0.209121][0.234534,0.971302,-0.039584][0.2635,0.9627,0][0.287417,-0.872114,-0.204923][0.236516,0.971098,-0.0320778][0.2623,0.9599,0][0.386095,-0.879307,-0.0273117][0.440964,0.890001,-0.115967][0.2826,0.9511,0][0.406887,-0.874025,0.204621][0.536247,0.794872,0.283932][0.3047,0.9371,0][0.424082,-0.88886,0.21262][0.869883,0.199245,0.451227][0.3055,0.9381,0][0.405988,-0.890096,-0.0330131][0.774486,0.623341,-0.107782][0.2836,0.9532,0][0.405988,-0.890096,-0.0330131][0.774486,0.623341,-0.107782][0.2836,0.9532,0][0.386095,-0.879307,-0.0273117][0.440964,0.890001,-0.115967][0.2826,0.9511,0][0.406887,-0.874025,0.204621][0.536247,0.794872,0.283932][0.3047,0.9371,0][0.406887,-0.874025,0.204621][0.536247,0.794872,0.283932][0.3047,0.9371,0][0.157047,-0.878296,0.350797][0.178775,0.925964,0.332611][0.325269,0.919841,0][0.163901,-0.886275,0.369326][0.350799,0.183974,0.918201][0.327769,0.921941,0][0.163901,-0.886275,0.369326][0.350799,0.183974,0.918201][0.327769,0.921941,0][0.424082,-0.88886,0.21262][0.869883,0.199245,0.451227][0.3055,0.9381,0][0.406887,-0.874025,0.204621][0.536247,0.794872,0.283932][0.3047,0.9371,0][0.213066,-0.524513,-0.168898][0.0454669,0.998758,-0.0203572][0.025955,0.99053,0][-0.0709392,-0.48341,-0.213059][0.0347939,0.991657,0.124117][0.015735,0.973943,0][0.0232448,-0.512563,-0.00653963][0.0393424,0.997199,0.0636178][0.036354,0.973447,0][-0.0709392,-0.48341,-0.213059][0.0347939,0.991657,0.124117][0.015735,0.973943,0][-0.228937,-0.495126,-0.158809][-0.00191537,0.993142,0.116896][0.017128,0.962252,0][0.0232448,-0.512563,-0.00653963][0.0393424,0.997199,0.0636178][0.036354,0.973447,0][-0.295242,-0.507401,-0.0266542][0.013991,0.999293,0.0348889][0.027534,0.953927,0][-0.282037,-0.505635,0.0844029][0.027241,0.999512,0.0153027][0.037797,0.951291,0][0.0232448,-0.512563,-0.00653963][0.0393424,0.997199,0.0636178][0.036354,0.973447,0][-0.282037,-0.505635,0.0844029][0.027241,0.999512,0.0153027][0.037797,0.951291,0][-0.0845168,-0.523583,0.230513][0.046321,0.996651,0.0673907][0.055266,0.95922,0][0.0232448,-0.512563,-0.00653963][0.0393424,0.997199,0.0636178][0.036354,0.973447,0][-0.0845168,-0.523583,0.230513][0.046321,0.996651,0.0673907][0.055266,0.95922,0][0.123233,-0.534928,0.240472][0.0156176,0.996352,0.0838922][0.060735,0.972052,0][0.0232448,-0.512563,-0.00653963][0.0393424,0.997199,0.0636178][0.036354,0.973447,0][0.123233,-0.534928,0.240472][0.0156176,0.996352,0.0838922][0.060735,0.972052,0][0.336004,-0.52442,0.152544][0.00405074,0.997784,0.0664053][0.057525,0.988261,0][0.0232448,-0.512563,-0.00653963][0.0393424,0.997199,0.0636178][0.036354,0.973447,0][0.336004,-0.52442,0.152544][0.00405074,0.997784,0.0664053][0.057525,0.988261,0][0.282347,-0.515307,-0.0605937][0.00790444,0.999886,-0.0128675][0.037206,0.991529,0][0.0232448,-0.512563,-0.00653963][0.0393424,0.997199,0.0636178][0.036354,0.973447,0][0.0232448,-0.512563,-0.00653963][0.0393424,0.997199,0.0636178][0.036354,0.973447,0][0.282347,-0.515307,-0.0605937][0.00790444,0.999886,-0.0128675][0.037206,0.991529,0][0.213066,-0.524513,-0.168898][0.0454669,0.998758,-0.0203572][0.025955,0.99053,0][-0.228937,-0.495126,-0.158809][-0.00191537,0.993142,0.116896][0.017128,0.962252,0][-0.295242,-0.507401,-0.0266542][0.013991,0.999293,0.0348889][0.027534,0.953927,0][0.0232448,-0.512563,-0.00653963][0.0393424,0.997199,0.0636178][0.036354,0.973447,0][0.20589,1.2968,-0.193571][0.0685535,0.997587,0.0110132][0.596059,0.482394,0][-0.146859,1.04861,-0.195689][-0.575386,0.817841,-0.00820804][0.619797,0.482577,0][-0.0846658,1.04861,0.0178475][-0.426388,0.821554,0.378474][0.615612,0.464159,0][-0.0846658,1.04861,0.0178475][-0.426388,0.821554,0.378474][0.615612,0.464159,0][0.097484,1.04861,0.0866836][-0.0739867,0.760609,0.644981][0.603354,0.458221,0][0.20589,1.2968,-0.193571][0.0685535,0.997587,0.0110132][0.596059,0.482394,0][0.0832363,0.316537,0.137131][-0.0821655,0.270472,0.959215][0.6702,0.3726,0][-0.117208,0.278027,0.079463][-0.667674,0.125681,0.733768][0.6565,0.3732,0][-0.108542,0.158647,0.107383][-0.619313,0.333834,0.710637][0.6547,0.3618,0][-0.108542,0.158647,0.107383][-0.619313,0.333834,0.710637][0.6547,0.3618,0][0.0974839,0.180887,0.177855][-0.080657,0.376495,0.922901][0.6689,0.3632,0][0.0832363,0.316537,0.137131][-0.0821655,0.270472,0.959215][0.6702,0.3726,0][-0.18585,0.147961,-0.0446344][-0.977991,0.158915,0.135205][0.6365,0.3638,0][-0.108542,0.158647,0.107383][-0.619313,0.333834,0.710637][0.6547,0.3618,0][-0.117208,0.278027,0.079463][-0.667674,0.125681,0.733768][0.6565,0.3732,0][-0.117208,0.278027,0.079463][-0.667674,0.125681,0.733768][0.6565,0.3732,0][-0.207993,0.277739,-0.103843][-0.988881,-0.148655,-0.00393898][0.6359,0.3775,0][-0.18585,0.147961,-0.0446344][-0.977991,0.158915,0.135205][0.6365,0.3638,0][0.101432,0.180309,-0.39411][-0.00814148,-0.400022,-0.916469][0.588211,0.37998,0][-0.136943,0.192055,-0.296969][-0.753653,-0.205601,-0.624287][0.613512,0.37478,0][-0.138579,0.331267,-0.379957][-0.60458,-0.412118,-0.681646][0.612812,0.39068,0][-0.138579,0.331267,-0.379957][-0.60458,-0.412118,-0.681646][0.612812,0.39068,0][0.0959445,0.315478,-0.472092][-0.0734382,-0.500608,-0.862553][0.590912,0.39488,0][0.101432,0.180309,-0.39411][-0.00814148,-0.400022,-0.916469][0.588211,0.37998,0][0.306207,0.318366,0.0951557][0.626046,0.222885,0.747254][0.513611,0.39798,0][0.30871,0.168178,0.142523][0.614803,0.343246,0.710071][0.512212,0.38398,0][0.401037,0.143532,-0.070821][0.99322,0.0279541,0.112839][0.536611,0.38098,0][0.401037,0.143532,-0.070821][0.99322,0.0279541,0.112839][0.536611,0.38098,0][0.422507,0.271866,-0.123579][0.988429,-0.117768,0.0955951][0.539311,0.39388,0][0.306207,0.318366,0.0951557][0.626046,0.222885,0.747254][0.513611,0.39798,0][-0.330358,-0.394351,0.107286][-0.97152,0.15511,0.179135][0.6414,0.308,0][-0.193071,-0.396951,0.349705][-0.545914,0.228245,0.806152][0.6689,0.3084,0][-0.200195,-0.146349,0.26585][-0.610428,0.36856,0.7011][0.6579,0.3303,0][-0.200195,-0.146349,0.26585][-0.610428,0.36856,0.7011][0.6579,0.3303,0][-0.293004,-0.152126,0.0727239][-0.953231,0.27581,0.123611][0.6385,0.3308,0][-0.330358,-0.394351,0.107286][-0.97152,0.15511,0.179135][0.6414,0.308,0][0.144756,0.698649,-0.537077][-0.0230472,-0.0200297,-0.999534][0.593211,0.43158,0][-0.120095,0.735811,-0.43156][-0.746725,0.0318151,-0.664372][0.621112,0.42978,0][-0.073498,1.04861,-0.421355][-0.664812,0.167924,-0.727892][0.622512,0.44698,0][-0.073498,1.04861,-0.421355][-0.664812,0.167924,-0.727892][0.622512,0.44698,0][0.216672,1.04861,-0.48143][0.0864257,0.139102,-0.986499][0.592412,0.45008,0][0.144756,0.698649,-0.537077][-0.0230472,-0.0200297,-0.999534][0.593211,0.43158,0][0.338459,0.682668,0.0651182][0.63927,0.0375247,0.768066][0.516212,0.43498,0][0.467467,0.630295,-0.157853][0.983071,-0.0630082,0.172052][0.540511,0.43088,0][0.479212,1.04861,-0.191164][0.99617,-0.00895113,0.0869793][0.545511,0.45708,0][0.479212,1.04861,-0.191164][0.99617,-0.00895113,0.0869793][0.545511,0.45708,0][0.38005,1.04861,0.0300743][0.656823,-0.00244067,0.754041][0.520112,0.45618,0][0.338459,0.682668,0.0651182][0.63927,0.0375247,0.768066][0.516212,0.43498,0][-0.11249,0.721274,0.0759971][-0.684263,0.100437,0.722286][0.6673,0.4145,0][0.113563,0.711454,0.149166][0.0276035,0.095375,0.995059][0.6859,0.4097,0][0.097484,1.04861,0.0866836][-0.046807,0.155475,0.98673][0.6851,0.4301,0][0.097484,1.04861,0.0866836][-0.046807,0.155475,0.98673][0.6851,0.4301,0][-0.0846658,1.04861,0.0178475][-0.727884,0.191336,0.658464][0.6712,0.4326,0][-0.11249,0.721274,0.0759971][-0.684263,0.100437,0.722286][0.6673,0.4145,0][-0.187487,0.725895,-0.142642][-0.99513,0.0840646,0.051477][0.6454,0.4209,0][-0.11249,0.721274,0.0759971][-0.684263,0.100437,0.722286][0.6673,0.4145,0][-0.0846658,1.04861,0.0178475][-0.727884,0.191336,0.658464][0.6712,0.4326,0][-0.0846658,1.04861,0.0178475][-0.727884,0.191336,0.658464][0.6712,0.4326,0][-0.146859,1.04861,-0.195689][-0.989085,0.145508,-0.0232114][0.6468,0.4393,0][-0.187487,0.725895,-0.142642][-0.99513,0.0840646,0.051477][0.6454,0.4209,0][0.374466,0.258484,-0.345684][0.604379,-0.45157,-0.656362][0.562711,0.39328,0][0.364163,0.134964,-0.267028][0.767198,-0.273546,-0.580155][0.558811,0.37988,0][0.101432,0.180309,-0.39411][-0.00814148,-0.400022,-0.916469][0.588211,0.37998,0][0.101432,0.180309,-0.39411][-0.00814148,-0.400022,-0.916469][0.588211,0.37998,0][0.0959445,0.315478,-0.472092][-0.0734382,-0.500608,-0.862553][0.590912,0.39488,0][0.374466,0.258484,-0.345684][0.604379,-0.45157,-0.656362][0.562711,0.39328,0][0.306207,0.318366,0.0951557][0.626046,0.222885,0.747254][0.513611,0.39798,0][0.0832363,0.316537,0.137131][-0.0821655,0.270472,0.959215][0.499369,0.397423,0][0.0974839,0.180887,0.177855][-0.080657,0.376495,0.922901][0.500169,0.387623,0][0.0974839,0.180887,0.177855][-0.080657,0.376495,0.922901][0.500169,0.387623,0][0.30871,0.168178,0.142523][0.614803,0.343246,0.710071][0.512212,0.38398,0][0.306207,0.318366,0.0951557][0.626046,0.222885,0.747254][0.513611,0.39798,0][0.338459,0.682668,0.0651182][0.63927,0.0375247,0.768066][0.516212,0.43498,0][0.38005,1.04861,0.0300743][0.656823,-0.00244067,0.754041][0.520112,0.45618,0][0.097484,1.04861,0.0866836][-0.046807,0.155475,0.98673][0.498469,0.455223,0][0.097484,1.04861,0.0866836][-0.046807,0.155475,0.98673][0.498469,0.455223,0][0.113563,0.711454,0.149166][0.0276035,0.095375,0.995059][0.497569,0.435423,0][0.338459,0.682668,0.0651182][0.63927,0.0375247,0.768066][0.516212,0.43498,0][0.20589,1.2968,-0.193571][0.0685535,0.997587,0.0110132][0.596059,0.482394,0][0.097484,1.04861,0.0866836][-0.0739867,0.760609,0.644981][0.603354,0.458221,0][0.38005,1.04861,0.0300743][0.409911,0.752339,0.515713][0.584339,0.463104,0][0.38005,1.04861,0.0300743][0.409911,0.752339,0.515713][0.584339,0.463104,0][0.479212,1.04861,-0.191164][0.671683,0.740022,0.0347845][0.577666,0.482186,0][0.20589,1.2968,-0.193571][0.0685535,0.997587,0.0110132][0.596059,0.482394,0][0.144756,0.698649,-0.537077][-0.0230472,-0.0200297,-0.999534][0.593211,0.43158,0][0.216672,1.04861,-0.48143][0.0864257,0.139102,-0.986499][0.592412,0.45008,0][0.407102,1.04861,-0.420585][0.715572,0.0687729,-0.695145][0.572811,0.45618,0][0.407102,1.04861,-0.420585][0.715572,0.0687729,-0.695145][0.572811,0.45618,0][0.42087,0.627888,-0.442536][0.738916,-0.110582,-0.664661][0.568211,0.42978,0][0.144756,0.698649,-0.537077][-0.0230472,-0.0200297,-0.999534][0.593211,0.43158,0][-0.207993,0.277739,-0.103843][-0.988881,-0.148655,-0.00393898][0.6359,0.3775,0][-0.138579,0.331267,-0.379957][-0.60458,-0.412118,-0.681646][0.6093,0.3899,0][-0.136943,0.192055,-0.296969][-0.753653,-0.205601,-0.624287][0.61,0.374,0][-0.136943,0.192055,-0.296969][-0.753653,-0.205601,-0.624287][0.61,0.374,0][-0.18585,0.147961,-0.0446344][-0.977991,0.158915,0.135205][0.6365,0.3638,0][-0.207993,0.277739,-0.103843][-0.988881,-0.148655,-0.00393898][0.6359,0.3775,0][0.407969,-0.396085,0.0463447][0.982401,-0.101473,-0.156818][0.522411,0.32928,0][0.314294,-0.381162,-0.248928][0.628659,-0.014067,-0.777554][0.553912,0.32578,0][0.373022,-0.164353,-0.196844][0.793004,-0.0747234,-0.604617][0.551412,0.34868,0][0.373022,-0.164353,-0.196844][0.793004,-0.0747234,-0.604617][0.551412,0.34868,0][0.42992,-0.148275,0.0706058][0.995126,0.0947842,0.0271933][0.524711,0.35248,0][0.407969,-0.396085,0.0463447][0.982401,-0.101473,-0.156818][0.522411,0.32928,0][0.422507,0.271866,-0.123579][0.988429,-0.117768,0.0955951][0.539311,0.39388,0][0.401037,0.143532,-0.070821][0.99322,0.0279541,0.112839][0.536611,0.38098,0][0.364163,0.134964,-0.267028][0.767198,-0.273546,-0.580155][0.558811,0.37988,0][0.364163,0.134964,-0.267028][0.767198,-0.273546,-0.580155][0.558811,0.37988,0][0.374466,0.258484,-0.345684][0.604379,-0.45157,-0.656362][0.562711,0.39328,0][0.422507,0.271866,-0.123579][0.988429,-0.117768,0.0955951][0.539311,0.39388,0][0.42087,0.627888,-0.442536][0.738916,-0.110582,-0.664661][0.568211,0.42978,0][0.407102,1.04861,-0.420585][0.715572,0.0687729,-0.695145][0.572811,0.45618,0][0.479212,1.04861,-0.191164][0.99617,-0.00895113,0.0869793][0.545511,0.45708,0][0.479212,1.04861,-0.191164][0.99617,-0.00895113,0.0869793][0.545511,0.45708,0][0.467467,0.630295,-0.157853][0.983071,-0.0630082,0.172052][0.540511,0.43088,0][0.42087,0.627888,-0.442536][0.738916,-0.110582,-0.664661][0.568211,0.42978,0][0.20589,1.2968,-0.193571][0.0685535,0.997587,0.0110132][0.596059,0.482394,0][0.479212,1.04861,-0.191164][0.671683,0.740022,0.0347845][0.577666,0.482186,0][0.407102,1.04861,-0.420585][0.444386,0.773541,-0.451835][0.582519,0.501975,0][0.407102,1.04861,-0.420585][0.444386,0.773541,-0.451835][0.582519,0.501975,0][0.216672,1.04861,-0.48143][0.0332683,0.757555,-0.651923][0.595334,0.507223,0][0.20589,1.2968,-0.193571][0.0685535,0.997587,0.0110132][0.596059,0.482394,0][-0.073498,1.04861,-0.421355][-0.392877,0.821511,-0.41324][0.61486,0.502041,0][-0.146859,1.04861,-0.195689][-0.575386,0.817841,-0.00820804][0.619797,0.482577,0][0.20589,1.2968,-0.193571][0.0685535,0.997587,0.0110132][0.596059,0.482394,0][0.20589,1.2968,-0.193571][0.0685535,0.997587,0.0110132][0.596059,0.482394,0][0.216672,1.04861,-0.48143][0.0332683,0.757555,-0.651923][0.595334,0.507223,0][-0.073498,1.04861,-0.421355][-0.392877,0.821511,-0.41324][0.61486,0.502041,0][-0.146859,1.04861,-0.195689][-0.989085,0.145508,-0.0232114][0.6468,0.4393,0][-0.073498,1.04861,-0.421355][-0.664812,0.167924,-0.727892][0.619,0.4462,0][-0.120095,0.735811,-0.43156][-0.746725,0.0318151,-0.664372][0.6176,0.429,0][-0.120095,0.735811,-0.43156][-0.746725,0.0318151,-0.664372][0.6176,0.429,0][-0.187487,0.725895,-0.142642][-0.99513,0.0840646,0.051477][0.6454,0.4209,0][-0.146859,1.04861,-0.195689][-0.989085,0.145508,-0.0232114][0.6468,0.4393,0][-0.120095,0.735811,-0.43156][-0.746725,0.0318151,-0.664372][0.621112,0.42978,0][0.144756,0.698649,-0.537077][-0.0230472,-0.0200297,-0.999534][0.593211,0.43158,0][0.0959445,0.315478,-0.472092][-0.0277436,-0.18601,-0.982156][0.590912,0.39488,0][0.0959445,0.315478,-0.472092][-0.0277436,-0.18601,-0.982156][0.590912,0.39488,0][-0.138579,0.331267,-0.379957][-0.789186,-0.0382244,-0.612964][0.612812,0.39068,0][-0.120095,0.735811,-0.43156][-0.746725,0.0318151,-0.664372][0.621112,0.42978,0][0.0959445,0.315478,-0.472092][-0.0277436,-0.18601,-0.982156][0.590912,0.39488,0][0.144756,0.698649,-0.537077][-0.0230472,-0.0200297,-0.999534][0.593211,0.43158,0][0.42087,0.627888,-0.442536][0.738916,-0.110582,-0.664661][0.568211,0.42978,0][0.42087,0.627888,-0.442536][0.738916,-0.110582,-0.664661][0.568211,0.42978,0][0.374466,0.258484,-0.345684][0.787821,-0.235746,-0.569][0.562711,0.39328,0][0.0959445,0.315478,-0.472092][-0.0277436,-0.18601,-0.982156][0.590912,0.39488,0][0.374466,0.258484,-0.345684][0.787821,-0.235746,-0.569][0.562711,0.39328,0][0.42087,0.627888,-0.442536][0.738916,-0.110582,-0.664661][0.568211,0.42978,0][0.467467,0.630295,-0.157853][0.983071,-0.0630082,0.172052][0.540511,0.43088,0][0.467467,0.630295,-0.157853][0.983071,-0.0630082,0.172052][0.540511,0.43088,0][0.422507,0.271866,-0.123579][0.983499,-0.109604,0.143932][0.539311,0.39388,0][0.374466,0.258484,-0.345684][0.787821,-0.235746,-0.569][0.562711,0.39328,0][0.467467,0.630295,-0.157853][0.983071,-0.0630082,0.172052][0.540511,0.43088,0][0.338459,0.682668,0.0651182][0.63927,0.0375247,0.768066][0.516212,0.43498,0][0.306207,0.318366,0.0951557][0.6024,-0.0355157,0.797404][0.513611,0.39798,0][0.306207,0.318366,0.0951557][0.6024,-0.0355157,0.797404][0.513611,0.39798,0][0.422507,0.271866,-0.123579][0.983499,-0.109604,0.143932][0.539311,0.39388,0][0.467467,0.630295,-0.157853][0.983071,-0.0630082,0.172052][0.540511,0.43088,0][0.306207,0.318366,0.0951557][0.6024,-0.0355157,0.797404][0.513611,0.39798,0][0.338459,0.682668,0.0651182][0.63927,0.0375247,0.768066][0.516212,0.43498,0][0.113563,0.711454,0.149166][0.0276035,0.095375,0.995059][0.497569,0.435423,0][0.113563,0.711454,0.149166][0.0276035,0.095375,0.995059][0.497569,0.435423,0][0.0832363,0.316537,0.137131][-0.077577,-0.0171246,0.996839][0.499369,0.397423,0][0.306207,0.318366,0.0951557][0.6024,-0.0355157,0.797404][0.513611,0.39798,0][0.0832363,0.316537,0.137131][-0.077577,-0.0171246,0.996839][0.6702,0.3726,0][0.113563,0.711454,0.149166][0.0276035,0.095375,0.995059][0.6859,0.4097,0][-0.11249,0.721274,0.0759971][-0.684263,0.100437,0.722286][0.6673,0.4145,0][-0.11249,0.721274,0.0759971][-0.684263,0.100437,0.722286][0.6673,0.4145,0][-0.117208,0.278027,0.079463][-0.66293,0.0129089,0.748571][0.6565,0.3732,0][0.0832363,0.316537,0.137131][-0.077577,-0.0171246,0.996839][0.6702,0.3726,0][-0.11249,0.721274,0.0759971][-0.684263,0.100437,0.722286][0.6673,0.4145,0][-0.187487,0.725895,-0.142642][-0.99513,0.0840646,0.051477][0.6454,0.4209,0][-0.207993,0.277739,-0.103843][-0.991207,0.0291261,0.129074][0.6359,0.3775,0][-0.207993,0.277739,-0.103843][-0.991207,0.0291261,0.129074][0.6359,0.3775,0][-0.117208,0.278027,0.079463][-0.66293,0.0129089,0.748571][0.6565,0.3732,0][-0.11249,0.721274,0.0759971][-0.684263,0.100437,0.722286][0.6673,0.4145,0][-0.187487,0.725895,-0.142642][-0.99513,0.0840646,0.051477][0.6454,0.4209,0][-0.120095,0.735811,-0.43156][-0.746725,0.0318151,-0.664372][0.6176,0.429,0][-0.138579,0.331267,-0.379957][-0.789186,-0.0382244,-0.612964][0.6093,0.3899,0][-0.138579,0.331267,-0.379957][-0.789186,-0.0382244,-0.612964][0.6093,0.3899,0][-0.207993,0.277739,-0.103843][-0.991207,0.0291261,0.129074][0.6359,0.3775,0][-0.187487,0.725895,-0.142642][-0.99513,0.0840646,0.051477][0.6454,0.4209,0][0.112985,-0.139032,0.34932][-0.0274899,0.373082,0.927391][0.6797,0.3397,0][-0.200195,-0.146349,0.26585][-0.610428,0.36856,0.7011][0.6579,0.3303,0][-0.193071,-0.396951,0.349705][-0.545914,0.228245,0.806152][0.6689,0.3084,0][-0.193071,-0.396951,0.349705][-0.545914,0.228245,0.806152][0.6689,0.3084,0][0.149473,-0.386457,0.411802][0.0580347,0.216413,0.974575][0.6921,0.3199,0][0.112985,-0.139032,0.34932][-0.0274899,0.373082,0.927391][0.6797,0.3397,0][-0.226189,-0.153377,-0.22794][-0.737439,0.0942121,-0.66881][0.613212,0.33698,0][0.074379,-0.187458,-0.300724][0.037543,-0.0429147,-0.998373][0.582511,0.34148,0][0.0398165,-0.385783,-0.317668][-0.045841,0.0488992,-0.997751][0.581711,0.32098,0][0.0398165,-0.385783,-0.317668][-0.045841,0.0488992,-0.997751][0.581711,0.32098,0][-0.272208,-0.377022,-0.197325][-0.80588,0.0713289,-0.587766][0.613611,0.31458,0][-0.226189,-0.153377,-0.22794][-0.737439,0.0942121,-0.66881][0.613212,0.33698,0][0.422025,-0.391271,0.316009][0.802816,0.110225,0.58595][0.495011,0.33338,0][0.407969,-0.396085,0.0463447][0.982401,-0.101473,-0.156818][0.522411,0.32928,0][0.42992,-0.148275,0.0706058][0.995126,0.0947842,0.0271933][0.524711,0.35248,0][0.42992,-0.148275,0.0706058][0.995126,0.0947842,0.0271933][0.524711,0.35248,0][0.376872,-0.161368,0.299353][0.65248,0.320396,0.686743][0.502611,0.35288,0][0.422025,-0.391271,0.316009][0.802816,0.110225,0.58595][0.495011,0.33338,0][0.074379,-0.187458,-0.300724][0.037543,-0.0429147,-0.998373][0.582511,0.34148,0][0.373022,-0.164353,-0.196844][0.793004,-0.0747234,-0.604617][0.551412,0.34868,0][0.314294,-0.381162,-0.248928][0.628659,-0.014067,-0.777554][0.553912,0.32578,0][0.314294,-0.381162,-0.248928][0.628659,-0.014067,-0.777554][0.553912,0.32578,0][0.0398165,-0.385783,-0.317668][-0.045841,0.0488992,-0.997751][0.581711,0.32098,0][0.074379,-0.187458,-0.300724][0.037543,-0.0429147,-0.998373][0.582511,0.34148,0][0.149473,-0.386457,0.411802][0.0580347,0.216413,0.974575][0.478269,0.345823,0][0.422025,-0.391271,0.316009][0.802816,0.110225,0.58595][0.495011,0.33338,0][0.376872,-0.161368,0.299353][0.65248,0.320396,0.686743][0.502611,0.35288,0][0.376872,-0.161368,0.299353][0.65248,0.320396,0.686743][0.502611,0.35288,0][0.112985,-0.139032,0.34932][-0.0274899,0.373082,0.927391][0.488869,0.365023,0][0.149473,-0.386457,0.411802][0.0580347,0.216413,0.974575][0.478269,0.345823,0][-0.293004,-0.152126,0.0727239][-0.953231,0.27581,0.123611][0.6385,0.3308,0][-0.226189,-0.153377,-0.22794][-0.737439,0.0942121,-0.66881][0.6097,0.3362,0][-0.272208,-0.377022,-0.197325][-0.80588,0.0713289,-0.587766][0.6101,0.3138,0][-0.272208,-0.377022,-0.197325][-0.80588,0.0713289,-0.587766][0.6101,0.3138,0][-0.330358,-0.394351,0.107286][-0.97152,0.15511,0.179135][0.6414,0.308,0][-0.293004,-0.152126,0.0727239][-0.953231,0.27581,0.123611][0.6385,0.3308,0][-0.18585,0.147961,-0.0446344][-0.977991,0.158915,0.135205][0.6365,0.3638,0][-0.136943,0.192055,-0.296969][-0.753653,-0.205601,-0.624287][0.61,0.374,0][-0.226189,-0.153377,-0.22794][-0.737439,0.0942121,-0.66881][0.6097,0.3362,0][-0.226189,-0.153377,-0.22794][-0.737439,0.0942121,-0.66881][0.6097,0.3362,0][-0.293004,-0.152126,0.0727239][-0.953231,0.27581,0.123611][0.6385,0.3308,0][-0.18585,0.147961,-0.0446344][-0.977991,0.158915,0.135205][0.6365,0.3638,0][-0.108542,0.158647,0.107383][-0.619313,0.333834,0.710637][0.6547,0.3618,0][-0.18585,0.147961,-0.0446344][-0.977991,0.158915,0.135205][0.6365,0.3638,0][-0.293004,-0.152126,0.0727239][-0.953231,0.27581,0.123611][0.6385,0.3308,0][-0.293004,-0.152126,0.0727239][-0.953231,0.27581,0.123611][0.6385,0.3308,0][-0.200195,-0.146349,0.26585][-0.610428,0.36856,0.7011][0.6579,0.3303,0][-0.108542,0.158647,0.107383][-0.619313,0.333834,0.710637][0.6547,0.3618,0][0.112985,-0.139032,0.34932][-0.0274899,0.373082,0.927391][0.6797,0.3397,0][0.0974839,0.180887,0.177855][-0.080657,0.376495,0.922901][0.6689,0.3632,0][-0.108542,0.158647,0.107383][-0.619313,0.333834,0.710637][0.6547,0.3618,0][-0.108542,0.158647,0.107383][-0.619313,0.333834,0.710637][0.6547,0.3618,0][-0.200195,-0.146349,0.26585][-0.610428,0.36856,0.7011][0.6579,0.3303,0][0.112985,-0.139032,0.34932][-0.0274899,0.373082,0.927391][0.6797,0.3397,0][0.30871,0.168178,0.142523][0.614803,0.343246,0.710071][0.512212,0.38398,0][0.0974839,0.180887,0.177855][-0.080657,0.376495,0.922901][0.500169,0.387623,0][0.112985,-0.139032,0.34932][-0.0274899,0.373082,0.927391][0.488869,0.365023,0][0.112985,-0.139032,0.34932][-0.0274899,0.373082,0.927391][0.488869,0.365023,0][0.376872,-0.161368,0.299353][0.65248,0.320396,0.686743][0.502611,0.35288,0][0.30871,0.168178,0.142523][0.614803,0.343246,0.710071][0.512212,0.38398,0][0.42992,-0.148275,0.0706058][0.995126,0.0947842,0.0271933][0.524711,0.35248,0][0.401037,0.143532,-0.070821][0.99322,0.0279541,0.112839][0.536611,0.38098,0][0.30871,0.168178,0.142523][0.614803,0.343246,0.710071][0.512212,0.38398,0][0.30871,0.168178,0.142523][0.614803,0.343246,0.710071][0.512212,0.38398,0][0.376872,-0.161368,0.299353][0.65248,0.320396,0.686743][0.502611,0.35288,0][0.42992,-0.148275,0.0706058][0.995126,0.0947842,0.0271933][0.524711,0.35248,0][0.373022,-0.164353,-0.196844][0.793004,-0.0747234,-0.604617][0.551412,0.34868,0][0.364163,0.134964,-0.267028][0.767198,-0.273546,-0.580155][0.558811,0.37988,0][0.401037,0.143532,-0.070821][0.99322,0.0279541,0.112839][0.536611,0.38098,0][0.401037,0.143532,-0.070821][0.99322,0.0279541,0.112839][0.536611,0.38098,0][0.42992,-0.148275,0.0706058][0.995126,0.0947842,0.0271933][0.524711,0.35248,0][0.373022,-0.164353,-0.196844][0.793004,-0.0747234,-0.604617][0.551412,0.34868,0][0.074379,-0.187458,-0.300724][0.037543,-0.0429147,-0.998373][0.582511,0.34148,0][0.101432,0.180309,-0.39411][-0.00814148,-0.400022,-0.916469][0.588211,0.37998,0][0.364163,0.134964,-0.267028][0.767198,-0.273546,-0.580155][0.558811,0.37988,0][0.364163,0.134964,-0.267028][0.767198,-0.273546,-0.580155][0.558811,0.37988,0][0.373022,-0.164353,-0.196844][0.793004,-0.0747234,-0.604617][0.551412,0.34868,0][0.074379,-0.187458,-0.300724][0.037543,-0.0429147,-0.998373][0.582511,0.34148,0][-0.136943,0.192055,-0.296969][-0.753653,-0.205601,-0.624287][0.613512,0.37478,0][0.101432,0.180309,-0.39411][-0.00814148,-0.400022,-0.916469][0.588211,0.37998,0][0.074379,-0.187458,-0.300724][0.037543,-0.0429147,-0.998373][0.582511,0.34148,0][0.074379,-0.187458,-0.300724][0.037543,-0.0429147,-0.998373][0.582511,0.34148,0][-0.226189,-0.153377,-0.22794][-0.737439,0.0942121,-0.66881][0.613212,0.33698,0][-0.136943,0.192055,-0.296969][-0.753653,-0.205601,-0.624287][0.613512,0.37478,0][-0.193071,-0.396951,0.349705][-0.456648,0.636053,0.62202][0.6689,0.3084,0][-0.330358,-0.394351,0.107286][-0.778952,0.611696,0.138064][0.6414,0.308,0][-0.425477,-0.520085,0.127696][-0.770583,0.61735,0.158366][0.6424,0.2913,0][-0.425477,-0.520085,0.127696][-0.770583,0.61735,0.158366][0.6424,0.2913,0][-0.255841,-0.523744,0.431923][-0.467794,0.63214,0.617712][0.6738,0.2917,0][-0.193071,-0.396951,0.349705][-0.456648,0.636053,0.62202][0.6689,0.3084,0][0.314294,-0.381162,-0.248928][0.560368,0.705975,-0.433113][0.553912,0.32578,0][0.407969,-0.396085,0.0463447][0.837102,0.526511,-0.14848][0.522411,0.32928,0][0.486432,-0.5223,0.0411459][0.835575,0.532903,-0.133525][0.517011,0.31388,0][0.486432,-0.5223,0.0411459][0.835575,0.532903,-0.133525][0.517011,0.31388,0][0.370615,-0.502082,-0.37678][0.445519,0.744797,-0.49678][0.552411,0.30878,0][0.314294,-0.381162,-0.248928][0.560368,0.705975,-0.433113][0.553912,0.32578,0][-0.193071,-0.396951,0.349705][-0.456648,0.636053,0.62202][0.6689,0.3084,0][-0.255841,-0.523744,0.431923][-0.467794,0.63214,0.617712][0.6738,0.2917,0][0.16709,-0.509207,0.519629][0.0507454,0.668195,0.742253][0.7039,0.3052,0][0.16709,-0.509207,0.519629][0.0507454,0.668195,0.742253][0.7039,0.3052,0][0.149473,-0.386457,0.411802][0.0471273,0.663039,0.7471][0.6921,0.3199,0][-0.193071,-0.396951,0.349705][-0.456648,0.636053,0.62202][0.6689,0.3084,0][0.0398165,-0.385783,-0.317668][-0.0409048,0.778563,-0.626231][0.581711,0.32098,0][0.0317295,-0.508436,-0.474113][-0.0363639,0.787365,-0.615414][0.578411,0.30248,0][-0.353656,-0.496691,-0.303708][-0.50814,0.745909,-0.430596][0.611111,0.29748,0][-0.353656,-0.496691,-0.303708][-0.50814,0.745909,-0.430596][0.611111,0.29748,0][-0.272208,-0.377022,-0.197325][-0.573346,0.72388,-0.383761][0.613611,0.31458,0][0.0398165,-0.385783,-0.317668][-0.0409048,0.778563,-0.626231][0.581711,0.32098,0][0.486432,-0.5223,0.0411459][0.835575,0.532903,-0.133525][0.517011,0.31388,0][0.407969,-0.396085,0.0463447][0.837102,0.526511,-0.14848][0.522411,0.32928,0][0.422025,-0.391271,0.316009][0.651073,0.687619,0.321379][0.495011,0.33338,0][0.422025,-0.391271,0.316009][0.651073,0.687619,0.321379][0.495011,0.33338,0][0.503666,-0.516331,0.423451][0.548994,0.721256,0.422369][0.486111,0.31848,0][0.486432,-0.5223,0.0411459][0.835575,0.532903,-0.133525][0.517011,0.31388,0][0.0398165,-0.385783,-0.317668][-0.0409048,0.778563,-0.626231][0.581711,0.32098,0][0.314294,-0.381162,-0.248928][0.560368,0.705975,-0.433113][0.553912,0.32578,0][0.370615,-0.502082,-0.37678][0.445519,0.744797,-0.49678][0.552411,0.30878,0][0.370615,-0.502082,-0.37678][0.445519,0.744797,-0.49678][0.552411,0.30878,0][0.0317295,-0.508436,-0.474113][-0.0363639,0.787365,-0.615414][0.578411,0.30248,0][0.0398165,-0.385783,-0.317668][-0.0409048,0.778563,-0.626231][0.581711,0.32098,0][0.16709,-0.509207,0.519629][0.0507454,0.668195,0.742253][0.465569,0.332223,0][0.503666,-0.516331,0.423451][0.548994,0.721256,0.422369][0.486111,0.31848,0][0.422025,-0.391271,0.316009][0.651073,0.687619,0.321379][0.495011,0.33338,0][0.422025,-0.391271,0.316009][0.651073,0.687619,0.321379][0.495011,0.33338,0][0.149473,-0.386457,0.411802][0.0471273,0.663039,0.7471][0.478269,0.345823,0][0.16709,-0.509207,0.519629][0.0507454,0.668195,0.742253][0.465569,0.332223,0][-0.272208,-0.377022,-0.197325][-0.573346,0.72388,-0.383761][0.6101,0.3138,0][-0.353656,-0.496691,-0.303708][-0.50814,0.745909,-0.430596][0.6076,0.2967,0][-0.425477,-0.520085,0.127696][-0.770583,0.61735,0.158366][0.6424,0.2913,0][-0.425477,-0.520085,0.127696][-0.770583,0.61735,0.158366][0.6424,0.2913,0][-0.330358,-0.394351,0.107286][-0.778952,0.611696,0.138064][0.6414,0.308,0][-0.272208,-0.377022,-0.197325][-0.573346,0.72388,-0.383761][0.6101,0.3138,0][-0.406854,-0.608788,0.12781][-0.622318,-0.77665,0.0976489][0.6428,0.2777,0][-0.16094,-0.612267,0.460972][-0.211898,-0.738182,0.640458][0.6766,0.28,0][-0.255841,-0.523744,0.431923][-0.624009,-0.38954,0.677401][0.6738,0.2917,0][-0.255841,-0.523744,0.431923][-0.624009,-0.38954,0.677401][0.6738,0.2917,0][-0.425477,-0.520085,0.127696][-0.968052,-0.203046,0.14713][0.6424,0.2913,0][-0.406854,-0.608788,0.12781][-0.622318,-0.77665,0.0976489][0.6428,0.2777,0][0.39014,-0.610809,0.0438744][0.219105,-0.974083,-0.056179][0.514711,0.30028,0][0.304296,-0.591732,-0.36144][0.336292,-0.838345,-0.429053][0.548711,0.29618,0][0.370615,-0.502082,-0.37678][0.625408,-0.578362,-0.523797][0.552411,0.30878,0][0.370615,-0.502082,-0.37678][0.625408,-0.578362,-0.523797][0.552411,0.30878,0][0.486432,-0.5223,0.0411459][0.669377,-0.734679,-0.110367][0.517011,0.31388,0][0.39014,-0.610809,0.0438744][0.219105,-0.974083,-0.056179][0.514711,0.30028,0][0.16709,-0.509207,0.519629][0.071723,0.212288,0.974571][0.7039,0.3052,0][-0.255841,-0.523744,0.431923][-0.624009,-0.38954,0.677401][0.6738,0.2917,0][-0.16094,-0.612267,0.460972][-0.211898,-0.738182,0.640458][0.6766,0.28,0][-0.16094,-0.612267,0.460972][-0.211898,-0.738182,0.640458][0.6766,0.28,0][0.191634,-0.598577,0.546029][0.179131,-0.560802,0.80834][0.7045,0.291,0][0.16709,-0.509207,0.519629][0.071723,0.212288,0.974571][0.7039,0.3052,0][-0.305467,-0.586682,-0.363684][-0.493879,-0.582457,-0.645622][0.609612,0.28408,0][-0.353656,-0.496691,-0.303708][-0.873672,-0.142342,-0.465227][0.611111,0.29748,0][0.0317295,-0.508436,-0.474113][-0.0116754,-0.169366,-0.985484][0.578411,0.30248,0][0.0317295,-0.508436,-0.474113][-0.0116754,-0.169366,-0.985484][0.578411,0.30248,0][0.0526017,-0.597903,-0.456036][0.0688341,-0.769924,-0.634412][0.575812,0.28918,0][-0.305467,-0.586682,-0.363684][-0.493879,-0.582457,-0.645622][0.609612,0.28408,0][0.486432,-0.5223,0.0411459][0.669377,-0.734679,-0.110367][0.517011,0.31388,0][0.503666,-0.516331,0.423451][0.600439,-0.714222,0.359667][0.486111,0.31848,0][0.403044,-0.60531,0.41474][0.295892,-0.867837,0.399132][0.482711,0.30738,0][0.403044,-0.60531,0.41474][0.295892,-0.867837,0.399132][0.482711,0.30738,0][0.39014,-0.610809,0.0438744][0.219105,-0.974083,-0.056179][0.514711,0.30028,0][0.486432,-0.5223,0.0411459][0.669377,-0.734679,-0.110367][0.517011,0.31388,0][0.0317295,-0.508436,-0.474113][-0.0116754,-0.169366,-0.985484][0.578411,0.30248,0][0.370615,-0.502082,-0.37678][0.625408,-0.578362,-0.523797][0.552411,0.30878,0][0.304296,-0.591732,-0.36144][0.336292,-0.838345,-0.429053][0.548711,0.29618,0][0.304296,-0.591732,-0.36144][0.336292,-0.838345,-0.429053][0.548711,0.29618,0][0.0526017,-0.597903,-0.456036][0.0688341,-0.769924,-0.634412][0.575812,0.28918,0][0.0317295,-0.508436,-0.474113][-0.0116754,-0.169366,-0.985484][0.578411,0.30248,0][0.16709,-0.509207,0.519629][0.071723,0.212288,0.974571][0.465569,0.332223,0][0.191634,-0.598577,0.546029][0.179131,-0.560802,0.80834][0.460969,0.318423,0][0.403044,-0.60531,0.41474][0.295892,-0.867837,0.399132][0.482711,0.30738,0][0.403044,-0.60531,0.41474][0.295892,-0.867837,0.399132][0.482711,0.30738,0][0.503666,-0.516331,0.423451][0.600439,-0.714222,0.359667][0.486111,0.31848,0][0.16709,-0.509207,0.519629][0.071723,0.212288,0.974571][0.465569,0.332223,0][-0.353656,-0.496691,-0.303708][-0.873672,-0.142342,-0.465227][0.6076,0.2967,0][-0.305467,-0.586682,-0.363684][-0.493879,-0.582457,-0.645622][0.6061,0.2833,0][-0.406854,-0.608788,0.12781][-0.622318,-0.77665,0.0976489][0.6428,0.2777,0][-0.406854,-0.608788,0.12781][-0.622318,-0.77665,0.0976489][0.6428,0.2777,0][-0.425477,-0.520085,0.127696][-0.968052,-0.203046,0.14713][0.6424,0.2913,0][-0.353656,-0.496691,-0.303708][-0.873672,-0.142342,-0.465227][0.6076,0.2967,0][-0.406854,-0.608788,0.12781][-0.622318,-0.77665,0.0976489][0.579911,0.483496,0][0.079108,-0.493659,0.0584272][-0.0449856,-0.998836,-0.0174289][0.597748,0.48674,0][-0.16094,-0.612267,0.460972][-0.211898,-0.738182,0.640458][0.585986,0.467405,0][0.39014,-0.610809,0.0438744][0.219105,-0.974083,-0.056179][0.612603,0.48755,0][0.079108,-0.493659,0.0584272][-0.0449856,-0.998836,-0.0174289][0.597748,0.48674,0][0.304296,-0.591732,-0.36144][0.336292,-0.838345,-0.429053][0.608457,0.507126,0][-0.16094,-0.612267,0.460972][-0.211898,-0.738182,0.640458][0.585986,0.467405,0][0.079108,-0.493659,0.0584272][-0.0449856,-0.998836,-0.0174289][0.597748,0.48674,0][0.191634,-0.598577,0.546029][0.179131,-0.560802,0.80834][0.603015,0.463297,0][0.0526017,-0.597903,-0.456036][0.0688341,-0.769924,-0.634412][0.5963,0.511695,0][0.079108,-0.493659,0.0584272][-0.0449856,-0.998836,-0.0174289][0.597748,0.48674,0][-0.305467,-0.586682,-0.363684][-0.493879,-0.582457,-0.645622][0.582485,0.503712,0][0.403044,-0.60531,0.41474][0.295892,-0.867837,0.399132][0.613226,0.469638,0][0.079108,-0.493659,0.0584272][-0.0449856,-0.998836,-0.0174289][0.597748,0.48674,0][0.39014,-0.610809,0.0438744][0.219105,-0.974083,-0.056179][0.612603,0.48755,0][0.304296,-0.591732,-0.36144][0.336292,-0.838345,-0.429053][0.608457,0.507126,0][0.079108,-0.493659,0.0584272][-0.0449856,-0.998836,-0.0174289][0.597748,0.48674,0][0.0526017,-0.597903,-0.456036][0.0688341,-0.769924,-0.634412][0.5963,0.511695,0][0.191634,-0.598577,0.546029][0.179131,-0.560802,0.80834][0.603015,0.463297,0][0.079108,-0.493659,0.0584272][-0.0449856,-0.998836,-0.0174289][0.597748,0.48674,0][0.403044,-0.60531,0.41474][0.295892,-0.867837,0.399132][0.613226,0.469638,0][-0.305467,-0.586682,-0.363684][-0.493879,-0.582457,-0.645622][0.582485,0.503712,0][0.079108,-0.493659,0.0584272][-0.0449856,-0.998836,-0.0174289][0.597748,0.48674,0][-0.406854,-0.608788,0.12781][-0.622318,-0.77665,0.0976489][0.579911,0.483496,0]