mtllib 101851696.mtl
o Mesh

v -0.08974400162696838 0.982699990272522 0.00534099992364645
v -0.03251099959015846 1.012120008468628 0.05385600030422211
v -0.05639500170946121 1.0574500560760498 0.1063850000500679
v -0.14900100231170654 1.009850025177002 0.027885999530553818
v -0.03251099959015846 1.012120008468628 0.05385600030422211
v 0.028179999440908432 1.0332399606704712 0.0032240001019090414
v 0.041804999113082886 1.0916199684143066 0.024460000917315483
v -0.05639500170946121 1.0574500560760498 0.1063850000500679
v 0.031638000160455704 1.024940013885498 -0.09592299908399582
v 0.04740000143647194 1.0781899690628052 -0.13596199452877045
v -0.02559500001370907 0.9955199956893921 -0.1444379985332489
v -0.04520599916577339 1.0305800437927246 -0.21446099877357483
v -0.02559500001370907 0.9955199956893921 -0.1444379985332489
v -0.08628600090742111 0.974399983882904 -0.09380599856376648
v -0.1434060037136078 0.9964200258255005 -0.13253599405288696
v -0.04520599916577339 1.0305800437927246 -0.21446099877357483
v -0.08327700197696686 1.1071300506591797 0.09557300060987473
v -0.1758819967508316 1.0595300197601318 0.01707400009036064
v 0.014922999776899815 1.1412999629974365 0.013648999854922295
v -0.08327700197696686 1.1071300506591797 0.09557300060987473
v 0.020517999306321144 1.127869963645935 -0.14677399396896362
v -0.07208699733018875 1.0802700519561768 -0.225272998213768
v -0.17028799653053284 1.0461000204086304 -0.14334799349308014
v -0.07208699733018875 1.0802700519561768 -0.225272998213768
v -0.10288800299167633 1.142199993133545 0.025550000369548798
v -0.16012099385261536 1.112779974937439 -0.022964999079704285
v -0.04219700023531914 1.1633200645446777 -0.025081999599933624
v -0.10288800299167633 1.142199993133545 0.025550000369548798
v -0.038738999515771866 1.1550099849700928 -0.12422899901866913
v -0.09597200155258179 1.1142799854278564 -0.1727440059185028
v -0.15666300058364868 1.1044800281524658 -0.12211199849843979
v -0.09597200155258179 1.1142799854278564 -0.1727440059185028
v -0.04570800065994263 0.9994400143623352 -0.032878998667001724
v -0.04570800065994263 0.9994400143623352 -0.032878998667001724
v -0.1077369973063469 1.1379300355911255 -0.07693800330162048
v -0.1077369973063469 1.1379300355911255 -0.07693800330162048
v 0.0683630034327507 0.37230998277664185 -0.03621299937367439
v 0.0588189996778965 0.3730199933052063 -0.0517599992454052
v 0.06151999905705452 0.6374399662017822 -0.09102100133895874
v 0.07714299857616425 0.6360499858856201 -0.06457799673080444
v 0.07122399657964706 0.37247002124786377 -0.017503999173641205
v 0.08152200281620026 0.6362699866294861 -0.033580001443624496
v 0.06835100054740906 0.3722900152206421 0.001227000029757619
v 0.07122399657964706 0.37247002124786377 -0.017503999173641205
v 0.08152200281620026 0.6362699866294861 -0.033580001443624496
v 0.07714299857616425 0.6360499858856201 -0.002583000110462308
v 0.058688998222351074 0.3727399706840515 0.01668200083076954
v 0.06151999905705452 0.6374399662017822 0.023845000192523003
v 0.04529799893498421 0.3730999827384949 0.024511000141501427
v 0.03963899984955788 0.6387900114059448 0.03954099863767624
v 0.03127799928188324 0.3729900121688843 0.026541000232100487
v 0.016574999317526817 0.6382700204849243 0.04396900162100792
v 0.01722699962556362 0.3742300271987915 0.024940000846982002
v -0.00648899981752038 0.6380200386047363 0.03857799991965294
v 0.0039019999094307423 0.3738899827003479 0.01742600090801716
v -0.027727000415325165 0.6355899572372437 0.022853000089526176
v -0.005539999809116125 0.3727399706840515 0.003240999998524785
v -0.04258900135755539 0.6330200433731079 -0.0017900000093504786
v -0.008342999964952469 0.37317997217178345 -0.017424000427126884
v -0.046886999160051346 0.6335799694061279 -0.033580001443624496
v -0.005584000144153833 0.3728700280189514 -0.03811899945139885
v -0.008342999964952469 0.37317997217178345 -0.017424000427126884
v -0.046886999160051346 0.6335799694061279 -0.033580001443624496
v -0.04258900135755539 0.6330200433731079 -0.06537000089883804
v 0.003924999851733446 0.3737800121307373 -0.05261300131678581
v -0.027727000415325165 0.6355899572372437 -0.09003700315952301
v 0.017240000888705254 0.373989999294281 -0.0602709986269474
v -0.00648899981752038 0.6380200386047363 -0.10593599826097488
v 0.031325001269578934 0.3733699917793274 -0.06210000067949295
v 0.016574999317526817 0.6382700204849243 -0.11143899708986282
v 0.04540900141000748 0.37348002195358276 -0.059971000999212265
v 0.03963899984955788 0.6387900114059448 -0.10689599812030792
v 0.037686001509428024 0.885420024394989 -0.08605100214481354
v 0.010893000289797783 0.8876000046730042 -0.10870199650526047
v 0.034860000014305115 0.9815700054168701 -0.16752299666404724
v 0.09436900168657303 0.992929995059967 -0.1258780062198639
v 0.05671200156211853 0.8832100033760071 -0.052344001829624176
v 0.1383499950170517 0.983210027217865 -0.06817299872636795
v 0.06168999895453453 0.8834800124168396 -0.013922999612987041
v 0.13421399891376495 0.9601700305938721 -0.006622000131756067
v 0.05671200156211853 0.8832100033760071 0.024438999593257904
v 0.06168999895453453 0.8834800124168396 -0.013922999612987041
v 0.13421399891376495 0.9601700305938721 -0.006622000131756067
v 0.13795599341392517 0.9828799962997437 0.058407001197338104
v 0.037686001509428024 0.885420024394989 0.05820300057530403
v 0.09442900121212006 0.9923999905586243 0.11575400084257126
v 0.010893000289797783 0.8876000046730042 0.08084399998188019
v 0.03490399941802025 0.9823300242424011 0.15436799824237823
v -0.017345000058412552 0.8862500190734863 0.08731500059366226
v -0.018371999263763428 0.9601600170135498 0.16527700424194336
v -0.0455860011279583 0.8856199979782104 0.07808999717235565
v -0.06815499812364578 0.9348499774932861 0.14208300411701202
v -0.07158999890089035 0.8826500177383423 0.0549359992146492
v -0.11229600012302399 0.9351699948310852 0.10024700313806534
v -0.08977700024843216 0.8794900178909302 0.02284899912774563
v -0.14299599826335907 0.9274699687957764 0.04853999987244606
v -0.09489300101995468 0.8801800012588501 -0.014305000193417072
v -0.14892299473285675 0.9104200005531311 -0.011033999733626842
v -0.08977700024843216 0.8794900178909302 -0.052073001861572266
v -0.09489300101995468 0.8801800012588501 -0.014305000193417072
v -0.14892299473285675 0.9104200005531311 -0.011033999733626842
v -0.14294099807739258 0.927299976348877 -0.0684489980340004
v -0.07158999890089035 0.8826500177383423 -0.08413200080394745
v -0.11225800216197968 0.9355199933052063 -0.11940299719572067
v -0.0455860011279583 0.8856199979782104 -0.10672499984502792
v -0.06815499812364578 0.9349799752235413 -0.16141800582408905
v -0.017345000058412552 0.8862500190734863 -0.11580699682235718
v -0.018303999677300453 0.9601700305938721 -0.18004600703716278
v 0.09408699721097946 1.0180799961090088 0.06283000111579895
v 0.04234100133180618 1.0202699899673462 0.09058299660682678
v 0.13795599341392517 0.9828799962997437 0.058407001197338104
v 0.13421399891376495 0.9601700305938721 -0.006622000131756067
v 0.12355200201272964 1.0024700164794922 -0.002486000070348382
v -0.02097100019454956 0.989300012588501 0.13184800744056702
v -0.07900000363588333 0.982509970664978 0.0809210017323494
v -0.11149899661540985 0.9622399806976318 0.04850199818611145
v -0.14299599826335907 0.9274699687957764 0.04853999987244606
v -0.14892299473285675 0.9104200005531311 -0.011033999733626842
v -0.13586199283599854 0.9533500075340271 -0.0064210002310574055
v -0.14294099807739258 0.927299976348877 -0.0684489980340004
v 0.1383499950170517 0.983210027217865 -0.06817299872636795
v 0.09460200369358063 1.0192999839782715 -0.06286600232124329
v 0.04016700014472008 1.0195900201797485 -0.07371299713850021
v -0.01940000057220459 0.9893900156021118 -0.13494299352169037
v -0.07795000076293945 0.9795899987220764 -0.06663099676370621
v -0.1111069992184639 0.9618399739265442 -0.06164100021123886
v 0.09518600255250931 1.0258300304412842 0.0012799999676644802
v 0.06639000028371811 1.0377099514007568 0.010734000243246555
v -0.09994000196456909 0.9760800004005432 -0.003579000011086464
v -0.12085799872875214 0.9678199887275696 -0.005185999907553196
v -0.13586199283599854 0.9533500075340271 -0.0064210002310574055
v 0.09518600255250931 1.0258300304412842 0.0012799999676644802
v 0.12355200201272964 1.0024700164794922 -0.002486000070348382
v 0.06639000028371811 1.0377099514007568 0.010734000243246555
v -0.12085799872875214 0.9678199887275696 -0.005185999907553196
v -0.09994000196456909 0.9760800004005432 -0.003579000011086464
v -0.032131001353263855 1.0640599727630615 0.05588399991393089
v -0.05961399897933006 1.049149990081787 0.08098500221967697
v -0.021515000611543655 1.083359956741333 0.00839299988001585
v -0.09025400131940842 1.036120057106018 0.05076399818062782
v -0.10316800326108932 1.0327600240707397 0.0008430000161752105
v -0.03371899947524071 1.062849998474121 -0.04190399870276451
v -0.021515000611543655 1.083359956741333 0.00839299988001585
v -0.05889499932527542 1.0492500066757202 -0.07650300115346909
v -0.08926700055599213 1.0345100164413452 -0.03635000064969063
v -0.10316800326108932 1.0327600240707397 0.0008430000161752105
v 0.03144000098109245 0.30111998319625854 -0.0177800003439188
v 0.03144000098109245 0.30111998319625854 -0.0177800003439188
v -0.14892299473285675 0.9104200005531311 -0.011033999733626842
v 0.13421399891376495 0.9601700305938721 -0.006622000131756067

vn 0.08594000339508057 -0.9688839912414551 0.2321150004863739
vn 0.3744780123233795 -0.8400089740753174 0.3926219940185547
vn 0.1467979997396469 -0.2978479862213135 0.9432590007781982
vn -0.5867099761962891 -0.6827009916305542 0.4355359971523285
vn 0.3744780123233795 -0.8400089740753174 0.3926219940185547
vn 0.6748639941215515 -0.6972330212593079 0.2417140007019043
vn 0.8981360197067261 0.08087299764156342 0.4322179853916168
vn 0.1467979997396469 -0.2978479862213135 0.9432590007781982
vn 0.673583984375 -0.7364630103111267 -0.06249900162220001
vn 0.9306870102882385 -0.05317100137472153 -0.36193299293518066
vn 0.3904469907283783 -0.90037602186203 -0.1920280009508133
vn 0.23928000032901764 -0.559785008430481 -0.7933380007743835
vn 0.3904469907283783 -0.90037602186203 -0.1920280009508133
vn 0.10363700240850449 -0.9934200048446655 -0.04874200001358986
vn -0.5247049927711487 -0.786529004573822 -0.3256630003452301
vn 0.23928000032901764 -0.559785008430481 -0.7933380007743835
vn -0.23928000032901764 0.5597609877586365 0.7933549880981445
vn -0.9306830167770386 0.05316099897027016 0.3619439899921417
vn 0.5246809720993042 0.7865409851074219 0.32567301392555237
vn -0.23928000032901764 0.5597609877586365 0.7933549880981445
vn 0.569570004940033 0.6962720155715942 -0.4368009865283966
vn -0.1662990003824234 0.31789299845695496 -0.9334279894828796
vn -0.8986110091209412 -0.0681150034070015 -0.43342700600624084
vn -0.1662990003824234 0.31789299845695496 -0.9334279894828796
vn -0.38664400577545166 0.8917229771614075 0.23523899912834167
vn -0.7110580205917358 0.6980000138282776 0.08480799943208694
vn -0.05266999825835228 0.9961580038070679 0.06995999813079834
vn -0.38664400577545166 0.8917229771614075 0.23523899912834167
vn -0.07012200355529785 0.9584479928016663 -0.27651599049568176
vn -0.36606600880622864 0.802049994468689 -0.4719240069389343
vn -0.6849120259284973 0.6698570251464844 -0.28668099641799927
vn -0.36606600880622864 0.802049994468689 -0.4719240069389343
vn 0.39662599563598633 -0.9136520028114319 0.08904299885034561
vn 0.39662599563598633 -0.9136520028114319 0.08904299885034561
vn -0.39621400833129883 0.9094849824905396 -0.125900998711586
vn -0.39621400833129883 0.9094849824905396 -0.125900998711586
vn 0.8983740210533142 -0.29134300351142883 -0.3286980092525482
vn 0.672648012638092 -0.32168900966644287 -0.6663789749145508
vn 0.7426360249519348 -0.012771000154316425 -0.6695740222930908
vn 0.9443640112876892 0.013063999824225903 -0.32864099740982056
vn 0.9626010060310364 -0.2709220051765442 5.6000000768108293e-05
vn 0.9998019933700562 0.019898999482393265 0.00014699999883305281
vn 0.9034199714660645 -0.272801011800766 0.33077600598335266
vn 0.9626010060310364 -0.2709220051765442 5.6000000768108293e-05
vn 0.9998019933700562 0.019898999482393265 0.00014699999883305281
vn 0.9439619779586792 0.007953000254929066 0.3299579918384552
vn 0.6770880222320557 -0.2845270037651062 0.6786720156669617
vn 0.7390149831771851 -0.023730000481009483 0.6732710003852844
vn 0.33465099334716797 -0.2954849898815155 0.8948169946670532
vn 0.3976239860057831 -0.07132499665021896 0.9147719740867615
vn -0.0077760000713169575 -0.30400800704956055 0.9526379704475403
vn -0.017719000577926636 -0.11782299727201462 0.9928770065307617
vn -0.3365670144557953 -0.3125529885292053 0.8882759809494019
vn -0.41137799620628357 -0.1453849971294403 0.8997949957847595
vn -0.6532220244407654 -0.32070600986480713 0.6858929991722107
vn -0.7220199704170227 -0.1591469943523407 0.6733199954032898
vn -0.885312020778656 -0.3233720064163208 0.3341450095176697
vn -0.9276700019836426 -0.16868099570274353 0.33313098549842834
vn -0.9473639726638794 -0.3201580047607422 9.999999747378752e-06
vn -0.9856629967689514 -0.16872799396514893 0.00035099999513477087
vn -0.8804770112037659 -0.3414359986782074 -0.3289099931716919
vn -0.9473639726638794 -0.3201580047607422 9.999999747378752e-06
vn -0.9856629967689514 -0.16872799396514893 0.00035099999513477087
vn -0.9288269877433777 -0.1647689938545227 -0.3318609893321991
vn -0.648190975189209 -0.35866400599479675 -0.6717209815979004
vn -0.7250379920005798 -0.15158900618553162 -0.6718189716339111
vn -0.33259400725364685 -0.36353299021720886 -0.870186984539032
vn -0.41652101278305054 -0.13287100195884705 -0.8993639945983887
vn -0.00405400013551116 -0.3588410019874573 -0.9333900213241577
vn -0.017090000212192535 -0.10042300075292587 -0.9947980046272278
vn 0.33675000071525574 -0.34576600790023804 -0.875810980796814
vn 0.40514498949050903 -0.054850999265909195 -0.9126049876213074
vn 0.7148849964141846 -0.2505269944667816 -0.6528210043907166
vn 0.46261799335479736 -0.27723199129104614 -0.8420969843864441
vn 0.3424929976463318 0.2834489941596985 -0.8957430124282837
vn 0.6884729862213135 0.21211500465869904 -0.6935499906539917
vn 0.8895580172538757 -0.28510698676109314 -0.35693201422691345
vn 0.9578729867935181 0.14340999722480774 -0.24882200360298157
vn 0.9471250176429749 -0.3208639919757843 -0.00025599999935366213
vn 0.9705460071563721 -0.2409130036830902 0.0013510000426322222
vn 0.8751599788665771 -0.3320600092411041 0.3518970012664795
vn 0.9471250176429749 -0.3208639919757843 -0.00025599999935366213
vn 0.9705460071563721 -0.2409130036830902 0.0013510000426322222
vn 0.9585000276565552 0.12072599679231644 0.2582699954509735
vn 0.6893389821052551 -0.33769699931144714 0.6409149765968323
vn 0.7011409997940063 0.12248100340366364 0.7024250030517578
vn 0.439875990152359 -0.38538599014282227 0.8111640214920044
vn 0.3654550015926361 0.16114799678325653 0.9167739748954773
vn 0.07010500133037567 -0.47305700182914734 0.8782380223274231
vn -0.1515740007162094 0.002435999922454357 0.9884430170059204
vn -0.35495901107788086 -0.5268920063972473 0.7722619771957397
vn -0.5949580073356628 -0.11153700202703476 0.7959799766540527
vn -0.6314359903335571 -0.5220280289649963 0.573390007019043
vn -0.7991870045661926 -0.09590700268745422 0.5933820009231567
vn -0.7739650011062622 -0.5379679799079895 0.3340190052986145
vn -0.9488419890403748 0.004819000139832497 0.3157149851322174
vn -0.8362810015678406 -0.5483009815216064 -0.0004799999878741801
vn -0.9455639719963074 -0.32543501257896423 -0.0010779999429360032
vn -0.7953220009803772 -0.5005149841308594 -0.34197598695755005
vn -0.8362810015678406 -0.5483009815216064 -0.0004799999878741801
vn -0.9455639719963074 -0.32543501257896423 -0.0010779999429360032
vn -0.9485780000686646 0.03778399899601936 -0.3142800033092499
vn -0.662356972694397 -0.45336100459098816 -0.5964459776878357
vn -0.7883970141410828 0.013023000210523605 -0.615028977394104
vn -0.376895010471344 -0.4336540102958679 -0.8184710144996643
vn -0.5802010297775269 0.037613000720739365 -0.813605010509491
vn 0.07279299944639206 -0.36119699478149414 -0.929643988609314
vn -0.160304993391037 0.13701899349689484 -0.9775109887123108
vn 0.44665899872779846 0.8451610207557678 0.2935959994792938
vn 0.18402500450611115 0.8622170090675354 0.4719280004501343
vn 0.9585000276565552 0.12072599679231644 0.2582699954509735
vn 0.9705460071563721 -0.2409130036830902 0.0013510000426322222
vn 0.8435310125350952 0.5370450019836426 0.006155999843031168
vn -0.339697003364563 0.6401829719543457 0.689037024974823
vn -0.7416120171546936 0.48602500557899475 0.4623749852180481
vn -0.6495169997215271 0.7060980200767517 0.28205400705337524
vn -0.9488419890403748 0.004819000139832497 0.3157149851322174
vn -0.9455639719963074 -0.32543501257896423 -0.0010779999429360032
vn -0.8627129793167114 0.5056930184364319 0.000977999996393919
vn -0.9485780000686646 0.03778399899601936 -0.3142800033092499
vn 0.9578729867935181 0.14340999722480774 -0.24882200360298157
vn 0.37560901045799255 0.8915690183639526 -0.253028005361557
vn 0.1542229950428009 0.9051610231399536 -0.39610499143600464
vn -0.354636013507843 0.7261959910392761 -0.5889589786529541
vn -0.7059249877929688 0.5651969909667969 -0.4268749952316284
vn -0.5657950043678284 0.7814630270004272 -0.26304200291633606
vn 0.43521401286125183 0.9002529978752136 0.011579000391066074
vn 0.3147970139980316 0.9491410255432129 0.005919999908655882
vn -0.8661230206489563 0.49862799048423767 -0.034651998430490494
vn -0.6063100099563599 0.7952119708061218 -0.005127000156790018
vn -0.8627129793167114 0.5056930184364319 0.000977999996393919
vn 0.43521401286125183 0.9002529978752136 0.011579000391066074
vn 0.8435310125350952 0.5370450019836426 0.006155999843031168
vn 0.3147970139980316 0.9491410255432129 0.005919999908655882
vn -0.6063100099563599 0.7952119708061218 -0.005127000156790018
vn -0.8661230206489563 0.49862799048423767 -0.034651998430490494
vn 0.27018699049949646 0.803272008895874 0.5308049917221069
vn -0.31307798624038696 0.5234569907188416 0.7924489974975586
vn 0.42139899730682373 0.9068719744682312 -0.002428000094369054
vn -0.865103006362915 0.06799300014972687 0.4969649910926819
vn -0.9978770017623901 -0.04526299983263016 -0.046817999333143234
vn 0.3274340033531189 0.8193389773368835 -0.4706059992313385
vn 0.42139899730682373 0.9068719744682312 -0.002428000094369054
vn -0.33539798855781555 0.5710949897766113 -0.7492390275001526
vn -0.8743759989738464 0.055535998195409775 -0.4820609986782074
vn -0.9978770017623901 -0.04526299983263016 -0.046817999333143234
vn 0.006372000090777874 -0.9999780058860779 0.0018729999428614974
vn 0.006372000090777874 -0.9999780058860779 0.0018729999428614974
vn -0.9455639719963074 -0.32543501257896423 -0.0010779999429360032
vn 0.9705460071563721 -0.2409130036830902 0.0013510000426322222

vt 0.8090109825134277 0.019230008125305176
vt 0.8069850206375122 0.011510014533996582
vt 0.8154709935188293 0.003585994243621826
vt 0.8167529702186584 0.015492022037506104
vt 0.7963529825210571 0.014294028282165527
vt 0.7953870296478271 0.02274799346923828
vt 0.7887359857559204 0.02026897668838501
vt 0.7869259715080261 0.008713006973266602
vt 0.79475998878479 0.034784018993377686
vt 0.7888460159301758 0.03950697183609009
vt 0.7980200052261353 0.04229700565338135
vt 0.7862930297851562 0.0504230260848999
vt 0.8079630136489868 0.039129018783569336
vt 0.8098710179328918 0.03152501583099365
vt 0.8180189728736877 0.035153985023498535
vt 0.8187299966812134 0.04679000377655029
vt 0.8232700228691101 0.0046250224113464355
vt 0.8237540125846863 0.01663297414779663
vt 0.7790849804878235 0.02046602964401245
vt 0.7788730263710022 0.010204017162322998
vt 0.7799999713897705 0.039727985858917236
vt 0.7787100076675415 0.050255000591278076
vt 0.82538902759552 0.03577697277069092
vt 0.8262090086936951 0.04773801565170288
vt 0.8330479860305786 0.012021005153656006
vt 0.8314560055732727 0.019936978816986084
vt 0.7723249793052673 0.025352001190185547
vt 0.7684959769248962 0.017906010150909424
vt 0.7724260091781616 0.03713798522949219
vt 0.7712759971618652 0.04543197154998779
vt 0.8320950269699097 0.032374024391174316
vt 0.8331900238990784 0.040270984172821045
vt 0.8047260046005249 0.024277985095977783
vt 0.8028640151023865 0.028101027011871338
vt 0.8374019861221313 0.026102006435394287
vt 0.7653740048408508 0.03084099292755127
vt 0.964667022228241 0.2585499882698059
vt 0.9671750068664551 0.2598639726638794
vt 0.9606639742851257 0.30254697799682617
vt 0.9558629989624023 0.301268994808197
vt 0.9617440104484558 0.2571899890899658
vt 0.9509450197219849 0.2999259829521179
vt 0.9640200138092041 0.2588449716567993
vt 0.9611520171165466 0.2572839856147766
vt 0.9508600234985352 0.29873597621917725
vt 0.955793023109436 0.30014801025390625
vt 0.966625988483429 0.2600399851799011
vt 0.9607999920845032 0.3020870089530945
vt 0.968891978263855 0.26071101427078247
vt 0.965192973613739 0.3036090135574341
vt 0.9710100293159485 0.261027991771698
vt 0.9687529802322388 0.3036760091781616
vt 0.9731249809265137 0.2613639831542969
vt 0.9724029898643494 0.303691029548645
vt 0.9754279851913452 0.26114702224731445
vt 0.9765920042991638 0.3034520149230957
vt 0.977944016456604 0.26059800386428833
vt 0.9810420274734497 0.3028249740600586
vt 0.9812210202217102 0.2596610188484192
vt 0.9860960245132446 0.3024370074272156
vt 0.9777380228042603 0.2614160180091858
vt 0.9807469844818115 0.2603049874305725
vt 0.9859060049057007 0.30286598205566406
vt 0.980862021446228 0.30361002683639526
vt 0.9753320217132568 0.2618910074234009
vt 0.9762250185012817 0.30471301078796387
vt 0.9731860160827637 0.2618299722671509
vt 0.971983015537262 0.30541402101516724
vt 0.9712179899215698 0.26136499643325806
vt 0.9683259725570679 0.305059015750885
vt 0.9692620038986206 0.2608019709587097
vt 0.964709997177124 0.3041530251502991
vt 0.9566159844398499 0.33660900592803955
vt 0.9622719883918762 0.33803898096084595
vt 0.9594100117683411 0.3562009930610657
vt 0.950219988822937 0.36066997051239014
vt 0.9504550099372864 0.3368920087814331
vt 0.9399830102920532 0.3592759966850281
vt 0.9443029761314392 0.33716100454330444
vt 0.9345639944076538 0.35237300395965576
vt 0.9513769745826721 0.33809202909469604
vt 0.9455350041389465 0.33661001920700073
vt 0.9361500144004822 0.35052502155303955
vt 0.941012978553772 0.3578150272369385
vt 0.9574170112609863 0.3394659757614136
vt 0.9500349760055542 0.36094897985458374
vt 0.9629589915275574 0.3402490019798279
vt 0.9603980183601379 0.35964399576187134
vt 0.9679099917411804 0.3403699994087219
vt 0.9661740064620972 0.35667097568511963
vt 0.9730839729309082 0.3407660126686096
vt 0.9724159836769104 0.35503900051116943
vt 0.979203999042511 0.34179097414016724
vt 0.9805349707603455 0.3567100167274475
vt 0.9853820204734802 0.3419659733772278
vt 0.9886509776115417 0.354498028755188
vt 0.9911980032920837 0.34068000316619873
vt 0.9957399964332581 0.3495609760284424
vt 0.986066997051239 0.33974897861480713
vt 0.9920169711112976 0.3394460082054138
vt 0.9968500137329102 0.34788697957992554
vt 0.9906870126724243 0.3508319854736328
vt 0.9794409871101379 0.33987998962402344
vt 0.9821730256080627 0.3524460196495056
vt 0.9736210107803345 0.33943599462509155
vt 0.973950982093811 0.35131198167800903
vt 0.967399001121521 0.3390049934387207
vt 0.9666950106620789 0.3533400297164917
vt 0.9477249979972839 0.37061500549316406
vt 0.9569290280342102 0.36949801445007324
vt 0.9400870203971863 0.36737602949142456
vt 0.9331780076026917 0.376151978969574
vt 0.939300000667572 0.3785030245780945
vt 0.9670519828796387 0.3629419803619385
vt 0.9787619709968567 0.3667050004005432
vt 0.9860129952430725 0.36513298749923706
vt 0.9893230199813843 0.35859501361846924
vt 0.9974939823150635 0.36072802543640137
vt 0.9941949844360352 0.3666059970855713
vt 0.9906209707260132 0.3555179834365845
vt 0.941868007183075 0.3683599829673767
vt 0.9492949843406677 0.3718230128288269
vt 0.9578610062599182 0.37354499101638794
vt 0.9682959914207458 0.36197102069854736
vt 0.9818540215492249 0.36785900592803955
vt 0.9865649938583374 0.3628069758415222
vt 0.9445580244064331 0.3804060220718384
vt 0.9496480226516724 0.38124001026153564
vt 0.9908080101013184 0.3718799948692322
vt 0.9927729964256287 0.369113028049469
vt 0.9945440292358398 0.36664700508117676
vt 0.9474970102310181 0.38204801082611084
vt 0.9424920082092285 0.3792949914932251
vt 0.9518129825592041 0.38521498441696167
vt 0.9924060106277466 0.36913299560546875
vt 0.9903470277786255 0.3717120289802551
vt 0.9677280187606812 0.38028401136398315
vt 0.9729350209236145 0.3766300082206726
vt 0.964218020439148 0.3887230157852173
vt 0.9802650213241577 0.3775150179862976
vt 0.9870020151138306 0.3798750042915344
vt 0.9696379899978638 0.383808970451355
vt 0.9664909839630127 0.3907189965248108
vt 0.974353015422821 0.37941598892211914
vt 0.9818199872970581 0.3793119788169861
vt 0.986814022064209 0.3805069923400879
vt 0.9724509716033936 0.2475699782371521
vt 0.9722139835357666 0.24865800142288208
vt 0.9982699751853943 0.36126798391342163
vt 0.9367210268974304 0.37612301111221313

usemtl Material

f 1/1/1 2/2/2 3/3/3
f 1/1/1 3/3/3 4/4/4
f 5/5/5 6/6/6 7/7/7
f 5/5/5 7/7/7 8/8/8
f 6/6/6 9/9/9 10/10/10
f 6/6/6 10/10/10 7/7/7
f 9/9/9 11/11/11 12/12/12
f 9/9/9 12/12/12 10/10/10
f 13/13/13 14/14/14 15/15/15
f 13/13/13 15/15/15 16/16/16
f 14/14/14 1/1/1 4/4/4
f 14/14/14 4/4/4 15/15/15
f 4/4/4 3/3/3 17/17/17
f 4/4/4 17/17/17 18/18/18
f 8/8/8 7/7/7 19/19/19
f 8/8/8 19/19/19 20/20/20
f 7/7/7 10/10/10 21/21/21
f 7/7/7 21/21/21 19/19/19
f 10/10/10 12/12/12 22/22/22
f 10/10/10 22/22/22 21/21/21
f 16/16/16 15/15/15 23/23/23
f 16/16/16 23/23/23 24/24/24
f 15/15/15 4/4/4 18/18/18
f 15/15/15 18/18/18 23/23/23
f 18/18/18 17/17/17 25/25/25
f 18/18/18 25/25/25 26/26/26
f 20/20/20 19/19/19 27/27/27
f 20/20/20 27/27/27 28/28/28
f 19/19/19 21/21/21 29/29/29
f 19/19/19 29/29/29 27/27/27
f 21/21/21 22/22/22 30/30/30
f 21/21/21 30/30/30 29/29/29
f 24/24/24 23/23/23 31/31/31
f 24/24/24 31/31/31 32/32/32
f 23/23/23 18/18/18 26/26/26
f 23/23/23 26/26/26 31/31/31
f 2/2/2 1/1/1 33/33/33
f 6/6/6 5/5/5 34/34/34
f 9/9/9 6/6/6 34/34/34
f 11/11/11 9/9/9 34/34/34
f 14/14/14 13/13/13 33/33/33
f 1/1/1 14/14/14 33/33/33
f 26/26/26 25/25/25 35/35/35
f 28/28/28 27/27/27 36/36/36
f 27/27/27 29/29/29 36/36/36
f 29/29/29 30/30/30 36/36/36
f 32/32/32 31/31/31 35/35/35
f 31/31/31 26/26/26 35/35/35
f 37/37/37 38/38/38 39/39/39
f 37/37/37 39/39/39 40/40/40
f 41/41/41 37/37/37 40/40/40
f 41/41/41 40/40/40 42/42/42
f 43/43/43 44/44/44 45/45/45
f 43/43/43 45/45/45 46/46/46
f 47/47/47 43/43/43 46/46/46
f 47/47/47 46/46/46 48/48/48
f 49/49/49 47/47/47 48/48/48
f 49/49/49 48/48/48 50/50/50
f 51/51/51 49/49/49 50/50/50
f 51/51/51 50/50/50 52/52/52
f 53/53/53 51/51/51 52/52/52
f 53/53/53 52/52/52 54/54/54
f 55/55/55 53/53/53 54/54/54
f 55/55/55 54/54/54 56/56/56
f 57/57/57 55/55/55 56/56/56
f 57/57/57 56/56/56 58/58/58
f 59/59/59 57/57/57 58/58/58
f 59/59/59 58/58/58 60/60/60
f 61/61/61 62/62/62 63/63/63
f 61/61/61 63/63/63 64/64/64
f 65/65/65 61/61/61 64/64/64
f 65/65/65 64/64/64 66/66/66
f 67/67/67 65/65/65 66/66/66
f 67/67/67 66/66/66 68/68/68
f 69/69/69 67/67/67 68/68/68
f 69/69/69 68/68/68 70/70/70
f 71/71/71 69/69/69 70/70/70
f 71/71/71 70/70/70 72/72/72
f 38/38/38 71/71/71 72/72/72
f 38/38/38 72/72/72 39/39/39
f 73/73/73 74/74/74 75/75/75
f 73/73/73 75/75/75 76/76/76
f 77/77/77 73/73/73 76/76/76
f 77/77/77 76/76/76 78/78/78
f 79/79/79 77/77/77 78/78/78
f 79/79/79 78/78/78 80/80/80
f 81/81/81 82/82/82 83/83/83
f 81/81/81 83/83/83 84/84/84
f 85/85/85 81/81/81 84/84/84
f 85/85/85 84/84/84 86/86/86
f 87/87/87 85/85/85 86/86/86
f 87/87/87 86/86/86 88/88/88
f 89/89/89 87/87/87 88/88/88
f 89/89/89 88/88/88 90/90/90
f 91/91/91 89/89/89 90/90/90
f 91/91/91 90/90/90 92/92/92
f 93/93/93 91/91/91 92/92/92
f 93/93/93 92/92/92 94/94/94
f 95/95/95 93/93/93 94/94/94
f 95/95/95 94/94/94 96/96/96
f 97/97/97 95/95/95 96/96/96
f 97/97/97 96/96/96 98/98/98
f 99/99/99 100/100/100 101/101/101
f 99/99/99 101/101/101 102/102/102
f 103/103/103 99/99/99 102/102/102
f 103/103/103 102/102/102 104/104/104
f 105/105/105 103/103/103 104/104/104
f 105/105/105 104/104/104 106/106/106
f 107/107/107 105/105/105 106/106/106
f 107/107/107 106/106/106 108/108/108
f 74/74/74 107/107/107 108/108/108
f 74/74/74 108/108/108 75/75/75
f 109/109/109 110/110/110 88/88/88
f 109/109/109 88/88/88 86/86/86
f 111/111/111 109/109/109 86/86/86
f 112/112/112 113/113/113 111/111/111
f 90/90/90 88/88/88 110/110/110
f 90/90/90 110/110/110 114/114/114
f 114/114/114 115/115/115 92/92/92
f 114/114/114 92/92/92 90/90/90
f 115/115/115 116/116/116 94/94/94
f 115/115/115 94/94/94 92/92/92
f 116/116/116 117/117/117 94/94/94
f 118/118/118 119/119/119 120/120/120
f 121/121/121 76/76/76 122/122/122
f 76/76/76 75/75/75 123/123/123
f 76/76/76 123/123/123 122/122/122
f 124/124/124 123/123/123 75/75/75
f 124/124/124 75/75/75 108/108/108
f 108/108/108 106/106/106 125/125/125
f 108/108/108 125/125/125 124/124/124
f 106/106/106 104/104/104 126/126/126
f 106/106/106 126/126/126 125/125/125
f 104/104/104 120/120/120 126/126/126
f 113/113/113 127/127/127 109/109/109
f 113/113/113 109/109/109 111/111/111
f 127/127/127 128/128/128 110/110/110
f 127/127/127 110/110/110 109/109/109
f 129/129/129 130/130/130 116/116/116
f 129/129/129 116/116/116 115/115/115
f 130/130/130 131/131/131 117/117/117
f 130/130/130 117/117/117 116/116/116
f 121/121/121 122/122/122 132/132/132
f 121/121/121 132/132/132 133/133/133
f 122/122/122 123/123/123 134/134/134
f 122/122/122 134/134/134 132/132/132
f 125/125/125 126/126/126 135/135/135
f 125/125/125 135/135/135 136/136/136
f 126/126/126 120/120/120 119/119/119
f 126/126/126 119/119/119 135/135/135
f 114/114/114 110/110/110 137/137/137
f 114/114/114 137/137/137 138/138/138
f 110/110/110 128/128/128 139/139/139
f 110/110/110 139/139/139 137/137/137
f 129/129/129 115/115/115 140/140/140
f 129/129/129 140/140/140 141/141/141
f 115/115/115 114/114/114 138/138/138
f 115/115/115 138/138/138 140/140/140
f 134/134/134 123/123/123 142/142/142
f 134/134/134 142/142/142 143/143/143
f 123/123/123 124/124/124 144/144/144
f 123/123/123 144/144/144 142/142/142
f 124/124/124 125/125/125 145/145/145
f 124/124/124 145/145/145 144/144/144
f 125/125/125 136/136/136 146/146/146
f 125/125/125 146/146/146 145/145/145
f 39/39/39 72/72/72 74/74/74
f 39/39/39 74/74/74 73/73/73
f 40/40/40 39/39/39 73/73/73
f 40/40/40 73/73/73 77/77/77
f 42/42/42 40/40/40 77/77/77
f 42/42/42 77/77/77 79/79/79
f 46/46/46 45/45/45 82/82/82
f 46/46/46 82/82/82 81/81/81
f 48/48/48 46/46/46 81/81/81
f 48/48/48 81/81/81 85/85/85
f 50/50/50 48/48/48 85/85/85
f 50/50/50 85/85/85 87/87/87
f 52/52/52 50/50/50 87/87/87
f 52/52/52 87/87/87 89/89/89
f 54/54/54 52/52/52 89/89/89
f 54/54/54 89/89/89 91/91/91
f 56/56/56 54/54/54 91/91/91
f 56/56/56 91/91/91 93/93/93
f 58/58/58 56/56/56 93/93/93
f 58/58/58 93/93/93 95/95/95
f 60/60/60 58/58/58 95/95/95
f 60/60/60 95/95/95 97/97/97
f 64/64/64 63/63/63 100/100/100
f 64/64/64 100/100/100 99/99/99
f 66/66/66 64/64/64 99/99/99
f 66/66/66 99/99/99 103/103/103
f 68/68/68 66/66/66 103/103/103
f 68/68/68 103/103/103 105/105/105
f 70/70/70 68/68/68 105/105/105
f 70/70/70 105/105/105 107/107/107
f 72/72/72 70/70/70 107/107/107
f 72/72/72 107/107/107 74/74/74
f 55/55/55 147/147/147 53/53/53
f 49/49/49 147/147/147 47/47/47
f 57/57/57 147/147/147 55/55/55
f 47/47/47 147/147/147 43/43/43
f 59/59/59 147/147/147 57/57/57
f 43/43/43 147/147/147 44/44/44
f 61/61/61 148/148/148 62/62/62
f 41/41/41 148/148/148 37/37/37
f 65/65/65 148/148/148 61/61/61
f 37/37/37 148/148/148 38/38/38
f 67/67/67 148/148/148 65/65/65
f 38/38/38 148/148/148 71/71/71
f 53/53/53 147/147/147 51/51/51
f 51/51/51 147/147/147 49/49/49
f 69/69/69 148/148/148 67/67/67
f 71/71/71 148/148/148 69/69/69
f 149/149/149 117/117/117 131/131/131
f 150/150/150 121/121/121 133/133/133