mtllib 64026462.mtl
o Mesh

v -0.6863229870796204 0.08006599545478821 -0.016116000711917877
v -0.7912319898605347 0.1772800087928772 0.007304000202566385
v -0.7217519879341125 0.22224000096321106 -0.11048299819231033
v -0.6089500188827515 0.12138199806213379 -0.09866300225257874
v -0.7148060202598572 0.08213400840759277 0.1268170028924942
v -0.8019529581069946 0.17590999603271484 0.12107700109481812
v -0.7912319898605347 0.1772800087928772 0.007304000202566385
v -0.6863229870796204 0.08006599545478821 -0.016116000711917877
v -0.6849449872970581 0.12840700149536133 0.2762239873409271
v -0.7584550380706787 0.22293999791145325 0.26226499676704407
v -0.704766035079956 0.27591001987457275 0.33129599690437317
v -0.6152999997138977 0.1865690052509308 0.36820000410079956
v -0.5208190083503723 0.4351600110530853 0.28554201126098633
v -0.6041309833526611 0.37438100576400757 0.35868000984191895
v -0.5117539763450623 0.2804179787635803 0.4098300039768219
v -0.3949759900569916 0.35611701011657715 0.3344619870185852
v -0.33623799681663513 0.39078399538993835 0.2392590045928955
v -0.47019100189208984 0.47016000747680664 0.1933089941740036
v -0.46053001284599304 0.46939998865127563 0.03378999978303909
v -0.31427299976348877 0.3878749907016754 0.06393399834632874
v -0.348675012588501 0.346343994140625 -0.039739999920129776
v -0.5191929936408997 0.4081699848175049 -0.09014099836349487
v -0.5197579860687256 0.18588000535964966 -0.1439090073108673
v -0.6311630010604858 0.3008999824523926 -0.15352299809455872
v -0.5737950205802917 0.35642099380493164 -0.1344670057296753
v -0.43556398153305054 0.26299500465393066 -0.1261969953775406
v -0.6041309833526611 0.37438100576400757 0.35868000984191895
v -0.5117539763450623 0.2804179787635803 0.4098300039768219
v -1.0825819969177246 0.2933570146560669 -0.2647460103034973
v -1.112246036529541 0.45021700859069824 -0.29231399297714233
v -0.9649580121040344 0.45209699869155884 -0.3068999946117401
v -0.9794579744338989 0.2834399938583374 -0.27537599205970764
v -0.9761999845504761 0.2034119963645935 -0.14294299483299255
v -1.0668320655822754 0.2100520133972168 -0.1379459947347641
v -0.9761999845504761 0.2034119963645935 -0.14294299483299255
v -0.9764040112495422 0.16993701457977295 0.06894099712371826
v -1.0601999759674072 0.1749730110168457 0.05741199851036072
v -1.0668320655822754 0.2100520133972168 -0.1379459947347641
v -0.978585958480835 0.24533900618553162 0.2533169984817505
v -1.0747079849243164 0.2515919804573059 0.22259199619293213
v -0.9789019823074341 0.3158400058746338 0.3473910093307495
v -1.0878599882125854 0.3212519884109497 0.3077479898929596
v -0.9352790117263794 0.6668739914894104 0.30808401107788086
v -1.153048038482666 0.6661069989204407 0.2751480042934418
v -1.1182730197906494 0.4814409911632538 0.3633509874343872
v -0.9646260142326355 0.48456498980522156 0.40535199642181396
v -0.917281985282898 0.7922669649124146 0.11207299679517746
v -1.1788049936294556 0.8022119998931885 0.08098399639129639
v -0.9370369911193848 0.6581299901008606 -0.25337299704551697
v -1.1509569883346558 0.6549409627914429 -0.252685010433197
v -1.176253080368042 0.7887610197067261 -0.1511020064353943
v -0.9148910045623779 0.7839890122413635 -0.13277199864387512
v -1.130445957183838 0.5561569929122925 -0.28166601061820984
v -0.9509209990501404 0.5586490035057068 -0.2899470031261444
v -0.9646260142326355 0.48456498980522156 0.40535199642181396
v -1.1182730197906494 0.4814409911632538 0.3633509874343872
v -1.0668320655822754 0.2100520133972168 -0.1379459947347641
v -1.096787929534912 0.4737490117549896 0.03612799942493439
v -1.0825819969177246 0.2933570146560669 -0.2647460103034973
v -1.0601999759674072 0.1749730110168457 0.05741199851036072
v -1.0747079849243164 0.2515919804573059 0.22259199619293213
v -1.0878599882125854 0.3212519884109497 0.3077479898929596
v -1.153048038482666 0.6661069989204407 0.2751480042934418
v -1.1182730197906494 0.4814409911632538 0.3633509874343872
v -1.176253080368042 0.7887610197067261 -0.1511020064353943
v -1.1788049936294556 0.8022119998931885 0.08098399639129639
v -1.1509569883346558 0.6549409627914429 -0.252685010433197
v -1.112246036529541 0.45021700859069824 -0.29231399297714233
v -1.130445957183838 0.5561569929122925 -0.28166601061820984
v -0.028003007173538208 -0.46362900733947754 -0.1950249969959259
v -0.1266700029373169 -0.2317500114440918 -0.22915400564670563
v -0.010230004787445068 -0.18891000747680664 -0.19567599892616272
v 0.08423298597335815 -0.44332700967788696 -0.17008399963378906
v 0.1777229905128479 -0.4239400029182434 -0.11695799976587296
v 0.08445000648498535 -0.15877997875213623 -0.1158519983291626
v 0.16863000392913818 -0.1331689953804016 0.08942099660634995
v 0.2594199776649475 -0.4339190125465393 0.07848399877548218
v 0.143559992313385 -0.15816998481750488 0.29435300827026367
v 0.2163349986076355 -0.47174501419067383 0.2617430090904236
v 0.08445000648498535 -0.1877790093421936 0.40206900238990784
v 0.16958099603652954 -0.4913979768753052 0.3327600061893463
v -0.10918998718261719 -0.2608090043067932 0.5114399790763855
v 0.011789023876190186 -0.5369019508361816 0.3863239884376526
v -0.10918998718261719 -0.2608090043067932 0.5114399790763855
v -0.302839994430542 -0.31300002336502075 0.4361259937286377
v -0.1832219958305359 -0.5744199752807617 0.3357740044593811
v 0.011789023876190186 -0.5369019508361816 0.3863239884376526
v -0.3825399875640869 -0.3483099937438965 0.31251099705696106
v -0.2579060196876526 -0.573693037033081 0.23743599653244019
v -0.42660000920295715 -0.3492400050163269 0.14289699494838715
v -0.27389001846313477 -0.5588979721069336 0.09085100144147873
v -0.38141000270843506 -0.3279600143432617 -0.0477450005710125
v -0.2584789991378784 -0.5395450592041016 -0.0297279991209507
v -0.38141000270843506 -0.3279600143432617 -0.0477450005710125
v -0.2554199993610382 -0.2807199954986572 -0.1908780038356781
v -0.15839499235153198 -0.49520301818847656 -0.16413800418376923
v -0.2584789991378784 -0.5395450592041016 -0.0297279991209507
v -0.5277109742164612 0.46286100149154663 -0.1407659947872162
v -0.7196409702301025 0.6098899841308594 -0.19925899803638458
v -0.68402498960495 0.7095000147819519 -0.07398500293493271
v -0.46807000041007996 0.5336300134658813 -0.014716999605298042
v -0.6897990107536316 0.7092199921607971 0.1446859985589981
v -0.4846610128879547 0.5374209880828857 0.17481300234794617
v -0.7211679816246033 0.6144499778747559 0.3045710027217865
v -0.5467010140419006 0.4825400114059448 0.3005479872226715
v -0.6484429836273193 0.3969709873199463 0.37649399042129517
v -0.7823889851570129 0.4702700078487396 0.3931640088558197
v -0.7528890371322632 0.28650999069213867 0.3303070068359375
v -0.6484429836273193 0.3969709873199463 0.37649399042129517
v -0.7823889851570129 0.4702700078487396 0.3931640088558197
v -0.8349779844284058 0.3149539828300476 0.34147998690605164
v -0.8477660417556763 0.2550089955329895 0.25342100858688354
v -0.7954050302505493 0.23754999041557312 0.24870499968528748
v -0.8288910388946533 0.188726007938385 0.08880600333213806
v -0.8607980012893677 0.19301998615264893 0.0791729986667633
v -0.8091480135917664 0.19916000962257385 -0.06647799909114838
v -0.8523319959640503 0.21958601474761963 -0.11317399889230728
v -0.7489420175552368 0.24070999026298523 -0.17659999430179596
v -0.8091480135917664 0.19916000962257385 -0.06647799909114838
v -0.8523319959640503 0.21958601474761963 -0.11317399889230728
v -0.8413560390472412 0.28286099433898926 -0.22751499712467194
v -0.7821190357208252 0.4331499934196472 -0.2603429853916168
v -0.6455259919166565 0.34053999185562134 -0.208173006772995
v -0.7487649917602539 0.5242000222206116 -0.24062100052833557
v -0.5835679769515991 0.4034000039100647 -0.18581600487232208
v -0.3209480047225952 0.04948100447654724 0.41714000701904297
v -0.19728899002075195 0.11679598689079285 0.3361159861087799
v -0.2780129909515381 0.24812600016593933 0.36577099561691284
v -0.406919002532959 0.1659420132637024 0.45235198736190796
v -0.22265300154685974 0.2874689996242523 0.2637229859828949
v -0.14250901341438293 0.150068998336792 0.2511439919471741
v -0.141882985830307 0.1637040078639984 0.09396900236606598
v -0.21297800540924072 0.2962830066680908 0.07700499892234802
v -0.18811899423599243 0.1507979929447174 -0.007296000141650438
v -0.2628589868545532 0.26722100377082825 -0.02945300005376339
v -0.37155401706695557 0.0214880108833313 -0.1168999969959259
v -0.4584850072860718 0.11303800344467163 -0.1377909928560257
v -0.3624420166015625 0.18766999244689941 -0.11671499907970428
v -0.2825720012187958 0.08386299014091492 -0.09517200291156769
v -0.4535669982433319 -0.03127098083496094 -0.07619699835777283
v -0.5500410199165344 0.05147698521614075 -0.091498002409935
v -0.5212000012397766 -0.07507097721099854 0.005458000116050243
v -0.6323369741439819 0.0017000138759613037 -0.009487000294029713
v -0.5398359894752502 -0.09882402420043945 0.1413549929857254
v -0.6513060331344604 -0.007721006870269775 0.15272200107574463
v -0.6323369741439819 0.0017000138759613037 -0.009487000294029713
v -0.5212000012397766 -0.07507097721099854 0.005458000116050243
v -0.4981110095977783 -0.06764602661132812 0.2856529951095581
v -0.6070330142974854 0.025142014026641846 0.3125019967556
v -0.5184980034828186 0.07729798555374146 0.4125309884548187
v -0.41841599345207214 -0.027185022830963135 0.37877601385116577
v -0.3209480047225952 0.04948100447654724 0.41714000701904297
v -0.406919002532959 0.1659420132637024 0.45235198736190796
v -0.3147500157356262 -0.1817299723625183 -0.13549000024795532
v -0.36363399028778076 -0.090503990650177 -0.04649899899959564
v -0.28140899538993835 -0.04004102945327759 -0.07417000085115433
v -0.19870999455451965 -0.12955999374389648 -0.1713380068540573
v -0.42768001556396484 -0.22901999950408936 -0.005080000031739473
v -0.44262099266052246 -0.1319270133972168 0.04827899858355522
v -0.4652099907398224 -0.24660897254943848 0.17205899953842163
v -0.46845799684524536 -0.15806502103805542 0.18273499608039856
v -0.44262099266052246 -0.1319270133972168 0.04827899858355522
v -0.42768001556396484 -0.22901999950408936 -0.005080000031739473
v -0.4269099831581116 -0.23965001106262207 0.3341909945011139
v -0.43189001083374023 -0.12944799661636353 0.318107008934021
v -0.3504999876022339 -0.2038390040397644 0.44460201263427734
v -0.35769200325012207 -0.09444797039031982 0.3982580006122589
v -0.24778801202774048 -0.03115999698638916 0.4333910048007965
v -0.16152998805046082 -0.13864898681640625 0.5078060030937195
v -0.14378198981285095 0.031029999256134033 0.3549480140209198
v -0.24778801202774048 -0.03115999698638916 0.4333910048007965
v -0.16152998805046082 -0.13864898681640625 0.5078060030937195
v -0.007259994745254517 -0.0719190239906311 0.4084460139274597
v -0.09594699740409851 0.061141014099121094 0.2666029930114746
v 0.05312997102737427 -0.04134899377822876 0.2900109887123108
v 0.06515002250671387 -0.021300017833709717 0.10249199718236923
v -0.08788201212882996 0.07057499885559082 0.11313299834728241
v -0.0076499879360198975 -0.05002999305725098 -0.06746300309896469
v -0.1447019875049591 0.03941398859024048 0.002391000045463443
v -0.09667998552322388 -0.08710998296737671 -0.13387200236320496
v -0.21213999390602112 0.00021699070930480957 -0.035374000668525696
v -0.2749900221824646 -0.8231199979782104 -0.43163299560546875
v -0.18784001469612122 -0.8746600151062012 -0.4361079931259155
v -0.2637600004673004 -0.9960900545120239 -0.4834679961204529
v -0.3441700041294098 -0.968269944190979 -0.48487401008605957
v -0.3102099895477295 -1.1209399700164795 -0.478520005941391
v -0.3812199831008911 -1.122979998588562 -0.4840410053730011
v -0.3647499978542328 -1.2501389980316162 -0.4140489995479584
v -0.15081998705863953 -0.9563800096511841 -0.41548898816108704
v -0.2127000093460083 -1.02961003780365 -0.4242050051689148
v -0.26377999782562256 -1.1237499713897705 -0.42455700039863586
v -0.1433199942111969 -1.0259300470352173 -0.3031730055809021
v -0.22091999650001526 -1.049180030822754 -0.3418020009994507
v -0.2691099941730499 -1.129729986190796 -0.35376501083374023
v -0.1433199942111969 -1.0259300470352173 -0.3031730055809021
v -0.2426300048828125 -1.0243899822235107 -0.1949010044336319
v -0.28359001874923706 -1.0433599948883057 -0.284525990486145
v -0.22091999650001526 -1.049180030822754 -0.3418020009994507
v -0.2691099941730499 -1.129729986190796 -0.35376501083374023
v -0.3231000006198883 -1.1354000568389893 -0.30761000514030457
v -0.3647499978542328 -1.2501389980316162 -0.4140489995479584
v -0.3511800169944763 -0.97284996509552 -0.19042499363422394
v -0.36399999260902405 -1.0155400037765503 -0.2859320044517517
v -0.3940799832344055 -1.1374200582504272 -0.31313198804855347
v -0.3826500177383423 -0.8662999868392944 -0.25486698746681213
v -0.4150499999523163 -0.9820189476013184 -0.345194011926651
v -0.4405199885368347 -1.1346299648284912 -0.3670940101146698
v -0.34605997800827026 -0.8085000514984131 -0.36086198687553406
v -0.40681999921798706 -0.9624500274658203 -0.4275979995727539
v -0.43518999218940735 -1.1286499500274658 -0.4378870129585266
v -0.40681999921798706 -0.9624500274658203 -0.4275979995727539
v -0.34605997800827026 -0.8085000514984131 -0.36086198687553406
v -0.43518999218940735 -1.1286499500274658 -0.4378870129585266
v 0.39837998151779175 -1.4401090145111084 0.1079619973897934
v 0.3002399802207947 -1.4080489873886108 0.13750700652599335
v 0.282260000705719 -1.4817689657211304 0.13223999738693237
v 0.3635200262069702 -1.5223090648651123 0.09490299969911575
v 0.23457002639770508 -1.5609889030456543 0.10996299982070923
v 0.28356999158859253 -1.6178290843963623 0.0791110023856163
v 0.10522997379302979 -1.7336089611053467 0.003942000214010477
v 0.3002399802207947 -1.4080489873886108 0.13750700652599335
v 0.22197997570037842 -1.376109004020691 0.09814699739217758
v 0.20115000009536743 -1.4413789510726929 0.09443199634552002
v 0.282260000705719 -1.4817689657211304 0.13223999738693237
v 0.18563997745513916 -1.5043089389801025 0.07872100174427032
v 0.23457002639770508 -1.5609889030456543 0.10996299982070923
v 0.10522997379302979 -1.7336089611053467 0.003942000214010477
v 0.18564999103546143 -1.3630290031433105 0.0036140000447630882
v 0.16771000623703003 -1.4247989654541016 0.0036269999109208584
v 0.16540998220443726 -1.4810190200805664 0.0036849998869001865
v 0.22237002849578857 -1.3764790296554565 -0.09071499854326248
v 0.20148998498916626 -1.4417589902877808 -0.08698199689388275
v 0.1857600212097168 -1.5047190189361572 -0.07118900120258331
v 0.3106499910354614 -1.4085489511489868 -0.12958499789237976
v 0.2827399969100952 -1.4823089838027954 -0.12431800365447998
v 0.23475998640060425 -1.5615489482879639 -0.10204199701547623
v 0.39876997470855713 -1.440479040145874 -0.09022500365972519
v 0.36386001110076904 -1.5226991176605225 -0.08651000261306763
v 0.2827399969100952 -1.4823089838027954 -0.12431800365447998
v 0.3106499910354614 -1.4085489511489868 -0.12958499789237976
v 0.2836899757385254 -1.6182188987731934 -0.07079900056123734
v 0.23475998640060425 -1.5615489482879639 -0.10204199701547623
v 0.4351000189781189 -1.4535590410232544 0.013442999683320522
v 0.3973100185394287 -1.5392589569091797 0.009363999590277672
v 0.3039199709892273 -1.6415200233459473 0.004236999899148941
v 0.3009200096130371 -1.3438689708709717 -0.127593994140625
v 0.22506999969482422 -1.3240089416503906 -0.0947050005197525
v 0.1852099895477295 -1.3143490552902222 0.0035989999305456877
v 0.22461998462677002 -1.3236889839172363 0.10211499780416489
v 0.2800300121307373 -1.347769021987915 0.14451700448989868
v 0.4160100221633911 -1.369608998298645 0.11476100236177444
v 0.2800300121307373 -1.347769021987915 0.14451700448989868
v 0.45587998628616333 -1.3792790174484253 0.017388999462127686
v 0.41645997762680054 -1.3699289560317993 -0.09419400244951248
v 0.3009200096130371 -1.3438689708709717 -0.127593994140625
v 0.2542799711227417 -1.408979058265686 0.3533580005168915
v 0.18128997087478638 -1.3874590396881104 0.34660300612449646
v 0.16975998878479004 -1.4554489850997925 0.33000099658966064
v 0.2376999855041504 -1.4835790395736694 0.33595800399780273
v 0.1852099895477295 -1.5572590827941895 0.2913999855518341
v 0.13560998439788818 -1.5108990669250488 0.2910290062427521
v 0.09666001796722412 -1.6509490013122559 0.2041890025138855
v 0.13620001077651978 -1.369359016418457 0.2817229926586151
v 0.12796002626419067 -1.4313989877700806 0.27416500449180603
v 0.1100199818611145 -1.468338966369629 0.24473600089550018
v 0.14449000358581543 -1.366448998451233 0.2054930031299591
v 0.13679999113082886 -1.4255290031433105 0.20115600526332855
v 0.12344998121261597 -1.4544990062713623 0.17963799834251404
v 0.20194000005722046 -1.3795989751815796 0.1563670039176941
v 0.19108998775482178 -1.4412590265274048 0.1537420004606247
v 0.1679999828338623 -1.4774889945983887 0.133869007229805
v 0.2749199867248535 -1.4011189937591553 0.16312099993228912
v 0.25902998447418213 -1.4693989753723145 0.1596979945898056
v 0.2175999879837036 -1.5238490104675293 0.13424000144004822
v 0.3206599950790405 -1.4183989763259888 0.22179999947547913
v 0.300819993019104 -1.493438959121704 0.2155359983444214
v 0.25902998447418213 -1.4693989753723145 0.1596979945898056
v 0.2749199867248535 -1.4011189937591553 0.16312099993228912
v 0.2431899905204773 -1.566399097442627 0.1805330067873001
v 0.2175999879837036 -1.5238490104675293 0.13424000144004822
v 0.09666001796722412 -1.6509490013122559 0.2041890025138855
v 0.3123900294303894 -1.4213190078735352 0.2980310022830963
v 0.2919899821281433 -1.4993189573287964 0.28854501247406006
v 0.22978001832962036 -1.5802490711212158 0.24563099443912506
v 0.2542799711227417 -1.408979058265686 0.3533580005168915
v 0.2376999855041504 -1.4835790395736694 0.33595800399780273
v 0.1852099895477295 -1.5572590827941895 0.2913999855518341
v 0.2016800045967102 -1.3333189487457275 0.14988599717617035
v 0.14082998037338257 -1.32292902469635 0.2008419930934906
v 0.13314002752304077 -1.3226890563964844 0.2805140018463135
v 0.18225997686386108 -1.3355790376663208 0.3570910096168518
v 0.26061999797821045 -1.350039005279541 0.36469799280166626
v 0.3223099708557129 -1.3575890064239502 0.298880010843277
v 0.26061999797821045 -1.350039005279541 0.36469799280166626
v 0.32999998331069946 -1.357828974723816 0.2192090004682541
v 0.35579997301101685 -1.4393889904022217 -0.1965080052614212
v 0.28602999448776245 -1.4104390144348145 -0.14733299612998962
v 0.25498998165130615 -1.4758789539337158 -0.158952996134758
v 0.31401997804641724 -1.5096290111541748 -0.2028139978647232
v 0.24177002906799316 -1.5808789730072021 -0.19604599475860596
v 0.20560002326965332 -1.5301389694213867 -0.1580909937620163
v 0.07155001163482666 -1.6859889030456543 -0.24780699610710144
v 0.28602999448776245 -1.4104390144348145 -0.14733299612998962
v 0.20451998710632324 -1.3770289421081543 -0.16637200117111206
v 0.185479998588562 -1.4381890296936035 -0.1759839951992035
v 0.25498998165130615 -1.4758789539337158 -0.158952996134758
v 0.20560002326965332 -1.5301389694213867 -0.1580909937620163
v 0.15988999605178833 -1.4758390188217163 -0.17505000531673431
v 0.07155001163482666 -1.6859889030456543 -0.24780699610710144
v 0.1589900255203247 -1.3587490320205688 -0.24246899783611298
v 0.14616000652313232 -1.4186190366744995 -0.24393600225448608
v 0.13142997026443481 -1.449808955192566 -0.23699000477790833
v 0.17614001035690308 -1.3662890195846558 -0.33105000853538513
v 0.16009002923965454 -1.4286290407180786 -0.3229990005493164
v 0.13690000772476196 -1.467268943786621 -0.3076309859752655
v 0.24590998888015747 -1.3952289819717407 -0.3802250027656555
v 0.21911001205444336 -1.4623689651489258 -0.3668609857559204
v 0.16009002923965454 -1.4286290407180786 -0.3229990005493164
v 0.17614001035690308 -1.3662890195846558 -0.33105000853538513
v 0.17305999994277954 -1.518028974533081 -0.3455829918384552
v 0.13690000772476196 -1.467268943786621 -0.3076309859752655
v 0.3274199962615967 -1.4286500215530396 -0.36118701100349426
v 0.2886499762535095 -1.5000500679016113 -0.3498310148715973
v 0.21876001358032227 -1.5723199844360352 -0.3286229968070984
v 0.37292999029159546 -1.4469189643859863 -0.2850860059261322
v 0.3279600143432617 -1.5196499824523926 -0.2818799912929535
v 0.24722999334335327 -1.5983688831329346 -0.26668301224708557
v 0.25915998220443726 -1.3279589414596558 -0.38194000720977783
v 0.18269997835159302 -1.306859016418457 -0.3306480050086975
v 0.18269997835159302 -1.306859016418457 -0.3306480050086975
v 0.16328001022338867 -1.302778959274292 -0.23831699788570404
v 0.2122499942779541 -1.3181090354919434 -0.1590290069580078
v 0.3773599863052368 -1.3649590015411377 -0.19051699340343475
v 0.39680999517440796 -1.3690390586853027 -0.2828519940376282
v 0.34784001111984253 -1.3537100553512573 -0.36214300990104675
v 0.006228029727935791 -0.6310509443283081 0.38978201150894165
v -0.19996300339698792 -0.6854879856109619 0.333761990070343
v -0.21239998936653137 -0.9206600189208984 0.38915199041366577
v 0.05769002437591553 -0.9238400459289551 0.44382500648498535
v -0.2983990013599396 -0.6787660121917725 0.22329500317573547
v -0.37843000888824463 -0.8547699451446533 0.2526479959487915
v -0.28984200954437256 -0.6623879671096802 0.06577099859714508
v -0.3803800046443939 -0.7832499742507935 0.05545800179243088
v -0.28941601514816284 -0.6363539695739746 -0.08679600059986115
v -0.27395099401474 -0.6193200349807739 -0.23239299654960632
v -0.27395099401474 -0.6193200349807739 -0.23239299654960632
v -0.16797000169754028 -0.5824940204620361 -0.3005169928073883
v -0.030898988246917725 -0.5577540397644043 -0.2921240031719208
v 0.10070902109146118 -0.5402239561080933 -0.24265700578689575
v 0.16430997848510742 -0.8804700374603271 -0.39826101064682007
v 0.47996997833251953 -1.1416590213775635 -0.287665992975235
v 0.20739197731018066 -0.5279419422149658 -0.16516900062561035
v 0.23677802085876465 -0.5402059555053711 -0.06533200293779373
v 0.46741998195648193 -1.164720058441162 -0.11838000267744064
v 0.25092101097106934 -0.5604490041732788 0.24260100722312927
v 0.19327497482299805 -0.5854020118713379 0.3237079977989197
v 0.2652900218963623 -1.1326689720153809 0.39083901047706604
v 0.4121500253677368 -1.1557990312576294 0.3346270024776459
v -0.25620001554489136 -1.025378942489624 0.25919899344444275
v -0.3413900136947632 -0.9764699935913086 0.1955540031194687
v 0.0858299732208252 -1.2135790586471558 0.12841300666332245
v 0.07669001817703247 -0.9788000583648682 -0.3847559988498688
v 0.08160001039505005 -1.16559898853302 -0.32215699553489685
v 0.05886000394821167 -1.201928973197937 -0.2142139971256256
v 0.08513998985290527 -1.1837290525436401 0.3558860123157501
v 0.04716998338699341 -1.21212899684906 0.29570698738098145
v 0.22561001777648926 -1.1366089582443237 -0.3784089982509613
v 0.08160001039505005 -1.16559898853302 -0.32215699553489685
v -0.005010008811950684 -1.0490399599075317 -0.30793100595474243
v -0.25248000025749207 -1.0205589532852173 0.12713800370693207
v -0.3382800221443176 -0.931399941444397 0.11331100016832352
v -0.12479999661445618 -1.0814789533615112 0.2910830080509186
v -0.2407900094985962 -1.0007489919662476 0.04667000100016594
v -0.11432000994682312 -1.0197800397872925 0.04009699821472168
v -0.12292000651359558 -1.0365190505981445 0.13236600160598755
v -0.12286001443862915 -1.0563290119171143 -0.18431900441646576
v 0.4543200135231018 -1.1597789525985718 0.17346900701522827
v 0.2520120143890381 -0.5533649921417236 0.1251250058412552
v -0.028003007173538208 -0.46362900733947754 -0.1950249969959259
v 0.08423298597335815 -0.44332700967788696 -0.17008399963378906
v 0.1777229905128479 -0.4239400029182434 -0.11695799976587296
v 0.2594199776649475 -0.4339190125465393 0.07848399877548218
v 0.2163349986076355 -0.47174501419067383 0.2617430090904236
v 0.16958099603652954 -0.4913979768753052 0.3327600061893463
v -0.1832219958305359 -0.5744199752807617 0.3357740044593811
v 0.011789023876190186 -0.5369019508361816 0.3863239884376526
v -0.2579060196876526 -0.573693037033081 0.23743599653244019
v -0.27389001846313477 -0.5588979721069336 0.09085100144147873
v -0.2584789991378784 -0.5395450592041016 -0.0297279991209507
v -0.2584789991378784 -0.5395450592041016 -0.0297279991209507
v -0.15839499235153198 -0.49520301818847656 -0.16413800418376923
v 0.06616997718811035 -1.2353990077972412 0.007197000086307526
v 0.0900300145149231 -1.215338945388794 -0.09665200114250183
v 0.33942002058029175 -1.1405500173568726 -0.3592979907989502
v 0.011789023876190186 -0.5369019508361816 0.3863239884376526
v 0.006228029727935791 -0.6310509443283081 0.38978201150894165
v 0.05769002437591553 -0.9238400459289551 0.44382500648498535
v 0.29767900705337524 -0.5315159559249878 0.04073699936270714
v 0.5233099460601807 -1.1617989540100098 0.02258400060236454
v -0.33403000235557556 -0.919348955154419 0.00043799998820759356
v -0.24737998843193054 -1.0229990482330322 -0.028074000030755997
v -0.12338000535964966 -1.0465489625930786 -0.054072000086307526
v -0.005840003490447998 -1.109570026397705 -0.20008699595928192
v -0.005010008811950684 -1.0490399599075317 -0.30793100595474243
v 0.014050006866455078 -1.1143590211868286 -0.08149400353431702
v -0.001230001449584961 -1.123518943786621 0.018873000517487526
v 0.011520028114318848 -1.1096689701080322 0.12982000410556793
v -0.014050006866455078 -1.1247390508651733 0.2940619885921478
v -0.036139994859695435 -1.061898946762085 0.39282000064849854
v 0.2652900218963623 -1.1326689720153809 0.39083901047706604
v -0.3270699977874756 -0.8963390588760376 0.050560999661684036

vn -0.6667119860649109 -0.589555025100708 -0.4559830129146576
vn -0.546379029750824 -0.8037109971046448 -0.2356249988079071
vn -0.04935599863529205 -0.7781360149383545 -0.6261529922485352
vn -0.35193198919296265 -0.41074299812316895 -0.841090977191925
vn -0.7774839997291565 -0.621990978717804 0.0929810032248497
vn -0.6854810118675232 -0.6991540193557739 0.20322300493717194
vn -0.546379029750824 -0.8037109971046448 -0.2356249988079071
vn -0.6667119860649109 -0.589555025100708 -0.4559830129146576
vn -0.7281399965286255 -0.4360109865665436 0.528872013092041
vn -0.5646640062332153 -0.5872660279273987 0.57989102602005
vn -0.3031969964504242 -0.33204901218414307 0.8932049870491028
vn -0.5301049947738647 -0.12943799793720245 0.8379949927330017
vn 0.5154799818992615 0.4946649968624115 0.6997050046920776
vn 0.16622599959373474 0.17083099484443665 0.9711779952049255
vn -0.11764799803495407 0.3347199857234955 0.9349449872970581
vn 0.2933120131492615 0.6719970107078552 0.6799910068511963
vn 0.5139380097389221 0.802344024181366 0.3034999966621399
vn 0.7091929912567139 0.6248850226402283 0.32644200325012207
vn 0.8496840000152588 0.4817329943180084 -0.21440699696540833
vn 0.5984060168266296 0.7753570079803467 -0.20182399451732635
vn 0.5055909752845764 0.5694260001182556 -0.6481760144233704
vn 0.7300919890403748 0.13348400592803955 -0.6701850295066833
vn -0.04540900141000748 -0.11490999907255173 -0.9923380017280579
vn 0.3333989977836609 -0.42612698674201965 -0.8409879803657532
vn 0.5575420260429382 -0.13053399324417114 -0.8198220133781433
vn 0.29828399419784546 0.2447589933872223 -0.9225620031356812
vn 0.16622599959373474 0.17083099484443665 0.9711779952049255
vn -0.11764799803495407 0.3347199857234955 0.9349449872970581
vn -0.6504449844360352 -0.4693419933319092 -0.5971919894218445
vn -0.7127150297164917 -0.13802899420261383 -0.6877390146255493
vn 0.07763899862766266 -0.029154999181628227 -0.996554970741272
vn 0.06460200250148773 -0.5521730184555054 -0.8312230110168457
vn 0.052319999784231186 -0.9352880120277405 -0.34999799728393555
vn -0.6546310186386108 -0.719103991985321 -0.23312799632549286
vn 0.052319999784231186 -0.9352880120277405 -0.34999799728393555
vn 0.04255300015211105 -0.9907249808311462 0.1290459930896759
vn -0.6241670250892639 -0.7775840163230896 0.07601799815893173
vn -0.6546310186386108 -0.719103991985321 -0.23312799632549286
vn -0.06961700320243835 -0.8675299882888794 0.4924890100955963
vn -0.7146520018577576 -0.6347079873085022 0.293971985578537
vn -0.12456800043582916 -0.5807399749755859 0.8045030236244202
vn -0.7345640063285828 -0.4801659882068634 0.4794340133666992
vn 0.020030999556183815 0.6768659949302673 0.735834002494812
vn -0.7468129992485046 0.3787040114402771 0.5466750264167786
vn -0.7386450171470642 -0.02740900032222271 0.673537015914917
vn -0.097011998295784 0.09721200168132782 0.9905239939689636
vn 0.14068900048732758 0.9524750113487244 0.27017998695373535
vn -0.7239429950714111 0.6600109934806824 0.20072899758815765
vn 0.1526380032300949 0.49825799465179443 -0.8534870147705078
vn -0.7121080160140991 0.21884000301361084 -0.6670920252799988
vn -0.6930590271949768 0.6189020276069641 -0.3696340024471283
vn 0.2032019942998886 0.8903859853744507 -0.40733399987220764
vn -0.6339229941368103 0.046900998800992966 -0.7719730138778687
vn 0.10218200087547302 0.2343740016222 -0.9667609930038452
vn -0.097011998295784 0.09721200168132782 0.9905239939689636
vn -0.7386450171470642 -0.02740900032222271 0.673537015914917
vn -0.6546310186386108 -0.719103991985321 -0.23312799632549286
vn -0.9832149744033813 -0.18242299556732178 -0.0033209999091923237
vn -0.6504449844360352 -0.4693419933319092 -0.5971919894218445
vn -0.6241670250892639 -0.7775840163230896 0.07601799815893173
vn -0.7146520018577576 -0.6347079873085022 0.293971985578537
vn -0.7345640063285828 -0.4801659882068634 0.4794340133666992
vn -0.7468129992485046 0.3787040114402771 0.5466750264167786
vn -0.7386450171470642 -0.02740900032222271 0.673537015914917
vn -0.6930590271949768 0.6189020276069641 -0.3696340024471283
vn -0.7239429950714111 0.6600109934806824 0.20072899758815765
vn -0.7121080160140991 0.21884000301361084 -0.6670920252799988
vn -0.7127150297164917 -0.13802899420261383 -0.6877390146255493
vn -0.6339229941368103 0.046900998800992966 -0.7719730138778687
vn -0.016412999480962753 0.3325580060482025 -0.9429399967193604
vn -0.04164699837565422 0.15523900091648102 -0.986998975276947
vn 0.3367690145969391 0.34443199634552 -0.8763300180435181
vn 0.3305310010910034 0.34929001331329346 -0.8767820000648499
vn 0.7248870134353638 0.3363179862499237 -0.6011899709701538
vn 0.655119001865387 0.4623199999332428 -0.5975620150566101
vn 0.8558109998703003 0.5044249892234802 -0.11464700102806091
vn 0.9678170084953308 0.25116199254989624 -0.015768000856041908
vn 0.8450070023536682 0.40126699209213257 0.3534809947013855
vn 0.8966529965400696 0.17513799667358398 0.4066210091114044
vn 0.6526029706001282 0.2140980064868927 0.7268229722976685
vn 0.6148189902305603 0.04356500133872032 0.7874640226364136
vn 0.11880800127983093 -0.12771299481391907 0.9846699833869934
vn 0.136013001203537 -0.13404999673366547 0.9815959930419922
vn 0.11880800127983093 -0.12771299481391907 0.9846699833869934
vn -0.4806370139122009 -0.37971100211143494 0.790448009967804
vn -0.4988879859447479 -0.2314079999923706 0.8352010250091553
vn 0.136013001203537 -0.13404999673366547 0.9815959930419922
vn -0.7827969789505005 -0.4743629992008209 0.40275201201438904
vn -0.8970010280609131 -0.1781879961490631 0.40452200174331665
vn -0.8918859958648682 -0.45128101110458374 -0.029753999784588814
vn -0.9795089960098267 -0.18850800395011902 -0.07090699672698975
vn -0.8051130175590515 -0.3231610059738159 -0.4973520040512085
vn -0.9605290293693542 -0.030561000108718872 -0.2764979898929596
vn -0.8051130175590515 -0.3231610059738159 -0.4973520040512085
vn -0.49462899565696716 -0.08759599924087524 -0.8646789789199829
vn -0.5418469905853271 0.30681198835372925 -0.782476007938385
vn -0.9605290293693542 -0.030561000108718872 -0.2764979898929596
vn 0.7585920095443726 0.10056500136852264 -0.6437579989433289
vn 0.4390200078487396 0.4744110107421875 -0.763018012046814
vn 0.5118799805641174 0.79926997423172 -0.3148750066757202
vn 0.8848569989204407 0.3880690038204193 -0.2577419877052307
vn 0.4422680139541626 0.8521959781646729 0.2795740067958832
vn 0.7930619716644287 0.5380480289459229 0.2855829894542694
vn 0.31256601214408875 0.6333289742469788 0.7079529762268066
vn 0.5827710032463074 0.3905690014362335 0.7126250267028809
vn 0.2169799953699112 -0.02404800057411194 0.9758800268173218
vn 0.12844200432300568 0.10839100182056427 0.9857760071754456
vn -0.14412100613117218 -0.5654429793357849 0.8120980262756348
vn 0.2169799953699112 -0.02404800057411194 0.9758800268173218
vn 0.12844200432300568 0.10839100182056427 0.9857760071754456
vn -0.025286000221967697 -0.57635897397995 0.8168060183525085
vn -0.09150800108909607 -0.8759120106697083 0.4737130105495453
vn -0.3637149930000305 -0.7980660200119019 0.48041900992393494
vn -0.33716699481010437 -0.9348419904708862 0.11130800098180771
vn -0.0017849999712780118 -0.9932609796524048 0.11588600277900696
vn -0.10555099695920944 -0.9621490240097046 -0.25125300884246826
vn 0.03928299993276596 -0.9439740180969238 -0.3276750147342682
vn 0.19833999872207642 -0.786916971206665 -0.5843150019645691
vn -0.10555099695920944 -0.9621490240097046 -0.25125300884246826
vn 0.03928299993276596 -0.9439740180969238 -0.3276750147342682
vn 0.1767289936542511 -0.5946720242500305 -0.7843030095100403
vn 0.27087798714637756 -0.0710040032863617 -0.959991991519928
vn 0.44884300231933594 -0.3618929982185364 -0.8170520067214966
vn 0.35172900557518005 0.19943100214004517 -0.9146109819412231
vn 0.6061170101165771 -0.13785000145435333 -0.7833390235900879
vn 0.12131000310182571 0.030220000073313713 0.9921550154685974
vn 0.5873159766197205 0.3662460148334503 0.721750020980835
vn 0.5271409749984741 0.42543700337409973 0.7356119751930237
vn 0.08571500331163406 0.09372500330209732 0.9919019937515259
vn 0.7319769859313965 0.5935519933700562 0.334524005651474
vn 0.819998025894165 0.47204700112342834 0.3236910104751587
vn 0.8738740086555481 0.43821001052856445 -0.21051600575447083
vn 0.7808520197868347 0.5917590260505676 -0.2002280056476593
vn 0.7329170107841492 0.26094600558280945 -0.6282830238342285
vn 0.6203290224075317 0.4295240044593811 -0.6562780141830444
vn 0.08132100105285645 -0.29213500022888184 -0.9529129862785339
vn -0.020250000059604645 -0.17267799377441406 -0.9847699999809265
vn 0.359824001789093 0.16638599336147308 -0.9180639982223511
vn 0.475616991519928 0.02525000087916851 -0.879289984703064
vn -0.24781900644302368 -0.5858619809150696 -0.771589994430542
vn -0.3294999897480011 -0.45645400881767273 -0.8264859914779663
vn -0.41683700680732727 -0.7796120047569275 -0.46738800406455994
vn -0.6076629757881165 -0.6497750282287598 -0.4566589891910553
vn -0.6089969873428345 -0.7928150296211243 0.02383599989116192
vn -0.7327849864959717 -0.6692900061607361 0.12279299646615982
vn -0.6076629757881165 -0.6497750282287598 -0.4566589891910553
vn -0.41683700680732727 -0.7796120047569275 -0.46738800406455994
vn -0.6055949926376343 -0.6259779930114746 0.49132999777793884
vn -0.6309760212898254 -0.5527769923210144 0.5443410277366638
vn -0.38101598620414734 -0.323170006275177 0.8662490248680115
vn -0.40140300989151 -0.3649739921092987 0.840041995048523
vn 0.12131000310182571 0.030220000073313713 0.9921550154685974
vn 0.08571500331163406 0.09372500330209732 0.9919019937515259
vn -0.6134790182113647 0.2024810016155243 -0.7633119821548462
vn -0.5025920271873474 -0.19392099976539612 -0.842494010925293
vn 0.008923999965190887 0.1862660050392151 -0.9824590086936951
vn -0.19377900660037994 0.5043699741363525 -0.8414639830589294
vn -0.8932470083236694 -0.06513100117444992 -0.4448240101337433
vn -0.7687579989433289 -0.45156601071357727 -0.4528779983520508
vn -0.9780150055885315 -0.20753100514411926 0.020433999598026276
vn -0.9182000160217285 -0.3866490125656128 0.08609099686145782
vn -0.7687579989433289 -0.45156601071357727 -0.4528779983520508
vn -0.8932470083236694 -0.06513100117444992 -0.4448240101337433
vn -0.8767020106315613 -0.21032699942588806 0.4326159954071045
vn -0.8227570056915283 -0.19857600331306458 0.5325769782066345
vn -0.586372971534729 -0.03276799991726875 0.8093780279159546
vn -0.5476830005645752 0.0711750015616417 0.8336529731750488
vn -0.04603699967265129 0.3878290057182312 0.9205809831619263
vn 0.01144499983638525 0.2754009962081909 0.961260974407196
vn 0.4068619906902313 0.6160119771957397 0.6745319962501526
vn -0.04603699967265129 0.3878290057182312 0.9205809831619263
vn 0.01144499983638525 0.2754009962081909 0.961260974407196
vn 0.46573200821876526 0.5608729720115662 0.6844819784164429
vn 0.6466869711875916 0.6865440011024475 0.33234500885009766
vn 0.6471239924430847 0.6990020275115967 0.3043459951877594
vn 0.6355540156364441 0.7627189755439758 -0.11971200257539749
vn 0.6914240121841431 0.6977159976959229 -0.18741799890995026
vn 0.4095180034637451 0.7419480085372925 -0.5308560132980347
vn 0.44784799218177795 0.5702400207519531 -0.688664972782135
vn 0.1018650010228157 0.6684880256652832 -0.7367140054702759
vn 0.30001500248908997 0.40432998538017273 -0.8640069961547852
vn -0.19764600694179535 0.48705899715423584 -0.8507109880447388
vn 0.19701099395751953 0.2055409997701645 -0.9586139917373657
vn 0.3360010087490082 -0.04846400022506714 -0.9406139850616455
vn -0.3020020127296448 0.25925499200820923 -0.9173769950866699
vn 0.3861660063266754 -0.3335669934749603 -0.8600050210952759
vn -0.3222379982471466 -0.19401399791240692 -0.9265639781951904
vn -0.05598499998450279 -0.9904630184173584 -0.12589000165462494
vn 0.34271499514579773 -0.44929200410842896 -0.8250349760055542
vn 0.7522969841957092 -0.4973660111427307 -0.43206000328063965
vn 0.7932119965553284 -0.5101900100708008 -0.33244800567626953
vn 0.010804000310599804 -0.9593769907951355 -0.28192099928855896
vn 0.6186149716377258 -0.7749649882316589 0.12940099835395813
vn 0.7318779826164246 -0.5832890272140503 0.35231900215148926
vn 0.010804000310599804 -0.9593769907951355 -0.28192099928855896
vn -0.25005000829696655 -0.9649099707603455 0.08015099912881851
vn 0.07674899697303772 -0.7741730213165283 0.6283029913902283
vn 0.6186149716377258 -0.7749649882316589 0.12940099835395813
vn 0.7318779826164246 -0.5832890272140503 0.35231900215148926
vn 0.24755500257015228 -0.5061929821968079 0.8261269927024841
vn -0.05598499998450279 -0.9904630184173584 -0.12589000165462494
vn -0.7989090085029602 -0.5579739809036255 0.2245199978351593
vn -0.6354730129241943 -0.3398300111293793 0.6933180093765259
vn -0.4480069875717163 -0.3738659918308258 0.8121050000190735
vn -0.9871240258216858 0.1546030044555664 0.041032999753952026
vn -0.9587090015411377 0.13208000361919403 0.2518559992313385
vn -0.9283519983291626 -0.24296200275421143 0.2813040018081665
vn -0.7577530145645142 0.5129629969596863 -0.40333500504493713
vn -0.8425419926643372 0.3334679901599884 -0.4229919910430908
vn -0.8790799975395203 -0.16585299372673035 -0.4468899965286255
vn -0.8425419926643372 0.3334679901599884 -0.4229919910430908
vn -0.7577530145645142 0.5129629969596863 -0.40333500504493713
vn -0.8790799975395203 -0.16585299372673035 -0.4468899965286255
vn 0.623179018497467 -0.2852199971675873 0.7282149791717529
vn -0.06137600168585777 -0.0899529978632927 0.9940530061721802
vn -0.07460899651050568 -0.16126899421215057 0.9840859770774841
vn 0.5654060244560242 -0.452237993478775 0.6897810101509094
vn -0.22083500027656555 -0.2342039942741394 0.9467740058898926
vn 0.34894800186157227 -0.6298930048942566 0.693880021572113
vn -0.6303369998931885 -0.7763220071792603 0.0001140000022132881
vn -0.06137600168585777 -0.0899529978632927 0.9940530061721802
vn -0.7474880218505859 0.05395999923348427 0.6620799899101257
vn -0.7254769802093506 0.09151100367307663 0.6821359992027283
vn -0.07460899651050568 -0.16126899421215057 0.9840859770774841
vn -0.7713940143585205 0.07479900121688843 0.6319469809532166
vn -0.22083500027656555 -0.2342039942741394 0.9467740058898926
vn -0.6303369998931885 -0.7763220071792603 0.0001140000022132881
vn -0.9910470247268677 0.13348700106143951 -0.002498999936506152
vn -0.9854140281677246 0.1701589971780777 -0.002337000099942088
vn -0.9888790249824524 0.1487099975347519 -0.0017770000267773867
vn -0.6957460045814514 0.0777129977941513 -0.7140719890594482
vn -0.7161110043525696 0.09494999796152115 -0.6914989948272705
vn -0.7690399885177612 0.0741489976644516 -0.6348860263824463
vn 0.022088000550866127 -0.03788299858570099 -0.9990379810333252
vn -0.057920001447200775 -0.1473730057477951 -0.987384021282196
vn -0.21696899831295013 -0.236968994140625 -0.9469789862632751
vn 0.6832450032234192 -0.26226499676704407 -0.6814650297164917
vn 0.5918490290641785 -0.4284389913082123 -0.6827549934387207
vn -0.057920001447200775 -0.1473730057477951 -0.987384021282196
vn 0.022088000550866127 -0.03788299858570099 -0.9990379810333252
vn 0.35843798518180847 -0.6311569809913635 -0.6878690123558044
vn -0.21696899831295013 -0.236968994140625 -0.9469789862632751
vn 0.9391360282897949 -0.34307101368904114 0.018024999648332596
vn 0.838513970375061 -0.5446059703826904 0.017268000170588493
vn 0.5940279960632324 -0.8044419884681702 -0.0018570000538602471
vn 0.1081399992108345 -0.9580770134925842 -0.26531898975372314
vn -0.6538259983062744 -0.40641099214553833 -0.6382330060005188
vn -0.8507339954376221 -0.525505006313324 -0.009774000383913517
vn -0.7525320053100586 -0.49797600507736206 0.4309470057487488
vn 0.19401200115680695 -0.9594069719314575 0.20469099283218384
vn 0.6183109879493713 -0.26793399453163147 0.7388520240783691
vn 0.19401200115680695 -0.9594069719314575 0.20469099283218384
vn 0.9588519930839539 -0.2827729880809784 0.025346999987959862
vn 0.6682729721069336 -0.2099670022726059 -0.713670015335083
vn 0.1081399992108345 -0.9580770134925842 -0.26531898975372314
vn 0.2948879897594452 -0.23224300146102905 0.9268789887428284
vn -0.5097569823265076 -0.13389000296592712 0.849835991859436
vn -0.5048679709434509 -0.16776800155639648 0.8467360138893127
vn 0.2006399929523468 -0.4126949906349182 0.888496994972229
vn -0.01450899988412857 -0.5943700075149536 0.8040609955787659
vn -0.6719059944152832 -0.19426299631595612 0.7147060036659241
vn -0.5485150218009949 -0.8294129967689514 -0.10585799813270569
vn -0.9654539823532104 0.010181999765336514 0.2603749930858612
vn -0.9373660087585449 0.14230899512767792 0.3179509937763214
vn -0.9705520272254944 0.18993400037288666 0.14816999435424805
vn -0.8875669836997986 0.009727000258862972 -0.46057501435279846
vn -0.824616014957428 0.3803139925003052 -0.41877299547195435
vn -0.7747870087623596 0.38524800539016724 -0.5012879967689514
vn -0.3301970064640045 -0.04837099835276604 -0.9426720142364502
vn -0.1558379977941513 0.30365198850631714 -0.93995201587677
vn -0.2662850022315979 0.21329200267791748 -0.939998984336853
vn 0.4842279851436615 -0.18211199343204498 -0.8557800054550171
vn 0.5291110277175903 -0.05717800185084343 -0.8466240167617798
vn 0.2801690101623535 -0.22426100075244904 -0.9333879947662354
vn 0.9426079988479614 -0.19115400314331055 -0.2737720012664795
vn 0.8879259824752808 -0.3733839988708496 -0.2686469852924347
vn 0.5291110277175903 -0.05717800185084343 -0.8466240167617798
vn 0.4842279851436615 -0.18211199343204498 -0.8557800054550171
vn 0.6257410049438477 -0.6492159962654114 -0.4323970079421997
vn 0.2801690101623535 -0.22426100075244904 -0.9333879947662354
vn -0.5485150218009949 -0.8294129967689514 -0.10585799813270569
vn 0.8638150095939636 -0.2189200073480606 0.45375901460647583
vn 0.7498379945755005 -0.49084898829460144 0.44363299012184143
vn 0.5259900093078613 -0.7927410006523132 0.30805400013923645
vn 0.2948879897594452 -0.23224300146102905 0.9268789887428284
vn 0.2006399929523468 -0.4126949906349182 0.888496994972229
vn -0.01450899988412857 -0.5943700075149536 0.8040609955787659
vn -0.3347280025482178 -0.2831529974937439 -0.8987669944763184
vn -0.8195390105247498 -0.4185340106487274 -0.39138999581336975
vn -0.9059680104255676 -0.3621090054512024 0.21931299567222595
vn -0.46122100949287415 -0.20905199646949768 0.8623059988021851
vn 0.2741680145263672 -0.22555799782276154 0.9348559975624084
vn 0.8592910170555115 -0.3048369884490967 0.410724014043808
vn 0.2741680145263672 -0.22555799782276154 0.9348559975624084
vn 0.9003589749336243 -0.3662930130958557 -0.23491300642490387
vn 0.7468069791793823 -0.37047499418258667 0.5522940158843994
vn 0.1403370052576065 -0.25487199425697327 0.9567369818687439
vn 0.14675599336624146 -0.18220099806785583 0.9722480177879333
vn 0.6618800163269043 -0.5182120203971863 0.5416380167007446
vn 0.4493649899959564 -0.6622400283813477 0.5995910167694092
vn -0.033018000423908234 -0.22457900643348694 0.9738960266113281
vn -0.622596025466919 -0.7818629741668701 0.03262700140476227
vn 0.1403370052576065 -0.25487199425697327 0.9567369818687439
vn -0.5976870059967041 -0.0012209999840706587 0.8017280101776123
vn -0.524088978767395 0.19354400038719177 0.8293799757957458
vn 0.14675599336624146 -0.18220099806785583 0.9722480177879333
vn -0.033018000423908234 -0.22457900643348694 0.9738960266113281
vn -0.5800849795341492 0.20842799544334412 0.7874389886856079
vn -0.622596025466919 -0.7818629741668701 0.03262700140476227
vn -0.9758870005607605 0.1325729936361313 0.17340600490570068
vn -0.928068995475769 0.33235499262809753 0.16801400482654572
vn -0.9059470295906067 0.36500099301338196 0.21455800533294678
vn -0.8097879886627197 0.11599999666213989 -0.5751410126686096
vn -0.7927510142326355 0.20311099290847778 -0.5747100114822388
vn -0.8570889830589294 0.2256840020418167 -0.4631040096282959
vn -0.18906299769878387 -0.049254998564720154 -0.9807289838790894
vn -0.23118199408054352 -0.1183760017156601 -0.9656820297241211
vn -0.7927510142326355 0.20311099290847778 -0.5747100114822388
vn -0.8097879886627197 0.11599999666213989 -0.5751410126686096
vn -0.4066230058670044 -0.1537259966135025 -0.9005699753761292
vn -0.8570889830589294 0.2256840020418167 -0.4631040096282959
vn 0.5127230286598206 -0.2726610004901886 -0.8141080141067505
vn 0.4031209945678711 -0.4613339900970459 -0.7903569936752319
vn 0.20231600105762482 -0.5975220203399658 -0.7759090065956116
vn 0.8947510123252869 -0.40738099813461304 -0.18292200565338135
vn 0.7600160241127014 -0.6247959733009338 -0.1789039969444275
vn 0.5602089762687683 -0.816215991973877 -0.14126700162887573
vn -0.1473570019006729 -0.001617999980226159 -0.9890819787979126
vn -0.7656490206718445 -0.13545100390911102 -0.6288359761238098
vn -0.7656490206718445 -0.13545100390911102 -0.6288359761238098
vn -0.9075989723205566 -0.41512998938560486 0.06270100176334381
vn -0.6075220108032227 -0.5041710138320923 0.6137819886207581
vn 0.7800220251083374 -0.37831899523735046 0.4984390139579773
vn 0.9419410228729248 -0.25065499544143677 -0.2234250009059906
vn 0.5920969843864441 -0.0633080005645752 -0.8033760190010071
vn 0.002606000052765012 0.12455999851226807 0.9922090172767639
vn -0.5241039991378784 0.20107699930667877 0.8275769948959351
vn -0.4785430133342743 -0.18462300300598145 0.8584349751472473
vn 0.06331200152635574 -0.003398000029847026 0.9979879856109619
vn -0.8518049716949463 0.37881898880004883 0.3618359863758087
vn -0.9083139896392822 -0.017774999141693115 0.41791200637817383
vn -0.9129999876022339 0.4077180027961731 0.014001999981701374
vn -0.9858270287513733 0.16711199283599854 0.014789000153541565
vn -0.9192860126495361 0.3924280107021332 -0.030233999714255333
vn -0.7507299780845642 0.5807309746742249 -0.3148919939994812
vn -0.7507299780845642 0.5807309746742249 -0.3148919939994812
vn -0.2776130139827728 0.6590759754180908 -0.6989629864692688
vn 0.041749998927116394 0.5993599891662598 -0.7993900179862976
vn 0.3482249975204468 0.5240489840507507 -0.7772470116615295
vn 0.38064301013946533 0.22713300585746765 -0.8963940143585205
vn 0.8855540156364441 0.04439900070428848 -0.46240898966789246
vn 0.7016289830207825 0.45497700572013855 -0.5483719706535339
vn 0.8673710227012634 0.37227699160575867 -0.3302690088748932
vn 0.9808480143547058 -0.042413998395204544 -0.1901019960641861
vn 0.9022549986839294 0.2821129858493805 0.32611000537872314
vn 0.5948870182037354 0.14115799963474274 0.7913179993629456
vn 0.2058209925889969 -0.020270999521017075 0.978380024433136
vn 0.781715989112854 -0.04943700134754181 0.6216719746589661
vn -0.5126889944076538 -0.8009269833564758 0.3093009889125824
vn -0.7977020144462585 -0.6002709865570068 0.057847000658512115
vn -0.7551820278167725 -0.6542969942092896 -0.03993900120258331
vn -0.0815339982509613 -0.308351993560791 -0.9477720260620117
vn -0.6072210073471069 -0.4461910128593445 -0.6574169993400574
vn -0.7658920288085938 -0.6322929859161377 -0.11667799949645996
vn -0.4074940085411072 -0.4251619875431061 0.8081989884376526
vn -0.7740880250930786 -0.5764899849891663 0.2616240084171295
vn -0.07236599922180176 -0.10072699934244156 -0.9922789931297302
vn -0.6072210073471069 -0.4461910128593445 -0.6574169993400574
vn -0.39392000436782837 -0.7061430215835571 -0.5883780121803284
vn -0.38008299469947815 -0.9035760164260864 -0.19770300388336182
vn -0.8287969827651978 -0.4766339957714081 -0.2931149899959564
vn -0.4345409870147705 -0.8796719908714294 0.1932629942893982
vn -0.46202701330184937 -0.8868449926376343 0.0060350000858306885
vn -0.37991300225257874 -0.9218810200691223 0.07617200165987015
vn -0.3153750002384186 -0.9291009902954102 -0.19315800070762634
vn -0.31374800205230713 -0.9443579912185669 -0.09873999655246735
vn 0.9254239797592163 -0.06764700263738632 0.37284600734710693
vn 0.9268440008163452 0.23288199305534363 0.2944920063018799
vn -0.016412999480962753 0.3325580060482025 -0.9429399967193604
vn 0.3305310010910034 0.34929001331329346 -0.8767820000648499
vn 0.7248870134353638 0.3363179862499237 -0.6011899709701538
vn 0.9678170084953308 0.25116199254989624 -0.015768000856041908
vn 0.8966529965400696 0.17513799667358398 0.4066210091114044
vn 0.6148189902305603 0.04356500133872032 0.7874640226364136
vn -0.4988879859447479 -0.2314079999923706 0.8352010250091553
vn 0.136013001203537 -0.13404999673366547 0.9815959930419922
vn -0.8970010280609131 -0.1781879961490631 0.40452200174331665
vn -0.9795089960098267 -0.18850800395011902 -0.07090699672698975
vn -0.9605290293693542 -0.030561000108718872 -0.2764979898929596
vn -0.9605290293693542 -0.030561000108718872 -0.2764979898929596
vn -0.5418469905853271 0.30681198835372925 -0.782476007938385
vn -0.7136420011520386 -0.7002639770507812 -0.018616000190377235
vn -0.7014999985694885 -0.7097839713096619 -0.06406799703836441
vn 0.394802987575531 0.10326100140810013 -0.9129440188407898
vn 0.136013001203537 -0.13404999673366547 0.9815959930419922
vn 0.002606000052765012 0.12455999851226807 0.9922090172767639
vn 0.06331200152635574 -0.003398000029847026 0.9979879856109619
vn 0.9257339835166931 0.37671300768852234 -0.033208999782800674
vn 0.9995219707489014 0.021679000928997993 0.022061999887228012
vn -0.8263559937477112 -0.5073080062866211 0.24448899924755096
vn -0.42243701219558716 -0.8857870101928711 0.1921679973602295
vn -0.352539986371994 -0.927636981010437 0.12330900132656097
vn -0.6531869769096375 -0.7382199764251709 -0.1684579998254776
vn -0.39392000436782837 -0.7061430215835571 -0.5883780121803284
vn -0.6652690172195435 -0.7448490262031555 -0.05115300044417381
vn -0.7289199829101562 -0.6828349828720093 0.04911300167441368
vn -0.6925420165061951 -0.7206079959869385 -0.0333079993724823
vn -0.6106449961662292 -0.7808939814567566 0.1315920054912567
vn -0.31407099962234497 -0.5302370190620422 0.7875329852104187
vn 0.2058209925889969 -0.020270999521017075 0.978380024433136
vn -0.8578619956970215 -0.512848973274231 -0.03252600133419037

vt 0.9718919992446899 0.47582000494003296
vt 0.9809470176696777 0.4998739957809448
vt 0.9513260126113892 0.5041489899158478
vt 0.9480170011520386 0.4753050208091736
vt 0.8855199813842773 0.8471930027008057
vt 0.8861169815063477 0.8712150007486343
vt 0.8633630275726318 0.8702860027551651
vt 0.8553820252418518 0.8443990051746368
vt 0.9172419905662537 0.8477260023355484
vt 0.9185510277748108 0.8697029948234558
vt 0.940090000629425 0.8679780066013336
vt 0.9427909851074219 0.8428550064563751
vt 0.7930290102958679 0.5027709901332855
vt 0.7678110003471375 0.5076279938220978
vt 0.7582209706306458 0.4806240200996399
vt 0.7890750169754028 0.4738439917564392
vt 0.8133320212364197 0.47117602825164795
vt 0.8173940181732178 0.49961400032043457
vt 0.8544179797172546 0.4985089898109436
vt 0.8495090007781982 0.4687870144844055
vt 0.872825026512146 0.4694550037384033
vt 0.8892689943313599 0.4994639754295349
vt 0.92494797706604 0.4729120135307312
vt 0.9249929785728455 0.5034860074520111
vt 0.9079840183258057 0.501805990934372
vt 0.9023810029029846 0.4715999960899353
vt 0.9702469706535339 0.8651620000600815
vt 0.9734439849853516 0.8391309976577759
vt 0.9760329723358154 0.5875160098075867
vt 0.9494289755821228 0.607899010181427
vt 0.9422550201416016 0.5821740031242371
vt 0.9674540162086487 0.5642969906330109
vt 0.9892579913139343 0.5460770130157471
vt 0.998848021030426 0.5668030083179474
vt 0.8291770219802856 0.9032920002937317
vt 0.8698859810829163 0.9042109996080399
vt 0.8642460107803345 0.9279609993100166
vt 0.8247730135917664 0.9282789975404739
vt 0.9058979749679565 0.9075919985771179
vt 0.8992059826850891 0.9334539994597435
vt 0.9263650178909302 0.9129619970917702
vt 0.9197739958763123 0.9404230006039143
vt 0.7799999713897705 0.5908510088920593
vt 0.7792320251464844 0.6255469918251038
vt 0.7391729950904846 0.6066589951515198
vt 0.7426530122756958 0.5749639868736267
vt 0.8223839998245239 0.6053679883480072
vt 0.8256890177726746 0.641539990901947
vt 0.9033240079879761 0.598688006401062
vt 0.9103490114212036 0.6308540105819702
vt 0.8760629892349243 0.6423870027065277
vt 0.8712890148162842 0.6078029870986938
vt 0.9291059970855713 0.6207099854946136
vt 0.921949028968811 0.5913639962673187
vt 0.9587709903717041 0.9276620000600815
vt 0.9500929713249207 0.9587780013680458
vt 0.8621739745140076 0.9369969964027405
vt 0.8632550239562988 0.9660569988191128
vt 0.8761669993400574 0.936599001288414
vt 0.8456649780273438 0.9447360001504421
vt 0.8374549746513367 0.9593730010092258
vt 0.8348709940910339 0.9692049995064735
vt 0.8560109734535217 0.9937120000831783
vt 0.8394070267677307 0.9843489993363619
vt 0.8944969773292542 0.9803340006619692
vt 0.877888023853302 0.9937120000831783
vt 0.8948670029640198 0.9647479988634586
vt 0.8867319822311401 0.9470609985291958
vt 0.8916569948196411 0.9556710012257099
vt 0.9364129900932312 0.2979540228843689
vt 0.9245100021362305 0.34692102670669556
vt 0.9034540057182312 0.3397520184516907
vt 0.9129830002784729 0.2855849862098694
vt 0.889618992805481 0.277616024017334
vt 0.8819090127944946 0.33359599113464355
vt 0.8428459763526917 0.330361008644104
vt 0.8415970206260681 0.26806002855300903
vt 0.8055019974708557 0.33114802837371826
vt 0.7978780269622803 0.26837801933288574
vt 0.7818509936332703 0.33382999897003174
vt 0.7783269882202148 0.2714400291442871
vt 0.7390199899673462 0.3445640206336975
vt 0.7397080063819885 0.28289300203323364
vt 0.9692249894142151 0.7064490020275116
vt 0.9312809705734253 0.7229419946670532
vt 0.9092680215835571 0.6705819964408875
vt 0.9496449828147888 0.6490040123462677
vt 0.90351402759552 0.7303000092506409
vt 0.8847740292549133 0.6826649904251099
vt 0.8724510073661804 0.7388159930706024
vt 0.8538789749145508 0.6925129890441895
vt 0.8351479768753052 0.7429459989070892
vt 0.8272259831428528 0.6990709900856018
vt 0.9796739816665649 0.37149500846862793
vt 0.9471960067749023 0.3579009771347046
vt 0.9637669920921326 0.3126639723777771
vt 0.998848021030426 0.3306970000267029
vt 0.8892800211906433 0.5134029984474182
vt 0.8922010064125061 0.5613870024681091
vt 0.8617720007896423 0.5647479891777039
vt 0.8598440289497375 0.5115450024604797
vt 0.8216310143470764 0.5618920028209686
vt 0.8221319913864136 0.5112429857254028
vt 0.7871890068054199 0.5541580021381378
vt 0.7923799753189087 0.512919008731842
vt 0.7626169919967651 0.5168690085411072
vt 0.7548819780349731 0.5467129945755005
vt 0.9359380006790161 0.8758649975061417
vt 0.9690759778022766 0.8745689988136292
vt 0.9689239859580994 0.9023640006780624
vt 0.9339979887008667 0.8913849964737892
vt 0.9137449860572815 0.8860320001840591
vt 0.9148309826850891 0.8765420019626617
vt 0.8792089819908142 0.8771160021424294
vt 0.8765329718589783 0.8825649991631508
vt 0.8476579785346985 0.8743589967489243
vt 0.8371959924697876 0.8816170021891594
vt 0.9489060044288635 0.5185669958591461
vt 0.9718649983406067 0.51249098777771
vt 0.9727740287780762 0.526634007692337
vt 0.9555580019950867 0.5401259958744049
vt 0.9270200133323669 0.5501849949359894
vt 0.9228960275650024 0.5164879858493805
vt 0.9095050096511841 0.5566509962081909
vt 0.9062430262565613 0.5147919952869415
vt 0.7538459897041321 0.41812801361083984
vt 0.7896389961242676 0.4123470187187195
vt 0.7862619757652283 0.4410359859466553
vt 0.7516499757766724 0.4490630030632019
vt 0.8108999729156494 0.43827199935913086
vt 0.8141040205955505 0.4106299877166748
vt 0.8488119840621948 0.4126930236816406
vt 0.8486499786376953 0.4395570158958435
vt 0.8725529909133911 0.41783398389816284
vt 0.8721629977226257 0.4440230131149292
vt 0.9245449900627136 0.42570602893829346
vt 0.9257460236549377 0.4519540071487427
vt 0.9022319912910461 0.4484289884567261
vt 0.902899980545044 0.42188000679016113
vt 0.9451259970664978 0.4292370080947876
vt 0.9482420086860657 0.45604002475738525
vt 0.9687190055847168 0.4328160285949707
vt 0.9733359813690186 0.45840197801589966
vt 0.8826540112495422 0.7950470000505447
vt 0.8869450092315674 0.8230360001325607
vt 0.8544219732284546 0.8254839926958084
vt 0.8542129993438721 0.7991330027580261
vt 0.9135059714317322 0.7900020033121109
vt 0.9185540080070496 0.817890003323555
vt 0.9451410174369812 0.810930997133255
vt 0.9398620128631592 0.7835330069065094
vt 0.967395007610321 0.7801769971847534
vt 0.9754049777984619 0.8075360059738159
vt 0.9411810040473938 0.383650004863739
vt 0.9405040144920349 0.40865397453308105
vt 0.9175819754600525 0.4047759771347046
vt 0.9195299744606018 0.3767309784889221
vt 0.9729089736938477 0.3953089714050293
vt 0.9709280133247375 0.41396498680114746
vt 0.8819460272789001 0.7601770013570786
vt 0.8877589702606201 0.7753729969263077
vt 0.8590480089187622 0.7797639966011047
vt 0.8471900224685669 0.7623579949140549
vt 0.9113360047340393 0.753603994846344
vt 0.9185420274734497 0.771807000041008
vt 0.9371050000190735 0.7470850050449371
vt 0.9430519938468933 0.7652589976787567
vt 0.9708549976348877 0.7600190043449402
vt 0.975151002407074 0.7314769923686981
vt 0.7864180207252502 0.3944630026817322
vt 0.7547799944877625 0.39845699071884155
vt 0.7454910278320312 0.3700469732284546
vt 0.7815250158309937 0.3638460040092468
vt 0.8105760216712952 0.3931260108947754
vt 0.8078889846801758 0.36229997873306274
vt 0.8432049751281738 0.3641059994697571
vt 0.846265971660614 0.393779993057251
vt 0.877722978591919 0.367235004901886
vt 0.8772779703140259 0.39736002683639526
vt 0.8987749814987183 0.37170201539993286
vt 0.8971840143203735 0.40097200870513916
vt 0.6683949828147888 0.2246209979057312
vt 0.6764199733734131 0.2075989842414856
vt 0.6552929878234863 0.19563502073287964
vt 0.6467099785804749 0.20643097162246704
vt 0.6376889944076538 0.18473398685455322
vt 0.628512978553772 0.1906530261039734
vt 0.6160200238227844 0.17045199871063232
vt 0.6773020029067993 0.18884098529815674
vt 0.661342978477478 0.18243402242660522
vt 0.6442180275917053 0.1758520007133484
vt 0.674032986164093 0.16355401277542114
vt 0.6616520285606384 0.16784697771072388
vt 0.6453940272331238 0.16430097818374634
vt 0.05860099941492081 0.7038460075855255
vt 0.0636259987950325 0.7218360006809235
vt 0.04698599874973297 0.7245329916477203
vt 0.04687099903821945 0.7117969989776611
vt 0.03286200016736984 0.7123430073261261
vt 0.03067700006067753 0.7219800055027008
vt 0.006302000023424625 0.712568998336792
vt 0.05687699839472771 0.7399809956550598
vt 0.04110100120306015 0.7371909916400909
vt 0.024309000000357628 0.7281340062618256
vt 0.0457880012691021 0.7582660019397736
vt 0.029874999076128006 0.7470909953117371
vt 0.016123000532388687 0.7313219904899597
vt 0.030666999518871307 0.77292400598526
vt 0.01690099947154522 0.7551400065422058
vt 0.005545000080019236 0.7338880002498627
vt 0.6365219950675964 0.21685302257537842
vt 0.6586130261421204 0.23945599794387817
vt 0.6171010136604309 0.19486701488494873
vt 0.8557119965553284 0.07223498821258545
vt 0.8719599843025208 0.07089799642562866
vt 0.8685370087623596 0.057328999042510986
vt 0.8537319898605347 0.058349013328552246
vt 0.8648459911346436 0.03988999128341675
vt 0.8524100184440613 0.0395050048828125
vt 0.8443350195884705 0.004415988922119141
vt 0.15985499322414398 0.6419999897480011
vt 0.1471009999513626 0.6435970067977905
vt 0.14746500551700592 0.6336230039596558
vt 0.1617799997329712 0.6298930048942566
vt 0.14962400496006012 0.6214439868927002
vt 0.16159099340438843 0.6139920055866241
vt 0.15753300487995148 0.5801500082015991
vt 0.13040600717067719 0.6408089995384216
vt 0.13362200558185577 0.6322380006313324
vt 0.138373002409935 0.6227189898490906
vt 0.1163719967007637 0.6324569880962372
vt 0.12334299832582474 0.6242519915103912
vt 0.13118000328540802 0.6147159934043884
vt 0.107464998960495 0.6186339855194092
vt 0.11714799702167511 0.6099959909915924
vt 0.12886999547481537 0.6014209985733032
vt 0.8247129917144775 0.06817001104354858
vt 0.8278779983520508 0.054434001445770264
vt 0.8102700114250183 0.05046898126602173
vt 0.8055139780044556 0.06474298238754272
vt 0.8312619924545288 0.036312997341156006
vt 0.8180850148200989 0.03293299674987793
vt 0.8411830067634583 0.07080501317977905
vt 0.8412610292434692 0.057238996028900146
vt 0.8418279886245728 0.038034021854400635
vt 0.10379800200462341 0.6263209879398346
vt 0.11117599904537201 0.6380060017108917
vt 0.12807899713516235 0.6481710076332092
vt 0.1474439948797226 0.6524190008640289
vt 0.15725299715995789 0.6492890119552612
vt 0.8573049902915955 0.08441299200057983
vt 0.8788229823112488 0.07973498106002808
vt 0.8411849737167358 0.08314502239227295
vt 0.8210200071334839 0.08002501726150513
vt 0.7973840236663818 0.07449299097061157
vt 0.2072799950838089 0.6858539879322052
vt 0.1935269981622696 0.6820180118083954
vt 0.19754600524902344 0.6743339896202087
vt 0.21123099327087402 0.6769579946994781
vt 0.2127770036458969 0.6633810102939606
vt 0.20188899338245392 0.6647199988365173
vt 0.21713599562644958 0.6428819894790649
vt 0.18020099401474 0.6785309910774231
vt 0.18665200471878052 0.672232985496521
vt 0.1913519948720932 0.665028989315033
vt 0.16935600340366364 0.6717709898948669
vt 0.1785469949245453 0.6664229929447174
vt 0.1847119927406311 0.6612609922885895
vt 0.1670749932527542 0.6596249938011169
vt 0.1774359941482544 0.6562559902667999
vt 0.18427400290966034 0.6546440124511719
vt 0.1651819944381714 0.6483150124549866
vt 0.17605000734329224 0.646263986825943
vt 0.1876399964094162 0.6461269855499268
vt 0.8968750238418579 0.0824819803237915
vt 0.903685986995697 0.07159197330474854
vt 0.8930280208587646 0.0645819902420044
vt 0.886243999004364 0.07462000846862793
vt 0.9077919721603394 0.057823002338409424
vt 0.898015022277832 0.05248302221298218
vt 0.9257410168647766 0.03872102499008179
vt 0.9083099961280823 0.0893239974975586
vt 0.9132180213928223 0.0774570107460022
vt 0.9171959757804871 0.06152600049972534
vt 0.9206690192222595 0.09584999084472656
vt 0.9242140054702759 0.08227097988128662
vt 0.9279029965400696 0.06473797559738159
vt 0.15827900171279907 0.6620739996433258
vt 0.16377800703048706 0.6742199957370758
vt 0.17462299764156342 0.6830210089683533
vt 0.19026200473308563 0.6885299980640411
vt 0.2044229954481125 0.6925010085105896
vt 0.9029210209846497 0.09975099563598633
vt 0.9182360172271729 0.10637801885604858
vt 0.890438973903656 0.09123402833938599
vt 0.7728769779205322 0.07442998886108398
vt 0.7866010069847107 0.06546998023986816
vt 0.7763329744338989 0.0531730055809021
vt 0.7646549940109253 0.06282001733779907
vt 0.7556229829788208 0.04894101619720459
vt 0.7658389806747437 0.04131901264190674
vt 0.7258809804916382 0.03465002775192261
vt 0.0949689969420433 0.6186090111732483
vt 0.08852200210094452 0.6271600127220154
vt 0.08075899630784988 0.6161749958992004
vt 0.08841799944639206 0.6063680052757263
vt 0.07922700047492981 0.5973750054836273
vt 0.0765020027756691 0.6081640124320984
vt 0.046108998358249664 0.5774140059947968
vt 0.0785370022058487 0.6305769979953766
vt 0.07284200191497803 0.6197470128536224
vt 0.06983599811792374 0.6142399907112122
vt 0.06614299863576889 0.62984499335289
vt 0.05965700000524521 0.6219879984855652
vt 0.05806899815797806 0.6153599917888641
vt 0.7331770062446594 0.09364098310470581
vt 0.7308149933815002 0.0813949704170227
vt 0.7152680158615112 0.0853310227394104
vt 0.7164610028266907 0.09845501184463501
vt 0.726535975933075 0.07030600309371948
vt 0.7135120034217834 0.07592397928237915
vt 0.7470660209655762 0.08802199363708496
vt 0.7431690096855164 0.07658600807189941
vt 0.7368860244750977 0.06333601474761963
vt 0.7598879933357239 0.08135998249053955
vt 0.7539100050926208 0.07037699222564697
vt 0.7460830211639404 0.05628901720046997
vt 0.7345600128173828 0.10555201768875122
vt 0.7169349789619446 0.11062902212142944
vt 0.06956300139427185 0.638139009475708
vt 0.08433400094509125 0.6403540074825287
vt 0.09793499857187271 0.6362870037555695
vt 0.7812250256538391 0.08602899312973022
vt 0.7656049728393555 0.0935019850730896
vt 0.7500439882278442 0.0996519923210144
vt 0.17617499828338623 0.8006650060415268
vt 0.14161400496959686 0.7940530031919479
vt 0.14420300722122192 0.7551430016756058
vt 0.17944499850273132 0.7533500045537949
vt 0.11608000099658966 0.7945490032434464
vt 0.11488000303506851 0.7671909928321838
vt 0.09075400233268738 0.7954760044813156
vt 0.08781400322914124 0.7723249942064285
vt 0.06821899861097336 0.7968669980764389
vt 0.04490400105714798 0.8018849939107895
vt 0.6823959946632385 0.2672380208969116
vt 0.7021080255508423 0.25209397077560425
vt 0.7266970276832581 0.24498200416564941
vt 0.7543460130691528 0.24260002374649048
vt 0.7336130142211914 0.18192100524902344
vt 0.7782559990882874 0.13041400909423828
vt 0.7800260186195374 0.24105298519134521
vt 0.8010410070419312 0.23916101455688477
vt 0.808692991733551 0.12048101425170898
vt 0.8658360242843628 0.2374439835548401
vt 0.8858940005302429 0.23812997341156006
vt 0.9124739766120911 0.14596998691558838
vt 0.889165997505188 0.13544201850891113
vt 0.1270270049571991 0.7361679971218109
vt 0.11229699850082397 0.7462500035762787
vt 0.14207999408245087 0.677029013633728
vt 0.713030993938446 0.16946697235107422
vt 0.07014799863100052 0.6622309982776642
vt 0.08807499706745148 0.6624430119991302
vt 0.17230500280857086 0.7049799859523773
vt 0.16316400468349457 0.6966280043125153
vt 0.7333629727363586 0.13649702072143555
vt 0.7038760185241699 0.13745802640914917
vt 0.6942239999771118 0.15709400177001953
vt 0.10860799998044968 0.7307449877262115
vt 0.09969499707221985 0.7489019930362701
vt 0.14335699379444122 0.7218390107154846
vt 0.09646300226449966 0.7288880050182343
vt 0.10728900134563446 0.7090669870376587
vt 0.11994200199842453 0.7126590013504028
vt 0.07673999667167664 0.702565997838974
vt 0.8645420074462891 0.1251019835472107
vt 0.843720018863678 0.23626697063446045
vt 0.7382490038871765 0.26545798778533936
vt 0.7618499994277954 0.2612990140914917
vt 0.7839140295982361 0.2598959803581238
vt 0.8276669979095459 0.25570201873779297
vt 0.8668259978294373 0.2538130283355713
vt 0.884181022644043 0.25508201122283936
vt 0.14228999614715576 0.8106479942798615
vt 0.1770550012588501 0.8144430071115494
vt 0.12007500231266022 0.8107530027627945
vt 0.09511099755764008 0.8111650049686432
vt 0.07553499937057495 0.8134510070085526
vt 0.6918429732322693 0.3055739998817444
vt 0.7134079933166504 0.2781140208244324
vt 0.1220640018582344 0.6678659915924072
vt 0.10609900206327438 0.6628090143203735
vt 0.7531419992446899 0.1327800154685974
vt 0.9189519882202148 0.2567110061645508
vt 0.9255759716033936 0.24186497926712036
vt 0.9347699880599976 0.19238799810409546
vt 0.8246260285377502 0.2371399998664856
vt 0.8383489847183228 0.12189799547195435
vt 0.08282499760389328 0.7472789883613586
vt 0.08515200018882751 0.7266240119934082
vt 0.09341499954462051 0.706045001745224
vt 0.08406300097703934 0.6804440021514893
vt 0.06400100141763687 0.6836360096931458
vt 0.10132600367069244 0.6806739866733551
vt 0.11577700078487396 0.684906005859375
vt 0.13232600688934326 0.6924650073051453
vt 0.15436199307441711 0.7082749903202057
vt 0.1605439931154251 0.7260850071907043
vt 0.200873002409935 0.7215969860553741
vt 0.08995900303125381 0.7507340013980865

usemtl Material

f 1/1/1 2/2/2 3/3/3
f 3/3/3 4/4/4 1/1/1
f 5/5/5 6/6/6 7/7/7
f 7/7/7 8/8/8 5/5/5
f 6/6/6 5/5/5 9/9/9
f 9/9/9 10/10/10 6/6/6
f 11/11/11 10/10/10 9/9/9
f 9/9/9 12/12/12 11/11/11
f 13/13/13 14/14/14 15/15/15
f 15/15/15 16/16/16 13/13/13
f 17/17/17 18/18/18 13/13/13
f 13/13/13 16/16/16 17/17/17
f 19/19/19 20/20/20 21/21/21
f 21/21/21 22/22/22 19/19/19
f 23/23/23 24/24/24 25/25/25
f 25/25/25 26/26/26 23/23/23
f 27/27/27 11/11/11 12/12/12
f 12/12/12 28/28/28 27/27/27
f 24/24/24 23/23/23 4/4/4
f 4/4/4 3/3/3 24/24/24
f 29/29/29 30/30/30 31/31/31
f 31/31/31 32/32/32 29/29/29
f 32/32/32 33/33/33 34/34/34
f 34/34/34 29/29/29 32/32/32
f 35/35/35 36/36/36 37/37/37
f 37/37/37 38/38/38 35/35/35
f 36/36/36 39/39/39 40/40/40
f 40/40/40 37/37/37 36/36/36
f 39/39/39 41/41/41 42/42/42
f 42/42/42 40/40/40 39/39/39
f 43/43/43 44/44/44 45/45/45
f 45/45/45 46/46/46 43/43/43
f 47/47/47 48/48/48 44/44/44
f 44/44/44 43/43/43 47/47/47
f 49/49/49 50/50/50 51/51/51
f 51/51/51 52/52/52 49/49/49
f 30/30/30 53/53/53 54/54/54
f 54/54/54 31/31/31 30/30/30
f 41/41/41 55/55/55 56/56/56
f 56/56/56 42/42/42 41/41/41
f 52/52/52 51/51/51 48/48/48
f 48/48/48 47/47/47 52/52/52
f 20/20/20 19/19/19 18/18/18
f 18/18/18 17/17/17 20/20/20
f 57/57/57 58/58/58 59/59/59
f 60/60/60 58/58/58 57/57/57
f 61/61/61 58/58/58 60/60/60
f 62/62/62 58/58/58 61/61/61
f 63/63/63 58/58/58 64/64/64
f 65/65/65 58/58/58 66/66/66
f 67/67/67 58/58/58 65/65/65
f 68/68/68 58/58/58 67/67/67
f 67/67/67 69/69/69 68/68/68
f 64/64/64 58/58/58 62/62/62
f 59/59/59 58/58/58 68/68/68
f 66/66/66 58/58/58 63/63/63
f 70/70/70 71/71/71 72/72/72
f 72/72/72 73/73/73 70/70/70
f 74/74/74 75/75/75 76/76/76
f 76/76/76 77/77/77 74/74/74
f 77/77/77 76/76/76 78/78/78
f 78/78/78 79/79/79 77/77/77
f 78/78/78 80/80/80 81/81/81
f 81/81/81 79/79/79 78/78/78
f 80/80/80 82/82/82 83/83/83
f 83/83/83 81/81/81 80/80/80
f 84/84/84 85/85/85 86/86/86
f 86/86/86 87/87/87 84/84/84
f 86/86/86 85/85/85 88/88/88
f 88/88/88 89/89/89 86/86/86
f 89/89/89 88/88/88 90/90/90
f 90/90/90 91/91/91 89/89/89
f 91/91/91 90/90/90 92/92/92
f 92/92/92 93/93/93 91/91/91
f 94/94/94 95/95/95 96/96/96
f 96/96/96 97/97/97 94/94/94
f 96/96/96 95/95/95 71/71/71
f 71/71/71 70/70/70 96/96/96
f 98/98/98 99/99/99 100/100/100
f 100/100/100 101/101/101 98/98/98
f 101/101/101 100/100/100 102/102/102
f 102/102/102 103/103/103 101/101/101
f 103/103/103 102/102/102 104/104/104
f 104/104/104 105/105/105 103/103/103
f 106/106/106 105/105/105 104/104/104
f 104/104/104 107/107/107 106/106/106
f 108/108/108 109/109/109 110/110/110
f 110/110/110 111/111/111 108/108/108
f 108/108/108 111/111/111 112/112/112
f 112/112/112 113/113/113 108/108/108
f 114/114/114 113/113/113 112/112/112
f 112/112/112 115/115/115 114/114/114
f 116/116/116 114/114/114 115/115/115
f 115/115/115 117/117/117 116/116/116
f 118/118/118 119/119/119 120/120/120
f 120/120/120 121/121/121 118/118/118
f 121/121/121 122/122/122 123/123/123
f 123/123/123 118/118/118 121/121/121
f 123/123/123 122/122/122 124/124/124
f 124/124/124 125/125/125 123/123/123
f 126/126/126 127/127/127 128/128/128
f 128/128/128 129/129/129 126/126/126
f 130/130/130 128/128/128 127/127/127
f 127/127/127 131/131/131 130/130/130
f 132/132/132 133/133/133 130/130/130
f 130/130/130 131/131/131 132/132/132
f 133/133/133 132/132/132 134/134/134
f 134/134/134 135/135/135 133/133/133
f 136/136/136 137/137/137 138/138/138
f 138/138/138 139/139/139 136/136/136
f 137/137/137 136/136/136 140/140/140
f 140/140/140 141/141/141 137/137/137
f 141/141/141 140/140/140 142/142/142
f 142/142/142 143/143/143 141/141/141
f 144/144/144 145/145/145 146/146/146
f 146/146/146 147/147/147 144/144/144
f 148/148/148 149/149/149 145/145/145
f 145/145/145 144/144/144 148/148/148
f 150/150/150 149/149/149 148/148/148
f 148/148/148 151/151/151 150/150/150
f 152/152/152 153/153/153 150/150/150
f 150/150/150 151/151/151 152/152/152
f 75/75/75 74/74/74 73/73/73
f 73/73/73 72/72/72 75/75/75
f 135/135/135 134/134/134 139/139/139
f 139/139/139 138/138/138 135/135/135
f 22/22/22 21/21/21 26/26/26
f 26/26/26 25/25/25 22/22/22
f 125/125/125 124/124/124 99/99/99
f 99/99/99 98/98/98 125/125/125
f 53/53/53 50/50/50 49/49/49
f 49/49/49 54/54/54 53/53/53
f 154/154/154 155/155/155 156/156/156
f 156/156/156 157/157/157 154/154/154
f 158/158/158 159/159/159 155/155/155
f 155/155/155 154/154/154 158/158/158
f 160/160/160 161/161/161 162/162/162
f 162/162/162 163/163/163 160/160/160
f 164/164/164 165/165/165 161/161/161
f 161/161/161 160/160/160 164/164/164
f 166/166/166 167/167/167 165/165/165
f 165/165/165 164/164/164 166/166/166
f 168/168/168 167/167/167 166/166/166
f 166/166/166 169/169/169 168/168/168
f 170/170/170 171/171/171 172/172/172
f 172/172/172 173/173/173 170/170/170
f 174/174/174 170/170/170 173/173/173
f 173/173/173 175/175/175 174/174/174
f 176/176/176 177/177/177 174/174/174
f 174/174/174 175/175/175 176/176/176
f 178/178/178 179/179/179 177/177/177
f 177/177/177 176/176/176 178/178/178
f 179/179/179 178/178/178 180/180/180
f 180/180/180 181/181/181 179/179/179
f 157/157/157 156/156/156 181/181/181
f 181/181/181 180/180/180 157/157/157
f 156/156/156 136/136/136 139/139/139
f 139/139/139 181/181/181 156/156/156
f 134/134/134 179/179/179 181/181/181
f 181/181/181 139/139/139 134/134/134
f 132/132/132 177/177/177 179/179/179
f 179/179/179 134/134/134 132/132/132
f 177/177/177 132/132/132 131/131/131
f 131/131/131 174/174/174 177/177/177
f 174/174/174 131/131/131 127/127/127
f 127/127/127 170/170/170 174/174/174
f 171/171/171 170/170/170 127/127/127
f 127/127/127 126/126/126 171/171/171
f 152/152/152 151/151/151 167/167/167
f 167/167/167 168/168/168 152/152/152
f 151/151/151 148/148/148 165/165/165
f 165/165/165 167/167/167 151/151/151
f 148/148/148 144/144/144 161/161/161
f 161/161/161 165/165/165 148/148/148
f 144/144/144 147/147/147 162/162/162
f 162/162/162 161/161/161 144/144/144
f 140/140/140 155/155/155 159/159/159
f 159/159/159 142/142/142 140/140/140
f 136/136/136 156/156/156 155/155/155
f 155/155/155 140/140/140 136/136/136
f 137/137/137 23/23/23 26/26/26
f 26/26/26 138/138/138 137/137/137
f 21/21/21 135/135/135 138/138/138
f 138/138/138 26/26/26 21/21/21
f 20/20/20 133/133/133 135/135/135
f 135/135/135 21/21/21 20/20/20
f 133/133/133 20/20/20 17/17/17
f 17/17/17 130/130/130 133/133/133
f 17/17/17 16/16/16 128/128/128
f 128/128/128 130/130/130 17/17/17
f 16/16/16 15/15/15 129/129/129
f 129/129/129 128/128/128 16/16/16
f 28/28/28 12/12/12 150/150/150
f 150/150/150 153/153/153 28/28/28
f 12/12/12 9/9/9 149/149/149
f 149/149/149 150/150/150 12/12/12
f 145/145/145 149/149/149 9/9/9
f 9/9/9 5/5/5 145/145/145
f 5/5/5 8/8/8 146/146/146
f 146/146/146 145/145/145 5/5/5
f 143/143/143 1/1/1 4/4/4
f 4/4/4 141/141/141 143/143/143
f 23/23/23 137/137/137 141/141/141
f 141/141/141 4/4/4 23/23/23
f 99/99/99 49/49/49 52/52/52
f 52/52/52 100/100/100 99/99/99
f 100/100/100 52/52/52 47/47/47
f 47/47/47 102/102/102 100/100/100
f 102/102/102 47/47/47 43/43/43
f 43/43/43 104/104/104 102/102/102
f 107/107/107 104/104/104 43/43/43
f 43/43/43 46/46/46 107/107/107
f 111/111/111 110/110/110 55/55/55
f 55/55/55 41/41/41 111/111/111
f 112/112/112 111/111/111 41/41/41
f 41/41/41 39/39/39 112/112/112
f 115/115/115 112/112/112 39/39/39
f 39/39/39 36/36/36 115/115/115
f 117/117/117 115/115/115 36/36/36
f 36/36/36 35/35/35 117/117/117
f 121/121/121 120/120/120 33/33/33
f 33/33/33 32/32/32 121/121/121
f 121/121/121 32/32/32 31/31/31
f 31/31/31 122/122/122 121/121/121
f 122/122/122 31/31/31 54/54/54
f 54/54/54 124/124/124 122/122/122
f 49/49/49 99/99/99 124/124/124
f 124/124/124 54/54/54 49/49/49
f 178/178/178 176/176/176 76/76/76
f 76/76/76 75/75/75 178/178/178
f 176/176/176 175/175/175 78/78/78
f 78/78/78 76/76/76 176/176/176
f 175/175/175 173/173/173 80/80/80
f 80/80/80 78/78/78 175/175/175
f 173/173/173 172/172/172 82/82/82
f 82/82/82 80/80/80 173/173/173
f 169/169/169 166/166/166 85/85/85
f 85/85/85 84/84/84 169/169/169
f 85/85/85 166/166/166 164/164/164
f 164/164/164 88/88/88 85/85/85
f 88/88/88 164/164/164 160/160/160
f 160/160/160 90/90/90 88/88/88
f 90/90/90 160/160/160 163/163/163
f 163/163/163 92/92/92 90/90/90
f 94/94/94 158/158/158 154/154/154
f 154/154/154 95/95/95 94/94/94
f 95/95/95 154/154/154 157/157/157
f 157/157/157 71/71/71 95/95/95
f 71/71/71 157/157/157 180/180/180
f 180/180/180 72/72/72 71/71/71
f 178/178/178 75/75/75 72/72/72
f 72/72/72 180/180/180 178/178/178
f 22/22/22 98/98/98 101/101/101
f 101/101/101 19/19/19 22/22/22
f 19/19/19 101/101/101 103/103/103
f 103/103/103 18/18/18 19/19/19
f 18/18/18 103/103/103 105/105/105
f 105/105/105 13/13/13 18/18/18
f 14/14/14 13/13/13 105/105/105
f 105/105/105 106/106/106 14/14/14
f 11/11/11 27/27/27 109/109/109
f 109/109/109 108/108/108 11/11/11
f 10/10/10 11/11/11 108/108/108
f 108/108/108 113/113/113 10/10/10
f 6/6/6 10/10/10 113/113/113
f 113/113/113 114/114/114 6/6/6
f 7/7/7 6/6/6 114/114/114
f 114/114/114 116/116/116 7/7/7
f 3/3/3 2/2/2 119/119/119
f 119/119/119 118/118/118 3/3/3
f 118/118/118 123/123/123 24/24/24
f 24/24/24 3/3/3 118/118/118
f 25/25/25 24/24/24 123/123/123
f 123/123/123 125/125/125 25/25/25
f 22/22/22 25/25/25 125/125/125
f 125/125/125 98/98/98 22/22/22
f 182/182/182 183/183/183 184/184/184
f 184/184/184 185/185/185 182/182/182
f 185/185/185 184/184/184 186/186/186
f 186/186/186 187/187/187 185/185/185
f 186/186/186 188/188/188 187/187/187
f 184/184/184 183/183/183 189/189/189
f 189/189/189 190/190/190 184/184/184
f 184/184/184 190/190/190 191/191/191
f 191/191/191 186/186/186 184/184/184
f 191/191/191 188/188/188 186/186/186
f 189/189/189 192/192/192 193/193/193
f 193/193/193 190/190/190 189/189/189
f 191/191/191 190/190/190 193/193/193
f 193/193/193 194/194/194 191/191/191
f 194/194/194 188/188/188 191/191/191
f 195/195/195 196/196/196 197/197/197
f 197/197/197 198/198/198 195/195/195
f 199/199/199 198/198/198 197/197/197
f 197/197/197 200/200/200 199/199/199
f 200/200/200 201/201/201 199/199/199
f 197/197/197 196/196/196 202/202/202
f 202/202/202 203/203/203 197/197/197
f 200/200/200 197/197/197 203/203/203
f 203/203/203 204/204/204 200/200/200
f 204/204/204 201/201/201 200/200/200
f 205/205/205 206/206/206 203/203/203
f 203/203/203 202/202/202 205/205/205
f 206/206/206 207/207/207 204/204/204
f 204/204/204 203/203/203 206/206/206
f 207/207/207 201/201/201 204/204/204
f 206/206/206 205/205/205 208/208/208
f 208/208/208 209/209/209 206/206/206
f 206/206/206 209/209/209 210/210/210
f 210/210/210 207/207/207 206/206/206
f 210/210/210 201/201/201 207/207/207
f 211/211/211 212/212/212 182/182/182
f 182/182/182 185/185/185 211/211/211
f 211/211/211 185/185/185 187/187/187
f 187/187/187 213/213/213 211/211/211
f 188/188/188 213/213/213 187/187/187
f 214/214/214 215/215/215 216/216/216
f 216/216/216 217/217/217 214/214/214
f 217/217/217 216/216/216 218/218/218
f 218/218/218 219/219/219 217/217/217
f 218/218/218 220/220/220 219/219/219
f 221/221/221 222/222/222 223/223/223
f 223/223/223 224/224/224 221/221/221
f 224/224/224 223/223/223 225/225/225
f 225/225/225 226/226/226 224/224/224
f 225/225/225 227/227/227 226/226/226
f 222/222/222 228/228/228 229/229/229
f 229/229/229 223/223/223 222/222/222
f 223/223/223 229/229/229 230/230/230
f 230/230/230 225/225/225 223/223/223
f 230/230/230 227/227/227 225/225/225
f 231/231/231 232/232/232 229/229/229
f 229/229/229 228/228/228 231/231/231
f 230/230/230 229/229/229 232/232/232
f 232/232/232 233/233/233 230/230/230
f 233/233/233 227/227/227 230/230/230
f 234/234/234 235/235/235 232/232/232
f 232/232/232 231/231/231 234/234/234
f 233/233/233 232/232/232 235/235/235
f 235/235/235 236/236/236 233/233/233
f 236/236/236 227/227/227 233/233/233
f 237/237/237 238/238/238 239/239/239
f 239/239/239 240/240/240 237/237/237
f 238/238/238 241/241/241 242/242/242
f 242/242/242 239/239/239 238/238/238
f 241/241/241 220/220/220 242/242/242
f 243/243/243 244/244/244 238/238/238
f 238/238/238 237/237/237 243/243/243
f 241/241/241 238/238/238 244/244/244
f 244/244/244 245/245/245 241/241/241
f 245/245/245 220/220/220 241/241/241
f 243/243/243 214/214/214 217/217/217
f 217/217/217 244/244/244 243/243/243
f 244/244/244 217/217/217 219/219/219
f 219/219/219 245/245/245 244/244/244
f 220/220/220 245/245/245 219/219/219
f 246/246/246 234/234/234 231/231/231
f 231/231/231 247/247/247 246/246/246
f 247/247/247 231/231/231 228/228/228
f 228/228/228 248/248/248 247/247/247
f 249/249/249 248/248/248 228/228/228
f 228/228/228 222/222/222 249/249/249
f 250/250/250 249/249/249 222/222/222
f 222/222/222 221/221/221 250/250/250
f 251/251/251 252/252/252 215/215/215
f 215/215/215 214/214/214 251/251/251
f 253/253/253 251/251/251 214/214/214
f 214/214/214 243/243/243 253/253/253
f 253/253/253 243/243/243 237/237/237
f 237/237/237 254/254/254 253/253/253
f 254/254/254 237/237/237 240/240/240
f 240/240/240 255/255/255 254/254/254
f 256/256/256 257/257/257 258/258/258
f 258/258/258 259/259/259 256/256/256
f 260/260/260 259/259/259 258/258/258
f 258/258/258 261/261/261 260/260/260
f 261/261/261 262/262/262 260/260/260
f 257/257/257 263/263/263 264/264/264
f 264/264/264 258/258/258 257/257/257
f 261/261/261 258/258/258 264/264/264
f 264/264/264 265/265/265 261/261/261
f 265/265/265 262/262/262 261/261/261
f 266/266/266 267/267/267 264/264/264
f 264/264/264 263/263/263 266/266/266
f 265/265/265 264/264/264 267/267/267
f 267/267/267 268/268/268 265/265/265
f 268/268/268 262/262/262 265/265/265
f 269/269/269 270/270/270 267/267/267
f 267/267/267 266/266/266 269/269/269
f 268/268/268 267/267/267 270/270/270
f 270/270/270 271/271/271 268/268/268
f 271/271/271 262/262/262 268/268/268
f 272/272/272 273/273/273 270/270/270
f 270/270/270 269/269/269 272/272/272
f 270/270/270 273/273/273 274/274/274
f 274/274/274 271/271/271 270/270/270
f 274/274/274 262/262/262 271/271/271
f 275/275/275 276/276/276 277/277/277
f 277/277/277 278/278/278 275/275/275
f 277/277/277 276/276/276 279/279/279
f 279/279/279 280/280/280 277/277/277
f 279/279/279 281/281/281 280/280/280
f 275/275/275 282/282/282 283/283/283
f 283/283/283 276/276/276 275/275/275
f 276/276/276 283/283/283 284/284/284
f 284/284/284 279/279/279 276/276/276
f 284/284/284 281/281/281 279/279/279
f 282/282/282 285/285/285 286/286/286
f 286/286/286 283/283/283 282/282/282
f 283/283/283 286/286/286 287/287/287
f 287/287/287 284/284/284 283/283/283
f 281/281/281 284/284/284 287/287/287
f 250/250/250 272/272/272 269/269/269
f 269/269/269 288/288/288 250/250/250
f 288/288/288 269/269/269 266/266/266
f 266/266/266 289/289/289 288/288/288
f 290/290/290 289/289/289 266/266/266
f 266/266/266 263/263/263 290/290/290
f 291/291/291 290/290/290 263/263/263
f 263/263/263 257/257/257 291/291/291
f 292/292/292 291/291/291 257/257/257
f 257/257/257 256/256/256 292/292/292
f 293/293/293 294/294/294 285/285/285
f 285/285/285 282/282/282 293/293/293
f 293/293/293 282/282/282 275/275/275
f 275/275/275 295/295/295 293/293/293
f 295/295/295 275/275/275 278/278/278
f 278/278/278 252/252/252 295/295/295
f 296/296/296 297/297/297 298/298/298
f 298/298/298 299/299/299 296/296/296
f 300/300/300 299/299/299 298/298/298
f 298/298/298 301/301/301 300/300/300
f 301/301/301 302/302/302 300/300/300
f 303/303/303 304/304/304 305/305/305
f 305/305/305 306/306/306 303/303/303
f 307/307/307 306/306/306 305/305/305
f 305/305/305 308/308/308 307/307/307
f 308/308/308 309/309/309 307/307/307
f 304/304/304 310/310/310 311/311/311
f 311/311/311 305/305/305 304/304/304
f 305/305/305 311/311/311 312/312/312
f 312/312/312 308/308/308 305/305/305
f 312/312/312 309/309/309 308/308/308
f 313/313/313 314/314/314 311/311/311
f 311/311/311 310/310/310 313/313/313
f 311/311/311 314/314/314 315/315/315
f 315/315/315 312/312/312 311/311/311
f 315/315/315 309/309/309 312/312/312
f 316/316/316 317/317/317 318/318/318
f 318/318/318 319/319/319 316/316/316
f 318/318/318 317/317/317 320/320/320
f 320/320/320 321/321/321 318/318/318
f 320/320/320 302/302/302 321/321/321
f 322/322/322 323/323/323 317/317/317
f 317/317/317 316/316/316 322/322/322
f 317/317/317 323/323/323 324/324/324
f 324/324/324 320/320/320 317/317/317
f 324/324/324 302/302/302 320/320/320
f 325/325/325 326/326/326 323/323/323
f 323/323/323 322/322/322 325/325/325
f 324/324/324 323/323/323 326/326/326
f 326/326/326 327/327/327 324/324/324
f 327/327/327 302/302/302 324/324/324
f 325/325/325 296/296/296 299/299/299
f 299/299/299 326/326/326 325/325/325
f 327/327/327 326/326/326 299/299/299
f 299/299/299 300/300/300 327/327/327
f 300/300/300 302/302/302 327/327/327
f 328/328/328 316/316/316 319/319/319
f 319/319/319 329/329/329 328/328/328
f 330/330/330 313/313/313 310/310/310
f 310/310/310 331/331/331 330/330/330
f 332/332/332 331/331/331 310/310/310
f 310/310/310 304/304/304 332/332/332
f 246/246/246 332/332/332 304/304/304
f 304/304/304 303/303/303 246/246/246
f 333/333/333 255/255/255 297/297/297
f 297/297/297 296/296/296 333/333/333
f 334/334/334 333/333/333 296/296/296
f 296/296/296 325/325/325 334/334/334
f 334/334/334 325/325/325 322/322/322
f 322/322/322 335/335/335 334/334/334
f 335/335/335 322/322/322 316/316/316
f 316/316/316 328/328/328 335/335/335
f 336/336/336 337/337/337 338/338/338
f 338/338/338 339/339/339 336/336/336
f 337/337/337 340/340/340 341/341/341
f 341/341/341 338/338/338 337/337/337
f 340/340/340 342/342/342 343/343/343
f 343/343/343 341/341/341 340/340/340
f 205/205/205 344/344/344 345/345/345
f 345/345/345 208/208/208 205/205/205
f 346/346/346 347/347/347 182/182/182
f 182/182/182 212/212/212 346/346/346
f 348/348/348 349/349/349 350/350/350
f 350/350/350 183/183/183 348/348/348
f 351/351/351 352/352/352 353/353/353
f 353/353/353 354/354/354 351/351/351
f 355/355/355 356/356/356 357/357/357
f 357/357/357 358/358/358 355/355/355
f 359/359/359 338/338/338 341/341/341
f 341/341/341 360/360/360 359/359/359
f 288/288/288 361/361/361 250/250/250
f 362/362/362 189/189/189 183/183/183
f 183/183/183 350/350/350 362/362/362
f 294/294/294 293/293/293 358/358/358
f 358/358/358 357/357/357 294/294/294
f 363/363/363 330/330/330 331/331/331
f 331/331/331 364/364/364 363/363/363
f 290/290/290 291/291/291 365/365/365
f 365/365/365 366/366/366 290/290/290
f 362/362/362 367/367/367 368/368/368
f 368/368/368 369/369/369 362/362/362
f 370/370/370 359/359/359 360/360/360
f 360/360/360 371/371/371 370/370/370
f 341/341/341 343/343/343 371/371/371
f 371/371/371 360/360/360 341/341/341
f 372/372/372 338/338/338 359/359/359
f 373/373/373 374/374/374 375/375/375
f 375/375/375 370/370/370 373/373/373
f 195/195/195 376/376/376 196/196/196
f 347/347/347 348/348/348 183/183/183
f 183/183/183 182/182/182 347/347/347
f 377/377/377 378/378/378 355/355/355
f 355/355/355 358/358/358 377/377/377
f 295/295/295 377/377/377 358/358/358
f 358/358/358 293/293/293 295/295/295
f 249/249/249 250/250/250 361/361/361
f 379/379/379 380/380/380 349/349/349
f 349/349/349 348/348/348 379/379/379
f 381/381/381 382/382/382 353/353/353
f 353/353/353 352/352/352 381/381/381
f 378/378/378 382/382/382 383/383/383
f 383/383/383 355/355/355 378/378/378
f 383/383/383 384/384/384 356/356/356
f 356/356/356 355/355/355 383/383/383
f 385/385/385 337/337/337 336/336/336
f 336/336/336 386/386/386 385/385/385
f 337/337/337 385/385/385 387/387/387
f 387/387/387 340/340/340 337/337/337
f 388/388/388 342/342/342 340/340/340
f 340/340/340 387/387/387 388/388/388
f 344/344/344 389/389/389 345/345/345
f 346/346/346 390/390/390 391/391/391
f 391/391/391 347/347/347 346/346/346
f 348/348/348 347/347/347 391/391/391
f 391/391/391 379/379/379 348/348/348
f 333/333/333 334/334/334 351/351/351
f 351/351/351 354/354/354 333/333/333
f 248/248/248 392/392/392 393/393/393
f 393/393/393 247/247/247 248/248/248
f 394/394/394 351/351/351 334/334/334
f 334/334/334 335/335/335 394/394/394
f 352/352/352 349/349/349 380/380/380
f 380/380/380 381/381/381 352/352/352
f 356/356/356 384/384/384 395/395/395
f 395/395/395 396/396/396 356/356/356
f 397/397/397 357/357/357 356/356/356
f 356/356/356 396/396/396 397/397/397
f 353/353/353 382/382/382 398/398/398
f 354/354/354 353/353/353 398/398/398
f 398/398/398 399/399/399 354/354/354
f 367/367/367 328/328/328 329/329/329
f 329/329/329 368/368/368 367/367/367
f 354/354/354 399/399/399 253/253/253
f 253/253/253 254/254/254 354/354/354
f 251/251/251 377/377/377 252/252/252
f 398/398/398 378/378/378 377/377/377
f 377/377/377 399/399/399 398/398/398
f 382/382/382 378/378/378 398/398/398
f 342/342/342 388/388/388 389/389/389
f 389/389/389 344/344/344 342/342/342
f 343/343/343 342/342/342 344/344/344
f 344/344/344 205/205/205 343/343/343
f 205/205/205 202/202/202 400/400/400
f 400/400/400 343/343/343 205/205/205
f 401/401/401 400/400/400 202/202/202
f 202/202/202 196/196/196 401/401/401
f 402/402/402 401/401/401 196/196/196
f 196/196/196 376/376/376 402/402/402
f 331/331/331 332/332/332 393/393/393
f 393/393/393 364/364/364 331/331/331
f 363/363/363 364/364/364 403/403/403
f 403/403/403 404/404/404 363/363/363
f 405/405/405 403/403/403 364/364/364
f 364/364/364 393/393/393 405/405/405
f 392/392/392 406/406/406 405/405/405
f 405/405/405 393/393/393 392/392/392
f 407/407/407 361/361/361 366/366/366
f 366/366/366 408/408/408 407/407/407
f 365/365/365 409/409/409 408/408/408
f 408/408/408 366/366/366 365/365/365
f 339/339/339 409/409/409 365/365/365
f 365/365/365 410/410/410 339/339/339
f 373/373/373 370/370/370 371/371/371
f 371/371/371 411/411/411 373/373/373
f 375/375/375 372/372/372 359/359/359
f 359/359/359 370/370/370 375/375/375
f 401/401/401 402/402/402 374/374/374
f 374/374/374 373/373/373 401/401/401
f 400/400/400 401/401/401 373/373/373
f 373/373/373 411/411/411 400/400/400
f 361/361/361 407/407/407 406/406/406
f 406/406/406 392/392/392 361/361/361
f 354/354/354 255/255/255 333/333/333
f 255/255/255 354/354/354 254/254/254
f 251/251/251 253/253/253 399/399/399
f 399/399/399 377/377/377 251/251/251
f 252/252/252 377/377/377 295/295/295
f 189/189/189 362/362/362 369/369/369
f 369/369/369 192/192/192 189/189/189
f 404/404/404 403/403/403 376/376/376
f 376/376/376 195/195/195 404/404/404
f 405/405/405 402/402/402 376/376/376
f 376/376/376 403/403/403 405/405/405
f 406/406/406 374/374/374 402/402/402
f 402/402/402 405/405/405 406/406/406
f 407/407/407 375/375/375 374/374/374
f 374/374/374 406/406/406 407/407/407
f 375/375/375 407/407/407 408/408/408
f 408/408/408 372/372/372 375/375/375
f 409/409/409 338/338/338 372/372/372
f 372/372/372 408/408/408 409/409/409
f 351/351/351 394/394/394 352/352/352
f 352/352/352 394/394/394 349/349/349
f 350/350/350 349/349/349 394/394/394
f 339/339/339 338/338/338 409/409/409
f 332/332/332 246/246/246 393/393/393
f 247/247/247 393/393/393 246/246/246
f 361/361/361 392/392/392 248/248/248
f 248/248/248 249/249/249 361/361/361
f 289/289/289 290/290/290 366/366/366
f 366/366/366 361/361/361 289/289/289
f 289/289/289 361/361/361 288/288/288
f 410/410/410 365/365/365 291/291/291
f 291/291/291 292/292/292 410/410/410
f 350/350/350 394/394/394 367/367/367
f 367/367/367 362/362/362 350/350/350
f 328/328/328 367/367/367 394/394/394
f 394/394/394 335/335/335 328/328/328
f 343/343/343 400/400/400 411/411/411
f 343/343/343 411/411/411 371/371/371