mtllib 143511513.mtl
o Mesh

v 0.052494000643491745 1.2068029642105103 0.2545660138130188
v 0.11024300009012222 1.125862956047058 0.3566029965877533
v 0.2607330083847046 1.125862956047058 0.20655299723148346
v 0.1592330038547516 1.2068029642105103 0.1478080004453659
v -0.08956699818372726 1.2068029642105103 0.2930079996585846
v -0.08958700299263 1.125862956047058 0.41063299775123596
v -0.2852349877357483 1.125862956047058 0.35416901111602783
v -0.08958700299263 1.125862956047058 0.41063299775123596
v -0.08956699818372726 1.2068029642105103 0.2930079996585846
v -0.22888000309467316 1.2068029642105103 0.2528339922428131
v -0.4659759998321533 1.125862956047058 0.20208199322223663
v -0.32812100648880005 1.2068029642105103 0.14480899274349213
v -0.3604789972305298 1.2068029642105103 -0.0021210000850260258
v -0.5110780000686646 1.125862956047058 -0.004428999964147806
v -0.31724199652671814 1.2068029642105103 -0.14858700335025787
v -0.4501569867134094 1.125862956047058 -0.21028800308704376
v -0.2103080004453659 1.2068029642105103 -0.2553449869155884
v -0.257858008146286 1.125862956047058 -0.3600800037384033
v -0.06854300200939178 1.2068029642105103 -0.29378899931907654
v -0.056784000247716904 1.125862956047058 -0.44940701127052307
v 0.07106400281190872 1.2068029642105103 -0.25361400842666626
v 0.13763199746608734 1.125862956047058 -0.35764700174331665
v 0.27653399109840393 1.125862956047058 -0.20581600069999695
v 0.1701119989156723 1.2068029642105103 -0.1455879956483841
v 0.20227700471878052 1.2068029642105103 0.0013419999741017818
v 0.3216019868850708 1.125862956047058 0.0006939999875612557
v 0.24772800505161285 0.8254370093345642 -0.14094799757003784
v 0.1727990061044693 0.23479700088500977 -0.10157299786806107
v 0.07872100174427032 0.23823899030685425 -0.21656399965286255
v 0.12589100003242493 0.8318859934806824 -0.26977500319480896
v -0.05045099928975105 0.8321449756622314 -0.34808099269866943
v -0.06035599857568741 0.23498398065567017 -0.2714950144290924
v -0.21129199862480164 0.23783397674560547 -0.21841000020503998
v -0.226514995098114 0.8328459858894348 -0.27184200286865234
v -0.32635700702667236 0.2349969744682312 -0.10498300194740295
v -0.3968620002269745 0.8284649848937988 -0.14478699862957
v -0.45034798979759216 0.8248299956321716 0.026931999251246452
v -0.3677150011062622 0.23418402671813965 0.02996700070798397
v -0.335999995470047 0.23581498861312866 0.16973799467086792
v -0.41077300906181335 0.8234590291976929 0.2038390040397644
v -0.22727200388908386 0.2335900068283081 0.2720299959182739
v -0.2500559985637665 0.8199800252914429 0.33463600277900696
v -0.08144400268793106 0.23307400941848755 0.31029099225997925
v -0.07823800295591354 0.8187659978866577 0.383186012506485
v -0.07823800295591354 0.8187659978866577 0.383186012506485
v -0.08144400268793106 0.23307400941848755 0.31029099225997925
v 0.05789199844002724 0.2352060079574585 0.2861210107803345
v 0.10354000329971313 0.8196139931678772 0.3365510106086731
v 0.16298599541187286 0.23688101768493652 0.18549099564552307
v 0.2354689985513687 0.8210179805755615 0.20708699524402618
v 0.20427800714969635 0.23409497737884521 0.03375399857759476
v 0.2880519926548004 0.8214659690856934 0.030920999124646187
v -0.07984799891710281 1.27776300907135 0.0
v 0.052494000643491745 1.2068029642105103 0.2545660138130188
v 0.1592330038547516 1.2068029642105103 0.1478080004453659
v -0.08956699818372726 1.2068029642105103 0.2930079996585846
v -0.22888000309467316 1.2068029642105103 0.2528339922428131
v -0.32812100648880005 1.2068029642105103 0.14480899274349213
v -0.3604789972305298 1.2068029642105103 -0.0021210000850260258
v -0.31724199652671814 1.2068029642105103 -0.14858700335025787
v -0.2103080004453659 1.2068029642105103 -0.2553449869155884
v -0.06854300200939178 1.2068029642105103 -0.29378899931907654
v 0.07106400281190872 1.2068029642105103 -0.25361400842666626
v 0.1701119989156723 1.2068029642105103 -0.1455879956483841
v 0.20227700471878052 1.2068029642105103 0.0013419999741017818
v 0.08169800043106079 -0.6810369491577148 -0.2827660143375397
v 0.0466030016541481 -0.7096649408340454 -0.20847299695014954
v -0.07822699844837189 -0.7108409404754639 -0.2564919888973236
v -0.07840800285339355 -0.685731053352356 -0.32889100909233093
v 0.11679399758577347 -0.6178809404373169 -0.3570590019226074
v 0.3205280005931854 -0.6188030242919922 -0.1308089941740036
v 0.2309350073337555 -0.6815329790115356 -0.10102400183677673
v 0.11001499742269516 -0.35911595821380615 -0.2799839973449707
v 0.24949100613594055 -0.3605459928512573 -0.09315899759531021
v -0.056724000722169876 -0.36676204204559326 -0.31385499238967896
v -0.057576000690460205 -0.03466200828552246 -0.25684401392936707
v 0.07867100089788437 -0.029746055603027344 -0.2319590002298355
v 0.3731670081615448 -0.6178079843521118 0.05011399835348129
v 0.2755340039730072 -0.6810669898986816 0.055580999702215195
v 0.3053939938545227 -0.6171430349349976 0.23043599724769592
v 0.22209399938583374 -0.6807359457015991 0.21226200461387634
v 0.10205700248479843 -0.6193759441375732 0.4012509882450104
v 0.07345999777317047 -0.68184494972229 0.36826398968696594
v 0.044863998889923096 -0.7097870111465454 0.3352769911289215
v -0.10267099738121033 -0.6822359561920166 0.4023610055446625
v -0.09910699725151062 -0.7097740173339844 0.3741450011730194
v 0.08854799717664719 -0.35490500926971436 0.391508013010025
v 0.057002000510692596 -0.034222960472106934 0.3150610029697418
v -0.07747200131416321 -0.035681962966918945 0.33441901206970215
v -0.0809210017323494 -0.3548929691314697 0.4185590147972107
v 0.23558300733566284 -0.35760498046875 0.24684500694274902
v 0.2903139889240265 -0.35922300815582275 0.07034099847078323
v 0.1751289963722229 -0.03305196762084961 -0.08544699847698212
v 0.1635349988937378 -0.031193017959594727 0.20991100370883942
v 0.20610199868679047 -0.033061981201171875 0.051224999129772186
v -0.0879250019788742 -0.7098499536514282 0.032290998846292496
v -0.07822699844837189 -0.7108409404754639 -0.2564919888973236
v 0.0466030016541481 -0.7096649408340454 -0.20847299695014954
v 0.14134199917316437 -0.7097359895706177 -0.07123900204896927
v 0.17790000140666962 -0.70979905128479 0.0610480010509491
v 0.13879400491714478 -0.7098020315170288 0.19408899545669556
v 0.044863998889923096 -0.7097870111465454 0.3352769911289215
v -0.09910699725151062 -0.7097740173339844 0.3741450011730194
v -0.20624099671840668 -0.7096649408340454 -0.21002799272537231
v -0.2342749983072281 -0.6809359788894653 -0.2847220003604889
v -0.330810010433197 -0.7097359895706177 -0.0947989970445633
v -0.37027499079704285 -0.6813939809799194 -0.11506599932909012
v -0.31655699014663696 -0.03290295600891113 -0.08850900083780289
v -0.21161499619483948 -0.029652953147888184 -0.23381400108337402
v -0.23348499834537506 -0.35893404483795166 -0.282133013010025
v -0.36111900210380554 -0.3577539920806885 -0.09696800261735916
v -0.07858899980783463 -0.6260939836502075 -0.40128999948501587
v -0.2623080015182495 -0.6176789999008179 -0.3594149947166443
v -0.4078719913959503 -0.6809300184249878 0.05137600004673004
v -0.355646014213562 -0.7097979784011841 0.05776499956846237
v -0.3250719904899597 -0.7098020315170288 0.18452799320220947
v -0.3717159926891327 -0.6806119680404663 0.19224900007247925
v -0.266508013010025 -0.6818139553070068 0.33869999647140503
v -0.23994700610637665 -0.7097870111465454 0.3157230019569397
v -0.09910699725151062 -0.7097740173339844 0.3741450011730194
v -0.10267099738121033 -0.6822359561920166 0.4023610055446625
v -0.10623600333929062 -0.6201709508895874 0.43057700991630554
v -0.0809210017323494 -0.3548929691314697 0.4185590147972107
v -0.25398001074790955 -0.35457897186279297 0.35750100016593933
v -0.2930690050125122 -0.6193139553070068 0.36167800426483154
v -0.2254440039396286 -0.034175992012023926 0.2941359877586365
v -0.32440799474716187 -0.03098297119140625 0.1877480000257492
v -0.3698210120201111 -0.3546760082244873 0.22207100689411163
v -0.3561660051345825 -0.032943010330200195 0.04776500165462494
v -0.4076089859008789 -0.35579097270965576 0.06577499955892563
v -0.07747200131416321 -0.035681962966918945 0.33441901206970215
v -0.20624099671840668 -0.7096649408340454 -0.21002799272537231
v -0.330810010433197 -0.7097359895706177 -0.0947989970445633
v -0.355646014213562 -0.7097979784011841 0.05776499956846237
v -0.3250719904899597 -0.7098020315170288 0.18452799320220947
v -0.23994700610637665 -0.7097870111465454 0.3157230019569397
v -0.10623600333929062 -0.6201709508895874 0.43057700991630554
v -0.40974000096321106 -0.6185259819030762 -0.13533300161361694
v -0.41835999488830566 -0.6168949604034424 0.19997000694274902
v -0.46009698510169983 -0.6175340414047241 0.0449879989027977
v 0.14134199917316437 -0.7097359895706177 -0.07123900204896927
v 0.17790000140666962 -0.70979905128479 0.0610480010509491
v 0.13879400491714478 -0.7098020315170288 0.19408899545669556
v 0.07551799714565277 -0.9575769901275635 0.3873269855976105
v 0.1876000016927719 -0.9575779438018799 0.23590999841690063
v 0.1547269970178604 -0.8295999765396118 0.22944000363349915
v 0.05592700093984604 -0.8295990228652954 0.36228299140930176
v -0.07614599913358688 -0.9575769901275635 0.42734500765800476
v -0.07523000240325928 -0.8295990228652954 0.4001629948616028
v -0.036876000463962555 -0.8592989444732666 -0.8203009963035583
v 0.17197400331497192 -0.8586139678955078 -0.7838510274887085
v 0.2056960016489029 -0.9621009826660156 -0.7946149706840515
v -0.03676300123333931 -0.9620009660720825 -0.8236579895019531
v 0.19747599959373474 -0.86536705493927 -0.5883359909057617
v 0.2178719937801361 -0.9632730484008789 -0.5878880023956299
v 0.23329900205135345 -0.9575769901275635 0.07201600074768066
v 0.23235799372196198 -0.9582129716873169 -0.013445000164210796
v 0.19050799310207367 -0.8263360261917114 -0.06429900228977203
v 0.19503000378608704 -0.8295990228652954 0.08823399990797043
v -0.07302100211381912 -0.598162055015564 0.33462101221084595
v 0.05222899839282036 -0.5981570482254028 0.2966429889202118
v 0.14340700209140778 -0.5981409549713135 0.17278499901294708
v 0.17942599952220917 -0.5981199741363525 0.04898500069975853
v 0.1512559950351715 -0.5976599454879761 -0.060086000710725784
v 0.06718099862337112 -0.5951199531555176 -0.14701500535011292
v 0.1306529939174652 -0.7371000051498413 -0.21283699572086334
v -0.05505400151014328 -0.7133899927139282 -0.28094398975372314
v -0.057162001729011536 -0.59511399269104 -0.2184009999036789
v -0.04979800060391426 -0.7725009918212891 -0.4368880093097687
v -0.053008999675512314 -0.7454609870910645 -0.34162798523902893
v 0.1367650032043457 -0.759600043296814 -0.31604599952697754
v 0.14074599742889404 -0.7818870544433594 -0.42760398983955383
v 0.23548899590969086 -0.9630800485610962 -0.3658910095691681
v 0.2040809988975525 -0.8624060153961182 -0.3734950125217438
v 0.20737500488758087 -0.8471729755401611 -0.22588199377059937
v 0.2346549928188324 -0.9603060483932495 -0.1961659938097
v -0.040111999958753586 -0.7994270324707031 -0.7242990136146545
v 0.12239000201225281 -0.800258994102478 -0.7267950177192688
v 0.22931699454784393 -1.0004050731658936 -0.5878229737281799
v 0.20732200145721436 -1.0004050731658936 -0.7823539972305298
v 0.2329699993133545 -1.0004050731658936 -0.36143699288368225
v 0.23734499514102936 -1.0004050731658936 -0.1936579942703247
v 0.23544399440288544 -1.0004050731658936 0.07381000369787216
v 0.23912200331687927 -1.0004050731658936 -0.015282000415027142
v 0.19005100429058075 -1.0004050731658936 0.22834500670433044
v 0.07751400023698807 -1.0004050731658936 0.3923740088939667
v -0.07636699825525284 -1.0004050731658936 0.4339059889316559
v -0.037108998745679855 -1.0004050731658936 -0.8133659958839417
v 0.12493900209665298 -0.8061729669570923 -0.601095974445343
v -0.04383699968457222 -0.7885270118713379 -0.6061639785766602
v -0.1877879947423935 -0.8295990228652954 0.36078301072120667
v -0.2803730070590973 -0.8295990228652954 0.22676299512386322
v -0.31366801261901855 -0.9575779438018799 0.23282499611377716
v -0.2090570032596588 -0.9575769901275635 0.3855760097503662
v -0.07614599913358688 -0.9575769901275635 0.42734500765800476
v -0.07523000240325928 -0.8295990228652954 0.4001629948616028
v -0.29662901163101196 -0.9621009826660156 -0.8082299828529358
v -0.2765749990940094 -0.8586139678955078 -0.8015369772911072
v -0.3124929964542389 -0.963271975517273 -0.5910840034484863
v -0.3029260039329529 -0.86536705493927 -0.5914149880409241
v -0.34438198804855347 -0.9582129716873169 -0.016993999481201172
v -0.3510810136795044 -0.9575769901275635 0.06842000037431717
v -0.3139210045337677 -0.8295990228652954 0.08510299772024155
v -0.2977989912033081 -0.8263360261917114 -0.10655199736356735
v -0.07302100211381912 -0.598162055015564 0.33462101221084595
v -0.18244700133800507 -0.5981570482254028 0.2951990067958832
v -0.26524001359939575 -0.5981409549713135 0.17027099430561066
v -0.2956790030002594 -0.5981199741363525 0.04606100171804428
v -0.25884801149368286 -0.5976599454879761 -0.10185900330543518
v -0.17027199268341064 -0.5951199531555176 -0.1484760046005249
v -0.22447800636291504 -0.7371000051498413 -0.2150219976902008
v -0.2334109991788864 -0.7818870544433594 -0.4299060106277466
v -0.23023200035095215 -0.759600043296814 -0.31830400228500366
v -0.33272799849510193 -0.9630789756774902 -0.42789599299430847
v -0.34234899282455444 -0.9603060483932495 -0.1997160017490387
v -0.31307700276374817 -0.8471729755401611 -0.22908499836921692
v -0.300819993019104 -0.8624060153961182 -0.43511098623275757
v -0.23283499479293823 -0.8002599477767944 -0.7259100079536438
v -0.29522401094436646 -1.0004050731658936 -0.7990090250968933
v -0.3130820095539093 -1.0004050731658936 -0.591159999370575
v -0.3305099904537201 -1.0004050731658936 -0.4234130084514618
v -0.34520700573921204 -1.0004050731658936 -0.19724200665950775
v -0.3510189950466156 -1.0004050731658936 -0.01891300082206726
v -0.3533470034599304 -1.0004050731658936 0.07018700242042542
v -0.3156079947948456 -1.0004050731658936 0.22523300349712372
v -0.2113949954509735 -1.0004050731658936 0.3905949890613556
v -0.07636699825525284 -1.0004050731658936 0.4339059889316559
v -0.24448199570178986 -0.8061729669570923 -0.6033689975738525
v 0.23544399440288544 -1.0004050731658936 0.07381000369787216
v -0.05443200096487999 -1.0004050731658936 -0.1649560034275055
v 0.23912200331687927 -1.0004050731658936 -0.015282000415027142
v 0.19005100429058075 -1.0004050731658936 0.22834500670433044
v 0.07751400023698807 -1.0004050731658936 0.3923740088939667
v -0.07636699825525284 -1.0004050731658936 0.4339059889316559
v 0.20732200145721436 -1.0004050731658936 -0.7823539972305298
v -0.037108998745679855 -1.0004050731658936 -0.8133659958839417
v 0.22931699454784393 -1.0004050731658936 -0.5878229737281799
v 0.2329699993133545 -1.0004050731658936 -0.36143699288368225
v 0.23734499514102936 -1.0004050731658936 -0.1936579942703247
v -0.3510189950466156 -1.0004050731658936 -0.01891300082206726
v -0.3533470034599304 -1.0004050731658936 0.07018700242042542
v -0.3156079947948456 -1.0004050731658936 0.22523300349712372
v -0.2113949954509735 -1.0004050731658936 0.3905949890613556
v -0.29522401094436646 -1.0004050731658936 -0.7990090250968933
v -0.3130820095539093 -1.0004050731658936 -0.591159999370575
v -0.3305099904537201 -1.0004050731658936 -0.4234130084514618
v -0.34520700573921204 -1.0004050731658936 -0.19724200665950775
v -0.057162001729011536 -0.59511399269104 -0.2184009999036789
v -0.05909699946641922 -0.5973060131072998 0.05739400163292885
v 0.06718099862337112 -0.5951199531555176 -0.14701500535011292
v 0.05222899839282036 -0.5981570482254028 0.2966429889202118
v -0.07302100211381912 -0.598162055015564 0.33462101221084595
v 0.14340700209140778 -0.5981409549713135 0.17278499901294708
v 0.17942599952220917 -0.5981199741363525 0.04898500069975853
v 0.1512559950351715 -0.5976599454879761 -0.060086000710725784
v -0.17027199268341064 -0.5951199531555176 -0.1484760046005249
v -0.18244700133800507 -0.5981570482254028 0.2951990067958832
v -0.26524001359939575 -0.5981409549713135 0.17027099430561066
v -0.2956790030002594 -0.5981199741363525 0.04606100171804428
v -0.25884801149368286 -0.5976599454879761 -0.10185900330543518
v -0.16720500588417053 0.7061859965324402 -0.350151002407074
v -0.20660799741744995 1.1466469764709473 -0.44292598962783813
v -0.11127100139856339 1.0986239910125732 -0.4828700125217438
v -0.06622300297021866 0.7390210032463074 -0.3936519920825958
v 0.037661001086235046 0.49389398097991943 -0.3630949854850769
v -0.058184001594781876 0.39500999450683594 -0.32874900102615356
v 0.2765589952468872 0.31297802925109863 -0.2515760064125061
v 0.20414699614048004 0.18356698751449585 -0.23248200118541718
v 0.4213959872722626 0.23592501878738403 -0.09539400041103363
v 0.40654298663139343 0.2924309968948364 0.13287000358104706
v 0.350506991147995 0.16821002960205078 0.14432400465011597
v 0.36229899525642395 0.10217702388763428 -0.09843199700117111
v -0.023788999766111374 0.4877229928970337 0.44580399990081787
v 0.19289100170135498 0.2929679751396179 0.33076998591423035
v 0.2511869966983795 0.4054679870605469 0.30156299471855164
v 0.04446699842810631 0.5832369923591614 0.40797099471092224
v -0.1824209988117218 0.7576459646224976 0.47011199593544006
v -0.08272700011730194 0.8011940121650696 0.4491389989852905
v -0.10950999706983566 1.1732640266418457 0.43734899163246155
v -0.24496999382972717 1.1457560062408447 0.44968000054359436
v 0.2511869966983795 0.4054679870605469 0.30156299471855164
v 0.19289100170135498 0.2929679751396179 0.33076998591423035
v 0.20414699614048004 0.18356698751449585 -0.23248200118541718
v 0.2765589952468872 0.31297802925109863 -0.2515760064125061
v -0.03509499877691269 0.7716879844665527 -0.3830159902572632
v -0.06464999914169312 1.1316410303115845 -0.47843700647354126
v -0.22551999986171722 1.1484179496765137 -0.4185679852962494
v -0.20141400396823883 0.7292400002479553 -0.33138999342918396
v 0.0519770011305809 0.5352070331573486 -0.3468720018863678
v -0.08112700283527374 0.37164801359176636 -0.30568400025367737
v -0.08112700283527374 0.37164801359176636 -0.30568400025367737
v 0.16375799477100372 0.1618490219116211 -0.22876900434494019
v 0.2559959888458252 0.3615710139274597 -0.23952999711036682
v 0.0519770011305809 0.5352070331573486 -0.3468720018863678
v 0.28856900334358215 0.160194993019104 0.140407994389534
v 0.3687080144882202 0.3381839990615845 0.12420299649238586
v 0.3842589855194092 0.28731000423431396 -0.091279998421669
v 0.30018600821495056 0.09597700834274292 -0.09465000033378601
v 0.23487700521945953 0.44214898347854614 0.2834419906139374
v 0.1542239934206009 0.27577102184295654 0.32376599311828613
v -0.05768999829888344 0.4697800278663635 0.4154430031776428
v 0.03644299879670143 0.607807993888855 0.36413300037384033
v -0.0470689982175827 0.8094300031661987 0.39886000752449036
v 0.03644299879670143 0.607807993888855 0.36413300037384033
v -0.05768999829888344 0.4697800278663635 0.4154430031776428
v -0.20759199559688568 0.742730975151062 0.42757299542427063
v -0.06799200177192688 1.1574039459228516 0.41658899188041687
v -0.26181700825691223 1.1176600456237793 0.43427300453186035
v 0.3842589855194092 0.28731000423431396 -0.091279998421669
v 0.30018600821495056 0.09597700834274292 -0.09465000033378601
v -0.11127100139856339 1.0986239910125732 -0.4828700125217438
v -0.20660799741744995 1.1466469764709473 -0.44292598962783813
v -0.06464999914169312 1.1316410303115845 -0.47843700647354126
v -0.03509499877691269 0.7716879844665527 -0.3830159902572632
v -0.22551999986171722 1.1484179496765137 -0.4185679852962494
v -0.20141400396823883 0.7292400002479553 -0.33138999342918396
v 0.0519770011305809 0.5352070331573486 -0.3468720018863678
v -0.08112700283527374 0.37164801359176636 -0.30568400025367737
v 0.2559959888458252 0.3615710139274597 -0.23952999711036682
v 0.16375799477100372 0.1618490219116211 -0.22876900434494019
v 0.3842589855194092 0.28731000423431396 -0.091279998421669
v 0.3687080144882202 0.3381839990615845 0.12420299649238586
v 0.30018600821495056 0.09597700834274292 -0.09465000033378601
v 0.28856900334358215 0.160194993019104 0.140407994389534
v 0.23487700521945953 0.44214898347854614 0.2834419906139374
v 0.03644299879670143 0.607807993888855 0.36413300037384033
v -0.05768999829888344 0.4697800278663635 0.4154430031776428
v 0.1542239934206009 0.27577102184295654 0.32376599311828613
v -0.0470689982175827 0.8094300031661987 0.39886000752449036
v -0.20759199559688568 0.742730975151062 0.42757299542427063
v -0.06799200177192688 1.1574039459228516 0.41658899188041687
v -0.24496999382972717 1.1457560062408447 0.44968000054359436
v -0.10950999706983566 1.1732640266418457 0.43734899163246155
v -0.26181700825691223 1.1176600456237793 0.43427300453186035
v 0.1542239934206009 0.27577102184295654 0.32376599311828613
v 0.23487700521945953 0.44214898347854614 0.2834419906139374
v 0.2559959888458252 0.3615710139274597 -0.23952999711036682
v 0.16375799477100372 0.1618490219116211 -0.22876900434494019

vn 0.21771200001239777 0.9004690051078796 0.3765060007572174
vn 0.45590901374816895 0.4056519865989685 0.7922080159187317
vn 0.787414014339447 0.40492698550224304 0.46477198600769043
vn 0.3741439878940582 0.9001039862632751 0.22322200238704681
vn -0.004443000070750713 0.9011939764022827 0.4333930015563965
vn -0.01242200005799532 0.39616501331329346 0.9180949926376343
vn -0.43869200348854065 0.38880500197410583 0.810172975063324
vn -0.01242200005799532 0.39616501331329346 0.9180949926376343
vn -0.004443000070750713 0.9011939764022827 0.4333930015563965
vn -0.21180500090122223 0.9045529961585999 0.3700299859046936
vn -0.7979779839515686 0.3950999975204468 0.4551129937171936
vn -0.33516600728034973 0.9247689843177795 0.18018199503421783
vn -0.37847900390625 0.9255030155181885 -0.014065000228583813
vn -0.91976398229599 0.3902699947357178 -0.041508998721838
vn -0.3293670117855072 0.9223189949989319 -0.2020999938249588
vn -0.7755079865455627 0.3437420129776001 -0.5295550227165222
vn -0.20451200008392334 0.9029269814491272 -0.3780190050601959
vn -0.4726189970970154 0.31752100586891174 -0.8220779895782471
vn -0.01868700049817562 0.9242460131645203 -0.38133999705314636
vn 0.00092299998505041 0.31686699390411377 -0.9484699964523315
vn 0.23038999736309052 0.9123430252075195 -0.3384529948234558
vn 0.5495610237121582 0.33465999364852905 -0.7654970288276672
vn 0.8207719922065735 0.35751399397850037 -0.4455519914627075
vn 0.3776560127735138 0.9052900075912476 -0.1944890022277832
vn 0.43132901191711426 0.9020349979400635 0.016985999420285225
vn 0.9207109808921814 0.38971400260925293 0.020361000671982765
vn 0.875760018825531 -0.1549990028142929 -0.4571860134601593
vn 0.8974480032920837 -0.0697460025548935 -0.4355719983577728
vn 0.577226996421814 -0.06260000169277191 -0.8141810297966003
vn 0.575905978679657 -0.18871499598026276 -0.7954360246658325
vn 0.010195000097155571 -0.22779500484466553 -0.9736559987068176
vn 0.032200999557971954 -0.07141599804162979 -0.99692702293396
vn -0.5483919978141785 -0.04427900165319443 -0.8350480198860168
vn -0.4981740117073059 -0.2030559927225113 -0.8429660201072693
vn -0.8454269766807556 -0.09012799710035324 -0.5264310240745544
vn -0.8023790121078491 -0.20161700248718262 -0.5617290139198303
vn -0.9846190214157104 -0.1716720014810562 -0.032464999705553055
vn -0.9949259757995605 -0.09184499830007553 -0.04107299819588661
vn -0.8670330047607422 -0.06785900145769119 0.4936090111732483
vn -0.8377689719200134 -0.14242300391197205 0.527122974395752
vn -0.4937039911746979 -0.028617000207304955 0.8691589832305908
vn -0.4573259949684143 -0.11344999819993973 0.8820329904556274
vn -0.04597499966621399 -0.016599999740719795 0.9988049864768982
vn -0.011855999939143658 -0.10158000141382217 0.9947569966316223
vn -0.011855999939143658 -0.10158000141382217 0.9947569966316223
vn -0.04597499966621399 -0.016599999740719795 0.9988049864768982
vn 0.4555189907550812 -0.01897599920630455 0.8900240063667297
vn 0.49378299713134766 -0.0898509994149208 0.8649309873580933
vn 0.8604769706726074 -0.04272900149226189 0.5076940059661865
vn 0.8520519733428955 -0.09664800018072128 0.5144569873809814
vn 0.9976320266723633 -0.06724999845027924 0.014406999573111534
vn 0.9919599890708923 -0.12160900235176086 0.03502599895000458
vn -0.0007179999956861138 1.0 0.000295000005280599
vn 0.21771200001239777 0.9004690051078796 0.3765060007572174
vn 0.3741439878940582 0.9001039862632751 0.22322200238704681
vn -0.004443000070750713 0.9011939764022827 0.4333930015563965
vn -0.21180500090122223 0.9045529961585999 0.3700299859046936
vn -0.33516600728034973 0.9247689843177795 0.18018199503421783
vn -0.37847900390625 0.9255030155181885 -0.014065000228583813
vn -0.3293670117855072 0.9223189949989319 -0.2020999938249588
vn -0.20451200008392334 0.9029269814491272 -0.3780190050601959
vn -0.01868700049817562 0.9242460131645203 -0.38133999705314636
vn 0.23038999736309052 0.9123430252075195 -0.3384529948234558
vn 0.3776560127735138 0.9052900075912476 -0.1944890022277832
vn 0.43132901191711426 0.9020349979400635 0.016985999420285225
vn 0.2808989882469177 -0.8657100200653076 -0.4142970144748688
vn 0.138823002576828 -0.9785630106925964 -0.15212899446487427
vn 0.0008229999803006649 -0.9801669716835022 -0.19817300140857697
vn 0.0007179999956861138 -0.8595889806747437 -0.5109850168228149
vn 0.48421698808670044 -0.2747650146484375 -0.830685019493103
vn 0.8373759984970093 -0.3063870072364807 -0.4526900053024292
vn 0.3919459879398346 -0.8956559896469116 -0.21018700301647186
vn 0.5381029844284058 0.22127899527549744 -0.8133149743080139
vn 0.8699039816856384 0.24809899926185608 -0.4262790083885193
vn 0.016682999208569527 0.24512499570846558 -0.9693480134010315
vn 0.03144700080156326 0.07975800335407257 -0.996317982673645
vn 0.5393329858779907 0.10240700095891953 -0.8358420133590698
vn 0.9501820206642151 -0.3109849989414215 0.02104399912059307
vn 0.44328099489212036 -0.8960970044136047 0.022648999467492104
vn 0.7927979826927185 -0.3258360028266907 0.5150750279426575
vn 0.4330520033836365 -0.8535609841346741 0.28965601325035095
vn 0.4316929876804352 -0.26121899485588074 0.8633689880371094
vn 0.33277198672294617 -0.6893180012702942 0.6435089707374573
vn 0.15521599352359772 -0.9412209987640381 0.3000189960002899
vn -0.06580299884080887 -0.5682229995727539 0.8202390074729919
vn -0.018864000216126442 -0.8992130160331726 0.4371050000190735
vn 0.44150999188423157 0.15202000737190247 0.8842840194702148
vn 0.4335860013961792 0.17483699321746826 0.8839889764785767
vn -0.056106001138687134 0.17571699619293213 0.9828410148620605
vn -0.0784590020775795 0.14857299625873566 0.9857839941978455
vn 0.8199530243873596 0.2041659951210022 0.5347830057144165
vn 0.9613249897956848 0.27320098876953125 0.034873999655246735
vn 0.9127089977264404 0.09578800201416016 -0.3972249925136566
vn 0.847877025604248 0.15185700356960297 0.50798100233078
vn 0.9907429814338684 0.13438400626182556 0.019210999831557274
vn -9.000000318337698e-06 -1.0 0.0003640000068116933
vn 0.0008229999803006649 -0.9801669716835022 -0.19817300140857697
vn 0.138823002576828 -0.9785630106925964 -0.15212899446487427
vn 0.14633800089359283 -0.9860360026359558 -0.07948199659585953
vn 0.169841006398201 -0.9854410290718079 0.007732999976724386
vn 0.16471999883651733 -0.9829630255699158 0.081557996571064
vn 0.15521599352359772 -0.9412209987640381 0.3000189960002899
vn -0.018864000216126442 -0.8992130160331726 0.4371050000190735
vn -0.13198800384998322 -0.9774320125579834 -0.16494399309158325
vn -0.3309740126132965 -0.842303991317749 -0.4254170060157776
vn -0.2843340039253235 -0.9443510174751282 -0.16539700329303741
vn -0.6224750280380249 -0.7177010178565979 -0.31213799118995667
vn -0.8917040228843689 0.05449499934911728 -0.4493260085582733
vn -0.5326499938964844 0.08613000065088272 -0.8419409990310669
vn -0.5335680246353149 0.23010000586509705 -0.8138539791107178
vn -0.8906909823417664 0.18050800263881683 -0.4172370135784149
vn -0.0033140000887215137 -0.2807359993457794 -0.9597790241241455
vn -0.5366590023040771 -0.2501710057258606 -0.8058609962463379
vn -0.6652830243110657 -0.7464960217475891 0.01195400021970272
vn -0.2805899977684021 -0.9596899747848511 0.01626800000667572
vn -0.2798449993133545 -0.9500309824943542 0.13830499351024628
vn -0.6343520283699036 -0.7095639705657959 0.306784987449646
vn -0.47909700870513916 -0.6251009702682495 0.6162099838256836
vn -0.2393680065870285 -0.9213320016860962 0.3063490092754364
vn -0.018864000216126442 -0.8992130160331726 0.4371050000190735
vn -0.06580299884080887 -0.5682229995727539 0.8202390074729919
vn -0.10555499792098999 -0.19002600014209747 0.9760879874229431
vn -0.0784590020775795 0.14857299625873566 0.9857839941978455
vn -0.5499510169029236 0.1522420048713684 0.8212040066719055
vn -0.5946919918060303 -0.2010120004415512 0.778419017791748
vn -0.5168039798736572 0.1446409970521927 0.8437960147857666
vn -0.8756030201911926 0.0905809998512268 0.47446200251579285
vn -0.8747360110282898 0.15763899683952332 0.4582439959049225
vn -0.9980229735374451 0.05594399943947792 -0.028644999489188194
vn -0.9845079779624939 0.17516100406646729 -0.00786300003528595
vn -0.056106001138687134 0.17571699619293213 0.9828410148620605
vn -0.13198800384998322 -0.9774320125579834 -0.16494399309158325
vn -0.2843340039253235 -0.9443510174751282 -0.16539700329303741
vn -0.2805899977684021 -0.9596899747848511 0.01626800000667572
vn -0.2798449993133545 -0.9500309824943542 0.13830499351024628
vn -0.2393680065870285 -0.9213320016860962 0.3063490092754364
vn -0.10555499792098999 -0.19002600014209747 0.9760879874229431
vn -0.8853870034217834 -0.20039300620555878 -0.4194439947605133
vn -0.8820940256118774 -0.22935199737548828 0.4114690124988556
vn -0.9737560153007507 -0.22709700465202332 -0.015025000087916851
vn 0.14633800089359283 -0.9860360026359558 -0.07948199659585953
vn 0.169841006398201 -0.9854410290718079 0.007732999976724386
vn 0.16471999883651733 -0.9829630255699158 0.081557996571064
vn 0.5556169748306274 0.17942099273204803 0.811847984790802
vn 0.8919860124588013 0.11615599691867828 0.4368860125541687
vn 0.8728650212287903 0.1997630000114441 0.44519901275634766
vn 0.5399159789085388 0.23521199822425842 0.8081870079040527
vn -0.02361699938774109 0.18360400199890137 0.9827160239219666
vn -0.02689399942755699 0.23888500034809113 0.970674991607666
vn 0.033376000821590424 0.4924890100955963 -0.8696789741516113
vn 0.5785149931907654 0.5312209725379944 -0.6189709901809692
vn 0.7036629915237427 0.033197999000549316 -0.7097579836845398
vn 0.03130200132727623 -0.114485003054142 -0.9929320216178894
vn 0.8559110164642334 0.5147929787635803 -0.04904000088572502
vn 0.9693740010261536 0.23981299996376038 -0.05294099822640419
vn 0.9790719747543335 0.1651419997215271 0.11893600225448608
vn 0.9757149815559387 0.21866799890995026 0.012817000038921833
vn 0.9517260193824768 0.29918599128723145 -0.06859999895095825
vn 0.9733020067214966 0.1826000064611435 0.13906699419021606
vn -0.017495999112725258 0.7425690293312073 0.6695410013198853
vn 0.4136430025100708 0.7259939908981323 0.5493929982185364
vn 0.628288984298706 0.7207970023155212 0.29275500774383545
vn 0.7175989747047424 0.6960369944572449 0.024165000766515732
vn 0.6152589917182922 0.7087879776954651 -0.34507301449775696
vn 0.40691399574279785 0.8277209997177124 -0.3863919973373413
vn 0.6966249942779541 0.6672899723052979 -0.26351198554039
vn -0.01369400043040514 0.7299929857254028 -0.6833170056343079
vn -0.013605000451207161 0.8016579747200012 -0.5976279973983765
vn -0.0054410002194345 0.9848420023918152 -0.17336900532245636
vn -0.0033319999929517508 0.9459369778633118 -0.32433199882507324
vn 0.5008879899978638 0.8503609895706177 -0.1612360030412674
vn 0.5090039968490601 0.8464900255203247 -0.15610599517822266
vn 0.9936460256576538 0.10299500077962875 -0.045382000505924225
vn 0.8900910019874573 0.4509370028972626 -0.06628400087356567
vn 0.9062830209732056 0.4223000109195709 -0.017680000513792038
vn 0.9878600239753723 0.15533000230789185 0.0022730000782757998
vn 0.025800000876188278 0.9464589953422546 -0.32179099321365356
vn 0.29740801453590393 0.9043620228767395 -0.3060689866542816
vn 0.8074859976768494 -0.5890089869499207 -0.03217500075697899
vn 0.5938109755516052 -0.650613009929657 -0.47338300943374634
vn 0.6859670281410217 -0.7269049882888794 -0.03253699839115143
vn 0.7288529872894287 -0.6846590042114258 -0.003922999836504459
vn 0.746819019317627 -0.6563910245895386 0.10683000087738037
vn 0.7635319828987122 -0.6455079913139343 0.018394000828266144
vn 0.6671159863471985 -0.6809399724006653 0.30212000012397766
vn 0.4501740038394928 -0.5930280089378357 0.6675789952278137
vn -0.019084999337792397 -0.5907760262489319 0.8066099882125854
vn 0.02122199907898903 -0.7763159871101379 -0.6299859881401062
vn 0.39178600907325745 0.9185870289802551 -0.05197500064969063
vn 0.016178999096155167 0.9960659742355347 -0.08713000267744064
vn -0.5750880241394043 0.23612600564956665 0.7832739949226379
vn -0.8901100158691406 0.20247699320316315 0.40829700231552124
vn -0.9076499938964844 0.10793200135231018 0.4056139886379242
vn -0.5963330268859863 0.17779399454593658 0.782800018787384
vn -0.02361699938774109 0.18360400199890137 0.9827160239219666
vn -0.02689399942755699 0.23888500034809113 0.970674991607666
vn -0.6905149817466736 -0.018942000344395638 -0.7230700254440308
vn -0.5728179812431335 0.489329993724823 -0.6575980186462402
vn -0.994763970375061 0.0723629966378212 -0.0721689984202385
vn -0.9121909737586975 0.40769699215888977 -0.04112200066447258
vn -0.9734159708023071 0.2234860062599182 -0.05015699937939644
vn -0.9824450016021729 0.17005999386310577 0.07669200003147125
vn -0.9774670004844666 0.19644799828529358 0.07724200189113617
vn -0.9402260184288025 0.32862600684165955 -0.08933000266551971
vn -0.017495999112725258 0.7425690293312073 0.6695410013198853
vn -0.43961301445961 0.7261520028114319 0.5286250114440918
vn -0.6388949751853943 0.7230939865112305 0.26257801055908203
vn -0.7305319905281067 0.6826059818267822 -0.019293000921607018
vn -0.6108160018920898 0.7205510139465332 -0.3281930088996887
vn -0.24813500046730042 0.8774589896202087 -0.4104819893836975
vn -0.6680600047111511 0.5990819931030273 -0.4413580000400543
vn -0.4430580139160156 0.8879680037498474 -0.12333600223064423
vn -0.47413700819015503 0.8655509948730469 -0.16129599511623383
vn -0.9892730116844177 0.1115029975771904 -0.09437700361013412
vn -0.9871960282325745 0.15716500580310822 -0.027247000485658646
vn -0.881443977355957 0.47106999158859253 -0.03390299901366234
vn -0.8846759796142578 0.46201300621032715 -0.06238900125026703
vn -0.33881500363349915 0.9035859704017639 -0.2621769905090332
vn -0.5610510110855103 -0.653892993927002 -0.5075889825820923
vn -0.706492006778717 -0.7049139738082886 -0.0629659965634346
vn -0.6857159733772278 -0.725197970867157 -0.0623060017824173
vn -0.7342249751091003 -0.6785609722137451 -0.021640000864863396
vn -0.7554770112037659 -0.6541839838027954 -0.036028001457452774
vn -0.7489740252494812 -0.6574850082397461 0.08216799795627594
vn -0.6813139915466309 -0.676518976688385 0.27952200174331665
vn -0.4896399974822998 -0.5893589854240417 0.6425790190696716
vn -0.019084999337792397 -0.5907760262489319 0.8066099882125854
vn -0.44698598980903625 0.8934530019760132 -0.044091999530792236
vn 0.746819019317627 -0.6563910245895386 0.10683000087738037
vn 0.0 -1.0 -0.0
vn 0.7635319828987122 -0.6455079913139343 0.018394000828266144
vn 0.6671159863471985 -0.6809399724006653 0.30212000012397766
vn 0.4501740038394928 -0.5930280089378357 0.6675789952278137
vn -0.019084999337792397 -0.5907760262489319 0.8066099882125854
vn 0.5938109755516052 -0.650613009929657 -0.47338300943374634
vn 0.02122199907898903 -0.7763159871101379 -0.6299859881401062
vn 0.8074859976768494 -0.5890089869499207 -0.03217500075697899
vn 0.6859670281410217 -0.7269049882888794 -0.03253699839115143
vn 0.7288529872894287 -0.6846590042114258 -0.003922999836504459
vn -0.7554770112037659 -0.6541839838027954 -0.036028001457452774
vn -0.7489740252494812 -0.6574850082397461 0.08216799795627594
vn -0.6813139915466309 -0.676518976688385 0.27952200174331665
vn -0.4896399974822998 -0.5893589854240417 0.6425790190696716
vn -0.5610510110855103 -0.653892993927002 -0.5075889825820923
vn -0.706492006778717 -0.7049139738082886 -0.0629659965634346
vn -0.6857159733772278 -0.725197970867157 -0.0623060017824173
vn -0.7342249751091003 -0.6785609722137451 -0.021640000864863396
vn -0.013605000451207161 0.8016579747200012 -0.5976279973983765
vn -0.000291000003926456 0.9999840259552002 0.0056039998307824135
vn 0.40691399574279785 0.8277209997177124 -0.3863919973373413
vn 0.4136430025100708 0.7259939908981323 0.5493929982185364
vn -0.017495999112725258 0.7425690293312073 0.6695410013198853
vn 0.628288984298706 0.7207970023155212 0.29275500774383545
vn 0.7175989747047424 0.6960369944572449 0.024165000766515732
vn 0.6152589917182922 0.7087879776954651 -0.34507301449775696
vn -0.24813500046730042 0.8774589896202087 -0.4104819893836975
vn -0.43961301445961 0.7261520028114319 0.5286250114440918
vn -0.6388949751853943 0.7230939865112305 0.26257801055908203
vn -0.7305319905281067 0.6826059818267822 -0.019293000921607018
vn -0.6108160018920898 0.7205510139465332 -0.3281930088996887
vn -0.4688209891319275 -0.2416439950466156 -0.8495969772338867
vn -0.21782900393009186 0.7969329953193665 -0.5634260177612305
vn -0.16377800703048706 0.03517900034785271 -0.9858700037002563
vn -0.0019539999775588512 -0.17605599761009216 -0.9843779802322388
vn 0.1907760053873062 -0.11363500356674194 -0.9750339984893799
vn -0.2430029958486557 -0.35848599672317505 -0.9013530015945435
vn 0.594868004322052 0.040042001754045486 -0.8028249740600586
vn 0.2680889964103699 -0.45910000801086426 -0.8469679951667786
vn 0.9528769850730896 0.026690000668168068 -0.30218198895454407
vn 0.9384719729423523 0.14015600085258484 0.3156369924545288
vn 0.5604199767112732 -0.6792839765548706 0.47381699085235596
vn 0.5668309926986694 -0.7818970084190369 -0.2594990134239197
vn -0.01140700001269579 -0.2995370030403137 0.9540159702301025
vn 0.36822500824928284 -0.38971298933029175 0.8441179990768433
vn 0.7041490077972412 0.2226880043745041 0.6742290258407593
vn 0.6484299898147583 0.3412970006465912 0.6804810166358948
vn -0.3803980052471161 -0.15729300677776337 0.9113489985466003
vn 0.49587300419807434 0.06262200325727463 0.866133987903595
vn 0.13607800006866455 0.9484609961509705 0.286188006401062
vn -0.5070269703865051 0.801455020904541 0.31716498732566833
vn 0.7041490077972412 0.2226880043745041 0.6742290258407593
vn 0.36822500824928284 -0.38971298933029175 0.8441179990768433
vn 0.2680889964103699 -0.45910000801086426 -0.8469679951667786
vn 0.594868004322052 0.040042001754045486 -0.8028249740600586
vn 0.9789289832115173 0.16872400045394897 0.11502599716186523
vn 0.7052509784698486 0.6613410115242004 -0.25543999671936035
vn -0.6754230260848999 0.6592249870300293 0.3304930031299591
vn -0.9041010141372681 -0.04212399944663048 0.4252369999885559
vn 0.8452159762382507 0.5071750283241272 0.16847600042819977
vn -0.8300579786300659 -0.507161021232605 0.23193000257015228
vn -0.8300579786300659 -0.507161021232605 0.23193000257015228
vn -0.7300829887390137 -0.6646900177001953 -0.1586419939994812
vn 0.439628005027771 0.8455749750137329 0.3028700053691864
vn 0.8452159762382507 0.5071750283241272 0.16847600042819977
vn -0.7076830267906189 -0.6993380188941956 0.10055100172758102
vn 0.09679599851369858 0.9429150223731995 -0.31865599751472473
vn 0.1408340036869049 0.9890440106391907 -0.044241998344659805
vn -0.5910199880599976 -0.8054969906806946 0.04323500022292137
vn 0.2648420035839081 0.8713039755821228 -0.4131450057029724
vn -0.6736590266227722 -0.7210890054702759 0.16190899908542633
vn -0.7871410250663757 -0.6082130074501038 -0.10240499675273895
vn 0.3453969955444336 0.5175570249557495 -0.782837986946106
vn 0.8014910221099854 0.17807400226593018 -0.5708780288696289
vn 0.3453969955444336 0.5175570249557495 -0.782837986946106
vn -0.7871410250663757 -0.6082130074501038 -0.10240499675273895
vn -0.8863710165023804 -0.2869560122489929 -0.3633210062980652
vn 0.7852830290794373 0.5601930022239685 -0.26365599036216736
vn -0.9335340261459351 0.2020300030708313 -0.2961379885673523
vn 0.1408340036869049 0.9890440106391907 -0.044241998344659805
vn -0.5910199880599976 -0.8054969906806946 0.04323500022292137
vn -0.16377800703048706 0.03517900034785271 -0.9858700037002563
vn -0.21782900393009186 0.7969329953193665 -0.5634260177612305
vn 0.7052509784698486 0.6613410115242004 -0.25543999671936035
vn 0.9789289832115173 0.16872400045394897 0.11502599716186523
vn -0.6754230260848999 0.6592249870300293 0.3304930031299591
vn -0.9041010141372681 -0.04212399944663048 0.4252369999885559
vn 0.8452159762382507 0.5071750283241272 0.16847600042819977
vn -0.8300579786300659 -0.507161021232605 0.23193000257015228
vn 0.439628005027771 0.8455749750137329 0.3028700053691864
vn -0.7300829887390137 -0.6646900177001953 -0.1586419939994812
vn 0.1408340036869049 0.9890440106391907 -0.044241998344659805
vn 0.09679599851369858 0.9429150223731995 -0.31865599751472473
vn -0.5910199880599976 -0.8054969906806946 0.04323500022292137
vn -0.7076830267906189 -0.6993380188941956 0.10055100172758102
vn 0.2648420035839081 0.8713039755821228 -0.4131450057029724
vn 0.3453969955444336 0.5175570249557495 -0.782837986946106
vn -0.7871410250663757 -0.6082130074501038 -0.10240499675273895
vn -0.6736590266227722 -0.7210890054702759 0.16190899908542633
vn 0.8014910221099854 0.17807400226593018 -0.5708780288696289
vn -0.8863710165023804 -0.2869560122489929 -0.3633210062980652
vn 0.7852830290794373 0.5601930022239685 -0.26365599036216736
vn -0.5070269703865051 0.801455020904541 0.31716498732566833
vn 0.13607800006866455 0.9484609961509705 0.286188006401062
vn -0.9335340261459351 0.2020300030708313 -0.2961379885673523
vn -0.6736590266227722 -0.7210890054702759 0.16190899908542633
vn 0.2648420035839081 0.8713039755821228 -0.4131450057029724
vn 0.439628005027771 0.8455749750137329 0.3028700053691864
vn -0.7300829887390137 -0.6646900177001953 -0.1586419939994812

vt 0.033969998359680176 0.9830179996788502
vt 0.0340379998087883 0.9628610014915466
vt 0.06026799976825714 0.9647779986262321
vt 0.061838001012802124 0.9849770003929734
vt 0.012496000155806541 0.9840479996055365
vt 0.004575999919325113 0.9640670008957386
vt 0.3026590049266815 0.9628540016710758
vt 0.33173298835754395 0.9621849991381168
vt 0.32585200667381287 0.9834129996597767
vt 0.3042750060558319 0.9827340003103018
vt 0.2757109999656677 0.9634360000491142
vt 0.277321994304657 0.9859220003709197
vt 0.24990500509738922 0.9890520004555583
vt 0.24987199902534485 0.9655809998512268
vt 0.22488899528980255 0.9903109995648265
vt 0.22253000736236572 0.9678910002112389
vt 0.1932000070810318 0.9917099997401237
vt 0.19234800338745117 0.9708650000393391
vt 0.1692270040512085 0.9910589996725321
vt 0.16747500002384186 0.9681820012629032
vt 0.14225399494171143 0.9906259998679161
vt 0.1403679996728897 0.9693330004811287
vt 0.11450300365686417 0.9680490009486675
vt 0.11546400189399719 0.9888399997726083
vt 0.08880899846553802 0.9870340004563332
vt 0.08788099884986877 0.9665980003774166
vt 0.1123410016298294 0.9231979995965958
vt 0.11585000157356262 0.857466995716095
vt 0.14061899483203888 0.8582320064306259
vt 0.13724899291992188 0.924295000731945
vt 0.16541899740695953 0.9245999976992607
vt 0.16566899418830872 0.8581819981336594
vt 0.192111998796463 0.8580829948186874
vt 0.19351300597190857 0.9244149997830391
vt 0.21842899918556213 0.857575997710228
vt 0.22376899421215057 0.9234419986605644
vt 0.24970300495624542 0.9217910021543503
vt 0.24140900373458862 0.8569390028715134
vt 0.26416200399398804 0.8564130067825317
vt 0.27549201250076294 0.9202520027756691
vt 0.2868340015411377 0.8549990057945251
vt 0.3011550009250641 0.9174730032682419
vt 0.3087190091609955 0.853069007396698
vt 0.32584500312805176 0.9143569990992546
vt 0.010095000267028809 0.9216499999165535
vt 0.025227999314665794 0.8546019941568375
vt 0.04570100083947182 0.8556330054998398
vt 0.03580699861049652 0.918782003223896
vt 0.06787200272083282 0.8564829975366592
vt 0.062174998223781586 0.9205039963126183
vt 0.09284500032663345 0.8568570017814636
vt 0.08752799779176712 0.9217960014939308
vt 0.9576110243797302 0.8757999986410141
vt 0.9827470183372498 0.8989169970154762
vt 0.9669060111045837 0.9075070023536682
vt 0.9917179942131042 0.8839469999074936
vt 0.9915289878845215 0.8667410016059875
vt 0.9824209809303284 0.8522419929504395
vt 0.9658290147781372 0.8453570008277893
vt 0.9474009871482849 0.8432170003652573
vt 0.9326410293579102 0.8514620065689087
vt 0.9239630103111267 0.861965999007225
vt 0.9240649938583374 0.8813140019774437
vt 0.9330549836158752 0.8983979970216751
vt 0.948743999004364 0.907429002225399
vt 0.14473499357700348 0.7168389856815338
vt 0.14306199550628662 0.7047469913959503
vt 0.16891099512577057 0.7062250077724457
vt 0.16878700256347656 0.7166849970817566
vt 0.1465030014514923 0.7314130067825317
vt 0.10904400050640106 0.7314220070838928
vt 0.11057800054550171 0.715732991695404
vt 0.1422950029373169 0.7701379954814911
vt 0.10975299775600433 0.7702099978923798
vt 0.16612300276756287 0.7696229964494705
vt 0.16559599339962006 0.8185359984636307
vt 0.14240700006484985 0.8188509941101074
vt 0.08842500299215317 0.7320730090141296
vt 0.08665599673986435 0.7173250019550323
vt 0.06659000366926193 0.7321830093860626
vt 0.062261998653411865 0.7185269892215729
vt 0.03229999914765358 0.732897013425827
vt 0.03156999871134758 0.7224999964237213
vt 0.03023100085556507 0.7152029871940613
vt 0.006053000222891569 0.7222650051116943
vt 0.0083600003272295 0.716511994600296
vt 0.03294700011610985 0.77046699821949
vt 0.041742999106645584 0.8170309960842133
vt 0.021767999976873398 0.8189699947834015
vt 0.009348000399768353 0.7728520035743713
vt 0.06107199937105179 0.7696730047464371
vt 0.08654499799013138 0.7698390036821365
vt 0.11405199766159058 0.8184929937124252
vt 0.06492599844932556 0.8176469951868057
vt 0.09099999815225601 0.8179969936609268
vt 0.36221298575401306 0.7515159994363785
vt 0.35936400294303894 0.7924750000238419
vt 0.34360700845718384 0.7847599983215332
vt 0.3321940004825592 0.7647880017757416
vt 0.3282279968261719 0.7459590137004852
vt 0.33323898911476135 0.7288419902324677
vt 0.3461970090866089 0.7112219929695129
vt 0.3656289875507355 0.7056120038032532
vt 0.1946440041065216 0.7070110142230988
vt 0.1921200007200241 0.7182439863681793
vt 0.2235330045223236 0.7114560008049011
vt 0.22341500222682953 0.7191570103168488
vt 0.21994100511074066 0.8183660060167313
vt 0.19123199582099915 0.8187060058116913
vt 0.1917019933462143 0.7700369954109192
vt 0.22371399402618408 0.7705979943275452
vt 0.1689389944076538 0.729995995759964
vt 0.18968899548053741 0.7314260005950928
vt 0.24792300164699554 0.7203809916973114
vt 0.24925699830055237 0.7120830118656158
vt 0.27106600999832153 0.7135199904441833
vt 0.2689659893512726 0.7210949957370758
vt 0.29504698514938354 0.7228370010852814
vt 0.2959829866886139 0.7166469991207123
vt 0.319599986076355 0.717943012714386
vt 0.3209950029850006 0.7236450016498566
vt 0.32238999009132385 0.7340129911899567
vt 0.3214859962463379 0.7732740044593811
vt 0.2952600121498108 0.7706499993801117
vt 0.29405900835990906 0.7327319979667664
vt 0.28769099712371826 0.8167160004377365
vt 0.26555898785591125 0.8175899982452393
vt 0.27013200521469116 0.7703929990530014
vt 0.24288800358772278 0.8178829997777939
vt 0.24753199517726898 0.7704350054264069
vt 0.3100529909133911 0.8178420066833496
vt 0.3759959936141968 0.7870170027017593
vt 0.39004001021385193 0.7689100056886673
vt 0.3966729938983917 0.7507349997758865
vt 0.39342200756073 0.7327899932861328
vt 0.38321301341056824 0.7137390077114105
vt 0.0034519999753683805 0.7329939901828766
vt 0.2232459932565689 0.7310569882392883
vt 0.2666729986667633 0.7321909964084625
vt 0.24656599760055542 0.7318510115146637
vt 0.11211299896240234 0.7021969854831696
vt 0.08495599776506424 0.7038120031356812
vt 0.057909999042749405 0.7068670094013214
vt 0.9618279933929443 0.9831649996340275
vt 0.9334220290184021 0.9741350002586842
vt 0.9415850043296814 0.9545929990708828
vt 0.9667479991912842 0.9626009985804558
vt 0.9866380095481873 0.9864910002797842
vt 0.9883229732513428 0.9655809998512268
vt 0.7835239768028259 0.873759999871254
vt 0.7873010039329529 0.9062940031290054
vt 0.7771430015563965 0.9143470004200935
vt 0.7686640024185181 0.8741759955883026
vt 0.8152490258216858 0.9154929965734482
vt 0.8081520199775696 0.9300300031900406
vt 0.9083870053291321 0.9639750011265278
vt 0.8960999846458435 0.9582919999957085
vt 0.8966280221939087 0.9341019988059998
vt 0.9194049835205078 0.9456340000033379
vt 0.9910169839859009 0.9271249994635582
vt 0.9705610275268555 0.9241229966282845
vt 0.947858989238739 0.9168009981513023
vt 0.9295889735221863 0.9093850031495094
vt 0.9146130084991455 0.9020169973373413
vt 0.9022160172462463 0.8916020020842552
vt 0.8805140256881714 0.9073290005326271
vt 0.8730350136756897 0.8735619932413101
vt 0.8942340016365051 0.8738120049238205
vt 0.8455449938774109 0.8737459927797318
vt 0.8617910146713257 0.8735959976911545
vt 0.8631250262260437 0.9058099985122681
vt 0.844618022441864 0.9049500003457069
vt 0.8430410027503967 0.9400519989430904
vt 0.8479809761047363 0.9234319999814034
vt 0.8710629940032959 0.9284410029649734
vt 0.8689370155334473 0.947953999042511
vt 0.8004570007324219 0.8737200051546097
vt 0.7982180118560791 0.8992339968681335
vt 0.8049539923667908 0.9355380013585091
vt 0.7741879820823669 0.9172360002994537
vt 0.84129798412323 0.9461839981377125
vt 0.8669899702072144 0.9541589990258217
vt 0.9061620235443115 0.9700959995388985
vt 0.8933889865875244 0.9642620012164116
vt 0.9301009774208069 0.9798429999500513
vt 0.9604960083961487 0.9895360004156828
vt 0.9858909845352173 0.9931210000067949
vt 0.7631139755249023 0.8744509965181351
vt 0.8170289993286133 0.9019000008702278
vt 0.8185999989509583 0.8737529963254929
vt 0.967602014541626 0.7852129936218262
vt 0.9423660039901733 0.7941119968891144
vt 0.9336230158805847 0.7748460024595261
vt 0.9618160128593445 0.7648800015449524
vt 0.9838629961013794 0.7605070024728775
vt 0.9866030216217041 0.781361997127533
vt 0.7756310105323792 0.831824004650116
vt 0.7849860191345215 0.8391720056533813
vt 0.8086789846420288 0.8177160024642944
vt 0.8154029846191406 0.8316799998283386
vt 0.8969259858131409 0.7915239930152893
vt 0.9088860154151917 0.7855859994888306
vt 0.9201840162277222 0.8036119937896729
vt 0.8915280103683472 0.8182490020990372
vt 0.9909989833831787 0.8197519928216934
vt 0.972540020942688 0.8235359936952591
vt 0.9497010111808777 0.8316929936408997
vt 0.931056022644043 0.8395649939775467
vt 0.9105629920959473 0.8498560041189194
vt 0.902383029460907 0.858474999666214
vt 0.8808580040931702 0.8429969996213913
vt 0.8446369767189026 0.8436210006475449
vt 0.8631740212440491 0.8436550050973892
vt 0.8344720005989075 0.8101630061864853
vt 0.8697450160980225 0.8011669963598251
vt 0.8714280128479004 0.8206550031900406
vt 0.8391420245170593 0.8268799930810928
vt 0.7985069751739502 0.846778005361557
vt 0.7724090218544006 0.8293710052967072
vt 0.8056880235671997 0.8120640069246292
vt 0.8328580260276794 0.8039879947900772
vt 0.8678920269012451 0.7949029952287674
vt 0.894074022769928 0.7852180004119873
vt 0.9064149856567383 0.7792070060968399
vt 0.9300270080566406 0.7689020037651062
vt 0.9601550102233887 0.7581930011510849
vt 0.9827650189399719 0.753599002957344
vt 0.8169580101966858 0.8441829979419708
vt 0.6690660119056702 0.8627350032329559
vt 0.7107849717140198 0.8964330032467842
vt 0.6688759922981262 0.8752899989485741
vt 0.6748899817466736 0.8409679979085922
vt 0.6901379823684692 0.8178769946098328
vt 0.7116619944572449 0.812052994966507
vt 0.6761929988861084 0.983381999656558
vt 0.7107409834861755 0.9877960002049804
vt 0.6723819971084595 0.9559689983725548
vt 0.6710249781608582 0.9240629971027374
vt 0.6697859764099121 0.9004200026392937
vt 0.7520279884338379 0.8759120032191277
vt 0.7520260214805603 0.8633539974689484
vt 0.7461360096931458 0.841499999165535
vt 0.7308440208435059 0.8181809931993484
vt 0.7470489740371704 0.9858219996094704
vt 0.7487900257110596 0.9565399996936321
vt 0.7506309747695923 0.9329029992222786
vt 0.7518680095672607 0.9010350033640862
vt 0.6593049764633179 0.9546380005776882
vt 0.6241769790649414 0.9638889990746975
vt 0.6457020044326782 0.9412260018289089
vt 0.5896210074424744 0.9576059989631176
vt 0.5892999768257141 0.9747030008584261
vt 0.6021320223808289 0.9420190006494522
vt 0.6166300177574158 0.9334160014986992
vt 0.6315680146217346 0.9334210008382797
vt 0.6544690132141113 0.9712409991770983
vt 0.5982850193977356 0.9872700003907084
vt 0.6172199845314026 0.9936730000190437
vt 0.6341710090637207 0.9934709998778999
vt 0.6517170071601868 0.9839779995381832
vt 0.3627279996871948 0.5064480006694794
vt 0.328002005815506 0.5045329928398132
vt 0.32804301381111145 0.5174880027770996
vt 0.36061400175094604 0.518981009721756
vt 0.39206698536872864 0.5210970044136047
vt 0.39563900232315063 0.5068950057029724
vt 0.4297429919242859 0.5232999920845032
vt 0.43015700578689575 0.508336991071701
vt 0.3649829924106598 0.49265098571777344
vt 0.39877399802207947 0.49441301822662354
vt 0.39789900183677673 0.4757630228996277
vt 0.3648490011692047 0.47307002544403076
vt 0.35931798815727234 0.5324279963970184
vt 0.32415899634361267 0.5304040014743805
vt 0.3237150013446808 0.5460180044174194
vt 0.36107298731803894 0.5471180081367493
vt 0.3946940004825592 0.5342530012130737
vt 0.39392000436782837 0.5477089881896973
vt 0.4285379946231842 0.5486359894275665
vt 0.4282110035419464 0.5358049869537354
vt 0.4354279935359955 0.4955329895019531
vt 0.43527498841285706 0.47592300176620483
vt 0.33528000116348267 0.4713420271873474
vt 0.3322780132293701 0.49311697483062744
vt 0.9731150269508362 0.5929639935493469
vt 0.9629009962081909 0.6243259906768799
vt 0.9826440215110779 0.6322570145130157
vt 0.9944409728050232 0.5946219861507416
vt 0.9736890196800232 0.5625460147857666
vt 0.9956830143928528 0.5494140088558197
vt 0.9804909825325012 0.46490001678466797
vt 0.9934989809989929 0.4274889826774597
vt 0.9672679901123047 0.42591798305511475
vt 0.9557350277900696 0.45831799507141113
vt 0.9890519976615906 0.13828802108764648
vt 0.9659900069236755 0.1338149905204773
vt 0.9635589718818665 0.1603410243988037
vt 0.9875670075416565 0.16750800609588623
vt 0.9681230187416077 0.10599899291992188
vt 0.9907500147819519 0.10776400566101074
vt 0.9862419962882996 0.07187998294830322
vt 0.9654060006141663 0.07361102104187012
vt 0.9734489917755127 0.27638697624206543
vt 0.9646270275115967 0.3012719750404358
vt 0.9785029888153076 0.316910982131958
vt 0.9935389757156372 0.2827339768409729
vt 0.9737390279769897 0.24722397327423096
vt 0.9973350167274475 0.2502179741859436
vt 0.9711350202560425 0.40111100673675537
vt 0.9960839748382568 0.4034159779548645
vt 0.9659410119056702 0.6315630078315735
vt 0.9818230271339417 0.6333790123462677
vt 0.324429988861084 0.5243430137634277
vt 0.3586510121822357 0.5242330133914948
vt 0.328141987323761 0.5013050138950348
vt 0.3602379858493805 0.5028240084648132
vt 0.3906880021095276 0.525285005569458
vt 0.39667201042175293 0.5031859874725342
vt 0.42669200897216797 0.5264270007610321
vt 0.42879998683929443 0.5041730105876923
vt 0.36254000663757324 0.5009419918060303
vt 0.4006820023059845 0.5023910105228424
vt 0.36269599199295044 0.4649519920349121
vt 0.40014100074768066 0.4670860171318054
vt 0.324521005153656 0.5498200058937073
vt 0.36173200607299805 0.5533750057220459
vt 0.35951700806617737 0.5268020033836365
vt 0.3250660002231598 0.5259189903736115
vt 0.3920229971408844 0.5559479892253876
vt 0.39450201392173767 0.5282939970493317
vt 0.42679399251937866 0.5557630062103271
vt 0.9953830242156982 0.2453780174255371
vt 0.978564977645874 0.24369901418685913
vt 0.4254299998283386 0.530936986207962
vt 0.43810901045799255 0.46977102756500244
vt 0.43831300735473633 0.5022239983081818
vt 0.3276970088481903 0.4994490146636963
vt 0.3317529857158661 0.464896023273468

usemtl Material

f 1/1/1 2/2/2 3/3/3
f 3/3/3 4/4/4 1/1/1
f 2/2/2 1/1/1 5/5/5
f 5/5/5 6/6/6 2/2/2
f 7/7/7 8/8/8 9/9/9
f 9/9/9 10/10/10 7/7/7
f 11/11/11 7/7/7 10/10/10
f 10/10/10 12/12/12 11/11/11
f 11/11/11 12/12/12 13/13/13
f 13/13/13 14/14/14 11/11/11
f 14/14/14 13/13/13 15/15/15
f 15/15/15 16/16/16 14/14/14
f 16/16/16 15/15/15 17/17/17
f 17/17/17 18/18/18 16/16/16
f 18/18/18 17/17/17 19/19/19
f 19/19/19 20/20/20 18/18/18
f 20/20/20 19/19/19 21/21/21
f 21/21/21 22/22/22 20/20/20
f 23/23/23 22/22/22 21/21/21
f 21/21/21 24/24/24 23/23/23
f 23/23/23 24/24/24 25/25/25
f 25/25/25 26/26/26 23/23/23
f 26/26/26 25/25/25 4/4/4
f 4/4/4 3/3/3 26/26/26
f 27/27/27 28/28/28 29/29/29
f 29/29/29 30/30/30 27/27/27
f 31/31/31 30/30/30 29/29/29
f 29/29/29 32/32/32 31/31/31
f 33/33/33 34/34/34 31/31/31
f 31/31/31 32/32/32 33/33/33
f 34/34/34 33/33/33 35/35/35
f 35/35/35 36/36/36 34/34/34
f 37/37/37 36/36/36 35/35/35
f 35/35/35 38/38/38 37/37/37
f 38/38/38 39/39/39 40/40/40
f 40/40/40 37/37/37 38/38/38
f 39/39/39 41/41/41 42/42/42
f 42/42/42 40/40/40 39/39/39
f 42/42/42 41/41/41 43/43/43
f 43/43/43 44/44/44 42/42/42
f 45/45/45 46/46/46 47/47/47
f 47/47/47 48/48/48 45/45/45
f 49/49/49 50/50/50 48/48/48
f 48/48/48 47/47/47 49/49/49
f 49/49/49 51/51/51 52/52/52
f 52/52/52 50/50/50 49/49/49
f 53/53/53 54/54/54 55/55/55
f 53/53/53 56/56/56 54/54/54
f 53/53/53 57/57/57 56/56/56
f 53/53/53 58/58/58 57/57/57
f 53/53/53 59/59/59 58/58/58
f 53/53/53 60/60/60 59/59/59
f 53/53/53 61/61/61 60/60/60
f 53/53/53 62/62/62 61/61/61
f 53/53/53 63/63/63 62/62/62
f 53/53/53 64/64/64 63/63/63
f 53/53/53 65/65/65 64/64/64
f 53/53/53 55/55/55 65/65/65
f 28/28/28 27/27/27 52/52/52
f 52/52/52 51/51/51 28/28/28
f 20/20/20 22/22/22 30/30/30
f 30/30/30 31/31/31 20/20/20
f 20/20/20 31/31/31 34/34/34
f 34/34/34 18/18/18 20/20/20
f 16/16/16 18/18/18 34/34/34
f 34/34/34 36/36/36 16/16/16
f 37/37/37 14/14/14 16/16/16
f 16/16/16 36/36/36 37/37/37
f 40/40/40 11/11/11 14/14/14
f 14/14/14 37/37/37 40/40/40
f 11/11/11 40/40/40 42/42/42
f 42/42/42 7/7/7 11/11/11
f 6/6/6 45/45/45 48/48/48
f 48/48/48 2/2/2 6/6/6
f 3/3/3 2/2/2 48/48/48
f 48/48/48 50/50/50 3/3/3
f 52/52/52 26/26/26 3/3/3
f 3/3/3 50/50/50 52/52/52
f 27/27/27 23/23/23 26/26/26
f 26/26/26 52/52/52 27/27/27
f 23/23/23 27/27/27 30/30/30
f 30/30/30 22/22/22 23/23/23
f 7/7/7 42/42/42 44/44/44
f 44/44/44 8/8/8 7/7/7
f 66/66/66 67/67/67 68/68/68
f 68/68/68 69/69/69 66/66/66
f 66/66/66 70/70/70 71/71/71
f 71/71/71 72/72/72 66/66/66
f 70/70/70 73/73/73 74/74/74
f 74/74/74 71/71/71 70/70/70
f 75/75/75 76/76/76 77/77/77
f 77/77/77 73/73/73 75/75/75
f 72/72/72 71/71/71 78/78/78
f 78/78/78 79/79/79 72/72/72
f 80/80/80 81/81/81 79/79/79
f 79/79/79 78/78/78 80/80/80
f 81/81/81 80/80/80 82/82/82
f 82/82/82 83/83/83 81/81/81
f 84/84/84 83/83/83 85/85/85
f 85/85/85 86/86/86 84/84/84
f 87/87/87 88/88/88 89/89/89
f 89/89/89 90/90/90 87/87/87
f 91/91/91 87/87/87 82/82/82
f 82/82/82 80/80/80 91/91/91
f 78/78/78 92/92/92 91/91/91
f 91/91/91 80/80/80 78/78/78
f 78/78/78 71/71/71 74/74/74
f 74/74/74 92/92/92 78/78/78
f 77/77/77 29/29/29 28/28/28
f 28/28/28 93/93/93 77/77/77
f 76/76/76 32/32/32 29/29/29
f 29/29/29 77/77/77 76/76/76
f 47/47/47 46/46/46 89/89/89
f 89/89/89 88/88/88 47/47/47
f 47/47/47 88/88/88 94/94/94
f 94/94/94 49/49/49 47/47/47
f 95/95/95 51/51/51 49/49/49
f 49/49/49 94/94/94 95/95/95
f 95/95/95 93/93/93 28/28/28
f 28/28/28 51/51/51 95/95/95
f 96/96/96 97/97/97 98/98/98
f 96/96/96 98/98/98 99/99/99
f 96/96/96 99/99/99 100/100/100
f 96/96/96 100/100/100 101/101/101
f 96/96/96 101/101/101 102/102/102
f 96/96/96 102/102/102 103/103/103
f 68/68/68 104/104/104 105/105/105
f 105/105/105 69/69/69 68/68/68
f 104/104/104 106/106/106 107/107/107
f 107/107/107 105/105/105 104/104/104
f 108/108/108 109/109/109 110/110/110
f 110/110/110 111/111/111 108/108/108
f 110/110/110 75/75/75 112/112/112
f 112/112/112 113/113/113 110/110/110
f 114/114/114 107/107/107 106/106/106
f 106/106/106 115/115/115 114/114/114
f 114/114/114 115/115/115 116/116/116
f 116/116/116 117/117/117 114/114/114
f 118/118/118 117/117/117 116/116/116
f 116/116/116 119/119/119 118/118/118
f 120/120/120 121/121/121 118/118/118
f 118/118/118 119/119/119 120/120/120
f 122/122/122 123/123/123 124/124/124
f 124/124/124 125/125/125 122/122/122
f 126/126/126 127/127/127 128/128/128
f 128/128/128 124/124/124 126/126/126
f 129/129/129 130/130/130 128/128/128
f 128/128/128 127/127/127 129/129/129
f 129/129/129 108/108/108 111/111/111
f 111/111/111 130/130/130 129/129/129
f 108/108/108 35/35/35 33/33/33
f 33/33/33 109/109/109 108/108/108
f 109/109/109 33/33/33 32/32/32
f 32/32/32 76/76/76 109/109/109
f 43/43/43 41/41/41 126/126/126
f 126/126/126 131/131/131 43/43/43
f 127/127/127 126/126/126 41/41/41
f 41/41/41 39/39/39 127/127/127
f 129/129/129 127/127/127 39/39/39
f 39/39/39 38/38/38 129/129/129
f 38/38/38 35/35/35 108/108/108
f 108/108/108 129/129/129 38/38/38
f 97/97/97 96/96/96 132/132/132
f 132/132/132 96/96/96 133/133/133
f 133/133/133 96/96/96 134/134/134
f 134/134/134 96/96/96 135/135/135
f 135/135/135 96/96/96 136/136/136
f 136/136/136 96/96/96 103/103/103
f 93/93/93 74/74/74 73/73/73
f 73/73/73 77/77/77 93/93/93
f 112/112/112 75/75/75 73/73/73
f 73/73/73 70/70/70 112/112/112
f 90/90/90 137/137/137 82/82/82
f 82/82/82 87/87/87 90/90/90
f 88/88/88 87/87/87 91/91/91
f 91/91/91 94/94/94 88/88/88
f 94/94/94 91/91/91 92/92/92
f 92/92/92 95/95/95 94/94/94
f 93/93/93 95/95/95 92/92/92
f 92/92/92 74/74/74 93/93/93
f 138/138/138 111/111/111 110/110/110
f 110/110/110 113/113/113 138/138/138
f 75/75/75 110/110/110 109/109/109
f 109/109/109 76/76/76 75/75/75
f 126/126/126 124/124/124 123/123/123
f 123/123/123 131/131/131 126/126/126
f 128/128/128 139/139/139 125/125/125
f 125/125/125 124/124/124 128/128/128
f 130/130/130 140/140/140 139/139/139
f 139/139/139 128/128/128 130/130/130
f 138/138/138 140/140/140 130/130/130
f 130/130/130 111/111/111 138/138/138
f 112/112/112 70/70/70 66/66/66
f 66/66/66 69/69/69 112/112/112
f 141/141/141 67/67/67 66/66/66
f 66/66/66 72/72/72 141/141/141
f 72/72/72 79/79/79 142/142/142
f 142/142/142 141/141/141 72/72/72
f 81/81/81 143/143/143 142/142/142
f 142/142/142 79/79/79 81/81/81
f 84/84/84 143/143/143 81/81/81
f 81/81/81 83/83/83 84/84/84
f 137/137/137 85/85/85 83/83/83
f 83/83/83 82/82/82 137/137/137
f 112/112/112 69/69/69 105/105/105
f 105/105/105 113/113/113 112/112/112
f 105/105/105 107/107/107 138/138/138
f 138/138/138 113/113/113 105/105/105
f 138/138/138 107/107/107 114/114/114
f 114/114/114 140/140/140 138/138/138
f 114/114/114 117/117/117 139/139/139
f 139/139/139 140/140/140 114/114/114
f 125/125/125 139/139/139 117/117/117
f 117/117/117 118/118/118 125/125/125
f 118/118/118 121/121/121 122/122/122
f 122/122/122 125/125/125 118/118/118
f 144/144/144 145/145/145 146/146/146
f 146/146/146 147/147/147 144/144/144
f 148/148/148 144/144/144 147/147/147
f 147/147/147 149/149/149 148/148/148
f 150/150/150 151/151/151 152/152/152
f 152/152/152 153/153/153 150/150/150
f 152/152/152 151/151/151 154/154/154
f 154/154/154 155/155/155 152/152/152
f 156/156/156 157/157/157 158/158/158
f 158/158/158 159/159/159 156/156/156
f 156/156/156 159/159/159 146/146/146
f 146/146/146 145/145/145 156/156/156
f 160/160/160 149/149/149 147/147/147
f 147/147/147 161/161/161 160/160/160
f 161/161/161 147/147/147 146/146/146
f 146/146/146 162/162/162 161/161/161
f 159/159/159 163/163/163 162/162/162
f 162/162/162 146/146/146 159/159/159
f 158/158/158 164/164/164 163/163/163
f 163/163/163 159/159/159 158/158/158
f 165/165/165 164/164/164 158/158/158
f 158/158/158 166/166/166 165/165/165
f 166/166/166 167/167/167 168/168/168
f 168/168/168 165/165/165 166/166/166
f 169/169/169 170/170/170 171/171/171
f 171/171/171 172/172/172 169/169/169
f 173/173/173 174/174/174 175/175/175
f 175/175/175 176/176/176 173/173/173
f 172/172/172 171/171/171 175/175/175
f 175/175/175 174/174/174 172/172/172
f 173/173/173 155/155/155 154/154/154
f 154/154/154 174/174/174 173/173/173
f 151/151/151 150/150/150 177/177/177
f 177/177/177 178/178/178 151/151/151
f 179/179/179 180/180/180 152/152/152
f 152/152/152 155/155/155 179/179/179
f 155/155/155 173/173/173 181/181/181
f 181/181/181 179/179/179 155/155/155
f 182/182/182 181/181/181 173/173/173
f 173/173/173 176/176/176 182/182/182
f 157/157/157 156/156/156 183/183/183
f 183/183/183 184/184/184 157/157/157
f 183/183/183 156/156/156 145/145/145
f 145/145/145 185/185/185 183/183/183
f 186/186/186 185/185/185 145/145/145
f 145/145/145 144/144/144 186/186/186
f 186/186/186 144/144/144 148/148/148
f 148/148/148 187/187/187 186/186/186
f 153/153/153 152/152/152 180/180/180
f 180/180/180 188/188/188 153/153/153
f 189/189/189 172/172/172 174/174/174
f 174/174/174 154/154/154 189/189/189
f 172/172/172 189/189/189 190/190/190
f 190/190/190 169/169/169 172/172/172
f 184/184/184 182/182/182 176/176/176
f 176/176/176 157/157/157 184/184/184
f 175/175/175 158/158/158 157/157/157
f 157/157/157 176/176/176 175/175/175
f 175/175/175 171/171/171 166/166/166
f 166/166/166 158/158/158 175/175/175
f 170/170/170 167/167/167 166/166/166
f 166/166/166 171/171/171 170/170/170
f 177/177/177 190/190/190 189/189/189
f 189/189/189 178/178/178 177/177/177
f 154/154/154 151/151/151 178/178/178
f 178/178/178 189/189/189 154/154/154
f 191/191/191 192/192/192 193/193/193
f 193/193/193 194/194/194 191/191/191
f 191/191/191 194/194/194 195/195/195
f 195/195/195 196/196/196 191/191/191
f 150/150/150 153/153/153 197/197/197
f 197/197/197 198/198/198 150/150/150
f 197/197/197 199/199/199 200/200/200
f 200/200/200 198/198/198 197/197/197
f 201/201/201 202/202/202 203/203/203
f 203/203/203 204/204/204 201/201/201
f 202/202/202 193/193/193 192/192/192
f 192/192/192 203/203/203 202/202/202
f 191/191/191 196/196/196 205/205/205
f 205/205/205 206/206/206 191/191/191
f 192/192/192 191/191/191 206/206/206
f 206/206/206 207/207/207 192/192/192
f 203/203/203 192/192/192 207/207/207
f 207/207/207 208/208/208 203/203/203
f 203/203/203 208/208/208 209/209/209
f 209/209/209 204/204/204 203/203/203
f 209/209/209 210/210/210 211/211/211
f 211/211/211 204/204/204 209/209/209
f 168/168/168 167/167/167 211/211/211
f 211/211/211 210/210/210 168/168/168
f 169/169/169 212/212/212 213/213/213
f 213/213/213 170/170/170 169/169/169
f 214/214/214 215/215/215 216/216/216
f 216/216/216 217/217/217 214/214/214
f 216/216/216 213/213/213 212/212/212
f 212/212/212 217/217/217 216/216/216
f 217/217/217 200/200/200 199/199/199
f 199/199/199 214/214/214 217/217/217
f 177/177/177 150/150/150 198/198/198
f 198/198/198 218/218/218 177/177/177
f 197/197/197 219/219/219 220/220/220
f 220/220/220 199/199/199 197/197/197
f 221/221/221 214/214/214 199/199/199
f 199/199/199 220/220/220 221/221/221
f 214/214/214 221/221/221 222/222/222
f 222/222/222 215/215/215 214/214/214
f 223/223/223 224/224/224 202/202/202
f 202/202/202 201/201/201 223/223/223
f 202/202/202 224/224/224 225/225/225
f 225/225/225 193/193/193 202/202/202
f 194/194/194 193/193/193 225/225/225
f 225/225/225 226/226/226 194/194/194
f 226/226/226 227/227/227 195/195/195
f 195/195/195 194/194/194 226/226/226
f 197/197/197 153/153/153 188/188/188
f 188/188/188 219/219/219 197/197/197
f 212/212/212 228/228/228 200/200/200
f 200/200/200 217/217/217 212/212/212
f 169/169/169 190/190/190 228/228/228
f 228/228/228 212/212/212 169/169/169
f 222/222/222 223/223/223 201/201/201
f 201/201/201 215/215/215 222/222/222
f 216/216/216 215/215/215 201/201/201
f 201/201/201 204/204/204 216/216/216
f 204/204/204 211/211/211 213/213/213
f 213/213/213 216/216/216 204/204/204
f 170/170/170 213/213/213 211/211/211
f 211/211/211 167/167/167 170/170/170
f 218/218/218 228/228/228 190/190/190
f 190/190/190 177/177/177 218/218/218
f 200/200/200 228/228/228 218/218/218
f 218/218/218 198/198/198 200/200/200
f 229/229/229 230/230/230 231/231/231
f 232/232/232 230/230/230 229/229/229
f 233/233/233 230/230/230 232/232/232
f 234/234/234 230/230/230 233/233/233
f 235/235/235 230/230/230 236/236/236
f 237/237/237 230/230/230 235/235/235
f 238/238/238 230/230/230 237/237/237
f 231/231/231 230/230/230 239/239/239
f 239/239/239 230/230/230 238/238/238
f 240/240/240 230/230/230 241/241/241
f 241/241/241 230/230/230 242/242/242
f 242/242/242 230/230/230 243/243/243
f 243/243/243 230/230/230 234/234/234
f 236/236/236 230/230/230 244/244/244
f 244/244/244 230/230/230 245/245/245
f 245/245/245 230/230/230 246/246/246
f 247/247/247 230/230/230 240/240/240
f 246/246/246 230/230/230 247/247/247
f 248/248/248 249/249/249 250/250/250
f 251/251/251 249/249/249 252/252/252
f 253/253/253 249/249/249 251/251/251
f 254/254/254 249/249/249 253/253/253
f 255/255/255 249/249/249 254/254/254
f 250/250/250 249/249/249 255/255/255
f 256/256/256 249/249/249 248/248/248
f 252/252/252 249/249/249 257/257/257
f 257/257/257 249/249/249 258/258/258
f 258/258/258 249/249/249 259/259/259
f 259/259/259 249/249/249 260/260/260
f 260/260/260 249/249/249 256/256/256
f 261/261/261 262/262/262 263/263/263
f 263/263/263 264/264/264 261/261/261
f 261/261/261 264/264/264 265/265/265
f 265/265/265 266/266/266 261/261/261
f 267/267/267 268/268/268 266/266/266
f 266/266/266 265/265/265 267/267/267
f 269/269/269 270/270/270 271/271/271
f 271/271/271 272/272/272 269/269/269
f 273/273/273 274/274/274 275/275/275
f 275/275/275 276/276/276 273/273/273
f 277/277/277 273/273/273 276/276/276
f 276/276/276 278/278/278 277/277/277
f 279/279/279 280/280/280 277/277/277
f 277/277/277 278/278/278 279/279/279
f 270/270/270 281/281/281 282/282/282
f 282/282/282 271/271/271 270/270/270
f 272/272/272 283/283/283 284/284/284
f 284/284/284 269/269/269 272/272/272
f 285/285/285 286/286/286 287/287/287
f 287/287/287 288/288/288 285/285/285
f 289/289/289 285/285/285 288/288/288
f 288/288/288 290/290/290 289/289/289
f 291/291/291 292/292/292 293/293/293
f 293/293/293 294/294/294 291/291/291
f 295/295/295 296/296/296 297/297/297
f 297/297/297 298/298/298 295/295/295
f 299/299/299 300/300/300 301/301/301
f 301/301/301 302/302/302 299/299/299
f 303/303/303 304/304/304 305/305/305
f 305/305/305 306/306/306 303/303/303
f 307/307/307 303/303/303 306/306/306
f 306/306/306 308/308/308 307/307/307
f 299/299/299 296/296/296 295/295/295
f 295/295/295 300/300/300 299/299/299
f 309/309/309 293/293/293 292/292/292
f 292/292/292 310/310/310 309/309/309
f 311/311/311 312/312/312 287/287/287
f 287/287/287 286/286/286 311/311/311
f 313/313/313 314/314/314 264/264/264
f 264/264/264 263/263/263 313/313/313
f 315/315/315 262/262/262 261/261/261
f 261/261/261 316/316/316 315/315/315
f 314/314/314 317/317/317 265/265/265
f 265/265/265 264/264/264 314/314/314
f 266/266/266 318/318/318 316/316/316
f 316/316/316 261/261/261 266/266/266
f 317/317/317 319/319/319 267/267/267
f 267/267/267 265/265/265 317/317/317
f 318/318/318 266/266/266 268/268/268
f 268/268/268 320/320/320 318/318/318
f 321/321/321 322/322/322 270/270/270
f 270/270/270 269/269/269 321/321/321
f 323/323/323 272/272/272 271/271/271
f 271/271/271 324/324/324 323/323/323
f 275/275/275 325/325/325 326/326/326
f 326/326/326 276/276/276 275/275/275
f 327/327/327 328/328/328 274/274/274
f 274/274/274 273/273/273 327/327/327
f 278/278/278 276/276/276 326/326/326
f 326/326/326 329/329/329 278/278/278
f 277/277/277 330/330/330 327/327/327
f 327/327/327 273/273/273 277/277/277
f 278/278/278 329/329/329 331/331/331
f 331/331/331 279/279/279 278/278/278
f 307/307/307 308/308/308 332/332/332
f 332/332/332 333/333/333 307/307/307
f 277/277/277 280/280/280 334/334/334
f 334/334/334 330/330/330 277/277/277
f 271/271/271 282/282/282 335/335/335
f 335/335/335 324/324/324 271/271/271
f 336/336/336 281/281/281 270/270/270
f 270/270/270 322/322/322 336/336/336
f 284/284/284 337/337/337 321/321/321
f 321/321/321 269/269/269 284/284/284
f 283/283/283 272/272/272 323/323/323
f 323/323/323 338/338/338 283/283/283