mtllib 39973240.mtl
o Mesh

v 0.1447090059518814 -0.9615050554275513 -0.3831560015678406
v 0.14077100157737732 -1.0191080570220947 -0.3708899915218353
v 0.03992300108075142 -1.0232889652252197 -0.49061301350593567
v 0.042511001229286194 -0.9476619958877563 -0.500353991985321
v 0.2120950073003769 1.008234977722168 0.23583100736141205
v 0.2586440145969391 0.9978539943695068 -0.061441998928785324
v 0.05855700001120567 1.1959259510040283 -0.03903599828481674
v 0.05855700001120567 1.2056939601898193 0.24066700041294098
v 0.0919409990310669 -0.99577796459198 0.29719701409339905
v 0.07557100057601929 -0.9235730171203613 0.28574201464653015
v -0.017808999866247177 -0.9172879457473755 0.42307600378990173
v -0.006490999832749367 -0.9907970428466797 0.4398210048675537
v 0.0919409990310669 -0.99577796459198 0.29719701409339905
v -0.006490999832749367 -0.9907970428466797 0.4398210048675537
v -0.011726000346243382 -0.9992150068283081 0.19877199828624725
v 0.10390599817037582 -1.0018529891967773 0.1232220008969307
v 0.10390599817037582 -1.0018529891967773 0.1232220008969307
v 0.08697199821472168 -0.9292969703674316 0.12183400243520737
v -0.40261900424957275 -1.0018529891967773 0.1232220008969307
v -0.3873389959335327 -0.99577796459198 0.29719701409339905
v -0.3711319863796234 -0.9235730171203613 0.28574201464653015
v -0.3857960104942322 -0.9292960166931152 0.12183400243520737
v -0.04692799970507622 -0.5514669418334961 -0.053346000611782074
v -0.0027209999971091747 -0.356753945350647 -0.09299399703741074
v 0.10418500006198883 -0.38821494579315186 0.007908999919891357
v 0.03318500146269798 -0.6385229825973511 0.04329400137066841
v -0.35319098830223083 -0.3808009624481201 0.2238990068435669
v -0.3650659918785095 -0.3832240104675293 0.1051269993185997
v -0.3305490016937256 -0.6366909742355347 0.12595899403095245
v -0.31759199500083923 -0.6295449733734131 0.22141699492931366
v 0.09689799696207047 -0.385470986366272 0.2240619957447052
v -0.0027209999971091747 -0.3480900526046753 0.3695339858531952
v -0.04692799970507622 -0.6011430025100708 0.34952399134635925
v 0.020228000357747078 -0.6295449733734131 0.22141699492931366
v 0.03318500146269798 -0.6366909742355347 0.12596000730991364
v 0.11366699635982513 -0.38789403438568115 0.1052900031208992
v 0.04890400171279907 1.1897330284118652 -0.21638800203800201
v 0.2120950073003769 0.9911400079727173 -0.2536880075931549
v 0.06767900288105011 0.9811750054359436 -0.39636000990867615
v -0.45282500982284546 0.703294038772583 -0.09155000001192093
v -0.4189609885215759 0.4445359706878662 -0.09443599730730057
v -0.3926689922809601 0.4510459899902344 0.09200000017881393
v -0.42469000816345215 0.7148380279541016 0.16405799984931946
v 0.06771600246429443 1.015673041343689 0.35887300968170166
v 0.17765499651432037 0.4510459899902344 0.09200000017881393
v 0.21750199794769287 0.4445350170135498 -0.09443599730730057
v 0.252687007188797 0.703294038772583 -0.09155000001192093
v 0.21004700660705566 0.7148370146751404 0.16405799984931946
v 0.058612000197172165 0.1559000015258789 -0.39562299847602844
v 0.04266199842095375 0.25578802824020386 -0.3964749872684479
v 0.1457040011882782 0.23274701833724976 -0.22137099504470825
v 0.17093400657176971 0.13563299179077148 -0.1960570067167282
v -0.47657299041748047 0.1317809820175171 -0.01685599982738495
v -0.4652029871940613 0.12940901517868042 0.1698800027370453
v -0.41315600275993347 0.23336297273635864 0.12152499705553055
v -0.4281870126724243 0.2324889898300171 -0.05570099875330925
v 0.17093400657176971 0.12940901517868042 0.1698800027370453
v 0.1457040011882782 0.23336297273635864 0.12152499705553055
v 0.028734000399708748 0.237371027469635 0.283255010843277
v 0.03530700132250786 0.13255298137664795 0.34973201155662537
v 0.19772100448608398 0.13178002834320068 -0.01685599982738495
v 0.1741960048675537 0.2324889898300171 -0.05570099875330925
v 0.10367400199174881 -1.0077641010284424 -0.04602799937129021
v -0.011726000346243382 -1.006756067276001 -0.017184000462293625
v 0.02314699999988079 -1.0151300430297852 -0.25696900486946106
v 0.13859300315380096 -1.01350998878479 -0.21056599915027618
v 0.128152996301651 -0.9462319612503052 -0.21161800622940063
v 0.08138299733400345 -0.918550968170166 -0.017541000619530678
v 0.10367400199174881 -1.0077641010284424 -0.04602799937129021
v 0.13859300315380096 -1.01350998878479 -0.21056599915027618
v -0.028915999457240105 -0.7444560527801514 -0.08410400152206421
v 0.059505999088287354 -0.8309979438781738 0.0104160001501441
v 0.11790800094604492 -0.8793220520019531 -0.18732300400733948
v 0.016154000535607338 -0.8457499742507935 -0.3115859925746918
v -0.3983060121536255 -1.0077641010284424 -0.04602799937129021
v -0.3816570043563843 -0.918550968170166 -0.017541000619530678
v -0.42597100138664246 -0.9462319612503052 -0.21161800622940063
v -0.4333440065383911 -1.0135090351104736 -0.21056599915027618
v -0.35853201150894165 0.1559000015258789 -0.39562299847602844
v -0.4652029871940613 0.13563299179077148 -0.1960580050945282
v -0.41522398591041565 0.23274797201156616 -0.22137099504470825
v -0.31871598958969116 0.25600701570510864 -0.3964880108833313
v -0.360478013753891 -0.38354599475860596 0.007745999842882156
v -0.2664569914340973 -0.3536410331726074 -0.09310200065374374
v -0.2537730038166046 -0.5514669418334961 -0.053346000611782074
v -0.3305490016937256 -0.6385229825973511 0.04329400137066841
v -0.2704859972000122 -0.7444560527801514 -0.0841049998998642
v -0.3164229989051819 -0.8457499742507935 -0.3115859925746918
v -0.41873499751091003 -0.8793209791183472 -0.18732300400733948
v -0.36531901359558105 -0.8309979438781738 0.0104160001501441
v -0.3405799865722656 -1.0232889652252197 -0.49061301350593567
v -0.4356270134449005 -1.0191080570220947 -0.3708899915218353
v -0.43940499424934387 -0.9615050554275513 -0.3831560015678406
v -0.34308600425720215 -0.9476619958877563 -0.500353991985321
v -0.32367900013923645 -1.0151300430297852 -0.25696900486946106
v -0.288004994392395 -1.006756067276001 -0.017184000462293625
v -0.3983060121536255 -1.0077641010284424 -0.04602799937129021
v -0.4333440065383911 -1.0135090351104736 -0.21056599915027618
v -0.288004994392395 -0.9992150068283081 0.19877199828624725
v -0.2932789921760559 -0.9907970428466797 0.4398210048675537
v -0.3873389959335327 -0.99577796459198 0.29719701409339905
v -0.40261900424957275 -1.0018529891967773 0.1232220008969307
v -0.2817760109901428 -0.9172879457473755 0.42307600378990173
v -0.2932789921760559 -0.9907970428466797 0.4398210048675537
v -0.2537739872932434 -0.6011430025100708 0.34952399134635925
v -0.2664569914340973 -0.3449770212173462 0.3694249987602234
v -0.33522599935531616 0.13255298137664795 0.3497309982776642
v -0.30059999227523804 0.23637902736663818 0.2832129895687103
v -0.4624229967594147 1.008234977722168 0.23583100736141205
v -0.3239549994468689 1.0023850202560425 0.35827499628067017
v -0.333297997713089 1.2056939601898193 0.24066700041294098
v -0.333297997713089 1.1959270238876343 -0.03903599828481674
v -0.493137001991272 0.9978539943695068 -0.061441998928785324
v -0.4624229967594147 0.9911410212516785 -0.2536889910697937
v -0.3225089907646179 1.1897330284118652 -0.216389000415802
v -0.3239920139312744 0.9841020107269287 -0.39652299880981445
v -0.07520999759435654 0.16408002376556396 -0.4371449947357178
v -0.07675299793481827 0.2780640125274658 -0.43147900700569153
v -0.11714199930429459 -0.5277650356292725 -0.07434900104999542
v -0.09622900187969208 -0.34438300132751465 -0.11405199766159058
v -0.10641399770975113 -0.7391719818115234 -0.11446599662303925
v -0.09053900092840195 -0.8394429683685303 -0.34325098991394043
v -0.08214399963617325 -1.0266470909118652 -0.5867769718170166
v -0.08119100332260132 -0.9467270374298096 -0.5957620143890381
v -0.10035800188779831 -1.006756067276001 -0.017184000462293625
v -0.08811700344085693 -1.0157389640808105 -0.2744100093841553
v -0.09849400073289871 -0.9887169599533081 0.4993929862976074
v -0.10035800188779831 -0.9983099699020386 0.2246759980916977
v -0.006490999832749367 -0.9907970428466797 0.4398210048675537
v -0.017808999866247177 -0.9172879457473755 0.42307600378990173
v -0.10249099880456924 -0.91526198387146 0.4810810089111328
v -0.09849400073289871 -0.9887169599533081 0.4993929862976074
v -0.04692799970507622 -0.6011430025100708 0.34952399134635925
v -0.0027209999971091747 -0.3480900526046753 0.3695339858531952
v -0.09622900187969208 -0.34689903259277344 0.4036349952220917
v -0.11714199930429459 -0.5998870134353638 0.3854939937591553
v -0.07760799676179886 0.2379469871520996 0.3088870048522949
v -0.08356299996376038 0.13361597061157227 0.38019099831581116
v 0.03530700132250786 0.13255298137664795 0.34973201155662537
v 0.028734000399708748 0.237371027469635 0.283255010843277
v -0.0671520009636879 1.2056939601898193 0.24066700041294098
v -0.057934001088142395 1.0128129720687866 0.3990190029144287
v -0.0671520009636879 1.195220947265625 -0.059230998158454895
v -0.05797100067138672 0.9808109998703003 -0.4337269961833954
v -0.07024700194597244 1.1884299516677856 -0.2537040114402771
v 0.16693800687789917 0.025407016277313232 -0.1954299956560135
v 0.04753100126981735 0.030553996562957764 -0.3674919903278351
v 0.19182200729846954 0.025979995727539062 -0.019318999722599983
v 0.16693800687789917 0.02782297134399414 0.1739560067653656
v 0.03523100167512894 0.032725989818573 0.3638800084590912
v 0.03523100167512894 0.032725989818573 0.3638800084590912
v -0.08020400255918503 0.03395801782608032 0.39917701482772827
v -0.45081499218940735 0.027823984622955322 0.1739560067653656
v -0.32459399104118347 0.032725989818573 0.3638800084590912
v -0.4620150029659271 0.025979995727539062 -0.019318999722599983
v -0.3368949890136719 0.030553996562957764 -0.3674919903278351
v -0.45081499218940735 0.025408029556274414 -0.1954299956560135
v -0.0757950022816658 0.029303014278411865 -0.403315007686615
v -0.3027949929237366 0.6904820203781128 -0.4226050078868866
v -0.29471099376678467 0.4329720139503479 -0.41152000427246094
v -0.39927101135253906 0.43877899646759033 -0.25929000973701477
v -0.42469000816345215 0.6969630122184753 -0.2728469967842102
v -0.049306999891996384 0.6881389617919922 -0.45475998520851135
v 0.0828699991106987 0.6886849999427795 -0.4225040078163147
v 0.06301800161600113 0.4322729706764221 -0.4114820063114166
v -0.06286700069904327 0.4316139817237854 -0.4369400143623352
v 0.21004700660705566 0.6969630122184753 -0.2728460133075714
v 0.17765499651432037 0.43877899646759033 -0.25929000973701477
v 0.08288999646902084 0.7217980027198792 0.3077859878540039
v 0.06302499771118164 0.45706701278686523 0.24291999638080597
v 0.08288999646902084 0.7217980027198792 0.3077859878540039
v -0.04928699880838394 0.7202420234680176 0.3382990062236786
v -0.049653999507427216 0.4567430019378662 0.26286599040031433
v 0.06302499771118164 0.45706701278686523 0.24291999638080597
v -0.28134799003601074 0.45389997959136963 0.24278900027275085
v -0.30277499556541443 0.7136399745941162 0.30742400884628296
v -0.18573400378227234 -0.7391719818115234 -0.11446599662303925
v -0.19974200427532196 -0.8394429683685303 -0.34325098991394043
v -0.2070849984884262 -1.0266470909118652 -0.5867769718170166
v -0.20780399441719055 -0.9467270374298096 -0.5957620143890381
v -0.2019989937543869 -1.0157389640808105 -0.2744100093841553
v -0.19107599556446075 -1.006756067276001 -0.017184000462293625
v -0.19107599556446075 -0.9983099699020386 0.2246759980916977
v -0.19266299903392792 -0.9887169599533081 0.4993929862976074
v -0.18916699290275574 -0.91526198387146 0.4810810089111328
v -0.2817760109901428 -0.9172879457473755 0.42307600378990173
v -0.2932789921760559 -0.9907970428466797 0.4398210048675537
v -0.19266299903392792 -0.9887169599533081 0.4993929862976074
v -0.18650299310684204 -0.34689903259277344 0.4036349952220917
v -0.2664569914340973 -0.3449770212173462 0.3694249987602234
v -0.2537739872932434 -0.6011430025100708 0.34952399134635925
v -0.1769859939813614 -0.5998870134353638 0.3854939937591553
v -0.2052289992570877 0.13361597061157227 0.38019099831581116
v -0.33522599935531616 0.13255298137664795 0.3497309982776642
v -0.32459399104118347 0.032725989818573 0.3638800084590912
v -0.19835400581359863 0.03395897150039673 0.3991760015487671
v -0.19286300241947174 0.23761999607086182 0.3088740110397339
v -0.30059999227523804 0.23637902736663818 0.2832129895687103
v -0.18545499444007874 0.45570099353790283 0.26282399892807007
v -0.18142400681972504 0.7175660133361816 0.3381800055503845
v -0.30277499556541443 0.7136399745941162 0.30742400884628296
v -0.28134799003601074 0.45389997959136963 0.24278900027275085
v -0.19582000374794006 1.2056939601898193 0.24066700041294098
v -0.18654200434684753 1.0084539651870728 0.39882200956344604
v -0.19582000374794006 1.195220947265625 -0.059230998158454895
v -0.19220399856567383 1.1884299516677856 -0.2537040114402771
v -0.18657800555229187 0.9817699790000916 -0.4337800145149231
v -0.18144400417804718 0.6887279748916626 -0.45479199290275574
v -0.1766590029001236 0.43184399604797363 -0.43695300817489624
v -0.2121810019016266 0.16408002376556396 -0.4371449947357178
v -0.1942639946937561 0.2781360149383545 -0.4314819872379303
v -0.2020229995250702 0.029303014278411865 -0.403315007686615
v -0.1910109966993332 -0.34438300132751465 -0.11405199766159058
v -0.18500100076198578 -0.5277650356292725 -0.07434900104999542
v 0.06767900288105011 0.9811750054359436 -0.39636000990867615
v 0.2120950073003769 0.9911400079727173 -0.2536880075931549
v -0.05797100067138672 0.9808109998703003 -0.4337269961833954
v -0.18657800555229187 0.9817699790000916 -0.4337800145149231
v -0.3239920139312744 0.9841020107269287 -0.39652299880981445
v -0.4624229967594147 0.9911410212516785 -0.2536889910697937
v -0.493137001991272 0.9978539943695068 -0.061441998928785324
v -0.4624229967594147 1.008234977722168 0.23583100736141205
v -0.3239549994468689 1.0023850202560425 0.35827499628067017
v -0.18654200434684753 1.0084539651870728 0.39882200956344604
v -0.3239549994468689 1.0023850202560425 0.35827499628067017
v -0.057934001088142395 1.0128129720687866 0.3990190029144287
v 0.06771600246429443 1.015673041343689 0.35887300968170166
v 0.2120950073003769 1.008234977722168 0.23583100736141205
v 0.06771600246429443 1.015673041343689 0.35887300968170166
v 0.2586440145969391 0.9978539943695068 -0.061441998928785324
v 0.059505000710487366 -0.8527100086212158 0.2745009958744049
v -0.02891699969768524 -0.8451470136642456 0.40664300322532654
v -0.02891699969768524 -0.8451470136642456 0.40664300322532654
v -0.10641500353813171 -0.8431750535964966 0.4631099998950958
v -0.18573500216007233 -0.8431750535964966 0.4631099998950958
v -0.2704870104789734 -0.8451459407806396 0.40664300322532654
v -0.355226993560791 -0.8527100086212158 0.2745009958744049
v -0.2704870104789734 -0.8451459407806396 0.40664300322532654
v -0.3692860007286072 -0.8580889701843262 0.1204719990491867
v 0.07035200297832489 -0.8580889701843262 0.1204719990491867
v 0.03318500146269798 -0.6385229825973511 0.04329400137066841
v 0.10418500006198883 -0.38821494579315186 0.007908999919891357
v 0.059505999088287354 -0.8309979438781738 0.0104160001501441
v -0.36531901359558105 -0.8309979438781738 0.0104160001501441
v -0.3305490016937256 -0.6385229825973511 0.04329400137066841
v -0.360478013753891 -0.38354599475860596 0.007745999842882156
v -0.4652029871940613 0.13563299179077148 -0.1960580050945282
v -0.45081499218940735 0.025408029556274414 -0.1954299956560135
v -0.41522398591041565 0.23274797201156616 -0.22137099504470825
v -0.42469000816345215 0.6969630122184753 -0.2728469967842102
v -0.39927101135253906 0.43877899646759033 -0.25929000973701477
v -0.4624229967594147 0.9911410212516785 -0.2536889910697937
v 0.21004700660705566 0.6969630122184753 -0.2728460133075714
v 0.2120950073003769 0.9911400079727173 -0.2536880075931549
v 0.17765499651432037 0.43877899646759033 -0.25929000973701477
v 0.17093400657176971 0.13563299179077148 -0.1960570067167282
v 0.1457040011882782 0.23274701833724976 -0.22137099504470825
v 0.16693800687789917 0.025407016277313232 -0.1954299956560135
v -0.3222709894180298 -0.18303298950195312 -0.1847350001335144
v -0.4428260028362274 -0.20797502994537354 -0.047380998730659485
v -0.44491198658943176 0.00010800361633300781 -0.17215199768543243
v -0.3254390060901642 -9.500980377197266e-05 -0.3169640004634857
v -0.4428260028362274 -0.20797502994537354 -0.047380998730659485
v -0.45086199045181274 -0.20398199558258057 0.07690100371837616
v -0.4561240077018738 0.003443002700805664 -0.007116000168025494
v -0.44491198658943176 0.00010800361633300781 -0.17215199768543243
v -0.43751001358032227 -0.19692003726959229 0.2432280033826828
v -0.44491198658943176 0.00786900520324707 0.18073900043964386
v -0.3222709894180298 -0.15484905242919922 0.41286900639533997
v -0.3196679949760437 0.013647973537445068 0.36780300736427307
v -0.3222709894180298 -0.15484905242919922 0.41286900639533997
v -0.20169800519943237 -0.15357303619384766 0.449411004781723
v -0.1944040060043335 0.014931976795196533 0.4045799970626831
v -0.3196679949760437 0.013647973537445068 0.36780300736427307
v -0.07797300070524216 -0.15357303619384766 0.449411004781723
v -0.07716800272464752 0.014931976795196533 0.4045799970626831
v 0.04545599967241287 -0.15484905242919922 0.41286900639533997
v 0.037372998893260956 0.013647973537445068 0.36780300736427307
v 0.037372998893260956 0.013647973537445068 0.36780300736427307
v 0.04545599967241287 -0.15484905242919922 0.41286900639533997
v 0.1659339964389801 -0.19692003726959229 0.2432280033826828
v 0.1680610030889511 0.00786900520324707 0.18073900043964386
v 0.18785899877548218 -0.20398199558258057 0.07690100371837616
v 0.1920499950647354 0.003443002700805664 -0.007116000168025494
v 0.17125099897384644 -0.20797502994537354 -0.047380998730659485
v 0.1680610030889511 0.00010699033737182617 -0.17215199768543243
v 0.1680610030889511 0.00010699033737182617 -0.17215199768543243
v 0.17125099897384644 -0.20797502994537354 -0.047380998730659485
v 0.04545599967241287 -0.18303298950195312 -0.1847350001335144
v 0.043143998831510544 -9.59634780883789e-05 -0.3169640004634857
v -0.07797300070524216 -0.17580902576446533 -0.20794199407100677
v -0.07509899884462357 -0.0011559724807739258 -0.3473230004310608
v 0.14077100157737732 -1.0191080570220947 -0.3708899915218353
v 0.1447090059518814 -0.9615050554275513 -0.3831560015678406
v 0.14077100157737732 -1.0191080570220947 -0.3708899915218353
v 0.03992300108075142 -1.0232889652252197 -0.49061301350593567
v -0.08214399963617325 -1.0266470909118652 -0.5867769718170166
v -0.2070849984884262 -1.0266470909118652 -0.5867769718170166
v -0.3405799865722656 -1.0232889652252197 -0.49061301350593567
v -0.4356270134449005 -1.0191080570220947 -0.3708899915218353
v -0.4356270134449005 -1.0191080570220947 -0.3708899915218353
v -0.43940499424934387 -0.9615050554275513 -0.3831560015678406
v -0.34554600715637207 -0.8716729879379272 -0.45925599336624146
v -0.44311198592185974 -0.9032039642333984 -0.3445360064506531
v -0.20850999653339386 -0.8665250539779663 -0.5539209842681885
v -0.08025600016117096 -0.8665250539779663 -0.5539209842681885
v 0.045049998909235 -0.8716729879379272 -0.45925599336624146
v 0.14857299625873566 -0.9032039642333984 -0.3445360064506531
v 0.16310599446296692 0.0056729912757873535 -0.008311999961733818
v 0.1409890055656433 0.008831024169921875 0.163564994931221
v 0.021604999899864197 0.013778984546661377 0.3339889943599701
v 0.021604999899864197 0.013778984546661377 0.3339889943599701
v -0.08302900195121765 0.014928996562957764 0.3669080138206482
v -0.1901250034570694 0.014928996562957764 0.3669080138206482
v -0.3045549988746643 0.013778984546661377 0.3339889943599701
v -0.3045549988746643 0.013778984546661377 0.3339889943599701
v -0.41896599531173706 0.008831024169921875 0.163564994931221
v -0.42917999625205994 0.0056729912757873535 -0.008313000202178955
v -0.41896599531173706 0.0035709738731384277 -0.16112400591373444
v -0.41896599531173706 0.0035709738731384277 -0.16112400591373444
v -0.31168699264526367 0.005180001258850098 -0.30024299025535583
v -0.19612500071525574 -0.0011559724807739258 -0.3473230004310608
v -0.1922529935836792 0.004163980484008789 -0.3293350040912628
v -0.08047299832105637 0.004163980484008789 -0.3293350040912628
v 0.028736000880599022 0.005180001258850098 -0.30024299025535583
v 0.1409890055656433 0.0035700201988220215 -0.16112400591373444
v 0.1409890055656433 0.0035700201988220215 -0.16112400591373444
v -0.20498700439929962 -0.17580902576446533 -0.20794199407100677
v -0.41873499751091003 -0.8793209791183472 -0.18732300400733948
v -0.44311198592185974 -0.9032039642333984 -0.3445360064506531
v 0.11790800094604492 -0.8793220520019531 -0.18732300400733948
v 0.14857299625873566 -0.9032039642333984 -0.3445360064506531

vn 0.9286310076713562 0.027739999815821648 -0.3699660003185272
vn 0.7152019739151001 -0.6761230230331421 -0.17704300582408905
vn 0.4778110086917877 -0.7375069856643677 -0.4772630035877228
vn 0.6759030222892761 0.1256610006093979 -0.7261989712715149
vn 0.8605549931526184 0.25929298996925354 0.43841999769210815
vn 0.9369180202484131 0.3481470048427582 -0.031279999762773514
vn 0.3997890055179596 0.9162909984588623 -0.024052999913692474
vn 0.37701699137687683 0.8312690258026123 0.40847301483154297
vn 0.7827320098876953 -0.5476920008659363 0.29557499289512634
vn 0.9176480174064636 0.2547689974308014 0.304982990026474
vn 0.6912699937820435 0.25766900181770325 0.6750940084457397
vn 0.5719770193099976 -0.5561410188674927 0.6029509902000427
vn 0.7827320098876953 -0.5476920008659363 0.29557499289512634
vn 0.5719770193099976 -0.5561410188674927 0.6029509902000427
vn -0.0 -0.9993910193443298 0.0348999984562397
vn 0.7905229926109314 -0.6108090281486511 0.04456799849867821
vn 0.7905229926109314 -0.6108090281486511 0.04456799849867821
vn 0.9730600118637085 0.2299260050058365 0.016982000321149826
vn -0.7909119725227356 -0.6097859740257263 0.051173001527786255
vn -0.7801709771156311 -0.5522480010986328 0.2938610017299652
vn -0.9181860089302063 0.25280699133872986 0.3049969971179962
vn -0.9741389751434326 0.2227489948272705 0.03788900002837181
vn 0.5072420239448547 -0.0672290027141571 -0.8591769933700562
vn 0.3934989869594574 -0.3903149962425232 -0.8323540091514587
vn 0.8214460015296936 -0.36970800161361694 -0.4342150092124939
vn 0.9442189931869507 -0.030083000659942627 -0.32794201374053955
vn -0.9060389995574951 -0.2693690061569214 0.32639598846435547
vn -0.9588069915771484 -0.28230199217796326 0.03154800087213516
vn -0.9975360035896301 0.02095099911093712 0.06695199757814407
vn -0.9602050185203552 0.04416099935770035 0.2757839858531952
vn 0.8802899718284607 -0.3057920038700104 0.36274099349975586
vn 0.5654879808425903 -0.2415979951620102 0.7885770201683044
vn 0.6811149716377258 0.020022999495267868 0.7319030165672302
vn 0.9548869729042053 -0.029227999970316887 0.29552799463272095
vn 0.994983971118927 -0.0729760006070137 0.06841699779033661
vn 0.9426670074462891 -0.3322429955005646 0.03150700032711029
vn 0.37887901067733765 0.860090970993042 -0.34160399436950684
vn 0.8251609802246094 0.328002005815506 -0.45991799235343933
vn 0.46400201320648193 0.34989699721336365 -0.8138020038604736
vn -0.9908379912376404 -0.13383899629116058 -0.01811699941754341
vn -0.9994159936904907 -0.03376099839806557 0.005204000044614077
vn -0.9368829727172852 -0.03884999826550484 0.347478985786438
vn -0.9010969996452332 -0.20318299531936646 0.3830679953098297
vn 0.4352070093154907 0.21365100145339966 0.8746129870414734
vn 0.9121170043945312 -0.1497880071401596 0.3815839886665344
vn 0.9867990016937256 -0.1613990068435669 -0.013364000245928764
vn 0.9963979721069336 -0.07868800312280655 -0.031606998294591904
vn 0.8955690264701843 -0.1525460034608841 0.4179539978504181
vn 0.6276530027389526 -0.06392399966716766 -0.7758640050888062
vn 0.5815669894218445 -0.027550000697374344 -0.8130319714546204
vn 0.9328100085258484 -0.02992900088429451 -0.35912400484085083
vn 0.9445469975471497 0.045816998928785324 -0.32516399025917053
vn -0.9872980117797852 0.1585479974746704 0.010200000368058681
vn -0.92051100730896 0.20427200198173523 0.3330639898777008
vn -0.8865010142326355 0.34958600997924805 0.3031589984893799
vn -0.9660419821739197 0.25817498564720154 0.010377000086009502
vn 0.9061340093612671 0.17187799513339996 0.38649600744247437
vn 0.9177989959716797 0.15074899792671204 0.36731499433517456
vn 0.5323089957237244 0.30675700306892395 0.7890170216560364
vn 0.5292450189590454 0.29688799381256104 0.7948319911956787
vn 0.9954010248184204 0.09421200305223465 0.017378000542521477
vn 0.9997259974479675 0.02323400042951107 -0.0027910000644624233
vn 0.7442319989204407 -0.6566309928894043 0.12228500097990036
vn -0.0 -0.9993910193443298 0.0348999984562397
vn -0.0 -0.9993910193443298 0.0348999984562397
vn 0.7725009918212891 -0.6260169744491577 0.1065170019865036
vn 0.9835940003395081 0.09436800330877304 0.15374399721622467
vn 0.9736430048942566 0.20125100016593933 0.10732100158929825
vn 0.7442319989204407 -0.6566309928894043 0.12228500097990036
vn 0.7725009918212891 -0.6260169744491577 0.1065170019865036
vn 0.6270679831504822 0.5645880103111267 -0.5366799831390381
vn 0.9459599852561951 0.31707000732421875 -0.06802500039339066
vn 0.8631110191345215 0.502003014087677 0.055066000670194626
vn 0.2996540069580078 0.9318320155143738 -0.2046860009431839
vn -0.7240989804267883 -0.6806589961051941 0.11128199845552444
vn -0.9835770130157471 0.14909100532531738 0.10172499716281891
vn -0.9880329966545105 0.058649998158216476 0.14265400171279907
vn -0.7584289908409119 -0.6430280208587646 0.10630200058221817
vn -0.6535339951515198 -0.0012529999949038029 -0.7568960189819336
vn -0.9568049907684326 0.1205189973115921 -0.26457399129867554
vn -0.9355999827384949 0.21144400537014008 -0.28274598717689514
vn -0.5986909866333008 0.10211800038814545 -0.7944440245628357
vn -0.8552709817886353 -0.3326700031757355 -0.3972940146923065
vn -0.42722800374031067 -0.38155001401901245 -0.8196930289268494
vn -0.5494940280914307 -0.028156999498605728 -0.8350229859352112
vn -0.9514840245246887 0.05456500127911568 -0.30281999707221985
vn -0.6092550158500671 0.5748159885406494 -0.5462560057640076
vn -0.29852500557899475 0.9318010210990906 -0.20646899938583374
vn -0.8753150105476379 0.48170900344848633 0.04218899831175804
vn -0.9491999745368958 0.30987000465393066 -0.054777998477220535
vn -0.4800589978694916 -0.7303779721260071 -0.48589199781417847
vn -0.7138580083847046 -0.6788449883460999 -0.17197799682617188
vn -0.9321330189704895 0.027240000665187836 -0.3610909879207611
vn -0.6676790118217468 0.1276630014181137 -0.7334210276603699
vn -0.0 -0.9993910193443298 0.0348999984562397
vn -0.0 -0.9993910193443298 0.0348999984562397
vn -0.7240989804267883 -0.6806589961051941 0.11128199845552444
vn -0.7584289908409119 -0.6430280208587646 0.10630200058221817
vn -0.0 -0.9993910193443298 0.0348999984562397
vn -0.5697649717330933 -0.5489659905433655 0.6115589737892151
vn -0.7801709771156311 -0.5522480010986328 0.2938610017299652
vn -0.7909119725227356 -0.6097859740257263 0.051173001527786255
vn -0.6839249730110168 0.2597390115261078 0.6817489862442017
vn -0.5697649717330933 -0.5489659905433655 0.6115589737892151
vn -0.6947699785232544 0.06082100048661232 0.7166560292243958
vn -0.5997589826583862 -0.22506099939346313 0.767877995967865
vn -0.5504609942436218 0.30664199590682983 0.7765070199966431
vn -0.5171830058097839 0.41956600546836853 0.7459800243377686
vn -0.8899739980697632 0.17808300256729126 0.4198000133037567
vn -0.4444830119609833 0.1535390019416809 0.8825309872627258
vn -0.4099319875240326 0.8091769814491272 0.42093798518180847
vn -0.4474540054798126 0.893809974193573 -0.029812999069690704
vn -0.967270016670227 0.2526400089263916 -0.02370399981737137
vn -0.8725500106811523 0.24618099629878998 -0.4219619929790497
vn -0.41292300820350647 0.8442059755325317 -0.3417769968509674
vn -0.47759300470352173 0.31586700677871704 -0.8198369741439819
vn 0.144213005900383 -0.09374900162220001 -0.9850959777832031
vn 0.1372860074043274 -0.001062000053934753 -0.9905310273170471
vn 0.1281760036945343 -0.039101000875234604 -0.9909800291061401
vn 0.07963699847459793 -0.36837199330329895 -0.9262610077857971
vn 0.1632480025291443 0.6467810273170471 -0.7449989914894104
vn 0.0709030032157898 0.9641280174255371 -0.2557930052280426
vn 0.24199800193309784 -0.6940330266952515 -0.6780520081520081
vn 0.3035539984703064 0.1652279943227768 -0.9383789896965027
vn -0.0 -0.9993910193443298 0.0348999984562397
vn -0.0 -0.9993910193443298 0.0348999984562397
vn 0.23261600732803345 -0.5379890203475952 0.8102210164070129
vn -0.0 -0.9993910193443298 0.0348999984562397
vn 0.5719770193099976 -0.5561410188674927 0.6029509902000427
vn 0.6912699937820435 0.25766900181770325 0.6750940084457397
vn 0.28487399220466614 0.25014498829841614 0.9253510236740112
vn 0.23261600732803345 -0.5379890203475952 0.8102210164070129
vn 0.6811149716377258 0.020022999495267868 0.7319030165672302
vn 0.5654879808425903 -0.2415979951620102 0.7885770201683044
vn 0.1765889972448349 -0.1740500032901764 0.9687740206718445
vn 0.24101799726486206 0.10051900148391724 0.965300977230072
vn 0.10991600155830383 0.38491499423980713 0.9163839817047119
vn 0.12005700170993805 0.37097999453544617 0.92084801197052
vn 0.5292450189590454 0.29688799381256104 0.7948319911956787
vn 0.5323089957237244 0.30675700306892395 0.7890170216560364
vn 0.01906600035727024 0.9016849994659424 0.4319719970226288
vn 0.13747400045394897 0.23423999547958374 0.9624090194702148
vn 0.0 0.9993910193443298 -0.0348999984562397
vn 0.13207100331783295 0.3737559914588928 -0.9180759787559509
vn 0.06765100359916687 0.887283980846405 -0.45623499155044556
vn 0.7972210049629211 -0.49719399213790894 -0.3424000144004822
vn 0.47920700907707214 -0.6011149883270264 -0.6395480036735535
vn 0.8841549754142761 -0.4671109914779663 -0.008786999620497227
vn 0.8269720077514648 -0.44627299904823303 0.34199100732803345
vn 0.5150709748268127 -0.3996399939060211 0.7582809925079346
vn 0.5150709748268127 -0.3996399939060211 0.7582809925079346
vn 0.13334499299526215 -0.39088499546051025 0.9107289910316467
vn -0.8029419779777527 -0.5173259973526001 0.29607000946998596
vn -0.496271014213562 -0.4387660026550293 0.749131977558136
vn -0.8436130285263062 -0.5369499921798706 -0.0014349999837577343
vn -0.46059200167655945 -0.6240860223770142 -0.6311669945716858
vn -0.7834179997444153 -0.5479620099067688 -0.2932470142841339
vn 0.10995399951934814 -0.6567050218582153 -0.746088981628418
vn -0.5413550138473511 -0.017534000799059868 -0.8406109809875488
vn -0.5492010116577148 -0.022885000333189964 -0.8353769779205322
vn -0.9326270222663879 -0.028077000752091408 -0.3597469925880432
vn -0.9044610261917114 -0.09116099774837494 -0.41670098900794983
vn 0.12225300073623657 0.007457000203430653 -0.9924709796905518
vn 0.5336819887161255 0.004203000105917454 -0.845674991607666
vn 0.5349739789962769 -0.10885100066661835 -0.8378270268440247
vn 0.10838499665260315 -0.06873100250959396 -0.9917299747467041
vn 0.8863940238952637 -0.04319100081920624 -0.4609130024909973
vn 0.8943819999694824 -0.15543100237846375 -0.41943100094795227
vn 0.4914259910583496 -0.20070600509643555 0.8474770188331604
vn 0.540287971496582 -0.10866200178861618 0.834434986114502
vn 0.4914259910583496 -0.20070600509643555 0.8474770188331604
vn 0.12002599984407425 -0.2283339947462082 0.966156005859375
vn 0.1012599989771843 -0.04462900012731552 0.9938589930534363
vn 0.540287971496582 -0.10866200178861618 0.834434986114502
vn -0.5470700263977051 -0.03414500132203102 0.8363900184631348
vn -0.4973430037498474 -0.2331559956073761 0.8356369733810425
vn -0.1496250033378601 0.6438689827919006 -0.7503629922866821
vn -0.06547900289297104 0.9640889763832092 -0.25738298892974854
vn -0.2259490042924881 -0.6975809931755066 -0.679947018623352
vn -0.2850329875946045 0.1672540009021759 -0.9438130259513855
vn -0.0 -0.9993910193443298 0.0348999984562397
vn -0.0 -0.9993910193443298 0.0348999984562397
vn -0.0 -0.9993910193443298 0.0348999984562397
vn -0.21575400233268738 -0.542244017124176 0.8120480179786682
vn -0.2658329904079437 0.24867600202560425 0.931393027305603
vn -0.6839249730110168 0.2597390115261078 0.6817489862442017
vn -0.5697649717330933 -0.5489659905433655 0.6115589737892151
vn -0.21575400233268738 -0.542244017124176 0.8120480179786682
vn -0.20089399814605713 -0.16280999779701233 0.9659889936447144
vn -0.5997589826583862 -0.22506099939346313 0.767877995967865
vn -0.6947699785232544 0.06082100048661232 0.7166560292243958
vn -0.22711500525474548 0.10499700158834457 0.9681910276412964
vn -0.11971499770879745 0.37247899174690247 0.920287013053894
vn -0.5504609942436218 0.30664199590682983 0.7765070199966431
vn -0.496271014213562 -0.4387660026550293 0.749131977558136
vn -0.12070699781179428 -0.40296199917793274 0.9072219729423523
vn -0.10712999850511551 0.4004780054092407 0.9100220203399658
vn -0.5171830058097839 0.41956600546836853 0.7459800243377686
vn -0.1062059998512268 -0.03146199882030487 0.9938459992408752
vn -0.11622899770736694 -0.23481200635433197 0.9650670289993286
vn -0.4973430037498474 -0.2331559956073761 0.8356369733810425
vn -0.5470700263977051 -0.03414500132203102 0.8363900184631348
vn -0.02518099918961525 0.8975009918212891 0.44029301404953003
vn -0.1409900039434433 0.22238099575042725 0.9647120237350464
vn 0.0 0.9993910193443298 -0.0348999984562397
vn -0.06294199824333191 0.8877699971199036 -0.45596399903297424
vn -0.116348996758461 0.37058499455451965 -0.9214820265769958
vn -0.1251250058412552 0.0027469999622553587 -0.9921370148658752
vn -0.1016869992017746 -0.04751399904489517 -0.993681013584137
vn -0.14485299587249756 -0.08434499800205231 -0.9858520030975342
vn -0.13012999296188354 0.014306999742984772 -0.9913939833641052
vn -0.09771499782800674 -0.6629430055618286 -0.7422659993171692
vn -0.09911900013685226 -0.36889299750328064 -0.9241719841957092
vn -0.1412220001220703 -0.03406599909067154 -0.9893919825553894
vn 0.46400201320648193 0.34989699721336365 -0.8138020038604736
vn 0.8251609802246094 0.328002005815506 -0.45991799235343933
vn 0.13207100331783295 0.3737559914588928 -0.9180759787559509
vn -0.116348996758461 0.37058499455451965 -0.9214820265769958
vn -0.47759300470352173 0.31586700677871704 -0.8198369741439819
vn -0.8725500106811523 0.24618099629878998 -0.4219619929790497
vn -0.967270016670227 0.2526400089263916 -0.02370399981737137
vn -0.8899739980697632 0.17808300256729126 0.4198000133037567
vn -0.4444830119609833 0.1535390019416809 0.8825309872627258
vn -0.1409900039434433 0.22238099575042725 0.9647120237350464
vn -0.4444830119609833 0.1535390019416809 0.8825309872627258
vn 0.13747400045394897 0.23423999547958374 0.9624090194702148
vn 0.4352070093154907 0.21365100145339966 0.8746129870414734
vn 0.8605549931526184 0.25929298996925354 0.43841999769210815
vn 0.4352070093154907 0.21365100145339966 0.8746129870414734
vn 0.9369180202484131 0.3481470048427582 -0.031279999762773514
vn 0.925370991230011 0.23104199767112732 0.30051299929618835
vn 0.6961950063705444 0.24761700630187988 0.6737939715385437
vn 0.6961950063705444 0.24761700630187988 0.6737939715385437
vn 0.2937160134315491 0.27717500925064087 0.9148250222206116
vn -0.27455198764801025 0.27594101428985596 0.92112797498703
vn -0.6879330277442932 0.24788999557495117 0.6821280121803284
vn -0.9262359738349915 0.22676600515842438 0.30110400915145874
vn -0.6879330277442932 0.24788999557495117 0.6821280121803284
vn -0.9776780009269714 0.20403200387954712 0.05017400160431862
vn 0.9790030121803284 0.2035910040140152 0.01017600018531084
vn 0.9442189931869507 -0.030083000659942627 -0.32794201374053955
vn 0.8214460015296936 -0.36970800161361694 -0.4342150092124939
vn 0.9459599852561951 0.31707000732421875 -0.06802500039339066
vn -0.9491999745368958 0.30987000465393066 -0.054777998477220535
vn -0.9514840245246887 0.05456500127911568 -0.30281999707221985
vn -0.8552709817886353 -0.3326700031757355 -0.3972940146923065
vn -0.9568049907684326 0.1205189973115921 -0.26457399129867554
vn -0.7834179997444153 -0.5479620099067688 -0.2932470142841339
vn -0.9355999827384949 0.21144400537014008 -0.28274598717689514
vn -0.9044610261917114 -0.09116099774837494 -0.41670098900794983
vn -0.9326270222663879 -0.028077000752091408 -0.3597469925880432
vn -0.8725500106811523 0.24618099629878998 -0.4219619929790497
vn 0.8863940238952637 -0.04319100081920624 -0.4609130024909973
vn 0.8251609802246094 0.328002005815506 -0.45991799235343933
vn 0.8943819999694824 -0.15543100237846375 -0.41943100094795227
vn 0.9445469975471497 0.045816998928785324 -0.32516399025917053
vn 0.9328100085258484 -0.02992900088429451 -0.35912400484085083
vn 0.7972210049629211 -0.49719399213790894 -0.3424000144004822
vn -0.42944198846817017 -0.5121520161628723 -0.7438269853591919
vn -0.8756099939346313 -0.34333500266075134 -0.33974701166152954
vn -0.7779920101165771 0.4764609932899475 -0.4095290005207062
vn -0.4658609926700592 0.3202570080757141 -0.8248689770698547
vn -0.8756099939346313 -0.34333500266075134 -0.33974701166152954
vn -0.9730129837989807 -0.2299329936504364 0.01939699985086918
vn -0.7586410045623779 0.6510739922523499 -0.02380100078880787
vn -0.7779920101165771 0.4764609932899475 -0.4095290005207062
vn -0.9165340065956116 -0.17546199262142181 0.3594149947166443
vn -0.7245820164680481 0.6605179905891418 0.19671399891376495
vn -0.5808950066566467 -0.04032199829816818 0.812978982925415
vn -0.4437769949436188 0.7135270237922668 0.5421640276908875
vn -0.5808950066566467 -0.04032199829816818 0.812978982925415
vn -0.1560630053281784 0.002102999947965145 0.9877449870109558
vn -0.09544099867343903 0.7679010033607483 0.6334189772605896
vn -0.4437769949436188 0.7135270237922668 0.5421640276908875
vn 0.1484210044145584 0.001961000030860305 0.9889219999313354
vn 0.10300900042057037 0.7657219767570496 0.6348699927330017
vn 0.5758389830589294 -0.023073000833392143 0.8172379732131958
vn 0.43568798899650574 0.7237709760665894 0.5350990295410156
vn 0.43568798899650574 0.7237709760665894 0.5350990295410156
vn 0.5758389830589294 -0.023073000833392143 0.8172379732131958
vn 0.9107069969177246 -0.12867499887943268 0.39249899983406067
vn 0.7003260254859924 0.6779410243034363 0.223471000790596
vn 0.9815009832382202 -0.19058699905872345 0.018211999908089638
vn 0.7689359784126282 0.6381850242614746 -0.03817500174045563
vn 0.8623480200767517 -0.3226340115070343 -0.39020800590515137
vn 0.7571250200271606 0.4827530086040497 -0.4401260018348694
vn 0.7571250200271606 0.4827530086040497 -0.4401260018348694
vn 0.8623480200767517 -0.3226340115070343 -0.39020800590515137
vn 0.42051300406455994 -0.5023360252380371 -0.7555310130119324
vn 0.4610849916934967 0.32545000314712524 -0.8255199790000916
vn 0.07134699821472168 -0.5536630153656006 -0.8296779990196228
vn 0.11875099688768387 0.2857399880886078 -0.9509209990501404
vn 0.7152019739151001 -0.6761230230331421 -0.17704300582408905
vn 0.9286310076713562 0.027739999815821648 -0.3699660003185272
vn 0.7152019739151001 -0.6761230230331421 -0.17704300582408905
vn 0.4778110086917877 -0.7375069856643677 -0.4772630035877228
vn 0.24199800193309784 -0.6940330266952515 -0.6780520081520081
vn -0.2259490042924881 -0.6975809931755066 -0.679947018623352
vn -0.4800589978694916 -0.7303779721260071 -0.48589199781417847
vn -0.7138580083847046 -0.6788449883460999 -0.17197799682617188
vn -0.7138580083847046 -0.6788449883460999 -0.17197799682617188
vn -0.9321330189704895 0.027240000665187836 -0.3610909879207611
vn -0.5034970045089722 0.7388060092926025 -0.4479469954967499
vn -0.869238018989563 0.4735809862613678 -0.14193999767303467
vn -0.21317200362682343 0.7712990045547485 -0.5997130274772644
vn 0.23060199618339539 0.7668489813804626 -0.5989699959754944
vn 0.501462996006012 0.7427520155906677 -0.443682998418808
vn 0.8689950108528137 0.47547799348831177 -0.13700099289417267
vn 0.9562180042266846 0.29260799288749695 0.005293000023812056
vn 0.8878219723701477 0.32558900117874146 0.32521501183509827
vn 0.6084960103034973 0.32354798913002014 0.724602997303009
vn 0.6084960103034973 0.32354798913002014 0.724602997303009
vn 0.14949600398540497 0.28585898876190186 0.9465389847755432
vn -0.12741099298000336 0.27951401472091675 0.9516500234603882
vn -0.5820329785346985 0.30069100856781006 0.7555279731750488
vn -0.5820329785346985 0.30069100856781006 0.7555279731750488
vn -0.9133020043373108 0.2847430109977722 0.2912079989910126
vn -0.969747006893158 0.2440669983625412 -0.004772999789565802
vn -0.9265679717063904 0.2384909987449646 -0.2908490002155304
vn -0.9265679717063904 0.2384909987449646 -0.2908490002155304
vn -0.5691800117492676 0.06711599975824356 -0.8194689750671387
vn -0.10571199655532837 0.2876409888267517 -0.951885998249054
vn -0.11990399658679962 0.026597000658512115 -0.9924290180206299
vn 0.13239100575447083 0.030344000086188316 -0.9907330274581909
vn 0.5775589942932129 0.08202700316905975 -0.8122169971466064
vn 0.9042630195617676 0.2640649974346161 -0.3355259895324707
vn 0.9042630195617676 0.2640649974346161 -0.3355259895324707
vn -0.07412400096654892 -0.553164005279541 -0.8297680020332336
vn -0.8753150105476379 0.48170900344848633 0.04218899831175804
vn -0.869238018989563 0.4735809862613678 -0.14193999767303467
vn 0.8631110191345215 0.502003014087677 0.055066000670194626
vn 0.8689950108528137 0.47547799348831177 -0.13700099289417267

vt 0.6209030151367188 0.6021920144557953
vt 0.6171489953994751 0.6046499907970428
vt 0.6171489953994751 0.5862360000610352
vt 0.620415985584259 0.5840409994125366
vt 0.46102800965309143 0.32956600189208984
vt 0.46102800965309143 0.29505497217178345
vt 0.47902199625968933 0.29458701610565186
vt 0.47969499230384827 0.32371699810028076
vt 0.6171489953994751 0.7024010121822357
vt 0.6232730150222778 0.7004599869251251
vt 0.6238669753074646 0.7504190057516098
vt 0.6171489953994751 0.7504190057516098
vt 0.6020950078964233 0.23377299308776855
vt 0.615572988986969 0.23377299308776855
vt 0.616241991519928 0.27393800020217896
vt 0.6020950078964233 0.2856230139732361
vt 0.6171489953994751 0.6608499884605408
vt 0.623619019985199 0.6643930077552795
vt 0.6171489953994751 0.4451749920845032
vt 0.6171489953994751 0.41131001710891724
vt 0.6232320070266724 0.4141389727592468
vt 0.6232069730758667 0.4435970187187195
vt 0.6553009748458862 0.5821680128574371
vt 0.6653259992599487 0.583611011505127
vt 0.6627820134162903 0.626011997461319
vt 0.6504150032997131 0.626011997461319
vt 0.6555039882659912 0.4181489944458008
vt 0.6553459763526917 0.4436439871788025
vt 0.6414890289306641 0.4396420121192932
vt 0.6417700052261353 0.4156249761581421
vt 0.6556620001792908 0.7012099921703339
vt 0.6566020250320435 0.7504190057516098
vt 0.6438559889793396 0.7504190057516098
vt 0.6419550180435181 0.7021819949150085
vt 0.6422590017318726 0.6727130115032196
vt 0.6561880111694336 0.6698080003261566
vt 0.48019999265670776 0.2708529829978943
vt 0.46102800965309143 0.2670050263404846
vt 0.46102800965309143 0.23447299003601074
vt 0.7253209948539734 0.46267497539520264
vt 0.7082629799842834 0.4599180221557617
vt 0.7087600231170654 0.4268530011177063
vt 0.7258219718933105 0.4255399703979492
vt 0.46102800965309143 0.35916799306869507
vt 0.7092419862747192 0.6978299915790558
vt 0.7095069885253906 0.656572014093399
vt 0.7267529964447021 0.655443012714386
vt 0.7263399958610535 0.7009010016918182
vt 0.693572998046875 0.5890829861164093
vt 0.7020639777183533 0.5894320011138916
vt 0.7020379900932312 0.626011997461319
vt 0.6938199996948242 0.626011997461319
vt 0.688539981842041 0.45582300424575806
vt 0.6889380216598511 0.4284830093383789
vt 0.6973459720611572 0.42795902490615845
vt 0.6969159841537476 0.4571380019187927
vt 0.6893150210380554 0.6931889951229095
vt 0.6977559924125671 0.6946800053119659
vt 0.698183000087738 0.7504190057516098
vt 0.6898069977760315 0.7504190057516098
vt 0.6897119879722595 0.6588369905948639
vt 0.6981109976768494 0.6581090092658997
vt 0.6020950078964233 0.30664002895355225
vt 0.6162689924240112 0.302761971950531
vt 0.6159690022468567 0.3310859799385071
vt 0.6020950078964233 0.33299899101257324
vt 0.6245290040969849 0.6191169917583466
vt 0.628250002861023 0.6364859938621521
vt 0.6171489953994751 0.6468940079212189
vt 0.6171489953994751 0.6254979968070984
vt 0.6416980028152466 0.5862810015678406
vt 0.639145016670227 0.6262719929218292
vt 0.6317710280418396 0.61285400390625
vt 0.6325439810752869 0.5840550065040588
vt 0.6171489953994751 0.4826589822769165
vt 0.6288750171661377 0.49171698093414307
vt 0.6251839995384216 0.5070050060749054
vt 0.6171489953994751 0.5010670125484467
vt 0.6935799717903137 0.5359399914741516
vt 0.6936360001564026 0.5002650022506714
vt 0.7016860246658325 0.5002650022506714
vt 0.7021999955177307 0.5356169939041138
vt 0.6633740067481995 0.5002650022506714
vt 0.6652650237083435 0.5414150059223175
vt 0.6552479863166809 0.5421580076217651
vt 0.6513389945030212 0.5002650022506714
vt 0.6417610049247742 0.5372309982776642
vt 0.6329990029335022 0.5395149886608124
vt 0.6330689787864685 0.5128340125083923
vt 0.6403840184211731 0.5006060004234314
vt 0.6171489953994751 0.5365520119667053
vt 0.6171489953994751 0.5190039873123169
vt 0.6215860247612 0.52190300822258
vt 0.6208400130271912 0.5391699969768524
vt 0.6504510045051575 0.33105599880218506
vt 0.6500999927520752 0.30270200967788696
vt 0.6641169786453247 0.30652302503585815
vt 0.6641169786453247 0.33294200897216797
vt 0.6500729918479919 0.27387601137161255
vt 0.6506890058517456 0.23377299308776855
vt 0.6641169786453247 0.23377299308776855
vt 0.6641169786453247 0.2855049967765808
vt 0.6238070130348206 0.37623298168182373
vt 0.6171489953994751 0.37623298168182373
vt 0.6436399817466736 0.37623298168182373
vt 0.6564130187034607 0.3762320280075073
vt 0.6895800232887268 0.37623298168182373
vt 0.6977949738502502 0.37623298168182373
vt 0.5235369801521301 0.3313729763031006
vt 0.5235369801521301 0.35916799306869507
vt 0.5063909888267517 0.3237699866294861
vt 0.5065119862556458 0.2945539951324463
vt 0.5235369801521301 0.296733021736145
vt 0.5235369801521301 0.26738500595092773
vt 0.5052270293235779 0.27108198404312134
vt 0.5235369801521301 0.23447299003601074
vt 0.6933789849281311 0.5721659958362579
vt 0.7018870115280151 0.5725870132446289
vt 0.6562079787254333 0.5684550106525421
vt 0.6654360294342041 0.5693469941616058
vt 0.6425989866256714 0.570591002702713
vt 0.6330369710922241 0.5696679949760437
vt 0.6171489953994751 0.5700010061264038
vt 0.6204649806022644 0.5693790018558502
vt 0.6271229982376099 0.30274301767349243
vt 0.627032995223999 0.3310760259628296
vt 0.626829981803894 0.23377299308776855
vt 0.6270930171012878 0.2704610228538513
vt 0.6171489953994751 0.7504190057516098
vt 0.6239669919013977 0.7504190057516098
vt 0.62363201379776 0.7859569936990738
vt 0.6171489953994751 0.7839789986610413
vt 0.6439129710197449 0.7504190057516098
vt 0.6566349864006042 0.7504190057516098
vt 0.6562219858169556 0.7927069962024689
vt 0.6433990001678467 0.7944640070199966
vt 0.6980429887771606 0.7904839962720871
vt 0.6897370219230652 0.7920780032873154
vt 0.6898069977760315 0.7504190057516098
vt 0.698183000087738 0.7504190057516098
vt 0.48808398842811584 0.32535499334335327
vt 0.4879649877548218 0.35916799306869507
vt 0.48800599575042725 0.2928439974784851
vt 0.4874410033226013 0.23447299003601074
vt 0.488072007894516 0.26498299837112427
vt 0.6863240003585815 0.626011997461319
vt 0.6859639883041382 0.589156985282898
vt 0.6820330023765564 0.6618230044841766
vt 0.6814600229263306 0.6959989964962006
vt 0.6816160082817078 0.7504190057516098
vt 0.6816160082817078 0.7504190057516098
vt 0.6814579963684082 0.7913829982280731
vt 0.6811890006065369 0.4255549907684326
vt 0.6814190149307251 0.3762320280075073
vt 0.6809579730033875 0.4529309868812561
vt 0.6859380006790161 0.536309003829956
vt 0.6862829923629761 0.5002650022506714
vt 0.6854619979858398 0.5720219910144806
vt 0.7287369966506958 0.5396850109100342
vt 0.7140629887580872 0.5388160049915314
vt 0.7123450040817261 0.5002650022506714
vt 0.7292190194129944 0.5002650022506714
vt 0.7288870215415955 0.5719490051269531
vt 0.7286059856414795 0.5887700021266937
vt 0.7136549949645996 0.5862810015678406
vt 0.713513970375061 0.5719360113143921
vt 0.7296460270881653 0.626011997461319
vt 0.7130540013313293 0.626011997461319
vt 0.7266960144042969 0.7504190057516098
vt 0.7095299959182739 0.7504190057516098
vt 0.7266960144042969 0.7504190057516098
vt 0.7266610264778137 0.7864709943532944
vt 0.7092409729957581 0.7871170043945312
vt 0.7095299959182739 0.7504190057516098
vt 0.7088000178337097 0.37623298168182373
vt 0.7259719967842102 0.37623298168182373
vt 0.6427239775657654 0.5551719963550568
vt 0.633243978023529 0.5555169880390167
vt 0.6171489953994751 0.5538409948348999
vt 0.6206099987030029 0.5548569858074188
vt 0.638355016708374 0.33106499910354614
vt 0.6382290124893188 0.30272001028060913
vt 0.6382009983062744 0.2704409956932068
vt 0.6383609771728516 0.23377299308776855
vt 0.6235899925231934 0.828904002904892
vt 0.6238070130348206 0.8747580051422119
vt 0.6171489953994751 0.8747580051422119
vt 0.6171489953994751 0.8296460062265396
vt 0.6561319828033447 0.827457994222641
vt 0.6564130187034607 0.8747580051422119
vt 0.6436399817466736 0.8747580051422119
vt 0.6433339715003967 0.8244979977607727
vt 0.6896470189094543 0.8317099958658218
vt 0.6895800232887268 0.8747580051422119
vt 0.6814190149307251 0.8747580051422119
vt 0.6813549995422363 0.8315510004758835
vt 0.697924017906189 0.834760993719101
vt 0.6978359818458557 0.8747580051422119
vt 0.7090619802474976 0.8412089943885803
vt 0.7264080047607422 0.8344459980726242
vt 0.7259719967842102 0.8747580051422119
vt 0.7089279890060425 0.8747580051422119
vt 0.4970349967479706 0.32586801052093506
vt 0.49723899364471436 0.35916799306869507
vt 0.49691200256347656 0.29278600215911865
vt 0.4964970052242279 0.2650820016860962
vt 0.49704501032829285 0.23447299003601074
vt 0.7288089990615845 0.5551980137825012
vt 0.7134140133857727 0.5529150068759918
vt 0.6933820247650146 0.5550310015678406
vt 0.7018569707870483 0.553846001625061
vt 0.6854310035705566 0.5550189912319183
vt 0.665444016456604 0.5559000074863434
vt 0.6562830209732056 0.5557770133018494
vt 0.7417489886283875 0.5887120068073273
vt 0.7417489886283875 0.626011997461319
vt 0.7417489886283875 0.5720619857311249
vt 0.7417489886283875 0.5553550124168396
vt 0.7417489886283875 0.5373019874095917
vt 0.7417489886283875 0.5002650022506714
vt 0.7417489886283875 0.45623600482940674
vt 0.7417489886283875 0.4195979833602905
vt 0.7417489886283875 0.37623298168182373
vt 0.7417489886283875 0.8325500041246414
vt 0.7417489886283875 0.8747580051422119
vt 0.7417489886283875 0.7866069972515106
vt 0.7417489886283875 0.7504190057516098
vt 0.7417489886283875 0.7128260135650635
vt 0.7417489886283875 0.7504190057516098
vt 0.7417489886283875 0.6668370068073273
vt 0.6292840242385864 0.6985560059547424
vt 0.6304600238800049 0.7504190057516098
vt 0.630657970905304 0.7504190057516098
vt 0.6299949884414673 0.7878970056772232
vt 0.6299110054969788 0.8281749933958054
vt 0.6303420066833496 0.8747580051422119
vt 0.6292020082473755 0.41691601276397705
vt 0.6303420066833496 0.37623298168182373
vt 0.6291530132293701 0.4420490264892578
vt 0.6299690008163452 0.6678699851036072
vt 0.6504150032997131 0.626011997461319
vt 0.6627820134162903 0.626011997461319
vt 0.639145016670227 0.6262719929218292
vt 0.6403840184211731 0.5006060004234314
vt 0.6513389945030212 0.5002650022506714
vt 0.6633740067481995 0.5002650022506714
vt 0.6936360001564026 0.5002650022506714
vt 0.6862829923629761 0.5002650022506714
vt 0.7016860246658325 0.5002650022506714
vt 0.7292190194129944 0.5002650022506714
vt 0.7123450040817261 0.5002650022506714
vt 0.7417489886283875 0.5002650022506714
vt 0.7296460270881653 0.626011997461319
vt 0.7417489886283875 0.626011997461319
vt 0.7130540013313293 0.626011997461319
vt 0.6938199996948242 0.626011997461319
vt 0.7020379900932312 0.626011997461319
vt 0.6863240003585815 0.626011997461319
vt 0.6730890274047852 0.5375350117683411
vt 0.6721850037574768 0.5002650022506714
vt 0.6826710104942322 0.5002650022506714
vt 0.6821209788322449 0.5365700125694275
vt 0.6721850037574768 0.5002650022506714
vt 0.665045976638794 0.4455980062484741
vt 0.6746190190315247 0.4508879780769348
vt 0.6826710104942322 0.5002650022506714
vt 0.6651440262794495 0.4193819761276245
vt 0.6747320294380188 0.42348599433898926
vt 0.6655830144882202 0.37623298168182373
vt 0.6746709942817688 0.37623298168182373
vt 0.6655830144882202 0.8747580051422119
vt 0.6653149724006653 0.828903004527092
vt 0.6770790219306946 0.8314400017261505
vt 0.677236020565033 0.8747580051422119
vt 0.6654160022735596 0.7918490022420883
vt 0.6771910190582275 0.7908920049667358
vt 0.6657800078392029 0.7504190057516098
vt 0.6774110198020935 0.7504190057516098
vt 0.6774110198020935 0.7504190057516098
vt 0.6657599806785583 0.7504190057516098
vt 0.665287971496582 0.7007339894771576
vt 0.6774929761886597 0.6979849934577942
vt 0.6659240126609802 0.6683889925479889
vt 0.6781899929046631 0.6639330089092255
vt 0.6717550158500671 0.626011997461319
vt 0.6826120018959045 0.626011997461319
vt 0.6826120018959045 0.626011997461319
vt 0.6717550158500671 0.626011997461319
vt 0.6731539964675903 0.5878840088844299
vt 0.6821699738502502 0.5892089903354645
vt 0.6728749871253967 0.5709699988365173
vt 0.6814510226249695 0.5719209909439087
vt 0.6171489953994751 0.6046499907970428
vt 0.6209030151367188 0.6021920144557953
vt 0.6020950078964233 0.3586840033531189
vt 0.6156759858131409 0.3586840033531189
vt 0.626945972442627 0.3586840033531189
vt 0.6384770274162292 0.3586840033531189
vt 0.6507920026779175 0.3586840033531189
vt 0.6641169786453247 0.3586840033531189
vt 0.6171489953994751 0.5190039873123169
vt 0.6215860247612 0.52190300822258
vt 0.6244620084762573 0.5417400002479553
vt 0.6259409785270691 0.5247479975223541
vt 0.6240059733390808 0.555853009223938
vt 0.6237199902534485 0.5687690079212189
vt 0.6236230134963989 0.5818859934806824
vt 0.6245869994163513 0.5997799932956696
vt 0.6794459819793701 0.6632440090179443
vt 0.6787899732589722 0.6973359882831573
vt 0.6787850260734558 0.7504190057516098
vt 0.6787850260734558 0.7504190057516098
vt 0.6785849928855896 0.7910529971122742
vt 0.6784759759902954 0.8314760029315948
vt 0.6786029934883118 0.8747580051422119
vt 0.6760380268096924 0.3762320280075073
vt 0.6760039925575256 0.42416197061538696
vt 0.6758530139923096 0.4515560269355774
vt 0.6838510036468506 0.5002650022506714
vt 0.6838510036468506 0.5002650022506714
vt 0.683368980884552 0.5364840030670166
vt 0.6813960075378418 0.5550110042095184
vt 0.6827149987220764 0.5550140142440796
vt 0.6827620267868042 0.5719540119171143
vt 0.6834099888801575 0.5891920030117035
vt 0.6838250160217285 0.626011997461319
vt 0.6838250160217285 0.626011997461319
vt 0.672851026058197 0.5548849999904633
vt 0.6330689787864685 0.5128340125083923
vt 0.6259409785270691 0.5247479975223541
vt 0.6317710280418396 0.61285400390625
vt 0.6245869994163513 0.5997799932956696

usemtl Material

f 1/1/1 2/2/2 3/3/3
f 3/3/3 4/4/4 1/1/1
f 5/5/5 6/6/6 7/7/7
f 7/7/7 8/8/8 5/5/5
f 9/9/9 10/10/10 11/11/11
f 11/11/11 12/12/12 9/9/9
f 13/13/13 14/14/14 15/15/15
f 15/15/15 16/16/16 13/13/13
f 10/10/10 9/9/9 17/17/17
f 17/17/17 18/18/18 10/10/10
f 19/19/19 20/20/20 21/21/21
f 21/21/21 22/22/22 19/19/19
f 23/23/23 24/24/24 25/25/25
f 25/25/25 26/26/26 23/23/23
f 27/27/27 28/28/28 29/29/29
f 29/29/29 30/30/30 27/27/27
f 31/31/31 32/32/32 33/33/33
f 33/33/33 34/34/34 31/31/31
f 31/31/31 34/34/34 35/35/35
f 35/35/35 36/36/36 31/31/31
f 37/37/37 38/38/38 39/39/39
f 40/40/40 41/41/41 42/42/42
f 42/42/42 43/43/43 40/40/40
f 8/8/8 44/44/44 5/5/5
f 45/45/45 46/46/46 47/47/47
f 47/47/47 48/48/48 45/45/45
f 49/49/49 50/50/50 51/51/51
f 51/51/51 52/52/52 49/49/49
f 53/53/53 54/54/54 55/55/55
f 55/55/55 56/56/56 53/53/53
f 57/57/57 58/58/58 59/59/59
f 59/59/59 60/60/60 57/57/57
f 61/61/61 62/62/62 58/58/58
f 58/58/58 57/57/57 61/61/61
f 63/63/63 64/64/64 65/65/65
f 65/65/65 66/66/66 63/63/63
f 67/67/67 68/68/68 69/69/69
f 69/69/69 70/70/70 67/67/67
f 71/71/71 72/72/72 73/73/73
f 73/73/73 74/74/74 71/71/71
f 75/75/75 76/76/76 77/77/77
f 77/77/77 78/78/78 75/75/75
f 79/79/79 80/80/80 81/81/81
f 81/81/81 82/82/82 79/79/79
f 83/83/83 84/84/84 85/85/85
f 85/85/85 86/86/86 83/83/83
f 87/87/87 88/88/88 89/89/89
f 89/89/89 90/90/90 87/87/87
f 91/91/91 92/92/92 93/93/93
f 93/93/93 94/94/94 91/91/91
f 95/95/95 96/96/96 97/97/97
f 97/97/97 98/98/98 95/95/95
f 99/99/99 100/100/100 101/101/101
f 101/101/101 102/102/102 99/99/99
f 103/103/103 21/21/21 20/20/20
f 20/20/20 104/104/104 103/103/103
f 105/105/105 106/106/106 27/27/27
f 27/27/27 30/30/30 105/105/105
f 54/54/54 107/107/107 108/108/108
f 108/108/108 55/55/55 54/54/54
f 109/109/109 110/110/110 111/111/111
f 112/112/112 113/113/113 109/109/109
f 109/109/109 111/111/111 112/112/112
f 114/114/114 115/115/115 116/116/116
f 50/50/50 49/49/49 117/117/117
f 117/117/117 118/118/118 50/50/50
f 119/119/119 120/120/120 24/24/24
f 24/24/24 23/23/23 119/119/119
f 121/121/121 71/71/71 74/74/74
f 74/74/74 122/122/122 121/121/121
f 4/4/4 3/3/3 123/123/123
f 123/123/123 124/124/124 4/4/4
f 64/64/64 125/125/125 126/126/126
f 126/126/126 65/65/65 64/64/64
f 14/14/14 127/127/127 128/128/128
f 128/128/128 15/15/15 14/14/14
f 129/129/129 130/130/130 131/131/131
f 131/131/131 132/132/132 129/129/129
f 133/133/133 134/134/134 135/135/135
f 135/135/135 136/136/136 133/133/133
f 137/137/137 138/138/138 139/139/139
f 139/139/139 140/140/140 137/137/137
f 44/44/44 8/8/8 141/141/141
f 141/141/141 142/142/142 44/44/44
f 7/7/7 143/143/143 141/141/141
f 141/141/141 8/8/8 7/7/7
f 39/39/39 144/144/144 145/145/145
f 145/145/145 37/37/37 39/39/39
f 52/52/52 146/146/146 147/147/147
f 147/147/147 49/49/49 52/52/52
f 148/148/148 61/61/61 57/57/57
f 57/57/57 149/149/149 148/148/148
f 149/149/149 57/57/57 60/60/60
f 60/60/60 150/150/150 149/149/149
f 151/151/151 139/139/139 138/138/138
f 138/138/138 152/152/152 151/151/151
f 107/107/107 54/54/54 153/153/153
f 153/153/153 154/154/154 107/107/107
f 155/155/155 153/153/153 54/54/54
f 54/54/54 53/53/53 155/155/155
f 156/156/156 157/157/157 80/80/80
f 80/80/80 79/79/79 156/156/156
f 49/49/49 147/147/147 158/158/158
f 158/158/158 117/117/117 49/49/49
f 159/159/159 160/160/160 161/161/161
f 161/161/161 162/162/162 159/159/159
f 163/163/163 164/164/164 165/165/165
f 165/165/165 166/166/166 163/163/163
f 164/164/164 167/167/167 168/168/168
f 168/168/168 165/165/165 164/164/164
f 48/48/48 169/169/169 170/170/170
f 170/170/170 45/45/45 48/48/48
f 171/171/171 172/172/172 173/173/173
f 173/173/173 174/174/174 171/171/171
f 175/175/175 176/176/176 43/43/43
f 43/43/43 42/42/42 175/175/175
f 177/177/177 178/178/178 88/88/88
f 88/88/88 87/87/87 177/177/177
f 179/179/179 91/91/91 94/94/94
f 94/94/94 180/180/180 179/179/179
f 181/181/181 182/182/182 96/96/96
f 96/96/96 95/95/95 181/181/181
f 183/183/183 184/184/184 100/100/100
f 100/100/100 99/99/99 183/183/183
f 185/185/185 186/186/186 187/187/187
f 187/187/187 188/188/188 185/185/185
f 189/189/189 190/190/190 191/191/191
f 191/191/191 192/192/192 189/189/189
f 193/193/193 194/194/194 195/195/195
f 195/195/195 196/196/196 193/193/193
f 193/193/193 197/197/197 198/198/198
f 198/198/198 194/194/194 193/193/193
f 199/199/199 200/200/200 201/201/201
f 201/201/201 202/202/202 199/199/199
f 203/203/203 111/111/111 110/110/110
f 110/110/110 204/204/204 203/203/203
f 203/203/203 205/205/205 112/112/112
f 112/112/112 111/111/111 203/203/203
f 116/116/116 115/115/115 206/206/206
f 206/206/206 207/207/207 116/116/116
f 208/208/208 209/209/209 160/160/160
f 160/160/160 159/159/159 208/208/208
f 210/210/210 79/79/79 82/82/82
f 82/82/82 211/211/211 210/210/210
f 210/210/210 212/212/212 156/156/156
f 156/156/156 79/79/79 210/210/210
f 84/84/84 213/213/213 214/214/214
f 214/214/214 85/85/85 84/84/84
f 121/121/121 122/122/122 178/178/178
f 178/178/178 177/177/177 121/121/121
f 123/123/123 179/179/179 180/180/180
f 180/180/180 124/124/124 123/123/123
f 125/125/125 182/182/182 181/181/181
f 181/181/181 126/126/126 125/125/125
f 127/127/127 184/184/184 183/183/183
f 183/183/183 128/128/128 127/127/127
f 131/131/131 185/185/185 188/188/188
f 188/188/188 132/132/132 131/131/131
f 136/136/136 135/135/135 189/189/189
f 189/189/189 192/192/192 136/136/136
f 138/138/138 193/193/193 196/196/196
f 196/196/196 152/152/152 138/138/138
f 197/197/197 193/193/193 138/138/138
f 138/138/138 137/137/137 197/197/197
f 173/173/173 172/172/172 200/200/200
f 200/200/200 199/199/199 173/173/173
f 141/141/141 203/203/203 204/204/204
f 204/204/204 142/142/142 141/141/141
f 143/143/143 205/205/205 203/203/203
f 203/203/203 141/141/141 143/143/143
f 207/207/207 206/206/206 145/145/145
f 145/145/145 144/144/144 207/207/207
f 208/208/208 163/163/163 166/166/166
f 166/166/166 209/209/209 208/208/208
f 117/117/117 210/210/210 211/211/211
f 211/211/211 118/118/118 117/117/117
f 117/117/117 158/158/158 212/212/212
f 212/212/212 210/210/210 117/117/117
f 213/213/213 120/120/120 119/119/119
f 119/119/119 214/214/214 213/213/213
f 215/215/215 216/216/216 167/167/167
f 167/167/167 164/164/164 215/215/215
f 163/163/163 217/217/217 215/215/215
f 215/215/215 164/164/164 163/163/163
f 217/217/217 163/163/163 208/208/208
f 208/208/208 218/218/218 217/217/217
f 218/218/218 208/208/208 159/159/159
f 159/159/159 219/219/219 218/218/218
f 219/219/219 159/159/159 162/162/162
f 162/162/162 220/220/220 219/219/219
f 221/221/221 40/40/40 43/43/43
f 43/43/43 222/222/222 221/221/221
f 176/176/176 223/223/223 222/222/222
f 222/222/222 43/43/43 176/176/176
f 200/200/200 224/224/224 225/225/225
f 225/225/225 201/201/201 200/200/200
f 226/226/226 224/224/224 200/200/200
f 200/200/200 172/172/172 226/226/226
f 227/227/227 226/226/226 172/172/172
f 172/172/172 171/171/171 227/227/227
f 228/228/228 229/229/229 169/169/169
f 169/169/169 48/48/48 228/228/228
f 48/48/48 47/47/47 230/230/230
f 230/230/230 228/228/228 48/48/48
f 231/231/231 34/34/34 33/33/33
f 33/33/33 232/232/232 231/231/231
f 233/233/233 133/133/133 136/136/136
f 136/136/136 234/234/234 233/233/233
f 136/136/136 192/192/192 235/235/235
f 235/235/235 234/234/234 136/136/136
f 192/192/192 191/191/191 236/236/236
f 236/236/236 235/235/235 192/192/192
f 105/105/105 30/30/30 237/237/237
f 237/237/237 238/238/238 105/105/105
f 239/239/239 237/237/237 30/30/30
f 30/30/30 29/29/29 239/239/239
f 87/87/87 90/90/90 86/86/86
f 86/86/86 85/85/85 87/87/87
f 177/177/177 87/87/87 85/85/85
f 85/85/85 214/214/214 177/177/177
f 177/177/177 214/214/214 119/119/119
f 119/119/119 121/121/121 177/177/177
f 121/121/121 119/119/119 23/23/23
f 23/23/23 71/71/71 121/121/121
f 26/26/26 72/72/72 71/71/71
f 71/71/71 23/23/23 26/26/26
f 34/34/34 231/231/231 240/240/240
f 240/240/240 35/35/35 34/34/34
f 241/241/241 242/242/242 36/36/36
f 36/36/36 35/35/35 241/241/241
f 35/35/35 240/240/240 243/243/243
f 243/243/243 241/241/241 35/35/35
f 17/17/17 69/69/69 68/68/68
f 68/68/68 18/18/18 17/17/17
f 16/16/16 15/15/15 64/64/64
f 64/64/64 63/63/63 16/16/16
f 15/15/15 128/128/128 125/125/125
f 125/125/125 64/64/64 15/15/15
f 128/128/128 183/183/183 182/182/182
f 182/182/182 125/125/125 128/128/128
f 182/182/182 183/183/183 99/99/99
f 99/99/99 96/96/96 182/182/182
f 96/96/96 99/99/99 102/102/102
f 102/102/102 97/97/97 96/96/96
f 19/19/19 22/22/22 76/76/76
f 76/76/76 75/75/75 19/19/19
f 244/244/244 239/239/239 29/29/29
f 29/29/29 245/245/245 244/244/244
f 28/28/28 246/246/246 245/245/245
f 245/245/245 29/29/29 28/28/28
f 155/155/155 53/53/53 247/247/247
f 247/247/247 248/248/248 155/155/155
f 247/247/247 53/53/53 56/56/56
f 56/56/56 249/249/249 247/247/247
f 41/41/41 40/40/40 250/250/250
f 250/250/250 251/251/251 41/41/41
f 40/40/40 221/221/221 252/252/252
f 252/252/252 250/250/250 40/40/40
f 115/115/115 114/114/114 113/113/113
f 113/113/113 112/112/112 115/115/115
f 205/205/205 206/206/206 115/115/115
f 115/115/115 112/112/112 205/205/205
f 145/145/145 206/206/206 205/205/205
f 205/205/205 143/143/143 145/145/145
f 37/37/37 145/145/145 143/143/143
f 143/143/143 7/7/7 37/37/37
f 6/6/6 38/38/38 37/37/37
f 37/37/37 7/7/7 6/6/6
f 47/47/47 253/253/253 254/254/254
f 254/254/254 230/230/230 47/47/47
f 46/46/46 255/255/255 253/253/253
f 253/253/253 47/47/47 46/46/46
f 256/256/256 257/257/257 62/62/62
f 62/62/62 61/61/61 256/256/256
f 148/148/148 258/258/258 256/256/256
f 256/256/256 61/61/61 148/148/148
f 259/259/259 260/260/260 261/261/261
f 261/261/261 262/262/262 259/259/259
f 263/263/263 264/264/264 265/265/265
f 265/265/265 266/266/266 263/263/263
f 264/264/264 267/267/267 268/268/268
f 268/268/268 265/265/265 264/264/264
f 267/267/267 269/269/269 270/270/270
f 270/270/270 268/268/268 267/267/267
f 271/271/271 272/272/272 273/273/273
f 273/273/273 274/274/274 271/271/271
f 275/275/275 276/276/276 273/273/273
f 273/273/273 272/272/272 275/275/275
f 277/277/277 278/278/278 276/276/276
f 276/276/276 275/275/275 277/277/277
f 279/279/279 280/280/280 281/281/281
f 281/281/281 282/282/282 279/279/279
f 282/282/282 281/281/281 283/283/283
f 283/283/283 284/284/284 282/282/282
f 285/285/285 286/286/286 284/284/284
f 284/284/284 283/283/283 285/285/285
f 287/287/287 288/288/288 289/289/289
f 289/289/289 290/290/290 287/287/287
f 290/290/290 289/289/289 291/291/291
f 291/291/291 292/292/292 290/290/290
f 67/67/67 70/70/70 293/293/293
f 293/293/293 294/294/294 67/67/67
f 295/295/295 66/66/66 65/65/65
f 65/65/65 296/296/296 295/295/295
f 296/296/296 65/65/65 126/126/126
f 126/126/126 297/297/297 296/296/296
f 126/126/126 181/181/181 298/298/298
f 298/298/298 297/297/297 126/126/126
f 181/181/181 95/95/95 299/299/299
f 299/299/299 298/298/298 181/181/181
f 95/95/95 98/98/98 300/300/300
f 300/300/300 299/299/299 95/95/95
f 301/301/301 78/78/78 77/77/77
f 77/77/77 302/302/302 301/301/301
f 88/88/88 303/303/303 304/304/304
f 304/304/304 89/89/89 88/88/88
f 178/178/178 305/305/305 303/303/303
f 303/303/303 88/88/88 178/178/178
f 122/122/122 306/306/306 305/305/305
f 305/305/305 178/178/178 122/122/122
f 122/122/122 74/74/74 307/307/307
f 307/307/307 306/306/306 122/122/122
f 74/74/74 73/73/73 308/308/308
f 308/308/308 307/307/307 74/74/74
f 284/284/284 309/309/309 310/310/310
f 310/310/310 282/282/282 284/284/284
f 282/282/282 310/310/310 311/311/311
f 311/311/311 279/279/279 282/282/282
f 278/278/278 312/312/312 313/313/313
f 313/313/313 276/276/276 278/278/278
f 313/313/313 314/314/314 273/273/273
f 273/273/273 276/276/276 313/313/313
f 314/314/314 315/315/315 274/274/274
f 274/274/274 273/273/273 314/314/314
f 316/316/316 317/317/317 268/268/268
f 268/268/268 270/270/270 316/316/316
f 265/265/265 268/268/268 317/317/317
f 317/317/317 318/318/318 265/265/265
f 265/265/265 318/318/318 319/319/319
f 319/319/319 266/266/266 265/265/265
f 262/262/262 261/261/261 320/320/320
f 320/320/320 321/321/321 262/262/262
f 322/322/322 262/262/262 321/321/321
f 321/321/321 323/323/323 322/322/322
f 324/324/324 292/292/292 322/322/322
f 322/322/322 323/323/323 324/324/324
f 325/325/325 290/290/290 292/292/292
f 292/292/292 324/324/324 325/325/325
f 326/326/326 287/287/287 290/290/290
f 290/290/290 325/325/325 326/326/326
f 284/284/284 286/286/286 327/327/327
f 327/327/327 309/309/309 284/284/284
f 262/262/262 322/322/322 328/328/328
f 328/328/328 259/259/259 262/262/262
f 322/322/322 292/292/292 291/291/291
f 291/291/291 328/328/328 322/322/322
f 1/1/1 4/4/4 307/307/307
f 307/307/307 308/308/308 1/1/1
f 4/4/4 124/124/124 306/306/306
f 306/306/306 307/307/307 4/4/4
f 124/124/124 180/180/180 305/305/305
f 305/305/305 306/306/306 124/124/124
f 305/305/305 180/180/180 94/94/94
f 94/94/94 303/303/303 305/305/305
f 303/303/303 94/94/94 93/93/93
f 93/93/93 304/304/304 303/303/303
f 77/77/77 329/329/329 330/330/330
f 330/330/330 302/302/302 77/77/77
f 76/76/76 244/244/244 329/329/329
f 329/329/329 77/77/77 76/76/76
f 22/22/22 239/239/239 244/244/244
f 244/244/244 76/76/76 22/22/22
f 22/22/22 21/21/21 237/237/237
f 237/237/237 239/239/239 22/22/22
f 238/238/238 237/237/237 21/21/21
f 21/21/21 103/103/103 238/238/238
f 235/235/235 236/236/236 186/186/186
f 186/186/186 185/185/185 235/235/235
f 234/234/234 235/235/235 185/185/185
f 185/185/185 131/131/131 234/234/234
f 130/130/130 233/233/233 234/234/234
f 234/234/234 131/131/131 130/130/130
f 10/10/10 231/231/231 232/232/232
f 232/232/232 11/11/11 10/10/10
f 231/231/231 10/10/10 18/18/18
f 18/18/18 240/240/240 231/231/231
f 18/18/18 68/68/68 243/243/243
f 243/243/243 240/240/240 18/18/18
f 68/68/68 67/67/67 331/331/331
f 331/331/331 243/243/243 68/68/68
f 67/67/67 294/294/294 332/332/332
f 332/332/332 331/331/331 67/67/67
f 260/260/260 259/259/259 84/84/84
f 84/84/84 83/83/83 260/260/260
f 246/246/246 28/28/28 264/264/264
f 264/264/264 263/263/263 246/246/246
f 28/28/28 27/27/27 267/267/267
f 267/267/267 264/264/264 28/28/28
f 106/106/106 269/269/269 267/267/267
f 267/267/267 27/27/27 106/106/106
f 272/272/272 271/271/271 190/190/190
f 190/190/190 189/189/189 272/272/272
f 135/135/135 275/275/275 272/272/272
f 272/272/272 189/189/189 135/135/135
f 134/134/134 277/277/277 275/275/275
f 275/275/275 135/135/135 134/134/134
f 281/281/281 280/280/280 32/32/32
f 32/32/32 31/31/31 281/281/281
f 281/281/281 31/31/31 36/36/36
f 36/36/36 283/283/283 281/281/281
f 242/242/242 285/285/285 283/283/283
f 283/283/283 36/36/36 242/242/242
f 24/24/24 289/289/289 288/288/288
f 288/288/288 25/25/25 24/24/24
f 291/291/291 289/289/289 24/24/24
f 24/24/24 120/120/120 291/291/291
f 328/328/328 291/291/291 120/120/120
f 120/120/120 213/213/213 328/328/328
f 259/259/259 328/328/328 213/213/213
f 213/213/213 84/84/84 259/259/259
f 146/146/146 326/326/326 325/325/325
f 325/325/325 147/147/147 146/146/146
f 148/148/148 309/309/309 327/327/327
f 327/327/327 258/258/258 148/148/148
f 309/309/309 148/148/148 149/149/149
f 149/149/149 310/310/310 309/309/309
f 149/149/149 150/150/150 311/311/311
f 311/311/311 310/310/310 149/149/149
f 151/151/151 152/152/152 313/313/313
f 313/313/313 312/312/312 151/151/151
f 152/152/152 196/196/196 314/314/314
f 314/314/314 313/313/313 152/152/152
f 196/196/196 195/195/195 315/315/315
f 315/315/315 314/314/314 196/196/196
f 316/316/316 154/154/154 153/153/153
f 153/153/153 317/317/317 316/316/316
f 318/318/318 317/317/317 153/153/153
f 153/153/153 155/155/155 318/318/318
f 155/155/155 248/248/248 319/319/319
f 319/319/319 318/318/318 155/155/155
f 321/321/321 320/320/320 157/157/157
f 157/157/157 156/156/156 321/321/321
f 323/323/323 321/321/321 156/156/156
f 156/156/156 212/212/212 323/323/323
f 158/158/158 324/324/324 323/323/323
f 323/323/323 212/212/212 158/158/158
f 147/147/147 325/325/325 324/324/324
f 324/324/324 158/158/158 147/147/147
f 211/211/211 82/82/82 160/160/160
f 160/160/160 209/209/209 211/211/211
f 82/82/82 81/81/81 161/161/161
f 161/161/161 160/160/160 82/82/82
f 249/249/249 56/56/56 41/41/41
f 41/41/41 251/251/251 249/249/249
f 56/56/56 55/55/55 42/42/42
f 42/42/42 41/41/41 56/56/56
f 55/55/55 108/108/108 175/175/175
f 175/175/175 42/42/42 55/55/55
f 197/197/197 199/199/199 202/202/202
f 202/202/202 198/198/198 197/197/197
f 199/199/199 197/197/197 137/137/137
f 137/137/137 173/173/173 199/199/199
f 173/173/173 137/137/137 140/140/140
f 140/140/140 174/174/174 173/173/173
f 58/58/58 45/45/45 170/170/170
f 170/170/170 59/59/59 58/58/58
f 62/62/62 46/46/46 45/45/45
f 45/45/45 58/58/58 62/62/62
f 257/257/257 255/255/255 46/46/46
f 46/46/46 62/62/62 257/257/257
f 50/50/50 165/165/165 168/168/168
f 168/168/168 51/51/51 50/50/50
f 50/50/50 118/118/118 166/166/166
f 166/166/166 165/165/165 50/50/50
f 118/118/118 211/211/211 209/209/209
f 209/209/209 166/166/166 118/118/118