mtllib 304731876.mtl
o Mesh

v 0.11675 0.299025 -0.08915
v 0.1182 0.277425 0.1652
v 0.2373 0.251525 0.04490025
v 0.2373 0.251525 0.04490025
v 0.19175 0.279475 -0.02109975
v 0.11675 0.299025 -0.08915
v 0.1182 0.277425 0.1652
v 0.11675 0.299025 -0.08915
v -0.003399895 0.314925 -0.08725
v -0.003399895 0.314925 -0.08725
v -0.0033999 0.306025 0.1888995
v 0.1182 0.277425 0.1652
v -0.125 0.277425 0.1652
v -0.0033999 0.306025 0.1888995
v -0.003399895 0.314925 -0.08725
v -0.003399895 0.314925 -0.08725
v -0.12355 0.299075 -0.08915
v -0.125 0.277425 0.1652
v -0.12355 0.299075 -0.08915
v -0.19855 0.279525 -0.02104975
v -0.2441 0.251525 0.04490025
v -0.2441 0.251525 0.04490025
v -0.125 0.277425 0.1652
v -0.12355 0.299075 -0.08915
v 0.1182 0.277425 0.1652
v 0.1486 0.174525 0.25035
v 0.2614 0.169725 0.1333
v 0.2614 0.169725 0.1333
v 0.2373 0.251525 0.04490025
v 0.1182 0.277425 0.1652
v -0.0033999 0.306025 0.1888995
v -0.003399945 0.163825 0.2919
v 0.1486 0.174525 0.25035
v 0.1486 0.174525 0.25035
v 0.1182 0.277425 0.1652
v -0.0033999 0.306025 0.1888995
v -0.125 0.277425 0.1652
v -0.1554 0.174425 0.25035
v -0.003399945 0.163825 0.2919
v -0.003399945 0.163825 0.2919
v -0.0033999 0.306025 0.1888995
v -0.125 0.277425 0.1652
v -0.125 0.277425 0.1652
v -0.2441 0.251525 0.04490025
v -0.2682 0.169675 0.1333
v -0.2682 0.169675 0.1333
v -0.1554 0.174425 0.25035
v -0.125 0.277425 0.1652
v 0.2465 0.0248748 0.2061
v 0.2614 0.169725 0.1333
v 0.1486 0.174525 0.25035
v 0.1486 0.174525 0.25035
v 0.1182 0.0302249 0.2848005
v 0.2465 0.0248748 0.2061
v -0.003399945 0.163825 0.2919
v -0.003399995 0.0106249 0.33745
v 0.1182 0.0302249 0.2848005
v 0.1182 0.0302249 0.2848005
v 0.1486 0.174525 0.25035
v -0.003399945 0.163825 0.2919
v -0.003399945 0.163825 0.2919
v -0.1554 0.174425 0.25035
v -0.1296 0.0302249 0.2848005
v -0.1296 0.0302249 0.2848005
v -0.003399995 0.0106249 0.33745
v -0.003399945 0.163825 0.2919
v -0.1554 0.174425 0.25035
v -0.2682 0.169675 0.1333
v -0.2533 0.024675 0.2060005
v -0.2533 0.024675 0.2060005
v -0.1296 0.0302249 0.2848005
v -0.1554 0.174425 0.25035
v 0.20845 -0.076525 0.2866
v 0.2465 0.0248748 0.2061
v 0.1182 0.0302249 0.2848005
v 0.1182 0.0302249 0.2848005
v 0.1214 -0.077825 0.3127505
v 0.20845 -0.076525 0.2866
v -0.003399995 0.0106249 0.33745
v -0.003400025 -0.070375 0.3461495
v 0.1214 -0.077825 0.3127505
v 0.1214 -0.077825 0.3127505
v 0.1182 0.0302249 0.2848005
v -0.003399995 0.0106249 0.33745
v -0.12815 -0.077925 0.3128
v -0.003400025 -0.070375 0.3461495
v -0.003399995 0.0106249 0.33745
v -0.003399995 0.0106249 0.33745
v -0.1296 0.0302249 0.2848005
v -0.12815 -0.077925 0.3128
v -0.206 -0.069525 0.2549495
v -0.12815 -0.077925 0.3128
v -0.1296 0.0302249 0.2848005
v -0.1296 0.0302249 0.2848005
v -0.2533 0.024675 0.2060005
v -0.206 -0.069525 0.2549495
v 0.1453 0.000924825 -0.3134
v 0.14405 0.153575 -0.2733995
v 0.2316 0.127675 -0.2218
v 0.2316 0.127675 -0.2218
v 0.23955 -0.04812515 -0.2592495
v 0.1453 0.000924825 -0.3134
v -0.003449995 0.0084249 -0.3437995
v -0.003949945 0.160775 -0.30435
v 0.14405 0.153575 -0.2733995
v 0.14405 0.153575 -0.2733995
v 0.1453 0.000924825 -0.3134
v -0.003449995 0.0084249 -0.3437995
v -0.1522 0.000874875 -0.3134
v -0.15205 0.153575 -0.2735
v -0.003949945 0.160775 -0.30435
v -0.003949945 0.160775 -0.30435
v -0.003449995 0.0084249 -0.3437995
v -0.1522 0.000874875 -0.3134
v -0.2395 0.127675 -0.22195
v -0.15205 0.153575 -0.2735
v -0.1522 0.000874875 -0.3134
v -0.1522 0.000874875 -0.3134
v -0.24645 -0.04822495 -0.2592495
v -0.2395 0.127675 -0.22195
v 0.21865 0.119975 -0.20915
v 0.1367 0.147875 -0.2566
v 0.11675 0.299025 -0.08915
v 0.11675 0.299025 -0.08915
v 0.19175 0.279475 -0.02109975
v 0.21865 0.119975 -0.20915
v 0.11675 0.299025 -0.08915
v 0.1367 0.147875 -0.2566
v -0.00394995 0.155975 -0.2854495
v -0.00394995 0.155975 -0.2854495
v -0.003399895 0.314925 -0.08725
v 0.11675 0.299025 -0.08915
v -0.00394995 0.155975 -0.2854495
v -0.1446 0.148025 -0.25665
v -0.12355 0.299075 -0.08915
v -0.12355 0.299075 -0.08915
v -0.003399895 0.314925 -0.08725
v -0.00394995 0.155975 -0.2854495
v -0.12355 0.299075 -0.08915
v -0.1446 0.148025 -0.25665
v -0.22655 0.120025 -0.2092
v -0.22655 0.120025 -0.2092
v -0.19855 0.279525 -0.02104975
v -0.12355 0.299075 -0.08915
v -0.30295 0.065375 -0.1513995
v -0.2395 0.127675 -0.22195
v -0.24645 -0.04822495 -0.2592495
v -0.24645 -0.04822495 -0.2592495
v -0.3056 -0.140375 -0.1696
v -0.30295 0.065375 -0.1513995
v -0.3056 -0.140375 -0.1696
v -0.336 -0.234275 -0.01804975
v -0.3384 -0.023075 -0.02089975
v -0.3384 -0.023075 -0.02089975
v -0.30295 0.065375 -0.1513995
v -0.3056 -0.140375 -0.1696
v -0.30325 -0.093125 0.1227
v -0.3384 -0.023075 -0.02089975
v -0.336 -0.234275 -0.01804975
v -0.336 -0.234275 -0.01804975
v -0.30495 -0.287775 0.1325505
v -0.30325 -0.093125 0.1227
v -0.23965 -0.143625 0.2134505
v -0.30325 -0.093125 0.1227
v -0.30495 -0.287775 0.1325505
v -0.30495 -0.287775 0.1325505
v -0.2448 -0.290775 0.2289505
v -0.23965 -0.143625 0.2134505
v -0.19855 0.279525 -0.02104975
v -0.22655 0.120025 -0.2092
v -0.28575 0.060475 -0.14375
v -0.28575 0.060475 -0.14375
v -0.2441 0.251525 0.04490025
v -0.19855 0.279525 -0.02104975
v -0.3192 -0.023775 -0.02039975
v -0.2682 0.169675 0.1333
v -0.2441 0.251525 0.04490025
v -0.2441 0.251525 0.04490025
v -0.28575 0.060475 -0.14375
v -0.3192 -0.023775 -0.02039975
v -0.3192 -0.023775 -0.02039975
v -0.28575 -0.093725 0.11465
v -0.2533 0.024675 0.2060005
v -0.2533 0.024675 0.2060005
v -0.2682 0.169675 0.1333
v -0.3192 -0.023775 -0.02039975
v -0.28575 -0.093725 0.11465
v -0.22655 -0.146475 0.19895
v -0.206 -0.069525 0.2549495
v -0.206 -0.069525 0.2549495
v -0.2533 0.024675 0.2060005
v -0.28575 -0.093725 0.11465
v -0.1571 -0.278025 0.2891
v -0.1525 -0.147525 0.282
v -0.23965 -0.143625 0.2134505
v -0.23965 -0.143625 0.2134505
v -0.2448 -0.290775 0.2289505
v -0.1571 -0.278025 0.2891
v -0.1525 -0.147525 0.282
v -0.1571 -0.278025 0.2891
v -0.003500085 -0.266975 0.3222505
v -0.003500085 -0.266975 0.3222505
v -0.00395004 -0.120725 0.3241005
v -0.1525 -0.147525 0.282
v -0.003500085 -0.266975 0.3222505
v 0.1501 -0.277925 0.2890005
v 0.14455 -0.147325 0.282
v 0.14455 -0.147325 0.282
v -0.00395004 -0.120725 0.3241005
v -0.003500085 -0.266975 0.3222505
v 0.1501 -0.277925 0.2890005
v 0.23775 -0.290575 0.2289505
v 0.23165 -0.143575 0.2134505
v 0.23165 -0.143575 0.2134505
v 0.14455 -0.147325 0.282
v 0.1501 -0.277925 0.2890005
v -0.206 -0.069525 0.2549495
v -0.22655 -0.146475 0.19895
v -0.1446 -0.151375 0.2636505
v -0.1446 -0.151375 0.2636505
v -0.12815 -0.077925 0.3128
v -0.206 -0.069525 0.2549495
v -0.12815 -0.077925 0.3128
v -0.1446 -0.151375 0.2636505
v -0.00395004 -0.123075 0.30365
v -0.00395004 -0.123075 0.30365
v -0.003400025 -0.070375 0.3461495
v -0.12815 -0.077925 0.3128
v 0.1214 -0.077825 0.3127505
v -0.003400025 -0.070375 0.3461495
v -0.00395004 -0.123075 0.30365
v -0.00395004 -0.123075 0.30365
v 0.1367 -0.151225 0.2636005
v 0.1214 -0.077825 0.3127505
v 0.20845 -0.076525 0.2866
v 0.1214 -0.077825 0.3127505
v 0.1367 -0.151225 0.2636005
v 0.1367 -0.151225 0.2636005
v 0.21865 -0.146625 0.19885
v 0.20845 -0.076525 0.2866
v 0.23165 -0.143575 0.2134505
v 0.23775 -0.290575 0.2289505
v 0.298 -0.287625 0.1325505
v 0.298 -0.287625 0.1325505
v 0.3032 -0.093325 0.1227505
v 0.23165 -0.143575 0.2134505
v 0.3032 -0.093325 0.1227505
v 0.298 -0.287625 0.1325505
v 0.3291 -0.234125 -0.01804975
v 0.3291 -0.234125 -0.01804975
v 0.3384 -0.0230752 -0.02074975
v 0.3032 -0.093325 0.1227505
v 0.3384 -0.0230752 -0.02074975
v 0.3291 -0.234125 -0.01804975
v 0.2986 -0.140325 -0.1696
v 0.2986 -0.140325 -0.1696
v 0.29505 0.065375 -0.1513
v 0.3384 -0.0230752 -0.02074975
v 0.29505 0.065375 -0.1513
v 0.2986 -0.140325 -0.1696
v 0.23955 -0.04812515 -0.2592495
v 0.23955 -0.04812515 -0.2592495
v 0.2316 0.127675 -0.2218
v 0.29505 0.065375 -0.1513
v 0.2465 0.0248748 0.2061
v 0.20845 -0.076525 0.2866
v 0.21865 -0.146625 0.19885
v 0.21865 -0.146625 0.19885
v 0.28575 -0.093975 0.11465
v 0.2465 0.0248748 0.2061
v 0.2465 0.0248748 0.2061
v 0.28575 -0.093975 0.11465
v 0.3192 -0.02387525 -0.02029975
v 0.3192 -0.02387525 -0.02029975
v 0.2614 0.169725 0.1333
v 0.2465 0.0248748 0.2061
v 0.2373 0.251525 0.04490025
v 0.2614 0.169725 0.1333
v 0.3192 -0.02387525 -0.02029975
v 0.3192 -0.02387525 -0.02029975
v 0.28775 0.060325 -0.1437
v 0.2373 0.251525 0.04490025
v 0.19175 0.279475 -0.02109975
v 0.2373 0.251525 0.04490025
v 0.28775 0.060325 -0.1437
v 0.28775 0.060325 -0.1437
v 0.21865 0.119975 -0.20915
v 0.19175 0.279475 -0.02109975
v 0.1367 0.147875 -0.2566
v 0.21865 0.119975 -0.20915
v 0.2316 0.127675 -0.2218
v 0.2316 0.127675 -0.2218
v 0.14405 0.153575 -0.2733995
v 0.1367 0.147875 -0.2566
v 0.29505 0.065375 -0.1513
v 0.2316 0.127675 -0.2218
v 0.21865 0.119975 -0.20915
v 0.21865 0.119975 -0.20915
v 0.28775 0.060325 -0.1437
v 0.29505 0.065375 -0.1513
v 0.28775 0.060325 -0.1437
v 0.3192 -0.02387525 -0.02029975
v 0.3384 -0.0230752 -0.02074975
v 0.3384 -0.0230752 -0.02074975
v 0.29505 0.065375 -0.1513
v 0.28775 0.060325 -0.1437
v 0.3032 -0.093325 0.1227505
v 0.3384 -0.0230752 -0.02074975
v 0.3192 -0.02387525 -0.02029975
v 0.3192 -0.02387525 -0.02029975
v 0.28575 -0.093975 0.11465
v 0.3032 -0.093325 0.1227505
v 0.23165 -0.143575 0.2134505
v 0.3032 -0.093325 0.1227505
v 0.28575 -0.093975 0.11465
v 0.28575 -0.093975 0.11465
v 0.21865 -0.146625 0.19885
v 0.23165 -0.143575 0.2134505
v 0.1367 -0.151225 0.2636005
v 0.14455 -0.147325 0.282
v 0.23165 -0.143575 0.2134505
v 0.23165 -0.143575 0.2134505
v 0.21865 -0.146625 0.19885
v 0.1367 -0.151225 0.2636005
v -0.00395004 -0.123075 0.30365
v -0.00395004 -0.120725 0.3241005
v 0.14455 -0.147325 0.282
v 0.14455 -0.147325 0.282
v 0.1367 -0.151225 0.2636005
v -0.00395004 -0.123075 0.30365
v -0.00395004 -0.123075 0.30365
v -0.1446 -0.151375 0.2636505
v -0.1525 -0.147525 0.282
v -0.1525 -0.147525 0.282
v -0.00395004 -0.120725 0.3241005
v -0.00395004 -0.123075 0.30365
v -0.23965 -0.143625 0.2134505
v -0.1525 -0.147525 0.282
v -0.1446 -0.151375 0.2636505
v -0.1446 -0.151375 0.2636505
v -0.22655 -0.146475 0.19895
v -0.23965 -0.143625 0.2134505
v -0.23965 -0.143625 0.2134505
v -0.22655 -0.146475 0.19895
v -0.28575 -0.093725 0.11465
v -0.30325 -0.093125 0.1227
v -0.23965 -0.143625 0.2134505
v -0.28575 -0.093725 0.11465
v -0.28575 -0.093725 0.11465
v -0.3192 -0.023775 -0.02039975
v -0.30325 -0.093125 0.1227
v -0.3192 -0.023775 -0.02039975
v -0.3384 -0.023075 -0.02089975
v -0.30325 -0.093125 0.1227
v -0.28575 0.060475 -0.14375
v -0.30295 0.065375 -0.1513995
v -0.3384 -0.023075 -0.02089975
v -0.3384 -0.023075 -0.02089975
v -0.3192 -0.023775 -0.02039975
v -0.28575 0.060475 -0.14375
v -0.22655 0.120025 -0.2092
v -0.2395 0.127675 -0.22195
v -0.30295 0.065375 -0.1513995
v -0.30295 0.065375 -0.1513995
v -0.28575 0.060475 -0.14375
v -0.22655 0.120025 -0.2092
v -0.2395 0.127675 -0.22195
v -0.22655 0.120025 -0.2092
v -0.1446 0.148025 -0.25665
v -0.1446 0.148025 -0.25665
v -0.15205 0.153575 -0.2735
v -0.2395 0.127675 -0.22195
v -0.1446 0.148025 -0.25665
v -0.00394995 0.155975 -0.2854495
v -0.003949945 0.160775 -0.30435
v -0.003949945 0.160775 -0.30435
v -0.15205 0.153575 -0.2735
v -0.1446 0.148025 -0.25665
v -0.003949945 0.160775 -0.30435
v -0.00394995 0.155975 -0.2854495
v 0.1367 0.147875 -0.2566
v 0.1367 0.147875 -0.2566
v 0.14405 0.153575 -0.2733995
v -0.003949945 0.160775 -0.30435
v 0.2986 -0.140325 -0.1696
v 0.29445 -0.160475 -0.1750995
v 0.23565 -0.074725 -0.2597
v 0.23565 -0.074725 -0.2597
v 0.23955 -0.04812515 -0.2592495
v 0.2986 -0.140325 -0.1696
v 0.1497 -0.02712525 -0.3138495
v 0.1453 0.000924825 -0.3134
v 0.23955 -0.04812515 -0.2592495
v 0.23955 -0.04812515 -0.2592495
v 0.23565 -0.074725 -0.2597
v 0.1497 -0.02712525 -0.3138495
v 0.1453 0.000924825 -0.3134
v 0.1497 -0.02712525 -0.3138495
v -0.003550005 -0.0177251 -0.3461495
v -0.003550005 -0.0177251 -0.3461495
v -0.003449995 0.0084249 -0.3437995
v 0.1453 0.000924825 -0.3134
v -0.1522 0.000874875 -0.3134
v -0.003449995 0.0084249 -0.3437995
v -0.003550005 -0.0177251 -0.3461495
v -0.003550005 -0.0177251 -0.3461495
v -0.1566 -0.027225 -0.3138495
v -0.1522 0.000874875 -0.3134
v -0.24645 -0.04822495 -0.2592495
v -0.1522 0.000874875 -0.3134
v -0.1566 -0.027225 -0.3138495
v -0.1566 -0.027225 -0.3138495
v -0.2425 -0.074725 -0.2597
v -0.24645 -0.04822495 -0.2592495
v -0.3056 -0.140375 -0.1696
v -0.24645 -0.04822495 -0.2592495
v -0.2425 -0.074725 -0.2597
v -0.2425 -0.074725 -0.2597
v -0.30135 -0.160525 -0.17515
v -0.3056 -0.140375 -0.1696
v -0.30135 -0.160525 -0.17515
v -0.32945 -0.257975 -0.01804975
v -0.336 -0.234275 -0.01804975
v -0.336 -0.234275 -0.01804975
v -0.3056 -0.140375 -0.1696
v -0.30135 -0.160525 -0.17515
v -0.32945 -0.257975 -0.01804975
v -0.2998 -0.312325 0.1376505
v -0.30495 -0.287775 0.1325505
v -0.30495 -0.287775 0.1325505
v -0.336 -0.234275 -0.01804975
v -0.32945 -0.257975 -0.01804975
v -0.2998 -0.312325 0.1376505
v -0.2416 -0.314925 0.2255005
v -0.2448 -0.290775 0.2289505
v -0.2448 -0.290775 0.2289505
v -0.30495 -0.287775 0.1325505
v -0.2998 -0.312325 0.1376505
v -0.2448 -0.290775 0.2289505
v -0.2416 -0.314925 0.2255005
v -0.16205 -0.303225 0.2834505
v -0.16205 -0.303225 0.2834505
v -0.1571 -0.278025 0.2891
v -0.2448 -0.290775 0.2289505
v -0.003400095 -0.291225 0.3138005
v -0.003500085 -0.266975 0.3222505
v -0.1571 -0.278025 0.2891
v -0.1571 -0.278025 0.2891
v -0.16205 -0.303225 0.2834505
v -0.003400095 -0.291225 0.3138005
v 0.1501 -0.277925 0.2890005
v -0.003500085 -0.266975 0.3222505
v -0.003400095 -0.291225 0.3138005
v -0.003400095 -0.291225 0.3138005
v 0.1552 -0.303075 0.2834505
v 0.1501 -0.277925 0.2890005
v 0.23775 -0.290575 0.2289505
v 0.1501 -0.277925 0.2890005
v 0.1552 -0.303075 0.2834505
v 0.1552 -0.303075 0.2834505
v 0.2347 -0.314725 0.22545
v 0.23775 -0.290575 0.2289505
v 0.2929 -0.312025 0.1376505
v 0.298 -0.287625 0.1325505
v 0.23775 -0.290575 0.2289505
v 0.23775 -0.290575 0.2289505
v 0.2347 -0.314725 0.22545
v 0.2929 -0.312025 0.1376505
v 0.32265 -0.257825 -0.01804975
v 0.3291 -0.234125 -0.01804975
v 0.298 -0.287625 0.1325505
v 0.298 -0.287625 0.1325505
v 0.2929 -0.312025 0.1376505
v 0.32265 -0.257825 -0.01804975
v 0.29445 -0.160475 -0.1750995
v 0.2986 -0.140325 -0.1696
v 0.3291 -0.234125 -0.01804975
v 0.3291 -0.234125 -0.01804975
v 0.32265 -0.257825 -0.01804975
v 0.29445 -0.160475 -0.1750995
v -0.00345007 -0.210325 -0.01954975
v 0.1497 -0.02712525 -0.3138495
v 0.23565 -0.074725 -0.2597
v -0.00345007 -0.210325 -0.01954975
v -0.1566 -0.027225 -0.3138495
v -0.003550005 -0.0177251 -0.3461495
v -0.00345007 -0.210325 -0.01954975
v -0.30135 -0.160525 -0.17515
v -0.2425 -0.074725 -0.2597
v -0.32945 -0.257975 -0.01804975
v -0.00345007 -0.210325 -0.01954975
v -0.2998 -0.312325 0.1376505
v -0.00345007 -0.210325 -0.01954975
v -0.16205 -0.303225 0.2834505
v -0.2416 -0.314925 0.2255005
v -0.003400095 -0.291225 0.3138005
v -0.00345007 -0.210325 -0.01954975
v 0.1552 -0.303075 0.2834505
v -0.00345007 -0.210325 -0.01954975
v 0.2929 -0.312025 0.1376505
v 0.2347 -0.314725 0.22545
v -0.00345007 -0.210325 -0.01954975
v 0.29445 -0.160475 -0.1750995
v 0.32265 -0.257825 -0.01804975
v -0.00345007 -0.210325 -0.01954975
v 0.23565 -0.074725 -0.2597
v 0.29445 -0.160475 -0.1750995
v -0.00345007 -0.210325 -0.01954975
v -0.003550005 -0.0177251 -0.3461495
v 0.1497 -0.02712525 -0.3138495
v -0.00345007 -0.210325 -0.01954975
v -0.2425 -0.074725 -0.2597
v -0.1566 -0.027225 -0.3138495
v -0.00345007 -0.210325 -0.01954975
v 0.32265 -0.257825 -0.01804975
v 0.2929 -0.312025 0.1376505
v -0.32945 -0.257975 -0.01804975
v -0.30135 -0.160525 -0.17515
v -0.00345007 -0.210325 -0.01954975
v -0.003400095 -0.291225 0.3138005
v -0.16205 -0.303225 0.2834505
v -0.00345007 -0.210325 -0.01954975
v -0.00345007 -0.210325 -0.01954975
v -0.2416 -0.314925 0.2255005
v -0.2998 -0.312325 0.1376505
v -0.00345007 -0.210325 -0.01954975
v 0.2347 -0.314725 0.22545
v 0.1552 -0.303075 0.2834505

vn 0.161627 0.981234 0.105148
vn 0.376152 0.836045 0.399422
vn 0.415898 0.867231 0.273752
vn 0.415898 0.867231 0.273752
vn -0.266925 0.807415 0.526148
vn 0.161627 0.981234 0.105148
vn 0.376152 0.836045 0.399422
vn 0.161627 0.981234 0.105148
vn 0.000144057 0.997601 0.0692224
vn 0.000144057 0.997601 0.0692224
vn -0.0160687 0.882605 0.469841
vn 0.376152 0.836045 0.399422
vn -0.359754 0.829695 0.426828
vn -0.0160687 0.882605 0.469841
vn 0.000144057 0.997601 0.0692224
vn 0.000144057 0.997601 0.0692224
vn -0.16132 0.981255 0.105423
vn -0.359754 0.829695 0.426828
vn -0.16132 0.981255 0.105423
vn 0.269604 0.805254 0.52809
vn -0.415982 0.867092 0.274061
vn -0.415982 0.867092 0.274061
vn -0.359754 0.829695 0.426828
vn -0.16132 0.981255 0.105423
vn 0.376152 0.836045 0.399422
vn 0.393219 0.626879 0.672608
vn 0.591922 0.64314 0.485798
vn 0.591922 0.64314 0.485798
vn 0.415898 0.867231 0.273752
vn 0.376152 0.836045 0.399422
vn -0.0160687 0.882605 0.469841
vn -0.0207019 0.607656 0.793931
vn 0.393219 0.626879 0.672608
vn 0.393219 0.626879 0.672608
vn 0.376152 0.836045 0.399422
vn -0.0160687 0.882605 0.469841
vn -0.359754 0.829695 0.426828
vn -0.358108 0.655421 0.664967
vn -0.0207019 0.607656 0.793931
vn -0.0207019 0.607656 0.793931
vn -0.0160687 0.882605 0.469841
vn -0.359754 0.829695 0.426828
vn -0.359754 0.829695 0.426828
vn -0.415982 0.867092 0.274061
vn -0.592005 0.642882 0.486038
vn -0.592005 0.642882 0.486038
vn -0.358108 0.655421 0.664967
vn -0.359754 0.829695 0.426828
vn 0.815232 0.112936 0.568016
vn 0.928468 0.221614 0.298052
vn 0.482126 0.182961 0.856785
vn 0.482126 0.182961 0.856785
vn 0.387107 0.236499 0.891188
vn 0.815232 0.112936 0.568016
vn 0.00263374 0.231528 0.972825
vn 0.00361434 0.219749 0.97555
vn 0.387107 0.236499 0.891188
vn 0.387107 0.236499 0.891188
vn 0.482126 0.182961 0.856785
vn 0.00263374 0.231528 0.972825
vn 0.00263374 0.231528 0.972825
vn -0.483461 0.190192 0.854455
vn -0.428774 0.190969 0.882997
vn -0.428774 0.190969 0.882997
vn 0.00361434 0.219749 0.97555
vn 0.00263374 0.231528 0.972825
vn -0.483461 0.190192 0.854455
vn -0.935369 0.210359 0.284312
vn -0.805944 0.0674162 0.58814
vn -0.805944 0.0674162 0.58814
vn -0.428774 0.190969 0.882997
vn -0.483461 0.190192 0.854455
vn 0.651314 -0.139767 0.745826
vn 0.815232 0.112936 0.568016
vn 0.387107 0.236499 0.891188
vn 0.387107 0.236499 0.891188
vn 0.262176 -0.178145 0.948434
vn 0.651314 -0.139767 0.745826
vn 0.00361434 0.219749 0.97555
vn 0.000568421 -0.254077 0.967184
vn 0.262176 -0.178145 0.948434
vn 0.262176 -0.178145 0.948434
vn 0.387107 0.236499 0.891188
vn 0.00361434 0.219749 0.97555
vn -0.399799 -0.168927 0.900902
vn 0.000568421 -0.254077 0.967184
vn 0.00361434 0.219749 0.97555
vn 0.00361434 0.219749 0.97555
vn -0.428774 0.190969 0.882997
vn -0.399799 -0.168927 0.900902
vn -0.682605 -0.104701 0.723248
vn -0.399799 -0.168927 0.900902
vn -0.428774 0.190969 0.882997
vn -0.428774 0.190969 0.882997
vn -0.805944 0.0674162 0.58814
vn -0.682605 -0.104701 0.723248
vn 0.40374 0.228619 -0.885849
vn 0.374598 0.236891 -0.896415
vn 0.657384 0.192372 -0.728588
vn 0.657384 0.192372 -0.728588
vn 0.755701 0.132083 -0.64146
vn 0.40374 0.228619 -0.885849
vn 0.00132081 0.251649 -0.967818
vn 0.000737769 0.251444 -0.967872
vn 0.374598 0.236891 -0.896415
vn 0.374598 0.236891 -0.896415
vn 0.40374 0.228619 -0.885849
vn 0.00132081 0.251649 -0.967818
vn -0.403391 0.224825 -0.886977
vn -0.375659 0.234638 -0.896563
vn 0.000737769 0.251444 -0.967872
vn 0.000737769 0.251444 -0.967872
vn 0.00132081 0.251649 -0.967818
vn -0.403391 0.224825 -0.886977
vn -0.65686 0.188004 -0.730198
vn -0.375659 0.234638 -0.896563
vn -0.403391 0.224825 -0.886977
vn -0.403391 0.224825 -0.886977
vn -0.753902 0.128202 -0.644357
vn -0.65686 0.188004 -0.730198
vn 0.667085 0.604067 -0.436004
vn 0.353561 0.714931 -0.603215
vn 0.369194 0.731636 -0.573066
vn 0.369194 0.731636 -0.573066
vn 0.715716 0.58199 -0.386055
vn 0.667085 0.604067 -0.436004
vn 0.369194 0.731636 -0.573066
vn 0.353561 0.714931 -0.603215
vn 0.000218976 0.761975 -0.647607
vn 0.000218976 0.761975 -0.647607
vn 0.00027004 0.780119 -0.625631
vn 0.369194 0.731636 -0.573066
vn 0.000218976 0.761975 -0.647607
vn -0.353568 0.716331 -0.601547
vn -0.368057 0.733079 -0.571952
vn -0.368057 0.733079 -0.571952
vn 0.00027004 0.780119 -0.625631
vn 0.000218976 0.761975 -0.647607
vn -0.368057 0.733079 -0.571952
vn -0.353568 0.716331 -0.601547
vn -0.691545 0.590218 -0.416422
vn -0.691545 0.590218 -0.416422
vn -0.725601 0.569124 -0.386783
vn -0.368057 0.733079 -0.571952
vn -0.885001 0.0920652 -0.456396
vn -0.65686 0.188004 -0.730198
vn -0.753902 0.128202 -0.644357
vn -0.753902 0.128202 -0.644357
vn -0.949233 0.0216792 -0.313826
vn -0.885001 0.0920652 -0.456396
vn -0.949233 0.0216792 -0.313826
vn -0.997236 0.000232494 0.0742962
vn -0.99746 0.00630468 -0.0709454
vn -0.99746 0.00630468 -0.0709454
vn -0.885001 0.0920652 -0.456396
vn -0.949233 0.0216792 -0.313826
vn -0.933874 0.0151948 0.357279
vn -0.99746 0.00630468 -0.0709454
vn -0.997236 0.000232494 0.0742962
vn -0.997236 0.000232494 0.0742962
vn -0.908447 0.0469711 0.415353
vn -0.933874 0.0151948 0.357279
vn -0.736187 0.0662812 0.673524
vn -0.933874 0.0151948 0.357279
vn -0.908447 0.0469711 0.415353
vn -0.908447 0.0469711 0.415353
vn -0.722149 0.0974121 0.684844
vn -0.736187 0.0662812 0.673524
vn -0.725601 0.569124 -0.386783
vn -0.691545 0.590218 -0.416422
vn -0.898066 0.395299 -0.192917
vn -0.898066 0.395299 -0.192917
vn -0.905002 0.386832 -0.177011
vn -0.725601 0.569124 -0.386783
vn -0.980077 0.174411 0.0950262
vn -0.935369 0.210359 0.284312
vn -0.905002 0.386832 -0.177011
vn -0.905002 0.386832 -0.177011
vn -0.898066 0.395299 -0.192917
vn -0.980077 0.174411 0.0950262
vn -0.980077 0.174411 0.0950262
vn -0.925251 -0.0346047 0.377773
vn -0.805944 0.0674162 0.58814
vn -0.805944 0.0674162 0.58814
vn -0.935369 0.210359 0.284312
vn -0.980077 0.174411 0.0950262
vn -0.925251 -0.0346047 0.377773
vn -0.765862 -0.231918 0.599725
vn -0.682605 -0.104701 0.723248
vn -0.682605 -0.104701 0.723248
vn -0.805944 0.0674162 0.58814
vn -0.925251 -0.0346047 0.377773
vn -0.424197 0.0773946 0.902257
vn -0.429374 0.0453462 0.901987
vn -0.736187 0.0662812 0.673524
vn -0.736187 0.0662812 0.673524
vn -0.722149 0.0974121 0.684844
vn -0.424197 0.0773946 0.902257
vn -0.429374 0.0453462 0.901987
vn -0.424197 0.0773946 0.902257
vn 0.000649892 0.0210398 0.999778
vn 0.000649892 0.0210398 0.999778
vn -0.000276487 -0.0126495 0.99992
vn -0.429374 0.0453462 0.901987
vn 0.000649892 0.0210398 0.999778
vn 0.425099 0.0798892 0.901614
vn 0.428876 0.0477714 0.902099
vn 0.428876 0.0477714 0.902099
vn -0.000276487 -0.0126495 0.99992
vn 0.000649892 0.0210398 0.999778
vn 0.425099 0.0798892 0.901614
vn 0.72185 0.102126 0.684473
vn 0.7241 0.058957 0.687171
vn 0.7241 0.058957 0.687171
vn 0.428876 0.0477714 0.902099
vn 0.425099 0.0798892 0.901614
vn -0.682605 -0.104701 0.723248
vn -0.765862 -0.231918 0.599725
vn -0.440748 -0.4329 0.786345
vn -0.440748 -0.4329 0.786345
vn -0.399799 -0.168927 0.900902
vn -0.682605 -0.104701 0.723248
vn -0.399799 -0.168927 0.900902
vn -0.440748 -0.4329 0.786345
vn -0.000636446 -0.597699 0.80172
vn -0.000636446 -0.597699 0.80172
vn 0.000568421 -0.254077 0.967184
vn -0.399799 -0.168927 0.900902
vn 0.262176 -0.178145 0.948434
vn 0.000568421 -0.254077 0.967184
vn -0.000636446 -0.597699 0.80172
vn -0.000636446 -0.597699 0.80172
vn 0.304137 -0.577575 0.757567
vn 0.262176 -0.178145 0.948434
vn 0.651314 -0.139767 0.745826
vn 0.262176 -0.178145 0.948434
vn 0.304137 -0.577575 0.757567
vn 0.304137 -0.577575 0.757567
vn 0.793719 -0.349483 0.497867
vn 0.651314 -0.139767 0.745826
vn 0.7241 0.058957 0.687171
vn 0.72185 0.102126 0.684473
vn 0.90569 0.0275226 0.423046
vn 0.90569 0.0275226 0.423046
vn 0.931843 -0.0165689 0.362482
vn 0.7241 0.058957 0.687171
vn 0.931843 -0.0165689 0.362482
vn 0.90569 0.0275226 0.423046
vn 0.997724 -0.0338318 0.0583239
vn 0.997724 -0.0338318 0.0583239
vn 0.994868 -0.0110447 -0.100577
vn 0.931843 -0.0165689 0.362482
vn 0.994868 -0.0110447 -0.100577
vn 0.997724 -0.0338318 0.0583239
vn 0.942562 0.0123083 -0.333804
vn 0.942562 0.0123083 -0.333804
vn 0.877834 0.0974251 -0.468952
vn 0.994868 -0.0110447 -0.100577
vn 0.877834 0.0974251 -0.468952
vn 0.942562 0.0123083 -0.333804
vn 0.755701 0.132083 -0.64146
vn 0.755701 0.132083 -0.64146
vn 0.657384 0.192372 -0.728588
vn 0.877834 0.0974251 -0.468952
vn 0.815232 0.112936 0.568016
vn 0.651314 -0.139767 0.745826
vn 0.793719 -0.349483 0.497867
vn 0.793719 -0.349483 0.497867
vn 0.912577 -0.0130963 0.408695
vn 0.815232 0.112936 0.568016
vn 0.815232 0.112936 0.568016
vn 0.912577 -0.0130963 0.408695
vn 0.973567 0.195375 0.118307
vn 0.973567 0.195375 0.118307
vn 0.928468 0.221614 0.298052
vn 0.815232 0.112936 0.568016
vn 0.899018 0.407486 -0.160381
vn 0.928468 0.221614 0.298052
vn 0.973567 0.195375 0.118307
vn 0.973567 0.195375 0.118307
vn 0.88496 0.422656 -0.195466
vn 0.899018 0.407486 -0.160381
vn 0.715716 0.58199 -0.386055
vn 0.899018 0.407486 -0.160381
vn 0.88496 0.422656 -0.195466
vn 0.88496 0.422656 -0.195466
vn 0.667085 0.604067 -0.436004
vn 0.715716 0.58199 -0.386055
vn 0.0227705 0.94074 0.338363
vn 0.053995 0.826907 0.559741
vn 0.0563943 0.83549 0.546603
vn 0.0563943 0.83549 0.546603
vn 0.0258992 0.943159 0.331331
vn 0.0227705 0.94074 0.338363
vn 0.0677677 0.800886 0.59497
vn 0.0563943 0.83549 0.546603
vn 0.053995 0.826907 0.559741
vn 0.053995 0.826907 0.559741
vn 0.0401398 0.813361 0.580372
vn 0.0677677 0.800886 0.59497
vn 0.0401398 0.813361 0.580372
vn -0.0308675 0.86562 0.499749
vn -0.0235466 0.864142 0.502697
vn -0.0235466 0.864142 0.502697
vn 0.0677677 0.800886 0.59497
vn 0.0401398 0.813361 0.580372
vn -0.201652 0.902332 0.380964
vn -0.0235466 0.864142 0.502697
vn -0.0308675 0.86562 0.499749
vn -0.0308675 0.86562 0.499749
vn -0.220322 0.901671 0.372086
vn -0.201652 0.902332 0.380964
vn -0.27633 0.959171 0.0602694
vn -0.201652 0.902332 0.380964
vn -0.220322 0.901671 0.372086
vn -0.220322 0.901671 0.372086
vn -0.288969 0.9556 0.0576748
vn -0.27633 0.959171 0.0602694
vn -0.0224665 0.980565 -0.194902
vn -0.0080203 0.98037 -0.197005
vn -0.27633 0.959171 0.0602694
vn -0.27633 0.959171 0.0602694
vn -0.288969 0.9556 0.0576748
vn -0.0224665 0.980565 -0.194902
vn -0.000627639 0.992226 -0.124445
vn -0.000630559 0.993462 -0.114165
vn -0.0080203 0.98037 -0.197005
vn -0.0080203 0.98037 -0.197005
vn -0.0224665 0.980565 -0.194902
vn -0.000627639 0.992226 -0.124445
vn -0.000627639 0.992226 -0.124445
vn 0.0211174 0.980993 -0.192893
vn 0.00746733 0.980728 -0.195233
vn 0.00746733 0.980728 -0.195233
vn -0.000630559 0.993462 -0.114165
vn -0.000627639 0.992226 -0.124445
vn 0.276907 0.957831 0.0766995
vn 0.00746733 0.980728 -0.195233
vn 0.0211174 0.980993 -0.192893
vn 0.0211174 0.980993 -0.192893
vn 0.294589 0.952357 0.0789561
vn 0.276907 0.957831 0.0766995
vn 0.276907 0.957831 0.0766995
vn 0.294589 0.952357 0.0789561
vn 0.220258 0.898281 0.380234
vn 0.200499 0.899717 0.387698
vn 0.276907 0.957831 0.0766995
vn 0.220258 0.898281 0.380234
vn 0.220258 0.898281 0.380234
vn 0.0250949 0.865771 0.49981
vn 0.200499 0.899717 0.387698
vn 0.0250949 0.865771 0.49981
vn 0.0171494 0.863871 0.503421
vn 0.200499 0.899717 0.387698
vn -0.0368156 0.80058 0.598094
vn -0.0436976 0.799436 0.59916
vn 0.0171494 0.863871 0.503421
vn 0.0171494 0.863871 0.503421
vn 0.0250949 0.865771 0.49981
vn -0.0368156 0.80058 0.598094
vn -0.0569371 0.826837 0.559553
vn -0.0601208 0.837276 0.543465
vn -0.0436976 0.799436 0.59916
vn -0.0436976 0.799436 0.59916
vn -0.0368156 0.80058 0.598094
vn -0.0569371 0.826837 0.559553
vn -0.0601208 0.837276 0.543465
vn -0.0569371 0.826837 0.559553
vn -0.0257213 0.943003 0.331789
vn -0.0257213 0.943003 0.331789
vn -0.0293463 0.945467 0.324392
vn -0.0601208 0.837276 0.543465
vn -0.0257213 0.943003 0.331789
vn 0.000474047 0.969231 0.246152
vn 0.000337159 0.96769 0.252143
vn 0.000337159 0.96769 0.252143
vn -0.0293463 0.945467 0.324392
vn -0.0257213 0.943003 0.331789
vn 0.000337159 0.96769 0.252143
vn 0.000474047 0.969231 0.246152
vn 0.0227705 0.94074 0.338363
vn 0.0227705 0.94074 0.338363
vn 0.0258992 0.943159 0.331331
vn 0.000337159 0.96769 0.252143
vn 0.88457 -0.0620273 -0.462264
vn 0.912529 -0.0848349 -0.400117
vn 0.69147 -0.0846428 -0.71743
vn 0.69147 -0.0846428 -0.71743
vn 0.61174 -0.0631297 -0.788536
vn 0.88457 -0.0620273 -0.462264
vn 0.411503 0.0683583 -0.908841
vn 0.332253 0.0696597 -0.940614
vn 0.61174 -0.0631297 -0.788536
vn 0.61174 -0.0631297 -0.788536
vn 0.69147 -0.0846428 -0.71743
vn 0.411503 0.0683583 -0.908841
vn 0.332253 0.0696597 -0.940614
vn 0.411503 0.0683583 -0.908841
vn -0.000577538 0.0849989 -0.996381
vn -0.000577538 0.0849989 -0.996381
vn 0.000487382 0.0895037 -0.995986
vn 0.332253 0.0696597 -0.940614
vn -0.332393 0.0696658 -0.940564
vn 0.000487382 0.0895037 -0.995986
vn -0.000577538 0.0849989 -0.996381
vn -0.000577538 0.0849989 -0.996381
vn -0.41158 0.0681879 -0.908819
vn -0.332393 0.0696658 -0.940564
vn -0.611226 -0.0643839 -0.788833
vn -0.332393 0.0696658 -0.940564
vn -0.41158 0.0681879 -0.908819
vn -0.41158 0.0681879 -0.908819
vn -0.690193 -0.0860732 -0.718488
vn -0.611226 -0.0643839 -0.788833
vn -0.883662 -0.0646906 -0.463633
vn -0.611226 -0.0643839 -0.788833
vn -0.690193 -0.0860732 -0.718488
vn -0.690193 -0.0860732 -0.718488
vn -0.911382 -0.0875943 -0.402131
vn -0.883662 -0.0646906 -0.463633
vn -0.911382 -0.0875943 -0.402131
vn -0.9638 -0.262089 -0.0489765
vn -0.95186 -0.258002 -0.165521
vn -0.95186 -0.258002 -0.165521
vn -0.883662 -0.0646906 -0.463633
vn -0.911382 -0.0875943 -0.402131
vn -0.9638 -0.262089 -0.0489765
vn -0.910761 -0.119052 0.3954
vn -0.949344 -0.145025 0.278772
vn -0.949344 -0.145025 0.278772
vn -0.95186 -0.258002 -0.165521
vn -0.9638 -0.262089 -0.0489765
vn -0.910761 -0.119052 0.3954
vn -0.708121 -0.190941 0.679784
vn -0.701101 -0.174106 0.69148
vn -0.701101 -0.174106 0.69148
vn -0.949344 -0.145025 0.278772
vn -0.910761 -0.119052 0.3954
vn -0.701101 -0.174106 0.69148
vn -0.708121 -0.190941 0.679784
vn -0.414878 -0.129665 0.900591
vn -0.414878 -0.129665 0.900591
vn -0.327054 -0.153117 0.932518
vn -0.701101 -0.174106 0.69148
vn 0.000849769 -0.315592 0.948894
vn 3.78774e-05 -0.329049 0.944313
vn -0.327054 -0.153117 0.932518
vn -0.327054 -0.153117 0.932518
vn -0.414878 -0.129665 0.900591
vn 0.000849769 -0.315592 0.948894
vn 0.327317 -0.14804 0.933246
vn 3.78774e-05 -0.329049 0.944313
vn 0.000849769 -0.315592 0.948894
vn 0.000849769 -0.315592 0.948894
vn 0.416024 -0.124089 0.900847
vn 0.327317 -0.14804 0.933246
vn 0.701264 -0.171172 0.692047
vn 0.327317 -0.14804 0.933246
vn 0.416024 -0.124089 0.900847
vn 0.416024 -0.124089 0.900847
vn 0.709245 -0.188054 0.679417
vn 0.701264 -0.171172 0.692047
vn 0.910542 -0.117383 0.396401
vn 0.949265 -0.143595 0.279781
vn 0.701264 -0.171172 0.692047
vn 0.701264 -0.171172 0.692047
vn 0.709245 -0.188054 0.679417
vn 0.910542 -0.117383 0.396401
vn 0.964859 -0.258477 -0.0472902
vn 0.953113 -0.25435 -0.163953
vn 0.949265 -0.143595 0.279781
vn 0.949265 -0.143595 0.279781
vn 0.910542 -0.117383 0.396401
vn 0.964859 -0.258477 -0.0472902
vn 0.912529 -0.0848349 -0.400117
vn 0.88457 -0.0620273 -0.462264
vn 0.953113 -0.25435 -0.163953
vn 0.953113 -0.25435 -0.163953
vn 0.964859 -0.258477 -0.0472902
vn 0.912529 -0.0848349 -0.400117
vn 0.000256088 -0.910901 -0.412625
vn -0.0210179 -0.843822 -0.536211
vn -0.144043 -0.793404 -0.591406
vn 0.000256088 -0.910901 -0.412625
vn 0.0210124 -0.843954 -0.536004
vn 0.000248919 -0.861378 -0.507965
vn 0.000256088 -0.910901 -0.412625
vn 0.166777 -0.800594 -0.57553
vn 0.143931 -0.793493 -0.591315
vn 0.128864 -0.895072 -0.426895
vn 0.000256088 -0.910901 -0.412625
vn 0.189188 -0.947418 -0.258084
vn 0.000256088 -0.910901 -0.412625
vn 0.192223 -0.961922 -0.19431
vn 0.244209 -0.954675 -0.170171
vn 0.000437145 -0.971791 -0.235842
vn 0.000256088 -0.910901 -0.412625
vn -0.191545 -0.962078 -0.194205
vn 0.000256088 -0.910901 -0.412625
vn -0.188338 -0.947609 -0.258002
vn -0.243415 -0.954858 -0.170278
vn 0.000256088 -0.910901 -0.412625
vn -0.16639 -0.800835 -0.575307
vn -0.128459 -0.895367 -0.426398
vn 0.000256088 -0.910901 -0.412625
vn -0.144043 -0.793404 -0.591406
vn -0.16639 -0.800835 -0.575307
vn 0.000256088 -0.910901 -0.412625
vn 0.000248919 -0.861378 -0.507965
vn -0.0210179 -0.843822 -0.536211
vn 0.000256088 -0.910901 -0.412625
vn 0.143931 -0.793493 -0.591315
vn 0.0210124 -0.843954 -0.536004
vn 0.000256088 -0.910901 -0.412625
vn -0.128459 -0.895367 -0.426398
vn -0.188338 -0.947609 -0.258002
vn 0.128864 -0.895072 -0.426895
vn 0.166777 -0.800594 -0.57553
vn 0.000256088 -0.910901 -0.412625
vn 0.000437145 -0.971791 -0.235842
vn 0.192223 -0.961922 -0.19431
vn 0.000256088 -0.910901 -0.412625
vn 0.000256088 -0.910901 -0.412625
vn 0.244209 -0.954675 -0.170171
vn 0.189188 -0.947418 -0.258084
vn 0.000256088 -0.910901 -0.412625
vn -0.243415 -0.954858 -0.170278
vn -0.191545 -0.962078 -0.194205

vt 0.436083 0.777711
vt 0.349029 0.689093
vt 0.355284 0.768068
vt 0.355284 0.768068
vt 0.388907 0.772499
vt 0.436083 0.777711
vt 0.349029 0.689093
vt 0.436083 0.777711
vt 0.494727 0.783284
vt 0.494727 0.783284
vt 0.401678 0.644784
vt 0.349029 0.689093
vt 0.348195 0.688572
vt 0.401105 0.644524
vt 0.494154 0.783284
vt 0.494154 0.783284
vt 0.435249 0.777451
vt 0.348195 0.688572
vt 0.435249 0.777451
vt 0.388073 0.772238
vt 0.35445 0.767547
vt 0.35445 0.767547
vt 0.348195 0.688572
vt 0.435249 0.777451
vt 0.556521 0.819912
vt 0.630282 0.80714
vt 0.599266 0.741719
vt 0.599266 0.741719
vt 0.550266 0.740937
vt 0.556521 0.819912
vt 0.585756 0.824574
vt 0.67837 0.882446
vt 0.630282 0.80714
vt 0.630282 0.80714
vt 0.556521 0.819912
vt 0.585756 0.824574
vt 0.557355 0.820433
vt 0.631116 0.807662
vt 0.678359 0.883545
vt 0.678359 0.883545
vt 0.585745 0.825673
vt 0.557355 0.820433
vt 0.557355 0.820433
vt 0.551099 0.741459
vt 0.600361 0.74224
vt 0.600361 0.74224
vt 0.631116 0.807662
vt 0.557355 0.820433
vt 0.670161 0.72973
vt 0.599266 0.741719
vt 0.630282 0.80714
vt 0.630282 0.80714
vt 0.704044 0.789677
vt 0.670161 0.72973
vt 0.67837 0.882446
vt 0.73805 0.919738
vt 0.704044 0.789677
vt 0.704044 0.789677
vt 0.630282 0.80714
vt 0.67837 0.882446
vt 0.678359 0.883545
vt 0.631116 0.807662
vt 0.704878 0.789938
vt 0.704878 0.789938
vt 0.737818 0.920699
vt 0.678359 0.883545
vt 0.631116 0.807662
vt 0.600361 0.74224
vt 0.671516 0.730251
vt 0.671516 0.730251
vt 0.704878 0.789938
vt 0.631116 0.807662
vt 0.728544 0.732336
vt 0.670161 0.72973
vt 0.704044 0.789677
vt 0.704044 0.789677
vt 0.753044 0.761789
vt 0.728544 0.732336
vt 0.73805 0.919738
vt 0.772974 0.941561
vt 0.753044 0.761789
vt 0.753044 0.761789
vt 0.704044 0.789677
vt 0.73805 0.919738
vt 0.753357 0.762831
vt 0.772521 0.942384
vt 0.737818 0.920699
vt 0.737818 0.920699
vt 0.704878 0.789938
vt 0.753357 0.762831
vt 0.724165 0.729208
vt 0.753357 0.762831
vt 0.704878 0.789938
vt 0.704878 0.789938
vt 0.671516 0.730251
vt 0.724165 0.729208
vt 0.421226 0.966416
vt 0.434258 0.892915
vt 0.395423 0.892394
vt 0.395423 0.892394
vt 0.364406 0.969804
vt 0.421226 0.966416
vt 0.495248 0.975975
vt 0.495248 0.924031
vt 0.434258 0.892915
vt 0.434258 0.892915
vt 0.421226 0.966416
vt 0.495248 0.975975
vt 0.419871 0.966155
vt 0.432643 0.892915
vt 0.493633 0.924031
vt 0.493633 0.924031
vt 0.493633 0.975975
vt 0.419871 0.966155
vt 0.394068 0.892133
vt 0.432643 0.892915
vt 0.419871 0.966155
vt 0.419871 0.966155
vt 0.362791 0.969283
vt 0.394068 0.892133
vt 0.395162 0.885617
vt 0.435822 0.883532
vt 0.436083 0.777711
vt 0.436083 0.777711
vt 0.388907 0.772499
vt 0.395162 0.885617
vt 0.436083 0.777711
vt 0.435822 0.883532
vt 0.495248 0.912823
vt 0.495248 0.912823
vt 0.494727 0.783284
vt 0.436083 0.777711
vt 0.493633 0.912823
vt 0.434206 0.883532
vt 0.435249 0.777451
vt 0.435249 0.777451
vt 0.494154 0.783284
vt 0.493633 0.912823
vt 0.435249 0.777451
vt 0.434206 0.883532
vt 0.393807 0.885356
vt 0.393807 0.885356
vt 0.388073 0.772238
vt 0.435249 0.777451
vt 0.350019 0.896825
vt 0.394068 0.892133
vt 0.362791 0.969283
vt 0.362791 0.969283
vt 0.297109 0.974235
vt 0.350019 0.896825
vt 0.297109 0.974235
vt 0.21631 0.954948
vt 0.28147 0.885096
vt 0.28147 0.885096
vt 0.350019 0.896825
vt 0.297109 0.974235
vt 0.213964 0.855904
vt 0.28147 0.885096
vt 0.21631 0.954948
vt 0.21631 0.954948
vt 0.152192 0.920022
vt 0.213964 0.855904
vt 0.162357 0.832446
vt 0.213964 0.855904
vt 0.152192 0.920022
vt 0.152192 0.920022
vt 0.116484 0.884053
vt 0.162357 0.832446
vt 0.388073 0.772238
vt 0.393807 0.885356
vt 0.348716 0.89083
vt 0.348716 0.89083
vt 0.35445 0.767547
vt 0.388073 0.772238
vt 0.28121 0.87858
vt 0.305189 0.766765
vt 0.35445 0.767547
vt 0.35445 0.767547
vt 0.348716 0.89083
vt 0.28121 0.87858
vt 0.28121 0.87858
vt 0.216049 0.847824
vt 0.234034 0.778754
vt 0.234034 0.778754
vt 0.305189 0.766765
vt 0.28121 0.87858
vt 0.6895 0.661181
vt 0.738501 0.68516
vt 0.724165 0.729208
vt 0.724165 0.729208
vt 0.671516 0.730251
vt 0.6895 0.661181
vt 0.0831224 0.845218
vt 0.123522 0.795956
vt 0.162357 0.832446
vt 0.162357 0.832446
vt 0.116484 0.884053
vt 0.0831224 0.845218
vt 0.123522 0.795956
vt 0.0831224 0.845218
vt 0.0278664 0.796478
vt 0.0278664 0.796478
vt 0.076867 0.737573
vt 0.123522 0.795956
vt 0.0281789 0.799084
vt 0.0836955 0.847564
vt 0.123574 0.797781
vt 0.123574 0.797781
vt 0.0763976 0.739397
vt 0.0281789 0.799084
vt 0.0836955 0.847564
vt 0.117579 0.886138
vt 0.16267 0.834271
vt 0.16267 0.834271
vt 0.123574 0.797781
vt 0.0836955 0.847564
vt 0.724165 0.729208
vt 0.738501 0.68516
vt 0.772905 0.72191
vt 0.772905 0.72191
vt 0.753357 0.762831
vt 0.724165 0.729208
vt 0.753357 0.762831
vt 0.772905 0.72191
vt 0.795067 0.956472
vt 0.795067 0.956472
vt 0.772521 0.942384
vt 0.753357 0.762831
vt 0.753044 0.761789
vt 0.772974 0.941561
vt 0.795962 0.955925
vt 0.795962 0.955925
vt 0.773114 0.720347
vt 0.753044 0.761789
vt 0.728544 0.732336
vt 0.753044 0.761789
vt 0.773114 0.720347
vt 0.773114 0.720347
vt 0.738449 0.683075
vt 0.728544 0.732336
vt 0.16267 0.834271
vt 0.117579 0.886138
vt 0.153547 0.921846
vt 0.153547 0.921846
vt 0.214798 0.857207
vt 0.16267 0.834271
vt 0.214798 0.857207
vt 0.153547 0.921846
vt 0.217926 0.95599
vt 0.217926 0.95599
vt 0.282565 0.885878
vt 0.214798 0.857207
vt 0.282565 0.885878
vt 0.217926 0.95599
vt 0.298725 0.975017
vt 0.298725 0.975017
vt 0.351374 0.897085
vt 0.282565 0.885878
vt 0.351374 0.897085
vt 0.298725 0.975017
vt 0.364406 0.969804
vt 0.364406 0.969804
vt 0.395423 0.892394
vt 0.351374 0.897085
vt 0.670161 0.72973
vt 0.728544 0.732336
vt 0.738449 0.683075
vt 0.738449 0.683075
vt 0.688666 0.659878
vt 0.670161 0.72973
vt 0.235389 0.779275
vt 0.216883 0.849127
vt 0.282304 0.879362
vt 0.282304 0.879362
vt 0.306283 0.767286
vt 0.235389 0.779275
vt 0.355284 0.768068
vt 0.306283 0.767286
vt 0.282304 0.879362
vt 0.282304 0.879362
vt 0.350071 0.891091
vt 0.355284 0.768068
vt 0.388907 0.772499
vt 0.355284 0.768068
vt 0.350071 0.891091
vt 0.350071 0.891091
vt 0.395162 0.885617
vt 0.388907 0.772499
vt 0.435822 0.883532
vt 0.395162 0.885617
vt 0.395423 0.892394
vt 0.395423 0.892394
vt 0.434258 0.892915
vt 0.435822 0.883532
vt 0.351374 0.897085
vt 0.395423 0.892394
vt 0.395162 0.885617
vt 0.395162 0.885617
vt 0.350071 0.891091
vt 0.351374 0.897085
vt 0.350071 0.891091
vt 0.282304 0.879362
vt 0.282565 0.885878
vt 0.282565 0.885878
vt 0.351374 0.897085
vt 0.350071 0.891091
vt 0.214798 0.857207
vt 0.282565 0.885878
vt 0.282304 0.879362
vt 0.282304 0.879362
vt 0.216883 0.849127
vt 0.214798 0.857207
vt 0.16267 0.834271
vt 0.214798 0.857207
vt 0.216883 0.849127
vt 0.216883 0.849127
vt 0.167101 0.82593
vt 0.16267 0.834271
vt 0.132436 0.788658
vt 0.123574 0.797781
vt 0.16267 0.834271
vt 0.16267 0.834271
vt 0.167101 0.82593
vt 0.132436 0.788658
vt 0.0909934 0.730014
vt 0.0763976 0.739397
vt 0.123574 0.797781
vt 0.123574 0.797781
vt 0.132436 0.788658
vt 0.0909934 0.730014
vt 0.0914628 0.72845
vt 0.132644 0.787095
vt 0.123522 0.795956
vt 0.123522 0.795956
vt 0.076867 0.737573
vt 0.0914628 0.72845
vt 0.162357 0.832446
vt 0.123522 0.795956
vt 0.132644 0.787095
vt 0.132644 0.787095
vt 0.167049 0.823845
vt 0.162357 0.832446
vt 0.162357 0.832446
vt 0.167049 0.823845
vt 0.216049 0.847824
vt 0.213964 0.855904
vt 0.162357 0.832446
vt 0.216049 0.847824
vt 0.216049 0.847824
vt 0.28121 0.87858
vt 0.213964 0.855904
vt 0.28121 0.87858
vt 0.28147 0.885096
vt 0.213964 0.855904
vt 0.348716 0.89083
vt 0.350019 0.896825
vt 0.28147 0.885096
vt 0.28147 0.885096
vt 0.28121 0.87858
vt 0.348716 0.89083
vt 0.393807 0.885356
vt 0.394068 0.892133
vt 0.350019 0.896825
vt 0.350019 0.896825
vt 0.348716 0.89083
vt 0.393807 0.885356
vt 0.394068 0.892133
vt 0.393807 0.885356
vt 0.434206 0.883532
vt 0.434206 0.883532
vt 0.432643 0.892915
vt 0.394068 0.892133
vt 0.434206 0.883532
vt 0.493633 0.912823
vt 0.493633 0.924031
vt 0.493633 0.924031
vt 0.432643 0.892915
vt 0.434206 0.883532
vt 0.495248 0.924031
vt 0.495248 0.912823
vt 0.435822 0.883532
vt 0.435822 0.883532
vt 0.434258 0.892915
vt 0.495248 0.924031
vt 0.298725 0.975017
vt 0.29664 0.982576
vt 0.360497 0.981012
vt 0.360497 0.981012
vt 0.364406 0.969804
vt 0.298725 0.975017
vt 0.416274 0.978927
vt 0.421226 0.966416
vt 0.364406 0.969804
vt 0.364406 0.969804
vt 0.360497 0.981012
vt 0.416274 0.978927
vt 0.421226 0.966416
vt 0.416274 0.978927
vt 0.495248 0.987444
vt 0.495248 0.987444
vt 0.495248 0.975975
vt 0.421226 0.966416
vt 0.419871 0.966155
vt 0.493633 0.975975
vt 0.493633 0.987444
vt 0.493633 0.987444
vt 0.414658 0.978666
vt 0.419871 0.966155
vt 0.362791 0.969283
vt 0.419871 0.966155
vt 0.414658 0.978666
vt 0.414658 0.978666
vt 0.358881 0.98049
vt 0.362791 0.969283
vt 0.297109 0.974235
vt 0.362791 0.969283
vt 0.358881 0.98049
vt 0.358881 0.98049
vt 0.294763 0.981794
vt 0.297109 0.974235
vt 0.294763 0.981794
vt 0.211619 0.960682
vt 0.21631 0.954948
vt 0.21631 0.954948
vt 0.297109 0.974235
vt 0.294763 0.981794
vt 0.211619 0.960682
vt 0.145937 0.924192
vt 0.152192 0.920022
vt 0.152192 0.920022
vt 0.21631 0.954948
vt 0.211619 0.960682
vt 0.145937 0.924192
vt 0.112054 0.892915
vt 0.116484 0.884053
vt 0.116484 0.884053
vt 0.152192 0.920022
vt 0.145937 0.924192
vt 0.116484 0.884053
vt 0.112054 0.892915
vt 0.0792128 0.859292
vt 0.0792128 0.859292
vt 0.0831224 0.845218
vt 0.116484 0.884053
vt 0.0184832 0.813941
vt 0.0278664 0.796478
vt 0.0831224 0.845218
vt 0.0831224 0.845218
vt 0.0792128 0.859292
vt 0.0184832 0.813941
vt 0.0836955 0.847564
vt 0.0281789 0.799084
vt 0.0190564 0.816808
vt 0.0190564 0.816808
vt 0.0800466 0.861638
vt 0.0836955 0.847564
vt 0.117579 0.886138
vt 0.0836955 0.847564
vt 0.0800466 0.861638
vt 0.0800466 0.861638
vt 0.113148 0.895261
vt 0.117579 0.886138
vt 0.147292 0.926016
vt 0.153547 0.921846
vt 0.117579 0.886138
vt 0.117579 0.886138
vt 0.113148 0.895261
vt 0.147292 0.926016
vt 0.212974 0.961985
vt 0.217926 0.95599
vt 0.153547 0.921846
vt 0.153547 0.921846
vt 0.147292 0.926016
vt 0.212974 0.961985
vt 0.29664 0.982576
vt 0.298725 0.975017
vt 0.217926 0.95599
vt 0.217926 0.95599
vt 0.212974 0.961985
vt 0.29664 0.982576
vt 0.484871 0.299548
vt 0.267764 0.126946
vt 0.326201 0.0650258
vt 0.484871 0.299548
vt 0.219002 0.378109
vt 0.217067 0.247303
vt 0.484871 0.299548
vt 0.30956 0.518977
vt 0.249575 0.457057
vt 0.433787 0.566965
vt 0.484871 0.299548
vt 0.566528 0.567739
vt 0.484871 0.299548
vt 0.70817 0.477955
vt 0.647798 0.53407
vt 0.758093 0.352567
vt 0.484871 0.299548
vt 0.758867 0.217891
vt 0.484871 0.299548
vt 0.660956 0.0812798
vt 0.724037 0.1432
vt 0.484871 0.299548
vt 0.404762 0.0301958
vt 0.538277 0.0321309
vt 0.484871 0.299548
vt 0.326201 0.0650258
vt 0.404762 0.0301958
vt 0.484871 0.299548
vt 0.217067 0.247303
vt 0.267764 0.126946
vt 0.484871 0.299548
vt 0.249575 0.457057
vt 0.219002 0.378109
vt 0.484871 0.299548
vt 0.538277 0.0321309
vt 0.660956 0.0812798
vt 0.433787 0.566965
vt 0.30956 0.518977
vt 0.484871 0.299548
vt 0.758093 0.352567
vt 0.70817 0.477955
vt 0.484871 0.299548
vt 0.484871 0.299548
vt 0.647798 0.53407
vt 0.566528 0.567739
vt 0.484871 0.299548
vt 0.724037 0.1432
vt 0.758867 0.217891

usemtl Material

f 1/1/1 2/2/2 3/3/3
f 4/4/4 5/5/5 6/6/6
f 7/7/7 8/8/8 9/9/9
f 10/10/10 11/11/11 12/12/12
f 13/13/13 14/14/14 15/15/15
f 16/16/16 17/17/17 18/18/18
f 19/19/19 20/20/20 21/21/21
f 22/22/22 23/23/23 24/24/24
f 25/25/25 26/26/26 27/27/27
f 28/28/28 29/29/29 30/30/30
f 31/31/31 32/32/32 33/33/33
f 34/34/34 35/35/35 36/36/36
f 37/37/37 38/38/38 39/39/39
f 40/40/40 41/41/41 42/42/42
f 43/43/43 44/44/44 45/45/45
f 46/46/46 47/47/47 48/48/48
f 49/49/49 50/50/50 51/51/51
f 52/52/52 53/53/53 54/54/54
f 55/55/55 56/56/56 57/57/57
f 58/58/58 59/59/59 60/60/60
f 61/61/61 62/62/62 63/63/63
f 64/64/64 65/65/65 66/66/66
f 67/67/67 68/68/68 69/69/69
f 70/70/70 71/71/71 72/72/72
f 73/73/73 74/74/74 75/75/75
f 76/76/76 77/77/77 78/78/78
f 79/79/79 80/80/80 81/81/81
f 82/82/82 83/83/83 84/84/84
f 85/85/85 86/86/86 87/87/87
f 88/88/88 89/89/89 90/90/90
f 91/91/91 92/92/92 93/93/93
f 94/94/94 95/95/95 96/96/96
f 97/97/97 98/98/98 99/99/99
f 100/100/100 101/101/101 102/102/102
f 103/103/103 104/104/104 105/105/105
f 106/106/106 107/107/107 108/108/108
f 109/109/109 110/110/110 111/111/111
f 112/112/112 113/113/113 114/114/114
f 115/115/115 116/116/116 117/117/117
f 118/118/118 119/119/119 120/120/120
f 121/121/121 122/122/122 123/123/123
f 124/124/124 125/125/125 126/126/126
f 127/127/127 128/128/128 129/129/129
f 130/130/130 131/131/131 132/132/132
f 133/133/133 134/134/134 135/135/135
f 136/136/136 137/137/137 138/138/138
f 139/139/139 140/140/140 141/141/141
f 142/142/142 143/143/143 144/144/144
f 145/145/145 146/146/146 147/147/147
f 148/148/148 149/149/149 150/150/150
f 151/151/151 152/152/152 153/153/153
f 154/154/154 155/155/155 156/156/156
f 157/157/157 158/158/158 159/159/159
f 160/160/160 161/161/161 162/162/162
f 163/163/163 164/164/164 165/165/165
f 166/166/166 167/167/167 168/168/168
f 169/169/169 170/170/170 171/171/171
f 172/172/172 173/173/173 174/174/174
f 175/175/175 176/176/176 177/177/177
f 178/178/178 179/179/179 180/180/180
f 181/181/181 182/182/182 183/183/183
f 184/184/184 185/185/185 186/186/186
f 187/187/187 188/188/188 189/189/189
f 190/190/190 191/191/191 192/192/192
f 193/193/193 194/194/194 195/195/195
f 196/196/196 197/197/197 198/198/198
f 199/199/199 200/200/200 201/201/201
f 202/202/202 203/203/203 204/204/204
f 205/205/205 206/206/206 207/207/207
f 208/208/208 209/209/209 210/210/210
f 211/211/211 212/212/212 213/213/213
f 214/214/214 215/215/215 216/216/216
f 217/217/217 218/218/218 219/219/219
f 220/220/220 221/221/221 222/222/222
f 223/223/223 224/224/224 225/225/225
f 226/226/226 227/227/227 228/228/228
f 229/229/229 230/230/230 231/231/231
f 232/232/232 233/233/233 234/234/234
f 235/235/235 236/236/236 237/237/237
f 238/238/238 239/239/239 240/240/240
f 241/241/241 242/242/242 243/243/243
f 244/244/244 245/245/245 246/246/246
f 247/247/247 248/248/248 249/249/249
f 250/250/250 251/251/251 252/252/252
f 253/253/253 254/254/254 255/255/255
f 256/256/256 257/257/257 258/258/258
f 259/259/259 260/260/260 261/261/261
f 262/262/262 263/263/263 264/264/264
f 265/265/265 266/266/266 267/267/267
f 268/268/268 269/269/269 270/270/270
f 271/271/271 272/272/272 273/273/273
f 274/274/274 275/275/275 276/276/276
f 277/277/277 278/278/278 279/279/279
f 280/280/280 281/281/281 282/282/282
f 283/283/283 284/284/284 285/285/285
f 286/286/286 287/287/287 288/288/288
f 289/289/289 290/290/290 291/291/291
f 292/292/292 293/293/293 294/294/294
f 295/295/295 296/296/296 297/297/297
f 298/298/298 299/299/299 300/300/300
f 301/301/301 302/302/302 303/303/303
f 304/304/304 305/305/305 306/306/306
f 307/307/307 308/308/308 309/309/309
f 310/310/310 311/311/311 312/312/312
f 313/313/313 314/314/314 315/315/315
f 316/316/316 317/317/317 318/318/318
f 319/319/319 320/320/320 321/321/321
f 322/322/322 323/323/323 324/324/324
f 325/325/325 326/326/326 327/327/327
f 328/328/328 329/329/329 330/330/330
f 331/331/331 332/332/332 333/333/333
f 334/334/334 335/335/335 336/336/336
f 337/337/337 338/338/338 339/339/339
f 340/340/340 341/341/341 342/342/342
f 343/343/343 344/344/344 345/345/345
f 346/346/346 347/347/347 348/348/348
f 349/349/349 350/350/350 351/351/351
f 352/352/352 353/353/353 354/354/354
f 355/355/355 356/356/356 357/357/357
f 358/358/358 359/359/359 360/360/360
f 361/361/361 362/362/362 363/363/363
f 364/364/364 365/365/365 366/366/366
f 367/367/367 368/368/368 369/369/369
f 370/370/370 371/371/371 372/372/372
f 373/373/373 374/374/374 375/375/375
f 376/376/376 377/377/377 378/378/378
f 379/379/379 380/380/380 381/381/381
f 382/382/382 383/383/383 384/384/384
f 385/385/385 386/386/386 387/387/387
f 388/388/388 389/389/389 390/390/390
f 391/391/391 392/392/392 393/393/393
f 394/394/394 395/395/395 396/396/396
f 397/397/397 398/398/398 399/399/399
f 400/400/400 401/401/401 402/402/402
f 403/403/403 404/404/404 405/405/405
f 406/406/406 407/407/407 408/408/408
f 409/409/409 410/410/410 411/411/411
f 412/412/412 413/413/413 414/414/414
f 415/415/415 416/416/416 417/417/417
f 418/418/418 419/419/419 420/420/420
f 421/421/421 422/422/422 423/423/423
f 424/424/424 425/425/425 426/426/426
f 427/427/427 428/428/428 429/429/429
f 430/430/430 431/431/431 432/432/432
f 433/433/433 434/434/434 435/435/435
f 436/436/436 437/437/437 438/438/438
f 439/439/439 440/440/440 441/441/441
f 442/442/442 443/443/443 444/444/444
f 445/445/445 446/446/446 447/447/447
f 448/448/448 449/449/449 450/450/450
f 451/451/451 452/452/452 453/453/453
f 454/454/454 455/455/455 456/456/456
f 457/457/457 458/458/458 459/459/459
f 460/460/460 461/461/461 462/462/462
f 463/463/463 464/464/464 465/465/465
f 466/466/466 467/467/467 468/468/468
f 469/469/469 470/470/470 471/471/471
f 472/472/472 473/473/473 474/474/474
f 475/475/475 476/476/476 477/477/477
f 478/478/478 479/479/479 480/480/480
f 481/481/481 482/482/482 483/483/483
f 484/484/484 485/485/485 486/486/486
f 487/487/487 488/488/488 489/489/489
f 490/490/490 491/491/491 492/492/492
f 493/493/493 494/494/494 495/495/495
f 496/496/496 497/497/497 498/498/498
f 499/499/499 500/500/500 501/501/501
f 502/502/502 503/503/503 504/504/504
f 505/505/505 506/506/506 507/507/507
f 508/508/508 509/509/509 510/510/510
f 511/511/511 512/512/512 513/513/513
f 514/514/514 515/515/515 516/516/516
f 517/517/517 518/518/518 519/519/519
f 520/520/520 521/521/521 522/522/522
f 523/523/523 524/524/524 525/525/525
f 526/526/526 527/527/527 528/528/528