mtllib 57483669.mtl
o Mesh

v -0.18799999356269836 -0.2828400135040283 0.5800549983978271
v -0.17956799268722534 -0.24234002828598022 0.553970992565155
v -0.5167949795722961 -0.33395999670028687 0.4100239872932434
v -0.5426570177078247 -0.3995699882507324 0.4258919954299927
v -0.5192369818687439 -0.5471199750900269 -0.28943300247192383
v -0.4892680048942566 -0.4990900158882141 -0.2578809857368469
v -0.33371400833129883 -0.5232000350952148 -0.40215200185775757
v -0.34894999861717224 -0.5704699754714966 -0.4417699873447418
v -0.7307869791984558 -0.5150799751281738 -0.005963999778032303
v -0.7964839935302734 -0.5062310099601746 0.04837099835276604
v -0.7551349997520447 -0.4557200074195862 0.05114800110459328
v -0.6913179755210876 -0.4658300280570984 0.0025239998940378428
v -0.6408799886703491 -0.38217997550964355 0.25137200951576233
v -0.6763430237770081 -0.44151997566223145 0.25982800126075745
v -0.2271679937839508 0.04253995418548584 0.6667529940605164
v -0.6920160055160522 -0.02156001329421997 0.5485730171203613
v -0.6487299799919128 -0.035740017890930176 0.5204759836196899
v -0.21383699774742126 0.026489973068237305 0.6339619755744934
v -0.3051080107688904 -0.014699995517730713 -0.4811370074748993
v -0.29165300726890564 -0.039061009883880615 -0.44614899158477783
v -0.5293930172920227 -0.04651999473571777 -0.2562260031700134
v -0.5608310103416443 -0.0243300199508667 -0.2779639959335327
v -0.9316269755363464 0.019520044326782227 0.009624999947845936
v -0.8721160292625427 -0.005389988422393799 0.01583700068295002
v -0.9348809719085693 -0.008740007877349854 0.0854479968547821
v -0.9969589710235596 0.015259981155395508 0.08478300273418427
v -0.8715919852256775 -0.02042001485824585 0.35072800517082214
v -0.8164240121841431 -0.037129998207092285 0.33462199568748474
v -0.1986140012741089 0.59961998462677 0.5613089799880981
v -0.6511020064353943 0.5295499563217163 0.4416710138320923
v -0.679328978061676 0.0789099931716919 -0.39469000697135925
v -0.30828800797462463 0.09179997444152832 -0.590133011341095
v -1.002271056175232 0.1606299877166748 0.08797100186347961
v -0.948989987373352 0.1632000207901001 0.021817000582814217
v -0.7970870137214661 0.4665999412536621 0.37716299295425415
v -0.8919450044631958 0.4499800205230713 0.31026598811149597
v -0.939428985118866 0.25574004650115967 0.24569199979305267
v -0.19929000735282898 0.8788800239562988 0.36645400524139404
v -0.5049610137939453 0.8228000402450562 0.3004100024700165
v -0.5793229937553406 0.5433399677276611 -0.41596099734306335
v -0.24913200736045837 0.5989589691162109 -0.5368250012397766
v -0.9978169798851013 0.31102001667022705 -0.18513299524784088
v -1.0014610290527344 0.5078999996185303 0.028870999813079834
v -1.0002009868621826 0.44332003593444824 -0.20529699325561523
v -0.651544988155365 0.7368299961090088 0.24652600288391113
v -0.8042100071907043 0.6792399883270264 0.2237969934940338
v -0.5049610137939453 0.7701599597930908 -0.3862079977989197
v -0.1992879956960678 0.8259700536727905 -0.4789370000362396
v -1.0062010288238525 0.7288600206375122 -0.10200700163841248
v -1.0035810470581055 0.6159889698028564 -0.1763100028038025
v -0.13483400642871857 0.9753199815750122 0.26233699917793274
v -0.12279800325632095 1.0039899349212646 0.23691700398921967
v -0.31113699078559875 0.9996700286865234 0.15660299360752106
v -0.3416360020637512 0.9595789909362793 0.17526499927043915
v -0.13483299314975739 0.9149199724197388 -0.4386720061302185
v -0.3416360020637512 0.9187500476837158 -0.31277400255203247
v -0.31113699078559875 0.9996600151062012 -0.2966339886188507
v -0.12279699742794037 0.9993699789047241 -0.41354501247406006
v -0.4661799967288971 0.9435800313949585 -0.10757199674844742
v -0.4230479896068573 0.9996600151062012 -0.09397999942302704
v -0.39802899956703186 0.9996600151062012 -0.20167699456214905
v -0.41986799240112305 0.9287099838256836 -0.21968300640583038
v -0.38884100317955017 0.9996600151062012 0.03438099846243858
v -0.4239720106124878 0.9568899869918823 0.0436910018324852
v -0.7780190110206604 0.8226499557495117 0.08678299933671951
v -0.7610840201377869 0.8131599426269531 -0.11988399922847748
v -0.6102449893951416 0.7321699857711792 -0.34112098813056946
v -0.6997740268707275 0.52006995677948 -0.37110498547554016
v -0.791808009147644 0.12507998943328857 -0.3255639970302582
v -0.9039009809494019 0.021770000457763672 -0.13296100497245789
v -0.8466500043869019 -0.0044609904289245605 -0.11775299906730652
v -0.7024629712104797 -0.5343500375747681 -0.1143919974565506
v -0.6642940044403076 -0.48702001571655273 -0.09662999957799911
v -0.4239720106124878 0.9568899869918823 0.0436910018324852
v -0.38884100317955017 0.9996600151062012 0.03438099846243858
v -0.7780190110206604 0.8226499557495117 0.08678299933671951
v -1.0060110092163086 0.7402000427246094 0.06775200366973877
v -1.004951000213623 0.6254099607467651 0.2097730040550232
v -0.9980940222740173 0.3098599910736084 0.21132799983024597
v -1.000080943107605 0.43699002265930176 0.2742899954319
v -0.94371098279953 0.0058100223541259766 0.16365399956703186
v -0.9677559733390808 0.19037997722625732 0.1344120055437088
v -1.002271056175232 0.1606299877166748 0.08797100186347961
v -0.9969589710235596 0.015259981155395508 0.08478300273418427
v -0.9348809719085693 -0.008740007877349854 0.0854479968547821
v -0.8845369815826416 -0.016070008277893066 0.15933699905872345
v -0.7448019981384277 -0.48558998107910156 0.11091399937868118
v -0.7059779763221741 -0.4324899911880493 0.11036500334739685
v -0.7551349997520447 -0.4557200074195862 0.05114800110459328
v -0.7964839935302734 -0.5062310099601746 0.04837099835276604
v -0.8198450207710266 0.46686995029449463 -0.2743220031261444
v -1.0002009868621826 0.44332003593444824 -0.20529699325561523
v -1.0035810470581055 0.6159889698028564 -0.1763100028038025
v -0.7589709758758545 0.6594500541687012 -0.23598800599575043
v -1.0062010288238525 0.7288600206375122 -0.10200700163841248
v -1.0060110092163086 0.7402000427246094 0.06775200366973877
v -1.004951000213623 0.6254099607467651 0.2097730040550232
v -1.000080943107605 0.43699002265930176 0.2742899954319
v -0.9980940222740173 0.3098599910736084 0.21132799983024597
v -0.9964060187339783 0.24880003929138184 0.12018399685621262
v -1.0180710554122925 0.22089004516601562 0.08235999941825867
v -1.0180710554122925 0.22089004516601562 0.08235999941825867
v -0.9959110021591187 0.22951996326446533 0.015448000282049179
v -0.8848909735679626 0.290910005569458 -0.22101199626922607
v -0.9978169798851013 0.31102001667022705 -0.18513299524784088
v -9.999999974752427e-07 0.9993699789047241 -0.4223349988460541
v -9.999999974752427e-07 0.9139100313186646 -0.4481379985809326
v 0.0 0.832260012626648 -0.49483001232147217
v 0.0 0.6082299947738647 -0.5728819966316223
v 0.0 0.16374003887176514 -0.6436709761619568
v 0.0 0.05326998233795166 -0.5297279953956604
v 0.0 0.02180004119873047 -0.4909679889678955
v 0.0 -0.5752600431442261 -0.46462100744247437
v 0.0 -0.5281400084495544 -0.4246329963207245
v -9.999999974752427e-07 -0.28763002157211304 0.6636880040168762
v -9.999999974752427e-07 -0.2472900152206421 0.6461189985275269
v -9.999999974752427e-07 0.019569993019104004 0.7515490055084229
v -9.999999974752427e-07 0.03512001037597656 0.792385995388031
v -9.999999974752427e-07 0.6009999513626099 0.6726229786872864
v -9.999999974752427e-07 0.8847600221633911 0.4362800121307373
v -9.999999974752427e-07 0.976140022277832 0.30693501234054565
v -9.999999974752427e-07 1.0039899349212646 0.2809680104255676
v -1.0060110092163086 0.7402000427246094 0.06775200366973877
v -0.9410380125045776 0.16267895698547363 -0.10600099712610245
v -0.996284008026123 0.24074995517730713 -0.09238500148057938
v -1.0180710554122925 0.22089004516601562 0.08235999941825867
v -0.9959110021591187 0.22951996326446533 0.015448000282049179
v -0.996284008026123 0.24074995517730713 -0.09238500148057938
v -0.9964060187339783 0.24880003929138184 0.12018399685621262
v -0.31113699078559875 0.9996700286865234 0.15660299360752106
v -0.12279800325632095 1.0039899349212646 0.23691700398921967
v -9.999999974752427e-07 0.9994000196456909 -0.10856799781322479
v -9.999999974752427e-07 0.9993699789047241 -0.4223349988460541
v -0.12279699742794037 0.9993699789047241 -0.41354501247406006
v -0.31113699078559875 0.9996600151062012 -0.2966339886188507
v -0.39802899956703186 0.9996600151062012 -0.20167699456214905
v -0.4230479896068573 0.9996600151062012 -0.09397999942302704
v -0.38884100317955017 0.9996600151062012 0.03438099846243858
v -9.999999974752427e-07 1.0039899349212646 0.2809680104255676
v -9.999999974752427e-07 -1.0197099447250366 0.6583340167999268
v -0.30794399976730347 -1.0197099447250366 0.6557509899139404
v -0.28686898946762085 -1.0891300439834595 0.4461959898471832
v 0.0 -1.0891300439834595 0.45555201172828674
v 0.0 -1.0243099927902222 -0.6288020014762878
v 0.0 -1.0937299728393555 -0.4178810119628906
v -0.287992000579834 -1.0937299728393555 -0.4073149859905243
v -0.35998499393463135 -1.0243099927902222 -0.6150879859924316
v -0.567454993724823 -1.0934499502182007 0.2776539921760559
v -0.599062979221344 -1.0240199565887451 0.49821001291275024
v -0.769025981426239 -1.0240099430084229 0.3210119903087616
v -0.6000379920005798 -1.0240099430084229 -0.4511669874191284
v -0.5734130144119263 -1.0934499502182007 -0.2665860056877136
v -0.820527970790863 -1.0240099430084229 -0.22666600346565247
v -0.6035789847373962 -1.093440055847168 0.027639999985694885
v -0.5927540063858032 -1.093440055847168 0.10255900025367737
v -0.8487570285797119 -1.0240099430084229 0.11586499959230423
v -0.9052619934082031 -1.0257899761199951 0.029261000454425812
v -0.2997860014438629 -1.093440055847168 0.027639999985694885
v -0.29591500759124756 -1.0921499729156494 0.15306399762630463
v 0.0 -1.093440055847168 0.027639999985694885
v 0.0 -1.0921499729156494 0.15586799383163452
v -0.29531899094581604 -1.0935499668121338 -0.13709400594234467
v 0.0 -1.0935499668121338 -0.14109499752521515
v -0.5921540260314941 -1.093440055847168 -0.0837939977645874
v -0.8430820107460022 -1.023319959640503 -0.06035799905657768
v -0.6000379920005798 -1.0240099430084229 -0.4511669874191284
v -0.5501710176467896 -0.7812299728393555 -0.3601030111312866
v -0.3421989977359772 -0.7936010360717773 -0.5163490176200867
v -0.35998499393463135 -1.0243099927902222 -0.6150879859924316
v -0.820527970790863 -1.0240099430084229 -0.22666600346565247
v -0.7293519973754883 -0.767989993095398 -0.15421800315380096
v -0.8430820107460022 -1.023319959640503 -0.06035799905657768
v -0.9052619934082031 -1.0257899761199951 0.029261000454425812
v -0.8153060078620911 -0.7663400173187256 0.04983200132846832
v -0.7526640295982361 -0.7651699781417847 -0.020138999447226524
v -0.8487570285797119 -1.0240099430084229 0.11586499959230423
v -0.7635260224342346 -0.7666100263595581 0.1140659973025322
v -0.8153060078620911 -0.7663400173187256 0.04983200132846832
v -0.9052619934082031 -1.0257899761199951 0.029261000454425812
v -0.769025981426239 -1.0240099430084229 0.3210119903087616
v -0.599062979221344 -1.0240199565887451 0.49821001291275024
v -0.5430309772491455 -0.7778400182723999 0.4292140007019043
v -0.6948379874229431 -0.7713900208473206 0.2669300138950348
v -0.30794399976730347 -1.0197099447250366 0.6557509899139404
v -0.18712300062179565 -0.7855899930000305 0.5834810137748718
v -9.999999974752427e-07 -1.0197099447250366 0.6583340167999268
v -9.999999974752427e-07 -0.788100004196167 0.5938310027122498
v 0.0 -1.0243099927902222 -0.6288020014762878
v 0.0 -0.7961000204086304 -0.5348950028419495
v 0.3111349940299988 0.9996700286865234 0.15660299360752106
v 0.12279599905014038 1.0039899349212646 0.23691700398921967
v 0.1227950006723404 0.9993699789047241 -0.41354501247406006
v 0.3111349940299988 0.9996600151062012 -0.2966339886188507
v 0.3980270028114319 0.9996600151062012 -0.20167699456214905
v 0.4230459928512573 0.9996600151062012 -0.09397900104522705
v 0.3888390064239502 0.9996600151062012 0.03438099846243858
v -0.19398300349712372 -0.19359999895095825 0.5900480151176453
v -0.5649009943008423 -0.28509002923965454 0.44369998574256897
v -0.5167949795722961 -0.33395999670028687 0.4100239872932434
v -0.17956799268722534 -0.24234002828598022 0.553970992565155
v -9.999999974752427e-07 -0.2472900152206421 0.6461189985275269
v -9.999999974752427e-07 -0.19912999868392944 0.691195011138916
v -0.33371400833129883 -0.5232000350952148 -0.40215200185775757
v -0.3434399962425232 -0.453249990940094 -0.43620601296424866
v 0.0 -0.44752997159957886 -0.4635609984397888
v 0.0 -0.5281400084495544 -0.4246329963207245
v -0.4892680048942566 -0.4990900158882141 -0.2578809857368469
v -0.5207020044326782 -0.43313997983932495 -0.2768779993057251
v -0.6642940044403076 -0.48702001571655273 -0.09662999957799911
v -0.7284160256385803 -0.4154700040817261 -0.11105500161647797
v -0.6913179755210876 -0.4658300280570984 0.0025239998940378428
v -0.757420003414154 -0.39688998460769653 -0.0014609999489039183
v -0.7551349997520447 -0.4557200074195862 0.05114800110459328
v -0.8235309720039368 -0.388450026512146 0.05358399823307991
v -0.7716289758682251 -0.3690999746322632 0.118306003510952
v -0.8235309720039368 -0.388450026512146 0.05358399823307991
v -0.7551349997520447 -0.4557200074195862 0.05114800110459328
v -0.7059779763221741 -0.4324899911880493 0.11036500334739685
v -0.6408799886703491 -0.38217997550964355 0.25137200951576233
v -0.7026579976081848 -0.328029990196228 0.2723110020160675
v -0.31060999631881714 -0.07763999700546265 -0.47468799352645874
v 0.0 -0.018599987030029297 -0.5202310085296631
v -0.5550709962844849 -0.08300000429153442 -0.2778080105781555
v -0.8787149786949158 -0.040991008281707764 -0.12981699407100677
v -0.9066240191459656 -0.04025000333786011 0.008034000173211098
v -0.9720680117607117 -0.0426899790763855 0.08030500262975693
v -0.9190130233764648 -0.048000991344451904 0.15714499354362488
v -0.9720680117607117 -0.0426899790763855 0.08030500262975693
v -0.8473460078239441 -0.06457000970840454 0.33947300910949707
v -0.6737719774246216 -0.05937999486923218 0.5335209965705872
v -0.22240500152111053 0.008649945259094238 0.6557440161705017
v -9.999999974752427e-07 0.0015000104904174805 0.777862012386322
v -9.999999974752427e-07 0.019569993019104004 0.7515490055084229
v -0.21383699774742126 0.026489973068237305 0.6339619755744934
v -0.6487299799919128 -0.035740017890930176 0.5204759836196899
v -0.8164240121841431 -0.037129998207092285 0.33462199568748474
v -0.8845369815826416 -0.016070008277893066 0.15933699905872345
v -0.9348809719085693 -0.008740007877349854 0.0854479968547821
v -0.9348809719085693 -0.008740007877349854 0.0854479968547821
v -0.8721160292625427 -0.005389988422393799 0.01583700068295002
v -0.8466500043869019 -0.0044609904289245605 -0.11775299906730652
v -0.5293930172920227 -0.04651999473571777 -0.2562260031700134
v -0.29165300726890564 -0.039061009883880615 -0.44614899158477783
v 0.0 0.02180004119873047 -0.4909679889678955
v 0.5167940258979797 -0.33395999670028687 0.4100239872932434
v 0.17956599593162537 -0.24234002828598022 0.553970992565155
v 0.1879979968070984 -0.2828400135040283 0.5800549983978271
v 0.5426549911499023 -0.3995699882507324 0.4258919954299927
v 0.33371400833129883 -0.5232000350952148 -0.40215200185775757
v 0.4892680048942566 -0.4990900158882141 -0.2578809857368469
v 0.5192369818687439 -0.5471199750900269 -0.28943300247192383
v 0.34894999861717224 -0.5704699754714966 -0.4417699873447418
v 0.7307869791984558 -0.5150799751281738 -0.005963999778032303
v 0.6913179755210876 -0.4658300280570984 0.0025239998940378428
v 0.7551349997520447 -0.4557200074195862 0.05114800110459328
v 0.7964839935302734 -0.5062299966812134 0.04837099835276604
v 0.6408799886703491 -0.38217997550964355 0.25137200951576233
v 0.6763420104980469 -0.44151997566223145 0.25982800126075745
v 0.22716599702835083 0.04253995418548584 0.6667529940605164
v 0.2138350009918213 0.026489973068237305 0.6339619755744934
v 0.6487280130386353 -0.035740017890930176 0.5204769968986511
v 0.6920139789581299 -0.02156001329421997 0.5485739707946777
v 0.5293930172920227 -0.04651999473571777 -0.2562260031700134
v 0.29165300726890564 -0.039059996604919434 -0.44614899158477783
v 0.3051080107688904 -0.014699995517730713 -0.4811370074748993
v 0.5608310103416443 -0.0243300199508667 -0.2779639959335327
v 0.9348809719085693 -0.008740007877349854 0.08544900268316269
v 0.8721150159835815 -0.005389988422393799 0.015838000923395157
v 0.93162602186203 0.019520044326782227 0.009626000188291073
v 0.9969580173492432 0.015259981155395508 0.08478400111198425
v 0.8164219856262207 -0.037129998207092285 0.3346230089664459
v 0.8715900182723999 -0.02042001485824585 0.35072898864746094
v 0.6510999798774719 0.5295499563217163 0.4416719973087311
v 0.1986120045185089 0.59961998462677 0.5613089799880981
v 0.30828800797462463 0.09179997444152832 -0.590133011341095
v 0.679328978061676 0.0789099931716919 -0.39469000697135925
v 0.9489889740943909 0.1632000207901001 0.021818000823259354
v 1.002269983291626 0.1606299877166748 0.0879720002412796
v 0.9394270181655884 0.25574004650115967 0.24569299817085266
v 0.8919429779052734 0.4499800205230713 0.31026700139045715
v 0.7970849871635437 0.4665999412536621 0.37716400623321533
v 0.504958987236023 0.8228000402450562 0.3004109859466553
v 0.1992879956960678 0.8788800239562988 0.36645400524139404
v 0.24913200736045837 0.5989600419998169 -0.5368250012397766
v 0.5793229937553406 0.5433399677276611 -0.41596099734306335
v 0.9978160262107849 0.31102001667022705 -0.1851319968700409
v 1.0002000331878662 0.44332003593444824 -0.20529599487781525
v 1.001459002494812 0.5078999996185303 0.02887200005352497
v 0.804207980632782 0.6792399883270264 0.223798006772995
v 0.6515430212020874 0.7368299961090088 0.24652700126171112
v 0.1992879956960678 0.8259700536727905 -0.4789370000362396
v 0.5049600005149841 0.7701599597930908 -0.3862079977989197
v 1.003579020500183 0.6159900426864624 -0.1763090044260025
v 1.0061990022659302 0.7288600206375122 -0.10200600326061249
v 0.3111349940299988 0.9996700286865234 0.15660299360752106
v 0.12279599905014038 1.0039899349212646 0.23691700398921967
v 0.1348319947719574 0.9753199815750122 0.26233699917793274
v 0.34163400530815125 0.9595799446105957 0.17526499927043915
v 0.1348309963941574 0.9149199724197388 -0.4386720061302185
v 0.1227950006723404 0.9993699789047241 -0.41354501247406006
v 0.3111349940299988 0.9996600151062012 -0.2966339886188507
v 0.34163400530815125 0.9187500476837158 -0.31277400255203247
v 0.3980270028114319 0.9996600151062012 -0.20167699456214905
v 0.4230459928512573 0.9996600151062012 -0.09397900104522705
v 0.4661779999732971 0.9435800313949585 -0.10757099837064743
v 0.41986599564552307 0.9287099838256836 -0.21968300640583038
v 0.3888390064239502 0.9996600151062012 0.03438099846243858
v 0.4239700138568878 0.9568899869918823 0.0436910018324852
v 0.778016984462738 0.8226499557495117 0.0867839977145195
v 0.7610819935798645 0.8131599426269531 -0.11988300085067749
v 0.6102449893951416 0.7321699857711792 -0.34112000465393066
v 0.6997740268707275 0.52006995677948 -0.37110400199890137
v 0.791808009147644 0.12507998943328857 -0.3255630135536194
v 0.9039009809494019 0.021770000457763672 -0.1329600065946579
v 0.8466500043869019 -0.004459977149963379 -0.11775200068950653
v 0.6642940044403076 -0.48702001571655273 -0.09662999957799911
v 0.7024629712104797 -0.5343500375747681 -0.1143919974565506
v 0.4239700138568878 0.9568899869918823 0.0436910018324852
v 0.3888390064239502 0.9996600151062012 0.03438099846243858
v 0.778016984462738 0.8226499557495117 0.0867839977145195
v 1.0060089826583862 0.7402000427246094 0.06775300204753876
v 1.0049489736557007 0.6254099607467651 0.20977400243282318
v 0.998091995716095 0.3098599910736084 0.21132899820804596
v 1.0000790357589722 0.43699002265930176 0.2742910087108612
v 1.002269983291626 0.1606299877166748 0.0879720002412796
v 0.9677550196647644 0.19037997722625732 0.1344130039215088
v 0.9437100291252136 0.0058100223541259766 0.16365499794483185
v 0.9969580173492432 0.015259981155395508 0.08478400111198425
v 0.8845360279083252 -0.016070008277893066 0.15933799743652344
v 0.9348809719085693 -0.008740007877349854 0.08544900268316269
v 0.7551349997520447 -0.4557200074195862 0.05114800110459328
v 0.7059779763221741 -0.4324899911880493 0.11036500334739685
v 0.7448019981384277 -0.48558998107910156 0.11091399937868118
v 0.7964839935302734 -0.5062299966812134 0.04837099835276604
v 0.8198450207710266 0.46686995029449463 -0.2743209898471832
v 0.7589709758758545 0.6594500541687012 -0.23598699271678925
v 1.003579020500183 0.6159900426864624 -0.1763090044260025
v 1.0002000331878662 0.44332003593444824 -0.20529599487781525
v 1.0061990022659302 0.7288600206375122 -0.10200600326061249
v 1.0060089826583862 0.7402000427246094 0.06775300204753876
v 1.0049489736557007 0.6254099607467651 0.20977400243282318
v 1.0000790357589722 0.43699002265930176 0.2742910087108612
v 0.998091995716095 0.3098599910736084 0.21132899820804596
v 1.0180690288543701 0.22089004516601562 0.08236099779605865
v 0.9964039921760559 0.24880003929138184 0.1201850026845932
v 0.9959099888801575 0.22951996326446533 0.015448999591171741
v 1.0180690288543701 0.22089004516601562 0.08236099779605865
v 0.8848909735679626 0.290910005569458 -0.2210109978914261
v 0.9978160262107849 0.31102001667022705 -0.1851319968700409
v -9.999999974752427e-07 0.9139100313186646 -0.4481379985809326
v -9.999999974752427e-07 0.9993699789047241 -0.4223349988460541
v 0.0 0.832260012626648 -0.49483001232147217
v 0.0 0.6082299947738647 -0.5728819966316223
v 0.0 0.16374003887176514 -0.6436709761619568
v 0.0 0.05326998233795166 -0.5297279953956604
v 0.0 0.02180004119873047 -0.4909679889678955
v 0.0 -0.5752600431442261 -0.46462100744247437
v 0.0 -0.5281400084495544 -0.4246329963207245
v -9.999999974752427e-07 -0.2472900152206421 0.6461189985275269
v -9.999999974752427e-07 -0.28763002157211304 0.6636880040168762
v -9.999999974752427e-07 0.03512001037597656 0.792385995388031
v -9.999999974752427e-07 0.019569993019104004 0.7515490055084229
v -9.999999974752427e-07 0.6009999513626099 0.6726229786872864
v -9.999999974752427e-07 0.8847600221633911 0.4362800121307373
v -9.999999974752427e-07 0.976140022277832 0.30693501234054565
v -9.999999974752427e-07 1.0039899349212646 0.2809680104255676
v 1.0060089826583862 0.7402000427246094 0.06775300204753876
v 0.9410369992256165 0.1626800298690796 -0.10599999874830246
v 0.9962829947471619 0.24074995517730713 -0.09238400310277939
v 1.0180690288543701 0.22089004516601562 0.08236099779605865
v 0.9959099888801575 0.22951996326446533 0.015448999591171741
v 0.9962829947471619 0.24074995517730713 -0.09238400310277939
v 0.9964039921760559 0.24880003929138184 0.1201850026845932
v -9.999999974752427e-07 -1.0197099447250366 0.6583340167999268
v 0.0 -1.0891300439834595 0.45555201172828674
v 0.28686898946762085 -1.0891300439834595 0.4461959898471832
v 0.3079420030117035 -1.0197099447250366 0.6557509899139404
v 0.0 -1.0243099927902222 -0.6288020014762878
v 0.35998499393463135 -1.0243099927902222 -0.6150879859924316
v 0.287992000579834 -1.0937299728393555 -0.4073149859905243
v 0.0 -1.0937299728393555 -0.4178810119628906
v 0.567454993724823 -1.0934499502182007 0.2776539921760559
v 0.769025981426239 -1.0240099430084229 0.3210119903087616
v 0.599062979221344 -1.0240199565887451 0.49821001291275024
v 0.6000379920005798 -1.0240099430084229 -0.4511669874191284
v 0.820527970790863 -1.0240099430084229 -0.22666600346565247
v 0.5734130144119263 -1.0934499502182007 -0.2665860056877136
v 0.6035789847373962 -1.093440055847168 0.027639999985694885
v 0.9052619934082031 -1.0257899761199951 0.029261000454425812
v 0.8487570285797119 -1.0240099430084229 0.11586499959230423
v 0.5927540063858032 -1.093440055847168 0.10255900025367737
v 0.2997860014438629 -1.093440055847168 0.027639999985694885
v 0.29591500759124756 -1.0921499729156494 0.15306399762630463
v 0.0 -1.093440055847168 0.027639999985694885
v 0.0 -1.0921499729156494 0.15586799383163452
v 0.29531899094581604 -1.0935499668121338 -0.13709400594234467
v 0.0 -1.0935499668121338 -0.14109499752521515
v 0.5921540260314941 -1.093440055847168 -0.0837939977645874
v 0.8430820107460022 -1.023319959640503 -0.06035799905657768
v 0.3421989977359772 -0.7935999631881714 -0.5163490176200867
v 0.5501710176467896 -0.7812299728393555 -0.3601030111312866
v 0.6000379920005798 -1.0240099430084229 -0.4511669874191284
v 0.35998499393463135 -1.0243099927902222 -0.6150879859924316
v 0.7293519973754883 -0.767989993095398 -0.15421800315380096
v 0.820527970790863 -1.0240099430084229 -0.22666600346565247
v 0.8430820107460022 -1.023319959640503 -0.06035799905657768
v 0.7526640295982361 -0.7651699781417847 -0.020138999447226524
v 0.8153060078620911 -0.7663400173187256 0.04983200132846832
v 0.9052619934082031 -1.0257899761199951 0.029261000454425812
v 0.8153060078620911 -0.7663400173187256 0.04983200132846832
v 0.7635260224342346 -0.7666100263595581 0.1140659973025322
v 0.8487570285797119 -1.0240099430084229 0.11586499959230423
v 0.9052619934082031 -1.0257899761199951 0.029261000454425812
v 0.769025981426239 -1.0240099430084229 0.3210119903087616
v 0.6948379874229431 -0.7713900208473206 0.2669300138950348
v 0.5430300235748291 -0.7778400182723999 0.4292140007019043
v 0.599062979221344 -1.0240199565887451 0.49821001291275024
v 0.18712100386619568 -0.7855899930000305 0.5834810137748718
v 0.3079420030117035 -1.0197099447250366 0.6557509899139404
v -9.999999974752427e-07 -1.0197099447250366 0.6583340167999268
v -9.999999974752427e-07 -0.788100004196167 0.5938310027122498
v 0.0 -1.0243099927902222 -0.6288020014762878
v 0.0 -0.7961000204086304 -0.5348950028419495
v 0.19398100674152374 -0.19359999895095825 0.5900480151176453
v 0.17956599593162537 -0.24234002828598022 0.553970992565155
v 0.5167940258979797 -0.33395999670028687 0.4100239872932434
v 0.5648990273475647 -0.28509002923965454 0.44369998574256897
v -9.999999974752427e-07 -0.2472900152206421 0.6461189985275269
v -9.999999974752427e-07 -0.19912999868392944 0.691195011138916
v 0.33371400833129883 -0.5232000350952148 -0.40215200185775757
v 0.0 -0.5281400084495544 -0.4246329963207245
v 0.0 -0.44752997159957886 -0.4635609984397888
v 0.3434399962425232 -0.453249990940094 -0.43620601296424866
v 0.4892680048942566 -0.4990900158882141 -0.2578809857368469
v 0.5207020044326782 -0.43313997983932495 -0.2768779993057251
v 0.6642940044403076 -0.48702001571655273 -0.09662999957799911
v 0.7284160256385803 -0.4154700040817261 -0.11105500161647797
v 0.6913179755210876 -0.4658300280570984 0.0025239998940378428
v 0.757420003414154 -0.39688998460769653 -0.0014609999489039183
v 0.7551349997520447 -0.4557200074195862 0.05114800110459328
v 0.8235309720039368 -0.388450026512146 0.05358399823307991
v 0.7716289758682251 -0.3690999746322632 0.118306003510952
v 0.7059779763221741 -0.4324899911880493 0.11036500334739685
v 0.7551349997520447 -0.4557200074195862 0.05114800110459328
v 0.8235309720039368 -0.388450026512146 0.05358399823307991
v 0.6408799886703491 -0.38217997550964355 0.25137200951576233
v 0.7026579976081848 -0.328029990196228 0.2723110020160675
v 0.0 -0.018599987030029297 -0.5202310085296631
v 0.31060999631881714 -0.07763999700546265 -0.47468799352645874
v 0.5550709962844849 -0.08300000429153442 -0.2778080105781555
v 0.8787149786949158 -0.04098999500274658 -0.1298159956932068
v 0.9066230058670044 -0.04025000333786011 0.008035000413656235
v 0.9720669984817505 -0.0426899790763855 0.08030600100755692
v 0.9190120100975037 -0.04799997806549072 0.15714600682258606
v 0.9720669984817505 -0.0426899790763855 0.08030600100755692
v 0.8473449945449829 -0.06457000970840454 0.33947399258613586
v 0.673770010471344 -0.05937999486923218 0.5335220098495483
v 0.22240300476551056 0.008649945259094238 0.6557440161705017
v -9.999999974752427e-07 0.0015000104904174805 0.777862012386322
v -9.999999974752427e-07 0.019569993019104004 0.7515490055084229
v 0.2138350009918213 0.026489973068237305 0.6339619755744934
v 0.6487280130386353 -0.035740017890930176 0.5204769968986511
v 0.8164219856262207 -0.037129998207092285 0.3346230089664459
v 0.8845360279083252 -0.016070008277893066 0.15933799743652344
v 0.9348809719085693 -0.008740007877349854 0.08544900268316269
v 0.9348809719085693 -0.008740007877349854 0.08544900268316269
v 0.8721150159835815 -0.005389988422393799 0.015838000923395157
v 0.8466500043869019 -0.004459977149963379 -0.11775200068950653
v 0.5293930172920227 -0.04651999473571777 -0.2562260031700134
v 0.29165300726890564 -0.039059996604919434 -0.44614899158477783
v 0.0 0.02180004119873047 -0.4909679889678955

vn -0.4098069965839386 0.28238698840141296 0.8673610091209412
vn -0.4082539975643158 -0.09206300228834152 0.9082139730453491
vn -0.5279359817504883 -0.19942699372768402 0.8255379796028137
vn -0.6403220295906067 0.20856699347496033 0.7392479777336121
vn -0.5763009786605835 0.48316800594329834 -0.6591100096702576
vn -0.6629859805107117 0.11260800063610077 -0.7401139736175537
vn -0.3832460045814514 0.1752289980649948 -0.9068719744682312
vn -0.3220619857311249 0.47436100244522095 -0.8193029761314392
vn -0.7365599870681763 0.3628309965133667 -0.5708180069923401
vn -0.9404079914093018 0.31656399369239807 -0.12417799979448318
vn -0.9875630140304565 -0.0267340000718832 -0.15493300557136536
vn -0.8586000204086304 -0.06275200098752975 -0.508791983127594
vn -0.8124070167541504 -0.16347099840641022 0.55970698595047
vn -0.847661018371582 0.2941780090332031 0.44150999188423157
vn -0.3079510033130646 -0.45220500230789185 0.8370640277862549
vn -0.4218379855155945 -0.4930819869041443 0.7608699798583984
vn -0.41268399357795715 -0.19627399742603302 0.8894760012626648
vn -0.35806000232696533 -0.14573000371456146 0.9222559928894043
vn -0.15010599792003632 -0.7832199931144714 -0.6033530235290527
vn -0.3786410093307495 -0.10623399913311005 -0.9194269776344299
vn -0.5279780030250549 -0.11088799685239792 -0.8419870138168335
vn -0.32629600167274475 -0.8387759923934937 -0.43587398529052734
vn -0.6989060044288635 -0.6216199994087219 -0.3537220060825348
vn -0.8957780003547668 -0.16857199370861053 -0.411296010017395
vn -0.9402170181274414 -0.3207719922065735 -0.11444500088691711
vn -0.867572009563446 -0.4916599988937378 -0.07476700097322464
vn -0.6995970010757446 -0.5775529742240906 0.4207099974155426
vn -0.8207370042800903 -0.2343589961528778 0.5210250020027161
vn -0.3620229959487915 0.39657101035118103 0.8436059951782227
vn -0.4164699912071228 0.4018920063972473 0.8154969811439514
vn -0.5229150056838989 -0.5005980134010315 -0.6898999810218811
vn -0.23854400217533112 -0.34738001227378845 -0.9068760275840759
vn -0.9827389717102051 -0.17430700361728668 0.061973001807928085
vn -0.8792999982833862 -0.31839001178741455 -0.354202002286911
vn -0.5648220181465149 0.300339013338089 0.7686179876327515
vn -0.4482330083847046 0.12130899727344513 0.8856480121612549
vn -0.7839850187301636 -0.17791999876499176 0.5947369933128357
vn -0.26868298649787903 0.687192976474762 0.6749629974365234
vn -0.435465008020401 0.7124969959259033 0.5501980185508728
vn -0.3906790018081665 0.1730320006608963 -0.904118001461029
vn -0.25787898898124695 0.2121410071849823 -0.9426000118255615
vn -0.7802000045776367 -0.25687000155448914 -0.5703549981117249
vn -0.9998739957809448 -0.01576700061559677 -0.0019650000613182783
vn -0.795868992805481 -0.01902100071310997 -0.6051700115203857
vn -0.4306899905204773 0.6766390204429626 0.5972149968147278
vn -0.31345799565315247 0.6037489771842957 0.7329599857330322
vn -0.43212199211120605 0.5263339877128601 -0.7322869896888733
vn -0.2516379952430725 0.45382800698280334 -0.8548210263252258
vn -0.7480270266532898 0.5638530254364014 -0.35003501176834106
vn -0.7754390239715576 0.2320519983768463 -0.5872359871864319
vn -0.2578110098838806 0.7376859784126282 0.6239820122718811
vn -0.14979399740695953 0.9219670295715332 0.357124000787735
vn -0.30752700567245483 0.8768190145492554 0.36961498856544495
vn -0.4410710036754608 0.7565029859542847 0.48286598920822144
vn -0.2481449991464615 0.4340919852256775 -0.8660190105438232
vn -0.5006129741668701 0.5580779910087585 -0.6617670059204102
vn -0.37158098816871643 0.8022670149803162 -0.4672209918498993
vn -0.19227300584316254 0.7675889730453491 -0.6114240288734436
vn -0.5883809924125671 0.7993059754371643 -0.12213999778032303
vn -0.49000000953674316 0.8716220259666443 0.013265999965369701
vn -0.5068560242652893 0.8036710023880005 -0.3117850124835968
vn -0.6109030246734619 0.6169040203094482 -0.49621400237083435
vn -0.4143249988555908 0.8917250037193298 0.1821019947528839
vn -0.56523197889328 0.7822830080986023 0.2618139982223511
vn -0.34270399808883667 0.8801789879798889 0.3283880054950714
vn -0.4127059876918793 0.8224809765815735 -0.3914070129394531
vn -0.5145360231399536 0.4996039867401123 -0.6968849897384644
vn -0.5378760099411011 0.1927189975976944 -0.8206999897956848
vn -0.6286290287971497 -0.3240880072116852 -0.7069600224494934
vn -0.7026820182800293 -0.5988550186157227 -0.3842009902000427
vn -0.6905840039253235 -0.30969899892807007 -0.6535900235176086
vn -0.7820050120353699 0.3985680043697357 -0.47917699813842773
vn -0.8283159732818604 0.04607800021767616 -0.5583630204200745
vn -0.56523197889328 0.7822830080986023 0.2618139982223511
vn -0.4143249988555908 0.8917250037193298 0.1821019947528839
vn -0.34270399808883667 0.8801789879798889 0.3283880054950714
vn -0.7588480114936829 0.613768994808197 0.21780100464820862
vn -0.7411820292472839 0.3811059892177582 0.5526379942893982
vn -0.9035859704017639 -0.2790429890155792 0.3250640034675598
vn -0.7634119987487793 -0.012737000361084938 0.6457859873771667
vn -0.7306619882583618 -0.6132540106773376 0.3000890016555786
vn -0.8662750124931335 -0.14727799594402313 0.4773640036582947
vn -0.9827389717102051 -0.17430700361728668 0.061973001807928085
vn -0.867572009563446 -0.4916599988937378 -0.07476700097322464
vn -0.9402170181274414 -0.3207719922065735 -0.11444500088691711
vn -0.8865330219268799 -0.24006499350070953 0.3955090045928955
vn -0.8399670124053955 0.3311220109462738 0.42989999055862427
vn -0.8484320044517517 -0.03451799973845482 0.52817702293396
vn -0.9875630140304565 -0.0267340000718832 -0.15493300557136536
vn -0.9404079914093018 0.31656399369239807 -0.12417799979448318
vn -0.5131379961967468 0.10351599752902985 -0.8520410060882568
vn -0.795868992805481 -0.01902100071310997 -0.6051700115203857
vn -0.7754390239715576 0.2320519983768463 -0.5872359871864319
vn -0.5074009895324707 0.42856600880622864 -0.7475799918174744
vn -0.7480270266532898 0.5638530254364014 -0.35003501176834106
vn -0.7588480114936829 0.613768994808197 0.21780100464820862
vn -0.7411820292472839 0.3811059892177582 0.5526379942893982
vn -0.7634119987487793 -0.012737000361084938 0.6457859873771667
vn -0.9035859704017639 -0.2790429890155792 0.3250640034675598
vn -0.9110230207443237 -0.1455419957637787 0.3858169913291931
vn -0.9827240109443665 -0.1254349946975708 0.13608500361442566
vn -0.9827240109443665 -0.1254349946975708 0.13608500361442566
vn -0.9337400197982788 -0.28046101331710815 -0.2224230021238327
vn -0.5825799703598022 -0.16106000542640686 -0.796654999256134
vn -0.7802000045776367 -0.25687000155448914 -0.5703549981117249
vn 0.0 0.7899379730224609 -0.6131860017776489
vn 0.0 0.3984200060367584 -0.9172030091285706
vn 0.0 0.4073750078678131 -0.9132609963417053
vn 0.0 0.22995300590991974 -0.9732019901275635
vn 0.0 -0.25447699427604675 -0.9670789837837219
vn 0.0 -0.7424939870834351 -0.6698529720306396
vn 0.0 -0.2353219985961914 -0.9719169735908508
vn 0.0 0.4822239875793457 -0.8760480284690857
vn 0.0 0.13481099903583527 -0.990871012210846
vn -0.0 0.12344399839639664 0.9923520088195801
vn -0.0 -0.16954100131988525 0.985522985458374
vn -0.0 -0.14521199464797974 0.9894009828567505
vn -0.0 -0.4182479977607727 0.9083330035209656
vn -0.0 0.4120570123195648 0.91115802526474
vn -0.0 0.7005550265312195 0.7135990262031555
vn -0.0 0.7576119899749756 0.6527060270309448
vn -0.0 0.8884860277175903 0.4589039981365204
vn -0.7588480114936829 0.613768994808197 0.21780100464820862
vn -0.8737369775772095 -0.33123698830604553 -0.3561820089817047
vn -0.932919979095459 -0.3338080048561096 -0.13502800464630127
vn -0.9827240109443665 -0.1254349946975708 0.13608500361442566
vn -0.9337400197982788 -0.28046101331710815 -0.2224230021238327
vn -0.932919979095459 -0.3338080048561096 -0.13502800464630127
vn -0.9110230207443237 -0.1455419957637787 0.3858169913291931
vn -0.30752700567245483 0.8768190145492554 0.36961498856544495
vn -0.14979399740695953 0.9219670295715332 0.357124000787735
vn -0.0 0.9999899864196777 -0.004513999912887812
vn 0.0 0.7899379730224609 -0.6131860017776489
vn -0.19227300584316254 0.7675889730453491 -0.6114240288734436
vn -0.37158098816871643 0.8022670149803162 -0.4672209918498993
vn -0.5068560242652893 0.8036710023880005 -0.3117850124835968
vn -0.49000000953674316 0.8716220259666443 0.013265999965369701
vn -0.4143249988555908 0.8917250037193298 0.1821019947528839
vn -0.0 0.8884860277175903 0.4589039981365204
vn -0.0 -0.4581100046634674 0.8888949751853943
vn -0.2372560054063797 -0.3814609944820404 0.8934190273284912
vn -0.04805300012230873 -0.9821180105209351 0.18203000724315643
vn 0.0 -0.9850370287895203 0.17234399914741516
vn 0.0 -0.4083400070667267 -0.9128299951553345
vn 0.0 -0.986856997013092 -0.16159699857234955
vn -0.05046899989247322 -0.9839619994163513 -0.17109200358390808
vn -0.28508099913597107 -0.373522013425827 -0.8827289938926697
vn -0.16145199537277222 -0.9801369905471802 0.11517299711704254
vn -0.5468779802322388 -0.4055260121822357 0.7324439883232117
vn -0.7732070088386536 -0.4110470116138458 0.482899010181427
vn -0.579433023929596 -0.3759799897670746 -0.7231159806251526
vn -0.16767500340938568 -0.9747800230979919 -0.14727599918842316
vn -0.842149019241333 -0.36815398931503296 -0.39401400089263916
vn -0.139165997505188 -0.9902690052986145 0.0009830000344663858
vn -0.13743899762630463 -0.990094006061554 0.028699999675154686
vn -0.7577419877052307 -0.509859025478363 0.40727299451828003
vn -0.9137349724769592 -0.40529799461364746 -0.028658000752329826
vn 0.0005119999987073243 -0.999987006187439 0.005009000189602375
vn 0.002713999943807721 -0.9999539852142334 0.009159999899566174
vn 0.0 -0.9999859929084778 0.005386999808251858
vn 0.0 -0.9999489784240723 0.010126999579370022
vn -0.0002099999983329326 -1.0 0.0005970000056549907
vn 0.0 -1.0 0.0006549999816343188
vn -0.13775399327278137 -0.9903600215911865 -0.014549000188708305
vn -0.7999370098114014 -0.5008900165557861 -0.3304699957370758
vn -0.579433023929596 -0.3759799897670746 -0.7231159806251526
vn -0.6306970119476318 0.3393529951572418 -0.6978979706764221
vn -0.3039799928665161 0.3494180142879486 -0.8862860202789307
vn -0.28508099913597107 -0.373522013425827 -0.8827289938926697
vn -0.842149019241333 -0.36815398931503296 -0.39401400089263916
vn -0.8519189953804016 0.3063730001449585 -0.42469900846481323
vn -0.7999370098114014 -0.5008900165557861 -0.3304699957370758
vn -0.9137349724769592 -0.40529799461364746 -0.028658000752329826
vn -0.9682250022888184 0.24992099404335022 -0.008914000354707241
vn -0.8718990087509155 0.23480799794197083 -0.4297179877758026
vn -0.7577419877052307 -0.509859025478363 0.40727299451828003
vn -0.8433809876441956 0.17611800134181976 0.5076329708099365
vn -0.9682250022888184 0.24992099404335022 -0.008914000354707241
vn -0.9137349724769592 -0.40529799461364746 -0.028658000752329826
vn -0.7732070088386536 -0.4110470116138458 0.482899010181427
vn -0.5468779802322388 -0.4055260121822357 0.7324439883232117
vn -0.5760409832000732 0.20150700211524963 0.7921950221061707
vn -0.8125349879264832 0.20594100654125214 0.545320987701416
vn -0.2372560054063797 -0.3814609944820404 0.8934190273284912
vn -0.19426900148391724 0.18545199930667877 0.9632589817047119
vn -0.0 -0.4581100046634674 0.8888949751853943
vn -0.0 0.1242230013012886 0.9922540187835693
vn 0.0 -0.4083400070667267 -0.9128299951553345
vn 0.0 0.34279799461364746 -0.9394090175628662
vn 0.30752700567245483 0.8768190145492554 0.36961498856544495
vn 0.14979399740695953 0.9219670295715332 0.357124000787735
vn 0.19227300584316254 0.7675889730453491 -0.6114230155944824
vn 0.37158098816871643 0.8022670149803162 -0.4672209918498993
vn 0.5068550109863281 0.8036720156669617 -0.3117850124835968
vn 0.49000000953674316 0.8716220259666443 0.013265999965369701
vn 0.4143249988555908 0.8917250037193298 0.1821019947528839
vn -0.32131800055503845 -0.4791480004787445 0.8168060183525085
vn -0.3679310083389282 -0.5907530188560486 0.7180789709091187
vn -0.5279359817504883 -0.19942699372768402 0.8255379796028137
vn -0.4082539975643158 -0.09206300228834152 0.9082139730453491
vn -0.0 -0.16954100131988525 0.985522985458374
vn -0.0 -0.5223270058631897 0.852744996547699
vn -0.3832460045814514 0.1752289980649948 -0.9068719744682312
vn -0.39261001348495483 -0.265296995639801 -0.880611002445221
vn 0.0 -0.27381399273872375 -0.9617829918861389
vn 0.0 0.13481099903583527 -0.990871012210846
vn -0.6629859805107117 0.11260800063610077 -0.7401139736175537
vn -0.6448969841003418 -0.2848910093307495 -0.7091860175132751
vn -0.8283159732818604 0.04607800021767616 -0.5583630204200745
vn -0.7454670071601868 -0.4711669981479645 -0.4714660048484802
vn -0.8586000204086304 -0.06275200098752975 -0.508791983127594
vn -0.7500489950180054 -0.5088539719581604 -0.42248600721359253
vn -0.9875630140304565 -0.0267340000718832 -0.15493300557136536
vn -0.8359000086784363 -0.5464379787445068 -0.05174199864268303
vn -0.6337829828262329 -0.5269690155982971 0.5662360191345215
vn -0.8359000086784363 -0.5464379787445068 -0.05174199864268303
vn -0.9875630140304565 -0.0267340000718832 -0.15493300557136536
vn -0.8484320044517517 -0.03451799973845482 0.52817702293396
vn -0.8124070167541504 -0.16347099840641022 0.55970698595047
vn -0.615867018699646 -0.6057649850845337 0.5037429928779602
vn -0.3908750116825104 0.28293898701667786 -0.8758779764175415
vn 0.0 0.2806580066680908 -0.9598079919815063
vn -0.5068690180778503 0.2862969934940338 -0.8130919933319092
vn -0.7950230240821838 0.18011799454689026 -0.5792199969291687
vn -0.8508560061454773 0.24950599670410156 -0.4623749852180481
vn -0.9820590019226074 0.182218998670578 -0.04853200167417526
vn -0.8458070158958435 0.1442060023546219 0.5136299729347229
vn -0.9820590019226074 0.182218998670578 -0.04853200167417526
vn -0.847698986530304 0.09710899740457535 0.5215129852294922
vn -0.5542920231819153 0.11321800202131271 0.8245859742164612
vn -0.3804500102996826 0.31435200572013855 0.8697360157966614
vn -0.0 0.22742700576782227 0.9737949967384338
vn -0.0 -0.14521199464797974 0.9894009828567505
vn -0.35806000232696533 -0.14573000371456146 0.9222559928894043
vn -0.41268399357795715 -0.19627399742603302 0.8894760012626648
vn -0.8207370042800903 -0.2343589961528778 0.5210250020027161
vn -0.8865330219268799 -0.24006499350070953 0.3955090045928955
vn -0.9402170181274414 -0.3207719922065735 -0.11444500088691711
vn -0.9402170181274414 -0.3207719922065735 -0.11444500088691711
vn -0.8957780003547668 -0.16857199370861053 -0.411296010017395
vn -0.6905840039253235 -0.30969899892807007 -0.6535900235176086
vn -0.5279780030250549 -0.11088799685239792 -0.8419870138168335
vn -0.3786410093307495 -0.10623399913311005 -0.9194269776344299
vn 0.0 -0.2353219985961914 -0.9719169735908508
vn 0.5279350280761719 -0.19942699372768402 0.8255379796028137
vn 0.408253014087677 -0.09206300228834152 0.9082149863243103
vn 0.4098060131072998 0.28238800168037415 0.8673620223999023
vn 0.6403210163116455 0.20856699347496033 0.7392489910125732
vn 0.3832469880580902 0.1752289980649948 -0.9068719744682312
vn 0.6629869937896729 0.11260800063610077 -0.7401130199432373
vn 0.5763009786605835 0.48316800594329834 -0.6591100096702576
vn 0.32206299901008606 0.47436100244522095 -0.8193029761314392
vn 0.7365599870681763 0.3628320097923279 -0.5708169937133789
vn 0.8586000204086304 -0.06275200098752975 -0.5087910294532776
vn 0.9875630140304565 -0.0267340000718832 -0.15493300557136536
vn 0.9404079914093018 0.31656399369239807 -0.12417799979448318
vn 0.8124070167541504 -0.16347099840641022 0.5597079992294312
vn 0.8476600050926208 0.2941780090332031 0.44150999188423157
vn 0.3079510033130646 -0.45220500230789185 0.8370649814605713
vn 0.35806000232696533 -0.14573000371456146 0.9222559928894043
vn 0.41268399357795715 -0.19627399742603302 0.889477014541626
vn 0.4218370020389557 -0.4930819869041443 0.7608699798583984
vn 0.5279790163040161 -0.11088699847459793 -0.8419870138168335
vn 0.3786410093307495 -0.10623300075531006 -0.9194269776344299
vn 0.15010599792003632 -0.7832199931144714 -0.6033520102500916
vn 0.32629698514938354 -0.8387749791145325 -0.43587398529052734
vn 0.9402170181274414 -0.3207719922065735 -0.11444400250911713
vn 0.895779013633728 -0.16857199370861053 -0.411296010017395
vn 0.6989060044288635 -0.6216199994087219 -0.3537209928035736
vn 0.867572009563446 -0.4916599988937378 -0.07476700097322464
vn 0.8207359910011292 -0.2343589961528778 0.5210260152816772
vn 0.6995970010757446 -0.5775529742240906 0.4207099974155426
vn 0.416469007730484 0.4018920063972473 0.8154969811439514
vn 0.3620220124721527 0.39657101035118103 0.8436059951782227
vn 0.2385450005531311 -0.34738001227378845 -0.9068760275840759
vn 0.5229160189628601 -0.5005980134010315 -0.6898990273475647
vn 0.8792999982833862 -0.31839001178741455 -0.354202002286911
vn 0.9827389717102051 -0.1743060052394867 0.06197400018572807
vn 0.7839850187301636 -0.17791999876499176 0.5947380065917969
vn 0.4482319951057434 0.12130899727344513 0.8856480121612549
vn 0.5648210048675537 0.300339013338089 0.7686179876327515
vn 0.4354639947414398 0.7124980092048645 0.5501980185508728
vn 0.26868200302124023 0.687192976474762 0.6749629974365234
vn 0.25788000226020813 0.2121410071849823 -0.9426000118255615
vn 0.3906799852848053 0.1730320006608963 -0.904118001461029
vn 0.7802010178565979 -0.25687000155448914 -0.5703549981117249
vn 0.7958700060844421 -0.019020000472664833 -0.6051689982414246
vn 0.9998739957809448 -0.01576700061559677 -0.001964000053703785
vn 0.31345701217651367 0.6037489771842957 0.7329599857330322
vn 0.4306890070438385 0.676639974117279 0.5972149968147278
vn 0.2516379952430725 0.45382800698280334 -0.8548210263252258
vn 0.43212199211120605 0.5263339877128601 -0.7322859764099121
vn 0.7754390239715576 0.2320519983768463 -0.5872359871864319
vn 0.7480270266532898 0.5638539791107178 -0.3500339984893799
vn 0.30752700567245483 0.8768190145492554 0.36961498856544495
vn 0.14979399740695953 0.9219670295715332 0.357124000787735
vn 0.25780999660491943 0.7376859784126282 0.6239820122718811
vn 0.44106999039649963 0.7565029859542847 0.4828670024871826
vn 0.2481449991464615 0.4340919852256775 -0.8660190105438232
vn 0.19227300584316254 0.7675889730453491 -0.6114230155944824
vn 0.37158098816871643 0.8022670149803162 -0.4672209918498993
vn 0.5006129741668701 0.5580790042877197 -0.661765992641449
vn 0.5068550109863281 0.8036720156669617 -0.3117850124835968
vn 0.49000000953674316 0.8716220259666443 0.013265999965369701
vn 0.5883809924125671 0.7993059754371643 -0.12213999778032303
vn 0.6109030246734619 0.6169040203094482 -0.49621298909187317
vn 0.4143249988555908 0.8917250037193298 0.1821019947528839
vn 0.56523197889328 0.7822830080986023 0.26181501150131226
vn 0.3427030146121979 0.8801800012588501 0.3283880054950714
vn 0.4127050042152405 0.8224809765815735 -0.3914070129394531
vn 0.51453697681427 0.4996039867401123 -0.6968849897384644
vn 0.5378760099411011 0.19271999597549438 -0.8206999897956848
vn 0.6286299824714661 -0.3240880072116852 -0.7069600224494934
vn 0.7026829719543457 -0.5988550186157227 -0.3842009902000427
vn 0.6905850172042847 -0.3096979856491089 -0.6535900235176086
vn 0.8283169865608215 0.04607800021767616 -0.5583620071411133
vn 0.782006025314331 0.3985689878463745 -0.47917699813842773
vn 0.56523197889328 0.7822830080986023 0.26181501150131226
vn 0.4143249988555908 0.8917250037193298 0.1821019947528839
vn 0.3427030146121979 0.8801800012588501 0.3283880054950714
vn 0.7588480114936829 0.613768994808197 0.21780100464820862
vn 0.7411810159683228 0.3811059892177582 0.5526379942893982
vn 0.9035859704017639 -0.2790429890155792 0.3250649869441986
vn 0.7634109854698181 -0.012737000361084938 0.6457870006561279
vn 0.9827389717102051 -0.1743060052394867 0.06197400018572807
vn 0.8662750124931335 -0.14727799594402313 0.4773640036582947
vn 0.7306619882583618 -0.6132529973983765 0.3000899851322174
vn 0.867572009563446 -0.4916599988937378 -0.07476700097322464
vn 0.8865330219268799 -0.24006499350070953 0.3955099880695343
vn 0.9402170181274414 -0.3207719922065735 -0.11444400250911713
vn 0.9875630140304565 -0.0267340000718832 -0.15493300557136536
vn 0.8484320044517517 -0.03451799973845482 0.5281779766082764
vn 0.8399659991264343 0.3311220109462738 0.42990100383758545
vn 0.9404079914093018 0.31656399369239807 -0.12417799979448318
vn 0.513139009475708 0.10351599752902985 -0.8520410060882568
vn 0.5074009895324707 0.42856600880622864 -0.7475789785385132
vn 0.7754390239715576 0.2320519983768463 -0.5872359871864319
vn 0.7958700060844421 -0.019020000472664833 -0.6051689982414246
vn 0.7480270266532898 0.5638539791107178 -0.3500339984893799
vn 0.7588480114936829 0.613768994808197 0.21780100464820862
vn 0.7411810159683228 0.3811059892177582 0.5526379942893982
vn 0.7634109854698181 -0.012737000361084938 0.6457870006561279
vn 0.9035859704017639 -0.2790429890155792 0.3250649869441986
vn 0.9827240109443665 -0.1254349946975708 0.13608600199222565
vn 0.9110230207443237 -0.1455419957637787 0.3858169913291931
vn 0.9337400197982788 -0.28046101331710815 -0.22242200374603271
vn 0.9827240109443665 -0.1254349946975708 0.13608600199222565
vn 0.5825809836387634 -0.16106000542640686 -0.796654999256134
vn 0.7802010178565979 -0.25687000155448914 -0.5703549981117249
vn 0.0 0.3984200060367584 -0.9172030091285706
vn 0.0 0.7899379730224609 -0.6131860017776489
vn 0.0 0.4073750078678131 -0.9132609963417053
vn 0.0 0.22995300590991974 -0.9732019901275635
vn 0.0 -0.25447699427604675 -0.9670789837837219
vn 0.0 -0.7424939870834351 -0.6698529720306396
vn 0.0 -0.2353219985961914 -0.9719169735908508
vn 0.0 0.4822239875793457 -0.8760480284690857
vn 0.0 0.13481099903583527 -0.990871012210846
vn -0.0 -0.16954100131988525 0.985522985458374
vn -0.0 0.12344399839639664 0.9923520088195801
vn -0.0 -0.4182479977607727 0.9083330035209656
vn -0.0 -0.14521199464797974 0.9894009828567505
vn -0.0 0.4120570123195648 0.91115802526474
vn -0.0 0.7005550265312195 0.7135990262031555
vn -0.0 0.7576119899749756 0.6527060270309448
vn -0.0 0.8884860277175903 0.4589039981365204
vn 0.7588480114936829 0.613768994808197 0.21780100464820862
vn 0.8737379908561707 -0.33123600482940674 -0.3561820089817047
vn 0.932919979095459 -0.3338080048561096 -0.13502800464630127
vn 0.9827240109443665 -0.1254349946975708 0.13608600199222565
vn 0.9337400197982788 -0.28046101331710815 -0.22242200374603271
vn 0.932919979095459 -0.3338080048561096 -0.13502800464630127
vn 0.9110230207443237 -0.1455419957637787 0.3858169913291931
vn -0.0 -0.4581100046634674 0.8888949751853943
vn 0.0 -0.9850370287895203 0.17234399914741516
vn 0.04805300012230873 -0.9821180105209351 0.18203000724315643
vn 0.2372550070285797 -0.3814609944820404 0.8934190273284912
vn 0.0 -0.4083400070667267 -0.9128299951553345
vn 0.28508201241493225 -0.373522013425827 -0.8827289938926697
vn 0.05046999827027321 -0.9839619994163513 -0.1710910052061081
vn 0.0 -0.986856997013092 -0.16159699857234955
vn 0.16145199537277222 -0.9801369905471802 0.11517400294542313
vn 0.7732070088386536 -0.4110470116138458 0.482899010181427
vn 0.5468779802322388 -0.40552499890327454 0.7324439883232117
vn 0.579433023929596 -0.3759799897670746 -0.7231150269508362
vn 0.8421499729156494 -0.36815398931503296 -0.39401400089263916
vn 0.16767500340938568 -0.9747790098190308 -0.14727599918842316
vn 0.139165997505188 -0.9902690052986145 0.0009830000344663858
vn 0.9137359857559204 -0.40529799461364746 -0.028658000752329826
vn 0.7577419877052307 -0.509859025478363 0.40727299451828003
vn 0.13743899762630463 -0.990094006061554 0.028699999675154686
vn -0.0005119999987073243 -0.999987006187439 0.005009000189602375
vn -0.002713999943807721 -0.9999539852142334 0.009159999899566174
vn 0.0 -0.9999859929084778 0.005386999808251858
vn 0.0 -0.9999489784240723 0.010126999579370022
vn 0.0002099999983329326 -1.0 0.0005970000056549907
vn 0.0 -1.0 0.0006549999816343188
vn 0.13775399327278137 -0.9903600215911865 -0.014549000188708305
vn 0.7999370098114014 -0.5008900165557861 -0.330469012260437
vn 0.3039799928665161 0.3494180142879486 -0.8862860202789307
vn 0.6306970119476318 0.3393529951572418 -0.6978970170021057
vn 0.579433023929596 -0.3759799897670746 -0.7231150269508362
vn 0.28508201241493225 -0.373522013425827 -0.8827289938926697
vn 0.8519189953804016 0.3063740134239197 -0.42469799518585205
vn 0.8421499729156494 -0.36815398931503296 -0.39401400089263916
vn 0.7999370098114014 -0.5008900165557861 -0.330469012260437
vn 0.8718990087509155 0.23480799794197083 -0.4297179877758026
vn 0.9682250022888184 0.24992099404335022 -0.008913000114262104
vn 0.9137359857559204 -0.40529799461364746 -0.028658000752329826
vn 0.9682250022888184 0.24992099404335022 -0.008913000114262104
vn 0.8433809876441956 0.17611899971961975 0.5076329708099365
vn 0.7577419877052307 -0.509859025478363 0.40727299451828003
vn 0.9137359857559204 -0.40529799461364746 -0.028658000752329826
vn 0.7732070088386536 -0.4110470116138458 0.482899010181427
vn 0.812533974647522 0.20594100654125214 0.5453220009803772
vn 0.5760400295257568 0.20150700211524963 0.7921950221061707
vn 0.5468779802322388 -0.40552499890327454 0.7324439883232117
vn 0.19426800310611725 0.18545199930667877 0.9632589817047119
vn 0.2372550070285797 -0.3814609944820404 0.8934190273284912
vn -0.0 -0.4581100046634674 0.8888949751853943
vn -0.0 0.1242230013012886 0.9922540187835693
vn 0.0 -0.4083400070667267 -0.9128299951553345
vn 0.0 0.34279799461364746 -0.9394090175628662
vn 0.32131800055503845 -0.4791480004787445 0.8168060183525085
vn 0.408253014087677 -0.09206300228834152 0.9082149863243103
vn 0.5279350280761719 -0.19942699372768402 0.8255379796028137
vn 0.3679310083389282 -0.5907530188560486 0.7180789709091187
vn -0.0 -0.16954100131988525 0.985522985458374
vn -0.0 -0.5223270058631897 0.852744996547699
vn 0.3832469880580902 0.1752289980649948 -0.9068719744682312
vn 0.0 0.13481099903583527 -0.990871012210846
vn 0.0 -0.27381399273872375 -0.9617829918861389
vn 0.39261099696159363 -0.26529601216316223 -0.880611002445221
vn 0.6629869937896729 0.11260800063610077 -0.7401130199432373
vn 0.644897997379303 -0.2848910093307495 -0.709185004234314
vn 0.8283169865608215 0.04607800021767616 -0.5583620071411133
vn 0.745468020439148 -0.4711669981479645 -0.47146499156951904
vn 0.8586000204086304 -0.06275200098752975 -0.5087910294532776
vn 0.7500500082969666 -0.508853018283844 -0.42248499393463135
vn 0.9875630140304565 -0.0267340000718832 -0.15493300557136536
vn 0.8359000086784363 -0.5464379787445068 -0.05174199864268303
vn 0.6337829828262329 -0.5269690155982971 0.5662360191345215
vn 0.8484320044517517 -0.03451799973845482 0.5281779766082764
vn 0.9875630140304565 -0.0267340000718832 -0.15493300557136536
vn 0.8359000086784363 -0.5464379787445068 -0.05174199864268303
vn 0.8124070167541504 -0.16347099840641022 0.5597079992294312
vn 0.615867018699646 -0.6057639718055725 0.5037440061569214
vn 0.0 0.2806580066680908 -0.9598079919815063
vn 0.3908750116825104 0.28293898701667786 -0.8758779764175415
vn 0.5068690180778503 0.2862969934940338 -0.813090980052948
vn 0.7950239777565002 0.18011899292469025 -0.5792189836502075
vn 0.8508570194244385 0.24950599670410156 -0.4623740017414093
vn 0.9820590019226074 0.182219997048378 -0.048530999571084976
vn 0.8458060026168823 0.1442060023546219 0.5136299729347229
vn 0.9820590019226074 0.182219997048378 -0.048530999571084976
vn 0.847698986530304 0.09710899740457535 0.5215139985084534
vn 0.5542910099029541 0.11321800202131271 0.8245859742164612
vn 0.38044899702072144 0.31435200572013855 0.8697360157966614
vn -0.0 0.22742700576782227 0.9737949967384338
vn -0.0 -0.14521199464797974 0.9894009828567505
vn 0.35806000232696533 -0.14573000371456146 0.9222559928894043
vn 0.41268399357795715 -0.19627399742603302 0.889477014541626
vn 0.8207359910011292 -0.2343589961528778 0.5210260152816772
vn 0.8865330219268799 -0.24006499350070953 0.3955099880695343
vn 0.9402170181274414 -0.3207719922065735 -0.11444400250911713
vn 0.9402170181274414 -0.3207719922065735 -0.11444400250911713
vn 0.895779013633728 -0.16857199370861053 -0.411296010017395
vn 0.6905850172042847 -0.3096979856491089 -0.6535900235176086
vn 0.5279790163040161 -0.11088699847459793 -0.8419870138168335
vn 0.3786410093307495 -0.10623300075531006 -0.9194269776344299
vn 0.0 -0.2353219985961914 -0.9719169735908508

vt 0.2779119908809662 0.6614510118961334
vt 0.27872198820114136 0.6694509983062744
vt 0.33840298652648926 0.6530939936637878
vt 0.3402999937534332 0.641633003950119
vt 0.10427399724721909 0.5907709896564484
vt 0.10114900022745132 0.6010040044784546
vt 0.06837199628353119 0.5876800119876862
vt 0.0695519968867302 0.5774550139904022
vt 0.15877200663089752 0.6158230006694794
vt 0.17235299944877625 0.6216610074043274
vt 0.16483399271965027 0.6293709874153137
vt 0.15221799910068512 0.6247479915618896
vt 0.3717679977416992 0.6486980020999908
vt 0.37466299533843994 0.6377499997615814
vt 0.2680230140686035 0.7540290057659149
vt 0.34983599185943604 0.7576829940080643
vt 0.34669700264930725 0.7504339963197708
vt 0.26836198568344116 0.7472079992294312
vt 0.06233799830079079 0.7488059997558594
vt 0.06267099827528 0.7415159940719604
vt 0.11288200318813324 0.7348060011863708
vt 0.11511799693107605 0.7416050136089325
vt 0.19169999659061432 0.7475920021533966
vt 0.18523499369621277 0.7386339902877808
vt 0.2004919946193695 0.7366670072078705
vt 0.2084590047597885 0.743712991476059
vt 0.38747501373291016 0.757655993103981
vt 0.3848060071468353 0.7489989995956421
vt 0.26927199959754944 0.8559879958629608
vt 0.34788599610328674 0.8432549983263016
vt 0.11924000084400177 0.7721749991178513
vt 0.055716998875141144 0.7719330042600632
vt 0.21476800739765167 0.7667859941720963
vt 0.20164699852466583 0.769556999206543
vt 0.3746680021286011 0.8346129953861237
vt 0.3941810131072998 0.8331449925899506
vt 0.4089069962501526 0.7997239977121353
vt 0.2824940085411072 0.9128620028495789
vt 0.33309999108314514 0.899387001991272
vt 0.10322699695825577 0.8458240032196045
vt 0.044328998774290085 0.8526279926300049
vt 0.4602069854736328 0.7330630123615265
vt 0.4825119972229004 0.7614420056343079
vt 0.45515701174736023 0.7487669885158539
vt 0.3606190085411072 0.8885760009288788
vt 0.3858569860458374 0.8767959997057915
vt 0.09215500205755234 0.8840100020170212
vt 0.03814300149679184 0.8926709964871407
vt 0.46184399724006653 0.7856969982385635
vt 0.45515701174736023 0.7703959941864014
vt 0.27935999631881714 0.9389699995517731
vt 0.27916398644447327 0.9457670003175735
vt 0.3137719929218292 0.9455039985477924
vt 0.3175719976425171 0.9372060000896454
vt 0.028692999854683876 0.9105869978666306
vt 0.07110200077295303 0.917944997549057
vt 0.0652799978852272 0.9321470037102699
vt 0.027171000838279724 0.9261770024895668
vt 0.10892699658870697 0.9396019987761974
vt 0.10123000293970108 0.9498439989984035
vt 0.08628299832344055 0.9388299994170666
vt 0.0910860002040863 0.9266299977898598
vt 0.3357729911804199 0.9557299986481667
vt 0.3413110077381134 0.9482389986515045
vt 0.3907260000705719 0.9095629975199699
vt 0.15394900739192963 0.9028870016336441
vt 0.11182300001382828 0.8788430020213127
vt 0.12436799705028534 0.8423790037631989
vt 0.14024999737739563 0.7781970053911209
vt 0.17084400355815887 0.7579350024461746
vt 0.16599999368190765 0.7495299875736237
vt 0.1435520052909851 0.6038979887962341
vt 0.13884399831295013 0.6131030023097992
vt 0.12082099914550781 0.9647100009024143
vt 0.11252500116825104 0.9694899991154671
vt 0.17634299397468567 0.9305209964513779
vt 0.48227599263191223 0.7906679958105087
vt 0.5020239949226379 0.7797649949789047
vt 0.5092359781265259 0.7414290010929108
vt 0.5140330195426941 0.7582869976758957
vt 0.41834700107574463 0.7564930021762848
vt 0.42664000391960144 0.7864110022783279
vt 0.4356350004673004 0.7811110019683838
vt 0.4341470003128052 0.75763800740242
vt 0.4287619888782501 0.7483380138874054
vt 0.41434600949287415 0.746957004070282
vt 0.4022650122642517 0.6350100040435791
vt 0.3981809914112091 0.6451849937438965
vt 0.41100698709487915 0.6421279907226562
vt 0.4160119891166687 0.632753998041153
vt 0.1506820023059845 0.8346789926290512
vt 0.18333399295806885 0.8303930014371872
vt 0.18665200471878052 0.8592189997434616
vt 0.1444759964942932 0.8702449947595596
vt 0.19274799525737762 0.8809849992394447
vt 0.42611899971961975 0.892376996576786
vt 0.4176819920539856 0.8640909940004349
vt 0.4135209918022156 0.8319530040025711
vt 0.420058012008667 0.8094380050897598
vt 0.43178099393844604 0.7958829998970032
vt 0.43851399421691895 0.7908470034599304
vt 0.21768899261951447 0.776527002453804
vt 0.20712000131607056 0.7811740040779114
vt 0.16456499695777893 0.8033439964056015
vt 0.184812992811203 0.8084509968757629
vt 0.005692000035196543 0.9268060028553009
vt 0.004914000164717436 0.9112439975142479
vt 0.003703000023961067 0.8949719965457916
vt 0.001478999969549477 0.8536230027675629
vt 0.0034600000362843275 0.7754220068454742
vt 0.009859000332653522 0.7483829855918884
vt 0.012184999883174896 0.7402940094470978
vt 0.012643000110983849 0.5781269967556
vt 0.013399999588727951 0.5882720053195953
vt 0.24390999972820282 0.6615869998931885
vt 0.24537299573421478 0.6687479913234711
vt 0.22548699378967285 0.746957004070282
vt 0.2220280021429062 0.753589004278183
vt 0.23006999492645264 0.8544989973306656
vt 0.2468309998512268 0.9152010008692741
vt 0.25537899136543274 0.9405549988150597
vt 0.25714001059532166 0.9467409998178482
vt 0.20824000239372253 0.9050009995698929
vt 0.18289099633693695 0.7777869999408722
vt 0.1922910064458847 0.7907849997282028
vt 0.4950079917907715 0.7274189889431
vt 0.4862399995326996 0.7269389927387238
vt 0.4728659987449646 0.7262730002403259
vt 0.4995410144329071 0.7319430112838745
vt 0.06662800163030624 0.9835209995508194
vt 0.05100899934768677 0.9902539998292923
vt 0.04070400074124336 0.9615960009396076
vt 0.040608000010252 0.9355359971523285
vt 0.05080899968743324 0.9362279996275902
vt 0.06648699939250946 0.9458799995481968
vt 0.07373300194740295 0.9537389986217022
vt 0.07584399729967117 0.9626750014722347
vt 0.07304300367832184 0.9733460005372763
vt 0.040824998170137405 0.9939500000327826
vt 0.4554300010204315 0.6077429950237274
vt 0.45715099573135376 0.5557909905910492
vt 0.49397900700569153 0.5605700016021729
vt 0.4915030002593994 0.6083419919013977
vt 0.674219012260437 0.611411988735199
vt 0.6368970274925232 0.6107699871063232
vt 0.6358469724655151 0.5627569854259491
vt 0.672523021697998 0.5506770014762878
vt 0.522911012172699 0.5147239863872528
vt 0.484701007604599 0.507205992937088
vt 0.515421986579895 0.47920697927474976
vt 0.6457229852676392 0.5095919966697693
vt 0.6130520105361938 0.5152870118618011
vt 0.6080489754676819 0.4723510146141052
vt 0.5644569993019104 0.509213000535965
vt 0.5519610047340393 0.5108070075511932
vt 0.5501999855041504 0.4664760231971741
vt 0.5650650262832642 0.4575350284576416
vt 0.5635870099067688 0.5596979856491089
vt 0.5427489876747131 0.5599870085716248
vt 0.5627449750900269 0.6095179915428162
vt 0.5414270162582397 0.6091620028018951
vt 0.5909249782562256 0.5608989894390106
vt 0.5907930135726929 0.6099880039691925
vt 0.582938015460968 0.511474996805191
vt 0.5801600217819214 0.46787500381469727
vt 0.11755599826574326 0.5063939988613129
vt 0.11077799648046494 0.5501869916915894
vt 0.06842599809169769 0.5391460061073303
vt 0.06977900117635727 0.49706900119781494
vt 0.1685670018196106 0.5202710032463074
vt 0.1543550044298172 0.5656769871711731
vt 0.19293199479579926 0.534058004617691
vt 0.21032199263572693 0.5398350059986115
vt 0.18948499858379364 0.5811220109462738
vt 0.17468400299549103 0.5761939883232117
vt 0.4224570095539093 0.5462290048599243
vt 0.4089510142803192 0.5888069868087769
vt 0.4224430024623871 0.590378999710083
vt 0.43936100602149963 0.5483039915561676
vt 0.3868969976902008 0.5390430092811584
vt 0.34691300988197327 0.5350320041179657
vt 0.343502014875412 0.5792999863624573
vt 0.38143399357795715 0.5836400091648102
vt 0.29231300950050354 0.5334280133247375
vt 0.27630800008773804 0.5765750110149384
vt 0.24183300137519836 0.5375759899616241
vt 0.24451200664043427 0.5770879983901978
vt 0.009716999717056751 0.4986039996147156
vt 0.011339000426232815 0.5396609902381897
vt 0.014944000169634819 0.983712999150157
vt 0.030612999573349953 0.9903290001675487
vt 0.03041199967265129 0.9363040030002594
vt 0.014805999584496021 0.9460709989070892
vt 0.007619000039994717 0.9539839997887611
vt 0.0055740000680089 0.9629359990358353
vt 0.008453999646008015 0.9735860005021095
vt 0.27569401264190674 0.6944069862365723
vt 0.34654998779296875 0.6887249946594238
vt 0.3435930013656616 0.67637899518013
vt 0.2770189940929413 0.6833809912204742
vt 0.24162699282169342 0.6799980103969574
vt 0.23707200586795807 0.6906209886074066
vt 0.07006099820137024 0.6358700096607208
vt 0.06905999779701233 0.6491639912128448
vt 0.010373000055551529 0.6464059948921204
vt 0.01205000001937151 0.6308900117874146
vt 0.10758200287818909 0.6379530131816864
vt 0.10960499942302704 0.6511560082435608
vt 0.14955399930477142 0.6401039958000183
vt 0.15475499629974365 0.6555039882659912
vt 0.16774900257587433 0.6381680071353912
vt 0.17427000403404236 0.65345099568367
vt 0.18102900683879852 0.6418069899082184
vt 0.18838700652122498 0.6558539867401123
vt 0.40918299555778503 0.6715460121631622
vt 0.4230310022830963 0.6688550114631653
vt 0.41628599166870117 0.6545189917087555
vt 0.4033359885215759 0.6573790013790131
vt 0.3779740035533905 0.6676320135593414
vt 0.38224101066589355 0.6811879873275757
vt 0.06108500063419342 0.7092730104923248
vt 0.009611999616026878 0.722555011510849
vt 0.1124190017580986 0.7132009863853455
vt 0.1694599986076355 0.7135849893093109
vt 0.1912669986486435 0.7165699899196625
vt 0.20750199258327484 0.7151870131492615
vt 0.41869598627090454 0.7317549884319305
vt 0.43463701009750366 0.731683999300003
vt 0.3870779871940613 0.7291100025177002
vt 0.34943699836730957 0.7283239960670471
vt 0.2716360092163086 0.7341519892215729
vt 0.22665899991989136 0.7275870144367218
vt 0.22832800447940826 0.7329449951648712
vt 0.27127599716186523 0.7392190098762512
vt 0.3469170033931732 0.7332650125026703
vt 0.3849349915981293 0.735163003206253
vt 0.4156700074672699 0.7391670048236847
vt 0.4307839870452881 0.7392190098762512
vt 0.2047400027513504 0.7226839959621429
vt 0.18960200250148773 0.724716991186142
vt 0.16777700185775757 0.720988005399704
vt 0.11064799875020981 0.7212879955768585
vt 0.060159001499414444 0.717644989490509
vt 0.01126100029796362 0.7307919859886169
vt 0.33840298652648926 0.6530939936637878
vt 0.27872198820114136 0.6694509983062744
vt 0.2779119908809662 0.6614510118961334
vt 0.3402999937534332 0.641633003950119
vt 0.06837199628353119 0.5876800119876862
vt 0.10114900022745132 0.6010040044784546
vt 0.10427399724721909 0.5907709896564484
vt 0.0695519968867302 0.5774550139904022
vt 0.15877200663089752 0.6158230006694794
vt 0.15221799910068512 0.6247479915618896
vt 0.16483399271965027 0.6293709874153137
vt 0.17235299944877625 0.6216610074043274
vt 0.3717679977416992 0.6486980020999908
vt 0.37466299533843994 0.6377499997615814
vt 0.2680230140686035 0.7540290057659149
vt 0.26836198568344116 0.7472079992294312
vt 0.34669700264930725 0.7504339963197708
vt 0.34983599185943604 0.7576829940080643
vt 0.11288200318813324 0.7348060011863708
vt 0.06267099827528 0.7415159940719604
vt 0.06233799830079079 0.7488059997558594
vt 0.11511799693107605 0.7416050136089325
vt 0.2004919946193695 0.7366670072078705
vt 0.18523499369621277 0.7386339902877808
vt 0.19169999659061432 0.7475920021533966
vt 0.2084590047597885 0.743712991476059
vt 0.3848060071468353 0.7489989995956421
vt 0.38747501373291016 0.757655993103981
vt 0.34788599610328674 0.8432549983263016
vt 0.26927199959754944 0.8559879958629608
vt 0.055716998875141144 0.7719330042600632
vt 0.11924000084400177 0.7721749991178513
vt 0.20164699852466583 0.769556999206543
vt 0.21476800739765167 0.7667859941720963
vt 0.4089069962501526 0.7997239977121353
vt 0.3941810131072998 0.8331449925899506
vt 0.3746680021286011 0.8346129953861237
vt 0.33309999108314514 0.899387001991272
vt 0.2824940085411072 0.9128620028495789
vt 0.044328998774290085 0.8526279926300049
vt 0.10322699695825577 0.8458240032196045
vt 0.4602069854736328 0.7330630123615265
vt 0.45515701174736023 0.7487669885158539
vt 0.4825119972229004 0.7614420056343079
vt 0.3858569860458374 0.8767959997057915
vt 0.3606190085411072 0.8885760009288788
vt 0.03814300149679184 0.8926709964871407
vt 0.09215500205755234 0.8840100020170212
vt 0.45515701174736023 0.7703959941864014
vt 0.46184399724006653 0.7856969982385635
vt 0.3137719929218292 0.9455039985477924
vt 0.27916398644447327 0.9457670003175735
vt 0.27935999631881714 0.9389699995517731
vt 0.3175719976425171 0.9372060000896454
vt 0.028692999854683876 0.9105869978666306
vt 0.027171000838279724 0.9261770024895668
vt 0.0652799978852272 0.9321470037102699
vt 0.07110200077295303 0.917944997549057
vt 0.08628299832344055 0.9388299994170666
vt 0.10123000293970108 0.9498439989984035
vt 0.10892699658870697 0.9396019987761974
vt 0.0910860002040863 0.9266299977898598
vt 0.3357729911804199 0.9557299986481667
vt 0.3413110077381134 0.9482389986515045
vt 0.3907260000705719 0.9095629975199699
vt 0.15394900739192963 0.9028870016336441
vt 0.11182300001382828 0.8788430020213127
vt 0.12436799705028534 0.8423790037631989
vt 0.14024999737739563 0.7781970053911209
vt 0.17084400355815887 0.7579350024461746
vt 0.16599999368190765 0.7495299875736237
vt 0.13884399831295013 0.6131030023097992
vt 0.1435520052909851 0.6038979887962341
vt 0.12082099914550781 0.9647100009024143
vt 0.11252500116825104 0.9694899991154671
vt 0.17634299397468567 0.9305209964513779
vt 0.48227599263191223 0.7906679958105087
vt 0.5020239949226379 0.7797649949789047
vt 0.5092359781265259 0.7414290010929108
vt 0.5140330195426941 0.7582869976758957
vt 0.4356350004673004 0.7811110019683838
vt 0.42664000391960144 0.7864110022783279
vt 0.41834700107574463 0.7564930021762848
vt 0.4341470003128052 0.75763800740242
vt 0.41434600949287415 0.746957004070282
vt 0.4287619888782501 0.7483380138874054
vt 0.41100698709487915 0.6421279907226562
vt 0.3981809914112091 0.6451849937438965
vt 0.4022650122642517 0.6350100040435791
vt 0.4160119891166687 0.632753998041153
vt 0.1506820023059845 0.8346789926290512
vt 0.1444759964942932 0.8702449947595596
vt 0.18665200471878052 0.8592189997434616
vt 0.18333399295806885 0.8303930014371872
vt 0.19274799525737762 0.8809849992394447
vt 0.42611899971961975 0.892376996576786
vt 0.4176819920539856 0.8640909940004349
vt 0.4135209918022156 0.8319530040025711
vt 0.420058012008667 0.8094380050897598
vt 0.43851399421691895 0.7908470034599304
vt 0.43178099393844604 0.7958829998970032
vt 0.20712000131607056 0.7811740040779114
vt 0.21768899261951447 0.776527002453804
vt 0.16456499695777893 0.8033439964056015
vt 0.184812992811203 0.8084509968757629
vt 0.004914000164717436 0.9112439975142479
vt 0.005692000035196543 0.9268060028553009
vt 0.003703000023961067 0.8949719965457916
vt 0.001478999969549477 0.8536230027675629
vt 0.0034600000362843275 0.7754220068454742
vt 0.009859000332653522 0.7483829855918884
vt 0.012184999883174896 0.7402940094470978
vt 0.012643000110983849 0.5781269967556
vt 0.013399999588727951 0.5882720053195953
vt 0.24537299573421478 0.6687479913234711
vt 0.24390999972820282 0.6615869998931885
vt 0.2220280021429062 0.753589004278183
vt 0.22548699378967285 0.746957004070282
vt 0.23006999492645264 0.8544989973306656
vt 0.2468309998512268 0.9152010008692741
vt 0.25537899136543274 0.9405549988150597
vt 0.25714001059532166 0.9467409998178482
vt 0.20824000239372253 0.9050009995698929
vt 0.18289099633693695 0.7777869999408722
vt 0.1922910064458847 0.7907849997282028
vt 0.4950079917907715 0.7274189889431
vt 0.4862399995326996 0.7269389927387238
vt 0.4728659987449646 0.7262730002403259
vt 0.4995410144329071 0.7319430112838745
vt 0.4554300010204315 0.6077429950237274
vt 0.4915030002593994 0.6083419919013977
vt 0.49397900700569153 0.5605700016021729
vt 0.45715099573135376 0.5557909905910492
vt 0.674219012260437 0.611411988735199
vt 0.672523021697998 0.5506770014762878
vt 0.6358469724655151 0.5627569854259491
vt 0.6368970274925232 0.6107699871063232
vt 0.522911012172699 0.5147239863872528
vt 0.515421986579895 0.47920697927474976
vt 0.484701007604599 0.507205992937088
vt 0.6457229852676392 0.5095919966697693
vt 0.6080489754676819 0.4723510146141052
vt 0.6130520105361938 0.5152870118618011
vt 0.5644569993019104 0.509213000535965
vt 0.5650650262832642 0.4575350284576416
vt 0.5501999855041504 0.4664760231971741
vt 0.5519610047340393 0.5108070075511932
vt 0.5635870099067688 0.5596979856491089
vt 0.5427489876747131 0.5599870085716248
vt 0.5627449750900269 0.6095179915428162
vt 0.5414270162582397 0.6091620028018951
vt 0.5909249782562256 0.5608989894390106
vt 0.5907930135726929 0.6099880039691925
vt 0.582938015460968 0.511474996805191
vt 0.5801600217819214 0.46787500381469727
vt 0.06842599809169769 0.5391460061073303
vt 0.11077799648046494 0.5501869916915894
vt 0.11755599826574326 0.5063939988613129
vt 0.06977900117635727 0.49706900119781494
vt 0.1543550044298172 0.5656769871711731
vt 0.1685670018196106 0.5202710032463074
vt 0.19293199479579926 0.534058004617691
vt 0.17468400299549103 0.5761939883232117
vt 0.18948499858379364 0.5811220109462738
vt 0.21032199263572693 0.5398350059986115
vt 0.4224430024623871 0.590378999710083
vt 0.4089510142803192 0.5888069868087769
vt 0.4224570095539093 0.5462290048599243
vt 0.43936100602149963 0.5483039915561676
vt 0.3868969976902008 0.5390430092811584
vt 0.38143399357795715 0.5836400091648102
vt 0.343502014875412 0.5792999863624573
vt 0.34691300988197327 0.5350320041179657
vt 0.27630800008773804 0.5765750110149384
vt 0.29231300950050354 0.5334280133247375
vt 0.24183300137519836 0.5375759899616241
vt 0.24451200664043427 0.5770879983901978
vt 0.009716999717056751 0.4986039996147156
vt 0.011339000426232815 0.5396609902381897
vt 0.27569401264190674 0.6944069862365723
vt 0.2770189940929413 0.6833809912204742
vt 0.3435930013656616 0.67637899518013
vt 0.34654998779296875 0.6887249946594238
vt 0.24162699282169342 0.6799980103969574
vt 0.23707200586795807 0.6906209886074066
vt 0.07006099820137024 0.6358700096607208
vt 0.01205000001937151 0.6308900117874146
vt 0.010373000055551529 0.6464059948921204
vt 0.06905999779701233 0.6491639912128448
vt 0.10758200287818909 0.6379530131816864
vt 0.10960499942302704 0.6511560082435608
vt 0.14955399930477142 0.6401039958000183
vt 0.15475499629974365 0.6555039882659912
vt 0.16774900257587433 0.6381680071353912
vt 0.17427000403404236 0.65345099568367
vt 0.18102900683879852 0.6418069899082184
vt 0.18838700652122498 0.6558539867401123
vt 0.40918299555778503 0.6715460121631622
vt 0.4033359885215759 0.6573790013790131
vt 0.41628599166870117 0.6545189917087555
vt 0.4230310022830963 0.6688550114631653
vt 0.3779740035533905 0.6676320135593414
vt 0.38224101066589355 0.6811879873275757
vt 0.009611999616026878 0.722555011510849
vt 0.06108500063419342 0.7092730104923248
vt 0.1124190017580986 0.7132009863853455
vt 0.1694599986076355 0.7135849893093109
vt 0.1912669986486435 0.7165699899196625
vt 0.20750199258327484 0.7151870131492615
vt 0.41869598627090454 0.7317549884319305
vt 0.43463701009750366 0.731683999300003
vt 0.3870779871940613 0.7291100025177002
vt 0.34943699836730957 0.7283239960670471
vt 0.2716360092163086 0.7341519892215729
vt 0.22665899991989136 0.7275870144367218
vt 0.22832800447940826 0.7329449951648712
vt 0.27127599716186523 0.7392190098762512
vt 0.3469170033931732 0.7332650125026703
vt 0.3849349915981293 0.735163003206253
vt 0.4156700074672699 0.7391670048236847
vt 0.4307839870452881 0.7392190098762512
vt 0.2047400027513504 0.7226839959621429
vt 0.18960200250148773 0.724716991186142
vt 0.16777700185775757 0.720988005399704
vt 0.11064799875020981 0.7212879955768585
vt 0.060159001499414444 0.717644989490509
vt 0.01126100029796362 0.7307919859886169

usemtl Material

f 1/1/1 2/2/2 3/3/3
f 3/3/3 4/4/4 1/1/1
f 5/5/5 6/6/6 7/7/7
f 7/7/7 8/8/8 5/5/5
f 9/9/9 10/10/10 11/11/11
f 11/11/11 12/12/12 9/9/9
f 4/4/4 3/3/3 13/13/13
f 13/13/13 14/14/14 4/4/4
f 15/15/15 16/16/16 17/17/17
f 17/17/17 18/18/18 15/15/15
f 19/19/19 20/20/20 21/21/21
f 21/21/21 22/22/22 19/19/19
f 23/23/23 24/24/24 25/25/25
f 25/25/25 26/26/26 23/23/23
f 16/16/16 27/27/27 28/28/28
f 28/28/28 17/17/17 16/16/16
f 15/15/15 29/29/29 30/30/30
f 30/30/30 16/16/16 15/15/15
f 19/19/19 22/22/22 31/31/31
f 31/31/31 32/32/32 19/19/19
f 26/26/26 33/33/33 34/34/34
f 34/34/34 23/23/23 26/26/26
f 35/35/35 36/36/36 37/37/37
f 37/37/37 27/27/27 35/35/35
f 29/29/29 38/38/38 39/39/39
f 39/39/39 30/30/30 29/29/29
f 32/32/32 31/31/31 40/40/40
f 40/40/40 41/41/41 32/32/32
f 42/42/42 43/43/43 44/44/44
f 35/35/35 45/45/45 46/46/46
f 46/46/46 36/36/36 35/35/35
f 41/41/41 40/40/40 47/47/47
f 47/47/47 48/48/48 41/41/41
f 43/43/43 49/49/49 50/50/50
f 50/50/50 44/44/44 43/43/43
f 51/51/51 52/52/52 53/53/53
f 53/53/53 54/54/54 51/51/51
f 55/55/55 56/56/56 57/57/57
f 57/57/57 58/58/58 55/55/55
f 59/59/59 60/60/60 61/61/61
f 61/61/61 62/62/62 59/59/59
f 54/54/54 53/53/53 63/63/63
f 63/63/63 64/64/64 54/54/54
f 48/48/48 47/47/47 56/56/56
f 56/56/56 55/55/55 48/48/48
f 38/38/38 51/51/51 54/54/54
f 54/54/54 39/39/39 38/38/38
f 45/45/45 64/64/64 65/65/65
f 65/65/65 46/46/46 45/45/45
f 66/66/66 59/59/59 62/62/62
f 61/61/61 57/57/57 56/56/56
f 56/56/56 62/62/62 61/61/61
f 47/47/47 67/67/67 62/62/62
f 62/62/62 56/56/56 47/47/47
f 40/40/40 68/68/68 67/67/67
f 67/67/67 47/47/47 40/40/40
f 31/31/31 69/69/69 68/68/68
f 68/68/68 40/40/40 31/31/31
f 22/22/22 70/70/70 69/69/69
f 69/69/69 31/31/31 22/22/22
f 22/22/22 21/21/21 71/71/71
f 71/71/71 70/70/70 22/22/22
f 5/5/5 72/72/72 73/73/73
f 73/73/73 6/6/6 5/5/5
f 74/74/74 75/75/75 60/60/60
f 60/60/60 59/59/59 74/74/74
f 76/76/76 74/74/74 59/59/59
f 59/59/59 66/66/66 76/76/76
f 77/77/77 43/43/43 78/78/78
f 79/79/79 80/80/80 43/43/43
f 78/78/78 43/43/43 80/80/80
f 81/81/81 82/82/82 83/83/83
f 83/83/83 84/84/84 81/81/81
f 81/81/81 84/84/84 85/85/85
f 85/85/85 86/86/86 81/81/81
f 87/87/87 88/88/88 89/89/89
f 89/89/89 90/90/90 87/87/87
f 91/91/91 92/92/92 93/93/93
f 93/93/93 94/94/94 91/91/91
f 95/95/95 66/66/66 94/94/94
f 94/94/94 93/93/93 95/95/95
f 46/46/46 65/65/65 96/96/96
f 96/96/96 97/97/97 46/46/46
f 36/36/36 46/46/46 97/97/97
f 97/97/97 98/98/98 36/36/36
f 98/98/98 99/99/99 37/37/37
f 37/37/37 36/36/36 98/98/98
f 82/82/82 100/100/100 101/101/101
f 101/101/101 83/83/83 82/82/82
f 33/33/33 102/102/102 103/103/103
f 103/103/103 34/34/34 33/33/33
f 92/92/92 91/91/91 104/104/104
f 104/104/104 105/105/105 92/92/92
f 58/58/58 106/106/106 107/107/107
f 107/107/107 55/55/55 58/58/58
f 108/108/108 48/48/48 55/55/55
f 55/55/55 107/107/107 108/108/108
f 109/109/109 41/41/41 48/48/48
f 48/48/48 108/108/108 109/109/109
f 110/110/110 32/32/32 41/41/41
f 41/41/41 109/109/109 110/110/110
f 111/111/111 19/19/19 32/32/32
f 32/32/32 110/110/110 111/111/111
f 19/19/19 111/111/111 112/112/112
f 112/112/112 20/20/20 19/19/19
f 113/113/113 8/8/8 7/7/7
f 7/7/7 114/114/114 113/113/113
f 1/1/1 115/115/115 116/116/116
f 116/116/116 2/2/2 1/1/1
f 15/15/15 18/18/18 117/117/117
f 117/117/117 118/118/118 15/15/15
f 15/15/15 118/118/118 119/119/119
f 119/119/119 29/29/29 15/15/15
f 29/29/29 119/119/119 120/120/120
f 120/120/120 38/38/38 29/29/29
f 38/38/38 120/120/120 121/121/121
f 121/121/121 51/51/51 38/38/38
f 51/51/51 121/121/121 122/122/122
f 122/122/122 52/52/52 51/51/51
f 76/76/76 66/66/66 95/95/95
f 95/95/95 123/123/123 76/76/76
f 43/43/43 77/77/77 49/49/49
f 105/105/105 104/104/104 124/124/124
f 124/124/124 125/125/125 105/105/105
f 126/126/126 43/43/43 127/127/127
f 42/42/42 128/128/128 43/43/43
f 127/127/127 43/43/43 128/128/128
f 43/43/43 126/126/126 129/129/129
f 129/129/129 79/79/79 43/43/43
f 130/130/130 131/131/131 132/132/132
f 133/133/133 134/134/134 132/132/132
f 135/135/135 136/136/136 132/132/132
f 137/137/137 138/138/138 132/132/132
f 136/136/136 137/137/137 132/132/132
f 138/138/138 130/130/130 132/132/132
f 134/134/134 135/135/135 132/132/132
f 131/131/131 139/139/139 132/132/132
f 69/69/69 70/70/70 124/124/124
f 124/124/124 104/104/104 69/69/69
f 68/68/68 69/69/69 104/104/104
f 104/104/104 91/91/91 68/68/68
f 68/68/68 91/91/91 94/94/94
f 94/94/94 67/67/67 68/68/68
f 16/16/16 30/30/30 35/35/35
f 35/35/35 27/27/27 16/16/16
f 45/45/45 35/35/35 30/30/30
f 30/30/30 39/39/39 45/45/45
f 64/64/64 45/45/45 39/39/39
f 39/39/39 54/54/54 64/64/64
f 140/140/140 141/141/141 142/142/142
f 142/142/142 143/143/143 140/140/140
f 144/144/144 145/145/145 146/146/146
f 146/146/146 147/147/147 144/144/144
f 148/148/148 149/149/149 150/150/150
f 151/151/151 152/152/152 153/153/153
f 146/146/146 152/152/152 151/151/151
f 151/151/151 147/147/147 146/146/146
f 142/142/142 141/141/141 149/149/149
f 149/149/149 148/148/148 142/142/142
f 154/154/154 155/155/155 156/156/156
f 156/156/156 157/157/157 154/154/154
f 158/158/158 159/159/159 155/155/155
f 155/155/155 154/154/154 158/158/158
f 159/159/159 158/158/158 160/160/160
f 160/160/160 161/161/161 159/159/159
f 162/162/162 163/163/163 160/160/160
f 160/160/160 158/158/158 162/162/162
f 164/164/164 162/162/162 158/158/158
f 158/158/158 154/154/154 164/164/164
f 165/165/165 164/164/164 154/154/154
f 154/154/154 157/157/157 165/165/165
f 166/166/166 167/167/167 168/168/168
f 168/168/168 169/169/169 166/166/166
f 170/170/170 171/171/171 167/167/167
f 167/167/167 166/166/166 170/170/170
f 172/172/172 173/173/173 174/174/174
f 174/174/174 175/175/175 172/172/172
f 176/176/176 177/177/177 178/178/178
f 178/178/178 179/179/179 176/176/176
f 180/180/180 181/181/181 182/182/182
f 182/182/182 183/183/183 180/180/180
f 184/184/184 185/185/185 182/182/182
f 182/182/182 181/181/181 184/184/184
f 185/185/185 184/184/184 186/186/186
f 186/186/186 187/187/187 185/185/185
f 188/188/188 169/169/169 168/168/168
f 168/168/168 189/189/189 188/188/188
f 190/190/190 132/132/132 191/191/191
f 133/133/133 132/132/132 192/192/192
f 193/193/193 132/132/132 194/194/194
f 195/195/195 132/132/132 196/196/196
f 194/194/194 132/132/132 195/195/195
f 196/196/196 132/132/132 190/190/190
f 192/192/192 132/132/132 193/193/193
f 191/191/191 132/132/132 139/139/139
f 66/66/66 62/62/62 67/67/67
f 67/67/67 94/94/94 66/66/66
f 142/142/142 159/159/159 161/161/161
f 161/161/161 143/143/143 142/142/142
f 159/159/159 142/142/142 148/148/148
f 148/148/148 155/155/155 159/159/159
f 155/155/155 148/148/148 150/150/150
f 150/150/150 156/156/156 155/155/155
f 177/177/177 176/176/176 180/180/180
f 180/180/180 183/183/183 177/177/177
f 88/88/88 87/87/87 14/14/14
f 14/14/14 13/13/13 88/88/88
f 27/27/27 81/81/81 86/86/86
f 86/86/86 28/28/28 27/27/27
f 81/81/81 27/27/27 37/37/37
f 37/37/37 82/82/82 81/81/81
f 100/100/100 82/82/82 37/37/37
f 37/37/37 99/99/99 100/100/100
f 34/34/34 103/103/103 125/125/125
f 125/125/125 124/124/124 34/34/34
f 23/23/23 34/34/34 124/124/124
f 124/124/124 70/70/70 23/23/23
f 23/23/23 70/70/70 71/71/71
f 71/71/71 24/24/24 23/23/23
f 9/9/9 12/12/12 73/73/73
f 73/73/73 72/72/72 9/9/9
f 172/172/172 175/175/175 171/171/171
f 171/171/171 170/170/170 172/172/172
f 153/153/153 152/152/152 164/164/164
f 164/164/164 165/165/165 153/153/153
f 152/152/152 146/146/146 162/162/162
f 162/162/162 164/164/164 152/152/152
f 146/146/146 145/145/145 163/163/163
f 163/163/163 162/162/162 146/146/146
f 197/197/197 198/198/198 199/199/199
f 199/199/199 200/200/200 197/197/197
f 197/197/197 200/200/200 201/201/201
f 201/201/201 202/202/202 197/197/197
f 203/203/203 204/204/204 205/205/205
f 205/205/205 206/206/206 203/203/203
f 204/204/204 203/203/203 207/207/207
f 207/207/207 208/208/208 204/204/204
f 208/208/208 207/207/207 209/209/209
f 209/209/209 210/210/210 208/208/208
f 211/211/211 212/212/212 210/210/210
f 210/210/210 209/209/209 211/211/211
f 212/212/212 211/211/211 213/213/213
f 213/213/213 214/214/214 212/212/212
f 215/215/215 216/216/216 217/217/217
f 217/217/217 218/218/218 215/215/215
f 215/215/215 218/218/218 219/219/219
f 219/219/219 220/220/220 215/215/215
f 198/198/198 220/220/220 219/219/219
f 219/219/219 199/199/199 198/198/198
f 185/185/185 1/1/1 4/4/4
f 4/4/4 182/182/182 185/185/185
f 1/1/1 185/185/185 187/187/187
f 187/187/187 115/115/115 1/1/1
f 168/168/168 8/8/8 113/113/113
f 113/113/113 189/189/189 168/168/168
f 167/167/167 5/5/5 8/8/8
f 8/8/8 168/168/168 167/167/167
f 171/171/171 72/72/72 5/5/5
f 5/5/5 167/167/167 171/171/171
f 175/175/175 9/9/9 72/72/72
f 72/72/72 171/171/171 175/175/175
f 174/174/174 10/10/10 9/9/9
f 9/9/9 175/175/175 174/174/174
f 177/177/177 87/87/87 90/90/90
f 90/90/90 178/178/178 177/177/177
f 87/87/87 177/177/177 183/183/183
f 183/183/183 14/14/14 87/87/87
f 182/182/182 4/4/4 14/14/14
f 14/14/14 183/183/183 182/182/182
f 221/221/221 222/222/222 205/205/205
f 205/205/205 204/204/204 221/221/221
f 223/223/223 221/221/221 204/204/204
f 204/204/204 208/208/208 223/223/223
f 223/223/223 208/208/208 210/210/210
f 210/210/210 224/224/224 223/223/223
f 212/212/212 225/225/225 224/224/224
f 224/224/224 210/210/210 212/212/212
f 225/225/225 212/212/212 214/214/214
f 214/214/214 226/226/226 225/225/225
f 227/227/227 228/228/228 216/216/216
f 216/216/216 215/215/215 227/227/227
f 227/227/227 215/215/215 220/220/220
f 220/220/220 229/229/229 227/227/227
f 229/229/229 220/220/220 198/198/198
f 198/198/198 230/230/230 229/229/229
f 231/231/231 230/230/230 198/198/198
f 198/198/198 197/197/197 231/231/231
f 231/231/231 197/197/197 202/202/202
f 202/202/202 232/232/232 231/231/231
f 233/233/233 234/234/234 231/231/231
f 231/231/231 232/232/232 233/233/233
f 235/235/235 230/230/230 231/231/231
f 231/231/231 234/234/234 235/235/235
f 236/236/236 229/229/229 230/230/230
f 230/230/230 235/235/235 236/236/236
f 237/237/237 227/227/227 229/229/229
f 229/229/229 236/236/236 237/237/237
f 238/238/238 228/228/228 227/227/227
f 227/227/227 237/237/237 238/238/238
f 239/239/239 240/240/240 225/225/225
f 225/225/225 226/226/226 239/239/239
f 225/225/225 240/240/240 241/241/241
f 241/241/241 224/224/224 225/225/225
f 241/241/241 242/242/242 223/223/223
f 223/223/223 224/224/224 241/241/241
f 242/242/242 243/243/243 221/221/221
f 221/221/221 223/223/223 242/242/242
f 222/222/222 221/221/221 243/243/243
f 243/243/243 244/244/244 222/222/222
f 245/245/245 246/246/246 247/247/247
f 247/247/247 248/248/248 245/245/245
f 249/249/249 250/250/250 251/251/251
f 251/251/251 252/252/252 249/249/249
f 253/253/253 254/254/254 255/255/255
f 255/255/255 256/256/256 253/253/253
f 257/257/257 245/245/245 248/248/248
f 248/248/248 258/258/258 257/257/257
f 259/259/259 260/260/260 261/261/261
f 261/261/261 262/262/262 259/259/259
f 263/263/263 264/264/264 265/265/265
f 265/265/265 266/266/266 263/263/263
f 267/267/267 268/268/268 269/269/269
f 269/269/269 270/270/270 267/267/267
f 262/262/262 261/261/261 271/271/271
f 271/271/271 272/272/272 262/262/262
f 273/273/273 274/274/274 259/259/259
f 259/259/259 262/262/262 273/273/273
f 265/265/265 275/275/275 276/276/276
f 276/276/276 266/266/266 265/265/265
f 277/277/277 278/278/278 270/270/270
f 270/270/270 269/269/269 277/277/277
f 279/279/279 280/280/280 281/281/281
f 281/281/281 272/272/272 279/279/279
f 282/282/282 283/283/283 274/274/274
f 274/274/274 273/273/273 282/282/282
f 275/275/275 284/284/284 285/285/285
f 285/285/285 276/276/276 275/275/275
f 286/286/286 287/287/287 288/288/288
f 289/289/289 290/290/290 281/281/281
f 281/281/281 280/280/280 289/289/289
f 284/284/284 291/291/291 292/292/292
f 292/292/292 285/285/285 284/284/284
f 288/288/288 287/287/287 293/293/293
f 293/293/293 294/294/294 288/288/288
f 295/295/295 296/296/296 297/297/297
f 297/297/297 298/298/298 295/295/295
f 299/299/299 300/300/300 301/301/301
f 301/301/301 302/302/302 299/299/299
f 303/303/303 304/304/304 305/305/305
f 305/305/305 306/306/306 303/303/303
f 307/307/307 295/295/295 298/298/298
f 298/298/298 308/308/308 307/307/307
f 291/291/291 299/299/299 302/302/302
f 302/302/302 292/292/292 291/291/291
f 298/298/298 297/297/297 283/283/283
f 283/283/283 282/282/282 298/298/298
f 309/309/309 308/308/308 290/290/290
f 290/290/290 289/289/289 309/309/309
f 310/310/310 306/306/306 305/305/305
f 302/302/302 301/301/301 303/303/303
f 303/303/303 306/306/306 302/302/302
f 292/292/292 302/302/302 306/306/306
f 306/306/306 311/311/311 292/292/292
f 285/285/285 292/292/292 311/311/311
f 311/311/311 312/312/312 285/285/285
f 276/276/276 285/285/285 312/312/312
f 312/312/312 313/313/313 276/276/276
f 266/266/266 276/276/276 313/313/313
f 313/313/313 314/314/314 266/266/266
f 315/315/315 263/263/263 266/266/266
f 266/266/266 314/314/314 315/315/315
f 251/251/251 250/250/250 316/316/316
f 316/316/316 317/317/317 251/251/251
f 318/318/318 305/305/305 304/304/304
f 304/304/304 319/319/319 318/318/318
f 305/305/305 318/318/318 320/320/320
f 320/320/320 310/310/310 305/305/305
f 321/321/321 322/322/322 288/288/288
f 323/323/323 288/288/288 324/324/324
f 322/322/322 324/324/324 288/288/288
f 325/325/325 326/326/326 327/327/327
f 327/327/327 328/328/328 325/325/325
f 327/327/327 329/329/329 330/330/330
f 330/330/330 328/328/328 327/327/327
f 331/331/331 332/332/332 333/333/333
f 333/333/333 334/334/334 331/331/331
f 335/335/335 336/336/336 337/337/337
f 337/337/337 338/338/338 335/335/335
f 339/339/339 337/337/337 336/336/336
f 336/336/336 310/310/310 339/339/339
f 340/340/340 309/309/309 289/289/289
f 289/289/289 341/341/341 340/340/340
f 280/280/280 342/342/342 341/341/341
f 341/341/341 289/289/289 280/280/280
f 279/279/279 343/343/343 342/342/342
f 342/342/342 280/280/280 279/279/279
f 344/344/344 345/345/345 326/326/326
f 326/326/326 325/325/325 344/344/344
f 346/346/346 347/347/347 278/278/278
f 278/278/278 277/277/277 346/346/346
f 348/348/348 335/335/335 338/338/338
f 338/338/338 349/349/349 348/348/348
f 350/350/350 351/351/351 300/300/300
f 300/300/300 299/299/299 350/350/350
f 352/352/352 350/350/350 299/299/299
f 299/299/299 291/291/291 352/352/352
f 353/353/353 352/352/352 291/291/291
f 291/291/291 284/284/284 353/353/353
f 354/354/354 353/353/353 284/284/284
f 284/284/284 275/275/275 354/354/354
f 355/355/355 354/354/354 275/275/275
f 275/275/275 265/265/265 355/355/355
f 356/356/356 355/355/355 265/265/265
f 265/265/265 264/264/264 356/356/356
f 357/357/357 358/358/358 249/249/249
f 249/249/249 252/252/252 357/357/357
f 359/359/359 360/360/360 247/247/247
f 247/247/247 246/246/246 359/359/359
f 259/259/259 361/361/361 362/362/362
f 362/362/362 260/260/260 259/259/259
f 363/363/363 361/361/361 259/259/259
f 259/259/259 274/274/274 363/363/363
f 364/364/364 363/363/363 274/274/274
f 274/274/274 283/283/283 364/364/364
f 365/365/365 364/364/364 283/283/283
f 283/283/283 297/297/297 365/365/365
f 366/366/366 365/365/365 297/297/297
f 297/297/297 296/296/296 366/366/366
f 339/339/339 310/310/310 320/320/320
f 320/320/320 367/367/367 339/339/339
f 288/288/288 294/294/294 321/321/321
f 368/368/368 348/348/348 349/349/349
f 349/349/349 369/369/369 368/368/368
f 370/370/370 371/371/371 288/288/288
f 286/286/286 288/288/288 372/372/372
f 371/371/371 372/372/372 288/288/288
f 373/373/373 370/370/370 288/288/288
f 288/288/288 323/323/323 373/373/373
f 313/313/313 348/348/348 368/368/368
f 368/368/368 314/314/314 313/313/313
f 312/312/312 335/335/335 348/348/348
f 348/348/348 313/313/313 312/312/312
f 336/336/336 335/335/335 312/312/312
f 312/312/312 311/311/311 336/336/336
f 281/281/281 273/273/273 262/262/262
f 262/262/262 272/272/272 281/281/281
f 290/290/290 282/282/282 273/273/273
f 273/273/273 281/281/281 290/290/290
f 308/308/308 298/298/298 282/282/282
f 282/282/282 290/290/290 308/308/308
f 374/374/374 375/375/375 376/376/376
f 376/376/376 377/377/377 374/374/374
f 378/378/378 379/379/379 380/380/380
f 380/380/380 381/381/381 378/378/378
f 382/382/382 383/383/383 384/384/384
f 385/385/385 386/386/386 387/387/387
f 385/385/385 387/387/387 380/380/380
f 380/380/380 379/379/379 385/385/385
f 376/376/376 382/382/382 384/384/384
f 384/384/384 377/377/377 376/376/376
f 388/388/388 389/389/389 390/390/390
f 390/390/390 391/391/391 388/388/388
f 392/392/392 388/388/388 391/391/391
f 391/391/391 393/393/393 392/392/392
f 394/394/394 392/392/392 393/393/393
f 393/393/393 395/395/395 394/394/394
f 396/396/396 392/392/392 394/394/394
f 394/394/394 397/397/397 396/396/396
f 398/398/398 388/388/388 392/392/392
f 392/392/392 396/396/396 398/398/398
f 399/399/399 389/389/389 388/388/388
f 388/388/388 398/398/398 399/399/399
f 400/400/400 401/401/401 402/402/402
f 402/402/402 403/403/403 400/400/400
f 401/401/401 404/404/404 405/405/405
f 405/405/405 402/402/402 401/401/401
f 406/406/406 407/407/407 408/408/408
f 408/408/408 409/409/409 406/406/406
f 410/410/410 411/411/411 412/412/412
f 412/412/412 413/413/413 410/410/410
f 414/414/414 415/415/415 416/416/416
f 416/416/416 417/417/417 414/414/414
f 416/416/416 418/418/418 419/419/419
f 419/419/419 417/417/417 416/416/416
f 420/420/420 419/419/419 418/418/418
f 418/418/418 421/421/421 420/420/420
f 422/422/422 423/423/423 400/400/400
f 400/400/400 403/403/403 422/422/422
f 310/310/310 336/336/336 311/311/311
f 311/311/311 306/306/306 310/310/310
f 395/395/395 393/393/393 376/376/376
f 376/376/376 375/375/375 395/395/395
f 382/382/382 376/376/376 393/393/393
f 393/393/393 391/391/391 382/382/382
f 383/383/383 382/382/382 391/391/391
f 391/391/391 390/390/390 383/383/383
f 411/411/411 415/415/415 414/414/414
f 414/414/414 412/412/412 411/411/411
f 332/332/332 257/257/257 258/258/258
f 258/258/258 333/333/333 332/332/332
f 272/272/272 271/271/271 329/329/329
f 329/329/329 327/327/327 272/272/272
f 279/279/279 272/272/272 327/327/327
f 327/327/327 326/326/326 279/279/279
f 345/345/345 343/343/343 279/279/279
f 279/279/279 326/326/326 345/345/345
f 369/369/369 346/346/346 277/277/277
f 277/277/277 368/368/368 369/369/369
f 368/368/368 277/277/277 269/269/269
f 269/269/269 314/314/314 368/368/368
f 315/315/315 314/314/314 269/269/269
f 269/269/269 268/268/268 315/315/315
f 316/316/316 254/254/254 253/253/253
f 253/253/253 317/317/317 316/316/316
f 404/404/404 407/407/407 406/406/406
f 406/406/406 405/405/405 404/404/404
f 386/386/386 399/399/399 398/398/398
f 398/398/398 387/387/387 386/386/386
f 387/387/387 398/398/398 396/396/396
f 396/396/396 380/380/380 387/387/387
f 380/380/380 396/396/396 397/397/397
f 397/397/397 381/381/381 380/380/380
f 424/424/424 425/425/425 426/426/426
f 426/426/426 427/427/427 424/424/424
f 428/428/428 425/425/425 424/424/424
f 424/424/424 429/429/429 428/428/428
f 430/430/430 431/431/431 432/432/432
f 432/432/432 433/433/433 430/430/430
f 434/434/434 430/430/430 433/433/433
f 433/433/433 435/435/435 434/434/434
f 436/436/436 434/434/434 435/435/435
f 435/435/435 437/437/437 436/436/436
f 438/438/438 436/436/436 437/437/437
f 437/437/437 439/439/439 438/438/438
f 440/440/440 438/438/438 439/439/439
f 439/439/439 441/441/441 440/440/440
f 442/442/442 443/443/443 444/444/444
f 444/444/444 445/445/445 442/442/442
f 446/446/446 443/443/443 442/442/442
f 442/442/442 447/447/447 446/446/446
f 427/427/427 426/426/426 446/446/446
f 446/446/446 447/447/447 427/427/427
f 248/248/248 247/247/247 418/418/418
f 418/418/418 416/416/416 248/248/248
f 421/421/421 418/418/418 247/247/247
f 247/247/247 360/360/360 421/421/421
f 357/357/357 252/252/252 400/400/400
f 400/400/400 423/423/423 357/357/357
f 252/252/252 251/251/251 401/401/401
f 401/401/401 400/400/400 252/252/252
f 251/251/251 317/317/317 404/404/404
f 404/404/404 401/401/401 251/251/251
f 317/317/317 253/253/253 407/407/407
f 407/407/407 404/404/404 317/317/317
f 253/253/253 256/256/256 408/408/408
f 408/408/408 407/407/407 253/253/253
f 334/334/334 333/333/333 411/411/411
f 411/411/411 410/410/410 334/334/334
f 415/415/415 411/411/411 333/333/333
f 333/333/333 258/258/258 415/415/415
f 258/258/258 248/248/248 416/416/416
f 416/416/416 415/415/415 258/258/258
f 432/432/432 448/448/448 449/449/449
f 449/449/449 433/433/433 432/432/432
f 450/450/450 435/435/435 433/433/433
f 433/433/433 449/449/449 450/450/450
f 437/437/437 435/435/435 450/450/450
f 450/450/450 451/451/451 437/437/437
f 439/439/439 437/437/437 451/451/451
f 451/451/451 452/452/452 439/439/439
f 441/441/441 439/439/439 452/452/452
f 452/452/452 453/453/453 441/441/441
f 454/454/454 442/442/442 445/445/445
f 445/445/445 455/455/455 454/454/454
f 447/447/447 442/442/442 454/454/454
f 454/454/454 456/456/456 447/447/447
f 427/427/427 447/447/447 456/456/456
f 456/456/456 457/457/457 427/427/427
f 458/458/458 424/424/424 427/427/427
f 427/427/427 457/457/457 458/458/458
f 429/429/429 424/424/424 458/458/458
f 458/458/458 459/459/459 429/429/429
f 460/460/460 459/459/459 458/458/458
f 458/458/458 461/461/461 460/460/460
f 458/458/458 457/457/457 462/462/462
f 462/462/462 461/461/461 458/458/458
f 457/457/457 456/456/456 463/463/463
f 463/463/463 462/462/462 457/457/457
f 456/456/456 454/454/454 464/464/464
f 464/464/464 463/463/463 456/456/456
f 454/454/454 455/455/455 465/465/465
f 465/465/465 464/464/464 454/454/454
f 466/466/466 453/453/453 452/452/452
f 452/452/452 467/467/467 466/466/466
f 468/468/468 467/467/467 452/452/452
f 452/452/452 451/451/451 468/468/468
f 468/468/468 451/451/451 450/450/450
f 450/450/450 469/469/469 468/468/468
f 469/469/469 450/450/450 449/449/449
f 449/449/449 470/470/470 469/469/469
f 448/448/448 471/471/471 470/470/470
f 470/470/470 449/449/449 448/448/448