mtllib 63638621.mtl
o Mesh

v 0.07591500133275986 1.1971700191497803 -0.04189100116491318
v 0.07591500133275986 1.1971700191497803 0.2058580070734024
v 0.1954209953546524 0.9788100123405457 0.1552799940109253
v 0.23165300488471985 1.0032199621200562 -0.10689699649810791
v 0.12121500074863434 -0.15849900245666504 0.6566789746284485
v 0.22049899399280548 -0.24318397045135498 0.5840539932250977
v 0.22899700701236725 -0.16594398021697998 0.48746201395988464
v 0.10434699803590775 -0.07974803447723389 0.5665330290794373
v 0.23256699740886688 -0.3374279737472534 0.43401798605918884
v 0.24205300211906433 -0.2598170042037964 0.38490599393844604
v -0.27024000883102417 -0.16594398021697998 0.48746201395988464
v -0.28716298937797546 -0.2598170042037964 0.38490599393844604
v -0.27834299206733704 -0.3374279737472534 0.43401798605918884
v -0.2629309892654419 -0.24318397045135498 0.5840539932250977
v 0.068401999771595 1.1971700191497803 -0.19898200035095215
v 0.1954209953546524 1.0190099477767944 -0.27644801139831543
v 0.08301600068807602 1.0257799625396729 -0.40289101004600525
v 0.08304399996995926 0.9718199968338013 0.26418301463127136
v 0.10527600347995758 0.22938001155853271 -0.34101399779319763
v 0.11184299737215042 0.5111299753189087 -0.5107690095901489
v 0.2159850001335144 0.5452699661254883 -0.3777810037136078
v 0.1731940060853958 0.28317999839782715 -0.22404800355434418
v -0.2825630009174347 0.6140999794006348 -0.05258199945092201
v -0.2993060052394867 0.5762400031089783 -0.2336129993200302
v -0.2183389961719513 0.3652300238609314 -0.11035600304603577
v -0.2114650011062622 0.45181000232696533 0.007286000065505505
v 0.2159850001335144 0.6140999794006348 -0.05258199945092201
v 0.1118519976735115 0.651960015296936 0.08625400066375732
v 0.09118399769067764 0.5387799739837646 0.11786100268363953
v 0.1731940060853958 0.45181000232696533 0.007286000065505505
v 0.18939200043678284 0.3652300238609314 -0.11035600304603577
v 0.2519020140171051 0.5762400031089783 -0.2336129993200302
v 0.20258499681949615 -1.0000019073486328 -0.06180400028824806
v 0.3197590112686157 -1.0000019073486328 -0.020702000707387924
v 0.2651900053024292 -1.0000979900360107 0.18485599756240845
v 0.10542800277471542 -1.0000979900360107 0.1849679946899414
v 0.3197590112686157 -1.0000019073486328 -0.020702000707387924
v 0.3103339970111847 -0.7964359521865845 -0.19045600295066833
v 0.26093900203704834 -0.7654939889907837 -0.03376799821853638
v 0.2651900053024292 -1.0000979900360107 0.18485599756240845
v 0.193340003490448 -0.706758975982666 -0.2993519902229309
v 0.15832500159740448 -0.6436179876327515 -0.11009000241756439
v -0.3109250068664551 -0.7410809993743896 -0.003734000027179718
v -0.3956240117549896 -0.8012020587921143 -0.19045600295066833
v -0.3699660003185272 -1.0000019073486328 -0.020702000707387924
v -0.3000069856643677 -1.0000979900360107 0.1391800045967102
v -0.2825630009174347 0.5452699661254883 -0.3777810037136078
v -0.18950699269771576 0.5120500326156616 -0.5107849836349487
v -0.1469630002975464 0.2392899990081787 -0.34320101141929626
v -0.2114650011062622 0.28317999839782715 -0.22404800355434418
v -0.2447579950094223 -0.706758975982666 -0.2993519902229309
v -0.15609100461006165 -0.6155149936676025 -0.12372899800539017
v -0.3000069856643677 -1.0000979900360107 0.1391800045967102
v -0.3699660003185272 -1.0000019073486328 -0.020702000707387924
v -0.2542850077152252 -1.0000019073486328 -0.06180400028824806
v -0.17581400275230408 -1.0000979900360107 0.13929100334644318
v -0.16805699467658997 -0.15849900245666504 0.6566789746284485
v -0.15078100562095642 -0.07974803447723389 0.5665330290794373
v -0.18949800729751587 0.6477900147438049 0.08595500141382217
v -0.13287000358104706 0.5387799739837646 0.11786100268363953
v -0.32958701252937317 0.9788100123405457 0.1552799940109253
v -0.22181099653244019 0.9587100148200989 0.26201900839805603
v -0.22908300161361694 1.1971700191497803 0.2058580070734024
v -0.22908300161361694 1.1971700191497803 -0.04189100116491318
v -0.35349300503730774 1.0032199621200562 -0.10689699649810791
v -0.32958701252937317 1.0190099477767944 -0.27644801139831543
v -0.22068600356578827 1.1971700191497803 -0.19898200035095215
v -0.2218399941921234 1.0287100076675415 -0.40267300605773926
v 0.011443999595940113 0.506350040435791 -0.535556972026825
v 0.04431099817156792 0.15654999017715454 -0.373649001121521
v 0.05279599875211716 -0.6993499994277954 -0.3271700143814087
v 0.02864599972963333 -0.6091749668121338 -0.1504260003566742
v 0.05601700022816658 -1.0000019073486328 -0.07725200057029724
v 0.035464998334646225 -1.0000979900360107 0.1849679946899414
v 0.09504400193691254 -0.20339703559875488 0.6500719785690308
v 0.028415000066161156 -0.1417529582977295 0.6767410039901733
v 0.02817700058221817 -0.18780100345611572 0.6763309836387634
v 0.02250099927186966 -0.05520200729370117 0.5840380191802979
v 0.011452999897301197 0.6538599729537964 0.10654500126838684
v 0.019305000081658363 0.575980007648468 0.12961600720882416
v -0.021929999813437462 1.1971700191497803 0.2058580070734024
v -0.014755000360310078 0.9642999768257141 0.2990629971027374
v -0.021929999813437462 1.1971700191497803 -0.05977899953722954
v -0.02433899976313114 1.1971700191497803 -0.23203499615192413
v -0.014783999882638454 1.0297900438308716 -0.4357300102710724
v 0.10829400271177292 0.17312997579574585 -0.13579300045967102
v 0.12242499738931656 0.1788100004196167 -0.18111200630664825
v 0.25773200392723083 0.21740001440048218 -0.09291499853134155
v 0.2525860071182251 0.19192999601364136 -0.02834700047969818
v 0.25773200392723083 0.3427799940109253 0.2296610027551651
v 0.2525860071182251 0.253030002117157 0.2739889919757843
v 0.27263200283050537 0.20882999897003174 0.11027500033378601
v 0.2788049876689911 0.27508997917175293 0.056800998747348785
v 0.1587039977312088 0.4028499722480774 0.3831369876861572
v 0.16046500205993652 0.29649001359939575 0.41744300723075867
v 0.052636001259088516 0.4301699995994568 0.4366990029811859
v 0.0561630018055439 0.31682997941970825 0.4845750033855438
v -0.27347901463508606 0.253030002117157 0.2739889919757843
v -0.18603000044822693 0.29649001359939575 0.41744300723075867
v -0.18940499424934387 0.4028499722480774 0.3831369876861572
v -0.283625990152359 0.3427799940109253 0.2296610027551651
v -0.2935439944267273 0.27508997917175293 0.056800998747348785
v -0.2831780016422272 0.20882999897003174 0.11027500033378601
v -0.283625990152359 0.21740001440048218 -0.09291499853134155
v -0.15312600135803223 0.18528002500534058 -0.18059800565242767
v -0.13385899364948273 0.17312997579574585 -0.13579300045967102
v -0.27347901463508606 0.19192999601364136 -0.02834700047969818
v 0.04212599992752075 0.12599998712539673 -0.19496099650859833
v 0.05684399977326393 0.13502997159957886 -0.22999800741672516
v -0.06066500023007393 -0.6091749668121338 -0.2060209959745407
v -0.09105599671602249 -0.6993499994277954 -0.3271700143814087
v -0.0939989984035492 -1.0000019073486328 -0.07725200057029724
v -0.0666780024766922 -1.0000979900360107 0.15967200696468353
v -0.2629309892654419 -0.24318397045135498 0.5840539932250977
v -0.1656080037355423 -0.2804659605026245 0.5963580012321472
v -0.146589994430542 -0.2006009817123413 0.6491219997406006
v -0.0665690004825592 -0.1417529582977295 0.6767410039901733
v -0.06127199903130531 -0.05520200729370117 0.5840380191802979
v -0.0725260004401207 0.31682997941970825 0.4845750033855438
v -0.07386799901723862 0.4301699995994568 0.4366990029811859
v -0.08991999924182892 0.6524900197982788 0.1064469963312149
v -0.054262999445199966 0.575980007648468 0.12961600720882416
v -0.11485700309276581 0.9599999785423279 0.298352986574173
v -0.12207700312137604 1.1971700191497803 0.2058580070734024
v -0.12207700312137604 1.1971700191497803 -0.05977899953722954
v -0.11926300078630447 1.1971700191497803 -0.23203499615192413
v -0.11488500237464905 1.0307400226593018 -0.4356589913368225
v -0.08992800116539001 0.5066499710083008 -0.5355619788169861
v -0.08220099657773972 0.15654999017715454 -0.373649001121521
v -0.07743900269269943 0.1360899806022644 -0.23402099311351776
v -0.05848800018429756 0.12808001041412354 -0.20292699337005615
v -0.06636600196361542 -0.18780100345611572 0.6763309836387634
v 0.0940999984741211 0.861519992351532 -0.47183701395988464
v 0.2036370038986206 0.8577799797058105 -0.3425289988517761
v -0.009867999702692032 0.8639400005340576 -0.5025209784507751
v -0.11501400172710419 0.8647199869155884 -0.5025010108947754
v -0.21937699615955353 0.8638799786567688 -0.47177600860595703
v -0.32437101006507874 0.8577799797058105 -0.3425289988517761
v -0.34810400009155273 0.8484100103378296 -0.17763499915599823
v -0.32437101006507874 0.8374099731445312 0.05889999866485596
v -0.21935400366783142 0.821869969367981 0.17555400729179382
v -0.11499100178480148 0.8240100145339966 0.20733100175857544
v -0.009844999760389328 0.8275099992752075 0.20773400366306305
v 0.09412100166082382 0.8325099945068359 0.1767829954624176
v 0.2036370038986206 0.8374099731445312 0.05889999866485596
v 0.23960700631141663 0.8484100103378296 -0.17763499915599823
v 0.16532500088214874 -0.11556601524353027 0.42829400300979614
v 0.07875200361013412 -0.043586015701293945 0.5024409890174866
v 0.011819000355899334 -0.02761399745941162 0.5242660045623779
v -0.05204499885439873 -0.02761399745941162 0.5242660045623779
v -0.12524500489234924 -0.043586015701293945 0.5024409890174866
v -0.2080029994249344 -0.11556601524353027 0.42829400300979614
v -0.22123999893665314 -0.177077054977417 0.34304699301719666
v -0.24029499292373657 -0.610988974571228 0.17513099312782288
v -0.12300000339746475 -0.4991799592971802 0.05249499902129173
v -0.05311499908566475 -0.4966379404067993 -0.027084000408649445
v 0.012625000439584255 -0.4920380115509033 0.026504000648856163
v 0.1053680032491684 -0.522042989730835 0.06510499864816666
v 0.17009900510311127 -0.2633850574493408 0.2714729905128479
v 0.17667999863624573 -0.177077054977417 0.34304699301719666
v 0.24205300211906433 -0.2598170042037964 0.38490599393844604
v 0.20229800045490265 -0.4498549699783325 0.258774995803833
v 0.17667999863624573 -0.177077054977417 0.34304699301719666
v 0.23256699740886688 -0.3374279737472534 0.43401798605918884
v 0.19853800535202026 -0.5076570510864258 0.3187220096588135
v 0.11593399941921234 -0.38485705852508545 0.4484800100326538
v 0.09165000170469284 -0.507519006729126 0.34653300046920776
v 0.19853800535202026 -0.5076570510864258 0.3187220096588135
v 0.23256699740886688 -0.3374279737472534 0.43401798605918884
v 0.026535000652074814 -0.3986020088195801 0.45273900032043457
v 0.02113099955022335 -0.5070350170135498 0.3559570014476776
v -0.05769199877977371 -0.5046960115432739 0.32569798827171326
v -0.064969003200531 -0.36092495918273926 0.44132500886917114
v -0.14191000163555145 -0.5030039548873901 0.31167399883270264
v -0.16273699700832367 -0.34718000888824463 0.4370670020580292
v -0.2402389943599701 -0.5015230178833008 0.30654698610305786
v -0.27834299206733704 -0.3374279737472534 0.43401798605918884
v -0.24271999299526215 -0.4588639736175537 0.24482600390911102
v -0.2402389943599701 -0.5015230178833008 0.30654698610305786
v -0.27834299206733704 -0.3374279737472534 0.43401798605918884
v -0.28716298937797546 -0.2598170042037964 0.38490599393844604
v -0.2935439944267273 0.27508997917175293 0.056800998747348785
v -0.2831780016422272 0.20882999897003174 0.11027500033378601
v -0.2993060052394867 0.5762400031089783 -0.2336129993200302
v -0.2183389961719513 0.3652300238609314 -0.11035600304603577
v -0.34810400009155273 0.8484100103378296 -0.17763499915599823
v 0.2519020140171051 0.5762400031089783 -0.2336129993200302
v 0.18939200043678284 0.3652300238609314 -0.11035600304603577
v 0.2788049876689911 0.27508997917175293 0.056800998747348785
v 0.27263200283050537 0.20882999897003174 0.11027500033378601
v -0.049910999834537506 0.04505002498626709 -0.0246140006929636
v -0.11263500154018402 0.05820000171661377 0.03227800130844116
v -0.1771090030670166 0.076229989528656 0.11699099838733673
v -0.18140700459480286 0.09874999523162842 0.19237099587917328
v -0.18140700459480286 0.09874999523162842 0.19237099587917328
v -0.17426499724388123 0.1256999969482422 0.29133298993110657
v -0.11969400197267532 0.1500599980354309 0.3786559998989105
v -0.051816001534461975 0.16141998767852783 0.41614601016044617
v 0.01322800014168024 0.16141998767852783 0.41614601016044617
v 0.07558500021696091 0.1500599980354309 0.3786559998989105
v 0.13295899331569672 0.1256999969482422 0.29133298993110657
v 0.14468500018119812 0.09874999523162842 0.19237099587917328
v 0.14468500018119812 0.09874999523162842 0.19237099587917328
v 0.1358029991388321 0.076229989528656 0.11699099838733673
v 0.0685259997844696 0.05820000171661377 0.03227800130844116
v 0.009561999700963497 0.057730019092559814 0.017255999147892
v 0.39207300543785095 -1.0000019073486328 -0.4019629955291748
v 0.3800620138645172 -0.8694519996643066 -0.40325799584388733
v 0.3227179944515228 -1.0000019073486328 -0.45844000577926636
v 0.39207300543785095 -1.0000019073486328 -0.4019629955291748
v 0.2038940042257309 -1.0000019073486328 -0.49074500799179077
v -0.003369000041857362 -1.0000019073486328 -0.5440629720687866
v 0.0850680023431778 -1.0000019073486328 -0.5230510234832764
v -0.21507899463176727 -1.0000019073486328 -0.5476149916648865
v -0.09277299791574478 -1.0000019073486328 -0.565280020236969
v -0.4478429853916168 -1.0000019073486328 -0.4189850091934204
v -0.33738601207733154 -1.0000019073486328 -0.5299500226974487
v -0.44827499985694885 -0.869223952293396 -0.41825100779533386
v -0.4478429853916168 -1.0000019073486328 -0.4189850091934204
v -0.33643800020217896 -0.8043440580368042 -0.5299500226974487
v -0.21460600197315216 -0.8687069416046143 -0.5476149916648865
v -0.0038530000019818544 -0.8687069416046143 -0.5441650152206421
v 0.19527800381183624 -0.8687069416046143 -0.49074500799179077
v -0.06971800327301025 0.5270900130271912 0.34665000438690186
v 0.044057998806238174 0.5270900130271912 0.34665000438690186
v -0.17774100601673126 0.4926300048828125 0.3069320023059845
v -0.2710520029067993 0.4170899987220764 0.1584099978208542
v -0.2803710103034973 0.323170006275177 -0.010598000138998032
v -0.2710520029067993 0.2433900237083435 -0.15879499912261963
v -0.2803710103034973 0.323170006275177 -0.010598000138998032
v -0.16068899631500244 0.19769001007080078 -0.2263139933347702
v -0.09096100181341171 0.14424997568130493 -0.2657470107078552
v 0.06653200089931488 0.14424997568130493 -0.2657470107078552
v 0.1260710060596466 0.1846100091934204 -0.22735099494457245
v 0.24098199605941772 0.2433900237083435 -0.15879499912261963
v 0.261353999376297 0.323170006275177 -0.010598000138998032
v 0.24098199605941772 0.4170899987220764 0.1584099978208542
v 0.261353999376297 0.323170006275177 -0.010598000138998032
v 0.14312399923801422 0.4926300048828125 0.3069320023059845
v -0.32958701252937317 1.0190099477767944 -0.27644801139831543
v -0.35349300503730774 1.0032199621200562 -0.10689699649810791
v -0.2218399941921234 1.0287100076675415 -0.40267300605773926
v -0.11488500237464905 1.0307400226593018 -0.4356589913368225
v -0.014783999882638454 1.0297900438308716 -0.4357300102710724
v 0.08301600068807602 1.0257799625396729 -0.40289101004600525
v 0.1954209953546524 1.0190099477767944 -0.27644801139831543
v 0.23960700631141663 0.8484100103378296 -0.17763499915599823
v 0.23165300488471985 1.0032199621200562 -0.10689699649810791
v 0.23165300488471985 1.0032199621200562 -0.10689699649810791
v 0.1954209953546524 0.9788100123405457 0.1552799940109253
v 0.08304399996995926 0.9718199968338013 0.26418301463127136
v -0.014755000360310078 0.9642999768257141 0.2990629971027374
v -0.11485700309276581 0.9599999785423279 0.298352986574173
v -0.22181099653244019 0.9587100148200989 0.26201900839805603
v -0.32958701252937317 0.9788100123405457 0.1552799940109253
v -0.35349300503730774 1.0032199621200562 -0.10689699649810791
v 0.11878400295972824 -0.2804659605026245 0.5963580012321472
v 0.22049899399280548 -0.24318397045135498 0.5840539932250977
v 0.02740499936044216 -0.29454803466796875 0.59968501329422
v -0.06570900231599808 -0.29454803466796875 0.59968501329422
v -0.09277299791574478 -0.8043440580368042 -0.565280020236969
v 0.0850680023431778 -0.8043440580368042 -0.5230510234832764
v 0.3054870069026947 -0.8043440580368042 -0.45844000577926636
v -0.33643800020217896 -0.8043440580368042 -0.5299500226974487
v -0.33456799387931824 -0.7735569477081299 -0.6816759705543518
v -0.4045430123806 -0.83045494556427 -0.6690899729728699
v -0.44827499985694885 -0.869223952293396 -0.41825100779533386
v -0.4042719900608063 -0.9570280313491821 -0.6638789772987366
v -0.4478429853916168 -1.0000019073486328 -0.4189850091934204
v -0.4042719900608063 -0.9570280313491821 -0.6638789772987366
v -0.3351599872112274 -0.9570280313491821 -0.6760920286178589
v -0.33738601207733154 -1.0000019073486328 -0.5299500226974487
v -0.4478429853916168 -1.0000019073486328 -0.4189850091934204
v -0.2586340010166168 -0.9570280313491821 -0.677154004573822
v -0.25833800435066223 -0.8297480344772339 -0.6827369928359985
v -0.21460600197315216 -0.8687069416046143 -0.5476149916648865
v -0.21507899463176727 -1.0000019073486328 -0.5476149916648865
v -0.2586340010166168 -0.9570280313491821 -0.677154004573822
v -0.21507899463176727 -1.0000019073486328 -0.5476149916648865
v -0.3329310119152069 -0.9999979734420776 -0.8070819973945618
v -0.3329310119152069 -0.9999979734420776 -0.8070819973945618
v -0.09277299791574478 -0.8043440580368042 -0.565280020236969
v -0.10278700292110443 -0.7862869501113892 -0.63223797082901
v -0.17416700720787048 -0.8431860208511353 -0.6256930232048035
v -0.21460600197315216 -0.8687069416046143 -0.5476149916648865
v -0.17278599739074707 -0.9570280313491821 -0.6204109787940979
v -0.21507899463176727 -1.0000019073486328 -0.5476149916648865
v -0.17278599739074707 -0.9570280313491821 -0.6204109787940979
v -0.10231900215148926 -0.9570280313491821 -0.6266589760780334
v -0.09277299791574478 -1.0000019073486328 -0.565280020236969
v -0.21507899463176727 -1.0000019073486328 -0.5476149916648865
v -0.02611600048840046 -0.9570280313491821 -0.6211940050125122
v -0.026878999546170235 -0.8424780368804932 -0.6267979741096497
v -0.0038530000019818544 -0.8687069416046143 -0.5441650152206421
v -0.003369000041857362 -1.0000019073486328 -0.5440629720687866
v -0.02611600048840046 -0.9570280313491821 -0.6211940050125122
v -0.003369000041857362 -1.0000019073486328 -0.5440629720687866
v -0.10690800100564957 -0.9999979734420776 -0.7524759769439697
v -0.10690800100564957 -0.9999979734420776 -0.7524759769439697
v 0.0850680023431778 -0.8043440580368042 -0.5230510234832764
v 0.12491399794816971 -0.7862869501113892 -0.6052179932594299
v 0.05382699891924858 -0.8431860208511353 -0.6134179830551147
v -0.0038530000019818544 -0.8687069416046143 -0.5441650152206421
v 0.05778399854898453 -0.9570280313491821 -0.6075839996337891
v -0.003369000041857362 -1.0000019073486328 -0.5440629720687866
v 0.05778399854898453 -0.9570280313491821 -0.6075839996337891
v 0.12788599729537964 -0.9570280313491821 -0.5992839932441711
v 0.0850680023431778 -1.0000019073486328 -0.5230510234832764
v -0.003369000041857362 -1.0000019073486328 -0.5440629720687866
v 0.19942699372768402 -0.9570280313491821 -0.5785279870033264
v 0.19617900252342224 -0.8424780368804932 -0.5845460295677185
v 0.19527800381183624 -0.8687069416046143 -0.49074500799179077
v 0.2038940042257309 -1.0000019073486328 -0.49074500799179077
v 0.19942699372768402 -0.9570280313491821 -0.5785279870033264
v 0.2038940042257309 -1.0000019073486328 -0.49074500799179077
v 0.17353099584579468 -0.9999979734420776 -0.7197120189666748
v 0.17353099584579468 -0.9999979734420776 -0.7197120189666748
v 0.3054870069026947 -0.8043440580368042 -0.45844000577926636
v 0.3449310064315796 -0.7862869501113892 -0.5328360199928284
v 0.28119200468063354 -0.8431860208511353 -0.5489940047264099
v 0.19527800381183624 -0.8687069416046143 -0.49074500799179077
v 0.2866300046443939 -0.9570280313491821 -0.5425410270690918
v 0.2038940042257309 -1.0000019073486328 -0.49074500799179077
v 0.2866300046443939 -0.9570280313491821 -0.5425410270690918
v 0.3494330048561096 -0.9570280313491821 -0.5263980031013489
v 0.3227179944515228 -1.0000019073486328 -0.45844000577926636
v 0.2038940042257309 -1.0000019073486328 -0.49074500799179077
v 0.4103969931602478 -0.9570280313491821 -0.49792999029159546
v 0.4056609869003296 -0.8424780368804932 -0.5044829845428467
v 0.3800620138645172 -0.8694519996643066 -0.40325799584388733
v 0.39207300543785095 -1.0000019073486328 -0.4019629955291748
v 0.4103969931602478 -0.9570280313491821 -0.49792999029159546
v 0.39207300543785095 -1.0000019073486328 -0.4019629955291748
v 0.39965298771858215 -0.9999979734420776 -0.626954972743988
v 0.39965298771858215 -0.9999979734420776 -0.626954972743988
v -0.04830300062894821 -0.029062986373901367 0.06314300000667572
v -0.10061900317668915 -0.029842019081115723 0.12617699801921844
v -0.1576790064573288 -0.07425796985626221 0.21587300300598145
v -0.158720001578331 -0.05620396137237549 0.2784219980239868
v -0.158720001578331 -0.05620396137237549 0.2784219980239868
v -0.14999599754810333 -0.0315699577331543 0.35268500447273254
v -0.10232800245285034 0.010339975357055664 0.4163669943809509
v -0.044436998665332794 0.01892000436782837 0.44467800855636597
v 0.0036200000904500484 0.01892000436782837 0.44467800855636597
v 0.05662500113248825 0.010339975357055664 0.4163669943809509
v 0.1067729964852333 -0.0315699577331543 0.35268500447273254
v 0.11660800129175186 -0.05620396137237549 0.2784219980239868
v 0.11660800129175186 -0.05620396137237549 0.2784219980239868
v 0.11445699632167816 -0.07425796985626221 0.21587300300598145
v 0.05491600185632706 -0.029842019081115723 0.12617699801921844
v 0.002732000080868602 -0.015898942947387695 0.10659900307655334
v 0.09443899989128113 -0.19714105129241943 0.17484800517559052
v 0.010809999890625477 -0.17705094814300537 0.1401209980249405
v -0.05432000011205673 -0.1919269561767578 0.09101500362157822
v -0.12246599793434143 -0.18598294258117676 0.1645359992980957
v -0.21280600130558014 -0.25497305393218994 0.2718150019645691
v -0.22123999893665314 -0.177077054977417 0.34304699301719666
v 0.09199400246143341 -0.37874603271484375 0.1309950053691864
v 0.19936899840831757 -0.6040430068969727 0.16669400036334991
v 0.19945499300956726 -0.6907470226287842 0.24020500481128693
v 0.10542800277471542 -1.0000979900360107 0.1849679946899414
v 0.2651900053024292 -1.0000979900360107 0.18485599756240845
v 0.19945499300956726 -0.6907470226287842 0.24020500481128693
v 0.08275199681520462 -0.6906789541244507 0.25391799211502075
v 0.035464998334646225 -1.0000979900360107 0.1849679946899414
v 0.020803000777959824 -0.6904410123825073 0.25854501128196716
v -0.05860399827361107 -0.6892930269241333 0.23081299662590027
v -0.0666780024766922 -1.0000979900360107 0.15967200696468353
v -0.14344799518585205 -0.6884620189666748 0.21355299651622772
v -0.17581400275230408 -1.0000979900360107 0.13929100334644318
v -0.24113599956035614 -0.6877349615097046 0.21097899973392487
v -0.3000069856643677 -1.0000979900360107 0.1391800045967102
v -0.24113599956035614 -0.6877349615097046 0.21097899973392487
v 0.009576999582350254 -0.35334205627441406 0.09419199824333191
v -0.051270999014377594 -0.36271095275878906 0.04268399998545647
v -0.1155019998550415 -0.3613150119781494 0.11945100128650665

vn 0.46354401111602783 0.8858739733695984 0.018818000331521034
vn 0.4327070116996765 0.7289140224456787 0.5305169820785522
vn 0.8886920213699341 0.0775739997625351 0.45189499855041504
vn 0.9436990022659302 0.3302539885044098 0.01907999999821186
vn 0.4830769896507263 0.25149500370025635 0.8386819958686829
vn 0.7693229913711548 -0.20647400617599487 0.604574978351593
vn 0.8796030282974243 0.4702700078487396 0.07172799855470657
vn 0.5190349817276001 0.7618929743766785 0.3874559998512268
vn 0.8435779809951782 -0.4213170111179352 0.3329690098762512
vn 0.9629719853401184 0.1587660014629364 -0.2178959995508194
vn -0.8778650164604187 0.4733240008354187 0.07291699945926666
vn -0.9636369943618774 0.1673620045185089 -0.2083120048046112
vn -0.7847869992256165 -0.5045239925384521 0.359950989484787
vn -0.7735120058059692 -0.20323200523853302 0.6003130078315735
vn 0.41330501437187195 0.8762900233268738 -0.2475769966840744
vn 0.829272985458374 0.4244219958782196 -0.36355599761009216
vn 0.4814479947090149 0.535627007484436 -0.6937659978866577
vn 0.48402899503707886 -0.0848269984126091 0.8709310293197632
vn 0.7715529799461365 -0.4171150028705597 -0.48033401370048523
vn 0.5270689725875854 -0.1774740070104599 -0.8310850262641907
vn 0.8945630192756653 -0.10866399854421616 -0.4335300028324127
vn 0.8846359848976135 -0.18159499764442444 -0.42946699261665344
vn -0.9112030267715454 -0.26249098777770996 0.3175010085105896
vn -0.9752119779586792 -0.22033099830150604 0.020416999235749245
vn -0.9894220232963562 0.1151140034198761 -0.08827800303697586
vn -0.9693139791488647 0.20877300202846527 0.12978699803352356
vn 0.928691029548645 -0.0871329978108406 0.36047300696372986
vn 0.5754550099372864 -0.1304430067539215 0.8073639869689941
vn 0.6856579780578613 0.5946440100669861 0.4198470115661621
vn 0.9375600218772888 0.3320290148258209 0.10362199693918228
vn 0.9744960069656372 0.17874599993228912 -0.13567499816417694
vn 0.9957630038261414 -0.08597400039434433 -0.0326399989426136
vn 3.199999991920777e-05 -1.0 -0.0001829999964684248
vn 0.7699689865112305 -0.6101599931716919 0.18668900430202484
vn 0.5794240236282349 -0.5726869702339172 0.5799109935760498
vn 0.008731000125408173 -0.7745689749717712 0.6324290037155151
vn 0.7699689865112305 -0.6101599931716919 0.18668900430202484
vn 0.8577989935874939 0.5053489804267883 0.09383100271224976
vn 0.9067239761352539 0.4082280099391937 0.10583800077438354
vn 0.5794240236282349 -0.5726869702339172 0.5799109935760498
vn 0.3817630112171173 0.854138970375061 -0.35313498973846436
vn 0.5823079943656921 0.7795500159263611 -0.2306939959526062
vn -0.8832839727401733 0.4520919919013977 0.12418899685144424
vn -0.8590189814567566 0.49880900979042053 0.11521799862384796
vn -0.7326880097389221 -0.6292920112609863 0.25915101170539856
vn -0.5168489813804626 -0.6072800159454346 0.6033880114555359
vn -0.9159250259399414 -0.20911100506782532 -0.3425709903240204
vn -0.5467110276222229 -0.23751799762248993 -0.8029270172119141
vn -0.7705410122871399 -0.4672029912471771 -0.43357598781585693
vn -0.8954349756240845 -0.23987700045108795 -0.37504100799560547
vn -0.3745790123939514 0.875531017780304 -0.30518099665641785
vn -0.5555520057678223 0.777999997138977 -0.2933900058269501
vn -0.5168489813804626 -0.6072800159454346 0.6033880114555359
vn -0.7326880097389221 -0.6292920112609863 0.25915101170539856
vn -3.899999865097925e-05 -1.0 -0.0002229999954579398
vn -0.05307700112462044 -0.7989190220832825 0.5990930199623108
vn -0.48096799850463867 0.25394800305366516 0.8391540050506592
vn -0.5157259702682495 0.7635579705238342 0.38859501481056213
vn -0.5514709949493408 -0.2822229862213135 0.7850030064582825
vn -0.6626520156860352 0.5511620044708252 0.5070629715919495
vn -0.9073219895362854 0.026071999222040176 0.41962701082229614
vn -0.4820280075073242 -0.13782599568367004 0.8652470111846924
vn -0.4580250084400177 0.7093819975852966 0.5357149839401245
vn -0.5049530267715454 0.8630710244178772 0.011474999599158764
vn -0.967835009098053 0.25130000710487366 0.01196100004017353
vn -0.8733590245246887 0.35170599818229675 -0.33696699142456055
vn -0.44706401228904724 0.8594740033149719 -0.24786600470542908
vn -0.4886760115623474 0.5123289823532104 -0.70619797706604
vn 0.14142699539661407 -0.18006399273872375 -0.9734349846839905
vn 0.37200498580932617 -0.7355359792709351 -0.5662149786949158
vn 0.10181500017642975 0.8357530236244202 -0.5395839810371399
vn 0.3084860146045685 0.8465980291366577 -0.43371498584747314
vn 1.4000000192027073e-05 -1.0 -0.0001849999971454963
vn -0.0803309977054596 -0.7577409744262695 0.6475909948348999
vn 0.29924601316452026 -0.40199100971221924 0.8653640151023865
vn 0.16144199669361115 0.3900800049304962 0.9065179824829102
vn 0.14955200254917145 -0.28250598907470703 0.9475359916687012
vn 0.17648300528526306 0.8255969882011414 0.5359519720077515
vn 0.11175999790430069 -0.1022770032286644 0.988457977771759
vn 0.20370200276374817 0.6951839923858643 0.689365029335022
vn 0.021643999963998795 0.8142610192298889 0.5800960063934326
vn 0.16335999965667725 -0.09609799832105637 0.9818750023841858
vn -0.0 1.0 0.0
vn 0.0695900022983551 0.9282169938087463 -0.3654730021953583
vn 0.1390720009803772 0.5827590227127075 -0.8006569743156433
vn 0.4682439863681793 -0.8672549724578857 -0.16916300356388092
vn 0.48619699478149414 -0.8724330067634583 -0.0497249998152256
vn 0.8357399702072144 -0.4705609977245331 -0.28303998708724976
vn 0.7574859857559204 -0.6257510185241699 -0.186149001121521
vn 0.937254011631012 0.2381719946861267 0.25461599230766296
vn 0.883247971534729 -0.25024399161338806 0.39654800295829773
vn 0.9106050133705139 -0.40476998686790466 0.08342599868774414
vn 0.9978330135345459 0.04959600046277046 -0.04322899878025055
vn 0.6889010071754456 0.4020189940929413 0.6031550168991089
vn 0.6806139945983887 -0.1292019933462143 0.7211589813232422
vn 0.2485480010509491 0.5324670076370239 0.8091369867324829
vn 0.26950299739837646 -0.019624000415205956 0.9628000259399414
vn -0.8986179828643799 -0.24442699551582336 0.3643360137939453
vn -0.6664819717407227 -0.10238000005483627 0.738457977771759
vn -0.6777480244636536 0.3752500116825104 0.632332980632782
vn -0.9541929960250854 0.17872899770736694 0.23994199931621552
vn -0.999770998954773 0.0018260000506415963 -0.02130500040948391
vn -0.9204710125923157 -0.38265499472618103 0.07942800223827362
vn -0.8463839888572693 -0.47743600606918335 -0.2359829992055893
vn -0.47522100806236267 -0.872048020362854 -0.11703500151634216
vn -0.49647900462150574 -0.834721028804779 -0.2382200062274933
vn -0.7757869958877563 -0.6112549901008606 -0.15659500658512115
vn 0.3162589967250824 -0.928318977355957 -0.1954600065946579
vn 0.30970799922943115 -0.940654993057251 -0.13874100148677826
vn -0.04358600080013275 0.8737109899520874 -0.48448801040649414
vn -0.06350100040435791 0.8229479789733887 -0.5645570158958435
vn -1.9999999949504854e-06 -1.0 -0.00020700000459328294
vn -0.13178999722003937 -0.7839999794960022 0.6066100001335144
vn -0.7735120058059692 -0.20323200523853302 0.6003130078315735
vn -0.21731500327587128 -0.7151200175285339 0.6643620133399963
vn -0.301582008600235 -0.398826003074646 0.8660169839859009
vn -0.14909599721431732 0.39172500371932983 0.9079220294952393
vn -0.16213400661945343 0.8258339762687683 0.540103018283844
vn -0.2548680007457733 -0.005218000151216984 0.9669619798660278
vn -0.2437569946050644 0.5188350081443787 0.8193860054016113
vn -0.11961500346660614 -0.15679599344730377 0.9803609848022461
vn -0.1776839941740036 0.686145007610321 0.7054319977760315
vn -0.1530430018901825 -0.10868299752473831 0.9822250008583069
vn -0.02632799930870533 0.8101850152015686 0.585582971572876
vn -0.0 1.0 0.0
vn -0.06402000039815903 0.9289979934692383 -0.3645069897174835
vn -0.1217150017619133 0.5796930193901062 -0.8056939840316772
vn -0.14223800599575043 -0.20164699852466583 -0.9690750241279602
vn -0.38555800914764404 -0.7505549788475037 -0.536666989326477
vn -0.3015030026435852 -0.947825014591217 -0.1035510003566742
vn -0.26716798543930054 -0.9351950287818909 -0.23244699835777283
vn -0.13415999710559845 -0.288673996925354 0.9479809999465942
vn 0.5281350016593933 0.22961699962615967 -0.8175259828567505
vn 0.8765490055084229 0.16583700478076935 -0.45184099674224854
vn 0.13902999460697174 0.23647700250148773 -0.9616389870643616
vn -0.138482004404068 0.22884300351142883 -0.9635630249977112
vn -0.5494790077209473 0.173893004655838 -0.8172109723091125
vn -0.9097679853439331 0.03342499956488609 -0.413769006729126
vn -0.9946100115776062 -0.09921800345182419 -0.030098000541329384
vn -0.898114025592804 -0.2845180034637451 0.33532100915908813
vn -0.4912619888782501 -0.4782260060310364 0.7279850244522095
vn -0.12148000299930573 -0.5316349864006042 0.83821702003479
vn 0.14642299711704254 -0.5123260021209717 0.8462160229682922
vn 0.49008700251579285 -0.4127509891986847 0.767756998538971
vn 0.9005929827690125 -0.17017300426959991 0.3999679982662201
vn 0.9977980256080627 0.056471001356840134 -0.03477900102734566
vn 0.7607769966125488 0.6446520090103149 -0.07511100172996521
vn 0.5395439863204956 0.7918940186500549 0.28599900007247925
vn 0.16629399359226227 0.8849650025367737 0.4349519908428192
vn -0.1544259935617447 0.8849400281906128 0.4393559992313385
vn -0.5362200140953064 0.7940620183944702 0.28624099493026733
vn -0.7660419940948486 0.6387029886245728 -0.07237499952316284
vn -0.8657519817352295 0.3959349989891052 -0.30611899495124817
vn -0.9637330174446106 0.24815699458122253 -0.09817299991846085
vn -0.735264003276825 0.48291200399398804 -0.47558701038360596
vn -0.09039100259542465 0.7556740045547485 -0.6486799716949463
vn 0.48615598678588867 0.5735780000686646 -0.6592879891395569
vn 0.6556910276412964 0.5577329993247986 -0.5089240074157715
vn 0.8365560173988342 0.18599499762058258 -0.5153449773788452
vn 0.8684260249137878 0.386339008808136 -0.31077098846435547
vn 0.9629719853401184 0.1587660014629364 -0.2178959995508194
vn 0.9475970268249512 0.07669799774885178 -0.3101249933242798
vn 0.8684260249137878 0.386339008808136 -0.31077098846435547
vn 0.8435779809951782 -0.4213170111179352 0.3329690098762512
vn 0.7768639922142029 -0.37917399406433105 0.5027030110359192
vn 0.24228499829769135 -0.7094659805297852 0.6617820262908936
vn 0.15716299414634705 -0.5623430013656616 0.811830997467041
vn 0.7768639922142029 -0.37917399406433105 0.5027030110359192
vn 0.8435779809951782 -0.4213170111179352 0.3329690098762512
vn -0.1099110022187233 -0.7279099822044373 0.6768069863319397
vn -0.11102200299501419 -0.5744640231132507 0.8109660148620605
vn -0.23563100397586823 -0.535519003868103 0.8109859824180603
vn -0.21907399594783783 -0.7643439769744873 0.606453001499176
vn -0.10209300369024277 -0.5459780097007751 0.8315560221672058
vn -0.10716699808835983 -0.7971140146255493 0.5942429900169373
vn -0.7140259742736816 -0.4382300078868866 0.5460050106048584
vn -0.7847869992256165 -0.5045239925384521 0.359950989484787
vn -0.937654972076416 0.0812240019440651 -0.33794501423835754
vn -0.7140259742736816 -0.4382300078868866 0.5460050106048584
vn -0.7847869992256165 -0.5045239925384521 0.359950989484787
vn -0.9636369943618774 0.1673620045185089 -0.2083120048046112
vn -0.999770998954773 0.0018260000506415963 -0.02130500040948391
vn -0.9204710125923157 -0.38265499472618103 0.07942800223827362
vn -0.9752119779586792 -0.22033099830150604 0.020416999235749245
vn -0.9894220232963562 0.1151140034198761 -0.08827800303697586
vn -0.9946100115776062 -0.09921800345182419 -0.030098000541329384
vn 0.9957630038261414 -0.08597400039434433 -0.0326399989426136
vn 0.9744960069656372 0.17874599993228912 -0.13567499816417694
vn 0.9978330135345459 0.04959600046277046 -0.04322899878025055
vn 0.9106050133705139 -0.40476998686790466 0.08342599868774414
vn -0.11858399957418442 -0.8716650009155273 -0.4755389988422394
vn -0.5876410007476807 -0.6867409944534302 -0.42785999178886414
vn -0.7989280223846436 -0.5746409893035889 -0.17748600244522095
vn -0.9197700023651123 -0.37536001205444336 0.11458300054073334
vn -0.9197700023651123 -0.37536001205444336 0.11458300054073334
vn -0.8765389919281006 -0.30234798789024353 0.3745209872722626
vn -0.6525480151176453 -0.19147999584674835 0.7331560254096985
vn -0.24173200130462646 -0.13936099410057068 0.9602829813957214
vn 0.24440300464630127 -0.16130399703979492 0.9561629891395569
vn 0.64478600025177 -0.2281000018119812 0.7295349836349487
vn 0.8462830185890198 -0.3408310115337372 0.40943899750709534
vn 0.8883799910545349 -0.4401789903640747 0.13047899305820465
vn 0.8883799910545349 -0.4401789903640747 0.13047899305820465
vn 0.7527949810028076 -0.629023015499115 -0.1939840018749237
vn 0.3644919991493225 -0.7891029715538025 -0.4944309890270233
vn 0.359048992395401 -0.7974039912223816 -0.4850060045719147
vn 0.7314050197601318 -0.6792849898338318 0.06015999987721443
vn 0.8796390295028687 0.41955500841140747 0.22407400608062744
vn 0.11501000076532364 -0.9597920179367065 -0.25606900453567505
vn 0.7314050197601318 -0.6792849898338318 0.06015999987721443
vn 0.13841399550437927 -0.9156429767608643 -0.37741199135780334
vn 0.08874399960041046 -0.9146580100059509 -0.39436599612236023
vn 0.05407699942588806 -0.9695709943771362 -0.23876400291919708
vn 0.020173000171780586 -0.9406899809837341 -0.33866599202156067
vn 0.009530999697744846 -0.9482600092887878 -0.31735101342201233
vn -0.7423009872436523 -0.6699780225753784 -0.010925999842584133
vn -0.07331299781799316 -0.9858099818229675 -0.1510089933872223
vn -0.9185240268707275 0.39523300528526306 -0.01027199998497963
vn -0.7423009872436523 -0.6699780225753784 -0.010925999842584133
vn -0.11046099662780762 0.989886999130249 -0.08900400251150131
vn 0.033066000789403915 0.8505510091781616 -0.524852991104126
vn 0.15708200633525848 0.7561249732971191 -0.6352949738502502
vn 0.2932080030441284 0.7695599794387817 -0.5672799944877625
vn -0.20927800238132477 0.8460850119590759 0.4902479946613312
vn 0.22212399542331696 0.8478270173072815 0.4815079867839813
vn -0.6135889887809753 0.7071719765663147 0.3513079881668091
vn -0.8703740239143372 0.49172601103782654 0.025606999173760414
vn -0.9287390112876892 0.3185949921607971 -0.18957999348640442
vn -0.85589200258255 -0.18321900069713593 -0.48361098766326904
vn -0.9287390112876892 0.3185949921607971 -0.18957999348640442
vn -0.6646639704704285 -0.6938809752464294 -0.2770409882068634
vn -0.42085000872612 -0.8949750065803528 -0.1480029970407486
vn 0.4159969985485077 -0.8838269710540771 -0.21400000154972076
vn 0.6814579963684082 -0.6790239810943604 -0.27302199602127075
vn 0.8371390104293823 -0.15374299883842468 -0.5249390006065369
vn 0.9059209823608398 0.36180800199508667 -0.22000299394130707
vn 0.8386160135269165 0.5440739989280701 0.026570999994874
vn 0.9059209823608398 0.36180800199508667 -0.22000299394130707
vn 0.6135600209236145 0.7167419791221619 0.33139801025390625
vn -0.8733590245246887 0.35170599818229675 -0.33696699142456055
vn -0.967835009098053 0.25130000710487366 0.01196100004017353
vn -0.4886760115623474 0.5123289823532104 -0.70619797706604
vn -0.1217150017619133 0.5796930193901062 -0.8056939840316772
vn 0.1390720009803772 0.5827590227127075 -0.8006569743156433
vn 0.4814479947090149 0.535627007484436 -0.6937659978866577
vn 0.829272985458374 0.4244219958782196 -0.36355599761009216
vn 0.9977980256080627 0.056471001356840134 -0.03477900102734566
vn 0.9436990022659302 0.3302539885044098 0.01907999999821186
vn 0.9436990022659302 0.3302539885044098 0.01907999999821186
vn 0.8886920213699341 0.0775739997625351 0.45189499855041504
vn 0.48402899503707886 -0.0848269984126091 0.8709310293197632
vn 0.16335999965667725 -0.09609799832105637 0.9818750023841858
vn -0.1530430018901825 -0.10868299752473831 0.9822250008583069
vn -0.4820280075073242 -0.13782599568367004 0.8652470111846924
vn -0.9073219895362854 0.026071999222040176 0.41962701082229614
vn -0.967835009098053 0.25130000710487366 0.01196100004017353
vn 0.24478599429130554 -0.6601150035858154 0.7101609706878662
vn 0.7693229913711548 -0.20647400617599487 0.604574978351593
vn 0.040348999202251434 -0.7340189814567566 0.6779289841651917
vn -0.07224799692630768 -0.779043972492218 0.6227920055389404
vn 0.08248700201511383 0.9918180108070374 -0.09743200242519379
vn -0.04861700162291527 0.9749959707260132 -0.216839000582695
vn 0.12261500209569931 0.9855909943580627 -0.11651799827814102
vn -0.11046099662780762 0.989886999130249 -0.08900400251150131
vn -0.03327000141143799 0.9300680160522461 -0.36587798595428467
vn -0.8132759928703308 0.47057801485061646 -0.34225699305534363
vn -0.9185240268707275 0.39523300528526306 -0.01027199998497963
vn -0.7506610155105591 -0.599524974822998 -0.27762898802757263
vn -0.7423009872436523 -0.6699780225753784 -0.010925999842584133
vn -0.7506610155105591 -0.599524974822998 -0.27762898802757263
vn 0.0046350001357495785 -0.9995160102844238 0.030755000188946724
vn -0.07331299781799316 -0.9858099818229675 -0.1510089933872223
vn -0.7423009872436523 -0.6699780225753784 -0.010925999842584133
vn 0.7093240022659302 -0.6073160171508789 -0.3578070104122162
vn 0.7475770115852356 0.5171300172805786 -0.41677799820899963
vn 0.033066000789403915 0.8505510091781616 -0.524852991104126
vn 0.020173000171780586 -0.9406899809837341 -0.33866599202156067
vn 0.7093240022659302 -0.6073160171508789 -0.3578070104122162
vn 0.020173000171780586 -0.9406899809837341 -0.33866599202156067
vn -0.02249000035226345 -0.591543972492218 -0.8059589862823486
vn -0.02249000035226345 -0.591543972492218 -0.8059589862823486
vn 0.08248700201511383 0.9918180108070374 -0.09743200242519379
vn -0.043338000774383545 0.9409719705581665 -0.3356989920139313
vn -0.7441220283508301 0.5285339951515198 -0.40857699513435364
vn 0.033066000789403915 0.8505510091781616 -0.524852991104126
vn -0.6775699853897095 -0.5374950170516968 -0.5019950270652771
vn 0.020173000171780586 -0.9406899809837341 -0.33866599202156067
vn -0.6775699853897095 -0.5374950170516968 -0.5019950270652771
vn -0.003022999968379736 -0.9931049942970276 -0.1171870008111
vn 0.009530999697744846 -0.9482600092887878 -0.31735101342201233
vn 0.020173000171780586 -0.9406899809837341 -0.33866599202156067
vn 0.7390000224113464 -0.5062680244445801 -0.444489985704422
vn 0.773127019405365 0.49688801169395447 -0.39417800307273865
vn 0.15708200633525848 0.7561249732971191 -0.6352949738502502
vn 0.08874399960041046 -0.9146580100059509 -0.39436599612236023
vn 0.7390000224113464 -0.5062680244445801 -0.444489985704422
vn 0.08874399960041046 -0.9146580100059509 -0.39436599612236023
vn -0.034791000187397 -0.5924209952354431 -0.804876983165741
vn -0.034791000187397 -0.5924209952354431 -0.804876983165741
vn -0.04861700162291527 0.9749959707260132 -0.216839000582695
vn 0.10316900163888931 0.9338679909706116 -0.3424150049686432
vn -0.6317859888076782 0.458871990442276 -0.6247259974479675
vn 0.15708200633525848 0.7561249732971191 -0.6352949738502502
vn -0.509253978729248 -0.561083972454071 -0.652567982673645
vn 0.08874399960041046 -0.9146580100059509 -0.39436599612236023
vn -0.509253978729248 -0.561083972454071 -0.652567982673645
vn 0.01540399994701147 -0.9985420107841492 -0.051743000745773315
vn 0.05407699942588806 -0.9695709943771362 -0.23876400291919708
vn 0.08874399960041046 -0.9146580100059509 -0.39436599612236023
vn 0.8253939747810364 -0.5384520292282104 -0.16968800127506256
vn 0.8298349976539612 0.5379430055618286 -0.14829100668430328
vn 0.2932080030441284 0.7695599794387817 -0.5672799944877625
vn 0.13841399550437927 -0.9156429767608643 -0.37741199135780334
vn 0.8253939747810364 -0.5384520292282104 -0.16968800127506256
vn 0.13841399550437927 -0.9156429767608643 -0.37741199135780334
vn 0.25988200306892395 -0.5858889818191528 -0.7675909996032715
vn 0.25988200306892395 -0.5858889818191528 -0.7675909996032715
vn 0.12261500209569931 0.9855909943580627 -0.11651799827814102
vn 0.14266499876976013 0.9276959896087646 -0.34500399231910706
vn -0.4954180121421814 0.46567100286483765 -0.7332879900932312
vn 0.2932080030441284 0.7695599794387817 -0.5672799944877625
vn -0.37080100178718567 -0.5680720210075378 -0.7347120046615601
vn 0.13841399550437927 -0.9156429767608643 -0.37741199135780334
vn -0.37080100178718567 -0.5680720210075378 -0.7347120046615601
vn 0.020833000540733337 -0.9984009861946106 -0.05254700034856796
vn 0.11501000076532364 -0.9597920179367065 -0.25606900453567505
vn 0.13841399550437927 -0.9156429767608643 -0.37741199135780334
vn 0.8639820218086243 -0.5033270120620728 -0.014070999808609486
vn 0.8639810085296631 0.5028629899024963 -0.025798000395298004
vn 0.8796390295028687 0.41955500841140747 0.22407400608062744
vn 0.7314050197601318 -0.6792849898338318 0.06015999987721443
vn 0.8639820218086243 -0.5033270120620728 -0.014070999808609486
vn 0.7314050197601318 -0.6792849898338318 0.06015999987721443
vn 0.33862999081611633 -0.6217769980430603 -0.7062029838562012
vn 0.33862999081611633 -0.6217769980430603 -0.7062029838562012
vn -0.03788800165057182 -0.5691570043563843 -0.8213559985160828
vn -0.7247729897499084 -0.3434860110282898 -0.5972620248794556
vn -0.9354180097579956 -0.020306000486016273 -0.3529599905014038
vn -0.9861699938774109 0.16566400229930878 -0.004982999991625547
vn -0.9861699938774109 0.16566400229930878 -0.004982999991625547
vn -0.9297109842300415 0.31472301483154297 0.19127899408340454
vn -0.6909390091896057 0.4536280035972595 0.562870979309082
vn -0.2201250046491623 0.5895810127258301 0.7771350145339966
vn 0.2367749959230423 0.5880339741706848 0.7734040021896362
vn 0.6946210265159607 0.4457640051841736 0.5646200180053711
vn 0.9259349703788757 0.3155199885368347 0.20758399367332458
vn 0.9889190196990967 0.14844200015068054 0.001962000038474798
vn 0.9889190196990967 0.14844200015068054 0.001962000038474798
vn 0.9357830286026001 -0.022569000720977783 -0.35185301303863525
vn 0.487529993057251 -0.4205690026283264 -0.7651379704475403
vn 0.41905298829078674 -0.48659399151802063 -0.7665640115737915
vn 0.6686779856681824 0.07688699662685394 -0.7395660281181335
vn 0.48733699321746826 -0.0007910000276751816 -0.8732140064239502
vn -0.11853600293397903 0.0676959976553917 -0.9906389713287354
vn -0.7719280123710632 0.05078100040555 -0.6336789727210999
vn -0.8256760239601135 0.19259999692440033 -0.5302489995956421
vn -0.8657519817352295 0.3959349989891052 -0.30611899495124817
vn 0.653203010559082 0.27587801218032837 -0.7051360011100769
vn 0.9581609964370728 0.25758299231529236 -0.12481799721717834
vn 0.7086169719696045 -0.11480999737977982 0.6961910128593445
vn 0.008731000125408173 -0.7745689749717712 0.6324290037155151
vn 0.5794240236282349 -0.5726869702339172 0.5799109935760498
vn 0.7086169719696045 -0.11480999737977982 0.6961910128593445
vn 0.0965069979429245 -0.3274190127849579 0.9399380087852478
vn -0.0803309977054596 -0.7577409744262695 0.6475909948348999
vn -0.12960200011730194 -0.3517509996891022 0.9270790219306946
vn -0.24647100269794464 -0.33577901124954224 0.9091230034828186
vn -0.13178999722003937 -0.7839999794960022 0.6066100001335144
vn -0.11221999675035477 -0.34139400720596313 0.933197021484375
vn -0.05307700112462044 -0.7989190220832825 0.5990930199623108
vn -0.6544219851493835 -0.15471799671649933 0.7401310205459595
vn -0.5168489813804626 -0.6072800159454346 0.6033880114555359
vn -0.6544219851493835 -0.15471799671649933 0.7401310205459595
vn 0.5224180221557617 0.2898229956626892 -0.8019239902496338
vn -0.09845300018787384 0.38884299993515015 -0.9160289764404297
vn -0.7591540217399597 0.2287369966506958 -0.6093969941139221

vt 0.7953839898109436 0.25927501916885376
vt 0.7938510179519653 0.2818080186843872
vt 0.8128820061683655 0.2851340174674988
vt 0.8172670006752014 0.2567669749259949
vt 0.8623250126838684 0.1939389705657959
vt 0.8358849883079529 0.18540102243423462
vt 0.8331260085105896 0.20893198251724243
vt 0.8606680035591125 0.2200949788093567
vt 0.8045439720153809 0.18750900030136108
vt 0.8086990118026733 0.20526498556137085
vt 0.9377149939537048 0.21486502885818481
vt 0.9624969959259033 0.2161480188369751
vt 0.9688519835472107 0.2000790238380432
vt 0.9386060237884521 0.1921120285987854
vt 0.794871985912323 0.2453089952468872
vt 0.8115710020065308 0.23840099573135376
vt 0.7972310185432434 0.2236890196800232
vt 0.7948899865150452 0.2994610071182251
vt 0.7077280282974243 0.359591007232666
vt 0.7066659927368164 0.4238160252571106
vt 0.7358440160751343 0.4225659966468811
vt 0.7329970002174377 0.3631719946861267
vt 0.9611600041389465 0.4169750213623047
vt 1.001065969467163 0.4080960154533386
vt 0.9805240035057068 0.3700079917907715
vt 0.9518489837646484 0.38902801275253296
vt 0.8077579736709595 0.41967999935150146
vt 0.8480079770088196 0.4249280095100403
vt 0.8496440052986145 0.40879297256469727
vt 0.8115140199661255 0.3940179944038391
vt 0.7809159755706787 0.37778300046920776
vt 0.7665600180625916 0.4184719920158386
vt 0.788332998752594 0.1630600094795227
vt 0.7798470258712769 0.16479498147964478
vt 0.7816799879074097 0.1795160174369812
vt 0.7927190065383911 0.18102997541427612
vt 0.8015310168266296 0.07192301750183105
vt 0.7476720213890076 0.0659170150756836
vt 0.7504249811172485 0.09641402959823608
vt 0.8206139802932739 0.10100799798965454
vt 0.7149320244789124 0.06449997425079346
vt 0.7149379849433899 0.10357099771499634
vt 0.6068860292434692 0.10258197784423828
vt 0.5990809798240662 0.06494301557540894
vt 0.5494589805603027 0.07724899053573608
vt 0.5393499732017517 0.10494697093963623
vt 0.6285250186920166 0.4211980104446411
vt 0.6553320288658142 0.42346400022506714
vt 0.6592779755592346 0.3601679801940918
vt 0.6355050206184387 0.3563550114631653
vt 0.636946976184845 0.06417202949523926
vt 0.652010977268219 0.10559099912643433
vt 0.8211690187454224 0.18168997764587402
vt 0.8275120258331299 0.171301007270813
vt 0.8199049830436707 0.16736900806427002
vt 0.8125860095024109 0.1805260181427002
vt 0.9121320247650146 0.1985030174255371
vt 0.908972978591919 0.22289901971817017
vt 0.9221259951591492 0.4236770272254944
vt 0.912771999835968 0.40812402963638306
vt 0.7469429969787598 0.28302001953125
vt 0.7643659710884094 0.30049097537994385
vt 0.7648580074310303 0.2810699939727783
vt 0.7645689845085144 0.2583339810371399
vt 0.7448139786720276 0.2538260221481323
vt 0.7516369819641113 0.23611199855804443
vt 0.7659509778022766 0.24440997838974
vt 0.7669039964675903 0.22268301248550415
vt 0.6899340152740479 0.42562299966812134
vt 0.6939949989318848 0.35113900899887085
vt 0.6898239850997925 0.06490802764892578
vt 0.6887030005455017 0.10567599534988403
vt 0.7986069917678833 0.16337502002716064
vt 0.7975540161132812 0.18168997764587402
vt 0.8672379851341248 0.18472301959991455
vt 0.8778989911079407 0.19929397106170654
vt 0.8788779973983765 0.18998700380325317
vt 0.8765770196914673 0.22462600469589233
vt 0.8738110065460205 0.4259229898452759
vt 0.8705000281333923 0.41454899311065674
vt 0.7849509716033936 0.28254902362823486
vt 0.7843250036239624 0.3031030297279358
vt 0.7856990098953247 0.25695300102233887
vt 0.7862200140953064 0.24123400449752808
vt 0.7876740097999573 0.21985000371932983
vt 0.7103729844093323 0.31620097160339355
vt 0.7112450003623962 0.3260430097579956
vt 0.7394949793815613 0.3344249725341797
vt 0.7414000034332275 0.3224560022354126
vt 0.8251640200614929 0.3403970003128052
vt 0.8254759907722473 0.31381702423095703
vt 0.8001580238342285 0.3222230076789856
vt 0.7976170182228088 0.34170001745224
vt 0.8518700003623962 0.33716297149658203
vt 0.8509560227394104 0.30865901708602905
vt 0.8696669936180115 0.33764201402664185
vt 0.8693410158157349 0.30729401111602783
vt 0.9319350123405457 0.3151100277900696
vt 0.9080520272254944 0.3084549903869629
vt 0.907131016254425 0.33745402097702026
vt 0.933489978313446 0.341094970703125
vt 0.9621189832687378 0.34047800302505493
vt 0.9579439759254456 0.32302701473236084
vt 0.6306520104408264 0.3310139775276184
vt 0.6588580012321472 0.32552897930145264
vt 0.6607000231742859 0.3142859935760498
vt 0.6309589743614197 0.3182700276374817
vt 0.6940019726753235 0.31637001037597656
vt 0.69582200050354 0.3240000009536743
vt 0.6711459755897522 0.09618699550628662
vt 0.6641299724578857 0.06550401449203491
vt 0.808974027633667 0.16478997468948364
vt 0.8048520088195801 0.18090498447418213
vt 0.9316509962081909 0.17507898807525635
vt 0.9147089719772339 0.1709970235824585
vt 0.9092419743537903 0.18962299823760986
vt 0.8943809866905212 0.20121502876281738
vt 0.8919669985771179 0.22631698846817017
vt 0.8883060216903687 0.3066740036010742
vt 0.8885800242424011 0.33754897117614746
vt 0.8981260061264038 0.4250820279121399
vt 0.8902450203895569 0.4148210287094116
vt 0.7750920057296753 0.3042110204696655
vt 0.7744370102882385 0.2825539708137512
vt 0.7756829857826233 0.25666701793670654
vt 0.7764859795570374 0.24114400148391724
vt 0.7782269716262817 0.2198140025138855
vt 0.6721810102462769 0.4254170060157776
vt 0.6759740114212036 0.35178202390670776
vt 0.6746309995651245 0.32300102710723877
vt 0.6779509782791138 0.31589001417160034
vt 0.8949459791183472 0.1922760009765625
vt 0.7062540054321289 0.48851102590560913
vt 0.7362340092658997 0.48271799087524414
vt 0.6876980066299438 0.4923040270805359
vt 0.6684520244598389 0.49256497621536255
vt 0.6488879919052124 0.4907439947128296
vt 0.6192070245742798 0.4829009771347046
vt 0.9998260140419006 0.45708101987838745
vt 0.9526990056037903 0.45736002922058105
vt 0.9218860268592834 0.45582497119903564
vt 0.9005770087242126 0.45568299293518066
vt 0.8799369931221008 0.4560980200767517
vt 0.858722984790802 0.4571729898452759
vt 0.8273509740829468 0.4576050043106079
vt 0.7797799706459045 0.46477198600769043
vt 0.8367720246315002 0.22819900512695312
vt 0.8617830276489258 0.23329401016235352
vt 0.8763909935951233 0.23545598983764648
vt 0.8900150060653687 0.23672401905059814
vt 0.9056559801101685 0.23660200834274292
vt 0.931098997592926 0.2333570122718811
vt 0.9507150053977966 0.23536700010299683
vt 0.6130310297012329 0.141493022441864
vt 0.6568049788475037 0.14834898710250854
vt 0.6747440099716187 0.14138799905776978
vt 0.6894279718399048 0.14799898862838745
vt 0.7096710205078125 0.14570099115371704
vt 0.7315199971199036 0.2056419849395752
vt 0.7458850145339966 0.224357008934021
vt 0.7622630000114441 0.21427100896835327
vt 0.7419120073318481 0.17135602235794067
vt 0.8172889947891235 0.22615498304367065
vt 0.7768039703369141 0.20640802383422852
vt 0.7593410015106201 0.1688070297241211
vt 0.8664420247077942 0.1314539909362793
vt 0.8735920190811157 0.1027420163154602
vt 0.853725016117096 0.09842199087142944
vt 0.8436809778213501 0.13461697101593018
vt 0.8833490014076233 0.13092899322509766
vt 0.8866009712219238 0.10392498970031738
vt 0.9022259712219238 0.10244399309158325
vt 0.9011049866676331 0.13519102334976196
vt 0.9182900190353394 0.10294097661972046
vt 0.9192950129508972 0.13944900035858154
vt 0.9368429780006409 0.10470998287200928
vt 0.9401710033416748 0.14325302839279175
vt 0.621396005153656 0.16996002197265625
vt 0.6045740246772766 0.17003798484802246
vt 0.5856509804725647 0.20999997854232788
vt 0.6012619733810425 0.21619302034378052
vt 0.6059749722480774 0.3291440010070801
vt 0.6142209768295288 0.31051498651504517
vt 0.6054530143737793 0.41742998361587524
vt 0.6112120151519775 0.3696439862251282
vt 0.5919269919395447 0.47256600856781006
vt 0.7604110240936279 0.42141199111938477
vt 0.7584329843521118 0.3745669722557068
vt 0.766074001789093 0.33527398109436035
vt 0.76003497838974 0.31622499227523804
vt 0.6795799732208252 0.27542197704315186
vt 0.6654710173606873 0.2715489864349365
vt 0.6447550058364868 0.2731019854545593
vt 0.6302440166473389 0.27314597368240356
vt 0.9442620277404785 0.28743600845336914
vt 0.9246630072593689 0.2808240056037903
vt 0.9048240184783936 0.2746390104293823
vt 0.8880990147590637 0.27110397815704346
vt 0.8734099864959717 0.2704799771308899
vt 0.8577619791030884 0.2713649868965149
vt 0.8353959918022156 0.2769539952278137
vt 0.8163300156593323 0.2825930118560791
vt 0.7369059920310974 0.2757899761199951
vt 0.721875011920929 0.2738249897956848
vt 0.7024189829826355 0.27415502071380615
vt 0.6919509768486023 0.2727910280227661
vt 0.781378984451294 0.008067011833190918
vt 0.7561450004577637 0.020865023136138916
vt 0.7837709784507751 0.13451600074768066
vt 0.7784460186958313 0.1377660036087036
vt 0.7922869920730591 0.13340502977371216
vt 0.8071140050888062 0.13167500495910645
vt 0.8008040189743042 0.1322929859161377
vt 0.8217769861221313 0.13342702388763428
vt 0.8134920001029968 0.13105201721191406
vt 0.836650013923645 0.14451098442077637
vt 0.830062985420227 0.1358010172843933
vt 0.5889459848403931 0.01833099126815796
vt 0.5644770264625549 0.009043991565704346
vt 0.6152179837226868 0.009679019451141357
vt 0.6371859908103943 0.004799008369445801
vt 0.6782130002975464 0.0071250200271606445
vt 0.718084990978241 0.014289021492004395
vt 0.8887450098991394 0.3746119737625122
vt 0.8711040019989014 0.3742070198059082
vt 0.9072719812393188 0.37063902616500854
vt 0.9352750182151794 0.3676549792289734
vt 0.9674379825592041 0.3556950092315674
vt 0.6316499710083008 0.3415290117263794
vt 0.6051570177078247 0.34691399335861206
vt 0.6577050089836121 0.33679699897766113
vt 0.6729350090026855 0.3307560086250305
vt 0.6970109939575195 0.3315119743347168
vt 0.7106490135192871 0.3353549838066101
vt 0.7363370060920715 0.3455770015716553
vt 0.7657279968261719 0.35205698013305664
vt 0.8241479992866516 0.3661630153656006
vt 0.7914699912071228 0.35872602462768555
vt 0.8533650040626526 0.37025201320648193
vt 0.6130549907684326 0.5104579925537109
vt 0.584417998790741 0.5003840029239655
vt 0.6447139978408813 0.51842400431633
vt 0.6664720177650452 0.5206460058689117
vt 0.6866570115089417 0.5207909941673279
vt 0.7075539827346802 0.5178700089454651
vt 0.7394840121269226 0.5122570097446442
vt 0.7654020190238953 0.47519397735595703
vt 0.7710570096969604 0.5049319863319397
vt 0.788686990737915 0.493848979473114
vt 0.8375210165977478 0.4880549907684326
vt 0.864654004573822 0.4897040128707886
vt 0.8829349875450134 0.49059098958969116
vt 0.9005119800567627 0.4899449944496155
vt 0.9201710224151611 0.4886940121650696
vt 0.9473310112953186 0.4901300072669983
vt 0.9958789944648743 0.48739099502563477
vt 0.8644160032272339 0.16553401947021484
vt 0.8462250232696533 0.16878801584243774
vt 0.8807229995727539 0.16486197710037231
vt 0.8971819877624512 0.1667259931564331
vt 0.6598520278930664 0.010066986083984375
vt 0.6954450011253357 0.019340991973876953
vt 0.7372159957885742 0.021209001541137695
vt 0.9110289812088013 0.5714559853076935
vt 0.9115059971809387 0.5424579977989197
vt 0.9258139729499817 0.5389289855957031
vt 0.9541590213775635 0.58023801445961
vt 0.9395750164985657 0.5152119994163513
vt 0.9727349877357483 0.5623959898948669
vt 0.971356987953186 0.5111599862575531
vt 0.963433027267456 0.5101270079612732
vt 0.964339017868042 0.5274479985237122
vt 0.9777640104293823 0.5391809940338135
vt 0.8765699863433838 0.5185920000076294
vt 0.8943359851837158 0.5379639863967896
vt 0.8794699907302856 0.5610119998455048
vt 0.8584979772567749 0.5429880023002625
vt 0.9547209739685059 0.5103340148925781
vt 0.9503359794616699 0.5260460078716278
vt 0.9095420241355896 0.4966139793395996
vt 0.9626049995422363 0.49444901943206787
vt 0.7276139855384827 0.5794039964675903
vt 0.7272570133209229 0.566305011510849
vt 0.7132350206375122 0.5606519877910614
vt 0.6968340277671814 0.5688329935073853
vt 0.6974959969520569 0.5400049984455109
vt 0.6807680130004883 0.5430949926376343
vt 0.8567230105400085 0.50798499584198
vt 0.8472970128059387 0.5135200023651123
vt 0.8408949971199036 0.5037429928779602
vt 0.8569039702415466 0.4934070110321045
vt 0.7567129731178284 0.5435490012168884
vt 0.743802011013031 0.5626690089702606
vt 0.756820023059845 0.5705839991569519
vt 0.773967981338501 0.5484670102596283
vt 0.8363860249519348 0.5179780125617981
vt 0.8271989822387695 0.5073170065879822
vt 0.7289419770240784 0.5172950029373169
vt 0.8569039702415466 0.5316930115222931
vt 0.8175539970397949 0.5692990124225616
vt 0.816457986831665 0.5509710013866425
vt 0.8331159949302673 0.5500470101833344
vt 0.8487989902496338 0.5602990090847015
vt 0.8425859808921814 0.5284520089626312
vt 0.8602420091629028 0.5347529947757721
vt 0.8603309988975525 0.5068190097808838
vt 0.8665549755096436 0.5116040110588074
vt 0.8697609901428223 0.5012480020523071
vt 0.8611660003662109 0.4959610104560852
vt 0.7836499810218811 0.5267730057239532
vt 0.8004230260848999 0.5487929880619049
vt 0.7891669869422913 0.5595879852771759
vt 0.7708160281181335 0.536545991897583
vt 0.8738059997558594 0.5155949890613556
vt 0.8816409707069397 0.5080370008945465
vt 0.8136079907417297 0.5048350095748901
vt 0.8603309988975525 0.5253579914569855
vt 0.6282399892807007 0.5775539875030518
vt 0.6313790082931519 0.5621959865093231
vt 0.6475250124931335 0.5595110058784485
vt 0.6645339727401733 0.5687220096588135
vt 0.6554049849510193 0.5364780128002167
vt 0.6750310063362122 0.5434829890727997
vt 0.990227997303009 0.5123429894447327
vt 0.9826430082321167 0.5140730142593384
vt 0.9814760088920593 0.5039719939231873
vt 0.9958969950675964 0.5008989870548248
vt 0.6022800207138062 0.5372479856014252
vt 0.6127349734306335 0.5558069944381714
vt 0.6037260293960571 0.5703490078449249
vt 0.5817829966545105 0.5431860089302063
vt 0.9745969772338867 0.5145350098609924
vt 0.9708960056304932 0.5022850036621094
vt 0.6296489834785461 0.5165469944477081
vt 0.9830780029296875 0.5285019874572754
vt 0.678849995136261 0.2511870265007019
vt 0.664097011089325 0.24674302339553833
vt 0.6459019780158997 0.2394530177116394
vt 0.6310219764709473 0.24537497758865356
vt 0.9387310147285461 0.2595440149307251
vt 0.9234690070152283 0.25555700063705444
vt 0.9037119746208191 0.2536090016365051
vt 0.8878980278968811 0.2522580027580261
vt 0.8757719993591309 0.2510489821434021
vt 0.8607739806175232 0.25015801191329956
vt 0.8412989974021912 0.25050801038742065
vt 0.8261590003967285 0.2544040083885193
vt 0.733506977558136 0.24692898988723755
vt 0.7189379930496216 0.24090701341629028
vt 0.7010570168495178 0.24937397241592407
vt 0.6919090151786804 0.25151002407073975
vt 0.7067790031433105 0.21538501977920532
vt 0.6910820007324219 0.21892601251602173
vt 0.6771199703216553 0.21405798196792603
vt 0.6591789722442627 0.21551001071929932
vt 0.6321319937705994 0.205672025680542
vt 0.6182669997215271 0.2247290015220642
vt 0.7061799764633179 0.17624199390411377
vt 0.7425100207328796 0.1409980058670044
vt 0.7687280178070068 0.1370289921760559
vt 0.878570020198822 0.006338000297546387
vt 0.8493049740791321 0.004631996154785156
vt 0.8567929863929749 0.06335800886154175
vt 0.8784930109977722 0.06531399488449097
vt 0.8912780284881592 0.006907999515533447
vt 0.8900279998779297 0.06647199392318726
vt 0.9051870107650757 0.06565999984741211
vt 0.9104070067405701 0.006829977035522461
vt 0.9217309951782227 0.06568300724029541
vt 0.9306079745292664 0.007737994194030762
vt 0.9397199749946594 0.06720298528671265
vt 0.9527209997177124 0.010303020477294922
vt 0.5952519774436951 0.13669800758361816
vt 0.6895660161972046 0.17926502227783203
vt 0.6765289902687073 0.17334997653961182
vt 0.6597989797592163 0.17830699682235718

usemtl Material

f 1/1/1 2/2/2 3/3/3
f 3/3/3 4/4/4 1/1/1
f 5/5/5 6/6/6 7/7/7
f 7/7/7 8/8/8 5/5/5
f 9/9/9 10/10/10 7/7/7
f 7/7/7 6/6/6 9/9/9
f 11/11/11 12/12/12 13/13/13
f 13/13/13 14/14/14 11/11/11
f 15/15/15 16/16/16 17/17/17
f 2/2/2 18/18/18 3/3/3
f 19/19/19 20/20/20 21/21/21
f 21/21/21 22/22/22 19/19/19
f 23/23/23 24/24/24 25/25/25
f 25/25/25 26/26/26 23/23/23
f 27/27/27 28/28/28 29/29/29
f 29/29/29 30/30/30 27/27/27
f 31/31/31 32/32/32 27/27/27
f 27/27/27 30/30/30 31/31/31
f 33/33/33 34/34/34 35/35/35
f 35/35/35 36/36/36 33/33/33
f 37/37/37 38/38/38 39/39/39
f 39/39/39 40/40/40 37/37/37
f 38/38/38 41/41/41 42/42/42
f 42/42/42 39/39/39 38/38/38
f 43/43/43 44/44/44 45/45/45
f 45/45/45 46/46/46 43/43/43
f 47/47/47 48/48/48 49/49/49
f 49/49/49 50/50/50 47/47/47
f 51/51/51 44/44/44 43/43/43
f 43/43/43 52/52/52 51/51/51
f 53/53/53 54/54/54 55/55/55
f 55/55/55 56/56/56 53/53/53
f 11/11/11 14/14/14 57/57/57
f 57/57/57 58/58/58 11/11/11
f 59/59/59 23/23/23 26/26/26
f 26/26/26 60/60/60 59/59/59
f 61/61/61 62/62/62 63/63/63
f 61/61/61 63/63/63 64/64/64
f 64/64/64 65/65/65 61/61/61
f 66/66/66 67/67/67 68/68/68
f 69/69/69 20/20/20 19/19/19
f 19/19/19 70/70/70 69/69/69
f 41/41/41 71/71/71 72/72/72
f 72/72/72 42/42/42 41/41/41
f 73/73/73 33/33/33 36/36/36
f 36/36/36 74/74/74 73/73/73
f 75/75/75 5/5/5 76/76/76
f 76/76/76 77/77/77 75/75/75
f 76/76/76 5/5/5 8/8/8
f 8/8/8 78/78/78 76/76/76
f 28/28/28 79/79/79 80/80/80
f 80/80/80 29/29/29 28/28/28
f 81/81/81 82/82/82 18/18/18
f 18/18/18 2/2/2 81/81/81
f 81/81/81 2/2/2 1/1/1
f 1/1/1 83/83/83 81/81/81
f 84/84/84 15/15/15 17/17/17
f 17/17/17 85/85/85 84/84/84
f 86/86/86 87/87/87 88/88/88
f 88/88/88 89/89/89 86/86/86
f 90/90/90 91/91/91 92/92/92
f 92/92/92 93/93/93 90/90/90
f 94/94/94 95/95/95 91/91/91
f 91/91/91 90/90/90 94/94/94
f 94/94/94 96/96/96 97/97/97
f 97/97/97 95/95/95 94/94/94
f 98/98/98 99/99/99 100/100/100
f 100/100/100 101/101/101 98/98/98
f 101/101/101 102/102/102 103/103/103
f 103/103/103 98/98/98 101/101/101
f 104/104/104 105/105/105 106/106/106
f 106/106/106 107/107/107 104/104/104
f 108/108/108 109/109/109 87/87/87
f 87/87/87 86/86/86 108/108/108
f 51/51/51 52/52/52 110/110/110
f 110/110/110 111/111/111 51/51/51
f 56/56/56 55/55/55 112/112/112
f 112/112/112 113/113/113 56/56/56
f 57/57/57 114/114/114 115/115/115
f 115/115/115 116/116/116 57/57/57
f 58/58/58 57/57/57 117/117/117
f 117/117/117 118/118/118 58/58/58
f 99/99/99 119/119/119 120/120/120
f 120/120/120 100/100/100 99/99/99
f 121/121/121 59/59/59 60/60/60
f 60/60/60 122/122/122 121/121/121
f 62/62/62 123/123/123 124/124/124
f 124/124/124 63/63/63 62/62/62
f 64/64/64 63/63/63 124/124/124
f 124/124/124 125/125/125 64/64/64
f 126/126/126 127/127/127 68/68/68
f 68/68/68 67/67/67 126/126/126
f 49/49/49 48/48/48 128/128/128
f 128/128/128 129/129/129 49/49/49
f 105/105/105 130/130/130 131/131/131
f 131/131/131 106/106/106 105/105/105
f 71/71/71 111/111/111 110/110/110
f 110/110/110 72/72/72 71/71/71
f 113/113/113 112/112/112 73/73/73
f 73/73/73 74/74/74 113/113/113
f 132/132/132 77/77/77 76/76/76
f 76/76/76 117/117/117 132/132/132
f 117/117/117 76/76/76 78/78/78
f 78/78/78 118/118/118 117/117/117
f 119/119/119 97/97/97 96/96/96
f 96/96/96 120/120/120 119/119/119
f 79/79/79 121/121/121 122/122/122
f 122/122/122 80/80/80 79/79/79
f 123/123/123 82/82/82 81/81/81
f 81/81/81 124/124/124 123/123/123
f 124/124/124 81/81/81 83/83/83
f 83/83/83 125/125/125 124/124/124
f 84/84/84 85/85/85 127/127/127
f 127/127/127 126/126/126 84/84/84
f 129/129/129 128/128/128 69/69/69
f 69/69/69 70/70/70 129/129/129
f 131/131/131 130/130/130 109/109/109
f 109/109/109 108/108/108 131/131/131
f 133/133/133 134/134/134 21/21/21
f 21/21/21 20/20/20 133/133/133
f 133/133/133 20/20/20 69/69/69
f 69/69/69 135/135/135 133/133/133
f 135/135/135 69/69/69 128/128/128
f 128/128/128 136/136/136 135/135/135
f 136/136/136 128/128/128 48/48/48
f 48/48/48 137/137/137 136/136/136
f 47/47/47 138/138/138 137/137/137
f 137/137/137 48/48/48 47/47/47
f 139/139/139 24/24/24 23/23/23
f 23/23/23 140/140/140 139/139/139
f 140/140/140 23/23/23 59/59/59
f 59/59/59 141/141/141 140/140/140
f 141/141/141 59/59/59 121/121/121
f 121/121/121 142/142/142 141/141/141
f 143/143/143 142/142/142 121/121/121
f 121/121/121 79/79/79 143/143/143
f 144/144/144 143/143/143 79/79/79
f 79/79/79 28/28/28 144/144/144
f 145/145/145 144/144/144 28/28/28
f 28/28/28 27/27/27 145/145/145
f 146/146/146 145/145/145 27/27/27
f 27/27/27 32/32/32 146/146/146
f 8/8/8 7/7/7 147/147/147
f 147/147/147 148/148/148 8/8/8
f 78/78/78 8/8/8 148/148/148
f 148/148/148 149/149/149 78/78/78
f 118/118/118 78/78/78 149/149/149
f 149/149/149 150/150/150 118/118/118
f 151/151/151 58/58/58 118/118/118
f 118/118/118 150/150/150 151/151/151
f 152/152/152 11/11/11 58/58/58
f 58/58/58 151/151/151 152/152/152
f 11/11/11 152/152/152 153/153/153
f 153/153/153 12/12/12 11/11/11
f 43/43/43 154/154/154 155/155/155
f 155/155/155 52/52/52 43/43/43
f 52/52/52 155/155/155 156/156/156
f 156/156/156 110/110/110 52/52/52
f 72/72/72 110/110/110 156/156/156
f 156/156/156 157/157/157 72/72/72
f 158/158/158 42/42/42 72/72/72
f 72/72/72 157/157/157 158/158/158
f 159/159/159 160/160/160 161/161/161
f 161/161/161 162/162/162 159/159/159
f 163/163/163 147/147/147 7/7/7
f 7/7/7 10/10/10 163/163/163
f 162/162/162 161/161/161 164/164/164
f 164/164/164 165/165/165 162/162/162
f 166/166/166 167/167/167 168/168/168
f 168/168/168 169/169/169 166/166/166
f 170/170/170 171/171/171 167/167/167
f 167/167/167 166/166/166 170/170/170
f 172/172/172 171/171/171 170/170/170
f 170/170/170 173/173/173 172/172/172
f 174/174/174 172/172/172 173/173/173
f 173/173/173 175/175/175 174/174/174
f 176/176/176 174/174/174 175/175/175
f 175/175/175 177/177/177 176/176/176
f 178/178/178 179/179/179 180/180/180
f 180/180/180 181/181/181 178/178/178
f 182/182/182 104/104/104 107/107/107
f 107/107/107 183/183/183 182/182/182
f 184/184/184 47/47/47 50/50/50
f 50/50/50 185/185/185 184/184/184
f 138/138/138 47/47/47 184/184/184
f 184/184/184 186/186/186 138/138/138
f 65/65/65 64/64/64 67/67/67
f 67/67/67 66/66/66 65/65/65
f 67/67/67 64/64/64 125/125/125
f 125/125/125 126/126/126 67/67/67
f 125/125/125 83/83/83 84/84/84
f 84/84/84 126/126/126 125/125/125
f 83/83/83 1/1/1 15/15/15
f 15/15/15 84/84/84 83/83/83
f 15/15/15 1/1/1 4/4/4
f 4/4/4 16/16/16 15/15/15
f 22/22/22 21/21/21 187/187/187
f 187/187/187 188/188/188 22/22/22
f 89/89/89 88/88/88 189/189/189
f 189/189/189 190/190/190 89/89/89
f 191/191/191 192/192/192 106/106/106
f 106/106/106 131/131/131 191/191/191
f 192/192/192 193/193/193 107/107/107
f 107/107/107 106/106/106 192/192/192
f 183/183/183 107/107/107 193/193/193
f 193/193/193 194/194/194 183/183/183
f 98/98/98 103/103/103 195/195/195
f 195/195/195 196/196/196 98/98/98
f 196/196/196 197/197/197 99/99/99
f 99/99/99 98/98/98 196/196/196
f 99/99/99 197/197/197 198/198/198
f 198/198/198 119/119/119 99/99/99
f 119/119/119 198/198/198 199/199/199
f 199/199/199 97/97/97 119/119/119
f 97/97/97 199/199/199 200/200/200
f 200/200/200 95/95/95 97/97/97
f 95/95/95 200/200/200 201/201/201
f 201/201/201 91/91/91 95/95/95
f 202/202/202 92/92/92 91/91/91
f 91/91/91 201/201/201 202/202/202
f 190/190/190 203/203/203 204/204/204
f 204/204/204 89/89/89 190/190/190
f 89/89/89 204/204/204 205/205/205
f 205/205/205 86/86/86 89/89/89
f 86/86/86 205/205/205 206/206/206
f 206/206/206 108/108/108 86/86/86
f 108/108/108 206/206/206 191/191/191
f 191/191/191 131/131/131 108/108/108
f 207/207/207 208/208/208 38/38/38
f 38/38/38 37/37/37 207/207/207
f 33/33/33 209/209/209 210/210/210
f 211/211/211 209/209/209 33/33/33
f 212/212/212 213/213/213 73/73/73
f 214/214/214 215/215/215 112/112/112
f 216/216/216 217/217/217 55/55/55
f 44/44/44 218/218/218 219/219/219
f 219/219/219 45/45/45 44/44/44
f 220/220/220 218/218/218 51/51/51
f 221/221/221 51/51/51 111/111/111
f 222/222/222 111/111/111 71/71/71
f 223/223/223 71/71/71 41/41/41
f 38/38/38 208/208/208 41/41/41
f 224/224/224 225/225/225 80/80/80
f 80/80/80 122/122/122 224/224/224
f 226/226/226 224/224/224 122/122/122
f 122/122/122 60/60/60 226/226/226
f 227/227/227 226/226/226 60/60/60
f 60/60/60 26/26/26 227/227/227
f 228/228/228 227/227/227 26/26/26
f 26/26/26 25/25/25 228/228/228
f 185/185/185 50/50/50 229/229/229
f 229/229/229 230/230/230 185/185/185
f 231/231/231 229/229/229 50/50/50
f 50/50/50 49/49/49 231/231/231
f 232/232/232 231/231/231 49/49/49
f 49/49/49 129/129/129 232/232/232
f 232/232/232 129/129/129 70/70/70
f 70/70/70 233/233/233 232/232/232
f 233/233/233 70/70/70 19/19/19
f 19/19/19 234/234/234 233/233/233
f 234/234/234 19/19/19 22/22/22
f 22/22/22 235/235/235 234/234/234
f 235/235/235 22/22/22 188/188/188
f 188/188/188 236/236/236 235/235/235
f 30/30/30 237/237/237 238/238/238
f 238/238/238 31/31/31 30/30/30
f 29/29/29 239/239/239 237/237/237
f 237/237/237 30/30/30 29/29/29
f 80/80/80 225/225/225 239/239/239
f 239/239/239 29/29/29 80/80/80
f 240/240/240 138/138/138 186/186/186
f 186/186/186 241/241/241 240/240/240
f 138/138/138 240/240/240 242/242/242
f 242/242/242 137/137/137 138/138/138
f 137/137/137 242/242/242 243/243/243
f 243/243/243 136/136/136 137/137/137
f 136/136/136 243/243/243 244/244/244
f 244/244/244 135/135/135 136/136/136
f 133/133/133 135/135/135 244/244/244
f 244/244/244 245/245/245 133/133/133
f 134/134/134 133/133/133 245/245/245
f 245/245/245 246/246/246 134/134/134
f 247/247/247 134/134/134 246/246/246
f 246/246/246 248/248/248 247/247/247
f 145/145/145 146/146/146 249/249/249
f 249/249/249 250/250/250 145/145/145
f 144/144/144 145/145/145 250/250/250
f 250/250/250 251/251/251 144/144/144
f 143/143/143 144/144/144 251/251/251
f 251/251/251 252/252/252 143/143/143
f 253/253/253 142/142/142 143/143/143
f 143/143/143 252/252/252 253/253/253
f 254/254/254 141/141/141 142/142/142
f 142/142/142 253/253/253 254/254/254
f 255/255/255 140/140/140 141/141/141
f 141/141/141 254/254/254 255/255/255
f 140/140/140 255/255/255 256/256/256
f 256/256/256 139/139/139 140/140/140
f 187/187/187 21/21/21 134/134/134
f 134/134/134 247/247/247 187/187/187
f 257/257/257 166/166/166 169/169/169
f 169/169/169 258/258/258 257/257/257
f 259/259/259 170/170/170 166/166/166
f 166/166/166 257/257/257 259/259/259
f 173/173/173 170/170/170 259/259/259
f 259/259/259 260/260/260 173/173/173
f 175/175/175 173/173/173 260/260/260
f 260/260/260 115/115/115 175/175/175
f 177/177/177 175/175/175 115/115/115
f 115/115/115 114/114/114 177/177/177
f 260/260/260 259/259/259 77/77/77
f 77/77/77 132/132/132 260/260/260
f 259/259/259 257/257/257 75/75/75
f 75/75/75 77/77/77 259/259/259
f 260/260/260 132/132/132 116/116/116
f 116/116/116 115/115/115 260/260/260
f 257/257/257 258/258/258 5/5/5
f 5/5/5 75/75/75 257/257/257
f 116/116/116 132/132/132 117/117/117
f 117/117/117 57/57/57 116/116/116
f 221/221/221 220/220/220 51/51/51
f 218/218/218 44/44/44 51/51/51
f 261/261/261 221/221/221 111/111/111
f 222/222/222 261/261/261 111/111/111
f 262/262/262 222/222/222 71/71/71
f 223/223/223 262/262/262 71/71/71
f 263/263/263 223/223/223 41/41/41
f 208/208/208 263/263/263 41/41/41
f 54/54/54 216/216/216 55/55/55
f 55/55/55 217/217/217 214/214/214
f 55/55/55 214/214/214 112/112/112
f 112/112/112 215/215/215 212/212/212
f 112/112/112 212/212/212 73/73/73
f 73/73/73 213/213/213 211/211/211
f 73/73/73 211/211/211 33/33/33
f 33/33/33 210/210/210 34/34/34
f 264/264/264 265/265/265 266/266/266
f 266/266/266 267/267/267 264/264/264
f 267/267/267 266/266/266 268/268/268
f 268/268/268 269/269/269 267/267/267
f 270/270/270 271/271/271 272/272/272
f 272/272/272 273/273/273 270/270/270
f 274/274/274 275/275/275 276/276/276
f 276/276/276 277/277/277 274/274/274
f 275/275/275 265/265/265 264/264/264
f 264/264/264 276/276/276 275/275/275
f 272/272/272 271/271/271 278/278/278
f 278/278/278 279/279/279 272/272/272
f 265/265/265 280/280/280 266/266/266
f 275/275/275 280/280/280 265/265/265
f 274/274/274 280/280/280 275/275/275
f 271/271/271 281/281/281 278/278/278
f 270/270/270 281/281/281 271/271/271
f 266/266/266 280/280/280 268/268/268
f 282/282/282 283/283/283 284/284/284
f 284/284/284 285/285/285 282/282/282
f 285/285/285 284/284/284 286/286/286
f 286/286/286 287/287/287 285/285/285
f 288/288/288 289/289/289 290/290/290
f 290/290/290 291/291/291 288/288/288
f 292/292/292 293/293/293 294/294/294
f 294/294/294 295/295/295 292/292/292
f 293/293/293 283/283/283 282/282/282
f 282/282/282 294/294/294 293/293/293
f 290/290/290 289/289/289 296/296/296
f 296/296/296 297/297/297 290/290/290
f 283/283/283 298/298/298 284/284/284
f 293/293/293 298/298/298 283/283/283
f 292/292/292 298/298/298 293/293/293
f 289/289/289 299/299/299 296/296/296
f 288/288/288 299/299/299 289/289/289
f 284/284/284 298/298/298 286/286/286
f 300/300/300 301/301/301 302/302/302
f 302/302/302 303/303/303 300/300/300
f 303/303/303 302/302/302 304/304/304
f 304/304/304 305/305/305 303/303/303
f 306/306/306 307/307/307 308/308/308
f 308/308/308 309/309/309 306/306/306
f 310/310/310 311/311/311 312/312/312
f 312/312/312 313/313/313 310/310/310
f 311/311/311 301/301/301 300/300/300
f 300/300/300 312/312/312 311/311/311
f 308/308/308 307/307/307 314/314/314
f 314/314/314 315/315/315 308/308/308
f 301/301/301 316/316/316 302/302/302
f 311/311/311 316/316/316 301/301/301
f 310/310/310 316/316/316 311/311/311
f 307/307/307 317/317/317 314/314/314
f 306/306/306 317/317/317 307/307/307
f 302/302/302 316/316/316 304/304/304
f 318/318/318 319/319/319 320/320/320
f 320/320/320 321/321/321 318/318/318
f 321/321/321 320/320/320 322/322/322
f 322/322/322 323/323/323 321/321/321
f 324/324/324 325/325/325 326/326/326
f 326/326/326 327/327/327 324/324/324
f 328/328/328 329/329/329 330/330/330
f 330/330/330 331/331/331 328/328/328
f 329/329/329 319/319/319 318/318/318
f 318/318/318 330/330/330 329/329/329
f 326/326/326 325/325/325 332/332/332
f 332/332/332 333/333/333 326/326/326
f 319/319/319 334/334/334 320/320/320
f 329/329/329 334/334/334 319/319/319
f 328/328/328 334/334/334 329/329/329
f 325/325/325 335/335/335 332/332/332
f 324/324/324 335/335/335 325/325/325
f 320/320/320 334/334/334 322/322/322
f 336/336/336 337/337/337 192/192/192
f 192/192/192 191/191/191 336/336/336
f 337/337/337 338/338/338 193/193/193
f 193/193/193 192/192/192 337/337/337
f 194/194/194 193/193/193 338/338/338
f 338/338/338 339/339/339 194/194/194
f 196/196/196 195/195/195 340/340/340
f 340/340/340 341/341/341 196/196/196
f 196/196/196 341/341/341 342/342/342
f 342/342/342 197/197/197 196/196/196
f 342/342/342 343/343/343 198/198/198
f 198/198/198 197/197/197 342/342/342
f 198/198/198 343/343/343 344/344/344
f 344/344/344 199/199/199 198/198/198
f 199/199/199 344/344/344 345/345/345
f 345/345/345 200/200/200 199/199/199
f 345/345/345 346/346/346 201/201/201
f 201/201/201 200/200/200 345/345/345
f 347/347/347 202/202/202 201/201/201
f 201/201/201 346/346/346 347/347/347
f 203/203/203 348/348/348 349/349/349
f 349/349/349 204/204/204 203/203/203
f 204/204/204 349/349/349 350/350/350
f 350/350/350 205/205/205 204/204/204
f 205/205/205 350/350/350 351/351/351
f 351/351/351 206/206/206 205/205/205
f 206/206/206 351/351/351 336/336/336
f 336/336/336 191/191/191 206/206/206
f 352/352/352 350/350/350 349/349/349
f 349/349/349 159/159/159 352/352/352
f 350/350/350 352/352/352 353/353/353
f 353/353/353 351/351/351 350/350/350
f 353/353/353 354/354/354 336/336/336
f 336/336/336 351/351/351 353/353/353
f 337/337/337 336/336/336 354/354/354
f 354/354/354 355/355/355 337/337/337
f 338/338/338 337/337/337 355/355/355
f 355/355/355 356/356/356 338/338/338
f 338/338/338 356/356/356 357/357/357
f 357/357/357 339/339/339 338/338/338
f 341/341/341 340/340/340 153/153/153
f 153/153/153 152/152/152 341/341/341
f 341/341/341 152/152/152 151/151/151
f 151/151/151 342/342/342 341/341/341
f 151/151/151 150/150/150 343/343/343
f 343/343/343 342/342/342 151/151/151
f 150/150/150 149/149/149 344/344/344
f 344/344/344 343/343/343 150/150/150
f 344/344/344 149/149/149 148/148/148
f 148/148/148 345/345/345 344/344/344
f 148/148/148 147/147/147 346/346/346
f 346/346/346 345/345/345 148/148/148
f 163/163/163 347/347/347 346/346/346
f 346/346/346 147/147/147 163/163/163
f 349/349/349 348/348/348 160/160/160
f 160/160/160 159/159/159 349/349/349
f 237/237/237 90/90/90 93/93/93
f 93/93/93 238/238/238 237/237/237
f 88/88/88 235/235/235 236/236/236
f 236/236/236 189/189/189 88/88/88
f 87/87/87 234/234/234 235/235/235
f 235/235/235 88/88/88 87/87/87
f 109/109/109 233/233/233 234/234/234
f 234/234/234 87/87/87 109/109/109
f 130/130/130 232/232/232 233/233/233
f 233/233/233 109/109/109 130/130/130
f 231/231/231 232/232/232 130/130/130
f 130/130/130 105/105/105 231/231/231
f 229/229/229 231/231/231 105/105/105
f 105/105/105 104/104/104 229/229/229
f 230/230/230 229/229/229 104/104/104
f 104/104/104 182/182/182 230/230/230
f 227/227/227 228/228/228 102/102/102
f 102/102/102 101/101/101 227/227/227
f 101/101/101 100/100/100 226/226/226
f 226/226/226 227/227/227 101/101/101
f 100/100/100 120/120/120 224/224/224
f 224/224/224 226/226/226 100/100/100
f 120/120/120 96/96/96 225/225/225
f 225/225/225 224/224/224 120/120/120
f 239/239/239 225/225/225 96/96/96
f 96/96/96 94/94/94 239/239/239
f 239/239/239 94/94/94 90/90/90
f 90/90/90 237/237/237 239/239/239
f 181/181/181 357/357/357 356/356/356
f 356/356/356 178/178/178 181/181/181
f 358/358/358 352/352/352 159/159/159
f 159/159/159 162/162/162 358/358/358
f 39/39/39 359/359/359 360/360/360
f 360/360/360 40/40/40 39/39/39
f 361/361/361 362/362/362 363/363/363
f 363/363/363 364/364/364 361/361/361
f 365/365/365 361/361/361 364/364/364
f 364/364/364 366/366/366 365/365/365
f 367/367/367 368/368/368 365/365/365
f 365/365/365 366/366/366 367/367/367
f 369/369/369 370/370/370 368/368/368
f 368/368/368 367/367/367 369/369/369
f 371/371/371 372/372/372 370/370/370
f 370/370/370 369/369/369 371/371/371
f 43/43/43 46/46/46 373/373/373
f 373/373/373 154/154/154 43/43/43
f 352/352/352 358/358/358 374/374/374
f 374/374/374 353/353/353 352/352/352
f 374/374/374 375/375/375 354/354/354
f 354/354/354 353/353/353 374/374/374
f 376/376/376 355/355/355 354/354/354
f 354/354/354 375/375/375 376/376/376
f 376/376/376 178/178/178 356/356/356
f 356/356/356 355/355/355 376/376/376
f 42/42/42 158/158/158 359/359/359
f 359/359/359 39/39/39 42/42/42
f 358/358/358 158/158/158 157/157/157
f 157/157/157 374/374/374 358/358/358
f 157/157/157 156/156/156 375/375/375
f 375/375/375 374/374/374 157/157/157
f 155/155/155 376/376/376 375/375/375
f 375/375/375 156/156/156 155/155/155
f 178/178/178 376/376/376 155/155/155
f 155/155/155 154/154/154 178/178/178
f 154/154/154 373/373/373 179/179/179
f 179/179/179 178/178/178 154/154/154
f 176/176/176 371/371/371 369/369/369
f 369/369/369 174/174/174 176/176/176
f 174/174/174 369/369/369 367/367/367
f 367/367/367 172/172/172 174/174/174
f 172/172/172 367/367/367 366/366/366
f 366/366/366 171/171/171 172/172/172
f 366/366/366 364/364/364 167/167/167
f 167/167/167 171/171/171 366/366/366
f 364/364/364 363/363/363 168/168/168
f 168/168/168 167/167/167 364/364/364
f 359/359/359 162/162/162 165/165/165
f 165/165/165 360/360/360 359/359/359
f 158/158/158 358/358/358 162/162/162
f 162/162/162 359/359/359 158/158/158