mtllib 41792144.mtl
o Mesh

v 0.269199013710022 -1.0049350261688232 -0.7406499981880188
v 0.2577979862689972 -0.8760449886322021 -0.7406499981880188
v 0.3666589856147766 -0.9170809984207153 -0.5387099981307983
v 0.38282498717308044 -1.0049350261688232 -0.5387099981307983
v 0.33144301176071167 1.0 0.03053000010550022
v 0.18897099792957306 1.1971700191497803 -0.003280000062659383
v 0.18897099792957306 1.1971700191497803 0.18907000124454498
v 0.3034749925136566 1.0 0.2432209998369217
v 0.25782498717308044 -0.9072389602661133 0.4640029966831207
v 0.26919999718666077 -1.0049340724945068 0.46738201379776
v 0.39465099573135376 -1.0049340724945068 0.28392601013183594
v 0.3923580050468445 -0.9072339534759521 0.2647469937801361
v 0.39465099573135376 -1.0049340724945068 0.28392601013183594
v 0.26919999718666077 -1.0049340724945068 0.46738201379776
v 0.269199013710022 -1.0049340724945068 0.11262299865484238
v 0.42261800169944763 -1.0049340724945068 7.999999797903001e-05
v 0.42261800169944763 -1.0049340724945068 7.999999797903001e-05
v 0.4227159917354584 -0.8981620073318481 -0.02374899946153164
v -0.42797601222991943 -1.0049340724945068 7.999999797903001e-05
v -0.39606499671936035 -1.0049340724945068 0.31231799721717834
v -0.3961629867553711 -0.9080630540847778 0.28993698954582214
v -0.4026489853858948 -0.903365969657898 -0.005326000042259693
v 0.21493899822235107 -0.37648797035217285 -0.3482320010662079
v 0.20142099261283875 -0.07209396362304688 -0.3899169862270355
v 0.3535020053386688 -0.07207202911376953 -0.21077199280261993
v 0.3609650135040283 -0.38586294651031494 -0.18362699449062347
v -0.3263689875602722 -0.07204198837280273 0.20971199870109558
v -0.3587479889392853 -0.07205605506896973 -0.0205060001462698
v -0.36632099747657776 -0.38586294651031494 0.012462000362575054
v -0.33531999588012695 -0.38586294651031494 0.2484540045261383
v 0.19986799359321594 -0.07200205326080322 0.3554239869117737
v 0.2059050053358078 -0.3843580484390259 0.40634599328041077
v 0.3337930142879486 -0.38586294651031494 0.2200620025396347
v 0.3245300054550171 -0.07204198837280273 0.18183399736881256
v 0.3609650135040283 -0.38586294651031494 0.012462000362575054
v 0.352973997592926 -0.07205605506896973 -0.020508000627160072
v 0.18897099792957306 1.1971700191497803 -0.21642999351024628
v 0.33144301176071167 1.0 -0.22697700560092926
v 0.18837100267410278 0.9950199723243713 -0.3768100142478943
v -0.31936201453208923 0.43456000089645386 0.20046399533748627
v -0.2996169924736023 0.7066500186920166 0.1964319944381714
v -0.3315269947052002 0.7066500186920166 -0.0026130001060664654
v -0.35127198696136475 0.43456000089645386 -0.0038499999791383743
v 0.18840700387954712 1.0031390190124512 0.34175100922584534
v 0.32617199420928955 0.7066500186920166 -0.006492000073194504
v 0.2982040047645569 0.7066500186920166 0.1680389940738678
v 0.31796398758888245 0.43456000089645386 0.17207199335098267
v 0.3459320068359375 0.43456000089645386 -0.00773000018671155
v 0.20860600471496582 0.33420002460479736 -0.44817599654197693
v 0.3658129870891571 0.33389902114868164 -0.24706299602985382
v -0.33875998854637146 0.3335700035095215 0.19070899486541748
v -0.3584209978580475 0.33372998237609863 -0.048266999423503876
v 0.19735099375247955 0.3331500291824341 0.3409630060195923
v 0.3242349922657013 0.3335599899291992 0.1561339944601059
v 0.3653149902820587 0.33372002840042114 -0.04765800014138222
v 0.269199013710022 -1.0049340724945068 -0.28050100803375244
v 0.269199013710022 -1.0049350261688232 -0.7406499981880188
v 0.38282498717308044 -1.0049350261688232 -0.5387099981307983
v 0.42261800169944763 -1.0049340724945068 -0.28050100803375244
v 0.3666589856147766 -0.9170809984207153 -0.5387099981307983
v 0.39729100465774536 -0.8624019622802734 -0.27064698934555054
v 0.42261800169944763 -1.0049340724945068 -0.28050100803375244
v 0.38282498717308044 -1.0049350261688232 -0.5387099981307983
v 0.21954399347305298 -0.7684329748153687 -0.44548100233078003
v 0.39729100465774536 -0.8624019622802734 -0.27064698934555054
v -0.42797601222991943 -1.0049340724945068 -0.28050100803375244
v -0.4026489853858948 -0.8624019622802734 -0.27064698934555054
v -0.3720160126686096 -0.9170809984207153 -0.5387099981307983
v -0.38818299770355225 -1.0049340724945068 -0.5387099981307983
v -0.2117999941110611 -0.07209300994873047 -0.3894929885864258
v -0.3592680096626282 -0.07207095623016357 -0.21019800007343292
v -0.3588860034942627 0.33389997482299805 -0.24015399813652039
v -0.21158400177955627 0.33420002460479736 -0.43452200293540955
v -0.22675399482250214 -0.37648797035217285 -0.3482320010662079
v -0.36632099747657776 -0.38586294651031494 -0.18362699449062347
v -0.3720160126686096 -0.9170809984207153 -0.5387099981307983
v -0.4026489853858948 -0.8624019622802734 -0.27064698934555054
v -0.25927799940109253 -0.7670960426330566 -0.4529620110988617
v -0.27122101187705994 -0.8760440349578857 -0.7406499981880188
v -0.2829760015010834 -1.0049340724945068 -0.7406499981880188
v -0.38818299770355225 -1.0049340724945068 -0.5387099981307983
v -0.2829760015010834 -1.0049340724945068 -0.28050100803375244
v -0.42797601222991943 -1.0049340724945068 -0.28050100803375244
v -0.38818299770355225 -1.0049340724945068 -0.5387099981307983
v -0.2829760015010834 -1.0049340724945068 -0.7406499981880188
v -0.39606499671936035 -1.0049340724945068 0.31231799721717834
v -0.42797601222991943 -1.0049340724945068 7.999999797903001e-05
v -0.2829760015010834 -1.0049340724945068 0.11262299865484238
v -0.2829749882221222 -1.0049340724945068 0.46738201379776
v -0.2755880057811737 -0.9080690145492554 0.4754140079021454
v -0.2829749882221222 -1.0049340724945068 0.46738201379776
v -0.21029900014400482 -0.07200205326080322 0.3550179898738861
v -0.21772000193595886 -0.3843580484390259 0.40634599328041077
v -0.21518300473690033 0.3331599831581116 0.3548949956893921
v -0.3048889935016632 1.0 0.2716130018234253
v -0.19961899518966675 0.9898800253868103 0.34063899517059326
v -0.20026099681854248 1.1971700191497803 0.18907000124454498
v -0.20026099681854248 1.1971700191497803 -0.003280000062659383
v -0.3367989957332611 1.0 0.03440999984741211
v -0.3367989957332611 1.0 -0.22697700560092926
v -0.20026099681854248 1.1971700191497803 -0.21642999351024628
v -0.19965599477291107 0.99795001745224 -0.37687399983406067
v 0.06406600028276443 -0.0721060037612915 -0.42471200227737427
v 0.0638199970126152 0.3343290090560913 -0.4733169972896576
v 0.07324100285768509 -0.3697580099105835 -0.3801940083503723
v 0.08404800295829773 -0.7330670356750488 -0.4943870007991791
v 0.08808500319719315 -0.8449900150299072 -0.8378530144691467
v 0.09205800294876099 -1.0049350261688232 -0.8378530144691467
v 0.09205800294876099 -1.0049340724945068 -0.28050100803375244
v 0.09205800294876099 -1.0049350261688232 -0.8378530144691467
v 0.09205900132656097 -1.0049340724945068 0.5307239890098572
v 0.09205800294876099 -1.0049340724945068 0.14591799676418304
v 0.25782498717308044 -0.9072389602661133 0.4640029966831207
v 0.08956199884414673 -0.9080690145492554 0.5406140089035034
v 0.09205900132656097 -1.0049340724945068 0.5307239890098572
v 0.26919999718666077 -1.0049340724945068 0.46738201379776
v 0.2059050053358078 -0.3843580484390259 0.40634599328041077
v 0.19986799359321594 -0.07200205326080322 0.3554239869117737
v 0.06351800262928009 -0.07197296619415283 0.398963987827301
v 0.07000400125980377 -0.3843580484390259 0.4611470103263855
v 0.19735099375247955 0.3331500291824341 0.3409630060195923
v 0.06303100287914276 0.3328999876976013 0.3964560031890869
v 0.06410299986600876 1.1971700191497803 0.18907000124454498
v 0.06392599642276764 0.9988800287246704 0.3837049901485443
v 0.06410299986600876 1.1971700191497803 -0.021846000105142593
v 0.0638900026679039 0.9959589838981628 -0.4159710109233856
v 0.06410299986600876 1.1971700191497803 -0.25557100772857666
v -0.35127198696136475 0.43456000089645386 -0.2287919968366623
v -0.3315269947052002 0.7066500186920166 -0.22171500325202942
v -0.19677899777889252 0.7053999900817871 -0.37770000100135803
v -0.20863400399684906 0.43393999338150024 -0.40168699622154236
v 0.06694000214338303 0.43333899974823 -0.4328109920024872
v 0.0629199966788292 0.704198956489563 -0.4112280011177063
v 0.18558500707149506 0.7036299705505371 -0.37766098976135254
v 0.19710400700569153 0.4330499768257141 -0.4016680121421814
v 0.32617199420928955 0.7066500186920166 -0.22171500325202942
v 0.3459320068359375 0.43456000089645386 -0.2287919968366623
v 0.18560700118541718 0.708549976348877 0.28712499141693115
v 0.1971150040626526 0.43550997972488403 0.31416401267051697
v 0.18560700118541718 0.708549976348877 0.28712499141693115
v 0.0629429966211319 0.7059699892997742 0.31880301237106323
v 0.06695199757814407 0.43422001600265503 0.3391689956188202
v 0.1971150040626526 0.43550997972488403 0.31416401267051697
v -0.1967560052871704 0.7005200386047363 0.2864519953727722
v -0.208623006939888 0.43150001764297485 0.3138270080089569
v -0.08193299919366837 -0.7330670356750488 -0.4943870007991791
v -0.08562099933624268 -0.8449889421463013 -0.8378530144691467
v -0.08925200253725052 -1.0049350261688232 -0.8378530144691467
v -0.08925200253725052 -1.0049340724945068 -0.28050100803375244
v -0.08925200253725052 -1.0049350261688232 -0.8378530144691467
v -0.08925200253725052 -1.0049340724945068 0.14591799676418304
v -0.08925099670886993 -1.0049340724945068 0.5307239890098572
v -0.08925099670886993 -1.0049340724945068 0.5307239890098572
v -0.08193200081586838 -0.9072389602661133 0.5253069996833801
v -0.2755880057811737 -0.9080690145492554 0.4754140079021454
v -0.2829749882221222 -1.0049340724945068 0.46738201379776
v -0.06316900253295898 -0.07197296619415283 0.3990730047225952
v -0.21029900014400482 -0.07200205326080322 0.3550179898738861
v -0.21772000193595886 -0.3843580484390259 0.40634599328041077
v -0.06909599900245667 -0.3843580484390259 0.4611470103263855
v -0.06063099950551987 0.3328999876976013 0.380621999502182
v -0.21518300473690033 0.3331599831581116 0.3548949956893921
v -0.0662740021944046 0.43290001153945923 0.3390589952468872
v -0.062609001994133 0.7033300399780273 0.3185819983482361
v -0.1967560052871704 0.7005200386047363 0.2864519953727722
v -0.208623006939888 0.43150001764297485 0.3138270080089569
v -0.0637039989233017 1.1971700191497803 0.18907000124454498
v -0.06348499655723572 0.9945300221443176 0.3833400011062622
v -0.0637039989233017 1.1971700191497803 -0.021846000105142593
v -0.0637039989233017 1.1971700191497803 -0.25557100772857666
v -0.06352099776268005 0.9969199895858765 -0.41599199175834656
v -0.06263100355863571 0.7047899961471558 -0.41124001145362854
v -0.06628599762916565 0.43362998962402344 -0.4328170120716095
v -0.0656220018863678 0.3343290090560913 -0.4880650043487549
v -0.063680000603199 -0.0721060037612915 -0.42486199736595154
v 0.18837100267410278 0.9950199723243713 -0.3768100142478943
v 0.33144301176071167 1.0 -0.22697700560092926
v 0.0638900026679039 0.9959589838981628 -0.4159710109233856
v -0.06352099776268005 0.9969199895858765 -0.41599199175834656
v -0.19965599477291107 0.99795001745224 -0.37687399983406067
v -0.3367989957332611 1.0 -0.22697700560092926
v -0.3367989957332611 1.0 0.03440999984741211
v -0.3048889935016632 1.0 0.2716130018234253
v -0.19961899518966675 0.9898800253868103 0.34063899517059326
v -0.06348499655723572 0.9945300221443176 0.3833400011062622
v -0.19961899518966675 0.9898800253868103 0.34063899517059326
v 0.06392599642276764 0.9988800287246704 0.3837049901485443
v 0.18840700387954712 1.0031390190124512 0.34175100922584534
v 0.3034749925136566 1.0 0.2432209998369217
v 0.18840700387954712 1.0031390190124512 0.34175100922584534
v 0.33144301176071167 1.0 0.03053000010550022
v 0.2237129956483841 -0.5813519954681396 -0.3629390001296997
v 0.3724600076675415 -0.6450380086898804 -0.2053930014371872
v 0.3724600076675415 -0.6534329652786255 0.015204000286757946
v 0.3460640013217926 -0.6610089540481567 0.24492000043392181
v 0.2237129956483841 -0.6663700342178345 0.44579899311065674
v 0.07620900124311447 -0.6663700342178345 0.505620002746582
v 0.2237129956483841 -0.6663700342178345 0.44579899311065674
v -0.07476600259542465 -0.6663700342178345 0.505620002746582
v -0.23608000576496124 -0.6663700342178345 0.44579899311065674
v -0.3477010130882263 -0.6610089540481567 0.2733129858970642
v -0.23608000576496124 -0.6663700342178345 0.44579899311065674
v -0.37781599164009094 -0.6534329652786255 0.015204999595880508
v -0.23608000576496124 -0.5813519954681396 -0.3629379868507385
v -0.37781599164009094 -0.6450380086898804 -0.2053920030593872
v -0.07476600259542465 -0.5530309677124023 -0.3990350067615509
v -0.07179100066423416 -0.3697580099105835 -0.3801940083503723
v 0.07620900124311447 -0.5530309677124023 -0.3990350067615509
v 0.3658129870891571 0.33389902114868164 -0.24706299602985382
v 0.20860600471496582 0.33420002460479736 -0.44817599654197693
v 0.17246200144290924 0.33639001846313477 -0.36085399985313416
v 0.30264899134635925 0.33639001846313477 -0.2035199999809265
v -0.33875998854637146 0.3335700035095215 0.19070899486541748
v -0.27606499195098877 0.33639001846313477 0.1715649962425232
v -0.30797499418258667 0.33639001846313477 -0.037390001118183136
v -0.3584209978580475 0.33372998237609863 -0.048266999423503876
v 0.17246200144290924 0.33639001846313477 0.2747949957847595
v 0.19735099375247955 0.3331500291824341 0.3409630060195923
v 0.3242349922657013 0.3335599899291992 0.1561339944601059
v 0.2746810019016266 0.33639001846313477 0.1431729942560196
v 0.30264899134635925 0.33639001846313477 -0.037390001118183136
v 0.3653149902820587 0.33372002840042114 -0.04765800014138222
v -0.3588860034942627 0.33389997482299805 -0.24015399813652039
v -0.30797499418258667 0.33639001846313477 -0.2035199999809265
v -0.18321099877357483 0.33639001846313477 -0.36085399985313416
v -0.21158400177955627 0.33420002460479736 -0.43452200293540955
v -0.18321099877357483 0.33639001846313477 0.2747949957847595
v -0.21518300473690033 0.3331599831581116 0.3548949956893921
v 0.0638199970126152 0.3343290090560913 -0.4733169972896576
v 0.05835900083184242 0.33639001846313477 -0.3846510052680969
v 0.05835900083184242 0.33639001846313477 0.28997498750686646
v 0.06303100287914276 0.3328999876976013 0.3964560031890869
v -0.06063099950551987 0.3328999876976013 0.380621999502182
v -0.05842699855566025 0.33639001846313477 0.28997498750686646
v -0.05842699855566025 0.33639001846313477 -0.3846510052680969
v -0.0656220018863678 0.3343290090560913 -0.4880650043487549
v 0.3724600076675415 -0.6450380086898804 -0.2053930014371872
v -0.37781599164009094 -0.6450380086898804 -0.2053920030593872
v -0.36632099747657776 -0.38586294651031494 -0.18362699449062347
v -0.3592680096626282 -0.07207095623016357 -0.21019800007343292
v -0.3588860034942627 0.33389997482299805 -0.24015399813652039
v -0.3315269947052002 0.7066500186920166 -0.22171500325202942
v -0.35127198696136475 0.43456000089645386 -0.2287919968366623
v -0.3367989957332611 1.0 -0.22697700560092926
v 0.3535020053386688 -0.07207202911376953 -0.21077199280261993
v 0.3658129870891571 0.33389902114868164 -0.24706299602985382
v 0.3609650135040283 -0.38586294651031494 -0.18362699449062347
v 0.17246200144290924 0.33639001846313477 -0.36085399985313416
v 0.05835900083184242 0.33639001846313477 -0.3846510052680969
v 0.30264899134635925 0.33639001846313477 -0.2035199999809265
v 0.30264899134635925 0.33639001846313477 -0.037390001118183136
v 0.2746810019016266 0.33639001846313477 0.1431729942560196
v 0.17246200144290924 0.33639001846313477 0.2747949957847595
v 0.17246200144290924 0.33639001846313477 0.2747949957847595
v 0.05835900083184242 0.33639001846313477 0.28997498750686646
v -0.05842699855566025 0.33639001846313477 0.28997498750686646
v -0.18321099877357483 0.33639001846313477 0.2747949957847595
v -0.27606499195098877 0.33639001846313477 0.1715649962425232
v -0.18321099877357483 0.33639001846313477 0.2747949957847595
v -0.30797499418258667 0.33639001846313477 -0.037390001118183136
v -0.30797499418258667 0.33639001846313477 -0.2035199999809265
v -0.18321099877357483 0.33639001846313477 -0.36085399985313416
v -0.30797499418258667 0.33639001846313477 -0.2035199999809265
v -0.05842699855566025 0.33639001846313477 -0.3846510052680969

vn 0.5629780292510986 -0.623054027557373 -0.5430089831352234
vn 0.6465960144996643 0.4931739866733551 -0.5819740295410156
vn 0.852537989616394 0.43559199571609497 -0.28885701298713684
vn 0.7552490234375 -0.6036040186882019 -0.25546199083328247
vn 0.9589170217514038 0.27778100967407227 0.05759400129318237
vn 0.45514699816703796 0.8904169797897339 -0.0
vn 0.4010860025882721 0.8358269929885864 0.37486499547958374
vn 0.8543940186500549 0.20628899335861206 0.47692298889160156
vn 0.6312280297279358 0.11612799763679504 0.7668539881706238
vn 0.49428701400756836 -0.6062570214271545 0.6230030059814453
vn 0.7299799919128418 -0.6207240223884583 0.28606298565864563
vn 0.9347550272941589 0.13769599795341492 0.32752498984336853
vn 0.7299799919128418 -0.6207240223884583 0.28606298565864563
vn 0.49428701400756836 -0.6062570214271545 0.6230030059814453
vn -0.0 -1.0 0.0
vn 0.7216399908065796 -0.6909400224685669 0.04285399988293648
vn 0.7216399908065796 -0.6909400224685669 0.04285399988293648
vn 0.9940080046653748 0.10478699952363968 0.031125999987125397
vn -0.7906649708747864 -0.6120160222053528 0.01689700037240982
vn -0.724029004573822 -0.6268399953842163 0.2878429889678955
vn -0.9432460069656372 0.13490499556064606 0.3034589886665344
vn -0.9854239821434021 0.1693280041217804 0.016333000734448433
vn 0.5230180025100708 0.002885000081732869 -0.8523169755935669
vn 0.5239139795303345 -0.11079800128936768 -0.8445339798927307
vn 0.9372239708900452 -0.036816999316215515 -0.346780002117157
vn 0.9403579831123352 0.031895000487565994 -0.338687002658844
vn -0.920861005783081 0.028156999498605728 0.3888719975948334
vn -0.9978060126304626 0.011903000064194202 0.06512799859046936
vn -0.9969279766082764 0.03861499950289726 0.06814700365066528
vn -0.9226509928703308 0.07660699635744095 0.3779509961605072
vn 0.5932379961013794 0.08471699804067612 0.800557017326355
vn 0.617933988571167 0.14323799312114716 0.7730720043182373
vn 0.930450975894928 0.07355699688196182 0.3589569926261902
vn 0.9295589923858643 0.044610001146793365 0.36596500873565674
vn 0.9969239830970764 0.039232999086380005 0.06784400343894958
vn 0.9971619844436646 0.009108999744057655 0.07473299652338028
vn 0.44554299116134644 0.8349729776382446 -0.32297399640083313
vn 0.8972989916801453 0.2717779874801636 -0.34783801436424255
vn 0.49298998713493347 0.2795960009098053 -0.823885977268219
vn -0.8749369978904724 -0.187172994017601 0.4465999901294708
vn -0.886913001537323 -0.027038000524044037 0.46114400029182434
vn -0.9968379735946655 0.022863000631332397 0.07609499990940094
vn -0.9803249835968018 -0.17989900708198547 0.08123300224542618
vn 0.43984100222587585 0.23896700143814087 0.8656989932060242
vn 0.9968400001525879 0.022923000156879425 0.07604999840259552
vn 0.9085450172424316 -0.013403999619185925 0.4175719916820526
vn 0.8932890295982361 -0.18994200229644775 0.4073779881000519
vn 0.9805780053138733 -0.17875100672245026 0.0807190015912056
vn 0.4149110019207001 0.5809260010719299 -0.7002670168876648
vn 0.7476019859313965 0.6043429970741272 -0.27542901039123535
vn -0.7211660146713257 0.6354479789733887 0.2759090065956116
vn -0.7317929863929749 0.6808769702911377 0.029751000925898552
vn 0.4733380079269409 0.6437100172042847 0.6013230085372925
vn 0.7029880285263062 0.6519460082054138 0.2842079997062683
vn 0.7460799813270569 0.6619430184364319 0.07208099961280823
vn -0.0 -1.0 0.0
vn 0.5629780292510986 -0.623054027557373 -0.5430089831352234
vn 0.7552490234375 -0.6036040186882019 -0.25546199083328247
vn 0.771822988986969 -0.6305689811706543 -0.08167900145053864
vn 0.852537989616394 0.43559199571609497 -0.28885701298713684
vn 0.9301499724388123 0.28137001395225525 -0.2359050065279007
vn 0.771822988986969 -0.6305689811706543 -0.08167900145053864
vn 0.7552490234375 -0.6036040186882019 -0.25546199083328247
vn 0.5885300040245056 0.6257190108299255 -0.5119659900665283
vn 0.9301499724388123 0.28137001395225525 -0.2359050065279007
vn -0.7826570272445679 -0.620123028755188 -0.05380599945783615
vn -0.9548590183258057 0.2480030059814453 -0.1635189950466156
vn -0.8771669864654541 0.389835000038147 -0.28036999702453613
vn -0.7569040060043335 -0.6065850257873535 -0.24320900440216064
vn -0.5245059728622437 -0.09122999757528305 -0.8465049862861633
vn -0.9405149817466736 -0.018098000437021255 -0.3392699956893921
vn -0.7408810257911682 0.6167119741439819 -0.26600900292396545
vn -0.4595339894294739 0.5992850065231323 -0.6555039882659912
vn -0.5247210264205933 0.0044280001893639565 -0.8512629866600037
vn -0.9439740180969238 0.03192099928855896 -0.32847198843955994
vn -0.8771669864654541 0.389835000038147 -0.28036999702453613
vn -0.9548590183258057 0.2480030059814453 -0.1635189950466156
vn -0.5920190215110779 0.635312020778656 -0.4958750009536743
vn -0.635109007358551 0.48851001262664795 -0.5983269810676575
vn -0.5665919780731201 -0.6160680055618286 -0.5472059845924377
vn -0.7569040060043335 -0.6065850257873535 -0.24320900440216064
vn -0.0 -1.0 0.0
vn -0.7826570272445679 -0.620123028755188 -0.05380599945783615
vn -0.7569040060043335 -0.6065850257873535 -0.24320900440216064
vn -0.5665919780731201 -0.6160680055618286 -0.5472059845924377
vn -0.724029004573822 -0.6268399953842163 0.2878429889678955
vn -0.7906649708747864 -0.6120160222053528 0.01689700037240982
vn -0.0 -1.0 0.0
vn -0.45916301012039185 -0.6514040231704712 0.6040220260620117
vn -0.5781229734420776 0.0996680036187172 0.8098390102386475
vn -0.45916301012039185 -0.6514040231704712 0.6040220260620117
vn -0.5597270131111145 0.07721199840307236 0.8250719904899597
vn -0.5917919874191284 0.14577199518680573 0.792801022529602
vn -0.40457800030708313 0.620173990726471 0.6720870137214661
vn -0.8089339733123779 0.219760000705719 0.5452809929847717
vn -0.38269901275634766 0.21294499933719635 0.8989970088005066
vn -0.40204301476478577 0.832190990447998 0.3818640112876892
vn -0.4640519917011261 0.885807991027832 -0.0
vn -0.9616209864616394 0.2679649889469147 0.058984000235795975
vn -0.9031260013580322 0.263604998588562 -0.3389340043067932
vn -0.44975700974464417 0.8325999975204468 -0.32325899600982666
vn -0.489096999168396 0.28375598788261414 -0.8247830271720886
vn 0.11771500110626221 -0.13584500551223755 -0.9837120175361633
vn 0.10026399791240692 0.6437780261039734 -0.7586150169372559
vn 0.11418300122022629 -0.01931999996304512 -0.9932720065116882
vn 0.19960500299930573 0.7524669766426086 -0.6276559829711914
vn 0.23618899285793304 0.5574420094490051 -0.7959100008010864
vn 0.19602400064468384 -0.6509150266647339 -0.7334060072898865
vn -0.0 -1.0 0.0
vn 0.19602400064468384 -0.6509150266647339 -0.7334060072898865
vn 0.12784600257873535 -0.6886379718780518 0.7137460112571716
vn -0.0 -1.0 0.0
vn 0.6312280297279358 0.11612799763679504 0.7668539881706238
vn 0.16355499625205994 0.022067999467253685 0.986286997795105
vn 0.12784600257873535 -0.6886379718780518 0.7137460112571716
vn 0.49428701400756836 -0.6062570214271545 0.6230030059814453
vn 0.617933988571167 0.14323799312114716 0.7730720043182373
vn 0.5932379961013794 0.08471699804067612 0.800557017326355
vn 0.1636279970407486 0.10193099826574326 0.9812420010566711
vn 0.18724499642848969 0.1757200062274933 0.9664689898490906
vn 0.4733380079269409 0.6437100172042847 0.6013230085372925
vn 0.10838600248098373 0.6512569785118103 0.7510769963264465
vn 0.01764499954879284 0.914434015750885 0.4043489992618561
vn 0.1429540067911148 0.26079899072647095 0.9547500014305115
vn 0.0 1.0 -0.0
vn 0.14037999510765076 0.3131279945373535 -0.9392780065536499
vn 0.07673300057649612 0.8826760053634644 -0.46367698907852173
vn -0.9237509965896606 -0.178166002035141 -0.339029997587204
vn -0.9361649751663208 0.030355999246239662 -0.3502489924430847
vn -0.5258389711380005 0.03905399888753891 -0.8496869802474976
vn -0.5133039951324463 -0.16987599432468414 -0.8412259817123413
vn 0.11512300372123718 -0.1821019947528839 -0.9765170216560364
vn 0.13306300342082977 0.03223799914121628 -0.9905830025672913
vn 0.5263969898223877 0.03901899978518486 -0.8493430018424988
vn 0.5121189951896667 -0.17120499908924103 -0.8416789770126343
vn 0.9323059916496277 0.03026599995791912 -0.36040198802948
vn 0.9202849864959717 -0.17794199287891388 -0.3484419882297516
vn 0.5042819976806641 -0.046870000660419464 0.8622660040855408
vn 0.493149995803833 -0.1603730022907257 0.8550339937210083
vn 0.5042819976806641 -0.046870000660419464 0.8622660040855408
vn 0.13210900127887726 -0.06502699851989746 0.9890999794006348
vn 0.09266000241041183 -0.18074199557304382 0.9791560173034668
vn 0.493149995803833 -0.1603730022907257 0.8550339937210083
vn -0.45923298597335815 -0.05303499847650528 0.8867310285568237
vn -0.46676701307296753 -0.16880400478839874 0.8681210279464722
vn -0.1548050045967102 0.7568169832229614 -0.6350299715995789
vn -0.22069400548934937 0.5597280263900757 -0.7987480163574219
vn -0.181101992726326 -0.6548640131950378 -0.733726978302002
vn -0.0 -1.0 0.0
vn -0.181101992726326 -0.6548640131950378 -0.733726978302002
vn -0.0 -1.0 0.0
vn -0.10606399923563004 -0.6558099985122681 0.7474380135536194
vn -0.10606399923563004 -0.6558099985122681 0.7474380135536194
vn -0.15441100299358368 0.08161900192499161 0.9846299886703491
vn -0.5781229734420776 0.0996680036187172 0.8098390102386475
vn -0.45916301012039185 -0.6514040231704712 0.6040220260620117
vn -0.1547269970178604 0.10831300169229507 0.9820020198822021
vn -0.5597270131111145 0.07721199840307236 0.8250719904899597
vn -0.5917919874191284 0.14577199518680573 0.792801022529602
vn -0.17272800207138062 0.17551499605178833 0.9692059755325317
vn -0.11247599869966507 0.6995369791984558 0.705689013004303
vn -0.40457800030708313 0.620173990726471 0.6720870137214661
vn -0.08483900129795074 -0.18323099613189697 0.9794020056724548
vn -0.12195400148630142 -0.06534600257873535 0.9903820157051086
vn -0.45923298597335815 -0.05303499847650528 0.8867310285568237
vn -0.46676701307296753 -0.16880400478839874 0.8681210279464722
vn -0.023295000195503235 0.9113550186157227 0.41096198558807373
vn -0.1502770036458969 0.255484014749527 0.955062985420227
vn 0.0 1.0 -0.0
vn -0.0681999996304512 0.8851869702339172 -0.46020999550819397
vn -0.12492500245571136 0.31528499722480774 -0.9407389760017395
vn -0.12177400290966034 0.032099999487400055 -0.9920390248298645
vn -0.1057640016078949 -0.18174299597740173 -0.9776419997215271
vn -0.094200998544693 0.5935779809951782 -0.7992439866065979
vn -0.11564700305461884 -0.13301600515842438 -0.9843440055847168
vn 0.49298998713493347 0.2795960009098053 -0.823885977268219
vn 0.8972989916801453 0.2717779874801636 -0.34783801436424255
vn 0.14037999510765076 0.3131279945373535 -0.9392780065536499
vn -0.12492500245571136 0.31528499722480774 -0.9407389760017395
vn -0.489096999168396 0.28375598788261414 -0.8247830271720886
vn -0.9031260013580322 0.263604998588562 -0.3389340043067932
vn -0.9616209864616394 0.2679649889469147 0.058984000235795975
vn -0.8089339733123779 0.219760000705719 0.5452809929847717
vn -0.38269901275634766 0.21294499933719635 0.8989970088005066
vn -0.1502770036458969 0.255484014749527 0.955062985420227
vn -0.38269901275634766 0.21294499933719635 0.8989970088005066
vn 0.1429540067911148 0.26079899072647095 0.9547500014305115
vn 0.43984100222587585 0.23896700143814087 0.8656989932060242
vn 0.8543940186500549 0.20628899335861206 0.47692298889160156
vn 0.43984100222587585 0.23896700143814087 0.8656989932060242
vn 0.9589170217514038 0.27778100967407227 0.05759400129318237
vn 0.5648229718208313 0.2205660045146942 -0.7951890230178833
vn 0.930433988571167 0.15692299604415894 -0.3311609923839569
vn 0.9905700087547302 0.12110999971628189 0.06406400352716446
vn 0.9304530024528503 0.13936200737953186 0.3388729989528656
vn 0.6346949934959412 0.15224400162696838 0.7576169967651367
vn 0.1784050017595291 0.14374800026416779 0.9733999967575073
vn 0.6346949934959412 0.15224400162696838 0.7576169967651367
vn -0.17407700419425964 0.1206820011138916 0.977308988571167
vn -0.5991690158843994 0.1585250049829483 0.7847710251808167
vn -0.9255049824714661 0.14810900390148163 0.34857600927352905
vn -0.5991690158843994 0.1585250049829483 0.7847710251808167
vn -0.99515700340271 0.08463499695062637 0.049991998821496964
vn -0.5529299974441528 0.2632170021533966 -0.7905600070953369
vn -0.9464830160140991 0.1464570015668869 -0.2876110076904297
vn -0.12613900005817413 0.2816520035266876 -0.9511889815330505
vn -0.10514800250530243 -0.019217999652028084 -0.9942709803581238
vn 0.1375409960746765 0.2809939980506897 -0.9498019814491272
vn 0.7476019859313965 0.6043429970741272 -0.27542901039123535
vn 0.4149110019207001 0.5809260010719299 -0.7002670168876648
vn 0.4131770133972168 0.6088650226593018 -0.6771770119667053
vn 0.7516369819641113 0.6102579832077026 -0.2502540051937103
vn -0.7211660146713257 0.6354479789733887 0.2759090065956116
vn -0.7347279787063599 0.5826230049133301 0.3474549949169159
vn -0.8431379795074463 0.5351340174674988 0.05244499817490578
vn -0.7317929863929749 0.6808769702911377 0.029751000925898552
vn 0.39486101269721985 0.6148650050163269 0.6826609969139099
vn 0.4733380079269409 0.6437100172042847 0.6013230085372925
vn 0.7029880285263062 0.6519460082054138 0.2842079997062683
vn 0.7630500197410583 0.5625690221786499 0.318230003118515
vn 0.8400189876556396 0.5395669937133789 0.05688200145959854
vn 0.7460799813270569 0.6619430184364319 0.07208099961280823
vn -0.7408810257911682 0.6167119741439819 -0.26600900292396545
vn -0.7598720192909241 0.6028820276260376 -0.24316300451755524
vn -0.4123860001564026 0.6126070022583008 -0.6742780208587646
vn -0.4595339894294739 0.5992850065231323 -0.6555039882659912
vn -0.3720549941062927 0.6103429794311523 0.6993259787559509
vn -0.40457800030708313 0.620173990726471 0.6720870137214661
vn 0.10026399791240692 0.6437780261039734 -0.7586150169372559
vn 0.08455300331115723 0.5406969785690308 -0.8369569778442383
vn 0.05694299936294556 0.5234370231628418 0.8501589894294739
vn 0.10838600248098373 0.6512569785118103 0.7510769963264465
vn -0.11247599869966507 0.6995369791984558 0.705689013004303
vn -0.05028799921274185 0.5196599960327148 0.8528919816017151
vn -0.07876899838447571 0.5397909879684448 -0.8381050229072571
vn -0.094200998544693 0.5935779809951782 -0.7992439866065979
vn 0.930433988571167 0.15692299604415894 -0.3311609923839569
vn -0.9464830160140991 0.1464570015668869 -0.2876110076904297
vn -0.9439740180969238 0.03192099928855896 -0.32847198843955994
vn -0.9405149817466736 -0.018098000437021255 -0.3392699956893921
vn -0.7408810257911682 0.6167119741439819 -0.26600900292396545
vn -0.9361649751663208 0.030355999246239662 -0.3502489924430847
vn -0.9237509965896606 -0.178166002035141 -0.339029997587204
vn -0.9031260013580322 0.263604998588562 -0.3389340043067932
vn 0.9372239708900452 -0.036816999316215515 -0.346780002117157
vn 0.7476019859313965 0.6043429970741272 -0.27542901039123535
vn 0.9403579831123352 0.031895000487565994 -0.338687002658844
vn 0.4131770133972168 0.6088650226593018 -0.6771770119667053
vn 0.08455300331115723 0.5406969785690308 -0.8369569778442383
vn 0.7516369819641113 0.6102579832077026 -0.2502540051937103
vn 0.8400189876556396 0.5395669937133789 0.05688200145959854
vn 0.7630500197410583 0.5625690221786499 0.318230003118515
vn 0.39486101269721985 0.6148650050163269 0.6826609969139099
vn 0.39486101269721985 0.6148650050163269 0.6826609969139099
vn 0.05694299936294556 0.5234370231628418 0.8501589894294739
vn -0.05028799921274185 0.5196599960327148 0.8528919816017151
vn -0.3720549941062927 0.6103429794311523 0.6993259787559509
vn -0.7347279787063599 0.5826230049133301 0.3474549949169159
vn -0.3720549941062927 0.6103429794311523 0.6993259787559509
vn -0.8431379795074463 0.5351340174674988 0.05244499817490578
vn -0.7598720192909241 0.6028820276260376 -0.24316300451755524
vn -0.4123860001564026 0.6126070022583008 -0.6742780208587646
vn -0.7598720192909241 0.6028820276260376 -0.24316300451755524
vn -0.07876899838447571 0.5397909879684448 -0.8381050229072571

vt 0.7587860226631165 0.12050497531890869
vt 0.7652440071105957 0.12337702512741089
vt 0.769756019115448 0.11469197273254395
vt 0.7654070258140564 0.11161601543426514
vt 0.5228430032730103 0.303987979888916
vt 0.5060150027275085 0.2975410223007202
vt 0.5066800117492676 0.32409900426864624
vt 0.5228430032730103 0.3586429953575134
vt 0.7762560248374939 0.05458301305770874
vt 0.7712420225143433 0.05449801683425903
vt 0.7706630229949951 0.06579899787902832
vt 0.7756569981575012 0.06675201654434204
vt 0.6632109880447388 0.23474299907684326
vt 0.6521700024604797 0.23474299907684326
vt 0.6521700024604797 0.272724986076355
vt 0.6632109880447388 0.28294801712036133
vt 0.7708550095558167 0.08034801483154297
vt 0.776390016078949 0.08145201206207275
vt 0.7699090242385864 0.1913430094718933
vt 0.7689819931983948 0.20730102062225342
vt 0.7739819884300232 0.20635902881622314
vt 0.7752659916877747 0.19148802757263184
vt 0.8015720248222351 0.12399297952651978
vt 0.8179870247840881 0.12523001432418823
vt 0.8185840249061584 0.11355102062225342
vt 0.8030250072479248 0.11240702867507935
vt 0.8172839879989624 0.20507901906967163
vt 0.8178210258483887 0.19325101375579834
vt 0.8016909956932068 0.19414198398590088
vt 0.8010799884796143 0.20614200830459595
vt 0.819021999835968 0.05911499261856079
vt 0.8030369877815247 0.056783974170684814
vt 0.8026649951934814 0.06831598281860352
vt 0.8187659978866577 0.07003599405288696
vt 0.8027529716491699 0.07890897989273071
vt 0.8188440203666687 0.08045697212219238
vt 0.5047339797019958 0.27114999294281006
vt 0.5228430032730103 0.26800602674484253
vt 0.5228430032730103 0.2344290018081665
vt 0.699105978012085 0.4158669710159302
vt 0.725458025932312 0.413877010345459
vt 0.7261940240859985 0.4581720232963562
vt 0.6990500092506409 0.45890599489212036
vt 0.5072129964828491 0.3586429953575134
vt 0.7322049736976624 0.6727280020713806
vt 0.7294849753379822 0.7133080065250397
vt 0.7009760141372681 0.7133080065250397
vt 0.7015339732170105 0.6727280020713806
vt 0.8395509719848633 0.125
vt 0.8390589952468872 0.11242800951004028
vt 0.8381109833717346 0.20473599433898926
vt 0.8386070132255554 0.19256001710891724
vt 0.8396689891815186 0.05984002351760864
vt 0.8395339846611023 0.07126998901367188
vt 0.8396090269088745 0.08184301853179932
vt 0.6521700024604797 0.3084380030632019
vt 0.6521700024604797 0.3590710163116455
vt 0.6632109880447388 0.3590710163116455
vt 0.6632109880447388 0.3084380030632019
vt 0.7763850092887878 0.1079069972038269
vt 0.7786070108413696 0.09399700164794922
vt 0.7712299823760986 0.09466701745986938
vt 0.7718179821968079 0.10801202058792114
vt 0.7818729877471924 0.12234699726104736
vt 0.7800400257110596 0.10730797052383423
vt 0.7708359956741333 0.17704302072525024
vt 0.7781739830970764 0.17806798219680786
vt 0.776669979095459 0.16407597064971924
vt 0.7721189856529236 0.1637529730796814
vt 0.817641019821167 0.14554297924041748
vt 0.8183839917182922 0.15719401836395264
vt 0.8386819958686829 0.15815198421478271
vt 0.8391910195350647 0.14616799354553223
vt 0.8014410138130188 0.14663797616958618
vt 0.8028410077095032 0.1580049991607666
vt 0.7700390219688416 0.15645700693130493
vt 0.7807289958000183 0.16339802742004395
vt 0.7817559838294983 0.1496269702911377
vt 0.7652480006217957 0.1469380259513855
vt 0.758296012878418 0.15011000633239746
vt 0.7662050127983093 0.15918397903442383
vt 0.6124340295791626 0.3084380030632019
vt 0.6019989848136902 0.3084380030632019
vt 0.6019989848136902 0.3590710163116455
vt 0.6124340295791626 0.3590710163116455
vt 0.6019989848136902 0.23474299907684326
vt 0.6019989848136902 0.28294897079467773
vt 0.6124340295791626 0.272724986076355
vt 0.6124340295791626 0.23474299907684326
vt 0.7739970088005066 0.2175840139389038
vt 0.7690389752388 0.21708697080612183
vt 0.8170959949493408 0.214572012424469
vt 0.8010159730911255 0.21615099906921387
vt 0.8377370238304138 0.21518999338150024
vt 0.46119898557662964 0.3586429953575134
vt 0.47957998514175415 0.3586429953575134
vt 0.4782469868659973 0.32398897409439087
vt 0.4770210087299347 0.29772597551345825
vt 0.46119898557662964 0.30499398708343506
vt 0.46119898557662964 0.26889801025390625
vt 0.4767700135707855 0.2713540196418762
vt 0.46119898557662964 0.2344290018081665
vt 0.8176789879798889 0.13210797309875488
vt 0.839339017868042 0.13224101066589355
vt 0.8014259934425354 0.13145101070404053
vt 0.7830910086631775 0.130545973777771
vt 0.7630820274353027 0.13186997175216675
vt 0.7548689842224121 0.13046801090240479
vt 0.6394230127334595 0.3084380030632019
vt 0.6394230127334595 0.3590710163116455
vt 0.6394219994544983 0.23474299907684326
vt 0.6394230127334595 0.26969897747039795
vt 0.7757260203361511 0.04523599147796631
vt 0.7755209803581238 0.03591001033782959
vt 0.7705600261688232 0.0360490083694458
vt 0.7707380056381226 0.04567301273345947
vt 0.802827000617981 0.042838990688323975
vt 0.8189529776573181 0.042634010314941406
vt 0.8189210295677185 0.035286009311676025
vt 0.802606999874115 0.03540802001953125
vt 0.8396509885787964 0.042868971824645996
vt 0.8395460247993469 0.03542202711105347
vt 0.49772998690605164 0.3254219889640808
vt 0.49850699305534363 0.3586429953575134
vt 0.4967910051345825 0.2965559959411621
vt 0.49516499042510986 0.2344290018081665
vt 0.49587398767471313 0.2660899758338928
vt 0.6986050009727478 0.49890202283859253
vt 0.7269709706306458 0.49890202283859253
vt 0.7301459908485413 0.517969012260437
vt 0.7011370062828064 0.5212759971618652
vt 0.7019720077514648 0.5829289853572845
vt 0.7327989935874939 0.5811269879341125
vt 0.7336620092391968 0.6119309961795807
vt 0.7024819850921631 0.6115959882736206
vt 0.7340319752693176 0.625330001115799
vt 0.7031810283660889 0.625330001115799
vt 0.7254080176353455 0.7497020065784454
vt 0.6984260082244873 0.7497020065784454
vt 0.7254080176353455 0.7497020065784454
vt 0.724602997303009 0.7911249995231628
vt 0.6983709931373596 0.7900920063257217
vt 0.6984260082244873 0.7497020065784454
vt 0.7211520075798035 0.37495899200439453
vt 0.696287989616394 0.37495899200439453
vt 0.783286988735199 0.13945001363754272
vt 0.7637699842453003 0.1389179825782776
vt 0.7548009753227234 0.14020800590515137
vt 0.6263750195503235 0.3084380030632019
vt 0.6263750195503235 0.3590710163116455
vt 0.6263750195503235 0.26969999074935913
vt 0.6263740062713623 0.23474299907684326
vt 0.7706850171089172 0.02678900957107544
vt 0.7756739854812622 0.027190983295440674
vt 0.7760739922523499 0.017051994800567627
vt 0.7711730003356934 0.016447007656097412
vt 0.8189669847488403 0.0288199782371521
vt 0.819167971611023 0.020928025245666504
vt 0.80308997631073 0.02025902271270752
vt 0.8026859760284424 0.028316974639892578
vt 0.839605987071991 0.0290830135345459
vt 0.8398799896240234 0.0210379958152771
vt 0.6981329917907715 0.8298919945955276
vt 0.7240189909934998 0.8295059949159622
vt 0.7223700284957886 0.8739459961652756
vt 0.6971780061721802 0.8739459961652756
vt 0.48819500207901 0.3253989815711975
vt 0.4899120032787323 0.3586429953575134
vt 0.4873589873313904 0.29669302701950073
vt 0.48634999990463257 0.2662310004234314
vt 0.48569801449775696 0.2344290018081665
vt 0.7317669987678528 0.5509639978408813
vt 0.7015190124511719 0.5529370009899139
vt 0.8394420146942139 0.13852500915527344
vt 0.8176460266113281 0.1382889747619629
vt 0.7416700124740601 0.6122120022773743
vt 0.7416700124740601 0.625330001115799
vt 0.7416700124740601 0.5809229910373688
vt 0.7416700124740601 0.5503270030021667
vt 0.7416700124740601 0.5164830088615417
vt 0.7416700124740601 0.49890202283859253
vt 0.7416700124740601 0.45594698190689087
vt 0.7416700124740601 0.407027006149292
vt 0.7416700124740601 0.37495899200439453
vt 0.7416700124740601 0.8300659954547882
vt 0.7416700124740601 0.8739459961652756
vt 0.7416700124740601 0.7914389967918396
vt 0.7416700124740601 0.7497020065784454
vt 0.7416700124740601 0.7133080065250397
vt 0.7416700124740601 0.7497020065784454
vt 0.7416700124740601 0.6727280020713806
vt 0.7919859886169434 0.12278997898101807
vt 0.7912459969520569 0.1106569766998291
vt 0.7890869975090027 0.07905101776123047
vt 0.7885159850120544 0.06719601154327393
vt 0.7886840105056763 0.05508202314376831
vt 0.787988007068634 0.03552597761154175
vt 0.7882480025291443 0.04366099834442139
vt 0.7880740165710449 0.027818024158477783
vt 0.7885199785232544 0.019074976444244385
vt 0.7868750095367432 0.20669400691986084
vt 0.786562979221344 0.21723401546478271
vt 0.7880129814147949 0.19345301389694214
vt 0.7916250228881836 0.1479330062866211
vt 0.7907029986381531 0.15994799137115479
vt 0.7926570177078247 0.13913500308990479
vt 0.8014280200004578 0.13879501819610596
vt 0.7927250266075134 0.13108599185943604
vt 0.7520840167999268 0.1703910231590271
vt 0.7411370277404785 0.15645700693130493
vt 0.7386410236358643 0.16252398490905762
vt 0.7477049827575684 0.17342299222946167
vt 0.7032470107078552 0.20089799165725708
vt 0.7075979709625244 0.19955599308013916
vt 0.7053490281105042 0.18505799770355225
vt 0.7018399834632874 0.18431097269058228
vt 0.7387480139732361 0.20664501190185547
vt 0.7404900193214417 0.21123701333999634
vt 0.7492660284042358 0.1983870267868042
vt 0.7458189725875854 0.19749301671981812
vt 0.7477329969406128 0.18495601415634155
vt 0.7520840167999268 0.18423300981521606
vt 0.7017769813537598 0.17099100351333618
vt 0.7053210139274597 0.17352598905563354
vt 0.7139530181884766 0.16258597373962402
vt 0.7119699716567993 0.15747499465942383
vt 0.7140600085258484 0.2067049741744995
vt 0.71185302734375 0.2122730016708374
vt 0.7310810089111328 0.1547350287437439
vt 0.7307180166244507 0.16089200973510742
vt 0.7308310270309448 0.20771902799606323
vt 0.7311739921569824 0.21511298418045044
vt 0.7225859761238098 0.21403497457504272
vt 0.7227240204811096 0.2077379822731018
vt 0.7226099967956543 0.16091102361679077
vt 0.7220939993858337 0.153734028339386
vt 0.789671003818512 0.09031099081039429
vt 0.7890769839286804 0.18218600749969482
vt 0.802249014377594 0.1841059923171997
vt 0.8182860016822815 0.18353599309921265
vt 0.8390489816665649 0.1827639937400818
vt 0.7269709706306458 0.49890202283859253
vt 0.6986050009727478 0.49890202283859253
vt 0.7416700124740601 0.49890202283859253
vt 0.8189219832420349 0.09016400575637817
vt 0.8396679759025574 0.09201699495315552
vt 0.8029119968414307 0.08892101049423218
vt 0.6884490251541138 0.6134940087795258
vt 0.6884490251541138 0.5851089954376221
vt 0.6884490251541138 0.625330001115799
vt 0.6884490251541138 0.6727280020713806
vt 0.6884490251541138 0.7133080065250397
vt 0.6884490251541138 0.7497020065784454
vt 0.6884490251541138 0.7497020065784454
vt 0.6884490251541138 0.7919110059738159
vt 0.6884490251541138 0.8277599960565567
vt 0.6884490251541138 0.8739459961652756
vt 0.6884490251541138 0.41720902919769287
vt 0.6884490251541138 0.37495899200439453
vt 0.6884490251541138 0.4602760076522827
vt 0.6884490251541138 0.49890202283859253
vt 0.6884490251541138 0.5260570049285889
vt 0.6884490251541138 0.49890202283859253
vt 0.6884490251541138 0.5568790137767792

usemtl Material

f 1/1/1 2/2/2 3/3/3
f 3/3/3 4/4/4 1/1/1
f 5/5/5 6/6/6 7/7/7
f 7/7/7 8/8/8 5/5/5
f 9/9/9 10/10/10 11/11/11
f 11/11/11 12/12/12 9/9/9
f 13/13/13 14/14/14 15/15/15
f 15/15/15 16/16/16 13/13/13
f 12/12/12 11/11/11 17/17/17
f 17/17/17 18/18/18 12/12/12
f 19/19/19 20/20/20 21/21/21
f 21/21/21 22/22/22 19/19/19
f 23/23/23 24/24/24 25/25/25
f 25/25/25 26/26/26 23/23/23
f 27/27/27 28/28/28 29/29/29
f 29/29/29 30/30/30 27/27/27
f 31/31/31 32/32/32 33/33/33
f 33/33/33 34/34/34 31/31/31
f 34/34/34 33/33/33 35/35/35
f 35/35/35 36/36/36 34/34/34
f 37/37/37 38/38/38 39/39/39
f 40/40/40 41/41/41 42/42/42
f 42/42/42 43/43/43 40/40/40
f 7/7/7 44/44/44 8/8/8
f 45/45/45 46/46/46 47/47/47
f 47/47/47 48/48/48 45/45/45
f 24/24/24 49/49/49 50/50/50
f 50/50/50 25/25/25 24/24/24
f 51/51/51 52/52/52 28/28/28
f 28/28/28 27/27/27 51/51/51
f 53/53/53 31/31/31 34/34/34
f 34/34/34 54/54/54 53/53/53
f 54/54/54 34/34/34 36/36/36
f 36/36/36 55/55/55 54/54/54
f 56/56/56 57/57/57 58/58/58
f 58/58/58 59/59/59 56/56/56
f 60/60/60 61/61/61 62/62/62
f 62/62/62 63/63/63 60/60/60
f 3/3/3 2/2/2 64/64/64
f 64/64/64 65/65/65 3/3/3
f 66/66/66 67/67/67 68/68/68
f 68/68/68 69/69/69 66/66/66
f 70/70/70 71/71/71 72/72/72
f 72/72/72 73/73/73 70/70/70
f 74/74/74 75/75/75 71/71/71
f 71/71/71 70/70/70 74/74/74
f 76/76/76 77/77/77 78/78/78
f 78/78/78 79/79/79 76/76/76
f 80/80/80 81/81/81 76/76/76
f 76/76/76 79/79/79 80/80/80
f 82/82/82 83/83/83 84/84/84
f 84/84/84 85/85/85 82/82/82
f 86/86/86 87/87/87 88/88/88
f 88/88/88 89/89/89 86/86/86
f 90/90/90 21/21/21 20/20/20
f 20/20/20 91/91/91 90/90/90
f 92/92/92 27/27/27 30/30/30
f 30/30/30 93/93/93 92/92/92
f 94/94/94 51/51/51 27/27/27
f 27/27/27 92/92/92 94/94/94
f 95/95/95 96/96/96 97/97/97
f 97/97/97 98/98/98 99/99/99
f 99/99/99 95/95/95 97/97/97
f 100/100/100 101/101/101 102/102/102
f 49/49/49 24/24/24 103/103/103
f 103/103/103 104/104/104 49/49/49
f 24/24/24 23/23/23 105/105/105
f 105/105/105 103/103/103 24/24/24
f 106/106/106 64/64/64 2/2/2
f 2/2/2 107/107/107 106/106/106
f 2/2/2 1/1/1 108/108/108
f 108/108/108 107/107/107 2/2/2
f 57/57/57 56/56/56 109/109/109
f 109/109/109 110/110/110 57/57/57
f 14/14/14 111/111/111 112/112/112
f 112/112/112 15/15/15 14/14/14
f 113/113/113 114/114/114 115/115/115
f 115/115/115 116/116/116 113/113/113
f 117/117/117 118/118/118 119/119/119
f 119/119/119 120/120/120 117/117/117
f 121/121/121 122/122/122 119/119/119
f 119/119/119 118/118/118 121/121/121
f 44/44/44 7/7/7 123/123/123
f 123/123/123 124/124/124 44/44/44
f 6/6/6 125/125/125 123/123/123
f 123/123/123 7/7/7 6/6/6
f 39/39/39 126/126/126 127/127/127
f 127/127/127 37/37/37 39/39/39
f 128/128/128 129/129/129 130/130/130
f 130/130/130 131/131/131 128/128/128
f 132/132/132 133/133/133 134/134/134
f 134/134/134 135/135/135 132/132/132
f 134/134/134 136/136/136 137/137/137
f 137/137/137 135/135/135 134/134/134
f 46/46/46 138/138/138 139/139/139
f 139/139/139 47/47/47 46/46/46
f 140/140/140 141/141/141 142/142/142
f 142/142/142 143/143/143 140/140/140
f 144/144/144 41/41/41 40/40/40
f 40/40/40 145/145/145 144/144/144
f 146/146/146 147/147/147 79/79/79
f 79/79/79 78/78/78 146/146/146
f 148/148/148 80/80/80 79/79/79
f 79/79/79 147/147/147 148/148/148
f 149/149/149 82/82/82 85/85/85
f 85/85/85 150/150/150 149/149/149
f 151/151/151 152/152/152 89/89/89
f 89/89/89 88/88/88 151/151/151
f 153/153/153 154/154/154 155/155/155
f 155/155/155 156/156/156 153/153/153
f 157/157/157 158/158/158 159/159/159
f 159/159/159 160/160/160 157/157/157
f 161/161/161 162/162/162 158/158/158
f 158/158/158 157/157/157 161/161/161
f 163/163/163 164/164/164 165/165/165
f 165/165/165 166/166/166 163/163/163
f 167/167/167 97/97/97 96/96/96
f 96/96/96 168/168/168 167/167/167
f 167/167/167 169/169/169 98/98/98
f 98/98/98 97/97/97 167/167/167
f 102/102/102 101/101/101 170/170/170
f 170/170/170 171/171/171 102/102/102
f 130/130/130 172/172/172 173/173/173
f 173/173/173 131/131/131 130/130/130
f 73/73/73 174/174/174 175/175/175
f 175/175/175 70/70/70 73/73/73
f 106/106/106 107/107/107 147/147/147
f 147/147/147 146/146/146 106/106/106
f 108/108/108 148/148/148 147/147/147
f 147/147/147 107/107/107 108/108/108
f 109/109/109 149/149/149 150/150/150
f 150/150/150 110/110/110 109/109/109
f 111/111/111 152/152/152 151/151/151
f 151/151/151 112/112/112 111/111/111
f 115/115/115 114/114/114 154/154/154
f 154/154/154 153/153/153 115/115/115
f 119/119/119 157/157/157 160/160/160
f 160/160/160 120/120/120 119/119/119
f 122/122/122 161/161/161 157/157/157
f 157/157/157 119/119/119 122/122/122
f 142/142/142 141/141/141 164/164/164
f 164/164/164 163/163/163 142/142/142
f 124/124/124 123/123/123 167/167/167
f 167/167/167 168/168/168 124/124/124
f 125/125/125 169/169/169 167/167/167
f 167/167/167 123/123/123 125/125/125
f 171/171/171 170/170/170 127/127/127
f 127/127/127 126/126/126 171/171/171
f 172/172/172 133/133/133 132/132/132
f 132/132/132 173/173/173 172/172/172
f 175/175/175 174/174/174 104/104/104
f 104/104/104 103/103/103 175/175/175
f 176/176/176 177/177/177 136/136/136
f 136/136/136 134/134/134 176/176/176
f 178/178/178 176/176/176 134/134/134
f 134/134/134 133/133/133 178/178/178
f 133/133/133 172/172/172 179/179/179
f 179/179/179 178/178/178 133/133/133
f 179/179/179 172/172/172 130/130/130
f 130/130/130 180/180/180 179/179/179
f 129/129/129 181/181/181 180/180/180
f 180/180/180 130/130/130 129/129/129
f 182/182/182 42/42/42 41/41/41
f 41/41/41 183/183/183 182/182/182
f 183/183/183 41/41/41 144/144/144
f 144/144/144 184/184/184 183/183/183
f 164/164/164 185/185/185 186/186/186
f 186/186/186 165/165/165 164/164/164
f 141/141/141 187/187/187 185/185/185
f 185/185/185 164/164/164 141/141/141
f 188/188/188 187/187/187 141/141/141
f 141/141/141 140/140/140 188/188/188
f 189/189/189 190/190/190 138/138/138
f 138/138/138 46/46/46 189/189/189
f 46/46/46 45/45/45 191/191/191
f 191/191/191 189/189/189 46/46/46
f 192/192/192 23/23/23 26/26/26
f 26/26/26 193/193/193 192/192/192
f 194/194/194 35/35/35 33/33/33
f 33/33/33 195/195/195 194/194/194
f 32/32/32 196/196/196 195/195/195
f 195/195/195 33/33/33 32/32/32
f 120/120/120 197/197/197 198/198/198
f 198/198/198 117/117/117 120/120/120
f 199/199/199 197/197/197 120/120/120
f 120/120/120 160/160/160 199/199/199
f 200/200/200 199/199/199 160/160/160
f 160/160/160 159/159/159 200/200/200
f 93/93/93 30/30/30 201/201/201
f 201/201/201 202/202/202 93/93/93
f 203/203/203 201/201/201 30/30/30
f 30/30/30 29/29/29 203/203/203
f 204/204/204 205/205/205 75/75/75
f 75/75/75 74/74/74 204/204/204
f 206/206/206 204/204/204 74/74/74
f 74/74/74 207/207/207 206/206/206
f 208/208/208 206/206/206 207/207/207
f 207/207/207 105/105/105 208/208/208
f 23/23/23 192/192/192 208/208/208
f 208/208/208 105/105/105 23/23/23
f 192/192/192 64/64/64 106/106/106
f 106/106/106 208/208/208 192/192/192
f 64/64/64 192/192/192 193/193/193
f 193/193/193 65/65/65 64/64/64
f 12/12/12 18/18/18 194/194/194
f 194/194/194 195/195/195 12/12/12
f 195/195/195 196/196/196 9/9/9
f 9/9/9 12/12/12 195/195/195
f 114/114/114 113/113/113 198/198/198
f 198/198/198 197/197/197 114/114/114
f 154/154/154 114/114/114 197/197/197
f 197/197/197 199/199/199 154/154/154
f 200/200/200 155/155/155 154/154/154
f 154/154/154 199/199/199 200/200/200
f 201/201/201 21/21/21 90/90/90
f 90/90/90 202/202/202 201/201/201
f 21/21/21 201/201/201 203/203/203
f 203/203/203 22/22/22 21/21/21
f 78/78/78 77/77/77 205/205/205
f 205/205/205 204/204/204 78/78/78
f 146/146/146 78/78/78 204/204/204
f 204/204/204 206/206/206 146/146/146
f 106/106/106 146/146/146 206/206/206
f 206/206/206 208/208/208 106/106/106
f 209/209/209 210/210/210 211/211/211
f 211/211/211 212/212/212 209/209/209
f 213/213/213 214/214/214 215/215/215
f 215/215/215 216/216/216 213/213/213
f 217/217/217 218/218/218 219/219/219
f 219/219/219 220/220/220 217/217/217
f 221/221/221 220/220/220 219/219/219
f 219/219/219 222/222/222 221/221/221
f 223/223/223 224/224/224 225/225/225
f 225/225/225 226/226/226 223/223/223
f 227/227/227 214/214/214 213/213/213
f 213/213/213 228/228/228 227/227/227
f 229/229/229 230/230/230 211/211/211
f 211/211/211 210/210/210 229/229/229
f 218/218/218 217/217/217 231/231/231
f 231/231/231 232/232/232 218/218/218
f 233/233/233 234/234/234 227/227/227
f 227/227/227 228/228/228 233/233/233
f 226/226/226 225/225/225 235/235/235
f 235/235/235 236/236/236 226/226/226
f 70/70/70 175/175/175 207/207/207
f 207/207/207 74/74/74 70/70/70
f 231/231/231 234/234/234 233/233/233
f 233/233/233 232/232/232 231/231/231
f 235/235/235 230/230/230 229/229/229
f 229/229/229 236/236/236 235/235/235
f 175/175/175 103/103/103 105/105/105
f 105/105/105 207/207/207 175/175/175
f 18/18/18 61/61/61 237/237/237
f 237/237/237 194/194/194 18/18/18
f 18/18/18 17/17/17 62/62/62
f 62/62/62 61/61/61 18/18/18
f 56/56/56 59/59/59 16/16/16
f 16/16/16 15/15/15 56/56/56
f 15/15/15 112/112/112 109/109/109
f 109/109/109 56/56/56 15/15/15
f 112/112/112 151/151/151 149/149/149
f 149/149/149 109/109/109 112/112/112
f 149/149/149 151/151/151 88/88/88
f 88/88/88 82/82/82 149/149/149
f 87/87/87 83/83/83 82/82/82
f 82/82/82 88/88/88 87/87/87
f 66/66/66 19/19/19 22/22/22
f 22/22/22 67/67/67 66/66/66
f 22/22/22 203/203/203 238/238/238
f 238/238/238 67/67/67 22/22/22
f 203/203/203 29/29/29 239/239/239
f 239/239/239 238/238/238 203/203/203
f 239/239/239 29/29/29 28/28/28
f 28/28/28 240/240/240 239/239/239
f 240/240/240 28/28/28 52/52/52
f 52/52/52 241/241/241 240/240/240
f 216/216/216 215/215/215 224/224/224
f 224/224/224 223/223/223 216/216/216
f 43/43/43 42/42/42 242/242/242
f 242/242/242 243/243/243 43/43/43
f 42/42/42 182/182/182 244/244/244
f 244/244/244 242/242/242 42/42/42
f 100/100/100 99/99/99 98/98/98
f 98/98/98 101/101/101 100/100/100
f 101/101/101 98/98/98 169/169/169
f 169/169/169 170/170/170 101/101/101
f 169/169/169 125/125/125 127/127/127
f 127/127/127 170/170/170 169/169/169
f 125/125/125 6/6/6 37/37/37
f 37/37/37 127/127/127 125/125/125
f 6/6/6 5/5/5 38/38/38
f 38/38/38 37/37/37 6/6/6
f 177/177/177 191/191/191 45/45/45
f 45/45/45 136/136/136 177/177/177
f 136/136/136 45/45/45 48/48/48
f 48/48/48 137/137/137 136/136/136
f 212/212/212 221/221/221 222/222/222
f 222/222/222 209/209/209 212/212/212
f 55/55/55 36/36/36 245/245/245
f 245/245/245 246/246/246 55/55/55
f 36/36/36 35/35/35 247/247/247
f 247/247/247 245/245/245 36/36/36
f 247/247/247 35/35/35 194/194/194
f 194/194/194 237/237/237 247/247/247
f 132/132/132 135/135/135 248/248/248
f 248/248/248 249/249/249 132/132/132
f 248/248/248 135/135/135 137/137/137
f 137/137/137 250/250/250 248/248/248
f 251/251/251 250/250/250 137/137/137
f 137/137/137 48/48/48 251/251/251
f 252/252/252 251/251/251 48/48/48
f 48/48/48 47/47/47 252/252/252
f 253/253/253 252/252/252 47/47/47
f 47/47/47 139/139/139 253/253/253
f 254/254/254 143/143/143 142/142/142
f 142/142/142 255/255/255 254/254/254
f 255/255/255 142/142/142 163/163/163
f 163/163/163 256/256/256 255/255/255
f 163/163/163 166/166/166 257/257/257
f 257/257/257 256/256/256 163/163/163
f 258/258/258 259/259/259 145/145/145
f 145/145/145 40/40/40 258/258/258
f 43/43/43 260/260/260 258/258/258
f 258/258/258 40/40/40 43/43/43
f 260/260/260 43/43/43 243/243/243
f 243/243/243 261/261/261 260/260/260
f 262/262/262 263/263/263 128/128/128
f 128/128/128 131/131/131 262/262/262
f 173/173/173 264/264/264 262/262/262
f 262/262/262 131/131/131 173/173/173
f 132/132/132 249/249/249 264/264/264
f 264/264/264 173/173/173 132/132/132